# https://github.com/mikedh/trimesh
mtllib material.mtl
usemtl material_0
v -0.52286000 -0.01362000 0.08918000
v -0.52286000 -0.01362000 -0.07884000
v -0.52286000 -0.28838000 -0.07884000
v -0.52286000 -0.28838000 0.08918000
v -0.53286000 -0.00071000 0.08918000
v -0.53286000 0.29986000 -0.08930000
v -0.53286000 0.29986000 0.08918000
v -0.53286000 -0.00071000 -0.08930000
v -0.53286000 -0.30129000 0.08918000
v -0.53286000 -0.30129000 -0.08930000
v 0.00088000 -0.30129000 -0.08930000
v 0.53073000 -0.30129000 -0.08930000
v 0.53073000 -0.00071000 -0.08930000
v 0.00088000 -0.00071000 -0.08930000
v -0.53286000 -0.30129000 -0.08930000
v 0.53073000 0.29986000 -0.08930000
v -0.53286000 -0.00071000 -0.08930000
v 0.00088000 0.29986000 -0.08930000
v -0.53286000 0.29986000 -0.08930000
v 0.53073000 -0.00071000 -0.08930000
v 0.53073000 0.29986000 0.08918000
v 0.53073000 0.29986000 -0.08930000
v 0.53073000 -0.00071000 0.08918000
v 0.53073000 -0.30129000 -0.08930000
v 0.53073000 -0.30129000 0.08918000
v 0.00088000 -0.30129000 0.08918000
v 0.53073000 -0.30129000 0.08918000
v 0.53073000 -0.30129000 -0.08930000
v 0.00088000 -0.30129000 -0.08930000
v -0.53286000 -0.30129000 0.08918000
v -0.53286000 -0.30129000 -0.08930000
v 0.00088000 0.29986000 -0.08930000
v 0.53073000 0.29986000 -0.08930000
v 0.53073000 0.29986000 0.08918000
v 0.00088000 0.29986000 0.08918000
v -0.53286000 0.29986000 -0.08930000
v -0.53286000 0.29986000 0.08918000
v 0.52073000 0.28695000 0.08918000
v 0.52073000 0.28695000 -0.07884000
v 0.01088000 0.28695000 -0.07884000
v 0.01088000 0.28695000 0.08918000
v 0.01088000 -0.28838000 0.08918000
v 0.01088000 -0.28838000 -0.07884000
v 0.52073000 -0.28838000 -0.07884000
v 0.52073000 -0.28838000 0.08918000
v 0.52073000 0.01220000 0.08918000
v 0.52073000 0.01220000 -0.07884000
v 0.52073000 0.28695000 -0.07884000
v 0.52073000 0.28695000 0.08918000
v 0.52073000 0.28695000 0.08918000
v 0.53073000 -0.00071000 0.08918000
v 0.52073000 0.01220000 0.08918000
v 0.53073000 0.29986000 0.08918000
v 0.01088000 0.28695000 0.08918000
v 0.00088000 0.29986000 0.08918000
v -0.52286000 0.28695000 0.08918000
v -0.53286000 0.29986000 0.08918000
v -0.00912000 0.28695000 0.08918000
v 0.00088000 -0.00071000 0.08918000
v -0.00912000 0.01220000 0.08918000
v 0.01088000 0.01220000 0.08918000
v 0.00088000 0.29986000 0.08918000
v 0.01088000 0.28695000 0.08918000
v 0.00088000 -0.00071000 0.08918000
v 0.52073000 0.01220000 0.08918000
v 0.53073000 -0.00071000 0.08918000
v 0.01088000 -0.01362000 0.08918000
v 0.52073000 -0.01362000 0.08918000
v 0.53073000 -0.30129000 0.08918000
v 0.52073000 -0.28838000 0.08918000
v 0.00088000 -0.30129000 0.08918000
v 0.01088000 -0.28838000 0.08918000
v -0.00912000 -0.01362000 0.08918000
v -0.00912000 -0.28838000 0.08918000
v -0.53286000 -0.30129000 0.08918000
v -0.52286000 -0.28838000 0.08918000
v -0.53286000 -0.00071000 0.08918000
v -0.52286000 -0.01362000 0.08918000
v -0.00912000 0.01220000 0.08918000
v -0.52286000 0.01220000 0.08918000
v -0.53286000 0.29986000 0.08918000
v -0.52286000 0.28695000 0.08918000
v -0.00912000 0.01220000 -0.07884000
v -0.52286000 0.01220000 -0.07884000
v -0.52286000 0.28695000 -0.07884000
v -0.00912000 0.28695000 -0.07884000
v -0.00912000 -0.28838000 -0.07884000
v -0.52286000 -0.28838000 -0.07884000
v -0.52286000 -0.01362000 -0.07884000
v -0.00912000 -0.01362000 -0.07884000
v 0.52073000 -0.28838000 -0.07884000
v 0.01088000 -0.28838000 -0.07884000
v 0.01088000 -0.01362000 -0.07884000
v 0.52073000 -0.01362000 -0.07884000
v 0.52073000 0.01220000 -0.07884000
v 0.01088000 0.01220000 -0.07884000
v 0.01088000 0.28695000 -0.07884000
v 0.52073000 0.28695000 -0.07884000
v 0.52073000 -0.28838000 0.08918000
v 0.52073000 -0.28838000 -0.07884000
v 0.52073000 -0.01362000 -0.07884000
v 0.52073000 -0.01362000 0.08918000
v -0.00912000 0.28695000 0.08918000
v -0.00912000 0.28695000 -0.07884000
v -0.52286000 0.28695000 -0.07884000
v -0.52286000 0.28695000 0.08918000
v 0.01088000 0.01220000 0.08918000
v 0.01088000 0.01220000 -0.07884000
v 0.52073000 0.01220000 -0.07884000
v 0.52073000 0.01220000 0.08918000
v -0.00912000 -0.01362000 0.08918000
v -0.00912000 -0.01362000 -0.07884000
v -0.52286000 -0.01362000 -0.07884000
v -0.52286000 -0.01362000 0.08918000
v 0.52073000 -0.01362000 0.08918000
v 0.52073000 -0.01362000 -0.07884000
v 0.01088000 -0.01362000 -0.07884000
v 0.01088000 -0.01362000 0.08918000
v -0.52286000 0.28695000 0.08918000
v -0.52286000 0.28695000 -0.07884000
v -0.52286000 0.01220000 -0.07884000
v -0.52286000 0.01220000 0.08918000
v 0.01088000 0.28695000 0.08918000
v 0.01088000 0.28695000 -0.07884000
v 0.01088000 0.01220000 -0.07884000
v 0.01088000 0.01220000 0.08918000
v -0.52286000 -0.28838000 0.08918000
v -0.52286000 -0.28838000 -0.07884000
v -0.00912000 -0.28838000 -0.07884000
v -0.00912000 -0.28838000 0.08918000
v 0.01088000 -0.01362000 0.08918000
v 0.01088000 -0.01362000 -0.07884000
v 0.01088000 -0.28838000 -0.07884000
v 0.01088000 -0.28838000 0.08918000
v -0.52286000 0.01220000 0.08918000
v -0.52286000 0.01220000 -0.07884000
v -0.00912000 0.01220000 -0.07884000
v -0.00912000 0.01220000 0.08918000
v -0.00912000 -0.28838000 0.08918000
v -0.00912000 -0.28838000 -0.07884000
v -0.00912000 -0.01362000 -0.07884000
v -0.00912000 -0.01362000 0.08918000
v -0.00912000 0.01220000 0.08918000
v -0.00912000 0.01220000 -0.07884000
v -0.00912000 0.28695000 -0.07884000
v -0.00912000 0.28695000 0.08918000
vt 0.70757130 0.89643780
vt 0.79158090 0.89643780
vt 0.79158090 0.79001280
vt 0.70757130 0.79001280
vt 0.70757130 0.90143780
vt 0.79680820 1.01786300
vt 0.70757130 1.01786300
vt 0.79680820 0.90143780
vt 0.70757130 0.78501280
vt 0.79680820 0.78501280
vt 0.61261300 0.78501280
vt 0.34768740 0.78501280
vt 0.34768740 0.90143780
vt 0.61261300 0.90143780
vt 0.87948660 0.78501280
vt 0.34768740 1.01786300
vt 0.87948660 0.90143780
vt 0.61261300 1.01786300
vt 0.87948660 1.01786300
vt 0.79680820 0.90143780
vt 0.70757130 1.01786300
vt 0.79680820 1.01786300
vt 0.70757130 0.90143780
vt 0.79680820 0.78501280
vt 0.70757130 0.78501280
vt 0.70757130 0.61261300
vt 0.70757130 0.34768740
vt 0.79680820 0.34768740
vt 0.79680820 0.61261300
vt 0.70757130 0.87948660
vt 0.79680820 0.87948660
vt 0.79680820 0.61261300
vt 0.79680820 0.34768740
vt 0.70757130 0.34768740
vt 0.70757130 0.61261300
vt 0.79680820 0.87948660
vt 0.70757130 0.87948660
vt 0.70757130 0.35268740
vt 0.79158090 0.35268740
vt 0.79158090 0.60761300
vt 0.70757130 0.60761300
vt 0.70757130 0.60761300
vt 0.79158090 0.60761300
vt 0.79158090 0.35268740
vt 0.70757130 0.35268740
vt 0.70757130 0.90643780
vt 0.79158090 0.90643780
vt 0.79158090 1.01286300
vt 0.70757130 1.01286300
vt 0.35268740 0.01286280
vt 0.34768740 -0.09856218
vt 0.35268740 -0.09356219
vt 0.34768740 0.01786280
vt 0.60761300 0.01286280
vt 0.61261300 0.01786280
vt 0.87448660 0.01286280
vt 0.87948660 0.01786280
vt 0.61761300 0.01286280
vt 0.61261300 -0.09856218
vt 0.61761300 -0.09356219
vt 0.60761300 0.90643780
vt 0.61261300 1.01786300
vt 0.60761300 1.01286300
vt 0.61261300 0.90143780
vt 0.35268740 0.90643780
vt 0.34768740 0.90143780
vt 0.60761300 0.89643780
vt 0.35268740 0.89643780
vt 0.34768740 0.78501280
vt 0.35268740 0.79001280
vt 0.61261300 0.78501280
vt 0.60761300 0.79001280
vt 0.61761300 0.89643780
vt 0.61761300 0.79001280
vt 0.87948660 0.78501280
vt 0.87448660 0.79001280
vt 0.87948660 0.90143780
vt 0.87448660 0.89643780
vt 0.61761300 0.90643780
vt 0.87448660 0.90643780
vt 0.87948660 1.01786300
vt 0.87448660 1.01286300
vt 0.61761300 0.90643780
vt 0.87448660 0.90643780
vt 0.87448660 1.01286300
vt 0.61761300 1.01286300
vt 0.61761300 0.79001280
vt 0.87448660 0.79001280
vt 0.87448660 0.89643780
vt 0.61761300 0.89643780
vt 0.35268740 0.79001280
vt 0.60761300 0.79001280
vt 0.60761300 0.89643780
vt 0.35268740 0.89643780
vt 0.35268740 0.90643780
vt 0.60761300 0.90643780
vt 0.60761300 1.01286300
vt 0.35268740 1.01286300
vt 0.70757130 0.79001280
vt 0.79158090 0.79001280
vt 0.79158090 0.89643780
vt 0.70757130 0.89643780
vt 0.70757130 0.61761300
vt 0.79158090 0.61761300
vt 0.79158090 0.87448660
vt 0.70757130 0.87448660
vt 0.70757130 0.60761300
vt 0.79158090 0.60761300
vt 0.79158090 0.35268740
vt 0.70757130 0.35268740
vt 0.70757130 0.61761300
vt 0.79158090 0.61761300
vt 0.79158090 0.87448660
vt 0.70757130 0.87448660
vt 0.70757130 0.35268740
vt 0.79158090 0.35268740
vt 0.79158090 0.60761300
vt 0.70757130 0.60761300
vt 0.70757130 0.01286280
vt 0.79158090 0.01286280
vt 0.79158090 -0.09356219
vt 0.70757130 -0.09356219
vt 0.70757130 0.01286280
vt 0.79158090 0.01286280
vt 0.79158090 -0.09356219
vt 0.70757130 -0.09356219
vt 0.70757130 0.87448660
vt 0.79158090 0.87448660
vt 0.79158090 0.61761300
vt 0.70757130 0.61761300
vt 0.70757130 0.89643780
vt 0.79158090 0.89643780
vt 0.79158090 0.79001280
vt 0.70757130 0.79001280
vt 0.70757130 0.87448660
vt 0.79158090 0.87448660
vt 0.79158090 0.61761300
vt 0.70757130 0.61761300
vt 0.70757130 0.79001280
vt 0.79158090 0.79001280
vt 0.79158090 0.89643780
vt 0.70757130 0.89643780
vt 0.70757130 0.90643780
vt 0.79158090 0.90643780
vt 0.79158090 1.01286300
vt 0.70757130 1.01286300
f 3/3 2/2 1/1
f 4/4 3/3 1/1
f 7/7 6/6 5/5
f 6/6 8/8 5/5
f 5/5 8/8 9/9
f 8/8 10/10 9/9
f 13/13 12/12 11/11
f 14/14 13/13 11/11
f 14/14 11/11 15/15
f 16/16 13/13 14/14
f 17/17 14/14 15/15
f 18/18 16/16 14/14
f 18/18 14/14 17/17
f 19/19 18/18 17/17
f 22/22 21/21 20/20
f 21/21 23/23 20/20
f 20/20 23/23 24/24
f 23/23 25/25 24/24
f 28/28 27/27 26/26
f 29/29 28/28 26/26
f 29/29 26/26 30/30
f 31/31 29/29 30/30
f 34/34 33/33 32/32
f 35/35 34/34 32/32
f 35/35 32/32 36/36
f 37/37 35/35 36/36
f 40/40 39/39 38/38
f 41/41 40/40 38/38
f 44/44 43/43 42/42
f 45/45 44/44 42/42
f 48/48 47/47 46/46
f 49/49 48/48 46/46
f 52/52 51/51 50/50
f 51/51 53/53 50/50
f 50/50 53/53 54/54
f 53/53 55/55 54/54
f 55/55 57/57 56/56
f 58/58 55/55 56/56
f 59/59 55/55 58/58
f 60/60 59/59 58/58
f 63/63 62/62 61/61
f 62/62 64/64 61/61
f 61/61 64/64 65/65
f 64/64 66/66 65/65
f 66/66 64/64 67/67
f 68/68 66/66 67/67
f 69/69 66/66 68/68
f 70/70 69/69 68/68
f 71/71 69/69 70/70
f 67/67 64/64 72/72
f 72/72 71/71 70/70
f 64/64 71/71 72/72
f 71/71 64/64 73/73
f 74/74 71/71 73/73
f 75/75 71/71 74/74
f 76/76 75/75 74/74
f 77/77 75/75 76/76
f 73/73 64/64 78/78
f 78/78 77/77 76/76
f 64/64 77/77 78/78
f 77/77 64/64 79/79
f 80/80 77/77 79/79
f 81/81 77/77 80/80
f 82/82 81/81 80/80
f 85/85 84/84 83/83
f 86/86 85/85 83/83
f 89/89 88/88 87/87
f 90/90 89/89 87/87
f 93/93 92/92 91/91
f 94/94 93/93 91/91
f 97/97 96/96 95/95
f 98/98 97/97 95/95
f 101/101 100/100 99/99
f 102/102 101/101 99/99
f 105/105 104/104 103/103
f 106/106 105/105 103/103
f 109/109 108/108 107/107
f 110/110 109/109 107/107
f 113/113 112/112 111/111
f 114/114 113/113 111/111
f 117/117 116/116 115/115
f 118/118 117/117 115/115
f 121/121 120/120 119/119
f 122/122 121/121 119/119
f 125/125 124/124 123/123
f 126/126 125/125 123/123
f 129/129 128/128 127/127
f 130/130 129/129 127/127
f 133/133 132/132 131/131
f 134/134 133/133 131/131
f 137/137 136/136 135/135
f 138/138 137/137 135/135
f 141/141 140/140 139/139
f 142/142 141/141 139/139
f 145/145 144/144 143/143
f 146/146 145/145 143/143

