# Blender 4.0.0
# www.blender.org
o decimated_mesh
v -0.006040 0.023707 0.000044
v -0.006039 0.023991 0.000443
v -0.005803 0.023351 0.000392
v -0.004084 0.020259 0.000070
v -0.003997 0.020261 0.000421
v -0.003246 0.020260 0.000693
v -0.006039 0.024242 -0.000533
v -0.002886 0.020260 0.000569
v -0.006038 0.025106 0.000689
v -0.002612 0.020260 0.000201
v -0.002543 0.023440 0.000564
v -0.006040 0.025771 0.000537
v -0.003817 0.020260 -0.000514
v -0.002570 0.020259 -0.000368
v -0.002553 0.023774 0.000244
v -0.006040 0.024926 -0.000688
v -0.003420 0.020258 -0.000696
v -0.002551 0.023201 -0.000590
v -0.006039 0.026130 0.000181
v -0.006039 0.026227 -0.000182
v -0.006039 0.026049 -0.000416
v -0.002553 0.023761 -0.000369
vn -1.0000 -0.0015 0.0019
vn -0.9006 -0.3533 0.2531
vn 0.1396 0.2206 0.9653
vn -0.8666 -0.4909 0.0894
vn -0.7939 -0.4450 -0.4143
vn 0.3615 0.2025 -0.9101
vn 0.3584 -0.0722 -0.9308
vn 0.0496 0.0294 0.9983
vn 0.8004 -0.0853 0.5933
vn 0.1420 0.2327 -0.9621
vn 0.9967 -0.0304 0.0752
vn -0.9998 -0.0188 0.0113
vn 0.4181 0.6347 0.6499
vn 0.5439 0.8107 0.2169
vn -0.4049 -0.2301 -0.8849
vn 0.2459 0.3562 -0.9015
vn 0.5768 0.8167 -0.0178
vn 0.4689 0.7033 -0.5343
vn 0.0400 0.0242 -0.9989
vn -1.0000 0.0011 -0.0002
vn -1.0000 0.0028 0.0005
vn -1.0000 0.0010 0.0001
vn -1.0000 -0.0021 0.0020
vn -1.0000 0.0013 -0.0002
vn -1.0000 -0.0000 -0.0000
vn 0.3246 -0.0335 0.9452
vn -0.8448 -0.4915 0.2114
vn 0.0021 1.0000 0.0017
vn 0.0009 1.0000 0.0001
vn 0.0005 1.0000 -0.0025
vn -0.0114 0.9999 -0.0035
vn 0.0045 1.0000 -0.0005
vn 0.0017 -1.0000 0.0006
vn -0.8069 -0.4605 -0.3700
vn 0.3465 0.2015 -0.9162
vn -0.3334 -0.1914 0.9232
vn -1.0000 -0.0024 -0.0000
vn 1.0000 -0.0066 -0.0060
vn 0.4202 0.6392 0.6442
vn -0.3688 -0.2055 -0.9065
vn -1.0000 -0.0004 0.0029
vn -1.0000 0.0001 0.0004
vn -1.0000 -0.0030 -0.0049
vn -1.0000 -0.0007 0.0081
vn 0.3770 0.2117 -0.9017
vn 0.3568 0.2007 -0.9124
vn -1.0000 0.0020 0.0005
vn -1.0000 0.0009 -0.0001
vn -1.0000 0.0012 -0.0009
vn 0.0069 1.0000 0.0048
vn -0.0002 1.0000 -0.0014
vn 0.0005 1.0000 -0.0031
vn 0.0035 1.0000 -0.0072
vn -0.9999 -0.0057 0.0086
vn -0.9996 -0.0290 0.0006
vn -0.0014 1.0000 -0.0009
s 0
f 16//1 7//1 9//1
f 1//2 3//2 2//2
f 12//3 9//3 11//3
f 4//4 3//4 1//4
f 13//5 1//5 7//5
f 5//6 3//6 9//6
f 17//7 18//7 14//7
f 6//8 11//8 9//8
f 8//9 10//9 11//9
f 16//10 21//10 18//10
f 11//11 10//11 14//11
f 18//12 11//12 15//12
f 15//13 12//13 11//13
f 19//14 15//14 20//14
f 17//15 13//15 7//15
f 18//16 21//16 22//16
f 15//17 22//17 20//17
f 20//18 22//18 21//18
f 17//19 16//19 18//19
f 21//20 16//20 12//20
f 7//21 1//21 2//21
f 9//22 7//22 2//22
f 9//23 12//23 16//23
f 12//24 19//24 21//24
f 19//25 20//25 21//25
f 8//26 11//26 6//26
f 4//27 5//27 3//27
f 10//28 6//28 8//28
f 6//29 10//29 5//29
f 10//30 17//30 5//30
f 4//31 5//31 13//31
f 5//32 17//32 13//32
f 14//33 10//33 17//33
f 13//34 4//34 1//34
f 9//35 3//35 2//35
f 9//36 5//36 6//36
f 22//37 18//37 15//37
f 11//38 14//38 18//38
f 15//39 19//39 12//39
f 16//40 17//40 7//40
f 2//41 12//41 1//41
f 12//42 16//42 1//42
f 16//43 7//43 1//43
f 9//44 12//44 2//44
f 3//45 2//45 5//45
f 5//46 2//46 9//46
f 19//47 20//47 12//47
f 20//48 16//48 12//48
f 20//49 21//49 16//49
f 17//50 13//50 4//50
f 17//51 4//51 8//51
f 8//52 4//52 6//52
f 6//53 4//53 5//53
f 18//54 11//54 22//54
f 22//55 11//55 15//55
f 10//56 17//56 8//56
