# Blender 4.0.0
# www.blender.org
o decimated_mesh
v -0.010492 0.041596 -0.000151
v -0.010512 0.041599 0.000373
v -0.009075 0.045711 0.000418
v -0.010285 0.041597 -0.000536
v -0.009369 0.045042 -0.000070
v -0.009923 0.041596 0.000657
v -0.009077 0.045854 0.000196
v -0.009927 0.041596 -0.000680
v -0.008555 0.045736 -0.000786
v -0.008986 0.045741 -0.000409
v -0.008643 0.045366 0.000672
v -0.008165 0.046917 0.000397
v -0.009285 0.041596 -0.000443
v -0.006563 0.048382 -0.000502
v -0.004607 0.049273 -0.000783
v -0.005011 0.048490 0.000787
v -0.007375 0.046518 0.000785
v -0.008171 0.046925 -0.000022
v -0.004603 0.048375 -0.000478
v -0.009504 0.041596 0.000561
v -0.004603 0.048933 0.000715
v -0.006638 0.048518 0.000415
v -0.006677 0.048551 0.000196
v -0.006595 0.048619 -0.000059
v -0.009272 0.041596 0.000324
v -0.005805 0.048089 0.000786
v -0.006030 0.048954 0.000385
v -0.009177 0.041596 -0.000196
v -0.004603 0.048206 -0.000196
v -0.004604 0.049748 0.000381
v -0.004603 0.049714 -0.000177
v -0.004603 0.048457 0.000533
vn -0.0000 1.0000 -0.0002
vn -0.3710 0.0992 -0.9233
vn 0.8087 -0.5563 0.1912
vn -0.7314 0.6796 -0.0559
vn -0.5682 0.4984 -0.6548
vn -0.2043 0.3714 0.9057
vn -0.1228 0.0376 0.9917
vn -0.7054 0.6705 0.2299
vn -0.4514 0.7727 -0.4463
vn -0.7389 0.5639 0.3689
vn -0.8970 0.3905 -0.2071
vn -0.4129 0.7375 -0.5344
vn -0.4863 0.8729 -0.0405
vn -0.3056 0.2809 0.9098
vn 0.4835 -0.3128 0.8175
vn -1.0000 -0.0001 0.0001
vn 0.4149 -0.2911 -0.8621
vn -0.4281 0.1417 0.8925
vn -0.6411 0.2236 -0.7342
vn -0.7663 0.6012 -0.2267
vn -0.2689 0.3010 -0.9150
vn 0.2189 -0.1742 0.9601
vn 0.6380 -0.4532 0.6225
vn 0.0338 -0.0368 -0.9987
vn -0.5609 0.7972 0.2233
vn -0.4837 0.8736 -0.0538
vn -0.7777 0.5389 0.3236
vn -0.9498 0.3107 -0.0377
vn -0.0005 -1.0000 -0.0004
vn -0.0068 -1.0000 0.0050
vn 0.0009 1.0000 0.0035
vn 0.0015 1.0000 -0.0036
vn 0.0004 -1.0000 -0.0000
vn 0.0004 1.0000 -0.0000
vn 0.8131 -0.5627 0.1491
vn -0.7612 0.6481 0.0240
vn -0.7377 0.6746 0.0241
vn -0.0037 0.0036 1.0000
vn 0.0372 -0.0454 0.9983
vn -0.2152 0.3641 0.9062
vn -0.1894 0.3720 0.9087
vn -0.2075 0.3398 0.9173
vn -0.5378 0.8417 0.0488
vn -0.3251 0.2614 0.9088
vn -0.3174 0.2597 0.9121
vn -0.2711 0.2708 0.9237
vn -0.9231 0.3203 0.2129
vn 0.4775 -0.3378 0.8111
vn 1.0000 -0.0000 -0.0000
vn 1.0000 0.0017 -0.0074
vn 1.0000 0.0021 0.0018
vn -0.4183 0.1364 0.8980
vn -0.8726 0.2858 -0.3961
vn -0.8438 0.2860 -0.4541
vn -0.7732 0.5351 0.3403
vn 0.3365 -0.2454 -0.9091
vn -0.9453 0.3213 0.0565
vn -0.6735 0.6030 -0.4276
vn -0.6801 0.6246 -0.3840
vn -0.4283 0.1399 0.8928
vn -0.4172 0.1380 0.8983
vn -0.8761 0.2948 -0.3814
vn 0.0002 1.0000 -0.0004
vn -0.8456 0.2791 -0.4550
vn 0.0054 1.0000 0.0059
vn -0.0000 1.0000 0.0001
vn 0.0002 1.0000 -0.0000
vn -0.1479 0.2895 0.9457
vn -0.7729 0.5357 0.3401
vn -0.7781 0.5385 0.3234
vn -1.0000 -0.0000 0.0001
vn -0.2048 0.3673 0.9073
s 0
f 6//1 13//1 1//1
f 8//2 4//2 9//2
f 25//3 29//3 32//3
f 23//4 24//4 18//4
f 10//5 14//5 9//5
f 27//6 21//6 30//6
f 17//7 11//7 6//7
f 12//8 22//8 23//8
f 31//9 14//9 24//9
f 3//10 12//10 7//10
f 10//11 5//11 7//11
f 14//12 31//12 15//12
f 24//13 27//13 30//13
f 12//14 17//14 22//14
f 16//15 32//15 21//15
f 19//16 21//16 31//16
f 19//17 13//17 15//17
f 6//18 11//18 2//18
f 10//19 9//19 4//19
f 7//20 18//20 10//20
f 14//21 15//21 9//21
f 16//22 6//22 20//22
f 20//23 25//23 32//23
f 15//24 8//24 9//24
f 22//25 27//25 23//25
f 24//26 30//26 31//26
f 29//27 19//27 13//27
f 2//28 5//28 1//28
f 20//29 6//29 25//29
f 6//30 2//30 1//30
f 1//31 13//31 4//31
f 4//32 13//32 8//32
f 28//33 25//33 13//33
f 13//34 6//34 25//34
f 25//35 28//35 29//35
f 7//36 12//36 18//36
f 12//37 23//37 18//37
f 26//38 17//38 16//38
f 17//39 6//39 16//39
f 22//40 26//40 27//40
f 26//41 16//41 27//41
f 16//42 21//42 27//42
f 24//43 23//43 27//43
f 12//44 3//44 11//44
f 11//45 17//45 12//45
f 17//46 26//46 22//46
f 2//47 3//47 7//47
f 16//48 20//48 32//48
f 32//49 29//49 19//49
f 19//50 15//50 31//50
f 32//16 21//16 19//16
f 31//51 30//51 21//51
f 3//52 2//52 11//52
f 10//53 4//53 5//53
f 4//54 1//54 5//54
f 29//55 13//55 28//55
f 13//56 8//56 15//56
f 2//57 7//57 5//57
f 14//58 10//58 18//58
f 18//59 24//59 14//59
f 6//60 3//60 2//60
f 6//61 11//61 3//61
f 10//62 1//62 5//62
f 25//63 1//63 6//63
f 10//64 4//64 1//64
f 4//65 1//65 8//65
f 8//66 1//66 25//66
f 8//67 25//67 13//67
f 21//68 26//68 16//68
f 19//69 13//69 28//69
f 19//70 28//70 29//70
f 19//16 32//16 31//16
f 31//71 32//71 21//71
f 21//72 27//72 26//72
