# Blender 4.0.0
# www.blender.org
o decimated_mesh
v 0.006977 0.046382 -0.000196
v 0.006977 0.046539 -0.000426
v 0.009464 0.041213 -0.000384
v 0.009475 0.041213 0.000172
v 0.006977 0.046558 0.000323
v 0.006977 0.047459 -0.000707
v 0.010146 0.041214 -0.000677
v 0.009750 0.041214 0.000569
v 0.008729 0.045737 -0.000786
v 0.010130 0.041214 0.000677
v 0.010407 0.041747 -0.000545
v 0.010461 0.041214 -0.000572
v 0.006977 0.048065 -0.000553
v 0.009162 0.045744 -0.000403
v 0.010727 0.041213 -0.000204
v 0.006978 0.047108 0.000799
v 0.010721 0.041528 -0.000074
v 0.006981 0.048379 -0.000129
v 0.008346 0.046925 -0.000022
v 0.009242 0.045867 0.000192
v 0.009542 0.045041 -0.000070
v 0.010705 0.041551 0.000384
v 0.008812 0.045347 0.000678
v 0.010748 0.041214 0.000395
v 0.006977 0.048436 0.000188
v 0.009252 0.045714 0.000417
v 0.008339 0.046918 0.000397
v 0.006981 0.048294 0.000433
vn 0.0003 1.0000 0.0007
vn -0.9007 -0.4341 0.0180
vn -0.7616 -0.3786 0.5259
vn -0.2685 -0.1632 0.9494
vn 0.9293 0.3229 0.1794
vn 0.3069 0.2565 0.9165
vn 0.5712 0.4953 -0.6545
vn -0.5200 -0.2493 -0.8169
vn 0.6435 0.2264 -0.7312
vn 0.8556 0.2116 -0.4723
vn 0.1931 0.2405 -0.9512
vn 0.7650 0.6024 -0.2277
vn 0.9444 0.3228 0.0627
vn 0.3193 0.0771 -0.9445
vn -0.3863 -0.2004 -0.9004
vn 0.4125 0.0835 0.9071
vn 0.7423 0.5691 0.3538
vn -0.8693 -0.4082 -0.2785
vn -0.8035 -0.3884 0.4511
vn 0.6669 0.6486 0.3669
vn 0.0946 0.0300 0.9951
vn 0.7474 0.6558 -0.1066
vn -0.0012 -1.0000 0.0004
vn -0.0006 1.0000 -0.0006
vn -0.0021 1.0000 0.0014
vn -0.0004 1.0000 -0.0017
vn -0.0006 1.0000 -0.0000
vn 1.0000 -0.0027 -0.0030
vn 0.9999 -0.0137 -0.0004
vn 0.9991 0.0407 0.0079
vn 1.0000 -0.0002 -0.0012
vn 1.0000 0.0003 -0.0001
vn 1.0000 -0.0005 -0.0001
vn 1.0000 -0.0013 -0.0014
vn 0.8985 0.3899 -0.2016
vn -0.8950 -0.4224 0.1435
vn 0.8531 0.2869 -0.4357
vn 0.8740 0.2861 -0.3928
vn 0.3224 0.2600 0.9102
vn 0.3080 0.2801 0.9092
vn 0.6703 0.6030 -0.4325
vn 0.6686 0.5942 -0.4470
vn -0.0996 -0.0553 -0.9935
vn 0.9478 0.3182 0.0186
vn 0.3142 0.0800 -0.9460
vn 0.8052 0.1110 -0.5825
vn 0.3888 0.1285 0.9123
vn 0.4203 0.1338 0.8975
vn 0.9911 0.1299 0.0296
vn 0.9988 0.0332 -0.0355
vn 0.7603 0.6491 0.0231
vn 0.7284 0.6847 0.0232
vn 1.0000 0.0002 -0.0003
vn 1.0000 -0.0007 0.0008
vn 1.0000 0.0002 -0.0002
vn 1.0000 0.0001 0.0003
vn 1.0000 -0.0000 -0.0029
vn 0.9998 -0.0081 -0.0206
vn 0.7426 0.6693 0.0231
vn 0.7290 0.6755 -0.1104
vn 0.9987 -0.0459 0.0234
vn -0.0001 1.0000 0.0012
vn 0.0001 1.0000 -0.0001
vn 0.6768 0.6038 -0.4210
vn 0.6650 0.5969 -0.4489
vn 0.3143 0.0755 -0.9463
vn -0.0011 1.0000 -0.0017
vn -0.0012 1.0000 -0.0019
vn 0.3910 0.1244 0.9119
vn 0.4170 0.1384 0.8983
vn 0.8775 0.2950 -0.3781
vn 0.8535 0.2814 -0.4385
vn 0.3284 0.0811 -0.9411
s 0
f 4//1 15//1 7//1
f 4//2 1//2 3//2
f 4//3 8//3 16//3
f 8//4 10//4 16//4
f 26//5 22//5 20//5
f 16//6 23//6 27//6
f 13//7 14//7 9//7
f 6//8 3//8 2//8
f 14//9 11//9 9//9
f 11//10 17//10 15//10
f 6//11 13//11 9//11
f 19//12 20//12 14//12
f 22//13 21//13 20//13
f 11//14 7//14 9//14
f 6//15 7//15 3//15
f 10//16 24//16 22//16
f 20//17 27//17 26//17
f 3//18 1//18 2//18
f 16//19 5//19 4//19
f 25//20 28//20 27//20
f 10//21 23//21 16//21
f 25//22 27//22 18//22
f 7//23 12//23 15//23
f 24//24 4//24 10//24
f 10//25 4//25 8//25
f 24//26 15//26 4//26
f 4//27 7//27 3//27
f 16//28 13//28 28//28
f 13//29 18//29 28//29
f 25//30 28//30 18//30
f 13//31 16//31 6//31
f 6//32 5//32 2//32
f 2//33 5//33 1//33
f 6//34 16//34 5//34
f 20//35 21//35 14//35
f 4//36 5//36 1//36
f 21//37 17//37 11//37
f 14//38 21//38 11//38
f 23//39 26//39 27//39
f 27//40 28//40 16//40
f 14//41 13//41 19//41
f 18//42 19//42 13//42
f 6//43 9//43 7//43
f 22//44 17//44 21//44
f 11//45 12//45 7//45
f 12//46 11//46 15//46
f 22//47 26//47 10//47
f 23//48 10//48 26//48
f 22//49 24//49 17//49
f 24//50 15//50 17//50
f 27//51 20//51 19//51
f 19//52 18//52 27//52
f 5//53 1//53 25//53
f 25//54 6//54 13//54
f 25//55 2//55 6//55
f 25//56 1//56 2//56
f 16//57 5//57 25//57
f 16//58 25//58 28//58
f 27//59 19//59 25//59
f 19//60 18//60 25//60
f 18//61 25//61 13//61
f 7//62 3//62 15//62
f 15//63 3//63 4//63
f 15//63 4//63 8//63
f 14//64 18//64 19//64
f 14//65 13//65 18//65
f 9//66 12//66 7//66
f 24//67 15//67 8//67
f 24//68 8//68 10//68
f 22//69 23//69 10//69
f 22//70 26//70 23//70
f 21//71 17//71 14//71
f 17//72 11//72 14//72
f 11//73 12//73 9//73
