# Blender 4.0.0
# www.blender.org
o decimated_mesh
v 0.000077 -0.003482 -0.001542
v 0.000074 -0.000691 -0.001486
v 0.000077 -0.003278 -0.001772
v 0.000073 -0.000691 -0.001324
v 0.000080 -0.003476 -0.001747
v 0.001182 -0.003482 -0.001080
v 0.001029 -0.001964 -0.000962
v 0.001029 -0.000691 -0.000913
v 0.001411 -0.003485 -0.001082
v 0.001028 -0.000691 -0.001171
v 0.001440 -0.003319 -0.001080
v 0.001429 -0.003021 -0.001081
v 0.001244 -0.003480 -0.001359
v 0.001385 -0.003172 -0.001253
v 0.001244 -0.003163 -0.001388
v 0.001379 -0.003443 -0.001227
vn 0.9381 -0.0526 -0.3424
vn 0.3198 -0.1120 -0.9408
vn -0.3946 -0.0353 0.9182
vn 0.1553 -0.0389 0.9871
vn 0.0077 -0.0768 0.9970
vn 0.9607 0.0349 -0.2753
vn 0.4898 0.0211 0.8716
vn 0.9856 0.1692 -0.0048
vn 0.6898 -0.0680 -0.7208
vn 0.5405 -0.7695 -0.3402
vn 0.6931 0.1231 -0.7102
vn 0.9530 -0.1596 -0.2577
vn 0.0034 -1.0000 -0.0082
vn 0.0068 -0.9995 -0.0300
vn -0.0095 -0.9999 -0.0111
vn 0.9212 0.1444 -0.3614
vn 0.3147 -0.0881 -0.9451
vn -0.4340 -0.0705 0.8982
vn -0.3828 -0.1099 0.9173
vn 0.1583 -0.0379 0.9867
vn -0.0000 1.0000 0.0001
vn -0.0000 1.0000 -0.0000
vn -1.0000 -0.0010 -0.0019
vn -0.9996 -0.0207 -0.0174
vn -1.0000 -0.0013 -0.0001
vn 0.7079 -0.0829 -0.7014
vn 0.3007 0.1052 -0.9479
vn 0.3107 0.1101 -0.9441
vn 0.3138 -0.1124 -0.9428
vn 0.3184 -0.0880 -0.9439
vn 0.0053 -0.9998 -0.0200
vn -0.0092 -0.9997 0.0220
s 0
f 14//1 11//1 16//1
f 5//2 3//2 15//2
f 7//3 8//3 4//3
f 11//4 7//4 9//4
f 6//5 9//5 7//5
f 14//6 12//6 11//6
f 8//7 11//7 12//7
f 8//8 12//8 10//8
f 13//9 15//9 14//9
f 16//10 9//10 13//10
f 15//11 10//11 14//11
f 9//12 16//12 11//12
f 6//13 1//13 13//13
f 5//14 13//14 1//14
f 13//15 9//15 6//15
f 14//16 10//16 12//16
f 15//17 13//17 5//17
f 4//18 1//18 7//18
f 1//19 6//19 7//19
f 11//20 8//20 7//20
f 4//21 8//21 10//21
f 10//22 2//22 4//22
f 2//23 3//23 4//23
f 3//24 5//24 1//24
f 1//25 4//25 3//25
f 14//26 16//26 13//26
f 3//27 2//27 15//27
f 2//28 10//28 15//28
f 13//29 5//29 3//29
f 15//30 13//30 3//30
f 13//31 9//31 1//31
f 9//32 6//32 1//32
