# Blender 4.0.0
# www.blender.org
o decimated_mesh
v -0.001190 -0.000690 0.000979
v -0.000969 -0.000690 0.000988
v 0.000000 -0.000690 0.001324
v -0.001101 -0.000690 0.001137
v -0.001159 0.011489 0.000962
v 0.000000 -0.000690 0.001485
v -0.001092 0.011591 0.001097
v -0.001116 0.011605 0.000962
v 0.000000 0.011495 0.001294
v -0.000109 -0.000690 0.001483
v -0.000363 0.011575 0.001365
v -0.000992 0.011611 0.000963
v -0.000005 0.011477 0.001461
v 0.000000 0.011606 0.001336
vn 0.3336 0.3309 -0.8828
vn -0.2576 0.0040 0.9663
vn -0.0005 -1.0000 -0.0004
vn -0.9185 0.3394 0.2028
vn -0.8730 0.0023 0.4876
vn -0.0479 0.9927 0.1109
vn 0.3167 -0.0014 -0.9485
vn -0.9995 -0.0005 -0.0303
vn -0.8951 0.0028 0.4458
vn -0.3442 0.0019 0.9389
vn -0.3290 0.0033 0.9443
vn -0.0000 -1.0000 -0.0001
vn 0.0001 -1.0000 -0.0000
vn -0.0000 -1.0000 -0.0000
vn -0.0017 0.6942 0.7198
vn -0.0390 0.9923 0.1174
vn 0.0408 -0.0020 -0.9992
vn 0.0035 -0.0014 -1.0000
vn 0.0032 -0.0011 -1.0000
vn 0.3275 -0.0023 -0.9448
vn -0.0643 0.9700 0.2346
vn -0.0187 0.0020 0.9998
vn -1.0000 -0.0000 -0.0000
vn -0.9995 0.0109 -0.0291
vn -0.0006 -1.0000 0.0010
vn 0.0003 -1.0000 -0.0008
vn -0.3290 0.0023 0.9443
vn -0.3442 0.0033 0.9389
vn 1.0000 -0.0000 -0.0000
vn 0.9992 0.0005 0.0409
s 0
f 14//1 9//1 12//1
f 10//2 13//2 11//2
f 4//3 1//3 2//3
f 5//4 7//4 8//4
f 7//5 1//5 4//5
f 12//6 8//6 7//6
f 9//7 2//7 12//7
f 13//8 9//8 6//8
f 5//9 1//9 7//9
f 11//10 7//10 10//10
f 7//11 4//11 10//11
f 2//12 3//12 10//12
f 3//13 6//13 10//13
f 10//14 4//14 2//14
f 13//15 14//15 11//15
f 7//16 14//16 12//16
f 12//17 2//17 1//17
f 1//18 5//18 12//18
f 5//19 8//19 12//19
f 9//20 3//20 2//20
f 14//21 7//21 11//21
f 10//22 6//22 13//22
f 6//23 9//23 3//23
f 14//24 9//24 13//24
f 2//25 10//25 1//25
f 10//26 4//26 1//26
f 11//27 4//27 10//27
f 11//28 7//28 4//28
f 9//29 14//29 3//29
f 14//29 6//29 3//29
f 14//30 13//30 6//30
