# Blender 4.0.0
# www.blender.org
o decimated_mesh
v -0.245614 0.161223 0.071718
v -0.258251 0.158533 -0.007511
v -0.235084 -0.095437 0.071696
v -0.236839 0.157548 -0.007512
v -0.259567 -0.095437 0.071696
v -0.247326 -0.095388 -0.007517
vn 0.9874 -0.0409 -0.1526
vn -0.9874 -0.0425 -0.1526
vn 0.0459 0.9981 -0.0412
vn -0.0000 -0.0001 1.0000
vn 0.9933 0.0407 0.1081
vn -0.9864 0.0536 0.1555
vn -0.0000 -1.0000 -0.0006
vn -0.0001 -0.0000 -1.0000
s 0
f 4//1 3//1 6//1
f 5//2 2//2 6//2
f 2//3 1//3 4//3
f 5//4 3//4 1//4
f 4//5 1//5 3//5
f 5//6 1//6 2//6
f 6//7 3//7 5//7
f 6//8 2//8 4//8
