# Blender 4.0.0
# www.blender.org
o decimated_mesh
v -0.257936 -0.118781 0.071697
v -0.259003 0.156623 0.071707
v -0.258478 -0.119129 0.082388
v -0.253377 0.159638 0.071696
v -0.257601 0.158585 0.082483
v -0.231547 -0.120440 0.082454
v -0.231468 -0.120412 0.071693
v -0.238714 0.158796 0.082450
v -0.232210 0.153053 0.082458
v -0.238078 0.158375 0.071646
vn -0.9917 0.0031 0.1285
vn 0.0017 0.0034 1.0000
vn 0.0820 0.9883 0.1286
vn 0.6618 0.7496 0.0097
vn -0.0486 -0.9988 -0.0029
vn 1.0000 0.0024 0.0074
vn 0.0002 -0.0000 1.0000
vn -0.0031 0.0021 -1.0000
vn 0.0029 0.0002 1.0000
vn -0.9987 -0.0039 -0.0507
vn -0.0024 -0.0000 1.0000
vn 0.0009 -0.0003 1.0000
vn -0.4701 0.8771 -0.0985
vn -0.0113 0.9992 -0.0396
vn -0.0615 -0.9975 -0.0356
vn 0.8830 0.0209 -0.4690
vn 0.0029 -0.0000 1.0000
vn -0.0025 -0.0003 1.0000
vn 0.0010 -0.0000 1.0000
vn -0.0110 0.9956 0.0929
vn 0.0821 0.9960 -0.0340
vn 0.0002 0.0002 1.0000
s 0
f 2//1 3//1 5//1
f 8//2 5//2 9//2
f 5//3 10//3 4//3
f 8//4 9//4 10//4
f 7//5 6//5 3//5
f 9//6 6//6 7//6
f 1//7 7//7 2//7
f 10//8 2//8 4//8
f 10//9 2//9 7//9
f 2//10 1//10 3//10
f 6//11 9//11 3//11
f 5//12 3//12 9//12
f 4//13 2//13 5//13
f 5//14 8//14 10//14
f 3//15 1//15 7//15
f 9//16 7//16 10//16
f 10//17 2//17 1//17
f 3//18 6//18 5//18
f 6//19 9//19 5//19
f 8//20 4//20 5//20
f 8//21 10//21 4//21
f 7//22 10//22 1//22
