# https://github.com/mikedh/trimesh
mtllib material.mtl
usemtl material_0
v 0.03761780 -0.01640454 -0.06540568
v 0.05576324 -0.00524674 -0.05601317
v 0.03943054 -0.00524674 -0.06854569
v 0.05319946 -0.01640454 -0.05344938
v 0.06829559 -0.00524674 -0.03968050
v 0.06515564 -0.01640453 -0.03786762
v 0.06300842 0.00252651 -0.03662794
v 0.05144623 0.00252651 -0.05169619
v 0.07027679 0.00252652 -0.01908059
v 0.07617401 -0.00524673 -0.02066071
v 0.07275604 0.00252652 -0.00024996
v 0.07267182 -0.01640453 -0.01972229
v 0.07886108 -0.00524673 -0.00024996
v 0.07027679 0.00252652 0.01858067
v 0.07523529 -0.01640453 -0.00024996
v 0.05336212 -0.02802979 -0.01454827
v 0.05524445 -0.02802979 -0.00024995
v 0.07617401 -0.00524673 0.02016079
v 0.06300842 0.00252652 0.03612801
v 0.07267182 -0.01640453 0.01922238
v 0.05336212 -0.02802979 0.01404836
v 0.06829559 -0.00524672 0.03918058
v 0.05144623 0.00252653 0.05119626
v 0.06515564 -0.01640452 0.03736771
v 0.05576324 -0.00524672 0.05551323
v 0.05319946 -0.01640452 0.05294945
v 0.03943054 -0.00524672 0.06804575
v 0.03761780 -0.01640452 0.06490577
v -0.05336212 -0.02802979 -0.01454824
v -0.06515564 -0.01640454 -0.03786759
v -0.07267182 -0.01640453 -0.01972225
v -0.04784302 -0.02802979 -0.02787215
v -0.05319946 -0.01640454 -0.05344935
v -0.03906372 -0.02802980 -0.03931367
v -0.03761780 -0.01640454 -0.06540566
v -0.02762238 -0.02802980 -0.04809305
v -0.01947235 -0.01640454 -0.07292172
v -0.01429840 -0.02802980 -0.05361201
v 0.00000000 -0.01640454 -0.07548530
v 0.00000000 -0.02802980 -0.05549442
v 0.01947235 -0.01640454 -0.07292172
v 0.01429840 -0.02802980 -0.05361201
v 0.03761780 -0.01640454 -0.06540568
v 0.02762238 -0.02802980 -0.04809307
v 0.05319946 -0.01640454 -0.05344938
v 0.03906372 -0.02802980 -0.03931368
v 0.06515564 -0.01640453 -0.03786762
v 0.04784302 -0.02802979 -0.02787217
v 0.07267182 -0.01640453 -0.01972229
v 0.05336212 -0.02802979 -0.01454827
v -0.01961761 -0.03213435 -0.03422879
v -0.01015503 -0.03213435 -0.03814843
v 0.00000000 -0.03213435 -0.03948534
v 0.01015472 -0.03213435 -0.03814843
v 0.01961761 -0.03213435 -0.03422880
v 0.02774353 -0.03213435 -0.02799356
v 0.03397888 -0.03213435 -0.01986764
v -0.02774353 -0.03213435 -0.02799355
v 0.03789856 -0.03213435 -0.01040481
v 0.05524445 -0.02802979 -0.00024995
v -0.03397888 -0.03213435 -0.01986762
v 0.03923553 -0.03213435 -0.00024995
v 0.05336212 -0.02802979 0.01404836
v -0.03789856 -0.03213435 -0.01040479
v -0.03923553 -0.03213435 -0.00024993
v -0.05524445 -0.02802979 -0.00024992
v -0.03789856 -0.03213434 0.00990494
v -0.05336212 -0.02802979 0.01404839
v 0.02311371 -0.03483675 -0.01359465
v 0.02578003 -0.03483675 -0.00715767
v 0.00000000 -0.03483674 -0.00024994
v 0.01887237 -0.03483675 -0.01912221
v 0.01334473 -0.03483675 -0.02336365
v 0.00690765 -0.03483675 -0.02602993
v 0.00000000 -0.03483675 -0.02693936
v -0.00690765 -0.03483675 -0.02602993
v 0.02668945 -0.03483674 -0.00024995
v -0.01334473 -0.03483675 -0.02336364
v -0.01887237 -0.03483675 -0.01912220
v -0.02311371 -0.03483675 -0.01359463
v -0.02578003 -0.03483675 -0.00715766
v -0.02668945 -0.03483674 -0.00024993
v -0.02578003 -0.03483674 0.00665780
v 0.03789856 -0.03213434 0.00990492
v -0.02311371 -0.03483674 0.01309477
v 0.02578003 -0.03483674 0.00665778
v -0.01887237 -0.03483674 0.01862233
v 0.02311371 -0.03483674 0.01309475
v -0.03397888 -0.03213434 0.01936777
v 0.03397888 -0.03213434 0.01936775
v 0.04784302 -0.02802979 0.02737227
v -0.04784302 -0.02802979 0.02737230
v -0.07267182 -0.01640453 0.01922242
v -0.06515564 -0.01640452 0.03736775
v -0.02774353 -0.03213434 0.02749368
v -0.03906372 -0.02802978 0.03881380
v -0.05319946 -0.01640452 0.05294948
v 0.06515564 -0.01640452 0.03736771
v 0.07267182 -0.01640453 0.01922238
v 0.05319946 -0.01640452 0.05294945
v 0.03906372 -0.02802978 0.03881377
v 0.03761780 -0.01640452 0.06490577
v -0.01334473 -0.03483674 0.02286377
v -0.01961761 -0.03213434 0.03372891
v -0.02762207 -0.02802978 0.04759316
v -0.03761749 -0.01640452 0.06490577
v 0.02774353 -0.03213434 0.02749366
v 0.02762238 -0.02802978 0.04759316
v 0.01947235 -0.01640452 0.07242182
v -0.00690765 -0.03483674 0.02553006
v -0.01429840 -0.02802978 0.05311212
v -0.01947235 -0.01640452 0.07242185
v -0.01015472 -0.03213434 0.03764855
v 0.01887237 -0.03483674 0.01862231
v 0.01961761 -0.03213434 0.03372891
v 0.01429840 -0.02802978 0.05311210
v 0.00000000 -0.01640452 0.07498540
v 0.00000000 -0.02802978 0.05499451
v 0.00000000 -0.03483674 0.02643947
v 0.00000000 -0.03213434 0.03898545
v 0.01015503 -0.03213434 0.03764854
v 0.01334473 -0.03483674 0.02286377
v 0.00690765 -0.03483674 0.02553004
v -0.05524445 -0.02802979 -0.00024992
v -0.05336212 -0.02802979 -0.01454824
v -0.07267182 -0.01640453 -0.01972225
v -0.07523529 -0.01640453 -0.00024992
v -0.05336212 -0.02802979 0.01404839
v -0.07267182 -0.01640453 0.01922242
v -0.07617401 -0.00524674 -0.02066067
v -0.07886108 -0.00524673 -0.00024992
v -0.06829590 -0.00524673 -0.03968045
v -0.06515564 -0.01640454 -0.03786759
v -0.07617401 -0.00524672 0.02016083
v -0.06515564 -0.01640452 0.03736775
v -0.05576324 -0.00524674 -0.05601314
v -0.05319946 -0.01640454 -0.05344935
v -0.03943054 -0.00524674 -0.06854565
v -0.03761780 -0.01640454 -0.06540566
v -0.05144623 0.00252651 -0.05169617
v -0.06300842 0.00252652 -0.03662790
v -0.07027679 0.00252652 -0.01908055
v -0.07275604 0.00252652 -0.00024992
v -0.07027679 0.00252652 0.01858070
v -0.06829559 -0.00524672 0.03918061
v -0.05319946 -0.01640452 0.05294948
v -0.06300842 0.00252652 0.03612806
v -0.05576324 -0.00524672 0.05551328
v -0.05144623 0.00252652 0.05119630
v -0.03761749 -0.01640452 0.06490577
v -0.03943054 -0.00524672 0.06804575
v 0.01947235 -0.01640454 -0.07292172
v 0.03761780 -0.01640454 -0.06540568
v 0.03943054 -0.00524674 -0.06854569
v 0.02041077 -0.00524674 -0.07642392
v 0.00000000 -0.01640454 -0.07548530
v 0.00000000 -0.00524674 -0.07911104
v -0.01947235 -0.01640454 -0.07292172
v -0.02041077 -0.00524674 -0.07642392
v -0.03761780 -0.01640454 -0.06540566
v -0.03943054 -0.00524674 -0.06854565
v -0.01947235 -0.01640452 0.07242185
v -0.03761749 -0.01640452 0.06490577
v -0.03943054 -0.00524672 0.06804575
v -0.02041077 -0.00524671 0.07592404
v 0.00000000 -0.01640452 0.07498540
v 0.00000000 -0.00524671 0.07861114
v 0.01947235 -0.01640452 0.07242182
v 0.02041077 -0.00524672 0.07592402
v 0.03761780 -0.01640452 0.06490577
v 0.03943054 -0.00524672 0.06804575
v 0.03943054 -0.00524674 -0.06854569
v 0.05576324 -0.00524674 -0.05601317
v 0.05144623 0.00252651 -0.05169619
v 0.03637787 0.00252651 -0.06325848
v 0.02041077 -0.00524674 -0.07642392
v 0.01883057 0.00252651 -0.07052683
v 0.00000000 -0.00524674 -0.07911104
v 0.00000000 0.00252651 -0.07300593
v -0.02041077 -0.00524674 -0.07642392
v -0.01883057 0.00252651 -0.07052683
v -0.03943054 -0.00524674 -0.06854565
v -0.03637817 0.00252651 -0.06325846
v -0.05576324 -0.00524674 -0.05601314
v -0.05144623 0.00252651 -0.05169617
v 0.02742401 0.01195591 -0.02767403
v 0.01939178 0.01195591 -0.03383746
v 0.01003784 0.01195591 -0.03771194
v 0.00000000 0.01195591 -0.03903346
v -0.01003784 0.01195591 -0.03771194
v -0.01939178 0.01195591 -0.03383744
v 0.03358765 0.01195591 -0.01964170
v 0.06300842 0.00252651 -0.03662794
v -0.02742401 0.01195591 -0.02767402
v -0.06300842 0.00252652 -0.03662790
v 0.03746185 0.01195591 -0.01028786
v 0.07027679 0.00252652 -0.01908059
v -0.03358765 0.01195591 -0.01964168
v -0.07027679 0.00252652 -0.01908055
v 0.03878357 0.01195591 -0.00024995
v 0.07275604 0.00252652 -0.00024996
v -0.03746185 0.01195591 -0.01028784
v -0.07275604 0.00252652 -0.00024992
v 0.03746185 0.01195591 0.00978795
v 0.07027679 0.00252652 0.01858067
v -0.03878357 0.01195591 -0.00024993
v -0.07027679 0.00252652 0.01858070
v 0.03358765 0.01195591 0.01914180
v 0.06300842 0.00252652 0.03612801
v -0.03746185 0.01195591 0.00978797
v -0.06300842 0.00252652 0.03612806
v 0.02742401 0.01195592 0.02717412
v 0.05144623 0.00252653 0.05119626
v -0.03358765 0.01195592 0.01914182
v -0.05144623 0.00252652 0.05119630
v 0.01837707 0.01601996 0.00467417
v 0.01902527 0.01601996 -0.00024995
v 0.01837707 0.01601996 -0.00517407
v 0.01647644 0.01601996 0.00926272
v 0.01647644 0.01601996 -0.00976262
v 0.01345306 0.01601996 -0.01370290
v 0.01084076 0.02048587 -0.00650883
v 0.00885132 0.02048587 -0.00910134
v 0.00951263 0.01601993 -0.01672639
v 0.00625885 0.02048587 -0.01109064
v 0.00492401 0.01601993 -0.01862703
v 0.00323975 0.02048587 -0.01234117
v 0.00000000 0.01601996 -0.01927530
v 0.00000000 0.02048587 -0.01276770
v -0.00492401 0.01601993 -0.01862702
v -0.00323975 0.02048587 -0.01234117
v -0.00951263 0.01601993 -0.01672638
v -0.00625885 0.02048587 -0.01109064
v -0.01345306 0.01601993 -0.01370290
v -0.00885132 0.02048587 -0.00910133
v -0.01647644 0.01601993 -0.00976261
v -0.01084076 0.02048588 -0.00650882
v -0.01837707 0.01601996 -0.00517406
v -0.01902527 0.01601996 -0.00024994
v -0.01837707 0.01601996 0.00467418
v -0.01647644 0.01601996 0.00926273
v -0.02742401 0.01195592 0.02717414
v -0.01345306 0.01601996 0.01320301
v -0.01084076 0.02048588 0.00600893
v -0.00885132 0.02048587 0.00860144
v -0.00951263 0.01601996 0.01622649
v -0.00625885 0.02048588 0.01059074
v -0.01939178 0.01195591 0.03333756
v -0.03637787 0.00252653 0.06275856
v -0.00492401 0.01601995 0.01812713
v -0.00323975 0.02048588 0.01184127
v -0.03943054 -0.00524672 0.06804575
v -0.05576324 -0.00524672 0.05551328
v -0.02041077 -0.00524671 0.07592404
v -0.01883057 0.00252653 0.07002694
v 0.00000000 -0.00524671 0.07861114
v -0.01003784 0.01195592 0.03721205
v 0.00000000 0.00252653 0.07250601
v 0.02041077 -0.00524672 0.07592402
v 0.00000000 0.01601996 0.01877540
v 0.00000000 0.02048587 0.01226780
v 0.00000000 0.01195592 0.03853355
v 0.01883057 0.00252653 0.07002691
v 0.03943054 -0.00524672 0.06804575
v 0.00492401 0.01601995 0.01812712
v 0.00323975 0.02048588 0.01184127
v 0.01003784 0.01195592 0.03721204
v 0.03637787 0.00252653 0.06275856
v 0.05576324 -0.00524672 0.05551323
v 0.01939178 0.01195591 0.03333755
v 0.00951263 0.01601995 0.01622648
v 0.00625885 0.02048588 0.01059074
v 0.01345306 0.01601996 0.01320300
v 0.00885132 0.02048588 0.00860143
v 0.01084076 0.02048587 0.00600892
v 0.01837707 0.01601996 0.00467417
v 0.01647644 0.01601996 0.00926272
v 0.01084076 0.02048587 0.00600892
v 0.01209137 0.02048587 0.00298988
v 0.01902527 0.01601996 -0.00024995
v 0.01251770 0.02048588 -0.00024995
v 0.01837707 0.01601996 -0.00517407
v 0.01209137 0.02048588 -0.00348978
v 0.01647644 0.01601996 -0.00976262
v 0.01084076 0.02048587 -0.00650883
v 0.00989563 0.02434258 0.00546324
v 0.01103699 0.02434258 0.00270742
v 0.01142639 0.02434258 -0.00024995
v 0.01103699 0.02434258 -0.00320732
v 0.00807953 0.02434259 0.00782973
v 0.00885132 0.02048588 0.00860143
v 0.00571320 0.02434258 0.00964560
v 0.00625885 0.02048588 0.01059074
v 0.00553803 0.03482896 0.00934234
v 0.00783203 0.03482896 0.00758212
v 0.00550781 0.03571942 0.00928963
v 0.00778900 0.03571942 0.00753909
v 0.00959229 0.03482896 0.00528816
v 0.00953949 0.03571942 0.00525773
v 0.01069885 0.03482896 0.00261678
v 0.01063995 0.03571942 0.00260103
v 0.01107635 0.03482895 -0.00024995
v 0.01101532 0.03571942 -0.00024995
v 0.01069885 0.03482896 -0.00311669
v 0.01063995 0.03571942 -0.00310094
v 0.00989563 0.02434258 -0.00596315
v 0.00885132 0.02048587 -0.00910134
v 0.00959229 0.03482895 -0.00578806
v 0.00953949 0.03571942 -0.00575764
v 0.00807953 0.02434258 -0.00832963
v 0.00625885 0.02048587 -0.01109064
v 0.00571320 0.02434259 -0.01014550
v 0.00783203 0.03482895 -0.00808202
v 0.00778900 0.03571942 -0.00803899
v 0.00553803 0.03482895 -0.00984224
v 0.00550781 0.03571942 -0.00978954
v -0.01837707 0.01601996 -0.00517406
v -0.01647644 0.01601993 -0.00976261
v -0.01084076 0.02048588 -0.00650882
v -0.01209137 0.02048588 -0.00348978
v -0.01902527 0.01601996 -0.00024994
v -0.01251770 0.02048588 -0.00024994
v -0.01837707 0.01601996 0.00467418
v -0.01209137 0.02048587 0.00298989
v -0.01647644 0.01601996 0.00926273
v -0.01084076 0.02048588 0.00600893
v -0.00989563 0.02434258 -0.00596314
v -0.01103699 0.02434258 -0.00320731
v -0.01142639 0.02434258 -0.00024995
v -0.01103699 0.02434258 0.00270742
v -0.00807983 0.02434258 -0.00832963
v -0.00885132 0.02048587 -0.00910133
v -0.00571320 0.02434258 -0.01014549
v -0.00625885 0.02048587 -0.01109064
v -0.00553803 0.03482895 -0.00984224
v -0.00783203 0.03482895 -0.00808202
v -0.00550781 0.03571942 -0.00978954
v -0.00778900 0.03571942 -0.00803899
v -0.00959229 0.03482895 -0.00578806
v -0.00953949 0.03571942 -0.00575763
v -0.01069885 0.03482896 -0.00311668
v -0.01063995 0.03571942 -0.00310093
v -0.01107635 0.03482895 -0.00024995
v -0.01101532 0.03571942 -0.00024995
v -0.01069885 0.03482896 0.00261679
v -0.01063995 0.03571942 0.00260104
v -0.00989563 0.02434258 0.00546325
v -0.00885132 0.02048587 0.00860144
v -0.00959229 0.03482896 0.00528816
v -0.00953949 0.03571942 0.00525773
v -0.00807953 0.02434259 0.00782973
v -0.00625885 0.02048588 0.01059074
v -0.00571320 0.02434258 0.00964560
v -0.00783203 0.03482896 0.00758212
v -0.00778900 0.03571942 0.00753909
v -0.00553803 0.03482896 0.00934234
v -0.00550781 0.03571942 0.00928963
v 0.00323975 0.02048587 -0.01234117
v 0.00625885 0.02048587 -0.01109064
v 0.00571320 0.02434259 -0.01014550
v 0.00295746 0.02434258 -0.01128700
v 0.00000000 0.02048587 -0.01276770
v 0.00553803 0.03482895 -0.00984224
v 0.00000000 0.02434258 -0.01167634
v -0.00323975 0.02048587 -0.01234117
v 0.00286682 0.03482895 -0.01094876
v 0.00550781 0.03571942 -0.00978954
v 0.00285095 0.03571942 -0.01088998
v 0.00000000 0.03482895 -0.01132617
v 0.00000000 0.03571942 -0.01126532
v -0.00295746 0.02434258 -0.01128700
v -0.00625885 0.02048587 -0.01109064
v -0.00571320 0.02434258 -0.01014549
v -0.00286682 0.03482895 -0.01094876
v -0.00285095 0.03571942 -0.01088998
v -0.00553803 0.03482895 -0.00984224
v -0.00550781 0.03571942 -0.00978954
v -0.00323975 0.02048588 0.01184127
v -0.00625885 0.02048588 0.01059074
v -0.00571320 0.02434258 0.00964560
v -0.00295746 0.02434259 0.01078710
v 0.00000000 0.02048587 0.01226780
v -0.00553803 0.03482896 0.00934234
v 0.00000000 0.02434258 0.01117644
v 0.00323975 0.02048588 0.01184127
v -0.00286682 0.03482896 0.01044885
v -0.00550781 0.03571942 0.00928963
v -0.00285095 0.03571943 0.01039008
v 0.00000000 0.03482896 0.01082627
v 0.00000000 0.03571943 0.01076542
v 0.00295746 0.02434259 0.01078709
v 0.00625885 0.02048588 0.01059074
v 0.00571320 0.02434258 0.00964560
v 0.00286682 0.03482896 0.01044885
v 0.00285095 0.03571943 0.01039007
v 0.00553803 0.03482896 0.00934234
v 0.00550781 0.03571942 0.00928963
v 0.03637604 -0.01608728 -0.06325502
v 0.03800263 -0.00554367 -0.06607250
v 0.05374390 -0.00554366 -0.05399382
v 0.05144348 -0.01608728 -0.05169336
v 0.06582244 -0.00554366 -0.03825261
v 0.06300507 -0.01608728 -0.03662594
v 0.06117706 0.00148434 -0.03557056
v 0.04995086 0.00148434 -0.05020084
v 0.06823425 0.00148434 -0.01853325
v 0.07341553 -0.00554366 -0.01992158
v 0.07064117 0.00148434 -0.00024996
v 0.07027313 -0.01608727 -0.01907955
v 0.07600525 -0.00554366 -0.00024996
v 0.06823425 0.00148434 0.01803333
v 0.07275207 -0.01608727 -0.00024996
v 0.05175201 -0.02745295 -0.01411689
v 0.05357788 -0.02745295 -0.00024995
v 0.07341553 -0.00554365 0.01942166
v 0.06117706 0.00148435 0.03507064
v 0.07027313 -0.01608727 0.01857964
v 0.05175201 -0.02745294 0.01361699
v 0.06582244 -0.00554365 0.03775268
v 0.04995086 0.00148435 0.04970091
v 0.06300507 -0.01608726 0.03612602
v 0.05374390 -0.00554365 0.05349390
v 0.05144348 -0.01608726 0.05119344
v 0.03800263 -0.00554365 0.06557259
v 0.03637604 -0.01608726 0.06275510
v -0.05175201 -0.02745295 -0.01411686
v -0.07027313 -0.01608727 -0.01907951
v -0.06300507 -0.01608728 -0.03662590
v -0.04639984 -0.02745295 -0.02703879
v -0.05144348 -0.01608728 -0.05169335
v -0.03788513 -0.02745295 -0.03813511
v -0.03637604 -0.01608728 -0.06325501
v -0.02678894 -0.02745295 -0.04664963
v -0.01882965 -0.01608728 -0.07052297
v -0.01386688 -0.02745295 -0.05200208
v 0.00000000 -0.01608728 -0.07300193
v 0.00000000 -0.02745295 -0.05382770
v 0.01882965 -0.01608728 -0.07052297
v 0.01386688 -0.02745295 -0.05200208
v 0.03637604 -0.01608728 -0.06325502
v 0.02678894 -0.02745295 -0.04664965
v 0.05144348 -0.01608728 -0.05169336
v 0.03788513 -0.02745295 -0.03813514
v 0.06300507 -0.01608728 -0.03662594
v 0.04639984 -0.02745295 -0.02703882
v 0.07027313 -0.01608727 -0.01907955
v 0.05175201 -0.02745295 -0.01411689
v -0.01904816 -0.03147934 -0.03324244
v -0.00986023 -0.03147934 -0.03704830
v 0.00000000 -0.03147934 -0.03834641
v 0.00986023 -0.03147934 -0.03704830
v 0.01904816 -0.03147933 -0.03324245
v 0.02693817 -0.03147934 -0.02718821
v 0.03299255 -0.03147934 -0.01929817
v -0.02693817 -0.03147934 -0.02718820
v 0.03679840 -0.03147933 -0.01011003
v 0.05357788 -0.02745295 -0.00024995
v -0.03299255 -0.03147934 -0.01929816
v 0.03809631 -0.03147934 -0.00024995
v 0.05175201 -0.02745294 0.01361699
v -0.03679840 -0.03147934 -0.01011001
v -0.03809631 -0.03147934 -0.00024993
v -0.05357788 -0.02745295 -0.00024992
v -0.03679840 -0.03147933 0.00961016
v -0.05175201 -0.02745294 0.01361701
v 0.02262695 -0.03387385 -0.01331366
v 0.02523712 -0.03387385 -0.00701222
v 0.00000000 -0.03387385 -0.00024994
v 0.01847473 -0.03387385 -0.01872482
v 0.01306366 -0.03387385 -0.02287696
v 0.00676239 -0.03387385 -0.02548710
v 0.00000000 -0.03387385 -0.02637737
v -0.00676239 -0.03387385 -0.02548710
v 0.02612732 -0.03387385 -0.00024995
v -0.01306366 -0.03387385 -0.02287695
v -0.01847504 -0.03387385 -0.01872481
v -0.02262695 -0.03387385 -0.01331364
v -0.02523712 -0.03387385 -0.00701221
v -0.02612732 -0.03387385 -0.00024993
v -0.02523712 -0.03387385 0.00651234
v 0.03679840 -0.03147933 0.00961014
v 0.02523712 -0.03387385 0.00651233
v -0.02262695 -0.03387385 0.01281378
v 0.02262695 -0.03387385 0.01281376
v -0.01847473 -0.03387385 0.01822494
v -0.03299255 -0.03147933 0.01879830
v 0.03299255 -0.03147933 0.01879828
v 0.04639984 -0.02745294 0.02653892
v -0.04639953 -0.02745294 0.02653894
v -0.07027313 -0.01608727 0.01857967
v -0.06300507 -0.01608727 0.03612606
v -0.02693817 -0.03147933 0.02668833
v -0.03788513 -0.02745294 0.03763526
v -0.05144348 -0.01608726 0.05119348
v 0.06300507 -0.01608726 0.03612602
v 0.07027313 -0.01608727 0.01857964
v 0.05144348 -0.01608726 0.05119344
v 0.03788513 -0.02745294 0.03763523
v 0.03637604 -0.01608726 0.06275510
v -0.01306366 -0.03387385 0.02237707
v -0.01904816 -0.03147933 0.03274256
v -0.02678894 -0.02745294 0.04614975
v -0.03637604 -0.01608726 0.06275510
v 0.02693817 -0.03147933 0.02668831
v 0.02678894 -0.02745294 0.04614973
v 0.01882965 -0.01608726 0.07002306
v -0.00676239 -0.03387385 0.02498722
v -0.01386688 -0.02745294 0.05150220
v -0.01882965 -0.01608726 0.07002309
v -0.00985992 -0.03147932 0.03654842
v 0.01847504 -0.03387385 0.01822493
v 0.01904816 -0.03147933 0.03274256
v 0.01386688 -0.02745294 0.05150218
v 0.00000000 -0.01608726 0.07250203
v 0.00000000 -0.02745294 0.05332780
v 0.00000000 -0.03387385 0.02587749
v 0.00000000 -0.03147933 0.03784651
v 0.00986023 -0.03147932 0.03654840
v 0.01306366 -0.03387385 0.02237707
v 0.00676239 -0.03387385 0.02498721
v -0.05357788 -0.02745295 -0.00024992
v -0.07027313 -0.01608727 -0.01907951
v -0.05175201 -0.02745295 -0.01411686
v -0.07275207 -0.01608727 -0.00024992
v -0.05175201 -0.02745294 0.01361701
v -0.07027313 -0.01608727 0.01857967
v -0.07341553 -0.00554366 -0.01992154
v -0.07600525 -0.00554366 -0.00024992
v -0.06582244 -0.00554366 -0.03825257
v -0.06300507 -0.01608728 -0.03662590
v -0.07341553 -0.00554365 0.01942170
v -0.06300507 -0.01608727 0.03612606
v -0.05374390 -0.00554366 -0.05399380
v -0.05144348 -0.01608728 -0.05169335
v -0.03800263 -0.00554367 -0.06607247
v -0.03637604 -0.01608728 -0.06325501
v -0.04995086 0.00148434 -0.05020081
v -0.06117706 0.00148434 -0.03557052
v -0.06823425 0.00148434 -0.01853321
v -0.07064117 0.00148434 -0.00024992
v -0.06823425 0.00148434 0.01803337
v -0.06582244 -0.00554365 0.03775272
v -0.05144348 -0.01608726 0.05119348
v -0.06117706 0.00148435 0.03507067
v -0.05374390 -0.00554365 0.05349393
v -0.04995086 0.00148435 0.04970095
v -0.03637604 -0.01608726 0.06275510
v -0.03800263 -0.00554365 0.06557259
v 0.01882965 -0.01608728 -0.07052297
v 0.03800263 -0.00554367 -0.06607250
v 0.03637604 -0.01608728 -0.06325502
v 0.01967163 -0.00554366 -0.07366545
v 0.00000000 -0.01608728 -0.07300193
v 0.00000000 -0.00554367 -0.07625527
v -0.01882965 -0.01608728 -0.07052297
v -0.01967163 -0.00554366 -0.07366545
v -0.03637604 -0.01608728 -0.06325501
v -0.03800263 -0.00554367 -0.06607247
v -0.01882965 -0.01608726 0.07002309
v -0.03800263 -0.00554365 0.06557259
v -0.03637604 -0.01608726 0.06275510
v -0.01967163 -0.00554365 0.07316558
v 0.00000000 -0.01608726 0.07250203
v 0.00000000 -0.00554364 0.07575535
v 0.01882965 -0.01608726 0.07002306
v 0.01967163 -0.00554365 0.07316556
v 0.03637604 -0.01608726 0.06275510
v 0.03800263 -0.00554365 0.06557259
v 0.03800263 -0.00554367 -0.06607250
v 0.04995086 0.00148434 -0.05020084
v 0.05374390 -0.00554366 -0.05399382
v 0.03532074 0.00148434 -0.06142706
v 0.01967163 -0.00554366 -0.07366545
v 0.01828339 0.00148433 -0.06848413
v 0.00000000 -0.00554367 -0.07625527
v 0.00000000 0.00148433 -0.07089117
v -0.01967163 -0.00554366 -0.07366545
v -0.01828339 0.00148433 -0.06848413
v -0.03800263 -0.00554367 -0.06607247
v -0.03532074 0.00148433 -0.06142703
v -0.05374390 -0.00554366 -0.05399380
v -0.04995086 0.00148434 -0.05020081
v 0.02666260 0.01074756 -0.02691253
v 0.01885315 0.01074756 -0.03290482
v 0.00975922 0.01074756 -0.03667172
v 0.00000000 0.01074756 -0.03795654
v -0.00975922 0.01074756 -0.03667172
v -0.01885345 0.01074756 -0.03290480
v 0.03265473 0.01074756 -0.01910324
v 0.06117706 0.00148434 -0.03557056
v -0.02666260 0.01074756 -0.02691252
v -0.06117706 0.00148434 -0.03557052
v 0.03642181 0.01074756 -0.01000914
v 0.06823425 0.00148434 -0.01853325
v -0.03265473 0.01074756 -0.01910322
v -0.06823425 0.00148434 -0.01853321
v 0.03770660 0.01074756 -0.00024995
v 0.07064117 0.00148434 -0.00024996
v -0.03642181 0.01074756 -0.01000912
v -0.07064117 0.00148434 -0.00024992
v 0.03642181 0.01074756 0.00950923
v 0.06823425 0.00148434 0.01803333
v -0.03770660 0.01074756 -0.00024993
v -0.06823425 0.00148434 0.01803337
v 0.03265473 0.01074756 0.01860333
v 0.06117706 0.00148435 0.03507064
v -0.03642181 0.01074756 0.00950924
v -0.06117706 0.00148435 0.03507067
v 0.02666260 0.01074757 0.02641262
v 0.04995086 0.00148435 0.04970091
v -0.03265473 0.01074756 0.01860336
v -0.04995086 0.00148435 0.04970095
v 0.01661865 0.01404660 0.00420304
v 0.01720489 0.01404659 -0.00024995
v 0.01489990 0.01404659 0.00835256
v 0.01661865 0.01404659 -0.00470294
v 0.01489990 0.01404659 -0.00885246
v 0.01216583 0.01404659 0.01191584
v 0.01216583 0.01404659 -0.01241574
v 0.00860260 0.01404659 -0.01514994
v 0.00713684 0.01981849 -0.00738689
v 0.00504669 0.01981849 -0.00899089
v 0.00445312 0.01404659 -0.01686873
v 0.00261231 0.01981849 -0.00999920
v 0.00000000 0.01404658 -0.01745498
v 0.00000000 0.01981849 -0.01034311
v -0.00445312 0.01404659 -0.01686873
v -0.00261231 0.01981849 -0.00999920
v -0.00860260 0.01404658 -0.01514994
v -0.00504669 0.01981849 -0.00899088
v -0.01216583 0.01404659 -0.01241574
v -0.00713684 0.01981849 -0.00738689
v -0.01489990 0.01404659 -0.00885245
v -0.01661865 0.01404659 -0.00470293
v -0.01720489 0.01404659 -0.00024994
v -0.01661865 0.01404659 0.00420305
v -0.01489990 0.01404659 0.00835257
v -0.02666260 0.01074756 0.02641264
v -0.01216583 0.01404659 0.01191585
v -0.03532043 0.00148435 0.06092714
v -0.01885315 0.01074756 0.03240492
v -0.03800263 -0.00554365 0.06557259
v -0.05374390 -0.00554365 0.05349393
v -0.01967163 -0.00554365 0.07316558
v -0.01828339 0.00148435 0.06798425
v 0.00000000 -0.00554364 0.07575535
v -0.00860260 0.01404659 0.01465004
v -0.00713684 0.01981850 0.00688699
v -0.00504669 0.01981850 0.00849098
v 0.00000000 0.00148435 0.07039126
v 0.01967163 -0.00554365 0.07316556
v -0.00975922 0.01074756 0.03617182
v -0.00445312 0.01404659 0.01636883
v -0.00261231 0.01981849 0.00949930
v 0.01828339 0.00148435 0.06798422
v 0.03800263 -0.00554365 0.06557259
v 0.00000000 0.01074756 0.03745663
v 0.00000000 0.01404659 0.01695508
v 0.00000000 0.01981850 0.00984321
v 0.03532074 0.00148435 0.06092714
v 0.05374390 -0.00554365 0.05349390
v 0.00975922 0.01074756 0.03617181
v 0.00445312 0.01404659 0.01636883
v 0.00261231 0.01981850 0.00949929
v 0.01885345 0.01074757 0.03240491
v 0.00860260 0.01404659 0.01465004
v 0.00504669 0.01981850 0.00849099
v 0.00713684 0.01981850 0.00688699
v 0.01489990 0.01404659 0.00835256
v 0.00713684 0.01981850 0.00688699
v 0.01216583 0.01404659 0.01191584
v 0.00874084 0.01981849 0.00479663
v 0.01661865 0.01404660 0.00420304
v 0.00974915 0.01981849 0.00236235
v 0.01720489 0.01404659 -0.00024995
v 0.01009308 0.01981849 -0.00024995
v 0.01661865 0.01404659 -0.00470294
v 0.00974915 0.01981849 -0.00286225
v 0.01489990 0.01404659 -0.00885246
v 0.00874084 0.01981849 -0.00529653
v 0.01216583 0.01404659 -0.01241574
v 0.00713684 0.01981849 -0.00738689
v 0.00624847 0.02418498 0.00599840
v 0.00765259 0.02418498 0.00416830
v 0.00853546 0.02418498 0.00203711
v 0.00883636 0.02418498 -0.00024995
v 0.00853546 0.02418498 -0.00253701
v 0.00765259 0.02418498 -0.00466820
v 0.00441833 0.02418498 0.00740269
v 0.00504669 0.01981850 0.00849099
v 0.00426056 0.03570099 0.00712954
v 0.00602539 0.03570099 0.00577538
v 0.00737946 0.03570099 0.00401060
v 0.00823090 0.03570099 0.00195547
v 0.00852112 0.03570098 -0.00024995
v 0.00823090 0.03570098 -0.00245538
v 0.00737946 0.03570098 -0.00451050
v 0.00624847 0.02418498 -0.00649831
v 0.00504669 0.01981849 -0.00899089
v 0.00602539 0.03570098 -0.00627528
v 0.00441833 0.02418498 -0.00790259
v 0.00426056 0.03570098 -0.00762945
v -0.01489990 0.01404659 -0.00885245
v -0.00713684 0.01981849 -0.00738689
v -0.01216583 0.01404659 -0.01241574
v -0.00874084 0.01981849 -0.00529652
v -0.01661865 0.01404659 -0.00470293
v -0.00974915 0.01981849 -0.00286225
v -0.01720489 0.01404659 -0.00024994
v -0.01009308 0.01981849 -0.00024995
v -0.01661865 0.01404659 0.00420305
v -0.00974915 0.01981849 0.00236235
v -0.01489990 0.01404659 0.00835257
v -0.00874084 0.01981849 0.00479663
v -0.01216583 0.01404659 0.01191585
v -0.00713684 0.01981850 0.00688699
v -0.00624847 0.02418500 -0.00649830
v -0.00765259 0.02418500 -0.00466820
v -0.00853546 0.02418500 -0.00253700
v -0.00883636 0.02418500 -0.00024995
v -0.00853546 0.02418501 0.00203711
v -0.00765259 0.02418501 0.00416830
v -0.00441833 0.02418498 -0.00790259
v -0.00504669 0.01981849 -0.00899088
v -0.00426056 0.03570098 -0.00762945
v -0.00602539 0.03570098 -0.00627528
v -0.00737946 0.03570098 -0.00451050
v -0.00823090 0.03570098 -0.00245537
v -0.00852112 0.03570098 -0.00024995
v -0.00823090 0.03570099 0.00195547
v -0.00737946 0.03570099 0.00401060
v -0.00624847 0.02418501 0.00599841
v -0.00504669 0.01981850 0.00849098
v -0.00602539 0.03570099 0.00577538
v -0.00441833 0.02418500 0.00740269
v -0.00426056 0.03570099 0.00712954
v 0.00261231 0.01981849 -0.00999920
v 0.00441833 0.02418498 -0.00790259
v 0.00504669 0.01981849 -0.00899089
v 0.00228699 0.02418498 -0.00878536
v 0.00426056 0.03570098 -0.00762945
v 0.00000000 0.01981849 -0.01034311
v 0.00220550 0.03570099 -0.00848071
v 0.00000000 0.02418498 -0.00908646
v -0.00261231 0.01981849 -0.00999920
v 0.00000000 0.03570099 -0.00877106
v -0.00228699 0.02418498 -0.00878536
v -0.00504669 0.01981849 -0.00899088
v -0.00220550 0.03570099 -0.00848071
v -0.00441833 0.02418498 -0.00790259
v -0.00426056 0.03570098 -0.00762945
v -0.00261231 0.01981849 0.00949930
v -0.00441833 0.02418500 0.00740269
v -0.00504669 0.01981850 0.00849098
v -0.00228699 0.02418498 0.00828546
v -0.00426056 0.03570099 0.00712954
v 0.00000000 0.01981850 0.00984321
v -0.00220550 0.03570099 0.00798080
v 0.00000000 0.02418498 0.00858656
v 0.00261231 0.01981850 0.00949929
v 0.00000000 0.03570099 0.00827115
v 0.00228699 0.02418498 0.00828546
v 0.00504669 0.01981850 0.00849099
v 0.00220550 0.03570099 0.00798080
v 0.00441833 0.02418498 0.00740269
v 0.00426056 0.03570099 0.00712954
v 0.01101532 0.03571942 -0.00024995
v 0.00852112 0.03570098 -0.00024995
v 0.00823090 0.03570098 -0.00245538
v 0.01063995 0.03571942 -0.00310094
v 0.01063995 0.03571942 0.00260103
v 0.00737946 0.03570098 -0.00451050
v 0.00823090 0.03570099 0.00195547
v 0.00953949 0.03571942 -0.00575764
v 0.00953949 0.03571942 0.00525773
v 0.00602539 0.03570098 -0.00627528
v 0.00737946 0.03570099 0.00401060
v 0.00778900 0.03571942 -0.00803899
v 0.00778900 0.03571942 0.00753909
v 0.00426056 0.03570098 -0.00762945
v 0.00602539 0.03570099 0.00577538
v 0.00550781 0.03571942 -0.00978954
v 0.00550781 0.03571942 0.00928963
v 0.00220550 0.03570099 -0.00848071
v 0.00426056 0.03570099 0.00712954
v 0.00285095 0.03571942 -0.01088998
v 0.00285095 0.03571943 0.01039007
v 0.00000000 0.03570099 -0.00877106
v 0.00220550 0.03570099 0.00798080
v 0.00000000 0.03571942 -0.01126532
v 0.00000000 0.03571943 0.01076542
v -0.00220550 0.03570099 -0.00848071
v 0.00000000 0.03570099 0.00827115
v -0.00285095 0.03571942 -0.01088998
v -0.00285095 0.03571943 0.01039008
v -0.00426056 0.03570098 -0.00762945
v -0.00220550 0.03570099 0.00798080
v -0.00550781 0.03571942 -0.00978954
v -0.00550781 0.03571942 0.00928963
v -0.00602539 0.03570098 -0.00627528
v -0.00426056 0.03570099 0.00712954
v -0.00778900 0.03571942 -0.00803899
v -0.00778900 0.03571942 0.00753909
v -0.00737946 0.03570098 -0.00451050
v -0.00602539 0.03570099 0.00577538
v -0.00953949 0.03571942 -0.00575763
v -0.00953949 0.03571942 0.00525773
v -0.00823090 0.03570098 -0.00245537
v -0.00737946 0.03570099 0.00401060
v -0.01063995 0.03571942 -0.00310093
v -0.01063995 0.03571942 0.00260104
v -0.00852112 0.03570098 -0.00024995
v -0.00823090 0.03570099 0.00195547
v -0.01101532 0.03571942 -0.00024995
vt 0.22348010 0.38509770
vt 0.24939320 0.40691120
vt 0.24939320 0.37780530
vt 0.22348010 0.41286530
vt 0.24939320 0.44484250
vt 0.22348010 0.44905280
vt 0.26744590 0.45193200
vt 0.26744590 0.41693700
vt 0.26744590 0.49268430
vt 0.24939320 0.48901470
vt 0.26744590 0.53641710
vt 0.22348010 0.49119400
vt 0.24939320 0.53641710
vt 0.26744600 0.58014980
vt 0.22348010 0.53641710
vt 0.19648120 0.50321030
vt 0.19648130 0.53641710
vt 0.24939320 0.58381960
vt 0.26744600 0.62090220
vt 0.22348010 0.58164010
vt 0.19648130 0.56962390
vt 0.24939320 0.62799160
vt 0.26744600 0.65589710
vt 0.22348010 0.62378130
vt 0.24939320 0.66592290
vt 0.22348010 0.65996870
vt 0.24939320 0.69502880
vt 0.22348010 0.68773630
vt 0.67180730 0.51028510
vt 0.64787480 0.46296390
vt 0.63262270 0.49978560
vt 0.68300660 0.48324730
vt 0.67213730 0.43134440
vt 0.70082230 0.46002950
vt 0.70375670 0.40708190
vt 0.72404020 0.44221370
vt 0.74057840 0.39182980
vt 0.75107790 0.43101430
vt 0.78009310 0.38662760
vt 0.78009310 0.42719440
vt 0.81960760 0.39182980
vt 0.80910820 0.43101430
vt 0.85642930 0.40708180
vt 0.83614590 0.44221370
vt 0.88804890 0.43134430
vt 0.85936380 0.46002940
vt 0.91231130 0.46296380
vt 0.87717950 0.48324730
vt 0.92756340 0.49978550
vt 0.88837890 0.51028500
vt 0.74028350 0.47034800
vt 0.75948610 0.46239400
vt 0.78009310 0.45968110
vt 0.80070010 0.46239400
vt 0.81990250 0.47034800
vt 0.83639220 0.48300100
vt 0.84904520 0.49949060
vt 0.72379390 0.48300100
vt 0.85699920 0.51869310
vt 0.89219870 0.53930010
vt 0.71114090 0.49949060
vt 0.85971210 0.53930010
vt 0.88837890 0.56831520
vt 0.70318700 0.51869330
vt 0.70047400 0.53930010
vt 0.66798740 0.53930010
vt 0.70318700 0.55990700
vt 0.67180730 0.56831530
vt 0.82699690 0.51222010
vt 0.83240750 0.52528240
vt 0.78009310 0.53930010
vt 0.81838990 0.50100330
vt 0.80717310 0.49239630
vt 0.79411080 0.48698570
vt 0.78009310 0.48514020
vt 0.76607540 0.48698570
vt 0.83425300 0.53930010
vt 0.75301310 0.49239630
vt 0.74179620 0.50100330
vt 0.73318920 0.51222010
vt 0.72777870 0.52528250
vt 0.72593320 0.53930010
vt 0.72777870 0.55331780
vt 0.85699920 0.55990700
vt 0.73318920 0.56638010
vt 0.83240750 0.55331770
vt 0.74179640 0.57759700
vt 0.82699690 0.56638010
vt 0.71114090 0.57910960
vt 0.84904520 0.57910950
vt 0.87717950 0.59535290
vt 0.68300670 0.59535290
vt 0.63262280 0.57881470
vt 0.64787490 0.61563630
vt 0.72379400 0.59559930
vt 0.70082250 0.61857080
vt 0.67213740 0.64725590
vt 0.91231130 0.61563630
vt 0.92756340 0.57881460
vt 0.88804890 0.64725580
vt 0.85936380 0.61857070
vt 0.85642940 0.67151830
vt 0.75301310 0.58620390
vt 0.74028360 0.60825220
vt 0.72404030 0.63638650
vt 0.70375690 0.67151830
vt 0.83639220 0.59559920
vt 0.83614590 0.63638650
vt 0.81960770 0.68677040
vt 0.76607550 0.59161450
vt 0.75107800 0.64758590
vt 0.74057870 0.68677040
vt 0.75948620 0.61620620
vt 0.81838990 0.57759690
vt 0.81990260 0.60825220
vt 0.80910820 0.64758590
vt 0.78009320 0.69197260
vt 0.78009310 0.65140570
vt 0.78009310 0.59346000
vt 0.78009310 0.61891910
vt 0.80070010 0.61620620
vt 0.80717310 0.58620390
vt 0.79411080 0.59161450
vt 0.11889970 0.53641690
vt 0.11889960 0.56962360
vt 0.14589840 0.58163990
vt 0.14589840 0.53641690
vt 0.11889970 0.50321010
vt 0.14589840 0.49119380
vt 0.17181160 0.58381930
vt 0.17181160 0.53641690
vt 0.17181160 0.62799130
vt 0.14589840 0.62378110
vt 0.17181160 0.48901440
vt 0.14589850 0.44905260
vt 0.17181160 0.66592280
vt 0.14589840 0.65996860
vt 0.17181160 0.69502870
vt 0.14589840 0.68773620
vt 0.18986430 0.65589690
vt 0.18986430 0.62090200
vt 0.18986430 0.58014950
vt 0.18986430 0.53641690
vt 0.18986440 0.49268420
vt 0.17181160 0.44484240
vt 0.14589850 0.41286520
vt 0.18986440 0.45193180
vt 0.17181160 0.40691100
vt 0.18986440 0.41693690
vt 0.14589850 0.38509770
vt 0.17181160 0.37780540
vt 0.10085690 0.74168090
vt 0.10085690 0.70456070
vt 0.07803109 0.70085210
vt 0.07803109 0.73976110
vt 0.10085690 0.78151570
vt 0.07803109 0.78151570
vt 0.10085690 0.82135070
vt 0.07803109 0.82327040
vt 0.10085690 0.85847080
vt 0.07803109 0.86217940
vt 0.11144940 0.83296330
vt 0.11144940 0.87008360
vt 0.13427510 0.87379220
vt 0.13427510 0.83488300
vt 0.11144940 0.79312830
vt 0.13427510 0.79312830
vt 0.11144940 0.75329340
vt 0.13427510 0.75137380
vt 0.11144940 0.71617320
vt 0.13427510 0.71246450
vt 0.25305910 0.32630860
vt 0.28634210 0.30076960
vt 0.27754490 0.29197240
vt 0.24683860 0.31553430
vt 0.21430030 0.34236300
vt 0.21108030 0.33034580
vt 0.17270690 0.34783890
vt 0.17270690 0.33539770
vt 0.13111350 0.34236300
vt 0.13433350 0.33034580
vt 0.09235466 0.32630850
vt 0.09857521 0.31553420
vt 0.05907163 0.30076960
vt 0.06786886 0.29197230
vt 0.22859220 0.24301970
vt 0.21222380 0.25557960
vt 0.19316240 0.26347510
vt 0.17270690 0.26616810
vt 0.15225150 0.26347510
vt 0.13319010 0.25557960
vt 0.24115210 0.22665130
vt 0.30110680 0.26126600
vt 0.11682170 0.24301960
vt 0.04430710 0.26126600
vt 0.24904760 0.20758980
vt 0.31591830 0.22550780
vt 0.10426180 0.22665120
vt 0.02949555 0.22550770
vt 0.25174060 0.18713440
vt 0.32097020 0.18713440
vt 0.09636628 0.20758970
vt 0.02444360 0.18713430
vt 0.24904760 0.16667900
vt 0.31591830 0.14876100
vt 0.09367325 0.18713430
vt 0.02949560 0.14876100
vt 0.24115210 0.14761760
vt 0.30110680 0.11300270
vt 0.09636629 0.16667900
vt 0.04430719 0.11300270
vt 0.22859220 0.13124920
vt 0.27754490 0.08229643
vt 0.10426180 0.14761750
vt 0.06786902 0.08229636
vt 0.21015610 0.17710000
vt 0.21147710 0.18713440
vt 0.21015610 0.19716890
vt 0.20628290 0.16774930
vt 0.20628290 0.20651950
vt 0.20012160 0.21454910
vt 0.19479830 0.19988880
vt 0.19074450 0.20517190
vt 0.19209210 0.22071040
vt 0.18546140 0.20922570
vt 0.18274140 0.22458350
vt 0.17930910 0.21177410
vt 0.17270690 0.22590460
vt 0.17270690 0.21264330
vt 0.16267250 0.22458350
vt 0.16610470 0.21177410
vt 0.15332180 0.22071040
vt 0.15995250 0.20922570
vt 0.14529230 0.21454900
vt 0.15466940 0.20517190
vt 0.13913100 0.20651950
vt 0.15061560 0.19988880
vt 0.13525780 0.19716880
vt 0.13393680 0.18713430
vt 0.13525780 0.17709990
vt 0.13913100 0.16774930
vt 0.11682180 0.13124910
vt 0.14529230 0.15971970
vt 0.15061560 0.17438000
vt 0.15466950 0.16909690
vt 0.15332190 0.15355850
vt 0.15995250 0.16504300
vt 0.13319020 0.11868920
vt 0.09857538 0.05873458
vt 0.16267250 0.14968530
vt 0.16610480 0.16249470
vt 0.09235482 0.04796024
vt 0.05907182 0.07349910
vt 0.13111360 0.03190579
vt 0.13433360 0.04392299
vt 0.17270700 0.02642991
vt 0.15225160 0.11079370
vt 0.17270700 0.03887105
vt 0.21430040 0.03190579
vt 0.17270700 0.14836420
vt 0.17270690 0.16162550
vt 0.17270700 0.10810070
vt 0.21108040 0.04392305
vt 0.25305920 0.04796024
vt 0.18274140 0.14968530
vt 0.17930910 0.16249470
vt 0.19316240 0.11079370
vt 0.24683870 0.05873458
vt 0.28634220 0.07349924
vt 0.21222380 0.11868920
vt 0.19209210 0.15355850
vt 0.18546140 0.16504300
vt 0.20012160 0.15971980
vt 0.19074450 0.16909690
vt 0.19479830 0.17438000
vt 0.43555860 0.75804590
vt 0.43555860 0.76840230
vt 0.44563840 0.76105840
vt 0.44563840 0.75424440
vt 0.43555860 0.74693190
vt 0.44563840 0.74693190
vt 0.43555860 0.73581800
vt 0.44563840 0.73961960
vt 0.43555860 0.72546160
vt 0.44563840 0.73280560
vt 0.45434310 0.75982680
vt 0.45434310 0.75360680
vt 0.45434310 0.74693190
vt 0.45434310 0.74025710
vt 0.45434310 0.76516810
vt 0.44563840 0.76690980
vt 0.45434310 0.76926650
vt 0.44563840 0.77139990
vt 0.47801120 0.76858210
vt 0.47801120 0.76460920
vt 0.48002110 0.76846310
vt 0.48002110 0.76451210
vt 0.47801120 0.75943170
vt 0.48002110 0.75936300
vt 0.47801120 0.75340230
vt 0.48002110 0.75336670
vt 0.47801120 0.74693190
vt 0.48002110 0.74693190
vt 0.47801120 0.74046170
vt 0.48002110 0.74049720
vt 0.45434310 0.73403710
vt 0.44563840 0.72695420
vt 0.47801120 0.73443230
vt 0.48002110 0.73450090
vt 0.45434310 0.72869590
vt 0.44563840 0.72246420
vt 0.45434310 0.72459740
vt 0.47801120 0.72925470
vt 0.48002110 0.72935180
vt 0.47801120 0.72528190
vt 0.48002110 0.72540080
vt 0.38171830 0.75804570
vt 0.38171830 0.76840210
vt 0.39179790 0.76105830
vt 0.39179790 0.75424430
vt 0.38171830 0.74693190
vt 0.39179790 0.74693200
vt 0.38171830 0.73581810
vt 0.39179790 0.73961970
vt 0.38171830 0.72546180
vt 0.39179790 0.73280570
vt 0.40050250 0.75982670
vt 0.40050250 0.75360690
vt 0.40050250 0.74693200
vt 0.40050250 0.74025720
vt 0.40050250 0.76516780
vt 0.39179790 0.76690960
vt 0.40050250 0.76926620
vt 0.39179790 0.77139950
vt 0.42417030 0.76858190
vt 0.42417030 0.76460900
vt 0.42618010 0.76846280
vt 0.42618000 0.76451190
vt 0.42417030 0.75943150
vt 0.42618010 0.75936280
vt 0.42417030 0.75340220
vt 0.42618010 0.75336670
vt 0.42417030 0.74693200
vt 0.42618010 0.74693200
vt 0.42417030 0.74046180
vt 0.42618010 0.74049740
vt 0.40050250 0.73403730
vt 0.39179790 0.72695440
vt 0.42417030 0.73443250
vt 0.42618010 0.73450110
vt 0.40050250 0.72869620
vt 0.39179790 0.72246450
vt 0.40050250 0.72459770
vt 0.42417030 0.72925500
vt 0.42618010 0.72935210
vt 0.42417030 0.72528220
vt 0.42618010 0.72540100
vt 0.60438660 0.75464650
vt 0.61044440 0.75464650
vt 0.60934940 0.74690770
vt 0.60381980 0.74690770
vt 0.59788570 0.75464650
vt 0.60899810 0.72586650
vt 0.59788570 0.74690770
vt 0.59138480 0.75464650
vt 0.60363790 0.72586650
vt 0.60893700 0.72407970
vt 0.60360630 0.72407970
vt 0.59788570 0.72586650
vt 0.59788570 0.72407970
vt 0.59195150 0.74690770
vt 0.58532700 0.75464650
vt 0.58642190 0.74690770
vt 0.59213340 0.72586650
vt 0.59216500 0.72407970
vt 0.58677320 0.72586650
vt 0.58683430 0.72407970
vt 0.55611000 0.72408010
vt 0.55005220 0.72408010
vt 0.55114710 0.73181860
vt 0.55667670 0.73181860
vt 0.56261070 0.72408000
vt 0.55149840 0.75285960
vt 0.56261070 0.73181860
vt 0.56911150 0.72408010
vt 0.55685850 0.75285960
vt 0.55155940 0.75464640
vt 0.55689010 0.75464640
vt 0.56261070 0.75285960
vt 0.56261070 0.75464640
vt 0.56854470 0.73181860
vt 0.57516930 0.72408010
vt 0.57407430 0.73181860
vt 0.56836300 0.75285960
vt 0.56833130 0.75464640
vt 0.57372300 0.75285960
vt 0.57366200 0.75464640
vt 0.07151623 0.67649160
vt 0.09592874 0.68301510
vt 0.09592874 0.65504830
vt 0.07151628 0.64972190
vt 0.09592877 0.61860140
vt 0.07151628 0.61483510
vt 0.11220130 0.61239140
vt 0.11220130 0.64626610
vt 0.11220130 0.57294360
vt 0.09592877 0.57615810
vt 0.11220130 0.53061070
vt 0.07151628 0.57420850
vt 0.09592877 0.53061070
vt 0.11220130 0.48827790
vt 0.07151628 0.53061070
vt 0.04520040 0.56271800
vt 0.04520040 0.53061070
vt 0.09592877 0.48506340
vt 0.11220130 0.44883000
vt 0.07151628 0.48701300
vt 0.04520040 0.49850340
vt 0.09592877 0.44262000
vt 0.11220130 0.41495530
vt 0.07151628 0.44638640
vt 0.09592882 0.40617310
vt 0.07151628 0.41149950
vt 0.09592877 0.37820640
vt 0.07151628 0.38472990
vt 0.33355710 0.57504040
vt 0.29594430 0.58511860
vt 0.31070420 0.62075240
vt 0.34442690 0.60128270
vt 0.33418390 0.65135180
vt 0.36171840 0.62381740
vt 0.36478330 0.67483160
vt 0.38425310 0.64110890
vt 0.40041700 0.68959160
vt 0.41049540 0.65197890
vt 0.43865690 0.69462600
vt 0.43865690 0.65568630
vt 0.47689660 0.68959160
vt 0.46681830 0.65197890
vt 0.51253040 0.67483160
vt 0.49306060 0.64110900
vt 0.54312970 0.65135190
vt 0.51559530 0.62381740
vt 0.56660950 0.62075250
vt 0.53288690 0.60128270
vt 0.58136940 0.58511870
vt 0.54375670 0.57504040
vt 0.39997310 0.61388120
vt 0.41863270 0.62161020
vt 0.43865690 0.62424650
vt 0.45868100 0.62161020
vt 0.47734060 0.61388120
vt 0.49336390 0.60158610
vt 0.50565910 0.58556280
vt 0.38394980 0.60158610
vt 0.51338810 0.56690320
vt 0.54746430 0.54687910
vt 0.37165460 0.58556260
vt 0.51602440 0.54687910
vt 0.54375670 0.51871760
vt 0.36392560 0.56690320
vt 0.36128940 0.54687890
vt 0.32984950 0.54687890
vt 0.36392570 0.52685480
vt 0.33355710 0.51871760
vt 0.48460850 0.57340920
vt 0.48990920 0.56061200
vt 0.43865690 0.54687890
vt 0.47617620 0.58439830
vt 0.46518710 0.59283070
vt 0.45238990 0.59813140
vt 0.43865690 0.59993940
vt 0.42492380 0.59813140
vt 0.49171720 0.54687890
vt 0.41212670 0.59283060
vt 0.40113750 0.58439830
vt 0.39270520 0.57340920
vt 0.38740450 0.56061200
vt 0.38559650 0.54687890
vt 0.38740450 0.53314600
vt 0.51338810 0.52685480
vt 0.48990920 0.53314600
vt 0.39270520 0.52034880
vt 0.48460850 0.52034880
vt 0.40113750 0.50935970
vt 0.37165470 0.50819520
vt 0.50565910 0.50819520
vt 0.53288690 0.49247530
vt 0.34442700 0.49247530
vt 0.29594430 0.50863920
vt 0.31070430 0.47300550
vt 0.38394990 0.49217190
vt 0.36171850 0.46994050
vt 0.33418410 0.44240610
vt 0.56660950 0.47300550
vt 0.58136940 0.50863930
vt 0.54312980 0.44240620
vt 0.51559530 0.46994070
vt 0.51253040 0.41892640
vt 0.41212670 0.50092730
vt 0.39997320 0.47987680
vt 0.38425330 0.45264910
vt 0.36478350 0.41892640
vt 0.49336390 0.49217190
vt 0.49306060 0.45264910
vt 0.47689670 0.40416650
vt 0.42492380 0.49562660
vt 0.41049550 0.44177920
vt 0.40041720 0.40416640
vt 0.41863270 0.47214770
vt 0.47617630 0.50935970
vt 0.47734060 0.47987680
vt 0.46681830 0.44177920
vt 0.43865690 0.39913210
vt 0.43865690 0.43807170
vt 0.43865690 0.49381860
vt 0.43865690 0.46951160
vt 0.45868100 0.47214780
vt 0.46518710 0.50092730
vt 0.45238990 0.49562660
vt 0.00236522 0.84347640
vt 0.02868115 0.79987870
vt 0.00236522 0.81136910
vt 0.02868115 0.84347640
vt 0.00236522 0.87558360
vt 0.02868115 0.88707420
vt 0.05309360 0.79792910
vt 0.05309360 0.84347640
vt 0.05309360 0.75548570
vt 0.02868115 0.75925210
vt 0.05309360 0.88902380
vt 0.02868115 0.92770080
vt 0.05309360 0.71903860
vt 0.02868107 0.72436510
vt 0.05309360 0.69107190
vt 0.02868107 0.69759540
vt 0.06936614 0.72782090
vt 0.06936614 0.76169560
vt 0.06936614 0.80114350
vt 0.06936614 0.84347640
vt 0.06936614 0.88580920
vt 0.05309360 0.93146710
vt 0.02868115 0.96258770
vt 0.06936614 0.92525710
vt 0.05309360 0.96791410
vt 0.06936614 0.95913190
vt 0.02868115 0.98935740
vt 0.05309360 0.99588080
vt 0.14480010 0.75134540
vt 0.16631930 0.71221380
vt 0.14480010 0.71553380
vt 0.16631930 0.74962690
vt 0.14480010 0.78977610
vt 0.16631930 0.78977610
vt 0.14480010 0.82820690
vt 0.16631930 0.82992550
vt 0.14480010 0.86401860
vt 0.16631930 0.86733860
vt 0.19788110 0.82820710
vt 0.17636190 0.86733880
vt 0.19788110 0.86401880
vt 0.17636190 0.82992560
vt 0.19788110 0.78977630
vt 0.17636190 0.78977630
vt 0.19788110 0.75134550
vt 0.17636190 0.74962680
vt 0.19788110 0.71553360
vt 0.17636190 0.71221360
vt 0.59429010 0.04649730
vt 0.61860180 0.07879219
vt 0.62631960 0.07107442
vt 0.58883290 0.05594960
vt 0.55699100 0.03104754
vt 0.55416620 0.04159024
vt 0.51696420 0.02577791
vt 0.51696420 0.03669250
vt 0.47693730 0.03104754
vt 0.47976210 0.04159024
vt 0.43963810 0.04649734
vt 0.44509550 0.05594968
vt 0.40760870 0.07107446
vt 0.41532640 0.07879222
vt 0.57121590 0.12617810
vt 0.55532600 0.11398530
vt 0.53682170 0.10632060
vt 0.51696420 0.10370630
vt 0.49710660 0.10632060
vt 0.47860240 0.11398530
vt 0.58340870 0.14206810
vt 0.64144440 0.10856120
vt 0.46271240 0.12617810
vt 0.39248390 0.10856130
vt 0.59107340 0.16057230
vt 0.65580380 0.14322780
vt 0.45051960 0.14206810
vt 0.37812460 0.14322790
vt 0.59368770 0.18042980
vt 0.66070150 0.18042980
vt 0.44285490 0.16057240
vt 0.37322690 0.18042990
vt 0.59107340 0.20028730
vt 0.65580380 0.21763180
vt 0.44024060 0.18042990
vt 0.37812460 0.21763180
vt 0.58340870 0.21879160
vt 0.64144440 0.25229850
vt 0.44285490 0.20028740
vt 0.39248400 0.25229850
vt 0.57121600 0.23468160
vt 0.61860180 0.28206740
vt 0.45051970 0.21879160
vt 0.41532660 0.28206750
vt 0.55077930 0.18949060
vt 0.55197220 0.18042980
vt 0.54728200 0.19793380
vt 0.55077930 0.17136910
vt 0.54728200 0.16292590
vt 0.54171850 0.20518420
vt 0.54171850 0.15567550
vt 0.53446820 0.15011210
vt 0.53148610 0.16590790
vt 0.52723270 0.16264420
vt 0.52602490 0.14661480
vt 0.52227960 0.16059250
vt 0.51696420 0.14542190
vt 0.51696420 0.15989270
vt 0.50790350 0.14661480
vt 0.51164880 0.16059250
vt 0.49946020 0.15011210
vt 0.50669560 0.16264420
vt 0.49220980 0.15567550
vt 0.50244230 0.16590790
vt 0.48664640 0.16292590
vt 0.48314910 0.17136910
vt 0.48195620 0.18042990
vt 0.48314910 0.18949060
vt 0.48664650 0.19793380
vt 0.46271250 0.23468160
vt 0.49220990 0.20518420
vt 0.44509560 0.30491000
vt 0.47860250 0.24687440
vt 0.43963830 0.31436230
vt 0.40760890 0.28978530
vt 0.47693740 0.32981220
vt 0.47976230 0.31926950
vt 0.51696430 0.33508180
vt 0.49946030 0.21074760
vt 0.50244230 0.19495170
vt 0.50669570 0.19821550
vt 0.51696430 0.32416710
vt 0.55699110 0.32981220
vt 0.49710680 0.25453910
vt 0.50790350 0.21424490
vt 0.51164880 0.20026710
vt 0.55416630 0.31926940
vt 0.59429020 0.31436230
vt 0.51696430 0.25715340
vt 0.51696430 0.21543780
vt 0.51696420 0.20096690
vt 0.58883290 0.30491000
vt 0.62631960 0.28978520
vt 0.53682170 0.25453910
vt 0.52602490 0.21424490
vt 0.52227960 0.20026710
vt 0.55532600 0.24687440
vt 0.53446820 0.21074760
vt 0.52723270 0.19821550
vt 0.53148610 0.19495170
vt 0.26438860 0.73026630
vt 0.27765780 0.73363550
vt 0.26438860 0.72207460
vt 0.27765780 0.73844110
vt 0.26438860 0.73980580
vt 0.27765780 0.74403740
vt 0.26438860 0.75004290
vt 0.27765780 0.75004290
vt 0.26438860 0.76028000
vt 0.27765780 0.75604840
vt 0.26438860 0.76981950
vt 0.27765780 0.76164460
vt 0.26438860 0.77801130
vt 0.27765780 0.76645020
vt 0.28769610 0.73567840
vt 0.28769610 0.73988560
vt 0.28769610 0.74478510
vt 0.28769610 0.75004290
vt 0.28769610 0.75530070
vt 0.28769610 0.76020010
vt 0.28769610 0.73245010
vt 0.27765780 0.72994810
vt 0.31417050 0.73307790
vt 0.31417050 0.73619110
vt 0.31417050 0.74024820
vt 0.31417050 0.74497280
vt 0.31417050 0.75004290
vt 0.31417050 0.75511300
vt 0.31417050 0.75983760
vt 0.28769610 0.76440750
vt 0.27765780 0.77013770
vt 0.31417050 0.76389470
vt 0.28769610 0.76763580
vt 0.31417050 0.76700780
vt 0.20683470 0.70934240
vt 0.22010390 0.71271170
vt 0.20683470 0.70115060
vt 0.22010390 0.71751730
vt 0.20683470 0.71888190
vt 0.22010390 0.72311350
vt 0.20683470 0.72911900
vt 0.22010390 0.72911900
vt 0.20683470 0.73935600
vt 0.22010390 0.73512450
vt 0.20683470 0.74889550
vt 0.22010390 0.74072070
vt 0.20683470 0.75708730
vt 0.22010390 0.74552630
vt 0.23014220 0.71475440
vt 0.23014220 0.71896170
vt 0.23014220 0.72386120
vt 0.23014220 0.72911900
vt 0.23014220 0.73437670
vt 0.23014220 0.73927620
vt 0.23014220 0.71152610
vt 0.22010390 0.70902410
vt 0.25661670 0.71215400
vt 0.25661670 0.71526710
vt 0.25661670 0.71932420
vt 0.25661670 0.72404890
vt 0.25661670 0.72911890
vt 0.25661670 0.73418900
vt 0.25661670 0.73891370
vt 0.23014220 0.74348340
vt 0.22010390 0.74921380
vt 0.25661670 0.74297080
vt 0.23014220 0.74671180
vt 0.25661670 0.74608400
vt 0.53530430 0.72418110
vt 0.53893010 0.73294780
vt 0.54019160 0.72418110
vt 0.53465130 0.73294780
vt 0.53861340 0.75606880
vt 0.53005940 0.72418110
vt 0.53448740 0.75606880
vt 0.53005940 0.73294780
vt 0.52481450 0.72418110
vt 0.53005940 0.75606880
vt 0.52546750 0.73294780
vt 0.51992730 0.72418110
vt 0.52563140 0.75606880
vt 0.52118870 0.73294780
vt 0.52150540 0.75606880
vt 0.49510940 0.75606860
vt 0.49148360 0.74730180
vt 0.49022210 0.75606860
vt 0.49576240 0.74730190
vt 0.49180020 0.72418110
vt 0.50035420 0.75606860
vt 0.49592630 0.72418110
vt 0.50035420 0.74730190
vt 0.50559900 0.75606860
vt 0.50035420 0.72418110
vt 0.50494590 0.74730190
vt 0.51048620 0.75606860
vt 0.50478210 0.72418110
vt 0.50922480 0.74730190
vt 0.50890810 0.72418110
vt 0.36879010 0.74734210
vt 0.36391840 0.74734210
vt 0.36335130 0.75164960
vt 0.36805700 0.75291060
vt 0.36805700 0.74177360
vt 0.36168860 0.75566360
vt 0.36335130 0.74303450
vt 0.36590770 0.75809960
vt 0.36590770 0.73658450
vt 0.35904370 0.75911060
vt 0.36168860 0.73902050
vt 0.36248860 0.76255540
vt 0.36248860 0.73212870
vt 0.35559680 0.76175550
vt 0.35904370 0.73557360
vt 0.35803260 0.76597450
vt 0.35803260 0.72870960
vt 0.35158280 0.76341810
vt 0.35559680 0.73292860
vt 0.35284370 0.76812380
vt 0.35284370 0.72656030
vt 0.34727520 0.76398530
vt 0.35158280 0.73126600
vt 0.34727520 0.76885690
vt 0.34727520 0.72582720
vt 0.34296760 0.76341810
vt 0.34727520 0.73069890
vt 0.34170670 0.76812380
vt 0.34170680 0.72656030
vt 0.33895360 0.76175550
vt 0.34296770 0.73126600
vt 0.33651780 0.76597450
vt 0.33651780 0.72870960
vt 0.33550670 0.75911060
vt 0.33895360 0.73292860
vt 0.33206190 0.76255540
vt 0.33206190 0.73212870
vt 0.33286180 0.75566360
vt 0.33550670 0.73557360
vt 0.32864270 0.75809960
vt 0.32864280 0.73658450
vt 0.33119910 0.75164960
vt 0.33286180 0.73902050
vt 0.32649340 0.75291060
vt 0.32649340 0.74177350
vt 0.33063200 0.74734210
vt 0.33119910 0.74303450
vt 0.32576030 0.74734210
f 3/3 2/2 1/1
f 2/2 4/4 1/1
f 2/2 5/5 4/4
f 5/5 6/6 4/4
f 7/7 5/5 2/2
f 8/8 7/7 2/2
f 7/7 9/9 5/5
f 5/5 10/10 6/6
f 9/9 10/10 5/5
f 9/9 11/11 10/10
f 10/10 12/12 6/6
f 11/11 13/13 10/10
f 10/10 13/13 12/12
f 11/11 14/14 13/13
f 13/13 15/15 12/12
f 12/12 15/15 16/16
f 15/15 17/17 16/16
f 14/14 18/18 13/13
f 13/13 18/18 15/15
f 14/14 19/19 18/18
f 15/15 20/20 17/17
f 18/18 20/20 15/15
f 20/20 21/21 17/17
f 19/19 22/22 18/18
f 18/18 22/22 20/20
f 19/19 23/23 22/22
f 22/22 24/24 20/20
f 23/23 25/25 22/22
f 22/22 25/25 24/24
f 25/25 26/26 24/24
f 25/25 27/27 26/26
f 27/27 28/28 26/26
f 31/31 30/30 29/29
f 30/30 32/32 29/29
f 30/30 33/33 32/32
f 33/33 34/34 32/32
f 33/33 35/35 34/34
f 35/35 36/36 34/34
f 35/35 37/37 36/36
f 37/37 38/38 36/36
f 37/37 39/39 38/38
f 39/39 40/40 38/38
f 39/39 41/41 40/40
f 41/41 42/42 40/40
f 41/41 43/43 42/42
f 43/43 44/44 42/42
f 43/43 45/45 44/44
f 45/45 46/46 44/44
f 45/45 47/47 46/46
f 47/47 48/48 46/46
f 47/47 49/49 48/48
f 49/49 50/50 48/48
f 36/36 38/38 51/51
f 38/38 40/40 52/52
f 38/38 52/52 51/51
f 40/40 42/42 53/53
f 40/40 53/53 52/52
f 42/42 44/44 54/54
f 42/42 54/54 53/53
f 44/44 46/46 55/55
f 44/44 55/55 54/54
f 46/46 48/48 56/56
f 46/46 56/56 55/55
f 48/48 50/50 57/57
f 48/48 57/57 56/56
f 36/36 51/51 58/58
f 34/34 36/36 58/58
f 50/50 59/59 57/57
f 50/50 60/60 59/59
f 34/34 58/58 61/61
f 32/32 34/34 61/61
f 60/60 62/62 59/59
f 60/60 63/63 62/62
f 32/32 61/61 64/64
f 29/29 32/32 64/64
f 29/29 64/64 65/65
f 66/66 29/29 65/65
f 66/66 65/65 67/67
f 68/68 66/66 67/67
f 57/57 59/59 69/69
f 59/59 62/62 70/70
f 59/59 70/70 69/69
f 69/69 70/70 71/71
f 57/57 69/69 72/72
f 72/72 69/69 71/71
f 56/56 57/57 72/72
f 56/56 72/72 73/73
f 73/73 72/72 71/71
f 55/55 56/56 73/73
f 55/55 73/73 74/74
f 74/74 73/73 71/71
f 54/54 55/55 74/74
f 54/54 74/74 75/75
f 75/75 74/74 71/71
f 53/53 54/54 75/75
f 53/53 75/75 76/76
f 76/76 75/75 71/71
f 52/52 53/53 76/76
f 70/70 77/77 71/71
f 78/78 76/76 71/71
f 52/52 76/76 78/78
f 79/79 78/78 71/71
f 51/51 52/52 78/78
f 51/51 78/78 79/79
f 58/58 51/51 79/79
f 62/62 77/77 70/70
f 58/58 79/79 80/80
f 80/80 79/79 71/71
f 61/61 58/58 80/80
f 61/61 80/80 81/81
f 81/81 80/80 71/71
f 64/64 61/61 81/81
f 64/64 81/81 82/82
f 82/82 81/81 71/71
f 65/65 64/64 82/82
f 65/65 82/82 83/83
f 83/83 82/82 71/71
f 67/67 65/65 83/83
f 62/62 84/84 77/77
f 63/63 84/84 62/62
f 85/85 83/83 71/71
f 67/67 83/83 85/85
f 77/77 86/86 71/71
f 84/84 86/86 77/77
f 87/87 85/85 71/71
f 86/86 88/88 71/71
f 89/89 67/67 85/85
f 89/89 85/85 87/87
f 68/68 67/67 89/89
f 84/84 90/90 86/86
f 90/90 88/88 86/86
f 63/63 91/91 84/84
f 91/91 90/90 84/84
f 92/92 68/68 89/89
f 93/93 68/68 92/92
f 94/94 93/93 92/92
f 95/95 89/89 87/87
f 92/92 89/89 95/95
f 94/94 92/92 96/96
f 96/96 92/92 95/95
f 97/97 94/94 96/96
f 98/98 91/91 63/63
f 99/99 98/98 63/63
f 98/98 100/100 91/91
f 100/100 101/101 91/91
f 91/91 101/101 90/90
f 100/100 102/102 101/101
f 95/95 87/87 103/103
f 103/103 87/87 71/71
f 96/96 95/95 104/104
f 104/104 95/95 103/103
f 97/97 96/96 105/105
f 105/105 96/96 104/104
f 106/106 97/97 105/105
f 101/101 107/107 90/90
f 90/90 107/107 88/88
f 102/102 108/108 101/101
f 101/101 108/108 107/107
f 102/102 109/109 108/108
f 104/104 103/103 110/110
f 110/110 103/103 71/71
f 106/106 105/105 111/111
f 112/112 106/106 111/111
f 105/105 104/104 113/113
f 113/113 104/104 110/110
f 111/111 105/105 113/113
f 107/107 114/114 88/88
f 88/88 114/114 71/71
f 108/108 115/115 107/107
f 107/107 115/115 114/114
f 109/109 116/116 108/108
f 108/108 116/116 115/115
f 109/109 117/117 116/116
f 117/117 112/112 118/118
f 112/112 111/111 118/118
f 117/117 118/118 116/116
f 113/113 110/110 119/119
f 119/119 110/110 71/71
f 111/111 113/113 120/120
f 118/118 111/111 120/120
f 120/120 113/113 119/119
f 116/116 118/118 121/121
f 116/116 121/121 115/115
f 118/118 120/120 121/121
f 115/115 122/122 114/114
f 114/114 122/122 71/71
f 115/115 121/121 122/122
f 120/120 119/119 123/123
f 123/123 119/119 71/71
f 122/122 123/123 71/71
f 121/121 120/120 123/123
f 121/121 123/123 122/122
f 126/126 125/125 124/124
f 127/127 126/126 124/124
f 127/127 124/124 128/128
f 129/129 127/127 128/128
f 130/130 126/126 127/127
f 131/131 127/127 129/129
f 131/131 130/130 127/127
f 130/130 132/132 126/126
f 132/132 133/133 126/126
f 134/134 131/131 129/129
f 134/134 129/129 135/135
f 132/132 136/136 133/133
f 136/136 137/137 133/133
f 136/136 138/138 137/137
f 138/138 139/139 137/137
f 140/140 136/136 132/132
f 141/141 140/140 132/132
f 141/141 132/132 130/130
f 142/142 141/141 130/130
f 142/142 130/130 131/131
f 143/143 142/142 131/131
f 143/143 131/131 134/134
f 144/144 143/143 134/134
f 145/145 134/134 135/135
f 144/144 134/134 145/145
f 145/145 135/135 146/146
f 147/147 144/144 145/145
f 148/148 145/145 146/146
f 147/147 145/145 148/148
f 149/149 147/147 148/148
f 148/148 146/146 150/150
f 151/151 148/148 150/150
f 154/154 153/153 152/152
f 155/155 154/154 152/152
f 155/155 152/152 156/156
f 157/157 155/155 156/156
f 157/157 156/156 158/158
f 159/159 157/157 158/158
f 159/159 158/158 160/160
f 161/161 159/159 160/160
f 164/164 163/163 162/162
f 165/165 164/164 162/162
f 165/165 162/162 166/166
f 167/167 165/165 166/166
f 167/167 166/166 168/168
f 169/169 167/167 168/168
f 169/169 168/168 170/170
f 171/171 169/169 170/170
f 174/174 173/173 172/172
f 175/175 174/174 172/172
f 175/175 172/172 176/176
f 177/177 175/175 176/176
f 177/177 176/176 178/178
f 179/179 177/177 178/178
f 179/179 178/178 180/180
f 181/181 179/179 180/180
f 181/181 180/180 182/182
f 183/183 181/181 182/182
f 183/183 182/182 184/184
f 185/185 183/183 184/184
f 186/186 174/174 175/175
f 187/187 175/175 177/177
f 187/187 186/186 175/175
f 188/188 177/177 179/179
f 188/188 187/187 177/177
f 189/189 179/179 181/181
f 189/189 188/188 179/179
f 190/190 181/181 183/183
f 190/190 189/189 181/181
f 191/191 183/183 185/185
f 191/191 190/190 183/183
f 186/186 192/192 174/174
f 192/192 193/193 174/174
f 194/194 191/191 185/185
f 194/194 185/185 195/195
f 192/192 196/196 193/193
f 196/196 197/197 193/193
f 198/198 194/194 195/195
f 198/198 195/195 199/199
f 196/196 200/200 197/197
f 200/200 201/201 197/197
f 202/202 198/198 199/199
f 202/202 199/199 203/203
f 200/200 204/204 201/201
f 204/204 205/205 201/201
f 206/206 202/202 203/203
f 206/206 203/203 207/207
f 204/204 208/208 205/205
f 208/208 209/209 205/205
f 210/210 206/206 207/207
f 210/210 207/207 211/211
f 208/208 212/212 209/209
f 212/212 213/213 209/209
f 214/214 210/210 211/211
f 214/214 211/211 215/215
f 216/216 204/204 200/200
f 217/217 216/216 200/200
f 217/217 200/200 196/196
f 218/218 217/217 196/196
f 218/218 196/196 192/192
f 216/216 219/219 204/204
f 219/219 208/208 204/204
f 220/220 218/218 192/192
f 220/220 192/192 186/186
f 221/221 220/220 186/186
f 222/222 220/220 221/221
f 221/221 186/186 187/187
f 223/223 222/222 221/221
f 224/224 221/221 187/187
f 223/223 221/221 224/224
f 224/224 187/187 188/188
f 225/225 223/223 224/224
f 226/226 224/224 188/188
f 225/225 224/224 226/226
f 226/226 188/188 189/189
f 227/227 225/225 226/226
f 228/228 226/226 189/189
f 227/227 226/226 228/228
f 228/228 189/189 190/190
f 229/229 227/227 228/228
f 230/230 228/228 190/190
f 229/229 228/228 230/230
f 230/230 190/190 191/191
f 231/231 229/229 230/230
f 232/232 230/230 191/191
f 231/231 230/230 232/232
f 232/232 191/191 194/194
f 233/233 231/231 232/232
f 234/234 232/232 194/194
f 233/233 232/232 234/234
f 234/234 194/194 198/198
f 235/235 233/233 234/234
f 236/236 234/234 198/198
f 235/235 234/234 236/236
f 237/237 235/235 236/236
f 236/236 198/198 202/202
f 238/238 236/236 202/202
f 238/238 202/202 206/206
f 239/239 238/238 206/206
f 239/239 206/206 210/210
f 240/240 239/239 210/210
f 240/240 210/210 214/214
f 241/241 240/240 214/214
f 241/241 214/214 242/242
f 242/242 214/214 215/215
f 243/243 241/241 242/242
f 244/244 241/241 243/243
f 245/245 244/244 243/243
f 245/245 243/243 246/246
f 247/247 245/245 246/246
f 243/243 242/242 248/248
f 246/246 243/243 248/248
f 242/242 215/215 249/249
f 248/248 242/242 249/249
f 247/247 246/246 250/250
f 251/251 247/247 250/250
f 249/249 215/215 252/252
f 215/215 253/253 252/252
f 249/249 252/252 254/254
f 255/255 249/249 254/254
f 248/248 249/249 255/255
f 255/255 254/254 256/256
f 246/246 248/248 257/257
f 257/257 248/248 255/255
f 250/250 246/246 257/257
f 258/258 255/255 256/256
f 257/257 255/255 258/258
f 258/258 256/256 259/259
f 251/251 250/250 260/260
f 261/261 251/251 260/260
f 250/250 257/257 262/262
f 262/262 257/257 258/258
f 260/260 250/250 262/262
f 263/263 258/258 259/259
f 262/262 258/258 263/263
f 263/263 259/259 264/264
f 261/261 260/260 265/265
f 266/266 261/261 265/265
f 260/260 262/262 267/267
f 267/267 262/262 263/263
f 265/265 260/260 267/267
f 268/268 263/263 264/264
f 267/267 263/263 268/268
f 268/268 264/264 269/269
f 213/213 268/268 269/269
f 270/270 267/267 268/268
f 270/270 268/268 213/213
f 265/265 267/267 270/270
f 212/212 270/270 213/213
f 266/266 265/265 271/271
f 271/271 265/265 270/270
f 271/271 270/270 212/212
f 272/272 266/266 271/271
f 273/273 271/271 212/212
f 272/272 271/271 273/273
f 273/273 212/212 208/208
f 274/274 272/272 273/273
f 219/219 273/273 208/208
f 274/274 273/273 219/219
f 275/275 274/274 219/219
f 278/278 277/277 276/276
f 279/279 278/278 276/276
f 279/279 276/276 280/280
f 281/281 279/279 280/280
f 281/281 280/280 282/282
f 283/283 281/281 282/282
f 283/283 282/282 284/284
f 285/285 283/283 284/284
f 286/286 278/278 279/279
f 287/287 279/279 281/281
f 287/287 286/286 279/279
f 288/288 281/281 283/283
f 288/288 287/287 281/281
f 289/289 283/283 285/285
f 289/289 288/288 283/283
f 286/286 290/290 278/278
f 290/290 291/291 278/278
f 290/290 292/292 291/291
f 292/292 293/293 291/291
f 294/294 292/292 290/290
f 295/295 294/294 290/290
f 295/295 290/290 286/286
f 296/296 294/294 295/295
f 297/297 296/296 295/295
f 298/298 295/295 286/286
f 297/297 295/295 298/298
f 298/298 286/286 287/287
f 299/299 297/297 298/298
f 300/300 298/298 287/287
f 299/299 298/298 300/300
f 300/300 287/287 288/288
f 301/301 299/299 300/300
f 302/302 300/300 288/288
f 301/301 300/300 302/302
f 303/303 301/301 302/302
f 302/302 288/288 289/289
f 303/303 302/302 304/304
f 304/304 302/302 289/289
f 305/305 303/303 304/304
f 304/304 289/289 306/306
f 306/306 289/289 285/285
f 306/306 285/285 307/307
f 305/305 304/304 308/308
f 308/308 304/304 306/306
f 309/309 305/305 308/308
f 310/310 306/306 307/307
f 308/308 306/306 310/310
f 310/310 307/307 311/311
f 312/312 310/310 311/311
f 309/309 308/308 313/313
f 313/313 308/308 310/310
f 313/313 310/310 312/312
f 314/314 309/309 313/313
f 315/315 313/313 312/312
f 314/314 313/313 315/315
f 316/316 314/314 315/315
f 319/319 318/318 317/317
f 320/320 319/319 317/317
f 320/320 317/317 321/321
f 322/322 320/320 321/321
f 322/322 321/321 323/323
f 324/324 322/322 323/323
f 324/324 323/323 325/325
f 326/326 324/324 325/325
f 327/327 319/319 320/320
f 328/328 320/320 322/322
f 328/328 327/327 320/320
f 329/329 322/322 324/324
f 329/329 328/328 322/322
f 330/330 324/324 326/326
f 330/330 329/329 324/324
f 327/327 331/331 319/319
f 331/331 332/332 319/319
f 331/331 333/333 332/332
f 333/333 334/334 332/332
f 335/335 333/333 331/331
f 336/336 335/335 331/331
f 336/336 331/331 327/327
f 337/337 335/335 336/336
f 338/338 337/337 336/336
f 339/339 336/336 327/327
f 338/338 336/336 339/339
f 339/339 327/327 328/328
f 340/340 338/338 339/339
f 341/341 339/339 328/328
f 340/340 339/339 341/341
f 341/341 328/328 329/329
f 342/342 340/340 341/341
f 343/343 341/341 329/329
f 342/342 341/341 343/343
f 344/344 342/342 343/343
f 343/343 329/329 330/330
f 344/344 343/343 345/345
f 345/345 343/343 330/330
f 346/346 344/344 345/345
f 345/345 330/330 347/347
f 347/347 330/330 326/326
f 347/347 326/326 348/348
f 346/346 345/345 349/349
f 349/349 345/345 347/347
f 350/350 346/346 349/349
f 351/351 347/347 348/348
f 349/349 347/347 351/351
f 351/351 348/348 352/352
f 353/353 351/351 352/352
f 350/350 349/349 354/354
f 354/354 349/349 351/351
f 354/354 351/351 353/353
f 355/355 350/350 354/354
f 356/356 354/354 353/353
f 355/355 354/354 356/356
f 357/357 355/355 356/356
f 360/360 359/359 358/358
f 361/361 360/360 358/358
f 361/361 358/358 362/362
f 363/363 360/360 361/361
f 364/364 361/361 362/362
f 364/364 362/362 365/365
f 366/366 363/363 361/361
f 366/366 361/361 364/364
f 367/367 363/363 366/366
f 368/368 367/367 366/366
f 368/368 366/366 369/369
f 369/369 366/366 364/364
f 370/370 368/368 369/369
f 371/371 364/364 365/365
f 369/369 364/364 371/371
f 371/371 365/365 372/372
f 373/373 371/371 372/372
f 370/370 369/369 374/374
f 374/374 369/369 371/371
f 374/374 371/371 373/373
f 375/375 370/370 374/374
f 376/376 374/374 373/373
f 375/375 374/374 376/376
f 377/377 375/375 376/376
f 380/380 379/379 378/378
f 381/381 380/380 378/378
f 381/381 378/378 382/382
f 383/383 380/380 381/381
f 384/384 381/381 382/382
f 384/384 382/382 385/385
f 386/386 383/383 381/381
f 386/386 381/381 384/384
f 387/387 383/383 386/386
f 388/388 387/387 386/386
f 388/388 386/386 389/389
f 389/389 386/386 384/384
f 390/390 388/388 389/389
f 391/391 384/384 385/385
f 389/389 384/384 391/391
f 391/391 385/385 392/392
f 393/393 391/391 392/392
f 390/390 389/389 394/394
f 394/394 389/389 391/391
f 394/394 391/391 393/393
f 395/395 390/390 394/394
f 396/396 394/394 393/393
f 395/395 394/394 396/396
f 397/397 395/395 396/396
f 400/400 399/399 398/398
f 401/401 400/400 398/398
f 402/402 400/400 401/401
f 403/403 402/402 401/401
f 402/402 404/404 400/400
f 404/404 405/405 400/400
f 406/406 404/404 402/402
f 407/407 402/402 403/403
f 407/407 406/406 402/402
f 408/408 406/406 407/407
f 409/409 407/407 403/403
f 410/410 408/408 407/407
f 410/410 407/407 409/409
f 411/411 408/408 410/410
f 412/412 410/410 409/409
f 412/412 409/409 413/413
f 414/414 412/412 413/413
f 415/415 411/411 410/410
f 415/415 410/410 412/412
f 416/416 411/411 415/415
f 417/417 412/412 414/414
f 417/417 415/415 412/412
f 418/418 417/417 414/414
f 419/419 416/416 415/415
f 419/419 415/415 417/417
f 420/420 416/416 419/419
f 421/421 419/419 417/417
f 422/422 420/420 419/419
f 422/422 419/419 421/421
f 423/423 422/422 421/421
f 424/424 422/422 423/423
f 425/425 424/424 423/423
f 428/428 427/427 426/426
f 429/429 428/428 426/426
f 430/430 428/428 429/429
f 431/431 430/430 429/429
f 432/432 430/430 431/431
f 433/433 432/432 431/431
f 434/434 432/432 433/433
f 435/435 434/434 433/433
f 436/436 434/434 435/435
f 437/437 436/436 435/435
f 438/438 436/436 437/437
f 439/439 438/438 437/437
f 440/440 438/438 439/439
f 441/441 440/440 439/439
f 442/442 440/440 441/441
f 443/443 442/442 441/441
f 444/444 442/442 443/443
f 445/445 444/444 443/443
f 446/446 444/444 445/445
f 447/447 446/446 445/445
f 435/435 433/433 448/448
f 437/437 435/435 449/449
f 449/449 435/435 448/448
f 439/439 437/437 450/450
f 450/450 437/437 449/449
f 441/441 439/439 451/451
f 451/451 439/439 450/450
f 443/443 441/441 452/452
f 452/452 441/441 451/451
f 445/445 443/443 453/453
f 453/453 443/443 452/452
f 447/447 445/445 454/454
f 454/454 445/445 453/453
f 448/448 433/433 455/455
f 433/433 431/431 455/455
f 456/456 447/447 454/454
f 457/457 447/447 456/456
f 455/455 431/431 458/458
f 431/431 429/429 458/458
f 459/459 457/457 456/456
f 460/460 457/457 459/459
f 458/458 429/429 461/461
f 429/429 426/426 461/461
f 461/461 426/426 462/462
f 426/426 463/463 462/462
f 462/462 463/463 464/464
f 463/463 465/465 464/464
f 456/456 454/454 466/466
f 459/459 456/456 467/467
f 467/467 456/456 466/466
f 467/467 466/466 468/468
f 466/466 454/454 469/469
f 466/466 469/469 468/468
f 454/454 453/453 469/469
f 469/469 453/453 470/470
f 469/469 470/470 468/468
f 453/453 452/452 470/470
f 470/470 452/452 471/471
f 470/470 471/471 468/468
f 452/452 451/451 471/471
f 471/471 451/451 472/472
f 471/471 472/472 468/468
f 451/451 450/450 472/472
f 472/472 450/450 473/473
f 472/472 473/473 468/468
f 450/450 449/449 473/473
f 474/474 467/467 468/468
f 473/473 475/475 468/468
f 473/473 449/449 475/475
f 475/475 476/476 468/468
f 449/449 448/448 475/475
f 475/475 448/448 476/476
f 448/448 455/455 476/476
f 474/474 459/459 467/467
f 476/476 455/455 477/477
f 476/476 477/477 468/468
f 455/455 458/458 477/477
f 477/477 458/458 478/478
f 477/477 478/478 468/468
f 458/458 461/461 478/478
f 478/478 461/461 479/479
f 478/478 479/479 468/468
f 461/461 462/462 479/479
f 479/479 462/462 480/480
f 479/479 480/480 468/468
f 462/462 464/464 480/480
f 481/481 459/459 474/474
f 481/481 460/460 459/459
f 482/482 474/474 468/468
f 482/482 481/481 474/474
f 480/480 483/483 468/468
f 480/480 464/464 483/483
f 484/484 482/482 468/468
f 483/483 485/485 468/468
f 464/464 486/486 483/483
f 483/483 486/486 485/485
f 464/464 465/465 486/486
f 487/487 481/481 482/482
f 484/484 487/487 482/482
f 488/488 460/460 481/481
f 487/487 488/488 481/481
f 465/465 489/489 486/486
f 465/465 490/490 489/489
f 490/490 491/491 489/489
f 486/486 492/492 485/485
f 486/486 489/489 492/492
f 489/489 491/491 493/493
f 489/489 493/493 492/492
f 491/491 494/494 493/493
f 488/488 495/495 460/460
f 495/495 496/496 460/460
f 497/497 495/495 488/488
f 498/498 497/497 488/488
f 498/498 488/488 487/487
f 499/499 497/497 498/498
f 485/485 492/492 500/500
f 485/485 500/500 468/468
f 492/492 493/493 501/501
f 492/492 501/501 500/500
f 493/493 494/494 502/502
f 493/493 502/502 501/501
f 494/494 503/503 502/502
f 504/504 498/498 487/487
f 504/504 487/487 484/484
f 505/505 499/499 498/498
f 505/505 498/498 504/504
f 506/506 499/499 505/505
f 500/500 501/501 507/507
f 500/500 507/507 468/468
f 502/502 503/503 508/508
f 503/503 509/509 508/508
f 501/501 502/502 510/510
f 501/501 510/510 507/507
f 502/502 508/508 510/510
f 511/511 504/504 484/484
f 511/511 484/484 468/468
f 512/512 505/505 504/504
f 512/512 504/504 511/511
f 513/513 506/506 505/505
f 513/513 505/505 512/512
f 514/514 506/506 513/513
f 509/509 514/514 515/515
f 508/508 509/509 515/515
f 515/515 514/514 513/513
f 507/507 510/510 516/516
f 507/507 516/516 468/468
f 510/510 508/508 517/517
f 508/508 515/515 517/517
f 510/510 517/517 516/516
f 515/515 513/513 518/518
f 518/518 513/513 512/512
f 517/517 515/515 518/518
f 519/519 512/512 511/511
f 519/519 511/511 468/468
f 518/518 512/512 519/519
f 516/516 517/517 520/520
f 516/516 520/520 468/468
f 520/520 519/519 468/468
f 517/517 518/518 520/520
f 520/520 518/518 519/519
f 523/523 522/522 521/521
f 522/522 524/524 521/521
f 521/521 524/524 525/525
f 524/524 526/526 525/525
f 522/522 527/527 524/524
f 524/524 528/528 526/526
f 527/527 528/528 524/524
f 529/529 527/527 522/522
f 530/530 529/529 522/522
f 528/528 531/531 526/526
f 526/526 531/531 532/532
f 533/533 529/529 530/530
f 534/534 533/533 530/530
f 535/535 533/533 534/534
f 536/536 535/535 534/534
f 533/533 537/537 529/529
f 537/537 538/538 529/529
f 529/529 538/538 527/527
f 538/538 539/539 527/527
f 527/527 539/539 528/528
f 539/539 540/540 528/528
f 528/528 540/540 531/531
f 540/540 541/541 531/531
f 531/531 542/542 532/532
f 531/531 541/541 542/542
f 532/532 542/542 543/543
f 541/541 544/544 542/542
f 542/542 545/545 543/543
f 542/542 544/544 545/545
f 544/544 546/546 545/545
f 543/543 545/545 547/547
f 545/545 548/548 547/547
f 551/551 550/550 549/549
f 550/550 552/552 549/549
f 549/549 552/552 553/553
f 552/552 554/554 553/553
f 553/553 554/554 555/555
f 554/554 556/556 555/555
f 555/555 556/556 557/557
f 556/556 558/558 557/557
f 561/561 560/560 559/559
f 560/560 562/562 559/559
f 559/559 562/562 563/563
f 562/562 564/564 563/563
f 563/563 564/564 565/565
f 564/564 566/566 565/565
f 565/565 566/566 567/567
f 566/566 568/568 567/567
f 571/571 570/570 569/569
f 570/570 572/572 569/569
f 569/569 572/572 573/573
f 572/572 574/574 573/573
f 573/573 574/574 575/575
f 574/574 576/576 575/575
f 575/575 576/576 577/577
f 576/576 578/578 577/577
f 577/577 578/578 579/579
f 578/578 580/580 579/579
f 579/579 580/580 581/581
f 580/580 582/582 581/581
f 570/570 583/583 572/572
f 572/572 584/584 574/574
f 583/583 584/584 572/572
f 574/574 585/585 576/576
f 584/584 585/585 574/574
f 576/576 586/586 578/578
f 585/585 586/586 576/576
f 578/578 587/587 580/580
f 586/586 587/587 578/578
f 580/580 588/588 582/582
f 587/587 588/588 580/580
f 589/589 583/583 570/570
f 590/590 589/589 570/570
f 588/588 591/591 582/582
f 582/582 591/591 592/592
f 593/593 589/589 590/590
f 594/594 593/593 590/590
f 591/591 595/595 592/592
f 592/592 595/595 596/596
f 597/597 593/593 594/594
f 598/598 597/597 594/594
f 595/595 599/599 596/596
f 596/596 599/599 600/600
f 601/601 597/597 598/598
f 602/602 601/601 598/598
f 599/599 603/603 600/600
f 600/600 603/603 604/604
f 605/605 601/601 602/602
f 606/606 605/605 602/602
f 603/603 607/607 604/604
f 604/604 607/607 608/608
f 609/609 605/605 606/606
f 610/610 609/609 606/606
f 607/607 611/611 608/608
f 608/608 611/611 612/612
f 601/601 613/613 597/597
f 613/613 614/614 597/597
f 615/615 613/613 601/601
f 605/605 615/615 601/601
f 597/597 614/614 593/593
f 614/614 616/616 593/593
f 593/593 616/616 589/589
f 616/616 617/617 589/589
f 589/589 617/617 583/583
f 618/618 615/615 605/605
f 617/617 619/619 583/583
f 583/583 619/619 584/584
f 609/609 618/618 605/605
f 619/619 620/620 584/584
f 619/619 621/621 620/620
f 584/584 620/620 585/585
f 621/621 622/622 620/620
f 620/620 623/623 585/585
f 620/620 622/622 623/623
f 585/585 623/623 586/586
f 622/622 624/624 623/623
f 623/623 625/625 586/586
f 623/623 624/624 625/625
f 586/586 625/625 587/587
f 624/624 626/626 625/625
f 625/625 627/627 587/587
f 625/625 626/626 627/627
f 587/587 627/627 588/588
f 626/626 628/628 627/627
f 627/627 629/629 588/588
f 627/627 628/628 629/629
f 588/588 629/629 591/591
f 628/628 630/630 629/629
f 629/629 631/631 591/591
f 629/629 630/630 631/631
f 630/630 632/632 631/631
f 591/591 631/631 595/595
f 631/631 633/633 595/595
f 595/595 633/633 599/599
f 633/633 634/634 599/599
f 599/599 634/634 603/603
f 634/634 635/635 603/603
f 603/603 635/635 607/607
f 635/635 636/636 607/607
f 607/607 636/636 611/611
f 636/636 637/637 611/611
f 611/611 637/637 638/638
f 611/611 638/638 612/612
f 637/637 639/639 638/638
f 612/612 638/638 640/640
f 638/638 639/639 641/641
f 638/638 641/641 640/640
f 612/612 640/640 642/642
f 643/643 612/612 642/642
f 642/642 640/640 644/644
f 640/640 645/645 644/644
f 640/640 641/641 645/645
f 644/644 645/645 646/646
f 639/639 647/647 641/641
f 639/639 648/648 647/647
f 648/648 649/649 647/647
f 645/645 650/650 646/646
f 646/646 650/650 651/651
f 641/641 652/652 645/645
f 641/641 647/647 652/652
f 645/645 652/652 650/650
f 647/647 649/649 653/653
f 647/647 653/653 652/652
f 649/649 654/654 653/653
f 650/650 655/655 651/651
f 651/651 655/655 656/656
f 652/652 657/657 650/650
f 652/652 653/653 657/657
f 650/650 657/657 655/655
f 653/653 654/654 658/658
f 653/653 658/658 657/657
f 654/654 659/659 658/658
f 655/655 660/660 656/656
f 656/656 660/660 661/661
f 660/660 610/610 661/661
f 657/657 662/662 655/655
f 657/657 658/658 662/662
f 655/655 662/662 660/660
f 658/658 659/659 663/663
f 658/658 663/663 662/662
f 659/659 664/664 663/663
f 660/660 665/665 610/610
f 662/662 665/665 660/660
f 662/662 663/663 665/665
f 665/665 609/609 610/610
f 663/663 664/664 666/666
f 663/663 666/666 665/665
f 665/665 666/666 609/609
f 664/664 667/667 666/666
f 666/666 618/618 609/609
f 666/666 667/667 618/618
f 667/667 668/668 618/618
f 671/671 670/670 669/669
f 670/670 672/672 669/669
f 669/669 672/672 673/673
f 672/672 674/674 673/673
f 673/673 674/674 675/675
f 674/674 676/676 675/675
f 675/675 676/676 677/677
f 676/676 678/678 677/677
f 677/677 678/678 679/679
f 678/678 680/680 679/679
f 679/679 680/680 681/681
f 680/680 682/682 681/681
f 670/670 683/683 672/672
f 672/672 684/684 674/674
f 683/683 684/684 672/672
f 674/674 685/685 676/676
f 684/684 685/685 674/674
f 676/676 686/686 678/678
f 685/685 686/686 676/676
f 678/678 687/687 680/680
f 686/686 687/687 678/678
f 680/680 688/688 682/682
f 687/687 688/688 680/680
f 689/689 683/683 670/670
f 690/690 689/689 670/670
f 689/689 691/691 683/683
f 691/691 692/692 683/683
f 683/683 692/692 684/684
f 692/692 693/693 684/684
f 684/684 693/693 685/685
f 693/693 694/694 685/685
f 685/685 694/694 686/686
f 694/694 695/695 686/686
f 686/686 695/695 687/687
f 695/695 696/696 687/687
f 687/687 696/696 688/688
f 696/696 697/697 688/688
f 688/688 697/697 698/698
f 688/688 698/698 682/682
f 682/682 698/698 699/699
f 697/697 700/700 698/698
f 698/698 701/701 699/699
f 698/698 700/700 701/701
f 700/700 702/702 701/701
f 705/705 704/704 703/703
f 704/704 706/706 703/703
f 703/703 706/706 707/707
f 706/706 708/708 707/707
f 707/707 708/708 709/709
f 708/708 710/710 709/709
f 709/709 710/710 711/711
f 710/710 712/712 711/711
f 711/711 712/712 713/713
f 712/712 714/714 713/713
f 713/713 714/714 715/715
f 714/714 716/716 715/715
f 704/704 717/717 706/706
f 706/706 718/718 708/708
f 717/717 718/718 706/706
f 708/708 719/719 710/710
f 718/718 719/719 708/708
f 710/710 720/720 712/712
f 719/719 720/720 710/710
f 712/712 721/721 714/714
f 720/720 721/721 712/712
f 714/714 722/722 716/716
f 721/721 722/722 714/714
f 723/723 717/717 704/704
f 724/724 723/723 704/704
f 723/723 725/725 717/717
f 725/725 726/726 717/717
f 717/717 726/726 718/718
f 726/726 727/727 718/718
f 718/718 727/727 719/719
f 727/727 728/728 719/719
f 719/719 728/728 720/720
f 728/728 729/729 720/720
f 720/720 729/729 721/721
f 729/729 730/730 721/721
f 721/721 730/730 722/722
f 730/730 731/731 722/722
f 722/722 731/731 732/732
f 722/722 732/732 716/716
f 716/716 732/732 733/733
f 731/731 734/734 732/732
f 732/732 735/735 733/733
f 732/732 734/734 735/735
f 734/734 736/736 735/735
f 739/739 738/738 737/737
f 738/738 740/740 737/737
f 738/738 741/741 740/740
f 737/737 740/740 742/742
f 741/741 743/743 740/740
f 740/740 744/744 742/742
f 740/740 743/743 744/744
f 742/742 744/744 745/745
f 743/743 746/746 744/744
f 744/744 747/747 745/745
f 744/744 746/746 747/747
f 745/745 747/747 748/748
f 746/746 749/749 747/747
f 747/747 750/750 748/748
f 747/747 749/749 750/750
f 749/749 751/751 750/750
f 754/754 753/753 752/752
f 753/753 755/755 752/752
f 753/753 756/756 755/755
f 752/752 755/755 757/757
f 756/756 758/758 755/755
f 755/755 759/759 757/757
f 755/755 758/758 759/759
f 757/757 759/759 760/760
f 758/758 761/761 759/759
f 759/759 762/762 760/760
f 759/759 761/761 762/762
f 760/760 762/762 763/763
f 761/761 764/764 762/762
f 762/762 765/765 763/763
f 762/762 764/764 765/765
f 764/764 766/766 765/765
f 769/769 768/768 767/767
f 770/770 769/769 767/767
f 767/767 768/768 771/771
f 772/772 769/769 770/770
f 768/768 773/773 771/771
f 774/774 772/772 770/770
f 771/771 773/773 775/775
f 776/776 772/772 774/774
f 773/773 777/777 775/775
f 778/778 776/776 774/774
f 775/775 777/777 779/779
f 780/780 776/776 778/778
f 777/777 781/781 779/779
f 782/782 780/780 778/778
f 779/779 781/781 783/783
f 784/784 780/780 782/782
f 781/781 785/785 783/783
f 786/786 784/784 782/782
f 783/783 785/785 787/787
f 788/788 784/784 786/786
f 785/785 789/789 787/787
f 790/790 788/788 786/786
f 787/787 789/789 791/791
f 792/792 788/788 790/790
f 789/789 793/793 791/791
f 794/794 792/792 790/790
f 791/791 793/793 795/795
f 796/796 792/792 794/794
f 793/793 797/797 795/795
f 798/798 796/796 794/794
f 795/795 797/797 799/799
f 800/800 796/796 798/798
f 797/797 801/801 799/799
f 802/802 800/800 798/798
f 799/799 801/801 803/803
f 804/804 800/800 802/802
f 801/801 805/805 803/803
f 806/806 804/804 802/802
f 803/803 805/805 807/807
f 808/808 804/804 806/806
f 805/805 809/809 807/807
f 810/810 808/808 806/806
f 807/807 809/809 811/811
f 812/812 808/808 810/810
f 809/809 813/813 811/811
f 814/814 812/812 810/810
f 811/811 813/813 814/814
f 813/813 812/812 814/814