# Blender 4.0.0
# www.blender.org
o decimated_mesh
v 0.008655 0.031795 0.000191
v 0.008689 0.031796 -0.000226
v 0.009608 0.031626 0.000058
v 0.009598 0.031633 -0.000120
v 0.008570 0.028976 0.000181
v 0.008736 0.028788 -0.000033
v -0.008239 0.031797 0.000188
v 0.008370 0.028741 -0.000234
v 0.006291 0.024947 0.000074
v 0.006287 0.024933 -0.000125
v -0.009471 0.031625 0.000067
v 0.004178 0.024037 0.000145
v 0.004295 0.023865 0.000011
v 0.001707 0.023214 0.000179
v 0.004528 0.024011 -0.000103
v -0.007347 0.027330 0.000195
v -0.008325 0.031791 -0.000218
v -0.009453 0.031646 -0.000132
v 0.003072 0.023360 -0.000033
v 0.001782 0.023024 0.000063
v -0.001585 0.023214 0.000167
v -0.001585 0.023026 0.000066
v -0.004878 0.024860 -0.000246
v -0.007347 0.027330 -0.000237
v -0.008386 0.028835 0.000057
v -0.006144 0.024929 0.000056
v -0.009446 0.031391 -0.000089
v 0.001831 0.023040 -0.000132
v -0.004878 0.024586 0.000176
v -0.002942 0.023363 -0.000027
v -0.001610 0.023037 -0.000121
v -0.006144 0.024933 -0.000123
v -0.008376 0.028813 -0.000124
vn -0.0006 0.9982 0.0592
vn 0.9546 -0.2910 -0.0635
vn -0.1264 0.9919 0.0126
vn 0.0001 0.0025 -1.0000
vn -0.1253 -0.1196 0.9849
vn 0.8435 -0.5366 0.0225
vn 0.1374 -0.0076 0.9905
vn 0.4896 -0.1744 -0.8544
vn -0.0953 -0.0175 0.9953
vn -0.9948 -0.0415 -0.0925
vn 0.6631 -0.2265 0.7134
vn 0.4549 -0.8714 -0.1836
vn 0.3677 -0.8618 -0.3493
vn 0.1086 0.2798 0.9539
vn 0.5719 -0.3434 0.7450
vn -0.0006 0.4722 -0.8815
vn -0.1854 0.5223 -0.8324
vn -0.4395 -0.8980 -0.0209
vn -0.5166 -0.2974 -0.8029
vn -0.0746 -0.0122 -0.9971
vn -0.8645 -0.3375 0.3724
vn -0.2088 -0.4728 0.8561
vn -0.8668 -0.4986 -0.0117
vn 0.1742 0.9844 0.0243
vn 0.0605 -0.1384 -0.9885
vn -0.1017 -0.0981 -0.9900
vn -0.5833 -0.3348 0.7400
vn 0.2513 -0.9678 -0.0133
vn 0.0101 0.0107 0.9999
vn 0.0006 0.9969 0.0788
vn 0.4876 -0.2903 -0.8234
vn -0.9236 -0.3834 -0.0026
vn -0.1462 0.9850 0.0912
vn -0.0032 -0.0736 -0.9973
vn 0.0008 0.0043 -1.0000
vn 0.0092 -0.0283 -0.9996
vn -0.0005 0.0037 -1.0000
vn 0.1138 -0.0093 -0.9935
vn 0.0181 -0.0385 -0.9991
vn 0.0001 1.0000 0.0027
vn -0.0003 0.9999 -0.0142
vn -0.2430 -0.0952 -0.9653
vn -0.4175 -0.1612 -0.8943
vn 0.4748 -0.8784 0.0542
vn 0.1459 0.3252 0.9343
vn 0.0032 0.5232 -0.8522
vn -0.1843 0.4594 -0.8689
vn -0.1862 0.5234 -0.8315
vn 0.2399 -0.4913 0.8373
vn -0.1753 -0.4649 0.8678
vn -0.1737 -0.4228 0.8894
vn -0.8673 -0.4977 0.0143
vn 0.1763 0.9842 0.0172
vn 0.2078 -0.5532 -0.8067
vn -0.2397 -0.9705 -0.0252
vn -0.2992 -0.1198 0.9466
vn 0.0482 -0.0337 0.9983
vn -0.0431 -0.0022 0.9991
vn -0.0002 -0.0058 1.0000
vn 0.0121 0.0040 0.9999
vn 0.0024 -0.0006 1.0000
vn -0.0037 -0.0053 1.0000
vn -0.0002 0.0015 1.0000
vn -0.0005 0.0041 -1.0000
vn -0.0024 -0.0091 1.0000
vn 0.0008 -0.0020 1.0000
vn 0.1772 0.9839 0.0241
vn 0.1750 0.9844 0.0171
vn 0.0027 -0.0036 1.0000
vn -0.0002 0.0033 -1.0000
vn -0.0037 -0.0152 0.9999
vn -0.1672 0.4661 -0.8688
vn 0.0229 -0.0276 0.9994
vn 0.0033 0.4722 -0.8815
vn -0.0006 0.5221 -0.8529
vn 0.0596 -0.0602 0.9964
vn 0.1079 0.2589 0.9599
vn 0.1568 0.3758 0.9133
vn 0.0006 0.9983 0.0590
vn -0.0005 0.9969 0.0785
vn -0.2085 0.5740 -0.7919
vn -0.1914 0.5204 -0.8322
s 0
f 22//1 28//1 31//1
f 3//2 6//2 4//2
f 7//3 17//3 18//3
f 2//4 8//4 23//4
f 26//5 29//5 16//5
f 6//6 9//6 10//6
f 1//7 5//7 3//7
f 4//8 6//8 8//8
f 11//9 16//9 7//9
f 27//10 11//10 18//10
f 5//11 6//11 3//11
f 10//12 13//12 15//12
f 13//13 19//13 15//13
f 30//14 23//14 32//14
f 9//15 6//15 5//15
f 20//16 22//16 21//16
f 12//17 19//17 14//17
f 30//18 26//18 32//18
f 33//19 24//19 32//19
f 17//20 24//20 18//20
f 11//21 27//21 25//21
f 29//22 26//22 30//22
f 26//23 33//23 32//23
f 2//24 3//24 4//24
f 28//25 10//25 15//25
f 23//26 32//26 24//26
f 16//27 25//27 26//27
f 28//28 19//28 20//28
f 14//29 12//29 7//29
f 20//30 28//30 22//30
f 6//31 10//31 8//31
f 27//32 33//32 25//32
f 11//33 7//33 18//33
f 31//34 23//34 28//34
f 23//35 24//35 17//35
f 28//36 23//36 8//36
f 17//37 2//37 23//37
f 4//38 8//38 2//38
f 8//39 10//39 28//39
f 7//40 1//40 2//40
f 2//41 17//41 7//41
f 24//42 33//42 18//42
f 33//43 27//43 18//43
f 13//44 10//44 9//44
f 23//45 30//45 31//45
f 20//46 21//46 14//46
f 20//47 14//47 19//47
f 19//48 12//48 13//48
f 12//49 13//49 9//49
f 30//50 22//50 21//50
f 21//51 29//51 30//51
f 26//52 25//52 33//52
f 2//53 1//53 3//53
f 15//54 19//54 28//54
f 31//55 22//55 30//55
f 25//56 16//56 11//56
f 12//57 9//57 1//57
f 9//58 5//58 1//58
f 1//59 7//59 12//59
f 16//60 29//60 7//60
f 29//61 21//61 7//61
f 21//62 14//62 7//62
f 16//63 1//63 7//63
f 2//64 24//64 17//64
f 29//65 14//65 16//65
f 14//66 1//66 16//66
f 3//67 4//67 1//67
f 4//68 2//68 1//68
f 14//69 5//69 1//69
f 23//70 24//70 2//70
f 21//71 14//71 29//71
f 20//72 14//72 12//72
f 12//73 5//73 14//73
f 21//74 14//74 22//74
f 22//75 14//75 20//75
f 12//76 9//76 5//76
f 31//77 23//77 32//77
f 31//78 32//78 30//78
f 22//79 20//79 31//79
f 31//80 20//80 28//80
f 19//81 20//81 13//81
f 13//82 20//82 12//82
