# Blender 4.0.0
# www.blender.org
o Tennis_Racquet_5_Cube.1755_2_collision_2
v 0.008896 0.037209 0.000104
v 0.010491 0.037164 0.000087
v 0.008896 0.037209 -0.000158
v 0.008568 0.037209 0.000204
v 0.010491 0.036935 0.000105
v 0.010711 0.037134 0.000047
v 0.010491 0.037164 -0.000151
v 0.008568 0.037209 -0.000241
v 0.008568 0.036935 0.000210
v 0.010215 0.034740 0.000181
v 0.001708 0.037209 0.000205
v 0.010713 0.036055 0.000049
v 0.010711 0.037134 -0.000112
v 0.010491 0.036935 -0.000159
v 0.008568 0.036935 -0.000250
v 0.001708 0.036935 -0.000250
v 0.001708 0.037209 -0.000241
v 0.007471 0.034740 0.000211
v 0.008568 0.034740 0.000210
v 0.001708 0.036935 0.000210
v 0.009941 0.032545 0.000177
v 0.010215 0.033643 0.000152
v 0.010713 0.035899 0.000049
v 0.008568 0.032545 0.000210
v -0.005976 0.037209 0.000204
v -0.005976 0.036935 0.000210
v 0.010713 0.036055 -0.000117
v 0.010713 0.035899 -0.000117
v 0.010491 0.035861 -0.000159
v 0.010215 0.034740 -0.000184
v 0.008568 0.036112 -0.000250
v 0.001708 0.036112 -0.000250
v -0.007347 0.034740 -0.000251
v -0.005976 0.036935 -0.000250
v -0.005976 0.037209 -0.000241
v 0.007471 0.032545 0.000210
v 0.004178 0.034740 0.000211
v 0.001708 0.033643 0.000211
v -0.004877 0.034740 0.000211
v 0.010112 0.032384 0.000030
v 0.010139 0.032545 0.000072
v 0.010392 0.033460 0.000042
v 0.008568 0.031793 0.000198
v 0.010394 0.033643 0.000056
v -0.008170 0.037209 0.000184
v -0.008170 0.036935 0.000193
v -0.008170 0.034740 0.000210
v 0.010392 0.033460 -0.000101
v 0.010215 0.033643 -0.000172
v 0.009941 0.032545 -0.000183
v 0.008568 0.033643 -0.000245
v 0.007471 0.032545 -0.000247
v 0.006098 0.032545 -0.000250
v 0.005275 0.032545 -0.000250
v 0.003081 0.032545 -0.000250
v 0.003081 0.034740 -0.000251
v -0.007347 0.032545 -0.000251
v -0.008170 0.034740 -0.000251
v -0.008170 0.036935 -0.000240
v -0.008170 0.037209 -0.000233
v 0.004178 0.032545 0.000210
v 0.001708 0.031793 0.000199
v -0.004877 0.032545 0.000210
v -0.005976 0.033643 0.000210
v 0.010112 0.032384 -0.000073
v 0.008826 0.031793 0.000098
v -0.008499 0.037209 0.000108
v -0.010093 0.037164 0.000087
v -0.010093 0.036935 0.000105
v -0.008446 0.036935 0.000186
v -0.009817 0.034740 0.000181
v -0.008446 0.034740 0.000206
v -0.008170 0.032545 0.000209
v 0.010139 0.032545 -0.000109
v 0.008568 0.031793 -0.000226
v 0.008568 0.032545 -0.000238
v 0.001708 0.031793 -0.000227
v -0.005976 0.031793 -0.000226
v -0.008170 0.032545 -0.000250
v -0.008446 0.032545 -0.000242
v -0.008446 0.034740 -0.000242
v -0.008446 0.036935 -0.000234
v -0.010093 0.037164 -0.000151
v -0.008499 0.037209 -0.000172
v -0.005976 0.031793 0.000199
v 0.008778 0.031793 -0.000166
v -0.010313 0.037134 0.000047
v -0.010093 0.034740 0.000172
v -0.009543 0.032545 0.000177
v -0.008446 0.032545 0.000205
v -0.008170 0.031793 0.000170
v -0.008170 0.031793 -0.000217
v -0.009543 0.032545 -0.000183
v -0.010093 0.034740 -0.000177
v -0.010093 0.036935 -0.000159
v -0.010313 0.037134 -0.000112
v -0.010315 0.036055 0.000049
v -0.010315 0.035899 0.000049
v -0.010270 0.034740 0.000064
v -0.009817 0.032545 0.000111
v -0.008444 0.031793 0.000107
v -0.009817 0.032545 -0.000136
v -0.010270 0.034740 -0.000102
v -0.010315 0.035899 -0.000117
v -0.010315 0.036055 -0.000117
v -0.009817 0.032386 0.000026
v -0.008444 0.031793 -0.000171
v -0.009959 0.032403 -0.000043
v -0.009967 0.032545 -0.000061
v -0.010251 0.034580 -0.000072
vn 0.0279 0.9996 -0.0000
vn -0.0000 1.0000 -0.0000
vn -0.0000 1.0000 -0.0001
vn -0.0000 1.0000 0.0002
vn -0.0000 1.0000 -0.0002
vn -0.0000 1.0000 0.0001
vn 0.0288 0.9951 0.0941
vn 0.1906 0.0776 0.9786
vn 0.1359 0.9907 -0.0000
vn 0.0622 0.0789 0.9949
vn 0.0282 0.9934 -0.1110
vn 0.0446 0.0203 0.9988
vn 0.0551 0.0273 0.9981
vn 0.0001 0.0203 0.9998
vn 0.2530 0.0014 0.9675
vn 0.2556 0.0021 0.9668
vn 1.0000 0.0019 -0.0000
vn 0.1785 0.0328 -0.9834
vn 0.0473 0.0333 -0.9983
vn 0.0472 0.0340 -0.9983
vn -0.0000 0.0341 -0.9994
vn -0.0000 0.0342 -0.9994
vn 0.0004 0.0004 1.0000
vn 0.0181 0.0004 0.9998
vn 0.0001 0.0197 0.9998
vn 0.0001 0.0005 1.0000
vn 0.1936 -0.0256 0.9808
vn 0.3099 -0.0248 0.9505
vn 0.2564 -0.0000 0.9666
vn 0.0181 -0.0004 0.9998
vn 0.0235 -0.0044 0.9997
vn -0.0000 0.0198 0.9998
vn -0.0000 0.0197 0.9998
vn 1.0000 -0.0000 -0.0000
vn 0.2029 0.0048 -0.9792
vn 0.1847 -0.0000 -0.9828
vn 0.1831 -0.0003 -0.9831
vn 0.0929 -0.0003 -0.9957
vn 0.0473 0.0054 -0.9989
vn 0.0405 0.0003 -0.9992
vn -0.0000 0.0003 -1.0000
vn -0.0000 0.0004 -1.0000
vn 0.0004 -0.0004 1.0000
vn -0.0000 0.0003 1.0000
vn -0.0000 -0.0003 1.0000
vn -0.0000 -0.0004 1.0000
vn -0.0000 0.0004 1.0000
vn 0.4516 -0.2916 0.8432
vn 0.4697 -0.1013 0.8770
vn 0.4556 -0.0931 0.8853
vn 0.0235 -0.0153 0.9996
vn 0.2728 -0.4754 0.8364
vn 0.4699 -0.0757 0.8794
vn 0.4703 -0.0635 0.8802
vn 0.5383 -0.0732 0.8395
vn 0.9914 -0.1305 -0.0000
vn 0.0004 -0.0153 0.9999
vn -0.0093 0.0314 0.9995
vn -0.0078 0.0198 0.9998
vn -0.0078 0.0080 0.9999
vn -0.0002 0.0004 1.0000
vn 0.3287 -0.0497 -0.9431
vn 0.1859 -0.0172 -0.9824
vn 0.1350 -0.0108 -0.9908
vn 0.0833 -0.0109 -0.9965
vn 0.0407 -0.0056 -0.9992
vn 0.0384 -0.0022 -0.9993
vn 0.0046 -0.0022 -1.0000
vn 0.0016 -0.0013 -1.0000
vn 0.0003 -0.0004 -1.0000
vn 0.0003 -0.0003 -1.0000
vn 0.0001 -0.0001 -1.0000
vn -0.0002 -0.0001 -1.0000
vn -0.0002 0.0005 -1.0000
vn -0.0000 -0.0001 -1.0000
vn -0.0047 0.0050 -1.0000
vn -0.0047 0.0259 -0.9997
vn -0.0037 0.0342 -0.9994
vn -0.0000 -0.0145 0.9999
vn 0.0002 -0.0156 0.9999
vn -0.0002 -0.0003 1.0000
vn -0.0001 -0.0004 1.0000
vn 0.9678 -0.2519 -0.0000
vn 0.9073 -0.2398 0.3454
vn 0.3001 -0.5663 0.7676
vn -0.4128 0.9078 0.0743
vn -0.4049 0.9144 -0.0000
vn -0.0000 1.0000 -0.0003
vn -0.0294 0.9914 0.1275
vn -0.0520 0.0790 0.9955
vn -0.0491 0.0584 0.9971
vn -0.0223 0.0314 0.9993
vn -0.0223 0.0113 0.9997
vn -0.0182 0.0082 0.9998
vn -0.0171 0.0080 0.9998
vn -0.0171 -0.0004 0.9999
vn -0.0002 -0.0004 1.0000
vn 0.8759 -0.2387 -0.4194
vn 0.3502 -0.0888 -0.9324
vn 0.3114 -0.0682 -0.9478
vn 0.3398 -0.2567 -0.9048
vn 0.2307 -0.3696 -0.9001
vn 0.0404 -0.0159 -0.9991
vn 0.0404 -0.0060 -0.9992
vn 0.0084 -0.0060 -0.9999
vn 0.0084 -0.0159 -0.9998
vn 0.0016 -0.0258 -0.9997
vn 0.0003 -0.0300 -0.9995
vn 0.0003 -0.0303 -0.9995
vn 0.0001 -0.0319 -0.9995
vn -0.0000 -0.0318 -0.9995
vn -0.0003 -0.0326 -0.9995
vn -0.0003 -0.0002 -1.0000
vn -0.0000 -0.0321 -0.9995
vn -0.0300 -0.0002 -0.9996
vn -0.0303 -0.0001 -0.9995
vn -0.0303 0.0039 -0.9995
vn -0.0213 0.0050 -0.9998
vn -0.0213 0.0259 -0.9994
vn -0.0434 0.0482 -0.9979
vn -0.0297 0.9864 -0.1618
vn -0.0000 -0.0144 0.9999
vn -0.0001 -0.0149 0.9999
vn -0.0002 -0.0147 0.9999
vn 0.2506 -0.4300 -0.8674
vn -0.0279 0.9996 -0.0000
vn -0.1359 0.9907 -0.0000
vn -0.1906 0.0776 0.9786
vn -0.2325 0.0294 0.9722
vn -0.0492 0.0302 0.9983
vn -0.0324 0.0176 0.9993
vn -0.0324 -0.0055 0.9995
vn -0.0248 -0.0046 0.9997
vn -0.0182 -0.0004 0.9998
vn -0.0177 -0.0004 0.9998
vn -0.0177 -0.0520 0.9985
vn -0.0129 -0.0520 0.9986
vn -0.0043 -0.0444 -0.9990
vn -0.0299 -0.0444 -0.9986
vn -0.0539 -0.0532 -0.9971
vn -0.0540 -0.0108 -0.9985
vn -0.0398 -0.0001 -0.9992
vn -0.0398 0.0039 -0.9992
vn -0.0455 0.0081 -0.9989
vn -0.0455 0.0333 -0.9984
vn -0.1785 0.0328 -0.9834
vn -1.0000 0.0019 -0.0000
vn -0.4738 0.0024 0.8806
vn -0.4846 -0.0000 0.8747
vn -0.5190 -0.0087 0.8547
vn -0.5170 -0.0886 0.8514
vn -0.2359 -0.0566 0.9701
vn -0.2166 -0.4003 0.8904
vn -0.2080 -0.3884 0.8977
vn -0.0248 -0.0546 0.9982
vn -0.1697 -0.0398 -0.9847
vn 0.1642 0.2567 0.9524
vn -0.3884 -0.0660 -0.9191
vn -0.3891 -0.0272 -0.9208
vn -0.2592 -0.0000 -0.9658
vn -0.2326 0.0048 -0.9726
vn -0.2001 0.0080 -0.9797
vn -1.0000 -0.0000 -0.0000
vn -0.9992 -0.0391 -0.0000
vn -0.9909 -0.1327 0.0213
vn -0.9131 -0.1033 -0.3945
vn 0.7459 0.1401 -0.6511
vn -0.9934 -0.1149 -0.0000
vn 0.7527 -0.0402 -0.6571
vn -0.4363 -0.4241 0.7936
vn -0.2475 -0.4567 0.8545
vn -0.3573 -0.7520 0.5539
vn -0.3731 -0.9278 -0.0000
vn 0.1607 0.2488 0.9551
vn -0.4388 -0.1387 -0.8878
vn -0.4417 -0.0774 -0.8938
vn -0.2229 -0.3650 -0.9039
vn -0.8011 -0.1212 -0.5861
vn -0.9854 -0.1337 -0.1057
vn -0.4172 0.9088 -0.0000
vn 0.0003 -0.0302 -0.9995
vn -0.4080 0.9100 0.0734
vn 0.1606 0.2502 0.9548
vn 0.1642 0.2554 0.9528
vn 0.6705 0.1228 -0.7317
s 0
f 1//1 2//1 7//1
f 1//1 7//1 3//1
f 1//2 3//2 8//2
f 1//2 8//2 17//2
f 1//2 17//2 35//2
f 1//3 35//3 60//3
f 1//4 60//4 84//4
f 1//2 84//2 67//2
f 1//5 67//5 45//5
f 1//6 45//6 25//6
f 1//2 25//2 11//2
f 1//2 11//2 4//2
f 1//7 4//7 2//7
f 2//8 5//8 6//8
f 2//9 6//9 13//9
f 2//9 13//9 7//9
f 2//10 4//10 5//10
f 3//11 7//11 8//11
f 4//12 9//12 10//12
f 4//13 10//13 5//13
f 4//14 11//14 9//14
f 5//15 10//15 12//15
f 5//16 12//16 6//16
f 6//17 12//17 27//17
f 6//17 27//17 13//17
f 7//18 13//18 14//18
f 7//19 14//19 15//19
f 7//20 15//20 8//20
f 8//21 15//21 16//21
f 8//22 16//22 17//22
f 9//23 18//23 19//23
f 9//24 19//24 10//24
f 9//25 11//25 20//25
f 9//26 20//26 18//26
f 10//27 21//27 22//27
f 10//28 22//28 23//28
f 10//29 23//29 12//29
f 10//30 19//30 24//30
f 10//31 24//31 21//31
f 11//32 25//32 26//32
f 11//33 26//33 20//33
f 12//34 23//34 28//34
f 12//34 28//34 27//34
f 13//35 27//35 14//35
f 14//36 27//36 28//36
f 14//37 28//37 29//37
f 14//38 29//38 30//38
f 14//39 30//39 15//39
f 15//40 30//40 31//40
f 15//41 31//41 32//41
f 15//41 32//41 16//41
f 16//41 32//41 33//41
f 16//42 33//42 34//42
f 16//22 34//22 35//22
f 16//22 35//22 17//22
f 18//43 36//43 19//43
f 18//44 20//44 37//44
f 18//45 37//45 38//45
f 18//46 38//46 36//46
f 19//43 36//43 24//43
f 20//47 26//47 39//47
f 20//44 39//44 37//44
f 21//48 40//48 41//48
f 21//49 41//49 42//49
f 21//50 42//50 22//50
f 21//51 24//51 43//51
f 21//52 43//52 40//52
f 22//53 42//53 44//53
f 22//54 44//54 23//54
f 23//55 44//55 42//55
f 23//56 42//56 48//56
f 23//56 48//56 28//56
f 24//57 36//57 43//57
f 25//58 45//58 46//58
f 25//59 46//59 26//59
f 26//60 46//60 47//60
f 26//61 47//61 39//61
f 28//62 48//62 49//62
f 28//63 49//63 29//63
f 29//64 49//64 30//64
f 30//65 49//65 50//65
f 30//66 50//66 51//66
f 30//67 51//67 31//67
f 31//68 51//68 52//68
f 31//69 52//69 53//69
f 31//70 53//70 54//70
f 31//71 54//71 55//71
f 31//72 55//72 56//72
f 31//41 56//41 32//41
f 32//41 56//41 33//41
f 33//73 57//73 58//73
f 33//74 58//74 34//74
f 33//75 56//75 55//75
f 33//75 55//75 57//75
f 34//76 58//76 59//76
f 34//77 59//77 60//77
f 34//78 60//78 35//78
f 36//46 38//46 61//46
f 36//79 61//79 62//79
f 36//80 62//80 43//80
f 37//45 39//45 38//45
f 38//46 39//46 63//46
f 38//46 63//46 61//46
f 39//81 47//81 64//81
f 39//82 64//82 63//82
f 40//83 65//83 48//83
f 40//83 48//83 42//83
f 40//84 42//84 41//84
f 40//85 43//85 66//85
f 40//86 86//86 66//86
f 40//87 65//87 86//87
f 43//2 85//2 62//2
f 43//88 91//88 85//88
f 43//6 101//6 91//6
f 43//2 107//2 101//2
f 43//3 92//3 107//3
f 43//6 78//6 92//6
f 43//2 77//2 78//2
f 43//2 75//2 77//2
f 43//2 86//2 75//2
f 43//2 66//2 86//2
f 45//89 67//89 68//89
f 45//90 68//90 69//90
f 45//91 69//91 70//91
f 45//92 70//92 46//92
f 46//93 70//93 71//93
f 46//94 71//94 72//94
f 46//95 72//95 47//95
f 47//96 72//96 73//96
f 47//97 73//97 64//97
f 48//98 65//98 74//98
f 48//99 74//99 50//99
f 48//100 50//100 49//100
f 50//101 74//101 65//101
f 50//102 65//102 75//102
f 50//103 75//103 76//103
f 50//104 76//104 51//104
f 51//105 76//105 52//105
f 52//106 76//106 75//106
f 52//107 75//107 53//107
f 53//108 75//108 54//108
f 54//109 75//109 55//109
f 55//110 75//110 77//110
f 55//111 77//111 57//111
f 57//112 78//112 79//112
f 57//113 79//113 58//113
f 57//114 77//114 78//114
f 58//115 79//115 80//115
f 58//116 80//116 81//116
f 58//117 81//117 82//117
f 58//118 82//118 59//118
f 59//119 82//119 60//119
f 60//120 82//120 83//120
f 60//121 83//121 84//121
f 61//122 63//122 62//122
f 62//123 63//123 85//123
f 63//97 64//97 73//97
f 63//124 73//124 85//124
f 65//125 86//125 75//125
f 67//126 84//126 83//126
f 67//126 83//126 68//126
f 68//127 83//127 96//127
f 68//127 96//127 87//127
f 68//128 87//128 69//128
f 69//129 87//129 88//129
f 69//130 88//130 70//130
f 70//131 88//131 71//131
f 71//132 88//132 89//132
f 71//133 89//133 90//133
f 71//134 90//134 72//134
f 72//135 90//135 73//135
f 73//136 90//136 91//136
f 73//137 91//137 85//137
f 78//138 92//138 79//138
f 79//139 92//139 80//139
f 80//140 92//140 93//140
f 80//141 93//141 94//141
f 80//142 94//142 81//142
f 81//143 94//143 82//143
f 82//144 94//144 95//144
f 82//145 95//145 83//145
f 83//146 95//146 96//146
f 87//147 96//147 105//147
f 87//147 105//147 97//147
f 87//148 97//148 88//148
f 88//149 97//149 98//149
f 88//150 98//150 99//150
f 88//151 99//151 100//151
f 88//152 100//152 89//152
f 89//153 100//153 101//153
f 89//154 101//154 91//154
f 89//155 91//155 90//155
f 93//156 102//156 94//156
f 93//157 102//157 92//157
f 94//158 102//158 103//158
f 94//159 103//159 104//159
f 94//160 104//160 105//160
f 94//161 105//161 96//161
f 94//162 96//162 95//162
f 97//163 105//163 104//163
f 97//163 104//163 98//163
f 98//164 104//164 103//164
f 98//164 103//164 99//164
f 99//165 110//165 108//165
f 99//166 109//166 108//166
f 99//167 100//167 109//167
f 99//168 103//168 110//168
f 100//169 108//169 109//169
f 100//170 108//170 106//170
f 100//171 106//171 101//171
f 101//172 106//172 108//172
f 101//173 108//173 107//173
f 92//174 102//174 107//174
f 102//175 108//175 109//175
f 102//176 109//176 103//176
f 102//177 107//177 108//177
f 103//178 109//178 108//178
f 103//179 108//179 110//179
f 2//1 7//1 3//1
f 2//1 3//1 1//1
f 3//2 8//2 17//2
f 3//2 17//2 35//2
f 3//5 35//5 60//5
f 3//4 60//4 84//4
f 3//2 84//2 67//2
f 3//5 67//5 45//5
f 3//6 45//6 25//6
f 3//2 25//2 11//2
f 3//2 11//2 4//2
f 3//2 4//2 1//2
f 6//9 13//9 7//9
f 6//9 7//9 2//9
f 12//17 27//17 13//17
f 12//17 13//17 6//17
f 23//34 28//34 27//34
f 23//34 27//34 12//34
f 31//41 56//41 15//41
f 56//41 16//41 15//41
f 56//41 33//41 16//41
f 42//56 48//56 28//56
f 42//56 28//56 23//56
f 53//71 55//71 31//71
f 66//180 40//180 65//180
f 65//83 48//83 42//83
f 65//83 42//83 40//83
f 62//2 91//2 85//2
f 62//2 101//2 91//2
f 62//2 107//2 101//2
f 62//2 92//2 107//2
f 62//2 78//2 92//2
f 62//2 77//2 78//2
f 62//2 75//2 77//2
f 62//2 86//2 75//2
f 62//2 66//2 86//2
f 62//2 43//2 66//2
f 75//181 55//181 53//181
f 84//126 83//126 68//126
f 84//126 68//126 67//126
f 83//127 96//127 87//127
f 83//127 87//127 68//127
f 86//182 66//182 65//182
f 96//147 105//147 97//147
f 96//147 97//147 87//147
f 107//183 92//183 93//183
f 107//184 93//184 102//184
f 105//163 104//163 98//163
f 105//163 98//163 97//163
f 104//164 103//164 99//164
f 104//164 99//164 98//164
f 108//185 99//185 100//185
