# Blender 4.0.0
# www.blender.org
o decimated_mesh
v 0.001480 -0.000690 0.000081
v 0.001452 0.011493 0.000002
v 0.001419 0.011609 -0.000003
v 0.001294 0.011495 -0.000000
v 0.000957 0.011611 -0.000997
v 0.001324 -0.000690 0.000068
v 0.001484 -0.000690 -0.000094
v 0.000986 -0.000690 -0.000972
v 0.001386 0.011579 -0.000278
v 0.001103 0.011589 -0.001090
v 0.000959 0.011605 -0.001117
v 0.000986 -0.000690 -0.001191
v 0.000957 0.011488 -0.001161
v 0.000958 0.003041 -0.001171
v 0.001137 -0.000690 -0.001103
vn 0.0010 -1.0000 0.0011
vn -0.9949 -0.0021 0.1011
vn -0.4896 0.0010 -0.8720
vn 0.4639 0.8730 -0.1508
vn -0.6397 0.7083 0.2984
vn 0.9509 0.0006 -0.3094
vn 0.2126 0.3437 -0.9147
vn -0.0176 0.0064 0.9998
vn -0.0000 -1.0000 -0.0000
vn 0.0001 -1.0000 -0.0000
vn 0.5032 0.0023 -0.8642
vn 0.9530 0.2674 -0.1426
vn -0.9996 0.0219 -0.0170
vn -1.0000 -0.0076 -0.0007
vn -1.0000 -0.0000 -0.0005
vn -0.8856 0.3431 0.3132
vn -0.9527 -0.0049 0.3040
vn -0.9455 -0.0030 0.3255
vn 0.1169 0.9918 -0.0522
vn 0.1170 0.9918 -0.0519
vn 0.9997 0.0024 0.0230
vn 0.9474 0.0015 -0.3199
vn -0.0787 0.0054 0.9969
vn -0.0171 0.0382 0.9991
vn 0.4403 0.0032 -0.8978
vn 0.9474 0.0005 -0.3200
vn 0.9509 0.0016 -0.3094
vn 0.9455 0.0027 -0.3255
vn 0.9737 0.0044 -0.2278
vn 0.9442 0.0030 -0.3293
s 0
f 7//1 1//1 6//1
f 8//2 5//2 14//2
f 14//3 13//3 12//3
f 10//4 3//4 9//4
f 4//5 3//5 5//5
f 4//6 6//6 8//6
f 13//7 11//7 10//7
f 1//8 2//8 4//8
f 6//9 8//9 7//9
f 8//10 12//10 15//10
f 7//9 8//9 15//9
f 12//11 10//11 15//11
f 9//12 3//12 2//12
f 5//13 11//13 13//13
f 14//14 12//14 8//14
f 13//15 14//15 5//15
f 9//16 10//16 2//16
f 2//17 10//17 7//17
f 7//18 10//18 15//18
f 3//19 10//19 5//19
f 10//20 11//20 5//20
f 2//21 1//21 7//21
f 4//22 8//22 5//22
f 4//23 6//23 1//23
f 3//24 4//24 2//24
f 12//25 13//25 10//25
f 4//26 6//26 5//26
f 5//27 6//27 8//27
f 8//9 12//9 7//9
f 12//10 15//10 7//10
f 15//28 9//28 7//28
f 9//29 2//29 7//29
f 10//30 9//30 15//30
