# Blender 4.0.0
# www.blender.org
o decimated_mesh
v -0.001081 -0.003482 -0.001409
v -0.001081 -0.003482 -0.001175
v -0.001081 -0.003365 -0.001433
v -0.000767 -0.003443 -0.001532
v 0.000077 -0.003482 -0.001542
v -0.001081 -0.002316 -0.001020
v -0.000308 -0.003443 -0.001686
v 0.000077 -0.003482 -0.001734
v -0.000980 -0.001834 -0.001010
v -0.000980 -0.000691 -0.000980
v -0.001081 -0.002316 -0.001260
v -0.001081 -0.003212 -0.001438
v -0.000077 -0.003365 -0.001761
v -0.000087 -0.003482 -0.001734
v 0.000077 -0.003366 -0.001761
v 0.000073 -0.000691 -0.001324
v 0.000073 -0.001834 -0.001351
v -0.000980 -0.000691 -0.001194
v -0.001081 -0.002799 -0.001387
v -0.001081 -0.003059 -0.001431
v -0.000077 -0.003212 -0.001766
v -0.000077 -0.003059 -0.001760
v 0.000073 -0.000691 -0.001485
v -0.001081 -0.002914 -0.001412
v 0.000077 -0.003059 -0.001760
v -0.000077 -0.000691 -0.001485
vn -0.0222 -0.9974 -0.0679
vn -1.0000 -0.0009 -0.0042
vn -0.3393 -0.1867 -0.9220
vn 0.0160 0.0040 -0.9999
vn -0.0197 0.0260 -0.9995
vn -0.2878 -0.4146 -0.8633
vn -0.3086 0.1115 -0.9446
vn -0.9312 0.0774 -0.3562
vn -0.0000 0.1153 -0.9933
vn -0.3076 0.1045 -0.9458
vn -0.3109 -0.0278 -0.9500
vn -0.0002 -0.2257 -0.9742
vn -0.0000 1.0000 -0.0000
vn -0.9607 0.0707 -0.2683
vn -0.3093 0.0233 -0.9507
vn -0.9995 0.0327 -0.0000
vn -0.5910 0.1055 -0.7997
vn -0.2439 -0.1989 -0.9492
vn -1.0000 -0.0000 -0.0000
vn -0.2694 -0.4989 -0.8237
vn -0.0000 -1.0000 -0.0000
vn -0.2996 0.1256 -0.9458
vn -0.3138 -0.0347 -0.9489
vn -0.3157 -0.0597 -0.9470
vn -0.3098 -0.0194 -0.9506
vn -0.3031 -0.0268 -0.9526
vn -0.0004 -0.2255 -0.9743
vn -0.0000 -0.2260 -0.9741
vn 1.0000 -0.0000 -0.0000
vn 1.0000 0.0011 0.0022
vn 0.9997 -0.0005 0.0236
vn -0.3153 0.1086 -0.9428
vn -0.3069 0.0850 -0.9479
vn -0.9981 0.0621 -0.0000
vn -0.3108 0.0434 -0.9495
vn -0.3097 0.0344 -0.9502
vn -0.0001 -0.0281 -0.9996
vn -0.0000 0.0362 -0.9993
vn 0.0321 0.0040 -0.9995
vn 1.0000 0.0015 -0.0000
vn -0.3106 0.0219 -0.9503
vn -0.3079 0.0247 -0.9511
vn -0.3093 0.1081 -0.9448
vn -0.3053 0.1098 -0.9459
s 0
f 14//1 8//1 5//1 2//1 1//1 7//1
f 23//2 25//2 15//2 8//2 5//2 17//2 16//2
f 1//3 3//3 4//3
f 25//4 15//4 13//4 21//4 22//4
f 9//5 6//5 10//5
f 1//6 4//6 7//6
f 5//7 2//7 6//7 9//7 17//7
f 19//8 18//8 24//8
f 23//9 25//9 22//9 26//9
f 26//10 22//10 21//10 12//10 20//10 18//10
f 13//11 7//11 4//11 3//11 12//11 21//11
f 13//12 15//12 8//12 14//12
f 23//13 26//13 18//13 10//13 16//13
f 11//14 18//14 19//14
f 9//15 10//15 16//15 17//15
f 12//16 3//16 1//16 2//16 6//16 10//16 18//16 11//16 19//16 24//16 20//16
f 18//17 20//17 24//17
f 7//18 13//18 14//18
f 2//19 6//19 11//19
f 2//19 11//19 19//19
f 2//19 19//19 24//19
f 2//19 24//19 20//19
f 2//19 20//19 12//19
f 2//19 12//19 3//19
f 2//19 3//19 1//19
f 7//20 14//20 1//20
f 14//21 8//21 5//21
f 14//21 5//21 2//21
f 14//21 2//21 1//21
f 5//22 2//22 6//22
f 12//23 7//23 3//23
f 7//24 4//24 3//24
f 12//25 21//25 7//25
f 21//26 13//26 7//26
f 13//27 15//27 14//27
f 15//28 8//28 14//28
f 8//29 15//29 25//29
f 8//29 25//29 5//29
f 25//30 16//30 5//30
f 16//31 17//31 5//31
f 17//32 5//32 6//32
f 17//33 6//33 9//33
f 10//34 18//34 11//34
f 10//34 11//34 6//34
f 20//35 22//35 12//35
f 22//36 21//36 12//36
f 15//37 13//37 21//37
f 22//38 25//38 21//38
f 25//39 15//39 21//39
f 22//9 26//9 23//9
f 22//9 23//9 25//9
f 23//40 16//40 25//40
f 23//21 18//21 26//21
f 23//21 10//21 18//21
f 23//21 16//21 10//21
f 10//41 16//41 17//41
f 10//42 17//42 9//42
f 18//43 22//43 20//43
f 18//44 26//44 22//44
