# Blender 4.0.0
# www.blender.org
o decimated_mesh
v -0.000970 -0.000691 -0.001196
v -0.000978 0.002891 -0.000947
v -0.000967 -0.000691 -0.000987
v 0.000000 -0.000691 -0.001324
v -0.000009 -0.000691 -0.001495
v -0.000979 0.011570 -0.001150
v -0.000979 0.011494 -0.000921
v 0.000000 0.003040 -0.001463
v -0.000073 0.011590 -0.001438
v -0.000076 0.011494 -0.001294
v -0.000080 0.011604 -0.001320
v -0.000979 0.011613 -0.001001
vn -1.0000 -0.0001 -0.0021
vn -0.0000 -1.0000 -0.0000
vn 0.3292 -0.0096 0.9442
vn 0.4416 0.0064 -0.8972
vn 0.3713 0.2270 0.9003
vn 0.2880 0.5319 0.7963
vn -0.0586 0.9916 -0.1151
vn 0.9978 0.0470 0.0478
vn -0.3032 0.0028 -0.9529
vn -1.0000 -0.0018 -0.0027
vn -0.9997 -0.0007 -0.0258
vn -0.9999 -0.0034 0.0140
vn -0.0000 -1.0000 0.0002
vn -0.3598 0.0001 -0.9330
vn -0.3813 0.0027 -0.9245
vn -0.0877 0.9573 -0.2756
vn 0.9879 0.0058 0.1549
vn 0.9985 -0.0020 -0.0546
vn 0.9997 0.0085 0.0220
vn -0.2966 0.0034 -0.9550
vn -1.0000 -0.0001 -0.0002
vn -0.3513 0.0027 -0.9362
vn -0.3813 -0.0001 -0.9245
vn -0.0299 0.9931 -0.1137
vn -0.1087 0.9552 -0.2751
vn -1.0000 -0.0001 -0.0031
vn -0.0001 -1.0000 -0.0000
vn -0.2966 0.0029 -0.9550
vn -0.3032 0.0034 -0.9529
vn 0.0001 -1.0000 0.0002
s 0
f 2//1 7//1 6//1
f 5//2 4//2 1//2
f 2//3 3//3 4//3
f 5//4 9//4 8//4
f 7//5 10//5 11//5
f 7//6 11//6 12//6
f 6//7 11//7 9//7
f 9//8 11//8 10//8
f 9//9 5//9 6//9
f 7//10 12//10 6//10
f 6//11 1//11 2//11
f 3//12 2//12 1//12
f 4//13 3//13 1//13
f 4//14 2//14 10//14
f 10//15 2//15 7//15
f 6//16 12//16 11//16
f 10//17 4//17 8//17
f 4//18 5//18 8//18
f 8//19 9//19 10//19
f 5//20 1//20 6//20
f 12//21 2//21 7//21
f 2//22 7//22 4//22
f 4//23 7//23 10//23
f 9//24 12//24 11//24
f 9//25 6//25 12//25
f 6//26 2//26 12//26
f 3//27 5//27 4//27
f 5//28 1//28 9//28
f 1//29 6//29 9//29
f 5//30 3//30 1//30
