# Blender 4.0.0
# www.blender.org
o decimated_mesh
v -0.000087 -0.002316 0.001591
v -0.000087 -0.002316 0.001420
v -0.000087 -0.003483 0.001538
v -0.001184 -0.003483 0.001079
v -0.000087 -0.002940 0.001746
v -0.000088 -0.003472 0.001749
v -0.001413 -0.003484 0.001082
v -0.001023 -0.002316 0.001079
v -0.001442 -0.003303 0.001079
v -0.001263 -0.002316 0.001081
v -0.001226 -0.002981 0.001379
v -0.001379 -0.003443 0.001227
v -0.001198 -0.002317 0.001213
v -0.001388 -0.003083 0.001242
v -0.001246 -0.003480 0.001358
v -0.001413 -0.002914 0.001079
v -0.001259 -0.003194 0.001381
vn -0.7036 0.2013 0.6815
vn -0.0000 -0.0000 1.0000
vn -0.3136 0.2295 0.9214
vn -0.9727 0.0730 0.2204
vn -0.9028 0.2245 0.3668
vn -0.5457 -0.7662 0.3394
vn -0.3413 0.0940 0.9352
vn -0.7600 -0.0860 0.6442
vn -0.2990 0.0064 0.9542
vn -0.9326 -0.0396 0.3586
vn 0.0007 -1.0000 -0.0000
vn 0.0015 -1.0000 -0.0040
vn -0.0015 -1.0000 -0.0079
vn -0.6808 0.1074 0.7245
vn -1.0000 -0.0000 -0.0000
vn 1.0000 -0.0018 0.0047
vn -0.0132 -0.0193 -0.9997
vn -0.0004 -0.0001 1.0000
vn -0.0087 0.0057 -0.9999
vn -0.0031 -1.0000 0.0073
vn 0.0045 -0.9999 0.0090
vn -0.0095 -0.9988 0.0489
vn -0.3050 0.2442 0.9205
vn -0.8707 0.2332 0.4330
vn -0.3854 0.0531 0.9212
vn -0.7067 -0.0489 0.7058
vn -0.9533 -0.1503 0.2621
vn -0.3185 -0.0895 0.9437
vn -0.3076 0.0521 0.9501
vn 0.0044 -0.9999 -0.0108
vn -0.0003 -1.0000 -0.0000
vn -0.0014 -1.0000 0.0038
vn 0.0003 -0.0002 1.0000
vn -0.7474 -0.0481 0.6626
vn -0.3125 0.2439 0.9181
vn -0.3056 0.2302 0.9239
vn -0.3843 0.0923 0.9186
vn -0.3425 0.0472 0.9383
vn -0.0002 -0.0000 1.0000
vn -0.7103 -0.0880 0.6984
vn -0.0041 -0.9999 0.0143
vn 0.0043 -0.9999 -0.0102
s 0
f 14//1 11//1 13//1
f 8//2 16//2 4//2
f 13//3 5//3 1//3
f 14//4 16//4 9//4
f 10//5 16//5 14//5
f 7//6 15//6 12//6
f 3//7 2//7 8//7
f 14//8 15//8 17//8
f 17//9 6//9 5//9
f 14//10 9//10 12//10
f 13//11 2//11 1//11
f 2//12 13//12 8//12
f 10//13 8//13 13//13
f 14//14 17//14 11//14
f 3//15 5//15 2//15
f 2//15 5//15 1//15
f 5//16 6//16 3//16
f 7//17 9//17 4//17
f 9//18 4//18 16//18
f 16//19 10//19 8//19
f 4//20 3//20 15//20
f 7//21 4//21 15//21
f 6//22 15//22 3//22
f 13//23 11//23 5//23
f 10//24 14//24 13//24
f 3//25 8//25 4//25
f 14//26 12//26 15//26
f 7//27 12//27 9//27
f 17//28 15//28 6//28
f 11//29 17//29 5//29
f 13//30 10//30 1//30
f 1//31 10//31 2//31
f 2//32 10//32 8//32
f 8//33 16//33 9//33
f 12//34 17//34 14//34
f 11//35 1//35 13//35
f 11//36 5//36 1//36
f 5//15 1//15 3//15
f 3//15 1//15 2//15
f 3//37 2//37 4//37
f 4//38 2//38 8//38
f 4//39 8//39 9//39
f 15//40 17//40 12//40
f 15//41 7//41 3//41
f 7//42 4//42 3//42
