# Blender 4.0.0
# www.blender.org
o decimated_mesh
v 0.001494 -0.000691 -0.000004
v 0.001324 -0.000691 0.000000
v 0.001029 -0.000691 -0.000913
v 0.001019 -0.002253 -0.001066
v 0.001029 -0.000691 -0.001167
v 0.001351 -0.001834 0.000000
v 0.001772 -0.003475 -0.000019
v 0.001138 -0.000691 -0.001101
v 0.001031 -0.002270 -0.001285
v 0.001182 -0.003482 -0.001080
v 0.001542 -0.003482 -0.000000
v 0.001444 -0.003460 -0.001077
vn 0.0313 -0.9995 -0.0104
vn -0.9904 -0.1312 -0.0433
vn 0.0249 -0.1635 -0.9862
vn -1.0000 0.0067 -0.0000
vn -0.9519 -0.0235 0.3054
vn 0.0853 -0.9955 -0.0404
vn -0.0001 -1.0000 -0.0000
vn -0.0002 -1.0000 -0.0000
vn -0.0000 -1.0000 -0.0000
vn 0.9463 0.1018 -0.3068
vn 0.9511 0.0965 -0.2934
vn -0.9410 -0.1288 0.3131
vn -0.9363 -0.1086 0.3340
vn -0.9985 0.0032 -0.0539
vn 0.5136 0.0647 -0.8556
vn 0.5732 0.0562 -0.8175
vn -0.9514 -0.0219 0.3071
vn 0.0399 -0.0012 0.9992
vn 0.0253 0.0006 0.9997
vn 0.0786 0.0087 0.9969
vn 0.0041 0.0001 1.0000
vn 0.0253 0.0017 0.9997
vn 0.0788 0.0027 0.9969
vn -0.0002 -1.0000 0.0001
s 0
f 11//1 10//1 7//1
f 4//2 9//2 10//2
f 9//3 12//3 10//3
f 5//4 4//4 3//4
f 6//5 3//5 4//5
f 12//6 7//6 10//6
f 1//7 3//7 8//7
f 8//8 3//8 5//8
f 3//9 1//9 2//9
f 8//10 1//10 12//10
f 1//11 7//11 12//11
f 10//12 11//12 4//12
f 11//13 6//13 4//13
f 5//14 9//14 4//14
f 5//15 8//15 9//15
f 8//16 12//16 9//16
f 6//17 2//17 3//17
f 7//18 1//18 6//18
f 1//19 2//19 6//19
f 6//20 11//20 7//20
f 6//21 11//21 2//21
f 11//22 1//22 2//22
f 1//9 2//9 5//9
f 5//9 2//9 3//9
f 7//23 1//23 11//23
f 8//24 1//24 5//24
