# Blender 4.0.0
# www.blender.org
o decimated_mesh
v 0.000009 -0.000691 -0.001494
v 0.000000 -0.000691 -0.001324
v 0.000986 -0.000691 -0.000972
v -0.000076 0.011596 -0.001426
v 0.000091 0.011594 -0.001434
v 0.000989 -0.000691 -0.001190
v 0.000957 0.011602 -0.000985
v -0.000076 0.011601 -0.001325
v 0.000955 0.011582 -0.001152
vn -0.0000 -1.0000 0.0001
vn 0.9999 0.0028 -0.0117
vn 0.0539 0.9912 -0.1207
vn 0.3365 -0.0002 -0.9417
vn 0.2965 0.0038 -0.9550
vn -0.9986 -0.0066 -0.0528
vn -0.0000 -1.0000 -0.0000
vn 0.9999 0.0023 0.0145
vn 0.0085 0.9988 -0.0473
vn 0.0126 0.9991 -0.0411
vn -0.0474 0.0052 -0.9989
vn 0.3124 0.0019 -0.9500
vn 0.3105 0.0026 -0.9506
vn -1.0000 -0.0062 -0.0016
vn 0.3365 0.0020 -0.9417
vn 0.3124 -0.0003 -0.9500
vn 0.3105 0.0038 -0.9506
vn 0.2965 0.0027 -0.9550
s 0
f 1//1 6//1 2//1
f 6//2 9//2 7//2
f 7//3 9//3 5//3
f 7//4 3//4 2//4
f 6//5 1//5 9//5
f 4//6 1//6 2//6
f 3//7 2//7 6//7
f 7//8 3//8 6//8
f 4//9 8//9 5//9
f 8//10 7//10 5//10
f 1//11 4//11 5//11
f 7//12 2//12 8//12
f 1//13 5//13 9//13
f 2//14 8//14 4//14
f 2//15 8//15 3//15
f 3//16 8//16 7//16
f 9//17 6//17 5//17
f 6//18 1//18 5//18
f 1//1 3//1 2//1
f 1//7 6//7 3//7
