# Blender 4.0.0
# www.blender.org
o decimated_mesh
v 0.001008 -0.002316 0.001285
v 0.001242 -0.003152 0.001390
v 0.001008 -0.000691 0.001179
v 0.001074 -0.003472 0.001431
v 0.001220 -0.003482 0.001371
v 0.001378 -0.003225 0.001268
v 0.001008 -0.000691 0.000942
v 0.001076 -0.003482 0.001178
v 0.001371 -0.003479 0.001219
v 0.001139 -0.000691 0.001099
v 0.001324 -0.000691 0.000000
v 0.001542 -0.003482 -0.000000
v 0.001493 -0.000691 0.000008
v 0.001744 -0.003483 0.000008
v 0.001751 -0.003424 0.000107
v 0.001009 -0.002335 0.001083
v 0.001777 -0.003233 0.000004
vn 0.7030 -0.1537 0.6944
vn -0.7337 0.0440 0.6781
vn 0.3731 -0.0779 0.9245
vn 0.8187 -0.5152 0.2536
vn -0.0000 -1.0000 -0.0000
vn 0.5211 0.1219 0.8447
vn -0.9477 -0.0278 -0.3179
vn 0.0662 0.0915 0.9936
vn 0.9534 0.0321 0.3001
vn 0.9442 -0.0873 0.3176
vn 0.6953 0.1132 0.7097
vn 0.9915 -0.1298 0.0091
vn 0.0001 1.0000 -0.0000
vn 0.0398 -0.0208 -0.9990
vn 0.0162 0.0015 -0.9999
vn 0.0452 0.0067 -0.9990
vn -0.0494 -0.9980 0.0395
vn -0.0047 -1.0000 -0.0019
vn 0.0108 -0.9999 0.0070
vn 0.0127 -0.9999 -0.0070
vn 0.9487 0.1052 0.2981
vn 0.9453 0.1098 0.3071
vn 0.6385 -0.0859 0.7648
vn -0.9232 -0.0719 -0.3776
vn -0.9267 -0.0841 -0.3663
vn 0.9983 0.0579 -0.0005
vn 0.9983 0.0574 0.0048
vn 1.0000 0.0003 0.0050
vn 1.0000 0.0006 -0.0000
vn 0.9984 0.0568 -0.0004
vn 0.9983 0.0583 0.0048
vn 0.0013 -1.0000 0.0016
vn 0.0340 -0.9993 0.0141
vn 1.0000 -0.0000 -0.0000
vn 1.0000 0.0010 0.0050
s 0
f 5//1 9//1 6//1
f 4//2 3//2 1//2
f 2//3 4//3 5//3
f 15//4 9//4 14//4
f 10//5 7//5 13//5
f 2//6 10//6 3//6
f 16//7 7//7 11//7
f 2//8 3//8 4//8
f 17//9 6//9 15//9
f 6//10 9//10 15//10
f 6//11 10//11 2//11
f 14//12 17//12 15//12
f 11//5 13//5 7//5
f 7//13 3//13 10//13
f 17//14 14//14 12//14
f 12//15 11//15 17//15
f 11//16 13//16 17//16
f 5//17 4//17 8//17
f 8//18 12//18 14//18
f 14//19 9//19 8//19
f 9//20 5//20 8//20
f 17//21 13//21 6//21
f 13//22 10//22 6//22
f 2//23 5//23 6//23
f 11//24 12//24 16//24
f 12//25 8//25 16//25
f 16//26 1//26 8//26
f 8//27 1//27 4//27
f 1//28 16//28 3//28
f 3//29 16//29 7//29
f 1//30 4//30 16//30
f 16//31 4//31 8//31
f 14//32 5//32 8//32
f 14//33 9//33 5//33
f 10//5 11//5 13//5
f 10//5 7//5 11//5
f 7//34 3//34 1//34
f 7//35 1//35 16//35
