# Blender 4.0.0
# www.blender.org
o decimated_mesh
v -0.001324 -0.000691 0.000000
v -0.001495 -0.000691 -0.000004
v -0.000980 -0.000691 -0.000980
v -0.001776 -0.003231 -0.000004
v -0.001351 -0.001834 0.000000
v -0.000980 -0.001948 -0.001019
v -0.000980 -0.000691 -0.001193
v -0.001131 -0.000691 -0.001111
v -0.000980 -0.002316 -0.001294
v -0.001268 -0.003225 -0.001379
v -0.001542 -0.003482 -0.000000
v -0.001081 -0.003482 -0.001175
v -0.001080 -0.003472 -0.001430
v -0.001757 -0.003477 -0.000016
v -0.001215 -0.003480 -0.001374
v -0.001390 -0.003155 -0.001243
v -0.001368 -0.003480 -0.001224
vn -0.0000 -1.0000 -0.0000
vn -0.6892 -0.1581 -0.7071
vn -0.7652 -0.0865 -0.6380
vn -0.9432 0.0217 -0.3315
vn -0.9264 0.0980 -0.3636
vn -0.0143 0.0016 0.9999
vn -0.9519 -0.0596 -0.3004
vn 1.0000 -0.0000 -0.0000
vn 0.5375 0.0524 -0.8416
vn -0.3776 -0.0985 -0.9207
vn 0.0001 -1.0000 -0.0000
vn -0.9512 0.1053 -0.2902
vn -0.9436 0.1157 -0.3102
vn -0.9393 0.0106 -0.3430
vn -0.9303 0.1080 -0.3507
vn -0.0057 -1.0000 -0.0061
vn 0.0467 -0.9980 -0.0416
vn -0.0229 -0.9997 -0.0090
vn -0.0068 -1.0000 0.0004
vn -0.0757 -0.0568 0.9955
vn -0.0133 0.0013 0.9999
vn -0.0228 0.0005 0.9997
vn -0.9491 -0.0794 -0.3048
vn 0.9920 -0.0756 0.1008
vn 0.9963 -0.0862 0.0006
vn -0.7128 0.1120 -0.6924
vn -0.4760 0.1181 -0.8715
vn -0.1490 0.0892 -0.9848
vn -0.0228 0.0025 0.9997
vn -0.0137 0.0009 0.9999
vn -0.0027 0.0001 1.0000
vn -0.9387 0.0216 -0.3440
vn -0.9434 0.0103 -0.3316
vn -0.9255 0.1074 -0.3632
vn -0.0232 -0.9997 -0.0049
vn -0.0063 -1.0000 -0.0025
vn -0.9317 0.0969 -0.3499
s 0
f 1//1 8//1 3//1
f 10//2 15//2 17//2
f 16//3 10//3 17//3
f 5//4 1//4 3//4
f 6//5 12//5 11//5
f 2//6 4//6 5//6
f 14//7 4//7 16//7
f 9//8 7//8 6//8
f 9//9 13//9 7//9
f 10//10 13//10 15//10
f 7//11 3//11 8//11
f 8//11 1//11 2//11
f 4//12 2//12 16//12
f 2//13 8//13 16//13
f 5//14 3//14 6//14
f 6//15 11//15 5//15
f 17//16 15//16 12//16
f 15//17 13//17 12//17
f 12//18 11//18 14//18
f 14//19 17//19 12//19
f 14//20 11//20 4//20
f 11//21 5//21 4//21
f 5//22 1//22 2//22
f 16//23 17//23 14//23
f 7//8 3//8 6//8
f 6//24 12//24 9//24
f 12//25 13//25 9//25
f 16//26 8//26 10//26
f 8//27 7//27 10//27
f 7//28 13//28 10//28
f 3//1 1//1 7//1
f 7//11 1//11 2//11
f 2//29 4//29 1//29
f 4//30 11//30 1//30
f 11//31 5//31 1//31
f 5//32 1//32 6//32
f 6//33 1//33 3//33
f 8//11 7//11 2//11
f 12//34 11//34 5//34
f 14//35 17//35 11//35
f 17//36 12//36 11//36
f 12//37 5//37 6//37
