# Blender 4.0.0
# www.blender.org
o decimated_mesh
v -0.001187 -0.000691 0.000992
v -0.001319 0.011601 -0.000002
v -0.000950 0.011494 0.000962
v -0.001007 0.011611 0.000962
v -0.001150 0.011582 0.000960
v -0.001419 0.011608 0.000002
v -0.000969 -0.000691 0.000988
v -0.001463 0.003040 -0.000000
v -0.001324 -0.000691 0.000068
v -0.001380 0.011576 0.000303
v -0.001463 0.011468 0.000005
v -0.001490 -0.000691 0.000073
vn -0.3187 0.0055 0.9479
vn -0.9411 0.3015 0.1533
vn -0.9329 0.0022 0.3603
vn 0.9505 -0.0038 -0.3108
vn -0.4580 0.8758 0.1524
vn 0.8639 0.4157 -0.2843
vn 0.9420 -0.0002 0.3355
vn -0.0001 1.0000 -0.0000
vn 0.0001 1.0000 -0.0001
vn 0.0298 0.0195 0.9994
vn 0.0465 -0.0006 0.9989
vn 0.0374 0.0093 0.9993
vn -0.2001 0.9763 0.0829
vn 0.0726 0.9968 -0.0342
vn -0.9340 0.0024 0.3573
vn 0.9269 0.1867 -0.3257
vn 0.9496 -0.0036 -0.3134
vn -0.0199 -0.0021 -0.9998
vn -0.0132 -0.0064 0.9999
vn -0.0093 0.0026 1.0000
vn 0.0049 0.0024 1.0000
vn -0.0150 0.0027 0.9999
vn -0.9440 0.0037 0.3300
vn -0.9496 0.0026 0.3134
vn -0.9636 0.0036 0.2672
vn -0.9329 0.0024 0.3603
vn -0.9340 0.0022 0.3572
vn -0.0684 0.0006 -0.9977
vn -0.0367 0.0004 -0.9993
s 0
f 2//1 8//1 9//1
f 11//2 10//2 6//2
f 9//3 7//3 3//3
f 11//4 5//4 12//4
f 5//5 6//5 10//5
f 4//6 3//6 2//6
f 8//7 11//7 12//7
f 9//8 12//8 7//8
f 7//9 12//9 1//9
f 9//10 8//10 12//10
f 8//11 2//11 11//11
f 11//12 2//12 6//12
f 6//13 5//13 4//13
f 4//14 2//14 6//14
f 9//15 3//15 2//15
f 10//16 5//16 11//16
f 12//17 5//17 1//17
f 7//18 1//18 3//18
f 3//19 4//19 5//19
f 1//20 3//20 5//20
f 3//21 4//21 1//21
f 4//22 5//22 1//22
f 5//23 10//23 1//23
f 10//24 12//24 1//24
f 10//25 11//25 12//25
f 9//26 7//26 2//26
f 2//27 7//27 3//27
f 6//28 8//28 11//28
f 6//29 2//29 8//29
