# Blender 4.0.0
# www.blender.org
o decimated_mesh
v -0.004069 0.020259 0.000196
v -0.003957 0.020259 0.000447
v -0.001506 0.011542 -0.000310
v -0.001513 0.011538 0.000282
v -0.001089 0.011505 0.001220
v -0.003913 0.020259 -0.000404
v -0.001088 0.011503 -0.001221
v -0.001291 0.011451 -0.000003
v -0.003251 0.020259 0.000691
v -0.000070 0.011830 0.001559
v -0.002826 0.020255 0.000531
v -0.000080 0.011517 0.001409
v -0.000079 0.011706 -0.001541
v -0.003440 0.020259 -0.000700
v -0.000080 0.011528 -0.001406
v -0.000502 0.011422 0.000196
v -0.002613 0.020259 0.000194
v -0.001829 0.018343 0.000474
v -0.000080 0.011443 -0.000196
v -0.000080 0.012656 0.001195
v -0.001504 0.018075 0.000059
v -0.000079 0.012243 -0.001443
v -0.002571 0.020259 -0.000371
v -0.001522 0.018085 -0.000370
v -0.000085 0.013751 0.000069
v -0.000091 0.013742 -0.000307
vn 0.9595 0.2814 0.0132
vn 0.2985 0.0234 0.9541
vn 0.2806 0.9558 0.0879
vn 0.2674 0.9597 -0.0868
vn -0.3446 -0.2290 0.9104
vn 0.1622 0.4204 -0.8927
vn 0.5281 0.0916 0.8442
vn 0.1304 0.5995 0.7897
vn -0.0919 0.9947 -0.0462
vn 0.0493 0.9974 -0.0524
vn -0.2046 -0.1751 0.9630
vn 0.9497 0.3115 -0.0326
vn -0.9100 -0.2993 -0.2870
vn -0.6954 -0.2968 -0.6545
vn 0.3097 0.0190 -0.9506
vn -0.5901 -0.2846 0.7555
vn 0.0003 1.0000 0.0003
vn 0.8828 0.2549 -0.3945
vn -0.9003 -0.4344 0.0277
vn -0.8913 -0.4485 -0.0665
vn 0.8843 0.2485 0.3952
vn -0.8352 -0.3141 -0.4515
vn 0.3789 0.9254 0.0103
vn -1.0000 -0.0025 0.0022
vn -0.9988 0.0089 0.0473
vn -1.0000 -0.0000 -0.0000
vn -1.0000 0.0020 0.0001
vn -1.0000 0.0017 -0.0052
vn -0.9997 -0.0193 0.0149
vn -1.0000 -0.0020 -0.0024
vn 0.0179 0.9972 0.0720
vn 0.0136 0.9989 0.0451
vn -0.0120 0.9975 0.0701
vn 0.8261 0.4192 0.3765
vn 0.7847 0.3675 0.4992
vn 0.0025 0.9969 -0.0792
vn 0.9344 0.2607 0.2428
vn -0.3444 -0.2238 -0.9117
vn 0.9496 0.3127 -0.0210
vn 0.3259 0.0233 -0.9451
vn -0.8847 -0.2862 0.3680
vn -0.0005 1.0000 0.0002
vn -0.0001 1.0000 0.0004
vn -0.0155 -0.9997 -0.0204
vn -0.0002 1.0000 -0.0000
vn -0.0004 1.0000 0.0002
vn 0.8845 0.2553 -0.3905
vn -0.5910 -0.2853 -0.7545
vn -0.0002 1.0000 0.0001
vn -0.0002 1.0000 0.0003
vn 0.8845 0.2554 -0.3905
vn 0.8830 0.2544 -0.3945
vn -0.0001 1.0000 0.0003
vn -0.0001 1.0000 -0.0005
vn 0.7768 0.3900 0.4945
vn 0.8293 0.3967 0.3935
vn 0.9500 0.3116 -0.0210
vn 0.9494 0.3124 -0.0326
vn 1.0000 -0.0002 -0.0028
vn 1.0000 0.0064 -0.0019
vn 0.0027 0.9984 0.0557
vn 0.0243 0.9986 0.0468
vn 0.9995 -0.0322 0.0015
vn 0.9998 -0.0193 -0.0014
vn 1.0000 -0.0076 -0.0026
vn 0.9998 0.0173 0.0121
s 0
f 1//1 4//1 3//1
f 13//2 14//2 7//2
f 3//3 8//3 7//3
f 4//4 5//4 8//4
f 14//5 22//5 23//5
f 5//6 10//6 12//6
f 7//7 14//7 6//7
f 7//8 15//8 13//8
f 12//9 19//9 16//9
f 5//10 16//10 8//10
f 13//11 22//11 14//11
f 25//12 24//12 21//12
f 20//13 21//13 25//13
f 18//14 20//14 10//14
f 5//15 9//15 10//15
f 24//16 23//16 22//16
f 6//17 2//17 14//17
f 4//18 1//18 2//18
f 24//19 21//19 23//19
f 23//20 21//20 17//20
f 6//21 3//21 7//21
f 21//22 20//22 18//22
f 4//23 8//23 3//23
f 25//24 19//24 20//24
f 20//25 12//25 10//25
f 12//26 20//26 19//26
f 19//27 22//27 15//27
f 22//28 13//28 15//28
f 22//29 25//29 26//29
f 19//30 25//30 22//30
f 19//31 8//31 16//31
f 8//32 19//32 7//32
f 7//33 19//33 15//33
f 11//34 18//34 21//34
f 21//35 17//35 11//35
f 12//36 16//36 5//36
f 1//37 3//37 6//37
f 10//38 9//38 11//38
f 26//39 24//39 25//39
f 2//40 9//40 5//40
f 22//41 26//41 24//41
f 6//42 1//42 2//42
f 2//43 9//43 17//43
f 9//44 17//44 11//44
f 2//45 17//45 14//45
f 17//46 23//46 14//46
f 4//47 2//47 5//47
f 11//48 18//48 10//48
f 2//49 23//49 1//49
f 23//50 6//50 1//50
f 4//51 1//51 5//51
f 5//52 1//52 2//52
f 9//53 23//53 2//53
f 14//54 6//54 23//54
f 9//46 17//46 23//46
f 11//55 18//55 17//55
f 18//56 21//56 17//56
f 25//57 26//57 21//57
f 26//58 24//58 21//58
f 10//59 13//59 22//59
f 25//60 10//60 22//60
f 19//61 7//61 16//61
f 16//62 7//62 8//62
f 19//63 10//63 12//63
f 19//64 15//64 10//64
f 15//65 13//65 10//65
f 25//66 20//66 10//66
