# Blender 4.0.0
# www.blender.org
o decimated_mesh
v -0.010963 0.036179 0.000384
v -0.010933 0.036117 -0.000153
v -0.010910 0.035499 0.000000
v -0.010533 0.033456 -0.000041
v -0.010333 0.036076 0.000670
v -0.010519 0.033524 0.000396
v -0.010528 0.041480 0.000403
v -0.010168 0.032107 -0.000346
v -0.010272 0.032108 0.000196
v -0.010164 0.032108 0.000448
v -0.010366 0.041595 0.000463
v -0.010544 0.041595 0.000252
v -0.010698 0.035943 -0.000554
v -0.010408 0.036094 -0.000679
v -0.010212 0.033001 -0.000534
v -0.009919 0.041595 0.000661
v -0.009528 0.032108 0.000680
v -0.010531 0.041590 -0.000086
v -0.010456 0.041116 -0.000406
v -0.010244 0.041595 -0.000575
v -0.009926 0.041595 -0.000680
v -0.009900 0.032792 -0.000665
v -0.009955 0.032108 -0.000554
v -0.009206 0.032108 0.000551
v -0.009504 0.041595 0.000561
v -0.009288 0.041595 -0.000444
v -0.009533 0.032108 -0.000649
v -0.008956 0.032108 0.000101
v -0.009280 0.041595 0.000334
v -0.008963 0.032108 -0.000359
v -0.009177 0.041595 -0.000195
vn -0.6939 0.0530 -0.7181
vn -0.8794 -0.1452 -0.4535
vn -0.2191 -0.1403 -0.9656
vn 0.2343 0.0116 0.9721
vn -0.3416 -0.0671 0.9374
vn -0.8980 -0.2110 0.3860
vn -0.6145 0.5941 0.5191
vn -0.9823 0.0801 0.1695
vn -0.4054 -0.0684 0.9116
vn -0.9410 0.0731 -0.3305
vn -0.0007 1.0000 -0.0000
vn -0.0002 1.0000 -0.0006
vn -0.9952 0.0738 -0.0648
vn -0.3945 0.0291 0.9184
vn 0.0502 0.0035 -0.9987
vn -0.9586 -0.2176 -0.1835
vn -0.4110 0.0295 -0.9111
vn 0.3475 0.0113 -0.9376
vn -0.3678 -0.0669 -0.9275
vn 0.8732 0.0179 0.4871
vn 0.7115 0.0215 0.7024
vn 0.9813 0.0289 0.1902
vn 0.9129 0.0276 -0.4073
vn -0.9814 -0.1823 0.0594
vn -0.4474 -0.1093 -0.8876
vn 0.9996 0.0228 -0.0165
vn -0.9975 -0.0497 -0.0508
vn -0.8858 -0.1493 -0.4393
vn -0.8831 -0.1371 -0.4488
vn -0.8758 -0.1524 -0.4580
vn 0.3740 0.0107 0.9274
vn -0.8459 0.1990 -0.4948
vn -0.4224 -0.0663 0.9040
vn -0.8503 0.0547 -0.5235
vn -0.0025 0.0019 1.0000
vn 0.4537 0.0076 -0.8911
vn -0.6853 -0.1815 -0.7053
vn 0.0061 0.9999 -0.0118
vn -0.0012 1.0000 -0.0010
vn 0.0003 1.0000 -0.0000
vn -0.0005 1.0000 0.0013
vn -0.0017 1.0000 0.0096
vn 0.0135 0.9998 -0.0140
vn -0.0052 1.0000 -0.0026
vn -0.0017 -1.0000 0.0006
vn -0.0000 1.0000 -0.0000
vn 0.0001 1.0000 0.0001
vn -0.0001 1.0000 -0.0001
vn -0.0009 1.0000 0.0014
vn -0.9963 0.0761 -0.0395
vn -0.4098 0.0324 0.9116
vn -0.4035 0.0959 0.9099
vn 0.0242 -0.0022 -0.9997
vn -0.4265 -0.0694 -0.9018
vn -0.3133 0.0273 -0.9493
vn -0.9820 -0.1795 0.0590
vn -0.9749 -0.1624 0.1523
vn -0.4101 0.0304 0.9115
vn -0.8790 -0.1458 -0.4539
vn -0.9115 -0.1606 -0.3787
vn -0.9823 -0.1822 0.0440
vn -0.9812 -0.1806 0.0678
vn -0.3949 0.0312 0.9182
vn -0.0003 1.0000 -0.0024
vn -0.0005 1.0000 -0.0000
vn -0.0004 1.0000 0.0002
vn -0.0457 0.9988 -0.0163
vn -0.4306 -0.0770 -0.8993
vn -0.8583 -0.1450 -0.4923
vn -0.3706 -0.0609 -0.9268
vn 0.0007 1.0000 0.0031
vn -0.0004 1.0000 0.0008
vn -0.0004 1.0000 -0.0000
vn -0.0003 1.0000 -0.0002
vn -0.0001 1.0000 -0.0005
vn 0.0001 1.0000 -0.0006
vn 0.0002 1.0000 0.0016
vn 0.0171 -0.0016 -0.9999
vn 0.0409 -0.0015 -0.9992
s 0
f 20//1 13//1 19//1
f 13//2 3//2 2//2
f 23//3 22//3 27//3
f 25//4 16//4 17//4
f 17//5 5//5 10//5
f 6//6 9//6 10//6
f 7//7 11//7 12//7
f 7//8 12//8 1//8
f 10//9 5//9 6//9
f 19//10 2//10 18//10
f 16//11 29//11 26//11
f 10//12 28//12 8//12
f 18//13 2//13 1//13
f 7//14 1//14 16//14
f 22//15 14//15 27//15
f 9//16 4//16 8//16
f 13//17 20//17 14//17
f 21//18 26//18 27//18
f 15//19 13//19 14//19
f 24//20 28//20 29//20
f 24//21 29//21 25//21
f 28//22 31//22 29//22
f 26//23 31//23 30//23
f 3//24 4//24 6//24
f 22//25 23//25 15//25
f 31//26 28//26 30//26
f 3//27 1//27 2//27
f 13//28 15//28 4//28
f 4//29 15//29 8//29
f 4//30 3//30 13//30
f 24//31 25//31 17//31
f 18//32 20//32 19//32
f 1//33 6//33 5//33
f 19//34 13//34 2//34
f 17//35 16//35 5//35
f 26//36 30//36 27//36
f 23//37 8//37 15//37
f 11//38 16//38 18//38
f 16//39 25//39 29//39
f 29//40 31//40 26//40
f 26//41 21//41 20//41
f 20//42 18//42 26//42
f 18//43 12//43 11//43
f 26//44 18//44 16//44
f 9//45 8//45 10//45
f 23//46 28//46 27//46
f 27//46 28//46 30//46
f 28//47 17//47 24//47
f 17//48 28//48 10//48
f 28//49 23//49 8//49
f 1//50 12//50 18//50
f 5//51 16//51 1//51
f 7//52 16//52 11//52
f 14//53 21//53 27//53
f 14//54 22//54 15//54
f 14//55 20//55 21//55
f 4//56 9//56 6//56
f 6//57 1//57 3//57
f 5//58 7//58 1//58
f 13//59 8//59 3//59
f 8//60 4//60 3//60
f 4//61 9//61 3//61
f 9//62 6//62 3//62
f 16//63 7//63 5//63
f 11//64 29//64 12//64
f 29//65 26//65 12//65
f 26//66 20//66 12//66
f 20//67 18//67 12//67
f 22//68 15//68 13//68
f 15//69 8//69 13//69
f 14//70 22//70 13//70
f 23//71 8//71 27//71
f 27//72 8//72 30//72
f 30//73 8//73 28//73
f 28//74 8//74 24//74
f 24//75 8//75 17//75
f 17//76 8//76 10//76
f 29//77 11//77 16//77
f 14//78 21//78 22//78
f 21//79 27//79 22//79
