# Blender 4.0.0
# www.blender.org
o decimated_mesh
v -0.002553 0.023761 -0.000374
v -0.002552 0.023788 0.000202
v 0.001907 0.023527 -0.000192
v 0.001907 0.023348 -0.000478
v 0.001907 0.023509 0.000191
v -0.002552 0.023522 0.000526
v 0.001907 0.023387 0.000442
v -0.002552 0.023170 -0.000596
v 0.001904 0.022799 -0.000570
v -0.002552 0.023171 0.000591
v 0.001907 0.023169 0.000554
v 0.001902 0.022544 -0.000454
v 0.000077 0.022440 -0.000527
v -0.001012 0.022746 -0.000592
v -0.002552 0.022837 0.000450
v -0.000895 0.022781 0.000597
v 0.001906 0.022782 0.000550
v -0.002552 0.022869 -0.000514
v 0.001906 0.022431 -0.000200
v 0.000168 0.022137 -0.000008
v -0.001485 0.022521 -0.000458
v -0.002552 0.022652 0.000206
v -0.002097 0.022575 0.000384
v -0.000402 0.022415 0.000455
v 0.001905 0.022529 0.000429
v 0.001906 0.022411 0.000218
v -0.001287 0.022368 -0.000196
v -0.002314 0.022535 0.000006
v -0.001496 0.022387 0.000210
v 0.000204 0.022204 0.000236
v -0.002552 0.022672 -0.000184
vn 0.0661 0.8466 -0.5281
vn -0.2281 -0.9455 0.2324
vn 1.0000 -0.0002 0.0007
vn 0.0352 0.7714 0.6354
vn 0.0108 0.3523 -0.9358
vn 0.0305 0.4561 0.8894
vn -0.2220 -0.9024 -0.3694
vn 0.1096 -0.9090 -0.4022
vn -0.2451 -0.8318 -0.4981
vn 0.0625 0.9970 0.0460
vn -0.1072 -0.9543 0.2789
vn 0.0158 -0.3425 0.9394
vn -0.1015 -0.8317 0.5459
vn -0.3471 -0.7457 0.5687
vn 0.0951 0.3904 -0.9157
vn 0.0073 0.0169 -0.9998
vn -0.4689 -0.8821 -0.0450
vn 0.0411 -0.6612 0.7491
vn 0.0573 0.8977 0.4368
vn 0.0083 0.0496 0.9987
vn -1.0000 -0.0005 -0.0009
vn -0.0666 -0.8665 -0.4948
vn -0.2524 -0.9360 0.2453
vn 1.0000 0.0003 0.0001
vn 0.9999 -0.0107 0.0110
vn 1.0000 -0.0019 0.0011
vn 0.9995 -0.0196 -0.0251
vn 1.0000 -0.0006 0.0005
vn 1.0000 -0.0036 -0.0092
vn 1.0000 0.0023 0.0001
vn 1.0000 -0.0012 -0.0013
vn -0.0701 -0.2637 -0.9620
vn 0.1104 -0.8675 0.4850
vn -0.2187 -0.9056 -0.3634
vn 0.0543 0.9974 -0.0473
vn 0.0315 -0.4310 0.9018
vn -0.0987 -0.8395 0.5343
vn -0.0615 -0.4130 -0.9086
vn -0.0777 -0.3854 -0.9195
vn 0.0909 0.3877 -0.9173
vn -0.0798 -0.4517 0.8886
vn 0.0106 -0.1723 -0.9850
vn 0.1193 -0.9614 0.2480
vn 0.0596 -0.4128 -0.9089
vn -0.0820 -0.8864 -0.4555
vn 0.0195 0.1654 -0.9860
vn 0.0168 -0.0119 0.9998
vn 0.1616 -0.9857 -0.0481
vn -0.1676 -0.9851 -0.0394
vn -0.1529 -0.9877 -0.0317
vn 0.0082 0.1820 0.9833
vn 0.0688 -0.8559 -0.5125
vn -1.0000 -0.0004 0.0001
vn -1.0000 -0.0000 -0.0000
vn -1.0000 0.0014 -0.0004
vn -1.0000 -0.0013 -0.0010
vn -1.0000 -0.0003 0.0007
vn -1.0000 0.0001 -0.0002
vn -1.0000 -0.0000 0.0001
vn -1.0000 -0.0003 -0.0002
vn -1.0000 -0.0002 -0.0007
vn -1.0000 -0.0001 -0.0000
vn -1.0000 -0.0004 0.0039
vn 1.0000 0.0007 0.0005
vn 0.0944 0.3932 -0.9146
vn 0.0944 0.3876 -0.9170
vn 1.0000 -0.0007 0.0003
vn 1.0000 -0.0013 0.0004
vn 1.0000 -0.0016 0.0011
s 0
f 1//1 3//1 4//1
f 23//2 28//2 29//2
f 17//3 4//3 5//3
f 2//4 6//4 7//4
f 1//5 4//5 8//5
f 6//6 11//6 7//6
f 21//7 28//7 31//7
f 19//8 20//8 12//8
f 21//9 31//9 18//9
f 3//10 2//10 5//10
f 20//11 30//11 29//11
f 17//12 16//12 24//12
f 29//13 24//13 23//13
f 15//14 22//14 23//14
f 23//15 10//15 16//15
f 9//16 14//16 8//16
f 28//17 22//17 31//17
f 25//18 24//18 30//18
f 5//19 2//19 7//19
f 11//20 10//20 16//20
f 8//21 18//21 31//21
f 20//22 21//22 13//22
f 23//23 22//23 28//23
f 5//24 7//24 11//24
f 17//25 25//25 26//25
f 26//26 19//26 17//26
f 19//27 12//27 9//27
f 17//28 19//28 4//28
f 9//29 4//29 19//29
f 3//30 5//30 4//30
f 5//31 11//31 17//31
f 8//32 14//32 18//32
f 30//33 26//33 25//33
f 21//34 27//34 28//34
f 3//35 1//35 2//35
f 24//36 25//36 17//36
f 29//37 30//37 24//37
f 13//38 21//38 14//38
f 21//39 18//39 14//39
f 10//40 23//40 15//40
f 23//41 24//41 16//41
f 14//42 9//42 13//42
f 20//43 26//43 30//43
f 12//44 13//44 9//44
f 21//45 20//45 27//45
f 9//46 8//46 4//46
f 16//47 17//47 11//47
f 19//48 26//48 20//48
f 28//49 27//49 29//49
f 20//50 29//50 27//50
f 10//51 11//51 6//51
f 13//52 12//52 20//52
f 1//53 8//53 2//53
f 31//54 22//54 15//54
f 15//55 10//55 31//55
f 10//56 6//56 2//56
f 31//57 10//57 2//57
f 31//58 2//58 8//58
f 1//59 6//59 2//59
f 8//60 18//60 1//60
f 18//61 31//61 1//61
f 31//62 22//62 1//62
f 22//62 15//62 1//62
f 15//59 6//59 1//59
f 15//63 10//63 6//63
f 11//64 4//64 5//64
f 23//65 15//65 16//65
f 16//66 15//66 10//66
f 11//67 19//67 4//67
f 17//68 26//68 11//68
f 26//69 19//69 11//69
