# Blender 4.0.0
# www.blender.org
o decimated_mesh
v -0.084802 -0.001745 -0.005610
v -0.084350 0.000989 -0.005771
v 0.074530 -0.000017 -0.005945
v 0.075058 -0.002590 -0.005223
v -0.084111 -0.004508 -0.003548
v -0.084579 0.002319 -0.005327
v 0.074972 0.002633 -0.005216
v 0.089207 0.000238 -0.003378
v -0.095223 -0.001885 -0.003163
v -0.097897 0.000000 -0.003304
v -0.095223 0.001885 -0.003163
v 0.089300 0.002199 -0.001746
v 0.089256 -0.002098 -0.001977
v 0.074670 -0.004270 -0.003755
v -0.100026 -0.002040 -0.001413
v -0.102032 -0.000477 -0.001633
v -0.102048 0.000476 -0.001622
v -0.100027 0.002043 -0.001406
v 0.074970 0.004806 -0.002977
v 0.089387 0.002388 -0.000309
v 0.089939 0.000953 -0.000339
v 0.089939 -0.000953 -0.000339
v 0.089353 -0.002326 0.000667
v 0.074670 -0.005034 -0.002246
v -0.099968 -0.001982 0.000600
v -0.102109 -0.000676 -0.000431
v -0.084282 -0.005256 -0.000380
v -0.102087 0.000694 -0.000437
v -0.084356 0.004704 -0.003176
v -0.099977 0.001976 0.000602
v 0.089308 0.001959 0.001197
v 0.074670 0.005286 -0.000339
v 0.089402 -0.000944 0.001391
v 0.074960 -0.004735 0.001821
v 0.074670 -0.005286 -0.000339
v -0.084336 -0.004961 0.001159
v -0.102024 -0.000008 0.000893
v -0.084316 0.005253 -0.000384
v -0.084379 0.004955 0.001166
v 0.074960 0.004735 0.001820
v 0.074303 0.002087 0.006475
v 0.074310 -0.002085 0.006477
v -0.084657 -0.004095 0.002786
v -0.092953 -0.001948 0.002636
v -0.096333 0.000041 0.002456
v -0.093602 0.001879 0.002500
v 0.075671 0.000017 0.006566
v 0.072561 -0.000006 0.007030
v 0.030799 -0.002288 0.006573
v -0.084428 -0.001719 0.004563
v -0.086854 0.000062 0.004458
v -0.084362 0.001665 0.004594
v -0.084632 0.004079 0.002824
v 0.031379 0.002067 0.006797
v 0.030799 -0.000953 0.007046
vn 0.1850 0.8428 0.5055
vn 0.1635 0.2364 -0.9578
vn 0.1715 -0.2337 -0.9571
vn -0.1917 0.2810 -0.9404
vn -0.2859 -0.4836 -0.8273
vn 0.2095 -0.4997 -0.8405
vn -0.2008 -0.7599 -0.6183
vn -0.0215 -0.0087 0.9997
vn -0.2846 -0.4663 -0.8376
vn -0.1993 0.2737 0.9410
vn -0.1991 0.7646 -0.6130
vn 0.9276 0.3588 -0.1037
vn 0.9458 0.1801 -0.2702
vn 0.1847 -0.8769 -0.4438
vn 0.9456 -0.1525 -0.2875
vn 0.8978 -0.4348 -0.0703
vn 0.1888 0.9721 -0.1394
vn -0.2024 0.9786 0.0374
vn -0.5342 -0.8444 0.0394
vn -0.5941 -0.7866 -0.1679
vn -0.2866 0.4835 -0.8271
vn -0.5933 0.7880 -0.1646
vn -0.0174 0.5899 0.8073
vn -0.5335 0.8448 0.0413
vn 0.9240 0.3523 0.1488
vn -0.0002 -0.9913 -0.1312
vn 0.9380 -0.1868 0.2919
vn -0.1908 0.9654 0.1777
vn 0.0007 -0.8923 -0.4515
vn 0.9355 0.0537 0.3491
vn 0.1817 -0.8436 0.5054
vn 0.3156 -0.4495 0.8357
vn -0.1903 -0.9654 0.1783
vn -0.0008 0.6697 -0.7427
vn -0.1839 0.8804 0.4371
vn -0.2567 0.3945 0.8823
vn -0.1947 -0.7040 0.6830
vn 0.3261 -0.2496 0.9118
vn -0.0181 -0.3343 0.9423
vn -0.0015 -0.0582 -0.9983
vn 0.1881 0.9574 0.2191
vn 0.3230 0.2534 0.9119
vn -0.1647 -0.5805 0.7975
vn -0.1955 0.6950 0.6919
vn -0.2855 0.4675 -0.8367
vn 0.1452 0.1389 0.9796
vn -0.0004 0.9813 -0.1927
vn 0.1981 -0.9759 -0.0915
vn -0.0003 -0.9689 0.2474
vn -0.3751 0.0047 -0.9270
vn -0.2541 -0.3956 0.8826
vn -0.0003 0.9689 0.2474
vn 0.9722 -0.0000 -0.2342
vn -0.0169 -0.5977 0.8015
vn 0.1789 0.6242 -0.7605
vn -0.0000 0.3166 -0.9486
vn -0.9992 0.0156 -0.0361
vn -0.1721 -0.6165 -0.7683
vn -0.0000 -0.6578 -0.7532
vn 0.0051 -0.8688 0.4951
vn -0.0016 -0.8829 0.4695
vn -0.0006 -0.8914 0.4532
vn -0.2002 0.3522 -0.9143
vn -0.0015 0.0826 0.9966
vn -0.0193 0.0859 0.9961
vn -0.0493 -0.0081 0.9987
vn -0.0007 0.8839 0.4677
vn -0.0007 0.8842 0.4670
vn 0.0033 0.8690 0.4948
vn -0.2089 0.2444 0.9469
vn -0.2508 0.3511 0.9021
vn -0.2084 -0.3634 -0.9081
vn 0.1912 0.9693 -0.1547
vn 0.0071 0.2508 0.9680
vn 0.0009 -0.2703 -0.9628
vn -0.9983 0.0159 0.0561
vn 0.1874 -0.6704 -0.7180
vn 0.1782 -0.9589 0.2208
vn -0.0013 -0.9733 -0.2297
vn -0.6090 -0.6918 0.3881
vn -0.1797 -0.9552 -0.2351
vn 0.9551 -0.0000 0.2962
vn -0.1771 -0.0283 -0.9838
vn 0.0004 0.7176 -0.6964
vn -0.1850 0.9648 -0.1868
vn -0.2466 -0.3371 0.9086
vn -0.2089 -0.2282 0.9510
vn -0.1993 -0.2533 0.9466
vn 0.0036 -0.3344 0.9424
vn 0.0061 -0.2522 0.9677
vn 0.1472 -0.1367 0.9796
vn 0.1941 0.9406 0.2785
vn -0.6108 0.6877 0.3923
vn 0.3562 0.0740 0.9315
vn -0.1836 -0.8824 0.4333
vn -0.0012 -0.5983 -0.8013
vn -0.1689 0.5704 0.8038
vn -0.2021 -0.9788 0.0337
vn -0.0002 0.9838 -0.1791
vn 0.2044 -0.9704 -0.1285
vn 0.0006 -0.9821 0.1881
vn 0.0006 0.9820 0.1887
vn 0.2062 0.7023 -0.6814
vn 0.0006 0.2653 -0.9642
vn -0.9977 -0.0154 -0.0660
vn -0.1742 0.6683 -0.7232
vn 0.1870 0.7050 -0.6841
vn 0.2023 0.6206 -0.7576
vn 0.1897 0.9695 -0.1549
vn 0.1916 0.9715 -0.1395
vn 0.2028 -0.9749 -0.0916
vn 0.1980 -0.9717 -0.1287
vn -0.0003 0.9820 0.1887
vn 0.0003 0.9689 0.2473
vn 0.0003 -0.9689 0.2473
vn -0.0002 -0.9822 0.1881
vn -0.2057 0.2833 0.9367
vn -0.2059 -0.2649 0.9421
vn -0.2014 0.2324 0.9515
vn -0.2012 -0.2174 0.9551
s 0
f 41//1 31//1 40//1
f 3//2 7//2 8//2
f 3//3 8//3 4//3
f 6//4 2//4 10//4
f 16//5 9//5 15//5
f 8//6 13//6 4//6
f 9//7 5//7 15//7
f 50//8 55//8 52//8
f 9//9 16//9 10//9
f 45//10 51//10 46//10
f 11//11 18//11 29//11
f 12//12 20//12 21//12
f 12//13 21//13 8//13
f 14//14 13//14 24//14
f 8//15 22//15 13//15
f 13//16 22//16 23//16
f 19//17 20//17 12//17
f 18//18 30//18 38//18
f 15//19 25//19 26//19
f 15//20 26//20 16//20
f 11//21 17//21 18//21
f 17//22 28//22 18//22
f 53//23 52//23 54//23
f 18//24 28//24 30//24
f 20//25 31//25 21//25
f 27//26 24//26 35//26
f 22//27 33//27 23//27
f 30//28 39//28 38//28
f 5//29 14//29 24//29
f 33//30 21//30 31//30
f 42//31 34//31 23//31
f 23//32 33//32 42//32
f 36//33 25//33 27//33
f 29//34 7//34 6//34
f 53//35 39//35 30//35
f 37//36 46//36 30//36
f 43//37 44//37 25//37
f 47//38 42//38 33//38
f 55//39 50//39 49//39
f 3//40 1//40 2//40
f 40//41 20//41 32//41
f 41//42 47//42 31//42
f 43//43 50//43 44//43
f 46//44 53//44 30//44
f 17//45 11//45 10//45
f 47//46 41//46 48//46
f 38//47 19//47 29//47
f 23//48 24//48 13//48
f 34//49 27//49 35//49
f 17//50 10//50 16//50
f 44//51 37//51 25//51
f 38//52 40//52 32//52
f 8//53 21//53 22//53
f 49//54 50//54 43//54
f 8//55 19//55 12//55
f 7//56 2//56 6//56
f 17//57 26//57 28//57
f 5//58 9//58 1//58
f 5//59 4//59 14//59
f 42//60 49//60 34//60
f 49//61 43//61 36//61
f 34//62 49//62 36//62
f 11//63 6//63 10//63
f 48//64 54//64 55//64
f 54//65 52//65 55//65
f 51//66 50//66 52//66
f 40//67 39//67 54//67
f 39//68 53//68 54//68
f 54//69 41//69 40//69
f 52//70 46//70 51//70
f 46//71 37//71 45//71
f 10//72 1//72 9//72
f 19//73 32//73 20//73
f 54//74 48//74 41//74
f 1//75 3//75 4//75
f 37//76 28//76 26//76
f 14//77 4//77 13//77
f 34//78 35//78 23//78
f 27//79 5//79 24//79
f 26//80 25//80 37//80
f 15//81 5//81 27//81
f 33//82 22//82 21//82
f 10//83 2//83 1//83
f 29//84 19//84 7//84
f 18//85 38//85 29//85
f 37//86 44//86 45//86
f 44//87 50//87 51//87
f 45//88 44//88 51//88
f 49//89 42//89 55//89
f 55//90 42//90 48//90
f 47//91 48//91 42//91
f 40//92 31//92 20//92
f 37//93 30//93 28//93
f 33//94 31//94 47//94
f 43//95 25//95 36//95
f 5//96 1//96 4//96
f 53//97 46//97 52//97
f 15//98 27//98 25//98
f 38//99 32//99 19//99
f 23//100 35//100 24//100
f 34//101 36//101 27//101
f 38//102 39//102 40//102
f 8//103 7//103 19//103
f 7//104 3//104 2//104
f 17//105 16//105 26//105
f 6//106 11//106 29//106
f 19//107 12//107 7//107
f 12//108 8//108 7//108
f 32//109 12//109 19//109
f 32//110 20//110 12//110
f 23//111 35//111 13//111
f 35//112 24//112 13//112
f 38//113 39//113 32//113
f 39//114 40//114 32//114
f 34//115 36//115 35//115
f 36//116 27//116 35//116
f 39//68 53//68 40//68
f 53//67 54//67 40//67
f 45//117 52//117 46//117
f 50//118 45//118 44//118
f 45//119 51//119 52//119
f 50//120 51//120 45//120
