# https://github.com/mikedh/trimesh
mtllib material.mtl
usemtl material_0
v 0.43718504 -0.03952096 0.06370387
v 0.41318113 -0.03292093 0.06193630
v 0.41141233 -0.03952127 0.06370510
v 0.43718504 -0.03292093 0.06193630
v 0.41141233 -0.02632058 0.06370510
v 0.43718504 -0.02632089 0.06370387
v 0.43718504 -0.04435243 0.06853542
v 0.43718504 -0.03952096 0.06370387
v 0.41141233 -0.03952127 0.06370510
v 0.40658079 -0.04435296 0.06853786
v 0.43718504 -0.04612092 0.07513575
v 0.39997923 -0.04612115 0.07513575
v 0.43718504 -0.04435243 0.08173610
v 0.39997923 -0.04435365 0.08173122
v 0.43718504 -0.03952096 0.08656764
v 0.39997923 -0.03952096 0.08656764
v 0.37587034 -0.04435304 0.08173366
v 0.37587034 -0.03952096 0.08656764
v 0.37587034 -0.04612100 0.07513575
v 0.39337766 -0.04435296 0.06853786
v 0.37587034 -0.04435266 0.06853663
v 0.38854612 -0.03952127 0.06370510
v 0.37587034 -0.03952111 0.06370510
v 0.43718504 -0.02632089 0.06370387
v 0.40658079 -0.02148889 0.06853786
v 0.41141233 -0.02632058 0.06370510
v 0.43718504 -0.02148942 0.06853542
v 0.39997923 -0.01972062 0.07513575
v 0.43718504 -0.01972093 0.07513575
v 0.39997923 -0.02148942 0.08173610
v 0.43718504 -0.02148942 0.08173610
v 0.39997923 -0.02632089 0.08656764
v 0.43718504 -0.02632089 0.08656764
v 0.37587034 -0.02632089 0.08656764
v 0.37587034 -0.02148942 0.08173610
v 0.37587034 -0.01972078 0.07513575
v 0.37587034 -0.02148919 0.06853663
v 0.39337766 -0.02148889 0.06853786
v 0.37587034 -0.02632074 0.06370510
v 0.38854612 -0.02632058 0.06370510
v 0.41141233 -0.03952127 0.06370510
v 0.40658079 -0.04435296 -0.06827854
v 0.40658079 -0.04435296 0.06853786
v 0.41141233 -0.03952127 -0.06344456
v 0.41318113 -0.03292093 0.06193630
v 0.41318113 -0.03292093 -0.06167576
v 0.41141233 -0.02632058 0.06370510
v 0.41141233 -0.02632058 -0.06344456
v 0.40658079 -0.02148889 0.06853786
v 0.40658079 -0.02148889 -0.06827854
v 0.39337766 -0.04435296 0.06853786
v 0.39337766 -0.04435296 -0.06827854
v 0.38854612 -0.03952127 -0.06344456
v 0.38854612 -0.03952127 0.06370510
v 0.38677854 -0.03292093 -0.06167576
v 0.38677854 -0.03292093 0.06193630
v 0.38854612 -0.02632058 -0.06344456
v 0.38854612 -0.02632058 0.06370510
v 0.39337766 -0.02148889 -0.06827854
v 0.39337766 -0.02148889 0.06853786
v 0.43718504 -0.03292093 0.08833644
v 0.43718504 -0.03952096 0.08656764
v 0.39997923 -0.03952096 0.08656764
v 0.39997923 -0.03292093 0.08833644
v 0.43718504 -0.02632089 0.08656764
v 0.37587034 -0.03952096 0.08656764
v 0.39997923 -0.02632089 0.08656764
v 0.37587034 -0.03292093 0.08833644
v 0.37587034 -0.02632089 0.08656764
v 0.37587034 -0.02328241 0.06957180
v 0.37051878 -0.02735612 0.06549709
v 0.37587034 -0.02735612 0.06549709
v 0.37051878 -0.02328233 0.06957180
v 0.37587034 -0.02179139 0.07513575
v 0.37051878 -0.02179132 0.07513575
v 0.37587034 -0.02328248 0.08070094
v 0.37051878 -0.02328256 0.08070094
v 0.37587034 -0.02735620 0.08477443
v 0.37051878 -0.02735620 0.08477443
v 0.37587034 -0.02735612 0.06549709
v 0.37051878 -0.02735612 0.06549709
v 0.37051878 -0.03292093 0.06400661
v 0.37587034 -0.03292093 0.06400661
v 0.37051878 -0.03848573 0.06549709
v 0.37587034 -0.03848565 0.06549709
v 0.37587034 -0.03848565 0.06549709
v 0.37051878 -0.03848573 0.06549709
v 0.37051878 -0.04255945 0.06957180
v 0.37587034 -0.04255945 0.06957180
v 0.37051878 -0.04405046 0.07513575
v 0.37587034 -0.04405046 0.07513575
v 0.37051878 -0.04255983 0.08069850
v 0.37587034 -0.04255983 0.08069850
v 0.37051878 -0.03848535 0.08477443
v 0.37587034 -0.03848550 0.08477443
v 0.37587034 -0.03848550 0.08477443
v 0.37051878 -0.03848535 0.08477443
v 0.37051878 -0.03292093 0.08626491
v 0.37587034 -0.03292085 0.08626491
v 0.37051878 -0.02735620 0.08477443
v 0.37587034 -0.02735620 0.08477443
v 0.25461298 -0.02328248 0.06957180
v 0.24926148 -0.02735627 0.06549709
v 0.25461298 -0.02735612 0.06549709
v 0.24926148 -0.02328248 0.06957180
v 0.25461298 -0.02179139 0.07513575
v 0.24926148 -0.02179139 0.07513575
v 0.25461298 -0.02328256 0.08070094
v 0.24926148 -0.02328256 0.08070094
v 0.25461298 -0.02735620 0.08477443
v 0.24926148 -0.02735620 0.08477443
v 0.25461298 -0.02735612 0.06549709
v 0.24926148 -0.02735627 0.06549709
v 0.24926148 -0.03292093 0.06400661
v 0.25461298 -0.03292093 0.06400661
v 0.24926148 -0.03848573 0.06549709
v 0.25461298 -0.03848581 0.06549709
v 0.25461298 -0.03848581 0.06549709
v 0.24926148 -0.03848573 0.06549709
v 0.24926148 -0.04255937 0.06957180
v 0.25461298 -0.04255945 0.06957180
v 0.24926148 -0.04405046 0.07513575
v 0.25461298 -0.04405046 0.07513575
v 0.24926148 -0.04255952 0.08069972
v 0.25461298 -0.04255952 0.08069972
v 0.24926148 -0.03848558 0.08477443
v 0.25461298 -0.03848558 0.08477443
v 0.25461298 -0.03848558 0.08477443
v 0.24926148 -0.03848558 0.08477443
v 0.24926148 -0.03292093 0.08626491
v 0.25461298 -0.03292100 0.08626491
v 0.24926148 -0.02735620 0.08477443
v 0.25461298 -0.02735620 0.08477443
v 0.38677854 -0.03292093 0.06193630
v 0.37587034 -0.03952111 0.06370510
v 0.38854612 -0.03952127 0.06370510
v 0.37587034 -0.03292093 0.06193630
v 0.38854612 -0.02632058 0.06370510
v 0.37587034 -0.02632074 0.06370510
v 0.37051878 -0.02148919 0.06853663
v 0.25461298 -0.02632081 0.06370387
v 0.37051878 -0.02632074 0.06370510
v 0.25461298 -0.02148935 0.06853663
v 0.25461298 -0.01972085 0.07513575
v 0.37051878 -0.01972078 0.07513575
v 0.25461298 -0.02148942 0.08173610
v 0.37051878 -0.02148942 0.08173610
v 0.25461298 -0.02632089 0.08656764
v 0.37051878 -0.02632089 0.08656764
v 0.37051878 -0.03292093 0.06193630
v 0.37051878 -0.02632074 0.06370510
v 0.25461298 -0.02632081 0.06370387
v 0.25461298 -0.03292093 0.06193630
v 0.37051878 -0.03952111 0.06370510
v 0.25461298 -0.03952104 0.06370387
v 0.37051878 -0.04435266 0.06853663
v 0.37051878 -0.03952111 0.06370510
v 0.25461298 -0.03952104 0.06370387
v 0.25461298 -0.04435250 0.06853663
v 0.37051878 -0.04612100 0.07513575
v 0.25461298 -0.04612100 0.07513575
v 0.37051878 -0.04435304 0.08173366
v 0.25461298 -0.04435273 0.08173488
v 0.37051878 -0.03952096 0.08656764
v 0.25461298 -0.03952096 0.08656764
v 0.37051878 -0.03292093 0.08833644
v 0.37051878 -0.03952096 0.08656764
v 0.25461298 -0.03952096 0.08656764
v 0.25461298 -0.03292093 0.08833644
v 0.37051878 -0.02632089 0.08656764
v 0.25461298 -0.02632089 0.08656764
v 0.24926148 -0.02148935 0.06853663
v 0.23473748 -0.02632089 0.06370387
v 0.24926148 -0.02632081 0.06370387
v 0.23473748 -0.02148942 0.06853542
v 0.23473748 -0.01972093 0.07513575
v 0.24926148 -0.01972085 0.07513575
v 0.23473748 -0.02148942 0.08173610
v 0.24926148 -0.02148942 0.08173610
v 0.23473748 -0.02632089 0.08656764
v 0.24926148 -0.02632089 0.08656764
v 0.24926148 -0.03292093 0.06193630
v 0.24926148 -0.02632081 0.06370387
v 0.23473748 -0.02632089 0.06370387
v 0.23473748 -0.03292093 0.06193630
v 0.24926148 -0.03952104 0.06370387
v 0.23473748 -0.03952096 0.06370387
v 0.24926148 -0.04435250 0.06853663
v 0.24926148 -0.03952104 0.06370387
v 0.23473748 -0.03952096 0.06370387
v 0.23473748 -0.04435243 0.06853542
v 0.24926148 -0.04612100 0.07513575
v 0.23473748 -0.04612092 0.07513575
v 0.24926148 -0.04435273 0.08173488
v 0.23473748 -0.04435243 0.08173610
v 0.24926148 -0.03952096 0.08656764
v 0.23473748 -0.03952096 0.08656764
v 0.24926148 -0.03292093 0.08833644
v 0.24926148 -0.03952096 0.08656764
v 0.23473748 -0.03952096 0.08656764
v 0.23473748 -0.03292093 0.08833644
v 0.24926148 -0.02632089 0.08656764
v 0.23473748 -0.02632089 0.08656764
v 0.43718504 -0.03952096 -0.06344456
v 0.41141233 -0.03952127 -0.06344456
v 0.41318113 -0.03292093 -0.06167576
v 0.43718504 -0.03292093 -0.06167576
v 0.41141233 -0.02632058 -0.06344456
v 0.43718504 -0.02632089 -0.06344456
v 0.39997923 -0.04612115 0.07513575
v 0.40658079 -0.04435296 0.06853786
v 0.40658079 -0.04435296 -0.06827854
v 0.39997923 -0.04612115 -0.07487645
v 0.39337766 -0.04435296 0.06853786
v 0.39337766 -0.04435296 -0.06827854
v 0.43718504 -0.04435243 -0.06827611
v 0.41141233 -0.03952127 -0.06344456
v 0.43718504 -0.03952096 -0.06344456
v 0.40658079 -0.04435296 -0.06827854
v 0.43718504 -0.04612092 -0.07487645
v 0.39997923 -0.04612115 -0.07487645
v 0.43718504 -0.04435243 -0.08147557
v 0.39997923 -0.04435365 -0.08147190
v 0.43718504 -0.03952096 -0.08630711
v 0.39997923 -0.03952096 -0.08630711
v 0.37587034 -0.04435304 -0.08147312
v 0.37587034 -0.03952096 -0.08630711
v 0.37587034 -0.04612100 -0.07487645
v 0.39337766 -0.04435296 -0.06827854
v 0.37587034 -0.04435266 -0.06827733
v 0.38854612 -0.03952127 -0.06344456
v 0.37587034 -0.03952111 -0.06344456
v 0.40658079 -0.02148889 0.06853786
v 0.39997923 -0.01972062 -0.07487645
v 0.40658079 -0.02148889 -0.06827854
v 0.39997923 -0.01972062 0.07513575
v 0.39337766 -0.02148889 -0.06827854
v 0.39337766 -0.02148889 0.06853786
v 0.43718504 -0.02632089 -0.06344456
v 0.41141233 -0.02632058 -0.06344456
v 0.40658079 -0.02148889 -0.06827854
v 0.43718504 -0.02148942 -0.06827611
v 0.39997923 -0.01972062 -0.07487645
v 0.43718504 -0.01972093 -0.07487645
v 0.39997923 -0.02148942 -0.08147557
v 0.43718504 -0.02148942 -0.08147557
v 0.39997923 -0.02632089 -0.08630711
v 0.43718504 -0.02632089 -0.08630711
v 0.37587034 -0.02632089 -0.08630711
v 0.37587034 -0.02148942 -0.08147557
v 0.37587034 -0.01972078 -0.07487645
v 0.37587034 -0.02148919 -0.06827733
v 0.39337766 -0.02148889 -0.06827854
v 0.37587034 -0.02632074 -0.06344456
v 0.38854612 -0.02632058 -0.06344456
v 0.43718504 -0.03292093 -0.08807591
v 0.39997923 -0.03952096 -0.08630711
v 0.43718504 -0.03952096 -0.08630711
v 0.39997923 -0.03292093 -0.08807591
v 0.43718504 -0.02632089 -0.08630711
v 0.37587034 -0.03952096 -0.08630711
v 0.39997923 -0.02632089 -0.08630711
v 0.37587034 -0.03292093 -0.08807591
v 0.37587034 -0.02632089 -0.08630711
v 0.37587034 -0.02328241 -0.06931248
v 0.37587034 -0.02735612 -0.06523777
v 0.37051878 -0.02735612 -0.06523777
v 0.37051878 -0.02328233 -0.06931248
v 0.37587034 -0.02179139 -0.07487645
v 0.37051878 -0.02179132 -0.07487645
v 0.37587034 -0.02328248 -0.08044041
v 0.37051878 -0.02328256 -0.08044041
v 0.37587034 -0.02735620 -0.08451389
v 0.37051878 -0.02735620 -0.08451389
v 0.37587034 -0.02735612 -0.06523777
v 0.37051878 -0.03292093 -0.06374608
v 0.37051878 -0.02735612 -0.06523777
v 0.37587034 -0.03292093 -0.06374608
v 0.37051878 -0.03848573 -0.06523777
v 0.37587034 -0.03848565 -0.06523777
v 0.37587034 -0.03848565 -0.06523777
v 0.37051878 -0.04255945 -0.06931248
v 0.37051878 -0.03848573 -0.06523777
v 0.37587034 -0.04255945 -0.06931248
v 0.37051878 -0.04405046 -0.07487645
v 0.37587034 -0.04405046 -0.07487645
v 0.37051878 -0.04255983 -0.08043919
v 0.37587034 -0.04255983 -0.08043797
v 0.37051878 -0.03848535 -0.08451389
v 0.37587034 -0.03848550 -0.08451389
v 0.37587034 -0.03848550 -0.08451389
v 0.37051878 -0.03292093 -0.08600560
v 0.37051878 -0.03848535 -0.08451389
v 0.37587034 -0.03292085 -0.08600560
v 0.37051878 -0.02735620 -0.08451389
v 0.37587034 -0.02735620 -0.08451389
v 0.25461298 -0.02328248 -0.06931126
v 0.25461298 -0.02735612 -0.06523777
v 0.24926148 -0.02735627 -0.06523777
v 0.24926148 -0.02328248 -0.06931126
v 0.25461298 -0.02179139 -0.07487645
v 0.24926148 -0.02179139 -0.07487645
v 0.25461298 -0.02328256 -0.08044041
v 0.24926148 -0.02328256 -0.08044041
v 0.25461298 -0.02735620 -0.08451389
v 0.24926148 -0.02735620 -0.08451389
v 0.25461298 -0.02735612 -0.06523777
v 0.24926148 -0.03292093 -0.06374608
v 0.24926148 -0.02735627 -0.06523777
v 0.25461298 -0.03292093 -0.06374608
v 0.24926148 -0.03848573 -0.06523777
v 0.25461298 -0.03848581 -0.06523777
v 0.25461298 -0.03848581 -0.06523777
v 0.24926148 -0.04255937 -0.06931126
v 0.24926148 -0.03848573 -0.06523777
v 0.25461298 -0.04255945 -0.06931126
v 0.24926148 -0.04405046 -0.07487645
v 0.25461298 -0.04405046 -0.07487645
v 0.24926148 -0.04255952 -0.08043919
v 0.25461298 -0.04255952 -0.08043919
v 0.24926148 -0.03848558 -0.08451389
v 0.25461298 -0.03848558 -0.08451389
v 0.25461298 -0.03848558 -0.08451389
v 0.24926148 -0.03292093 -0.08600560
v 0.24926148 -0.03848558 -0.08451389
v 0.25461298 -0.03292100 -0.08600560
v 0.24926148 -0.02735620 -0.08451389
v 0.25461298 -0.02735620 -0.08451389
v 0.38677854 -0.03292093 -0.06167576
v 0.38854612 -0.03952127 -0.06344456
v 0.37587034 -0.03952111 -0.06344456
v 0.37587034 -0.03292093 -0.06167576
v 0.38854612 -0.02632058 -0.06344456
v 0.37587034 -0.02632074 -0.06344456
v 0.37051878 -0.02148919 -0.06827733
v 0.37051878 -0.02632074 -0.06344456
v 0.25461298 -0.02632081 -0.06344456
v 0.25461298 -0.02148935 -0.06827611
v 0.25461298 -0.01972085 -0.07487645
v 0.37051878 -0.01972078 -0.07487645
v 0.25461298 -0.02148942 -0.08147557
v 0.37051878 -0.02148942 -0.08147557
v 0.25461298 -0.02632089 -0.08630711
v 0.37051878 -0.02632089 -0.08630711
v 0.37051878 -0.03292093 -0.06167576
v 0.25461298 -0.02632081 -0.06344456
v 0.37051878 -0.02632074 -0.06344456
v 0.25461298 -0.03292093 -0.06167576
v 0.37051878 -0.03952111 -0.06344456
v 0.25461298 -0.03952104 -0.06344456
v 0.37051878 -0.04435266 -0.06827733
v 0.25461298 -0.03952104 -0.06344456
v 0.37051878 -0.03952111 -0.06344456
v 0.25461298 -0.04435250 -0.06827611
v 0.37051878 -0.04612100 -0.07487645
v 0.25461298 -0.04612100 -0.07487645
v 0.37051878 -0.04435304 -0.08147312
v 0.25461298 -0.04435273 -0.08147435
v 0.37051878 -0.03952096 -0.08630711
v 0.25461298 -0.03952096 -0.08630711
v 0.37051878 -0.03292093 -0.08807591
v 0.25461298 -0.03952096 -0.08630711
v 0.37051878 -0.03952096 -0.08630711
v 0.25461298 -0.03292093 -0.08807591
v 0.37051878 -0.02632089 -0.08630711
v 0.25461298 -0.02632089 -0.08630711
v 0.24926148 -0.02148935 -0.06827611
v 0.24926148 -0.02632081 -0.06344456
v 0.23473748 -0.02632089 -0.06344456
v 0.23473748 -0.02148942 -0.06827611
v 0.23473748 -0.01972093 -0.07487645
v 0.24926148 -0.01972085 -0.07487645
v 0.23473748 -0.02148942 -0.08147557
v 0.24926148 -0.02148942 -0.08147557
v 0.23473748 -0.02632089 -0.08630711
v 0.24926148 -0.02632089 -0.08630711
v 0.24926148 -0.03292093 -0.06167576
v 0.23473748 -0.02632089 -0.06344456
v 0.24926148 -0.02632081 -0.06344456
v 0.23473748 -0.03292093 -0.06167576
v 0.24926148 -0.03952104 -0.06344456
v 0.23473748 -0.03952096 -0.06344456
v 0.24926148 -0.04435250 -0.06827611
v 0.23473748 -0.03952096 -0.06344456
v 0.24926148 -0.03952104 -0.06344456
v 0.23473748 -0.04435243 -0.06827611
v 0.24926148 -0.04612100 -0.07487645
v 0.23473748 -0.04612092 -0.07487645
v 0.24926148 -0.04435273 -0.08147435
v 0.23473748 -0.04435243 -0.08147557
v 0.24926148 -0.03952096 -0.08630711
v 0.23473748 -0.03952096 -0.08630711
v 0.24926148 -0.03292093 -0.08807591
v 0.23473748 -0.03952096 -0.08630711
v 0.24926148 -0.03952096 -0.08630711
v 0.23473748 -0.03292093 -0.08807591
v 0.24926148 -0.02632089 -0.08630711
v 0.23473748 -0.02632089 -0.08630711
v 0.43718504 -0.04166269 0.07008815
v 0.44218504 -0.03796846 0.06639430
v 0.43718504 -0.03796815 0.06639430
v 0.44218504 -0.04166269 0.07008815
v 0.43718504 -0.04301507 0.07513575
v 0.44218504 -0.04301507 0.07513575
v 0.43718504 -0.04166269 0.08018337
v 0.44218504 -0.04166330 0.08018337
v 0.43718504 -0.03796800 0.08387844
v 0.44218504 -0.03796861 0.08387844
v 0.43718504 -0.03292093 0.06504177
v 0.44218504 -0.02787370 0.06639430
v 0.43718504 -0.02787370 0.06639430
v 0.44218504 -0.03292123 0.06504177
v 0.43718504 -0.03796815 0.06639430
v 0.44218504 -0.03796846 0.06639430
v 0.43718504 -0.02787370 0.06639430
v 0.44218504 -0.02787370 0.06639430
v 0.44218504 -0.02417916 0.07008815
v 0.43718504 -0.02417916 0.07008815
v 0.44218504 -0.02282617 0.07513575
v 0.43718504 -0.02282678 0.07513575
v 0.44218504 -0.02417855 0.08018337
v 0.43718504 -0.02417916 0.08018337
v 0.44218504 -0.02787385 0.08387844
v 0.43718504 -0.02787385 0.08387844
v 0.43718504 -0.02787385 0.08387844
v 0.44218504 -0.02787385 0.08387844
v 0.44218504 -0.03292093 0.08523097
v 0.43718504 -0.03292093 0.08523097
v 0.44218504 -0.03796861 0.08387844
v 0.43718504 -0.03796800 0.08387844
v 0.43718504 -0.03796800 -0.06613377
v 0.44218504 -0.03796861 -0.06613377
v 0.44218504 -0.04166330 -0.06982884
v 0.43718504 -0.04166269 -0.06982884
v 0.44218504 -0.04301507 -0.07487645
v 0.43718504 -0.04301507 -0.07487645
v 0.44218504 -0.04166276 -0.07992283
v 0.43718504 -0.04166276 -0.07992283
v 0.44218504 -0.03796800 -0.08361790
v 0.43718504 -0.03796800 -0.08361790
v 0.43718504 -0.03292093 -0.06478123
v 0.44218504 -0.03796861 -0.06613377
v 0.43718504 -0.03796800 -0.06613377
v 0.44218504 -0.03292062 -0.06478123
v 0.43718504 -0.02787385 -0.06613377
v 0.44218504 -0.02787355 -0.06613377
v 0.43718504 -0.02417916 -0.06982884
v 0.44218504 -0.02787355 -0.06613377
v 0.43718504 -0.02787385 -0.06613377
v 0.44218504 -0.02417855 -0.06982884
v 0.43718504 -0.02282678 -0.07487645
v 0.44218504 -0.02282617 -0.07487645
v 0.43718504 -0.02417909 -0.07992283
v 0.44218504 -0.02417909 -0.07992283
v 0.43718504 -0.02787385 -0.08361790
v 0.44218504 -0.02787385 -0.08361790
v 0.43718504 -0.03796800 -0.08361790
v 0.44218504 -0.03796800 -0.08361790
v 0.44218504 -0.03292093 -0.08497044
v 0.43718504 -0.03292093 -0.08497044
v 0.44218504 -0.02787385 -0.08361790
v 0.43718504 -0.02787385 -0.08361790
v 0.23473748 -0.04435243 0.06853542
v 0.23473748 -0.03952096 0.06370387
v 0.23473748 -0.03292093 0.07513575
v 0.23473748 -0.04612092 0.07513575
v 0.23473748 -0.03292093 0.06193630
v 0.23473748 -0.04435243 0.08173610
v 0.23473748 -0.02632089 0.06370387
v 0.23473748 -0.03952096 0.08656764
v 0.23473748 -0.02148942 0.06853542
v 0.23473748 -0.03292093 0.08833644
v 0.23473748 -0.01972093 0.07513575
v 0.23473748 -0.02632089 0.08656764
v 0.23473748 -0.02148942 0.08173610
v 0.23473748 -0.04435243 -0.06827611
v 0.23473748 -0.04612092 -0.07487645
v 0.23473748 -0.03292093 -0.07487645
v 0.23473748 -0.03952096 -0.06344456
v 0.23473748 -0.04435243 -0.08147557
v 0.23473748 -0.03292093 -0.06167576
v 0.23473748 -0.03952096 -0.08630711
v 0.23473748 -0.02632089 -0.06344456
v 0.23473748 -0.03292093 -0.08807591
v 0.23473748 -0.02148942 -0.06827611
v 0.23473748 -0.02632089 -0.08630711
v 0.23473748 -0.01972093 -0.07487645
v 0.23473748 -0.02148942 -0.08147557
v 0.44218504 -0.03292093 0.07513575
v 0.44218504 -0.04166269 0.07008815
v 0.44218504 -0.04301507 0.07513575
v 0.44218504 -0.03796846 0.06639430
v 0.44218504 -0.04166330 0.08018337
v 0.44218504 -0.03292123 0.06504177
v 0.44218504 -0.03796861 0.08387844
v 0.44218504 -0.02787370 0.06639430
v 0.44218504 -0.03292093 0.08523097
v 0.44218504 -0.02417916 0.07008815
v 0.44218504 -0.02787385 0.08387844
v 0.44218504 -0.02282617 0.07513575
v 0.44218504 -0.02417855 0.08018337
v 0.44218504 -0.03292093 -0.07487645
v 0.44218504 -0.04166330 -0.06982884
v 0.44218504 -0.03796861 -0.06613377
v 0.44218504 -0.04301507 -0.07487645
v 0.44218504 -0.03292062 -0.06478123
v 0.44218504 -0.04166276 -0.07992283
v 0.44218504 -0.02787355 -0.06613377
v 0.44218504 -0.03796800 -0.08361790
v 0.44218504 -0.02417855 -0.06982884
v 0.44218504 -0.03292093 -0.08497044
v 0.44218504 -0.02282617 -0.07487645
v 0.44218504 -0.02787385 -0.08361790
v 0.44218504 -0.02417909 -0.07992283
v 0.43718504 -0.04612092 0.07513575
v 0.43718504 -0.04301507 0.07513575
v 0.43718504 -0.04166269 0.07008815
v 0.43718504 -0.04435243 0.06853542
v 0.43718504 -0.04435243 0.08173610
v 0.43718504 -0.03796815 0.06639430
v 0.43718504 -0.04166269 0.08018337
v 0.43718504 -0.03952096 0.06370387
v 0.43718504 -0.03952096 0.08656764
v 0.43718504 -0.03292093 0.06504177
v 0.43718504 -0.03796800 0.08387844
v 0.43718504 -0.03292093 0.06193630
v 0.43718504 -0.03292093 0.08833644
v 0.43718504 -0.02787370 0.06639430
v 0.43718504 -0.03292093 0.08523097
v 0.43718504 -0.02632089 0.06370387
v 0.43718504 -0.02632089 0.08656764
v 0.43718504 -0.02417916 0.07008815
v 0.43718504 -0.02787385 0.08387844
v 0.43718504 -0.02148942 0.06853542
v 0.43718504 -0.02148942 0.08173610
v 0.43718504 -0.02282678 0.07513575
v 0.43718504 -0.02417916 0.08018337
v 0.43718504 -0.01972093 0.07513575
v 0.43718504 -0.03952096 -0.06344456
v 0.43718504 -0.03796800 -0.06613377
v 0.43718504 -0.04166269 -0.06982884
v 0.43718504 -0.04435243 -0.06827611
v 0.43718504 -0.03292093 -0.06167576
v 0.43718504 -0.04301507 -0.07487645
v 0.43718504 -0.03292093 -0.06478123
v 0.43718504 -0.04612092 -0.07487645
v 0.43718504 -0.02632089 -0.06344456
v 0.43718504 -0.04166276 -0.07992283
v 0.43718504 -0.02787385 -0.06613377
v 0.43718504 -0.04435243 -0.08147557
v 0.43718504 -0.02148942 -0.06827611
v 0.43718504 -0.03796800 -0.08361790
v 0.43718504 -0.02417916 -0.06982884
v 0.43718504 -0.03952096 -0.08630711
v 0.43718504 -0.01972093 -0.07487645
v 0.43718504 -0.03292093 -0.08497044
v 0.43718504 -0.02282678 -0.07487645
v 0.43718504 -0.03292093 -0.08807591
v 0.43718504 -0.02148942 -0.08147557
v 0.43718504 -0.02787385 -0.08361790
v 0.43718504 -0.02417909 -0.07992283
v 0.43718504 -0.02632089 -0.08630711
v 0.37587034 -0.02148919 0.06853663
v 0.37587034 -0.01972078 0.07513575
v 0.37587034 -0.02179139 0.07513575
v 0.37587034 -0.02328241 0.06957180
v 0.37587034 -0.02328248 0.08070094
v 0.37587034 -0.02632074 0.06370510
v 0.37587034 -0.02148942 0.08173610
v 0.37587034 -0.02735612 0.06549709
v 0.37587034 -0.02735620 0.08477443
v 0.37587034 -0.03292093 0.06193630
v 0.37587034 -0.02632089 0.08656764
v 0.37587034 -0.03292093 0.06400661
v 0.37587034 -0.03292085 0.08626491
v 0.37587034 -0.03952111 0.06370510
v 0.37587034 -0.03292093 0.08833644
v 0.37587034 -0.03848565 0.06549709
v 0.37587034 -0.03848550 0.08477443
v 0.37587034 -0.04435266 0.06853663
v 0.37587034 -0.03952096 0.08656764
v 0.37587034 -0.04255945 0.06957180
v 0.37587034 -0.04255983 0.08069850
v 0.37587034 -0.04612100 0.07513575
v 0.37587034 -0.04435304 0.08173366
v 0.37587034 -0.04405046 0.07513575
v 0.37051878 -0.01972078 0.07513575
v 0.37051878 -0.02148919 0.06853663
v 0.37051878 -0.02328233 0.06957180
v 0.37051878 -0.02179132 0.07513575
v 0.37051878 -0.02735612 0.06549709
v 0.37051878 -0.02148942 0.08173610
v 0.37051878 -0.02632074 0.06370510
v 0.37051878 -0.02328256 0.08070094
v 0.37051878 -0.03292093 0.06400661
v 0.37051878 -0.02632089 0.08656764
v 0.37051878 -0.03292093 0.06193630
v 0.37051878 -0.02735620 0.08477443
v 0.37051878 -0.03848573 0.06549709
v 0.37051878 -0.03292093 0.08833644
v 0.37051878 -0.03952111 0.06370510
v 0.37051878 -0.03292093 0.08626491
v 0.37051878 -0.04255945 0.06957180
v 0.37051878 -0.03952096 0.08656764
v 0.37051878 -0.04435266 0.06853663
v 0.37051878 -0.03848535 0.08477443
v 0.37051878 -0.04405046 0.07513575
v 0.37051878 -0.04435304 0.08173366
v 0.37051878 -0.04612100 0.07513575
v 0.37051878 -0.04255983 0.08069850
v 0.25461298 -0.02148935 0.06853663
v 0.25461298 -0.01972085 0.07513575
v 0.25461298 -0.02179139 0.07513575
v 0.25461298 -0.02328248 0.06957180
v 0.25461298 -0.02328256 0.08070094
v 0.25461298 -0.02632081 0.06370387
v 0.25461298 -0.02148942 0.08173610
v 0.25461298 -0.02735612 0.06549709
v 0.25461298 -0.02735620 0.08477443
v 0.25461298 -0.03292093 0.06193630
v 0.25461298 -0.02632089 0.08656764
v 0.25461298 -0.03292093 0.06400661
v 0.25461298 -0.03292100 0.08626491
v 0.25461298 -0.03952104 0.06370387
v 0.25461298 -0.03292093 0.08833644
v 0.25461298 -0.03848581 0.06549709
v 0.25461298 -0.03848558 0.08477443
v 0.25461298 -0.04435250 0.06853663
v 0.25461298 -0.03952096 0.08656764
v 0.25461298 -0.04255945 0.06957180
v 0.25461298 -0.04255952 0.08069972
v 0.25461298 -0.04612100 0.07513575
v 0.25461298 -0.04435273 0.08173488
v 0.25461298 -0.04405046 0.07513575
v 0.24926148 -0.01972085 0.07513575
v 0.24926148 -0.02148935 0.06853663
v 0.24926148 -0.02328248 0.06957180
v 0.24926148 -0.02179139 0.07513575
v 0.24926148 -0.02735627 0.06549709
v 0.24926148 -0.02148942 0.08173610
v 0.24926148 -0.02632081 0.06370387
v 0.24926148 -0.02328256 0.08070094
v 0.24926148 -0.03292093 0.06400661
v 0.24926148 -0.02632089 0.08656764
v 0.24926148 -0.03292093 0.06193630
v 0.24926148 -0.02735620 0.08477443
v 0.24926148 -0.03848573 0.06549709
v 0.24926148 -0.03292093 0.08833644
v 0.24926148 -0.03952104 0.06370387
v 0.24926148 -0.03292093 0.08626491
v 0.24926148 -0.04255937 0.06957180
v 0.24926148 -0.03952096 0.08656764
v 0.24926148 -0.04435250 0.06853663
v 0.24926148 -0.03848558 0.08477443
v 0.24926148 -0.04405046 0.07513575
v 0.24926148 -0.04435273 0.08173488
v 0.24926148 -0.04612100 0.07513575
v 0.24926148 -0.04255952 0.08069972
v 0.37587034 -0.02148919 -0.06827733
v 0.37587034 -0.02328241 -0.06931248
v 0.37587034 -0.02179139 -0.07487645
v 0.37587034 -0.01972078 -0.07487645
v 0.37587034 -0.02632074 -0.06344456
v 0.37587034 -0.02328248 -0.08044041
v 0.37587034 -0.02735612 -0.06523777
v 0.37587034 -0.02148942 -0.08147557
v 0.37587034 -0.03292093 -0.06167576
v 0.37587034 -0.02735620 -0.08451389
v 0.37587034 -0.03292093 -0.06374608
v 0.37587034 -0.02632089 -0.08630711
v 0.37587034 -0.03952111 -0.06344456
v 0.37587034 -0.03292085 -0.08600560
v 0.37587034 -0.03848565 -0.06523777
v 0.37587034 -0.03292093 -0.08807591
v 0.37587034 -0.04435266 -0.06827733
v 0.37587034 -0.03848550 -0.08451389
v 0.37587034 -0.04255945 -0.06931248
v 0.37587034 -0.03952096 -0.08630711
v 0.37587034 -0.04612100 -0.07487645
v 0.37587034 -0.04255983 -0.08043797
v 0.37587034 -0.04405046 -0.07487645
v 0.37587034 -0.04435304 -0.08147312
v 0.37051878 -0.01972078 -0.07487645
v 0.37051878 -0.02179132 -0.07487645
v 0.37051878 -0.02328233 -0.06931248
v 0.37051878 -0.02148919 -0.06827733
v 0.37051878 -0.02148942 -0.08147557
v 0.37051878 -0.02735612 -0.06523777
v 0.37051878 -0.02328256 -0.08044041
v 0.37051878 -0.02632074 -0.06344456
v 0.37051878 -0.02632089 -0.08630711
v 0.37051878 -0.03292093 -0.06374608
v 0.37051878 -0.02735620 -0.08451389
v 0.37051878 -0.03292093 -0.06167576
v 0.37051878 -0.03292093 -0.08807591
v 0.37051878 -0.03848573 -0.06523777
v 0.37051878 -0.03292093 -0.08600560
v 0.37051878 -0.03952111 -0.06344456
v 0.37051878 -0.03952096 -0.08630711
v 0.37051878 -0.04255945 -0.06931248
v 0.37051878 -0.03848535 -0.08451389
v 0.37051878 -0.04435266 -0.06827733
v 0.37051878 -0.04435304 -0.08147312
v 0.37051878 -0.04405046 -0.07487645
v 0.37051878 -0.04255983 -0.08043919
v 0.37051878 -0.04612100 -0.07487645
v 0.25461298 -0.02148935 -0.06827611
v 0.25461298 -0.02328248 -0.06931126
v 0.25461298 -0.02179139 -0.07487645
v 0.25461298 -0.01972085 -0.07487645
v 0.25461298 -0.02632081 -0.06344456
v 0.25461298 -0.02328256 -0.08044041
v 0.25461298 -0.02735612 -0.06523777
v 0.25461298 -0.02148942 -0.08147557
v 0.25461298 -0.03292093 -0.06167576
v 0.25461298 -0.02735620 -0.08451389
v 0.25461298 -0.03292093 -0.06374608
v 0.25461298 -0.02632089 -0.08630711
v 0.25461298 -0.03952104 -0.06344456
v 0.25461298 -0.03292100 -0.08600560
v 0.25461298 -0.03848581 -0.06523777
v 0.25461298 -0.03292093 -0.08807591
v 0.25461298 -0.04435250 -0.06827611
v 0.25461298 -0.03848558 -0.08451389
v 0.25461298 -0.04255945 -0.06931126
v 0.25461298 -0.03952096 -0.08630711
v 0.25461298 -0.04612100 -0.07487645
v 0.25461298 -0.04255952 -0.08043919
v 0.25461298 -0.04405046 -0.07487645
v 0.25461298 -0.04435273 -0.08147435
v 0.24926148 -0.01972085 -0.07487645
v 0.24926148 -0.02179139 -0.07487645
v 0.24926148 -0.02328248 -0.06931126
v 0.24926148 -0.02148935 -0.06827611
v 0.24926148 -0.02148942 -0.08147557
v 0.24926148 -0.02735627 -0.06523777
v 0.24926148 -0.02328256 -0.08044041
v 0.24926148 -0.02632081 -0.06344456
v 0.24926148 -0.02632089 -0.08630711
v 0.24926148 -0.03292093 -0.06374608
v 0.24926148 -0.02735620 -0.08451389
v 0.24926148 -0.03292093 -0.06167576
v 0.24926148 -0.03292093 -0.08807591
v 0.24926148 -0.03848573 -0.06523777
v 0.24926148 -0.03292093 -0.08600560
v 0.24926148 -0.03952104 -0.06344456
v 0.24926148 -0.03952096 -0.08630711
v 0.24926148 -0.04255937 -0.06931126
v 0.24926148 -0.03848558 -0.08451389
v 0.24926148 -0.04435250 -0.06827611
v 0.24926148 -0.04435273 -0.08147435
v 0.24926148 -0.04405046 -0.07487645
v 0.24926148 -0.04255952 -0.08043919
v 0.24926148 -0.04612100 -0.07487645
vt -9.37945600 0.78593460
vt -9.36896200 0.74777450
vt -9.37945700 0.74496250
vt -9.36896200 0.78593460
vt -9.35847000 0.74496250
vt -9.35847000 0.78593460
vt -9.93898600 0.19827180
vt -9.93898600 0.20626740
vt -9.89633800 0.20626560
vt -9.88834300 0.19826820
vt -9.93898600 0.18735030
vt -9.87741900 0.18735030
vt -9.93898600 0.17642790
vt -9.87741900 0.17643600
vt -9.93898600 0.16843320
vt -9.87741900 0.16843320
vt -9.83752400 0.17643240
vt -9.83752400 0.16843320
vt -9.83752400 0.18735030
vt -9.86649400 0.19826820
vt -9.83752400 0.19827000
vt -9.85850000 0.20626560
vt -9.83752400 0.20626560
vt -9.71183100 0.41666820
vt -9.66118800 0.42466840
vt -9.66918400 0.41667010
vt -9.71183100 0.42466290
vt -9.65026400 0.43558630
vt -9.71183100 0.43558630
vt -9.65026400 0.44650790
vt -9.71183100 0.44650790
vt -9.65026400 0.45450260
vt -9.71183100 0.45450260
vt -9.61037000 0.45450260
vt -9.61037000 0.44650790
vt -9.61037000 0.43558630
vt -9.61037000 0.42466470
vt -9.63933900 0.42466840
vt -9.61037000 0.41667010
vt -9.63134500 0.41667010
vt -9.51427200 0.35574270
vt -9.52254200 0.12981760
vt -9.52254200 0.36401460
vt -9.51427200 0.13809140
vt -9.50297300 0.35271500
vt -9.50297300 0.14111910
vt -9.49167500 0.35574270
vt -9.49167500 0.13809140
vt -9.48340400 0.36401460
vt -9.48340400 0.12981760
vt -9.43331100 0.12981610
vt -9.43331100 0.36402010
vt -9.42504100 0.35574620
vt -9.42504100 0.13809000
vt -9.41374300 0.35271840
vt -9.41374300 0.14111780
vt -9.40244500 0.35574620
vt -9.40244500 0.13809000
vt -9.39417500 0.36402010
vt -9.39417500 0.12981610
vt -9.31295000 0.57944450
vt -9.30245700 0.57944450
vt -9.30245700 0.52029540
vt -9.31295000 0.52029540
vt -9.32344300 0.57944450
vt -9.30245700 0.48196830
vt -9.32344300 0.52029540
vt -9.31295000 0.48196830
vt -9.32344300 0.48196830
vt -9.17759200 0.95073540
vt -9.16845200 0.94377530
vt -9.17759200 0.94377530
vt -9.16845200 0.95073540
vt -9.17759200 0.96023990
vt -9.16845200 0.96023990
vt -9.17759200 0.96974450
vt -9.16845200 0.96974450
vt -9.17759200 0.97670280
vt -9.16845200 0.97670280
vt -9.79190300 0.85067530
vt -9.78339300 0.85067530
vt -9.78339300 0.84182550
vt -9.79190300 0.84182550
vt -9.78339300 0.83297480
vt -9.79190300 0.83297560
vt -9.20286200 0.97670140
vt -9.19372000 0.97670140
vt -9.19372000 0.96974210
vt -9.20286200 0.96974210
vt -9.19372000 0.96023850
vt -9.20286200 0.96023850
vt -9.19372000 0.95073680
vt -9.20286200 0.95073680
vt -9.19372000 0.94377470
vt -9.20286200 0.94377470
vt -9.81716700 0.85065900
vt -9.80866600 0.85065900
vt -9.80866600 0.84182020
vt -9.81716700 0.84182020
vt -9.80866600 0.83298140
vt -9.81716700 0.83298140
vt -9.22813000 0.95073130
vt -9.21898700 0.94376800
vt -9.22813000 0.94376800
vt -9.21898700 0.95073130
vt -9.22813000 0.96023990
vt -9.21898700 0.96023990
vt -9.22813000 0.96974860
vt -9.21898700 0.96974860
vt -9.22813000 0.97671000
vt -9.21898700 0.97671000
vt -9.84244000 0.85067350
vt -9.83392900 0.85067350
vt -9.83392900 0.84182350
vt -9.84244000 0.84182350
vt -9.83392900 0.83297270
vt -9.84244000 0.83297270
vt -9.25339600 0.97670450
vt -9.24425400 0.97670450
vt -9.24425400 0.96974400
vt -9.25339600 0.96974400
vt -9.24425400 0.96023850
vt -9.25339600 0.96023850
vt -9.24425400 0.95073300
vt -9.25339600 0.95073300
vt -9.24425400 0.94377150
vt -9.25339600 0.94377150
vt -9.86770800 0.85067410
vt -9.85919400 0.85067410
vt -9.85919400 0.84182020
vt -9.86770800 0.84182020
vt -9.85919400 0.83296620
vt -9.86770800 0.83296620
vt -9.70504400 0.84553260
vt -9.68770500 0.83504110
vt -9.70785300 0.83504020
vt -9.68770500 0.84553260
vt -9.70785300 0.85602410
vt -9.68770500 0.85602410
vt -9.33578100 0.30848920
vt -9.34403600 0.11047910
vt -9.34403500 0.30848920
vt -9.33578100 0.11047910
vt -9.32450600 0.11047910
vt -9.32450600 0.30848920
vt -9.31323100 0.11047910
vt -9.31323100 0.30848920
vt -9.30497700 0.11047910
vt -9.30497700 0.30848920
vt -9.25257400 0.30162100
vt -9.24208100 0.30162100
vt -9.24208100 0.11734730
vt -9.25257400 0.11734730
vt -9.26306700 0.30162100
vt -9.26306700 0.11734730
vt -9.16968600 0.30848900
vt -9.16143100 0.30848900
vt -9.16143000 0.11047930
vt -9.16968600 0.11047930
vt -9.18095900 0.30848900
vt -9.18095900 0.11047930
vt -9.19223000 0.30848900
vt -9.19223200 0.11047930
vt -9.20048900 0.30848900
vt -9.20048900 0.11047930
vt -9.10902600 0.30162070
vt -9.09853400 0.30162070
vt -9.09853400 0.11734370
vt -9.10902600 0.11734370
vt -9.11951900 0.30162070
vt -9.11951900 0.11734370
vt -9.27037000 0.86955040
vt -9.24555700 0.86129440
vt -9.27037000 0.86129440
vt -9.24555700 0.86954850
vt -9.24555700 0.88082640
vt -9.27037000 0.88082640
vt -9.24555700 0.89210240
vt -9.27037000 0.89210240
vt -9.24555700 0.90035660
vt -9.27037000 0.90035660
vt -9.48524800 0.85944420
vt -9.47475800 0.85944420
vt -9.47475800 0.83635990
vt -9.48524800 0.83635990
vt -9.49573700 0.85944420
vt -9.49573700 0.83635990
vt -9.21217400 0.89209930
vt -9.21217400 0.90035590
vt -9.18736200 0.90035590
vt -9.18736200 0.89210110
vt -9.21217400 0.88082550
vt -9.18736200 0.88082550
vt -9.21217400 0.86955170
vt -9.18736200 0.86954890
vt -9.21217400 0.86129500
vt -9.18736200 0.86129500
vt -9.53861500 0.85944150
vt -9.52812500 0.85944150
vt -9.52812500 0.83635480
vt -9.53861500 0.83635480
vt -9.54910600 0.85944150
vt -9.54910600 0.83635480
vt -9.30415500 0.71104810
vt -9.30415500 0.67007220
vt -9.31464900 0.67288450
vt -9.31464900 0.71104810
vt -9.32514200 0.67007220
vt -9.32514200 0.71104810
vt -9.87741900 0.18735030
vt -9.88834300 0.19826820
vt -9.88834300 0.42466720
vt -9.87741900 0.43558510
vt -9.86649400 0.19826820
vt -9.86649400 0.42466720
vt -9.93898600 0.42466310
vt -9.89633800 0.41666810
vt -9.93898600 0.41666810
vt -9.88834300 0.42466720
vt -9.93898600 0.43558510
vt -9.87741900 0.43558510
vt -9.93898600 0.44650530
vt -9.87741900 0.44649940
vt -9.93898600 0.45450040
vt -9.87741900 0.45450040
vt -9.83752400 0.44650120
vt -9.83752400 0.45450040
vt -9.83752400 0.43558510
vt -9.86649400 0.42466720
vt -9.83752400 0.42466540
vt -9.85850000 0.41666810
vt -9.83752400 0.41666810
vt -9.66118800 0.42466840
vt -9.65026400 0.18734920
vt -9.66118800 0.19826720
vt -9.65026400 0.43558630
vt -9.63933900 0.19826720
vt -9.63933900 0.42466840
vt -9.71183100 0.20626550
vt -9.66918400 0.20626550
vt -9.66118800 0.19826720
vt -9.71183100 0.19827080
vt -9.65026400 0.18734920
vt -9.71183100 0.18734920
vt -9.65026400 0.17642940
vt -9.71183100 0.17642940
vt -9.65026400 0.16843300
vt -9.71183100 0.16843300
vt -9.61037000 0.16843300
vt -9.61037000 0.17642940
vt -9.61037000 0.18734920
vt -9.61037000 0.19826900
vt -9.63933900 0.19826720
vt -9.61037000 0.20626550
vt -9.63134500 0.20626550
vt -9.36631800 0.65431770
vt -9.37681100 0.59516470
vt -9.37681100 0.65431770
vt -9.36631800 0.59516470
vt -9.35582400 0.65431770
vt -9.37681100 0.55683460
vt -9.35582400 0.59516470
vt -9.36631800 0.55683460
vt -9.35582400 0.55683460
vt -9.27866500 0.96974050
vt -9.27866500 0.97670330
vt -9.26952100 0.97670330
vt -9.26952100 0.96974050
vt -9.27866500 0.96023420
vt -9.26952100 0.96023420
vt -9.27866500 0.95072590
vt -9.26952100 0.95072590
vt -9.27866500 0.94376680
vt -9.26952100 0.94376680
vt -9.89297200 0.83297650
vt -9.88446700 0.84182020
vt -9.88446700 0.83297650
vt -9.89297200 0.84182020
vt -9.88446700 0.85066380
vt -9.89297200 0.85066380
vt -9.30393300 0.75871160
vt -9.29478900 0.76567240
vt -9.29478900 0.75871160
vt -9.30393300 0.76567240
vt -9.29478900 0.77517700
vt -9.30393300 0.77517700
vt -9.29478900 0.78468030
vt -9.30393300 0.78467800
vt -9.29478900 0.79164110
vt -9.30393300 0.79164110
vt -9.91824200 0.83297490
vt -9.90973400 0.84182210
vt -9.90973400 0.83297490
vt -9.91824200 0.84182210
vt -9.90973400 0.85066930
vt -9.91824200 0.85066930
vt -9.32920100 0.78468350
vt -9.32920100 0.79164460
vt -9.32005700 0.79164460
vt -9.32005700 0.78468350
vt -9.32920100 0.77517500
vt -9.32005700 0.77517500
vt -9.32920100 0.76566650
vt -9.32005700 0.76566650
vt -9.32920100 0.75870720
vt -9.32005700 0.75870720
vt -9.94351000 0.83297230
vt -9.93500100 0.84182020
vt -9.93500100 0.83297230
vt -9.94351000 0.84182020
vt -9.93500100 0.85066810
vt -9.94351000 0.85066810
vt -9.35446700 0.83359870
vt -9.34532500 0.84055810
vt -9.34532500 0.83359870
vt -9.35446700 0.84055810
vt -9.34532500 0.85006640
vt -9.35446700 0.85006640
vt -9.34532500 0.85957100
vt -9.35446700 0.85957100
vt -9.34532500 0.86653270
vt -9.35446700 0.86653270
vt -9.96877900 0.83297140
vt -9.96026600 0.84182210
vt -9.96026600 0.83297140
vt -9.96877900 0.84182210
vt -9.96026600 0.85067290
vt -9.96877900 0.85067290
vt -9.75653600 0.84552730
vt -9.75934500 0.85601960
vt -9.73919400 0.85601960
vt -9.73919400 0.84552730
vt -9.75934500 0.83503500
vt -9.73919400 0.83503500
vt -9.03631500 0.72743530
vt -9.02805900 0.72743530
vt -9.02805900 0.52942530
vt -9.03631300 0.52942530
vt -9.04758800 0.52942530
vt -9.04758800 0.72743530
vt -9.05886200 0.52942530
vt -9.05886200 0.72743530
vt -9.06711700 0.52942530
vt -9.06711700 0.72743530
vt -9.11825300 0.72057230
vt -9.12874600 0.53630010
vt -9.12874600 0.72057230
vt -9.11825300 0.53630010
vt -9.10775900 0.72057230
vt -9.10775900 0.53630010
vt -9.20019100 0.72743800
vt -9.20844700 0.52943040
vt -9.20844700 0.72743800
vt -9.20019200 0.52943040
vt -9.18891700 0.72743800
vt -9.18891700 0.52943040
vt -9.17764800 0.72743800
vt -9.17764500 0.52943040
vt -9.16939000 0.72743800
vt -9.16939000 0.52943040
vt -9.25958300 0.72057270
vt -9.27007600 0.53629580
vt -9.27007600 0.72057270
vt -9.25958300 0.53629580
vt -9.24909000 0.72057270
vt -9.24909000 0.53629580
vt -9.15398100 0.89210030
vt -9.15398100 0.90035500
vt -9.12916700 0.90035500
vt -9.12916700 0.89210030
vt -9.12916700 0.88082360
vt -9.15398100 0.88082360
vt -9.12916700 0.86954860
vt -9.15398100 0.86954860
vt -9.12916700 0.86129210
vt -9.15398100 0.86129210
vt -9.59198300 0.85944370
vt -9.60247500 0.83635260
vt -9.60247500 0.85944370
vt -9.59198300 0.83635260
vt -9.58149100 0.85944370
vt -9.58149100 0.83635260
vt -9.09578300 0.86954520
vt -9.07097200 0.86129150
vt -9.09578300 0.86129150
vt -9.07097200 0.86954520
vt -9.09578300 0.88082060
vt -9.07097200 0.88082060
vt -9.09578300 0.89209210
vt -9.07097200 0.89209400
vt -9.09578300 0.90034780
vt -9.07097200 0.90034780
vt -9.64535100 0.85944840
vt -9.65584400 0.83635570
vt -9.65584400 0.85944840
vt -9.64535100 0.83635570
vt -9.63485700 0.85944840
vt -9.63485700 0.83635570
vt -9.37026300 0.85548160
vt -9.37880400 0.86179250
vt -9.37026300 0.86179250
vt -9.37880400 0.85548160
vt -9.37026300 0.84685860
vt -9.37880400 0.84685860
vt -9.37026300 0.83823560
vt -9.37880400 0.83823560
vt -9.37026300 0.83192290
vt -9.37880400 0.83192290
vt -9.98509000 0.83996990
vt -9.99304400 0.84799900
vt -9.98509000 0.84799900
vt -9.99304400 0.83996910
vt -9.98509000 0.83194000
vt -9.99304400 0.83194000
vt -9.39427000 0.83826510
vt -9.40281300 0.83826510
vt -9.40281300 0.84457610
vt -9.39427000 0.84457610
vt -9.40281300 0.85320020
vt -9.39427000 0.85320020
vt -9.40281300 0.86182240
vt -9.39427000 0.86182240
vt -9.40281300 0.86813530
vt -9.39427000 0.86813530
vt -9.95968200 0.87576540
vt -9.96762800 0.87576540
vt -9.96762800 0.88378440
vt -9.95968200 0.88378440
vt -9.96762800 0.89180680
vt -9.95968200 0.89180680
vt -9.41828000 0.83826220
vt -9.42682300 0.83826220
vt -9.42682300 0.84457630
vt -9.41828000 0.84457630
vt -9.42682300 0.85320120
vt -9.41828000 0.85320120
vt -9.42682300 0.86182460
vt -9.41828000 0.86182460
vt -9.42682300 0.86813820
vt -9.41828000 0.86813820
vt -9.93446300 0.88377650
vt -9.94241200 0.89180330
vt -9.93446300 0.89180330
vt -9.94241200 0.88377650
vt -9.93446300 0.87575320
vt -9.94241200 0.87575320
vt -9.44228800 0.86182290
vt -9.45083000 0.86813280
vt -9.44228800 0.86813280
vt -9.45083000 0.86182290
vt -9.44228800 0.85320020
vt -9.45083000 0.85320020
vt -9.44228800 0.84457940
vt -9.45083000 0.84457940
vt -9.44228800 0.83826760
vt -9.45083000 0.83826760
vt -9.90924400 0.87576090
vt -9.91719500 0.87576090
vt -9.91719500 0.88378950
vt -9.90924400 0.88378950
vt -9.91719500 0.89181710
vt -9.90924400 0.89181710
vt -9.45363100 0.52521150
vt -9.46118200 0.53276130
vt -9.44331700 0.54307400
vt -9.44331700 0.52244860
vt -9.46394300 0.54307400
vt -9.43300400 0.52521150
vt -9.46118200 0.55338660
vt -9.42545600 0.53276130
vt -9.45363100 0.56093560
vt -9.42269100 0.54307400
vt -9.44331700 0.56369930
vt -9.42545600 0.55338660
vt -9.43300400 0.56093560
vt -9.93614200 0.65431000
vt -9.94645400 0.65154730
vt -9.94645400 0.67217140
vt -9.92859400 0.66185930
vt -9.95676400 0.65431000
vt -9.92583000 0.67217140
vt -9.96431500 0.66185930
vt -9.92859400 0.68248350
vt -9.96707800 0.67217140
vt -9.93614200 0.69003200
vt -9.96431500 0.68248350
vt -9.94645400 0.69279560
vt -9.95676400 0.69003200
vt -9.04280100 0.96186200
vt -9.03491500 0.94820450
vt -9.04280100 0.94609190
vt -9.02914400 0.95397650
vt -9.05068600 0.94820370
vt -9.02703200 0.96186110
vt -9.05645900 0.95397560
vt -9.02914400 0.96974660
vt -9.05857200 0.96186200
vt -9.03491500 0.97551850
vt -9.05645900 0.96974660
vt -9.04280100 0.97763290
vt -9.05068600 0.97551940
vt -9.12119100 0.96186580
vt -9.12907800 0.94820520
vt -9.13485200 0.95397820
vt -9.12119100 0.94609300
vt -9.13696500 0.96186580
vt -9.11330600 0.94820610
vt -9.13485200 0.96975270
vt -9.10753300 0.95397900
vt -9.12907800 0.97552560
vt -9.10541900 0.96186580
vt -9.12119100 0.97763950
vt -9.10753300 0.96975180
vt -9.11330600 0.97552480
vt -9.54707500 0.75004340
vt -9.54707500 0.75489580
vt -9.53918900 0.75700870
vt -9.53676300 0.75280610
vt -9.55738800 0.75280610
vt -9.53341800 0.76278120
vt -9.55496100 0.75700870
vt -9.52921500 0.76035540
vt -9.56493700 0.76035540
vt -9.53130500 0.77066740
vt -9.56073500 0.76278120
vt -9.52645200 0.77066740
vt -9.56770000 0.77066740
vt -9.53341800 0.77855270
vt -9.56284900 0.77066740
vt -9.52921500 0.78097930
vt -9.56493700 0.78097930
vt -9.53918900 0.78432510
vt -9.56073500 0.77855270
vt -9.53676300 0.78852770
vt -9.55738800 0.78852770
vt -9.54707500 0.78643880
vt -9.55496100 0.78432510
vt -9.54707500 0.79129120
vt -9.46406700 0.76035560
vt -9.45986400 0.76278140
vt -9.45409100 0.75700900
vt -9.45651700 0.75280650
vt -9.46683000 0.77066740
vt -9.44620500 0.75489620
vt -9.46197700 0.77066740
vt -9.44620500 0.75004380
vt -9.46406700 0.78097920
vt -9.43832100 0.75700900
vt -9.45986400 0.77855250
vt -9.43589500 0.75280650
vt -9.45651700 0.78852740
vt -9.43254800 0.76278140
vt -9.45409100 0.78432490
vt -9.42834600 0.76035560
vt -9.44620500 0.79129090
vt -9.43043400 0.77066740
vt -9.44620500 0.78643850
vt -9.42558200 0.77066740
vt -9.43589500 0.78852740
vt -9.43254800 0.77855250
vt -9.43832100 0.78432490
vt -9.42834600 0.78097920
vt -9.55425300 0.69002940
vt -9.54394300 0.69279130
vt -9.54394300 0.68955670
vt -9.55263500 0.68722810
vt -9.53525200 0.68722810
vt -9.56179900 0.68248240
vt -9.53363400 0.69002850
vt -9.55900000 0.68086500
vt -9.52888800 0.68086500
vt -9.56456200 0.67217340
vt -9.52608800 0.68248240
vt -9.56132600 0.67217340
vt -9.52656300 0.67217340
vt -9.56179900 0.66186440
vt -9.52332500 0.67217340
vt -9.55900000 0.66348170
vt -9.52888800 0.66348170
vt -9.55425300 0.65431740
vt -9.52608800 0.66186440
vt -9.55263500 0.65711860
vt -9.53525600 0.65711770
vt -9.54394300 0.65155550
vt -9.53363800 0.65431650
vt -9.54394300 0.65478920
vt -9.64457000 0.69280210
vt -9.63425700 0.69003870
vt -9.63587500 0.68723610
vt -9.64457000 0.68956670
vt -9.62950800 0.68086960
vt -9.65488500 0.69003790
vt -9.62670600 0.68248770
vt -9.65326800 0.68723610
vt -9.62717800 0.67217340
vt -9.66243600 0.68248770
vt -9.62394200 0.67217340
vt -9.65963500 0.68086960
vt -9.62950800 0.66347630
vt -9.66520000 0.67217340
vt -9.62670600 0.66185900
vt -9.66196300 0.67217340
vt -9.63587500 0.65711060
vt -9.66243600 0.66185900
vt -9.63425700 0.65430800
vt -9.65963500 0.66347720
vt -9.64457000 0.65478010
vt -9.65488100 0.65430710
vt -9.64457000 0.65154470
vt -9.65326300 0.65710980
vt -9.75551300 0.69003720
vt -9.74519900 0.69280120
vt -9.74519900 0.68956510
vt -9.75389500 0.68723550
vt -9.73650300 0.68723550
vt -9.76306300 0.68248730
vt -9.73488500 0.69003720
vt -9.76026200 0.68086930
vt -9.73013700 0.68086930
vt -9.76582700 0.67217340
vt -9.72733600 0.68248730
vt -9.76259100 0.67217340
vt -9.72780800 0.67217340
vt -9.76306300 0.66185950
vt -9.72457100 0.67217340
vt -9.76026200 0.66347670
vt -9.73013700 0.66347750
vt -9.75551300 0.65430870
vt -9.72733600 0.66185950
vt -9.75389500 0.65711130
vt -9.73650500 0.65711130
vt -9.74519900 0.65154550
vt -9.73488700 0.65430870
vt -9.74519900 0.65478080
vt -9.84582500 0.69279230
vt -9.83551800 0.69002920
vt -9.83713300 0.68722850
vt -9.84582500 0.68955730
vt -9.83076900 0.68086440
vt -9.85613500 0.69002920
vt -9.82796700 0.68248190
vt -9.85451900 0.68722850
vt -9.82844000 0.67217140
vt -9.86368500 0.68248190
vt -9.82520600 0.67217140
vt -9.86088300 0.68086440
vt -9.83076900 0.66347770
vt -9.86644600 0.67217140
vt -9.82796700 0.66186090
vt -9.86321200 0.67217140
vt -9.83713300 0.65711440
vt -9.86368500 0.66186090
vt -9.83551800 0.65431280
vt -9.86088300 0.66347850
vt -9.84582500 0.65478470
vt -9.85613400 0.65431280
vt -9.84582500 0.65155050
vt -9.85451700 0.65711440
vt -9.94044900 0.78852200
vt -9.94206700 0.78572070
vt -9.95075700 0.78804930
vt -9.95075700 0.79128400
vt -9.93290100 0.78097470
vt -9.95944900 0.78572070
vt -9.93570100 0.77935730
vt -9.96106500 0.78852120
vt -9.93013800 0.77066540
vt -9.96581100 0.77935730
vt -9.93337200 0.77066540
vt -9.96861400 0.78097470
vt -9.93290100 0.76035610
vt -9.96814200 0.77066540
vt -9.93570100 0.76197340
vt -9.97137600 0.77066540
vt -9.94044900 0.75280880
vt -9.96581100 0.76197340
vt -9.94206700 0.75561010
vt -9.96861400 0.76035610
vt -9.95075700 0.75004680
vt -9.95944300 0.75560930
vt -9.95075700 0.75328070
vt -9.96106100 0.75280790
vt -9.84969000 0.79129710
vt -9.84969000 0.78806130
vt -9.85838700 0.78573030
vt -9.86000500 0.78853340
vt -9.83937600 0.78853260
vt -9.86475600 0.77936290
vt -9.84099400 0.78573030
vt -9.86755800 0.78098120
vt -9.83182500 0.78098120
vt -9.86708700 0.77066540
vt -9.83462700 0.77936290
vt -9.87032300 0.77066540
vt -9.82906000 0.77066540
vt -9.86475600 0.76196710
vt -9.83229600 0.77066540
vt -9.86755800 0.76034960
vt -9.83182500 0.76034960
vt -9.85838700 0.75560050
vt -9.83462700 0.76196790
vt -9.86000500 0.75279740
vt -9.83938000 0.75279650
vt -9.84969000 0.75326960
vt -9.84099600 0.75559960
vt -9.84969000 0.75003370
vt -9.73850800 0.78852820
vt -9.74012600 0.78572700
vt -9.74881900 0.78805620
vt -9.74881900 0.79129180
vt -9.73095900 0.78097960
vt -9.75751300 0.78572700
vt -9.73376100 0.77936180
vt -9.75913000 0.78852820
vt -9.72819600 0.77066740
vt -9.76387700 0.77936180
vt -9.73142900 0.77066740
vt -9.76668000 0.78097960
vt -9.73095900 0.76035510
vt -9.76620900 0.77066740
vt -9.73376100 0.76197210
vt -9.76944400 0.77066740
vt -9.73850800 0.75280570
vt -9.76387700 0.76197290
vt -9.74012600 0.75560770
vt -9.76668000 0.76035510
vt -9.74881900 0.75004290
vt -9.75751000 0.75560770
vt -9.74881900 0.75327760
vt -9.75912800 0.75280570
vt -9.64794800 0.79129160
vt -9.64794800 0.78805600
vt -9.65664400 0.78572680
vt -9.65826000 0.78852800
vt -9.63763800 0.78852800
vt -9.66300900 0.77936170
vt -9.63925500 0.78572680
vt -9.66581000 0.78097950
vt -9.63008800 0.78097950
vt -9.66533800 0.77066740
vt -9.63289000 0.77936170
vt -9.66857300 0.77066740
vt -9.62732500 0.77066740
vt -9.66300900 0.76197210
vt -9.63056000 0.77066740
vt -9.66581000 0.76035520
vt -9.63008800 0.76035520
vt -9.65664400 0.75560780
vt -9.63289000 0.76197300
vt -9.65826000 0.75280580
vt -9.63763900 0.75280580
vt -9.64794800 0.75327780
vt -9.63925600 0.75560780
vt -9.64794800 0.75004300
f 3/3 2/2 1/1
f 2/2 4/4 1/1
f 2/2 5/5 4/4
f 5/5 6/6 4/4
f 9/9 8/8 7/7
f 10/10 9/9 7/7
f 10/10 7/7 11/11
f 12/12 10/10 11/11
f 12/12 11/11 13/13
f 14/14 12/12 13/13
f 14/14 13/13 15/15
f 16/16 14/14 15/15
f 17/17 14/14 16/16
f 18/18 17/17 16/16
f 17/17 19/19 14/14
f 19/19 12/12 14/14
f 12/12 19/19 20/20
f 19/19 21/21 20/20
f 20/20 21/21 22/22
f 21/21 23/23 22/22
f 26/26 25/25 24/24
f 25/25 27/27 24/24
f 25/25 28/28 27/27
f 28/28 29/29 27/27
f 28/28 30/30 29/29
f 30/30 31/31 29/29
f 30/30 32/32 31/31
f 32/32 33/33 31/31
f 34/34 32/32 30/30
f 35/35 34/34 30/30
f 35/35 30/30 28/28
f 36/36 35/35 28/28
f 37/37 36/36 28/28
f 38/38 37/37 28/28
f 39/39 37/37 38/38
f 40/40 39/39 38/38
f 43/43 42/42 41/41
f 42/42 44/44 41/41
f 41/41 44/44 45/45
f 44/44 46/46 45/45
f 45/45 46/46 47/47
f 46/46 48/48 47/47
f 47/47 48/48 49/49
f 48/48 50/50 49/49
f 53/53 52/52 51/51
f 54/54 53/53 51/51
f 55/55 53/53 54/54
f 56/56 55/55 54/54
f 57/57 55/55 56/56
f 58/58 57/57 56/56
f 59/59 57/57 58/58
f 60/60 59/59 58/58
f 63/63 62/62 61/61
f 64/64 63/63 61/61
f 64/64 61/61 65/65
f 66/66 63/63 64/64
f 67/67 64/64 65/65
f 68/68 66/66 64/64
f 68/68 64/64 67/67
f 69/69 68/68 67/67
f 72/72 71/71 70/70
f 71/71 73/73 70/70
f 74/74 70/70 73/73
f 75/75 74/74 73/73
f 74/74 75/75 76/76
f 75/75 77/77 76/76
f 76/76 77/77 78/78
f 77/77 79/79 78/78
f 82/82 81/81 80/80
f 83/83 82/82 80/80
f 84/84 82/82 83/83
f 85/85 84/84 83/83
f 88/88 87/87 86/86
f 89/89 88/88 86/86
f 90/90 88/88 89/89
f 91/91 90/90 89/89
f 92/92 90/90 91/91
f 93/93 92/92 91/91
f 94/94 92/92 93/93
f 95/95 94/94 93/93
f 98/98 97/97 96/96
f 99/99 98/98 96/96
f 100/100 98/98 99/99
f 101/101 100/100 99/99
f 104/104 103/103 102/102
f 103/103 105/105 102/102
f 106/106 102/102 105/105
f 107/107 106/106 105/105
f 106/106 107/107 108/108
f 107/107 109/109 108/108
f 108/108 109/109 110/110
f 109/109 111/111 110/110
f 114/114 113/113 112/112
f 115/115 114/114 112/112
f 116/116 114/114 115/115
f 117/117 116/116 115/115
f 120/120 119/119 118/118
f 121/121 120/120 118/118
f 122/122 120/120 121/121
f 123/123 122/122 121/121
f 124/124 122/122 123/123
f 125/125 124/124 123/123
f 126/126 124/124 125/125
f 127/127 126/126 125/125
f 130/130 129/129 128/128
f 131/131 130/130 128/128
f 132/132 130/130 131/131
f 133/133 132/132 131/131
f 136/136 135/135 134/134
f 135/135 137/137 134/134
f 134/134 137/137 138/138
f 137/137 139/139 138/138
f 142/142 141/141 140/140
f 141/141 143/143 140/140
f 143/143 144/144 140/140
f 144/144 145/145 140/140
f 144/144 146/146 145/145
f 146/146 147/147 145/145
f 146/146 148/148 147/147
f 148/148 149/149 147/147
f 152/152 151/151 150/150
f 153/153 152/152 150/150
f 153/153 150/150 154/154
f 155/155 153/153 154/154
f 158/158 157/157 156/156
f 159/159 158/158 156/156
f 159/159 156/156 160/160
f 161/161 159/159 160/160
f 161/161 160/160 162/162
f 163/163 161/161 162/162
f 163/163 162/162 164/164
f 165/165 163/163 164/164
f 168/168 167/167 166/166
f 169/169 168/168 166/166
f 169/169 166/166 170/170
f 171/171 169/169 170/170
f 174/174 173/173 172/172
f 173/173 175/175 172/172
f 175/175 176/176 172/172
f 176/176 177/177 172/172
f 176/176 178/178 177/177
f 178/178 179/179 177/177
f 178/178 180/180 179/179
f 180/180 181/181 179/179
f 184/184 183/183 182/182
f 185/185 184/184 182/182
f 185/185 182/182 186/186
f 187/187 185/185 186/186
f 190/190 189/189 188/188
f 191/191 190/190 188/188
f 191/191 188/188 192/192
f 193/193 191/191 192/192
f 193/193 192/192 194/194
f 195/195 193/193 194/194
f 195/195 194/194 196/196
f 197/197 195/195 196/196
f 200/200 199/199 198/198
f 201/201 200/200 198/198
f 201/201 198/198 202/202
f 203/203 201/201 202/202
f 206/206 205/205 204/204
f 207/207 206/206 204/204
f 208/208 206/206 207/207
f 209/209 208/208 207/207
f 212/212 211/211 210/210
f 213/213 212/212 210/210
f 213/213 210/210 214/214
f 215/215 213/213 214/214
f 218/218 217/217 216/216
f 217/217 219/219 216/216
f 216/216 219/219 220/220
f 219/219 221/221 220/220
f 220/220 221/221 222/222
f 221/221 223/223 222/222
f 222/222 223/223 224/224
f 223/223 225/225 224/224
f 223/223 226/226 225/225
f 226/226 227/227 225/225
f 228/228 226/226 223/223
f 221/221 228/228 223/223
f 228/228 221/221 229/229
f 230/230 228/228 229/229
f 230/230 229/229 231/231
f 232/232 230/230 231/231
f 235/235 234/234 233/233
f 234/234 236/236 233/233
f 234/234 237/237 236/236
f 237/237 238/238 236/236
f 241/241 240/240 239/239
f 242/242 241/241 239/239
f 243/243 241/241 242/242
f 244/244 243/243 242/242
f 245/245 243/243 244/244
f 246/246 245/245 244/244
f 247/247 245/245 246/246
f 248/248 247/247 246/246
f 247/247 249/249 245/245
f 249/249 250/250 245/245
f 245/245 250/250 243/243
f 250/250 251/251 243/243
f 251/251 252/252 243/243
f 252/252 253/253 243/243
f 252/252 254/254 253/253
f 254/254 255/255 253/253
f 258/258 257/257 256/256
f 257/257 259/259 256/256
f 256/256 259/259 260/260
f 257/257 261/261 259/259
f 259/259 262/262 260/260
f 261/261 263/263 259/259
f 259/259 263/263 262/262
f 263/263 264/264 262/262
f 267/267 266/266 265/265
f 268/268 267/267 265/265
f 265/265 269/269 268/268
f 269/269 270/270 268/268
f 270/270 269/269 271/271
f 272/272 270/270 271/271
f 272/272 271/271 273/273
f 274/274 272/272 273/273
f 277/277 276/276 275/275
f 276/276 278/278 275/275
f 276/276 279/279 278/278
f 279/279 280/280 278/278
f 283/283 282/282 281/281
f 282/282 284/284 281/281
f 282/282 285/285 284/284
f 285/285 286/286 284/284
f 285/285 287/287 286/286
f 287/287 288/288 286/286
f 287/287 289/289 288/288
f 289/289 290/290 288/288
f 293/293 292/292 291/291
f 292/292 294/294 291/291
f 292/292 295/295 294/294
f 295/295 296/296 294/294
f 299/299 298/298 297/297
f 300/300 299/299 297/297
f 297/297 301/301 300/300
f 301/301 302/302 300/300
f 302/302 301/301 303/303
f 304/304 302/302 303/303
f 304/304 303/303 305/305
f 306/306 304/304 305/305
f 309/309 308/308 307/307
f 308/308 310/310 307/307
f 308/308 311/311 310/310
f 311/311 312/312 310/310
f 315/315 314/314 313/313
f 314/314 316/316 313/313
f 314/314 317/317 316/316
f 317/317 318/318 316/316
f 317/317 319/319 318/318
f 319/319 320/320 318/318
f 319/319 321/321 320/320
f 321/321 322/322 320/320
f 325/325 324/324 323/323
f 324/324 326/326 323/323
f 324/324 327/327 326/326
f 327/327 328/328 326/326
f 331/331 330/330 329/329
f 332/332 331/331 329/329
f 332/332 329/329 333/333
f 334/334 332/332 333/333
f 337/337 336/336 335/335
f 338/338 337/337 335/335
f 339/339 338/338 335/335
f 340/340 339/339 335/335
f 341/341 339/339 340/340
f 342/342 341/341 340/340
f 343/343 341/341 342/342
f 344/344 343/343 342/342
f 347/347 346/346 345/345
f 346/346 348/348 345/345
f 345/345 348/348 349/349
f 348/348 350/350 349/349
f 353/353 352/352 351/351
f 352/352 354/354 351/351
f 351/351 354/354 355/355
f 354/354 356/356 355/355
f 355/355 356/356 357/357
f 356/356 358/358 357/357
f 357/357 358/358 359/359
f 358/358 360/360 359/359
f 363/363 362/362 361/361
f 362/362 364/364 361/361
f 361/361 364/364 365/365
f 364/364 366/366 365/365
f 369/369 368/368 367/367
f 370/370 369/369 367/367
f 371/371 370/370 367/367
f 372/372 371/371 367/367
f 373/373 371/371 372/372
f 374/374 373/373 372/372
f 375/375 373/373 374/374
f 376/376 375/375 374/374
f 379/379 378/378 377/377
f 378/378 380/380 377/377
f 377/377 380/380 381/381
f 380/380 382/382 381/381
f 385/385 384/384 383/383
f 384/384 386/386 383/383
f 383/383 386/386 387/387
f 386/386 388/388 387/387
f 387/387 388/388 389/389
f 388/388 390/390 389/389
f 389/389 390/390 391/391
f 390/390 392/392 391/391
f 395/395 394/394 393/393
f 394/394 396/396 393/393
f 393/393 396/396 397/397
f 396/396 398/398 397/397
f 401/401 400/400 399/399
f 400/400 402/402 399/399
f 399/399 402/402 403/403
f 402/402 404/404 403/403
f 403/403 404/404 405/405
f 404/404 406/406 405/405
f 405/405 406/406 407/407
f 406/406 408/408 407/407
f 411/411 410/410 409/409
f 410/410 412/412 409/409
f 409/409 412/412 413/413
f 412/412 414/414 413/413
f 417/417 416/416 415/415
f 418/418 417/417 415/415
f 419/419 417/417 418/418
f 420/420 419/419 418/418
f 421/421 419/419 420/420
f 422/422 421/421 420/420
f 423/423 421/421 422/422
f 424/424 423/423 422/422
f 427/427 426/426 425/425
f 428/428 427/427 425/425
f 429/429 427/427 428/428
f 430/430 429/429 428/428
f 433/433 432/432 431/431
f 434/434 433/433 431/431
f 435/435 433/433 434/434
f 436/436 435/435 434/434
f 437/437 435/435 436/436
f 438/438 437/437 436/436
f 439/439 437/437 438/438
f 440/440 439/439 438/438
f 443/443 442/442 441/441
f 442/442 444/444 441/441
f 441/441 444/444 445/445
f 444/444 446/446 445/445
f 449/449 448/448 447/447
f 448/448 450/450 447/447
f 447/447 450/450 451/451
f 450/450 452/452 451/451
f 451/451 452/452 453/453
f 452/452 454/454 453/453
f 453/453 454/454 455/455
f 454/454 456/456 455/455
f 459/459 458/458 457/457
f 460/460 459/459 457/457
f 461/461 459/459 460/460
f 462/462 461/461 460/460
f 465/465 464/464 463/463
f 466/466 465/465 463/463
f 467/467 464/464 465/465
f 465/465 466/466 468/468
f 469/469 467/467 465/465
f 470/470 465/465 468/468
f 471/471 469/469 465/465
f 465/465 470/470 472/472
f 473/473 471/471 465/465
f 474/474 465/465 472/472
f 475/475 473/473 465/465
f 474/474 475/475 465/465
f 478/478 477/477 476/476
f 479/479 478/478 476/476
f 477/477 478/478 480/480
f 479/479 481/481 478/478
f 478/478 482/482 480/480
f 481/481 483/483 478/478
f 482/482 478/478 484/484
f 483/483 485/485 478/478
f 478/478 486/486 484/484
f 485/485 487/487 478/478
f 488/488 486/486 478/478
f 487/487 488/488 478/478
f 491/491 490/490 489/489
f 490/490 492/492 489/489
f 493/493 491/491 489/489
f 489/489 492/492 494/494
f 495/495 493/493 489/489
f 496/496 489/489 494/494
f 497/497 495/495 489/489
f 489/489 496/496 498/498
f 499/499 497/497 489/489
f 500/500 489/489 498/498
f 499/499 489/489 501/501
f 489/489 500/500 501/501
f 504/504 503/503 502/502
f 503/503 505/505 502/502
f 504/504 502/502 506/506
f 505/505 507/507 502/502
f 502/502 508/508 506/506
f 507/507 509/509 502/502
f 508/508 502/502 510/510
f 509/509 511/511 502/502
f 502/502 512/512 510/510
f 511/511 513/513 502/502
f 512/512 502/502 514/514
f 502/502 513/513 514/514
f 517/517 516/516 515/515
f 518/518 517/517 515/515
f 515/515 516/516 519/519
f 520/520 517/517 518/518
f 516/516 521/521 519/519
f 522/522 520/520 518/518
f 519/519 521/521 523/523
f 524/524 520/520 522/522
f 521/521 525/525 523/523
f 526/526 524/524 522/522
f 523/523 525/525 527/527
f 528/528 524/524 526/526
f 525/525 529/529 527/527
f 530/530 528/528 526/526
f 527/527 529/529 531/531
f 532/532 528/528 530/530
f 529/529 533/533 531/531
f 534/534 532/532 530/530
f 531/531 533/533 535/535
f 536/536 532/532 534/534
f 533/533 537/537 535/535
f 538/538 536/536 534/534
f 535/535 537/537 538/538
f 537/537 536/536 538/538
f 541/541 540/540 539/539
f 542/542 541/541 539/539
f 539/539 540/540 543/543
f 544/544 541/541 542/542
f 540/540 545/545 543/543
f 546/546 544/544 542/542
f 543/543 545/545 547/547
f 548/548 544/544 546/546
f 545/545 549/549 547/547
f 550/550 548/548 546/546
f 547/547 549/549 551/551
f 552/552 548/548 550/550
f 549/549 553/553 551/551
f 554/554 552/552 550/550
f 551/551 553/553 555/555
f 556/556 552/552 554/554
f 553/553 557/557 555/555
f 558/558 556/556 554/554
f 555/555 557/557 559/559
f 560/560 556/556 558/558
f 557/557 561/561 559/559
f 562/562 560/560 558/558
f 559/559 561/561 562/562
f 561/561 560/560 562/562
f 565/565 564/564 563/563
f 566/566 565/565 563/563
f 565/565 567/567 564/564
f 566/566 563/563 568/568
f 567/567 569/569 564/564
f 570/570 566/566 568/568
f 567/567 571/571 569/569
f 570/570 568/568 572/572
f 571/571 573/573 569/569
f 574/574 570/570 572/572
f 571/571 575/575 573/573
f 574/574 572/572 576/576
f 575/575 577/577 573/573
f 578/578 574/574 576/576
f 575/575 579/579 577/577
f 578/578 576/576 580/580
f 579/579 581/581 577/577
f 582/582 578/578 580/580
f 579/579 583/583 581/581
f 582/582 580/580 584/584
f 583/583 585/585 581/581
f 586/586 582/582 584/584
f 586/586 584/584 585/585
f 583/583 586/586 585/585
f 589/589 588/588 587/587
f 590/590 589/589 587/587
f 589/589 591/591 588/588
f 590/590 587/587 592/592
f 591/591 593/593 588/588
f 594/594 590/590 592/592
f 591/591 595/595 593/593
f 594/594 592/592 596/596
f 595/595 597/597 593/593
f 598/598 594/594 596/596
f 595/595 599/599 597/597
f 598/598 596/596 600/600
f 599/599 601/601 597/597
f 602/602 598/598 600/600
f 599/599 603/603 601/601
f 602/602 600/600 604/604
f 603/603 605/605 601/601
f 606/606 602/602 604/604
f 603/603 607/607 605/605
f 606/606 604/604 608/608
f 607/607 609/609 605/605
f 610/610 606/606 608/608
f 610/610 608/608 609/609
f 607/607 610/610 609/609
f 613/613 612/612 611/611
f 614/614 613/613 611/611
f 613/613 615/615 612/612
f 614/614 611/611 616/616
f 615/615 617/617 612/612
f 618/618 614/614 616/616
f 615/615 619/619 617/617
f 618/618 616/616 620/620
f 619/619 621/621 617/617
f 622/622 618/618 620/620
f 619/619 623/623 621/621
f 622/622 620/620 624/624
f 623/623 625/625 621/621
f 626/626 622/622 624/624
f 623/623 627/627 625/625
f 626/626 624/624 628/628
f 627/627 629/629 625/625
f 630/630 626/626 628/628
f 627/627 631/631 629/629
f 630/630 628/628 632/632
f 631/631 633/633 629/629
f 634/634 630/630 632/632
f 634/634 632/632 633/633
f 631/631 634/634 633/633
f 637/637 636/636 635/635
f 638/638 637/637 635/635
f 637/637 639/639 636/636
f 638/638 635/635 640/640
f 639/639 641/641 636/636
f 642/642 638/638 640/640
f 639/639 643/643 641/641
f 642/642 640/640 644/644
f 643/643 645/645 641/641
f 646/646 642/642 644/644
f 643/643 647/647 645/645
f 646/646 644/644 648/648
f 647/647 649/649 645/645
f 650/650 646/646 648/648
f 647/647 651/651 649/649
f 650/650 648/648 652/652
f 651/651 653/653 649/649
f 654/654 650/650 652/652
f 651/651 655/655 653/653
f 654/654 652/652 656/656
f 655/655 657/657 653/653
f 658/658 654/654 656/656
f 658/658 656/656 657/657
f 655/655 658/658 657/657
f 661/661 660/660 659/659
f 662/662 661/661 659/659
f 659/659 660/660 663/663
f 664/664 661/661 662/662
f 660/660 665/665 663/663
f 666/666 664/664 662/662
f 663/663 665/665 667/667
f 668/668 664/664 666/666
f 665/665 669/669 667/667
f 670/670 668/668 666/666
f 667/667 669/669 671/671
f 672/672 668/668 670/670
f 669/669 673/673 671/671
f 674/674 672/672 670/670
f 671/671 673/673 675/675
f 676/676 672/672 674/674
f 673/673 677/677 675/675
f 678/678 676/676 674/674
f 675/675 677/677 679/679
f 680/680 676/676 678/678
f 677/677 681/681 679/679
f 682/682 680/680 678/678
f 679/679 681/681 682/682
f 681/681 680/680 682/682
f 685/685 684/684 683/683
f 686/686 685/685 683/683
f 683/683 684/684 687/687
f 688/688 685/685 686/686
f 684/684 689/689 687/687
f 690/690 688/688 686/686
f 687/687 689/689 691/691
f 692/692 688/688 690/690
f 689/689 693/693 691/691
f 694/694 692/692 690/690
f 691/691 693/693 695/695
f 696/696 692/692 694/694
f 693/693 697/697 695/695
f 698/698 696/696 694/694
f 695/695 697/697 699/699
f 700/700 696/696 698/698
f 697/697 701/701 699/699
f 702/702 700/700 698/698
f 699/699 701/701 703/703
f 704/704 700/700 702/702
f 701/701 705/705 703/703
f 706/706 704/704 702/702
f 703/703 705/705 706/706
f 705/705 704/704 706/706
f 709/709 708/708 707/707
f 710/710 709/709 707/707
f 707/707 708/708 711/711
f 712/712 709/709 710/710
f 708/708 713/713 711/711
f 714/714 712/712 710/710
f 711/711 713/713 715/715
f 716/716 712/712 714/714
f 713/713 717/717 715/715
f 718/718 716/716 714/714
f 715/715 717/717 719/719
f 720/720 716/716 718/718
f 717/717 721/721 719/719
f 722/722 720/720 718/718
f 719/719 721/721 723/723
f 724/724 720/720 722/722
f 721/721 725/725 723/723
f 726/726 724/724 722/722
f 723/723 725/725 727/727
f 728/728 724/724 726/726
f 725/725 729/729 727/727
f 730/730 728/728 726/726
f 727/727 729/729 730/730
f 729/729 728/728 730/730
f 733/733 732/732 731/731
f 734/734 733/733 731/731
f 731/731 732/732 735/735
f 736/736 733/733 734/734
f 732/732 737/737 735/735
f 738/738 736/736 734/734
f 735/735 737/737 739/739
f 740/740 736/736 738/738
f 737/737 741/741 739/739
f 742/742 740/740 738/738
f 739/739 741/741 743/743
f 744/744 740/740 742/742
f 741/741 745/745 743/743
f 746/746 744/744 742/742
f 743/743 745/745 747/747
f 748/748 744/744 746/746
f 745/745 749/749 747/747
f 750/750 748/748 746/746
f 747/747 749/749 751/751
f 752/752 748/748 750/750
f 749/749 753/753 751/751
f 754/754 752/752 750/750
f 751/751 753/753 754/754
f 753/753 752/752 754/754