# Blender 4.0.0
# www.blender.org
o decimated_mesh
v -0.924839 -1.017959 -0.021878
v -0.924758 -1.018218 0.021812
v -0.927701 1.000935 -0.001584
v -0.909633 -1.007473 -0.026754
v -0.906559 -1.024762 -0.011309
v -0.923991 1.018535 -0.021836
v -0.906367 1.005996 -0.027311
v -0.907410 -1.025063 0.009618
v -0.906387 -1.006252 0.027306
v -0.924797 1.017702 0.021987
v -0.006966 -1.005600 -0.027346
v -0.007956 -1.025211 -0.009695
v -0.909633 1.007214 0.026754
v -0.905137 1.024947 0.010930
v -0.893522 1.025951 -0.010155
v 0.010707 -1.018316 -0.022060
v 0.010582 1.016970 -0.023164
v -0.004628 -1.024483 0.011591
v 0.010590 -1.017193 0.023158
v -0.006992 1.025083 -0.009926
v -0.006965 1.005342 0.027346
v -0.005134 1.024357 0.010573
v 0.014152 -1.001138 -0.001902
v 0.010640 1.018214 0.022025
v 0.014149 0.999419 0.002036
vn 0.9902 0.0003 -0.1400
vn -0.9837 0.0004 -0.1798
vn -0.3699 -0.9290 -0.0048
vn -0.3400 0.9403 0.0116
vn 0.2889 0.0005 0.9573
vn 0.9817 0.1902 -0.0065
vn 0.4172 -0.9085 0.0237
vn 0.0004 -0.8737 -0.4865
vn -0.0003 -0.4212 -0.9070
vn 0.0002 -0.8461 0.5330
vn 0.0006 -0.9994 0.0341
vn 0.0045 0.0020 -1.0000
vn -0.2965 0.0002 -0.9550
vn 0.0008 0.8817 0.4719
vn -0.0003 0.4135 0.9105
vn 0.9850 0.0001 0.1728
vn 0.3628 0.9319 0.0001
vn 0.0007 0.9994 0.0353
vn 0.0007 0.8530 -0.5219
vn -0.9925 -0.0000 0.1223
vn -0.0007 0.0003 1.0000
vn -0.3000 -0.0001 0.9539
vn 0.9857 -0.0000 -0.1684
vn -0.9816 0.1903 -0.0144
vn -0.3348 -0.9419 -0.0272
vn 0.3348 -0.9421 -0.0201
vn -0.2107 0.9751 -0.0696
vn -0.0004 -0.8412 -0.5407
vn 0.0002 -0.3836 -0.9235
vn -0.0005 -0.8723 0.4889
vn -0.0009 -0.4162 0.9093
vn -1.0000 -0.0014 0.0019
vn -0.0005 -0.9999 -0.0144
vn -0.0007 -0.0003 -1.0000
vn -0.3054 0.0001 -0.9522
vn -0.0005 0.8368 0.5475
vn 0.0002 0.3818 0.9243
vn 0.9901 -0.0003 0.1405
vn 0.4030 0.9148 -0.0257
vn 0.0010 0.9988 0.0481
vn 0.2862 -0.0005 -0.9582
vn -0.0006 0.3994 -0.9168
vn 0.0010 0.8431 -0.5378
vn 0.0045 -0.0020 1.0000
vn -0.2864 -0.0002 0.9581
vn 0.9787 -0.2052 0.0076
vn 0.0006 0.8434 -0.5372
vn 0.0007 0.9988 0.0479
vn 0.0010 0.8532 -0.5216
vn 0.0010 0.9994 0.0353
s 0
f 23//1 17//1 25//1
f 1//2 3//2 6//2
f 1//3 8//3 2//3
f 6//4 10//4 14//4
f 19//5 24//5 21//5
f 25//6 17//6 24//6
f 18//7 16//7 19//7
f 5//8 16//8 12//8
f 4//9 16//9 1//9
f 2//10 18//10 19//10
f 8//11 12//11 18//11
f 11//12 7//12 17//12
f 4//13 6//13 7//13
f 14//14 24//14 22//14
f 13//15 24//15 10//15
f 19//16 25//16 24//16
f 24//17 20//17 22//17
f 20//18 14//18 22//18
f 6//19 20//19 17//19
f 2//20 10//20 3//20
f 9//21 21//21 13//21
f 2//22 13//22 10//22
f 23//23 16//23 17//23
f 10//24 6//24 3//24
f 1//25 5//25 8//25
f 18//26 12//26 16//26
f 15//27 6//27 14//27
f 5//28 1//28 16//28
f 4//29 11//29 16//29
f 2//30 8//30 18//30
f 9//31 2//31 19//31
f 3//32 1//32 2//32
f 8//33 5//33 12//33
f 11//34 4//34 7//34
f 4//35 1//35 6//35
f 14//36 10//36 24//36
f 13//37 21//37 24//37
f 19//38 23//38 25//38
f 24//39 17//39 20//39
f 20//40 15//40 14//40
f 16//41 11//41 17//41
f 7//42 6//42 17//42
f 6//43 15//43 20//43
f 9//44 19//44 21//44
f 2//45 9//45 13//45
f 19//46 16//46 23//46
f 15//47 17//47 6//47
f 22//48 15//48 14//48
f 20//49 17//49 15//49
f 22//50 20//50 15//50
