# Blender 4.0.0
# www.blender.org
o decimated_mesh
v 0.001849 0.050538 0.000109
v 0.004297 0.049728 -0.000016
v 0.001813 0.050560 -0.000128
v -0.001603 0.050547 0.000107
v 0.004314 0.049441 0.000170
v 0.005749 0.048891 0.000049
v -0.001676 0.050550 -0.000123
v -0.003938 0.049762 -0.000022
v 0.008471 0.045671 0.000198
v -0.004877 0.049011 0.000179
v 0.005764 0.048877 -0.000141
v 0.005275 0.048737 -0.000234
v -0.005562 0.048898 -0.000055
v -0.006891 0.047586 0.000097
v 0.008473 0.045595 -0.000215
v -0.004877 0.048737 -0.000249
v 0.008780 0.042768 0.000172
v 0.008640 0.045935 -0.000029
v -0.008754 0.045372 -0.000001
v -0.008719 0.044895 0.000179
v 0.008816 0.042768 -0.000206
v -0.006954 0.047569 -0.000112
v 0.009607 0.043630 0.000048
v -0.008906 0.045025 -0.000128
v -0.009495 0.043651 0.000038
v -0.008429 0.042766 0.000156
v 0.009618 0.043657 -0.000102
v -0.009476 0.043624 -0.000124
v -0.008430 0.042768 -0.000195
vn 0.1932 0.4604 -0.8664
vn -0.0007 0.0069 1.0000
vn -0.1722 0.3676 -0.9139
vn 0.1080 0.2612 -0.9592
vn -0.0000 1.0000 0.0007
vn 0.0015 -0.0038 -1.0000
vn 0.7150 0.6991 0.0069
vn -0.3545 0.4542 0.8173
vn 0.1458 0.1423 -0.9790
vn 0.2204 0.5409 0.8117
vn 0.7446 -0.6643 -0.0655
vn -0.1331 -0.0289 0.9907
vn -0.0447 0.0158 -0.9989
vn -0.5541 0.2563 0.7920
vn 0.5001 0.8657 -0.0229
vn -0.6333 -0.7739 -0.0037
vn 0.9120 0.3873 0.1350
vn -0.9128 0.3710 -0.1707
vn -0.6394 0.4942 -0.5890
vn 0.4387 0.4078 0.8008
vn -0.0010 -0.0004 1.0000
vn 0.1417 0.0065 0.9899
vn -0.0159 -0.0104 0.9998
vn 0.0504 -0.0040 0.9987
vn 0.0325 -0.0222 0.9992
vn -0.0632 0.0322 0.9975
vn -0.0140 0.0246 0.9996
vn -0.2068 0.2567 -0.9441
vn -0.0001 1.0000 0.0056
vn -0.9184 0.3955 0.0132
vn -0.7566 0.6291 0.1784
vn -0.0006 -0.0086 -1.0000
vn 0.0037 -0.0025 -1.0000
vn -0.0505 0.0211 -0.9985
vn -0.0016 0.0723 -0.9974
vn 0.0015 0.0611 -0.9981
vn 0.1172 0.0113 -0.9930
vn 0.5910 0.2736 0.7589
vn 0.3157 0.9480 0.0410
vn 0.2730 0.5357 0.7991
vn 0.7249 -0.6855 0.0675
vn -0.6858 0.7122 0.1500
vn 0.1473 0.1695 0.9745
vn -0.0028 0.9999 0.0131
vn 0.0027 0.9956 0.0932
vn 0.3510 0.3096 -0.8837
vn -0.3979 0.2966 0.8682
vn -0.1568 0.3307 -0.9306
vn -0.1211 0.0992 -0.9877
vn -0.3221 0.9398 0.1140
vn 0.4742 0.2305 -0.8497
vn -0.6408 -0.7662 0.0481
vn -0.3438 0.6181 0.7069
vn -0.2108 0.4891 0.8464
vn -0.0005 0.0549 0.9985
vn -0.1739 0.3624 -0.9157
vn -0.1648 0.3550 -0.9202
vn -0.0483 0.0198 -0.9986
vn -0.0014 0.0501 0.9987
vn 0.0006 0.0078 1.0000
vn -0.0001 1.0000 0.0007
vn -0.0000 1.0000 0.0056
vn -0.0523 0.0189 -0.9985
vn -0.1177 0.1098 0.9870
vn -0.0011 0.0010 1.0000
vn -0.0007 -0.0087 1.0000
vn -0.0010 -0.0110 0.9999
s 0
f 3//1 2//1 11//1
f 1//2 4//2 26//2
f 13//3 7//3 16//3
f 3//4 11//4 12//4
f 29//5 17//5 21//5
f 16//6 12//6 21//6
f 6//7 18//7 11//7
f 10//8 13//8 14//8
f 12//9 11//9 15//9
f 2//10 1//10 5//10
f 23//11 21//11 27//11
f 25//12 26//12 20//12
f 28//13 24//13 16//13
f 19//14 25//14 20//14
f 2//15 6//15 11//15
f 26//16 28//16 29//16
f 23//17 27//17 18//17
f 24//18 28//18 25//18
f 24//19 19//19 22//19
f 18//20 6//20 9//20
f 26//21 17//21 5//21
f 17//22 23//22 9//22
f 5//23 17//23 9//23
f 14//24 20//24 26//24
f 4//25 10//25 26//25
f 10//26 14//26 26//26
f 5//27 1//27 26//27
f 22//28 13//28 16//28
f 17//29 29//29 26//29
f 25//30 19//30 24//30
f 19//31 14//31 22//31
f 21//32 29//32 16//32
f 15//33 21//33 12//33
f 28//34 16//34 29//34
f 16//35 7//35 3//35
f 3//36 12//36 16//36
f 15//37 27//37 21//37
f 23//38 18//38 9//38
f 2//39 3//39 1//39
f 5//40 6//40 2//40
f 23//41 17//41 21//41
f 22//42 14//42 13//42
f 9//43 6//43 5//43
f 3//44 7//44 4//44
f 4//45 1//45 3//45
f 18//46 15//46 11//46
f 20//47 14//47 19//47
f 7//48 13//48 8//48
f 24//49 22//49 16//49
f 8//50 4//50 7//50
f 27//51 15//51 18//51
f 26//52 25//52 28//52
f 13//53 10//53 8//53
f 10//54 4//54 8//54
f 4//55 5//55 1//55
f 13//56 8//56 16//56
f 8//57 7//57 16//57
f 29//58 24//58 16//58
f 10//59 5//59 4//59
f 10//60 9//60 5//60
f 17//61 21//61 26//61
f 26//62 21//62 29//62
f 28//63 24//63 29//63
f 14//64 20//64 10//64
f 20//65 9//65 10//65
f 20//66 17//66 9//66
f 20//67 26//67 17//67
