# https://github.com/mikedh/trimesh
v 0.04017105 0.01437131 0.00827609
v 0.03995250 0.01031112 0.00851059
v 0.03997847 0.01024285 0.00827609
v 0.03488703 0.01437131 0.00827609
v 0.03561190 0.01437173 0.01923059
v 0.03617449 0.01437173 0.01953767
v 0.03997198 0.01437131 0.00976963
v 0.03993086 0.01250785 0.00944580
v 0.03997630 0.01019890 0.00827609
v 0.03983782 0.01019890 0.00933971
v 0.03993519 0.01019890 0.00859434
v 0.03020022 0.01437173 0.01923059
v 0.03430713 0.01020317 0.00827609
v 0.01806776 0.01001243 0.03016275
v 0.01806776 0.01437173 0.03103096
v 0.03580665 0.01437173 0.02035284
v 0.03579366 0.01250742 0.02018813
v 0.03573091 0.01001243 0.02006250
v 0.03631298 0.01437131 0.01922780
v 0.03949810 0.01437131 0.01153955
v 0.03985513 0.01437131 0.01037263
v 0.03995899 0.01437131 0.00984780
v 0.03446292 0.01019890 0.00827609
v 0.03609443 0.01001243 0.01923059
v 0.03964091 0.01019890 0.01043963
v 0.02930224 0.01001243 0.01923059
v 0.01806776 0.01001243 0.03657800
v 0.01806776 0.01437173 0.03679296
v 0.03556863 0.01437173 0.02083300
v 0.03554699 0.01360664 0.02079392
v 0.03544313 0.01001243 0.02060967
v 0.03600139 0.01001243 0.01944554
v 0.03838158 0.01019890 0.01373659
v 0.03610958 0.01030686 0.01923059
v 0.03929687 0.01031112 0.01153955
v 0.03980536 0.01360621 0.01043963
v 0.03929038 0.01019890 0.01153955
v 0.03926225 0.01019890 0.01160934
v 0.03610525 0.01019890 0.01922780
v 0.01883374 0.01001243 0.03625975
v 0.01914966 0.01279631 0.03626813
v 0.01856760 0.01437173 0.03658637
v 0.03549073 0.01437173 0.02093629
v 0.03501469 0.01250742 0.02142763
v 0.03483726 0.01001243 0.02146950
v 0.03529382 0.01001243 0.02082742
v 0.01966681 0.01001243 0.03591358
v 0.01979231 0.01437173 0.03607829
v 0.03517482 0.01437173 0.02135505
v 0.03499089 0.01437173 0.02159792
v 0.03084287 0.01437173 0.02700258
v 0.03005308 0.01001243 0.02770329
v 0.02063187 0.01001243 0.03542225
v 0.02045444 0.01437173 0.03572096
v 0.02987132 0.01437173 0.02826442
v 0.02984969 0.01360664 0.02823650
v 0.02975448 0.01031112 0.02811367
v 0.02974582 0.01001243 0.02809971
v 0.02103217 0.01001243 0.03515425
v 0.02119229 0.01031112 0.03506491
v 0.02130265 0.01319784 0.03514866
v 0.02133078 0.01393051 0.03516821
v 0.02134809 0.01437173 0.03517937
v 0.02079632 0.01437173 0.03553392
v 0.02970471 0.01437173 0.02846263
v 0.02923733 0.01140949 0.02882275
v 0.02919622 0.01001243 0.02877808
v 0.02959436 0.01001243 0.02828675
v 0.02117931 0.01001243 0.03505375
v 0.02189120 0.01001243 0.03451216
v 0.02297094 0.01001243 0.03368583
v 0.02186307 0.01250742 0.03467966
v 0.02299691 0.01437173 0.03391754
v 0.02165968 0.01437173 0.03494208
v 0.02932172 0.01437173 0.02891488
v 0.02876995 0.01437173 0.02946483
v 0.02870070 0.01250742 0.02940621
v 0.02861848 0.01031112 0.02933642
v 0.02860550 0.01001243 0.02932525
v 0.02538142 0.01001243 0.03183775
v 0.02822250 0.01437173 0.02990592
v 0.02860550 0.01437173 0.02959883
v 0.02805805 0.01001243 0.02978029
v 0.02845836 0.01001243 0.02945088
v 0.02711896 0.01001243 0.03050333
f 1 2 3
f 1 3 9
f 1 9 23
f 1 23 13
f 1 13 4
f 1 4 12
f 1 12 5
f 1 5 6
f 1 6 7
f 1 7 8
f 1 8 2
f 2 9 3
f 2 8 10
f 2 10 11
f 2 11 9
f 4 13 14
f 4 14 15
f 4 15 12
f 5 12 15
f 5 15 28
f 5 28 42
f 5 42 48
f 5 48 54
f 5 54 64
f 5 64 63
f 5 63 74
f 5 74 73
f 5 73 81
f 5 81 82
f 5 82 76
f 5 76 75
f 5 75 65
f 5 65 55
f 5 55 51
f 5 51 50
f 5 50 49
f 5 49 43
f 5 43 29
f 5 29 16
f 5 16 6
f 6 16 17
f 6 17 18
f 6 18 19
f 6 19 20
f 6 20 21
f 6 21 22
f 6 22 7
f 7 10 8
f 7 22 10
f 9 11 24
f 9 24 26
f 9 26 23
f 10 22 25
f 10 25 24
f 10 24 11
f 13 26 14
f 13 23 26
f 14 27 28
f 14 28 15
f 14 26 24
f 14 24 32
f 14 32 18
f 14 18 31
f 14 31 46
f 14 46 45
f 14 45 52
f 14 52 58
f 14 58 68
f 14 68 67
f 14 67 79
f 14 79 84
f 14 84 83
f 14 83 85
f 14 85 80
f 14 80 71
f 14 71 70
f 14 70 69
f 14 69 59
f 14 59 53
f 14 53 47
f 14 47 40
f 14 40 27
f 16 18 17
f 16 29 18
f 18 29 30
f 18 30 31
f 18 32 19
f 19 33 20
f 19 32 34
f 19 34 33
f 20 33 35
f 20 35 25
f 20 25 36
f 20 36 21
f 21 36 22
f 22 36 25
f 24 25 37
f 24 37 38
f 24 38 33
f 24 33 39
f 24 39 32
f 25 35 37
f 27 40 41
f 27 41 28
f 28 41 42
f 29 43 44
f 29 44 45
f 29 45 46
f 29 46 30
f 30 46 31
f 32 39 34
f 33 38 35
f 33 34 39
f 35 38 37
f 40 47 41
f 41 47 48
f 41 48 42
f 43 49 44
f 44 49 50
f 44 50 51
f 44 51 52
f 44 52 45
f 47 53 48
f 48 53 54
f 51 55 56
f 51 56 52
f 52 56 57
f 52 57 58
f 53 59 60
f 53 60 61
f 53 61 62
f 53 62 63
f 53 63 64
f 53 64 54
f 55 65 66
f 55 66 67
f 55 67 56
f 56 67 57
f 57 67 68
f 57 68 58
f 59 69 60
f 60 69 70
f 60 70 71
f 60 71 72
f 60 72 61
f 61 72 73
f 61 73 74
f 61 74 62
f 62 74 63
f 65 75 66
f 66 75 76
f 66 76 67
f 67 76 77
f 67 77 78
f 67 78 79
f 71 80 72
f 72 80 73
f 73 80 81
f 76 82 83
f 76 83 77
f 77 83 84
f 77 84 78
f 78 84 79
f 80 85 81
f 81 85 83
f 81 83 82

