# https://github.com/mikedh/trimesh
v -0.00011516 0.00628020 -0.04081927
v -0.00011516 0.00371734 -0.04077932
v -0.00112250 0.00371734 -0.04070740
v -0.00126640 0.00628020 -0.04072338
v 0.02677127 0.00736353 -0.00649688
v 0.04007457 0.00736353 -0.00649688
v 0.00061237 0.00628020 -0.04077932
v 0.00097213 0.00371734 -0.04072338
v -0.00096260 0.00300214 -0.04068342
v 0.00097213 0.00300994 -0.04068342
v -0.00011516 0.00288983 -0.04071539
v -0.00960495 0.00308091 -0.03956465
v -0.00890141 0.00371734 -0.03968452
v -0.01035646 0.00628020 -0.03952469
v 0.00277096 0.00736353 0.02729010
v -0.01106800 0.00628020 -0.03928496
v -0.01220326 0.00628020 -0.03882945
v -0.01791952 0.00628020 -0.03645605
v -0.01887090 0.00628020 -0.03605649
v -0.01987824 0.00628020 -0.03562496
v -0.02059777 0.00628020 -0.03526536
v -0.02078165 0.00628020 -0.03513750
v -0.02114941 0.00628020 -0.03486580
v -0.02494693 0.00628020 -0.03194900
v -0.02802491 0.00628020 -0.02958358
v -0.02868048 0.00628020 -0.02900822
v -0.02919215 0.00628020 -0.02852874
v -0.02931207 0.00628020 -0.02838490
v -0.03410893 0.00628020 -0.02213575
v -0.03489242 0.00628020 -0.02110488
v 0.04057025 0.00736353 -0.00273301
v 0.03997864 0.00316827 -0.00658479
v 0.03961887 0.00371734 -0.00933377
v 0.03965085 0.00627942 -0.00933377
v 0.03945098 0.00627942 -0.01042857
v 0.03909122 0.00627942 -0.01154735
v 0.03664482 0.00627942 -0.01746087
v 0.03590930 0.00627942 -0.01921894
v 0.03563747 0.00627942 -0.01986623
v 0.03533367 0.00627942 -0.02041763
v 0.03478203 0.00627942 -0.02124872
v 0.02960142 0.00627942 -0.02800132
v 0.02908975 0.00627942 -0.02865660
v 0.02839421 0.00627942 -0.02926394
v 0.02791452 0.00627942 -0.02966350
v 0.02717900 0.00627942 -0.03023088
v 0.02175855 0.00627942 -0.03439432
v 0.02103902 0.00627942 -0.03494571
v 0.02048738 0.00627942 -0.03532130
v 0.02020756 0.00627942 -0.03546514
v 0.01966391 0.00627942 -0.03572885
v 0.01821686 0.00627942 -0.03632820
v 0.01252458 0.00627942 -0.03868561
v 0.01197294 0.00627942 -0.03890937
v 0.01084568 0.00627942 -0.03934089
v 0.01054987 0.00627942 -0.03943679
v 0.01024607 0.00627942 -0.03953269
v 0.01007818 0.00627942 -0.03955666
v 0.00931868 0.00627942 -0.03966054
v 0.00276296 0.00628020 -0.04052360
v 0.00097213 0.00628020 -0.04075535
v 0.00153976 0.00316125 -0.04065146
v -0.00011516 0.00234232 -0.04057155
v -0.00128239 0.00263089 -0.04054757
v -0.00890141 0.00234778 -0.03947674
v -0.00890141 0.00289607 -0.03961260
v 0.00097213 0.00246165 -0.04054757
v -0.00968490 0.00371734 -0.03958063
v -0.00998870 0.00267847 -0.03940482
v -0.01022855 0.00371734 -0.03950072
v -0.01109998 0.00371734 -0.03923701
v 0.00277096 0.00736353 0.04057155
v -0.03538011 0.00628020 -0.02032173
v -0.03573987 0.00628020 -0.01961851
v -0.03581982 0.00628020 -0.01943471
v -0.03675520 0.00628020 -0.01719716
v -0.03898575 0.00628020 -0.01179508
v -0.03920960 0.00628020 -0.01124368
v -0.03930554 0.00628020 -0.01096399
v -0.03944944 0.00628020 -0.01043656
v -0.03964931 0.00628020 -0.00933377
v -0.04008903 0.00628020 -0.00600942
v -0.04056872 0.00628020 -0.00238139
v -0.04080856 0.00628020 -0.00054340
v -0.04081655 0.00628020 0.00055140
v -0.01220326 0.00371734 -0.03878950
v -0.01827129 0.00312225 -0.03626427
v -0.01883092 0.00371734 -0.03604051
v -0.01987824 0.00371734 -0.03559300
v -0.02057378 0.00371734 -0.03524938
v -0.02112542 0.00371734 -0.03484182
v -0.02800093 0.00371734 -0.02956760
v -0.02862452 0.00371734 -0.02901621
v -0.02916816 0.00371734 -0.02850477
v -0.03250998 0.00371734 -0.02415753
v -0.03486844 0.00371734 -0.02108090
v 0.04085806 0.00736353 -0.00053541
v 0.03947496 0.00262153 -0.00933377
v 0.04077012 0.00371734 -0.00053541
v 0.03998663 0.00314487 -0.00649688
v 0.03941900 0.00371734 -0.01042857
v 0.03908322 0.00371734 -0.01146744
v 0.03662083 0.00371734 -0.01742091
v 0.03561349 0.00371734 -0.01983427
v 0.03531768 0.00371734 -0.02038566
v 0.03476604 0.00371734 -0.02122474
v 0.02955345 0.00371734 -0.02800132
v 0.02906577 0.00371734 -0.02863263
v 0.02789054 0.00371734 -0.02964752
v 0.02480455 0.00371734 -0.03201292
v 0.02100704 0.00371734 -0.03492174
v 0.02046339 0.00371734 -0.03530532
v 0.01966391 0.00371734 -0.03568890
v 0.01872053 0.00371734 -0.03608846
v 0.01197294 0.00371734 -0.03887740
v 0.01086966 0.00371734 -0.03930094
v 0.01012615 0.00371734 -0.03951670
v 0.00277096 0.00627942 -0.04052360
v 0.00946258 0.00304192 -0.03957264
v 0.00980636 0.00265351 -0.03942880
v -0.00011516 0.00152261 -0.04020395
v -0.00121044 0.00152261 -0.04011605
v 0.00097213 0.00152261 -0.04014002
v -0.00742238 0.00202956 -0.03957264
v -0.00815790 0.00216215 -0.03952469
v -0.01000469 0.00152261 -0.03893334
v 0.00867909 0.00229162 -0.03948474
v 0.00800753 0.00212628 -0.03952469
v 0.00727201 0.00201241 -0.03958063
v -0.01109998 0.00262075 -0.03908517
v -0.01284284 0.00302164 -0.03848583
v 0.00097213 0.00628020 0.04075535
v 0.00097213 0.00371734 0.04072338
v 0.00153976 0.00316125 0.04064347
v 0.00867909 0.00371734 0.03970849
v 0.00983034 0.00736353 0.03962858
v -0.03965731 0.00628020 0.00933377
v -0.03945744 0.00628020 0.01043656
v -0.03920960 0.00628020 0.01124368
v -0.03899375 0.00628020 0.01179508
v -0.03589977 0.00628020 0.01925091
v -0.03573987 0.00628020 0.01961850
v -0.03563594 0.00628020 0.01984226
v -0.03538011 0.00628020 0.02032173
v -0.03489242 0.00628020 0.02110488
v -0.03429282 0.00628020 0.02189601
v -0.02959189 0.00628020 0.02801730
v -0.02919215 0.00628020 0.02852874
v -0.02905624 0.00628020 0.02866459
v -0.02868048 0.00628020 0.02900822
v -0.02802491 0.00628020 0.02958358
v -0.02784903 0.00628020 0.02972743
v -0.02186894 0.00628020 0.03431440
v -0.02114941 0.00628020 0.03485781
v -0.02059777 0.00628020 0.03526536
v -0.02034993 0.00628020 0.03539322
v -0.01987824 0.00628020 0.03562496
v -0.01887090 0.00628020 0.03605649
v -0.01267495 0.00628020 0.03862967
v -0.01106800 0.00628020 0.03928496
v -0.01082815 0.00628020 0.03936487
v -0.01035646 0.00628020 0.03951670
v -0.00947704 0.00628020 0.03963657
v -0.00779813 0.00628020 0.03986033
v -0.00212185 0.00628020 0.04060351
v -0.00125841 0.00628020 0.04071539
v -0.00010716 0.00628020 0.04081927
v -0.03534013 0.00371734 -0.02032173
v -0.03572388 0.00371734 -0.01957855
v -0.03696307 0.00371734 -0.01660581
v -0.03920160 0.00371734 -0.01120372
v -0.03941747 0.00371734 -0.01043656
v -0.03961734 0.00371734 -0.00933377
v -0.04048877 0.00371734 -0.00274100
v -0.04077658 0.00371734 -0.00054340
v -0.04077658 0.00371734 0.00055140
v -0.04048877 0.00371734 0.00274899
v -0.03962533 0.00371734 0.00933377
v -0.01802345 0.00239145 -0.03616038
v -0.01869501 0.00270265 -0.03596859
v -0.01994220 0.00258722 -0.03540121
v -0.02052582 0.00293039 -0.03521741
v -0.01494546 0.00207402 -0.03735107
v -0.02489096 0.00300838 -0.03190105
v -0.02788101 0.00262075 -0.02947970
v -0.02852059 0.00262075 -0.02892830
v -0.02907223 0.00262075 -0.02838490
v -0.02950395 0.00262075 -0.02784150
v -0.03149465 0.00290465 -0.02537220
v -0.03482047 0.00283290 -0.02100898
v 0.04085806 0.00736353 0.00054340
v 0.03985072 0.00259346 -0.00649688
v 0.03993067 0.00223780 -0.00513038
v 0.03997864 0.00206778 -0.00440318
v 0.03910721 0.00165207 -0.00933377
v 0.03900327 0.00185252 -0.01042857
v 0.03926710 0.00262153 -0.01042857
v 0.04077012 0.00371734 0.00054340
v 0.04063421 0.00262153 -0.00053541
v 0.03901127 0.00262153 -0.01128364
v 0.03782804 0.00299200 -0.01439223
v 0.03560549 0.00308949 -0.01981029
v 0.03467010 0.00262153 -0.02110488
v 0.03235962 0.00293663 -0.02425343
v 0.02904178 0.00301540 -0.02860865
v 0.02777062 0.00262153 -0.02955961
v 0.02352539 0.00310119 -0.03297187
v 0.02088712 0.00262153 -0.03483383
v 0.02033548 0.00262153 -0.03522541
v 0.01966391 0.00262153 -0.03553706
v 0.01812092 0.00300526 -0.03628824
v 0.01268448 0.00291245 -0.03851780
v 0.01086966 0.00262153 -0.03914911
v 0.00977438 0.00152183 -0.03898129
v -0.00011516 0.00064596 -0.03972448
v -0.00121044 0.00072630 -0.03968452
v 0.00097213 0.00069900 -0.03970050
v -0.00231372 0.00152261 -0.03997220
v -0.00670285 0.00194221 -0.03962059
v 0.00428197 0.00164818 -0.03978041
v -0.00890141 0.00064674 -0.03862967
v -0.00890141 0.00152261 -0.03910116
v -0.01000469 0.00080897 -0.03854177
v -0.01062029 0.00092752 -0.03847784
v -0.01102802 0.00154132 -0.03866164
v 0.00761579 0.00159592 -0.03930893
v -0.01185948 0.00192037 -0.03853378
v -0.01259500 0.00229084 -0.03838195
v -0.01221925 0.00264259 -0.03863767
v 0.00097213 0.00300994 0.04068342
v -0.00010716 0.00371734 0.04077932
v 0.00946258 0.00304192 0.03957264
v 0.01012615 0.00371734 0.03950871
v 0.01036599 0.00731283 0.03954867
v 0.01036599 0.00736353 0.03954867
v -0.03941747 0.00371734 0.01043656
v -0.03920160 0.00371734 0.01120372
v -0.03769859 0.00371734 0.01483175
v -0.03572388 0.00371734 0.01957855
v -0.03534013 0.00371734 0.02032173
v -0.03487644 0.00371734 0.02108090
v -0.03015152 0.00371734 0.02724215
v -0.02959989 0.00371734 0.02795337
v -0.02916816 0.00371734 0.02850477
v -0.02862452 0.00371734 0.02901621
v -0.02800093 0.00371734 0.02956760
v -0.02112542 0.00371734 0.03484182
v -0.02057378 0.00371734 0.03524938
v -0.01987824 0.00371734 0.03558501
v -0.01883092 0.00371734 0.03604051
v -0.01220326 0.00371734 0.03878950
v -0.01109998 0.00371734 0.03923701
v -0.01022855 0.00371734 0.03950072
v -0.00560757 0.00371734 0.04011604
v -0.00340900 0.00371734 0.04040373
v -0.00112250 0.00371734 0.04069940
v -0.03509229 0.00252872 -0.02041763
v -0.03590776 0.00281808 -0.01890728
v -0.03693909 0.00303490 -0.01656585
v -0.03916163 0.00294053 -0.01113180
v -0.03947343 0.00262075 -0.00933377
v -0.03925757 0.00259346 -0.01045255
v -0.04022494 0.00307467 -0.00456300
v -0.04063267 0.00262075 -0.00054340
v -0.04063267 0.00262075 0.00055140
v -0.04022494 0.00307467 0.00456300
v -0.03948143 0.00262075 0.00933377
v -0.02034194 0.00219881 -0.03510554
v -0.02093355 0.00258722 -0.03480986
v -0.01767168 0.00156862 -0.03592863
v -0.01729593 0.00196561 -0.03631221
v -0.02473906 0.00227758 -0.03178917
v -0.02832872 0.00179714 -0.02874451
v -0.02593828 0.00204906 -0.03077428
v -0.02715348 0.00192349 -0.02975939
v -0.02936004 0.00187358 -0.02763372
v -0.03036738 0.00199915 -0.02642704
v -0.03138272 0.00217385 -0.02521238
v -0.03470055 0.00210054 -0.02084916
v 0.04057025 0.00736353 0.00274100
v 0.03997864 0.00316905 0.00658478
v 0.04009056 0.00186500 -0.00273301
v 0.03913918 0.00143837 -0.00823897
v 0.03881140 0.00110300 -0.00933377
v 0.03891533 0.00201396 -0.01105988
v 0.03844364 0.00042446 -0.00933377
v 0.03869947 0.00130266 -0.01042857
v 0.04063421 0.00262153 0.00054340
v 0.04023447 0.00159982 -0.00053541
v 0.04016251 0.00173241 -0.00163821
v 0.03773210 0.00226042 -0.01414450
v 0.03550956 0.00235870 -0.01957056
v 0.03524573 0.00268393 -0.02023383
v 0.03455018 0.00197731 -0.02095304
v 0.03224769 0.00220505 -0.02410159
v 0.02934559 0.00263791 -0.02805726
v 0.02891387 0.00228382 -0.02846481
v 0.02850613 0.00263791 -0.02895228
v 0.02817835 0.00171369 -0.02880044
v 0.02700312 0.00183926 -0.02981533
v 0.02458070 0.00210678 -0.03183712
v 0.02161464 0.00262153 -0.03428244
v 0.02021555 0.00206466 -0.03514549
v 0.01787308 0.00227290 -0.03618435
v 0.01244463 0.00218087 -0.03841391
v 0.01203690 0.00257708 -0.03868561
v 0.01085367 0.00150935 -0.03869360
v 0.01170911 0.00186734 -0.03856575
v 0.00977438 0.00075593 -0.03856575
v 0.01046193 0.00087604 -0.03850182
v -0.00011516 0.00009689 -0.03938085
v -0.00121044 0.00017722 -0.03934089
v -0.00646301 -0.00017219 -0.03848583
v -0.00719053 -0.00010979 -0.03842989
v -0.00677480 0.00032385 -0.03873356
v -0.00780613 0.00051337 -0.03870160
v 0.00097213 0.00014992 -0.03935688
v 0.00648053 0.00042446 -0.03882147
v 0.00704017 -0.00012773 -0.03844588
v -0.00890141 0.00009767 -0.03828605
v -0.01000469 0.00025911 -0.03820614
v -0.01109998 -0.00026110 -0.03750291
v -0.01171557 -0.00015659 -0.03737505
v -0.01213130 0.00044162 -0.03756684
v -0.01715202 -0.00012773 -0.03515348
v -0.00010716 0.00288983 0.04070740
v -0.00010716 0.00234232 0.04057155
v 0.00097213 0.00246165 0.04053958
v 0.00277096 0.00265741 0.04035578
v 0.00428197 0.00262153 0.04014801
v 0.00980636 0.00265351 0.03942880
v -0.00096260 0.00300214 0.04068342
v 0.01087766 0.00262153 0.03914910
v 0.01087766 0.00371734 0.03930094
v 0.01085367 0.00736353 0.03938884
v -0.03925757 0.00259346 0.01045255
v -0.03916163 0.00293975 0.01113180
v -0.03693909 0.00303490 0.01655786
v -0.03509229 0.00252872 0.02042562
v -0.03590776 0.00281808 0.01891527
v -0.03482047 0.00283290 0.02100898
v -0.03149465 0.00290465 0.02537220
v -0.02907223 0.00262075 0.02838490
v -0.02852059 0.00262075 0.02892830
v -0.02951194 0.00262075 0.02784149
v -0.02788101 0.00262075 0.02947970
v -0.02489096 0.00300838 0.03190105
v -0.02052582 0.00293039 0.03521741
v -0.01827129 0.00312147 0.03626426
v -0.01283484 0.00302164 0.03848583
v -0.01109998 0.00262075 0.03908517
v -0.00998071 0.00267847 0.03940482
v -0.00960495 0.00308091 0.03956465
v -0.03567591 0.00251936 -0.01925091
v -0.03492440 0.00171057 -0.02012195
v -0.03580383 0.00208494 -0.01865956
v -0.03684315 0.00230332 -0.01631812
v -0.03890580 0.00259346 -0.01151538
v -0.03906569 0.00220895 -0.01082814
v -0.04017697 0.00215669 -0.00310859
v -0.03991314 0.00262075 -0.00604138
v -0.03915364 0.00197419 -0.01010093
v -0.04027291 0.00288749 -0.00384379
v -0.04023293 0.00202722 -0.00238139
v -0.04034486 0.00180650 -0.00054340
v -0.04034486 0.00180650 0.00055140
v -0.04023293 0.00202722 0.00238139
v -0.04018496 0.00215669 0.00310859
v -0.04013699 0.00233920 0.00384379
v -0.03915364 0.00197419 0.01010093
v -0.02052582 0.00086434 -0.03413060
v -0.02093355 0.00159670 -0.03431440
v -0.02158113 0.00201163 -0.03409065
v -0.01960642 0.00185720 -0.03528134
v -0.01994220 0.00150389 -0.03489776
v -0.01943852 -0.00019325 -0.03412261
v -0.01983826 0.00046814 -0.03430641
v -0.01911874 0.00112484 -0.03506558
v -0.01876697 0.00150389 -0.03543318
v -0.02812085 -0.00013007 -0.02746591
v -0.02871247 0.00146957 -0.02806525
v -0.02760119 0.00149375 -0.02912809
v -0.02804090 0.00106557 -0.02848879
v -0.02279633 0.00188606 -0.03308375
v -0.03394105 0.00156628 -0.02139256
v -0.03368521 0.00196171 -0.02206383
v -0.03397302 0.00043850 -0.02032173
v -0.03470854 0.00097821 -0.01976235
v 0.03969882 0.00736353 0.00933377
v 0.03961887 0.00371734 0.00933377
v 0.03947496 0.00262153 0.00933377
v 0.03962686 0.00262153 0.00823098
v 0.04034639 0.00262153 0.00274100
v 0.03945898 0.00042290 -0.00163821
v 0.03900327 0.00075905 -0.00649688
v 0.03813185 0.00034179 -0.01049250
v 0.03774010 -0.00008016 -0.01090805
v 0.03794796 0.00068652 -0.01153137
v 0.03766815 0.00117320 -0.01289787
v 0.03566146 0.00195079 -0.01884335
v 0.03669278 0.00205920 -0.01649393
v 0.03796395 -0.00030400 -0.00933377
v 0.03787601 -0.00022678 -0.01017285
v 0.03913119 0.00034569 -0.00381182
v 0.03889934 -0.00014879 -0.00343624
v 0.03993067 0.00223780 0.00513837
v 0.03997864 0.00206778 0.00441117
v 0.04009056 0.00186500 0.00274100
v 0.04023447 0.00159982 0.00054340
v 0.03959489 0.00042290 -0.00053541
v 0.03527771 0.00156082 -0.01921894
v 0.03474206 0.00157564 -0.02028178
v 0.03455818 0.00084952 -0.01988222
v 0.03431034 0.00124417 -0.02060942
v 0.03395058 0.00041042 -0.02033772
v 0.03357482 0.00070446 -0.02110488
v 0.03252751 0.00172617 -0.02337439
v 0.03123235 0.00201553 -0.02531626
v 0.02857009 0.00137208 -0.02813717
v 0.02789054 0.00097977 -0.02855272
v 0.02920168 0.00176282 -0.02772962
v 0.02111896 0.00119503 -0.03389886
v 0.02143875 0.00192739 -0.03414659
v 0.02066326 0.00162946 -0.03453017
v 0.02038344 0.00078011 -0.03417855
v 0.02002368 0.00004775 -0.03392283
v 0.01965592 0.00041744 -0.03437034
v 0.01929616 -0.00021976 -0.03414659
v 0.01859261 0.00043694 -0.03487379
v 0.01897636 0.00107102 -0.03508955
v 0.01966391 0.00186656 -0.03526536
v 0.01478710 0.00202020 -0.03737505
v 0.01119745 0.00113420 -0.03834998
v 0.01417151 0.00124963 -0.03719125
v 0.00977438 0.00020686 -0.03823011
v 0.01194896 0.00040964 -0.03761479
v 0.01085367 0.00047437 -0.03810225
v -0.00011516 -0.00036405 -0.03882945
v -0.00121044 -0.00036405 -0.03879749
v -0.00231372 -0.00036093 -0.03874155
v -0.00340900 -0.00034066 -0.03868561
v 0.00318668 -0.00034768 -0.03869360
v 0.00276296 -0.00035313 -0.03871758
v 0.00207541 -0.00036327 -0.03874954
v 0.00097213 -0.00036405 -0.03880548
v -0.00450429 -0.00029386 -0.03861369
v -0.00560757 -0.00023068 -0.03854177
v -0.01000469 -0.00035625 -0.03765474
v 0.00648053 -0.00016985 -0.03848583
v 0.00538525 -0.00024550 -0.03855775
v 0.00428197 -0.00030556 -0.03862168
v 0.01086966 -0.00029074 -0.03753487
v 0.00977438 -0.00036405 -0.03767871
v -0.01329854 -0.00031258 -0.03648802
v -0.01879095 -0.00029542 -0.03425846
v -0.01406604 -0.00021586 -0.03634418
v -0.01876697 0.00046814 -0.03482584
v -0.00010716 0.00152261 0.04019596
v 0.00097213 0.00152261 0.04014002
v -0.00128239 0.00263011 0.04054757
v -0.00121044 0.00152261 0.04010805
v 0.00728001 0.00201163 0.03957264
v 0.00800753 0.00212628 0.03952469
v 0.00977438 0.00152183 0.03898129
v 0.00867909 0.00229162 0.03947674
v 0.01170911 0.00186734 0.03856575
v 0.01244463 0.00217931 0.03840592
v 0.01203690 0.00257552 0.03868561
v 0.01268448 0.00291245 0.03850980
v 0.01085367 0.00150935 0.03869360
v 0.01197294 0.00371734 0.03887740
v 0.01197294 0.00736353 0.03895732
v -0.03906569 0.00220895 0.01082814
v -0.03891379 0.00259346 0.01150739
v -0.03567591 0.00251936 0.01925890
v -0.03492440 0.00171057 0.02012994
v -0.03470055 0.00210054 0.02085715
v -0.03580383 0.00208494 0.01866755
v -0.03138272 0.00217385 0.02522037
v -0.02936004 0.00187358 0.02763372
v -0.02832872 0.00179714 0.02874450
v -0.03036738 0.00199915 0.02642704
v -0.02715348 0.00192349 0.02975939
v -0.02593828 0.00204906 0.03077428
v -0.02473906 0.00227758 0.03178917
v -0.02093355 0.00258722 0.03480187
v -0.02034194 0.00219881 0.03510554
v -0.01994220 0.00258722 0.03540121
v -0.01869501 0.00270265 0.03596859
v -0.01802345 0.00239145 0.03616038
v -0.01259500 0.00229084 0.03838195
v -0.01221125 0.00264259 0.03863767
v -0.01102802 0.00154132 0.03865365
v -0.00999670 0.00152261 0.03893334
v -0.01185948 0.00192037 0.03853378
v -0.00890141 0.00234778 0.03946875
v -0.03595573 0.00181820 -0.01793235
v -0.03802637 0.00203502 -0.01323350
v -0.03837015 0.00145397 -0.01158730
v -0.03811432 0.00078011 -0.01125966
v -0.03884184 0.00157330 -0.01045255
v -0.04012900 0.00233920 -0.00384379
v -0.03802637 -0.00015191 -0.00995709
v -0.03844210 0.00042368 -0.00933377
v -0.03892179 0.00130968 -0.00933377
v -0.03921760 0.00185876 -0.00933377
v -0.03959335 0.00042368 -0.00054340
v -0.03873791 0.00042368 -0.00713618
v -0.03909768 -0.00011291 -0.00214165
v -0.03960134 0.00042368 -0.00000000
v -0.03960134 0.00042368 0.00055140
v -0.03936150 0.00050947 0.00274899
v -0.03892979 0.00130968 0.00933377
v -0.03921760 0.00185876 0.00933377
v -0.03803437 -0.00015191 0.00995709
v -0.03884184 0.00157330 0.01045255
v -0.02017404 0.00013198 -0.03387488
v -0.02096553 0.00043538 -0.03349929
v -0.02262044 -0.00011915 -0.03185310
v -0.02562648 0.00131670 -0.03052655
v -0.01983826 -0.00034611 -0.03350729
v -0.02068571 -0.00026656 -0.03314768
v -0.02756921 -0.00024784 -0.02770564
v -0.02832872 -0.00024784 -0.02691451
v -0.02942400 -0.00027124 -0.02552403
v -0.03043134 -0.00022211 -0.02431736
v -0.03144668 -0.00015347 -0.02310269
v -0.03371719 0.00081443 -0.02100898
v -0.02697760 -0.00008172 -0.02852075
v -0.02625007 -0.00028450 -0.02880044
v -0.02730538 0.00065064 -0.02877647
v -0.02653788 0.00034725 -0.02916005
v -0.03346136 0.00008207 -0.02068134
v -0.03374118 -0.00023926 -0.01995414
v -0.03451667 0.00038000 -0.01933082
v -0.03503633 0.00038000 -0.01814811
v 0.03949895 0.00736353 0.01043656
v 0.03941900 0.00371734 0.01043656
v 0.03926710 0.00262153 0.01043656
v 0.03900327 0.00185174 0.01043656
v 0.03910721 0.00165207 0.00933377
v 0.03762018 0.00013822 -0.01153137
v 0.03671677 -0.00016517 -0.01326547
v 0.03691664 0.00043304 -0.01366503
v 0.03516578 0.00052429 -0.01802825
v 0.03894731 -0.00019949 -0.00273301
v 0.03901927 -0.00026968 -0.00163821
v 0.03909122 -0.00032428 -0.00053541
v 0.03803591 -0.00034533 -0.00823897
v 0.03723643 -0.00054188 -0.00933377
v 0.03706854 -0.00036015 -0.01153137
v 0.03685268 -0.00027046 -0.01262617
v 0.03933106 0.00152183 0.00712819
v 0.03945898 0.00042290 0.00163820
v 0.03959489 0.00042290 0.00054340
v 0.03467010 0.00045956 -0.01913104
v 0.03432633 0.00011795 -0.01942671
v 0.03359881 -0.00027670 -0.02005003
v 0.03331099 -0.00002712 -0.02077723
v 0.03231165 -0.00014489 -0.02199190
v 0.02898582 -0.00011681 -0.02635512
v 0.02895384 0.00103047 -0.02740997
v 0.02797048 -0.00019559 -0.02754582
v 0.02820233 0.00042446 -0.02778556
v 0.02764270 0.00042446 -0.02833695
v 0.02683523 -0.00015191 -0.02858468
v 0.02320560 0.00020998 -0.03162135
v 0.02082316 0.00035037 -0.03354724
v 0.02126287 -0.00007782 -0.03290794
v 0.02053535 -0.00028450 -0.03319563
v 0.01965592 -0.00037263 -0.03353925
v 0.01856863 -0.00031570 -0.03429043
v 0.01637007 -0.00026656 -0.03530532
v 0.01391567 -0.00024082 -0.03636815
v 0.01700165 -0.00016205 -0.03517746
v 0.01824084 0.00081053 -0.03524139
v 0.01423546 0.00034413 -0.03663186
v 0.01156521 -0.00018779 -0.03739902
v 0.00207541 -0.00060193 -0.03790247
v 0.00097213 -0.00060427 -0.03790247
v -0.00121044 -0.00060427 -0.03790247
v -0.00231372 -0.00059959 -0.03790247
v -0.00340900 -0.00057932 -0.03790247
v -0.00450429 -0.00053330 -0.03790247
v 0.00428197 -0.00054422 -0.03789448
v 0.00318668 -0.00058634 -0.03789448
v 0.00276296 -0.00050210 -0.03822212
v -0.01000469 -0.00059491 -0.03679968
v -0.01109998 -0.00049976 -0.03679968
v 0.01306823 -0.00033051 -0.03652798
v 0.01086966 -0.00052940 -0.03679968
v 0.00977438 -0.00060271 -0.03679968
v -0.01548911 -0.00034611 -0.03548112
v -0.01879095 -0.00053408 -0.03350729
v -0.00010716 0.00064596 0.03972447
v 0.00097213 0.00069900 0.03969251
v 0.00208341 0.00152261 0.03999618
v 0.00648053 0.00191491 0.03962858
v -0.00815790 0.00216215 0.03951670
v -0.00742238 0.00202956 0.03956465
v -0.00670285 0.00194221 0.03961259
v -0.00779014 0.00160762 0.03929295
v -0.00372080 0.00103125 0.03951670
v -0.00121044 0.00072630 0.03967653
v 0.00977438 0.00075593 0.03855775
v 0.01046992 0.00087604 0.03849382
v 0.00538525 0.00042290 0.03896530
v 0.00747988 0.00036597 0.03865365
v 0.01085367 0.00047437 0.03811024
v 0.01897636 0.00107102 0.03508955
v 0.01479510 0.00202020 0.03737505
v 0.02021555 0.00206388 0.03514549
v 0.01787308 0.00227212 0.03618435
v 0.01966391 0.00262153 0.03554505
v 0.01812092 0.00300526 0.03628824
v 0.01816889 0.00371734 0.03631221
v 0.01305224 0.00736353 0.03851780
v -0.03811432 0.00078011 0.01125167
v -0.03837015 0.00145397 0.01158730
v -0.03803437 0.00203502 0.01323350
v -0.03470854 0.00097821 0.01977034
v -0.03398102 0.00043850 0.02032173
v -0.03346936 0.00008207 0.02068933
v -0.03394105 0.00156628 0.02139256
v -0.03678719 0.00119426 0.01507149
v -0.03059923 0.00158812 0.02577176
v -0.02812085 -0.00013007 0.02746591
v -0.02872046 0.00146957 0.02806525
v -0.02804090 0.00106557 0.02848878
v -0.02760119 0.00149375 0.02912809
v -0.02562648 0.00131670 0.03052655
v -0.02093355 0.00159670 0.03431440
v -0.02158113 0.00201163 0.03409065
v -0.02052582 0.00086434 0.03412261
v -0.02017404 0.00013198 0.03387488
v -0.01943852 -0.00019325 0.03411462
v -0.01994220 0.00150389 0.03489776
v -0.01960642 0.00185720 0.03527335
v -0.01729593 0.00196561 0.03631221
v -0.01493747 0.00207402 0.03734308
v -0.01062029 0.00092752 0.03846985
v -0.00999670 0.00080897 0.03853378
v -0.00890141 0.00064674 0.03862168
v -0.00890141 0.00152261 0.03910116
v -0.01839921 0.00086434 0.03521741
v -0.03761065 0.00160996 -0.01365704
v -0.03783450 0.00127069 -0.01263416
v -0.03788247 0.00004853 -0.01069229
v -0.03821825 0.00041822 -0.01036464
v -0.03727487 0.00035349 -0.01269010
v -0.03701903 -0.00023380 -0.01236245
v -0.03717094 -0.00032584 -0.01153137
v -0.03749072 -0.00033208 -0.01036464
v -0.03807434 -0.00020261 -0.00933377
v -0.03914565 -0.00017297 -0.00141445
v -0.03920160 -0.00023224 -0.00054340
v -0.03940147 0.00009143 -0.00000000
v -0.03920160 -0.00023224 0.00055140
v -0.03914565 -0.00017297 0.00141445
v -0.03909768 -0.00011291 0.00214165
v -0.03844210 0.00042368 0.00933377
v -0.03807434 -0.00020261 0.00933377
v -0.03749072 -0.00033208 0.01036464
v -0.03717893 -0.00032584 0.01153137
v -0.03701903 -0.00023380 0.01235446
v -0.03685114 -0.00005988 0.01308966
v -0.03788247 0.00004853 0.01068429
v -0.03821825 0.00041822 0.01036464
v -0.02382766 -0.00019715 -0.03083821
v -0.02101350 -0.00040149 -0.03245244
v -0.02539463 -0.00039369 -0.02914407
v -0.02504286 -0.00025408 -0.02982332
v -0.02756921 -0.00048650 -0.02691451
v -0.02872046 -0.00040383 -0.02585967
v -0.02977577 -0.00036639 -0.02469294
v -0.03308560 -0.00038121 -0.02032173
v -0.03274183 -0.00027982 -0.02116081
v -0.02655388 -0.00041163 -0.02809722
v -0.03391706 -0.00033051 -0.01922693
v -0.03479648 -0.00021274 -0.01778851
v -0.03462060 -0.00001464 -0.01851571
v -0.03583581 -0.00015269 -0.01543908
v 0.03911520 0.00736353 0.01159530
v 0.03908322 0.00371734 0.01146744
v 0.03901127 0.00262153 0.01128364
v 0.03891533 0.00201318 0.01105988
v 0.03869947 0.00130266 0.01043656
v 0.03844364 0.00042290 0.00933377
v 0.03449422 -0.00013631 -0.01869951
v 0.03568544 -0.00022289 -0.01561489
v 0.03909122 -0.00032428 0.00054340
v 0.03833172 -0.00056294 -0.00053541
v 0.03614114 -0.00059881 -0.01153137
v 0.03614114 -0.00050912 -0.01262617
v 0.03723643 -0.00058477 -0.00823897
v 0.03483000 -0.00035080 -0.01702135
v 0.03583734 -0.00031726 -0.01482376
v 0.03461414 -0.00023926 -0.01812414
v 0.03913119 0.00034569 0.00381182
v 0.03889934 -0.00014879 0.00343623
v 0.03894731 -0.00019949 0.00274100
v 0.03901927 -0.00026968 0.00163820
v 0.03395058 -0.00031960 -0.01913104
v 0.03393459 -0.00047870 -0.01812414
v 0.03290326 -0.00040773 -0.02037767
v 0.03064874 -0.00036015 -0.02358216
v 0.03028098 -0.00026656 -0.02440526
v 0.03129631 -0.00021509 -0.02319858
v 0.02879395 0.00031917 -0.02698643
v 0.02822632 -0.00029776 -0.02690652
v 0.02734689 -0.00053720 -0.02690652
v 0.02725895 -0.00027982 -0.02794538
v 0.02488450 -0.00027982 -0.02987926
v 0.02368529 -0.00023848 -0.03089415
v 0.02247808 -0.00017531 -0.03190105
v 0.02404505 -0.00038043 -0.03022289
v 0.01856863 -0.00055514 -0.03349929
v 0.02185448 -0.00052082 -0.03130170
v 0.01637007 -0.00050522 -0.03460209
v 0.00276296 -0.00059179 -0.03790247
v 0.00277096 -0.00059257 -0.03789448
v 0.00867909 -0.00060427 -0.03679968
v -0.00890141 -0.00060427 -0.03679968
v -0.01220326 -0.00060427 -0.03570488
v -0.01768767 -0.00060271 -0.03350729
v -0.01548911 -0.00058477 -0.03460209
v -0.01329854 -0.00055124 -0.03570488
v 0.01306823 -0.00056918 -0.03569689
v 0.01526679 -0.00059647 -0.03460209
v 0.01746535 -0.00060427 -0.03349929
v 0.01197294 -0.00060427 -0.03569689
v -0.01987824 -0.00058945 -0.03240450
v -0.02318008 -0.00053798 -0.03020690
v -0.00010716 0.00009689 0.03937286
v 0.00097213 0.00014992 0.03935688
v -0.00121044 0.00017722 0.03934089
v 0.00704017 -0.00012851 0.03843788
v 0.00428197 0.00042290 0.03910915
v 0.00208341 0.00083237 0.03962059
v -0.00677480 0.00032385 0.03872557
v -0.00719053 -0.00010979 0.03842989
v -0.00645501 -0.00017219 0.03848583
v 0.00977438 0.00020608 0.03823011
v 0.01087766 -0.00029074 0.03754286
v 0.01156521 -0.00018779 0.03739902
v 0.01700165 -0.00016283 0.03517746
v 0.01423546 0.00034413 0.03663186
v 0.01929616 -0.00022054 0.03414658
v 0.01966391 0.00186500 0.03526536
v 0.01740139 0.00043616 0.03536924
v 0.01859261 0.00043616 0.03486580
v 0.02038344 0.00077933 0.03417855
v 0.02066326 0.00162946 0.03453017
v 0.02143875 0.00192661 0.03414658
v 0.02458070 0.00210678 0.03184511
v 0.02161464 0.00262153 0.03428244
v 0.02088712 0.00262153 0.03482584
v 0.02034347 0.00262153 0.03522540
v 0.02002368 0.00004775 0.03392283
v 0.01966391 0.00371734 0.03568889
v 0.01966391 0.00736353 0.03577680
v 0.01633009 0.00736353 0.03715929
v -0.03728286 0.00035349 0.01269010
v -0.03784249 0.00127069 0.01263416
v -0.03503633 0.00038000 0.01814012
v -0.03462060 -0.00001464 0.01852370
v -0.03451667 0.00038000 0.01933082
v -0.03374118 -0.00023926 0.01996213
v -0.03144668 -0.00015347 0.02310269
v -0.03043933 -0.00022211 0.02431735
v -0.02942400 -0.00027124 0.02552403
v -0.02832872 -0.00024784 0.02691451
v -0.02756921 -0.00024784 0.02770564
v -0.02625007 -0.00028450 0.02880044
v -0.02697760 -0.00008172 0.02852075
v -0.02730538 0.00065064 0.02877647
v -0.02653788 0.00034725 0.02916005
v -0.02456318 0.00017020 0.03055852
v -0.02326003 0.00031761 0.03166131
v -0.02173302 0.00073877 0.03311572
v -0.02096553 0.00043538 0.03349130
v -0.02262044 -0.00011915 0.03184511
v -0.02068571 -0.00026656 0.03314768
v -0.01911874 0.00112484 0.03506558
v -0.01983826 -0.00034611 0.03350729
v -0.01879095 -0.00029542 0.03425846
v -0.01659239 -0.00022912 0.03526536
v -0.01715202 -0.00012773 0.03515348
v -0.01876697 0.00046814 0.03481785
v -0.01876697 0.00150389 0.03543318
v -0.00999670 0.00025911 0.03820614
v -0.01102802 0.00050635 0.03805430
v -0.03685114 -0.00005988 -0.01308966
v -0.03595573 -0.00025642 -0.01483175
v -0.03494040 -0.00031102 -0.01702934
v -0.03617159 -0.00035547 -0.01372896
v -0.03526018 -0.00049508 -0.01483175
v -0.03635547 -0.00056450 -0.01153137
v -0.03745075 -0.00044205 -0.00933377
v -0.03814630 -0.00027202 -0.00823897
v -0.03821825 -0.00032584 -0.00713618
v -0.03827421 -0.00035625 -0.00604138
v -0.03855403 -0.00047090 -0.00054340
v -0.03856203 -0.00047090 -0.00000000
v -0.03888981 -0.00035001 -0.00000000
v -0.03856203 -0.00047090 0.00055140
v -0.03828221 -0.00035625 0.00604138
v -0.03821825 -0.00032584 0.00713618
v -0.03814630 -0.00027202 0.00823897
v -0.03745075 -0.00044205 0.00933377
v -0.03635547 -0.00056450 0.01153137
v -0.03526018 -0.00049508 0.01483175
v -0.03617159 -0.00035547 0.01372896
v -0.03494040 -0.00031102 0.01702934
v -0.03595573 -0.00025642 0.01483175
v -0.03479648 -0.00021274 0.01778851
v -0.03583581 -0.00015269 0.01543908
v -0.02756921 -0.00060427 -0.02581172
v -0.02866450 -0.00059257 -0.02471692
v -0.02976777 -0.00055592 -0.02361413
v -0.03086306 -0.00050444 -0.02251933
v -0.02426737 -0.00058009 -0.02911210
v -0.02537065 -0.00060271 -0.02800931
v -0.02646593 -0.00060427 -0.02691451
v -0.03306162 -0.00056918 -0.01922693
v -0.03415691 -0.00054968 -0.01702934
v 0.03801192 0.00736353 0.01427236
v 0.03885937 0.00371734 0.01201883
v 0.03782804 0.00299200 0.01438424
v 0.03560549 0.00309027 0.01981029
v 0.03550156 0.00235870 0.01957056
v 0.03772411 0.00226042 0.01414450
v 0.03669278 0.00205998 0.01649393
v 0.03544560 0.00121843 0.01832392
v 0.03794796 0.00068652 0.01153137
v 0.03774010 -0.00008094 0.01090006
v 0.03813185 0.00034023 0.01050049
v 0.03787601 -0.00022678 0.01017285
v 0.03796395 -0.00030400 0.00933377
v 0.03802791 -0.00034611 0.00823098
v 0.03833172 -0.00056294 0.00054340
v 0.03723643 -0.00060349 -0.00649688
v 0.03723643 -0.00060271 -0.00713618
v 0.03614114 -0.00060427 -0.01042857
v 0.03503786 -0.00060427 -0.01372896
v 0.03283930 -0.00059647 -0.01921894
v 0.03393459 -0.00058867 -0.01702135
v 0.03503786 -0.00055670 -0.01482376
v 0.03174402 -0.00049820 -0.02141653
v 0.02959343 -0.00040071 -0.02474888
v 0.02514833 -0.00060427 -0.02800132
v 0.02405305 -0.00059881 -0.02910411
v 0.02294977 -0.00056840 -0.03019891
v 0.02624361 -0.00050444 -0.02800132
v 0.03064074 -0.00055046 -0.02251933
v 0.02954546 -0.00058867 -0.02361413
v 0.02844218 -0.00060427 -0.02470893
v 0.01966391 -0.00060349 -0.03240450
v -0.02098152 -0.00060427 -0.03130969
v 0.02076719 -0.00060427 -0.03130170
v -0.00010716 -0.00036405 0.03882945
v 0.00097213 -0.00036405 0.03880548
v 0.00208341 -0.00036327 0.03874954
v 0.00277096 -0.00035313 0.03871758
v -0.00340900 -0.00034066 0.03868561
v -0.00230573 -0.00036093 0.03874155
v -0.00121044 -0.00036405 0.03878950
v 0.00318668 -0.00034768 0.03869360
v 0.00428197 -0.00030556 0.03862168
v 0.00538525 -0.00024550 0.03854976
v 0.00648053 -0.00017063 0.03847784
v -0.00560757 -0.00023068 0.03854177
v -0.00450429 -0.00029386 0.03861369
v 0.00977438 -0.00036405 0.03767871
v -0.00890141 0.00009767 0.03827806
v -0.00999670 -0.00035625 0.03765474
v 0.01087766 -0.00052940 0.03679968
v 0.01307622 -0.00033051 0.03651998
v 0.01856863 -0.00031648 0.03429043
v 0.01637007 -0.00026656 0.03531331
v 0.01391567 -0.00024082 0.03636815
v 0.01965592 -0.00037419 0.03353126
v 0.02053535 -0.00028528 0.03319563
v 0.02126287 -0.00007782 0.03290794
v 0.02159865 0.00065376 0.03317165
v 0.02111896 0.00119503 0.03389886
v 0.02579591 0.00196561 0.03083022
v 0.02777062 0.00262153 0.02955961
v 0.02353339 0.00310119 0.03297187
v 0.02046339 0.00371734 0.03530532
v 0.02100704 0.00371734 0.03492174
v 0.02052735 0.00736353 0.03534527
v -0.03392506 -0.00033051 0.01922693
v -0.03308560 -0.00038121 0.02032173
v -0.03274183 -0.00027982 0.02116081
v -0.02977577 -0.00036639 0.02469294
v -0.02872845 -0.00040383 0.02585967
v -0.02756921 -0.00048650 0.02691451
v -0.02655388 -0.00041163 0.02809721
v -0.02539463 -0.00039369 0.02914407
v -0.02504286 -0.00025408 0.02982332
v -0.02382766 -0.00019715 0.03083821
v -0.02102149 -0.00040149 0.03245244
v -0.01879095 -0.00053408 0.03349929
v -0.01548911 -0.00034611 0.03547313
v -0.01329854 -0.00031258 0.03648802
v -0.01109998 -0.00026110 0.03750291
v -0.01406604 -0.00021586 0.03633618
v -0.01171557 -0.00015659 0.03737505
v -0.03635547 -0.00060427 -0.01043656
v -0.03745075 -0.00056450 -0.00713618
v -0.03745075 -0.00051068 -0.00823897
v -0.03526018 -0.00059414 -0.01372896
v -0.03745075 -0.00059491 -0.00604138
v -0.03745075 -0.00060427 -0.00493859
v -0.03745075 -0.00060427 0.00493859
v -0.03745075 -0.00059491 0.00604138
v -0.03745075 -0.00056450 0.00713618
v -0.03745075 -0.00051068 0.00823897
v -0.03635547 -0.00060427 0.01043656
v -0.03526018 -0.00059414 0.01372896
v -0.03415691 -0.00054968 0.01702934
v -0.03086306 -0.00060427 -0.02141653
v -0.03196634 -0.00059881 -0.02032173
v -0.03306162 -0.00060427 -0.01812414
v -0.03415691 -0.00060427 -0.01592655
v 0.03595727 0.00736353 0.01921894
v 0.03587732 0.00371734 0.01921894
v 0.03561349 0.00371734 0.01982628
v 0.03530969 0.00371734 0.02036968
v 0.03475805 0.00371734 0.02122474
v 0.03467010 0.00262153 0.02110488
v 0.03524573 0.00268315 0.02023383
v 0.03455018 0.00197731 0.02094505
v 0.03474206 0.00157564 0.02026579
v 0.03455818 0.00084952 0.01988222
v 0.03526971 0.00156004 0.01920296
v 0.03565346 0.00195001 0.01883536
v 0.03467010 0.00045956 0.01911506
v 0.03516578 0.00052351 0.01802025
v 0.03671677 -0.00016517 0.01326546
v 0.03449422 -0.00013709 0.01869152
v 0.03685268 -0.00027046 0.01262617
v 0.03706854 -0.00036015 0.01153137
v 0.03723643 -0.00054266 0.00933377
v 0.03723643 -0.00058477 0.00823098
v 0.03723643 -0.00060271 0.00712819
v 0.03723643 -0.00060349 0.00603339
v 0.03677273 -0.00060427 -0.00649688
v 0.03174402 -0.00060427 -0.02032173
v 0.00097213 -0.00060271 0.03789448
v 0.00208341 -0.00060193 0.03789448
v -0.00230573 -0.00059959 0.03789448
v -0.00121044 -0.00060271 0.03789448
v 0.00277096 -0.00059257 0.03789448
v 0.00318668 -0.00058634 0.03789448
v -0.00450429 -0.00053330 0.03789448
v -0.00340900 -0.00057932 0.03789448
v 0.00428197 -0.00054500 0.03789448
v 0.00977438 -0.00060349 0.03679968
v -0.01109998 -0.00049976 0.03679968
v -0.00999670 -0.00059491 0.03679968
v 0.01307622 -0.00057074 0.03569689
v 0.01856863 -0.00055514 0.03349929
v 0.01637007 -0.00050600 0.03460209
v 0.02185448 -0.00052160 0.03130170
v 0.02404505 -0.00038043 0.03022288
v 0.02489250 -0.00027982 0.02987127
v 0.02368529 -0.00023848 0.03089415
v 0.02247008 -0.00017531 0.03190904
v 0.02683523 -0.00015269 0.02858468
v 0.02709106 0.00042290 0.02878446
v 0.02789054 0.00097977 0.02855272
v 0.02745082 0.00141030 0.02918402
v 0.02700312 0.00184004 0.02981533
v 0.02817835 0.00171291 0.02879245
v 0.02890587 0.00228382 0.02846481
v 0.02850613 0.00263791 0.02894429
v 0.02904178 0.00301618 0.02860865
v 0.02788254 0.00371734 0.02964751
v 0.02607572 0.00371734 0.03104598
v 0.02179852 0.00736353 0.03442628
v 0.02107899 0.00736353 0.03496968
v -0.03306162 -0.00056918 0.01922693
v -0.03086306 -0.00050444 0.02251933
v -0.02976777 -0.00055592 0.02361413
v -0.02867249 -0.00059257 0.02471692
v -0.02756921 -0.00060271 0.02581172
v -0.02537065 -0.00060271 0.02800931
v -0.02426737 -0.00058009 0.02911210
v -0.02318008 -0.00053798 0.03020690
v -0.01987824 -0.00058945 0.03240450
v -0.01768767 -0.00060271 0.03349929
v -0.01548911 -0.00058477 0.03460209
v -0.01329854 -0.00055124 0.03569689
v -0.03415691 -0.00060427 0.01592655
v 0.03565346 0.00736353 0.01991418
v 0.03535766 0.00736353 0.02045759
v 0.03481401 0.00736353 0.02128867
v 0.03239959 0.00371734 0.02430137
v 0.03235962 0.00293741 0.02425343
v 0.03425438 0.00262153 0.02165627
v 0.03223970 0.00220505 0.02409360
v 0.03123235 0.00201396 0.02530827
v 0.03354284 0.00185174 0.02215972
v 0.03391860 0.00154912 0.02140055
v 0.03356683 0.00070446 0.02110488
v 0.03395058 0.00041042 0.02032173
v 0.03430235 0.00124417 0.02060942
v 0.03432633 0.00011638 0.01942671
v 0.03568544 -0.00022289 0.01561489
v 0.03461414 -0.00024082 0.01811615
v 0.03359881 -0.00027748 0.02004204
v 0.03582935 -0.00031804 0.01482376
v 0.03482201 -0.00035080 0.01702135
v 0.03613315 -0.00050912 0.01262617
v 0.03613315 -0.00059881 0.01153137
v 0.03613315 -0.00060349 0.01043656
v 0.03503786 -0.00060349 0.01372896
v 0.03174402 -0.00060349 0.02031374
v 0.02845017 -0.00060349 0.02471692
v 0.02514833 -0.00060349 0.02800931
v 0.01966391 -0.00060349 0.03239650
v 0.00277096 -0.00060427 0.02032173
v -0.00890141 -0.00060271 0.03679968
v 0.00277096 -0.00060349 0.03679968
v 0.01746535 -0.00060349 0.03349929
v 0.01527478 -0.00059725 0.03460209
v -0.01220326 -0.00060271 0.03569689
v 0.02294977 -0.00056840 0.03020690
v 0.02624361 -0.00050444 0.02800931
v 0.02725895 -0.00027982 0.02794538
v 0.02797048 -0.00019637 0.02754582
v 0.02764270 0.00042290 0.02834494
v 0.02820233 0.00042290 0.02779355
v 0.02857009 0.00137208 0.02813717
v 0.02920168 0.00176282 0.02772962
v 0.02934559 0.00263791 0.02806525
v 0.03045686 0.00371734 0.02683460
v 0.02955345 0.00371734 0.02800931
v 0.02906577 0.00371734 0.02864062
v 0.02845017 0.00371734 0.02916804
v 0.02849814 0.00736353 0.02923996
v 0.02795450 0.00736353 0.02969546
v -0.03306162 -0.00060427 0.01812414
v -0.03196634 -0.00059881 0.02032173
v -0.03086306 -0.00060271 0.02141653
v -0.03196634 -0.00060427 0.01922693
v -0.02098152 -0.00060271 0.03130969
v -0.03086306 -0.00060427 0.02032173
v 0.02967337 0.00736353 0.02797735
v 0.02895384 0.00103047 0.02740997
v 0.02879395 0.00031917 0.02698643
v 0.03101650 0.00013432 0.02392578
v 0.03231165 -0.00014489 0.02198391
v 0.03331099 -0.00002868 0.02077723
v 0.03395058 -0.00031960 0.01911506
v 0.03289527 -0.00040773 0.02036968
v 0.03283930 -0.00059725 0.01921894
v 0.03393459 -0.00047870 0.01811615
v 0.03129631 -0.00021509 0.02319858
v 0.03028098 -0.00026656 0.02440526
v 0.03064874 -0.00036015 0.02358216
v 0.03503786 -0.00055670 0.01482376
v 0.03393459 -0.00058867 0.01702135
v 0.02954546 -0.00058945 0.02361413
v 0.02734689 -0.00053720 0.02690652
v 0.02405305 -0.00059959 0.02910411
v 0.02822632 -0.00029776 0.02690652
v 0.02898582 -0.00011681 0.02634713
v 0.02911374 0.00736353 0.02868057
v 0.02932960 0.00736353 0.02841686
v 0.03174402 -0.00049820 0.02141653
v 0.03064074 -0.00055202 0.02251933
v 0.02959343 -0.00040071 0.02474888
f 1 2 3
f 1 3 4
f 1 4 5
f 1 5 6
f 1 6 7
f 1 7 8
f 1 8 2
f 2 9 3
f 2 8 10
f 2 10 11
f 2 11 9
f 3 9 12
f 3 12 13
f 3 13 4
f 4 13 14
f 4 14 5
f 5 15 72
f 5 72 136
f 5 136 235
f 5 235 335
f 5 335 472
f 5 472 617
f 5 617 762
f 5 762 761
f 5 761 892
f 5 892 983
f 5 983 982
f 5 982 1044
f 5 1044 1043
f 5 1043 1071
f 5 1071 1072
f 5 1072 1051
f 5 1051 999
f 5 999 998
f 5 998 997
f 5 997 927
f 5 927 827
f 5 827 683
f 5 683 537
f 5 537 389
f 5 389 280
f 5 280 191
f 5 191 97
f 5 97 31
f 5 31 6
f 5 14 16
f 5 16 17
f 5 17 18
f 5 18 19
f 5 19 20
f 5 20 21
f 5 21 22
f 5 22 23
f 5 23 24
f 5 24 25
f 5 25 26
f 5 26 27
f 5 27 28
f 5 28 29
f 5 29 30
f 5 30 15
f 6 31 32
f 6 32 33
f 6 33 34
f 6 34 35
f 6 35 36
f 6 36 37
f 6 37 38
f 6 38 39
f 6 39 40
f 6 40 41
f 6 41 42
f 6 42 43
f 6 43 44
f 6 44 45
f 6 45 46
f 6 46 47
f 6 47 48
f 6 48 49
f 6 49 50
f 6 50 51
f 6 51 52
f 6 52 53
f 6 53 54
f 6 54 55
f 6 55 56
f 6 56 57
f 6 57 58
f 6 58 59
f 6 59 60
f 6 60 61
f 6 61 7
f 7 61 8
f 8 61 62
f 8 62 10
f 9 11 63
f 9 63 64
f 9 64 65
f 9 65 66
f 9 66 12
f 10 62 67
f 10 67 11
f 11 67 63
f 12 68 13
f 12 66 65
f 12 65 69
f 12 69 70
f 12 70 68
f 13 68 14
f 14 68 70
f 14 70 71
f 14 71 16
f 15 30 73
f 15 73 74
f 15 74 75
f 15 75 76
f 15 76 77
f 15 77 78
f 15 78 79
f 15 79 80
f 15 80 81
f 15 81 82
f 15 82 83
f 15 83 84
f 15 84 85
f 15 85 72
f 16 71 17
f 17 86 87
f 17 87 18
f 17 71 86
f 18 87 88
f 18 88 19
f 19 88 89
f 19 89 20
f 20 89 90
f 20 90 21
f 21 90 22
f 22 90 91
f 22 91 23
f 23 91 92
f 23 92 24
f 24 92 25
f 25 92 26
f 26 92 93
f 26 93 27
f 27 94 28
f 27 93 94
f 28 94 95
f 28 95 29
f 29 95 96
f 29 96 30
f 30 96 73
f 31 97 32
f 32 98 33
f 32 97 99
f 32 99 100
f 32 100 98
f 33 98 101
f 33 101 35
f 33 35 34
f 35 101 36
f 36 101 102
f 36 102 103
f 36 103 37
f 37 103 104
f 37 104 38
f 38 104 39
f 39 104 105
f 39 105 40
f 40 105 106
f 40 106 41
f 41 106 42
f 42 106 107
f 42 107 108
f 42 108 43
f 43 108 44
f 44 108 109
f 44 109 45
f 45 109 46
f 46 109 47
f 47 109 110
f 47 110 48
f 48 110 111
f 48 111 112
f 48 112 49
f 49 112 50
f 50 112 51
f 51 112 113
f 51 113 114
f 51 114 52
f 52 114 53
f 53 114 115
f 53 115 54
f 54 115 116
f 54 116 55
f 55 116 56
f 56 116 57
f 57 116 117
f 57 117 58
f 58 117 59
f 59 118 60
f 59 117 62
f 59 62 118
f 60 118 61
f 61 118 62
f 62 117 119
f 62 119 120
f 62 120 67
f 63 121 122
f 63 122 64
f 63 67 123
f 63 123 121
f 64 122 124
f 64 124 125
f 64 125 65
f 65 125 126
f 65 126 69
f 67 120 127
f 67 127 128
f 67 128 129
f 67 129 123
f 69 126 130
f 69 130 70
f 70 130 71
f 71 130 131
f 71 131 86
f 72 132 133
f 72 133 134
f 72 134 135
f 72 135 136
f 72 85 137
f 72 137 138
f 72 138 139
f 72 139 140
f 72 140 141
f 72 141 142
f 72 142 143
f 72 143 144
f 72 144 145
f 72 145 146
f 72 146 147
f 72 147 148
f 72 148 149
f 72 149 150
f 72 150 151
f 72 151 152
f 72 152 153
f 72 153 154
f 72 154 155
f 72 155 156
f 72 156 157
f 72 157 158
f 72 158 159
f 72 159 160
f 72 160 161
f 72 161 162
f 72 162 163
f 72 163 164
f 72 164 165
f 72 165 166
f 72 166 167
f 72 167 132
f 73 168 169
f 73 169 74
f 73 96 168
f 74 169 75
f 75 169 76
f 76 169 170
f 76 170 171
f 76 171 77
f 77 171 78
f 78 171 79
f 79 171 172
f 79 172 80
f 80 172 173
f 80 173 81
f 81 173 82
f 82 173 83
f 83 174 175
f 83 175 84
f 83 173 174
f 84 175 85
f 85 175 176
f 85 176 177
f 85 177 178
f 85 178 137
f 86 131 87
f 87 179 180
f 87 180 181
f 87 181 182
f 87 182 89
f 87 89 88
f 87 131 183
f 87 183 179
f 89 182 90
f 90 182 91
f 91 182 184
f 91 184 92
f 92 184 185
f 92 185 186
f 92 186 93
f 93 186 94
f 94 186 187
f 94 187 188
f 94 188 189
f 94 189 95
f 95 189 96
f 96 190 168
f 96 189 190
f 97 191 198
f 97 198 99
f 98 100 192
f 98 192 193
f 98 193 194
f 98 194 195
f 98 195 196
f 98 196 197
f 98 197 101
f 99 198 288
f 99 288 199
f 99 199 100
f 100 199 192
f 101 197 200
f 101 200 102
f 102 200 201
f 102 201 202
f 102 202 103
f 103 202 104
f 104 202 105
f 105 202 106
f 106 202 203
f 106 203 204
f 106 204 205
f 106 205 107
f 107 205 108
f 108 205 109
f 109 206 207
f 109 207 110
f 109 205 206
f 110 207 111
f 111 208 209
f 111 209 112
f 111 207 208
f 112 209 113
f 113 210 211
f 113 211 114
f 113 209 210
f 114 211 115
f 115 211 212
f 115 212 116
f 116 213 117
f 116 212 213
f 117 213 120
f 117 120 119
f 120 213 214
f 120 214 127
f 121 215 216
f 121 216 122
f 121 123 217
f 121 217 215
f 122 216 218
f 122 218 219
f 122 219 124
f 123 129 220
f 123 220 217
f 124 219 221
f 124 221 222
f 124 222 126
f 124 126 125
f 126 223 224
f 126 224 225
f 126 225 130
f 126 222 221
f 126 221 223
f 127 214 128
f 128 214 129
f 129 214 226
f 129 226 220
f 130 227 228
f 130 228 229
f 130 229 131
f 130 225 227
f 131 229 183
f 132 167 133
f 133 230 134
f 133 167 231
f 133 231 230
f 134 230 232
f 134 232 135
f 135 232 233
f 135 233 136
f 136 233 234
f 136 234 235
f 137 178 138
f 138 178 236
f 138 236 237
f 138 237 139
f 139 237 140
f 140 237 238
f 140 238 141
f 141 238 239
f 141 239 142
f 142 239 143
f 143 239 240
f 143 240 144
f 144 240 241
f 144 241 145
f 145 241 146
f 146 241 242
f 146 242 147
f 147 242 243
f 147 243 148
f 148 243 244
f 148 244 149
f 149 244 245
f 149 245 150
f 150 245 246
f 150 246 151
f 151 246 152
f 152 246 247
f 152 247 153
f 153 247 154
f 154 247 248
f 154 248 155
f 155 248 156
f 156 248 157
f 157 248 249
f 157 249 250
f 157 250 158
f 158 250 159
f 159 250 251
f 159 251 160
f 160 251 252
f 160 252 161
f 161 252 162
f 162 252 253
f 162 253 163
f 163 253 164
f 164 253 254
f 164 254 165
f 165 254 255
f 165 255 166
f 166 255 256
f 166 256 167
f 167 256 231
f 168 257 169
f 168 190 257
f 169 257 258
f 169 258 259
f 169 259 170
f 170 259 171
f 171 260 172
f 171 259 260
f 172 261 173
f 172 260 262
f 172 262 261
f 173 261 263
f 173 263 174
f 174 263 175
f 175 263 264
f 175 264 265
f 175 265 176
f 176 265 266
f 176 266 177
f 177 266 178
f 178 267 236
f 178 266 267
f 179 183 268
f 179 268 181
f 179 181 180
f 181 268 182
f 182 268 269
f 182 269 184
f 183 270 271
f 183 271 268
f 183 229 228
f 183 228 227
f 183 227 225
f 183 225 224
f 183 224 270
f 184 269 272
f 184 272 185
f 185 273 186
f 185 272 274
f 185 274 275
f 185 275 273
f 186 273 187
f 187 276 188
f 187 273 276
f 188 276 277
f 188 277 278
f 188 278 189
f 189 278 190
f 190 278 279
f 190 279 257
f 191 280 281
f 191 281 198
f 192 194 193
f 192 199 194
f 194 199 282
f 194 282 283
f 194 283 195
f 195 283 284
f 195 284 196
f 196 285 197
f 196 284 286
f 196 286 287
f 196 287 285
f 197 285 200
f 198 281 288
f 199 288 409
f 199 409 289
f 199 289 290
f 199 290 282
f 200 285 291
f 200 291 201
f 201 291 292
f 201 292 202
f 202 292 293
f 202 293 203
f 203 293 294
f 203 294 295
f 203 295 204
f 204 295 205
f 205 296 297
f 205 297 298
f 205 298 206
f 205 295 296
f 206 298 297
f 206 297 299
f 206 299 300
f 206 300 301
f 206 301 302
f 206 302 207
f 207 302 208
f 208 302 303
f 208 303 209
f 209 303 210
f 210 304 211
f 210 303 304
f 211 304 305
f 211 305 212
f 212 305 306
f 212 306 213
f 213 307 214
f 213 306 305
f 213 305 308
f 213 308 307
f 214 309 226
f 214 307 310
f 214 310 309
f 215 311 312
f 215 312 216
f 215 217 317
f 215 317 311
f 216 312 313
f 216 313 314
f 216 314 315
f 216 315 316
f 216 316 218
f 217 220 318
f 217 318 319
f 217 319 317
f 218 316 221
f 218 221 219
f 220 226 309
f 220 309 318
f 221 316 315
f 221 315 314
f 221 314 320
f 221 320 321
f 221 321 223
f 223 321 224
f 224 321 322
f 224 322 323
f 224 323 324
f 224 324 325
f 224 325 270
f 230 231 326
f 230 326 327
f 230 327 328
f 230 328 329
f 230 329 330
f 230 330 331
f 230 331 232
f 231 256 332
f 231 332 326
f 232 331 233
f 233 331 333
f 233 333 334
f 233 334 234
f 234 334 335
f 234 335 235
f 236 267 336
f 236 336 337
f 236 337 237
f 237 337 338
f 237 338 238
f 238 338 239
f 239 339 240
f 239 338 340
f 239 340 339
f 240 339 341
f 240 341 241
f 241 341 342
f 241 342 242
f 242 342 243
f 243 342 244
f 244 343 344
f 244 344 245
f 244 342 345
f 244 345 343
f 245 344 246
f 246 346 347
f 246 347 247
f 246 344 346
f 247 348 248
f 247 347 348
f 248 348 249
f 249 349 250
f 249 348 349
f 250 349 251
f 251 349 350
f 251 350 252
f 252 351 253
f 252 350 351
f 253 351 352
f 253 352 353
f 253 353 254
f 254 353 255
f 255 332 256
f 255 353 332
f 257 354 258
f 257 279 355
f 257 355 354
f 258 356 357
f 258 357 259
f 258 354 356
f 259 357 260
f 260 357 358
f 260 358 359
f 260 359 262
f 261 360 361
f 261 361 263
f 261 262 362
f 261 362 360
f 262 359 362
f 263 363 264
f 263 361 363
f 264 363 360
f 264 360 364
f 264 364 365
f 264 365 366
f 264 366 265
f 265 366 367
f 265 367 368
f 265 368 369
f 265 369 266
f 266 369 267
f 267 369 368
f 267 368 370
f 267 370 336
f 268 371 372
f 268 372 373
f 268 373 269
f 268 271 374
f 268 374 375
f 268 375 376
f 268 376 377
f 268 377 371
f 269 373 272
f 270 325 378
f 270 378 379
f 270 379 271
f 271 379 374
f 272 373 274
f 273 380 381
f 273 381 276
f 273 275 382
f 273 382 383
f 273 383 380
f 274 373 384
f 274 384 275
f 275 384 382
f 276 381 380
f 276 380 385
f 276 385 277
f 277 385 386
f 277 386 279
f 277 279 278
f 279 386 385
f 279 385 387
f 279 387 388
f 279 388 355
f 280 389 281
f 281 389 390
f 281 390 391
f 281 391 392
f 281 392 393
f 281 393 288
f 282 290 394
f 282 394 395
f 282 395 283
f 283 395 286
f 283 286 284
f 285 287 396
f 285 396 397
f 285 397 398
f 285 398 399
f 285 399 400
f 285 400 401
f 285 401 291
f 286 402 403
f 286 403 396
f 286 396 287
f 286 395 404
f 286 404 405
f 286 405 402
f 288 393 406
f 288 406 407
f 288 407 408
f 288 408 409
f 289 409 555
f 289 555 410
f 289 410 394
f 289 394 290
f 291 401 292
f 292 401 400
f 292 400 411
f 292 411 412
f 292 412 294
f 292 294 293
f 294 412 413
f 294 413 414
f 294 414 415
f 294 415 416
f 294 416 417
f 294 417 418
f 294 418 295
f 295 418 297
f 295 297 296
f 297 419 420
f 297 420 299
f 297 418 421
f 297 421 419
f 299 420 300
f 300 422 423
f 300 423 301
f 300 420 422
f 301 423 303
f 301 303 302
f 303 423 424
f 303 424 425
f 303 425 426
f 303 426 427
f 303 427 428
f 303 428 429
f 303 429 430
f 303 430 431
f 303 431 432
f 303 432 305
f 303 305 304
f 305 432 308
f 307 308 310
f 308 433 310
f 308 432 431
f 308 431 434
f 308 434 433
f 309 310 435
f 309 435 319
f 309 319 318
f 310 433 434
f 310 434 436
f 310 436 437
f 310 437 435
f 311 438 439
f 311 439 440
f 311 440 441
f 311 441 312
f 311 317 442
f 311 442 443
f 311 443 444
f 311 444 445
f 311 445 438
f 312 441 446
f 312 446 447
f 312 447 313
f 313 447 448
f 313 448 314
f 314 448 320
f 317 319 449
f 317 449 450
f 317 450 451
f 317 451 442
f 319 435 452
f 319 452 453
f 319 453 449
f 320 448 321
f 321 448 322
f 322 448 454
f 322 454 455
f 322 455 456
f 322 456 323
f 323 456 325
f 323 325 324
f 325 456 376
f 325 376 457
f 325 457 378
f 326 332 327
f 327 458 459
f 327 459 328
f 327 332 460
f 327 460 461
f 327 461 458
f 328 459 462
f 328 462 463
f 328 463 330
f 328 330 329
f 330 463 331
f 331 464 333
f 331 463 465
f 331 465 464
f 332 353 460
f 333 466 467
f 333 467 468
f 333 468 469
f 333 469 334
f 333 464 470
f 333 470 466
f 334 469 471
f 334 471 472
f 334 472 335
f 336 370 473
f 336 473 337
f 337 473 474
f 337 474 340
f 337 340 338
f 339 340 475
f 339 475 476
f 339 476 477
f 339 477 341
f 340 474 478
f 340 478 475
f 341 477 479
f 341 479 345
f 341 345 342
f 343 345 480
f 343 480 481
f 343 481 344
f 344 481 346
f 345 479 482
f 345 482 480
f 346 481 483
f 346 483 484
f 346 484 485
f 346 485 347
f 347 485 486
f 347 486 348
f 348 486 487
f 348 487 488
f 348 488 349
f 349 488 489
f 349 489 490
f 349 490 491
f 349 491 350
f 350 491 492
f 350 492 351
f 351 493 494
f 351 494 352
f 351 492 491
f 351 491 495
f 351 495 493
f 352 496 353
f 352 494 496
f 353 496 460
f 354 355 356
f 355 388 356
f 356 497 498
f 356 498 357
f 356 388 497
f 357 498 358
f 358 498 359
f 359 498 499
f 359 499 500
f 359 500 501
f 359 501 362
f 360 363 502
f 360 502 361
f 360 362 364
f 361 502 363
f 362 501 503
f 362 503 504
f 362 504 505
f 362 505 506
f 362 506 364
f 364 507 365
f 364 506 508
f 364 508 509
f 364 509 507
f 365 507 510
f 365 510 511
f 365 511 366
f 366 511 367
f 367 511 512
f 367 512 513
f 367 513 514
f 367 514 368
f 368 514 370
f 370 513 515
f 370 515 516
f 370 516 473
f 370 514 513
f 371 377 517
f 371 517 518
f 371 518 519
f 371 519 520
f 371 520 384
f 371 384 372
f 372 384 373
f 374 379 378
f 374 378 376
f 374 376 375
f 376 521 522
f 376 522 517
f 376 517 377
f 376 378 457
f 376 456 455
f 376 455 521
f 380 523 524
f 380 524 525
f 380 525 526
f 380 526 527
f 380 527 528
f 380 528 385
f 380 383 529
f 380 529 530
f 380 530 523
f 382 531 383
f 382 384 520
f 382 520 532
f 382 532 531
f 383 531 529
f 385 528 387
f 387 528 533
f 387 533 534
f 387 534 388
f 388 534 535
f 388 535 536
f 388 536 497
f 389 537 538
f 389 538 390
f 390 538 391
f 391 407 392
f 391 538 539
f 391 539 540
f 391 540 541
f 391 541 407
f 392 407 406
f 392 406 393
f 394 405 404
f 394 404 395
f 394 410 405
f 396 403 397
f 397 542 398
f 397 403 543
f 397 543 542
f 398 542 544
f 398 544 545
f 398 545 399
f 399 545 400
f 400 545 411
f 402 405 546
f 402 546 547
f 402 547 548
f 402 548 549
f 402 549 550
f 402 550 551
f 402 551 403
f 403 551 552
f 403 552 543
f 405 410 546
f 407 541 553
f 407 553 408
f 408 553 554
f 408 554 409
f 409 554 555
f 410 555 691
f 410 691 548
f 410 548 547
f 410 547 546
f 411 545 556
f 411 556 413
f 411 413 412
f 413 556 557
f 413 557 415
f 413 415 414
f 415 557 558
f 415 558 559
f 415 559 560
f 415 560 416
f 416 560 561
f 416 561 417
f 417 561 418
f 418 561 562
f 418 562 421
f 419 563 564
f 419 564 420
f 419 421 563
f 420 564 563
f 420 563 565
f 420 565 566
f 420 566 567
f 420 567 568
f 420 568 422
f 421 562 563
f 422 568 425
f 422 425 423
f 423 425 424
f 425 568 426
f 426 428 427
f 426 568 569
f 426 569 428
f 428 569 570
f 428 570 571
f 428 571 572
f 428 572 573
f 428 573 574
f 428 574 575
f 428 575 429
f 429 576 430
f 429 575 577
f 429 577 576
f 430 576 577
f 430 577 434
f 430 434 431
f 434 577 436
f 435 437 452
f 436 578 437
f 436 577 575
f 436 575 578
f 437 578 452
f 438 445 579
f 438 579 580
f 438 580 581
f 438 581 582
f 438 582 439
f 439 582 440
f 440 582 583
f 440 583 441
f 441 583 584
f 441 584 448
f 441 448 446
f 442 451 453
f 442 453 585
f 442 585 586
f 442 586 587
f 442 587 443
f 443 587 444
f 444 587 445
f 445 587 579
f 446 448 447
f 448 588 589
f 448 589 454
f 448 584 588
f 449 453 450
f 450 453 451
f 452 578 574
f 452 574 573
f 452 573 572
f 452 572 590
f 452 590 591
f 452 591 453
f 453 592 585
f 453 591 592
f 454 593 455
f 454 589 593
f 455 594 521
f 455 593 594
f 458 595 459
f 458 461 595
f 459 595 596
f 459 596 597
f 459 597 598
f 459 598 462
f 460 496 599
f 460 599 600
f 460 600 461
f 461 600 601
f 461 601 602
f 461 602 603
f 461 603 604
f 461 604 595
f 462 598 464
f 462 464 463
f 463 464 465
f 464 605 606
f 464 606 470
f 464 598 607
f 464 607 608
f 464 608 605
f 466 470 606
f 466 606 609
f 466 609 610
f 466 610 611
f 466 611 467
f 467 611 612
f 467 612 613
f 467 613 614
f 467 614 468
f 468 614 615
f 468 615 469
f 469 615 471
f 471 615 616
f 471 616 617
f 471 617 472
f 473 516 618
f 473 618 619
f 473 619 620
f 473 620 474
f 474 620 478
f 475 478 476
f 476 621 477
f 476 478 621
f 477 621 622
f 477 622 623
f 477 623 624
f 477 624 482
f 477 482 479
f 478 620 625
f 478 625 621
f 480 482 624
f 480 624 626
f 480 626 627
f 480 627 628
f 480 628 481
f 481 628 629
f 481 629 630
f 481 630 483
f 483 631 632
f 483 632 484
f 483 630 631
f 484 632 633
f 484 633 485
f 485 633 487
f 485 487 486
f 487 633 632
f 487 632 634
f 487 634 635
f 487 635 636
f 487 636 637
f 487 637 638
f 487 638 639
f 487 639 490
f 487 490 488
f 488 490 489
f 490 639 640
f 490 640 491
f 491 640 495
f 493 495 641
f 493 641 494
f 494 641 642
f 494 642 643
f 494 643 644
f 494 644 599
f 494 599 496
f 495 640 639
f 495 639 645
f 495 645 641
f 497 646 498
f 497 536 646
f 498 646 499
f 499 646 647
f 499 647 500
f 500 648 503
f 500 503 649
f 500 649 501
f 500 647 650
f 500 650 648
f 501 649 503
f 503 648 651
f 503 651 652
f 503 652 653
f 503 653 654
f 503 654 509
f 503 509 508
f 503 508 504
f 504 508 505
f 505 508 506
f 507 509 655
f 507 655 656
f 507 656 510
f 509 654 655
f 510 656 657
f 510 657 511
f 511 657 658
f 511 658 659
f 511 659 660
f 511 660 512
f 512 660 661
f 512 661 513
f 513 661 515
f 515 662 663
f 515 663 664
f 515 664 665
f 515 665 666
f 515 666 667
f 515 667 618
f 515 618 668
f 515 668 516
f 515 661 660
f 515 660 659
f 515 659 662
f 516 668 618
f 517 522 519
f 517 519 518
f 519 669 529
f 519 529 532
f 519 532 520
f 519 522 669
f 521 594 670
f 521 670 522
f 522 670 671
f 522 671 672
f 522 672 669
f 523 673 524
f 523 530 673
f 524 673 674
f 524 674 525
f 525 675 676
f 525 676 677
f 525 677 534
f 525 534 526
f 525 674 675
f 526 534 527
f 527 534 533
f 527 533 528
f 529 669 672
f 529 672 530
f 529 531 532
f 530 671 678
f 530 678 673
f 530 672 671
f 534 679 680
f 534 680 681
f 534 681 535
f 534 677 676
f 534 676 679
f 535 681 536
f 536 681 682
f 536 682 650
f 536 650 646
f 537 683 684
f 537 684 538
f 538 684 685
f 538 685 539
f 539 685 686
f 539 686 540
f 540 686 687
f 540 687 688
f 540 688 541
f 541 688 553
f 542 543 689
f 542 689 544
f 543 552 690
f 543 690 689
f 544 689 545
f 545 689 556
f 548 691 841
f 548 841 692
f 548 692 549
f 549 692 550
f 550 693 694
f 550 694 551
f 550 692 695
f 550 695 693
f 551 694 696
f 551 696 697
f 551 697 552
f 552 697 698
f 552 698 690
f 553 699 554
f 553 688 699
f 554 699 700
f 554 700 555
f 555 700 701
f 555 701 702
f 555 702 691
f 556 689 557
f 557 689 558
f 558 689 698
f 558 698 703
f 558 703 704
f 558 704 705
f 558 705 706
f 558 706 707
f 558 707 708
f 558 708 560
f 558 560 559
f 560 708 561
f 561 708 563
f 561 563 709
f 561 709 562
f 562 709 563
f 563 708 707
f 563 707 710
f 563 710 711
f 563 711 712
f 563 712 566
f 563 566 565
f 566 712 713
f 566 713 714
f 566 714 715
f 566 715 569
f 566 569 568
f 566 568 567
f 569 715 570
f 570 715 714
f 570 714 713
f 570 713 716
f 570 716 571
f 571 717 572
f 571 716 718
f 571 718 717
f 572 717 719
f 572 719 590
f 574 578 575
f 579 587 720
f 579 720 721
f 579 721 592
f 579 592 580
f 580 592 722
f 580 722 731
f 580 731 730
f 580 730 860
f 580 860 851
f 580 851 857
f 580 857 950
f 580 950 845
f 580 845 844
f 580 844 949
f 580 949 1024
f 580 1024 1050
f 580 1050 1048
f 580 1048 1045
f 580 1045 996
f 580 996 920
f 580 920 916
f 580 916 915
f 580 915 910
f 580 910 926
f 580 926 925
f 580 925 923
f 580 923 818
f 580 818 824
f 580 824 859
f 580 859 724
f 580 724 723
f 580 723 581
f 581 723 582
f 582 723 588
f 582 588 583
f 583 588 584
f 585 592 586
f 586 721 720
f 586 720 587
f 586 592 721
f 588 723 724
f 588 724 725
f 588 725 726
f 588 726 727
f 588 727 589
f 589 727 594
f 589 594 593
f 590 719 591
f 591 719 717
f 591 717 728
f 591 728 592
f 592 728 729
f 592 729 730
f 592 730 731
f 592 731 722
f 594 732 733
f 594 733 670
f 594 727 726
f 594 726 725
f 594 725 732
f 595 734 735
f 595 735 596
f 595 604 736
f 595 736 734
f 596 735 737
f 596 737 738
f 596 738 607
f 596 607 739
f 596 739 597
f 597 739 607
f 597 607 598
f 599 644 600
f 600 644 602
f 600 602 601
f 602 644 603
f 603 644 643
f 603 643 740
f 603 740 604
f 604 740 741
f 604 741 742
f 604 742 736
f 605 608 737
f 605 737 743
f 605 743 606
f 606 743 609
f 607 737 608
f 607 738 737
f 609 744 745
f 609 745 746
f 609 746 747
f 609 747 610
f 609 743 744
f 610 748 612
f 610 612 749
f 610 749 611
f 610 747 750
f 610 750 746
f 610 746 751
f 610 751 748
f 611 749 612
f 612 752 753
f 612 753 754
f 612 754 755
f 612 755 756
f 612 756 757
f 612 757 758
f 612 758 614
f 612 614 613
f 612 748 759
f 612 759 752
f 614 760 615
f 614 758 760
f 615 760 616
f 616 760 761
f 616 761 762
f 616 762 617
f 618 667 763
f 618 763 764
f 618 764 619
f 619 764 620
f 620 764 625
f 621 765 766
f 621 766 767
f 621 767 768
f 621 768 622
f 621 625 765
f 622 768 623
f 623 768 769
f 623 769 627
f 623 627 626
f 623 626 624
f 625 764 763
f 625 763 765
f 627 629 628
f 627 769 770
f 627 770 771
f 627 771 772
f 627 772 773
f 627 773 774
f 627 774 775
f 627 775 629
f 629 776 630
f 629 775 776
f 630 776 777
f 630 777 778
f 630 778 631
f 631 778 779
f 631 779 632
f 632 779 780
f 632 780 634
f 634 780 779
f 634 779 781
f 634 781 635
f 635 781 782
f 635 782 783
f 635 783 636
f 636 784 638
f 636 638 637
f 636 783 785
f 636 785 786
f 636 786 787
f 636 787 788
f 636 788 789
f 636 789 784
f 638 784 790
f 638 790 639
f 639 790 645
f 641 791 642
f 641 645 788
f 641 788 792
f 641 792 791
f 642 791 643
f 643 741 740
f 643 791 741
f 645 790 784
f 645 784 788
f 646 650 647
f 648 650 793
f 648 793 651
f 650 682 793
f 651 793 682
f 651 682 680
f 651 680 794
f 651 794 795
f 651 795 652
f 652 796 797
f 652 797 798
f 652 798 799
f 652 799 653
f 652 795 796
f 653 799 654
f 654 799 800
f 654 800 656
f 654 656 655
f 656 658 657
f 656 800 801
f 656 801 802
f 656 802 803
f 656 803 804
f 656 804 805
f 656 805 658
f 658 805 806
f 658 806 807
f 658 807 808
f 658 808 809
f 658 809 662
f 658 662 659
f 662 809 810
f 662 810 663
f 663 810 664
f 664 810 811
f 664 811 812
f 664 812 813
f 664 813 814
f 664 814 815
f 664 815 665
f 665 815 816
f 665 816 817
f 665 817 666
f 666 763 667
f 666 817 763
f 670 733 671
f 671 733 673
f 671 673 678
f 673 818 819
f 673 819 820
f 673 820 821
f 673 821 676
f 673 676 675
f 673 675 674
f 673 733 822
f 673 822 823
f 673 823 824
f 673 824 818
f 676 825 679
f 676 821 825
f 679 825 826
f 679 826 795
f 679 795 680
f 680 795 794
f 680 682 681
f 683 827 828
f 683 828 684
f 684 828 829
f 684 829 685
f 685 829 830
f 685 830 831
f 685 831 832
f 685 832 686
f 686 832 833
f 686 833 834
f 686 834 835
f 686 835 836
f 686 836 837
f 686 837 687
f 687 837 688
f 688 837 838
f 688 838 839
f 688 839 700
f 688 700 699
f 689 690 698
f 691 702 839
f 691 839 840
f 691 840 841
f 692 841 948
f 692 948 842
f 692 842 843
f 692 843 695
f 693 695 843
f 693 843 844
f 693 844 845
f 693 845 846
f 693 846 847
f 693 847 848
f 693 848 694
f 694 848 704
f 694 704 696
f 696 704 703
f 696 703 698
f 696 698 697
f 700 839 701
f 701 839 702
f 704 847 846
f 704 846 705
f 704 848 847
f 705 846 849
f 705 849 706
f 706 849 850
f 706 850 710
f 706 710 707
f 710 850 711
f 711 851 852
f 711 852 853
f 711 853 854
f 711 854 712
f 711 850 849
f 711 849 855
f 711 855 856
f 711 856 857
f 711 857 851
f 712 854 716
f 712 716 713
f 716 854 718
f 717 730 729
f 717 729 728
f 717 718 858
f 717 858 730
f 718 854 853
f 718 853 858
f 724 859 725
f 725 859 732
f 730 858 860
f 732 859 823
f 732 823 822
f 732 822 733
f 734 861 862
f 734 862 863
f 734 863 864
f 734 864 735
f 734 736 865
f 734 865 866
f 734 866 867
f 734 867 861
f 735 864 868
f 735 868 869
f 735 869 870
f 735 870 871
f 735 871 737
f 736 742 872
f 736 872 873
f 736 873 865
f 737 871 874
f 737 874 744
f 737 744 743
f 741 791 875
f 741 875 876
f 741 876 742
f 742 876 872
f 744 877 878
f 744 878 879
f 744 879 880
f 744 880 881
f 744 881 745
f 744 874 877
f 745 881 746
f 746 881 880
f 746 880 748
f 746 748 751
f 746 750 747
f 748 880 879
f 748 879 882
f 748 882 883
f 748 883 884
f 748 884 759
f 752 884 885
f 752 885 886
f 752 886 754
f 752 754 753
f 752 759 884
f 754 886 885
f 754 885 887
f 754 887 755
f 755 887 888
f 755 888 889
f 755 889 756
f 756 889 757
f 757 889 758
f 758 890 760
f 758 889 891
f 758 891 890
f 760 890 761
f 761 890 892
f 763 817 765
f 765 817 766
f 766 768 767
f 766 817 816
f 766 816 768
f 768 816 893
f 768 893 894
f 768 894 895
f 768 895 771
f 768 771 770
f 768 770 769
f 771 895 894
f 771 894 896
f 771 896 897
f 771 897 772
f 772 897 898
f 772 898 773
f 773 898 774
f 774 898 899
f 774 899 900
f 774 900 901
f 774 901 775
f 775 901 902
f 775 902 782
f 775 782 778
f 775 778 777
f 775 777 776
f 778 782 779
f 779 782 781
f 782 902 783
f 783 902 901
f 783 901 900
f 783 900 903
f 783 903 785
f 784 789 788
f 785 904 786
f 785 903 904
f 786 904 905
f 786 905 906
f 786 906 907
f 786 907 908
f 786 908 787
f 787 908 788
f 788 908 909
f 788 909 792
f 791 792 907
f 791 907 876
f 791 876 875
f 792 909 907
f 795 826 797
f 795 797 796
f 797 826 798
f 798 910 911
f 798 911 912
f 798 912 799
f 798 826 913
f 798 913 910
f 799 912 801
f 799 801 800
f 801 912 911
f 801 911 802
f 802 911 803
f 803 911 914
f 803 914 915
f 803 915 804
f 804 915 916
f 804 916 806
f 804 806 805
f 806 916 917
f 806 917 918
f 806 918 807
f 807 918 808
f 808 918 919
f 808 919 810
f 808 810 809
f 810 919 811
f 811 919 918
f 811 918 920
f 811 920 921
f 811 921 922
f 811 922 812
f 812 922 814
f 812 814 813
f 814 922 893
f 814 893 816
f 814 816 815
f 818 923 924
f 818 924 819
f 819 924 825
f 819 825 820
f 820 825 821
f 823 859 824
f 825 924 925
f 825 925 926
f 825 926 913
f 825 913 826
f 827 927 928
f 827 928 828
f 828 928 830
f 828 830 829
f 830 928 929
f 830 929 930
f 830 930 931
f 830 931 932
f 830 932 933
f 830 933 831
f 831 933 934
f 831 934 935
f 831 935 936
f 831 936 937
f 831 937 938
f 831 938 833
f 831 833 832
f 833 938 834
f 834 939 940
f 834 940 835
f 834 938 939
f 835 941 836
f 835 940 942
f 835 942 941
f 836 838 837
f 836 941 838
f 838 941 943
f 838 943 944
f 838 944 839
f 839 944 945
f 839 945 840
f 840 945 841
f 841 945 946
f 841 946 947
f 841 947 948
f 842 948 949
f 842 949 844
f 842 844 843
f 845 950 846
f 846 950 857
f 846 857 856
f 846 856 855
f 846 855 849
f 851 860 858
f 851 858 852
f 852 858 853
f 861 951 952
f 861 952 862
f 861 867 953
f 861 953 954
f 861 954 951
f 862 952 955
f 862 955 863
f 863 955 956
f 863 956 864
f 864 956 868
f 865 873 876
f 865 876 957
f 865 957 958
f 865 958 866
f 866 958 953
f 866 953 867
f 868 956 959
f 868 959 874
f 868 874 869
f 869 874 870
f 870 874 871
f 872 876 873
f 874 960 877
f 874 959 960
f 876 907 961
f 876 961 962
f 876 962 957
f 877 960 963
f 877 963 964
f 877 964 965
f 877 965 878
f 878 965 879
f 879 964 882
f 879 965 964
f 882 964 966
f 882 966 967
f 882 967 883
f 883 967 968
f 883 968 969
f 883 969 970
f 883 970 884
f 884 970 971
f 884 971 885
f 885 971 972
f 885 972 973
f 885 973 974
f 885 974 887
f 887 974 975
f 887 975 888
f 888 976 977
f 888 977 978
f 888 978 979
f 888 979 980
f 888 980 889
f 888 975 976
f 889 981 982
f 889 982 891
f 889 980 981
f 890 891 983
f 890 983 892
f 891 982 983
f 893 922 984
f 893 984 894
f 894 984 985
f 894 985 898
f 894 898 897
f 894 897 896
f 898 985 986
f 898 986 987
f 898 987 988
f 898 988 989
f 898 989 990
f 898 990 991
f 898 991 900
f 898 900 899
f 900 991 903
f 903 991 904
f 904 991 992
f 904 992 993
f 904 993 994
f 904 994 995
f 904 995 961
f 904 961 905
f 905 961 906
f 906 961 907
f 907 909 908
f 910 915 914
f 910 914 911
f 910 913 926
f 916 920 917
f 917 920 918
f 920 996 921
f 921 996 984
f 921 984 922
f 923 925 924
f 927 997 929
f 927 929 928
f 929 997 998
f 929 998 930
f 930 998 931
f 931 998 999
f 931 999 1000
f 931 1000 979
f 931 979 1001
f 931 1001 932
f 932 1001 1002
f 932 1002 934
f 932 934 933
f 934 936 935
f 934 1002 1003
f 934 1003 1004
f 934 1004 1005
f 934 1005 1006
f 934 1006 1007
f 934 1007 1008
f 934 1008 1009
f 934 1009 936
f 936 1009 1008
f 936 1008 1010
f 936 1010 939
f 936 939 937
f 937 939 938
f 939 1010 942
f 939 942 940
f 941 1011 943
f 941 942 1011
f 942 1012 1011
f 942 1010 1013
f 942 1013 1012
f 943 1011 1012
f 943 1012 1014
f 943 1014 944
f 944 1014 1015
f 944 1015 1016
f 944 1016 945
f 945 1016 1017
f 945 1017 946
f 946 1017 947
f 947 1017 1018
f 947 1018 948
f 948 1018 949
f 949 1018 1019
f 949 1019 1020
f 949 1020 1021
f 949 1021 1022
f 949 1022 1023
f 949 1023 1024
f 951 954 1026
f 951 1026 960
f 951 960 952
f 952 960 955
f 953 958 962
f 953 962 1025
f 953 1025 954
f 954 1025 1026
f 955 960 956
f 956 960 959
f 957 962 958
f 960 1026 1050
f 960 1050 1024
f 960 1024 1027
f 960 1027 1028
f 960 1028 963
f 961 995 962
f 962 995 994
f 962 994 993
f 962 993 1029
f 962 1029 1025
f 963 1028 964
f 964 1028 1027
f 964 1027 1023
f 964 1023 966
f 966 1030 1031
f 966 1031 967
f 966 1023 1030
f 967 1031 1032
f 967 1032 968
f 968 1032 971
f 968 971 969
f 969 971 970
f 971 1032 1033
f 971 1033 1034
f 971 1034 973
f 971 973 972
f 973 1033 1035
f 973 1035 1036
f 973 1036 977
f 973 977 976
f 973 976 974
f 973 1034 1033
f 974 976 975
f 977 1036 1037
f 977 1037 1004
f 977 1004 1003
f 977 1003 1038
f 977 1038 979
f 977 979 978
f 979 1039 1040
f 979 1040 1041
f 979 1041 1042
f 979 1042 980
f 979 1038 1001
f 979 1000 1039
f 980 1042 1043
f 980 1043 1044
f 980 1044 981
f 981 1044 982
f 984 1045 1046
f 984 1046 987
f 984 987 986
f 984 986 985
f 984 996 1045
f 987 1046 988
f 988 1046 1047
f 988 1047 1045
f 988 1045 1048
f 988 1048 989
f 989 1049 992
f 989 992 990
f 989 1048 1050
f 989 1050 1049
f 990 992 991
f 992 1049 993
f 993 1049 1050
f 993 1050 1029
f 999 1051 1039
f 999 1039 1000
f 1001 1038 1002
f 1002 1038 1003
f 1004 1037 1052
f 1004 1052 1005
f 1005 1052 1053
f 1005 1053 1054
f 1005 1054 1006
f 1006 1054 1007
f 1007 1054 1055
f 1007 1055 1056
f 1007 1056 1008
f 1008 1056 1010
f 1010 1056 1013
f 1012 1013 1057
f 1012 1057 1015
f 1012 1015 1014
f 1013 1058 1059
f 1013 1059 1060
f 1013 1060 1057
f 1013 1056 1055
f 1013 1055 1061
f 1013 1061 1062
f 1013 1062 1063
f 1013 1063 1058
f 1015 1057 1060
f 1015 1060 1016
f 1016 1060 1064
f 1016 1064 1017
f 1017 1064 1065
f 1017 1065 1059
f 1017 1059 1019
f 1017 1019 1018
f 1019 1059 1020
f 1020 1059 1021
f 1021 1059 1066
f 1021 1066 1067
f 1021 1067 1022
f 1022 1067 1068
f 1022 1068 1023
f 1023 1068 1030
f 1023 1027 1024
f 1025 1029 1026
f 1026 1029 1050
f 1030 1068 1067
f 1030 1067 1031
f 1031 1067 1032
f 1032 1067 1033
f 1033 1069 1062
f 1033 1062 1061
f 1033 1061 1070
f 1033 1070 1053
f 1033 1053 1052
f 1033 1052 1035
f 1033 1067 1069
f 1035 1052 1037
f 1035 1037 1036
f 1039 1051 1040
f 1040 1051 1041
f 1041 1071 1043
f 1041 1043 1042
f 1041 1051 1072
f 1041 1072 1071
f 1045 1047 1046
f 1053 1070 1054
f 1054 1070 1055
f 1055 1070 1061
f 1058 1073 1059
f 1058 1063 1073
f 1059 1065 1060
f 1059 1073 1074
f 1059 1074 1066
f 1060 1065 1064
f 1062 1069 1063
f 1063 1069 1075
f 1063 1075 1073
f 1066 1074 1067
f 1067 1074 1073
f 1067 1073 1075
f 1067 1075 1069

