# https://github.com/mikedh/trimesh
v 0.04163547 0.10361606 0.01056665
v 0.04383228 0.10362523 0.00055061
v 0.04040831 0.10361606 0.01056665
v 0.04260512 0.10360689 0.01056665
v 0.04273388 0.10360689 0.01043584
v 0.04273388 0.10361606 0.00933811
v 0.04383228 0.10361606 0.00164834
v 0.04469066 0.10337756 0.00055061
v 0.04383228 0.10362523 -0.00054996
v 0.03724503 0.10360689 -0.01848612
v 0.03724503 0.10360689 -0.01702723
v 0.03944184 0.10359771 0.01056665
v 0.04273388 0.10358854 0.01056665
v 0.04342853 0.10338673 0.01056665
v 0.04352072 0.10336839 0.01043584
v 0.04383228 0.10358854 0.00274322
v 0.04464138 0.10337756 0.00164834
v 0.04469066 0.10337756 -0.00054996
v 0.04505785 0.10258869 0.00055061
v 0.04383228 0.10361606 -0.00164768
v 0.04273547 0.10361606 -0.00933746
v 0.03834026 0.10360689 -0.01848612
v 0.03614663 0.10357019 -0.01848612
v 0.03931309 0.10357019 0.01056665
v 0.04351118 0.10335004 0.01056665
v 0.04440135 0.10315741 0.00564964
v 0.04444904 0.10322162 0.00493867
v 0.04451739 0.10329500 0.00384379
v 0.04458415 0.10335004 0.00274322
v 0.04464138 0.10337756 -0.00164768
v 0.04505785 0.10258869 -0.00054996
v 0.04602909 0.09917634 0.00274322
v 0.04602909 0.09933228 0.00164834
v 0.04602909 0.09946987 0.00055061
v 0.04602909 0.09947905 -0.00054996
v 0.04383228 0.10358854 -0.00274825
v 0.04273547 0.10359771 -0.01043518
v 0.04053707 0.10360689 -0.01592950
v 0.03944025 0.10360689 -0.01812495
v 0.03944025 0.10359771 -0.01848612
v 0.03528507 0.10332252 -0.01848612
v 0.03858029 0.10335921 0.01056665
v 0.04376552 0.10258869 0.01056665
v 0.04378936 0.10258869 0.01043584
v 0.04602909 0.09862596 0.00420212
v 0.04602909 0.09891032 0.00364757
v 0.04458415 0.10335004 -0.00274825
v 0.04444904 0.10322162 -0.00494086
v 0.04451739 0.10329500 -0.00384598
v 0.04602909 0.09935980 -0.00164768
v 0.04602909 0.09920386 -0.00274825
v 0.04352390 0.10335921 -0.01043518
v 0.04273547 0.10353350 -0.01153575
v 0.04163547 0.10358854 -0.01373121
v 0.04053707 0.10352433 -0.01702723
v 0.04043851 0.10334087 -0.01848612
v 0.03516268 0.10306568 -0.01848612
v 0.03825760 0.10258869 0.01056665
v 0.04380049 0.10147875 0.01056665
v 0.04602909 0.09598414 0.00639188
v 0.04602909 0.09718580 0.00586293
v 0.04602909 0.09721332 0.00584871
v 0.04602909 0.09763528 0.00549322
v 0.04602909 0.09800220 0.00502968
v 0.04440135 0.10315741 -0.00564898
v 0.04343488 0.10329500 -0.01153575
v 0.04602909 0.09891949 -0.00366966
v 0.04245729 0.10335004 -0.01373121
v 0.04124443 0.10328583 -0.01702723
v 0.04112044 0.10317575 -0.01765856
v 0.04074212 0.10275380 -0.01848612
v 0.03501325 0.10258869 -0.01848612
v 0.03317728 0.07621637 -0.01848612
v 0.03648680 0.07628059 0.01056665
v 0.04380208 0.10135033 0.01056665
v 0.04602909 0.09488338 0.00635775
v 0.04380526 0.10038717 0.01056665
v 0.04602909 0.09863513 -0.00421284
v 0.04334428 0.10320328 -0.01222965
v 0.04230628 0.10325831 -0.01457583
v 0.04338084 0.10258869 -0.01232066
v 0.04114429 0.10258869 -0.01771828
v 0.04080412 0.10258869 -0.01848612
v 0.03310416 0.07511562 -0.01848612
v 0.03643116 0.07536329 0.01056665
v 0.04602909 0.09383766 0.00590274
v 0.04377823 0.09928641 0.01056665
v 0.04332679 0.08937960 0.01056665
v 0.04218070 0.06452083 0.01056665
v 0.04109660 0.04108387 0.01056665
v 0.03993938 0.01691308 0.01056665
v 0.03990282 0.01616089 0.01056665
v 0.04234761 0.02520545 0.00642601
v 0.04234761 0.02461838 0.00634922
v 0.04234761 0.02421476 0.00619566
v 0.04602909 0.09791047 -0.00519681
v 0.04602909 0.09735091 -0.00576274
v 0.04602909 0.09718580 -0.00587933
v 0.04602909 0.09598414 -0.00639407
v 0.04084862 0.10148793 -0.01848612
v 0.03641845 0.07515231 0.01056665
v 0.02979146 0.00991409 -0.01848612
v 0.04602909 0.09328729 0.00544203
v 0.04234761 0.02363687 0.00590274
v 0.03979473 0.01438133 0.01056665
v 0.03985672 0.01438133 0.01037043
v 0.03997753 0.01020763 0.00827167
v 0.04602909 0.09489256 -0.00635710
v 0.04085340 0.10038717 -0.01848612
v 0.03637871 0.07414328 0.01056665
v 0.03640096 0.00991409 -0.01848612
v 0.02995042 0.00991409 -0.01805386
v 0.03431225 0.01020763 0.00823754
v 0.03430748 0.01021680 0.00827167
v 0.03423436 0.01438133 0.01056665
v 0.03503551 0.03683678 0.01056665
v 0.03621339 0.06963018 0.01056665
v 0.04602909 0.09280112 0.00489033
v 0.04234761 0.02284799 0.00517756
v 0.04234761 0.02252694 0.00483914
v 0.03446485 0.01020763 0.00827167
v 0.04019531 0.00991409 -0.00650782
v 0.04011583 0.01020763 0.00722513
v 0.04073577 0.09749768 -0.01848612
v 0.04082319 0.09928641 -0.01848612
v 0.04602909 0.09384684 -0.00590777
v 0.04234761 0.02461838 -0.00635141
v 0.03674749 0.01690390 -0.01848612
v 0.03673637 0.00991409 -0.01767562
v 0.03436311 0.00991409 -0.00650782
v 0.04602909 0.09225991 0.00421349
v 0.04234761 0.02177475 0.00389498
v 0.04084862 0.01020763 0.00164549
v 0.04100123 0.01020763 0.00046530
v 0.04016510 0.00991409 -0.00674386
v 0.04234761 0.02251776 -0.00484133
v 0.04100123 0.01020763 -0.00046464
v 0.04602909 0.09330563 -0.00543285
v 0.04234761 0.02363687 -0.00590777
v 0.03962782 0.00991409 -0.01043518
v 0.03940528 0.00991409 -0.01113761
v 0.03927652 0.00991409 -0.01153575
v 0.03907465 0.00991409 -0.01202489
v 0.04602909 0.09194803 0.00366179
v 0.04234761 0.02136197 0.00274322
v 0.04108865 0.01083139 0.00001028
v 0.04234761 0.02076573 0.00049942
v 0.03994733 0.00991409 -0.00840467
v 0.04602909 0.09281029 -0.00488399
v 0.04602909 0.09225991 -0.00421284
v 0.04234761 0.02199491 -0.00413037
v 0.03982334 0.00991409 -0.00933746
v 0.04108865 0.01083139 -0.00001247
v 0.04234761 0.02166468 -0.00359857
v 0.04234761 0.02149039 -0.00320327
v 0.04234761 0.02135280 -0.00274825
v 0.04234761 0.02081159 -0.00021154
v 0.03969935 0.00991409 -0.01003989
v 0.04602909 0.09164532 0.00273753
v 0.04602909 0.09116833 -0.00052436
v 0.04602909 0.09115915 0.00053071
v 0.04602909 0.09115915 0.00054208
v 0.04602909 0.09195720 -0.00366397
v 0.04602909 0.09165449 -0.00275110
f 1 2 3
f 1 3 12
f 1 12 24
f 1 24 42
f 1 42 58
f 1 58 74
f 1 74 85
f 1 85 101
f 1 101 110
f 1 110 117
f 1 117 116
f 1 116 115
f 1 115 105
f 1 105 92
f 1 92 91
f 1 91 90
f 1 90 89
f 1 89 88
f 1 88 87
f 1 87 77
f 1 77 75
f 1 75 59
f 1 59 43
f 1 43 25
f 1 25 14
f 1 14 13
f 1 13 4
f 1 4 5
f 1 5 6
f 1 6 2
f 2 6 5
f 2 5 7
f 2 7 8
f 2 8 18
f 2 18 9
f 2 9 3
f 3 9 10
f 3 10 11
f 3 11 12
f 4 13 5
f 5 13 14
f 5 14 15
f 5 15 16
f 5 16 7
f 7 16 17
f 7 17 8
f 8 17 19
f 8 19 31
f 8 31 18
f 9 18 20
f 9 20 21
f 9 21 22
f 9 22 10
f 10 22 40
f 10 40 56
f 10 56 71
f 10 71 83
f 10 83 100
f 10 100 109
f 10 109 125
f 10 125 124
f 10 124 128
f 10 128 111
f 10 111 102
f 10 102 84
f 10 84 73
f 10 73 72
f 10 72 57
f 10 57 41
f 10 41 23
f 10 23 11
f 11 23 12
f 12 23 24
f 14 25 15
f 15 25 26
f 15 26 27
f 15 27 28
f 15 28 29
f 15 29 17
f 15 17 16
f 17 29 19
f 18 30 20
f 18 31 30
f 19 29 28
f 19 28 27
f 19 27 32
f 19 32 33
f 19 33 34
f 19 34 35
f 19 35 31
f 20 30 36
f 20 36 37
f 20 37 21
f 21 37 38
f 21 38 39
f 21 39 22
f 22 39 40
f 23 41 24
f 24 41 42
f 25 43 44
f 25 44 26
f 26 44 45
f 26 45 46
f 26 46 32
f 26 32 27
f 30 31 47
f 30 47 36
f 31 48 49
f 31 49 47
f 31 35 50
f 31 50 51
f 31 51 48
f 32 46 45
f 32 45 64
f 32 64 63
f 32 63 62
f 32 62 61
f 32 61 60
f 32 60 76
f 32 76 86
f 32 86 103
f 32 103 118
f 32 118 131
f 32 131 144
f 32 144 159
f 32 159 162
f 32 162 161
f 32 161 160
f 32 160 164
f 32 164 163
f 32 163 150
f 32 150 149
f 32 149 138
f 32 138 126
f 32 126 108
f 32 108 99
f 32 99 98
f 32 98 97
f 32 97 96
f 32 96 78
f 32 78 67
f 32 67 51
f 32 51 50
f 32 50 35
f 32 35 34
f 32 34 33
f 36 47 52
f 36 52 37
f 37 52 53
f 37 53 54
f 37 54 38
f 38 54 55
f 38 55 40
f 38 40 39
f 40 55 56
f 41 57 42
f 42 57 58
f 43 59 60
f 43 60 61
f 43 61 62
f 43 62 63
f 43 63 64
f 43 64 45
f 43 45 44
f 47 49 52
f 48 51 65
f 48 65 66
f 48 66 52
f 48 52 49
f 51 67 65
f 52 66 53
f 53 66 68
f 53 68 55
f 53 55 54
f 55 68 69
f 55 69 56
f 56 69 70
f 56 70 71
f 57 72 58
f 58 72 73
f 58 73 74
f 59 75 60
f 60 75 77
f 60 77 76
f 65 67 66
f 66 67 78
f 66 78 79
f 66 79 68
f 68 79 80
f 68 80 69
f 69 80 70
f 70 80 79
f 70 79 81
f 70 81 82
f 70 82 83
f 70 83 71
f 73 84 74
f 74 84 85
f 76 77 87
f 76 87 88
f 76 88 89
f 76 89 90
f 76 90 91
f 76 91 92
f 76 92 93
f 76 93 94
f 76 94 95
f 76 95 86
f 78 96 79
f 79 96 97
f 79 97 98
f 79 98 99
f 79 99 81
f 81 99 82
f 82 99 100
f 82 100 83
f 84 101 85
f 84 102 101
f 86 95 104
f 86 104 103
f 92 105 94
f 92 94 93
f 94 105 106
f 94 106 95
f 95 106 107
f 95 107 104
f 99 108 109
f 99 109 100
f 101 102 110
f 102 111 129
f 102 129 143
f 102 143 142
f 102 142 141
f 102 141 140
f 102 140 158
f 102 158 152
f 102 152 148
f 102 148 135
f 102 135 122
f 102 122 130
f 102 130 112
f 102 112 113
f 102 113 114
f 102 114 115
f 102 115 116
f 102 116 117
f 102 117 110
f 103 104 119
f 103 119 120
f 103 120 118
f 104 107 119
f 105 115 121
f 105 121 107
f 105 107 106
f 107 121 130
f 107 130 122
f 107 122 123
f 107 123 120
f 107 120 119
f 108 124 125
f 108 125 109
f 108 126 127
f 108 127 111
f 108 111 128
f 108 128 124
f 111 127 129
f 112 130 113
f 113 121 114
f 113 130 121
f 114 121 115
f 118 120 131
f 120 132 131
f 120 123 133
f 120 133 134
f 120 134 132
f 122 135 136
f 122 136 137
f 122 137 134
f 122 134 133
f 122 133 123
f 126 138 139
f 126 139 127
f 127 139 140
f 127 140 141
f 127 141 142
f 127 142 143
f 127 143 129
f 131 132 144
f 132 145 144
f 132 134 145
f 134 137 153
f 134 153 146
f 134 146 147
f 134 147 145
f 135 148 136
f 136 139 138
f 136 138 149
f 136 149 150
f 136 150 151
f 136 151 137
f 136 148 152
f 136 152 139
f 137 151 154
f 137 154 155
f 137 155 156
f 137 156 157
f 137 157 153
f 139 152 158
f 139 158 140
f 144 145 159
f 145 147 159
f 146 153 147
f 147 157 160
f 147 160 161
f 147 161 162
f 147 162 159
f 147 153 157
f 150 163 154
f 150 154 151
f 154 163 155
f 155 163 164
f 155 164 156
f 156 164 160
f 156 160 157

