# https://github.com/mikedh/trimesh
v 0.01700247 0.00991409 -0.03701310
v 0.01862512 0.00991409 -0.03634270
v 0.01700247 0.00991409 -0.03081758
v 0.01700247 0.06042043 -0.03951470
v 0.01957536 0.01246418 -0.03607500
v 0.01966641 0.01141846 -0.03598501
v 0.01966641 0.00991409 -0.03590853
v 0.01700247 0.08027990 -0.04049780
v 0.02076374 0.09929545 -0.03988139
v 0.02978987 0.00991409 -0.01848730
v 0.01700247 0.00992327 -0.03077934
v 0.02014037 0.02020616 -0.03622347
v 0.02125170 0.07403311 -0.03842812
v 0.02000262 0.00991409 -0.03573755
v 0.01700247 0.09650687 -0.04130092
v 0.02143615 0.09929545 -0.03960019
v 0.02133109 0.09751590 -0.03955744
v 0.01700247 0.09929545 -0.04143814
v 0.02076374 0.10039621 -0.03991064
v 0.02147350 0.10039621 -0.03961594
v 0.03639719 0.00991409 -0.01848730
v 0.03308886 0.07490454 -0.01848730
v 0.01700247 0.07512469 -0.03375337
v 0.02130307 0.05269680 -0.03734830
v 0.02022909 0.02172887 -0.03625947
v 0.02062599 0.00991409 -0.03541810
v 0.02198481 0.09929545 -0.03936397
v 0.02202217 0.10039621 -0.03938197
v 0.01700247 0.10039621 -0.04146739
v 0.01849437 0.10149696 -0.04084649
v 0.01966641 0.10149696 -0.04036057
v 0.02146650 0.10149696 -0.03961369
v 0.03624777 0.00991409 -0.01885399
v 0.03662366 0.01471155 -0.01851654
v 0.04073515 0.09749755 -0.01848730
v 0.03310053 0.07511552 -0.01848730
v 0.01700247 0.07622545 -0.03381861
v 0.02131941 0.03273643 -0.03625947
v 0.02241908 0.08547180 -0.03845737
v 0.02117466 0.00991409 -0.03505366
v 0.02293972 0.09929545 -0.03881506
v 0.02201750 0.10149696 -0.03937747
v 0.02306814 0.10143276 -0.03875432
v 0.02307047 0.10039621 -0.03875657
v 0.01700247 0.10149696 -0.04146289
v 0.01846869 0.10259772 -0.04083299
v 0.02144082 0.10259772 -0.03960244
v 0.03609134 0.00991409 -0.01922743
v 0.03680577 0.03118620 -0.02005080
v 0.03900977 0.08500398 -0.02116437
v 0.03887669 0.07045566 -0.01974485
v 0.04051802 0.09928628 -0.01922743
v 0.04078418 0.09849741 -0.01848730
v 0.03317524 0.07621628 -0.01848730
v 0.03501035 0.10258855 -0.01848730
v 0.01700247 0.10259772 -0.03562732
v 0.02133109 0.01393185 -0.03516839
v 0.02244476 0.08611390 -0.03847312
v 0.02348839 0.09929545 -0.03843262
v 0.02406040 0.09929545 -0.03799619
v 0.02291171 0.07950937 -0.03773748
v 0.02189843 0.00991409 -0.03450025
v 0.02350940 0.10002012 -0.03845062
v 0.02199182 0.10259772 -0.03935048
v 0.02293739 0.10259772 -0.03880156
v 0.02351174 0.10101997 -0.03845287
v 0.02348839 0.10259772 -0.03843037
v 0.02350473 0.10174464 -0.03844612
v 0.02351174 0.10075395 -0.03845287
v 0.01700247 0.10259772 -0.04141790
v 0.02138712 0.10318479 -0.03958219
v 0.03572946 0.00991409 -0.02005530
v 0.03669604 0.03603870 -0.02088542
v 0.03887903 0.08904008 -0.02195399
v 0.03922690 0.09159934 -0.02142533
v 0.03944403 0.09599319 -0.02142533
v 0.04013979 0.09928628 -0.02014078
v 0.03992733 0.10038704 -0.02072794
v 0.04085422 0.10038704 -0.01848730
v 0.04083087 0.09954312 -0.01848730
v 0.04082153 0.09928628 -0.01848730
v 0.03515978 0.10306554 -0.01848730
v 0.01700247 0.10334991 -0.03595127
v 0.02510170 0.01251004 -0.03219661
v 0.02451801 0.00991409 -0.03249357
v 0.02530482 0.09928628 -0.03704234
v 0.02510170 0.09489243 -0.03694561
v 0.02536085 0.08171088 -0.03598726
v 0.02395067 0.10039621 -0.03811542
v 0.02966846 0.10038704 -0.03372637
v 0.03093389 0.10038704 -0.03275453
v 0.03091288 0.09928628 -0.03273653
v 0.02783568 0.09928628 -0.03510090
v 0.02275294 0.10330404 -0.03866884
v 0.02470012 0.10321231 -0.03742253
v 0.02730336 0.10148779 -0.03553733
v 0.03093156 0.10148779 -0.03275228
v 0.02510170 0.10149696 -0.03722682
v 0.02475616 0.10259772 -0.03746528
v 0.01700247 0.10335908 -0.04104671
v 0.01830526 0.10326735 -0.04076775
v 0.02076374 0.10328569 -0.03970367
v 0.03554501 0.00991409 -0.02040849
v 0.03554735 0.01361080 -0.02079318
v 0.03559171 0.01525276 -0.02087867
v 0.03779103 0.06797895 -0.02197424
v 0.03889770 0.08977392 -0.02199224
v 0.03960513 0.09928628 -0.02142533
v 0.03963548 0.10038704 -0.02142533
v 0.03963081 0.10148779 -0.02142533
v 0.04084955 0.10148779 -0.01848730
v 0.03528118 0.10332238 -0.01848730
v 0.03614271 0.10357006 -0.01848730
v 0.01700247 0.10358840 -0.03680388
v 0.02805515 0.00991409 -0.02977825
v 0.02630643 0.00991409 -0.03112129
v 0.02510170 0.00991409 -0.03204589
v 0.02845673 0.07950937 -0.03348341
v 0.03160163 0.10038704 -0.03220562
v 0.03158061 0.09928628 -0.03218762
v 0.03143586 0.09489243 -0.03206164
v 0.03128644 0.09049858 -0.03193566
v 0.03119538 0.08780173 -0.03185692
v 0.02900772 0.02069233 -0.02966802
v 0.02179803 0.10335908 -0.03901978
v 0.02076374 0.10352419 -0.03900178
v 0.02305646 0.10343246 -0.03799844
v 0.02510170 0.10335908 -0.03678813
v 0.02590952 0.10326735 -0.03640570
v 0.03026849 0.10324900 -0.03308522
v 0.02905909 0.10318479 -0.03409981
v 0.02964978 0.10258855 -0.03371062
v 0.03036421 0.10258855 -0.03315946
v 0.03091288 0.10258855 -0.03273428
v 0.03159929 0.10148779 -0.03220336
v 0.01700247 0.10360675 -0.04009961
v 0.01746942 0.10358840 -0.04009961
v 0.01746942 0.10334991 -0.04091398
v 0.01966641 0.10337742 -0.03991289
v 0.03543995 0.00991409 -0.02060646
v 0.03484225 0.00991409 -0.02145457
v 0.03501502 0.01251004 -0.02142533
v 0.03667269 0.06283292 -0.02304957
v 0.03670071 0.04919273 -0.02198549
v 0.03770232 0.07950937 -0.02295958
v 0.03833270 0.09928628 -0.02362323
v 0.03882066 0.09928628 -0.02296858
v 0.03894440 0.09159934 -0.02207323
v 0.03910783 0.09819470 -0.02237018
v 0.03913351 0.09928628 -0.02241967
v 0.03914986 0.10038704 -0.02244667
v 0.03914519 0.10148779 -0.02244217
v 0.03913118 0.10258855 -0.02242192
v 0.03958178 0.10258855 -0.02142533
v 0.04013979 0.10258855 -0.02014528
v 0.04080519 0.10258855 -0.01848730
v 0.03724237 0.10360675 -0.01848730
v 0.03614271 0.10360675 -0.01922743
v 0.01746942 0.10361592 -0.03680388
v 0.01700247 0.10361592 -0.03790171
v 0.02860615 0.00991409 -0.02932607
v 0.02890967 0.01800465 -0.02958253
v 0.03215029 0.10038704 -0.03169495
v 0.03213161 0.09928628 -0.03167020
v 0.03121406 0.07105190 -0.03077484
v 0.03010739 0.03713945 -0.02967027
v 0.02919451 0.00991409 -0.02877716
v 0.01966641 0.10361592 -0.03900178
v 0.02186341 0.10362509 -0.03790171
v 0.02406040 0.10355171 -0.03680388
v 0.02626907 0.10340494 -0.03573080
v 0.03063971 0.10339577 -0.03242383
v 0.03144286 0.10328569 -0.03206614
v 0.03157828 0.10258855 -0.03218312
v 0.03214796 0.10148779 -0.03169045
v 0.01700247 0.10361592 -0.03900178
v 0.03083350 0.00991409 -0.02668274
v 0.03245848 0.03668080 -0.02657701
v 0.03744316 0.09712146 -0.02461982
v 0.03257522 0.09928628 -0.03112129
v 0.03550532 0.10038704 -0.02735314
v 0.03836538 0.10038704 -0.02362323
v 0.03883934 0.10038704 -0.02299558
v 0.03883700 0.10148779 -0.02299108
v 0.03880898 0.10258855 -0.02296858
v 0.03904479 0.10327652 -0.02226220
v 0.04008375 0.10323983 -0.02001255
v 0.04074215 0.10275366 -0.01848730
v 0.03833970 0.10360675 -0.01848730
v 0.03394571 0.10361592 -0.02692120
v 0.02882095 0.00991409 -0.02912810
v 0.03259389 0.10038704 -0.03114378
v 0.03230438 0.08985647 -0.03076809
v 0.03191215 0.07621628 -0.03025517
v 0.03027316 0.01361080 -0.02769058
v 0.02975484 0.01031770 -0.02811576
v 0.02974317 0.00991409 -0.02810002
v 0.02625973 0.10361592 -0.03460598
v 0.02510170 0.10359757 -0.03570381
v 0.02955172 0.10357923 -0.03240808
v 0.03064905 0.10360675 -0.03131026
v 0.03178607 0.10340494 -0.03133950
v 0.03247482 0.10327652 -0.03099081
v 0.03212694 0.10258855 -0.03167020
v 0.03257522 0.10258855 -0.03112129
v 0.03258922 0.10148779 -0.03114153
v 0.03016576 0.00991409 -0.02755110
v 0.03282737 0.04767001 -0.02692120
v 0.03689449 0.10148779 -0.02553542
v 0.03836071 0.10148779 -0.02362323
v 0.03785174 0.10258855 -0.02425313
v 0.03782606 0.10317562 -0.02421938
v 0.03921523 0.10335908 -0.02142533
v 0.04022384 0.10333156 -0.01922743
v 0.03803852 0.10328569 -0.02362323
v 0.03720268 0.10332238 -0.02464232
v 0.03840741 0.10341411 -0.02258839
v 0.04043864 0.10334073 -0.01848730
v 0.03833970 0.10360675 -0.02032750
v 0.03943937 0.10359757 -0.01848730
v 0.03724237 0.10360675 -0.02252540
v 0.03504304 0.10360675 -0.02582113
v 0.03174872 0.10359757 -0.03021243
v 0.03284371 0.10336825 -0.03017419
v 0.03284838 0.10356088 -0.02911461
v 0.03394571 0.10350584 -0.02801678
v 0.03615205 0.10338660 -0.02580538
v 0.03579249 0.10328569 -0.02663325
v 0.03681044 0.10323983 -0.02542744
v 0.03349043 0.10322148 -0.02978950
v 0.03450605 0.10314810 -0.02857919
v 0.03452006 0.10258855 -0.02859719
v 0.03833970 0.10359757 -0.02142533
v 0.03943937 0.10357006 -0.01922743
v 0.03724237 0.10352419 -0.02362323
v 0.03614271 0.10357006 -0.02472106
f 1 2 7
f 1 7 14
f 1 14 26
f 1 26 40
f 1 40 62
f 1 62 85
f 1 85 117
f 1 117 116
f 1 116 115
f 1 115 161
f 1 161 191
f 1 191 167
f 1 167 197
f 1 197 207
f 1 207 177
f 1 177 141
f 1 141 140
f 1 140 103
f 1 103 72
f 1 72 48
f 1 48 33
f 1 33 21
f 1 21 10
f 1 10 3
f 1 3 11
f 1 11 23
f 1 23 37
f 1 37 56
f 1 56 83
f 1 83 114
f 1 114 160
f 1 160 176
f 1 176 136
f 1 136 100
f 1 100 70
f 1 70 45
f 1 45 29
f 1 29 18
f 1 18 15
f 1 15 8
f 1 8 4
f 1 4 2
f 2 5 6
f 2 6 7
f 2 4 8
f 2 8 9
f 2 9 5
f 3 10 11
f 5 12 6
f 5 9 13
f 5 13 12
f 6 12 7
f 7 12 14
f 8 15 9
f 9 16 17
f 9 17 13
f 9 15 18
f 9 18 29
f 9 29 19
f 9 19 20
f 9 20 16
f 10 21 35
f 10 35 53
f 10 53 81
f 10 81 80
f 10 80 79
f 10 79 111
f 10 111 156
f 10 156 188
f 10 188 218
f 10 218 220
f 10 220 189
f 10 189 157
f 10 157 113
f 10 113 112
f 10 112 82
f 10 82 55
f 10 55 54
f 10 54 36
f 10 36 22
f 10 22 23
f 10 23 11
f 12 24 25
f 12 25 26
f 12 26 14
f 12 13 24
f 13 17 27
f 13 27 24
f 16 27 17
f 16 20 28
f 16 28 27
f 19 29 30
f 19 30 31
f 19 31 32
f 19 32 20
f 20 32 28
f 21 33 34
f 21 34 35
f 22 36 23
f 23 36 37
f 24 38 26
f 24 26 25
f 24 27 39
f 24 39 38
f 26 38 40
f 27 41 39
f 27 28 41
f 28 32 42
f 28 42 43
f 28 43 44
f 28 44 41
f 29 45 30
f 30 45 46
f 30 46 47
f 30 47 31
f 31 47 32
f 32 47 42
f 33 48 49
f 33 49 50
f 33 50 51
f 33 51 52
f 33 52 35
f 33 35 34
f 35 52 53
f 36 54 37
f 37 54 55
f 37 55 56
f 38 57 40
f 38 39 57
f 39 41 58
f 39 58 59
f 39 59 60
f 39 60 61
f 39 61 57
f 40 57 62
f 41 59 58
f 41 44 63
f 41 63 59
f 42 47 64
f 42 64 65
f 42 65 43
f 43 66 44
f 43 65 67
f 43 67 68
f 43 68 66
f 44 66 69
f 44 69 63
f 45 70 46
f 46 70 71
f 46 71 47
f 47 71 64
f 48 72 73
f 48 73 49
f 49 73 74
f 49 74 50
f 50 74 75
f 50 75 76
f 50 76 77
f 50 77 52
f 50 52 51
f 52 77 78
f 52 78 79
f 52 79 80
f 52 80 81
f 52 81 53
f 55 82 56
f 56 82 83
f 57 84 85
f 57 85 62
f 57 61 84
f 59 63 60
f 60 86 87
f 60 87 61
f 60 63 86
f 61 87 88
f 61 88 84
f 63 69 89
f 63 89 90
f 63 90 91
f 63 91 92
f 63 92 93
f 63 93 86
f 64 71 65
f 65 71 94
f 65 94 95
f 65 95 67
f 66 96 97
f 66 97 91
f 66 91 90
f 66 90 69
f 66 68 98
f 66 98 96
f 67 99 68
f 67 95 99
f 68 99 98
f 69 90 89
f 70 100 101
f 70 101 71
f 71 101 102
f 71 102 94
f 72 103 104
f 72 104 105
f 72 105 73
f 73 105 106
f 73 106 107
f 73 107 74
f 74 107 108
f 74 108 76
f 74 76 75
f 76 108 77
f 77 108 78
f 78 109 110
f 78 110 111
f 78 111 79
f 78 108 109
f 82 112 83
f 83 112 113
f 83 113 114
f 84 115 116
f 84 116 117
f 84 117 85
f 84 88 93
f 84 93 118
f 84 118 115
f 86 93 87
f 87 93 88
f 91 97 135
f 91 135 119
f 91 119 120
f 91 120 92
f 92 120 121
f 92 121 122
f 92 122 123
f 92 123 124
f 92 124 118
f 92 118 93
f 94 125 126
f 94 126 127
f 94 127 128
f 94 128 129
f 94 129 95
f 94 102 125
f 95 129 130
f 95 130 131
f 95 131 99
f 96 98 132
f 96 132 97
f 97 132 133
f 97 133 134
f 97 134 135
f 98 99 132
f 99 131 132
f 100 136 137
f 100 137 138
f 100 138 101
f 101 138 102
f 102 138 139
f 102 139 126
f 102 126 125
f 103 140 104
f 104 140 141
f 104 141 105
f 105 141 142
f 105 142 143
f 105 143 144
f 105 144 106
f 106 145 146
f 106 146 147
f 106 147 107
f 106 144 145
f 107 147 148
f 107 148 108
f 108 148 149
f 108 149 150
f 108 150 109
f 109 151 110
f 109 150 151
f 110 151 152
f 110 152 153
f 110 153 154
f 110 154 155
f 110 155 111
f 111 155 156
f 113 157 158
f 113 158 159
f 113 159 114
f 114 159 160
f 115 118 124
f 115 124 162
f 115 162 161
f 119 135 163
f 119 163 120
f 120 164 121
f 120 163 164
f 121 164 122
f 122 164 123
f 123 164 165
f 123 165 166
f 123 166 124
f 124 166 167
f 124 167 162
f 126 139 138
f 126 138 137
f 126 137 168
f 126 168 169
f 126 169 127
f 127 169 170
f 127 170 128
f 128 171 172
f 128 172 129
f 128 170 171
f 129 172 130
f 130 172 173
f 130 173 174
f 130 174 134
f 130 134 131
f 131 134 133
f 131 133 132
f 134 174 135
f 135 174 204
f 135 204 175
f 135 175 163
f 136 176 168
f 136 168 137
f 141 177 142
f 142 177 143
f 143 177 178
f 143 178 179
f 143 179 146
f 143 146 145
f 143 145 144
f 146 179 180
f 146 180 181
f 146 181 182
f 146 182 183
f 146 183 147
f 147 150 149
f 147 149 148
f 147 183 150
f 150 183 151
f 151 183 184
f 151 184 152
f 152 184 153
f 153 184 185
f 153 185 186
f 153 186 187
f 153 187 154
f 154 187 155
f 155 187 156
f 156 187 188
f 157 189 190
f 157 190 169
f 157 169 158
f 158 169 159
f 159 169 160
f 160 169 176
f 161 162 191
f 162 167 191
f 163 175 192
f 163 192 180
f 163 180 164
f 164 180 165
f 165 180 193
f 165 193 194
f 165 194 166
f 166 195 196
f 166 196 167
f 166 194 195
f 167 196 197
f 168 176 169
f 169 190 198
f 169 198 199
f 169 199 170
f 170 199 200
f 170 200 172
f 170 172 171
f 172 200 201
f 172 201 202
f 172 202 173
f 173 202 203
f 173 203 204
f 173 204 174
f 175 204 205
f 175 205 206
f 175 206 192
f 177 207 195
f 177 195 178
f 178 195 194
f 178 194 193
f 178 193 208
f 178 208 179
f 179 193 180
f 179 208 193
f 180 192 181
f 181 192 206
f 181 206 209
f 181 209 182
f 182 209 210
f 182 210 183
f 183 210 184
f 184 210 211
f 184 211 185
f 185 211 212
f 185 212 186
f 186 213 214
f 186 214 187
f 186 212 215
f 186 215 216
f 186 216 217
f 186 217 213
f 187 214 218
f 187 218 188
f 189 219 190
f 189 220 219
f 190 219 221
f 190 221 233
f 190 233 222
f 190 222 223
f 190 223 201
f 190 201 198
f 195 207 196
f 196 207 197
f 198 201 199
f 199 201 200
f 201 223 202
f 202 224 203
f 202 223 225
f 202 225 226
f 202 226 224
f 203 224 227
f 203 227 228
f 203 228 229
f 203 229 230
f 203 230 204
f 204 230 231
f 204 231 205
f 205 232 206
f 205 231 232
f 206 232 209
f 209 232 211
f 209 211 210
f 211 232 231
f 211 231 212
f 212 231 230
f 212 230 229
f 212 229 215
f 213 217 233
f 213 233 234
f 213 234 214
f 214 234 218
f 215 229 216
f 216 227 217
f 216 229 228
f 216 228 227
f 217 235 233
f 217 227 235
f 218 234 220
f 219 220 233
f 219 233 221
f 220 234 233
f 222 233 236
f 222 236 225
f 222 225 223
f 224 226 227
f 225 236 235
f 225 235 226
f 226 235 227
f 233 235 236

