# https://github.com/mikedh/trimesh
v 0.02430109 0.10039243 0.03784644
v 0.02430109 0.09930036 0.03781173
v 0.02475363 0.09930036 0.03746459
v 0.02530356 0.09930036 0.03704268
v 0.03091363 0.09930036 0.03273815
v 0.02967056 0.10040117 0.03372617
v 0.02603872 0.10149325 0.03650862
v 0.02430109 0.10145830 0.03784110
v 0.02454741 0.09380503 0.03730704
v 0.02652754 0.09819954 0.03604131
v 0.02430109 0.08201934 0.03681570
v 0.02960755 0.09819954 0.03367810
v 0.03147311 0.09600665 0.03209461
v 0.03158386 0.09930036 0.03218807
v 0.03093655 0.10040117 0.03275418
v 0.03070741 0.09380503 0.03258061
v 0.03119815 0.08781171 0.03185695
v 0.03122297 0.08854559 0.03187832
v 0.02966674 0.10149325 0.03372350
v 0.02965146 0.10259406 0.03371014
v 0.02475554 0.10259406 0.03746726
v 0.02430109 0.10193882 0.03783042
v 0.02505724 0.08830970 0.03659941
v 0.02436983 0.05096941 0.03497320
v 0.02448058 0.01580454 0.03286099
v 0.02430109 0.03417764 0.03405728
v 0.02831673 0.07402533 0.03327488
v 0.03213188 0.09930036 0.03167271
v 0.03215289 0.10040117 0.03169407
v 0.03160296 0.10040117 0.03220677
v 0.03093273 0.10149325 0.03275151
v 0.02941660 0.06963082 0.03217739
v 0.03010783 0.07341377 0.03186497
v 0.03119242 0.07032975 0.03075145
v 0.02900797 0.02068831 0.02966731
v 0.03036561 0.10259406 0.03316006
v 0.02906143 0.10318815 0.03410268
v 0.02470017 0.10321436 0.03742186
v 0.02430109 0.10282995 0.03777701
v 0.02430109 0.10259406 0.03780905
v 0.02745746 0.06305215 0.03330159
v 0.02518136 0.03887794 0.03365407
v 0.02536085 0.02459358 0.03269276
v 0.02430109 0.01445037 0.03291974
v 0.02525965 0.01472994 0.03220142
v 0.03254624 0.09819954 0.03108257
v 0.03257679 0.09930036 0.03112262
v 0.03259398 0.10040117 0.03114666
v 0.03214907 0.10149325 0.03169140
v 0.03159914 0.10149325 0.03220410
v 0.03091554 0.10259406 0.03273281
v 0.02697054 0.01471246 0.03088764
v 0.02756058 0.01580454 0.03049777
v 0.02905952 0.04107957 0.03080486
v 0.02971830 0.06304341 0.03156589
v 0.03154949 0.07071416 0.03031619
v 0.03010783 0.03713935 0.02966998
v 0.02994743 0.01690535 0.02836153
v 0.02835874 0.01800617 0.03001178
v 0.02827663 0.01580454 0.02994769
v 0.02822317 0.01437174 0.02990497
v 0.02890867 0.01800617 0.02958186
v 0.02932494 0.01437174 0.02891696
v 0.03027014 0.10325804 0.03308529
v 0.03158004 0.10259406 0.03218540
v 0.02590696 0.10327552 0.03640715
v 0.02430109 0.10332794 0.03745924
v 0.02430109 0.10327552 0.03757140
v 0.02430109 0.01437174 0.03291440
v 0.02442711 0.01437174 0.03281826
v 0.02569119 0.01437174 0.03184894
v 0.02675286 0.01437174 0.03103450
v 0.03778587 0.08237754 0.02306633
v 0.03813149 0.09712494 0.02372322
v 0.03312673 0.09930036 0.03040698
v 0.03350099 0.01437174 0.02354164
v 0.03356591 0.10040117 0.02988093
v 0.03314200 0.10149325 0.03042567
v 0.03259207 0.10149325 0.03114132
v 0.03257679 0.10259406 0.03112262
v 0.03212998 0.10259406 0.03167271
v 0.02800549 0.01437174 0.03007320
v 0.03008492 0.03640548 0.02964328
v 0.02987296 0.01437174 0.02826540
v 0.03016703 0.01437174 0.02788355
v 0.02860507 0.01437174 0.02960055
v 0.02878456 0.01471246 0.02947772
v 0.02877119 0.01437174 0.02946704
v 0.02970684 0.01437174 0.02846567
v 0.03144447 0.10330173 0.03206524
v 0.03064249 0.10339783 0.03242306
v 0.02510307 0.10336288 0.03678633
v 0.02430109 0.10351140 0.03679968
v 0.02430109 0.01437174 0.02631608
v 0.03779160 0.06798834 0.02197417
v 0.03814677 0.09490584 0.02353630
v 0.03534746 0.02129987 0.02165374
v 0.03559378 0.01525414 0.02087668
v 0.03833199 0.09930036 0.02362175
v 0.03548876 0.09930036 0.02732813
v 0.03447101 0.01437174 0.02227592
v 0.03528445 0.01910698 0.02157096
v 0.03836636 0.10040117 0.02362175
v 0.03836254 0.10149325 0.02362175
v 0.03452065 0.10259406 0.02859652
v 0.03355063 0.10259406 0.02985957
v 0.03450729 0.10315321 0.02857783
v 0.03349335 0.10323184 0.02978747
v 0.03247559 0.10328425 0.03099445
v 0.03178627 0.10341530 0.03133892
v 0.02955408 0.10359003 0.03240971
v 0.02845422 0.10353762 0.03350720
v 0.02626785 0.10341530 0.03573156
v 0.02430109 0.10356382 0.03656203
v 0.03423041 0.01437174 0.01056665
v 0.02430109 0.01445037 0.02631875
v 0.03889910 0.08977745 0.02199020
v 0.03891820 0.09051133 0.02202491
v 0.03882272 0.09930036 0.02296753
v 0.03669747 0.03603854 0.02088469
v 0.03499229 0.01437174 0.02159499
v 0.03517561 0.01437174 0.02135467
v 0.03549258 0.01437174 0.02093543
v 0.03556896 0.01437174 0.02083129
v 0.03570644 0.01437174 0.02055357
v 0.03667837 0.03530466 0.02084464
v 0.03883991 0.10040117 0.02299423
v 0.03883609 0.10149325 0.02299156
v 0.03785461 0.10259406 0.02424927
v 0.03782788 0.10317942 0.02421723
v 0.03681203 0.10324931 0.02542420
v 0.03579237 0.10329299 0.02663118
v 0.03615326 0.10339783 0.02580071
v 0.03284603 0.10338036 0.03017734
v 0.03284985 0.10357256 0.02911456
v 0.03174999 0.10360751 0.03021205
v 0.03065203 0.10361625 0.03130954
v 0.02515844 0.10359877 0.03570486
v 0.02430109 0.10361625 0.03570486
v 0.03424187 0.01471246 0.01056665
v 0.03979465 0.01437174 0.01056665
v 0.02430109 0.01498330 0.02634012
v 0.02430109 0.02128240 0.02659913
v 0.02430109 0.07396418 0.02881014
v 0.02430109 0.07512615 0.02886355
v 0.03888001 0.08904358 0.02195281
v 0.03960752 0.09930036 0.02142676
v 0.03905377 0.09600665 0.02227058
v 0.03910724 0.09819954 0.02236938
v 0.03913397 0.09930036 0.02241744
v 0.03886282 0.08830970 0.02191009
v 0.03580574 0.01437174 0.02035063
v 0.03631366 0.01437174 0.01922911
v 0.03687314 0.03563666 0.02041739
v 0.03914925 0.10040117 0.02244415
v 0.03914734 0.10149325 0.02244148
v 0.03913206 0.10259406 0.02242011
v 0.03880936 0.10259406 0.02297020
v 0.03904422 0.10329299 0.02226257
v 0.03803983 0.10329299 0.02362175
v 0.03720348 0.10332794 0.02463646
v 0.03840837 0.10342404 0.02258567
v 0.03724167 0.10352888 0.02362175
v 0.03614372 0.10358130 0.02471924
v 0.03504576 0.10361625 0.02581674
v 0.03943949 0.10362498 0.01812894
v 0.02625831 0.10361625 0.03460737
v 0.02430109 0.10361625 0.03326687
v 0.03499229 0.03572402 0.01056665
v 0.03987867 0.01576086 0.01056665
v 0.03992068 0.01690535 0.01065744
v 0.03949868 0.01437174 0.01153864
v 0.02430109 0.07577266 0.02890627
v 0.03641295 0.07516109 0.01056665
v 0.03637476 0.07415638 0.01056665
v 0.03633466 0.07306431 0.01056665
v 0.03621437 0.06976187 0.01056665
v 0.03613035 0.06743793 0.01056665
v 0.03601769 0.06430148 0.01056665
v 0.03502667 0.03668505 0.01056665
v 0.03949868 0.09709873 0.02142676
v 0.04137380 0.09819954 0.01703145
v 0.04315344 0.09930036 0.01286578
v 0.04145781 0.10040117 0.01703145
v 0.03963616 0.10040117 0.02142676
v 0.03779351 0.05808101 0.02087935
v 0.03670510 0.02710972 0.01980589
v 0.03778014 0.01437174 0.01568829
v 0.04087542 0.06084178 0.01377101
v 0.03987103 0.06084178 0.01619565
v 0.03963235 0.10149325 0.02142676
v 0.03958270 0.10259406 0.02142676
v 0.04008489 0.10324931 0.02001150
v 0.04124586 0.10329299 0.01703145
v 0.04022429 0.10333667 0.01922911
v 0.03921608 0.10337162 0.02142676
v 0.03834153 0.10360751 0.02142676
v 0.03724167 0.10361625 0.02252426
v 0.04053744 0.10361625 0.01593129
v 0.04163731 0.10361625 0.01263613
v 0.04163731 0.10361625 0.01056665
v 0.04040951 0.10361625 0.01056665
v 0.03943949 0.10361625 0.01153864
v 0.03943949 0.10360751 0.01056665
v 0.02430109 0.10356382 0.03240971
v 0.03990158 0.01614527 0.01056665
v 0.03997414 0.01910698 0.01091913
v 0.04107974 0.04176976 0.01093782
v 0.03998751 0.01966613 0.01098589
v 0.04000661 0.02040000 0.01103128
v 0.04329856 0.09600665 0.01212077
v 0.04270471 0.08830970 0.01263613
v 0.04200583 0.07512615 0.01274829
v 0.02430109 0.07622696 0.02893832
v 0.03642632 0.07537951 0.01056665
v 0.02430109 0.10259406 0.03102916
v 0.04092698 0.09051133 0.01719167
v 0.04338067 0.09930036 0.01231570
v 0.04339403 0.10040117 0.01235308
v 0.04282310 0.10040117 0.01373363
v 0.04339212 0.10149325 0.01234774
v 0.04054317 0.10149325 0.01922911
v 0.04114657 0.10259406 0.01772039
v 0.04014027 0.10259406 0.02014502
v 0.04112174 0.10318815 0.01766164
v 0.04334439 0.10321436 0.01223292
v 0.04230563 0.10326678 0.01458011
v 0.04245648 0.10335415 0.01373363
v 0.04053744 0.10352888 0.01703145
v 0.03943949 0.10358130 0.01922911
v 0.04163731 0.10359003 0.01373363
v 0.04273526 0.10359877 0.01056665
v 0.04260541 0.10360751 0.01056665
v 0.03931155 0.10358130 0.01056665
v 0.02430109 0.10352015 0.03211865
v 0.03999133 0.01800617 0.01056665
v 0.04109692 0.04250363 0.01101526
v 0.04114657 0.04211049 0.01056665
v 0.04217387 0.06523630 0.01088709
v 0.04218533 0.06579545 0.01098589
v 0.04328519 0.09545625 0.01208605
v 0.04360217 0.09930036 0.01153864
v 0.03648360 0.07628812 0.01056665
v 0.02430109 0.10301342 0.03121875
v 0.03825752 0.10259406 0.01056665
v 0.04363272 0.10040117 0.01153864
v 0.04362699 0.10149325 0.01153864
v 0.04338258 0.10259406 0.01232104
v 0.04343413 0.10330173 0.01153864
v 0.04360217 0.10259406 0.01153864
v 0.04376829 0.10259406 0.01056665
v 0.04273526 0.10353762 0.01153864
v 0.04343031 0.10338910 0.01056665
v 0.03857831 0.10337162 0.01056665
v 0.02430109 0.10334541 0.03146175
v 0.04221588 0.06523630 0.01056665
v 0.04331765 0.08913094 0.01056665
v 0.04327374 0.08912220 0.01089777
v 0.04328901 0.08984734 0.01100992
v 0.04377975 0.09930036 0.01056665
v 0.04380457 0.10027012 0.01056665
v 0.04380648 0.10040117 0.01056665
v 0.04380457 0.10137093 0.01056665
v 0.04380266 0.10149325 0.01056665
v 0.04351242 0.10336288 0.01056665
v 0.04377402 0.09916931 0.01056665
f 1 2 3
f 1 3 4
f 1 4 5
f 1 5 6
f 1 6 7
f 1 7 8
f 1 8 22
f 1 22 40
f 1 40 39
f 1 39 68
f 1 68 67
f 1 67 93
f 1 93 114
f 1 114 139
f 1 139 168
f 1 168 205
f 1 205 235
f 1 235 255
f 1 255 244
f 1 244 216
f 1 216 214
f 1 214 173
f 1 173 145
f 1 145 144
f 1 144 143
f 1 143 142
f 1 142 116
f 1 116 94
f 1 94 69
f 1 69 44
f 1 44 26
f 1 26 11
f 1 11 2
f 2 9 10
f 2 10 3
f 2 11 9
f 3 10 4
f 4 10 12
f 4 12 5
f 5 13 14
f 5 14 15
f 5 15 6
f 5 12 16
f 5 16 17
f 5 17 18
f 5 18 13
f 6 15 31
f 6 31 19
f 6 19 7
f 7 19 20
f 7 20 21
f 7 21 22
f 7 22 8
f 9 23 10
f 9 11 24
f 9 24 25
f 9 25 23
f 10 23 12
f 11 26 24
f 12 23 27
f 12 27 32
f 12 32 16
f 13 28 14
f 13 18 28
f 14 28 29
f 14 29 30
f 14 30 15
f 15 30 50
f 15 50 31
f 16 32 33
f 16 33 17
f 17 34 28
f 17 28 18
f 17 33 35
f 17 35 34
f 19 31 20
f 20 31 36
f 20 36 37
f 20 37 21
f 21 37 38
f 21 38 39
f 21 39 40
f 21 40 22
f 23 41 27
f 23 25 42
f 23 42 43
f 23 43 41
f 24 26 44
f 24 44 25
f 25 44 45
f 25 45 43
f 25 43 42
f 27 41 32
f 28 46 47
f 28 47 29
f 28 34 46
f 29 47 48
f 29 48 49
f 29 49 50
f 29 50 30
f 31 50 51
f 31 51 36
f 32 41 52
f 32 52 53
f 32 53 54
f 32 54 55
f 32 55 33
f 33 55 54
f 33 54 35
f 34 56 46
f 34 35 57
f 34 57 58
f 34 58 56
f 35 54 59
f 35 59 60
f 35 60 61
f 35 61 62
f 35 62 63
f 35 63 57
f 36 51 37
f 37 64 38
f 37 51 65
f 37 65 64
f 38 64 66
f 38 66 67
f 38 67 68
f 38 68 39
f 41 43 52
f 43 45 52
f 44 69 70
f 44 70 71
f 44 71 45
f 45 71 72
f 45 72 52
f 46 73 74
f 46 74 75
f 46 75 47
f 46 56 58
f 46 58 76
f 46 76 73
f 47 75 48
f 48 75 77
f 48 77 78
f 48 78 79
f 48 79 49
f 49 79 80
f 49 80 81
f 49 81 65
f 49 65 50
f 50 65 51
f 52 72 82
f 52 82 53
f 53 82 60
f 53 60 59
f 53 59 54
f 57 63 83
f 57 83 84
f 57 84 58
f 58 84 85
f 58 85 76
f 60 82 61
f 61 82 72
f 61 72 71
f 61 71 70
f 61 70 69
f 61 69 94
f 61 94 115
f 61 115 141
f 61 141 172
f 61 172 188
f 61 188 153
f 61 153 152
f 61 152 125
f 61 125 124
f 61 124 123
f 61 123 122
f 61 122 121
f 61 121 101
f 61 101 76
f 61 76 85
f 61 85 84
f 61 84 89
f 61 89 63
f 61 63 88
f 61 88 86
f 61 86 62
f 62 86 87
f 62 87 63
f 63 87 88
f 63 89 83
f 64 90 66
f 64 65 90
f 65 81 90
f 66 90 91
f 66 91 92
f 66 92 67
f 67 92 93
f 73 95 96
f 73 96 74
f 73 76 97
f 73 97 98
f 73 98 95
f 74 96 99
f 74 99 100
f 74 100 75
f 75 100 77
f 76 101 102
f 76 102 97
f 77 100 99
f 77 99 103
f 77 103 104
f 77 104 78
f 78 105 106
f 78 106 79
f 78 104 105
f 79 106 80
f 80 106 107
f 80 107 81
f 81 107 108
f 81 108 109
f 81 109 90
f 83 89 84
f 86 88 87
f 90 109 110
f 90 110 91
f 91 110 111
f 91 111 112
f 91 112 113
f 91 113 92
f 92 113 93
f 93 113 112
f 93 112 114
f 94 116 115
f 95 117 118
f 95 118 119
f 95 119 99
f 95 99 96
f 95 98 120
f 95 120 117
f 97 102 98
f 98 102 101
f 98 101 121
f 98 121 122
f 98 122 123
f 98 123 124
f 98 124 125
f 98 125 126
f 98 126 120
f 99 119 127
f 99 127 103
f 103 127 104
f 104 127 128
f 104 128 129
f 104 129 105
f 105 129 107
f 105 107 106
f 107 130 108
f 107 129 130
f 108 130 131
f 108 131 109
f 109 131 132
f 109 132 133
f 109 133 134
f 109 134 110
f 110 134 135
f 110 135 136
f 110 136 137
f 110 137 111
f 111 137 138
f 111 138 114
f 111 114 112
f 114 138 139
f 115 140 169
f 115 169 180
f 115 180 179
f 115 179 178
f 115 178 177
f 115 177 176
f 115 176 175
f 115 175 174
f 115 174 215
f 115 215 243
f 115 243 245
f 115 245 254
f 115 254 234
f 115 234 204
f 115 204 202
f 115 202 201
f 115 201 233
f 115 233 232
f 115 232 253
f 115 253 265
f 115 265 251
f 115 251 264
f 115 264 263
f 115 263 262
f 115 262 261
f 115 261 260
f 115 260 266
f 115 266 257
f 115 257 256
f 115 256 238
f 115 238 236
f 115 236 206
f 115 206 170
f 115 170 141
f 115 116 142
f 115 142 143
f 115 143 144
f 115 144 145
f 115 145 140
f 117 146 147
f 117 147 118
f 117 120 146
f 118 147 148
f 118 148 119
f 119 148 149
f 119 149 150
f 119 150 127
f 120 126 151
f 120 151 146
f 125 152 126
f 126 152 153
f 126 153 154
f 126 154 151
f 127 150 155
f 127 155 156
f 127 156 128
f 128 156 157
f 128 157 158
f 128 158 129
f 129 158 130
f 130 159 131
f 130 158 159
f 131 159 160
f 131 160 161
f 131 161 133
f 131 133 132
f 133 161 159
f 133 159 162
f 133 162 163
f 133 163 135
f 133 135 134
f 135 164 165
f 135 165 136
f 135 163 164
f 136 165 137
f 137 166 167
f 137 167 138
f 137 165 166
f 138 167 139
f 139 167 166
f 139 166 168
f 140 145 169
f 141 170 171
f 141 171 172
f 145 173 174
f 145 174 175
f 145 175 176
f 145 176 177
f 145 177 178
f 145 178 179
f 145 179 180
f 145 180 169
f 146 151 147
f 147 150 149
f 147 149 148
f 147 151 181
f 147 181 182
f 147 182 183
f 147 183 184
f 147 184 185
f 147 185 150
f 150 185 155
f 151 154 186
f 151 186 181
f 153 186 187
f 153 187 154
f 153 188 189
f 153 189 190
f 153 190 181
f 153 181 186
f 154 187 186
f 155 185 156
f 156 191 157
f 156 185 191
f 157 192 193
f 157 193 159
f 157 159 158
f 157 191 192
f 159 193 194
f 159 194 195
f 159 195 196
f 159 196 162
f 159 161 160
f 162 196 197
f 162 197 163
f 163 197 164
f 164 197 165
f 165 198 166
f 165 197 198
f 166 198 197
f 166 197 199
f 166 199 200
f 166 200 201
f 166 201 202
f 166 202 203
f 166 203 168
f 168 203 204
f 168 204 205
f 170 206 171
f 171 207 172
f 171 206 208
f 171 208 207
f 172 189 188
f 172 207 209
f 172 209 210
f 172 210 211
f 172 211 212
f 172 212 213
f 172 213 189
f 173 214 174
f 174 214 216
f 174 216 215
f 181 217 182
f 181 190 189
f 181 189 217
f 182 212 183
f 182 217 189
f 182 189 212
f 183 218 219
f 183 219 220
f 183 220 184
f 183 212 211
f 183 211 218
f 184 220 221
f 184 221 222
f 184 222 191
f 184 191 185
f 189 213 212
f 191 222 223
f 191 223 224
f 191 224 192
f 192 224 225
f 192 225 193
f 193 225 226
f 193 226 227
f 193 227 194
f 194 227 228
f 194 228 195
f 195 228 196
f 196 228 229
f 196 229 230
f 196 230 197
f 197 230 231
f 197 231 199
f 199 231 232
f 199 232 233
f 199 233 200
f 200 233 201
f 202 204 203
f 204 234 205
f 205 234 235
f 206 236 208
f 207 208 209
f 208 237 209
f 208 236 238
f 208 238 239
f 208 239 240
f 208 240 237
f 209 237 210
f 210 237 241
f 210 241 211
f 211 241 242
f 211 242 218
f 215 216 243
f 216 244 245
f 216 245 243
f 218 242 246
f 218 246 219
f 219 246 221
f 219 221 220
f 221 247 248
f 221 248 222
f 221 246 247
f 222 248 223
f 223 248 225
f 223 225 224
f 225 248 226
f 226 249 228
f 226 228 227
f 226 248 250
f 226 250 251
f 226 251 249
f 228 252 229
f 228 249 252
f 229 252 230
f 230 252 231
f 231 252 232
f 232 252 253
f 234 254 235
f 235 254 255
f 237 240 242
f 237 242 241
f 238 256 239
f 239 256 257
f 239 257 258
f 239 258 240
f 240 258 259
f 240 259 242
f 242 259 260
f 242 260 246
f 244 255 254
f 244 254 245
f 246 261 262
f 246 262 263
f 246 263 247
f 246 260 261
f 247 264 250
f 247 250 248
f 247 263 264
f 249 265 252
f 249 251 265
f 250 264 251
f 252 265 253
f 257 266 258
f 258 266 259
f 259 266 260

