# https://github.com/mikedh/trimesh
v -0.01157633 0.10040088 0.04361035
v -0.01219861 0.10040088 0.04344511
v -0.01157633 0.09992322 0.04359976
v -0.01157633 0.10101631 0.04360823
v -0.01321095 0.10040088 0.04303835
v -0.01317453 0.09929861 0.04302352
v -0.01219861 0.09929861 0.04341545
v -0.01219861 0.10149396 0.04344087
v -0.01157633 0.09929861 0.04358281
v -0.01157633 0.10149396 0.04360612
v -0.01376038 0.10040088 0.04281167
v -0.01320488 0.10149396 0.04303623
v -0.01372395 0.09929861 0.04279684
v -0.01310926 0.09819633 0.04299810
v -0.01219861 0.09819633 0.04336249
v -0.01170686 0.08391273 0.04287099
v -0.01166588 0.08323300 0.04285404
v -0.01219861 0.10259623 0.04339427
v -0.01317908 0.10259623 0.04302564
v -0.01157633 0.08250734 0.04283921
v -0.01157633 0.10259623 0.04354468
v -0.01439480 0.10040088 0.04254898
v -0.02156468 0.09960173 0.03956397
v -0.01375431 0.10149396 0.04280955
v -0.01439480 0.10149396 0.04254474
v -0.01439480 0.09929861 0.04251932
v -0.01614933 0.09929861 0.04179266
v -0.01769137 0.09819633 0.04109990
v -0.01785225 0.08721036 0.04048977
v -0.01219861 0.07841975 0.04239644
v -0.01219861 0.08171738 0.04255957
v -0.01225629 0.08391273 0.04264431
v -0.01191631 0.06523842 0.04186046
v -0.01164767 0.01636187 0.03955126
v -0.01157633 0.01470846 0.03949830
v -0.01302427 0.10325760 0.04295997
v -0.01610683 0.10317493 0.04177359
v -0.02153584 0.10314737 0.03955126
v -0.01615388 0.10259623 0.04179478
v -0.01157633 0.10336783 0.04316758
v -0.01219861 0.10334945 0.04309979
v -0.01860961 0.10040088 0.04080331
v -0.01860505 0.10149396 0.04080119
v -0.02141594 0.09710325 0.03950254
v -0.01988756 0.09929861 0.04024402
v -0.01988756 0.10040088 0.04027368
v -0.02098641 0.10040088 0.03981820
v -0.02158289 0.10040088 0.03957033
v -0.02213232 0.10040088 0.03932035
v -0.02199268 0.09926186 0.03935001
v -0.02153584 0.05480358 0.03735436
v -0.02152977 0.07682145 0.03844963
v -0.02136282 0.07402903 0.03838184
v -0.01879022 0.06194079 0.03885003
v -0.01219861 0.01141083 0.03907883
v -0.01219861 0.00978498 0.03899833
v -0.01157633 0.00978498 0.03925255
v -0.01549366 0.10328515 0.04189435
v -0.01845480 0.10323923 0.04073764
v -0.02304752 0.10259623 0.03875258
v -0.02210196 0.10259623 0.03930128
v -0.02155253 0.10259623 0.03955762
v -0.02098641 0.10324841 0.03966143
v -0.02290030 0.10329434 0.03864242
v -0.01157633 0.10360665 0.04229687
v -0.01219861 0.10358828 0.04229687
v -0.01988756 0.10336783 0.03986481
v -0.01769137 0.10333108 0.04087534
v -0.01549366 0.10352398 0.04119948
v -0.02098641 0.10149396 0.03981396
v -0.02098641 0.06304306 0.03799415
v -0.02157682 0.10149396 0.03956821
v -0.02307181 0.10040088 0.03877165
v -0.02304904 0.09929861 0.03875470
v -0.02208375 0.09819633 0.03925255
v -0.02212625 0.10149396 0.03931823
v -0.02306877 0.10149396 0.03876953
v -0.02155102 0.03592719 0.03626756
v -0.02073447 0.00978498 0.03535871
v -0.02045823 0.02381139 0.03626756
v -0.02042029 0.02307654 0.03624849
v -0.02038083 0.02239680 0.03623154
v -0.02264987 0.08865250 0.03846446
v -0.01903155 0.03118742 0.03722725
v -0.01852917 0.00978498 0.03637560
v -0.01157633 0.00978498 0.03293300
v -0.02484758 0.10315655 0.03736707
v -0.02486731 0.10259623 0.03738190
v -0.02361820 0.10149396 0.03836489
v -0.02197447 0.10333108 0.03900680
v -0.02098641 0.10348724 0.03900257
v -0.02208375 0.10361583 0.03790306
v -0.02323269 0.10342294 0.03795602
v -0.02644578 0.10337701 0.03570191
v -0.02708020 0.10331271 0.03541803
v -0.02605571 0.10323923 0.03635229
v -0.01157633 0.10361583 0.04119948
v -0.01439480 0.10361583 0.04119948
v -0.01988756 0.10360665 0.03900257
v -0.01769137 0.10356991 0.04009996
v -0.01983140 0.02239680 0.03646034
v -0.02362123 0.10040088 0.03836701
v -0.02359847 0.09929861 0.03835006
v -0.02300806 0.09819633 0.03872504
v -0.02296708 0.09710325 0.03869538
v -0.02153280 0.01638942 0.03515533
v -0.02134612 0.01141083 0.03501127
v -0.02128389 0.00978498 0.03496467
v -0.02099856 0.00978498 0.03517016
v -0.02028217 0.00978498 0.03559598
v -0.01988756 0.00978498 0.03580148
v -0.01948080 0.00978498 0.03597520
v -0.01907859 0.00978498 0.03614680
v -0.01929563 0.01342248 0.03623790
v -0.02355749 0.09819633 0.03831828
v -0.02344821 0.07622439 0.03713615
v -0.01862630 0.01141083 0.03641585
v -0.01179641 0.00978498 0.03266183
v -0.01157633 0.07513131 0.03600274
v -0.02708020 0.10259623 0.03567861
v -0.02613160 0.10259623 0.03640950
v -0.02708020 0.10199917 0.03569555
v -0.02708020 0.10149396 0.03570827
v -0.02428146 0.10040088 0.03786068
v -0.01659251 0.10362502 0.04009996
v -0.02708020 0.10361583 0.03350924
v -0.02647917 0.10360665 0.03460663
v -0.02538031 0.10356991 0.03570615
v -0.02428146 0.10351479 0.03680354
v -0.02708020 0.10350561 0.03462782
v -0.01157633 0.10361583 0.04009996
v -0.02708020 0.09929861 0.03567861
v -0.02534389 0.00978498 0.03185255
v -0.02162690 0.00978498 0.03470197
v -0.02708020 0.09631329 0.03550700
v -0.02708020 0.04876865 0.03276776
v -0.02559432 0.02788979 0.03270420
v -0.02708020 0.00978498 0.02196965
v -0.01157633 0.07546199 0.03602181
v -0.02708020 0.10040088 0.03571250
v -0.01219861 0.10361583 0.03900257
v -0.02647917 0.10361583 0.03131233
v -0.02708020 0.10361583 0.03131233
v -0.01157633 0.10357909 0.03900257
v -0.02708020 0.01690382 0.03093100
v -0.02708020 0.01469927 0.03080389
v -0.02708020 0.00978498 0.03052000
v -0.02708020 0.07513131 0.02656896
v -0.01157633 0.10259623 0.03787128
v -0.01157633 0.07622439 0.03606629
v -0.02708020 0.10353316 0.03018316
v -0.01157633 0.10334027 0.03817211
v -0.02708020 0.10334945 0.02928914
v -0.02708020 0.07603149 0.02663251
v -0.02708020 0.10259623 0.02890357
v -0.02708020 0.07622439 0.02664734
v -0.02672049 0.10330352 0.02943744
f 1 2 3
f 1 3 9
f 1 9 20
f 1 20 35
f 1 35 57
f 1 57 86
f 1 86 119
f 1 119 139
f 1 139 150
f 1 150 149
f 1 149 152
f 1 152 144
f 1 144 131
f 1 131 97
f 1 97 65
f 1 65 40
f 1 40 21
f 1 21 10
f 1 10 4
f 1 4 2
f 2 5 6
f 2 6 7
f 2 7 3
f 2 4 8
f 2 8 5
f 3 7 9
f 4 10 8
f 5 11 13
f 5 13 6
f 5 8 12
f 5 12 24
f 5 24 11
f 6 13 14
f 6 14 7
f 7 14 15
f 7 15 16
f 7 16 17
f 7 17 9
f 8 10 18
f 8 18 19
f 8 19 12
f 9 17 20
f 10 21 18
f 11 22 23
f 11 23 13
f 11 24 25
f 11 25 22
f 12 19 24
f 13 26 14
f 13 23 26
f 14 26 27
f 14 27 28
f 14 28 29
f 14 29 30
f 14 30 31
f 14 31 32
f 14 32 16
f 14 16 15
f 16 32 31
f 16 31 30
f 16 30 33
f 16 33 34
f 16 34 17
f 17 34 35
f 17 35 20
f 18 21 36
f 18 36 19
f 19 36 37
f 19 37 38
f 19 38 39
f 19 39 25
f 19 25 24
f 21 40 41
f 21 41 36
f 22 42 23
f 22 25 43
f 22 43 42
f 23 44 28
f 23 28 45
f 23 45 27
f 23 27 26
f 23 42 46
f 23 46 47
f 23 47 48
f 23 48 49
f 23 49 50
f 23 50 51
f 23 51 52
f 23 52 53
f 23 53 44
f 25 39 43
f 27 45 28
f 28 44 29
f 29 44 54
f 29 54 55
f 29 55 30
f 30 55 33
f 33 55 34
f 34 55 56
f 34 56 35
f 35 56 57
f 36 41 58
f 36 58 59
f 36 59 37
f 37 59 38
f 38 60 61
f 38 61 62
f 38 62 39
f 38 59 63
f 38 63 64
f 38 64 60
f 39 62 43
f 40 65 66
f 40 66 41
f 41 67 68
f 41 68 58
f 41 66 69
f 41 69 67
f 42 43 46
f 43 70 47
f 43 47 46
f 43 62 70
f 44 53 71
f 44 71 54
f 47 70 48
f 48 70 72
f 48 72 76
f 48 76 49
f 49 73 74
f 49 74 75
f 49 75 50
f 49 76 77
f 49 77 73
f 50 75 51
f 51 78 79
f 51 79 80
f 51 80 81
f 51 81 82
f 51 82 53
f 51 53 52
f 51 75 83
f 51 83 78
f 53 82 71
f 54 71 84
f 54 84 85
f 54 85 56
f 54 56 55
f 56 85 113
f 56 113 112
f 56 112 111
f 56 111 110
f 56 110 79
f 56 79 109
f 56 109 108
f 56 108 134
f 56 134 133
f 56 133 147
f 56 147 138
f 56 138 118
f 56 118 86
f 56 86 57
f 58 68 63
f 58 63 59
f 60 64 87
f 60 87 88
f 60 88 89
f 60 89 77
f 60 77 76
f 60 76 61
f 61 76 62
f 62 76 72
f 62 72 70
f 63 68 67
f 63 67 90
f 63 90 64
f 64 90 91
f 64 91 92
f 64 92 93
f 64 93 94
f 64 94 95
f 64 95 96
f 64 96 87
f 65 97 98
f 65 98 66
f 66 98 99
f 66 99 100
f 66 100 69
f 67 69 91
f 67 91 90
f 69 100 91
f 71 82 101
f 71 101 84
f 73 102 103
f 73 103 74
f 73 77 89
f 73 89 102
f 74 103 104
f 74 104 75
f 75 104 105
f 75 105 83
f 78 106 107
f 78 107 108
f 78 108 109
f 78 109 79
f 78 83 106
f 79 110 81
f 79 81 80
f 81 110 111
f 81 111 82
f 82 111 112
f 82 112 113
f 82 113 114
f 82 114 101
f 83 105 103
f 83 103 115
f 83 115 116
f 83 116 106
f 84 101 117
f 84 117 85
f 85 117 101
f 85 101 114
f 85 114 113
f 86 118 119
f 87 96 120
f 87 120 121
f 87 121 88
f 88 121 122
f 88 122 123
f 88 123 89
f 89 123 124
f 89 124 102
f 91 100 99
f 91 99 92
f 92 125 126
f 92 126 127
f 92 127 128
f 92 128 129
f 92 129 93
f 92 99 125
f 93 129 94
f 94 129 128
f 94 128 130
f 94 130 95
f 95 130 126
f 95 126 143
f 95 143 151
f 95 151 153
f 95 153 155
f 95 155 156
f 95 156 154
f 95 154 148
f 95 148 138
f 95 138 147
f 95 147 146
f 95 146 145
f 95 145 136
f 95 136 135
f 95 135 132
f 95 132 140
f 95 140 123
f 95 123 122
f 95 122 120
f 95 120 96
f 97 125 98
f 97 131 125
f 98 125 99
f 102 124 103
f 103 105 104
f 103 124 132
f 103 132 115
f 106 133 107
f 106 116 133
f 107 133 134
f 107 134 108
f 115 132 135
f 115 135 136
f 115 136 116
f 116 136 137
f 116 137 133
f 118 138 119
f 119 138 139
f 120 122 121
f 123 140 124
f 124 140 132
f 125 131 141
f 125 141 142
f 125 142 143
f 125 143 126
f 126 130 127
f 127 130 128
f 131 144 141
f 133 145 146
f 133 146 147
f 133 137 145
f 136 145 137
f 138 148 149
f 138 149 150
f 138 150 139
f 141 144 151
f 141 151 142
f 142 151 143
f 144 152 153
f 144 153 151
f 148 154 149
f 149 155 152
f 149 154 156
f 149 156 155
f 152 155 157
f 152 157 153
f 153 157 155

