# https://github.com/mikedh/trimesh
v 0.04713273 0.09600648 -0.00639777
v 0.04602909 0.09600648 -0.00639527
v 0.04713273 0.09710551 -0.00601451
v 0.04823100 0.09600648 -0.00639401
v 0.05152759 0.09490744 -0.00639652
v 0.05372413 0.09380958 -0.00639652
v 0.05701894 0.09161269 -0.00639652
v 0.05811721 0.09051483 -0.00639652
v 0.05921548 0.08941579 -0.00639652
v 0.05921548 0.08748537 -0.00639652
v 0.04602909 0.09490744 -0.00636020
v 0.04602909 0.09720618 -0.00588299
v 0.04713273 0.09770951 -0.00556235
v 0.04823100 0.09710551 -0.00599071
v 0.04932927 0.09600648 -0.00636646
v 0.05262586 0.09490744 -0.00639026
v 0.05482240 0.09380958 -0.00639026
v 0.05591888 0.09271173 -0.00639401
v 0.05921548 0.09051483 -0.00633640
v 0.06031375 0.08748537 -0.00635894
v 0.06004723 0.08748537 -0.00638399
v 0.05894896 0.08748537 -0.00638650
v 0.04602909 0.09386998 -0.00590804
v 0.05811721 0.08748537 -0.00626501
v 0.04602909 0.09735896 -0.00576275
v 0.04623837 0.09767991 -0.00552478
v 0.04602909 0.09792150 -0.00519913
v 0.04602909 0.09800441 -0.00509267
v 0.04602909 0.09804230 -0.00504382
v 0.04713273 0.09818916 -0.00494362
v 0.04823100 0.09869249 -0.00429357
v 0.04823100 0.09818323 -0.00494362
v 0.04823100 0.09769412 -0.00554231
v 0.04923089 0.09715881 -0.00583415
v 0.05042754 0.09689115 -0.00583540
v 0.05042754 0.09600648 -0.00628755
v 0.05372413 0.09490744 -0.00635018
v 0.05591888 0.09380958 -0.00625123
v 0.05701894 0.09271173 -0.00628505
v 0.05811721 0.09161269 -0.00631260
v 0.05927451 0.09168019 -0.00591932
v 0.06005081 0.09135806 -0.00571391
v 0.06037635 0.09051365 -0.00584542
v 0.06031375 0.08941579 -0.00613725
v 0.06031375 0.08831676 -0.00629632
v 0.06124209 0.08748537 -0.00598069
v 0.04602909 0.09332401 -0.00543460
v 0.05782923 0.08748537 -0.00615729
v 0.04602909 0.09865459 -0.00421592
v 0.04713273 0.09868420 -0.00427353
v 0.04823100 0.09896725 -0.00374498
v 0.04932927 0.09889737 -0.00360094
v 0.04932927 0.09861196 -0.00414953
v 0.04923089 0.09798427 -0.00498871
v 0.04879981 0.09765977 -0.00549848
v 0.05152759 0.09674311 -0.00570138
v 0.05372413 0.09590699 -0.00589802
v 0.05152759 0.09600648 -0.00615353
v 0.05482240 0.09490744 -0.00618610
v 0.05700821 0.09381432 -0.00583540
v 0.05894896 0.09240144 -0.00568134
v 0.05968054 0.09209115 -0.00543710
v 0.06095590 0.09224985 -0.00446266
v 0.06078239 0.09087842 -0.00542583
v 0.06092728 0.09014651 -0.00555860
v 0.06105785 0.08941579 -0.00568510
v 0.06125103 0.08831676 -0.00584417
v 0.06144421 0.08748537 -0.00588299
v 0.04602909 0.09282779 -0.00488475
v 0.05717992 0.08748537 -0.00581786
v 0.04602909 0.09893527 -0.00366732
v 0.04713273 0.09895185 -0.00372494
v 0.04823100 0.09926332 -0.00274548
v 0.04932927 0.09912595 -0.00274548
v 0.05007874 0.09880381 -0.00341056
v 0.05447539 0.09770359 -0.00340805
v 0.05372413 0.09779715 -0.00359217
v 0.05372413 0.09750463 -0.00414202
v 0.05296035 0.09760056 -0.00431111
v 0.05222698 0.09769293 -0.00443636
v 0.05372413 0.09645651 -0.00538325
v 0.05482240 0.09681773 -0.00467934
v 0.05482240 0.09626939 -0.00522919
v 0.05482240 0.09571987 -0.00574146
v 0.05548422 0.09555407 -0.00557488
v 0.05587774 0.09488494 -0.00578780
v 0.05663616 0.09450477 -0.00561120
v 0.05980039 0.09329086 -0.00441757
v 0.06061067 0.09304689 -0.00384518
v 0.06135836 0.09244170 -0.00375249
v 0.06197546 0.09217997 -0.00332414
v 0.06170358 0.09161269 -0.00406562
v 0.06115265 0.09161269 -0.00466932
v 0.06188960 0.09085947 -0.00429357
v 0.06140844 0.09050299 -0.00493861
v 0.06202018 0.09012638 -0.00445264
v 0.06238508 0.08748537 -0.00503756
v 0.06192001 0.08764762 -0.00544963
v 0.06194863 0.08748537 -0.00547844
v 0.04602909 0.09228064 -0.00421341
v 0.05576505 0.08748537 -0.00466181
v 0.04602909 0.09921358 -0.00274548
v 0.04823100 0.09942558 -0.00164704
v 0.04932927 0.09946821 -0.00054860
v 0.05081032 0.09871144 -0.00302729
v 0.05235398 0.09881566 -0.00032440
v 0.05482240 0.09821640 -0.00054860
v 0.05520698 0.09761477 -0.00310244
v 0.05483492 0.09740041 -0.00380259
v 0.05557187 0.09668508 -0.00453280
v 0.05589384 0.09598634 -0.00492358
v 0.05673811 0.09568553 -0.00458039
v 0.05863415 0.09433186 -0.00436747
v 0.06085573 0.09325414 -0.00327278
v 0.05747148 0.09537405 -0.00430359
v 0.05779166 0.09564526 -0.00357213
v 0.06197367 0.09327072 -0.00003382
v 0.06204522 0.09227827 -0.00274548
v 0.06285372 0.09154281 -0.00050601
v 0.06257647 0.09161269 -0.00164704
v 0.06232426 0.09161269 -0.00274548
v 0.06271599 0.09051483 -0.00274548
v 0.06349944 0.08831676 -0.00274548
v 0.06309877 0.08897405 -0.00337799
v 0.06207921 0.09161269 -0.00351577
v 0.06137624 0.09291069 -0.00284192
v 0.06169463 0.09300781 -0.00164704
v 0.06185025 0.09315348 -0.00076653
v 0.06321683 0.08831676 -0.00358340
v 0.06289128 0.08831676 -0.00413325
v 0.06301291 0.08763341 -0.00432989
v 0.06303974 0.08748537 -0.00435995
v 0.06249419 0.08748537 -0.00492608
v 0.04602909 0.09197390 -0.00366231
v 0.05541089 0.08748537 -0.00430735
v 0.04602909 0.09937228 -0.00164704
v 0.04823100 0.09958309 -0.00054860
v 0.04932927 0.09947532 0.00054859
v 0.05042754 0.09923016 0.00054859
v 0.05152759 0.09898383 0.00054859
v 0.05286197 0.09868301 0.00054859
v 0.05372413 0.09848642 0.00054859
v 0.05482240 0.09823061 0.00054859
v 0.05652883 0.09770004 -0.00019915
v 0.05597791 0.09785755 -0.00055862
v 0.05564879 0.09776399 -0.00164704
v 0.05546097 0.09769056 -0.00236973
v 0.05586343 0.09740633 -0.00274047
v 0.05662364 0.09668745 -0.00350074
v 0.05592961 0.09690773 -0.00385770
v 0.05630345 0.09641743 -0.00423345
v 0.06114550 0.09349337 -0.00164704
v 0.05678820 0.09682483 -0.00274548
v 0.06197367 0.09327072 0.00003507
v 0.06308446 0.09112949 -0.00011022
v 0.06223303 0.09275673 -0.00045967
v 0.06217043 0.09245829 -0.00164704
v 0.05694381 0.09726776 -0.00055862
v 0.06300755 0.09091158 -0.00084294
v 0.06294136 0.09053260 -0.00173597
v 0.06330447 0.08951291 -0.00173597
v 0.06380531 0.08748537 -0.00270039
v 0.06372303 0.08748537 -0.00294713
v 0.06335277 0.08748537 -0.00384267
v 0.06315959 0.08748537 -0.00417083
v 0.04602909 0.09167427 -0.00274924
v 0.05497087 0.08748537 -0.00377879
v 0.05480630 0.08748537 -0.00356462
v 0.04602909 0.09949426 -0.00054860
v 0.04823100 0.09957598 0.00054859
v 0.04823100 0.09925385 0.00274547
v 0.04932927 0.09931070 0.00164703
v 0.05042754 0.09906436 0.00164703
v 0.05211250 0.09876118 0.00115104
v 0.05185851 0.09870196 0.00188250
v 0.05482240 0.09802572 0.00164703
v 0.05546813 0.09769412 0.00238851
v 0.05565952 0.09777109 0.00164703
v 0.05598149 0.09786110 0.00055986
v 0.05652883 0.09770004 0.00020165
v 0.05372413 0.09829574 0.00164703
v 0.05638395 0.09761240 -0.00093186
v 0.05619792 0.09751884 -0.00164704
v 0.06050156 0.09405473 0.00164703
v 0.06115444 0.09350640 0.00164703
v 0.06185562 0.09315584 0.00076778
v 0.06197546 0.09217997 0.00332413
v 0.06204522 0.09227827 0.00274547
v 0.06217043 0.09246065 0.00164703
v 0.06223303 0.09275792 0.00046092
v 0.06308446 0.09112949 0.00010896
v 0.05769507 0.09666021 0.00054859
v 0.05891319 0.09565947 0.00054859
v 0.05946232 0.09520825 0.00054859
v 0.05877546 0.09554696 0.00144288
v 0.05865919 0.09545103 0.00217434
v 0.06420598 0.08789633 -0.00021794
v 0.06423639 0.08748537 -0.00076779
v 0.06412907 0.08767960 -0.00095065
v 0.06403785 0.08748537 -0.00167585
v 0.06313634 0.09017849 -0.00143036
v 0.04602909 0.09119108 -0.00054609
v 0.05447360 0.08748537 -0.00301477
v 0.05439848 0.08748537 -0.00284568
v 0.04602909 0.09948716 0.00054859
v 0.04602909 0.09934859 0.00164703
v 0.04602909 0.09918871 0.00274547
v 0.04713273 0.09894238 0.00371115
v 0.04823100 0.09896369 0.00373996
v 0.04932927 0.09890330 0.00361095
v 0.04932927 0.09913897 0.00274547
v 0.04602909 0.09892816 0.00365228
v 0.05150613 0.09883342 0.00156938
v 0.05112692 0.09878723 0.00237975
v 0.05484565 0.09779123 0.00275174
v 0.05522665 0.09761832 0.00312122
v 0.05150613 0.09862617 0.00274547
v 0.05083715 0.09871854 0.00311246
v 0.05262586 0.09834904 0.00274547
v 0.05586880 0.09741225 0.00275174
v 0.05638931 0.09761358 0.00093436
v 0.05680072 0.09682957 0.00274547
v 0.05707618 0.09690418 0.00159443
v 0.05694381 0.09727369 0.00055986
v 0.06099167 0.09337020 0.00255760
v 0.05855902 0.09536576 0.00274547
v 0.06086110 0.09326006 0.00329031
v 0.06170358 0.09301017 0.00164703
v 0.06232247 0.09161269 0.00274547
v 0.06257289 0.09161269 0.00164703
v 0.06285193 0.09154281 0.00050475
v 0.06137982 0.09291425 0.00285319
v 0.06136014 0.09244644 0.00375248
v 0.06095947 0.09225340 0.00446516
v 0.06170537 0.09161269 0.00406561
v 0.06188960 0.09086184 0.00429356
v 0.06207921 0.09161269 0.00351576
v 0.06309877 0.08897168 0.00337548
v 0.06379995 0.08748537 0.00269537
v 0.06349229 0.08831676 0.00274547
v 0.06420598 0.08789633 0.00021167
v 0.06300576 0.09090566 0.00084168
v 0.05759670 0.09658087 0.00119238
v 0.05748222 0.09648494 0.00192384
v 0.05734985 0.09637361 0.00274547
v 0.05800989 0.09582409 0.00274547
v 0.06430258 0.08748537 -0.00045090
v 0.04602909 0.09118634 -0.00052355
v 0.05398350 0.08748537 -0.00164704
v 0.04713273 0.09867709 0.00426100
v 0.04823100 0.09869012 0.00428981
v 0.04932927 0.09861669 0.00416080
v 0.05010557 0.09880974 0.00342182
v 0.05045437 0.09887842 0.00274547
v 0.04602909 0.09864393 0.00420464
v 0.05593319 0.09691247 0.00386270
v 0.05663079 0.09668982 0.00350699
v 0.05449507 0.09771070 0.00341932
v 0.05484565 0.09740633 0.00381010
v 0.05620865 0.09752239 0.00164703
v 0.05969485 0.09429989 0.00309993
v 0.06007406 0.09352180 0.00384517
v 0.06062319 0.09305281 0.00384517
v 0.05779703 0.09565118 0.00357964
v 0.05748043 0.09538353 0.00431235
v 0.06078418 0.09087960 0.00542582
v 0.06115623 0.09161269 0.00467182
v 0.05981291 0.09330151 0.00442633
v 0.06023325 0.09265607 0.00464552
v 0.05854113 0.09315110 0.00540829
v 0.05969128 0.09209826 0.00544336
v 0.06005081 0.09136635 0.00571515
v 0.06202018 0.09012875 0.00445388
v 0.06301470 0.08763697 0.00433114
v 0.06289307 0.08831676 0.00413199
v 0.06141023 0.09050418 0.00493985
v 0.06321504 0.08831676 0.00358340
v 0.06335277 0.08748537 0.00384266
v 0.06404500 0.08748537 0.00160320
v 0.06423103 0.08748537 0.00076778
v 0.06430079 0.08748537 0.00044463
v 0.06405931 0.08748537 0.00153932
v 0.04602909 0.09118042 0.00054108
v 0.05359713 0.08748537 -0.00052605
v 0.05356136 0.08748537 -0.00041458
v 0.05350770 0.08748537 -0.00023422
v 0.04713273 0.09817376 0.00494361
v 0.04823100 0.09818205 0.00494361
v 0.04881412 0.09766332 0.00550223
v 0.04923983 0.09799019 0.00499496
v 0.04713273 0.09770122 0.00555233
v 0.05042754 0.09792979 0.00471691
v 0.05152759 0.09779241 0.00455534
v 0.05225918 0.09770004 0.00444762
v 0.05299076 0.09760766 0.00432237
v 0.05372413 0.09751410 0.00415829
v 0.05372413 0.09780662 0.00360970
v 0.04602909 0.09802454 0.00503504
v 0.05557545 0.09668508 0.00453279
v 0.05630703 0.09642454 0.00423971
v 0.05482240 0.09682246 0.00468434
v 0.05864667 0.09434134 0.00437623
v 0.05674706 0.09569263 0.00458915
v 0.06037635 0.09051365 0.00584666
v 0.06092906 0.09014770 0.00555859
v 0.05706903 0.09495007 0.00497868
v 0.05549138 0.09555644 0.00557738
v 0.05738920 0.09420277 0.00536821
v 0.05665583 0.09451662 0.00561871
v 0.05780776 0.09347087 0.00565378
v 0.05895969 0.09241920 0.00568509
v 0.05928166 0.09168493 0.00592181
v 0.05921548 0.09051483 0.00633764
v 0.06234393 0.08831676 0.00478204
v 0.06281079 0.08748537 0.00460043
v 0.06316316 0.08748537 0.00416831
v 0.06160878 0.08941579 0.00513274
v 0.04602909 0.09166480 0.00274046
v 0.05351307 0.08748537 0.00023421
v 0.05361145 0.08748537 0.00051978
v 0.05448433 0.08748537 0.00299597
v 0.04602909 0.09800559 0.00506009
v 0.04823100 0.09769530 0.00554356
v 0.04923983 0.09716473 0.00583664
v 0.05042754 0.09690655 0.00583915
v 0.05152759 0.09676206 0.00571265
v 0.05240585 0.09664482 0.00558990
v 0.04954570 0.09756976 0.00539451
v 0.04602909 0.09765740 0.00549596
v 0.04602909 0.09722395 0.00585293
v 0.04602909 0.09721328 0.00586169
v 0.04713273 0.09710551 0.00600448
v 0.04823100 0.09710551 0.00599195
v 0.05042754 0.09745607 0.00526550
v 0.05589921 0.09599108 0.00492733
v 0.05482240 0.09627413 0.00523419
v 0.05482240 0.09572579 0.00574396
v 0.05313923 0.09654652 0.00548219
v 0.05372413 0.09646717 0.00539702
v 0.06125461 0.08831676 0.00584541
v 0.06105964 0.08941579 0.00568634
v 0.06031375 0.08941579 0.00613850
v 0.06192180 0.08765354 0.00545213
v 0.05588311 0.09489323 0.00579531
v 0.05702073 0.09382498 0.00584416
v 0.05815119 0.09275555 0.00588549
v 0.05591888 0.09380958 0.00625748
v 0.05701894 0.09271173 0.00628880
v 0.05811721 0.09161269 0.00631510
v 0.05921548 0.08941579 0.00639651
v 0.06031375 0.08748537 0.00635894
v 0.06031375 0.08831676 0.00629756
v 0.05482240 0.09380958 0.00639025
v 0.05591888 0.09271173 0.00639526
v 0.05701894 0.09161269 0.00639651
v 0.05811721 0.09051483 0.00639651
v 0.06249598 0.08748537 0.00492858
v 0.06219726 0.08748537 0.00523294
v 0.04602909 0.09196917 0.00366606
v 0.05499054 0.08748537 0.00377628
v 0.05042754 0.09600648 0.00629255
v 0.05152759 0.09600648 0.00616480
v 0.05372413 0.09591765 0.00589927
v 0.04602909 0.09720618 0.00586670
v 0.04603267 0.09600648 0.00639401
v 0.04713273 0.09600648 0.00639651
v 0.04823100 0.09600648 0.00639401
v 0.04932927 0.09600648 0.00636770
v 0.05482240 0.09490744 0.00618985
v 0.06144600 0.08748537 0.00588424
v 0.06174114 0.08748537 0.00564125
v 0.05372413 0.09490744 0.00635142
v 0.05921548 0.08748537 0.00639776
v 0.05262586 0.09490744 0.00639025
v 0.05372413 0.09380958 0.00639651
v 0.04602909 0.09226998 0.00421841
v 0.05568993 0.08748537 0.00456035
v 0.04602909 0.09627531 0.00627502
v 0.04602909 0.09600292 0.00639401
v 0.05152759 0.09490744 0.00639651
v 0.04603267 0.09490744 0.00636144
v 0.05811721 0.08748537 0.00626249
v 0.04602909 0.09281831 0.00489351
v 0.05718350 0.08748537 0.00581410
v 0.04602909 0.09490507 0.00636019
v 0.04603267 0.09385696 0.00590929
v 0.04602909 0.09385340 0.00590678
v 0.04602909 0.09330625 0.00544461
f 1 2 3
f 1 3 4
f 1 4 5
f 1 5 6
f 1 6 7
f 1 7 8
f 1 8 9
f 1 9 10
f 1 10 2
f 2 11 23
f 2 23 47
f 2 47 69
f 2 69 100
f 2 100 134
f 2 134 166
f 2 166 202
f 2 202 248
f 2 248 283
f 2 283 318
f 2 318 359
f 2 359 376
f 2 376 383
f 2 383 388
f 2 388 387
f 2 387 385
f 2 385 379
f 2 379 378
f 2 378 364
f 2 364 331
f 2 331 330
f 2 330 329
f 2 329 322
f 2 322 298
f 2 298 255
f 2 255 212
f 2 212 207
f 2 207 206
f 2 206 205
f 2 205 169
f 2 169 136
f 2 136 102
f 2 102 71
f 2 71 49
f 2 49 29
f 2 29 28
f 2 28 27
f 2 27 25
f 2 25 12
f 2 12 3
f 2 10 11
f 3 13 14
f 3 14 4
f 3 12 13
f 4 14 15
f 4 15 16
f 4 16 5
f 5 16 17
f 5 17 6
f 6 17 18
f 6 18 7
f 7 18 19
f 7 19 8
f 8 19 9
f 9 19 20
f 9 20 21
f 9 21 10
f 10 21 20
f 10 20 46
f 10 46 68
f 10 68 99
f 10 99 97
f 10 97 133
f 10 133 132
f 10 132 165
f 10 165 164
f 10 164 163
f 10 163 162
f 10 162 200
f 10 200 198
f 10 198 247
f 10 247 281
f 10 281 280
f 10 280 282
f 10 282 279
f 10 279 239
f 10 239 278
f 10 278 316
f 10 316 315
f 10 315 357
f 10 357 358
f 10 358 371
f 10 371 370
f 10 370 351
f 10 351 373
f 10 373 382
f 10 382 384
f 10 384 377
f 10 377 360
f 10 360 321
f 10 321 320
f 10 320 319
f 10 319 286
f 10 286 285
f 10 285 284
f 10 284 249
f 10 249 204
f 10 204 203
f 10 203 168
f 10 168 167
f 10 167 135
f 10 135 101
f 10 101 70
f 10 70 48
f 10 48 24
f 10 24 22
f 10 22 11
f 11 22 24
f 11 24 23
f 12 25 26
f 12 26 13
f 13 26 27
f 13 27 28
f 13 28 29
f 13 29 30
f 13 30 31
f 13 31 32
f 13 32 33
f 13 33 14
f 14 33 34
f 14 34 35
f 14 35 36
f 14 36 15
f 15 36 37
f 15 37 16
f 16 37 17
f 17 38 39
f 17 39 40
f 17 40 19
f 17 19 18
f 17 37 38
f 19 41 42
f 19 42 43
f 19 43 44
f 19 44 45
f 19 45 20
f 19 40 41
f 20 45 46
f 23 24 48
f 23 48 47
f 25 27 26
f 29 49 30
f 30 50 31
f 30 49 50
f 31 51 52
f 31 52 53
f 31 53 54
f 31 54 55
f 31 55 32
f 31 50 51
f 32 55 33
f 33 55 34
f 34 55 35
f 35 56 57
f 35 57 58
f 35 58 36
f 35 55 56
f 36 58 37
f 37 58 57
f 37 57 59
f 37 59 38
f 38 59 41
f 38 41 39
f 39 41 40
f 41 59 60
f 41 60 61
f 41 61 42
f 42 61 62
f 42 62 63
f 42 63 64
f 42 64 43
f 43 64 65
f 43 65 66
f 43 66 67
f 43 67 44
f 44 67 68
f 44 68 46
f 44 46 45
f 47 48 70
f 47 70 69
f 49 71 50
f 50 72 51
f 50 71 72
f 51 73 52
f 51 72 73
f 52 73 74
f 52 74 75
f 52 75 76
f 52 76 77
f 52 77 53
f 53 77 78
f 53 78 79
f 53 79 80
f 53 80 54
f 54 80 55
f 55 81 56
f 55 80 82
f 55 82 81
f 56 81 57
f 57 81 83
f 57 83 84
f 57 84 59
f 59 84 85
f 59 85 86
f 59 86 60
f 60 86 61
f 61 86 87
f 61 87 62
f 62 87 85
f 62 85 63
f 63 88 89
f 63 89 90
f 63 90 91
f 63 91 92
f 63 92 93
f 63 93 64
f 63 85 88
f 64 93 94
f 64 94 95
f 64 95 65
f 65 95 96
f 65 96 97
f 65 97 98
f 65 98 99
f 65 99 66
f 66 99 67
f 67 99 68
f 69 70 100
f 70 101 100
f 71 102 72
f 72 102 73
f 73 103 104
f 73 104 74
f 73 102 103
f 74 105 75
f 74 104 106
f 74 106 107
f 74 107 105
f 75 105 108
f 75 108 76
f 76 108 109
f 76 109 78
f 76 78 77
f 78 109 82
f 78 82 79
f 79 82 80
f 81 82 83
f 82 109 110
f 82 110 83
f 83 110 84
f 84 110 85
f 85 87 86
f 85 110 111
f 85 111 112
f 85 112 88
f 88 112 113
f 88 113 89
f 89 114 90
f 89 113 115
f 89 115 116
f 89 116 114
f 90 114 91
f 91 117 118
f 91 118 119
f 91 119 120
f 91 120 121
f 91 121 122
f 91 122 123
f 91 123 124
f 91 124 125
f 91 125 94
f 91 94 92
f 91 114 126
f 91 126 127
f 91 127 128
f 91 128 117
f 92 94 93
f 94 125 129
f 94 129 130
f 94 130 131
f 94 131 96
f 94 96 95
f 96 131 132
f 96 132 133
f 96 133 97
f 97 99 98
f 100 101 134
f 101 135 134
f 102 136 103
f 103 137 104
f 103 136 137
f 104 137 138
f 104 138 106
f 105 107 108
f 106 138 139
f 106 139 140
f 106 140 141
f 106 141 142
f 106 142 143
f 106 143 107
f 107 143 144
f 107 144 145
f 107 145 146
f 107 146 147
f 107 147 108
f 108 147 148
f 108 148 149
f 108 149 150
f 108 150 109
f 109 150 110
f 110 150 151
f 110 151 112
f 110 112 111
f 112 151 115
f 112 115 113
f 114 152 117
f 114 117 128
f 114 128 126
f 114 116 149
f 114 149 153
f 114 153 152
f 115 151 116
f 116 151 149
f 117 154 191
f 117 191 155
f 117 155 156
f 117 156 157
f 117 157 118
f 117 152 153
f 117 153 158
f 117 158 144
f 117 144 180
f 117 180 154
f 118 157 119
f 119 159 120
f 119 157 156
f 119 156 155
f 119 155 159
f 120 159 160
f 120 160 122
f 120 122 121
f 122 160 123
f 123 161 162
f 123 162 124
f 123 160 161
f 124 162 163
f 124 163 129
f 124 129 125
f 126 128 127
f 129 164 165
f 129 165 130
f 129 163 164
f 130 165 131
f 131 165 132
f 134 135 167
f 134 167 168
f 134 168 166
f 136 169 137
f 137 170 138
f 137 169 205
f 137 205 170
f 138 170 171
f 138 171 172
f 138 172 139
f 139 172 140
f 140 172 173
f 140 173 174
f 140 174 141
f 141 174 142
f 142 174 175
f 142 175 143
f 143 176 177
f 143 177 178
f 143 178 179
f 143 179 180
f 143 180 144
f 143 175 181
f 143 181 176
f 144 158 153
f 144 153 182
f 144 182 145
f 145 147 146
f 145 182 147
f 147 182 148
f 148 182 183
f 148 183 153
f 148 153 149
f 149 151 150
f 153 183 182
f 154 184 185
f 154 185 186
f 154 186 187
f 154 187 188
f 154 188 189
f 154 189 190
f 154 190 191
f 154 180 192
f 154 192 193
f 154 193 194
f 154 194 195
f 154 195 196
f 154 196 184
f 155 191 241
f 155 241 197
f 155 197 198
f 155 198 159
f 159 198 199
f 159 199 200
f 159 200 161
f 159 161 201
f 159 201 160
f 160 201 161
f 161 200 162
f 166 168 203
f 166 203 204
f 166 204 202
f 170 205 206
f 170 206 207
f 170 207 171
f 171 208 209
f 171 209 210
f 171 210 211
f 171 211 172
f 171 207 212
f 171 212 208
f 172 211 173
f 173 213 174
f 173 211 213
f 174 213 175
f 175 213 211
f 175 211 214
f 175 214 181
f 176 215 216
f 176 216 177
f 176 181 217
f 176 217 218
f 176 218 219
f 176 219 215
f 177 216 220
f 177 220 221
f 177 221 178
f 178 221 179
f 179 221 180
f 180 221 222
f 180 222 223
f 180 223 224
f 180 224 192
f 181 214 217
f 184 196 185
f 185 225 186
f 185 196 226
f 185 226 225
f 186 225 227
f 186 227 228
f 186 228 187
f 187 229 230
f 187 230 231
f 187 231 188
f 187 228 232
f 187 232 227
f 187 227 233
f 187 233 234
f 187 234 235
f 187 235 236
f 187 236 237
f 187 237 238
f 187 238 239
f 187 239 240
f 187 240 229
f 188 231 189
f 189 231 190
f 190 231 191
f 191 231 242
f 191 242 241
f 192 243 193
f 192 224 243
f 193 243 194
f 194 243 195
f 195 243 244
f 195 244 196
f 196 244 222
f 196 222 245
f 196 245 246
f 196 246 226
f 197 241 247
f 197 247 198
f 198 200 199
f 202 204 248
f 204 249 248
f 208 250 209
f 208 212 250
f 209 251 210
f 209 250 251
f 210 251 252
f 210 252 253
f 210 253 211
f 211 253 218
f 211 218 254
f 211 254 214
f 212 255 250
f 214 254 218
f 214 218 217
f 215 219 216
f 216 256 257
f 216 257 220
f 216 219 218
f 216 218 253
f 216 253 258
f 216 258 259
f 216 259 256
f 220 260 221
f 220 257 222
f 220 222 260
f 221 260 222
f 222 257 261
f 222 261 245
f 222 244 223
f 223 244 243
f 223 243 224
f 225 226 227
f 226 246 261
f 226 261 227
f 227 262 263
f 227 263 233
f 227 232 228
f 227 261 257
f 227 257 264
f 227 264 265
f 227 265 262
f 229 240 239
f 229 239 230
f 230 242 231
f 230 239 242
f 233 263 234
f 234 266 267
f 234 267 235
f 234 263 268
f 234 268 269
f 234 269 270
f 234 270 271
f 234 271 272
f 234 272 266
f 235 267 236
f 236 273 274
f 236 274 275
f 236 275 237
f 236 267 266
f 236 266 276
f 236 276 273
f 237 275 277
f 237 277 238
f 238 277 239
f 239 277 278
f 239 279 242
f 241 280 281
f 241 281 247
f 241 242 280
f 242 279 282
f 242 282 280
f 245 261 246
f 248 249 284
f 248 284 285
f 248 285 286
f 248 286 283
f 250 255 287
f 250 287 251
f 251 288 289
f 251 289 290
f 251 290 252
f 251 287 291
f 251 291 288
f 252 290 292
f 252 292 293
f 252 293 294
f 252 294 295
f 252 295 296
f 252 296 297
f 252 297 253
f 253 297 258
f 255 298 287
f 256 259 299
f 256 299 300
f 256 300 257
f 257 300 265
f 257 265 264
f 258 297 296
f 258 296 259
f 259 296 301
f 259 301 299
f 262 265 302
f 262 302 263
f 263 302 268
f 265 300 303
f 265 303 302
f 266 304 305
f 266 305 276
f 266 272 304
f 268 302 303
f 268 303 306
f 268 306 307
f 268 307 308
f 268 308 270
f 268 270 269
f 270 308 309
f 270 309 310
f 270 310 271
f 271 310 311
f 271 311 272
f 272 311 312
f 272 312 313
f 272 313 304
f 273 314 315
f 273 315 274
f 273 276 314
f 274 315 316
f 274 316 277
f 274 277 275
f 276 305 317
f 276 317 314
f 277 316 278
f 283 286 319
f 283 319 320
f 283 320 321
f 283 321 318
f 287 298 322
f 287 322 291
f 288 323 289
f 288 291 323
f 289 324 325
f 289 325 326
f 289 326 327
f 289 327 328
f 289 328 294
f 289 294 293
f 289 293 290
f 289 323 324
f 290 293 292
f 291 322 329
f 291 329 330
f 291 330 331
f 291 331 332
f 291 332 333
f 291 333 323
f 294 328 334
f 294 334 301
f 294 301 295
f 295 301 296
f 299 307 335
f 299 335 303
f 299 303 300
f 299 301 336
f 299 336 337
f 299 337 307
f 301 334 327
f 301 327 338
f 301 338 339
f 301 339 336
f 303 335 307
f 303 307 306
f 304 340 341
f 304 341 305
f 304 313 342
f 304 342 340
f 305 341 343
f 305 343 317
f 307 337 344
f 307 344 309
f 307 309 308
f 309 344 310
f 310 344 345
f 310 345 311
f 311 345 346
f 311 346 312
f 312 346 347
f 312 347 348
f 312 348 349
f 312 349 313
f 313 350 351
f 313 351 352
f 313 352 342
f 313 349 353
f 313 353 354
f 313 354 355
f 313 355 356
f 313 356 350
f 314 357 315
f 314 317 357
f 317 343 358
f 317 358 357
f 318 321 360
f 318 360 359
f 323 333 324
f 324 333 325
f 325 361 362
f 325 362 363
f 325 363 326
f 325 333 361
f 326 363 327
f 327 334 328
f 327 363 338
f 331 364 332
f 332 364 365
f 332 365 366
f 332 366 367
f 332 367 333
f 333 367 368
f 333 368 361
f 336 339 337
f 337 369 344
f 337 339 363
f 337 363 369
f 338 363 339
f 340 342 370
f 340 370 371
f 340 371 343
f 340 343 341
f 342 352 370
f 343 371 358
f 344 369 345
f 345 369 347
f 345 347 346
f 347 369 372
f 347 372 353
f 347 353 348
f 348 353 349
f 350 373 351
f 350 356 373
f 351 370 352
f 353 372 374
f 353 374 380
f 353 380 375
f 353 375 354
f 354 375 355
f 355 373 356
f 355 375 373
f 359 360 377
f 359 377 376
f 361 372 362
f 361 368 372
f 362 372 363
f 363 372 369
f 364 378 365
f 365 378 379
f 365 379 366
f 366 380 367
f 366 379 373
f 366 373 380
f 367 380 374
f 367 374 368
f 368 374 372
f 373 379 381
f 373 381 382
f 373 375 380
f 376 377 384
f 376 384 383
f 379 385 381
f 381 385 382
f 382 385 386
f 382 386 387
f 382 387 388
f 382 388 384
f 383 384 388
f 385 387 386

