# https://github.com/mikedh/trimesh
v 0.00277188 0.01437173 0.03561491
v 0.00277188 0.01437173 0.04089524
v 0.00277188 0.01471246 0.03562579
v 0.02430108 0.01437173 0.02631630
v 0.00614794 0.01437173 0.04045098
v 0.00277188 0.06963100 0.04344475
v 0.00277188 0.02061843 0.03582344
v 0.02430108 0.02128242 0.02660099
v 0.02430108 0.01437173 0.03291672
v 0.00277188 0.03929737 0.03644903
v 0.00277188 0.05796758 0.03707462
v 0.00277188 0.07073181 0.03750256
v 0.00277188 0.07402553 0.03761317
v 0.00277188 0.07444489 0.03762767
v 0.00277188 0.07512634 0.03765306
v 0.00758097 0.01437173 0.04026240
v 0.00428500 0.07402553 0.04344837
v 0.00277188 0.09270447 0.04450915
v 0.02430108 0.07293345 0.02876970
v 0.02365833 0.01437173 0.03340994
v 0.02430108 0.01839059 0.03314882
v 0.00277188 0.07553697 0.03767482
v 0.02430108 0.07512634 0.02886580
v 0.02430108 0.07405174 0.02881684
v 0.00977688 0.01437173 0.03997227
v 0.00977688 0.03448348 0.04090068
v 0.01087694 0.08281459 0.04298598
v 0.00848715 0.07402553 0.04289531
v 0.00428500 0.09709900 0.04451278
v 0.00428500 0.09930063 0.04461432
v 0.00277188 0.09889001 0.04479384
v 0.02165840 0.01437173 0.03494399
v 0.02160572 0.02129989 0.03538462
v 0.02203141 0.01800618 0.03486783
v 0.02430108 0.03213333 0.03394123
v 0.00277188 0.07622716 0.03771290
v 0.00277188 0.10259435 0.03938295
v 0.02430108 0.07577286 0.02890932
v 0.01092963 0.01437173 0.03970572
v 0.01087694 0.01580454 0.03979094
v 0.01032691 0.03063936 0.04065045
v 0.01139747 0.08125073 0.04284273
v 0.01087694 0.08611704 0.04313830
v 0.00877587 0.09923074 0.04401956
v 0.00933433 0.09954526 0.04395972
v 0.00277188 0.09998209 0.04483011
v 0.00277188 0.09930063 0.04481197
v 0.02135705 0.01471246 0.03519422
v 0.02134440 0.01437173 0.03518334
v 0.02131911 0.03273615 0.03626044
v 0.02430108 0.03417770 0.03405910
v 0.02430108 0.05974985 0.03553331
v 0.02323895 0.09270447 0.03824601
v 0.02274582 0.07512634 0.03761136
v 0.02241707 0.08547053 0.03845816
v 0.00277188 0.10282150 0.03939927
v 0.02430108 0.07622716 0.02894015
v 0.01129842 0.01437173 0.03958604
v 0.01143751 0.05909461 0.04175293
v 0.01146069 0.08198461 0.04286086
v 0.01087694 0.09930063 0.04374575
v 0.01087694 0.10040145 0.04377295
v 0.00994547 0.10040145 0.04389626
v 0.00939544 0.10040145 0.04396879
v 0.00277188 0.10040145 0.04484099
v 0.02121163 0.01437173 0.03527038
v 0.02130225 0.05269938 0.03735024
v 0.02128539 0.03201101 0.03624050
v 0.02430108 0.09576229 0.03760773
v 0.02405873 0.09819982 0.03793412
v 0.02340333 0.09709900 0.03837294
v 0.02344548 0.09819982 0.03840377
v 0.02348552 0.09930063 0.03843459
v 0.02244236 0.08611704 0.03847448
v 0.02198294 0.09930063 0.03936663
v 0.00277188 0.10324086 0.03946999
v 0.02430108 0.10259435 0.03103269
v 0.01141433 0.01437173 0.03954796
v 0.01147755 0.05974985 0.04176925
v 0.01151338 0.08281459 0.04288081
v 0.01144594 0.03705206 0.04065951
v 0.01197490 0.09930063 0.04348282
v 0.01197490 0.10040145 0.04351184
v 0.01087694 0.10149353 0.04376933
v 0.00993072 0.10149353 0.04389444
v 0.00938069 0.10149353 0.04396698
v 0.00428500 0.10149353 0.04463790
v 0.00277188 0.10149353 0.04483555
v 0.02079226 0.01437173 0.03553875
v 0.01994087 0.01690536 0.03614258
v 0.02013686 0.02019907 0.03622418
v 0.02018322 0.02099411 0.03624412
v 0.02022537 0.02172798 0.03626226
v 0.02143502 0.09930063 0.03960236
v 0.02129382 0.07473319 0.03844547
v 0.02076276 0.01471246 0.03557501
v 0.02430108 0.09930063 0.03781082
v 0.02350659 0.10002578 0.03845091
v 0.02293760 0.09930063 0.03881720
v 0.02264888 0.09161239 0.03861773
v 0.02201877 0.10040145 0.03938113
v 0.02430108 0.10301371 0.03122128
v 0.00277188 0.10332823 0.03968940
v 0.02430108 0.10334570 0.03146426
v 0.01190746 0.01437173 0.03934487
v 0.01145437 0.01500951 0.03956428
v 0.01154288 0.06084193 0.04179645
v 0.01267034 0.09270447 0.04290801
v 0.01251018 0.09006600 0.04284273
v 0.01293166 0.09709900 0.04301680
v 0.01299699 0.09819982 0.04304400
v 0.01197490 0.09709900 0.04337947
v 0.01150284 0.01580454 0.03958423
v 0.01176627 0.02019907 0.03969302
v 0.01316558 0.09933558 0.04302950
v 0.01307285 0.10040145 0.04309659
v 0.01197490 0.10149353 0.04350821
v 0.01197490 0.10259435 0.04345562
v 0.01087694 0.10259435 0.04369498
v 0.00925003 0.10314476 0.04394884
v 0.00930904 0.10259435 0.04395610
v 0.00867893 0.10259435 0.04403951
v 0.00648091 0.10259435 0.04432238
v 0.00538295 0.10259435 0.04445657
v 0.00277188 0.10259435 0.04476302
v 0.02045297 0.01437173 0.03572189
v 0.01312765 0.02459360 0.03934668
v 0.01746679 0.01437173 0.03704198
v 0.01923911 0.01437173 0.03630759
v 0.01978914 0.01437173 0.03607911
v 0.02017690 0.06523646 0.03843822
v 0.02147084 0.10040145 0.03961686
v 0.01363553 0.09971999 0.04285361
v 0.02076276 0.09930063 0.03988161
v 0.02132754 0.09750962 0.03955884
v 0.02076276 0.09819982 0.03982721
v 0.02076276 0.08281459 0.03906562
v 0.02086181 0.07510887 0.03864312
v 0.02430108 0.09966757 0.03782351
v 0.02430108 0.10039271 0.03784527
v 0.02394915 0.10039271 0.03811545
v 0.02351081 0.10075965 0.03845454
v 0.02306826 0.10039271 0.03875736
v 0.02306615 0.10143237 0.03875555
v 0.02201455 0.10149353 0.03937932
v 0.00277188 0.10347675 0.04010102
v 0.02430108 0.10352043 0.03212068
v 0.01307285 0.01437173 0.03886253
v 0.01188217 0.01466878 0.03937026
v 0.01298856 0.06844281 0.04157523
v 0.01977017 0.08062169 0.03936844
v 0.02029492 0.08941076 0.03958604
v 0.01746679 0.09709900 0.04113823
v 0.01746679 0.09930063 0.04124702
v 0.01607169 0.10040145 0.04185448
v 0.01746679 0.10149353 0.04127241
v 0.01307285 0.10149353 0.04309115
v 0.01317401 0.10256814 0.04302768
v 0.01360603 0.10291760 0.04283548
v 0.01287687 0.10328454 0.04298960
v 0.01197490 0.10336317 0.04312742
v 0.00867893 0.10319718 0.04398511
v 0.00758097 0.10327580 0.04405583
v 0.00648091 0.10333696 0.04412473
v 0.00538295 0.10337191 0.04418638
v 0.00277188 0.10308360 0.04450553
v 0.02076276 0.10040145 0.03991062
v 0.02146452 0.10149353 0.03961505
v 0.02076276 0.10149353 0.03990699
v 0.02430108 0.10145858 0.03784164
v 0.02351081 0.10101302 0.03845454
v 0.02350238 0.10174689 0.03844910
v 0.02293760 0.10259435 0.03880269
v 0.02198927 0.10259435 0.03935212
v 0.02143923 0.10259435 0.03960417
v 0.00318493 0.10351169 0.04010102
v 0.00277188 0.10354664 0.04051263
v 0.02405873 0.10355538 0.03241262
v 0.02430108 0.10356412 0.03241262
v 0.01362921 0.10218373 0.04284998
v 0.01604007 0.10259435 0.04183997
v 0.02138655 0.10317970 0.03958241
v 0.01595578 0.10321465 0.04180552
v 0.01830342 0.10326707 0.04076650
v 0.02076276 0.10328454 0.03970390
v 0.01526877 0.10331075 0.04193608
v 0.01746679 0.10335444 0.04091519
v 0.01526877 0.10355538 0.04119988
v 0.01197490 0.10360780 0.04229874
v 0.00648091 0.10357285 0.04339578
v 0.00428500 0.10338064 0.04423716
v 0.00277188 0.10338064 0.04432238
v 0.00538295 0.10360780 0.04339578
v 0.02430108 0.10193910 0.03783076
v 0.02430108 0.10259435 0.03781082
v 0.02348552 0.10259435 0.03843097
v 0.02275214 0.10330202 0.03867032
v 0.00277188 0.10361653 0.04119988
v 0.00538295 0.10360780 0.04010102
v 0.02430108 0.10361653 0.03326850
v 0.02179539 0.10335444 0.03902210
v 0.02076276 0.10352917 0.03900216
v 0.01966270 0.10338064 0.03991425
v 0.01746679 0.10359032 0.04010102
v 0.01966270 0.10361653 0.03900216
v 0.01417081 0.10361653 0.04119988
v 0.01087694 0.10361653 0.04229874
v 0.00428500 0.10362527 0.04339578
v 0.00277188 0.10352917 0.04376207
v 0.02430108 0.10283024 0.03777818
v 0.02430108 0.10327580 0.03757146
v 0.02405873 0.10331949 0.03766213
v 0.02430108 0.10332823 0.03745903
v 0.02305350 0.10343307 0.03799759
v 0.00277188 0.10361653 0.04339578
v 0.02430108 0.10361653 0.03570557
v 0.02405873 0.10355538 0.03680443
v 0.02186071 0.10361653 0.03790330
v 0.02430108 0.10351169 0.03680081
v 0.02430108 0.10356412 0.03656326
f 1 2 6
f 1 6 18
f 1 18 31
f 1 31 47
f 1 47 46
f 1 46 65
f 1 65 88
f 1 88 125
f 1 125 166
f 1 166 192
f 1 192 209
f 1 209 215
f 1 215 198
f 1 198 177
f 1 177 146
f 1 146 103
f 1 103 76
f 1 76 56
f 1 56 37
f 1 37 36
f 1 36 22
f 1 22 15
f 1 15 14
f 1 14 13
f 1 13 12
f 1 12 11
f 1 11 10
f 1 10 7
f 1 7 3
f 1 3 4
f 1 4 9
f 1 9 20
f 1 20 32
f 1 32 49
f 1 49 66
f 1 66 89
f 1 89 126
f 1 126 130
f 1 130 129
f 1 129 128
f 1 128 148
f 1 148 105
f 1 105 78
f 1 78 58
f 1 58 39
f 1 39 25
f 1 25 16
f 1 16 5
f 1 5 2
f 2 5 6
f 3 7 4
f 4 8 19
f 4 19 24
f 4 24 23
f 4 23 38
f 4 38 57
f 4 57 77
f 4 77 102
f 4 102 104
f 4 104 147
f 4 147 179
f 4 179 200
f 4 200 216
f 4 216 220
f 4 220 219
f 4 219 213
f 4 213 211
f 4 211 210
f 4 210 195
f 4 195 194
f 4 194 170
f 4 170 140
f 4 140 139
f 4 139 97
f 4 97 69
f 4 69 52
f 4 52 51
f 4 51 35
f 4 35 21
f 4 21 9
f 4 7 10
f 4 10 11
f 4 11 12
f 4 12 13
f 4 13 14
f 4 14 15
f 4 15 8
f 5 16 6
f 6 17 29
f 6 29 18
f 6 16 17
f 8 15 19
f 9 21 20
f 15 22 23
f 15 23 24
f 15 24 19
f 16 25 26
f 16 26 27
f 16 27 28
f 16 28 17
f 17 28 29
f 18 29 30
f 18 30 31
f 20 21 33
f 20 33 34
f 20 34 32
f 21 35 33
f 22 36 23
f 23 36 37
f 23 37 38
f 25 39 40
f 25 40 41
f 25 41 26
f 26 41 27
f 27 42 43
f 27 43 28
f 27 41 42
f 28 43 30
f 28 30 29
f 30 44 45
f 30 45 46
f 30 46 47
f 30 47 31
f 30 43 44
f 32 48 49
f 32 34 33
f 32 33 48
f 33 50 48
f 33 35 51
f 33 51 52
f 33 52 53
f 33 53 54
f 33 54 55
f 33 55 50
f 37 56 57
f 37 57 38
f 39 58 59
f 39 59 40
f 40 59 42
f 40 42 41
f 42 59 60
f 42 60 61
f 42 61 43
f 43 61 44
f 44 61 45
f 45 61 62
f 45 62 63
f 45 63 64
f 45 64 65
f 45 65 46
f 48 50 49
f 49 50 66
f 50 67 68
f 50 68 66
f 50 55 67
f 52 69 70
f 52 70 53
f 53 70 71
f 53 71 55
f 53 55 54
f 55 71 72
f 55 72 73
f 55 73 74
f 55 74 75
f 55 75 67
f 56 76 77
f 56 77 57
f 58 78 59
f 59 79 80
f 59 80 60
f 59 78 81
f 59 81 79
f 60 80 82
f 60 82 61
f 61 82 83
f 61 83 62
f 62 83 117
f 62 117 84
f 62 84 63
f 63 84 85
f 63 85 86
f 63 86 64
f 64 86 65
f 65 86 87
f 65 87 88
f 66 68 89
f 67 90 91
f 67 91 92
f 67 92 93
f 67 93 68
f 67 75 94
f 67 94 95
f 67 95 90
f 68 93 96
f 68 96 89
f 69 97 70
f 70 97 72
f 70 72 71
f 72 97 73
f 73 97 98
f 73 98 99
f 73 99 100
f 73 100 74
f 74 100 75
f 75 100 99
f 75 99 101
f 75 101 132
f 75 132 94
f 76 102 77
f 76 103 104
f 76 104 102
f 78 105 106
f 78 106 81
f 79 107 108
f 79 108 109
f 79 109 80
f 79 81 107
f 80 109 108
f 80 108 110
f 80 110 111
f 80 111 112
f 80 112 82
f 81 106 113
f 81 113 114
f 81 114 108
f 81 108 107
f 82 112 111
f 82 111 115
f 82 115 116
f 82 116 83
f 83 116 117
f 84 117 118
f 84 118 119
f 84 119 120
f 84 120 121
f 84 121 122
f 84 122 85
f 85 122 86
f 86 122 87
f 87 122 88
f 88 123 124
f 88 124 125
f 88 122 120
f 88 120 123
f 89 96 126
f 90 127 114
f 90 114 113
f 90 113 128
f 90 128 129
f 90 129 130
f 90 130 96
f 90 96 91
f 90 95 131
f 90 131 127
f 91 96 92
f 92 96 93
f 94 132 133
f 94 133 134
f 94 134 135
f 94 135 95
f 95 135 136
f 95 136 137
f 95 137 138
f 95 138 131
f 96 130 126
f 97 139 98
f 98 140 141
f 98 141 142
f 98 142 143
f 98 143 99
f 98 139 140
f 99 143 101
f 101 143 144
f 101 144 145
f 101 145 132
f 103 146 104
f 104 146 147
f 105 148 149
f 105 149 113
f 105 113 106
f 108 150 151
f 108 151 152
f 108 152 136
f 108 136 153
f 108 153 154
f 108 154 110
f 108 114 150
f 110 154 111
f 111 154 115
f 113 149 148
f 113 148 128
f 114 127 150
f 115 154 133
f 115 133 116
f 116 133 155
f 116 155 156
f 116 156 157
f 116 157 117
f 117 157 158
f 117 158 118
f 118 158 159
f 118 159 160
f 118 160 120
f 118 120 119
f 120 160 161
f 120 161 162
f 120 162 125
f 120 125 124
f 120 124 123
f 120 122 121
f 125 162 163
f 125 163 164
f 125 164 165
f 125 165 166
f 127 131 151
f 127 151 150
f 131 138 151
f 132 167 133
f 132 145 168
f 132 168 169
f 132 169 167
f 133 167 155
f 133 154 134
f 134 154 153
f 134 153 136
f 134 136 135
f 136 152 137
f 137 152 151
f 137 151 138
f 140 170 171
f 140 171 142
f 140 142 141
f 142 171 143
f 143 171 144
f 144 171 172
f 144 172 173
f 144 173 145
f 145 173 174
f 145 174 175
f 145 175 168
f 146 176 147
f 146 177 176
f 147 176 178
f 147 178 179
f 155 167 169
f 155 169 156
f 156 169 180
f 156 180 157
f 157 180 158
f 158 180 175
f 158 175 181
f 158 181 159
f 159 175 182
f 159 182 183
f 159 183 160
f 159 181 175
f 160 183 184
f 160 184 185
f 160 185 186
f 160 186 187
f 160 187 161
f 161 164 163
f 161 163 162
f 161 187 188
f 161 188 189
f 161 189 190
f 161 190 164
f 164 190 165
f 165 191 192
f 165 192 166
f 165 190 193
f 165 193 191
f 168 175 169
f 169 175 180
f 170 194 172
f 170 172 171
f 172 194 195
f 172 195 196
f 172 196 173
f 173 182 174
f 173 196 197
f 173 197 182
f 174 182 175
f 176 177 178
f 177 198 199
f 177 199 178
f 178 199 179
f 179 199 198
f 179 198 200
f 182 197 185
f 182 185 184
f 182 184 183
f 185 197 201
f 185 201 202
f 185 202 203
f 185 203 187
f 185 187 186
f 187 203 202
f 187 202 188
f 188 204 189
f 188 202 204
f 189 193 190
f 189 204 205
f 189 205 206
f 189 206 207
f 189 207 208
f 189 208 193
f 191 193 192
f 192 193 208
f 192 208 209
f 195 210 196
f 196 210 197
f 197 210 211
f 197 211 212
f 197 212 213
f 197 213 214
f 197 214 202
f 197 202 201
f 198 215 208
f 198 208 200
f 200 208 216
f 202 214 217
f 202 217 218
f 202 218 205
f 202 205 204
f 205 218 208
f 205 208 206
f 206 208 207
f 208 218 216
f 208 215 209
f 211 213 212
f 213 219 214
f 214 219 217
f 216 218 220
f 217 220 218
f 217 219 220

