# https://github.com/mikedh/trimesh
v -0.00011175 0.01012389 -0.04099197
v 0.00007391 0.01012389 -0.04098205
v 0.00098640 0.00628149 -0.04076131
v -0.00011175 0.00628149 -0.04081835
v -0.00121385 0.01012389 -0.04090268
v 0.00098640 0.01012389 -0.04093244
v 0.00222281 0.01012389 -0.04077123
v 0.00277188 0.01012389 -0.04069930
v 0.00223071 0.00628149 -0.04059762
v -0.00047912 0.00628149 -0.04078859
v -0.00126126 0.00628149 -0.04072410
v -0.00147852 0.00628149 -0.04069682
v -0.00232386 0.01012389 -0.04075883
v 0.00277188 0.01012389 -0.03498246
v 0.00277188 0.00628149 -0.04052569
v -0.00259247 0.00628149 -0.04055049
v -0.00890486 0.00628149 -0.03971963
v -0.01000301 0.01012389 -0.03974691
v 0.00277188 0.00628149 -0.02261126
v -0.03147226 0.01012389 -0.01565681
v -0.00984501 0.00628149 -0.03959562
v -0.01055604 0.00753320 -0.03955346
v -0.01071405 0.01012389 -0.03961298
v -0.01700669 0.00628149 -0.01565681
v -0.03757925 0.01012389 -0.01565681
v -0.01035853 0.00628149 -0.03952369
v -0.01106561 0.00628149 -0.03929055
v -0.01117227 0.01012389 -0.03943440
v -0.03739754 0.00628149 -0.01565681
v -0.03746864 0.01012389 -0.01593211
v -0.01219932 0.00628149 -0.03882924
v -0.01126312 0.01012389 -0.03939720
v -0.03647714 0.01012389 -0.01832549
v -0.03575426 0.00628149 -0.01962263
v -0.01311181 0.00628149 -0.03845225
v -0.01370039 0.01012389 -0.03839273
v -0.01219932 0.01012389 -0.03901277
v -0.03604658 0.01012389 -0.01935973
v -0.03581351 0.00876385 -0.01976648
v -0.03538689 0.00628149 -0.02032701
v -0.01553722 0.00628149 -0.03744777
v -0.01605469 0.01012389 -0.03741801
v -0.01439562 0.01012389 -0.03810502
v -0.03584512 0.01012389 -0.01984089
v -0.03556465 0.01012389 -0.02037165
v -0.03490102 0.00628149 -0.02111323
v -0.01850776 0.00628149 -0.03621512
v -0.01665907 0.01012389 -0.03716751
v -0.03546195 0.01012389 -0.02053782
v -0.03500768 0.01012389 -0.02125460
v -0.03462056 0.00628149 -0.02148030
v -0.01887118 0.00628149 -0.03606382
v -0.01900153 0.01012389 -0.03619527
v -0.03390558 0.01012389 -0.02269311
v -0.03343550 0.01012389 -0.02330572
v -0.03031486 0.00628149 -0.02709049
v -0.01974417 0.01012389 -0.03588029
v -0.01909634 0.01012389 -0.03615559
v -0.01988637 0.00628149 -0.03562979
v -0.03028326 0.01012389 -0.02741292
v -0.02973813 0.01012389 -0.02812225
v -0.02959592 0.00628149 -0.02802304
v -0.01988637 0.01012389 -0.03581829
v -0.02060531 0.00628149 -0.03527264
v -0.02931151 0.01012389 -0.02866541
v -0.02920091 0.00628149 -0.02853396
v -0.02074751 0.01012389 -0.03536689
v -0.02078702 0.00628149 -0.03513871
v -0.02129659 0.01012389 -0.03497502
v -0.02870318 0.01012389 -0.02922841
v -0.02890859 0.00628149 -0.02880430
v -0.02115438 0.00628149 -0.03486589
v -0.02139535 0.00628149 -0.03468236
v -0.02205503 0.00628149 -0.03417640
v -0.02437773 0.01012389 -0.03261140
v -0.02859653 0.01012389 -0.02932266
v -0.02803165 0.00628149 -0.02959052
v -0.02868343 0.00628149 -0.02901016
v -0.02640023 0.00628149 -0.03084302
v -0.02700460 0.00628149 -0.03037922
v -0.02809881 0.01012389 -0.02975421
v -0.02816991 0.01012389 -0.02969717
v -0.02814621 0.00947659 -0.02967981
f 1 2 3
f 1 3 4
f 1 4 10
f 1 10 5
f 1 5 13
f 1 13 18
f 1 18 23
f 1 23 28
f 1 28 32
f 1 32 37
f 1 37 36
f 1 36 43
f 1 43 42
f 1 42 48
f 1 48 53
f 1 53 58
f 1 58 57
f 1 57 63
f 1 63 67
f 1 67 69
f 1 69 75
f 1 75 81
f 1 81 82
f 1 82 76
f 1 76 70
f 1 70 65
f 1 65 61
f 1 61 60
f 1 60 55
f 1 55 54
f 1 54 50
f 1 50 49
f 1 49 45
f 1 45 44
f 1 44 38
f 1 38 33
f 1 33 30
f 1 30 25
f 1 25 20
f 1 20 14
f 1 14 8
f 1 8 7
f 1 7 6
f 1 6 2
f 2 6 3
f 3 6 7
f 3 7 8
f 3 8 9
f 3 9 15
f 3 15 19
f 3 19 24
f 3 24 29
f 3 29 34
f 3 34 40
f 3 40 46
f 3 46 51
f 3 51 56
f 3 56 62
f 3 62 66
f 3 66 71
f 3 71 78
f 3 78 77
f 3 77 80
f 3 80 79
f 3 79 74
f 3 74 73
f 3 73 72
f 3 72 68
f 3 68 64
f 3 64 59
f 3 59 52
f 3 52 47
f 3 47 41
f 3 41 35
f 3 35 31
f 3 31 27
f 3 27 26
f 3 26 21
f 3 21 17
f 3 17 16
f 3 16 12
f 3 12 11
f 3 11 10
f 3 10 4
f 5 10 11
f 5 11 12
f 5 12 13
f 8 14 19
f 8 19 15
f 8 15 9
f 12 16 13
f 13 16 17
f 13 17 18
f 14 20 19
f 17 21 18
f 18 21 22
f 18 22 23
f 19 20 24
f 20 25 29
f 20 29 24
f 21 26 22
f 22 26 27
f 22 27 28
f 22 28 23
f 25 30 29
f 27 31 28
f 28 31 32
f 29 30 33
f 29 33 34
f 31 35 36
f 31 36 37
f 31 37 32
f 33 38 39
f 33 39 34
f 34 39 40
f 35 41 42
f 35 42 43
f 35 43 36
f 38 44 39
f 39 44 45
f 39 45 40
f 40 45 46
f 41 47 48
f 41 48 42
f 45 49 46
f 46 50 51
f 46 49 50
f 47 52 53
f 47 53 48
f 50 54 51
f 51 54 55
f 51 55 56
f 52 57 58
f 52 58 53
f 52 59 57
f 55 60 56
f 56 60 61
f 56 61 62
f 57 59 63
f 59 64 63
f 61 65 66
f 61 66 62
f 63 64 67
f 64 68 69
f 64 69 67
f 65 70 66
f 66 70 71
f 68 72 69
f 69 72 73
f 69 73 74
f 69 74 75
f 70 76 77
f 70 77 78
f 70 78 71
f 74 79 75
f 75 79 80
f 75 80 81
f 76 82 83
f 76 83 77
f 77 83 81
f 77 81 80
f 81 83 82

