# https://github.com/mikedh/trimesh
v 0.01977997 0.00736379 0.01922991
v 0.02930501 0.01001243 0.01922991
v 0.03596276 0.00736379 0.01922991
v 0.00277514 0.00736379 0.02730004
v 0.03609651 0.01001243 0.01922991
v 0.00277514 0.01001243 0.03488693
v 0.03600191 0.00810847 0.01922991
v 0.03576704 0.00736379 0.01969215
v 0.00277514 0.00736379 0.04057026
v 0.03573116 0.01001243 0.02005983
v 0.03571159 0.00921200 0.02001991
v 0.03568549 0.00811365 0.01996318
v 0.03566592 0.00736379 0.01992536
v 0.00277514 0.01001243 0.04069423
v 0.00318616 0.00736379 0.04051774
v 0.00277514 0.00757485 0.04058077
v 0.03544410 0.01001243 0.02061030
v 0.03538865 0.00811365 0.02051365
v 0.03536582 0.00736379 0.02047373
v 0.00277514 0.00878677 0.04063750
v 0.00977866 0.01001243 0.03977187
v 0.00758007 0.00811365 0.03997357
v 0.00983412 0.00736379 0.03964160
v 0.03529405 0.01001243 0.02082461
v 0.03481780 0.00736379 0.02129524
v 0.03499069 0.00736379 0.02103892
v 0.01036583 0.00736379 0.03956386
v 0.01055502 0.01001243 0.03962479
v 0.03483737 0.01001243 0.02146753
v 0.03486999 0.00921200 0.02136458
v 0.03453074 0.00736379 0.02167133
v 0.01084860 0.00736379 0.03939788
v 0.01096930 0.00811365 0.03939368
v 0.01104758 0.00921200 0.03942099
v 0.01110630 0.01001243 0.03943990
v 0.01042128 0.00811365 0.03958067
v 0.01049957 0.00921200 0.03960588
v 0.01095625 0.01001243 0.03949033
v 0.03447203 0.01001243 0.02194447
v 0.03444919 0.00921200 0.02191505
v 0.03439700 0.00736379 0.02184572
v 0.01197399 0.00736379 0.03896927
v 0.01197399 0.00811365 0.03900708
v 0.01197399 0.01001243 0.03910163
v 0.03408385 0.01001243 0.02245082
v 0.03144489 0.01001243 0.02589024
v 0.03111543 0.00921200 0.02626002
v 0.03009116 0.00736379 0.02745552
v 0.01305045 0.00736379 0.03852595
v 0.01278297 0.01001243 0.03876756
v 0.02974538 0.01001243 0.02810474
v 0.02977148 0.00803068 0.02792195
v 0.02990848 0.00736379 0.02769294
v 0.01554589 0.00736379 0.03749223
v 0.01589492 0.00811365 0.03738507
v 0.01655711 0.01001243 0.03720439
v 0.02919737 0.01001243 0.02878128
v 0.02914191 0.00811365 0.02872035
v 0.02911908 0.00736379 0.02869724
v 0.02933764 0.00736379 0.02842410
v 0.02968341 0.00736379 0.02798498
v 0.01633203 0.00736379 0.03716657
v 0.01898077 0.01001243 0.03620008
v 0.01818485 0.01001243 0.03652995
v 0.02860695 0.01001243 0.02932965
v 0.02853518 0.00811365 0.02927083
v 0.02850582 0.00736379 0.02924561
v 0.01827292 0.00736379 0.03636187
v 0.01882420 0.00736379 0.03613285
v 0.01966253 0.00811365 0.03582189
v 0.01966253 0.01001243 0.03591644
v 0.02845689 0.01001243 0.02945362
v 0.02795781 0.00736379 0.02970574
v 0.02813069 0.00736379 0.02956077
v 0.01966253 0.00736379 0.03578408
v 0.02052370 0.00736379 0.03535756
v 0.02062809 0.01001243 0.03542269
v 0.02805567 0.01001243 0.02978348
v 0.02802631 0.00921200 0.02976037
v 0.02253310 0.00736379 0.03386792
v 0.02069985 0.00736379 0.03523780
v 0.02114674 0.00921200 0.03503400
v 0.02117610 0.01001243 0.03505711
v 0.02232759 0.01001243 0.03417677
v 0.02196551 0.00917881 0.03440789
v 0.02197203 0.00736379 0.03429653
v 0.02107498 0.00736379 0.03497937
v 0.02110434 0.00811365 0.03500249
v 0.02166540 0.01001243 0.03468313
v 0.02179588 0.00736379 0.03443100
f 1 2 5
f 1 5 7
f 1 7 3
f 1 3 8
f 1 8 13
f 1 13 19
f 1 19 26
f 1 26 25
f 1 25 31
f 1 31 41
f 1 41 48
f 1 48 53
f 1 53 61
f 1 61 60
f 1 60 59
f 1 59 67
f 1 67 74
f 1 74 73
f 1 73 80
f 1 80 86
f 1 86 90
f 1 90 87
f 1 87 81
f 1 81 76
f 1 76 75
f 1 75 69
f 1 69 68
f 1 68 62
f 1 62 54
f 1 54 49
f 1 49 42
f 1 42 32
f 1 32 27
f 1 27 23
f 1 23 15
f 1 15 9
f 1 9 4
f 1 4 2
f 2 4 6
f 2 6 14
f 2 14 21
f 2 21 28
f 2 28 38
f 2 38 35
f 2 35 44
f 2 44 50
f 2 50 56
f 2 56 64
f 2 64 63
f 2 63 71
f 2 71 77
f 2 77 83
f 2 83 89
f 2 89 84
f 2 84 78
f 2 78 72
f 2 72 65
f 2 65 57
f 2 57 51
f 2 51 46
f 2 46 45
f 2 45 39
f 2 39 29
f 2 29 24
f 2 24 17
f 2 17 10
f 2 10 5
f 3 7 8
f 4 9 16
f 4 16 20
f 4 20 14
f 4 14 6
f 5 10 11
f 5 11 12
f 5 12 13
f 5 13 8
f 5 8 7
f 9 15 16
f 10 17 11
f 11 17 12
f 12 17 13
f 13 17 18
f 13 18 19
f 14 20 15
f 14 15 21
f 15 22 21
f 15 20 16
f 15 23 22
f 17 24 25
f 17 25 26
f 17 26 18
f 18 26 19
f 21 22 23
f 21 23 27
f 21 27 28
f 24 29 30
f 24 30 25
f 25 30 29
f 25 29 31
f 27 32 33
f 27 33 34
f 27 34 35
f 27 35 36
f 27 36 28
f 28 36 37
f 28 37 38
f 29 39 40
f 29 40 31
f 31 40 41
f 32 42 33
f 33 42 34
f 34 42 35
f 35 38 36
f 35 42 43
f 35 43 44
f 36 38 37
f 39 45 40
f 40 45 41
f 41 45 46
f 41 46 47
f 41 47 48
f 42 49 43
f 43 49 44
f 44 49 50
f 46 51 47
f 47 51 48
f 48 51 52
f 48 52 53
f 49 54 55
f 49 55 50
f 50 55 56
f 51 57 58
f 51 58 59
f 51 59 60
f 51 60 61
f 51 61 52
f 52 61 53
f 54 62 55
f 55 62 63
f 55 63 64
f 55 64 56
f 57 65 59
f 57 59 58
f 59 65 66
f 59 66 67
f 62 68 63
f 63 68 69
f 63 69 70
f 63 70 71
f 65 72 73
f 65 73 66
f 66 73 74
f 66 74 67
f 69 75 70
f 70 76 71
f 70 75 76
f 71 76 77
f 72 78 79
f 72 79 73
f 73 79 80
f 76 81 82
f 76 82 83
f 76 83 77
f 78 84 85
f 78 85 79
f 79 85 80
f 80 85 86
f 81 87 88
f 81 88 82
f 82 88 85
f 82 85 83
f 83 85 89
f 84 89 85
f 85 88 90
f 85 90 86
f 87 90 88

