# https://github.com/mikedh/trimesh
v 0.02678218 0.00736381 -0.00650691
v 0.02649097 0.00736381 0.00761196
v 0.03458681 0.01019830 -0.00650691
v 0.04008016 0.00736381 -0.00650691
v 0.03993384 0.00736381 0.00761196
v 0.03440782 0.01019830 0.00761196
v 0.04021086 0.01019830 -0.00650691
v 0.04016398 0.00917855 -0.00650691
v 0.04046514 0.00811357 -0.00384511
v 0.04052907 0.00736381 -0.00309467
v 0.03995657 0.00736381 0.00744197
v 0.03996936 0.00811357 0.00761196
v 0.04006454 0.01019830 0.00761196
v 0.04072084 0.01019830 -0.00263307
v 0.04071942 0.00736381 -0.00164767
v 0.04007022 0.00736381 0.00658096
v 0.04004181 0.00968940 0.00761196
v 0.04014125 0.00736381 0.00604197
v 0.04047650 0.00736381 0.00349626
v 0.04083591 0.01019830 0.00176042
v 0.04011568 0.01019830 0.00722637
v 0.04085011 0.01019830 -0.00164767
v 0.04080466 0.00921185 -0.00164767
v 0.04086148 0.00736381 -0.00054896
v 0.04027194 0.01019830 0.00604197
v 0.04071942 0.00736381 0.00164710
v 0.04086148 0.00736381 0.00054976
v 0.04094671 0.00921185 0.00054976
v 0.04100211 0.01019830 0.00046546
v 0.04100211 0.01019830 -0.00046327
v 0.04094671 0.00921185 -0.00054896
f 1 2 3
f 1 3 7
f 1 7 8
f 1 8 4
f 1 4 10
f 1 10 15
f 1 15 24
f 1 24 27
f 1 27 26
f 1 26 19
f 1 19 18
f 1 18 16
f 1 16 11
f 1 11 5
f 1 5 2
f 2 5 12
f 2 12 17
f 2 17 13
f 2 13 6
f 2 6 3
f 3 6 13
f 3 13 21
f 3 21 25
f 3 25 20
f 3 20 29
f 3 29 30
f 3 30 22
f 3 22 14
f 3 14 7
f 4 8 9
f 4 9 10
f 5 11 12
f 7 14 8
f 8 14 9
f 9 14 15
f 9 15 10
f 11 16 12
f 12 16 18
f 12 18 19
f 12 19 20
f 12 20 17
f 13 17 21
f 14 22 23
f 14 23 15
f 15 23 31
f 15 31 24
f 17 20 25
f 17 25 21
f 19 26 20
f 20 26 27
f 20 27 28
f 20 28 29
f 22 30 31
f 22 31 23
f 24 31 30
f 24 30 29
f 24 29 27
f 27 29 28

