# https://github.com/mikedh/trimesh
v 0.04234892 0.02075362 0.00049863
v 0.04234892 0.02134926 0.00274685
v 0.04234892 0.02080064 -0.00020954
v 0.04443331 0.02181950 -0.00014516
v 0.04443331 0.02181950 0.00014518
v 0.04428475 0.02189787 0.00087733
v 0.04377828 0.02208074 0.00274685
v 0.04320204 0.02188742 0.00311167
v 0.04234892 0.02175680 0.00389810
v 0.04234892 0.02134403 -0.00274683
v 0.04428700 0.02189787 -0.00087984
v 0.04473719 0.02265548 -0.00274431
v 0.04495779 0.02237856 -0.00061854
v 0.04556555 0.02285925 -0.00036102
v 0.04554529 0.02288015 0.00054913
v 0.04485424 0.02226361 0.00052514
v 0.04473944 0.02265548 0.00274433
v 0.04410017 0.02198669 0.00164610
v 0.04457738 0.02279133 0.00358504
v 0.04234892 0.02251964 0.00483980
v 0.04426899 0.02301077 0.00431594
v 0.04234892 0.02147987 -0.00320380
v 0.04320204 0.02188742 -0.00311796
v 0.04378053 0.02207552 -0.00274936
v 0.04457738 0.02279133 -0.00358502
v 0.04528643 0.02316752 -0.00274431
v 0.04541699 0.02302123 -0.00164608
v 0.04548227 0.02294808 -0.00109191
v 0.04654923 0.02408711 -0.00093664
v 0.04663026 0.02399828 -0.00020449
v 0.04663026 0.02399828 0.00021082
v 0.04548452 0.02294808 0.00109824
v 0.04654923 0.02408188 0.00094424
v 0.04528868 0.02316230 0.00274433
v 0.04564208 0.02387288 0.00355096
v 0.04498930 0.02344444 0.00393345
v 0.04234892 0.02283835 0.00517685
v 0.04540123 0.02413935 0.00428311
v 0.04466742 0.02374749 0.00467823
v 0.04425774 0.02413935 0.00541038
v 0.04352617 0.02391468 0.00563255
v 0.04234892 0.02165230 -0.00359765
v 0.04427125 0.02301077 -0.00431592
v 0.04499156 0.02344444 -0.00393722
v 0.04564208 0.02387288 -0.00355852
v 0.04387732 0.02258756 -0.00390818
v 0.04883846 0.02727952 -0.00339694
v 0.04990317 0.02841855 -0.00333761
v 0.04633538 0.02432223 -0.00274431
v 0.04892850 0.02718025 -0.00274431
v 0.05022506 0.02805803 -0.00054784
v 0.04769497 0.02513731 -0.00004543
v 0.04769497 0.02513731 0.00004798
v 0.04738659 0.02547170 0.00274433
v 0.05022506 0.02805803 0.00054786
v 0.05010351 0.02819388 0.00164610
v 0.04997745 0.02833496 0.00274433
v 0.04990317 0.02841855 0.00333763
v 0.04883846 0.02727952 0.00339569
v 0.04777375 0.02614572 0.00345124
v 0.04605401 0.02457302 0.00389179
v 0.04234892 0.02363254 0.00590648
v 0.04573212 0.02487607 0.00463404
v 0.04646594 0.02527838 0.00423388
v 0.04997970 0.02942174 0.00449266
v 0.04501181 0.02450510 0.00502284
v 0.04462465 0.02487084 0.00570577
v 0.04387057 0.02454167 0.00588502
v 0.04234892 0.02198147 -0.00413162
v 0.04234892 0.02251964 -0.00484231
v 0.04352842 0.02390946 -0.00563380
v 0.04425999 0.02413935 -0.00541036
v 0.04467642 0.02374749 -0.00467821
v 0.04540798 0.02412890 -0.00428941
v 0.04753965 0.02640174 -0.00418590
v 0.04860436 0.02754077 -0.00413035
v 0.04997520 0.02834018 -0.00274431
v 0.04966907 0.02868502 -0.00406976
v 0.05014627 0.02902987 -0.00375923
v 0.05093186 0.02962551 -0.00306494
v 0.05058972 0.02907689 -0.00271780
v 0.05077430 0.02870592 -0.00054784
v 0.05077430 0.02870592 0.00054786
v 0.05065274 0.02885745 0.00164610
v 0.05058972 0.02908212 0.00271403
v 0.05093186 0.02962551 0.00305739
v 0.05014627 0.02903509 0.00376051
v 0.04965557 0.02869025 0.00406978
v 0.04924814 0.02798488 0.00373274
v 0.04234892 0.02419683 0.00619682
v 0.04859311 0.02755644 0.00412911
v 0.05076079 0.03003305 0.00390568
v 0.05092961 0.03074364 0.00431341
v 0.05013727 0.03018980 0.00489156
v 0.04989192 0.03062346 0.00550632
v 0.04958578 0.02989198 0.00522482
v 0.04885197 0.02946353 0.00555934
v 0.04535846 0.02528883 0.00536620
v 0.04602925 0.02678838 0.00586861
v 0.04496904 0.02567025 0.00591153
v 0.04818793 0.02905077 0.00577015
v 0.04383681 0.02569638 0.00633062
v 0.04273834 0.02459915 0.00625236
v 0.04234892 0.02363254 -0.00590646
v 0.04387057 0.02454167 -0.00588752
v 0.04463590 0.02487084 -0.00570954
v 0.04502082 0.02449987 -0.00502914
v 0.04574113 0.02486562 -0.00464539
v 0.04680809 0.02599942 -0.00461257
v 0.04893525 0.02827226 -0.00453683
v 0.04998195 0.02941651 -0.00449517
v 0.05076529 0.03003305 -0.00390944
v 0.05112995 0.03035177 -0.00358629
v 0.05204835 0.03179384 -0.00315204
v 0.05184126 0.03124523 -0.00276956
v 0.05121549 0.03003305 -0.00271780
v 0.05100390 0.02950533 -0.00233279
v 0.05116371 0.02925454 -0.00054784
v 0.05116371 0.02925454 0.00054786
v 0.05100390 0.02950533 0.00232649
v 0.05204384 0.03180429 0.00310914
v 0.05112320 0.03035699 0.00357999
v 0.05541130 0.03715460 0.00019188
v 0.05652552 0.03931248 0.00028404
v 0.04234892 0.02459915 0.00635082
v 0.05111419 0.03146990 0.00455325
v 0.05555536 0.03907736 0.00363175
v 0.05535052 0.03946923 0.00436390
v 0.04926390 0.03018980 0.00571082
v 0.05505114 0.03989767 0.00494332
v 0.05428806 0.03940131 0.00551011
v 0.05003373 0.03119298 0.00565906
v 0.04933143 0.03119298 0.00609835
v 0.04823070 0.03009052 0.00620060
v 0.04602925 0.02789084 0.00627508
v 0.04493528 0.02679361 0.00630664
v 0.04823070 0.03119298 0.00638364
v 0.04234892 0.02520001 0.00643035
v 0.04234892 0.02459915 -0.00635206
v 0.04273834 0.02459915 -0.00625234
v 0.04383681 0.02569638 -0.00633187
v 0.04497580 0.02566503 -0.00591656
v 0.04605401 0.02678838 -0.00587616
v 0.04569836 0.02600987 -0.00567924
v 0.04536747 0.02527838 -0.00537754
v 0.04643218 0.02641741 -0.00534472
v 0.04926615 0.02906644 -0.00488144
v 0.04886097 0.02945308 -0.00556563
v 0.04959479 0.02989198 -0.00522732
v 0.04989192 0.03062346 -0.00550630
v 0.05014177 0.03018980 -0.00489407
v 0.05093186 0.03073319 -0.00431970
v 0.05223743 0.03253055 -0.00360143
v 0.05537078 0.03833020 -0.00329216
v 0.05315582 0.03397263 -0.00320885
v 0.05527174 0.03742629 -0.00164608
v 0.05534602 0.03728522 -0.00095558
v 0.05332014 0.03365913 -0.00164608
v 0.05144284 0.03009052 -0.00164608
v 0.05164092 0.03009052 -0.00054784
v 0.05317608 0.03283360 0.00000632
v 0.05163192 0.03009052 0.00054786
v 0.05429481 0.03499671 0.00010100
v 0.05644899 0.03947446 0.00101619
v 0.05315357 0.03398308 0.00316090
v 0.05536402 0.03834065 0.00326693
v 0.05541130 0.03715460 -0.00022216
v 0.05652552 0.03931248 -0.00028528
v 0.05976467 0.04821572 0.00000001
v 0.05712428 0.04107850 0.00054786
v 0.05668760 0.03989767 0.00060972
v 0.05577595 0.03989767 0.00393723
v 0.05644224 0.04060304 0.00316469
v 0.05552384 0.04020072 0.00457724
v 0.05443662 0.03998127 0.00566032
v 0.05043665 0.03238426 0.00580170
v 0.05042990 0.03338744 0.00610593
v 0.04933143 0.03229021 0.00632305
v 0.04933143 0.03338744 0.00639248
v 0.04234892 0.02569638 0.00644802
v 0.04234892 0.02569638 -0.00644800
v 0.04823070 0.03119298 -0.00638362
v 0.04493528 0.02679361 -0.00631167
v 0.04603375 0.02789606 -0.00628137
v 0.04713223 0.02899329 -0.00624729
v 0.04823070 0.03009052 -0.00620563
v 0.04712547 0.02792219 -0.00583072
v 0.04819694 0.02905077 -0.00578023
v 0.04675406 0.02715413 -0.00564389
v 0.04926840 0.03018980 -0.00571458
v 0.05003823 0.03119298 -0.00566157
v 0.05100164 0.03279702 -0.00551640
v 0.05081256 0.03206031 -0.00529423
v 0.05112095 0.03146467 -0.00456207
v 0.05425205 0.03726954 -0.00436389
v 0.05555986 0.03906691 -0.00363804
v 0.05644449 0.04059781 -0.00317098
v 0.05628692 0.04001262 -0.00278092
v 0.05569041 0.03877432 -0.00285413
v 0.05645124 0.03947446 -0.00101743
v 0.05601455 0.03888404 -0.00164608
v 0.05545181 0.03817345 -0.00256001
v 0.05450415 0.03551920 -0.00051124
v 0.05317608 0.03283360 -0.00000883
v 0.05568591 0.03877954 0.00283900
v 0.05659305 0.04019549 0.00164610
v 0.05628242 0.04001262 0.00277715
v 0.05429481 0.03499671 -0.00012117
v 0.05668760 0.03989767 -0.00061096
v 0.05712878 0.04107850 -0.00054784
v 0.05744617 0.04197196 -0.00054784
v 0.05952607 0.04777161 -0.00043928
v 0.06088565 0.05143949 -0.00012117
v 0.06088565 0.05143949 0.00011236
v 0.05627117 0.04101058 0.00386149
v 0.06140113 0.05315326 0.00054786
v 0.06110850 0.05304876 0.00174582
v 0.06098920 0.05334136 0.00274433
v 0.05755872 0.04385293 0.00325179
v 0.05657055 0.04133452 0.00350930
v 0.05637696 0.04188836 0.00424146
v 0.05650527 0.04261985 0.00443838
v 0.05569041 0.04107850 0.00478931
v 0.05523347 0.04107850 0.00533717
v 0.05373207 0.03897286 0.00580297
v 0.05535277 0.04168459 0.00546845
v 0.05468423 0.04107850 0.00586735
v 0.05372532 0.03998127 0.00610719
v 0.05042990 0.03448467 0.00632179
v 0.05372532 0.04107850 0.00631926
v 0.05262685 0.03998127 0.00639248
v 0.05152837 0.03778159 0.00639248
v 0.04234892 0.02679361 0.00641899
v 0.05372532 0.04218096 0.00639122
v 0.05372532 0.04327819 0.00639626
v 0.05701624 0.05205603 0.00639374
v 0.05811471 0.05534772 0.00639374
v 0.05811471 0.05645018 0.00639626
v 0.05921318 0.06084432 0.00639626
v 0.06141013 0.07073507 0.00639626
v 0.06141013 0.07413126 0.00639626
v 0.06041070 0.07413126 0.00636218
v 0.06031166 0.07413126 0.00635839
v 0.04234892 0.02679361 -0.00641897
v 0.06031166 0.07413126 -0.00635838
v 0.06141013 0.07413126 -0.00639751
v 0.06141013 0.07073507 -0.00639751
v 0.05921318 0.06084432 -0.00639751
v 0.05811471 0.05645018 -0.00639751
v 0.05811471 0.05534772 -0.00639498
v 0.05372532 0.04327819 -0.00639625
v 0.05372532 0.04218096 -0.00639120
v 0.05262685 0.03998127 -0.00639246
v 0.05152837 0.03778159 -0.00639246
v 0.04933143 0.03338744 -0.00639246
v 0.04933143 0.03229021 -0.00632429
v 0.04933143 0.03119298 -0.00610086
v 0.05043890 0.03237381 -0.00581052
v 0.05115021 0.03338744 -0.00566914
v 0.05210237 0.03498626 -0.00551892
v 0.05443887 0.03800626 -0.00458101
v 0.05222842 0.03364346 -0.00457217
v 0.05535502 0.03946401 -0.00437020
v 0.05577820 0.03989245 -0.00393974
v 0.05627342 0.04101058 -0.00386652
v 0.05657280 0.04132930 -0.00351560
v 0.05756097 0.04384248 -0.00326818
v 0.06040620 0.05095358 -0.00164608
v 0.05998076 0.04977797 -0.00170667
v 0.05982545 0.04914053 -0.00137972
v 0.05870446 0.04591677 -0.00128631
v 0.05691719 0.04107850 -0.00164608
v 0.05651652 0.04039926 -0.00243756
v 0.05758123 0.04268777 -0.00117018
v 0.06024413 0.04985635 -0.00054784
v 0.06066506 0.05102672 -0.00051124
v 0.06140563 0.05315326 -0.00054784
v 0.06197963 0.05473118 -0.00009467
v 0.06197963 0.05473118 0.00009468
v 0.06178379 0.05432364 0.00049485
v 0.06152718 0.05425049 0.00164610
v 0.06129083 0.05425049 0.00274433
v 0.06090591 0.05357648 0.00339191
v 0.05867295 0.04709759 0.00331490
v 0.06072809 0.05425049 0.00416319
v 0.05971965 0.05163281 0.00432856
v 0.05985021 0.05235908 0.00449140
v 0.05547657 0.04241608 0.00561867
v 0.05562063 0.04327819 0.00577015
v 0.05580747 0.04437542 0.00589512
v 0.05482154 0.04327819 0.00622206
v 0.05482154 0.04437542 0.00634703
v 0.04234892 0.02797444 0.00601756
v 0.05940677 0.07413126 0.00594687
v 0.05931898 0.07413126 0.00590522
v 0.05591776 0.04766188 0.00635208
v 0.05701624 0.05095358 0.00635587
v 0.05811471 0.05425049 0.00635966
v 0.05921318 0.05864464 0.00637102
v 0.05921318 0.05974709 0.00639248
v 0.06031166 0.06523847 0.00639500
v 0.06141013 0.06963784 0.00638869
v 0.06251086 0.07413126 0.00612739
v 0.06150917 0.07413126 0.00637481
v 0.04234892 0.02732655 -0.00624098
v 0.05931448 0.07413126 -0.00590646
v 0.06251086 0.07413126 -0.00614378
v 0.06141013 0.06963784 -0.00638867
v 0.06031166 0.06523847 -0.00639498
v 0.05921318 0.05974709 -0.00639246
v 0.05921318 0.05864464 -0.00637100
v 0.05811471 0.05425049 -0.00636216
v 0.05482154 0.04547265 -0.00639246
v 0.05701624 0.05095358 -0.00635838
v 0.05591776 0.04766188 -0.00635459
v 0.05482154 0.04437542 -0.00634954
v 0.05372532 0.04107850 -0.00632051
v 0.05262685 0.03888404 -0.00632303
v 0.05042990 0.03448467 -0.00632556
v 0.05042990 0.03338744 -0.00611727
v 0.05154188 0.03456827 -0.00581305
v 0.05225093 0.03558712 -0.00567040
v 0.05334716 0.03778159 -0.00566788
v 0.05429481 0.03939086 -0.00551514
v 0.05459419 0.03896764 -0.00494582
v 0.05505564 0.03989245 -0.00494330
v 0.05552384 0.04019549 -0.00457722
v 0.05638146 0.04187269 -0.00424775
v 0.05961611 0.05095358 -0.00412783
v 0.05990198 0.05095358 -0.00357745
v 0.06090816 0.05357125 -0.00339694
v 0.05979168 0.05032659 -0.00336159
v 0.05867745 0.04708714 -0.00332246
v 0.06099145 0.05333091 -0.00274431
v 0.06016309 0.05095358 -0.00274431
v 0.06081587 0.05164326 -0.00085207
v 0.06111075 0.05304354 -0.00175464
v 0.06094193 0.05237475 -0.00145799
v 0.06129533 0.05425049 -0.00274431
v 0.06152718 0.05425049 -0.00164608
v 0.06178604 0.05432364 -0.00049483
v 0.06158570 0.05534772 -0.00274431
v 0.06190759 0.05504990 -0.00082682
v 0.06204490 0.05538952 -0.00049483
v 0.06226100 0.05645018 -0.00054784
v 0.06422159 0.06549972 -0.00031936
v 0.06226100 0.05645018 0.00054786
v 0.06204490 0.05538952 0.00049485
v 0.06190759 0.05504990 0.00082684
v 0.06158570 0.05534772 0.00274433
v 0.06422159 0.06549972 0.00031938
v 0.06102071 0.05425049 0.00361408
v 0.06083613 0.05491928 0.00435381
v 0.06010907 0.05432364 0.00497992
v 0.05978493 0.05474163 0.00551515
v 0.05895882 0.05315326 0.00579666
v 0.05691719 0.04766188 0.00590017
v 0.05811471 0.05205603 0.00605796
v 0.05811471 0.05315326 0.00624983
v 0.04234892 0.02998602 0.00472367
v 0.05881926 0.07413126 0.00542300
v 0.05877199 0.07413126 0.00537504
v 0.05831504 0.07413126 0.00487389
v 0.05827228 0.07413126 0.00482466
v 0.05777031 0.07413126 0.00420737
v 0.05772304 0.07413126 0.00414678
v 0.05741916 0.07413126 0.00359767
v 0.05921318 0.05645018 0.00621701
v 0.05921318 0.05754741 0.00631295
v 0.06031166 0.06304401 0.00633694
v 0.06141013 0.06853539 0.00635461
v 0.06031166 0.06414124 0.00638112
v 0.06251086 0.07183230 0.00609078
v 0.06251086 0.07402676 0.00612612
v 0.06257388 0.07413126 0.00608826
v 0.04234892 0.02797444 -0.00601628
v 0.05876524 0.07413126 -0.00538259
v 0.06323117 0.07413126 -0.00569060
v 0.06251086 0.07293476 -0.00612106
v 0.06141013 0.06853539 -0.00635459
v 0.06031166 0.06414124 -0.00638110
v 0.06251086 0.07183230 -0.00609707
v 0.05921318 0.05754741 -0.00631293
v 0.06031166 0.06304401 -0.00633692
v 0.05921318 0.05645018 -0.00621699
v 0.05811471 0.05315326 -0.00625486
v 0.05701624 0.04985635 -0.00624729
v 0.05591776 0.04656988 -0.00623845
v 0.05482154 0.04327819 -0.00622709
v 0.05372532 0.03998127 -0.00611348
v 0.05262685 0.03778159 -0.00611601
v 0.05152837 0.03558712 -0.00611853
v 0.05373883 0.03896764 -0.00580926
v 0.05444113 0.03998127 -0.00566662
v 0.05523572 0.04107850 -0.00533967
v 0.05569492 0.04107850 -0.00479182
v 0.05650977 0.04260418 -0.00444594
v 0.05749794 0.04511735 -0.00427931
v 0.05973090 0.05160669 -0.00433990
v 0.06073034 0.05425049 -0.00416696
v 0.06102071 0.05425049 -0.00361658
v 0.06199313 0.05794973 -0.00337043
v 0.06191660 0.05721301 -0.00306620
v 0.06416306 0.06797110 -0.00330226
v 0.06198638 0.05578139 -0.00122067
v 0.06439266 0.06853539 -0.00274431
v 0.06460876 0.06853539 -0.00164608
v 0.06482035 0.06853539 -0.00054784
v 0.06503869 0.06963784 -0.00054784
v 0.06198638 0.05578139 0.00122069
v 0.06460876 0.06853539 0.00164610
v 0.06439266 0.06853539 0.00274433
v 0.06416306 0.06797110 0.00330228
v 0.06191660 0.05721301 0.00306622
v 0.06199313 0.05794973 0.00337045
v 0.06503869 0.06963784 0.00054786
v 0.06482035 0.06853539 0.00054786
v 0.06113776 0.05531115 0.00393092
v 0.06049173 0.05531115 0.00487263
v 0.05987047 0.05534772 0.00561740
v 0.06178829 0.05864464 0.00407735
v 0.06188508 0.05955377 0.00426292
v 0.06196387 0.06029048 0.00439546
v 0.06091717 0.05564554 0.00446110
v 0.05925820 0.05432364 0.00583831
v 0.05921318 0.05534772 0.00606680
v 0.04234892 0.03409803 0.00024743
v 0.05717606 0.07413126 0.00281881
v 0.06012258 0.05754741 0.00586103
v 0.06125706 0.06304401 0.00588502
v 0.06141013 0.06634093 0.00617409
v 0.06031166 0.06194156 0.00625236
v 0.06141013 0.06743816 0.00628265
v 0.06251086 0.07073507 0.00604912
v 0.06317714 0.07183230 0.00563634
v 0.06320865 0.07402676 0.00567421
v 0.06321090 0.07413126 0.00567547
v 0.04234892 0.02998080 -0.00471355
v 0.05769378 0.07413126 -0.00409879
v 0.05772079 0.07413126 -0.00414803
v 0.05826778 0.07413126 -0.00483221
v 0.05872022 0.07413126 -0.00533336
v 0.06373313 0.07413126 -0.00508089
v 0.06322891 0.07402676 -0.00568934
v 0.06141013 0.06743816 -0.00628264
v 0.06251086 0.07073507 -0.00605163
v 0.06320865 0.07293476 -0.00566914
v 0.06318614 0.07183230 -0.00564389
v 0.06031166 0.06194156 -0.00625234
v 0.06141013 0.06634093 -0.00617407
v 0.06125706 0.06304401 -0.00588500
v 0.06012258 0.05754741 -0.00586102
v 0.05921318 0.05534772 -0.00606804
v 0.05811471 0.05205603 -0.00607183
v 0.05563189 0.04327819 -0.00577518
v 0.05468648 0.04107850 -0.00586859
v 0.05591776 0.04547265 -0.00604658
v 0.05535502 0.04167937 -0.00547095
v 0.05593127 0.04213916 -0.00495971
v 0.05874048 0.04908828 -0.00448633
v 0.05985471 0.05233818 -0.00450022
v 0.06083613 0.05491928 -0.00435379
v 0.06113776 0.05531115 -0.00393090
v 0.06206741 0.05864464 -0.00352822
v 0.06311637 0.06332615 -0.00342345
v 0.06422159 0.06853539 -0.00343481
v 0.06462451 0.06963784 -0.00274431
v 0.06483611 0.06963784 -0.00164608
v 0.06477758 0.07073507 -0.00274431
v 0.06497792 0.07073507 -0.00164608
v 0.06518050 0.07070895 -0.00047715
v 0.06526829 0.07105902 -0.00006184
v 0.06462451 0.06963784 0.00274433
v 0.06422159 0.06853539 0.00343483
v 0.06311637 0.06332615 0.00342346
v 0.06206741 0.05864464 0.00352824
v 0.06517825 0.07070895 0.00047591
v 0.06497567 0.07073507 0.00164610
v 0.06483611 0.06963784 0.00164610
v 0.06526829 0.07105902 0.00005934
v 0.06055476 0.05645018 0.00511499
v 0.06000327 0.05645018 0.00576510
v 0.06320415 0.06414124 0.00360145
v 0.06292278 0.06414124 0.00415183
v 0.06405952 0.06963784 0.00422000
v 0.06300832 0.06493543 0.00430836
v 0.06308710 0.06566691 0.00442576
v 0.06327618 0.06743816 0.00465803
v 0.06100495 0.05645018 0.00456588
v 0.04234892 0.03409803 0.00004545
v 0.05715580 0.07413126 0.00274433
v 0.05693970 0.07413126 0.00174456
v 0.05691945 0.07413126 0.00164610
v 0.05669435 0.07413126 0.00054786
v 0.06114001 0.06194156 0.00579918
v 0.06227675 0.06743816 0.00583074
v 0.06239380 0.06853539 0.00590269
v 0.06259639 0.06963262 0.00587618
v 0.06314563 0.07073507 0.00559721
v 0.06415857 0.07130459 0.00439168
v 0.06421034 0.07413126 0.00445353
v 0.04234892 0.03394128 -0.00058571
v 0.05742366 0.07413126 -0.00359765
v 0.06378040 0.07413126 -0.00502282
v 0.06239380 0.06853539 -0.00590267
v 0.06259639 0.06963262 -0.00587616
v 0.06314563 0.07073507 -0.00559845
v 0.06376014 0.07293476 -0.00499127
v 0.06373538 0.07183230 -0.00496223
v 0.06416306 0.07124711 -0.00439671
v 0.06227675 0.06743816 -0.00583072
v 0.06000327 0.05645018 -0.00576508
v 0.06114001 0.06194156 -0.00579916
v 0.05926271 0.05432364 -0.00584082
v 0.05896783 0.05315326 -0.00580169
v 0.05548107 0.04240563 -0.00562370
v 0.05675062 0.04656988 -0.00578654
v 0.05656154 0.04547265 -0.00559971
v 0.05785810 0.04985635 -0.00579411
v 0.05646925 0.04492403 -0.00549241
v 0.05999427 0.05315326 -0.00465927
v 0.05855590 0.05072890 -0.00536618
v 0.05978493 0.05473641 -0.00551766
v 0.05987272 0.05534772 -0.00561865
v 0.06049398 0.05531115 -0.00487261
v 0.06091717 0.05564554 -0.00446109
v 0.06196387 0.06029048 -0.00439544
v 0.06188283 0.05955900 -0.00426290
v 0.06178829 0.05864464 -0.00407734
v 0.06011132 0.05432364 -0.00498243
v 0.06320415 0.06414124 -0.00360143
v 0.06433864 0.06963784 -0.00367213
v 0.06436565 0.07082390 -0.00392712
v 0.06446470 0.07183230 -0.00384507
v 0.06483611 0.07183230 -0.00274431
v 0.06503194 0.07183230 -0.00164608
v 0.06522102 0.07293476 -0.00087858
v 0.06519401 0.07183230 -0.00072205
v 0.06531331 0.07293476 -0.00032820
v 0.06534483 0.07413126 0.00034968
v 0.06433864 0.06963784 0.00367214
v 0.06477308 0.07073507 0.00274433
v 0.06531331 0.07293476 0.00030171
v 0.06534033 0.07402676 0.00043804
v 0.06482710 0.07183230 0.00274433
v 0.06067181 0.05754741 0.00525890
v 0.06078886 0.05864464 0.00540154
v 0.06093067 0.05997699 0.00557448
v 0.06102296 0.06084432 0.00568178
v 0.06215970 0.06634093 0.00572218
v 0.06344276 0.06963262 0.00502411
v 0.06339323 0.06853539 0.00480067
v 0.06413830 0.07073507 0.00435885
v 0.06302183 0.06926165 0.00544573
v 0.06294529 0.06853539 0.00534979
v 0.06157445 0.06084432 0.00501779
v 0.04234892 0.03409280 -0.00024741
v 0.05669885 0.07413126 -0.00054784
v 0.06309836 0.06999836 0.00554040
v 0.06367235 0.07073507 0.00494332
v 0.06441518 0.07073507 0.00381100
v 0.06439492 0.07173825 0.00395365
v 0.06454123 0.07402676 0.00384508
v 0.06454348 0.07413126 0.00384508
v 0.05690819 0.07413126 -0.00154888
v 0.05716480 0.07413126 -0.00274431
v 0.05740115 0.07413126 -0.00352569
v 0.06422159 0.07413126 -0.00447371
v 0.06422159 0.07402676 -0.00447118
v 0.06309836 0.06999836 -0.00554038
v 0.06377140 0.07082390 -0.00483474
v 0.06413155 0.07051563 -0.00434874
v 0.06456149 0.07413126 -0.00384507
v 0.06215970 0.06634093 -0.00572216
v 0.06055251 0.05645018 -0.00511498
v 0.06102296 0.06084432 -0.00568050
v 0.06093067 0.05998221 -0.00557447
v 0.06078661 0.05864464 -0.00540153
v 0.05878100 0.05205603 -0.00562243
v 0.05767352 0.04876434 -0.00561107
v 0.05867970 0.05146039 -0.00551009
v 0.05966113 0.05400492 -0.00537502
v 0.06100495 0.05645018 -0.00456586
v 0.06302183 0.06926165 -0.00544571
v 0.06339323 0.06853539 -0.00480065
v 0.06308710 0.06567214 -0.00442574
v 0.06300607 0.06493543 -0.00430708
v 0.06292278 0.06414124 -0.00415181
v 0.06405727 0.06963784 -0.00421998
v 0.06494190 0.07413126 -0.00274431
v 0.06516025 0.07413126 -0.00154888
v 0.06524128 0.07381777 -0.00100229
v 0.06532457 0.07413126 -0.00060086
v 0.06534033 0.07413126 0.00045697
v 0.06487437 0.07293476 0.00274433
v 0.06494415 0.07413126 0.00263703
v 0.06189859 0.06388522 0.00541543
v 0.06204265 0.06523847 0.00558963
v 0.06492389 0.07413126 0.00274433
v 0.06344276 0.06963262 -0.00502409
v 0.06204040 0.06523847 -0.00558961
f 1 2 9
f 1 9 20
f 1 20 37
f 1 37 62
f 1 62 90
f 1 90 125
f 1 125 138
f 1 138 180
f 1 180 233
f 1 233 293
f 1 293 360
f 1 360 427
f 1 427 490
f 1 490 557
f 1 557 502
f 1 502 438
f 1 438 376
f 1 376 305
f 1 305 244
f 1 244 181
f 1 181 139
f 1 139 104
f 1 104 70
f 1 70 69
f 1 69 42
f 1 42 22
f 1 22 10
f 1 10 3
f 1 3 4
f 1 4 5
f 1 5 6
f 1 6 7
f 1 7 2
f 2 7 8
f 2 8 9
f 3 10 11
f 3 11 4
f 4 11 12
f 4 12 13
f 4 13 14
f 4 14 5
f 5 14 15
f 5 15 16
f 5 16 17
f 5 17 6
f 6 18 7
f 6 17 18
f 7 18 17
f 7 17 19
f 7 19 8
f 8 19 9
f 9 19 21
f 9 21 20
f 10 22 23
f 10 23 24
f 10 24 11
f 11 24 12
f 12 25 26
f 12 26 27
f 12 27 28
f 12 28 14
f 12 14 13
f 12 24 25
f 14 28 29
f 14 29 30
f 14 30 52
f 14 52 53
f 14 53 31
f 14 31 15
f 15 32 16
f 15 31 33
f 15 33 32
f 16 32 17
f 17 32 34
f 17 34 19
f 19 34 35
f 19 35 36
f 19 36 21
f 20 21 37
f 21 36 38
f 21 38 39
f 21 39 40
f 21 40 41
f 21 41 37
f 22 42 25
f 22 25 23
f 23 25 24
f 25 43 44
f 25 44 45
f 25 45 26
f 25 42 46
f 25 46 43
f 26 45 47
f 26 47 48
f 26 48 49
f 26 49 27
f 27 49 50
f 27 50 28
f 28 50 29
f 29 50 51
f 29 51 30
f 30 51 52
f 31 53 33
f 32 33 54
f 32 54 34
f 33 53 55
f 33 55 56
f 33 56 57
f 33 57 54
f 34 54 58
f 34 58 59
f 34 59 60
f 34 60 35
f 35 61 38
f 35 38 36
f 35 60 61
f 37 41 62
f 38 63 39
f 38 61 60
f 38 60 59
f 38 59 64
f 38 64 65
f 38 65 63
f 39 63 66
f 39 66 40
f 40 66 67
f 40 67 68
f 40 68 41
f 41 68 62
f 42 69 43
f 42 43 46
f 43 69 70
f 43 70 71
f 43 71 72
f 43 72 73
f 43 73 74
f 43 74 44
f 44 74 45
f 45 74 75
f 45 75 47
f 47 75 76
f 47 76 48
f 48 77 50
f 48 50 49
f 48 76 78
f 48 78 79
f 48 79 80
f 48 80 81
f 48 81 77
f 50 77 51
f 51 77 82
f 51 82 83
f 51 83 55
f 51 55 53
f 51 53 52
f 54 57 58
f 55 83 56
f 56 83 57
f 57 83 84
f 57 84 85
f 57 85 58
f 58 85 86
f 58 86 87
f 58 87 88
f 58 88 89
f 58 89 59
f 59 89 64
f 62 68 90
f 63 65 66
f 64 89 91
f 64 91 65
f 65 88 87
f 65 87 92
f 65 92 93
f 65 93 94
f 65 94 95
f 65 95 96
f 65 96 97
f 65 97 67
f 65 67 98
f 65 98 66
f 65 91 88
f 66 98 67
f 67 99 100
f 67 100 68
f 67 97 101
f 67 101 99
f 68 100 102
f 68 102 103
f 68 103 90
f 70 104 71
f 71 104 105
f 71 105 72
f 72 105 106
f 72 106 107
f 72 107 73
f 73 107 108
f 73 108 74
f 74 108 109
f 74 109 110
f 74 110 75
f 75 110 76
f 76 110 78
f 77 81 82
f 78 111 79
f 78 110 111
f 79 111 112
f 79 112 80
f 80 112 113
f 80 113 114
f 80 114 115
f 80 115 116
f 80 116 117
f 80 117 81
f 81 117 82
f 82 117 118
f 82 118 119
f 82 119 83
f 83 119 120
f 83 120 84
f 84 120 85
f 85 120 86
f 86 121 122
f 86 122 92
f 86 92 87
f 86 120 123
f 86 123 124
f 86 124 121
f 88 91 89
f 90 103 125
f 92 122 93
f 93 126 95
f 93 95 94
f 93 122 127
f 93 127 128
f 93 128 126
f 95 129 97
f 95 97 96
f 95 126 128
f 95 128 130
f 95 130 131
f 95 131 132
f 95 132 133
f 95 133 129
f 97 129 101
f 99 101 134
f 99 134 100
f 100 134 135
f 100 135 136
f 100 136 102
f 101 129 134
f 102 136 137
f 102 137 138
f 102 138 125
f 102 125 103
f 104 139 140
f 104 140 105
f 105 140 141
f 105 141 142
f 105 142 106
f 106 142 143
f 106 143 144
f 106 144 145
f 106 145 107
f 107 145 109
f 107 109 108
f 109 145 146
f 109 146 110
f 110 146 147
f 110 147 111
f 111 147 148
f 111 148 149
f 111 149 150
f 111 150 151
f 111 151 152
f 111 152 112
f 112 152 113
f 113 152 153
f 113 153 154
f 113 154 155
f 113 155 114
f 114 155 156
f 114 156 157
f 114 157 115
f 115 157 158
f 115 158 116
f 116 159 117
f 116 158 159
f 117 159 160
f 117 160 118
f 118 160 119
f 119 160 161
f 119 161 162
f 119 162 120
f 120 162 161
f 120 161 163
f 120 163 123
f 121 124 164
f 121 164 165
f 121 165 122
f 122 165 166
f 122 166 127
f 123 163 161
f 123 161 204
f 123 204 167
f 123 167 168
f 123 168 124
f 124 168 169
f 124 169 170
f 124 170 171
f 124 171 164
f 127 172 128
f 127 166 173
f 127 173 172
f 128 172 174
f 128 174 130
f 129 133 134
f 130 175 131
f 130 174 175
f 131 175 132
f 132 176 133
f 132 175 176
f 133 176 177
f 133 177 178
f 133 178 134
f 134 178 137
f 134 137 135
f 135 137 136
f 137 178 179
f 137 179 180
f 137 180 138
f 139 181 141
f 139 141 140
f 141 181 182
f 141 182 183
f 141 183 142
f 142 183 184
f 142 184 185
f 142 185 186
f 142 186 143
f 143 187 144
f 143 186 187
f 144 187 188
f 144 188 189
f 144 189 146
f 144 146 145
f 146 189 148
f 146 148 147
f 148 189 188
f 148 188 190
f 148 190 150
f 148 150 149
f 150 152 151
f 150 190 191
f 150 191 192
f 150 192 193
f 150 193 194
f 150 194 152
f 152 194 195
f 152 195 154
f 152 154 153
f 154 195 196
f 154 196 197
f 154 197 198
f 154 198 199
f 154 199 200
f 154 200 201
f 154 201 202
f 154 202 156
f 154 156 155
f 156 202 201
f 156 201 200
f 156 200 168
f 156 168 157
f 157 168 167
f 157 167 203
f 157 203 158
f 158 203 159
f 159 203 160
f 160 204 161
f 160 203 204
f 164 205 165
f 164 171 206
f 164 206 173
f 164 173 207
f 164 207 205
f 165 205 166
f 166 205 207
f 166 207 173
f 167 208 203
f 167 204 208
f 168 200 209
f 168 209 210
f 168 210 169
f 169 210 211
f 169 211 212
f 169 212 213
f 169 213 214
f 169 214 173
f 169 173 170
f 170 173 206
f 170 206 171
f 172 173 215
f 172 215 174
f 173 214 216
f 173 216 217
f 173 217 218
f 173 218 219
f 173 219 220
f 173 220 215
f 174 215 221
f 174 221 222
f 174 222 223
f 174 223 224
f 174 224 175
f 175 225 176
f 175 224 226
f 175 226 227
f 175 227 225
f 176 225 227
f 176 227 177
f 177 228 178
f 177 227 228
f 178 228 229
f 178 229 230
f 178 230 231
f 178 231 232
f 178 232 179
f 179 232 180
f 180 232 231
f 180 231 234
f 180 234 235
f 180 235 236
f 180 236 237
f 180 237 238
f 180 238 239
f 180 239 240
f 180 240 241
f 180 241 242
f 180 242 243
f 180 243 233
f 181 244 245
f 181 245 246
f 181 246 247
f 181 247 248
f 181 248 249
f 181 249 250
f 181 250 251
f 181 251 252
f 181 252 253
f 181 253 254
f 181 254 255
f 181 255 182
f 182 255 256
f 182 256 186
f 182 186 185
f 182 185 184
f 182 184 183
f 186 188 187
f 186 256 257
f 186 257 190
f 186 190 188
f 190 257 191
f 191 257 258
f 191 258 259
f 191 259 192
f 192 259 260
f 192 260 261
f 192 261 195
f 192 195 262
f 192 262 193
f 193 262 194
f 194 262 195
f 195 261 263
f 195 263 196
f 196 263 264
f 196 264 197
f 197 265 266
f 197 266 267
f 197 267 268
f 197 268 269
f 197 269 270
f 197 270 271
f 197 271 272
f 197 272 273
f 197 273 200
f 197 200 198
f 197 264 265
f 198 200 199
f 200 273 209
f 203 208 204
f 209 273 272
f 209 272 210
f 210 272 274
f 210 274 211
f 211 274 212
f 212 271 275
f 212 275 213
f 212 274 271
f 213 275 276
f 213 276 277
f 213 277 278
f 213 278 279
f 213 279 214
f 214 279 216
f 215 220 221
f 216 279 280
f 216 280 281
f 216 281 282
f 216 282 217
f 217 282 218
f 218 282 283
f 218 283 284
f 218 284 219
f 219 284 220
f 220 284 283
f 220 283 221
f 221 283 285
f 221 285 286
f 221 286 222
f 222 286 287
f 222 287 223
f 223 226 224
f 223 287 226
f 226 288 227
f 226 287 288
f 227 288 289
f 227 289 290
f 227 290 291
f 227 291 230
f 227 230 228
f 228 230 229
f 230 291 292
f 230 292 234
f 230 234 231
f 233 243 294
f 233 294 295
f 233 295 293
f 234 292 296
f 234 296 297
f 234 297 298
f 234 298 236
f 234 236 235
f 236 298 237
f 237 298 299
f 237 299 300
f 237 300 301
f 237 301 239
f 237 239 238
f 239 301 240
f 240 301 302
f 240 302 303
f 240 303 304
f 240 304 241
f 241 304 303
f 241 303 375
f 241 375 437
f 241 437 501
f 241 501 564
f 241 564 599
f 241 599 596
f 241 596 594
f 241 594 540
f 241 540 593
f 241 593 591
f 241 591 590
f 241 590 573
f 241 573 568
f 241 568 504
f 241 504 443
f 241 443 378
f 241 378 307
f 241 307 246
f 241 246 245
f 241 245 306
f 241 306 377
f 241 377 442
f 241 442 441
f 241 441 440
f 241 440 439
f 241 439 503
f 241 503 567
f 241 567 566
f 241 566 565
f 241 565 558
f 241 558 494
f 241 494 493
f 241 493 492
f 241 492 491
f 241 491 428
f 241 428 367
f 241 367 366
f 241 366 365
f 241 365 364
f 241 364 363
f 241 363 362
f 241 362 361
f 241 361 295
f 241 295 294
f 241 294 243
f 241 243 242
f 244 305 306
f 244 306 245
f 246 307 247
f 247 308 309
f 247 309 250
f 247 250 248
f 247 307 308
f 248 250 249
f 250 309 310
f 250 310 311
f 250 311 312
f 250 312 313
f 250 313 251
f 251 313 252
f 252 313 312
f 252 312 314
f 252 314 315
f 252 315 316
f 252 316 317
f 252 317 318
f 252 318 319
f 252 319 253
f 253 319 254
f 254 319 255
f 255 319 256
f 256 319 320
f 256 320 257
f 257 320 258
f 258 320 321
f 258 321 259
f 259 321 322
f 259 322 260
f 260 322 323
f 260 323 324
f 260 324 325
f 260 325 263
f 260 263 261
f 263 325 326
f 263 326 327
f 263 327 265
f 263 265 264
f 265 327 328
f 265 328 266
f 266 328 329
f 266 329 330
f 266 330 331
f 266 331 332
f 266 332 333
f 266 333 267
f 267 333 334
f 267 334 335
f 267 335 268
f 268 336 269
f 268 335 337
f 268 337 338
f 268 338 336
f 269 336 270
f 270 336 271
f 271 336 275
f 271 274 272
f 275 336 276
f 276 336 277
f 277 338 337
f 277 337 339
f 277 339 340
f 277 340 341
f 277 341 278
f 277 336 338
f 278 341 340
f 278 340 342
f 278 342 343
f 278 343 344
f 278 344 345
f 278 345 346
f 278 346 351
f 278 351 279
f 279 347 348
f 279 348 349
f 279 349 350
f 279 350 281
f 279 281 280
f 279 351 347
f 281 350 282
f 282 352 283
f 282 350 352
f 283 352 285
f 285 352 353
f 285 353 286
f 286 353 287
f 287 353 354
f 287 354 288
f 288 354 355
f 288 355 289
f 289 355 356
f 289 356 290
f 290 357 291
f 290 356 357
f 291 357 358
f 291 358 359
f 291 359 292
f 292 359 296
f 293 295 361
f 293 361 362
f 293 362 363
f 293 363 364
f 293 364 365
f 293 365 366
f 293 366 367
f 293 367 360
f 296 359 297
f 297 359 298
f 298 359 368
f 298 368 369
f 298 369 299
f 299 369 370
f 299 370 371
f 299 371 372
f 299 372 300
f 300 372 302
f 300 302 301
f 302 372 371
f 302 371 373
f 302 373 374
f 302 374 303
f 303 374 375
f 305 376 306
f 306 376 377
f 307 378 379
f 307 379 308
f 308 380 381
f 308 381 310
f 308 310 309
f 308 379 382
f 308 382 380
f 310 381 311
f 311 383 312
f 311 381 380
f 311 380 384
f 311 384 383
f 312 383 385
f 312 385 386
f 312 386 314
f 314 386 315
f 315 386 316
f 316 386 387
f 316 387 388
f 316 388 389
f 316 389 317
f 317 389 390
f 317 390 391
f 317 391 392
f 317 392 318
f 318 392 319
f 319 392 320
f 320 392 321
f 321 392 391
f 321 391 393
f 321 393 322
f 322 393 323
f 323 393 394
f 323 394 324
f 324 326 325
f 324 394 326
f 326 394 395
f 326 395 327
f 327 395 396
f 327 396 397
f 327 397 328
f 328 397 398
f 328 398 329
f 329 399 331
f 329 331 330
f 329 398 399
f 331 400 401
f 331 401 339
f 331 339 334
f 331 334 332
f 331 399 400
f 332 334 333
f 334 339 337
f 334 337 335
f 339 401 342
f 339 342 340
f 342 402 403
f 342 403 404
f 342 404 405
f 342 405 343
f 342 401 402
f 343 405 345
f 343 345 344
f 345 405 404
f 345 404 406
f 345 406 407
f 345 407 346
f 346 407 408
f 346 408 409
f 346 409 416
f 346 416 351
f 347 410 349
f 347 349 348
f 347 351 411
f 347 411 412
f 347 412 413
f 347 413 410
f 349 410 350
f 350 410 413
f 350 413 414
f 350 414 415
f 350 415 352
f 351 416 417
f 351 417 411
f 352 415 418
f 352 418 353
f 353 419 420
f 353 420 355
f 353 355 354
f 353 418 421
f 353 421 422
f 353 422 423
f 353 423 424
f 353 424 419
f 355 420 356
f 356 420 425
f 356 425 426
f 356 426 357
f 357 426 358
f 358 426 359
f 359 426 368
f 360 367 427
f 367 428 427
f 368 426 429
f 368 429 430
f 368 430 431
f 368 431 432
f 368 432 369
f 369 432 433
f 369 433 370
f 370 433 371
f 371 433 434
f 371 434 373
f 373 435 436
f 373 436 437
f 373 437 375
f 373 375 374
f 373 434 435
f 376 438 439
f 376 439 440
f 376 440 441
f 376 441 442
f 376 442 377
f 378 443 444
f 378 444 382
f 378 382 379
f 380 445 384
f 380 382 446
f 380 446 445
f 382 444 447
f 382 447 448
f 382 448 446
f 383 384 445
f 383 445 449
f 383 449 385
f 385 449 450
f 385 450 451
f 385 451 452
f 385 452 453
f 385 453 386
f 386 453 454
f 386 454 387
f 387 454 388
f 388 454 389
f 389 455 456
f 389 456 390
f 389 454 457
f 389 457 455
f 390 393 391
f 390 456 393
f 393 456 394
f 394 456 458
f 394 458 395
f 395 458 396
f 396 458 459
f 396 459 397
f 397 459 460
f 397 460 399
f 397 399 398
f 399 460 461
f 399 461 462
f 399 462 400
f 400 462 401
f 401 462 463
f 401 463 402
f 402 463 464
f 402 464 465
f 402 465 404
f 402 404 403
f 404 465 466
f 404 466 467
f 404 467 406
f 406 467 407
f 407 467 468
f 407 468 408
f 408 468 409
f 409 468 469
f 409 469 470
f 409 470 471
f 409 471 472
f 409 472 480
f 409 480 416
f 411 417 479
f 411 479 473
f 411 473 412
f 412 473 413
f 413 473 474
f 413 474 475
f 413 475 415
f 413 415 414
f 415 476 418
f 415 475 476
f 416 477 478
f 416 478 542
f 416 542 479
f 416 479 417
f 416 480 477
f 418 476 421
f 419 424 481
f 419 481 420
f 420 481 482
f 420 482 425
f 421 476 483
f 421 483 484
f 421 484 422
f 422 484 485
f 422 485 486
f 422 486 423
f 423 486 487
f 423 487 488
f 423 488 489
f 423 489 424
f 424 489 481
f 425 482 426
f 426 482 429
f 427 428 491
f 427 491 492
f 427 492 493
f 427 493 494
f 427 494 490
f 429 482 495
f 429 495 496
f 429 496 430
f 430 496 497
f 430 497 431
f 431 497 433
f 431 433 432
f 433 497 434
f 434 497 498
f 434 498 499
f 434 499 435
f 435 499 500
f 435 500 501
f 435 501 437
f 435 437 436
f 438 502 503
f 438 503 439
f 443 504 447
f 443 447 444
f 445 446 505
f 445 505 450
f 445 450 449
f 446 506 505
f 446 448 507
f 446 507 506
f 447 508 448
f 447 504 508
f 448 509 510
f 448 510 507
f 448 508 509
f 450 505 451
f 451 505 511
f 451 511 452
f 452 512 453
f 452 511 513
f 452 513 512
f 453 512 514
f 453 514 515
f 453 515 454
f 454 515 457
f 455 516 456
f 455 457 517
f 455 517 518
f 455 518 516
f 456 516 458
f 457 515 519
f 457 519 517
f 458 516 520
f 458 520 460
f 458 460 459
f 460 520 461
f 461 521 462
f 461 520 522
f 461 522 521
f 462 523 524
f 462 524 525
f 462 525 526
f 462 526 527
f 462 527 528
f 462 528 529
f 462 529 463
f 462 521 530
f 462 530 523
f 463 529 464
f 464 529 531
f 464 531 465
f 465 531 466
f 466 532 467
f 466 531 532
f 467 532 469
f 467 469 468
f 469 533 534
f 469 534 535
f 469 535 470
f 469 532 533
f 470 535 536
f 470 536 537
f 470 537 538
f 470 538 471
f 471 538 472
f 472 538 537
f 472 537 539
f 472 539 540
f 472 540 480
f 473 541 474
f 473 479 542
f 473 542 541
f 474 541 483
f 474 483 475
f 475 483 476
f 477 480 478
f 478 480 543
f 478 543 544
f 478 544 545
f 478 545 542
f 480 540 544
f 480 544 543
f 481 489 546
f 481 546 482
f 482 546 547
f 482 547 548
f 482 548 549
f 482 549 550
f 482 550 495
f 483 541 485
f 483 485 484
f 485 551 552
f 485 552 488
f 485 488 487
f 485 487 486
f 485 541 553
f 485 553 551
f 488 552 554
f 488 554 555
f 488 555 556
f 488 556 489
f 489 556 546
f 490 494 558
f 490 558 557
f 495 550 496
f 496 559 497
f 496 550 559
f 497 559 499
f 497 499 498
f 499 560 500
f 499 559 560
f 500 560 553
f 500 553 561
f 500 561 562
f 500 562 563
f 500 563 501
f 501 563 564
f 502 557 558
f 502 558 565
f 502 565 566
f 502 566 567
f 502 567 503
f 504 568 569
f 504 569 508
f 505 506 507
f 505 507 570
f 505 570 511
f 507 510 571
f 507 571 572
f 507 572 570
f 508 569 510
f 508 510 509
f 510 534 533
f 510 533 572
f 510 572 571
f 510 569 573
f 510 573 534
f 511 570 574
f 511 574 513
f 512 575 524
f 512 524 515
f 512 515 514
f 512 513 574
f 512 574 576
f 512 576 577
f 512 577 578
f 512 578 575
f 515 524 523
f 515 523 579
f 515 579 519
f 516 518 520
f 517 519 579
f 517 579 580
f 517 580 518
f 518 580 520
f 520 580 581
f 520 581 522
f 521 522 581
f 521 581 530
f 523 530 582
f 523 582 581
f 523 581 579
f 524 575 525
f 525 575 526
f 526 575 583
f 526 583 527
f 527 584 585
f 527 585 586
f 527 586 587
f 527 587 528
f 527 583 584
f 528 587 588
f 528 588 529
f 529 588 531
f 530 581 582
f 531 588 532
f 532 589 572
f 532 572 533
f 532 588 589
f 534 573 590
f 534 590 535
f 535 590 591
f 535 591 536
f 536 591 537
f 537 591 592
f 537 592 593
f 537 593 539
f 539 593 540
f 540 594 544
f 541 542 561
f 541 561 553
f 542 545 561
f 544 595 545
f 544 594 596
f 544 596 595
f 545 595 561
f 546 556 597
f 546 597 547
f 547 597 548
f 548 597 598
f 548 598 549
f 549 598 550
f 550 598 559
f 551 553 559
f 551 559 554
f 551 554 552
f 553 560 559
f 554 559 598
f 554 598 597
f 554 597 555
f 555 597 556
f 561 595 563
f 561 563 562
f 563 595 599
f 563 599 564
f 568 573 569
f 570 572 600
f 570 600 584
f 570 584 601
f 570 601 574
f 572 589 600
f 574 601 576
f 575 578 583
f 576 601 577
f 577 601 584
f 577 584 583
f 577 583 578
f 579 581 580
f 584 600 585
f 585 600 589
f 585 589 586
f 586 589 587
f 587 589 588
f 591 593 592
f 595 596 599

