# https://github.com/mikedh/trimesh
v -0.00890060 0.00978431 0.03987700
v -0.01879310 0.00978465 0.03626181
v -0.01000256 0.00978431 0.03972865
v -0.00947199 0.00628149 0.03964276
v -0.00890374 0.00628149 0.03971694
v -0.00890060 0.00628252 0.03971694
v -0.00890060 0.00978431 0.03385298
v -0.01908193 0.00978465 0.03614469
v -0.01171671 0.00978431 0.03919379
v -0.01124265 0.00978431 0.03938509
v -0.01069638 0.00978431 0.03960372
v -0.01031651 0.00978431 0.03967399
v -0.01879310 0.00978465 0.02935546
v -0.01055511 0.00753311 0.03955296
v -0.00984558 0.00628149 0.03959201
v -0.00890060 0.00628149 0.03970913
v -0.00890060 0.00628149 0.02145357
v -0.00907955 0.00628149 0.02050097
v -0.02324802 0.00628149 -0.00000726
v -0.03493945 0.00978465 -0.00000726
v -0.01879310 0.00640494 0.03610174
v -0.01879310 0.00921165 0.03623838
v -0.01878996 0.00978431 0.03626572
v -0.01339320 0.00978431 0.03850276
v -0.01220019 0.00978431 0.03899468
v -0.01989192 0.00978465 0.03579722
v -0.01989192 0.00628149 0.03562544
v -0.01267426 0.00628149 0.03863160
v -0.01220019 0.00628149 0.03882680
v -0.01106684 0.00628149 0.03928749
v -0.01065871 0.00921165 0.03959201
v -0.01082510 0.00628149 0.03936947
v -0.01035732 0.00628149 0.03952173
v -0.04081342 0.00628149 -0.00000726
v -0.04097039 0.00978465 -0.00000726
v -0.01869264 0.00628149 0.03613688
v -0.01887787 0.00628149 0.03605880
v -0.02028750 0.00978465 0.03559421
v -0.02061086 0.00628149 0.03527017
v -0.04097039 0.00975379 -0.00000726
v -0.04081342 0.00628149 0.00055103
v -0.04097353 0.00978465 0.00055103
v -0.02073958 0.00978465 0.03535606
v -0.02128899 0.00978465 0.03496174
v -0.02116027 0.00628149 0.03486414
v -0.04062505 0.00628149 0.00201897
v -0.04082912 0.00978465 0.00165198
v -0.02163119 0.00978465 0.03470017
v -0.02472672 0.00628149 0.03213127
v -0.04016982 0.00628149 0.00548581
v -0.03981820 0.00978465 0.00934305
v -0.02597309 0.00978465 0.03136607
v -0.02815817 0.00978465 0.02968731
v -0.02785050 0.00628149 0.02973026
v -0.03965809 0.00628149 0.00934305
v -0.03962041 0.00978465 0.01044011
v -0.02836224 0.00978465 0.02950772
v -0.02844700 0.00628149 0.02922272
v -0.02803259 0.00628149 0.02958580
v -0.03959216 0.00628149 0.00970614
v -0.03945716 0.00628149 0.01044011
v -0.03921856 0.00628149 0.01125216
v -0.03929077 0.00921165 0.01142003
v -0.03930332 0.00978465 0.01145517
v -0.02866049 0.00978465 0.02924224
v -0.02868874 0.00628149 0.02900800
v -0.03914635 0.00628149 0.01143565
v -0.03918717 0.00978465 0.01174017
v -0.02899641 0.00978465 0.02893772
v -0.02920048 0.00628149 0.02853170
v -0.03881671 0.00978465 0.01263811
v -0.03820451 0.00628149 0.01371174
v -0.02930094 0.00978465 0.02864882
v -0.02928525 0.00921165 0.02863320
v -0.02980012 0.00978465 0.02801245
v -0.02959919 0.00628149 0.02801636
v -0.03684197 0.00978465 0.01740502
v -0.03675721 0.00628149 0.01720200
v -0.03263507 0.00978465 0.02431918
v -0.03476050 0.00628149 0.02129350
v -0.03654058 0.00978465 0.01813118
v -0.03575257 0.00628149 0.01961864
v -0.03583106 0.00949592 0.01980604
v -0.03477934 0.00978465 0.02152384
v -0.03499910 0.00978465 0.02123494
v -0.03490178 0.00628149 0.02110610
v -0.03583734 0.00978465 0.01981775
v -0.03563641 0.00628149 0.01984508
v -0.03538526 0.00628149 0.02032138
v -0.03557048 0.00978465 0.02031747
f 1 2 3
f 1 3 4
f 1 4 5
f 1 5 6
f 1 6 16
f 1 16 17
f 1 17 7
f 1 7 13
f 1 13 2
f 2 8 9
f 2 9 10
f 2 10 11
f 2 11 12
f 2 12 3
f 2 13 20
f 2 20 35
f 2 35 42
f 2 42 47
f 2 47 51
f 2 51 56
f 2 56 64
f 2 64 68
f 2 68 71
f 2 71 77
f 2 77 81
f 2 81 87
f 2 87 90
f 2 90 85
f 2 85 84
f 2 84 79
f 2 79 75
f 2 75 73
f 2 73 69
f 2 69 65
f 2 65 57
f 2 57 53
f 2 53 52
f 2 52 48
f 2 48 44
f 2 44 43
f 2 43 38
f 2 38 26
f 2 26 8
f 3 12 14
f 3 14 4
f 4 14 15
f 4 15 33
f 4 33 32
f 4 32 30
f 4 30 29
f 4 29 28
f 4 28 36
f 4 36 37
f 4 37 27
f 4 27 39
f 4 39 45
f 4 45 49
f 4 49 54
f 4 54 59
f 4 59 58
f 4 58 66
f 4 66 70
f 4 70 76
f 4 76 80
f 4 80 86
f 4 86 89
f 4 89 88
f 4 88 82
f 4 82 78
f 4 78 72
f 4 72 67
f 4 67 62
f 4 62 61
f 4 61 60
f 4 60 55
f 4 55 50
f 4 50 46
f 4 46 41
f 4 41 34
f 4 34 19
f 4 19 18
f 4 18 17
f 4 17 16
f 4 16 5
f 5 16 6
f 7 17 18
f 7 18 19
f 7 19 20
f 7 20 13
f 8 21 22
f 8 22 23
f 8 23 24
f 8 24 25
f 8 25 9
f 8 26 27
f 8 27 21
f 9 25 28
f 9 28 29
f 9 29 30
f 9 30 10
f 10 31 11
f 10 30 31
f 11 31 12
f 12 31 14
f 14 32 33
f 14 33 15
f 14 31 30
f 14 30 32
f 19 34 40
f 19 40 35
f 19 35 20
f 21 36 28
f 21 28 22
f 21 27 37
f 21 37 36
f 22 28 24
f 22 24 23
f 24 28 25
f 26 38 39
f 26 39 27
f 34 41 42
f 34 42 40
f 35 40 42
f 38 43 39
f 39 43 44
f 39 44 45
f 41 46 42
f 42 46 47
f 44 48 45
f 45 48 49
f 46 50 47
f 47 50 51
f 48 52 49
f 49 52 53
f 49 53 54
f 50 55 51
f 51 55 56
f 53 57 58
f 53 58 59
f 53 59 54
f 55 60 56
f 56 60 61
f 56 61 62
f 56 62 63
f 56 63 64
f 57 65 66
f 57 66 58
f 62 67 63
f 63 67 68
f 63 68 64
f 65 69 66
f 66 69 70
f 67 71 68
f 67 72 71
f 69 73 74
f 69 74 70
f 70 74 75
f 70 75 76
f 71 72 77
f 72 78 77
f 73 75 74
f 75 79 80
f 75 80 76
f 77 78 81
f 78 82 83
f 78 83 81
f 79 84 80
f 80 84 85
f 80 85 86
f 81 83 87
f 82 88 83
f 83 88 89
f 83 89 90
f 83 90 87
f 85 90 86
f 86 90 89

