# https://github.com/mikedh/trimesh
v -0.02708020 0.10039188 0.03571398
v -0.02978358 0.10039188 0.03364050
v -0.02923054 0.09981319 0.03405659
v -0.02708020 0.09928961 0.03567552
v -0.02708020 0.10148497 0.03570699
v -0.02923407 0.10119103 0.03406009
v -0.03104693 0.10039188 0.03266844
v -0.03102573 0.09928961 0.03265096
v -0.02877291 0.09938146 0.03438527
v -0.02739648 0.09928961 0.03543425
v -0.02708020 0.09863743 0.03564055
v -0.02922700 0.10192588 0.03405309
v -0.02967050 0.10153090 0.03372092
v -0.02708020 0.10258724 0.03567552
v -0.03049565 0.10148497 0.03308803
v -0.03171305 0.10039188 0.03211947
v -0.03169362 0.09928961 0.03210200
v -0.03104516 0.10148497 0.03266495
v -0.03143035 0.09099500 0.03186422
v -0.03043558 0.09818733 0.03304258
v -0.02765798 0.09160125 0.03479438
v -0.02708020 0.06193171 0.03352511
v -0.03047798 0.10258724 0.03307405
v -0.02708020 0.10330372 0.03541677
v -0.02726573 0.10327616 0.03533285
v -0.03041967 0.10320268 0.03302859
v -0.03226080 0.10039188 0.03154603
v -0.03170952 0.10148497 0.03211598
v -0.03225727 0.10148497 0.03154603
v -0.03224313 0.09928961 0.03152505
v -0.03102749 0.10258724 0.03265096
v -0.03169362 0.10258724 0.03210200
v -0.03142682 0.07454356 0.03076280
v -0.02923937 0.02387571 0.02967186
v -0.02708197 0.01470847 0.03080126
v -0.02708020 0.01251311 0.03067538
v -0.03082253 0.10334965 0.03238871
v -0.03159644 0.10326698 0.03201458
v -0.02708020 0.10349662 0.03462653
v -0.02761204 0.10341395 0.03464402
v -0.03270606 0.10039188 0.03099707
v -0.03269016 0.09928961 0.03097609
v -0.03224313 0.10258724 0.03152855
v -0.03269193 0.10258724 0.03097609
v -0.03270430 0.10148497 0.03099357
v -0.03250110 0.09269434 0.03072783
v -0.03224666 0.08390370 0.03039915
v -0.02980302 0.00979417 0.02801447
v -0.03034193 0.04136512 0.02967885
v -0.02930475 0.00979417 0.02865085
v -0.02921464 0.02314087 0.02964738
v -0.02816332 0.00979417 0.02968584
v -0.02726573 0.00979417 0.03037467
v -0.02708020 0.01018915 0.03053901
v -0.02977828 0.10354255 0.03240620
v -0.03087554 0.10358847 0.03130827
v -0.03196749 0.10336802 0.03128379
v -0.03262832 0.10323024 0.03089917
v -0.02708020 0.10360685 0.03350763
v -0.02758024 0.10360685 0.03350763
v -0.03798031 0.10039188 0.02412625
v -0.03325381 0.10148497 0.03028027
v -0.03838494 0.09928961 0.02355281
v -0.03328738 0.09815059 0.03011243
v -0.03364430 0.10315675 0.02968934
v -0.03366373 0.10258724 0.02971382
v -0.03816230 0.09160125 0.02326609
v -0.03381745 0.06083863 0.02661933
v -0.03161058 0.02239683 0.02660884
v -0.03096035 0.00979417 0.02650744
v -0.03676644 0.00978498 0.01758412
v -0.02899730 0.00979417 0.02893757
v -0.02918637 0.02239683 0.02962290
v -0.02873227 0.01031775 0.02921730
v -0.02866336 0.00979417 0.02924178
v -0.02877291 0.01141084 0.02925576
v -0.02708020 0.00979417 0.03051454
v -0.03307358 0.10360685 0.02801447
v -0.03417084 0.10360685 0.02691654
v -0.03197456 0.10357010 0.03021033
v -0.03307358 0.10351499 0.02911240
v -0.03528399 0.10339557 0.02690605
v -0.03492884 0.10329453 0.02774174
v -0.03594836 0.10324861 0.02653541
v -0.03696257 0.10318431 0.02532908
v -0.02708020 0.10360685 0.03130827
v -0.04295948 0.10362522 0.00714328
v -0.03966242 0.10361603 0.01758412
v -0.03840084 0.10039188 0.02357379
v -0.03751914 0.10148497 0.02472068
v -0.03797678 0.10148497 0.02412276
v -0.03839907 0.10148497 0.02357030
v -0.03895035 0.10039188 0.02280454
v -0.03893268 0.09928961 0.02277657
v -0.03802095 0.07221960 0.02198634
v -0.03699437 0.10258724 0.02537104
v -0.03582821 0.01947581 0.02088491
v -0.03558791 0.02569447 0.02167164
v -0.03399061 0.00979417 0.02255978
v -0.03684418 0.00978498 0.01740230
v -0.03039494 0.00978498 0.01758412
v -0.03499952 0.00979417 0.02123807
v -0.03557554 0.00979417 0.02032196
v -0.03583881 0.00979417 0.01981845
v -0.02708020 0.00979417 0.02196886
v -0.03746437 0.10360685 0.02252132
v -0.03526986 0.10357929 0.02581861
v -0.03636711 0.10353336 0.02472068
v -0.03858990 0.10337721 0.02250733
v -0.03824358 0.10329453 0.02338148
v -0.03919772 0.10323024 0.02213320
v -0.03892385 0.10258724 0.02278007
v -0.03837610 0.10258724 0.02354932
v -0.04075967 0.10360685 -0.00000726
v -0.04130211 0.10361603 -0.00000726
v -0.04075967 0.10361603 0.00165013
v -0.02708020 0.10352418 0.03017886
v -0.04295948 0.10361603 0.00824121
v -0.04186046 0.10361603 0.01263644
v -0.04350016 0.10361603 -0.00000726
v -0.04405674 0.10360685 -0.00000726
v -0.04405674 0.10360685 0.00055220
v -0.03966242 0.10360685 0.01812609
v -0.03894858 0.10148497 0.02280105
v -0.03926132 0.10039188 0.02225558
v -0.03924542 0.09928961 0.02222760
v -0.03919242 0.09709424 0.02212270
v -0.03911997 0.09420078 0.02198634
v -0.03800151 0.07148475 0.02194788
v -0.03691840 0.04047412 0.02087792
v -0.03580700 0.01875014 0.02085344
v -0.03511084 0.01361538 0.02138492
v -0.03547482 0.01910838 0.02132198
v -0.03747851 0.01031775 0.01593373
v -0.03931963 0.01031775 0.01148606
v -0.03894858 0.00978498 0.01231475
v -0.03606851 0.00979417 0.01927298
v -0.03797324 0.06083863 0.02077302
v -0.04008824 0.09269434 0.01947578
v -0.04182866 0.09819652 0.01593373
v -0.04292238 0.09270352 0.01263644
v -0.03494298 0.00978498 -0.00000726
v -0.03559674 0.01141084 0.02045833
v -0.03556494 0.01031775 0.02039539
v -0.03578580 0.01800611 0.02081498
v -0.02708020 0.07602245 0.02662982
v -0.03856339 0.10356092 0.02142339
v -0.03933377 0.10332209 0.02142339
v -0.04142050 0.10325779 0.01674844
v -0.04023490 0.10316594 0.01982894
v -0.03924719 0.10258724 0.02223110
v -0.04035858 0.10348743 -0.00000726
v -0.02708020 0.10334046 0.02928723
v -0.03996632 0.10336802 -0.00000726
v -0.04295948 0.10358847 0.00933915
v -0.04295948 0.10354255 0.01043708
v -0.04186046 0.10354255 0.01373437
v -0.04075967 0.10358847 0.01593373
v -0.04483595 0.10336802 -0.00000726
v -0.04483595 0.10336802 0.00055220
v -0.03925779 0.10148497 0.02225208
v -0.03963238 0.10148497 0.02142339
v -0.03963591 0.10039188 0.02142339
v -0.03960588 0.09928961 0.02142339
v -0.03910230 0.09347511 0.02194438
v -0.03908287 0.09269434 0.02189892
v -0.03930550 0.00978498 0.01145109
v -0.04003700 0.02451871 0.01145109
v -0.04024903 0.02570365 0.01107695
v -0.04021016 0.02409617 0.01097555
v -0.03902809 0.09049897 0.02176955
v -0.03931080 0.09269434 0.02134996
v -0.04022960 0.09839860 0.01981495
v -0.04110775 0.09745249 0.01758412
v -0.04119787 0.09928961 0.01758412
v -0.04324749 0.09929879 0.01263644
v -0.04240997 0.07784120 0.01209097
v -0.03795381 0.07512226 -0.00000726
v -0.02708020 0.10258724 0.02889911
v -0.02708020 0.07621534 0.02664380
v -0.04097170 0.00978498 -0.00000726
v -0.04156538 0.10334965 0.01593373
v -0.04258490 0.10330372 0.01373437
v -0.04245768 0.10320268 0.01440222
v -0.04248948 0.10259643 0.01447565
v -0.04025257 0.10258724 0.01987439
v -0.03969422 0.10259643 -0.00000726
v -0.03983204 0.10299141 -0.00000726
v -0.04280399 0.10338639 0.01263644
v -0.04371572 0.10334965 0.00933915
v -0.04364682 0.10330372 0.01043708
v -0.04509215 0.10259643 -0.00000726
v -0.04509215 0.10259643 0.00055220
v -0.04477411 0.10332209 0.00165013
v -0.04190817 0.10149416 0.01593373
v -0.04003877 0.10039188 0.02045483
v -0.03944332 0.09599197 0.02142339
v -0.03962178 0.00978498 0.01043708
v -0.04349133 0.09929879 0.01202104
v -0.04131449 0.04703265 0.01100003
v -0.04149824 0.10040107 0.01693375
v -0.04282166 0.10040107 0.01373437
v -0.04327576 0.10040107 0.01263644
v -0.04350546 0.10040107 0.01208048
v -0.03807572 0.07733599 -0.00000726
v -0.04097170 0.00978498 0.00055220
v -0.04132155 0.01610468 -0.00000726
v -0.04357790 0.10323024 0.01129724
v -0.04348426 0.10259643 0.01202803
v -0.04350369 0.10149416 0.01206999
v -0.04327223 0.10149416 0.01263644
v -0.04281813 0.10149416 0.01373437
v -0.04470519 0.10326698 0.00274806
v -0.04464865 0.10320268 0.00362571
v -0.04512573 0.10149416 -0.00000726
v -0.04495787 0.10259643 0.00165013
v -0.04459565 0.10290874 0.00435649
v -0.04512573 0.10149416 0.00055220
v -0.03971542 0.00978498 0.00991259
v -0.04022606 0.02046785 0.00996154
v -0.04361854 0.09929879 0.01147207
v -0.04359380 0.09819652 0.01136018
v -0.04352313 0.09512852 0.01105248
v -0.04350546 0.09439368 0.01097206
v -0.04240291 0.07034574 0.01093359
v -0.04129681 0.04629780 0.01089163
v -0.04020839 0.01973300 0.00986014
v -0.04363268 0.10040107 0.01152802
v -0.04363091 0.10149416 0.01152102
v -0.04083035 0.00978498 0.00165013
v -0.04105828 0.01470847 0.00165013
v -0.04127031 0.01690383 0.00078997
v -0.04136572 0.01800611 0.00044031
v -0.04132155 0.01610468 0.00009414
v -0.04240997 0.03942696 -0.00000027
v -0.04240821 0.03942696 -0.00000726
v -0.04380230 0.10259643 0.01043708
v -0.04362031 0.10259643 0.01147906
v -0.04513102 0.10040107 -0.00000726
v -0.04481651 0.10259643 0.00274806
v -0.04466456 0.10255969 0.00393341
v -0.04498261 0.10149416 0.00165013
v -0.04460978 0.10217389 0.00441943
v -0.04513102 0.10040107 0.00055220
v -0.03981614 0.00978498 0.00933915
v -0.04383057 0.10040107 0.01043708
v -0.04380230 0.09929879 0.01043708
v -0.04375283 0.09819652 0.01043708
v -0.04349309 0.09380579 0.01087066
v -0.04348602 0.08721052 0.00861885
v -0.04240997 0.05809213 0.00659432
v -0.04026317 0.00978498 0.00596493
v -0.03996279 0.00978498 0.00824121
v -0.03994336 0.01251311 0.00933915
v -0.04382527 0.10149416 0.01043708
v -0.04061125 0.00978498 0.00332150
v -0.04374399 0.07291771 0.00165013
v -0.04241350 0.04263274 0.00113613
v -0.04479885 0.09270352 0.00055220
v -0.04461862 0.08752284 0.00009065
v -0.04240997 0.03942696 0.00000323
v -0.04461862 0.08752284 -0.00000726
v -0.04411682 0.10149416 0.00824121
v -0.04510099 0.09929879 -0.00000726
v -0.04469460 0.10149416 0.00384949
v -0.04498790 0.10040107 0.00165013
v -0.04510099 0.09929879 0.00055220
v -0.04495963 0.09929879 0.00165013
v -0.04461155 0.09972133 0.00444041
v -0.04426523 0.10040107 0.00714328
v -0.04423696 0.09929879 0.00714328
v -0.04465042 0.09819652 0.00362571
v -0.04481651 0.09929879 0.00274806
v -0.04436772 0.09270352 0.00384949
v -0.04445429 0.08831280 0.00165013
v -0.04491016 0.09819652 0.00165013
v -0.04505151 0.09819652 0.00055220
f 1 2 3
f 1 3 4
f 1 4 11
f 1 11 22
f 1 22 36
f 1 36 54
f 1 54 77
f 1 77 105
f 1 105 146
f 1 146 180
f 1 180 179
f 1 179 153
f 1 153 117
f 1 117 86
f 1 86 59
f 1 59 39
f 1 39 24
f 1 24 14
f 1 14 5
f 1 5 6
f 1 6 2
f 2 7 3
f 2 6 7
f 3 8 9
f 3 9 10
f 3 10 4
f 3 7 8
f 4 10 11
f 5 12 13
f 5 13 6
f 5 14 12
f 6 13 15
f 6 15 7
f 7 16 17
f 7 17 8
f 7 15 18
f 7 18 16
f 8 17 19
f 8 19 20
f 8 20 9
f 9 20 11
f 9 11 10
f 11 20 21
f 11 21 22
f 12 14 23
f 12 23 15
f 12 15 13
f 14 24 25
f 14 25 26
f 14 26 23
f 15 23 31
f 15 31 18
f 16 27 17
f 16 18 28
f 16 28 29
f 16 29 27
f 17 30 19
f 17 27 30
f 18 31 32
f 18 32 28
f 19 33 34
f 19 34 35
f 19 35 20
f 19 30 33
f 20 35 21
f 21 35 22
f 22 35 36
f 23 26 31
f 24 37 38
f 24 38 25
f 24 39 40
f 24 40 37
f 25 38 26
f 26 38 32
f 26 32 31
f 27 41 42
f 27 42 30
f 27 29 41
f 28 32 29
f 29 32 43
f 29 43 44
f 29 44 45
f 29 45 41
f 30 42 33
f 32 38 43
f 33 46 47
f 33 47 48
f 33 48 49
f 33 49 34
f 33 42 46
f 34 50 51
f 34 51 52
f 34 52 35
f 34 49 50
f 35 52 36
f 36 52 53
f 36 53 54
f 37 40 55
f 37 55 56
f 37 56 57
f 37 57 38
f 38 57 58
f 38 58 43
f 39 59 60
f 39 60 55
f 39 55 40
f 41 61 42
f 41 45 62
f 41 62 61
f 42 63 64
f 42 64 46
f 42 61 63
f 43 58 65
f 43 65 44
f 44 65 66
f 44 66 62
f 44 62 45
f 46 64 67
f 46 67 68
f 46 68 69
f 46 69 47
f 47 69 48
f 48 69 70
f 48 70 71
f 48 71 50
f 48 50 49
f 50 71 72
f 50 72 73
f 50 73 51
f 51 73 52
f 52 74 75
f 52 75 71
f 52 71 53
f 52 73 76
f 52 76 74
f 53 71 77
f 53 77 54
f 55 60 56
f 56 60 78
f 56 78 79
f 56 79 80
f 56 80 57
f 57 80 81
f 57 81 82
f 57 82 83
f 57 83 58
f 58 83 84
f 58 84 85
f 58 85 65
f 59 86 87
f 59 87 60
f 60 87 88
f 60 88 78
f 61 89 63
f 61 62 90
f 61 90 91
f 61 91 92
f 61 92 89
f 62 66 90
f 63 89 93
f 63 93 94
f 63 94 95
f 63 95 67
f 63 67 64
f 65 85 96
f 65 96 66
f 66 96 90
f 67 95 97
f 67 97 98
f 67 98 99
f 67 99 68
f 68 99 69
f 69 99 70
f 70 99 71
f 71 100 136
f 71 136 167
f 71 167 198
f 71 198 219
f 71 219 245
f 71 245 253
f 71 253 252
f 71 252 256
f 71 256 230
f 71 230 206
f 71 206 181
f 71 181 142
f 71 142 101
f 71 101 77
f 71 75 72
f 71 99 102
f 71 102 103
f 71 103 104
f 71 104 100
f 72 75 74
f 72 74 76
f 72 76 73
f 77 101 105
f 78 88 79
f 79 106 107
f 79 107 80
f 79 88 106
f 80 107 108
f 80 108 81
f 81 108 82
f 82 109 110
f 82 110 83
f 82 108 109
f 83 110 84
f 84 110 85
f 85 110 111
f 85 111 112
f 85 112 113
f 85 113 96
f 86 114 115
f 86 115 116
f 86 116 87
f 86 117 114
f 87 118 119
f 87 119 88
f 87 116 115
f 87 115 120
f 87 120 121
f 87 121 122
f 87 122 118
f 88 119 123
f 88 123 106
f 89 92 124
f 89 124 93
f 90 96 91
f 91 96 92
f 92 96 113
f 92 113 124
f 93 125 126
f 93 126 94
f 93 124 125
f 94 126 95
f 95 126 127
f 95 127 128
f 95 128 129
f 95 129 130
f 95 130 131
f 95 131 97
f 97 131 102
f 97 102 132
f 97 132 133
f 97 133 98
f 98 133 132
f 98 132 99
f 99 132 102
f 100 134 135
f 100 135 136
f 100 104 137
f 100 137 138
f 100 138 139
f 100 139 140
f 100 140 141
f 100 141 134
f 101 142 105
f 102 143 144
f 102 144 103
f 102 131 145
f 102 145 143
f 103 144 143
f 103 143 104
f 104 143 145
f 104 145 131
f 104 131 130
f 104 130 137
f 105 142 146
f 106 123 147
f 106 147 107
f 107 147 108
f 108 147 109
f 109 147 148
f 109 148 111
f 109 111 110
f 111 148 149
f 111 149 150
f 111 150 151
f 111 151 112
f 112 151 124
f 112 124 113
f 114 117 152
f 114 152 154
f 114 154 188
f 114 188 187
f 114 187 205
f 114 205 178
f 114 178 142
f 114 142 181
f 114 181 207
f 114 207 236
f 114 236 262
f 114 262 264
f 114 264 239
f 114 239 215
f 114 215 192
f 114 192 159
f 114 159 121
f 114 121 120
f 114 120 115
f 117 153 154
f 117 154 152
f 118 122 155
f 118 155 119
f 119 155 156
f 119 156 157
f 119 157 158
f 119 158 123
f 121 159 160
f 121 160 122
f 122 160 155
f 123 158 147
f 124 151 161
f 124 161 125
f 125 161 162
f 125 162 163
f 125 163 126
f 126 163 164
f 126 164 127
f 127 164 128
f 128 164 165
f 128 165 129
f 129 165 130
f 130 165 166
f 130 166 137
f 134 141 135
f 135 167 136
f 135 141 168
f 135 168 169
f 135 169 170
f 135 170 167
f 137 166 171
f 137 171 138
f 138 171 139
f 139 171 172
f 139 172 173
f 139 173 174
f 139 174 140
f 140 174 173
f 140 173 175
f 140 175 176
f 140 176 141
f 141 177 169
f 141 169 168
f 141 176 177
f 142 178 179
f 142 179 180
f 142 180 146
f 147 158 157
f 147 157 182
f 147 182 148
f 148 182 183
f 148 183 149
f 149 183 184
f 149 184 150
f 150 184 185
f 150 185 186
f 150 186 151
f 151 186 162
f 151 162 161
f 153 187 188
f 153 188 154
f 153 179 187
f 155 160 156
f 156 189 157
f 156 160 190
f 156 190 191
f 156 191 189
f 157 189 182
f 159 192 193
f 159 193 160
f 160 193 194
f 160 194 190
f 162 186 195
f 162 195 196
f 162 196 163
f 163 196 164
f 164 196 175
f 164 175 173
f 164 173 197
f 164 197 166
f 164 166 165
f 166 197 171
f 167 170 198
f 169 177 170
f 170 177 199
f 170 199 200
f 170 200 198
f 171 197 172
f 172 197 173
f 175 196 201
f 175 201 176
f 176 201 202
f 176 202 203
f 176 203 204
f 176 204 199
f 176 199 177
f 178 205 179
f 179 205 187
f 181 206 234
f 181 234 207
f 182 189 183
f 183 208 184
f 183 189 208
f 184 208 209
f 184 209 185
f 185 209 210
f 185 210 211
f 185 211 212
f 185 212 195
f 185 195 186
f 189 191 208
f 190 194 191
f 191 194 213
f 191 213 214
f 191 214 208
f 192 215 218
f 192 218 193
f 193 216 217
f 193 217 214
f 193 214 213
f 193 213 194
f 193 218 216
f 195 212 201
f 195 201 196
f 198 200 220
f 198 220 219
f 199 204 221
f 199 221 222
f 199 222 200
f 200 222 223
f 200 223 224
f 200 224 225
f 200 225 226
f 200 226 227
f 200 227 220
f 201 212 202
f 202 212 211
f 202 211 203
f 203 211 204
f 204 228 221
f 204 211 210
f 204 210 229
f 204 229 228
f 206 230 231
f 206 231 232
f 206 232 233
f 206 233 234
f 207 234 261
f 207 261 235
f 207 235 236
f 208 214 237
f 208 237 238
f 208 238 209
f 209 238 210
f 210 238 229
f 214 217 237
f 215 239 244
f 215 244 218
f 216 240 217
f 216 218 240
f 217 240 241
f 217 241 237
f 218 242 243
f 218 243 241
f 218 241 240
f 218 244 266
f 218 266 242
f 219 220 227
f 219 227 245
f 221 228 246
f 221 246 247
f 221 247 222
f 222 247 223
f 223 247 224
f 224 247 248
f 224 248 249
f 224 249 225
f 225 249 248
f 225 248 250
f 225 250 251
f 225 251 227
f 225 227 226
f 227 252 253
f 227 253 254
f 227 254 245
f 227 251 252
f 228 229 246
f 229 255 246
f 229 238 255
f 230 256 231
f 231 256 251
f 231 251 257
f 231 257 258
f 231 258 232
f 232 258 259
f 232 259 260
f 232 260 233
f 233 260 261
f 233 261 234
f 235 261 260
f 235 260 262
f 235 262 236
f 237 241 243
f 237 243 263
f 237 263 255
f 237 255 238
f 239 264 267
f 239 267 244
f 242 265 243
f 242 266 265
f 243 265 263
f 244 267 268
f 244 268 269
f 244 269 266
f 245 254 253
f 246 270 269
f 246 269 247
f 246 255 263
f 246 263 270
f 247 269 271
f 247 271 248
f 248 272 250
f 248 271 273
f 248 273 272
f 250 272 274
f 250 274 251
f 251 274 275
f 251 275 257
f 251 256 252
f 257 275 258
f 258 275 259
f 259 276 277
f 259 277 260
f 259 275 276
f 260 277 267
f 260 267 264
f 260 264 262
f 263 265 270
f 265 266 270
f 266 269 270
f 267 277 276
f 267 276 268
f 268 273 269
f 268 276 273
f 269 273 271
f 272 276 274
f 272 273 276
f 274 276 275

