# https://github.com/mikedh/trimesh
v -0.03758288 0.01012389 -0.01565433
v -0.03739742 0.00628149 -0.01565433
v -0.03804769 0.00628149 -0.01408441
v -0.03904070 0.01012389 -0.01213466
v -0.03147456 0.01012389 -0.01565433
v -0.01700664 0.00628149 -0.01565433
v -0.03922146 0.00628149 -0.01124785
v -0.03931536 0.01012389 -0.01147146
v -0.03522829 0.01012389 -0.00000726
v -0.02324876 0.00628149 -0.00000726
v -0.03930597 0.00628149 -0.01096450
v -0.03963932 0.01012389 -0.01043609
v -0.03958768 0.01012389 -0.01060303
v -0.04098681 0.01012389 -0.00000726
v -0.04081544 0.00628149 -0.00000726
v -0.03945856 0.00628149 -0.01043609
v -0.03966045 0.00628149 -0.00933791
v -0.03980131 0.01012389 -0.00952477
v -0.03952664 0.00628149 -0.01007156
v -0.04098681 0.01012389 -0.00054946
v -0.04094691 0.00921181 -0.00000726
v -0.04081544 0.00628149 -0.00054946
v -0.04009944 0.00628149 -0.00601429
v -0.03983417 0.01012389 -0.00933791
v -0.04096334 0.01012389 -0.00073631
v -0.04094691 0.00921181 -0.00054946
v -0.04072154 0.00628149 -0.00128310
v -0.04025908 0.00628149 -0.00480431
v -0.04022621 0.01012389 -0.00636656
v -0.04082249 0.01012389 -0.00183602
v -0.04067459 0.00628149 -0.00164916
f 1 2 3
f 1 3 4
f 1 4 8
f 1 8 13
f 1 13 12
f 1 12 18
f 1 18 24
f 1 24 29
f 1 29 30
f 1 30 25
f 1 25 20
f 1 20 14
f 1 14 9
f 1 9 5
f 1 5 6
f 1 6 2
f 2 6 10
f 2 10 15
f 2 15 22
f 2 22 27
f 2 27 31
f 2 31 28
f 2 28 23
f 2 23 17
f 2 17 19
f 2 19 16
f 2 16 11
f 2 11 7
f 2 7 3
f 3 7 8
f 3 8 4
f 5 9 6
f 6 9 10
f 7 11 12
f 7 12 13
f 7 13 8
f 9 14 21
f 9 21 15
f 9 15 10
f 11 16 12
f 12 17 18
f 12 16 19
f 12 19 17
f 14 20 26
f 14 26 21
f 15 21 26
f 15 26 22
f 17 23 24
f 17 24 18
f 20 25 26
f 22 26 27
f 23 28 29
f 23 29 24
f 25 30 26
f 26 30 31
f 26 31 27
f 28 31 29
f 29 31 30

