# https://github.com/mikedh/trimesh
v -0.04130471 0.10361606 -0.00000726
v -0.04295914 0.10362522 -0.00714230
v -0.04350103 0.10361606 -0.00000726
v -0.04076138 0.10360691 -0.00000726
v -0.04076138 0.10361606 -0.00164950
v -0.04295914 0.10361606 -0.00824122
v -0.04405730 0.10360691 -0.00055058
v -0.04405730 0.10360691 -0.00000726
v -0.03746691 0.10361606 -0.01593010
v -0.03746691 0.10361606 -0.01791235
v -0.03966323 0.10361606 -0.01791235
v -0.04186098 0.10361606 -0.01263336
v -0.03635006 0.10357030 -0.01791235
v -0.03658436 0.10360691 -0.01791235
v -0.04035892 0.10348793 -0.00000726
v -0.03555375 0.10334149 -0.01791235
v -0.03564862 0.10336895 -0.01791235
v -0.04295914 0.10358860 -0.00933838
v -0.04483636 0.10336895 -0.00055058
v -0.04483636 0.10336895 -0.00000726
v -0.03990327 0.10357030 -0.01791235
v -0.04076138 0.10358860 -0.01593010
v -0.04186098 0.10354284 -0.01373227
v -0.04295914 0.10354284 -0.01043729
v -0.03996651 0.10336895 -0.00000726
v -0.03567737 0.10327743 -0.01722180
v -0.03526053 0.10259099 -0.01791235
v -0.04371520 0.10335064 -0.00933838
v -0.04477455 0.10332319 -0.00164950
v -0.04509365 0.10259099 -0.00055058
v -0.04496716 0.10297539 -0.00000726
v -0.04061765 0.10337810 -0.01791235
v -0.04156632 0.10335064 -0.01593010
v -0.04280534 0.10337810 -0.01263336
v -0.04364908 0.10330488 -0.01043729
v -0.03969485 0.10259099 -0.00000726
v -0.03344799 0.07633264 -0.01791235
v -0.04470556 0.10325912 -0.00274841
v -0.04509365 0.10259099 -0.00000726
v -0.04464950 0.10319505 -0.00362123
v -0.04459488 0.10291133 -0.00435384
v -0.04495997 0.10259099 -0.00164950
v -0.04512671 0.10149270 -0.00055058
v -0.04141970 0.10325912 -0.01674683
v -0.04104167 0.10259099 -0.01791235
v -0.04258686 0.10330488 -0.01373227
v -0.04357865 0.10323166 -0.01129609
v -0.03807636 0.07733941 -0.00000726
v -0.03344368 0.07626857 -0.01791235
v -0.04512671 0.10149270 -0.00000726
v -0.04380432 0.10259099 -0.01043729
v -0.04481911 0.10259099 -0.00274841
v -0.04466531 0.10256353 -0.00393145
v -0.04498441 0.10149270 -0.00164950
v -0.04513102 0.10039441 -0.00055058
v -0.04245749 0.10320421 -0.01439828
v -0.04107330 0.10184964 -0.01791235
v -0.04148439 0.10259099 -0.01689931
v -0.04348522 0.10259099 -0.01202694
v -0.04362177 0.10259099 -0.01147836
v -0.03795418 0.07512452 -0.00000726
v -0.03337612 0.07512452 -0.01791235
v -0.04513102 0.10039441 -0.00000726
v -0.04382732 0.10149270 -0.01043729
v -0.04461069 0.10217913 -0.00441868
v -0.04469550 0.10149270 -0.00384557
v -0.04498872 0.10039441 -0.00164950
v -0.04461357 0.09972628 -0.00443796
v -0.04510228 0.09929611 -0.00055058
v -0.04248912 0.10259099 -0.01447540
v -0.04108767 0.10149270 -0.01791235
v -0.04350535 0.10149270 -0.01206901
v -0.04363184 0.10149270 -0.01152043
v -0.03790531 0.07402623 -0.00000726
v -0.03044674 0.01012389 -0.01791235
v -0.04510228 0.09929611 -0.00000726
v -0.04383163 0.10039441 -0.01043729
v -0.04426141 0.10149270 -0.00714230
v -0.04426572 0.10039441 -0.00714230
v -0.04380288 0.09929611 -0.01043729
v -0.04409323 0.09929611 -0.00824122
v -0.04476593 0.09819782 -0.00274841
v -0.04481624 0.09929611 -0.00274841
v -0.04495997 0.09929611 -0.00164950
v -0.04500166 0.09709953 -0.00055058
v -0.04461788 0.08752607 -0.00008788
v -0.04327393 0.10149270 -0.01263336
v -0.04109198 0.10039441 -0.01791235
v -0.04149876 0.10039441 -0.01693086
v -0.04350678 0.10039441 -0.01207777
v -0.04363327 0.10039441 -0.01152919
v -0.03523034 0.01012389 -0.00000726
v -0.03664904 0.01012389 -0.01791235
v -0.04461788 0.08752607 -0.00000726
v -0.04362034 0.09929611 -0.01146785
v -0.04354415 0.09600124 -0.01113835
v -0.04352403 0.09513175 -0.01105072
v -0.04350678 0.09439956 -0.01097185
v -0.04349385 0.09380465 -0.01086844
v -0.04365196 0.09600124 -0.01043729
v -0.04288440 0.07622281 -0.00933838
v -0.04312300 0.07512452 -0.00714230
v -0.04480905 0.09600124 -0.00164950
v -0.04380288 0.07732110 -0.00274841
v -0.04348953 0.06853476 -0.00204910
v -0.04459201 0.08941148 -0.00097998
v -0.04466244 0.08941148 -0.00043140
v -0.04463657 0.08831318 -0.00023160
v -0.04351397 0.06347346 -0.00004407
v -0.04241150 0.03946661 -0.00000726
v -0.04327824 0.10039441 -0.01263336
v -0.04106180 0.09929611 -0.01791235
v -0.04125585 0.09929611 -0.01744439
v -0.04226057 0.09929611 -0.01501872
v -0.04324805 0.09929611 -0.01263336
v -0.04349241 0.09929611 -0.01201818
v -0.04098849 0.01012389 -0.00000726
v -0.03746978 0.01012389 -0.01593010
v -0.03687614 0.01470926 -0.01791235
v -0.04351397 0.06347346 -0.00000726
v -0.04131478 0.04703568 -0.01099639
v -0.04240288 0.07034695 -0.01092978
v -0.04208090 0.06194500 -0.01043729
v -0.04268891 0.07512452 -0.01043729
v -0.03997945 0.01012389 -0.00824122
v -0.04384600 0.07512452 -0.00164950
v -0.04131046 0.01858074 -0.00109040
v -0.04010450 0.01012389 -0.00729128
v -0.04067802 0.01012389 -0.00293419
v -0.04303532 0.05755183 -0.00164950
v -0.04090656 0.01141438 -0.00164950
v -0.04352978 0.06414159 -0.00016675
v -0.04165687 0.02459389 -0.00055058
v -0.04132340 0.01610958 -0.00009139
v -0.04132340 0.01610958 -0.00000726
v -0.04248768 0.09929611 -0.01447014
v -0.04089937 0.09600124 -0.01791235
v -0.04223326 0.09819782 -0.01495387
v -0.04273922 0.09819782 -0.01373227
v -0.04303101 0.09490294 -0.01263336
v -0.04242587 0.07841940 -0.01212334
v -0.04241150 0.07784279 -0.01208829
v -0.04022812 0.02483186 -0.01102267
v -0.04098849 0.01012389 -0.00055058
v -0.03931538 0.01012389 -0.01147135
v -0.03930819 0.01136862 -0.01163786
v -0.03769689 0.01470926 -0.01593010
v -0.03720243 0.02129902 -0.01791235
v -0.04020943 0.02409966 -0.01097360
v -0.03963879 0.01012389 -0.01043729
v -0.04020943 0.01973395 -0.00985891
v -0.04129753 0.04630348 -0.01088947
v -0.04152320 0.04986378 -0.01043729
v -0.03983427 0.01012389 -0.00933838
v -0.04109917 0.01251268 -0.00055058
v -0.04070245 0.01012389 -0.00274841
v -0.04084619 0.01012389 -0.00164950
v -0.04080307 0.09405176 -0.01791235
v -0.04258973 0.08501831 -0.01251769
v -0.03958705 0.01012389 -0.01060379
f 1 2 3
f 1 3 8
f 1 8 20
f 1 20 31
f 1 31 39
f 1 39 50
f 1 50 63
f 1 63 76
f 1 76 94
f 1 94 120
f 1 120 110
f 1 110 135
f 1 135 117
f 1 117 92
f 1 92 74
f 1 74 61
f 1 61 48
f 1 48 36
f 1 36 25
f 1 25 15
f 1 15 4
f 1 4 5
f 1 5 2
f 2 6 7
f 2 7 8
f 2 8 3
f 2 5 9
f 2 9 10
f 2 10 11
f 2 11 12
f 2 12 6
f 4 13 14
f 4 14 5
f 4 15 16
f 4 16 17
f 4 17 13
f 5 14 9
f 6 12 18
f 6 18 7
f 7 18 19
f 7 19 20
f 7 20 8
f 9 14 10
f 10 14 13
f 10 13 17
f 10 17 16
f 10 16 27
f 10 27 37
f 10 37 49
f 10 49 62
f 10 62 75
f 10 75 93
f 10 93 119
f 10 119 148
f 10 148 158
f 10 158 137
f 10 137 112
f 10 112 88
f 10 88 71
f 10 71 57
f 10 57 45
f 10 45 32
f 10 32 21
f 10 21 11
f 11 21 22
f 11 22 12
f 12 22 23
f 12 23 24
f 12 24 18
f 15 25 16
f 16 25 26
f 16 26 27
f 18 24 19
f 19 24 28
f 19 28 29
f 19 29 30
f 19 30 31
f 19 31 20
f 21 32 22
f 22 32 33
f 22 33 23
f 23 33 34
f 23 34 24
f 24 34 35
f 24 35 28
f 25 36 27
f 25 27 26
f 27 36 37
f 28 35 29
f 29 35 38
f 29 38 30
f 30 39 31
f 30 38 40
f 30 40 41
f 30 41 42
f 30 42 43
f 30 43 50
f 30 50 39
f 32 44 33
f 32 45 44
f 33 44 46
f 33 46 34
f 34 46 47
f 34 47 35
f 35 47 40
f 35 40 38
f 36 48 49
f 36 49 37
f 40 47 51
f 40 51 41
f 41 52 42
f 41 51 53
f 41 53 52
f 42 52 43
f 43 54 67
f 43 67 55
f 43 55 63
f 43 63 50
f 43 52 54
f 44 56 46
f 44 45 56
f 45 57 58
f 45 58 56
f 46 56 47
f 47 56 59
f 47 59 60
f 47 60 51
f 48 61 62
f 48 62 49
f 51 60 64
f 51 64 65
f 51 65 53
f 52 53 65
f 52 65 54
f 54 65 66
f 54 66 67
f 55 67 68
f 55 68 69
f 55 69 76
f 55 76 63
f 56 58 70
f 56 70 59
f 57 71 58
f 58 71 70
f 59 70 72
f 59 72 60
f 60 72 73
f 60 73 64
f 61 74 75
f 61 75 62
f 64 73 77
f 64 77 79
f 64 79 78
f 64 78 65
f 65 78 66
f 66 78 79
f 66 79 67
f 67 79 68
f 68 79 77
f 68 77 80
f 68 80 81
f 68 81 82
f 68 82 83
f 68 83 84
f 68 84 69
f 69 84 103
f 69 103 85
f 69 85 86
f 69 86 94
f 69 94 76
f 70 87 72
f 70 71 87
f 71 88 89
f 71 89 87
f 72 87 90
f 72 90 91
f 72 91 73
f 73 91 77
f 74 92 75
f 75 92 117
f 75 117 144
f 75 144 157
f 75 157 156
f 75 156 129
f 75 129 128
f 75 128 125
f 75 125 154
f 75 154 150
f 75 150 160
f 75 160 145
f 75 145 118
f 75 118 93
f 77 91 95
f 77 95 80
f 80 95 96
f 80 96 97
f 80 97 98
f 80 98 99
f 80 99 100
f 80 100 81
f 81 100 99
f 81 99 101
f 81 101 102
f 81 102 82
f 82 103 84
f 82 84 83
f 82 102 104
f 82 104 105
f 82 105 103
f 85 103 106
f 85 106 107
f 85 107 108
f 85 108 86
f 86 109 120
f 86 120 94
f 86 108 110
f 86 110 109
f 87 89 111
f 87 111 90
f 88 112 113
f 88 113 89
f 89 113 114
f 89 114 111
f 90 111 115
f 90 115 116
f 90 116 95
f 90 95 91
f 93 118 147
f 93 147 119
f 95 116 121
f 95 121 96
f 96 121 97
f 97 121 98
f 98 122 99
f 98 121 122
f 99 122 123
f 99 123 124
f 99 124 101
f 101 124 123
f 101 123 125
f 101 125 102
f 102 125 104
f 103 105 126
f 103 126 127
f 103 127 106
f 104 125 128
f 104 128 129
f 104 129 105
f 105 130 126
f 105 129 131
f 105 131 130
f 106 127 107
f 107 132 108
f 107 127 133
f 107 133 134
f 107 134 110
f 107 110 132
f 108 132 110
f 109 110 120
f 110 134 135
f 111 114 136
f 111 136 115
f 112 137 113
f 113 138 114
f 113 137 138
f 114 138 139
f 114 139 136
f 115 136 139
f 115 139 140
f 115 140 141
f 115 141 142
f 115 142 116
f 116 142 143
f 116 143 121
f 117 135 134
f 117 134 144
f 118 145 146
f 118 146 147
f 119 147 148
f 121 143 149
f 121 149 150
f 121 150 151
f 121 151 152
f 121 152 122
f 122 152 153
f 122 153 123
f 123 153 151
f 123 151 125
f 125 151 154
f 126 130 127
f 127 131 155
f 127 155 133
f 127 130 131
f 129 156 131
f 131 156 157
f 131 157 144
f 131 144 155
f 133 155 134
f 134 155 144
f 137 158 138
f 138 158 139
f 139 159 140
f 139 158 148
f 139 148 159
f 140 159 141
f 141 159 145
f 141 145 143
f 141 143 142
f 143 145 149
f 145 160 149
f 145 159 146
f 146 159 147
f 147 159 148
f 149 160 150
f 150 154 151
f 151 153 152

