# https://github.com/mikedh/trimesh
v 0.00277514 0.00991374 -0.04068969
v 0.00648056 0.00628149 -0.04003828
v 0.00290562 0.00628149 -0.04050897
v 0.00277514 0.00628149 -0.04052579
v 0.00277514 0.00991374 -0.03473671
v 0.00907696 0.00991374 -0.03985967
v 0.00971953 0.00628149 -0.03961172
v 0.00277514 0.00628149 -0.02261222
v 0.02907184 0.00991374 -0.01922493
v 0.00977824 0.00991374 -0.03976721
v 0.01008159 0.00628149 -0.03956339
v 0.01116451 0.00628149 -0.01951490
v 0.03607820 0.00991374 -0.01922493
v 0.01204194 0.00628149 -0.01929637
v 0.01282803 0.00628149 -0.01922493
v 0.01003919 0.00991374 -0.03972099
v 0.01036211 0.00731445 -0.03956339
v 0.01028709 0.00658231 -0.03954658
v 0.01024468 0.00628149 -0.03954028
v 0.03609451 0.00991125 -0.01922493
v 0.03609125 0.00991374 -0.01922703
v 0.03591837 0.00628149 -0.01922493
v 0.01049910 0.00921182 -0.03960752
v 0.01054803 0.00991374 -0.03962223
v 0.01084486 0.00628149 -0.03935116
v 0.01055129 0.00628149 -0.03944572
v 0.03571288 0.00921182 -0.02001922
v 0.03572919 0.00991374 -0.02005494
v 0.03564112 0.00628149 -0.01987423
v 0.01109928 0.00991374 -0.03943731
v 0.01197670 0.00628149 -0.03892039
v 0.03554652 0.00991374 -0.02040586
v 0.03533777 0.00628149 -0.02042477
v 0.03543888 0.00991374 -0.02060338
v 0.01197670 0.00991374 -0.03909690
v 0.01391748 0.00628149 -0.03811770
v 0.03478979 0.00628149 -0.02125898
v 0.03487133 0.00921182 -0.02136405
v 0.03484197 0.00991374 -0.02145440
v 0.01924075 0.00991374 -0.03608784
v 0.01746959 0.00628149 -0.03664679
v 0.03464953 0.00628149 -0.02144180
v 0.03175630 0.00991374 -0.02547839
v 0.03368077 0.00991374 -0.02296944
v 0.03447013 0.00991374 -0.02193980
v 0.01966152 0.00991374 -0.03591134
v 0.01937774 0.00628149 -0.03585460
v 0.01795560 0.00628149 -0.03644506
v 0.03006343 0.00628149 -0.02741789
v 0.02974377 0.00991374 -0.02810081
v 0.02000075 0.00991374 -0.03573903
v 0.02048676 0.00628149 -0.03533137
v 0.02020298 0.00628149 -0.03547216
v 0.01966152 0.00628149 -0.03573482
v 0.02991664 0.00628149 -0.02760911
v 0.02960351 0.00628149 -0.02801676
v 0.02909141 0.00628149 -0.02866606
v 0.02917295 0.00921182 -0.02875641
v 0.02919252 0.00991374 -0.02877743
v 0.02062375 0.00991374 -0.03541963
v 0.02059766 0.00921182 -0.03540282
v 0.02117174 0.00991374 -0.03505401
v 0.02103474 0.00628149 -0.03495104
v 0.02888591 0.00628149 -0.02884887
v 0.02860214 0.00991374 -0.02932797
v 0.02881741 0.00991374 -0.02912835
v 0.02082272 0.00991374 -0.03528725
v 0.02145878 0.00991374 -0.03483547
v 0.02152075 0.00628149 -0.03458542
v 0.02839990 0.00628149 -0.02927333
v 0.02820746 0.00628149 -0.02943513
v 0.02791716 0.00628149 -0.02967678
v 0.02805089 0.00991374 -0.02977975
v 0.02214702 0.00991374 -0.03431015
v 0.02212745 0.00628149 -0.03412103
v 0.02787475 0.00628149 -0.02971040
v 0.02718325 0.00628149 -0.03024203
v 0.02682771 0.00991374 -0.03071903
v 0.02295595 0.00991374 -0.03369026
v 0.02665484 0.00628149 -0.03064758
f 1 2 3
f 1 3 4
f 1 4 8
f 1 8 5
f 1 5 9
f 1 9 13
f 1 13 21
f 1 21 28
f 1 28 32
f 1 32 34
f 1 34 39
f 1 39 45
f 1 45 44
f 1 44 43
f 1 43 50
f 1 50 59
f 1 59 66
f 1 66 65
f 1 65 73
f 1 73 78
f 1 78 79
f 1 79 74
f 1 74 68
f 1 68 62
f 1 62 67
f 1 67 60
f 1 60 51
f 1 51 46
f 1 46 40
f 1 40 35
f 1 35 30
f 1 30 24
f 1 24 16
f 1 16 10
f 1 10 6
f 1 6 7
f 1 7 2
f 2 7 11
f 2 11 19
f 2 19 26
f 2 26 25
f 2 25 31
f 2 31 36
f 2 36 41
f 2 41 48
f 2 48 47
f 2 47 54
f 2 54 53
f 2 53 52
f 2 52 63
f 2 63 69
f 2 69 75
f 2 75 80
f 2 80 77
f 2 77 76
f 2 76 72
f 2 72 71
f 2 71 70
f 2 70 64
f 2 64 57
f 2 57 56
f 2 56 55
f 2 55 49
f 2 49 42
f 2 42 37
f 2 37 33
f 2 33 29
f 2 29 22
f 2 22 15
f 2 15 14
f 2 14 12
f 2 12 8
f 2 8 4
f 2 4 3
f 5 8 9
f 6 10 7
f 7 10 11
f 8 12 9
f 9 12 14
f 9 14 15
f 9 15 22
f 9 22 20
f 9 20 13
f 10 16 17
f 10 17 18
f 10 18 19
f 10 19 11
f 13 20 21
f 16 23 17
f 16 24 23
f 17 23 25
f 17 25 26
f 17 26 18
f 18 26 19
f 20 27 28
f 20 28 21
f 20 22 29
f 20 29 27
f 23 24 30
f 23 30 25
f 25 30 31
f 27 29 32
f 27 32 28
f 29 33 34
f 29 34 32
f 30 35 31
f 31 35 36
f 33 37 34
f 34 38 39
f 34 37 38
f 35 40 41
f 35 41 36
f 37 42 43
f 37 43 44
f 37 44 45
f 37 45 39
f 37 39 38
f 40 46 47
f 40 47 48
f 40 48 41
f 42 49 43
f 43 49 50
f 46 51 52
f 46 52 53
f 46 53 54
f 46 54 47
f 49 55 50
f 50 55 56
f 50 56 57
f 50 57 58
f 50 58 59
f 51 60 61
f 51 61 52
f 52 61 62
f 52 62 63
f 57 64 65
f 57 65 66
f 57 66 58
f 58 66 59
f 60 67 61
f 61 67 62
f 62 68 69
f 62 69 63
f 64 70 65
f 65 70 71
f 65 71 72
f 65 72 73
f 68 74 69
f 69 74 75
f 72 76 73
f 73 76 77
f 73 77 78
f 74 79 75
f 75 79 80
f 77 80 78
f 78 80 79

