# https://github.com/mikedh/trimesh
v -0.04108799 0.10039423 -0.01791487
v -0.04108799 0.10076033 -0.01791487
v -0.04100087 0.10039423 -0.01813156
v -0.04106185 0.09929594 -0.01791487
v -0.04108509 0.10149252 -0.01791487
v -0.04099796 0.10149252 -0.01813156
v -0.04026616 0.10039423 -0.01990791
v -0.03960405 0.09929594 -0.02142725
v -0.03955178 0.09819765 -0.02142725
v -0.04089923 0.09600107 -0.01791487
v -0.03963599 0.10039423 -0.02142725
v -0.04107347 0.10184947 -0.01791487
v -0.04051590 0.10259081 -0.01922760
v -0.04025164 0.10259081 -0.01987767
v -0.04003675 0.10149252 -0.02045215
v -0.03924396 0.09929594 -0.02222850
v -0.03921782 0.09819765 -0.02217811
v -0.03911909 0.09420719 -0.02198914
v -0.03910166 0.09348415 -0.02194882
v -0.03891290 0.07519761 -0.02022286
v -0.03901164 0.05787208 -0.01791487
v -0.03963019 0.10149252 -0.02142725
v -0.03925848 0.10149252 -0.02225370
v -0.03926138 0.10039423 -0.02225874
v -0.04104153 0.10259081 -0.01791487
v -0.04023421 0.10317657 -0.01983484
v -0.03924686 0.10259081 -0.02223354
v -0.03893323 0.09929594 -0.02277779
v -0.03802138 0.07222308 -0.02198662
v -0.03691786 0.04047332 -0.02088301
v -0.03690044 0.03975028 -0.02084018
v -0.03672620 0.01171641 -0.01791487
v -0.03894775 0.10149252 -0.02280298
v -0.03895066 0.10039423 -0.02280550
v -0.04061464 0.10337792 -0.01791487
v -0.04035328 0.10327725 -0.01922760
v -0.03919749 0.10324064 -0.02213780
v -0.03892452 0.10259081 -0.02278283
v -0.03838147 0.09929594 -0.02355636
v -0.03835243 0.09819765 -0.02351352
v -0.03801848 0.08660153 -0.02308014
v -0.03775131 0.07732097 -0.02272991
v -0.03582596 0.01947766 -0.02089057
v -0.03580563 0.01874547 -0.02085781
v -0.03584339 0.01012389 -0.01984240
v -0.03604666 0.01012389 -0.01936114
v -0.03647646 0.01012389 -0.01832557
v -0.03664489 0.01012389 -0.01791487
v -0.03839890 0.10149252 -0.02357652
v -0.03840180 0.10039423 -0.02357903
v -0.03990316 0.10357012 -0.01791487
v -0.04055946 0.10337792 -0.01813156
v -0.03933398 0.10333216 -0.02142725
v -0.03696142 0.10319487 -0.02533271
v -0.03859056 0.10338707 -0.02251070
v -0.03824208 0.10330470 -0.02338250
v -0.03837566 0.10259081 -0.02355384
v -0.03748704 0.09929594 -0.02472295
v -0.03699046 0.09929594 -0.02537050
v -0.03598859 0.09819765 -0.02659505
v -0.03789941 0.09709936 -0.02402249
v -0.03224535 0.08391072 -0.03040224
v -0.03301781 0.05096200 -0.02692009
v -0.03493734 0.01012389 -0.02134915
v -0.03500704 0.01012389 -0.02125340
v -0.03546296 0.01012389 -0.02054034
v -0.03575336 0.01690583 -0.02075703
v -0.03556751 0.01012389 -0.02037404
v -0.03044487 0.01012389 -0.01791487
v -0.03797782 0.10149252 -0.02412580
v -0.03699336 0.10259081 -0.02537302
v -0.03325593 0.10039423 -0.03028382
v -0.03966213 0.10361589 -0.01791487
v -0.03966213 0.10361589 -0.01813156
v -0.03966213 0.10351521 -0.01922760
v -0.03856442 0.10357012 -0.02142725
v -0.03594502 0.10325894 -0.02653962
v -0.03262577 0.10324064 -0.03089861
v -0.03364216 0.10316742 -0.02969170
v -0.03636611 0.10354267 -0.02472295
v -0.03753931 0.10343284 -0.02369998
v -0.03528291 0.10339623 -0.02691253
v -0.03492573 0.10329555 -0.02774401
v -0.03328497 0.09816104 -0.03011500
v -0.03268675 0.09929594 -0.03097672
v -0.03142642 0.07453864 -0.03076507
v -0.02982051 0.01012389 -0.02801865
v -0.03259382 0.09600107 -0.03085326
v -0.02971307 0.01012389 -0.01879926
v -0.01142665 0.01013304 -0.03323433
v -0.03337209 0.07511524 -0.01791487
v -0.03325012 0.10149252 -0.03028382
v -0.03323851 0.10259081 -0.03026618
v -0.03270417 0.10039423 -0.03099940
v -0.03746381 0.10361589 -0.01791487
v -0.03856442 0.10362504 -0.02032869
v -0.03746381 0.10361589 -0.02252330
v -0.03526549 0.10358843 -0.02582152
v -0.03196366 0.10337792 -0.03128412
v -0.03159485 0.10327725 -0.03201230
v -0.03223954 0.10259081 -0.03152853
v -0.03268965 0.10259081 -0.03097924
v -0.03197237 0.10357928 -0.03021327
v -0.03225986 0.10039423 -0.03154868
v -0.03223954 0.09929594 -0.03152600
v -0.03142642 0.09100385 -0.03186364
v -0.03032000 0.05705751 -0.03075751
v -0.02923681 0.02388913 -0.02967406
v -0.02931812 0.01031609 -0.02867376
v -0.03031710 0.04062891 -0.02965643
v -0.02931231 0.01012389 -0.02866620
v -0.02778772 0.01012389 -0.02130883
v -0.02639961 0.01012389 -0.02313054
v -0.02555746 0.01012389 -0.02425934
v -0.01142665 0.01013304 -0.03932936
v -0.01142665 0.07511524 -0.03606389
v -0.03344469 0.07633251 -0.01791487
v -0.03270127 0.10149252 -0.03099436
v -0.03658100 0.10360673 -0.01791487
v -0.01219911 0.10360673 -0.03899928
v -0.01142665 0.10360673 -0.04197247
v -0.02555746 0.10361589 -0.03460502
v -0.02757863 0.10361589 -0.03350897
v -0.03087466 0.10361589 -0.03021327
v -0.03416779 0.10361589 -0.02692009
v -0.01142665 0.10360673 -0.03977533
v -0.03081949 0.10335962 -0.03239276
v -0.03087466 0.10359758 -0.03130931
v -0.02605985 0.10324064 -0.03635113
v -0.03041874 0.10321318 -0.03303023
v -0.03169068 0.10259081 -0.03210301
v -0.02726210 0.10328640 -0.03533320
v -0.03225405 0.10149252 -0.03154616
v -0.03170810 0.10039423 -0.03211812
v -0.03169068 0.09929594 -0.03210301
v -0.03170520 0.10149252 -0.03211812
v -0.03151644 0.09380449 -0.03194427
v -0.03102276 0.09929594 -0.03265229
v -0.02572008 0.08830388 -0.03609161
v -0.02555746 0.01141438 -0.03178301
v -0.02810135 0.01012389 -0.02975469
v -0.02921068 0.02314778 -0.02965139
v -0.02918454 0.02239728 -0.02962619
v -0.02881283 0.01251267 -0.02929612
v -0.02870538 0.01012389 -0.02923060
v -0.02555746 0.01012389 -0.03170490
v -0.01219911 0.01013304 -0.03901440
v -0.01142665 0.01031609 -0.03933943
v -0.01142665 0.07616777 -0.03612688
v -0.03525678 0.10259081 -0.01791487
v -0.03634578 0.10357012 -0.01791487
v -0.01142665 0.10356097 -0.03899928
v -0.01142665 0.10359758 -0.04229498
v -0.01439743 0.10360673 -0.04119894
v -0.02208719 0.10360673 -0.03790323
v -0.02648093 0.10360673 -0.03460502
v -0.02644608 0.10337792 -0.03570106
v -0.02977405 0.10355182 -0.03240788
v -0.02760767 0.10342368 -0.03464533
v -0.02555746 0.10357928 -0.03552973
v -0.02484889 0.10314911 -0.03736655
v -0.02290031 0.10328640 -0.03864149
v -0.03102567 0.10259081 -0.03265229
v -0.03104309 0.10149252 -0.03266741
v -0.03104600 0.10039423 -0.03266741
v -0.02922810 0.09981763 -0.03405825
v -0.02555746 0.09928679 -0.03684750
v -0.02594079 0.09423465 -0.03626294
v -0.02335333 0.09269704 -0.03816024
v -0.02442781 0.01141438 -0.03264977
v -0.02318490 0.01013304 -0.03352912
v -0.02817105 0.01012389 -0.02969926
v -0.02817976 0.01031609 -0.02970430
v -0.02564458 0.01012389 -0.03163939
v -0.02860084 0.01012389 -0.02932383
v -0.02130021 0.01013304 -0.03497288
v -0.02074845 0.01013304 -0.03536595
v -0.02060906 0.01013304 -0.03544154
v -0.01988887 0.01013304 -0.03581697
v -0.01974658 0.01013304 -0.03587996
v -0.01900606 0.01013304 -0.03619491
v -0.01656090 0.01013304 -0.03720781
v -0.01708071 0.01690583 -0.03732875
v -0.01174899 0.01800412 -0.03959140
v -0.01142665 0.01272318 -0.03946038
v -0.01142665 0.10258166 -0.03793095
v -0.01142665 0.10309420 -0.03807457
v -0.03555008 0.10334131 -0.01791487
v -0.01142665 0.10348775 -0.03871960
v -0.01142665 0.10332301 -0.03820307
v -0.01142665 0.10343284 -0.04294757
v -0.01219911 0.10357928 -0.04229498
v -0.01988887 0.10359758 -0.03899928
v -0.02098658 0.10347860 -0.03899928
v -0.02323427 0.10341453 -0.03795363
v -0.02428261 0.10350606 -0.03680467
v -0.02555746 0.10354267 -0.03570358
v -0.02304841 0.10258166 -0.03874984
v -0.02486921 0.10258166 -0.03738167
v -0.02613535 0.10259081 -0.03640908
v -0.03047682 0.10259081 -0.03307559
v -0.02197684 0.10332301 -0.03900432
v -0.02098658 0.10324064 -0.03966195
v -0.02153834 0.10313996 -0.03955108
v -0.02922229 0.10193184 -0.03405573
v -0.02555746 0.10168472 -0.03687270
v -0.02614987 0.10149252 -0.03642168
v -0.02923100 0.10119965 -0.03406077
v -0.02977986 0.10039423 -0.03363999
v -0.02555746 0.10039423 -0.03688278
v -0.02362340 0.10038508 -0.03836685
v -0.02360017 0.09928679 -0.03834921
v -0.02265057 0.08865167 -0.03846260
v -0.02155286 0.03592457 -0.03626546
v -0.02075716 0.01031609 -0.03537099
v -0.02153834 0.05479686 -0.03735395
v -0.02042321 0.02308372 -0.03624783
v -0.01988887 0.01031609 -0.03582704
v -0.01999051 0.02346812 -0.03644688
v -0.02048709 0.06852550 -0.03847267
v -0.01769346 0.09928679 -0.04115358
v -0.01311096 0.09818850 -0.04299796
v -0.01177513 0.08500901 -0.04289718
v -0.01173447 0.03997909 -0.04068493
v -0.01170834 0.08391072 -0.04286946
v -0.01166478 0.08322429 -0.04285182
v -0.01158927 0.08248294 -0.04283419
v -0.01148473 0.08171414 -0.04281655
v -0.01142665 0.05842122 -0.04169026
v -0.01142665 0.10336877 -0.04318190
v -0.01219911 0.10334131 -0.04309875
v -0.01549514 0.10351521 -0.04119894
v -0.01769346 0.10356097 -0.04010037
v -0.01988887 0.10335962 -0.03986100
v -0.02210461 0.10258166 -0.03929912
v -0.02307164 0.10148337 -0.03876747
v -0.02362050 0.10148337 -0.03836181
v -0.01549514 0.10327725 -0.04189436
v -0.01845721 0.10323148 -0.04073532
v -0.01769346 0.10332301 -0.04087390
v -0.01610788 0.10316742 -0.04177342
v -0.01318066 0.10258166 -0.04302316
v -0.01615434 0.10258166 -0.04179357
v -0.02157899 0.10148337 -0.03956872
v -0.02212785 0.10148337 -0.03931676
v -0.02307164 0.10038508 -0.03876999
v -0.02305132 0.09928679 -0.03875235
v -0.02301066 0.09818850 -0.03872464
v -0.02208719 0.09818850 -0.03925125
v -0.02199426 0.09925018 -0.03934951
v -0.02152962 0.07680844 -0.03845000
v -0.02143089 0.07511524 -0.03840716
v -0.02148316 0.09818850 -0.03952841
v -0.01439743 0.09928679 -0.04251923
v -0.02156738 0.09958882 -0.03956116
v -0.01317775 0.09928679 -0.04302316
v -0.01219911 0.09928679 -0.04341371
v -0.01142665 0.09928679 -0.04362032
v -0.01142665 0.08229074 -0.04285434
v -0.01142665 0.10281047 -0.04349433
v -0.01302384 0.10324979 -0.04295765
v -0.02213365 0.10038508 -0.03931928
v -0.01219911 0.10258166 -0.04339103
v -0.01219911 0.10148337 -0.04344142
v -0.01320679 0.10148337 -0.04303576
v -0.01549514 0.10038508 -0.04209341
v -0.02158480 0.10038508 -0.03956872
v -0.01321260 0.10038508 -0.04303828
v -0.01219911 0.10038508 -0.04344394
v -0.01142665 0.10038508 -0.04365307
v -0.01142665 0.09961628 -0.04363040
v -0.01142665 0.10258166 -0.04358252
v -0.01142665 0.10181286 -0.04363291
v -0.01142665 0.10148337 -0.04364551
f 1 2 3
f 1 3 4
f 1 4 10
f 1 10 21
f 1 21 32
f 1 32 48
f 1 48 69
f 1 69 91
f 1 91 117
f 1 117 150
f 1 150 188
f 1 188 151
f 1 151 119
f 1 119 95
f 1 95 73
f 1 73 51
f 1 51 35
f 1 35 25
f 1 25 12
f 1 12 5
f 1 5 2
f 2 5 6
f 2 6 3
f 3 6 7
f 3 7 4
f 4 8 9
f 4 9 10
f 4 7 11
f 4 11 8
f 5 12 6
f 6 12 13
f 6 13 14
f 6 14 15
f 6 15 7
f 7 15 11
f 8 11 16
f 8 16 17
f 8 17 18
f 8 18 9
f 9 18 19
f 9 19 20
f 9 20 10
f 10 20 21
f 11 15 22
f 11 22 23
f 11 23 24
f 11 24 16
f 12 25 13
f 13 25 26
f 13 26 14
f 14 27 22
f 14 22 15
f 14 26 27
f 16 24 28
f 16 28 17
f 17 28 29
f 17 29 18
f 18 29 19
f 19 29 30
f 19 30 31
f 19 31 20
f 20 31 32
f 20 32 21
f 22 27 23
f 23 33 24
f 23 27 33
f 24 33 34
f 24 34 28
f 25 35 36
f 25 36 26
f 26 36 37
f 26 37 27
f 27 38 33
f 27 37 38
f 28 34 39
f 28 39 40
f 28 40 29
f 29 40 41
f 29 41 42
f 29 42 43
f 29 43 44
f 29 44 30
f 30 44 45
f 30 45 31
f 31 45 46
f 31 46 32
f 32 46 47
f 32 47 48
f 33 49 50
f 33 50 34
f 33 38 49
f 34 50 39
f 35 51 52
f 35 52 36
f 36 52 53
f 36 53 37
f 37 54 38
f 37 53 55
f 37 55 56
f 37 56 54
f 38 57 49
f 38 54 57
f 39 50 58
f 39 58 40
f 40 58 59
f 40 59 60
f 40 60 61
f 40 61 41
f 41 61 62
f 41 62 63
f 41 63 64
f 41 64 43
f 41 43 42
f 43 64 65
f 43 65 44
f 44 65 66
f 44 66 67
f 44 67 68
f 44 68 45
f 45 68 66
f 45 66 65
f 45 65 64
f 45 64 87
f 45 87 111
f 45 111 145
f 45 145 175
f 45 175 172
f 45 172 141
f 45 141 174
f 45 174 146
f 45 146 114
f 45 114 113
f 45 113 112
f 45 112 89
f 45 89 69
f 45 69 48
f 45 48 47
f 45 47 46
f 49 70 50
f 49 57 71
f 49 71 70
f 50 70 72
f 50 72 59
f 50 59 58
f 51 73 74
f 51 74 52
f 52 74 75
f 52 75 53
f 53 75 76
f 53 76 55
f 54 56 77
f 54 77 78
f 54 78 79
f 54 79 71
f 54 71 57
f 55 76 80
f 55 80 81
f 55 81 56
f 56 81 82
f 56 82 83
f 56 83 77
f 59 84 60
f 59 72 85
f 59 85 84
f 60 84 62
f 60 62 61
f 62 86 87
f 62 87 63
f 62 84 88
f 62 88 86
f 63 87 64
f 66 68 67
f 69 89 90
f 69 90 91
f 70 92 72
f 70 71 93
f 70 93 92
f 71 79 93
f 72 94 85
f 72 92 94
f 73 95 96
f 73 96 74
f 74 96 76
f 74 76 75
f 76 96 97
f 76 97 98
f 76 98 80
f 77 83 78
f 78 83 99
f 78 99 100
f 78 100 101
f 78 101 79
f 79 101 102
f 79 102 93
f 80 98 103
f 80 103 82
f 80 82 81
f 82 99 83
f 82 103 99
f 84 85 88
f 85 94 104
f 85 104 105
f 85 105 86
f 85 86 88
f 86 105 106
f 86 106 107
f 86 107 108
f 86 108 109
f 86 109 110
f 86 110 87
f 87 110 109
f 87 109 111
f 89 112 90
f 90 112 113
f 90 113 114
f 90 114 146
f 90 146 115
f 90 115 148
f 90 148 185
f 90 185 229
f 90 229 259
f 90 259 258
f 90 258 271
f 90 271 270
f 90 270 274
f 90 274 273
f 90 273 272
f 90 272 260
f 90 260 230
f 90 230 191
f 90 191 153
f 90 153 121
f 90 121 126
f 90 126 152
f 90 152 189
f 90 189 190
f 90 190 187
f 90 187 186
f 90 186 149
f 90 149 116
f 90 116 91
f 91 116 117
f 92 118 94
f 92 93 102
f 92 102 118
f 94 118 104
f 95 119 120
f 95 120 96
f 96 121 122
f 96 122 123
f 96 123 124
f 96 124 125
f 96 125 97
f 96 120 126
f 96 126 121
f 97 125 98
f 98 125 103
f 99 127 100
f 99 103 128
f 99 128 127
f 100 129 130
f 100 130 131
f 100 131 101
f 100 127 132
f 100 132 129
f 101 131 133
f 101 133 102
f 102 133 118
f 103 125 128
f 104 134 135
f 104 135 105
f 104 118 133
f 104 133 136
f 104 136 134
f 105 135 137
f 105 137 106
f 106 137 138
f 106 138 107
f 107 139 140
f 107 140 141
f 107 141 142
f 107 142 108
f 107 138 139
f 108 142 109
f 109 142 143
f 109 143 111
f 111 143 144
f 111 144 145
f 115 146 147
f 115 147 148
f 116 149 150
f 116 150 117
f 119 151 152
f 119 152 120
f 120 152 126
f 121 153 154
f 121 154 122
f 122 154 155
f 122 155 123
f 123 155 156
f 123 156 128
f 123 128 124
f 124 128 125
f 127 157 132
f 127 128 158
f 127 158 159
f 127 159 157
f 128 156 160
f 128 160 158
f 129 161 130
f 129 132 162
f 129 162 161
f 130 161 163
f 130 163 131
f 131 163 164
f 131 164 136
f 131 136 133
f 132 157 162
f 134 165 135
f 134 136 164
f 134 164 165
f 135 138 137
f 135 165 138
f 138 165 166
f 138 166 167
f 138 167 168
f 138 168 139
f 139 168 167
f 139 167 169
f 139 169 170
f 139 170 140
f 140 170 171
f 140 171 141
f 141 172 173
f 141 173 142
f 141 171 174
f 142 173 143
f 143 173 172
f 143 172 175
f 143 175 144
f 144 175 145
f 146 174 176
f 146 176 177
f 146 177 178
f 146 178 179
f 146 179 180
f 146 180 181
f 146 181 182
f 146 182 147
f 147 182 183
f 147 183 184
f 147 184 185
f 147 185 148
f 149 186 150
f 150 186 187
f 150 187 188
f 151 189 152
f 151 188 190
f 151 190 189
f 153 191 192
f 153 192 154
f 154 192 193
f 154 193 155
f 155 193 194
f 155 194 162
f 155 162 195
f 155 195 196
f 155 196 160
f 155 160 156
f 157 159 197
f 157 197 196
f 157 196 195
f 157 195 162
f 158 160 197
f 158 197 159
f 160 196 197
f 161 162 198
f 161 198 199
f 161 199 200
f 161 200 201
f 161 201 163
f 162 194 202
f 162 202 203
f 162 203 204
f 162 204 198
f 163 201 164
f 164 201 205
f 164 205 206
f 164 206 207
f 164 207 208
f 164 208 165
f 165 208 209
f 165 209 166
f 166 209 210
f 166 210 211
f 166 211 212
f 166 212 167
f 167 212 169
f 169 212 213
f 169 213 214
f 169 214 176
f 169 176 171
f 169 171 170
f 171 176 174
f 176 215 177
f 176 214 216
f 176 216 215
f 177 215 216
f 177 216 217
f 177 217 178
f 178 218 179
f 178 217 218
f 179 218 180
f 180 218 217
f 180 217 181
f 181 217 219
f 181 219 220
f 181 220 183
f 181 183 182
f 183 220 221
f 183 221 222
f 183 222 184
f 184 222 223
f 184 223 224
f 184 224 185
f 185 224 223
f 185 223 225
f 185 225 226
f 185 226 227
f 185 227 228
f 185 228 229
f 187 190 188
f 191 230 192
f 192 230 231
f 192 231 232
f 192 232 233
f 192 233 193
f 193 233 194
f 194 233 232
f 194 232 234
f 194 234 202
f 198 235 245
f 198 245 236
f 198 236 237
f 198 237 199
f 198 204 235
f 199 237 206
f 199 206 205
f 199 205 201
f 199 201 200
f 202 234 203
f 203 238 239
f 203 239 204
f 203 234 240
f 203 240 238
f 204 239 241
f 204 241 242
f 204 242 243
f 204 243 244
f 204 244 245
f 204 245 235
f 206 237 207
f 207 237 208
f 208 237 211
f 208 211 210
f 208 210 209
f 211 237 236
f 211 236 246
f 211 246 247
f 211 247 212
f 212 247 248
f 212 248 213
f 213 248 249
f 213 249 216
f 213 216 214
f 216 249 250
f 216 250 251
f 216 251 217
f 217 251 252
f 217 252 219
f 219 252 220
f 220 252 253
f 220 253 221
f 221 254 222
f 221 253 255
f 221 255 254
f 222 254 256
f 222 256 257
f 222 257 223
f 223 257 225
f 225 257 226
f 226 257 258
f 226 258 227
f 227 258 259
f 227 259 228
f 228 259 229
f 230 260 231
f 231 240 234
f 231 234 232
f 231 260 261
f 231 261 238
f 231 238 240
f 236 245 262
f 236 262 246
f 238 261 239
f 239 261 241
f 241 261 242
f 242 263 264
f 242 264 265
f 242 265 243
f 242 261 263
f 243 265 244
f 244 265 266
f 244 266 267
f 244 267 262
f 244 262 245
f 246 262 247
f 247 250 249
f 247 249 248
f 247 262 250
f 250 262 255
f 250 255 251
f 251 255 253
f 251 253 252
f 254 255 268
f 254 268 256
f 255 262 267
f 255 267 266
f 255 266 268
f 256 268 269
f 256 269 257
f 257 269 270
f 257 270 271
f 257 271 258
f 260 272 261
f 261 272 263
f 263 272 273
f 263 273 264
f 264 274 270
f 264 270 269
f 264 269 268
f 264 268 265
f 264 273 274
f 265 268 266

