# https://github.com/mikedh/trimesh
v 0.01806559 0.01001243 0.03016693
v 0.01806559 0.01437173 0.03103340
v 0.01806559 0.01001243 0.03657876
v 0.00277188 0.01001243 0.03488889
v 0.00277188 0.01437173 0.03561567
v 0.01806559 0.01437173 0.03679406
v 0.01806559 0.01402311 0.03677726
v 0.01439037 0.01437173 0.03831694
v 0.01310292 0.01001243 0.03863412
v 0.00277188 0.01001243 0.04069367
v 0.00277188 0.01437173 0.04089532
v 0.01597723 0.01437173 0.03765947
v 0.01190679 0.01437173 0.03934514
v 0.01197266 0.01360664 0.03928002
v 0.01197266 0.01001243 0.03910148
v 0.00286919 0.01001243 0.04068107
v 0.00292159 0.01031112 0.04068842
v 0.00277188 0.01145856 0.04076089
v 0.00305931 0.01437173 0.04085751
v 0.01141277 0.01437173 0.03954889
v 0.01128103 0.01250785 0.03950268
v 0.01120318 0.01140949 0.03947537
v 0.01110288 0.01001243 0.03944071
v 0.00323746 0.01001243 0.04063276
v 0.00428389 0.01001243 0.04049517
v 0.00758036 0.01031112 0.04007507
v 0.00538271 0.01250785 0.04046577
v 0.00395304 0.01437173 0.04073988
v 0.01092923 0.01437173 0.03970538
v 0.01065377 0.01140949 0.03965812
v 0.01055347 0.01001243 0.03962556
v 0.01095318 0.01001243 0.03949112
v 0.00618213 0.01001243 0.04024521
v 0.00867769 0.01001243 0.03991648
v 0.00977651 0.01001243 0.03977154
v 0.00977651 0.01250785 0.03988707
v 0.00648153 0.01437173 0.04040695
v 0.00977651 0.01437173 0.03997214
v 0.01080946 0.01360664 0.03970853
v 0.01073162 0.01250785 0.03968332
v 0.00977651 0.01360664 0.03993748
v 0.00867769 0.01360664 0.04008242
v 0.00724652 0.01437173 0.04030612
v 0.00944267 0.01437173 0.04001625
v 0.00834534 0.01437173 0.04016119
f 1 2 6
f 1 6 7
f 1 7 3
f 1 3 9
f 1 9 15
f 1 15 23
f 1 23 32
f 1 32 31
f 1 31 35
f 1 35 34
f 1 34 33
f 1 33 25
f 1 25 24
f 1 24 16
f 1 16 10
f 1 10 4
f 1 4 5
f 1 5 2
f 2 5 11
f 2 11 19
f 2 19 28
f 2 28 37
f 2 37 43
f 2 43 45
f 2 45 44
f 2 44 38
f 2 38 29
f 2 29 20
f 2 20 13
f 2 13 8
f 2 8 12
f 2 12 6
f 3 7 8
f 3 8 9
f 4 10 18
f 4 18 11
f 4 11 5
f 6 12 7
f 7 12 8
f 8 13 14
f 8 14 9
f 9 14 15
f 10 16 17
f 10 17 18
f 11 18 17
f 11 17 19
f 13 20 14
f 14 20 15
f 15 20 21
f 15 21 22
f 15 22 23
f 16 24 17
f 17 24 25
f 17 25 26
f 17 26 27
f 17 27 28
f 17 28 19
f 20 29 30
f 20 30 31
f 20 31 21
f 21 31 22
f 22 31 32
f 22 32 23
f 25 33 26
f 26 33 34
f 26 34 35
f 26 35 36
f 26 36 27
f 27 36 37
f 27 37 28
f 29 38 39
f 29 39 40
f 29 40 30
f 30 40 38
f 30 38 31
f 31 38 41
f 31 41 36
f 31 36 35
f 36 41 42
f 36 42 37
f 37 42 43
f 38 44 41
f 38 40 39
f 41 44 45
f 41 45 43
f 41 43 42

