# https://github.com/mikedh/trimesh
v 0.02649198 0.00736381 0.00761196
v 0.01978063 0.00736381 0.01922991
v 0.03440661 0.01019830 0.00761196
v 0.03993454 0.00736381 0.00761196
v 0.02950414 0.01019830 0.01922991
v 0.03596531 0.00736381 0.01922991
v 0.04006559 0.01019830 0.00761196
v 0.03996631 0.00805058 0.00761196
v 0.03974193 0.00811357 0.00933941
v 0.03970619 0.00736381 0.00933941
v 0.03601693 0.01019830 0.01922991
v 0.03890798 0.00736381 0.01212677
v 0.03605665 0.00920713 0.01922991
v 0.03983725 0.01019830 0.00933941
v 0.03981739 0.01019830 0.00945200
v 0.03964265 0.01019830 0.01043798
v 0.03954337 0.00811357 0.01043798
v 0.03950565 0.00736381 0.01043798
v 0.03610629 0.01019830 0.01922650
v 0.03912441 0.00736381 0.01160364
v 0.03924355 0.00921185 0.01153654
v 0.03895365 0.00921185 0.01223708
v 0.03674168 0.01019830 0.01769351
v 0.03960691 0.01019830 0.01055057
v 0.03929120 0.01019830 0.01153654
v 0.03918795 0.00811357 0.01153654
v 0.03897748 0.01019830 0.01229621
f 1 2 3
f 1 3 7
f 1 7 8
f 1 8 4
f 1 4 10
f 1 10 18
f 1 18 20
f 1 20 12
f 1 12 6
f 1 6 2
f 2 5 3
f 2 6 13
f 2 13 11
f 2 11 5
f 3 5 11
f 3 11 19
f 3 19 23
f 3 23 27
f 3 27 25
f 3 25 24
f 3 24 16
f 3 16 15
f 3 15 14
f 3 14 7
f 4 8 9
f 4 9 10
f 6 12 13
f 7 14 9
f 7 9 8
f 9 14 15
f 9 15 16
f 9 16 17
f 9 17 10
f 10 17 18
f 11 13 19
f 12 20 21
f 12 21 22
f 12 22 13
f 13 22 23
f 13 23 19
f 16 24 17
f 17 24 25
f 17 25 21
f 17 21 18
f 18 21 26
f 18 26 20
f 20 26 21
f 21 25 27
f 21 27 22
f 22 27 23

