mtllib material.mtl
usemtl material_0
v -0.27245000 -0.12745000 0.10910000
v -0.26657000 -0.13333000 0.10910000
v -0.26657000 -0.12745000 0.10323000
v -0.27245000 0.16671000 0.10920000
v -0.26657000 0.16671000 0.10333000
v -0.26657000 0.17258000 0.10921000
v 0.26658000 -0.13333000 0.10910000
v 0.27246000 -0.12745000 0.10910000
v 0.26658000 -0.12745000 0.10323000
v 0.26658000 0.17258000 0.10921000
v 0.26658000 0.16671000 0.10333000
v 0.27246000 0.16671000 0.10920000
v -0.27245000 0.16671000 0.12243000
v -0.26657000 0.17258000 0.12244000
v -0.26657000 0.16670000 0.12831000
v -0.27245000 -0.12746000 0.12233000
v -0.26657000 -0.12746000 0.12821000
v -0.26657000 -0.13333000 0.12233000
v 0.26658000 -0.13333000 0.12233000
v 0.26658000 -0.12746000 0.12821000
v 0.27246000 -0.12746000 0.12233000
v 0.26658000 0.17258000 0.12244000
v 0.27246000 0.16671000 0.12243000
v 0.26658000 0.16670000 0.12831000
v -0.26657000 -0.13333000 0.10910000
v -0.26657000 -0.13333000 0.12233000
v 0.26658000 -0.13333000 0.12233000
v 0.26658000 -0.13333000 0.10910000
v 0.26658000 -0.12746000 0.12821000
v -0.26657000 -0.12746000 0.12821000
v -0.26657000 0.16670000 0.12831000
v 0.26658000 0.16670000 0.12831000
v -0.25657000 -0.11745000 0.10323000
v -0.25657000 -0.11737000 -0.12954000
v -0.25657000 0.15679000 -0.12945000
v -0.25657000 0.15671000 0.10333000
v 0.26658000 0.17258000 0.10921000
v 0.26658000 0.17258000 0.12244000
v -0.26657000 0.17258000 0.12244000
v -0.26657000 0.17258000 0.10921000
v -0.27245000 0.16671000 0.10920000
v -0.27245000 0.16671000 0.12243000
v -0.27245000 -0.12746000 0.12233000
v -0.27245000 -0.12745000 0.10910000
v 0.27246000 -0.12745000 0.10910000
v 0.27246000 -0.12746000 0.12233000
v 0.27246000 0.16671000 0.12243000
v 0.27246000 0.16671000 0.10920000
v -0.26657000 0.16671000 0.10333000
v -0.27245000 0.16671000 0.10920000
v -0.27245000 -0.12745000 0.10910000
v -0.26657000 -0.12745000 0.10323000
v -0.26657000 -0.12745000 0.10323000
v -0.26657000 -0.13333000 0.10910000
v 0.26658000 -0.13333000 0.10910000
v 0.26658000 -0.12745000 0.10323000
v 0.26658000 0.16671000 0.10333000
v 0.26658000 0.17258000 0.10921000
v -0.26657000 0.17258000 0.10921000
v -0.26657000 0.16671000 0.10333000
v 0.27246000 0.16671000 0.10920000
v 0.26658000 0.16671000 0.10333000
v 0.26658000 -0.12745000 0.10323000
v 0.27246000 -0.12745000 0.10910000
v -0.27245000 0.16671000 0.12243000
v -0.26657000 0.16670000 0.12831000
v -0.26657000 -0.12746000 0.12821000
v -0.27245000 -0.12746000 0.12233000
v -0.26657000 -0.13333000 0.12233000
v -0.26657000 -0.12746000 0.12821000
v 0.26658000 -0.12746000 0.12821000
v 0.26658000 -0.13333000 0.12233000
v 0.26658000 0.17258000 0.12244000
v 0.26658000 0.16670000 0.12831000
v -0.26657000 0.16670000 0.12831000
v -0.26657000 0.17258000 0.12244000
v 0.26658000 0.16670000 0.12831000
v 0.27246000 0.16671000 0.12243000
v 0.27246000 -0.12746000 0.12233000
v 0.26658000 -0.12746000 0.12821000
v 0.26658000 0.17258000 0.10921000
v 0.27246000 0.16671000 0.10920000
v 0.27246000 0.16671000 0.12243000
v 0.26658000 0.17258000 0.12244000
v 0.26658000 -0.13333000 0.12233000
v 0.27246000 -0.12746000 0.12233000
v 0.27246000 -0.12745000 0.10910000
v 0.26658000 -0.13333000 0.10910000
v -0.26657000 -0.13333000 0.10910000
v -0.27245000 -0.12745000 0.10910000
v -0.27245000 -0.12746000 0.12233000
v -0.26657000 -0.13333000 0.12233000
v -0.26657000 0.17258000 0.12244000
v -0.27245000 0.16671000 0.12243000
v -0.27245000 0.16671000 0.10920000
v -0.26657000 0.17258000 0.10921000
v -0.25657000 0.15671000 0.10333000
v -0.26657000 0.16671000 0.10333000
v -0.26657000 -0.12745000 0.10323000
v -0.25657000 -0.11745000 0.10323000
v 0.26658000 -0.12745000 0.10323000
v 0.25658000 -0.11745000 0.10323000
v 0.25658000 0.15671000 0.10333000
v -0.26657000 0.16671000 0.10333000
v -0.25657000 0.15671000 0.10333000
v 0.26658000 0.16671000 0.10333000
v 0.25658000 -0.11745000 0.10323000
v 0.26658000 -0.12745000 0.10323000
v 0.25658000 -0.11737000 -0.12954000
v 0.25658000 0.15679000 -0.12945000
v -0.25657000 0.15679000 -0.12945000
v -0.25657000 -0.11737000 -0.12954000
v 0.25658000 -0.11745000 0.10323000
v 0.25658000 -0.11737000 -0.12954000
v -0.25657000 -0.11737000 -0.12954000
v -0.25657000 -0.11745000 0.10323000
v 0.25658000 0.15671000 0.10333000
v 0.25658000 0.15679000 -0.12945000
v 0.25658000 -0.11737000 -0.12954000
v 0.25658000 -0.11745000 0.10323000
v 0.23883000 0.15672000 0.08558000
v -0.25657000 0.15671000 0.10333000
v -0.23882000 0.15672000 0.08558000
v 0.25658000 0.15671000 0.10333000
v 0.23883000 0.15679000 -0.11170000
v 0.25658000 0.15679000 -0.12945000
v -0.23882000 0.15679000 -0.11170000
v 0.25658000 0.15679000 -0.12945000
v 0.23883000 0.15679000 -0.11170000
v -0.25657000 0.15679000 -0.12945000
v -0.23882000 0.15672000 0.08558000
v -0.25657000 0.15671000 0.10333000
v -0.23882000 -0.10001000 0.08549000
v -0.23882000 -0.09994000 -0.11179000
v 0.23883000 -0.09994000 -0.11179000
v 0.23883000 -0.10001000 0.08549000
v -0.23882000 0.15679000 -0.11170000
v -0.23882000 -0.09994000 -0.11179000
v -0.23882000 -0.10001000 0.08549000
v -0.23882000 0.15672000 0.08558000
v 0.23883000 0.15672000 0.08558000
v 0.23883000 -0.10001000 0.08549000
v 0.23883000 -0.09994000 -0.11179000
v 0.23883000 0.15679000 -0.11170000
v 0.23883000 0.15679000 -0.11170000
v 0.23883000 -0.09994000 -0.11179000
v -0.23882000 -0.09994000 -0.11179000
v -0.23882000 0.15679000 -0.11170000
v -0.23882000 0.15672000 0.08558000
v -0.23882000 -0.10001000 0.08549000
v 0.23883000 -0.10001000 0.08549000
v 0.23883000 0.15672000 0.08558000
vn -0.57735030 -0.57715070 -0.57754980
vn -0.57735030 -0.57715070 -0.57754980
vn -0.57735030 -0.57715070 -0.57754980
vn -0.57735030 0.57754980 -0.57715070
vn -0.57735030 0.57754980 -0.57715070
vn -0.57735030 0.57754980 -0.57715070
vn 0.57735030 -0.57715070 -0.57754980
vn 0.57735030 -0.57715070 -0.57754980
vn 0.57735030 -0.57715070 -0.57754980
vn 0.57735030 0.57754980 -0.57715070
vn 0.57735030 0.57754980 -0.57715070
vn 0.57735030 0.57754980 -0.57715070
vn -0.57734840 0.57715070 0.57755170
vn -0.57734840 0.57715070 0.57755170
vn -0.57734840 0.57715070 0.57755170
vn -0.57735090 -0.57754840 0.57715140
vn -0.57735090 -0.57754840 0.57715140
vn -0.57735090 -0.57754840 0.57715140
vn 0.57735090 -0.57754840 0.57715140
vn 0.57735090 -0.57754840 0.57715140
vn 0.57735090 -0.57754840 0.57715140
vn 0.57734840 0.57715070 0.57755170
vn 0.57734840 0.57715070 0.57755170
vn 0.57734840 0.57715070 0.57755170
vn 0.00000000 -1.00000000 -0.00034558
vn 0.00000000 -1.00000000 -0.00034558
vn 0.00000000 -1.00000000 -0.00034558
vn 0.00000000 -1.00000000 -0.00034558
vn 0.00000000 -0.00034558 1.00000000
vn 0.00000000 -0.00034558 1.00000000
vn 0.00000000 -0.00034558 1.00000000
vn 0.00000000 -0.00034558 1.00000000
vn -1.00000000 0.00000000 0.00000000
vn -1.00000000 0.00000000 0.00000000
vn -1.00000000 0.00000000 0.00000000
vn -1.00000000 0.00000000 0.00000000
vn 0.00000000 1.00000000 0.00034558
vn 0.00000000 1.00000000 0.00034558
vn 0.00000000 1.00000000 0.00034558
vn 0.00000000 1.00000000 0.00034558
vn -1.00000000 0.00000000 0.00000000
vn -1.00000000 0.00000000 0.00000000
vn -1.00000000 0.00000000 0.00000000
vn -1.00000000 0.00000000 0.00000000
vn 1.00000000 0.00000000 0.00000000
vn 1.00000000 0.00000000 0.00000000
vn 1.00000000 0.00000000 0.00000000
vn 1.00000000 0.00000000 0.00000000
vn -0.70710610 0.00024436 -0.70710740
vn -0.70710610 0.00024436 -0.70710740
vn -0.70710610 0.00024436 -0.70710740
vn -0.70710610 0.00024436 -0.70710740
vn 0.00000000 -0.70686230 -0.70735130
vn 0.00000000 -0.70686230 -0.70735130
vn 0.00000000 -0.70686230 -0.70735130
vn 0.00000000 -0.70686230 -0.70735130
vn 0.00000000 0.70735090 -0.70686260
vn 0.00000000 0.70735090 -0.70686260
vn 0.00000000 0.70735090 -0.70686260
vn 0.00000000 0.70735090 -0.70686260
vn 0.70710610 0.00024436 -0.70710740
vn 0.70710610 0.00024436 -0.70710740
vn 0.70710610 0.00024436 -0.70710740
vn 0.70710610 0.00024436 -0.70710740
vn -0.70710580 -0.00024436 0.70710770
vn -0.70710580 -0.00024436 0.70710770
vn -0.70710580 -0.00024436 0.70710770
vn -0.70710580 -0.00024436 0.70710770
vn 0.00000000 -0.70735010 0.70686340
vn 0.00000000 -0.70735010 0.70686340
vn 0.00000000 -0.70735010 0.70686340
vn 0.00000000 -0.70735010 0.70686340
vn 0.00000000 0.70686140 0.70735200
vn 0.00000000 0.70686140 0.70735200
vn 0.00000000 0.70686140 0.70735200
vn 0.00000000 0.70686140 0.70735200
vn 0.70710580 -0.00024436 0.70710770
vn 0.70710580 -0.00024436 0.70710770
vn 0.70710580 -0.00024436 0.70710770
vn 0.70710580 -0.00024436 0.70710770
vn 0.70710680 0.70710680 0.00024436
vn 0.70710680 0.70710680 0.00024436
vn 0.70710680 0.70710680 0.00024436
vn 0.70710680 0.70710680 0.00024436
vn 0.70710620 -0.70710720 -0.00024436
vn 0.70710620 -0.70710720 -0.00024436
vn 0.70710620 -0.70710720 -0.00024436
vn 0.70710620 -0.70710720 -0.00024436
vn -0.70710620 -0.70710720 -0.00024436
vn -0.70710620 -0.70710720 -0.00024436
vn -0.70710620 -0.70710720 -0.00024436
vn -0.70710620 -0.70710720 -0.00024436
vn -0.70710680 0.70710680 0.00024436
vn -0.70710680 0.70710680 0.00024436
vn -0.70710680 0.70710680 0.00024436
vn -0.70710680 0.70710680 0.00024436
vn 0.00000000 0.00034558 -1.00000000
vn 0.00000000 0.00034558 -1.00000000
vn 0.00000000 0.00034558 -1.00000000
vn 0.00000000 0.00034558 -1.00000000
vn 0.00000000 0.00034700 -1.00000000
vn 0.00000000 0.00034700 -1.00000000
vn 0.00000000 0.00034415 -1.00000000
vn 0.00000000 0.00034558 -1.00000000
vn 0.00000000 0.00034558 -1.00000000
vn 0.00000000 0.00034415 -1.00000000
vn 0.00000000 0.00034700 -1.00000000
vn 0.00000000 0.00034700 -1.00000000
vn 0.00000000 0.00034558 -1.00000000
vn 0.00000000 0.00034558 -1.00000000
vn 0.00000000 0.00034558 -1.00000000
vn 0.00000000 0.00034558 -1.00000000
vn 0.00000000 -1.00000000 -0.00034558
vn 0.00000000 -1.00000000 -0.00034558
vn 0.00000000 -1.00000000 -0.00034558
vn 0.00000000 -1.00000000 -0.00034558
vn 1.00000000 0.00000000 0.00000000
vn 1.00000000 0.00000000 0.00000000
vn 1.00000000 0.00000000 0.00000000
vn 1.00000000 0.00000000 0.00000000
vn 0.00000000 1.00000000 0.00034558
vn 0.00000000 1.00000000 0.00034558
vn 0.00000000 1.00000000 0.00034558
vn 0.00000000 1.00000000 0.00034558
vn 0.00000000 1.00000000 0.00034558
vn 0.00000000 1.00000000 0.00034558
vn 0.00000000 1.00000000 0.00034558
vn 0.00000000 1.00000000 0.00034558
vn 0.00000000 1.00000000 0.00034558
vn 0.00000000 1.00000000 0.00034558
vn 0.00000000 1.00000000 0.00034558
vn 0.00000000 1.00000000 0.00034558
vn 0.00000000 1.00000000 0.00034558
vn 0.00000000 1.00000000 0.00034558
vn 0.00000000 1.00000000 0.00034558
vn 0.00000000 1.00000000 0.00034558
vn 1.00000000 0.00000000 0.00000000
vn 1.00000000 0.00000000 0.00000000
vn 1.00000000 0.00000000 0.00000000
vn 1.00000000 0.00000000 0.00000000
vn -1.00000000 0.00000000 0.00000000
vn -1.00000000 0.00000000 0.00000000
vn -1.00000000 0.00000000 0.00000000
vn -1.00000000 0.00000000 0.00000000
vn 0.00000000 -0.00034570 1.00000000
vn 0.00000000 -0.00034570 1.00000000
vn 0.00000000 -0.00034570 1.00000000
vn 0.00000000 -0.00034570 1.00000000
vn 0.00000000 0.00034558 -1.00000000
vn 0.00000000 0.00034558 -1.00000000
vn 0.00000000 0.00034558 -1.00000000
vn 0.00000000 0.00034558 -1.00000000
vt 0.82720020 0.26403520
vt 0.83013750 0.26403520
vt 0.83013750 0.26697250
vt 0.82720020 0.26403520
vt 0.83013750 0.26697250
vt 0.83013750 0.26403520
vt 0.26403520 0.51345450
vt 0.26403520 0.51639180
vt 0.26697250 0.51639180
vt 0.09671378 0.26403520
vt 0.09671378 0.26697250
vt 0.09965110 0.26403520
vt 0.82720020 0.25742100
vt 0.83013750 0.25742100
vt 0.83013750 0.25448370
vt 0.82720020 0.25742100
vt 0.83013750 0.25448370
vt 0.83013750 0.25742100
vt 0.25742100 0.51345450
vt 0.25448370 0.51639180
vt 0.25742100 0.51639180
vt 0.09671378 0.25742100
vt 0.09965110 0.25742100
vt 0.09671378 0.25448370
vt 0.83013750 0.26403520
vt 0.83013750 0.25742100
vt 1.09671400 0.25742100
vt 1.09671400 0.26403520
vt 0.09671378 0.51639180
vt -0.16986250 0.51639180
vt -0.16986250 0.66347320
vt 0.09671378 0.66347320
vt 0.26697250 0.52139180
vt 0.38335990 0.52139180
vt 0.38335990 0.65847330
vt 0.26697250 0.65847330
vt 0.09671378 0.26403520
vt 0.09671378 0.25742100
vt -0.16986250 0.25742100
vt -0.16986250 0.26403520
vt 0.26403520 0.66347320
vt 0.25742100 0.66347320
vt 0.25742100 0.51639180
vt 0.26403520 0.51639180
vt 0.26403520 0.51639180
vt 0.25742100 0.51639180
vt 0.25742100 0.66347320
vt 0.26403520 0.66347320
vt 0.83013750 0.66347320
vt 0.82720020 0.66347320
vt 0.82720020 0.51639180
vt 0.83013750 0.51639180
vt 0.83013750 0.26697250
vt 0.83013750 0.26403520
vt 1.09671400 0.26403520
vt 1.09671400 0.26697250
vt 0.09671378 0.26697250
vt 0.09671378 0.26403520
vt -0.16986250 0.26403520
vt -0.16986250 0.26697250
vt 0.26403520 0.66347320
vt 0.26697250 0.66347320
vt 0.26697250 0.51639180
vt 0.26403520 0.51639180
vt 0.82720020 0.66347320
vt 0.83013750 0.66347320
vt 0.83013750 0.51639180
vt 0.82720020 0.51639180
vt 0.83013750 0.25742100
vt 0.83013750 0.25448370
vt 1.09671400 0.25448370
vt 1.09671400 0.25742100
vt 0.09671378 0.25742100
vt 0.09671378 0.25448370
vt -0.16986250 0.25448370
vt -0.16986250 0.25742100
vt 0.25448370 0.66347320
vt 0.25742100 0.66347320
vt 0.25742100 0.51639180
vt 0.25448370 0.51639180
vt 0.09671378 0.26403520
vt 0.09965110 0.26403520
vt 0.09965110 0.25742100
vt 0.09671378 0.25742100
vt 0.25742100 0.51345450
vt 0.25742100 0.51639180
vt 0.26403520 0.51639180
vt 0.26403520 0.51345450
vt 0.83013750 0.26403520
vt 0.82720020 0.26403520
vt 0.82720020 0.25742100
vt 0.83013750 0.25742100
vt 0.83013750 0.25742100
vt 0.82720020 0.25742100
vt 0.82720020 0.26403520
vt 0.83013750 0.26403520
vt 0.83513750 0.65847330
vt 0.83013750 0.66347320
vt 0.83013750 0.51639180
vt 0.83513750 0.52139180
vt 1.09671400 0.51639180
vt 1.09171400 0.52139180
vt 0.09171391 0.65847330
vt -0.16986250 0.66347320
vt -0.16486250 0.65847330
vt 0.09671378 0.66347320
vt 0.09171391 0.52139180
vt 0.09671378 0.51639180
vt 0.09171391 0.52139180
vt 0.09171391 0.65847330
vt -0.16486250 0.65847330
vt -0.16486250 0.52139180
vt 0.09171391 0.26697250
vt 0.09171391 0.38335990
vt -0.16486250 0.38335990
vt -0.16486250 0.26697250
vt 0.26697250 0.65847330
vt 0.38335990 0.65847330
vt 0.38335990 0.52139180
vt 0.26697250 0.52139180
vt 0.08283973 0.27584650
vt -0.16486250 0.26697250
vt -0.15598850 0.27584650
vt 0.09171391 0.26697250
vt 0.08283973 0.37448600
vt 0.09171391 0.38335990
vt 0.84401150 0.37448600
vt 1.09171400 0.38335990
vt 1.08284000 0.37448600
vt 0.83513750 0.38335990
vt 0.84401150 0.27584650
vt 0.83513750 0.26697250
vt 0.84401150 0.27584650
vt 0.84401150 0.37448600
vt 1.08284000 0.37448600
vt 1.08284000 0.27584650
vt 0.37448600 0.65847330
vt 0.37448600 0.53010820
vt 0.27584650 0.53010820
vt 0.27584650 0.65847330
vt 0.27584650 0.65847330
vt 0.27584650 0.53010820
vt 0.37448600 0.53010820
vt 0.37448600 0.65847330
vt 0.08283973 0.65847330
vt 0.08283973 0.53010820
vt -0.15598850 0.53010820
vt -0.15598850 0.65847330
vt 0.84401150 0.65847330
vt 0.84401150 0.53010820
vt 1.08284000 0.53010820
vt 1.08284000 0.65847330
f 3/3/3 2/2/2 1/1/1
f 6/6/6 5/5/5 4/4/4
f 9/9/9 8/8/8 7/7/7
f 12/12/12 11/11/11 10/10/10
f 15/15/15 14/14/14 13/13/13
f 18/18/18 17/17/17 16/16/16
f 21/21/21 20/20/20 19/19/19
f 24/24/24 23/23/23 22/22/22
f 27/27/27 26/26/26 25/25/25
f 28/28/28 27/27/27 25/25/25
f 31/31/31 30/30/30 29/29/29
f 32/32/32 31/31/31 29/29/29
f 35/35/35 34/34/34 33/33/33
f 36/36/36 35/35/35 33/33/33
f 39/39/39 38/38/38 37/37/37
f 40/40/40 39/39/39 37/37/37
f 43/43/43 42/42/42 41/41/41
f 44/44/44 43/43/43 41/41/41
f 47/47/47 46/46/46 45/45/45
f 48/48/48 47/47/47 45/45/45
f 51/51/51 50/50/50 49/49/49
f 52/52/52 51/51/51 49/49/49
f 55/55/55 54/54/54 53/53/53
f 56/56/56 55/55/55 53/53/53
f 59/59/59 58/58/58 57/57/57
f 60/60/60 59/59/59 57/57/57
f 63/63/63 62/62/62 61/61/61
f 64/64/64 63/63/63 61/61/61
f 67/67/67 66/66/66 65/65/65
f 68/68/68 67/67/67 65/65/65
f 71/71/71 70/70/70 69/69/69
f 72/72/72 71/71/71 69/69/69
f 75/75/75 74/74/74 73/73/73
f 76/76/76 75/75/75 73/73/73
f 79/79/79 78/78/78 77/77/77
f 80/80/80 79/79/79 77/77/77
f 83/83/83 82/82/82 81/81/81
f 84/84/84 83/83/83 81/81/81
f 87/87/87 86/86/86 85/85/85
f 88/88/88 87/87/87 85/85/85
f 91/91/91 90/90/90 89/89/89
f 92/92/92 91/91/91 89/89/89
f 95/95/95 94/94/94 93/93/93
f 96/96/96 95/95/95 93/93/93
f 99/99/99 98/98/98 97/97/97
f 100/100/100 99/99/99 97/97/97
f 101/101/101 99/99/99 100/100/100
f 102/102/102 101/101/101 100/100/100
f 105/105/105 104/104/104 103/103/103
f 104/104/104 106/106/106 103/103/103
f 103/103/103 106/106/106 107/107/107
f 106/106/106 108/108/108 107/107/107
f 111/111/111 110/110/110 109/109/109
f 112/112/112 111/111/111 109/109/109
f 115/115/115 114/114/114 113/113/113
f 116/116/116 115/115/115 113/113/113
f 119/119/119 118/118/118 117/117/117
f 120/120/120 119/119/119 117/117/117
f 123/123/123 122/122/122 121/121/121
f 122/122/122 124/124/124 121/121/121
f 121/121/121 124/124/124 125/125/125
f 124/124/124 126/126/126 125/125/125
f 129/129/129 128/128/128 127/127/127
f 128/128/128 130/130/130 127/127/127
f 127/127/127 130/130/130 131/131/131
f 130/130/130 132/132/132 131/131/131
f 135/135/135 134/134/134 133/133/133
f 136/136/136 135/135/135 133/133/133
f 139/139/139 138/138/138 137/137/137
f 140/140/140 139/139/139 137/137/137
f 143/143/143 142/142/142 141/141/141
f 144/144/144 143/143/143 141/141/141
f 147/147/147 146/146/146 145/145/145
f 148/148/148 147/147/147 145/145/145
f 151/151/151 150/150/150 149/149/149
f 152/152/152 151/151/151 149/149/149

