# Blender 4.0.0
# www.blender.org
o decimated_mesh
v 0.005559 0.025323 -0.000373
v 0.001907 0.023491 -0.000335
v 0.001907 0.023440 0.000395
v 0.005559 0.025388 0.000153
v 0.001907 0.023155 -0.000540
v 0.005559 0.024987 0.000583
v 0.001907 0.023165 0.000556
v 0.001907 0.022617 -0.000507
v 0.005559 0.024507 -0.000656
v 0.004785 0.022407 -0.000683
v 0.001907 0.022790 0.000542
v 0.005560 0.024322 0.000720
v 0.005559 0.023847 -0.000678
v 0.001907 0.022433 -0.000196
v 0.005124 0.022416 -0.000543
v 0.004615 0.022410 0.000688
v 0.001907 0.022459 0.000354
v 0.005560 0.023015 -0.000475
v 0.005330 0.022410 -0.000221
v 0.005375 0.022410 0.000349
v 0.005559 0.022846 0.000431
v 0.005559 0.022649 0.000201
vn -0.4466 0.8881 -0.1092
vn -0.0240 -0.9986 0.0467
vn 1.0000 0.0002 0.0001
vn -0.2608 0.5030 -0.8240
vn -0.3263 0.6923 0.6436
vn -0.1070 0.1996 0.9740
vn -0.0439 0.0329 -0.9985
vn -0.1498 0.3244 -0.9340
vn -0.0933 -0.8577 -0.5056
vn -0.2495 0.4874 0.8368
vn -0.1154 -0.4911 0.8634
vn 0.3848 -0.3245 0.8641
vn -0.4073 0.2159 0.8874
vn 0.8343 -0.4193 0.3580
vn -0.4664 0.8825 0.0609
vn 0.7722 -0.6324 -0.0605
vn 1.0000 -0.0001 -0.0000
vn 1.0000 0.0010 -0.0004
vn 1.0000 -0.0011 -0.0006
vn 1.0000 -0.0005 0.0002
vn 1.0000 -0.0003 0.0002
vn 1.0000 0.0008 -0.0013
vn -0.0089 -1.0000 0.0007
vn -0.0224 0.9997 -0.0045
vn -0.0009 1.0000 -0.0009
vn 0.0130 0.9999 0.0101
vn -1.0000 -0.0013 -0.0028
vn -1.0000 -0.0021 0.0010
vn 1.0000 -0.0000 -0.0000
vn -1.0000 0.0002 -0.0002
vn -1.0000 -0.0001 0.0005
vn 0.7344 -0.4795 -0.4804
vn -0.0427 0.0262 -0.9987
vn -0.0652 -0.0608 -0.9960
vn 0.3350 -0.1810 0.9247
vn -0.3791 0.1726 0.9091
vn -0.0469 0.0064 0.9989
vn -0.0588 -0.0365 0.9976
vn 0.8736 -0.4279 -0.2317
vn 1.0000 0.0013 0.0014
vn 1.0000 0.0006 -0.0001
vn 1.0000 -0.0005 0.0004
vn 1.0000 -0.0005 0.0001
vn 1.0000 0.0001 -0.0005
vn 1.0000 0.0001 0.0001
vn 1.0000 0.0002 -0.0001
vn -0.4302 0.2134 0.8771
vn 1.0000 -0.0008 -0.0081
vn -0.0014 1.0000 -0.0019
vn -0.0036 1.0000 -0.0006
vn -0.0433 0.9980 0.0462
vn -0.3777 0.1999 0.9041
s 0
f 4//1 1//1 2//1
f 16//2 17//2 14//2
f 11//3 5//3 3//3
f 2//4 1//4 5//4
f 4//5 3//5 6//5
f 12//6 6//6 7//6
f 5//7 9//7 13//7
f 1//8 9//8 5//8
f 8//9 10//9 14//9
f 6//10 3//10 7//10
f 11//11 17//11 16//11
f 21//12 16//12 20//12
f 10//13 18//13 13//13
f 20//14 22//14 21//14
f 3//15 4//15 2//15
f 19//16 22//16 20//16
f 4//17 6//17 9//17
f 6//18 12//18 9//18
f 9//19 12//19 13//19
f 12//20 21//20 18//20
f 21//21 22//21 18//21
f 18//22 13//22 12//22
f 4//17 9//17 1//17
f 14//23 10//23 16//23
f 10//24 16//24 15//24
f 20//25 19//25 16//25
f 19//26 15//26 16//26
f 5//27 8//27 14//27
f 14//28 17//28 11//28
f 5//29 11//29 14//29
f 3//30 2//30 5//30
f 11//31 7//31 3//31
f 19//32 15//32 18//32
f 13//33 10//33 5//33
f 10//34 8//34 5//34
f 21//35 12//35 16//35
f 18//36 10//36 15//36
f 16//37 12//37 7//37
f 7//38 11//38 16//38
f 19//39 18//39 22//39
f 6//40 12//40 4//40
f 12//41 1//41 4//41
f 21//42 22//42 12//42
f 22//43 18//43 12//43
f 18//44 9//44 12//44
f 9//44 1//44 12//44
f 5//45 3//45 14//45
f 14//46 3//46 11//46
f 15//47 18//47 13//47
f 13//48 9//48 18//48
f 10//49 16//49 20//49
f 10//50 20//50 19//50
f 10//51 19//51 15//51
f 10//52 15//52 13//52
