# https://github.com/mikedh/trimesh

o hand.stl
v -0.09097964 0.01673743 0.03022284
v 0.08842051 0.01713676 0.02940537
v -0.00029220 0.03159231 -0.02799479
v 0.09467406 -0.01705116 -0.01208782
v 0.09705690 -0.01750787 0.01745714
v 0.00113579 -0.03159499 -0.03305609
v -0.07662043 -0.02597847 -0.03929125
v -0.00027199 -0.03163340 -0.02823594
v 0.09595154 0.01703567 -0.00388698
v 0.00101014 0.03161830 -0.03302931
v 0.09655633 0.01758761 0.01777563
v -0.09545266 0.01855838 0.02240827
v 0.09105541 -0.01680166 -0.02791353
v 0.08668218 -0.01680973 -0.03541547
v 0.09868681 0.01623262 0.01737507
v 0.10313900 -0.00003858 -0.02851814
v 0.10289198 -0.00001477 -0.04340832
v 0.10030710 -0.00361426 -0.04681934
v 0.10174713 -0.00342705 -0.04317332
v -0.08291583 -0.02526784 -0.02901198
v -0.04263502 -0.02800835 -0.04060542
v -0.09365921 -0.00011005 0.03175313
v -0.09456321 -0.01256419 0.03095945
v -0.09212718 -0.01441943 0.03148072
v 0.08984960 -0.01725215 0.02887299
v 0.08985561 -0.01546920 0.03098108
v -0.09110292 -0.01676472 0.03012318
v 0.09075220 0.01695804 -0.02864619
v 0.09299686 0.01760967 0.02423947
v 0.09933680 0.01250819 0.02268513
v -0.10105050 0.01555345 0.02046358
v -0.09934428 0.01927135 0.01073272
v -0.10113593 0.01622091 0.01166075
v 0.04466922 0.00191995 -0.05986845
v -0.04289306 0.02801760 -0.04055862
v 0.08211547 0.00381285 -0.05865835
v -0.09454256 0.02067340 0.00909927
v -0.08203122 0.02545046 -0.03070841
v 0.08273519 -0.00363431 -0.05881528
v 0.08138556 -0.01653018 -0.03932713
v 0.09924041 -0.01401461 0.02181793
v 0.09877792 -0.01601062 0.01509241
v 0.08691527 -0.00321258 -0.05809341
v 0.09164504 -0.01298542 0.03150293
v 0.09209460 -0.00050313 0.03174409
v -0.09352286 0.01354210 0.03147886
v 0.09107629 0.01342732 0.03152229
v -0.09811129 -0.01922670 0.01637941
v 0.08428146 0.01656073 -0.03808175
v 0.10186493 0.00349728 -0.04223836
v -0.09125212 0.02387168 -0.02984078
v -0.09458627 0.02271032 -0.01986900
v -0.07614830 0.02603683 -0.03923987
v -0.07522826 0.02481927 -0.04136472
v 0.04501913 -0.00149764 -0.06013382
v -0.08111069 -0.00083125 -0.04153074
v -0.07875209 0.02296162 -0.04160806
v -0.08102508 -0.02275861 -0.04111856
v 0.09860071 0.00003432 -0.05137022
v 0.09770327 -0.01662964 0.02052492
v 0.10034396 0.00360463 -0.04683665
v -0.09832177 -0.00161421 0.02809832
v 0.09092886 0.01572089 0.03070352
v -0.09286624 -0.01844616 0.02418415
v 0.08712403 -0.00062449 -0.05917062
v 0.08712218 0.00307851 -0.05818774
v -0.09786178 0.01980457 -0.01329504
v -0.10088545 0.00994407 0.02413178
v -0.09991793 0.01713198 0.02009614
v -0.09546606 -0.00031161 -0.02663436
v -0.09934678 -0.00001342 -0.00712723
v -0.08741234 -0.00033480 -0.03837230
v -0.08910069 0.02231681 -0.03614222
v -0.08420591 0.02237950 -0.03973513
v -0.09177762 -0.02132244 -0.03322922
v -0.08628519 -0.02273026 -0.03832935
v -0.08674307 -0.02449273 -0.03604175
v 0.08315159 0.00184530 -0.05973392
v -0.07751872 -0.02464773 -0.04114114
v 0.09321217 0.01314124 0.03047417
v 0.09913193 -0.00932136 0.02428018
v -0.09854785 -0.01906427 -0.00958154
v -0.10127659 -0.00449187 0.02391007
v -0.10101893 -0.01462058 0.02152590
v 0.09856555 0.01580741 0.02076125
v -0.09518384 0.02134511 -0.02526701
v -0.09184575 -0.00017088 -0.03363224
v -0.09264540 0.02148543 -0.03152489
v -0.08255331 0.02451769 -0.03926044
v -0.08659082 0.02473191 -0.03544071
v -0.09551863 -0.02065512 -0.02467103
v 0.09945077 0.00119310 0.02441411
v 0.09580517 0.00047211 0.02886934
v -0.09375630 0.01539942 0.03034725
v 0.08169775 -0.00086532 -0.06007922
v -0.09201703 -0.02355326 -0.02960110
v 0.09259098 -0.01461452 0.03029103
v -0.09374758 -0.02302357 -0.02433216
v -0.09629242 -0.02181962 -0.01245265
v -0.10036866 -0.01819012 0.00960515
v -0.09405998 -0.01604300 0.02940785
v -0.10021357 -0.01699233 0.01990577
v 0.06555267 -0.01035745 0.02434561
v 0.04173259 -0.01044611 0.02433778
v 0.04168347 0.01038970 0.02432268
v 0.05525085 0.01048197 0.04317915
v 0.06545869 0.01040378 0.02435749
v 0.06436955 0.01039136 0.04337860
v 0.03912576 0.00873291 0.06035583
v 0.06440269 -0.01039796 0.04322757
v 0.05342358 -0.00583731 0.07799443
v 0.05313800 -0.00861356 0.07551890
v 0.05425193 -0.01049230 0.04262657
v 0.03901664 -0.00869026 0.07435721
v 0.03909248 0.00862545 0.07514380
v 0.03905816 0.00548393 0.07791569
v 0.05344240 0.00528043 0.07804002
v 0.05336750 0.00778089 0.07655690
v 0.05306687 0.00884369 0.07478034
v 0.03912868 -0.00613550 0.07776860
v -0.06725410 0.01036248 0.02434561
v -0.04343402 0.01045114 0.02433778
v -0.04338490 -0.01038467 0.02432268
v -0.05695228 -0.01047694 0.04317915
v -0.06716013 -0.01039875 0.02435749
v -0.06607099 -0.01038633 0.04337860
v -0.04082719 -0.00872788 0.06035583
v -0.06610413 0.01040299 0.04322757
v -0.05512501 0.00584234 0.07799443
v -0.05483943 0.00861859 0.07551890
v -0.05595336 0.01049733 0.04262657
v -0.04071807 0.00869529 0.07435721
v -0.04079391 -0.00862042 0.07514380
v -0.04075960 -0.00547890 0.07791569
v -0.05514383 -0.00527540 0.07804002
v -0.05506893 -0.00777586 0.07655690
v -0.05476830 -0.00883866 0.07478034
v -0.04083011 0.00614053 0.07776860
f 1 2 3
f 4 5 6
f 7 6 8
f 9 10 11
f 10 3 11
f 12 1 3
f 13 6 14
f 8 6 5
f 4 6 13
f 15 16 17
f 18 19 13
f 20 7 8
f 21 6 7
f 22 23 24
f 25 26 27
f 28 10 9
f 2 29 3
f 29 11 3
f 30 16 15
f 31 32 33
f 34 35 36
f 37 3 38
f 6 39 40
f 25 8 5
f 41 42 16
f 18 14 43
f 22 24 44
f 44 45 22
f 46 22 45
f 45 47 46
f 20 8 48
f 9 11 15
f 36 10 49
f 50 28 9
f 10 36 35
f 12 37 32
f 37 12 3
f 37 38 51
f 37 52 32
f 52 37 51
f 10 35 53
f 10 53 38
f 10 38 3
f 54 35 34
f 55 56 57
f 56 55 58
f 57 54 34
f 39 6 21
f 59 18 43
f 40 39 43
f 14 40 43
f 14 6 40
f 60 25 5
f 59 61 17
f 42 60 5
f 16 42 17
f 62 22 46
f 22 62 23
f 1 46 63
f 47 63 46
f 25 64 8
f 64 25 27
f 64 48 8
f 65 59 43
f 66 36 49
f 63 2 1
f 33 32 67
f 68 62 46
f 32 69 12
f 70 71 67
f 53 35 54
f 72 73 74
f 75 76 77
f 78 55 34
f 55 79 58
f 4 42 5
f 50 15 17
f 59 17 18
f 7 20 77
f 24 26 44
f 27 26 24
f 45 80 47
f 41 16 81
f 82 71 70
f 62 83 23
f 33 84 83
f 49 28 61
f 61 28 50
f 61 50 17
f 63 85 29
f 85 30 15
f 80 85 63
f 85 80 30
f 9 15 50
f 85 15 11
f 11 29 85
f 83 62 68
f 34 36 78
f 70 67 86
f 71 33 67
f 58 76 72
f 73 87 88
f 72 74 56
f 56 74 57
f 34 55 57
f 21 79 55
f 21 7 79
f 89 73 90
f 39 21 55
f 91 82 70
f 84 23 83
f 28 49 10
f 92 80 93
f 31 33 68
f 68 33 83
f 51 86 52
f 69 32 31
f 46 94 68
f 94 31 68
f 94 12 69
f 76 75 72
f 90 53 89
f 86 51 88
f 75 70 87
f 87 70 88
f 95 55 78
f 39 55 95
f 14 18 13
f 42 41 60
f 19 17 42
f 19 4 13
f 45 93 80
f 92 93 81
f 16 30 92
f 92 81 16
f 96 77 20
f 66 59 65
f 65 78 66
f 59 66 61
f 49 61 66
f 2 63 29
f 80 63 47
f 80 92 30
f 78 36 66
f 94 69 31
f 94 46 1
f 12 94 1
f 70 86 88
f 67 52 86
f 52 67 32
f 57 89 54
f 53 90 38
f 90 51 38
f 75 87 72
f 72 87 73
f 56 58 72
f 42 4 19
f 19 18 17
f 97 81 44
f 81 93 44
f 41 97 60
f 26 97 44
f 98 99 91
f 100 33 71
f 84 33 100
f 96 75 77
f 95 78 65
f 73 89 74
f 53 54 89
f 73 88 51
f 90 73 51
f 41 81 97
f 44 93 45
f 25 97 26
f 101 48 64
f 64 27 101
f 102 48 101
f 96 98 91
f 48 99 20
f 99 98 20
f 98 96 20
f 96 91 75
f 84 101 23
f 27 24 101
f 89 57 74
f 77 76 79
f 79 76 58
f 79 7 77
f 102 84 100
f 91 99 82
f 48 100 99
f 100 48 102
f 75 91 70
f 84 102 101
f 24 23 101
f 43 95 65
f 25 60 97
f 82 100 71
f 43 39 95
f 100 82 99
f 103 104 105
f 105 106 107
f 107 106 108
f 104 109 105
f 110 108 111
f 105 107 103
f 112 113 110
f 113 114 104
f 112 114 113
f 115 105 109
f 104 114 109
f 114 116 109
f 110 113 104
f 110 104 103
f 110 103 108
f 108 117 111
f 118 117 108
f 115 116 118
f 105 115 106
f 110 111 112
f 103 107 108
f 106 119 108
f 119 118 108
f 111 116 120
f 117 116 111
f 114 120 116
f 120 114 112
f 116 115 109
f 118 116 117
f 115 119 106
f 120 112 111
f 118 119 115
f 121 122 123
f 123 124 125
f 125 124 126
f 122 127 123
f 128 126 129
f 123 125 121
f 130 131 128
f 131 132 122
f 130 132 131
f 133 123 127
f 122 132 127
f 132 134 127
f 128 131 122
f 128 122 121
f 128 121 126
f 126 135 129
f 136 135 126
f 133 134 136
f 123 133 124
f 128 129 130
f 121 125 126
f 124 137 126
f 137 136 126
f 129 134 138
f 135 134 129
f 132 138 134
f 138 132 130
f 134 133 127
f 136 134 135
f 133 137 124
f 138 130 129
f 136 137 133

o X_axis_shaft
v 0.00000000 0.00000000 0.00000000
v 0.00000000 0.00000000 -0.00300000
v 0.07000000 0.00000000 -0.00300000
v 0.07000000 0.00000000 0.00000000
v 0.00000000 0.00058527 -0.00294236
v 0.07000000 0.00058527 -0.00294236
v 0.00000000 0.00114805 -0.00277164
v 0.07000000 0.00114805 -0.00277164
v 0.00000000 0.00166671 -0.00249441
v 0.07000000 0.00166671 -0.00249441
v 0.00000000 0.00212132 -0.00212132
v 0.07000000 0.00212132 -0.00212132
v 0.00000000 0.00249441 -0.00166671
v 0.07000000 0.00249441 -0.00166671
v 0.00000000 0.00277164 -0.00114805
v 0.07000000 0.00277164 -0.00114805
v 0.00000000 0.00294236 -0.00058527
v 0.07000000 0.00294236 -0.00058527
v 0.00000000 0.00300000 -0.00000000
v 0.07000000 0.00300000 -0.00000000
v 0.00000000 0.00294236 0.00058527
v 0.07000000 0.00294236 0.00058527
v 0.00000000 0.00277164 0.00114805
v 0.07000000 0.00277164 0.00114805
v 0.00000000 0.00249441 0.00166671
v 0.07000000 0.00249441 0.00166671
v 0.00000000 0.00212132 0.00212132
v 0.07000000 0.00212132 0.00212132
v 0.00000000 0.00166671 0.00249441
v 0.07000000 0.00166671 0.00249441
v 0.00000000 0.00114805 0.00277164
v 0.07000000 0.00114805 0.00277164
v 0.00000000 0.00058527 0.00294236
v 0.07000000 0.00058527 0.00294236
v 0.00000000 0.00000000 0.00300000
v 0.07000000 0.00000000 0.00300000
v 0.00000000 -0.00058527 0.00294236
v 0.07000000 -0.00058527 0.00294236
v 0.00000000 -0.00114805 0.00277164
v 0.07000000 -0.00114805 0.00277164
v 0.00000000 -0.00166671 0.00249441
v 0.07000000 -0.00166671 0.00249441
v 0.00000000 -0.00212132 0.00212132
v 0.07000000 -0.00212132 0.00212132
v 0.00000000 -0.00249441 0.00166671
v 0.07000000 -0.00249441 0.00166671
v 0.00000000 -0.00277164 0.00114805
v 0.07000000 -0.00277164 0.00114805
v 0.00000000 -0.00294236 0.00058527
v 0.07000000 -0.00294236 0.00058527
v 0.00000000 -0.00300000 0.00000000
v 0.07000000 -0.00300000 0.00000000
v 0.00000000 -0.00294236 -0.00058527
v 0.07000000 -0.00294236 -0.00058527
v 0.00000000 -0.00277164 -0.00114805
v 0.07000000 -0.00277164 -0.00114805
v 0.00000000 -0.00249441 -0.00166671
v 0.07000000 -0.00249441 -0.00166671
v 0.00000000 -0.00212132 -0.00212132
v 0.07000000 -0.00212132 -0.00212132
v 0.00000000 -0.00166671 -0.00249441
v 0.07000000 -0.00166671 -0.00249441
v 0.00000000 -0.00114805 -0.00277164
v 0.07000000 -0.00114805 -0.00277164
v 0.00000000 -0.00058527 -0.00294236
v 0.07000000 -0.00058527 -0.00294236
f 140 139 143
f 140 143 141
f 141 143 144
f 141 144 142
f 143 139 145
f 143 145 144
f 144 145 146
f 144 146 142
f 145 139 147
f 145 147 146
f 146 147 148
f 146 148 142
f 147 139 149
f 147 149 148
f 148 149 150
f 148 150 142
f 149 139 151
f 149 151 150
f 150 151 152
f 150 152 142
f 151 139 153
f 151 153 152
f 152 153 154
f 152 154 142
f 153 139 155
f 153 155 154
f 154 155 156
f 154 156 142
f 155 139 157
f 155 157 156
f 156 157 158
f 156 158 142
f 157 139 159
f 157 159 158
f 158 159 160
f 158 160 142
f 159 139 161
f 159 161 160
f 160 161 162
f 160 162 142
f 161 139 163
f 161 163 162
f 162 163 164
f 162 164 142
f 163 139 165
f 163 165 164
f 164 165 166
f 164 166 142
f 165 139 167
f 165 167 166
f 166 167 168
f 166 168 142
f 167 139 169
f 167 169 168
f 168 169 170
f 168 170 142
f 169 139 171
f 169 171 170
f 170 171 172
f 170 172 142
f 171 139 173
f 171 173 172
f 172 173 174
f 172 174 142
f 173 139 175
f 173 175 174
f 174 175 176
f 174 176 142
f 175 139 177
f 175 177 176
f 176 177 178
f 176 178 142
f 177 139 179
f 177 179 178
f 178 179 180
f 178 180 142
f 179 139 181
f 179 181 180
f 180 181 182
f 180 182 142
f 181 139 183
f 181 183 182
f 182 183 184
f 182 184 142
f 183 139 185
f 183 185 184
f 184 185 186
f 184 186 142
f 185 139 187
f 185 187 186
f 186 187 188
f 186 188 142
f 187 139 189
f 187 189 188
f 188 189 190
f 188 190 142
f 189 139 191
f 189 191 190
f 190 191 192
f 190 192 142
f 191 139 193
f 191 193 192
f 192 193 194
f 192 194 142
f 193 139 195
f 193 195 194
f 194 195 196
f 194 196 142
f 195 139 197
f 195 197 196
f 196 197 198
f 196 198 142
f 197 139 199
f 197 199 198
f 198 199 200
f 198 200 142
f 199 139 201
f 199 201 200
f 200 201 202
f 200 202 142
f 201 139 203
f 201 203 202
f 202 203 204
f 202 204 142
f 203 139 140
f 203 140 204
f 204 140 141
f 204 141 142

o X_axis_tip
v 0.08500000 0.00000000 0.00000000
v 0.08500000 0.00000000 -0.00800000
v 0.11500000 0.00000000 0.00000000
v 0.08500000 0.00156072 -0.00784628
v 0.08500000 0.00306147 -0.00739104
v 0.08500000 0.00444456 -0.00665176
v 0.08500000 0.00565685 -0.00565685
v 0.08500000 0.00665176 -0.00444456
v 0.08500000 0.00739104 -0.00306147
v 0.08500000 0.00784628 -0.00156072
v 0.08500000 0.00800000 -0.00000000
v 0.08500000 0.00784628 0.00156072
v 0.08500000 0.00739104 0.00306147
v 0.08500000 0.00665176 0.00444456
v 0.08500000 0.00565685 0.00565685
v 0.08500000 0.00444456 0.00665176
v 0.08500000 0.00306147 0.00739104
v 0.08500000 0.00156072 0.00784628
v 0.08500000 0.00000000 0.00800000
v 0.08500000 -0.00156072 0.00784628
v 0.08500000 -0.00306147 0.00739104
v 0.08500000 -0.00444456 0.00665176
v 0.08500000 -0.00565685 0.00565685
v 0.08500000 -0.00665176 0.00444456
v 0.08500000 -0.00739104 0.00306147
v 0.08500000 -0.00784628 0.00156072
v 0.08500000 -0.00800000 0.00000000
v 0.08500000 -0.00784628 -0.00156072
v 0.08500000 -0.00739104 -0.00306147
v 0.08500000 -0.00665176 -0.00444456
v 0.08500000 -0.00565685 -0.00565685
v 0.08500000 -0.00444456 -0.00665176
v 0.08500000 -0.00306147 -0.00739104
v 0.08500000 -0.00156072 -0.00784628
f 206 205 208
f 206 208 207
f 208 205 209
f 208 209 207
f 209 205 210
f 209 210 207
f 210 205 211
f 210 211 207
f 211 205 212
f 211 212 207
f 212 205 213
f 212 213 207
f 213 205 214
f 213 214 207
f 214 205 215
f 214 215 207
f 215 205 216
f 215 216 207
f 216 205 217
f 216 217 207
f 217 205 218
f 217 218 207
f 218 205 219
f 218 219 207
f 219 205 220
f 219 220 207
f 220 205 221
f 220 221 207
f 221 205 222
f 221 222 207
f 222 205 223
f 222 223 207
f 223 205 224
f 223 224 207
f 224 205 225
f 224 225 207
f 225 205 226
f 225 226 207
f 226 205 227
f 226 227 207
f 227 205 228
f 227 228 207
f 228 205 229
f 228 229 207
f 229 205 230
f 229 230 207
f 230 205 231
f 230 231 207
f 231 205 232
f 231 232 207
f 232 205 233
f 232 233 207
f 233 205 234
f 233 234 207
f 234 205 235
f 234 235 207
f 235 205 236
f 235 236 207
f 236 205 237
f 236 237 207
f 237 205 238
f 237 238 207
f 238 205 206
f 238 206 207

o Y_axis_shaft
v 0.00000000 0.00000000 0.00000000
v 0.00000000 0.00000000 -0.00300000
v 0.00000000 0.07000000 -0.00300000
v 0.00000000 0.07000000 0.00000000
v -0.00058527 0.00000000 -0.00294236
v -0.00058527 0.07000000 -0.00294236
v -0.00114805 0.00000000 -0.00277164
v -0.00114805 0.07000000 -0.00277164
v -0.00166671 0.00000000 -0.00249441
v -0.00166671 0.07000000 -0.00249441
v -0.00212132 0.00000000 -0.00212132
v -0.00212132 0.07000000 -0.00212132
v -0.00249441 0.00000000 -0.00166671
v -0.00249441 0.07000000 -0.00166671
v -0.00277164 0.00000000 -0.00114805
v -0.00277164 0.07000000 -0.00114805
v -0.00294236 0.00000000 -0.00058527
v -0.00294236 0.07000000 -0.00058527
v -0.00300000 0.00000000 -0.00000000
v -0.00300000 0.07000000 -0.00000000
v -0.00294236 0.00000000 0.00058527
v -0.00294236 0.07000000 0.00058527
v -0.00277164 0.00000000 0.00114805
v -0.00277164 0.07000000 0.00114805
v -0.00249441 0.00000000 0.00166671
v -0.00249441 0.07000000 0.00166671
v -0.00212132 0.00000000 0.00212132
v -0.00212132 0.07000000 0.00212132
v -0.00166671 0.00000000 0.00249441
v -0.00166671 0.07000000 0.00249441
v -0.00114805 0.00000000 0.00277164
v -0.00114805 0.07000000 0.00277164
v -0.00058527 0.00000000 0.00294236
v -0.00058527 0.07000000 0.00294236
v -0.00000000 0.00000000 0.00300000
v -0.00000000 0.07000000 0.00300000
v 0.00058527 0.00000000 0.00294236
v 0.00058527 0.07000000 0.00294236
v 0.00114805 0.00000000 0.00277164
v 0.00114805 0.07000000 0.00277164
v 0.00166671 0.00000000 0.00249441
v 0.00166671 0.07000000 0.00249441
v 0.00212132 0.00000000 0.00212132
v 0.00212132 0.07000000 0.00212132
v 0.00249441 0.00000000 0.00166671
v 0.00249441 0.07000000 0.00166671
v 0.00277164 0.00000000 0.00114805
v 0.00277164 0.07000000 0.00114805
v 0.00294236 0.00000000 0.00058527
v 0.00294236 0.07000000 0.00058527
v 0.00300000 0.00000000 0.00000000
v 0.00300000 0.07000000 0.00000000
v 0.00294236 0.00000000 -0.00058527
v 0.00294236 0.07000000 -0.00058527
v 0.00277164 0.00000000 -0.00114805
v 0.00277164 0.07000000 -0.00114805
v 0.00249441 0.00000000 -0.00166671
v 0.00249441 0.07000000 -0.00166671
v 0.00212132 0.00000000 -0.00212132
v 0.00212132 0.07000000 -0.00212132
v 0.00166671 0.00000000 -0.00249441
v 0.00166671 0.07000000 -0.00249441
v 0.00114805 0.00000000 -0.00277164
v 0.00114805 0.07000000 -0.00277164
v 0.00058527 0.00000000 -0.00294236
v 0.00058527 0.07000000 -0.00294236
f 240 239 243
f 240 243 241
f 241 243 244
f 241 244 242
f 243 239 245
f 243 245 244
f 244 245 246
f 244 246 242
f 245 239 247
f 245 247 246
f 246 247 248
f 246 248 242
f 247 239 249
f 247 249 248
f 248 249 250
f 248 250 242
f 249 239 251
f 249 251 250
f 250 251 252
f 250 252 242
f 251 239 253
f 251 253 252
f 252 253 254
f 252 254 242
f 253 239 255
f 253 255 254
f 254 255 256
f 254 256 242
f 255 239 257
f 255 257 256
f 256 257 258
f 256 258 242
f 257 239 259
f 257 259 258
f 258 259 260
f 258 260 242
f 259 239 261
f 259 261 260
f 260 261 262
f 260 262 242
f 261 239 263
f 261 263 262
f 262 263 264
f 262 264 242
f 263 239 265
f 263 265 264
f 264 265 266
f 264 266 242
f 265 239 267
f 265 267 266
f 266 267 268
f 266 268 242
f 267 239 269
f 267 269 268
f 268 269 270
f 268 270 242
f 269 239 271
f 269 271 270
f 270 271 272
f 270 272 242
f 271 239 273
f 271 273 272
f 272 273 274
f 272 274 242
f 273 239 275
f 273 275 274
f 274 275 276
f 274 276 242
f 275 239 277
f 275 277 276
f 276 277 278
f 276 278 242
f 277 239 279
f 277 279 278
f 278 279 280
f 278 280 242
f 279 239 281
f 279 281 280
f 280 281 282
f 280 282 242
f 281 239 283
f 281 283 282
f 282 283 284
f 282 284 242
f 283 239 285
f 283 285 284
f 284 285 286
f 284 286 242
f 285 239 287
f 285 287 286
f 286 287 288
f 286 288 242
f 287 239 289
f 287 289 288
f 288 289 290
f 288 290 242
f 289 239 291
f 289 291 290
f 290 291 292
f 290 292 242
f 291 239 293
f 291 293 292
f 292 293 294
f 292 294 242
f 293 239 295
f 293 295 294
f 294 295 296
f 294 296 242
f 295 239 297
f 295 297 296
f 296 297 298
f 296 298 242
f 297 239 299
f 297 299 298
f 298 299 300
f 298 300 242
f 299 239 301
f 299 301 300
f 300 301 302
f 300 302 242
f 301 239 303
f 301 303 302
f 302 303 304
f 302 304 242
f 303 239 240
f 303 240 304
f 304 240 241
f 304 241 242

o Y_axis_tip
v 0.00000000 0.08500000 0.00000000
v 0.00000000 0.08500000 -0.00800000
v 0.00000000 0.11500000 0.00000000
v -0.00156072 0.08500000 -0.00784628
v -0.00306147 0.08500000 -0.00739104
v -0.00444456 0.08500000 -0.00665176
v -0.00565685 0.08500000 -0.00565685
v -0.00665176 0.08500000 -0.00444456
v -0.00739104 0.08500000 -0.00306147
v -0.00784628 0.08500000 -0.00156072
v -0.00800000 0.08500000 -0.00000000
v -0.00784628 0.08500000 0.00156072
v -0.00739104 0.08500000 0.00306147
v -0.00665176 0.08500000 0.00444456
v -0.00565685 0.08500000 0.00565685
v -0.00444456 0.08500000 0.00665176
v -0.00306147 0.08500000 0.00739104
v -0.00156072 0.08500000 0.00784628
v -0.00000000 0.08500000 0.00800000
v 0.00156072 0.08500000 0.00784628
v 0.00306147 0.08500000 0.00739104
v 0.00444456 0.08500000 0.00665176
v 0.00565685 0.08500000 0.00565685
v 0.00665176 0.08500000 0.00444456
v 0.00739104 0.08500000 0.00306147
v 0.00784628 0.08500000 0.00156072
v 0.00800000 0.08500000 0.00000000
v 0.00784628 0.08500000 -0.00156072
v 0.00739104 0.08500000 -0.00306147
v 0.00665176 0.08500000 -0.00444456
v 0.00565685 0.08500000 -0.00565685
v 0.00444456 0.08500000 -0.00665176
v 0.00306147 0.08500000 -0.00739104
v 0.00156072 0.08500000 -0.00784628
f 306 305 308
f 306 308 307
f 308 305 309
f 308 309 307
f 309 305 310
f 309 310 307
f 310 305 311
f 310 311 307
f 311 305 312
f 311 312 307
f 312 305 313
f 312 313 307
f 313 305 314
f 313 314 307
f 314 305 315
f 314 315 307
f 315 305 316
f 315 316 307
f 316 305 317
f 316 317 307
f 317 305 318
f 317 318 307
f 318 305 319
f 318 319 307
f 319 305 320
f 319 320 307
f 320 305 321
f 320 321 307
f 321 305 322
f 321 322 307
f 322 305 323
f 322 323 307
f 323 305 324
f 323 324 307
f 324 305 325
f 324 325 307
f 325 305 326
f 325 326 307
f 326 305 327
f 326 327 307
f 327 305 328
f 327 328 307
f 328 305 329
f 328 329 307
f 329 305 330
f 329 330 307
f 330 305 331
f 330 331 307
f 331 305 332
f 331 332 307
f 332 305 333
f 332 333 307
f 333 305 334
f 333 334 307
f 334 305 335
f 334 335 307
f 335 305 336
f 335 336 307
f 336 305 337
f 336 337 307
f 337 305 338
f 337 338 307
f 338 305 306
f 338 306 307

o Z_axis_shaft
v 0.00000000 0.00000000 0.00000000
v 0.00300000 0.00000000 0.00000000
v 0.00300000 0.00000000 0.07000000
v 0.00000000 0.00000000 0.07000000
v 0.00294236 0.00058527 0.00000000
v 0.00294236 0.00058527 0.07000000
v 0.00277164 0.00114805 0.00000000
v 0.00277164 0.00114805 0.07000000
v 0.00249441 0.00166671 0.00000000
v 0.00249441 0.00166671 0.07000000
v 0.00212132 0.00212132 0.00000000
v 0.00212132 0.00212132 0.07000000
v 0.00166671 0.00249441 0.00000000
v 0.00166671 0.00249441 0.07000000
v 0.00114805 0.00277164 0.00000000
v 0.00114805 0.00277164 0.07000000
v 0.00058527 0.00294236 0.00000000
v 0.00058527 0.00294236 0.07000000
v 0.00000000 0.00300000 0.00000000
v 0.00000000 0.00300000 0.07000000
v -0.00058527 0.00294236 0.00000000
v -0.00058527 0.00294236 0.07000000
v -0.00114805 0.00277164 0.00000000
v -0.00114805 0.00277164 0.07000000
v -0.00166671 0.00249441 0.00000000
v -0.00166671 0.00249441 0.07000000
v -0.00212132 0.00212132 0.00000000
v -0.00212132 0.00212132 0.07000000
v -0.00249441 0.00166671 0.00000000
v -0.00249441 0.00166671 0.07000000
v -0.00277164 0.00114805 0.00000000
v -0.00277164 0.00114805 0.07000000
v -0.00294236 0.00058527 0.00000000
v -0.00294236 0.00058527 0.07000000
v -0.00300000 0.00000000 0.00000000
v -0.00300000 0.00000000 0.07000000
v -0.00294236 -0.00058527 0.00000000
v -0.00294236 -0.00058527 0.07000000
v -0.00277164 -0.00114805 0.00000000
v -0.00277164 -0.00114805 0.07000000
v -0.00249441 -0.00166671 0.00000000
v -0.00249441 -0.00166671 0.07000000
v -0.00212132 -0.00212132 0.00000000
v -0.00212132 -0.00212132 0.07000000
v -0.00166671 -0.00249441 0.00000000
v -0.00166671 -0.00249441 0.07000000
v -0.00114805 -0.00277164 0.00000000
v -0.00114805 -0.00277164 0.07000000
v -0.00058527 -0.00294236 0.00000000
v -0.00058527 -0.00294236 0.07000000
v -0.00000000 -0.00300000 0.00000000
v -0.00000000 -0.00300000 0.07000000
v 0.00058527 -0.00294236 0.00000000
v 0.00058527 -0.00294236 0.07000000
v 0.00114805 -0.00277164 0.00000000
v 0.00114805 -0.00277164 0.07000000
v 0.00166671 -0.00249441 0.00000000
v 0.00166671 -0.00249441 0.07000000
v 0.00212132 -0.00212132 0.00000000
v 0.00212132 -0.00212132 0.07000000
v 0.00249441 -0.00166671 0.00000000
v 0.00249441 -0.00166671 0.07000000
v 0.00277164 -0.00114805 0.00000000
v 0.00277164 -0.00114805 0.07000000
v 0.00294236 -0.00058527 0.00000000
v 0.00294236 -0.00058527 0.07000000
f 340 339 343
f 340 343 341
f 341 343 344
f 341 344 342
f 343 339 345
f 343 345 344
f 344 345 346
f 344 346 342
f 345 339 347
f 345 347 346
f 346 347 348
f 346 348 342
f 347 339 349
f 347 349 348
f 348 349 350
f 348 350 342
f 349 339 351
f 349 351 350
f 350 351 352
f 350 352 342
f 351 339 353
f 351 353 352
f 352 353 354
f 352 354 342
f 353 339 355
f 353 355 354
f 354 355 356
f 354 356 342
f 355 339 357
f 355 357 356
f 356 357 358
f 356 358 342
f 357 339 359
f 357 359 358
f 358 359 360
f 358 360 342
f 359 339 361
f 359 361 360
f 360 361 362
f 360 362 342
f 361 339 363
f 361 363 362
f 362 363 364
f 362 364 342
f 363 339 365
f 363 365 364
f 364 365 366
f 364 366 342
f 365 339 367
f 365 367 366
f 366 367 368
f 366 368 342
f 367 339 369
f 367 369 368
f 368 369 370
f 368 370 342
f 369 339 371
f 369 371 370
f 370 371 372
f 370 372 342
f 371 339 373
f 371 373 372
f 372 373 374
f 372 374 342
f 373 339 375
f 373 375 374
f 374 375 376
f 374 376 342
f 375 339 377
f 375 377 376
f 376 377 378
f 376 378 342
f 377 339 379
f 377 379 378
f 378 379 380
f 378 380 342
f 379 339 381
f 379 381 380
f 380 381 382
f 380 382 342
f 381 339 383
f 381 383 382
f 382 383 384
f 382 384 342
f 383 339 385
f 383 385 384
f 384 385 386
f 384 386 342
f 385 339 387
f 385 387 386
f 386 387 388
f 386 388 342
f 387 339 389
f 387 389 388
f 388 389 390
f 388 390 342
f 389 339 391
f 389 391 390
f 390 391 392
f 390 392 342
f 391 339 393
f 391 393 392
f 392 393 394
f 392 394 342
f 393 339 395
f 393 395 394
f 394 395 396
f 394 396 342
f 395 339 397
f 395 397 396
f 396 397 398
f 396 398 342
f 397 339 399
f 397 399 398
f 398 399 400
f 398 400 342
f 399 339 401
f 399 401 400
f 400 401 402
f 400 402 342
f 401 339 403
f 401 403 402
f 402 403 404
f 402 404 342
f 403 339 340
f 403 340 404
f 404 340 341
f 404 341 342

o Z_axis_tip
v 0.00000000 0.00000000 0.08500000
v 0.00800000 0.00000000 0.08500000
v 0.00000000 0.00000000 0.11500000
v 0.00784628 0.00156072 0.08500000
v 0.00739104 0.00306147 0.08500000
v 0.00665176 0.00444456 0.08500000
v 0.00565685 0.00565685 0.08500000
v 0.00444456 0.00665176 0.08500000
v 0.00306147 0.00739104 0.08500000
v 0.00156072 0.00784628 0.08500000
v 0.00000000 0.00800000 0.08500000
v -0.00156072 0.00784628 0.08500000
v -0.00306147 0.00739104 0.08500000
v -0.00444456 0.00665176 0.08500000
v -0.00565685 0.00565685 0.08500000
v -0.00665176 0.00444456 0.08500000
v -0.00739104 0.00306147 0.08500000
v -0.00784628 0.00156072 0.08500000
v -0.00800000 0.00000000 0.08500000
v -0.00784628 -0.00156072 0.08500000
v -0.00739104 -0.00306147 0.08500000
v -0.00665176 -0.00444456 0.08500000
v -0.00565685 -0.00565685 0.08500000
v -0.00444456 -0.00665176 0.08500000
v -0.00306147 -0.00739104 0.08500000
v -0.00156072 -0.00784628 0.08500000
v -0.00000000 -0.00800000 0.08500000
v 0.00156072 -0.00784628 0.08500000
v 0.00306147 -0.00739104 0.08500000
v 0.00444456 -0.00665176 0.08500000
v 0.00565685 -0.00565685 0.08500000
v 0.00665176 -0.00444456 0.08500000
v 0.00739104 -0.00306147 0.08500000
v 0.00784628 -0.00156072 0.08500000
f 406 405 408
f 406 408 407
f 408 405 409
f 408 409 407
f 409 405 410
f 409 410 407
f 410 405 411
f 410 411 407
f 411 405 412
f 411 412 407
f 412 405 413
f 412 413 407
f 413 405 414
f 413 414 407
f 414 405 415
f 414 415 407
f 415 405 416
f 415 416 407
f 416 405 417
f 416 417 407
f 417 405 418
f 417 418 407
f 418 405 419
f 418 419 407
f 419 405 420
f 419 420 407
f 420 405 421
f 420 421 407
f 421 405 422
f 421 422 407
f 422 405 423
f 422 423 407
f 423 405 424
f 423 424 407
f 424 405 425
f 424 425 407
f 425 405 426
f 425 426 407
f 426 405 427
f 426 427 407
f 427 405 428
f 427 428 407
f 428 405 429
f 428 429 407
f 429 405 430
f 429 430 407
f 430 405 431
f 430 431 407
f 431 405 432
f 431 432 407
f 432 405 433
f 432 433 407
f 433 405 434
f 433 434 407
f 434 405 435
f 434 435 407
f 435 405 436
f 435 436 407
f 436 405 437
f 436 437 407
f 437 405 438
f 437 438 407
f 438 405 406
f 438 406 407

