mtllib Pen_4.mtl
v -0.0850281 -0.003736095 0.001602325
v -0.09996215 -0.001069841 6.295777E-05
v -0.09996215 -0.0006176792 0.0005151063
v -0.0850281 -0.002157032 0.003181397
v -0.09996215 -1.66893E-08 0.0006806336
v -0.08447114 -0.003858619 0.001673065
v -0.0850281 4.291535E-09 0.003759369
v -0.09996215 0.0006176477 0.0005151063
v -0.0850281 0.002157044 0.003181397
v -0.08447114 -0.002227771 0.003303925
v -0.08447114 6.198883E-09 0.003900849
v -0.08447114 0.002227784 0.003303925
v 0.07375062 0.002227786 0.003303925
v 0.07375067 6.198883E-09 0.003900849
v 0.07430866 0.002227786 0.003303925
v 0.07375067 -0.002227771 0.003303925
v 0.07375067 -0.003858618 0.001673065
v 0.07430872 6.198883E-09 0.003900849
v 0.07430872 -0.002227771 0.003303925
v 0.07430872 -0.003858618 0.001673065
v 0.07440457 -0.003799015 0.001638672
v 0.07440457 -0.002193359 0.003244324
v 0.07450044 -0.003858616 0.001673065
v 0.07440457 8.106232E-09 0.003832032
v 0.07440453 0.002193375 0.003244324
v 0.07450044 -0.002227771 0.003303925
v 0.07459361 -0.003858616 0.001673065
v 0.07450044 8.106232E-09 0.003900849
v 0.07450038 0.002227786 0.003303925
v 0.07459361 -0.002227771 0.003303925
v 0.07609802 -0.003858612 0.001673065
v 0.07609802 -0.002227768 0.003303925
v 0.07622672 -0.003858612 0.001673065
v 0.07622672 -0.002227766 0.003303925
v -0.0850281 -0.002157032 -0.004290802
v -0.09996215 -0.0006176792 -0.001624542
v -0.09996215 -0.001069841 -0.001172363
v -0.0850281 -0.003736091 -0.002711731
v -0.09996215 -0.001235344 -0.000554718
v -0.08447114 -0.002227771 -0.00441333
v -0.08502806 -0.004314068 -0.000554718
v -0.09996215 -0.001069841 6.295777E-05
v -0.0850281 -0.003736095 0.001602325
v -0.08447114 -0.003858618 -0.002782471
v -0.08447108 -0.004455549 -0.000554718
v -0.08447114 -0.003858619 0.001673065
v 0.07375067 -0.003858618 0.001673065
v 0.07375067 -0.004455549 -0.000554718
v 0.07430872 -0.003858618 0.001673065
v 0.07375067 -0.003858618 -0.002782471
v 0.07375067 -0.002227769 -0.00441333
v 0.07430872 -0.004455549 -0.000554718
v 0.07430872 -0.003858618 -0.002782471
v 0.07430872 -0.002227769 -0.00441333
v 0.07440457 -0.002193357 -0.00435373
v 0.07440457 -0.003799015 -0.002748078
v 0.07450044 -0.002227768 -0.00441333
v 0.07440457 -0.004386726 -0.000554718
v 0.07440457 -0.003799015 0.001638672
v 0.07450044 -0.003858616 -0.002782471
v 0.07459361 -0.002227768 -0.00441333
v 0.07450044 -0.004455547 -0.000554718
v 0.07450044 -0.003858616 0.001673065
v 0.07459361 -0.003858616 -0.002782471
v 0.07609802 -0.002227764 -0.00441333
v 0.07459361 -0.004455547 -0.000554718
v 0.07459361 -0.003858616 0.001673065
v 0.07609802 -0.003858612 -0.002782471
v 0.07622672 -0.002227764 -0.00441333
v 0.07622672 -0.003858612 -0.002782471
v 0.07609802 -0.004455543 -0.000554718
v 0.07609802 -0.003858612 0.001673065
v 0.07622672 -0.004455543 -0.000554718
v 0.07622672 -0.003858612 0.001673065
v -0.0850281 0.003736108 -0.002711731
v -0.09996215 0.00106981 -0.001172363
v -0.09996215 0.0006176477 -0.001624542
v -0.0850281 0.002157046 -0.004290802
v -0.09996215 -1.66893E-08 -0.001790039
v -0.08447114 0.003858636 -0.002782471
v -0.0850281 8.106232E-09 -0.004868775
v -0.09996215 -0.0006176792 -0.001624542
v -0.0850281 -0.002157032 -0.004290802
v -0.08447114 0.002227788 -0.00441333
v -0.08447114 8.106232E-09 -0.005010254
v -0.08447114 -0.002227771 -0.00441333
v 0.07375067 -0.002227769 -0.00441333
v 0.07375062 1.001358E-08 -0.005010254
v 0.07430872 -0.002227769 -0.00441333
v 0.07375062 0.002227788 -0.00441333
v 0.07375062 0.003858636 -0.002782471
v 0.07430866 1.001358E-08 -0.005010254
v 0.07430866 0.002227788 -0.00441333
v 0.07430866 0.003858636 -0.002782471
v 0.07440453 0.003799033 -0.002748078
v 0.07440453 0.002193377 -0.00435373
v 0.07450038 0.003858636 -0.002782471
v 0.07440453 1.001358E-08 -0.004941437
v 0.07440457 -0.002193357 -0.00435373
v 0.07450038 0.002227789 -0.00441333
v 0.07459355 0.003858636 -0.002782471
v 0.07450038 1.001358E-08 -0.005010254
v 0.07450044 -0.002227768 -0.00441333
v 0.07459355 0.002227789 -0.00441333
v 0.07609797 0.003858639 -0.002782471
v 0.07459355 1.001358E-08 -0.005010254
v 0.07459361 -0.002227768 -0.00441333
v 0.07609797 0.002227793 -0.00441333
v 0.07622667 0.003858641 -0.002782471
v 0.07622667 0.002227793 -0.00441333
v 0.07609797 1.573563E-08 -0.005010254
v 0.07609802 -0.002227764 -0.00441333
v 0.07622667 1.573563E-08 -0.005010254
v 0.07622672 -0.002227764 -0.00441333
v -0.0850281 0.002157044 0.003181397
v -0.09996215 0.0006176477 0.0005151063
v -0.09996215 0.001069808 6.295777E-05
v -0.0850281 0.003736106 0.001602325
v -0.09996215 0.001235312 -0.000554718
v -0.08447114 0.002227784 0.003303925
v -0.0850281 0.004314084 -0.000554718
v -0.09996215 0.00106981 -0.001172363
v -0.0850281 0.003736108 -0.002711731
v -0.08447114 0.003858632 0.001673065
v -0.08447114 0.004455567 -0.000554718
v -0.08447114 0.003858636 -0.002782471
v 0.07375062 0.003858636 -0.002782471
v 0.07375062 0.004455567 -0.000554718
v 0.07430866 0.003858636 -0.002782471
v 0.07375062 0.003858632 0.001673065
v 0.07375062 0.002227786 0.003303925
v 0.07430866 0.004455567 -0.000554718
v 0.07430866 0.003858632 0.001673065
v 0.07430866 0.002227786 0.003303925
v 0.07440453 0.002193375 0.003244324
v 0.07440453 0.003799031 0.001638672
v 0.07450038 0.002227786 0.003303925
v 0.07440453 0.004386744 -0.000554718
v 0.07440453 0.003799033 -0.002748078
v 0.07450038 0.003858634 0.001673065
v 0.07450038 0.004455567 -0.000554718
v 0.07450038 0.003858636 -0.002782471
v 0.07459355 0.002227788 0.003303925
v 0.07450038 0.002227786 0.004721985
v 0.07459355 0.004455567 -0.000554718
v 0.07459355 0.003858636 -0.002782471
v 0.07459355 0.003858634 0.001673065
v 0.07609797 0.004455571 -0.000554718
v 0.07609797 0.003858639 -0.002782471
v 0.07609797 0.003858638 0.001673065
v 0.07622667 0.004455571 -0.000554718
v 0.07622667 0.003858641 -0.002782471
v 0.07622667 0.003858638 0.001673065
v 0.07622667 0.002227791 0.003303925
v 0.07609797 0.002227791 0.003303925
v 0.07459355 0.002227786 0.004688385
v 0.07609797 0.002227789 0.004145691
v 0.07622667 0.002227791 0.004099274
v 0.07609797 0.002227788 0.004731232
v 0.07622667 0.002227788 0.004671387
v 0.07459355 0.002227784 0.005430542
v 0.07450038 0.002227784 0.005473847
v 0.03063035 0.002227517 0.004721985
v 0.03063155 0.002227549 0.005639618
v 0.02975662 0.002227513 0.004721985
v 0.02975785 0.002227545 0.005642914
v -0.09996215 -1.66893E-08 -0.001233307
v -0.1014086 -0.0003393264 -0.001142395
v -0.09996215 -0.0003393207 -0.001142395
v -0.1014086 -2.241135E-08 -0.001233307
v -0.1017756 -0.0002230048 -0.000940918
v -0.09996215 0.0003392873 -0.001142395
v -0.1017756 -2.0504E-08 -0.001000671
v -0.1014086 0.0003392816 -0.001142395
v -0.09996215 0.0005876756 -0.0008940125
v -0.1017756 0.0002229638 -0.000940918
v -0.1014086 0.0005876699 -0.0008940125
v -0.1017756 0.0003861985 -0.0007776795
v -0.09996215 0.0006785913 -0.000554718
v -0.1014086 0.0005876699 -0.0008940125
v -0.09996215 0.0005876756 -0.0008940125
v -0.1014086 0.0006785875 -0.000554718
v -0.1017756 0.0003861985 -0.0007776795
v -0.09996215 0.0005876737 -0.0002153931
v -0.1017756 0.0004459482 -0.000554718
v -0.1014086 0.0005876699 -0.0002153931
v -0.09996215 0.0003392873 3.29895E-05
v -0.1017756 0.0003861985 -0.0003317261
v -0.1014086 0.0003392816 3.29895E-05
v -0.1017756 0.0002229638 -0.0001684876
v -0.09996215 -1.859665E-08 0.0001239014
v -0.1014086 0.0003392816 3.29895E-05
v -0.09996215 0.0003392873 3.29895E-05
v -0.1014086 -2.241135E-08 0.0001239014
v -0.1017756 0.0002229638 -0.0001684876
v -0.09996215 -0.0003393207 3.29895E-05
v -0.1017756 -2.0504E-08 -0.0001087341
v -0.1014086 -0.0003393264 3.29895E-05
v -0.09996215 -0.000587709 -0.0002153931
v -0.1017756 -0.0002230048 -0.0001684876
v -0.1014086 -0.0005877147 -0.0002153931
v -0.1017756 -0.0003862414 -0.0003317261
v -0.09996215 -0.0006786266 -0.000554718
v -0.1014086 -0.0005877147 -0.0002153931
v -0.09996215 -0.000587709 -0.0002153931
v -0.1014086 -0.0006786304 -0.000554718
v -0.1017756 -0.0003862414 -0.0003317261
v -0.09996215 -0.000587709 -0.0008940125
v -0.1017756 -0.0004459892 -0.000554718
v -0.1014086 -0.0005877128 -0.0008940125
v -0.09996215 -0.0003393207 -0.001142395
v -0.1017756 -0.0003862414 -0.0007776795
v -0.1014086 -0.0003393264 -0.001142395
v -0.1017756 -0.0002230048 -0.000940918
v -0.1017756 -0.0003862414 -0.0003317261
v -0.1017756 -0.0004459892 -0.000554718
v -0.1017756 -0.0003862414 -0.0007776795
v -0.1017756 -0.0002230048 -0.0001684876
v -0.1017756 -0.0002230048 -0.000940918
v -0.1017756 -2.0504E-08 -0.0001087341
v -0.1017756 -2.0504E-08 -0.001000671
v -0.1017756 0.0002229638 -0.0001684876
v -0.1017756 0.0002229638 -0.000940918
v -0.1017756 0.0003861985 -0.0003317261
v -0.1017756 0.0003861985 -0.0007776795
v -0.1017756 0.0004459482 -0.000554718
v 0.07611556 -0.001051475 0.001266541
v 0.07628629 -0.001716644 0.0004364014
v 0.07611556 -0.00182122 0.0004967957
v 0.07628629 -0.0009910999 0.001161957
v 0.07611556 1.573563E-08 0.001548279
v 0.07668418 -0.001714231 0.0004350281
v 0.07628629 1.573563E-08 0.001427521
v 0.07611553 0.001051507 0.001266541
v 0.07628628 0.0009911313 0.001161957
v 0.07668418 -0.0009897037 0.001159546
v 0.08898756 -0.001640756 0.0003926087
v 0.08898756 -0.0009472614 0.00108609
v 0.07668418 1.764298E-08 0.001424744
v 0.07668415 0.000989739 0.001159546
v 0.08898756 7.104874E-08 0.001339935
v 0.08898754 0.0009474035 0.00108609
v 0.07611556 -0.00182122 -0.001606201
v 0.07628629 -0.000991098 -0.002271362
v 0.07611556 -0.001051475 -0.002375946
v 0.07628629 -0.001716644 -0.001545807
v 0.07611556 -0.002102966 -0.000554718
v 0.07668418 -0.0009897037 -0.002268952
v 0.07628629 -0.001982214 -0.000554718
v 0.07611556 -0.00182122 0.0004967957
v 0.07628629 -0.001716644 0.0004364014
v 0.07668418 -0.001714231 -0.001544434
v 0.08898756 -0.0009472595 -0.002195557
v 0.08898756 -0.001640756 -0.001502045
v 0.07668418 -0.001979425 -0.000554718
v 0.07668418 -0.001714231 0.0004350281
v 0.08898756 -0.001894594 -0.000554718
v 0.08898756 -0.001640756 0.0003926087
v 0.07611553 0.001051508 -0.002375946
v 0.07628628 0.001716679 -0.001545807
v 0.07611553 0.001821253 -0.001606201
v 0.07628628 0.0009911313 -0.002271362
v 0.07611553 1.764298E-08 -0.002657684
v 0.07668415 0.001714268 -0.001544434
v 0.07628628 1.764298E-08 -0.002536926
v 0.07611556 -0.001051475 -0.002375946
v 0.07628629 -0.000991098 -0.002271362
v 0.07668415 0.0009897409 -0.002268952
v 0.08898754 0.0016409 -0.001502045
v 0.08898754 0.0009474054 -0.002195557
v 0.07668415 1.955032E-08 -0.002534149
v 0.07668418 -0.0009897037 -0.002268952
v 0.08898754 7.295609E-08 -0.002449371
v 0.08898756 -0.0009472595 -0.002195557
v 0.07611553 0.001821253 0.0004967957
v 0.07628628 0.0009911313 0.001161957
v 0.07611553 0.001051507 0.001266541
v 0.07628628 0.001716677 0.0004364014
v 0.07611553 0.002103001 -0.000554718
v 0.07668415 0.000989739 0.001159546
v 0.07628628 0.001982247 -0.000554718
v 0.07611553 0.001821253 -0.001606201
v 0.07628628 0.001716679 -0.001545807
v 0.07668415 0.001714266 0.0004350281
v 0.08898754 0.0009474035 0.00108609
v 0.08898754 0.0016409 0.0003926087
v 0.07668415 0.001979462 -0.000554718
v 0.07668415 0.001714268 -0.001544434
v 0.08898754 0.001894738 -0.000554718
v 0.08898754 0.0016409 -0.001502045
v 0.08898756 -0.001640756 -0.001502045
v 0.08898756 -0.001894594 -0.000554718
v 0.08898756 -0.001640756 0.0003926087
v 0.08898756 -0.0009472595 -0.002195557
v 0.08898756 -0.0009472614 0.00108609
v 0.08898756 7.104874E-08 0.001339935
v 0.08898754 7.295609E-08 -0.002449371
v 0.08898754 0.0009474035 0.00108609
v 0.08898754 0.0009474054 -0.002195557
v 0.08898754 0.0016409 0.0003926087
v 0.08898754 0.0016409 -0.001502045
v 0.08898754 0.001894738 -0.000554718
v 0.07609797 0.002227788 0.004731232
v 0.07622667 0.002227788 0.004671387
v 0.07622672 1.001358E-08 0.005268311
v 0.07609802 1.001358E-08 0.005328156
v 0.07622672 -0.002227769 0.004671387
v 0.07459355 0.002227784 0.005430542
v 0.07609802 -0.002227769 0.004731202
v 0.07459361 4.291535E-09 0.006027496
v 0.07450038 0.002227784 0.005473847
v 0.07459361 -0.002227773 0.005430542
v 0.07450044 4.291535E-09 0.006070801
v 0.03063155 0.002227549 0.005639618
v 0.07450044 -0.002227773 0.005473847
v 0.03063139 -3.333092E-07 0.006236145
v 0.02975785 0.002227545 0.005642914
v 0.03062821 -0.002228006 0.005638825
v 0.02975768 -3.390312E-07 0.006239441
v 0.02975444 -0.002228012 0.005642121
v 0.07622672 -0.002227768 0.004099274
v 0.07622672 -0.002227769 0.004671387
v 0.07622672 1.001358E-08 0.005268311
v 0.07622672 1.192093E-08 0.004696198
v 0.07622667 0.002227788 0.004671387
v 0.07622667 0.002227791 0.004099274
v 0.07622672 -0.002227766 0.003303925
v 0.07622672 1.192093E-08 0.003900849
v 0.07622667 0.002227791 0.003303925
v 0.07648081 -0.001905637 0.002745972
v 0.07648081 1.573563E-08 0.003256592
v 0.07648081 -0.00330067 0.001350952
v 0.07622672 -0.003858612 0.001673065
v 0.07648077 0.001905667 0.002745972
v 0.07622667 0.003858638 0.001673065
v 0.07648081 -0.003811289 -0.000554718
v 0.07622672 -0.004455543 -0.000554718
v 0.07648077 0.003300702 0.001350952
v 0.07622667 0.004455571 -0.000554718
v 0.07648081 -0.00330067 -0.002460358
v 0.07622672 -0.003858612 -0.002782471
v 0.07648077 0.003811322 -0.000554718
v 0.07622667 0.003858641 -0.002782471
v 0.07648081 -0.001905635 -0.003855377
v 0.07622672 -0.002227764 -0.00441333
v 0.07648077 0.003300704 -0.002460358
v 0.07622667 0.002227793 -0.00441333
v 0.07648077 1.764298E-08 -0.004365997
v 0.07622667 1.573563E-08 -0.005010254
v 0.07648077 0.001905671 -0.003855377
v 0.07648081 -0.002048461 -0.001737396
v 0.07648081 -0.001182672 -0.00260318
v 0.07648078 1.764298E-08 -0.002920075
v 0.07648078 0.001182707 -0.00260318
v 0.07648078 0.002048495 -0.001737396
v 0.07648078 0.002365395 -0.000554718
v 0.07648081 -0.002365362 -0.000554718
v 0.07648078 0.002048493 0.0006279908
v 0.07648081 -0.002048461 0.0006279908
v 0.07648078 0.001182706 0.001493774
v 0.07648081 -0.001182674 0.001493774
v 0.07648081 1.573563E-08 0.001810669
v 0.07648078 0.002223754 -0.000554718
v 0.07648078 0.001925829 -0.001666565
v 0.07648078 0.001925828 0.0005571594
v 0.07648078 0.001111884 0.001371124
v 0.07648078 0.001111886 -0.00248053
v 0.07648081 1.573563E-08 0.001669037
v 0.07648081 -0.001111852 0.001371124
v 0.07648078 1.764298E-08 -0.002778443
v 0.07648081 -0.001925796 0.0005571594
v 0.07648081 -0.001111852 -0.00248053
v 0.07648081 -0.00222372 -0.000554718
v 0.07648081 -0.001925796 -0.001666565
v 0.03063035 0.002227517 0.004721985
v 0.02975662 0.002227513 0.004721985
v 0.02975667 -2.66552E-07 0.005318909
v 0.0306304 -2.608299E-07 0.005318909
v 0.07450038 0.002227786 0.004721985
v 0.02975667 -0.002228046 0.004721985
v 0.07450044 6.198883E-09 0.005318909
v 0.0306304 -0.00222804 0.004721985
v 0.07450044 -0.002227771 0.004721985
v 0.07450044 8.106232E-09 0.003900849
v 0.07450044 -0.002227771 0.004721985
v 0.07450044 -0.002227771 0.003303925
v 0.07450044 6.198883E-09 0.005318909
v 0.07450038 0.002227786 0.003303925
v 0.07450038 0.002227786 0.004721985
v 0.07609802 -0.002227768 0.003303925
v 0.07622672 -0.002227768 0.004099274
v 0.07622672 -0.002227766 0.003303925
v 0.07609802 -0.002227768 0.004145691
v 0.07622672 -0.002227769 0.004671387
v 0.07459361 -0.002227771 0.003303925
v 0.07609802 -0.002227769 0.004731202
v 0.07459361 -0.002227771 0.004688385
v 0.07450044 -0.002227771 0.003303925
v 0.07459361 -0.002227773 0.005430542
v 0.07450044 -0.002227771 0.004721985
v 0.07450044 -0.002227773 0.005473847
v 0.03062821 -0.002228006 0.005638825
v 0.0306304 -0.00222804 0.004721985
v 0.02975444 -0.002228012 0.005642121
v 0.02975667 -0.002228046 0.004721985
v 0.02975662 0.002227513 0.004721985
v 0.02975785 0.002227545 0.005642914
v 0.02975768 -3.390312E-07 0.006239441
v 0.02975667 -2.66552E-07 0.005318909
v 0.02975444 -0.002228012 0.005642121
v 0.02975667 -0.002228046 0.004721985
v 0.07648078 0.001925828 0.0005571594
v 0.07611553 0.001051507 0.001266541
v 0.07648078 0.001111884 0.001371124
v 0.07611553 0.001821253 0.0004967957
v 0.07648078 0.002223754 -0.000554718
v 0.07611553 0.002103001 -0.000554718
v 0.07648078 0.001925829 -0.001666565
v 0.07611553 0.001821253 -0.001606201
v 0.07648081 -0.001111852 -0.00248053
v 0.07611556 -0.001051475 -0.002375946
v 0.07611553 1.764298E-08 -0.002657684
v 0.07648078 1.764298E-08 -0.002778443
v 0.07611553 0.001051508 -0.002375946
v 0.07648078 0.001111886 -0.00248053
v 0.07611553 0.001821253 -0.001606201
v 0.07648078 0.001925829 -0.001666565
v 0.07648081 -0.001925796 0.0005571594
v 0.07611556 -0.00182122 0.0004967957
v 0.07611556 -0.002102966 -0.000554718
v 0.07648081 -0.00222372 -0.000554718
v 0.07611556 -0.00182122 -0.001606201
v 0.07648081 -0.001925796 -0.001666565
v 0.07611556 -0.001051475 -0.002375946
v 0.07648081 -0.001111852 -0.00248053
v 0.07648078 0.001111884 0.001371124
v 0.07611553 0.001051507 0.001266541
v 0.07611556 1.573563E-08 0.001548279
v 0.07648081 1.573563E-08 0.001669037
v 0.07611556 -0.001051475 0.001266541
v 0.07648081 -0.001111852 0.001371124
v 0.07611556 -0.00182122 0.0004967957
v 0.07648081 -0.001925796 0.0005571594
v -0.09996215 0.0006176477 0.0005151063
v -0.09996215 0.0003392873 3.29895E-05
v -0.09996215 0.0005876737 -0.0002153931
v -0.09996215 0.001069808 6.295777E-05
v -0.09996215 -1.66893E-08 0.0006806336
v -0.09996215 0.0006785913 -0.000554718
v -0.09996215 -1.859665E-08 0.0001239014
v -0.09996215 0.001235312 -0.000554718
v -0.09996215 -0.0006176792 0.0005151063
v -0.09996215 0.0005876756 -0.0008940125
v -0.09996215 -0.0003393207 3.29895E-05
v -0.09996215 0.00106981 -0.001172363
v -0.09996215 -0.001069841 6.295777E-05
v -0.09996215 0.0003392873 -0.001142395
v -0.09996215 -0.000587709 -0.0002153931
v -0.09996215 0.0006176477 -0.001624542
v -0.09996215 -0.001235344 -0.000554718
v -0.09996215 -1.66893E-08 -0.001233307
v -0.09996215 -0.0006786266 -0.000554718
v -0.09996215 -1.66893E-08 -0.001790039
v -0.09996215 -0.001069841 -0.001172363
v -0.09996215 -0.0003393207 -0.001142395
v -0.09996215 -0.000587709 -0.0008940125
v -0.09996215 -0.0006176792 -0.001624542
vt 0.4934891 0.05921393
vt 0.4844887 0.0009339007
vt 0.482379 0.0009648652
vt 0.4861215 0.05932193
vt 0.479867 0.0009678043
vt 0.4939027 0.06138907
vt 0.4773487 0.05933229
vt 0.4776256 0.0009420352
vt 0.4695214 0.05924228
vt 0.4862935 0.06150061
vt 0.477233 0.0615113
vt 0.469149 0.06141837
vt 0.469149 0.6769387
vt 0.477233 0.6770319
vt 0.469149 0.6791096
vt 0.4862935 0.6770212
vt 0.4939027 0.6769096
vt 0.477233 0.6792028
vt 0.4862935 0.6791921
vt 0.4939027 0.6790805
vt 0.4937015 0.6794493
vt 0.4862098 0.6795591
vt 0.4939027 0.6798264
vt 0.4772893 0.6795698
vt 0.4693301 0.679478
vt 0.4862935 0.679938
vt 0.4939027 0.6801888
vt 0.477233 0.6799487
vt 0.469149 0.6798555
vt 0.4862935 0.6803004
vt 0.4939027 0.6860414
vt 0.4862935 0.6861529
vt 0.4939027 0.686542
vt 0.4862935 0.6866536
vt 0.7329465 0.05928331
vt 0.7258239 0.0009588979
vt 0.7234758 0.0009799169
vt 0.7247463 0.05935673
vt 0.720991 0.0009708324
vt 0.7332738 0.06146047
vt 0.7160692 0.05932499
vt 0.7190355 0.0009339007
vt 0.70924 0.05919597
vt 0.7248048 0.06153635
vt 0.715843 0.06150355
vt 0.7087898 0.06137028
vt 0.7087899 0.6768803
vt 0.7158431 0.6770133
vt 0.7087898 0.6790512
vt 0.7248048 0.6770463
vt 0.7332739 0.6769705
vt 0.7158431 0.6791843
vt 0.7248048 0.6792172
vt 0.7332739 0.6791413
vt 0.7331147 0.6795091
vt 0.7247765 0.6795838
vt 0.7332739 0.6798872
vt 0.7159532 0.6795514
vt 0.7090088 0.6794204
vt 0.7248048 0.6799631
vt 0.7332739 0.6802497
vt 0.7158431 0.6799301
vt 0.7087899 0.679797
vt 0.7248048 0.6803255
vt 0.7332738 0.6861021
vt 0.7158431 0.6802925
vt 0.7087899 0.6801595
vt 0.7248048 0.6861779
vt 0.7332739 0.6866027
vt 0.7248048 0.6866786
vt 0.7158431 0.6861449
vt 0.7087899 0.6860119
vt 0.7158431 0.6866456
vt 0.7087899 0.6865125
vt 0.5503331 0.627932
vt 0.5595865 0.6863601
vt 0.5616516 0.6862884
vt 0.5575449 0.6276816
vt 0.5641583 0.6862778
vt 0.5499079 0.6257495
vt 0.5662987 0.6276447
vt 0.5664347 0.6863312
vt 0.5742488 0.6278312
vt 0.5573562 0.6254908
vt 0.5663971 0.6254528
vt 0.5746078 0.6256454
vt 0.5746078 0.01074902
vt 0.566397 0.01055652
vt 0.5746078 0.008580288
vt 0.5573561 0.01059452
vt 0.5499077 0.01085316
vt 0.566397 0.008387821
vt 0.5573561 0.008425881
vt 0.5499077 0.008684463
vt 0.5501146 0.008320607
vt 0.557448 0.008066004
vt 0.5499078 0.007939355
vt 0.5663491 0.008028478
vt 0.5744331 0.008218066
vt 0.5573562 0.007680774
vt 0.5499077 0.007577341
vt 0.566397 0.007642714
vt 0.5746078 0.00783521
vt 0.5573561 0.0073187
vt 0.5499077 0.001730665
vt 0.566397 0.00728064
vt 0.5746078 0.007473137
vt 0.5573561 0.001472083
vt 0.5499077 0.001230513
vt 0.5573561 0.0009719606
vt 0.566397 0.001433993
vt 0.5746078 0.00162649
vt 0.566397 0.0009339007
vt 0.5746078 0.001126367
vt 0.04445906 0.6283289
vt 0.05158179 0.6866533
vt 0.05392983 0.6866323
vt 0.05265914 0.6282554
vt 0.05641448 0.6866414
vt 0.04413167 0.6261517
vt 0.06133643 0.6282874
vt 0.05837001 0.6866783
vt 0.06816553 0.6284162
vt 0.05260085 0.6260759
vt 0.06156267 0.6261088
vt 0.06861578 0.6262419
vt 0.06861566 0.01073219
vt 0.06156255 0.01059912
vt 0.06861572 0.008561287
vt 0.05260079 0.01056614
vt 0.04413173 0.01064199
vt 0.06156261 0.008428226
vt 0.05260079 0.008395214
vt 0.04413167 0.008471066
vt 0.04429092 0.008103263
vt 0.05262919 0.008028568
vt 0.04413167 0.007725306
vt 0.06145258 0.008061076
vt 0.06839675 0.008192059
vt 0.05260079 0.007649453
vt 0.06156261 0.007682436
vt 0.06861572 0.007815498
vt 0.04413161 0.007362816
vt 0.03903469 0.007672461
vt 0.06156261 0.007319977
vt 0.06861572 0.007453038
vt 0.05260079 0.007286964
vt 0.06156267 0.001467541
vt 0.06861572 0.001600602
vt 0.05260073 0.001434557
vt 0.06156267 0.0009669136
vt 0.06861578 0.001099945
vt 0.05260092 0.0009339007
vt 0.04413179 0.001009783
vt 0.04413173 0.00151038
vt 0.0391554 0.007311219
vt 0.04110606 0.00147903
vt 0.04127288 0.0009801248
vt 0.03900144 0.001457209
vt 0.03921657 0.0009588089
vt 0.03648779 0.00728352
vt 0.0363322 0.007644436
vt 0.03903427 0.1783344
vt 0.03573596 0.1782956
vt 0.03903427 0.1817334
vt 0.03572408 0.1816943
vt 0.6230887 0.7151983
vt 0.6243393 0.720849
vt 0.6243393 0.7152277
vt 0.6230887 0.7208197
vt 0.6237488 0.7223103
vt 0.6217117 0.7152042
vt 0.622927 0.722291
vt 0.6217117 0.7208256
vt 0.6205773 0.7152435
vt 0.622022 0.7222948
vt 0.6205773 0.7208649
vt 0.6212766 0.7223207
vt 0.133859 0.7290527
vt 0.1349333 0.7346998
vt 0.1349333 0.7290728
vt 0.133859 0.7346796
vt 0.1341929 0.7361401
vt 0.132494 0.7290475
vt 0.1334871 0.7361268
vt 0.132494 0.7346745
vt 0.131204 0.7290592
vt 0.1325901 0.7361235
vt 0.1312041 0.7346861
vt 0.1317423 0.7361311
vt 0.6218085 0.7312758
vt 0.6205773 0.7256345
vt 0.6205773 0.7312616
vt 0.6218085 0.7256487
vt 0.6211897 0.7241914
vt 0.6231885 0.7312741
vt 0.6219988 0.7242007
vt 0.6231885 0.725647
vt 0.6243474 0.7312571
vt 0.6229057 0.7241997
vt 0.6243474 0.72563
vt 0.6236674 0.7241885
vt 0.6232321 0.7331486
vt 0.6243065 0.7387959
vt 0.6243065 0.7331688
vt 0.6232322 0.7387756
vt 0.6235662 0.7402361
vt 0.6218672 0.7331436
vt 0.6228603 0.7402229
vt 0.6218673 0.7387706
vt 0.6205773 0.7331551
vt 0.6219634 0.7402197
vt 0.6205774 0.7387822
vt 0.6211155 0.7402272
vt 0.6235124 0.7450073
vt 0.6239665 0.7442293
vt 0.6239665 0.743331
vt 0.622726 0.7454564
vt 0.6235124 0.7425531
vt 0.6218179 0.7454564
vt 0.622726 0.7421041
vt 0.6210315 0.7450072
vt 0.6218178 0.7421039
vt 0.6205773 0.7442293
vt 0.6210314 0.7425531
vt 0.6205773 0.743331
vt 0.7151519 0.7386037
vt 0.7119141 0.7379956
vt 0.7115603 0.7386521
vt 0.7152994 0.7379498
vt 0.7194284 0.7386037
vt 0.7119241 0.7364478
vt 0.7193304 0.7379498
vt 0.7232439 0.7386521
vt 0.7229268 0.7379955
vt 0.7153047 0.7364023
vt 0.7122295 0.6885901
vt 0.7154653 0.6885465
vt 0.71933 0.7364022
vt 0.7229213 0.7364478
vt 0.7193182 0.6885464
vt 0.7227557 0.68859
vt 0.04527514 0.7791029
vt 0.04155498 0.7784972
vt 0.04127802 0.7791534
vt 0.04532257 0.7784494
vt 0.04950511 0.7791029
vt 0.04155558 0.7769495
vt 0.04930961 0.7784495
vt 0.05283433 0.7791533
vt 0.05244765 0.7784971
vt 0.04531788 0.776902
vt 0.0415716 0.7290931
vt 0.0451728 0.7290475
vt 0.04929923 0.7769019
vt 0.05243294 0.7769495
vt 0.04898355 0.7290476
vt 0.05198311 0.7290931
vt 0.3366855 0.7777541
vt 0.3335351 0.7772145
vt 0.3331694 0.7778612
vt 0.3368493 0.7771134
vt 0.3409527 0.7777541
vt 0.3335501 0.7756686
vt 0.3408715 0.7771134
vt 0.3448277 0.7778612
vt 0.344524 0.7772145
vt 0.3368597 0.7755677
vt 0.3340107 0.7278663
vt 0.3371785 0.7277697
vt 0.3408763 0.7755678
vt 0.3445236 0.7756687
vt 0.341023 0.7277697
vt 0.3445142 0.7278663
vt 0.004941315 0.7791029
vt 0.001221146 0.7784972
vt 0.0009441266 0.7791534
vt 0.004988855 0.7784495
vt 0.009171343 0.7791029
vt 0.001221747 0.7769495
vt 0.008975839 0.7784495
vt 0.0125005 0.7791534
vt 0.01211388 0.7784971
vt 0.004984173 0.776902
vt 0.001237894 0.7290931
vt 0.004839031 0.7290475
vt 0.008965515 0.776902
vt 0.01209929 0.7769495
vt 0.008649898 0.7290476
vt 0.01164928 0.7290931
vt 0.6805292 0.7457333
vt 0.6786002 0.7424282
vt 0.6752591 0.7405201
vt 0.6805292 0.7495497
vt 0.671401 0.7405202
vt 0.6680596 0.7424281
vt 0.6786002 0.7528548
vt 0.6661307 0.7457333
vt 0.6752589 0.7547628
vt 0.6661305 0.7495495
vt 0.6714007 0.7547628
vt 0.6680595 0.7528546
vt 0.3619942 0.8467907
vt 0.362041 0.8472864
vt 0.3701245 0.8474143
vt 0.3700778 0.8469188
vt 0.379185 0.8474425
vt 0.3614477 0.8409966
vt 0.3791382 0.8469468
vt 0.3695312 0.8411245
vt 0.3614138 0.8406377
vt 0.3785917 0.8411527
vt 0.3694974 0.8407656
vt 0.3620281 0.6699929
vt 0.3785578 0.8407938
vt 0.3701124 0.6701199
vt 0.3620403 0.6665943
vt 0.3791727 0.6701357
vt 0.3701246 0.6667213
vt 0.379185 0.6667369
vt 0.4697688 0.7250047
vt 0.4703513 0.7271551
vt 0.4794242 0.7271552
vt 0.4788417 0.7250046
vt 0.4872816 0.7226678
vt 0.4866991 0.7205175
vt 0.468959 0.7220153
vt 0.478032 0.7220153
vt 0.4858893 0.717528
vt 0.469615 0.7195937
vt 0.477376 0.7195937
vt 0.4628938 0.7157554
vt 0.4611017 0.7175279
vt 0.4840972 0.7157553
vt 0.4904258 0.7097557
vt 0.4590132 0.7091067
vt 0.4565652 0.7097556
vt 0.4879777 0.7091067
vt 0.4904258 0.7007809
vt 0.4590132 0.7014299
vt 0.4565652 0.700781
vt 0.4879778 0.7014298
vt 0.4858893 0.6930088
vt 0.4628938 0.6947815
vt 0.4611016 0.6930088
vt 0.4840972 0.6947814
vt 0.478032 0.6885215
vt 0.469615 0.6909428
vt 0.468959 0.6885214
vt 0.477376 0.6909431
vt 0.4645075 0.7028862
vt 0.4669158 0.6987599
vt 0.4710872 0.6963776
vt 0.4759038 0.6963776
vt 0.4800752 0.6987599
vt 0.4824835 0.702886
vt 0.4645075 0.7076505
vt 0.4824835 0.7076506
vt 0.4669158 0.7117769
vt 0.4800752 0.7117767
vt 0.4710872 0.714159
vt 0.4759038 0.7141589
vt 0.4819453 0.7030287
vt 0.4796811 0.6991497
vt 0.4819453 0.707508
vt 0.4796812 0.7113871
vt 0.4757595 0.69691
vt 0.4757596 0.7136267
vt 0.4712314 0.7136267
vt 0.4712314 0.69691
vt 0.4673098 0.711387
vt 0.4673098 0.6991497
vt 0.4650457 0.7075078
vt 0.4650457 0.7030288
vt 0.5822976 0.8587198
vt 0.5822976 0.8621154
vt 0.5905083 0.8623078
vt 0.5905083 0.8589123
vt 0.5822976 0.6882279
vt 0.5995492 0.8622699
vt 0.5905084 0.6884204
vt 0.5995492 0.8588743
vt 0.5995492 0.6883824
vt 0.7307106 0.6972153
vt 0.7274805 0.7058842
vt 0.7330588 0.7058842
vt 0.7251322 0.6972153
vt 0.7330588 0.6885464
vt 0.7274804 0.6885464
vt 0.4372118 0.6890221
vt 0.4400723 0.6885608
vt 0.4372136 0.6885214
vt 0.4402375 0.6890637
vt 0.4421284 0.688589
vt 0.4371915 0.6948745
vt 0.4423418 0.6890927
vt 0.4421676 0.694943
vt 0.4371902 0.6952369
vt 0.4448351 0.6949797
vt 0.442287 0.6953071
vt 0.4449895 0.6953443
vt 0.4449895 0.8660219
vt 0.4416942 0.865968
vt 0.4449894 0.8694212
vt 0.4416823 0.8693669
vt 0.3870429 0.6665944
vt 0.3834199 0.6665943
vt 0.3810733 0.6752636
vt 0.3846945 0.6752633
vt 0.3834231 0.683932
vt 0.3870429 0.6839321
vt 0.2462854 0.7421853
vt 0.2476598 0.7382754
vt 0.2462313 0.7380043
vt 0.2477109 0.7422293
vt 0.2462854 0.7466097
vt 0.2477109 0.7464135
vt 0.2462314 0.7500919
vt 0.2476599 0.7497066
vt 0.1360478 0.738008
vt 0.134619 0.7383207
vt 0.13457 0.7420949
vt 0.135996 0.7419989
vt 0.13457 0.7463251
vt 0.135996 0.7464719
vt 0.134619 0.7498778
vt 0.1360478 0.7502286
vt 0.6590489 0.7381116
vt 0.6576205 0.7384969
vt 0.6575694 0.7417903
vt 0.6589949 0.741594
vt 0.6575694 0.7459743
vt 0.6589949 0.7460182
vt 0.6576205 0.7499282
vt 0.6590489 0.7501993
vt 0.4938405 0.6885214
vt 0.4924225 0.6888186
vt 0.4923141 0.6926516
vt 0.4937259 0.6925745
vt 0.492314 0.6968726
vt 0.4937259 0.6970379
vt 0.4924225 0.7003506
vt 0.4938405 0.7007156
vt 0.2812284 0.7290044
vt 0.2833438 0.7284437
vt 0.2833436 0.7270769
vt 0.2812282 0.7265162
vt 0.2824861 0.7311594
vt 0.2840346 0.7258931
vt 0.2840346 0.7296275
vt 0.2824859 0.7243612
vt 0.2846647 0.7324033
vt 0.2852313 0.7252096
vt 0.2852314 0.7303109
vt 0.2846644 0.7231172
vt 0.2871801 0.7324033
vt 0.2866132 0.7252095
vt 0.2866132 0.730311
vt 0.28718 0.723117
vt 0.2893586 0.7311592
vt 0.2878098 0.7258931
vt 0.28781 0.7296274
vt 0.2893585 0.7243612
vt 0.2906163 0.7290043
vt 0.2885008 0.7270768
vt 0.2885009 0.7284436
vt 0.2906163 0.7265159
vn -0.2249293 -0.8438357 0.4871839
vn -0.7265787 -0.5950394 0.3435279
vn -0.7265931 -0.3435203 0.5950263
vn -0.2249293 -0.4871839 0.8438357
vn -0.7265771 0 0.6870849
vn -0.1215891 -0.8596085 0.4962754
vn -0.2249241 0 0.9743763
vn -0.7265931 0.3435203 0.5950263
vn -0.2249293 0.4871839 0.8438357
vn -0.1215891 -0.4962754 0.8596085
vn -0.1215891 0 0.9925805
vn -0.1215891 0.4962754 0.8596085
vn 0 0.4999893 0.8660316
vn 0 0 1
vn 0.2924976 0.4781469 0.828143
vn 0 -0.4999893 0.8660316
vn 0 -0.8660316 0.4999893
vn 0.2925263 0 0.9562575
vn 0.2925298 -0.4781191 0.8281476
vn 0.2925298 -0.8281476 0.4781191
vn 0 -0.8660108 0.5000254
vn 0 -0.4999893 0.8660316
vn -0.2925298 -0.8281476 0.4781191
vn 0 0 1
vn 0 0.5000026 0.866024
vn -0.513792 -0.6685858 0.5375971
vn 0 -0.8660316 0.4999893
vn -0.9198303 0 0.3923165
vn -0.5138146 0.6685754 0.5375887
vn 0 -0.9238803 0.3826815
vn 0 -0.8660316 0.4999893
vn 0 -0.9238803 0.3826815
vn 0.5231951 -0.7380521 0.4260822
vn 0.7116766 -0.5981452 0.3684274
vn -0.2249293 -0.4871839 -0.8438357
vn -0.7265787 -0.3435279 -0.5950394
vn -0.7265787 -0.5950394 -0.3435279
vn -0.2249293 -0.8438357 -0.4871839
vn -0.7265771 -0.6870849 0
vn -0.1215891 -0.4962754 -0.8596085
vn -0.2249241 -0.9743763 0
vn -0.7265787 -0.5950394 0.3435279
vn -0.2249293 -0.8438357 0.4871839
vn -0.1215891 -0.8596085 -0.4962754
vn -0.1215891 -0.9925805 0
vn -0.1215891 -0.8596085 0.4962754
vn 0 -0.8660316 0.4999893
vn 0 -1 0
vn 0.2925298 -0.8281476 0.4781191
vn 0 -0.8660316 -0.4999893
vn 0 -0.4999893 -0.8660316
vn 0.2925263 -0.9562575 0
vn 0.2925298 -0.8281476 -0.4781191
vn 0.2925298 -0.4781191 -0.8281476
vn 0 -0.5000026 -0.866024
vn 0 -0.8660108 -0.5000254
vn -0.2924976 -0.4781469 -0.828143
vn 0 -1 0
vn 0 -0.8660108 0.5000254
vn -0.2925298 -0.8281476 -0.4781191
vn 0 -0.4999893 -0.8660316
vn -0.2925263 -0.9562575 0
vn -0.2925298 -0.8281476 0.4781191
vn 0 -0.8660316 -0.4999893
vn 0 -0.4999893 -0.8660316
vn 0 -1 0
vn 0 -0.8660316 0.4999893
vn 0 -0.8660316 -0.4999893
vn 0.5231883 -0.4261072 -0.7380425
vn 0.5231883 -0.7380425 -0.4261072
vn 0 -1 0
vn 0 -0.8660316 0.4999893
vn 0.5231895 -0.8522163 0
vn 0.5231951 -0.7380521 0.4260822
vn -0.2249293 0.8438357 -0.4871839
vn -0.7265931 0.5950263 -0.3435203
vn -0.7265787 0.3435279 -0.5950394
vn -0.2249293 0.4871839 -0.8438357
vn -0.7265771 0 -0.6870849
vn -0.1215891 0.8596085 -0.4962754
vn -0.2249241 0 -0.9743763
vn -0.7265787 -0.3435279 -0.5950394
vn -0.2249293 -0.4871839 -0.8438357
vn -0.1215891 0.4962754 -0.8596085
vn -0.1215891 0 -0.9925805
vn -0.1215891 -0.4962754 -0.8596085
vn 0 -0.4999893 -0.8660316
vn 0 0 -1
vn 0.2925298 -0.4781191 -0.8281476
vn 0 0.4999893 -0.8660316
vn 0 0.8660316 -0.4999893
vn 0.2925263 0 -0.9562575
vn 0.2925018 0.4781233 -0.828155
vn 0.2925018 0.828155 -0.4781233
vn 0 0.8660108 -0.5000254
vn 0 0.4999893 -0.8660316
vn -0.2925298 0.8281476 -0.4781191
vn 0 0 -1
vn 0 -0.5000026 -0.866024
vn -0.2925298 0.4781191 -0.8281476
vn 0 0.8660316 -0.4999893
vn -0.2925263 0 -0.9562575
vn -0.2924976 -0.4781469 -0.828143
vn 0 0.4999893 -0.8660316
vn 0 0.8660316 -0.4999893
vn 0 0 -1
vn 0 -0.4999893 -0.8660316
vn 0 0.4999893 -0.8660316
vn 0.5231883 0.7380425 -0.4261072
vn 0.5231883 0.4261072 -0.7380425
vn 0 0 -1
vn 0 -0.4999893 -0.8660316
vn 0.5231895 0 -0.8522163
vn 0.5231883 -0.4261072 -0.7380425
vn -0.2249293 0.4871839 0.8438357
vn -0.7265931 0.3435203 0.5950263
vn -0.7265787 0.5950394 0.3435279
vn -0.2249293 0.8438357 0.4871839
vn -0.7265771 0.6870849 0
vn -0.1215891 0.4962754 0.8596085
vn -0.2249241 0.9743763 0
vn -0.7265931 0.5950263 -0.3435203
vn -0.2249293 0.8438357 -0.4871839
vn -0.1215891 0.8596085 0.4962754
vn -0.1215891 0.9925805 0
vn -0.1215891 0.8596085 -0.4962754
vn 0 0.8660316 -0.4999893
vn 0 1 0
vn 0.2925018 0.828155 -0.4781233
vn 0 0.8660316 0.4999893
vn 0 0.4999893 0.8660316
vn 0.2925263 0.9562575 0
vn 0.2924945 0.8281646 0.4781113
vn 0.2924976 0.4781469 0.828143
vn 0 0.5000026 0.866024
vn 0 0.8660108 0.5000254
vn -0.5138146 0.6685754 0.5375887
vn 0 1 0
vn 0 0.8660108 -0.5000254
vn -0.2925298 0.8281476 0.4781191
vn -0.2925263 0.9562575 0
vn -0.2925298 0.8281476 -0.4781191
vn 0 0.9238803 0.3826815
vn -0.3725217 0.8752704 -0.3084306
vn 0 1 0
vn 0 0.8660316 -0.4999893
vn 0 0.8660316 0.4999893
vn 0 1 0
vn 0 0.8660316 -0.4999893
vn 0 0.8660316 0.4999893
vn 0.5231895 0.8522163 0
vn 0.5231883 0.7380425 -0.4261072
vn 0.5231883 0.7380425 0.4261072
vn 0.7116766 0.5981452 0.3684274
vn 0 0.9238803 0.3826815
vn 0 1 0
vn 0 1 0
vn 0.7070915 0.707122 0
vn 0.260545 0.7861519 0.5604297
vn 0.6718223 0.6496653 0.3557945
vn 0.2604819 0.7861761 0.5604252
vn 0.1485668 0.7523559 0.6417854
vn 0 0.6087339 -0.7933744
vn 0.002288952 0.7933202 0.6088002
vn -0.5651867 0.5022865 -0.6544251
vn -0.5910365 0.6392264 0.4920014
vn -0.7702661 0 -0.6377226
vn -0.2671672 -0.4818104 -0.8345541
vn -0.7702721 -0.3188638 -0.552274
vn -0.2671669 0 -0.9636502
vn -0.8423945 -0.2694246 -0.466671
vn -0.7702796 0.3188364 -0.5522795
vn -0.8423861 0 -0.5388744
vn -0.2671672 0.4818104 -0.8345541
vn -0.7702721 0.552274 -0.3188638
vn -0.8423945 0.2694246 -0.466671
vn -0.2671633 0.8345418 -0.4818338
vn -0.8423945 0.466671 -0.2694246
vn -0.7702661 0.6377226 0
vn -0.2671633 0.8345418 -0.4818338
vn -0.7702721 0.552274 -0.3188638
vn -0.2671669 0.9636502 0
vn -0.8423945 0.466671 -0.2694246
vn -0.7702721 0.552274 0.3188638
vn -0.8423861 0.5388744 0
vn -0.2671672 0.8345541 0.4818104
vn -0.7702796 0.3188364 0.5522795
vn -0.8423945 0.466671 0.2694246
vn -0.2671672 0.4818104 0.8345541
vn -0.8423945 0.2694246 0.466671
vn -0.7702661 0 0.6377226
vn -0.2671672 0.4818104 0.8345541
vn -0.7702796 0.3188364 0.5522795
vn -0.2671669 0 0.9636502
vn -0.8423945 0.2694246 0.466671
vn -0.7702667 -0.318831 0.5523007
vn -0.8423861 0 0.5388744
vn -0.2671672 -0.4818104 0.8345541
vn -0.7702796 -0.5522795 0.3188364
vn -0.8423945 -0.2694246 0.466671
vn -0.2671672 -0.8345541 0.4818104
vn -0.8423945 -0.466671 0.2694246
vn -0.7702661 -0.6377226 0
vn -0.2671672 -0.8345541 0.4818104
vn -0.7702796 -0.5522795 0.3188364
vn -0.2671669 -0.9636502 0
vn -0.8423945 -0.466671 0.2694246
vn -0.7702592 -0.5522953 -0.3188584
vn -0.8423861 -0.5388744 0
vn -0.2671633 -0.8345418 -0.4818338
vn -0.7702721 -0.3188638 -0.552274
vn -0.8423945 -0.466671 -0.2694246
vn -0.2671672 -0.4818104 -0.8345541
vn -0.8423945 -0.2694246 -0.466671
vn -0.8423945 -0.466671 0.2694246
vn -0.8423861 -0.5388744 0
vn -0.8423945 -0.466671 -0.2694246
vn -0.8423945 -0.2694246 0.466671
vn -0.8423945 -0.2694246 -0.466671
vn -0.8423861 0 0.5388744
vn -0.8423861 0 -0.5388744
vn -0.8423945 0.2694246 0.466671
vn -0.8423945 0.2694246 -0.466671
vn -0.8423945 0.466671 0.2694246
vn -0.8423945 0.466671 -0.2694246
vn -0.8423861 0.5388744 0
vn 0.9586762 0.142251 -0.2463833
vn 0.3217081 -0.820003 0.4733909
vn 0.9586762 0.2463833 -0.142251
vn 0.3217308 -0.47341 0.8199831
vn 0.9586755 0 -0.2845019
vn 0.006927781 -0.8660032 0.4999905
vn 0.3217068 0 0.9468393
vn 0.9586762 -0.142251 -0.2463833
vn 0.3217034 0.4734146 0.8199912
vn 0.006927781 -0.4999905 0.8660032
vn 0.6558039 -0.6537896 0.3774657
vn 0.6557908 -0.3774581 0.6538071
vn 0.006927747 0 0.999976
vn 0.006927781 0.4999905 0.8660032
vn 0.6557888 0 0.7549445
vn 0.6557908 0.3774581 0.6538071
vn 0.9586762 0.2463833 0.142251
vn 0.3217308 -0.47341 -0.8199831
vn 0.9586762 0.142251 0.2463833
vn 0.3217034 -0.8199912 -0.4734146
vn 0.9586755 0.2845019 0
vn 0.006927781 -0.4999905 -0.8660032
vn 0.3217068 -0.9468393 0
vn 0.9586762 0.2463833 -0.142251
vn 0.3217081 -0.820003 0.4733909
vn 0.006927781 -0.8660032 -0.4999905
vn 0.6557908 -0.3774581 -0.6538071
vn 0.6558039 -0.6537896 -0.3774657
vn 0.006927747 -0.999976 0
vn 0.006927781 -0.8660032 0.4999905
vn 0.6557888 -0.7549445 0
vn 0.6558039 -0.6537896 0.3774657
vn 0.9586762 -0.142251 0.2463833
vn 0.3217034 0.8199912 -0.4734146
vn 0.9586762 -0.2463833 0.142251
vn 0.3217034 0.4734146 -0.8199912
vn 0.9586755 0 0.2845019
vn 0.006927781 0.8660032 -0.4999905
vn 0.3217068 0 -0.9468393
vn 0.9586762 0.142251 0.2463833
vn 0.3217308 -0.47341 -0.8199831
vn 0.006927781 0.4999905 -0.8660032
vn 0.6557908 0.6538071 -0.3774581
vn 0.6557908 0.3774581 -0.6538071
vn 0.006927747 0 -0.999976
vn 0.006927781 -0.4999905 -0.8660032
vn 0.6557888 0 -0.7549445
vn 0.6557908 -0.3774581 -0.6538071
vn 0.9586762 -0.2463833 -0.142251
vn 0.3217034 0.4734146 0.8199912
vn 0.9586762 -0.142251 -0.2463833
vn 0.3217034 0.8199912 0.4734146
vn 0.9586755 -0.2845019 0
vn 0.006927781 0.4999905 0.8660032
vn 0.3216975 0.9468425 0
vn 0.9586762 -0.2463833 0.142251
vn 0.3217034 0.8199912 -0.4734146
vn 0.006927781 0.8660032 0.4999905
vn 0.6557908 0.3774581 0.6538071
vn 0.6557908 0.6538071 0.3774581
vn 0.006927747 0.999976 0
vn 0.006927781 0.8660032 -0.4999905
vn 0.6557888 0.7549445 0
vn 0.6557908 0.6538071 -0.3774581
vn 0.6558039 -0.6537896 -0.3774657
vn 0.6557888 -0.7549445 0
vn 0.6558039 -0.6537896 0.3774657
vn 0.6557908 -0.3774581 -0.6538071
vn 0.6557908 -0.3774581 0.6538071
vn 0.6557888 0 0.7549445
vn 0.6557888 0 -0.7549445
vn 0.6557908 0.3774581 0.6538071
vn 0.6557908 0.3774581 -0.6538071
vn 0.6557908 0.6538071 0.3774581
vn 0.6557908 0.6538071 -0.3774581
vn 0.6557888 0.7549445 0
vn 0.260545 0.7861519 0.5604297
vn 0.6718223 0.6496653 0.3557945
vn 0.8033858 0 0.5954589
vn 0.4215668 0 0.9067973
vn 0.6718211 -0.6496336 0.3558549
vn 0.2604819 0.7861761 0.5604252
vn 0.2605148 -0.7861833 0.5603998
vn 0.4215049 0 0.9068261
vn 0.1485668 0.7523559 0.6417854
vn 0.2604819 -0.7861761 0.5604252
vn 0.2105211 -3.051915E-05 0.9775893
vn 0.002288952 0.7933202 0.6088002
vn 0.1485663 -0.7523839 0.6417527
vn 0.003753865 -0.0001220769 0.999993
vn -0.5910365 0.6392264 0.4920014
vn 0.002288969 -0.7933871 0.6087131
vn -0.6515803 0.0001525949 0.7585797
vn -0.5923187 -0.6385555 0.4913303
vn 0.7071068 -0.7071068 0
vn 0.6718211 -0.6496336 0.3558549
vn 0.8033858 0 0.5954589
vn 1 0 0
vn 0.6718223 0.6496653 0.3557945
vn 0.7070915 0.707122 0
vn 0.7116766 -0.5981452 0.3684274
vn 0.9876968 0 0.156381
vn 0.7116766 0.5981452 0.3684274
vn 0.9763097 -0.1081906 0.187388
vn 0.976309 0 0.2163811
vn 0.9763097 -0.187388 0.1081906
vn 0.5231951 -0.7380521 0.4260822
vn 0.9763097 0.1081906 0.187388
vn 0.5231883 0.7380425 0.4261072
vn 0.976309 -0.2163811 0
vn 0.5231895 -0.8522163 0
vn 0.9763097 0.187388 0.1081906
vn 0.5231895 0.8522163 0
vn 0.9763097 -0.187388 -0.1081906
vn 0.5231883 -0.7380425 -0.4261072
vn 0.976309 0.2163811 0
vn 0.5231883 0.7380425 -0.4261072
vn 0.9763129 -0.1081605 -0.1873886
vn 0.5231883 -0.4261072 -0.7380425
vn 0.9763097 0.187388 -0.1081906
vn 0.5231883 0.4261072 -0.7380425
vn 0.976309 0 -0.2163811
vn 0.5231895 0 -0.8522163
vn 0.9763097 0.1081906 -0.187388
vn 1 0 0
vn 1 0 0
vn 1 0 0
vn 1 0 0
vn 1 0 0
vn 1 0 0
vn 1 0 0
vn 1 0 0
vn 1 0 0
vn 1 0 0
vn 1 0 0
vn 1 0 0
vn 0.8576437 -0.5142444 0
vn 0.8576382 -0.4453602 0.2571205
vn 0.8576382 -0.4453602 -0.2571205
vn 0.8576499 -0.257124 -0.4453358
vn 0.8576499 -0.257124 0.4453358
vn 0.8576437 0 -0.5142444
vn 0.8576499 0.257124 -0.4453358
vn 0.8576437 0 0.5142444
vn 0.8576499 0.4453358 -0.257124
vn 0.8576499 0.257124 0.4453358
vn 0.8576571 0.5142219 0
vn 0.8576499 0.4453358 0.257124
vn 0 0.6087339 -0.7933744
vn -0.5651867 0.5022865 -0.6544251
vn -0.7703632 0.0004577866 -0.6376051
vn 0 0 -1
vn -0.3725217 0.8752704 -0.3084306
vn -0.5645128 -0.5026504 -0.6547273
vn -0.653236 0 -0.7571544
vn 0 -0.6087679 -0.7933484
vn -0.3725117 -0.8752774 -0.3084224
vn -0.9198303 0 0.3923165
vn -0.3725117 -0.8752774 -0.3084224
vn -0.513792 -0.6685858 0.5375971
vn -0.653236 0 -0.7571544
vn -0.5138146 0.6685754 0.5375887
vn -0.3725217 0.8752704 -0.3084306
vn 0 -0.9238803 0.3826815
vn 0.7071068 -0.7071068 0
vn 0.7116766 -0.5981452 0.3684274
vn 0 -1 0
vn 0.6718211 -0.6496336 0.3558549
vn 0 -0.9238803 0.3826815
vn 0.2605148 -0.7861833 0.5603998
vn 0 -1 0
vn -0.513792 -0.6685858 0.5375971
vn 0.2604819 -0.7861761 0.5604252
vn -0.3725117 -0.8752774 -0.3084224
vn 0.1485663 -0.7523839 0.6417527
vn 0.002288969 -0.7933871 0.6087131
vn 0 -0.6087679 -0.7933484
vn -0.5923187 -0.6385555 0.4913303
vn -0.5645128 -0.5026504 -0.6547273
vn -0.5651867 0.5022865 -0.6544251
vn -0.5910365 0.6392264 0.4920014
vn -0.6515803 0.0001525949 0.7585797
vn -0.7703632 0.0004577866 -0.6376051
vn -0.5923187 -0.6385555 0.4913303
vn -0.5645128 -0.5026504 -0.6547273
vn 0.8576382 -0.4453602 -0.2571205
vn 0.9586762 -0.142251 -0.2463833
vn 0.8576499 -0.257124 -0.4453358
vn 0.9586762 -0.2463833 -0.142251
vn 0.8576437 -0.5142444 0
vn 0.9586755 -0.2845019 0
vn 0.8576382 -0.4453602 0.2571205
vn 0.9586762 -0.2463833 0.142251
vn 0.8576499 0.257124 0.4453358
vn 0.9586762 0.142251 0.2463833
vn 0.9586755 0 0.2845019
vn 0.8576437 0 0.5142444
vn 0.9586762 -0.142251 0.2463833
vn 0.8576499 -0.257124 0.4453358
vn 0.9586762 -0.2463833 0.142251
vn 0.8576382 -0.4453602 0.2571205
vn 0.8576499 0.4453358 -0.257124
vn 0.9586762 0.2463833 -0.142251
vn 0.9586755 0.2845019 0
vn 0.8576571 0.5142219 0
vn 0.9586762 0.2463833 0.142251
vn 0.8576499 0.4453358 0.257124
vn 0.9586762 0.142251 0.2463833
vn 0.8576499 0.257124 0.4453358
vn 0.8576499 -0.257124 -0.4453358
vn 0.9586762 -0.142251 -0.2463833
vn 0.9586755 0 -0.2845019
vn 0.8576437 0 -0.5142444
vn 0.9586762 0.142251 -0.2463833
vn 0.8576499 0.257124 -0.4453358
vn 0.9586762 0.2463833 -0.142251
vn 0.8576499 0.4453358 -0.257124
vn -0.7265931 0.3435203 0.5950263
vn -0.7702796 0.3188364 0.5522795
vn -0.7702721 0.552274 0.3188638
vn -0.7265787 0.5950394 0.3435279
vn -0.7265771 0 0.6870849
vn -0.7702661 0.6377226 0
vn -0.7702661 0 0.6377226
vn -0.7265771 0.6870849 0
vn -0.7265931 -0.3435203 0.5950263
vn -0.7702721 0.552274 -0.3188638
vn -0.7702667 -0.318831 0.5523007
vn -0.7265931 0.5950263 -0.3435203
vn -0.7265787 -0.5950394 0.3435279
vn -0.7702796 0.3188364 -0.5522795
vn -0.7702796 -0.5522795 0.3188364
vn -0.7265787 0.3435279 -0.5950394
vn -0.7265771 -0.6870849 0
vn -0.7702661 0 -0.6377226
vn -0.7702661 -0.6377226 0
vn -0.7265771 0 -0.6870849
vn -0.7265787 -0.5950394 -0.3435279
vn -0.7702721 -0.3188638 -0.552274
vn -0.7702592 -0.5522953 -0.3188584
vn -0.7265787 -0.3435279 -0.5950394
usemtl PensPencils_DefaultMaterial_AlbedoTransparency
f 3/3/3 2/2/2 1/1/1
f 4/4/4 3/3/3 1/1/1
f 5/5/5 3/3/3 4/4/4
f 4/4/4 1/1/1 6/6/6
f 7/7/7 5/5/5 4/4/4
f 8/8/8 5/5/5 7/7/7
f 9/9/9 8/8/8 7/7/7
f 10/10/10 4/4/4 6/6/6
f 7/7/7 4/4/4 10/10/10
f 9/9/9 7/7/7 11/11/11
f 11/11/11 7/7/7 10/10/10
f 12/12/12 9/9/9 11/11/11
f 13/13/13 12/12/12 11/11/11
f 14/14/14 13/13/13 11/11/11
f 14/14/14 11/11/11 10/10/10
f 15/15/15 13/13/13 14/14/14
f 16/16/16 10/10/10 6/6/6
f 16/16/16 14/14/14 10/10/10
f 17/17/17 16/16/16 6/6/6
f 18/18/18 15/15/15 14/14/14
f 18/18/18 14/14/14 16/16/16
f 19/19/19 16/16/16 17/17/17
f 19/19/19 18/18/18 16/16/16
f 20/20/20 19/19/19 17/17/17
f 20/20/20 21/21/21 19/19/19
f 21/21/21 22/22/22 19/19/19
f 19/19/19 22/22/22 18/18/18
f 21/21/21 23/23/23 22/22/22
f 18/18/18 24/24/24 15/15/15
f 22/22/22 24/24/24 18/18/18
f 24/24/24 25/25/25 15/15/15
f 23/23/23 26/26/26 22/22/22
f 22/22/22 26/26/26 24/24/24
f 23/23/23 27/27/27 26/26/26
f 24/24/24 28/28/28 25/25/25
f 26/26/26 28/28/28 24/24/24
f 28/28/28 29/29/29 25/25/25
f 27/27/27 30/30/30 26/26/26
f 27/27/27 31/31/31 30/30/30
f 31/31/31 32/32/32 30/30/30
f 31/31/31 33/33/33 32/32/32
f 33/33/33 34/34/34 32/32/32
f 37/37/37 36/36/36 35/35/35
f 38/38/38 37/37/37 35/35/35
f 39/39/39 37/37/37 38/38/38
f 38/38/38 35/35/35 40/40/40
f 41/41/41 39/39/39 38/38/38
f 42/42/42 39/39/39 41/41/41
f 43/43/43 42/42/42 41/41/41
f 44/44/44 38/38/38 40/40/40
f 41/41/41 38/38/38 44/44/44
f 43/43/43 41/41/41 45/45/45
f 45/45/45 41/41/41 44/44/44
f 46/46/46 43/43/43 45/45/45
f 47/47/47 46/46/46 45/45/45
f 48/48/48 47/47/47 45/45/45
f 48/48/48 45/45/45 44/44/44
f 49/49/49 47/47/47 48/48/48
f 50/50/50 44/44/44 40/40/40
f 50/50/50 48/48/48 44/44/44
f 51/51/51 50/50/50 40/40/40
f 52/52/52 49/49/49 48/48/48
f 52/52/52 48/48/48 50/50/50
f 53/53/53 50/50/50 51/51/51
f 53/53/53 52/52/52 50/50/50
f 54/54/54 53/53/53 51/51/51
f 54/54/54 55/55/55 53/53/53
f 55/55/55 56/56/56 53/53/53
f 53/53/53 56/56/56 52/52/52
f 55/55/55 57/57/57 56/56/56
f 52/52/52 58/58/58 49/49/49
f 56/56/56 58/58/58 52/52/52
f 58/58/58 59/59/59 49/49/49
f 57/57/57 60/60/60 56/56/56
f 56/56/56 60/60/60 58/58/58
f 57/57/57 61/61/61 60/60/60
f 58/58/58 62/62/62 59/59/59
f 60/60/60 62/62/62 58/58/58
f 62/62/62 63/63/63 59/59/59
f 61/61/61 64/64/64 60/60/60
f 60/60/60 64/64/64 62/62/62
f 61/61/61 65/65/65 64/64/64
f 62/62/62 66/66/66 63/63/63
f 64/64/64 66/66/66 62/62/62
f 66/66/66 67/67/67 63/63/63
f 65/65/65 68/68/68 64/64/64
f 64/64/64 68/68/68 66/66/66
f 65/65/65 69/69/69 68/68/68
f 69/69/69 70/70/70 68/68/68
f 66/66/66 71/71/71 67/67/67
f 68/68/68 71/71/71 66/66/66
f 68/68/68 70/70/70 71/71/71
f 71/71/71 72/72/72 67/67/67
f 70/70/70 73/73/73 71/71/71
f 71/71/71 73/73/73 72/72/72
f 73/73/73 74/74/74 72/72/72
f 77/77/77 76/76/76 75/75/75
f 78/78/78 77/77/77 75/75/75
f 79/79/79 77/77/77 78/78/78
f 78/78/78 75/75/75 80/80/80
f 81/81/81 79/79/79 78/78/78
f 82/82/82 79/79/79 81/81/81
f 83/83/83 82/82/82 81/81/81
f 84/84/84 78/78/78 80/80/80
f 81/81/81 78/78/78 84/84/84
f 83/83/83 81/81/81 85/85/85
f 85/85/85 81/81/81 84/84/84
f 86/86/86 83/83/83 85/85/85
f 87/87/87 86/86/86 85/85/85
f 88/88/88 87/87/87 85/85/85
f 88/88/88 85/85/85 84/84/84
f 89/89/89 87/87/87 88/88/88
f 90/90/90 84/84/84 80/80/80
f 90/90/90 88/88/88 84/84/84
f 91/91/91 90/90/90 80/80/80
f 92/92/92 89/89/89 88/88/88
f 92/92/92 88/88/88 90/90/90
f 93/93/93 90/90/90 91/91/91
f 93/93/93 92/92/92 90/90/90
f 94/94/94 93/93/93 91/91/91
f 94/94/94 95/95/95 93/93/93
f 95/95/95 96/96/96 93/93/93
f 93/93/93 96/96/96 92/92/92
f 95/95/95 97/97/97 96/96/96
f 92/92/92 98/98/98 89/89/89
f 96/96/96 98/98/98 92/92/92
f 98/98/98 99/99/99 89/89/89
f 97/97/97 100/100/100 96/96/96
f 96/96/96 100/100/100 98/98/98
f 97/97/97 101/101/101 100/100/100
f 98/98/98 102/102/102 99/99/99
f 100/100/100 102/102/102 98/98/98
f 102/102/102 103/103/103 99/99/99
f 101/101/101 104/104/104 100/100/100
f 100/100/100 104/104/104 102/102/102
f 101/101/101 105/105/105 104/104/104
f 102/102/102 106/106/106 103/103/103
f 104/104/104 106/106/106 102/102/102
f 106/106/106 107/107/107 103/103/103
f 105/105/105 108/108/108 104/104/104
f 104/104/104 108/108/108 106/106/106
f 105/105/105 109/109/109 108/108/108
f 109/109/109 110/110/110 108/108/108
f 106/106/106 111/111/111 107/107/107
f 108/108/108 111/111/111 106/106/106
f 108/108/108 110/110/110 111/111/111
f 111/111/111 112/112/112 107/107/107
f 110/110/110 113/113/113 111/111/111
f 111/111/111 113/113/113 112/112/112
f 113/113/113 114/114/114 112/112/112
f 117/117/117 116/116/116 115/115/115
f 118/118/118 117/117/117 115/115/115
f 119/119/119 117/117/117 118/118/118
f 118/118/118 115/115/115 120/120/120
f 121/121/121 119/119/119 118/118/118
f 122/122/122 119/119/119 121/121/121
f 123/123/123 122/122/122 121/121/121
f 124/124/124 118/118/118 120/120/120
f 121/121/121 118/118/118 124/124/124
f 123/123/123 121/121/121 125/125/125
f 125/125/125 121/121/121 124/124/124
f 126/126/126 123/123/123 125/125/125
f 127/127/127 126/126/126 125/125/125
f 128/128/128 127/127/127 125/125/125
f 128/128/128 125/125/125 124/124/124
f 129/129/129 127/127/127 128/128/128
f 130/130/130 124/124/124 120/120/120
f 130/130/130 128/128/128 124/124/124
f 131/131/131 130/130/130 120/120/120
f 132/132/132 129/129/129 128/128/128
f 132/132/132 128/128/128 130/130/130
f 133/133/133 130/130/130 131/131/131
f 133/133/133 132/132/132 130/130/130
f 134/134/134 133/133/133 131/131/131
f 134/134/134 135/135/135 133/133/133
f 135/135/135 136/136/136 133/133/133
f 133/133/133 136/136/136 132/132/132
f 135/135/135 137/137/137 136/136/136
f 132/132/132 138/138/138 129/129/129
f 136/136/136 138/138/138 132/132/132
f 138/138/138 139/139/139 129/129/129
f 137/137/137 140/140/140 136/136/136
f 136/136/136 140/140/140 138/138/138
f 138/138/138 141/141/141 139/139/139
f 140/140/140 141/141/141 138/138/138
f 141/141/141 142/142/142 139/139/139
f 137/137/137 143/143/143 140/140/140
f 137/137/137 144/144/144 143/143/143
f 141/141/141 145/145/145 142/142/142
f 145/145/145 146/146/146 142/142/142
f 140/140/140 147/147/147 141/141/141
f 143/143/143 147/147/147 140/140/140
f 147/147/147 145/145/145 141/141/141
f 145/145/145 148/148/148 146/146/146
f 148/148/148 149/149/149 146/146/146
f 147/147/147 150/150/150 145/145/145
f 150/150/150 148/148/148 145/145/145
f 148/148/148 151/151/151 149/149/149
f 151/151/151 152/152/152 149/149/149
f 153/153/153 151/151/151 148/148/148
f 150/150/150 153/153/153 148/148/148
f 154/154/154 153/153/153 150/150/150
f 155/155/155 150/150/150 147/147/147
f 143/143/143 155/155/155 147/147/147
f 155/155/155 154/154/154 150/150/150
f 143/143/143 156/156/156 155/155/155
f 144/144/144 156/156/156 143/143/143
f 155/155/155 157/157/157 154/154/154
f 156/156/156 157/157/157 155/155/155
f 157/157/157 158/158/158 154/154/154
f 157/157/157 159/159/159 158/158/158
f 159/159/159 160/160/160 158/158/158
f 161/161/161 159/159/159 157/157/157
f 156/156/156 161/161/161 157/157/157
f 162/162/162 161/161/161 156/156/156
f 144/144/144 162/162/162 156/156/156
f 144/144/144 163/163/163 162/162/162
f 163/163/163 164/164/164 162/162/162
f 163/163/163 165/165/165 164/164/164
f 165/165/165 166/166/166 164/164/164
f 169/169/169 168/168/168 167/167/167
f 168/168/168 170/170/170 167/167/167
f 168/168/168 171/171/171 170/170/170
f 167/167/167 170/170/170 172/172/172
f 171/171/171 173/173/173 170/170/170
f 170/170/170 174/174/174 172/172/172
f 170/170/170 173/173/173 174/174/174
f 172/172/172 174/174/174 175/175/175
f 173/173/173 176/176/176 174/174/174
f 174/174/174 177/177/177 175/175/175
f 174/174/174 176/176/176 177/177/177
f 176/176/176 178/178/178 177/177/177
f 181/181/181 180/180/180 179/179/179
f 180/180/180 182/182/182 179/179/179
f 180/180/180 183/183/183 182/182/182
f 179/179/179 182/182/182 184/184/184
f 183/183/183 185/185/185 182/182/182
f 182/182/182 186/186/186 184/184/184
f 182/182/182 185/185/185 186/186/186
f 184/184/184 186/186/186 187/187/187
f 185/185/185 188/188/188 186/186/186
f 186/186/186 189/189/189 187/187/187
f 186/186/186 188/188/188 189/189/189
f 188/188/188 190/190/190 189/189/189
f 193/193/193 192/192/192 191/191/191
f 192/192/192 194/194/194 191/191/191
f 192/192/192 195/195/195 194/194/194
f 191/191/191 194/194/194 196/196/196
f 195/195/195 197/197/197 194/194/194
f 194/194/194 198/198/198 196/196/196
f 194/194/194 197/197/197 198/198/198
f 196/196/196 198/198/198 199/199/199
f 197/197/197 200/200/200 198/198/198
f 198/198/198 201/201/201 199/199/199
f 198/198/198 200/200/200 201/201/201
f 200/200/200 202/202/202 201/201/201
f 205/205/205 204/204/204 203/203/203
f 204/204/204 206/206/206 203/203/203
f 204/204/204 207/207/207 206/206/206
f 203/203/203 206/206/206 208/208/208
f 207/207/207 209/209/209 206/206/206
f 206/206/206 210/210/210 208/208/208
f 206/206/206 209/209/209 210/210/210
f 208/208/208 210/210/210 211/211/211
f 209/209/209 212/212/212 210/210/210
f 210/210/210 213/213/213 211/211/211
f 210/210/210 212/212/212 213/213/213
f 212/212/212 214/214/214 213/213/213
f 217/217/217 216/216/216 215/215/215
f 215/215/215 218/218/218 217/217/217
f 218/218/218 219/219/219 217/217/217
f 218/218/218 220/220/220 219/219/219
f 220/220/220 221/221/221 219/219/219
f 220/220/220 222/222/222 221/221/221
f 222/222/222 223/223/223 221/221/221
f 222/222/222 224/224/224 223/223/223
f 224/224/224 225/225/225 223/223/223
f 224/224/224 226/226/226 225/225/225
f 229/229/229 228/228/228 227/227/227
f 228/228/228 230/230/230 227/227/227
f 227/227/227 230/230/230 231/231/231
f 228/228/228 232/232/232 230/230/230
f 230/230/230 233/233/233 231/231/231
f 231/231/231 233/233/233 234/234/234
f 233/233/233 235/235/235 234/234/234
f 232/232/232 236/236/236 230/230/230
f 230/230/230 236/236/236 233/233/233
f 232/232/232 237/237/237 236/236/236
f 237/237/237 238/238/238 236/236/236
f 233/233/233 239/239/239 235/235/235
f 236/236/236 239/239/239 233/233/233
f 236/236/236 238/238/238 239/239/239
f 239/239/239 240/240/240 235/235/235
f 238/238/238 241/241/241 239/239/239
f 239/239/239 241/241/241 240/240/240
f 241/241/241 242/242/242 240/240/240
f 245/245/245 244/244/244 243/243/243
f 244/244/244 246/246/246 243/243/243
f 243/243/243 246/246/246 247/247/247
f 244/244/244 248/248/248 246/246/246
f 246/246/246 249/249/249 247/247/247
f 247/247/247 249/249/249 250/250/250
f 249/249/249 251/251/251 250/250/250
f 248/248/248 252/252/252 246/246/246
f 246/246/246 252/252/252 249/249/249
f 248/248/248 253/253/253 252/252/252
f 253/253/253 254/254/254 252/252/252
f 249/249/249 255/255/255 251/251/251
f 252/252/252 255/255/255 249/249/249
f 252/252/252 254/254/254 255/255/255
f 255/255/255 256/256/256 251/251/251
f 254/254/254 257/257/257 255/255/255
f 255/255/255 257/257/257 256/256/256
f 257/257/257 258/258/258 256/256/256
f 261/261/261 260/260/260 259/259/259
f 260/260/260 262/262/262 259/259/259
f 259/259/259 262/262/262 263/263/263
f 260/260/260 264/264/264 262/262/262
f 262/262/262 265/265/265 263/263/263
f 263/263/263 265/265/265 266/266/266
f 265/265/265 267/267/267 266/266/266
f 264/264/264 268/268/268 262/262/262
f 262/262/262 268/268/268 265/265/265
f 264/264/264 269/269/269 268/268/268
f 269/269/269 270/270/270 268/268/268
f 265/265/265 271/271/271 267/267/267
f 268/268/268 271/271/271 265/265/265
f 268/268/268 270/270/270 271/271/271
f 271/271/271 272/272/272 267/267/267
f 270/270/270 273/273/273 271/271/271
f 271/271/271 273/273/273 272/272/272
f 273/273/273 274/274/274 272/272/272
f 277/277/277 276/276/276 275/275/275
f 276/276/276 278/278/278 275/275/275
f 275/275/275 278/278/278 279/279/279
f 276/276/276 280/280/280 278/278/278
f 278/278/278 281/281/281 279/279/279
f 279/279/279 281/281/281 282/282/282
f 281/281/281 283/283/283 282/282/282
f 280/280/280 284/284/284 278/278/278
f 278/278/278 284/284/284 281/281/281
f 280/280/280 285/285/285 284/284/284
f 285/285/285 286/286/286 284/284/284
f 281/281/281 287/287/287 283/283/283
f 284/284/284 287/287/287 281/281/281
f 284/284/284 286/286/286 287/287/287
f 287/287/287 288/288/288 283/283/283
f 286/286/286 289/289/289 287/287/287
f 287/287/287 289/289/289 288/288/288
f 289/289/289 290/290/290 288/288/288
f 293/293/293 292/292/292 291/291/291
f 291/291/291 294/294/294 293/293/293
f 294/294/294 295/295/295 293/293/293
f 294/294/294 296/296/296 295/295/295
f 294/294/294 297/297/297 296/296/296
f 297/297/297 298/298/298 296/296/296
f 297/297/297 299/299/299 298/298/298
f 299/299/299 300/300/300 298/298/298
f 299/299/299 301/301/301 300/300/300
f 301/301/301 302/302/302 300/300/300
f 305/305/305 304/304/304 303/303/303
f 306/306/306 305/305/305 303/303/303
f 307/307/307 305/305/305 306/306/306
f 306/306/306 303/303/303 308/308/308
f 309/309/309 307/307/307 306/306/306
f 310/310/310 306/306/306 308/308/308
f 309/309/309 306/306/306 310/310/310
f 310/310/310 308/308/308 311/311/311
f 312/312/312 309/309/309 310/310/310
f 313/313/313 310/310/310 311/311/311
f 312/312/312 310/310/310 313/313/313
f 311/311/311 314/314/314 313/313/313
f 315/315/315 312/312/312 313/313/313
f 314/314/314 316/316/316 313/313/313
f 313/313/313 316/316/316 315/315/315
f 314/314/314 317/317/317 316/316/316
f 316/316/316 318/318/318 315/315/315
f 317/317/317 319/319/319 316/316/316
f 316/316/316 319/319/319 318/318/318
f 319/319/319 320/320/320 318/318/318
f 323/323/323 322/322/322 321/321/321
f 324/324/324 323/323/323 321/321/321
f 325/325/325 323/323/323 324/324/324
f 326/326/326 325/325/325 324/324/324
f 324/324/324 321/321/321 327/327/327
f 326/326/326 324/324/324 328/328/328
f 328/328/328 324/324/324 327/327/327
f 329/329/329 326/326/326 328/328/328
f 327/327/327 330/330/330 328/328/328
f 328/328/328 331/331/331 329/329/329
f 330/330/330 331/331/331 328/328/328
f 332/332/332 330/330/330 327/327/327
f 333/333/333 332/332/332 327/327/327
f 331/331/331 334/334/334 329/329/329
f 329/329/329 334/334/334 335/335/335
f 336/336/336 332/332/332 333/333/333
f 337/337/337 336/336/336 333/333/333
f 334/334/334 338/338/338 335/335/335
f 335/335/335 338/338/338 339/339/339
f 340/340/340 336/336/336 337/337/337
f 341/341/341 340/340/340 337/337/337
f 338/338/338 342/342/342 339/339/339
f 339/339/339 342/342/342 343/343/343
f 344/344/344 340/340/340 341/341/341
f 345/345/345 344/344/344 341/341/341
f 342/342/342 346/346/346 343/343/343
f 343/343/343 346/346/346 347/347/347
f 348/348/348 344/344/344 345/345/345
f 349/349/349 348/348/348 345/345/345
f 347/347/347 350/350/350 349/349/349
f 346/346/346 350/350/350 347/347/347
f 350/350/350 348/348/348 349/349/349
f 340/340/340 351/351/351 336/336/336
f 344/344/344 352/352/352 340/340/340
f 352/352/352 351/351/351 340/340/340
f 348/348/348 353/353/353 344/344/344
f 353/353/353 352/352/352 344/344/344
f 350/350/350 354/354/354 348/348/348
f 354/354/354 353/353/353 348/348/348
f 346/346/346 355/355/355 350/350/350
f 355/355/355 354/354/354 350/350/350
f 342/342/342 356/356/356 346/346/346
f 356/356/356 355/355/355 346/346/346
f 351/351/351 357/357/357 336/336/336
f 336/336/336 357/357/357 332/332/332
f 358/358/358 356/356/356 342/342/342
f 338/338/338 358/358/358 342/342/342
f 357/357/357 359/359/359 332/332/332
f 332/332/332 359/359/359 330/330/330
f 360/360/360 358/358/358 338/338/338
f 334/334/334 360/360/360 338/338/338
f 359/359/359 361/361/361 330/330/330
f 330/330/330 361/361/361 331/331/331
f 331/331/331 362/362/362 334/334/334
f 362/362/362 360/360/360 334/334/334
f 361/361/361 362/362/362 331/331/331
f 356/356/356 363/363/363 355/355/355
f 363/363/363 364/364/364 355/355/355
f 365/365/365 363/363/363 356/356/356
f 358/358/358 365/365/365 356/356/356
f 355/355/355 364/364/364 354/354/354
f 366/366/366 365/365/365 358/358/358
f 360/360/360 366/366/366 358/358/358
f 364/364/364 367/367/367 354/354/354
f 368/368/368 366/366/366 360/360/360
f 362/362/362 368/368/368 360/360/360
f 354/354/354 367/367/367 353/353/353
f 369/369/369 368/368/368 362/362/362
f 361/361/361 369/369/369 362/362/362
f 367/367/367 370/370/370 353/353/353
f 371/371/371 369/369/369 361/361/361
f 353/353/353 370/370/370 352/352/352
f 359/359/359 371/371/371 361/361/361
f 370/370/370 372/372/372 352/352/352
f 373/373/373 371/371/371 359/359/359
f 352/352/352 372/372/372 351/351/351
f 357/357/357 373/373/373 359/359/359
f 372/372/372 374/374/374 351/351/351
f 374/374/374 373/373/373 357/357/357
f 351/351/351 374/374/374 357/357/357
f 377/377/377 376/376/376 375/375/375
f 378/378/378 377/377/377 375/375/375
f 378/378/378 375/375/375 379/379/379
f 380/380/380 377/377/377 378/378/378
f 381/381/381 378/378/378 379/379/379
f 382/382/382 380/380/380 378/378/378
f 382/382/382 378/378/378 381/381/381
f 383/383/383 382/382/382 381/381/381
f 386/386/386 385/385/385 384/384/384
f 385/385/385 387/387/387 384/384/384
f 384/384/384 387/387/387 388/388/388
f 387/387/387 389/389/389 388/388/388
f 392/392/392 391/391/391 390/390/390
f 391/391/391 393/393/393 390/390/390
f 391/391/391 394/394/394 393/393/393
f 390/390/390 393/393/393 395/395/395
f 394/394/394 396/396/396 393/393/393
f 393/393/393 397/397/397 395/395/395
f 393/393/393 396/396/396 397/397/397
f 395/395/395 397/397/397 398/398/398
f 396/396/396 399/399/399 397/397/397
f 397/397/397 400/400/400 398/398/398
f 397/397/397 399/399/399 400/400/400
f 399/399/399 401/401/401 400/400/400
f 401/401/401 402/402/402 400/400/400
f 402/402/402 403/403/403 400/400/400
f 402/402/402 404/404/404 403/403/403
f 404/404/404 405/405/405 403/403/403
f 408/408/408 407/407/407 406/406/406
f 409/409/409 408/408/408 406/406/406
f 410/410/410 408/408/408 409/409/409
f 411/411/411 410/410/410 409/409/409
f 414/414/414 413/413/413 412/412/412
f 413/413/413 415/415/415 412/412/412
f 412/412/412 415/415/415 416/416/416
f 415/415/415 417/417/417 416/416/416
f 416/416/416 417/417/417 418/418/418
f 417/417/417 419/419/419 418/418/418
f 422/422/422 421/421/421 420/420/420
f 423/423/423 422/422/422 420/420/420
f 424/424/424 422/422/422 423/423/423
f 425/425/425 424/424/424 423/423/423
f 426/426/426 424/424/424 425/425/425
f 427/427/427 426/426/426 425/425/425
f 430/430/430 429/429/429 428/428/428
f 431/431/431 430/430/430 428/428/428
f 432/432/432 430/430/430 431/431/431
f 433/433/433 432/432/432 431/431/431
f 434/434/434 432/432/432 433/433/433
f 435/435/435 434/434/434 433/433/433
f 438/438/438 437/437/437 436/436/436
f 439/439/439 438/438/438 436/436/436
f 440/440/440 438/438/438 439/439/439
f 441/441/441 440/440/440 439/439/439
f 442/442/442 440/440/440 441/441/441
f 443/443/443 442/442/442 441/441/441
f 446/446/446 445/445/445 444/444/444
f 447/447/447 446/446/446 444/444/444
f 444/444/444 445/445/445 448/448/448
f 449/449/449 446/446/446 447/447/447
f 445/445/445 450/450/450 448/448/448
f 451/451/451 449/449/449 447/447/447
f 448/448/448 450/450/450 452/452/452
f 453/453/453 449/449/449 451/451/451
f 450/450/450 454/454/454 452/452/452
f 455/455/455 453/453/453 451/451/451
f 452/452/452 454/454/454 456/456/456
f 457/457/457 453/453/453 455/455/455
f 454/454/454 458/458/458 456/456/456
f 459/459/459 457/457/457 455/455/455
f 456/456/456 458/458/458 460/460/460
f 461/461/461 457/457/457 459/459/459
f 458/458/458 462/462/462 460/460/460
f 463/463/463 461/461/461 459/459/459
f 460/460/460 462/462/462 464/464/464
f 465/465/465 461/461/461 463/463/463
f 462/462/462 466/466/466 464/464/464
f 467/467/467 465/465/465 463/463/463
f 464/464/464 466/466/466 467/467/467
f 466/466/466 465/465/465 467/467/467
