# https://github.com/mikedh/trimesh
mtllib material.mtl
usemtl material_0
v 0.49906520 1.03550700 0.07408006
v -0.49933820 1.03550700 0.07408006
v -0.49933820 1.03550700 -0.08098006
v 0.49906520 1.03550700 -0.08098006
v -0.45840230 0.99457100 -0.08098006
v -0.45840230 0.99457100 0.07408006
v 0.45812930 0.99457100 0.07408006
v 0.45812930 0.99457100 -0.08098006
v -0.45840230 0.99457100 -0.08098006
v -0.49933820 -1.03702000 -0.08098006
v -0.45840230 -1.03702000 -0.08098006
v -0.49933820 1.03550700 -0.08098006
v 0.49906520 1.03550700 -0.08098006
v 0.45812930 0.99457100 -0.08098006
v 0.45812930 -1.03702000 -0.08098006
v 0.49906520 -1.03702000 -0.08098006
v -0.45840230 0.99457100 0.07408006
v -0.45840230 0.99457100 -0.08098006
v -0.45840230 -1.03702000 -0.08098006
v -0.45840230 -1.03702000 0.07408006
v -0.49933820 1.03550700 0.07408006
v -0.45840230 -1.03702000 0.07408006
v -0.49933820 -1.03702000 0.07408006
v -0.45840230 0.99457100 0.07408006
v 0.45812930 0.99457100 0.07408006
v 0.49906520 1.03550700 0.07408006
v 0.49906520 -1.03702000 0.07408006
v 0.45812930 -1.03702000 0.07408006
v -0.49933820 1.03550700 -0.08098006
v -0.49933820 1.03550700 0.07408006
v -0.49933820 -1.03702000 0.07408006
v -0.49933820 -1.03702000 -0.08098006
v 0.45812930 0.99457100 -0.08098006
v 0.45812930 0.99457100 0.07408006
v 0.45812930 -1.03702000 0.07408006
v 0.45812930 -1.03702000 -0.08098006
v 0.49906520 1.03550700 0.07408006
v 0.49906520 1.03550700 -0.08098006
v 0.49906520 -1.03702000 -0.08098006
v 0.49906520 -1.03702000 0.07408006
v -0.49933820 -1.03702000 0.07408006
v -0.45840230 -1.03702000 0.07408006
v -0.45840230 -1.03702000 -0.08098006
v -0.49933820 -1.03702000 -0.08098006
v 0.49906520 -1.03702000 -0.08098006
v 0.45812930 -1.03702000 -0.08098006
v 0.45812930 -1.03702000 0.07408006
v 0.49906520 -1.03702000 0.07408006
v 0.44375031 -0.09183135 -0.01781634
v 0.44886691 -0.08971221 -0.01473665
v 0.44586941 -0.08671470 -0.01473665
v 0.39190811 -0.08671470 -0.01473665
v 0.38891061 -0.08971221 -0.01473665
v 0.39402721 -0.09183135 -0.01781634
v 0.44375031 -0.09183135 0.05075620
v 0.44586941 -0.08671470 0.04767652
v 0.44886691 -0.08971221 0.04767652
v 0.44886691 -0.25376647 0.04767652
v 0.44586941 -0.25676397 0.04767652
v 0.44375031 -0.25164737 0.05075620
v 0.39402721 -0.09183135 0.05075620
v 0.38891061 -0.08971221 0.04767652
v 0.39190811 -0.08671470 0.04767652
v 0.39402721 -0.25164737 0.05075620
v 0.39190811 -0.25676397 0.04767652
v 0.38891061 -0.25376647 0.04767652
v 0.44586941 -0.25676397 -0.01473665
v 0.44886691 -0.25376647 -0.01473665
v 0.44375031 -0.25164737 -0.01781634
v 0.39402721 -0.25164737 -0.01781634
v 0.38891061 -0.25376647 -0.01473665
v 0.39190811 -0.25676397 -0.01473665
v 0.44586941 -0.08671470 -0.01473665
v 0.39190811 -0.08671470 -0.01473665
v 0.39402721 -0.09183135 -0.01781634
v 0.44375031 -0.09183135 -0.01781634
v 0.44375031 -0.09183135 -0.01781634
v 0.44375031 -0.25164737 -0.01781634
v 0.44886691 -0.25376647 -0.01473665
v 0.44886691 -0.08971221 -0.01473665
v 0.44886691 -0.08971221 0.04767652
v 0.44886691 -0.25376647 0.04767652
v 0.44375031 -0.25164737 0.05075620
v 0.44375031 -0.09183135 0.05075620
v 0.44375031 -0.09183135 0.05075620
v 0.39402721 -0.09183135 0.05075620
v 0.39190811 -0.08671470 0.04767652
v 0.44586941 -0.08671470 0.04767652
v 0.38891061 -0.08971221 -0.01473665
v 0.38891061 -0.25376647 -0.01473665
v 0.39402721 -0.25164737 -0.01781634
v 0.39402721 -0.09183135 -0.01781634
v 0.39402721 -0.09183135 0.05075620
v 0.39402721 -0.25164737 0.05075620
v 0.38891061 -0.25376647 0.04767652
v 0.38891061 -0.08971221 0.04767652
v 0.44375031 -0.25164737 -0.01781634
v 0.39402721 -0.25164737 -0.01781634
v 0.39190811 -0.25676397 -0.01473665
v 0.44586941 -0.25676397 -0.01473665
v 0.44586941 -0.25676397 0.04767652
v 0.39190811 -0.25676397 0.04767652
v 0.39402721 -0.25164737 0.05075620
v 0.44375031 -0.25164737 0.05075620
v 0.44586941 -0.08671470 0.04767652
v 0.39190811 -0.08671470 0.04767652
v 0.39190811 -0.08671470 -0.01473665
v 0.44586941 -0.08671470 -0.01473665
v 0.44586941 -0.25676397 -0.01473665
v 0.39190811 -0.25676397 -0.01473665
v 0.39190811 -0.25676397 0.04767652
v 0.44586941 -0.25676397 0.04767652
v 0.38891061 -0.25376647 -0.01473665
v 0.38891061 -0.08971221 -0.01473665
v 0.38891061 -0.08971221 0.04767652
v 0.38891061 -0.25376647 0.04767652
v 0.44886691 -0.25376647 0.04767652
v 0.44886691 -0.08971221 0.04767652
v 0.44886691 -0.08971221 -0.01473665
v 0.44886691 -0.25376647 -0.01473665
v 0.44375031 -0.09183135 0.05075620
v 0.44375031 -0.25164737 0.05075620
v 0.39402721 -0.25164737 0.05075620
v 0.39402721 -0.09183135 0.05075620
v 0.44375031 -0.25164737 -0.01781634
v 0.44375031 -0.09183135 -0.01781634
v 0.39402721 -0.09183135 -0.01781634
v 0.39402721 -0.25164737 -0.01781634
v 0.44886691 -0.08971221 -0.01473665
v 0.44886691 -0.08971221 0.04767652
v 0.44586941 -0.08671470 0.04767652
v 0.44586941 -0.08671470 -0.01473665
v 0.39190811 -0.08671470 -0.01473665
v 0.39190811 -0.08671470 0.04767652
v 0.38891061 -0.08971221 0.04767652
v 0.38891061 -0.08971221 -0.01473665
v 0.44586941 -0.25676397 -0.01473665
v 0.44586941 -0.25676397 0.04767652
v 0.44886691 -0.25376647 0.04767652
v 0.44886691 -0.25376647 -0.01473665
v 0.38891061 -0.25376647 -0.01473665
v 0.38891061 -0.25376647 0.04767652
v 0.39190811 -0.25676397 0.04767652
v 0.39190811 -0.25676397 -0.01473665
v -0.45539991 0.89896953 -0.01032755
v -0.45539999 0.99599103 -0.01032755
v -0.45539999 0.99599103 0.04285398
v -0.45539991 0.89896953 0.04285398
v -0.45539999 0.68783963 -0.01032755
v -0.45539999 0.68783963 0.04285398
v -0.45539999 0.59408283 -0.01032755
v -0.45539999 0.59408283 0.04285398
v -0.45540007 -0.12687697 -0.01032755
v -0.45540007 -0.12687697 0.04285398
v -0.45539999 -0.21838647 -0.01032755
v -0.45540007 -0.21838647 0.04285398
v -0.45539999 -0.83782247 -0.01032755
v -0.45539999 -0.83782247 0.04285398
v -0.45539999 -1.03701997 -0.01032755
v -0.45539999 -1.03701997 0.04285398
v 0.46232711 0.89896953 0.04285398
v 0.46232711 0.99599103 0.04285398
v 0.46232711 0.99599103 -0.01032755
v 0.46232711 0.89896953 -0.01032755
v 0.46232691 0.68783963 0.04285398
v 0.46232691 0.68783963 -0.01032755
v 0.46232691 0.59408283 0.04285398
v 0.46232691 0.59408283 -0.01032755
v 0.46232691 -0.12687697 0.04285398
v 0.46232691 -0.12687697 -0.01032755
v 0.46232691 -0.21838647 0.04285398
v 0.46232691 -0.21838647 -0.01032755
v 0.46232711 -0.83782247 0.04285398
v 0.46232711 -0.83782247 -0.01032755
v 0.46232711 -1.03701997 0.04285398
v 0.46232711 -1.03701997 -0.01032755
v 0.46232711 0.89896953 -0.01032755
v 0.46232711 0.99599103 -0.01032755
v 0.38428231 0.99599103 -0.01032755
v 0.38428231 0.89896953 -0.01032755
v 0.46232691 0.68783963 -0.01032755
v 0.05412231 0.99599103 -0.01032755
v 0.38428231 0.68783963 -0.01032755
v 0.05412231 0.89896953 -0.01032755
v 0.46232691 0.59408283 -0.01032755
v -0.04719459 0.99599103 -0.01032755
v 0.38428231 0.59408283 -0.01032755
v 0.46232691 -0.12687697 -0.01032755
v 0.05412241 0.68783963 -0.01032755
v -0.04719459 0.89896953 -0.01032755
v -0.37735548 0.99599103 -0.01032755
v 0.38428231 -0.12687697 -0.01032755
v 0.46232691 -0.21838647 -0.01032755
v 0.05412241 0.59408283 -0.01032755
v -0.04719459 0.68783963 -0.01032755
v -0.37735548 0.89896953 -0.01032755
v 0.38428231 -0.21838647 -0.01032755
v 0.46232711 -0.83782247 -0.01032755
v 0.05412241 -0.12687697 -0.01032755
v -0.04719459 0.59408283 -0.01032755
v -0.37735548 0.68783963 -0.01032755
v -0.45539991 0.89896953 -0.01032755
v -0.45539999 0.99599103 -0.01032755
v -0.45539999 0.68783963 -0.01032755
v 0.38428231 -0.83782247 -0.01032755
v 0.46232711 -1.03701997 -0.01032755
v 0.38428231 -1.03701997 -0.01032755
v 0.05412231 -0.83782247 -0.01032755
v 0.05412231 -0.21838647 -0.01032755
v 0.05412231 -1.03701997 -0.01032755
v -0.37735548 0.59408283 -0.01032755
v -0.45539999 0.59408283 -0.01032755
v -0.04719459 -0.12687697 -0.01032755
v -0.37735548 -0.12687697 -0.01032755
v -0.45540007 -0.12687697 -0.01032755
v -0.04719459 -0.21838647 -0.01032755
v -0.04719459 -0.83782247 -0.01032755
v -0.04719459 -1.03701997 -0.01032755
v -0.37735548 -0.21838647 -0.01032755
v -0.45539999 -0.21838647 -0.01032755
v -0.37735548 -0.83782247 -0.01032755
v -0.37735548 -1.03701997 -0.01032755
v -0.45539999 -0.83782247 -0.01032755
v -0.45539999 -1.03701997 -0.01032755
v 0.46232711 0.99599103 -0.01032755
v 0.46232711 0.99599103 0.04285398
v 0.38428231 0.99599103 0.04285398
v 0.38428231 0.99599103 -0.01032755
v 0.05412231 0.99599103 0.04285398
v 0.05412231 0.99599103 -0.01032755
v -0.04719459 0.99599103 0.04285398
v -0.04719459 0.99599103 -0.01032755
v -0.37735548 0.99599103 -0.01032755
v -0.37735548 0.99599103 0.04285398
v -0.45539999 0.99599103 0.04285398
v -0.45539999 0.99599103 -0.01032755
v 0.46232711 -1.03701997 0.04285398
v 0.46232711 -1.03701997 -0.01032755
v 0.38428231 -1.03701997 -0.01032755
v 0.38428231 -1.03701997 0.04285398
v 0.05412231 -1.03701997 -0.01032755
v 0.05412231 -1.03701997 0.04285398
v -0.04719459 -1.03701997 -0.01032755
v -0.04719459 -1.03701997 0.04285398
v -0.37735548 -1.03701997 -0.01032755
v -0.37735548 -1.03701997 0.04285398
v -0.45539999 -1.03701997 0.04285398
v -0.45539999 -1.03701997 -0.01032755
v 0.08858891 0.86651953 -0.01033236
v 0.08858911 0.72028963 -0.01033236
v 0.34981541 0.72028963 -0.01033236
v 0.34981541 0.86651953 -0.01033236
v -0.34288859 0.86651953 -0.01033236
v -0.34288859 0.72028963 -0.01033236
v -0.08166139 0.72028963 -0.01033236
v -0.08166139 0.86651953 -0.01033236
v -0.08166139 0.86651953 0.04285887
v -0.08166139 0.72028963 0.04285887
v -0.34288859 0.72028963 0.04285887
v -0.34288859 0.86651953 0.04285887
v 0.34981541 0.86651953 0.04285887
v 0.34981541 0.72028963 0.04285887
v 0.08858911 0.72028963 0.04285887
v 0.08858891 0.86651953 0.04285887
v -0.37735548 -1.03701997 0.04285398
v -0.45539999 -1.03701997 0.04285398
v -0.45539999 -0.83782247 0.04285398
v -0.37735548 -0.83782247 0.04285398
v -0.04719459 -0.83782247 0.04285398
v -0.37735548 -0.21838647 0.04285398
v -0.45540007 -0.21838647 0.04285398
v -0.04719459 -1.03701997 0.04285398
v -0.45540007 -0.12687697 0.04285398
v 0.05412231 -0.83782247 0.04285398
v 0.05412231 -1.03701997 0.04285398
v 0.05412231 -0.21838647 0.04285398
v 0.38428231 -0.83782247 0.04285398
v 0.38428231 -1.03701997 0.04285398
v -0.04719479 -0.21838647 0.04285398
v 0.46232711 -0.83782247 0.04285398
v 0.46232711 -1.03701997 0.04285398
v 0.46232691 -0.21838647 0.04285398
v 0.38428231 -0.21838647 0.04285398
v 0.46232691 -0.12687697 0.04285398
v 0.38428231 -0.12687697 0.04285398
v 0.46232691 0.59408283 0.04285398
v 0.05412241 -0.12687697 0.04285398
v 0.38428231 0.59408283 0.04285398
v 0.46232691 0.68783963 0.04285398
v -0.04719459 -0.12687697 0.04285398
v 0.05412241 0.59408283 0.04285398
v 0.38428231 0.68783963 0.04285398
v 0.46232711 0.89896953 0.04285398
v -0.37735548 -0.12687697 0.04285398
v -0.45539999 0.59408283 0.04285398
v -0.37735548 0.59408283 0.04285398
v -0.04719459 0.59408283 0.04285398
v -0.45539999 0.68783963 0.04285398
v 0.38428231 0.89896953 0.04285398
v 0.46232711 0.99599103 0.04285398
v 0.38428231 0.99599103 0.04285398
v 0.05412241 0.68783963 0.04285398
v 0.05412231 0.89896953 0.04285398
v 0.05412231 0.99599103 0.04285398
v -0.04719459 0.68783963 0.04285398
v -0.37735548 0.68783963 0.04285398
v -0.45539991 0.89896953 0.04285398
v -0.04719459 0.89896953 0.04285398
v -0.04719459 0.99599103 0.04285398
v -0.37735548 0.89896953 0.04285398
v -0.45539999 0.99599103 0.04285398
v -0.37735548 0.99599103 0.04285398
v 0.08858891 -0.25083637 -0.01033236
v 0.08858891 -0.80537247 -0.01033236
v 0.34981541 -0.80537247 -0.01033236
v 0.34981541 -0.25083637 -0.01033236
v 0.34981541 -0.25083637 0.04285887
v 0.34981541 -0.80537247 0.04285887
v 0.08858891 -0.80537247 0.04285887
v 0.08858891 -0.25083637 0.04285887
v -0.08166139 -0.25083637 0.04285887
v -0.08166139 -0.80537247 0.04285887
v -0.34288859 -0.80537247 0.04285887
v -0.34288859 -0.25083637 0.04285887
v -0.34288859 -0.25083637 -0.01033236
v -0.34288859 -0.80537247 -0.01033236
v -0.08166139 -0.80537247 -0.01033236
v -0.08166139 -0.25083637 -0.01033236
v 0.08858911 0.56163263 -0.01033236
v 0.08858911 -0.09442702 -0.01033236
v 0.34981541 -0.09442702 -0.01033236
v 0.34981541 0.56163263 -0.01033236
v -0.34288859 0.56163263 -0.01033236
v -0.34288859 -0.09442702 -0.01033236
v -0.08166139 -0.09442702 -0.01033236
v -0.08166139 0.56163263 -0.01033236
v -0.08166139 0.56163263 0.04285887
v -0.08166139 -0.09442702 0.04285887
v -0.34288859 -0.09442702 0.04285887
v -0.34288859 0.56163263 0.04285887
v 0.34981541 0.56163263 0.04285887
v 0.34981541 -0.09442702 0.04285887
v 0.08858911 -0.09442702 0.04285887
v 0.08858911 0.56163263 0.04285887
v 0.05412231 0.89896953 -0.01032755
v 0.06038891 0.89306953 -0.00297815
v 0.37801521 0.89306953 -0.00297815
v 0.38428231 0.89896953 -0.01032755
v 0.38428231 0.89896953 -0.01032755
v 0.37801521 0.89306953 -0.00297815
v 0.37801521 0.69373963 -0.00297815
v 0.38428231 0.68783963 -0.01032755
v 0.38428231 0.68783963 -0.01032755
v 0.37801521 0.69373963 -0.00297815
v 0.06038901 0.69373963 -0.00297815
v 0.05412241 0.68783963 -0.01032755
v 0.05412241 0.68783963 -0.01032755
v 0.06038901 0.69373963 -0.00297815
v 0.06038891 0.89306953 -0.00297815
v 0.05412231 0.89896953 -0.01032755
v -0.37735548 0.89896953 -0.01032755
v -0.37108854 0.89306953 -0.00297815
v -0.05346149 0.89306953 -0.00297815
v -0.04719459 0.89896953 -0.01032755
v -0.04719459 0.89896953 -0.01032755
v -0.05346149 0.89306953 -0.00297815
v -0.05346149 0.69373963 -0.00297815
v -0.04719459 0.68783963 -0.01032755
v -0.04719459 0.68783963 -0.01032755
v -0.05346149 0.69373963 -0.00297815
v -0.37108854 0.69373963 -0.00297815
v -0.37735548 0.68783963 -0.01032755
v -0.37735548 0.68783963 -0.01032755
v -0.37108854 0.69373963 -0.00297815
v -0.37108854 0.89306953 -0.00297815
v -0.37735548 0.89896953 -0.01032755
v -0.04719459 0.89896953 0.04285398
v -0.05346149 0.89306953 0.03550459
v -0.37108854 0.89306953 0.03550459
v -0.37735548 0.89896953 0.04285398
v -0.37735548 0.89896953 0.04285398
v -0.37108854 0.89306953 0.03550459
v -0.37108854 0.69373963 0.03550459
v -0.37735548 0.68783963 0.04285398
v -0.37735548 0.68783963 0.04285398
v -0.37108854 0.69373963 0.03550459
v -0.05346149 0.69373963 0.03550459
v -0.04719459 0.68783963 0.04285398
v -0.04719459 0.68783963 0.04285398
v -0.05346149 0.69373963 0.03550459
v -0.05346149 0.89306953 0.03550459
v -0.04719459 0.89896953 0.04285398
v 0.38428231 0.89896953 0.04285398
v 0.37801521 0.89306953 0.03550459
v 0.06038891 0.89306953 0.03550459
v 0.05412231 0.89896953 0.04285398
v 0.05412231 0.89896953 0.04285398
v 0.06038891 0.89306953 0.03550459
v 0.06038901 0.69373963 0.03550459
v 0.05412241 0.68783963 0.04285398
v 0.05412241 0.68783963 0.04285398
v 0.06038901 0.69373963 0.03550459
v 0.37801521 0.69373963 0.03550459
v 0.38428231 0.68783963 0.04285398
v 0.38428231 0.68783963 0.04285398
v 0.37801521 0.69373963 0.03550459
v 0.37801521 0.89306953 0.03550459
v 0.38428231 0.89896953 0.04285398
v 0.05412231 -0.21838647 -0.01032755
v 0.06038891 -0.22428637 -0.00297815
v 0.37801521 -0.22428637 -0.00297815
v 0.38428231 -0.21838647 -0.01032755
v 0.38428231 -0.21838647 -0.01032755
v 0.37801521 -0.22428637 -0.00297815
v 0.37801521 -0.83192247 -0.00297815
v 0.38428231 -0.83782247 -0.01032755
v 0.38428231 -0.83782247 -0.01032755
v 0.37801521 -0.83192247 -0.00297815
v 0.06038891 -0.83192247 -0.00297815
v 0.05412231 -0.83782247 -0.01032755
v 0.05412231 -0.83782247 -0.01032755
v 0.06038891 -0.83192247 -0.00297815
v 0.06038891 -0.22428637 -0.00297815
v 0.05412231 -0.21838647 -0.01032755
v 0.38428231 -0.21838647 0.04285398
v 0.37801521 -0.22428637 0.03550459
v 0.06038891 -0.22428637 0.03550459
v 0.05412231 -0.21838647 0.04285398
v 0.05412231 -0.21838647 0.04285398
v 0.06038891 -0.22428637 0.03550459
v 0.06038891 -0.83192247 0.03550459
v 0.05412231 -0.83782247 0.04285398
v 0.05412231 -0.83782247 0.04285398
v 0.06038891 -0.83192247 0.03550459
v 0.37801521 -0.83192247 0.03550459
v 0.38428231 -0.83782247 0.04285398
v 0.38428231 -0.83782247 0.04285398
v 0.37801521 -0.83192247 0.03550459
v 0.37801521 -0.22428637 0.03550459
v 0.38428231 -0.21838647 0.04285398
v -0.04719479 -0.21838647 0.04285398
v -0.05346149 -0.22428637 0.03550459
v -0.37108854 -0.22428637 0.03550459
v -0.37735548 -0.21838647 0.04285398
v -0.37735548 -0.21838647 0.04285398
v -0.37108854 -0.22428637 0.03550459
v -0.37108854 -0.83192247 0.03550459
v -0.37735548 -0.83782247 0.04285398
v -0.37735548 -0.83782247 0.04285398
v -0.37108854 -0.83192247 0.03550459
v -0.05346149 -0.83192247 0.03550459
v -0.04719459 -0.83782247 0.04285398
v -0.04719459 -0.83782247 0.04285398
v -0.05346149 -0.83192247 0.03550459
v -0.05346149 -0.22428637 0.03550459
v -0.04719479 -0.21838647 0.04285398
v -0.37735548 -0.21838647 -0.01032755
v -0.37108854 -0.22428637 -0.00297815
v -0.05346149 -0.22428637 -0.00297815
v -0.04719459 -0.21838647 -0.01032755
v -0.04719459 -0.21838647 -0.01032755
v -0.05346149 -0.22428637 -0.00297815
v -0.05346149 -0.83192247 -0.00297815
v -0.04719459 -0.83782247 -0.01032755
v -0.04719459 -0.83782247 -0.01032755
v -0.05346149 -0.83192247 -0.00297815
v -0.37108854 -0.83192247 -0.00297815
v -0.37735548 -0.83782247 -0.01032755
v -0.37735548 -0.83782247 -0.01032755
v -0.37108854 -0.83192247 -0.00297815
v -0.37108854 -0.22428637 -0.00297815
v -0.37735548 -0.21838647 -0.01032755
v 0.05412241 0.59408283 -0.01032755
v 0.06038901 0.58818243 -0.00297815
v 0.37801521 0.58818243 -0.00297815
v 0.38428231 0.59408283 -0.01032755
v 0.38428231 0.59408283 -0.01032755
v 0.37801521 0.58818243 -0.00297815
v 0.37801521 -0.12097701 -0.00297815
v 0.38428231 -0.12687697 -0.01032755
v 0.38428231 -0.12687697 -0.01032755
v 0.37801521 -0.12097701 -0.00297815
v 0.06038901 -0.12097701 -0.00297815
v 0.05412241 -0.12687697 -0.01032755
v 0.05412241 -0.12687697 -0.01032755
v 0.06038901 -0.12097701 -0.00297815
v 0.06038901 0.58818243 -0.00297815
v 0.05412241 0.59408283 -0.01032755
v -0.37735548 0.59408283 -0.01032755
v -0.37108854 0.58818243 -0.00297815
v -0.05346149 0.58818243 -0.00297815
v -0.04719459 0.59408283 -0.01032755
v -0.04719459 0.59408283 -0.01032755
v -0.05346149 0.58818243 -0.00297815
v -0.05346149 -0.12097701 -0.00297815
v -0.04719459 -0.12687697 -0.01032755
v -0.04719459 -0.12687697 -0.01032755
v -0.05346149 -0.12097701 -0.00297815
v -0.37108854 -0.12097701 -0.00297815
v -0.37735548 -0.12687697 -0.01032755
v -0.37735548 -0.12687697 -0.01032755
v -0.37108854 -0.12097701 -0.00297815
v -0.37108854 0.58818243 -0.00297815
v -0.37735548 0.59408283 -0.01032755
v -0.04719459 0.59408283 0.04285398
v -0.05346149 0.58818243 0.03550459
v -0.37108854 0.58818243 0.03550459
v -0.37735548 0.59408283 0.04285398
v -0.37735548 0.59408283 0.04285398
v -0.37108854 0.58818243 0.03550459
v -0.37108854 -0.12097701 0.03550459
v -0.37735548 -0.12687697 0.04285398
v -0.37735548 -0.12687697 0.04285398
v -0.37108854 -0.12097701 0.03550459
v -0.05346149 -0.12097701 0.03550459
v -0.04719459 -0.12687697 0.04285398
v -0.04719459 -0.12687697 0.04285398
v -0.05346149 -0.12097701 0.03550459
v -0.05346149 0.58818243 0.03550459
v -0.04719459 0.59408283 0.04285398
v 0.38428231 0.59408283 0.04285398
v 0.37801521 0.58818243 0.03550459
v 0.06038901 0.58818243 0.03550459
v 0.05412241 0.59408283 0.04285398
v 0.05412241 0.59408283 0.04285398
v 0.06038901 0.58818243 0.03550459
v 0.06038901 -0.12097701 0.03550459
v 0.05412241 -0.12687697 0.04285398
v 0.05412241 -0.12687697 0.04285398
v 0.06038901 -0.12097701 0.03550459
v 0.37801521 -0.12097701 0.03550459
v 0.38428231 -0.12687697 0.04285398
v 0.38428231 -0.12687697 0.04285398
v 0.37801521 -0.12097701 0.03550459
v 0.37801521 0.58818243 0.03550459
v 0.38428231 0.59408283 0.04285398
v 0.06038891 0.89306953 -0.00297815
v 0.08858891 0.86651953 -0.01033236
v 0.34981541 0.86651953 -0.01033236
v 0.37801521 0.89306953 -0.00297815
v 0.37801521 0.89306953 -0.00297815
v 0.34981541 0.86651953 -0.01033236
v 0.34981541 0.72028963 -0.01033236
v 0.37801521 0.69373963 -0.00297815
v 0.37801521 0.69373963 -0.00297815
v 0.34981541 0.72028963 -0.01033236
v 0.08858911 0.72028963 -0.01033236
v 0.06038901 0.69373963 -0.00297815
v 0.06038901 0.69373963 -0.00297815
v 0.08858911 0.72028963 -0.01033236
v 0.08858891 0.86651953 -0.01033236
v 0.06038891 0.89306953 -0.00297815
v -0.37108854 0.89306953 -0.00297815
v -0.34288859 0.86651953 -0.01033236
v -0.08166139 0.86651953 -0.01033236
v -0.05346149 0.89306953 -0.00297815
v -0.05346149 0.89306953 -0.00297815
v -0.08166139 0.86651953 -0.01033236
v -0.08166139 0.72028963 -0.01033236
v -0.05346149 0.69373963 -0.00297815
v -0.05346149 0.69373963 -0.00297815
v -0.08166139 0.72028963 -0.01033236
v -0.34288859 0.72028963 -0.01033236
v -0.37108854 0.69373963 -0.00297815
v -0.37108854 0.69373963 -0.00297815
v -0.34288859 0.72028963 -0.01033236
v -0.34288859 0.86651953 -0.01033236
v -0.37108854 0.89306953 -0.00297815
v -0.05346149 0.89306953 0.03550459
v -0.08166139 0.86651953 0.04285887
v -0.34288859 0.86651953 0.04285887
v -0.37108854 0.89306953 0.03550459
v -0.37108854 0.89306953 0.03550459
v -0.34288859 0.86651953 0.04285887
v -0.34288859 0.72028963 0.04285887
v -0.37108854 0.69373963 0.03550459
v -0.37108854 0.69373963 0.03550459
v -0.34288859 0.72028963 0.04285887
v -0.08166139 0.72028963 0.04285887
v -0.05346149 0.69373963 0.03550459
v -0.05346149 0.69373963 0.03550459
v -0.08166139 0.72028963 0.04285887
v -0.08166139 0.86651953 0.04285887
v -0.05346149 0.89306953 0.03550459
v 0.37801521 0.89306953 0.03550459
v 0.34981541 0.86651953 0.04285887
v 0.08858891 0.86651953 0.04285887
v 0.06038891 0.89306953 0.03550459
v 0.06038891 0.89306953 0.03550459
v 0.08858891 0.86651953 0.04285887
v 0.08858911 0.72028963 0.04285887
v 0.06038901 0.69373963 0.03550459
v 0.06038901 0.69373963 0.03550459
v 0.08858911 0.72028963 0.04285887
v 0.34981541 0.72028963 0.04285887
v 0.37801521 0.69373963 0.03550459
v 0.37801521 0.69373963 0.03550459
v 0.34981541 0.72028963 0.04285887
v 0.34981541 0.86651953 0.04285887
v 0.37801521 0.89306953 0.03550459
v 0.06038891 -0.22428637 -0.00297815
v 0.08858891 -0.25083637 -0.01033236
v 0.34981541 -0.25083637 -0.01033236
v 0.37801521 -0.22428637 -0.00297815
v 0.37801521 -0.22428637 -0.00297815
v 0.34981541 -0.25083637 -0.01033236
v 0.34981541 -0.80537247 -0.01033236
v 0.37801521 -0.83192247 -0.00297815
v 0.37801521 -0.83192247 -0.00297815
v 0.34981541 -0.80537247 -0.01033236
v 0.08858891 -0.80537247 -0.01033236
v 0.06038891 -0.83192247 -0.00297815
v 0.06038891 -0.83192247 -0.00297815
v 0.08858891 -0.80537247 -0.01033236
v 0.08858891 -0.25083637 -0.01033236
v 0.06038891 -0.22428637 -0.00297815
v 0.37801521 -0.22428637 0.03550459
v 0.34981541 -0.25083637 0.04285887
v 0.08858891 -0.25083637 0.04285887
v 0.06038891 -0.22428637 0.03550459
v 0.06038891 -0.22428637 0.03550459
v 0.08858891 -0.25083637 0.04285887
v 0.08858891 -0.80537247 0.04285887
v 0.06038891 -0.83192247 0.03550459
v 0.06038891 -0.83192247 0.03550459
v 0.08858891 -0.80537247 0.04285887
v 0.34981541 -0.80537247 0.04285887
v 0.37801521 -0.83192247 0.03550459
v 0.37801521 -0.83192247 0.03550459
v 0.34981541 -0.80537247 0.04285887
v 0.34981541 -0.25083637 0.04285887
v 0.37801521 -0.22428637 0.03550459
v -0.05346149 -0.22428637 0.03550459
v -0.08166139 -0.25083637 0.04285887
v -0.34288859 -0.25083637 0.04285887
v -0.37108854 -0.22428637 0.03550459
v -0.37108854 -0.22428637 0.03550459
v -0.34288859 -0.25083637 0.04285887
v -0.34288859 -0.80537247 0.04285887
v -0.37108854 -0.83192247 0.03550459
v -0.37108854 -0.83192247 0.03550459
v -0.34288859 -0.80537247 0.04285887
v -0.08166139 -0.80537247 0.04285887
v -0.05346149 -0.83192247 0.03550459
v -0.05346149 -0.83192247 0.03550459
v -0.08166139 -0.80537247 0.04285887
v -0.08166139 -0.25083637 0.04285887
v -0.05346149 -0.22428637 0.03550459
v -0.37108854 -0.22428637 -0.00297815
v -0.34288859 -0.25083637 -0.01033236
v -0.08166139 -0.25083637 -0.01033236
v -0.05346149 -0.22428637 -0.00297815
v -0.05346149 -0.22428637 -0.00297815
v -0.08166139 -0.25083637 -0.01033236
v -0.08166139 -0.80537247 -0.01033236
v -0.05346149 -0.83192247 -0.00297815
v -0.05346149 -0.83192247 -0.00297815
v -0.08166139 -0.80537247 -0.01033236
v -0.34288859 -0.80537247 -0.01033236
v -0.37108854 -0.83192247 -0.00297815
v -0.37108854 -0.83192247 -0.00297815
v -0.34288859 -0.80537247 -0.01033236
v -0.34288859 -0.25083637 -0.01033236
v -0.37108854 -0.22428637 -0.00297815
v 0.06038901 0.58818243 -0.00297815
v 0.08858911 0.56163263 -0.01033236
v 0.34981541 0.56163263 -0.01033236
v 0.37801521 0.58818243 -0.00297815
v 0.37801521 0.58818243 -0.00297815
v 0.34981541 0.56163263 -0.01033236
v 0.34981541 -0.09442702 -0.01033236
v 0.37801521 -0.12097701 -0.00297815
v 0.37801521 -0.12097701 -0.00297815
v 0.34981541 -0.09442702 -0.01033236
v 0.08858911 -0.09442702 -0.01033236
v 0.06038901 -0.12097701 -0.00297815
v 0.06038901 -0.12097701 -0.00297815
v 0.08858911 -0.09442702 -0.01033236
v 0.08858911 0.56163263 -0.01033236
v 0.06038901 0.58818243 -0.00297815
v -0.37108854 0.58818243 -0.00297815
v -0.34288859 0.56163263 -0.01033236
v -0.08166139 0.56163263 -0.01033236
v -0.05346149 0.58818243 -0.00297815
v -0.05346149 0.58818243 -0.00297815
v -0.08166139 0.56163263 -0.01033236
v -0.08166139 -0.09442702 -0.01033236
v -0.05346149 -0.12097701 -0.00297815
v -0.05346149 -0.12097701 -0.00297815
v -0.08166139 -0.09442702 -0.01033236
v -0.34288859 -0.09442702 -0.01033236
v -0.37108854 -0.12097701 -0.00297815
v -0.37108854 -0.12097701 -0.00297815
v -0.34288859 -0.09442702 -0.01033236
v -0.34288859 0.56163263 -0.01033236
v -0.37108854 0.58818243 -0.00297815
v -0.05346149 0.58818243 0.03550459
v -0.08166139 0.56163263 0.04285887
v -0.34288859 0.56163263 0.04285887
v -0.37108854 0.58818243 0.03550459
v -0.37108854 0.58818243 0.03550459
v -0.34288859 0.56163263 0.04285887
v -0.34288859 -0.09442702 0.04285887
v -0.37108854 -0.12097701 0.03550459
v -0.37108854 -0.12097701 0.03550459
v -0.34288859 -0.09442702 0.04285887
v -0.08166139 -0.09442702 0.04285887
v -0.05346149 -0.12097701 0.03550459
v -0.05346149 -0.12097701 0.03550459
v -0.08166139 -0.09442702 0.04285887
v -0.08166139 0.56163263 0.04285887
v -0.05346149 0.58818243 0.03550459
v 0.37801521 0.58818243 0.03550459
v 0.34981541 0.56163263 0.04285887
v 0.08858911 0.56163263 0.04285887
v 0.06038901 0.58818243 0.03550459
v 0.06038901 0.58818243 0.03550459
v 0.08858911 0.56163263 0.04285887
v 0.08858911 -0.09442702 0.04285887
v 0.06038901 -0.12097701 0.03550459
v 0.06038901 -0.12097701 0.03550459
v 0.08858911 -0.09442702 0.04285887
v 0.34981541 -0.09442702 0.04285887
v 0.37801521 -0.12097701 0.03550459
v 0.37801521 -0.12097701 0.03550459
v 0.34981541 -0.09442702 0.04285887
v 0.34981541 0.56163263 0.04285887
v 0.37801521 0.58818243 0.03550459
v 0.40280508 -0.11598660 0.05634341
v 0.40617559 -0.11094373 0.05634341
v 0.40280508 -0.10757428 0.06095347
v 0.39840170 -0.11416302 0.06095347
v 0.40162176 -0.12193486 0.05634341
v 0.39685553 -0.12193486 0.06095347
v 0.40280508 -0.12788319 0.05634341
v 0.39840170 -0.12970677 0.06095347
v 0.40617559 -0.13292607 0.05634341
v 0.40280508 -0.13629544 0.06095347
v 0.40162161 -0.10639119 0.06639139
v 0.39685553 -0.11352261 0.06639139
v 0.39518179 -0.12193486 0.06639139
v 0.39685553 -0.13034718 0.06639139
v 0.40875479 -0.10162602 0.06639139
v 0.40939550 -0.10317189 0.06095347
v 0.40939550 -0.10317189 0.07182932
v 0.40280508 -0.10757428 0.07182932
v 0.39840170 -0.11416302 0.07182932
v 0.40617559 -0.11094373 0.07643938
v 0.40280508 -0.11598660 0.07643938
v 0.39685553 -0.12193486 0.07182932
v 0.40162176 -0.12193486 0.07643938
v 0.39840170 -0.12970677 0.07182932
v 0.40280508 -0.12788319 0.07643938
v 0.40162176 -0.13747868 0.06639139
v 0.40939550 -0.14069783 0.06095347
v 0.40875479 -0.14224385 0.06639139
v 0.40280508 -0.13629544 0.07182932
v 0.40617559 -0.13292607 0.07643938
v 0.40939550 -0.14069783 0.07182932
v 0.40617559 -0.11094373 0.05634341
v 0.40939550 -0.10317189 0.06095347
v 0.40280508 -0.10757428 0.06095347
v 0.41121923 -0.10757428 0.05634341
v 0.41716894 -0.10162602 0.06095347
v 0.41716894 -0.10639119 0.05634341
v 0.41716894 -0.09995267 0.06639139
v 0.40875479 -0.10162602 0.06639139
v 0.42494253 -0.10317189 0.06095347
v 0.42311865 -0.10757428 0.05634341
v 0.43153280 -0.10757428 0.06095347
v 0.42816244 -0.11094373 0.05634341
v 0.42558325 -0.10162602 0.06639139
v 0.42494253 -0.10317189 0.07182932
v 0.41716894 -0.10162602 0.07182932
v 0.40939550 -0.10317189 0.07182932
v 0.42311865 -0.10757428 0.07643938
v 0.42816244 -0.11094373 0.07643938
v 0.43153280 -0.10757428 0.07182932
v 0.41716894 -0.10639119 0.07643938
v 0.41121923 -0.10757428 0.07643938
v 0.40280508 -0.10757428 0.07182932
v 0.40617559 -0.11094373 0.07643938
v 0.43153295 -0.12788319 0.05634341
v 0.42816244 -0.13292607 0.05634341
v 0.43153295 -0.13629544 0.06095347
v 0.43593633 -0.12970677 0.06095347
v 0.43271612 -0.12193486 0.05634341
v 0.43748251 -0.12193486 0.06095347
v 0.43153295 -0.11598660 0.05634341
v 0.43593633 -0.11416295 0.06095347
v 0.42816244 -0.11094373 0.05634341
v 0.43153280 -0.10757428 0.06095347
v 0.43271643 -0.13747868 0.06639139
v 0.43748251 -0.13034718 0.06639139
v 0.43915609 -0.12193486 0.06639139
v 0.43748251 -0.11352261 0.06639139
v 0.42558325 -0.14224385 0.06639139
v 0.42494253 -0.14069783 0.06095347
v 0.42494253 -0.14069783 0.07182932
v 0.43153295 -0.13629544 0.07182932
v 0.43593633 -0.12970677 0.07182932
v 0.42816244 -0.13292607 0.07643938
v 0.43153295 -0.12788319 0.07643938
v 0.43748251 -0.12193486 0.07182932
v 0.43271612 -0.12193486 0.07643938
v 0.43593633 -0.11416295 0.07182932
v 0.43153295 -0.11598660 0.07643938
v 0.43271612 -0.10639119 0.06639139
v 0.42494253 -0.10317189 0.06095347
v 0.42558325 -0.10162602 0.06639139
v 0.43153280 -0.10757428 0.07182932
v 0.42816244 -0.11094373 0.07643938
v 0.42494253 -0.10317189 0.07182932
v 0.42816244 -0.13292607 0.05634341
v 0.42494253 -0.14069783 0.06095347
v 0.43153295 -0.13629544 0.06095347
v 0.42311865 -0.13629544 0.05634341
v 0.41716894 -0.14224385 0.06095347
v 0.41716894 -0.13747868 0.05634341
v 0.41716894 -0.14391705 0.06639139
v 0.42558325 -0.14224385 0.06639139
v 0.40939550 -0.14069783 0.06095347
v 0.41121923 -0.13629544 0.05634341
v 0.40280508 -0.13629544 0.06095347
v 0.40617559 -0.13292607 0.05634341
v 0.40875479 -0.14224385 0.06639139
v 0.40939550 -0.14069783 0.07182932
v 0.41716894 -0.14224385 0.07182932
v 0.42494253 -0.14069783 0.07182932
v 0.41121923 -0.13629544 0.07643938
v 0.40617559 -0.13292607 0.07643938
v 0.40280508 -0.13629544 0.07182932
v 0.41716894 -0.13747868 0.07643938
v 0.42311865 -0.13629544 0.07643938
v 0.43153295 -0.13629544 0.07182932
v 0.42816244 -0.13292607 0.07643938
v 0.40769293 -0.11246098 0.05541666
v 0.41204046 -0.10955655 -0.02474821
v 0.41204046 -0.10955655 0.05541666
v 0.40769293 -0.11246098 -0.02474821
v 0.40478796 -0.11680760 0.05541666
v 0.40478796 -0.11680760 -0.02474821
v 0.40376776 -0.12193486 0.05541666
v 0.40376776 -0.12193486 -0.02474821
v 0.40478796 -0.12706212 0.05541666
v 0.40478796 -0.12706212 -0.02474821
v 0.40769293 -0.13140881 0.05541666
v 0.40769293 -0.13140881 -0.02474821
v 0.41204061 -0.13431317 0.05541666
v 0.41204061 -0.13431317 -0.02474821
v 0.41716894 -0.13533307 0.05541666
v 0.41204061 -0.13431317 -0.02474821
v 0.41204061 -0.13431317 0.05541666
v 0.41716894 -0.13533307 -0.02474821
v 0.42229757 -0.13431317 0.05541666
v 0.42229757 -0.13431317 -0.02474821
v 0.42664511 -0.13140881 0.05541666
v 0.42229757 -0.13431317 -0.02474821
v 0.42229757 -0.13431317 0.05541666
v 0.42664511 -0.13140881 -0.02474821
v 0.42955007 -0.12706212 0.05541666
v 0.42955007 -0.12706212 -0.02474821
v 0.43057012 -0.12193486 0.05541666
v 0.43057012 -0.12193486 -0.02474821
v 0.42955007 -0.11680760 0.05541666
v 0.42955007 -0.11680760 -0.02474821
v 0.42664511 -0.11246098 0.05541666
v 0.42664511 -0.11246098 -0.02474821
v 0.42229727 -0.10955655 0.05541666
v 0.42229727 -0.10955655 -0.02474821
v 0.41716894 -0.10853680 0.05541666
v 0.42229727 -0.10955655 -0.02474821
v 0.42229727 -0.10955655 0.05541666
v 0.41716894 -0.10853680 -0.02474821
v 0.41204046 -0.10955655 0.05541666
v 0.41204046 -0.10955655 -0.02474821
v 0.40280508 -0.11598660 -0.02567525
v 0.40280508 -0.10757428 -0.03028669
v 0.40617559 -0.11094373 -0.02567525
v 0.39840170 -0.11416302 -0.03028669
v 0.40162176 -0.12193486 -0.02567525
v 0.39685553 -0.12193486 -0.03028669
v 0.40280508 -0.12788319 -0.02567525
v 0.39840170 -0.12970677 -0.03028669
v 0.40617559 -0.13292607 -0.02567525
v 0.40280508 -0.13629544 -0.03028669
v 0.40162161 -0.10639119 -0.03572622
v 0.39685553 -0.11352261 -0.03572622
v 0.39518179 -0.12193486 -0.03572622
v 0.39685553 -0.13034718 -0.03572622
v 0.40875479 -0.10162602 -0.03572622
v 0.40939550 -0.10317189 -0.03028669
v 0.40939550 -0.10317189 -0.04116575
v 0.40280508 -0.10757428 -0.04116575
v 0.39840170 -0.11416302 -0.04116575
v 0.40617559 -0.11094373 -0.04577718
v 0.40280508 -0.11598660 -0.04577718
v 0.39685553 -0.12193486 -0.04116575
v 0.40162176 -0.12193486 -0.04577718
v 0.39840170 -0.12970677 -0.04116575
v 0.40280508 -0.12788319 -0.04577718
v 0.40162176 -0.13747868 -0.03572622
v 0.40939550 -0.14069783 -0.03028669
v 0.40875479 -0.14224385 -0.03572622
v 0.40280508 -0.13629544 -0.04116575
v 0.40617559 -0.13292607 -0.04577718
v 0.40939550 -0.14069783 -0.04116575
v 0.40617559 -0.11094373 -0.02567525
v 0.40280508 -0.10757428 -0.03028669
v 0.40939550 -0.10317189 -0.03028669
v 0.41121923 -0.10757428 -0.02567525
v 0.41716894 -0.10162602 -0.03028669
v 0.41716894 -0.10639119 -0.02567525
v 0.41716894 -0.09995267 -0.03572622
v 0.40875479 -0.10162602 -0.03572622
v 0.42494253 -0.10317189 -0.03028669
v 0.42311865 -0.10757428 -0.02567525
v 0.43153280 -0.10757428 -0.03028669
v 0.42816244 -0.11094373 -0.02567525
v 0.42558325 -0.10162602 -0.03572622
v 0.42494253 -0.10317189 -0.04116575
v 0.41716894 -0.10162602 -0.04116575
v 0.40939550 -0.10317189 -0.04116575
v 0.42311865 -0.10757428 -0.04577718
v 0.42816244 -0.11094373 -0.04577718
v 0.43153280 -0.10757428 -0.04116575
v 0.41716894 -0.10639119 -0.04577718
v 0.41121923 -0.10757428 -0.04577718
v 0.40280508 -0.10757428 -0.04116575
v 0.40617559 -0.11094373 -0.04577718
v 0.43153295 -0.12788319 -0.02567525
v 0.43153295 -0.13629544 -0.03028669
v 0.42816244 -0.13292607 -0.02567525
v 0.43593633 -0.12970677 -0.03028669
v 0.43271612 -0.12193486 -0.02567525
v 0.43748251 -0.12193486 -0.03028669
v 0.43153295 -0.11598660 -0.02567525
v 0.43593633 -0.11416295 -0.03028669
v 0.42816244 -0.11094373 -0.02567525
v 0.43153280 -0.10757428 -0.03028669
v 0.43271643 -0.13747868 -0.03572622
v 0.43748251 -0.13034718 -0.03572622
v 0.43915609 -0.12193486 -0.03572622
v 0.43748251 -0.11352261 -0.03572622
v 0.42558325 -0.14224385 -0.03572622
v 0.42494253 -0.14069783 -0.03028669
v 0.42494253 -0.14069783 -0.04116575
v 0.43153295 -0.13629544 -0.04116575
v 0.43593633 -0.12970677 -0.04116575
v 0.42816244 -0.13292607 -0.04577718
v 0.43153295 -0.12788319 -0.04577718
v 0.43748251 -0.12193486 -0.04116575
v 0.43271612 -0.12193486 -0.04577718
v 0.43593633 -0.11416295 -0.04116575
v 0.43153295 -0.11598660 -0.04577718
v 0.43271612 -0.10639119 -0.03572622
v 0.42494253 -0.10317189 -0.03028669
v 0.42558325 -0.10162602 -0.03572622
v 0.43153280 -0.10757428 -0.04116575
v 0.42816244 -0.11094373 -0.04577718
v 0.42494253 -0.10317189 -0.04116575
v 0.42816244 -0.13292607 -0.02567525
v 0.43153295 -0.13629544 -0.03028669
v 0.42494253 -0.14069783 -0.03028669
v 0.42311865 -0.13629544 -0.02567525
v 0.41716894 -0.14224385 -0.03028669
v 0.41716894 -0.13747868 -0.02567525
v 0.41716894 -0.14391705 -0.03572622
v 0.42558325 -0.14224385 -0.03572622
v 0.40939550 -0.14069783 -0.03028669
v 0.41121923 -0.13629544 -0.02567525
v 0.40280508 -0.13629544 -0.03028669
v 0.40617559 -0.13292607 -0.02567525
v 0.40875479 -0.14224385 -0.03572622
v 0.40939550 -0.14069783 -0.04116575
v 0.41716894 -0.14224385 -0.04116575
v 0.42494253 -0.14069783 -0.04116575
v 0.41121923 -0.13629544 -0.04577718
v 0.40617559 -0.13292607 -0.04577718
v 0.40280508 -0.13629544 -0.04116575
v 0.41716894 -0.13747868 -0.04577718
v 0.42311865 -0.13629544 -0.04577718
v 0.43153295 -0.13629544 -0.04116575
v 0.42816244 -0.13292607 -0.04577718
v 0.40769293 -0.11246098 0.05541666
v 0.41204046 -0.10955655 0.05541666
v 0.41121923 -0.10757428 0.05634341
v 0.40617559 -0.11094373 0.05634341
v 0.41716894 -0.10639119 0.05634341
v 0.40478796 -0.11680760 0.05541666
v 0.41716894 -0.10853680 0.05541666
v 0.40280508 -0.11598660 0.05634341
v 0.42311865 -0.10757428 0.05634341
v 0.40376776 -0.12193486 0.05541666
v 0.42229727 -0.10955655 0.05541666
v 0.40162176 -0.12193486 0.05634341
v 0.42816244 -0.11094373 0.05634341
v 0.40478796 -0.12706212 0.05541666
v 0.42664511 -0.11246098 0.05541666
v 0.40280508 -0.12788319 0.05634341
v 0.43153295 -0.11598660 0.05634341
v 0.40769293 -0.13140881 0.05541666
v 0.42955007 -0.11680760 0.05541666
v 0.40617559 -0.13292607 0.05634341
v 0.43271612 -0.12193486 0.05634341
v 0.41204061 -0.13431317 0.05541666
v 0.43057012 -0.12193486 0.05541666
v 0.41121923 -0.13629544 0.05634341
v 0.43153295 -0.12788319 0.05634341
v 0.41716894 -0.13533307 0.05541666
v 0.42955007 -0.12706212 0.05541666
v 0.41716894 -0.13747868 0.05634341
v 0.42816244 -0.13292607 0.05634341
v 0.42229757 -0.13431317 0.05541666
v 0.42664511 -0.13140881 0.05541666
v 0.42311865 -0.13629544 0.05634341
v 0.40280508 -0.11598660 0.07643938
v 0.40617559 -0.11094373 0.07643938
v 0.41121923 -0.11598660 0.07951975
v 0.40939550 -0.11871564 0.07951975
v 0.41716894 -0.12193486 0.08060145
v 0.40162176 -0.12193486 0.07643938
v 0.41394918 -0.11416295 0.07951975
v 0.41121923 -0.10757428 0.07643938
v 0.40875479 -0.12193486 0.07951975
v 0.40280508 -0.12788319 0.07643938
v 0.41716894 -0.11352261 0.07951975
v 0.41716894 -0.10639119 0.07643938
v 0.40939550 -0.12515408 0.07951975
v 0.40617559 -0.13292607 0.07643938
v 0.42038885 -0.11416295 0.07951975
v 0.42311865 -0.10757428 0.07643938
v 0.41121923 -0.12788319 0.07951975
v 0.42311865 -0.11598660 0.07951975
v 0.41394918 -0.12970677 0.07951975
v 0.41121923 -0.13629544 0.07643938
v 0.42816244 -0.11094373 0.07643938
v 0.41716894 -0.13747868 0.07643938
v 0.42494253 -0.11871564 0.07951975
v 0.43153295 -0.11598660 0.07643938
v 0.41716894 -0.13034718 0.07951975
v 0.42311865 -0.13629544 0.07643938
v 0.42558325 -0.12193486 0.07951975
v 0.43271612 -0.12193486 0.07643938
v 0.42038885 -0.12970677 0.07951975
v 0.42816244 -0.13292607 0.07643938
v 0.42494253 -0.12515408 0.07951975
v 0.43153295 -0.12788319 0.07643938
v 0.42311865 -0.12788319 0.07951975
v 0.40280508 -0.11598660 -0.04577718
v 0.40939550 -0.11871564 -0.04885846
v 0.41121923 -0.11598660 -0.04885846
v 0.41716894 -0.12193486 -0.04994047
v 0.40617559 -0.11094373 -0.04577718
v 0.40162176 -0.12193486 -0.04577718
v 0.41394918 -0.11416295 -0.04885846
v 0.41121923 -0.10757428 -0.04577718
v 0.40875479 -0.12193486 -0.04885846
v 0.40280508 -0.12788319 -0.04577718
v 0.41716894 -0.11352261 -0.04885846
v 0.41716894 -0.10639119 -0.04577718
v 0.40939550 -0.12515408 -0.04885846
v 0.40617559 -0.13292607 -0.04577718
v 0.42038885 -0.11416295 -0.04885846
v 0.42311865 -0.10757428 -0.04577718
v 0.41121923 -0.12788319 -0.04885846
v 0.42311865 -0.11598660 -0.04885846
v 0.41394918 -0.12970677 -0.04885846
v 0.41121923 -0.13629544 -0.04577718
v 0.42816244 -0.11094373 -0.04577718
v 0.41716894 -0.13747868 -0.04577718
v 0.42494253 -0.11871564 -0.04885846
v 0.43153295 -0.11598660 -0.04577718
v 0.41716894 -0.13034718 -0.04885846
v 0.42311865 -0.13629544 -0.04577718
v 0.42558325 -0.12193486 -0.04885846
v 0.43271612 -0.12193486 -0.04577718
v 0.42038885 -0.12970677 -0.04885846
v 0.42816244 -0.13292607 -0.04577718
v 0.42494253 -0.12515408 -0.04885846
v 0.43153295 -0.12788319 -0.04577718
v 0.42311865 -0.12788319 -0.04885846
v 0.40769293 -0.11246098 -0.02474821
v 0.40617559 -0.11094373 -0.02567525
v 0.41121923 -0.10757428 -0.02567525
v 0.41204046 -0.10955655 -0.02474821
v 0.40478796 -0.11680760 -0.02474821
v 0.41716894 -0.10639119 -0.02567525
v 0.40280508 -0.11598660 -0.02567525
v 0.41716894 -0.10853680 -0.02474821
v 0.40376776 -0.12193486 -0.02474821
v 0.42311865 -0.10757428 -0.02567525
v 0.40162176 -0.12193486 -0.02567525
v 0.42229727 -0.10955655 -0.02474821
v 0.40478796 -0.12706212 -0.02474821
v 0.42816244 -0.11094373 -0.02567525
v 0.40280508 -0.12788319 -0.02567525
v 0.42664511 -0.11246098 -0.02474821
v 0.40769293 -0.13140881 -0.02474821
v 0.43153295 -0.11598660 -0.02567525
v 0.40617559 -0.13292607 -0.02567525
v 0.42955007 -0.11680760 -0.02474821
v 0.41204061 -0.13431317 -0.02474821
v 0.43271612 -0.12193486 -0.02567525
v 0.41121923 -0.13629544 -0.02567525
v 0.43057012 -0.12193486 -0.02474821
v 0.41716894 -0.13533307 -0.02474821
v 0.43153295 -0.12788319 -0.02567525
v 0.41716894 -0.13747868 -0.02567525
v 0.42955007 -0.12706212 -0.02474821
v 0.42229757 -0.13431317 -0.02474821
v 0.42816244 -0.13292607 -0.02567525
v 0.42311865 -0.13629544 -0.02567525
v 0.42664511 -0.13140881 -0.02474821
vt 0.02109300 0.93993970
vt 0.02109300 0.37993750
vt 0.77881200 0.37993750
vt 0.77881200 0.93993970
vt 0.07761400 0.43089200
vt 0.83533100 0.43089200
vt 0.83533100 0.86297080
vt 0.07761400 0.86297080
vt 0.87665400 0.88579100
vt 0.94061700 0.71142700
vt 0.87665400 0.71142700
vt 0.94061700 0.94975400
vt 0.38061000 0.94975400
vt 0.44457000 0.88579100
vt 0.44457000 0.71142700
vt 0.38061000 0.71142700
vt 0.66577300 0.91126600
vt 0.90805400 0.91126600
vt 0.90805400 0.73690800
vt 0.66577300 0.73690800
vt 0.26433800 0.71142400
vt 0.20037700 0.94975700
vt 0.26433800 0.94975700
vt 0.20037700 0.77538600
vt 0.76829000 0.77538600
vt 0.70433000 0.71142400
vt 0.70433000 0.94975700
vt 0.76829000 0.94975700
vt 0.55273200 0.94975000
vt 0.79501500 0.94975000
vt 0.79501500 0.71143100
vt 0.55273200 0.71143100
vt 0.72229200 0.91126500
vt 0.96457500 0.91126500
vt 0.96457500 0.73690700
vt 0.72229200 0.73690700
vt 0.60925300 0.94975100
vt 0.85153600 0.94975100
vt 0.85153600 0.71142900
vt 0.60925300 0.71142900
vt 0.02348500 0.20003100
vt 0.95952300 0.20003100
vt 0.95952300 0.44231370
vt 0.02348500 0.44231370
vt 0.94038000 0.44231240
vt 0.00434300 0.44231240
vt 0.00434300 0.20003220
vt 0.94038000 0.20003220
vt 0.84744000 0.90951550
vt 0.83878000 0.91310270
vt 0.84385000 0.91817630
vt 0.83394000 0.91822060
vt 0.83906000 0.91309520
vt 0.83031000 0.90947120
vt 0.83060000 0.91817530
vt 0.82701000 0.90951690
vt 0.82194000 0.91458990
vt 0.81352000 0.91310260
vt 0.81860000 0.91817540
vt 0.82218000 0.90951690
vt 0.80511000 0.91817660
vt 0.81377000 0.91459020
vt 0.80869000 0.90951570
vt 0.79673000 0.90955900
vt 0.80028000 0.91813340
vt 0.80530000 0.91310980
vt 0.79334000 0.90951350
vt 0.78827000 0.91458960
vt 0.79693000 0.91817830
vt 0.77981000 0.91821900
vt 0.78856000 0.91459660
vt 0.78343000 0.90947280
vt 0.84878000 0.87729390
vt 0.93646000 0.87729390
vt 0.93302000 0.87229010
vt 0.85223000 0.87229010
vt 0.03240000 0.17040230
vt 0.03240000 0.90921430
vt 0.02736000 0.90575111
vt 0.02736000 0.17386580
vt 0.92536000 0.17386580
vt 0.92536000 0.90575111
vt 0.92033000 0.90921430
vt 0.92033000 0.17040230
vt 0.85223000 0.98370650
vt 0.93302000 0.98370650
vt 0.93646000 0.97870250
vt 0.84878000 0.97870250
vt 0.93172000 0.25370850
vt 0.93172000 0.98559311
vt 0.92668000 0.98905635
vt 0.92668000 0.25024510
vt 0.03875000 0.25024510
vt 0.03875000 0.98905635
vt 0.03371000 0.98559311
vt 0.03371000 0.25370850
vt 0.82203000 0.98370460
vt 0.90281000 0.98370460
vt 0.90625000 0.97870120
vt 0.81858000 0.97870120
vt 0.81858000 0.87729570
vt 0.90625000 0.87729570
vt 0.90281000 0.87229210
vt 0.82203000 0.87229210
vt 0.84878000 0.97870250
vt 0.93646000 0.97870250
vt 0.93646000 0.87729390
vt 0.84878000 0.87729390
vt 0.81858000 0.97870120
vt 0.90625000 0.97870120
vt 0.90625000 0.87729570
vt 0.81858000 0.87729570
vt 0.93172000 0.98559311
vt 0.93172000 0.25370850
vt 0.03371000 0.25370850
vt 0.03371000 0.98559311
vt 0.92536000 0.90575111
vt 0.92536000 0.17386580
vt 0.02736000 0.17386580
vt 0.02736000 0.90575111
vt 0.91135000 0.32601610
vt 0.91135000 0.57572880
vt 0.98904000 0.57572880
vt 0.98904000 0.32601610
vt 0.88304000 0.32601620
vt 0.88304000 0.57572840
vt 0.96073000 0.57572840
vt 0.96073000 0.32601620
vt 0.02736000 0.17386580
vt 0.92536000 0.17386580
vt 0.92536000 0.17876440
vt 0.02736000 0.17876440
vt 0.93172000 0.25860720
vt 0.03371000 0.25860720
vt 0.03371000 0.25370850
vt 0.93172000 0.25370850
vt 0.02736000 0.90085225
vt 0.92536000 0.90085225
vt 0.92536000 0.90575111
vt 0.02736000 0.90575111
vt 0.93172000 0.98559311
vt 0.03371000 0.98559311
vt 0.03371000 0.98069426
vt 0.93172000 0.98069426
vt 0.97288000 0.91384300
vt 0.97288000 0.06544100
vt 0.05597200 0.06544100
vt 0.05597200 0.91384300
vt 0.97288000 0.58395100
vt 0.05597200 0.58395100
vt 0.97288000 0.43745600
vt 0.05597200 0.43745600
vt 0.97288000 0.31095060
vt 0.05597200 0.31095060
vt 0.97288000 0.16796700
vt 0.05597200 0.16796700
vt 0.97288000 0.20009390
vt 0.05597200 0.20009390
vt 0.97288000 0.88884600
vt 0.05597200 0.88884600
vt 0.00571700 0.91384400
vt 0.00571700 0.06544200
vt 0.08881300 0.06544200
vt 0.08881300 0.91384400
vt 0.00571700 0.58395200
vt 0.08881300 0.58395200
vt 0.00571700 0.43745700
vt 0.08881300 0.43745700
vt 0.00571700 0.31095050
vt 0.08881300 0.31095050
vt 0.00571700 0.16796670
vt 0.08881300 0.16796670
vt 0.00571700 0.20009290
vt 0.08881300 0.20009290
vt 0.00571700 0.88884500
vt 0.08881300 0.88884500
vt 0.55674000 0.93045000
vt 0.55674000 0.08380000
vt 0.68009000 0.08380000
vt 0.68009000 0.93045000
vt 0.55674000 0.59674500
vt 0.20193100 0.08380000
vt 0.68009000 0.59674500
vt 0.20193100 0.93045000
vt 0.55674000 0.44855600
vt 0.36206900 0.08380000
vt 0.68009000 0.44855600
vt 0.55674000 0.30902960
vt 0.20193100 0.59674500
vt 0.36206900 0.93045000
vt 0.88391100 0.08380000
vt 0.68009000 0.30902960
vt 0.55674000 0.16439320
vt 0.20193100 0.44855600
vt 0.36206900 0.59674500
vt 0.88391100 0.93045000
vt 0.68009000 0.16439320
vt 0.55674000 0.18533220
vt 0.20193100 0.30902960
vt 0.36206900 0.44855600
vt 0.88391100 0.59674500
vt 0.00726500 0.93045000
vt 0.00726500 0.08380000
vt 0.00726500 0.59674500
vt 0.68009000 0.18533220
vt 0.55674000 0.87048700
vt 0.68009000 0.87048700
vt 0.20193100 0.18533220
vt 0.20193100 0.16439320
vt 0.20193100 0.87048700
vt 0.88391100 0.44855600
vt 0.00726500 0.44855600
vt 0.36206900 0.30902960
vt 0.88391100 0.30902960
vt 0.00726500 0.30902960
vt 0.36206900 0.16439320
vt 0.36206900 0.18533220
vt 0.36206900 0.87048700
vt 0.88391100 0.16439320
vt 0.00726500 0.16439320
vt 0.88391100 0.18533220
vt 0.88391100 0.87048700
vt 0.00726500 0.18533220
vt 0.00726500 0.87048700
vt 0.91139100 0.93340930
vt 0.99448700 0.93340930
vt 0.99448700 0.81146400
vt 0.91139100 0.81146400
vt 0.99448700 0.29558750
vt 0.91139100 0.29558750
vt 0.99448700 0.13727950
vt 0.91139100 0.13727950
vt 0.91139100 0.62139950
vt 0.99448700 0.62139950
vt 0.99448700 0.49945420
vt 0.91139100 0.49945420
vt 0.94402800 0.93340940
vt 0.02712300 0.93340940
vt 0.02712300 0.81146390
vt 0.94402800 0.81146390
vt 0.02712300 0.29558620
vt 0.94402800 0.29558620
vt 0.02712300 0.13727810
vt 0.94402800 0.13727810
vt 0.02712300 0.62139920
vt 0.94402800 0.62139920
vt 0.94402800 0.49945360
vt 0.02712300 0.49945360
vt 0.14745300 0.87916100
vt 0.14745300 0.64803400
vt 0.73457000 0.64803400
vt 0.73457000 0.87916100
vt 0.82943300 0.87916100
vt 0.82943300 0.64803400
vt 0.41654600 0.64803400
vt 0.41654600 0.87916100
vt 0.85306400 0.07512330
vt 0.85306400 0.30624960
vt 0.26595100 0.30624960
vt 0.26595100 0.07512330
vt 0.17108500 0.07512330
vt 0.17108500 0.30624960
vt 0.58397100 0.30624960
vt 0.58397100 0.07512330
vt 0.32042900 0.08380000
vt 0.44378400 0.08380000
vt 0.44378400 0.76895600
vt 0.32042900 0.76895600
vt 0.79858700 0.76895600
vt 0.32042900 0.78989400
vt 0.44378400 0.78989400
vt 0.79858700 0.08380000
vt 0.44378400 0.64525650
vt 0.63844900 0.76895600
vt 0.63844900 0.08380000
vt 0.63844900 0.78989400
vt 0.11660800 0.76895600
vt 0.11660800 0.08380000
vt 0.79858700 0.78989400
vt 0.99325000 0.76895600
vt 0.99325000 0.08380000
vt 0.99325000 0.78989400
vt 0.11660800 0.78989400
vt 0.99325000 0.64525650
vt 0.11660800 0.64525650
vt 0.99325000 0.50573100
vt 0.63844900 0.64525650
vt 0.11660800 0.50573100
vt 0.99325000 0.35754040
vt 0.79858700 0.64525650
vt 0.63844900 0.50573100
vt 0.11660800 0.35754040
vt 0.99325000 0.02383610
vt 0.32042900 0.64525650
vt 0.44378400 0.50573100
vt 0.32042900 0.50573100
vt 0.79858700 0.50573100
vt 0.44378400 0.35754040
vt 0.11660800 0.02383610
vt 0.99325000 0.87048700
vt 0.11660800 0.87048700
vt 0.63844900 0.35754040
vt 0.63844900 0.02383610
vt 0.63844900 0.87048700
vt 0.79858700 0.35754040
vt 0.32042900 0.35754040
vt 0.44378300 0.02383610
vt 0.79858700 0.02383610
vt 0.79858700 0.87048700
vt 0.32042900 0.02383610
vt 0.44378400 0.87048700
vt 0.32042900 0.87048700
vt 0.14745300 0.11310330
vt 0.14745300 0.23662110
vt 0.73457000 0.23662110
vt 0.73457000 0.11310330
vt 0.17108500 0.84118100
vt 0.17108500 0.71766600
vt 0.58397100 0.71766600
vt 0.58397100 0.84118100
vt 0.85306400 0.84118100
vt 0.85306400 0.71766600
vt 0.26595100 0.71766600
vt 0.26595100 0.84118100
vt 0.82943300 0.11310330
vt 0.82943300 0.23662110
vt 0.41654600 0.23662110
vt 0.41654600 0.11310330
vt 0.14745300 0.39726600
vt 0.14745300 0.36031940
vt 0.73457000 0.36031940
vt 0.73457000 0.39726600
vt 0.82943300 0.39726600
vt 0.82943300 0.36031940
vt 0.41654600 0.36031940
vt 0.41654600 0.39726600
vt 0.85306400 0.55701830
vt 0.85306400 0.59396580
vt 0.26595100 0.59396580
vt 0.26595100 0.55701830
vt 0.17108500 0.55701830
vt 0.17108500 0.59396580
vt 0.58397100 0.59396580
vt 0.58397100 0.55701830
vt 0.20193100 0.93045000
vt 0.19202600 0.92112500
vt 0.69000000 0.92112500
vt 0.68009000 0.93045000
vt 0.68009000 0.93045000
vt 0.69000000 0.92112500
vt 0.69000000 0.60607100
vt 0.68009000 0.59674500
vt 0.68009000 0.59674500
vt 0.69000000 0.60607100
vt 0.19202500 0.60607100
vt 0.20193100 0.59674500
vt 0.20193100 0.59674500
vt 0.19202500 0.60607100
vt 0.19202600 0.92112500
vt 0.20193100 0.93045000
vt 0.88391100 0.93045000
vt 0.87400600 0.92112500
vt 0.37197300 0.92112500
vt 0.36206900 0.93045000
vt 0.36206900 0.93045000
vt 0.37197300 0.92112500
vt 0.37197300 0.60607100
vt 0.36206900 0.59674500
vt 0.36206900 0.59674500
vt 0.37197300 0.60607100
vt 0.87400600 0.60607100
vt 0.88391100 0.59674500
vt 0.88391100 0.59674500
vt 0.87400600 0.60607100
vt 0.87400600 0.92112500
vt 0.88391100 0.93045000
vt 0.79858700 0.02383610
vt 0.80849100 0.03316070
vt 0.31052400 0.03316070
vt 0.32042900 0.02383610
vt 0.32042900 0.02383610
vt 0.31052400 0.03316070
vt 0.31052400 0.34821570
vt 0.32042900 0.35754040
vt 0.32042900 0.35754040
vt 0.31052400 0.34821570
vt 0.80849100 0.34821570
vt 0.79858700 0.35754040
vt 0.79858700 0.35754040
vt 0.80849100 0.34821570
vt 0.80849100 0.03316070
vt 0.79858700 0.02383610
vt 0.11660800 0.02383610
vt 0.12651300 0.03316070
vt 0.62854400 0.03316070
vt 0.63844900 0.02383610
vt 0.63844900 0.02383610
vt 0.62854400 0.03316070
vt 0.62854400 0.34821570
vt 0.63844900 0.35754040
vt 0.63844900 0.35754040
vt 0.62854400 0.34821570
vt 0.12651300 0.34821570
vt 0.11660800 0.35754040
vt 0.11660800 0.35754040
vt 0.12651300 0.34821570
vt 0.12651300 0.03316070
vt 0.11660800 0.02383610
vt 0.20193100 0.16439320
vt 0.19202600 0.15506770
vt 0.69000000 0.15506770
vt 0.68009000 0.16439320
vt 0.68009000 0.16439320
vt 0.69000000 0.15506770
vt 0.69000000 0.19465770
vt 0.68009000 0.18533220
vt 0.68009000 0.18533220
vt 0.69000000 0.19465770
vt 0.19202600 0.19465770
vt 0.20193100 0.18533220
vt 0.20193100 0.18533220
vt 0.19202600 0.19465770
vt 0.19202600 0.15506770
vt 0.20193100 0.16439320
vt 0.11660800 0.78989400
vt 0.12651300 0.79921840
vt 0.62854400 0.79921840
vt 0.63844900 0.78989400
vt 0.63844900 0.78989400
vt 0.62854400 0.79921840
vt 0.62854400 0.75962800
vt 0.63844900 0.76895600
vt 0.63844900 0.76895600
vt 0.62854400 0.75962800
vt 0.12651300 0.75962800
vt 0.11660800 0.76895600
vt 0.11660800 0.76895600
vt 0.12651300 0.75962800
vt 0.12651300 0.79921840
vt 0.11660800 0.78989400
vt 0.79858700 0.78989400
vt 0.80849100 0.79921840
vt 0.31052400 0.79921840
vt 0.32042900 0.78989400
vt 0.32042900 0.78989400
vt 0.31052400 0.79921840
vt 0.31052400 0.75962800
vt 0.32042900 0.76895600
vt 0.32042900 0.76895600
vt 0.31052400 0.75962800
vt 0.80849100 0.75962800
vt 0.79858700 0.76895600
vt 0.79858700 0.76895600
vt 0.80849100 0.75962800
vt 0.80849100 0.79921840
vt 0.79858700 0.78989400
vt 0.88391100 0.16439320
vt 0.87400600 0.15506770
vt 0.37197300 0.15506770
vt 0.36206900 0.16439320
vt 0.36206900 0.16439320
vt 0.37197300 0.15506770
vt 0.37197300 0.19465770
vt 0.36206900 0.18533220
vt 0.36206900 0.18533220
vt 0.37197300 0.19465770
vt 0.87400600 0.19465770
vt 0.88391100 0.18533220
vt 0.88391100 0.18533220
vt 0.87400600 0.19465770
vt 0.87400600 0.15506770
vt 0.88391100 0.16439320
vt 0.20193100 0.44855600
vt 0.19202500 0.43923000
vt 0.69000000 0.43923000
vt 0.68009000 0.44855600
vt 0.68009000 0.44855600
vt 0.69000000 0.43923000
vt 0.69000000 0.31835500
vt 0.68009000 0.30902960
vt 0.68009000 0.30902960
vt 0.69000000 0.31835500
vt 0.19202500 0.31835500
vt 0.20193100 0.30902960
vt 0.20193100 0.30902960
vt 0.19202500 0.31835500
vt 0.19202500 0.43923000
vt 0.20193100 0.44855600
vt 0.88391100 0.44855600
vt 0.87400600 0.43923000
vt 0.37197300 0.43923000
vt 0.36206900 0.44855600
vt 0.36206900 0.44855600
vt 0.37197300 0.43923000
vt 0.37197300 0.31835500
vt 0.36206900 0.30902960
vt 0.36206900 0.30902960
vt 0.37197300 0.31835500
vt 0.87400600 0.31835500
vt 0.88391100 0.30902960
vt 0.88391100 0.30902960
vt 0.87400600 0.31835500
vt 0.87400600 0.43923000
vt 0.88391100 0.44855600
vt 0.79858700 0.50573100
vt 0.80849100 0.51505570
vt 0.31052400 0.51505570
vt 0.32042900 0.50573100
vt 0.32042900 0.50573100
vt 0.31052400 0.51505570
vt 0.31052400 0.63593180
vt 0.32042900 0.64525650
vt 0.32042900 0.64525650
vt 0.31052400 0.63593180
vt 0.80849100 0.63593180
vt 0.79858700 0.64525650
vt 0.79858700 0.64525650
vt 0.80849100 0.63593180
vt 0.80849100 0.51505570
vt 0.79858700 0.50573100
vt 0.11660800 0.50573100
vt 0.12651300 0.51505570
vt 0.62854400 0.51505570
vt 0.63844900 0.50573100
vt 0.63844900 0.50573100
vt 0.62854400 0.51505570
vt 0.62854400 0.63593180
vt 0.63844900 0.64525650
vt 0.63844900 0.64525650
vt 0.62854400 0.63593180
vt 0.12651300 0.63593180
vt 0.11660800 0.64525650
vt 0.11660800 0.64525650
vt 0.12651300 0.63593180
vt 0.12651300 0.51505570
vt 0.11660800 0.50573100
vt 0.19202600 0.92112500
vt 0.14745300 0.87916100
vt 0.73457000 0.87916100
vt 0.69000000 0.92112500
vt 0.69000000 0.92112500
vt 0.73457000 0.87916100
vt 0.73457000 0.64803400
vt 0.69000000 0.60607100
vt 0.69000000 0.60607100
vt 0.73457000 0.64803400
vt 0.14745300 0.64803400
vt 0.19202500 0.60607100
vt 0.19202500 0.60607100
vt 0.14745300 0.64803400
vt 0.14745300 0.87916100
vt 0.19202600 0.92112500
vt 0.87400600 0.92112500
vt 0.82943300 0.87916100
vt 0.41654600 0.87916100
vt 0.37197300 0.92112500
vt 0.37197300 0.92112500
vt 0.41654600 0.87916100
vt 0.41654600 0.64803400
vt 0.37197300 0.60607100
vt 0.37197300 0.60607100
vt 0.41654600 0.64803400
vt 0.82943300 0.64803400
vt 0.87400600 0.60607100
vt 0.87400600 0.60607100
vt 0.82943300 0.64803400
vt 0.82943300 0.87916100
vt 0.87400600 0.92112500
vt 0.80849100 0.03316070
vt 0.85306400 0.07512330
vt 0.26595100 0.07512330
vt 0.31052400 0.03316070
vt 0.31052400 0.03316070
vt 0.26595100 0.07512330
vt 0.26595100 0.30624960
vt 0.31052400 0.34821570
vt 0.31052400 0.34821570
vt 0.26595100 0.30624960
vt 0.85306400 0.30624960
vt 0.80849100 0.34821570
vt 0.80849100 0.34821570
vt 0.85306400 0.30624960
vt 0.85306400 0.07512330
vt 0.80849100 0.03316070
vt 0.12651300 0.03316070
vt 0.17108500 0.07512330
vt 0.58397100 0.07512330
vt 0.62854400 0.03316070
vt 0.62854400 0.03316070
vt 0.58397100 0.07512330
vt 0.58397100 0.30624960
vt 0.62854400 0.34821570
vt 0.62854400 0.34821570
vt 0.58397100 0.30624960
vt 0.17108500 0.30624960
vt 0.12651300 0.34821570
vt 0.12651300 0.34821570
vt 0.17108500 0.30624960
vt 0.17108500 0.07512330
vt 0.12651300 0.03316070
vt 0.19202600 0.15506770
vt 0.14745300 0.11310330
vt 0.73457000 0.11310330
vt 0.69000000 0.15506770
vt 0.69000000 0.15506770
vt 0.73457000 0.11310330
vt 0.73457000 0.23662110
vt 0.69000000 0.19465770
vt 0.69000000 0.19465770
vt 0.73457000 0.23662110
vt 0.14745300 0.23662110
vt 0.19202600 0.19465770
vt 0.19202600 0.19465770
vt 0.14745300 0.23662110
vt 0.14745300 0.11310330
vt 0.19202600 0.15506770
vt 0.12651300 0.79921840
vt 0.17108500 0.84118100
vt 0.58397100 0.84118100
vt 0.62854400 0.79921840
vt 0.62854400 0.79921840
vt 0.58397100 0.84118100
vt 0.58397100 0.71766600
vt 0.62854400 0.75962800
vt 0.62854400 0.75962800
vt 0.58397100 0.71766600
vt 0.17108500 0.71766600
vt 0.12651300 0.75962800
vt 0.12651300 0.75962800
vt 0.17108500 0.71766600
vt 0.17108500 0.84118100
vt 0.12651300 0.79921840
vt 0.80849100 0.79921840
vt 0.85306400 0.84118100
vt 0.26595100 0.84118100
vt 0.31052400 0.79921840
vt 0.31052400 0.79921840
vt 0.26595100 0.84118100
vt 0.26595100 0.71766600
vt 0.31052400 0.75962800
vt 0.31052400 0.75962800
vt 0.26595100 0.71766600
vt 0.85306400 0.71766600
vt 0.80849100 0.75962800
vt 0.80849100 0.75962800
vt 0.85306400 0.71766600
vt 0.85306400 0.84118100
vt 0.80849100 0.79921840
vt 0.87400600 0.15506770
vt 0.82943300 0.11310330
vt 0.41654600 0.11310330
vt 0.37197300 0.15506770
vt 0.37197300 0.15506770
vt 0.41654600 0.11310330
vt 0.41654600 0.23662110
vt 0.37197300 0.19465770
vt 0.37197300 0.19465770
vt 0.41654600 0.23662110
vt 0.82943300 0.23662110
vt 0.87400600 0.19465770
vt 0.87400600 0.19465770
vt 0.82943300 0.23662110
vt 0.82943300 0.11310330
vt 0.87400600 0.15506770
vt 0.19202500 0.43923000
vt 0.14745300 0.39726600
vt 0.73457000 0.39726600
vt 0.69000000 0.43923000
vt 0.69000000 0.43923000
vt 0.73457000 0.39726600
vt 0.73457000 0.36031940
vt 0.69000000 0.31835500
vt 0.69000000 0.31835500
vt 0.73457000 0.36031940
vt 0.14745300 0.36031940
vt 0.19202500 0.31835500
vt 0.19202500 0.31835500
vt 0.14745300 0.36031940
vt 0.14745300 0.39726600
vt 0.19202500 0.43923000
vt 0.87400600 0.43923000
vt 0.82943300 0.39726600
vt 0.41654600 0.39726600
vt 0.37197300 0.43923000
vt 0.37197300 0.43923000
vt 0.41654600 0.39726600
vt 0.41654600 0.36031940
vt 0.37197300 0.31835500
vt 0.37197300 0.31835500
vt 0.41654600 0.36031940
vt 0.82943300 0.36031940
vt 0.87400600 0.31835500
vt 0.87400600 0.31835500
vt 0.82943300 0.36031940
vt 0.82943300 0.39726600
vt 0.87400600 0.43923000
vt 0.80849100 0.51505570
vt 0.85306400 0.55701830
vt 0.26595100 0.55701830
vt 0.31052400 0.51505570
vt 0.31052400 0.51505570
vt 0.26595100 0.55701830
vt 0.26595100 0.59396580
vt 0.31052400 0.63593180
vt 0.31052400 0.63593180
vt 0.26595100 0.59396580
vt 0.85306400 0.59396580
vt 0.80849100 0.63593180
vt 0.80849100 0.63593180
vt 0.85306400 0.59396580
vt 0.85306400 0.55701830
vt 0.80849100 0.51505570
vt 0.12651300 0.51505570
vt 0.17108500 0.55701830
vt 0.58397100 0.55701830
vt 0.62854400 0.51505570
vt 0.62854400 0.51505570
vt 0.58397100 0.55701830
vt 0.58397100 0.59396580
vt 0.62854400 0.63593180
vt 0.62854400 0.63593180
vt 0.58397100 0.59396580
vt 0.17108500 0.59396580
vt 0.12651300 0.63593180
vt 0.12651300 0.63593180
vt 0.17108500 0.59396580
vt 0.17108500 0.55701830
vt 0.12651300 0.51505570
vt 0.56342800 0.15303970
vt 0.56342800 0.16240100
vt 0.57198700 0.16865630
vt 0.57198700 0.15642500
vt 0.56342800 0.14199700
vt 0.57198700 0.14199700
vt 0.56342800 0.13095430
vt 0.57198700 0.12756910
vt 0.56342800 0.12159210
vt 0.57198700 0.11533670
vt 0.58208300 0.17085290
vt 0.58208300 0.15761360
vt 0.58208300 0.14199700
vt 0.58208300 0.12637940
vt 0.58208300 0.17969900
vt 0.57198700 0.17682990
vt 0.59217600 0.17682990
vt 0.59217600 0.16865630
vt 0.59217600 0.15642500
vt 0.60073600 0.16240100
vt 0.60073600 0.15303970
vt 0.59217600 0.14199700
vt 0.60073600 0.14199700
vt 0.59217600 0.12756910
vt 0.60073600 0.13095430
vt 0.58208300 0.11314020
vt 0.57198700 0.10716420
vt 0.58208300 0.10429400
vt 0.59217600 0.11533670
vt 0.60073600 0.12159210
vt 0.59217600 0.10716420
vt 0.27537400 0.85605590
vt 0.28375600 0.86191040
vt 0.28375600 0.84992680
vt 0.27537400 0.86522570
vt 0.28375600 0.87604310
vt 0.27537400 0.87604310
vt 0.29364300 0.87604310
vt 0.29364300 0.86074420
vt 0.28375600 0.89017590
vt 0.27537400 0.88686060
vt 0.28375600 0.90215750
vt 0.27537400 0.89603040
vt 0.29364300 0.89134000
vt 0.30352900 0.89017590
vt 0.30352900 0.87604310
vt 0.30352900 0.86191040
vt 0.31191100 0.88686060
vt 0.31191100 0.89603040
vt 0.30352900 0.90215750
vt 0.31191100 0.87604310
vt 0.31191100 0.86522570
vt 0.30352900 0.84992680
vt 0.31191100 0.85605590
vt 0.74691300 0.13095450
vt 0.74691300 0.12159240
vt 0.73835600 0.11533700
vt 0.73835600 0.12756930
vt 0.74691300 0.14199700
vt 0.73835600 0.14199700
vt 0.74691300 0.15303960
vt 0.73835600 0.15642480
vt 0.74691300 0.16240070
vt 0.73835600 0.16865600
vt 0.72826000 0.11314050
vt 0.72826000 0.12637960
vt 0.72826000 0.14199700
vt 0.72826000 0.15761350
vt 0.72826000 0.10429450
vt 0.73835600 0.10716460
vt 0.71816400 0.10716460
vt 0.71816400 0.11533700
vt 0.71816400 0.12756930
vt 0.70960600 0.12159240
vt 0.70960600 0.13095450
vt 0.71816400 0.14199700
vt 0.70960600 0.14199700
vt 0.71816400 0.15642480
vt 0.70960600 0.15303960
vt 0.72826000 0.17085250
vt 0.73835600 0.17682940
vt 0.72826000 0.17969850
vt 0.71816400 0.16865600
vt 0.70960600 0.16240070
vt 0.71816400 0.17682940
vt 0.45808100 0.89603010
vt 0.44970100 0.89017580
vt 0.44970100 0.90215800
vt 0.45808100 0.88686060
vt 0.44970100 0.87604350
vt 0.45808100 0.87604350
vt 0.43981500 0.87604350
vt 0.43981500 0.89134190
vt 0.44970100 0.86191130
vt 0.45808100 0.86522640
vt 0.44970100 0.84993000
vt 0.45808100 0.85605690
vt 0.43981500 0.86074720
vt 0.42992800 0.86191130
vt 0.42992800 0.87604350
vt 0.42992800 0.89017580
vt 0.42154700 0.86522640
vt 0.42154700 0.85605690
vt 0.42992800 0.84993000
vt 0.42154700 0.87604350
vt 0.42154700 0.88686060
vt 0.42992800 0.90215800
vt 0.42154700 0.89603010
vt 0.10399600 0.20782320
vt 0.10910500 0.34881780
vt 0.10910500 0.20782320
vt 0.10399600 0.34881780
vt 0.09635200 0.20782320
vt 0.09635200 0.34881780
vt 0.08733300 0.20782320
vt 0.08733300 0.34881780
vt 0.07831500 0.20782320
vt 0.07831500 0.34881780
vt 0.07066900 0.20782320
vt 0.07066900 0.34881780
vt 0.06556200 0.20782320
vt 0.06556200 0.34881780
vt 0.21490300 0.21507920
vt 0.22299300 0.34156180
vt 0.22299300 0.21507920
vt 0.21490300 0.34156180
vt 0.20681100 0.21507920
vt 0.20681100 0.34156180
vt 0.32617900 0.34881850
vt 0.32107100 0.20782250
vt 0.32107100 0.34881850
vt 0.32617900 0.20782250
vt 0.33382500 0.34881850
vt 0.33382500 0.20782250
vt 0.34284300 0.34881850
vt 0.34284300 0.20782250
vt 0.35186200 0.34881850
vt 0.35186200 0.20782250
vt 0.35950600 0.34881850
vt 0.35950600 0.20782250
vt 0.36461400 0.34881850
vt 0.36461400 0.20782250
vt 0.47021300 0.34155670
vt 0.46212200 0.21507680
vt 0.46212200 0.34155670
vt 0.47021300 0.21507680
vt 0.47830400 0.34155670
vt 0.47830400 0.21507680
vt 0.89311000 0.15303890
vt 0.88455100 0.16865440
vt 0.89311000 0.16239950
vt 0.88455100 0.15642390
vt 0.89311000 0.14199700
vt 0.88455100 0.14199700
vt 0.89311000 0.13095510
vt 0.88455100 0.12757010
vt 0.89311000 0.12159350
vt 0.88455100 0.11533860
vt 0.87445200 0.17085080
vt 0.87445200 0.15761250
vt 0.87445200 0.14199700
vt 0.87445200 0.12638050
vt 0.87445200 0.17969640
vt 0.88455100 0.17682740
vt 0.86435300 0.17682740
vt 0.86435300 0.16865440
vt 0.86435300 0.15642390
vt 0.85579300 0.16239950
vt 0.85579300 0.15303890
vt 0.86435300 0.14199700
vt 0.85579300 0.14199700
vt 0.86435300 0.12757010
vt 0.85579300 0.13095510
vt 0.87445200 0.11314220
vt 0.88455100 0.10716660
vt 0.87445200 0.10429670
vt 0.86435300 0.11533860
vt 0.85579300 0.12159350
vt 0.86435300 0.10716660
vt 0.60428000 0.85605840
vt 0.59589700 0.84993000
vt 0.59589700 0.86191210
vt 0.60428000 0.86522700
vt 0.59589700 0.87604310
vt 0.60428000 0.87604310
vt 0.58600800 0.87604310
vt 0.58600800 0.86074610
vt 0.59589700 0.89017420
vt 0.60428000 0.88685920
vt 0.59589700 0.90215430
vt 0.60428000 0.89602790
vt 0.58600800 0.89133820
vt 0.57611900 0.89017420
vt 0.57611900 0.87604310
vt 0.57611900 0.86191210
vt 0.56773600 0.88685920
vt 0.56773600 0.89602790
vt 0.57611900 0.90215430
vt 0.56773600 0.87604310
vt 0.56773600 0.86522700
vt 0.57611900 0.84993000
vt 0.56773600 0.85605840
vt 0.91005600 0.41497480
vt 0.91861600 0.39935820
vt 0.91005600 0.40561320
vt 0.91861600 0.41158980
vt 0.91005600 0.42601680
vt 0.91861600 0.42601680
vt 0.91005600 0.43705880
vt 0.91861600 0.44044380
vt 0.91005600 0.44641940
vt 0.91861600 0.45267440
vt 0.92871400 0.39716180
vt 0.92871400 0.41040020
vt 0.92871400 0.42601680
vt 0.92871400 0.44163240
vt 0.92871400 0.38831620
vt 0.91861600 0.39118620
vt 0.93881200 0.39118620
vt 0.93881200 0.39935820
vt 0.93881200 0.41158980
vt 0.94737100 0.40561320
vt 0.94737100 0.41497480
vt 0.93881200 0.42601680
vt 0.94737100 0.42601680
vt 0.93881200 0.44044380
vt 0.94737100 0.43705880
vt 0.92871400 0.45487080
vt 0.91861600 0.46084740
vt 0.92871400 0.46371640
vt 0.93881200 0.45267440
vt 0.94737100 0.44641940
vt 0.93881200 0.46084740
vt 0.71390700 0.62336460
vt 0.72229000 0.62949190
vt 0.72229000 0.61751130
vt 0.71390700 0.61419590
vt 0.72229000 0.60337980
vt 0.71390700 0.60337980
vt 0.73217900 0.60337980
vt 0.73217900 0.61867630
vt 0.72229000 0.58924880
vt 0.71390700 0.59256420
vt 0.72229000 0.57726830
vt 0.71390700 0.58339560
vt 0.73217900 0.58808430
vt 0.74206600 0.58924880
vt 0.74206600 0.60337980
vt 0.74206600 0.61751130
vt 0.75045000 0.59256420
vt 0.75045000 0.58339560
vt 0.74206600 0.57726830
vt 0.75045000 0.60337980
vt 0.75045000 0.61419590
vt 0.74206600 0.62949190
vt 0.75045000 0.62336460
vt 0.54113900 0.65036320
vt 0.54588000 0.65746260
vt 0.54911700 0.65612210
vt 0.54361500 0.64788590
vt 0.55105000 0.66583730
vt 0.53404000 0.64561950
vt 0.54754400 0.66583730
vt 0.53538100 0.64238080
vt 0.54911700 0.67555340
vt 0.52566700 0.64395370
vt 0.54588000 0.67421200
vt 0.52566700 0.64044870
vt 0.54361500 0.68378960
vt 0.51729400 0.64561950
vt 0.54113900 0.68131140
vt 0.51595300 0.64238080
vt 0.53538100 0.68929370
vt 0.51019600 0.65036320
vt 0.53404000 0.68605590
vt 0.50771800 0.64788590
vt 0.52566700 0.69122590
vt 0.50545300 0.65746260
vt 0.52566700 0.68772080
vt 0.50221600 0.65612210
vt 0.51595300 0.68929370
vt 0.50378800 0.66583730
vt 0.51729400 0.68605590
vt 0.50028400 0.66583730
vt 0.50771800 0.68378960
vt 0.50545300 0.67421200
vt 0.51019600 0.68131140
vt 0.50221600 0.67555340
vt 0.73652000 0.36998380
vt 0.72837500 0.37542710
vt 0.73652000 0.38357090
vt 0.74092800 0.38062650
vt 0.74612300 0.39317800
vt 0.74612300 0.36807510
vt 0.73357600 0.38797860
vt 0.72293600 0.38357090
vt 0.74612300 0.37959090
vt 0.75573000 0.36998380
vt 0.73253900 0.39317800
vt 0.72102600 0.39317800
vt 0.75132200 0.38062650
vt 0.76387000 0.37542710
vt 0.73357600 0.39837740
vt 0.72293600 0.40278510
vt 0.75573000 0.38357090
vt 0.73652000 0.40278510
vt 0.75867400 0.38797860
vt 0.76931000 0.38357090
vt 0.72837500 0.41092890
vt 0.77122200 0.39317800
vt 0.74092800 0.40572940
vt 0.73652000 0.41637220
vt 0.75970600 0.39317800
vt 0.76931000 0.40278510
vt 0.74612300 0.40676510
vt 0.74612300 0.41828090
vt 0.75867400 0.39837740
vt 0.76387000 0.41092890
vt 0.75132200 0.40572940
vt 0.75573000 0.41637220
vt 0.75573000 0.40278510
vt 0.31481100 0.64264230
vt 0.31040300 0.65328490
vt 0.31481100 0.65623040
vt 0.30520600 0.66583730
vt 0.32295200 0.64808600
vt 0.30520600 0.64073160
vt 0.31775500 0.66063840
vt 0.32839400 0.65623040
vt 0.30520600 0.65225010
vt 0.29560000 0.64264230
vt 0.31878900 0.66583730
vt 0.33030500 0.66583730
vt 0.30000700 0.65328490
vt 0.28745700 0.64808600
vt 0.31775500 0.67103710
vt 0.32839400 0.67544510
vt 0.29560000 0.65623040
vt 0.31481100 0.67544510
vt 0.29265600 0.66063840
vt 0.28201600 0.65623040
vt 0.32295200 0.68358950
vt 0.28010600 0.66583730
vt 0.31040300 0.67839050
vt 0.31481100 0.68903230
vt 0.29162100 0.66583730
vt 0.28201600 0.67544510
vt 0.30520600 0.67942450
vt 0.30520600 0.69094290
vt 0.29265600 0.67103710
vt 0.28745700 0.68358950
vt 0.30000700 0.67839050
vt 0.29560000 0.68903230
vt 0.29560000 0.67544510
vt 0.09368700 0.86872020
vt 0.09120600 0.86624280
vt 0.08570400 0.87447920
vt 0.08894300 0.87581980
vt 0.10078200 0.86397640
vt 0.08377400 0.88419560
vt 0.09944200 0.86073760
vt 0.08727600 0.88419560
vt 0.10915500 0.86231050
vt 0.08570400 0.89391200
vt 0.10915500 0.85880710
vt 0.08894300 0.89256780
vt 0.11753100 0.86397640
vt 0.09120600 0.90214840
vt 0.11887100 0.86073760
vt 0.09368700 0.89967100
vt 0.12462600 0.86872020
vt 0.09944200 0.90765360
vt 0.12710400 0.86624280
vt 0.10078200 0.90441480
vt 0.12937100 0.87581980
vt 0.10915500 0.90958400
vt 0.13260600 0.87447920
vt 0.10915500 0.90608070
vt 0.13103600 0.88419560
vt 0.11887100 0.90765360
vt 0.13454000 0.88419560
vt 0.11753100 0.90441480
vt 0.12937100 0.89257130
vt 0.12710400 0.90214840
vt 0.13260600 0.89391200
vt 0.12462600 0.89967100
f 3/3 2/2 1/1
f 4/4 3/3 1/1
f 7/7 6/6 5/5
f 8/8 7/7 5/5
f 11/11 10/10 9/9
f 10/10 12/12 9/9
f 9/9 12/12 13/13
f 14/14 9/9 13/13
f 15/15 14/14 13/13
f 16/16 15/15 13/13
f 19/19 18/18 17/17
f 20/20 19/19 17/17
f 23/23 22/22 21/21
f 22/22 24/24 21/21
f 21/21 24/24 25/25
f 26/26 21/21 25/25
f 27/27 26/26 25/25
f 28/28 27/27 25/25
f 31/31 30/30 29/29
f 32/32 31/31 29/29
f 35/35 34/34 33/33
f 36/36 35/35 33/33
f 39/39 38/38 37/37
f 40/40 39/39 37/37
f 43/43 42/42 41/41
f 44/44 43/43 41/41
f 47/47 46/46 45/45
f 48/48 47/47 45/45
f 51/51 50/50 49/49
f 54/54 53/53 52/52
f 57/57 56/56 55/55
f 60/60 59/59 58/58
f 63/63 62/62 61/61
f 66/66 65/65 64/64
f 69/69 68/68 67/67
f 72/72 71/71 70/70
f 75/75 74/74 73/73
f 76/76 75/75 73/73
f 79/79 78/78 77/77
f 80/80 79/79 77/77
f 83/83 82/82 81/81
f 84/84 83/83 81/81
f 87/87 86/86 85/85
f 88/88 87/87 85/85
f 91/91 90/90 89/89
f 92/92 91/91 89/89
f 95/95 94/94 93/93
f 96/96 95/95 93/93
f 99/99 98/98 97/97
f 100/100 99/99 97/97
f 103/103 102/102 101/101
f 104/104 103/103 101/101
f 107/107 106/106 105/105
f 108/108 107/107 105/105
f 111/111 110/110 109/109
f 112/112 111/111 109/109
f 115/115 114/114 113/113
f 116/116 115/115 113/113
f 119/119 118/118 117/117
f 120/120 119/119 117/117
f 123/123 122/122 121/121
f 124/124 123/123 121/121
f 127/127 126/126 125/125
f 128/128 127/127 125/125
f 131/131 130/130 129/129
f 132/132 131/131 129/129
f 135/135 134/134 133/133
f 136/136 135/135 133/133
f 139/139 138/138 137/137
f 140/140 139/139 137/137
f 143/143 142/142 141/141
f 144/144 143/143 141/141
f 147/147 146/146 145/145
f 148/148 147/147 145/145
f 148/148 145/145 149/149
f 150/150 148/148 149/149
f 150/150 149/149 151/151
f 152/152 150/150 151/151
f 152/152 151/151 153/153
f 154/154 152/152 153/153
f 154/154 153/153 155/155
f 156/156 154/154 155/155
f 156/156 155/155 157/157
f 158/158 156/156 157/157
f 158/158 157/157 159/159
f 160/160 158/158 159/159
f 163/163 162/162 161/161
f 164/164 163/163 161/161
f 164/164 161/161 165/165
f 166/166 164/164 165/165
f 166/166 165/165 167/167
f 168/168 166/166 167/167
f 168/168 167/167 169/169
f 170/170 168/168 169/169
f 170/170 169/169 171/171
f 172/172 170/170 171/171
f 172/172 171/171 173/173
f 174/174 172/172 173/173
f 174/174 173/173 175/175
f 176/176 174/174 175/175
f 179/179 178/178 177/177
f 180/180 179/179 177/177
f 180/180 177/177 181/181
f 179/179 180/180 182/182
f 183/183 180/180 181/181
f 180/180 184/184 182/182
f 183/183 181/181 185/185
f 182/182 184/184 186/186
f 187/187 183/183 185/185
f 187/187 185/185 188/188
f 183/183 187/187 189/189
f 184/184 190/190 186/186
f 184/184 189/189 190/190
f 186/186 190/190 191/191
f 192/192 187/187 188/188
f 192/192 188/188 193/193
f 187/187 194/194 189/189
f 189/189 195/195 190/190
f 189/189 194/194 195/195
f 190/190 196/196 191/191
f 197/197 192/192 193/193
f 197/197 193/193 198/198
f 192/192 197/197 199/199
f 194/194 200/200 195/195
f 194/194 199/199 200/200
f 195/195 200/200 201/201
f 196/196 202/202 191/191
f 196/196 201/201 202/202
f 202/202 203/203 191/191
f 201/201 204/204 202/202
f 205/205 197/197 198/198
f 205/205 198/198 206/206
f 207/207 205/205 206/206
f 205/205 207/207 208/208
f 197/197 209/209 199/199
f 207/207 210/210 208/208
f 201/201 211/211 204/204
f 200/200 211/211 201/201
f 211/211 212/212 204/204
f 199/199 213/213 200/200
f 199/199 209/209 213/213
f 211/211 214/214 212/212
f 214/214 215/215 212/212
f 209/209 216/216 213/213
f 209/209 208/208 216/216
f 213/213 216/216 214/214
f 208/208 210/210 217/217
f 208/208 217/217 216/216
f 210/210 218/218 217/217
f 216/216 219/219 214/214
f 214/214 219/219 215/215
f 219/219 220/220 215/215
f 217/217 218/218 221/221
f 219/219 221/221 220/220
f 218/218 222/222 221/221
f 221/221 223/223 220/220
f 221/221 222/222 223/223
f 222/222 224/224 223/223
f 227/227 226/226 225/225
f 228/228 227/227 225/225
f 229/229 227/227 228/228
f 230/230 229/229 228/228
f 231/231 229/229 230/230
f 232/232 231/231 230/230
f 232/232 233/233 231/231
f 233/233 234/234 231/231
f 235/235 234/234 233/233
f 236/236 235/235 233/233
f 239/239 238/238 237/237
f 240/240 239/239 237/237
f 241/241 239/239 240/240
f 242/242 241/241 240/240
f 241/241 242/242 243/243
f 242/242 244/244 243/243
f 245/245 243/243 244/244
f 246/246 245/245 244/244
f 246/246 247/247 245/245
f 247/247 248/248 245/245
f 251/251 250/250 249/249
f 252/252 251/251 249/249
f 255/255 254/254 253/253
f 256/256 255/255 253/253
f 259/259 258/258 257/257
f 260/260 259/259 257/257
f 263/263 262/262 261/261
f 264/264 263/263 261/261
f 267/267 266/266 265/265
f 268/268 267/267 265/265
f 268/268 265/265 269/269
f 268/268 270/270 267/267
f 270/270 271/271 267/267
f 265/265 272/272 269/269
f 273/273 271/271 270/270
f 274/274 269/269 272/272
f 275/275 274/274 272/272
f 274/274 276/276 269/269
f 274/274 275/275 277/277
f 275/275 278/278 277/277
f 276/276 279/279 269/269
f 277/277 278/278 280/280
f 278/278 281/281 280/280
f 277/277 280/280 282/282
f 283/283 277/277 282/282
f 283/283 282/282 284/284
f 285/285 283/283 284/284
f 276/276 283/283 285/285
f 285/285 284/284 286/286
f 287/287 276/276 285/285
f 276/276 287/287 279/279
f 288/288 285/285 286/286
f 288/288 286/286 289/289
f 287/287 290/290 279/279
f 270/270 279/279 290/290
f 287/287 291/291 290/290
f 292/292 288/288 289/289
f 291/291 288/288 292/292
f 292/292 289/289 293/293
f 294/294 270/270 290/290
f 294/294 273/273 270/270
f 295/295 273/273 294/294
f 296/296 295/295 294/294
f 291/291 297/297 290/290
f 298/298 295/295 296/296
f 299/299 292/292 293/293
f 299/299 293/293 300/300
f 301/301 299/299 300/300
f 302/302 291/291 292/292
f 291/291 302/302 297/297
f 303/303 299/299 301/301
f 304/304 303/303 301/301
f 302/302 305/305 297/297
f 296/296 297/297 305/305
f 302/302 303/303 305/305
f 306/306 298/298 296/296
f 306/306 296/296 305/305
f 307/307 298/298 306/306
f 303/303 308/308 305/305
f 303/303 304/304 308/308
f 304/304 309/309 308/308
f 310/310 307/307 306/306
f 310/310 308/308 309/309
f 311/311 307/307 310/310
f 312/312 310/310 309/309
f 312/312 311/311 310/310
f 315/315 314/314 313/313
f 316/316 315/315 313/313
f 319/319 318/318 317/317
f 320/320 319/319 317/317
f 323/323 322/322 321/321
f 324/324 323/323 321/321
f 327/327 326/326 325/325
f 328/328 327/327 325/325
f 331/331 330/330 329/329
f 332/332 331/331 329/329
f 335/335 334/334 333/333
f 336/336 335/335 333/333
f 339/339 338/338 337/337
f 340/340 339/339 337/337
f 343/343 342/342 341/341
f 344/344 343/343 341/341
f 347/347 346/346 345/345
f 348/348 347/347 345/345
f 351/351 350/350 349/349
f 352/352 351/351 349/349
f 355/355 354/354 353/353
f 356/356 355/355 353/353
f 359/359 358/358 357/357
f 360/360 359/359 357/357
f 363/363 362/362 361/361
f 364/364 363/363 361/361
f 367/367 366/366 365/365
f 368/368 367/367 365/365
f 371/371 370/370 369/369
f 372/372 371/371 369/369
f 375/375 374/374 373/373
f 376/376 375/375 373/373
f 379/379 378/378 377/377
f 380/380 379/379 377/377
f 383/383 382/382 381/381
f 384/384 383/383 381/381
f 387/387 386/386 385/385
f 388/388 387/387 385/385
f 391/391 390/390 389/389
f 392/392 391/391 389/389
f 395/395 394/394 393/393
f 396/396 395/395 393/393
f 399/399 398/398 397/397
f 400/400 399/399 397/397
f 403/403 402/402 401/401
f 404/404 403/403 401/401
f 407/407 406/406 405/405
f 408/408 407/407 405/405
f 411/411 410/410 409/409
f 412/412 411/411 409/409
f 415/415 414/414 413/413
f 416/416 415/415 413/413
f 419/419 418/418 417/417
f 420/420 419/419 417/417
f 423/423 422/422 421/421
f 424/424 423/423 421/421
f 427/427 426/426 425/425
f 428/428 427/427 425/425
f 431/431 430/430 429/429
f 432/432 431/431 429/429
f 435/435 434/434 433/433
f 436/436 435/435 433/433
f 439/439 438/438 437/437
f 440/440 439/439 437/437
f 443/443 442/442 441/441
f 444/444 443/443 441/441
f 447/447 446/446 445/445
f 448/448 447/447 445/445
f 451/451 450/450 449/449
f 452/452 451/451 449/449
f 455/455 454/454 453/453
f 456/456 455/455 453/453
f 459/459 458/458 457/457
f 460/460 459/459 457/457
f 463/463 462/462 461/461
f 464/464 463/463 461/461
f 467/467 466/466 465/465
f 468/468 467/467 465/465
f 471/471 470/470 469/469
f 472/472 471/471 469/469
f 475/475 474/474 473/473
f 476/476 475/475 473/473
f 479/479 478/478 477/477
f 480/480 479/479 477/477
f 483/483 482/482 481/481
f 484/484 483/483 481/481
f 487/487 486/486 485/485
f 488/488 487/487 485/485
f 491/491 490/490 489/489
f 492/492 491/491 489/489
f 495/495 494/494 493/493
f 496/496 495/495 493/493
f 499/499 498/498 497/497
f 500/500 499/499 497/497
f 503/503 502/502 501/501
f 504/504 503/503 501/501
f 507/507 506/506 505/505
f 508/508 507/507 505/505
f 511/511 510/510 509/509
f 512/512 511/511 509/509
f 515/515 514/514 513/513
f 516/516 515/515 513/513
f 519/519 518/518 517/517
f 520/520 519/519 517/517
f 523/523 522/522 521/521
f 524/524 523/523 521/521
f 527/527 526/526 525/525
f 528/528 527/527 525/525
f 531/531 530/530 529/529
f 532/532 531/531 529/529
f 535/535 534/534 533/533
f 536/536 535/535 533/533
f 539/539 538/538 537/537
f 540/540 539/539 537/537
f 543/543 542/542 541/541
f 544/544 543/543 541/541
f 547/547 546/546 545/545
f 548/548 547/547 545/545
f 551/551 550/550 549/549
f 552/552 551/551 549/549
f 555/555 554/554 553/553
f 556/556 555/555 553/553
f 559/559 558/558 557/557
f 560/560 559/559 557/557
f 563/563 562/562 561/561
f 564/564 563/563 561/561
f 567/567 566/566 565/565
f 568/568 567/567 565/565
f 571/571 570/570 569/569
f 572/572 571/571 569/569
f 575/575 574/574 573/573
f 576/576 575/575 573/573
f 579/579 578/578 577/577
f 580/580 579/579 577/577
f 583/583 582/582 581/581
f 584/584 583/583 581/581
f 587/587 586/586 585/585
f 588/588 587/587 585/585
f 591/591 590/590 589/589
f 592/592 591/591 589/589
f 595/595 594/594 593/593
f 596/596 595/595 593/593
f 599/599 598/598 597/597
f 600/600 599/599 597/597
f 603/603 602/602 601/601
f 604/604 603/603 601/601
f 607/607 606/606 605/605
f 608/608 607/607 605/605
f 611/611 610/610 609/609
f 612/612 611/611 609/609
f 615/615 614/614 613/613
f 616/616 615/615 613/613
f 619/619 618/618 617/617
f 620/620 619/619 617/617
f 623/623 622/622 621/621
f 624/624 623/623 621/621
f 627/627 626/626 625/625
f 628/628 627/627 625/625
f 631/631 630/630 629/629
f 632/632 631/631 629/629
f 635/635 634/634 633/633
f 636/636 635/635 633/633
f 639/639 638/638 637/637
f 640/640 639/639 637/637
f 643/643 642/642 641/641
f 644/644 643/643 641/641
f 647/647 646/646 645/645
f 648/648 647/647 645/645
f 651/651 650/650 649/649
f 652/652 651/651 649/649
f 655/655 654/654 653/653
f 656/656 655/655 653/653
f 659/659 658/658 657/657
f 660/660 659/659 657/657
f 663/663 662/662 661/661
f 664/664 663/663 661/661
f 667/667 666/666 665/665
f 668/668 667/667 665/665
f 671/671 670/670 669/669
f 672/672 671/671 669/669
f 675/675 674/674 673/673
f 676/676 675/675 673/673
f 679/679 678/678 677/677
f 680/680 679/679 677/677
f 683/683 682/682 681/681
f 684/684 683/683 681/681
f 687/687 686/686 685/685
f 688/688 687/687 685/685
f 691/691 690/690 689/689
f 692/692 691/691 689/689
f 695/695 694/694 693/693
f 696/696 695/695 693/693
f 699/699 698/698 697/697
f 700/700 699/699 697/697
f 703/703 702/702 701/701
f 704/704 703/703 701/701
f 707/707 706/706 705/705
f 708/708 707/707 705/705
f 711/711 710/710 709/709
f 712/712 711/711 709/709
f 715/715 714/714 713/713
f 716/716 715/715 713/713
f 719/719 718/718 717/717
f 720/720 719/719 717/717
f 723/723 722/722 721/721
f 724/724 723/723 721/721
f 727/727 726/726 725/725
f 728/728 727/727 725/725
f 731/731 730/730 729/729
f 732/732 731/731 729/729
f 732/732 729/729 733/733
f 734/734 732/732 733/733
f 734/734 733/733 735/735
f 736/736 734/734 735/735
f 736/736 735/735 737/737
f 738/738 736/736 737/737
f 739/739 731/731 732/732
f 740/740 732/732 734/734
f 740/740 739/739 732/732
f 741/741 734/734 736/736
f 741/741 740/740 734/734
f 742/742 736/736 738/738
f 742/742 741/741 736/736
f 739/739 743/743 731/731
f 743/743 744/744 731/731
f 745/745 743/743 739/739
f 746/746 745/745 739/739
f 746/746 739/739 740/740
f 747/747 746/746 740/740
f 747/747 740/740 741/741
f 748/748 746/746 747/747
f 749/749 748/748 747/747
f 750/750 747/747 741/741
f 749/749 747/747 750/750
f 750/750 741/741 742/742
f 751/751 749/749 750/750
f 751/751 750/750 752/752
f 752/752 750/750 742/742
f 753/753 751/751 752/752
f 752/752 742/742 754/754
f 754/754 742/742 738/738
f 754/754 738/738 755/755
f 756/756 754/754 755/755
f 753/753 752/752 757/757
f 757/757 752/752 754/754
f 757/757 754/754 756/756
f 758/758 753/753 757/757
f 759/759 757/757 756/756
f 762/762 761/761 760/760
f 761/761 763/763 760/760
f 761/761 764/764 763/763
f 764/764 765/765 763/763
f 766/766 764/764 761/761
f 767/767 766/766 761/761
f 764/764 768/768 765/765
f 768/768 769/769 765/765
f 768/768 770/770 769/769
f 770/770 771/771 769/769
f 772/772 768/768 764/764
f 766/766 772/772 764/764
f 773/773 772/772 766/766
f 774/774 766/766 767/767
f 774/774 773/773 766/766
f 775/775 774/774 767/767
f 776/776 773/773 774/774
f 776/776 777/777 773/773
f 777/777 778/778 773/773
f 779/779 776/776 774/774
f 779/779 774/774 775/775
f 780/780 779/779 775/775
f 780/780 775/775 781/781
f 782/782 780/780 781/781
f 785/785 784/784 783/783
f 786/786 785/785 783/783
f 786/786 783/783 787/787
f 788/788 786/786 787/787
f 788/788 787/787 789/789
f 790/790 788/788 789/789
f 790/790 789/789 791/791
f 792/792 790/790 791/791
f 793/793 785/785 786/786
f 794/794 786/786 788/788
f 794/794 793/793 786/786
f 795/795 788/788 790/790
f 795/795 794/794 788/788
f 796/796 790/790 792/792
f 796/796 795/795 790/790
f 793/793 797/797 785/785
f 797/797 798/798 785/785
f 799/799 797/797 793/793
f 800/800 799/799 793/793
f 800/800 793/793 794/794
f 801/801 800/800 794/794
f 801/801 794/794 795/795
f 802/802 800/800 801/801
f 803/803 802/802 801/801
f 804/804 801/801 795/795
f 803/803 801/801 804/804
f 804/804 795/795 796/796
f 805/805 803/803 804/804
f 805/805 804/804 806/806
f 806/806 804/804 796/796
f 807/807 805/805 806/806
f 806/806 796/796 808/808
f 808/808 796/796 792/792
f 808/808 792/792 809/809
f 810/810 808/808 809/809
f 807/807 806/806 811/811
f 811/811 806/806 808/808
f 811/811 808/808 810/810
f 812/812 807/807 811/811
f 813/813 811/811 810/810
f 816/816 815/815 814/814
f 815/815 817/817 814/814
f 815/815 818/818 817/817
f 818/818 819/819 817/817
f 820/820 818/818 815/815
f 821/821 820/820 815/815
f 818/818 822/822 819/819
f 822/822 823/823 819/819
f 822/822 824/824 823/823
f 824/824 825/825 823/823
f 826/826 822/822 818/818
f 820/820 826/826 818/818
f 827/827 826/826 820/820
f 828/828 820/820 821/821
f 828/828 827/827 820/820
f 829/829 828/828 821/821
f 830/830 827/827 828/828
f 830/830 831/831 827/827
f 831/831 832/832 827/827
f 833/833 830/830 828/828
f 833/833 828/828 829/829
f 834/834 833/833 829/829
f 834/834 829/829 835/835
f 836/836 834/834 835/835
f 839/839 838/838 837/837
f 838/838 840/840 837/837
f 837/837 840/840 841/841
f 840/840 842/842 841/841
f 841/841 842/842 843/843
f 842/842 844/844 843/843
f 843/843 844/844 845/845
f 844/844 846/846 845/845
f 845/845 846/846 847/847
f 846/846 848/848 847/847
f 847/847 848/848 849/849
f 848/848 850/850 849/849
f 853/853 852/852 851/851
f 852/852 854/854 851/851
f 851/851 854/854 855/855
f 854/854 856/856 855/855
f 859/859 858/858 857/857
f 858/858 860/860 857/857
f 857/857 860/860 861/861
f 860/860 862/862 861/861
f 861/861 862/862 863/863
f 862/862 864/864 863/863
f 863/863 864/864 865/865
f 864/864 866/866 865/865
f 865/865 866/866 867/867
f 866/866 868/868 867/867
f 867/867 868/868 869/869
f 868/868 870/870 869/869
f 873/873 872/872 871/871
f 872/872 874/874 871/871
f 871/871 874/874 875/875
f 874/874 876/876 875/875
f 879/879 878/878 877/877
f 878/878 880/880 877/877
f 877/877 880/880 881/881
f 880/880 882/882 881/881
f 881/881 882/882 883/883
f 882/882 884/884 883/883
f 883/883 884/884 885/885
f 884/884 886/886 885/885
f 878/878 887/887 880/880
f 880/880 888/888 882/882
f 887/887 888/888 880/880
f 882/882 889/889 884/884
f 888/888 889/889 882/882
f 884/884 890/890 886/886
f 889/889 890/890 884/884
f 891/891 887/887 878/878
f 892/892 891/891 878/878
f 891/891 893/893 887/887
f 893/893 894/894 887/887
f 887/887 894/894 888/888
f 894/894 895/895 888/888
f 888/888 895/895 889/889
f 894/894 896/896 895/895
f 896/896 897/897 895/895
f 895/895 898/898 889/889
f 895/895 897/897 898/898
f 889/889 898/898 890/890
f 897/897 899/899 898/898
f 898/898 899/899 900/900
f 898/898 900/900 890/890
f 899/899 901/901 900/900
f 890/890 900/900 902/902
f 890/890 902/902 886/886
f 886/886 902/902 903/903
f 902/902 904/904 903/903
f 900/900 901/901 905/905
f 900/900 905/905 902/902
f 902/902 905/905 904/904
f 901/901 906/906 905/905
f 905/905 907/907 904/904
f 910/910 909/909 908/908
f 911/911 910/910 908/908
f 912/912 910/910 911/911
f 913/913 912/912 911/911
f 912/912 914/914 910/910
f 914/914 915/915 910/910
f 916/916 912/912 913/913
f 917/917 916/916 913/913
f 918/918 916/916 917/917
f 919/919 918/918 917/917
f 916/916 920/920 912/912
f 920/920 914/914 912/912
f 920/920 921/921 914/914
f 914/914 922/922 915/915
f 921/921 922/922 914/914
f 922/922 923/923 915/915
f 921/921 924/924 922/922
f 925/925 924/924 921/921
f 926/926 925/925 921/921
f 924/924 927/927 922/922
f 922/922 927/927 923/923
f 927/927 928/928 923/923
f 923/923 928/928 929/929
f 928/928 930/930 929/929
f 933/933 932/932 931/931
f 932/932 934/934 931/931
f 931/931 934/934 935/935
f 934/934 936/936 935/935
f 935/935 936/936 937/937
f 936/936 938/938 937/937
f 937/937 938/938 939/939
f 938/938 940/940 939/939
f 932/932 941/941 934/934
f 934/934 942/942 936/936
f 941/941 942/942 934/934
f 936/936 943/943 938/938
f 942/942 943/943 936/936
f 938/938 944/944 940/940
f 943/943 944/944 938/938
f 945/945 941/941 932/932
f 946/946 945/945 932/932
f 945/945 947/947 941/941
f 947/947 948/948 941/941
f 941/941 948/948 942/942
f 948/948 949/949 942/942
f 942/942 949/949 943/943
f 948/948 950/950 949/949
f 950/950 951/951 949/949
f 949/949 952/952 943/943
f 949/949 951/951 952/952
f 943/943 952/952 944/944
f 951/951 953/953 952/952
f 952/952 953/953 954/954
f 952/952 954/954 944/944
f 953/953 955/955 954/954
f 944/944 954/954 956/956
f 944/944 956/956 940/940
f 940/940 956/956 957/957
f 956/956 958/958 957/957
f 954/954 955/955 959/959
f 954/954 959/959 956/956
f 956/956 959/959 958/958
f 955/955 960/960 959/959
f 959/959 961/961 958/958
f 964/964 963/963 962/962
f 965/965 964/964 962/962
f 966/966 964/964 965/965
f 967/967 966/966 965/965
f 966/966 968/968 964/964
f 968/968 969/969 964/964
f 970/970 966/966 967/967
f 971/971 970/970 967/967
f 972/972 970/970 971/971
f 973/973 972/972 971/971
f 970/970 974/974 966/966
f 974/974 968/968 966/966
f 974/974 975/975 968/968
f 968/968 976/976 969/969
f 975/975 976/976 968/968
f 976/976 977/977 969/969
f 975/975 978/978 976/976
f 979/979 978/978 975/975
f 980/980 979/979 975/975
f 978/978 981/981 976/976
f 976/976 981/981 977/977
f 981/981 982/982 977/977
f 977/977 982/982 983/983
f 982/982 984/984 983/983
f 987/987 986/986 985/985
f 988/988 987/987 985/985
f 987/987 989/989 986/986
f 988/988 985/985 990/990
f 989/989 991/991 986/986
f 992/992 988/988 990/990
f 989/989 993/993 991/991
f 992/992 990/990 994/994
f 993/993 995/995 991/991
f 996/996 992/992 994/994
f 993/993 997/997 995/995
f 996/996 994/994 998/998
f 997/997 999/999 995/995
f 1000/1000 996/996 998/998
f 997/997 1001/1001 999/999
f 1000/1000 998/998 1002/1002
f 1001/1001 1003/1003 999/999
f 1004/1004 1000/1000 1002/1002
f 1001/1001 1005/1005 1003/1003
f 1004/1004 1002/1002 1006/1006
f 1005/1005 1007/1007 1003/1003
f 1008/1008 1004/1004 1006/1006
f 1005/1005 1009/1009 1007/1007
f 1008/1008 1006/1006 1010/1010
f 1009/1009 1011/1011 1007/1007
f 1012/1012 1008/1008 1010/1010
f 1009/1009 1013/1013 1011/1011
f 1012/1012 1010/1010 1014/1014
f 1013/1013 1015/1015 1011/1011
f 1016/1016 1012/1012 1014/1014
f 1016/1016 1014/1014 1015/1015
f 1013/1013 1016/1016 1015/1015
f 1019/1019 1018/1018 1017/1017
f 1020/1020 1019/1019 1017/1017
f 1019/1019 1020/1020 1021/1021
f 1020/1020 1017/1017 1022/1022
f 1019/1019 1023/1023 1018/1018
f 1023/1023 1019/1019 1021/1021
f 1023/1023 1024/1024 1018/1018
f 1025/1025 1020/1020 1022/1022
f 1020/1020 1025/1025 1021/1021
f 1025/1025 1022/1022 1026/1026
f 1023/1023 1027/1027 1024/1024
f 1027/1027 1023/1023 1021/1021
f 1027/1027 1028/1028 1024/1024
f 1029/1029 1025/1025 1026/1026
f 1025/1025 1029/1029 1021/1021
f 1029/1029 1026/1026 1030/1030
f 1027/1027 1031/1031 1028/1028
f 1031/1031 1027/1027 1021/1021
f 1031/1031 1032/1032 1028/1028
f 1033/1033 1029/1029 1030/1030
f 1029/1029 1033/1033 1021/1021
f 1034/1034 1031/1031 1021/1021
f 1031/1031 1034/1034 1032/1032
f 1033/1033 1035/1035 1021/1021
f 1033/1033 1030/1030 1036/1036
f 1035/1035 1033/1033 1036/1036
f 1034/1034 1037/1037 1032/1032
f 1035/1035 1036/1036 1038/1038
f 1034/1034 1039/1039 1037/1037
f 1039/1039 1034/1034 1021/1021
f 1039/1039 1040/1040 1037/1037
f 1041/1041 1035/1035 1038/1038
f 1035/1035 1041/1041 1021/1021
f 1041/1041 1038/1038 1042/1042
f 1039/1039 1043/1043 1040/1040
f 1043/1043 1039/1039 1021/1021
f 1043/1043 1044/1044 1040/1040
f 1045/1045 1041/1041 1042/1042
f 1041/1041 1045/1045 1021/1021
f 1045/1045 1042/1042 1046/1046
f 1043/1043 1047/1047 1044/1044
f 1047/1047 1043/1043 1021/1021
f 1047/1047 1048/1048 1044/1044
f 1049/1049 1046/1046 1048/1048
f 1049/1049 1045/1045 1046/1046
f 1045/1045 1049/1049 1021/1021
f 1047/1047 1049/1049 1048/1048
f 1049/1049 1047/1047 1021/1021
f 1052/1052 1051/1051 1050/1050
f 1051/1051 1052/1052 1053/1053
f 1054/1054 1052/1052 1050/1050
f 1050/1050 1051/1051 1055/1055
f 1056/1056 1052/1052 1054/1054
f 1052/1052 1056/1056 1053/1053
f 1057/1057 1056/1056 1054/1054
f 1051/1051 1058/1058 1055/1055
f 1058/1058 1051/1051 1053/1053
f 1055/1055 1058/1058 1059/1059
f 1060/1060 1056/1056 1057/1057
f 1056/1056 1060/1060 1053/1053
f 1061/1061 1060/1060 1057/1057
f 1058/1058 1062/1062 1059/1059
f 1062/1062 1058/1058 1053/1053
f 1059/1059 1062/1062 1063/1063
f 1064/1064 1060/1060 1061/1061
f 1060/1060 1064/1064 1053/1053
f 1065/1065 1064/1064 1061/1061
f 1062/1062 1066/1066 1063/1063
f 1066/1066 1062/1062 1053/1053
f 1064/1064 1067/1067 1053/1053
f 1067/1067 1064/1064 1065/1065
f 1068/1068 1066/1066 1053/1053
f 1063/1063 1066/1066 1069/1069
f 1066/1066 1068/1068 1069/1069
f 1070/1070 1067/1067 1065/1065
f 1069/1069 1068/1068 1071/1071
f 1072/1072 1067/1067 1070/1070
f 1067/1067 1072/1072 1053/1053
f 1073/1073 1072/1072 1070/1070
f 1068/1068 1074/1074 1071/1071
f 1074/1074 1068/1068 1053/1053
f 1071/1071 1074/1074 1075/1075
f 1076/1076 1072/1072 1073/1073
f 1072/1072 1076/1076 1053/1053
f 1077/1077 1076/1076 1073/1073
f 1074/1074 1078/1078 1075/1075
f 1078/1078 1074/1074 1053/1053
f 1075/1075 1078/1078 1079/1079
f 1080/1080 1076/1076 1077/1077
f 1076/1076 1080/1080 1053/1053
f 1081/1081 1080/1080 1077/1077
f 1079/1079 1082/1082 1081/1081
f 1078/1078 1082/1082 1079/1079
f 1082/1082 1078/1078 1053/1053
f 1082/1082 1080/1080 1081/1081
f 1080/1080 1082/1082 1053/1053
f 1085/1085 1084/1084 1083/1083
f 1086/1086 1085/1085 1083/1083
f 1083/1083 1084/1084 1087/1087
f 1088/1088 1085/1085 1086/1086
f 1084/1084 1089/1089 1087/1087
f 1090/1090 1088/1088 1086/1086
f 1087/1087 1089/1089 1091/1091
f 1092/1092 1088/1088 1090/1090
f 1089/1089 1093/1093 1091/1091
f 1094/1094 1092/1092 1090/1090
f 1091/1091 1093/1093 1095/1095
f 1096/1096 1092/1092 1094/1094
f 1093/1093 1097/1097 1095/1095
f 1098/1098 1096/1096 1094/1094
f 1095/1095 1097/1097 1099/1099
f 1100/1100 1096/1096 1098/1098
f 1097/1097 1101/1101 1099/1099
f 1102/1102 1100/1100 1098/1098
f 1099/1099 1101/1101 1103/1103
f 1104/1104 1100/1100 1102/1102
f 1101/1101 1105/1105 1103/1103
f 1106/1106 1104/1104 1102/1102
f 1103/1103 1105/1105 1107/1107
f 1108/1108 1104/1104 1106/1106
f 1105/1105 1109/1109 1107/1107
f 1110/1110 1108/1108 1106/1106
f 1107/1107 1109/1109 1111/1111
f 1112/1112 1108/1108 1110/1110
f 1109/1109 1113/1113 1111/1111
f 1114/1114 1112/1112 1110/1110
f 1111/1111 1113/1113 1114/1114
f 1113/1113 1112/1112 1114/1114