mtllib material.mtl
usemtl material_0
v 0.00242580 -1.01600000 0.01699996
v -0.91595930 -1.01600000 0.01699996
v -0.91595930 1.01574200 0.01699997
v 0.00242580 1.01574200 0.01699997
v -0.91595930 -1.01600000 -0.01700028
v 0.00242580 -1.01600000 -0.01700028
v 0.00242580 1.01574200 -0.01700028
v -0.91595930 1.01574200 -0.01700028
v -0.91595930 1.01574200 0.01699997
v -0.91595930 1.01574200 -0.01700028
v 0.00242580 1.01574200 -0.01700028
v 0.00242580 1.01574200 0.01699997
v 0.00242580 1.01574200 0.01699997
v 0.00242580 1.01574200 -0.01700028
v 0.00242580 -1.01600000 -0.01700028
v 0.00242580 -1.01600000 0.01699996
v 0.00242580 -1.01600000 0.01699996
v 0.00242580 -1.01600000 -0.01700028
v -0.91595930 -1.01600000 -0.01700028
v -0.91595930 -1.01600000 0.01699996
v -0.91595930 -1.01600000 0.01699996
v -0.91595930 -1.01600000 -0.01700028
v -0.91595930 1.01574200 -0.01700028
v -0.91595930 1.01574200 0.01699997
vn 0.00000000 0.00000000 1.00000000
vn 0.00000000 0.00000000 1.00000000
vn 0.00000000 0.00000000 1.00000000
vn 0.00000000 0.00000000 1.00000000
vn 0.00000000 0.00000000 -1.00000000
vn 0.00000000 0.00000000 -1.00000000
vn 0.00000000 0.00000000 -1.00000000
vn 0.00000000 0.00000000 -1.00000000
vn 0.00000000 1.00000000 0.00000000
vn 0.00000000 1.00000000 0.00000000
vn 0.00000000 1.00000000 0.00000000
vn 0.00000000 1.00000000 0.00000000
vn 1.00000000 0.00000000 0.00000000
vn 1.00000000 0.00000000 0.00000000
vn 1.00000000 0.00000000 0.00000000
vn 1.00000000 0.00000000 0.00000000
vn 0.00000000 -1.00000000 0.00000000
vn 0.00000000 -1.00000000 0.00000000
vn 0.00000000 -1.00000000 0.00000000
vn 0.00000000 -1.00000000 0.00000000
vn -1.00000000 0.00000000 0.00000000
vn -1.00000000 0.00000000 0.00000000
vn -1.00000000 0.00000000 0.00000000
vn -1.00000000 0.00000000 0.00000000
vt -9.05947500 -1.12156700
vt -10.49445000 -1.12156700
vt -10.49445000 2.05303000
vt -9.05947300 2.05303000
vt -10.03866000 2.09353200
vt -8.60368400 2.09353200
vt -8.60368500 -1.08106400
vt -10.03866000 -1.08106400
vt -9.05942900 0.94631520
vt -9.00630700 0.94631520
vt -9.00630800 -0.48864140
vt -9.05943000 -0.48864140
vt -9.10520300 2.05302500
vt -9.05207700 2.05302500
vt -9.05207700 -1.12156200
vt -9.10520300 -1.12156200
vt -8.98342700 -0.48865460
vt -9.03655200 -0.48865460
vt -9.03655200 0.94632820
vt -8.98342700 0.94632820
vt -9.02919400 -1.12156500
vt -9.08231900 -1.12156500
vt -9.08231900 2.05302800
vt -9.02919400 2.05302800
f 3/3/3 2/2/2 1/1/1
f 4/4/4 3/3/3 1/1/1
f 7/7/7 6/6/6 5/5/5
f 8/8/8 7/7/7 5/5/5
f 11/11/11 10/10/10 9/9/9
f 12/12/12 11/11/11 9/9/9
f 15/15/15 14/14/14 13/13/13
f 16/16/16 15/15/15 13/13/13
f 19/19/19 18/18/18 17/17/17
f 20/20/20 19/19/19 17/17/17
f 23/23/23 22/22/22 21/21/21
f 24/24/24 23/23/23 21/21/21

