mtllib material.mtl
usemtl material_0
v -0.81812350 -0.08621315 0.01686293
v -0.82478180 -0.07206871 0.01972519
v -0.82645600 -0.07374290 0.01686293
v -0.81593630 -0.08530723 0.01972519
v -0.81519760 -0.10092290 0.01686293
v -0.81283000 -0.10092290 0.01972519
v -0.81812350 -0.11563270 0.01686293
v -0.81593630 -0.11653860 0.01972519
v -0.82645600 -0.12810310 0.01686293
v -0.82478180 -0.12977710 0.01972519
v -0.82421660 -0.07150337 0.02340974
v -0.81519760 -0.08500130 0.02340974
v -0.81203060 -0.10092290 0.02340974
v -0.81519760 -0.11684470 0.02340974
v -0.83771430 -0.06248451 0.02340974
v -0.83802020 -0.06322303 0.01972519
v -0.83802020 -0.06322303 0.02729463
v -0.82478180 -0.07206871 0.02729463
v -0.81593630 -0.08530723 0.02729463
v -0.82645600 -0.07374290 0.02966931
v -0.81812350 -0.08621315 0.02966931
v -0.81283000 -0.10092290 0.02729463
v -0.81519760 -0.10092290 0.02966931
v -0.81593630 -0.11653860 0.02729463
v -0.81812350 -0.11563270 0.02966931
v -0.82421660 -0.13034250 0.02340974
v -0.83802030 -0.13862280 0.01972519
v -0.83771440 -0.13936150 0.02340974
v -0.82478180 -0.12977710 0.02729463
v -0.82645600 -0.12810310 0.02966931
v -0.83802030 -0.13862280 0.02729463
v -0.82645600 -0.07374290 0.01686293
v -0.82478180 -0.07206871 0.01972519
v -0.83802020 -0.06322303 0.01972519
v -0.83892630 -0.06541038 0.01686293
v -0.85363600 -0.06011681 0.01972519
v -0.85363600 -0.06248451 0.01686293
v -0.85363600 -0.05931740 0.02340974
v -0.83771430 -0.06248451 0.02340974
v -0.86925180 -0.06322303 0.01972519
v -0.86834590 -0.06541038 0.01686293
v -0.88249040 -0.07206871 0.01972519
v -0.88081620 -0.07374290 0.01686293
v -0.86955780 -0.06248451 0.02340974
v -0.86925180 -0.06322303 0.02729463
v -0.85363600 -0.06011681 0.02729463
v -0.83802020 -0.06322303 0.02729463
v -0.86834590 -0.06541038 0.02966931
v -0.88081620 -0.07374290 0.02966931
v -0.88249040 -0.07206871 0.02729463
v -0.85363600 -0.06248451 0.02966931
v -0.83892630 -0.06541038 0.02966931
v -0.82478180 -0.07206871 0.02729463
v -0.82645600 -0.07374290 0.02966931
v -0.88914860 -0.11563270 0.01686293
v -0.88249040 -0.12977710 0.01972519
v -0.88081620 -0.12810310 0.01686293
v -0.89133600 -0.11653860 0.01972519
v -0.89207460 -0.10092290 0.01686293
v -0.89444210 -0.10092290 0.01972519
v -0.88914860 -0.08621315 0.01686293
v -0.89133600 -0.08530708 0.01972519
v -0.88081620 -0.07374290 0.01686293
v -0.88249040 -0.07206871 0.01972519
v -0.88305560 -0.13034250 0.02340974
v -0.89207460 -0.11684470 0.02340974
v -0.89524160 -0.10092290 0.02340974
v -0.89207460 -0.08500114 0.02340974
v -0.86955780 -0.13936150 0.02340974
v -0.86925180 -0.13862280 0.01972519
v -0.86925180 -0.13862280 0.02729463
v -0.88249040 -0.12977710 0.02729463
v -0.89133600 -0.11653860 0.02729463
v -0.88081620 -0.12810310 0.02966931
v -0.88914860 -0.11563270 0.02966931
v -0.89444210 -0.10092290 0.02729463
v -0.89207460 -0.10092290 0.02966931
v -0.89133600 -0.08530708 0.02729463
v -0.88914860 -0.08621315 0.02966931
v -0.88305560 -0.07150337 0.02340974
v -0.86925180 -0.06322303 0.01972519
v -0.86955780 -0.06248451 0.02340974
v -0.88249040 -0.07206871 0.02729463
v -0.88081620 -0.07374290 0.02966931
v -0.86925180 -0.06322303 0.02729463
v -0.88081620 -0.12810310 0.01686293
v -0.88249040 -0.12977710 0.01972519
v -0.86925180 -0.13862280 0.01972519
v -0.86834590 -0.13643550 0.01686293
v -0.85363610 -0.14172900 0.01972519
v -0.85363610 -0.13936150 0.01686293
v -0.85363610 -0.14252850 0.02340974
v -0.86955780 -0.13936150 0.02340974
v -0.83802030 -0.13862280 0.01972519
v -0.83892630 -0.13643550 0.01686293
v -0.82478180 -0.12977710 0.01972519
v -0.82645600 -0.12810310 0.01686293
v -0.83771440 -0.13936150 0.02340974
v -0.83802030 -0.13862280 0.02729463
v -0.85363610 -0.14172900 0.02729463
v -0.86925180 -0.13862280 0.02729463
v -0.83892630 -0.13643550 0.02966931
v -0.82645600 -0.12810310 0.02966931
v -0.82478180 -0.12977710 0.02729463
v -0.85363610 -0.13936150 0.02966931
v -0.86834590 -0.13643550 0.02966931
v -0.88249040 -0.12977710 0.02729463
v -0.88081620 -0.12810310 0.02966931
v -0.84556650 -0.08144142 0.03653947
v -0.85363610 -0.07866432 0.03376463
v -0.84511810 -0.08035865 0.03376463
v -0.85363610 -0.07983620 0.03653947
v -0.86215410 -0.08035865 0.03376463
v -0.86170560 -0.08144142 0.03653947
v -0.86170560 -0.08144142 0.04171738
v -0.85363610 -0.07983620 0.04171738
v -0.84556650 -0.08144142 0.04171738
v -0.85363610 -0.08079155 0.04265432
v -0.84593210 -0.08232399 0.04265432
v -0.83940100 -0.08668785 0.04265432
v -0.83872550 -0.08601234 0.04171738
v -0.86134010 -0.08232399 0.04265432
v -0.86854690 -0.08601234 0.04171738
v -0.86787140 -0.08668785 0.04265432
v -0.86170560 -0.08144142 0.03653947
v -0.86937550 -0.08518364 0.03376463
v -0.86215410 -0.08035865 0.03376463
v -0.86854690 -0.08601234 0.03653947
v -0.87420040 -0.09240486 0.03376463
v -0.86854690 -0.08601234 0.04171738
v -0.86170560 -0.08144142 0.04171738
v -0.87311780 -0.09285332 0.03653947
v -0.87589480 -0.10092290 0.03376463
v -0.87311780 -0.09285332 0.04171738
v -0.86787140 -0.08668785 0.04265432
v -0.87223520 -0.09321892 0.04265432
v -0.87472290 -0.10092290 0.04171738
v -0.87376760 -0.10092290 0.04265432
v -0.87472290 -0.10092290 0.03653947
v -0.87420040 -0.10944100 0.03376463
v -0.87311780 -0.10899250 0.04171738
v -0.87223520 -0.10862690 0.04265432
v -0.87311780 -0.10899250 0.03653947
v -0.86937550 -0.11666220 0.03376463
v -0.86854690 -0.11583350 0.04171738
v -0.86787140 -0.11515800 0.04265432
v -0.86854690 -0.11583350 0.03653947
v -0.86215410 -0.12148720 0.03376463
v -0.86170560 -0.12040460 0.04171738
v -0.86170560 -0.12040460 0.03653947
v -0.86170560 -0.12040460 0.03653947
v -0.85363610 -0.12318150 0.03376463
v -0.86215410 -0.12148720 0.03376463
v -0.85363610 -0.12200970 0.03653947
v -0.84511810 -0.12148720 0.03376463
v -0.84556650 -0.12040460 0.03653947
v -0.84556650 -0.12040460 0.04171738
v -0.85363610 -0.12200970 0.04171738
v -0.86170560 -0.12040460 0.04171738
v -0.85363610 -0.12105430 0.04265432
v -0.86134010 -0.11952200 0.04265432
v -0.86787140 -0.11515800 0.04265432
v -0.86854690 -0.11583350 0.04171738
v -0.84593210 -0.11952200 0.04265432
v -0.83872550 -0.11583350 0.04171738
v -0.83940100 -0.11515800 0.04265432
v -0.84556650 -0.12040460 0.03653947
v -0.83789690 -0.11666220 0.03376463
v -0.84511810 -0.12148720 0.03376463
v -0.83872550 -0.11583350 0.03653947
v -0.83307170 -0.10944100 0.03376463
v -0.83872550 -0.11583350 0.04171738
v -0.84556650 -0.12040460 0.04171738
v -0.83415450 -0.10899250 0.03653947
v -0.83137740 -0.10092290 0.03376463
v -0.83415450 -0.10899250 0.04171738
v -0.83940100 -0.11515800 0.04265432
v -0.83503710 -0.10862690 0.04265432
v -0.83254930 -0.10092290 0.04171738
v -0.83350460 -0.10092290 0.04265432
v -0.83254930 -0.10092290 0.03653947
v -0.83307170 -0.09240486 0.03376463
v -0.83415450 -0.09285332 0.04171738
v -0.83503710 -0.09321892 0.04265432
v -0.83415450 -0.09285332 0.03653947
v -0.83789690 -0.08518379 0.03376463
v -0.83872550 -0.08601234 0.04171738
v -0.83940100 -0.08668785 0.04265432
v -0.83872550 -0.08601234 0.03653947
v -0.84511810 -0.08035865 0.03376463
v -0.84556650 -0.08144142 0.04171738
v -0.84556650 -0.08144142 0.03653947
v -0.81812350 -0.08620155 -0.01668497
v -0.82645600 -0.07373130 -0.01667635
v -0.82478180 -0.07205513 -0.01953744
v -0.81593630 -0.08529350 -0.01954659
v -0.81519760 -0.10091130 -0.01669513
v -0.81283000 -0.10090930 -0.01955738
v -0.81812350 -0.11562110 -0.01670530
v -0.81593630 -0.11652500 -0.01956818
v -0.82645600 -0.12809140 -0.01671392
v -0.82478180 -0.12976360 -0.01957733
v -0.82421660 -0.07148720 -0.02322160
v -0.81519760 -0.08498512 -0.02323093
v -0.81203060 -0.10090680 -0.02324194
v -0.81519760 -0.11682870 -0.02325294
v -0.83771430 -0.06246834 -0.02321537
v -0.83802020 -0.06320946 -0.01953133
v -0.83802020 -0.06320427 -0.02710077
v -0.82478180 -0.07204994 -0.02710688
v -0.81593630 -0.08528832 -0.02711603
v -0.82645600 -0.07372246 -0.02948273
v -0.81812350 -0.08619270 -0.02949135
v -0.81283000 -0.10090420 -0.02712683
v -0.81519760 -0.10090250 -0.02950151
v -0.81593630 -0.11651980 -0.02713762
v -0.81812350 -0.11561230 -0.02951168
v -0.82421660 -0.13032650 -0.02326227
v -0.83802030 -0.13860920 -0.01958344
v -0.83771440 -0.13934530 -0.02326850
v -0.82478180 -0.12975840 -0.02714677
v -0.82645600 -0.12808250 -0.02952030
v -0.83802030 -0.13860400 -0.02715288
v -0.82645600 -0.07373130 -0.01667635
v -0.83802020 -0.06320946 -0.01953133
v -0.82478180 -0.07205513 -0.01953744
v -0.83892630 -0.06539879 -0.01667059
v -0.85363600 -0.06010322 -0.01952918
v -0.85363600 -0.06247291 -0.01666857
v -0.85363600 -0.05930122 -0.02321318
v -0.83771430 -0.06246834 -0.02321537
v -0.86925180 -0.06320946 -0.01953133
v -0.86834590 -0.06539879 -0.01667059
v -0.88249040 -0.07205497 -0.01953744
v -0.88081620 -0.07373130 -0.01667635
v -0.86955780 -0.06246834 -0.02321537
v -0.86925180 -0.06320427 -0.02710077
v -0.85363600 -0.06009804 -0.02709862
v -0.83802020 -0.06320427 -0.02710077
v -0.86834590 -0.06538994 -0.02947697
v -0.88081620 -0.07372246 -0.02948273
v -0.88249040 -0.07204979 -0.02710688
v -0.85363600 -0.06246407 -0.02947495
v -0.83892630 -0.06538994 -0.02947697
v -0.82478180 -0.07204994 -0.02710688
v -0.82645600 -0.07372246 -0.02948273
v -0.88914860 -0.11562110 -0.01670530
v -0.88081620 -0.12809140 -0.01671392
v -0.88249040 -0.12976360 -0.01957733
v -0.89133600 -0.11652500 -0.01956818
v -0.89207460 -0.10091130 -0.01669513
v -0.89444210 -0.10090930 -0.01955738
v -0.88914860 -0.08620155 -0.01668497
v -0.89133600 -0.08529350 -0.01954659
v -0.88081620 -0.07373130 -0.01667635
v -0.88249040 -0.07205497 -0.01953744
v -0.88305560 -0.13032650 -0.02326227
v -0.89207460 -0.11682850 -0.02325294
v -0.89524160 -0.10090680 -0.02324194
v -0.89207460 -0.08498497 -0.02323093
v -0.86955780 -0.13934530 -0.02326850
v -0.86925180 -0.13860920 -0.01958344
v -0.86925180 -0.13860400 -0.02715288
v -0.88249040 -0.12975840 -0.02714677
v -0.89133600 -0.11651980 -0.02713762
v -0.88081620 -0.12808250 -0.02952030
v -0.88914860 -0.11561230 -0.02951168
v -0.89444210 -0.10090420 -0.02712683
v -0.89207460 -0.10090250 -0.02950151
v -0.89133600 -0.08528832 -0.02711603
v -0.88914860 -0.08619270 -0.02949135
v -0.88305560 -0.07148720 -0.02322160
v -0.86925180 -0.06320946 -0.01953133
v -0.86955780 -0.06246834 -0.02321537
v -0.88249040 -0.07204979 -0.02710688
v -0.88081620 -0.07372246 -0.02948273
v -0.86925180 -0.06320427 -0.02710077
v -0.88081620 -0.12809140 -0.01671392
v -0.86925180 -0.13860920 -0.01958344
v -0.88249040 -0.12976360 -0.01957733
v -0.86834590 -0.13642390 -0.01671968
v -0.85363610 -0.14171550 -0.01958559
v -0.85363610 -0.13934990 -0.01672170
v -0.85363610 -0.14251230 -0.02327069
v -0.86955780 -0.13934530 -0.02326850
v -0.83802030 -0.13860920 -0.01958344
v -0.83892630 -0.13642390 -0.01671968
v -0.82478180 -0.12976360 -0.01957733
v -0.82645600 -0.12809140 -0.01671392
v -0.83771440 -0.13934530 -0.02326850
v -0.83802030 -0.13860400 -0.02715288
v -0.85363610 -0.14171030 -0.02715503
v -0.86925180 -0.13860400 -0.02715288
v -0.83892630 -0.13641500 -0.02952606
v -0.82645600 -0.12808250 -0.02952030
v -0.82478180 -0.12975840 -0.02714677
v -0.85363610 -0.13934100 -0.02952808
v -0.86834590 -0.13641500 -0.02952606
v -0.88249040 -0.12975840 -0.02714677
v -0.88081620 -0.12808250 -0.02952030
v -0.84556650 -0.08141624 -0.03635820
v -0.84511810 -0.08033531 -0.03358262
v -0.85363610 -0.07864098 -0.03358144
v -0.85363610 -0.07981102 -0.03635709
v -0.86215410 -0.08033531 -0.03358262
v -0.86170560 -0.08141624 -0.03635820
v -0.86170560 -0.08141258 -0.04153610
v -0.85363610 -0.07980751 -0.04153499
v -0.84556650 -0.08141258 -0.04153610
v -0.85363610 -0.08076210 -0.04247260
v -0.84593210 -0.08229454 -0.04247366
v -0.83940100 -0.08665840 -0.04247668
v -0.83872550 -0.08598366 -0.04153926
v -0.86134010 -0.08229454 -0.04247366
v -0.86854690 -0.08598350 -0.04153926
v -0.86787140 -0.08665840 -0.04247668
v -0.86170560 -0.08141624 -0.03635820
v -0.86215410 -0.08033531 -0.03358262
v -0.86937550 -0.08516044 -0.03358595
v -0.86854690 -0.08598717 -0.03636136
v -0.87420040 -0.09238151 -0.03359094
v -0.86854690 -0.08598350 -0.04153926
v -0.86170560 -0.08141258 -0.04153610
v -0.87311780 -0.09282814 -0.03636609
v -0.87589480 -0.10089970 -0.03359683
v -0.87311780 -0.09282463 -0.04154399
v -0.86787140 -0.08665840 -0.04247668
v -0.87223520 -0.09318946 -0.04248119
v -0.87472290 -0.10089410 -0.04154957
v -0.87376760 -0.10089350 -0.04248651
v -0.87472290 -0.10089780 -0.03637167
v -0.87420040 -0.10941760 -0.03360271
v -0.87311780 -0.10896370 -0.04155515
v -0.87223520 -0.10859750 -0.04249184
v -0.87311780 -0.10896720 -0.03637725
v -0.86937550 -0.11663890 -0.03360771
v -0.86854690 -0.11580470 -0.04155988
v -0.86787140 -0.11512860 -0.04249636
v -0.86854690 -0.11580830 -0.03638197
v -0.86215410 -0.12146400 -0.03361104
v -0.86170560 -0.12037570 -0.04156303
v -0.86170560 -0.12037930 -0.03638513
v -0.86170560 -0.12037930 -0.03638513
v -0.86215410 -0.12146400 -0.03361104
v -0.85363610 -0.12315830 -0.03361221
v -0.85363610 -0.12198450 -0.03638624
v -0.84511810 -0.12146400 -0.03361104
v -0.84556650 -0.12037930 -0.03638513
v -0.84556650 -0.12037570 -0.04156303
v -0.85363610 -0.12198080 -0.04156414
v -0.86170560 -0.12037570 -0.04156303
v -0.85363610 -0.12102490 -0.04250043
v -0.86134010 -0.11949260 -0.04249937
v -0.86787140 -0.11512860 -0.04249636
v -0.86854690 -0.11580470 -0.04155988
v -0.84593210 -0.11949260 -0.04249937
v -0.83872550 -0.11580470 -0.04155988
v -0.83940100 -0.11512860 -0.04249636
v -0.84556650 -0.12037930 -0.03638513
v -0.84511810 -0.12146400 -0.03361104
v -0.83789690 -0.11663890 -0.03360771
v -0.83872550 -0.11580830 -0.03638197
v -0.83307170 -0.10941760 -0.03360271
v -0.83872550 -0.11580470 -0.04155988
v -0.84556650 -0.12037570 -0.04156303
v -0.83415450 -0.10896720 -0.03637725
v -0.83137740 -0.10089970 -0.03359683
v -0.83415450 -0.10896370 -0.04155515
v -0.83940100 -0.11512860 -0.04249636
v -0.83503710 -0.10859750 -0.04249184
v -0.83254930 -0.10089410 -0.04154957
v -0.83350460 -0.10089350 -0.04248651
v -0.83254930 -0.10089780 -0.03637167
v -0.83307170 -0.09238151 -0.03359094
v -0.83415450 -0.09282463 -0.04154399
v -0.83503710 -0.09318946 -0.04248119
v -0.83415450 -0.09282814 -0.03636609
v -0.83789690 -0.08516044 -0.03358595
v -0.83872550 -0.08598366 -0.04153926
v -0.83940100 -0.08665840 -0.04247668
v -0.83872550 -0.08598717 -0.03636136
v -0.84511810 -0.08033531 -0.03358262
v -0.84556650 -0.08141258 -0.04153610
v -0.84556650 -0.08141624 -0.03635820
v -0.83045790 -0.09132225 0.03261525
v -0.83137740 -0.10092290 0.03376463
v -0.83307170 -0.09240486 0.03376463
v -0.82854820 -0.10092290 0.03261525
v -0.83307170 -0.10944100 0.03376463
v -0.83589630 -0.08318321 0.03261525
v -0.83789690 -0.08518379 0.03376463
v -0.83045790 -0.11052360 0.03261525
v -0.83789690 -0.11666220 0.03376463
v -0.84403530 -0.07774483 0.03261525
v -0.84511810 -0.08035865 0.03376463
v -0.83589630 -0.11866280 0.03261525
v -0.84511810 -0.12148720 0.03376463
v -0.85363610 -0.07583519 0.03261525
v -0.85363610 -0.07866432 0.03376463
v -0.84403540 -0.12410100 0.03261525
v -0.85363610 -0.12318150 0.03376463
v -0.86323680 -0.07774483 0.03261525
v -0.86215410 -0.08035865 0.03376463
v -0.85363610 -0.12601080 0.03261525
v -0.86215410 -0.12148720 0.03376463
v -0.87137600 -0.08318306 0.03261525
v -0.86937550 -0.08518364 0.03376463
v -0.86323680 -0.12410100 0.03261525
v -0.86937550 -0.11666220 0.03376463
v -0.87681430 -0.09132225 0.03261525
v -0.87420040 -0.09240486 0.03376463
v -0.87137600 -0.11866280 0.03261525
v -0.87420040 -0.10944100 0.03376463
v -0.87872390 -0.10092290 0.03261525
v -0.87589480 -0.10092290 0.03376463
v -0.87681430 -0.11052360 0.03261525
v -0.88081620 -0.07374290 0.02966931
v -0.86834590 -0.06541038 0.02966931
v -0.88914860 -0.08621315 0.02966931
v -0.89207460 -0.10092290 0.02966931
v -0.85363600 -0.06248451 0.02966931
v -0.88914860 -0.11563270 0.02966931
v -0.88081620 -0.12810310 0.02966931
v -0.83892630 -0.06541038 0.02966931
v -0.86834590 -0.13643550 0.02966931
v -0.82645600 -0.07374290 0.02966931
v -0.85363610 -0.13936150 0.02966931
v -0.81812350 -0.08621315 0.02966931
v -0.83892630 -0.13643550 0.02966931
v -0.81519760 -0.10092290 0.02966931
v -0.82645600 -0.12810310 0.02966931
v -0.81812350 -0.11563270 0.02966931
v -0.83503710 -0.09321892 0.04265432
v -0.83709670 -0.09407204 0.04265432
v -0.84097740 -0.08826423 0.04265432
v -0.83940100 -0.08668785 0.04265432
v -0.83350460 -0.10092290 0.04265432
v -0.84678520 -0.08438362 0.04265432
v -0.83573400 -0.10092290 0.04265432
v -0.84593210 -0.08232399 0.04265432
v -0.83503710 -0.10862690 0.04265432
v -0.85363610 -0.08302086 0.04265432
v -0.83709670 -0.10777380 0.04265432
v -0.85363610 -0.08079155 0.04265432
v -0.83940100 -0.11515800 0.04265432
v -0.86048690 -0.08438362 0.04265432
v -0.84097740 -0.11358160 0.04265432
v -0.86134010 -0.08232399 0.04265432
v -0.84593210 -0.11952200 0.04265432
v -0.86629500 -0.08826423 0.04265432
v -0.84678520 -0.11746220 0.04265432
v -0.86787140 -0.08668785 0.04265432
v -0.85363610 -0.12105430 0.04265432
v -0.87017560 -0.09407204 0.04265432
v -0.85363610 -0.11882500 0.04265432
v -0.87223520 -0.09321892 0.04265432
v -0.86134010 -0.11952200 0.04265432
v -0.87153820 -0.10092290 0.04265432
v -0.86048690 -0.11746220 0.04265432
v -0.87376760 -0.10092290 0.04265432
v -0.86787140 -0.11515800 0.04265432
v -0.87017560 -0.10777380 0.04265432
v -0.86629500 -0.11358160 0.04265432
v -0.87223520 -0.10862690 0.04265432
v -0.83045790 -0.09129967 -0.03244082
v -0.83307170 -0.09238151 -0.03359094
v -0.83137740 -0.10089970 -0.03359683
v -0.82854820 -0.10090050 -0.03244745
v -0.83307170 -0.10941760 -0.03360271
v -0.83589630 -0.08316062 -0.03243519
v -0.83789690 -0.08516044 -0.03358595
v -0.83045790 -0.11050120 -0.03245408
v -0.83789690 -0.11663890 -0.03360771
v -0.84403530 -0.07772239 -0.03243143
v -0.84511810 -0.08033531 -0.03358262
v -0.83589630 -0.11864020 -0.03245971
v -0.84511810 -0.12146400 -0.03361104
v -0.85363610 -0.07581261 -0.03243011
v -0.85363610 -0.07864098 -0.03358144
v -0.84403540 -0.12407840 -0.03246347
v -0.85363610 -0.12315830 -0.03361221
v -0.86323680 -0.07772239 -0.03243143
v -0.86215410 -0.08033531 -0.03358262
v -0.85363610 -0.12598820 -0.03246479
v -0.86215410 -0.12146400 -0.03361104
v -0.87137600 -0.08316062 -0.03243519
v -0.86937550 -0.08516044 -0.03358595
v -0.86323680 -0.12407840 -0.03246347
v -0.86937550 -0.11663890 -0.03360771
v -0.87681430 -0.09129967 -0.03244082
v -0.87420040 -0.09238151 -0.03359094
v -0.87137600 -0.11864020 -0.03245971
v -0.87420040 -0.10941760 -0.03360271
v -0.87872390 -0.10090050 -0.03244745
v -0.87589480 -0.10089970 -0.03359683
v -0.87681430 -0.11050120 -0.03245408
v -0.88081620 -0.07372246 -0.02948273
v -0.86834590 -0.06538994 -0.02947697
v -0.88914860 -0.08619270 -0.02949135
v -0.89207460 -0.10090250 -0.02950151
v -0.85363600 -0.06246407 -0.02947495
v -0.88914860 -0.11561230 -0.02951168
v -0.88081620 -0.12808250 -0.02952030
v -0.83892630 -0.06538994 -0.02947697
v -0.86834590 -0.13641500 -0.02952606
v -0.82645600 -0.07372246 -0.02948273
v -0.85363610 -0.13934100 -0.02952808
v -0.81812350 -0.08619270 -0.02949135
v -0.83892630 -0.13641500 -0.02952606
v -0.81519760 -0.10090250 -0.02950151
v -0.82645600 -0.12808250 -0.02952030
v -0.81812350 -0.11561230 -0.02951168
v -0.83503710 -0.09318946 -0.04248119
v -0.84097740 -0.08823478 -0.04247777
v -0.83709670 -0.09404258 -0.04248178
v -0.83940100 -0.08665840 -0.04247668
v -0.83350460 -0.10089350 -0.04248651
v -0.84678520 -0.08435417 -0.04247509
v -0.83573400 -0.10089350 -0.04248651
v -0.84593210 -0.08229454 -0.04247366
v -0.83503710 -0.10859750 -0.04249184
v -0.85363610 -0.08299141 -0.04247414
v -0.83709670 -0.10774440 -0.04249125
v -0.85363610 -0.08076210 -0.04247260
v -0.83940100 -0.11512860 -0.04249636
v -0.86048690 -0.08435417 -0.04247509
v -0.84097740 -0.11355220 -0.04249527
v -0.86134010 -0.08229454 -0.04247366
v -0.84593210 -0.11949260 -0.04249937
v -0.86629500 -0.08823478 -0.04247777
v -0.84678520 -0.11743280 -0.04249795
v -0.86787140 -0.08665840 -0.04247668
v -0.85363610 -0.12102490 -0.04250043
v -0.87017560 -0.09404258 -0.04248178
v -0.85363610 -0.11879550 -0.04249889
v -0.87223520 -0.09318946 -0.04248119
v -0.86134010 -0.11949260 -0.04249937
v -0.87153820 -0.10089350 -0.04248651
v -0.86048690 -0.11743280 -0.04249795
v -0.87376760 -0.10089350 -0.04248651
v -0.86787140 -0.11512860 -0.04249636
v -0.87017560 -0.10774440 -0.04249125
v -0.86629500 -0.11355220 -0.04249527
v -0.87223520 -0.10859750 -0.04249184
vn 0.71189930 0.29488180 -0.63737290
vn 0.64196730 0.64196110 -0.41924210
vn 0.54486170 0.54485740 -0.63738220
vn 0.83876610 0.34742870 -0.41924300
vn 0.77055500 -0.00000033 -0.63737350
vn 0.90787240 -0.00000020 -0.41924660
vn 0.71190400 -0.29488360 -0.63736680
vn 0.83876650 -0.34742590 -0.41924470
vn 0.54486880 -0.54486900 -0.63736620
vn 0.64196600 -0.64196070 -0.41924480
vn 0.70710550 0.70710810 0.00014438
vn 0.92387900 0.38268460 0.00014517
vn 1.00000000 0.00000000 0.00014270
vn 0.92387740 -0.38268860 0.00014194
vn 0.38268660 0.92387820 0.00014117
vn 0.34742890 0.83876350 -0.41924800
vn 0.34533920 0.83371670 0.43087960
vn 0.63810340 0.63809730 0.43087800
vn 0.83371630 0.34533700 0.43088200
vn 0.25634080 0.25633960 0.93197610
vn 0.33492520 0.13873140 0.93197570
vn 0.90240740 0.00000000 0.43088380
vn 0.36252010 0.00000000 0.93197600
vn 0.83371780 -0.34533480 0.43088120
vn 0.33492540 -0.13873110 0.93197560
vn 0.70710530 -0.70710810 0.00013798
vn 0.34743010 -0.83876500 -0.41924410
vn 0.38268430 -0.92387920 0.00013800
vn 0.63810390 -0.63809750 0.43087720
vn 0.25634150 -0.25634150 0.93197540
vn 0.34533960 -0.83371840 0.43087600
vn 0.54486170 0.54485740 -0.63738220
vn 0.64196730 0.64196110 -0.41924210
vn 0.34742890 0.83876350 -0.41924800
vn 0.29487300 0.71188780 -0.63738980
vn 0.00000025 0.90787320 -0.41924490
vn 0.00000069 0.77054560 -0.63738480
vn 0.00000000 1.00000000 0.00014117
vn 0.38268660 0.92387820 0.00014117
vn -0.34742840 0.83876600 -0.41924350
vn -0.29487510 0.71188950 -0.63738670
vn -0.64196150 0.64196330 -0.41924740
vn -0.54485780 0.54485670 -0.63738620
vn -0.38268470 0.92387890 0.00014422
vn -0.34533750 0.83371760 0.43087940
vn -0.00000037 0.90240990 0.43087860
vn 0.34533920 0.83371670 0.43087960
vn -0.13872980 0.33492460 0.93197620
vn -0.25634090 0.25634100 0.93197570
vn -0.63809770 0.63809930 0.43088350
vn 0.00000000 0.36251660 0.93197730
vn 0.13872990 0.33492330 0.93197660
vn 0.63810340 0.63809730 0.43087800
vn 0.25634080 0.25633960 0.93197610
vn -0.71189790 -0.29488040 -0.63737490
vn -0.64196300 -0.64196030 -0.41924970
vn -0.54486390 -0.54486570 -0.63737330
vn -0.83876620 -0.34742250 -0.41924790
vn -0.77055080 0.00000117 -0.63737850
vn -0.90787180 0.00000045 -0.41924800
vn -0.71189580 0.29487770 -0.63737860
vn -0.83876370 0.34742760 -0.41924870
vn -0.54485780 0.54485670 -0.63738620
vn -0.64196150 0.64196330 -0.41924740
vn -0.70710710 -0.70710640 0.00014121
vn -0.92387820 -0.38268660 0.00014116
vn -1.00000000 -0.00000010 0.00014037
vn -0.92388010 0.38268180 0.00014042
vn -0.38268310 -0.92387960 0.00014122
vn -0.34742900 -0.83876400 -0.41924690
vn -0.34533780 -0.83371630 0.43088160
vn -0.63810000 -0.63809640 0.43088440
vn -0.83371810 -0.34533190 0.43088280
vn -0.25634200 -0.25634270 0.93197490
vn -0.33492750 -0.13873200 0.93197490
vn -0.90240780 0.00000037 0.43088300
vn -0.36252100 0.00000034 0.93197560
vn -0.83371580 0.34533660 0.43088360
vn -0.33492710 0.13873130 0.93197500
vn -0.70710460 0.70710890 0.00014423
vn -0.34742840 0.83876600 -0.41924350
vn -0.38268470 0.92387890 0.00014422
vn -0.63809770 0.63809930 0.43088350
vn -0.25634090 0.25634100 0.93197570
vn -0.34533750 0.83371760 0.43087940
vn -0.54486390 -0.54486570 -0.63737330
vn -0.64196300 -0.64196030 -0.41924970
vn -0.34742900 -0.83876400 -0.41924690
vn -0.29487780 -0.71189550 -0.63737890
vn 0.00000000 -0.90787440 -0.41924220
vn 0.00000000 -0.77054800 -0.63738200
vn 0.00000000 -1.00000000 0.00014117
vn -0.38268310 -0.92387960 0.00014122
vn 0.34743010 -0.83876500 -0.41924410
vn 0.29487880 -0.71189730 -0.63737640
vn 0.64196600 -0.64196070 -0.41924480
vn 0.54486880 -0.54486900 -0.63736620
vn 0.38268430 -0.92387920 0.00013800
vn 0.34533960 -0.83371840 0.43087600
vn 0.00000000 -0.90241080 0.43087670
vn -0.34533780 -0.83371630 0.43088160
vn 0.13873040 -0.33492460 0.93197610
vn 0.25634150 -0.25634150 0.93197540
vn 0.63810390 -0.63809750 0.43087720
vn 0.00000000 -0.36251930 0.93197630
vn -0.13872990 -0.33492410 0.93197630
vn -0.63810000 -0.63809640 0.43088440
vn -0.25634200 -0.25634270 0.93197490
vn 0.37819040 0.91303280 0.15278470
vn 0.00000000 0.66301500 0.74860610
vn 0.25372220 0.61254070 0.74861150
vn 0.00000000 0.98825900 0.15278790
vn -0.25371860 0.61254630 0.74860790
vn -0.37818480 0.91303530 0.15278330
vn -0.37890380 0.91477170 0.14008730
vn 0.00000019 0.99014030 0.14007950
vn 0.37890950 0.91477010 0.14008290
vn 0.00000040 0.33808110 0.94111700
vn 0.12937550 0.31234620 0.94111730
vn 0.23905350 0.23905790 0.94111890
vn 0.70013010 0.70013890 0.14008340
vn -0.12937400 0.31234110 0.94111930
vn -0.70012520 0.70014210 0.14009230
vn -0.23905400 0.23906130 0.94111790
vn -0.37818480 0.91303530 0.15278330
vn -0.46881160 0.46882220 0.74861310
vn -0.25371860 0.61254630 0.74860790
vn -0.69879940 0.69881240 0.15277640
vn -0.61254360 0.25371890 0.74861010
vn -0.70012520 0.70014210 0.14009230
vn -0.37890380 0.91477170 0.14008730
vn -0.91303880 0.37818020 0.15277380
vn -0.66301550 -0.00000036 0.74860570
vn -0.91477360 0.37889850 0.14009010
vn -0.23905400 0.23906130 0.94111790
vn -0.31234250 0.12937250 0.94111900
vn -0.99013900 0.00000000 0.14008880
vn -0.33806910 0.00000000 0.94112130
vn -0.98826100 0.00000000 0.15277480
vn -0.61254500 -0.25371910 0.74860890
vn -0.91477380 -0.37889840 0.14008860
vn -0.31234160 -0.12937190 0.94111940
vn -0.91303870 -0.37818040 0.15277410
vn -0.46881530 -0.46882370 0.74860980
vn -0.70013020 -0.70013790 0.14008780
vn -0.23905190 -0.23905680 0.94111960
vn -0.69880340 -0.69880860 0.15277590
vn -0.25371950 -0.61254520 0.74860850
vn -0.37890350 -0.91477140 0.14009070
vn -0.37818470 -0.91303630 0.15277730
vn -0.37818470 -0.91303630 0.15277730
vn -0.00000050 -0.66300900 0.74861150
vn -0.25371950 -0.61254520 0.74860850
vn -0.00000012 -0.98826080 0.15277590
vn 0.25372150 -0.61254320 0.74860950
vn 0.37818900 -0.91303490 0.15277610
vn 0.37890940 -0.91477050 0.14008060
vn -0.00000015 -0.99013910 0.14008800
vn -0.37890350 -0.91477140 0.14009070
vn -0.00000024 -0.33806450 0.94112290
vn -0.12937150 -0.31233740 0.94112070
vn -0.23905190 -0.23905680 0.94111960
vn -0.70013020 -0.70013790 0.14008780
vn 0.12937340 -0.31233870 0.94112010
vn 0.70013370 -0.70013480 0.14008570
vn 0.23905360 -0.23905390 0.94111980
vn 0.37818900 -0.91303490 0.15277610
vn 0.46881690 -0.46882030 0.74861090
vn 0.25372150 -0.61254320 0.74860950
vn 0.69880500 -0.69880620 0.15277950
vn 0.61254390 -0.25372460 0.74860790
vn 0.70013370 -0.70013480 0.14008570
vn 0.37890940 -0.91477050 0.14008060
vn 0.91303310 -0.37819090 0.15278160
vn 0.66301290 -0.00000027 0.74860790
vn 0.91476920 -0.37890970 0.14008850
vn 0.23905360 -0.23905390 0.94111980
vn 0.31234050 -0.12937470 0.94111940
vn 0.99013940 -0.00000017 0.14008580
vn 0.33807440 -0.00000043 0.94111940
vn 0.98826010 0.00000000 0.15278050
vn 0.61254420 0.25372690 0.74860680
vn 0.91476980 0.37891000 0.14008390
vn 0.31233950 0.12937460 0.94111980
vn 0.91303310 0.37819170 0.15277940
vn 0.46882050 0.46882110 0.74860820
vn 0.70013010 0.70013890 0.14008340
vn 0.23905350 0.23905790 0.94111890
vn 0.69880100 0.69880990 0.15278000
vn 0.25372220 0.61254070 0.74861150
vn 0.37890950 0.91477010 0.14008290
vn 0.37819040 0.91303280 0.15278470
vn 0.71189650 0.29443600 0.63758200
vn 0.54486050 0.54441640 0.63776000
vn 0.64196720 0.64167180 0.41968480
vn 0.83876510 0.34714180 0.41948270
vn 0.77055510 -0.00044035 0.63737330
vn 0.90787170 -0.00029054 0.41924800
vn 0.71190180 -0.29532390 0.63716530
vn 0.83876450 -0.34771250 0.41901100
vn 0.54486570 -0.54530160 0.63699900
vn 0.64196280 -0.64224750 0.41881010
vn 0.70710320 0.70711020 0.00033843
vn 0.92388010 0.38268200 0.00011854
vn 1.00000000 0.00000206 -0.00014116
vn 0.92387690 -0.38268970 -0.00040100
vn 0.38268550 0.92387850 0.00048542
vn 0.34742870 0.83847270 0.41982970
vn 0.34533750 0.83400890 -0.43031530
vn 0.63810300 0.63839450 -0.43043830
vn 0.83371590 0.34563750 -0.43064190
vn 0.25634150 0.25698540 -0.93179800
vn 0.33492540 0.13937460 -0.93187960
vn 0.90240740 0.00029592 -0.43088380
vn 0.36252010 0.00064483 -0.93197570
vn 0.83371610 -0.34503520 -0.43112430
vn 0.33492440 -0.13808720 -0.93207170
vn 0.70710300 -0.70711020 -0.00062394
vn 0.34742850 -0.83905120 0.41867250
vn 0.38268340 -0.92387920 -0.00078354
vn 0.63809870 -0.63779740 -0.43132900
vn 0.25633850 -0.25569380 -0.93215410
vn 0.34533670 -0.83341530 -0.43146430
vn 0.54486050 0.54441640 0.63776000
vn 0.34742870 0.83847270 0.41982970
vn 0.64196720 0.64167180 0.41968480
vn 0.29487420 0.71144990 0.63787790
vn 0.00000000 0.90757740 0.41988480
vn 0.00000034 0.77009710 0.63792660
vn 0.00000000 0.99999990 0.00053659
vn 0.38268550 0.92387850 0.00048542
vn -0.34742360 0.83846980 0.41983950
vn -0.29486830 0.71143760 0.63789440
vn -0.64195690 0.64167180 0.41970050
vn -0.54485240 0.54440680 0.63777520
vn -0.38268160 0.92388010 0.00048881
vn -0.34533330 0.83400850 -0.43031920
vn 0.00000038 0.90269790 -0.43027510
vn 0.34533750 0.83400890 -0.43031530
vn -0.13872950 0.33556820 -0.93174460
vn -0.25634080 0.25698490 -0.93179840
vn -0.63809470 0.63839610 -0.43044820
vn 0.00000027 0.36316130 -0.93172630
vn 0.13873080 0.33556970 -0.93174390
vn 0.63810300 0.63839450 -0.43043830
vn 0.25634150 0.25698540 -0.93179800
vn -0.71189550 -0.29532160 0.63717340
vn -0.54486280 -0.54530110 0.63700190
vn -0.64196160 -0.64224740 0.41881200
vn -0.83876450 -0.34771280 0.41901060
vn -0.77055010 -0.00044049 0.63737930
vn -0.90787090 -0.00029067 0.41924990
vn -0.71188940 0.29443330 0.63759110
vn -0.83876170 0.34713550 0.41949480
vn -0.54485240 0.54440680 0.63777520
vn -0.64195690 0.64167180 0.41970050
vn -0.70710660 -0.70710650 -0.00062712
vn -0.92387910 -0.38268420 -0.00040492
vn -1.00000000 0.00000343 -0.00014045
vn -0.92387920 0.38268410 0.00012320
vn -0.38268240 -0.92387960 -0.00078369
vn -0.34742710 -0.83905020 0.41867550
vn -0.34533520 -0.83341440 -0.43146740
vn -0.63809830 -0.63779710 -0.43132980
vn -0.83371660 -0.34503590 -0.43112290
vn -0.25634100 -0.25569670 -0.93215260
vn -0.33492740 -0.13808790 -0.93207040
vn -0.90240710 0.00029721 -0.43088450
vn -0.36252010 0.00064468 -0.93197570
vn -0.83371540 0.34563240 -0.43064690
vn -0.33492690 0.13937500 -0.93187910
vn -0.70710680 0.70710660 0.00034480
vn -0.34742360 0.83846980 0.41983950
vn -0.38268160 0.92388010 0.00048881
vn -0.63809470 0.63839610 -0.43044820
vn -0.25634080 0.25698490 -0.93179840
vn -0.34533330 0.83400850 -0.43031920
vn -0.54486280 -0.54530110 0.63700190
vn -0.34742710 -0.83905020 0.41867550
vn -0.64196160 -0.64224740 0.41881200
vn -0.29487720 -0.71232850 0.63689530
vn -0.00000032 -0.90815930 0.41862480
vn -0.00000072 -0.77097950 0.63686010
vn -0.00000011 -0.99999960 -0.00084428
vn -0.38268240 -0.92387960 -0.00078369
vn 0.34742850 -0.83905120 0.41867250
vn 0.29487810 -0.71232810 0.63689520
vn 0.64196280 -0.64224750 0.41881010
vn 0.54486570 -0.54530160 0.63699900
vn 0.38268340 -0.92387920 -0.00078354
vn 0.34533670 -0.83341530 -0.43146430
vn -0.00000037 -0.90210740 -0.43151150
vn -0.34533520 -0.83341440 -0.43146740
vn 0.13873010 -0.33427660 -0.93220870
vn 0.25633850 -0.25569380 -0.93215410
vn 0.63809870 -0.63779740 -0.43132900
vn -0.00000025 -0.36187240 -0.93222760
vn -0.13873000 -0.33427690 -0.93220870
vn -0.63809830 -0.63779710 -0.43132980
vn -0.25634100 -0.25569670 -0.93215260
vn 0.37819090 0.91313680 -0.15216060
vn 0.25372080 0.61305640 -0.74818950
vn 0.00000000 0.66352910 -0.74815050
vn 0.00000012 0.98836300 -0.15211370
vn -0.25372140 0.61306270 -0.74818410
vn -0.37818450 0.91313970 -0.15215860
vn -0.37889880 0.91487130 -0.13944970
vn 0.00000000 0.99023620 -0.13939960
vn 0.37890930 0.91486750 -0.13944670
vn -0.00000064 0.33872470 -0.94088550
vn 0.12937430 0.31299220 -0.94090280
vn 0.23905870 0.23971240 -0.94095100
vn 0.70013430 0.70023120 -0.13959970
vn -0.12936680 0.31298220 -0.94090720
vn -0.70012690 0.70023900 -0.13959770
vn -0.23905210 0.23970550 -0.94095440
vn -0.37818450 0.91313970 -0.15215860
vn -0.25372140 0.61306270 -0.74818410
vn -0.46881510 0.46934260 -0.74828460
vn -0.69880020 0.69891670 -0.15229510
vn -0.61254050 0.25423740 -0.74843660
vn -0.70012690 0.70023900 -0.13959770
vn -0.37889880 0.91487130 -0.13944970
vn -0.91303790 0.37828690 -0.15251450
vn -0.66301310 0.00051805 -0.74860760
vn -0.91477420 0.37899380 -0.13982740
vn -0.23905210 0.23970550 -0.94095440
vn -0.31234480 0.13002680 -0.94102800
vn -0.99013910 0.00009777 -0.14008810
vn -0.33807060 0.00064940 -0.94112050
vn -0.98826060 0.00010583 -0.15277750
vn -0.61254440 -0.25320290 -0.74878410
vn -0.91477250 -0.37880330 -0.14035460
vn -0.31234140 -0.12872230 -0.94120850
vn -0.91303880 -0.37807410 -0.15303600
vn -0.46882020 -0.46830870 -0.74892900
vn -0.70013120 -0.70003960 -0.14057310
vn -0.23905350 -0.23840900 -0.94128350
vn -0.69880250 -0.69870360 -0.15325920
vn -0.25372410 -0.61203550 -0.74902380
vn -0.37890370 -0.91467520 -0.14071660
vn -0.37818700 -0.91292830 -0.15341590
vn -0.37818700 -0.91292830 -0.15341590
vn -0.25372410 -0.61203550 -0.74902380
vn 0.00000000 -0.66250240 -0.74905990
vn 0.00000000 -0.98815160 -0.15348130
vn 0.25372330 -0.61202780 -0.74903040
vn 0.37819110 -0.91292460 -0.15342790
vn 0.37890900 -0.91467300 -0.14071660
vn -0.00000028 -0.99004200 -0.14077240
vn -0.37890370 -0.91467520 -0.14071660
vn 0.00000000 -0.33742190 -0.94135350
vn -0.12937350 -0.31169210 -0.94133450
vn -0.23905350 -0.23840900 -0.94128350
vn -0.70013120 -0.70003960 -0.14057310
vn 0.12937290 -0.31169210 -0.94133460
vn 0.70013450 -0.70003780 -0.14056580
vn 0.23905110 -0.23840230 -0.94128580
vn 0.37819110 -0.91292460 -0.15342790
vn 0.25372330 -0.61202780 -0.74903040
vn 0.46881990 -0.46830220 -0.74893310
vn 0.69880280 -0.69870080 -0.15327020
vn 0.61254280 -0.25320710 -0.74878410
vn 0.70013450 -0.70003780 -0.14056580
vn 0.37890900 -0.91467300 -0.14071660
vn 0.91303280 -0.37808570 -0.15304400
vn 0.66300980 0.00051688 -0.74861050
vn 0.91476790 -0.37881720 -0.14034730
vn 0.23905110 -0.23840230 -0.94128580
vn 0.31233980 -0.12872540 -0.94120860
vn 0.99013940 0.00009887 -0.14008530
vn 0.33807390 0.00064939 -0.94111940
vn 0.98825960 0.00010598 -0.15278400
vn 0.61253830 0.25424120 -0.74843720
vn 0.91476980 0.37900650 -0.13982240
vn 0.31234380 0.13003110 -0.94102780
vn 0.91303180 0.37829680 -0.15252700
vn 0.46881580 0.46933520 -0.74828880
vn 0.70013430 0.70023120 -0.13959970
vn 0.23905870 0.23971240 -0.94095100
vn 0.69880160 0.69891290 -0.15230620
vn 0.25372080 0.61305640 -0.74818950
vn 0.37890930 0.91486750 -0.13944670
vn 0.37819090 0.91313680 -0.15216060
vn 0.21663100 0.08973165 0.97212100
vn 0.66301290 -0.00000027 0.74860790
vn 0.61254420 0.25372690 0.74860680
vn 0.23447940 0.00000000 0.97212110
vn 0.61254390 -0.25372460 0.74860790
vn 0.16580220 0.16580220 0.97212100
vn 0.46882050 0.46882110 0.74860820
vn 0.21663060 -0.08973053 0.97212120
vn 0.46881690 -0.46882030 0.74861090
vn 0.08973113 0.21663060 0.97212110
vn 0.25372220 0.61254070 0.74861150
vn 0.16580070 -0.16580160 0.97212140
vn 0.25372150 -0.61254320 0.74860950
vn 0.00000012 0.23447960 0.97212100
vn 0.00000000 0.66301500 0.74860610
vn 0.08973107 -0.21663130 0.97212100
vn -0.00000050 -0.66300900 0.74861150
vn -0.08973011 0.21663170 0.97212100
vn -0.25371860 0.61254630 0.74860790
vn -0.00000012 -0.23447950 0.97212110
vn -0.25371950 -0.61254520 0.74860850
vn -0.16580260 0.16580280 0.97212090
vn -0.46881160 0.46882220 0.74861310
vn -0.08973103 -0.21663220 0.97212080
vn -0.46881530 -0.46882370 0.74860980
vn -0.21663310 0.08973082 0.97212060
vn -0.61254360 0.25371890 0.74861010
vn -0.16580170 -0.16580210 0.97212110
vn -0.61254500 -0.25371910 0.74860890
vn -0.23448100 0.00000000 0.97212060
vn -0.66301550 -0.00000036 0.74860570
vn -0.21663260 -0.08973017 0.97212080
vn -0.25634090 0.25634100 0.93197570
vn -0.13872980 0.33492460 0.93197620
vn -0.33492710 0.13873130 0.93197500
vn -0.36252100 0.00000034 0.93197560
vn 0.00000000 0.36251660 0.93197730
vn -0.33492750 -0.13873200 0.93197490
vn -0.25634200 -0.25634270 0.93197490
vn 0.13872990 0.33492330 0.93197660
vn -0.13872990 -0.33492410 0.93197630
vn 0.25634080 0.25633960 0.93197610
vn 0.00000000 -0.36251930 0.93197630
vn 0.33492520 0.13873140 0.93197570
vn 0.13873040 -0.33492460 0.93197610
vn 0.36252010 0.00000000 0.93197600
vn 0.25634150 -0.25634150 0.93197540
vn 0.33492540 -0.13873110 0.93197560
vn 0.31233950 0.12937460 0.94111980
vn -0.00000092 0.00000000 1.00000000
vn -0.00000055 0.00000000 1.00000000
vn 0.23905350 0.23905790 0.94111890
vn 0.33807440 -0.00000043 0.94111940
vn 0.00000037 0.00000000 1.00000000
vn 0.00000018 0.00000000 1.00000000
vn 0.12937550 0.31234620 0.94111730
vn 0.31234050 -0.12937470 0.94111940
vn -0.00000018 0.00000000 1.00000000
vn -0.00000037 0.00000000 1.00000000
vn 0.00000040 0.33808110 0.94111700
vn 0.23905360 -0.23905390 0.94111980
vn -0.00000037 0.00000000 1.00000000
vn -0.00000073 0.00000000 1.00000000
vn -0.12937400 0.31234110 0.94111930
vn 0.12937340 -0.31233870 0.94112010
vn 0.00000037 0.00000000 1.00000000
vn 0.00000000 0.00000000 1.00000000
vn -0.23905400 0.23906130 0.94111790
vn -0.00000024 -0.33806450 0.94112290
vn 0.00000037 0.00000000 1.00000000
vn 0.00000018 0.00000000 1.00000000
vn -0.31234250 0.12937250 0.94111900
vn -0.12937150 -0.31233740 0.94112070
vn -0.00000018 0.00000000 1.00000000
vn 0.00000000 0.00000000 1.00000000
vn -0.33806910 0.00000000 0.94112130
vn -0.23905190 -0.23905680 0.94111960
vn 0.00000092 0.00000000 1.00000000
vn 0.00000092 0.00000000 1.00000000
vn -0.31234160 -0.12937190 0.94111940
vn 0.21663160 0.09040356 -0.97205870
vn 0.61253830 0.25424120 -0.74843720
vn 0.66300980 0.00051688 -0.74861050
vn 0.23448000 0.00067199 -0.97212080
vn 0.61254280 -0.25320710 -0.74878410
vn 0.16580170 0.16647450 -0.97200620
vn 0.46881580 0.46933520 -0.74828880
vn 0.21663040 -0.08906013 -0.97218290
vn 0.46881990 -0.46830220 -0.74893310
vn 0.08973176 0.21730270 -0.97197110
vn 0.25372080 0.61305640 -0.74818950
vn 0.16580020 -0.16512990 -0.97223570
vn 0.25372330 -0.61202780 -0.74903040
vn 0.00000000 0.23515190 -0.97195870
vn 0.00000000 0.66352910 -0.74815050
vn 0.08973159 -0.21595770 -0.97227080
vn 0.00000000 -0.66250240 -0.74905990
vn -0.08973209 0.21730530 -0.97197050
vn -0.25372140 0.61306270 -0.74818410
vn -0.00000014 -0.23380610 -0.97228320
vn -0.25372410 -0.61203550 -0.74902380
vn -0.16580320 0.16647590 -0.97200580
vn -0.46881510 0.46934260 -0.74828460
vn -0.08973173 -0.21595870 -0.97227060
vn -0.46882020 -0.46830870 -0.74892900
vn -0.21663280 0.09040269 -0.97205850
vn -0.61254050 0.25423740 -0.74843660
vn -0.16580170 -0.16513070 -0.97223540
vn -0.61254440 -0.25320290 -0.74878410
vn -0.23448090 0.00067207 -0.97212050
vn -0.66301310 0.00051805 -0.74860760
vn -0.21663230 -0.08905885 -0.97218250
vn -0.25634080 0.25698490 -0.93179840
vn -0.13872950 0.33556820 -0.93174460
vn -0.33492690 0.13937500 -0.93187910
vn -0.36252010 0.00064468 -0.93197570
vn 0.00000027 0.36316130 -0.93172630
vn -0.33492740 -0.13808790 -0.93207040
vn -0.25634100 -0.25569670 -0.93215260
vn 0.13873080 0.33556970 -0.93174390
vn -0.13873000 -0.33427690 -0.93220870
vn 0.25634150 0.25698540 -0.93179800
vn -0.00000025 -0.36187240 -0.93222760
vn 0.33492540 0.13937460 -0.93187960
vn 0.13873010 -0.33427660 -0.93220870
vn 0.36252010 0.00064483 -0.93197570
vn 0.25633850 -0.25569380 -0.93215410
vn 0.33492440 -0.13808720 -0.93207170
vn 0.31234380 0.13003110 -0.94102780
vn 0.00000184 0.00069201 -0.99999980
vn 0.00000147 0.00069125 -0.99999980
vn 0.23905870 0.23971240 -0.94095100
vn 0.33807390 0.00064939 -0.94111940
vn 0.00000037 0.00069237 -0.99999980
vn 0.00000073 0.00069107 -0.99999980
vn 0.12937430 0.31299220 -0.94090280
vn 0.31233980 -0.12872540 -0.94120860
vn -0.00000018 0.00069253 -0.99999980
vn 0.00000073 0.00069118 -0.99999980
vn -0.00000064 0.33872470 -0.94088550
vn 0.23905110 -0.23840230 -0.94128580
vn -0.00000018 0.00069237 -0.99999980
vn -0.00000037 0.00069101 -0.99999980
vn -0.12936680 0.31298220 -0.94090720
vn 0.12937290 -0.31169210 -0.94133460
vn -0.00000147 0.00069201 -0.99999980
vn -0.00000055 0.00069075 -0.99999980
vn -0.23905210 0.23970550 -0.94095440
vn 0.00000000 -0.33742190 -0.94135350
vn -0.00000147 0.00069127 -0.99999980
vn 0.00000018 0.00069038 -0.99999980
vn -0.31234480 0.13002680 -0.94102800
vn -0.12937350 -0.31169210 -0.94133450
vn -0.00000073 0.00069108 -0.99999980
vn 0.00000073 0.00069074 -0.99999980
vn -0.33807060 0.00064940 -0.94112050
vn -0.23905350 -0.23840900 -0.94128350
vn -0.00000073 0.00069120 -0.99999980
vn 0.00000037 0.00069104 -0.99999980
vn -0.31234140 -0.12872230 -0.94120850
vt -19.04395000 0.04556281
vt -19.04916000 0.07129498
vt -19.04395000 0.06824933
vt -19.04916000 0.04721083
vt -19.04395000 0.01880182
vt -19.04916000 0.01880182
vt -19.04395000 -0.00795917
vt -19.04916000 -0.00960718
vt -19.04395000 -0.03064613
vt -19.04916000 -0.03369133
vt -19.05586000 0.07232358
vt -19.05586000 0.04776730
vt -19.05586000 0.01880182
vt -19.05586000 -0.01016410
vt -19.05586000 0.08873134
vt -19.04916000 0.08738768
vt -19.06293000 0.08738768
vt -19.06293000 0.07129498
vt -19.06293000 0.04721083
vt -19.06725000 0.06824933
vt -19.06725000 0.04556281
vt -19.06293000 0.01880182
vt -19.06725000 0.01880182
vt -19.06293000 -0.00960718
vt -19.06725000 -0.00795917
vt -19.05586000 -0.03471994
vt -19.04916000 -0.04978403
vt -19.05586000 -0.05112793
vt -19.06293000 -0.03369133
vt -19.06725000 -0.03064613
vt -19.06293000 -0.04978403
vt -19.09706000 0.87679770
vt -19.10213000 0.87383680
vt -19.10213000 0.89725180
vt -19.09706000 0.89885440
vt -19.10213000 0.92487180
vt -19.09706000 0.92487180
vt -19.10864000 0.92487180
vt -19.10864000 0.89671070
vt -19.10213000 0.95249190
vt -19.09706000 0.95088920
vt -19.10213000 0.97590700
vt -19.09706000 0.97294600
vt -19.10864000 0.95303290
vt -19.11551000 0.95249190
vt -19.11551000 0.92487180
vt -19.11551000 0.89725180
vt -19.11971000 0.95088920
vt -19.11971000 0.97294600
vt -19.11551000 0.97590700
vt -19.11971000 0.92487180
vt -19.11971000 0.89885440
vt -19.11551000 0.87383680
vt -19.11971000 0.87679770
vt -19.05360000 -0.00795823
vt -19.04840000 -0.03368949
vt -19.05360000 -0.03064438
vt -19.04840000 -0.00960618
vt -19.05360000 0.01880182
vt -19.04840000 0.01880182
vt -19.05360000 0.04556187
vt -19.04840000 0.04721004
vt -19.05360000 0.06824757
vt -19.04840000 0.07129314
vt -19.04169000 -0.03471806
vt -19.04169000 -0.01016308
vt -19.04169000 0.01880182
vt -19.04169000 0.04776672
vt -19.04169000 -0.05112546
vt -19.04840000 -0.04978162
vt -19.03463000 -0.04978162
vt -19.03463000 -0.03368949
vt -19.03463000 -0.00960618
vt -19.03031000 -0.03064438
vt -19.03031000 -0.00795823
vt -19.03463000 0.01880182
vt -19.03031000 0.01880182
vt -19.03463000 0.04721004
vt -19.03031000 0.04556187
vt -19.04169000 0.07232170
vt -19.04840000 0.08738527
vt -19.04169000 0.08872887
vt -19.03463000 0.07129314
vt -19.03031000 0.06824757
vt -19.03463000 0.08738527
vt -19.13149000 0.97294540
vt -19.12643000 0.97590640
vt -19.12643000 0.95249150
vt -19.13149000 0.95088890
vt -19.12643000 0.92487170
vt -19.13149000 0.92487170
vt -19.11991000 0.92487170
vt -19.11991000 0.95303240
vt -19.12643000 0.89725230
vt -19.13149000 0.89885460
vt -19.12643000 0.87383740
vt -19.13149000 0.87679830
vt -19.11991000 0.89671120
vt -19.11304000 0.89725230
vt -19.11304000 0.92487170
vt -19.11304000 0.95249150
vt -19.10884000 0.89885460
vt -19.10884000 0.87679830
vt -19.11304000 0.87383740
vt -19.10884000 0.92487170
vt -19.10884000 0.95088890
vt -19.11304000 0.97590640
vt -19.10884000 0.97294540
vt -19.23981000 0.90526810
vt -19.23518000 0.91873030
vt -19.23518000 0.90452020
vt -19.23981000 0.91873030
vt -19.23518000 0.93294050
vt -19.23981000 0.93219250
vt -19.24845000 0.93219250
vt -19.24845000 0.91873030
vt -19.24845000 0.90526810
vt -19.25002000 0.91873030
vt -19.25002000 0.90587840
vt -19.25002000 0.89498260
vt -19.24845000 0.89385580
vt -19.25002000 0.93158270
vt -19.24845000 0.94360530
vt -19.25002000 0.94247850
vt -19.16769000 0.95626440
vt -19.17268000 0.94953280
vt -19.17268000 0.95821200
vt -19.16769000 0.94804190
vt -19.17268000 0.93654330
vt -19.15838000 0.94804190
vt -19.15838000 0.95626440
vt -19.16769000 0.93573640
vt -19.17268000 0.92122090
vt -19.15838000 0.93573640
vt -19.15669000 0.94682690
vt -19.15669000 0.93507870
vt -19.15838000 0.92122090
vt -19.15669000 0.92122090
vt -19.16769000 0.92122090
vt -19.17268000 0.90589800
vt -19.15838000 0.90670500
vt -19.15669000 0.90736260
vt -19.16769000 0.90670500
vt -19.17268000 0.89290820
vt -19.15838000 0.89439870
vt -19.15669000 0.89561390
vt -19.16769000 0.89439870
vt -19.17268000 0.88422930
vt -19.15838000 0.88617670
vt -19.16769000 0.88617670
vt -19.25544000 0.93221170
vt -19.26008000 0.91873030
vt -19.26008000 0.93296060
vt -19.25544000 0.91873030
vt -19.26008000 0.90450000
vt -19.25544000 0.90524940
vt -19.24679000 0.90524940
vt -19.24679000 0.91873030
vt -19.24679000 0.93221170
vt -19.24522000 0.91873030
vt -19.24522000 0.93160070
vt -19.24522000 0.94251230
vt -19.24679000 0.94364070
vt -19.24522000 0.90586000
vt -19.24679000 0.89382040
vt -19.24522000 0.89494880
vt -19.15163000 0.88617700
vt -19.14664000 0.89290850
vt -19.14664000 0.88422960
vt -19.15163000 0.89439900
vt -19.14664000 0.90589820
vt -19.16095000 0.89439900
vt -19.16095000 0.88617700
vt -19.15163000 0.90670510
vt -19.14664000 0.92122090
vt -19.16095000 0.90670510
vt -19.16263000 0.89561420
vt -19.16263000 0.90736260
vt -19.16095000 0.92122090
vt -19.16263000 0.92122090
vt -19.15163000 0.92122090
vt -19.14664000 0.93654320
vt -19.16095000 0.93573620
vt -19.16263000 0.93507870
vt -19.15163000 0.93573620
vt -19.14664000 0.94953210
vt -19.16095000 0.94804160
vt -19.16263000 0.94682660
vt -19.15163000 0.94804160
vt -19.14664000 0.95821170
vt -19.16095000 0.95626410
vt -19.15163000 0.95626410
vt -19.05648000 0.08340505
vt -19.05650000 0.10609050
vt -19.05129000 0.10913980
vt -19.05128000 0.08505698
vt -19.05646000 0.05664553
vt -19.05126000 0.05664910
vt -19.05644000 0.02988580
vt -19.05124000 0.02824123
vt -19.05643000 0.00720015
vt -19.05122000 0.00415822
vt -19.04459000 0.11017300
vt -19.04457000 0.08561791
vt -19.04456000 0.05665380
vt -19.04453000 0.02768901
vt -19.04460000 0.12658000
vt -19.05130000 0.12523150
vt -19.03753000 0.12524110
vt -19.03753000 0.10914940
vt -19.03751000 0.08506638
vt -19.03320000 0.10610650
vt -19.03319000 0.08342110
vt -19.03749000 0.05665848
vt -19.03317000 0.05666160
vt -19.03747000 0.02825082
vt -19.03315000 0.02990187
vt -19.04452000 0.00313410
vt -19.05121000 -0.01193374
vt -19.04451000 -0.01327266
vt -19.03745000 0.00416759
vt -19.03313000 0.00721621
vt -19.03744000 -0.01192415
vt -19.14326000 0.87682370
vt -19.13821000 0.89726670
vt -19.13820000 0.87386420
vt -19.14326000 0.89886830
vt -19.13821000 0.92487180
vt -19.14327000 0.92487180
vt -19.13170000 0.92487180
vt -19.13169000 0.89672580
vt -19.13821000 0.95247710
vt -19.14326000 0.95087520
vt -19.13820000 0.97587960
vt -19.14326000 0.97292010
vt -19.13169000 0.95301770
vt -19.12483000 0.95247710
vt -19.12483000 0.92487180
vt -19.12483000 0.89726670
vt -19.12063000 0.95087520
vt -19.12062000 0.97292010
vt -19.12482000 0.97587960
vt -19.12063000 0.92487180
vt -19.12063000 0.89886830
vt -19.12482000 0.87386420
vt -19.12062000 0.87682370
vt -19.04498000 0.02988583
vt -19.04499000 0.00720018
vt -19.05021000 0.00415825
vt -19.05019000 0.02824125
vt -19.04496000 0.05664554
vt -19.05017000 0.05664911
vt -19.04494000 0.08340505
vt -19.05015000 0.08505695
vt -19.04493000 0.10609040
vt -19.05013000 0.10914000
vt -19.05691000 0.00313414
vt -19.05689000 0.02768927
vt -19.05687000 0.05665380
vt -19.05685000 0.08561831
vt -19.05692000 -0.01327261
vt -19.05021000 -0.01193370
vt -19.06399000 -0.01192410
vt -19.06397000 0.00416762
vt -19.06396000 0.02825084
vt -19.06829000 0.00721625
vt -19.06828000 0.02990189
vt -19.06394000 0.05665848
vt -19.06826000 0.05666160
vt -19.06392000 0.08506635
vt -19.06824000 0.08342110
vt -19.05683000 0.11017300
vt -19.05012000 0.12523150
vt -19.05682000 0.12658000
vt -19.06390000 0.10914960
vt -19.06822000 0.10610650
vt -19.06389000 0.12524110
vt -19.13239000 0.97293780
vt -19.13747000 0.95248680
vt -19.13745000 0.97589780
vt -19.13240000 0.95088490
vt -19.13747000 0.92487170
vt -19.13240000 0.92487170
vt -19.14399000 0.92487170
vt -19.14398000 0.95302820
vt -19.13747000 0.89725700
vt -19.13240000 0.89885910
vt -19.13745000 0.87384590
vt -19.13239000 0.87680670
vt -19.14398000 0.89671630
vt -19.15085000 0.89725700
vt -19.15086000 0.92487170
vt -19.15085000 0.95248680
vt -19.15505000 0.89885910
vt -19.15504000 0.87680670
vt -19.15084000 0.87384590
vt -19.15505000 0.92487170
vt -19.15505000 0.95088490
vt -19.15084000 0.97589780
vt -19.15504000 0.97293780
vt -19.26548000 0.90528960
vt -19.27011000 0.90454320
vt -19.27011000 0.91873030
vt -19.26549000 0.91873030
vt -19.27011000 0.93291750
vt -19.26548000 0.93217100
vt -19.25686000 0.93217100
vt -19.25686000 0.91873030
vt -19.25686000 0.90528960
vt -19.25530000 0.91873030
vt -19.25530000 0.90589900
vt -19.25529000 0.89502080
vt -19.25686000 0.89389570
vt -19.25530000 0.93156210
vt -19.25686000 0.94356540
vt -19.25529000 0.94244030
vt -19.18178000 0.95625880
vt -19.17679000 0.95820290
vt -19.17680000 0.94952500
vt -19.18179000 0.94803850
vt -19.17681000 0.93653920
vt -19.19110000 0.94804550
vt -19.19109000 0.95626540
vt -19.18179000 0.93573630
vt -19.17682000 0.92122070
vt -19.19111000 0.93574270
vt -19.19278000 0.94683160
vt -19.19279000 0.93508600
vt -19.19112000 0.92123040
vt -19.19280000 0.92123170
vt -19.18181000 0.92122410
vt -19.17683000 0.90590200
vt -19.19113000 0.90671830
vt -19.19281000 0.90737730
vt -19.18182000 0.90671190
vt -19.17684000 0.89291520
vt -19.19114000 0.89441610
vt -19.19282000 0.89563180
vt -19.18182000 0.89440910
vt -19.17684000 0.88423850
vt -19.19114000 0.88619520
vt -19.18183000 0.88618920
vt -19.26997000 0.93218510
vt -19.26534000 0.93293290
vt -19.26534000 0.91873010
vt -19.26997000 0.91873010
vt -19.26534000 0.90452800
vt -19.26997000 0.90527550
vt -19.27860000 0.90527550
vt -19.27860000 0.91873010
vt -19.27860000 0.93218510
vt -19.28016000 0.91873010
vt -19.28016000 0.93157570
vt -19.28016000 0.94246570
vt -19.27859000 0.94359200
vt -19.28016000 0.90588540
vt -19.27859000 0.89386920
vt -19.28016000 0.89499540
vt -19.17772000 0.88619970
vt -19.18270000 0.88424960
vt -19.18271000 0.89292380
vt -19.17772000 0.89441710
vt -19.18272000 0.90590660
vt -19.16842000 0.89442410
vt -19.16841000 0.88620570
vt -19.17773000 0.90671630
vt -19.18273000 0.92122070
vt -19.16842000 0.90672260
vt -19.16673000 0.89563940
vt -19.16674000 0.90738150
vt -19.16843000 0.92123040
vt -19.16675000 0.92123170
vt -19.17774000 0.92122410
vt -19.18274000 0.93653460
vt -19.16844000 0.93573830
vt -19.16676000 0.93508190
vt -19.17775000 0.93573190
vt -19.18275000 0.94951650
vt -19.16845000 0.94803650
vt -19.16677000 0.94682400
vt -19.17776000 0.94803050
vt -19.18276000 0.95819190
vt -19.16846000 0.95625500
vt -19.17777000 0.95624840
vt -18.98212000 0.07189909
vt -18.98358000 0.05665379
vt -18.98627000 0.07017998
vt -18.97908000 0.05665379
vt -18.98627000 0.04312739
vt -18.99075000 0.08482350
vt -18.99393000 0.08164663
vt -18.98212000 0.04140847
vt -18.99393000 0.03166054
vt -19.00368000 0.09345937
vt -19.00540000 0.08930874
vt -18.99075000 0.02848369
vt -19.00540000 0.02399883
vt -19.01892000 0.09649173
vt -19.01892000 0.09199929
vt -19.00368000 0.01984819
vt -19.01892000 0.02130829
vt -19.03417000 0.09345937
vt -19.03245000 0.08930874
vt -19.01892000 0.01681546
vt -19.03245000 0.02399883
vt -19.04709000 0.08482388
vt -19.04391000 0.08164704
vt -19.03417000 0.01984819
vt -19.04391000 0.03166054
vt -19.05573000 0.07189909
vt -19.05158000 0.07017998
vt -19.04709000 0.02848369
vt -19.05158000 0.04312739
vt -19.05876000 0.05665379
vt -19.05427000 0.05665379
vt -19.05573000 0.04140847
vt -19.06208000 0.09981427
vt -19.04228000 0.11304600
vt -19.07531000 0.08001224
vt -19.07996000 0.05665379
vt -19.01892000 0.11769210
vt -19.07531000 0.03329533
vt -19.06208000 0.01349292
vt -18.99556000 0.11304600
vt -19.04228000 0.00026158
vt -18.97576000 0.09981427
vt -19.01892000 -0.00438473
vt -18.96253000 0.08001224
vt -18.99556000 0.00026158
vt -18.95788000 0.05665379
vt -18.97576000 0.01349292
vt -18.96253000 0.03329533
vt -19.18974000 0.89199890
vt -19.19108000 0.89521400
vt -19.18201000 0.90127130
vt -19.17955000 0.89881090
vt -19.20177000 0.88960730
vt -19.17595000 0.91033660
vt -19.20177000 0.89308660
vt -19.17274000 0.90900500
vt -19.21379000 0.89199890
vt -19.17383000 0.92103000
vt -19.21246000 0.89521400
vt -19.17035000 0.92103000
vt -19.22399000 0.89881090
vt -19.17595000 0.93172330
vt -19.22153000 0.90127130
vt -19.17274000 0.93305480
vt -19.23080000 0.90900500
vt -19.18201000 0.94078870
vt -19.22758000 0.91033660
vt -19.17955000 0.94324950
vt -19.23319000 0.92103000
vt -19.19108000 0.94684640
vt -19.22971000 0.92103000
vt -19.18974000 0.95006130
vt -19.23080000 0.93305480
vt -19.20177000 0.94897320
vt -19.22758000 0.93172330
vt -19.20177000 0.95245260
vt -19.22399000 0.94324950
vt -19.21246000 0.94684640
vt -19.22153000 0.94078870
vt -19.21379000 0.95006130
vt -19.04570000 0.42689890
vt -19.04985000 0.42861730
vt -19.04716000 0.44214350
vt -19.04267000 0.44214420
vt -19.04985000 0.45566960
vt -19.05433000 0.41397490
vt -19.05751000 0.41715020
vt -19.04570000 0.45738960
vt -19.05751000 0.46713590
vt -19.06726000 0.40533940
vt -19.06898000 0.40948850
vt -19.05433000 0.47031440
vt -19.06898000 0.47479840
vt -19.08250000 0.40230670
vt -19.08250000 0.40679770
vt -19.06726000 0.47894980
vt -19.08250000 0.47748840
vt -19.09775000 0.40533940
vt -19.09603000 0.40948850
vt -19.08250000 0.48198240
vt -19.09603000 0.47479840
vt -19.11067000 0.41397490
vt -19.10750000 0.41715020
vt -19.09775000 0.47894980
vt -19.10750000 0.46713590
vt -19.11931000 0.42689890
vt -19.11516000 0.42861730
vt -19.11067000 0.47031440
vt -19.11516000 0.45566960
vt -19.12234000 0.44214420
vt -19.11785000 0.44214350
vt -19.11931000 0.45738960
vt -19.12566000 0.39898730
vt -19.10586000 0.38575570
vt -19.13890000 0.41878920
vt -19.14354000 0.44214810
vt -19.08250000 0.38110960
vt -19.13890000 0.46550620
vt -19.12566000 0.48530800
vt -19.05914000 0.38575570
vt -19.10586000 0.49853960
vt -19.03934000 0.39898730
vt -19.08250000 0.50318580
vt -19.02611000 0.41878920
vt -19.05914000 0.49853960
vt -19.02147000 0.44214810
vt -19.03934000 0.48530800
vt -19.02611000 0.46550620
vt -19.23767000 0.89198880
vt -19.24541000 0.90126440
vt -19.23634000 0.89520450
vt -19.24787000 0.89880320
vt -19.22564000 0.88959580
vt -19.25146000 0.91033330
vt -19.22564000 0.89307730
vt -19.25468000 0.90900040
vt -19.21361000 0.89198880
vt -19.25359000 0.92102990
vt -19.21494000 0.89520450
vt -19.25707000 0.92102990
vt -19.20341000 0.89880320
vt -19.25146000 0.93172740
vt -19.20587000 0.90126440
vt -19.25468000 0.93305950
vt -19.19660000 0.90900040
vt -19.24541000 0.94079630
vt -19.19981000 0.91033330
vt -19.24787000 0.94325750
vt -19.19420000 0.92102990
vt -19.23634000 0.94685540
vt -19.19769000 0.92102990
vt -19.23767000 0.95007120
vt -19.19660000 0.93305950
vt -19.22564000 0.94898280
vt -19.19981000 0.93172740
vt -19.22564000 0.95246430
vt -19.20341000 0.94325750
vt -19.21494000 0.94685540
vt -19.20587000 0.94079630
vt -19.21361000 0.95007120
f 3/3/3 2/2/2 1/1/1
f 2/2/2 4/4/4 1/1/1
f 1/1/1 4/4/4 5/5/5
f 4/4/4 6/6/6 5/5/5
f 5/5/5 6/6/6 7/7/7
f 6/6/6 8/8/8 7/7/7
f 7/7/7 8/8/8 9/9/9
f 8/8/8 10/10/10 9/9/9
f 2/2/2 11/11/11 4/4/4
f 4/4/4 12/12/12 6/6/6
f 11/11/11 12/12/12 4/4/4
f 6/6/6 13/13/13 8/8/8
f 12/12/12 13/13/13 6/6/6
f 8/8/8 14/14/14 10/10/10
f 13/13/13 14/14/14 8/8/8
f 15/15/15 11/11/11 2/2/2
f 16/16/16 15/15/15 2/2/2
f 15/15/15 17/17/17 11/11/11
f 17/17/17 18/18/18 11/11/11
f 11/11/11 18/18/18 12/12/12
f 18/18/18 19/19/19 12/12/12
f 12/12/12 19/19/19 13/13/13
f 18/18/18 20/20/20 19/19/19
f 20/20/20 21/21/21 19/19/19
f 19/19/19 22/22/22 13/13/13
f 19/19/19 21/21/21 22/22/22
f 13/13/13 22/22/22 14/14/14
f 21/21/21 23/23/23 22/22/22
f 22/22/22 23/23/23 24/24/24
f 22/22/22 24/24/24 14/14/14
f 23/23/23 25/25/25 24/24/24
f 14/14/14 24/24/24 26/26/26
f 14/14/14 26/26/26 10/10/10
f 10/10/10 26/26/26 27/27/27
f 26/26/26 28/28/28 27/27/27
f 24/24/24 25/25/25 29/29/29
f 24/24/24 29/29/29 26/26/26
f 26/26/26 29/29/29 28/28/28
f 25/25/25 30/30/30 29/29/29
f 29/29/29 31/31/31 28/28/28
f 34/34/34 33/33/33 32/32/32
f 35/35/35 34/34/34 32/32/32
f 36/36/36 34/34/34 35/35/35
f 37/37/37 36/36/36 35/35/35
f 36/36/36 38/38/38 34/34/34
f 38/38/38 39/39/39 34/34/34
f 40/40/40 36/36/36 37/37/37
f 41/41/41 40/40/40 37/37/37
f 42/42/42 40/40/40 41/41/41
f 43/43/43 42/42/42 41/41/41
f 40/40/40 44/44/44 36/36/36
f 44/44/44 38/38/38 36/36/36
f 44/44/44 45/45/45 38/38/38
f 38/38/38 46/46/46 39/39/39
f 45/45/45 46/46/46 38/38/38
f 46/46/46 47/47/47 39/39/39
f 45/45/45 48/48/48 46/46/46
f 49/49/49 48/48/48 45/45/45
f 50/50/50 49/49/49 45/45/45
f 48/48/48 51/51/51 46/46/46
f 46/46/46 51/51/51 47/47/47
f 51/51/51 52/52/52 47/47/47
f 47/47/47 52/52/52 53/53/53
f 52/52/52 54/54/54 53/53/53
f 57/57/57 56/56/56 55/55/55
f 56/56/56 58/58/58 55/55/55
f 55/55/55 58/58/58 59/59/59
f 58/58/58 60/60/60 59/59/59
f 59/59/59 60/60/60 61/61/61
f 60/60/60 62/62/62 61/61/61
f 61/61/61 62/62/62 63/63/63
f 62/62/62 64/64/64 63/63/63
f 56/56/56 65/65/65 58/58/58
f 58/58/58 66/66/66 60/60/60
f 65/65/65 66/66/66 58/58/58
f 60/60/60 67/67/67 62/62/62
f 66/66/66 67/67/67 60/60/60
f 62/62/62 68/68/68 64/64/64
f 67/67/67 68/68/68 62/62/62
f 69/69/69 65/65/65 56/56/56
f 70/70/70 69/69/69 56/56/56
f 69/69/69 71/71/71 65/65/65
f 71/71/71 72/72/72 65/65/65
f 65/65/65 72/72/72 66/66/66
f 72/72/72 73/73/73 66/66/66
f 66/66/66 73/73/73 67/67/67
f 72/72/72 74/74/74 73/73/73
f 74/74/74 75/75/75 73/73/73
f 73/73/73 76/76/76 67/67/67
f 73/73/73 75/75/75 76/76/76
f 67/67/67 76/76/76 68/68/68
f 75/75/75 77/77/77 76/76/76
f 76/76/76 77/77/77 78/78/78
f 76/76/76 78/78/78 68/68/68
f 77/77/77 79/79/79 78/78/78
f 68/68/68 78/78/78 80/80/80
f 68/68/68 80/80/80 64/64/64
f 64/64/64 80/80/80 81/81/81
f 80/80/80 82/82/82 81/81/81
f 78/78/78 79/79/79 83/83/83
f 78/78/78 83/83/83 80/80/80
f 80/80/80 83/83/83 82/82/82
f 79/79/79 84/84/84 83/83/83
f 83/83/83 85/85/85 82/82/82
f 88/88/88 87/87/87 86/86/86
f 89/89/89 88/88/88 86/86/86
f 90/90/90 88/88/88 89/89/89
f 91/91/91 90/90/90 89/89/89
f 90/90/90 92/92/92 88/88/88
f 92/92/92 93/93/93 88/88/88
f 94/94/94 90/90/90 91/91/91
f 95/95/95 94/94/94 91/91/91
f 96/96/96 94/94/94 95/95/95
f 97/97/97 96/96/96 95/95/95
f 94/94/94 98/98/98 90/90/90
f 98/98/98 92/92/92 90/90/90
f 98/98/98 99/99/99 92/92/92
f 92/92/92 100/100/100 93/93/93
f 99/99/99 100/100/100 92/92/92
f 100/100/100 101/101/101 93/93/93
f 99/99/99 102/102/102 100/100/100
f 103/103/103 102/102/102 99/99/99
f 104/104/104 103/103/103 99/99/99
f 102/102/102 105/105/105 100/100/100
f 100/100/100 105/105/105 101/101/101
f 105/105/105 106/106/106 101/101/101
f 101/101/101 106/106/106 107/107/107
f 106/106/106 108/108/108 107/107/107
f 111/111/111 110/110/110 109/109/109
f 110/110/110 112/112/112 109/109/109
f 110/110/110 113/113/113 112/112/112
f 113/113/113 114/114/114 112/112/112
f 114/114/114 115/115/115 112/112/112
f 112/112/112 116/116/116 109/109/109
f 115/115/115 116/116/116 112/112/112
f 116/116/116 117/117/117 109/109/109
f 116/116/116 115/115/115 118/118/118
f 116/116/116 118/118/118 119/119/119
f 117/117/117 116/116/116 119/119/119
f 117/117/117 119/119/119 120/120/120
f 121/121/121 117/117/117 120/120/120
f 115/115/115 122/122/122 118/118/118
f 115/115/115 123/123/123 122/122/122
f 123/123/123 124/124/124 122/122/122
f 127/127/127 126/126/126 125/125/125
f 126/126/126 128/128/128 125/125/125
f 126/126/126 129/129/129 128/128/128
f 128/128/128 130/130/130 125/125/125
f 130/130/130 131/131/131 125/125/125
f 129/129/129 132/132/132 128/128/128
f 129/129/129 133/133/133 132/132/132
f 134/134/134 130/130/130 128/128/128
f 132/132/132 134/134/134 128/128/128
f 130/130/130 134/134/134 135/135/135
f 134/134/134 136/136/136 135/135/135
f 134/134/134 137/137/137 136/136/136
f 137/137/137 134/134/134 132/132/132
f 137/137/137 138/138/138 136/136/136
f 133/133/133 139/139/139 132/132/132
f 139/139/139 137/137/137 132/132/132
f 133/133/133 140/140/140 139/139/139
f 137/137/137 141/141/141 138/138/138
f 141/141/141 137/137/137 139/139/139
f 141/141/141 142/142/142 138/138/138
f 140/140/140 143/143/143 139/139/139
f 143/143/143 141/141/141 139/139/139
f 140/140/140 144/144/144 143/143/143
f 141/141/141 145/145/145 142/142/142
f 145/145/145 141/141/141 143/143/143
f 145/145/145 146/146/146 142/142/142
f 144/144/144 147/147/147 143/143/143
f 147/147/147 145/145/145 143/143/143
f 144/144/144 148/148/148 147/147/147
f 149/149/149 145/145/145 147/147/147
f 148/148/148 150/150/150 147/147/147
f 150/150/150 149/149/149 147/147/147
f 153/153/153 152/152/152 151/151/151
f 152/152/152 154/154/154 151/151/151
f 152/152/152 155/155/155 154/154/154
f 155/155/155 156/156/156 154/154/154
f 156/156/156 157/157/157 154/154/154
f 154/154/154 158/158/158 151/151/151
f 157/157/157 158/158/158 154/154/154
f 158/158/158 159/159/159 151/151/151
f 158/158/158 157/157/157 160/160/160
f 158/158/158 160/160/160 161/161/161
f 159/159/159 158/158/158 161/161/161
f 159/159/159 161/161/161 162/162/162
f 163/163/163 159/159/159 162/162/162
f 157/157/157 164/164/164 160/160/160
f 157/157/157 165/165/165 164/164/164
f 165/165/165 166/166/166 164/164/164
f 169/169/169 168/168/168 167/167/167
f 168/168/168 170/170/170 167/167/167
f 168/168/168 171/171/171 170/170/170
f 170/170/170 172/172/172 167/167/167
f 172/172/172 173/173/173 167/167/167
f 171/171/171 174/174/174 170/170/170
f 171/171/171 175/175/175 174/174/174
f 176/176/176 172/172/172 170/170/170
f 174/174/174 176/176/176 170/170/170
f 172/172/172 176/176/176 177/177/177
f 176/176/176 178/178/178 177/177/177
f 176/176/176 179/179/179 178/178/178
f 179/179/179 176/176/176 174/174/174
f 179/179/179 180/180/180 178/178/178
f 175/175/175 181/181/181 174/174/174
f 181/181/181 179/179/179 174/174/174
f 181/181/181 175/175/175 182/182/182
f 180/180/180 179/179/179 183/183/183
f 183/183/183 179/179/179 181/181/181
f 184/184/184 180/180/180 183/183/183
f 185/185/185 181/181/181 182/182/182
f 185/185/185 183/183/183 181/181/181
f 182/182/182 186/186/186 185/185/185
f 183/183/183 187/187/187 184/184/184
f 187/187/187 183/183/183 185/185/185
f 187/187/187 188/188/188 184/184/184
f 186/186/186 189/189/189 185/185/185
f 189/189/189 187/187/187 185/185/185
f 186/186/186 190/190/190 189/189/189
f 191/191/191 187/187/187 189/189/189
f 190/190/190 192/192/192 189/189/189
f 192/192/192 191/191/191 189/189/189
f 195/195/195 194/194/194 193/193/193
f 196/196/196 195/195/195 193/193/193
f 196/196/196 193/193/193 197/197/197
f 198/198/198 196/196/196 197/197/197
f 198/198/198 197/197/197 199/199/199
f 200/200/200 198/198/198 199/199/199
f 200/200/200 199/199/199 201/201/201
f 202/202/202 200/200/200 201/201/201
f 203/203/203 195/195/195 196/196/196
f 204/204/204 196/196/196 198/198/198
f 204/204/204 203/203/203 196/196/196
f 205/205/205 198/198/198 200/200/200
f 205/205/205 204/204/204 198/198/198
f 206/206/206 200/200/200 202/202/202
f 206/206/206 205/205/205 200/200/200
f 203/203/203 207/207/207 195/195/195
f 207/207/207 208/208/208 195/195/195
f 209/209/209 207/207/207 203/203/203
f 210/210/210 209/209/209 203/203/203
f 210/210/210 203/203/203 204/204/204
f 211/211/211 210/210/210 204/204/204
f 211/211/211 204/204/204 205/205/205
f 212/212/212 210/210/210 211/211/211
f 213/213/213 212/212/212 211/211/211
f 214/214/214 211/211/211 205/205/205
f 213/213/213 211/211/211 214/214/214
f 214/214/214 205/205/205 206/206/206
f 215/215/215 213/213/213 214/214/214
f 215/215/215 214/214/214 216/216/216
f 216/216/216 214/214/214 206/206/206
f 217/217/217 215/215/215 216/216/216
f 216/216/216 206/206/206 218/218/218
f 218/218/218 206/206/206 202/202/202
f 218/218/218 202/202/202 219/219/219
f 220/220/220 218/218/218 219/219/219
f 217/217/217 216/216/216 221/221/221
f 221/221/221 216/216/216 218/218/218
f 221/221/221 218/218/218 220/220/220
f 222/222/222 217/217/217 221/221/221
f 223/223/223 221/221/221 220/220/220
f 226/226/226 225/225/225 224/224/224
f 225/225/225 227/227/227 224/224/224
f 225/225/225 228/228/228 227/227/227
f 228/228/228 229/229/229 227/227/227
f 230/230/230 228/228/228 225/225/225
f 231/231/231 230/230/230 225/225/225
f 228/228/228 232/232/232 229/229/229
f 232/232/232 233/233/233 229/229/229
f 232/232/232 234/234/234 233/233/233
f 234/234/234 235/235/235 233/233/233
f 236/236/236 232/232/232 228/228/228
f 230/230/230 236/236/236 228/228/228
f 237/237/237 236/236/236 230/230/230
f 238/238/238 230/230/230 231/231/231
f 238/238/238 237/237/237 230/230/230
f 239/239/239 238/238/238 231/231/231
f 240/240/240 237/237/237 238/238/238
f 240/240/240 241/241/241 237/237/237
f 241/241/241 242/242/242 237/237/237
f 243/243/243 240/240/240 238/238/238
f 243/243/243 238/238/238 239/239/239
f 244/244/244 243/243/243 239/239/239
f 244/244/244 239/239/239 245/245/245
f 246/246/246 244/244/244 245/245/245
f 249/249/249 248/248/248 247/247/247
f 250/250/250 249/249/249 247/247/247
f 250/250/250 247/247/247 251/251/251
f 252/252/252 250/250/250 251/251/251
f 252/252/252 251/251/251 253/253/253
f 254/254/254 252/252/252 253/253/253
f 254/254/254 253/253/253 255/255/255
f 256/256/256 254/254/254 255/255/255
f 257/257/257 249/249/249 250/250/250
f 258/258/258 250/250/250 252/252/252
f 258/258/258 257/257/257 250/250/250
f 259/259/259 252/252/252 254/254/254
f 259/259/259 258/258/258 252/252/252
f 260/260/260 254/254/254 256/256/256
f 260/260/260 259/259/259 254/254/254
f 257/257/257 261/261/261 249/249/249
f 261/261/261 262/262/262 249/249/249
f 263/263/263 261/261/261 257/257/257
f 264/264/264 263/263/263 257/257/257
f 264/264/264 257/257/257 258/258/258
f 265/265/265 264/264/264 258/258/258
f 265/265/265 258/258/258 259/259/259
f 266/266/266 264/264/264 265/265/265
f 267/267/267 266/266/266 265/265/265
f 268/268/268 265/265/265 259/259/259
f 267/267/267 265/265/265 268/268/268
f 268/268/268 259/259/259 260/260/260
f 269/269/269 267/267/267 268/268/268
f 269/269/269 268/268/268 270/270/270
f 270/270/270 268/268/268 260/260/260
f 271/271/271 269/269/269 270/270/270
f 270/270/270 260/260/260 272/272/272
f 272/272/272 260/260/260 256/256/256
f 272/272/272 256/256/256 273/273/273
f 274/274/274 272/272/272 273/273/273
f 271/271/271 270/270/270 275/275/275
f 275/275/275 270/270/270 272/272/272
f 275/275/275 272/272/272 274/274/274
f 276/276/276 271/271/271 275/275/275
f 277/277/277 275/275/275 274/274/274
f 280/280/280 279/279/279 278/278/278
f 279/279/279 281/281/281 278/278/278
f 279/279/279 282/282/282 281/281/281
f 282/282/282 283/283/283 281/281/281
f 284/284/284 282/282/282 279/279/279
f 285/285/285 284/284/284 279/279/279
f 282/282/282 286/286/286 283/283/283
f 286/286/286 287/287/287 283/283/283
f 286/286/286 288/288/288 287/287/287
f 288/288/288 289/289/289 287/287/287
f 290/290/290 286/286/286 282/282/282
f 284/284/284 290/290/290 282/282/282
f 291/291/291 290/290/290 284/284/284
f 292/292/292 284/284/284 285/285/285
f 292/292/292 291/291/291 284/284/284
f 293/293/293 292/292/292 285/285/285
f 294/294/294 291/291/291 292/292/292
f 294/294/294 295/295/295 291/291/291
f 295/295/295 296/296/296 291/291/291
f 297/297/297 294/294/294 292/292/292
f 297/297/297 292/292/292 293/293/293
f 298/298/298 297/297/297 293/293/293
f 298/298/298 293/293/293 299/299/299
f 300/300/300 298/298/298 299/299/299
f 303/303/303 302/302/302 301/301/301
f 304/304/304 303/303/303 301/301/301
f 305/305/305 303/303/303 304/304/304
f 306/306/306 305/305/305 304/304/304
f 307/307/307 306/306/306 304/304/304
f 308/308/308 304/304/304 301/301/301
f 308/308/308 307/307/307 304/304/304
f 309/309/309 308/308/308 301/301/301
f 307/307/307 308/308/308 310/310/310
f 310/310/310 308/308/308 311/311/311
f 308/308/308 309/309/309 311/311/311
f 311/311/311 309/309/309 312/312/312
f 309/309/309 313/313/313 312/312/312
f 314/314/314 307/307/307 310/310/310
f 315/315/315 307/307/307 314/314/314
f 316/316/316 315/315/315 314/314/314
f 319/319/319 318/318/318 317/317/317
f 320/320/320 319/319/319 317/317/317
f 321/321/321 319/319/319 320/320/320
f 322/322/322 320/320/320 317/317/317
f 323/323/323 322/322/322 317/317/317
f 324/324/324 321/321/321 320/320/320
f 325/325/325 321/321/321 324/324/324
f 322/322/322 326/326/326 320/320/320
f 326/326/326 324/324/324 320/320/320
f 326/326/326 322/322/322 327/327/327
f 328/328/328 326/326/326 327/327/327
f 329/329/329 326/326/326 328/328/328
f 326/326/326 329/329/329 324/324/324
f 330/330/330 329/329/329 328/328/328
f 331/331/331 325/325/325 324/324/324
f 329/329/329 331/331/331 324/324/324
f 332/332/332 325/325/325 331/331/331
f 333/333/333 329/329/329 330/330/330
f 329/329/329 333/333/333 331/331/331
f 334/334/334 333/333/333 330/330/330
f 335/335/335 332/332/332 331/331/331
f 333/333/333 335/335/335 331/331/331
f 336/336/336 332/332/332 335/335/335
f 337/337/337 333/333/333 334/334/334
f 333/333/333 337/337/337 335/335/335
f 338/338/338 337/337/337 334/334/334
f 339/339/339 336/336/336 335/335/335
f 337/337/337 339/339/339 335/335/335
f 340/340/340 336/336/336 339/339/339
f 337/337/337 341/341/341 339/339/339
f 342/342/342 340/340/340 339/339/339
f 341/341/341 342/342/342 339/339/339
f 345/345/345 344/344/344 343/343/343
f 346/346/346 345/345/345 343/343/343
f 347/347/347 345/345/345 346/346/346
f 348/348/348 347/347/347 346/346/346
f 349/349/349 348/348/348 346/346/346
f 350/350/350 346/346/346 343/343/343
f 350/350/350 349/349/349 346/346/346
f 351/351/351 350/350/350 343/343/343
f 349/349/349 350/350/350 352/352/352
f 352/352/352 350/350/350 353/353/353
f 350/350/350 351/351/351 353/353/353
f 353/353/353 351/351/351 354/354/354
f 351/351/351 355/355/355 354/354/354
f 356/356/356 349/349/349 352/352/352
f 357/357/357 349/349/349 356/356/356
f 358/358/358 357/357/357 356/356/356
f 361/361/361 360/360/360 359/359/359
f 362/362/362 361/361/361 359/359/359
f 363/363/363 361/361/361 362/362/362
f 364/364/364 362/362/362 359/359/359
f 365/365/365 364/364/364 359/359/359
f 366/366/366 363/363/363 362/362/362
f 367/367/367 363/363/363 366/366/366
f 364/364/364 368/368/368 362/362/362
f 368/368/368 366/366/366 362/362/362
f 368/368/368 364/364/364 369/369/369
f 370/370/370 368/368/368 369/369/369
f 371/371/371 368/368/368 370/370/370
f 368/368/368 371/371/371 366/366/366
f 372/372/372 371/371/371 370/370/370
f 373/373/373 367/367/367 366/366/366
f 371/371/371 373/373/373 366/366/366
f 367/367/367 373/373/373 374/374/374
f 371/371/371 372/372/372 375/375/375
f 371/371/371 375/375/375 373/373/373
f 372/372/372 376/376/376 375/375/375
f 373/373/373 377/377/377 374/374/374
f 375/375/375 377/377/377 373/373/373
f 378/378/378 374/374/374 377/377/377
f 379/379/379 375/375/375 376/376/376
f 375/375/375 379/379/379 377/377/377
f 380/380/380 379/379/379 376/376/376
f 381/381/381 378/378/378 377/377/377
f 379/379/379 381/381/381 377/377/377
f 382/382/382 378/378/378 381/381/381
f 379/379/379 383/383/383 381/381/381
f 384/384/384 382/382/382 381/381/381
f 383/383/383 384/384/384 381/381/381
f 387/387/387 386/386/386 385/385/385
f 386/386/386 388/388/388 385/385/385
f 388/388/388 386/386/386 389/389/389
f 385/385/385 390/390/390 387/387/387
f 390/390/390 391/391/391 387/387/387
f 392/392/392 388/388/388 389/389/389
f 392/392/392 389/389/389 393/393/393
f 390/390/390 394/394/394 391/391/391
f 394/394/394 395/395/395 391/391/391
f 396/396/396 392/392/392 393/393/393
f 396/396/396 393/393/393 397/397/397
f 394/394/394 398/398/398 395/395/395
f 398/398/398 399/399/399 395/395/395
f 400/400/400 396/396/396 397/397/397
f 400/400/400 397/397/397 401/401/401
f 398/398/398 402/402/402 399/399/399
f 402/402/402 403/403/403 399/399/399
f 404/404/404 400/400/400 401/401/401
f 404/404/404 401/401/401 405/405/405
f 402/402/402 406/406/406 403/403/403
f 406/406/406 407/407/407 403/403/403
f 408/408/408 404/404/404 405/405/405
f 408/408/408 405/405/405 409/409/409
f 406/406/406 410/410/410 407/407/407
f 410/410/410 411/411/411 407/407/407
f 412/412/412 408/408/408 409/409/409
f 412/412/412 409/409/409 413/413/413
f 410/410/410 414/414/414 411/411/411
f 414/414/414 415/415/415 411/411/411
f 416/416/416 413/413/413 415/415/415
f 416/416/416 412/412/412 413/413/413
f 414/414/414 416/416/416 415/415/415
f 406/406/406 402/402/402 417/417/417
f 402/402/402 418/418/418 417/417/417
f 406/406/406 417/417/417 419/419/419
f 410/410/410 406/406/406 419/419/419
f 402/402/402 398/398/398 418/418/418
f 410/410/410 419/419/419 420/420/420
f 414/414/414 410/410/410 420/420/420
f 398/398/398 421/421/421 418/418/418
f 414/414/414 420/420/420 422/422/422
f 416/416/416 414/414/414 422/422/422
f 398/398/398 394/394/394 421/421/421
f 416/416/416 422/422/422 423/423/423
f 412/412/412 416/416/416 423/423/423
f 394/394/394 424/424/424 421/421/421
f 412/412/412 423/423/423 425/425/425
f 394/394/394 390/390/390 424/424/424
f 408/408/408 412/412/412 425/425/425
f 390/390/390 426/426/426 424/424/424
f 408/408/408 425/425/425 427/427/427
f 390/390/390 385/385/385 426/426/426
f 404/404/404 408/408/408 427/427/427
f 385/385/385 428/428/428 426/426/426
f 404/404/404 427/427/427 429/429/429
f 385/385/385 388/388/388 428/428/428
f 400/400/400 404/404/404 429/429/429
f 388/388/388 430/430/430 428/428/428
f 400/400/400 429/429/429 431/431/431
f 388/388/388 392/392/392 430/430/430
f 396/396/396 400/400/400 431/431/431
f 392/392/392 432/432/432 430/430/430
f 396/396/396 431/431/431 432/432/432
f 392/392/392 396/396/396 432/432/432
f 435/435/435 434/434/434 433/433/433
f 436/436/436 435/435/435 433/433/433
f 433/433/433 434/434/434 437/437/437
f 438/438/438 435/435/435 436/436/436
f 434/434/434 439/439/439 437/437/437
f 440/440/440 438/438/438 436/436/436
f 437/437/437 439/439/439 441/441/441
f 442/442/442 438/438/438 440/440/440
f 439/439/439 443/443/443 441/441/441
f 444/444/444 442/442/442 440/440/440
f 441/441/441 443/443/443 445/445/445
f 446/446/446 442/442/442 444/444/444
f 443/443/443 447/447/447 445/445/445
f 448/448/448 446/446/446 444/444/444
f 445/445/445 447/447/447 449/449/449
f 450/450/450 446/446/446 448/448/448
f 447/447/447 451/451/451 449/449/449
f 452/452/452 450/450/450 448/448/448
f 449/449/449 451/451/451 453/453/453
f 454/454/454 450/450/450 452/452/452
f 451/451/451 455/455/455 453/453/453
f 456/456/456 454/454/454 452/452/452
f 453/453/453 455/455/455 457/457/457
f 458/458/458 454/454/454 456/456/456
f 455/455/455 459/459/459 457/457/457
f 460/460/460 458/458/458 456/456/456
f 457/457/457 459/459/459 461/461/461
f 462/462/462 458/458/458 460/460/460
f 459/459/459 463/463/463 461/461/461
f 464/464/464 462/462/462 460/460/460
f 461/461/461 463/463/463 464/464/464
f 463/463/463 462/462/462 464/464/464
f 467/467/467 466/466/466 465/465/465
f 468/468/468 467/467/467 465/465/465
f 467/467/467 468/468/468 469/469/469
f 470/470/470 465/465/465 466/466/466
f 471/471/471 470/470/470 466/466/466
f 468/468/468 472/472/472 469/469/469
f 469/469/469 472/472/472 473/473/473
f 474/474/474 470/470/470 471/471/471
f 475/475/475 474/474/474 471/471/471
f 472/472/472 476/476/476 473/473/473
f 473/473/473 476/476/476 477/477/477
f 478/478/478 474/474/474 475/475/475
f 479/479/479 478/478/478 475/475/475
f 476/476/476 480/480/480 477/477/477
f 477/477/477 480/480/480 481/481/481
f 482/482/482 478/478/478 479/479/479
f 483/483/483 482/482/482 479/479/479
f 480/480/480 484/484/484 481/481/481
f 481/481/481 484/484/484 485/485/485
f 486/486/486 482/482/482 483/483/483
f 487/487/487 486/486/486 483/483/483
f 484/484/484 488/488/488 485/485/485
f 485/485/485 488/488/488 489/489/489
f 490/490/490 486/486/486 487/487/487
f 491/491/491 490/490/490 487/487/487
f 488/488/488 492/492/492 489/489/489
f 489/489/489 492/492/492 493/493/493
f 494/494/494 490/490/490 491/491/491
f 495/495/495 494/494/494 491/491/491
f 493/493/493 496/496/496 495/495/495
f 492/492/492 496/496/496 493/493/493
f 496/496/496 494/494/494 495/495/495
f 482/482/482 486/486/486 497/497/497
f 498/498/498 482/482/482 497/497/497
f 497/497/497 486/486/486 499/499/499
f 486/486/486 490/490/490 499/499/499
f 478/478/478 482/482/482 498/498/498
f 499/499/499 490/490/490 500/500/500
f 490/490/490 494/494/494 500/500/500
f 501/501/501 478/478/478 498/498/498
f 500/500/500 494/494/494 502/502/502
f 494/494/494 496/496/496 502/502/502
f 474/474/474 478/478/478 501/501/501
f 502/502/502 496/496/496 503/503/503
f 496/496/496 492/492/492 503/503/503
f 504/504/504 474/474/474 501/501/501
f 503/503/503 492/492/492 505/505/505
f 470/470/470 474/474/474 504/504/504
f 492/492/492 488/488/488 505/505/505
f 506/506/506 470/470/470 504/504/504
f 505/505/505 488/488/488 507/507/507
f 465/465/465 470/470/470 506/506/506
f 488/488/488 484/484/484 507/507/507
f 508/508/508 465/465/465 506/506/506
f 507/507/507 484/484/484 509/509/509
f 468/468/468 465/465/465 508/508/508
f 484/484/484 480/480/480 509/509/509
f 510/510/510 468/468/468 508/508/508
f 509/509/509 480/480/480 511/511/511
f 472/472/472 468/468/468 510/510/510
f 480/480/480 476/476/476 511/511/511
f 512/512/512 472/472/472 510/510/510
f 511/511/511 476/476/476 512/512/512
f 476/476/476 472/472/472 512/512/512
f 515/515/515 514/514/514 513/513/513
f 514/514/514 516/516/516 513/513/513
f 515/515/515 513/513/513 517/517/517
f 514/514/514 518/518/518 516/516/516
f 519/519/519 515/515/515 517/517/517
f 518/518/518 520/520/520 516/516/516
f 519/519/519 517/517/517 521/521/521
f 518/518/518 522/522/522 520/520/520
f 523/523/523 519/519/519 521/521/521
f 522/522/522 524/524/524 520/520/520
f 523/523/523 521/521/521 525/525/525
f 522/522/522 526/526/526 524/524/524
f 527/527/527 523/523/523 525/525/525
f 526/526/526 528/528/528 524/524/524
f 527/527/527 525/525/525 529/529/529
f 526/526/526 530/530/530 528/528/528
f 531/531/531 527/527/527 529/529/529
f 530/530/530 532/532/532 528/528/528
f 531/531/531 529/529/529 533/533/533
f 530/530/530 534/534/534 532/532/532
f 535/535/535 531/531/531 533/533/533
f 534/534/534 536/536/536 532/532/532
f 535/535/535 533/533/533 537/537/537
f 534/534/534 538/538/538 536/536/536
f 539/539/539 535/535/535 537/537/537
f 538/538/538 540/540/540 536/536/536
f 539/539/539 537/537/537 541/541/541
f 538/538/538 542/542/542 540/540/540
f 543/543/543 539/539/539 541/541/541
f 542/542/542 544/544/544 540/540/540
f 543/543/543 541/541/541 544/544/544
f 542/542/542 543/543/543 544/544/544

