mtllib Doorway_1.mtl
v 0.002425804 -1.016 0.01699996
v -0.9159593 -1.016 0.01699996
v -0.9159593 1.015742 0.01699997
v 0.002425804 1.015742 0.01699997
v -0.9159593 -1.016 -0.01700028
v 0.002425804 -1.016 -0.01700028
v 0.002425804 1.015742 -0.01700028
v -0.9159593 1.015742 -0.01700028
v -0.9159593 1.015742 0.01699997
v -0.9159593 1.015742 -0.01700028
v 0.002425804 1.015742 -0.01700028
v 0.002425804 1.015742 0.01699997
v 0.002425804 1.015742 0.01699997
v 0.002425804 1.015742 -0.01700028
v 0.002425804 -1.016 -0.01700028
v 0.002425804 -1.016 0.01699996
v 0.002425804 -1.016 0.01699996
v 0.002425804 -1.016 -0.01700028
v -0.9159593 -1.016 -0.01700028
v -0.9159593 -1.016 0.01699996
v -0.9159593 -1.016 0.01699996
v -0.9159593 -1.016 -0.01700028
v -0.9159593 1.015742 -0.01700028
v -0.9159593 1.015742 0.01699997
v -0.8181235 -0.08621315 0.01686293
v -0.8247818 -0.07206871 0.01972519
v -0.826456 -0.0737429 0.01686293
v -0.8159363 -0.08530723 0.01972519
v -0.8151976 -0.1009229 0.01686293
v -0.81283 -0.1009229 0.01972519
v -0.8181235 -0.1156327 0.01686293
v -0.8159363 -0.1165386 0.01972519
v -0.826456 -0.1281031 0.01686293
v -0.8247818 -0.1297771 0.01972519
v -0.8242166 -0.07150337 0.02340974
v -0.8151976 -0.0850013 0.02340974
v -0.8120306 -0.1009229 0.02340974
v -0.8151976 -0.1168447 0.02340974
v -0.8377143 -0.06248451 0.02340974
v -0.8380202 -0.06322303 0.01972519
v -0.8380202 -0.06322303 0.02729463
v -0.8247818 -0.07206871 0.02729463
v -0.8159363 -0.08530723 0.02729463
v -0.826456 -0.0737429 0.02966931
v -0.8181235 -0.08621315 0.02966931
v -0.81283 -0.1009229 0.02729463
v -0.8151976 -0.1009229 0.02966931
v -0.8159363 -0.1165386 0.02729463
v -0.8181235 -0.1156327 0.02966931
v -0.8242166 -0.1303425 0.02340974
v -0.8380203 -0.1386228 0.01972519
v -0.8377144 -0.1393615 0.02340974
v -0.8247818 -0.1297771 0.02729463
v -0.826456 -0.1281031 0.02966931
v -0.8380203 -0.1386228 0.02729463
v -0.826456 -0.0737429 0.01686293
v -0.8247818 -0.07206871 0.01972519
v -0.8380202 -0.06322303 0.01972519
v -0.8389263 -0.06541038 0.01686293
v -0.853636 -0.06011681 0.01972519
v -0.853636 -0.06248451 0.01686293
v -0.853636 -0.0593174 0.02340974
v -0.8377143 -0.06248451 0.02340974
v -0.8692518 -0.06322303 0.01972519
v -0.8683459 -0.06541038 0.01686293
v -0.8824904 -0.07206871 0.01972519
v -0.8808162 -0.0737429 0.01686293
v -0.8695578 -0.06248451 0.02340974
v -0.8692518 -0.06322303 0.02729463
v -0.853636 -0.06011681 0.02729463
v -0.8380202 -0.06322303 0.02729463
v -0.8683459 -0.06541038 0.02966931
v -0.8808162 -0.0737429 0.02966931
v -0.8824904 -0.07206871 0.02729463
v -0.853636 -0.06248451 0.02966931
v -0.8389263 -0.06541038 0.02966931
v -0.8247818 -0.07206871 0.02729463
v -0.826456 -0.0737429 0.02966931
v -0.8891486 -0.1156327 0.01686293
v -0.8824904 -0.1297771 0.01972519
v -0.8808162 -0.1281031 0.01686293
v -0.891336 -0.1165386 0.01972519
v -0.8920746 -0.1009229 0.01686293
v -0.8944421 -0.1009229 0.01972519
v -0.8891486 -0.08621315 0.01686293
v -0.891336 -0.08530708 0.01972519
v -0.8808162 -0.0737429 0.01686293
v -0.8824904 -0.07206871 0.01972519
v -0.8830556 -0.1303425 0.02340974
v -0.8920746 -0.1168447 0.02340974
v -0.8952416 -0.1009229 0.02340974
v -0.8920746 -0.08500114 0.02340974
v -0.8695578 -0.1393615 0.02340974
v -0.8692518 -0.1386228 0.01972519
v -0.8692518 -0.1386228 0.02729463
v -0.8824904 -0.1297771 0.02729463
v -0.891336 -0.1165386 0.02729463
v -0.8808162 -0.1281031 0.02966931
v -0.8891486 -0.1156327 0.02966931
v -0.8944421 -0.1009229 0.02729463
v -0.8920746 -0.1009229 0.02966931
v -0.891336 -0.08530708 0.02729463
v -0.8891486 -0.08621315 0.02966931
v -0.8830556 -0.07150337 0.02340974
v -0.8692518 -0.06322303 0.01972519
v -0.8695578 -0.06248451 0.02340974
v -0.8824904 -0.07206871 0.02729463
v -0.8808162 -0.0737429 0.02966931
v -0.8692518 -0.06322303 0.02729463
v -0.8808162 -0.1281031 0.01686293
v -0.8824904 -0.1297771 0.01972519
v -0.8692518 -0.1386228 0.01972519
v -0.8683459 -0.1364355 0.01686293
v -0.8536361 -0.141729 0.01972519
v -0.8536361 -0.1393615 0.01686293
v -0.8536361 -0.1425285 0.02340974
v -0.8695578 -0.1393615 0.02340974
v -0.8380203 -0.1386228 0.01972519
v -0.8389263 -0.1364355 0.01686293
v -0.8247818 -0.1297771 0.01972519
v -0.826456 -0.1281031 0.01686293
v -0.8377144 -0.1393615 0.02340974
v -0.8380203 -0.1386228 0.02729463
v -0.8536361 -0.141729 0.02729463
v -0.8692518 -0.1386228 0.02729463
v -0.8389263 -0.1364355 0.02966931
v -0.826456 -0.1281031 0.02966931
v -0.8247818 -0.1297771 0.02729463
v -0.8536361 -0.1393615 0.02966931
v -0.8683459 -0.1364355 0.02966931
v -0.8824904 -0.1297771 0.02729463
v -0.8808162 -0.1281031 0.02966931
v -0.8455665 -0.08144142 0.03653947
v -0.8536361 -0.07866432 0.03376463
v -0.8451181 -0.08035865 0.03376463
v -0.8536361 -0.0798362 0.03653947
v -0.8621541 -0.08035865 0.03376463
v -0.8617056 -0.08144142 0.03653947
v -0.8617056 -0.08144142 0.04171738
v -0.8536361 -0.0798362 0.04171738
v -0.8455665 -0.08144142 0.04171738
v -0.8536361 -0.08079155 0.04265432
v -0.8459321 -0.08232399 0.04265432
v -0.839401 -0.08668785 0.04265432
v -0.8387255 -0.08601234 0.04171738
v -0.8613401 -0.08232399 0.04265432
v -0.8685469 -0.08601234 0.04171738
v -0.8678714 -0.08668785 0.04265432
v -0.8617056 -0.08144142 0.03653947
v -0.8693755 -0.08518364 0.03376463
v -0.8621541 -0.08035865 0.03376463
v -0.8685469 -0.08601234 0.03653947
v -0.8742004 -0.09240486 0.03376463
v -0.8685469 -0.08601234 0.04171738
v -0.8617056 -0.08144142 0.04171738
v -0.8731178 -0.09285332 0.03653947
v -0.8758948 -0.1009229 0.03376463
v -0.8731178 -0.09285332 0.04171738
v -0.8678714 -0.08668785 0.04265432
v -0.8722352 -0.09321892 0.04265432
v -0.8747229 -0.1009229 0.04171738
v -0.8737676 -0.1009229 0.04265432
v -0.8747229 -0.1009229 0.03653947
v -0.8742004 -0.109441 0.03376463
v -0.8731178 -0.1089925 0.04171738
v -0.8722352 -0.1086269 0.04265432
v -0.8731178 -0.1089925 0.03653947
v -0.8693755 -0.1166622 0.03376463
v -0.8685469 -0.1158335 0.04171738
v -0.8678714 -0.115158 0.04265432
v -0.8685469 -0.1158335 0.03653947
v -0.8621541 -0.1214872 0.03376463
v -0.8617056 -0.1204046 0.04171738
v -0.8617056 -0.1204046 0.03653947
v -0.8617056 -0.1204046 0.03653947
v -0.8536361 -0.1231815 0.03376463
v -0.8621541 -0.1214872 0.03376463
v -0.8536361 -0.1220097 0.03653947
v -0.8451181 -0.1214872 0.03376463
v -0.8455665 -0.1204046 0.03653947
v -0.8455665 -0.1204046 0.04171738
v -0.8536361 -0.1220097 0.04171738
v -0.8617056 -0.1204046 0.04171738
v -0.8536361 -0.1210543 0.04265432
v -0.8613401 -0.119522 0.04265432
v -0.8678714 -0.115158 0.04265432
v -0.8685469 -0.1158335 0.04171738
v -0.8459321 -0.119522 0.04265432
v -0.8387255 -0.1158335 0.04171738
v -0.839401 -0.115158 0.04265432
v -0.8455665 -0.1204046 0.03653947
v -0.8378969 -0.1166622 0.03376463
v -0.8451181 -0.1214872 0.03376463
v -0.8387255 -0.1158335 0.03653947
v -0.8330717 -0.109441 0.03376463
v -0.8387255 -0.1158335 0.04171738
v -0.8455665 -0.1204046 0.04171738
v -0.8341545 -0.1089925 0.03653947
v -0.8313774 -0.1009229 0.03376463
v -0.8341545 -0.1089925 0.04171738
v -0.839401 -0.115158 0.04265432
v -0.8350371 -0.1086269 0.04265432
v -0.8325493 -0.1009229 0.04171738
v -0.8335046 -0.1009229 0.04265432
v -0.8325493 -0.1009229 0.03653947
v -0.8330717 -0.09240486 0.03376463
v -0.8341545 -0.09285332 0.04171738
v -0.8350371 -0.09321892 0.04265432
v -0.8341545 -0.09285332 0.03653947
v -0.8378969 -0.08518379 0.03376463
v -0.8387255 -0.08601234 0.04171738
v -0.839401 -0.08668785 0.04265432
v -0.8387255 -0.08601234 0.03653947
v -0.8451181 -0.08035865 0.03376463
v -0.8455665 -0.08144142 0.04171738
v -0.8455665 -0.08144142 0.03653947
v -0.8181235 -0.08620155 -0.01668497
v -0.826456 -0.0737313 -0.01667635
v -0.8247818 -0.07205513 -0.01953744
v -0.8159363 -0.0852935 -0.01954659
v -0.8151976 -0.1009113 -0.01669513
v -0.81283 -0.1009093 -0.01955738
v -0.8181235 -0.1156211 -0.0167053
v -0.8159363 -0.116525 -0.01956818
v -0.826456 -0.1280914 -0.01671392
v -0.8247818 -0.1297636 -0.01957733
v -0.8242166 -0.0714872 -0.0232216
v -0.8151976 -0.08498512 -0.02323093
v -0.8120306 -0.1009068 -0.02324194
v -0.8151976 -0.1168287 -0.02325294
v -0.8377143 -0.06246834 -0.02321537
v -0.8380202 -0.06320946 -0.01953133
v -0.8380202 -0.06320427 -0.02710077
v -0.8247818 -0.07204994 -0.02710688
v -0.8159363 -0.08528832 -0.02711603
v -0.826456 -0.07372246 -0.02948273
v -0.8181235 -0.0861927 -0.02949135
v -0.81283 -0.1009042 -0.02712683
v -0.8151976 -0.1009025 -0.02950151
v -0.8159363 -0.1165198 -0.02713762
v -0.8181235 -0.1156123 -0.02951168
v -0.8242166 -0.1303265 -0.02326227
v -0.8380203 -0.1386092 -0.01958344
v -0.8377144 -0.1393453 -0.0232685
v -0.8247818 -0.1297584 -0.02714677
v -0.826456 -0.1280825 -0.0295203
v -0.8380203 -0.138604 -0.02715288
v -0.826456 -0.0737313 -0.01667635
v -0.8380202 -0.06320946 -0.01953133
v -0.8247818 -0.07205513 -0.01953744
v -0.8389263 -0.06539879 -0.01667059
v -0.853636 -0.06010322 -0.01952918
v -0.853636 -0.06247291 -0.01666857
v -0.853636 -0.05930122 -0.02321318
v -0.8377143 -0.06246834 -0.02321537
v -0.8692518 -0.06320946 -0.01953133
v -0.8683459 -0.06539879 -0.01667059
v -0.8824904 -0.07205497 -0.01953744
v -0.8808162 -0.0737313 -0.01667635
v -0.8695578 -0.06246834 -0.02321537
v -0.8692518 -0.06320427 -0.02710077
v -0.853636 -0.06009804 -0.02709862
v -0.8380202 -0.06320427 -0.02710077
v -0.8683459 -0.06538994 -0.02947697
v -0.8808162 -0.07372246 -0.02948273
v -0.8824904 -0.07204979 -0.02710688
v -0.853636 -0.06246407 -0.02947495
v -0.8389263 -0.06538994 -0.02947697
v -0.8247818 -0.07204994 -0.02710688
v -0.826456 -0.07372246 -0.02948273
v -0.8891486 -0.1156211 -0.0167053
v -0.8808162 -0.1280914 -0.01671392
v -0.8824904 -0.1297636 -0.01957733
v -0.891336 -0.116525 -0.01956818
v -0.8920746 -0.1009113 -0.01669513
v -0.8944421 -0.1009093 -0.01955738
v -0.8891486 -0.08620155 -0.01668497
v -0.891336 -0.0852935 -0.01954659
v -0.8808162 -0.0737313 -0.01667635
v -0.8824904 -0.07205497 -0.01953744
v -0.8830556 -0.1303265 -0.02326227
v -0.8920746 -0.1168285 -0.02325294
v -0.8952416 -0.1009068 -0.02324194
v -0.8920746 -0.08498497 -0.02323093
v -0.8695578 -0.1393453 -0.0232685
v -0.8692518 -0.1386092 -0.01958344
v -0.8692518 -0.138604 -0.02715288
v -0.8824904 -0.1297584 -0.02714677
v -0.891336 -0.1165198 -0.02713762
v -0.8808162 -0.1280825 -0.0295203
v -0.8891486 -0.1156123 -0.02951168
v -0.8944421 -0.1009042 -0.02712683
v -0.8920746 -0.1009025 -0.02950151
v -0.891336 -0.08528832 -0.02711603
v -0.8891486 -0.0861927 -0.02949135
v -0.8830556 -0.0714872 -0.0232216
v -0.8692518 -0.06320946 -0.01953133
v -0.8695578 -0.06246834 -0.02321537
v -0.8824904 -0.07204979 -0.02710688
v -0.8808162 -0.07372246 -0.02948273
v -0.8692518 -0.06320427 -0.02710077
v -0.8808162 -0.1280914 -0.01671392
v -0.8692518 -0.1386092 -0.01958344
v -0.8824904 -0.1297636 -0.01957733
v -0.8683459 -0.1364239 -0.01671968
v -0.8536361 -0.1417155 -0.01958559
v -0.8536361 -0.1393499 -0.0167217
v -0.8536361 -0.1425123 -0.02327069
v -0.8695578 -0.1393453 -0.0232685
v -0.8380203 -0.1386092 -0.01958344
v -0.8389263 -0.1364239 -0.01671968
v -0.8247818 -0.1297636 -0.01957733
v -0.826456 -0.1280914 -0.01671392
v -0.8377144 -0.1393453 -0.0232685
v -0.8380203 -0.138604 -0.02715288
v -0.8536361 -0.1417103 -0.02715503
v -0.8692518 -0.138604 -0.02715288
v -0.8389263 -0.136415 -0.02952606
v -0.826456 -0.1280825 -0.0295203
v -0.8247818 -0.1297584 -0.02714677
v -0.8536361 -0.139341 -0.02952808
v -0.8683459 -0.136415 -0.02952606
v -0.8824904 -0.1297584 -0.02714677
v -0.8808162 -0.1280825 -0.0295203
v -0.8455665 -0.08141624 -0.0363582
v -0.8451181 -0.08033531 -0.03358262
v -0.8536361 -0.07864098 -0.03358144
v -0.8536361 -0.07981102 -0.03635709
v -0.8621541 -0.08033531 -0.03358262
v -0.8617056 -0.08141624 -0.0363582
v -0.8617056 -0.08141258 -0.0415361
v -0.8536361 -0.07980751 -0.04153499
v -0.8455665 -0.08141258 -0.0415361
v -0.8536361 -0.0807621 -0.0424726
v -0.8459321 -0.08229454 -0.04247366
v -0.839401 -0.0866584 -0.04247668
v -0.8387255 -0.08598366 -0.04153926
v -0.8613401 -0.08229454 -0.04247366
v -0.8685469 -0.0859835 -0.04153926
v -0.8678714 -0.0866584 -0.04247668
v -0.8617056 -0.08141624 -0.0363582
v -0.8621541 -0.08033531 -0.03358262
v -0.8693755 -0.08516044 -0.03358595
v -0.8685469 -0.08598717 -0.03636136
v -0.8742004 -0.09238151 -0.03359094
v -0.8685469 -0.0859835 -0.04153926
v -0.8617056 -0.08141258 -0.0415361
v -0.8731178 -0.09282814 -0.03636609
v -0.8758948 -0.1008997 -0.03359683
v -0.8731178 -0.09282463 -0.04154399
v -0.8678714 -0.0866584 -0.04247668
v -0.8722352 -0.09318946 -0.04248119
v -0.8747229 -0.1008941 -0.04154957
v -0.8737676 -0.1008935 -0.04248651
v -0.8747229 -0.1008978 -0.03637167
v -0.8742004 -0.1094176 -0.03360271
v -0.8731178 -0.1089637 -0.04155515
v -0.8722352 -0.1085975 -0.04249184
v -0.8731178 -0.1089672 -0.03637725
v -0.8693755 -0.1166389 -0.03360771
v -0.8685469 -0.1158047 -0.04155988
v -0.8678714 -0.1151286 -0.04249636
v -0.8685469 -0.1158083 -0.03638197
v -0.8621541 -0.121464 -0.03361104
v -0.8617056 -0.1203757 -0.04156303
v -0.8617056 -0.1203793 -0.03638513
v -0.8617056 -0.1203793 -0.03638513
v -0.8621541 -0.121464 -0.03361104
v -0.8536361 -0.1231583 -0.03361221
v -0.8536361 -0.1219845 -0.03638624
v -0.8451181 -0.121464 -0.03361104
v -0.8455665 -0.1203793 -0.03638513
v -0.8455665 -0.1203757 -0.04156303
v -0.8536361 -0.1219808 -0.04156414
v -0.8617056 -0.1203757 -0.04156303
v -0.8536361 -0.1210249 -0.04250043
v -0.8613401 -0.1194926 -0.04249937
v -0.8678714 -0.1151286 -0.04249636
v -0.8685469 -0.1158047 -0.04155988
v -0.8459321 -0.1194926 -0.04249937
v -0.8387255 -0.1158047 -0.04155988
v -0.839401 -0.1151286 -0.04249636
v -0.8455665 -0.1203793 -0.03638513
v -0.8451181 -0.121464 -0.03361104
v -0.8378969 -0.1166389 -0.03360771
v -0.8387255 -0.1158083 -0.03638197
v -0.8330717 -0.1094176 -0.03360271
v -0.8387255 -0.1158047 -0.04155988
v -0.8455665 -0.1203757 -0.04156303
v -0.8341545 -0.1089672 -0.03637725
v -0.8313774 -0.1008997 -0.03359683
v -0.8341545 -0.1089637 -0.04155515
v -0.839401 -0.1151286 -0.04249636
v -0.8350371 -0.1085975 -0.04249184
v -0.8325493 -0.1008941 -0.04154957
v -0.8335046 -0.1008935 -0.04248651
v -0.8325493 -0.1008978 -0.03637167
v -0.8330717 -0.09238151 -0.03359094
v -0.8341545 -0.09282463 -0.04154399
v -0.8350371 -0.09318946 -0.04248119
v -0.8341545 -0.09282814 -0.03636609
v -0.8378969 -0.08516044 -0.03358595
v -0.8387255 -0.08598366 -0.04153926
v -0.839401 -0.0866584 -0.04247668
v -0.8387255 -0.08598717 -0.03636136
v -0.8451181 -0.08033531 -0.03358262
v -0.8455665 -0.08141258 -0.0415361
v -0.8455665 -0.08141624 -0.0363582
v -0.8304579 -0.09132225 0.03261525
v -0.8313774 -0.1009229 0.03376463
v -0.8330717 -0.09240486 0.03376463
v -0.8285482 -0.1009229 0.03261525
v -0.8330717 -0.109441 0.03376463
v -0.8358963 -0.08318321 0.03261525
v -0.8378969 -0.08518379 0.03376463
v -0.8304579 -0.1105236 0.03261525
v -0.8378969 -0.1166622 0.03376463
v -0.8440353 -0.07774483 0.03261525
v -0.8451181 -0.08035865 0.03376463
v -0.8358963 -0.1186628 0.03261525
v -0.8451181 -0.1214872 0.03376463
v -0.8536361 -0.07583519 0.03261525
v -0.8536361 -0.07866432 0.03376463
v -0.8440354 -0.124101 0.03261525
v -0.8536361 -0.1231815 0.03376463
v -0.8632368 -0.07774483 0.03261525
v -0.8621541 -0.08035865 0.03376463
v -0.8536361 -0.1260108 0.03261525
v -0.8621541 -0.1214872 0.03376463
v -0.871376 -0.08318306 0.03261525
v -0.8693755 -0.08518364 0.03376463
v -0.8632368 -0.124101 0.03261525
v -0.8693755 -0.1166622 0.03376463
v -0.8768143 -0.09132225 0.03261525
v -0.8742004 -0.09240486 0.03376463
v -0.871376 -0.1186628 0.03261525
v -0.8742004 -0.109441 0.03376463
v -0.8787239 -0.1009229 0.03261525
v -0.8758948 -0.1009229 0.03376463
v -0.8768143 -0.1105236 0.03261525
v -0.8808162 -0.0737429 0.02966931
v -0.8683459 -0.06541038 0.02966931
v -0.8891486 -0.08621315 0.02966931
v -0.8920746 -0.1009229 0.02966931
v -0.853636 -0.06248451 0.02966931
v -0.8891486 -0.1156327 0.02966931
v -0.8808162 -0.1281031 0.02966931
v -0.8389263 -0.06541038 0.02966931
v -0.8683459 -0.1364355 0.02966931
v -0.826456 -0.0737429 0.02966931
v -0.8536361 -0.1393615 0.02966931
v -0.8181235 -0.08621315 0.02966931
v -0.8389263 -0.1364355 0.02966931
v -0.8151976 -0.1009229 0.02966931
v -0.826456 -0.1281031 0.02966931
v -0.8181235 -0.1156327 0.02966931
v -0.8350371 -0.09321892 0.04265432
v -0.8370967 -0.09407204 0.04265432
v -0.8409774 -0.08826423 0.04265432
v -0.839401 -0.08668785 0.04265432
v -0.8335046 -0.1009229 0.04265432
v -0.8467852 -0.08438362 0.04265432
v -0.835734 -0.1009229 0.04265432
v -0.8459321 -0.08232399 0.04265432
v -0.8350371 -0.1086269 0.04265432
v -0.8536361 -0.08302086 0.04265432
v -0.8370967 -0.1077738 0.04265432
v -0.8536361 -0.08079155 0.04265432
v -0.839401 -0.115158 0.04265432
v -0.8604869 -0.08438362 0.04265432
v -0.8409774 -0.1135816 0.04265432
v -0.8613401 -0.08232399 0.04265432
v -0.8459321 -0.119522 0.04265432
v -0.866295 -0.08826423 0.04265432
v -0.8467852 -0.1174622 0.04265432
v -0.8678714 -0.08668785 0.04265432
v -0.8536361 -0.1210543 0.04265432
v -0.8701756 -0.09407204 0.04265432
v -0.8536361 -0.118825 0.04265432
v -0.8722352 -0.09321892 0.04265432
v -0.8613401 -0.119522 0.04265432
v -0.8715382 -0.1009229 0.04265432
v -0.8604869 -0.1174622 0.04265432
v -0.8737676 -0.1009229 0.04265432
v -0.8678714 -0.115158 0.04265432
v -0.8701756 -0.1077738 0.04265432
v -0.866295 -0.1135816 0.04265432
v -0.8722352 -0.1086269 0.04265432
v -0.8304579 -0.09129967 -0.03244082
v -0.8330717 -0.09238151 -0.03359094
v -0.8313774 -0.1008997 -0.03359683
v -0.8285482 -0.1009005 -0.03244745
v -0.8330717 -0.1094176 -0.03360271
v -0.8358963 -0.08316062 -0.03243519
v -0.8378969 -0.08516044 -0.03358595
v -0.8304579 -0.1105012 -0.03245408
v -0.8378969 -0.1166389 -0.03360771
v -0.8440353 -0.07772239 -0.03243143
v -0.8451181 -0.08033531 -0.03358262
v -0.8358963 -0.1186402 -0.03245971
v -0.8451181 -0.121464 -0.03361104
v -0.8536361 -0.07581261 -0.03243011
v -0.8536361 -0.07864098 -0.03358144
v -0.8440354 -0.1240784 -0.03246347
v -0.8536361 -0.1231583 -0.03361221
v -0.8632368 -0.07772239 -0.03243143
v -0.8621541 -0.08033531 -0.03358262
v -0.8536361 -0.1259882 -0.03246479
v -0.8621541 -0.121464 -0.03361104
v -0.871376 -0.08316062 -0.03243519
v -0.8693755 -0.08516044 -0.03358595
v -0.8632368 -0.1240784 -0.03246347
v -0.8693755 -0.1166389 -0.03360771
v -0.8768143 -0.09129967 -0.03244082
v -0.8742004 -0.09238151 -0.03359094
v -0.871376 -0.1186402 -0.03245971
v -0.8742004 -0.1094176 -0.03360271
v -0.8787239 -0.1009005 -0.03244745
v -0.8758948 -0.1008997 -0.03359683
v -0.8768143 -0.1105012 -0.03245408
v -0.8808162 -0.07372246 -0.02948273
v -0.8683459 -0.06538994 -0.02947697
v -0.8891486 -0.0861927 -0.02949135
v -0.8920746 -0.1009025 -0.02950151
v -0.853636 -0.06246407 -0.02947495
v -0.8891486 -0.1156123 -0.02951168
v -0.8808162 -0.1280825 -0.0295203
v -0.8389263 -0.06538994 -0.02947697
v -0.8683459 -0.136415 -0.02952606
v -0.826456 -0.07372246 -0.02948273
v -0.8536361 -0.139341 -0.02952808
v -0.8181235 -0.0861927 -0.02949135
v -0.8389263 -0.136415 -0.02952606
v -0.8151976 -0.1009025 -0.02950151
v -0.826456 -0.1280825 -0.0295203
v -0.8181235 -0.1156123 -0.02951168
v -0.8350371 -0.09318946 -0.04248119
v -0.8409774 -0.08823478 -0.04247777
v -0.8370967 -0.09404258 -0.04248178
v -0.839401 -0.0866584 -0.04247668
v -0.8335046 -0.1008935 -0.04248651
v -0.8467852 -0.08435417 -0.04247509
v -0.835734 -0.1008935 -0.04248651
v -0.8459321 -0.08229454 -0.04247366
v -0.8350371 -0.1085975 -0.04249184
v -0.8536361 -0.08299141 -0.04247414
v -0.8370967 -0.1077444 -0.04249125
v -0.8536361 -0.0807621 -0.0424726
v -0.839401 -0.1151286 -0.04249636
v -0.8604869 -0.08435417 -0.04247509
v -0.8409774 -0.1135522 -0.04249527
v -0.8613401 -0.08229454 -0.04247366
v -0.8459321 -0.1194926 -0.04249937
v -0.866295 -0.08823478 -0.04247777
v -0.8467852 -0.1174328 -0.04249795
v -0.8678714 -0.0866584 -0.04247668
v -0.8536361 -0.1210249 -0.04250043
v -0.8701756 -0.09404258 -0.04248178
v -0.8536361 -0.1187955 -0.04249889
v -0.8722352 -0.09318946 -0.04248119
v -0.8613401 -0.1194926 -0.04249937
v -0.8715382 -0.1008935 -0.04248651
v -0.8604869 -0.1174328 -0.04249795
v -0.8737676 -0.1008935 -0.04248651
v -0.8678714 -0.1151286 -0.04249636
v -0.8701756 -0.1077444 -0.04249125
v -0.866295 -0.1135522 -0.04249527
v -0.8722352 -0.1085975 -0.04249184
vt -9.059475 -1.121567
vt -10.49445 -1.121567
vt -10.49445 2.05303
vt -9.059473 2.05303
vt -10.03866 2.093532
vt -8.603684 2.093532
vt -8.603685 -1.081064
vt -10.03866 -1.081064
vt -9.059429 0.9463152
vt -9.006307 0.9463152
vt -9.006308 -0.4886414
vt -9.05943 -0.4886414
vt -9.105203 2.053025
vt -9.052077 2.053025
vt -9.052077 -1.121562
vt -9.105203 -1.121562
vt -8.983427 -0.4886546
vt -9.036552 -0.4886546
vt -9.036552 0.9463282
vt -8.983427 0.9463282
vt -9.029194 -1.121565
vt -9.082319 -1.121565
vt -9.082319 2.053028
vt -9.029194 2.053028
vt -19.04395 0.04556281
vt -19.04916 0.07129498
vt -19.04395 0.06824933
vt -19.04916 0.04721083
vt -19.04395 0.01880182
vt -19.04916 0.01880182
vt -19.04395 -0.00795917
vt -19.04916 -0.009607183
vt -19.04395 -0.03064613
vt -19.04916 -0.03369133
vt -19.05586 0.07232358
vt -19.05586 0.0477673
vt -19.05586 0.01880182
vt -19.05586 -0.0101641
vt -19.05586 0.08873134
vt -19.04916 0.08738768
vt -19.06293 0.08738768
vt -19.06293 0.07129498
vt -19.06293 0.04721083
vt -19.06725 0.06824933
vt -19.06725 0.04556281
vt -19.06293 0.01880182
vt -19.06725 0.01880182
vt -19.06293 -0.009607183
vt -19.06725 -0.00795917
vt -19.05586 -0.03471994
vt -19.04916 -0.04978403
vt -19.05586 -0.05112793
vt -19.06293 -0.03369133
vt -19.06725 -0.03064613
vt -19.06293 -0.04978403
vt -19.09706 0.8767977
vt -19.10213 0.8738368
vt -19.10213 0.8972518
vt -19.09706 0.8988544
vt -19.10213 0.9248718
vt -19.09706 0.9248718
vt -19.10864 0.9248718
vt -19.10864 0.8967107
vt -19.10213 0.9524919
vt -19.09706 0.9508892
vt -19.10213 0.975907
vt -19.09706 0.972946
vt -19.10864 0.9530329
vt -19.11551 0.9524919
vt -19.11551 0.9248718
vt -19.11551 0.8972518
vt -19.11971 0.9508892
vt -19.11971 0.972946
vt -19.11551 0.975907
vt -19.11971 0.9248718
vt -19.11971 0.8988544
vt -19.11551 0.8738368
vt -19.11971 0.8767977
vt -19.0536 -0.007958231
vt -19.0484 -0.03368949
vt -19.0536 -0.03064438
vt -19.0484 -0.009606177
vt -19.0536 0.01880182
vt -19.0484 0.01880182
vt -19.0536 0.04556187
vt -19.0484 0.04721004
vt -19.0536 0.06824757
vt -19.0484 0.07129314
vt -19.04169 -0.03471806
vt -19.04169 -0.01016308
vt -19.04169 0.01880182
vt -19.04169 0.04776672
vt -19.04169 -0.05112546
vt -19.0484 -0.04978162
vt -19.03463 -0.04978162
vt -19.03463 -0.03368949
vt -19.03463 -0.009606177
vt -19.03031 -0.03064438
vt -19.03031 -0.007958231
vt -19.03463 0.01880182
vt -19.03031 0.01880182
vt -19.03463 0.04721004
vt -19.03031 0.04556187
vt -19.04169 0.0723217
vt -19.0484 0.08738527
vt -19.04169 0.08872887
vt -19.03463 0.07129314
vt -19.03031 0.06824757
vt -19.03463 0.08738527
vt -19.13149 0.9729454
vt -19.12643 0.9759064
vt -19.12643 0.9524915
vt -19.13149 0.9508889
vt -19.12643 0.9248717
vt -19.13149 0.9248717
vt -19.11991 0.9248717
vt -19.11991 0.9530324
vt -19.12643 0.8972523
vt -19.13149 0.8988546
vt -19.12643 0.8738374
vt -19.13149 0.8767983
vt -19.11991 0.8967112
vt -19.11304 0.8972523
vt -19.11304 0.9248717
vt -19.11304 0.9524915
vt -19.10884 0.8988546
vt -19.10884 0.8767983
vt -19.11304 0.8738374
vt -19.10884 0.9248717
vt -19.10884 0.9508889
vt -19.11304 0.9759064
vt -19.10884 0.9729454
vt -19.23981 0.9052681
vt -19.23518 0.9187303
vt -19.23518 0.9045202
vt -19.23981 0.9187303
vt -19.23518 0.9329405
vt -19.23981 0.9321925
vt -19.24845 0.9321925
vt -19.24845 0.9187303
vt -19.24845 0.9052681
vt -19.25002 0.9187303
vt -19.25002 0.9058784
vt -19.25002 0.8949826
vt -19.24845 0.8938558
vt -19.25002 0.9315827
vt -19.24845 0.9436053
vt -19.25002 0.9424785
vt -19.16769 0.9562644
vt -19.17268 0.9495328
vt -19.17268 0.958212
vt -19.16769 0.9480419
vt -19.17268 0.9365433
vt -19.15838 0.9480419
vt -19.15838 0.9562644
vt -19.16769 0.9357364
vt -19.17268 0.9212209
vt -19.15838 0.9357364
vt -19.15669 0.9468269
vt -19.15669 0.9350787
vt -19.15838 0.9212209
vt -19.15669 0.9212209
vt -19.16769 0.9212209
vt -19.17268 0.905898
vt -19.15838 0.906705
vt -19.15669 0.9073626
vt -19.16769 0.906705
vt -19.17268 0.8929082
vt -19.15838 0.8943987
vt -19.15669 0.8956139
vt -19.16769 0.8943987
vt -19.17268 0.8842293
vt -19.15838 0.8861767
vt -19.16769 0.8861767
vt -19.25544 0.9322117
vt -19.26008 0.9187303
vt -19.26008 0.9329606
vt -19.25544 0.9187303
vt -19.26008 0.9045
vt -19.25544 0.9052494
vt -19.24679 0.9052494
vt -19.24679 0.9187303
vt -19.24679 0.9322117
vt -19.24522 0.9187303
vt -19.24522 0.9316007
vt -19.24522 0.9425123
vt -19.24679 0.9436407
vt -19.24522 0.90586
vt -19.24679 0.8938204
vt -19.24522 0.8949488
vt -19.15163 0.886177
vt -19.14664 0.8929085
vt -19.14664 0.8842296
vt -19.15163 0.894399
vt -19.14664 0.9058982
vt -19.16095 0.894399
vt -19.16095 0.886177
vt -19.15163 0.9067051
vt -19.14664 0.9212209
vt -19.16095 0.9067051
vt -19.16263 0.8956142
vt -19.16263 0.9073626
vt -19.16095 0.9212209
vt -19.16263 0.9212209
vt -19.15163 0.9212209
vt -19.14664 0.9365432
vt -19.16095 0.9357362
vt -19.16263 0.9350787
vt -19.15163 0.9357362
vt -19.14664 0.9495321
vt -19.16095 0.9480416
vt -19.16263 0.9468266
vt -19.15163 0.9480416
vt -19.14664 0.9582117
vt -19.16095 0.9562641
vt -19.15163 0.9562641
vt -19.05648 0.08340505
vt -19.0565 0.1060905
vt -19.05129 0.1091398
vt -19.05128 0.08505698
vt -19.05646 0.05664553
vt -19.05126 0.0566491
vt -19.05644 0.0298858
vt -19.05124 0.02824123
vt -19.05643 0.007200152
vt -19.05122 0.004158217
vt -19.04459 0.110173
vt -19.04457 0.08561791
vt -19.04456 0.0566538
vt -19.04453 0.02768901
vt -19.0446 0.12658
vt -19.0513 0.1252315
vt -19.03753 0.1252411
vt -19.03753 0.1091494
vt -19.03751 0.08506638
vt -19.0332 0.1061065
vt -19.03319 0.0834211
vt -19.03749 0.05665848
vt -19.03317 0.0566616
vt -19.03747 0.02825082
vt -19.03315 0.02990187
vt -19.04452 0.003134105
vt -19.05121 -0.01193374
vt -19.04451 -0.01327266
vt -19.03745 0.004167587
vt -19.03313 0.007216215
vt -19.03744 -0.01192415
vt -19.14326 0.8768237
vt -19.13821 0.8972667
vt -19.1382 0.8738642
vt -19.14326 0.8988683
vt -19.13821 0.9248718
vt -19.14327 0.9248718
vt -19.1317 0.9248718
vt -19.13169 0.8967258
vt -19.13821 0.9524771
vt -19.14326 0.9508752
vt -19.1382 0.9758796
vt -19.14326 0.9729201
vt -19.13169 0.9530177
vt -19.12483 0.9524771
vt -19.12483 0.9248718
vt -19.12483 0.8972667
vt -19.12063 0.9508752
vt -19.12062 0.9729201
vt -19.12482 0.9758796
vt -19.12063 0.9248718
vt -19.12063 0.8988683
vt -19.12482 0.8738642
vt -19.12062 0.8768237
vt -19.04498 0.02988583
vt -19.04499 0.007200185
vt -19.05021 0.004158251
vt -19.05019 0.02824125
vt -19.04496 0.05664554
vt -19.05017 0.05664911
vt -19.04494 0.08340505
vt -19.05015 0.08505695
vt -19.04493 0.1060904
vt -19.05013 0.10914
vt -19.05691 0.003134143
vt -19.05689 0.02768927
vt -19.05687 0.0566538
vt -19.05685 0.08561831
vt -19.05692 -0.01327261
vt -19.05021 -0.0119337
vt -19.06399 -0.0119241
vt -19.06397 0.004167624
vt -19.06396 0.02825084
vt -19.06829 0.007216249
vt -19.06828 0.02990189
vt -19.06394 0.05665848
vt -19.06826 0.0566616
vt -19.06392 0.08506635
vt -19.06824 0.0834211
vt -19.05683 0.110173
vt -19.05012 0.1252315
vt -19.05682 0.12658
vt -19.0639 0.1091496
vt -19.06822 0.1061065
vt -19.06389 0.1252411
vt -19.13239 0.9729378
vt -19.13747 0.9524868
vt -19.13745 0.9758978
vt -19.1324 0.9508849
vt -19.13747 0.9248717
vt -19.1324 0.9248717
vt -19.14399 0.9248717
vt -19.14398 0.9530282
vt -19.13747 0.897257
vt -19.1324 0.8988591
vt -19.13745 0.8738459
vt -19.13239 0.8768067
vt -19.14398 0.8967163
vt -19.15085 0.897257
vt -19.15086 0.9248717
vt -19.15085 0.9524868
vt -19.15505 0.8988591
vt -19.15504 0.8768067
vt -19.15084 0.8738459
vt -19.15505 0.9248717
vt -19.15505 0.9508849
vt -19.15084 0.9758978
vt -19.15504 0.9729378
vt -19.26548 0.9052896
vt -19.27011 0.9045432
vt -19.27011 0.9187303
vt -19.26549 0.9187303
vt -19.27011 0.9329175
vt -19.26548 0.932171
vt -19.25686 0.932171
vt -19.25686 0.9187303
vt -19.25686 0.9052896
vt -19.2553 0.9187303
vt -19.2553 0.905899
vt -19.25529 0.8950208
vt -19.25686 0.8938957
vt -19.2553 0.9315621
vt -19.25686 0.9435654
vt -19.25529 0.9424403
vt -19.18178 0.9562588
vt -19.17679 0.9582029
vt -19.1768 0.949525
vt -19.18179 0.9480385
vt -19.17681 0.9365392
vt -19.1911 0.9480455
vt -19.19109 0.9562654
vt -19.18179 0.9357363
vt -19.17682 0.9212207
vt -19.19111 0.9357427
vt -19.19278 0.9468316
vt -19.19279 0.935086
vt -19.19112 0.9212304
vt -19.1928 0.9212317
vt -19.18181 0.9212241
vt -19.17683 0.905902
vt -19.19113 0.9067183
vt -19.19281 0.9073773
vt -19.18182 0.9067119
vt -19.17684 0.8929152
vt -19.19114 0.8944161
vt -19.19282 0.8956318
vt -19.18182 0.8944091
vt -19.17684 0.8842385
vt -19.19114 0.8861952
vt -19.18183 0.8861892
vt -19.26997 0.9321851
vt -19.26534 0.9329329
vt -19.26534 0.9187301
vt -19.26997 0.9187301
vt -19.26534 0.904528
vt -19.26997 0.9052755
vt -19.2786 0.9052755
vt -19.2786 0.9187301
vt -19.2786 0.9321851
vt -19.28016 0.9187301
vt -19.28016 0.9315757
vt -19.28016 0.9424657
vt -19.27859 0.943592
vt -19.28016 0.9058854
vt -19.27859 0.8938692
vt -19.28016 0.8949954
vt -19.17772 0.8861997
vt -19.1827 0.8842496
vt -19.18271 0.8929238
vt -19.17772 0.8944171
vt -19.18272 0.9059066
vt -19.16842 0.8944241
vt -19.16841 0.8862057
vt -19.17773 0.9067163
vt -19.18273 0.9212207
vt -19.16842 0.9067226
vt -19.16673 0.8956394
vt -19.16674 0.9073815
vt -19.16843 0.9212304
vt -19.16675 0.9212317
vt -19.17774 0.9212241
vt -19.18274 0.9365346
vt -19.16844 0.9357383
vt -19.16676 0.9350819
vt -19.17775 0.9357319
vt -19.18275 0.9495165
vt -19.16845 0.9480365
vt -19.16677 0.946824
vt -19.17776 0.9480305
vt -19.18276 0.9581919
vt -19.16846 0.956255
vt -19.17777 0.9562484
vt -18.98212 0.07189909
vt -18.98358 0.05665379
vt -18.98627 0.07017998
vt -18.97908 0.05665379
vt -18.98627 0.04312739
vt -18.99075 0.0848235
vt -18.99393 0.08164663
vt -18.98212 0.04140847
vt -18.99393 0.03166054
vt -19.00368 0.09345937
vt -19.0054 0.08930874
vt -18.99075 0.02848369
vt -19.0054 0.02399883
vt -19.01892 0.09649173
vt -19.01892 0.09199929
vt -19.00368 0.01984819
vt -19.01892 0.02130829
vt -19.03417 0.09345937
vt -19.03245 0.08930874
vt -19.01892 0.01681546
vt -19.03245 0.02399883
vt -19.04709 0.08482388
vt -19.04391 0.08164704
vt -19.03417 0.01984819
vt -19.04391 0.03166054
vt -19.05573 0.07189909
vt -19.05158 0.07017998
vt -19.04709 0.02848369
vt -19.05158 0.04312739
vt -19.05876 0.05665379
vt -19.05427 0.05665379
vt -19.05573 0.04140847
vt -19.06208 0.09981427
vt -19.04228 0.113046
vt -19.07531 0.08001224
vt -19.07996 0.05665379
vt -19.01892 0.1176921
vt -19.07531 0.03329533
vt -19.06208 0.01349292
vt -18.99556 0.113046
vt -19.04228 0.000261575
vt -18.97576 0.09981427
vt -19.01892 -0.00438473
vt -18.96253 0.08001224
vt -18.99556 0.000261575
vt -18.95788 0.05665379
vt -18.97576 0.01349292
vt -18.96253 0.03329533
vt -19.18974 0.8919989
vt -19.19108 0.895214
vt -19.18201 0.9012713
vt -19.17955 0.8988109
vt -19.20177 0.8896073
vt -19.17595 0.9103366
vt -19.20177 0.8930866
vt -19.17274 0.909005
vt -19.21379 0.8919989
vt -19.17383 0.92103
vt -19.21246 0.895214
vt -19.17035 0.92103
vt -19.22399 0.8988109
vt -19.17595 0.9317233
vt -19.22153 0.9012713
vt -19.17274 0.9330548
vt -19.2308 0.909005
vt -19.18201 0.9407887
vt -19.22758 0.9103366
vt -19.17955 0.9432495
vt -19.23319 0.92103
vt -19.19108 0.9468464
vt -19.22971 0.92103
vt -19.18974 0.9500613
vt -19.2308 0.9330548
vt -19.20177 0.9489732
vt -19.22758 0.9317233
vt -19.20177 0.9524526
vt -19.22399 0.9432495
vt -19.21246 0.9468464
vt -19.22153 0.9407887
vt -19.21379 0.9500613
vt -19.0457 0.4268989
vt -19.04985 0.4286173
vt -19.04716 0.4421435
vt -19.04267 0.4421442
vt -19.04985 0.4556696
vt -19.05433 0.4139749
vt -19.05751 0.4171502
vt -19.0457 0.4573896
vt -19.05751 0.4671359
vt -19.06726 0.4053394
vt -19.06898 0.4094885
vt -19.05433 0.4703144
vt -19.06898 0.4747984
vt -19.0825 0.4023067
vt -19.0825 0.4067977
vt -19.06726 0.4789498
vt -19.0825 0.4774884
vt -19.09775 0.4053394
vt -19.09603 0.4094885
vt -19.0825 0.4819824
vt -19.09603 0.4747984
vt -19.11067 0.4139749
vt -19.1075 0.4171502
vt -19.09775 0.4789498
vt -19.1075 0.4671359
vt -19.11931 0.4268989
vt -19.11516 0.4286173
vt -19.11067 0.4703144
vt -19.11516 0.4556696
vt -19.12234 0.4421442
vt -19.11785 0.4421435
vt -19.11931 0.4573896
vt -19.12566 0.3989873
vt -19.10586 0.3857557
vt -19.1389 0.4187892
vt -19.14354 0.4421481
vt -19.0825 0.3811096
vt -19.1389 0.4655062
vt -19.12566 0.485308
vt -19.05914 0.3857557
vt -19.10586 0.4985396
vt -19.03934 0.3989873
vt -19.0825 0.5031858
vt -19.02611 0.4187892
vt -19.05914 0.4985396
vt -19.02147 0.4421481
vt -19.03934 0.485308
vt -19.02611 0.4655062
vt -19.23767 0.8919888
vt -19.24541 0.9012644
vt -19.23634 0.8952045
vt -19.24787 0.8988032
vt -19.22564 0.8895958
vt -19.25146 0.9103333
vt -19.22564 0.8930773
vt -19.25468 0.9090004
vt -19.21361 0.8919888
vt -19.25359 0.9210299
vt -19.21494 0.8952045
vt -19.25707 0.9210299
vt -19.20341 0.8988032
vt -19.25146 0.9317274
vt -19.20587 0.9012644
vt -19.25468 0.9330595
vt -19.1966 0.9090004
vt -19.24541 0.9407963
vt -19.19981 0.9103333
vt -19.24787 0.9432575
vt -19.1942 0.9210299
vt -19.23634 0.9468554
vt -19.19769 0.9210299
vt -19.23767 0.9500712
vt -19.1966 0.9330595
vt -19.22564 0.9489828
vt -19.19981 0.9317274
vt -19.22564 0.9524643
vt -19.20341 0.9432575
vt -19.21494 0.9468554
vt -19.20587 0.9407963
vt -19.21361 0.9500712
vn 0 0 1
vn 0 0 1
vn 0 0 1
vn 0 0 1
vn 0 0 1
vn 0 0 1
vn 0 0 -1
vn 0 0 -1
vn 0 0 -1
vn 0 0 -1
vn 0 1 0
vn 0 1 0
vn 0 1 0
vn 0 1 0
vn 1 0 0
vn 1 0 0
vn 1 0 0
vn 1 0 0
vn 0 -1 0
vn 0 -1 0
vn 0 -1 0
vn 0 -1 0
vn -1 0 0
vn -1 0 0
vn -1 0 0
vn -1 0 0
vn 0.7118993 0.2948818 -0.6373729
vn 0.6419673 0.6419611 -0.4192421
vn 0.5448617 0.5448574 -0.6373822
vn 0.8387661 0.3474287 -0.419243
vn 0.770555 -3.276938E-07 -0.6373735
vn 0.9078724 -1.989086E-07 -0.4192466
vn 0.711904 -0.2948836 -0.6373668
vn 0.8387665 -0.3474259 -0.4192447
vn 0.5448688 -0.544869 -0.6373662
vn 0.641966 -0.6419607 -0.4192448
vn 0.7071055 0.7071081 0.0001443754
vn 0.923879 0.3826846 0.0001451674
vn 1 0 0.0001427005
vn 0.9238774 -0.3826886 0.0001419417
vn 0.3826866 0.9238782 0.0001411703
vn 0.3474289 0.8387635 -0.419248
vn 0.3453392 0.8337167 0.4308796
vn 0.6381034 0.6380973 0.430878
vn 0.8337163 0.345337 0.430882
vn 0.2563408 0.2563396 0.9319761
vn 0.3349252 0.1387314 0.9319757
vn 0.9024074 0 0.4308838
vn 0.3625201 0 0.931976
vn 0.8337178 -0.3453348 0.4308812
vn 0.3349254 -0.1387311 0.9319756
vn 0.7071053 -0.7071081 0.0001379763
vn 0.3474301 -0.838765 -0.4192441
vn 0.3826843 -0.9238792 0.0001380019
vn 0.6381039 -0.6380975 0.4308772
vn 0.2563415 -0.2563415 0.9319754
vn 0.3453396 -0.8337184 0.430876
vn 0.5448617 0.5448574 -0.6373822
vn 0.6419673 0.6419611 -0.4192421
vn 0.3474289 0.8387635 -0.419248
vn 0.294873 0.7118878 -0.6373898
vn 2.507967E-07 0.9078732 -0.4192449
vn 6.865819E-07 0.7705456 -0.6373848
vn 0 1 0.0001411701
vn 0.3826866 0.9238782 0.0001411703
vn -0.3474284 0.838766 -0.4192435
vn -0.2948751 0.7118895 -0.6373867
vn -0.6419615 0.6419633 -0.4192474
vn -0.5448578 0.5448567 -0.6373862
vn -0.3826847 0.9238789 0.0001442201
vn -0.3453375 0.8337176 0.4308794
vn -3.714878E-07 0.9024099 0.4308786
vn 0.3453392 0.8337167 0.4308796
vn -0.1387298 0.3349246 0.9319762
vn -0.2563409 0.256341 0.9319757
vn -0.6380977 0.6380993 0.4308835
vn 0 0.3625166 0.9319773
vn 0.1387299 0.3349233 0.9319766
vn 0.6381034 0.6380973 0.430878
vn 0.2563408 0.2563396 0.9319761
vn -0.7118979 -0.2948804 -0.6373749
vn -0.641963 -0.6419603 -0.4192497
vn -0.5448639 -0.5448657 -0.6373733
vn -0.8387662 -0.3474225 -0.4192479
vn -0.7705508 1.170326E-06 -0.6373785
vn -0.9078718 4.540284E-07 -0.419248
vn -0.7118958 0.2948777 -0.6373786
vn -0.8387637 0.3474276 -0.4192487
vn -0.5448578 0.5448567 -0.6373862
vn -0.6419615 0.6419633 -0.4192474
vn -0.7071071 -0.7071064 0.000141211
vn -0.9238782 -0.3826866 0.0001411625
vn -1 -1.019634E-07 0.0001403709
vn -0.9238801 0.3826818 0.0001404161
vn -0.3826831 -0.9238796 0.0001412154
vn -0.347429 -0.838764 -0.4192469
vn -0.3453378 -0.8337163 0.4308816
vn -0.6381 -0.6380964 0.4308844
vn -0.8337181 -0.3453319 0.4308828
vn -0.256342 -0.2563427 0.9319749
vn -0.3349275 -0.138732 0.9319749
vn -0.9024078 3.73724E-07 0.430883
vn -0.362521 3.360433E-07 0.9319756
vn -0.8337158 0.3453366 0.4308836
vn -0.3349271 0.1387313 0.931975
vn -0.7071046 0.7071089 0.0001442336
vn -0.3474284 0.838766 -0.4192435
vn -0.3826847 0.9238789 0.0001442201
vn -0.6380977 0.6380993 0.4308835
vn -0.2563409 0.256341 0.9319757
vn -0.3453375 0.8337176 0.4308794
vn -0.5448639 -0.5448657 -0.6373733
vn -0.641963 -0.6419603 -0.4192497
vn -0.347429 -0.838764 -0.4192469
vn -0.2948778 -0.7118955 -0.6373789
vn 0 -0.9078744 -0.4192422
vn 0 -0.770548 -0.637382
vn 0 -1 0.000141166
vn -0.3826831 -0.9238796 0.0001412154
vn 0.3474301 -0.838765 -0.4192441
vn 0.2948788 -0.7118973 -0.6373764
vn 0.641966 -0.6419607 -0.4192448
vn 0.5448688 -0.544869 -0.6373662
vn 0.3826843 -0.9238792 0.0001380019
vn 0.3453396 -0.8337184 0.430876
vn 0 -0.9024108 0.4308767
vn -0.3453378 -0.8337163 0.4308816
vn 0.1387304 -0.3349246 0.9319761
vn 0.2563415 -0.2563415 0.9319754
vn 0.6381039 -0.6380975 0.4308772
vn 0 -0.3625193 0.9319763
vn -0.1387299 -0.3349241 0.9319763
vn -0.6381 -0.6380964 0.4308844
vn -0.256342 -0.2563427 0.9319749
vn 0.3781904 0.9130328 0.1527847
vn 0 0.663015 0.7486061
vn 0.2537222 0.6125407 0.7486115
vn 0 0.988259 0.1527879
vn -0.2537186 0.6125463 0.7486079
vn -0.3781848 0.9130353 0.1527833
vn -0.3789038 0.9147717 0.1400873
vn 1.936047E-07 0.9901403 0.1400795
vn 0.3789095 0.9147701 0.1400829
vn 3.986075E-07 0.3380811 0.941117
vn 0.1293755 0.3123462 0.9411173
vn 0.2390535 0.2390579 0.9411189
vn 0.7001301 0.7001389 0.1400834
vn -0.129374 0.3123411 0.9411193
vn -0.7001252 0.7001421 0.1400923
vn -0.239054 0.2390613 0.9411179
vn -0.3781848 0.9130353 0.1527833
vn -0.4688116 0.4688222 0.7486131
vn -0.2537186 0.6125463 0.7486079
vn -0.6987994 0.6988124 0.1527764
vn -0.6125436 0.2537189 0.7486101
vn -0.7001252 0.7001421 0.1400923
vn -0.3789038 0.9147717 0.1400873
vn -0.9130388 0.3781802 0.1527738
vn -0.6630155 -3.588749E-07 0.7486057
vn -0.9147736 0.3788985 0.1400901
vn -0.239054 0.2390613 0.9411179
vn -0.3123425 0.1293725 0.941119
vn -0.990139 0 0.1400888
vn -0.3380691 0 0.9411213
vn -0.988261 0 0.1527748
vn -0.612545 -0.2537191 0.7486089
vn -0.9147738 -0.3788984 0.1400886
vn -0.3123416 -0.1293719 0.9411194
vn -0.9130387 -0.3781804 0.1527741
vn -0.4688153 -0.4688237 0.7486098
vn -0.7001302 -0.7001379 0.1400878
vn -0.2390519 -0.2390568 0.9411196
vn -0.6988034 -0.6988086 0.1527759
vn -0.2537195 -0.6125452 0.7486085
vn -0.3789035 -0.9147714 0.1400907
vn -0.3781847 -0.9130363 0.1527773
vn -0.3781847 -0.9130363 0.1527773
vn -4.996039E-07 -0.663009 0.7486115
vn -0.2537195 -0.6125452 0.7486085
vn -1.20903E-07 -0.9882608 0.1527759
vn 0.2537215 -0.6125432 0.7486095
vn 0.378189 -0.9130349 0.1527761
vn 0.3789094 -0.9147705 0.1400806
vn -1.548837E-07 -0.9901391 0.140088
vn -0.3789035 -0.9147714 0.1400907
vn -2.366801E-07 -0.3380645 0.9411229
vn -0.1293715 -0.3123374 0.9411207
vn -0.2390519 -0.2390568 0.9411196
vn -0.7001302 -0.7001379 0.1400878
vn 0.1293734 -0.3123387 0.9411201
vn 0.7001337 -0.7001348 0.1400857
vn 0.2390536 -0.2390539 0.9411198
vn 0.378189 -0.9130349 0.1527761
vn 0.4688169 -0.4688203 0.7486109
vn 0.2537215 -0.6125432 0.7486095
vn 0.698805 -0.6988062 0.1527795
vn 0.6125439 -0.2537246 0.7486079
vn 0.7001337 -0.7001348 0.1400857
vn 0.3789094 -0.9147705 0.1400806
vn 0.9130331 -0.3781909 0.1527816
vn 0.6630129 -2.650499E-07 0.7486079
vn 0.9147692 -0.3789097 0.1400885
vn 0.2390536 -0.2390539 0.9411198
vn 0.3123405 -0.1293747 0.9411194
vn 0.9901394 -1.74243E-07 0.1400858
vn 0.3380744 -4.259524E-07 0.9411194
vn 0.9882601 0 0.1527805
vn 0.6125442 0.2537269 0.7486068
vn 0.9147698 0.37891 0.1400839
vn 0.3123395 0.1293746 0.9411198
vn 0.9130331 0.3781917 0.1527794
vn 0.4688205 0.4688211 0.7486082
vn 0.7001301 0.7001389 0.1400834
vn 0.2390535 0.2390579 0.9411189
vn 0.698801 0.6988099 0.15278
vn 0.2537222 0.6125407 0.7486115
vn 0.3789095 0.9147701 0.1400829
vn 0.3781904 0.9130328 0.1527847
vn 0.7118965 0.294436 0.637582
vn 0.5448605 0.5444164 0.63776
vn 0.6419672 0.6416718 0.4196848
vn 0.8387651 0.3471418 0.4194827
vn 0.7705551 -0.0004403481 0.6373733
vn 0.9078717 -0.0002905391 0.419248
vn 0.7119018 -0.2953239 0.6371653
vn 0.8387645 -0.3477125 0.419011
vn 0.5448657 -0.5453016 0.636999
vn 0.6419628 -0.6422475 0.4188101
vn 0.7071032 0.7071102 0.0003384324
vn 0.9238801 0.382682 0.0001185425
vn 1 2.063738E-06 -0.0001411621
vn 0.9238769 -0.3826897 -0.0004009983
vn 0.3826855 0.9238785 0.0004854198
vn 0.3474287 0.8384727 0.4198297
vn 0.3453375 0.8340089 -0.4303153
vn 0.638103 0.6383945 -0.4304383
vn 0.8337159 0.3456375 -0.4306419
vn 0.2563415 0.2569854 -0.931798
vn 0.3349254 0.1393746 -0.9318796
vn 0.9024074 0.0002959199 -0.4308838
vn 0.3625201 0.0006448301 -0.9319757
vn 0.8337161 -0.3450352 -0.4311243
vn 0.3349244 -0.1380872 -0.9320717
vn 0.707103 -0.7071102 -0.000623942
vn 0.3474285 -0.8390512 0.4186725
vn 0.3826834 -0.9238792 -0.0007835416
vn 0.6380987 -0.6377974 -0.431329
vn 0.2563385 -0.2556938 -0.9321541
vn 0.3453367 -0.8334153 -0.4314643
vn 0.5448605 0.5444164 0.63776
vn 0.3474287 0.8384727 0.4198297
vn 0.6419672 0.6416718 0.4196848
vn 0.2948742 0.7114499 0.6378779
vn 0 0.9075774 0.4198848
vn 3.354872E-07 0.7700971 0.6379266
vn 0 0.9999999 0.0005365887
vn 0.3826855 0.9238785 0.0004854198
vn -0.3474236 0.8384698 0.4198395
vn -0.2948683 0.7114376 0.6378944
vn -0.6419569 0.6416718 0.4197005
vn -0.5448524 0.5444068 0.6377752
vn -0.3826816 0.9238801 0.0004888079
vn -0.3453333 0.8340085 -0.4303192
vn 3.759584E-07 0.9026979 -0.4302751
vn 0.3453375 0.8340089 -0.4303153
vn -0.1387295 0.3355682 -0.9317446
vn -0.2563408 0.2569849 -0.9317984
vn -0.6380947 0.6383961 -0.4304482
vn 2.702926E-07 0.3631613 -0.9317263
vn 0.1387308 0.3355697 -0.9317439
vn 0.638103 0.6383945 -0.4304383
vn 0.2563415 0.2569854 -0.931798
vn -0.7118955 -0.2953216 0.6371734
vn -0.5448628 -0.5453011 0.6370019
vn -0.6419616 -0.6422474 0.418812
vn -0.8387645 -0.3477128 0.4190106
vn -0.7705501 -0.0004404865 0.6373793
vn -0.9078709 -0.0002906688 0.4192499
vn -0.7118894 0.2944333 0.6375911
vn -0.8387617 0.3471355 0.4194948
vn -0.5448524 0.5444068 0.6377752
vn -0.6419569 0.6416718 0.4197005
vn -0.7071066 -0.7071065 -0.0006271171
vn -0.9238791 -0.3826842 -0.0004049163
vn -1 3.425969E-06 -0.0001404484
vn -0.9238792 0.3826841 0.0001232003
vn -0.3826824 -0.9238796 -0.0007836907
vn -0.3474271 -0.8390502 0.4186755
vn -0.3453352 -0.8334144 -0.4314674
vn -0.6380983 -0.6377971 -0.4313298
vn -0.8337166 -0.3450359 -0.4311229
vn -0.256341 -0.2556967 -0.9321526
vn -0.3349274 -0.1380879 -0.9320704
vn -0.9024071 0.0002972088 -0.4308845
vn -0.3625201 0.000644681 -0.9319757
vn -0.8337154 0.3456324 -0.4306469
vn -0.3349269 0.139375 -0.9318791
vn -0.7071068 0.7071066 0.0003448004
vn -0.3474236 0.8384698 0.4198395
vn -0.3826816 0.9238801 0.0004888079
vn -0.6380947 0.6383961 -0.4304482
vn -0.2563408 0.2569849 -0.9317984
vn -0.3453333 0.8340085 -0.4303192
vn -0.5448628 -0.5453011 0.6370019
vn -0.3474271 -0.8390502 0.4186755
vn -0.6419616 -0.6422474 0.418812
vn -0.2948772 -0.7123285 0.6368953
vn -3.243065E-07 -0.9081593 0.4186248
vn -7.177921E-07 -0.7709795 0.6368601
vn -1.1012E-07 -0.9999996 -0.000844282
vn -0.3826824 -0.9238796 -0.0007836907
vn 0.3474285 -0.8390512 0.4186725
vn 0.2948781 -0.7123281 0.6368952
vn 0.6419628 -0.6422475 0.4188101
vn 0.5448657 -0.5453016 0.636999
vn 0.3826834 -0.9238792 -0.0007835416
vn 0.3453367 -0.8334153 -0.4314643
vn -3.670106E-07 -0.9021074 -0.4315115
vn -0.3453352 -0.8334144 -0.4314674
vn 0.1387301 -0.3342766 -0.9322087
vn 0.2563385 -0.2556938 -0.9321541
vn 0.6380987 -0.6377974 -0.431329
vn -2.495951E-07 -0.3618724 -0.9322276
vn -0.13873 -0.3342769 -0.9322087
vn -0.6380983 -0.6377971 -0.4313298
vn -0.256341 -0.2556967 -0.9321526
vn 0.3781909 0.9131368 -0.1521606
vn 0.2537208 0.6130564 -0.7481895
vn 0 0.6635291 -0.7481505
vn 1.209021E-07 0.988363 -0.1521137
vn -0.2537214 0.6130627 -0.7481841
vn -0.3781845 0.9131397 -0.1521586
vn -0.3788988 0.9148713 -0.1394497
vn 0 0.9902362 -0.1393996
vn 0.3789093 0.9148675 -0.1394467
vn -6.401375E-07 0.3387247 -0.9408855
vn 0.1293743 0.3129922 -0.9409028
vn 0.2390587 0.2397124 -0.940951
vn 0.7001343 0.7002312 -0.1395997
vn -0.1293668 0.3129822 -0.9409072
vn -0.7001269 0.700239 -0.1395977
vn -0.2390521 0.2397055 -0.9409544
vn -0.3781845 0.9131397 -0.1521586
vn -0.2537214 0.6130627 -0.7481841
vn -0.4688151 0.4693426 -0.7482846
vn -0.6988002 0.6989167 -0.1522951
vn -0.6125405 0.2542374 -0.7484366
vn -0.7001269 0.700239 -0.1395977
vn -0.3788988 0.9148713 -0.1394497
vn -0.9130379 0.3782869 -0.1525145
vn -0.6630131 0.0005180475 -0.7486076
vn -0.9147742 0.3789938 -0.1398274
vn -0.2390521 0.2397055 -0.9409544
vn -0.3123448 0.1300268 -0.941028
vn -0.9901391 9.777052E-05 -0.1400881
vn -0.3380706 0.0006494031 -0.9411205
vn -0.9882606 0.000105833 -0.1527775
vn -0.6125444 -0.2532029 -0.7487841
vn -0.9147725 -0.3788033 -0.1403546
vn -0.3123414 -0.1287223 -0.9412085
vn -0.9130388 -0.3780741 -0.153036
vn -0.4688202 -0.4683087 -0.748929
vn -0.7001312 -0.7000396 -0.1405731
vn -0.2390535 -0.238409 -0.9412835
vn -0.6988025 -0.6987036 -0.1532592
vn -0.2537241 -0.6120355 -0.7490238
vn -0.3789037 -0.9146752 -0.1407166
vn -0.378187 -0.9129283 -0.1534159
vn -0.378187 -0.9129283 -0.1534159
vn -0.2537241 -0.6120355 -0.7490238
vn 0 -0.6625024 -0.7490599
vn 0 -0.9881516 -0.1534813
vn 0.2537233 -0.6120278 -0.7490304
vn 0.3781911 -0.9129246 -0.1534279
vn 0.378909 -0.914673 -0.1407166
vn -2.807263E-07 -0.990042 -0.1407724
vn -0.3789037 -0.9146752 -0.1407166
vn 0 -0.3374219 -0.9413535
vn -0.1293735 -0.3116921 -0.9413345
vn -0.2390535 -0.238409 -0.9412835
vn -0.7001312 -0.7000396 -0.1405731
vn 0.1293729 -0.3116921 -0.9413346
vn 0.7001345 -0.7000378 -0.1405658
vn 0.2390511 -0.2384023 -0.9412858
vn 0.3781911 -0.9129246 -0.1534279
vn 0.2537233 -0.6120278 -0.7490304
vn 0.4688199 -0.4683022 -0.7489331
vn 0.6988028 -0.6987008 -0.1532702
vn 0.6125428 -0.2532071 -0.7487841
vn 0.7001345 -0.7000378 -0.1405658
vn 0.378909 -0.914673 -0.1407166
vn 0.9130328 -0.3780857 -0.153044
vn 0.6630098 0.0005168829 -0.7486105
vn 0.9147679 -0.3788172 -0.1403473
vn 0.2390511 -0.2384023 -0.9412858
vn 0.3123398 -0.1287254 -0.9412086
vn 0.9901394 9.887421E-05 -0.1400853
vn 0.3380739 0.0006493866 -0.9411194
vn 0.9882596 0.0001059819 -0.152784
vn 0.6125383 0.2542412 -0.7484372
vn 0.9147698 0.3790065 -0.1398224
vn 0.3123438 0.1300311 -0.9410278
vn 0.9130318 0.3782968 -0.152527
vn 0.4688158 0.4693352 -0.7482888
vn 0.7001343 0.7002312 -0.1395997
vn 0.2390587 0.2397124 -0.940951
vn 0.6988016 0.6989129 -0.1523062
vn 0.2537208 0.6130564 -0.7481895
vn 0.3789093 0.9148675 -0.1394467
vn 0.3781909 0.9131368 -0.1521606
vn 0.216631 0.08973165 0.972121
vn 0.6630129 -2.650499E-07 0.7486079
vn 0.6125442 0.2537269 0.7486068
vn 0.2344794 0 0.9721211
vn 0.6125439 -0.2537246 0.7486079
vn 0.1658022 0.1658022 0.972121
vn 0.4688205 0.4688211 0.7486082
vn 0.2166306 -0.08973053 0.9721212
vn 0.4688169 -0.4688203 0.7486109
vn 0.08973113 0.2166306 0.9721211
vn 0.2537222 0.6125407 0.7486115
vn 0.1658007 -0.1658016 0.9721214
vn 0.2537215 -0.6125432 0.7486095
vn 1.241421E-07 0.2344796 0.972121
vn 0 0.663015 0.7486061
vn 0.08973107 -0.2166313 0.972121
vn -4.996039E-07 -0.663009 0.7486115
vn -0.08973011 0.2166317 0.972121
vn -0.2537186 0.6125463 0.7486079
vn -1.213259E-07 -0.2344795 0.9721211
vn -0.2537195 -0.6125452 0.7486085
vn -0.1658026 0.1658028 0.9721209
vn -0.4688116 0.4688222 0.7486131
vn -0.08973103 -0.2166322 0.9721208
vn -0.4688153 -0.4688237 0.7486098
vn -0.2166331 0.08973082 0.9721206
vn -0.6125436 0.2537189 0.7486101
vn -0.1658017 -0.1658021 0.9721211
vn -0.612545 -0.2537191 0.7486089
vn -0.234481 0 0.9721206
vn -0.6630155 -3.588749E-07 0.7486057
vn -0.2166326 -0.08973017 0.9721208
vn -0.2563409 0.256341 0.9319757
vn -0.1387298 0.3349246 0.9319762
vn -0.3349271 0.1387313 0.931975
vn -0.362521 3.360433E-07 0.9319756
vn 0 0.3625166 0.9319773
vn -0.3349275 -0.138732 0.9319749
vn -0.256342 -0.2563427 0.9319749
vn 0.1387299 0.3349233 0.9319766
vn -0.1387299 -0.3349241 0.9319763
vn 0.2563408 0.2563396 0.9319761
vn 0 -0.3625193 0.9319763
vn 0.3349252 0.1387314 0.9319757
vn 0.1387304 -0.3349246 0.9319761
vn 0.3625201 0 0.931976
vn 0.2563415 -0.2563415 0.9319754
vn 0.3349254 -0.1387311 0.9319756
vn 0.3123395 0.1293746 0.9411198
vn -9.184525E-07 0 1
vn -5.510401E-07 0 1
vn 0.2390535 0.2390579 0.9411189
vn 0.3380744 -4.259524E-07 0.9411194
vn 3.673931E-07 0 1
vn 1.836923E-07 0 1
vn 0.1293755 0.3123462 0.9411173
vn 0.3123405 -0.1293747 0.9411194
vn -1.83696E-07 0 1
vn -3.673948E-07 0 1
vn 3.986075E-07 0.3380811 0.941117
vn 0.2390536 -0.2390539 0.9411198
vn -3.673872E-07 0 1
vn -7.347615E-07 0 1
vn -0.129374 0.3123411 0.9411193
vn 0.1293734 -0.3123387 0.9411201
vn 3.674028E-07 0 1
vn 0 0 1
vn -0.239054 0.2390613 0.9411179
vn -2.366801E-07 -0.3380645 0.9411229
vn 3.673889E-07 0 1
vn 1.836896E-07 0 1
vn -0.3123425 0.1293725 0.941119
vn -0.1293715 -0.3123374 0.9411207
vn -1.836955E-07 0 1
vn 0 0 1
vn -0.3380691 0 0.9411213
vn -0.2390519 -0.2390568 0.9411196
vn 9.184654E-07 0 1
vn 9.184496E-07 0 1
vn -0.3123416 -0.1293719 0.9411194
vn 0.2166316 0.09040356 -0.9720587
vn 0.6125383 0.2542412 -0.7484372
vn 0.6630098 0.0005168829 -0.7486105
vn 0.23448 0.0006719868 -0.9721208
vn 0.6125428 -0.2532071 -0.7487841
vn 0.1658017 0.1664745 -0.9720062
vn 0.4688158 0.4693352 -0.7482888
vn 0.2166304 -0.08906013 -0.9721829
vn 0.4688199 -0.4683022 -0.7489331
vn 0.08973176 0.2173027 -0.9719711
vn 0.2537208 0.6130564 -0.7481895
vn 0.1658002 -0.1651299 -0.9722357
vn 0.2537233 -0.6120278 -0.7490304
vn 0 0.2351519 -0.9719587
vn 0 0.6635291 -0.7481505
vn 0.08973159 -0.2159577 -0.9722708
vn 0 -0.6625024 -0.7490599
vn -0.08973209 0.2173053 -0.9719705
vn -0.2537214 0.6130627 -0.7481841
vn -1.396235E-07 -0.2338061 -0.9722832
vn -0.2537241 -0.6120355 -0.7490238
vn -0.1658032 0.1664759 -0.9720058
vn -0.4688151 0.4693426 -0.7482846
vn -0.08973173 -0.2159587 -0.9722706
vn -0.4688202 -0.4683087 -0.748929
vn -0.2166328 0.09040269 -0.9720585
vn -0.6125405 0.2542374 -0.7484366
vn -0.1658017 -0.1651307 -0.9722354
vn -0.6125444 -0.2532029 -0.7487841
vn -0.2344809 0.000672066 -0.9721205
vn -0.6630131 0.0005180475 -0.7486076
vn -0.2166323 -0.08905885 -0.9721825
vn -0.2563408 0.2569849 -0.9317984
vn -0.1387295 0.3355682 -0.9317446
vn -0.3349269 0.139375 -0.9318791
vn -0.3625201 0.000644681 -0.9319757
vn 2.702926E-07 0.3631613 -0.9317263
vn -0.3349274 -0.1380879 -0.9320704
vn -0.256341 -0.2556967 -0.9321526
vn 0.1387308 0.3355697 -0.9317439
vn -0.13873 -0.3342769 -0.9322087
vn 0.2563415 0.2569854 -0.931798
vn -2.495951E-07 -0.3618724 -0.9322276
vn 0.3349254 0.1393746 -0.9318796
vn 0.1387301 -0.3342766 -0.9322087
vn 0.3625201 0.0006448301 -0.9319757
vn 0.2563385 -0.2556938 -0.9321541
vn 0.3349244 -0.1380872 -0.9320717
vn 0.3123438 0.1300311 -0.9410278
vn 1.836889E-06 0.0006920065 -0.9999998
vn 1.469524E-06 0.0006912485 -0.9999998
vn 0.2390587 0.2397124 -0.940951
vn 0.3380739 0.0006493866 -0.9411194
vn 3.673876E-07 0.0006923735 -0.9999998
vn 7.347667E-07 0.000691069 -0.9999998
vn 0.1293743 0.3129922 -0.9409028
vn 0.3123398 -0.1287254 -0.9412086
vn -1.836937E-07 0.0006925328 -0.9999998
vn 7.347521E-07 0.0006911817 -0.9999998
vn -6.401375E-07 0.3387247 -0.9408855
vn 0.2390511 -0.2384023 -0.9412858
vn -1.836923E-07 0.0006923697 -0.9999998
vn -3.673773E-07 0.0006910117 -0.9999998
vn -0.1293668 0.3129822 -0.9409072
vn 0.1293729 -0.3116921 -0.9413346
vn -1.469567E-06 0.0006920143 -0.9999998
vn -5.51072E-07 0.0006907456 -0.9999998
vn -0.2390521 0.2397055 -0.9409544
vn 0 -0.3374219 -0.9413535
vn -1.469592E-06 0.0006912695 -0.9999998
vn 1.836869E-07 0.0006903796 -0.9999998
vn -0.3123448 0.1300268 -0.941028
vn -0.1293735 -0.3116921 -0.9413345
vn -7.347709E-07 0.000691077 -0.9999998
vn 7.347493E-07 0.0006907433 -0.9999998
vn -0.3380706 0.0006494031 -0.9411205
vn -0.2390535 -0.238409 -0.9412835
vn -7.34785E-07 0.0006912003 -0.9999998
vn 3.673922E-07 0.0006910412 -0.9999998
vn -0.3123414 -0.1287223 -0.9412085
vn -1 0 0
vn -1 0 0
vn -1 0 0
vn -1 0 0
vn -1 0 0
vn -1 0 0
vn -1 0 0
vn -1 0 0
vn 1 0 0
vn 1 0 0
vn 1 0 0
vn 1 0 0
vn 1 0 0
vn 1 0 0
vn 1 0 0
vn 1 0 0
vn 1 0 0
vn 1 0 0
vn 1 0 0
vn 1 0 0
vn -1 0 0
vn -1 0 0
vn -1 0 0
vn -1 0 0
vn 0 -1 0
vn 0 -1 0
vn 0 -1 0
vn 0 -1 0
vn 0 -1 0
vn 0 -1 0
vn 0 -1 0
vn 0 -1 0
vn 0 -1 0
vn 0 -1 0
vn 0 -1 0
vn 0 -1 0
usemtl MediumWoodSmooth
f 3/3/5 2/2/4 1/1/3
f 4/4/6 3/3/5 1/1/3
f 7/7/9 6/6/8 5/5/7
f 8/8/10 7/7/9 5/5/7
f 11/11/13 10/10/12 9/9/11
f 12/12/14 11/11/13 9/9/11
f 15/15/17 14/14/16 13/13/15
f 16/16/18 15/15/17 13/13/15
f 19/19/21 18/18/20 17/17/19
f 20/20/22 19/19/21 17/17/19
f 23/23/25 22/22/24 21/21/23
f 24/24/26 23/23/25 21/21/23
usemtl BlackSmoothMeta
f 27/27/29 26/26/28 25/25/27
f 26/26/28 28/28/30 25/25/27
f 25/25/27 28/28/30 29/29/31
f 28/28/30 30/30/32 29/29/31
f 29/29/31 30/30/32 31/31/33
f 30/30/32 32/32/34 31/31/33
f 31/31/33 32/32/34 33/33/35
f 32/32/34 34/34/36 33/33/35
f 26/26/28 35/35/37 28/28/30
f 28/28/30 36/36/38 30/30/32
f 35/35/37 36/36/38 28/28/30
f 30/30/32 37/37/39 32/32/34
f 36/36/38 37/37/39 30/30/32
f 32/32/34 38/38/40 34/34/36
f 37/37/39 38/38/40 32/32/34
f 39/39/41 35/35/37 26/26/28
f 40/40/42 39/39/41 26/26/28
f 39/39/41 41/41/43 35/35/37
f 41/41/43 42/42/44 35/35/37
f 35/35/37 42/42/44 36/36/38
f 42/42/44 43/43/45 36/36/38
f 36/36/38 43/43/45 37/37/39
f 42/42/44 44/44/46 43/43/45
f 44/44/46 45/45/47 43/43/45
f 43/43/45 46/46/48 37/37/39
f 43/43/45 45/45/47 46/46/48
f 37/37/39 46/46/48 38/38/40
f 45/45/47 47/47/49 46/46/48
f 46/46/48 47/47/49 48/48/50
f 46/46/48 48/48/50 38/38/40
f 47/47/49 49/49/51 48/48/50
f 38/38/40 48/48/50 50/50/52
f 38/38/40 50/50/52 34/34/36
f 34/34/36 50/50/52 51/51/53
f 50/50/52 52/52/54 51/51/53
f 48/48/50 49/49/51 53/53/55
f 48/48/50 53/53/55 50/50/52
f 50/50/52 53/53/55 52/52/54
f 49/49/51 54/54/56 53/53/55
f 53/53/55 55/55/57 52/52/54
f 58/58/60 57/57/59 56/56/58
f 59/59/61 58/58/60 56/56/58
f 60/60/62 58/58/60 59/59/61
f 61/61/63 60/60/62 59/59/61
f 60/60/62 62/62/64 58/58/60
f 62/62/64 63/63/65 58/58/60
f 64/64/66 60/60/62 61/61/63
f 65/65/67 64/64/66 61/61/63
f 66/66/68 64/64/66 65/65/67
f 67/67/69 66/66/68 65/65/67
f 64/64/66 68/68/70 60/60/62
f 68/68/70 62/62/64 60/60/62
f 68/68/70 69/69/71 62/62/64
f 62/62/64 70/70/72 63/63/65
f 69/69/71 70/70/72 62/62/64
f 70/70/72 71/71/73 63/63/65
f 69/69/71 72/72/74 70/70/72
f 73/73/75 72/72/74 69/69/71
f 74/74/76 73/73/75 69/69/71
f 72/72/74 75/75/77 70/70/72
f 70/70/72 75/75/77 71/71/73
f 75/75/77 76/76/78 71/71/73
f 71/71/73 76/76/78 77/77/79
f 76/76/78 78/78/80 77/77/79
f 81/81/83 80/80/82 79/79/81
f 80/80/82 82/82/84 79/79/81
f 79/79/81 82/82/84 83/83/85
f 82/82/84 84/84/86 83/83/85
f 83/83/85 84/84/86 85/85/87
f 84/84/86 86/86/88 85/85/87
f 85/85/87 86/86/88 87/87/89
f 86/86/88 88/88/90 87/87/89
f 80/80/82 89/89/91 82/82/84
f 82/82/84 90/90/92 84/84/86
f 89/89/91 90/90/92 82/82/84
f 84/84/86 91/91/93 86/86/88
f 90/90/92 91/91/93 84/84/86
f 86/86/88 92/92/94 88/88/90
f 91/91/93 92/92/94 86/86/88
f 93/93/95 89/89/91 80/80/82
f 94/94/96 93/93/95 80/80/82
f 93/93/95 95/95/97 89/89/91
f 95/95/97 96/96/98 89/89/91
f 89/89/91 96/96/98 90/90/92
f 96/96/98 97/97/99 90/90/92
f 90/90/92 97/97/99 91/91/93
f 96/96/98 98/98/100 97/97/99
f 98/98/100 99/99/101 97/97/99
f 97/97/99 100/100/102 91/91/93
f 97/97/99 99/99/101 100/100/102
f 91/91/93 100/100/102 92/92/94
f 99/99/101 101/101/103 100/100/102
f 100/100/102 101/101/103 102/102/104
f 100/100/102 102/102/104 92/92/94
f 101/101/103 103/103/105 102/102/104
f 92/92/94 102/102/104 104/104/106
f 92/92/94 104/104/106 88/88/90
f 88/88/90 104/104/106 105/105/107
f 104/104/106 106/106/108 105/105/107
f 102/102/104 103/103/105 107/107/109
f 102/102/104 107/107/109 104/104/106
f 104/104/106 107/107/109 106/106/108
f 103/103/105 108/108/110 107/107/109
f 107/107/109 109/109/111 106/106/108
f 112/112/114 111/111/113 110/110/112
f 113/113/115 112/112/114 110/110/112
f 114/114/116 112/112/114 113/113/115
f 115/115/117 114/114/116 113/113/115
f 114/114/116 116/116/118 112/112/114
f 116/116/118 117/117/119 112/112/114
f 118/118/120 114/114/116 115/115/117
f 119/119/121 118/118/120 115/115/117
f 120/120/122 118/118/120 119/119/121
f 121/121/123 120/120/122 119/119/121
f 118/118/120 122/122/124 114/114/116
f 122/122/124 116/116/118 114/114/116
f 122/122/124 123/123/125 116/116/118
f 116/116/118 124/124/126 117/117/119
f 123/123/125 124/124/126 116/116/118
f 124/124/126 125/125/127 117/117/119
f 123/123/125 126/126/128 124/124/126
f 127/127/129 126/126/128 123/123/125
f 128/128/130 127/127/129 123/123/125
f 126/126/128 129/129/131 124/124/126
f 124/124/126 129/129/131 125/125/127
f 129/129/131 130/130/132 125/125/127
f 125/125/127 130/130/132 131/131/133
f 130/130/132 132/132/134 131/131/133
f 135/135/137 134/134/136 133/133/135
f 134/134/136 136/136/138 133/133/135
f 134/134/136 137/137/139 136/136/138
f 137/137/139 138/138/140 136/136/138
f 138/138/140 139/139/141 136/136/138
f 136/136/138 140/140/142 133/133/135
f 139/139/141 140/140/142 136/136/138
f 140/140/142 141/141/143 133/133/135
f 140/140/142 139/139/141 142/142/144
f 140/140/142 142/142/144 143/143/145
f 141/141/143 140/140/142 143/143/145
f 141/141/143 143/143/145 144/144/146
f 145/145/147 141/141/143 144/144/146
f 139/139/141 146/146/148 142/142/144
f 139/139/141 147/147/149 146/146/148
f 147/147/149 148/148/150 146/146/148
f 151/151/153 150/150/152 149/149/151
f 150/150/152 152/152/154 149/149/151
f 150/150/152 153/153/155 152/152/154
f 152/152/154 154/154/156 149/149/151
f 154/154/156 155/155/157 149/149/151
f 153/153/155 156/156/158 152/152/154
f 153/153/155 157/157/159 156/156/158
f 158/158/160 154/154/156 152/152/154
f 156/156/158 158/158/160 152/152/154
f 154/154/156 158/158/160 159/159/161
f 158/158/160 160/160/162 159/159/161
f 158/158/160 161/161/163 160/160/162
f 161/161/163 158/158/160 156/156/158
f 161/161/163 162/162/164 160/160/162
f 157/157/159 163/163/165 156/156/158
f 163/163/165 161/161/163 156/156/158
f 157/157/159 164/164/166 163/163/165
f 161/161/163 165/165/167 162/162/164
f 165/165/167 161/161/163 163/163/165
f 165/165/167 166/166/168 162/162/164
f 164/164/166 167/167/169 163/163/165
f 167/167/169 165/165/167 163/163/165
f 164/164/166 168/168/170 167/167/169
f 165/165/167 169/169/171 166/166/168
f 169/169/171 165/165/167 167/167/169
f 169/169/171 170/170/172 166/166/168
f 168/168/170 171/171/173 167/167/169
f 171/171/173 169/169/171 167/167/169
f 168/168/170 172/172/174 171/171/173
f 173/173/175 169/169/171 171/171/173
f 172/172/174 174/174/176 171/171/173
f 174/174/176 173/173/175 171/171/173
f 177/177/179 176/176/178 175/175/177
f 176/176/178 178/178/180 175/175/177
f 176/176/178 179/179/181 178/178/180
f 179/179/181 180/180/182 178/178/180
f 180/180/182 181/181/183 178/178/180
f 178/178/180 182/182/184 175/175/177
f 181/181/183 182/182/184 178/178/180
f 182/182/184 183/183/185 175/175/177
f 182/182/184 181/181/183 184/184/186
f 182/182/184 184/184/186 185/185/187
f 183/183/185 182/182/184 185/185/187
f 183/183/185 185/185/187 186/186/188
f 187/187/189 183/183/185 186/186/188
f 181/181/183 188/188/190 184/184/186
f 181/181/183 189/189/191 188/188/190
f 189/189/191 190/190/192 188/188/190
f 193/193/195 192/192/194 191/191/193
f 192/192/194 194/194/196 191/191/193
f 192/192/194 195/195/197 194/194/196
f 194/194/196 196/196/198 191/191/193
f 196/196/198 197/197/199 191/191/193
f 195/195/197 198/198/200 194/194/196
f 195/195/197 199/199/201 198/198/200
f 200/200/202 196/196/198 194/194/196
f 198/198/200 200/200/202 194/194/196
f 196/196/198 200/200/202 201/201/203
f 200/200/202 202/202/204 201/201/203
f 200/200/202 203/203/205 202/202/204
f 203/203/205 200/200/202 198/198/200
f 203/203/205 204/204/206 202/202/204
f 199/199/201 205/205/207 198/198/200
f 205/205/207 203/203/205 198/198/200
f 205/205/207 199/199/201 206/206/208
f 204/204/206 203/203/205 207/207/209
f 207/207/209 203/203/205 205/205/207
f 208/208/210 204/204/206 207/207/209
f 209/209/211 205/205/207 206/206/208
f 209/209/211 207/207/209 205/205/207
f 206/206/208 210/210/212 209/209/211
f 207/207/209 211/211/213 208/208/210
f 211/211/213 207/207/209 209/209/211
f 211/211/213 212/212/214 208/208/210
f 210/210/212 213/213/215 209/209/211
f 213/213/215 211/211/213 209/209/211
f 210/210/212 214/214/216 213/213/215
f 215/215/217 211/211/213 213/213/215
f 214/214/216 216/216/218 213/213/215
f 216/216/218 215/215/217 213/213/215
f 219/219/221 218/218/220 217/217/219
f 220/220/222 219/219/221 217/217/219
f 220/220/222 217/217/219 221/221/223
f 222/222/224 220/220/222 221/221/223
f 222/222/224 221/221/223 223/223/225
f 224/224/226 222/222/224 223/223/225
f 224/224/226 223/223/225 225/225/227
f 226/226/228 224/224/226 225/225/227
f 227/227/229 219/219/221 220/220/222
f 228/228/230 220/220/222 222/222/224
f 228/228/230 227/227/229 220/220/222
f 229/229/231 222/222/224 224/224/226
f 229/229/231 228/228/230 222/222/224
f 230/230/232 224/224/226 226/226/228
f 230/230/232 229/229/231 224/224/226
f 227/227/229 231/231/233 219/219/221
f 231/231/233 232/232/234 219/219/221
f 233/233/235 231/231/233 227/227/229
f 234/234/236 233/233/235 227/227/229
f 234/234/236 227/227/229 228/228/230
f 235/235/237 234/234/236 228/228/230
f 235/235/237 228/228/230 229/229/231
f 236/236/238 234/234/236 235/235/237
f 237/237/239 236/236/238 235/235/237
f 238/238/240 235/235/237 229/229/231
f 237/237/239 235/235/237 238/238/240
f 238/238/240 229/229/231 230/230/232
f 239/239/241 237/237/239 238/238/240
f 239/239/241 238/238/240 240/240/242
f 240/240/242 238/238/240 230/230/232
f 241/241/243 239/239/241 240/240/242
f 240/240/242 230/230/232 242/242/244
f 242/242/244 230/230/232 226/226/228
f 242/242/244 226/226/228 243/243/245
f 244/244/246 242/242/244 243/243/245
f 241/241/243 240/240/242 245/245/247
f 245/245/247 240/240/242 242/242/244
f 245/245/247 242/242/244 244/244/246
f 246/246/248 241/241/243 245/245/247
f 247/247/249 245/245/247 244/244/246
f 250/250/252 249/249/251 248/248/250
f 249/249/251 251/251/253 248/248/250
f 249/249/251 252/252/254 251/251/253
f 252/252/254 253/253/255 251/251/253
f 254/254/256 252/252/254 249/249/251
f 255/255/257 254/254/256 249/249/251
f 252/252/254 256/256/258 253/253/255
f 256/256/258 257/257/259 253/253/255
f 256/256/258 258/258/260 257/257/259
f 258/258/260 259/259/261 257/257/259
f 260/260/262 256/256/258 252/252/254
f 254/254/256 260/260/262 252/252/254
f 261/261/263 260/260/262 254/254/256
f 262/262/264 254/254/256 255/255/257
f 262/262/264 261/261/263 254/254/256
f 263/263/265 262/262/264 255/255/257
f 264/264/266 261/261/263 262/262/264
f 264/264/266 265/265/267 261/261/263
f 265/265/267 266/266/268 261/261/263
f 267/267/269 264/264/266 262/262/264
f 267/267/269 262/262/264 263/263/265
f 268/268/270 267/267/269 263/263/265
f 268/268/270 263/263/265 269/269/271
f 270/270/272 268/268/270 269/269/271
f 273/273/275 272/272/274 271/271/273
f 274/274/276 273/273/275 271/271/273
f 274/274/276 271/271/273 275/275/277
f 276/276/278 274/274/276 275/275/277
f 276/276/278 275/275/277 277/277/279
f 278/278/280 276/276/278 277/277/279
f 278/278/280 277/277/279 279/279/281
f 280/280/282 278/278/280 279/279/281
f 281/281/283 273/273/275 274/274/276
f 282/282/284 274/274/276 276/276/278
f 282/282/284 281/281/283 274/274/276
f 283/283/285 276/276/278 278/278/280
f 283/283/285 282/282/284 276/276/278
f 284/284/286 278/278/280 280/280/282
f 284/284/286 283/283/285 278/278/280
f 281/281/283 285/285/287 273/273/275
f 285/285/287 286/286/288 273/273/275
f 287/287/289 285/285/287 281/281/283
f 288/288/290 287/287/289 281/281/283
f 288/288/290 281/281/283 282/282/284
f 289/289/291 288/288/290 282/282/284
f 289/289/291 282/282/284 283/283/285
f 290/290/292 288/288/290 289/289/291
f 291/291/293 290/290/292 289/289/291
f 292/292/294 289/289/291 283/283/285
f 291/291/293 289/289/291 292/292/294
f 292/292/294 283/283/285 284/284/286
f 293/293/295 291/291/293 292/292/294
f 293/293/295 292/292/294 294/294/296
f 294/294/296 292/292/294 284/284/286
f 295/295/297 293/293/295 294/294/296
f 294/294/296 284/284/286 296/296/298
f 296/296/298 284/284/286 280/280/282
f 296/296/298 280/280/282 297/297/299
f 298/298/300 296/296/298 297/297/299
f 295/295/297 294/294/296 299/299/301
f 299/299/301 294/294/296 296/296/298
f 299/299/301 296/296/298 298/298/300
f 300/300/302 295/295/297 299/299/301
f 301/301/303 299/299/301 298/298/300
f 304/304/306 303/303/305 302/302/304
f 303/303/305 305/305/307 302/302/304
f 303/303/305 306/306/308 305/305/307
f 306/306/308 307/307/309 305/305/307
f 308/308/310 306/306/308 303/303/305
f 309/309/311 308/308/310 303/303/305
f 306/306/308 310/310/312 307/307/309
f 310/310/312 311/311/313 307/307/309
f 310/310/312 312/312/314 311/311/313
f 312/312/314 313/313/315 311/311/313
f 314/314/316 310/310/312 306/306/308
f 308/308/310 314/314/316 306/306/308
f 315/315/317 314/314/316 308/308/310
f 316/316/318 308/308/310 309/309/311
f 316/316/318 315/315/317 308/308/310
f 317/317/319 316/316/318 309/309/311
f 318/318/320 315/315/317 316/316/318
f 318/318/320 319/319/321 315/315/317
f 319/319/321 320/320/322 315/315/317
f 321/321/323 318/318/320 316/316/318
f 321/321/323 316/316/318 317/317/319
f 322/322/324 321/321/323 317/317/319
f 322/322/324 317/317/319 323/323/325
f 324/324/326 322/322/324 323/323/325
f 327/327/329 326/326/328 325/325/327
f 328/328/330 327/327/329 325/325/327
f 329/329/331 327/327/329 328/328/330
f 330/330/332 329/329/331 328/328/330
f 331/331/333 330/330/332 328/328/330
f 332/332/334 328/328/330 325/325/327
f 332/332/334 331/331/333 328/328/330
f 333/333/335 332/332/334 325/325/327
f 331/331/333 332/332/334 334/334/336
f 334/334/336 332/332/334 335/335/337
f 332/332/334 333/333/335 335/335/337
f 335/335/337 333/333/335 336/336/338
f 333/333/335 337/337/339 336/336/338
f 338/338/340 331/331/333 334/334/336
f 339/339/341 331/331/333 338/338/340
f 340/340/342 339/339/341 338/338/340
f 343/343/345 342/342/344 341/341/343
f 344/344/346 343/343/345 341/341/343
f 345/345/347 343/343/345 344/344/346
f 346/346/348 344/344/346 341/341/343
f 347/347/349 346/346/348 341/341/343
f 348/348/350 345/345/347 344/344/346
f 349/349/351 345/345/347 348/348/350
f 346/346/348 350/350/352 344/344/346
f 350/350/352 348/348/350 344/344/346
f 350/350/352 346/346/348 351/351/353
f 352/352/354 350/350/352 351/351/353
f 353/353/355 350/350/352 352/352/354
f 350/350/352 353/353/355 348/348/350
f 354/354/356 353/353/355 352/352/354
f 355/355/357 349/349/351 348/348/350
f 353/353/355 355/355/357 348/348/350
f 356/356/358 349/349/351 355/355/357
f 357/357/359 353/353/355 354/354/356
f 353/353/355 357/357/359 355/355/357
f 358/358/360 357/357/359 354/354/356
f 359/359/361 356/356/358 355/355/357
f 357/357/359 359/359/361 355/355/357
f 360/360/362 356/356/358 359/359/361
f 361/361/363 357/357/359 358/358/360
f 357/357/359 361/361/363 359/359/361
f 362/362/364 361/361/363 358/358/360
f 363/363/365 360/360/362 359/359/361
f 361/361/363 363/363/365 359/359/361
f 364/364/366 360/360/362 363/363/365
f 361/361/363 365/365/367 363/363/365
f 366/366/368 364/364/366 363/363/365
f 365/365/367 366/366/368 363/363/365
f 369/369/371 368/368/370 367/367/369
f 370/370/372 369/369/371 367/367/369
f 371/371/373 369/369/371 370/370/372
f 372/372/374 371/371/373 370/370/372
f 373/373/375 372/372/374 370/370/372
f 374/374/376 370/370/372 367/367/369
f 374/374/376 373/373/375 370/370/372
f 375/375/377 374/374/376 367/367/369
f 373/373/375 374/374/376 376/376/378
f 376/376/378 374/374/376 377/377/379
f 374/374/376 375/375/377 377/377/379
f 377/377/379 375/375/377 378/378/380
f 375/375/377 379/379/381 378/378/380
f 380/380/382 373/373/375 376/376/378
f 381/381/383 373/373/375 380/380/382
f 382/382/384 381/381/383 380/380/382
f 385/385/387 384/384/386 383/383/385
f 386/386/388 385/385/387 383/383/385
f 387/387/389 385/385/387 386/386/388
f 388/388/390 386/386/388 383/383/385
f 389/389/391 388/388/390 383/383/385
f 390/390/392 387/387/389 386/386/388
f 391/391/393 387/387/389 390/390/392
f 388/388/390 392/392/394 386/386/388
f 392/392/394 390/390/392 386/386/388
f 392/392/394 388/388/390 393/393/395
f 394/394/396 392/392/394 393/393/395
f 395/395/397 392/392/394 394/394/396
f 392/392/394 395/395/397 390/390/392
f 396/396/398 395/395/397 394/394/396
f 397/397/399 391/391/393 390/390/392
f 395/395/397 397/397/399 390/390/392
f 391/391/393 397/397/399 398/398/400
f 395/395/397 396/396/398 399/399/401
f 395/395/397 399/399/401 397/397/399
f 396/396/398 400/400/402 399/399/401
f 397/397/399 401/401/403 398/398/400
f 399/399/401 401/401/403 397/397/399
f 402/402/404 398/398/400 401/401/403
f 403/403/405 399/399/401 400/400/402
f 399/399/401 403/403/405 401/401/403
f 404/404/406 403/403/405 400/400/402
f 405/405/407 402/402/404 401/401/403
f 403/403/405 405/405/407 401/401/403
f 406/406/408 402/402/404 405/405/407
f 403/403/405 407/407/409 405/405/407
f 408/408/410 406/406/408 405/405/407
f 407/407/409 408/408/410 405/405/407
f 411/411/413 410/410/412 409/409/411
f 410/410/412 412/412/414 409/409/411
f 412/412/414 410/410/412 413/413/415
f 409/409/411 414/414/416 411/411/413
f 414/414/416 415/415/417 411/411/413
f 416/416/418 412/412/414 413/413/415
f 416/416/418 413/413/415 417/417/419
f 414/414/416 418/418/420 415/415/417
f 418/418/420 419/419/421 415/415/417
f 420/420/422 416/416/418 417/417/419
f 420/420/422 417/417/419 421/421/423
f 418/418/420 422/422/424 419/419/421
f 422/422/424 423/423/425 419/419/421
f 424/424/426 420/420/422 421/421/423
f 424/424/426 421/421/423 425/425/427
f 422/422/424 426/426/428 423/423/425
f 426/426/428 427/427/429 423/423/425
f 428/428/430 424/424/426 425/425/427
f 428/428/430 425/425/427 429/429/431
f 426/426/428 430/430/432 427/427/429
f 430/430/432 431/431/433 427/427/429
f 432/432/434 428/428/430 429/429/431
f 432/432/434 429/429/431 433/433/435
f 430/430/432 434/434/436 431/431/433
f 434/434/436 435/435/437 431/431/433
f 436/436/438 432/432/434 433/433/435
f 436/436/438 433/433/435 437/437/439
f 434/434/436 438/438/440 435/435/437
f 438/438/440 439/439/441 435/435/437
f 440/440/442 437/437/439 439/439/441
f 440/440/442 436/436/438 437/437/439
f 438/438/440 440/440/442 439/439/441
f 430/430/432 426/426/428 441/441/443
f 426/426/428 442/442/444 441/441/443
f 430/430/432 441/441/443 443/443/445
f 434/434/436 430/430/432 443/443/445
f 426/426/428 422/422/424 442/442/444
f 434/434/436 443/443/445 444/444/446
f 438/438/440 434/434/436 444/444/446
f 422/422/424 445/445/447 442/442/444
f 438/438/440 444/444/446 446/446/448
f 440/440/442 438/438/440 446/446/448
f 422/422/424 418/418/420 445/445/447
f 440/440/442 446/446/448 447/447/449
f 436/436/438 440/440/442 447/447/449
f 418/418/420 448/448/450 445/445/447
f 436/436/438 447/447/449 449/449/451
f 418/418/420 414/414/416 448/448/450
f 432/432/434 436/436/438 449/449/451
f 414/414/416 450/450/452 448/448/450
f 432/432/434 449/449/451 451/451/453
f 414/414/416 409/409/411 450/450/452
f 428/428/430 432/432/434 451/451/453
f 409/409/411 452/452/454 450/450/452
f 428/428/430 451/451/453 453/453/455
f 409/409/411 412/412/414 452/452/454
f 424/424/426 428/428/430 453/453/455
f 412/412/414 454/454/456 452/452/454
f 424/424/426 453/453/455 455/455/457
f 412/412/414 416/416/418 454/454/456
f 420/420/422 424/424/426 455/455/457
f 416/416/418 456/456/458 454/454/456
f 420/420/422 455/455/457 456/456/458
f 416/416/418 420/420/422 456/456/458
f 459/459/461 458/458/460 457/457/459
f 460/460/462 459/459/461 457/457/459
f 457/457/459 458/458/460 461/461/463
f 462/462/464 459/459/461 460/460/462
f 458/458/460 463/463/465 461/461/463
f 464/464/466 462/462/464 460/460/462
f 461/461/463 463/463/465 465/465/467
f 466/466/468 462/462/464 464/464/466
f 463/463/465 467/467/469 465/465/467
f 468/468/470 466/466/468 464/464/466
f 465/465/467 467/467/469 469/469/471
f 470/470/472 466/466/468 468/468/470
f 467/467/469 471/471/473 469/469/471
f 472/472/474 470/470/472 468/468/470
f 469/469/471 471/471/473 473/473/475
f 474/474/476 470/470/472 472/472/474
f 471/471/473 475/475/477 473/473/475
f 476/476/478 474/474/476 472/472/474
f 473/473/475 475/475/477 477/477/479
f 478/478/480 474/474/476 476/476/478
f 475/475/477 479/479/481 477/477/479
f 480/480/482 478/478/480 476/476/478
f 477/477/479 479/479/481 481/481/483
f 482/482/484 478/478/480 480/480/482
f 479/479/481 483/483/485 481/481/483
f 484/484/486 482/482/484 480/480/482
f 481/481/483 483/483/485 485/485/487
f 486/486/488 482/482/484 484/484/486
f 483/483/485 487/487/489 485/485/487
f 488/488/490 486/486/488 484/484/486
f 485/485/487 487/487/489 488/488/490
f 487/487/489 486/486/488 488/488/490
f 491/491/493 490/490/492 489/489/491
f 492/492/494 491/491/493 489/489/491
f 491/491/493 492/492/494 493/493/495
f 494/494/496 489/489/491 490/490/492
f 495/495/497 494/494/496 490/490/492
f 492/492/494 496/496/498 493/493/495
f 493/493/495 496/496/498 497/497/499
f 498/498/500 494/494/496 495/495/497
f 499/499/501 498/498/500 495/495/497
f 496/496/498 500/500/502 497/497/499
f 497/497/499 500/500/502 501/501/503
f 502/502/504 498/498/500 499/499/501
f 503/503/505 502/502/504 499/499/501
f 500/500/502 504/504/506 501/501/503
f 501/501/503 504/504/506 505/505/507
f 506/506/508 502/502/504 503/503/505
f 507/507/509 506/506/508 503/503/505
f 504/504/506 508/508/510 505/505/507
f 505/505/507 508/508/510 509/509/511
f 510/510/512 506/506/508 507/507/509
f 511/511/513 510/510/512 507/507/509
f 508/508/510 512/512/514 509/509/511
f 509/509/511 512/512/514 513/513/515
f 514/514/516 510/510/512 511/511/513
f 515/515/517 514/514/516 511/511/513
f 512/512/514 516/516/518 513/513/515
f 513/513/515 516/516/518 517/517/519
f 518/518/520 514/514/516 515/515/517
f 519/519/521 518/518/520 515/515/517
f 517/517/519 520/520/522 519/519/521
f 516/516/518 520/520/522 517/517/519
f 520/520/522 518/518/520 519/519/521
f 506/506/508 510/510/512 521/521/523
f 522/522/524 506/506/508 521/521/523
f 521/521/523 510/510/512 523/523/525
f 510/510/512 514/514/516 523/523/525
f 502/502/504 506/506/508 522/522/524
f 523/523/525 514/514/516 524/524/526
f 514/514/516 518/518/520 524/524/526
f 525/525/527 502/502/504 522/522/524
f 524/524/526 518/518/520 526/526/528
f 518/518/520 520/520/522 526/526/528
f 498/498/500 502/502/504 525/525/527
f 526/526/528 520/520/522 527/527/529
f 520/520/522 516/516/518 527/527/529
f 528/528/530 498/498/500 525/525/527
f 527/527/529 516/516/518 529/529/531
f 494/494/496 498/498/500 528/528/530
f 516/516/518 512/512/514 529/529/531
f 530/530/532 494/494/496 528/528/530
f 529/529/531 512/512/514 531/531/533
f 489/489/491 494/494/496 530/530/532
f 512/512/514 508/508/510 531/531/533
f 532/532/534 489/489/491 530/530/532
f 531/531/533 508/508/510 533/533/535
f 492/492/494 489/489/491 532/532/534
f 508/508/510 504/504/506 533/533/535
f 534/534/536 492/492/494 532/532/534
f 533/533/535 504/504/506 535/535/537
f 496/496/498 492/492/494 534/534/536
f 504/504/506 500/500/502 535/535/537
f 536/536/538 496/496/498 534/534/536
f 535/535/537 500/500/502 536/536/538
f 500/500/502 496/496/498 536/536/538
f 539/539/541 538/538/540 537/537/539
f 538/538/540 540/540/542 537/537/539
f 539/539/541 537/537/539 541/541/543
f 538/538/540 542/542/544 540/540/542
f 543/543/545 539/539/541 541/541/543
f 542/542/544 544/544/546 540/540/542
f 543/543/545 541/541/543 545/545/547
f 542/542/544 546/546/548 544/544/546
f 547/547/549 543/543/545 545/545/547
f 546/546/548 548/548/550 544/544/546
f 547/547/549 545/545/547 549/549/551
f 546/546/548 550/550/552 548/548/550
f 551/551/553 547/547/549 549/549/551
f 550/550/552 552/552/554 548/548/550
f 551/551/553 549/549/551 553/553/555
f 550/550/552 554/554/556 552/552/554
f 555/555/557 551/551/553 553/553/555
f 554/554/556 556/556/558 552/552/554
f 555/555/557 553/553/555 557/557/559
f 554/554/556 558/558/560 556/556/558
f 559/559/561 555/555/557 557/557/559
f 558/558/560 560/560/562 556/556/558
f 559/559/561 557/557/559 561/561/563
f 558/558/560 562/562/564 560/560/562
f 563/563/565 559/559/561 561/561/563
f 562/562/564 564/564/566 560/560/562
f 563/563/565 561/561/563 565/565/567
f 562/562/564 566/566/568 564/564/566
f 567/567/569 563/563/565 565/565/567
f 566/566/568 568/568/570 564/564/566
f 567/567/569 565/565/567 568/568/570
f 566/566/568 567/567/569 568/568/570
