mtllib Doorway_1.mtl
v -0.004863052 0.01179886 -0.08456919
v -0.01251083 0.01256622 -0.08021555
v -0.0089859 0.009044189 -0.08457109
v -0.006770668 0.01640121 -0.0802129
v 0 0.01276627 -0.08456852
v 0 0.01774826 -0.08021196
v 0.006770744 0.01276627 -0.08456852
v -0.006770668 0.01638138 -0.05145908
v 0.006770744 0.01792954 -0.08021184
v 0.0200808 0.01276611 -0.08427887
v 0 0.01772827 -0.05145815
v -0.006770668 0.01634567 0.05162248
v 0 0.01769272 0.05162248
v 0.006770744 0.01657501 -0.05145894
v 0.0200824 0.01639999 -0.06449164
v 0.006770744 0.01653931 0.05162248
v 0.0200824 0.01641129 -0.08094288
v 0.03014339 0.01587967 -0.06713849
v 0.03008343 0.01583603 -0.08172193
v 0.03007229 0.01204849 -0.08363499
v 0.04114056 0.01531097 -0.07003164
v 0.04119976 0.01531967 -0.08242121
v 0.06439751 0.01451248 -0.08122288
v 0.06441803 0.01450561 -0.07162016
v 0.08901337 0.01417343 -0.07131273
v 0.09032801 0.0141777 -0.07793004
v 0.1076736 0.01336899 -0.06744101
v 0.1095807 0.01337204 -0.07201252
v 0.1198231 0.01318268 -0.06099437
v 0.1221457 0.01318466 -0.06386106
v 0.1279176 0.01276642 -0.05295064
v 0.1298973 0.01276886 -0.05441391
v 0.1314603 0.01244705 -0.0452803
v 0.1330936 0.01244736 -0.04575805
v 0.1350053 0.01091537 -0.03343289
v 0.1355382 0.01091537 -0.03352275
v 0.1356904 0.009012756 -0.03078995
v 0.1360334 0.009004211 -0.03081776
v 0.006770744 0.01657501 -0.05145894
v 0.0200824 0.01639999 -0.06449164
v 0.02119297 0.01207352 -0.06221231
v 0.01265861 0.01269424 -0.05146163
v 0.006770744 0.01653931 0.05162248
v 0.01656891 0.006815185 -0.05146569
v 0.02240051 0.005359497 -0.06105606
v 0.01265861 0.01265869 0.05162248
v 0.01769268 3.555298E-05 -0.05147038
v 0.02335701 4.165649E-05 -0.06014024
v 0.01656891 0.006779633 0.05162248
v 0.01769268 0 0.05162248
v 0.02119297 0.01203049 0.06237273
v 0.0200824 0.01635529 0.06465504
v 0.02240051 0.00531723 0.06121183
v 0.02335701 0 0.06029233
v 0.04119976 0.01531967 -0.08242121
v 0.03008343 0.01583603 -0.08172193
v 0.03007229 0.01204849 -0.08363499
v 0.04120895 0.01173538 -0.08314274
v 0.06439751 0.01451248 -0.08122288
v 0.06442741 0.01130188 -0.08190353
v 0.09032801 0.0141777 -0.07793004
v 0.09044815 0.01092331 -0.07851288
v 0.1095807 0.01337204 -0.07201252
v 0.109882 0.01050125 -0.07259399
v 0.1105202 5.096435E-05 -0.07370152
v 0.09063759 5.493164E-05 -0.07949075
v 0.06442741 5.752563E-05 -0.08328198
v 0.09044815 -0.01081482 -0.07852791
v 0.109882 -0.0104007 -0.07260845
v 0.1095807 -0.0132724 -0.07203094
v 0.09032801 -0.01406998 -0.07794957
v 0.06442741 -0.01118866 -0.08191907
v 0.06439751 -0.01440002 -0.08124285
v 0.04120895 -0.01162033 -0.0831589
v 0.04119976 -0.01520554 -0.0824423
v 0.04120895 5.859375E-05 -0.08469922
v 0.03007229 -0.01193268 -0.08365156
v 0.03008343 -0.01572296 -0.08174375
v 0.02982643 5.859375E-05 -0.08464906
v 0.020084 5.844116E-05 -0.08443248
v 0.0200808 0.01276611 -0.08427887
v 0.0200808 -0.01264938 -0.08429644
v 0.006770744 0.01276627 -0.08456852
v 0.006770744 -0.01264923 -0.08458608
v 0.006770744 5.844116E-05 -0.0845773
v 0 0.01276627 -0.08456852
v 0 -0.01264923 -0.08458608
v 0 5.844116E-05 -0.0845773
v -0.004863052 0.01179886 -0.08456919
v -0.004863052 -0.01168182 -0.08458541
v -0.0089859 0.009044189 -0.08457109
v -0.0089859 -0.008927307 -0.08458351
v -0.01174053 0.004921569 -0.08457395
v -0.01174053 -0.004804535 -0.08458067
v -0.01270775 5.844116E-05 -0.0845773
v 0.1076736 0.01336899 -0.06744101
v 0.1198231 0.01318268 -0.06099437
v 0.119533 0.009901276 -0.06061306
v 0.1074929 0.01011307 -0.06696577
v 0.08901337 0.01417343 -0.07131273
v 0.1072313 4.592895E-05 -0.06634472
v 0.1192022 4.165649E-05 -0.06021165
v 0.119533 -0.009817353 -0.06062669
v 0.088936 0.0108252 -0.07076756
v 0.06441803 0.01450561 -0.07162016
v 0.08876331 4.837036E-05 -0.06989048
v 0.1074929 -0.01002029 -0.06697968
v 0.06442741 0.01114105 -0.0710005
v 0.04114056 0.01531097 -0.07003164
v 0.1076736 -0.0132756 -0.06745943
v 0.1198231 -0.01309814 -0.06101254
v 0.08901337 -0.01407486 -0.07133226
v 0.088936 -0.01072723 -0.07078245
v 0.06441803 -0.01440643 -0.07164014
v 0.06442741 4.821777E-05 -0.06975719
v 0.06442741 -0.01104279 -0.07101583
v 0.04114056 -0.01521423 -0.07005274
v 0.04120895 4.699707E-05 -0.06797861
v 0.04120895 0.01144165 -0.06938586
v 0.03014339 0.01587967 -0.06713849
v 0.04120895 -0.01134552 -0.0694016
v 0.03014339 -0.0157869 -0.06716038
v 0.03022236 0.01178848 -0.06544835
v 0.0200824 0.01639999 -0.06449164
v 0.02119297 0.01207352 -0.06221231
v 0.02240051 0.005359497 -0.06105606
v 0.02335701 4.165649E-05 -0.06014024
v 0.03036098 0.005322418 -0.06426084
v 0.03022236 -0.01169785 -0.06546459
v 0.0200824 -0.01631073 -0.06451425
v 0.02119297 -0.01198746 -0.06222894
v 0.02240051 -0.005274963 -0.0610634
v 0.02335701 4.165649E-05 -0.06014024
v 0.03036098 -0.005233459 -0.06426813
v 0.109882 0.01050125 -0.07259399
v 0.1221457 0.01318466 -0.06386106
v 0.1095807 0.01337204 -0.07201252
v 0.1225557 0.01039413 -0.06435062
v 0.1298973 0.01276886 -0.05441391
v 0.1233117 4.516602E-05 -0.06532264
v 0.1105202 5.096435E-05 -0.07370152
v 0.109882 -0.0104007 -0.07260845
v 0.1302889 0.009995727 -0.05465273
v 0.1330936 0.01244736 -0.04575805
v 0.1306329 3.799438E-05 -0.0549056
v 0.1225557 -0.01030518 -0.06436493
v 0.1335076 0.009728698 -0.04588103
v 0.1355382 0.01091537 -0.03352275
v 0.1221457 -0.01309616 -0.06387924
v 0.1095807 -0.0132724 -0.07203094
v 0.1298973 -0.01269363 -0.05443151
v 0.1302889 -0.009920197 -0.05466649
v 0.1330936 -0.01238403 -0.04577521
v 0.1338153 3.173828E-05 -0.04597776
v 0.1335076 -0.009665222 -0.04589444
v 0.1355382 -0.01086899 -0.03353781
v 0.1359092 0.008127442 -0.03369457
v 0.1360334 0.009004211 -0.03081776
v 0.1364972 0.006871185 -0.03063722
v 0.1366378 2.120972E-05 -0.03065564
v 0.1360911 2.334595E-05 -0.03362351
v 0.1359092 -0.00808075 -0.03370577
v 0.1360334 -0.008961487 -0.03083017
v 0.1364972 -0.006828613 -0.03064669
v 0.1350053 0.01091537 -0.03343289
v 0.1356904 0.009012756 -0.03078995
v 0.1353701 0.006884308 -0.03052756
v 0.1345942 0.008074036 -0.03346923
v 0.1314603 0.01244705 -0.0452803
v 0.1344806 2.304077E-05 -0.03335192
v 0.1353701 2.120972E-05 -0.0305323
v 0.1353701 -0.006842041 -0.03053704
v 0.131052 0.009227905 -0.04516308
v 0.1279176 0.01276642 -0.05295064
v 0.1307774 3.112793E-05 -0.04508911
v 0.1345942 -0.008027801 -0.03348035
v 0.1275479 0.009511413 -0.05269299
v 0.1198231 0.01318268 -0.06099437
v 0.119533 0.009901276 -0.06061306
v 0.1192022 4.165649E-05 -0.06021165
v 0.1272405 3.631592E-05 -0.05247968
v 0.1350053 -0.01086899 -0.03344794
v 0.1356904 -0.008970184 -0.03080239
v 0.1314603 -0.01238434 -0.04529746
v 0.131052 -0.009165497 -0.04517579
v 0.1279176 -0.01269318 -0.05296823
v 0.1275479 -0.009438629 -0.05270609
v 0.119533 -0.009817353 -0.06062669
v 0.1198231 -0.01309814 -0.06101254
v 0.1356904 0.009012756 -0.03078995
v 0.1360334 0.009004211 -0.03081776
v 0.1364972 0.006871185 -0.03063722
v 0.1353701 0.006884308 -0.03052756
v 0.1353701 2.120972E-05 -0.0305323
v 0.1366378 2.120972E-05 -0.03065564
v 0.1364972 -0.006828613 -0.03064669
v 0.1353701 -0.006842041 -0.03053704
v 0.1356904 -0.008970184 -0.03080239
v 0.1360334 -0.008961487 -0.03083017
v -0.004863052 -0.01168182 -0.08458541
v -0.0089859 -0.008927307 -0.08458351
v -0.01251083 -0.01245529 -0.08023284
v -0.006770668 -0.01629028 -0.08023549
v 0 -0.01264923 -0.08458608
v 0 -0.01763718 -0.08023642
v 0.006770744 -0.01264923 -0.08458608
v -0.006770668 -0.01631012 -0.05148168
v 0.006770744 -0.01781845 -0.08023655
v 0.0200808 -0.01264938 -0.08429644
v 0 -0.01765716 -0.0514826
v -0.006770668 -0.01634583 0.05162248
v 0 -0.01769272 0.05162248
v 0.006770744 -0.01650375 -0.05148181
v 0.0200824 -0.01631073 -0.06451425
v 0.006770744 -0.01653946 0.05162248
v 0.0200824 -0.01629944 -0.08096549
v 0.03014339 -0.0157869 -0.06716038
v 0.03008343 -0.01572296 -0.08174375
v 0.03007229 -0.01193268 -0.08365156
v 0.04114056 -0.01521423 -0.07005274
v 0.04119976 -0.01520554 -0.0824423
v 0.06439751 -0.01440002 -0.08124285
v 0.06441803 -0.01440643 -0.07164014
v 0.08901337 -0.01407486 -0.07133226
v 0.09032801 -0.01406998 -0.07794957
v 0.1076736 -0.0132756 -0.06745943
v 0.1095807 -0.0132724 -0.07203094
v 0.1198231 -0.01309814 -0.06101254
v 0.1221457 -0.01309616 -0.06387924
v 0.1279176 -0.01269318 -0.05296823
v 0.1298973 -0.01269363 -0.05443151
v 0.1314603 -0.01238434 -0.04529746
v 0.1330936 -0.01238403 -0.04577521
v 0.1350053 -0.01086899 -0.03344794
v 0.1355382 -0.01086899 -0.03353781
v 0.1356904 -0.008970184 -0.03080239
v 0.1360334 -0.008961487 -0.03083017
v 0.006770744 -0.01650375 -0.05148181
v 0.02119297 -0.01198746 -0.06222894
v 0.0200824 -0.01631073 -0.06451425
v 0.01265861 -0.01262314 -0.05147912
v 0.006770744 -0.01653946 0.05162248
v 0.01656891 -0.006744079 -0.05147506
v 0.02240051 -0.005274963 -0.0610634
v 0.01265861 -0.01265869 0.05162248
v 0.01769268 3.555298E-05 -0.05147038
v 0.02335701 4.165649E-05 -0.06014024
v 0.01656891 -0.006779633 0.05162248
v 0.01769268 0 0.05162248
v 0.02119297 -0.01203049 0.06237273
v 0.0200824 -0.01635544 0.06465504
v 0.02240051 -0.00531723 0.06121183
v 0.02335701 0 0.06029233
v -0.004863052 0.01174026 0.0847294
v -0.0089859 0.008985749 0.0847294
v -0.01251083 0.01251068 0.08037628
v -0.006770668 0.01634567 0.08037628
v 0 0.01270767 0.0847294
v 0 0.01769272 0.08037628
v 0.006770744 0.01270767 0.0847294
v 0.006770744 0.01787399 0.08037628
v 0.0200824 0.01635529 0.06465504
v 0.0200808 0.01270767 0.08443975
v 0.0200824 0.01635529 0.08110627
v 0.03014339 0.01583328 0.06730153
v 0.03008343 0.01577942 0.08188494
v 0.03007229 0.01199051 0.08379538
v 0.04114056 0.0152626 0.0701943
v 0.04119976 0.0152626 0.08258385
v 0.06439751 0.01445618 0.08138496
v 0.06441803 0.01445602 0.07178225
v 0.08901337 0.01412414 0.0714746
v 0.09032801 0.01412384 0.0780919
v 0.1076736 0.0133223 0.06760231
v 0.1095807 0.01332214 0.07217383
v 0.1198231 0.01314041 0.06115555
v 0.1221457 0.01314041 0.06402225
v 0.1279176 0.0127298 0.05311154
v 0.1298973 0.01273117 0.05457482
v 0.1314603 0.01241562 0.04544097
v 0.1330936 0.01241562 0.04591873
v 0.1350053 0.01089218 0.0335925
v 0.1355382 0.01089218 0.03368237
v 0.1356904 0.008991394 0.03094826
v 0.1360334 0.008982849 0.03097605
v 0.04119976 0.0152626 0.08258385
v 0.03007229 0.01199051 0.08379538
v 0.03008343 0.01577942 0.08188494
v 0.04120895 0.01167786 0.08330292
v 0.06439751 0.01445618 0.08138496
v 0.06442741 0.01124527 0.08206341
v 0.09032801 0.01412384 0.0780919
v 0.09044815 0.01086899 0.07867249
v 0.1095807 0.01332214 0.07217383
v 0.109882 0.0104509 0.07275332
v 0.1105202 0 0.07385362
v 0.09063759 0 0.07964285
v 0.06442741 0 0.08343408
v 0.09044815 -0.01086914 0.07867249
v 0.109882 -0.01045105 0.07275332
v 0.1095807 -0.0133223 0.07217383
v 0.09032801 -0.01412384 0.0780919
v 0.06442741 -0.01124527 0.08206341
v 0.06439751 -0.01445633 0.08138496
v 0.04120895 -0.01167786 0.08330292
v 0.04119976 -0.0152626 0.08258385
v 0.04120895 0 0.08485132
v 0.03007229 -0.01199066 0.08379538
v 0.03008343 -0.01577957 0.08188494
v 0.02982643 0 0.08480116
v 0.020084 0 0.08458458
v 0.0200808 0.01270767 0.08443975
v 0.0200808 -0.01270782 0.08443975
v 0.006770744 0.01270767 0.0847294
v 0.006770744 -0.01270782 0.0847294
v 0.006770744 0 0.0847294
v 0 0.01270767 0.0847294
v 0 -0.01270782 0.0847294
v 0 0 0.0847294
v -0.004863052 0.01174026 0.0847294
v -0.004863052 -0.01174042 0.0847294
v -0.0089859 0.008985749 0.0847294
v -0.0089859 -0.008985749 0.0847294
v -0.01174053 0.004862976 0.0847294
v -0.01174053 -0.004863129 0.0847294
v -0.01270775 0 0.0847294
v 0.1076736 0.0133223 0.06760231
v 0.119533 0.009859314 0.06077198
v 0.1198231 0.01314041 0.06115555
v 0.1074929 0.01006668 0.06712482
v 0.08901337 0.01412414 0.0714746
v 0.1072313 0 0.06649681
v 0.1192022 0 0.06036374
v 0.119533 -0.009859314 0.06077198
v 0.088936 0.01077621 0.07092711
v 0.06441803 0.01445602 0.07178225
v 0.08876331 0 0.07004257
v 0.1074929 -0.01006668 0.06712482
v 0.06442741 0.01109192 0.07116027
v 0.04114056 0.0152626 0.0701943
v 0.1076736 -0.0133223 0.06760231
v 0.1198231 -0.01314041 0.06115555
v 0.08901337 -0.01412414 0.0714746
v 0.088936 -0.01077621 0.07092711
v 0.06441803 -0.01445602 0.07178225
v 0.06442741 0 0.06990929
v 0.06442741 -0.01109192 0.07116027
v 0.04114056 -0.0152626 0.0701943
v 0.04120895 0 0.06813072
v 0.04120895 0.01139359 0.06954583
v 0.03014339 0.01583328 0.06730153
v 0.04120895 -0.01139359 0.06954583
v 0.03014339 -0.01583328 0.06730153
v 0.03022236 0.01174316 0.06560857
v 0.0200824 0.01635529 0.06465504
v 0.02119297 0.01203049 0.06237273
v 0.02240051 0.00531723 0.06121183
v 0.02335701 0 0.06029233
v 0.03036098 0.005277862 0.06441658
v 0.03022236 -0.01174316 0.06560857
v 0.0200824 -0.01635544 0.06465504
v 0.02119297 -0.01203049 0.06237273
v 0.02240051 -0.00531723 0.06121183
v 0.02335701 0 0.06029233
v 0.03036098 -0.005278015 0.06441658
v 0.109882 0.0104509 0.07275332
v 0.1095807 0.01332214 0.07217383
v 0.1221457 0.01314041 0.06402225
v 0.1225557 0.01034958 0.06450987
v 0.1298973 0.01273117 0.05457482
v 0.1233117 0 0.06547474
v 0.1105202 0 0.07385362
v 0.109882 -0.01045105 0.07275332
v 0.1302889 0.009957885 0.05481171
v 0.1330936 0.01241562 0.04591873
v 0.1306329 0 0.0550577
v 0.1225557 -0.01034973 0.06450987
v 0.1335076 0.00969696 0.04603983
v 0.1355382 0.01089218 0.03368237
v 0.1221457 -0.01314041 0.06402225
v 0.1095807 -0.0133223 0.07217383
v 0.1298973 -0.01273132 0.05457482
v 0.1302889 -0.009958038 0.05481171
v 0.1330936 -0.01241577 0.04591873
v 0.1338153 0 0.04612985
v 0.1335076 -0.00969696 0.04603983
v 0.1355382 -0.01089218 0.03368237
v 0.1359092 0.008104095 0.03385226
v 0.1360334 0.008982849 0.03097605
v 0.1364972 0.006849823 0.03079404
v 0.1366378 0 0.03080772
v 0.1360911 0 0.0337756
v 0.1359092 -0.008104095 0.03385226
v 0.1360334 -0.008982849 0.03097605
v 0.1364972 -0.006849975 0.03079404
v 0.1350053 0.01089218 0.0335925
v 0.1353701 0.006863098 0.03068439
v 0.1356904 0.008991394 0.03094826
v 0.1345942 0.008050842 0.03362688
v 0.1314603 0.01241562 0.04544097
v 0.1344806 0 0.03350401
v 0.1353701 0 0.03068439
v 0.1353701 -0.00686325 0.03068439
v 0.131052 0.009196624 0.04532152
v 0.1279176 0.0127298 0.05311154
v 0.1307774 0 0.04524121
v 0.1345942 -0.008050995 0.03362688
v 0.1275479 0.009474945 0.05285164
v 0.1198231 0.01314041 0.06115555
v 0.119533 0.009859314 0.06077198
v 0.1192022 0 0.06036374
v 0.1272405 0 0.05263177
v 0.1350053 -0.01089218 0.0335925
v 0.1356904 -0.008991546 0.03094826
v 0.1314603 -0.01241577 0.04544097
v 0.131052 -0.009196777 0.04532152
v 0.1279176 -0.0127298 0.05311154
v 0.1275479 -0.009475097 0.05285164
v 0.119533 -0.009859314 0.06077198
v 0.1198231 -0.01314041 0.06115555
v 0.1356904 0.008991394 0.03094826
v 0.1364972 0.006849823 0.03079404
v 0.1360334 0.008982849 0.03097605
v 0.1353701 0.006863098 0.03068439
v 0.1353701 0 0.03068439
v 0.1366378 0 0.03080772
v 0.1364972 -0.006849975 0.03079404
v 0.1353701 -0.00686325 0.03068439
v 0.1356904 -0.008991546 0.03094826
v 0.1360334 -0.008982849 0.03097605
v -0.004863052 -0.01174042 0.0847294
v -0.01251083 -0.01251083 0.08037628
v -0.0089859 -0.008985749 0.0847294
v -0.006770668 -0.01634583 0.08037628
v 0 -0.01270782 0.0847294
v 0 -0.01769272 0.08037628
v 0.006770744 -0.01270782 0.0847294
v 0.006770744 -0.01787399 0.08037628
v 0.0200824 -0.01635544 0.06465504
v 0.0200808 -0.01270782 0.08443975
v 0.0200824 -0.01635544 0.08110627
v 0.03014339 -0.01583328 0.06730153
v 0.03008343 -0.01577957 0.08188494
v 0.03007229 -0.01199066 0.08379538
v 0.04114056 -0.0152626 0.0701943
v 0.04119976 -0.0152626 0.08258385
v 0.06439751 -0.01445633 0.08138496
v 0.06441803 -0.01445602 0.07178225
v 0.08901337 -0.01412414 0.0714746
v 0.09032801 -0.01412384 0.0780919
v 0.1076736 -0.0133223 0.06760231
v 0.1095807 -0.0133223 0.07217383
v 0.1198231 -0.01314041 0.06115555
v 0.1221457 -0.01314041 0.06402225
v 0.1279176 -0.0127298 0.05311154
v 0.1298973 -0.01273132 0.05457482
v 0.1314603 -0.01241577 0.04544097
v 0.1330936 -0.01241577 0.04591873
v 0.1350053 -0.01089218 0.0335925
v 0.1355382 -0.01089218 0.03368237
v 0.1356904 -0.008991546 0.03094826
v 0.1360334 -0.008982849 0.03097605
v -0.006770668 0.01638138 -0.05145908
v -0.006770668 0.01634567 0.05162248
v -0.01251083 0.01251068 0.05162248
v -0.006770668 0.01634567 0.08037628
v -0.01251083 0.01251068 0.08037628
v -0.01251083 0.01254639 -0.05146173
v -0.006770668 0.01640121 -0.0802129
v -0.01251083 0.01256622 -0.08021555
v -0.01634605 0.00677063 0.05162248
v -0.01634605 0.006806183 -0.0514657
v -0.01769264 0 0.05162248
v -0.01634605 0.00677063 0.08037628
v -0.0089859 0.008985749 0.0847294
v -0.01174053 0.004862976 0.0847294
v -0.01769264 0 0.08037628
v -0.01270775 0 0.0847294
v -0.01174053 -0.004863129 0.0847294
v -0.01634605 -0.00677063 0.08037628
v -0.0089859 -0.008985749 0.0847294
v -0.01251083 -0.01251083 0.08037628
v -0.01634605 0.006826172 -0.08021951
v -0.0089859 0.009044189 -0.08457109
v -0.01174053 0.004921569 -0.08457395
v -0.01634605 -0.00677063 0.05162248
v -0.01769264 3.555298E-05 -0.05147038
v -0.01769264 5.554199E-05 -0.08022419
v -0.01270775 5.844116E-05 -0.0845773
v -0.01174053 -0.004804535 -0.08458067
v -0.01634605 -0.006715088 -0.08022887
v -0.0089859 -0.008927307 -0.08458351
v -0.01251083 -0.01245529 -0.08023284
v -0.01634605 -0.006735077 -0.05147506
v -0.01251083 -0.01247513 -0.05147902
v -0.006770668 -0.01629028 -0.08023549
v -0.006770668 -0.01631012 -0.05148168
v -0.01251083 -0.01251083 0.05162248
v -0.006770668 -0.01634583 0.05162248
v -0.006770668 -0.01634583 0.08037628
vt -19.34872 0.8850952
vt -19.36093 0.8781461
vt -19.3553 0.885098
vt -19.35177 0.878142
vt -19.34096 0.885094
vt -19.34096 0.8781404
vt -19.33015 0.885094
vt -19.35177 0.8322483
vt -19.33015 0.8781404
vt -19.30891 0.8846317
vt -19.34096 0.8322467
vt -19.35177 0.6677203
vt -19.34096 0.6677203
vt -19.33015 0.8322479
vt -19.30891 0.8530493
vt -19.33015 0.6677203
vt -19.30891 0.8793072
vt -19.29285 0.8572741
vt -19.29295 0.8805504
vt -19.29296 0.883604
vt -19.2753 0.8618918
vt -19.2752 0.8816669
vt -19.23818 0.879754
vt -19.23814 0.8644271
vt -19.19889 0.8639365
vt -19.19679 0.8744984
vt -19.1691 0.857757
vt -19.16606 0.8650533
vt -19.14971 0.8474677
vt -19.146 0.8520428
vt -19.13679 0.8346287
vt -19.13363 0.8369645
vt -19.13114 0.8223863
vt -19.12853 0.8231487
vt -19.12548 0.8034766
vt -19.12463 0.8036202
vt -19.12439 0.7992583
vt -19.12384 0.7993029
vt -19.48515 0.5998384
vt -19.48546 0.5767301
vt -19.49313 0.5807716
vt -19.49203 0.5998334
vt -19.48521 0.7826116
vt -19.50245 0.5998262
vt -19.50503 0.5828218
vt -19.49209 0.7826116
vt -19.51447 0.5998181
vt -19.51446 0.5844454
vt -19.50251 0.7826116
vt -19.51453 0.7826116
vt -19.4932 0.8016726
vt -19.48553 0.8057194
vt -19.50511 0.7996143
vt -19.51453 0.7979839
vt -19.6393 0.6946478
vt -19.64011 0.7121679
vt -19.63414 0.7121855
vt -19.63365 0.6946334
vt -19.63803 0.6580866
vt -19.63297 0.6580394
vt -19.6375 0.6172175
vt -19.63237 0.6170285
vt -19.63623 0.5868737
vt -19.63171 0.5863987
vt -19.61523 0.5853928
vt -19.61524 0.6167298
vt -19.61525 0.6580394
vt -19.59811 0.6170285
vt -19.59876 0.5863987
vt -19.59424 0.5868737
vt -19.59298 0.6172175
vt -19.59752 0.6580394
vt -19.59246 0.6580866
vt -19.59684 0.6946334
vt -19.59119 0.6946478
vt -19.61525 0.6946334
vt -19.59635 0.7121855
vt -19.59037 0.7121679
vt -19.61525 0.7125731
vt -19.61525 0.7279285
vt -19.63527 0.7279333
vt -19.59522 0.7279333
vt -19.63527 0.7489108
vt -19.59522 0.7489108
vt -19.61525 0.7489108
vt -19.63527 0.7595818
vt -19.59522 0.7595818
vt -19.61525 0.7595818
vt -19.63375 0.767247
vt -19.59674 0.767247
vt -19.62941 0.7737446
vt -19.60108 0.7737446
vt -19.62291 0.7780862
vt -19.60758 0.7780862
vt -19.61525 0.7796103
vt -19.79255 0.587802
vt -19.79285 0.5683827
vt -19.7981 0.5688465
vt -19.79776 0.5880907
vt -19.79127 0.6176274
vt -19.81385 0.5885088
vt -19.81386 0.5693753
vt -19.82961 0.5688465
vt -19.79662 0.6177509
vt -19.79074 0.6569392
vt -19.81385 0.618027
vt -19.82994 0.5880907
vt -19.79612 0.6569241
vt -19.78945 0.6941447
vt -19.83514 0.587802
vt -19.83486 0.5683827
vt -19.83642 0.6176274
vt -19.83107 0.6177509
vt -19.83695 0.6569392
vt -19.81385 0.6569241
vt -19.83157 0.6569241
vt -19.83824 0.6941447
vt -19.81385 0.6940355
vt -19.79564 0.6940355
vt -19.78854 0.711722
vt -19.83206 0.6940355
vt -19.83916 0.711722
vt -19.79508 0.7115958
vt -19.78771 0.727803
vt -19.79463 0.7260279
vt -19.80536 0.724098
vt -19.81386 0.722569
vt -19.80542 0.7113742
vt -19.83262 0.7115958
vt -19.83999 0.727803
vt -19.83308 0.7260279
vt -19.82236 0.724098
vt -19.81386 0.722569
vt -19.82229 0.7113742
vt -19.94066 0.8253204
vt -19.93595 0.840661
vt -19.93562 0.826342
vt -19.94085 0.839801
vt -19.93668 0.8572558
vt -19.95903 0.8380933
vt -19.95902 0.8233749
vt -19.97738 0.825295
vt -19.94155 0.8568362
vt -19.93724 0.8724611
vt -19.95904 0.8563921
vt -19.97721 0.8397756
vt -19.94202 0.8722447
vt -19.93994 0.8939537
vt -19.98211 0.8406289
vt -19.98242 0.8263094
vt -19.98141 0.8572249
vt -19.97654 0.8568121
vt -19.98086 0.8724308
vt -19.95905 0.8720751
vt -19.97609 0.8722215
vt -19.9782 0.8939273
vt -19.94483 0.893652
vt -19.94329 0.8987051
vt -19.94704 0.8990224
vt -19.95907 0.8989903
vt -19.95907 0.8937765
vt -19.9733 0.8936324
vt -19.97485 0.8986837
vt -19.97111 0.8990059
vt -19.76955 0.8906962
vt -19.77277 0.8862211
vt -19.77638 0.8857768
vt -19.77436 0.8907577
vt -19.76696 0.910756
vt -19.78799 0.8905589
vt -19.788 0.8857848
vt -19.79962 0.8857927
vt -19.77241 0.9105577
vt -19.76642 0.9237435
vt -19.78798 0.9104323
vt -19.80163 0.8907764
vt -19.77193 0.9233072
vt -19.76571 0.9373631
vt -19.77127 0.9367176
vt -19.78796 0.9360379
vt -19.78797 0.9229461
vt -19.80644 0.8907216
vt -19.80322 0.8862421
vt -19.809 0.9107851
vt -19.80355 0.9105792
vt -19.80953 0.9237733
vt -19.80401 0.9233294
vt -19.80466 0.9367406
vt -19.81021 0.9373938
vt -19.6575 0.907369
vt -19.65697 0.9073554
vt -19.65624 0.9040111
vt -19.65801 0.9040319
vt -19.65801 0.8932711
vt -19.65602 0.8932711
vt -19.65624 0.8825313
vt -19.65801 0.8825101
vt -19.6575 0.8791735
vt -19.65697 0.8791872
vt -19.88678 0.1149102
vt -19.89336 0.1149133
vt -19.89899 0.1218575
vt -19.88983 0.1218532
vt -19.87902 0.1149092
vt -19.87902 0.1218518
vt -19.86821 0.1149092
vt -19.88983 0.167748
vt -19.86821 0.1218516
vt -19.84697 0.1153715
vt -19.87902 0.1677466
vt -19.88983 0.3323154
vt -19.87902 0.3323154
vt -19.86821 0.1677478
vt -19.84696 0.1469463
vt -19.86821 0.3323154
vt -19.84696 0.1206881
vt -19.83091 0.1427228
vt -19.831 0.1194459
vt -19.83102 0.1164008
vt -19.81335 0.1381062
vt -19.81326 0.1183309
vt -19.77623 0.1202453
vt -19.7762 0.1355725
vt -19.73694 0.136064
vt -19.73484 0.1255018
vt -19.70716 0.1422455
vt -19.70411 0.1349488
vt -19.68777 0.1525356
vt -19.68406 0.1479599
vt -19.67484 0.1653752
vt -19.67169 0.1630397
vt -19.66919 0.1776189
vt -19.66658 0.1768563
vt -19.66353 0.1965322
vt -19.66268 0.1963887
vt -19.66244 0.2007548
vt -19.66189 0.2007104
vt -19.5438 0.5997978
vt -19.53579 0.5807418
vt -19.54346 0.57669
vt -19.53692 0.5998024
vt -19.54386 0.7826116
vt -19.52649 0.5998096
vt -19.52389 0.5828087
vt -19.53698 0.7826116
vt -19.51447 0.5998181
vt -19.51446 0.5844454
vt -19.52656 0.7826116
vt -19.51453 0.7826116
vt -19.53587 0.8016726
vt -19.54353 0.8057194
vt -19.52396 0.7996143
vt -19.51453 0.7979839
vt -19.34872 0.6148786
vt -19.3553 0.6148786
vt -19.36093 0.6218265
vt -19.35177 0.6218265
vt -19.34096 0.6148786
vt -19.34096 0.6218265
vt -19.33015 0.6148786
vt -19.33015 0.6218265
vt -19.30891 0.6469192
vt -19.30891 0.6153409
vt -19.30891 0.6206614
vt -19.29285 0.6426952
vt -19.29295 0.6194184
vt -19.29296 0.6163693
vt -19.2753 0.6380779
vt -19.2752 0.6183028
vt -19.23818 0.6202165
vt -19.23814 0.6355433
vt -19.19889 0.6360345
vt -19.19679 0.6254725
vt -19.1691 0.6422151
vt -19.16606 0.6349185
vt -19.14971 0.6525045
vt -19.146 0.647929
vt -19.13679 0.6653435
vt -19.13363 0.663008
vt -19.13114 0.6775867
vt -19.12853 0.6768239
vt -19.12548 0.696498
vt -19.12463 0.6963544
vt -19.12439 0.7007183
vt -19.12384 0.7006741
vt -19.68965 0.694647
vt -19.69481 0.712185
vt -19.68884 0.7121674
vt -19.6953 0.6946325
vt -19.69092 0.6580852
vt -19.69598 0.658038
vt -19.69144 0.6172163
vt -19.69658 0.6170269
vt -19.69271 0.5868725
vt -19.69723 0.5863974
vt -19.71371 0.5853917
vt -19.71371 0.6167284
vt -19.71371 0.658038
vt -19.73083 0.6170269
vt -19.73018 0.5863974
vt -19.7347 0.5868725
vt -19.73597 0.6172163
vt -19.73143 0.658038
vt -19.73649 0.6580852
vt -19.73211 0.6946325
vt -19.73776 0.694647
vt -19.71371 0.6946325
vt -19.7326 0.712185
vt -19.73857 0.7121674
vt -19.71371 0.7125724
vt -19.71371 0.7279272
vt -19.69368 0.7279324
vt -19.73373 0.7279324
vt -19.69368 0.7489103
vt -19.73373 0.7489103
vt -19.71371 0.7489103
vt -19.69368 0.7595815
vt -19.73373 0.7595815
vt -19.71371 0.7595815
vt -19.6952 0.7672462
vt -19.73221 0.7672462
vt -19.69954 0.7737442
vt -19.72787 0.7737442
vt -19.70604 0.7780856
vt -19.72137 0.7780856
vt -19.71371 0.7796101
vt -19.93698 0.5878015
vt -19.93145 0.5688462
vt -19.93669 0.5683824
vt -19.93178 0.5880906
vt -19.93826 0.6176274
vt -19.91569 0.5885089
vt -19.91569 0.5693749
vt -19.89993 0.5688462
vt -19.93291 0.6177517
vt -19.9388 0.6569399
vt -19.91569 0.618027
vt -19.8996 0.5880906
vt -19.93342 0.6569253
vt -19.94008 0.6941464
vt -19.89439 0.5878015
vt -19.89468 0.5683824
vt -19.89311 0.6176274
vt -19.89846 0.6177517
vt -19.89258 0.6569399
vt -19.91569 0.6569253
vt -19.89796 0.6569253
vt -19.89129 0.6941464
vt -19.91569 0.6940367
vt -19.9339 0.6940367
vt -19.94099 0.7117234
vt -19.89748 0.6940367
vt -19.89038 0.7117234
vt -19.93446 0.7115975
vt -19.94183 0.7278051
vt -19.93492 0.7260296
vt -19.92419 0.7240999
vt -19.91569 0.7225713
vt -19.92412 0.7113758
vt -19.89692 0.7115975
vt -19.88955 0.7278051
vt -19.89646 0.7260296
vt -19.90719 0.7240999
vt -19.91569 0.7225713
vt -19.90725 0.7113758
vt -19.85477 0.8970788
vt -19.84973 0.8960608
vt -19.85004 0.8817418
vt -19.85495 0.8825983
vt -19.85076 0.8651462
vt -19.87313 0.8842928
vt -19.87313 0.8990117
vt -19.89149 0.8970788
vt -19.85563 0.8655621
vt -19.85132 0.8499408
vt -19.87313 0.8659942
vt -19.89131 0.8825983
vt -19.85609 0.8501532
vt -19.85399 0.828446
vt -19.89621 0.8817418
vt -19.89653 0.8960608
vt -19.89549 0.8651462
vt -19.89062 0.8655621
vt -19.89494 0.8499408
vt -19.87313 0.8503117
vt -19.89016 0.8501532
vt -19.89226 0.828446
vt -19.85889 0.8287446
vt -19.85735 0.8236919
vt -19.8611 0.8233724
vt -19.87313 0.8233964
vt -19.87313 0.8286098
vt -19.88736 0.8287446
vt -19.8889 0.8236919
vt -19.88516 0.8233724
vt -19.68572 0.9324391
vt -19.69254 0.9373633
vt -19.68894 0.9369165
vt -19.69053 0.932381
vt -19.68314 0.9123768
vt -19.70416 0.9325891
vt -19.70416 0.9373633
vt -19.71579 0.9373633
vt -19.68859 0.912579
vt -19.68261 0.8993889
vt -19.70416 0.9127152
vt -19.7178 0.932381
vt -19.68812 0.899829
vt -19.68192 0.8857685
vt -19.68747 0.8864179
vt -19.70416 0.887109
vt -19.70416 0.9002011
vt -19.72261 0.9324391
vt -19.71939 0.9369165
vt -19.72519 0.9123768
vt -19.71974 0.912579
vt -19.72572 0.8993889
vt -19.72021 0.899829
vt -19.72086 0.8864179
vt -19.72641 0.8857685
vt -19.64607 0.8792047
vt -19.64481 0.8825556
vt -19.64554 0.8792182
vt -19.64657 0.8825341
vt -19.64657 0.8932722
vt -19.64459 0.8932722
vt -19.64481 0.9039887
vt -19.64657 0.9040093
vt -19.64607 0.9073388
vt -19.64554 0.9073253
vt -19.88678 0.3851584
vt -19.89899 0.3782103
vt -19.89336 0.3851584
vt -19.88983 0.3782103
vt -19.87902 0.3851584
vt -19.87902 0.3782103
vt -19.86821 0.3851584
vt -19.86821 0.3782103
vt -19.84696 0.3531171
vt -19.84697 0.3846961
vt -19.84696 0.3793754
vt -19.83091 0.3573413
vt -19.831 0.3806182
vt -19.83102 0.3836676
vt -19.81335 0.3619585
vt -19.81326 0.3817338
vt -19.77623 0.3798203
vt -19.7762 0.3644931
vt -19.73694 0.364002
vt -19.73484 0.374564
vt -19.70716 0.3578213
vt -19.70411 0.365118
vt -19.68777 0.3475315
vt -19.68406 0.3521071
vt -19.67484 0.3346922
vt -19.67169 0.3370277
vt -19.66919 0.322449
vt -19.66658 0.3232116
vt -19.66353 0.3035374
vt -19.66268 0.3036807
vt -19.66244 0.2993168
vt -19.66189 0.2993612
vt -19.47914 0.3411454
vt -19.4792 0.1588837
vt -19.48598 0.1588837
vt -19.4792 0.1080433
vt -19.48598 0.1080433
vt -19.48592 0.3411501
vt -19.4791 0.3919858
vt -19.48588 0.3919905
vt -19.49613 0.1588837
vt -19.49607 0.3411571
vt -19.5081 0.1588837
vt -19.49613 0.1080433
vt -19.49221 0.1003465
vt -19.4995 0.1003465
vt -19.5081 0.1080433
vt -19.5081 0.1003465
vt -19.5167 0.1003465
vt -19.52007 0.1080433
vt -19.52399 0.1003465
vt -19.53022 0.1080433
vt -19.49603 0.3919975
vt -19.49211 0.3996916
vt -19.4994 0.3996968
vt -19.52007 0.1588837
vt -19.50804 0.3411654
vt -19.508 0.3920059
vt -19.508 0.3997026
vt -19.5166 0.3997087
vt -19.51998 0.3920141
vt -19.52389 0.3997136
vt -19.53012 0.3920211
vt -19.52001 0.3411737
vt -19.53016 0.3411807
vt -19.53691 0.3920258
vt -19.53694 0.3411854
vt -19.53022 0.1588837
vt -19.537 0.1588837
vt -19.537 0.1080433
vn -0.1175739 0.2845098 -0.951436
vn -0.7019992 0.7021019 -0.1193736
vn -0.2172493 0.2179147 -0.9514809
vn -0.3799137 0.9173061 -0.1192277
vn -0.02758663 0.267751 -0.9630932
vn -0.06652521 0.9898072 -0.1259212
vn 0.0120338 0.2279066 -0.9736086
vn -0.3826846 0.9238789 0.0003891027
vn 0.06803808 0.9897025 -0.1259366
vn 0.02273632 0.2161994 -0.9760844
vn -0.02504016 0.9996821 0.002951202
vn -0.3826855 0.9238786 0.0002497892
vn -0.02504014 0.9996839 -0.002259945
vn 0.3226766 0.9463016 0.01982642
vn 0.1500593 0.9794632 0.1346621
vn 0.3226773 0.9463149 -0.01917189
vn 0.06520703 0.9841421 -0.1649619
vn 0.1228562 0.9637954 0.2366536
vn 0.04889784 0.9737178 -0.2224469
vn 0.02144761 0.177793 -0.9838341
vn 0.08029726 0.9589661 0.2719122
vn 0.04610828 0.9607639 -0.2735083
vn 0.05321111 0.9462578 -0.3190056
vn 0.03294856 0.948392 0.3153838
vn -0.01282272 0.9319515 0.362356
vn 0.09958202 0.9151549 -0.3906086
vn -0.1152432 0.8914035 0.4383135
vn 0.2234797 0.8637064 -0.4517388
vn -0.307866 0.8309346 0.4634287
vn 0.3999298 0.8063346 -0.4357532
vn -0.5224988 0.7392184 0.4249131
vn 0.6168007 0.7078527 -0.3442407
vn -0.7620749 0.5593768 0.3260972
vn 0.8095022 0.5597486 -0.1771662
vn -0.8333846 0.4480487 0.3236087
vn 0.8848124 0.4562771 -0.09443615
vn -0.8111494 0.2668388 0.5204169
vn 0.950446 0.2756484 0.1437719
vn 0.3226766 0.9463016 0.01982642
vn 0.1500593 0.9794632 0.1346621
vn 0.5692861 0.4575959 0.6830222
vn 0.7107861 0.701009 0.05804733
vn 0.3226773 0.9463149 -0.01917189
vn 0.9285595 0.367265 0.05379262
vn 0.6275949 0.2508751 0.7370117
vn 0.7107853 0.7010499 -0.0575621
vn 0.9848062 0.1672334 0.04679452
vn 0.6222481 0.1965453 0.7577449
vn 0.9285595 0.367302 -0.0535392
vn 0.9848062 0.1672653 -0.04667912
vn 0.5692845 0.4580717 -0.6827045
vn 0.1500561 0.9795566 -0.1339855
vn 0.6275987 0.2513849 -0.7368348
vn 0.6222551 0.1970697 -0.7576029
vn 0.04610828 0.9607639 -0.2735083
vn 0.04889784 0.9737178 -0.2224469
vn 0.02144761 0.177793 -0.9838341
vn 0.04385721 0.1509265 -0.9875716
vn 0.05321111 0.9462578 -0.3190056
vn 0.09759884 0.1347219 -0.9860651
vn 0.09958202 0.9151549 -0.3906086
vn 0.1997287 0.1258679 -0.9717334
vn 0.2234797 0.8637064 -0.4517388
vn 0.3958578 0.1325917 -0.9086892
vn 0.400742 0.0006335551 -0.9161907
vn 0.2015191 0.0006770729 -0.9794844
vn 0.09916127 0.0006875522 -0.9950712
vn 0.199729 -0.124525 -0.9719063
vn 0.3958574 -0.1313353 -0.9088718
vn 0.2234828 -0.8630838 -0.4529258
vn 0.09957974 -0.9146153 -0.391871
vn 0.09759816 -0.1333599 -0.9862504
vn 0.05321007 -0.9458169 -0.320311
vn 0.04385619 -0.1495623 -0.9877792
vn 0.04611064 -0.9603832 -0.2748415
vn 0.04587694 0.0006906257 -0.9989468
vn 0.021448 -0.1764316 -0.9840792
vn 0.04889841 -0.9734061 -0.2238071
vn 0.02220816 0.0006911674 -0.9997532
vn 0.01926633 0.0006910779 -0.9998142
vn 0.02273632 0.2161994 -0.9760844
vn 0.02273564 -0.214847 -0.976383
vn 0.0120338 0.2279066 -0.9736086
vn 0.01203236 -0.2265622 -0.9739224
vn 0 0.0006911805 -0.9999998
vn -0.02758663 0.267751 -0.9630932
vn -0.02758435 -0.2664234 -0.9634613
vn 0 0.0006911717 -0.9999998
vn -0.1175739 0.2845098 -0.951436
vn -0.1175702 -0.2831953 -0.9518286
vn -0.2172493 0.2179147 -0.9514809
vn -0.2172551 -0.2166048 -0.9517787
vn -0.2838565 0.1182285 -0.95155
vn -0.2838578 -0.1169133 -0.9517122
vn -0.3072379 0.0006571198 -0.9516325
vn -0.1152432 0.8914035 0.4383135
vn -0.307866 0.8309346 0.4634287
vn -0.5713321 0.07756384 0.8170456
vn -0.3043869 0.09017067 0.948271
vn -0.01282272 0.9319515 0.362356
vn -0.3047541 -0.0006583336 0.9524308
vn -0.5721945 -0.0005671823 0.8201178
vn -0.5713317 -0.0786945 0.8169378
vn -0.08378599 0.1068462 0.990739
vn 0.03294856 0.948392 0.3153838
vn -0.08267759 -0.000688607 0.9965761
vn -0.3043852 -0.09148149 0.948146
vn 0.03483469 0.1225771 0.9918474
vn 0.08029726 0.9589661 0.2719122
vn -0.1152406 -0.8920045 0.4370899
vn -0.3078631 -0.8315757 0.4622794
vn -0.01282653 -0.9324492 0.3610733
vn -0.08378593 -0.108215 0.9905905
vn 0.03294848 -0.9488257 0.3140766
vn 0.03587035 -0.0006907536 0.9993562
vn 0.03483457 -0.1239481 0.991677
vn 0.08030216 -0.9593419 0.2705824
vn 0.1566653 -0.0006825028 0.9876515
vn 0.1551828 0.1469967 0.9768881
vn 0.1228562 0.9637954 0.2366536
vn 0.1551835 -0.1483468 0.9766839
vn 0.1228594 -0.9641208 0.2353224
vn 0.3338171 0.2341635 0.9130901
vn 0.1500593 0.9794632 0.1346621
vn 0.5692861 0.4575959 0.6830222
vn 0.6275949 0.2508751 0.7370117
vn 0.6222481 0.1965453 0.7577449
vn 0.368541 0.1709906 0.9137504
vn 0.3338186 -0.2354261 0.9127648
vn 0.1500523 -0.9796492 0.1333106
vn 0.5692859 -0.4585428 0.682387
vn 0.6276003 -0.2518953 0.7366592
vn 0.6222519 -0.1975916 0.7574697
vn 0.3685433 -0.1722557 0.9135118
vn 0.3958578 0.1325917 -0.9086892
vn 0.3999298 0.8063346 -0.4357532
vn 0.2234797 0.8637064 -0.4517388
vn 0.6625797 0.1260573 -0.7383074
vn 0.6168007 0.7078527 -0.3442407
vn 0.6697075 0.0005131817 -0.7426247
vn 0.400742 0.0006335551 -0.9161907
vn 0.3958574 -0.1313353 -0.9088718
vn 0.8633248 0.08723079 -0.4970524
vn 0.8095022 0.5597486 -0.1771662
vn 0.8687618 0.0003418461 -0.4952301
vn 0.6625789 -0.1250369 -0.7384816
vn 0.9648119 0.06128945 -0.2556983
vn 0.8848124 0.4562771 -0.09443615
vn 0.3999249 -0.8057434 -0.4368498
vn 0.2234828 -0.8630838 -0.4529258
vn 0.616791 -0.7073916 -0.3452042
vn 0.8633255 -0.08654432 -0.4971712
vn 0.8095002 -0.559509 -0.1779303
vn 0.9665837 0.0001757821 -0.2563513
vn 0.9648121 -0.06093779 -0.2557814
vn 0.8848089 -0.4561552 -0.09505575
vn 0.9823318 0.05552597 -0.1787207
vn 0.950446 0.2756484 0.1437719
vn 0.9916548 0.04533456 0.1206881
vn 0.9857934 -0.0001171004 0.1679623
vn 0.9827906 0.0001267978 -0.1847236
vn 0.9823318 -0.05528045 -0.178797
vn 0.9504496 -0.2758268 0.1434053
vn 0.9916528 -0.04550041 0.1206419
vn -0.8333846 0.4480487 0.3236087
vn -0.8111494 0.2668388 0.5204169
vn -0.8479502 0.03333965 0.5290263
vn -0.9533174 0.05215994 0.297431
vn -0.7620749 0.5593768 0.3260972
vn -0.9559488 -0.000202613 0.2935337
vn -0.8192603 -0.000396114 0.5734217
vn -0.8479566 -0.03407149 0.5289696
vn -0.9335519 0.05747483 0.3538043
vn -0.5224988 0.7392184 0.4249131
vn -0.9357746 -0.0002439905 0.352599
vn -0.9533187 -0.05257331 0.2973542
vn -0.7936509 0.0671543 0.6046557
vn -0.307866 0.8309346 0.4634287
vn -0.5713321 0.07756384 0.8170456
vn -0.5721945 -0.0005671823 0.8201178
vn -0.7956404 -0.0004187136 0.605769
vn -0.8333796 -0.448506 0.3229873
vn -0.8111495 -0.2675892 0.5200313
vn -0.7620671 -0.5598379 0.3253233
vn -0.9335522 -0.0579665 0.3537232
vn -0.5224927 -0.7398174 0.4238767
vn -0.7936512 -0.06799174 0.6045617
vn -0.5713317 -0.0786945 0.8169378
vn -0.3078631 -0.8315757 0.4622794
vn -0.8111494 0.2668388 0.5204169
vn 0.950446 0.2756484 0.1437719
vn 0.9916548 0.04533456 0.1206881
vn -0.8479502 0.03333965 0.5290263
vn -0.8192603 -0.000396114 0.5734217
vn 0.9857934 -0.0001171004 0.1679623
vn 0.9916528 -0.04550041 0.1206419
vn -0.8479566 -0.03407149 0.5289696
vn -0.8111495 -0.2675892 0.5200313
vn 0.9504496 -0.2758268 0.1434053
vn -0.1175702 -0.2831953 -0.9518286
vn -0.2172551 -0.2166048 -0.9517787
vn -0.701999 -0.7019363 -0.1203446
vn -0.3799115 -0.9171413 -0.1204947
vn -0.02758435 -0.2664234 -0.9634613
vn -0.06651968 -0.9896322 -0.1272918
vn 0.01203236 -0.2265622 -0.9739224
vn -0.3826585 -0.9238898 -0.00038926
vn 0.06803659 -0.9895273 -0.1273059
vn 0.02273564 -0.214847 -0.976383
vn -0.02503672 -0.9996843 0.00210849
vn -0.3826575 -0.9238902 -0.0002501747
vn -0.02503669 -0.9996827 -0.002799835
vn 0.3226514 -0.9463267 0.01902265
vn 0.1500523 -0.9796492 0.1333106
vn 0.3226509 -0.9463136 -0.0196767
vn 0.0652019 -0.9839129 -0.1663252
vn 0.1228594 -0.9641208 0.2353224
vn 0.04889841 -0.9734061 -0.2238071
vn 0.021448 -0.1764316 -0.9840792
vn 0.08030216 -0.9593419 0.2705824
vn 0.04611064 -0.9603832 -0.2748415
vn 0.05321007 -0.9458169 -0.320311
vn 0.03294848 -0.9488257 0.3140766
vn -0.01282653 -0.9324492 0.3610733
vn 0.09957974 -0.9146153 -0.391871
vn -0.1152406 -0.8920045 0.4370899
vn 0.2234828 -0.8630838 -0.4529258
vn -0.3078631 -0.8315757 0.4622794
vn 0.3999249 -0.8057434 -0.4368498
vn -0.5224927 -0.7398174 0.4238767
vn 0.616791 -0.7073916 -0.3452042
vn -0.7620671 -0.5598379 0.3253233
vn 0.8095002 -0.559509 -0.1779303
vn -0.8333796 -0.448506 0.3229873
vn 0.8848089 -0.4561552 -0.09505575
vn -0.8111495 -0.2675892 0.5200313
vn 0.9504496 -0.2758268 0.1434053
vn 0.3226514 -0.9463267 0.01902265
vn 0.5692859 -0.4585428 0.682387
vn 0.1500523 -0.9796492 0.1333106
vn 0.7107233 -0.7011166 0.05751335
vn 0.3226509 -0.9463136 -0.0196767
vn 0.9285158 -0.3674163 0.0535134
vn 0.6276003 -0.2518953 0.7366592
vn 0.710724 -0.7010761 -0.05799706
vn 0.9848027 -0.1672955 0.04664693
vn 0.6222519 -0.1975916 0.7574697
vn 0.928516 -0.3673788 -0.0537671
vn 0.9848027 -0.1672633 -0.04676241
vn 0.5692886 -0.4580689 -0.682703
vn 0.1500559 -0.9795564 -0.1339864
vn 0.6275954 -0.2513838 -0.736838
vn 0.6222475 -0.1970674 -0.7576098
vn -0.1175714 0.2838522 0.9516327
vn -0.2172522 0.2172594 0.9516301
vn -0.7019977 0.7020206 0.11986
vn -0.3799165 0.9172222 0.1198618
vn -0.0275865 0.2670891 0.9632769
vn -0.06652503 0.9897195 0.1266084
vn 0.01203343 0.2272352 0.9737655
vn 0.06804135 0.9896148 0.1266206
vn 0.1500561 0.9795566 -0.1339855
vn 0.02273627 0.2155242 0.9762338
vn 0.0652054 0.9840277 0.1656433
vn 0.1228533 0.9639599 -0.2359838
vn 0.04889417 0.9735622 0.223128
vn 0.02144718 0.1771134 0.9839568
vn 0.08029909 0.9591551 -0.2712448
vn 0.04610875 0.9605732 0.2741772
vn 0.05321085 0.9460365 0.3196617
vn 0.03294893 0.9486102 -0.3147266
vn -0.01282443 0.9322045 -0.3617046
vn 0.0995819 0.9148827 0.3912456
vn -0.1152407 0.8917129 -0.4376844
vn 0.2234851 0.8633856 0.452349
vn -0.3078641 0.831259 -0.4628479
vn 0.3999319 0.8060322 0.43631
vn -0.5224919 0.7395195 -0.4243974
vn 0.6168023 0.707615 0.3447261
vn -0.7620741 0.5596062 -0.3257053
vn 0.8094982 0.559633 0.1775489
vn -0.8333861 0.4482731 -0.3232939
vn 0.8848066 0.4562247 0.09474409
vn -0.8111522 0.2671936 -0.5202305
vn 0.9504513 0.2757311 -0.1435781
vn 0.04610875 0.9605732 0.2741772
vn 0.02144718 0.1771134 0.9839568
vn 0.04889417 0.9735622 0.223128
vn 0.0438563 0.1502446 0.9876757
vn 0.05321085 0.9460365 0.3196617
vn 0.09759846 0.1340411 0.986158
vn 0.0995819 0.9148827 0.3912456
vn 0.1997299 0.1251971 0.9718198
vn 0.2234851 0.8633856 0.452349
vn 0.3958591 0.1319648 0.9087799
vn 0.4007436 0 0.9161903
vn 0.2015198 0 0.9794845
vn 0.09916127 0 0.9950714
vn 0.1997285 -0.1251961 0.9718202
vn 0.3958572 -0.1319634 0.9087809
vn 0.2234776 -0.8633974 0.4523305
vn 0.09958048 -0.9148834 0.3912443
vn 0.09759859 -0.1340409 0.986158
vn 0.05321043 -0.9460376 0.3196584
vn 0.0438569 -0.1502444 0.9876757
vn 0.0461102 -0.9605742 0.2741736
vn 0.04587687 0 0.9989471
vn 0.02144798 -0.1771123 0.983957
vn 0.04890171 -0.9735623 0.2231259
vn 0.02220803 0 0.9997534
vn 0.01926636 0 0.9998145
vn 0.02273627 0.2155242 0.9762338
vn 0.02273545 -0.2155226 0.9762341
vn 0.01203343 0.2272352 0.9737655
vn 0.01203266 -0.2272342 0.9737659
vn 0 0 1
vn -0.0275865 0.2670891 0.9632769
vn -0.02758433 -0.2670879 0.9632773
vn 0 0 1
vn -0.1175714 0.2838522 0.9516327
vn -0.1175709 -0.2838509 0.9516332
vn -0.2172522 0.2172594 0.9516301
vn -0.2172502 -0.2172546 0.9516316
vn -0.2838558 0.1175705 0.9516318
vn -0.283858 -0.1175724 0.9516309
vn -0.3072378 3.183048E-07 0.9516328
vn -0.1152407 0.8917129 -0.4376844
vn -0.5713304 0.07812843 -0.816993
vn -0.3078641 0.831259 -0.4628479
vn -0.3043856 0.0908258 -0.9482089
vn -0.01282443 0.9322045 -0.3617046
vn -0.3047529 1.578885E-07 -0.9524314
vn -0.5721945 0 -0.8201179
vn -0.5713316 -0.07812846 -0.816992
vn -0.08378605 0.1075307 -0.990665
vn 0.03294893 0.9486102 -0.3147266
vn -0.08267725 0 -0.9965764
vn -0.3043869 -0.09082587 -0.9482085
vn 0.03483468 0.1232624 -0.9917625
vn 0.08029909 0.9591551 -0.2712448
vn -0.115244 -0.8917027 -0.4377044
vn -0.3078651 -0.8312562 -0.4628522
vn -0.0128251 -0.9322016 -0.3617124
vn -0.08378606 -0.1075303 -0.990665
vn 0.03294813 -0.9486079 -0.314734
vn 0.03587046 0 -0.9993564
vn 0.03483471 -0.1232622 -0.9917625
vn 0.08030029 -0.9591528 -0.2712525
vn 0.1566657 0 -0.9876517
vn 0.1551828 0.1476717 -0.9767863
vn 0.1228533 0.9639599 -0.2359838
vn 0.1551836 -0.1476728 -0.9767859
vn 0.1228617 -0.9639573 -0.2359899
vn 0.3338169 0.2347939 -0.9129283
vn 0.1500561 0.9795566 -0.1339855
vn 0.5692845 0.4580717 -0.6827045
vn 0.6275987 0.2513849 -0.7368348
vn 0.6222551 0.1970697 -0.7576029
vn 0.3685436 0.1716249 -0.9136304
vn 0.3338171 -0.2347949 -0.9129279
vn 0.1500559 -0.9795564 -0.1339864
vn 0.5692886 -0.4580689 -0.682703
vn 0.6275954 -0.2513838 -0.736838
vn 0.6222475 -0.1970674 -0.7576098
vn 0.3685409 -0.1716238 -0.9136317
vn 0.3958591 0.1319648 0.9087799
vn 0.2234851 0.8633856 0.452349
vn 0.3999319 0.8060322 0.43631
vn 0.6625804 0.125549 0.7383932
vn 0.6168023 0.707615 0.3447261
vn 0.6697077 1.588542E-07 0.7426248
vn 0.4007436 0 0.9161903
vn 0.3958572 -0.1319634 0.9087809
vn 0.8633264 0.08688816 0.4971098
vn 0.8094982 0.559633 0.1775489
vn 0.8687626 0 0.4952287
vn 0.6625786 -0.125548 0.738395
vn 0.9648125 0.06111214 0.2557386
vn 0.8848066 0.4562247 0.09474409
vn 0.3999208 -0.8060424 0.4363015
vn 0.2234776 -0.8633974 0.4523305
vn 0.6167886 -0.7076264 0.344727
vn 0.8633251 -0.0868879 0.4971119
vn 0.8095012 -0.5596288 0.1775482
vn 0.966584 0 0.2563501
vn 0.9648123 -0.06111126 0.2557394
vn 0.8848124 -0.4562126 0.09474803
vn 0.9823319 0.05540105 0.1787583
vn 0.9504513 0.2757311 -0.1435781
vn 0.9916545 0.04541615 -0.1206595
vn 0.9857938 0 -0.1679608
vn 0.9827906 1.831571E-07 0.1847232
vn 0.9823322 -0.05539969 0.1787581
vn 0.9504511 -0.2757197 -0.1436017
vn 0.9916535 -0.04541674 -0.1206675
vn -0.8333861 0.4482731 -0.3232939
vn -0.8479543 0.03370611 -0.5289965
vn -0.8111522 0.2671936 -0.5202305
vn -0.9533187 0.05236535 -0.2973905
vn -0.7620741 0.5596062 -0.3257053
vn -0.9559489 1.483744E-07 -0.293533
vn -0.8192614 0 -0.5734201
vn -0.8479545 -0.03370549 -0.5289963
vn -0.9335525 0.05772057 -0.3537628
vn -0.5224919 0.7395195 -0.4243974
vn -0.9357741 2.455966E-07 -0.3526
vn -0.9533182 -0.05236478 -0.2973925
vn -0.7936506 0.06757339 -0.6046094
vn -0.3078641 0.831259 -0.4628479
vn -0.5713304 0.07812843 -0.816993
vn -0.5721945 0 -0.8201179
vn -0.7956402 0 -0.6057695
vn -0.8333804 -0.4482833 -0.3232942
vn -0.8111494 -0.2672222 -0.52022
vn -0.7620684 -0.5596135 -0.3257062
vn -0.9335519 -0.05771965 -0.3537643
vn -0.5224987 -0.7395211 -0.4243862
vn -0.793651 -0.06757335 -0.604609
vn -0.5713316 -0.07812846 -0.816992
vn -0.3078651 -0.8312562 -0.4628522
vn -0.8111522 0.2671936 -0.5202305
vn 0.9916545 0.04541615 -0.1206595
vn 0.9504513 0.2757311 -0.1435781
vn -0.8479543 0.03370611 -0.5289965
vn -0.8192614 0 -0.5734201
vn 0.9857938 0 -0.1679608
vn 0.9916535 -0.04541674 -0.1206675
vn -0.8479545 -0.03370549 -0.5289963
vn -0.8111494 -0.2672222 -0.52022
vn 0.9504511 -0.2757197 -0.1436017
vn -0.1175709 -0.2838509 0.9516332
vn -0.7020028 -0.7020154 0.1198596
vn -0.2172502 -0.2172546 0.9516316
vn -0.3799081 -0.9172256 0.1198625
vn -0.02758433 -0.2670879 0.9632773
vn -0.0665195 -0.9897202 0.1266058
vn 0.01203266 -0.2272342 0.9737659
vn 0.06803334 -0.9896156 0.1266194
vn 0.1500559 -0.9795564 -0.1339864
vn 0.02273545 -0.2155226 0.9762341
vn 0.0652034 -0.9840282 0.1656412
vn 0.1228617 -0.9639573 -0.2359899
vn 0.04890171 -0.9735623 0.2231259
vn 0.02144798 -0.1771123 0.983957
vn 0.08030029 -0.9591528 -0.2712525
vn 0.0461102 -0.9605742 0.2741736
vn 0.05321043 -0.9460376 0.3196584
vn 0.03294813 -0.9486079 -0.314734
vn -0.0128251 -0.9322016 -0.3617124
vn 0.09958048 -0.9148834 0.3912443
vn -0.115244 -0.8917027 -0.4377044
vn 0.2234776 -0.8633974 0.4523305
vn -0.3078651 -0.8312562 -0.4628522
vn 0.3999208 -0.8060424 0.4363015
vn -0.5224987 -0.7395211 -0.4243862
vn 0.6167886 -0.7076264 0.344727
vn -0.7620684 -0.5596135 -0.3257062
vn 0.8095012 -0.5596288 0.1775482
vn -0.8333804 -0.4482833 -0.3232942
vn 0.8848124 -0.4562126 0.09474803
vn -0.8111494 -0.2672222 -0.52022
vn 0.9504511 -0.2757197 -0.1436017
vn -0.3826846 0.9238789 0.0003891027
vn -0.3826855 0.9238786 0.0002497892
vn -0.7071155 0.707098 0.0001912346
vn -0.3799165 0.9172222 0.1198618
vn -0.7019977 0.7020206 0.11986
vn -0.7071159 0.7070976 0.0002978556
vn -0.3799137 0.9173061 -0.1192277
vn -0.7019992 0.7021019 -0.1193736
vn -0.9239005 0.3826327 0.0001032995
vn -0.9239007 0.3826323 0.0001613096
vn -1 -3.859649E-05 0
vn -0.9172262 0.3799071 0.1198608
vn -0.2172522 0.2172594 0.9516301
vn -0.2838558 0.1175705 0.9516318
vn -0.9927907 0 0.119861
vn -0.3072378 3.183048E-07 0.9516328
vn -0.283858 -0.1175724 0.9516309
vn -0.9172279 -0.3799033 0.1198602
vn -0.2172502 -0.2172546 0.9516316
vn -0.7020028 -0.7020154 0.1198596
vn -0.9172264 0.3799898 -0.1195966
vn -0.2172493 0.2179147 -0.9514809
vn -0.2838565 0.1182285 -0.95155
vn -0.923874 -0.3826968 -0.0001033112
vn -1 -3.8656E-05 0
vn -0.9927907 8.438827E-05 -0.1198611
vn -0.3072379 0.0006571198 -0.9516325
vn -0.2838578 -0.1169133 -0.9517122
vn -0.9172275 -0.3798209 -0.1201239
vn -0.2172551 -0.2166048 -0.9517787
vn -0.701999 -0.7019363 -0.1203446
vn -0.9238738 -0.3826972 -0.0001611055
vn -0.7070781 -0.7071353 -0.0002978318
vn -0.3799115 -0.9171413 -0.1204947
vn -0.3826585 -0.9238898 -0.00038926
vn -0.7070788 -0.7071346 -0.0001914328
vn -0.3826575 -0.9238902 -0.0002501747
vn -0.3799081 -0.9172256 0.1198625
vn 0 0 1
vn 0 0 1
vn 0 0 1
vn 0 0 1
vn 0 0 1
vn 0 0 1
usemtl BlackSmoothMeta
f 3/3/3 2/2/2 1/1/1
f 2/2/2 4/4/4 1/1/1
f 1/1/1 4/4/4 5/5/5
f 4/4/4 6/6/6 5/5/5
f 5/5/5 6/6/6 7/7/7
f 4/4/4 8/8/8 6/6/6
f 6/6/6 9/9/9 7/7/7
f 7/7/7 9/9/9 10/10/10
f 8/8/8 11/11/11 6/6/6
f 6/6/6 11/11/11 9/9/9
f 8/8/8 12/12/12 11/11/11
f 12/12/12 13/13/13 11/11/11
f 11/11/11 14/14/14 9/9/9
f 11/11/11 13/13/13 14/14/14
f 14/14/14 15/15/15 9/9/9
f 13/13/13 16/16/16 14/14/14
f 15/15/15 17/17/17 9/9/9
f 9/9/9 17/17/17 10/10/10
f 17/17/17 15/15/15 18/18/18
f 10/10/10 17/17/17 19/19/19
f 19/19/19 17/17/17 18/18/18
f 20/20/20 10/10/10 19/19/19
f 19/19/19 18/18/18 21/21/21
f 22/22/22 19/19/19 21/21/21
f 23/23/23 22/22/22 21/21/21
f 24/24/24 23/23/23 21/21/21
f 24/24/24 25/25/25 23/23/23
f 25/25/25 26/26/26 23/23/23
f 25/25/25 27/27/27 26/26/26
f 27/27/27 28/28/28 26/26/26
f 27/27/27 29/29/29 28/28/28
f 29/29/29 30/30/30 28/28/28
f 29/29/29 31/31/31 30/30/30
f 31/31/31 32/32/32 30/30/30
f 31/31/31 33/33/33 32/32/32
f 33/33/33 34/34/34 32/32/32
f 33/33/33 35/35/35 34/34/34
f 35/35/35 36/36/36 34/34/34
f 35/35/35 37/37/37 36/36/36
f 37/37/37 38/38/38 36/36/36
f 41/41/41 40/40/40 39/39/39
f 42/42/42 41/41/41 39/39/39
f 39/39/39 43/43/43 42/42/42
f 42/42/42 44/44/44 41/41/41
f 44/44/44 45/45/45 41/41/41
f 43/43/43 46/46/46 42/42/42
f 42/42/42 46/46/46 44/44/44
f 44/44/44 47/47/47 45/45/45
f 47/47/47 48/48/48 45/45/45
f 44/44/44 49/49/49 47/47/47
f 46/46/46 49/49/49 44/44/44
f 49/49/49 50/50/50 47/47/47
f 51/51/51 46/46/46 43/43/43
f 49/49/49 46/46/46 51/51/51
f 52/52/52 51/51/51 43/43/43
f 53/53/53 49/49/49 51/51/51
f 50/50/50 49/49/49 53/53/53
f 54/54/54 50/50/50 53/53/53
f 57/57/57 56/56/56 55/55/55
f 58/58/58 57/57/57 55/55/55
f 55/55/55 59/59/59 58/58/58
f 59/59/59 60/60/60 58/58/58
f 59/59/59 61/61/61 60/60/60
f 61/61/61 62/62/62 60/60/60
f 61/61/61 63/63/63 62/62/62
f 63/63/63 64/64/64 62/62/62
f 64/64/64 65/65/65 62/62/62
f 62/62/62 66/66/66 60/60/60
f 65/65/65 66/66/66 62/62/62
f 60/60/60 67/67/67 58/58/58
f 66/66/66 67/67/67 60/60/60
f 66/66/66 65/65/65 68/68/68
f 65/65/65 69/69/69 68/68/68
f 69/69/69 70/70/70 68/68/68
f 70/70/70 71/71/71 68/68/68
f 66/66/66 68/68/68 72/72/72
f 68/68/68 71/71/71 72/72/72
f 67/67/67 66/66/66 72/72/72
f 71/71/71 73/73/73 72/72/72
f 72/72/72 73/73/73 74/74/74
f 67/67/67 72/72/72 74/74/74
f 73/73/73 75/75/75 74/74/74
f 67/67/67 76/76/76 58/58/58
f 76/76/76 67/67/67 74/74/74
f 58/58/58 76/76/76 57/57/57
f 77/77/77 74/74/74 75/75/75
f 76/76/76 74/74/74 77/77/77
f 78/78/78 77/77/77 75/75/75
f 76/76/76 79/79/79 57/57/57
f 79/79/79 76/76/76 77/77/77
f 79/79/79 80/80/80 57/57/57
f 80/80/80 79/79/79 77/77/77
f 80/80/80 81/81/81 57/57/57
f 82/82/82 80/80/80 77/77/77
f 81/81/81 80/80/80 83/83/83
f 80/80/80 82/82/82 84/84/84
f 80/80/80 85/85/85 83/83/83
f 85/85/85 80/80/80 84/84/84
f 83/83/83 85/85/85 86/86/86
f 85/85/85 84/84/84 87/87/87
f 85/85/85 88/88/88 86/86/86
f 88/88/88 85/85/85 87/87/87
f 89/89/89 86/86/86 88/88/88
f 87/87/87 90/90/90 88/88/88
f 91/91/91 89/89/89 88/88/88
f 90/90/90 92/92/92 88/88/88
f 93/93/93 91/91/91 88/88/88
f 92/92/92 94/94/94 88/88/88
f 95/95/95 93/93/93 88/88/88
f 94/94/94 95/95/95 88/88/88
f 98/98/98 97/97/97 96/96/96
f 99/99/99 98/98/98 96/96/96
f 99/99/99 96/96/96 100/100/100
f 99/99/99 101/101/101 98/98/98
f 101/101/101 102/102/102 98/98/98
f 102/102/102 101/101/101 103/103/103
f 104/104/104 99/99/99 100/100/100
f 104/104/104 100/100/100 105/105/105
f 106/106/106 101/101/101 99/99/99
f 104/104/104 106/106/106 99/99/99
f 101/101/101 107/107/107 103/103/103
f 101/101/101 106/106/106 107/107/107
f 108/108/108 104/104/104 105/105/105
f 108/108/108 105/105/105 109/109/109
f 103/103/103 107/107/107 110/110/110
f 111/111/111 103/103/103 110/110/110
f 110/110/110 107/107/107 112/112/112
f 107/107/107 113/113/113 112/112/112
f 106/106/106 113/113/113 107/107/107
f 112/112/112 113/113/113 114/114/114
f 115/115/115 106/106/106 104/104/104
f 106/106/106 115/115/115 113/113/113
f 108/108/108 115/115/115 104/104/104
f 113/113/113 116/116/116 114/114/114
f 115/115/115 116/116/116 113/113/113
f 114/114/114 116/116/116 117/117/117
f 118/118/118 115/115/115 108/108/108
f 115/115/115 118/118/118 116/116/116
f 119/119/119 118/118/118 108/108/108
f 119/119/119 108/108/108 109/109/109
f 109/109/109 120/120/120 119/119/119
f 116/116/116 121/121/121 117/117/117
f 118/118/118 121/121/121 116/116/116
f 122/122/122 117/117/117 121/121/121
f 120/120/120 123/123/123 119/119/119
f 120/120/120 124/124/124 123/123/123
f 124/124/124 125/125/125 123/123/123
f 123/123/123 125/125/125 126/126/126
f 126/126/126 127/127/127 118/118/118
f 123/123/123 128/128/128 119/119/119
f 128/128/128 123/123/123 126/126/126
f 128/128/128 118/118/118 119/119/119
f 128/128/128 126/126/126 118/118/118
f 129/129/129 122/122/122 121/121/121
f 130/130/130 122/122/122 129/129/129
f 131/131/131 130/130/130 129/129/129
f 131/131/131 129/129/129 132/132/132
f 133/133/133 132/132/132 118/118/118
f 134/134/134 129/129/129 121/121/121
f 118/118/118 134/134/134 121/121/121
f 132/132/132 134/134/134 118/118/118
f 129/129/129 134/134/134 132/132/132
f 137/137/137 136/136/136 135/135/135
f 136/136/136 138/138/138 135/135/135
f 136/136/136 139/139/139 138/138/138
f 138/138/138 140/140/140 135/135/135
f 140/140/140 141/141/141 135/135/135
f 141/141/141 140/140/140 142/142/142
f 139/139/139 143/143/143 138/138/138
f 139/139/139 144/144/144 143/143/143
f 145/145/145 140/140/140 138/138/138
f 143/143/143 145/145/145 138/138/138
f 140/140/140 146/146/146 142/142/142
f 140/140/140 145/145/145 146/146/146
f 144/144/144 147/147/147 143/143/143
f 144/144/144 148/148/148 147/147/147
f 146/146/146 149/149/149 142/142/142
f 149/149/149 150/150/150 142/142/142
f 151/151/151 149/149/149 146/146/146
f 152/152/152 151/151/151 146/146/146
f 145/145/145 152/152/152 146/146/146
f 153/153/153 151/151/151 152/152/152
f 154/154/154 145/145/145 143/143/143
f 145/145/145 154/154/154 152/152/152
f 147/147/147 154/154/154 143/143/143
f 155/155/155 153/153/153 152/152/152
f 154/154/154 155/155/155 152/152/152
f 156/156/156 153/153/153 155/155/155
f 148/148/148 157/157/157 147/147/147
f 148/148/148 158/158/158 157/157/157
f 158/158/158 159/159/159 157/157/157
f 159/159/159 160/160/160 157/157/157
f 161/161/161 154/154/154 147/147/147
f 157/157/157 161/161/161 147/147/147
f 154/154/154 161/161/161 155/155/155
f 160/160/160 161/161/161 157/157/157
f 162/162/162 156/156/156 155/155/155
f 161/161/161 162/162/162 155/155/155
f 161/161/161 160/160/160 162/162/162
f 163/163/163 156/156/156 162/162/162
f 160/160/160 164/164/164 162/162/162
f 164/164/164 163/163/163 162/162/162
f 167/167/167 166/166/166 165/165/165
f 168/168/168 167/167/167 165/165/165
f 168/168/168 165/165/165 169/169/169
f 168/168/168 170/170/170 167/167/167
f 170/170/170 171/171/171 167/167/167
f 171/171/171 170/170/170 172/172/172
f 173/173/173 168/168/168 169/169/169
f 173/173/173 169/169/169 174/174/174
f 175/175/175 170/170/170 168/168/168
f 173/173/173 175/175/175 168/168/168
f 170/170/170 176/176/176 172/172/172
f 170/170/170 175/175/175 176/176/176
f 177/177/177 173/173/173 174/174/174
f 177/177/177 174/174/174 178/178/178
f 179/179/179 177/177/177 178/178/178
f 179/179/179 180/180/180 177/177/177
f 177/177/177 181/181/181 173/173/173
f 181/181/181 175/175/175 173/173/173
f 180/180/180 181/181/181 177/177/177
f 172/172/172 176/176/176 182/182/182
f 183/183/183 172/172/172 182/182/182
f 182/182/182 176/176/176 184/184/184
f 175/175/175 185/185/185 176/176/176
f 176/176/176 185/185/185 184/184/184
f 175/175/175 181/181/181 185/185/185
f 184/184/184 185/185/185 186/186/186
f 181/181/181 180/180/180 187/187/187
f 181/181/181 187/187/187 185/185/185
f 185/185/185 187/187/187 186/186/186
f 180/180/180 188/188/188 187/187/187
f 186/186/186 187/187/187 189/189/189
f 187/187/187 188/188/188 189/189/189
f 192/192/192 191/191/191 190/190/190
f 193/193/193 192/192/192 190/190/190
f 193/193/193 194/194/194 192/192/192
f 194/194/194 195/195/195 192/192/192
f 195/195/195 194/194/194 196/196/196
f 194/194/194 197/197/197 196/196/196
f 196/196/196 197/197/197 198/198/198
f 199/199/199 196/196/196 198/198/198
f 202/202/202 201/201/201 200/200/200
f 203/203/203 202/202/202 200/200/200
f 203/203/203 200/200/200 204/204/204
f 205/205/205 203/203/203 204/204/204
f 205/205/205 204/204/204 206/206/206
f 207/207/207 203/203/203 205/205/205
f 208/208/208 205/205/205 206/206/206
f 208/208/208 206/206/206 209/209/209
f 210/210/210 207/207/207 205/205/205
f 210/210/210 205/205/205 208/208/208
f 211/211/211 207/207/207 210/210/210
f 212/212/212 211/211/211 210/210/210
f 213/213/213 210/210/210 208/208/208
f 212/212/212 210/210/210 213/213/213
f 214/214/214 213/213/213 208/208/208
f 215/215/215 212/212/212 213/213/213
f 216/216/216 214/214/214 208/208/208
f 216/216/216 208/208/208 209/209/209
f 214/214/214 216/216/216 217/217/217
f 216/216/216 209/209/209 218/218/218
f 216/216/216 218/218/218 217/217/217
f 209/209/209 219/219/219 218/218/218
f 217/217/217 218/218/218 220/220/220
f 218/218/218 221/221/221 220/220/220
f 221/221/221 222/222/222 220/220/220
f 222/222/222 223/223/223 220/220/220
f 224/224/224 223/223/223 222/222/222
f 225/225/225 224/224/224 222/222/222
f 226/226/226 224/224/224 225/225/225
f 227/227/227 226/226/226 225/225/225
f 228/228/228 226/226/226 227/227/227
f 229/229/229 228/228/228 227/227/227
f 230/230/230 228/228/228 229/229/229
f 231/231/231 230/230/230 229/229/229
f 232/232/232 230/230/230 231/231/231
f 233/233/233 232/232/232 231/231/231
f 234/234/234 232/232/232 233/233/233
f 235/235/235 234/234/234 233/233/233
f 236/236/236 234/234/234 235/235/235
f 237/237/237 236/236/236 235/235/235
f 240/240/240 239/239/239 238/238/238
f 239/239/239 241/241/241 238/238/238
f 242/242/242 238/238/238 241/241/241
f 243/243/243 241/241/241 239/239/239
f 244/244/244 243/243/243 239/239/239
f 245/245/245 242/242/242 241/241/241
f 245/245/245 241/241/241 243/243/243
f 246/246/246 243/243/243 244/244/244
f 247/247/247 246/246/246 244/244/244
f 248/248/248 243/243/243 246/246/246
f 248/248/248 245/245/245 243/243/243
f 249/249/249 248/248/248 246/246/246
f 245/245/245 250/250/250 242/242/242
f 245/245/245 248/248/248 250/250/250
f 250/250/250 251/251/251 242/242/242
f 248/248/248 252/252/252 250/250/250
f 248/248/248 249/249/249 252/252/252
f 249/249/249 253/253/253 252/252/252
f 256/256/256 255/255/255 254/254/254
f 257/257/257 256/256/256 254/254/254
f 257/257/257 254/254/254 258/258/258
f 259/259/259 257/257/257 258/258/258
f 12/12/12 257/257/257 259/259/259
f 259/259/259 258/258/258 260/260/260
f 13/13/13 12/12/12 259/259/259
f 261/261/261 259/259/259 260/260/260
f 13/13/13 259/259/259 261/261/261
f 16/16/16 13/13/13 261/261/261
f 262/262/262 16/16/16 261/261/261
f 261/261/261 260/260/260 263/263/263
f 264/264/264 262/262/262 261/261/261
f 264/264/264 261/261/261 263/263/263
f 262/262/262 264/264/264 265/265/265
f 264/264/264 263/263/263 266/266/266
f 264/264/264 266/266/266 265/265/265
f 263/263/263 267/267/267 266/266/266
f 265/265/265 266/266/266 268/268/268
f 266/266/266 269/269/269 268/268/268
f 269/269/269 270/270/270 268/268/268
f 270/270/270 271/271/271 268/268/268
f 272/272/272 271/271/271 270/270/270
f 273/273/273 272/272/272 270/270/270
f 274/274/274 272/272/272 273/273/273
f 275/275/275 274/274/274 273/273/273
f 276/276/276 274/274/274 275/275/275
f 277/277/277 276/276/276 275/275/275
f 278/278/278 276/276/276 277/277/277
f 279/279/279 278/278/278 277/277/277
f 280/280/280 278/278/278 279/279/279
f 281/281/281 280/280/280 279/279/279
f 282/282/282 280/280/280 281/281/281
f 283/283/283 282/282/282 281/281/281
f 284/284/284 282/282/282 283/283/283
f 285/285/285 284/284/284 283/283/283
f 288/288/288 287/287/287 286/286/286
f 287/287/287 289/289/289 286/286/286
f 290/290/290 286/286/286 289/289/289
f 291/291/291 290/290/290 289/289/289
f 292/292/292 290/290/290 291/291/291
f 293/293/293 292/292/292 291/291/291
f 294/294/294 292/292/292 293/293/293
f 295/295/295 294/294/294 293/293/293
f 296/296/296 295/295/295 293/293/293
f 297/297/297 293/293/293 291/291/291
f 297/297/297 296/296/296 293/293/293
f 298/298/298 291/291/291 289/289/289
f 298/298/298 297/297/297 291/291/291
f 296/296/296 297/297/297 299/299/299
f 300/300/300 296/296/296 299/299/299
f 301/301/301 300/300/300 299/299/299
f 302/302/302 301/301/301 299/299/299
f 299/299/299 297/297/297 303/303/303
f 302/302/302 299/299/299 303/303/303
f 297/297/297 298/298/298 303/303/303
f 304/304/304 302/302/302 303/303/303
f 304/304/304 303/303/303 305/305/305
f 303/303/303 298/298/298 305/305/305
f 306/306/306 304/304/304 305/305/305
f 307/307/307 298/298/298 289/289/289
f 298/298/298 307/307/307 305/305/305
f 307/307/307 289/289/289 287/287/287
f 305/305/305 308/308/308 306/306/306
f 305/305/305 307/307/307 308/308/308
f 308/308/308 309/309/309 306/306/306
f 310/310/310 307/307/307 287/287/287
f 307/307/307 310/310/310 308/308/308
f 311/311/311 310/310/310 287/287/287
f 310/310/310 311/311/311 308/308/308
f 312/312/312 311/311/311 287/287/287
f 311/311/311 313/313/313 308/308/308
f 311/311/311 312/312/312 314/314/314
f 313/313/313 311/311/311 315/315/315
f 316/316/316 311/311/311 314/314/314
f 311/311/311 316/316/316 315/315/315
f 316/316/316 314/314/314 317/317/317
f 315/315/315 316/316/316 318/318/318
f 319/319/319 316/316/316 317/317/317
f 316/316/316 319/319/319 318/318/318
f 317/317/317 320/320/320 319/319/319
f 321/321/321 318/318/318 319/319/319
f 320/320/320 322/322/322 319/319/319
f 323/323/323 321/321/321 319/319/319
f 322/322/322 324/324/324 319/319/319
f 325/325/325 323/323/323 319/319/319
f 324/324/324 326/326/326 319/319/319
f 326/326/326 325/325/325 319/319/319
f 329/329/329 328/328/328 327/327/327
f 328/328/328 330/330/330 327/327/327
f 327/327/327 330/330/330 331/331/331
f 332/332/332 330/330/330 328/328/328
f 333/333/333 332/332/332 328/328/328
f 332/332/332 333/333/333 334/334/334
f 330/330/330 335/335/335 331/331/331
f 331/331/331 335/335/335 336/336/336
f 332/332/332 337/337/337 330/330/330
f 337/337/337 335/335/335 330/330/330
f 338/338/338 332/332/332 334/334/334
f 337/337/337 332/332/332 338/338/338
f 335/335/335 339/339/339 336/336/336
f 336/336/336 339/339/339 340/340/340
f 338/338/338 334/334/334 341/341/341
f 334/334/334 342/342/342 341/341/341
f 338/338/338 341/341/341 343/343/343
f 344/344/344 338/338/338 343/343/343
f 344/344/344 337/337/337 338/338/338
f 344/344/344 343/343/343 345/345/345
f 337/337/337 346/346/346 335/335/335
f 346/346/346 337/337/337 344/344/344
f 346/346/346 339/339/339 335/335/335
f 347/347/347 344/344/344 345/345/345
f 347/347/347 346/346/346 344/344/344
f 347/347/347 345/345/345 348/348/348
f 346/346/346 349/349/349 339/339/339
f 349/349/349 346/346/346 347/347/347
f 349/349/349 350/350/350 339/339/339
f 339/339/339 350/350/350 340/340/340
f 351/351/351 340/340/340 350/350/350
f 352/352/352 347/347/347 348/348/348
f 352/352/352 349/349/349 347/347/347
f 348/348/348 353/353/353 352/352/352
f 354/354/354 351/351/351 350/350/350
f 355/355/355 351/351/351 354/354/354
f 356/356/356 355/355/355 354/354/354
f 356/356/356 354/354/354 357/357/357
f 358/358/358 357/357/357 349/349/349
f 359/359/359 354/354/354 350/350/350
f 354/354/354 359/359/359 357/357/357
f 349/349/349 359/359/359 350/350/350
f 357/357/357 359/359/359 349/349/349
f 353/353/353 360/360/360 352/352/352
f 353/353/353 361/361/361 360/360/360
f 361/361/361 362/362/362 360/360/360
f 360/360/360 362/362/362 363/363/363
f 363/363/363 364/364/364 349/349/349
f 365/365/365 349/349/349 352/352/352
f 360/360/360 365/365/365 352/352/352
f 365/365/365 363/363/363 349/349/349
f 365/365/365 360/360/360 363/363/363
f 368/368/368 367/367/367 366/366/366
f 369/369/369 368/368/368 366/366/366
f 370/370/370 368/368/368 369/369/369
f 371/371/371 369/369/369 366/366/366
f 372/372/372 371/371/371 366/366/366
f 371/371/371 372/372/372 373/373/373
f 374/374/374 370/370/370 369/369/369
f 375/375/375 370/370/370 374/374/374
f 371/371/371 376/376/376 369/369/369
f 376/376/376 374/374/374 369/369/369
f 377/377/377 371/371/371 373/373/373
f 376/376/376 371/371/371 377/377/377
f 378/378/378 375/375/375 374/374/374
f 379/379/379 375/375/375 378/378/378
f 380/380/380 377/377/377 373/373/373
f 381/381/381 380/380/380 373/373/373
f 380/380/380 382/382/382 377/377/377
f 382/382/382 383/383/383 377/377/377
f 383/383/383 376/376/376 377/377/377
f 382/382/382 384/384/384 383/383/383
f 376/376/376 385/385/385 374/374/374
f 385/385/385 376/376/376 383/383/383
f 385/385/385 378/378/378 374/374/374
f 384/384/384 386/386/386 383/383/383
f 386/386/386 385/385/385 383/383/383
f 384/384/384 387/387/387 386/386/386
f 388/388/388 379/379/379 378/378/378
f 389/389/389 379/379/379 388/388/388
f 390/390/390 389/389/389 388/388/388
f 391/391/391 390/390/390 388/388/388
f 385/385/385 392/392/392 378/378/378
f 392/392/392 388/388/388 378/378/378
f 392/392/392 385/385/385 386/386/386
f 392/392/392 391/391/391 388/388/388
f 387/387/387 393/393/393 386/386/386
f 393/393/393 392/392/392 386/386/386
f 391/391/391 392/392/392 393/393/393
f 387/387/387 394/394/394 393/393/393
f 395/395/395 391/391/391 393/393/393
f 394/394/394 395/395/395 393/393/393
f 398/398/398 397/397/397 396/396/396
f 397/397/397 399/399/399 396/396/396
f 396/396/396 399/399/399 400/400/400
f 401/401/401 399/399/399 397/397/397
f 402/402/402 401/401/401 397/397/397
f 401/401/401 402/402/402 403/403/403
f 399/399/399 404/404/404 400/400/400
f 400/400/400 404/404/404 405/405/405
f 401/401/401 406/406/406 399/399/399
f 406/406/406 404/404/404 399/399/399
f 407/407/407 401/401/401 403/403/403
f 406/406/406 401/401/401 407/407/407
f 404/404/404 408/408/408 405/405/405
f 405/405/405 408/408/408 409/409/409
f 408/408/408 410/410/410 409/409/409
f 411/411/411 410/410/410 408/408/408
f 412/412/412 408/408/408 404/404/404
f 406/406/406 412/412/412 404/404/404
f 412/412/412 411/411/411 408/408/408
f 407/407/407 403/403/403 413/413/413
f 403/403/403 414/414/414 413/413/413
f 407/407/407 413/413/413 415/415/415
f 416/416/416 406/406/406 407/407/407
f 416/416/416 407/407/407 415/415/415
f 412/412/412 406/406/406 416/416/416
f 416/416/416 415/415/415 417/417/417
f 411/411/411 412/412/412 418/418/418
f 418/418/418 412/412/412 416/416/416
f 418/418/418 416/416/416 417/417/417
f 419/419/419 411/411/411 418/418/418
f 418/418/418 417/417/417 420/420/420
f 419/419/419 418/418/418 420/420/420
f 423/423/423 422/422/422 421/421/421
f 422/422/422 424/424/424 421/421/421
f 425/425/425 424/424/424 422/422/422
f 426/426/426 425/425/425 422/422/422
f 425/425/425 426/426/426 427/427/427
f 428/428/428 425/425/425 427/427/427
f 428/428/428 427/427/427 429/429/429
f 427/427/427 430/430/430 429/429/429
f 433/433/433 432/432/432 431/431/431
f 432/432/432 434/434/434 431/431/431
f 431/431/431 434/434/434 435/435/435
f 434/434/434 436/436/436 435/435/435
f 434/434/434 211/211/211 436/436/436
f 435/435/435 436/436/436 437/437/437
f 211/211/211 212/212/212 436/436/436
f 436/436/436 438/438/438 437/437/437
f 436/436/436 212/212/212 438/438/438
f 212/212/212 215/215/215 438/438/438
f 215/215/215 439/439/439 438/438/438
f 437/437/437 438/438/438 440/440/440
f 439/439/439 441/441/441 438/438/438
f 438/438/438 441/441/441 440/440/440
f 441/441/441 439/439/439 442/442/442
f 440/440/440 441/441/441 443/443/443
f 443/443/443 441/441/441 442/442/442
f 444/444/444 440/440/440 443/443/443
f 443/443/443 442/442/442 445/445/445
f 446/446/446 443/443/443 445/445/445
f 447/447/447 446/446/446 445/445/445
f 448/448/448 447/447/447 445/445/445
f 448/448/448 449/449/449 447/447/447
f 449/449/449 450/450/450 447/447/447
f 449/449/449 451/451/451 450/450/450
f 451/451/451 452/452/452 450/450/450
f 451/451/451 453/453/453 452/452/452
f 453/453/453 454/454/454 452/452/452
f 453/453/453 455/455/455 454/454/454
f 455/455/455 456/456/456 454/454/454
f 455/455/455 457/457/457 456/456/456
f 457/457/457 458/458/458 456/456/456
f 457/457/457 459/459/459 458/458/458
f 459/459/459 460/460/460 458/458/458
f 459/459/459 461/461/461 460/460/460
f 461/461/461 462/462/462 460/460/460
f 465/465/465 464/464/464 463/463/463
f 464/464/464 465/465/465 466/466/466
f 465/465/465 467/467/467 466/466/466
f 468/468/468 465/465/465 463/463/463
f 468/468/468 463/463/463 469/469/469
f 470/470/470 468/468/468 469/469/469
f 465/465/465 471/471/471 467/467/467
f 471/471/471 465/465/465 468/468/468
f 472/472/472 468/468/468 470/470/470
f 472/472/472 471/471/471 468/468/468
f 473/473/473 471/471/471 472/472/472
f 471/471/471 474/474/474 467/467/467
f 471/471/471 473/473/473 474/474/474
f 467/467/467 474/474/474 475/475/475
f 474/474/474 476/476/476 475/475/475
f 474/474/474 477/477/477 476/476/476
f 473/473/473 477/477/477 474/474/474
f 477/477/477 478/478/478 476/476/476
f 478/478/478 477/477/477 479/479/479
f 477/477/477 480/480/480 479/479/479
f 477/477/477 473/473/473 480/480/480
f 479/479/479 480/480/480 481/481/481
f 480/480/480 482/482/482 481/481/481
f 483/483/483 472/472/472 470/470/470
f 483/483/483 470/470/470 484/484/484
f 485/485/485 483/483/483 484/484/484
f 480/480/480 486/486/486 482/482/482
f 473/473/473 486/486/486 480/480/480
f 487/487/487 472/472/472 483/483/483
f 487/487/487 473/473/473 472/472/472
f 488/488/488 483/483/483 485/485/485
f 488/488/488 487/487/487 483/483/483
f 489/489/489 488/488/488 485/485/485
f 488/488/488 489/489/489 490/490/490
f 491/491/491 488/488/488 490/490/490
f 487/487/487 488/488/488 491/491/491
f 491/491/491 490/490/490 492/492/492
f 493/493/493 491/491/491 492/492/492
f 473/473/473 487/487/487 494/494/494
f 494/494/494 487/487/487 491/491/491
f 494/494/494 491/491/491 493/493/493
f 486/486/486 473/473/473 494/494/494
f 495/495/495 494/494/494 493/493/493
f 486/486/486 494/494/494 495/495/495
f 495/495/495 493/493/493 496/496/496
f 497/497/497 495/495/495 496/496/496
f 498/498/498 486/486/486 495/495/495
f 498/498/498 495/495/495 497/497/497
f 486/486/486 498/498/498 482/482/482
f 499/499/499 498/498/498 497/497/497
f 482/482/482 498/498/498 500/500/500
f 498/498/498 499/499/499 500/500/500
