mtllib Doorway_1.mtl
v -0.5390911 -1.907349E-08 -0.05994252
v -0.5390911 2.129971 -0.0592168
v -0.5390911 2.129943 0.02078228
v -0.5390911 -1.907349E-08 0.02005656
v 0.4581696 -1.907349E-08 -0.01994252
v 0.4581696 2.031742 -0.01924442
v 0.4581696 2.031742 0.02075467
v 0.4581696 -1.907349E-08 0.02005656
v 0.5384787 2.129943 0.02078228
v -0.5390911 2.129943 0.02078228
v -0.5390911 2.129971 -0.0592168
v 0.5384787 2.129971 -0.0592168
v 0.5384787 2.129971 -0.0592168
v 0.5384786 -1.907349E-08 -0.05994252
v 0.5384786 -1.907349E-08 0.02005656
v 0.5384787 2.129943 0.02078228
v -0.4602155 -1.907349E-08 0.02005656
v -0.4602155 2.031742 0.02075467
v -0.4602155 2.031742 -0.01924442
v -0.4602155 -1.907349E-08 -0.01994252
v -0.4412154 -1.907349E-08 -0.01994252
v -0.4412154 2.006039 -0.01924793
v -0.4412154 2.006053 -0.05924793
v -0.4412154 -1.907349E-08 -0.05994252
v 0.5384787 2.129971 -0.0592168
v 0.4391695 -1.907349E-08 -0.05994252
v 0.5384786 -1.907349E-08 -0.05994252
v 0.4391695 2.006053 -0.05924793
v -0.5390911 2.129971 -0.0592168
v -0.4412154 2.006053 -0.05924793
v -0.4412154 -1.907349E-08 -0.05994252
v -0.5390911 -1.907349E-08 -0.05994252
v 0.4581696 2.031742 -0.01924442
v -0.4602155 2.031742 -0.01924442
v -0.4602155 2.031742 0.02075467
v 0.4581696 2.031742 0.02075467
v -0.5390911 -1.907349E-08 0.02005656
v -0.4602155 2.031742 0.02075467
v -0.4602155 -1.907349E-08 0.02005656
v -0.5390911 2.129943 0.02078228
v 0.4581696 2.031742 0.02075467
v 0.5384787 2.129943 0.02078228
v 0.4581696 -1.907349E-08 0.02005656
v 0.5384786 -1.907349E-08 0.02005656
v -0.4412154 -1.907349E-08 -0.01994252
v -0.4602155 -1.907349E-08 -0.01994252
v -0.4602155 2.031742 -0.01924442
v -0.4412154 2.006039 -0.01924793
v 0.4581696 2.031742 -0.01924442
v 0.4391695 2.006039 -0.01924793
v 0.4581696 -1.907349E-08 -0.01994252
v 0.4391695 -1.907349E-08 -0.01994252
v 0.4391695 2.006039 -0.01924793
v 0.4391695 2.006053 -0.05924793
v -0.4412154 2.006053 -0.05924793
v -0.4412154 2.006039 -0.01924793
v 0.4391695 -1.907349E-08 -0.05994252
v 0.4391695 2.006053 -0.05924793
v 0.4391695 2.006039 -0.01924793
v 0.4391695 -1.907349E-08 -0.01994252
v 0.4581696 -1.907349E-08 0.02005656
v 0.5384786 -1.907349E-08 0.02005656
v 0.5384786 -1.907349E-08 -0.05994252
v 0.4581696 -1.907349E-08 -0.01994252
v 0.4391695 -1.907349E-08 -0.05994252
v 0.4391695 -1.907349E-08 -0.01994252
v -0.5390911 -1.907349E-08 0.02005656
v -0.4602155 -1.907349E-08 0.02005656
v -0.4602155 -1.907349E-08 -0.01994252
v -0.5390911 -1.907349E-08 -0.05994252
v -0.4412154 -1.907349E-08 -0.01994252
v -0.4412154 -1.907349E-08 -0.05994252
vt -10.05165 -1.424437
vt -10.05052 1.903632
vt -9.925517 1.903589
vt -9.926651 -1.424437
vt -9.442707 -1.357405
vt -9.441616 1.817208
vt -9.379118 1.817208
vt -9.380209 -1.357404
vt -9.494612 -0.1857377
vt -9.494612 1.497968
vt -9.369614 1.497968
vt -9.369614 -0.1857377
vt -9.901812 1.903646
vt -9.900679 -1.424452
vt -10.02568 -1.424452
vt -10.02681 1.903603
vt -9.425166 -1.357405
vt -9.426257 1.817209
vt -9.363759 1.817209
vt -9.362668 -1.357406
vt -9.428081 -0.8407352
vt -9.429166 2.293706
vt -9.366666 2.293728
vt -9.365581 -0.8407352
vt -8.976995 -1.378847
vt -9.132165 1.949227
vt -8.976995 1.949227
vt -9.132164 -1.185225
vt -10.66069 -1.378847
vt -10.50776 -1.185225
vt -10.50776 1.949227
vt -10.66069 1.949227
vt -9.483005 -0.07357515
vt -9.483004 1.361398
vt -9.420504 1.361398
vt -9.420505 -0.07357515
vt -10.39421 -1.424424
vt -10.27096 1.750172
vt -10.27096 -1.424425
vt -10.39421 1.903612
vt -8.835984 1.750172
vt -8.710503 1.903612
vt -8.835985 -1.424425
vt -8.710503 -1.424424
vt -9.963184 -0.8576931
vt -9.99287 -0.8576931
vt -9.992871 2.316882
vt -9.963183 2.276721
vt -8.557903 2.316882
vt -8.587591 2.276721
vt -8.557903 -0.8576931
vt -8.58759 -0.8576931
vt -9.435312 -0.04847825
vt -9.497812 -0.04847825
vt -9.497818 1.327134
vt -9.435318 1.327134
vt -9.44416 -0.8407325
vt -9.443075 2.293725
vt -9.380575 2.293703
vt -9.38166 -0.8407326
vt -9.448206 0.5984062
vt -9.448206 0.4729238
vt -9.573204 0.4729238
vt -9.510704 0.5984067
vt -9.573204 0.6280947
vt -9.510704 0.6280946
vt -9.423731 0.6009119
vt -9.423731 0.4776683
vt -9.486229 0.4776682
vt -9.548729 0.6009119
vt -9.486229 0.4479806
vt -9.548729 0.4479808
vn 1 0 0
vn 1 0 0
vn 1 0 0
vn 1 0 0
vn 0 -1 0
vn 0 -1 0
vn 0 -1 0
vn 0 -1 0
vn -1 0 0
vn -1 0 0
vn -1 0 0
vn -1 0 0
vn -1 0 0
vn -1 0 0
vn -1 0 0
vn -1 0 0
vn -1 0 0
vn -1 0 0
vn -1 0 0
vn -1 0 0
vn 0 1 0.0003466499
vn 0 1 0.0003466499
vn 0 1 0.0003466499
vn 0 1 0.0003466499
vn 1 0 0
vn 1 0 0
vn 1 0 0
vn 1 0 0
vn 1 0 0
vn 1 0 0
vn 1 0 0
vn 1 0 0
vn 1 0 0
vn 1 0 0
vn 1 0 0
vn 1 0 0
vn -5.748075E-05 0.0003434003 -1
vn -5.748075E-05 0.0003434003 -1
vn -5.748075E-05 0.0003434003 -1
vn -5.748075E-05 0.0003434003 -1
vn 0 0.0002511979 -1
vn 0 0.0002511979 -1
vn 5.831885E-05 0.0003434003 -1
vn 5.831885E-05 0.0003434003 -1
vn 0 -1 5.31686E-06
vn 0 -1 5.31686E-06
vn 0 -1 5.31686E-06
vn 0 -1 5.31686E-06
vn -3.789418E-05 -0.0003421297 1
vn -3.789418E-05 -0.0003421296 1
vn -3.789418E-05 -0.0003421297 1
vn -3.789418E-05 -0.0003421296 1
vn 0 -0.0002812438 1
vn 0 -0.0002812438 1
vn 3.72178E-05 -0.0003421297 1
vn 3.72178E-05 -0.0003421297 1
vn -0.0001409763 -0.0003449177 1
vn -0.0001409763 -0.0003449177 1
vn -0.0001409763 -0.0003449176 1
vn -0.0001409763 -0.0003449177 1
vn 0.0001409761 -0.0003449176 1
vn 0.0001409761 -0.0003449176 1
vn 0.0001409761 -0.0003449176 1
vn 0.0001409761 -0.0003449176 1
vn 0 -1 -0.0003494121
vn 0 -1 -0.0003494121
vn 0 -1 -0.0003494121
vn 0 -1 -0.0003494121
vn -1 0 0
vn -1 0 0
vn -1 0 0
vn -1 0 0
vn 0 -1 0
vn 0 -1 0
vn 0 -1 0
vn 0 -1 0
vn 0 -1 0
vn 0 -1 0
vn 0 -1 0
vn 0 -1 0
vn 0 -1 0
vn 0 -1 0
vn 0 -1 0
vn 0 -1 0
usemtl TexturesCom_WoodFine0050_1_seamless_S_rich
f 3/3/15 2/2/14 1/1/13
f 4/4/16 3/3/15 1/1/13
f 7/7/19 6/6/18 5/5/17
f 8/8/20 7/7/19 5/5/17
f 11/11/23 10/10/22 9/9/21
f 12/12/24 11/11/23 9/9/21
f 15/15/27 14/14/26 13/13/25
f 16/16/28 15/15/27 13/13/25
f 19/19/31 18/18/30 17/17/29
f 20/20/32 19/19/31 17/17/29
f 23/23/35 22/22/34 21/21/33
f 24/24/36 23/23/35 21/21/33
f 27/27/39 26/26/38 25/25/37
f 26/26/38 28/28/40 25/25/37
f 25/25/37 28/28/40 29/29/41
f 28/28/40 30/30/42 29/29/41
f 29/29/41 30/30/42 31/31/43
f 32/32/44 29/29/41 31/31/43
f 35/35/47 34/34/46 33/33/45
f 36/36/48 35/35/47 33/33/45
f 39/39/51 38/38/50 37/37/49
f 38/38/50 40/40/52 37/37/49
f 38/38/50 41/41/53 40/40/52
f 41/41/53 42/42/54 40/40/52
f 41/41/53 43/43/55 42/42/54
f 43/43/55 44/44/56 42/42/54
f 47/47/59 46/46/58 45/45/57
f 48/48/60 47/47/59 45/45/57
f 47/47/59 48/48/60 49/49/61
f 48/48/60 50/50/62 49/49/61
f 49/49/61 50/50/62 51/51/63
f 50/50/62 52/52/64 51/51/63
f 55/55/67 54/54/66 53/53/65
f 56/56/68 55/55/67 53/53/65
f 59/59/71 58/58/70 57/57/69
f 60/60/72 59/59/71 57/57/69
f 63/63/75 62/62/74 61/61/73
f 64/64/76 63/63/75 61/61/73
f 65/65/77 63/63/75 64/64/76
f 66/66/78 65/65/77 64/64/76
f 69/69/81 68/68/80 67/67/79
f 70/70/82 69/69/81 67/67/79
f 71/71/83 69/69/81 70/70/82
f 72/72/84 71/71/83 70/70/82
