# https://github.com/mikedh/trimesh
v -0.00099025 -0.00231600 0.00110150
v 0.00000012 -0.00231600 0.00142059
v -0.00099025 -0.00231600 0.00129076
v -0.00099025 -0.00224299 0.00107748
v 0.00000012 -0.00231600 0.00159350
v -0.00099025 -0.00213992 0.00105186
v -0.00099025 -0.00196193 0.00100817
v 0.00000012 -0.00228466 0.00141359
v -0.00067237 -0.00231600 0.00139970
v -0.00084522 -0.00069104 0.00124707
v -0.00098821 -0.00069104 0.00119023
v -0.00099025 -0.00069104 0.00118906
v -0.00007666 -0.00231600 0.00159350
v 0.00000012 -0.00110810 0.00153286
v -0.00099025 -0.00183818 0.00099950
v 0.00000012 -0.00183341 0.00135055
v 0.00000012 -0.00197418 0.00136204
v -0.00021286 -0.00231600 0.00155289
v -0.00038571 -0.00069104 0.00140019
v -0.00099025 -0.00069104 0.00096577
v -0.00010429 -0.00231600 0.00158576
v -0.00000288 -0.00110810 0.00153286
v -0.00022983 -0.00069104 0.00144806
v 0.00000012 -0.00069104 0.00148511
v -0.00099025 -0.00183341 0.00099926
v 0.00000012 -0.00168023 0.00134692
v -0.00031223 -0.00069104 0.00142305
v 0.00000012 -0.00069104 0.00132419
v 0.00000012 -0.00072619 0.00132498
v 0.00000012 -0.00076119 0.00132578
v 0.00000012 -0.00106754 0.00133279
v 0.00000012 -0.00129754 0.00133807
v 0.00000012 -0.00160373 0.00134514
v -0.00007666 -0.00069104 0.00148511
f 1 2 5
f 1 5 13
f 1 13 21
f 1 21 18
f 1 18 9
f 1 9 3
f 1 3 12
f 1 12 20
f 1 20 25
f 1 25 15
f 1 15 7
f 1 7 6
f 1 6 4
f 1 4 2
f 2 4 6
f 2 6 7
f 2 7 8
f 2 8 17
f 2 17 16
f 2 16 26
f 2 26 33
f 2 33 32
f 2 32 31
f 2 31 30
f 2 30 29
f 2 29 28
f 2 28 24
f 2 24 14
f 2 14 5
f 3 9 10
f 3 10 11
f 3 11 12
f 5 14 22
f 5 22 13
f 7 15 16
f 7 16 17
f 7 17 8
f 9 18 10
f 10 19 27
f 10 27 23
f 10 23 34
f 10 34 24
f 10 24 28
f 10 28 20
f 10 20 12
f 10 12 11
f 10 18 19
f 13 22 23
f 13 23 21
f 14 24 34
f 14 34 22
f 15 25 16
f 16 25 20
f 16 20 26
f 18 21 23
f 18 23 27
f 18 27 19
f 20 28 29
f 20 29 30
f 20 30 31
f 20 31 32
f 20 32 33
f 20 33 26
f 22 34 23

