# https://github.com/mikedh/trimesh
v -0.00008699 -0.00348241 0.00153751
v 0.00107581 -0.00348241 0.00117852
v -0.00008699 -0.00348241 0.00173396
v -0.00008699 -0.00231523 0.00142024
v 0.00100820 -0.00195473 0.00099181
v 0.00107581 -0.00348241 0.00141033
v 0.00107581 -0.00231523 0.00102733
v -0.00008631 -0.00348241 0.00173412
v -0.00007652 -0.00336421 0.00176119
v -0.00008699 -0.00337308 0.00175684
v -0.00008699 -0.00231523 0.00159043
v 0.00000031 0.01160377 0.00133550
v 0.00000031 0.01154910 0.00131472
v 0.00000031 0.01149296 0.00129410
v 0.00000031 0.00490799 0.00130143
v 0.00000043 0.00023632 0.00131013
v 0.00000043 0.00015949 0.00131029
v 0.00000043 0.00000584 0.00131102
v 0.00000043 -0.00014782 0.00131279
v 0.00000043 -0.00030000 0.00131545
v 0.00000043 -0.00037682 0.00131706
v 0.00000043 -0.00060583 0.00132229
v 0.00000043 -0.00069004 0.00132423
v 0.00000043 -0.00137410 0.00133993
v 0.00000043 -0.00167993 0.00134702
v 0.00000043 -0.00183210 0.00135064
v 0.00100820 -0.00184688 0.00098182
v 0.00107581 -0.00336421 0.00143417
v 0.00076701 -0.00344252 0.00153228
v 0.00074015 -0.00348241 0.00152720
v 0.00100820 -0.00183210 0.00098118
v 0.00100820 -0.00076096 0.00094469
v 0.00100820 -0.00071663 0.00094340
v 0.00100820 -0.00069004 0.00094276
v 0.00096096 0.01149296 0.00095299
v 0.00096096 0.01161115 0.00100720
v 0.00107581 -0.00231523 0.00126164
v 0.00008670 -0.00348241 0.00173412
v 0.00007669 -0.00336421 0.00176119
v -0.00007652 -0.00321204 0.00176554
v -0.00008699 -0.00336421 0.00175837
v -0.00008699 -0.00275698 0.00170577
v 0.00000031 0.01149296 0.00145133
v 0.00000031 0.01160377 0.00141379
v 0.00028395 0.01158160 0.00121815
v 0.00107581 -0.00328443 0.00143763
v 0.00078978 -0.00321204 0.00153993
v 0.00077976 -0.00336421 0.00153662
v 0.00030763 -0.00344252 0.00168547
v 0.00022830 -0.00348241 0.00169820
v 0.00068745 -0.00348241 0.00154500
v 0.00032072 -0.00336421 0.00168982
v 0.00074334 0.01158160 0.00106503
v 0.00007680 0.01160377 0.00141379
v 0.00053607 0.01160377 0.00126196
v 0.00096096 0.01160968 0.00102782
v 0.00107581 -0.00279540 0.00138810
v 0.00096096 0.01160229 0.00111730
v 0.00096096 0.01157717 0.00112914
v 0.00096096 0.01149296 0.00115790
v 0.00022352 -0.00348241 0.00169957
v 0.00023000 -0.00347945 0.00169852
v 0.00023000 -0.00336421 0.00171995
v 0.00023000 -0.00321204 0.00172671
v 0.00007669 -0.00321204 0.00176554
v -0.00008699 -0.00321204 0.00176272
v -0.00008699 -0.00290621 0.00173863
v 0.00007680 0.01149296 0.00145133
v -0.00008699 -0.00291507 0.00174000
v -0.00008699 -0.00305838 0.00175716
v -0.00008699 -0.00306872 0.00175772
v 0.00107581 -0.00321204 0.00143965
v 0.00077908 0.01134078 0.00122999
v 0.00023000 0.01158751 0.00139261
v 0.00068927 0.01158751 0.00123957
v 0.00107581 -0.00282051 0.00139366
v 0.00076804 0.01157126 0.00122636
v 0.00077384 0.01149296 0.00122838
v 0.00107581 -0.00305838 0.00143280
v 0.00107581 -0.00291212 0.00141363
v 0.00023000 0.01134078 0.00141315
v 0.00023000 0.01149296 0.00140968
v 0.00030877 0.01157126 0.00137948
f 1 2 6
f 1 6 30
f 1 30 51
f 1 51 50
f 1 50 61
f 1 61 38
f 1 38 8
f 1 8 3
f 1 3 10
f 1 10 41
f 1 41 66
f 1 66 71
f 1 71 70
f 1 70 69
f 1 69 67
f 1 67 42
f 1 42 11
f 1 11 4
f 1 4 5
f 1 5 2
f 2 5 7
f 2 7 37
f 2 37 57
f 2 57 76
f 2 76 80
f 2 80 79
f 2 79 72
f 2 72 46
f 2 46 28
f 2 28 6
f 3 8 9
f 3 9 10
f 4 11 44
f 4 44 12
f 4 12 13
f 4 13 14
f 4 14 15
f 4 15 16
f 4 16 17
f 4 17 18
f 4 18 19
f 4 19 20
f 4 20 21
f 4 21 22
f 4 22 23
f 4 23 24
f 4 24 25
f 4 25 26
f 4 26 27
f 4 27 5
f 5 27 7
f 6 28 29
f 6 29 30
f 7 27 31
f 7 31 32
f 7 32 33
f 7 33 34
f 7 34 35
f 7 35 36
f 7 36 37
f 8 38 39
f 8 39 9
f 9 39 65
f 9 65 40
f 9 40 66
f 9 66 41
f 9 41 10
f 11 42 43
f 11 43 44
f 12 44 36
f 12 36 45
f 12 45 13
f 13 45 14
f 14 45 35
f 14 35 34
f 14 34 15
f 15 34 16
f 16 34 17
f 17 34 18
f 18 34 19
f 19 34 20
f 20 34 21
f 21 34 22
f 22 34 23
f 23 34 24
f 24 34 25
f 25 34 26
f 26 34 33
f 26 33 32
f 26 32 31
f 26 31 27
f 28 46 47
f 28 47 48
f 28 48 29
f 29 49 50
f 29 50 51
f 29 51 30
f 29 48 52
f 29 52 49
f 35 45 53
f 35 53 36
f 36 53 45
f 36 44 54
f 36 54 55
f 36 55 56
f 36 56 37
f 37 56 58
f 37 58 59
f 37 59 60
f 37 60 57
f 38 61 39
f 39 61 62
f 39 62 49
f 39 49 63
f 39 63 64
f 39 64 65
f 40 65 68
f 40 68 43
f 40 43 66
f 42 67 43
f 43 68 54
f 43 54 44
f 43 67 69
f 43 69 70
f 43 70 71
f 43 71 66
f 46 72 47
f 47 64 52
f 47 52 48
f 47 72 73
f 47 73 64
f 49 62 50
f 49 52 63
f 50 62 61
f 52 64 63
f 54 74 55
f 54 68 74
f 55 74 75
f 55 75 58
f 55 58 56
f 57 60 76
f 58 75 77
f 58 77 59
f 59 77 60
f 60 77 78
f 60 78 73
f 60 73 72
f 60 72 79
f 60 79 80
f 60 80 76
f 64 73 81
f 64 81 68
f 64 68 65
f 68 81 82
f 68 82 83
f 68 83 74
f 73 78 81
f 74 83 75
f 75 83 77
f 77 83 78
f 78 83 82
f 78 82 81

