# https://github.com/mikedh/trimesh
v -0.00007561 0.00304070 -0.00146317
v 0.00000033 -0.00069104 -0.00148514
v -0.00007561 0.00304070 -0.00130501
v -0.00007561 0.00980936 -0.00145773
v 0.00007669 -0.00069104 -0.00148514
v 0.00000033 -0.00069104 -0.00132412
v -0.00007561 0.00996229 -0.00145746
v -0.00007561 0.01042229 -0.00145633
v -0.00007561 0.01134107 -0.00145402
v -0.00007561 0.00307080 -0.00130490
v 0.00000033 -0.00030089 -0.00131535
v 0.00000033 -0.00014796 -0.00131271
v 0.00098575 0.00015911 -0.00094813
v 0.00098575 0.00018801 -0.00094791
v 0.00098575 0.00218694 -0.00093736
v 0.00098575 0.00230615 -0.00093687
v 0.00022993 -0.00069104 -0.00144804
v 0.00007680 0.01134107 -0.00145402
v 0.00098575 -0.00069104 -0.00097199
v 0.00098575 -0.00027921 -0.00095847
v 0.00098575 -0.00012147 -0.00095346
v 0.00098575 0.00000618 -0.00095018
v -0.00007561 0.01149400 -0.00145138
v 0.00098575 0.00304070 -0.00093499
v -0.00007561 0.00490837 -0.00130145
v 0.00098575 0.00003387 -0.00094964
v 0.00031222 -0.00069104 -0.00142300
v 0.00022983 0.00996229 -0.00141842
v 0.00007680 0.01149400 -0.00145138
v 0.00022983 0.01134107 -0.00141314
v 0.00022983 0.01088228 -0.00141492
v 0.00022983 0.01011643 -0.00141788
v 0.00098575 -0.00069104 -0.00119122
v -0.00007561 0.01160479 -0.00141411
v 0.00007680 0.01160599 -0.00141390
v 0.00098575 0.00304070 -0.00116198
v 0.00095759 0.01161081 -0.00100828
v 0.00095759 0.01149400 -0.00095836
v -0.00007561 0.01149400 -0.00129402
v -0.00007561 0.00506130 -0.00130124
v 0.00038577 -0.00069104 -0.00140022
v 0.00032770 0.00996229 -0.00138584
v 0.00022983 0.01158793 -0.00139268
v 0.00030868 0.01157228 -0.00137954
v 0.00022983 0.01149400 -0.00140970
v 0.00031450 0.01149400 -0.00138148
v 0.00068934 0.01134107 -0.00125993
v 0.00068934 0.01088228 -0.00126171
v 0.00068934 0.01072815 -0.00126230
v 0.00084518 -0.00069104 -0.00124695
v 0.00095759 0.01134107 -0.00116128
v -0.00007561 0.01160599 -0.00133597
v 0.00053610 0.01160599 -0.00126198
v 0.00095759 0.01138202 -0.00116068
v 0.00095759 0.01149400 -0.00115901
v 0.00095759 0.01160238 -0.00111825
v 0.00078700 0.00996229 -0.00123263
v 0.00078534 0.01026815 -0.00123204
v 0.00068934 0.01158793 -0.00123947
v 0.00076809 0.01157228 -0.00122633
v 0.00068934 0.01149400 -0.00125649
v 0.00077910 0.01134107 -0.00122999
v 0.00078181 0.01088228 -0.00123085
v 0.00077391 0.01149400 -0.00122827
f 1 2 6
f 1 6 3
f 1 3 10
f 1 10 25
f 1 25 40
f 1 40 39
f 1 39 52
f 1 52 34
f 1 34 23
f 1 23 9
f 1 9 8
f 1 8 7
f 1 7 4
f 1 4 2
f 2 5 17
f 2 17 27
f 2 27 41
f 2 41 50
f 2 50 33
f 2 33 19
f 2 19 6
f 2 4 7
f 2 7 8
f 2 8 9
f 2 9 18
f 2 18 5
f 3 6 11
f 3 11 12
f 3 12 13
f 3 13 14
f 3 14 15
f 3 15 16
f 3 16 10
f 5 18 17
f 6 19 20
f 6 20 21
f 6 21 22
f 6 22 11
f 9 23 29
f 9 29 18
f 10 24 25
f 10 16 24
f 11 22 26
f 11 26 12
f 12 26 13
f 13 26 22
f 13 22 21
f 13 21 20
f 13 20 19
f 13 19 33
f 13 33 36
f 13 36 24
f 13 24 16
f 13 16 15
f 13 15 14
f 17 18 28
f 17 28 27
f 18 29 30
f 18 30 31
f 18 31 32
f 18 32 28
f 23 34 35
f 23 35 29
f 24 36 37
f 24 37 38
f 24 38 39
f 24 39 40
f 24 40 25
f 27 28 41
f 28 32 42
f 28 42 41
f 29 35 43
f 29 43 44
f 29 44 45
f 29 45 30
f 30 45 46
f 30 46 47
f 30 47 48
f 30 48 31
f 31 48 32
f 32 48 49
f 32 49 42
f 33 50 51
f 33 51 36
f 34 52 35
f 35 52 37
f 35 37 53
f 35 53 43
f 36 51 54
f 36 54 55
f 36 55 56
f 36 56 37
f 37 56 53
f 37 52 38
f 38 52 39
f 41 42 57
f 41 57 50
f 42 49 58
f 42 58 57
f 43 53 59
f 43 59 44
f 44 59 60
f 44 60 61
f 44 61 46
f 44 46 45
f 46 61 47
f 47 61 62
f 47 62 48
f 48 58 49
f 48 62 58
f 50 57 51
f 51 57 58
f 51 58 63
f 51 63 62
f 51 62 54
f 53 56 59
f 54 62 55
f 55 62 64
f 55 64 60
f 55 60 56
f 56 60 59
f 58 62 63
f 60 64 61
f 61 64 62

