# Blender 4.0.0
# www.blender.org
o decimated_mesh
v 0.263844 0.175350 0.120566
v 0.267681 0.173282 0.125337
v 0.269272 0.173781 0.112890
v 0.264241 0.175302 0.111088
v 0.267525 0.173533 0.106936
v -0.264172 0.175569 0.112364
v -0.264230 0.174875 0.121986
v -0.267336 0.172969 0.125984
v 0.267272 0.167092 0.130878
v 0.273143 0.167343 0.125459
v 0.273484 0.169414 0.120505
v 0.273262 0.170048 0.111743
v 0.253348 0.159640 0.082458
v -0.267876 0.173913 0.107929
v -0.268992 0.173687 0.120176
v 0.274810 0.164006 0.121986
v 0.273590 0.167340 0.106915
v 0.258760 0.156811 0.082455
v -0.253338 0.159640 0.082458
v -0.273315 0.170049 0.111922
v -0.273757 0.167049 0.124687
v -0.267369 0.167070 0.130821
v 0.275489 0.164012 0.112427
v -0.273596 0.167338 0.106946
v -0.258751 0.156812 0.082456
v -0.273463 0.169248 0.121201
v 0.267154 -0.128080 0.130712
v 0.275144 -0.124738 0.120595
v 0.259549 -0.113856 0.082458
v -0.275523 0.163795 0.112386
v 0.275295 -0.124756 0.111088
v 0.273274 -0.129984 0.121832
v 0.273944 -0.129786 0.113224
v 0.273062 -0.128061 0.125569
v 0.273511 -0.128363 0.106939
v 0.257823 -0.118436 0.082458
v -0.259539 -0.113856 0.082458
v -0.275115 -0.124678 0.120644
v 0.267694 -0.134092 0.125074
v 0.270092 -0.134111 0.112281
v 0.267657 -0.134260 0.107024
v -0.275285 -0.124756 0.111088
v -0.273870 -0.128624 0.107802
v -0.273594 -0.129798 0.121110
v -0.273056 -0.128070 0.125549
v -0.267130 -0.127833 0.130838
v 0.264196 -0.135954 0.120849
v 0.253348 -0.120359 0.082458
v 0.264241 -0.136083 0.111088
v -0.267446 -0.134368 0.106972
v -0.270331 -0.133881 0.112050
v -0.257813 -0.118436 0.082458
v -0.267317 -0.133747 0.125813
v -0.264230 -0.136083 0.111088
v -0.253338 -0.120359 0.082458
v -0.268925 -0.134498 0.119912
v -0.264054 -0.136056 0.120506
vn -0.0004 0.9369 -0.3495
vn 0.3167 -0.9484 0.0139
vn 0.5626 0.5304 0.6341
vn 0.6947 0.6454 0.3178
vn -0.0000 -0.8682 -0.4962
vn -0.5979 0.8006 -0.0397
vn 0.6330 0.7432 -0.2168
vn 0.3310 0.9338 -0.1361
vn -0.0003 0.8723 -0.4890
vn 0.6328 -0.7650 0.1198
vn -0.3090 0.9292 0.2029
vn -0.0001 0.6341 0.7733
vn -0.6927 0.0005 0.7213
vn 0.9423 0.2809 0.1824
vn -0.0001 0.9175 0.3978
vn 0.6750 0.6622 -0.3255
vn 0.5749 0.5650 -0.5918
vn 0.3664 0.7020 -0.6107
vn -0.0001 0.0001 1.0000
vn 0.6881 0.7247 0.0350
vn -0.6457 0.7134 0.2722
vn -0.6716 0.6509 0.3541
vn -0.5962 0.5110 0.6192
vn 0.3159 -0.7350 -0.5999
vn -0.0001 -0.6475 0.7620
vn 0.9355 0.3313 -0.1223
vn -0.6924 0.6494 -0.3146
vn -0.5634 0.5783 -0.5901
vn -0.0005 -0.0000 1.0000
vn -0.3683 0.7055 -0.6055
vn 0.9226 -0.0008 0.3857
vn -0.9386 0.3224 -0.1225
vn 0.9381 0.3463 0.0013
vn 0.9644 0.2552 0.0687
vn -0.8703 -0.0006 -0.4925
vn 0.8686 -0.0003 -0.4956
vn 0.9368 -0.2866 0.2007
vn -0.9589 -0.2830 0.0194
vn -0.9186 -0.0003 -0.3953
vn 0.7513 -0.2831 -0.5962
vn 0.9188 -0.0003 -0.3948
vn 0.9999 -0.0007 0.0159
vn 0.5521 -0.5434 0.6324
vn 0.9410 -0.3101 -0.1350
vn 0.6802 -0.6354 0.3655
vn 0.5664 -0.5708 -0.5944
vn 0.7532 -0.6284 -0.1942
vn 0.6762 -0.6755 -0.2941
vn 0.0002 -0.9999 0.0131
vn 0.7415 -0.6696 0.0423
vn 0.9673 -0.2531 0.0158
vn -0.9413 -0.2599 0.2153
vn 0.6566 -0.0007 0.7543
vn 0.0005 1.0000 -0.0050
vn 0.3404 -0.9311 -0.1313
vn -0.6562 -0.6895 -0.3066
vn -0.6695 -0.6612 0.3385
vn -0.5530 -0.5293 0.6434
vn -0.0001 -0.9169 0.3990
vn -0.7542 -0.2842 -0.5920
vn -0.3056 -0.9521 0.0084
vn -0.6977 0.7146 0.0505
vn -0.5783 -0.5612 -0.5920
vn -0.3529 -0.9290 -0.1114
vn -0.3155 -0.7342 -0.6012
vn -0.6486 -0.7126 0.2676
vn -0.3208 -0.9247 0.2052
vn 0.0002 -0.9125 -0.4090
vn -0.2657 0.9617 0.0678
vn -0.0001 0.9199 -0.3921
vn 0.9447 -0.3212 0.0661
vn 0.0002 -0.8703 -0.4926
vn -0.0000 0.8697 -0.4936
vn 0.2870 0.9579 0.0072
vn 0.0005 0.6670 0.7451
vn -0.6659 -0.0005 0.7461
vn 0.0003 0.9026 0.4305
vn 0.0002 -0.0006 1.0000
vn 0.6129 0.7825 0.1097
vn 0.0006 -0.6840 0.7295
vn -0.0007 0.9974 0.0720
vn -0.3895 0.9208 -0.0185
vn -0.0000 -0.0000 1.0000
vn 0.0007 -0.0000 1.0000
vn -0.9998 -0.0009 0.0178
vn -0.9899 0.0026 0.1415
vn 0.9015 -0.0001 0.4328
vn -0.8547 0.0025 -0.5191
vn 0.8546 0.0025 -0.5192
vn -0.9418 -0.3360 -0.0101
vn -0.9427 0.0007 -0.3335
vn 0.9456 0.0009 -0.3253
vn -0.9223 -0.0011 0.3864
vn 0.9975 0.0008 0.0709
vn -0.8161 -0.5769 -0.0340
vn -0.0000 -1.0000 0.0028
vn 0.3874 0.9179 0.0863
vn 0.6782 0.0001 0.7348
vn -0.6989 -0.7119 0.0691
vn -0.9665 0.2459 0.0738
vn -0.0000 -0.9150 0.4035
vn -0.3412 -0.9399 -0.0128
vn -0.9425 0.3339 0.0137
vn -0.0000 -0.9231 -0.3846
vn 0.3960 -0.9152 0.0756
vn -0.0000 0.9027 0.4303
vn 0.0002 0.9176 0.3976
vn -0.0000 -0.0013 1.0000
vn -0.0000 -0.0009 1.0000
s 0
f 4//1 14//1 6//1
f 49//2 40//2 47//2
f 10//3 2//3 9//3
f 2//4 10//4 11//4
f 48//5 50//5 55//5
f 20//6 15//6 14//6
f 3//7 12//7 5//7
f 3//8 5//8 4//8
f 5//9 19//9 14//9
f 40//10 32//10 39//10
f 7//11 15//11 8//11
f 9//12 8//12 22//12
f 45//13 22//13 21//13
f 10//14 16//14 11//14
f 1//15 8//15 2//15
f 12//16 17//16 5//16
f 5//17 17//17 18//17
f 5//18 18//18 13//18
f 9//19 22//19 46//19
f 3//20 11//20 12//20
f 15//21 26//21 8//21
f 8//22 26//22 21//22
f 22//23 8//23 21//23
f 41//24 48//24 36//24
f 27//25 46//25 53//25
f 12//26 23//26 17//26
f 14//27 24//27 20//27
f 14//28 25//28 24//28
f 55//29 19//29 25//29
f 19//30 25//30 14//30
f 16//31 34//31 28//31
f 24//32 30//32 20//32
f 23//33 12//33 11//33
f 23//34 11//34 16//34
f 24//35 37//35 43//35
f 29//36 17//36 35//36
f 28//37 34//37 32//37
f 42//38 44//38 38//38
f 42//39 24//39 43//39
f 29//40 35//40 36//40
f 17//41 31//41 35//41
f 31//42 23//42 28//42
f 27//43 39//43 34//43
f 31//44 33//44 35//44
f 34//45 39//45 32//45
f 36//46 35//46 41//46
f 35//47 33//47 40//47
f 35//48 40//48 41//48
f 57//49 49//49 47//49
f 33//50 32//50 40//50
f 33//51 31//51 28//51
f 38//52 44//52 45//52
f 34//53 9//53 27//53
f 6//54 1//54 4//54
f 41//55 40//55 49//55
f 43//56 50//56 51//56
f 45//57 44//57 53//57
f 46//58 45//58 53//58
f 47//59 53//59 57//59
f 37//60 52//60 43//60
f 56//61 54//61 57//61
f 26//62 15//62 20//62
f 43//63 52//63 50//63
f 50//64 54//64 51//64
f 50//65 52//65 55//65
f 44//66 56//66 53//66
f 53//67 56//67 57//67
f 49//68 50//68 41//68
f 15//69 7//69 6//69
f 4//70 5//70 14//70
f 32//71 33//71 28//71
f 48//72 41//72 50//72
f 5//73 13//73 19//73
f 3//74 4//74 1//74
f 9//75 2//75 8//75
f 45//76 46//76 22//76
f 1//77 7//77 8//77
f 46//78 27//78 9//78
f 3//79 2//79 11//79
f 39//80 27//80 53//80
f 1//81 6//81 7//81
f 14//82 15//82 6//82
f 48//83 19//83 55//83
f 55//83 37//83 52//83
f 25//83 37//83 55//83
f 19//83 48//83 13//83
f 48//83 29//83 13//83
f 18//84 13//84 29//84
f 29//83 48//83 36//83
f 42//85 38//85 30//85
f 21//86 30//86 38//86
f 16//87 10//87 34//87
f 24//88 25//88 37//88
f 29//89 18//89 17//89
f 42//90 43//90 44//90
f 42//91 30//91 24//91
f 17//92 23//92 31//92
f 21//93 38//93 45//93
f 28//94 23//94 16//94
f 51//95 44//95 43//95
f 57//96 54//96 49//96
f 2//97 3//97 1//97
f 34//98 10//98 9//98
f 44//99 51//99 56//99
f 30//100 21//100 26//100
f 47//101 39//101 53//101
f 56//102 51//102 54//102
f 30//103 26//103 20//103
f 49//104 54//104 50//104
f 47//105 40//105 39//105
f 8//106 2//106 7//106
f 2//107 1//107 7//107
f 13//108 19//108 18//108
f 18//109 19//109 25//109
f 18//83 25//83 37//83
f 18//83 37//83 52//83
f 29//83 18//83 36//83
f 36//83 18//83 48//83
f 48//83 18//83 55//83
f 55//83 18//83 52//83
