# Blender 4.0.0
# www.blender.org
o decimated_mesh
v -0.410208 0.484685 -0.075467
v -0.410208 0.484685 0.150529
v 0.201642 0.484685 -0.075467
v -0.410249 0.655001 0.173146
v -0.410204 0.648086 -0.072910
v 0.201642 0.647430 -0.072339
v 0.198595 0.485129 0.168115
v 0.201684 0.655687 0.174265
vn -0.0000 1.0000 -0.0018
vn -0.0285 -0.1316 0.9909
vn 0.9999 -0.0002 0.0125
vn -1.0000 -0.0002 -0.0002
vn -0.0011 0.9996 -0.0281
vn 0.0010 0.0192 -0.9998
vn -0.0007 1.0000 -0.0000
vn 0.9998 -0.0181 0.0004
vn -1.0000 -0.0000 -0.0000
vn 0.0011 0.9994 -0.0335
vn -0.0000 0.0156 -0.9999
vn -0.0018 -0.0360 0.9993
vn -1.0000 -0.0000 -0.0002
vn -0.0000 1.0000 -0.0000
vn -1.0000 -0.0002 -0.0000
vn -0.0007 1.0000 -0.0018
vn 1.0000 -0.0000 -0.0002
vn 0.9997 -0.0186 0.0125
s 0
f 1//1 7//1 3//1
f 2//2 7//2 4//2
f 7//3 3//3 6//3
f 2//4 4//4 5//4
f 8//5 5//5 4//5
f 3//6 5//6 6//6
f 7//7 1//7 2//7
f 6//8 8//8 7//8
f 5//9 1//9 2//9
f 8//10 6//10 5//10
f 3//11 1//11 5//11
f 8//12 4//12 7//12
f 4//13 5//13 1//13
f 3//14 1//14 2//14
f 2//15 4//15 1//15
f 7//16 3//16 2//16
f 6//17 8//17 3//17
f 8//18 7//18 3//18
