# Blender 4.0.0
# www.blender.org
o decimated_mesh
v -0.537906 0.660385 -0.178482
v -0.537906 0.656338 -0.195533
v 0.505856 0.660023 -0.177812
v 0.505856 0.651776 -0.201778
v -0.537906 0.650157 -0.202698
v -0.537906 0.655034 -0.161321
v 0.505856 0.651510 -0.162830
v -0.537906 0.642941 -0.157005
v 0.505856 0.029520 -0.202519
v -0.537905 0.027163 -0.201764
v 0.505856 0.028748 -0.164362
v -0.537904 0.025406 -0.158759
v -0.537906 0.019646 -0.179068
v 0.505855 0.026445 -0.177385
vn -1.0000 -0.0000 -0.0000
vn -0.0056 0.0028 -1.0000
vn 1.0000 -0.0002 -0.0000
vn 0.0001 0.9547 0.2976
vn 0.0025 0.3361 0.9418
vn 0.0036 0.8694 0.4940
vn 0.0019 -0.9493 -0.3144
vn 0.0005 0.9730 -0.2309
vn -0.0006 0.7572 -0.6532
vn 0.0061 -0.9847 0.1741
vn 0.0067 -0.9926 -0.1214
vn -1.0000 0.0002 -0.0000
vn -0.0054 0.0025 -1.0000
vn 1.0000 -0.0000 -0.0000
vn -0.0007 -0.0015 -1.0000
vn 0.0009 0.0012 -1.0000
vn 0.0045 -0.9620 0.2728
vn 0.0022 0.9456 -0.3254
vn -1.0000 -0.0000 0.0001
vn -1.0000 -0.0000 -0.0001
vn -0.0056 0.0025 -1.0000
vn -0.0054 0.0028 -1.0000
s 0
f 8//1 1//1 5//1
f 12//2 8//2 7//2
f 9//3 11//3 14//3
f 1//4 6//4 3//4
f 6//5 8//5 7//5
f 7//6 3//6 6//6
f 10//7 9//7 13//7
f 3//8 2//8 1//8
f 4//9 5//9 2//9
f 11//10 13//10 14//10
f 9//11 14//11 13//11
f 12//1 8//1 10//1
f 6//1 1//1 8//1
f 1//1 2//1 5//1
f 5//1 10//1 8//1
f 10//12 13//12 12//12
f 12//13 7//13 11//13
f 4//14 3//14 7//14
f 7//14 11//14 9//14
f 9//14 4//14 7//14
f 10//15 5//15 9//15
f 9//16 5//16 4//16
f 12//17 13//17 11//17
f 3//18 4//18 2//18
f 2//1 13//1 1//1
f 13//1 6//1 1//1
f 7//14 11//14 3//14
f 11//14 14//14 3//14
f 14//14 9//14 3//14
f 9//14 4//14 3//14
f 5//1 13//1 2//1
f 12//19 8//19 13//19
f 8//1 6//1 13//1
f 5//20 10//20 13//20
f 8//21 7//21 11//21
f 8//22 11//22 12//22
