# Blender 4.0.0
# www.blender.org
o decimated_mesh
v 0.201642 0.267985 -0.075545
v 0.518133 0.267985 -0.075538
v 0.201642 0.267985 0.150459
v 0.518117 0.267985 0.150509
v 0.518141 0.646832 -0.072889
v 0.201642 0.345135 0.178427
v 0.518148 0.345135 0.178427
v 0.518141 0.653714 0.173367
v 0.201642 0.648066 -0.072176
v 0.518132 0.659228 0.161104
v 0.201642 0.655615 0.172556
vn -0.0000 1.0000 -0.0000
vn -0.0001 -0.3408 0.9401
vn -0.0125 0.9994 -0.0308
vn 0.0044 0.9120 0.4101
vn -0.0025 0.0164 0.9999
vn 1.0000 -0.0000 -0.0000
vn -1.0000 -0.0000 -0.0000
vn 1.0000 0.0015 -0.0000
vn 1.0000 -0.0004 0.0001
vn 1.0000 -0.0000 -0.0001
vn -0.0000 -0.3403 0.9403
vn 0.0038 0.9986 -0.0529
vn -0.0000 0.0070 -1.0000
vn -0.0022 0.0089 -1.0000
vn -0.0000 0.0189 0.9998
vn -0.0024 0.0189 0.9998
vn 1.0000 -0.0000 -0.0007
vn 1.0000 0.0001 -0.0000
vn -0.0000 0.0164 0.9999
s 0
f 3//1 4//1 2//1
f 4//2 6//2 3//2
f 10//3 9//3 11//3
f 11//4 8//4 10//4
f 11//5 7//5 8//5
f 3//1 2//1 1//1
f 3//6 1//6 6//6
f 6//7 11//7 9//7
f 1//6 9//6 6//6
f 8//6 7//6 5//6
f 10//8 8//8 5//8
f 7//9 4//9 2//9
f 2//10 5//10 7//10
f 4//11 7//11 6//11
f 10//12 5//12 9//12
f 5//13 2//13 1//13
f 1//14 9//14 5//14
f 11//15 6//15 7//15
f 1//6 9//6 3//6
f 3//6 9//6 6//6
f 6//16 8//16 11//16
f 8//17 7//17 10//17
f 7//18 5//18 10//18
f 2//1 1//1 4//1
f 4//1 1//1 3//1
f 7//19 8//19 6//19
