# Blender 4.0.0
# www.blender.org
o decimated_mesh
v -0.561379 0.651833 0.179903
v -0.560977 0.661497 0.169870
v -0.585262 0.657330 0.174600
v -0.596434 0.648845 0.179380
v -0.596320 0.005516 0.179096
v -0.596422 0.661084 0.167520
v -0.561388 0.002990 0.179768
v -0.602282 0.642942 0.161346
v -0.602054 0.006641 0.159879
v -0.577865 0.659047 -0.098741
v -0.595476 -0.006260 0.169689
v -0.561348 -0.005937 0.171400
v -0.589773 0.658588 -0.098741
v -0.565668 0.651467 -0.098724
v -0.599476 0.651964 -0.098743
v -0.600797 0.038134 -0.098740
v -0.561352 0.647852 -0.053070
v -0.597382 0.028096 -0.098741
v -0.595963 -0.006405 0.130543
v -0.564130 0.038836 -0.098741
v -0.583752 0.026177 -0.098742
v -0.561371 -0.006658 0.127995
v -0.569546 0.028030 -0.098741
vn -1.0000 -0.0051 0.0006
vn -0.0193 -0.0004 0.9998
vn -0.2162 0.6795 0.7011
vn -0.9402 -0.3377 -0.0450
vn 0.0086 -0.9998 0.0166
vn 0.0006 -0.0000 -1.0000
vn -0.5637 0.8257 -0.0218
vn -0.9999 0.0022 -0.0107
vn 0.8336 0.5513 -0.0351
vn -0.9458 -0.3217 -0.0438
vn -0.1379 -0.9795 -0.1465
vn -0.0301 -0.6837 0.7292
vn 0.1278 -0.9797 -0.1545
vn -0.9583 -0.0003 0.2859
vn -0.9999 -0.0002 0.0121
vn 0.9956 0.0025 -0.0939
vn -1.0000 0.0045 0.0014
vn -1.0000 -0.0000 -0.0003
vn -0.9993 0.0029 -0.0373
vn -0.0149 -0.0002 0.9999
vn -0.9516 0.3073 0.0004
vn -0.8947 -0.4464 0.0128
vn 0.5274 0.8486 -0.0409
vn -0.0445 0.8519 0.5218
vn -0.0592 0.5480 0.8344
vn -0.0602 -0.6256 0.7778
vn -0.9459 0.2264 0.2326
vn -0.0070 -1.0000 0.0038
vn 0.0001 -0.0001 -1.0000
vn -0.0000 0.0001 -1.0000
vn -0.0001 -0.0000 -1.0000
vn -0.0000 -0.0000 -1.0000
vn -0.0000 0.0004 -1.0000
vn 0.0005 -0.0013 -1.0000
vn 0.0116 0.7200 0.6939
vn -0.0111 0.9999 -0.0084
vn -0.0385 0.9992 -0.0103
vn -0.0177 -0.9898 -0.1416
vn -1.0000 -0.0003 -0.0049
vn -0.9258 -0.2742 0.2602
vn 0.8895 -0.4458 -0.1003
vn -0.9511 -0.0011 0.3088
vn -0.9992 -0.0000 -0.0401
vn -1.0000 0.0005 -0.0054
vn -1.0000 0.0006 0.0005
vn -1.0000 0.0005 0.0017
vn -0.9512 -0.0003 0.3086
vn -0.9999 0.0036 0.0129
vn -0.9583 -0.0010 0.2859
vn 0.0001 -0.0000 -1.0000
s 0
f 12//1 7//1 22//1
f 4//2 5//2 7//2
f 4//3 3//3 6//3
f 9//4 18//4 19//4
f 22//5 12//5 11//5
f 14//6 20//6 15//6
f 13//7 15//7 6//7
f 8//8 15//8 16//8
f 2//9 17//9 14//9
f 16//10 18//10 9//10
f 18//11 21//11 19//11
f 12//12 7//12 11//12
f 22//13 21//13 23//13
f 4//14 9//14 5//14
f 22//15 2//15 20//15
f 20//16 14//16 17//16
f 17//17 20//17 2//17
f 1//18 22//18 7//18
f 1//19 2//19 22//19
f 7//20 1//20 4//20
f 8//21 6//21 15//21
f 19//22 11//22 9//22
f 2//23 14//23 10//23
f 2//24 6//24 3//24
f 3//25 4//25 1//25
f 7//26 5//26 11//26
f 6//27 8//27 4//27
f 19//28 22//28 11//28
f 20//29 23//29 21//29
f 20//30 21//30 16//30
f 21//31 18//31 16//31
f 16//32 15//32 20//32
f 13//33 10//33 15//33
f 15//34 10//34 14//34
f 2//35 3//35 1//35
f 2//36 10//36 6//36
f 10//37 13//37 6//37
f 22//38 19//38 21//38
f 16//39 9//39 8//39
f 9//40 11//40 5//40
f 23//41 20//41 22//41
f 4//42 8//42 9//42
f 7//43 1//43 2//43
f 7//44 2//44 12//44
f 12//45 2//45 22//45
f 22//46 2//46 17//46
f 8//47 5//47 4//47
f 20//48 22//48 17//48
f 9//49 5//49 8//49
f 20//31 23//31 15//31
f 23//50 21//50 15//50
f 21//31 18//31 15//31
f 18//31 16//31 15//31
