# Blender 4.0.0
# www.blender.org
o decimated_mesh
v 0.584293 0.659734 -0.098557
v 0.505633 0.659748 -0.176749
v 0.505855 0.652114 -0.163184
v 0.565809 0.651771 -0.098752
v 0.595790 0.660925 -0.152825
v 0.600087 0.651859 -0.098724
v 0.555297 0.661200 -0.191534
v 0.596074 0.660395 -0.191568
v 0.505832 0.651602 -0.202150
v 0.568869 0.028217 -0.098596
v 0.601705 0.038792 -0.098740
v 0.602112 0.642922 -0.184112
v 0.602354 0.007981 -0.181118
v 0.598589 0.648761 -0.194620
v 0.547956 0.650376 -0.202298
v 0.596222 -0.006208 -0.153502
v 0.589599 0.642922 -0.200967
v 0.548748 -0.006046 -0.147837
v 0.596037 -0.006337 -0.190905
v 0.598833 0.011578 -0.195311
v 0.505603 0.027651 -0.165171
v 0.597154 0.027623 -0.098734
v 0.585249 -0.005957 -0.143002
v 0.587212 0.006096 -0.200963
v 0.505840 0.029453 -0.202306
v 0.547656 -0.005913 -0.192409
vn 0.9997 0.0026 0.0234
vn 0.0008 0.0227 -0.9997
vn 0.0189 -0.6207 -0.7838
vn -0.3704 0.8508 0.3728
vn -0.4677 0.7670 0.4393
vn 0.4443 0.8886 0.1136
vn 0.9466 0.3223 -0.0113
vn 0.9020 0.4317 0.0007
vn 0.9706 0.0006 -0.2406
vn -0.6187 -0.7855 0.0128
vn -0.1182 0.9453 -0.3041
vn 0.4038 0.3128 -0.8597
vn 0.1072 0.4399 -0.8916
vn -0.6278 -0.4948 0.6008
vn 0.9050 -0.3686 0.2123
vn 0.9334 -0.2161 -0.2863
vn 0.4311 -0.7709 0.4689
vn 0.5234 -0.2796 -0.8049
vn -0.0762 -0.8036 0.5903
vn -0.6395 -0.7677 -0.0413
vn 0.9510 0.2524 -0.1786
vn 0.9677 -0.2335 0.0949
vn -0.7321 -0.0019 0.6812
vn 0.5763 0.0011 -0.8172
vn -0.0895 -0.3652 -0.9266
vn 1.0000 0.0004 0.0077
vn 0.0049 -0.0015 1.0000
vn 0.0008 -0.0000 -1.0000
vn -0.0043 -0.0003 -1.0000
vn 0.0165 -0.0001 -0.9999
vn 0.0141 0.0003 -0.9999
vn -0.0101 -0.2302 -0.9731
vn 1.0000 -0.0000 -0.0006
vn 0.9996 0.0275 -0.0010
vn 1.0000 -0.0004 0.0064
vn 0.9479 -0.0011 -0.3185
vn 0.0132 0.7005 -0.7135
vn 0.0178 0.6989 -0.7150
vn -0.0137 -0.7949 0.6066
vn 0.9157 -0.4019 -0.0031
vn -0.7249 -0.0034 0.6889
vn 0.4380 -0.0016 -0.8990
vn -0.0225 0.9995 0.0228
vn -0.0118 0.9997 0.0194
vn 0.0197 0.9997 -0.0135
vn 0.0194 0.9998 -0.0035
vn -0.0028 1.0000 0.0030
vn 0.0089 0.9999 -0.0059
vn 0.0106 -0.0002 -0.9999
vn -0.0044 0.0002 -1.0000
vn -0.0106 -0.0000 -0.9999
vn 0.0134 0.7098 -0.7043
vn 1.0000 -0.0000 0.0078
vn 1.0000 0.0001 0.0064
vn 0.9999 -0.0004 -0.0166
vn 0.0176 0.6903 -0.7233
vn -0.0035 0.0003 -1.0000
vn 0.0162 -0.0011 -0.9999
vn -0.0087 -1.0000 -0.0028
vn -0.0030 -1.0000 0.0035
vn -0.0006 -0.9997 0.0232
vn 0.9705 -0.0008 -0.2409
vn 0.9482 0.0007 -0.3176
vn 0.0319 -0.0001 -0.9995
s 0
f 12//1 6//1 11//1
f 4//2 1//2 6//2
f 19//3 26//3 24//3
f 2//4 4//4 1//4
f 2//5 3//5 4//5
f 1//6 6//6 5//6
f 6//7 12//7 8//7
f 8//8 5//8 6//8
f 14//9 13//9 20//9
f 21//10 26//10 18//10
f 7//11 9//11 2//11
f 14//12 17//12 8//12
f 8//13 17//13 15//13
f 21//14 18//14 10//14
f 11//15 22//15 16//15
f 13//16 19//16 20//16
f 22//17 23//17 16//17
f 19//18 24//18 20//18
f 23//19 10//19 18//19
f 21//20 25//20 26//20
f 14//21 8//21 12//21
f 16//22 13//22 11//22
f 21//23 4//23 3//23
f 20//24 17//24 14//24
f 24//25 26//25 25//25
f 13//26 12//26 11//26
f 10//27 22//27 11//27
f 11//28 4//28 6//28
f 4//29 11//29 10//29
f 17//30 24//30 25//30
f 25//31 9//31 17//31
f 17//32 9//32 15//32
f 9//33 3//33 25//33
f 9//34 2//34 3//34
f 21//35 25//35 3//35
f 14//36 12//36 13//36
f 8//37 15//37 7//37
f 15//38 9//38 7//38
f 23//39 22//39 10//39
f 13//40 16//40 19//40
f 21//41 10//41 4//41
f 20//42 24//42 17//42
f 2//43 1//43 7//43
f 7//44 1//44 5//44
f 5//45 8//45 7//45
f 16//46 19//46 23//46
f 18//47 23//47 26//47
f 26//48 23//48 19//48
f 4//49 1//49 10//49
f 10//50 1//50 11//50
f 11//51 1//51 6//51
f 8//52 9//52 7//52
f 9//53 2//53 25//53
f 25//54 2//54 21//54
f 21//55 2//55 3//55
f 15//56 9//56 8//56
f 15//57 25//57 9//57
f 15//58 24//58 25//58
f 26//59 19//59 18//59
f 19//60 16//60 18//60
f 16//61 23//61 18//61
f 20//62 12//62 13//62
f 20//63 14//63 12//63
f 24//64 15//64 17//64
