# Blender 4.0.0
# www.blender.org
o decimated_mesh
v 0.201645 0.039282 -0.074096
v 0.518068 0.038250 -0.073063
v 0.201634 0.271500 0.036692
v 0.518117 0.267961 -0.075542
v 0.201639 0.029168 0.174542
v 0.518117 0.267961 0.150519
v 0.518149 0.029915 0.173972
vn -0.2936 0.4727 0.8309
vn 0.0112 0.9999 -0.0000
vn 0.0032 -0.0108 -0.9999
vn 0.0023 -0.9994 -0.0337
vn 0.0016 0.0980 0.9952
vn -1.0000 -0.0000 -0.0000
vn -0.3007 0.4107 -0.8608
vn -0.0031 -0.9992 -0.0406
vn 1.0000 0.0001 -0.0003
vn 1.0000 -0.0002 -0.0000
vn 1.0000 0.0001 -0.0000
vn 1.0000 -0.0002 -0.0003
s 0
f 5//1 6//1 3//1
f 4//2 3//2 6//2
f 1//3 4//3 2//3
f 5//4 2//4 7//4
f 5//5 7//5 6//5
f 1//6 5//6 3//6
f 1//7 3//7 4//7
f 5//8 1//8 2//8
f 7//9 2//9 6//9
f 2//10 4//10 6//10
f 6//11 7//11 4//11
f 7//12 2//12 4//12
