# Blender 4.0.0
# www.blender.org
o decimated_mesh
v -0.561171 0.650400 0.180795
v -0.528750 0.030244 0.177265
v -0.528970 0.652968 0.174294
v -0.528889 0.659557 0.159040
v -0.561140 0.661357 0.170616
v -0.547811 0.004778 0.179421
v -0.560886 0.661421 0.124389
v -0.561283 0.001694 0.179359
v -0.547716 -0.006480 0.168207
v -0.528957 0.649127 0.101866
v -0.528964 0.036422 0.101863
v -0.561345 -0.006677 0.169199
v -0.548814 -0.006023 0.125442
v -0.561345 0.647865 0.101870
v -0.561347 -0.005393 0.121666
v -0.561345 0.042348 0.101870
vn -1.0000 0.0002 0.0009
vn 0.0002 -0.0000 1.0000
vn 0.0701 0.3821 0.9215
vn 0.1903 0.9009 0.3901
vn -0.2156 0.5493 0.8073
vn -0.8967 0.4409 0.0387
vn 0.0662 -0.0022 0.9978
vn -0.1562 0.6964 -0.7005
vn 0.1975 0.0047 0.9803
vn 0.2443 0.9539 -0.1743
vn -0.0334 0.8566 -0.5150
vn -0.8909 0.4533 0.0277
vn -0.7133 0.4916 -0.4996
vn 0.0933 0.6775 0.7296
vn 0.0421 0.9987 0.0270
vn 0.0563 0.9984 0.0017
vn -1.0000 -0.0000 0.0028
vn -0.9999 0.0106 -0.0008
vn -1.0000 -0.0004 -0.0002
vn -1.0000 -0.0022 -0.0055
vn -0.9995 0.0319 0.0012
vn -1.0000 -0.0000 0.0022
vn -1.0000 0.0005 0.0011
vn -1.0000 0.0072 0.0002
vn 0.0001 -0.0000 1.0000
vn -0.0288 0.1057 0.9940
vn -0.0573 0.7707 -0.6346
vn -0.0136 0.9998 0.0110
vn -1.0000 0.0048 0.0021
vn -1.0000 0.0002 0.0022
vn -1.0000 0.0002 0.0060
vn -0.0041 -0.0022 1.0000
vn 0.1121 0.0002 0.9937
vn -1.0000 -0.0004 -0.0055
vn -0.9991 0.0429 -0.0054
vn -1.0000 -0.0000 -0.0001
vn -1.0000 -0.0000 -0.0000
vn -1.0000 -0.0002 0.0012
s 0
f 8//1 1//1 16//1
f 10//2 16//2 11//2
f 11//3 16//3 15//3
f 3//4 4//4 5//4
f 13//5 11//5 15//5
f 2//6 11//6 13//6
f 2//7 1//7 8//7
f 6//8 9//8 8//8
f 3//9 1//9 2//9
f 4//10 10//10 7//10
f 14//11 7//11 10//11
f 2//12 13//12 9//12
f 9//13 6//13 2//13
f 1//14 3//14 5//14
f 13//15 15//15 12//15
f 5//16 4//16 7//16
f 11//17 2//17 10//17
f 10//18 3//18 4//18
f 2//19 3//19 10//19
f 5//20 7//20 1//20
f 1//21 7//21 14//21
f 14//22 16//22 1//22
f 16//23 15//23 8//23
f 8//24 15//24 12//24
f 16//25 10//25 14//25
f 8//26 6//26 2//26
f 12//27 8//27 9//27
f 13//28 12//28 9//28
f 5//29 14//29 1//29
f 14//30 12//30 1//30
f 12//31 8//31 1//31
f 8//32 6//32 1//32
f 6//33 2//33 1//33
f 2//34 3//34 4//34
f 7//35 14//35 5//35
f 16//36 15//36 14//36
f 15//37 12//37 14//37
f 10//25 14//25 11//25
f 11//2 14//2 16//2
f 10//38 2//38 4//38
