# Blender 4.0.0
# www.blender.org
o decimated_mesh
v 0.557380 0.651792 0.179930
v 0.596270 0.648899 0.179303
v 0.595868 0.660959 0.169198
v 0.595852 0.004526 0.179308
v 0.602156 0.009865 0.160323
v 0.602112 0.642942 0.161346
v 0.556641 0.661422 0.169791
v 0.584380 -0.002567 0.174801
v 0.596185 -0.006615 0.167465
v 0.557346 0.002771 0.179615
v 0.601596 0.038162 -0.098740
v 0.600077 0.651923 -0.098744
v 0.589599 0.658785 -0.098741
v 0.577692 0.658916 -0.098741
v 0.557343 -0.006666 0.169081
v 0.595792 -0.006405 0.130543
v 0.597028 0.027459 -0.098739
v 0.566349 0.651838 -0.098735
v 0.570244 0.027179 -0.098738
v 0.557334 -0.006644 0.128184
v 0.565071 0.038410 -0.098739
vn 0.9509 -0.0004 0.3095
vn -0.5288 0.8473 -0.0494
vn 0.9977 0.0053 -0.0677
vn -0.0151 0.9891 0.1466
vn 0.1758 -0.7145 0.6771
vn -0.0282 -0.7445 0.6670
vn 0.5477 0.8364 -0.0196
vn 1.0000 0.0001 -0.0022
vn 0.0110 0.9999 -0.0084
vn -0.0000 -0.0001 -1.0000
vn 0.0080 -0.0000 1.0000
vn 0.9454 0.3260 0.0039
vn 0.9385 -0.3452 -0.0120
vn 0.9491 -0.0006 0.3149
vn 0.0013 -1.0000 -0.0006
vn 0.0066 -1.0000 -0.0058
vn 0.0601 0.6422 0.7641
vn 0.0190 0.7256 0.6878
vn -0.9993 0.0021 -0.0362
vn 1.0000 -0.0000 -0.0002
vn -0.9994 0.0011 -0.0339
vn 1.0000 -0.0001 -0.0002
vn 0.0326 -0.5731 0.8189
vn -0.0103 0.9892 0.1460
vn 0.0224 -0.8597 0.5103
vn 0.9458 0.2264 0.2326
vn 1.0000 0.0025 -0.0077
vn -0.9024 -0.4157 -0.1133
vn 0.0117 0.9999 -0.0084
vn -0.0000 0.0005 -1.0000
vn -0.0003 -0.0000 -1.0000
vn -0.0000 -0.0000 -1.0000
vn -0.0003 -0.0003 -1.0000
vn 0.9405 -0.2339 0.2465
vn 0.0161 -0.0005 0.9999
vn 0.9185 -0.3919 -0.0529
vn 0.9511 -0.3069 -0.0356
vn 0.9974 -0.0000 -0.0727
vn 0.0080 -0.0005 1.0000
vn 0.0161 -0.0000 0.9999
vn 0.0110 0.9999 -0.0085
vn 1.0000 0.0011 -0.0002
vn 1.0000 0.0011 -0.0012
vn -0.0002 -0.0000 -1.0000
vn 0.0001 -0.0000 -1.0000
vn -0.0103 0.9891 0.1468
vn -0.0151 0.9892 0.1460
s 0
f 2//1 5//1 6//1
f 18//2 7//2 14//2
f 7//3 1//3 20//3
f 19//4 20//4 16//4
f 4//5 8//5 9//5
f 15//6 8//6 10//6
f 13//7 3//7 12//7
f 11//8 6//8 5//8
f 3//9 13//9 14//9
f 11//10 19//10 21//10
f 4//11 2//11 10//11
f 6//12 12//12 3//12
f 5//13 9//13 16//13
f 2//14 4//14 5//14
f 15//15 20//15 9//15
f 20//16 16//16 9//16
f 1//17 2//17 3//17
f 1//18 3//18 7//18
f 7//19 18//19 21//19
f 20//20 10//20 15//20
f 7//21 21//21 20//21
f 10//22 20//22 1//22
f 10//23 8//23 4//23
f 19//24 16//24 17//24
f 15//25 9//25 8//25
f 2//26 6//26 3//26
f 12//27 6//27 11//27
f 20//28 21//28 19//28
f 14//29 7//29 3//29
f 14//30 13//30 12//30
f 12//31 11//31 18//31
f 17//10 19//10 11//10
f 21//32 18//32 11//32
f 18//33 14//33 12//33
f 9//34 5//34 4//34
f 1//35 10//35 2//35
f 17//36 11//36 16//36
f 11//37 5//37 16//37
f 7//38 1//38 10//38
f 10//39 4//39 1//39
f 4//40 2//40 1//40
f 13//29 7//29 3//29
f 13//41 14//41 7//41
f 20//42 7//42 15//42
f 15//43 7//43 10//43
f 11//44 17//44 12//44
f 17//32 19//32 12//32
f 19//45 21//45 12//45
f 21//31 18//31 12//31
f 19//46 20//46 17//46
f 17//47 20//47 16//47
