# Blender 4.0.0
# www.blender.org
o decimated_mesh
v -0.027044 0.268015 -0.075544
v 0.029760 0.268015 -0.075544
v -0.010796 0.268026 0.177937
v -0.027044 0.484668 -0.075445
v 0.029747 0.484650 -0.075444
v 0.029754 0.268029 0.150542
v -0.027094 0.344086 0.178381
v -0.011031 0.484784 0.178760
v 0.029760 0.484668 0.150643
v 0.029815 0.344321 0.178366
vn 1.0000 0.0001 -0.0000
vn 0.5358 -0.2897 0.7931
vn 0.0003 -0.0058 1.0000
vn 0.5605 0.1607 0.8124
vn -0.0001 1.0000 -0.0000
vn -0.0000 1.0000 -0.0001
vn -0.9916 0.1130 0.0624
vn -1.0000 -0.0000 -0.0002
vn -0.9758 -0.2095 0.0626
vn 1.0000 -0.0000 -0.0001
vn 1.0000 -0.0000 -0.0021
vn 0.0003 -0.0027 1.0000
vn 0.0003 1.0000 -0.0001
vn 0.0024 1.0000 -0.0006
vn -0.0000 0.0005 -1.0000
vn -0.0000 1.0000 -0.0000
vn 0.0003 1.0000 -0.0005
vn 1.0000 0.0001 -0.0002
vn 1.0000 -0.0008 -0.0000
vn -0.0001 1.0000 -0.0001
vn 0.0028 1.0000 -0.0001
vn 1.0000 0.0004 -0.0001
s 0
f 6//1 2//1 5//1
f 6//2 10//2 3//2
f 10//3 7//3 3//3
f 9//4 8//4 10//4
f 3//5 6//5 1//5
f 1//6 6//6 2//6
f 7//7 8//7 4//7
f 4//8 1//8 7//8
f 1//9 3//9 7//9
f 5//10 9//10 6//10
f 9//11 10//11 6//11
f 10//12 8//12 7//12
f 9//13 5//13 4//13
f 4//14 8//14 9//14
f 5//15 2//15 1//15
f 1//15 4//15 5//15
f 4//15 2//15 1//15
f 2//16 1//16 3//16
f 5//15 2//15 4//15
f 8//17 5//17 4//17
f 5//18 10//18 2//18
f 10//19 6//19 2//19
f 6//20 2//20 3//20
f 8//21 9//21 5//21
f 9//22 10//22 5//22
