# Blender 4.0.0
# www.blender.org
o decimated_mesh
v 0.557283 0.651293 0.180145
v 0.518148 0.345071 0.178423
v 0.518152 0.653579 0.173491
v 0.518148 0.035450 0.176584
v 0.557286 0.661507 0.168795
v 0.518096 0.659504 0.159018
v 0.518103 0.026130 0.169071
v 0.547641 0.004821 0.179424
v 0.557285 0.660792 0.123977
v 0.547545 -0.006501 0.168211
v 0.557303 0.002242 0.179510
v 0.518148 0.649130 0.101699
v 0.518211 0.036415 0.101643
v 0.547552 -0.006435 0.129996
v 0.557335 -0.006632 0.169089
v 0.538843 0.648648 0.101701
v 0.557586 -0.005087 0.121235
v 0.557507 0.652168 0.113430
v 0.552204 0.045806 0.101684
v 0.551991 0.638246 0.101724
vn 0.9998 0.0213 0.0036
vn 0.0972 -0.3479 -0.9325
vn 1.0000 -0.0000 -0.0000
vn -0.7425 -0.6699 -0.0013
vn -0.1405 0.9161 0.3756
vn -0.5868 -0.5065 0.6318
vn -0.0701 0.7415 0.6672
vn -0.1667 0.0158 0.9859
vn -0.6028 -0.5589 0.5695
vn -0.1904 -0.6900 0.6983
vn -0.7916 -0.6038 -0.0934
vn 0.9044 0.0004 -0.4266
vn 0.2419 0.7537 -0.6111
vn -0.0795 -0.0059 0.9968
vn -0.4257 -0.6837 -0.5928
vn -0.0132 -0.9999 -0.0017
vn 0.3933 0.4954 -0.7745
vn 0.0203 0.8707 -0.4915
vn 1.0000 -0.0000 0.0048
vn 1.0000 -0.0003 -0.0000
vn 1.0000 -0.0025 0.0052
vn 1.0000 0.0002 0.0034
vn 1.0000 0.0081 -0.0006
vn 1.0000 0.0001 0.0004
vn 1.0000 -0.0055 0.0008
vn 1.0000 -0.0000 0.0008
vn 0.9620 -0.0031 -0.2730
vn -0.0471 0.9988 -0.0159
vn -0.0007 -0.0001 1.0000
vn -0.0012 -0.0001 1.0000
vn -0.0000 0.0022 1.0000
vn 0.0212 0.1125 0.9934
vn -0.0363 -0.0010 0.9993
vn -0.1883 0.9664 -0.1751
vn 0.1061 -0.9939 -0.0315
vn -0.0681 -0.7597 0.6467
vn -0.0399 -0.0005 0.9992
vn -0.0092 -0.0010 1.0000
vn 1.0000 0.0035 0.0034
vn 1.0000 -0.0001 -0.0039
vn 1.0000 -0.0000 -0.0034
vn 1.0000 -0.0000 -0.0061
vn -0.1019 -0.0059 0.9948
vn 0.9997 0.0263 -0.0004
vn 1.0000 -0.0000 0.0009
vn 1.0000 0.0001 0.0016
vn -0.0001 -0.0001 1.0000
vn -0.0018 -0.0001 1.0000
s 0
f 18//1 9//1 1//1
f 13//2 19//2 17//2
f 2//3 12//3 3//3
f 10//4 7//4 14//4
f 3//5 5//5 6//5
f 4//6 7//6 8//6
f 1//7 5//7 3//7
f 3//8 2//8 1//8
f 7//9 10//9 8//9
f 8//10 10//10 11//10
f 13//11 14//11 7//11
f 18//12 19//12 20//12
f 9//13 18//13 16//13
f 2//14 4//14 11//14
f 13//15 17//15 14//15
f 14//16 15//16 10//16
f 18//17 20//17 16//17
f 9//18 16//18 12//18
f 1//19 11//19 17//19
f 5//20 1//20 9//20
f 15//21 17//21 11//21
f 17//22 18//22 1//22
f 6//23 3//23 12//23
f 12//24 2//24 13//24
f 13//25 4//25 7//25
f 2//26 4//26 13//26
f 18//27 17//27 19//27
f 9//28 6//28 5//28
f 20//29 12//29 19//29
f 13//30 19//30 12//30
f 12//31 20//31 16//31
f 4//32 8//32 11//32
f 11//33 1//33 2//33
f 12//34 6//34 9//34
f 14//35 17//35 15//35
f 11//36 10//36 15//36
f 2//37 8//37 1//37
f 8//38 11//38 1//38
f 18//39 5//39 1//39
f 3//40 2//40 6//40
f 6//41 2//41 7//41
f 7//42 2//42 4//42
f 4//43 8//43 2//43
f 9//44 5//44 18//44
f 12//45 6//45 7//45
f 12//46 7//46 13//46
f 12//47 13//47 16//47
f 16//30 13//30 19//30
f 16//48 19//48 20//48
