# Blender 4.0.0
# www.blender.org
o decimated_mesh
v -0.528952 0.649156 0.101870
v -0.528973 0.036449 0.101870
v -0.528989 0.648942 -0.070576
v -0.561345 0.647837 0.101870
v -0.561345 0.647837 -0.053066
v -0.529076 0.640468 -0.074632
v -0.561315 0.641443 -0.067957
v -0.561345 0.042378 0.101870
v -0.561209 0.043703 -0.063664
v -0.541015 0.040141 -0.072350
v -0.529178 0.038448 -0.073718
v -0.561345 0.059068 -0.069913
vn -0.1140 0.0055 -0.9935
vn -0.1801 -0.9836 -0.0080
vn -1.0000 -0.0000 -0.0002
vn -0.1709 0.4267 -0.8881
vn -0.2381 0.8923 -0.3836
vn -0.0000 -0.0000 1.0000
vn -0.4216 -0.3448 -0.8387
vn -1.0000 0.0002 0.0012
vn -0.9999 0.0101 0.0002
vn -1.0000 -0.0000 0.0007
vn -0.2026 0.0033 -0.9792
vn -0.1184 -0.0015 -0.9930
vn -0.1290 -0.9861 0.1045
vn -0.1653 -0.9862 -0.0110
vn -1.0000 0.0001 -0.0000
vn -1.0000 -0.0048 -0.0000
vn -1.0000 -0.0092 -0.0009
vn -0.0407 0.9992 -0.0000
vn -0.0348 0.9994 -0.0012
vn -1.0000 -0.0000 0.0002
vn -1.0000 0.0003 0.0012
vn -0.9998 0.0002 0.0209
vn -1.0000 0.0001 -0.0021
vn -1.0000 -0.0000 -0.0000
vn -0.1773 -0.9841 -0.0086
vn -0.1429 -0.9897 -0.0111
vn -0.1149 -0.0015 -0.9934
vn -0.1203 -0.0014 -0.9927
s 0
f 11//1 10//1 12//1
f 2//2 8//2 9//2
f 8//3 4//3 7//3
f 3//4 6//4 7//4
f 3//5 7//5 5//5
f 8//6 2//6 1//6
f 10//7 9//7 12//7
f 11//8 2//8 6//8
f 3//9 6//9 1//9
f 1//10 6//10 2//10
f 7//11 6//11 12//11
f 6//12 11//12 12//12
f 10//13 11//13 9//13
f 11//14 2//14 9//14
f 7//15 12//15 8//15
f 5//16 7//16 4//16
f 9//17 8//17 12//17
f 1//6 4//6 8//6
f 4//18 1//18 5//18
f 1//19 3//19 5//19
f 2//20 1//20 3//20
f 2//21 3//21 11//21
f 11//22 3//22 6//22
f 7//23 12//23 5//23
f 12//24 8//24 4//24
f 12//24 4//24 5//24
f 9//25 10//25 2//25
f 10//26 11//26 2//26
f 10//27 6//27 11//27
f 10//28 12//28 6//28
