# Blender 4.0.0
# www.blender.org
o decimated_mesh
v -0.528950 0.652442 0.174615
v -0.528952 0.035398 0.176839
v -0.410219 0.653625 0.173432
v -0.410219 0.035398 0.176566
v -0.528952 0.026088 0.169855
v -0.410219 0.659136 0.161347
v -0.410224 0.026891 0.170036
v -0.528952 0.659136 0.161347
v -0.410239 0.648013 -0.073469
v -0.528951 0.647725 -0.072389
v -0.528950 0.038580 -0.073820
v -0.410219 0.039066 -0.073514
vn 0.0028 -0.6001 0.7999
vn 0.0099 0.0051 0.9999
vn -0.0000 0.9098 0.4149
vn -0.0068 0.9987 0.0512
vn -0.0091 0.0023 -1.0000
vn -0.0029 0.9988 -0.0488
vn -1.0000 -0.0000 -0.0000
vn -1.0000 -0.0003 -0.0000
vn 0.0018 -0.6089 0.7933
vn 0.0023 0.0036 1.0000
vn -0.0044 0.8928 0.4504
vn -0.0042 0.9987 0.0499
vn 0.0026 0.0001 -1.0000
vn -0.0000 0.9989 -0.0473
vn -1.0000 -0.0000 0.0001
vn 1.0000 -0.0005 -0.0000
vn -1.0000 0.0001 0.0001
vn 1.0000 -0.0000 -0.0000
vn 0.0018 -0.6001 0.7999
vn 0.0029 -0.6089 0.7933
vn -1.0000 -0.0000 0.0002
vn -0.0042 0.9987 0.0512
vn -0.0068 0.9987 0.0499
s 0
f 7//1 2//1 5//1
f 1//2 4//2 3//2
f 8//3 3//3 6//3
f 11//4 5//4 7//4
f 9//5 11//5 10//5
f 8//6 9//6 10//6
f 10//7 11//7 1//7
f 10//8 1//8 8//8
f 11//7 5//7 2//7
f 2//7 1//7 11//7
f 7//9 4//9 2//9
f 1//10 2//10 4//10
f 8//11 1//11 3//11
f 11//12 7//12 12//12
f 9//13 12//13 11//13
f 8//14 6//14 9//14
f 12//15 3//15 9//15
f 12//16 4//16 7//16
f 9//17 3//17 6//17
f 3//18 4//18 12//18
f 5//19 4//19 2//19
f 1//7 5//7 2//7
f 7//20 4//20 5//20
f 1//21 8//21 5//21
f 8//7 10//7 5//7
f 10//7 11//7 5//7
f 11//22 5//22 12//22
f 12//23 5//23 7//23
f 9//15 12//15 6//15
f 6//7 12//7 3//7
