# Blender 4.0.0
# www.blender.org
o decimated_mesh
v -0.583940 0.660002 -0.098502
v -0.547724 0.660990 -0.151874
v -0.565631 0.651599 -0.098750
v -0.537776 0.660206 -0.179542
v -0.596600 0.661997 -0.189784
v -0.537808 0.652385 -0.201544
v -0.547744 0.661070 -0.190985
v -0.537895 0.653649 -0.159024
v -0.564271 0.038937 -0.098737
v -0.599420 0.652004 -0.098729
v -0.545425 0.001763 -0.143334
v -0.589029 0.647311 -0.200572
v -0.598750 0.648717 -0.194649
v -0.602276 0.642922 -0.184112
v -0.602645 0.010733 -0.181794
v -0.600979 0.038915 -0.098741
v -0.554619 -0.006031 -0.144366
v -0.546624 -0.005739 -0.152845
v -0.569546 0.028010 -0.098741
v -0.537812 0.022860 -0.159162
v -0.599005 0.011578 -0.195321
v -0.596688 -0.006037 -0.153738
v -0.589767 0.011578 -0.201212
v -0.596008 -0.006319 -0.191395
v -0.596562 0.027021 -0.098721
v -0.587144 -0.005871 -0.144099
v -0.546931 -0.006126 -0.190875
v -0.537839 0.028461 -0.202224
v -0.556380 0.003470 -0.199466
vn 0.9570 -0.2738 0.0954
vn -0.9345 -0.3557 -0.0142
vn 0.4025 0.8685 0.2892
vn 0.6831 0.6945 0.2259
vn 0.7102 0.6122 0.3476
vn 0.4230 0.8536 -0.3041
vn 0.9554 -0.2954 -0.0047
vn 0.0001 -0.0017 -1.0000
vn -0.4584 0.8849 0.0829
vn -0.0191 0.0011 -0.9998
vn -0.9173 -0.3403 0.2066
vn -0.5377 0.0015 -0.8431
vn -0.4435 0.3708 -0.8160
vn 0.5351 -0.6948 0.4806
vn 0.7228 -0.3491 0.5964
vn 0.4645 -0.6302 0.6222
vn 0.0840 0.9965 0.0020
vn 0.3832 -0.3774 -0.8430
vn -0.9544 0.2260 -0.1950
vn -0.9482 -0.0006 -0.3176
vn -0.5184 -0.2652 -0.8130
vn -0.9394 -0.2158 -0.2663
vn 0.9084 0.0020 0.4181
vn -0.9994 0.0025 0.0332
vn -0.4516 -0.7643 0.4603
vn 0.0296 -0.7965 0.6039
vn -0.0717 0.5662 -0.8211
vn 0.9637 -0.2648 -0.0350
vn -0.0006 -0.0000 -1.0000
vn 0.0008 -0.0007 1.0000
vn 0.0001 -0.0000 -1.0000
vn -0.0003 0.0289 -0.9996
vn 0.0214 -0.1254 -0.9919
vn -0.0198 0.0010 -0.9998
vn -0.5202 0.0011 -0.8541
vn -0.0660 -0.4621 -0.8844
vn -0.9758 -0.2002 0.0875
vn 0.0105 -0.6612 -0.7502
vn -0.9657 0.0007 -0.2598
vn 0.9133 -0.0246 0.4065
vn 0.9160 -0.0000 0.4011
vn -1.0000 -0.0001 0.0006
vn -1.0000 0.0001 -0.0020
vn -0.9999 0.0108 -0.0023
vn -0.9998 0.0007 0.0198
vn -0.9583 0.2856 0.0017
vn 0.0008 -0.8096 0.5870
vn -0.0010 0.7719 -0.6358
vn 0.0041 0.9998 0.0213
vn 0.0190 0.9998 0.0020
vn 0.0469 -0.9989 0.0098
vn 0.0049 0.9999 -0.0104
vn 0.0039 -1.0000 0.0027
vn -0.0097 0.9999 -0.0077
vn 0.0147 -0.0000 -0.9999
vn 0.0052 0.0002 -1.0000
vn -0.0006 0.0004 -1.0000
vn -0.0136 -0.0001 -0.9999
vn -1.0000 -0.0001 -0.0058
vn -1.0000 0.0001 0.0006
vn -1.0000 -0.0000 0.0015
vn -0.5201 0.0015 -0.8541
vn -0.5377 0.0011 -0.8431
vn -0.9484 0.0007 -0.3169
vn -0.9656 -0.0004 -0.2599
vn -0.0015 -1.0000 0.0075
vn -0.0048 -0.9997 0.0219
s 0
f 18//1 20//1 11//1
f 22//2 15//2 24//2
f 1//3 3//3 2//3
f 2//4 8//4 4//4
f 8//5 2//5 3//5
f 4//6 6//6 7//6
f 27//7 20//7 18//7
f 9//8 25//8 16//8
f 5//9 10//9 1//9
f 6//10 28//10 12//10
f 25//11 16//11 22//11
f 21//12 12//12 23//12
f 5//13 12//13 13//13
f 11//14 17//14 18//14
f 11//15 9//15 19//15
f 11//16 19//16 17//16
f 7//17 2//17 4//17
f 27//18 29//18 28//18
f 13//19 14//19 5//19
f 13//20 15//20 14//20
f 21//21 23//21 24//21
f 21//22 24//22 15//22
f 8//23 3//23 9//23
f 16//24 10//24 14//24
f 22//25 26//25 25//25
f 17//26 19//26 25//26
f 5//27 6//27 12//27
f 27//28 28//28 20//28
f 10//29 3//29 16//29
f 25//30 19//30 9//30
f 9//31 16//31 3//31
f 10//32 1//32 3//32
f 29//33 23//33 28//33
f 23//34 12//34 28//34
f 21//35 13//35 12//35
f 29//36 24//36 23//36
f 22//37 16//37 15//37
f 29//38 27//38 24//38
f 13//39 21//39 15//39
f 11//40 20//40 9//40
f 20//41 8//41 9//41
f 8//42 28//42 20//42
f 6//43 28//43 8//43
f 8//44 4//44 6//44
f 14//45 15//45 16//45
f 10//46 5//46 14//46
f 26//47 17//47 25//47
f 6//48 5//48 7//48
f 1//49 2//49 5//49
f 5//50 2//50 7//50
f 27//51 18//51 17//51
f 17//52 24//52 26//52
f 27//53 17//53 24//53
f 26//54 24//54 22//54
f 10//55 1//55 16//55
f 16//56 1//56 25//56
f 25//57 1//57 9//57
f 9//58 1//58 3//58
f 20//59 8//59 4//59
f 20//60 4//60 28//60
f 28//61 4//61 6//61
f 23//62 13//62 12//62
f 23//63 21//63 13//63
f 21//64 14//64 13//64
f 21//65 15//65 14//65
f 24//66 17//66 22//66
f 17//67 26//67 22//67
