mtllib material.mtl
usemtl material_0
v -0.13949000 0.00201000 0.00000000
v -0.14041000 0.00262000 0.03038000
v -0.14041000 0.00262000 0.00000000
v -0.13949000 0.00201000 0.03038000
v -0.13888000 0.00109000 0.00000000
v -0.13888000 0.00109000 0.03038000
v -0.13866000 0.00000000 0.00000000
v -0.13866000 0.00000000 0.03038000
v -0.13888000 -0.00108000 0.00000000
v -0.13888000 -0.00108000 0.03038000
v -0.13949000 -0.00200000 0.00000000
v -0.13949000 -0.00200000 0.03038000
v -0.14041000 -0.00261000 0.00000000
v -0.14041000 -0.00261000 0.03038000
v -0.14041000 0.00262000 0.00000000
v -0.14041000 0.00262000 0.03038000
v -0.14149000 0.00284000 0.03038000
v -0.14149000 0.00284000 0.00000000
v -0.14258000 0.00262000 0.03038000
v -0.14258000 0.00262000 0.00000000
v -0.14258000 0.00262000 0.00000000
v -0.14258000 0.00262000 0.03038000
v -0.14350000 0.00201000 0.03038000
v -0.14350000 0.00201000 0.00000000
v -0.14411000 0.00109000 0.03038000
v -0.14411000 0.00109000 0.00000000
v -0.14433000 0.00001000 0.03038000
v -0.14432000 0.00001000 0.00000000
v -0.14411000 -0.00108000 0.03038000
v -0.14411000 -0.00108000 0.00000000
v -0.14350000 -0.00200000 0.03038000
v -0.14350000 -0.00200000 0.00000000
v -0.14258000 -0.00261000 0.03038000
v -0.14258000 -0.00261000 0.00000000
v -0.14258000 -0.00261000 0.00000000
v -0.14258000 -0.00261000 0.03038000
v -0.14149000 -0.00283000 0.03038000
v -0.14149000 -0.00283000 0.00000000
v -0.14041000 -0.00261000 0.03038000
v -0.14041000 -0.00261000 0.00000000
v 0.14266000 0.00201000 0.00000000
v 0.14175000 0.00262000 0.03038000
v 0.14175000 0.00262000 0.00000000
v 0.14266000 0.00201000 0.03038000
v 0.14328000 0.00109000 0.00000000
v 0.14328000 0.00109000 0.03038000
v 0.14349000 0.00000000 0.00000000
v 0.14349000 0.00000000 0.03038000
v 0.14328000 -0.00108000 0.00000000
v 0.14328000 -0.00108000 0.03038000
v 0.14266000 -0.00200000 0.00000000
v 0.14266000 -0.00200000 0.03038000
v 0.14175000 -0.00261000 0.00000000
v 0.14175000 -0.00261000 0.03038000
v 0.14175000 0.00262000 0.00000000
v 0.14175000 0.00262000 0.03038000
v 0.14066000 0.00284000 0.03038000
v 0.14066000 0.00284000 0.00000000
v 0.13958000 0.00262000 0.03038000
v 0.13958000 0.00262000 0.00000000
v 0.13958000 0.00262000 0.00000000
v 0.13958000 0.00262000 0.03038000
v 0.13866000 0.00201000 0.03038000
v 0.13866000 0.00201000 0.00000000
v 0.13805000 0.00109000 0.03038000
v 0.13805000 0.00109000 0.00000000
v 0.13783000 0.00000000 0.03038000
v 0.13783000 0.00000000 0.00000000
v 0.13805000 -0.00108000 0.03038000
v 0.13805000 -0.00108000 0.00000000
v 0.13866000 -0.00200000 0.03038000
v 0.13866000 -0.00200000 0.00000000
v 0.13958000 -0.00261000 0.03038000
v 0.13958000 -0.00261000 0.00000000
v 0.13958000 -0.00261000 0.00000000
v 0.13958000 -0.00261000 0.03038000
v 0.14066000 -0.00283000 0.03038000
v 0.14066000 -0.00283000 0.00000000
v 0.14175000 -0.00261000 0.03038000
v 0.14175000 -0.00261000 0.00000000
v -0.15156000 0.00184000 0.02934000
v 0.15157000 0.00184000 0.02934000
v 0.15157000 0.00339000 0.03038000
v -0.15156000 0.00339000 0.03038000
v 0.15157000 0.00443000 0.03193000
v -0.15156000 0.00443000 0.03193000
v 0.15157000 0.00479000 0.03377000
v -0.15156000 0.00479000 0.03377000
v 0.15157000 0.00443000 0.03560000
v -0.15156000 0.00443000 0.03560000
v 0.15157000 0.00339000 0.03715000
v -0.15156000 0.00339000 0.03715000
v 0.15157000 0.00184000 0.03819000
v -0.15156000 0.00184000 0.03819000
v -0.15156000 0.00184000 0.03819000
v 0.15157000 0.00184000 0.03819000
v 0.15157000 0.00000000 0.03855000
v -0.15156000 0.00001000 0.03855000
v 0.15157000 -0.00183000 0.03819000
v -0.15156000 -0.00183000 0.03819000
v -0.15156000 -0.00183000 0.03819000
v 0.15157000 -0.00183000 0.03819000
v 0.15157000 -0.00338000 0.03715000
v -0.15156000 -0.00338000 0.03715000
v 0.15157000 -0.00442000 0.03560000
v -0.15156000 -0.00442000 0.03560000
v 0.15157000 -0.00478000 0.03377000
v -0.15156000 -0.00478000 0.03377000
v 0.15157000 -0.00442000 0.03193000
v -0.15156000 -0.00442000 0.03193000
v 0.15157000 -0.00338000 0.03038000
v -0.15156000 -0.00338000 0.03038000
v 0.15157000 -0.00183000 0.02934000
v -0.15156000 -0.00183000 0.02934000
v -0.15156000 -0.00183000 0.02934000
v 0.15157000 -0.00183000 0.02934000
v 0.15157000 0.00000000 0.02898000
v -0.15156000 0.00001000 0.02898000
v 0.15157000 0.00184000 0.02934000
v -0.15156000 0.00184000 0.02934000
v -0.14041000 0.00262000 0.00000000
v -0.14149000 0.00284000 0.00000000
v -0.14149000 0.00000000 0.00000000
v -0.13949000 0.00201000 0.00000000
v -0.14258000 0.00262000 0.00000000
v -0.13888000 0.00109000 0.00000000
v -0.14350000 0.00201000 0.00000000
v -0.13866000 0.00000000 0.00000000
v -0.14411000 0.00109000 0.00000000
v -0.13888000 -0.00108000 0.00000000
v -0.14432000 0.00001000 0.00000000
v -0.13949000 -0.00200000 0.00000000
v -0.14411000 -0.00108000 0.00000000
v -0.14041000 -0.00261000 0.00000000
v -0.14350000 -0.00200000 0.00000000
v -0.14149000 -0.00283000 0.00000000
v -0.14258000 -0.00261000 0.00000000
v 0.14175000 0.00262000 0.00000000
v 0.14066000 0.00284000 0.00000000
v 0.14066000 0.00000000 0.00000000
v 0.14266000 0.00201000 0.00000000
v 0.13958000 0.00262000 0.00000000
v 0.14328000 0.00109000 0.00000000
v 0.13866000 0.00201000 0.00000000
v 0.14349000 0.00000000 0.00000000
v 0.13805000 0.00109000 0.00000000
v 0.14328000 -0.00108000 0.00000000
v 0.13783000 0.00000000 0.00000000
v 0.14266000 -0.00200000 0.00000000
v 0.13805000 -0.00108000 0.00000000
v 0.14175000 -0.00261000 0.00000000
v 0.13866000 -0.00200000 0.00000000
v 0.14066000 -0.00283000 0.00000000
v 0.13958000 -0.00261000 0.00000000
v -0.15249000 0.00354000 0.03230000
v -0.15249000 0.00383000 0.03377000
v -0.15249000 0.00000000 0.03377000
v -0.15249000 0.00271000 0.03106000
v -0.15249000 0.00354000 0.03523000
v -0.15249000 0.00147000 0.03023000
v -0.15249000 0.00271000 0.03647000
v -0.15249000 0.00000000 0.02994000
v -0.15249000 0.00147000 0.03730000
v -0.15249000 -0.00146000 0.03023000
v -0.15249000 0.00001000 0.03760000
v -0.15249000 -0.00270000 0.03106000
v -0.15249000 -0.00146000 0.03730000
v -0.15249000 -0.00353000 0.03230000
v -0.15249000 -0.00270000 0.03647000
v -0.15249000 -0.00382000 0.03377000
v -0.15249000 -0.00353000 0.03523000
v 0.15250000 0.00000000 0.03377000
v 0.15250000 0.00383000 0.03377000
v 0.15250000 0.00354000 0.03230000
v 0.15250000 0.00271000 0.03106000
v 0.15250000 0.00354000 0.03523000
v 0.15250000 0.00147000 0.03023000
v 0.15250000 0.00271000 0.03647000
v 0.15250000 0.00000000 0.02994000
v 0.15250000 0.00147000 0.03730000
v 0.15250000 -0.00146000 0.03023000
v 0.15250000 0.00000000 0.03760000
v 0.15250000 -0.00270000 0.03106000
v 0.15250000 -0.00146000 0.03730000
v 0.15250000 -0.00353000 0.03230000
v 0.15250000 -0.00270000 0.03647000
v 0.15250000 -0.00382000 0.03377000
v 0.15250000 -0.00353000 0.03523000
v -0.15249000 0.00147000 0.03023000
v -0.15249000 0.00000000 0.02994000
v -0.15156000 0.00001000 0.02898000
v -0.15156000 0.00184000 0.02934000
v -0.15156000 -0.00183000 0.02934000
v -0.15249000 0.00271000 0.03106000
v -0.15249000 -0.00146000 0.03023000
v -0.15156000 0.00339000 0.03038000
v -0.15156000 -0.00338000 0.03038000
v -0.15249000 0.00354000 0.03230000
v -0.15249000 -0.00270000 0.03106000
v -0.15156000 0.00443000 0.03193000
v -0.15156000 -0.00442000 0.03193000
v -0.15249000 0.00383000 0.03377000
v -0.15249000 -0.00353000 0.03230000
v -0.15156000 0.00479000 0.03377000
v -0.15156000 -0.00478000 0.03377000
v -0.15249000 0.00354000 0.03523000
v -0.15249000 -0.00382000 0.03377000
v -0.15156000 0.00443000 0.03560000
v -0.15156000 -0.00442000 0.03560000
v -0.15249000 0.00271000 0.03647000
v -0.15249000 -0.00353000 0.03523000
v -0.15156000 0.00339000 0.03715000
v -0.15156000 -0.00338000 0.03715000
v -0.15249000 0.00147000 0.03730000
v -0.15249000 -0.00270000 0.03647000
v -0.15156000 0.00184000 0.03819000
v -0.15156000 -0.00183000 0.03819000
v -0.15249000 0.00001000 0.03760000
v -0.15249000 -0.00146000 0.03730000
v -0.15156000 0.00001000 0.03855000
v 0.15250000 0.00147000 0.03023000
v 0.15250000 0.00271000 0.03106000
v 0.15157000 0.00339000 0.03038000
v 0.15157000 0.00184000 0.02934000
v 0.15157000 0.00443000 0.03193000
v 0.15250000 0.00000000 0.02994000
v 0.15250000 0.00354000 0.03230000
v 0.15157000 0.00000000 0.02898000
v 0.15157000 0.00479000 0.03377000
v 0.15250000 -0.00146000 0.03023000
v 0.15250000 0.00383000 0.03377000
v 0.15157000 -0.00183000 0.02934000
v 0.15157000 0.00443000 0.03560000
v 0.15250000 -0.00270000 0.03106000
v 0.15250000 0.00354000 0.03523000
v 0.15157000 -0.00338000 0.03038000
v 0.15157000 0.00339000 0.03715000
v 0.15250000 -0.00353000 0.03230000
v 0.15250000 0.00271000 0.03647000
v 0.15157000 -0.00442000 0.03193000
v 0.15157000 0.00184000 0.03819000
v 0.15250000 -0.00382000 0.03377000
v 0.15250000 0.00147000 0.03730000
v 0.15157000 -0.00478000 0.03377000
v 0.15157000 0.00000000 0.03855000
v 0.15250000 -0.00353000 0.03523000
v 0.15250000 0.00000000 0.03760000
v 0.15157000 -0.00442000 0.03560000
v 0.15157000 -0.00183000 0.03819000
v 0.15250000 -0.00270000 0.03647000
v 0.15250000 -0.00146000 0.03730000
v 0.15157000 -0.00338000 0.03715000
vn 0.70710720 0.70710640 0.00000000
vn 0.38268370 0.92387940 0.00000000
vn 0.38268370 0.92387940 0.00000000
vn 0.70710720 0.70710640 0.00000000
vn 0.92387980 0.38268280 0.00000000
vn 0.92387980 0.38268280 0.00000000
vn 1.00000000 -0.00000072 0.00000000
vn 1.00000000 -0.00000072 0.00000000
vn 0.92387940 -0.38268390 0.00000000
vn 0.92387940 -0.38268390 0.00000000
vn 0.70710690 -0.70710660 0.00000000
vn 0.70710690 -0.70710660 0.00000000
vn 0.38268370 -0.92387940 0.00000000
vn 0.38268370 -0.92387940 0.00000000
vn 0.38268370 0.92387940 0.00000000
vn 0.38268370 0.92387940 0.00000000
vn 0.00000053 1.00000000 0.00000000
vn 0.00000053 1.00000000 0.00000000
vn -0.38268300 0.92387970 0.00000000
vn -0.38268300 0.92387970 0.00000000
vn -0.38268300 0.92387970 0.00000000
vn -0.38268300 0.92387970 0.00000000
vn -0.70710610 0.70710740 0.00000000
vn -0.70710610 0.70710740 0.00000000
vn -0.92387940 0.38268390 0.00000000
vn -0.92387940 0.38268390 0.00000000
vn -1.00000000 0.00000000 0.00000000
vn -1.00000000 0.00000000 0.00000000
vn -0.92387970 -0.38268310 0.00000000
vn -0.92387970 -0.38268310 0.00000000
vn -0.70710720 -0.70710640 0.00000000
vn -0.70710720 -0.70710640 0.00000000
vn -0.38268340 -0.92387950 0.00000000
vn -0.38268340 -0.92387950 0.00000000
vn -0.38268340 -0.92387950 0.00000000
vn -0.38268340 -0.92387950 0.00000000
vn 0.00000000 -1.00000000 0.00000000
vn 0.00000000 -1.00000000 0.00000000
vn 0.38268370 -0.92387940 0.00000000
vn 0.38268370 -0.92387940 0.00000000
vn 0.70710610 0.70710740 0.00000000
vn 0.38268290 0.92387970 0.00000000
vn 0.38268290 0.92387970 0.00000000
vn 0.70710610 0.70710740 0.00000000
vn 0.92387930 0.38268400 0.00000000
vn 0.92387930 0.38268400 0.00000000
vn 1.00000000 0.00000000 0.00000000
vn 1.00000000 0.00000000 0.00000000
vn 0.92387940 -0.38268380 0.00000000
vn 0.92387940 -0.38268380 0.00000000
vn 0.70710590 -0.70710770 0.00000000
vn 0.70710590 -0.70710770 0.00000000
vn 0.38268240 -0.92388000 0.00000000
vn 0.38268240 -0.92388000 0.00000000
vn 0.38268290 0.92387970 0.00000000
vn 0.38268290 0.92387970 0.00000000
vn 0.00000054 1.00000000 0.00000000
vn 0.00000054 1.00000000 0.00000000
vn -0.38268610 0.92387840 0.00000000
vn -0.38268610 0.92387840 0.00000000
vn -0.38268610 0.92387840 0.00000000
vn -0.38268610 0.92387840 0.00000000
vn -0.70710000 0.70711360 0.00000000
vn -0.70710000 0.70711360 0.00000000
vn -0.92387940 0.38268390 0.00000000
vn -0.92387940 0.38268390 0.00000000
vn -1.00000000 0.00000000 0.00000000
vn -1.00000000 0.00000000 0.00000000
vn -0.92388350 -0.38267380 0.00000000
vn -0.92388350 -0.38267380 0.00000000
vn -0.70710610 -0.70710740 0.00000000
vn -0.70710610 -0.70710740 0.00000000
vn -0.38268260 -0.92387990 0.00000000
vn -0.38268260 -0.92387990 0.00000000
vn -0.38268260 -0.92387990 0.00000000
vn -0.38268260 -0.92387990 0.00000000
vn 0.00000000 -1.00000000 0.00000000
vn 0.00000000 -1.00000000 0.00000000
vn 0.38268240 -0.92388000 0.00000000
vn 0.38268240 -0.92388000 0.00000000
vn 0.00000000 0.38268240 -0.92388000
vn 0.00000000 0.38268240 -0.92388000
vn 0.00000000 0.70710660 -0.70710690
vn 0.00000000 0.70710660 -0.70710690
vn 0.00000000 0.92387950 -0.38268340
vn 0.00000000 0.92387950 -0.38268340
vn 0.00000000 1.00000000 -0.00000070
vn 0.00000000 1.00000000 -0.00000070
vn 0.00000000 0.92387980 0.38268290
vn 0.00000000 0.92387980 0.38268290
vn 0.00000000 0.70710680 0.70710660
vn 0.00000000 0.70710680 0.70710660
vn 0.00000000 0.38268230 0.92388000
vn 0.00000000 0.38268230 0.92388000
vn 0.00000000 0.38268230 0.92388000
vn 0.00000000 0.38268230 0.92388000
vn 0.00000000 0.00000000 1.00000000
vn 0.00000000 0.00000000 1.00000000
vn 0.00000000 -0.38268210 0.92388000
vn 0.00000000 -0.38268210 0.92388000
vn 0.00000000 -0.38268210 0.92388000
vn 0.00000000 -0.38268210 0.92388000
vn 0.00000000 -0.70710660 0.70710690
vn 0.00000000 -0.70710660 0.70710690
vn 0.00000000 -0.92387950 0.38268330
vn 0.00000000 -0.92387950 0.38268330
vn 0.00000000 -1.00000000 0.00000016
vn 0.00000000 -1.00000000 0.00000016
vn 0.00000000 -0.92387950 -0.38268330
vn 0.00000000 -0.92387950 -0.38268330
vn 0.00000000 -0.70710690 -0.70710660
vn 0.00000000 -0.70710690 -0.70710660
vn 0.00000000 -0.38268230 -0.92388000
vn 0.00000000 -0.38268230 -0.92388000
vn 0.00000000 -0.38268230 -0.92388000
vn 0.00000000 -0.38268230 -0.92388000
vn 0.00000000 0.00000000 -1.00000000
vn 0.00000000 0.00000000 -1.00000000
vn 0.00000000 0.38268240 -0.92388000
vn 0.00000000 0.38268240 -0.92388000
vn -0.00000121 0.00000000 -1.00000000
vn 0.00000012 0.00000000 -1.00000000
vn 0.00000015 0.00000000 -1.00000000
vn -0.00000061 0.00000000 -1.00000000
vn 0.00000146 0.00000000 -1.00000000
vn 0.00000000 0.00000000 -1.00000000
vn 0.00000073 0.00000000 -1.00000000
vn -0.00000049 0.00000000 -1.00000000
vn 0.00000000 0.00000000 -1.00000000
vn -0.00000097 0.00000000 -1.00000000
vn 0.00000049 0.00000000 -1.00000000
vn 0.00000000 0.00000000 -1.00000000
vn 0.00000097 0.00000000 -1.00000000
vn 0.00000097 0.00000000 -1.00000000
vn 0.00000049 0.00000000 -1.00000000
vn 0.00000049 0.00000000 -1.00000000
vn 0.00000000 0.00000000 -1.00000000
vn -0.00000121 0.00000000 -1.00000000
vn 0.00000012 0.00000000 -1.00000000
vn 0.00000015 0.00000000 -1.00000000
vn -0.00000061 0.00000000 -1.00000000
vn 0.00000146 0.00000000 -1.00000000
vn 0.00000000 0.00000000 -1.00000000
vn 0.00000073 0.00000000 -1.00000000
vn -0.00000049 0.00000000 -1.00000000
vn 0.00000000 0.00000000 -1.00000000
vn -0.00000097 0.00000000 -1.00000000
vn 0.00000049 0.00000000 -1.00000000
vn 0.00000000 0.00000000 -1.00000000
vn 0.00000097 0.00000000 -1.00000000
vn 0.00000097 0.00000000 -1.00000000
vn 0.00000049 0.00000000 -1.00000000
vn 0.00000049 0.00000000 -1.00000000
vn 0.00000000 0.00000000 -1.00000000
vn -1.00000000 0.00000000 0.00000000
vn -1.00000000 0.00000000 0.00000000
vn -1.00000000 0.00000000 0.00000000
vn -1.00000000 0.00000000 0.00000000
vn -1.00000000 0.00000000 0.00000000
vn -1.00000000 0.00000000 0.00000000
vn -1.00000000 0.00000000 0.00000000
vn -1.00000000 0.00000000 0.00000000
vn -1.00000000 0.00000000 0.00000000
vn -1.00000000 0.00000000 0.00000000
vn -1.00000000 0.00000000 0.00000000
vn -1.00000000 0.00000000 0.00000000
vn -1.00000000 0.00000000 0.00000000
vn -1.00000000 0.00000000 0.00000000
vn -1.00000000 0.00000000 0.00000000
vn -1.00000000 0.00000000 0.00000000
vn -1.00000000 0.00000000 0.00000000
vn 1.00000000 0.00000000 0.00000000
vn 1.00000000 0.00000425 0.00000000
vn 1.00000000 0.00000850 0.00000000
vn 1.00000000 0.00000425 0.00000000
vn 1.00000000 0.00000000 0.00000000
vn 1.00000000 0.00000000 0.00000000
vn 1.00000000 0.00000000 0.00000000
vn 1.00000000 0.00000000 0.00000000
vn 1.00000000 0.00000000 0.00000000
vn 1.00000000 0.00000000 0.00000000
vn 1.00000000 0.00000000 0.00000000
vn 1.00000000 0.00000000 0.00000000
vn 1.00000000 0.00000000 0.00000000
vn 1.00000000 0.00000000 0.00000000
vn 1.00000000 -0.00000425 0.00000000
vn 1.00000000 -0.00000425 0.00000000
vn 1.00000000 -0.00000850 0.00000000
vn -0.71393210 0.26795970 -0.64691470
vn -0.71393210 0.00000000 -0.70021500
vn -0.71393210 0.00000000 -0.70021500
vn -0.71393200 0.26795970 -0.64691470
vn -0.71393220 -0.26795960 -0.64691470
vn -0.71393190 0.49512650 -0.49512730
vn -0.71393210 -0.26795960 -0.64691470
vn -0.71393190 0.49512680 -0.49512700
vn -0.71393200 -0.49512690 -0.49512680
vn -0.71393210 0.64691420 -0.26796070
vn -0.71393200 -0.49512660 -0.49512710
vn -0.71393210 0.64691440 -0.26796030
vn -0.71393210 -0.64691440 -0.26796030
vn -0.71393240 0.70021470 -0.00000056
vn -0.71393210 -0.64691420 -0.26796070
vn -0.71393240 0.70021460 -0.00000046
vn -0.71393240 -0.70021460 0.00000015
vn -0.71393220 0.64691440 0.26796020
vn -0.71393240 -0.70021460 0.00000018
vn -0.71393220 0.64691450 0.26795990
vn -0.71393200 -0.64691450 0.26796030
vn -0.71393190 0.49512660 0.49512720
vn -0.71393200 -0.64691430 0.26796070
vn -0.71393190 0.49512690 0.49512690
vn -0.71393190 -0.49512680 0.49512690
vn -0.71393200 0.26795970 0.64691470
vn -0.71393190 -0.49512650 0.49512720
vn -0.71393200 0.26795970 0.64691470
vn -0.71393220 -0.26795950 0.64691470
vn -0.71393220 0.00000000 0.70021480
vn -0.71393220 -0.26795950 0.64691470
vn -0.71393210 0.00000000 0.70021490
vn 0.71392970 0.26796130 -0.64691660
vn 0.71392970 0.49512790 -0.49512900
vn 0.71392970 0.49512820 -0.49512870
vn 0.71392970 0.26796130 -0.64691660
vn 0.71392980 0.64691650 -0.26796110
vn 0.71392990 0.00000000 -0.70021710
vn 0.71392980 0.64691640 -0.26796160
vn 0.71392990 0.00000000 -0.70021710
vn 0.71392910 0.70021800 -0.00000045
vn 0.71392970 -0.26796130 -0.64691660
vn 0.71392910 0.70021800 -0.00000054
vn 0.71392970 -0.26796130 -0.64691660
vn 0.71392980 0.64691660 0.26796070
vn 0.71392970 -0.49512820 -0.49512870
vn 0.71392980 0.64691650 0.26796110
vn 0.71392970 -0.49512840 -0.49512850
vn 0.71392970 0.49512840 0.49512860
vn 0.71392980 -0.64691640 -0.26796150
vn 0.71392970 0.49512810 0.49512880
vn 0.71392980 -0.64691650 -0.26796110
vn 0.71392950 0.26796130 0.64691670
vn 0.71392910 -0.70021800 0.00000000
vn 0.71392950 0.26796130 0.64691690
vn 0.71392910 -0.70021800 0.00000000
vn 0.71392980 0.00000000 0.70021730
vn 0.71392970 -0.64691640 0.26796150
vn 0.71392980 0.00000000 0.70021730
vn 0.71392980 -0.64691660 0.26796110
vn 0.71392970 -0.26796110 0.64691670
vn 0.71392970 -0.49512790 0.49512900
vn 0.71392970 -0.26796110 0.64691670
vn 0.71392970 -0.49512820 0.49512870
vt -10.03768000 0.82112100
vt -9.97090000 0.81977250
vt -10.03768000 0.81977250
vt -9.97090000 0.82112100
vt -10.03768000 0.82313990
vt -9.97090000 0.82313990
vt -10.03768000 0.82552220
vt -9.97090000 0.82552220
vt -10.03768000 0.82790450
vt -9.97090000 0.82790450
vt -10.03768000 0.82992340
vt -9.97090000 0.82992340
vt -10.03768000 0.83127190
vt -9.97090000 0.83127190
vt -9.97433600 0.80485700
vt -10.03424000 0.80485700
vt -10.03424000 0.80699420
vt -9.97433600 0.80699420
vt -10.03424000 0.80913040
vt -9.97433600 0.80913040
vt -9.97090000 0.78170850
vt -10.03768000 0.78170850
vt -10.03768000 0.78305890
vt -9.97090000 0.78305890
vt -10.03768000 0.78507780
vt -9.97090000 0.78507780
vt -10.03768000 0.78745910
vt -9.97090000 0.78745910
vt -10.03768000 0.78984140
vt -9.97090000 0.78984140
vt -10.03768000 0.79186030
vt -9.97090000 0.79186030
vt -10.03768000 0.79320980
vt -9.97090000 0.79320980
vt -10.03424000 0.77106830
vt -9.97433600 0.77106830
vt -9.97433600 0.76893120
vt -10.03424000 0.76893120
vt -9.97433600 0.76679400
vt -10.03424000 0.76679400
vt -10.03768000 0.74499580
vt -9.97090000 0.74364730
vt -10.03768000 0.74364730
vt -9.97090000 0.74499580
vt -10.03768000 0.74701480
vt -9.97090000 0.74701480
vt -10.03768000 0.74939700
vt -9.97090000 0.74939700
vt -10.03768000 0.75177930
vt -9.97090000 0.75177930
vt -10.03768000 0.75379820
vt -9.97090000 0.75379820
vt -10.03768000 0.75514670
vt -9.97090000 0.75514670
vt -9.97433700 0.72873090
vt -10.03424000 0.72873090
vt -10.03424000 0.73086810
vt -9.97433700 0.73086810
vt -10.03424000 0.73300530
vt -9.97433700 0.73300530
vt -9.97090000 0.70558330
vt -10.03768000 0.70558330
vt -10.03768000 0.70693280
vt -9.97090000 0.70693280
vt -10.03768000 0.70895170
vt -9.97090000 0.70895170
vt -10.03768000 0.71133400
vt -9.97090000 0.71133400
vt -10.03768000 0.71371630
vt -9.97090000 0.71371630
vt -10.03768000 0.71573420
vt -9.97090000 0.71573420
vt -10.03768000 0.71708370
vt -9.97090000 0.71708370
vt -10.03424000 0.69494220
vt -9.97433600 0.69494220
vt -9.97433600 0.69280600
vt -10.03424000 0.69280600
vt -9.97433600 0.69066880
vt -10.03424000 0.69066880
vt -9.22298900 0.91879250
vt -9.88938800 0.91879250
vt -9.88938800 0.92107460
vt -9.22298900 0.92107460
vt -9.88938800 0.92448780
vt -9.22298900 0.92448780
vt -9.88938800 0.92851610
vt -9.22298900 0.92851610
vt -9.88938800 0.93254260
vt -9.22298900 0.93254260
vt -9.88938800 0.93595770
vt -9.22298900 0.93595770
vt -9.88938800 0.93823890
vt -9.22298900 0.93823890
vt -9.25728400 0.89698480
vt -9.85509200 0.89698480
vt -9.85509200 0.90059730
vt -9.25728400 0.90059730
vt -9.85509200 0.90420990
vt -9.25728400 0.90420990
vt -9.22299000 0.86423560
vt -9.88938600 0.86423560
vt -9.88938600 0.86651780
vt -9.22299000 0.86651780
vt -9.88938600 0.86993190
vt -9.22299000 0.86993190
vt -9.88938600 0.87395930
vt -9.22299000 0.87395930
vt -9.88938600 0.87798670
vt -9.22299000 0.87798670
vt -9.88938600 0.88140080
vt -9.22299000 0.88140080
vt -9.88938600 0.88368300
vt -9.22299000 0.88368300
vt -9.25729900 0.84260820
vt -9.85507700 0.84260820
vt -9.85507700 0.84622170
vt -9.25729900 0.84622170
vt -9.85507700 0.84983420
vt -9.25729900 0.84983420
vt -10.05000000 0.59432100
vt -10.05042000 0.59643720
vt -10.04489000 0.59643720
vt -10.04880000 0.59252720
vt -10.05000000 0.59855340
vt -10.04701000 0.59132840
vt -10.04880000 0.60034730
vt -10.04489000 0.59090780
vt -10.04701000 0.60154600
vt -10.04278000 0.59132840
vt -10.04489000 0.60196660
vt -10.04098000 0.59252720
vt -10.04278000 0.60154600
vt -10.03978000 0.59432100
vt -10.04098000 0.60034730
vt -10.03936000 0.59643720
vt -10.03978000 0.59855340
vt -10.05000000 0.56894560
vt -10.05042000 0.57106180
vt -10.04489000 0.57106180
vt -10.04880000 0.56715180
vt -10.05000000 0.57317810
vt -10.04701000 0.56595300
vt -10.04880000 0.57497190
vt -10.04489000 0.56553240
vt -10.04701000 0.57617070
vt -10.04278000 0.56595300
vt -10.04489000 0.57659130
vt -10.04098000 0.56715180
vt -10.04278000 0.57617070
vt -10.03978000 0.56894560
vt -10.04098000 0.57497190
vt -10.03936000 0.57106180
vt -10.03978000 0.57317810
vt -10.03540000 0.65872650
vt -10.03847000 0.65811710
vt -10.03847000 0.66613550
vt -10.03280000 0.66046500
vt -10.04153000 0.65872650
vt -10.03106000 0.66306660
vt -10.04414000 0.66046500
vt -10.03045000 0.66613550
vt -10.04587000 0.66306660
vt -10.03106000 0.66920350
vt -10.04648000 0.66613550
vt -10.03280000 0.67180510
vt -10.04587000 0.66920350
vt -10.03540000 0.67354370
vt -10.04414000 0.67180510
vt -10.03847000 0.67415310
vt -10.04153000 0.67354370
vt -10.03847000 0.62807350
vt -10.03045000 0.62807350
vt -10.03106000 0.62500450
vt -10.03279000 0.62240290
vt -10.03106000 0.63114140
vt -10.03540000 0.62066530
vt -10.03279000 0.63374300
vt -10.03847000 0.62005400
vt -10.03540000 0.63548060
vt -10.04153000 0.62066530
vt -10.03847000 0.63609100
vt -10.04414000 0.62240290
vt -10.04153000 0.63548060
vt -10.04587000 0.62500450
vt -10.04414000 0.63374300
vt -10.04648000 0.62807350
vt -10.04587000 0.63114140
vt -10.03106000 0.66306660
vt -10.03045000 0.66613550
vt -10.02844000 0.66613550
vt -10.02921000 0.66229990
vt -10.02921000 0.66997120
vt -10.03280000 0.66046500
vt -10.03106000 0.66920350
vt -10.03138000 0.65904880
vt -10.03138000 0.67322230
vt -10.03540000 0.65872650
vt -10.03280000 0.67180510
vt -10.03463000 0.65687540
vt -10.03463000 0.67539480
vt -10.03847000 0.65811710
vt -10.03540000 0.67354370
vt -10.03847000 0.65611240
vt -10.03847000 0.67615870
vt -10.04153000 0.65872650
vt -10.03847000 0.67415310
vt -10.04230000 0.65687540
vt -10.04230000 0.67539480
vt -10.04414000 0.66046500
vt -10.04153000 0.67354370
vt -10.04555000 0.65904880
vt -10.04555000 0.67322230
vt -10.04587000 0.66306660
vt -10.04414000 0.67180510
vt -10.04773000 0.66229990
vt -10.04773000 0.66997120
vt -10.04648000 0.66613550
vt -10.04587000 0.66920350
vt -10.04849000 0.66613550
vt -10.03540000 0.62066530
vt -10.03279000 0.62240290
vt -10.03138000 0.62098570
vt -10.03463000 0.61881330
vt -10.02921000 0.62423680
vt -10.03847000 0.62005400
vt -10.03106000 0.62500450
vt -10.03847000 0.61805030
vt -10.02844000 0.62807350
vt -10.04153000 0.62066530
vt -10.03045000 0.62807350
vt -10.04230000 0.61881330
vt -10.02921000 0.63190820
vt -10.04414000 0.62240290
vt -10.03106000 0.63114140
vt -10.04555000 0.62098570
vt -10.03138000 0.63516120
vt -10.04587000 0.62500450
vt -10.03279000 0.63374300
vt -10.04773000 0.62423680
vt -10.03463000 0.63733270
vt -10.04648000 0.62807350
vt -10.03540000 0.63548060
vt -10.04849000 0.62807350
vt -10.03847000 0.63809660
vt -10.04587000 0.63114140
vt -10.03847000 0.63609100
vt -10.04773000 0.63190820
vt -10.04230000 0.63733270
vt -10.04414000 0.63374300
vt -10.04153000 0.63548060
vt -10.04555000 0.63516120
f 3/3/3 2/2/2 1/1/1
f 2/2/2 4/4/4 1/1/1
f 1/1/1 4/4/4 5/5/5
f 4/4/4 6/6/6 5/5/5
f 5/5/5 6/6/6 7/7/7
f 6/6/6 8/8/8 7/7/7
f 7/7/7 8/8/8 9/9/9
f 8/8/8 10/10/10 9/9/9
f 9/9/9 10/10/10 11/11/11
f 10/10/10 12/12/12 11/11/11
f 11/11/11 12/12/12 13/13/13
f 12/12/12 14/14/14 13/13/13
f 17/17/17 16/16/16 15/15/15
f 18/18/18 17/17/17 15/15/15
f 19/19/19 17/17/17 18/18/18
f 20/20/20 19/19/19 18/18/18
f 23/23/23 22/22/22 21/21/21
f 24/24/24 23/23/23 21/21/21
f 25/25/25 23/23/23 24/24/24
f 26/26/26 25/25/25 24/24/24
f 27/27/27 25/25/25 26/26/26
f 28/28/28 27/27/27 26/26/26
f 29/29/29 27/27/27 28/28/28
f 30/30/30 29/29/29 28/28/28
f 31/31/31 29/29/29 30/30/30
f 32/32/32 31/31/31 30/30/30
f 33/33/33 31/31/31 32/32/32
f 34/34/34 33/33/33 32/32/32
f 37/37/37 36/36/36 35/35/35
f 38/38/38 37/37/37 35/35/35
f 39/39/39 37/37/37 38/38/38
f 40/40/40 39/39/39 38/38/38
f 43/43/43 42/42/42 41/41/41
f 42/42/42 44/44/44 41/41/41
f 41/41/41 44/44/44 45/45/45
f 44/44/44 46/46/46 45/45/45
f 45/45/45 46/46/46 47/47/47
f 46/46/46 48/48/48 47/47/47
f 47/47/47 48/48/48 49/49/49
f 48/48/48 50/50/50 49/49/49
f 49/49/49 50/50/50 51/51/51
f 50/50/50 52/52/52 51/51/51
f 51/51/51 52/52/52 53/53/53
f 52/52/52 54/54/54 53/53/53
f 57/57/57 56/56/56 55/55/55
f 58/58/58 57/57/57 55/55/55
f 59/59/59 57/57/57 58/58/58
f 60/60/60 59/59/59 58/58/58
f 63/63/63 62/62/62 61/61/61
f 64/64/64 63/63/63 61/61/61
f 65/65/65 63/63/63 64/64/64
f 66/66/66 65/65/65 64/64/64
f 67/67/67 65/65/65 66/66/66
f 68/68/68 67/67/67 66/66/66
f 69/69/69 67/67/67 68/68/68
f 70/70/70 69/69/69 68/68/68
f 71/71/71 69/69/69 70/70/70
f 72/72/72 71/71/71 70/70/70
f 73/73/73 71/71/71 72/72/72
f 74/74/74 73/73/73 72/72/72
f 77/77/77 76/76/76 75/75/75
f 78/78/78 77/77/77 75/75/75
f 79/79/79 77/77/77 78/78/78
f 80/80/80 79/79/79 78/78/78
f 83/83/83 82/82/82 81/81/81
f 84/84/84 83/83/83 81/81/81
f 85/85/85 83/83/83 84/84/84
f 86/86/86 85/85/85 84/84/84
f 87/87/87 85/85/85 86/86/86
f 88/88/88 87/87/87 86/86/86
f 89/89/89 87/87/87 88/88/88
f 90/90/90 89/89/89 88/88/88
f 91/91/91 89/89/89 90/90/90
f 92/92/92 91/91/91 90/90/90
f 93/93/93 91/91/91 92/92/92
f 94/94/94 93/93/93 92/92/92
f 97/97/97 96/96/96 95/95/95
f 98/98/98 97/97/97 95/95/95
f 99/99/99 97/97/97 98/98/98
f 100/100/100 99/99/99 98/98/98
f 103/103/103 102/102/102 101/101/101
f 104/104/104 103/103/103 101/101/101
f 105/105/105 103/103/103 104/104/104
f 106/106/106 105/105/105 104/104/104
f 107/107/107 105/105/105 106/106/106
f 108/108/108 107/107/107 106/106/106
f 109/109/109 107/107/107 108/108/108
f 110/110/110 109/109/109 108/108/108
f 111/111/111 109/109/109 110/110/110
f 112/112/112 111/111/111 110/110/110
f 113/113/113 111/111/111 112/112/112
f 114/114/114 113/113/113 112/112/112
f 117/117/117 116/116/116 115/115/115
f 118/118/118 117/117/117 115/115/115
f 119/119/119 117/117/117 118/118/118
f 120/120/120 119/119/119 118/118/118
f 123/123/123 122/122/122 121/121/121
f 124/124/124 123/123/123 121/121/121
f 122/122/122 123/123/123 125/125/125
f 123/123/123 124/124/124 126/126/126
f 123/123/123 127/127/127 125/125/125
f 128/128/128 123/123/123 126/126/126
f 127/127/127 123/123/123 129/129/129
f 123/123/123 128/128/128 130/130/130
f 123/123/123 131/131/131 129/129/129
f 132/132/132 123/123/123 130/130/130
f 131/131/131 123/123/123 133/133/133
f 123/123/123 132/132/132 134/134/134
f 123/123/123 135/135/135 133/133/133
f 136/136/136 123/123/123 134/134/134
f 135/135/135 123/123/123 137/137/137
f 123/123/123 136/136/136 137/137/137
f 140/140/140 139/139/139 138/138/138
f 141/141/141 140/140/140 138/138/138
f 139/139/139 140/140/140 142/142/142
f 140/140/140 141/141/141 143/143/143
f 140/140/140 144/144/144 142/142/142
f 145/145/145 140/140/140 143/143/143
f 144/144/144 140/140/140 146/146/146
f 140/140/140 145/145/145 147/147/147
f 140/140/140 148/148/148 146/146/146
f 149/149/149 140/140/140 147/147/147
f 148/148/148 140/140/140 150/150/150
f 140/140/140 149/149/149 151/151/151
f 140/140/140 152/152/152 150/150/150
f 153/153/153 140/140/140 151/151/151
f 152/152/152 140/140/140 154/154/154
f 140/140/140 153/153/153 154/154/154
f 157/157/157 156/156/156 155/155/155
f 158/158/158 157/157/157 155/155/155
f 156/156/156 157/157/157 159/159/159
f 157/157/157 158/158/158 160/160/160
f 157/157/157 161/161/161 159/159/159
f 162/162/162 157/157/157 160/160/160
f 161/161/161 157/157/157 163/163/163
f 157/157/157 162/162/162 164/164/164
f 157/157/157 165/165/165 163/163/163
f 166/166/166 157/157/157 164/164/164
f 165/165/165 157/157/157 167/167/167
f 157/157/157 166/166/166 168/168/168
f 157/157/157 169/169/169 167/167/167
f 170/170/170 157/157/157 168/168/168
f 169/169/169 157/157/157 171/171/171
f 157/157/157 170/170/170 171/171/171
f 174/174/174 173/173/173 172/172/172
f 175/175/175 174/174/174 172/172/172
f 173/173/173 176/176/176 172/172/172
f 177/177/177 175/175/175 172/172/172
f 176/176/176 178/178/178 172/172/172
f 179/179/179 177/177/177 172/172/172
f 178/178/178 180/180/180 172/172/172
f 181/181/181 179/179/179 172/172/172
f 180/180/180 182/182/182 172/172/172
f 183/183/183 181/181/181 172/172/172
f 182/182/182 184/184/184 172/172/172
f 185/185/185 183/183/183 172/172/172
f 184/184/184 186/186/186 172/172/172
f 187/187/187 185/185/185 172/172/172
f 186/186/186 188/188/188 172/172/172
f 188/188/188 187/187/187 172/172/172
f 191/191/191 190/190/190 189/189/189
f 192/192/192 191/191/191 189/189/189
f 190/190/190 191/191/191 193/193/193
f 189/189/189 194/194/194 192/192/192
f 195/195/195 190/190/190 193/193/193
f 194/194/194 196/196/196 192/192/192
f 195/195/195 193/193/193 197/197/197
f 194/194/194 198/198/198 196/196/196
f 199/199/199 195/195/195 197/197/197
f 198/198/198 200/200/200 196/196/196
f 199/199/199 197/197/197 201/201/201
f 198/198/198 202/202/202 200/200/200
f 203/203/203 199/199/199 201/201/201
f 202/202/202 204/204/204 200/200/200
f 203/203/203 201/201/201 205/205/205
f 202/202/202 206/206/206 204/204/204
f 207/207/207 203/203/203 205/205/205
f 206/206/206 208/208/208 204/204/204
f 207/207/207 205/205/205 209/209/209
f 206/206/206 210/210/210 208/208/208
f 211/211/211 207/207/207 209/209/209
f 210/210/210 212/212/212 208/208/208
f 211/211/211 209/209/209 213/213/213
f 210/210/210 214/214/214 212/212/212
f 215/215/215 211/211/211 213/213/213
f 214/214/214 216/216/216 212/212/212
f 215/215/215 213/213/213 217/217/217
f 214/214/214 218/218/218 216/216/216
f 219/219/219 215/215/215 217/217/217
f 218/218/218 220/220/220 216/216/216
f 219/219/219 217/217/217 220/220/220
f 218/218/218 219/219/219 220/220/220
f 223/223/223 222/222/222 221/221/221
f 224/224/224 223/223/223 221/221/221
f 223/223/223 225/225/225 222/222/222
f 221/221/221 226/226/226 224/224/224
f 225/225/225 227/227/227 222/222/222
f 226/226/226 228/228/228 224/224/224
f 225/225/225 229/229/229 227/227/227
f 228/228/228 226/226/226 230/230/230
f 229/229/229 231/231/231 227/227/227
f 232/232/232 228/228/228 230/230/230
f 229/229/229 233/233/233 231/231/231
f 232/232/232 230/230/230 234/234/234
f 233/233/233 235/235/235 231/231/231
f 236/236/236 232/232/232 234/234/234
f 233/233/233 237/237/237 235/235/235
f 236/236/236 234/234/234 238/238/238
f 237/237/237 239/239/239 235/235/235
f 240/240/240 236/236/236 238/238/238
f 237/237/237 241/241/241 239/239/239
f 240/240/240 238/238/238 242/242/242
f 241/241/241 243/243/243 239/239/239
f 244/244/244 240/240/240 242/242/242
f 241/241/241 245/245/245 243/243/243
f 244/244/244 242/242/242 246/246/246
f 245/245/245 247/247/247 243/243/243
f 248/248/248 244/244/244 246/246/246
f 245/245/245 249/249/249 247/247/247
f 248/248/248 246/246/246 250/250/250
f 249/249/249 251/251/251 247/247/247
f 252/252/252 248/248/248 250/250/250
f 252/252/252 250/250/250 251/251/251
f 249/249/249 252/252/252 251/251/251

