mtllib material.mtl
usemtl material_0
v -0.55039000 -0.00064000 0.16991000
v -0.55039000 -0.00012000 0.17370000
v -0.54710000 -0.00012000 0.16991000
v -0.55039000 0.65452000 0.17393000
v -0.55039000 0.65504000 0.17014000
v -0.54710000 0.65452000 0.17014000
v -0.55039000 -0.00063000 0.12686000
v -0.54710000 -0.00010000 0.12686000
v -0.55039000 -0.00010000 0.12307000
v -0.55039000 0.65505000 0.12709000
v -0.55039000 0.65453000 0.12330000
v -0.54710000 0.65453000 0.12709000
v -0.59245000 -0.00064000 0.16991000
v -0.59573000 -0.00012000 0.16991000
v -0.59245000 -0.00012000 0.17370000
v -0.59245000 0.65504000 0.17014000
v -0.59245000 0.65452000 0.17393000
v -0.59573000 0.65452000 0.17014000
v -0.59245000 -0.00063000 0.12686000
v -0.59245000 -0.00010000 0.12307000
v -0.59573000 -0.00010000 0.12686000
v -0.59245000 0.65505000 0.12709000
v -0.59573000 0.65453000 0.12709000
v -0.59245000 0.65453000 0.12330000
v -0.55039000 -0.00053000 -0.14848000
v -0.55039000 -0.00001000 -0.14469000
v -0.54710000 -0.00001000 -0.14848000
v -0.55039000 0.65463000 -0.14446000
v -0.55039000 0.65515000 -0.14825000
v -0.54710000 0.65463000 -0.14825000
v -0.55039000 -0.00052000 -0.19153000
v -0.54710000 0.00000000 -0.19153000
v -0.55039000 0.00001000 -0.19532000
v -0.55039000 0.65516000 -0.19130000
v -0.55039000 0.65464000 -0.19509000
v -0.54710000 0.65464000 -0.19130000
v -0.59245000 -0.00053000 -0.14848000
v -0.59573000 -0.00001000 -0.14848000
v -0.59245000 -0.00001000 -0.14469000
v -0.59245000 0.65515000 -0.14825000
v -0.59245000 0.65463000 -0.14446000
v -0.59573000 0.65463000 -0.14825000
v -0.59245000 -0.00052000 -0.19153000
v -0.59245000 0.00001000 -0.19532000
v -0.59573000 0.00000000 -0.19153000
v -0.59245000 0.65516000 -0.19130000
v -0.59573000 0.65464000 -0.19130000
v -0.59245000 0.65464000 -0.19509000
v 0.55021000 -0.00064000 0.16991000
v 0.54692000 -0.00012000 0.16991000
v 0.55021000 -0.00012000 0.17370000
v 0.55021000 0.65452000 0.17393000
v 0.54692000 0.65452000 0.17014000
v 0.55021000 0.65504000 0.17014000
v 0.55021000 -0.00063000 0.12686000
v 0.55021000 -0.00010000 0.12307000
v 0.54692000 -0.00010000 0.12686000
v 0.55021000 0.65505000 0.12709000
v 0.54692000 0.65453000 0.12709000
v 0.55021000 0.65453000 0.12330000
v 0.59227000 -0.00064000 0.16991000
v 0.59227000 -0.00012000 0.17370000
v 0.59556000 -0.00012000 0.16991000
v 0.59227000 0.65504000 0.17014000
v 0.59556000 0.65452000 0.17014000
v 0.59227000 0.65452000 0.17393000
v 0.59227000 -0.00063000 0.12686000
v 0.59556000 -0.00010000 0.12686000
v 0.59227000 -0.00010000 0.12307000
v 0.59227000 0.65505000 0.12709000
v 0.59227000 0.65453000 0.12330000
v 0.59556000 0.65453000 0.12709000
v 0.55021000 -0.00053000 -0.14848000
v 0.54692000 -0.00001000 -0.14848000
v 0.55021000 -0.00001000 -0.14469000
v 0.55021000 0.65463000 -0.14446000
v 0.54692000 0.65463000 -0.14825000
v 0.55021000 0.65515000 -0.14825000
v 0.55021000 -0.00052000 -0.19153000
v 0.55021000 0.00001000 -0.19532000
v 0.54692000 0.00000000 -0.19153000
v 0.55021000 0.65516000 -0.19130000
v 0.54692000 0.65464000 -0.19130000
v 0.55021000 0.65464000 -0.19509000
v 0.59227000 -0.00053000 -0.14848000
v 0.59227000 -0.00001000 -0.14469000
v 0.59556000 -0.00001000 -0.14848000
v 0.59227000 0.65515000 -0.14825000
v 0.59556000 0.65463000 -0.14825000
v 0.59227000 0.65463000 -0.14446000
v 0.59227000 -0.00052000 -0.19153000
v 0.59556000 0.00000000 -0.19153000
v 0.59227000 0.00001000 -0.19532000
v 0.59227000 0.65516000 -0.19130000
v 0.59227000 0.65464000 -0.19509000
v 0.59556000 0.65464000 -0.19130000
v -0.54710000 -0.00012000 0.16991000
v -0.54710000 0.65452000 0.17014000
v -0.54710000 0.65453000 0.12709000
v -0.54710000 -0.00010000 0.12686000
v -0.59245000 -0.00012000 0.17370000
v -0.59245000 0.65452000 0.17393000
v -0.55039000 0.65452000 0.17393000
v -0.55039000 -0.00012000 0.17370000
v -0.59573000 -0.00010000 0.12686000
v -0.59573000 0.65453000 0.12709000
v -0.59573000 0.65452000 0.17014000
v -0.59573000 -0.00012000 0.16991000
v -0.55039000 -0.00063000 0.12686000
v -0.59245000 -0.00063000 0.12686000
v -0.59245000 -0.00064000 0.16991000
v -0.55039000 -0.00064000 0.16991000
v -0.59245000 0.65505000 0.12709000
v -0.55039000 0.65505000 0.12709000
v -0.55039000 0.65504000 0.17014000
v -0.59245000 0.65504000 0.17014000
v -0.55039000 -0.00010000 0.12307000
v -0.55039000 0.65453000 0.12330000
v -0.59245000 0.65453000 0.12330000
v -0.59245000 -0.00010000 0.12307000
v -0.54710000 -0.00010000 0.12686000
v -0.55039000 -0.00063000 0.12686000
v -0.55039000 -0.00064000 0.16991000
v -0.54710000 -0.00012000 0.16991000
v -0.54710000 -0.00012000 0.16991000
v -0.55039000 -0.00012000 0.17370000
v -0.55039000 0.65452000 0.17393000
v -0.54710000 0.65452000 0.17014000
v -0.54710000 0.65452000 0.17014000
v -0.55039000 0.65504000 0.17014000
v -0.55039000 0.65505000 0.12709000
v -0.54710000 0.65453000 0.12709000
v -0.54710000 0.65453000 0.12709000
v -0.55039000 0.65453000 0.12330000
v -0.55039000 -0.00010000 0.12307000
v -0.54710000 -0.00010000 0.12686000
v -0.59245000 -0.00010000 0.12307000
v -0.59245000 -0.00063000 0.12686000
v -0.55039000 -0.00063000 0.12686000
v -0.55039000 -0.00010000 0.12307000
v -0.55039000 0.65453000 0.12330000
v -0.55039000 0.65505000 0.12709000
v -0.59245000 0.65505000 0.12709000
v -0.59245000 0.65453000 0.12330000
v -0.59245000 0.65453000 0.12330000
v -0.59573000 0.65453000 0.12709000
v -0.59573000 -0.00010000 0.12686000
v -0.59245000 -0.00010000 0.12307000
v -0.59573000 -0.00012000 0.16991000
v -0.59245000 -0.00064000 0.16991000
v -0.59245000 -0.00063000 0.12686000
v -0.59573000 -0.00010000 0.12686000
v -0.59573000 0.65453000 0.12709000
v -0.59245000 0.65505000 0.12709000
v -0.59245000 0.65504000 0.17014000
v -0.59573000 0.65452000 0.17014000
v -0.59573000 0.65452000 0.17014000
v -0.59245000 0.65452000 0.17393000
v -0.59245000 -0.00012000 0.17370000
v -0.59573000 -0.00012000 0.16991000
v -0.55039000 -0.00012000 0.17370000
v -0.55039000 -0.00064000 0.16991000
v -0.59245000 -0.00064000 0.16991000
v -0.59245000 -0.00012000 0.17370000
v -0.59245000 0.65452000 0.17393000
v -0.59245000 0.65504000 0.17014000
v -0.55039000 0.65504000 0.17014000
v -0.55039000 0.65452000 0.17393000
v -0.54710000 -0.00001000 -0.14848000
v -0.54710000 0.65463000 -0.14825000
v -0.54710000 0.65464000 -0.19130000
v -0.54710000 0.00000000 -0.19153000
v -0.59245000 -0.00001000 -0.14469000
v -0.59245000 0.65463000 -0.14446000
v -0.55039000 0.65463000 -0.14446000
v -0.55039000 -0.00001000 -0.14469000
v -0.59573000 0.00000000 -0.19153000
v -0.59573000 0.65464000 -0.19130000
v -0.59573000 0.65463000 -0.14825000
v -0.59573000 -0.00001000 -0.14848000
v -0.55039000 -0.00052000 -0.19153000
v -0.59245000 -0.00052000 -0.19153000
v -0.59245000 -0.00053000 -0.14848000
v -0.55039000 -0.00053000 -0.14848000
v -0.59245000 0.65516000 -0.19130000
v -0.55039000 0.65516000 -0.19130000
v -0.55039000 0.65515000 -0.14825000
v -0.59245000 0.65515000 -0.14825000
v -0.55039000 0.00001000 -0.19532000
v -0.55039000 0.65464000 -0.19509000
v -0.59245000 0.65464000 -0.19509000
v -0.59245000 0.00001000 -0.19532000
v -0.54710000 0.00000000 -0.19153000
v -0.55039000 -0.00052000 -0.19153000
v -0.55039000 -0.00053000 -0.14848000
v -0.54710000 -0.00001000 -0.14848000
v -0.54710000 -0.00001000 -0.14848000
v -0.55039000 -0.00001000 -0.14469000
v -0.55039000 0.65463000 -0.14446000
v -0.54710000 0.65463000 -0.14825000
v -0.54710000 0.65463000 -0.14825000
v -0.55039000 0.65515000 -0.14825000
v -0.55039000 0.65516000 -0.19130000
v -0.54710000 0.65464000 -0.19130000
v -0.54710000 0.65464000 -0.19130000
v -0.55039000 0.65464000 -0.19509000
v -0.55039000 0.00001000 -0.19532000
v -0.54710000 0.00000000 -0.19153000
v -0.59245000 0.00001000 -0.19532000
v -0.59245000 -0.00052000 -0.19153000
v -0.55039000 -0.00052000 -0.19153000
v -0.55039000 0.00001000 -0.19532000
v -0.55039000 0.65464000 -0.19509000
v -0.55039000 0.65516000 -0.19130000
v -0.59245000 0.65516000 -0.19130000
v -0.59245000 0.65464000 -0.19509000
v -0.59245000 0.65464000 -0.19509000
v -0.59573000 0.65464000 -0.19130000
v -0.59573000 0.00000000 -0.19153000
v -0.59245000 0.00001000 -0.19532000
v -0.59573000 -0.00001000 -0.14848000
v -0.59245000 -0.00053000 -0.14848000
v -0.59245000 -0.00052000 -0.19153000
v -0.59573000 0.00000000 -0.19153000
v -0.59573000 0.65464000 -0.19130000
v -0.59245000 0.65516000 -0.19130000
v -0.59245000 0.65515000 -0.14825000
v -0.59573000 0.65463000 -0.14825000
v -0.59573000 0.65463000 -0.14825000
v -0.59245000 0.65463000 -0.14446000
v -0.59245000 -0.00001000 -0.14469000
v -0.59573000 -0.00001000 -0.14848000
v -0.55039000 -0.00001000 -0.14469000
v -0.55039000 -0.00053000 -0.14848000
v -0.59245000 -0.00053000 -0.14848000
v -0.59245000 -0.00001000 -0.14469000
v -0.59245000 0.65463000 -0.14446000
v -0.59245000 0.65515000 -0.14825000
v -0.55039000 0.65515000 -0.14825000
v -0.55039000 0.65463000 -0.14446000
v 0.55021000 -0.00063000 0.12686000
v 0.55021000 -0.00064000 0.16991000
v 0.59227000 -0.00064000 0.16991000
v 0.59227000 -0.00063000 0.12686000
v 0.59227000 -0.00012000 0.17370000
v 0.55021000 -0.00012000 0.17370000
v 0.55021000 0.65452000 0.17393000
v 0.59227000 0.65452000 0.17393000
v 0.59556000 -0.00010000 0.12686000
v 0.59556000 -0.00012000 0.16991000
v 0.59556000 0.65452000 0.17014000
v 0.59556000 0.65453000 0.12709000
v 0.59227000 0.65505000 0.12709000
v 0.59227000 0.65504000 0.17014000
v 0.55021000 0.65504000 0.17014000
v 0.55021000 0.65505000 0.12709000
v 0.54692000 -0.00012000 0.16991000
v 0.54692000 -0.00010000 0.12686000
v 0.54692000 0.65453000 0.12709000
v 0.54692000 0.65452000 0.17014000
v 0.55021000 -0.00010000 0.12307000
v 0.59227000 -0.00010000 0.12307000
v 0.59227000 0.65453000 0.12330000
v 0.55021000 0.65453000 0.12330000
v 0.55021000 -0.00063000 0.12686000
v 0.54692000 -0.00010000 0.12686000
v 0.54692000 -0.00012000 0.16991000
v 0.55021000 -0.00064000 0.16991000
v 0.55021000 -0.00012000 0.17370000
v 0.54692000 -0.00012000 0.16991000
v 0.54692000 0.65452000 0.17014000
v 0.55021000 0.65452000 0.17393000
v 0.55021000 0.65504000 0.17014000
v 0.54692000 0.65452000 0.17014000
v 0.54692000 0.65453000 0.12709000
v 0.55021000 0.65505000 0.12709000
v 0.55021000 0.65453000 0.12330000
v 0.54692000 0.65453000 0.12709000
v 0.54692000 -0.00010000 0.12686000
v 0.55021000 -0.00010000 0.12307000
v 0.59227000 -0.00063000 0.12686000
v 0.59227000 -0.00010000 0.12307000
v 0.55021000 -0.00010000 0.12307000
v 0.55021000 -0.00063000 0.12686000
v 0.55021000 0.65505000 0.12709000
v 0.55021000 0.65453000 0.12330000
v 0.59227000 0.65453000 0.12330000
v 0.59227000 0.65505000 0.12709000
v 0.59556000 0.65453000 0.12709000
v 0.59227000 0.65453000 0.12330000
v 0.59227000 -0.00010000 0.12307000
v 0.59556000 -0.00010000 0.12686000
v 0.59227000 -0.00064000 0.16991000
v 0.59556000 -0.00012000 0.16991000
v 0.59556000 -0.00010000 0.12686000
v 0.59227000 -0.00063000 0.12686000
v 0.59227000 0.65505000 0.12709000
v 0.59556000 0.65453000 0.12709000
v 0.59556000 0.65452000 0.17014000
v 0.59227000 0.65504000 0.17014000
v 0.59227000 0.65452000 0.17393000
v 0.59556000 0.65452000 0.17014000
v 0.59556000 -0.00012000 0.16991000
v 0.59227000 -0.00012000 0.17370000
v 0.55021000 -0.00064000 0.16991000
v 0.55021000 -0.00012000 0.17370000
v 0.59227000 -0.00012000 0.17370000
v 0.59227000 -0.00064000 0.16991000
v 0.59227000 0.65504000 0.17014000
v 0.59227000 0.65452000 0.17393000
v 0.55021000 0.65452000 0.17393000
v 0.55021000 0.65504000 0.17014000
v 0.59227000 -0.00001000 -0.14469000
v 0.55021000 -0.00001000 -0.14469000
v 0.55021000 0.65463000 -0.14446000
v 0.59227000 0.65463000 -0.14446000
v 0.59556000 0.00000000 -0.19153000
v 0.59556000 -0.00001000 -0.14848000
v 0.59556000 0.65463000 -0.14825000
v 0.59556000 0.65464000 -0.19130000
v 0.59227000 0.65516000 -0.19130000
v 0.59227000 0.65515000 -0.14825000
v 0.55021000 0.65515000 -0.14825000
v 0.55021000 0.65516000 -0.19130000
v 0.54692000 -0.00001000 -0.14848000
v 0.54692000 0.00000000 -0.19153000
v 0.54692000 0.65464000 -0.19130000
v 0.54692000 0.65463000 -0.14825000
v 0.55021000 0.00001000 -0.19532000
v 0.59227000 0.00001000 -0.19532000
v 0.59227000 0.65464000 -0.19509000
v 0.55021000 0.65464000 -0.19509000
v 0.55021000 -0.00052000 -0.19153000
v 0.54692000 0.00000000 -0.19153000
v 0.54692000 -0.00001000 -0.14848000
v 0.55021000 -0.00053000 -0.14848000
v 0.55021000 -0.00001000 -0.14469000
v 0.54692000 -0.00001000 -0.14848000
v 0.54692000 0.65463000 -0.14825000
v 0.55021000 0.65463000 -0.14446000
v 0.55021000 0.65515000 -0.14825000
v 0.54692000 0.65463000 -0.14825000
v 0.54692000 0.65464000 -0.19130000
v 0.55021000 0.65516000 -0.19130000
v 0.55021000 0.65464000 -0.19509000
v 0.54692000 0.65464000 -0.19130000
v 0.54692000 0.00000000 -0.19153000
v 0.55021000 0.00001000 -0.19532000
v 0.59227000 -0.00052000 -0.19153000
v 0.59227000 0.00001000 -0.19532000
v 0.55021000 0.00001000 -0.19532000
v 0.55021000 -0.00052000 -0.19153000
v 0.55021000 0.65516000 -0.19130000
v 0.55021000 0.65464000 -0.19509000
v 0.59227000 0.65464000 -0.19509000
v 0.59227000 0.65516000 -0.19130000
v 0.59556000 0.65464000 -0.19130000
v 0.59227000 0.65464000 -0.19509000
v 0.59227000 0.00001000 -0.19532000
v 0.59556000 0.00000000 -0.19153000
v 0.59227000 -0.00053000 -0.14848000
v 0.59556000 -0.00001000 -0.14848000
v 0.59556000 0.00000000 -0.19153000
v 0.59227000 -0.00052000 -0.19153000
v 0.59227000 0.65516000 -0.19130000
v 0.59556000 0.65464000 -0.19130000
v 0.59556000 0.65463000 -0.14825000
v 0.59227000 0.65515000 -0.14825000
v 0.59227000 0.65463000 -0.14446000
v 0.59556000 0.65463000 -0.14825000
v 0.59556000 -0.00001000 -0.14848000
v 0.59227000 -0.00001000 -0.14469000
v 0.55021000 -0.00053000 -0.14848000
v 0.55021000 -0.00001000 -0.14469000
v 0.59227000 -0.00001000 -0.14469000
v 0.59227000 -0.00053000 -0.14848000
v 0.59227000 0.65515000 -0.14825000
v 0.59227000 0.65463000 -0.14446000
v 0.55021000 0.65463000 -0.14446000
v 0.55021000 0.65515000 -0.14825000
v 0.55021000 -0.00052000 -0.19153000
v 0.55021000 -0.00053000 -0.14848000
v 0.59227000 -0.00053000 -0.14848000
v 0.59227000 -0.00052000 -0.19153000
v -0.57027000 0.03305000 0.12281000
v -0.57027000 0.65260000 0.12302000
v -0.57027000 0.65269000 -0.14547000
v -0.57027000 0.03314000 -0.14569000
v -0.57027000 0.03314000 -0.14569000
v -0.57027000 0.65269000 -0.14547000
v -0.59459000 0.65269000 -0.14547000
v -0.59459000 0.03314000 -0.14569000
v -0.59459000 0.03314000 -0.14569000
v -0.59459000 0.65269000 -0.14547000
v -0.59459000 0.65260000 0.12302000
v -0.59459000 0.03305000 0.12281000
v -0.59459000 0.03305000 0.12281000
v -0.59459000 0.65260000 0.12302000
v -0.57027000 0.65260000 0.12302000
v -0.57027000 0.03305000 0.12281000
v -0.57027000 0.03314000 -0.14569000
v -0.59459000 0.03314000 -0.14569000
v -0.59459000 0.03305000 0.12281000
v -0.57027000 0.03305000 0.12281000
v -0.59459000 0.65269000 -0.14547000
v -0.57027000 0.65269000 -0.14547000
v -0.57027000 0.65260000 0.12302000
v -0.59459000 0.65260000 0.12302000
v 0.57115000 0.03305000 0.12281000
v 0.57115000 0.03314000 -0.14569000
v 0.57115000 0.65269000 -0.14547000
v 0.57115000 0.65260000 0.12302000
v 0.57115000 0.03314000 -0.14569000
v 0.59547000 0.03314000 -0.14569000
v 0.59547000 0.65269000 -0.14547000
v 0.57115000 0.65269000 -0.14547000
v 0.59547000 0.03314000 -0.14569000
v 0.59547000 0.03305000 0.12281000
v 0.59547000 0.65260000 0.12302000
v 0.59547000 0.65269000 -0.14547000
v 0.59547000 0.03305000 0.12281000
v 0.57115000 0.03305000 0.12281000
v 0.57115000 0.65260000 0.12302000
v 0.59547000 0.65260000 0.12302000
v 0.57115000 0.03314000 -0.14569000
v 0.57115000 0.03305000 0.12281000
v 0.59547000 0.03305000 0.12281000
v 0.59547000 0.03314000 -0.14569000
v 0.59547000 0.65269000 -0.14547000
v 0.59547000 0.65260000 0.12302000
v 0.57115000 0.65260000 0.12302000
v 0.57115000 0.65269000 -0.14547000
v -0.55187000 0.03315000 -0.16863000
v -0.55187000 0.65270000 -0.16842000
v 0.55170000 0.65270000 -0.16842000
v 0.55170000 0.03315000 -0.16863000
v 0.55170000 0.03315000 -0.16863000
v 0.55170000 0.65270000 -0.16842000
v 0.55170000 0.65271000 -0.19647000
v 0.55170000 0.03316000 -0.19668000
v 0.55170000 0.03316000 -0.19668000
v 0.55170000 0.65271000 -0.19647000
v -0.55187000 0.65271000 -0.19647000
v -0.55187000 0.03316000 -0.19668000
v -0.55187000 0.03316000 -0.19668000
v -0.55187000 0.65271000 -0.19647000
v -0.55187000 0.65270000 -0.16842000
v -0.55187000 0.03315000 -0.16863000
v 0.55170000 0.03315000 -0.16863000
v 0.55170000 0.03316000 -0.19668000
v -0.55187000 0.03316000 -0.19668000
v -0.55187000 0.03315000 -0.16863000
v 0.55170000 0.65271000 -0.19647000
v 0.55170000 0.65270000 -0.16842000
v -0.55187000 0.65270000 -0.16842000
v -0.55187000 0.65271000 -0.19647000
v -0.55187000 0.03304000 0.14383000
v 0.55170000 0.03304000 0.14383000
v 0.55170000 0.65259000 0.14404000
v -0.55187000 0.65259000 0.14404000
v 0.55170000 0.03304000 0.14383000
v 0.55170000 0.03303000 0.17188000
v 0.55170000 0.34281000 0.17199000
v 0.55170000 0.65258000 0.17209000
v 0.55170000 0.65259000 0.14404000
v -0.54187000 0.33281000 0.17198000
v -0.54187000 0.33289000 -0.06897000
v -0.54187000 0.04311000 -0.06907000
v -0.54187000 0.04303000 0.17188000
v -0.55187000 0.65259000 0.14404000
v -0.55187000 0.65258000 0.17209000
v -0.55187000 0.34281000 0.17199000
v -0.55187000 0.03303000 0.17188000
v -0.55187000 0.03304000 0.14383000
v -0.00009000 0.03303000 0.17188000
v 0.55170000 0.03303000 0.17188000
v 0.55170000 0.03304000 0.14383000
v -0.55187000 0.03304000 0.14383000
v -0.55187000 0.03303000 0.17188000
v -0.55187000 0.65259000 0.14404000
v 0.55170000 0.65259000 0.14404000
v 0.55170000 0.65258000 0.17209000
v -0.00009000 0.65258000 0.17209000
v -0.55187000 0.65258000 0.17209000
v 0.54170000 0.04303000 0.17188000
v 0.54170000 0.04311000 -0.06907000
v 0.54170000 0.33289000 -0.06897000
v 0.54170000 0.33281000 0.17198000
v 0.00991000 0.64258000 0.17209000
v 0.00991000 0.64267000 -0.06886000
v 0.00991000 0.35289000 -0.06896000
v 0.00991000 0.35281000 0.17199000
v -0.01009000 0.35281000 0.17199000
v -0.01009000 0.35289000 -0.06896000
v -0.01009000 0.64267000 -0.06886000
v -0.01009000 0.64258000 0.17209000
v -0.01009000 0.04303000 0.17188000
v -0.55187000 0.03303000 0.17188000
v -0.54187000 0.04303000 0.17188000
v -0.00009000 0.03303000 0.17188000
v -0.01009000 0.33281000 0.17198000
v -0.00009000 0.34281000 0.17199000
v 0.00991000 0.04303000 0.17188000
v 0.00991000 0.33281000 0.17198000
v 0.54170000 0.04303000 0.17188000
v 0.55170000 0.03303000 0.17188000
v 0.54170000 0.33281000 0.17198000
v 0.55170000 0.34281000 0.17199000
v 0.54170000 0.35281000 0.17199000
v 0.54170000 0.64258000 0.17209000
v 0.55170000 0.65258000 0.17209000
v 0.00991000 0.64258000 0.17209000
v -0.00009000 0.65258000 0.17209000
v 0.00991000 0.35281000 0.17199000
v -0.01009000 0.64258000 0.17209000
v -0.01009000 0.35281000 0.17199000
v -0.55187000 0.34281000 0.17199000
v -0.54187000 0.35281000 0.17199000
v -0.54187000 0.04303000 0.17188000
v -0.55187000 0.03303000 0.17188000
v -0.55187000 0.34281000 0.17199000
v -0.54187000 0.33281000 0.17198000
v -0.00009000 0.34281000 0.17199000
v -0.01009000 0.33281000 0.17198000
v -0.54187000 0.35281000 0.17199000
v -0.55187000 0.65258000 0.17209000
v -0.54187000 0.64258000 0.17209000
v -0.00009000 0.65258000 0.17209000
v -0.01009000 0.64258000 0.17209000
v -0.01009000 0.35289000 -0.06896000
v -0.54187000 0.35289000 -0.06896000
v -0.54187000 0.64267000 -0.06886000
v -0.01009000 0.64267000 -0.06886000
v -0.01009000 0.04311000 -0.06907000
v -0.54187000 0.04311000 -0.06907000
v -0.54187000 0.33289000 -0.06897000
v -0.01009000 0.33289000 -0.06897000
v 0.54170000 0.04311000 -0.06907000
v 0.00991000 0.04311000 -0.06907000
v 0.00991000 0.33289000 -0.06897000
v 0.54170000 0.33289000 -0.06897000
v 0.54170000 0.35289000 -0.06896000
v 0.00991000 0.35289000 -0.06896000
v 0.00991000 0.64267000 -0.06886000
v 0.54170000 0.64267000 -0.06886000
v 0.00991000 0.04303000 0.17188000
v 0.00991000 0.04311000 -0.06907000
v 0.54170000 0.04311000 -0.06907000
v 0.54170000 0.04303000 0.17188000
v -0.01009000 0.64258000 0.17209000
v -0.01009000 0.64267000 -0.06886000
v -0.54187000 0.64267000 -0.06886000
v -0.54187000 0.64258000 0.17209000
v -0.54187000 0.04303000 0.17188000
v -0.54187000 0.04311000 -0.06907000
v -0.01009000 0.04311000 -0.06907000
v -0.01009000 0.04303000 0.17188000
v 0.54170000 0.35281000 0.17199000
v 0.54170000 0.35289000 -0.06896000
v 0.54170000 0.64267000 -0.06886000
v 0.54170000 0.64258000 0.17209000
v 0.54170000 0.33281000 0.17198000
v 0.54170000 0.33289000 -0.06897000
v 0.00991000 0.33289000 -0.06897000
v 0.00991000 0.33281000 0.17198000
v -0.54187000 0.64258000 0.17209000
v -0.54187000 0.64267000 -0.06886000
v -0.54187000 0.35289000 -0.06896000
v -0.54187000 0.35281000 0.17199000
v -0.01009000 0.33281000 0.17198000
v -0.01009000 0.33289000 -0.06897000
v -0.54187000 0.33289000 -0.06897000
v -0.54187000 0.33281000 0.17198000
v 0.54170000 0.64258000 0.17209000
v 0.54170000 0.64267000 -0.06886000
v 0.00991000 0.64267000 -0.06886000
v 0.00991000 0.64258000 0.17209000
v 0.00991000 0.33281000 0.17198000
v 0.00991000 0.33289000 -0.06897000
v 0.00991000 0.04311000 -0.06907000
v 0.00991000 0.04303000 0.17188000
v -0.54187000 0.35281000 0.17199000
v -0.54187000 0.35289000 -0.06896000
v -0.01009000 0.35289000 -0.06896000
v -0.01009000 0.35281000 0.17199000
v -0.01009000 0.04303000 0.17188000
v -0.01009000 0.04311000 -0.06907000
v -0.01009000 0.33289000 -0.06897000
v -0.01009000 0.33281000 0.17198000
v 0.00991000 0.35281000 0.17199000
v 0.00991000 0.35289000 -0.06896000
v 0.54170000 0.35289000 -0.06896000
v 0.54170000 0.35281000 0.17199000
vn 0.15501970 -0.97877390 0.13405450
vn 0.15501970 -0.97877390 0.13405450
vn 0.15501970 -0.97877390 0.13405450
vn 0.15504580 0.97867290 0.13475950
vn 0.15504580 0.97867290 0.13475950
vn 0.15504580 0.97867290 0.13475950
vn 0.15501030 -0.97868350 -0.13472280
vn 0.15501030 -0.97868350 -0.13472280
vn 0.15501030 -0.97868350 -0.13472280
vn 0.15504540 0.97876700 -0.13407480
vn 0.15504540 0.97876700 -0.13407480
vn 0.15504540 0.97876700 -0.13407480
vn -0.15501970 -0.97877390 0.13405450
vn -0.15501970 -0.97877390 0.13405450
vn -0.15501970 -0.97877390 0.13405450
vn -0.15504580 0.97867290 0.13475950
vn -0.15504580 0.97867290 0.13475950
vn -0.15504580 0.97867290 0.13475950
vn -0.15501030 -0.97868350 -0.13472280
vn -0.15501030 -0.97868350 -0.13472280
vn -0.15501030 -0.97868350 -0.13472280
vn -0.15504540 0.97876700 -0.13407480
vn -0.15504540 0.97876700 -0.13407480
vn -0.15504540 0.97876700 -0.13407480
vn 0.15500190 -0.97877660 0.13405490
vn 0.15500190 -0.97877660 0.13405490
vn 0.15500190 -0.97877660 0.13405490
vn 0.15504580 0.97867290 0.13475950
vn 0.15504580 0.97867290 0.13475950
vn 0.15504580 0.97867290 0.13475950
vn 0.15500190 -0.97868380 -0.13473130
vn 0.15500190 -0.97868380 -0.13473130
vn 0.15500190 -0.97868380 -0.13473130
vn 0.15504580 0.97876590 -0.13408310
vn 0.15504580 0.97876590 -0.13408310
vn 0.15504580 0.97876590 -0.13408310
vn -0.15500190 -0.97877660 0.13405490
vn -0.15500190 -0.97877660 0.13405490
vn -0.15500190 -0.97877660 0.13405490
vn -0.15504580 0.97867290 0.13475950
vn -0.15504580 0.97867290 0.13475950
vn -0.15504580 0.97867290 0.13475950
vn -0.15500190 -0.97868380 -0.13473130
vn -0.15500190 -0.97868380 -0.13473130
vn -0.15500190 -0.97868380 -0.13473130
vn -0.15504580 0.97876590 -0.13408310
vn -0.15504580 0.97876590 -0.13408310
vn -0.15504580 0.97876590 -0.13408310
vn -0.15500910 -0.97877560 0.13405450
vn -0.15500910 -0.97877560 0.13405450
vn -0.15500910 -0.97877560 0.13405450
vn -0.15503520 0.97867430 0.13476170
vn -0.15503520 0.97867430 0.13476170
vn -0.15503520 0.97867430 0.13476170
vn -0.15499940 -0.97868540 -0.13472250
vn -0.15499940 -0.97868540 -0.13472250
vn -0.15499940 -0.97868540 -0.13472250
vn -0.15503440 0.97876850 -0.13407670
vn -0.15503440 0.97876850 -0.13407670
vn -0.15503440 0.97876850 -0.13407670
vn 0.15500910 -0.97877560 0.13405450
vn 0.15500910 -0.97877560 0.13405450
vn 0.15500910 -0.97877560 0.13405450
vn 0.15503530 0.97867490 0.13475720
vn 0.15503530 0.97867490 0.13475720
vn 0.15503530 0.97867490 0.13475720
vn 0.15499940 -0.97868540 -0.13472250
vn 0.15499940 -0.97868540 -0.13472250
vn 0.15499940 -0.97868540 -0.13472250
vn 0.15504340 0.97876770 -0.13407200
vn 0.15504340 0.97876770 -0.13407200
vn 0.15504340 0.97876770 -0.13407200
vn -0.15499060 -0.97877850 0.13405430
vn -0.15499060 -0.97877850 0.13405430
vn -0.15499060 -0.97877850 0.13405430
vn -0.15503450 0.97867450 0.13476110
vn -0.15503450 0.97867450 0.13476110
vn -0.15503450 0.97867450 0.13476110
vn -0.15499060 -0.97868560 -0.13473070
vn -0.15499060 -0.97868560 -0.13473070
vn -0.15499060 -0.97868560 -0.13473070
vn -0.15503450 0.97876740 -0.13408470
vn -0.15503450 0.97876740 -0.13408470
vn -0.15503450 0.97876740 -0.13408470
vn 0.15499060 -0.97877850 0.13405430
vn 0.15499060 -0.97877850 0.13405430
vn 0.15499060 -0.97877850 0.13405430
vn 0.15503460 0.97867510 0.13475660
vn 0.15503460 0.97867510 0.13475660
vn 0.15503460 0.97867510 0.13475660
vn 0.15499060 -0.97868560 -0.13473070
vn 0.15499060 -0.97868560 -0.13473070
vn 0.15499060 -0.97868560 -0.13473070
vn 0.15503460 0.97876790 -0.13408020
vn 0.15503460 0.97876790 -0.13408020
vn 0.15503460 0.97876790 -0.13408020
vn 1.00000000 0.00000000 0.00000000
vn 1.00000000 0.00000000 0.00000000
vn 1.00000000 0.00000000 0.00000000
vn 1.00000000 0.00000000 0.00000000
vn 0.00000018 -0.00034558 1.00000000
vn 0.00000018 -0.00034558 1.00000000
vn 0.00000018 -0.00034558 1.00000000
vn 0.00000018 -0.00034558 1.00000000
vn -1.00000000 0.00000000 0.00000000
vn -1.00000000 0.00000000 0.00000000
vn -1.00000000 0.00000000 0.00000000
vn -1.00000000 0.00000000 0.00000000
vn 0.00000000 -1.00000000 -0.00034558
vn 0.00000000 -1.00000000 -0.00034558
vn 0.00000000 -1.00000000 -0.00034558
vn 0.00000000 -1.00000000 -0.00034558
vn -0.00000026 1.00000000 0.00034558
vn -0.00000026 1.00000000 0.00034558
vn -0.00000026 1.00000000 0.00034558
vn -0.00000026 1.00000000 0.00034558
vn -0.00000018 0.00034558 -1.00000000
vn -0.00000018 0.00034558 -1.00000000
vn -0.00000018 0.00034558 -1.00000000
vn -0.00000018 0.00034558 -1.00000000
vn 0.15643530 -0.98768810 -0.00034132
vn 0.15643530 -0.98768810 -0.00034132
vn 0.15643530 -0.98768810 -0.00034132
vn 0.15643530 -0.98768810 -0.00034132
vn 0.75557420 -0.00022637 0.65506310
vn 0.75557420 -0.00022637 0.65506310
vn 0.75557420 -0.00022637 0.65506310
vn 0.75557420 -0.00022637 0.65506310
vn 0.15646700 0.98768310 0.00034132
vn 0.15646700 0.98768310 0.00034132
vn 0.15646700 0.98768310 0.00034132
vn 0.15646700 0.98768310 0.00034132
vn 0.75559470 0.00022637 -0.65503950
vn 0.75559470 0.00022637 -0.65503950
vn 0.75559470 0.00022637 -0.65503950
vn 0.75559470 0.00022637 -0.65503950
vn 0.00000026 -0.99065780 -0.13637130
vn 0.00000026 -0.99065780 -0.13637130
vn 0.00000026 -0.99065780 -0.13637130
vn 0.00000026 -0.99065780 -0.13637130
vn -0.00000024 0.99074770 -0.13571710
vn -0.00000024 0.99074770 -0.13571710
vn -0.00000024 0.99074770 -0.13571710
vn -0.00000024 0.99074770 -0.13571710
vn -0.75559230 0.00022637 -0.65504220
vn -0.75559230 0.00022637 -0.65504220
vn -0.75559230 0.00022637 -0.65504220
vn -0.75559230 0.00022637 -0.65504220
vn -0.15643530 -0.98768810 -0.00034132
vn -0.15643530 -0.98768810 -0.00034132
vn -0.15643530 -0.98768810 -0.00034132
vn -0.15643530 -0.98768810 -0.00034132
vn -0.15646700 0.98768310 0.00034132
vn -0.15646700 0.98768310 0.00034132
vn -0.15646700 0.98768310 0.00034132
vn -0.15646700 0.98768310 0.00034132
vn -0.75557200 -0.00022637 0.65506560
vn -0.75557200 -0.00022637 0.65506560
vn -0.75557200 -0.00022637 0.65506560
vn -0.75557200 -0.00022637 0.65506560
vn -0.00000026 -0.99075070 0.13569490
vn -0.00000026 -0.99075070 0.13569490
vn -0.00000026 -0.99075070 0.13569490
vn -0.00000026 -0.99075070 0.13569490
vn -0.00000049 0.99065240 0.13641030
vn -0.00000049 0.99065240 0.13641030
vn -0.00000049 0.99065240 0.13641030
vn -0.00000049 0.99065240 0.13641030
vn 1.00000000 0.00000000 0.00000000
vn 1.00000000 0.00000000 0.00000000
vn 1.00000000 0.00000000 0.00000000
vn 1.00000000 0.00000000 0.00000000
vn 0.00000000 -0.00034558 1.00000000
vn 0.00000000 -0.00034558 1.00000000
vn 0.00000000 -0.00034558 1.00000000
vn 0.00000000 -0.00034558 1.00000000
vn -1.00000000 0.00000000 0.00000000
vn -1.00000000 0.00000000 0.00000000
vn -1.00000000 0.00000000 0.00000000
vn -1.00000000 0.00000000 0.00000000
vn 0.00000000 -1.00000000 -0.00034558
vn 0.00000000 -1.00000000 -0.00034558
vn 0.00000000 -1.00000000 -0.00034558
vn 0.00000000 -1.00000000 -0.00034558
vn 0.00000000 1.00000000 0.00034558
vn 0.00000000 1.00000000 0.00034558
vn 0.00000000 1.00000000 0.00034558
vn 0.00000000 1.00000000 0.00034558
vn 0.00000000 0.00034558 -1.00000000
vn 0.00000000 0.00034558 -1.00000000
vn 0.00000000 0.00034558 -1.00000000
vn 0.00000000 0.00034558 -1.00000000
vn 0.15643530 -0.98768810 -0.00034132
vn 0.15643530 -0.98768810 -0.00034132
vn 0.15643530 -0.98768810 -0.00034132
vn 0.15643530 -0.98768810 -0.00034132
vn 0.75557420 -0.00022637 0.65506310
vn 0.75557420 -0.00022637 0.65506310
vn 0.75557420 -0.00022637 0.65506310
vn 0.75557420 -0.00022637 0.65506310
vn 0.15646700 0.98768310 0.00034132
vn 0.15646700 0.98768310 0.00034132
vn 0.15646700 0.98768310 0.00034132
vn 0.15646700 0.98768310 0.00034132
vn 0.75557420 0.00022637 -0.65506310
vn 0.75557420 0.00022637 -0.65506310
vn 0.75557420 0.00022637 -0.65506310
vn 0.75557420 0.00022637 -0.65506310
vn 0.00000000 -0.99065660 -0.13637960
vn 0.00000000 -0.99065660 -0.13637960
vn 0.00000000 -0.99065660 -0.13637960
vn 0.00000000 -0.99065660 -0.13637960
vn 0.00000000 0.99074650 -0.13572550
vn 0.00000000 0.99074650 -0.13572550
vn 0.00000000 0.99074650 -0.13572550
vn 0.00000000 0.99074650 -0.13572550
vn -0.75557200 0.00022637 -0.65506560
vn -0.75557200 0.00022637 -0.65506560
vn -0.75557200 0.00022637 -0.65506560
vn -0.75557200 0.00022637 -0.65506560
vn -0.15643530 -0.98768810 -0.00034132
vn -0.15643530 -0.98768810 -0.00034132
vn -0.15643530 -0.98768810 -0.00034132
vn -0.15643530 -0.98768810 -0.00034132
vn -0.15646700 0.98768310 0.00034132
vn -0.15646700 0.98768310 0.00034132
vn -0.15646700 0.98768310 0.00034132
vn -0.15646700 0.98768310 0.00034132
vn -0.75557200 -0.00022637 0.65506560
vn -0.75557200 -0.00022637 0.65506560
vn -0.75557200 -0.00022637 0.65506560
vn -0.75557200 -0.00022637 0.65506560
vn 0.00000000 -0.99075070 0.13569490
vn 0.00000000 -0.99075070 0.13569490
vn 0.00000000 -0.99075070 0.13569490
vn 0.00000000 -0.99075070 0.13569490
vn 0.00000000 0.99065240 0.13641030
vn 0.00000000 0.99065240 0.13641030
vn 0.00000000 0.99065240 0.13641030
vn 0.00000000 0.99065240 0.13641030
vn 0.00000000 -1.00000000 -0.00034558
vn 0.00000000 -1.00000000 -0.00034558
vn 0.00000000 -1.00000000 -0.00034558
vn 0.00000000 -1.00000000 -0.00034558
vn 0.00000018 -0.00034558 1.00000000
vn 0.00000018 -0.00034558 1.00000000
vn 0.00000018 -0.00034558 1.00000000
vn 0.00000018 -0.00034558 1.00000000
vn 1.00000000 0.00000000 0.00000000
vn 1.00000000 0.00000000 0.00000000
vn 1.00000000 0.00000000 0.00000000
vn 1.00000000 0.00000000 0.00000000
vn -0.00000047 1.00000000 0.00034558
vn -0.00000047 1.00000000 0.00034558
vn -0.00000047 1.00000000 0.00034558
vn -0.00000047 1.00000000 0.00034558
vn -1.00000000 0.00000000 0.00000000
vn -1.00000000 0.00000000 0.00000000
vn -1.00000000 0.00000000 0.00000000
vn -1.00000000 0.00000000 0.00000000
vn -0.00000018 0.00034558 -1.00000000
vn -0.00000018 0.00034558 -1.00000000
vn -0.00000018 0.00034558 -1.00000000
vn -0.00000018 0.00034558 -1.00000000
vn -0.15642420 -0.98769000 -0.00034132
vn -0.15642420 -0.98769000 -0.00034132
vn -0.15642420 -0.98769000 -0.00034132
vn -0.15642420 -0.98769000 -0.00034132
vn -0.75554940 -0.00022638 0.65509150
vn -0.75554940 -0.00022638 0.65509150
vn -0.75554940 -0.00022638 0.65509150
vn -0.75554940 -0.00022638 0.65509150
vn -0.15645590 0.98768480 0.00034132
vn -0.15645590 0.98768480 0.00034132
vn -0.15645590 0.98768480 0.00034132
vn -0.15645590 0.98768480 0.00034132
vn -0.75556980 0.00022638 -0.65506810
vn -0.75556980 0.00022638 -0.65506810
vn -0.75556980 0.00022638 -0.65506810
vn -0.75556980 0.00022638 -0.65506810
vn -0.00000029 -0.99065780 -0.13637120
vn -0.00000029 -0.99065780 -0.13637120
vn -0.00000029 -0.99065780 -0.13637120
vn -0.00000029 -0.99065780 -0.13637120
vn -0.00000051 0.99074760 -0.13571720
vn -0.00000051 0.99074760 -0.13571720
vn -0.00000051 0.99074760 -0.13571720
vn -0.00000051 0.99074760 -0.13571720
vn 0.75556980 0.00022638 -0.65506810
vn 0.75556980 0.00022638 -0.65506810
vn 0.75556980 0.00022638 -0.65506810
vn 0.75556980 0.00022638 -0.65506810
vn 0.15642420 -0.98769000 -0.00034132
vn 0.15642420 -0.98769000 -0.00034132
vn 0.15642420 -0.98769000 -0.00034132
vn 0.15642420 -0.98769000 -0.00034132
vn 0.15645590 0.98768480 0.00034132
vn 0.15645590 0.98768480 0.00034132
vn 0.15645590 0.98768480 0.00034132
vn 0.15645590 0.98768480 0.00034132
vn 0.75554940 -0.00022638 0.65509150
vn 0.75554940 -0.00022638 0.65509150
vn 0.75554940 -0.00022638 0.65509150
vn 0.75554940 -0.00022638 0.65509150
vn 0.00000029 -0.99075070 0.13569490
vn 0.00000029 -0.99075070 0.13569490
vn 0.00000029 -0.99075070 0.13569490
vn 0.00000029 -0.99075070 0.13569490
vn -0.00000021 0.99065240 0.13641040
vn -0.00000021 0.99065240 0.13641040
vn -0.00000021 0.99065240 0.13641040
vn -0.00000021 0.99065240 0.13641040
vn 0.00000000 -0.00034558 1.00000000
vn 0.00000000 -0.00034558 1.00000000
vn 0.00000000 -0.00034558 1.00000000
vn 0.00000000 -0.00034558 1.00000000
vn 1.00000000 0.00000000 0.00000000
vn 1.00000000 0.00000000 0.00000000
vn 1.00000000 0.00000000 0.00000000
vn 1.00000000 0.00000000 0.00000000
vn 0.00000000 1.00000000 0.00034558
vn 0.00000000 1.00000000 0.00034558
vn 0.00000000 1.00000000 0.00034558
vn 0.00000000 1.00000000 0.00034558
vn -1.00000000 0.00000000 0.00000000
vn -1.00000000 0.00000000 0.00000000
vn -1.00000000 0.00000000 0.00000000
vn -1.00000000 0.00000000 0.00000000
vn 0.00000000 0.00034558 -1.00000000
vn 0.00000000 0.00034558 -1.00000000
vn 0.00000000 0.00034558 -1.00000000
vn 0.00000000 0.00034558 -1.00000000
vn -0.15642420 -0.98769000 -0.00034132
vn -0.15642420 -0.98769000 -0.00034132
vn -0.15642420 -0.98769000 -0.00034132
vn -0.15642420 -0.98769000 -0.00034132
vn -0.75554940 -0.00022638 0.65509150
vn -0.75554940 -0.00022638 0.65509150
vn -0.75554940 -0.00022638 0.65509150
vn -0.75554940 -0.00022638 0.65509150
vn -0.15645910 0.98768440 0.00034132
vn -0.15645910 0.98768440 0.00034132
vn -0.15645910 0.98768440 0.00034132
vn -0.15645910 0.98768440 0.00034132
vn -0.75554940 0.00022638 -0.65509150
vn -0.75554940 0.00022638 -0.65509150
vn -0.75554940 0.00022638 -0.65509150
vn -0.75554940 0.00022638 -0.65509150
vn 0.00000000 -0.99065660 -0.13637960
vn 0.00000000 -0.99065660 -0.13637960
vn 0.00000000 -0.99065660 -0.13637960
vn 0.00000000 -0.99065660 -0.13637960
vn 0.00000000 0.99074650 -0.13572560
vn 0.00000000 0.99074650 -0.13572560
vn 0.00000000 0.99074650 -0.13572560
vn 0.00000000 0.99074650 -0.13572560
vn 0.75554940 0.00022638 -0.65509150
vn 0.75554940 0.00022638 -0.65509150
vn 0.75554940 0.00022638 -0.65509150
vn 0.75554940 0.00022638 -0.65509150
vn 0.15642420 -0.98769000 -0.00034132
vn 0.15642420 -0.98769000 -0.00034132
vn 0.15642420 -0.98769000 -0.00034132
vn 0.15642420 -0.98769000 -0.00034132
vn 0.15645910 0.98768440 0.00034132
vn 0.15645910 0.98768440 0.00034132
vn 0.15645910 0.98768440 0.00034132
vn 0.15645910 0.98768440 0.00034132
vn 0.75554940 -0.00022638 0.65509150
vn 0.75554940 -0.00022638 0.65509150
vn 0.75554940 -0.00022638 0.65509150
vn 0.75554940 -0.00022638 0.65509150
vn 0.00000000 -0.99075080 0.13569410
vn 0.00000000 -0.99075080 0.13569410
vn 0.00000000 -0.99075080 0.13569410
vn 0.00000000 -0.99075080 0.13569410
vn 0.00000000 0.99065260 0.13640960
vn 0.00000000 0.99065260 0.13640960
vn 0.00000000 0.99065260 0.13640960
vn 0.00000000 0.99065260 0.13640960
vn 0.00000000 -1.00000000 -0.00034558
vn 0.00000000 -1.00000000 -0.00034558
vn 0.00000000 -1.00000000 -0.00034558
vn 0.00000000 -1.00000000 -0.00034558
vn 1.00000000 0.00000000 0.00000000
vn 1.00000000 0.00000000 0.00000000
vn 1.00000000 0.00000000 0.00000000
vn 1.00000000 0.00000000 0.00000000
vn 0.00000000 0.00034558 -1.00000000
vn 0.00000000 0.00034558 -1.00000000
vn 0.00000000 0.00034558 -1.00000000
vn 0.00000000 0.00034558 -1.00000000
vn -1.00000000 0.00000000 0.00000000
vn -1.00000000 0.00000000 0.00000000
vn -1.00000000 0.00000000 0.00000000
vn -1.00000000 0.00000000 0.00000000
vn 0.00000000 -0.00034558 1.00000000
vn 0.00000000 -0.00034558 1.00000000
vn 0.00000000 -0.00034558 1.00000000
vn 0.00000000 -0.00034558 1.00000000
vn 0.00000000 -1.00000000 -0.00034524
vn 0.00000000 -1.00000000 -0.00034524
vn 0.00000000 -1.00000000 -0.00034524
vn 0.00000000 -1.00000000 -0.00034524
vn -0.00000057 1.00000000 0.00034527
vn -0.00000057 1.00000000 0.00034527
vn -0.00000057 1.00000000 0.00034527
vn -0.00000057 1.00000000 0.00034527
vn -1.00000000 0.00000000 0.00000000
vn -1.00000000 0.00000000 0.00000000
vn -1.00000000 0.00000000 0.00000000
vn -1.00000000 0.00000000 0.00000000
vn 0.00000000 0.00034558 -1.00000000
vn 0.00000000 0.00034558 -1.00000000
vn 0.00000000 0.00034558 -1.00000000
vn 0.00000000 0.00034558 -1.00000000
vn 1.00000000 0.00000000 0.00000000
vn 1.00000000 0.00000000 0.00000000
vn 1.00000000 0.00000000 0.00000000
vn 1.00000000 0.00000000 0.00000000
vn 0.00000000 -0.00034558 1.00000000
vn 0.00000000 -0.00034558 1.00000000
vn 0.00000000 -0.00034558 1.00000000
vn 0.00000000 -0.00034558 1.00000000
vn 0.00000000 -1.00000000 -0.00034524
vn 0.00000000 -1.00000000 -0.00034524
vn 0.00000000 -1.00000000 -0.00034524
vn 0.00000000 -1.00000000 -0.00034524
vn 0.00000000 1.00000000 0.00034524
vn 0.00000000 1.00000000 0.00034524
vn 0.00000000 1.00000000 0.00034524
vn 0.00000000 1.00000000 0.00034524
vn 0.00000000 -0.00034558 1.00000000
vn 0.00000000 -0.00034558 1.00000000
vn 0.00000000 -0.00034558 1.00000000
vn 0.00000000 -0.00034558 1.00000000
vn 1.00000000 0.00000000 0.00000000
vn 1.00000000 0.00000000 0.00000000
vn 1.00000000 0.00000000 0.00000000
vn 1.00000000 0.00000000 0.00000000
vn 0.00000000 0.00034558 -1.00000000
vn 0.00000000 0.00034558 -1.00000000
vn 0.00000000 0.00034558 -1.00000000
vn 0.00000000 0.00034558 -1.00000000
vn -1.00000000 0.00000000 0.00000000
vn -1.00000000 0.00000000 0.00000000
vn -1.00000000 0.00000000 0.00000000
vn -1.00000000 0.00000000 0.00000000
vn 0.00000000 -1.00000000 -0.00034558
vn 0.00000000 -1.00000000 -0.00034558
vn 0.00000000 -1.00000000 -0.00034558
vn 0.00000000 -1.00000000 -0.00034558
vn 0.00000000 1.00000000 0.00034558
vn 0.00000000 1.00000000 0.00034558
vn 0.00000000 1.00000000 0.00034558
vn 0.00000000 1.00000000 0.00034558
vn 0.00000000 0.00034558 -1.00000000
vn 0.00000000 0.00034558 -1.00000000
vn 0.00000000 0.00034558 -1.00000000
vn 0.00000000 0.00034558 -1.00000000
vn 1.00000000 0.00000000 0.00000000
vn 1.00000000 0.00000000 0.00000000
vn 1.00000000 0.00000000 0.00000000
vn 1.00000000 0.00000000 0.00000000
vn 1.00000000 0.00000000 0.00000000
vn 0.30151140 -0.30182390 0.90442980
vn 0.57735030 -0.57754980 0.57715070
vn 0.70710680 0.70710680 0.00024436
vn 0.70710680 0.70710680 0.00024436
vn -1.00000000 0.00000000 0.00000000
vn -1.00000000 0.00000000 0.00000000
vn -1.00000000 0.00000000 0.00000000
vn -1.00000000 0.00000000 0.00000000
vn -1.00000000 0.00000000 0.00000000
vn 0.00000000 -1.00000000 -0.00034558
vn 0.00000000 -1.00000000 -0.00034558
vn 0.00000000 -1.00000000 -0.00034558
vn 0.00000000 -1.00000000 -0.00034558
vn 0.00000000 -1.00000000 -0.00034558
vn 0.00000000 1.00000000 0.00034558
vn 0.00000000 1.00000000 0.00034558
vn 0.00000000 1.00000000 0.00034558
vn 0.00000000 1.00000000 0.00034558
vn 0.00000000 1.00000000 0.00034558
vn -0.70710680 0.70710680 0.00024436
vn -0.70710680 0.70710680 0.00024436
vn -0.57735030 -0.57754980 0.57715070
vn -0.30151130 -0.30182390 0.90442980
vn 0.30151140 -0.30182390 0.90442980
vn 0.57735030 -0.57754980 0.57715070
vn 0.57735030 0.57715070 0.57754980
vn 0.30151130 0.30119870 0.90463820
vn -0.30151130 0.30119870 0.90463820
vn -0.57735030 0.57715070 0.57754980
vn -0.57735030 -0.57754980 0.57715070
vn -0.30151130 -0.30182390 0.90442980
vn -0.30151130 0.30119870 0.90463820
vn 0.00000000 -0.00034558 1.00000000
vn 0.00000000 -0.00034558 1.00000000
vn 0.00000000 -0.00034558 1.00000000
vn -0.30151130 -0.30182390 0.90442980
vn 0.00000000 -0.00034558 1.00000000
vn 0.30151140 0.30119870 0.90463810
vn 0.30151140 -0.30182390 0.90442980
vn 0.00000000 -0.00034558 1.00000000
vn 0.00000000 -0.00034558 1.00000000
vn -0.30151130 -0.30182390 0.90442980
vn 0.00000000 -0.00034558 1.00000000
vn -0.30151130 0.30119870 0.90463820
vn 0.00000000 -0.00034558 1.00000000
vn 0.00000000 -0.00034558 1.00000000
vn 0.30151140 -0.30182390 0.90442980
vn 0.00000000 -0.00034558 1.00000000
vn 0.30151130 0.30119870 0.90463820
vn -0.30151130 -0.30182390 0.90442980
vn -0.30151130 0.30119870 0.90463820
vn 0.00000000 -0.00034558 1.00000000
vn 0.30151140 0.30119870 0.90463810
vn 0.00000000 -0.00034558 1.00000000
vn 0.00000000 -0.00034558 1.00000000
vn 0.00000000 -0.00034558 1.00000000
vn 0.30151140 -0.30182390 0.90442980
vn 0.00000000 -0.00034558 1.00000000
vn -0.30151130 -0.30182390 0.90442980
vn 0.30151140 0.30119870 0.90463810
vn 0.00000000 -0.00034558 1.00000000
vn 0.00000000 -0.00034558 1.00000000
vn 0.00000000 -0.00034558 1.00000000
vn -0.30151130 -0.30182390 0.90442980
vn -0.57735030 0.57715070 0.57754980
vn 0.57735030 0.57715080 0.57754970
vn 0.00000000 -0.00034558 1.00000000
vn -0.57735030 -0.57754980 0.57715070
vn -0.57735030 0.57715070 0.57754980
vn 0.00000000 -0.00034558 1.00000000
vn 0.57735030 -0.57754980 0.57715070
vn -0.57735030 -0.57754980 0.57715070
vn 0.00000000 -0.00034558 1.00000000
vn 0.57735030 0.57715070 0.57754980
vn 0.57735030 -0.57754980 0.57715070
vn -0.57735030 -0.57754980 0.57715070
vn -0.57735030 0.57715060 0.57754990
vn 0.57735030 0.57715070 0.57754980
vn 0.57735030 -0.57754980 0.57715070
vn 0.00000000 -0.00034558 1.00000000
vn 0.30151140 0.30119870 0.90463810
vn 0.57735030 0.57715070 0.57754980
vn -0.70710680 0.70710680 0.00024436
vn -0.70710680 0.70710680 0.00024436
vn -0.30151130 -0.30182390 0.90442980
vn -0.57735030 -0.57754980 0.57715070
vn 0.70710680 -0.70710680 -0.00024436
vn 0.70710680 -0.70710680 -0.00024436
vn 0.70710680 0.70710680 0.00024436
vn 0.70710680 0.70710680 0.00024436
vn -0.57735030 0.57715070 0.57754980
vn -0.30151130 0.30119870 0.90463820
vn -0.30151130 0.30119870 0.90463820
vn -0.57735030 0.57715060 0.57754990
vn -0.70710680 -0.70710680 -0.00024421
vn -0.70710680 -0.70710680 -0.00024421
vn -0.30151130 -0.30182390 0.90442980
vn -0.57735030 -0.57754980 0.57715070
vn 0.57735030 -0.57754980 0.57715070
vn 0.30151140 -0.30182390 0.90442980
vn 0.70710680 -0.70710680 -0.00024436
vn 0.70710680 -0.70710680 -0.00024436
vn 0.57735030 0.57715080 0.57754970
vn 0.30151140 0.30119870 0.90463810
vn -0.30151130 -0.30182390 0.90442980
vn -0.57735030 -0.57754980 0.57715070
vn 0.57735030 -0.57754980 0.57715070
vn 0.30151140 -0.30182390 0.90442980
vn -0.70710680 -0.70710680 -0.00024421
vn -0.70710680 -0.70710680 -0.00024421
vn 0.57735030 -0.57754980 0.57715070
vn 0.30151140 -0.30182390 0.90442980
vn 0.30151140 -0.30182390 0.90442980
vn 0.57735030 -0.57754980 0.57715070
vn 0.57735030 0.57715070 0.57754980
vn 0.30151140 0.30119870 0.90463810
vn 0.30151140 0.30119870 0.90463810
vn 0.57735030 0.57715080 0.57754970
vn -0.57735030 0.57715070 0.57754980
vn -0.30151130 0.30119870 0.90463820
vn -0.30151130 0.30119870 0.90463820
vn -0.57735030 0.57715070 0.57754980
vn -0.57735030 -0.57754980 0.57715070
vn -0.30151130 -0.30182390 0.90442980
vn 0.30151130 0.30119870 0.90463820
vn 0.57735030 0.57715070 0.57754980
vn -0.57735030 0.57715060 0.57754990
vn -0.30151130 0.30119870 0.90463820
vt 0.82622250 0.26900200
vt 0.82622250 0.26710560
vt 0.82786660 0.26900200
vt 0.82622250 0.26710560
vt 0.82622250 0.26900200
vt 0.82786660 0.26900200
vt 0.82622250 0.29052450
vt 0.82786660 0.29052450
vt 0.82622250 0.29242090
vt 0.82622250 0.29052450
vt 0.82622250 0.29242090
vt 0.82786660 0.29052450
vt 0.80519310 0.26900200
vt 0.80354910 0.26900200
vt 0.80519310 0.26710560
vt 0.80519310 0.26900200
vt 0.80519310 0.26710560
vt 0.80354910 0.26900200
vt 0.80519310 0.29052450
vt 0.80519310 0.29242090
vt 0.80354910 0.29052450
vt 0.80519310 0.29052450
vt 0.80354910 0.29052450
vt 0.80519310 0.29242090
vt 0.82622250 0.42819760
vt 0.82622250 0.42630150
vt 0.82786660 0.42819760
vt 0.82622250 0.42630150
vt 0.82622250 0.42819760
vt 0.82786660 0.42819760
vt 0.82622250 0.44972040
vt 0.82786660 0.44972040
vt 0.82622250 0.45161650
vt 0.82622250 0.44972040
vt 0.82622250 0.45161650
vt 0.82786660 0.44972040
vt 0.80519310 0.42819760
vt 0.80354910 0.42819760
vt 0.80519310 0.42630150
vt 0.80519310 0.42819760
vt 0.80519310 0.42630150
vt 0.80354910 0.42819760
vt 0.80519310 0.44972040
vt 0.80519310 0.45161650
vt 0.80354910 0.44972040
vt 0.80519310 0.44972040
vt 0.80354910 0.44972040
vt 0.80519310 0.45161650
vt 0.37652160 0.26900200
vt 0.37487750 0.26900200
vt 0.37652160 0.26710560
vt 0.37652160 0.26710560
vt 0.37487750 0.26900200
vt 0.37652160 0.26900200
vt 0.37652160 0.29052450
vt 0.37652160 0.29242090
vt 0.37487750 0.29052450
vt 0.37652160 0.29052450
vt 0.37487750 0.29052450
vt 0.37652160 0.29242090
vt 0.39755080 0.26900200
vt 0.39755080 0.26710560
vt 0.39919500 0.26900200
vt 0.39755080 0.26900200
vt 0.39919500 0.26900200
vt 0.39755080 0.26710560
vt 0.39755080 0.29052450
vt 0.39919500 0.29052450
vt 0.39755080 0.29242090
vt 0.39755080 0.29052450
vt 0.39755080 0.29242090
vt 0.39919500 0.29052450
vt 0.37652160 0.42819760
vt 0.37487750 0.42819760
vt 0.37652160 0.42630150
vt 0.37652160 0.42630150
vt 0.37487750 0.42819760
vt 0.37652160 0.42819760
vt 0.37652160 0.44972040
vt 0.37652160 0.45161650
vt 0.37487750 0.44972040
vt 0.37652160 0.44972040
vt 0.37487750 0.44972040
vt 0.37652160 0.45161650
vt 0.39755080 0.42819760
vt 0.39755080 0.42630150
vt 0.39919500 0.42819760
vt 0.39755080 0.42819760
vt 0.39919500 0.42819760
vt 0.39755080 0.42630150
vt 0.39755080 0.44972040
vt 0.39919500 0.44972040
vt 0.39755080 0.45161650
vt 0.39755080 0.44972040
vt 0.39755080 0.45161650
vt 0.39919500 0.44972040
vt 0.26900200 0.49591370
vt 0.26900200 0.82323190
vt 0.29052450 0.82323190
vt 0.29052450 0.49591370
vt 0.80519310 0.49591370
vt 0.80519310 0.82323190
vt 0.82622250 0.82323190
vt 0.82622250 0.49591370
vt 0.29052450 0.49591370
vt 0.29052450 0.82323190
vt 0.26900200 0.82323190
vt 0.26900200 0.49591370
vt 0.82622250 0.29052450
vt 0.80519310 0.29052450
vt 0.80519310 0.26900200
vt 0.82622250 0.26900200
vt 0.80519310 0.29052450
vt 0.82622250 0.29052450
vt 0.82622250 0.26900200
vt 0.80519310 0.26900200
vt 0.82622250 0.49591370
vt 0.82622250 0.82323190
vt 0.80519310 0.82323190
vt 0.80519310 0.49591370
vt 0.82786660 0.29052450
vt 0.82622250 0.29052450
vt 0.82622250 0.26900200
vt 0.82786660 0.26900200
vt 0.26900200 0.49591370
vt 0.26710560 0.49591370
vt 0.26710560 0.82323190
vt 0.26900200 0.82323190
vt 0.82786660 0.26900200
vt 0.82622250 0.26900200
vt 0.82622250 0.29052450
vt 0.82786660 0.29052450
vt 0.29052450 0.82323190
vt 0.29242090 0.82323190
vt 0.29242090 0.49591370
vt 0.29052450 0.49591370
vt 0.80519310 0.29242090
vt 0.80519310 0.29052450
vt 0.82622250 0.29052450
vt 0.82622250 0.29242090
vt 0.82622250 0.29242090
vt 0.82622250 0.29052450
vt 0.80519310 0.29052450
vt 0.80519310 0.29242090
vt 0.29242090 0.82323190
vt 0.29052450 0.82323190
vt 0.29052450 0.49591370
vt 0.29242090 0.49591370
vt 0.80354910 0.26900200
vt 0.80519310 0.26900200
vt 0.80519310 0.29052450
vt 0.80354910 0.29052450
vt 0.80354910 0.29052450
vt 0.80519310 0.29052450
vt 0.80519310 0.26900200
vt 0.80354910 0.26900200
vt 0.26900200 0.82323190
vt 0.26710560 0.82323190
vt 0.26710560 0.49591370
vt 0.26900200 0.49591370
vt 0.82622250 0.26710560
vt 0.82622250 0.26900200
vt 0.80519310 0.26900200
vt 0.80519310 0.26710560
vt 0.80519310 0.26710560
vt 0.80519310 0.26900200
vt 0.82622250 0.26900200
vt 0.82622250 0.26710560
vt 0.42819760 0.49591360
vt 0.42819760 0.82323190
vt 0.44972040 0.82323190
vt 0.44972040 0.49591360
vt 0.80519310 0.49591360
vt 0.80519310 0.82323190
vt 0.82622250 0.82323190
vt 0.82622250 0.49591360
vt 0.44972040 0.49591360
vt 0.44972040 0.82323190
vt 0.42819760 0.82323190
vt 0.42819760 0.49591360
vt 0.82622250 0.44972040
vt 0.80519310 0.44972040
vt 0.80519310 0.42819760
vt 0.82622250 0.42819760
vt 0.80519310 0.44972040
vt 0.82622250 0.44972040
vt 0.82622250 0.42819760
vt 0.80519310 0.42819760
vt 0.82622250 0.49591360
vt 0.82622250 0.82323190
vt 0.80519310 0.82323190
vt 0.80519310 0.49591360
vt 0.82786660 0.44972040
vt 0.82622250 0.44972040
vt 0.82622250 0.42819760
vt 0.82786660 0.42819760
vt 0.42819760 0.49591360
vt 0.42630150 0.49591360
vt 0.42630150 0.82323190
vt 0.42819760 0.82323190
vt 0.82786660 0.42819760
vt 0.82622250 0.42819760
vt 0.82622250 0.44972040
vt 0.82786660 0.44972040
vt 0.44972040 0.82323190
vt 0.45161650 0.82323190
vt 0.45161650 0.49591360
vt 0.44972040 0.49591360
vt 0.80519310 0.45161650
vt 0.80519310 0.44972040
vt 0.82622250 0.44972040
vt 0.82622250 0.45161650
vt 0.82622250 0.45161650
vt 0.82622250 0.44972040
vt 0.80519310 0.44972040
vt 0.80519310 0.45161650
vt 0.45161650 0.82323190
vt 0.44972040 0.82323190
vt 0.44972040 0.49591360
vt 0.45161650 0.49591360
vt 0.80354910 0.42819760
vt 0.80519310 0.42819760
vt 0.80519310 0.44972040
vt 0.80354910 0.44972040
vt 0.80354910 0.44972040
vt 0.80519310 0.44972040
vt 0.80519310 0.42819760
vt 0.80354910 0.42819760
vt 0.42819760 0.82323190
vt 0.42630150 0.82323190
vt 0.42630150 0.49591360
vt 0.42819760 0.49591360
vt 0.82622250 0.42630150
vt 0.82622250 0.42819760
vt 0.80519310 0.42819760
vt 0.80519310 0.42630150
vt 0.80519310 0.42630150
vt 0.80519310 0.42819760
vt 0.82622250 0.42819760
vt 0.82622250 0.42630150
vt 0.37652160 0.29052450
vt 0.37652160 0.26900200
vt 0.39755080 0.26900200
vt 0.39755080 0.29052450
vt 0.39755080 0.49591370
vt 0.37652160 0.49591370
vt 0.37652160 0.82323190
vt 0.39755080 0.82323190
vt 0.29052450 0.49591370
vt 0.26900200 0.49591370
vt 0.26900200 0.82323190
vt 0.29052450 0.82323190
vt 0.39755080 0.29052450
vt 0.39755080 0.26900200
vt 0.37652160 0.26900200
vt 0.37652160 0.29052450
vt 0.26900200 0.49591370
vt 0.29052450 0.49591370
vt 0.29052450 0.82323190
vt 0.26900200 0.82323190
vt 0.37652160 0.49591370
vt 0.39755080 0.49591370
vt 0.39755080 0.82323190
vt 0.37652160 0.82323190
vt 0.37652160 0.29052450
vt 0.37487750 0.29052450
vt 0.37487750 0.26900200
vt 0.37652160 0.26900200
vt 0.26710560 0.49591370
vt 0.26900200 0.49591370
vt 0.26900200 0.82323190
vt 0.26710560 0.82323190
vt 0.37652160 0.26900200
vt 0.37487750 0.26900200
vt 0.37487750 0.29052450
vt 0.37652160 0.29052450
vt 0.29242090 0.82323190
vt 0.29052450 0.82323190
vt 0.29052450 0.49591370
vt 0.29242090 0.49591370
vt 0.39755080 0.29052450
vt 0.39755080 0.29242090
vt 0.37652160 0.29242090
vt 0.37652160 0.29052450
vt 0.37652160 0.29052450
vt 0.37652160 0.29242090
vt 0.39755080 0.29242090
vt 0.39755080 0.29052450
vt 0.29052450 0.82323190
vt 0.29242090 0.82323190
vt 0.29242090 0.49591370
vt 0.29052450 0.49591370
vt 0.39755080 0.26900200
vt 0.39919500 0.26900200
vt 0.39919500 0.29052450
vt 0.39755080 0.29052450
vt 0.39755080 0.29052450
vt 0.39919500 0.29052450
vt 0.39919500 0.26900200
vt 0.39755080 0.26900200
vt 0.26710560 0.82323190
vt 0.26900200 0.82323190
vt 0.26900200 0.49591370
vt 0.26710560 0.49591370
vt 0.37652160 0.26900200
vt 0.37652160 0.26710560
vt 0.39755080 0.26710560
vt 0.39755080 0.26900200
vt 0.39755080 0.26900200
vt 0.39755080 0.26710560
vt 0.37652160 0.26710560
vt 0.37652160 0.26900200
vt 0.39755080 0.49591360
vt 0.37652160 0.49591360
vt 0.37652160 0.82323190
vt 0.39755080 0.82323190
vt 0.44972040 0.49591360
vt 0.42819760 0.49591360
vt 0.42819760 0.82323190
vt 0.44972040 0.82323190
vt 0.39755080 0.44972040
vt 0.39755080 0.42819760
vt 0.37652160 0.42819760
vt 0.37652160 0.44972040
vt 0.42819760 0.49591360
vt 0.44972040 0.49591360
vt 0.44972040 0.82323190
vt 0.42819760 0.82323190
vt 0.37652160 0.49591360
vt 0.39755080 0.49591360
vt 0.39755080 0.82323190
vt 0.37652160 0.82323190
vt 0.37652160 0.44972040
vt 0.37487750 0.44972040
vt 0.37487750 0.42819760
vt 0.37652160 0.42819760
vt 0.42630150 0.49591360
vt 0.42819760 0.49591360
vt 0.42819760 0.82323190
vt 0.42630150 0.82323190
vt 0.37652160 0.42819760
vt 0.37487750 0.42819760
vt 0.37487750 0.44972040
vt 0.37652160 0.44972040
vt 0.45161650 0.82323190
vt 0.44972040 0.82323190
vt 0.44972040 0.49591360
vt 0.45161650 0.49591360
vt 0.39755080 0.44972040
vt 0.39755080 0.45161650
vt 0.37652160 0.45161650
vt 0.37652160 0.44972040
vt 0.37652160 0.44972040
vt 0.37652160 0.45161650
vt 0.39755080 0.45161650
vt 0.39755080 0.44972040
vt 0.44972040 0.82323190
vt 0.45161650 0.82323190
vt 0.45161650 0.49591360
vt 0.44972040 0.49591360
vt 0.39755080 0.42819760
vt 0.39919500 0.42819760
vt 0.39919500 0.44972040
vt 0.39755080 0.44972040
vt 0.39755080 0.44972040
vt 0.39919500 0.44972040
vt 0.39919500 0.42819760
vt 0.39755080 0.42819760
vt 0.42630150 0.82323190
vt 0.42819760 0.82323190
vt 0.42819760 0.49591360
vt 0.42630150 0.49591360
vt 0.37652160 0.42819760
vt 0.37652160 0.42630150
vt 0.39755080 0.42630150
vt 0.39755080 0.42819760
vt 0.39755080 0.42819760
vt 0.39755080 0.42630150
vt 0.37652160 0.42630150
vt 0.37652160 0.42819760
vt 0.37652160 0.44972040
vt 0.37652160 0.42819760
vt 0.39755080 0.42819760
vt 0.39755080 0.44972040
vt 0.29255820 0.51248840
vt 0.29255820 0.82226510
vt 0.42680670 0.82226500
vt 0.42680670 0.51248830
vt 0.81628010 0.51248830
vt 0.81628010 0.82226500
vt 0.80411890 0.82226500
vt 0.80411890 0.51248830
vt 0.42680670 0.51248830
vt 0.42680670 0.82226500
vt 0.29255820 0.82226510
vt 0.29255820 0.51248840
vt 0.80411890 0.51248840
vt 0.80411890 0.82226510
vt 0.81628010 0.82226510
vt 0.81628010 0.51248840
vt 0.81628010 0.42680670
vt 0.80411890 0.42680670
vt 0.80411890 0.29255820
vt 0.81628010 0.29255820
vt 0.80411890 0.42680670
vt 0.81628010 0.42680670
vt 0.81628010 0.29255820
vt 0.80411890 0.29255820
vt 0.29255820 0.51248840
vt 0.42680670 0.51248830
vt 0.42680670 0.82226500
vt 0.29255820 0.82226510
vt 0.38699270 0.51248830
vt 0.39915390 0.51248830
vt 0.39915390 0.82226500
vt 0.38699270 0.82226500
vt 0.42680670 0.51248830
vt 0.29255820 0.51248840
vt 0.29255820 0.82226510
vt 0.42680670 0.82226500
vt 0.39915390 0.51248840
vt 0.38699270 0.51248840
vt 0.38699270 0.82226510
vt 0.39915390 0.82226510
vt 0.38699270 0.42680670
vt 0.38699270 0.29255820
vt 0.39915390 0.29255820
vt 0.39915390 0.42680670
vt 0.39915390 0.42680670
vt 0.39915390 0.29255820
vt 0.38699270 0.29255820
vt 0.38699270 0.42680670
vt 0.82547930 0.51248830
vt 0.82547930 0.82226500
vt 1.37726500 0.82226500
vt 1.37726500 0.51248830
vt 0.43827680 0.51248830
vt 0.43827680 0.82226500
vt 0.45230340 0.82226500
vt 0.45230340 0.51248830
vt 0.37726470 0.51248830
vt 0.37726470 0.82226500
vt -0.17452070 0.82226500
vt -0.17452070 0.51248830
vt 0.45230340 0.51248830
vt 0.45230340 0.82226500
vt 0.43827680 0.82226500
vt 0.43827680 0.51248830
vt 0.37726470 0.43827680
vt 0.37726470 0.45230340
vt -0.17452070 0.45230340
vt -0.17452070 0.43827680
vt 0.37726470 0.45230340
vt 0.37726470 0.43827680
vt -0.17452070 0.43827680
vt -0.17452070 0.45230340
vt 0.82547930 0.51248840
vt 1.37726500 0.51248840
vt 1.37726500 0.82226510
vt 0.82547930 0.82226510
vt 0.28204920 0.51248840
vt 0.26802250 0.51248840
vt 0.26802250 0.66737670
vt 0.26802250 0.82226510
vt 0.28204920 0.82226510
vt 0.26802250 0.66237670
vt 0.38849880 0.66237670
vt 0.38849880 0.51748840
vt 0.26802250 0.51748840
vt 0.28204920 0.82226510
vt 0.26802250 0.82226510
vt 0.26802250 0.66737670
vt 0.26802250 0.51248840
vt 0.28204920 0.51248840
vt 0.10137200 0.26802250
vt 0.37726470 0.26802250
vt 0.37726470 0.28204920
vt -0.17452070 0.28204920
vt -0.17452070 0.26802250
vt -0.17452070 0.28204920
vt 0.37726470 0.28204920
vt 0.37726470 0.26802250
vt 0.10137200 0.26802250
vt -0.17452070 0.26802250
vt 0.26802250 0.51748840
vt 0.38849880 0.51748840
vt 0.38849880 0.66237670
vt 0.26802250 0.66237670
vt 0.26802250 0.81726500
vt 0.38849880 0.81726500
vt 0.38849880 0.67237680
vt 0.26802250 0.67237670
vt 0.26802250 0.67237670
vt 0.38849880 0.67237680
vt 0.38849880 0.81726500
vt 0.26802250 0.81726500
vt 0.09637213 0.51748840
vt -0.17452070 0.51248840
vt -0.16952070 0.51748840
vt 0.10137200 0.51248840
vt 0.09637213 0.66237670
vt 0.10137200 0.66737670
vt 0.10637190 0.51748840
vt 0.10637190 0.66237670
vt 0.37226490 0.51748840
vt 0.37726470 0.51248840
vt 0.37226490 0.66237670
vt 0.37726470 0.66737670
vt 0.37226490 0.67237670
vt 0.37226490 0.81726500
vt 0.37726470 0.82226510
vt 0.10637190 0.81726500
vt 0.10137200 0.82226510
vt 0.10637190 0.67237670
vt 0.09637213 0.81726500
vt 0.09637213 0.67237670
vt -0.17452070 0.66737670
vt -0.16952070 0.67237670
vt 0.83047930 0.51748840
vt 0.82547930 0.51248840
vt 0.82547930 0.66737670
vt 0.83047930 0.66237670
vt 1.10137200 0.66737670
vt 1.09637200 0.66237670
vt 0.83047930 0.67237670
vt 0.82547930 0.82226510
vt 0.83047930 0.81726500
vt 1.10137200 0.82226510
vt 1.09637200 0.81726500
vt 0.09637213 0.67237680
vt -0.16952070 0.67237680
vt -0.16952070 0.81726500
vt 0.09637213 0.81726500
vt 0.09637213 0.51748840
vt -0.16952070 0.51748840
vt -0.16952070 0.66237670
vt 0.09637213 0.66237670
vt 0.37226490 0.51748840
vt 0.10637190 0.51748840
vt 0.10637190 0.66237670
vt 0.37226490 0.66237670
vt 0.37226490 0.67237680
vt 0.10637190 0.67237680
vt 0.10637190 0.81726500
vt 0.37226490 0.81726500
vt 0.10637190 0.26802250
vt 0.10637190 0.38849880
vt 0.37226490 0.38849880
vt 0.37226490 0.26802250
vt 0.09637213 0.26802250
vt 0.09637213 0.38849880
vt -0.16952070 0.38849880
vt -0.16952070 0.26802250
vt 0.83047930 0.26802250
vt 0.83047930 0.38849880
vt 1.09637200 0.38849880
vt 1.09637200 0.26802250
vt 0.26802250 0.67237670
vt 0.38849880 0.67237680
vt 0.38849880 0.81726500
vt 0.26802250 0.81726500
vt 0.37226490 0.26802250
vt 0.37226490 0.38849880
vt 0.10637190 0.38849880
vt 0.10637190 0.26802250
vt 0.26802250 0.81726500
vt 0.38849880 0.81726500
vt 0.38849880 0.67237680
vt 0.26802250 0.67237670
vt 0.09637213 0.26802250
vt 0.09637213 0.38849880
vt -0.16952070 0.38849880
vt -0.16952070 0.26802250
vt 0.37226490 0.26802250
vt 0.37226490 0.38849880
vt 0.10637190 0.38849880
vt 0.10637190 0.26802250
vt 0.26802250 0.66237670
vt 0.38849880 0.66237670
vt 0.38849880 0.51748840
vt 0.26802250 0.51748840
vt 0.83047930 0.26802250
vt 0.83047930 0.38849880
vt 1.09637200 0.38849880
vt 1.09637200 0.26802250
vt 0.26802250 0.51748840
vt 0.38849880 0.51748840
vt 0.38849880 0.66237670
vt 0.26802250 0.66237670
vt 0.10637190 0.26802250
vt 0.10637190 0.38849880
vt 0.37226490 0.38849880
vt 0.37226490 0.26802250
f 3/3/3 2/2/2 1/1/1
f 6/6/6 5/5/5 4/4/4
f 9/9/9 8/8/8 7/7/7
f 12/12/12 11/11/11 10/10/10
f 15/15/15 14/14/14 13/13/13
f 18/18/18 17/17/17 16/16/16
f 21/21/21 20/20/20 19/19/19
f 24/24/24 23/23/23 22/22/22
f 27/27/27 26/26/26 25/25/25
f 30/30/30 29/29/29 28/28/28
f 33/33/33 32/32/32 31/31/31
f 36/36/36 35/35/35 34/34/34
f 39/39/39 38/38/38 37/37/37
f 42/42/42 41/41/41 40/40/40
f 45/45/45 44/44/44 43/43/43
f 48/48/48 47/47/47 46/46/46
f 51/51/51 50/50/50 49/49/49
f 54/54/54 53/53/53 52/52/52
f 57/57/57 56/56/56 55/55/55
f 60/60/60 59/59/59 58/58/58
f 63/63/63 62/62/62 61/61/61
f 66/66/66 65/65/65 64/64/64
f 69/69/69 68/68/68 67/67/67
f 72/72/72 71/71/71 70/70/70
f 75/75/75 74/74/74 73/73/73
f 78/78/78 77/77/77 76/76/76
f 81/81/81 80/80/80 79/79/79
f 84/84/84 83/83/83 82/82/82
f 87/87/87 86/86/86 85/85/85
f 90/90/90 89/89/89 88/88/88
f 93/93/93 92/92/92 91/91/91
f 96/96/96 95/95/95 94/94/94
f 99/99/99 98/98/98 97/97/97
f 100/100/100 99/99/99 97/97/97
f 103/103/103 102/102/102 101/101/101
f 104/104/104 103/103/103 101/101/101
f 107/107/107 106/106/106 105/105/105
f 108/108/108 107/107/107 105/105/105
f 111/111/111 110/110/110 109/109/109
f 112/112/112 111/111/111 109/109/109
f 115/115/115 114/114/114 113/113/113
f 116/116/116 115/115/115 113/113/113
f 119/119/119 118/118/118 117/117/117
f 120/120/120 119/119/119 117/117/117
f 123/123/123 122/122/122 121/121/121
f 124/124/124 123/123/123 121/121/121
f 127/127/127 126/126/126 125/125/125
f 128/128/128 127/127/127 125/125/125
f 131/131/131 130/130/130 129/129/129
f 132/132/132 131/131/131 129/129/129
f 135/135/135 134/134/134 133/133/133
f 136/136/136 135/135/135 133/133/133
f 139/139/139 138/138/138 137/137/137
f 140/140/140 139/139/139 137/137/137
f 143/143/143 142/142/142 141/141/141
f 144/144/144 143/143/143 141/141/141
f 147/147/147 146/146/146 145/145/145
f 148/148/148 147/147/147 145/145/145
f 151/151/151 150/150/150 149/149/149
f 152/152/152 151/151/151 149/149/149
f 155/155/155 154/154/154 153/153/153
f 156/156/156 155/155/155 153/153/153
f 159/159/159 158/158/158 157/157/157
f 160/160/160 159/159/159 157/157/157
f 163/163/163 162/162/162 161/161/161
f 164/164/164 163/163/163 161/161/161
f 167/167/167 166/166/166 165/165/165
f 168/168/168 167/167/167 165/165/165
f 171/171/171 170/170/170 169/169/169
f 172/172/172 171/171/171 169/169/169
f 175/175/175 174/174/174 173/173/173
f 176/176/176 175/175/175 173/173/173
f 179/179/179 178/178/178 177/177/177
f 180/180/180 179/179/179 177/177/177
f 183/183/183 182/182/182 181/181/181
f 184/184/184 183/183/183 181/181/181
f 187/187/187 186/186/186 185/185/185
f 188/188/188 187/187/187 185/185/185
f 191/191/191 190/190/190 189/189/189
f 192/192/192 191/191/191 189/189/189
f 195/195/195 194/194/194 193/193/193
f 196/196/196 195/195/195 193/193/193
f 199/199/199 198/198/198 197/197/197
f 200/200/200 199/199/199 197/197/197
f 203/203/203 202/202/202 201/201/201
f 204/204/204 203/203/203 201/201/201
f 207/207/207 206/206/206 205/205/205
f 208/208/208 207/207/207 205/205/205
f 211/211/211 210/210/210 209/209/209
f 212/212/212 211/211/211 209/209/209
f 215/215/215 214/214/214 213/213/213
f 216/216/216 215/215/215 213/213/213
f 219/219/219 218/218/218 217/217/217
f 220/220/220 219/219/219 217/217/217
f 223/223/223 222/222/222 221/221/221
f 224/224/224 223/223/223 221/221/221
f 227/227/227 226/226/226 225/225/225
f 228/228/228 227/227/227 225/225/225
f 231/231/231 230/230/230 229/229/229
f 232/232/232 231/231/231 229/229/229
f 235/235/235 234/234/234 233/233/233
f 236/236/236 235/235/235 233/233/233
f 239/239/239 238/238/238 237/237/237
f 240/240/240 239/239/239 237/237/237
f 243/243/243 242/242/242 241/241/241
f 244/244/244 243/243/243 241/241/241
f 247/247/247 246/246/246 245/245/245
f 248/248/248 247/247/247 245/245/245
f 251/251/251 250/250/250 249/249/249
f 252/252/252 251/251/251 249/249/249
f 255/255/255 254/254/254 253/253/253
f 256/256/256 255/255/255 253/253/253
f 259/259/259 258/258/258 257/257/257
f 260/260/260 259/259/259 257/257/257
f 263/263/263 262/262/262 261/261/261
f 264/264/264 263/263/263 261/261/261
f 267/267/267 266/266/266 265/265/265
f 268/268/268 267/267/267 265/265/265
f 271/271/271 270/270/270 269/269/269
f 272/272/272 271/271/271 269/269/269
f 275/275/275 274/274/274 273/273/273
f 276/276/276 275/275/275 273/273/273
f 279/279/279 278/278/278 277/277/277
f 280/280/280 279/279/279 277/277/277
f 283/283/283 282/282/282 281/281/281
f 284/284/284 283/283/283 281/281/281
f 287/287/287 286/286/286 285/285/285
f 288/288/288 287/287/287 285/285/285
f 291/291/291 290/290/290 289/289/289
f 292/292/292 291/291/291 289/289/289
f 295/295/295 294/294/294 293/293/293
f 296/296/296 295/295/295 293/293/293
f 299/299/299 298/298/298 297/297/297
f 300/300/300 299/299/299 297/297/297
f 303/303/303 302/302/302 301/301/301
f 304/304/304 303/303/303 301/301/301
f 307/307/307 306/306/306 305/305/305
f 308/308/308 307/307/307 305/305/305
f 311/311/311 310/310/310 309/309/309
f 312/312/312 311/311/311 309/309/309
f 315/315/315 314/314/314 313/313/313
f 316/316/316 315/315/315 313/313/313
f 319/319/319 318/318/318 317/317/317
f 320/320/320 319/319/319 317/317/317
f 323/323/323 322/322/322 321/321/321
f 324/324/324 323/323/323 321/321/321
f 327/327/327 326/326/326 325/325/325
f 328/328/328 327/327/327 325/325/325
f 331/331/331 330/330/330 329/329/329
f 332/332/332 331/331/331 329/329/329
f 335/335/335 334/334/334 333/333/333
f 336/336/336 335/335/335 333/333/333
f 339/339/339 338/338/338 337/337/337
f 340/340/340 339/339/339 337/337/337
f 343/343/343 342/342/342 341/341/341
f 344/344/344 343/343/343 341/341/341
f 347/347/347 346/346/346 345/345/345
f 348/348/348 347/347/347 345/345/345
f 351/351/351 350/350/350 349/349/349
f 352/352/352 351/351/351 349/349/349
f 355/355/355 354/354/354 353/353/353
f 356/356/356 355/355/355 353/353/353
f 359/359/359 358/358/358 357/357/357
f 360/360/360 359/359/359 357/357/357
f 363/363/363 362/362/362 361/361/361
f 364/364/364 363/363/363 361/361/361
f 367/367/367 366/366/366 365/365/365
f 368/368/368 367/367/367 365/365/365
f 371/371/371 370/370/370 369/369/369
f 372/372/372 371/371/371 369/369/369
f 375/375/375 374/374/374 373/373/373
f 376/376/376 375/375/375 373/373/373
f 379/379/379 378/378/378 377/377/377
f 380/380/380 379/379/379 377/377/377
f 383/383/383 382/382/382 381/381/381
f 384/384/384 383/383/383 381/381/381
f 387/387/387 386/386/386 385/385/385
f 388/388/388 387/387/387 385/385/385
f 391/391/391 390/390/390 389/389/389
f 392/392/392 391/391/391 389/389/389
f 395/395/395 394/394/394 393/393/393
f 396/396/396 395/395/395 393/393/393
f 399/399/399 398/398/398 397/397/397
f 400/400/400 399/399/399 397/397/397
f 403/403/403 402/402/402 401/401/401
f 404/404/404 403/403/403 401/401/401
f 407/407/407 406/406/406 405/405/405
f 408/408/408 407/407/407 405/405/405
f 411/411/411 410/410/410 409/409/409
f 412/412/412 411/411/411 409/409/409
f 415/415/415 414/414/414 413/413/413
f 416/416/416 415/415/415 413/413/413
f 419/419/419 418/418/418 417/417/417
f 420/420/420 419/419/419 417/417/417
f 423/423/423 422/422/422 421/421/421
f 424/424/424 423/423/423 421/421/421
f 427/427/427 426/426/426 425/425/425
f 428/428/428 427/427/427 425/425/425
f 431/431/431 430/430/430 429/429/429
f 432/432/432 431/431/431 429/429/429
f 435/435/435 434/434/434 433/433/433
f 436/436/436 435/435/435 433/433/433
f 439/439/439 438/438/438 437/437/437
f 440/440/440 439/439/439 437/437/437
f 443/443/443 442/442/442 441/441/441
f 444/444/444 443/443/443 441/441/441
f 447/447/447 446/446/446 445/445/445
f 448/448/448 447/447/447 445/445/445
f 451/451/451 450/450/450 449/449/449
f 452/452/452 451/451/451 449/449/449
f 455/455/455 454/454/454 453/453/453
f 456/456/456 455/455/455 453/453/453
f 459/459/459 458/458/458 457/457/457
f 460/460/460 459/459/459 457/457/457
f 463/463/463 462/462/462 461/461/461
f 461/461/461 464/464/464 463/463/463
f 461/461/461 465/465/465 464/464/464
f 468/468/468 467/467/467 466/466/466
f 469/469/469 468/468/468 466/466/466
f 472/472/472 471/471/471 470/470/470
f 470/470/470 473/473/473 472/472/472
f 470/470/470 474/474/474 473/473/473
f 477/477/477 476/476/476 475/475/475
f 475/475/475 478/478/478 477/477/477
f 475/475/475 479/479/479 478/478/478
f 482/482/482 481/481/481 480/480/480
f 480/480/480 483/483/483 482/482/482
f 480/480/480 484/484/484 483/483/483
f 487/487/487 486/486/486 485/485/485
f 488/488/488 487/487/487 485/485/485
f 491/491/491 490/490/490 489/489/489
f 492/492/492 491/491/491 489/489/489
f 495/495/495 494/494/494 493/493/493
f 496/496/496 495/495/495 493/493/493
f 499/499/499 498/498/498 497/497/497
f 498/498/498 500/500/500 497/497/497
f 497/497/497 500/500/500 501/501/501
f 500/500/500 502/502/502 501/501/501
f 502/502/502 500/500/500 503/503/503
f 504/504/504 502/502/502 503/503/503
f 503/503/503 500/500/500 505/505/505
f 500/500/500 506/506/506 505/505/505
f 505/505/505 506/506/506 507/507/507
f 506/506/506 508/508/508 507/507/507
f 507/507/507 508/508/508 504/504/504
f 508/508/508 502/502/502 504/504/504
f 502/502/502 508/508/508 509/509/509
f 509/509/509 508/508/508 510/510/510
f 508/508/508 511/511/511 510/510/510
f 510/510/510 511/511/511 512/512/512
f 511/511/511 513/513/513 512/512/512
f 512/512/512 513/513/513 514/514/514
f 514/514/514 502/502/502 509/509/509
f 513/513/513 502/502/502 514/514/514
f 502/502/502 513/513/513 515/515/515
f 516/516/516 502/502/502 515/515/515
f 517/517/517 502/502/502 516/516/516
f 518/518/518 517/517/517 516/516/516
f 521/521/521 520/520/520 519/519/519
f 522/522/522 521/521/521 519/519/519
f 523/523/523 521/521/521 522/522/522
f 524/524/524 523/523/523 522/522/522
f 526/526/526 521/521/521 525/525/525
f 527/527/527 526/526/526 525/525/525
f 528/528/528 526/526/526 527/527/527
f 529/529/529 528/528/528 527/527/527
f 532/532/532 531/531/531 530/530/530
f 533/533/533 532/532/532 530/530/530
f 536/536/536 535/535/535 534/534/534
f 537/537/537 536/536/536 534/534/534
f 540/540/540 539/539/539 538/538/538
f 541/541/541 540/540/540 538/538/538
f 544/544/544 543/543/543 542/542/542
f 545/545/545 544/544/544 542/542/542
f 548/548/548 547/547/547 546/546/546
f 549/549/549 548/548/548 546/546/546
f 552/552/552 551/551/551 550/550/550
f 553/553/553 552/552/552 550/550/550
f 556/556/556 555/555/555 554/554/554
f 557/557/557 556/556/556 554/554/554
f 560/560/560 559/559/559 558/558/558
f 561/561/561 560/560/560 558/558/558
f 564/564/564 563/563/563 562/562/562
f 565/565/565 564/564/564 562/562/562
f 568/568/568 567/567/567 566/566/566
f 569/569/569 568/568/568 566/566/566
f 572/572/572 571/571/571 570/570/570
f 573/573/573 572/572/572 570/570/570
f 576/576/576 575/575/575 574/574/574
f 577/577/577 576/576/576 574/574/574
f 580/580/580 579/579/579 578/578/578
f 581/581/581 580/580/580 578/578/578
f 584/584/584 583/583/583 582/582/582
f 585/585/585 584/584/584 582/582/582
f 588/588/588 587/587/587 586/586/586
f 589/589/589 588/588/588 586/586/586
f 592/592/592 591/591/591 590/590/590
f 593/593/593 592/592/592 590/590/590

