mtllib material.mtl
usemtl material_0
v -0.59568000 0.65116000 0.17260000
v -0.59981000 0.65674000 0.17260000
v -0.59568000 0.65674000 0.17736000
v -0.59568000 0.69186000 0.17737000
v -0.59981000 0.69186000 0.17261000
v -0.59568000 0.69745000 0.17261000
v -0.59568000 0.65128000 -0.19440000
v -0.59568000 0.65687000 -0.19916000
v -0.59981000 0.65687000 -0.19440000
v -0.59568000 0.69757000 -0.19438000
v -0.59981000 0.69199000 -0.19439000
v -0.59568000 0.69199000 -0.19915000
v 0.59569000 0.65116000 0.17260000
v 0.59569000 0.65674000 0.17736000
v 0.59982000 0.65674000 0.17260000
v 0.59569000 0.69745000 0.17261000
v 0.59982000 0.69186000 0.17261000
v 0.59569000 0.69186000 0.17737000
v 0.59569000 0.65128000 -0.19440000
v 0.59982000 0.65687000 -0.19440000
v 0.59569000 0.65687000 -0.19916000
v 0.59569000 0.69757000 -0.19438000
v 0.59569000 0.69199000 -0.19915000
v 0.59982000 0.69199000 -0.19439000
v 0.59569000 0.65674000 0.17736000
v -0.59568000 0.65674000 0.17736000
v -0.59568000 0.69186000 0.17737000
v 0.59569000 0.69186000 0.17737000
v 0.59982000 0.65687000 -0.19440000
v 0.59982000 0.65674000 0.17260000
v 0.59982000 0.69186000 0.17261000
v 0.59982000 0.69199000 -0.19439000
v 0.59569000 0.69757000 -0.19438000
v 0.59569000 0.69745000 0.17261000
v -0.59568000 0.69745000 0.17261000
v -0.59568000 0.69757000 -0.19438000
v -0.59981000 0.65674000 0.17260000
v -0.59981000 0.65687000 -0.19440000
v -0.59981000 0.69199000 -0.19439000
v -0.59981000 0.69186000 0.17261000
v -0.59568000 0.65687000 -0.19916000
v 0.59569000 0.65687000 -0.19916000
v 0.59569000 0.69199000 -0.19915000
v -0.59568000 0.69199000 -0.19915000
v -0.59568000 0.65128000 -0.19440000
v -0.59981000 0.65687000 -0.19440000
v -0.59981000 0.65674000 0.17260000
v -0.59568000 0.65116000 0.17260000
v -0.59568000 0.65674000 0.17736000
v -0.59981000 0.65674000 0.17260000
v -0.59981000 0.69186000 0.17261000
v -0.59568000 0.69186000 0.17737000
v -0.59568000 0.69745000 0.17261000
v -0.59981000 0.69186000 0.17261000
v -0.59981000 0.69199000 -0.19439000
v -0.59568000 0.69757000 -0.19438000
v -0.59568000 0.69199000 -0.19915000
v -0.59981000 0.69199000 -0.19439000
v -0.59981000 0.65687000 -0.19440000
v -0.59568000 0.65687000 -0.19916000
v 0.59569000 0.65128000 -0.19440000
v 0.59569000 0.65687000 -0.19916000
v -0.59568000 0.65687000 -0.19916000
v -0.59568000 0.65128000 -0.19440000
v -0.59568000 0.69757000 -0.19438000
v -0.59568000 0.69199000 -0.19915000
v 0.59569000 0.69199000 -0.19915000
v 0.59569000 0.69757000 -0.19438000
v 0.59982000 0.69199000 -0.19439000
v 0.59569000 0.69199000 -0.19915000
v 0.59569000 0.65687000 -0.19916000
v 0.59982000 0.65687000 -0.19440000
v 0.59569000 0.65116000 0.17260000
v 0.59982000 0.65674000 0.17260000
v 0.59982000 0.65687000 -0.19440000
v 0.59569000 0.65128000 -0.19440000
v 0.59569000 0.69757000 -0.19438000
v 0.59982000 0.69199000 -0.19439000
v 0.59982000 0.69186000 0.17261000
v 0.59569000 0.69745000 0.17261000
v 0.59569000 0.69186000 0.17737000
v 0.59982000 0.69186000 0.17261000
v 0.59982000 0.65674000 0.17260000
v 0.59569000 0.65674000 0.17736000
v -0.59568000 0.65116000 0.17260000
v -0.59568000 0.65674000 0.17736000
v 0.59569000 0.65674000 0.17736000
v 0.59569000 0.65116000 0.17260000
v 0.59569000 0.69745000 0.17261000
v 0.59569000 0.69186000 0.17737000
v -0.59568000 0.69186000 0.17737000
v -0.59568000 0.69745000 0.17261000
v -0.59568000 0.65128000 -0.19440000
v -0.59568000 0.65116000 0.17260000
v 0.59569000 0.65116000 0.17260000
v 0.59569000 0.65128000 -0.19440000
vn -0.65963720 -0.48786500 0.57172260
vn -0.65963720 -0.48786500 0.57172260
vn -0.65963720 -0.48786500 0.57172260
vn -0.65963720 0.48746980 0.57205960
vn -0.65963720 0.48746980 0.57205960
vn -0.65963720 0.48746980 0.57205960
vn -0.65962500 -0.48746320 -0.57207910
vn -0.65962500 -0.48746320 -0.57207910
vn -0.65962500 -0.48746320 -0.57207910
vn -0.65962830 0.48785670 -0.57173990
vn -0.65962830 0.48785670 -0.57173990
vn -0.65962830 0.48785670 -0.57173990
vn 0.65963920 -0.48786650 0.57171870
vn 0.65963920 -0.48786650 0.57171870
vn 0.65963920 -0.48786650 0.57171870
vn 0.65963920 0.48747130 0.57205570
vn 0.65963920 0.48747130 0.57205570
vn 0.65963920 0.48747130 0.57205570
vn 0.65963070 -0.48745950 -0.57207570
vn 0.65963070 -0.48745950 -0.57207570
vn 0.65963070 -0.48745950 -0.57207570
vn 0.65963230 0.48785390 -0.57173760
vn 0.65963230 0.48785390 -0.57173760
vn 0.65963230 0.48785390 -0.57173760
vn 0.00000014 -0.00034558 1.00000000
vn 0.00000014 -0.00034558 1.00000000
vn 0.00000014 -0.00034558 1.00000000
vn 0.00000014 -0.00034558 1.00000000
vn 1.00000000 0.00000000 0.00000000
vn 1.00000000 0.00000000 0.00000000
vn 1.00000000 0.00000000 0.00000000
vn 1.00000000 0.00000000 0.00000000
vn 0.00000000 1.00000000 0.00034533
vn 0.00000000 1.00000000 0.00034533
vn 0.00000000 1.00000000 0.00034533
vn 0.00000000 1.00000000 0.00034533
vn -1.00000000 0.00000000 0.00000000
vn -1.00000000 0.00000000 0.00000000
vn -1.00000000 0.00000000 0.00000000
vn -1.00000000 0.00000000 0.00000000
vn -0.00000010 0.00034558 -1.00000000
vn -0.00000010 0.00034558 -1.00000000
vn -0.00000010 0.00034558 -1.00000000
vn -0.00000010 0.00034558 -1.00000000
vn -0.80411220 -0.59447740 -0.00020533
vn -0.80411220 -0.59447740 -0.00020533
vn -0.80411220 -0.59447740 -0.00020533
vn -0.80411220 -0.59447740 -0.00020533
vn -0.75556990 -0.00022638 0.65506800
vn -0.75556990 -0.00022638 0.65506800
vn -0.75556990 -0.00022638 0.65506800
vn -0.75556990 -0.00022638 0.65506800
vn -0.80411330 0.59447600 0.00020531
vn -0.80411330 0.59447600 0.00020531
vn -0.80411330 0.59447600 0.00020531
vn -0.80411330 0.59447600 0.00020531
vn -0.75555350 0.00022638 -0.65508680
vn -0.75555350 0.00022638 -0.65508680
vn -0.75555350 0.00022638 -0.65508680
vn -0.75555350 0.00022638 -0.65508680
vn 0.00000000 -0.64856790 -0.76115670
vn 0.00000000 -0.64856790 -0.76115670
vn 0.00000000 -0.64856790 -0.76115670
vn 0.00000000 -0.64856790 -0.76115670
vn 0.00000000 0.64909390 -0.76070830
vn 0.00000000 0.64909390 -0.76070830
vn 0.00000000 0.64909390 -0.76070830
vn 0.00000000 0.64909390 -0.76070830
vn 0.75555120 0.00022638 -0.65508960
vn 0.75555120 0.00022638 -0.65508960
vn 0.75555120 0.00022638 -0.65508960
vn 0.75555120 0.00022638 -0.65508960
vn 0.80411230 -0.59447740 -0.00020523
vn 0.80411230 -0.59447740 -0.00020523
vn 0.80411230 -0.59447740 -0.00020523
vn 0.80411230 -0.59447740 -0.00020523
vn 0.80411230 0.59447740 0.00020523
vn 0.80411230 0.59447740 0.00020523
vn 0.80411230 0.59447740 0.00020523
vn 0.80411230 0.59447740 0.00020523
vn 0.75556770 -0.00022638 0.65507050
vn 0.75556770 -0.00022638 0.65507050
vn 0.75556770 -0.00022638 0.65507050
vn 0.75556770 -0.00022638 0.65507050
vn 0.00000011 -0.64911320 0.76069180
vn 0.00000011 -0.64911320 0.76069180
vn 0.00000011 -0.64911320 0.76069180
vn 0.00000011 -0.64911320 0.76069180
vn 0.00000011 0.64858720 0.76114030
vn 0.00000011 0.64858720 0.76114030
vn 0.00000011 0.64858720 0.76114030
vn 0.00000011 0.64858720 0.76114030
vn 0.00000000 -1.00000000 -0.00034535
vn 0.00000000 -1.00000000 -0.00034535
vn 0.00000000 -1.00000000 -0.00034535
vn 0.00000000 -1.00000000 -0.00034535
vt 0.26777170 0.82155290
vt 0.26777170 0.82434540
vt 0.26539060 0.82434540
vt 0.26539060 0.84190510
vt 0.26777170 0.84190510
vt 0.26777170 0.84469760
vt 0.45126910 0.82155290
vt 0.45365050 0.82434540
vt 0.45126910 0.82434540
vt 0.45126910 0.84469750
vt 0.45126910 0.84190510
vt 0.45365050 0.84190510
vt 0.26777170 0.82155290
vt 0.26539060 0.82434540
vt 0.26777170 0.82434540
vt 0.26777170 0.84469760
vt 0.26777170 0.84190510
vt 0.26539060 0.84190510
vt 0.45126910 0.82155290
vt 0.45126910 0.82434540
vt 0.45365050 0.82434540
vt 0.45126910 0.84469750
vt 0.45365050 0.84190510
vt 0.45126910 0.84190510
vt 0.39926050 0.82434540
vt -0.19642320 0.82434540
vt -0.19642320 0.84190510
vt 0.39926050 0.84190510
vt 0.45126910 0.82434540
vt 0.26777170 0.82434540
vt 0.26777170 0.84190510
vt 0.45126910 0.84190510
vt 0.39926050 0.45126910
vt 0.39926050 0.26777170
vt -0.19642320 0.26777170
vt -0.19642320 0.45126910
vt 0.26777170 0.82434540
vt 0.45126910 0.82434540
vt 0.45126910 0.84190510
vt 0.26777170 0.84190510
vt 0.80357680 0.82434540
vt 1.39926100 0.82434540
vt 1.39926100 0.84190510
vt 0.80357680 0.84190510
vt 0.45126910 0.82155290
vt 0.45126910 0.82434540
vt 0.26777170 0.82434540
vt 0.26777170 0.82155290
vt 0.26539060 0.82434540
vt 0.26777170 0.82434540
vt 0.26777170 0.84190510
vt 0.26539060 0.84190510
vt 0.26777170 0.84469760
vt 0.26777170 0.84190510
vt 0.45126910 0.84190510
vt 0.45126910 0.84469750
vt 0.45365050 0.84190510
vt 0.45126910 0.84190510
vt 0.45126910 0.82434540
vt 0.45365050 0.82434540
vt 0.39926050 0.82155290
vt 0.39926050 0.82434540
vt -0.19642320 0.82434540
vt -0.19642320 0.82155290
vt 0.80357680 0.84469750
vt 0.80357680 0.84190510
vt 1.39926100 0.84190510
vt 1.39926100 0.84469750
vt 0.45126910 0.84190510
vt 0.45365050 0.84190510
vt 0.45365050 0.82434540
vt 0.45126910 0.82434540
vt 0.26777170 0.82155290
vt 0.26777170 0.82434540
vt 0.45126910 0.82434540
vt 0.45126910 0.82155290
vt 0.45126910 0.84469750
vt 0.45126910 0.84190510
vt 0.26777170 0.84190510
vt 0.26777170 0.84469760
vt 0.26539060 0.84190510
vt 0.26777170 0.84190510
vt 0.26777170 0.82434540
vt 0.26539060 0.82434540
vt 0.80357680 0.82155290
vt 0.80357680 0.82434540
vt 1.39926100 0.82434540
vt 1.39926100 0.82155290
vt 0.39926050 0.84469760
vt 0.39926050 0.84190510
vt -0.19642320 0.84190510
vt -0.19642320 0.84469760
vt 0.80357680 0.45126910
vt 0.80357680 0.26777170
vt 1.39926100 0.26777170
vt 1.39926100 0.45126910
f 3/3/3 2/2/2 1/1/1
f 6/6/6 5/5/5 4/4/4
f 9/9/9 8/8/8 7/7/7
f 12/12/12 11/11/11 10/10/10
f 15/15/15 14/14/14 13/13/13
f 18/18/18 17/17/17 16/16/16
f 21/21/21 20/20/20 19/19/19
f 24/24/24 23/23/23 22/22/22
f 27/27/27 26/26/26 25/25/25
f 28/28/28 27/27/27 25/25/25
f 31/31/31 30/30/30 29/29/29
f 32/32/32 31/31/31 29/29/29
f 35/35/35 34/34/34 33/33/33
f 36/36/36 35/35/35 33/33/33
f 39/39/39 38/38/38 37/37/37
f 40/40/40 39/39/39 37/37/37
f 43/43/43 42/42/42 41/41/41
f 44/44/44 43/43/43 41/41/41
f 47/47/47 46/46/46 45/45/45
f 48/48/48 47/47/47 45/45/45
f 51/51/51 50/50/50 49/49/49
f 52/52/52 51/51/51 49/49/49
f 55/55/55 54/54/54 53/53/53
f 56/56/56 55/55/55 53/53/53
f 59/59/59 58/58/58 57/57/57
f 60/60/60 59/59/59 57/57/57
f 63/63/63 62/62/62 61/61/61
f 64/64/64 63/63/63 61/61/61
f 67/67/67 66/66/66 65/65/65
f 68/68/68 67/67/67 65/65/65
f 71/71/71 70/70/70 69/69/69
f 72/72/72 71/71/71 69/69/69
f 75/75/75 74/74/74 73/73/73
f 76/76/76 75/75/75 73/73/73
f 79/79/79 78/78/78 77/77/77
f 80/80/80 79/79/79 77/77/77
f 83/83/83 82/82/82 81/81/81
f 84/84/84 83/83/83 81/81/81
f 87/87/87 86/86/86 85/85/85
f 88/88/88 87/87/87 85/85/85
f 91/91/91 90/90/90 89/89/89
f 92/92/92 91/91/91 89/89/89
f 95/95/95 94/94/94 93/93/93
f 96/96/96 95/95/95 93/93/93

