# Blender 4.0.0
# www.blender.org
o Tennis_Racquet_2_Cube.1755_2_collision_1
v 0.008838 0.042768 0.000101
v 0.009941 0.042668 0.000089
v 0.008568 0.042768 0.000201
v 0.010215 0.040503 0.000177
v 0.010215 0.041601 0.000110
v 0.010139 0.042632 0.000048
v 0.009941 0.042668 -0.000157
v 0.008797 0.042768 -0.000171
v 0.001708 0.042768 0.000202
v 0.010491 0.038034 0.000113
v 0.010713 0.039342 0.000048
v 0.008568 0.042424 0.000208
v 0.008568 0.041601 0.000210
v 0.008568 0.038034 0.000210
v 0.008568 0.037209 0.000204
v 0.010386 0.041601 0.000035
v 0.010139 0.042632 -0.000116
v 0.010215 0.041601 -0.000158
v 0.010215 0.040503 -0.000183
v 0.008568 0.042699 -0.000247
v -0.005976 0.042768 0.000202
v 0.010701 0.038034 0.000039
v 0.010711 0.038231 0.000046
v 0.010713 0.039187 0.000048
v 0.010713 0.039342 -0.000117
v 0.001708 0.042424 0.000209
v 0.007471 0.040503 0.000210
v 0.001708 0.041601 0.000210
v 0.001708 0.038034 0.000210
v 0.001708 0.037209 0.000205
v 0.008895 0.037209 0.000104
v 0.010386 0.041601 -0.000094
v 0.010357 0.041742 -0.000041
v 0.010394 0.041410 -0.000107
v 0.010491 0.039378 -0.000158
v 0.010491 0.038034 -0.000161
v 0.008568 0.038034 -0.000250
v 0.008568 0.039132 -0.000251
v 0.008568 0.042424 -0.000251
v 0.001708 0.042424 -0.000251
v 0.001708 0.042699 -0.000247
v -0.005976 0.042424 0.000209
v -0.008170 0.042699 0.000186
v -0.008170 0.040503 0.000209
v 0.010641 0.037892 -0.000042
v 0.010701 0.038034 -0.000098
v 0.010711 0.038231 -0.000111
v 0.010713 0.039187 -0.000117
v -0.005976 0.041601 0.000210
v -0.005976 0.038034 0.000210
v -0.005976 0.037209 0.000204
v 0.008895 0.037209 -0.000158
v 0.008568 0.037209 -0.000241
v 0.001708 0.038034 -0.000250
v 0.001708 0.039132 -0.000251
v -0.005976 0.042424 -0.000251
v -0.005976 0.042699 -0.000247
v -0.008452 0.042768 0.000108
v -0.009543 0.042668 0.000089
v -0.010092 0.040503 0.000167
v -0.009817 0.040503 0.000177
v -0.008446 0.040503 0.000204
v -0.008170 0.038034 0.000195
v -0.008170 0.037209 0.000184
v 0.001708 0.037209 -0.000241
v -0.005976 0.038034 -0.000250
v -0.005976 0.039132 -0.000251
v -0.008170 0.040503 -0.000250
v -0.008170 0.042424 -0.000240
v -0.008452 0.042768 -0.000175
v -0.009543 0.042668 -0.000157
v -0.009817 0.042639 0.000059
v -0.010267 0.040503 0.000062
v -0.010315 0.039342 0.000048
v -0.010315 0.039187 0.000048
v -0.010313 0.038231 0.000046
v -0.010092 0.038034 0.000113
v -0.008446 0.038034 0.000189
v -0.008501 0.037209 0.000108
v -0.005976 0.037209 -0.000241
v -0.008170 0.037209 -0.000233
v -0.008170 0.038034 -0.000241
v -0.008446 0.038034 -0.000235
v -0.008446 0.040503 -0.000242
v -0.008446 0.041601 -0.000236
v -0.010092 0.040503 -0.000175
v -0.008230 0.042768 -0.000215
v -0.009817 0.042639 -0.000127
v -0.009969 0.042594 -0.000076
v -0.010267 0.040503 -0.000101
v -0.010315 0.039342 -0.000117
v -0.010315 0.039187 -0.000117
v -0.010313 0.038231 -0.000111
v -0.010302 0.038034 0.000039
v -0.008501 0.037209 -0.000172
v -0.010092 0.038034 -0.000161
v -0.010249 0.040661 -0.000068
v -0.010302 0.038034 -0.000098
v -0.010243 0.037892 -0.000042
vn 0.0899 0.9960 -0.0000
vn 0.0868 0.9961 -0.0132
vn -0.3032 0.9518 0.0459
vn -0.0000 0.9809 -0.1945
vn -0.0000 0.9809 -0.1943
vn 0.0127 0.7293 -0.6841
vn -0.0000 1.0000 0.0001
vn -0.0000 1.0000 -0.0000
vn 0.0003 0.7490 0.6626
vn -0.0062 0.4034 -0.9150
vn -0.0000 1.0000 -0.0001
vn 0.0899 0.9659 0.2427
vn 0.1546 0.0595 0.9862
vn 0.2167 0.0752 0.9733
vn 0.1788 0.9839 -0.0000
vn 0.0851 0.0510 0.9951
vn 0.2584 0.0040 0.9660
vn 0.3695 0.0559 0.9276
vn 0.0435 0.0207 0.9988
vn 0.0211 0.0015 0.9998
vn 0.0201 -0.0000 0.9998
vn 0.0303 -0.0068 0.9995
vn 0.0555 -0.0195 0.9983
vn 0.4035 0.0638 0.9128
vn 0.4028 0.0851 0.9113
vn 0.9707 0.2316 0.0632
vn 0.9713 0.2381 -0.0000
vn 0.2125 0.0552 -0.9756
vn 0.0853 0.0226 -0.9961
vn 0.0660 0.0202 -0.9976
vn 0.0647 0.6361 -0.7689
vn 0.0002 0.0208 0.9998
vn -0.2738 0.5630 -0.7798
vn 0.3308 -0.0510 0.9423
vn 0.2917 -0.0024 0.9565
vn 0.2803 -0.0000 0.9599
vn -0.2771 0.5603 -0.7806
vn 1.0000 -0.0000 -0.0000
vn 0.9897 0.1434 -0.0000
vn 0.0001 0.0197 0.9998
vn 0.0001 0.0015 1.0000
vn 0.0002 -0.0000 1.0000
vn 0.0001 0.0001 1.0000
vn 0.0001 -0.0001 1.0000
vn 0.0001 -0.0066 1.0000
vn 0.0001 -0.0068 1.0000
vn -0.2569 0.4774 -0.8403
vn -0.0000 1.0000 -0.0073
vn -0.0000 1.0000 0.0002
vn 0.9799 0.1996 -0.0000
vn 0.9692 0.2302 -0.0878
vn 0.4168 0.0802 -0.9055
vn 0.3343 0.0628 -0.9404
vn 0.3269 0.0549 -0.9435
vn 0.1856 0.0231 -0.9824
vn 0.1794 0.0223 -0.9835
vn 0.1001 0.0026 -0.9950
vn 0.0459 -0.0035 -0.9989
vn 0.0422 -0.0011 -0.9991
vn 0.0414 -0.0000 -0.9991
vn 0.0571 0.0135 -0.9983
vn -0.0000 0.0135 -0.9999
vn -0.0000 0.0139 -0.9999
vn -0.0001 0.0201 0.9998
vn -0.0000 0.0197 0.9998
vn -0.0074 0.0105 0.9999
vn -0.0174 0.0201 0.9996
vn 0.9213 -0.3888 -0.0000
vn 0.3643 -0.9313 -0.0000
vn 0.9986 -0.0522 -0.0000
vn 1.0000 -0.0021 -0.0000
vn 0.1970 -0.0000 -0.9804
vn 0.1824 0.0026 -0.9832
vn 0.4975 0.0809 -0.8637
vn -0.0000 0.0015 1.0000
vn 0.0001 -0.0000 1.0000
vn -0.0000 -0.0000 1.0000
vn -0.0000 -0.0066 1.0000
vn -0.0000 -0.0067 1.0000
vn 0.2255 -0.0057 -0.9742
vn 0.2886 -0.0814 -0.9540
vn 0.2588 -0.4480 -0.8558
vn 0.2388 -0.4660 -0.8519
vn 0.2218 -0.4332 -0.8736
vn 0.0459 -0.0107 -0.9989
vn -0.0000 -0.0107 -0.9999
vn -0.0000 -0.0011 -1.0000
vn -0.0000 -0.0010 -1.0000
vn -0.0000 -0.0001 -1.0000
vn -0.0000 -0.0000 -1.0000
vn -0.0000 0.0137 -0.9999
vn -0.0011 0.0015 1.0000
vn -0.0694 0.6088 0.7903
vn -0.0717 0.0542 0.9960
vn -0.0329 0.0203 0.9993
vn -0.0203 0.0108 0.9997
vn -0.0178 0.0105 0.9998
vn -0.0178 -0.0059 0.9998
vn -0.0070 -0.0059 1.0000
vn -0.0003 -0.0000 1.0000
vn -0.0070 -0.0067 1.0000
vn -0.0093 -0.0129 0.9999
vn -0.0000 -0.0109 -0.9999
vn -0.0000 0.0109 0.9999
vn -0.0003 -0.0001 -1.0000
vn -0.0052 0.0056 -1.0000
vn -0.0052 0.0693 -0.9976
vn -0.0137 0.0137 -0.9998
vn -0.0909 0.9959 -0.0000
vn -0.1048 0.9945 -0.0000
vn -0.1166 0.0655 0.9910
vn -0.5119 0.1291 0.8493
vn -0.5162 0.0108 0.8564
vn -0.4729 -0.0000 0.8811
vn -0.4608 -0.0026 0.8875
vn -0.3068 -0.0210 0.9515
vn -0.0463 -0.0220 0.9987
vn -0.0428 -0.0199 0.9989
vn -0.0329 -0.0134 0.9994
vn -0.6777 0.1244 0.7247
vn -0.0216 -0.0071 0.9997
vn -0.0203 -0.0062 0.9998
vn -0.0216 -0.0129 0.9997
vn -0.2047 -0.4005 0.8932
vn -0.0037 -0.0109 -0.9999
vn -0.0039 -0.0103 -0.9999
vn -0.0039 -0.0037 -1.0000
vn -0.0008 -0.0010 -1.0000
vn -0.0215 -0.0037 -0.9998
vn -0.0299 -0.0028 -0.9995
vn -0.0299 0.0056 -0.9995
vn -0.0306 0.0057 -0.9995
vn -0.1456 0.0442 -0.9884
vn -0.0551 0.0277 -0.9981
vn -0.0459 0.0201 -0.9987
vn -0.0875 0.8752 -0.4757
vn -0.1137 0.0372 -0.9928
vn -0.2843 0.9587 -0.0000
vn -0.9891 0.1433 0.0325
vn -0.9931 0.1170 -0.0000
vn -0.9992 0.0407 -0.0000
vn -1.0000 -0.0000 -0.0000
vn -1.0000 -0.0021 -0.0000
vn -0.9986 -0.0522 -0.0000
vn -0.3308 -0.0510 0.9423
vn 0.2738 0.5630 -0.7798
vn 0.2846 0.5541 -0.7823
vn -0.3651 -0.9310 -0.0000
vn -0.1703 -0.3163 -0.9332
vn -0.0449 -0.0181 -0.9988
vn -0.0215 -0.0102 -0.9997
vn -0.0449 -0.0057 -0.9990
vn -0.0405 -0.0028 -0.9992
vn -0.0405 0.0057 -0.9992
vn -0.2247 -0.0056 -0.9744
vn -0.2557 -0.0000 -0.9668
vn -0.3899 0.0280 -0.9204
vn -0.3892 0.0667 -0.9187
vn -0.3342 0.0645 -0.9403
vn -0.9823 0.1417 -0.1225
vn -0.2255 -0.0057 -0.9742
vn -0.2886 -0.0814 -0.9540
vn -0.9213 -0.3888 -0.0000
vn -0.2446 -0.4608 -0.8531
vn -0.2588 -0.4480 -0.8558
vn -0.0000 1.0000 -0.0002
vn 0.0018 0.7389 -0.6738
vn -0.0000 0.4229 -0.9062
vn -0.0120 0.0681 -0.9976
vn -0.0489 0.0616 -0.9969
vn -0.0000 0.4182 -0.9084
vn -0.0052 0.0137 -0.9999
vn -0.0433 0.0099 -0.9990
vn -0.0559 0.0226 -0.9982
vn -0.2533 0.4994 -0.8285
vn -0.0000 1.0000 0.0005
vn -0.2775 0.5460 -0.7905
vn -0.0271 0.6977 0.7159
vn -0.0077 0.0201 0.9998
vn -0.0089 0.0105 0.9999
vn -0.2856 0.5648 -0.7743
vn -0.6792 0.1444 0.7196
vn -0.5132 0.1095 0.8513
vn 0.2881 0.5651 -0.7730
vn 0.2784 0.5421 -0.7928
s 0
f 1//1 2//1 7//1
f 1//2 7//2 8//2
f 1//3 8//3 20//3
f 1//4 20//4 41//4
f 1//5 41//5 57//5
f 1//6 57//6 87//6
f 1//7 87//7 70//7
f 1//8 70//8 58//8
f 1//9 58//9 43//9
f 1//10 43//10 21//10
f 1//8 21//8 9//8
f 1//11 9//11 3//11
f 1//12 3//12 2//12
f 2//13 4//13 5//13
f 2//14 5//14 6//14
f 2//15 6//15 17//15
f 2//15 17//15 7//15
f 2//16 3//16 4//16
f 4//17 10//17 11//17
f 4//18 11//18 5//18
f 4//19 3//19 12//19
f 4//20 12//20 13//20
f 4//21 13//21 14//21
f 4//22 14//22 15//22
f 4//23 15//23 10//23
f 5//24 11//24 16//24
f 5//25 16//25 6//25
f 6//26 16//26 33//26
f 6//27 33//27 17//27
f 7//28 17//28 18//28
f 7//29 18//29 19//29
f 7//30 19//30 20//30
f 7//31 20//31 8//31
f 3//32 9//32 12//32
f 10//33 22//33 45//33
f 10//34 22//34 23//34
f 10//35 23//35 24//35
f 10//36 24//36 11//36
f 10//37 45//37 15//37
f 11//38 24//38 48//38
f 11//38 48//38 25//38
f 11//39 25//39 32//39
f 11//39 32//39 16//39
f 12//40 9//40 26//40
f 12//41 26//41 13//41
f 13//42 27//42 14//42
f 13//41 26//41 28//41
f 13//43 28//43 27//43
f 14//44 27//44 29//44
f 14//45 29//45 30//45
f 14//46 30//46 15//46
f 15//47 45//47 31//47
f 15//48 51//48 30//48
f 15//49 64//49 51//49
f 15//8 79//8 64//8
f 15//8 95//8 79//8
f 15//8 81//8 95//8
f 15//11 80//11 81//11
f 15//8 65//8 80//8
f 15//8 53//8 65//8
f 15//8 52//8 53//8
f 15//8 31//8 52//8
f 16//50 32//50 33//50
f 17//51 33//51 32//51
f 17//52 32//52 34//52
f 17//53 34//53 18//53
f 18//54 34//54 25//54
f 18//55 25//55 35//55
f 18//56 35//56 19//56
f 19//57 35//57 36//57
f 19//58 36//58 37//58
f 19//59 37//59 38//59
f 19//60 38//60 39//60
f 19//61 39//61 20//61
f 20//62 39//62 40//62
f 20//63 40//63 41//63
f 9//64 21//64 42//64
f 9//65 42//65 26//65
f 21//66 43//66 44//66
f 21//67 44//67 42//67
f 45//68 46//68 22//68
f 45//69 31//69 52//69
f 22//70 46//70 47//70
f 22//70 47//70 23//70
f 23//71 47//71 48//71
f 23//71 48//71 24//71
f 25//72 48//72 36//72
f 25//73 36//73 35//73
f 25//74 34//74 32//74
f 26//75 42//75 49//75
f 26//75 49//75 28//75
f 27//76 28//76 29//76
f 28//77 49//77 50//77
f 28//77 50//77 29//77
f 29//78 50//78 30//78
f 30//79 50//79 51//79
f 36//80 48//80 47//80
f 36//81 47//81 46//81
f 36//82 46//82 45//82
f 36//83 45//83 52//83
f 36//84 52//84 53//84
f 36//85 53//85 37//85
f 37//86 53//86 54//86
f 37//87 54//87 38//87
f 38//88 54//88 55//88
f 38//89 55//89 40//89
f 38//90 40//90 39//90
f 40//89 55//89 67//89
f 40//89 67//89 56//89
f 40//91 56//91 57//91
f 40//63 57//63 41//63
f 42//92 44//92 49//92
f 43//93 58//93 59//93
f 43//94 59//94 60//94
f 43//95 60//95 61//95
f 43//96 61//96 62//96
f 43//97 62//97 44//97
f 44//98 62//98 63//98
f 44//99 63//99 50//99
f 44//100 50//100 49//100
f 50//101 63//101 51//101
f 51//102 63//102 64//102
f 53//103 65//103 54//103
f 54//104 80//104 65//104
f 54//104 66//104 80//104
f 54//88 66//88 55//88
f 55//88 66//88 67//88
f 56//105 67//105 68//105
f 56//106 68//106 69//106
f 56//107 69//107 87//107
f 56//108 87//108 57//108
f 58//109 70//109 71//109
f 58//109 71//109 59//109
f 59//110 71//110 88//110
f 59//110 88//110 72//110
f 59//111 72//111 60//111
f 60//112 89//112 73//112
f 60//113 73//113 74//113
f 60//114 74//114 75//114
f 60//115 75//115 76//115
f 60//116 76//116 77//116
f 60//117 77//117 64//117
f 60//118 64//118 78//118
f 60//119 78//119 61//119
f 60//120 72//120 89//120
f 61//121 78//121 63//121
f 61//122 63//122 62//122
f 63//123 78//123 64//123
f 64//124 77//124 79//124
f 66//125 80//125 81//125
f 66//126 81//126 82//126
f 66//127 82//127 68//127
f 66//128 68//128 67//128
f 68//129 82//129 83//129
f 68//130 83//130 84//130
f 68//131 84//131 69//131
f 69//132 84//132 85//132
f 69//133 85//133 87//133
f 87//134 85//134 86//134
f 87//135 86//135 71//135
f 70//136 87//136 71//136
f 71//137 86//137 88//137
f 72//138 88//138 89//138
f 89//139 97//139 73//139
f 73//140 97//140 90//140
f 73//141 90//141 91//141
f 73//141 91//141 74//141
f 74//142 91//142 92//142
f 74//142 92//142 75//142
f 75//143 92//143 93//143
f 75//143 93//143 76//143
f 76//144 93//144 98//144
f 76//144 98//144 94//144
f 76//145 94//145 77//145
f 77//146 99//146 94//146
f 77//147 79//147 99//147
f 79//148 99//148 95//148
f 81//149 95//149 96//149
f 81//150 96//150 83//150
f 81//151 83//151 82//151
f 83//152 96//152 86//152
f 83//153 86//153 84//153
f 84//154 86//154 85//154
f 86//155 96//155 92//155
f 86//156 92//156 91//156
f 86//157 91//157 90//157
f 86//158 90//158 89//158
f 86//159 89//159 88//159
f 89//160 90//160 97//160
f 92//161 96//161 93//161
f 93//162 96//162 98//162
f 94//163 98//163 99//163
f 95//164 99//164 96//164
f 96//165 99//165 98//165
f 8//166 87//166 70//166
f 8//8 70//8 58//8
f 8//8 58//8 21//8
f 8//8 21//8 9//8
f 8//8 9//8 3//8
f 8//8 3//8 1//8
f 20//167 87//167 8//167
f 6//15 17//15 7//15
f 6//15 7//15 2//15
f 41//168 87//168 20//168
f 57//169 69//169 87//169
f 69//170 71//170 87//170
f 41//171 57//171 87//171
f 56//172 69//172 57//172
f 85//173 86//173 69//173
f 86//174 71//174 69//174
f 59//109 58//109 70//109
f 59//109 70//109 71//109
f 42//75 28//75 26//75
f 31//175 15//175 10//175
f 30//176 64//176 51//176
f 30//11 79//11 64//11
f 30//8 95//8 79//8
f 30//7 81//7 95//7
f 30//11 80//11 81//11
f 30//8 65//8 80//8
f 30//8 53//8 65//8
f 30//8 52//8 53//8
f 30//8 31//8 52//8
f 30//8 15//8 31//8
f 31//177 10//177 22//177
f 24//38 48//38 25//38
f 24//38 25//38 11//38
f 25//39 32//39 16//39
f 25//39 16//39 11//39
f 58//178 43//178 21//178
f 43//179 42//179 21//179
f 43//180 44//180 42//180
f 49//75 28//75 42//75
f 49//77 50//77 29//77
f 49//77 29//77 28//77
f 45//181 31//181 22//181
f 46//70 47//70 23//70
f 46//70 23//70 22//70
f 47//71 48//71 24//71
f 47//71 24//71 23//71
f 65//104 66//104 80//104
f 65//104 54//104 66//104
f 75//142 74//142 91//142
f 75//142 91//142 92//142
f 74//141 73//141 90//141
f 74//141 90//141 91//141
f 73//182 72//182 89//182
f 73//183 60//183 72//183
f 79//184 99//184 94//184
f 94//144 76//144 93//144
f 94//144 93//144 98//144
f 94//185 77//185 79//185
