# https://github.com/mikedh/trimesh
mtllib material.mtl
usemtl material_0
v 0.52580670 1.04833400 0.04163508
v -0.52607980 1.04833400 0.04163508
v -0.52607980 1.04833400 -0.04153508
v 0.52580670 1.04833400 -0.04153508
v -0.45840230 0.98129100 -0.04153508
v -0.45840230 0.98129100 0.04163508
v 0.45812930 0.98129100 0.04163508
v 0.45812930 0.98129100 -0.04153508
v -0.45840230 -1.04043223 0.04163508
v -0.45840230 -1.05030000 -0.04153508
v -0.45840230 -1.05030000 0.04163508
v -0.45840230 -1.04043223 -0.04153508
v -0.45840230 0.98129100 0.04163508
v -0.45840230 0.98129100 -0.04153508
v -0.52607980 -1.04043223 0.04163508
v -0.51864730 -1.05030000 0.04163508
v -0.52607980 -1.05030000 0.04163508
v -0.51864720 -1.04043223 0.04163508
v -0.46543470 -1.05030000 0.04163508
v -0.52607980 1.04833400 0.04163508
v -0.51864730 1.04097100 0.04163508
v -0.46543460 -1.04043223 0.04163508
v -0.45840230 -1.05030000 0.04163508
v -0.45840230 -1.04043223 0.04163508
v 0.51837410 1.04097100 0.04163508
v 0.52580670 1.04833400 0.04163508
v 0.52580670 -1.04043224 0.04163508
v -0.46543470 0.98825800 0.04163508
v -0.45840230 0.98129100 0.04163508
v 0.51837410 -1.04043224 0.04163508
v 0.52580670 -1.05030000 0.04163508
v 0.51837410 -1.05030000 0.04163508
v 0.45812930 0.98129100 0.04163508
v 0.46516170 0.98825800 0.04163508
v 0.46516170 -1.04043225 0.04163508
v 0.46516170 -1.05030000 0.04163508
v 0.45812930 -1.04043225 0.04163508
v 0.45812930 -1.05030000 0.04163508
v -0.52607980 -1.04043223 0.04163508
v -0.52607980 -1.05030000 0.04163508
v -0.52607980 -1.05030000 -0.04153508
v -0.52607980 -1.04043223 -0.04153508
v -0.52607980 1.04833400 -0.04153508
v -0.52607980 1.04833400 0.04163508
v 0.45812930 -1.04043225 -0.04153508
v 0.45812930 -1.05030000 0.04163508
v 0.45812930 -1.05030000 -0.04153508
v 0.45812930 -1.04043225 0.04163508
v 0.45812930 0.98129100 -0.04153508
v 0.45812930 0.98129100 0.04163508
v 0.52580670 -1.04043224 -0.04153508
v 0.51837410 -1.05030000 -0.04153508
v 0.52580670 -1.05030000 -0.04153508
v 0.51837410 -1.04043224 -0.04153508
v 0.52580670 1.04833400 -0.04153508
v 0.51837410 1.04097100 -0.04153508
v 0.46516170 -1.04043225 -0.04153508
v -0.51864730 1.04097100 -0.04153508
v -0.52607980 1.04833400 -0.04153508
v -0.52607980 -1.04043223 -0.04153508
v 0.46516170 -1.05030000 -0.04153508
v 0.45812930 -1.05030000 -0.04153508
v 0.45812930 -1.04043225 -0.04153508
v -0.51864730 -1.04043223 -0.04153508
v -0.52607980 -1.05030000 -0.04153508
v -0.51864730 -1.05030000 -0.04153508
v 0.46516170 0.98825800 -0.04153508
v 0.45812930 0.98129100 -0.04153508
v -0.46543470 -1.04043223 -0.04153508
v -0.45840230 0.98129100 -0.04153508
v -0.46543470 0.98825800 -0.04153508
v -0.46543470 -1.05030000 -0.04153508
v -0.45840230 -1.04043223 -0.04153508
v -0.45840230 -1.05030000 -0.04153508
v 0.52580670 -1.04043224 0.04163508
v 0.52580670 -1.05030000 -0.04153508
v 0.52580670 -1.05030000 0.04163508
v 0.52580670 -1.04043224 -0.04153508
v 0.52580670 1.04833400 0.04163508
v 0.52580670 1.04833400 -0.04153508
v -0.52607980 -1.05030000 0.04163508
v -0.51864730 -1.05030000 -0.04153508
v -0.52607980 -1.05030000 -0.04153508
v -0.51864730 -1.05030000 0.04163508
v -0.46543470 -1.05030000 -0.04153508
v -0.46543470 -1.05030000 0.04163508
v -0.45840230 -1.05030000 -0.04153508
v -0.45840230 -1.05030000 0.04163508
v 0.52580670 -1.05030000 -0.04153508
v 0.51837410 -1.05030000 0.04163508
v 0.52580670 -1.05030000 0.04163508
v 0.51837410 -1.05030000 -0.04153508
v 0.46516170 -1.05030000 0.04163508
v 0.46516170 -1.05030000 -0.04153508
v 0.45812930 -1.05030000 0.04163508
v 0.45812930 -1.05030000 -0.04153508
v 0.46516170 0.98825800 0.05635188
v 0.51837410 -1.04043224 0.05635188
v 0.46516170 -1.04043225 0.05635188
v 0.51837410 1.04097100 0.05635188
v -0.51864730 1.04097100 0.05635188
v -0.46543470 0.98825800 0.05635188
v -0.46543460 -1.04043223 0.05635188
v -0.51864720 -1.04043223 0.05635188
v 0.51837410 1.04097100 -0.05625188
v 0.46516170 -1.04043225 -0.05625188
v 0.51837410 -1.04043224 -0.05625188
v 0.46516170 0.98825800 -0.05625188
v -0.46543470 0.98825800 -0.05625188
v -0.51864730 1.04097100 -0.05625188
v -0.51864730 -1.04043223 -0.05625188
v -0.46543470 -1.04043223 -0.05625188
v 0.46516170 0.98825800 -0.04153508
v 0.46516170 0.98825800 -0.05625188
v -0.46543470 0.98825800 -0.05625188
v -0.46543470 0.98825800 -0.04153508
v -0.51864730 1.04097100 -0.04153508
v -0.51864730 1.04097100 -0.05625188
v 0.51837410 1.04097100 -0.05625188
v 0.51837410 1.04097100 -0.04153508
v 0.51837410 1.04097100 -0.04153508
v 0.51837410 1.04097100 -0.05625188
v 0.51837410 -1.04043224 -0.05625188
v 0.51837410 -1.04043224 -0.04153508
v 0.51837410 -1.04043224 -0.04153508
v 0.51837410 -1.04043224 -0.05625188
v 0.46516170 -1.04043225 -0.05625188
v 0.46516170 -1.04043225 -0.04153508
v 0.46516170 -1.04043225 -0.04153508
v 0.46516170 -1.04043225 -0.05625188
v 0.46516170 0.98825800 -0.05625188
v 0.46516170 0.98825800 -0.04153508
v -0.46543470 0.98825800 -0.04153508
v -0.46543470 0.98825800 -0.05625188
v -0.46543470 -1.04043223 -0.05625188
v -0.46543470 -1.04043223 -0.04153508
v -0.46543470 -1.04043223 -0.04153508
v -0.46543470 -1.04043223 -0.05625188
v -0.51864730 -1.04043223 -0.05625188
v -0.51864730 -1.04043223 -0.04153508
v -0.51864730 -1.04043223 -0.04153508
v -0.51864730 -1.04043223 -0.05625188
v -0.51864730 1.04097100 -0.05625188
v -0.51864730 1.04097100 -0.04153508
v 0.51837410 1.04097100 0.04163508
v 0.51837410 1.04097100 0.05635188
v -0.51864730 1.04097100 0.05635188
v -0.51864730 1.04097100 0.04163508
v -0.46543470 0.98825800 0.04163508
v -0.46543470 0.98825800 0.05635188
v 0.46516170 0.98825800 0.05635188
v 0.46516170 0.98825800 0.04163508
v 0.46516170 0.98825800 0.04163508
v 0.46516170 0.98825800 0.05635188
v 0.46516170 -1.04043225 0.05635188
v 0.46516170 -1.04043225 0.04163508
v 0.46516170 -1.04043225 0.04163508
v 0.46516170 -1.04043225 0.05635188
v 0.51837410 -1.04043224 0.05635188
v 0.51837410 -1.04043224 0.04163508
v 0.51837410 -1.04043224 0.04163508
v 0.51837410 -1.04043224 0.05635188
v 0.51837410 1.04097100 0.05635188
v 0.51837410 1.04097100 0.04163508
v -0.51864730 1.04097100 0.04163508
v -0.51864730 1.04097100 0.05635188
v -0.51864720 -1.04043223 0.05635188
v -0.51864720 -1.04043223 0.04163508
v -0.51864720 -1.04043223 0.04163508
v -0.51864720 -1.04043223 0.05635188
v -0.46543460 -1.04043223 0.05635188
v -0.46543460 -1.04043223 0.04163508
v -0.46543460 -1.04043223 0.04163508
v -0.46543460 -1.04043223 0.05635188
v -0.46543470 0.98825800 0.05635188
v -0.46543470 0.98825800 0.04163508
v 0.33313517 -0.16606901 -0.02558700
v -0.32953503 -0.16606901 -0.02558700
v -0.32953503 -0.94530001 -0.02558700
v 0.33313517 -0.94530001 -0.02558700
v -0.45539989 -0.05213459 -0.02558700
v -0.45539989 -1.05030021 0.02568680
v -0.45539989 -1.05030021 -0.02558700
v -0.45539989 -0.05213459 0.02568680
v -0.45539989 0.55111719 -0.02558700
v -0.45539989 0.55111719 0.02568680
v -0.45539989 0.98169979 -0.02558700
v -0.45539989 0.98169979 0.02568680
v 0.45900007 -1.05030021 -0.02558700
v 0.45900007 -1.05030021 0.02568680
v 0.45900007 -0.05213459 0.02568680
v 0.45900007 -0.05213459 -0.02558700
v 0.45900007 0.55111719 0.02568680
v 0.45900007 0.55111719 -0.02558700
v 0.45900007 0.98169979 0.02568680
v 0.45900007 0.98169979 -0.02558700
v 0.45900007 0.98169979 -0.02558700
v 0.45900007 0.98169979 0.02568680
v -0.45539989 0.98169979 0.02568680
v -0.45539989 0.98169979 -0.02558700
v 0.45900007 -1.05030021 0.02568680
v 0.45900007 -1.05030021 -0.02558700
v -0.45539989 -1.05030021 -0.02558700
v -0.45539989 -1.05030021 0.02568680
v -0.32953503 0.44611709 -0.02558700
v -0.32953503 0.05286525 -0.02558700
v 0.33313517 0.05286525 -0.02558700
v 0.33313517 0.44611709 -0.02558700
v -0.32953503 0.87669919 -0.02558700
v -0.32953503 0.65611739 -0.02558700
v 0.33313517 0.65611739 -0.02558700
v 0.33313517 0.87669919 -0.02558700
v 0.40753387 -0.09420544 -0.02558700
v 0.34913527 -0.15006901 -0.01442001
v 0.34913527 -0.96130001 -0.01442001
v 0.40753387 -1.00574901 -0.02558700
v 0.36713517 0.01886531 -0.01442001
v -0.36353504 0.01886531 -0.01442001
v -0.40339519 -0.01027783 -0.02558700
v 0.40699537 -0.01027783 -0.02558700
v 0.40699537 0.50926019 -0.02558700
v 0.36713517 0.48011719 -0.01442001
v 0.36713517 0.01886531 -0.01442001
v 0.40699537 -0.01027783 -0.02558700
v -0.36353504 0.91069929 -0.01442001
v 0.36713517 0.91069929 -0.01442001
v 0.40729447 0.94235749 -0.02558700
v -0.40369434 0.94235749 -0.02558700
v 0.36713517 0.62211729 -0.01442001
v -0.36353504 0.62211729 -0.01442001
v -0.40369434 0.59045919 -0.02558700
v 0.40729447 0.59045919 -0.02558700
v 0.40729447 0.94235749 -0.02558700
v 0.36713517 0.91069929 -0.01442001
v 0.36713517 0.62211729 -0.01442001
v 0.40729447 0.59045919 -0.02558700
v 0.34913527 -0.96130001 -0.01442001
v -0.34553503 -0.96130001 -0.01442001
v -0.40393371 -1.00574901 -0.02558700
v 0.40753387 -1.00574901 -0.02558700
v -0.40393371 -0.09420544 -0.02558700
v -0.40393371 -1.00574901 -0.02558700
v -0.34553503 -0.96130001 -0.01442001
v -0.34553503 -0.15006901 -0.01442001
v -0.34553503 -0.15006901 -0.01442001
v 0.34913527 -0.15006901 -0.01442001
v 0.40753387 -0.09420544 -0.02558700
v -0.40393371 -0.09420544 -0.02558700
v -0.40339519 0.50926019 -0.02558700
v -0.40339519 -0.01027783 -0.02558700
v -0.36353504 0.01886531 -0.01442001
v -0.36353504 0.48011719 -0.01442001
v -0.36353504 0.48011719 -0.01442001
v 0.36713517 0.48011719 -0.01442001
v 0.40699537 0.50926019 -0.02558700
v -0.40339519 0.50926019 -0.02558700
v -0.40369434 0.94235749 -0.02558700
v -0.40369434 0.59045919 -0.02558700
v -0.36353504 0.62211729 -0.01442001
v -0.36353504 0.91069929 -0.01442001
v 0.33313517 -0.94530001 -0.02558700
v -0.32953503 -0.94530001 -0.02558700
v -0.34553503 -0.96130001 -0.01442001
v 0.34913527 -0.96130001 -0.01442001
v 0.34913527 -0.15006901 -0.01442001
v 0.33313517 -0.16606901 -0.02558700
v 0.33313517 -0.94530001 -0.02558700
v 0.34913527 -0.96130001 -0.01442001
v -0.34553503 -0.96130001 -0.01442001
v -0.32953503 -0.94530001 -0.02558700
v -0.32953503 -0.16606901 -0.02558700
v -0.34553503 -0.15006901 -0.01442001
v 0.33313517 -0.16606901 -0.02558700
v 0.34913527 -0.15006901 -0.01442001
v -0.34553503 -0.15006901 -0.01442001
v -0.32953503 -0.16606901 -0.02558700
v -0.36353504 0.01886531 -0.01442001
v -0.32953503 0.05286525 -0.02558700
v -0.32953503 0.44611709 -0.02558700
v -0.36353504 0.48011719 -0.01442001
v -0.32953503 0.44611709 -0.02558700
v 0.33313517 0.44611709 -0.02558700
v 0.36713517 0.48011719 -0.01442001
v -0.36353504 0.48011719 -0.01442001
v -0.32953503 0.05286525 -0.02558700
v -0.36353504 0.01886531 -0.01442001
v 0.36713517 0.01886531 -0.01442001
v 0.33313517 0.05286525 -0.02558700
v 0.36713517 0.48011719 -0.01442001
v 0.33313517 0.44611709 -0.02558700
v 0.33313517 0.05286525 -0.02558700
v 0.36713517 0.01886531 -0.01442001
v -0.36353504 0.62211729 -0.01442001
v -0.32953503 0.65611739 -0.02558700
v -0.32953503 0.87669919 -0.02558700
v -0.36353504 0.91069929 -0.01442001
v -0.32953503 0.87669919 -0.02558700
v 0.33313517 0.87669919 -0.02558700
v 0.36713517 0.91069929 -0.01442001
v -0.36353504 0.91069929 -0.01442001
v -0.32953503 0.65611739 -0.02558700
v -0.36353504 0.62211729 -0.01442001
v 0.36713517 0.62211729 -0.01442001
v 0.33313517 0.65611739 -0.02558700
v 0.36713517 0.91069929 -0.01442001
v 0.33313517 0.87669919 -0.02558700
v 0.33313517 0.65611739 -0.02558700
v 0.36713517 0.62211729 -0.01442001
v 0.33313517 -0.16606901 0.02568680
v 0.33313517 -0.94530001 0.02568680
v -0.32953503 -0.94530001 0.02568680
v -0.32953503 -0.16606901 0.02568680
v -0.32953503 0.44611709 0.02568680
v 0.33313517 0.44611709 0.02568680
v 0.33313517 0.05286525 0.02568680
v -0.32953503 0.05286525 0.02568680
v -0.32953503 0.87669919 0.02568680
v 0.33313517 0.87669919 0.02568680
v 0.33313517 0.65611739 0.02568680
v -0.32953503 0.65611739 0.02568680
v 0.40753387 -0.09420544 0.02568680
v 0.34913527 -0.15006901 0.01452042
v -0.34553503 -0.15006901 0.01452042
v -0.40393371 -0.09420544 0.02568680
v -0.40393371 -1.00574901 0.02568680
v -0.34553503 -0.96130001 0.01452042
v 0.34913527 -0.96130001 0.01452042
v 0.40753387 -1.00574901 0.02568680
v -0.40393371 -0.09420544 0.02568680
v -0.34553503 -0.15006901 0.01452042
v -0.34553503 -0.96130001 0.01452042
v -0.40393371 -1.00574901 0.02568680
v 0.40753387 -0.09420544 0.02568680
v 0.40753387 -1.00574901 0.02568680
v 0.34913527 -0.96130001 0.01452042
v 0.34913527 -0.15006901 0.01452042
v -0.36353504 0.01886531 0.01452042
v 0.36713517 0.01886531 0.01452042
v 0.40699537 -0.01027783 0.02568680
v -0.40339519 -0.01027783 0.02568680
v 0.40699537 0.50926019 0.02568680
v 0.40699537 -0.01027783 0.02568680
v 0.36713517 0.01886531 0.01452042
v 0.36713517 0.48011719 0.01452042
v -0.36353504 0.62211729 0.01452042
v 0.36713517 0.62211729 0.01452042
v 0.40729447 0.59045919 0.02568680
v -0.40369434 0.59045919 0.02568680
v 0.36713517 0.91069929 0.01452042
v -0.36353504 0.91069929 0.01452042
v -0.40369434 0.94235749 0.02568680
v 0.40729447 0.94235749 0.02568680
v 0.40729447 0.94235749 0.02568680
v 0.40729447 0.59045919 0.02568680
v 0.36713517 0.62211729 0.01452042
v 0.36713517 0.91069929 0.01452042
v -0.40339519 0.50926019 0.02568680
v -0.36353504 0.48011719 0.01452042
v -0.36353504 0.01886531 0.01452042
v -0.40339519 -0.01027783 0.02568680
v 0.36713517 0.48011719 0.01452042
v -0.36353504 0.48011719 0.01452042
v -0.40339519 0.50926019 0.02568680
v 0.40699537 0.50926019 0.02568680
v -0.40369434 0.94235749 0.02568680
v -0.36353504 0.91069929 0.01452042
v -0.36353504 0.62211729 0.01452042
v -0.40369434 0.59045919 0.02568680
v 0.33313517 -0.16606901 0.02568680
v -0.32953503 -0.16606901 0.02568680
v -0.34553503 -0.15006901 0.01452042
v 0.34913527 -0.15006901 0.01452042
v 0.34913527 -0.15006901 0.01452042
v 0.34913527 -0.96130001 0.01452042
v 0.33313517 -0.94530001 0.02568680
v 0.33313517 -0.16606901 0.02568680
v 0.33313517 -0.94530001 0.02568680
v 0.34913527 -0.96130001 0.01452042
v -0.34553503 -0.96130001 0.01452042
v -0.32953503 -0.94530001 0.02568680
v -0.34553503 -0.96130001 0.01452042
v -0.34553503 -0.15006901 0.01452042
v -0.32953503 -0.16606901 0.02568680
v -0.32953503 -0.94530001 0.02568680
v -0.32953503 0.05286525 0.02568680
v 0.33313517 0.05286525 0.02568680
v 0.36713517 0.01886531 0.01452042
v -0.36353504 0.01886531 0.01452042
v -0.36353504 0.01886531 0.01452042
v -0.36353504 0.48011719 0.01452042
v -0.32953503 0.44611709 0.02568680
v -0.32953503 0.05286525 0.02568680
v -0.32953503 0.44611709 0.02568680
v -0.36353504 0.48011719 0.01452042
v 0.36713517 0.48011719 0.01452042
v 0.33313517 0.44611709 0.02568680
v 0.36713517 0.48011719 0.01452042
v 0.36713517 0.01886531 0.01452042
v 0.33313517 0.05286525 0.02568680
v 0.33313517 0.44611709 0.02568680
v -0.32953503 0.65611739 0.02568680
v 0.33313517 0.65611739 0.02568680
v 0.36713517 0.62211729 0.01452042
v -0.36353504 0.62211729 0.01452042
v -0.36353504 0.62211729 0.01452042
v -0.36353504 0.91069929 0.01452042
v -0.32953503 0.87669919 0.02568680
v -0.32953503 0.65611739 0.02568680
v -0.32953503 0.87669919 0.02568680
v -0.36353504 0.91069929 0.01452042
v 0.36713517 0.91069929 0.01452042
v 0.33313517 0.87669919 0.02568680
v 0.36713517 0.91069929 0.01452042
v 0.36713517 0.62211729 0.01452042
v 0.33313517 0.65611739 0.02568680
v 0.33313517 0.87669919 0.02568680
v 0.45900007 -0.05213459 -0.02558700
v 0.40753387 -0.09420544 -0.02558700
v 0.40753387 -1.00574901 -0.02558700
v -0.40393371 -0.09420544 -0.02558700
v 0.45900007 -1.05030021 -0.02558700
v -0.45539989 -1.05030021 -0.02558700
v -0.40393371 -1.00574901 -0.02558700
v -0.45539989 -0.05213459 -0.02558700
v 0.40699537 -0.01027783 -0.02558700
v 0.45900007 0.55111719 -0.02558700
v -0.40339519 -0.01027783 -0.02558700
v 0.40699537 0.50926019 -0.02558700
v -0.40339519 0.50926019 -0.02558700
v -0.45539989 0.55111719 -0.02558700
v 0.40729447 0.59045919 -0.02558700
v 0.45900007 0.98169979 -0.02558700
v -0.40369434 0.59045919 -0.02558700
v 0.40729447 0.94235749 -0.02558700
v -0.40369434 0.94235749 -0.02558700
v -0.45539989 0.98169979 -0.02558700
v 0.45900007 0.55111719 0.02568680
v 0.40699537 0.50926019 0.02568680
v -0.40339519 0.50926019 0.02568680
v 0.40699537 -0.01027783 0.02568680
v -0.45539989 0.55111719 0.02568680
v -0.40339519 -0.01027783 0.02568680
v 0.45900007 -0.05213459 0.02568680
v -0.45539989 -0.05213459 0.02568680
v -0.40369434 0.59045919 0.02568680
v -0.45539989 0.98169979 0.02568680
v 0.40729447 0.59045919 0.02568680
v -0.40369434 0.94235749 0.02568680
v 0.45900007 0.98169979 0.02568680
v 0.40729447 0.94235749 0.02568680
v 0.40753387 -0.09420544 0.02568680
v -0.40393371 -0.09420544 0.02568680
v 0.40753387 -1.00574901 0.02568680
v -0.45539989 -1.05030021 0.02568680
v 0.45900007 -1.05030021 0.02568680
v -0.40393371 -1.00574901 0.02568680
v 0.42835037 -0.06878716 0.07007563
v 0.42351928 -0.08045037 0.00005000
v 0.42351928 -0.08045037 0.05841242
v 0.42835033 -0.06878716 0.00005000
v 0.42351928 -0.05712395 0.05841242
v 0.42351928 -0.05712395 0.00005000
v 0.42351928 -0.05712395 -0.05831242
v 0.42835037 -0.06878716 -0.06997563
v 0.42351928 -0.08045037 -0.05831242
v 0.41185600 -0.08528145 0.05358088
v 0.40019272 -0.08045037 0.00005000
v 0.40019272 -0.08045037 0.05841242
v 0.41185600 -0.08528145 0.00005000
v 0.42351928 -0.08045037 0.05841242
v 0.42351928 -0.08045037 0.00005000
v 0.42351928 -0.08045037 -0.05831242
v 0.41185600 -0.08528145 -0.05348088
v 0.40019272 -0.08045037 -0.05831242
v 0.41185600 -0.05229271 0.05358088
v 0.42351928 -0.05712395 0.00005000
v 0.42351928 -0.05712395 0.05841242
v 0.41185600 -0.05229271 0.00005000
v 0.40019275 -0.05712380 0.05841242
v 0.40019272 -0.05712395 0.00005000
v 0.40019275 -0.05712380 -0.05831242
v 0.41185600 -0.05229271 -0.05348088
v 0.42351928 -0.05712395 -0.05831242
v 0.42835037 -0.00221302 0.07007563
v 0.42351928 -0.00221302 0.05841242
v 0.42351928 -0.05712395 0.05841242
v 0.42835037 -0.06878716 0.07007563
v 0.42351928 -0.00221302 0.08173884
v 0.42351928 -0.06878716 0.08173884
v 0.42351928 -0.20164268 0.08173884
v 0.42835037 -0.20164268 0.07007563
v 0.42351928 -0.08045037 0.05841242
v 0.42351928 -0.18997932 0.05841242
v 0.42835033 -0.26821682 0.07007563
v 0.42351928 -0.26821682 0.08173884
v 0.42351928 -0.21330589 0.05841242
v 0.42351925 -0.26821682 0.05841242
v 0.42351928 -0.00221302 0.05841242
v 0.41185600 -0.05229271 0.05358088
v 0.42351928 -0.05712395 0.05841242
v 0.41185600 -0.00221302 0.05358088
v 0.40019275 -0.05712380 0.05841242
v 0.40019272 -0.00221302 0.05841242
v 0.41185600 -0.00221302 0.08656977
v 0.42351928 -0.00221302 0.08173884
v 0.42351928 -0.06878716 0.08173884
v 0.41185600 -0.06878716 0.08656977
v 0.40019272 -0.00221302 0.08173884
v 0.40019272 -0.06878716 0.08173884
v 0.40019275 -0.20164268 0.08173884
v 0.41185600 -0.20164268 0.08656977
v 0.42351928 -0.20164268 0.08173884
v 0.42351928 -0.26821682 0.08173884
v 0.41185600 -0.26821682 0.08656977
v 0.40019272 -0.26821682 0.08173884
v 0.40019272 -0.00221302 0.05841242
v 0.39536163 -0.06878716 0.07007563
v 0.40019275 -0.05712380 0.05841242
v 0.39536167 -0.00221302 0.07007563
v 0.40019272 -0.06878716 0.08173884
v 0.40019272 -0.00221302 0.08173884
v 0.39536163 -0.20164268 0.07007563
v 0.40019275 -0.20164268 0.08173884
v 0.40019272 -0.26821682 0.08173884
v 0.39536163 -0.26821682 0.07007563
v 0.40019272 -0.26821682 0.05841242
v 0.40019272 -0.21330589 0.05841242
v 0.40019272 -0.18997932 0.05841242
v 0.40019272 -0.08045037 0.05841242
v 0.41185600 -0.21813698 0.05358088
v 0.42351925 -0.26821682 0.05841242
v 0.42351928 -0.21330589 0.05841242
v 0.41185600 -0.26821682 0.05358088
v 0.40019272 -0.21330589 0.05841242
v 0.40019272 -0.26821682 0.05841242
v 0.42835037 -0.20164268 0.07007563
v 0.42351928 -0.21330589 0.00005000
v 0.42351928 -0.21330589 0.05841242
v 0.42835037 -0.20164268 0.00005000
v 0.42351928 -0.18997932 0.05841242
v 0.42351928 -0.18997932 0.00005000
v 0.42351928 -0.18997932 -0.05831242
v 0.42835037 -0.20164268 -0.06997563
v 0.42351928 -0.21330589 -0.05831242
v 0.41185600 -0.21813698 0.05358088
v 0.40019272 -0.21330589 0.00005000
v 0.40019272 -0.21330589 0.05841242
v 0.41185600 -0.21813698 0.00005000
v 0.42351928 -0.21330589 0.05841242
v 0.42351928 -0.21330589 0.00005000
v 0.42351928 -0.21330589 -0.05831242
v 0.41185600 -0.21813698 -0.05348088
v 0.40019272 -0.21330589 -0.05831242
v 0.41185600 -0.18514824 0.05358088
v 0.42351928 -0.18997932 0.00005000
v 0.42351928 -0.18997932 0.05841242
v 0.41185600 -0.18514824 0.00005000
v 0.40019272 -0.18997932 0.05841242
v 0.40019272 -0.18997932 0.00005000
v 0.40019272 -0.18997932 -0.05831242
v 0.41185600 -0.18514824 -0.05348088
v 0.42351928 -0.18997932 -0.05831242
v 0.41185600 -0.08528145 0.05358088
v 0.42351928 -0.18997932 0.05841242
v 0.42351928 -0.08045037 0.05841242
v 0.41185600 -0.18514824 0.05358088
v 0.40019272 -0.08045037 0.05841242
v 0.40019272 -0.18997932 0.05841242
v 0.42835037 -0.00221302 -0.06997563
v 0.42351928 -0.05712395 -0.05831242
v 0.42351928 -0.00221302 -0.05831242
v 0.42835037 -0.06878716 -0.06997563
v 0.42351928 -0.00221302 -0.08163884
v 0.42351928 -0.06878716 -0.08163884
v 0.42351928 -0.20164268 -0.08163884
v 0.42835037 -0.20164268 -0.06997563
v 0.42351928 -0.08045037 -0.05831242
v 0.42351928 -0.18997932 -0.05831242
v 0.42835033 -0.26821682 -0.06997563
v 0.42351928 -0.26821682 -0.08163884
v 0.42351928 -0.21330589 -0.05831242
v 0.42351925 -0.26821682 -0.05831242
v 0.42351928 -0.00221302 -0.05831242
v 0.42351928 -0.05712395 -0.05831242
v 0.41185600 -0.05229271 -0.05348088
v 0.41185600 -0.00221302 -0.05348088
v 0.40019275 -0.05712380 -0.05831242
v 0.40019272 -0.00221302 -0.05831242
v 0.41185600 -0.00221302 -0.08646977
v 0.42351928 -0.06878716 -0.08163884
v 0.42351928 -0.00221302 -0.08163884
v 0.41185600 -0.06878716 -0.08646977
v 0.40019272 -0.00221302 -0.08163884
v 0.40019272 -0.06878716 -0.08163884
v 0.40019275 -0.20164268 -0.08163884
v 0.41185600 -0.20164268 -0.08646977
v 0.42351928 -0.20164268 -0.08163884
v 0.42351928 -0.26821682 -0.08163884
v 0.41185600 -0.26821682 -0.08646977
v 0.40019272 -0.26821682 -0.08163884
v 0.40019272 -0.00221302 -0.05831242
v 0.40019275 -0.05712380 -0.05831242
v 0.39536163 -0.06878716 -0.06997563
v 0.39536167 -0.00221302 -0.06997563
v 0.40019272 -0.06878716 -0.08163884
v 0.40019272 -0.00221302 -0.08163884
v 0.39536163 -0.20164268 -0.06997563
v 0.40019275 -0.20164268 -0.08163884
v 0.40019272 -0.26821682 -0.08163884
v 0.39536163 -0.26821682 -0.06997563
v 0.40019272 -0.26821682 -0.05831242
v 0.40019272 -0.21330589 -0.05831242
v 0.40019272 -0.18997932 -0.05831242
v 0.40019272 -0.08045037 -0.05831242
v 0.41185600 -0.21813698 -0.05348088
v 0.42351928 -0.21330589 -0.05831242
v 0.42351925 -0.26821682 -0.05831242
v 0.41185600 -0.26821682 -0.05348088
v 0.40019272 -0.21330589 -0.05831242
v 0.40019272 -0.26821682 -0.05831242
v 0.41185600 -0.08528145 -0.05348088
v 0.42351928 -0.08045037 -0.05831242
v 0.42351928 -0.18997932 -0.05831242
v 0.41185600 -0.18514824 -0.05348088
v 0.40019272 -0.08045037 -0.05831242
v 0.40019272 -0.18997932 -0.05831242
v 0.41185600 -0.00221302 0.07007563
v 0.41185600 -0.00221302 0.05358088
v 0.42351928 -0.00221302 0.05841242
v 0.42835037 -0.00221302 0.07007563
v 0.40019272 -0.00221302 0.05841242
v 0.42351928 -0.00221302 0.08173884
v 0.39536167 -0.00221302 0.07007563
v 0.41185600 -0.00221302 0.08656977
v 0.40019272 -0.00221302 0.08173884
v 0.40019272 -0.08045037 0.05841242
v 0.39536163 -0.06878716 0.00005000
v 0.39536163 -0.06878716 0.07007563
v 0.40019272 -0.08045037 0.00005000
v 0.40019275 -0.05712380 0.05841242
v 0.40019272 -0.08045037 -0.05831242
v 0.40019272 -0.05712395 0.00005000
v 0.39536163 -0.06878716 -0.06997563
v 0.40019275 -0.05712380 -0.05831242
v 0.42351925 -0.26821682 0.05841242
v 0.41185600 -0.26821682 0.05358088
v 0.41185600 -0.26821682 0.07007563
v 0.42835033 -0.26821682 0.07007563
v 0.40019272 -0.26821682 0.05841242
v 0.42351928 -0.26821682 0.08173884
v 0.39536163 -0.26821682 0.07007563
v 0.41185600 -0.26821682 0.08656977
v 0.40019272 -0.26821682 0.08173884
v 0.40019272 -0.21330589 0.05841242
v 0.39536163 -0.20164268 0.00005000
v 0.39536163 -0.20164268 0.07007563
v 0.40019272 -0.21330589 0.00005000
v 0.40019272 -0.18997932 0.05841242
v 0.40019272 -0.21330589 -0.05831242
v 0.40019272 -0.18997932 0.00005000
v 0.39536163 -0.20164268 -0.06997563
v 0.40019272 -0.18997932 -0.05831242
v 0.41185600 -0.00221302 -0.06997563
v 0.42351928 -0.00221302 -0.05831242
v 0.41185600 -0.00221302 -0.05348088
v 0.42835037 -0.00221302 -0.06997563
v 0.40019272 -0.00221302 -0.05831242
v 0.42351928 -0.00221302 -0.08163884
v 0.39536167 -0.00221302 -0.06997563
v 0.41185600 -0.00221302 -0.08646977
v 0.40019272 -0.00221302 -0.08163884
v 0.42351925 -0.26821682 -0.05831242
v 0.42835033 -0.26821682 -0.06997563
v 0.41185600 -0.26821682 -0.06997563
v 0.41185600 -0.26821682 -0.05348088
v 0.42351928 -0.26821682 -0.08163884
v 0.40019272 -0.26821682 -0.05831242
v 0.41185600 -0.26821682 -0.08646977
v 0.39536163 -0.26821682 -0.06997563
v 0.40019272 -0.26821682 -0.08163884
vt 0.60811000 0.45312000
vt 0.60811000 0.80955710
vt 0.47815500 0.80955710
vt 0.47815500 0.45312000
vt 0.54563800 0.89916520
vt 0.41568500 0.89916520
vt 0.41568500 0.33124700
vt 0.54563800 0.33124700
vt 0.56617600 0.17223550
vt 0.69613000 0.15681680
vt 0.56617600 0.15681680
vt 0.69613000 0.17223550
vt 0.56617600 0.33117900
vt 0.69613000 0.33117900
vt 0.20554000 0.87629100
vt 0.19392600 0.89171100
vt 0.20554000 0.89171100
vt 0.19392600 0.87629100
vt 0.11077900 0.89171100
vt 0.20554000 0.61252700
vt 0.19392600 0.62403300
vt 0.11077900 0.87629100
vt 0.09979200 0.89171100
vt 0.09979200 0.87629100
vt 0.57355000 0.62403300
vt 0.56193000 0.61252700
vt 0.56193000 0.87629100
vt 0.11077900 0.70639900
vt 0.09979200 0.71728300
vt 0.57355000 0.87629100
vt 0.56193000 0.89171100
vt 0.57355000 0.89171100
vt 0.66768000 0.71728300
vt 0.65669000 0.70639900
vt 0.65669000 0.87629100
vt 0.65669000 0.89171100
vt 0.66768000 0.87629100
vt 0.66768000 0.89171100
vt 0.59140100 0.62799600
vt 0.59140100 0.61257800
vt 0.46144600 0.61257800
vt 0.46144600 0.62799600
vt 0.46144600 0.89166000
vt 0.59140100 0.89166000
vt 0.54062800 0.17224790
vt 0.67058200 0.15682950
vt 0.54062800 0.15682950
vt 0.67058200 0.17224790
vt 0.54062800 0.33116700
vt 0.67058200 0.33116700
vt 0.30545000 0.62799300
vt 0.31706000 0.61257400
vt 0.30545000 0.61257400
vt 0.31706000 0.62799300
vt 0.30545000 0.89166400
vt 0.31706000 0.88015900
vt 0.40021000 0.62799300
vt 0.93739400 0.88015900
vt 0.94900800 0.89166400
vt 0.94900800 0.62799300
vt 0.40021000 0.61257400
vt 0.41119000 0.61257400
vt 0.41119000 0.62799300
vt 0.93739400 0.62799300
vt 0.94900800 0.61257400
vt 0.93739400 0.61257400
vt 0.40021000 0.79779500
vt 0.41119000 0.78691000
vt 0.85425000 0.62799300
vt 0.84326200 0.78691000
vt 0.85425000 0.79779500
vt 0.85425000 0.61257400
vt 0.84326200 0.62799300
vt 0.84326200 0.61257400
vt 0.48871400 0.62798100
vt 0.61866900 0.61256300
vt 0.48871400 0.61256300
vt 0.61866900 0.62798100
vt 0.48871400 0.89167500
vt 0.61866900 0.89167500
vt 0.50983200 0.45090500
vt 0.49821900 0.58085810
vt 0.50983200 0.58085810
vt 0.49821900 0.45090500
vt 0.41507500 0.58085810
vt 0.41507500 0.45090500
vt 0.40408700 0.58085810
vt 0.40408700 0.45090500
vt 0.38223200 0.58085830
vt 0.39384500 0.45090480
vt 0.38223200 0.45090480
vt 0.39384500 0.58085830
vt 0.47699000 0.45090480
vt 0.47699000 0.58085830
vt 0.48797800 0.45090480
vt 0.48797800 0.58085830
vt 0.08027900 0.20619960
vt 0.99714000 0.37603300
vt 0.08027900 0.37603300
vt 0.99714000 0.12383570
vt 0.61748500 0.12383570
vt 0.53433900 0.20619960
vt 0.53433900 0.37603300
vt 0.61748500 0.37603300
vt 0.88447000 0.87616300
vt 0.96762000 0.62396800
vt 0.88447000 0.62396800
vt 0.96762000 0.79379900
vt 0.42167400 0.79379900
vt 0.50482000 0.87616300
vt 0.50482000 0.62396800
vt 0.42167400 0.62396800
vt 0.49578500 0.34390400
vt 0.51878000 0.34390400
vt 0.51878000 0.88986040
vt 0.49578500 0.88986040
vt 0.53724100 0.81938310
vt 0.51424700 0.81938310
vt 0.51424700 0.43975100
vt 0.53724100 0.43975100
vt 0.66473700 0.37605900
vt 0.68773300 0.37605900
vt 0.68773300 0.12381090
vt 0.66473700 0.12381090
vt 0.40806400 0.55388330
vt 0.43105900 0.55388330
vt 0.43105900 0.47073800
vt 0.40806400 0.47073800
vt 0.59971200 0.15868700
vt 0.57671700 0.15868700
vt 0.57671700 0.32861700
vt 0.59971200 0.32861700
vt 0.56748700 0.32859200
vt 0.59048200 0.32859200
vt 0.59048200 0.15871180
vt 0.56748700 0.15871180
vt 0.39883300 0.55388330
vt 0.42182800 0.55388330
vt 0.42182800 0.47073800
vt 0.39883300 0.47073800
vt 0.67850200 0.12378480
vt 0.65550700 0.12378480
vt 0.65550700 0.37608500
vt 0.67850200 0.37608500
vt 0.50501500 0.43978000
vt 0.52801000 0.43978000
vt 0.52801000 0.81935380
vt 0.50501500 0.81935380
vt 0.50954900 0.88985880
vt 0.48655400 0.88985880
vt 0.48655400 0.34390600
vt 0.50954900 0.34390600
vt 0.55825700 0.33269500
vt 0.58125000 0.33269500
vt 0.58125000 0.16282440
vt 0.55825700 0.16282440
vt 0.41259800 0.47073910
vt 0.38960300 0.47073910
vt 0.38960300 0.55388190
vt 0.41259800 0.55388190
vt 0.66927100 0.12377230
vt 0.64627600 0.12377230
vt 0.64627600 0.37609800
vt 0.66927100 0.37609800
vt 0.63704500 0.37610500
vt 0.66004000 0.37610500
vt 0.66004000 0.12376460
vt 0.63704500 0.12376460
vt 0.40336700 0.47073800
vt 0.38037200 0.47073800
vt 0.38037200 0.55388330
vt 0.40336700 0.55388330
vt 0.57202000 0.16283290
vt 0.54902600 0.16283290
vt 0.54902600 0.33268600
vt 0.57202000 0.33268600
vt 0.69613000 0.27441940
vt 0.73989800 0.27441940
vt 0.73989800 0.04705690
vt 0.69613000 0.04705690
vt 0.41270200 0.45410130
vt 0.49281700 0.89446300
vt 0.41270200 0.89446300
vt 0.49281700 0.45410130
vt 0.41270200 0.39668500
vt 0.49281700 0.39668500
vt 0.41270200 0.06947200
vt 0.49281700 0.06947200
vt 0.52369300 0.89446400
vt 0.44357800 0.89446400
vt 0.44357800 0.45410130
vt 0.52369300 0.45410130
vt 0.44357800 0.39668500
vt 0.52369300 0.39668500
vt 0.44357800 0.06947100
vt 0.52369300 0.06947100
vt 0.91496100 0.93231770
vt 0.99507600 0.93231770
vt 0.99507600 0.50356530
vt 0.91496100 0.50356530
vt 0.94583700 0.93231710
vt 0.02595200 0.93231710
vt 0.02595200 0.50356580
vt 0.94583700 0.50356580
vt 0.73989800 0.23867000
vt 0.73989800 0.61926170
vt 0.69613000 0.61926170
vt 0.69613000 0.23867000
vt 0.73989800 0.91687800
vt 0.73989800 0.56944100
vt 0.69613000 0.56944100
vt 0.69613000 0.91687800
vt 0.57894000 0.38761120
vt 0.67093000 0.29962080
vt 0.67093000 0.02185530
vt 0.57894000 0.95184400
vt 0.64258000 0.56570830
vt 0.79345100 0.56570830
vt 0.85623400 0.51980530
vt 0.57979000 0.51980530
vt 0.57979000 0.33812700
vt 0.64258000 0.29222400
vt 0.64258000 0.56570830
vt 0.57979000 0.51980530
vt 0.79345100 0.97043100
vt 0.64258000 0.97043100
vt 0.57932000 0.02029600
vt 0.85670500 0.02029600
vt 0.64258000 0.51588700
vt 0.79345100 0.51588700
vt 0.85670500 0.46602300
vt 0.57932000 0.46602300
vt 0.57932000 0.02029600
vt 0.64258000 0.97043100
vt 0.64258000 0.51588700
vt 0.57932000 0.46602300
vt 0.67093000 0.02185530
vt 0.76509900 0.02185530
vt 0.85708200 0.95184400
vt 0.57894000 0.95184400
vt 0.85708200 0.38761120
vt 0.85708200 0.95184400
vt 0.76509900 0.02185530
vt 0.76509900 0.29962080
vt 0.76509900 0.29962080
vt 0.67093000 0.29962080
vt 0.57894000 0.38761120
vt 0.85708200 0.38761120
vt 0.85623400 0.33812700
vt 0.85623400 0.51980530
vt 0.79345100 0.56570830
vt 0.79345100 0.29222400
vt 0.79345100 0.29222400
vt 0.64258000 0.29222400
vt 0.57979000 0.33812700
vt 0.85623400 0.33812700
vt 0.85670500 0.02029600
vt 0.85670500 0.46602300
vt 0.79345100 0.51588700
vt 0.79345100 0.97043100
vt 0.69613000 0.04705690
vt 0.73989800 0.04705690
vt 0.76509900 0.02185530
vt 0.67093000 0.02185530
vt 0.67093000 0.29962080
vt 0.69613000 0.27441940
vt 0.69613000 0.04705690
vt 0.67093000 0.02185530
vt 0.76509900 0.02185530
vt 0.73989800 0.04705690
vt 0.73989800 0.27441940
vt 0.76509900 0.29962080
vt 0.69613000 0.27441940
vt 0.67093000 0.29962080
vt 0.76509900 0.29962080
vt 0.73989800 0.27441940
vt 0.79345100 0.56570830
vt 0.73989800 0.61926170
vt 0.73989800 0.23867000
vt 0.79345100 0.29222400
vt 0.73989800 0.23867000
vt 0.69613000 0.23867000
vt 0.64258000 0.29222400
vt 0.79345100 0.29222400
vt 0.73989800 0.61926170
vt 0.79345100 0.56570830
vt 0.64258000 0.56570830
vt 0.69613000 0.61926170
vt 0.64258000 0.29222400
vt 0.69613000 0.23867000
vt 0.69613000 0.61926170
vt 0.64258000 0.56570830
vt 0.79345100 0.51588700
vt 0.73989800 0.56944100
vt 0.73989800 0.91687800
vt 0.79345100 0.97043100
vt 0.73989800 0.91687800
vt 0.69613000 0.91687800
vt 0.64258000 0.97043100
vt 0.79345100 0.97043100
vt 0.73989800 0.56944100
vt 0.79345100 0.51588700
vt 0.64258000 0.51588700
vt 0.69613000 0.56944100
vt 0.64258000 0.97043100
vt 0.69613000 0.91687800
vt 0.69613000 0.56944100
vt 0.64258000 0.51588700
vt 0.24030600 0.27441970
vt 0.24030500 0.04705700
vt 0.19653600 0.04705850
vt 0.19653700 0.27441980
vt 0.19653700 0.23867000
vt 0.24030600 0.23867000
vt 0.24030600 0.61926160
vt 0.19653700 0.61926170
vt 0.19653700 0.91687800
vt 0.24030600 0.91687800
vt 0.24030600 0.56944100
vt 0.19653700 0.56944100
vt 0.35749100 0.38761130
vt 0.26550700 0.29962150
vt 0.17133600 0.29962160
vt 0.07935200 0.38761140
vt 0.07935200 0.95184600
vt 0.17133500 0.02185670
vt 0.26550700 0.02185620
vt 0.35749100 0.95184500
vt 0.07935200 0.38761140
vt 0.17133600 0.29962160
vt 0.17133500 0.02185670
vt 0.07935200 0.95184600
vt 0.35749100 0.38761130
vt 0.35749100 0.95184500
vt 0.26550700 0.02185620
vt 0.26550700 0.29962150
vt 0.14298400 0.56570910
vt 0.29385900 0.56570910
vt 0.35664200 0.51980590
vt 0.08020100 0.51980580
vt 0.35664200 0.33812700
vt 0.35664200 0.51980590
vt 0.29385900 0.56570910
vt 0.29385900 0.29222400
vt 0.14298400 0.51588700
vt 0.29385900 0.51588700
vt 0.35711400 0.46602200
vt 0.07973000 0.46602200
vt 0.29385900 0.97043100
vt 0.14298400 0.97043100
vt 0.07973000 0.02029500
vt 0.35711400 0.02029500
vt 0.35711400 0.02029500
vt 0.35711400 0.46602200
vt 0.29385900 0.51588700
vt 0.29385900 0.97043100
vt 0.08020100 0.33812700
vt 0.14298400 0.29222400
vt 0.14298400 0.56570910
vt 0.08020100 0.51980580
vt 0.29385900 0.29222400
vt 0.14298400 0.29222400
vt 0.08020100 0.33812700
vt 0.35664200 0.33812700
vt 0.07973000 0.02029500
vt 0.14298400 0.97043100
vt 0.14298400 0.51588700
vt 0.07973000 0.46602200
vt 0.24030600 0.27441970
vt 0.19653700 0.27441980
vt 0.17133600 0.29962160
vt 0.26550700 0.29962150
vt 0.26550700 0.29962150
vt 0.26550700 0.02185620
vt 0.24030500 0.04705700
vt 0.24030600 0.27441970
vt 0.24030500 0.04705700
vt 0.26550700 0.02185620
vt 0.17133500 0.02185670
vt 0.19653600 0.04705850
vt 0.17133500 0.02185670
vt 0.17133600 0.29962160
vt 0.19653700 0.27441980
vt 0.19653600 0.04705850
vt 0.19653700 0.61926170
vt 0.24030600 0.61926160
vt 0.29385900 0.56570910
vt 0.14298400 0.56570910
vt 0.14298400 0.56570910
vt 0.14298400 0.29222400
vt 0.19653700 0.23867000
vt 0.19653700 0.61926170
vt 0.19653700 0.23867000
vt 0.14298400 0.29222400
vt 0.29385900 0.29222400
vt 0.24030600 0.23867000
vt 0.29385900 0.29222400
vt 0.29385900 0.56570910
vt 0.24030600 0.61926160
vt 0.24030600 0.23867000
vt 0.19653700 0.56944100
vt 0.24030600 0.56944100
vt 0.29385900 0.51588700
vt 0.14298400 0.51588700
vt 0.14298400 0.51588700
vt 0.14298400 0.97043100
vt 0.19653700 0.91687800
vt 0.19653700 0.56944100
vt 0.19653700 0.91687800
vt 0.14298400 0.97043100
vt 0.29385900 0.97043100
vt 0.24030600 0.91687800
vt 0.29385900 0.97043100
vt 0.29385900 0.51588700
vt 0.24030600 0.56944100
vt 0.24030600 0.91687800
vt 0.49788000 0.45387670
vt 0.57894000 0.38761120
vt 0.57894000 0.95184400
vt 0.85708200 0.38761120
vt 0.49788000 0.88167200
vt 0.93814700 0.88167200
vt 0.85708200 0.95184400
vt 0.93814700 0.45387670
vt 0.57979000 0.51980530
vt 0.49788000 0.40405600
vt 0.85623400 0.51980530
vt 0.57979000 0.33812700
vt 0.85623400 0.33812700
vt 0.93814700 0.40405600
vt 0.57932000 0.46602300
vt 0.49788000 0.08226300
vt 0.85670500 0.46602300
vt 0.57932000 0.02029600
vt 0.85670500 0.02029600
vt 0.93814700 0.08226300
vt 0.43855400 0.40405500
vt 0.35664200 0.33812700
vt 0.08020100 0.33812700
vt 0.35664200 0.51980590
vt 0.99829000 0.40405600
vt 0.08020100 0.51980580
vt 0.43855400 0.45387730
vt 0.99829000 0.45387740
vt 0.07973000 0.46602200
vt 0.99829000 0.08226300
vt 0.35711400 0.46602200
vt 0.07973000 0.02029500
vt 0.43855400 0.08226300
vt 0.35711400 0.02029500
vt 0.35749100 0.38761130
vt 0.07935200 0.38761140
vt 0.35749100 0.95184500
vt 0.99829000 0.88167300
vt 0.43855300 0.88167300
vt 0.07935200 0.95184600
vt 0.08710700 0.43377600
vt 0.20094000 0.41481620
vt 0.10606700 0.41481620
vt 0.20094000 0.43377600
vt 0.10606700 0.45273560
vt 0.20094000 0.45273560
vt 0.29581500 0.45273560
vt 0.31477400 0.43377600
vt 0.29581500 0.41481620
vt 0.96960300 0.05699076
vt 0.98856300 0.14401060
vt 0.98856300 0.04913735
vt 0.96960300 0.14401060
vt 0.95064300 0.04913735
vt 0.95064300 0.14401060
vt 0.95064300 0.23888390
vt 0.96960300 0.23103050
vt 0.98856300 0.23888390
vt 0.90665600 0.88285860
vt 0.88769600 0.79583860
vt 0.88769600 0.89071200
vt 0.90665600 0.79583860
vt 0.92561600 0.89071200
vt 0.92561700 0.79583860
vt 0.92561600 0.70096520
vt 0.90665600 0.70881860
vt 0.88769600 0.70096520
vt 0.08710700 0.54199840
vt 0.10606700 0.54199840
vt 0.10606700 0.45273560
vt 0.08710700 0.43377600
vt 0.06814800 0.54199840
vt 0.06814800 0.43377600
vt 0.06814800 0.21780640
vt 0.08710700 0.21780640
vt 0.10606700 0.41481620
vt 0.10606700 0.23676620
vt 0.08710700 0.10958360
vt 0.06814800 0.10958360
vt 0.10606700 0.19884660
vt 0.10606700 0.10958360
vt 0.57296700 0.76519860
vt 0.59192700 0.68378850
vt 0.57296700 0.67593490
vt 0.59192700 0.76519860
vt 0.61088700 0.67593510
vt 0.61088800 0.76519860
vt 0.84135600 0.10958470
vt 0.82239600 0.10958470
vt 0.82239600 0.21780630
vt 0.84135600 0.21780630
vt 0.86031600 0.10958470
vt 0.86031600 0.21780630
vt 0.86031600 0.43377450
vt 0.84135600 0.43377450
vt 0.82239600 0.43377450
vt 0.82239600 0.54199610
vt 0.84135600 0.54199610
vt 0.86031600 0.54199610
vt 0.70139100 0.54199840
vt 0.72035000 0.43377590
vt 0.70139100 0.45273580
vt 0.72035000 0.54199840
vt 0.73931000 0.43377590
vt 0.73931000 0.54199840
vt 0.72035000 0.21780650
vt 0.73931000 0.21780650
vt 0.73931000 0.10958370
vt 0.72035000 0.10958370
vt 0.70139100 0.10958370
vt 0.70139100 0.19884660
vt 0.70139100 0.23676620
vt 0.70139100 0.41481610
vt 0.52898100 0.75734540
vt 0.51002100 0.67593500
vt 0.51002100 0.76519890
vt 0.52898100 0.67593500
vt 0.54794100 0.76519890
vt 0.54794100 0.67593500
vt 0.08710700 0.21780640
vt 0.20094000 0.19884660
vt 0.10606700 0.19884660
vt 0.20094000 0.21780640
vt 0.10606700 0.23676620
vt 0.20094000 0.23676620
vt 0.29581500 0.23676620
vt 0.31477400 0.21780640
vt 0.29581500 0.19884660
vt 0.84371100 0.70881740
vt 0.86267100 0.79583740
vt 0.86267100 0.70096400
vt 0.84371100 0.79583740
vt 0.82475100 0.70096400
vt 0.82475100 0.79583740
vt 0.82475100 0.89071080
vt 0.84371100 0.88285740
vt 0.86267100 0.89071080
vt 0.78076500 0.88285840
vt 0.76180500 0.79583860
vt 0.76180500 0.89071180
vt 0.78076500 0.79583860
vt 0.79972500 0.89071180
vt 0.79972500 0.79583860
vt 0.79972500 0.70096540
vt 0.78076500 0.70881880
vt 0.76180500 0.70096540
vt 0.71781900 0.86824830
vt 0.69885900 0.69805120
vt 0.69885900 0.87610170
vt 0.71781900 0.70590440
vt 0.73677900 0.87610170
vt 0.73677900 0.69805120
vt 0.31477400 0.54199840
vt 0.29581500 0.45273560
vt 0.29581500 0.54199840
vt 0.31477400 0.43377600
vt 0.33373400 0.54199840
vt 0.33373400 0.43377600
vt 0.33373400 0.21780640
vt 0.31477400 0.21780640
vt 0.29581500 0.41481620
vt 0.29581500 0.23676620
vt 0.31477400 0.10958360
vt 0.33373400 0.10958360
vt 0.29581500 0.19884660
vt 0.29581500 0.10958360
vt 0.44707500 0.67593460
vt 0.44707500 0.76519810
vt 0.46603500 0.75734470
vt 0.46603500 0.67593460
vt 0.48499500 0.76519810
vt 0.48499500 0.67593460
vt 0.90567200 0.54199660
vt 0.88671200 0.43377510
vt 0.88671200 0.54199660
vt 0.90567200 0.43377510
vt 0.92463200 0.54199660
vt 0.92463200 0.43377510
vt 0.92463200 0.21780730
vt 0.90567200 0.21780730
vt 0.88671200 0.21780730
vt 0.88671200 0.10958540
vt 0.90567200 0.10958540
vt 0.92463200 0.10958540
vt 0.51164400 0.54199840
vt 0.51164400 0.45273580
vt 0.49268400 0.43377590
vt 0.49268400 0.54199840
vt 0.47372400 0.43377590
vt 0.47372400 0.54199840
vt 0.49268400 0.21780650
vt 0.47372400 0.21780650
vt 0.47372400 0.10958370
vt 0.49268400 0.10958370
vt 0.51164400 0.10958370
vt 0.51164400 0.19884660
vt 0.51164400 0.23676620
vt 0.51164400 0.41481610
vt 0.40309000 0.68378780
vt 0.38412900 0.67593440
vt 0.38412900 0.76519830
vt 0.40309000 0.76519830
vt 0.42205000 0.67593440
vt 0.42205000 0.76519830
vt 0.65487300 0.70590360
vt 0.63591300 0.69805010
vt 0.63591300 0.87610100
vt 0.65487300 0.86824750
vt 0.67383300 0.69805010
vt 0.67383300 0.87610100
vt 0.32837800 0.69387190
vt 0.32837800 0.66809950
vt 0.31015400 0.67564800
vt 0.30260500 0.69387190
vt 0.34660100 0.67564800
vt 0.31015400 0.71209570
vt 0.35415000 0.69387190
vt 0.32837800 0.71964430
vt 0.34660100 0.71209570
vt 0.70139100 0.41481610
vt 0.60651800 0.43377590
vt 0.72035000 0.43377590
vt 0.60651800 0.41481610
vt 0.70139100 0.45273580
vt 0.51164400 0.41481610
vt 0.60651800 0.45273550
vt 0.49268400 0.43377590
vt 0.51164400 0.45273580
vt 0.22367600 0.71209570
vt 0.24190000 0.71964430
vt 0.24190000 0.69387190
vt 0.21612700 0.69387190
vt 0.26012400 0.71209570
vt 0.22367600 0.67564800
vt 0.26767300 0.69387190
vt 0.24190000 0.66809950
vt 0.26012400 0.67564800
vt 0.70139100 0.19884660
vt 0.60651800 0.21780650
vt 0.72035000 0.21780650
vt 0.60651800 0.19884660
vt 0.70139100 0.23676620
vt 0.51164400 0.19884660
vt 0.60651800 0.23676620
vt 0.49268400 0.21780650
vt 0.51164400 0.23676620
vt 0.15542200 0.69387190
vt 0.13719800 0.71209570
vt 0.15542200 0.71964430
vt 0.12965000 0.69387190
vt 0.17364600 0.71209570
vt 0.13719800 0.67564800
vt 0.18119500 0.69387190
vt 0.15542200 0.66809940
vt 0.17364600 0.67564800
vt 0.05072100 0.67564800
vt 0.04317300 0.69387190
vt 0.06894500 0.69387190
vt 0.06894500 0.66809940
vt 0.05072100 0.71209570
vt 0.08716900 0.67564800
vt 0.06894500 0.71964420
vt 0.09471700 0.69387190
vt 0.08716900 0.71209570
f 3/3 2/2 1/1
f 4/4 3/3 1/1
f 7/7 6/6 5/5
f 8/8 7/7 5/5
f 11/11 10/10 9/9
f 10/10 12/12 9/9
f 9/9 12/12 13/13
f 12/12 14/14 13/13
f 17/17 16/16 15/15
f 16/16 18/18 15/15
f 16/16 19/19 18/18
f 15/15 18/18 20/20
f 18/18 21/21 20/20
f 19/19 22/22 18/18
f 19/19 23/23 22/22
f 23/23 24/24 22/22
f 20/20 21/21 25/25
f 26/26 20/20 25/25
f 27/27 26/26 25/25
f 22/22 24/24 28/28
f 24/24 29/29 28/28
f 30/30 27/27 25/25
f 31/31 27/27 30/30
f 32/32 31/31 30/30
f 28/28 29/29 33/33
f 34/34 28/28 33/33
f 32/32 30/30 35/35
f 35/35 34/34 33/33
f 36/36 32/32 35/35
f 37/37 35/35 33/33
f 36/36 35/35 37/37
f 38/38 36/36 37/37
f 41/41 40/40 39/39
f 42/42 41/41 39/39
f 42/42 39/39 43/43
f 39/39 44/44 43/43
f 47/47 46/46 45/45
f 46/46 48/48 45/45
f 45/45 48/48 49/49
f 48/48 50/50 49/49
f 53/53 52/52 51/51
f 52/52 54/54 51/51
f 51/51 54/54 55/55
f 54/54 56/56 55/55
f 54/54 52/52 57/57
f 56/56 58/58 55/55
f 58/58 59/59 55/55
f 60/60 59/59 58/58
f 52/52 61/61 57/57
f 61/61 62/62 57/57
f 62/62 63/63 57/57
f 64/64 60/60 58/58
f 65/65 60/60 64/64
f 66/66 65/65 64/64
f 57/57 63/63 67/67
f 63/63 68/68 67/67
f 66/66 64/64 69/69
f 68/68 70/70 67/67
f 70/70 71/71 67/67
f 69/69 71/71 70/70
f 72/72 66/66 69/69
f 73/73 69/69 70/70
f 72/72 69/69 73/73
f 74/74 72/72 73/73
f 77/77 76/76 75/75
f 76/76 78/78 75/75
f 75/75 78/78 79/79
f 78/78 80/80 79/79
f 83/83 82/82 81/81
f 82/82 84/84 81/81
f 82/82 85/85 84/84
f 85/85 86/86 84/84
f 85/85 87/87 86/86
f 87/87 88/88 86/86
f 91/91 90/90 89/89
f 90/90 92/92 89/89
f 90/90 93/93 92/92
f 93/93 94/94 92/92
f 93/93 95/95 94/94
f 95/95 96/96 94/94
f 99/99 98/98 97/97
f 98/98 100/100 97/97
f 100/100 101/101 97/97
f 101/101 102/102 97/97
f 103/103 102/102 101/101
f 104/104 103/103 101/101
f 107/107 106/106 105/105
f 106/106 108/108 105/105
f 108/108 109/109 105/105
f 109/109 110/110 105/105
f 111/111 110/110 109/109
f 112/112 111/111 109/109
f 115/115 114/114 113/113
f 116/116 115/115 113/113
f 119/119 118/118 117/117
f 120/120 119/119 117/117
f 123/123 122/122 121/121
f 124/124 123/123 121/121
f 127/127 126/126 125/125
f 128/128 127/127 125/125
f 131/131 130/130 129/129
f 132/132 131/131 129/129
f 135/135 134/134 133/133
f 136/136 135/135 133/133
f 139/139 138/138 137/137
f 140/140 139/139 137/137
f 143/143 142/142 141/141
f 144/144 143/143 141/141
f 147/147 146/146 145/145
f 148/148 147/147 145/145
f 151/151 150/150 149/149
f 152/152 151/151 149/149
f 155/155 154/154 153/153
f 156/156 155/155 153/153
f 159/159 158/158 157/157
f 160/160 159/159 157/157
f 163/163 162/162 161/161
f 164/164 163/163 161/161
f 167/167 166/166 165/165
f 168/168 167/167 165/165
f 171/171 170/170 169/169
f 172/172 171/171 169/169
f 175/175 174/174 173/173
f 176/176 175/175 173/173
f 179/179 178/178 177/177
f 180/180 179/179 177/177
f 183/183 182/182 181/181
f 182/182 184/184 181/181
f 181/181 184/184 185/185
f 184/184 186/186 185/185
f 185/185 186/186 187/187
f 186/186 188/188 187/187
f 191/191 190/190 189/189
f 192/192 191/191 189/189
f 193/193 191/191 192/192
f 194/194 193/193 192/192
f 195/195 193/193 194/194
f 196/196 195/195 194/194
f 199/199 198/198 197/197
f 200/200 199/199 197/197
f 203/203 202/202 201/201
f 204/204 203/203 201/201
f 207/207 206/206 205/205
f 208/208 207/207 205/205
f 211/211 210/210 209/209
f 212/212 211/211 209/209
f 215/215 214/214 213/213
f 216/216 215/215 213/213
f 219/219 218/218 217/217
f 220/220 219/219 217/217
f 223/223 222/222 221/221
f 224/224 223/223 221/221
f 227/227 226/226 225/225
f 228/228 227/227 225/225
f 231/231 230/230 229/229
f 232/232 231/231 229/229
f 235/235 234/234 233/233
f 236/236 235/235 233/233
f 239/239 238/238 237/237
f 240/240 239/239 237/237
f 243/243 242/242 241/241
f 244/244 243/243 241/241
f 247/247 246/246 245/245
f 248/248 247/247 245/245
f 251/251 250/250 249/249
f 252/252 251/251 249/249
f 255/255 254/254 253/253
f 256/256 255/255 253/253
f 259/259 258/258 257/257
f 260/260 259/259 257/257
f 263/263 262/262 261/261
f 264/264 263/263 261/261
f 267/267 266/266 265/265
f 268/268 267/267 265/265
f 271/271 270/270 269/269
f 272/272 271/271 269/269
f 275/275 274/274 273/273
f 276/276 275/275 273/273
f 279/279 278/278 277/277
f 280/280 279/279 277/277
f 283/283 282/282 281/281
f 284/284 283/283 281/281
f 287/287 286/286 285/285
f 288/288 287/287 285/285
f 291/291 290/290 289/289
f 292/292 291/291 289/289
f 295/295 294/294 293/293
f 296/296 295/295 293/293
f 299/299 298/298 297/297
f 300/300 299/299 297/297
f 303/303 302/302 301/301
f 304/304 303/303 301/301
f 307/307 306/306 305/305
f 308/308 307/307 305/305
f 311/311 310/310 309/309
f 312/312 311/311 309/309
f 315/315 314/314 313/313
f 316/316 315/315 313/313
f 319/319 318/318 317/317
f 320/320 319/319 317/317
f 323/323 322/322 321/321
f 324/324 323/323 321/321
f 327/327 326/326 325/325
f 328/328 327/327 325/325
f 331/331 330/330 329/329
f 332/332 331/331 329/329
f 335/335 334/334 333/333
f 336/336 335/335 333/333
f 339/339 338/338 337/337
f 340/340 339/339 337/337
f 343/343 342/342 341/341
f 344/344 343/343 341/341
f 347/347 346/346 345/345
f 348/348 347/347 345/345
f 351/351 350/350 349/349
f 352/352 351/351 349/349
f 355/355 354/354 353/353
f 356/356 355/355 353/353
f 359/359 358/358 357/357
f 360/360 359/359 357/357
f 363/363 362/362 361/361
f 364/364 363/363 361/361
f 367/367 366/366 365/365
f 368/368 367/367 365/365
f 371/371 370/370 369/369
f 372/372 371/371 369/369
f 375/375 374/374 373/373
f 376/376 375/375 373/373
f 379/379 378/378 377/377
f 380/380 379/379 377/377
f 383/383 382/382 381/381
f 384/384 383/383 381/381
f 387/387 386/386 385/385
f 388/388 387/387 385/385
f 391/391 390/390 389/389
f 392/392 391/391 389/389
f 395/395 394/394 393/393
f 396/396 395/395 393/393
f 399/399 398/398 397/397
f 400/400 399/399 397/397
f 403/403 402/402 401/401
f 404/404 403/403 401/401
f 407/407 406/406 405/405
f 408/408 407/407 405/405
f 411/411 410/410 409/409
f 412/412 411/411 409/409
f 415/415 414/414 413/413
f 416/416 415/415 413/413
f 419/419 418/418 417/417
f 417/417 418/418 420/420
f 421/421 419/419 417/417
f 421/421 422/422 419/419
f 422/422 423/423 419/419
f 420/420 423/423 422/422
f 424/424 420/420 422/422
f 424/424 417/417 420/420
f 417/417 424/424 425/425
f 417/417 425/425 426/426
f 424/424 427/427 425/425
f 425/425 428/428 426/426
f 429/429 427/427 424/424
f 426/426 428/428 429/429
f 430/430 429/429 424/424
f 430/430 426/426 429/429
f 426/426 430/430 431/431
f 426/426 431/431 432/432
f 430/430 433/433 431/431
f 431/431 434/434 432/432
f 435/435 433/433 430/430
f 432/432 434/434 435/435
f 436/436 435/435 430/430
f 436/436 432/432 435/435
f 439/439 438/438 437/437
f 438/438 440/440 437/437
f 441/441 439/439 437/437
f 442/442 439/439 441/441
f 440/440 442/442 443/443
f 440/440 443/443 437/437
f 444/444 442/442 441/441
f 442/442 444/444 443/443
f 445/445 441/441 437/437
f 441/441 445/445 446/446
f 447/447 445/445 437/437
f 445/445 448/448 446/446
f 447/447 437/437 449/449
f 448/448 450/450 446/446
f 450/450 449/449 446/446
f 450/450 447/447 449/449
f 443/443 444/444 451/451
f 444/444 452/452 451/451
f 451/451 453/453 443/443
f 452/452 444/444 454/454
f 453/453 455/455 443/443
f 456/456 452/452 454/454
f 455/455 453/453 456/456
f 454/454 455/455 456/456
f 459/459 458/458 457/457
f 458/458 460/460 457/457
f 457/457 460/460 461/461
f 460/460 462/462 461/461
f 462/462 460/460 463/463
f 460/460 464/464 463/463
f 460/460 458/458 464/464
f 458/458 465/465 464/464
f 468/468 467/467 466/466
f 467/467 469/469 466/466
f 466/466 469/469 470/470
f 469/469 471/471 470/470
f 471/471 469/469 472/472
f 469/469 473/473 472/472
f 469/469 467/467 473/473
f 467/467 474/474 473/473
f 477/477 476/476 475/475
f 476/476 478/478 475/475
f 475/475 478/478 479/479
f 478/478 480/480 479/479
f 480/480 478/478 481/481
f 478/478 482/482 481/481
f 478/478 476/476 482/482
f 476/476 483/483 482/482
f 486/486 485/485 484/484
f 487/487 486/486 484/484
f 487/487 484/484 488/488
f 489/489 487/487 488/488
f 489/489 490/490 487/487
f 490/490 491/491 487/487
f 487/487 491/491 492/492
f 491/491 493/493 492/492
f 494/494 491/491 490/490
f 495/495 494/494 490/490
f 491/491 494/494 496/496
f 494/494 497/497 496/496
f 500/500 499/499 498/498
f 499/499 501/501 498/498
f 499/499 502/502 501/501
f 502/502 503/503 501/501
f 506/506 505/505 504/504
f 507/507 506/506 504/504
f 507/507 504/504 508/508
f 509/509 507/507 508/508
f 509/509 510/510 507/507
f 507/507 511/511 506/506
f 510/510 511/511 507/507
f 511/511 512/512 506/506
f 513/513 512/512 511/511
f 514/514 513/513 511/511
f 514/514 511/511 510/510
f 515/515 514/514 510/510
f 518/518 517/517 516/516
f 517/517 519/519 516/516
f 517/517 520/520 519/519
f 520/520 521/521 519/519
f 517/517 522/522 520/520
f 522/522 523/523 520/520
f 524/524 523/523 522/522
f 525/525 524/524 522/522
f 526/526 525/525 522/522
f 527/527 526/526 522/522
f 528/528 522/522 517/517
f 529/529 528/528 517/517
f 532/532 531/531 530/530
f 531/531 533/533 530/530
f 530/530 533/533 534/534
f 533/533 535/535 534/534
f 538/538 537/537 536/536
f 537/537 539/539 536/536
f 536/536 539/539 540/540
f 539/539 541/541 540/540
f 541/541 539/539 542/542
f 539/539 543/543 542/542
f 539/539 537/537 543/543
f 537/537 544/544 543/543
f 547/547 546/546 545/545
f 546/546 548/548 545/545
f 545/545 548/548 549/549
f 548/548 550/550 549/549
f 550/550 548/548 551/551
f 548/548 552/552 551/551
f 548/548 546/546 552/552
f 546/546 553/553 552/552
f 556/556 555/555 554/554
f 555/555 557/557 554/554
f 554/554 557/557 558/558
f 557/557 559/559 558/558
f 559/559 557/557 560/560
f 557/557 561/561 560/560
f 557/557 555/555 561/561
f 555/555 562/562 561/561
f 565/565 564/564 563/563
f 564/564 566/566 563/563
f 563/563 566/566 567/567
f 566/566 568/568 567/567
f 571/571 570/570 569/569
f 570/570 572/572 569/569
f 569/569 572/572 573/573
f 572/572 574/574 573/573
f 575/575 574/574 572/572
f 576/576 575/575 572/572
f 576/576 572/572 577/577
f 578/578 576/576 577/577
f 576/576 579/579 575/575
f 579/579 580/580 575/575
f 579/579 576/576 581/581
f 582/582 579/579 581/581
f 585/585 584/584 583/583
f 586/586 585/585 583/583
f 587/587 585/585 586/586
f 588/588 587/587 586/586
f 591/591 590/590 589/589
f 590/590 592/592 589/589
f 589/589 592/592 593/593
f 592/592 594/594 593/593
f 595/595 594/594 592/592
f 596/596 592/592 590/590
f 596/596 595/595 592/592
f 597/597 596/596 590/590
f 597/597 598/598 596/596
f 598/598 599/599 596/596
f 596/596 599/599 595/595
f 599/599 600/600 595/595
f 603/603 602/602 601/601
f 604/604 603/603 601/601
f 605/605 603/603 604/604
f 606/606 605/605 604/604
f 607/607 603/603 605/605
f 608/608 607/607 605/605
f 608/608 609/609 607/607
f 609/609 610/610 607/607
f 610/610 611/611 607/607
f 611/611 612/612 607/607
f 607/607 613/613 603/603
f 613/613 614/614 603/603
f 617/617 616/616 615/615
f 618/618 617/617 615/615
f 618/618 615/615 619/619
f 620/620 618/618 619/619
f 623/623 622/622 621/621
f 624/624 623/623 621/621
f 624/624 621/621 625/625
f 626/626 624/624 625/625
f 629/629 628/628 627/627
f 630/630 629/629 627/627
f 627/627 628/628 631/631
f 632/632 630/630 627/627
f 633/633 627/627 631/631
f 634/634 632/632 627/627
f 633/633 635/635 627/627
f 635/635 634/634 627/627
f 638/638 637/637 636/636
f 637/637 639/639 636/636
f 638/638 640/640 637/637
f 639/639 637/637 641/641
f 640/640 642/642 637/637
f 637/637 643/643 641/641
f 642/642 644/644 637/637
f 644/644 643/643 637/637
f 647/647 646/646 645/645
f 648/648 647/647 645/645
f 649/649 646/646 647/647
f 647/647 648/648 650/650
f 651/651 649/649 647/647
f 652/652 647/647 650/650
f 651/651 647/647 653/653
f 647/647 652/652 653/653
f 656/656 655/655 654/654
f 655/655 657/657 654/654
f 656/656 658/658 655/655
f 657/657 655/655 659/659
f 658/658 660/660 655/655
f 655/655 661/661 659/659
f 660/660 662/662 655/655
f 662/662 661/661 655/655
f 665/665 664/664 663/663
f 664/664 666/666 663/663
f 665/665 663/663 667/667
f 666/666 668/668 663/663
f 663/663 669/669 667/667
f 668/668 670/670 663/663
f 671/671 669/669 663/663
f 670/670 671/671 663/663
f 674/674 673/673 672/672
f 675/675 674/674 672/672
f 673/673 674/674 676/676
f 675/675 677/677 674/674
f 674/674 678/678 676/676
f 677/677 679/679 674/674
f 678/678 674/674 680/680
f 674/674 679/679 680/680