# https://github.com/mikedh/trimesh
v -0.00132425 -0.00069104 0.00000011
v -0.00148509 -0.00069104 0.00000011
v -0.00132502 -0.00072657 0.00000011
v -0.00097981 -0.00183355 -0.00100951
v -0.00097981 -0.00180595 -0.00100810
v -0.00097981 -0.00165729 -0.00100388
v -0.00097981 -0.00150837 -0.00099965
v -0.00097981 -0.00135944 -0.00099571
v -0.00097981 -0.00120997 -0.00099191
v -0.00097981 -0.00105995 -0.00098825
v -0.00097981 -0.00090992 -0.00098473
v -0.00097981 -0.00076127 -0.00098135
v -0.00097981 -0.00069104 -0.00097994
v -0.00148509 -0.00069104 -0.00007678
v -0.00176008 -0.00305913 -0.00000031
v -0.00153286 -0.00110831 0.00000011
v -0.00132579 -0.00076127 0.00000011
v -0.00133810 -0.00129796 0.00000011
v -0.00134694 -0.00168025 0.00000011
v -0.00135056 -0.00183355 0.00000011
v -0.00097981 -0.00194832 -0.00101881
v -0.00097981 -0.00069104 -0.00119330
v -0.00144809 -0.00069104 -0.00023001
v -0.00176008 -0.00305913 -0.00007678
v -0.00176554 -0.00321215 -0.00000031
v -0.00159339 -0.00231586 0.00000011
v -0.00136210 -0.00197428 0.00000011
v -0.00097981 -0.00213987 -0.00106247
v -0.00098835 -0.00069104 -0.00119006
v -0.00097981 -0.00231586 -0.00129442
v -0.00108080 -0.00305913 -0.00143145
v -0.00114911 -0.00305913 -0.00141215
v -0.00122664 -0.00298070 -0.00137920
v -0.00142302 -0.00069104 -0.00031225
v -0.00171854 -0.00305913 -0.00023001
v -0.00172677 -0.00321215 -0.00023001
v -0.00176554 -0.00321215 -0.00007678
v -0.00176338 -0.00328921 -0.00000031
v -0.00142055 -0.00231586 0.00000011
v -0.00176123 -0.00336545 -0.00000031
v -0.00173423 -0.00348241 -0.00000031
v -0.00141348 -0.00228443 0.00000011
v -0.00154178 -0.00348241 -0.00000031
v -0.00108080 -0.00348241 -0.00117485
v -0.00097981 -0.00231558 -0.00110809
v -0.00097981 -0.00229290 -0.00110190
v -0.00104988 -0.00069104 -0.00115696
v -0.00097981 -0.00231586 -0.00127146
v -0.00108080 -0.00348241 -0.00140905
v -0.00108080 -0.00336545 -0.00143285
v -0.00108080 -0.00328047 -0.00143652
v -0.00108080 -0.00321215 -0.00143835
v -0.00114911 -0.00321215 -0.00142032
v -0.00123487 -0.00305913 -0.00138272
v -0.00131141 -0.00305913 -0.00131132
v -0.00111788 -0.00069104 -0.00111767
v -0.00140017 -0.00069104 -0.00038577
v -0.00168562 -0.00298043 -0.00030774
v -0.00168916 -0.00305913 -0.00031831
v -0.00142040 -0.00321215 -0.00114894
v -0.00172008 -0.00336545 -0.00023001
v -0.00176123 -0.00336545 -0.00007678
v -0.00141225 -0.00305913 -0.00114894
v -0.00173423 -0.00348241 -0.00008664
v -0.00114280 -0.00348241 -0.00139328
v -0.00114911 -0.00336545 -0.00141370
v -0.00114911 -0.00347995 -0.00139215
v -0.00122664 -0.00344333 -0.00137920
v -0.00124449 -0.00321215 -0.00138680
v -0.00123664 -0.00336545 -0.00138342
v -0.00132102 -0.00321215 -0.00132089
v -0.00138279 -0.00305913 -0.00123470
v -0.00137925 -0.00298070 -0.00122639
v -0.00119026 -0.00069104 -0.00098811
v -0.00124710 -0.00069104 -0.00084516
v -0.00138686 -0.00321215 -0.00124428
v -0.00138356 -0.00336545 -0.00123639
v -0.00141371 -0.00336545 -0.00114894
v -0.00168562 -0.00344333 -0.00030774
v -0.00169854 -0.00347995 -0.00023001
v -0.00169969 -0.00348241 -0.00022367
v -0.00114749 -0.00348241 -0.00139187
v -0.00119980 -0.00348241 -0.00137413
v -0.00127810 -0.00348241 -0.00131329
v -0.00131348 -0.00348241 -0.00127794
v -0.00137925 -0.00344333 -0.00122639
v -0.00131325 -0.00336545 -0.00131301
v -0.00139194 -0.00348241 -0.00114725
v -0.00169823 -0.00348241 -0.00022832
v -0.00137417 -0.00348241 -0.00119964
f 1 2 16
f 1 16 26
f 1 26 39
f 1 39 42
f 1 42 27
f 1 27 20
f 1 20 19
f 1 19 18
f 1 18 17
f 1 17 3
f 1 3 4
f 1 4 5
f 1 5 6
f 1 6 7
f 1 7 8
f 1 8 9
f 1 9 10
f 1 10 11
f 1 11 12
f 1 12 13
f 1 13 22
f 1 22 29
f 1 29 47
f 1 47 56
f 1 56 74
f 1 74 75
f 1 75 57
f 1 57 34
f 1 34 23
f 1 23 14
f 1 14 2
f 2 14 24
f 2 24 15
f 2 15 16
f 3 17 4
f 4 18 19
f 4 19 20
f 4 20 21
f 4 21 28
f 4 28 46
f 4 46 45
f 4 45 48
f 4 48 30
f 4 30 22
f 4 22 13
f 4 13 12
f 4 12 11
f 4 11 10
f 4 10 9
f 4 9 8
f 4 8 7
f 4 7 6
f 4 6 5
f 4 17 18
f 14 23 24
f 15 24 37
f 15 37 25
f 15 25 26
f 15 26 16
f 20 27 21
f 21 27 28
f 22 30 31
f 22 31 32
f 22 32 33
f 22 33 29
f 23 34 35
f 23 35 24
f 24 35 36
f 24 36 37
f 25 37 38
f 25 38 26
f 26 38 40
f 26 40 41
f 26 41 43
f 26 43 39
f 27 42 43
f 27 43 44
f 27 44 45
f 27 45 46
f 27 46 28
f 29 33 47
f 30 48 44
f 30 44 49
f 30 49 50
f 30 50 51
f 30 51 52
f 30 52 31
f 31 52 53
f 31 53 32
f 32 53 54
f 32 54 33
f 33 54 55
f 33 55 56
f 33 56 47
f 34 57 58
f 34 58 35
f 35 58 59
f 35 59 36
f 36 60 78
f 36 78 61
f 36 61 62
f 36 62 37
f 36 59 63
f 36 63 60
f 37 62 38
f 38 62 40
f 39 43 42
f 40 62 64
f 40 64 41
f 41 64 81
f 41 81 89
f 41 89 88
f 41 88 90
f 41 90 85
f 41 85 84
f 41 84 83
f 41 83 82
f 41 82 65
f 41 65 49
f 41 49 44
f 41 44 43
f 44 48 45
f 49 65 50
f 50 66 53
f 50 53 51
f 50 65 67
f 50 67 68
f 50 68 66
f 51 53 52
f 53 69 54
f 53 66 70
f 53 70 69
f 54 69 71
f 54 71 55
f 55 71 72
f 55 72 73
f 55 73 56
f 56 73 74
f 57 75 58
f 58 73 63
f 58 63 59
f 58 75 73
f 60 76 77
f 60 77 78
f 60 63 72
f 60 72 76
f 61 78 79
f 61 79 62
f 62 79 80
f 62 80 81
f 62 81 64
f 63 73 72
f 65 82 67
f 66 68 70
f 67 82 68
f 68 82 83
f 68 83 84
f 68 84 85
f 68 85 86
f 68 86 87
f 68 87 70
f 69 70 71
f 70 87 71
f 71 76 72
f 71 87 77
f 71 77 76
f 73 75 74
f 77 87 86
f 77 86 78
f 78 86 79
f 79 86 88
f 79 88 89
f 79 89 80
f 80 89 81
f 85 90 86
f 86 90 88

