# https://github.com/mikedh/trimesh
v -0.00119021 -0.00068984 0.00098826
v -0.00116353 0.00980900 0.00096253
v -0.00116970 0.00304065 0.00096253
v -0.00096881 -0.00068984 0.00098826
v -0.00115700 -0.00068984 0.00104990
v -0.00110433 0.00980900 0.00110442
v -0.00110410 0.00996198 0.00110422
v -0.00110386 0.01011616 0.00110396
v -0.00110153 0.01118821 0.00110171
v -0.00114803 0.01134118 0.00099588
v -0.00115945 0.01134118 0.00096253
v -0.00116329 0.00996198 0.00096253
v -0.00096881 0.00304065 0.00096253
v -0.00096589 -0.00060672 0.00098826
v 0.00000024 -0.00014779 0.00131271
v 0.00000024 -0.00030077 0.00131542
v 0.00000024 -0.00045375 0.00131875
v 0.00000024 -0.00068984 0.00132417
v -0.00111773 -0.00068984 0.00111782
v -0.00098827 -0.00068984 0.00119026
v -0.00099573 0.01134118 0.00114826
v -0.00110118 0.01134118 0.00110135
v -0.00114570 0.01149536 0.00099588
v -0.00115723 0.01149536 0.00096253
v -0.00096869 0.00307437 0.00096253
v 0.00000012 0.00506188 0.00130125
v 0.00000012 0.00490890 0.00130146
v 0.00000024 0.00015937 0.00131021
v 0.00000024 0.00000519 0.00131102
v -0.00094620 0.00000519 0.00098826
v -0.00095063 -0.00014779 0.00098826
v 0.00000024 -0.00068984 0.00148504
v -0.00084505 -0.00068984 0.00124698
v -0.00078702 0.00996198 0.00123266
v -0.00078539 0.01026793 0.00123205
v -0.00077992 0.01118821 0.00123031
v -0.00077898 0.01134118 0.00123000
v -0.00099573 0.01149536 0.00114591
v -0.00109920 0.01149536 0.00109946
v -0.00108918 0.01159052 0.00108928
v -0.00112810 0.01157968 0.00096253
v -0.00096718 0.00368267 0.00096253
v 0.00000012 0.01149536 0.00129399
v 0.00000024 0.00299246 0.00130504
v -0.00007667 -0.00068984 0.00148504
v 0.00000024 0.00304065 0.00146320
v 0.00000012 0.01134118 0.00145405
v -0.00038582 -0.00068984 0.00140018
v -0.00068937 0.00996198 0.00126524
v -0.00068937 0.01118821 0.00126054
v -0.00068937 0.01134118 0.00125992
v -0.00077386 0.01149536 0.00122826
v -0.00076803 0.01157246 0.00122632
v -0.00068937 0.01158812 0.00123946
v -0.00099573 0.01160498 0.00110816
v -0.00110794 0.01160498 0.00099588
v -0.00111680 0.01160257 0.00096253
v -0.00096531 0.00444876 0.00096253
v -0.00095028 0.01149536 0.00096253
v -0.00100645 0.01161100 0.00096253
v -0.00028397 0.01158089 0.00121813
v 0.00000012 0.01155077 0.00131471
v 0.00000024 0.00304065 0.00130499
v -0.00023002 -0.00068984 0.00144806
v -0.00007667 0.01134118 0.00145405
v 0.00000012 0.01160618 0.00141384
v 0.00000012 0.01149536 0.00145139
v -0.00031229 -0.00068984 0.00142300
v -0.00022990 0.00996198 0.00141844
v -0.00032767 0.00996198 0.00138586
v -0.00022990 0.01011616 0.00141788
v -0.00032150 0.01103523 0.00138381
v -0.00022990 0.01134118 0.00141317
v -0.00031450 0.01149536 0.00138151
v -0.00030868 0.01157246 0.00137952
v -0.00022990 0.01158812 0.00139266
v -0.00053637 0.01160618 0.00126197
v -0.00099538 0.01161341 0.00099547
v 0.00000012 0.01160618 0.00133553
v -0.00007667 0.01149536 0.00145139
v -0.00007667 0.01160618 0.00141384
v -0.00022990 0.01149536 0.00140970
f 1 2 3
f 1 3 13
f 1 13 4
f 1 4 18
f 1 18 32
f 1 32 45
f 1 45 64
f 1 64 68
f 1 68 48
f 1 48 33
f 1 33 20
f 1 20 19
f 1 19 5
f 1 5 6
f 1 6 7
f 1 7 8
f 1 8 9
f 1 9 10
f 1 10 11
f 1 11 12
f 1 12 2
f 2 12 11
f 2 11 24
f 2 24 41
f 2 41 57
f 2 57 60
f 2 60 59
f 2 59 58
f 2 58 42
f 2 42 25
f 2 25 13
f 2 13 3
f 4 14 15
f 4 15 16
f 4 16 17
f 4 17 18
f 4 13 14
f 5 19 6
f 6 19 20
f 6 20 7
f 7 20 8
f 8 20 9
f 9 20 21
f 9 21 22
f 9 22 10
f 10 22 23
f 10 23 24
f 10 24 11
f 13 25 26
f 13 26 27
f 13 27 28
f 13 28 29
f 13 29 30
f 13 30 31
f 13 31 14
f 14 31 15
f 15 31 29
f 15 29 28
f 15 28 44
f 15 44 63
f 15 63 46
f 15 46 32
f 15 32 18
f 15 18 17
f 15 17 16
f 20 33 21
f 21 34 35
f 21 35 36
f 21 36 37
f 21 37 38
f 21 38 22
f 21 33 34
f 22 38 39
f 22 39 23
f 23 39 40
f 23 40 24
f 24 40 41
f 25 42 43
f 25 43 26
f 26 44 27
f 26 43 44
f 27 44 28
f 29 31 30
f 32 46 47
f 32 47 65
f 32 65 45
f 33 48 49
f 33 49 34
f 34 49 35
f 35 49 50
f 35 50 36
f 36 50 51
f 36 51 37
f 37 51 52
f 37 52 38
f 38 52 53
f 38 53 40
f 38 40 39
f 40 53 54
f 40 54 55
f 40 55 56
f 40 56 41
f 41 56 57
f 42 58 43
f 43 59 60
f 43 60 61
f 43 61 62
f 43 62 63
f 43 63 44
f 43 58 59
f 45 65 64
f 46 63 79
f 46 79 66
f 46 66 67
f 46 67 47
f 47 67 80
f 47 80 65
f 48 68 69
f 48 69 70
f 48 70 49
f 49 70 71
f 49 71 72
f 49 72 50
f 50 72 73
f 50 73 51
f 51 73 74
f 51 74 52
f 52 74 53
f 53 75 54
f 53 74 75
f 54 76 77
f 54 77 55
f 54 75 76
f 55 77 78
f 55 78 56
f 56 78 60
f 56 60 57
f 60 78 79
f 60 79 61
f 61 79 62
f 62 79 63
f 64 65 69
f 64 69 68
f 65 80 73
f 65 73 71
f 65 71 69
f 66 79 78
f 66 78 81
f 66 81 80
f 66 80 67
f 69 71 70
f 71 73 72
f 73 80 82
f 73 82 74
f 74 82 75
f 75 82 80
f 75 80 76
f 76 81 77
f 76 80 81
f 77 81 78

