# https://github.com/mikedh/trimesh
v 0.00096664 -0.00068984 0.00119846
v 0.00096104 0.00304065 0.00117019
v 0.00096664 -0.00068984 0.00098949
v 0.00098833 -0.00068984 0.00119013
v 0.00099593 0.01134118 0.00114801
v 0.00096104 0.01134118 0.00115998
v 0.00096104 0.01130264 0.00116009
v 0.00096104 0.00996198 0.00116373
v 0.00096104 0.00980900 0.00116397
v 0.00096104 0.00304065 0.00096966
v 0.00132417 -0.00068984 0.00006829
v 0.00096664 -0.00044050 0.00098362
v 0.00130494 0.00304065 -0.00000023
v 0.00131114 -0.00000325 0.00006829
v 0.00131273 -0.00014779 0.00006829
v 0.00131540 -0.00030077 0.00006829
v 0.00131894 -0.00046218 0.00006829
v 0.00132243 -0.00061516 0.00006829
v 0.00104989 -0.00068984 0.00115704
v 0.00110426 0.00996198 0.00110413
v 0.00110360 0.01026793 0.00110354
v 0.00110201 0.01103523 0.00110190
v 0.00110170 0.01118821 0.00110154
v 0.00110134 0.01134118 0.00110119
v 0.00099593 0.01149536 0.00114578
v 0.00096104 0.01149536 0.00115763
v 0.00096104 0.00445238 0.00096626
v 0.00129401 0.01149536 -0.00000023
v 0.00130140 0.00490890 -0.00000023
v 0.00096664 0.00015937 0.00097365
v 0.00096664 0.00000519 0.00097482
v 0.00096664 -0.00013936 0.00097729
v 0.00096664 -0.00028993 0.00098034
v 0.00148509 -0.00068984 0.00006829
v 0.00146314 0.00304065 -0.00000023
v 0.00111786 -0.00068984 0.00111762
v 0.00110396 0.01011616 0.00110377
v 0.00119024 -0.00068984 0.00098820
v 0.00114828 0.01134118 0.00099571
v 0.00114597 0.01149536 0.00099571
v 0.00109944 0.01149536 0.00109931
v 0.00108934 0.01159052 0.00108922
v 0.00096104 0.01157848 0.00112888
v 0.00096104 0.00460174 0.00096590
v 0.00096104 0.01149536 0.00095288
v 0.00096104 0.01160980 0.00100685
v 0.00121814 0.01158089 0.00028395
v 0.00131468 0.01155077 -0.00000023
v 0.00096104 0.00475472 0.00096555
v 0.00096104 0.00490890 0.00096520
v 0.00146314 0.00305510 -0.00000023
v 0.00145770 0.00980900 -0.00000023
v 0.00145760 0.00988609 -0.00000023
v 0.00145744 0.00996198 -0.00000023
v 0.00145673 0.01026793 -0.00000023
v 0.00145519 0.01088105 -0.00000023
v 0.00145401 0.01134118 -0.00000023
v 0.00145442 0.01118821 0.00007674
v 0.00148509 -0.00068984 0.00007674
v 0.00124697 -0.00068984 0.00084517
v 0.00123266 0.00996198 0.00078709
v 0.00122999 0.01134118 0.00077911
v 0.00122830 0.01149536 0.00077383
v 0.00122630 0.01157246 0.00076819
v 0.00123948 0.01158812 0.00068935
v 0.00110816 0.01160498 0.00099571
v 0.00099593 0.01160498 0.00110800
v 0.00096104 0.01160257 0.00111715
v 0.00096104 0.01160980 0.00102762
v 0.00099546 0.01161341 0.00099536
v 0.00133551 0.01160618 -0.00000023
v 0.00145134 0.01149536 -0.00000023
v 0.00145401 0.01134118 0.00007674
v 0.00144806 -0.00068984 0.00022998
v 0.00140020 -0.00068984 0.00038568
v 0.00141846 0.00996198 0.00022986
v 0.00141789 0.01011616 0.00022986
v 0.00138558 0.01011616 0.00032678
v 0.00138470 0.01057509 0.00032420
v 0.00138352 0.01118821 0.00032068
v 0.00125651 0.01149536 0.00068935
v 0.00138322 0.01134118 0.00031974
v 0.00137952 0.01157246 0.00030871
v 0.00139266 0.01158812 0.00022986
v 0.00126195 0.01160618 0.00053634
v 0.00141384 0.01160618 0.00007674
v 0.00141384 0.01160618 -0.00000023
v 0.00145134 0.01149536 0.00007674
v 0.00141317 0.01134118 0.00022986
v 0.00142297 -0.00068984 0.00031223
v 0.00138147 0.01149536 0.00031458
v 0.00140969 0.01149536 0.00022986
f 1 2 10
f 1 10 3
f 1 3 11
f 1 11 34
f 1 34 59
f 1 59 74
f 1 74 90
f 1 90 75
f 1 75 60
f 1 60 38
f 1 38 36
f 1 36 19
f 1 19 4
f 1 4 5
f 1 5 6
f 1 6 7
f 1 7 8
f 1 8 9
f 1 9 2
f 2 9 8
f 2 8 7
f 2 7 6
f 2 6 26
f 2 26 43
f 2 43 68
f 2 68 69
f 2 69 46
f 2 46 45
f 2 45 50
f 2 50 49
f 2 49 44
f 2 44 27
f 2 27 10
f 3 10 12
f 3 12 13
f 3 13 14
f 3 14 15
f 3 15 16
f 3 16 17
f 3 17 18
f 3 18 11
f 4 19 20
f 4 20 21
f 4 21 22
f 4 22 23
f 4 23 5
f 5 23 24
f 5 24 25
f 5 25 6
f 6 25 26
f 10 27 28
f 10 28 29
f 10 29 13
f 10 13 30
f 10 30 31
f 10 31 32
f 10 32 33
f 10 33 12
f 11 18 13
f 11 13 35
f 11 35 34
f 12 33 13
f 13 18 17
f 13 17 16
f 13 16 15
f 13 15 14
f 13 33 32
f 13 32 31
f 13 31 30
f 13 29 28
f 13 28 48
f 13 48 71
f 13 71 87
f 13 87 72
f 13 72 57
f 13 57 56
f 13 56 55
f 13 55 54
f 13 54 53
f 13 53 52
f 13 52 51
f 13 51 35
f 19 36 20
f 20 37 21
f 20 36 38
f 20 38 37
f 21 37 22
f 22 37 38
f 22 38 23
f 23 38 39
f 23 39 24
f 24 39 40
f 24 40 41
f 24 41 25
f 25 41 42
f 25 42 26
f 26 42 43
f 27 44 28
f 28 45 46
f 28 46 47
f 28 47 48
f 28 44 49
f 28 49 50
f 28 50 45
f 34 35 51
f 34 51 52
f 34 52 53
f 34 53 54
f 34 54 55
f 34 55 56
f 34 56 57
f 34 57 58
f 34 58 59
f 38 60 39
f 39 61 62
f 39 62 40
f 39 60 61
f 40 62 63
f 40 63 64
f 40 64 42
f 40 42 41
f 42 64 65
f 42 65 66
f 42 66 67
f 42 67 43
f 43 67 68
f 46 69 70
f 46 70 71
f 46 71 47
f 47 71 48
f 57 72 88
f 57 88 73
f 57 73 58
f 58 73 74
f 58 74 59
f 60 75 61
f 61 76 77
f 61 77 78
f 61 78 79
f 61 79 80
f 61 80 62
f 61 75 76
f 62 81 63
f 62 80 82
f 62 82 81
f 63 81 64
f 64 83 65
f 64 81 83
f 65 84 85
f 65 85 66
f 65 83 84
f 66 85 70
f 66 70 67
f 67 70 69
f 67 69 68
f 70 85 86
f 70 86 87
f 70 87 71
f 72 87 86
f 72 86 88
f 73 88 89
f 73 89 77
f 73 77 76
f 73 76 74
f 74 76 90
f 75 90 76
f 77 89 80
f 77 80 79
f 77 79 78
f 80 89 82
f 81 82 91
f 81 91 83
f 82 89 91
f 83 91 92
f 83 92 88
f 83 88 84
f 84 88 86
f 84 86 85
f 88 92 89
f 89 92 91

