# https://github.com/mikedh/trimesh
v -0.00008699 -0.00231611 0.00159061
v -0.00008699 -0.00231611 0.00142038
v -0.00010433 -0.00231611 0.00158578
v -0.00008699 -0.00275830 0.00170592
v -0.00008699 -0.00348268 0.00153757
v -0.00023429 -0.00348268 0.00147087
v -0.00118358 -0.00348268 0.00107878
v -0.00023879 -0.00231611 0.00136225
v -0.00021285 -0.00231611 0.00155290
v -0.00008699 -0.00290699 0.00173874
v -0.00017235 -0.00280512 0.00169159
v -0.00008699 -0.00348268 0.00173412
v -0.00140962 -0.00348268 0.00107878
v -0.00102292 -0.00231611 0.00107878
v -0.00067247 -0.00231611 0.00139975
v -0.00008699 -0.00291635 0.00174014
v -0.00022595 -0.00292012 0.00169976
v -0.00030760 -0.00298065 0.00168563
v -0.00109147 -0.00280512 0.00138522
v -0.00008699 -0.00337385 0.00175695
v -0.00022992 -0.00348017 0.00169862
v -0.00022357 -0.00348268 0.00169970
v -0.00139335 -0.00348268 0.00114280
v -0.00143331 -0.00336562 0.00107878
v -0.00126047 -0.00231611 0.00107878
v -0.00102120 -0.00231611 0.00128102
v -0.00008699 -0.00305922 0.00175729
v -0.00022992 -0.00305922 0.00171865
v -0.00114507 -0.00292012 0.00139339
v -0.00122646 -0.00298076 0.00137933
v -0.00114904 -0.00305922 0.00141227
v -0.00112244 -0.00231611 0.00124606
v -0.00008699 -0.00336562 0.00175849
v -0.00030760 -0.00344340 0.00168563
v -0.00022992 -0.00348268 0.00169775
v -0.00139123 -0.00348268 0.00114909
v -0.00139215 -0.00348017 0.00114909
v -0.00137918 -0.00344340 0.00122657
v -0.00141373 -0.00336562 0.00114909
v -0.00143702 -0.00328260 0.00107878
v -0.00138752 -0.00279816 0.00107878
v -0.00138514 -0.00280512 0.00109150
v -0.00124592 -0.00231611 0.00112251
v -0.00008699 -0.00306950 0.00175782
v -0.00022992 -0.00321237 0.00172682
v -0.00123745 -0.00248501 0.00123756
v -0.00125465 -0.00259967 0.00125477
v -0.00137918 -0.00298076 0.00122657
v -0.00131129 -0.00305922 0.00131142
v -0.00123467 -0.00305922 0.00138281
v -0.00114904 -0.00321237 0.00142044
v -0.00114123 -0.00231611 0.00123635
v -0.00008699 -0.00321237 0.00176291
v -0.00022992 -0.00336562 0.00172012
v -0.00114904 -0.00336562 0.00141375
v -0.00122646 -0.00344340 0.00137926
v -0.00114904 -0.00348268 0.00139138
v -0.00131341 -0.00348268 0.00127807
v -0.00131315 -0.00336562 0.00131323
v -0.00138342 -0.00336562 0.00123662
v -0.00142034 -0.00321237 0.00114909
v -0.00143900 -0.00321237 0.00107878
v -0.00139202 -0.00281860 0.00107878
v -0.00141280 -0.00291384 0.00107878
v -0.00139335 -0.00292012 0.00114521
v -0.00121587 -0.00238292 0.00121593
v -0.00119827 -0.00231611 0.00119838
v -0.00141214 -0.00305922 0.00114909
v -0.00138276 -0.00305922 0.00123481
v -0.00132095 -0.00321237 0.00132100
v -0.00124433 -0.00321237 0.00138689
v -0.00123652 -0.00336562 0.00138354
v -0.00127794 -0.00348268 0.00131343
v -0.00138686 -0.00321237 0.00124439
v -0.00143199 -0.00305922 0.00107878
f 1 2 8
f 1 8 14
f 1 14 25
f 1 25 43
f 1 43 67
f 1 67 52
f 1 52 32
f 1 32 26
f 1 26 15
f 1 15 9
f 1 9 3
f 1 3 4
f 1 4 10
f 1 10 16
f 1 16 27
f 1 27 44
f 1 44 53
f 1 53 33
f 1 33 20
f 1 20 12
f 1 12 5
f 1 5 2
f 2 5 6
f 2 6 7
f 2 7 8
f 3 9 4
f 4 9 11
f 4 11 10
f 5 12 22
f 5 22 35
f 5 35 57
f 5 57 73
f 5 73 58
f 5 58 36
f 5 36 23
f 5 23 13
f 5 13 7
f 5 7 6
f 7 13 24
f 7 24 40
f 7 40 62
f 7 62 75
f 7 75 64
f 7 64 63
f 7 63 41
f 7 41 25
f 7 25 14
f 7 14 8
f 9 15 11
f 10 11 17
f 10 17 18
f 10 18 16
f 11 15 19
f 11 19 29
f 11 29 17
f 12 20 21
f 12 21 22
f 13 23 24
f 15 26 19
f 16 18 28
f 16 28 27
f 17 29 18
f 18 29 30
f 18 30 31
f 18 31 28
f 19 26 32
f 19 32 30
f 19 30 29
f 20 33 34
f 20 34 21
f 21 34 35
f 21 35 22
f 23 36 37
f 23 37 38
f 23 38 24
f 24 38 39
f 24 39 40
f 25 41 42
f 25 42 43
f 27 28 45
f 27 45 44
f 28 31 51
f 28 51 45
f 30 32 46
f 30 46 47
f 30 47 48
f 30 48 49
f 30 49 50
f 30 50 31
f 31 50 51
f 32 52 46
f 33 53 45
f 33 45 54
f 33 54 34
f 34 54 55
f 34 55 56
f 34 56 57
f 34 57 35
f 36 58 38
f 36 38 37
f 38 59 60
f 38 60 39
f 38 58 56
f 38 56 59
f 39 61 40
f 39 60 61
f 40 61 62
f 41 63 42
f 42 63 64
f 42 64 65
f 42 65 48
f 42 48 43
f 43 46 66
f 43 66 67
f 43 48 46
f 44 45 53
f 45 51 55
f 45 55 54
f 46 48 47
f 46 52 66
f 48 65 64
f 48 64 68
f 48 68 69
f 48 69 49
f 49 69 70
f 49 70 50
f 50 70 71
f 50 71 51
f 51 71 72
f 51 72 55
f 52 67 66
f 55 72 56
f 56 72 59
f 56 58 73
f 56 73 57
f 59 70 60
f 59 72 70
f 60 74 61
f 60 70 74
f 61 74 69
f 61 69 68
f 61 68 75
f 61 75 62
f 64 75 68
f 69 74 70
f 70 72 71

