# https://github.com/mikedh/trimesh
v -0.00108073 -0.00348241 -0.00140907
v -0.00074025 -0.00348241 -0.00152725
v -0.00108073 -0.00348241 -0.00117509
v -0.00108073 -0.00336545 -0.00143275
v -0.00076710 -0.00344333 -0.00153240
v -0.00068756 -0.00348241 -0.00154509
v 0.00007678 -0.00348241 -0.00154171
v -0.00108073 -0.00231586 -0.00102023
v -0.00108073 -0.00328047 -0.00143652
v -0.00078002 -0.00336545 -0.00153671
v -0.00030766 -0.00344333 -0.00168557
v -0.00022993 -0.00348241 -0.00169772
v 0.00007678 -0.00348241 -0.00173416
v 0.00007678 -0.00231586 -0.00142052
v 0.00007316 -0.00197428 -0.00136193
v 0.00007316 -0.00197564 -0.00136209
v -0.00097966 -0.00194832 -0.00101892
v -0.00097966 -0.00183355 -0.00100969
v -0.00097966 -0.00180595 -0.00100839
v -0.00097966 -0.00165729 -0.00100400
v -0.00097966 -0.00150837 -0.00099985
v -0.00097966 -0.00135944 -0.00099593
v -0.00097966 -0.00120997 -0.00099209
v -0.00097966 -0.00105995 -0.00098847
v -0.00097966 -0.00090992 -0.00098501
v -0.00097966 -0.00075963 -0.00098155
v -0.00097966 -0.00069104 -0.00098001
v -0.00108073 -0.00231586 -0.00125990
v -0.00108073 -0.00321215 -0.00143836
v -0.00078999 -0.00321215 -0.00154001
v -0.00032046 -0.00336545 -0.00168988
v -0.00022993 -0.00321215 -0.00172678
v -0.00022993 -0.00336545 -0.00172002
v -0.00007674 -0.00336545 -0.00176123
v -0.00022993 -0.00347995 -0.00169856
v -0.00022823 -0.00348241 -0.00169826
v -0.00008671 -0.00348241 -0.00173416
v 0.00007678 -0.00336573 -0.00176123
v 0.00007678 -0.00231586 -0.00149050
v 0.00007316 -0.00069104 -0.00132418
v 0.00007316 -0.00137420 -0.00133987
v 0.00007316 -0.00168380 -0.00134702
v 0.00007316 -0.00183355 -0.00135055
v 0.00007316 -0.00183683 -0.00135078
v -0.00097966 -0.00069104 -0.00119354
v -0.00108073 -0.00279898 -0.00138723
v -0.00108073 -0.00305913 -0.00143137
v -0.00077775 -0.00305913 -0.00153594
v -0.00007674 -0.00321215 -0.00176554
v -0.00022993 -0.00305913 -0.00171856
v -0.00007674 -0.00305913 -0.00176000
v -0.00022370 -0.00348241 -0.00169964
v 0.00007656 -0.00321215 -0.00176554
v 0.00007678 -0.00321243 -0.00176546
v 0.00007678 -0.00231613 -0.00159338
v 0.00007316 -0.00069104 -0.00148504
v -0.00084517 -0.00069104 -0.00124713
v -0.00108073 -0.00291402 -0.00141222
v -0.00108073 -0.00281647 -0.00139108
v -0.00076710 -0.00298043 -0.00153240
v -0.00030766 -0.00298043 -0.00168557
v -0.00038572 -0.00069104 -0.00140015
v -0.00022993 -0.00069104 -0.00144805
v 0.00007678 -0.00305913 -0.00176000
v -0.00014676 -0.00069104 -0.00146874
v -0.00007663 -0.00069104 -0.00148504
v 0.00007678 -0.00274979 -0.00170687
v 0.00007678 -0.00290610 -0.00174162
f 1 2 6
f 1 6 12
f 1 12 36
f 1 36 52
f 1 52 37
f 1 37 13
f 1 13 7
f 1 7 3
f 1 3 8
f 1 8 28
f 1 28 46
f 1 46 59
f 1 59 58
f 1 58 47
f 1 47 29
f 1 29 9
f 1 9 4
f 1 4 5
f 1 5 2
f 2 5 6
f 3 7 8
f 4 9 10
f 4 10 5
f 5 10 11
f 5 11 12
f 5 12 6
f 7 13 38
f 7 38 54
f 7 54 64
f 7 64 68
f 7 68 67
f 7 67 55
f 7 55 39
f 7 39 14
f 7 14 15
f 7 15 16
f 7 16 8
f 8 16 15
f 8 15 17
f 8 17 18
f 8 18 19
f 8 19 20
f 8 20 21
f 8 21 22
f 8 22 23
f 8 23 24
f 8 24 25
f 8 25 26
f 8 26 27
f 8 27 45
f 8 45 28
f 9 29 30
f 9 30 10
f 10 31 11
f 10 30 32
f 10 32 31
f 11 31 33
f 11 33 34
f 11 34 35
f 11 35 12
f 12 35 36
f 13 37 38
f 14 39 56
f 14 56 40
f 14 40 41
f 14 41 42
f 14 42 43
f 14 43 44
f 14 44 15
f 15 44 17
f 17 44 18
f 18 44 43
f 18 43 19
f 19 43 20
f 20 43 21
f 21 43 22
f 22 43 23
f 23 43 24
f 24 43 42
f 24 42 41
f 24 41 25
f 25 41 26
f 26 41 40
f 26 40 27
f 27 40 56
f 27 56 66
f 27 66 65
f 27 65 63
f 27 63 62
f 27 62 57
f 27 57 45
f 28 45 46
f 29 47 30
f 30 47 48
f 30 48 32
f 31 32 33
f 32 49 34
f 32 34 33
f 32 48 50
f 32 50 51
f 32 51 49
f 34 38 37
f 34 37 52
f 34 52 35
f 34 49 38
f 35 52 36
f 38 49 53
f 38 53 54
f 39 55 56
f 45 57 47
f 45 47 58
f 45 58 59
f 45 59 46
f 47 57 60
f 47 60 48
f 48 60 61
f 48 61 50
f 49 51 64
f 49 64 53
f 50 61 62
f 50 62 63
f 50 63 51
f 51 63 65
f 51 65 66
f 51 66 56
f 51 56 64
f 53 64 54
f 55 67 56
f 56 67 68
f 56 68 64
f 57 62 61
f 57 61 60

