# https://github.com/mikedh/trimesh
v -0.00093101 0.00303964 0.00098804
v -0.00116110 0.00303964 0.00098804
v -0.00093215 0.00242188 0.00098804
v -0.00130170 0.00475566 -0.00000014
v -0.00130126 0.00506153 -0.00000014
v -0.00129405 0.01149449 -0.00000014
v -0.00095048 0.01149449 0.00096240
v -0.00100668 0.01161130 0.00096240
v -0.00119028 -0.00069104 0.00098804
v -0.00111695 0.01160287 0.00096240
v -0.00112823 0.01157999 0.00096240
v -0.00115736 0.01149449 0.00096240
v -0.00115958 0.01134156 0.00096240
v -0.00093264 0.00230747 0.00098804
v -0.00130495 0.00303964 -0.00000014
v -0.00133549 0.01160528 -0.00000014
v -0.00121806 0.01158120 0.00028391
v -0.00106499 0.01158120 0.00074336
v -0.00141387 0.01160528 -0.00000014
v -0.00141387 0.01160528 0.00007668
v -0.00126194 0.01160528 0.00053613
v -0.00124697 -0.00069104 0.00084514
v -0.00096898 -0.00069104 0.00098804
v -0.00123948 0.01158722 0.00068938
v -0.00122630 0.01157156 0.00076813
v -0.00122825 0.01149449 0.00077394
v -0.00122999 0.01134156 0.00077906
v -0.00123211 0.01026859 0.00078535
v -0.00123265 0.00996152 0.00078709
v -0.00094430 0.00015914 0.00098804
v -0.00146318 0.00303964 -0.00000014
v -0.00131103 0.00000500 0.00006836
v -0.00131265 -0.00013951 0.00006836
v -0.00131276 -0.00014794 0.00006836
v -0.00131537 -0.00030087 0.00006836
v -0.00131873 -0.00045381 0.00006836
v -0.00132415 -0.00069104 0.00006836
v -0.00143269 0.01154989 -0.00000014
v -0.00139266 0.01158722 0.00022993
v -0.00145135 0.01149449 0.00007668
v -0.00140015 -0.00069104 0.00038579
v -0.00141848 0.00996152 0.00022993
v -0.00096616 -0.00060675 0.00098804
v -0.00137959 0.01157156 0.00030878
v -0.00125646 0.01149449 0.00068938
v -0.00125993 0.01134156 0.00068938
v -0.00141316 0.01134156 0.00022993
v -0.00094647 0.00000500 0.00098804
v -0.00148514 -0.00069104 0.00006836
v -0.00145770 0.00980979 -0.00000014
v -0.00095092 -0.00014794 0.00098804
v -0.00145135 0.01149449 -0.00000014
v -0.00140969 0.01149449 0.00022993
v -0.00145271 0.01141742 -0.00000014
v -0.00145401 0.01134156 0.00007668
v -0.00144804 -0.00069104 0.00022983
v -0.00148514 -0.00069104 0.00007668
v -0.00145460 0.01111155 -0.00000014
v -0.00145748 0.00996152 -0.00000014
v -0.00145401 0.01134156 -0.00000014
v -0.00146876 -0.00069104 0.00014672
f 1 2 9
f 1 9 23
f 1 23 43
f 1 43 51
f 1 51 48
f 1 48 30
f 1 30 14
f 1 14 3
f 1 3 4
f 1 4 5
f 1 5 6
f 1 6 7
f 1 7 8
f 1 8 2
f 2 8 10
f 2 10 11
f 2 11 12
f 2 12 13
f 2 13 9
f 3 14 15
f 3 15 4
f 4 15 31
f 4 31 50
f 4 50 59
f 4 59 58
f 4 58 60
f 4 60 54
f 4 54 52
f 4 52 38
f 4 38 19
f 4 19 16
f 4 16 6
f 4 6 5
f 6 16 17
f 6 17 7
f 7 17 18
f 7 18 8
f 8 18 17
f 8 17 16
f 8 16 19
f 8 19 20
f 8 20 21
f 8 21 10
f 9 22 41
f 9 41 56
f 9 56 61
f 9 61 57
f 9 57 49
f 9 49 37
f 9 37 23
f 9 13 22
f 10 21 24
f 10 24 25
f 10 25 11
f 11 25 12
f 12 25 26
f 12 26 27
f 12 27 13
f 13 27 28
f 13 28 29
f 13 29 22
f 14 30 15
f 15 30 32
f 15 32 33
f 15 33 34
f 15 34 35
f 15 35 36
f 15 36 37
f 15 37 49
f 15 49 31
f 19 38 20
f 20 39 21
f 20 38 40
f 20 40 39
f 21 39 24
f 22 29 42
f 22 42 41
f 23 37 43
f 24 39 44
f 24 44 25
f 25 44 26
f 26 45 46
f 26 46 27
f 26 44 45
f 27 46 28
f 28 46 47
f 28 47 42
f 28 42 29
f 30 48 34
f 30 34 33
f 30 33 32
f 31 49 50
f 34 48 35
f 35 48 36
f 36 48 37
f 37 48 51
f 37 51 43
f 38 52 40
f 39 40 44
f 40 53 44
f 40 52 54
f 40 54 55
f 40 55 47
f 40 47 53
f 41 42 56
f 42 47 55
f 42 55 56
f 44 53 45
f 45 53 47
f 45 47 46
f 49 57 58
f 49 58 59
f 49 59 50
f 54 60 55
f 55 60 58
f 55 58 57
f 55 57 61
f 55 61 56

