# https://github.com/mikedh/trimesh
v -0.00099032 -0.00231586 0.00129076
v -0.00099586 -0.00231586 0.00128912
v -0.00140965 -0.00348241 0.00107871
v -0.00118367 -0.00348241 0.00107871
v -0.00099032 -0.00231586 0.00110133
v -0.00099032 -0.00069241 0.00118903
v -0.00102136 -0.00231586 0.00128091
v -0.00143340 -0.00336545 0.00107871
v -0.00153235 -0.00344333 0.00076707
v -0.00153964 -0.00348241 0.00070325
v -0.00154176 -0.00348241 -0.00000028
v -0.00099032 -0.00224289 0.00107732
v -0.00099032 -0.00069104 0.00118890
v -0.00111788 -0.00069104 0.00111763
v -0.00114125 -0.00231586 0.00123617
v -0.00112251 -0.00231586 0.00124590
v -0.00143697 -0.00328238 0.00107871
v -0.00154002 -0.00321215 0.00078994
v -0.00153668 -0.00336545 0.00077996
v -0.00168564 -0.00344333 0.00030769
v -0.00169770 -0.00348241 0.00022997
v -0.00154442 -0.00348241 0.00068922
v -0.00142058 -0.00231586 -0.00000028
v -0.00136207 -0.00197428 0.00000047
v -0.00173428 -0.00348241 -0.00000028
v -0.00099032 -0.00213987 0.00105166
v -0.00099032 -0.00069104 0.00096573
v -0.00119847 -0.00231586 0.00119826
v -0.00115719 -0.00069104 0.00104964
v -0.00143204 -0.00305913 0.00107871
v -0.00143894 -0.00321215 0.00107871
v -0.00169322 -0.00321215 0.00033057
v -0.00153592 -0.00305913 0.00077768
v -0.00171864 -0.00305913 0.00022997
v -0.00168988 -0.00336545 0.00032058
v -0.00169854 -0.00347995 0.00022997
v -0.00172009 -0.00336545 0.00022997
v -0.00176121 -0.00336545 0.00007668
v -0.00169967 -0.00348241 0.00022365
v -0.00132421 -0.00069104 0.00000047
v -0.00132580 -0.00076127 0.00000047
v -0.00134515 -0.00160401 0.00000047
v -0.00134879 -0.00175731 0.00000047
v -0.00135061 -0.00183355 0.00000047
v -0.00159344 -0.00231586 -0.00000028
v -0.00099032 -0.00196198 0.00100794
v -0.00173428 -0.00348241 0.00008666
v -0.00176121 -0.00336545 -0.00000028
v -0.00099032 -0.00183355 0.00099909
v -0.00119020 -0.00069104 0.00098810
v -0.00153235 -0.00298043 0.00076707
v -0.00124711 -0.00069104 0.00084517
v -0.00172676 -0.00321215 0.00022997
v -0.00168564 -0.00298043 0.00030769
v -0.00176008 -0.00305913 0.00007668
v -0.00140017 -0.00069104 0.00038567
v -0.00144805 -0.00069104 0.00022997
v -0.00176546 -0.00321215 0.00007668
v -0.00176334 -0.00328921 -0.00000028
v -0.00099032 -0.00183819 0.00099934
v -0.00148508 -0.00069104 0.00000047
v -0.00169375 -0.00264432 -0.00000028
v -0.00176008 -0.00305913 -0.00000028
v -0.00146876 -0.00069104 0.00014682
v -0.00148508 -0.00069104 0.00007681
v -0.00176546 -0.00321215 -0.00000028
v -0.00174164 -0.00290583 -0.00000028
v -0.00175089 -0.00298261 -0.00000028
f 1 2 3
f 1 3 4
f 1 4 5
f 1 5 12
f 1 12 26
f 1 26 46
f 1 46 60
f 1 60 49
f 1 49 27
f 1 27 13
f 1 13 6
f 1 6 2
f 2 7 3
f 2 6 7
f 3 7 8
f 3 8 9
f 3 9 10
f 3 10 22
f 3 22 21
f 3 21 39
f 3 39 47
f 3 47 25
f 3 25 11
f 3 11 4
f 4 11 5
f 5 11 12
f 6 13 14
f 6 14 15
f 6 15 16
f 6 16 7
f 7 16 8
f 8 17 18
f 8 18 19
f 8 19 9
f 8 16 17
f 9 20 21
f 9 21 22
f 9 22 10
f 9 19 20
f 11 23 24
f 11 24 12
f 11 25 48
f 11 48 59
f 11 59 66
f 11 66 63
f 11 63 68
f 11 68 67
f 11 67 62
f 11 62 45
f 11 45 23
f 12 24 26
f 13 27 40
f 13 40 61
f 13 61 65
f 13 65 64
f 13 64 57
f 13 57 56
f 13 56 52
f 13 52 50
f 13 50 29
f 13 29 14
f 14 28 15
f 14 29 30
f 14 30 28
f 15 28 30
f 15 30 31
f 15 31 16
f 16 31 17
f 17 31 18
f 18 32 35
f 18 35 19
f 18 31 30
f 18 30 33
f 18 33 34
f 18 34 32
f 19 35 20
f 20 36 21
f 20 35 37
f 20 37 38
f 20 38 36
f 21 36 39
f 23 40 41
f 23 41 42
f 23 42 43
f 23 43 44
f 23 44 24
f 23 45 61
f 23 61 40
f 24 44 46
f 24 46 26
f 25 47 38
f 25 38 48
f 27 49 40
f 29 50 30
f 30 51 33
f 30 50 52
f 30 52 51
f 32 34 53
f 32 53 35
f 33 51 54
f 33 54 34
f 34 55 53
f 34 54 56
f 34 56 57
f 34 57 55
f 35 53 37
f 36 38 39
f 37 53 38
f 38 53 58
f 38 58 59
f 38 59 48
f 38 47 39
f 40 49 60
f 40 60 41
f 41 60 42
f 42 60 43
f 43 60 44
f 44 60 46
f 45 62 61
f 51 52 54
f 52 56 54
f 53 55 58
f 55 63 66
f 55 66 58
f 55 57 64
f 55 64 65
f 55 65 61
f 55 61 63
f 58 66 59
f 61 62 67
f 61 67 68
f 61 68 63

