# Blender 4.0.0
# www.blender.org
o decimated_mesh
v 0.521538 2.141543 -0.048926
v 0.521526 2.141057 0.012367
v 0.538443 2.134745 0.026195
v -0.521979 2.141731 -0.048686
v -0.538801 2.135000 0.026441
v 0.548577 2.119308 0.012367
v 0.537834 2.133629 -0.067215
v 0.521526 2.119308 0.032484
v 0.548361 2.119308 -0.051527
v -0.538129 2.133743 -0.066493
v -0.549189 2.119308 0.012367
v 0.548900 1.970778 0.012367
v 0.549311 1.970780 -0.050005
v -0.549152 2.118948 -0.051474
v 0.538410 1.970778 0.029388
v 0.538344 1.970778 -0.068100
v -0.550062 1.970781 -0.049380
v -0.549513 1.970778 0.012367
v -0.538245 1.970771 0.030201
v -0.538222 1.970778 -0.068846
vn 1.0000 0.0022 0.0066
vn 0.8552 0.0002 -0.5183
vn 0.0008 -0.0208 0.9998
vn 0.8348 0.5505 -0.0028
vn -0.8085 0.5884 -0.0138
vn -0.0002 0.9125 -0.4092
vn -0.8544 -0.0021 -0.5197
vn 0.8124 0.0112 0.5829
vn -0.0007 0.0144 -0.9999
vn -0.8454 0.0018 0.5341
vn 1.0000 0.0064 -0.0034
vn 0.8327 0.0056 -0.5537
vn -0.0054 0.0229 0.9997
vn 0.8120 0.5835 -0.0123
vn 0.3337 0.0183 0.9425
vn -0.8323 0.5542 -0.0036
vn 0.0001 0.9178 -0.3971
vn -0.8103 0.0089 -0.5859
vn -0.4297 0.9029 -0.0153
vn 0.8513 0.0019 0.5247
vn 0.0003 0.3770 0.9262
vn 0.0003 0.9098 0.4149
vn -0.0045 0.9961 0.0882
vn 0.0002 1.0000 0.0079
vn 0.0007 0.0054 -1.0000
vn -0.0000 -1.0000 -0.0001
vn 0.0001 1.0000 -0.0000
vn -0.0000 1.0000 -0.0000
vn -0.0001 1.0000 -0.0000
vn -0.0005 -1.0000 -0.0000
vn -0.0004 -1.0000 -0.0001
vn -0.8102 0.0107 0.5861
vn 0.3442 0.9389 0.0075
vn 0.4244 0.9054 -0.0136
vn -0.9999 0.0063 0.0089
vn -1.0000 0.0022 -0.0006
vn -1.0000 0.0061 -0.0006
vn -1.0000 0.0022 0.0089
vn -0.0000 1.0000 -0.0001
s 0
f 6//1 12//1 13//1
f 16//2 9//2 13//2
f 8//3 19//3 15//3
f 9//4 3//4 6//4
f 14//5 5//5 10//5
f 4//6 7//6 10//6
f 20//7 17//7 14//7
f 15//8 6//8 3//8
f 7//9 20//9 10//9
f 19//10 11//10 18//10
f 9//11 6//11 13//11
f 16//12 7//12 9//12
f 8//13 5//13 19//13
f 9//14 7//14 3//14
f 3//15 8//15 15//15
f 14//16 11//16 5//16
f 4//17 1//17 7//17
f 10//18 20//18 14//18
f 10//19 5//19 4//19
f 15//20 12//20 6//20
f 8//21 3//21 5//21
f 3//22 2//22 5//22
f 4//23 5//23 2//23
f 4//24 2//24 1//24
f 7//25 16//25 20//25
f 20//26 16//26 19//26
f 13//27 15//27 12//27
f 15//28 16//28 19//28
f 13//29 16//29 15//29
f 18//30 17//30 19//30
f 19//31 17//31 20//31
f 19//32 5//32 11//32
f 2//33 3//33 1//33
f 3//34 7//34 1//34
f 17//35 18//35 14//35
f 18//36 11//36 14//36
f 17//37 11//37 14//37
f 17//38 18//38 11//38
f 16//39 19//39 13//39
f 13//28 19//28 12//28
f 12//28 19//28 15//28
