# Blender 4.0.0
# www.blender.org
o decimated_mesh
v 0.425379 1.970761 -0.043757
v 0.449408 1.970761 0.027170
v 0.440190 1.970761 -0.068734
v 0.441398 -0.002434 -0.067457
v 0.428658 0.010796 -0.051529
v 0.428139 0.010796 -0.030221
v 0.447884 -0.000736 0.023742
v 0.439905 -0.008707 -0.050122
v 0.474429 -0.002949 0.029433
v 0.521535 0.010796 -0.071654
v 0.478940 -0.010745 0.012363
v 0.537266 1.970761 0.030315
v 0.538360 1.970761 -0.068097
v 0.538545 -0.004426 -0.065277
v 0.521535 -0.010939 -0.051529
v 0.537584 -0.005435 0.026600
v 0.548634 0.010796 -0.051529
v 0.548393 0.010796 0.012363
v 0.548755 1.970761 -0.051529
v 0.549726 1.970761 0.010539
vn -0.0000 1.0000 -0.0000
vn 0.0447 -0.0019 0.9990
vn -0.9997 -0.0016 -0.0244
vn 0.8066 -0.0008 -0.5911
vn 0.3500 -0.0013 -0.9367
vn -0.8305 -0.4971 -0.2514
vn -0.7713 -0.6185 0.1501
vn -0.2602 -0.9566 0.1313
vn -0.1567 -0.9134 0.3757
vn 0.8336 -0.5524 0.0032
vn 0.0131 -0.3738 -0.9274
vn -0.0522 -0.0007 -0.9986
vn -0.7813 -0.0009 -0.6242
vn -0.0276 -0.9995 -0.0154
vn -0.9391 0.0001 0.3437
vn 0.8461 -0.0001 0.5331
vn -0.0322 -0.8873 -0.4601
vn 1.0000 -0.0007 0.0038
vn -0.0358 0.0007 0.9994
vn 0.8471 -0.0001 -0.5315
vn -0.2097 -0.0015 0.9778
vn -0.8654 -0.5006 -0.0211
vn 0.8324 -0.5541 0.0026
vn 0.0065 0.0018 -1.0000
vn 0.3529 -0.9356 -0.0066
vn -0.8601 0.0006 -0.5101
vn 0.0769 -0.9956 0.0543
vn -0.9471 0.0009 0.3209
vn 0.7970 -0.0010 0.6039
vn -0.0174 -0.9112 0.4115
vn -0.0116 -0.9399 -0.3411
vn 0.9999 -0.0001 -0.0156
vn -0.0086 -0.8995 -0.4368
vn -0.0316 -0.9390 -0.3425
s 0
f 1//1 2//1 3//1
f 12//2 9//2 16//2
f 6//3 1//3 5//3
f 13//4 17//4 14//4
f 10//5 13//5 14//5
f 5//6 4//6 8//6
f 6//7 8//7 7//7
f 8//8 11//8 7//8
f 7//9 11//9 9//9
f 16//10 17//10 18//10
f 4//11 10//11 14//11
f 3//12 10//12 4//12
f 5//13 3//13 4//13
f 8//14 15//14 11//14
f 2//15 6//15 7//15
f 12//16 18//16 20//16
f 8//17 14//17 15//17
f 20//18 18//18 17//18
f 2//1 12//1 20//1
f 20//1 19//1 13//1
f 13//1 3//1 2//1
f 20//1 13//1 2//1
f 12//19 2//19 9//19
f 13//20 19//20 17//20
f 2//21 7//21 9//21
f 8//22 6//22 5//22
f 16//23 14//23 17//23
f 3//24 13//24 10//24
f 15//25 14//25 16//25
f 5//26 1//26 3//26
f 15//27 16//27 11//27
f 2//28 1//28 6//28
f 12//29 16//29 18//29
f 9//30 11//30 16//30
f 8//31 4//31 14//31
f 17//32 19//32 20//32
f 2//1 12//1 1//1
f 12//1 13//1 1//1
f 13//1 3//1 1//1
f 20//1 19//1 12//1
f 19//1 13//1 12//1
f 15//33 4//33 14//33
f 15//34 8//34 4//34
