# Blender 4.0.0
# www.blender.org
o decimated_mesh
v -0.549258 0.010796 -0.051528
v -0.538557 -0.003529 -0.067783
v -0.549008 0.010796 0.012363
v -0.550332 1.970761 0.010642
v -0.543646 1.970762 -0.065275
v -0.522143 -0.010939 -0.051528
v -0.538814 -0.005347 0.025504
v -0.442779 -0.003889 -0.067373
v -0.456659 -0.011864 -0.046112
v -0.522143 0.010796 0.031775
v -0.539005 1.970761 0.029415
v -0.441728 1.970761 -0.068805
v -0.479560 -0.010745 0.012363
v -0.463500 -0.002676 0.027879
v -0.431047 0.010796 -0.051528
v -0.427266 1.970762 -0.040602
v -0.439071 -0.004897 -0.022350
v -0.430487 0.010796 -0.030221
v -0.449058 0.015609 0.016982
v -0.459175 1.970762 0.029490
vn 0.8793 -0.2925 0.3758
vn -0.3957 -0.9182 -0.0190
vn 0.2339 -0.9660 0.1101
vn 0.8898 0.0008 -0.4563
vn -0.0009 0.0012 1.0000
vn 0.0043 -0.0007 -1.0000
vn -0.7909 -0.0013 0.6120
vn 0.0151 -0.9394 -0.3425
vn -0.8467 -0.5320 0.0033
vn -0.8359 -0.0015 -0.5490
vn 0.4319 -0.9002 -0.0557
vn 0.8178 -0.3984 0.4153
vn -0.3505 -0.0019 0.9366
vn 0.8722 -0.4886 -0.0229
vn 0.0176 -0.8944 0.4469
vn -1.0000 -0.0007 0.0039
vn 0.2934 -0.9381 0.1842
vn -0.0000 1.0000 -0.0000
vn 0.6039 -0.0020 0.7971
vn 0.9997 -0.0018 -0.0263
vn 0.8041 -0.0009 -0.5946
vn 0.0661 -0.0010 0.9978
vn -0.0152 -0.9998 0.0132
vn -0.0784 -0.9954 0.0553
vn -0.0173 -0.3465 0.9379
vn -0.0346 0.0012 -0.9994
vn -0.8562 -0.0001 0.5166
vn -0.0017 -0.9105 -0.4134
vn -0.8085 -0.5884 -0.0137
vn 0.9306 0.0004 0.3661
vn 0.9101 0.0021 0.4143
vn 0.8192 -0.5679 -0.0802
vn -0.9961 0.0022 -0.0877
s 0
f 19//1 17//1 18//1
f 6//2 7//2 2//2
f 17//3 13//3 9//3
f 15//4 12//4 16//4
f 10//5 20//5 11//5
f 2//6 12//6 8//6
f 11//7 3//7 7//7
f 6//8 8//8 9//8
f 1//9 7//9 3//9
f 1//10 5//10 2//10
f 17//11 9//11 8//11
f 14//12 17//12 19//12
f 11//13 7//13 10//13
f 17//14 15//14 18//14
f 7//15 13//15 14//15
f 4//16 1//16 3//16
f 17//17 14//17 13//17
f 5//18 4//18 20//18
f 11//18 20//18 4//18
f 20//18 16//18 12//18
f 12//18 5//18 20//18
f 20//19 14//19 19//19
f 18//20 15//20 16//20
f 15//21 8//21 12//21
f 10//22 14//22 20//22
f 9//23 13//23 6//23
f 13//24 7//24 6//24
f 14//25 10//25 7//25
f 2//26 5//26 12//26
f 11//27 4//27 3//27
f 6//28 2//28 8//28
f 1//29 2//29 7//29
f 18//30 16//30 19//30
f 16//31 20//31 19//31
f 17//32 8//32 15//32
f 4//33 5//33 1//33
f 11//18 5//18 4//18
f 20//18 5//18 11//18
f 20//18 16//18 5//18
f 16//18 12//18 5//18
