# https://github.com/mikedh/trimesh
mtllib material.mtl
usemtl material_0
v 0.14582149 -0.11453218 0.17104773
v 0.14582149 -0.10502628 0.18133094
v 0.14582149 -0.10688068 0.18114798
v 0.14582149 -0.10866398 0.18060706
v 0.14582149 -0.11030738 0.17972876
v 0.14582149 -0.11174788 0.17854651
v 0.14582149 -0.11293008 0.17710608
v 0.14582149 -0.11380858 0.17546256
v 0.14582149 -0.11434948 0.17367942
v 0.17827799 -0.11453218 0.17104773
v 0.17827799 -0.10502628 0.18133094
v 0.17827799 -0.10688068 0.18114798
v 0.17827799 -0.10866398 0.18060706
v 0.17827799 -0.11030738 0.17972876
v 0.17827799 -0.11174788 0.17854651
v 0.17827799 -0.11293008 0.17710608
v 0.17827799 -0.11380858 0.17546256
v 0.17827799 -0.11434948 0.17367942
v 0.17827799 -0.12403798 0.17104773
v 0.17827799 -0.10502628 0.19083670
v 0.17827799 -0.10873528 0.19047143
v 0.17827799 -0.11230178 0.18938941
v 0.17827799 -0.11558858 0.18763249
v 0.17827799 -0.11846958 0.18526831
v 0.17827799 -0.12083398 0.18238715
v 0.17827799 -0.12259088 0.17910041
v 0.17827799 -0.12367268 0.17553382
v 0.14582149 -0.12403798 0.17104773
v 0.14582149 -0.10502628 0.19083670
v 0.14582149 -0.10873528 0.19047143
v 0.14582149 -0.11230178 0.18938941
v 0.14582149 -0.11558858 0.18763249
v 0.14582149 -0.11846958 0.18526831
v 0.14582149 -0.12083398 0.18238715
v 0.14582149 -0.12259088 0.17910041
v 0.14582149 -0.12367268 0.17553382
v 0.14582149 0.12982122 0.17104773
v 0.14582149 0.12963852 0.17367942
v 0.17827799 0.12982122 0.17104773
v 0.17827799 0.12963852 0.17367942
v 0.14582149 0.12909762 0.17546256
v 0.17827799 0.12909762 0.17546256
v 0.14582149 0.12821917 0.17710608
v 0.17827799 0.12821917 0.17710608
v 0.14582149 0.12703697 0.17854651
v 0.17827799 0.12703697 0.17854651
v 0.14582149 0.12559648 0.17972876
v 0.17827799 0.12559648 0.17972876
v 0.14582149 0.12395309 0.18060706
v 0.17827799 0.12395309 0.18060706
v 0.14582149 0.12216980 0.18114798
v 0.17827799 0.12216980 0.18114798
v 0.14582149 0.12031525 0.18133094
v 0.17827799 0.12031525 0.18133094
v 0.17827799 0.13932712 0.17104773
v 0.17827799 0.13896172 0.17553382
v 0.17827799 0.13787992 0.17910041
v 0.17827799 0.13612302 0.18238715
v 0.17827799 0.13375872 0.18526831
v 0.17827799 0.13087762 0.18763249
v 0.17827799 0.12759078 0.18938956
v 0.17827799 0.12402437 0.19047143
v 0.17827799 0.12031525 0.19083670
v 0.14582149 0.13932712 0.17104773
v 0.14582149 0.13896172 0.17553382
v 0.14582149 0.13787992 0.17910041
v 0.14582149 0.13612302 0.18238715
v 0.14582149 0.13375872 0.18526831
v 0.14582149 0.13087762 0.18763249
v 0.14582149 0.12759078 0.18938956
v 0.14582149 0.12402437 0.19047143
v 0.14582149 0.12031525 0.19083670
v 0.14582149 0.12982122 0.16860177
v 0.17827799 0.12982122 0.16860177
v 0.14582149 0.13932712 0.16860177
v 0.17827799 0.13932712 0.16860177
v 0.17827799 -0.11453218 0.16860177
v 0.17827799 -0.12403798 0.16860177
v 0.14582149 -0.12403798 0.16860177
v 0.14582149 -0.11453218 0.16860177
v 0.17847959 0.08617683 0.12287266
v 0.17847959 0.09024826 0.12287266
v 0.17847959 -0.08033088 0.12287266
v 0.17847959 -0.07611718 0.12287266
v 0.17847959 0.09288076 0.12287266
v 0.17847959 -0.08439098 0.12287266
v 0.17847959 0.09024826 0.15812688
v 0.17847959 0.09288076 0.15812688
v 0.17847959 -0.08033088 0.15812688
v 0.17847959 -0.07611718 0.15812688
v 0.17847959 0.08617683 0.15812688
v 0.17847959 -0.08439098 0.15812688
v 0.17847959 0.08617683 0.16857428
v 0.17847959 0.09024826 0.16857428
v 0.17847959 -0.08033088 0.16857428
v 0.17847959 -0.07611718 0.16857428
v 0.17847959 0.09288076 0.16857428
v 0.17847959 -0.08439098 0.16857428
v 0.18761599 0.09024826 0.12287266
v 0.18761599 0.09288076 0.12287266
v 0.18761599 -0.08033088 0.12287266
v 0.18761599 -0.07611718 0.12287266
v 0.18761599 0.08617683 0.12287266
v 0.18761599 -0.08439098 0.12287266
v 0.18761599 -0.08558968 0.12371069
v 0.18761599 0.09024826 0.16857428
v 0.18761599 0.09288076 0.16857428
v 0.18761599 -0.08033088 0.16857428
v 0.18761599 -0.07611718 0.16857428
v 0.18761599 0.08617683 0.16857428
v 0.18761599 -0.08439098 0.16857428
v 0.18761599 -0.08558968 0.16773627
v 0.17590929 0.08507438 0.15977244
v 0.17590929 0.08756361 0.15977244
v 0.17590929 -0.07622258 0.15977244
v 0.17590929 -0.07223808 0.15977244
v 0.17590929 0.08122450 0.15977244
v 0.17590929 -0.08006168 0.15977244
v 0.00733699 0.08905054 0.15977244
v -0.13671741 0.08894441 0.15977244
v 0.00733699 -0.08459808 0.15977244
v -0.13671741 -0.08116858 0.15977244
v -0.28008241 0.08852779 0.15977244
v -0.28202503 0.08729176 0.15977244
v -0.28035619 -0.07509228 0.15977244
v -0.28332744 -0.07320988 0.15977244
v -0.28438766 -0.07000629 0.15977244
v -0.28335292 0.08545954 0.15977244
v -0.28390096 0.08254162 0.15977244
v -0.27691990 0.08875829 0.15977244
v -0.27662750 -0.07538158 0.15977244
v -0.28434337 -0.06676548 0.15977244
v 0.17590929 -0.08119508 0.15977244
v 0.17590929 0.08890898 0.15977244
v 0.00733699 0.08905054 0.16938182
v 0.00733699 -0.08459808 0.16938182
v -0.13671741 0.08894441 0.16938182
v -0.13671741 -0.08116858 0.16938182
v -0.28008241 0.08852779 0.16938182
v -0.28202503 0.08729176 0.16938182
v -0.28035619 -0.07509228 0.16938182
v -0.28332744 -0.07320988 0.16938182
v -0.28438766 -0.07000629 0.16938182
v -0.28335292 0.08545954 0.16938182
v -0.28390096 0.08254162 0.16938182
v -0.27691990 0.08875829 0.16938182
v -0.27662750 -0.07538158 0.16938182
v -0.28434337 -0.06676548 0.16938182
v 0.17590929 0.08122450 0.17021983
v 0.17590929 0.08507438 0.17021983
v 0.17590929 -0.07622258 0.17021983
v 0.17590929 -0.07223808 0.17021983
v 0.17590929 0.08756361 0.17021983
v 0.17590929 -0.08006168 0.17021983
v 0.17590929 0.08890898 0.16938182
v 0.17590929 -0.08119508 0.16938182
v 0.18190929 0.08507438 0.17021983
v 0.18190929 0.08756361 0.17021983
v 0.18190929 0.08756361 0.15977244
v 0.18190929 0.08507438 0.15977244
v 0.18190929 -0.07622258 0.17021983
v 0.18190929 -0.07223808 0.17021983
v 0.18190929 -0.07223808 0.15977244
v 0.18190929 -0.07622258 0.15977244
v 0.18190929 0.08122450 0.17021983
v 0.18190929 0.08122450 0.15977244
v 0.18190929 -0.08006168 0.17021983
v 0.18190929 -0.08006168 0.15977244
v 0.00733229 0.09472402 0.16938182
v -0.13672571 0.09461790 0.16938182
v -0.13672211 0.09461790 0.15977244
v 0.00734229 0.09472402 0.15977244
v 0.00732479 -0.09027308 0.16938182
v -0.13686841 -0.08684028 0.16938182
v 0.00732469 -0.09027308 0.15977244
v -0.13697551 -0.08683688 0.15977244
v -0.28212019 0.09406967 0.16938182
v -0.28632610 0.09139330 0.16938182
v -0.28632598 0.09139337 0.15977244
v -0.28212017 0.09406967 0.15977244
v -0.28240057 -0.08062628 0.16938182
v -0.28842260 -0.07681118 0.16938182
v -0.28240060 -0.08062628 0.15977244
v -0.28842260 -0.07681118 0.15977244
v -0.29039951 -0.07083749 0.16938182
v -0.29039951 -0.07083744 0.15977244
v -0.28903415 0.08765699 0.16938182
v -0.28989950 0.08304939 0.16938182
v -0.28989950 0.08304939 0.15977244
v -0.28903412 0.08765699 0.15977244
v -0.27715458 0.09443144 0.16938182
v -0.27715463 0.09443144 0.15977244
v -0.27688556 -0.08104978 0.16938182
v -0.27711809 -0.08103608 0.15977244
v -0.29034292 -0.06669225 0.16938182
v -0.29034336 -0.06674960 0.15977244
v 0.18190929 -0.08675058 0.16938182
v 0.18190929 -0.08675058 0.15977244
v 0.18190929 0.09457748 0.16938182
v 0.18190929 0.09457748 0.15977244
v 0.00037509 -0.17590678 0.00668521
v 0.00037509 -0.17590678 0.00667521
v 0.00038509 -0.17590678 0.00667521
v 0.00038509 -0.17590678 0.00668521
v 0.17827799 0.12559648 0.17972876
v 0.14582149 0.12559648 0.17972876
v 0.17827799 -0.11030738 0.17972876
v 0.14582149 -0.11030738 0.17972876
v 0.17827799 0.12963852 0.17367942
v 0.17827799 0.12982122 0.17104773
v 0.17827799 0.12909762 0.17546256
v 0.17827799 0.12821917 0.17710608
v 0.17827799 0.12703697 0.17854651
v 0.17827799 0.12559648 0.17972876
v 0.17827799 0.12395309 0.18060706
v 0.17827799 0.12216980 0.18114798
v 0.17827799 0.12031525 0.18133094
v 0.17827799 -0.10688068 0.18114798
v 0.17827799 -0.10502628 0.18133094
v 0.17827799 -0.10866398 0.18060706
v 0.17827799 -0.11030738 0.17972876
v 0.17827799 -0.11174788 0.17854651
v 0.17827799 -0.11293008 0.17710608
v 0.17827799 -0.11380858 0.17546256
v 0.17827799 -0.11434948 0.17367942
v 0.17827799 -0.11453218 0.17104773
v 0.17827799 0.13896172 0.17553382
v 0.17827799 0.13932712 0.17104773
v 0.17827799 0.13787992 0.17910041
v 0.17827799 0.13612302 0.18238715
v 0.17827799 0.13375872 0.18526831
v 0.17827799 0.13087762 0.18763249
v 0.17827799 0.12759078 0.18938956
v 0.14582149 0.13087762 0.18763249
v 0.17827799 0.13087762 0.18763249
v 0.17827799 0.12402437 0.19047143
v 0.17827799 0.12031525 0.19083670
v 0.17827799 -0.10873528 0.19047143
v 0.17827799 -0.10502628 0.19083670
v 0.17827799 -0.11230178 0.18938941
v 0.17827799 -0.11558858 0.18763249
v 0.17827799 -0.11846958 0.18526831
v 0.14582149 -0.11558858 0.18763249
v 0.17827799 -0.11558858 0.18763249
v 0.17827799 -0.12083398 0.18238715
v 0.17827799 -0.12259088 0.17910041
v 0.17827799 -0.12367268 0.17553382
v 0.17827799 -0.12403798 0.17104773
v 0.14582149 0.13896172 0.17553382
v 0.14582149 0.12963852 0.17367942
v 0.14582149 0.12982122 0.17104773
v 0.14582149 0.13932712 0.17104773
v 0.14582149 0.13787992 0.17910041
v 0.14582149 0.12909762 0.17546256
v 0.14582149 0.13612302 0.18238715
v 0.14582149 0.12821917 0.17710608
v 0.14582149 0.13375872 0.18526831
v 0.14582149 0.12703697 0.17854651
v 0.14582149 0.13087762 0.18763249
v 0.14582149 0.12559648 0.17972876
v 0.14582149 0.12759078 0.18938956
v 0.14582149 0.12395309 0.18060706
v 0.14582149 0.12402437 0.19047143
v 0.14582149 0.12216980 0.18114798
v 0.14582149 0.12031525 0.19083670
v 0.14582149 0.12031525 0.18133094
v 0.14582149 -0.10873528 0.19047143
v 0.14582149 -0.10688068 0.18114798
v 0.14582149 -0.10502628 0.18133094
v 0.14582149 -0.10502628 0.19083670
v 0.14582149 -0.11230178 0.18938941
v 0.14582149 -0.10866398 0.18060706
v 0.14582149 -0.11558858 0.18763249
v 0.14582149 -0.11030738 0.17972876
v 0.14582149 -0.11846958 0.18526831
v 0.14582149 -0.11174788 0.17854651
v 0.14582149 -0.12083398 0.18238715
v 0.14582149 -0.11293008 0.17710608
v 0.14582149 -0.12259088 0.17910041
v 0.14582149 -0.11380858 0.17546256
v 0.14582149 -0.12367268 0.17553382
v 0.14582149 -0.11434948 0.17367942
v 0.14582149 -0.12403798 0.17104773
v 0.14582149 -0.11453218 0.17104773
v 0.17827799 -0.11453218 0.17104773
v 0.17827799 -0.11453218 0.16860177
v 0.14582149 -0.11453218 0.16860177
v 0.14582149 -0.11453218 0.17104773
v 0.14582149 0.12982122 0.16860177
v 0.14582149 0.13932712 0.16860177
v 0.14582149 0.13932712 0.16860177
v 0.17827799 0.13932712 0.16860177
v 0.17827799 0.13932712 0.16860177
v 0.17827799 0.12982122 0.16860177
v 0.17827799 -0.11453218 0.17104773
v 0.17827799 -0.11453218 0.16860177
v 0.17827799 -0.12403798 0.16860177
v 0.17827799 -0.12403798 0.17104773
v 0.17827799 -0.12403798 0.16860177
v 0.14582149 -0.12403798 0.16860177
v 0.14582149 -0.12403798 0.17104773
v 0.14582149 -0.12403798 0.16860177
v 0.14582149 -0.11453218 0.16860177
v 0.14582149 -0.11453218 0.17104773
v 0.17827799 0.12982122 0.17104773
v 0.17827799 -0.11453218 0.17104773
v 0.14582149 -0.11453218 0.17104773
v 0.14582149 0.12982122 0.17104773
v 0.14582149 -0.11453218 0.16860177
v 0.14582149 -0.11453218 0.16860177
v 0.17827799 -0.11453218 0.16860177
v 0.17827799 -0.11453218 0.16860177
v 0.17847959 -0.08558968 0.12371069
v 0.17847959 -0.08558968 0.15812688
v 0.17847959 0.09430345 0.12371069
v 0.17847959 0.09430345 0.15812688
v 0.17847959 -0.08558968 0.16773627
v 0.17847959 0.09430345 0.16773627
v 0.17847959 0.09024826 0.12287266
v 0.17847959 0.09288076 0.12287266
v 0.17847959 -0.08033088 0.12287266
v 0.17847959 -0.07611718 0.12287266
v 0.17847959 0.08617683 0.12287266
v 0.17847959 -0.08439098 0.12287266
v 0.17847959 -0.08558968 0.12371069
v 0.18761599 0.09430345 0.12371069
v 0.17847959 0.09430345 0.12371069
v 0.17847959 0.09288076 0.16857428
v 0.17847959 0.09024826 0.16857428
v 0.17847959 -0.07611718 0.16857428
v 0.17847959 -0.08033088 0.16857428
v 0.17847959 0.08617683 0.16857428
v 0.17847959 -0.08439098 0.16857428
v 0.17847959 -0.08558968 0.16773627
v 0.17847959 0.09430345 0.16773627
v 0.18761599 0.09430345 0.16773627
v -0.28212019 0.09406967 0.16938182
v -0.28212017 0.09406967 0.15977244
v -0.28240057 -0.08062628 0.16938182
v -0.28240060 -0.08062628 0.15977244
v 0.18190929 -0.08675058 0.16938182
v 0.18190929 -0.08675058 0.15977244
v 0.18190929 0.09457748 0.16938182
v 0.18190929 0.09457748 0.15977244
v -0.28008241 0.08852779 0.15977244
v -0.28008241 0.08852779 0.16938182
v -0.28035619 -0.07509228 0.16938182
v -0.28035619 -0.07509228 0.15977244
v 0.17590929 -0.08119508 0.16938182
v 0.17590929 -0.08119508 0.15977244
v 0.17590929 0.08890898 0.15977244
v 0.17590929 0.08890898 0.16938182
v 0.17590929 0.08507438 0.17021983
v 0.17590929 0.08756361 0.17021983
v 0.18190929 0.08756361 0.17021983
v 0.18190929 0.08507438 0.17021983
v 0.17590929 0.08756361 0.15977244
v 0.17590929 0.08507438 0.15977244
v 0.18190929 0.08507438 0.15977244
v 0.18190929 0.08756361 0.15977244
v 0.17590929 -0.07622258 0.17021983
v 0.17590929 -0.07223808 0.17021983
v 0.18190929 -0.07223808 0.17021983
v 0.18190929 -0.07622258 0.17021983
v 0.17590929 -0.07223808 0.15977244
v 0.17590929 -0.07622258 0.15977244
v 0.18190929 -0.07622258 0.15977244
v 0.18190929 -0.07223808 0.15977244
v 0.17590929 0.08122450 0.17021983
v 0.18190929 0.08122450 0.17021983
v 0.17590929 0.08122450 0.15977244
v 0.18190929 0.08122450 0.15977244
v 0.17590929 -0.08006168 0.17021983
v 0.18190929 -0.08006168 0.17021983
v 0.17590929 -0.08006168 0.15977244
v 0.18190929 -0.08006168 0.15977244
v 0.00733699 0.08905054 0.16938182
v -0.13671741 0.08894441 0.16938182
v -0.13672571 0.09461790 0.16938182
v 0.00733229 0.09472402 0.16938182
v -0.13671741 0.08894441 0.15977244
v 0.00733699 0.08905054 0.15977244
v 0.00734229 0.09472402 0.15977244
v -0.13672211 0.09461790 0.15977244
v -0.13671741 -0.08116858 0.16938182
v 0.00733699 -0.08459808 0.16938182
v 0.00732479 -0.09027308 0.16938182
v -0.13686841 -0.08684028 0.16938182
v 0.00733699 -0.08459808 0.15977244
v -0.13671741 -0.08116858 0.15977244
v -0.13697551 -0.08683688 0.15977244
v 0.00732469 -0.09027308 0.15977244
v -0.28008241 0.08852779 0.16938182
v -0.28202503 0.08729176 0.16938182
v -0.28632610 0.09139330 0.16938182
v -0.28212019 0.09406967 0.16938182
v -0.28202503 0.08729176 0.15977244
v -0.28008241 0.08852779 0.15977244
v -0.28212017 0.09406967 0.15977244
v -0.28632598 0.09139337 0.15977244
v -0.28332744 -0.07320988 0.16938182
v -0.28035619 -0.07509228 0.16938182
v -0.28240057 -0.08062628 0.16938182
v -0.28842260 -0.07681118 0.16938182
v -0.28035619 -0.07509228 0.15977244
v -0.28332744 -0.07320988 0.15977244
v -0.28842260 -0.07681118 0.15977244
v -0.28240060 -0.08062628 0.15977244
v -0.28438766 -0.07000629 0.16938182
v -0.29039951 -0.07083749 0.16938182
v -0.28438766 -0.07000629 0.15977244
v -0.29039951 -0.07083744 0.15977244
v -0.28335292 0.08545954 0.16938182
v -0.28390096 0.08254162 0.16938182
v -0.28989950 0.08304939 0.16938182
v -0.28903415 0.08765699 0.16938182
v -0.28390096 0.08254162 0.15977244
v -0.28335292 0.08545954 0.15977244
v -0.28903412 0.08765699 0.15977244
v -0.28989950 0.08304939 0.15977244
v -0.27691990 0.08875829 0.16938182
v -0.27715458 0.09443144 0.16938182
v -0.27691990 0.08875829 0.15977244
v -0.27715463 0.09443144 0.15977244
v -0.27662750 -0.07538158 0.16938182
v -0.27688556 -0.08104978 0.16938182
v -0.27662750 -0.07538158 0.15977244
v -0.27711809 -0.08103608 0.15977244
v -0.28434337 -0.06676548 0.16938182
v -0.29034292 -0.06669225 0.16938182
v -0.28434337 -0.06676548 0.15977244
v -0.29034336 -0.06674960 0.15977244
v 0.17590929 -0.08119508 0.16938182
v 0.18190929 -0.08675058 0.16938182
v 0.17590929 -0.08119508 0.15977244
v 0.18190929 -0.08675058 0.15977244
v 0.17590929 0.08890898 0.16938182
v 0.18190929 0.09457748 0.16938182
v 0.17590929 0.08890898 0.15977244
v 0.18190929 0.09457748 0.15977244
v 0.00037509 -0.17590678 0.00668521
v 0.00038509 -0.17590678 0.00668521
v 0.00037509 -0.17590678 0.00667521
v 0.00038509 -0.17590678 0.00667521
v 0.00733699 0.09587593 0.12287266
v 0.00733699 -0.09038708 0.12287266
v -0.13671741 0.09584669 0.12287266
v -0.13671741 -0.08676028 0.12287266
v -0.28475275 0.09371231 0.12287266
v -0.28668485 -0.07760368 0.12287266
v -0.28747068 0.08758413 0.12287266
v -0.27920503 0.09573273 0.12287266
v -0.27887649 -0.08063998 0.12287266
v -0.28695219 0.09050272 0.12287266
v -0.28207929 0.09551121 0.12287266
v -0.28261026 -0.08033368 0.12287266
v -0.28795679 -0.07353908 0.12287266
v -0.28791242 -0.07009619 0.12287266
v 0.00733699 0.09445320 0.12371069
v 0.00733699 -0.08918848 0.12371069
v -0.13671741 0.09434099 0.12371069
v -0.13671741 -0.08556158 0.12371069
v -0.28232927 0.09390035 0.12371069
v -0.28427183 0.09259316 0.12371069
v -0.28260297 -0.07913558 0.12371069
v -0.28557428 -0.07714488 0.12371069
v -0.28663448 -0.07375688 0.12371069
v -0.28559978 0.09065552 0.12371069
v -0.28614778 0.08756975 0.12371069
v -0.27916671 0.09414408 0.12371069
v -0.27887434 -0.07944148 0.12371069
v -0.28659025 -0.07032961 0.12371069
v 0.17847959 0.09572619 0.12287266
v 0.17847959 -0.08678828 0.12287266
v 0.17847959 0.09430345 0.12371069
v 0.17847959 -0.08558968 0.12371069
v -0.30231838 -0.13251218 0.12617376
v -0.29901729 -0.13581308 0.12635289
v -0.29901729 -0.13251218 0.12287266
v -0.30231838 0.17095792 0.12617376
v -0.29901729 0.17095782 0.12287266
v -0.29901729 0.17425872 0.12635289
v -0.30231838 0.09537640 0.12617376
v -0.29901729 0.09506369 0.12287266
v -0.29901729 -0.07816528 0.12287266
v -0.30231838 -0.07831558 0.12617376
v 0.00733699 0.17095782 0.12287266
v 0.00733699 0.17425872 0.12635289
v 0.00733699 -0.13581308 0.12635289
v 0.00733699 -0.13251218 0.12287266
v -0.13671741 0.17425872 0.12635289
v -0.13671741 0.17095782 0.12287266
v -0.13671741 -0.13251218 0.12287266
v -0.13671741 -0.13581308 0.12635289
v -0.28714033 0.17095782 0.12287266
v -0.28725816 0.17425872 0.12635289
v -0.28725816 -0.13581308 0.12635289
v -0.28722543 -0.13251218 0.12287266
v -0.29901729 0.08757038 0.12287266
v -0.30231838 0.08756653 0.12617376
v -0.27906599 -0.13251218 0.12287266
v -0.27907787 -0.13581308 0.12635289
v -0.27907787 0.17425872 0.12635289
v -0.27908418 0.17095782 0.12287266
v -0.30231838 0.09147164 0.12617376
v -0.29901729 0.09126331 0.12287266
v -0.28311550 0.17095782 0.12287266
v -0.28316801 0.17425872 0.12635289
v -0.28313490 -0.13251218 0.12287266
v -0.28316801 -0.13581308 0.12635289
v -0.29901729 -0.07336018 0.12287266
v -0.30231838 -0.07330678 0.12617376
v -0.30231838 -0.06936046 0.12617376
v -0.29901729 -0.06952903 0.12287266
v 0.17847959 -0.13251218 0.12287266
v 0.17847959 -0.13581308 0.12635289
v 0.17847959 0.17425872 0.12635289
v 0.17847959 0.17095782 0.12287266
v 0.00733719 0.17425872 0.15812688
v 0.17847999 0.17425872 0.15812688
v 0.17847999 -0.13581298 0.15812688
v 0.00733719 -0.13581298 0.15812688
v -0.13671741 -0.13581298 0.15812688
v -0.27907774 -0.13581298 0.15812688
v -0.28316801 -0.13581298 0.15812688
v -0.28725795 -0.13581298 0.15812688
v -0.29901729 -0.13581298 0.15812688
v -0.30231817 -0.13251208 0.15812688
v -0.30231817 -0.07831558 0.15812688
v -0.30231817 -0.07330678 0.15812688
v -0.30231817 -0.06936047 0.15812688
v -0.30231817 0.08756647 0.15812688
v -0.30231817 0.09147150 0.15812688
v -0.30231817 0.09537637 0.15812688
v -0.30231817 0.17095782 0.15812688
v -0.29901729 0.17425872 0.15812688
v -0.28725795 0.17425872 0.15812688
v -0.28316801 0.17425872 0.15812688
v -0.27907774 0.17425872 0.15812688
v -0.13671741 0.17425872 0.15812688
v 0.00733699 0.09445320 0.15812688
v -0.13671741 0.09434099 0.15812688
v 0.00733699 -0.08918848 0.15812688
v -0.13671741 -0.08556158 0.15812688
v -0.28232927 0.09390035 0.15812688
v -0.28427183 0.09259316 0.15812688
v -0.28260297 -0.07913558 0.15812688
v -0.28557428 -0.07714488 0.15812688
v -0.28663448 -0.07375688 0.15812688
v -0.28559978 0.09065552 0.15812688
v -0.28614778 0.08756975 0.15812688
v -0.27916671 0.09414408 0.15812688
v -0.27887434 -0.07944148 0.15812688
v -0.28659025 -0.07032961 0.15812688
v 0.17847959 -0.08558968 0.15812688
v 0.17847959 0.09430345 0.15812688
v 0.00733699 0.09587593 0.16857428
v 0.00733699 -0.09038708 0.16857428
v -0.13671741 0.09584669 0.16857428
v -0.13671741 -0.08676028 0.16857428
v -0.28475275 0.09371231 0.16857428
v -0.28668485 -0.07760368 0.16857428
v -0.28747068 0.08758413 0.16857428
v -0.27920503 0.09573273 0.16857428
v -0.27887649 -0.08063998 0.16857428
v -0.28695219 0.09050272 0.16857428
v -0.28207929 0.09551121 0.16857428
v -0.28261026 -0.08033368 0.16857428
v -0.28795679 -0.07353908 0.16857428
v -0.28791242 -0.07009619 0.16857428
v 0.00733699 0.09445320 0.16773627
v 0.00733699 -0.08918848 0.16773627
v -0.13671741 0.09434099 0.16773627
v -0.13671741 -0.08556158 0.16773627
v -0.28232927 0.09390035 0.16773627
v -0.28427183 0.09259316 0.16773627
v -0.28260297 -0.07913558 0.16773627
v -0.28557428 -0.07714488 0.16773627
v -0.28663448 -0.07375688 0.16773627
v -0.28559978 0.09065552 0.16773627
v -0.28614778 0.08756975 0.16773627
v -0.27916671 0.09414408 0.16773627
v -0.27887434 -0.07944148 0.16773627
v -0.28659025 -0.07032961 0.16773627
v 0.17847959 0.09572619 0.16857428
v 0.17847959 -0.08678828 0.16857428
v 0.17847959 0.09430345 0.16773627
v 0.17847959 -0.08558968 0.16773627
v -0.30231838 -0.13251218 0.16527319
v -0.29901729 -0.13581308 0.16509405
v -0.29901729 -0.13251218 0.16857428
v -0.30231838 0.17095792 0.16527319
v -0.29901729 0.17095782 0.16857428
v -0.29901729 0.17425872 0.16509371
v -0.30231838 0.09537640 0.16527319
v -0.29901729 0.09506369 0.16857428
v -0.29901729 -0.07816528 0.16857428
v -0.30231838 -0.07831558 0.16527319
v 0.00733699 0.17095782 0.16857428
v 0.00733699 0.17425872 0.16509371
v 0.00733699 -0.13581308 0.16509405
v 0.00733699 -0.13251218 0.16857428
v -0.13671741 0.17425872 0.16509371
v -0.13671741 0.17095782 0.16857428
v -0.13671741 -0.13251218 0.16857428
v -0.13671741 -0.13581308 0.16509405
v -0.28714033 0.17095782 0.16857428
v -0.28725816 0.17425872 0.16509371
v -0.28725816 -0.13581308 0.16509405
v -0.28722543 -0.13251218 0.16857428
v -0.29901729 0.08757038 0.16857428
v -0.30231838 0.08756653 0.16527319
v -0.27906599 -0.13251218 0.16857428
v -0.27907787 -0.13581308 0.16509405
v -0.27907787 0.17425872 0.16509371
v -0.27908418 0.17095782 0.16857428
v -0.30231838 0.09147164 0.16527319
v -0.29901729 0.09126331 0.16857428
v -0.28311550 0.17095782 0.16857428
v -0.28316801 0.17425872 0.16509371
v -0.28313490 -0.13251218 0.16857428
v -0.28316801 -0.13581308 0.16509405
v -0.29901729 -0.07336018 0.16857428
v -0.30231838 -0.07330678 0.16527319
v -0.30231838 -0.06936046 0.16527319
v -0.29901729 -0.06952903 0.16857428
v 0.17847959 -0.13251218 0.16857428
v 0.17847959 -0.13581308 0.16509405
v 0.17847959 0.17425872 0.16509371
v 0.17847959 0.17095782 0.16857428
v 0.18761599 0.17425872 0.12635289
v 0.18761619 0.17425872 0.15812688
v 0.18761599 -0.13251218 0.12287266
v 0.18761599 -0.08678828 0.12287266
v 0.18761599 0.09572619 0.12287266
v 0.18761599 0.17095782 0.12287266
v 0.18761599 0.09430345 0.12371069
v 0.18761599 -0.13581308 0.12635289
v 0.18761619 -0.13581298 0.15812688
v 0.18761599 0.17425872 0.16509371
v 0.18761599 -0.13251218 0.16857428
v 0.18761599 -0.08678828 0.16857428
v 0.18761599 0.09572619 0.16857428
v 0.18761599 0.17095782 0.16857428
v 0.18761599 0.09430345 0.16773627
v 0.18761599 -0.13581308 0.16509405
v 0.17645089 0.15294382 0.11259314
v 0.18114399 0.15294382 0.11259314
v 0.17794979 0.14805762 0.10378453
v 0.17964509 0.14805762 0.10378453
v 0.17794979 0.14262222 0.10242421
v 0.17964509 0.14262222 0.10242421
v 0.17645089 0.15203102 0.12143437
v 0.18114399 0.15203102 0.12143437
v 0.18114399 0.15729462 0.11914189
v 0.17645089 0.15729462 0.11914189
v 0.17794979 0.13522002 0.10268010
v 0.17964509 0.13522002 0.10268010
v 0.18114399 0.13283942 0.11214270
v 0.17645089 0.13283942 0.11214270
v 0.18051359 0.14994312 0.10585134
v 0.18114399 0.15146622 0.10926045
v 0.17645089 0.15146622 0.10926045
v 0.17708139 0.14994312 0.10585134
v 0.17645089 0.14305122 0.10948597
v 0.17698199 0.14262992 0.10519169
v 0.17645089 0.13194162 0.10934743
v 0.17697219 0.13290752 0.10511540
v 0.18114399 0.13194162 0.10934743
v 0.18062269 0.13290752 0.10511540
v 0.18114399 0.14305192 0.10945561
v 0.18062189 0.14263262 0.10522009
v 0.17645089 0.14282832 0.11315925
v 0.17645089 0.14724082 0.11399877
v 0.18114399 0.14282832 0.11315925
v 0.18114399 0.14724082 0.11399877
v 0.17645089 0.15961862 0.12959508
v 0.18114399 0.15961862 0.12959508
v 0.18114399 0.16355252 0.12578801
v 0.17645089 0.16355252 0.12578801
v 0.17645089 -0.09900088 0.11259314
v 0.18114399 -0.09900088 0.11259314
v 0.17794979 -0.10388718 0.10378453
v 0.17964509 -0.10388718 0.10378453
v 0.17794979 -0.10932248 0.10242421
v 0.17964509 -0.10932248 0.10242421
v 0.17645089 -0.09991368 0.12143437
v 0.18114399 -0.09991368 0.12143437
v 0.18114399 -0.09465018 0.11914189
v 0.17645089 -0.09465018 0.11914189
v 0.17794979 -0.11672468 0.10268010
v 0.17964509 -0.11672468 0.10268010
v 0.18114399 -0.11910538 0.11214270
v 0.17645089 -0.11910538 0.11214270
v 0.18051359 -0.10200168 0.10585134
v 0.18114399 -0.10047848 0.10926045
v 0.17645089 -0.10047848 0.10926045
v 0.17708139 -0.10200168 0.10585134
v 0.17645089 -0.10889348 0.10948597
v 0.17698199 -0.10931488 0.10519169
v 0.17645089 -0.12000308 0.10934743
v 0.17697219 -0.11903728 0.10511540
v 0.18114399 -0.12000308 0.10934743
v 0.18062269 -0.11903728 0.10511540
v 0.18114399 -0.10889278 0.10945561
v 0.18062189 -0.10931208 0.10522009
v 0.17645089 -0.10911628 0.11315925
v 0.17645089 -0.10470398 0.11399877
v 0.18114399 -0.10911628 0.11315925
v 0.18114399 -0.10470398 0.11399877
v 0.17645089 -0.09232608 0.12959508
v 0.18114399 -0.09232608 0.12959508
v 0.18114399 -0.08839218 0.12578801
v 0.17645089 -0.08839218 0.12578801
v 0.00733699 -0.09038708 0.12287266
v -0.28668485 -0.07760368 0.12287266
v -0.28261026 -0.08033368 0.12287266
v 0.17847959 0.09572619 0.12287266
v 0.00733699 0.09587593 0.12287266
v 0.17847959 -0.08678828 0.12287266
v -0.28668485 -0.07760368 0.12287266
v -0.28557428 -0.07714488 0.12371069
v -0.28475275 0.09371231 0.12287266
v -0.28427183 0.09259316 0.12371069
v 0.00733699 0.09445320 0.12371069
v -0.28791242 -0.07009619 0.12287266
v -0.28747068 0.08758413 0.12287266
v -0.28795679 -0.07353908 0.12287266
v -0.27887649 -0.08063998 0.12287266
v -0.28695219 0.09050272 0.12287266
v -0.13671741 -0.08676028 0.12287266
v -0.29901729 -0.13251218 0.12287266
v -0.29901729 0.17095782 0.12287266
v -0.29901729 0.09506369 0.12287266
v -0.29901729 0.17425872 0.12635289
v -0.29901729 0.17095782 0.12287266
v -0.28714033 0.17095782 0.12287266
v -0.29901729 0.09126331 0.12287266
v -0.29901729 -0.07816528 0.12287266
v 0.00733699 -0.13251218 0.12287266
v -0.13671741 -0.13251218 0.12287266
v -0.13671741 0.17095782 0.12287266
v 0.00733699 0.17095782 0.12287266
v -0.27906599 -0.13251218 0.12287266
v -0.28311550 0.17095782 0.12287266
v -0.29901729 -0.13581308 0.12635289
v -0.28722543 -0.13251218 0.12287266
v -0.29901729 -0.13251218 0.12287266
v -0.29901729 -0.06952903 0.12287266
v -0.29901729 0.08757038 0.12287266
v -0.28313490 -0.13251218 0.12287266
v -0.27908418 0.17095782 0.12287266
v -0.29901729 -0.07336018 0.12287266
v 0.17847959 -0.13251218 0.12287266
v 0.17847959 0.17095782 0.12287266
v -0.29901729 -0.13581298 0.15812688
v -0.29901729 0.17425872 0.15812688
v 0.00733699 0.09445320 0.12371069
v -0.13671741 0.09434099 0.12371069
v -0.13671741 -0.08556158 0.12371069
v 0.00733699 -0.08918848 0.12371069
v -0.28232927 0.09390035 0.12371069
v -0.28260297 -0.07913558 0.12371069
v -0.28663448 -0.07375688 0.12371069
v -0.28614778 0.08756975 0.12371069
v -0.27916671 0.09414408 0.12371069
v -0.28232927 0.09390035 0.12371069
v -0.28232927 0.09390035 0.15812688
v -0.28260297 -0.07913558 0.15812688
v -0.28659025 -0.07032961 0.12371069
v 0.17847959 -0.08558968 0.12371069
v 0.17847959 0.09430345 0.12371069
v 0.00733699 -0.09038708 0.16857428
v -0.28261026 -0.08033368 0.16857428
v -0.28668485 -0.07760368 0.16857428
v 0.17847959 0.09572619 0.16857428
v 0.00733699 0.09587593 0.16857428
v 0.17847959 -0.08678828 0.16857428
v -0.28557428 -0.07714488 0.16773627
v -0.28668485 -0.07760368 0.16857428
v -0.28427183 0.09259316 0.16773627
v -0.28475275 0.09371231 0.16857428
v 0.00733699 0.09445320 0.16773627
v -0.28791242 -0.07009619 0.16857428
v -0.28747068 0.08758413 0.16857428
v -0.28795679 -0.07353908 0.16857428
v -0.27887649 -0.08063998 0.16857428
v -0.28695219 0.09050272 0.16857428
v -0.13671741 -0.08676028 0.16857428
v -0.29901729 -0.13251218 0.16857428
v -0.29901729 0.17095782 0.16857428
v -0.29901729 0.09506369 0.16857428
v -0.28714033 0.17095782 0.16857428
v -0.29901729 0.17095782 0.16857428
v -0.29901729 0.17425872 0.16509371
v -0.29901729 0.09126331 0.16857428
v -0.29901729 -0.07816528 0.16857428
v -0.13671741 -0.13251218 0.16857428
v 0.00733699 -0.13251218 0.16857428
v 0.00733699 0.17095782 0.16857428
v -0.13671741 0.17095782 0.16857428
v -0.27906599 -0.13251218 0.16857428
v -0.28311550 0.17095782 0.16857428
v -0.29901729 -0.13581308 0.16509405
v -0.29901729 -0.13251218 0.16857428
v -0.28722543 -0.13251218 0.16857428
v -0.29901729 -0.06952903 0.16857428
v -0.29901729 0.08757038 0.16857428
v -0.28313490 -0.13251218 0.16857428
v -0.27908418 0.17095782 0.16857428
v -0.29901729 -0.07336018 0.16857428
v 0.17847959 -0.13251218 0.16857428
v 0.17847959 0.17095782 0.16857428
v 0.00733699 0.09445320 0.16773627
v -0.13671741 0.09434099 0.16773627
v -0.13671741 -0.08556158 0.16773627
v 0.00733699 -0.08918848 0.16773627
v -0.28232927 0.09390035 0.16773627
v -0.28260297 -0.07913558 0.16773627
v -0.28663448 -0.07375688 0.16773627
v -0.28614778 0.08756975 0.16773627
v -0.27916671 0.09414408 0.16773627
v -0.28232927 0.09390035 0.16773627
v -0.28659025 -0.07032961 0.16773627
v 0.17847959 -0.08558968 0.16773627
v 0.17847959 0.09430345 0.16773627
v 0.18761599 0.09572619 0.12287266
v 0.18761599 -0.08678828 0.12287266
v 0.18761599 -0.08558968 0.12371069
v 0.18761599 -0.13251218 0.12287266
v 0.18761599 0.17095782 0.12287266
v 0.18761599 0.09572619 0.16857428
v 0.18761599 -0.08558968 0.16773627
v 0.18761599 -0.08678828 0.16857428
v 0.18761599 -0.13251218 0.16857428
v 0.18761599 0.17095782 0.16857428
v 0.18761599 0.09572619 0.12287266
v 0.18761599 0.09430345 0.12371069
v 0.18761599 0.09430345 0.16773627
v 0.18761599 0.09572619 0.16857428
v 0.18761599 0.17095782 0.12287266
v 0.18761599 0.17095782 0.16857428
v 0.18761599 0.17425872 0.12635289
v 0.18761599 0.17425872 0.16509371
v 0.18761619 0.17425872 0.15812688
v 0.17645089 0.15294382 0.11259314
v 0.17645089 0.15729462 0.11914189
v 0.17645089 0.15203102 0.12143437
v 0.17645089 0.14724082 0.11399877
v 0.18114399 0.15146622 0.10926045
v 0.18051359 0.14994312 0.10585134
v 0.17645089 0.15146622 0.10926045
v 0.17708139 0.14994312 0.10585134
v 0.17645089 0.13194162 0.10934743
v 0.17697219 0.13290752 0.10511540
v 0.18114399 0.13194162 0.10934743
v 0.18062269 0.13290752 0.10511540
v 0.17645089 0.13283942 0.11214270
v 0.18114399 0.13283942 0.11214270
v 0.17645089 0.14282832 0.11315925
v 0.18114399 0.13283942 0.11214270
v 0.18114399 0.14282832 0.11315925
v 0.17794979 0.14805762 0.10378453
v 0.17964509 0.14805762 0.10378453
v 0.17794979 0.14262222 0.10242421
v 0.17794979 0.14805762 0.10378453
v 0.17794979 0.13522002 0.10268010
v 0.17794979 0.13522002 0.10268010
v 0.17964509 0.13522002 0.10268010
v 0.17964509 0.14262222 0.10242421
v 0.17964509 0.13522002 0.10268010
v 0.17964509 0.14805762 0.10378453
v 0.17645089 0.13283942 0.11214270
v 0.18114399 0.15294382 0.11259314
v 0.18114399 0.14724082 0.11399877
v 0.18114399 0.15203102 0.12143437
v 0.18114399 0.15729462 0.11914189
v 0.18114399 0.15961862 0.12959508
v 0.18114399 0.16355252 0.12578801
v 0.17645089 0.16355252 0.12578801
v 0.17645089 0.15961862 0.12959508
v 0.18114399 0.15961862 0.12959508
v 0.17645089 0.15961862 0.12959508
v 0.17645089 0.16355252 0.12578801
v 0.18114399 0.16355252 0.12578801
v 0.17645089 -0.09900088 0.11259314
v 0.17645089 -0.09465018 0.11914189
v 0.17645089 -0.09991368 0.12143437
v 0.17645089 -0.10470398 0.11399877
v 0.18114399 -0.10047848 0.10926045
v 0.18051359 -0.10200168 0.10585134
v 0.17645089 -0.10047848 0.10926045
v 0.17708139 -0.10200168 0.10585134
v 0.17645089 -0.12000308 0.10934743
v 0.17697219 -0.11903728 0.10511540
v 0.18114399 -0.12000308 0.10934743
v 0.18062269 -0.11903728 0.10511540
v 0.17645089 -0.11910538 0.11214270
v 0.18114399 -0.11910538 0.11214270
v 0.17645089 -0.10911628 0.11315925
v 0.18114399 -0.11910538 0.11214270
v 0.18114399 -0.10911628 0.11315925
v 0.17794979 -0.10388718 0.10378453
v 0.17964509 -0.10388718 0.10378453
v 0.17794979 -0.10932248 0.10242421
v 0.17794979 -0.10388718 0.10378453
v 0.17794979 -0.11672468 0.10268010
v 0.17794979 -0.11672468 0.10268010
v 0.17964509 -0.11672468 0.10268010
v 0.17964509 -0.10932248 0.10242421
v 0.17964509 -0.11672468 0.10268010
v 0.17964509 -0.10388718 0.10378453
v 0.17645089 -0.11910538 0.11214270
v 0.18114399 -0.09900088 0.11259314
v 0.18114399 -0.10470398 0.11399877
v 0.18114399 -0.09991368 0.12143437
v 0.18114399 -0.09465018 0.11914189
v 0.18114399 -0.09232608 0.12959508
v 0.18114399 -0.08839218 0.12578801
v 0.17645089 -0.08839218 0.12578801
v 0.17645089 -0.09232608 0.12959508
v 0.18114399 -0.09232608 0.12959508
v 0.17645089 -0.09232608 0.12959508
v 0.17645089 -0.08839218 0.12578801
v 0.18114399 -0.08839218 0.12578801
v 0.18761599 -0.08439098 0.12287266
v 0.18761599 -0.08558968 0.12371069
v 0.18761599 -0.08558968 0.16773627
v 0.18761599 -0.08439098 0.16857428
v 0.18761599 -0.08033088 0.12287266
v 0.18761599 -0.08033088 0.16857428
v 0.18761599 -0.07611718 0.12287266
v 0.18761599 -0.07611718 0.16857428
v 0.18761599 0.08617683 0.12287266
v 0.18761599 0.08617683 0.16857428
v 0.18761599 0.09024826 0.12287266
v 0.18761599 0.09024826 0.16857428
v 0.18761599 0.09288076 0.12287266
v 0.18761599 0.09288076 0.16857428
v 0.18761599 -0.13251218 0.12287266
v 0.18761599 -0.13581308 0.12635289
v 0.18761619 -0.13581298 0.15812688
v 0.18761599 -0.13581308 0.16509405
v 0.18761599 -0.13251218 0.16857428
v 0.18761599 -0.08678828 0.12287266
v 0.18761599 -0.08678828 0.16857428
vt 0.25491800 0.68854500
vt 0.16240200 0.60311300
vt 0.16240200 0.61463900
vt 0.16240200 0.62572200
vt 0.16240200 0.63593600
vt 0.20831200 0.68854500
vt 0.21726500 0.68854500
vt 0.22747900 0.68854500
vt 0.23856200 0.68854500
vt 0.25491800 0.48682400
vt 0.36412200 0.60311300
vt 0.36412200 0.61463900
vt 0.36412200 0.62572200
vt 0.36412200 0.63593600
vt 0.20831200 0.48682400
vt 0.21726500 0.48682400
vt 0.22747900 0.48682400
vt 0.23856200 0.48682400
vt 0.45920600 0.63615400
vt 0.33621500 0.75431400
vt 0.33848600 0.73126200
vt 0.34521000 0.70909600
vt 0.35613000 0.68866800
vt 0.37082400 0.67076200
vt 0.38873000 0.65606800
vt 0.40915800 0.64514900
vt 0.43132400 0.63842500
vt 0.93369630 0.78825600
vt 0.89774600 0.70180000
vt 0.89774600 0.67874800
vt 0.89774600 0.65658200
vt 0.89774600 0.63615400
vt 0.02207800 0.78825600
vt 0.00417200 0.78825600
vt 0.98374430 0.78825600
vt 0.96157750 0.78825600
vt 0.27787500 0.68684300
vt 0.29423100 0.68684300
vt 0.27787500 0.48512300
vt 0.29423100 0.48512300
vt 0.30531400 0.68684300
vt 0.30531400 0.48512300
vt 0.31552800 0.68684300
vt 0.31552800 0.48512300
vt 0.32448100 0.68684300
vt 0.32448100 0.48512300
vt 0.33182900 0.68684300
vt 0.33182900 0.48512300
vt 0.16240200 0.17998400
vt 0.36412200 0.17998400
vt 0.16240200 0.19106720
vt 0.36412200 0.19106720
vt 0.16240200 0.20259330
vt 0.36412200 0.20259330
vt 0.45920600 0.27299470
vt 0.43132400 0.27072390
vt 0.40915800 0.26400010
vt 0.38873000 0.25308090
vt 0.37082400 0.23838650
vt 0.35613000 0.22048070
vt 0.34520900 0.20005230
vt 0.33848600 0.17788660
vt 0.33621500 0.15483420
vt 0.16280500 0.73854200
vt 0.13492400 0.73854200
vt 0.11275700 0.73854200
vt 0.09233000 0.73854200
vt 0.07442300 0.73854200
vt 0.05972900 0.73854200
vt 0.89774600 0.14753830
vt 0.89774600 0.12537260
vt 0.89774600 0.10232010
vt 0.67167500 0.69523500
vt 0.87339500 0.69523500
vt 0.67167500 0.63615400
vt 0.87339500 0.63615400
vt 0.83645730 0.58653600
vt 0.89553710 0.58653600
vt 0.89553710 0.78825600
vt 0.83645730 0.78825600
vt 0.76751600 0.29639600
vt 0.76751600 0.32170000
vt 0.76751600 0.26153360
vt 0.76751600 0.28772270
vt 0.76751600 0.33806100
vt 0.76751600 0.23629980
vt 0.98662400 0.32170000
vt 0.98662400 0.33806100
vt 0.98662400 0.26153360
vt 0.98662400 0.28772270
vt 0.98662400 0.29639600
vt 0.98662400 0.23629980
vt 0.05155600 0.29639600
vt 0.05155600 0.32170000
vt 0.05155600 0.26153360
vt 0.05155600 0.28772270
vt 0.05155600 0.33806100
vt 0.05155600 0.23629980
vt 0.74455800 0.25405350
vt 0.74455800 0.23769260
vt 0.74455800 0.31422000
vt 0.74455800 0.28803200
vt 0.74455800 0.27935800
vt 0.74455800 0.33945400
vt 0.74455800 0.34690400
vt 0.66481800 0.38078000
vt 0.66481800 0.39714100
vt 0.66481800 0.32061350
vt 0.66481800 0.34680250
vt 0.66481800 0.35547600
vt 0.66481800 0.29537960
vt 0.66481800 0.28793010
vt 0.43746600 0.32131200
vt 0.43746600 0.33678200
vt 0.43746600 0.31883500
vt 0.43746600 0.34359890
vt 0.43746600 0.29738400
vt 0.43746600 0.29497420
vt 0.24870400 0.68384800
vt 0.24870400 0.57916050
vt 0.22091600 0.68384800
vt 0.22091600 0.57916020
vt 0.41450900 0.30484500
vt 0.41450900 0.29716300
vt 0.41450900 0.28793010
vt 0.41450900 0.29962940
vt 0.41450900 0.31954030
vt 0.41450900 0.28577600
vt 0.41450900 0.26764100
vt 0.24870400 0.45053200
vt 0.22091600 0.44871500
vt 0.41450900 0.33968220
vt 0.22091600 0.63615400
vt 0.24870400 0.63615400
vt 0.30842800 0.68384800
vt 0.16119300 0.68384800
vt 0.30842800 0.57916050
vt 0.16119300 0.57916020
vt 0.35478600 0.30484500
vt 0.35478600 0.29716300
vt 0.35478600 0.28793010
vt 0.35478600 0.29962940
vt 0.35478600 0.31954030
vt 0.35478600 0.28577600
vt 0.35478600 0.26764100
vt 0.30842800 0.45053200
vt 0.16119300 0.44871500
vt 0.35478600 0.33968220
vt 0.50239700 0.29738400
vt 0.50239700 0.32131200
vt 0.50239700 0.31883500
vt 0.50239700 0.34359890
vt 0.50239700 0.33678200
vt 0.50239700 0.29497420
vt 0.30842800 0.63615400
vt 0.16119300 0.63615400
vt 0.07451300 0.25081100
vt 0.07451300 0.26628200
vt 0.13944400 0.26628200
vt 0.13944400 0.25081100
vt 0.07451300 0.24833470
vt 0.07451300 0.27309860
vt 0.13944400 0.27309860
vt 0.13944400 0.24833470
vt 0.07451300 0.22688400
vt 0.13944400 0.22688400
vt 0.07451300 0.22447390
vt 0.13944400 0.22447390
vt 0.07368200 0.72116760
vt 0.07368200 0.61650260
vt 0.13340500 0.61648010
vt 0.13340500 0.72110590
vt 0.04589300 0.72121440
vt 0.04589300 0.61738930
vt 0.98617020 0.72121490
vt 0.98617020 0.61805490
vt 0.58507800 0.37368200
vt 0.58507800 0.35704900
vt 0.52535500 0.35704900
vt 0.52535500 0.37368200
vt 0.58507800 0.28793010
vt 0.58507800 0.31164140
vt 0.52535500 0.28793010
vt 0.52535500 0.31164140
vt 0.58507800 0.34876830
vt 0.52535500 0.34876860
vt 0.58507800 0.33382700
vt 0.58507800 0.30519000
vt 0.52535500 0.30519000
vt 0.52535500 0.33382700
vt 0.07368200 0.48928200
vt 0.13340500 0.48928200
vt 0.04589300 0.48761000
vt 0.98617020 0.48905500
vt 0.58507800 0.37453150
vt 0.52535500 0.37417510
vt 0.04589300 0.63615400
vt 0.98617020 0.63615400
vt 0.07368200 0.63615400
vt 0.13340500 0.63615400
vt 0.00000000 0.00000000
vt 0.00000000 0.00000000
vt 0.00000000 0.00000000
vt 0.00000000 0.00000000
vt 0.36412200 0.16977020
vt 0.16240200 0.16977020
vt 0.20096500 0.48682400
vt 0.20096500 0.68854500
vt 0.44285000 0.21277930
vt 0.45920600 0.21391450
vt 0.43176700 0.20941740
vt 0.42155200 0.20395760
vt 0.41260000 0.19661020
vt 0.40525200 0.18765750
vt 0.39979400 0.17744370
vt 0.39643200 0.16636040
vt 0.39529500 0.15483420
vt 0.39643200 0.74278900
vt 0.39529500 0.75431400
vt 0.39979400 0.73170600
vt 0.40525200 0.72149100
vt 0.41260000 0.71253900
vt 0.42155200 0.70519100
vt 0.43176700 0.69973100
vt 0.44285000 0.69636900
vt 0.45920600 0.69523400
vt 0.13492400 0.53682200
vt 0.16280500 0.53682200
vt 0.11275700 0.53682200
vt 0.09233000 0.53682200
vt 0.07442300 0.53682200
vt 0.05972900 0.53682200
vt 0.09946600 0.14753830
vt 0.89774600 0.16796670
vt 0.09946600 0.16796670
vt 0.09946600 0.12537260
vt 0.09946600 0.10232010
vt 0.09946600 0.67874800
vt 0.09946600 0.70180000
vt 0.09946600 0.65658200
vt 0.09946600 0.63615400
vt 0.02207800 0.58653600
vt 0.03677200 0.78825600
vt 0.03677200 0.58653600
vt 0.00417200 0.58653600
vt 0.98374430 0.58653600
vt 0.96157750 0.58653600
vt 0.93369630 0.58653600
vt 0.54702900 0.27072390
vt 0.53550300 0.21277930
vt 0.51914700 0.21391450
vt 0.51914700 0.27299470
vt 0.56919500 0.26400010
vt 0.54658600 0.20941740
vt 0.58962300 0.25308090
vt 0.55680000 0.20395760
vt 0.60752900 0.23838650
vt 0.56575300 0.19661020
vt 0.62222300 0.22048070
vt 0.57310000 0.18765750
vt 0.63314300 0.20005230
vt 0.57855900 0.17744370
vt 0.63986700 0.17788660
vt 0.58192100 0.16636040
vt 0.64213800 0.15483420
vt 0.58305800 0.15483420
vt 0.63986700 0.73126200
vt 0.58192100 0.74278900
vt 0.58305800 0.75431400
vt 0.64213800 0.75431400
vt 0.63314200 0.70909600
vt 0.57855900 0.73170600
vt 0.62222300 0.68866800
vt 0.57310000 0.72149100
vt 0.60752900 0.67076200
vt 0.56575300 0.71253900
vt 0.58962300 0.65606800
vt 0.55680000 0.70519100
vt 0.56919500 0.64514900
vt 0.54658600 0.69973100
vt 0.54702900 0.63842500
vt 0.53550300 0.69636900
vt 0.51914700 0.63615400
vt 0.51914700 0.69523400
vt 0.81349990 0.58653500
vt 0.79829810 0.58653500
vt 0.79829810 0.78825600
vt 0.81349990 0.78825600
vt 0.50394500 0.21391450
vt 0.50394500 0.27299470
vt 0.17800700 0.73854200
vt 0.17800700 0.53682200
vt 0.47440800 0.27299470
vt 0.47440800 0.21391450
vt 0.76013890 0.64561500
vt 0.77534090 0.64561500
vt 0.77534090 0.58653600
vt 0.76013890 0.58653600
vt 0.91849410 0.58653600
vt 0.91849410 0.78825600
vt 0.73718180 0.58653600
vt 0.72197980 0.58653600
vt 0.72197980 0.64561500
vt 0.73718180 0.64561500
vt 0.32553600 0.15483470
vt 0.32553600 0.63615400
vt 0.12381600 0.63615400
vt 0.12381600 0.15483470
vt 0.50394500 0.69523400
vt 0.67167500 0.21391480
vt 0.87339500 0.21391480
vt 0.47440800 0.69523400
vt 0.77272400 0.22885020
vt 0.98662400 0.22885020
vt 0.77272400 0.34690400
vt 0.98662400 0.34690400
vt 0.04634700 0.22885020
vt 0.04634700 0.34690400
vt 0.68777500 0.25405350
vt 0.68777500 0.23769260
vt 0.68777500 0.31422000
vt 0.68777500 0.28803200
vt 0.68777500 0.27935800
vt 0.68777500 0.33945400
vt 0.68777500 0.34690400
vt 0.74455800 0.22885020
vt 0.68777500 0.22885020
vt 0.60803500 0.39714100
vt 0.60803500 0.38078000
vt 0.60803500 0.34680250
vt 0.60803500 0.32061350
vt 0.60803500 0.35547600
vt 0.60803500 0.29537960
vt 0.60803500 0.28793010
vt 0.60803500 0.40598300
vt 0.66481800 0.40598300
vt 0.07368200 0.52014400
vt 0.13340500 0.52014300
vt 0.04589300 0.52188600
vt 0.98617020 0.52188600
vt 0.07972100 0.18290210
vt 0.13944400 0.18290210
vt 0.07972100 0.30987400
vt 0.13944400 0.30987400
vt 0.24870400 0.47018800
vt 0.30842800 0.47018800
vt 0.16119300 0.47188900
vt 0.22091600 0.47188900
vt 0.49718900 0.28793010
vt 0.43746600 0.28793010
vt 0.43746600 0.34514400
vt 0.49718900 0.34514400
vt 0.72702630 0.67344500
vt 0.74249700 0.67344500
vt 0.74249700 0.63615400
vt 0.72702630 0.63615400
vt 0.85656490 0.67344500
vt 0.87203560 0.67344500
vt 0.87203560 0.63615400
vt 0.85656490 0.63615400
vt 0.72455000 0.67344500
vt 0.74931400 0.67344500
vt 0.74931400 0.63615400
vt 0.72455000 0.63615400
vt 0.84974810 0.67344500
vt 0.87451220 0.67344500
vt 0.87451220 0.63615400
vt 0.84974810 0.63615400
vt 0.70309890 0.67344500
vt 0.70309890 0.63615400
vt 0.89596290 0.67344500
vt 0.89596290 0.63615400
vt 0.70068900 0.67344500
vt 0.70068900 0.63615400
vt 0.89837300 0.67344500
vt 0.89837300 0.63615400
vt 0.75173830 0.72113860
vt 0.75107880 0.61645110
vt 0.78634000 0.61650260
vt 0.78699970 0.72116760
vt 0.84798290 0.61645110
vt 0.84732360 0.72113860
vt 0.81206220 0.72110610
vt 0.81272160 0.61648010
vt 0.69381000 0.61645110
vt 0.67249400 0.72113860
vt 0.63722400 0.72121440
vt 0.65855900 0.61738930
vt 0.92656710 0.72113860
vt 0.90525230 0.61645110
vt 0.94048110 0.61805510
vt 0.96183760 0.72121490
vt 0.74848950 0.50747900
vt 0.74080710 0.51955200
vt 0.76629880 0.54628400
vt 0.78293260 0.52014400
vt 0.85825470 0.51955200
vt 0.85057250 0.50747900
vt 0.81612920 0.52014400
vt 0.83276240 0.54628300
vt 0.74327300 0.52764700
vt 0.73157400 0.50918000
vt 0.69718000 0.52188600
vt 0.72089100 0.55931400
vt 0.86748750 0.50918000
vt 0.85578820 0.52764700
vt 0.87817040 0.55931400
vt 0.90188180 0.52188600
vt 0.76318400 0.53423600
vt 0.75801800 0.57160000
vt 0.83587740 0.53423600
vt 0.84104310 0.57160000
vt 0.72941950 0.52780500
vt 0.71128470 0.53121200
vt 0.71444070 0.56849300
vt 0.74307740 0.56311500
vt 0.88777700 0.53121200
vt 0.86964210 0.52780500
vt 0.85598450 0.56311400
vt 0.88462110 0.56849300
vt 0.74992180 0.48782300
vt 0.78518140 0.48928200
vt 0.84914000 0.48782300
vt 0.81388050 0.48928200
vt 0.72977700 0.48600600
vt 0.69454800 0.48761000
vt 0.86928530 0.48600600
vt 0.90442850 0.48905500
vt 0.78332600 0.53396100
vt 0.78378200 0.57124900
vt 0.81573550 0.53396100
vt 0.81563680 0.57125200
vt 0.69364500 0.67344500
vt 0.65911700 0.63615400
vt 0.90541710 0.67344500
vt 0.93994490 0.63615400
vt 0.75085850 0.67344500
vt 0.78608910 0.63615400
vt 0.84820340 0.67344500
vt 0.81297280 0.63615400
vt 0.00000000 0.00000000
vt 0.00000000 0.00000000
vt 0.00000000 0.00000000
vt 0.00000000 0.00000000
vt 0.72068400 0.18802400
vt 0.30659200 0.18802400
vt 0.72077600 0.64116100
vt 0.57513070 0.64116100
vt 0.57628800 0.70594900
vt 0.26638100 0.11289800
vt 0.57628800 0.68667200
vt 0.72113400 0.08937000
vt 0.57513070 0.08833600
vt 0.57628800 0.69585300
vt 0.72183100 0.09841100
vt 0.27496800 0.10008100
vt 0.57628800 0.17984300
vt 0.57628800 0.19067300
vt 0.59882190 0.18802400
vt 0.57249450 0.18802400
vt 0.72551200 0.64116100
vt 0.57249450 0.64116100
vt 0.72689800 0.09919700
vt 0.57365200 0.70242800
vt 0.57249450 0.10005800
vt 0.57249450 0.10940500
vt 0.57365200 0.17915800
vt 0.57365200 0.69633300
vt 0.57365200 0.68662700
vt 0.72613100 0.08924900
vt 0.57249450 0.08832900
vt 0.57365200 0.18993900
vt 0.72115500 0.64967820
vt 0.29527100 0.64967820
vt 0.59882190 0.64967820
vt 0.57249450 0.64967820
vt 0.65828040 0.12012900
vt 0.65884400 0.10974500
vt 0.43910100 0.15169100
vt 0.65828040 0.07472300
vt 0.48450600 0.15169100
vt 0.65884400 0.08510600
vt 0.65828040 0.83697400
vt 0.72323900 0.15169100
vt 0.26814700 0.15169100
vt 0.65828040 0.29060900
vt 0.48450600 0.18802400
vt 0.29232500 0.18802500
vt 0.33064000 0.18802500
vt 0.43910100 0.18802400
vt 0.29232500 0.64116200
vt 0.48450600 0.64116100
vt 0.43910100 0.64116100
vt 0.33064000 0.64116200
vt 0.48450600 0.11433100
vt 0.29232500 0.11470200
vt 0.33064000 0.11470200
vt 0.43910100 0.11459900
vt 0.74680900 0.15169100
vt 0.65828040 0.81240700
vt 0.43910100 0.08893200
vt 0.33064000 0.08897100
vt 0.29232500 0.08897100
vt 0.48450600 0.08898900
vt 0.65828040 0.82469100
vt 0.73519300 0.15169100
vt 0.48450600 0.10167000
vt 0.29232500 0.10183600
vt 0.43910100 0.10173100
vt 0.33064000 0.10183600
vt 0.25303200 0.15169100
vt 0.65828040 0.30636500
vt 0.65828040 0.31877900
vt 0.24098100 0.15169100
vt 0.43910100 0.64967820
vt 0.33064000 0.64967890
vt 0.29232500 0.64967890
vt 0.48450600 0.64967820
vt 0.19237700 0.18802400
vt 0.19237700 0.64967820
vt 0.43058800 0.64967820
vt 0.43058800 0.18802400
vt 0.43058800 0.64116200
vt 0.43058800 0.08897000
vt 0.43058800 0.10183600
vt 0.43058800 0.11470200
vt 0.43058800 0.15169200
vt 0.75879240 0.12012900
vt 0.75879240 0.29060900
vt 0.75879240 0.30636500
vt 0.75879240 0.31877900
vt 0.75879240 0.81240700
vt 0.75879240 0.82469100
vt 0.75879240 0.83697400
vt 0.75879240 0.07472300
vt 0.75879240 0.08510600
vt 0.19237700 0.11470200
vt 0.19237700 0.10183600
vt 0.19237700 0.08897000
vt 0.19237700 0.64116200
vt 0.70708160 0.18802400
vt 0.70708160 0.64116100
vt 0.46423530 0.18802400
vt 0.46423530 0.64116100
vt 0.46539300 0.70654100
vt 0.46539300 0.70242800
vt 0.46539300 0.16223900
vt 0.46539300 0.16850100
vt 0.46539300 0.17915800
vt 0.46539300 0.69633300
vt 0.46539300 0.68662700
vt 0.70708160 0.08924900
vt 0.46423530 0.08832900
vt 0.46539300 0.18993900
vt 0.46423530 0.64967820
vt 0.70708160 0.64967820
vt 0.17635540 0.18802400
vt 0.59044700 0.18802400
vt 0.17626380 0.64116100
vt 0.43137220 0.64116100
vt 0.43252900 0.70594900
vt 0.63065900 0.11289800
vt 0.43252900 0.68667200
vt 0.17590550 0.08937000
vt 0.43137220 0.08833600
vt 0.43252900 0.69585300
vt 0.17520860 0.09841100
vt 0.62207100 0.10008100
vt 0.43252900 0.17984300
vt 0.43252900 0.19067300
vt 0.73730870 0.18802400
vt 0.43400810 0.18802400
vt 0.17152760 0.64116100
vt 0.43400810 0.64116100
vt 0.17014170 0.09919700
vt 0.43516500 0.70242800
vt 0.43400810 0.10005800
vt 0.43400810 0.10940500
vt 0.43516500 0.17915800
vt 0.43516500 0.69633300
vt 0.43516500 0.68662700
vt 0.17090820 0.08924900
vt 0.43400810 0.08832900
vt 0.43516500 0.18993900
vt 0.17588470 0.64967820
vt 0.60176800 0.64967820
vt 0.73730870 0.64967820
vt 0.43400810 0.64967820
vt 0.78127150 0.12012900
vt 0.78070780 0.10974500
vt 0.45793900 0.15169100
vt 0.78127150 0.07472300
vt 0.41253300 0.15169100
vt 0.78070740 0.08510600
vt 0.78127150 0.83697400
vt 0.17380090 0.15169100
vt 0.62889200 0.15169100
vt 0.78127150 0.29060900
vt 0.41253300 0.18802400
vt 0.17046200 0.18802500
vt 0.45250400 0.18802500
vt 0.45793900 0.18802400
vt 0.17046200 0.64116200
vt 0.41253300 0.64116100
vt 0.45793900 0.64116100
vt 0.45250400 0.64116200
vt 0.41253300 0.11433100
vt 0.17046200 0.11470200
vt 0.45250400 0.11470200
vt 0.45793900 0.11459900
vt 0.15022950 0.15169100
vt 0.78127150 0.81240700
vt 0.45793900 0.08893200
vt 0.45250400 0.08897100
vt 0.17046200 0.08897100
vt 0.41253300 0.08898900
vt 0.78127150 0.82469100
vt 0.16184660 0.15169100
vt 0.41253300 0.10167000
vt 0.17046200 0.10183600
vt 0.45793900 0.10173100
vt 0.45250400 0.10183600
vt 0.64400700 0.15169100
vt 0.78127150 0.30636500
vt 0.78127150 0.31877900
vt 0.65605900 0.15169100
vt 0.45793900 0.64967820
vt 0.45250400 0.64967890
vt 0.17046200 0.64967890
vt 0.41253300 0.64967820
vt 0.29232500 0.62094000
vt 0.19237700 0.62093930
vt 0.43910100 0.62093930
vt 0.29527100 0.62093930
vt 0.72115500 0.62093930
vt 0.48450600 0.62093930
vt 0.59882190 0.62093930
vt 0.33064000 0.62094000
vt 0.43058800 0.62093930
vt 0.17046200 0.62094000
vt 0.45793900 0.62093930
vt 0.60176800 0.62093930
vt 0.17588470 0.62093930
vt 0.41253300 0.62093930
vt 0.73730870 0.62093930
vt 0.45250400 0.62094000
vt 0.62365500 0.21572000
vt 0.63841800 0.21572000
vt 0.54958600 0.16223900
vt 0.55491900 0.16223900
vt 0.54958600 0.17933600
vt 0.55491900 0.17933600
vt 0.65463100 0.22260800
vt 0.66939400 0.22260800
vt 0.63841800 0.19512100
vt 0.62365500 0.19512100
vt 0.54958600 0.20262100
vt 0.55491900 0.20262100
vt 0.66939400 0.16223900
vt 0.65463100 0.16223900
vt 0.99463600 0.21886400
vt 0.98391200 0.22365600
vt 0.62365500 0.22620300
vt 0.62563800 0.23692800
vt 0.04384300 0.19718600
vt 0.03033500 0.19586000
vt 0.04340700 0.16223900
vt 0.03009500 0.16527700
vt 0.24804600 0.18321300
vt 0.24640700 0.16990000
vt 0.98329800 0.19718800
vt 0.99662200 0.19586900
vt 0.65463100 0.19366000
vt 0.65463100 0.20754000
vt 0.66939400 0.19366000
vt 0.66939400 0.20754000
vt 0.65463100 0.24647600
vt 0.66939400 0.24647600
vt 0.93192300 0.26167400
vt 0.62365500 0.17421500
vt 0.59267900 0.21572000
vt 0.60744100 0.21572000
vt 0.57113300 0.16223900
vt 0.57646600 0.16223900
vt 0.57113300 0.17933600
vt 0.57646600 0.17933600
vt 0.68560700 0.22260900
vt 0.70037000 0.22260900
vt 0.60744100 0.19512100
vt 0.59267900 0.19512100
vt 0.57113300 0.20262100
vt 0.57646600 0.20262100
vt 0.70037000 0.16223900
vt 0.68560700 0.16223900
vt 0.79127100 0.21886400
vt 0.78054800 0.22365600
vt 0.59267900 0.22620300
vt 0.59466200 0.23692800
vt 0.84047900 0.19718600
vt 0.82697100 0.19586000
vt 0.84004300 0.16223900
vt 0.82673100 0.16527700
vt 0.21707000 0.18321300
vt 0.21543100 0.16990000
vt 0.77993400 0.19718800
vt 0.79325700 0.19586900
vt 0.68560700 0.19366100
vt 0.68560700 0.20754000
vt 0.70037000 0.19366100
vt 0.70037000 0.20754000
vt 0.68560700 0.24647600
vt 0.70037000 0.24647600
vt 0.72855900 0.26167400
vt 0.59267900 0.17421500
vt 0.57513070 0.18802400
vt 0.57513070 0.11289800
vt 0.57513070 0.10008100
vt 0.59618590 0.64967820
vt 0.59618590 0.18802400
vt 0.57513070 0.64967820
vt 0.57628800 0.16705800
vt 0.57365200 0.16850100
vt 0.72748900 0.10682000
vt 0.73101000 0.10530800
vt 0.72515900 0.18802400
vt 0.24276500 0.11675900
vt 0.74676600 0.11537000
vt 0.25359500 0.11689900
vt 0.27593200 0.08833600
vt 0.73758600 0.11373900
vt 0.29518300 0.64116100
vt 0.64789650 0.12012900
vt 0.64789650 0.07472300
vt 0.64789650 0.83599000
vt 0.29232500 0.15169200
vt 0.30327200 0.15169200
vt 0.30327200 0.11433200
vt 0.64789650 0.82403600
vt 0.64789650 0.29108200
vt 0.31969200 0.18802500
vt 0.31969200 0.64116200
vt 0.30327200 0.64116200
vt 0.30327200 0.18802500
vt 0.31969200 0.08893300
vt 0.30327200 0.10167100
vt 0.33064000 0.15169200
vt 0.31969200 0.11460000
vt 0.31969200 0.15169200
vt 0.64789650 0.31824800
vt 0.64789650 0.81241900
vt 0.31969200 0.10173200
vt 0.30327200 0.08899000
vt 0.64789650 0.30619700
vt 0.31969200 0.64967890
vt 0.30327200 0.64967890
vt 0.75879240 0.10974600
vt 0.19237700 0.15169200
vt 0.59882190 0.18802400
vt 0.59882190 0.64116100
vt 0.57249450 0.64116100
vt 0.57249450 0.18802400
vt 0.57365200 0.70654100
vt 0.57365200 0.16223900
vt 0.57365200 0.17915800
vt 0.57365200 0.68662700
vt 0.59882190 0.08924900
vt 0.59882190 0.09919700
vt 0.70708160 0.09919700
vt 0.46423530 0.10005800
vt 0.57365200 0.18993900
vt 0.57249450 0.64967820
vt 0.59882190 0.64967820
vt 0.43137220 0.18802400
vt 0.43137220 0.10008100
vt 0.43137220 0.11289800
vt 0.73994470 0.64967820
vt 0.73994470 0.18802400
vt 0.43137220 0.64967820
vt 0.43516500 0.16850100
vt 0.43252900 0.16705800
vt 0.16602950 0.10530800
vt 0.16954970 0.10682000
vt 0.17188070 0.18802400
vt 0.65427500 0.11675900
vt 0.15027310 0.11537000
vt 0.64344500 0.11689900
vt 0.62110800 0.08833600
vt 0.15945340 0.11373900
vt 0.60185600 0.64116100
vt 0.79165510 0.12012900
vt 0.79165510 0.07472300
vt 0.79165510 0.83599000
vt 0.15951300 0.11433200
vt 0.15951300 0.15169200
vt 0.17046200 0.15169200
vt 0.79165510 0.82403600
vt 0.79165510 0.29108200
vt 0.46345100 0.64116200
vt 0.46345100 0.18802500
vt 0.15951300 0.18802500
vt 0.15951300 0.64116200
vt 0.46345100 0.08893300
vt 0.15951300 0.10167100
vt 0.45250400 0.15169200
vt 0.46345100 0.15169200
vt 0.46345100 0.11460000
vt 0.79165510 0.31824800
vt 0.79165510 0.81241900
vt 0.46345100 0.10173200
vt 0.15951300 0.08899000
vt 0.79165510 0.30619700
vt 0.46345100 0.64967890
vt 0.15951300 0.64967890
vt 0.73730870 0.18802400
vt 0.73730870 0.64116100
vt 0.43400810 0.64116100
vt 0.43400810 0.18802400
vt 0.43516500 0.70654100
vt 0.43516500 0.16223900
vt 0.43516500 0.17915800
vt 0.43516500 0.68662700
vt 0.73730870 0.08924900
vt 0.73730870 0.09919700
vt 0.43516500 0.18993900
vt 0.43400810 0.64967820
vt 0.73730870 0.64967820
vt 0.59618590 0.62093930
vt 0.57513070 0.62093930
vt 0.57249450 0.62093930
vt 0.31969200 0.62094000
vt 0.30327200 0.62094000
vt 0.73994470 0.62093930
vt 0.43400810 0.62093930
vt 0.43137220 0.62093930
vt 0.46345100 0.62094000
vt 0.15951300 0.62094000
vt 0.63168330 0.85177500
vt 0.62904760 0.84730000
vt 0.49056050 0.84730000
vt 0.48792430 0.85177500
vt 0.63168330 0.08842300
vt 0.48792430 0.08842300
vt 0.62073610 0.09880700
vt 0.49887300 0.09880700
vt 0.52078750 0.09880700
vt 0.05361700 0.22830400
vt 0.07421700 0.24198900
vt 0.08142800 0.22543200
vt 0.05803800 0.21036400
vt 0.63841800 0.22620300
vt 0.63643500 0.23692800
vt 0.04313400 0.22365600
vt 0.03241000 0.21886400
vt 0.23328400 0.18321300
vt 0.23492400 0.16990000
vt 0.98363900 0.16223900
vt 0.99695100 0.16527700
vt 0.23328400 0.19200600
vt 0.24804600 0.19200600
vt 0.05539800 0.19648500
vt 0.97484600 0.16506300
vt 0.97164800 0.19648500
vt 0.62837000 0.24342900
vt 0.63370300 0.24342900
vt 0.02163000 0.19583600
vt 0.02590900 0.21293400
vt 0.02243400 0.17255200
vt 0.23799900 0.16224000
vt 0.24333200 0.16224000
vt 0.00541600 0.19583600
vt 0.00461100 0.17255200
vt 0.00113700 0.21293400
vt 0.05220000 0.16506300
vt 0.97342900 0.22830400
vt 0.96900700 0.21036400
vt 0.94561800 0.22543200
vt 0.95282900 0.24198900
vt 0.91994700 0.24930000
vt 0.63841800 0.17421500
vt 0.09512300 0.26167400
vt 0.10709800 0.24930000
vt 0.63841800 0.16223900
vt 0.62365500 0.16223900
vt 0.62365500 0.17421500
vt 0.63841800 0.17421500
vt 0.85025200 0.22830400
vt 0.87085200 0.24198900
vt 0.87806400 0.22543200
vt 0.85467400 0.21036400
vt 0.60744100 0.22620300
vt 0.60545900 0.23692800
vt 0.83976900 0.22365600
vt 0.82904600 0.21886400
vt 0.20230800 0.18321300
vt 0.20394800 0.16990000
vt 0.78027400 0.16223900
vt 0.79358600 0.16527700
vt 0.20230800 0.19200600
vt 0.21707000 0.19200600
vt 0.85203300 0.19648500
vt 0.77148100 0.16506300
vt 0.76828400 0.19648500
vt 0.59739400 0.24342900
vt 0.60272700 0.24342900
vt 0.81826500 0.19583600
vt 0.82254400 0.21293400
vt 0.81907000 0.17255200
vt 0.20702300 0.16224000
vt 0.21235600 0.16224000
vt 0.80205200 0.19583600
vt 0.80124700 0.17255200
vt 0.79777300 0.21293400
vt 0.84883500 0.16506300
vt 0.77006400 0.22830400
vt 0.76564300 0.21036400
vt 0.74225300 0.22543200
vt 0.74946500 0.24198900
vt 0.71658300 0.24930000
vt 0.60744100 0.17421500
vt 0.89175800 0.26167400
vt 0.90373400 0.24930000
vt 0.60744100 0.16223900
vt 0.59267900 0.16223900
vt 0.59267900 0.17421500
vt 0.60744100 0.17421500
vt 0.63168330 0.28519900
vt 0.62904760 0.28142900
vt 0.49056050 0.28142900
vt 0.48792430 0.28519900
vt 0.63168330 0.29797000
vt 0.48792430 0.29797000
vt 0.63168330 0.31122500
vt 0.48792430 0.31122500
vt 0.63168330 0.82173700
vt 0.48792430 0.82173700
vt 0.63168330 0.83454400
vt 0.48792430 0.83454400
vt 0.63168330 0.84282500
vt 0.48792430 0.84282500
vt 0.63168330 0.13382900
vt 0.62073610 0.12344600
vt 0.52078750 0.12344600
vt 0.49887180 0.12344600
vt 0.48792430 0.13382900
vt 0.63168330 0.27765800
vt 0.48792430 0.27765800
f 203/203 202/202 201/201
f 204/204 203/203 201/201
f 37/37 39/39 38/38
f 39/39 40/40 38/38
f 38/38 40/40 41/41
f 40/40 42/42 41/41
f 41/41 42/42 43/43
f 42/42 44/44 43/43
f 43/43 44/44 45/45
f 44/44 46/46 45/45
f 46/46 48/48 47/47
f 45/45 46/46 47/47
f 206/206 205/205 49/49
f 205/205 50/50 49/49
f 49/49 50/50 51/51
f 50/50 52/52 51/51
f 51/51 52/52 53/53
f 52/52 54/54 53/53
f 53/53 54/54 11/11
f 2/2 53/53 11/11
f 2/2 11/11 3/3
f 11/11 12/12 3/3
f 3/3 12/12 4/4
f 12/12 13/13 4/4
f 4/4 13/13 5/5
f 13/13 14/14 5/5
f 208/208 207/207 6/6
f 207/207 15/15 6/6
f 6/6 15/15 7/7
f 15/15 16/16 7/7
f 7/7 16/16 8/8
f 16/16 17/17 8/8
f 8/8 17/17 9/9
f 17/17 18/18 9/9
f 9/9 18/18 1/1
f 18/18 10/10 1/1
f 27/27 19/19 226/226
f 225/225 27/27 226/226
f 26/26 27/27 225/225
f 224/224 26/26 225/225
f 25/25 26/26 224/224
f 223/223 25/25 224/224
f 24/24 25/25 223/223
f 222/222 24/24 223/223
f 23/23 24/24 222/222
f 221/221 23/23 222/222
f 22/22 23/23 221/221
f 220/220 22/22 221/221
f 21/21 22/22 220/220
f 218/218 21/21 220/220
f 20/20 21/21 218/218
f 219/219 20/20 218/218
f 219/219 217/217 20/20
f 217/217 63/63 20/20
f 62/62 63/63 217/217
f 216/216 62/62 217/217
f 61/61 62/62 216/216
f 215/215 61/61 216/216
f 60/60 61/61 215/215
f 214/214 60/60 215/215
f 59/59 60/60 214/214
f 213/213 59/59 214/214
f 58/58 59/59 213/213
f 212/212 58/58 213/213
f 57/57 58/58 212/212
f 211/211 57/57 212/212
f 56/56 57/57 211/211
f 209/209 56/56 211/211
f 55/55 56/56 209/209
f 210/210 55/55 209/209
f 210/210 294/294 55/55
f 294/294 293/293 55/55
f 210/210 226/226 294/294
f 226/226 312/312 294/294
f 66/66 67/67 230/230
f 229/229 66/66 230/230
f 65/65 66/66 229/229
f 227/227 65/65 229/229
f 64/64 65/65 227/227
f 228/228 64/64 227/227
f 228/228 292/292 64/64
f 292/292 291/291 64/64
f 230/230 67/67 231/231
f 67/67 68/68 231/231
f 231/231 68/68 232/232
f 68/68 69/69 232/232
f 235/235 234/234 233/233
f 234/234 70/70 233/233
f 233/233 70/70 236/236
f 70/70 71/71 236/236
f 236/236 71/71 237/237
f 71/71 72/72 237/237
f 237/237 72/72 29/29
f 239/239 237/237 29/29
f 239/239 29/29 238/238
f 29/29 30/30 238/238
f 238/238 30/30 240/240
f 30/30 31/31 240/240
f 240/240 31/31 241/241
f 31/31 32/32 241/241
f 243/243 33/33 242/242
f 244/244 243/243 242/242
f 242/242 33/33 245/245
f 33/33 34/34 245/245
f 245/245 34/34 246/246
f 34/34 35/35 246/246
f 246/246 35/35 247/247
f 35/35 36/36 247/247
f 247/247 36/36 248/248
f 36/36 28/28 248/248
f 28/28 300/300 248/248
f 300/300 299/299 248/248
f 75/75 76/76 74/74
f 73/73 75/75 74/74
f 74/74 311/311 73/73
f 311/311 310/310 73/73
f 79/79 80/80 77/77
f 78/78 79/79 77/77
f 287/287 286/286 285/285
f 288/288 287/287 285/285
f 297/297 296/296 295/295
f 298/298 297/297 295/295
f 303/303 302/302 301/301
f 304/304 303/303 301/301
f 307/307 306/306 305/305
f 308/308 307/307 305/305
f 316/316 315/315 85/85
f 88/88 316/316 85/85
f 88/88 85/85 82/82
f 316/316 88/88 97/97
f 318/318 316/316 97/97
f 97/97 88/88 94/94
f 87/87 88/88 82/82
f 88/88 87/87 94/94
f 87/87 82/82 81/81
f 94/94 87/87 93/93
f 91/91 87/87 81/81
f 87/87 91/91 93/93
f 91/91 81/81 84/84
f 93/93 91/91 96/96
f 90/90 91/91 84/84
f 91/91 90/90 96/96
f 90/90 84/84 83/83
f 96/96 90/90 95/95
f 89/89 90/90 83/83
f 90/90 89/89 95/95
f 89/89 83/83 86/86
f 95/95 89/89 98/98
f 92/92 89/89 86/86
f 89/89 92/92 98/98
f 92/92 86/86 313/313
f 98/98 92/92 317/317
f 314/314 92/92 313/313
f 92/92 314/314 317/317
f 104/104 105/105 325/325
f 324/324 104/104 325/325
f 101/101 104/104 324/324
f 321/321 101/101 324/324
f 102/102 101/101 321/321
f 322/322 102/102 321/321
f 103/103 102/102 322/322
f 323/323 103/103 322/322
f 99/99 103/103 323/323
f 319/319 99/99 323/323
f 100/100 99/99 319/319
f 320/320 100/100 319/319
f 326/326 100/100 320/320
f 327/327 326/326 320/320
f 334/334 112/112 333/333
f 112/112 111/111 333/333
f 333/333 111/111 331/331
f 111/111 108/108 331/331
f 331/331 108/108 330/330
f 108/108 109/109 330/330
f 330/330 109/109 332/332
f 109/109 110/110 332/332
f 332/332 110/110 329/329
f 110/110 106/106 329/329
f 329/329 106/106 328/328
f 106/106 107/107 328/328
f 328/328 107/107 335/335
f 107/107 336/336 335/335
f 179/179 178/178 177/177
f 180/180 179/179 177/177
f 183/183 181/181 182/182
f 184/184 183/183 182/182
f 184/184 182/182 185/185
f 186/186 184/184 185/185
f 179/179 190/190 178/178
f 190/190 187/187 178/178
f 190/190 189/189 187/187
f 189/189 188/188 187/187
f 189/189 196/196 188/188
f 196/196 195/195 188/188
f 196/196 186/186 195/195
f 186/186 185/185 195/195
f 338/338 337/337 191/191
f 192/192 338/338 191/191
f 192/192 191/191 170/170
f 171/171 192/192 170/170
f 171/171 170/170 169/169
f 172/172 171/171 169/169
f 172/172 169/169 199/199
f 200/200 172/172 199/199
f 340/340 194/194 339/339
f 194/194 193/193 339/339
f 194/194 176/176 193/193
f 176/176 174/174 193/193
f 176/176 175/175 174/174
f 175/175 173/173 174/174
f 175/175 198/198 173/173
f 198/198 197/197 173/173
f 342/342 168/168 341/341
f 168/168 167/167 341/341
f 168/168 164/164 167/167
f 164/164 161/161 167/167
f 164/164 163/163 161/161
f 163/163 162/162 161/161
f 163/163 166/166 162/162
f 166/166 165/165 162/162
f 166/166 160/160 165/165
f 160/160 157/157 165/165
f 160/160 159/159 157/157
f 159/159 158/158 157/157
f 159/159 344/344 158/158
f 344/344 343/343 158/158
f 124/124 123/123 139/139
f 140/140 124/124 139/139
f 125/125 126/126 142/142
f 141/141 125/125 142/142
f 142/142 126/126 143/143
f 126/126 127/127 143/143
f 143/143 127/127 148/148
f 127/127 132/132 148/148
f 148/148 132/132 145/145
f 132/132 129/129 145/145
f 145/145 129/129 144/144
f 129/129 128/128 144/144
f 144/144 128/128 140/140
f 128/128 124/124 140/140
f 346/346 345/345 146/146
f 345/345 130/130 146/146
f 146/146 130/130 137/137
f 130/130 120/120 137/137
f 137/137 120/120 135/135
f 120/120 119/119 135/135
f 135/135 119/119 155/155
f 119/119 134/134 155/155
f 131/131 348/348 347/347
f 147/147 131/131 347/347
f 122/122 131/131 147/147
f 138/138 122/122 147/147
f 121/121 122/122 138/138
f 136/136 121/121 138/138
f 133/133 121/121 136/136
f 156/156 133/133 136/136
f 118/118 350/350 349/349
f 154/154 118/118 349/349
f 115/115 118/118 154/154
f 151/151 115/115 154/154
f 116/116 115/115 151/151
f 152/152 116/116 151/151
f 117/117 116/116 152/152
f 149/149 117/117 152/152
f 113/113 117/117 149/149
f 150/150 113/113 149/149
f 114/114 113/113 150/150
f 153/153 114/114 150/150
f 351/351 114/114 153/153
f 352/352 351/351 153/153
f 252/252 251/251 249/249
f 252/252 290/290 251/251
f 290/290 289/289 251/251
f 289/289 309/309 251/251
f 309/309 284/284 251/251
f 251/251 250/250 249/249
f 249/249 250/250 253/253
f 250/250 254/254 253/253
f 253/253 254/254 255/255
f 254/254 256/256 255/255
f 255/255 256/256 257/257
f 256/256 258/258 257/257
f 257/257 258/258 259/259
f 258/258 260/260 259/259
f 259/259 260/260 261/261
f 260/260 262/262 261/261
f 261/261 262/262 263/263
f 262/262 264/264 263/263
f 263/263 264/264 265/265
f 264/264 266/266 265/265
f 265/265 266/266 269/269
f 270/270 265/265 269/269
f 270/270 269/269 267/267
f 269/269 268/268 267/267
f 267/267 268/268 271/271
f 268/268 272/272 271/271
f 271/271 272/272 273/273
f 272/272 274/274 273/273
f 273/273 274/274 275/275
f 274/274 276/276 275/275
f 275/275 276/276 277/277
f 276/276 278/278 277/277
f 277/277 278/278 279/279
f 278/278 280/280 279/279
f 279/279 280/280 281/281
f 280/280 282/282 281/281
f 281/281 282/282 283/283
f 282/282 284/284 283/283
f 355/355 354/354 353/353
f 356/356 355/355 353/353
f 355/355 438/438 354/354
f 356/356 353/353 369/369
f 438/438 437/437 354/354
f 370/370 356/356 369/369
f 438/438 380/380 437/437
f 370/370 369/369 362/362
f 380/380 377/377 437/437
f 363/363 370/370 362/362
f 380/380 379/379 377/377
f 363/363 362/362 361/361
f 379/379 378/378 377/377
f 364/364 363/363 361/361
f 379/379 422/422 378/378
f 364/364 361/361 373/373
f 422/422 421/421 378/378
f 374/374 364/364 373/373
f 422/422 396/396 421/421
f 374/374 373/373 433/433
f 396/396 393/393 421/421
f 434/434 374/374 433/433
f 396/396 395/395 393/393
f 434/434 433/433 386/386
f 395/395 394/394 393/393
f 387/387 434/434 386/386
f 395/395 416/416 394/394
f 387/387 386/386 385/385
f 416/416 413/413 394/394
f 388/388 387/387 385/385
f 416/416 415/415 413/413
f 388/388 385/385 425/425
f 415/415 414/414 413/413
f 426/426 388/388 425/425
f 415/415 430/430 414/414
f 426/426 425/425 402/402
f 430/430 429/429 414/414
f 403/403 426/426 402/402
f 430/430 410/410 429/429
f 403/403 402/402 401/401
f 410/410 409/409 429/429
f 404/404 403/403 401/401
f 404/404 401/401 409/409
f 410/410 404/404 409/409
f 359/359 358/358 357/357
f 360/360 359/359 357/357
f 359/359 372/372 358/358
f 360/360 357/357 439/439
f 372/372 371/371 358/358
f 440/440 360/360 439/439
f 372/372 368/368 371/371
f 440/440 439/439 382/382
f 368/368 365/365 371/371
f 383/383 440/440 382/382
f 368/368 367/367 365/365
f 383/383 382/382 381/381
f 367/367 366/366 365/365
f 384/384 383/383 381/381
f 367/367 376/376 366/366
f 384/384 381/381 423/423
f 376/376 375/375 366/366
f 424/424 384/384 423/423
f 376/376 436/436 375/375
f 424/424 423/423 398/398
f 436/436 435/435 375/375
f 399/399 424/424 398/398
f 436/436 392/392 435/435
f 399/399 398/398 397/397
f 392/392 389/389 435/435
f 400/400 399/399 397/397
f 392/392 391/391 389/389
f 400/400 397/397 418/418
f 391/391 390/390 389/389
f 419/419 400/400 418/418
f 391/391 428/428 390/390
f 419/419 418/418 417/417
f 428/428 427/427 390/390
f 420/420 419/419 417/417
f 428/428 408/408 427/427
f 420/420 417/417 431/431
f 408/408 405/405 427/427
f 432/432 420/420 431/431
f 408/408 407/407 405/405
f 432/432 431/431 411/411
f 407/407 406/406 405/405
f 412/412 432/432 411/411
f 412/412 411/411 406/406
f 407/407 412/412 406/406
f 444/444 443/443 441/441
f 442/442 444/444 441/441
f 810/810 801/801 603/603
f 800/800 813/813 629/629
f 843/843 845/845 844/844
f 716/716 466/466 465/465
f 717/717 716/716 465/465
f 717/717 465/465 471/471
f 453/453 717/717 471/471
f 453/453 471/471 462/462
f 448/448 453/453 462/462
f 448/448 462/462 460/460
f 715/715 448/448 460/460
f 715/715 460/460 476/476
f 720/720 715/715 476/476
f 476/476 829/829 720/720
f 829/829 828/828 720/720
f 459/459 719/719 718/718
f 475/475 459/459 718/718
f 718/718 827/827 475/475
f 827/827 637/637 475/475
f 464/464 468/468 449/449
f 468/468 454/454 449/449
f 468/468 469/469 454/454
f 469/469 451/451 454/454
f 469/469 472/472 451/451
f 472/472 458/458 451/451
f 472/472 467/467 458/458
f 467/467 457/457 458/458
f 467/467 722/722 457/457
f 722/722 721/721 457/457
f 725/725 461/461 445/445
f 461/461 447/447 445/445
f 461/461 470/470 447/447
f 470/470 452/452 447/447
f 470/470 463/463 452/452
f 463/463 455/455 452/452
f 463/463 724/724 455/455
f 724/724 723/723 455/455
f 447/447 492/492 445/445
f 492/492 487/487 445/445
f 504/504 492/492 447/447
f 452/452 504/504 447/447
f 507/507 504/504 452/452
f 455/455 507/507 452/452
f 495/495 507/507 455/455
f 723/723 495/495 455/455
f 481/481 495/495 723/723
f 484/484 481/481 723/723
f 484/484 723/723 730/730
f 506/506 484/484 730/730
f 506/506 730/730 727/727
f 499/499 506/506 727/727
f 499/499 727/727 726/726
f 514/514 499/499 726/726
f 514/514 726/726 728/728
f 511/511 514/514 728/728
f 511/511 728/728 450/450
f 485/485 511/511 450/450
f 485/485 450/450 498/498
f 479/479 485/485 498/498
f 498/498 450/450 509/509
f 450/450 456/456 509/509
f 509/509 456/456 501/501
f 456/456 729/729 501/501
f 501/501 729/729 493/493
f 729/729 731/731 493/493
f 493/493 731/731 490/490
f 731/731 446/446 490/490
f 490/490 446/446 515/515
f 446/446 474/474 515/515
f 474/474 634/634 515/515
f 634/634 633/633 515/515
f 482/482 733/733 480/480
f 480/480 733/733 734/734
f 748/748 747/747 746/746
f 747/747 497/497 746/746
f 747/747 751/751 497/497
f 497/497 526/526 746/746
f 526/526 527/527 746/746
f 527/527 526/526 804/804
f 751/751 510/510 497/497
f 751/751 744/744 510/510
f 525/525 526/526 497/497
f 510/510 525/525 497/497
f 526/526 609/609 804/804
f 526/526 525/525 609/609
f 744/744 502/502 510/510
f 744/744 741/741 502/502
f 609/609 806/806 804/804
f 806/806 805/805 804/804
f 809/809 806/806 609/609
f 622/622 809/809 609/609
f 525/525 622/622 609/609
f 802/802 809/809 622/622
f 524/524 525/525 510/510
f 525/525 524/524 622/622
f 502/502 524/524 510/510
f 614/614 802/802 622/622
f 524/524 614/614 622/622
f 798/798 802/802 614/614
f 741/741 494/494 502/502
f 741/741 740/740 494/494
f 523/523 524/524 502/502
f 524/524 523/523 614/614
f 494/494 523/523 502/502
f 606/606 798/798 614/614
f 523/523 606/606 614/614
f 799/799 798/798 606/606
f 740/740 489/489 494/494
f 740/740 754/754 489/489
f 522/522 523/523 494/494
f 523/523 522/522 606/606
f 489/489 522/522 494/494
f 601/601 799/799 606/606
f 522/522 601/601 606/606
f 812/812 799/799 601/601
f 754/754 516/516 489/489
f 754/754 830/830 516/516
f 830/830 638/638 516/516
f 521/521 522/522 489/489
f 516/516 521/521 489/489
f 516/516 638/638 521/521
f 522/522 521/521 601/601
f 638/638 639/639 521/521
f 521/521 628/628 601/601
f 521/521 639/639 628/628
f 628/628 812/812 601/601
f 639/639 646/646 628/628
f 628/628 646/646 812/812
f 646/646 835/835 812/812
f 755/755 743/743 517/517
f 517/517 631/631 755/755
f 631/631 831/831 755/755
f 482/482 480/480 536/536
f 480/480 535/535 536/536
f 535/535 592/592 536/536
f 592/592 594/594 536/536
f 791/791 594/594 592/592
f 546/546 464/464 762/762
f 545/545 546/546 762/762
f 546/546 545/545 818/818
f 576/576 546/546 818/818
f 547/547 763/763 722/722
f 548/548 547/547 722/722
f 548/548 722/722 764/764
f 549/549 548/548 764/764
f 548/548 549/549 820/820
f 779/779 548/548 820/820
f 547/547 548/548 779/779
f 819/819 547/547 779/779
f 768/768 767/767 766/766
f 552/552 768/768 766/766
f 552/552 766/766 759/759
f 768/768 552/552 822/822
f 823/823 768/768 822/822
f 822/822 552/552 815/815
f 542/542 552/552 759/759
f 552/552 542/542 815/815
f 542/542 759/759 758/758
f 815/815 542/542 814/814
f 541/541 542/542 758/758
f 542/542 541/541 814/814
f 541/541 758/758 772/772
f 814/814 541/541 826/826
f 556/556 541/541 772/772
f 541/541 556/556 826/826
f 549/549 764/764 770/770
f 554/554 549/549 770/770
f 554/554 770/770 765/765
f 549/549 554/554 824/824
f 820/820 549/549 824/824
f 824/824 554/554 821/821
f 551/551 554/554 765/765
f 554/554 551/551 821/821
f 551/551 765/765 468/468
f 821/821 551/551 580/580
f 550/550 551/551 468/468
f 551/551 550/550 580/580
f 550/550 468/468 464/464
f 580/580 550/550 576/576
f 546/546 550/550 464/464
f 550/550 546/546 576/576
f 555/555 771/771 761/761
f 543/543 555/555 761/761
f 543/543 761/761 760/760
f 555/555 543/543 817/817
f 825/825 555/555 817/817
f 817/817 543/543 816/816
f 544/544 543/543 760/760
f 543/543 544/544 816/816
f 544/544 760/760 471/471
f 816/816 544/544 583/583
f 553/553 544/544 471/471
f 544/544 553/553 583/583
f 553/553 471/471 465/465
f 583/583 553/553 577/577
f 769/769 553/553 465/465
f 553/553 769/769 577/577
f 578/578 775/775 577/577
f 775/775 774/774 577/577
f 577/577 774/774 583/583
f 774/774 565/565 583/583
f 583/583 565/565 574/574
f 565/565 560/560 574/574
f 574/574 560/560 572/572
f 560/560 773/773 572/572
f 572/572 773/773 588/588
f 773/773 778/778 588/588
f 778/778 834/834 588/588
f 834/834 833/833 588/588
f 777/777 571/571 776/776
f 571/571 587/587 776/776
f 587/587 645/645 776/776
f 645/645 832/832 776/776
f 580/580 576/576 561/561
f 566/566 580/580 561/561
f 581/581 580/580 566/566
f 563/563 581/581 566/566
f 584/584 581/581 563/563
f 570/570 584/584 563/563
f 579/579 584/584 570/570
f 569/569 579/579 570/570
f 779/779 579/579 569/569
f 780/780 779/779 569/569
f 573/573 783/783 557/557
f 559/559 573/573 557/557
f 582/582 573/573 559/559
f 564/564 582/582 559/559
f 575/575 582/582 564/564
f 567/567 575/575 564/564
f 781/781 575/575 567/567
f 782/782 781/781 567/567
f 604/604 559/559 557/557
f 599/599 604/604 557/557
f 604/604 616/616 559/559
f 616/616 564/564 559/559
f 599/599 557/557 585/585
f 616/616 619/619 564/564
f 619/619 567/567 564/564
f 630/630 599/599 585/585
f 585/585 643/643 630/630
f 643/643 644/644 630/630
f 619/619 607/607 567/567
f 607/607 782/782 567/567
f 607/607 593/593 782/782
f 593/593 596/596 782/782
f 782/782 596/596 788/788
f 596/596 618/618 788/788
f 788/788 618/618 785/785
f 618/618 611/611 785/785
f 785/785 611/611 784/784
f 611/611 626/626 784/784
f 784/784 626/626 786/786
f 626/626 623/623 786/786
f 786/786 623/623 562/562
f 623/623 597/597 562/562
f 562/562 597/597 610/610
f 597/597 591/591 610/610
f 562/562 610/610 621/621
f 568/568 562/562 621/621
f 568/568 621/621 613/613
f 787/787 568/568 613/613
f 787/787 613/613 605/605
f 789/789 787/787 605/605
f 789/789 605/605 602/602
f 558/558 789/789 602/602
f 558/558 602/602 627/627
f 586/586 558/558 627/627
f 627/627 641/641 586/586
f 641/641 642/642 586/586
f 590/590 790/790 589/589
f 590/590 589/589 528/528
f 756/756 590/590 528/528
f 528/528 589/589 598/598
f 478/478 756/756 528/528
f 529/529 528/528 598/598
f 529/529 598/598 624/624
f 477/477 478/478 528/528
f 732/732 478/478 477/477
f 477/477 528/528 486/486
f 477/477 486/486 732/732
f 528/528 529/529 486/486
f 486/486 739/739 732/732
f 486/486 512/512 739/739
f 486/486 529/529 512/512
f 512/512 753/753 739/739
f 530/530 529/529 624/624
f 529/529 530/530 512/512
f 530/530 624/624 625/625
f 512/512 513/513 753/753
f 512/512 530/530 513/513
f 513/513 749/749 753/753
f 531/531 530/530 625/625
f 530/530 531/531 513/513
f 531/531 625/625 612/612
f 513/513 500/500 749/749
f 513/513 531/531 500/500
f 500/500 750/750 749/749
f 532/532 531/531 612/612
f 531/531 532/532 500/500
f 532/532 612/612 617/617
f 500/500 505/505 750/750
f 500/500 532/532 505/505
f 505/505 738/738 750/750
f 533/533 532/532 617/617
f 532/532 533/533 505/505
f 533/533 617/617 595/595
f 505/505 483/483 738/738
f 505/505 533/533 483/483
f 483/483 734/734 738/738
f 483/483 480/480 734/734
f 534/534 533/533 595/595
f 533/533 534/534 483/483
f 483/483 534/534 480/480
f 534/534 595/595 592/592
f 534/534 535/535 480/480
f 535/535 534/534 592/592
f 791/791 592/592 792/792
f 592/592 595/595 792/792
f 792/792 595/595 796/796
f 595/595 617/617 796/796
f 796/796 617/617 808/808
f 617/617 612/612 808/808
f 808/808 612/612 807/807
f 612/612 625/625 807/807
f 807/807 625/625 811/811
f 625/625 624/624 811/811
f 811/811 624/624 797/797
f 624/624 598/598 797/797
f 797/797 598/598 790/790
f 598/598 589/589 790/790
f 632/632 631/631 517/517
f 520/520 632/632 517/517
f 640/640 632/632 520/520
f 629/629 640/640 520/520
f 836/836 640/640 629/629
f 813/813 836/836 629/629
f 519/519 520/520 517/517
f 520/520 519/519 629/629
f 488/488 519/519 517/517
f 743/743 488/488 517/517
f 743/743 742/742 488/488
f 519/519 600/600 629/629
f 600/600 800/800 629/629
f 801/801 800/800 600/600
f 603/603 801/801 600/600
f 519/519 540/540 600/600
f 540/540 519/519 488/488
f 540/540 603/603 600/600
f 742/742 491/491 488/488
f 491/491 540/540 488/488
f 742/742 752/752 491/491
f 540/540 539/539 603/603
f 539/539 540/540 491/491
f 752/752 503/503 491/491
f 503/503 539/539 491/491
f 752/752 745/745 503/503
f 539/539 615/615 603/603
f 615/615 810/810 603/603
f 803/803 810/810 615/615
f 745/745 508/508 503/503
f 745/745 737/737 508/508
f 538/538 539/539 503/503
f 539/539 538/538 615/615
f 508/508 538/538 503/503
f 620/620 803/803 615/615
f 538/538 620/620 615/615
f 793/793 803/803 620/620
f 737/737 496/496 508/508
f 737/737 736/736 496/496
f 736/736 735/735 496/496
f 735/735 757/757 496/496
f 537/537 538/538 508/508
f 496/496 537/537 508/508
f 538/538 537/537 620/620
f 757/757 537/537 496/496
f 608/608 793/793 620/620
f 537/537 608/608 620/620
f 537/537 757/757 608/608
f 794/794 793/793 608/608
f 757/757 795/795 608/608
f 795/795 794/794 608/608
f 636/636 635/635 473/473
f 518/518 636/636 473/473
f 487/487 518/518 473/473
f 445/445 487/487 473/473
f 843/843 844/844 842/842
f 841/841 843/843 842/842
f 841/841 842/842 840/840
f 837/837 841/841 840/840
f 837/837 840/840 839/839
f 839/839 838/838 837/837
f 838/838 839/839 939/939
f 938/938 838/838 939/939
f 938/938 939/939 937/937
f 936/936 938/938 937/937
f 936/936 937/937 935/935
f 934/934 936/936 935/935
f 934/934 935/935 933/933
f 932/932 934/934 933/933
f 932/932 933/933 931/931
f 930/930 932/932 931/931
f 930/930 931/931 929/929
f 926/926 930/930 929/929
f 926/926 929/929 928/928
f 928/928 927/927 926/926
f 927/927 928/928 946/946
f 945/945 927/927 946/946
f 945/945 946/946 944/944
f 940/940 945/945 944/944
f 942/942 940/940 944/944
f 944/944 943/943 942/942
f 942/942 941/941 940/940
f 650/650 652/652 649/649
f 652/652 651/651 649/649
f 652/652 658/658 651/651
f 658/658 657/657 651/651
f 660/660 659/659 675/675
f 673/673 660/660 675/675
f 673/673 675/675 674/674
f 675/675 676/676 674/674
f 676/676 654/654 674/674
f 654/654 653/653 674/674
f 654/654 678/678 653/653
f 678/678 677/677 653/653
f 859/859 858/858 854/854
f 669/669 859/859 854/854
f 670/670 669/669 854/854
f 855/855 670/670 854/854
f 670/670 855/855 868/868
f 869/869 670/670 868/868
f 864/864 863/863 664/664
f 851/851 864/864 664/664
f 851/851 664/664 850/850
f 664/664 663/663 850/850
f 850/850 663/663 647/647
f 648/648 850/850 647/647
f 647/647 656/656 648/648
f 656/656 655/655 648/648
f 656/656 680/680 655/655
f 680/680 879/879 655/655
f 853/853 866/866 865/865
f 666/666 853/853 865/865
f 853/853 666/666 852/852
f 666/666 865/865 668/668
f 865/865 867/867 668/668
f 666/666 665/665 852/852
f 666/666 668/668 665/665
f 668/668 667/667 665/665
f 846/846 852/852 665/665
f 665/665 667/667 860/860
f 860/860 846/846 665/665
f 667/667 873/873 860/860
f 849/849 846/846 860/860
f 849/849 848/848 846/846
f 848/848 847/847 846/846
f 848/848 881/881 847/847
f 881/881 880/880 847/847
f 857/857 871/871 870/870
f 672/672 857/857 870/870
f 857/857 672/672 856/856
f 672/672 870/870 661/661
f 870/870 872/872 661/661
f 672/672 671/671 856/856
f 671/671 672/672 661/661
f 861/861 856/856 671/671
f 662/662 671/671 661/661
f 862/862 861/861 671/671
f 671/671 662/662 874/874
f 862/862 671/671 874/874
f 874/874 875/875 862/862
f 874/874 877/877 875/875
f 877/877 876/876 875/875
f 877/877 679/679 876/876
f 679/679 878/878 876/876
f 884/884 883/883 882/882
f 885/885 884/884 882/882
f 684/684 686/686 683/683
f 686/686 685/685 683/683
f 686/686 692/692 685/685
f 692/692 691/691 685/685
f 694/694 693/693 709/709
f 707/707 694/694 709/709
f 707/707 709/709 708/708
f 709/709 710/710 708/708
f 710/710 688/688 708/708
f 688/688 687/687 708/708
f 688/688 712/712 687/687
f 712/712 711/711 687/687
f 899/899 898/898 894/894
f 703/703 899/899 894/894
f 704/704 703/703 894/894
f 895/895 704/704 894/894
f 704/704 895/895 908/908
f 909/909 704/704 908/908
f 904/904 903/903 698/698
f 891/891 904/904 698/698
f 891/891 698/698 890/890
f 698/698 697/697 890/890
f 890/890 697/697 681/681
f 682/682 890/890 681/681
f 681/681 690/690 682/682
f 690/690 689/689 682/682
f 690/690 714/714 689/689
f 714/714 919/919 689/689
f 893/893 906/906 905/905
f 700/700 893/893 905/905
f 893/893 700/700 892/892
f 700/700 905/905 702/702
f 905/905 907/907 702/702
f 700/700 699/699 892/892
f 700/700 702/702 699/699
f 702/702 701/701 699/699
f 886/886 892/892 699/699
f 699/699 701/701 900/900
f 900/900 886/886 699/699
f 701/701 913/913 900/900
f 889/889 886/886 900/900
f 889/889 888/888 886/886
f 888/888 887/887 886/886
f 888/888 921/921 887/887
f 921/921 920/920 887/887
f 897/897 911/911 910/910
f 706/706 897/897 910/910
f 897/897 706/706 896/896
f 706/706 910/910 695/695
f 910/910 912/912 695/695
f 706/706 705/705 896/896
f 705/705 706/706 695/695
f 901/901 896/896 705/705
f 696/696 705/705 695/695
f 902/902 901/901 705/705
f 705/705 696/696 914/914
f 902/902 705/705 914/914
f 914/914 915/915 902/902
f 914/914 917/917 915/915
f 917/917 916/916 915/915
f 917/917 713/713 916/916
f 713/713 918/918 916/916
f 924/924 923/923 922/922
f 925/925 924/924 922/922