# https://github.com/mikedh/trimesh
mtllib material.mtl
usemtl material_0
v -0.00016404 -0.88460810 -0.03667446
v -0.00016404 -0.88460810 -0.03668346
v -0.00015441 -0.88460810 -0.03668346
v -0.00015441 -0.88460810 -0.03667446
v -0.00016404 -0.88460810 -0.03667446
v -0.00016404 -0.88460810 -0.03668346
v -0.00015441 -0.88460810 -0.03668346
v -0.00015441 -0.88460810 -0.03667446
v -0.00016404 -0.88460810 -0.03667446
v -0.00016404 -0.88460810 -0.03668346
v -0.00015441 -0.88460810 -0.03668346
v -0.00015441 -0.88460810 -0.03667446
v -0.03407769 -0.04724612 0.13857298
v -0.46583838 -0.04724612 0.13857424
v -0.46589257 -0.04809923 0.13332887
v -0.03402343 -0.04809923 0.13332761
v -0.46310481 -0.05008985 -0.07638030
v -0.03681243 -0.05008985 -0.07638154
v -0.03681243 -0.04907393 -0.07834174
v -0.03407768 -0.04486029 0.14230056
v -0.46583837 -0.04486029 0.14230182
v -0.03407767 -0.04128967 0.14479133
v -0.46583836 -0.04128967 0.14479259
v -0.03400585 -0.03556854 0.14577634
v -0.46583836 -0.04128967 0.14479259
v -0.03407767 -0.04128967 0.14479133
v -0.46591009 -0.03556854 0.14577760
v -0.46387803 0.03237023 0.15929511
v -0.03603792 0.03237023 0.15929386
v -0.46310481 -0.04907393 -0.07834050
v -0.03461029 0.03237023 -0.13223816
v -0.46530736 0.03237023 -0.13223690
v -0.47054583 -0.05635142 -0.07803511
v -0.47054521 -0.05635142 0.13417746
v -0.02937079 -0.05635142 0.13417617
v -0.02937141 -0.05635142 -0.07803640
v -0.02937142 -0.05382701 -0.08290765
v -0.47054584 -0.05382701 -0.08290636
v -0.02937160 0.03237023 -0.14173219
v -0.47054602 0.03237023 -0.14173090
v -0.02937073 -0.03707847 0.15429657
v -0.02937074 -0.04445359 0.15276499
v -0.47054516 -0.04445359 0.15276627
v -0.47054515 -0.03707786 0.15429786
v -0.47054512 0.03237023 0.16669647
v -0.02937070 0.03237023 0.16669519
v -0.02937074 -0.04445359 0.15276499
v -0.02937075 -0.05070635 0.14840345
v -0.47054517 -0.05070635 0.14840474
v -0.47054516 -0.04445359 0.15276627
v -0.47054519 -0.05488433 0.14187712
v -0.02937077 -0.05488433 0.14187583
v -0.46591009 -0.03556854 0.14577760
v -0.46387803 0.03237023 0.15929511
v -0.46077507 0.03237023 -0.07769935
v -0.46583836 -0.04128967 0.14479259
v -0.46583837 -0.04486029 0.14230182
v -0.46583838 -0.04724612 0.13857424
v -0.46589257 -0.04809923 0.13332887
v -0.46310481 -0.05008985 -0.07638030
v -0.46310481 -0.04907393 -0.07834050
v -0.46078102 0.03237023 -0.08197075
v -0.46530736 0.03237023 -0.13223690
v -0.03913606 0.03237023 -0.08197198
v -0.03681243 -0.04907393 -0.07834174
v -0.03461029 0.03237023 -0.13223816
v -0.03914190 0.03237023 -0.07770058
v -0.03681243 -0.05008985 -0.07638154
v -0.03402343 -0.04809923 0.13332761
v -0.03407769 -0.04724612 0.13857298
v -0.03407768 -0.04486029 0.14230056
v -0.03407767 -0.04128967 0.14479133
v -0.03400585 -0.03556854 0.14577634
v -0.03603792 0.03237023 0.15929386
v -0.47054584 0.03237023 -0.08290636
v -0.47054584 -0.05382701 -0.08290636
v -0.47054602 0.03237023 -0.14173090
v -0.47054583 0.03237023 -0.07803511
v -0.47054583 -0.05635142 -0.07803511
v -0.47054519 -0.05488433 0.14187712
v -0.47054521 -0.05635142 0.13417746
v -0.47054517 -0.05070635 0.14840474
v -0.47054516 -0.04445359 0.15276627
v -0.47054515 -0.03707786 0.15429786
v -0.47054512 0.03237023 0.16669647
v -0.02937073 -0.03707847 0.15429657
v -0.02937070 0.03237023 0.16669519
v -0.02937141 0.03237023 -0.07803640
v -0.02937074 -0.04445359 0.15276499
v -0.02937075 -0.05070635 0.14840345
v -0.02937077 -0.05488433 0.14187583
v -0.02937079 -0.05635142 0.13417617
v -0.02937141 -0.05635142 -0.07803640
v -0.02937142 -0.05382701 -0.08290765
v -0.02937142 0.03237023 -0.08290765
v -0.02937160 0.03237023 -0.14173219
v -0.00016404 -0.88460810 -0.03667446
v -0.00016404 -0.88460810 -0.03668346
v -0.00015441 -0.88460810 -0.03668346
v -0.00015441 -0.88460810 -0.03667446
v -0.00016404 -0.88460810 -0.03667446
v -0.00016404 -0.88460810 -0.03668346
v -0.00015441 -0.88460810 -0.03668346
v -0.00015441 -0.88460810 -0.03667446
v -0.00016404 -0.88460810 -0.03667446
v -0.00016404 -0.88460810 -0.03668346
v -0.00015441 -0.88460810 -0.03668346
v -0.00015441 -0.88460810 -0.03667446
v -0.00016404 -0.88460810 -0.03667446
v -0.00016404 -0.88460810 -0.03668346
v -0.00015441 -0.88460810 -0.03668346
v -0.00015441 -0.88460810 -0.03667446
v -0.46575244 0.04882967 -0.14312897
v -0.46321795 0.05336133 -0.14451048
v -0.03669976 0.05336133 -0.14451172
v -0.03416518 0.04882967 -0.14313023
v -0.46321705 0.05446744 0.16369168
v -0.03669886 0.05446744 0.16369043
v -0.02937068 0.05336133 0.17044253
v -0.47054510 0.05336133 0.17044382
v -0.47054506 0.05336133 0.18410594
v -0.02937064 0.05336133 0.18410465
v -0.46321795 0.05336133 -0.14451048
v -0.46018234 0.05336133 -0.08290639
v -0.47054584 0.05336133 -0.08290636
v -0.47054583 0.05336133 -0.07803511
v -0.46018233 0.05336133 -0.07803514
v -0.47054604 0.05336133 -0.15136063
v -0.03669976 0.05336133 -0.14451172
v -0.02937162 0.05336133 -0.15136192
v -0.03973492 0.05336133 -0.08290762
v -0.02937142 0.05336133 -0.08290765
v -0.03973491 0.05336133 -0.07803637
v -0.02937141 0.05336133 -0.07803640
v -0.47054604 0.04648100 -0.15136063
v -0.02937162 0.04648100 -0.15136192
v -0.02937162 0.05336133 -0.15136192
v -0.47054604 0.05336133 -0.15136063
v -0.46321705 0.05446744 0.16369168
v -0.46077507 0.03237023 -0.07769935
v -0.46387803 0.03237023 0.15929511
v -0.46018233 0.05336133 -0.07803514
v -0.46018234 0.05336133 -0.08290639
v -0.46078102 0.03237023 -0.08197075
v -0.46575244 0.04882967 -0.14312897
v -0.46530736 0.03237023 -0.13223690
v -0.46321795 0.05336133 -0.14451048
v -0.03416518 0.04882967 -0.14313023
v -0.03669976 0.05336133 -0.14451172
v -0.03973492 0.05336133 -0.08290762
v -0.03461029 0.03237023 -0.13223816
v -0.03913606 0.03237023 -0.08197198
v -0.03914190 0.03237023 -0.07770058
v -0.03973491 0.05336133 -0.07803637
v -0.03669886 0.05446744 0.16369043
v -0.03603792 0.03237023 0.15929386
v -0.46387803 0.03237023 0.15929511
v -0.03603792 0.03237023 0.15929386
v -0.03669886 0.05446744 0.16369043
v -0.46321705 0.05446744 0.16369168
v -0.03461029 0.03237023 -0.13223816
v -0.46530736 0.03237023 -0.13223690
v -0.02937160 0.03237023 -0.14173219
v -0.47054602 0.03237023 -0.14173090
v -0.47054508 0.03237023 0.18035833
v -0.47054506 0.05336133 0.18410594
v -0.02937064 0.05336133 0.18410465
v -0.02937066 0.03237023 0.18035704
v -0.47054604 0.04648100 -0.15136063
v -0.47054604 0.05336133 -0.15136063
v -0.47054584 0.05336133 -0.08290636
v -0.47054602 0.03237023 -0.14173090
v -0.47054584 0.03237023 -0.08290636
v -0.47054583 0.03237023 -0.07803511
v -0.47054583 0.05336133 -0.07803511
v -0.47054510 0.05336133 0.17044382
v -0.47054512 0.03237023 0.16669647
v -0.47054508 0.03237023 0.18035833
v -0.47054506 0.05336133 0.18410594
v -0.02937162 0.04648100 -0.15136192
v -0.02937160 0.03237023 -0.14173219
v -0.02937142 0.03237023 -0.08290765
v -0.02937142 0.05336133 -0.08290765
v -0.02937162 0.05336133 -0.15136192
v -0.02937141 0.05336133 -0.07803640
v -0.02937141 0.03237023 -0.07803640
v -0.02937070 0.03237023 0.16669519
v -0.02937068 0.05336133 0.17044253
v -0.02937064 0.05336133 0.18410465
v -0.02937066 0.03237023 0.18035704
v -0.47054512 0.03237023 0.16669647
v -0.47054508 0.03237023 0.18035833
v -0.02937066 0.03237023 0.18035704
v -0.02937070 0.03237023 0.16669519
vn 0.00000000 1.00000000 0.00000000
vn 0.00000000 1.00000000 0.00000000
vn 0.00000000 1.00000000 0.00000000
vn 0.00000000 1.00000000 0.00000000
vn 0.00000000 1.00000000 0.00000000
vn 0.00000000 1.00000000 0.00000000
vn 0.00000000 1.00000000 0.00000000
vn 0.00000000 1.00000000 0.00000000
vn 0.00000000 1.00000000 0.00000000
vn 0.00000000 1.00000000 0.00000000
vn 0.00000000 1.00000000 0.00000000
vn 0.00000000 1.00000000 0.00000000
vn -0.00000099 0.94082522 -0.33889217
vn -0.00000099 0.94082489 -0.33889310
vn -0.00000004 0.99991209 -0.01325915
vn -0.00000004 0.99991209 -0.01325911
vn -0.00000001 0.99998907 -0.00467619
vn -0.00000001 0.99998907 -0.00467619
vn 0.00000242 0.56065624 0.82804866
vn -0.00000202 0.72215210 -0.69173430
vn -0.00000202 0.72215210 -0.69173430
vn -0.00000274 0.34954517 -0.93691951
vn -0.00000274 0.34954591 -0.93691924
vn -0.00000287 0.19314820 -0.98116959
vn -0.00000274 0.34954591 -0.93691924
vn -0.00000274 0.34954517 -0.93691951
vn -0.00000287 0.19314810 -0.98116961
vn -0.00000286 0.19514071 -0.98077526
vn -0.00000286 0.19514071 -0.98077526
vn 0.00000242 0.56065624 0.82804866
vn 0.00000244 0.55186371 0.83393432
vn 0.00000244 0.55186364 0.83393436
vn -0.00000003 -0.99993239 -0.01162800
vn 0.00000002 -0.99997775 0.00667117
vn 0.00000002 -0.99997775 0.00667117
vn -0.00000003 -0.99993239 -0.01162800
vn -0.00000237 -0.58319547 -0.81233186
vn -0.00000237 -0.58319547 -0.81233186
vn -0.00000241 -0.56368800 -0.82598780
vn -0.00000241 -0.56368800 -0.82598780
vn 0.00000275 -0.17841711 0.98395495
vn 0.00000268 -0.39690348 0.91786035
vn 0.00000268 -0.39690348 0.91786035
vn 0.00000275 -0.17841711 0.98395495
vn 0.00000276 -0.17575099 0.98443465
vn 0.00000276 -0.17575099 0.98443465
vn 0.00000268 -0.39690348 0.91786035
vn 0.00000202 -0.72214393 0.69174283
vn 0.00000202 -0.72214393 0.69174283
vn 0.00000268 -0.39690348 0.91786035
vn 0.00000108 -0.92950520 0.36880900
vn 0.00000108 -0.92950520 0.36880900
vn 0.99949322 -0.02872395 0.01371998
vn 0.99948427 -0.02913653 0.01350012
vn 0.99948946 -0.02906227 0.01327383
vn 0.99949322 -0.02872395 0.01371997
vn 0.99949322 -0.02872395 0.01371998
vn 0.99949322 -0.02872395 0.01371997
vn 0.99949322 -0.02872395 0.01371998
vn 0.99949570 -0.02872238 0.01354118
vn 0.99755504 -0.03117865 -0.06254472
vn 0.99542677 -0.05234791 -0.07990767
vn 0.99391806 -0.06772184 -0.08683682
vn -0.99542759 -0.05234809 -0.07989735
vn -0.99755574 -0.03117615 -0.06253472
vn -0.99391886 -0.06772308 -0.08682670
vn -0.99948936 -0.02906365 0.01327899
vn -0.99949565 -0.02872191 0.01354632
vn -0.99949316 -0.02872351 0.01372511
vn -0.99949316 -0.02872351 0.01372511
vn -0.99949316 -0.02872350 0.01372511
vn -0.99949316 -0.02872351 0.01372511
vn -0.99949316 -0.02872351 0.01372511
vn -0.99948415 -0.02913825 0.01350527
vn -1.00000000 0.00000000 0.00000292
vn -1.00000000 0.00000000 0.00000292
vn -1.00000000 0.00000000 0.00000292
vn -1.00000000 -0.00000064 0.00000292
vn -1.00000000 -0.00000047 0.00000292
vn -1.00000000 -0.00000047 0.00000292
vn -1.00000000 -0.00000047 0.00000292
vn -1.00000000 -0.00000047 0.00000292
vn -1.00000000 -0.00000047 0.00000292
vn -1.00000000 -0.00000047 0.00000292
vn -1.00000000 -0.00000068 0.00000292
vn 1.00000000 0.00000000 -0.00000292
vn 1.00000000 0.00000000 -0.00000292
vn 1.00000000 0.00000000 -0.00000292
vn 1.00000000 0.00000000 -0.00000292
vn 1.00000000 0.00000000 -0.00000292
vn 1.00000000 0.00000000 -0.00000292
vn 1.00000000 0.00000000 -0.00000292
vn 1.00000000 0.00000000 -0.00000292
vn 1.00000000 0.00000000 -0.00000292
vn 1.00000000 0.00000000 -0.00000292
vn 1.00000000 0.00000000 -0.00000292
vn 0.00000000 1.00000000 0.00000000
vn 0.00000000 1.00000000 0.00000000
vn 0.00000000 1.00000000 0.00000000
vn 0.00000000 1.00000000 0.00000000
vn 0.00000000 1.00000000 0.00000000
vn 0.00000000 1.00000000 0.00000000
vn 0.00000000 1.00000000 0.00000000
vn 0.00000000 1.00000000 0.00000000
vn 0.00000000 1.00000000 0.00000000
vn 0.00000000 1.00000000 0.00000000
vn 0.00000000 1.00000000 0.00000000
vn 0.00000000 1.00000000 0.00000000
vn 0.00000000 1.00000000 0.00000000
vn 0.00000000 1.00000000 0.00000000
vn 0.00000000 1.00000000 0.00000000
vn 0.00000000 1.00000000 0.00000000
vn 0.00000250 0.51732931 0.85578641
vn 0.00000279 0.29159838 0.95654084
vn 0.00000279 0.29159838 0.95654084
vn 0.00000250 0.51732924 0.85578646
vn -0.02640532 0.99523634 0.09384767
vn 0.02640582 0.99523634 0.09384757
vn 0.00848553 0.99961546 0.02639936
vn -0.00848535 0.99961546 0.02639944
vn 0.00000000 1.00000000 0.00000000
vn 0.00000000 1.00000000 0.00000000
vn 0.00000000 1.00000000 0.00001118
vn 0.00000000 1.00000000 0.00000000
vn 0.00000000 1.00000000 0.00000000
vn -0.06196513 0.99807497 -0.00258445
vn -0.06195378 0.99807567 -0.00258398
vn 0.00000000 1.00000000 0.00001101
vn 0.00000000 1.00000000 0.00001118
vn 0.00000000 1.00000000 0.00001101
vn 0.00000000 1.00000000 0.00000000
vn 0.00000000 1.00000000 0.00000000
vn 0.06195359 0.99807569 -0.00258405
vn 0.06196493 0.99807498 -0.00258453
vn -0.00000265 -0.41697181 -0.90891942
vn -0.00000265 -0.41697181 -0.90891942
vn -0.00000292 0.00000000 -1.00000000
vn -0.00000292 0.00000000 -1.00000000
vn 0.99945803 -0.03029278 0.01288395
vn 0.99948946 -0.02906227 0.01327383
vn 0.99948427 -0.02913653 0.01350012
vn 0.99946231 -0.03025736 0.01263242
vn 0.99276154 -0.09074755 -0.07867274
vn 0.99542677 -0.05234791 -0.07990767
vn 0.99183739 -0.09543944 -0.08455715
vn 0.99391806 -0.06772184 -0.08683682
vn 0.99183739 -0.09543943 -0.08455716
vn -0.99183777 -0.09544320 -0.08454846
vn -0.99183777 -0.09544320 -0.08454845
vn -0.99276181 -0.09075204 -0.07866420
vn -0.99391886 -0.06772308 -0.08682670
vn -0.99542759 -0.05234809 -0.07989735
vn -0.99948936 -0.02906365 0.01327899
vn -0.99946201 -0.03026526 0.01263766
vn -0.99945773 -0.03030056 0.01288916
vn -0.99948415 -0.02913825 0.01350527
vn -0.00000286 0.19514071 -0.98077526
vn -0.00000286 0.19514071 -0.98077526
vn -0.00000286 0.19514010 -0.98077538
vn -0.00000286 0.19514010 -0.98077538
vn 0.00000244 0.55186371 0.83393432
vn 0.00000244 0.55186364 0.83393436
vn -0.00000241 -0.56368800 -0.82598780
vn -0.00000241 -0.56368800 -0.82598780
vn 0.00000288 -0.17575410 0.98443410
vn 0.00000288 -0.17575410 0.98443410
vn 0.00000288 -0.17575410 0.98443410
vn 0.00000288 -0.17575410 0.98443410
vn -1.00000000 0.00000000 0.00000292
vn -1.00000000 0.00000000 0.00000292
vn -1.00000000 0.00000000 0.00000292
vn -1.00000000 0.00000000 0.00000292
vn -1.00000000 0.00000000 0.00000292
vn -1.00000000 -0.00000064 0.00000292
vn -1.00000000 -0.00000135 0.00000292
vn -1.00000000 -0.00000128 0.00000292
vn -1.00000000 -0.00000068 0.00000292
vn -1.00000000 0.00000000 0.00000292
vn -1.00000000 0.00000000 0.00000292
vn 1.00000000 0.00000000 -0.00000292
vn 1.00000000 0.00000000 -0.00000292
vn 1.00000000 0.00000000 -0.00000292
vn 1.00000000 0.00000000 -0.00000292
vn 1.00000000 0.00000000 -0.00000292
vn 1.00000000 0.00000012 -0.00000292
vn 1.00000000 0.00000000 -0.00000292
vn 1.00000000 0.00000000 -0.00000292
vn 1.00000000 0.00000011 -0.00000292
vn 1.00000000 0.00000000 -0.00000292
vn 1.00000000 0.00000000 -0.00000292
vn 0.00000000 -1.00000000 0.00000000
vn 0.00000000 -1.00000000 0.00000000
vn 0.00000000 -1.00000000 0.00000000
vn 0.00000000 -1.00000000 0.00000000
vt -5.25307500 -117.71080000
vt -5.25307500 -115.99920000
vt -3.54152000 -115.99920000
vt -3.54152000 -117.71080000
vt 5.64693300 -121.22410000
vt 5.64693300 -119.51250000
vt 7.35848600 -119.51250000
vt 7.35848600 -121.22410000
vt -68.79395000 -112.22750000
vt -68.79394000 -112.22750000
vt -68.79394000 -112.22750000
vt -68.79395000 -112.22750000
vt -71.58265000 -1.02743800
vt -71.58265000 0.25550290
vt -71.56706000 0.25566400
vt -71.56706000 -1.02759900
vt -70.94392000 0.24737860
vt -70.94392000 -1.01931400
vt -70.93810000 -1.01931400
vt -71.59372000 -1.02743800
vt -71.59372000 0.25550290
vt -71.60113000 -1.02743800
vt -71.60113000 0.25550290
vt -71.34309000 -0.98530360
vt -71.32722000 0.21321560
vt -71.32722000 -0.98510400
vt -71.34309000 0.21341480
vt -71.53165000 0.20777500
vt -71.53165000 -0.97966350
vt -70.93810000 0.24737860
vt -70.77795000 -1.02585800
vt -70.77795000 0.25392270
vt -72.03885000 0.27681210
vt -71.40716000 0.27681210
vt -71.40716000 -1.03642500
vt -72.03885000 -1.03642500
vt -72.05335000 -1.03642500
vt -72.05335000 0.27681210
vt -72.22845000 -1.03642500
vt -72.22845000 0.27681210
vt -71.62250000 -0.99116490
vt -71.64294000 -0.99116490
vt -71.64294000 0.23155180
vt -71.62250000 0.23155180
vt -71.43002000 0.23155180
vt -71.43002000 -0.99116490
vt -71.35183000 -1.03642500
vt -71.36481000 -1.03642500
vt -71.36481000 0.27681210
vt -71.35183000 0.27681210
vt -71.38424000 0.27681210
vt -71.38424000 -1.03642500
vt -71.36441000 0.46072350
vt -71.17755000 0.49790180
vt -71.17755000 -0.15392300
vt -71.38014000 0.45801440
vt -71.38997000 0.45116370
vt -71.39653000 0.44091140
vt -71.39887000 0.42648460
vt -71.40435000 -0.15029500
vt -71.40155000 -0.15568630
vt -71.17755000 -0.16567090
vt -71.17755000 -0.30392180
vt -71.29288000 0.35969700
vt -71.51688000 0.34971250
vt -71.29288000 0.49794790
vt -71.29288000 0.34794910
vt -71.51968000 0.34432110
vt -71.51421000 -0.23245760
vt -71.51186000 -0.24688430
vt -71.50529000 -0.25713680
vt -71.49548000 -0.26398740
vt -71.47974000 -0.26669650
vt -71.29288000 -0.30387470
vt -70.92590000 0.37041330
vt -71.16286000 0.37041330
vt -70.92590000 0.53212940
vt -70.92590000 0.35702160
vt -71.16981000 0.35702160
vt -71.16577000 -0.24754480
vt -71.16981000 -0.22637740
vt -71.15429000 -0.26549020
vt -71.13710000 -0.27748040
vt -71.11682000 -0.28169100
vt -70.92590000 -0.31577650
vt -71.24045000 0.49804510
vt -71.04952000 0.53213070
vt -71.04952000 -0.14066940
vt -71.26072000 0.49383450
vt -71.27791000 0.48184390
vt -71.28940000 0.46389870
vt -71.29343000 0.44273130
vt -71.29343000 -0.14066940
vt -71.28649000 -0.15406090
vt -71.04952000 -0.15406090
vt -71.04952000 -0.31577770
vt -88.71478000 -110.74830000
vt -85.73376000 -110.74830000
vt -85.73376000 -113.93460000
vt -88.71478000 -113.93460000
vt -118.53910000 -109.61050000
vt -114.88680000 -109.61050000
vt -114.88680000 -113.51360000
vt -118.53910000 -113.51360000
vt -143.95530000 -107.93220000
vt -138.65240000 -107.93220000
vt -138.65240000 -113.63170000
vt -143.95530000 -113.63170000
vt -170.93040000 -111.15450000
vt -170.93030000 -111.15450000
vt -170.93030000 -111.15460000
vt -170.93040000 -111.15460000
vt -170.28490000 0.70849260
vt -170.27050000 0.70043550
vt -170.27050000 -0.65543530
vt -170.28490000 -0.66349230
vt -171.14850000 0.65913700
vt -171.14850000 -0.59830160
vt -171.16830000 -0.61990590
vt -171.16830000 0.68074130
vt -171.20860000 0.68074130
vt -171.20860000 -0.61990590
vt -170.23980000 0.65913700
vt -170.42140000 0.65018810
vt -170.42140000 0.68074130
vt -170.43580000 0.68074130
vt -170.43580000 0.65018810
vt -170.21960000 0.68074130
vt -170.23980000 -0.59830160
vt -170.21960000 -0.61990590
vt -170.42140000 -0.58935270
vt -170.42140000 -0.61990590
vt -170.43580000 -0.58935270
vt -170.43580000 -0.61990590
vt -170.42440000 0.72439320
vt -170.42440000 -0.66355780
vt -170.44600000 -0.66355780
vt -170.44600000 0.72439320
vt -170.11900000 0.93227010
vt -170.18410000 0.22088620
vt -170.18410000 0.91931330
vt -170.12220000 0.21989660
vt -170.12220000 0.20554090
vt -170.18410000 0.20829810
vt -170.13560000 0.02806352
vt -170.18410000 0.06016301
vt -170.12220000 0.02399252
vt -170.17740000 0.92828280
vt -170.16400000 0.93235480
vt -170.16400000 0.75077270
vt -170.22590000 0.89617780
vt -170.22590000 0.74801480
vt -170.22590000 0.73542470
vt -170.16400000 0.73641420
vt -170.16080000 0.02390775
vt -170.22590000 0.03686684
vt -170.22980000 0.65530920
vt -170.22980000 -0.61649810
vt -170.29550000 -0.61453320
vt -170.29550000 0.65334450
vt -170.33720000 -0.66207760
vt -170.33720000 0.70707790
vt -170.38000000 -0.66355780
vt -170.38000000 0.72439320
vt -170.40390000 0.68490370
vt -170.34160000 0.68490370
vt -170.34160000 -0.62406810
vt -170.40390000 -0.62406810
vt -170.21100000 0.43688600
vt -170.19070000 0.43688600
vt -170.19070000 0.23537260
vt -170.25250000 0.40853790
vt -170.25250000 0.23537260
vt -170.25250000 0.22103270
vt -170.19070000 0.22103270
vt -170.19070000 -0.51043020
vt -170.25250000 -0.49939890
vt -170.25250000 -0.53961610
vt -170.19070000 -0.55064830
vt -170.17070000 -0.55067460
vt -170.21220000 -0.52232510
vt -170.21220000 -0.34915060
vt -170.15040000 -0.34915060
vt -170.15040000 -0.55067460
vt -170.15040000 -0.33481000
vt -170.21220000 -0.33481000
vt -170.21220000 0.38566020
vt -170.15040000 0.39669220
vt -170.15040000 0.43691230
vt -170.21220000 0.42587960
vt -170.35860000 0.67965580
vt -170.31840000 0.67965580
vt -170.31840000 -0.61882040
vt -170.35860000 -0.61882040
f 3/3/3 2/2/2 1/1/1
f 4/4/4 3/3/3 1/1/1
f 7/7/7 6/6/6 5/5/5
f 8/8/8 7/7/7 5/5/5
f 11/11/11 10/10/10 9/9/9
f 12/12/12 11/11/11 9/9/9
f 15/15/15 14/14/14 13/13/13
f 16/16/16 15/15/15 13/13/13
f 15/15/15 16/16/16 17/17/17
f 16/16/16 18/18/18 17/17/17
f 17/17/17 18/18/18 19/19/19
f 14/14/14 21/21/21 20/20/20
f 13/13/13 14/14/14 20/20/20
f 21/21/21 23/23/23 22/22/22
f 20/20/20 21/21/21 22/22/22
f 26/26/26 25/25/25 24/24/24
f 25/25/25 27/27/27 24/24/24
f 27/27/27 28/28/28 24/24/24
f 28/28/28 29/29/29 24/24/24
f 30/30/30 17/17/17 19/19/19
f 30/30/30 19/19/19 31/31/31
f 32/32/32 30/30/30 31/31/31
f 35/35/35 34/34/34 33/33/33
f 36/36/36 35/35/35 33/33/33
f 36/36/36 33/33/33 37/37/37
f 33/33/33 38/38/38 37/37/37
f 37/37/37 38/38/38 39/39/39
f 38/38/38 40/40/40 39/39/39
f 43/43/43 42/42/42 41/41/41
f 44/44/44 43/43/43 41/41/41
f 44/44/44 41/41/41 45/45/45
f 41/41/41 46/46/46 45/45/45
f 49/49/49 48/48/48 47/47/47
f 50/50/50 49/49/49 47/47/47
f 49/49/49 51/51/51 48/48/48
f 51/51/51 52/52/52 48/48/48
f 51/51/51 34/34/34 52/52/52
f 34/34/34 35/35/35 52/52/52
f 55/55/55 54/54/54 53/53/53
f 55/55/55 53/53/53 56/56/56
f 55/55/55 56/56/56 57/57/57
f 55/55/55 57/57/57 58/58/58
f 55/55/55 58/58/58 59/59/59
f 59/59/59 60/60/60 55/55/55
f 60/60/60 61/61/61 55/55/55
f 61/61/61 62/62/62 55/55/55
f 61/61/61 63/63/63 62/62/62
f 66/66/66 65/65/65 64/64/64
f 64/64/64 65/65/65 67/67/67
f 65/65/65 68/68/68 67/67/67
f 67/67/67 68/68/68 69/69/69
f 69/69/69 70/70/70 67/67/67
f 70/70/70 71/71/71 67/67/67
f 71/71/71 72/72/72 67/67/67
f 72/72/72 73/73/73 67/67/67
f 73/73/73 74/74/74 67/67/67
f 77/77/77 76/76/76 75/75/75
f 75/75/75 76/76/76 78/78/78
f 76/76/76 79/79/79 78/78/78
f 80/80/80 78/78/78 79/79/79
f 79/79/79 81/81/81 80/80/80
f 80/80/80 82/82/82 78/78/78
f 82/82/82 83/83/83 78/78/78
f 83/83/83 84/84/84 78/78/78
f 84/84/84 85/85/85 78/78/78
f 88/88/88 87/87/87 86/86/86
f 88/88/88 86/86/86 89/89/89
f 88/88/88 89/89/89 90/90/90
f 88/88/88 90/90/90 91/91/91
f 88/88/88 91/91/91 92/92/92
f 92/92/92 93/93/93 88/88/88
f 93/93/93 94/94/94 88/88/88
f 94/94/94 95/95/95 88/88/88
f 95/95/95 94/94/94 96/96/96
f 99/99/99 98/98/98 97/97/97
f 100/100/100 99/99/99 97/97/97
f 103/103/103 102/102/102 101/101/101
f 104/104/104 103/103/103 101/101/101
f 107/107/107 106/106/106 105/105/105
f 108/108/108 107/107/107 105/105/105
f 111/111/111 110/110/110 109/109/109
f 112/112/112 111/111/111 109/109/109
f 115/115/115 114/114/114 113/113/113
f 116/116/116 115/115/115 113/113/113
f 119/119/119 118/118/118 117/117/117
f 120/120/120 119/119/119 117/117/117
f 120/120/120 121/121/121 119/119/119
f 121/121/121 122/122/122 119/119/119
f 125/125/125 124/124/124 123/123/123
f 125/125/125 126/126/126 124/124/124
f 126/126/126 127/127/127 124/124/124
f 128/128/128 125/125/125 123/123/123
f 128/128/128 123/123/123 129/129/129
f 130/130/130 128/128/128 129/129/129
f 130/130/130 129/129/129 131/131/131
f 132/132/132 130/130/130 131/131/131
f 132/132/132 131/131/131 133/133/133
f 134/134/134 132/132/132 133/133/133
f 134/134/134 133/133/133 118/118/118
f 119/119/119 134/134/134 118/118/118
f 120/120/120 117/117/117 127/127/127
f 126/126/126 120/120/120 127/127/127
f 137/137/137 136/136/136 135/135/135
f 138/138/138 137/137/137 135/135/135
f 141/141/141 140/140/140 139/139/139
f 140/140/140 142/142/142 139/139/139
f 142/142/142 140/140/140 143/143/143
f 140/140/140 144/144/144 143/143/143
f 145/145/145 143/143/143 144/144/144
f 144/144/144 146/146/146 145/145/145
f 145/145/145 147/147/147 143/143/143
f 150/150/150 149/149/149 148/148/148
f 150/150/150 148/148/148 151/151/151
f 151/151/151 152/152/152 150/150/150
f 152/152/152 153/153/153 150/150/150
f 153/153/153 154/154/154 150/150/150
f 154/154/154 153/153/153 155/155/155
f 153/153/153 156/156/156 155/155/155
f 159/159/159 158/158/158 157/157/157
f 160/160/160 159/159/159 157/157/157
f 162/162/162 161/161/161 116/116/116
f 113/113/113 162/162/162 116/116/116
f 135/135/135 136/136/136 163/163/163
f 164/164/164 135/135/135 163/163/163
f 167/167/167 166/166/166 165/165/165
f 168/168/168 167/167/167 165/165/165
f 171/171/171 170/170/170 169/169/169
f 171/171/171 169/169/169 172/172/172
f 172/172/172 173/173/173 171/171/171
f 171/171/171 173/173/173 174/174/174
f 175/175/175 171/171/171 174/174/174
f 175/175/175 174/174/174 176/176/176
f 174/174/174 177/177/177 176/176/176
f 177/177/177 178/178/178 176/176/176
f 178/178/178 179/179/179 176/176/176
f 182/182/182 181/181/181 180/180/180
f 180/180/180 183/183/183 182/182/182
f 180/180/180 184/184/184 183/183/183
f 183/183/183 185/185/185 182/182/182
f 185/185/185 186/186/186 182/182/182
f 187/187/187 186/186/186 185/185/185
f 188/188/188 187/187/187 185/185/185
f 188/188/188 189/189/189 187/187/187
f 189/189/189 190/190/190 187/187/187
f 193/193/193 192/192/192 191/191/191
f 194/194/194 193/193/193 191/191/191

