# Blender 4.0.0
# www.blender.org
o Tennis_Racquet_4_Cube.1755_0_collision_10
v -0.000990 -0.002316 0.001102
v -0.000990 -0.002316 0.001291
v 0.000000 -0.002316 0.001594
v -0.000990 -0.002140 0.001052
v -0.000990 -0.001962 0.001008
v 0.000000 -0.002285 0.001414
v -0.000672 -0.002316 0.001400
v -0.000845 -0.000691 0.001247
v -0.000990 -0.000691 0.001189
v -0.000990 -0.001838 0.001000
v 0.000000 -0.001833 0.001351
v 0.000000 -0.001974 0.001362
v -0.000213 -0.002316 0.001553
v -0.000386 -0.000691 0.001400
v -0.000990 -0.000691 0.000966
v -0.000104 -0.002316 0.001586
v -0.000003 -0.001108 0.001533
v -0.000230 -0.000691 0.001448
v 0.000000 -0.001680 0.001347
v 0.000000 -0.000726 0.001325
v 0.000000 -0.001068 0.001333
v 0.000000 -0.001298 0.001338
v -0.000077 -0.000691 0.001485
vn 0.0849 -0.9816 -0.1710
vn -0.0000 -1.0000 -0.0000
vn -1.0000 -0.0000 -0.0000
vn 0.2977 -0.2590 -0.9188
vn 0.3047 -0.2271 -0.9250
vn 1.0000 -0.0000 -0.0000
vn 0.9035 0.0243 0.4279
vn 0.7763 0.0655 -0.6270
vn 1.0000 0.0025 0.0004
vn -0.3237 0.0543 0.9446
vn -0.3708 0.0580 0.9269
vn -0.0738 0.0498 0.9960
vn 0.3337 -0.0659 -0.9404
vn 0.3346 -0.0767 -0.9392
vn 0.3307 -0.1546 -0.9310
vn -0.3158 0.0554 0.9472
vn -0.0580 -0.9806 0.1874
vn -0.0436 -0.9988 0.0225
vn -0.3156 0.0554 0.9473
vn -0.2457 0.0630 0.9673
vn 0.3341 -0.0277 -0.9421
vn 0.3396 -0.0223 -0.9403
vn -0.2893 0.0586 0.9555
vn -0.2931 0.0585 0.9543
vn 0.3402 -0.0215 -0.9401
vn 0.3402 -0.0216 -0.9401
vn 0.3401 -0.0217 -0.9401
vn -0.2345 0.0695 0.9696
vn 0.9998 0.0035 0.0209
vn -0.0962 -0.9809 0.1692
vn 0.8995 0.2034 0.3867
s 0
f 1//1 6//1 3//1
f 1//2 3//2 16//2
f 1//2 16//2 13//2
f 1//2 13//2 7//2
f 1//2 7//2 2//2
f 1//3 2//3 9//3
f 1//3 9//3 15//3
f 1//3 15//3 10//3
f 1//3 10//3 5//3
f 1//3 5//3 4//3
f 6//4 1//4 4//4
f 6//5 4//5 5//5
f 6//6 12//6 11//6
f 6//6 11//6 19//6
f 6//6 19//6 22//6
f 6//6 22//6 21//6
f 6//6 21//6 20//6
f 6//7 20//7 23//7
f 6//8 23//8 17//8
f 6//9 17//9 3//9
f 2//10 7//10 8//10
f 2//11 8//11 9//11
f 3//12 17//12 16//12
f 5//13 10//13 11//13
f 5//14 11//14 12//14
f 5//15 12//15 6//15
f 7//16 13//16 8//16
f 8//2 18//2 14//2
f 8//2 23//2 18//2
f 8//17 20//17 23//17
f 8//18 15//18 20//18
f 8//2 9//2 15//2
f 8//19 13//19 14//19
f 16//20 17//20 18//20
f 11//21 10//21 15//21
f 11//22 15//22 19//22
f 13//23 16//23 18//23
f 13//24 18//24 14//24
f 15//25 20//25 21//25
f 15//26 21//26 22//26
f 15//27 22//27 19//27
f 17//28 23//28 18//28
f 2//3 9//3 15//3
f 2//3 15//3 10//3
f 2//3 10//3 5//3
f 2//3 5//3 4//3
f 2//3 4//3 1//3
f 3//2 16//2 13//2
f 3//2 13//2 7//2
f 3//2 7//2 2//2
f 3//2 2//2 1//2
f 12//6 11//6 19//6
f 12//6 19//6 22//6
f 12//6 22//6 20//6
f 12//6 20//6 3//6
f 12//6 3//6 6//6
f 20//29 17//29 3//29
f 14//2 23//2 18//2
f 14//2 15//2 23//2
f 14//2 9//2 15//2
f 14//2 8//2 9//2
f 22//25 15//25 20//25
f 15//30 20//30 23//30
f 23//31 17//31 20//31
