# Blender 4.0.0
# www.blender.org
o decimated_mesh
v 0.000966 -0.000690 0.001199
v 0.000964 -0.000690 0.000995
v 0.000961 0.011493 0.001159
v 0.001324 -0.000690 0.000068
v 0.001105 0.011476 0.001098
v 0.001294 0.011495 -0.000000
v 0.001491 -0.000690 0.000073
v 0.001138 -0.000690 0.001101
v 0.001086 0.011597 0.001088
v 0.000962 0.011605 0.001117
v 0.000961 0.011611 0.000996
v 0.001230 0.011576 0.000754
v 0.001336 0.011606 -0.000000
v 0.001451 0.011495 -0.000000
v 0.001385 0.011577 0.000288
vn -0.9598 -0.0048 -0.2807
vn 0.0260 -0.0059 -0.9996
vn 0.3994 0.1379 0.9064
vn 0.9080 0.1735 0.3813
vn 0.0767 0.9960 0.0468
vn 0.4950 0.0015 0.8689
vn 0.1922 0.9791 0.0660
vn -0.8829 0.3306 -0.3336
vn 0.3894 0.0032 0.9211
vn -0.0000 -1.0000 -0.0000
vn -0.0001 -1.0000 -0.0000
vn -0.9484 -0.0002 -0.3171
vn -0.9320 -0.0043 -0.3624
vn -0.9011 0.3151 -0.2977
vn 0.9395 0.0010 0.3425
vn 0.9456 0.0026 0.3252
vn -0.0000 -0.0056 -1.0000
vn -0.0000 -0.0000 -1.0000
vn 0.2335 0.3410 0.9106
vn 0.0897 0.9955 0.0290
vn -1.0000 -0.0004 0.0088
vn -0.9999 0.0085 0.0062
vn -1.0000 -0.0002 -0.0002
vn 0.3301 0.9402 0.0836
vn 0.6906 0.7218 -0.0448
vn 0.0001 -1.0000 0.0001
vn 0.9393 0.0026 0.3430
vn 0.9746 0.0045 0.2241
vn 0.9493 0.0027 0.3144
vn 0.9456 0.0021 0.3252
vn 0.5338 0.8265 0.1787
vn 0.2248 0.9726 0.0598
s 0
f 7//1 12//1 14//1
f 14//2 7//2 4//2
f 3//3 5//3 9//3
f 9//4 5//4 12//4
f 11//5 10//5 9//5
f 8//6 5//6 1//6
f 13//7 12//7 15//7
f 13//8 6//8 11//8
f 3//9 1//9 5//9
f 7//10 8//10 2//10
f 8//10 1//10 2//10
f 2//11 4//11 7//11
f 2//12 11//12 6//12
f 4//13 2//13 6//13
f 14//14 12//14 15//14
f 12//15 5//15 7//15
f 5//16 8//16 7//16
f 4//17 6//17 14//17
f 6//18 13//18 14//18
f 9//19 10//19 3//19
f 9//20 13//20 11//20
f 1//21 3//21 2//21
f 3//22 10//22 11//22
f 11//23 2//23 3//23
f 13//24 9//24 12//24
f 14//25 13//25 15//25
f 2//11 7//11 1//11
f 7//26 8//26 1//26
f 8//27 12//27 5//27
f 14//28 15//28 7//28
f 15//29 12//29 7//29
f 12//30 8//30 7//30
f 15//31 9//31 12//31
f 15//32 13//32 9//32
