# Blender 4.0.0
# www.blender.org
o Tennis_Racquet_4_Cube.1755_0_collision_16
v -0.000086 -0.003483 -0.001734
v -0.000223 -0.003483 -0.001700
v 0.000086 -0.003483 -0.001734
v -0.000151 -0.003594 -0.001684
v 0.000223 -0.003483 -0.001700
v 0.000049 -0.003618 -0.001700
v -0.000076 -0.003732 -0.001476
v -0.000091 -0.003657 -0.001623
v -0.000230 -0.003652 -0.001594
v -0.000383 -0.003640 -0.001569
v -0.000508 -0.003619 -0.001548
v -0.000968 -0.003619 -0.001395
v -0.001071 -0.003594 -0.001378
v -0.000689 -0.003483 -0.001544
v 0.000151 -0.003594 -0.001684
v 0.000689 -0.003483 -0.001544
v 0.000508 -0.003619 -0.001548
v 0.000383 -0.003640 -0.001569
v 0.000230 -0.003652 -0.001594
v -0.000842 -0.003697 -0.001302
v -0.000383 -0.003697 -0.001455
v -0.001149 -0.003712 -0.001149
v -0.000842 -0.003640 -0.001415
v -0.001149 -0.003652 -0.001288
v -0.001258 -0.003631 -0.001258
v -0.001200 -0.003483 -0.001374
v 0.001071 -0.003594 -0.001378
v 0.000968 -0.003619 -0.001395
v 0.001149 -0.003483 -0.001391
v 0.000076 -0.003753 -0.001399
v 0.000383 -0.003697 -0.001455
v 0.000842 -0.003697 -0.001302
v 0.001149 -0.003712 -0.001149
v 0.000842 -0.003640 -0.001415
v -0.000076 -0.003771 -0.001302
v -0.000934 -0.003749 -0.001077
v -0.001399 -0.003753 -0.000076
v -0.001302 -0.003697 -0.000842
v -0.001288 -0.003652 -0.001149
v -0.000989 -0.003754 -0.000989
v -0.001078 -0.003749 -0.000934
v -0.001378 -0.003594 -0.001071
v -0.001313 -0.003483 -0.001278
v 0.001258 -0.003631 -0.001258
v 0.001149 -0.003652 -0.001288
v 0.001278 -0.003483 -0.001313
v 0.000934 -0.003749 -0.001077
v 0.001288 -0.003652 -0.001149
v 0.001302 -0.003697 -0.000842
v 0.001399 -0.003753 -0.000076
v 0.001078 -0.003749 -0.000934
v 0.000989 -0.003754 -0.000989
v -0.000076 -0.003795 -0.001149
v -0.000230 -0.003785 -0.001149
v -0.000842 -0.003766 -0.000995
v -0.001594 -0.003652 -0.000230
v -0.001455 -0.003697 -0.000383
v -0.001476 -0.003732 0.000076
v -0.001623 -0.003657 -0.000091
v -0.001569 -0.003640 -0.000383
v -0.001415 -0.003640 -0.000842
v -0.001395 -0.003619 -0.000968
v -0.000842 -0.003782 -0.000842
v -0.000995 -0.003766 -0.000842
v -0.001149 -0.003785 -0.000230
v -0.001684 -0.003594 -0.000151
v -0.001544 -0.003483 -0.000690
v -0.001392 -0.003483 -0.001147
v 0.001364 -0.003557 -0.001149
v 0.000842 -0.003766 -0.000995
v 0.000230 -0.003785 -0.001149
v 0.000076 -0.003795 -0.001149
v 0.001395 -0.003619 -0.000968
v 0.001415 -0.003640 -0.000842
v 0.001569 -0.003640 -0.000383
v 0.001455 -0.003697 -0.000383
v 0.001594 -0.003652 -0.000230
v 0.001623 -0.003657 -0.000091
v 0.001543 -0.003698 0.000000
v 0.001476 -0.003732 0.000076
v 0.001149 -0.003785 -0.000230
v 0.000995 -0.003766 -0.000842
v 0.000842 -0.003782 -0.000842
v -0.000076 -0.003805 -0.000995
v -0.000230 -0.003800 -0.000995
v -0.000383 -0.003792 -0.000995
v -0.001149 -0.003795 -0.000076
v -0.001302 -0.003771 0.000076
v -0.001078 -0.003749 0.000934
v -0.001149 -0.003712 0.001149
v -0.001455 -0.003697 0.000383
v -0.001594 -0.003652 0.000230
v -0.001623 -0.003657 0.000091
v -0.001302 -0.003697 0.000843
v -0.001548 -0.003619 -0.000509
v -0.000689 -0.003788 -0.000842
v -0.000842 -0.003788 -0.000690
v -0.000995 -0.003800 -0.000230
v -0.000995 -0.003792 -0.000383
v 0.001544 -0.003483 -0.000690
v 0.001684 -0.003594 -0.000151
v 0.000076 -0.003805 -0.000995
v 0.000383 -0.003792 -0.000995
v 0.000230 -0.003800 -0.000995
v 0.001548 -0.003619 -0.000509
v 0.001708 -0.003588 0.000000
v 0.001623 -0.003657 0.000091
v 0.001594 -0.003652 0.000230
v 0.001455 -0.003697 0.000383
v 0.001302 -0.003697 0.000843
v 0.001149 -0.003712 0.001149
v 0.001078 -0.003749 0.000934
v 0.001302 -0.003771 0.000076
v 0.001225 -0.003783 0.000000
v 0.001149 -0.003795 -0.000076
v 0.000842 -0.003788 -0.000690
v 0.000689 -0.003788 -0.000842
v 0.000995 -0.003792 -0.000383
v 0.000995 -0.003800 -0.000230
v -0.000076 -0.003829 -0.000076
v -0.000995 -0.003805 -0.000076
v -0.001149 -0.003795 0.000076
v -0.001149 -0.003785 0.000230
v -0.000995 -0.003766 0.000843
v -0.000989 -0.003754 0.000989
v -0.001149 -0.003652 0.001288
v -0.001258 -0.003631 0.001258
v -0.001288 -0.003652 0.001149
v -0.000934 -0.003749 0.001077
v -0.000076 -0.003732 0.001476
v -0.000842 -0.003697 0.001302
v -0.001569 -0.003640 0.000383
v -0.001548 -0.003619 0.000509
v -0.001684 -0.003594 0.000151
v -0.001415 -0.003640 0.000843
v -0.001734 -0.003483 -0.000087
v -0.001700 -0.003483 -0.000223
v 0.001698 -0.003483 -0.000230
v 0.000076 -0.003829 -0.000076
v 0.000995 -0.003805 -0.000076
v 0.001684 -0.003594 0.000151
v 0.001548 -0.003619 0.000509
v 0.001569 -0.003640 0.000383
v 0.001734 -0.003483 -0.000087
v 0.001415 -0.003640 0.000843
v 0.001288 -0.003652 0.001149
v 0.001258 -0.003631 0.001258
v 0.001149 -0.003652 0.001288
v 0.000842 -0.003697 0.001302
v 0.000076 -0.003732 0.001476
v 0.000934 -0.003749 0.001077
v 0.000989 -0.003754 0.000989
v 0.000995 -0.003766 0.000843
v 0.001149 -0.003785 0.000230
v 0.001149 -0.003795 0.000076
v -0.000076 -0.003829 0.000076
v -0.000995 -0.003805 0.000076
v -0.000995 -0.003800 0.000230
v -0.000995 -0.003792 0.000383
v -0.000842 -0.003782 0.000843
v -0.000842 -0.003766 0.000995
v -0.000842 -0.003640 0.001415
v -0.000968 -0.003619 0.001395
v -0.001313 -0.003483 0.001278
v -0.001378 -0.003594 0.001071
v -0.001149 -0.003557 0.001364
v -0.001395 -0.003619 0.000968
v -0.000230 -0.003785 0.001149
v -0.000076 -0.003771 0.001302
v -0.000091 -0.003657 0.001623
v -0.000230 -0.003652 0.001594
v -0.000383 -0.003697 0.001455
v -0.001700 -0.003483 0.000223
v -0.001544 -0.003483 0.000689
v -0.001734 -0.003483 0.000087
v 0.000076 -0.003829 0.000076
v 0.000995 -0.003805 0.000076
v 0.001698 -0.003483 0.000228
v 0.001395 -0.003619 0.000968
v 0.001734 -0.003483 0.000087
v 0.001071 -0.003594 0.001378
v 0.001364 -0.003557 0.001149
v 0.001278 -0.003483 0.001313
v 0.000968 -0.003619 0.001395
v 0.000842 -0.003640 0.001415
v 0.000383 -0.003697 0.001455
v 0.000230 -0.003652 0.001594
v 0.000049 -0.003618 0.001700
v 0.000076 -0.003771 0.001302
v 0.000230 -0.003785 0.001149
v 0.000842 -0.003766 0.000995
v 0.000842 -0.003782 0.000843
v 0.000995 -0.003792 0.000383
v 0.000995 -0.003800 0.000230
v -0.000076 -0.003805 0.000995
v -0.000230 -0.003800 0.000995
v -0.000689 -0.003788 0.000843
v -0.000842 -0.003788 0.000689
v -0.000383 -0.003792 0.000995
v -0.000076 -0.003795 0.001149
v -0.000383 -0.003640 0.001569
v -0.000508 -0.003619 0.001548
v -0.000151 -0.003594 0.001684
v -0.000223 -0.003483 0.001699
v -0.001391 -0.003483 0.001149
v 0.000076 -0.003805 0.000995
v 0.001544 -0.003483 0.000689
v 0.001149 -0.003483 0.001391
v 0.000228 -0.003483 0.001698
v 0.000151 -0.003594 0.001684
v 0.000508 -0.003619 0.001548
v 0.000383 -0.003640 0.001569
v 0.000076 -0.003795 0.001149
v 0.000383 -0.003792 0.000995
v 0.000230 -0.003800 0.000995
v 0.000689 -0.003788 0.000843
v 0.000842 -0.003788 0.000689
v -0.000086 -0.003483 0.001734
v 0.000086 -0.003483 0.001734
vn -0.2344 -0.2802 -0.9309
vn -0.0000 -1.0000 -0.0000
vn -0.3450 -0.9280 -0.1406
vn 0.0788 -0.9969 0.0032
vn -0.4140 -0.8912 0.1853
vn 0.1491 -0.9837 -0.1003
vn -0.1340 -0.9687 0.2091
vn 0.1449 -0.8710 -0.4694
vn -0.0000 -0.2453 -0.9695
vn -0.1150 -0.3497 -0.9298
vn -0.1416 -0.7549 -0.6404
vn 0.2331 -0.2979 -0.9257
vn 0.0289 -0.9117 -0.4099
vn 0.1105 -0.8820 -0.4581
vn -0.1611 -0.7596 -0.6301
vn -0.1898 -0.1798 -0.9652
vn -0.1803 -0.7675 -0.6152
vn -0.2653 -0.5431 -0.7966
vn -0.2670 -0.5361 -0.8008
vn -0.2997 -0.3196 -0.8989
vn -0.2996 -0.3182 -0.8994
vn 0.2066 -0.2637 -0.9422
vn 0.2996 -0.3182 -0.8994
vn 0.2554 -0.5759 -0.7766
vn 0.2294 -0.6776 -0.6987
vn 0.1494 -0.8398 -0.5220
vn -0.1300 -0.9119 -0.3893
vn -0.1307 -0.8914 -0.4340
vn -0.1258 -0.8896 -0.4391
vn -0.1180 -0.9361 -0.3313
vn -0.1399 -0.8858 -0.4424
vn -0.1476 -0.8848 -0.4419
vn -0.1477 -0.8847 -0.4421
vn -0.2272 -0.6970 -0.6801
vn -0.2295 -0.6874 -0.6890
vn -0.2264 -0.7570 -0.6129
vn -0.2812 -0.6763 -0.6808
vn -0.3097 -0.6533 -0.6908
vn -0.3003 -0.3181 -0.8992
vn 0.2997 -0.3196 -0.8989
vn 0.2670 -0.5361 -0.8008
vn 0.2653 -0.5431 -0.7966
vn 0.3002 -0.3186 -0.8991
vn 0.0723 -0.9082 -0.4123
vn 0.0925 -0.9124 -0.3986
vn 0.1099 -0.9380 -0.3288
vn 0.1082 -0.9437 -0.3125
vn 0.2295 -0.6875 -0.6890
vn 0.2272 -0.6970 -0.6801
vn 0.1477 -0.8847 -0.4421
vn 0.1476 -0.8848 -0.4419
vn 0.1399 -0.8858 -0.4424
vn -0.1513 -0.9061 -0.3950
vn -0.1503 -0.8844 -0.4419
vn -0.0203 -0.9750 -0.2214
vn -0.0828 -0.9718 -0.2207
vn -0.0887 -0.9684 -0.2333
vn -0.3125 -0.9437 -0.1082
vn -0.3950 -0.9061 -0.1513
vn -0.3847 -0.8826 -0.2702
vn -0.2702 -0.8826 -0.3847
vn -0.1244 -0.9831 -0.1342
vn -0.1339 -0.9831 -0.1247
vn -0.2306 -0.9689 -0.0901
vn -0.6908 -0.6533 -0.3097
vn -0.8174 -0.3618 -0.4483
vn -0.6110 -0.3219 -0.7232
vn -0.4130 -0.4524 -0.7904
vn 0.3097 -0.6533 -0.6908
vn 0.2812 -0.6763 -0.6808
vn 0.2264 -0.7570 -0.6129
vn 0.4679 -0.4222 -0.7764
vn 0.0899 -0.9690 -0.2301
vn 0.1503 -0.8844 -0.4419
vn 0.1513 -0.9061 -0.3950
vn 0.2702 -0.8826 -0.3847
vn 0.3847 -0.8826 -0.2702
vn 0.3950 -0.9061 -0.1513
vn 0.3125 -0.9437 -0.1082
vn 0.2306 -0.9689 -0.0901
vn 0.1339 -0.9831 -0.1247
vn 0.1244 -0.9831 -0.1342
vn -0.0613 -0.9868 -0.1500
vn -0.0658 -0.9858 -0.1543
vn 0.0162 -0.9860 -0.1660
vn -0.0000 -0.9886 -0.1502
vn -0.0639 -0.9889 -0.1341
vn -0.0853 -0.9902 -0.1102
vn -0.3985 -0.9125 -0.0925
vn -0.3288 -0.9380 -0.1099
vn -0.4581 -0.8820 -0.1106
vn -0.3919 -0.9200 -0.0000
vn -0.3831 -0.9166 -0.1147
vn -0.4419 -0.8848 -0.1476
vn -0.4421 -0.8847 -0.1477
vn -0.4419 -0.8844 -0.1503
vn -0.6116 -0.7583 -0.2258
vn -0.6811 -0.6756 -0.2821
vn -0.0850 -0.9915 -0.0987
vn -0.0987 -0.9915 -0.0850
vn -0.1098 -0.9903 -0.0853
vn -0.1336 -0.9890 -0.0638
vn -0.1694 -0.9833 -0.0672
vn -0.8024 -0.5335 -0.2676
vn -0.8986 -0.3205 -0.2997
vn -0.8989 -0.3194 -0.3001
vn -0.7784 -0.4195 -0.4671
vn 0.4483 -0.3618 -0.8174
vn 0.7793 -0.3056 -0.5470
vn 0.7404 -0.5953 -0.3122
vn 0.0853 -0.9902 -0.1102
vn 0.0639 -0.9889 -0.1341
vn 0.0672 -0.9833 -0.1693
vn 0.0612 -0.9843 -0.1658
vn 0.7357 -0.5916 -0.3297
vn 0.6116 -0.7583 -0.2258
vn 0.4419 -0.8844 -0.1503
vn 0.4421 -0.8847 -0.1477
vn 0.4419 -0.8848 -0.1476
vn 0.3288 -0.9380 -0.1099
vn 0.3985 -0.9125 -0.0925
vn 0.3831 -0.9166 -0.1147
vn 0.3870 -0.9193 -0.0714
vn 0.3862 -0.9198 -0.0695
vn 0.1694 -0.9833 -0.0672
vn 0.1336 -0.9890 -0.0638
vn 0.1098 -0.9903 -0.0853
vn 0.0987 -0.9915 -0.0850
vn 0.0850 -0.9915 -0.0987
vn -0.0351 -0.9971 -0.0671
vn -0.0472 -0.9957 -0.0792
vn -0.0544 -0.9941 -0.0936
vn -0.0565 -0.9935 -0.0989
vn -0.0616 -0.9903 -0.1245
vn -0.0000 -0.9977 -0.0672
vn -0.2214 -0.9750 0.0203
vn -0.1658 -0.9843 -0.0611
vn -0.1661 -0.9861 -0.0000
vn -0.1502 -0.9883 -0.0266
vn -0.2383 -0.9673 0.0872
vn -0.2206 -0.9716 0.0850
vn -0.4424 -0.8858 -0.1402
vn -0.6396 -0.7514 -0.1623
vn -0.4337 -0.8915 0.1307
vn -0.4392 -0.8896 0.1255
vn -0.3308 -0.9363 0.1179
vn -0.3896 -0.9118 0.1300
vn -0.6153 -0.7674 -0.1801
vn -0.9635 -0.1887 -0.1900
vn -0.7188 -0.6952 -0.0000
vn -0.6851 -0.6918 -0.2283
vn -0.6784 -0.6989 -0.2266
vn -0.8008 -0.5362 -0.2669
vn -0.0473 -0.9963 -0.0719
vn -0.0404 -0.9982 -0.0443
vn -0.0404 -0.9984 -0.0405
vn -0.0446 -0.9982 -0.0405
vn -0.0722 -0.9963 -0.0474
vn -0.0936 -0.9941 -0.0544
vn -0.0989 -0.9935 -0.0565
vn -0.1239 -0.9904 -0.0614
vn -0.8995 -0.3181 -0.2994
vn 0.8974 -0.3234 -0.3000
vn 0.8600 -0.4189 -0.2915
vn 0.0565 -0.9935 -0.0989
vn 0.0616 -0.9903 -0.1245
vn 0.0544 -0.9941 -0.0936
vn 0.0472 -0.9957 -0.0792
vn 0.0351 -0.9971 -0.0671
vn 0.8008 -0.5362 -0.2669
vn 0.6851 -0.6918 -0.2283
vn 0.6784 -0.6989 -0.2266
vn 0.4424 -0.8858 -0.1402
vn 0.9635 -0.1887 -0.1900
vn 0.6396 -0.7514 -0.1623
vn 0.4536 -0.8912 -0.0000
vn 0.6153 -0.7674 -0.1801
vn 0.6778 -0.7310 -0.0788
vn 0.6304 -0.7763 -0.0000
vn 0.4523 -0.8919 0.0014
vn 0.4392 -0.8896 0.1255
vn 0.4337 -0.8915 0.1307
vn 0.3896 -0.9118 0.1300
vn 0.3308 -0.9363 0.1179
vn 0.2206 -0.9716 0.0850
vn 0.2214 -0.9750 0.0203
vn 0.2383 -0.9673 0.0872
vn 0.1662 -0.9860 -0.0162
vn 0.1660 -0.9860 -0.0165
vn 0.1658 -0.9843 -0.0611
vn 0.1239 -0.9904 -0.0614
vn 0.0989 -0.9935 -0.0565
vn 0.0404 -0.9984 -0.0405
vn 0.0404 -0.9982 -0.0443
vn 0.0473 -0.9963 -0.0719
vn 0.0936 -0.9941 -0.0544
vn 0.0722 -0.9963 -0.0474
vn 0.0446 -0.9982 -0.0405
vn -0.0257 -0.9993 -0.0257
vn -0.0351 -0.9988 -0.0351
vn -0.0352 -0.9988 -0.0352
vn -0.0000 -0.9997 -0.0258
vn -0.0385 -0.9985 -0.0385
vn -0.0385 -0.9985 -0.0386
vn -0.0794 -0.9957 -0.0473
vn -0.0671 -0.9971 -0.0350
vn -0.0672 -0.9977 -0.0000
vn -0.1500 -0.9868 0.0612
vn -0.1544 -0.9858 0.0658
vn -0.1099 -0.9903 0.0855
vn -0.1339 -0.9831 0.1247
vn -0.1339 -0.9889 0.0639
vn -0.2702 -0.8826 0.3847
vn -0.3847 -0.8826 0.2702
vn -0.3950 -0.9061 0.1515
vn -0.1244 -0.9831 0.1342
vn -0.0871 -0.9674 0.2376
vn -0.0850 -0.9716 0.2207
vn -0.1180 -0.9361 0.3313
vn -0.1513 -0.9061 0.3950
vn -0.4424 -0.8858 0.1402
vn -0.4420 -0.8848 0.1475
vn -0.6396 -0.7514 0.1623
vn -0.9644 -0.1842 0.1899
vn -0.6152 -0.7675 0.1802
vn -0.4419 -0.8843 0.1505
vn -0.4421 -0.8847 0.1476
vn -0.9304 -0.2808 -0.2355
vn -0.9124 -0.4093 -0.0000
vn 0.8992 -0.3190 -0.2995
vn 0.0352 -0.9988 -0.0352
vn 0.0351 -0.9988 -0.0351
vn 0.0257 -0.9993 -0.0257
vn 0.0385 -0.9985 -0.0386
vn 0.0385 -0.9985 -0.0385
vn 0.6152 -0.7675 0.1802
vn 0.9644 -0.1842 0.1899
vn 0.6396 -0.7514 0.1623
vn 0.7897 -0.4941 0.3637
vn 0.8087 -0.5210 -0.2730
vn 0.9302 -0.2792 -0.2381
vn 0.9124 -0.4093 -0.0000
vn 0.9814 -0.1202 -0.1498
vn 0.4424 -0.8858 0.1402
vn 0.4420 -0.8848 0.1475
vn 0.4419 -0.8843 0.1505
vn 0.3950 -0.9061 0.1515
vn 0.4421 -0.8847 0.1476
vn 0.3847 -0.8826 0.2702
vn 0.2702 -0.8826 0.3847
vn 0.1513 -0.9061 0.3950
vn 0.1180 -0.9361 0.3313
vn 0.0850 -0.9716 0.2207
vn 0.0871 -0.9674 0.2376
vn 0.1244 -0.9831 0.1342
vn 0.1339 -0.9831 0.1247
vn 0.1099 -0.9903 0.0855
vn 0.1339 -0.9889 0.0639
vn 0.1544 -0.9858 0.0658
vn 0.1500 -0.9868 0.0612
vn 0.1502 -0.9886 0.0003
vn 0.1500 -0.9887 -0.0000
vn 0.0672 -0.9977 -0.0000
vn 0.0671 -0.9971 -0.0350
vn 0.0794 -0.9957 -0.0473
vn -0.0258 -0.9997 -0.0000
vn -0.0671 -0.9971 0.0350
vn -0.0794 -0.9957 0.0473
vn -0.0934 -0.9941 0.0543
vn -0.0989 -0.9935 0.0565
vn -0.1240 -0.9904 0.0614
vn -0.0987 -0.9915 0.0852
vn -0.0850 -0.9915 0.0989
vn -0.0853 -0.9902 0.1102
vn -0.1503 -0.8844 0.4419
vn -0.2264 -0.7570 0.6129
vn -0.3292 -0.5917 0.7359
vn -0.3122 -0.5953 0.7404
vn -0.8176 -0.3609 0.4486
vn -0.6908 -0.6533 0.3097
vn -0.5479 -0.3042 0.7792
vn -0.6811 -0.6756 0.2821
vn -0.6123 -0.7575 0.2263
vn -0.0639 -0.9889 0.1341
vn -0.0658 -0.9858 0.1543
vn -0.0000 -0.9752 0.2215
vn -0.1258 -0.8896 0.4391
vn -0.1307 -0.8914 0.4340
vn -0.1300 -0.9119 0.3893
vn -0.0000 -0.8918 0.4524
vn -0.1476 -0.8847 0.4421
vn -0.6805 -0.6966 0.2272
vn -0.6873 -0.6893 0.2289
vn -0.7981 -0.5407 0.2658
vn -0.8024 -0.5335 0.2676
vn -0.8989 -0.3196 0.2997
vn -0.8994 -0.3182 0.2996
vn -0.9304 -0.2808 0.2355
vn 0.0258 -0.9997 -0.0000
vn 0.9304 -0.2802 0.2365
vn 0.8985 -0.3203 0.3002
vn 0.8600 -0.4189 0.2915
vn 0.7981 -0.5407 0.2658
vn 0.6873 -0.6893 0.2289
vn 0.6805 -0.6966 0.2272
vn 0.6123 -0.7575 0.2263
vn 0.7357 -0.5916 0.3297
vn 0.7404 -0.5953 0.3122
vn 0.4335 -0.4016 0.8067
vn 0.3097 -0.6533 0.6908
vn 0.7793 -0.3056 0.5470
vn 0.4816 -0.3595 0.7992
vn 0.2812 -0.6763 0.6808
vn 0.2264 -0.7570 0.6129
vn 0.1503 -0.8844 0.4419
vn 0.1476 -0.8847 0.4421
vn 0.1300 -0.9119 0.3893
vn 0.1307 -0.8914 0.4340
vn 0.1053 -0.8816 0.4601
vn 0.0658 -0.9858 0.1543
vn 0.0639 -0.9889 0.1341
vn 0.0853 -0.9902 0.1102
vn 0.0850 -0.9915 0.0989
vn 0.0987 -0.9915 0.0852
vn 0.1240 -0.9904 0.0614
vn 0.0989 -0.9935 0.0565
vn 0.0934 -0.9941 0.0543
vn 0.0794 -0.9957 0.0473
vn 0.0671 -0.9971 0.0350
vn -0.0257 -0.9993 0.0257
vn -0.0000 -0.9997 0.0258
vn -0.0351 -0.9988 0.0351
vn -0.0352 -0.9988 0.0352
vn -0.0385 -0.9985 0.0385
vn -0.0387 -0.9985 0.0386
vn -0.0439 -0.9982 0.0403
vn -0.0723 -0.9963 0.0474
vn -0.0404 -0.9984 0.0403
vn -0.0404 -0.9982 0.0444
vn -0.0473 -0.9963 0.0721
vn -0.0542 -0.9942 0.0932
vn -0.0566 -0.9935 0.0991
vn -0.0616 -0.9903 0.1245
vn -0.1477 -0.8843 0.4430
vn -0.2272 -0.6956 0.6816
vn -0.2278 -0.6932 0.6838
vn -0.2669 -0.5355 0.8013
vn -0.2911 -0.4196 0.8598
vn -0.3000 -0.3185 0.8992
vn -0.7757 -0.4227 0.4687
vn -0.8991 -0.3186 0.3002
vn -0.0613 -0.9868 0.1500
vn -0.0000 -0.9886 0.1502
vn -0.1426 -0.7536 0.6416
vn -0.1805 -0.7661 0.6169
vn -0.1915 -0.2122 0.9583
vn -0.1642 -0.7439 0.6479
vn -0.1410 -0.8851 0.4434
vn 0.0257 -0.9993 0.0257
vn 0.0351 -0.9988 0.0351
vn 0.8969 -0.3256 0.2992
vn 0.2995 -0.3190 0.8992
vn 0.2669 -0.5354 0.8013
vn 0.2669 -0.5352 0.8014
vn 0.2997 -0.3183 0.8994
vn 0.2278 -0.6932 0.6838
vn 0.2272 -0.6956 0.6816
vn 0.1477 -0.8843 0.4430
vn 0.1410 -0.8851 0.4434
vn 0.1508 -0.8383 0.5239
vn 0.2277 -0.6836 0.6934
vn 0.2570 -0.5686 0.7814
vn 0.0613 -0.9868 0.1500
vn 0.0616 -0.9903 0.1245
vn 0.0566 -0.9935 0.0991
vn 0.0542 -0.9942 0.0932
vn 0.0473 -0.9963 0.0721
vn 0.0404 -0.9982 0.0444
vn 0.0404 -0.9984 0.0403
vn 0.0439 -0.9982 0.0403
vn 0.0723 -0.9963 0.0474
vn 0.0387 -0.9985 0.0386
vn 0.0385 -0.9985 0.0385
vn 0.0352 -0.9988 0.0352
vn -0.0351 -0.9971 0.0671
vn -0.0000 -0.9977 0.0672
vn -0.0472 -0.9957 0.0792
vn -0.2365 -0.2814 0.9300
vn -0.1038 -0.2172 0.9706
vn -0.0000 -0.4116 0.9114
vn 0.0351 -0.9971 0.0671
vn 0.2094 -0.2622 0.9420
vn 0.2367 -0.2986 0.9246
vn 0.0472 -0.9957 0.0792
vn -0.0000 1.0000 0.0011
vn -0.0000 1.0000 -0.0000
vn -0.1609 -0.7612 -0.6282
vn -0.2291 -0.6529 -0.7220
vn -0.1607 -0.7613 -0.6282
vn 0.2344 -0.2802 -0.9309
vn 0.2122 -0.2938 -0.9320
vn 0.0757 -0.9057 -0.4172
vn -0.0000 -0.8918 -0.4524
vn 0.0810 -0.9101 -0.4065
vn -0.8071 -0.4003 -0.4340
vn -0.8001 -0.3597 -0.4801
vn 0.4335 -0.4016 -0.8067
vn 0.4816 -0.3595 -0.7992
vn 0.7457 -0.5802 -0.3275
vn 0.7149 -0.6262 -0.3111
vn -0.3871 -0.9194 -0.0701
vn -0.3849 -0.9180 -0.0960
vn -0.1660 -0.9860 -0.0163
vn -0.7205 -0.6549 -0.2280
vn -0.6288 -0.7606 -0.1613
vn -0.6284 -0.7612 -0.1603
vn 0.9020 0.1946 -0.3854
vn 0.3849 -0.9180 -0.0960
vn -0.2207 -0.9718 0.0827
vn -0.2338 -0.9682 0.0889
vn -0.4524 -0.8918 -0.0000
vn -0.4268 -0.8959 -0.1231
vn -0.1502 -0.9887 -0.0000
vn -0.6284 -0.7612 0.1603
vn -0.6288 -0.7606 0.1613
vn -0.7212 -0.6539 0.2286
vn 0.9309 -0.3401 -0.1335
vn 0.6284 -0.7612 -0.1603
vn 0.6288 -0.7606 -0.1613
vn 0.7205 -0.6549 -0.2280
vn 0.4268 -0.8959 -0.1231
vn 0.2338 -0.9682 0.0889
vn 0.2207 -0.9718 0.0827
vn -0.0887 -0.9684 0.2333
vn -0.8067 -0.4016 0.4335
vn 0.9707 -0.2405 -0.0000
vn 0.9309 -0.3401 0.1335
vn 0.6778 -0.7310 0.0788
vn 0.6284 -0.7612 0.1603
vn 0.6288 -0.7606 0.1613
vn 0.0887 -0.9684 0.2333
vn -0.0828 -0.9718 0.2207
vn -0.3111 -0.6253 0.7157
vn -0.7990 -0.3585 0.4828
vn -0.3271 -0.5807 0.7455
vn 0.8987 -0.3201 0.2998
vn 0.8978 -0.3224 0.3000
vn 0.7212 -0.6539 0.2286
vn 0.7149 -0.6262 0.3111
vn 0.7457 -0.5802 0.3275
vn 0.0828 -0.9718 0.2207
vn -0.1610 -0.7598 0.6299
vn -0.1625 -0.7589 0.6306
vn -0.3467 0.2776 0.8960
vn 0.9020 0.1951 0.3852
vn 0.2669 -0.5353 0.8014
vn 0.2669 -0.5355 0.8013
vn 0.2278 -0.6937 0.6833
vn 0.2272 -0.6951 0.6821
vn 0.2153 -0.2944 0.9311
vn -0.0000 -0.2453 0.9695
vn -0.1167 -0.3512 0.9290
vn -0.2273 -0.6561 0.7196
vn 0.2380 -0.2805 0.9299
s 0
f 1//1 4//1 2//1
f 1//2 14//2 2//2
f 1//2 26//2 14//2
f 1//2 43//2 26//2
f 1//2 68//2 43//2
f 1//2 67//2 68//2
f 1//2 137//2 67//2
f 1//2 136//2 137//2
f 1//2 175//2 136//2
f 1//2 173//2 175//2
f 1//2 174//2 173//2
f 1//2 205//2 174//2
f 1//2 164//2 205//2
f 1//3 166//3 164//3
f 1//4 204//4 166//4
f 1//2 218//2 204//2
f 1//2 219//2 218//2
f 1//2 209//2 219//2
f 1//2 208//2 209//2
f 1//2 183//2 208//2
f 1//5 182//5 183//5
f 1//6 207//6 182//6
f 1//2 178//2 207//2
f 1//2 180//2 178//2
f 1//2 144//2 180//2
f 1//2 138//2 144//2
f 1//2 100//2 138//2
f 1//7 69//7 100//7
f 1//8 46//8 69//8
f 1//2 29//2 46//2
f 1//2 16//2 29//2
f 1//2 5//2 16//2
f 1//2 3//2 5//2
f 1//9 3//9 6//9
f 1//10 6//10 4//10
f 4//11 6//11 8//11
f 3//12 5//12 6//12
f 8//13 6//13 30//13
f 8//14 30//14 7//14
f 8//15 9//15 10//15
f 8//16 10//16 11//16
f 8//17 11//17 4//17
f 4//18 11//18 12//18
f 4//19 12//19 13//19
f 4//20 13//20 14//20
f 4//21 14//21 2//21
f 6//22 5//22 15//22
f 5//23 16//23 15//23
f 6//24 15//24 17//24
f 6//25 17//25 18//25
f 6//26 18//26 19//26
f 7//27 20//27 21//27
f 7//28 21//28 9//28
f 7//29 9//29 8//29
f 7//30 22//30 20//30
f 9//31 21//31 10//31
f 10//32 21//32 20//32
f 10//33 20//33 23//33
f 10//34 23//34 12//34
f 10//35 12//35 11//35
f 12//36 23//36 24//36
f 12//37 24//37 13//37
f 13//38 24//38 25//38
f 13//39 26//39 14//39
f 15//40 16//40 27//40
f 15//41 27//41 28//41
f 15//42 28//42 17//42
f 16//43 29//43 27//43
f 30//44 6//44 19//44
f 30//45 19//45 31//45
f 30//46 31//46 32//46
f 30//47 32//47 33//47
f 17//48 28//48 18//48
f 18//49 28//49 34//49
f 18//50 34//50 32//50
f 18//51 32//51 31//51
f 18//52 31//52 19//52
f 20//53 22//53 24//53
f 20//54 24//54 23//54
f 7//55 30//55 35//55
f 7//56 35//56 36//56
f 7//57 36//57 22//57
f 22//58 37//58 38//58
f 22//59 38//59 39//59
f 22//60 39//60 25//60
f 22//61 25//61 24//61
f 22//62 36//62 40//62
f 22//63 40//63 41//63
f 22//64 41//64 37//64
f 25//65 39//65 42//65
f 25//66 42//66 43//66
f 25//67 43//67 26//67
f 25//68 26//68 13//68
f 27//69 44//69 45//69
f 27//70 45//70 28//70
f 28//71 45//71 34//71
f 29//72 46//72 27//72
f 30//73 33//73 47//73
f 32//74 34//74 45//74
f 32//75 45//75 33//75
f 33//76 45//76 44//76
f 33//77 44//77 48//77
f 33//78 48//78 49//78
f 33//79 49//79 50//79
f 33//80 50//80 51//80
f 33//81 51//81 52//81
f 33//82 52//82 47//82
f 35//83 53//83 54//83
f 35//84 54//84 36//84
f 35//85 30//85 72//85
f 35//86 72//86 53//86
f 36//87 54//87 55//87
f 36//88 55//88 40//88
f 37//89 56//89 57//89
f 37//90 57//90 38//90
f 37//91 58//91 93//91
f 37//92 93//92 59//92
f 37//93 59//93 56//93
f 38//94 57//94 60//94
f 38//95 60//95 61//95
f 38//96 61//96 39//96
f 39//97 61//97 62//97
f 39//98 62//98 42//98
f 40//99 55//99 63//99
f 40//100 63//100 64//100
f 40//101 64//101 41//101
f 41//102 64//102 65//102
f 41//103 65//103 37//103
f 42//104 62//104 66//104
f 42//105 66//105 67//105
f 42//106 67//106 68//106
f 42//107 68//107 43//107
f 27//108 46//108 44//108
f 44//109 46//109 69//109
f 44//110 69//110 48//110
f 47//111 52//111 70//111
f 47//112 70//112 71//112
f 47//113 71//113 30//113
f 30//114 71//114 72//114
f 48//115 69//115 73//115
f 48//116 73//116 74//116
f 48//117 74//117 49//117
f 49//118 74//118 75//118
f 49//119 75//119 76//119
f 49//120 76//120 50//120
f 50//121 76//121 77//121
f 50//122 77//122 78//122
f 50//123 78//123 79//123
f 50//124 79//124 80//124
f 51//125 50//125 81//125
f 51//126 81//126 82//126
f 51//127 82//127 52//127
f 52//128 82//128 83//128
f 52//129 83//129 70//129
f 53//130 84//130 85//130
f 53//131 85//131 86//131
f 53//132 86//132 63//132
f 53//133 63//133 55//133
f 53//134 55//134 54//134
f 53//135 72//135 102//135
f 53//135 102//135 84//135
f 37//136 88//136 58//136
f 37//137 65//137 87//137
f 37//138 87//138 122//138
f 37//139 122//139 88//139
f 88//140 89//140 90//140
f 88//141 90//141 58//141
f 56//142 60//142 57//142
f 56//143 59//143 60//143
f 58//144 91//144 92//144
f 58//145 92//145 93//145
f 58//146 90//146 94//146
f 58//147 94//147 91//147
f 59//148 66//148 95//148
f 59//149 95//149 60//149
f 59//150 93//150 134//150
f 59//150 134//150 66//150
f 60//151 95//151 62//151
f 60//152 62//152 61//152
f 62//153 95//153 66//153
f 63//154 86//154 85//154
f 63//155 85//155 96//155
f 63//156 96//156 97//156
f 63//157 97//157 98//157
f 63//158 98//158 99//158
f 63//159 99//159 87//159
f 63//160 87//160 64//160
f 64//161 87//161 65//161
f 66//162 137//162 67//162
f 69//163 100//163 101//163
f 69//164 101//164 73//164
f 70//165 83//165 72//165
f 70//166 72//166 71//166
f 72//167 83//167 103//167
f 72//168 103//168 104//168
f 72//169 104//169 102//169
f 73//170 101//170 105//170
f 73//171 105//171 75//171
f 73//172 75//172 74//172
f 75//173 77//173 76//173
f 75//174 105//174 78//174
f 75//175 78//175 77//175
f 78//176 107//176 79//176
f 78//177 105//177 101//177
f 78//178 101//178 106//178
f 78//179 106//179 107//179
f 79//180 107//180 80//180
f 80//181 107//181 108//181
f 80//182 108//182 109//182
f 80//183 109//183 110//183
f 80//184 110//184 111//184
f 80//185 111//185 113//185
f 80//186 113//186 50//186
f 113//187 111//187 112//187
f 50//188 113//188 114//188
f 50//189 114//189 115//189
f 50//190 115//190 81//190
f 81//191 115//191 82//191
f 82//192 115//192 83//192
f 83//193 116//193 117//193
f 83//194 117//194 104//194
f 83//195 104//195 103//195
f 83//196 115//196 118//196
f 83//197 118//197 119//197
f 83//198 119//198 116//198
f 84//199 120//199 121//199
f 84//200 121//200 98//200
f 84//201 98//201 85//201
f 84//202 102//202 139//202
f 84//202 139//202 120//202
f 85//203 98//203 97//203
f 85//204 97//204 96//204
f 87//205 99//205 98//205
f 87//206 98//206 121//206
f 87//207 121//207 157//207
f 87//207 157//207 122//207
f 88//208 122//208 123//208
f 88//209 123//209 89//209
f 89//210 124//210 125//210
f 89//211 125//211 90//211
f 89//212 123//212 124//212
f 90//213 126//213 127//213
f 90//214 127//214 128//214
f 90//215 128//215 94//215
f 90//216 125//216 129//216
f 90//217 129//217 169//217
f 90//218 169//218 130//218
f 90//219 130//219 131//219
f 90//220 131//220 126//220
f 91//221 132//221 92//221
f 91//222 94//222 132//222
f 92//223 132//223 93//223
f 93//224 132//224 133//224
f 93//225 133//225 134//225
f 94//226 128//226 135//226
f 94//227 135//227 132//227
f 66//228 136//228 137//228
f 66//229 134//229 175//229
f 66//229 175//229 136//229
f 100//230 138//230 101//230
f 102//231 104//231 119//231
f 102//232 119//232 140//232
f 102//233 140//233 139//233
f 104//234 117//234 116//234
f 104//235 116//235 119//235
f 107//236 141//236 142//236
f 107//237 142//237 143//237
f 107//238 143//238 108//238
f 107//239 106//239 180//239
f 107//240 180//240 141//240
f 101//241 138//241 144//241
f 101//242 144//242 180//242
f 101//243 180//243 106//243
f 108//244 143//244 109//244
f 109//245 143//245 110//245
f 110//246 145//246 146//246
f 110//247 146//247 111//247
f 110//248 143//248 145//248
f 111//249 146//249 147//249
f 111//250 147//250 148//250
f 111//251 148//251 149//251
f 111//252 149//252 150//252
f 111//253 150//253 189//253
f 111//254 189//254 151//254
f 111//255 151//255 152//255
f 111//256 152//256 112//256
f 112//257 152//257 153//257
f 112//258 153//258 154//258
f 112//259 154//259 113//259
f 113//260 154//260 155//260
f 113//261 155//261 114//261
f 114//262 155//262 115//262
f 115//263 155//263 177//263
f 115//263 177//263 140//263
f 115//264 140//264 119//264
f 115//265 119//265 118//265
f 120//266 156//266 157//266
f 120//266 157//266 121//266
f 120//2 139//2 176//2
f 120//2 176//2 156//2
f 122//267 157//267 158//267
f 122//268 158//268 159//268
f 122//269 159//269 160//269
f 122//270 160//270 124//270
f 122//271 124//271 123//271
f 124//272 160//272 125//272
f 125//273 160//273 161//273
f 125//274 161//274 129//274
f 126//275 131//275 162//275
f 126//276 162//276 163//276
f 126//277 163//277 166//277
f 126//278 166//278 127//278
f 127//279 164//279 165//279
f 127//280 165//280 128//280
f 127//281 166//281 164//281
f 128//282 165//282 167//282
f 128//283 167//283 135//283
f 129//284 161//284 168//284
f 129//285 168//285 169//285
f 169//286 189//286 150//286
f 169//286 150//286 130//286
f 130//287 170//287 171//287
f 130//288 171//288 172//288
f 130//289 172//289 131//289
f 130//290 150//290 188//290
f 130//290 188//290 170//290
f 131//291 172//291 162//291
f 132//292 135//292 167//292
f 132//293 167//293 133//293
f 133//294 167//294 134//294
f 134//295 167//295 165//295
f 134//296 165//296 174//296
f 134//297 174//297 173//297
f 134//298 173//298 175//298
f 139//299 140//299 177//299
f 139//299 177//299 176//299
f 141//300 180//300 178//300
f 141//301 178//301 182//301
f 141//302 182//302 179//302
f 141//303 179//303 142//303
f 142//304 179//304 143//304
f 143//305 179//305 145//305
f 145//306 179//306 146//306
f 146//307 179//307 182//307
f 146//308 182//308 147//308
f 147//309 208//309 181//309
f 147//310 181//310 148//310
f 147//311 182//311 183//311
f 147//312 183//312 208//312
f 148//313 181//313 184//313
f 148//314 184//314 185//314
f 148//315 185//315 149//315
f 149//316 185//316 186//316
f 149//317 186//317 150//317
f 150//318 186//318 187//318
f 150//319 187//319 188//319
f 151//320 189//320 190//320
f 151//321 190//321 191//321
f 151//322 191//322 152//322
f 152//323 191//323 192//323
f 152//324 192//324 153//324
f 153//325 155//325 154//325
f 153//326 192//326 155//326
f 155//327 192//327 193//327
f 155//328 193//328 194//328
f 155//329 194//329 177//329
f 156//330 195//330 157//330
f 156//331 176//331 206//331
f 156//331 206//331 195//331
f 157//332 195//332 158//332
f 158//333 195//333 196//333
f 158//334 196//334 197//334
f 158//335 197//335 198//335
f 158//336 198//336 160//336
f 158//337 160//337 159//337
f 160//338 198//338 197//338
f 160//339 197//339 196//339
f 160//340 196//340 199//340
f 160//341 199//341 200//341
f 160//342 200//342 161//342
f 161//343 200//343 168//343
f 162//344 172//344 201//344
f 162//345 201//345 163//345
f 163//346 201//346 202//346
f 163//347 202//347 203//347
f 163//348 203//348 166//348
f 166//349 203//349 204//349
f 164//350 205//350 165//350
f 165//351 205//351 174//351
f 168//352 200//352 169//352
f 169//353 200//353 213//353
f 169//353 213//353 189//353
f 170//354 188//354 203//354
f 170//355 203//355 202//355
f 170//356 202//356 201//356
f 170//357 201//357 171//357
f 171//358 201//358 172//358
f 176//359 177//359 206//359
f 177//360 194//360 206//360
f 178//361 207//361 182//361
f 181//362 209//362 210//362
f 181//363 210//363 211//363
f 181//364 211//364 184//364
f 181//365 208//365 209//365
f 184//366 211//366 212//366
f 184//367 212//367 185//367
f 185//368 212//368 186//368
f 186//369 212//369 187//369
f 187//370 212//370 188//370
f 188//371 212//371 211//371
f 188//372 211//372 210//372
f 189//373 213//373 190//373
f 190//374 213//374 191//374
f 191//375 213//375 192//375
f 192//376 213//376 214//376
f 192//377 214//377 215//377
f 192//378 215//378 216//378
f 192//379 216//379 217//379
f 192//380 217//380 194//380
f 192//381 194//381 193//381
f 194//382 217//382 216//382
f 194//383 216//383 215//383
f 194//384 215//384 206//384
f 195//385 200//385 196//385
f 195//386 206//386 213//386
f 195//386 213//386 200//386
f 196//387 200//387 199//387
f 204//388 203//388 218//388
f 203//389 188//389 219//389
f 203//390 219//390 218//390
f 206//391 215//391 213//391
f 210//392 209//392 188//392
f 188//393 209//393 219//393
f 213//394 215//394 214//394
f 2//395 14//395 26//395
f 2//396 26//396 43//396
f 2//396 43//396 68//396
f 2//396 68//396 67//396
f 2//396 67//396 137//396
f 2//396 137//396 136//396
f 2//396 136//396 175//396
f 2//396 175//396 173//396
f 2//396 173//396 174//396
f 2//396 174//396 205//396
f 2//396 205//396 164//396
f 2//396 164//396 204//396
f 2//396 204//396 218//396
f 2//396 218//396 219//396
f 2//396 219//396 209//396
f 2//396 209//396 208//396
f 2//396 208//396 183//396
f 2//396 183//396 207//396
f 2//396 207//396 178//396
f 2//396 178//396 180//396
f 2//396 180//396 144//396
f 2//396 144//396 138//396
f 2//396 138//396 100//396
f 2//396 100//396 46//396
f 2//396 46//396 29//396
f 2//396 29//396 16//396
f 2//396 16//396 5//396
f 2//396 5//396 3//396
f 2//396 3//396 1//396
f 9//397 10//397 4//397
f 10//398 11//398 4//398
f 8//399 9//399 4//399
f 5//400 15//400 3//400
f 15//401 6//401 3//401
f 19//402 7//402 6//402
f 7//403 8//403 6//403
f 30//404 7//404 19//404
f 42//405 68//405 25//405
f 68//406 43//406 25//406
f 29//407 44//407 27//407
f 46//408 44//408 29//408
f 69//409 73//409 44//409
f 73//410 48//410 44//410
f 58//411 59//411 37//411
f 59//412 57//412 37//412
f 87//413 88//413 37//413
f 134//229 175//229 136//229
f 134//229 136//229 66//229
f 95//414 60//414 66//414
f 60//415 56//415 66//415
f 56//416 59//416 66//416
f 100//417 69//417 46//417
f 76//418 78//418 50//418
f 88//419 89//419 58//419
f 89//420 90//420 58//420
f 93//421 59//421 58//421
f 56//422 57//422 59//422
f 122//423 88//423 87//423
f 121//207 157//207 122//207
f 121//207 122//207 87//207
f 93//424 92//424 134//424
f 92//425 132//425 134//425
f 132//426 133//426 134//426
f 144//427 106//427 101//427
f 78//428 77//428 101//428
f 77//429 75//429 101//429
f 75//430 105//430 101//430
f 77//431 78//431 76//431
f 111//432 112//432 80//432
f 112//433 113//433 80//433
f 155//263 177//263 140//263
f 155//263 140//263 115//263
f 156//266 157//266 121//266
f 156//266 121//266 120//266
f 129//434 130//434 90//434
f 127//435 205//435 165//435
f 180//436 106//436 144//436
f 180//437 141//437 106//437
f 141//438 107//438 106//438
f 141//439 108//439 107//439
f 141//440 143//440 108//440
f 150//441 151//441 111//441
f 169//442 130//442 129//442
f 150//290 170//290 130//290
f 163//443 127//443 126//443
f 164//444 205//444 127//444
f 163//445 166//445 127//445
f 178//446 207//446 141//446
f 207//447 182//447 141//447
f 142//448 143//448 141//448
f 179//449 147//449 146//449
f 179//450 182//450 147//450
f 188//290 170//290 150//290
f 189//451 151//451 150//451
f 200//353 213//353 189//353
f 200//353 189//353 169//353
f 203//452 171//452 170//452
f 203//453 201//453 171//453
f 166//454 204//454 164//454
f 183//455 182//455 207//455
f 210//456 184//456 181//456
f 210//457 211//457 184//457
f 211//458 212//458 185//458
f 211//459 185//459 184//459
f 210//460 219//460 188//460
f 219//461 218//461 188//461
f 218//462 203//462 188//462
f 202//463 201//463 203//463
f 219//464 210//464 209//464
