# Blender 4.0.0
# www.blender.org
o decimated_mesh
v -0.600297 0.660983 -0.203617
v -0.599818 0.687905 -0.203658
v -0.590632 0.651486 -0.201990
v 0.600528 0.687102 -0.203762
v 0.600302 0.660536 -0.203493
v -0.600348 0.648256 -0.193272
v 0.591502 0.651749 -0.201832
v -0.606065 0.673923 -0.190882
v -0.601469 0.699404 -0.193228
v -0.591079 0.697412 -0.201854
v -0.591112 0.645184 -0.184797
v 0.594526 0.646560 -0.191768
v -0.604746 0.656373 -0.184812
v -0.604746 0.692357 -0.184812
v -0.594939 0.702023 -0.192298
v 0.591296 0.696926 -0.202212
v 0.600957 0.699521 -0.193433
v 0.601069 0.648786 -0.192585
v -0.594900 0.646705 0.170513
v -0.604746 0.656373 0.163021
v -0.605984 0.675221 0.169698
v -0.604746 0.692357 0.163021
v 0.593225 0.702877 -0.190864
v 0.604756 0.692357 -0.184812
v 0.606209 0.673922 -0.189696
v 0.604756 0.656373 -0.184812
v 0.593142 0.645867 0.169189
v -0.601415 0.649367 0.171557
v -0.601569 0.699336 0.171203
v -0.591113 0.703546 0.162998
v 0.604756 0.692357 0.163021
v 0.600469 0.700492 0.171326
v 0.606056 0.673302 0.169105
v 0.602088 0.649844 0.171256
v -0.590865 0.651422 0.180270
v -0.599930 0.660695 0.181754
v -0.599864 0.688059 0.181830
v -0.591304 0.696859 0.180282
v -0.593705 0.700624 0.173741
v 0.591760 0.703366 0.163907
v 0.600242 0.687943 0.181849
v 0.591293 0.651798 0.180419
v -0.592655 0.673003 0.183488
v 0.591011 0.697328 0.179969
v 0.599768 0.661282 0.182074
vn -0.0001 -0.0015 -1.0000
vn 0.0002 0.1966 0.9805
vn -0.4385 -0.5658 -0.6983
vn -0.4644 0.5575 -0.6881
vn -0.9417 0.1417 -0.3053
vn 0.0008 0.9388 0.3445
vn -0.9358 -0.2200 -0.2753
vn 0.9531 0.1491 0.2635
vn -0.2592 0.8247 -0.5027
vn -0.0009 -0.9374 -0.3483
vn 0.4738 0.5534 -0.6850
vn 0.4610 -0.5874 -0.6652
vn 0.2226 -0.8376 -0.4988
vn -0.9978 -0.0657 0.0005
vn 0.2092 0.8509 -0.4818
vn -0.8793 -0.4764 -0.0000
vn 0.9468 0.1858 -0.2628
vn -0.3723 0.9281 0.0001
vn 0.9861 -0.1664 0.0043
vn -0.9504 -0.1630 -0.2648
vn 0.9456 -0.1860 -0.2669
vn 0.9977 0.0682 0.0005
vn -0.9068 0.4215 -0.0002
vn -0.9974 0.0721 -0.0000
vn 0.0013 0.0084 1.0000
vn -0.2561 -0.8245 0.5045
vn -0.4600 -0.5600 0.6891
vn -0.9432 -0.1452 0.2987
vn 0.9042 -0.0125 0.4268
vn -0.9378 0.1522 0.3120
vn -0.4630 0.5698 0.6789
vn -0.3061 0.7722 0.5568
vn -0.2224 0.9530 0.2056
vn -0.0001 0.9649 0.2625
vn 0.0002 1.0000 -0.0014
vn 0.9375 0.2135 0.2748
vn -0.3780 -0.9258 0.0017
vn 0.8847 0.4662 -0.0000
vn -0.0001 -0.1475 0.9891
vn 0.0002 0.8856 -0.4645
vn 0.2596 -0.8356 0.4841
vn 0.0002 -0.8842 0.4670
vn 0.4408 0.5721 0.6917
vn 0.9233 -0.0117 -0.3839
vn 0.9337 -0.1272 0.3348
vn 0.4809 -0.5490 0.6836
vn 0.0011 -1.0000 -0.0019
vn -0.9048 0.0155 -0.4255
vn 0.0002 -0.1860 -0.9825
vn -0.0002 0.1866 -0.9824
vn 0.0001 -0.0101 -0.9999
vn -0.0000 0.1732 0.9849
vn -0.8932 0.0009 0.4496
vn -0.0009 -0.9405 -0.3399
vn -0.0002 0.8667 0.4989
vn 0.4059 -0.9139 0.0015
vn 0.3219 -0.9468 -0.0006
vn 0.9533 -0.1516 -0.2611
vn 0.0003 -0.8888 -0.4583
vn -0.0000 0.1095 0.9940
vn -0.9972 -0.0749 -0.0000
vn 0.9000 -0.4360 -0.0013
vn -0.9025 -0.4307 -0.0013
vn -0.3735 0.9276 -0.0000
vn -0.9573 0.1499 -0.2473
vn 0.9966 -0.0824 0.0003
vn -0.9566 -0.1511 0.2492
vn 0.9969 0.0786 -0.0000
vn -0.9101 0.4143 -0.0000
vn 0.3976 0.9175 -0.0019
vn 0.3134 0.9496 -0.0000
vn -0.2284 -0.0021 0.9736
vn -0.9975 0.0714 -0.0000
vn 0.0008 0.9328 0.3604
vn -0.0007 1.0000 -0.0043
vn -0.9586 0.1608 0.2350
vn -0.3161 -0.9487 0.0007
vn 0.9569 0.1425 -0.2530
vn 0.8835 0.4684 -0.0001
vn -0.0005 -0.1714 0.9852
vn 0.0121 -0.1465 0.9891
vn -0.0001 0.9006 -0.4347
vn -0.0001 -0.9003 0.4353
vn -0.0007 -1.0000 0.0043
vn -0.0000 -0.1688 -0.9857
vn -0.0000 0.1559 -0.9878
vn 0.0088 0.9359 0.3522
vn -0.8797 -0.4755 -0.0011
vn -0.9031 -0.4294 -0.0000
vn -0.9974 0.0720 -0.0000
vn -0.3735 0.9276 0.0001
vn -0.3723 0.9281 -0.0000
vn 0.0008 0.9360 0.3519
vn -0.0001 -0.1718 0.9851
vn -0.0002 -0.1394 0.9902
vn -0.0002 -0.1582 0.9874
s 0
f 4//1 1//1 2//1
f 38//2 41//2 44//2
f 3//3 6//3 1//3
f 2//4 9//4 10//4
f 2//5 8//5 9//5
f 39//6 44//6 32//6
f 6//7 13//7 1//7
f 33//8 31//8 41//8
f 9//9 15//9 10//9
f 3//10 12//10 6//10
f 4//11 16//11 17//11
f 5//12 18//12 7//12
f 7//13 18//13 12//13
f 8//14 20//14 21//14
f 16//15 23//15 17//15
f 6//16 20//16 13//16
f 17//17 24//17 4//17
f 15//18 9//18 29//18
f 26//19 33//19 34//19
f 13//20 8//20 1//20
f 5//21 26//21 18//21
f 25//22 31//22 33//22
f 14//23 29//23 9//23
f 14//24 21//24 22//24
f 43//25 45//25 41//25
f 19//26 35//26 28//26
f 28//27 35//27 36//27
f 21//28 28//28 36//28
f 33//29 41//29 45//29
f 21//30 37//30 29//30
f 29//31 37//31 38//31
f 29//32 38//32 39//32
f 29//33 39//33 30//33
f 40//34 30//34 39//34
f 23//35 30//35 40//35
f 31//36 32//36 41//36
f 19//37 28//37 6//37
f 24//38 32//38 31//38
f 42//39 43//39 35//39
f 10//40 23//40 16//40
f 27//41 34//41 42//41
f 35//42 27//42 42//42
f 32//43 44//43 41//43
f 5//44 4//44 25//44
f 33//45 45//45 34//45
f 34//46 45//46 42//46
f 27//47 11//47 12//47
f 1//48 8//48 2//48
f 3//49 5//49 7//49
f 16//50 2//50 10//50
f 4//51 5//51 1//51
f 38//52 37//52 41//52
f 21//53 36//53 37//53
f 12//54 11//54 6//54
f 39//55 38//55 44//55
f 34//56 27//56 18//56
f 27//57 12//57 18//57
f 26//58 5//58 25//58
f 3//59 7//59 12//59
f 37//60 43//60 41//60
f 8//61 13//61 20//61
f 18//62 26//62 34//62
f 6//63 28//63 20//63
f 30//64 15//64 29//64
f 14//65 9//65 8//65
f 26//66 25//66 33//66
f 20//67 28//67 21//67
f 25//68 24//68 31//68
f 14//69 22//69 29//69
f 17//70 23//70 32//70
f 23//71 40//71 32//71
f 37//72 36//72 43//72
f 14//73 8//73 21//73
f 39//74 32//74 40//74
f 23//75 15//75 30//75
f 21//76 29//76 22//76
f 11//77 19//77 6//77
f 24//78 25//78 4//78
f 24//79 17//79 32//79
f 45//80 43//80 42//80
f 43//81 36//81 35//81
f 10//82 15//82 23//82
f 35//83 19//83 27//83
f 27//84 19//84 11//84
f 3//85 1//85 5//85
f 4//86 2//86 16//86
f 40//87 44//87 32//87
f 28//88 13//88 6//88
f 28//89 20//89 13//89
f 21//90 22//90 8//90
f 22//73 14//73 8//73
f 29//91 30//91 9//91
f 30//92 15//92 9//92
f 39//93 44//93 40//93
f 35//94 42//94 45//94
f 43//95 36//95 45//95
f 36//96 35//96 45//96
