# Blender 4.0.0
# www.blender.org
o decimated_mesh
v -0.238797 0.158854 -0.007521
v -0.225866 0.159900 -0.120944
v -0.253375 0.159666 -0.007517
v -0.226067 0.157192 -0.131965
v -0.253184 0.159199 -0.127636
v -0.235830 0.153108 -0.007517
v -0.258596 0.156858 -0.007517
v -0.257708 0.157575 -0.126486
v -0.256598 0.156484 -0.132035
v -0.235823 -0.086514 -0.007517
v -0.259339 0.152835 -0.126974
v -0.259567 -0.086514 -0.007517
v -0.226067 -0.086514 -0.108739
v -0.259098 -0.086514 -0.127718
v -0.256771 -0.086514 -0.132233
v -0.226067 -0.086514 -0.132527
vn -0.4738 0.8806 0.0018
vn -1.0000 -0.0010 -0.0039
vn -0.0000 -1.0000 -0.0000
vn 0.9954 -0.0000 0.0959
vn -0.0247 0.9997 -0.0039
vn -0.3828 0.8890 -0.2514
vn -0.9079 0.3379 -0.2480
vn 0.0023 0.0008 -1.0000
vn 0.0001 0.0008 1.0000
vn -0.3386 0.9409 -0.0042
vn -1.0000 0.0040 0.0061
vn -0.9998 0.0017 0.0178
vn -1.0000 -0.0000 -0.0000
vn 0.0337 0.9704 -0.2390
vn 0.9961 0.0035 0.0877
vn 0.0556 0.9983 0.0155
vn 0.8836 0.4564 0.1049
vn -0.9454 0.3258 -0.0051
vn -0.0096 0.0023 -1.0000
vn 0.0002 -0.0005 1.0000
vn -0.0000 -0.0000 -1.0000
vn -0.8889 0.0005 -0.4582
vn -0.8796 0.0010 -0.4757
vn -0.0187 0.8573 -0.5145
vn -1.0000 0.0008 -0.0000
vn -0.9998 -0.0000 0.0182
vn 0.0023 0.0023 -1.0000
vn -0.0096 0.0008 -1.0000
s 0
f 3//1 8//1 7//1
f 12//2 11//2 14//2
f 13//3 14//3 15//3
f 13//4 6//4 10//4
f 2//5 5//5 3//5
f 5//6 9//6 8//6
f 8//7 9//7 11//7
f 4//8 15//8 9//8
f 6//9 1//9 7//9
f 3//10 5//10 8//10
f 12//11 7//11 11//11
f 15//3 16//3 13//3
f 13//3 10//3 12//3
f 12//3 14//3 13//3
f 2//12 4//12 13//12
f 13//13 4//13 16//13
f 2//14 4//14 5//14
f 13//15 2//15 6//15
f 3//16 1//16 2//16
f 1//17 6//17 2//17
f 7//18 8//18 11//18
f 4//19 16//19 15//19
f 1//20 3//20 7//20
f 7//21 6//21 12//21
f 12//21 6//21 10//21
f 14//22 11//22 15//22
f 11//23 9//23 15//23
f 4//24 9//24 5//24
f 12//21 7//21 10//21
f 10//21 7//21 6//21
f 14//3 16//3 12//3
f 16//3 13//3 10//3
f 16//3 10//3 12//3
f 13//25 2//25 16//25
f 16//26 2//26 4//26
f 4//27 16//27 9//27
f 16//28 15//28 9//28
f 16//3 14//3 15//3
