# Blender 4.0.0
# www.blender.org
o decimated_mesh
v -0.226064 -0.086514 -0.132527
v 0.000047 -0.086514 -0.132527
v -0.226064 -0.086514 -0.108741
v 0.000047 -0.086514 -0.108769
v 0.000047 0.158405 -0.110014
v 0.000047 0.157684 -0.131435
v -0.226058 0.159631 -0.111069
v -0.226064 0.157198 -0.131917
vn -0.0046 0.0095 0.9999
vn -0.0000 -1.0000 -0.0000
vn 1.0000 -0.0000 -0.0000
vn 0.0021 0.0045 -1.0000
vn -0.0019 0.9933 -0.1159
vn 0.0001 0.0051 1.0000
vn -1.0000 -0.0000 -0.0000
vn -1.0000 -0.0000 0.0002
vn -0.0000 0.0025 -1.0000
vn 0.0056 0.9994 -0.0336
vn -1.0000 -0.0000 0.0003
s 0
f 3//1 5//1 7//1
f 1//2 4//2 3//2
f 5//3 4//3 6//3
f 2//4 8//4 6//4
f 7//5 6//5 8//5
f 3//6 4//6 5//6
f 1//2 2//2 4//2
f 4//3 2//3 6//3
f 8//7 1//7 3//7
f 3//8 7//8 8//8
f 2//9 1//9 8//9
f 7//10 5//10 6//10
f 3//7 7//7 1//7
f 7//11 8//11 1//11
f 2//2 4//2 3//2
f 2//2 3//2 1//2
f 6//3 5//3 2//3
f 5//3 4//3 2//3
