# Blender 4.0.0
# www.blender.org
o decimated_mesh
v 0.263844 0.175350 0.120566
v 0.267681 0.173282 0.125337
v 0.269272 0.173781 0.112890
v 0.264241 0.175302 0.111088
v 0.267524 0.173533 0.106936
v -0.264172 0.175569 0.112364
v -0.264230 0.174875 0.121986
v -0.267337 0.172968 0.125985
v 0.267272 0.167093 0.130877
v 0.273143 0.167343 0.125459
v 0.273484 0.169414 0.120505
v 0.273262 0.170048 0.111744
v 0.253348 0.159640 0.082458
v -0.267866 0.173920 0.107937
v -0.268992 0.173687 0.120176
v 0.274810 0.164006 0.121986
v 0.273589 0.167343 0.106913
v 0.258761 0.156811 0.082455
v -0.253338 0.159640 0.082458
v -0.273314 0.170049 0.111923
v -0.273816 0.167705 0.124234
v -0.267369 0.167080 0.130815
v 0.275489 0.164012 0.112427
v -0.273596 0.167341 0.106944
v -0.257813 0.157716 0.082458
v 0.267125 -0.128142 0.130709
v 0.275144 -0.124738 0.120595
v 0.259549 -0.113856 0.082458
v -0.275523 0.163794 0.112386
v -0.259539 0.153106 0.082458
v 0.275295 -0.124756 0.111088
v 0.273274 -0.129984 0.121832
v 0.273944 -0.129786 0.113224
v 0.273062 -0.128061 0.125569
v 0.273511 -0.128363 0.106939
v 0.257823 -0.118436 0.082458
v -0.259539 -0.113856 0.082458
v -0.275113 -0.124620 0.120774
v 0.267746 -0.134114 0.124975
v 0.270119 -0.134083 0.112237
v 0.267657 -0.134260 0.107024
v -0.275285 -0.124756 0.111088
v -0.273873 -0.128624 0.107807
v -0.273569 -0.129818 0.121213
v -0.272988 -0.128117 0.125591
v -0.267119 -0.127921 0.130772
v 0.263869 -0.136082 0.120579
v 0.253348 -0.120359 0.082458
v 0.264241 -0.136083 0.111088
v -0.267446 -0.134368 0.106972
v -0.270331 -0.133881 0.112050
v -0.257813 -0.118436 0.082458
v -0.267387 -0.133826 0.125594
v -0.264230 -0.136083 0.111088
v -0.253338 -0.120359 0.082458
v -0.268925 -0.134498 0.119912
v -0.264134 -0.135954 0.120706
vn -0.0004 0.9372 -0.3488
vn 0.5626 0.5305 0.6341
vn 0.6947 0.6454 0.3178
vn -0.0000 -0.8682 -0.4962
vn -0.5979 0.8006 -0.0397
vn 0.6330 0.7432 -0.2168
vn 0.3310 0.9338 -0.1361
vn -0.0003 0.8723 -0.4890
vn 0.6362 -0.7627 0.1166
vn -0.3090 0.9291 0.2030
vn -0.0001 0.6342 0.7732
vn -0.7143 0.0012 0.6998
vn 0.9423 0.2809 0.1824
vn 0.6749 0.6624 -0.3252
vn 0.5747 0.5653 -0.5918
vn 0.3664 0.7020 -0.6107
vn -0.0001 -0.0001 1.0000
vn -0.0000 -0.0000 1.0000
vn 0.6881 0.7247 0.0350
vn -0.6499 0.7093 0.2729
vn -0.5873 0.5152 0.6242
vn -0.0002 -0.6593 0.7519
vn 0.3199 -0.9474 0.0126
vn 0.9356 0.3314 -0.1222
vn -0.6919 0.6499 -0.3145
vn -0.5626 0.5790 -0.5902
vn 0.3159 -0.7350 -0.5999
vn 0.9226 -0.0008 0.3857
vn -0.9386 0.3224 -0.1224
vn -0.7523 0.2816 -0.5956
vn 0.9381 0.3463 0.0013
vn 0.9645 0.2552 0.0687
vn 0.8546 0.0025 -0.5192
vn 0.9368 -0.2866 0.2007
vn -0.9589 -0.2830 0.0210
vn -0.9186 -0.0003 -0.3952
vn 0.7513 -0.2831 -0.5962
vn 0.9188 -0.0003 -0.3948
vn 0.9999 -0.0007 0.0159
vn -0.9151 -0.0007 0.4033
vn 0.5523 -0.5467 0.6294
vn 0.9410 -0.3101 -0.1350
vn 0.6815 -0.6343 0.3650
vn 0.5664 -0.5708 -0.5944
vn -0.3174 0.7385 -0.5949
vn 0.7544 -0.6271 -0.1940
vn 0.6757 -0.6750 -0.2961
vn 0.7414 -0.6697 0.0423
vn 0.9673 -0.2531 0.0158
vn -0.9389 -0.2598 0.2257
vn 0.6545 -0.0008 0.7561
vn 0.0005 1.0000 -0.0050
vn -0.0001 0.9175 0.3978
vn -0.8703 -0.0006 -0.4925
vn 0.3420 -0.9307 -0.1298
vn -0.6562 -0.6895 -0.3066
vn -0.6703 -0.6573 0.3445
vn -0.5481 -0.5373 0.6410
vn -0.2931 -0.9559 0.0157
vn -0.7419 0.6636 0.0961
vn -0.5785 -0.5611 -0.5920
vn -0.3529 -0.9290 -0.1114
vn -0.3155 -0.7342 -0.6012
vn -0.6483 -0.7156 0.2602
vn -0.3147 -0.9289 0.1951
vn -0.0002 -0.9999 0.0134
vn 0.0002 -0.9125 -0.4090
vn -0.7542 -0.2842 -0.5920
vn -0.0001 -0.9169 0.3992
vn -0.2657 0.9617 0.0678
vn -0.0001 0.9199 -0.3921
vn 0.9447 -0.3212 0.0661
vn 0.0002 -0.8703 -0.4926
vn -0.0000 0.8697 -0.4936
vn 0.2870 0.9579 0.0072
vn 0.0005 0.6670 0.7451
vn -0.6618 -0.0007 0.7497
vn 0.0001 -0.0006 1.0000
vn 0.0007 -0.0000 1.0000
vn 0.6129 0.7825 0.1097
vn 0.0005 -0.6925 0.7214
vn -0.3892 0.9210 -0.0182
vn -0.9899 0.0027 0.1418
vn 0.9015 -0.0001 0.4328
vn 0.9975 0.0008 0.0709
vn 0.8686 -0.0003 -0.4956
vn -0.9416 -0.3365 -0.0087
vn -0.9428 0.0007 -0.3335
vn 0.9456 0.0009 -0.3253
vn -0.9998 -0.0009 0.0178
vn -0.8164 -0.5766 -0.0329
vn 0.3874 0.9179 0.0863
vn 0.6782 0.0001 0.7349
vn 0.0003 0.9026 0.4306
vn -0.0007 0.9974 0.0720
vn -0.6985 -0.7123 0.0690
vn -0.8672 -0.0000 -0.4979
vn -0.3412 -0.9399 -0.0128
vn -0.9420 0.3346 0.0253
vn -0.0000 -1.0000 0.0001
vn -0.0000 -0.9231 -0.3846
vn 0.3874 -0.9193 0.0699
vn -0.0000 -0.9127 0.4086
vn -0.0000 0.9027 0.4304
vn 0.0002 0.9176 0.3976
vn -0.0000 -0.0012 1.0000
s 0
f 4//1 14//1 6//1
f 10//2 2//2 9//2
f 2//3 10//3 11//3
f 48//4 50//4 55//4
f 20//5 15//5 14//5
f 3//6 12//6 5//6
f 3//7 5//7 4//7
f 5//8 19//8 14//8
f 40//9 32//9 39//9
f 7//10 15//10 8//10
f 9//11 8//11 22//11
f 45//12 22//12 21//12
f 10//13 16//13 11//13
f 12//14 17//14 5//14
f 5//15 17//15 18//15
f 5//16 18//16 13//16
f 9//17 22//17 46//17
f 55//18 19//18 30//18
f 3//19 11//19 12//19
f 15//20 21//20 8//20
f 22//21 8//21 21//21
f 53//22 26//22 46//22
f 49//23 40//23 47//23
f 12//24 23//24 17//24
f 14//25 24//25 20//25
f 14//26 25//26 24//26
f 41//27 48//27 36//27
f 16//28 34//28 27//28
f 24//29 29//29 20//29
f 24//30 25//30 30//30
f 23//31 12//31 11//31
f 23//32 11//32 16//32
f 17//33 28//33 18//33
f 27//34 34//34 32//34
f 42//35 44//35 38//35
f 42//36 24//36 43//36
f 28//37 35//37 36//37
f 17//38 31//38 35//38
f 31//39 23//39 27//39
f 21//40 38//40 45//40
f 26//41 39//41 34//41
f 31//42 33//42 35//42
f 34//43 39//43 32//43
f 36//44 35//44 41//44
f 19//45 25//45 14//45
f 35//46 33//46 40//46
f 35//47 40//47 41//47
f 33//48 32//48 40//48
f 33//49 31//49 27//49
f 38//50 44//50 45//50
f 34//51 9//51 26//51
f 6//52 1//52 4//52
f 1//53 8//53 2//53
f 24//54 37//54 43//54
f 41//55 40//55 49//55
f 43//56 50//56 51//56
f 45//57 44//57 53//57
f 46//58 45//58 53//58
f 56//59 54//59 57//59
f 21//60 15//60 20//60
f 43//61 52//61 50//61
f 50//62 54//62 51//62
f 50//63 52//63 55//63
f 44//64 56//64 53//64
f 53//65 56//65 57//65
f 54//66 47//66 57//66
f 49//67 50//67 41//67
f 52//68 43//68 37//68
f 47//69 53//69 57//69
f 15//70 7//70 6//70
f 4//71 5//71 14//71
f 32//72 33//72 27//72
f 48//73 41//73 50//73
f 5//74 13//74 19//74
f 3//75 4//75 1//75
f 9//76 2//76 8//76
f 45//77 46//77 22//77
f 46//78 26//78 9//78
f 48//18 19//18 55//18
f 55//18 37//18 52//18
f 30//18 37//18 55//18
f 30//18 19//18 25//18
f 19//18 48//18 13//18
f 48//18 28//18 13//18
f 18//79 13//79 28//79
f 28//18 48//18 36//18
f 3//80 2//80 11//80
f 53//81 39//81 26//81
f 14//82 15//82 6//82
f 21//83 29//83 38//83
f 16//84 10//84 34//84
f 27//85 23//85 16//85
f 17//86 35//86 28//86
f 42//87 43//87 44//87
f 42//88 29//88 24//88
f 17//89 23//89 31//89
f 42//90 38//90 29//90
f 51//91 44//91 43//91
f 2//92 3//92 1//92
f 34//93 10//93 9//93
f 1//94 7//94 8//94
f 1//95 6//95 7//95
f 44//96 51//96 56//96
f 24//97 30//97 37//97
f 56//98 51//98 54//98
f 29//99 21//99 20//99
f 54//100 49//100 47//100
f 49//101 54//101 50//101
f 47//102 40//102 39//102
f 47//103 39//103 53//103
f 8//104 2//104 7//104
f 2//105 1//105 7//105
f 13//106 19//106 18//106
f 18//18 19//18 25//18
f 18//18 25//18 30//18
f 18//18 30//18 37//18
f 18//18 37//18 52//18
f 28//18 18//18 36//18
f 36//18 18//18 48//18
f 48//18 18//18 55//18
f 55//18 18//18 52//18
