# Blender 4.0.0
# www.blender.org
o decimated_mesh
v 0.018555 0.000223 0.050078
v 0.018555 -0.000113 -0.049886
v 0.017445 -0.006925 0.050078
v 0.017406 -0.006932 -0.049886
v 0.017403 0.006987 0.050078
v 0.017429 0.006983 -0.049886
v 0.013283 -0.013229 0.050078
v 0.013269 0.013273 -0.049886
v 0.013303 -0.013214 -0.049886
v 0.013299 0.013253 0.050078
v 0.007086 -0.017298 -0.049886
v 0.007062 -0.017370 0.050078
v 0.000030 -0.018532 0.050078
v 0.000047 -0.018539 -0.049886
v 0.007091 0.017336 0.050078
v 0.007064 0.017405 -0.049886
v -0.007016 -0.017185 0.050078
v -0.000008 0.018569 -0.049886
v 0.000044 0.018576 0.050078
v -0.007009 -0.017133 -0.049886
v -0.007032 0.017209 -0.049886
v -0.007105 0.017117 0.050078
v -0.013127 -0.013080 0.050078
v -0.013147 -0.013068 -0.049886
v -0.013126 0.013118 -0.049886
v -0.013136 0.013109 0.050078
v -0.017156 -0.007024 0.050078
v -0.017214 -0.006863 -0.049886
v -0.017163 0.007010 0.050078
v -0.017193 0.007010 -0.049886
v -0.018597 0.000025 0.050078
v -0.018591 0.000042 -0.049886
vn -0.0000 -0.0000 1.0000
vn -0.1955 -0.9807 -0.0005
vn -0.0000 -0.0000 -1.0000
vn -0.9805 0.1966 -0.0000
vn 0.5490 -0.8358 -0.0005
vn 0.9858 0.1679 0.0002
vn 0.1734 0.9849 0.0006
vn 0.9861 -0.1661 -0.0004
vn -0.5573 0.8303 -0.0000
vn -0.2000 0.9798 0.0008
vn -0.8345 0.5509 0.0003
vn -0.8364 -0.5481 -0.0004
vn 0.5543 0.8323 -0.0000
vn 0.1737 -0.9848 -0.0007
vn -0.5520 -0.8338 -0.0005
vn -0.9807 -0.1956 -0.0001
vn 0.8372 -0.5469 -0.0003
vn 0.8365 0.5480 0.0002
vn -0.1878 -0.9822 -0.0000
vn -0.9796 0.2011 0.0003
vn 0.5541 -0.8325 -0.0000
vn 0.9876 0.1567 -0.0005
vn 0.1623 0.9867 -0.0002
vn 0.9882 -0.1535 0.0005
vn -0.5534 0.8329 0.0004
vn -0.1901 0.9818 -0.0000
vn -0.8323 0.5543 -0.0000
vn -0.8326 -0.5538 0.0001
vn 0.5495 0.8355 0.0004
vn 0.1631 -0.9866 0.0001
vn -0.5576 -0.8301 -0.0000
vn -0.9797 -0.2003 0.0002
vn 0.8346 -0.5509 0.0001
vn 0.8341 0.5516 -0.0001
s 0
f 17//1 1//1 26//1
f 14//2 17//2 20//2
f 2//3 20//3 21//3
f 31//4 30//4 32//4
f 9//5 12//5 11//5
f 1//6 6//6 5//6
f 16//7 19//7 15//7
f 2//8 3//8 4//8
f 26//9 21//9 25//9
f 19//10 21//10 22//10
f 26//11 30//11 29//11
f 24//12 27//12 28//12
f 16//13 10//13 8//13
f 12//14 14//14 11//14
f 17//15 24//15 20//15
f 28//16 31//16 32//16
f 3//17 9//17 4//17
f 6//18 10//18 5//18
f 29//1 31//1 27//1
f 17//1 13//1 1//1
f 13//1 12//1 7//1
f 3//1 1//1 7//1
f 7//1 1//1 13//1
f 1//1 5//1 10//1
f 1//1 10//1 19//1
f 15//1 19//1 10//1
f 22//1 26//1 1//1
f 19//1 22//1 1//1
f 26//1 29//1 27//1
f 26//1 27//1 17//1
f 23//1 17//1 27//1
f 14//19 13//19 17//19
f 6//3 2//3 8//3
f 8//3 2//3 18//3
f 2//3 4//3 9//3
f 2//3 14//3 20//3
f 11//3 14//3 9//3
f 20//3 24//3 28//3
f 28//3 32//3 30//3
f 21//3 18//3 2//3
f 18//3 16//3 8//3
f 14//3 2//3 9//3
f 20//3 28//3 30//3
f 20//3 30//3 21//3
f 25//3 21//3 30//3
f 31//20 29//20 30//20
f 9//21 7//21 12//21
f 1//22 2//22 6//22
f 16//23 18//23 19//23
f 2//24 1//24 3//24
f 26//25 22//25 21//25
f 18//26 21//26 19//26
f 26//27 25//27 30//27
f 24//28 23//28 27//28
f 16//29 15//29 10//29
f 12//30 13//30 14//30
f 17//31 23//31 24//31
f 28//32 27//32 31//32
f 3//33 7//33 9//33
f 6//34 8//34 10//34
f 4//3 24//3 2//3
f 24//3 6//3 2//3
f 24//3 8//3 6//3
f 10//1 3//1 1//1
f 10//1 7//1 3//1
f 9//3 24//3 4//3
f 32//3 30//3 24//3
f 30//3 25//3 24//3
f 25//3 21//3 24//3
f 21//3 18//3 24//3
f 18//3 16//3 24//3
f 16//3 8//3 24//3
f 9//3 11//3 24//3
f 11//3 14//3 24//3
f 14//3 20//3 24//3
f 28//3 32//3 24//3
f 19//1 22//1 10//1
f 22//1 26//1 10//1
f 26//1 29//1 10//1
f 29//1 31//1 10//1
f 31//1 27//1 10//1
f 27//1 23//1 10//1
f 23//1 17//1 10//1
f 17//1 13//1 10//1
f 13//1 12//1 10//1
f 12//1 7//1 10//1
