# Blender 4.0.0
# www.blender.org
o decimated_mesh
v 0.120690 -0.013984 -0.061483
v 0.120690 -0.013931 -0.064626
v 0.130854 -0.013429 -0.048571
v 0.122678 -0.013639 -0.064270
v 0.129061 -0.013575 -0.055973
v 0.130665 -0.013525 -0.052688
v 0.134240 -0.011946 -0.035167
v 0.120689 -0.013601 -0.059165
v 0.120691 -0.013423 -0.065762
v 0.123118 -0.012078 -0.064491
v 0.130835 -0.012260 -0.054461
v 0.134115 -0.012130 -0.045354
v 0.133612 -0.012675 -0.041546
v 0.135356 -0.010434 -0.031716
v 0.134128 -0.009937 -0.032866
v 0.120698 -0.011188 -0.066530
v 0.130705 -0.011199 -0.055328
v 0.134224 -0.010194 -0.046294
v 0.135757 -0.011478 -0.035828
v 0.136131 -0.010473 -0.031791
v 0.135388 -0.008649 -0.030129
v 0.123824 -0.000029 -0.066043
v 0.136829 -0.008988 -0.033048
v 0.136178 -0.008639 -0.030128
v 0.134378 -0.007031 -0.031088
v 0.131304 0.000488 -0.055484
v 0.137149 -0.007331 -0.031329
v 0.120690 0.000048 -0.068106
v 0.123834 0.010607 -0.064141
v 0.134525 -0.000819 -0.046551
v 0.137469 -0.003556 -0.030439
v 0.120690 -0.009295 -0.058158
v 0.122636 0.013689 -0.064345
v 0.130893 0.010957 -0.055045
v 0.127347 0.012058 -0.059331
v 0.130835 0.012325 -0.054457
v 0.136487 0.007402 -0.030047
v 0.137469 0.003626 -0.030439
v 0.134450 0.007130 -0.030976
v 0.120692 0.013088 -0.066085
v 0.120691 0.013993 -0.064746
v 0.129071 0.013635 -0.055984
v 0.130605 0.013611 -0.052909
v 0.134275 0.009352 -0.046343
v 0.135396 0.008790 -0.030164
v 0.137184 0.007379 -0.031415
v 0.120690 0.009352 -0.058140
v 0.136737 0.009338 -0.033213
v 0.136118 0.008911 -0.030230
v 0.136073 0.010455 -0.031665
v 0.136189 0.010901 -0.033586
v 0.134065 0.010025 -0.032964
v 0.120689 0.013682 -0.059159
v 0.120690 0.014081 -0.061808
v 0.133128 0.012907 -0.043010
v 0.134110 0.012194 -0.045499
v 0.135355 0.010491 -0.031720
v 0.135469 0.011780 -0.036862
v 0.134237 0.012011 -0.035195
vn 0.0221 -0.6744 -0.7380
vn -0.8351 0.2314 0.4990
vn 0.3647 -0.9109 0.1932
vn -0.8834 0.1073 0.4563
vn 0.1303 -0.9804 -0.1475
vn 0.9235 0.3575 0.1389
vn 0.7316 -0.5860 -0.3483
vn 0.7950 0.0716 -0.6023
vn 0.1799 0.9748 -0.1322
vn 0.3705 -0.0000 0.9288
vn -0.6972 -0.4693 0.5419
vn -0.6712 -0.5743 0.4687
vn -0.7138 -0.5444 0.4406
vn 0.2380 0.8047 -0.5438
vn -0.6905 -0.0022 0.7234
vn 0.2027 -0.8941 -0.3994
vn 0.5602 -0.2708 -0.7829
vn 0.5176 0.8547 -0.0405
vn 0.9325 -0.0526 -0.3574
vn -0.8579 -0.2124 0.4679
vn 0.1514 0.9753 -0.1611
vn 0.2750 0.9588 0.0709
vn 0.9107 -0.4127 0.0186
vn 0.8173 0.4970 -0.2916
vn -0.0059 -0.9153 0.4028
vn 0.8537 -0.1871 0.4860
vn 0.3853 0.9089 0.1594
vn 0.2349 -0.9719 0.0121
vn 0.8772 -0.3348 0.3441
vn 1.0000 0.0003 0.0003
vn 0.9241 0.1833 -0.3352
vn -0.0073 0.6720 -0.7406
vn 0.9205 -0.2113 -0.3286
vn 0.5476 0.1281 -0.8269
vn 0.7375 0.5692 -0.3635
vn 0.7450 0.2484 -0.6191
vn -0.8924 -0.0005 0.4513
vn 0.8614 0.2634 0.4344
vn 0.8774 0.1821 0.4439
vn 0.7674 0.3291 -0.5503
vn 0.3235 -0.9432 0.0759
vn 0.3287 0.9154 0.2325
vn -0.7075 0.5542 0.4386
vn -0.6630 0.5839 0.4685
vn 0.9821 0.0261 -0.1866
vn 0.0677 0.1365 0.9883
vn 0.0167 0.9181 0.3960
vn 0.9361 -0.3236 0.1380
vn 0.0466 -0.6793 -0.7323
vn 0.1046 -0.9863 -0.1279
vn 0.9263 0.3467 0.1478
vn 0.7764 0.0568 -0.6277
vn 0.8093 0.1026 -0.5784
vn 0.9577 -0.2466 -0.1482
vn 0.2714 -0.0101 0.9624
vn 0.8161 -0.0495 -0.5758
vn -0.6534 0.0018 0.7570
vn 0.9737 -0.1415 -0.1786
vn -0.8837 -0.1064 0.4558
vn 0.5595 -0.2683 -0.7842
vn -0.8594 0.2067 0.4677
vn 0.4814 0.8744 -0.0605
vn -0.0213 0.9968 0.0764
vn 0.0730 0.9969 -0.0287
vn 0.0736 0.9968 -0.0296
vn 0.9381 -0.0396 -0.3441
vn -0.8383 -0.2301 0.4942
vn -0.0236 -0.9930 0.1158
vn 0.1309 0.9812 -0.1416
vn 0.7458 -0.3646 -0.5576
vn 0.7412 -0.3588 -0.5674
vn 0.7497 -0.2948 -0.5925
vn 0.4833 -0.8733 -0.0611
vn 0.5699 -0.8206 -0.0422
vn 0.8124 -0.5086 -0.2853
vn -0.6934 0.4771 0.5400
vn 1.0000 -0.0002 0.0003
vn 1.0000 -0.0000 -0.0000
vn 1.0000 0.0002 0.0002
vn 1.0000 0.0010 0.0002
vn 1.0000 -0.0002 0.0001
vn 1.0000 0.0008 0.0007
vn 1.0000 -0.0008 0.0011
vn 1.0000 -0.0036 -0.0012
vn 1.0000 -0.0028 -0.0000
vn -0.0399 0.6642 -0.7465
vn 0.9250 -0.1662 -0.3418
vn 0.5443 -0.1162 -0.8308
vn 0.7700 -0.1257 -0.6255
vn 0.0426 -0.9990 0.0095
vn 0.0599 -0.9981 -0.0169
vn -0.0188 -0.9995 0.0243
vn 0.9814 0.0547 -0.1840
vn 0.9768 0.1112 -0.1831
vn 0.9474 0.2903 -0.1351
vn 0.9450 0.3015 -0.1268
vn -0.8920 0.0010 0.4520
vn 0.8745 0.3438 0.3421
vn 0.1651 -0.9790 -0.1195
vn 0.7311 0.3896 -0.5601
vn 0.7406 0.2916 -0.6053
vn 0.9417 0.0300 -0.3352
vn 0.9303 0.1531 -0.3333
vn 0.9340 0.0515 -0.3535
vn -0.1040 0.0020 0.9946
vn -0.0017 -0.0050 1.0000
vn 0.5988 0.1404 -0.7885
vn 0.6211 0.1909 -0.7601
vn 0.6086 -0.1363 -0.7817
vn 0.9812 -0.0368 -0.1896
vn 0.9818 0.0280 -0.1876
vn 0.9837 -0.0000 -0.1797
vn 0.9897 -0.0525 -0.1335
vn 0.9825 -0.0273 -0.1841
vn 0.0572 -0.9983 -0.0128
vn 0.0263 -0.9994 0.0223
vn 0.1242 0.9823 -0.1400
vn 0.1658 0.9730 -0.1608
vn 1.0000 -0.0000 0.0002
vn 1.0000 -0.0000 0.0004
vn 1.0000 -0.0000 -0.0005
vn 1.0000 -0.0001 0.0002
vn 0.1397 -0.9792 -0.1473
vn 0.9998 0.0034 0.0191
vn 0.5588 -0.2711 -0.7837
vn 0.5611 -0.2686 -0.7830
vn -0.0388 0.6719 -0.7396
vn -0.0072 0.6644 -0.7474
vn 0.0991 -0.9869 -0.1272
vn 1.0000 -0.0003 0.0010
vn 0.7833 0.1087 -0.6121
vn 0.8134 0.0562 -0.5790
vn 0.7490 0.3607 -0.5558
vn 0.0452 -0.6736 -0.7377
vn 0.0213 -0.6803 -0.7326
vn 0.7802 0.1354 -0.6107
vn 0.7740 0.2775 -0.5691
s 0
f 45//1 57//1 50//1
f 45//2 52//2 39//2
f 7//3 19//3 20//3
f 47//4 39//4 53//4
f 53//5 54//5 55//5
f 48//6 51//6 50//6
f 5//7 11//7 6//7
f 29//8 35//8 26//8
f 41//9 42//9 33//9
f 37//10 31//10 38//10
f 15//11 14//11 21//11
f 7//12 14//12 15//12
f 7//13 15//13 8//13
f 40//14 41//14 33//14
f 21//15 39//15 25//15
f 9//16 4//16 2//16
f 9//17 16//17 10//17
f 55//18 58//18 56//18
f 26//19 18//19 17//19
f 15//20 25//20 8//20
f 8//21 3//21 1//21
f 58//22 55//22 59//22
f 23//23 20//23 19//23
f 36//24 43//24 56//24
f 14//25 7//25 20//25
f 27//26 31//26 24//26
f 58//27 59//27 51//27
f 3//28 6//28 13//28
f 27//29 24//29 20//29
f 54//30 47//30 40//30
f 36//31 56//31 34//31
f 21//32 24//32 20//32
f 11//33 18//33 12//33
f 28//34 40//34 22//34
f 36//35 42//35 43//35
f 33//36 35//36 29//36
f 25//37 47//37 32//37
f 46//38 49//38 37//38
f 38//39 46//39 37//39
f 42//40 34//40 35//40
f 7//41 13//41 19//41
f 51//42 59//42 50//42
f 53//43 52//43 59//43
f 57//44 59//44 52//44
f 30//45 46//45 38//45
f 45//46 37//46 49//46
f 57//47 50//47 59//47
f 23//48 27//48 20//48
f 45//49 50//49 49//49
f 53//50 55//50 59//50
f 50//51 46//51 48//51
f 35//52 34//52 26//52
f 26//53 22//53 29//53
f 19//54 12//54 23//54
f 37//55 24//55 31//55
f 17//56 22//56 26//56
f 21//57 45//57 39//57
f 23//58 12//58 18//58
f 32//59 8//59 25//59
f 10//60 4//60 9//60
f 53//61 39//61 52//61
f 56//62 43//62 55//62
f 55//63 43//63 54//63
f 43//64 42//64 54//64
f 42//65 41//65 54//65
f 26//66 30//66 18//66
f 15//67 21//67 25//67
f 13//68 7//68 3//68
f 7//69 3//69 8//69
f 17//70 11//70 5//70
f 5//71 4//71 17//71
f 4//72 10//72 17//72
f 6//73 12//73 13//73
f 12//74 19//74 13//74
f 11//75 12//75 6//75
f 57//76 52//76 45//76
f 8//77 1//77 32//77
f 32//78 28//78 47//78
f 47//79 54//79 53//79
f 54//80 40//80 41//80
f 40//81 47//81 28//81
f 28//82 32//82 16//82
f 32//83 1//83 16//83
f 16//84 2//84 9//84
f 2//85 16//85 1//85
f 21//86 20//86 14//86
f 11//87 17//87 18//87
f 28//88 22//88 16//88
f 17//89 10//89 22//89
f 3//90 1//90 5//90
f 5//91 1//91 2//91
f 5//92 6//92 3//92
f 48//93 46//93 44//93
f 44//94 56//94 48//94
f 56//95 58//95 48//95
f 58//96 51//96 48//96
f 25//97 39//97 47//97
f 46//98 50//98 49//98
f 4//99 5//99 2//99
f 33//100 42//100 35//100
f 42//101 36//101 34//101
f 44//102 30//102 26//102
f 34//103 56//103 44//103
f 26//104 34//104 44//104
f 45//105 21//105 37//105
f 37//106 21//106 24//106
f 22//107 40//107 29//107
f 40//108 33//108 29//108
f 22//109 10//109 16//109
f 23//110 18//110 30//110
f 30//111 44//111 46//111
f 38//112 31//112 30//112
f 31//113 27//113 23//113
f 30//114 31//114 23//114
f 5//115 6//115 1//115
f 6//116 3//116 1//116
f 3//117 1//117 7//117
f 7//118 1//118 8//118
f 8//119 1//119 53//119
f 53//78 1//78 2//78
f 53//120 2//120 9//120
f 32//121 8//121 53//121
f 54//119 53//119 41//119
f 41//122 53//122 28//122
f 28//78 53//78 9//78
f 32//121 53//121 47//121
f 59//123 53//123 54//123
f 28//124 9//124 16//124
f 16//125 4//125 9//125
f 16//126 10//126 4//126
f 24//127 20//127 14//127
f 24//128 14//128 21//128
f 59//129 54//129 55//129
f 40//130 41//130 28//130
f 29//131 34//131 22//131
f 34//132 26//132 22//132
f 36//133 35//133 42//133
f 49//134 45//134 57//134
f 49//135 57//135 50//135
f 35//136 34//136 29//136
f 35//137 36//137 34//137
