# Blender 4.0.0
# www.blender.org
o decimated_mesh
v 0.055880 0.015586 0.081747
v 0.055880 0.015564 0.071098
v 0.066382 0.015295 0.081470
v 0.090414 0.014995 0.077184
v 0.110222 0.014006 0.065855
v 0.055880 0.014167 0.082771
v 0.085362 0.013768 0.079727
v 0.092390 0.013981 0.078361
v 0.090837 0.012744 0.079131
v 0.055880 0.014003 0.070151
v 0.110222 0.012561 0.065045
v 0.110226 0.014090 0.071546
v 0.108755 0.013712 0.073299
v 0.090909 0.000019 0.080461
v 0.110220 0.013189 0.072918
v 0.055880 0.000025 0.084859
v 0.090497 -0.013241 0.079156
v 0.055880 0.000023 0.068390
v 0.092342 -0.013971 0.078385
v 0.110222 0.000035 0.063940
v 0.090837 -0.014939 0.077221
v 0.108978 -0.013721 0.073132
v 0.067014 -0.015330 0.081405
v 0.103923 -0.013696 0.074794
v 0.110225 0.000057 0.074877
v 0.055880 -0.014158 0.082787
v 0.110224 -0.014068 0.071589
v 0.055880 -0.015551 0.081771
v 0.110205 -0.013097 0.072972
v 0.110222 -0.012350 0.064999
v 0.055880 -0.015594 0.071129
v 0.055880 -0.013931 0.070126
v 0.110222 -0.014141 0.067049
v 0.110222 -0.013785 0.065694
vn 0.1212 0.6741 0.7286
vn 1.0000 -0.0058 0.0008
vn 1.0000 -0.0000 -0.0000
vn 0.1036 0.1453 0.9840
vn 0.2755 -0.1320 0.9522
vn 0.0414 0.9990 -0.0148
vn 0.4037 0.7639 0.5035
vn 0.0382 -0.5891 0.8071
vn 0.1684 -0.8536 0.4929
vn 0.1070 -0.1437 0.9838
vn -0.0683 -0.5150 -0.8544
vn 0.0176 -0.9998 0.0066
vn 0.0376 0.5850 0.8102
vn 0.1279 -0.5493 0.8258
vn -0.0895 0.1245 -0.9882
vn 0.4405 -0.7317 0.5201
vn -0.0688 0.4878 -0.8703
vn 0.1067 0.8349 0.5399
vn -0.0897 -0.1230 -0.9883
vn 0.1035 0.1676 0.9804
vn 0.0068 -0.9671 -0.2543
vn 1.0000 0.0005 0.0003
vn 1.0000 -0.0000 -0.0003
vn 1.0000 -0.0019 0.0020
vn 0.9999 0.0143 0.0035
vn 1.0000 -0.0004 -0.0003
vn 1.0000 -0.0001 -0.0000
vn 1.0000 0.0004 -0.0007
vn 1.0000 0.0003 -0.0000
vn 1.0000 -0.0004 -0.0001
vn 1.0000 0.0001 -0.0000
vn 0.1240 0.1027 0.9870
vn 0.1269 0.1038 0.9865
vn 0.2967 -0.1104 0.9486
vn 0.2918 -0.3436 0.8926
vn 0.2881 -0.1377 0.9476
vn 0.3489 -0.1025 0.9315
vn 0.0243 0.9987 -0.0446
vn 0.0168 0.9999 -0.0020
vn 0.2629 -0.5278 0.8076
vn 0.1322 0.9403 0.3137
vn 0.1099 -0.8291 0.5482
vn 0.1239 -0.1010 0.9871
vn -0.0720 -0.4351 -0.8975
vn 0.0199 -0.9998 0.0041
vn 0.0243 -0.9992 -0.0321
vn 0.0495 -0.9986 0.0159
vn 0.0301 0.9946 0.0990
vn 0.1674 0.3607 0.9175
vn 0.1351 -0.9377 0.3200
vn -0.0813 0.0876 -0.9928
vn -0.0675 0.5175 -0.8530
vn 0.1611 0.8653 0.4748
vn -0.0813 -0.0849 -0.9931
vn 0.1070 -0.1440 0.9838
vn 0.2953 0.1114 0.9489
vn 0.3779 0.0984 0.9206
vn 0.2747 0.1395 0.9513
vn 0.2960 0.1410 0.9447
vn 1.0000 -0.0000 -0.0001
vn 1.0000 -0.0000 0.0004
vn 1.0000 -0.0000 0.0001
vn 1.0000 0.0001 0.0008
vn 0.0180 -0.9998 0.0041
vn 0.2919 0.2136 0.9323
vn 0.2986 0.1501 0.9425
vn 1.0000 0.0012 0.0054
vn 1.0000 -0.0001 -0.0002
vn 1.0000 -0.0001 -0.0003
vn 1.0000 -0.0001 -0.0001
vn 1.0000 -0.0000 -0.0005
vn 1.0000 -0.0000 -0.0006
vn 0.0206 -0.9995 0.0239
vn 0.2761 0.1015 0.9558
vn 0.2764 -0.1026 0.9555
vn 0.2992 0.1409 0.9437
vn 0.2975 -0.1373 0.9448
vn 0.9999 -0.0039 0.0164
vn 0.2923 -0.2397 0.9258
vn 0.2918 -0.2552 0.9218
s 0
f 3//1 7//1 8//1
f 12//2 15//2 11//2
f 28//3 32//3 26//3
f 7//4 6//4 16//4
f 25//5 14//5 24//5
f 4//6 12//6 5//6
f 13//7 15//7 12//7
f 26//8 28//8 23//8
f 19//9 21//9 22//9
f 16//10 26//10 17//10
f 32//11 34//11 31//11
f 21//12 23//12 31//12
f 6//13 3//13 1//13
f 19//14 17//14 23//14
f 11//15 18//15 10//15
f 22//16 27//16 29//16
f 10//17 5//17 11//17
f 8//18 4//18 3//18
f 18//19 30//19 32//19
f 7//20 3//20 6//20
f 31//21 34//21 33//21
f 15//22 25//22 11//22
f 11//23 25//23 20//23
f 25//24 29//24 30//24
f 30//25 29//25 27//25
f 27//26 33//26 30//26
f 33//27 34//27 30//27
f 30//23 20//23 25//23
f 5//28 12//28 11//28
f 26//3 18//3 16//3
f 26//3 32//3 18//3
f 16//3 18//3 6//3
f 1//29 10//29 2//29
f 10//3 6//3 18//3
f 31//30 32//30 28//30
f 6//31 10//31 1//31
f 16//32 14//32 7//32
f 14//33 9//33 7//33
f 19//34 24//34 14//34
f 24//35 22//35 29//35
f 29//36 25//36 24//36
f 19//37 14//37 17//37
f 5//38 2//38 4//38
f 2//39 1//39 4//39
f 19//40 22//40 24//40
f 12//41 4//41 13//41
f 19//42 23//42 21//42
f 14//43 16//43 17//43
f 32//44 30//44 34//44
f 23//45 28//45 31//45
f 31//46 33//46 21//46
f 21//47 33//47 27//47
f 3//48 4//48 1//48
f 7//49 9//49 8//49
f 21//50 27//50 22//50
f 11//51 20//51 18//51
f 10//52 2//52 5//52
f 8//53 13//53 4//53
f 18//54 20//54 30//54
f 26//55 23//55 17//55
f 13//56 8//56 14//56
f 8//57 9//57 14//57
f 14//58 25//58 13//58
f 25//59 15//59 13//59
f 2//3 1//3 31//3
f 31//60 1//60 6//60
f 10//61 2//61 31//61
f 28//60 31//60 26//60
f 26//3 31//3 16//3
f 16//60 31//60 6//60
f 10//62 31//62 18//62
f 18//63 31//63 32//63
f 21//64 28//64 31//64
f 9//65 13//65 8//65
f 9//66 15//66 13//66
f 15//67 25//67 12//67
f 25//68 27//68 12//68
f 27//69 33//69 12//69
f 33//27 34//27 12//27
f 34//70 30//70 12//70
f 30//71 20//71 12//71
f 20//72 11//72 12//72
f 21//73 23//73 28//73
f 25//74 9//74 14//74
f 17//75 25//75 14//75
f 25//76 15//76 9//76
f 17//77 29//77 25//77
f 29//78 27//78 25//78
f 19//79 29//79 17//79
f 24//80 29//80 19//80
