# Blender 4.0.0
# www.blender.org
o decimated_mesh
v 0.125818 -0.013792 0.059552
v 0.128964 -0.013547 0.050859
v 0.130553 -0.013588 0.053244
v 0.129081 -0.013588 0.056150
v 0.125810 -0.013487 0.054606
v 0.133983 -0.011912 0.035417
v 0.132483 -0.013064 0.044747
v 0.134458 -0.012250 0.042667
v 0.134188 -0.011688 0.046097
v 0.130921 -0.011889 0.054803
v 0.125816 -0.013169 0.060867
v 0.134054 -0.010145 0.033285
v 0.135351 -0.010446 0.031856
v 0.134774 -0.011952 0.035571
v 0.135752 -0.011545 0.036160
v 0.135412 -0.008704 0.030293
v 0.136134 -0.010496 0.031952
v 0.136760 -0.009229 0.033298
v 0.125817 -0.010992 0.061692
v 0.134380 -0.006996 0.031212
v 0.136119 -0.008867 0.030382
v 0.137186 -0.007326 0.031567
v 0.125816 0.001293 0.063380
v 0.136503 -0.007308 0.030209
v 0.137469 -0.003573 0.030590
v 0.134525 -0.000817 0.046706
v 0.131380 -0.000657 0.055458
v 0.125817 -0.009297 0.053220
v 0.130785 0.010794 0.055429
v 0.134224 0.010392 0.046361
v 0.125817 0.012018 0.061412
v 0.135251 0.007656 0.030236
v 0.136187 0.008654 0.030266
v 0.134347 0.007076 0.031281
v 0.137474 0.003904 0.030613
v 0.130834 0.012302 0.054609
v 0.135476 0.008900 0.030385
v 0.137069 0.007656 0.031446
v 0.136839 0.008929 0.033190
v 0.129572 0.013606 0.055399
v 0.134098 0.012099 0.045799
v 0.125820 0.013567 0.060305
v 0.134056 0.010243 0.033347
v 0.135362 0.010482 0.031885
v 0.125817 0.011591 0.053639
v 0.136068 0.010447 0.031833
v 0.136127 0.011057 0.034127
v 0.134215 0.012456 0.042508
v 0.134004 0.011948 0.035475
v 0.134580 0.011974 0.035590
v 0.125817 0.013840 0.058228
v 0.132206 0.013195 0.045787
v 0.125816 0.013592 0.054959
vn 0.9407 0.0356 0.3374
vn -0.8357 -0.2389 -0.4945
vn 0.0314 0.9295 -0.3675
vn 0.0690 0.6926 0.7180
vn -0.6962 0.4667 -0.5455
vn -0.1173 0.1395 -0.9832
vn -0.2264 -0.9582 -0.1751
vn 0.0107 -0.9996 -0.0242
vn 0.6971 -0.6968 0.1692
vn 0.7624 -0.5193 0.3862
vn 0.4495 -0.8070 0.3830
vn -0.6680 -0.5620 -0.4878
vn -0.0261 -0.9916 -0.1267
vn -0.8173 -0.4301 -0.3834
vn 0.3600 -0.9327 -0.0231
vn 0.0122 0.9260 0.3773
vn 0.9351 -0.0586 0.3495
vn -0.0354 0.0032 0.9994
vn 0.4660 -0.8675 -0.1740
vn 0.4724 0.8766 0.0920
vn 0.7471 -0.3727 0.5504
vn -0.7944 0.2123 -0.5691
vn 0.9058 -0.4230 -0.0232
vn -0.0467 0.9960 -0.0756
vn 0.7160 0.3154 0.6227
vn -0.9207 -0.1212 -0.3709
vn 0.8776 -0.1818 -0.4435
vn 0.8612 -0.2606 -0.4363
vn 0.9826 -0.0264 0.1840
vn 0.8226 0.0442 0.5668
vn 1.0000 0.0003 0.0001
vn -0.0197 0.6871 -0.7263
vn 0.0937 -0.1324 -0.9868
vn 0.2671 0.9622 -0.0531
vn 0.3580 0.0026 -0.9337
vn -0.8104 0.4474 -0.3783
vn -0.1054 -0.9847 -0.1386
vn 0.8063 -0.0805 0.5860
vn 0.8579 0.1978 -0.4742
vn 0.7681 -0.2274 0.5987
vn 0.9238 0.1795 0.3381
vn 0.1578 0.9791 0.1286
vn -0.7035 -0.4606 -0.5413
vn 0.7757 0.1139 0.6208
vn -0.9338 0.0072 -0.3577
vn -0.6499 0.5853 -0.4848
vn 0.3060 0.9181 -0.2518
vn 0.4845 0.8741 -0.0354
vn -0.7568 0.0014 -0.6536
vn -0.0201 0.9921 -0.1235
vn 0.8162 0.5706 0.0910
vn -0.9101 0.1645 -0.3804
vn 0.9346 0.0494 0.3523
vn 0.9243 0.3622 -0.1200
vn 0.9268 0.3510 -0.1339
vn 0.0187 0.9289 -0.3699
vn -0.0492 0.6679 0.7427
vn 0.0498 -0.9975 -0.0502
vn 0.3950 -0.9184 -0.0210
vn 0.4148 -0.9091 0.0381
vn 0.9810 -0.0485 0.1878
vn -0.0250 0.9278 0.3722
vn 0.9365 -0.3263 -0.1285
vn 0.9397 -0.0481 0.3386
vn 0.0791 -0.0020 0.9969
vn 0.7687 0.5792 0.2714
vn 0.1310 -0.9892 0.0664
vn -0.8206 0.2574 -0.5102
vn -0.1456 0.9788 -0.1438
vn 0.7271 0.3982 0.5592
vn 0.7578 0.3328 0.5612
vn 0.8741 -0.3330 -0.3537
vn 0.9837 -0.0012 0.1799
vn 0.9818 0.0276 0.1880
vn 0.9810 0.0322 0.1912
vn 0.9809 -0.0411 0.1901
vn -1.0000 0.0035 0.0021
vn 1.0000 0.0007 -0.0003
vn 1.0000 -0.0000 0.0001
vn 1.0000 -0.0022 -0.0017
vn 1.0000 -0.0012 0.0021
vn 1.0000 0.0001 -0.0000
vn 1.0000 -0.0001 -0.0000
vn 1.0000 0.0002 -0.0000
vn 0.1024 0.6584 -0.7456
vn -0.0916 -0.9939 -0.0611
vn 0.9558 0.2567 0.1433
vn 0.2920 0.0092 -0.9564
vn 0.7974 -0.0675 0.5996
vn 0.8354 -0.4586 0.3029
vn 0.8673 0.3589 -0.3450
vn 0.9936 0.0934 0.0628
vn 0.5173 0.8486 0.1106
vn -0.9133 -0.1536 -0.3772
vn 0.9257 0.1570 0.3441
vn 0.0378 0.9988 -0.0324
vn -0.9319 -0.0004 -0.3626
vn -0.6734 -0.0092 -0.7392
vn 0.9751 0.1308 0.1791
vn -0.8915 0.2491 -0.3785
vn 0.9383 -0.3218 0.1268
vn 0.9629 -0.2109 0.1685
vn 1.0000 0.0056 -0.0012
vn 1.0000 -0.0001 -0.0009
vn 1.0000 0.0002 -0.0010
vn 1.0000 -0.0002 -0.0004
vn 1.0000 -0.0002 -0.0002
vn 1.0000 -0.0002 0.0011
vn 1.0000 -0.0001 0.0046
vn 0.8087 -0.0671 0.5844
vn 0.7956 -0.0824 0.6002
vn 1.0000 -0.0001 -0.0002
vn -0.0112 -0.9232 -0.3842
vn 0.0236 -0.9305 -0.3656
vn 0.9066 -0.3992 0.1369
vn 0.9606 -0.2355 0.1478
vn 0.7648 0.2884 0.5760
vn 0.7385 0.3751 0.5603
vn 0.0310 0.9303 -0.3656
vn 0.0185 0.9281 -0.3718
vn -0.0276 -0.0041 0.9996
vn 0.0712 0.0042 0.9975
vn 0.0595 0.6654 0.7441
vn -0.0447 0.6931 0.7195
s 0
f 27//1 26//1 30//1
f 16//2 12//2 20//2
f 50//3 44//3 49//3
f 17//4 21//4 16//4
f 43//5 44//5 37//5
f 33//6 32//6 37//6
f 2//7 5//7 6//7
f 3//8 1//8 2//8
f 3//9 8//9 9//9
f 4//10 3//10 10//10
f 4//11 11//11 1//11
f 6//12 12//12 13//12
f 6//13 14//13 7//13
f 6//14 5//14 12//14
f 7//15 14//15 8//15
f 13//16 14//16 17//16
f 9//17 27//17 10//17
f 16//18 33//18 32//18
f 15//19 14//19 17//19
f 52//20 40//20 48//20
f 11//21 4//21 10//21
f 37//22 32//22 34//22
f 17//23 18//23 15//23
f 52//24 53//24 51//24
f 29//25 36//25 40//25
f 28//26 20//26 5//26
f 22//27 24//27 25//27
f 22//28 21//28 24//28
f 25//29 26//29 22//29
f 23//30 27//30 29//30
f 19//31 1//31 28//31
f 46//32 37//32 44//32
f 21//33 16//33 24//33
f 50//34 52//34 48//34
f 24//35 35//35 25//35
f 53//36 49//36 43//36
f 7//37 2//37 6//37
f 19//38 27//38 23//38
f 35//39 33//39 38//39
f 10//40 19//40 11//40
f 36//41 30//41 41//41
f 51//42 42//42 40//42
f 16//43 13//43 12//43
f 31//44 23//44 29//44
f 45//45 34//45 28//45
f 44//46 43//46 49//46
f 47//47 46//47 50//47
f 50//48 48//48 47//48
f 32//49 20//49 34//49
f 49//50 52//50 50//50
f 47//51 48//51 41//51
f 45//52 43//52 34//52
f 29//53 27//53 30//53
f 46//54 47//54 39//54
f 39//55 38//55 46//55
f 50//56 46//56 44//56
f 17//57 16//57 13//57
f 2//58 7//58 3//58
f 15//59 8//59 14//59
f 7//60 8//60 3//60
f 18//61 22//61 9//61
f 6//62 14//62 13//62
f 17//63 22//63 18//63
f 9//64 26//64 27//64
f 33//65 16//65 24//65
f 41//66 40//66 36//66
f 1//67 3//67 4//67
f 43//68 37//68 34//68
f 49//69 53//69 52//69
f 42//70 31//70 40//70
f 31//71 29//71 40//71
f 22//72 17//72 21//72
f 25//73 35//73 26//73
f 26//74 35//74 39//74
f 39//75 30//75 26//75
f 26//76 9//76 22//76
f 42//77 51//77 31//77
f 51//78 45//78 53//78
f 45//79 23//79 28//79
f 28//80 1//80 5//80
f 11//81 1//81 19//81
f 19//82 28//82 23//82
f 23//83 45//83 31//83
f 45//84 51//84 31//84
f 46//85 33//85 37//85
f 5//86 2//86 1//86
f 41//87 39//87 47//87
f 24//88 33//88 35//88
f 19//89 10//89 27//89
f 3//90 9//90 10//90
f 33//91 46//91 38//91
f 35//92 38//92 39//92
f 48//93 40//93 41//93
f 5//94 20//94 12//94
f 36//95 29//95 30//95
f 40//96 52//96 51//96
f 34//97 20//97 28//97
f 32//98 16//98 20//98
f 39//99 41//99 30//99
f 53//100 43//100 45//100
f 18//101 9//101 8//101
f 15//102 18//102 8//102
f 11//103 1//103 5//103
f 19//104 11//104 5//104
f 19//105 5//105 23//105
f 23//106 5//106 51//106
f 51//107 5//107 53//107
f 53//108 5//108 45//108
f 45//109 5//109 28//109
f 27//110 23//110 10//110
f 23//111 19//111 10//111
f 31//112 23//112 51//112
f 13//113 17//113 6//113
f 17//114 14//114 6//114
f 15//115 9//115 8//115
f 15//116 18//116 9//116
f 29//117 36//117 31//117
f 36//118 40//118 31//118
f 50//119 46//119 49//119
f 46//120 44//120 49//120
f 33//121 32//121 24//121
f 24//122 32//122 16//122
f 21//123 16//123 13//123
f 21//124 13//124 17//124
