# Blender 4.0.0
# www.blender.org
o decimated_mesh
v 0.092152 -0.014829 -0.076642
v 0.120688 -0.013967 -0.064443
v 0.092151 -0.014874 -0.071982
v 0.120686 -0.013655 -0.059190
v 0.107793 -0.014206 -0.071982
v 0.092157 -0.014036 -0.070195
v 0.092159 -0.013876 -0.078273
v 0.109975 -0.013625 -0.072670
v 0.120670 -0.013567 -0.065687
v 0.092151 -0.012686 -0.069511
v 0.103924 -0.013688 -0.074641
v 0.120686 -0.010494 -0.058291
v 0.092151 -0.012327 -0.078713
v 0.110590 -0.011533 -0.072978
v 0.120686 -0.010990 -0.066518
v 0.110393 -0.000103 -0.074670
v 0.120686 -0.000012 -0.068113
v 0.120685 0.000039 -0.057504
v 0.092151 0.000875 -0.068349
v 0.110570 0.011631 -0.072971
v 0.092152 0.000057 -0.079993
v 0.120686 0.011045 -0.066511
v 0.109975 0.013703 -0.072659
v 0.120686 0.010534 -0.058283
v 0.092154 0.013909 -0.078324
v 0.120662 0.013703 -0.065640
v 0.103915 0.013745 -0.074639
v 0.120686 0.013645 -0.059112
v 0.092151 0.013028 -0.069533
v 0.092150 0.014862 -0.076763
v 0.120686 0.014137 -0.062918
v 0.092155 0.014139 -0.070202
v 0.092151 0.014972 -0.071982
vn 1.0000 -0.0000 -0.0000
vn -0.1501 -0.8950 0.4201
vn 0.1727 0.8410 -0.5127
vn 0.1943 -0.9330 -0.3028
vn -0.3200 -0.4295 0.8445
vn 0.1681 -0.8516 -0.4966
vn 0.5331 0.1133 -0.8384
vn -0.0117 0.9917 0.1282
vn 0.0616 -0.9954 -0.0738
vn 1.0000 0.0003 -0.0000
vn -0.3364 -0.2576 0.9058
vn 0.1013 0.9823 -0.1574
vn 0.2787 0.1325 -0.9512
vn 0.1556 0.8755 -0.4575
vn -0.3374 0.2424 0.9096
vn -0.3081 0.4916 0.8145
vn -0.1476 0.8956 0.4197
vn 0.2765 -0.1337 -0.9517
vn 1.0000 0.0001 0.0003
vn 0.9998 -0.0115 -0.0176
vn -0.9999 -0.0122 0.0106
vn 1.0000 -0.0001 -0.0001
vn 1.0000 0.0007 -0.0000
vn -0.3562 -0.0697 0.9318
vn -0.3595 -0.0797 0.9298
vn -0.3584 0.0905 0.9292
vn -0.3526 0.0693 0.9332
vn 0.0985 0.9838 -0.1501
vn 0.1723 -0.9512 -0.2560
vn 0.5397 -0.1210 -0.8331
vn 0.5345 -0.1147 -0.8374
vn 0.0366 0.9991 -0.0231
vn 0.5392 0.1207 -0.8335
vn 0.1391 -0.9291 -0.3427
vn -0.9999 -0.0076 0.0067
vn 1.0000 -0.0001 0.0001
vn 1.0000 -0.0000 0.0003
vn -1.0000 0.0053 0.0042
vn -1.0000 0.0003 0.0002
vn 1.0000 -0.0002 0.0001
vn 1.0000 0.0031 0.0006
vn -0.9999 -0.0076 -0.0088
vn 0.1129 -0.9418 -0.3168
vn 0.2985 0.1141 -0.9476
vn -0.3039 -0.2267 0.9253
vn 0.2806 0.1334 -0.9505
vn 0.5288 0.2686 -0.8051
vn 0.5289 0.2730 -0.8035
vn 0.5288 -0.2739 -0.8033
vn 0.5284 -0.2632 -0.8072
vn 0.0343 -0.9994 -0.0097
vn 0.0160 -0.9981 0.0594
vn 0.2809 -0.1358 -0.9501
vn -0.3038 0.2257 0.9256
vn 0.2886 -0.2602 -0.9214
vn 0.3152 -0.0976 -0.9440
vn 0.0991 0.9833 -0.1528
vn 0.1718 0.8441 -0.5079
vn 0.1724 0.8411 -0.5127
vn 1.0000 -0.0005 0.0028
vn 1.0000 -0.0000 0.0006
vn 1.0000 0.0001 -0.0003
vn 1.0000 0.0001 0.0001
vn 1.0000 -0.0000 -0.0001
vn 1.0000 0.0001 -0.0001
vn 0.1034 0.9821 -0.1574
vn 0.5281 0.2729 -0.8041
vn 0.2958 0.1931 -0.9355
vn 0.2918 0.1327 -0.9472
vn 0.2792 0.1148 -0.9533
vn 0.2780 -0.0988 -0.9555
vn 0.2996 -0.1346 -0.9445
vn 0.2987 -0.2049 -0.9321
vn 0.1670 -0.8517 -0.4967
vn 0.1650 -0.8619 -0.4794
vn 1.0000 -0.0000 0.0004
vn 0.1704 -0.9501 -0.2613
vn 0.2025 -0.9314 -0.3024
vn 1.0000 -0.0002 -0.0014
vn 0.5295 0.2685 -0.8047
vn 0.5300 -0.2629 -0.8062
vn 0.5269 -0.2735 -0.8047
s 0
f 22//1 31//1 24//1
f 4//2 6//2 3//2
f 25//3 30//3 23//3
f 2//4 5//4 9//4
f 4//5 10//5 6//5
f 7//6 8//6 1//6
f 17//7 16//7 20//7
f 33//8 28//8 31//8
f 5//9 2//9 1//9
f 13//10 10//10 1//10
f 12//11 10//11 4//11
f 26//12 30//12 31//12
f 27//13 16//13 21//13
f 23//14 27//14 25//14
f 24//15 28//15 29//15
f 29//16 28//16 32//16
f 28//17 33//17 32//17
f 11//18 21//18 16//18
f 24//1 18//1 17//1
f 18//1 12//1 17//1
f 4//19 2//19 12//19
f 9//20 15//20 2//20
f 15//1 17//1 12//1
f 17//1 22//1 24//1
f 31//21 26//21 22//21
f 31//22 28//22 24//22
f 2//23 15//23 12//23
f 12//24 18//24 19//24
f 19//25 10//25 12//25
f 29//26 19//26 24//26
f 19//27 18//27 24//27
f 30//28 26//28 23//28
f 5//29 8//29 9//29
f 17//30 15//30 14//30
f 14//31 16//31 17//31
f 31//32 30//32 33//32
f 20//33 22//33 17//33
f 5//34 1//34 8//34
f 6//35 10//35 3//35
f 10//1 13//1 19//1
f 3//36 1//36 10//36
f 19//37 25//37 29//37
f 29//38 32//38 33//38
f 30//39 29//39 33//39
f 25//40 19//40 21//40
f 30//41 29//41 25//41
f 21//36 19//36 13//36
f 13//42 7//42 1//42
f 11//43 8//43 7//43
f 25//44 27//44 21//44
f 27//45 20//45 23//45
f 20//46 16//46 27//46
f 23//47 26//47 22//47
f 22//48 20//48 23//48
f 14//49 15//49 8//49
f 8//50 15//50 9//50
f 1//51 2//51 3//51
f 2//52 4//52 3//52
f 16//53 14//53 11//53
f 11//54 8//54 14//54
f 11//55 7//55 13//55
f 13//56 21//56 11//56
f 31//57 23//57 30//57
f 23//58 27//58 30//58
f 27//59 25//59 30//59
f 25//60 30//60 21//60
f 21//61 30//61 13//61
f 13//62 30//62 1//62
f 1//63 30//63 3//63
f 3//1 30//1 10//1
f 10//64 30//64 19//64
f 19//64 30//64 29//64
f 28//65 2//65 31//65
f 2//65 22//65 31//65
f 26//66 23//66 31//66
f 26//67 20//67 23//67
f 20//68 25//68 27//68
f 20//69 16//69 25//69
f 16//70 21//70 25//70
f 16//71 13//71 21//71
f 16//72 14//72 13//72
f 14//73 11//73 13//73
f 7//74 11//74 1//74
f 11//75 8//75 1//75
f 24//76 2//76 28//76
f 5//77 8//77 2//77
f 8//78 9//78 2//78
f 15//79 17//79 2//79
f 17//62 22//62 2//62
f 24//37 18//37 2//37
f 18//76 12//76 2//76
f 20//80 26//80 22//80
f 15//81 9//81 14//81
f 9//82 8//82 14//82
