# Blender 4.0.0
# www.blender.org
o decimated_mesh
v 0.007226 0.018706 0.079866
v -0.000067 0.018545 0.050075
v 0.003002 0.018692 0.079810
v 0.020485 0.017160 0.081535
v 0.020488 0.017111 0.064178
v 0.000351 0.018634 0.078684
v 0.000284 0.018211 0.080648
v 0.000975 0.017433 0.081848
v 0.013114 0.013395 0.050078
v 0.006974 0.017402 0.050078
v -0.005575 0.016783 0.081443
v 0.000220 0.013830 0.084974
v 0.020485 0.013316 0.085007
v 0.020485 0.010331 0.058377
v 0.017423 0.006977 0.050077
v -0.006959 0.017153 0.079814
v 0.000433 0.012707 0.085422
v -0.005071 0.012399 0.085188
v -0.007075 0.017126 0.050078
v -0.012046 0.013841 0.079945
v -0.008060 0.015524 0.081602
v -0.004106 0.011045 0.085648
v -0.011960 0.013044 0.081423
v -0.013371 0.012822 0.078836
v -0.013924 0.011993 0.079952
v -0.008595 0.008503 0.085578
v 0.020485 0.011045 0.085352
v 0.018563 0.000057 0.050078
v -0.009684 0.009754 0.084993
v -0.013331 0.011750 0.081322
v 0.020486 0.000021 0.054232
v -0.010743 0.005346 0.085629
v -0.013061 0.013186 0.050078
v -0.016557 0.006612 0.081390
v -0.017111 0.007061 0.079836
v -0.002564 -0.011747 0.085627
v 0.020485 -0.010991 0.085352
v -0.012579 0.004950 0.085110
v -0.018566 0.000048 0.079918
v -0.012686 -0.000241 0.085412
v 0.000179 -0.013807 0.084996
v 0.020485 -0.013468 0.084960
v -0.013666 -0.000010 0.085044
v -0.017155 0.007054 0.050078
v -0.010652 -0.005444 0.085626
v -0.012596 -0.004918 0.085098
v -0.008399 -0.008652 0.085584
v -0.017272 0.000005 0.081918
v -0.018598 0.000030 0.050078
v -0.017126 -0.006985 0.079847
v -0.016551 -0.006579 0.081407
v -0.009681 -0.009736 0.085008
v -0.005467 -0.012137 0.085221
v -0.004106 -0.013347 0.084694
v 0.000090 -0.017451 0.081785
v 0.007410 -0.018670 0.079922
v 0.020485 -0.017144 0.081549
v 0.017433 -0.006949 0.050077
v -0.017175 -0.006995 0.050078
v -0.014064 -0.011808 0.079896
v 0.000456 -0.018637 0.079902
v 0.020485 -0.010757 0.058651
v -0.013346 -0.011714 0.081343
v -0.008054 -0.015498 0.081623
v -0.005706 -0.016759 0.081427
v 0.020493 -0.017132 0.064188
v -0.013048 -0.013191 0.050078
v -0.012850 -0.013350 0.078864
v -0.011768 -0.014077 0.079980
v -0.011907 -0.013138 0.081403
v -0.007048 -0.017118 0.079835
v -0.000096 -0.018562 0.050079
v -0.006897 -0.017212 0.050078
v 0.013156 -0.013358 0.050078
v 0.006959 -0.017401 0.050078
vn -0.0100 0.9999 -0.0030
vn -0.5456 0.8380 0.0002
vn -0.0000 -0.0000 1.0000
vn -0.6477 0.1300 0.7507
vn -0.7700 -0.4858 0.4136
vn 0.0120 -0.0000 0.9999
vn -0.8443 -0.5359 0.0016
vn 0.8032 0.3871 -0.4528
vn -0.0565 0.2846 0.9570
vn -0.1143 -0.5024 0.8571
vn -0.9792 0.2031 0.0009
vn -0.6895 0.7018 0.1791
vn -0.6444 0.6568 0.3916
vn -0.2469 -0.6071 0.7553
vn -0.1427 0.2254 0.9638
vn -0.4928 0.7726 0.4002
vn -0.5472 -0.8370 -0.0001
vn -0.8307 0.1330 0.5406
vn -0.1992 -0.2657 0.9433
vn -0.4892 -0.4630 0.7391
vn -0.2789 -0.0697 0.9578
vn 0.1608 -0.9776 -0.1356
vn 0.8975 -0.1447 -0.4167
vn 0.7178 0.4820 -0.5024
vn 1.0000 -0.0000 -0.0000
vn -0.8333 -0.1328 0.5366
vn -0.9801 -0.1986 0.0017
vn -0.8317 0.5552 -0.0019
vn -0.1644 0.9654 0.2025
vn -0.0098 0.8550 0.5185
vn -0.3653 -0.0694 0.9283
vn -0.1103 -0.1943 0.9747
vn -0.7687 0.4869 0.4148
vn 0.1162 0.9932 -0.0028
vn -0.6470 -0.1291 0.7515
vn -0.1158 0.8015 0.5867
vn 0.0866 -0.9959 -0.0254
vn -0.1880 -0.9123 0.3638
vn 0.4871 -0.7467 -0.4530
vn -0.6114 0.7913 0.0034
vn 0.4876 0.7470 -0.4519
vn 0.0186 -0.6612 0.7500
vn -0.1075 -0.0012 0.9942
vn 0.0159 0.1504 0.9885
vn 0.9033 0.1600 -0.3980
vn -0.9054 0.1923 0.3784
vn -0.5569 0.3596 0.7487
vn -0.6898 -0.6900 0.2191
vn -0.6622 -0.6536 0.3665
vn -0.1116 0.6645 0.7389
vn 0.0158 0.6702 0.7420
vn -0.1329 -0.8500 0.5097
vn -0.0047 -1.0000 -0.0024
vn -0.3496 -0.5459 0.7614
vn 0.7941 -0.3979 -0.4594
vn -0.0054 -0.8466 0.5323
vn -0.1228 -0.6544 0.7461
vn -0.1242 -0.6551 0.7452
vn -0.0029 0.9990 -0.0440
vn -0.5497 0.8353 0.0014
vn 0.0005 0.0002 1.0000
vn 0.0004 -0.0002 1.0000
vn 0.0001 -0.0000 1.0000
vn 0.0001 -0.0001 1.0000
vn 0.0003 0.0005 1.0000
vn 0.0007 0.0011 -1.0000
vn -0.0003 -0.0001 1.0000
vn -0.0001 0.0001 1.0000
vn 0.7192 -0.4799 -0.5023
vn -0.6490 0.1322 0.7492
vn -0.7717 -0.4857 0.4106
vn 0.0120 -0.0001 0.9999
vn -0.0403 0.0436 0.9982
vn -0.0020 -0.0010 1.0000
vn -0.0004 -0.0003 1.0000
vn -0.0229 -0.0291 0.9993
vn -0.8323 -0.5543 -0.0027
vn -0.4812 -0.7672 0.4240
vn -0.4855 -0.7507 0.4480
vn -0.3075 -0.2034 0.9296
vn -0.2601 -0.1950 0.9457
vn -0.3787 -0.7820 0.4951
vn -0.9045 -0.1891 0.3823
vn -0.9795 0.2013 0.0014
vn -0.3383 0.0616 0.9390
vn -0.2837 0.0615 0.9569
vn -0.3814 0.5458 0.7461
vn -0.3454 0.5458 0.7634
vn -0.6455 0.6534 0.3955
vn -0.2618 -0.6042 0.7526
vn -0.2608 0.6096 0.7486
vn -0.4977 0.7511 0.4339
vn -0.5419 -0.8402 -0.0223
vn -0.5445 -0.8387 -0.0009
vn -0.5560 -0.3505 0.7536
vn -0.5570 -0.3571 0.7498
vn 0.9049 -0.1616 -0.3938
vn -0.3073 0.2077 0.9287
vn -0.2735 0.2013 0.9406
vn 1.0000 -0.0005 -0.0000
vn 1.0000 -0.0000 -0.0001
vn 1.0000 -0.0003 0.0005
vn 1.0000 -0.0000 0.0002
vn 1.0000 0.0001 0.0002
vn 1.0000 0.0014 -0.0000
vn -0.9797 -0.2006 0.0012
vn -0.8386 0.5447 0.0011
vn -0.8397 0.5429 -0.0132
vn -0.3681 0.7890 0.4919
vn -0.1085 0.9725 0.2060
vn 0.0166 0.8431 0.5375
vn 0.0207 0.8101 0.5860
vn -0.7667 0.4869 0.4184
vn 0.0880 0.9958 -0.0269
vn -0.6495 -0.1333 0.7486
vn -0.1985 -0.9801 0.0012
vn -0.1947 -0.9809 0.0021
vn -0.1987 0.9801 -0.0002
vn -0.1985 0.9801 -0.0001
vn 0.1160 -0.9932 -0.0006
vn -0.1752 0.9174 0.3572
vn 0.0126 -0.6801 0.7330
vn 0.0120 0.1027 0.9946
vn 0.8980 0.1479 -0.4144
vn -0.5559 0.3533 0.7524
vn -0.4906 0.4622 0.7387
vn -0.6598 -0.6540 0.3700
vn 0.1589 0.9784 -0.1321
vn 0.0169 -0.1563 0.9876
vn -0.1404 0.6338 0.7607
vn 0.0213 0.6526 0.7574
vn -0.7849 -0.6196 0.0020
vn -0.0770 -0.3847 0.9198
vn 0.0065 -0.2853 0.9584
vn -0.1951 0.2706 0.9427
vn -0.3771 -0.5459 0.7482
vn -0.0596 0.3602 0.9310
vn 0.0079 0.3719 0.9282
vn 0.0190 -0.8010 0.5984
vn -0.0034 1.0000 -0.0046
vn -0.0093 0.8801 0.4746
vn 0.0014 0.8393 0.5437
vn 1.0000 0.0002 0.0002
vn 0.0213 0.6701 0.7420
vn 1.0000 0.0002 -0.0005
vn 1.0000 0.0005 -0.0012
vn -0.0204 0.9998 -0.0028
vn -0.0004 -0.0004 1.0000
vn -0.0000 0.0001 1.0000
vn 0.0001 0.0001 1.0000
vn 0.0002 -0.0000 1.0000
vn 0.0003 -0.0002 1.0000
vn 0.0007 -0.0010 1.0000
vn -0.1985 0.9801 -0.0002
vn 0.0153 0.6534 0.7568
vn 1.0000 -0.0000 0.0003
vn 1.0000 -0.0000 0.0004
vn 1.0000 -0.0001 0.0004
vn 1.0000 -0.0005 0.0005
vn 1.0000 -0.0014 -0.0032
vn -0.1987 0.9801 -0.0001
vn -0.0000 0.0005 1.0000
vn -0.1947 -0.9809 0.0011
vn -0.1985 -0.9801 0.0021
vn -0.5415 -0.8407 -0.0001
vn -0.5472 -0.8370 -0.0014
vn -0.5574 -0.8302 -0.0007
vn -0.9797 -0.2006 0.0017
vn -0.9801 -0.1986 0.0012
vn -0.9795 0.2013 0.0009
vn -0.9792 0.2031 0.0014
vn -0.8399 0.5427 0.0011
vn -0.8326 0.5539 -0.0015
vn -0.5497 0.8353 0.0004
vn -0.5456 0.8380 0.0014
vn 0.0124 -0.6612 0.7501
vn 0.0187 -0.6801 0.7329
vn -0.6605 -0.6548 0.3675
vn -0.6611 -0.6524 0.3705
vn -0.0026 -0.0003 1.0000
vn -0.0010 -0.0010 1.0000
vn -0.6459 -0.1325 0.7518
vn -0.6499 -0.1292 0.7490
vn -0.6492 0.1300 0.7494
vn -0.6471 0.1318 0.7509
s 0
f 6//1 1//1 2//1
f 16//2 33//2 20//2
f 73//3 33//3 59//3
f 34//4 48//4 38//4
f 60//5 63//5 51//5
f 36//6 37//6 27//6
f 60//7 50//7 59//7
f 5//8 14//8 15//8
f 18//9 22//9 17//9
f 53//10 54//10 41//10
f 35//11 49//11 39//11
f 20//12 24//12 25//12
f 25//13 23//13 20//13
f 65//14 54//14 53//14
f 22//15 18//15 26//15
f 20//16 21//16 16//16
f 67//17 73//17 71//17
f 48//18 34//18 39//18
f 53//19 47//19 52//19
f 63//20 70//20 52//20
f 46//21 45//21 40//21
f 75//22 66//22 72//22
f 31//23 58//23 28//23
f 9//24 5//24 15//24
f 62//25 14//25 37//25
f 48//26 39//26 51//26
f 50//27 49//27 59//27
f 24//28 33//28 44//28
f 6//29 16//29 7//29
f 3//30 8//30 1//30
f 40//31 43//31 46//31
f 36//32 47//32 53//32
f 25//33 35//33 34//33
f 5//34 1//34 4//34
f 51//35 46//35 48//35
f 8//36 7//36 11//36
f 72//37 66//37 56//37
f 65//38 71//38 61//38
f 75//39 74//39 66//39
f 20//40 33//40 24//40
f 9//41 10//41 5//41
f 57//42 41//42 55//42
f 32//43 40//43 45//43
f 17//44 27//44 13//44
f 31//45 15//45 14//45
f 34//46 35//46 39//46
f 30//47 34//47 29//47
f 60//48 68//48 69//48
f 63//49 69//49 70//49
f 8//50 11//50 12//50
f 4//51 12//51 13//51
f 61//52 55//52 65//52
f 61//53 72//53 56//53
f 52//54 64//54 53//54
f 58//55 62//55 66//55
f 55//56 61//56 56//56
f 41//57 54//57 55//57
f 55//58 54//58 65//58
f 6//59 3//59 1//59
f 16//60 19//60 33//60
f 15//61 9//61 28//61
f 74//62 58//62 28//62
f 75//63 74//63 72//63
f 74//64 28//64 72//64
f 49//3 59//3 44//3
f 59//3 33//3 44//3
f 33//3 73//3 19//3
f 19//65 28//65 2//65
f 2//66 10//66 9//66
f 2//67 28//67 9//67
f 28//68 73//68 72//68
f 73//3 59//3 67//3
f 28//3 19//3 73//3
f 74//69 58//69 66//69
f 43//70 38//70 48//70
f 51//71 50//71 60//71
f 27//72 22//72 36//72
f 22//73 26//73 32//73
f 36//74 22//74 32//74
f 32//75 45//75 36//75
f 45//76 47//76 36//76
f 59//77 67//77 60//77
f 71//78 64//78 69//78
f 64//79 70//79 69//79
f 46//80 52//80 45//80
f 45//81 52//81 47//81
f 71//82 65//82 64//82
f 51//83 39//83 50//83
f 35//84 44//84 49//84
f 40//85 38//85 43//85
f 38//86 40//86 32//86
f 21//87 23//87 29//87
f 18//88 21//88 29//88
f 25//89 30//89 23//89
f 53//90 64//90 65//90
f 21//91 18//91 11//91
f 20//92 23//92 21//92
f 69//93 68//93 71//93
f 68//94 67//94 71//94
f 52//95 46//95 51//95
f 51//96 63//96 52//96
f 31//97 62//97 58//97
f 29//98 38//98 32//98
f 32//99 26//99 29//99
f 13//25 27//25 4//25
f 27//25 37//25 14//25
f 5//100 27//100 14//100
f 37//101 42//101 57//101
f 57//102 66//102 37//102
f 62//103 31//103 14//103
f 5//104 4//104 27//104
f 66//105 62//105 37//105
f 50//106 39//106 49//106
f 44//107 35//107 24//107
f 35//108 25//108 24//108
f 21//109 11//109 16//109
f 7//110 3//110 6//110
f 7//111 8//111 3//111
f 8//112 4//112 1//112
f 34//113 30//113 25//113
f 5//114 2//114 1//114
f 46//115 43//115 48//115
f 72//116 61//116 71//116
f 71//117 73//117 72//117
f 6//118 2//118 16//118
f 16//119 2//119 19//119
f 66//120 57//120 56//120
f 11//121 7//121 16//121
f 57//122 42//122 41//122
f 17//123 22//123 27//123
f 31//124 28//124 15//124
f 38//125 29//125 34//125
f 30//126 29//126 23//126
f 63//127 60//127 69//127
f 10//128 2//128 5//128
f 36//129 42//129 37//129
f 18//130 12//130 11//130
f 4//131 8//131 12//131
f 68//132 60//132 67//132
f 36//133 53//133 41//133
f 41//134 42//134 36//134
f 18//135 29//135 26//135
f 70//136 64//136 52//136
f 12//137 18//137 17//137
f 17//138 13//138 12//138
f 56//139 57//139 55//139
f 2//140 3//140 1//140
f 3//141 7//141 1//141
f 7//142 8//142 1//142
f 13//143 5//143 4//143
f 8//144 13//144 4//144
f 66//145 31//145 5//145
f 31//146 14//146 5//146
f 13//143 66//143 5//143
f 6//147 3//147 2//147
f 9//148 2//148 15//148
f 15//149 2//149 28//149
f 28//67 2//67 58//67
f 58//149 2//149 74//149
f 74//149 2//149 75//149
f 75//149 2//149 73//149
f 73//149 2//149 67//149
f 67//150 2//150 59//150
f 59//63 2//63 49//63
f 49//151 2//151 44//151
f 44//152 2//152 33//152
f 33//153 2//153 19//153
f 19//154 6//154 2//154
f 12//155 13//155 8//155
f 27//156 66//156 13//156
f 27//157 37//157 66//157
f 37//158 42//158 66//158
f 42//159 57//159 66//159
f 62//160 31//160 66//160
f 19//161 16//161 6//161
f 72//162 75//162 73//162
f 72//163 61//163 73//163
f 61//164 71//164 73//164
f 71//165 69//165 73//165
f 69//166 67//166 73//166
f 69//167 68//167 67//167
f 50//168 39//168 59//168
f 39//169 49//169 59//169
f 39//170 44//170 49//170
f 39//171 35//171 44//171
f 35//172 25//172 44//172
f 25//173 24//173 44//173
f 20//174 19//174 33//174
f 20//175 16//175 19//175
f 22//6 37//6 27//6
f 22//72 36//72 37//72
f 41//176 55//176 42//176
f 55//177 57//177 42//177
f 70//178 60//178 69//178
f 70//179 63//179 60//179
f 32//180 45//180 22//180
f 45//181 36//181 22//181
f 46//182 43//182 51//182
f 43//183 48//183 51//183
f 43//184 34//184 48//184
f 43//185 38//185 34//185
