# Blender 4.0.0
# www.blender.org
o decimated_mesh
v 0.038994 -0.000077 0.085769
v 0.055875 0.000048 0.084883
v 0.055874 -0.013910 0.082911
v 0.047665 -0.015234 0.083158
v 0.038995 -0.015354 0.083502
v 0.055876 -0.015530 0.081770
v 0.038996 0.015358 0.083528
v 0.055875 0.014014 0.082847
v 0.046654 0.015322 0.083216
v 0.038993 -0.016200 0.081817
v 0.055876 0.015549 0.081744
v 0.038995 -0.015933 0.069147
v 0.055876 0.015593 0.071127
v 0.038994 0.016219 0.081805
v 0.038996 0.015937 0.069188
v 0.055876 -0.015482 0.070749
v 0.055875 0.014104 0.070197
v 0.038993 -0.011708 0.067817
v 0.038993 0.010942 0.067666
v 0.038993 0.000012 0.066157
v 0.055875 0.000000 0.068336
vn 1.0000 0.0014 -0.0005
vn 0.0229 0.9995 -0.0224
vn 1.0000 -0.0006 -0.0000
vn 0.1359 -0.1526 -0.9789
vn 0.0287 -0.9994 -0.0211
vn -0.1232 -0.1298 0.9838
vn 0.0413 -0.1467 0.9883
vn 0.1166 -0.5721 0.8118
vn 0.0599 0.1440 0.9878
vn 0.1144 0.5797 0.8068
vn 0.0981 -0.2990 -0.9492
vn 0.0373 -0.9094 0.4142
vn 0.1076 0.5265 -0.8434
vn 1.0000 0.0004 0.0001
vn 1.0000 0.0001 -0.0001
vn 1.0000 -0.0001 -0.0001
vn -1.0000 0.0006 -0.0002
vn 1.0000 -0.0000 -0.0000
vn 1.0000 -0.0008 -0.0003
vn 0.0397 0.9992 0.0042
vn 0.0885 0.2904 -0.9528
vn 1.0000 -0.0003 -0.0000
vn 1.0000 0.0009 -0.0000
vn 1.0000 0.0001 0.0001
vn 0.1267 -0.1391 -0.9821
vn 0.0397 -0.9992 -0.0043
vn -0.1269 -0.1356 0.9826
vn 0.0522 -0.1397 0.9888
vn 0.0530 -0.1401 0.9887
vn 0.0410 0.1436 0.9888
vn 0.0509 0.1387 0.9890
vn 0.0380 0.9237 0.3812
vn 0.0225 0.8942 0.4470
vn 0.0302 -0.8932 0.4486
vn 1.0000 0.0001 -0.0000
vn 0.0523 -0.1404 0.9887
vn 0.0530 -0.1397 0.9888
vn 1.0000 -0.0003 -0.0014
vn 1.0000 -0.0003 -0.0018
vn 1.0000 -0.0004 -0.0004
vn -0.1220 -0.1357 0.9832
vn -0.1270 -0.1298 0.9834
vn 1.0000 -0.0003 0.0016
vn 1.0000 -0.0000 0.0001
vn 1.0000 -0.0000 -0.0001
vn 1.0000 -0.0001 -0.0003
vn 1.0000 -0.0000 0.0008
s 0
f 19//1 14//1 7//1
f 14//2 13//2 15//2
f 8//3 17//3 11//3
f 18//4 21//4 16//4
f 16//5 10//5 12//5
f 21//6 17//6 19//6
f 1//7 5//7 4//7
f 4//8 6//8 3//8
f 2//9 8//9 9//9
f 8//10 11//10 9//10
f 16//11 12//11 18//11
f 4//12 10//12 6//12
f 13//13 17//13 15//13
f 12//14 18//14 10//14
f 5//15 18//15 1//15
f 1//16 19//16 7//16
f 14//17 15//17 19//17
f 19//18 1//18 20//18
f 20//18 1//18 18//18
f 18//19 5//19 10//19
f 14//20 11//20 13//20
f 17//21 19//21 15//21
f 21//18 17//18 8//18
f 13//22 11//22 17//22
f 8//18 2//18 21//18
f 2//18 3//18 21//18
f 16//23 3//23 6//23
f 16//24 21//24 3//24
f 18//25 20//25 21//25
f 16//26 6//26 10//26
f 21//27 19//27 20//27
f 4//28 3//28 2//28
f 1//29 4//29 2//29
f 7//30 1//30 9//30
f 1//31 2//31 9//31
f 9//32 11//32 14//32
f 14//33 7//33 9//33
f 4//34 5//34 10//34
f 20//35 1//35 5//35
f 4//36 3//36 1//36
f 3//37 2//37 1//37
f 7//38 1//38 14//38
f 14//18 1//18 20//18
f 18//39 20//39 12//39
f 12//24 20//24 10//24
f 10//40 20//40 5//40
f 14//18 20//18 19//18
f 19//41 20//41 17//41
f 17//42 20//42 21//42
f 6//43 2//43 3//43
f 6//44 8//44 2//44
f 6//35 16//35 21//35
f 17//45 6//45 21//45
f 13//46 6//46 17//46
f 13//18 11//18 6//18
f 11//47 8//47 6//47
