# Blender 4.0.0
# www.blender.org
o decimated_mesh
v -0.018598 0.000024 -0.049890
v -0.018567 0.000005 -0.079764
v -0.016559 -0.006559 -0.081240
v -0.017114 -0.006974 -0.079714
v -0.017158 -0.007003 -0.049890
v -0.017272 0.000021 -0.081765
v -0.013968 -0.011894 -0.079749
v -0.017204 0.007013 -0.078682
v -0.016982 0.007114 -0.080010
v -0.016713 0.006236 -0.081191
v -0.013043 -0.011989 -0.081257
v -0.013995 0.011924 -0.079841
v -0.015610 0.007934 -0.081459
v -0.017184 0.006996 -0.049890
v -0.012611 -0.004883 -0.084939
v -0.011572 -0.013424 -0.081147
v -0.012010 -0.013722 -0.080017
v -0.012740 -0.013380 -0.078724
v -0.013134 0.013175 -0.078514
v -0.013067 0.012041 -0.081256
v -0.012582 0.005073 -0.084939
v -0.013408 0.000063 -0.085048
v -0.010776 -0.005188 -0.085476
v -0.009663 -0.009703 -0.084856
v -0.007958 -0.015535 -0.081460
v -0.006950 -0.017089 -0.079684
v -0.011689 0.014190 -0.079802
v -0.011587 0.013490 -0.081168
v -0.010674 0.005387 -0.085480
v -0.008648 -0.008431 -0.085428
v -0.005673 -0.016714 -0.081278
v -0.013125 -0.013051 -0.049890
v -0.008075 0.015546 -0.081459
v -0.009631 0.009813 -0.084864
v -0.008597 0.008590 -0.085419
v -0.004869 -0.012434 -0.085049
v -0.000156 -0.018122 -0.080472
v -0.000717 -0.018424 -0.078762
v -0.013133 0.013157 -0.049890
v -0.006918 0.017113 -0.079954
v -0.005655 0.016814 -0.081278
v -0.005086 0.010928 -0.085474
v -0.004108 -0.010991 -0.085500
v 0.000205 -0.013548 -0.084984
v 0.000213 -0.017311 -0.081755
v 0.002489 -0.018636 -0.079598
v -0.007192 -0.017051 -0.049890
v -0.007044 0.017227 -0.078620
v 0.000414 0.018688 -0.079739
v -0.004957 0.012614 -0.084971
v -0.000099 -0.018507 -0.049887
v -0.007009 0.017204 -0.049890
v -0.000275 0.012552 -0.085298
v 0.000307 0.013883 -0.084824
v 0.007094 -0.018585 -0.080089
v 0.000245 0.017479 -0.081674
v 0.018715 -0.013593 -0.084743
v 0.018715 -0.017193 -0.081381
v -0.000081 0.018580 -0.049887
v 0.007408 0.018728 -0.079766
v 0.018715 -0.017345 -0.065201
v 0.018715 0.017291 -0.081369
v 0.018715 0.013422 -0.084888
v 0.018715 -0.012197 -0.085171
v 0.006956 -0.017371 -0.049890
v 0.018715 -0.017014 -0.062428
v 0.018715 0.017381 -0.064291
v 0.018718 -0.009491 -0.054813
v 0.013409 -0.013112 -0.049890
v 0.018716 0.017098 -0.062408
v 0.006993 0.017416 -0.049890
v 0.018715 0.011045 -0.085256
v 0.017466 -0.006784 -0.049890
v 0.013415 0.013181 -0.049890
v 0.017476 0.006809 -0.049890
v 0.018569 0.000046 -0.049891
v 0.018715 0.009550 -0.054795
vn -0.9045 -0.1909 -0.3814
vn 1.0000 -0.0002 -0.0001
vn -0.0000 -0.0000 -1.0000
vn -0.7497 0.4807 -0.4549
vn -0.8317 -0.1332 -0.5391
vn -0.5215 0.8446 -0.1210
vn 0.0195 -0.6511 -0.7587
vn -0.9667 0.2105 -0.1458
vn -0.5443 0.3508 -0.7620
vn -0.2097 -0.9778 0.0017
vn -0.1585 0.0011 -0.9874
vn -0.1835 0.9065 -0.3803
vn 0.0143 0.6728 -0.7397
vn -0.6465 0.1277 -0.7522
vn -0.5398 -0.8418 -0.0033
vn -0.6497 -0.6344 -0.4188
vn -0.6832 -0.7024 -0.2000
vn 0.0051 0.3338 -0.9426
vn -0.1949 0.9808 0.0010
vn 0.4936 0.7483 0.4432
vn -0.3450 0.5468 -0.7629
vn -0.2907 -0.0679 -0.9544
vn -0.2812 -0.1983 -0.9389
vn -0.8435 0.5274 -0.1012
vn -0.7490 0.4860 -0.4504
vn -0.3705 -0.7930 -0.4835
vn 0.6826 -0.6983 0.2156
vn -0.6432 0.6611 -0.3863
vn -0.8345 0.5506 0.0222
vn 0.0833 0.9962 0.0258
vn -0.0353 -0.9049 -0.4242
vn -0.2740 0.1957 -0.9416
vn -0.1424 -0.2256 -0.9637
vn 0.9350 -0.1510 0.3208
vn 0.1544 -0.9811 0.1169
vn -0.2824 0.0673 -0.9569
vn -0.2060 0.9732 -0.1023
vn -0.7686 -0.4886 -0.4128
vn -0.7699 -0.6382 -0.0030
vn -0.0663 -0.9978 -0.0015
vn -0.4893 -0.7749 -0.4002
vn -0.6479 -0.1301 -0.7505
vn -0.7502 -0.4781 -0.4567
vn 0.0115 -0.9999 0.0053
vn 0.1179 -0.9930 -0.0093
vn -0.1922 0.2662 -0.9446
vn 0.0087 0.0822 -0.9966
vn -0.8425 -0.5387 -0.0018
vn 0.1610 0.9785 0.1286
vn -0.8335 0.1247 -0.5382
vn -0.5512 0.8343 0.0014
vn -0.3648 0.7706 -0.5226
vn 0.4940 -0.7487 0.4421
vn -0.0001 0.0012 -1.0000
vn -0.1283 -0.8210 -0.5563
vn -0.9800 0.1988 0.0008
vn -0.0058 1.0000 0.0035
vn -0.9790 -0.2038 -0.0009
vn -0.0070 0.8484 -0.5293
vn -1.0000 0.0004 -0.0000
vn 1.0000 -0.0000 -0.0000
vn 1.0000 -0.0000 0.0001
vn 1.0000 -0.0000 -0.0001
vn 1.0000 0.0002 -0.0000
vn 1.0000 -0.0001 -0.0000
vn 1.0000 -0.0008 -0.0006
vn 0.9996 0.0001 0.0299
vn 0.0005 -0.0002 -1.0000
vn -0.0002 -0.0000 -1.0000
vn 0.0005 0.0003 -1.0000
vn 0.0005 0.0008 1.0000
vn -0.0006 0.0009 -1.0000
vn 0.0003 0.0005 -1.0000
vn 0.0003 -0.0004 -1.0000
vn 0.0180 -0.7569 -0.6533
vn -0.0252 -0.8416 -0.5396
vn -0.7509 0.4699 -0.4640
vn 0.0079 -0.6825 -0.7308
vn -0.5450 0.3745 -0.7502
vn -0.1925 -0.2710 -0.9431
vn -0.1301 0.8460 -0.5171
vn -0.2011 -0.9796 -0.0004
vn 0.0191 0.6589 -0.7520
vn -0.6433 0.1225 -0.7557
vn 0.0040 -0.1911 -0.9816
vn -0.1810 -0.9151 -0.3604
vn -0.5590 -0.8292 0.0020
vn -0.6408 -0.6833 -0.3500
vn -0.0604 0.3585 -0.9316
vn -0.1922 0.9814 0.0004
vn -0.4489 0.5034 -0.7383
vn -0.3816 0.5464 -0.7455
vn -0.3061 -0.2032 -0.9301
vn -0.2559 -0.6116 -0.7486
vn -0.7656 0.4205 -0.4869
vn -0.7554 0.4847 -0.4409
vn -0.6406 0.6763 -0.3636
vn -0.8356 0.5493 0.0009
vn -0.8344 0.5512 0.0003
vn -0.6030 0.2733 -0.7494
vn -0.5564 -0.3579 -0.7499
vn -0.5556 -0.3528 -0.7529
vn 0.1254 0.9921 -0.0052
vn -0.2977 0.2001 -0.9335
vn -0.0479 -0.2744 -0.9604
vn 0.1579 -0.9802 0.1196
vn -0.3833 -0.5459 -0.7451
vn -0.4418 -0.5093 -0.7385
vn -0.3417 -0.5455 -0.7653
vn -0.7570 -0.4888 -0.4336
vn -0.1362 0.6514 -0.7464
vn -0.1233 0.6436 -0.7554
vn -0.5477 -0.8319 -0.0893
vn -0.1321 -0.6457 -0.7521
vn -0.1264 -0.6424 -0.7559
vn -0.2648 0.6115 -0.7456
vn 0.0117 -0.2930 -0.9560
vn -0.4887 -0.7783 -0.3942
vn -0.6420 -0.1202 -0.7572
vn -0.7512 -0.4686 -0.4648
vn -0.4826 0.7651 -0.4263
vn -0.4828 0.7644 -0.4273
vn -0.1189 -0.9704 -0.2101
vn -0.1720 -0.9589 -0.2255
vn 0.0790 -0.9966 0.0214
vn -0.1978 0.2944 -0.9350
vn 0.9351 0.1511 0.3206
vn 0.0143 0.1530 -0.9881
vn -0.8320 -0.5548 0.0020
vn 0.1824 0.9723 0.1461
vn -0.5532 0.8323 0.0351
vn -0.5540 0.8325 0.0005
vn -0.9164 0.1922 -0.3512
vn -0.0629 0.2900 -0.9550
vn 0.0142 -0.0036 -0.9999
vn -0.0381 -0.0397 -0.9985
vn -0.0039 -0.0003 -1.0000
vn -0.0500 0.0515 -0.9974
vn 0.0092 0.0016 -1.0000
vn -0.9816 0.1911 -0.0011
vn -0.9796 -0.2008 -0.0016
vn 0.0180 0.8042 -0.5941
vn -0.9796 -0.2008 -0.0009
vn 0.0001 -0.0000 -1.0000
vn 0.0002 -0.0000 -1.0000
vn -0.9790 -0.2038 -0.0016
vn 0.0005 -0.0008 -1.0000
vn 0.0003 -0.0002 -1.0000
vn -0.0000 0.0001 -1.0000
vn 0.0003 -0.0000 -1.0000
vn -0.0004 -0.0000 -1.0000
vn -0.0003 -0.0001 -1.0000
vn -0.0000 0.0002 -1.0000
vn -0.0003 -0.0003 -1.0000
vn -0.8356 0.5493 0.0014
vn -0.8370 0.5472 0.0009
vn -0.6617 -0.6552 -0.3646
vn 1.0000 -0.0001 -0.0005
vn 1.0000 0.0001 -0.0000
vn -0.5476 0.8368 0.0014
vn -0.5512 0.8343 0.0022
vn -0.5744 0.8186 0.0005
vn -0.8240 0.5666 0.0004
vn -0.2094 -0.9778 -0.0004
vn -0.2011 -0.9796 0.0015
vn 0.1557 -0.9809 0.1169
vn 0.1579 -0.9801 0.1202
vn -0.7456 0.4780 -0.4643
vn -0.7746 0.4500 -0.4444
vn -0.7727 -0.4507 -0.4470
vn -0.7466 -0.4758 -0.4651
vn -0.6482 0.6659 -0.3695
vn -0.6193 -0.6663 -0.4154
vn -0.4909 -0.7767 -0.3946
vn 1.0000 0.0002 0.0004
vn 0.0191 0.6728 -0.7396
vn 1.0000 -0.0003 -0.0000
vn 1.0000 -0.0001 -0.0001
vn 0.0139 0.6589 -0.7521
vn -0.1238 0.6526 -0.7475
vn -0.1336 0.6417 -0.7552
vn -0.6323 0.6695 -0.3898
vn -0.4876 -0.7753 -0.4015
vn -0.1311 -0.6415 -0.7559
vn 0.0191 -0.6824 -0.7307
vn 0.0083 -0.6512 -0.7588
vn -0.1265 -0.6462 -0.7526
s 0
f 3//1 4//1 2//1
f 68//2 61//2 64//2
f 47//3 52//3 76//3
f 69//4 73//4 68//4
f 2//5 6//5 3//5
f 48//6 40//6 27//6
f 44//7 58//7 45//7
f 2//8 8//8 9//8
f 34//9 21//9 13//9
f 26//10 38//10 51//10
f 23//11 22//11 29//11
f 41//12 40//12 49//12
f 54//13 62//13 63//13
f 6//14 10//14 21//14
f 47//15 18//15 26//15
f 7//16 16//16 17//16
f 7//17 17//17 18//17
f 63//18 53//18 54//18
f 59//19 48//19 52//19
f 74//20 70//20 71//20
f 34//21 33//21 50//21
f 23//22 15//22 22//22
f 23//23 30//23 24//23
f 8//24 12//24 9//24
f 20//25 13//25 12//25
f 26//26 25//26 31//26
f 12//27 27//27 19//27
f 28//28 12//28 27//28
f 19//29 12//29 8//29
f 67//30 60//30 59//30
f 46//31 37//31 55//31
f 34//32 35//32 29//32
f 30//33 43//33 36//33
f 73//34 68//34 76//34
f 65//35 61//35 66//35
f 21//36 29//36 22//36
f 40//37 48//37 49//37
f 7//38 4//38 3//38
f 18//39 32//39 7//39
f 38//40 46//40 51//40
f 17//41 25//41 26//41
f 3//42 6//42 15//42
f 77//43 75//43 74//43
f 46//44 55//44 51//44
f 61//45 55//45 58//45
f 42//46 35//46 34//46
f 53//47 72//47 42//47
f 7//48 5//48 4//48
f 71//49 67//49 59//49
f 2//50 10//50 6//50
f 39//51 52//51 48//51
f 33//52 40//52 41//52
f 69//53 65//53 66//53
f 43//54 29//54 42//54
f 31//55 45//55 37//55
f 8//56 1//56 14//56
f 49//57 59//57 60//57
f 4//58 1//58 2//58
f 56//59 49//59 60//59
f 68//60 61//60 66//60
f 61//61 58//61 64//61
f 64//62 58//62 57//62
f 64//63 72//63 68//63
f 68//64 72//64 77//64
f 72//62 63//62 62//62
f 62//61 67//61 72//61
f 72//65 67//65 77//65
f 70//66 77//66 67//66
f 77//67 76//67 68//67
f 73//68 69//68 76//68
f 69//69 51//69 76//69
f 76//70 74//70 75//70
f 71//71 59//71 74//71
f 52//3 14//3 39//3
f 14//3 5//3 1//3
f 32//3 52//3 47//3
f 51//72 69//72 65//72
f 76//69 59//69 74//69
f 59//73 76//73 52//73
f 14//3 32//3 5//3
f 47//74 76//74 51//74
f 52//3 32//3 14//3
f 45//75 58//75 55//75
f 55//76 37//76 45//76
f 69//77 68//77 66//77
f 44//78 57//78 58//78
f 13//79 20//79 34//79
f 36//80 24//80 30//80
f 56//81 41//81 49//81
f 51//82 47//82 26//82
f 54//83 56//83 62//83
f 21//84 22//84 6//84
f 44//85 43//85 64//85
f 31//86 37//86 26//86
f 47//87 32//87 18//87
f 7//88 11//88 16//88
f 50//89 54//89 53//89
f 59//90 49//90 48//90
f 20//91 28//91 34//91
f 28//92 33//92 34//92
f 24//93 15//93 23//93
f 31//94 25//94 36//94
f 10//95 9//95 13//95
f 9//96 12//96 13//96
f 28//97 20//97 12//97
f 8//98 14//98 39//98
f 39//99 19//99 8//99
f 21//100 10//100 13//100
f 11//101 3//101 24//101
f 24//102 3//102 15//102
f 67//103 62//103 60//103
f 21//104 34//104 29//104
f 44//105 36//105 43//105
f 65//106 51//106 61//106
f 25//107 16//107 24//107
f 16//108 11//108 24//108
f 24//109 36//109 25//109
f 3//110 11//110 7//110
f 54//111 50//111 56//111
f 56//112 50//112 41//112
f 26//113 18//113 17//113
f 36//114 44//114 45//114
f 31//115 36//115 45//115
f 50//116 33//116 41//116
f 57//117 44//117 64//117
f 17//118 16//118 25//118
f 22//119 15//119 6//119
f 77//120 74//120 70//120
f 27//121 40//121 33//121
f 33//122 28//122 27//122
f 46//123 38//123 37//123
f 38//124 26//124 37//124
f 61//125 51//125 55//125
f 34//126 50//126 42//126
f 75//127 76//127 77//127
f 53//128 63//128 72//128
f 7//129 32//129 5//129
f 71//130 70//130 67//130
f 48//131 27//131 19//131
f 19//132 39//132 48//132
f 10//133 2//133 9//133
f 50//134 53//134 42//134
f 72//135 64//135 43//135
f 30//136 23//136 43//136
f 23//137 29//137 43//137
f 35//138 42//138 29//138
f 42//139 72//139 43//139
f 8//140 2//140 1//140
f 4//141 5//141 1//141
f 60//142 62//142 56//142
f 2//143 5//143 1//143
f 5//144 1//144 59//144
f 59//145 1//145 14//145
f 4//146 5//146 2//146
f 32//144 5//144 59//144
f 52//147 59//147 39//147
f 39//148 59//148 14//148
f 32//149 59//149 47//149
f 47//150 59//150 51//150
f 51//151 59//151 65//151
f 65//149 59//149 69//149
f 69//149 59//149 73//149
f 73//152 59//152 76//152
f 76//153 59//153 75//153
f 75//154 59//154 74//154
f 39//155 12//155 14//155
f 12//156 8//156 14//156
f 11//157 17//157 7//157
f 70//158 68//158 67//158
f 68//159 62//159 67//159
f 27//160 52//160 48//160
f 27//161 39//161 52//161
f 27//162 19//162 39//162
f 19//163 12//163 39//163
f 26//164 38//164 47//164
f 38//165 51//165 47//165
f 61//166 66//166 51//166
f 66//167 65//167 51//167
f 66//168 69//168 73//168
f 66//169 73//169 68//169
f 77//170 75//170 70//170
f 70//171 75//171 74//171
f 27//172 20//172 12//172
f 16//173 17//173 11//173
f 16//174 26//174 17//174
f 77//175 68//175 70//175
f 63//176 56//176 62//176
f 68//159 63//159 62//159
f 61//177 58//177 68//177
f 58//178 57//178 68//178
f 57//63 64//63 68//63
f 72//63 63//63 68//63
f 63//179 54//179 56//179
f 54//180 41//180 56//180
f 54//181 50//181 41//181
f 28//182 20//182 27//182
f 16//183 25//183 26//183
f 44//184 31//184 36//184
f 45//185 57//185 58//185
f 45//186 44//186 57//186
f 44//187 45//187 31//187
