# Blender 4.0.0
# www.blender.org
o decimated_mesh
v 0.110237 -0.000027 0.074909
v 0.110675 -0.010992 0.073186
v 0.110218 -0.013145 0.072915
v 0.110222 0.013209 0.072901
v 0.121808 -0.010992 0.065940
v 0.123824 0.000018 0.066174
v 0.122971 -0.012739 0.064542
v 0.123853 -0.009768 0.064446
v 0.125816 -0.011977 0.061407
v 0.121798 0.011046 0.065933
v 0.112351 -0.013670 0.071319
v 0.110222 -0.014041 0.071708
v 0.122287 -0.013661 0.064753
v 0.125812 0.013135 0.060950
v 0.123851 0.009806 0.064444
v 0.122653 0.013711 0.064440
v 0.112206 0.013699 0.071397
v 0.125747 -0.013456 0.060815
v 0.121357 -0.014032 0.063660
v 0.125816 0.000012 0.063458
v 0.125820 -0.013731 0.059590
v 0.121357 0.014033 0.063660
v 0.110222 -0.014143 0.067046
v 0.125816 0.013720 0.059791
v 0.125816 0.013575 0.054868
v 0.125816 -0.013659 0.055385
v 0.110222 -0.013787 0.065691
v 0.110221 0.014047 0.071682
v 0.110222 -0.012686 0.065115
v 0.125816 -0.013289 0.054401
v 0.110222 0.014170 0.067092
v 0.125816 -0.010556 0.053380
v 0.110221 0.013725 0.065561
v 0.125816 0.011987 0.053731
v 0.125816 -0.000819 0.052678
v 0.125816 0.009281 0.053220
v 0.110222 -0.000819 0.063965
v 0.110222 0.009731 0.064610
vn 1.0000 0.0001 -0.0001
vn 0.2202 0.8040 0.5523
vn 0.5289 0.1278 0.8390
vn 0.8005 -0.1010 0.5907
vn 0.5422 -0.1092 0.8331
vn 0.0446 0.9986 -0.0294
vn 0.1718 0.9779 0.1189
vn -0.5801 0.1884 -0.7924
vn 0.3124 -0.9226 0.2264
vn -0.5858 0.0434 -0.8093
vn 1.0000 -0.0000 -0.0000
vn 0.5499 -0.2181 0.8062
vn -0.2194 -0.9133 -0.3433
vn -0.0044 -0.9989 -0.0474
vn 0.2073 0.9269 0.3129
vn 0.5520 0.7437 0.3771
vn -0.1230 0.1493 -0.9811
vn -0.1582 -0.9549 -0.2512
vn -0.5927 -0.0777 -0.8017
vn -0.5492 -0.2925 -0.7829
vn 0.7492 -0.2018 0.6308
vn -0.1788 0.9449 -0.2741
vn 0.6335 0.1330 0.7623
vn 0.8196 0.1078 0.5627
vn 0.1326 0.9742 0.1824
vn 0.7403 0.2278 0.6325
vn 1.0000 0.0001 -0.0014
vn -1.0000 -0.0001 -0.0006
vn 1.0000 -0.0013 -0.0013
vn 1.0000 0.0038 0.0008
vn 1.0000 0.0010 -0.0005
vn 1.0000 0.0021 0.0003
vn 1.0000 0.0004 -0.0007
vn 0.5368 0.1168 0.8356
vn 0.8021 -0.1015 0.5885
vn 0.5374 -0.1162 0.8353
vn -0.0045 0.9985 -0.0543
vn 0.0205 0.9994 0.0268
vn 0.2051 -0.9666 0.1536
vn -0.5802 0.1511 -0.8003
vn 0.5328 0.2869 0.7961
vn 0.5323 0.2775 0.7998
vn -0.5882 0.0494 -0.8072
vn 1.0000 0.0002 -0.0008
vn 1.0000 -0.0004 0.0007
vn 1.0000 -0.0069 0.0003
vn 1.0000 0.0004 0.0003
vn 1.0000 0.0001 -0.0000
vn 0.9940 -0.0777 0.0770
vn 1.0000 -0.0008 -0.0011
vn 1.0000 0.0001 0.0003
vn 1.0000 0.0018 0.0003
vn -0.4831 0.5098 -0.7118
vn 0.2415 -0.7789 0.5788
vn 0.2205 -0.9170 0.3324
vn 0.7029 -0.3858 0.5976
vn 0.7439 -0.2785 0.6075
vn 0.6351 -0.1325 0.7610
vn 0.6448 -0.1671 0.7458
vn 0.5322 -0.2625 0.8049
vn 0.5301 -0.2362 0.8144
vn 0.5714 -0.2458 0.7830
vn -0.5310 -0.3929 -0.7508
vn 0.0515 -0.9985 -0.0172
vn 0.0167 -0.9996 0.0220
vn -0.5853 -0.0583 -0.8087
vn 0.1476 -0.9680 0.2030
vn 0.6519 0.2007 0.7313
vn 0.8023 0.1017 0.5882
vn 1.0000 -0.0002 -0.0084
vn 0.5378 -0.1099 0.8359
vn 0.5418 -0.1169 0.8324
vn 0.8001 -0.1020 0.5911
vn 0.8022 -0.1006 0.5886
vn 0.5330 0.2771 0.7995
vn 0.5288 0.2983 0.7946
vn 1.0000 -0.0002 -0.0013
vn 0.5326 -0.2159 0.8183
vn 1.0000 -0.0001 0.0002
vn 1.0000 -0.0003 -0.0005
vn 1.0000 0.0001 0.0008
vn 1.0000 -0.0000 0.0004
vn 1.0000 0.0003 0.0006
vn 1.0000 0.0017 0.0004
vn 1.0000 0.0050 -0.0001
vn 0.5288 -0.2843 0.7997
vn 0.5329 -0.2622 0.8045
vn 1.0000 0.0011 0.0043
vn 1.0000 -0.0003 0.0024
vn 1.0000 0.0001 0.0006
vn 1.0000 0.0001 0.0001
vn 1.0000 -0.0039 -0.0012
vn 1.0000 -0.0003 -0.0008
vn 1.0000 -0.0000 -0.0007
vn 1.0000 -0.0000 -0.0006
vn 1.0000 0.0001 -0.0003
s 0
f 38//1 31//1 4//1
f 28//2 4//2 17//2
f 10//3 4//3 1//3
f 20//4 8//4 9//4
f 5//5 1//5 2//5
f 22//6 24//6 25//6
f 24//7 22//7 16//7
f 38//8 33//8 34//8
f 18//9 13//9 21//9
f 36//10 35//10 37//10
f 35//11 36//11 20//11
f 2//12 3//12 11//12
f 30//13 26//13 27//13
f 26//14 19//14 23//14
f 16//15 28//15 17//15
f 16//16 14//16 24//16
f 3//17 1//17 2//17
f 23//18 27//18 26//18
f 37//19 32//19 29//19
f 29//20 32//20 30//20
f 8//21 7//21 9//21
f 31//22 25//22 33//22
f 15//23 10//23 6//23
f 15//24 20//24 14//24
f 28//25 16//25 22//25
f 16//26 15//26 14//26
f 38//27 1//27 37//27
f 37//28 29//28 3//28
f 1//29 3//29 37//29
f 29//11 23//11 27//11
f 23//11 29//11 12//11
f 29//30 3//30 12//30
f 1//31 38//31 4//31
f 28//32 4//32 31//32
f 33//33 31//33 38//33
f 6//34 10//34 1//34
f 20//35 6//35 8//35
f 5//36 6//36 1//36
f 25//37 31//37 22//37
f 31//38 28//38 22//38
f 21//39 13//39 19//39
f 34//40 36//40 38//40
f 4//41 10//41 17//41
f 17//42 10//42 16//42
f 37//43 38//43 36//43
f 36//44 34//44 25//44
f 14//45 36//45 25//45
f 25//46 24//46 14//46
f 14//47 20//47 36//47
f 20//48 9//48 32//48
f 9//49 18//49 21//49
f 21//50 26//50 32//50
f 32//51 26//51 30//51
f 32//52 9//52 21//52
f 32//11 35//11 20//11
f 25//53 34//53 33//53
f 12//54 11//54 3//54
f 12//55 13//55 11//55
f 13//56 18//56 7//56
f 7//57 18//57 9//57
f 6//58 5//58 8//58
f 5//59 7//59 8//59
f 11//60 13//60 5//60
f 2//61 11//61 5//61
f 7//62 5//62 13//62
f 30//63 27//63 29//63
f 21//64 19//64 26//64
f 19//65 12//65 23//65
f 35//66 32//66 37//66
f 12//67 19//67 13//67
f 15//68 16//68 10//68
f 15//69 6//69 20//69
f 4//70 1//70 3//70
f 2//71 6//71 1//71
f 2//72 5//72 6//72
f 8//73 9//73 6//73
f 9//74 20//74 6//74
f 16//75 4//75 10//75
f 16//76 17//76 4//76
f 28//77 4//77 3//77
f 5//78 2//78 3//78
f 28//79 3//79 31//79
f 31//80 3//80 33//80
f 33//81 3//81 38//81
f 38//82 3//82 37//82
f 29//83 3//83 27//83
f 27//84 3//84 23//84
f 23//85 3//85 12//85
f 11//86 13//86 3//86
f 13//87 5//87 3//87
f 24//88 14//88 20//88
f 9//89 21//89 20//89
f 21//90 24//90 20//90
f 21//91 25//91 24//91
f 26//92 30//92 21//92
f 30//93 32//93 21//93
f 32//94 35//94 21//94
f 35//95 36//95 21//95
f 36//96 34//96 21//96
f 34//95 25//95 21//95
