# Blender 4.0.0
# www.blender.org
o decimated_mesh
v 0.018715 0.000875 -0.051279
v 0.041686 0.000053 -0.067014
v 0.041688 0.015485 -0.069209
v 0.018715 0.011781 -0.056941
v 0.018716 0.008148 -0.053927
v 0.041686 0.016147 -0.070764
v 0.018715 0.017099 -0.062399
v 0.018715 -0.000817 -0.051285
v 0.018715 -0.008015 -0.053906
v 0.041688 -0.015409 -0.069229
v 0.018715 -0.017017 -0.062429
v 0.041686 -0.016056 -0.070828
v 0.018715 -0.010312 -0.055717
v 0.018715 0.017383 -0.064291
v 0.018716 -0.017322 -0.064081
v 0.041686 0.016132 -0.081758
v 0.018715 0.017333 -0.081247
v 0.041686 0.015474 -0.083246
v 0.041685 -0.016030 -0.081772
v 0.018716 0.013500 -0.084870
v 0.018716 -0.017232 -0.081279
v 0.041687 -0.015386 -0.083294
v 0.041687 0.000263 -0.085546
v 0.018715 0.011046 -0.085258
v 0.018716 -0.013414 -0.084854
v 0.018715 -0.010992 -0.085271
vn -0.0091 -0.6834 -0.7300
vn 1.0000 -0.0000 0.0001
vn 0.5641 -0.1170 0.8174
vn 0.0535 -0.9986 -0.0052
vn 0.1732 -0.9131 0.3691
vn -0.0077 0.6869 -0.7267
vn 0.0522 -0.1696 -0.9841
vn 0.1777 0.9057 0.3849
vn 0.4584 0.3041 0.8351
vn 0.2944 0.6101 0.7356
vn 0.3087 -0.5888 0.7470
vn 0.5641 0.1161 0.8175
vn 1.0000 -0.0000 -0.0000
vn 0.2505 -0.6849 0.6842
vn 0.2491 0.6937 0.6759
vn 1.0000 0.0001 0.0008
vn 1.0000 0.0001 -0.0000
vn 1.0000 -0.0005 -0.0020
vn 1.0000 0.0005 -0.0020
vn 1.0000 -0.0001 0.0001
vn 0.4590 -0.3040 0.8348
vn 0.0388 0.9140 -0.4038
vn 0.0522 -0.9986 -0.0024
vn 0.0578 -0.1422 -0.9881
vn 0.0946 0.9845 0.1478
vn 0.0529 0.9986 -0.0030
vn 0.0522 0.9986 -0.0014
vn 1.0000 -0.0006 0.0006
vn -1.0000 0.0005 -0.0009
vn 1.0000 0.0004 0.0005
vn 0.0398 -0.9205 -0.3888
vn 0.0569 0.1493 -0.9872
vn 0.0608 0.1559 -0.9859
vn -0.0123 0.0006 -0.9999
vn 0.1069 -0.9777 0.1805
vn 0.5651 -0.0033 0.8250
vn 1.0000 0.0041 -0.0000
vn 1.0000 -0.0000 0.0013
vn 1.0000 -0.0000 -0.0001
vn 1.0000 0.0001 -0.0002
vn 1.0000 0.0006 -0.0002
vn 1.0000 -0.0002 -0.0000
vn 0.0521 0.9986 -0.0030
vn 1.0000 0.0001 -0.0009
vn 1.0000 0.0002 0.0004
vn 0.0533 0.9986 -0.0014
vn 1.0000 -0.0042 -0.0001
vn 1.0000 -0.0019 -0.0000
vn 0.0577 0.1493 -0.9871
vn 0.0563 0.1559 -0.9862
vn 0.0522 -0.9986 -0.0052
vn 0.0543 -0.9985 -0.0024
s 0
f 21//1 25//1 22//1
f 6//2 2//2 23//2
f 10//3 2//3 8//3
f 12//4 15//4 21//4
f 10//5 11//5 12//5
f 17//6 18//6 20//6
f 26//7 22//7 25//7
f 6//8 7//8 3//8
f 3//9 5//9 1//9
f 5//10 3//10 4//10
f 13//11 10//11 9//11
f 2//12 3//12 1//12
f 13//13 4//13 5//13
f 13//14 11//14 10//14
f 3//15 7//15 4//15
f 12//13 19//13 2//13
f 22//16 23//16 19//16
f 23//17 18//17 16//17
f 16//17 6//17 23//17
f 3//18 2//18 6//18
f 2//19 10//19 12//19
f 23//20 2//20 19//20
f 8//21 9//21 10//21
f 17//22 16//22 18//22
f 21//23 19//23 12//23
f 26//24 23//24 22//24
f 14//25 7//25 6//25
f 14//26 6//26 17//26
f 6//27 16//27 17//27
f 11//28 15//28 13//28
f 9//13 1//13 8//13
f 1//13 9//13 5//13
f 9//13 13//13 5//13
f 4//13 14//13 7//13
f 14//17 24//17 17//17
f 20//29 24//29 17//29
f 24//13 4//13 26//13
f 14//13 4//13 24//13
f 26//30 21//30 25//30
f 21//17 26//17 15//17
f 26//13 4//13 15//13
f 15//2 4//2 13//2
f 22//31 19//31 21//31
f 18//32 23//32 20//32
f 23//33 24//33 20//33
f 26//34 24//34 23//34
f 12//35 11//35 15//35
f 2//36 1//36 8//36
f 5//13 1//13 17//13
f 17//13 1//13 8//13
f 16//37 6//37 3//37
f 2//38 10//38 3//38
f 10//39 22//39 3//39
f 22//39 23//39 3//39
f 23//40 18//40 3//40
f 18//41 16//41 3//41
f 4//13 5//13 17//13
f 7//42 17//42 14//42
f 14//43 16//43 17//43
f 24//2 17//2 26//2
f 26//44 17//44 25//44
f 25//2 17//2 21//2
f 21//13 17//13 15//13
f 15//45 17//45 11//45
f 11//13 17//13 13//13
f 13//13 17//13 9//13
f 9//13 17//13 8//13
f 4//13 17//13 7//13
f 14//46 6//46 16//46
f 12//47 22//47 10//47
f 12//48 19//48 22//48
f 24//49 18//49 23//49
f 24//50 20//50 18//50
f 19//51 15//51 21//51
f 19//52 12//52 15//52
