# Blender 4.0.0
# www.blender.org
o decimated_mesh
v 0.041691 0.016113 -0.081768
v 0.067448 0.015400 -0.081166
v 0.041691 0.016162 -0.070718
v 0.092134 0.014921 -0.076743
v 0.041697 0.015357 -0.083376
v 0.085139 0.013744 -0.079636
v 0.092144 0.014972 -0.071984
v 0.092135 0.013931 -0.078400
v 0.092143 0.013837 -0.069777
v 0.041691 0.015460 -0.069177
v 0.092119 -0.000105 -0.080072
v 0.041690 0.000020 -0.085559
v 0.041691 -0.000072 -0.067026
v 0.092141 -0.013833 -0.078419
v 0.092144 0.000041 -0.068308
v 0.085064 -0.013729 -0.079622
v 0.092138 -0.014859 -0.076738
v 0.066399 -0.015239 -0.081319
v 0.041698 -0.015353 -0.083358
v 0.041691 -0.016007 -0.081786
v 0.092144 -0.012686 -0.069512
v 0.092144 -0.014111 -0.070284
v 0.041691 -0.015388 -0.069200
v 0.041691 -0.016057 -0.070700
v 0.092144 -0.014875 -0.071984
vn 1.0000 -0.0001 -0.0001
vn 0.0214 0.9997 -0.0109
vn 0.1048 -0.8489 -0.5181
vn 0.1244 0.5956 -0.7936
vn -0.0342 -0.9095 -0.4144
vn -0.0255 0.0942 -0.9952
vn 0.0328 -0.9943 -0.1019
vn 0.0350 0.9043 -0.4255
vn 0.1080 0.8534 -0.5100
vn 0.1208 -0.6324 -0.7652
vn -0.0318 0.9129 -0.4069
vn -0.0162 -0.1371 -0.9904
vn 0.0359 -0.9226 -0.3842
vn -0.0309 0.4760 -0.8789
vn 0.0969 -0.0830 -0.9918
vn 1.0000 -0.0000 0.0001
vn 1.0000 -0.0000 -0.0000
vn -1.0000 0.0011 -0.0045
vn -1.0000 -0.0013 -0.0054
vn 1.0000 -0.0000 -0.0001
vn 0.0901 0.1403 -0.9860
vn 0.1699 0.1164 -0.9786
vn 0.1080 0.0856 -0.9905
vn 0.0278 0.9996 -0.0044
vn 0.0232 0.9996 -0.0157
vn -0.0324 -0.8888 -0.4572
vn -0.0136 0.1405 -0.9900
vn 1.0000 -0.0000 -0.0003
vn 1.0000 0.0013 -0.0012
vn 1.0000 0.0013 -0.0021
vn 1.0000 -0.0009 -0.0021
vn 1.0000 -0.0043 -0.0020
vn 1.0000 0.0029 -0.0009
vn 1.0000 -0.0001 -0.0010
vn 1.0000 -0.0028 0.0001
vn 0.0233 -0.9997 -0.0034
vn 0.0232 -0.9997 -0.0044
vn -0.0318 0.9117 -0.4096
vn -0.0250 -0.1059 -0.9941
vn 0.0855 -0.0072 -0.9963
vn 0.0821 -0.1412 -0.9866
vn 0.1074 -0.1010 -0.9891
vn 0.1647 -0.1177 -0.9793
vn 1.0000 -0.0001 -0.0000
vn 1.0000 -0.0001 0.0001
vn -0.0318 -0.9095 -0.4144
vn 0.0235 0.9997 -0.0044
vn 0.0247 0.9996 -0.0109
vn 0.0289 0.9982 -0.0530
vn 1.0000 0.0001 0.0001
vn 0.0844 0.1404 -0.9865
vn 0.0967 0.1202 -0.9880
vn 0.1075 -0.0884 -0.9903
vn 0.0991 -0.1141 -0.9885
vn 1.0000 0.0001 -0.0000
vn -0.0340 -0.8887 -0.4572
vn 1.0000 0.0001 0.0002
vn 1.0000 -0.0000 -0.0002
vn 1.0000 0.0002 -0.0014
vn 1.0000 0.0049 -0.0021
vn -0.0317 0.9129 -0.4069
vn -0.0319 0.9117 -0.4096
vn 0.9999 0.0002 -0.0113
vn 1.0000 0.0001 -0.0004
vn 1.0000 -0.0049 -0.0012
s 0
f 13//1 12//1 1//1
f 2//2 7//2 4//2
f 17//3 18//3 14//3
f 2//4 8//4 6//4
f 9//5 10//5 3//5
f 13//6 15//6 21//6
f 20//7 18//7 17//7
f 1//8 2//8 5//8
f 4//9 8//9 2//9
f 14//10 18//10 16//10
f 24//11 23//11 22//11
f 13//12 10//12 9//12
f 18//13 20//13 19//13
f 21//14 22//14 23//14
f 16//15 18//15 11//15
f 23//16 24//16 13//16
f 24//17 20//17 13//17
f 13//16 3//16 10//16
f 3//17 13//17 1//17
f 5//18 12//18 1//18
f 12//19 19//19 20//19
f 12//20 13//20 20//20
f 5//21 6//21 12//21
f 6//22 8//22 11//22
f 12//23 6//23 11//23
f 2//24 1//24 3//24
f 3//25 7//25 2//25
f 9//26 3//26 7//26
f 13//27 21//27 23//27
f 15//28 21//28 14//28
f 21//17 22//17 25//17
f 17//29 21//29 25//29
f 14//30 11//30 15//30
f 11//31 8//31 15//31
f 4//32 7//32 9//32
f 8//33 4//33 9//33
f 9//34 15//34 8//34
f 21//35 17//35 14//35
f 25//36 24//36 17//36
f 24//37 20//37 17//37
f 24//38 22//38 25//38
f 13//39 9//39 15//39
f 6//40 5//40 2//40
f 18//41 19//41 12//41
f 12//42 11//42 18//42
f 11//43 14//43 16//43
f 1//44 3//44 12//44
f 12//45 3//45 10//45
f 10//46 3//46 7//46
f 7//47 1//47 3//47
f 7//48 4//48 1//48
f 4//49 2//49 1//49
f 24//50 12//50 23//50
f 23//20 12//20 13//20
f 13//20 12//20 10//20
f 5//51 2//51 12//51
f 2//52 6//52 12//52
f 11//53 16//53 12//53
f 16//54 18//54 12//54
f 20//55 12//55 24//55
f 9//56 10//56 7//56
f 9//57 15//57 7//57
f 15//58 14//58 7//58
f 14//59 8//59 7//59
f 8//60 4//60 7//60
f 25//61 24//61 23//61
f 25//62 23//62 22//62
f 8//63 14//63 11//63
f 21//17 22//17 15//17
f 22//17 25//17 15//17
f 25//64 14//64 15//64
f 25//65 17//65 14//65
