# Blender 4.0.0
# www.blender.org
o decimated_mesh
v 0.020484 -0.013179 0.085111
v 0.038995 0.000089 0.085743
v 0.020487 0.011048 0.085351
v 0.038994 -0.015312 0.083544
v 0.038995 0.015315 0.083578
v 0.020488 -0.017197 0.081423
v 0.020487 0.013520 0.084926
v 0.038993 -0.016187 0.081850
v 0.038993 0.016191 0.081841
v 0.020487 0.017200 0.081443
v 0.038993 0.016251 0.070439
v 0.038993 -0.016244 0.070439
v 0.020488 0.017170 0.064235
v 0.038993 0.015743 0.069122
v 0.038993 -0.015709 0.069115
v 0.038993 0.013809 0.068236
v 0.020487 0.010334 0.058390
v 0.020488 -0.017166 0.064175
v 0.020488 -0.009129 0.057663
v 0.020485 0.000017 0.054228
v 0.020487 0.006164 0.056377
v 0.038993 -0.013723 0.068233
v 0.038993 0.000018 0.066157
vn 0.4244 0.2987 -0.8548
vn -0.0138 0.6874 0.7262
vn 1.0000 -0.0012 -0.0002
vn 0.1704 -0.9136 -0.3691
vn 0.0502 0.9987 -0.0017
vn 0.1646 0.9204 -0.3547
vn -0.3693 -0.4040 0.8369
vn 0.0378 -0.8878 0.4587
vn 0.0674 -0.1411 0.9877
vn 0.5374 -0.1259 -0.8338
vn 0.3881 -0.3743 -0.8422
vn 0.0623 0.1405 0.9881
vn 0.0390 0.8924 0.4496
vn 0.2489 -0.6098 -0.7525
vn 0.5375 0.1257 -0.8339
vn 0.2433 0.6303 -0.7372
vn -0.0156 -0.6761 0.7366
vn 0.4085 -0.3208 -0.8546
vn -0.0271 -0.0099 0.9996
vn 1.0000 -0.0000 -0.0000
vn 1.0000 -0.0001 -0.0000
vn 1.0000 -0.0000 -0.0010
vn 1.0000 0.0001 0.0001
vn -1.0000 -0.0009 -0.0000
vn 1.0000 -0.0002 -0.0002
vn 1.0000 -0.0000 -0.0001
vn 1.0000 0.0013 -0.0002
vn 0.0544 0.9985 0.0053
vn 0.0503 -0.9987 -0.0018
vn 0.0544 -0.9985 0.0050
vn -0.3758 -0.3859 0.8425
vn 0.0553 0.1691 0.9841
vn 1.0000 -0.0001 -0.0001
vn 1.0000 -0.0000 -0.0009
vn 1.0000 -0.0000 -0.0002
vn 1.0000 -0.0001 0.0002
vn 1.0000 0.0003 0.0001
vn 1.0000 -0.0016 0.0001
vn 1.0000 -0.0002 -0.0000
vn 1.0000 0.0006 0.0007
vn 1.0000 -0.0004 0.0003
vn 1.0000 -0.0012 0.0024
vn -0.3675 -0.4044 0.8375
vn -0.3798 -0.3853 0.8410
s 0
f 20//1 21//1 16//1
f 10//2 7//2 5//2
f 4//3 8//3 22//3
f 18//4 15//4 12//4
f 11//5 13//5 10//5
f 14//6 13//6 11//6
f 17//7 21//7 16//7
f 4//8 6//8 8//8
f 1//9 4//9 2//9
f 23//10 22//10 20//10
f 19//11 22//11 15//11
f 5//12 3//12 2//12
f 10//13 5//13 9//13
f 19//14 15//14 18//14
f 16//15 23//15 20//15
f 14//16 17//16 13//16
f 4//17 1//17 6//17
f 20//18 22//18 19//18
f 1//19 2//19 3//19
f 10//20 3//20 13//20
f 3//21 17//21 13//21
f 17//21 3//21 21//21
f 21//22 19//22 20//22
f 21//23 1//23 19//23
f 18//24 6//24 1//24
f 1//21 21//21 3//21
f 18//23 19//23 1//23
f 3//25 10//25 7//25
f 22//26 23//26 2//26
f 23//26 16//26 2//26
f 2//26 16//26 5//26
f 16//20 14//20 11//20
f 11//20 9//20 16//20
f 16//27 9//27 5//27
f 2//26 4//26 22//26
f 8//20 12//20 22//20
f 12//21 15//21 22//21
f 10//28 9//28 11//28
f 18//29 12//29 6//29
f 12//30 8//30 6//30
f 17//31 16//31 14//31
f 5//32 7//32 3//32
f 4//33 12//33 15//33
f 4//33 15//33 22//33
f 4//20 22//20 23//20
f 4//20 23//20 16//20
f 4//20 16//20 14//20
f 4//20 14//20 11//20
f 4//20 11//20 9//20
f 4//34 9//34 5//34
f 4//35 5//35 2//35
f 3//36 1//36 7//36
f 7//33 1//33 10//33
f 10//21 1//21 20//21
f 20//37 1//37 18//37
f 8//38 12//38 4//38
f 13//39 10//39 20//39
f 19//40 20//40 18//40
f 13//41 20//41 17//41
f 17//42 20//42 21//42
f 17//43 21//43 14//43
f 14//44 21//44 16//44
