# https://github.com/mikedh/trimesh
v 0.00148505 -0.00069104 0.00000026
v 0.00132428 -0.00069104 0.00000026
v 0.00153280 -0.00110831 0.00000026
v 0.00176000 -0.00305913 -0.00000037
v 0.00148505 -0.00069104 -0.00007671
v 0.00102935 -0.00069104 -0.00091331
v 0.00102935 -0.00196417 -0.00096211
v 0.00132500 -0.00072629 0.00000026
v 0.00159346 -0.00231586 0.00000026
v 0.00176546 -0.00321215 -0.00000037
v 0.00176000 -0.00305913 -0.00007671
v 0.00146879 -0.00069104 -0.00014679
v 0.00102935 -0.00069104 -0.00116660
v 0.00102067 -0.00231586 -0.00108037
v 0.00136204 -0.00197428 0.00000026
v 0.00135643 -0.00190542 0.00000026
v 0.00135060 -0.00183355 0.00000026
v 0.00134695 -0.00168025 0.00000026
v 0.00133988 -0.00137420 0.00000026
v 0.00132756 -0.00083778 0.00000026
v 0.00142052 -0.00231586 0.00000026
v 0.00173418 -0.00348241 -0.00000037
v 0.00174359 -0.00344197 -0.00000037
v 0.00176123 -0.00336545 -0.00000037
v 0.00176546 -0.00321215 -0.00007671
v 0.00172675 -0.00321215 -0.00022989
v 0.00171858 -0.00305913 -0.00022989
v 0.00144808 -0.00069104 -0.00022989
v 0.00111786 -0.00069104 -0.00111779
v 0.00114134 -0.00231586 -0.00123618
v 0.00112253 -0.00231586 -0.00124582
v 0.00102935 -0.00231586 -0.00127823
v 0.00118239 -0.00348241 -0.00108037
v 0.00154170 -0.00348241 -0.00000037
v 0.00141352 -0.00228443 0.00000026
v 0.00173418 -0.00348241 -0.00008660
v 0.00176123 -0.00336545 -0.00007671
v 0.00172004 -0.00336545 -0.00022989
v 0.00168985 -0.00336545 -0.00032049
v 0.00169321 -0.00321215 -0.00033050
v 0.00156539 -0.00305913 -0.00068942
v 0.00168555 -0.00298043 -0.00030773
v 0.00140018 -0.00069104 -0.00038582
v 0.00119843 -0.00231586 -0.00119826
v 0.00115716 -0.00069104 -0.00104959
v 0.00143153 -0.00305913 -0.00108037
v 0.00143853 -0.00321215 -0.00108037
v 0.00143656 -0.00328074 -0.00108037
v 0.00143291 -0.00336545 -0.00108037
v 0.00140922 -0.00348241 -0.00108037
v 0.00169962 -0.00348241 -0.00022363
v 0.00169853 -0.00347995 -0.00022989
v 0.00168555 -0.00344333 -0.00030773
v 0.00153667 -0.00336545 -0.00078003
v 0.00157356 -0.00321215 -0.00068942
v 0.00153594 -0.00305913 -0.00077765
v 0.00153237 -0.00298043 -0.00076701
v 0.00154002 -0.00321215 -0.00078991
v 0.00124706 -0.00069104 -0.00084523
v 0.00119026 -0.00069104 -0.00098827
v 0.00153237 -0.00344333 -0.00076701
v 0.00154447 -0.00348241 -0.00068942
v 0.00169766 -0.00348241 -0.00022989
f 1 2 8
f 1 8 20
f 1 20 19
f 1 19 18
f 1 18 17
f 1 17 16
f 1 16 15
f 1 15 35
f 1 35 21
f 1 21 9
f 1 9 3
f 1 3 4
f 1 4 11
f 1 11 5
f 1 5 12
f 1 12 28
f 1 28 43
f 1 43 59
f 1 59 60
f 1 60 45
f 1 45 29
f 1 29 13
f 1 13 6
f 1 6 2
f 2 6 7
f 2 7 8
f 3 9 4
f 4 10 25
f 4 25 11
f 4 9 10
f 5 11 12
f 6 13 14
f 6 14 7
f 7 15 16
f 7 16 17
f 7 17 18
f 7 18 19
f 7 19 20
f 7 20 8
f 7 14 15
f 9 21 34
f 9 34 22
f 9 22 23
f 9 23 24
f 9 24 10
f 10 24 37
f 10 37 25
f 11 25 26
f 11 26 27
f 11 27 28
f 11 28 12
f 13 29 30
f 13 30 31
f 13 31 32
f 13 32 14
f 14 32 33
f 14 33 34
f 14 34 15
f 15 34 35
f 21 35 34
f 22 34 33
f 22 33 50
f 22 50 62
f 22 62 63
f 22 63 51
f 22 51 36
f 22 36 23
f 23 36 37
f 23 37 24
f 25 37 26
f 26 37 38
f 26 38 39
f 26 39 40
f 26 40 27
f 27 40 41
f 27 41 42
f 27 42 43
f 27 43 28
f 29 44 30
f 29 45 46
f 29 46 44
f 30 44 46
f 30 46 47
f 30 47 31
f 31 47 48
f 31 48 49
f 31 49 32
f 32 49 50
f 32 50 33
f 36 51 37
f 37 51 52
f 37 52 53
f 37 53 38
f 38 53 39
f 39 53 54
f 39 54 40
f 40 54 55
f 40 55 41
f 41 56 57
f 41 57 42
f 41 55 58
f 41 58 56
f 42 57 59
f 42 59 43
f 45 60 46
f 46 57 56
f 46 56 58
f 46 58 47
f 46 60 59
f 46 59 57
f 47 58 48
f 48 58 49
f 49 58 54
f 49 54 61
f 49 61 50
f 50 61 62
f 51 63 52
f 52 63 62
f 52 62 53
f 53 62 61
f 53 61 54
f 54 58 55

