# https://github.com/mikedh/trimesh
v 0.00007325 -0.00231586 -0.00156446
v 0.00007325 -0.00231586 -0.00142058
v 0.00007325 -0.00231531 -0.00159332
v 0.00007686 -0.00348241 -0.00173420
v 0.00007325 -0.00228716 -0.00141407
v 0.00007686 -0.00348241 -0.00154169
v 0.00007325 -0.00069104 -0.00148506
v 0.00007686 -0.00305913 -0.00175998
v 0.00007686 -0.00321243 -0.00176540
v 0.00007686 -0.00336573 -0.00176115
v 0.00007686 -0.00336764 -0.00176073
v 0.00008675 -0.00348241 -0.00173420
v 0.00007325 -0.00228443 -0.00141349
v 0.00023429 -0.00348241 -0.00147088
v 0.00007325 -0.00197428 -0.00136186
v 0.00007325 -0.00197564 -0.00136202
v 0.00007325 -0.00069104 -0.00132424
v 0.00007672 -0.00069104 -0.00148506
v 0.00022988 -0.00305913 -0.00171861
v 0.00022988 -0.00321215 -0.00172678
v 0.00022988 -0.00069104 -0.00144802
v 0.00022988 -0.00336545 -0.00172002
v 0.00030766 -0.00344333 -0.00168558
v 0.00022988 -0.00347995 -0.00169859
v 0.00022360 -0.00348241 -0.00169967
v 0.00118211 -0.00348241 -0.00108043
v 0.00102922 -0.00196417 -0.00096232
v 0.00007325 -0.00183683 -0.00135076
v 0.00007325 -0.00069268 -0.00132424
v 0.00102922 -0.00069104 -0.00091336
v 0.00030766 -0.00298043 -0.00168558
v 0.00031836 -0.00305913 -0.00168916
v 0.00031221 -0.00069104 -0.00142300
v 0.00038585 -0.00069104 -0.00140023
v 0.00033052 -0.00321215 -0.00169325
v 0.00068962 -0.00336545 -0.00156688
v 0.00076714 -0.00344333 -0.00153243
v 0.00068962 -0.00348241 -0.00154444
v 0.00022988 -0.00348241 -0.00169767
v 0.00140917 -0.00348241 -0.00108043
v 0.00007325 -0.00183355 -0.00135051
v 0.00007325 -0.00137748 -0.00133984
v 0.00102922 -0.00069104 -0.00116676
v 0.00007325 -0.00168380 -0.00134693
v 0.00143296 -0.00336545 -0.00108043
v 0.00143657 -0.00328074 -0.00108043
v 0.00143857 -0.00321215 -0.00108043
v 0.00143149 -0.00305913 -0.00108043
v 0.00141224 -0.00291375 -0.00108043
v 0.00076714 -0.00298043 -0.00153243
v 0.00114896 -0.00305913 -0.00141224
v 0.00114896 -0.00321215 -0.00142041
v 0.00084519 -0.00069104 -0.00124708
v 0.00114896 -0.00336545 -0.00141374
v 0.00122648 -0.00344333 -0.00137921
v 0.00114896 -0.00348241 -0.00139130
v 0.00139313 -0.00348241 -0.00114282
v 0.00139206 -0.00347995 -0.00114908
v 0.00098819 -0.00069104 -0.00119028
v 0.00137923 -0.00298070 -0.00122665
v 0.00131121 -0.00305913 -0.00131148
v 0.00122648 -0.00298070 -0.00137921
v 0.00137923 -0.00344333 -0.00122665
v 0.00141358 -0.00336545 -0.00114908
v 0.00142026 -0.00321215 -0.00114908
v 0.00141211 -0.00305913 -0.00114908
v 0.00123463 -0.00305913 -0.00138279
v 0.00124425 -0.00321215 -0.00138688
v 0.00123637 -0.00336545 -0.00138354
v 0.00131308 -0.00336545 -0.00131331
v 0.00131335 -0.00348241 -0.00127811
v 0.00127793 -0.00348241 -0.00131348
v 0.00139113 -0.00348241 -0.00114908
v 0.00138271 -0.00305913 -0.00123491
v 0.00132083 -0.00321215 -0.00132107
v 0.00138351 -0.00336545 -0.00123666
v 0.00138685 -0.00321215 -0.00124441
f 1 2 5
f 1 5 13
f 1 13 16
f 1 16 15
f 1 15 28
f 1 28 41
f 1 41 44
f 1 44 42
f 1 42 29
f 1 29 17
f 1 17 7
f 1 7 3
f 1 3 4
f 1 4 6
f 1 6 2
f 2 6 5
f 3 7 8
f 3 8 9
f 3 9 10
f 3 10 11
f 3 11 4
f 4 11 12
f 4 12 25
f 4 25 39
f 4 39 38
f 4 38 56
f 4 56 72
f 4 72 71
f 4 71 73
f 4 73 57
f 4 57 40
f 4 40 26
f 4 26 14
f 4 14 6
f 5 6 13
f 6 14 15
f 6 15 16
f 6 16 13
f 7 17 30
f 7 30 43
f 7 43 59
f 7 59 53
f 7 53 34
f 7 34 33
f 7 33 21
f 7 21 18
f 7 18 8
f 8 19 20
f 8 20 9
f 8 18 21
f 8 21 19
f 9 20 10
f 10 22 23
f 10 23 24
f 10 24 25
f 10 25 12
f 10 12 11
f 10 20 22
f 14 26 27
f 14 27 15
f 15 27 28
f 17 29 30
f 19 31 32
f 19 32 20
f 19 21 33
f 19 33 34
f 19 34 31
f 20 32 35
f 20 35 36
f 20 36 22
f 22 36 23
f 23 37 24
f 23 36 37
f 24 37 38
f 24 38 39
f 24 39 25
f 26 40 27
f 27 30 41
f 27 41 28
f 27 40 30
f 29 42 30
f 30 42 44
f 30 44 41
f 30 40 45
f 30 45 46
f 30 46 47
f 30 47 48
f 30 48 49
f 30 49 43
f 31 50 32
f 31 34 50
f 32 50 51
f 32 51 52
f 32 52 35
f 34 53 50
f 35 52 36
f 36 52 54
f 36 54 37
f 37 54 55
f 37 55 56
f 37 56 38
f 40 57 58
f 40 58 45
f 43 49 60
f 43 60 61
f 43 61 62
f 43 62 59
f 45 58 63
f 45 63 64
f 45 64 65
f 45 65 46
f 46 65 47
f 47 65 48
f 48 65 66
f 48 66 49
f 49 66 60
f 50 62 51
f 50 53 62
f 51 62 67
f 51 67 52
f 52 67 68
f 52 68 69
f 52 69 54
f 53 59 62
f 54 69 55
f 55 69 70
f 55 70 63
f 55 63 71
f 55 71 72
f 55 72 56
f 57 73 58
f 58 73 63
f 60 66 74
f 60 74 61
f 61 74 75
f 61 75 67
f 61 67 62
f 63 73 71
f 63 70 76
f 63 76 64
f 64 76 65
f 65 76 77
f 65 77 74
f 65 74 66
f 67 75 68
f 68 75 69
f 69 75 70
f 70 75 76
f 74 77 75
f 75 77 76

