# https://github.com/mikedh/trimesh
v 0.00107585 -0.00321215 0.00143979
v 0.00114908 -0.00321215 0.00142034
v 0.00107585 -0.00305913 0.00143274
v 0.00100825 -0.00231586 0.00128473
v 0.00107585 -0.00328539 0.00143767
v 0.00114908 -0.00336545 0.00141371
v 0.00123669 -0.00336545 0.00138340
v 0.00124440 -0.00321215 0.00138679
v 0.00123484 -0.00305913 0.00138256
v 0.00114908 -0.00305913 0.00141216
v 0.00100825 -0.00069104 0.00117929
v 0.00100825 -0.00231586 0.00109232
v 0.00107585 -0.00348241 0.00141033
v 0.00107585 -0.00336545 0.00143415
v 0.00122661 -0.00344333 0.00137917
v 0.00131326 -0.00336545 0.00131306
v 0.00132104 -0.00321215 0.00132082
v 0.00131148 -0.00305913 0.00131137
v 0.00122661 -0.00298070 0.00137917
v 0.00104991 -0.00069104 0.00115702
v 0.00100825 -0.00069104 0.00094233
v 0.00100825 -0.00229290 0.00108217
v 0.00107585 -0.00348241 0.00117830
v 0.00114286 -0.00348241 0.00139313
v 0.00114908 -0.00347995 0.00139214
v 0.00114745 -0.00348241 0.00139186
v 0.00119978 -0.00348241 0.00137410
v 0.00127813 -0.00348241 0.00131335
v 0.00137930 -0.00344333 0.00122651
v 0.00138360 -0.00336545 0.00123638
v 0.00138686 -0.00321215 0.00124427
v 0.00138286 -0.00305913 0.00123455
v 0.00137930 -0.00298070 0.00122651
v 0.00111788 -0.00069104 0.00111769
v 0.00132423 -0.00069104 0.00000042
v 0.00100825 -0.00076127 0.00094445
v 0.00100825 -0.00213987 0.00103339
v 0.00154177 -0.00348241 -0.00000028
v 0.00136203 -0.00197428 0.00000042
v 0.00131348 -0.00348241 0.00127782
v 0.00168564 -0.00344333 0.00030758
v 0.00141377 -0.00336545 0.00114884
v 0.00137426 -0.00348241 0.00119959
v 0.00139198 -0.00348241 0.00114729
v 0.00142044 -0.00321215 0.00114884
v 0.00141228 -0.00305913 0.00114884
v 0.00168564 -0.00298043 0.00030772
v 0.00124714 -0.00069104 0.00084521
v 0.00119022 -0.00069104 0.00098815
v 0.00148507 -0.00069104 0.00000042
v 0.00142066 -0.00231586 -0.00000028
v 0.00132756 -0.00083778 0.00000042
v 0.00100825 -0.00184694 0.00098166
v 0.00100825 -0.00183355 0.00098096
v 0.00100825 -0.00203002 0.00100816
v 0.00135640 -0.00190542 0.00000042
v 0.00173426 -0.00348241 -0.00000028
v 0.00176124 -0.00336545 0.00007668
v 0.00172003 -0.00336545 0.00022991
v 0.00168987 -0.00336545 0.00032055
v 0.00169861 -0.00347995 0.00022991
v 0.00172678 -0.00321215 0.00022991
v 0.00169772 -0.00348241 0.00022991
v 0.00168912 -0.00305913 0.00031829
v 0.00171855 -0.00305913 0.00022991
v 0.00142296 -0.00069104 0.00031223
v 0.00140020 -0.00069104 0.00038567
v 0.00169379 -0.00264432 -0.00000028
v 0.00159344 -0.00231586 -0.00000028
v 0.00148507 -0.00069104 0.00007682
v 0.00176006 -0.00305913 -0.00000028
v 0.00174168 -0.00290583 -0.00000028
v 0.00135062 -0.00183355 0.00000042
v 0.00134876 -0.00175676 0.00000042
v 0.00133987 -0.00137420 0.00000042
v 0.00100825 -0.00195597 0.00099153
v 0.00100825 -0.00197564 0.00099576
v 0.00174360 -0.00344197 -0.00000028
v 0.00173426 -0.00348241 0.00008655
v 0.00176124 -0.00336545 -0.00000028
v 0.00176547 -0.00321215 0.00007668
v 0.00169824 -0.00348241 0.00022822
v 0.00169965 -0.00348241 0.00022356
v 0.00176006 -0.00305913 0.00007668
v 0.00144808 -0.00069104 0.00022991
v 0.00176547 -0.00321215 -0.00000028
f 1 2 3
f 1 3 4
f 1 4 5
f 1 5 2
f 2 5 6
f 2 6 7
f 2 7 8
f 2 8 9
f 2 9 10
f 2 10 3
f 3 10 11
f 3 11 4
f 4 11 21
f 4 21 36
f 4 36 54
f 4 54 53
f 4 53 76
f 4 76 77
f 4 77 55
f 4 55 37
f 4 37 22
f 4 22 12
f 4 12 23
f 4 23 13
f 4 13 14
f 4 14 5
f 5 14 6
f 6 14 15
f 6 15 7
f 7 15 16
f 7 16 17
f 7 17 8
f 8 17 9
f 9 18 19
f 9 19 10
f 9 17 18
f 10 19 11
f 11 20 34
f 11 34 49
f 11 49 48
f 11 48 67
f 11 67 66
f 11 66 85
f 11 85 70
f 11 70 50
f 11 50 35
f 11 35 21
f 11 19 20
f 12 22 23
f 13 23 38
f 13 38 57
f 13 57 79
f 13 79 83
f 13 83 82
f 13 82 63
f 13 63 44
f 13 44 43
f 13 43 40
f 13 40 28
f 13 28 27
f 13 27 26
f 13 26 24
f 13 24 25
f 13 25 14
f 14 25 15
f 15 25 26
f 15 26 27
f 15 27 28
f 15 28 29
f 15 29 16
f 16 29 30
f 16 30 17
f 17 31 32
f 17 32 18
f 17 30 31
f 18 33 34
f 18 34 19
f 18 32 33
f 19 34 20
f 21 35 36
f 22 37 23
f 23 37 39
f 23 39 38
f 24 26 25
f 28 40 29
f 29 41 42
f 29 42 30
f 29 40 43
f 29 43 44
f 29 44 41
f 30 42 45
f 30 45 31
f 31 45 32
f 32 45 46
f 32 46 33
f 33 46 47
f 33 47 48
f 33 48 49
f 33 49 34
f 35 50 69
f 35 69 51
f 35 51 52
f 35 52 53
f 35 53 54
f 35 54 36
f 37 55 56
f 37 56 39
f 38 39 51
f 38 51 69
f 38 69 68
f 38 68 72
f 38 72 71
f 38 71 86
f 38 86 80
f 38 80 78
f 38 78 57
f 39 56 51
f 41 58 59
f 41 59 60
f 41 60 42
f 41 44 61
f 41 61 58
f 42 60 62
f 42 62 45
f 44 63 61
f 45 62 46
f 46 64 47
f 46 62 64
f 47 64 65
f 47 65 66
f 47 66 67
f 47 67 48
f 50 68 69
f 50 70 84
f 50 84 71
f 50 71 72
f 50 72 68
f 51 56 73
f 51 73 74
f 51 74 75
f 51 75 52
f 52 75 53
f 53 73 76
f 53 75 74
f 53 74 73
f 55 77 56
f 56 77 73
f 57 78 79
f 58 61 79
f 58 79 78
f 58 78 80
f 58 80 86
f 58 86 81
f 58 81 62
f 58 62 59
f 59 62 60
f 61 63 82
f 61 82 83
f 61 83 79
f 62 81 84
f 62 84 65
f 62 65 64
f 65 84 85
f 65 85 66
f 70 85 84
f 71 84 81
f 71 81 86
f 73 77 76

