# https://github.com/mikedh/trimesh
v -0.00097945 0.00304016 -0.00116408
v -0.00096708 -0.00069104 -0.00119830
v -0.00097945 0.00304016 -0.00094541
v -0.00097945 0.00304859 -0.00116408
v -0.00084520 -0.00069104 -0.00124699
v -0.00096708 -0.00069104 -0.00098928
v -0.00097945 0.00980883 -0.00115790
v -0.00097945 0.00996299 -0.00115768
v -0.00097945 0.01116979 -0.00115431
v -0.00097945 0.01132275 -0.00115387
v -0.00097945 0.01134081 -0.00115382
v -0.00096708 -0.00059108 -0.00098691
v -0.00096708 -0.00044053 -0.00098349
v -0.00096708 -0.00028998 -0.00098023
v -0.00096708 -0.00013943 -0.00097709
v -0.00096708 0.00001112 -0.00097460
v -0.00097945 0.00304377 -0.00094535
v -0.00038575 -0.00069104 -0.00140015
v -0.00078708 0.00996299 -0.00123264
v -0.00032764 0.00996299 -0.00138585
v 0.00000024 -0.00069104 -0.00132420
v -0.00078622 0.01011475 -0.00123236
v -0.00097945 0.01149377 -0.00115156
v -0.00077912 0.01134081 -0.00122999
v 0.00000024 -0.00060673 -0.00132227
v 0.00000024 -0.00037670 -0.00131708
v 0.00000024 -0.00030082 -0.00131537
v 0.00000024 -0.00014786 -0.00131272
v 0.00000024 0.00000510 -0.00131107
v -0.00097945 0.00306545 -0.00094524
v 0.00000024 0.00015926 -0.00131024
v -0.00022992 -0.00069104 -0.00144806
v -0.00022992 0.00996299 -0.00141842
v -0.00032677 0.01011475 -0.00138558
v 0.00000024 -0.00069104 -0.00148504
v -0.00078085 0.01103490 -0.00123059
v -0.00032322 0.01072898 -0.00138442
v -0.00097945 0.01159253 -0.00111805
v -0.00076809 0.01157206 -0.00122629
v -0.00077394 0.01149377 -0.00122827
v -0.00068927 0.01134081 -0.00125996
v -0.00097945 0.00490817 -0.00093762
v 0.00000024 0.00038930 -0.00130980
v -0.00097945 0.01149377 -0.00092123
v -0.00097945 0.00502861 -0.00093729
v -0.00014677 -0.00069104 -0.00146881
v -0.00007677 0.01134081 -0.00145402
v -0.00022992 0.01103490 -0.00141433
v -0.00007667 -0.00069104 -0.00148504
v -0.00007562 0.01134081 -0.00145402
v 0.00000024 0.00304016 -0.00146312
v -0.00031968 0.01134081 -0.00138320
v -0.00097945 0.01160458 -0.00111248
v -0.00068927 0.01158771 -0.00123948
v -0.00030874 0.01157206 -0.00137951
v -0.00031450 0.01149377 -0.00138149
v 0.00000024 0.00304016 -0.00130494
v -0.00007562 0.01149377 -0.00129401
v -0.00028391 0.01158169 -0.00121806
v -0.00097945 0.01161301 -0.00100088
v -0.00022992 0.01134081 -0.00141312
v -0.00007677 0.01149377 -0.00145137
v -0.00007562 0.01149377 -0.00145137
v -0.00007562 0.01160458 -0.00141411
v -0.00007562 0.01160578 -0.00133601
v -0.00053612 0.01160578 -0.00126194
v -0.00022992 0.01158771 -0.00139270
v -0.00022992 0.01149377 -0.00140964
v -0.00007677 0.01160578 -0.00133552
v -0.00038306 0.01159855 -0.00120162
v -0.00007677 0.01160578 -0.00141384
f 1 2 6
f 1 6 3
f 1 3 17
f 1 17 30
f 1 30 42
f 1 42 45
f 1 45 44
f 1 44 60
f 1 60 53
f 1 53 38
f 1 38 23
f 1 23 11
f 1 11 10
f 1 10 9
f 1 9 8
f 1 8 7
f 1 7 4
f 1 4 2
f 2 5 18
f 2 18 32
f 2 32 46
f 2 46 49
f 2 49 35
f 2 35 21
f 2 21 6
f 2 4 7
f 2 7 8
f 2 8 9
f 2 9 10
f 2 10 11
f 2 11 5
f 3 6 12
f 3 12 13
f 3 13 14
f 3 14 15
f 3 15 16
f 3 16 17
f 5 11 19
f 5 19 20
f 5 20 18
f 6 21 12
f 11 22 19
f 11 23 24
f 11 24 22
f 12 21 25
f 12 25 13
f 13 25 26
f 13 26 27
f 13 27 14
f 14 27 15
f 15 27 28
f 15 28 16
f 16 28 29
f 16 29 17
f 17 29 31
f 17 31 30
f 18 20 33
f 18 33 32
f 19 22 34
f 19 34 20
f 20 34 33
f 21 35 51
f 21 51 57
f 21 57 43
f 21 43 31
f 21 31 29
f 21 29 28
f 21 28 27
f 21 27 26
f 21 26 25
f 22 24 36
f 22 36 37
f 22 37 34
f 23 38 39
f 23 39 40
f 23 40 24
f 24 40 41
f 24 41 37
f 24 37 36
f 30 31 42
f 31 43 44
f 31 44 45
f 31 45 42
f 32 33 47
f 32 47 46
f 33 34 48
f 33 48 47
f 34 37 48
f 35 49 47
f 35 47 50
f 35 50 51
f 37 41 52
f 37 52 48
f 38 53 39
f 39 53 54
f 39 54 67
f 39 67 55
f 39 55 40
f 40 56 41
f 40 55 56
f 41 56 52
f 43 57 44
f 44 58 59
f 44 59 60
f 44 57 58
f 46 47 49
f 47 48 61
f 47 61 62
f 47 62 63
f 47 63 50
f 48 52 61
f 50 63 51
f 51 63 64
f 51 64 65
f 51 65 57
f 52 56 61
f 53 60 66
f 53 66 54
f 54 66 67
f 55 67 62
f 55 62 68
f 55 68 56
f 56 68 61
f 57 65 58
f 58 65 59
f 59 65 69
f 59 69 70
f 59 70 60
f 60 70 69
f 60 69 65
f 60 65 71
f 60 71 66
f 61 68 62
f 62 67 71
f 62 71 63
f 63 71 64
f 64 71 65
f 66 71 67

