# https://github.com/mikedh/trimesh
v 0.00146315 0.00304065 0.00006827
v 0.00130498 0.00304065 0.00006827
v 0.00148514 -0.00068984 0.00006827
v 0.00145406 0.01134118 -0.00000040
v 0.00145137 0.01149536 -0.00000040
v 0.00141383 0.01160618 -0.00000040
v 0.00130498 0.00303342 0.00006827
v 0.00133550 0.01160618 -0.00000040
v 0.00131469 0.01155077 -0.00000040
v 0.00129398 0.01149536 -0.00000040
v 0.00095767 0.01149416 -0.00095826
v 0.00132419 -0.00068984 0.00006827
v 0.00148514 -0.00068984 -0.00007683
v 0.00145406 0.01134118 -0.00007671
v 0.00145137 0.01149536 -0.00007671
v 0.00141383 0.01160618 -0.00007671
v 0.00099552 0.01161341 -0.00099537
v 0.00131020 0.00015937 0.00006827
v 0.00095767 0.00505345 -0.00096702
v 0.00095767 0.00490167 -0.00096726
v 0.00095767 0.00474749 -0.00096763
v 0.00095767 0.00305992 -0.00097170
v 0.00095767 0.01160980 -0.00100807
v 0.00121818 0.01158089 -0.00028406
v 0.00131877 -0.00045375 0.00006827
v 0.00098581 -0.00068984 -0.00097182
v 0.00146877 -0.00068984 -0.00014673
v 0.00141848 0.00996198 -0.00022994
v 0.00141311 0.01134118 -0.00022994
v 0.00144807 -0.00068984 -0.00022994
v 0.00140970 0.01149536 -0.00022994
v 0.00137955 0.01157246 -0.00030871
v 0.00139266 0.01158812 -0.00022994
v 0.00126197 0.01160618 -0.00053641
v 0.00110814 0.01160498 -0.00099574
v 0.00099588 0.01160498 -0.00110792
v 0.00095767 0.01160257 -0.00111803
v 0.00131102 0.00000519 0.00006827
v 0.00095767 0.00304065 -0.00097182
v 0.00131541 -0.00030077 0.00006827
v 0.00098581 -0.00068984 -0.00119113
v 0.00131273 -0.00014779 0.00006827
v 0.00098581 -0.00068381 -0.00097158
v 0.00123269 0.00996198 -0.00078703
v 0.00138502 0.01042211 -0.00032511
v 0.00138383 0.01103523 -0.00032154
v 0.00140020 -0.00068984 -0.00038576
v 0.00124699 -0.00068984 -0.00084522
v 0.00138321 0.01134118 -0.00031969
v 0.00138151 0.01149536 -0.00031451
v 0.00122634 0.01157246 -0.00076817
v 0.00123945 0.01158812 -0.00068927
v 0.00108929 0.01159052 -0.00108918
v 0.00095767 0.01149536 -0.00115884
v 0.00098581 0.00000519 -0.00095000
v 0.00098581 -0.00012129 -0.00095333
v 0.00098581 -0.00027909 -0.00095839
v 0.00095767 0.00304065 -0.00117116
v 0.00095767 0.00996198 -0.00116488
v 0.00095767 0.01134118 -0.00116118
v 0.00099588 0.01134118 -0.00114811
v 0.00098829 -0.00068984 -0.00119015
v 0.00095767 0.00307076 -0.00117116
v 0.00095767 0.00970059 -0.00116525
v 0.00095767 0.00980900 -0.00116512
v 0.00114821 0.01134118 -0.00099574
v 0.00123031 0.01118821 -0.00078000
v 0.00119024 -0.00068984 -0.00098822
v 0.00125995 0.01134118 -0.00068927
v 0.00122825 0.01149536 -0.00077384
v 0.00114589 0.01149536 -0.00099574
v 0.00109942 0.01149536 -0.00109929
v 0.00099588 0.01149536 -0.00114577
v 0.00110138 0.01134118 -0.00110114
v 0.00110200 0.01103523 -0.00110188
v 0.00110231 0.01088105 -0.00110225
v 0.00110448 0.00980900 -0.00110422
v 0.00111785 -0.00068984 -0.00111778
v 0.00110396 0.01011616 -0.00110385
v 0.00123000 0.01134118 -0.00077902
v 0.00115715 -0.00068984 -0.00104974
v 0.00110427 0.00996198 -0.00110398
f 1 2 7
f 1 7 18
f 1 18 38
f 1 38 42
f 1 42 40
f 1 40 25
f 1 25 12
f 1 12 3
f 1 3 4
f 1 4 5
f 1 5 6
f 1 6 8
f 1 8 2
f 2 8 9
f 2 9 10
f 2 10 11
f 2 11 7
f 3 12 26
f 3 26 41
f 3 41 62
f 3 62 78
f 3 78 81
f 3 81 68
f 3 68 48
f 3 48 47
f 3 47 30
f 3 30 27
f 3 27 13
f 3 13 14
f 3 14 4
f 4 14 15
f 4 15 5
f 5 15 16
f 5 16 6
f 6 16 17
f 6 17 8
f 7 11 19
f 7 19 20
f 7 20 21
f 7 21 22
f 7 22 18
f 8 17 23
f 8 23 24
f 8 24 9
f 9 24 10
f 10 24 23
f 10 23 11
f 11 23 37
f 11 37 54
f 11 54 60
f 11 60 59
f 11 59 65
f 11 65 64
f 11 64 63
f 11 63 58
f 11 58 39
f 11 39 22
f 11 22 21
f 11 21 20
f 11 20 19
f 12 25 26
f 13 27 14
f 14 28 29
f 14 29 15
f 14 27 30
f 14 30 28
f 15 29 31
f 15 31 32
f 15 32 33
f 15 33 16
f 16 33 34
f 16 34 17
f 17 34 35
f 17 35 36
f 17 36 37
f 17 37 23
f 18 22 39
f 18 39 38
f 25 40 26
f 26 40 42
f 26 42 43
f 26 43 39
f 26 39 58
f 26 58 41
f 28 44 45
f 28 45 46
f 28 46 29
f 28 30 47
f 28 47 48
f 28 48 44
f 29 46 49
f 29 49 31
f 31 50 32
f 31 49 50
f 32 51 33
f 32 50 51
f 33 51 52
f 33 52 34
f 34 52 35
f 35 52 53
f 35 53 36
f 36 53 54
f 36 54 37
f 38 55 56
f 38 56 57
f 38 57 43
f 38 43 42
f 38 39 55
f 39 43 57
f 39 57 56
f 39 56 55
f 41 59 60
f 41 60 61
f 41 61 62
f 41 58 63
f 41 63 64
f 41 64 65
f 41 65 59
f 44 66 67
f 44 67 45
f 44 48 66
f 45 67 46
f 46 67 49
f 48 68 66
f 49 67 69
f 49 69 50
f 50 69 70
f 50 70 51
f 51 53 52
f 51 70 71
f 51 71 53
f 53 71 72
f 53 72 73
f 53 73 54
f 54 73 61
f 54 61 60
f 61 73 74
f 61 74 75
f 61 75 76
f 61 76 62
f 62 77 78
f 62 76 79
f 62 79 77
f 66 74 71
f 66 71 80
f 66 80 67
f 66 68 74
f 67 80 69
f 68 81 82
f 68 82 79
f 68 79 75
f 68 75 74
f 69 80 70
f 70 80 71
f 71 74 72
f 72 74 73
f 75 79 76
f 77 81 78
f 77 79 82
f 77 82 81

