# https://github.com/mikedh/trimesh
v -0.00130495 0.00304065 0.00006827
v -0.00146314 0.00304065 0.00006827
v -0.00130992 0.00031235 0.00006827
v -0.00096712 0.00015937 -0.00097337
v -0.00096712 0.00031716 -0.00097288
v -0.00096712 0.00303944 -0.00096544
v -0.00097949 0.01149536 -0.00092106
v -0.00129400 0.01149536 -0.00000029
v -0.00133547 0.01160618 -0.00000029
v -0.00148509 -0.00068984 0.00006827
v -0.00141386 0.01160618 -0.00000029
v -0.00143272 0.01155077 -0.00000029
v -0.00145138 0.01149536 -0.00000029
v -0.00145401 0.01134118 -0.00000029
v -0.00131022 0.00015937 0.00006827
v -0.00096712 0.00001121 -0.00097437
v -0.00096712 0.00304065 -0.00096544
v -0.00097949 0.01161221 -0.00100077
v -0.00121820 0.01158089 -0.00028395
v -0.00099546 0.01161341 -0.00099532
v -0.00148509 -0.00068984 -0.00007666
v -0.00132416 -0.00068984 0.00006827
v -0.00141386 0.01160618 -0.00007678
v -0.00145138 0.01149536 -0.00007678
v -0.00145401 0.01134118 -0.00007678
v -0.00131098 0.00001362 0.00006827
v -0.00096712 -0.00013936 -0.00097685
v -0.00096712 0.00304065 -0.00116814
v -0.00097949 0.01160377 -0.00111235
v -0.00099592 0.01160498 -0.00110801
v -0.00110812 0.01160498 -0.00099569
v -0.00126200 0.01160618 -0.00053636
v -0.00144803 -0.00068984 -0.00022989
v -0.00132224 -0.00060672 0.00006827
v -0.00096712 -0.00068984 -0.00098912
v -0.00139266 0.01158812 -0.00023002
v -0.00140970 0.01149536 -0.00023002
v -0.00141315 0.01134118 -0.00023002
v -0.00137958 0.01157246 -0.00030862
v -0.00141847 0.00996198 -0.00023002
v -0.00131103 0.00000519 0.00006827
v -0.00096712 -0.00028993 -0.00098007
v -0.00096712 -0.00068984 -0.00119827
v -0.00097949 0.01134118 -0.00115376
v -0.00097949 0.01147609 -0.00115165
v -0.00097949 0.01149536 -0.00115128
v -0.00097949 0.01159173 -0.00111781
v -0.00108931 0.01159052 -0.00108917
v -0.00123944 0.01158812 -0.00068922
v -0.00142298 -0.00068984 -0.00031221
v -0.00131874 -0.00045375 0.00006827
v -0.00096712 -0.00059106 -0.00098676
v -0.00131265 -0.00013936 0.00006827
v -0.00131276 -0.00014779 0.00006827
v -0.00131524 -0.00029234 0.00006827
v -0.00131539 -0.00030077 0.00006827
v -0.00122631 0.01157246 -0.00076807
v -0.00122829 0.01149536 -0.00077390
v -0.00138323 0.01134118 -0.00031978
v -0.00123270 0.00996198 -0.00078704
v -0.00124700 -0.00068984 -0.00084518
v -0.00140017 -0.00068984 -0.00038585
v -0.00098836 -0.00068984 -0.00119008
v -0.00099592 0.01134118 -0.00114818
v -0.00099592 0.01149536 -0.00114570
v -0.00109945 0.01149536 -0.00109921
v -0.00114595 0.01149536 -0.00099569
v -0.00123001 0.01134118 -0.00077898
v -0.00123031 0.01118821 -0.00077997
v -0.00114823 0.01134118 -0.00099569
v -0.00119026 -0.00068984 -0.00098825
v -0.00104987 -0.00068984 -0.00115698
v -0.00110427 0.00996198 -0.00110404
v -0.00110391 0.01011616 -0.00110380
v -0.00110204 0.01103523 -0.00110194
v -0.00110138 0.01134118 -0.00110119
v -0.00111786 -0.00068984 -0.00111768
v -0.00110366 0.01026793 -0.00110342
v -0.00110442 0.00980900 -0.00110429
f 1 2 10
f 1 10 22
f 1 22 34
f 1 34 51
f 1 51 56
f 1 56 55
f 1 55 54
f 1 54 53
f 1 53 41
f 1 41 26
f 1 26 15
f 1 15 3
f 1 3 4
f 1 4 5
f 1 5 6
f 1 6 7
f 1 7 8
f 1 8 9
f 1 9 11
f 1 11 2
f 2 11 12
f 2 12 13
f 2 13 14
f 2 14 10
f 3 15 4
f 4 15 16
f 4 16 27
f 4 27 42
f 4 42 52
f 4 52 35
f 4 35 43
f 4 43 28
f 4 28 17
f 4 17 6
f 4 6 5
f 6 17 7
f 7 18 8
f 7 17 18
f 8 18 19
f 8 19 9
f 9 19 18
f 9 18 20
f 9 20 11
f 10 21 33
f 10 33 50
f 10 50 62
f 10 62 61
f 10 61 71
f 10 71 77
f 10 77 72
f 10 72 63
f 10 63 43
f 10 43 35
f 10 35 22
f 10 14 25
f 10 25 21
f 11 20 23
f 11 23 12
f 12 23 24
f 12 24 13
f 13 24 25
f 13 25 14
f 15 26 16
f 16 26 27
f 17 28 18
f 18 29 30
f 18 30 20
f 18 28 29
f 20 30 31
f 20 31 32
f 20 32 23
f 21 25 33
f 22 35 34
f 23 32 36
f 23 36 24
f 24 37 38
f 24 38 25
f 24 36 39
f 24 39 37
f 25 38 40
f 25 40 33
f 26 41 27
f 27 41 42
f 28 43 44
f 28 44 45
f 28 45 46
f 28 46 47
f 28 47 29
f 29 47 30
f 30 47 48
f 30 48 31
f 31 48 49
f 31 49 32
f 32 49 36
f 33 40 50
f 34 35 51
f 35 52 41
f 35 41 53
f 35 53 54
f 35 54 55
f 35 55 56
f 35 56 51
f 36 49 57
f 36 57 39
f 37 39 58
f 37 58 59
f 37 59 38
f 38 59 40
f 39 57 58
f 40 59 60
f 40 60 61
f 40 61 62
f 40 62 50
f 41 52 42
f 43 63 64
f 43 64 44
f 44 64 45
f 45 65 46
f 45 64 65
f 46 65 48
f 46 48 47
f 48 65 66
f 48 66 67
f 48 67 57
f 48 57 49
f 57 67 58
f 58 67 68
f 58 68 59
f 59 68 69
f 59 69 60
f 60 69 70
f 60 70 61
f 61 70 71
f 63 72 73
f 63 73 74
f 63 74 75
f 63 75 64
f 64 75 76
f 64 76 65
f 65 76 66
f 66 76 67
f 67 76 70
f 67 70 68
f 68 70 69
f 70 76 75
f 70 75 71
f 71 75 78
f 71 78 73
f 71 73 77
f 72 77 79
f 72 79 73
f 73 79 77
f 73 78 74
f 74 78 75

