# Blender 4.0.0
# www.blender.org
o decimated_mesh
v 0.009115 0.032108 0.000052
v 0.009112 0.032108 -0.000196
v 0.009472 0.041214 0.000161
v 0.009460 0.041214 -0.000382
v 0.009230 0.032108 -0.000437
v 0.009750 0.041214 0.000569
v 0.009376 0.032108 0.000552
v 0.009707 0.032108 -0.000649
v 0.010099 0.041214 0.000677
v 0.009709 0.032108 0.000679
v 0.010070 0.032783 -0.000666
v 0.010204 0.032112 -0.000524
v 0.010099 0.041214 -0.000674
v 0.010512 0.036046 0.000669
v 0.010579 0.036097 -0.000681
v 0.011116 0.036075 0.000396
v 0.010848 0.035802 -0.000561
v 0.010377 0.032107 -0.000247
v 0.010461 0.041214 -0.000572
v 0.011141 0.036204 0.000166
v 0.010748 0.041213 0.000387
v 0.010338 0.032108 0.000448
v 0.011111 0.036115 -0.000144
v 0.010730 0.041214 -0.000193
v 0.010780 0.037999 -0.000540
v 0.010693 0.033524 0.000396
v 0.011083 0.035492 -0.000004
v 0.010707 0.033457 -0.000041
v 0.010446 0.032108 0.000202
vn 0.0270 0.9996 0.0010
vn -0.8981 0.0253 -0.4391
vn -0.0001 1.0000 -0.0001
vn -0.2418 0.1533 0.9581
vn 0.3794 0.0284 -0.9248
vn 0.9869 0.0710 0.1446
vn 0.3441 -0.0678 0.9365
vn -0.0505 0.0031 -0.9987
vn 0.9906 0.0729 -0.1155
vn 0.2710 0.0267 -0.9622
vn 0.4060 -0.0157 0.9137
vn 0.4131 -0.0685 0.9081
vn -0.9990 0.0389 0.0227
vn 0.9658 -0.2132 -0.1473
vn -0.8859 0.0292 0.4629
vn 0.8130 0.0748 -0.5774
vn 0.8945 -0.2100 0.3947
vn 0.5015 -0.0810 -0.8614
vn 0.9814 -0.1825 0.0595
vn 0.0001 1.0000 -0.0000
vn -0.0015 1.0000 0.0049
vn -0.0001 1.0000 -0.0000
vn -0.0000 1.0000 -0.0000
vn 0.0019 -1.0000 0.0006
vn -0.0000 1.0000 -0.0003
vn -0.0075 1.0000 -0.0064
vn 0.4100 0.0311 0.9116
vn 0.4079 0.0312 0.9125
vn 0.0001 1.0000 -0.0003
vn -0.0000 1.0000 0.0001
vn 0.0004 1.0000 0.0004
vn 0.4273 0.0218 -0.9039
vn 0.9951 -0.0623 -0.0769
vn -0.0297 -0.0014 -0.9996
vn 0.9964 0.0795 -0.0303
vn 0.8350 0.0313 -0.5494
vn 0.8911 0.0622 -0.4495
vn -0.2940 0.0128 0.9557
vn -0.3555 0.0128 0.9346
vn 0.4144 -0.0154 0.9100
vn 0.8697 -0.1564 -0.4682
vn 0.8818 -0.1405 -0.4502
vn 0.8768 -0.1540 -0.4556
vn 0.8410 -0.1247 -0.5265
vn 0.4074 -0.0692 0.9106
vn -0.9992 0.0384 0.0113
vn 0.0143 -0.0004 0.9999
vn -0.8258 0.0328 0.5630
vn 0.3426 -0.0690 -0.9369
vn 0.9820 -0.1792 0.0590
vn 0.9942 -0.0933 0.0529
vn 0.9747 -0.1619 0.1542
vn 0.0003 1.0000 0.0002
vn 0.0003 1.0000 -0.0000
vn 0.0003 1.0000 0.0006
vn 0.4144 -0.0159 0.9100
vn 0.4060 -0.0150 0.9137
vn -0.0161 0.9995 0.0279
vn 0.8376 -0.1513 -0.5249
vn 0.8781 -0.1505 -0.4542
vn 0.9043 -0.1601 -0.3958
vn -0.0000 1.0000 -0.0005
vn 0.0001 1.0000 -0.0004
vn 0.0003 1.0000 -0.0001
vn -0.0000 1.0000 -0.0002
vn -0.0431 -0.0008 -0.9991
vn -0.0242 -0.0009 -0.9997
vn 0.4703 -0.0907 -0.8779
vn 0.3528 -0.0585 -0.9339
vn 0.9811 -0.1805 0.0692
vn 0.9823 -0.1823 0.0420
s 0
f 12//1 22//1 18//1
f 2//2 4//2 5//2
f 24//3 13//3 3//3
f 8//4 12//4 11//4
f 15//5 19//5 25//5
f 20//6 21//6 16//6
f 14//7 10//7 22//7
f 8//8 15//8 11//8
f 20//9 23//9 24//9
f 15//10 13//10 19//10
f 4//11 5//11 8//11
f 26//12 16//12 14//12
f 4//13 1//13 3//13
f 18//14 28//14 29//14
f 7//15 3//15 1//15
f 25//16 19//16 24//16
f 26//17 22//17 29//17
f 12//18 11//18 15//18
f 26//19 28//19 27//19
f 7//20 22//20 1//20
f 22//21 12//21 1//21
f 2//22 1//22 5//22
f 5//23 1//23 8//23
f 18//24 29//24 22//24
f 22//25 7//25 10//25
f 8//26 1//26 12//26
f 16//27 21//27 14//27
f 21//28 9//28 14//28
f 19//29 13//29 24//29
f 3//20 13//20 4//20
f 3//23 6//23 9//23
f 24//30 3//30 9//30
f 24//31 9//31 21//31
f 25//32 17//32 15//32
f 23//33 20//33 27//33
f 13//34 15//34 8//34
f 24//35 21//35 20//35
f 17//36 25//36 23//36
f 24//37 23//37 25//37
f 9//38 6//38 10//38
f 6//39 7//39 10//39
f 4//40 8//40 13//40
f 12//41 17//41 28//41
f 17//42 23//42 27//42
f 27//43 28//43 17//43
f 28//44 18//44 12//44
f 14//45 22//45 26//45
f 4//46 2//46 1//46
f 14//47 9//47 10//47
f 7//48 6//48 3//48
f 15//49 17//49 12//49
f 26//50 29//50 28//50
f 27//51 20//51 16//51
f 16//52 26//52 27//52
f 5//53 2//53 18//53
f 18//54 2//54 1//54
f 8//55 5//55 18//55
f 4//56 5//56 13//56
f 13//57 5//57 8//57
f 8//58 18//58 12//58
f 12//59 17//59 18//59
f 17//60 27//60 18//60
f 27//61 28//61 18//61
f 22//62 18//62 10//62
f 10//63 18//63 7//63
f 7//64 18//64 1//64
f 3//30 24//30 4//30
f 24//65 13//65 4//65
f 13//66 11//66 8//66
f 15//67 11//67 13//67
f 11//68 17//68 12//68
f 11//69 15//69 17//69
f 26//70 29//70 27//70
f 29//71 28//71 27//71
f 6//30 24//30 3//30
f 6//30 9//30 24//30
