# Blender 4.0.0
# www.blender.org
o decimated_mesh
v 0.001907 0.014496 0.000202
v 0.002065 0.015046 0.000404
v 0.001907 0.014690 -0.000209
v 0.005321 0.022410 -0.000243
v 0.005415 0.022410 0.000196
v 0.005302 0.022410 0.000432
v 0.001907 0.014935 0.000459
v 0.004614 0.022410 0.000686
v 0.001907 0.015423 -0.000564
v 0.005063 0.022410 -0.000571
v 0.001907 0.016440 0.000679
v 0.004120 0.022409 0.000546
v 0.004209 0.021977 0.000696
v 0.001911 0.017254 0.000689
v 0.001907 0.016266 -0.000690
v 0.004670 0.022409 -0.000693
v 0.001911 0.018098 0.000505
v 0.002336 0.017755 -0.000707
v 0.003876 0.022408 -0.000419
v 0.003840 0.022409 0.000144
v 0.003792 0.022410 -0.000196
v 0.001911 0.018422 -0.000423
v 0.001909 0.018484 0.000170
v 0.001906 0.018591 -0.000186
vn -0.5461 0.4227 -0.7232
vn -0.4410 0.1971 -0.8756
vn 0.0004 1.0000 0.0003
vn 0.0537 -0.0276 0.9982
vn -0.6935 0.3140 0.6484
vn -0.3106 0.1376 -0.9405
vn -0.8530 0.3778 -0.3601
vn -0.2626 0.2664 0.9274
vn -0.3114 0.1405 0.9398
vn -0.8881 0.4379 0.1395
vn -0.8973 0.3977 0.1913
vn -0.4019 0.1942 0.8949
vn -0.8503 0.4193 -0.3180
vn -0.3221 0.1643 -0.9323
vn 1.0000 -0.0004 0.0001
vn 1.0000 -0.0000 -0.0000
vn 1.0000 0.0001 -0.0001
vn 1.0000 -0.0056 0.0006
vn 1.0000 -0.0003 -0.0031
vn 1.0000 0.0070 0.0026
vn 0.9995 0.0313 0.0001
vn 1.0000 -0.0020 -0.0005
vn -0.0012 1.0000 0.0002
vn -0.0035 1.0000 -0.0011
vn -0.0007 1.0000 -0.0013
vn 0.0166 0.9999 -0.0002
vn 0.0003 1.0000 -0.0004
vn -0.0011 1.0000 -0.0010
vn 0.0239 -0.0120 0.9996
vn -0.3427 0.1565 -0.9263
vn -0.8373 0.3695 -0.4031
vn -0.2930 0.1334 0.9468
vn -0.8891 0.4394 0.1280
vn -0.7579 0.3834 0.5278
vn -0.7960 0.3947 0.4589
vn -0.8979 0.3982 0.1875
vn -0.4330 0.2136 0.8757
vn -0.8489 0.4183 -0.3232
vn -0.7418 0.3307 0.5835
vn 0.0673 -0.0308 -0.9973
vn -0.4243 0.1122 -0.8985
vn -0.3466 0.1718 -0.9221
vn -0.8505 0.4191 -0.3178
vn 0.9996 -0.0053 0.0262
vn 1.0000 0.0002 0.0005
vn 1.0000 0.0002 0.0004
vn 1.0000 0.0001 -0.0007
vn 1.0000 0.0001 -0.0008
vn 0.9999 -0.0036 -0.0100
vn 0.9999 -0.0046 -0.0107
vn -0.0043 1.0000 0.0027
vn -0.0001 1.0000 0.0001
vn -0.0019 1.0000 -0.0060
vn -0.0028 1.0000 -0.0076
vn -0.8487 0.4186 -0.3232
vn -0.0018 1.0000 0.0017
vn -0.2931 0.1323 0.9469
vn -0.3091 0.1406 0.9406
vn -0.3430 0.1524 -0.9269
vn -0.3019 0.1380 -0.9433
vn 0.9997 -0.0052 -0.0258
vn 0.0493 -0.0235 0.9985
vn 0.0215 -0.0120 0.9997
vn -0.0006 1.0000 0.0005
vn 0.0011 1.0000 -0.0002
s 0
f 2//1 1//1 7//1
f 2//2 7//2 6//2
f 4//3 10//3 8//3
f 13//4 14//4 8//4
f 3//5 10//5 9//5
f 6//6 7//6 11//6
f 2//7 5//7 1//7
f 8//8 12//8 13//8
f 16//9 15//9 9//9
f 20//10 24//10 23//10
f 5//11 4//11 3//11
f 14//12 13//12 17//12
f 24//13 19//13 22//13
f 16//14 18//14 19//14
f 1//15 3//15 7//15
f 7//16 9//16 11//16
f 9//17 15//17 11//17
f 11//18 15//18 14//18
f 14//19 15//19 17//19
f 17//20 22//20 23//20
f 23//21 22//21 24//21
f 22//22 17//22 15//22
f 9//16 7//16 3//16
f 6//23 5//23 4//23
f 6//3 4//3 8//3
f 10//24 16//24 8//24
f 16//25 19//25 20//25
f 19//26 21//26 20//26
f 20//27 12//27 16//27
f 16//28 12//28 8//28
f 11//29 8//29 14//29
f 6//30 11//30 8//30
f 6//31 5//31 2//31
f 16//32 9//32 10//32
f 21//33 24//33 20//33
f 17//34 12//34 20//34
f 23//35 17//35 20//35
f 5//36 3//36 1//36
f 12//37 17//37 13//37
f 24//38 21//38 19//38
f 3//39 4//39 10//39
f 15//40 18//40 16//40
f 18//41 15//41 22//41
f 22//42 19//42 18//42
f 21//43 22//43 24//43
f 22//44 24//44 15//44
f 15//45 24//45 9//45
f 9//45 24//45 3//45
f 3//46 24//46 1//46
f 1//47 24//47 7//47
f 7//48 24//48 11//48
f 11//49 24//49 17//49
f 17//50 24//50 23//50
f 12//51 21//51 20//51
f 8//52 10//52 21//52
f 10//53 16//53 21//53
f 16//54 19//54 21//54
f 19//55 22//55 21//55
f 12//56 8//56 21//56
f 16//57 15//57 10//57
f 10//58 15//58 9//58
f 6//59 7//59 8//59
f 8//60 7//60 11//60
f 14//61 11//61 17//61
f 8//62 13//62 11//62
f 13//63 14//63 11//63
f 6//3 10//3 8//3
f 6//64 5//64 10//64
f 5//65 4//65 10//65
