# Blender 4.0.0
# www.blender.org
o decimated_mesh
v 0.005556 0.022628 0.000167
v 0.005976 0.023352 0.000392
v 0.005560 0.022800 -0.000245
v 0.008580 0.027412 0.000223
v 0.005561 0.022833 0.000426
v 0.008336 0.027118 0.000409
v 0.008397 0.027519 -0.000498
v 0.008671 0.027557 -0.000030
v 0.005562 0.023143 -0.000516
v 0.009513 0.029625 0.000395
v 0.010340 0.031497 -0.000003
v 0.008076 0.027737 0.000652
v 0.008012 0.027385 -0.000663
v 0.005559 0.023897 0.000673
v 0.010307 0.031558 0.000402
v 0.010365 0.032099 -0.000303
v 0.005563 0.023596 -0.000648
v 0.010441 0.032106 0.000212
v 0.009704 0.031651 0.000667
v 0.010014 0.031401 -0.000539
v 0.005780 0.024334 -0.000702
v 0.009712 0.031498 -0.000682
v 0.005559 0.024506 0.000707
v 0.010332 0.032106 0.000455
v 0.010148 0.032104 -0.000548
v 0.009707 0.032106 0.000679
v 0.005559 0.024495 -0.000661
v 0.005559 0.024951 0.000607
v 0.009707 0.032106 -0.000649
v 0.009380 0.032106 0.000551
v 0.009182 0.032100 -0.000408
v 0.005559 0.025316 -0.000379
v 0.009092 0.032106 -0.000034
v 0.005559 0.025384 0.000191
vn 0.8359 -0.5301 0.1428
vn -0.8069 0.4373 0.3970
vn 0.9181 -0.3894 0.0745
vn 0.6949 -0.4480 -0.5626
vn 0.8047 -0.3752 0.4600
vn -0.3646 0.2023 0.9089
vn 0.9093 -0.0806 0.4082
vn 0.9170 -0.3772 0.1296
vn 0.9830 -0.1132 -0.1443
vn -0.5242 0.2765 -0.8054
vn 0.8453 -0.5343 -0.0022
vn -0.8620 0.4594 -0.2145
vn 0.1894 -0.1261 -0.9738
vn 0.2229 0.0547 -0.9733
vn 0.7211 -0.5498 0.4216
vn -0.8847 0.4631 -0.0545
vn 0.7710 -0.4856 -0.4119
vn 0.0043 1.0000 0.0038
vn 0.7391 -0.1502 -0.6567
vn 0.3363 -0.0266 0.9414
vn 0.8277 -0.3475 -0.4407
vn -0.4395 0.1859 0.8788
vn -0.1274 0.0726 -0.9892
vn -0.4093 0.2244 -0.8843
vn 0.0928 -0.0554 0.9941
vn 1.0000 -0.0004 -0.0000
vn 1.0000 0.0048 0.0018
vn 1.0000 -0.0027 0.0035
vn 1.0000 -0.0016 0.0028
vn 0.9997 -0.0252 0.0004
vn 1.0000 0.0016 -0.0010
vn 1.0000 0.0001 -0.0003
vn 1.0000 -0.0002 -0.0003
vn 1.0000 -0.0002 -0.0002
vn -0.7901 0.4254 0.4413
vn -0.4608 0.3009 0.8349
vn -0.4038 0.2581 0.8777
vn 0.9136 -0.3933 0.1027
vn -0.3360 0.2151 -0.9170
vn -0.3398 0.2119 -0.9163
vn -0.3382 0.2161 -0.9159
vn 0.4005 -0.1829 0.8979
vn 0.3759 -0.1578 0.9131
vn 0.3855 -0.1060 0.9166
vn 0.3703 -0.1575 0.9155
vn 0.9737 -0.2006 0.1078
vn -0.3574 0.1981 0.9127
vn 0.8223 -0.5282 -0.2114
vn 0.0551 -0.0275 -0.9981
vn 0.8180 -0.5137 0.2588
vn -0.0000 1.0000 0.0006
vn -0.0001 1.0000 0.0002
vn -0.0202 0.9996 -0.0207
vn 0.0012 1.0000 -0.0026
vn -0.0211 0.9997 -0.0098
vn 0.0284 0.9996 -0.0076
vn 0.8214 -0.3469 -0.4527
vn 0.8439 -0.2674 -0.4651
vn 0.4037 -0.0894 -0.9105
vn -0.3785 0.1672 0.9104
vn -0.1898 -0.0150 -0.9817
vn -0.0943 0.0529 -0.9941
vn 0.0539 -0.0263 0.9982
vn 0.0570 -0.0274 0.9980
vn 0.9999 0.0072 0.0139
vn 0.9997 0.0072 -0.0253
vn 1.0000 0.0006 -0.0086
vn 1.0000 -0.0009 -0.0035
vn 1.0000 -0.0013 -0.0014
vn 1.0000 -0.0013 0.0001
vn 1.0000 -0.0010 0.0016
vn 0.9999 0.0030 0.0107
vn 0.9995 0.0052 0.0306
vn -0.3958 0.2591 0.8810
vn -0.4598 0.2946 0.8377
vn -0.3640 0.2322 -0.9020
vn -0.3387 0.2158 -0.9158
vn -0.3320 0.2125 -0.9190
vn 0.0574 -0.0277 0.9980
vn 0.0549 -0.0263 0.9981
vn -0.3574 0.1984 0.9126
vn -0.3653 0.2023 0.9087
vn -0.1282 0.0714 -0.9892
vn -0.3804 0.1616 0.9106
vn -0.4410 0.1928 0.8765
vn 0.0002 1.0000 -0.0002
vn 0.0003 1.0000 -0.0003
vn -0.0916 0.0530 -0.9944
vn 0.0065 1.0000 -0.0056
vn 0.0413 0.9990 -0.0190
s 0
f 1//1 4//1 2//1
f 34//2 30//2 33//2
f 10//3 8//3 11//3
f 7//4 3//4 9//4
f 4//5 10//5 6//5
f 26//6 28//6 23//6
f 18//7 24//7 15//7
f 10//8 11//8 15//8
f 11//9 16//9 18//9
f 31//10 27//10 32//10
f 1//11 8//11 4//11
f 31//12 32//12 33//12
f 21//13 13//13 17//13
f 25//14 22//14 29//14
f 5//15 1//15 2//15
f 34//16 33//16 32//16
f 8//17 3//17 7//17
f 25//18 29//18 33//18
f 20//19 25//19 16//19
f 19//20 24//20 26//20
f 11//21 8//21 20//21
f 7//22 22//22 13//22
f 21//23 27//23 22//23
f 27//24 31//24 29//24
f 23//25 14//25 12//25
f 32//26 34//26 27//26
f 27//27 14//27 17//27
f 17//28 14//28 9//28
f 9//29 14//29 3//29
f 1//30 3//30 5//30
f 5//31 3//31 14//31
f 14//32 27//32 23//32
f 23//33 27//33 28//33
f 28//34 27//34 34//34
f 34//35 28//35 30//35
f 17//36 7//36 13//36
f 7//37 17//37 9//37
f 10//38 4//38 8//38
f 12//39 2//39 14//39
f 2//40 5//40 14//40
f 2//41 12//41 6//41
f 6//42 10//42 12//42
f 10//43 15//43 19//43
f 15//44 24//44 19//44
f 19//45 12//45 10//45
f 18//46 15//46 11//46
f 26//47 30//47 28//47
f 8//48 1//48 3//48
f 21//49 22//49 13//49
f 6//50 2//50 4//50
f 33//51 30//51 24//51
f 30//52 26//52 24//52
f 29//53 31//53 33//53
f 33//54 24//54 25//54
f 24//55 18//55 16//55
f 16//56 25//56 24//56
f 7//57 20//57 8//57
f 20//58 16//58 11//58
f 25//59 20//59 22//59
f 20//60 22//60 7//60
f 17//61 27//61 21//61
f 27//62 29//62 22//62
f 12//63 19//63 26//63
f 26//64 23//64 12//64
f 9//65 1//65 3//65
f 5//66 1//66 14//66
f 14//67 1//67 23//67
f 23//68 1//68 28//68
f 28//69 1//69 34//69
f 34//70 1//70 32//70
f 32//71 1//71 27//71
f 27//72 1//72 9//72
f 27//73 9//73 17//73
f 17//74 9//74 13//74
f 13//75 9//75 7//75
f 6//76 2//76 5//76
f 6//77 5//77 12//77
f 12//78 5//78 14//78
f 12//79 19//79 23//79
f 19//80 26//80 23//80
f 26//81 30//81 23//81
f 30//82 28//82 23//82
f 29//83 21//83 27//83
f 22//84 13//84 20//84
f 20//85 13//85 7//85
f 24//86 18//86 29//86
f 24//87 29//87 33//87
f 29//88 22//88 21//88
f 18//89 25//89 29//89
f 18//90 16//90 25//90
