# https://github.com/mikedh/trimesh
mtllib material.mtl
usemtl material_0
v -0.01805700 0.03860310 -0.27967700
v -0.03997300 0.03246710 -0.27819300
v -0.00397900 0.03258010 -0.28011100
v 0.11797300 0.04138810 -0.25465200
v 0.13152800 0.03961410 -0.23998500
v 0.13196000 0.04376510 -0.23718100
v 0.10697900 0.04039810 -0.26465300
v 0.10917400 0.03274710 -0.26371800
v 0.09613900 0.03967910 -0.27116300
v 0.09541900 0.03238110 -0.27182300
v 0.08483900 0.03935110 -0.27525300
v 0.07836100 0.03240510 -0.27707200
v 0.07141100 0.03838110 -0.27785900
v 0.03700500 0.03257710 -0.28010900
v 0.03494200 0.03858910 -0.28013300
v -0.21659000 0.04826910 -0.01867900
v -0.22385800 0.04439810 0.00739900
v -0.21869000 0.04447310 -0.03053800
v -0.21846600 0.04814310 0.06024800
v -0.22091800 0.04428210 0.07075200
v -0.22369200 0.04433210 0.04506900
v 0.23113900 0.04800710 0.12732500
v 0.22853300 0.04413710 0.14349200
v 0.21238800 0.04791910 0.16640800
v 0.13332200 0.04391710 0.25193400
v 0.15801400 0.04778910 0.23019600
v 0.15305800 0.04394410 0.23847100
v -0.20809600 0.04838310 -0.05746800
v -0.21252700 0.04452910 -0.05608700
v -0.20209500 0.04456010 -0.08658800
v 0.18381400 0.04452810 -0.16758800
v 0.20350000 0.04844710 -0.13196300
v 0.17864400 0.04835910 -0.16790500
v 0.21238800 0.04791910 0.16640800
v 0.21704900 0.04408810 0.16565900
v 0.20364200 0.04404610 0.18637700
v 0.23793100 0.04418610 0.12018600
v 0.23113900 0.04800710 0.12732500
v 0.24065600 0.04806810 0.09715500
v 0.13196000 0.04376510 -0.23718100
v 0.18381400 0.04452810 -0.16758800
v 0.17864400 0.04835910 -0.16790500
v 0.13488200 0.04777610 -0.22676900
v -0.06839200 0.04644610 -0.26505800
v -0.07764900 0.04040310 -0.26466200
v -0.06681600 0.03968710 -0.27116600
v -0.07985000 0.03275010 -0.26372000
v -0.08862600 0.04138810 -0.25467900
v -0.06179500 0.03236610 -0.27368300
v -0.05151700 0.03814210 -0.27653900
v -0.08616300 0.04715910 -0.25043100
v -0.10267600 0.04377210 -0.23713000
v -0.05094900 0.04255810 -0.27447600
v -0.05023000 0.04638410 -0.27135900
v -0.01741000 0.04658110 -0.27452500
v -0.01529900 0.04274810 -0.27773300
v 0.04354400 0.04654610 -0.27479500
v 0.03544900 0.04274010 -0.27801500
v 0.07049700 0.04264710 -0.27581700
v 0.07956400 0.04638110 -0.27135400
v 0.09774300 0.04642910 -0.26506100
v 0.11565100 0.04717810 -0.25023900
v -0.19182700 0.04840910 -0.09980100
v -0.18294600 0.04459910 -0.12563300
v -0.20250100 0.04040610 -0.08878300
v -0.21331600 0.04037110 -0.05762500
v -0.22107000 0.04044610 -0.02479400
v -0.22535200 0.04022510 0.01548000
v -0.22472200 0.04016110 0.04764400
v -0.22172800 0.04011010 0.07346600
v -0.21588200 0.04423410 0.09583300
v -0.21645900 0.04006110 0.09866200
v -0.20861500 0.04418510 0.12018500
v -0.20895200 0.04001110 0.12309800
v -0.19921800 0.04413710 0.14349000
v -0.19930600 0.03996110 0.14646200
v -0.18773400 0.04408810 0.16565700
v -0.18757900 0.03991210 0.16864300
v -0.17432600 0.04404610 0.18637700
v -0.17392700 0.03987010 0.18935300
v -0.15907100 0.04401010 0.20555700
v -0.15843500 0.03983310 0.20849100
v -0.15987000 0.03386210 0.20684200
v -0.17520800 0.03389910 0.18755400
v -0.18869400 0.03394210 0.16670900
v -0.20024400 0.03399210 0.14441100
v -0.20970300 0.03404110 0.12094800
v -0.21701600 0.03409110 0.09643100
v -0.22208500 0.03414010 0.07117500
v -0.22487600 0.03419110 0.04531200
v -0.22521000 0.03424410 0.01222000
v -0.22066700 0.03432310 -0.02706600
v -0.21300100 0.03439910 -0.05871300
v -0.20442100 0.03442610 -0.08371500
v -0.18794200 0.03445110 -0.11946700
v -0.18811800 0.04042410 -0.11858200
v -0.17531100 0.04045610 -0.13984100
v -0.16334500 0.03444810 -0.15751600
v -0.15447600 0.04452910 -0.16761500
v -0.15616600 0.04038410 -0.16744200
v -0.10261800 0.03365810 -0.23955700
v -0.10223000 0.03961910 -0.23995600
v -0.10267600 0.04377210 -0.23713000
v -0.08862600 0.04138810 -0.25467900
v -0.07985000 0.03275010 -0.26372000
v -0.20809600 0.04838310 -0.05746800
v -0.21869000 0.04447310 -0.03053800
v -0.21252700 0.04452910 -0.05608700
v -0.21659000 0.04826910 -0.01867900
v -0.19238800 0.05339710 -0.04130800
v -0.19182700 0.04840910 -0.09980100
v -0.20209500 0.04456010 -0.08658800
v -0.20138700 0.05313110 0.03928400
v -0.22000300 0.04822810 0.01530400
v -0.22385800 0.04439810 0.00739900
v -0.22369200 0.04433210 0.04506900
v -0.21846600 0.04814310 0.06024800
v -0.16823300 0.05340910 -0.10402100
v -0.17417400 0.04844810 -0.13197700
v -0.18294600 0.04459910 -0.12563300
v -0.15447600 0.04452910 -0.16761500
v -0.14926000 0.04835910 -0.16799500
v -0.10267600 0.04377210 -0.23713000
v -0.13985900 0.05339110 -0.14783500
v -0.10547500 0.04777710 -0.22688100
v -0.08616300 0.04715910 -0.25043100
v -0.09138000 0.05278810 -0.21336900
v -0.09327600 0.06740310 -0.07553300
v -0.03834500 0.06653710 -0.15032100
v -0.06870300 0.05198810 -0.24072700
v -0.06839200 0.04644610 -0.26505800
v -0.04527300 0.05132310 -0.25332400
v -0.05023000 0.04638410 -0.27135900
v -0.01741000 0.04658110 -0.27452500
v 0.02426100 0.05164610 -0.25619400
v 0.04354400 0.04654610 -0.27479500
v 0.08303400 0.05125910 -0.25130500
v 0.07956400 0.04638110 -0.27135400
v 0.09774300 0.04642910 -0.26506100
v 0.10757100 0.05257410 -0.23020200
v 0.11565100 0.04717810 -0.25023900
v 0.02739400 0.06603910 -0.16069800
v 0.06858900 0.06655610 -0.14945100
v 0.12032000 0.06740010 -0.07869200
v 0.13488200 0.04777610 -0.22676900
v 0.13196000 0.04376510 -0.23718100
v 0.16915100 0.05339110 -0.14787200
v 0.19753200 0.05341010 -0.10404500
v 0.14479000 0.06731710 -0.02765000
v -0.11623600 0.06731310 -0.02414800
v -0.12256800 0.06717810 0.03318100
v 0.15188800 0.06717710 0.03315200
v 0.22170100 0.05339710 -0.04130800
v 0.22113200 0.04840810 -0.09982500
v 0.21227000 0.04459910 -0.12562100
v 0.23740900 0.04838310 -0.05747800
v 0.23141600 0.04455910 -0.08657700
v 0.24590900 0.04827110 -0.01865900
v 0.24800800 0.04447410 -0.03053000
v 0.23018100 0.05316310 0.02135300
v 0.24932000 0.04822810 0.01534200
v 0.24778000 0.04814410 0.06026900
v 0.22563500 0.05307710 0.07643800
v 0.24065600 0.04806810 0.09715500
v 0.14008400 0.06704810 0.08521400
v 0.20617900 0.05294310 0.13734400
v -0.10553100 0.06701610 0.09893700
v 0.11416600 0.06693910 0.12868300
v 0.17582400 0.05281810 0.18485600
v -0.18387200 0.05299310 0.12167500
v 0.18768600 0.04784910 0.20071800
v 0.20364200 0.04404610 0.18637700
v -0.21134600 0.04806710 0.09713400
v -0.21588200 0.04423410 0.09583300
v -0.22091800 0.04428210 0.07075200
v -0.20861500 0.04418510 0.12018500
v -0.20183200 0.04800610 0.12730300
v -0.19921800 0.04413710 0.14349000
v -0.18308400 0.04791910 0.16638800
v -0.15006700 0.05283010 0.18069000
v -0.15838300 0.04784810 0.20070300
v -0.12871200 0.04778810 0.23018500
v -0.06458000 0.06689010 0.14775100
v -0.11149000 0.05274010 0.21947100
v -0.08967900 0.04773410 0.25625900
v -0.10401100 0.04391610 0.25193100
v -0.12374400 0.04394410 0.23846900
v -0.07037700 0.05268010 0.24438400
v 0.07059400 0.06685510 0.16211800
v -0.01916300 0.06683610 0.17020600
v 0.14079400 0.05274110 0.21947400
v 0.17149300 0.04397610 0.22294700
v 0.18838600 0.04401010 0.20555800
v 0.11898300 0.04773510 0.25626500
v 0.09968300 0.05268110 0.24438500
v -0.04671600 0.04770310 0.27363300
v -0.06127700 0.04388010 0.27234400
v -0.08309600 0.04389610 0.26327100
v -0.03052400 0.05265210 0.25806600
v -0.01322300 0.04768910 0.28027900
v 0.01465400 0.05270710 0.26296800
v 0.01465500 0.04772810 0.28210600
v 0.04253400 0.04768910 0.28028000
v 0.02452900 0.06682710 0.17429200
v 0.05983100 0.05265310 0.25806500
v 0.07602200 0.04770310 0.27363500
v 0.09058700 0.04388010 0.27234600
v 0.11240700 0.04389610 0.26327300
v -0.14217900 0.04397510 0.22294500
v -0.15907100 0.04401010 0.20555700
v -0.17432600 0.04404610 0.18637700
v -0.18773400 0.04408810 0.16565700
v 0.04253400 0.04768910 0.28028000
v 0.03951500 0.04386210 0.28428500
v 0.01465500 0.04772810 0.28210600
v 0.07602200 0.04770310 0.27363500
v 0.06799800 0.04386910 0.27911200
v 0.09058700 0.04388010 0.27234600
v 0.07764100 0.03969710 0.27828900
v 0.10005000 0.03971110 0.27052400
v 0.09090600 0.03373010 0.27397400
v 0.11240700 0.04389610 0.26327300
v 0.12652200 0.03973410 0.25792600
v 0.13332200 0.04391710 0.25193400
v 0.11898300 0.04773510 0.25626500
v 0.15197000 0.03976710 0.24124500
v 0.15305800 0.04394410 0.23847100
v 0.06822100 0.03371910 0.28077000
v 0.05464500 0.03968710 0.28367900
v 0.04504500 0.03371110 0.28516600
v 0.03124500 0.03968210 0.28665000
v 0.02051700 0.03370710 0.28718700
v 0.00881800 0.04385710 0.28550100
v -0.01322300 0.04768910 0.28027900
v 0.00292900 0.03968210 0.28704200
v -0.00400900 0.03370810 0.28645500
v -0.01560600 0.04386110 0.28348900
v -0.04671600 0.04770310 0.27363300
v -0.02533400 0.03968710 0.28367800
v -0.02738200 0.03371410 0.28326700
v -0.03868700 0.04386810 0.27911100
v -0.06127700 0.04388010 0.27234400
v -0.04832700 0.03969710 0.27828800
v -0.05033200 0.03372410 0.27766600
v -0.07073700 0.03971010 0.27052300
v -0.07267600 0.03373810 0.26969500
v -0.08309600 0.04389610 0.26327100
v -0.09720800 0.03973310 0.25792500
v -0.09980600 0.03376210 0.25641300
v -0.10401100 0.04391610 0.25193100
v -0.08967900 0.04773410 0.25625900
v -0.12265700 0.03976610 0.24124300
v -0.12374400 0.04394410 0.23846900
v -0.12435700 0.03379510 0.23993200
v -0.14131100 0.03979810 0.22581400
v -0.14288700 0.03382710 0.22432700
v 0.11282500 0.03374610 0.26485900
v 0.13383600 0.03376810 0.25346700
v 0.15366900 0.03379510 0.23993600
v 0.17062500 0.03979910 0.22581600
v 0.17219800 0.03382710 0.22433100
v 0.17149300 0.04397610 0.22294700
v 0.15801400 0.04778910 0.23019600
v -0.14217900 0.04397510 0.22294500
v -0.15843500 0.03983310 0.20849100
v -0.15907100 0.04401010 0.20555700
v -0.15987000 0.03386210 0.20684200
v 0.22853300 0.04413710 0.14349200
v 0.22862200 0.03996210 0.14646300
v 0.21689400 0.03991310 0.16864400
v 0.23826900 0.04001210 0.12309900
v 0.21800700 0.03394210 0.16671500
v 0.22955800 0.03399210 0.14441600
v 0.20452200 0.03389910 0.18755700
v 0.23901800 0.03404210 0.12095300
v 0.20324300 0.03987010 0.18935300
v 0.18918400 0.03386310 0.20684400
v 0.24577500 0.04006110 0.09866300
v 0.24633100 0.03409110 0.09643600
v 0.25104400 0.04011110 0.07346800
v 0.24519700 0.04423410 0.09583400
v 0.24778000 0.04814410 0.06026900
v 0.18838600 0.04401010 0.20555800
v 0.18768600 0.04784910 0.20071800
v 0.18775200 0.03983410 0.20849000
v 0.17219800 0.03382710 0.22433100
v 0.17149300 0.04397610 0.22294700
v 0.17062500 0.03979910 0.22581600
v 0.25140100 0.03414010 0.07118100
v 0.25403800 0.04016210 0.04764500
v 0.25419200 0.03419210 0.04531800
v 0.25023400 0.04428210 0.07075400
v 0.25300800 0.04433310 0.04506900
v 0.25466800 0.04022510 0.01548300
v 0.25452700 0.03424410 0.01222700
v 0.25317400 0.04439810 0.00740200
v 0.25038800 0.04044610 -0.02478700
v 0.24800800 0.04447410 -0.03053000
v 0.24998500 0.03432410 -0.02705700
v 0.24184500 0.04452910 -0.05608000
v 0.24263600 0.04037110 -0.05761600
v 0.24231900 0.03439810 -0.05870800
v 0.23141600 0.04455910 -0.08657700
v 0.23182100 0.04040510 -0.08877400
v 0.23374100 0.03442510 -0.08370900
v 0.21726200 0.03445110 -0.11946300
v 0.21227000 0.04459910 -0.12562100
v 0.22113200 0.04840810 -0.09982500
v 0.21743900 0.04042410 -0.11857500
v 0.20463300 0.04045510 -0.13983400
v 0.19266200 0.03444710 -0.15751700
v 0.18381400 0.04452810 -0.16758800
v 0.18549200 0.04038310 -0.16743200
v 0.13194200 0.03365610 -0.23955300
v 0.13152800 0.03961410 -0.23998500
v 0.13196000 0.04376510 -0.23718100
v 0.11797300 0.04138810 -0.25465200
v 0.10917400 0.03274710 -0.26371800
v 0.24932000 0.04822810 0.01534200
v 0.24590900 0.04827110 -0.01865900
v 0.23740900 0.04838310 -0.05747800
v -0.04794900 0.03562410 0.27046400
v -0.04624400 0.04157910 0.27099800
v -0.06787600 0.04159310 0.26348700
v -0.02579800 0.03561510 0.27586000
v -0.02406000 0.04157010 0.27621400
v -0.00325000 0.03560910 0.27892500
v -0.00149100 0.04156410 0.27909600
v 0.02596300 0.03558210 0.27954300
v 0.02611900 0.04157410 0.27947700
v 0.05337000 0.04157010 0.27621500
v 0.05510900 0.03561510 0.27586100
v 0.07555600 0.04157910 0.27099900
v 0.07726100 0.03562410 0.27046500
v 0.09718800 0.04159310 0.26348800
v 0.09883900 0.03563910 0.26277800
v 0.11799900 0.04161110 0.25376200
v 0.12502300 0.03566510 0.24997700
v 0.14244000 0.04164310 0.23887000
v 0.14880500 0.03569710 0.23403000
v 0.16539700 0.04168210 0.22021200
v 0.16674700 0.03572910 0.21893300
v -0.06952900 0.03563910 0.26277600
v -0.08868800 0.04161110 0.25375900
v -0.09571100 0.03566410 0.24997400
v -0.11312800 0.04164310 0.23886700
v -0.11949200 0.03569710 0.23402800
v -0.13608300 0.04168210 0.22021000
v -0.13743300 0.03572910 0.21893100
v -0.15265900 0.04171810 0.20342100
v -0.15389100 0.03576510 0.20200000
v -0.07496000 0.03462310 -0.25777600
v -0.07655000 0.04065610 -0.25645500
v -0.05892000 0.04021110 -0.26673100
v -0.05897100 0.03429210 -0.26659000
v -0.03892500 0.03439210 -0.27068800
v -0.04056900 0.04031510 -0.27040600
v -0.00516100 0.04044510 -0.27258000
v 0.00528000 0.03446710 -0.27279000
v 0.03956300 0.04044910 -0.27235700
v 0.06380400 0.03440910 -0.27125300
v 0.06989300 0.04031210 -0.27040400
v 0.08824300 0.04020810 -0.26672900
v 0.08829500 0.03428810 -0.26658800
v 0.10428300 0.03462010 -0.25777400
v 0.10587300 0.04065310 -0.25645300
v 0.12474700 0.03547110 -0.23614800
v 0.12639300 0.04151310 -0.23399700
v 0.18280800 0.03634010 -0.15817900
v 0.12474700 0.03547110 -0.23614800
v 0.12639300 0.04151310 -0.23399700
v 0.17787500 0.04224910 -0.16485900
v 0.20628600 0.04232610 -0.12301100
v 0.21031600 0.03635410 -0.11603600
v 0.22513600 0.04228410 -0.08462800
v 0.23091100 0.03632010 -0.06978400
v 0.23540200 0.04225410 -0.05466700
v 0.24229700 0.03622610 -0.02587000
v 0.24147500 0.04219810 -0.02955600
v 0.24534300 0.04213010 -0.00396100
v 0.24675400 0.03616810 0.01263200
v 0.24693900 0.04210010 0.02151700
v 0.24642000 0.03609710 0.04495500
v 0.24628700 0.04204910 0.04697200
v 0.24369100 0.03604510 0.07016000
v 0.24338200 0.04199710 0.07214600
v 0.23874500 0.03599510 0.09475300
v 0.23826500 0.04194710 0.09668200
v 0.23161900 0.03594610 0.11861000
v 0.23097200 0.04189810 0.12046700
v 0.22241200 0.03589510 0.14142000
v 0.22160900 0.04184710 0.14318200
v 0.21118300 0.03584610 0.16307900
v 0.21022200 0.04179810 0.16475000
v 0.19808800 0.03580210 0.18330200
v 0.19698500 0.04175510 0.18485500
v 0.18320600 0.03576510 0.20200100
v 0.18197300 0.04171810 0.20342300
v 0.16674700 0.03572910 0.21893300
v 0.16539700 0.04168210 0.22021200
v -0.21437500 0.03604510 0.07015300
v -0.21697100 0.04204810 0.04696800
v -0.21710400 0.03609710 0.04495000
v -0.21762300 0.04210010 0.02151100
v -0.21743800 0.03616810 0.01262300
v -0.21602700 0.04212910 -0.00395300
v -0.21297900 0.03622510 -0.02587700
v -0.21215700 0.04219710 -0.02956100
v -0.20608400 0.04225410 -0.05467100
v -0.20159300 0.03632010 -0.06978900
v -0.19581500 0.04228510 -0.08463800
v -0.18099600 0.03635410 -0.11604100
v -0.17696200 0.04232710 -0.12302200
v -0.15348400 0.03634110 -0.15818900
v -0.14853300 0.04225010 -0.16489200
v -0.09706700 0.04151510 -0.23400600
v -0.09542400 0.03547310 -0.23615100
v -0.07655000 0.04065610 -0.25645500
v -0.07496000 0.03462310 -0.25777600
v -0.21406600 0.04199710 0.07213900
v -0.20942900 0.03599510 0.09474800
v -0.20895000 0.04194710 0.09667600
v -0.20230400 0.03594510 0.11860600
v -0.20165700 0.04189710 0.12046200
v -0.19309800 0.03589510 0.14141500
v -0.19229500 0.04184710 0.14317700
v -0.18187000 0.03584510 0.16307400
v -0.18090900 0.04179710 0.16474500
v -0.16877300 0.03580210 0.18330000
v -0.16767100 0.04175410 0.18485200
v -0.15389100 0.03576510 0.20200000
v -0.15265900 0.04171810 0.20342100
v -0.07655000 0.04065610 -0.25645500
v -0.05328600 0.04501210 -0.24944000
v -0.05892000 0.04021110 -0.26673100
v -0.04056900 0.04031510 -0.27040600
v -0.07912300 0.04627310 -0.22670700
v -0.09706700 0.04151510 -0.23400600
v -0.14853300 0.04225010 -0.16489200
v -0.01446300 0.04523910 -0.25392300
v -0.00516100 0.04044510 -0.27258000
v 0.05952800 0.04518310 -0.25354200
v 0.03956300 0.04044910 -0.27235700
v 0.06989300 0.04031210 -0.27040400
v 0.08824300 0.04020810 -0.26672900
v -0.04579900 0.05253510 -0.16131300
v -0.13822900 0.04708810 -0.14716600
v -0.17696200 0.04232710 -0.12302200
v -0.09942300 0.05345510 -0.08589700
v -0.16664700 0.04710710 -0.10334100
v -0.19581500 0.04228510 -0.08463800
v -0.19075700 0.04705110 -0.04142400
v -0.20608400 0.04225410 -0.05467100
v -0.21215700 0.04219710 -0.02956100
v -0.21602700 0.04212910 -0.00395300
v 0.00614500 0.05201410 -0.17387900
v 0.07407900 0.05252110 -0.16199900
v 0.13623400 0.05347610 -0.07519500
v -0.12499100 0.05337810 -0.03083400
v -0.19901000 0.04689110 0.02098200
v -0.21762300 0.04210010 0.02151100
v -0.21697100 0.04204810 0.04696800
v -0.19462900 0.04677410 0.07607800
v -0.21406600 0.04199710 0.07213900
v -0.20895000 0.04194710 0.09667600
v -0.20165700 0.04189710 0.12046200
v -0.13344800 0.05323010 0.03099500
v -0.10989600 0.05302110 0.11625900
v -0.18166600 0.04667110 0.12037000
v -0.19229500 0.04184710 0.14317700
v -0.16153200 0.04656710 0.16132700
v -0.18090900 0.04179710 0.16474500
v -0.16767100 0.04175410 0.18485200
v -0.15265900 0.04171810 0.20342100
v -0.12295900 0.04646010 0.20791900
v -0.13608300 0.04168210 0.22021000
v -0.11312800 0.04164310 0.23886700
v -0.07438800 0.04637810 0.24083000
v -0.08868800 0.04161110 0.25375900
v -0.06787600 0.04159310 0.26348700
v -0.04624400 0.04157910 0.27099800
v -0.05511700 0.05288710 0.16815200
v 0.09194700 0.05289610 0.16566100
v -0.03013800 0.04634310 0.25644900
v -0.02406000 0.04157010 0.27621400
v -0.00149100 0.04156410 0.27909600
v 0.00749900 0.05284310 0.18817800
v 0.01465500 0.04635210 0.26148500
v 0.02611900 0.04157410 0.27947700
v 0.05944600 0.04634310 0.25645100
v 0.05337000 0.04157010 0.27621500
v 0.07555600 0.04157910 0.27099900
v 0.11324300 0.04639110 0.23640500
v 0.09718800 0.04159310 0.26348800
v 0.11799900 0.04161110 0.25376200
v 0.14244000 0.04164310 0.23887000
v 0.15995800 0.04647710 0.19995100
v 0.19084700 0.04656710 0.16132900
v 0.16539700 0.04168210 0.22021200
v 0.18197300 0.04171810 0.20342300
v 0.19698500 0.04175510 0.18485500
v 0.21022200 0.04179810 0.16475000
v 0.22160900 0.04184710 0.14318200
v 0.14562600 0.05305610 0.10159500
v 0.21098000 0.04667210 0.12037500
v 0.22394400 0.04677510 0.07608700
v 0.23097200 0.04189810 0.12046700
v 0.23826500 0.04194710 0.09668200
v 0.24338200 0.04199710 0.07214600
v 0.24628700 0.04204910 0.04697200
v 0.16373100 0.05324910 0.01997400
v 0.22008200 0.04705210 -0.04138500
v 0.22832700 0.04689110 0.02105400
v 0.24693900 0.04210010 0.02151700
v 0.24534300 0.04213010 -0.00396100
v 0.24147500 0.04219810 -0.02955600
v 0.23540200 0.04225410 -0.05466700
v 0.22513600 0.04228410 -0.08462800
v 0.19595100 0.04710610 -0.10336600
v 0.20628600 0.04232610 -0.12301100
v 0.16752200 0.04708810 -0.14720100
v 0.17787500 0.04224910 -0.16485900
v 0.11967700 0.04648610 -0.21190600
v 0.12639300 0.04151310 -0.23399700
v 0.09492000 0.04545310 -0.24218300
v 0.10587300 0.04065310 -0.25645300
v -0.18794200 0.03445110 -0.11946700
v -0.20442100 0.03442610 -0.08371500
v -0.20159300 0.03632010 -0.06978900
v -0.21300100 0.03439910 -0.05871300
v -0.18099600 0.03635410 -0.11604100
v -0.21297900 0.03622510 -0.02587700
v -0.16334500 0.03444810 -0.15751600
v -0.22066700 0.03432310 -0.02706600
v -0.15348400 0.03634110 -0.15818900
v -0.10261800 0.03365810 -0.23955700
v -0.09542400 0.03547310 -0.23615100
v -0.07985000 0.03275010 -0.26372000
v -0.07496000 0.03462310 -0.25777600
v -0.06179500 0.03236610 -0.27368300
v -0.05897100 0.03429210 -0.26659000
v -0.03997300 0.03246710 -0.27819300
v -0.03892500 0.03439210 -0.27068800
v -0.00397900 0.03258010 -0.28011100
v 0.00528000 0.03446710 -0.27279000
v 0.03700500 0.03257710 -0.28010900
v 0.06380400 0.03440910 -0.27125300
v 0.07836100 0.03240510 -0.27707200
v 0.08829500 0.03428810 -0.26658800
v 0.09541900 0.03238110 -0.27182300
v 0.10428300 0.03462010 -0.25777400
v 0.10917400 0.03274710 -0.26371800
v 0.12474700 0.03547110 -0.23614800
v 0.13194200 0.03365610 -0.23955300
v 0.18280800 0.03634010 -0.15817900
v 0.19266200 0.03444710 -0.15751700
v 0.21031600 0.03635410 -0.11603600
v 0.21726200 0.03445110 -0.11946300
v 0.23091100 0.03632010 -0.06978400
v 0.23374100 0.03442510 -0.08370900
v 0.24231900 0.03439810 -0.05870800
v 0.24229700 0.03622610 -0.02587000
v 0.24998500 0.03432410 -0.02705700
v 0.24675400 0.03616810 0.01263200
v 0.25452700 0.03424410 0.01222700
v 0.25419200 0.03419210 0.04531800
v 0.24642000 0.03609710 0.04495500
v 0.25140100 0.03414010 0.07118100
v 0.24369100 0.03604510 0.07016000
v 0.24633100 0.03409110 0.09643600
v 0.23874500 0.03599510 0.09475300
v 0.23901800 0.03404210 0.12095300
v 0.23161900 0.03594610 0.11861000
v 0.22955800 0.03399210 0.14441600
v 0.22241200 0.03589510 0.14142000
v 0.21800700 0.03394210 0.16671500
v 0.21118300 0.03584610 0.16307900
v 0.20452200 0.03389910 0.18755700
v 0.19808800 0.03580210 0.18330200
v 0.18918400 0.03386310 0.20684400
v 0.18320600 0.03576510 0.20200100
v 0.17219800 0.03382710 0.22433100
v 0.16674700 0.03572910 0.21893300
v 0.15366900 0.03379510 0.23993600
v 0.14880500 0.03569710 0.23403000
v 0.13383600 0.03376810 0.25346700
v 0.12502300 0.03566510 0.24997700
v 0.11282500 0.03374610 0.26485900
v 0.09883900 0.03563910 0.26277800
v 0.09090600 0.03373010 0.27397400
v 0.07726100 0.03562410 0.27046500
v 0.06822100 0.03371910 0.28077000
v 0.05510900 0.03561510 0.27586100
v 0.04504500 0.03371110 0.28516600
v 0.02596300 0.03558210 0.27954300
v 0.02051700 0.03370710 0.28718700
v -0.00325000 0.03560910 0.27892500
v -0.00400900 0.03370810 0.28645500
v -0.02579800 0.03561510 0.27586000
v -0.02738200 0.03371410 0.28326700
v -0.04794900 0.03562410 0.27046400
v -0.05033200 0.03372410 0.27766600
v -0.06952900 0.03563910 0.26277600
v -0.07267600 0.03373810 0.26969500
v -0.09571100 0.03566410 0.24997400
v -0.09980600 0.03376210 0.25641300
v -0.11949200 0.03569710 0.23402800
v -0.12435700 0.03379510 0.23993200
v -0.13743300 0.03572910 0.21893100
v -0.14288700 0.03382710 0.22432700
v -0.15389100 0.03576510 0.20200000
v -0.15987000 0.03386210 0.20684200
v -0.16877300 0.03580210 0.18330000
v -0.17520800 0.03389910 0.18755400
v -0.18187000 0.03584510 0.16307400
v -0.18869400 0.03394210 0.16670900
v -0.19309800 0.03589510 0.14141500
v -0.20024400 0.03399210 0.14441100
v -0.20230400 0.03594510 0.11860600
v -0.20970300 0.03404110 0.12094800
v -0.20942900 0.03599510 0.09474800
v -0.21701600 0.03409110 0.09643100
v -0.21437500 0.03604510 0.07015300
v -0.22208500 0.03414010 0.07117500
v -0.21710400 0.03609710 0.04495000
v -0.22487600 0.03419110 0.04531200
v -0.21743800 0.03616810 0.01262300
v -0.22521000 0.03424410 0.01222000
vt 0.98719800 0.60295500
vt 0.98492000 0.59467700
vt 0.98476700 0.60829600
vt 0.99082200 0.65463900
vt 0.99160500 0.65987600
vt 0.99353200 0.66005100
vt 0.98941800 0.65040900
vt 0.98648300 0.65126100
vt 0.98847500 0.64626000
vt 0.98551900 0.64599800
vt 0.98793200 0.64195300
vt 0.98499800 0.63950200
vt 0.98728500 0.63685200
vt 0.98476200 0.62381700
vt 0.98714100 0.62302400
vt 0.97869900 0.25070800
vt 0.98032000 0.26069000
vt 0.98025400 0.24625000
vt 0.97881300 0.28060900
vt 0.98041200 0.28462000
vt 0.98037500 0.27494400
vt 0.35369800 0.52555000
vt 0.35257300 0.51936700
vt 0.34667300 0.51079000
vt 0.31692200 0.47848300
vt 0.32631300 0.48673900
vt 0.32431000 0.48354600
vt 0.97861200 0.23589400
vt 0.98020400 0.23648300
vt 0.98015500 0.22477500
vt 0.33588500 0.63716900
vt 0.34339900 0.62372600
vt 0.33409800 0.63736800
vt 0.74804100 0.45236000
vt 0.74643300 0.45198900
vt 0.74651000 0.46008200
vt 0.74632600 0.43438900
vt 0.74794500 0.43721700
vt 0.74790300 0.42562200
vt 0.01371100 0.97965300
vt 0.01371100 0.95822100
vt 0.01164300 0.95955100
vt 0.01163200 0.97763500
vt 0.99178900 0.58397600
vt 0.98943700 0.58048400
vt 0.98849400 0.58454400
vt 0.98650200 0.57967200
vt 0.99083900 0.57639300
vt 0.98533900 0.58644300
vt 0.98733600 0.59030500
vt 0.99355500 0.57734400
vt 0.99356300 0.57118700
vt 0.98929400 0.59052500
vt 0.99112500 0.59081100
vt 0.99087900 0.60321900
vt 0.98903600 0.60400400
vt 0.99083200 0.62630200
vt 0.98899900 0.62322200
vt 0.98918200 0.63651100
vt 0.99111200 0.63996800
vt 0.99176600 0.64689600
vt 0.99356300 0.65377800
vt 0.97854800 0.21961600
vt 0.98008400 0.20969500
vt 0.98186100 0.22394700
vt 0.98191300 0.23591000
vt 0.98191700 0.24845800
vt 0.98204400 0.26376800
vt 0.98209400 0.27593100
vt 0.98213000 0.28565600
vt 0.98044400 0.29403300
vt 0.98216300 0.29510900
vt 0.98047300 0.30313500
vt 0.98219200 0.30423800
vt 0.98049800 0.31180600
vt 0.98221700 0.31292800
vt 0.98052000 0.32001400
vt 0.98223900 0.32113800
vt 0.98053600 0.32764400
vt 0.98225400 0.32876000
vt 0.98054500 0.33466200
vt 0.98226400 0.33575900
vt 0.98472000 0.33515200
vt 0.98471000 0.32809500
vt 0.98469400 0.32041800
vt 0.98467200 0.31216200
vt 0.98464600 0.30343100
vt 0.98461700 0.29426800
vt 0.98458400 0.28479000
vt 0.98454700 0.27504600
vt 0.98450100 0.26252700
vt 0.98443300 0.24758600
vt 0.98436800 0.23548800
vt 0.98432700 0.22589000
vt 0.98426800 0.21209900
vt 0.98181300 0.21244200
vt 0.98176700 0.20419400
vt 0.98420900 0.19731000
vt 0.98004400 0.19335700
vt 0.98175100 0.19344500
vt 0.98439400 0.16530000
vt 0.98194200 0.16514800
vt 0.98023700 0.16622900
vt 0.98118600 0.15936300
vt 0.98472000 0.15579500
vt 0.18935600 0.59621900
vt 0.18523900 0.58597500
vt 0.18755000 0.59563400
vt 0.18616900 0.58155300
vt 0.19542500 0.59016900
vt 0.19545000 0.61221300
vt 0.19145800 0.60716000
vt 0.19203900 0.55968100
vt 0.18488600 0.56869800
vt 0.18329800 0.57162600
vt 0.18335300 0.55736900
vt 0.18545400 0.55168600
vt 0.20447200 0.61386200
vt 0.20206200 0.62436100
vt 0.19863000 0.62190400
vt 0.20928600 0.63774300
vt 0.21138500 0.63794800
vt 0.22865000 0.66394900
vt 0.21509400 0.63039500
vt 0.22775500 0.66014900
vt 0.23496100 0.66901700
vt 0.23322100 0.65510300
vt 0.23305700 0.60321100
vt 0.25358900 0.63140500
vt 0.24167900 0.66540300
vt 0.24158600 0.67451000
vt 0.25042300 0.67011900
vt 0.24838100 0.67686300
vt 0.26067100 0.67801000
vt 0.27645800 0.67109500
vt 0.28348000 0.67801000
vt 0.29843700 0.66914000
vt 0.29695400 0.67664500
vt 0.30375800 0.67423400
vt 0.30766800 0.66113800
vt 0.31048700 0.66860900
vt 0.27817300 0.63521400
vt 0.29360800 0.63089800
vt 0.31299200 0.60405000
vt 0.31770400 0.65970600
vt 0.31645800 0.66357800
vt 0.33073600 0.62989400
vt 0.34135300 0.61326200
vt 0.32214100 0.58469200
vt 0.22445600 0.58380200
vt 0.22207500 0.56211500
vt 0.32478500 0.56166900
vt 0.35039100 0.58948000
vt 0.34999300 0.61153400
vt 0.34653300 0.62124200
vt 0.35607800 0.59548200
vt 0.35369200 0.60643400
vt 0.35925100 0.58077500
vt 0.35989200 0.58519500
vt 0.35354800 0.56574900
vt 0.36052300 0.56790200
vt 0.35993800 0.55090100
vt 0.35183800 0.54490900
vt 0.35726500 0.53695300
vt 0.32035700 0.54198400
vt 0.34454600 0.52189100
vt 0.22843700 0.53720000
vt 0.31064900 0.52557600
vt 0.33317600 0.50395900
vt 0.19858000 0.52847000
vt 0.33742300 0.49784600
vt 0.34325000 0.50317700
vt 0.18811100 0.53771400
vt 0.18626700 0.53814400
vt 0.18438700 0.54764400
vt 0.18898200 0.52891500
vt 0.19166600 0.52628000
vt 0.19249500 0.52007900
vt 0.19867500 0.51145600
vt 0.21121800 0.50607800
vt 0.20791200 0.49842800
vt 0.21901100 0.48722100
vt 0.24375300 0.51865700
vt 0.22564700 0.49133700
vt 0.23361400 0.47728700
vt 0.22810400 0.47888000
vt 0.22072200 0.48400800
vt 0.24102800 0.48183900
vt 0.29433600 0.51299400
vt 0.26074500 0.51008300
vt 0.32006000 0.49091500
vt 0.33121200 0.48939000
vt 0.33753700 0.49594300
vt 0.31170200 0.47693800
vt 0.30467000 0.48155600
vt 0.24968900 0.47064100
vt 0.24409300 0.47108300
vt 0.23592900 0.47455300
vt 0.25594000 0.47659500
vt 0.26222100 0.46806900
vt 0.27284800 0.47466500
vt 0.27265500 0.46733300
vt 0.28308800 0.46797600
vt 0.27709500 0.50846300
vt 0.28975300 0.47644400
vt 0.29562100 0.47043500
vt 0.30092500 0.47082900
vt 0.30909200 0.47422700
vt 0.21382500 0.48991300
vt 0.20750700 0.49652200
vt 0.20180200 0.50380700
vt 0.19678800 0.51167100
vt 0.71656800 0.89695700
vt 0.71490900 0.89806200
vt 0.71661400 0.90748700
vt 0.71664700 0.88436600
vt 0.71496200 0.88734700
vt 0.71507100 0.87888400
vt 0.71324400 0.88372300
vt 0.71337900 0.87534100
vt 0.71086500 0.87878000
vt 0.71523900 0.87074100
vt 0.71362300 0.86548300
vt 0.71546700 0.86297100
vt 0.71696700 0.86832800
vt 0.71397300 0.85606600
vt 0.71575200 0.85567500
vt 0.71075600 0.88728000
vt 0.71317100 0.89235800
vt 0.71070700 0.89599600
vt 0.71315800 0.90117800
vt 0.71072200 0.90525500
vt 0.71495900 0.90966700
vt 0.71671500 0.91806400
vt 0.71322400 0.91189200
vt 0.71080500 0.91454900
vt 0.71507300 0.91893900
vt 0.71697000 0.93082900
vt 0.71338200 0.92263500
vt 0.71094600 0.92343900
vt 0.71524300 0.92773300
vt 0.71547100 0.93637300
vt 0.71357600 0.93140900
vt 0.71114600 0.93219900
vt 0.71382900 0.93999400
vt 0.71140300 0.94076100
vt 0.71575400 0.94475000
vt 0.71421300 0.95017800
vt 0.71180600 0.95120400
vt 0.71609200 0.95281500
vt 0.71751600 0.94731900
vt 0.71469700 0.96002900
vt 0.71648100 0.96046000
vt 0.71228300 0.96071200
vt 0.71513200 0.96729100
vt 0.71272200 0.96792900
vt 0.71103500 0.87060100
vt 0.71126400 0.86279500
vt 0.71155000 0.85546300
vt 0.71431100 0.84920500
vt 0.71189200 0.84865100
vt 0.71609200 0.84889800
vt 0.71751600 0.85389100
vt 0.71691800 0.96764100
vt 0.71561100 0.97399800
vt 0.71739700 0.97426100
vt 0.71320400 0.97458500
vt 0.74637200 0.44338400
vt 0.74465400 0.44450800
vt 0.74471700 0.45312300
vt 0.74460700 0.43548600
vt 0.74225400 0.45237400
vt 0.74219400 0.44371800
vt 0.74233200 0.46051600
vt 0.74214700 0.43466200
vt 0.74479600 0.46121700
vt 0.74242500 0.46810400
vt 0.74457500 0.42609800
vt 0.74211600 0.42524700
vt 0.74455800 0.41646600
vt 0.74629500 0.42503700
vt 0.74788500 0.41153200
vt 0.74660300 0.46762900
vt 0.74818600 0.46581000
vt 0.74489000 0.46875200
vt 0.74253100 0.47504300
vt 0.74670800 0.47452900
vt 0.74499700 0.47563200
vt 0.74210100 0.41559600
vt 0.74455900 0.40664000
vt 0.74210300 0.40575900
vt 0.74627900 0.41545400
vt 0.74628100 0.40568300
vt 0.74458100 0.39446000
vt 0.74212300 0.39323300
vt 0.74630800 0.39143000
vt 0.74470300 0.37930700
vt 0.74637600 0.37717800
vt 0.74218900 0.37845800
vt 0.74644300 0.36762900
vt 0.74472800 0.36703500
vt 0.74227500 0.36663000
vt 0.74653000 0.35629000
vt 0.74482000 0.35545300
vt 0.74234700 0.35733400
vt 0.74247500 0.34412200
vt 0.74668300 0.34188300
vt 0.74818600 0.35147200
vt 0.74493000 0.34445200
vt 0.74503400 0.33665300
vt 0.74264900 0.33019300
vt 0.74685700 0.32654800
vt 0.74514100 0.32657700
vt 0.74275600 0.30031300
vt 0.74520900 0.30015500
vt 0.74691300 0.30120700
vt 0.74603500 0.29486400
vt 0.74254500 0.29160500
vt 0.74790900 0.39450600
vt 0.74795200 0.38170700
vt 0.74806000 0.36718300
vt 0.83352100 0.93975000
vt 0.83111800 0.93907900
vt 0.83175800 0.94733300
vt 0.83309600 0.93131800
vt 0.83071100 0.93063500
vt 0.83290800 0.92275300
vt 0.83054100 0.92206400
vt 0.83301100 0.91168600
vt 0.83064500 0.91160600
vt 0.83112200 0.90131300
vt 0.83352500 0.90067800
vt 0.83176300 0.89295400
vt 0.83418400 0.89233400
vt 0.83263200 0.88482400
vt 0.83507100 0.88422600
vt 0.83372000 0.87702300
vt 0.83649500 0.87441600
vt 0.83534400 0.86789000
vt 0.83822200 0.86554100
vt 0.83733800 0.85935000
vt 0.83983200 0.85887000
vt 0.83417900 0.94798500
vt 0.83262500 0.95529400
vt 0.83532500 0.95800600
vt 0.83399000 0.96467200
vt 0.83680000 0.96714300
vt 0.83574100 0.97351800
vt 0.83822000 0.97406100
vt 0.83733800 0.97993300
vt 0.83983200 0.98043300
vt 0.52708200 0.91057600
vt 0.52463900 0.90999100
vt 0.52455900 0.91653000
vt 0.52699100 0.91651200
vt 0.52683400 0.92404700
vt 0.52441200 0.92342800
vt 0.52427600 0.93680300
vt 0.52671500 0.94075400
vt 0.52424100 0.95373700
vt 0.52672500 0.96292900
vt 0.52431800 0.96524500
vt 0.52443300 0.97224000
vt 0.52686600 0.97226200
vt 0.52692800 0.97843100
vt 0.52448300 0.97905000
vt 0.52708200 0.98646400
vt 0.52465200 0.98711600
vt 0.98711600 0.69889000
vt 0.98752000 0.67029800
vt 0.98503400 0.67108900
vt 0.98469000 0.69644200
vt 0.98463700 0.71183200
vt 0.98709000 0.71440500
vt 0.98464400 0.72606100
vt 0.98709400 0.73158500
vt 0.98465300 0.73723800
vt 0.98713400 0.74802500
vt 0.98467800 0.74664600
vt 0.98471000 0.75627100
vt 0.98716500 0.76252600
vt 0.98472900 0.76588900
vt 0.98720600 0.77476500
vt 0.98476000 0.77553300
vt 0.98724000 0.78434700
vt 0.98479300 0.78510600
vt 0.98727500 0.79373300
vt 0.98482900 0.79447300
vt 0.98731300 0.80287400
vt 0.98486700 0.80359000
vt 0.98735300 0.81165300
vt 0.98490800 0.81233500
vt 0.98739600 0.82002700
vt 0.98495000 0.82067700
vt 0.98743700 0.82788800
vt 0.98499200 0.82849600
vt 0.98747800 0.83520000
vt 0.98503200 0.83576000
vt 0.98752000 0.84186800
vt 0.98507400 0.84237600
vt 0.17463100 0.85506100
vt 0.17209300 0.86377000
vt 0.17453400 0.86454300
vt 0.17201100 0.87338800
vt 0.17443100 0.87676600
vt 0.17195300 0.88305200
vt 0.17435300 0.89141600
vt 0.17189600 0.89281300
vt 0.17185900 0.90242800
vt 0.17429600 0.90824500
vt 0.17185100 0.91396100
vt 0.17432300 0.92613600
vt 0.17188000 0.92884100
vt 0.17442700 0.94260500
vt 0.17201700 0.94522400
vt 0.17252600 0.97235300
vt 0.17501600 0.97320800
vt 0.17297200 0.98123900
vt 0.17546100 0.98178100
vt 0.17219000 0.85430300
vt 0.17474000 0.84585000
vt 0.17230100 0.84511800
vt 0.17486400 0.83696000
vt 0.17242500 0.83625800
vt 0.17499900 0.82850700
vt 0.17256200 0.82784300
vt 0.17514600 0.82052800
vt 0.17270900 0.81990200
vt 0.17530000 0.81312600
vt 0.17286400 0.81254700
vt 0.17546100 0.80633500
vt 0.17302500 0.80580900
vt 0.50915800 0.68541000
vt 0.50041800 0.68285900
vt 0.50254900 0.68932800
vt 0.49565800 0.69075500
vt 0.51009400 0.67422100
vt 0.51683300 0.67688400
vt 0.53605800 0.65063200
vt 0.48583600 0.68463300
vt 0.48235500 0.69164700
vt 0.45802500 0.68462700
vt 0.46554400 0.69164700
vt 0.45414100 0.69096300
vt 0.44723700 0.68960500
vt 0.49747700 0.64961500
vt 0.53217200 0.64400900
vt 0.54666900 0.63472900
vt 0.51750200 0.62097500
vt 0.54277600 0.62736400
vt 0.55368800 0.62016100
vt 0.55172800 0.60387700
vt 0.55749400 0.60879600
vt 0.55973200 0.59927800
vt 0.56114200 0.58957500
vt 0.47797400 0.65446300
vt 0.45242200 0.65010100
vt 0.42891100 0.61736900
vt 0.52701400 0.60008000
vt 0.55471900 0.58023300
vt 0.56169600 0.57993100
vt 0.56140600 0.57029400
vt 0.55297500 0.55938200
vt 0.56027000 0.56077000
vt 0.55830300 0.55149000
vt 0.55552000 0.54249800
vt 0.53008300 0.57665500
vt 0.52108000 0.54441700
vt 0.54802400 0.54263700
vt 0.55196100 0.53391600
vt 0.54038400 0.52716800
vt 0.54764400 0.52577100
vt 0.54263300 0.51818300
vt 0.53695700 0.51118200
vt 0.52580400 0.50960100
vt 0.53069800 0.50485700
vt 0.52203700 0.49783600
vt 0.50749000 0.49723200
vt 0.51282400 0.49224400
vt 0.50498500 0.48860100
vt 0.49684100 0.48579800
vt 0.50040000 0.52487300
vt 0.44513000 0.52609400
vt 0.49083100 0.49140200
vt 0.48849400 0.48386500
vt 0.48000600 0.48281600
vt 0.47683000 0.51741000
vt 0.47398700 0.48958000
vt 0.46962900 0.48272400
vt 0.45716100 0.49157100
vt 0.45939200 0.48401100
vt 0.45106300 0.48602700
vt 0.43697700 0.49926200
vt 0.44294600 0.48891200
vt 0.43514100 0.49263400
vt 0.42598100 0.49831800
vt 0.41948300 0.51315200
vt 0.40794200 0.52783400
vt 0.41738600 0.50542600
vt 0.41118500 0.51181300
vt 0.40557600 0.51887100
vt 0.40063600 0.52650900
vt 0.39639500 0.53469600
vt 0.42506800 0.55045200
vt 0.40044800 0.54337700
vt 0.39565400 0.56017000
vt 0.39291600 0.54331400
vt 0.39021700 0.55233300
vt 0.38833700 0.56163200
vt 0.38729000 0.57116900
vt 0.41840800 0.58138900
vt 0.39731300 0.60463900
vt 0.39410400 0.58101400
vt 0.38709000 0.58080700
vt 0.38773500 0.59045000
vt 0.38923400 0.60013300
vt 0.39156100 0.60962900
vt 0.39547200 0.62095300
vt 0.40649300 0.62805800
vt 0.40262500 0.63544900
vt 0.41725500 0.64460000
vt 0.41337700 0.65123700
vt 0.43534900 0.66899700
vt 0.43284500 0.67730400
vt 0.44470400 0.68039800
vt 0.44059400 0.68575400
vt 0.55338300 0.41483900
vt 0.55958000 0.40130300
vt 0.55852500 0.39605700
vt 0.56280700 0.39183700
vt 0.55077900 0.41356800
vt 0.56280900 0.37943100
vt 0.54413400 0.42924400
vt 0.56569100 0.37985500
vt 0.54043400 0.42952500
vt 0.52129900 0.46029300
vt 0.51860200 0.45902900
vt 0.51273600 0.46942900
vt 0.51090500 0.46720400
vt 0.50594700 0.47319500
vt 0.50489300 0.47053700
vt 0.49774500 0.47490400
vt 0.49735900 0.47209000
vt 0.48421700 0.47563200
vt 0.48074400 0.47288700
vt 0.46881300 0.47563200
vt 0.45874800 0.47230600
vt 0.45326800 0.47448100
vt 0.44954300 0.47053800
vt 0.44685800 0.47249400
vt 0.44353500 0.46720600
vt 0.44169000 0.46943100
vt 0.43584900 0.45903100
vt 0.43313800 0.46029500
vt 0.41403700 0.42952700
vt 0.41032700 0.42925000
vt 0.40370200 0.41357300
vt 0.40108400 0.41484400
vt 0.39596500 0.39606200
vt 0.39489400 0.40130800
vt 0.39167200 0.39184200
vt 0.39169000 0.37943600
vt 0.38879300 0.37985900
vt 0.39001800 0.36485900
vt 0.38709000 0.36498600
vt 0.38721900 0.35245700
vt 0.39014700 0.35262100
vt 0.38827000 0.34266500
vt 0.39117500 0.34307800
vt 0.39017800 0.33310300
vt 0.39303600 0.33376700
vt 0.39292900 0.32382100
vt 0.39571600 0.32473400
vt 0.39648600 0.31493700
vt 0.39917900 0.31609800
vt 0.40083000 0.30649400
vt 0.40340100 0.30789700
vt 0.40590000 0.29860300
vt 0.40832500 0.30024000
vt 0.41166700 0.29130100
vt 0.41392000 0.29316000
vt 0.41805200 0.28467900
vt 0.42010800 0.28675000
vt 0.42501800 0.27877100
vt 0.42685300 0.28103300
vt 0.43247400 0.27364800
vt 0.43579300 0.27499500
vt 0.44037200 0.26933400
vt 0.44563500 0.27014800
vt 0.44861100 0.26588300
vt 0.45374600 0.26723800
vt 0.45713800 0.26331000
vt 0.46207200 0.26519400
vt 0.46584900 0.26164500
vt 0.47302700 0.26379900
vt 0.47506800 0.26087900
vt 0.48400700 0.26403300
vt 0.48428700 0.26115600
vt 0.49248200 0.26519300
vt 0.49307100 0.26236200
vt 0.50080700 0.26723600
vt 0.50169600 0.26448300
vt 0.50891700 0.27014600
vt 0.51009400 0.26750000
vt 0.51875700 0.27499300
vt 0.52029000 0.27252800
vt 0.52769400 0.28103000
vt 0.52951600 0.27876800
vt 0.53443600 0.28674500
vt 0.53647900 0.28467600
vt 0.54062000 0.29315500
vt 0.54286100 0.29129600
vt 0.54621200 0.30023500
vt 0.54862400 0.29859800
vt 0.55113300 0.30789300
vt 0.55369100 0.30649000
vt 0.55535100 0.31609300
vt 0.55803000 0.31493200
vt 0.55880900 0.32472900
vt 0.56158300 0.32381500
vt 0.56148500 0.33376200
vt 0.56433000 0.33309800
vt 0.56334200 0.34307300
vt 0.56623300 0.34266000
vt 0.56436500 0.35261600
vt 0.56728000 0.35245200
vt 0.56448800 0.36485500
vt 0.56740200 0.36498100
f 3/3 2/2 1/1
f 6/6 5/5 4/4
f 4/4 8/8 7/7
f 9/9 7/7 8/8
f 10/10 9/9 8/8
f 11/11 9/9 10/10
f 12/12 11/11 10/10
f 12/12 13/13 11/11
f 13/13 12/12 14/14
f 15/15 13/13 14/14
f 15/15 14/14 3/3
f 18/18 17/17 16/16
f 21/21 20/20 19/19
f 24/24 23/23 22/22
f 27/27 26/26 25/25
f 30/30 29/29 28/28
f 33/33 32/32 31/31
f 36/36 35/35 34/34
f 39/39 38/38 37/37
f 42/42 41/41 40/40
f 43/43 42/42 40/40
f 46/46 45/45 44/44
f 45/45 46/46 47/47
f 47/47 48/48 45/45
f 46/46 49/49 47/47
f 49/49 46/46 50/50
f 2/2 49/49 50/50
f 48/48 52/52 51/51
f 48/48 51/51 45/45
f 51/51 44/44 45/45
f 44/44 54/54 53/53
f 46/46 44/44 53/53
f 54/54 55/55 53/53
f 50/50 46/46 53/53
f 55/55 56/56 53/53
f 55/55 57/57 56/56
f 50/50 53/53 1/1
f 53/53 56/56 1/1
f 1/1 2/2 50/50
f 1/1 56/56 15/15
f 1/1 15/15 3/3
f 57/57 58/58 56/56
f 56/56 58/58 15/15
f 59/59 58/58 57/57
f 58/58 59/59 15/15
f 59/59 13/13 15/15
f 60/60 59/59 57/57
f 13/13 59/59 11/11
f 11/11 59/59 60/60
f 60/60 61/61 11/11
f 61/61 9/9 11/11
f 7/7 9/9 61/61
f 61/61 62/62 7/7
f 62/62 4/4 7/7
f 6/6 4/4 62/62
f 64/64 30/30 63/63
f 30/30 64/64 65/65
f 30/30 65/65 66/66
f 29/29 30/30 66/66
f 29/29 66/66 67/67
f 18/18 29/29 67/67
f 67/67 17/17 18/18
f 67/67 68/68 17/17
f 21/21 17/17 68/68
f 69/69 21/21 68/68
f 20/20 21/21 69/69
f 70/70 20/20 69/69
f 71/71 20/20 70/70
f 72/72 71/71 70/70
f 73/73 71/71 72/72
f 74/74 73/73 72/72
f 75/75 73/73 74/74
f 76/76 75/75 74/74
f 77/77 75/75 76/76
f 78/78 77/77 76/76
f 79/79 77/77 78/78
f 80/80 79/79 78/78
f 81/81 79/79 80/80
f 82/82 81/81 80/80
f 82/82 80/80 83/83
f 80/80 84/84 83/83
f 80/80 78/78 84/84
f 78/78 85/85 84/84
f 78/78 76/76 85/85
f 76/76 86/86 85/85
f 76/76 74/74 86/86
f 74/74 87/87 86/86
f 74/74 72/72 87/87
f 72/72 88/88 87/87
f 72/72 70/70 88/88
f 70/70 89/89 88/88
f 70/70 69/69 89/89
f 69/69 90/90 89/89
f 69/69 68/68 90/90
f 68/68 91/91 90/90
f 68/68 67/67 91/91
f 67/67 92/92 91/91
f 67/67 66/66 92/92
f 66/66 93/93 92/92
f 66/66 65/65 93/93
f 65/65 94/94 93/93
f 95/95 94/94 65/65
f 95/95 65/65 96/96
f 64/64 96/96 65/65
f 95/95 96/96 97/97
f 97/97 96/96 64/64
f 98/98 95/95 97/97
f 64/64 99/99 97/97
f 98/98 97/97 100/100
f 99/99 100/100 97/97
f 101/101 98/98 100/100
f 102/102 100/100 99/99
f 101/101 100/100 102/102
f 102/102 99/99 103/103
f 102/102 103/103 104/104
f 102/102 104/104 101/101
f 104/104 105/105 101/101
f 108/108 107/107 106/106
f 106/106 107/107 109/109
f 106/106 109/109 110/110
f 106/106 110/110 111/111
f 111/111 112/112 106/106
f 113/113 110/110 109/109
f 114/114 113/113 109/109
f 115/115 114/114 109/109
f 114/114 115/115 116/116
f 117/117 114/114 116/116
f 114/114 117/117 113/113
f 110/110 118/118 111/111
f 119/119 111/111 118/118
f 119/119 120/120 111/111
f 120/120 119/119 121/121
f 119/119 122/122 121/121
f 121/121 122/122 123/123
f 124/124 119/119 118/118
f 122/122 119/119 124/124
f 122/122 125/125 123/123
f 126/126 123/123 125/125
f 125/125 122/122 127/127
f 127/127 122/122 124/124
f 125/125 127/127 126/126
f 124/124 118/118 128/128
f 127/127 124/124 128/128
f 127/127 128/128 129/129
f 127/127 130/130 126/126
f 130/130 127/127 129/129
f 131/131 126/126 130/130
f 132/132 131/131 130/130
f 132/132 130/130 129/129
f 133/133 131/131 132/132
f 134/134 133/133 132/132
f 135/135 134/134 132/132
f 132/132 129/129 135/135
f 136/136 134/134 135/135
f 135/135 137/137 136/136
f 137/137 138/138 136/136
f 139/139 138/138 137/137
f 140/140 139/139 137/137
f 140/140 141/141 139/139
f 137/137 135/135 142/142
f 129/129 142/142 135/135
f 137/137 142/142 143/143
f 143/143 142/142 129/129
f 140/140 137/137 143/143
f 144/144 143/143 129/129
f 144/144 140/140 143/143
f 144/144 129/129 128/128
f 145/145 141/141 140/140
f 146/146 141/141 145/145
f 33/33 145/145 140/140
f 33/33 140/140 147/147
f 147/147 140/140 144/144
f 32/32 33/33 147/147
f 148/148 147/147 144/144
f 32/32 147/147 148/148
f 149/149 144/144 128/128
f 149/149 148/148 144/144
f 149/149 128/128 150/150
f 118/118 150/150 128/128
f 118/118 110/110 150/150
f 151/151 150/150 110/110
f 113/113 151/151 110/110
f 152/152 149/149 150/150
f 152/152 150/150 151/151
f 153/153 148/148 149/149
f 149/149 152/152 153/153
f 154/154 32/32 148/148
f 148/148 153/153 154/154
f 155/155 32/32 154/154
f 32/32 155/155 31/31
f 153/153 156/156 154/154
f 157/157 154/154 156/156
f 158/158 156/156 153/153
f 159/159 156/156 158/158
f 153/153 160/160 158/158
f 152/152 160/160 153/153
f 160/160 161/161 158/158
f 162/162 161/161 160/160
f 163/163 162/162 160/160
f 163/163 160/160 152/152
f 164/164 162/162 163/163
f 164/164 163/163 22/22
f 163/163 152/152 165/165
f 165/165 152/152 151/151
f 163/163 166/166 22/22
f 166/166 163/163 165/165
f 24/24 22/22 166/166
f 165/165 151/151 167/167
f 166/166 165/165 168/168
f 168/168 165/165 167/167
f 169/169 24/24 166/166
f 169/169 166/166 168/168
f 151/151 170/170 167/167
f 113/113 170/170 151/151
f 171/171 24/24 169/169
f 171/171 172/172 24/24
f 170/170 113/113 173/173
f 113/113 117/117 173/173
f 173/173 117/117 174/174
f 117/117 175/175 174/174
f 173/173 174/174 176/176
f 177/177 173/173 176/176
f 173/173 177/177 170/170
f 176/176 178/178 177/177
f 177/177 179/179 170/170
f 179/179 180/180 170/170
f 179/179 181/181 180/180
f 170/170 180/180 167/167
f 180/180 181/181 182/182
f 167/167 180/180 183/183
f 168/168 167/167 183/183
f 184/184 180/180 182/182
f 180/180 184/184 183/183
f 182/182 185/185 184/184
f 185/185 182/182 186/186
f 182/182 187/187 186/186
f 184/184 188/188 183/183
f 185/185 188/188 184/184
f 189/189 168/168 183/183
f 183/183 188/188 190/190
f 189/189 183/183 190/190
f 191/191 168/168 189/189
f 191/191 169/169 168/168
f 169/169 191/191 26/26
f 171/171 169/169 26/26
f 171/171 26/26 192/192
f 193/193 171/171 192/192
f 194/194 26/26 191/191
f 26/26 194/194 25/25
f 195/195 191/191 189/189
f 195/195 194/194 191/191
f 185/185 196/196 188/188
f 196/196 185/185 197/197
f 185/185 198/198 197/197
f 196/196 199/199 188/188
f 196/196 200/200 199/199
f 188/188 199/199 190/190
f 200/200 201/201 199/199
f 199/199 201/201 190/190
f 200/200 202/202 201/201
f 202/202 203/203 201/201
f 190/190 204/204 189/189
f 190/190 201/201 204/204
f 201/201 203/203 205/205
f 201/201 205/205 204/204
f 205/205 189/189 204/204
f 205/205 195/195 189/189
f 203/203 206/206 205/205
f 205/205 206/206 195/195
f 206/206 194/194 195/195
f 194/194 206/206 207/207
f 208/208 194/194 207/207
f 209/209 187/187 182/182
f 182/182 181/181 209/209
f 181/181 210/210 209/209
f 211/211 210/210 181/181
f 211/211 181/181 179/179
f 212/212 211/211 179/179
f 178/178 212/212 179/179
f 178/178 179/179 177/177
f 215/215 214/214 213/213
f 216/216 213/213 214/214
f 217/217 216/216 214/214
f 217/217 218/218 216/216
f 219/219 218/218 217/217
f 219/219 220/220 218/218
f 219/219 221/221 220/220
f 220/220 222/222 218/218
f 220/220 223/223 222/222
f 223/223 224/224 222/222
f 222/222 224/224 225/225
f 224/224 223/223 226/226
f 227/227 224/224 226/226
f 228/228 221/221 219/219
f 229/229 228/228 219/219
f 229/229 219/219 217/217
f 230/230 228/228 229/229
f 229/229 217/217 214/214
f 231/231 230/230 229/229
f 231/231 229/229 214/214
f 232/232 230/230 231/231
f 214/214 233/233 231/231
f 233/233 214/214 215/215
f 215/215 234/234 233/233
f 235/235 232/232 231/231
f 233/233 235/235 231/231
f 236/236 232/232 235/235
f 234/234 237/237 233/233
f 237/237 235/235 233/233
f 234/234 238/238 237/237
f 235/235 239/239 236/236
f 239/239 235/235 237/237
f 239/239 240/240 236/236
f 238/238 241/241 237/237
f 241/241 239/239 237/237
f 242/242 241/241 238/238
f 239/239 243/243 240/240
f 243/243 239/239 241/241
f 242/242 243/243 241/241
f 243/243 244/244 240/240
f 245/245 243/243 242/242
f 243/243 245/245 244/244
f 245/245 246/246 244/244
f 247/247 245/245 242/242
f 245/245 248/248 246/246
f 248/248 245/245 247/247
f 248/248 249/249 246/246
f 250/250 248/248 247/247
f 250/250 247/247 251/251
f 248/248 252/252 249/249
f 248/248 250/250 252/252
f 250/250 253/253 252/252
f 252/252 254/254 249/249
f 252/252 253/253 255/255
f 252/252 255/255 254/254
f 255/255 256/256 254/254
f 221/221 257/257 220/220
f 220/220 257/257 223/223
f 257/257 258/258 223/223
f 226/226 223/223 258/258
f 259/259 226/226 258/258
f 260/260 226/226 259/259
f 261/261 260/260 259/259
f 227/227 226/226 260/260
f 262/262 227/227 260/260
f 227/227 262/262 263/263
f 253/253 264/264 255/255
f 255/255 264/264 265/265
f 264/264 266/266 265/265
f 255/255 265/265 256/256
f 265/265 267/267 256/256
f 35/35 268/268 34/34
f 268/268 35/35 269/269
f 35/35 270/270 269/269
f 35/35 36/36 270/270
f 268/268 269/269 271/271
f 37/37 268/268 271/271
f 268/268 37/37 38/38
f 269/269 270/270 272/272
f 273/273 269/269 272/272
f 271/271 269/269 273/273
f 272/272 270/270 274/274
f 275/275 271/271 273/273
f 270/270 276/276 274/274
f 36/36 276/276 270/270
f 274/274 276/276 277/277
f 278/278 271/271 275/275
f 37/37 271/271 278/278
f 279/279 278/278 275/275
f 280/280 278/278 279/279
f 281/281 278/278 280/280
f 281/281 37/37 278/278
f 281/281 39/39 37/37
f 282/282 39/39 281/281
f 36/36 283/283 276/276
f 283/283 36/36 284/284
f 276/276 285/285 277/277
f 283/283 285/285 276/276
f 277/277 285/285 286/286
f 283/283 287/287 285/285
f 285/285 288/288 286/286
f 287/287 288/288 285/285
f 289/289 280/280 279/279
f 290/290 280/280 289/289
f 291/291 290/290 289/289
f 292/292 280/280 290/290
f 292/292 281/281 280/280
f 293/293 292/292 290/290
f 294/294 290/290 291/291
f 293/293 290/290 294/294
f 295/295 294/294 291/291
f 296/296 293/293 294/294
f 297/297 294/294 295/295
f 294/294 297/297 296/296
f 296/296 297/297 298/298
f 299/299 297/297 295/295
f 300/300 298/298 297/297
f 301/301 297/297 299/299
f 301/301 300/300 297/297
f 302/302 301/301 299/299
f 303/303 300/300 301/301
f 304/304 301/301 302/302
f 304/304 303/303 301/301
f 305/305 304/304 302/302
f 305/305 306/306 304/304
f 307/307 303/303 304/304
f 303/303 307/307 308/308
f 304/304 306/306 309/309
f 309/309 307/307 304/304
f 309/309 306/306 310/310
f 309/309 310/310 307/307
f 306/306 311/311 310/310
f 312/312 307/307 310/310
f 310/310 311/311 313/313
f 313/313 312/312 310/310
f 311/311 314/314 313/313
f 313/313 315/315 312/312
f 313/313 314/314 315/315
f 312/312 315/315 316/316
f 317/317 315/315 314/314
f 318/318 317/317 314/314
f 292/292 282/282 281/281
f 292/292 293/293 282/282
f 319/319 282/282 293/293
f 296/296 319/319 293/293
f 319/319 296/296 320/320
f 296/296 298/298 320/320
f 298/298 300/300 321/321
f 300/300 303/303 321/321
f 324/324 323/323 322/322
f 322/322 323/323 325/325
f 323/323 326/326 325/325
f 325/325 326/326 327/327
f 326/326 328/328 327/327
f 327/327 328/328 329/329
f 328/328 330/330 329/329
f 330/330 331/331 329/329
f 331/331 332/332 329/329
f 331/331 333/333 332/332
f 333/333 334/334 332/332
f 333/333 335/335 334/334
f 335/335 336/336 334/334
f 335/335 337/337 336/336
f 337/337 338/338 336/336
f 338/338 337/337 339/339
f 340/340 338/338 339/339
f 339/339 341/341 340/340
f 341/341 342/342 340/340
f 343/343 324/324 322/322
f 344/344 324/324 343/343
f 345/345 344/344 343/343
f 344/344 345/345 346/346
f 345/345 347/347 346/346
f 348/348 346/346 347/347
f 349/349 348/348 347/347
f 350/350 348/348 349/349
f 351/351 350/350 349/349
f 354/354 353/353 352/352
f 355/355 354/354 352/352
f 354/354 355/355 356/356
f 357/357 354/354 356/356
f 356/356 358/358 357/357
f 356/356 359/359 358/358
f 359/359 360/360 358/358
f 359/359 361/361 360/360
f 360/360 361/361 362/362
f 363/363 362/362 361/361
f 364/364 363/363 361/361
f 363/363 364/364 365/365
f 366/366 363/363 365/365
f 366/366 365/365 367/367
f 368/368 366/366 367/367
f 371/371 370/370 369/369
f 372/372 371/371 369/369
f 369/369 373/373 372/372
f 369/369 374/374 373/373
f 374/374 375/375 373/373
f 374/374 376/376 375/375
f 376/376 377/377 375/375
f 377/377 376/376 378/378
f 379/379 377/377 378/378
f 378/378 380/380 379/379
f 378/378 381/381 380/380
f 381/381 382/382 380/380
f 382/382 381/381 383/383
f 384/384 382/382 383/383
f 384/384 383/383 385/385
f 386/386 384/384 385/385
f 386/386 385/385 387/387
f 388/388 386/386 387/387
f 388/388 387/387 389/389
f 390/390 388/388 389/389
f 390/390 389/389 391/391
f 392/392 390/390 391/391
f 392/392 391/391 393/393
f 394/394 392/392 393/393
f 394/394 393/393 395/395
f 396/396 394/394 395/395
f 396/396 395/395 397/397
f 398/398 396/396 397/397
f 398/398 397/397 399/399
f 400/400 398/398 399/399
f 403/403 402/402 401/401
f 404/404 402/402 403/403
f 405/405 404/404 403/403
f 404/404 405/405 406/406
f 405/405 407/407 406/406
f 406/406 407/407 408/408
f 409/409 408/408 407/407
f 410/410 409/409 407/407
f 409/409 410/410 411/411
f 410/410 412/412 411/411
f 411/411 412/412 413/413
f 412/412 414/414 413/413
f 413/413 414/414 415/415
f 416/416 415/415 414/414
f 417/417 416/416 414/414
f 418/418 416/416 417/417
f 419/419 418/418 417/417
f 402/402 420/420 401/401
f 401/401 420/420 421/421
f 420/420 422/422 421/421
f 421/421 422/422 423/423
f 422/422 424/424 423/423
f 423/423 424/424 425/425
f 424/424 426/426 425/425
f 425/425 426/426 427/427
f 426/426 428/428 427/427
f 427/427 428/428 429/429
f 428/428 430/430 429/429
f 429/429 430/430 431/431
f 430/430 432/432 431/431
f 435/435 434/434 433/433
f 435/435 436/436 434/434
f 434/434 437/437 433/433
f 438/438 433/433 437/437
f 439/439 438/438 437/437
f 436/436 440/440 434/434
f 436/436 441/441 440/440
f 441/441 442/442 440/440
f 443/443 442/442 441/441
f 444/444 442/442 443/443
f 445/445 442/442 444/444
f 434/434 440/440 446/446
f 434/434 446/446 437/437
f 439/439 437/437 447/447
f 448/448 439/439 447/447
f 437/437 449/449 447/447
f 446/446 449/449 437/437
f 448/448 447/447 450/450
f 447/447 449/449 450/450
f 451/451 448/448 450/450
f 451/451 450/450 452/452
f 453/453 451/451 452/452
f 454/454 453/453 452/452
f 455/455 454/454 452/452
f 440/440 456/456 446/446
f 440/440 442/442 456/456
f 446/446 456/456 457/457
f 457/457 456/456 442/442
f 449/449 446/446 457/457
f 449/449 457/457 458/458
f 449/449 459/459 450/450
f 450/450 459/459 452/452
f 459/459 449/449 458/458
f 455/455 452/452 460/460
f 461/461 455/455 460/460
f 461/461 460/460 462/462
f 460/460 463/463 462/462
f 462/462 463/463 464/464
f 464/464 463/463 465/465
f 466/466 465/465 463/463
f 460/460 452/452 467/467
f 452/452 459/459 467/467
f 463/463 460/460 467/467
f 463/463 467/467 468/468
f 469/469 466/466 463/463
f 469/469 463/463 468/468
f 466/466 469/469 470/470
f 469/469 471/471 470/470
f 471/471 469/469 468/468
f 470/470 471/471 472/472
f 472/472 471/471 473/473
f 474/474 473/473 471/471
f 475/475 474/474 471/471
f 475/475 471/471 468/468
f 474/474 475/475 476/476
f 476/476 475/475 477/477
f 475/475 478/478 477/477
f 477/477 478/478 479/479
f 479/479 478/478 480/480
f 481/481 480/480 478/478
f 475/475 468/468 482/482
f 478/478 475/475 482/482
f 482/482 468/468 483/483
f 484/484 481/481 478/478
f 481/481 484/484 485/485
f 486/486 485/485 484/484
f 482/482 487/487 478/478
f 487/487 484/484 478/478
f 483/483 487/487 482/482
f 488/488 486/486 484/484
f 488/488 484/484 487/487
f 486/486 488/488 489/489
f 488/488 487/487 490/490
f 488/488 490/490 489/489
f 487/487 483/483 490/490
f 490/490 491/491 489/489
f 492/492 491/491 490/490
f 490/490 493/493 492/492
f 490/490 483/483 493/493
f 493/493 494/494 492/492
f 495/495 494/494 493/493
f 496/496 495/495 493/493
f 493/493 497/497 496/496
f 493/493 483/483 497/497
f 498/498 497/497 483/483
f 497/497 499/499 496/496
f 500/500 499/499 497/497
f 497/497 498/498 500/500
f 498/498 501/501 500/500
f 502/502 501/501 498/498
f 503/503 502/502 498/498
f 504/504 498/498 483/483
f 468/468 504/504 483/483
f 468/468 467/467 504/504
f 503/503 498/498 505/505
f 498/498 504/504 505/505
f 505/505 504/504 506/506
f 507/507 503/503 505/505
f 505/505 506/506 507/507
f 506/506 508/508 507/507
f 509/509 508/508 506/506
f 510/510 509/509 506/506
f 467/467 511/511 504/504
f 504/504 511/511 506/506
f 467/467 459/459 511/511
f 459/459 458/458 511/511
f 512/512 511/511 458/458
f 510/510 506/506 513/513
f 506/506 511/511 513/513
f 513/513 511/511 512/512
f 514/514 510/510 513/513
f 514/514 513/513 515/515
f 513/513 512/512 515/515
f 515/515 512/512 516/516
f 516/516 512/512 517/517
f 517/517 512/512 518/518
f 512/512 519/519 518/518
f 519/519 512/512 458/458
f 518/518 519/519 520/520
f 519/519 521/521 520/520
f 521/521 519/519 458/458
f 520/520 521/521 522/522
f 523/523 521/521 458/458
f 521/521 523/523 522/522
f 523/523 458/458 457/457
f 522/522 523/523 524/524
f 525/525 523/523 457/457
f 523/523 525/525 524/524
f 442/442 525/525 457/457
f 524/524 525/525 526/526
f 525/525 442/442 445/445
f 526/526 525/525 445/445
f 529/529 528/528 527/527
f 530/530 528/528 529/529
f 531/531 529/529 527/527
f 529/529 532/532 530/530
f 531/531 527/527 533/533
f 532/532 534/534 530/530
f 535/535 531/531 533/533
f 533/533 536/536 535/535
f 536/536 537/537 535/535
f 537/537 536/536 538/538
f 539/539 537/537 538/538
f 539/539 538/538 540/540
f 541/541 539/539 540/540
f 541/541 540/540 542/542
f 543/543 541/541 542/542
f 543/543 542/542 544/544
f 545/545 543/543 544/544
f 544/544 546/546 545/545
f 547/547 545/545 546/546
f 548/548 547/547 546/546
f 549/549 547/547 548/548
f 550/550 549/549 548/548
f 549/549 550/550 551/551
f 550/550 552/552 551/551
f 551/551 552/552 553/553
f 552/552 554/554 553/553
f 555/555 553/553 554/554
f 556/556 555/555 554/554
f 555/555 556/556 557/557
f 556/556 558/558 557/557
f 557/557 558/558 559/559
f 558/558 560/560 559/559
f 561/561 559/559 560/560
f 559/559 561/561 562/562
f 561/561 563/563 562/562
f 562/562 563/563 564/564
f 563/563 565/565 564/564
f 564/564 565/565 566/566
f 567/567 564/564 566/566
f 567/567 566/566 568/568
f 569/569 567/567 568/568
f 569/569 568/568 570/570
f 571/571 569/569 570/570
f 571/571 570/570 572/572
f 573/573 571/571 572/572
f 573/573 572/572 574/574
f 575/575 573/573 574/574
f 575/575 574/574 576/576
f 577/577 575/575 576/576
f 577/577 576/576 578/578
f 579/579 577/577 578/578
f 579/579 578/578 580/580
f 581/581 579/579 580/580
f 581/581 580/580 582/582
f 583/583 581/581 582/582
f 583/583 582/582 584/584
f 585/585 583/583 584/584
f 585/585 584/584 586/586
f 587/587 585/585 586/586
f 586/586 588/588 587/587
f 588/588 589/589 587/587
f 588/588 590/590 589/589
f 590/590 591/591 589/589
f 590/590 592/592 591/591
f 592/592 593/593 591/591
f 592/592 594/594 593/593
f 594/594 595/595 593/593
f 594/594 596/596 595/595
f 595/595 596/596 597/597
f 596/596 598/598 597/597
f 597/597 598/598 599/599
f 598/598 600/600 599/599
f 599/599 600/600 601/601
f 600/600 602/602 601/601
f 601/601 602/602 603/603
f 602/602 604/604 603/603
f 603/603 604/604 605/605
f 604/604 606/606 605/605
f 605/605 606/606 607/607
f 606/606 608/608 607/607
f 607/607 608/608 609/609
f 608/608 610/610 609/609
f 609/609 610/610 611/611
f 610/610 612/612 611/611
f 611/611 612/612 613/613
f 612/612 614/614 613/613
f 613/613 614/614 615/615
f 614/614 616/616 615/615
f 615/615 616/616 617/617
f 616/616 618/618 617/617
f 617/617 618/618 619/619
f 618/618 620/620 619/619
f 619/619 620/620 621/621
f 620/620 622/622 621/621
f 621/621 622/622 623/623
f 622/622 624/624 623/623
f 623/623 624/624 625/625
f 624/624 626/626 625/625
f 625/625 626/626 627/627
f 626/626 628/628 627/627
f 627/627 628/628 534/534
f 532/532 627/627 534/534

