# Blender 4.0.0
# www.blender.org
o decimated_mesh
v -0.000087 -0.003482 0.001538
v 0.001076 -0.003482 0.001179
v -0.000087 -0.003482 0.001734
v -0.000087 -0.002315 0.001420
v 0.001008 -0.001955 0.000992
v 0.001076 -0.003482 0.001410
v 0.001076 -0.002315 0.001027
v 0.000000 0.011604 0.001335
v 0.000000 0.011493 0.001294
v 0.000000 0.000006 0.001311
v 0.000000 -0.000148 0.001313
v 0.000000 -0.001832 0.001351
v 0.001008 -0.001847 0.000982
v 0.001076 -0.003364 0.001434
v 0.001008 -0.000761 0.000945
v 0.000961 0.011493 0.000953
v 0.000961 0.011611 0.001007
v 0.000087 -0.003482 0.001734
v 0.000077 -0.003364 0.001761
v -0.000087 -0.003364 0.001758
v 0.000000 0.011493 0.001451
v 0.000284 0.011582 0.001218
v 0.000077 0.011604 0.001414
v 0.000961 0.011602 0.001117
v 0.000961 0.011493 0.001158
v 0.000224 -0.003482 0.001700
v -0.000087 -0.003212 0.001763
v -0.000087 -0.003058 0.001757
v 0.000689 0.011588 0.001240
v 0.000309 0.011571 0.001379
vn -0.5776 0.5899 0.5643
vn 0.9999 -0.0059 -0.0089
vn -0.9999 -0.0078 -0.0134
vn -0.1618 -0.1268 -0.9786
vn 0.7708 0.0009 0.6371
vn -0.3399 -0.0037 -0.9405
vn 0.9930 -0.0034 0.1185
vn 0.6863 0.0084 0.7273
vn -0.3280 0.2754 -0.9036
vn 0.1716 0.8333 0.5255
vn 0.0313 -0.0922 -0.9952
vn 0.8053 0.0035 -0.5929
vn -0.3162 -0.1078 -0.9426
vn -0.2578 0.6208 -0.7404
vn 0.1716 0.2078 0.9630
vn 0.0086 0.2131 -0.9770
vn -0.2886 0.3992 -0.8703
vn -0.0172 0.0208 0.9996
vn 0.3997 -0.0313 -0.9161
vn -0.9298 0.0133 0.3678
vn 0.5576 0.0186 0.8299
vn -0.0000 1.0000 -0.0000
vn 0.3018 0.0202 0.9532
vn 0.0112 0.9990 0.0424
vn -0.3737 -0.3229 -0.8695
vn -0.3076 0.1489 -0.9398
vn -0.0000 -1.0000 -0.0000
vn -1.0000 -0.0000 -0.0000
vn 0.3357 0.0942 0.9373
vn 0.2925 0.1288 0.9475
vn 1.0000 -0.0000 -0.0000
vn -0.0009 -0.2233 0.9747
vn -0.0169 -0.2022 0.9792
vn -0.9999 0.0063 0.0139
vn -1.0000 0.0063 0.0060
vn -0.9998 0.0062 -0.0165
vn 0.3437 0.0727 0.9363
vn 0.3380 0.0868 0.9371
vn 0.3157 -0.1876 0.9301
vn 0.9998 0.0082 -0.0179
vn 1.0000 0.0082 0.0007
vn 0.9997 0.0081 0.0209
vn 0.2400 -0.1974 0.9505
vn -0.0172 -0.0286 0.9994
vn 0.3092 -0.1084 0.9448
vn 0.3110 0.0195 0.9502
vn 0.2216 0.0215 0.9749
vn 0.0289 0.0210 0.9994
vn -0.0058 1.0000 0.0056
vn -0.3389 0.3293 -0.8813
vn -0.3236 0.2546 -0.9113
vn 0.3346 0.0007 0.9424
vn 0.3426 0.0014 0.9395
vn 0.3489 0.0108 0.9371
vn 0.3543 0.0210 0.9349
vn 0.3439 0.0321 0.9385
vn 0.9997 0.0081 0.0219
vn 0.3238 0.0201 0.9459
vn 0.0286 0.9964 0.0802
vn 0.1472 0.8886 0.4344
vn 0.3347 0.1595 0.9287
vn 0.1983 0.7535 0.6269
s 0
f 23//1 8//1 21//1
f 4//2 9//2 8//2 21//2 28//2 27//2 20//2 3//2 1//2
f 17//3 16//3 7//3 2//3 6//3 14//3 25//3 24//3
f 2//4 5//4 7//4
f 9//5 4//5 10//5
f 15//6 13//6 12//6 11//6 10//6 9//6 16//6
f 27//7 20//7 21//7
f 4//8 11//8 10//8
f 9//9 8//9 22//9 16//9
f 30//10 29//10 24//10 23//10
f 5//11 13//11 7//11
f 7//12 15//12 16//12
f 13//13 5//13 2//13 1//13 4//13 12//13
f 8//14 17//14 22//14
f 21//15 30//15 23//15
f 19//16 18//16 3//16 20//16
f 17//17 16//17 22//17
f 21//18 20//18 19//18
f 13//19 15//19 7//19
f 21//20 28//20 27//20
f 11//21 4//21 12//21
f 26//22 6//22 2//22 1//22 3//22 18//22
f 25//23 29//23 30//23 21//23 19//23 14//23
f 8//24 23//24 24//24 17//24
f 24//25 25//25 29//25
f 26//26 18//26 19//26 14//26 6//26
f 2//27 6//27 26//27
f 2//27 26//27 18//27
f 2//27 18//27 3//27
f 2//27 3//27 1//27
f 3//28 20//28 27//28
f 3//28 27//28 28//28
f 3//28 28//28 4//28
f 3//28 4//28 1//28
f 4//29 1//29 5//29
f 5//30 1//30 2//30
f 7//31 14//31 6//31
f 7//31 6//31 2//31
f 18//32 19//32 3//32
f 19//33 20//33 3//33
f 28//34 21//34 4//34
f 21//35 8//35 4//35
f 8//36 9//36 4//36
f 12//37 4//37 13//37
f 13//38 4//38 5//38
f 14//39 26//39 6//39
f 16//40 17//40 7//40
f 17//41 24//41 7//41
f 24//42 14//42 7//42
f 26//43 19//43 18//43
f 27//44 20//44 19//44
f 26//45 14//45 19//45
f 14//46 30//46 19//46
f 30//47 21//47 19//47
f 21//48 27//48 19//48
f 23//49 17//49 8//49
f 22//50 9//50 8//50
f 22//51 16//51 9//51
f 16//52 9//52 15//52
f 15//53 9//53 10//53
f 15//54 10//54 11//54
f 15//55 11//55 12//55
f 15//56 12//56 13//56
f 24//57 25//57 14//57
f 25//58 30//58 14//58
f 23//59 24//59 17//59
f 23//60 29//60 24//60
f 25//61 29//61 30//61
f 29//62 23//62 30//62
