# Blender 4.0.0
# www.blender.org
o decimated_mesh
v -0.001480 -0.000690 0.000081
v -0.000980 0.011611 -0.000985
v -0.001309 0.011594 -0.000001
v -0.001419 0.011609 -0.000003
v -0.001460 0.011479 -0.000003
v -0.001484 -0.000690 -0.000095
v -0.001324 -0.000690 0.000068
v -0.000966 -0.000690 -0.001200
v -0.000980 0.011606 -0.001112
v -0.001091 0.011595 -0.001090
v -0.000967 -0.000690 -0.000989
v -0.001343 0.011575 -0.000438
v -0.000980 0.011493 -0.001152
v -0.001138 -0.000690 -0.001101
v -0.001104 0.009962 -0.001104
vn 0.0248 -0.0069 -0.9997
vn -0.9359 0.2993 -0.1858
vn 0.9483 0.0008 0.3175
vn -0.4963 0.0013 -0.8681
vn -0.4504 0.8805 -0.1477
vn -0.1045 0.9936 -0.0431
vn -0.9325 0.0108 -0.3610
vn -0.0000 -1.0000 -0.0000
vn -0.0001 -1.0000 -0.0000
vn -0.0010 -1.0000 0.0011
vn 0.0785 0.0055 0.9969
vn 0.0181 0.0018 -0.9998
vn 1.0000 0.0010 0.0077
vn -1.0000 -0.0012 0.0009
vn -1.0000 0.0003 -0.0001
vn -0.9998 0.0018 0.0216
vn 0.9474 0.0006 0.3199
vn -0.3932 0.0031 -0.9195
vn -0.4782 0.0113 -0.8782
vn -0.1032 0.9937 -0.0445
vn 0.1350 0.9889 0.0621
vn -0.2137 0.3257 -0.9210
vn -0.9456 0.0029 -0.3253
vn -0.9498 0.0042 -0.3130
vn -0.9634 -0.0329 -0.2662
vn -0.0169 0.0068 0.9998
vn -0.0458 0.0070 0.9989
vn -0.9659 0.0038 -0.2588
vn -0.9456 0.0017 -0.3253
vn -1.0000 -0.0011 -0.0000
vn -0.9389 0.0029 -0.3441
vn -1.0000 -0.0012 0.0040
s 0
f 5//1 3//1 1//1
f 12//2 5//2 4//2
f 3//3 11//3 2//3
f 14//4 15//4 8//4
f 12//5 4//5 10//5
f 2//6 9//6 10//6
f 12//7 10//7 15//7
f 11//8 7//8 6//8
f 8//9 11//9 14//9
f 7//10 1//10 6//10
f 6//8 14//8 11//8
f 7//11 3//11 1//11
f 4//12 3//12 5//12
f 2//13 11//13 8//13
f 8//14 2//14 13//14
f 13//15 2//15 9//15
f 6//16 1//16 5//16
f 3//17 7//17 11//17
f 13//18 8//18 15//18
f 15//19 10//19 13//19
f 10//20 4//20 2//20
f 2//21 4//21 3//21
f 13//22 10//22 9//22
f 14//23 6//23 15//23
f 6//24 5//24 15//24
f 5//25 12//25 15//25
f 3//26 4//26 1//26
f 4//27 5//27 1//27
f 12//28 6//28 5//28
f 14//9 8//9 6//9
f 8//8 11//8 6//8
f 12//29 14//29 6//29
f 8//30 2//30 9//30
f 15//31 14//31 12//31
f 13//32 8//32 9//32
