# https://github.com/mikedh/trimesh
mtllib material.mtl
usemtl material_0
v 0.44018790 -1.05166002 0.01918263
v 0.44018790 -1.05166002 0.05918263
v 0.44708810 -1.05166002 0.05918263
v 0.44708810 -1.05166002 0.02589771
v 0.45918800 -1.05166002 0.01918263
v 0.51237160 -1.05166002 0.05918263
v 0.51237150 -1.05166002 0.07117787
v 0.44708800 -1.05166002 0.07117848
v 0.46566070 -1.05166002 0.02589771
v 0.46579410 -1.05166002 -0.02081676
v 0.45918800 -1.05166002 -0.02081676
v 0.51237160 -1.05166002 -0.02081676
v 0.52076490 -1.05166002 0.05918263
v 0.52076490 -1.05166002 -0.02081676
v 0.46579360 -1.05166002 -0.03282054
v 0.51237110 -1.05166002 -0.03282116
v 0.50537110 1.03451600 -0.02258190
v 0.47279360 -1.04466002 -0.02201854
v 0.50537110 -1.04466002 -0.02201793
v 0.47279410 0.99675700 -0.02256969
v -0.47279360 0.99675800 -0.02256969
v -0.50537160 1.03451500 -0.02258190
v -0.47279360 -1.04466416 -0.02201854
v -0.50537110 -1.04466416 -0.02201793
v 0.45918800 0.97924200 -0.02151439
v 0.45918800 -1.05166002 -0.02081676
v 0.46579410 -1.05166002 -0.02081676
v 0.46579410 0.98976200 -0.02151745
v -0.45918800 0.97924200 -0.02151439
v -0.46579410 0.98976200 -0.02151745
v -0.45918800 -1.05166003 -0.02081859
v -0.46579410 -1.05166002 -0.02081859
v 0.45918800 0.97924100 0.01848438
v 0.45918800 -1.05166002 0.01918263
v 0.45918800 -1.05166002 -0.02081676
v 0.45918800 0.97924200 -0.02151439
v 0.44018790 0.95014300 0.01848805
v 0.44018790 -1.05166002 0.01918263
v 0.45918800 -1.05166002 0.01918263
v 0.45918800 0.97924100 0.01848438
v -0.44018790 0.95014300 0.01848805
v -0.45918800 0.97924100 0.01848438
v -0.45918800 -1.05166003 0.01918018
v -0.44018790 -1.05166003 0.01918018
v 0.44018790 0.95015700 0.05848805
v 0.44018790 -1.05166002 0.05918263
v 0.44018790 -1.05166002 0.01918263
v 0.44018790 0.95014300 0.01848805
v 0.44708810 -1.05166002 0.05918263
v 0.44018790 -1.05166002 0.05918263
v 0.44018790 0.95015700 0.05848805
v 0.44708810 0.96364600 0.05848438
v -0.44708810 0.96364600 0.05848438
v -0.44018790 0.95015700 0.05848805
v -0.44018790 -1.05166003 0.05918019
v -0.44708810 -1.05166002 0.05918019
v 0.52076500 1.05212000 -0.02154247
v 0.52076490 -1.05166002 -0.02081676
v 0.52076490 -1.05166002 0.05918263
v 0.52076500 1.05214700 0.05845692
v 0.51237160 -1.05166002 -0.02081676
v 0.52076490 -1.05166002 -0.02081676
v 0.52076500 1.05212000 -0.02154247
v 0.51237160 1.04152000 -0.02153942
v -0.51237160 1.04152000 -0.02153942
v -0.52076500 1.05212000 -0.02154247
v -0.51237160 -1.05166002 -0.02081859
v -0.52076490 -1.05166002 -0.02081859
v 0.50537150 1.02916100 0.05965809
v 0.50537150 -1.04466002 0.06022145
v 0.45408810 -1.04466002 0.06022206
v 0.45408810 0.97065000 0.05967335
v -0.50537150 1.02916100 0.05965809
v -0.45408810 0.97065000 0.05967335
v -0.45408810 -1.04465588 0.06022206
v -0.50537150 -1.04465588 0.06022145
v 0.52076490 -1.05166002 0.05918263
v 0.51237160 -1.05166002 0.05918263
v 0.51237150 1.03615700 0.05846058
v 0.52076500 1.05214700 0.05845692
v -0.52076500 1.05214700 0.05845692
v -0.51237150 1.03615700 0.05846058
v -0.51237160 -1.05166002 0.05918019
v -0.52076490 -1.05166002 0.05918019
v 0.44018790 0.95014300 0.01848805
v -0.44018790 0.95014300 0.01848805
v -0.44018790 0.95015700 0.05848805
v 0.44018790 0.95015700 0.05848805
v 0.45918800 0.97924200 -0.02151439
v -0.45918800 0.97924200 -0.02151439
v -0.45918800 0.97924100 0.01848438
v 0.45918800 0.97924100 0.01848438
v 0.52076500 1.05214700 0.05845692
v -0.52076500 1.05214700 0.05845692
v -0.52076500 1.05212000 -0.02154247
v 0.52076500 1.05212000 -0.02154247
v -0.44018790 -1.05166003 0.01918018
v -0.44708810 -1.05166002 0.05918019
v -0.44018790 -1.05166003 0.05918019
v -0.44708810 -1.05166002 0.02589771
v -0.45918800 -1.05166003 0.01918018
v -0.51237160 -1.05166002 0.05918019
v -0.51237150 -1.05165588 0.07117787
v -0.44708800 -1.05165588 0.07117848
v -0.46566070 -1.05166002 0.02589771
v -0.46579410 -1.05166002 -0.02081859
v -0.45918800 -1.05166003 -0.02081859
v -0.51237160 -1.05166002 -0.02081859
v -0.52076490 -1.05166002 0.05918019
v -0.52076490 -1.05166002 -0.02081859
v -0.46579360 -1.05166416 -0.03282054
v -0.51237110 -1.05166416 -0.03282116
v -0.45918800 -1.05166003 0.01918018
v -0.45918800 0.97924100 0.01848438
v -0.45918800 0.97924200 -0.02151439
v -0.45918800 -1.05166003 -0.02081859
v -0.44018790 -1.05166003 0.05918019
v -0.44018790 0.95015700 0.05848805
v -0.44018790 0.95014300 0.01848805
v -0.44018790 -1.05166003 0.01918018
v -0.52076500 1.05214700 0.05845692
v -0.52076490 -1.05166002 0.05918019
v -0.52076490 -1.05166002 -0.02081859
v -0.52076500 1.05212000 -0.02154247
v 0.51237160 1.04152000 -0.02153942
v 0.51237110 1.04151600 -0.03353954
v 0.51237110 -1.05166002 -0.03282116
v 0.51237160 -1.05166002 -0.02081676
v 0.46579410 -1.05166002 -0.02081676
v 0.46579360 -1.05166002 -0.03282054
v 0.46579410 0.98975700 -0.03351757
v 0.46579410 0.98976200 -0.02151745
v 0.46579410 0.98976200 -0.02151745
v 0.46579410 0.98975700 -0.03351757
v -0.46579360 0.98975800 -0.03351757
v -0.46579410 0.98976200 -0.02151745
v -0.51237160 1.04152000 -0.02153942
v -0.51237160 1.04151500 -0.03353954
v 0.51237110 1.04151600 -0.03353954
v 0.51237160 1.04152000 -0.02153942
v -0.46579410 0.98976200 -0.02151745
v -0.46579360 0.98975800 -0.03351757
v -0.46579360 -1.05166416 -0.03282054
v -0.46579410 -1.05166002 -0.02081859
v -0.51237160 -1.05166002 -0.02081859
v -0.51237110 -1.05166416 -0.03282116
v -0.51237160 1.04151500 -0.03353954
v -0.51237160 1.04152000 -0.02153942
v 0.44708810 0.96364600 0.05848438
v 0.44708800 0.96365000 0.07048451
v 0.44708800 -1.05166002 0.07117848
v 0.44708810 -1.05166002 0.05918263
v 0.51237160 -1.05166002 0.05918263
v 0.51237150 -1.05166002 0.07117787
v 0.51237150 1.03616100 0.07046070
v 0.51237150 1.03615700 0.05846058
v 0.51237150 1.03615700 0.05846058
v 0.51237150 1.03616100 0.07046070
v -0.51237150 1.03616100 0.07046070
v -0.51237150 1.03615700 0.05846058
v -0.44708810 0.96364600 0.05848438
v -0.44708810 0.96365000 0.07048451
v 0.44708800 0.96365000 0.07048451
v 0.44708810 0.96364600 0.05848438
v -0.51237150 1.03615700 0.05846058
v -0.51237150 1.03616100 0.07046070
v -0.51237150 -1.05165588 0.07117787
v -0.51237160 -1.05166002 0.05918019
v -0.44708810 -1.05166002 0.05918019
v -0.44708800 -1.05165588 0.07117848
v -0.44708810 0.96365000 0.07048451
v -0.44708810 0.96364600 0.05848438
v 0.50537110 1.03451600 -0.03353588
v 0.50537110 1.03451600 -0.02258190
v 0.50537110 -1.04466002 -0.02201793
v 0.50537110 -1.04466002 -0.03282299
v 0.50537110 -1.04466002 -0.03282299
v 0.50537110 -1.04466002 -0.02201793
v 0.47279360 -1.04466002 -0.02201854
v 0.47279360 -1.04466002 -0.03282360
v 0.47279360 -1.04466002 -0.03282360
v 0.47279360 -1.04466002 -0.02201854
v 0.47279410 0.99675700 -0.02256969
v 0.47279410 0.99675700 -0.03352062
v 0.47279410 0.99675700 -0.03352062
v 0.47279410 0.99675700 -0.02256969
v -0.47279360 0.99675800 -0.02256969
v -0.47279360 0.99675800 -0.03352062
v -0.50537160 1.03451500 -0.03353588
v -0.50537160 1.03451500 -0.02258190
v 0.50537110 1.03451600 -0.02258190
v 0.50537110 1.03451600 -0.03353588
v -0.47279360 0.99675800 -0.03352062
v -0.47279360 0.99675800 -0.02256969
v -0.47279360 -1.04466416 -0.02201854
v -0.47279360 -1.04466416 -0.03282360
v -0.47279360 -1.04466416 -0.03282360
v -0.47279360 -1.04466416 -0.02201854
v -0.50537110 -1.04466416 -0.02201793
v -0.50537110 -1.04466416 -0.03282299
v -0.50537110 -1.04466416 -0.03282299
v -0.50537110 -1.04466416 -0.02201793
v -0.50537160 1.03451500 -0.02258190
v -0.50537160 1.03451500 -0.03353588
v 0.45408810 0.97065000 0.07048206
v 0.45408810 0.97065000 0.05967335
v 0.45408810 -1.04466002 0.06022206
v 0.45408810 -1.04466002 0.07117603
v 0.45408810 -1.04466002 0.07117603
v 0.45408810 -1.04466002 0.06022206
v 0.50537150 -1.04466002 0.06022145
v 0.50537150 -1.04466002 0.07117542
v 0.50537150 -1.04466002 0.07117542
v 0.50537150 -1.04466002 0.06022145
v 0.50537150 1.02916100 0.05965809
v 0.50537150 1.02916100 0.07046314
v 0.50537150 1.02916100 0.07046314
v 0.50537150 1.02916100 0.05965809
v -0.50537150 1.02916100 0.05965809
v -0.50537150 1.02916100 0.07046314
v -0.45408810 0.97065000 0.07048206
v -0.45408810 0.97065000 0.05967335
v 0.45408810 0.97065000 0.05967335
v 0.45408810 0.97065000 0.07048206
v -0.50537150 1.02916100 0.07046314
v -0.50537150 1.02916100 0.05965809
v -0.50537150 -1.04465588 0.06022145
v -0.50537150 -1.04465588 0.07117542
v -0.50537150 -1.04465588 0.07117542
v -0.50537150 -1.04465588 0.06022145
v -0.45408810 -1.04465588 0.06022206
v -0.45408810 -1.04465588 0.07117603
v -0.45408810 -1.04465588 0.07117603
v -0.45408810 -1.04465588 0.06022206
v -0.45408810 0.97065000 0.05967335
v -0.45408810 0.97065000 0.07048206
v 0.51237110 1.04151600 -0.03353954
v 0.50537110 1.03451600 -0.03353588
v 0.50537110 -1.04466002 -0.03282299
v 0.51237110 -1.05166002 -0.03282116
v -0.51237160 1.04151500 -0.03353954
v 0.47279360 -1.04466002 -0.03282360
v -0.50537160 1.03451500 -0.03353588
v 0.46579360 -1.05166002 -0.03282054
v -0.51237110 -1.05166416 -0.03282116
v 0.47279410 0.99675700 -0.03352062
v -0.50537110 -1.04466416 -0.03282299
v 0.46579410 0.98975700 -0.03351757
v -0.46579360 -1.05166416 -0.03282054
v -0.47279360 0.99675800 -0.03352062
v -0.47279360 -1.04466416 -0.03282360
v -0.46579360 0.98975800 -0.03351757
v 0.44708800 0.96365000 0.07048451
v 0.45408810 0.97065000 0.07048206
v 0.45408810 -1.04466002 0.07117603
v 0.44708800 -1.05166002 0.07117848
v -0.44708810 0.96365000 0.07048451
v 0.50537150 -1.04466002 0.07117542
v -0.45408810 0.97065000 0.07048206
v 0.51237150 -1.05166002 0.07117787
v -0.44708800 -1.05165588 0.07117848
v 0.50537150 1.02916100 0.07046314
v -0.45408810 -1.04465588 0.07117603
v 0.51237150 1.03616100 0.07046070
v -0.51237150 -1.05165588 0.07117787
v -0.50537150 1.02916100 0.07046314
v -0.50537150 -1.04465588 0.07117542
v -0.51237150 1.03616100 0.07046070
v 0.43912883 -0.09855579 -0.03682873
v 0.36309033 -0.09855579 -0.03682873
v 0.36309033 -0.17459431 -0.03682873
v 0.43912883 -0.17459431 -0.03682873
v 0.43912883 -0.09855579 0.03530873
v 0.36309033 -0.09855579 0.03530873
v 0.36309033 -0.09855579 -0.03682873
v 0.43912883 -0.09855579 -0.03682873
v 0.36309033 -0.17459431 0.03530873
v 0.36309033 -0.09855579 0.03530873
v 0.43912883 -0.09855579 0.03530873
v 0.43912883 -0.17459431 0.03530873
v 0.43912883 -0.17459431 -0.03682873
v 0.36309033 -0.17459431 -0.03682873
v 0.36309033 -0.17459431 0.03530873
v 0.43912883 -0.17459431 0.03530873
v 0.36309033 -0.17459431 -0.03682873
v 0.36309033 -0.09855579 -0.03682873
v 0.36309033 -0.09855579 0.03530873
v 0.36309033 -0.17459431 0.03530873
v 0.43912883 -0.17459431 0.03530873
v 0.43912883 -0.09855579 0.03530873
v 0.43912883 -0.09855579 -0.03682873
v 0.43912883 -0.17459431 -0.03682873
v 0.45985993 -1.04506121 0.02028736
v 0.45327273 -1.05164821 0.02028736
v 0.45327253 -1.04506021 0.02847584
v 0.34628853 -1.05165021 0.02028675
v 0.33970123 -1.04506321 0.02028675
v 0.34628843 -1.04506221 0.02847584
v -0.33630467 -1.04506321 0.02028736
v -0.34289197 -1.05165021 0.02028736
v -0.34289197 -1.04506221 0.02847584
v -0.44955281 -1.05165021 0.02028736
v -0.45614014 -1.04506321 0.02028736
v -0.44955319 -1.04506321 0.02847584
v 0.33970123 0.97251479 0.02028736
v 0.34628853 0.97910179 0.02028736
v 0.34628853 0.97251479 0.02847584
v 0.45985993 0.97251479 0.02028675
v 0.45327253 0.97251479 0.02847584
v 0.45327253 0.97910179 0.02028675
v -0.34289197 0.97910179 0.02028736
v -0.33630467 0.97251479 0.02028736
v -0.34289217 0.97251479 0.02847584
v -0.45614014 0.97251479 0.02028675
v -0.44955281 0.97910179 0.02028675
v -0.44955281 0.97251479 0.02847584
v 0.45327303 0.97909779 -0.02180736
v 0.45327303 0.97250979 -0.02999584
v 0.45985993 0.97251079 -0.02180736
v 0.33970123 0.97251179 -0.02180736
v 0.34628853 0.97251079 -0.02999584
v 0.34628853 0.97909879 -0.02180675
v -0.34289197 0.97251179 -0.02999584
v -0.33630467 0.97251179 -0.02180736
v -0.34289177 0.97909879 -0.02180736
v -0.44955319 0.97250979 -0.02999584
v -0.44955319 0.97909779 -0.02180736
v -0.45614014 0.97251079 -0.02180736
v -0.44955246 -1.05165421 -0.02180675
v -0.44955246 -1.04506721 -0.02999584
v -0.45614014 -1.04506721 -0.02180675
v -0.33630467 -1.04506521 -0.02180675
v -0.34289197 -1.04506521 -0.02999584
v -0.34289187 -1.05165221 -0.02180736
v 0.34628853 -1.04506521 -0.02999584
v 0.33970123 -1.04506521 -0.02180675
v 0.34628873 -1.05165221 -0.02180675
v 0.45985993 -1.04506521 -0.02180675
v 0.45327253 -1.04506521 -0.02999584
v 0.45327253 -1.05165221 -0.02180675
v 0.35036833 -0.24855221 -0.02056164
v 0.35036833 -0.24855221 0.01904164
v -0.34664837 -0.24855221 0.01904164
v -0.34664837 -0.24855221 -0.02056164
v -0.34664837 -0.36129821 -0.02056164
v -0.34664837 -0.36129821 0.01904164
v 0.35036833 -0.36129821 0.01904164
v 0.35036833 -0.36129821 -0.02056164
v -0.34664837 -0.25474981 -0.02826610
v -0.34664837 -0.35510061 -0.02826610
v 0.35036833 -0.35510061 -0.02826610
v 0.35036833 -0.25474981 -0.02826610
v 0.35036833 -0.25474981 0.02674610
v 0.35036833 -0.35510061 0.02674610
v -0.34664837 -0.35510061 0.02674610
v -0.34664837 -0.25474981 0.02674610
v 0.11315163 0.86636419 -0.01304516
v 0.11315163 0.86636729 0.01152516
v 0.11315163 -0.94281431 0.01152516
v 0.11315163 -0.94281731 -0.01304516
v 0.11973903 0.86636819 0.01971363
v 0.16979973 0.86636819 0.01971363
v 0.16979973 -0.94281331 0.01971363
v 0.11973903 -0.94281331 0.01971363
v 0.17638703 -0.94281481 -0.01304516
v 0.17638703 -0.94281371 0.01152516
v 0.17638703 0.86636729 0.01152516
v 0.17638703 0.86636479 -0.01304516
v 0.11973903 -0.94281791 -0.02123363
v 0.16979983 -0.94281551 -0.02123363
v 0.16979983 0.86636389 -0.02123363
v 0.11973903 0.86636339 -0.02123363
v -0.16222677 0.86636419 -0.01304516
v -0.16222677 0.86636729 0.01152516
v -0.16222677 -0.94281431 0.01152516
v -0.16222677 -0.94281731 -0.01304516
v -0.15563937 0.86636819 0.01971363
v -0.10557867 0.86636819 0.01971363
v -0.10557867 -0.94281331 0.01971363
v -0.15563937 -0.94281331 0.01971363
v -0.09899127 -0.94281481 -0.01304516
v -0.09899127 -0.94281371 0.01152516
v -0.09899127 0.86636729 0.01152516
v -0.09899127 0.86636479 -0.01304516
v -0.15563937 -0.94281791 -0.02123363
v -0.10557867 -0.94281551 -0.02123363
v -0.10557867 0.86636389 -0.02123363
v -0.15563937 0.86636339 -0.02123363
v 0.35036853 0.97548079 -0.02053051
v 0.35036853 0.97548079 0.01901051
v -0.34664837 0.97548079 0.01901051
v -0.34664837 0.97548079 -0.02053051
v 0.35036833 -0.94187381 0.02092274
v 0.35036833 -1.04050721 0.02092274
v -0.34664837 -1.04050721 0.02092274
v -0.34664837 -0.94187381 0.02092274
v 0.35036833 -1.04658021 0.01484974
v 0.35036833 -1.04658021 -0.01636974
v -0.34664837 -1.04658021 -0.01636974
v -0.34664837 -1.04658021 0.01484974
v -0.34664837 0.86291209 -0.02053051
v -0.34664837 0.86291209 0.01901051
v 0.35036853 0.86291209 0.01901051
v 0.35036853 0.86291209 -0.02053051
v 0.35036833 -0.93580071 -0.01636974
v 0.35036833 -0.93580071 0.01484974
v -0.34664837 -0.93580071 0.01484974
v -0.34664837 -0.93580071 -0.01636913
v -0.34664837 0.96929279 -0.02822277
v -0.34664837 0.86909999 -0.02822277
v 0.35036853 0.86909999 -0.02822277
v 0.35036853 0.96929279 -0.02822277
v 0.35036833 -1.04050721 -0.02244274
v 0.35036833 -0.94187381 -0.02244274
v -0.34664837 -0.94187381 -0.02244274
v -0.34664837 -1.04050721 -0.02244274
v 0.35036853 0.96929279 0.02670277
v 0.35036853 0.86909999 0.02670277
v -0.34664847 0.86909999 0.02670277
v -0.34664847 0.96929279 0.02670277
v -0.34664837 -0.24855221 0.01904164
v 0.35036833 -0.24855221 0.01904164
v 0.35036833 -0.25474981 0.02674610
v -0.34664837 -0.25474981 0.02674610
v -0.34664837 -0.35510061 0.02674610
v 0.35036833 -0.35510061 0.02674610
v 0.35036833 -0.36129821 0.01904164
v -0.34664837 -0.36129821 0.01904164
v 0.35036833 -0.24855221 -0.02056164
v -0.34664837 -0.24855221 -0.02056164
v -0.34664837 -0.25474981 -0.02826610
v 0.35036833 -0.25474981 -0.02826610
v 0.35036833 -0.35510061 -0.02826610
v -0.34664837 -0.35510061 -0.02826610
v -0.34664837 -0.36129821 -0.02056164
v 0.35036833 -0.36129821 -0.02056164
v 0.11315163 -0.94281431 0.01152516
v 0.11315163 0.86636729 0.01152516
v 0.11973903 0.86636819 0.01971363
v 0.11973903 -0.94281331 0.01971363
v 0.16979973 -0.94281331 0.01971363
v 0.16979973 0.86636819 0.01971363
v 0.17638703 0.86636729 0.01152516
v 0.17638703 -0.94281371 0.01152516
v 0.11315163 0.86636419 -0.01304516
v 0.11315163 -0.94281731 -0.01304516
v 0.11973903 -0.94281791 -0.02123363
v 0.11973903 0.86636339 -0.02123363
v 0.16979983 0.86636389 -0.02123363
v 0.16979983 -0.94281551 -0.02123363
v 0.17638703 -0.94281481 -0.01304516
v 0.17638703 0.86636479 -0.01304516
v -0.16222677 -0.94281431 0.01152516
v -0.16222677 0.86636729 0.01152516
v -0.15563937 0.86636819 0.01971363
v -0.15563937 -0.94281331 0.01971363
v -0.10557867 -0.94281331 0.01971363
v -0.10557867 0.86636819 0.01971363
v -0.09899127 0.86636729 0.01152516
v -0.09899127 -0.94281371 0.01152516
v -0.16222677 0.86636419 -0.01304516
v -0.16222677 -0.94281731 -0.01304516
v -0.15563937 -0.94281791 -0.02123363
v -0.15563937 0.86636339 -0.02123363
v -0.10557867 0.86636389 -0.02123363
v -0.10557867 -0.94281551 -0.02123363
v -0.09899127 -0.94281481 -0.01304516
v -0.09899127 0.86636479 -0.01304516
v -0.34664837 -1.04050721 0.02092274
v 0.35036833 -1.04050721 0.02092274
v 0.35036833 -1.04658021 0.01484974
v -0.34664837 -1.04658021 0.01484974
v -0.34664837 -0.93580071 0.01484974
v 0.35036833 -0.93580071 0.01484974
v 0.35036833 -0.94187381 0.02092274
v -0.34664837 -0.94187381 0.02092274
v -0.34664837 0.97548079 0.01901051
v 0.35036853 0.97548079 0.01901051
v 0.35036853 0.96929279 0.02670277
v -0.34664847 0.96929279 0.02670277
v -0.34664847 0.86909999 0.02670277
v 0.35036853 0.86909999 0.02670277
v 0.35036853 0.86291209 0.01901051
v -0.34664837 0.86291209 0.01901051
v 0.35036853 0.97548079 -0.02053051
v -0.34664837 0.97548079 -0.02053051
v -0.34664837 0.96929279 -0.02822277
v 0.35036853 0.96929279 -0.02822277
v -0.34664837 -1.04658021 -0.01636974
v 0.35036833 -1.04658021 -0.01636974
v 0.35036833 -1.04050721 -0.02244274
v -0.34664837 -1.04050721 -0.02244274
v 0.35036853 0.86909999 -0.02822277
v -0.34664837 0.86909999 -0.02822277
v -0.34664837 0.86291209 -0.02053051
v 0.35036853 0.86291209 -0.02053051
v 0.35036833 -0.93580071 -0.01636974
v -0.34664837 -0.93580071 -0.01636913
v -0.34664837 -0.94187381 -0.02244274
v 0.35036833 -0.94187381 -0.02244274
v 0.45985993 -1.04506121 0.02028736
v 0.45985993 -1.04506521 -0.02180675
v 0.45327253 -1.05165221 -0.02180675
v 0.45327273 -1.05164821 0.02028736
v 0.45327253 -1.04506021 0.02847584
v 0.45327253 0.97251479 0.02847584
v 0.45985993 0.97251479 0.02028675
v 0.45985993 -1.04506121 0.02028736
v 0.45327273 -1.05164821 0.02028736
v 0.34628853 -1.05165021 0.02028675
v 0.34628843 -1.04506221 0.02847584
v 0.45327253 -1.04506021 0.02847584
v 0.34628853 -1.05165021 0.02028675
v 0.34628873 -1.05165221 -0.02180675
v 0.33970123 -1.04506521 -0.02180675
v 0.33970123 -1.04506321 0.02028675
v 0.33970123 -1.04506321 0.02028675
v 0.33970123 0.97251479 0.02028736
v 0.34628853 0.97251479 0.02847584
v 0.34628843 -1.04506221 0.02847584
v -0.33630467 -1.04506321 0.02028736
v -0.33630467 -1.04506521 -0.02180675
v -0.34289187 -1.05165221 -0.02180736
v -0.34289197 -1.05165021 0.02028736
v -0.34289197 -1.04506221 0.02847584
v -0.34289217 0.97251479 0.02847584
v -0.33630467 0.97251479 0.02028736
v -0.33630467 -1.04506321 0.02028736
v -0.34289197 -1.05165021 0.02028736
v -0.44955281 -1.05165021 0.02028736
v -0.44955319 -1.04506321 0.02847584
v -0.34289197 -1.04506221 0.02847584
v -0.44955281 -1.05165021 0.02028736
v -0.44955246 -1.05165421 -0.02180675
v -0.45614014 -1.04506721 -0.02180675
v -0.45614014 -1.04506321 0.02028736
v -0.45614014 -1.04506321 0.02028736
v -0.45614014 0.97251479 0.02028675
v -0.44955281 0.97251479 0.02847584
v -0.44955319 -1.04506321 0.02847584
v 0.33970123 0.97251479 0.02028736
v 0.33970123 0.97251179 -0.02180736
v 0.34628853 0.97909879 -0.02180675
v 0.34628853 0.97910179 0.02028736
v 0.34628853 0.97910179 0.02028736
v 0.45327253 0.97910179 0.02028675
v 0.45327253 0.97251479 0.02847584
v 0.34628853 0.97251479 0.02847584
v 0.45327253 0.97910179 0.02028675
v 0.45327303 0.97909779 -0.02180736
v 0.45985993 0.97251079 -0.02180736
v 0.45985993 0.97251479 0.02028675
v -0.34289197 0.97910179 0.02028736
v -0.34289177 0.97909879 -0.02180736
v -0.33630467 0.97251179 -0.02180736
v -0.33630467 0.97251479 0.02028736
v -0.34289217 0.97251479 0.02847584
v -0.44955281 0.97251479 0.02847584
v -0.44955281 0.97910179 0.02028675
v -0.34289197 0.97910179 0.02028736
v -0.45614014 0.97251479 0.02028675
v -0.45614014 0.97251079 -0.02180736
v -0.44955319 0.97909779 -0.02180736
v -0.44955281 0.97910179 0.02028675
v 0.45327303 0.97909779 -0.02180736
v 0.34628853 0.97909879 -0.02180675
v 0.34628853 0.97251079 -0.02999584
v 0.45327303 0.97250979 -0.02999584
v 0.45327303 0.97250979 -0.02999584
v 0.45327253 -1.04506521 -0.02999584
v 0.45985993 -1.04506521 -0.02180675
v 0.45985993 0.97251079 -0.02180736
v 0.33970123 0.97251179 -0.02180736
v 0.33970123 -1.04506521 -0.02180675
v 0.34628853 -1.04506521 -0.02999584
v 0.34628853 0.97251079 -0.02999584
v -0.34289197 0.97251179 -0.02999584
v -0.34289197 -1.04506521 -0.02999584
v -0.33630467 -1.04506521 -0.02180675
v -0.33630467 0.97251179 -0.02180736
v -0.34289177 0.97909879 -0.02180736
v -0.44955319 0.97909779 -0.02180736
v -0.44955319 0.97250979 -0.02999584
v -0.34289197 0.97251179 -0.02999584
v -0.45614014 0.97251079 -0.02180736
v -0.45614014 -1.04506721 -0.02180675
v -0.44955246 -1.04506721 -0.02999584
v -0.44955319 0.97250979 -0.02999584
v -0.44955246 -1.05165421 -0.02180675
v -0.34289187 -1.05165221 -0.02180736
v -0.34289197 -1.04506521 -0.02999584
v -0.44955246 -1.04506721 -0.02999584
v 0.34628873 -1.05165221 -0.02180675
v 0.45327253 -1.05165221 -0.02180675
v 0.45327253 -1.04506521 -0.02999584
v 0.34628853 -1.04506521 -0.02999584
v 0.45327303 0.97909779 -0.02180736
v 0.45327253 0.97910179 0.02028675
v 0.34628853 0.97910179 0.02028736
v 0.34628853 0.97909879 -0.02180675
v -0.34289187 -1.05165221 -0.02180736
v -0.44955246 -1.05165421 -0.02180675
v -0.44955281 -1.05165021 0.02028736
v -0.34289197 -1.05165021 0.02028736
v 0.34628853 -1.05165021 0.02028675
v 0.45327273 -1.05164821 0.02028736
v 0.45327253 -1.05165221 -0.02180675
v 0.34628873 -1.05165221 -0.02180675
v -0.45614014 0.97251079 -0.02180736
v -0.45614014 0.97251479 0.02028675
v -0.45614014 -1.04506321 0.02028736
v -0.45614014 -1.04506721 -0.02180675
v 0.34628843 -1.04506221 0.02847584
v 0.34628853 0.97251479 0.02847584
v 0.45327253 0.97251479 0.02847584
v 0.45327253 -1.04506021 0.02847584
v -0.44955319 -1.04506321 0.02847584
v -0.44955281 0.97251479 0.02847584
v -0.34289217 0.97251479 0.02847584
v -0.34289197 -1.04506221 0.02847584
v 0.45985993 0.97251479 0.02028675
v 0.45985993 0.97251079 -0.02180736
v 0.45985993 -1.04506521 -0.02180675
v 0.45985993 -1.04506121 0.02028736
v -0.34289197 0.97910179 0.02028736
v -0.44955281 0.97910179 0.02028675
v -0.44955319 0.97909779 -0.02180736
v -0.34289177 0.97909879 -0.02180736
v -0.33630467 -1.04506521 -0.02180675
v -0.33630467 -1.04506321 0.02028736
v -0.33630467 0.97251479 0.02028736
v -0.33630467 0.97251179 -0.02180736
v 0.33970123 0.97251179 -0.02180736
v 0.33970123 0.97251479 0.02028736
v 0.33970123 -1.04506321 0.02028675
v 0.33970123 -1.04506521 -0.02180675
v -0.44955246 -1.04506721 -0.02999584
v -0.34289197 -1.04506521 -0.02999584
v -0.34289197 0.97251179 -0.02999584
v -0.44955319 0.97250979 -0.02999584
v 0.45327253 -1.04506521 -0.02999584
v 0.45327303 0.97250979 -0.02999584
v 0.34628853 0.97251079 -0.02999584
v 0.34628853 -1.04506521 -0.02999584
v -0.34060217 0.86220269 0.00977650
v 0.34432373 0.86220269 0.00977650
v 0.34432373 -0.93425781 0.00977650
v -0.34060217 -0.93425781 0.00977650
v -0.34060407 0.86220269 -0.01129650
v -0.34060287 -0.93425781 -0.01129650
v 0.34432223 -0.93425781 -0.01129650
v 0.34432193 0.86220269 -0.01129650
v 0.25587494 -0.13228350 0.12092500
v 0.25587494 -0.14086665 0.12092500
v 0.25587464 -0.14086665 0.09878324
v 0.25587464 -0.13228350 0.09878324
v 0.41939413 -0.13228350 0.07052335
v 0.40523039 -0.11811976 0.07052335
v 0.41524568 -0.12226840 0.07052335
v 0.40523039 -0.12620654 0.07052335
v 0.39664721 -0.11811976 0.07052335
v 0.39664721 -0.12620654 0.07052335
v 0.38248346 -0.13228350 0.07052335
v 0.38663195 -0.12226840 0.07052335
v 0.40523039 -0.11811976 0.04441556
v 0.41524568 -0.12226840 0.04441556
v 0.41524568 -0.12226840 0.07052335
v 0.40523039 -0.11811976 0.07052335
v 0.39664721 -0.11811976 0.04441556
v 0.39664721 -0.11811976 0.07052335
v 0.38663195 -0.12226840 0.04441556
v 0.38663195 -0.12226840 0.07052335
v 0.41524568 -0.12226840 0.04441556
v 0.41939413 -0.13228350 0.07052335
v 0.41524568 -0.12226840 0.07052335
v 0.41939413 -0.13228350 0.04441556
v 0.41939421 -0.14086665 0.07052335
v 0.41939421 -0.14086665 0.04441556
v 0.41524568 -0.15088213 0.07052335
v 0.41524568 -0.15088213 0.04441556
v 0.41524568 -0.15088213 0.04441556
v 0.40523039 -0.15503069 0.07052335
v 0.41524568 -0.15088213 0.07052335
v 0.40523039 -0.15503069 0.04441556
v 0.39664721 -0.15503069 0.07052335
v 0.39664721 -0.15503069 0.04441556
v 0.38663195 -0.15088213 0.07052335
v 0.38663195 -0.15088213 0.04441556
v 0.38663195 -0.15088213 0.04441556
v 0.38248343 -0.14086665 0.07052335
v 0.38663195 -0.15088213 0.07052335
v 0.38248343 -0.14086665 0.04441556
v 0.38248346 -0.13228350 0.07052335
v 0.38248346 -0.13228350 0.04441556
v 0.38663195 -0.12226840 0.07052335
v 0.38663195 -0.12226840 0.04441556
v 0.38248343 -0.14086665 0.07052335
v 0.38248346 -0.13228350 0.07052335
v 0.38256529 -0.13228350 0.09878324
v 0.38256521 -0.14086665 0.09878324
v 0.38256529 -0.13228350 0.09878324
v 0.38248346 -0.13228350 0.07052335
v 0.41939413 -0.13228350 0.07052335
v 0.41931234 -0.13228350 0.12092500
v 0.25587494 -0.13228350 0.12092500
v 0.25587464 -0.13228350 0.09878324
v 0.41939413 -0.13228350 0.07052335
v 0.41939421 -0.14086665 0.07052335
v 0.41931242 -0.14086665 0.12092500
v 0.41931234 -0.13228350 0.12092500
v 0.38256521 -0.14086665 0.09878324
v 0.41939421 -0.14086665 0.07052335
v 0.38248343 -0.14086665 0.07052335
v 0.41931242 -0.14086665 0.12092500
v 0.25587494 -0.14086665 0.12092500
v 0.25587464 -0.14086665 0.09878324
v 0.38256521 -0.14086665 0.09878324
v 0.38256529 -0.13228350 0.09878324
v 0.25587464 -0.13228350 0.09878324
v 0.25587464 -0.14086665 0.09878324
v 0.41931234 -0.13228350 0.12092500
v 0.41931242 -0.14086665 0.12092500
v 0.25587494 -0.14086665 0.12092500
v 0.25587494 -0.13228350 0.12092500
v 0.40523039 -0.10991023 0.04441556
v 0.42105082 -0.11646319 -0.04594088
v 0.42105082 -0.11646319 0.04441556
v 0.40523039 -0.10991023 -0.04594088
v 0.39664717 -0.10991023 0.04441556
v 0.39664717 -0.10991023 -0.04594088
v 0.38082674 -0.11646319 0.04441556
v 0.38082674 -0.11646319 -0.04594088
v 0.37427374 -0.13228350 0.04441556
v 0.38082674 -0.11646319 -0.04594088
v 0.38082674 -0.11646319 0.04441556
v 0.37427374 -0.13228350 -0.04594088
v 0.37427370 -0.14086665 0.04441556
v 0.37427370 -0.14086665 -0.04594088
v 0.38082674 -0.15668711 0.04441556
v 0.38082674 -0.15668711 -0.04594088
v 0.39664717 -0.16324030 0.04441556
v 0.38082674 -0.15668711 -0.04594088
v 0.38082674 -0.15668711 0.04441556
v 0.39664717 -0.16324030 -0.04594088
v 0.40523039 -0.16324030 0.04441556
v 0.40523039 -0.16324030 -0.04594088
v 0.42105082 -0.15668711 0.04441556
v 0.42105082 -0.15668711 -0.04594088
v 0.42760385 -0.14086665 0.04441556
v 0.42105082 -0.15668711 -0.04594088
v 0.42105082 -0.15668711 0.04441556
v 0.42760385 -0.14086665 -0.04594088
v 0.42760385 -0.13228350 0.04441556
v 0.42760385 -0.13228350 -0.04594088
v 0.42105082 -0.11646319 0.04441556
v 0.42105082 -0.11646319 -0.04594088
v 0.25587494 -0.13228350 -0.12244480
v 0.25587464 -0.13228350 -0.10030490
v 0.25587464 -0.14086665 -0.10030490
v 0.25587494 -0.14086665 -0.12244480
v 0.41939413 -0.13228350 -0.07204684
v 0.41524568 -0.12226840 -0.07204684
v 0.40523039 -0.11811976 -0.07204684
v 0.40523039 -0.12620654 -0.07204684
v 0.39664721 -0.11811976 -0.07204684
v 0.39664721 -0.12620654 -0.07204684
v 0.38248346 -0.13228350 -0.07204684
v 0.38663195 -0.12226840 -0.07204684
v 0.40523039 -0.11811976 -0.04594088
v 0.41524568 -0.12226840 -0.07204684
v 0.41524568 -0.12226840 -0.04594088
v 0.40523039 -0.11811976 -0.07204684
v 0.39664721 -0.11811976 -0.04594088
v 0.39664721 -0.11811976 -0.07204684
v 0.38663195 -0.12226840 -0.04594088
v 0.38663195 -0.12226840 -0.07204684
v 0.41524568 -0.12226840 -0.04594088
v 0.41524568 -0.12226840 -0.07204684
v 0.41939413 -0.13228350 -0.07204684
v 0.41939413 -0.13228350 -0.04594088
v 0.41939421 -0.14086665 -0.07204684
v 0.41939421 -0.14086665 -0.04594088
v 0.41524568 -0.15088213 -0.07204684
v 0.41524568 -0.15088213 -0.04594088
v 0.41524568 -0.15088213 -0.04594088
v 0.41524568 -0.15088213 -0.07204684
v 0.40523039 -0.15503069 -0.07204684
v 0.40523039 -0.15503069 -0.04594088
v 0.39664721 -0.15503069 -0.07204684
v 0.39664721 -0.15503069 -0.04594088
v 0.38663195 -0.15088213 -0.07204684
v 0.38663195 -0.15088213 -0.04594088
v 0.38663195 -0.15088213 -0.04594088
v 0.38663195 -0.15088213 -0.07204684
v 0.38248343 -0.14086665 -0.07204684
v 0.38248343 -0.14086665 -0.04594088
v 0.38248346 -0.13228350 -0.07204684
v 0.38248346 -0.13228350 -0.04594088
v 0.38663195 -0.12226840 -0.07204684
v 0.38663195 -0.12226840 -0.04594088
v 0.38248343 -0.14086665 -0.07204684
v 0.38256521 -0.14086665 -0.10030490
v 0.38256529 -0.13228350 -0.10030490
v 0.38248346 -0.13228350 -0.07204684
v 0.38256529 -0.13228350 -0.10030490
v 0.41939413 -0.13228350 -0.07204684
v 0.38248346 -0.13228350 -0.07204684
v 0.41931234 -0.13228350 -0.12244480
v 0.25587494 -0.13228350 -0.12244480
v 0.25587464 -0.13228350 -0.10030490
v 0.41939413 -0.13228350 -0.07204684
v 0.41931234 -0.13228350 -0.12244480
v 0.41931242 -0.14086665 -0.12244480
v 0.41939421 -0.14086665 -0.07204684
v 0.38256521 -0.14086665 -0.10030490
v 0.38248343 -0.14086665 -0.07204684
v 0.41939421 -0.14086665 -0.07204684
v 0.41931242 -0.14086665 -0.12244480
v 0.25587494 -0.14086665 -0.12244480
v 0.25587464 -0.14086665 -0.10030490
v 0.38256521 -0.14086665 -0.10030490
v 0.25587464 -0.14086665 -0.10030490
v 0.25587464 -0.13228350 -0.10030490
v 0.38256529 -0.13228350 -0.10030490
v 0.41931234 -0.13228350 -0.12244480
v 0.25587494 -0.13228350 -0.12244480
v 0.25587494 -0.14086665 -0.12244480
v 0.41931242 -0.14086665 -0.12244480
v 0.41524568 -0.15088213 0.07052335
v 0.40523039 -0.15503069 0.07052335
v 0.40523039 -0.14690180 0.07052335
v 0.41939421 -0.14086665 0.07052335
v 0.38248343 -0.14086665 0.07052335
v 0.39664721 -0.14690180 0.07052335
v 0.39664721 -0.15503069 0.07052335
v 0.38663195 -0.15088213 0.07052335
v 0.41524568 -0.15088213 -0.07204684
v 0.41939421 -0.14086665 -0.07204684
v 0.40523039 -0.14690180 -0.07204684
v 0.40523039 -0.15503069 -0.07204684
v 0.38248343 -0.14086665 -0.07204684
v 0.39664721 -0.14690180 -0.07204684
v 0.39664721 -0.15503069 -0.07204684
v 0.38663195 -0.15088213 -0.07204684
v 0.37427374 -0.13228350 0.04441556
v 0.38082674 -0.11646319 0.04441556
v 0.38663195 -0.12226840 0.04441556
v 0.38248346 -0.13228350 0.04441556
v 0.39664721 -0.11811976 0.04441556
v 0.37427370 -0.14086665 0.04441556
v 0.39664717 -0.10991023 0.04441556
v 0.38248343 -0.14086665 0.04441556
v 0.40523039 -0.11811976 0.04441556
v 0.38082674 -0.15668711 0.04441556
v 0.40523039 -0.10991023 0.04441556
v 0.38663195 -0.15088213 0.04441556
v 0.41524568 -0.12226840 0.04441556
v 0.39664717 -0.16324030 0.04441556
v 0.42105082 -0.11646319 0.04441556
v 0.39664721 -0.15503069 0.04441556
v 0.41939413 -0.13228350 0.04441556
v 0.40523039 -0.16324030 0.04441556
v 0.42760385 -0.13228350 0.04441556
v 0.40523039 -0.15503069 0.04441556
v 0.41939421 -0.14086665 0.04441556
v 0.42105082 -0.15668711 0.04441556
v 0.42760385 -0.14086665 0.04441556
v 0.41524568 -0.15088213 0.04441556
v 0.40523039 -0.10991023 -0.04594088
v 0.40523039 -0.11811976 -0.04594088
v 0.41524568 -0.12226840 -0.04594088
v 0.39664717 -0.10991023 -0.04594088
v 0.42105082 -0.11646319 -0.04594088
v 0.39664721 -0.11811976 -0.04594088
v 0.41939413 -0.13228350 -0.04594088
v 0.38082674 -0.11646319 -0.04594088
v 0.42760385 -0.13228350 -0.04594088
v 0.38663195 -0.12226840 -0.04594088
v 0.41939421 -0.14086665 -0.04594088
v 0.37427374 -0.13228350 -0.04594088
v 0.42760385 -0.14086665 -0.04594088
v 0.38248346 -0.13228350 -0.04594088
v 0.41524568 -0.15088213 -0.04594088
v 0.37427370 -0.14086665 -0.04594088
v 0.42105082 -0.15668711 -0.04594088
v 0.38248343 -0.14086665 -0.04594088
v 0.40523039 -0.15503069 -0.04594088
v 0.38082674 -0.15668711 -0.04594088
v 0.40523039 -0.16324030 -0.04594088
v 0.38663195 -0.15088213 -0.04594088
v 0.39664721 -0.15503069 -0.04594088
v 0.39664717 -0.16324030 -0.04594088
vt 0.20175000 0.68456960
vt 0.20175000 0.62206910
vt 0.19096900 0.62206910
vt 0.19096900 0.67407690
vt 0.17206200 0.68456960
vt 0.08896300 0.62206910
vt 0.08896300 0.60332570
vt 0.19096900 0.60332570
vt 0.16194900 0.67407690
vt 0.16174000 0.74706840
vt 0.17206200 0.74706840
vt 0.08896300 0.74706840
vt 0.07584800 0.62206910
vt 0.07584800 0.74706840
vt 0.16174000 0.76582560
vt 0.08896300 0.76582560
vt 0.05489200 0.13629400
vt 0.10579400 0.88757000
vt 0.05489200 0.88757000
vt 0.10579300 0.07729400
vt 0.58327900 0.07729500
vt 0.63418200 0.13629200
vt 0.58327900 0.88756300
vt 0.63418100 0.88756300
vt 0.75687000 0.08815200
vt 0.75687000 0.91489100
vt 0.74655000 0.91489100
vt 0.74655000 0.10459000
vt 0.19182700 0.08815200
vt 0.20214800 0.10459000
vt 0.19182700 0.91489100
vt 0.20214800 0.91489100
vt 0.39780400 0.09724200
vt 0.39889500 0.92396500
vt 0.33639700 0.92396500
vt 0.33530600 0.09724200
vt 0.59599000 0.05178800
vt 0.59599000 0.92396200
vt 0.56630000 0.92396200
vt 0.56630000 0.09725400
vt 0.97158000 0.05178800
vt 0.00126700 0.09725400
vt 0.00126700 0.92396200
vt 0.97158000 0.92396200
vt 0.03784600 0.07214900
vt 0.03893000 0.94436100
vt 0.97643000 0.94436100
vt 0.97535000 0.07212700
vt 0.39747000 0.08382900
vt 0.40825000 0.08382900
vt 0.40825000 0.95593900
vt 0.39747000 0.93486300
vt 0.79464100 0.93486300
vt 0.78385800 0.95593900
vt 0.78385800 0.08382900
vt 0.79464100 0.08382900
vt 0.07144800 0.81582500
vt 0.07031400 0.52865800
vt 0.94532000 0.52865800
vt 0.94645000 0.81586800
vt 0.50102000 0.52869600
vt 0.48791000 0.52869600
vt 0.48791000 0.81582500
vt 0.50102000 0.79926400
vt 0.10217100 0.79926400
vt 0.11528600 0.81582500
vt 0.10217100 0.52869600
vt 0.11528600 0.52869600
vt 0.87047000 0.89218900
vt 0.87047000 0.13253600
vt 0.95060000 0.13253600
vt 0.95060000 0.98361200
vt 0.44975900 0.89218800
vt 0.36962900 0.98361200
vt 0.36962900 0.13253000
vt 0.44975900 0.13253000
vt 0.29252000 0.81588300
vt 0.30563000 0.81588300
vt 0.30563000 0.55362700
vt 0.29252000 0.52864300
vt 0.91993000 0.52864300
vt 0.90681600 0.55362700
vt 0.90681600 0.81588300
vt 0.91993000 0.81588300
vt 0.15410200 0.43520500
vt 0.15410200 0.05961871
vt 0.09160200 0.05961871
vt 0.09160200 0.43520500
vt 0.12334800 0.46796600
vt 0.12334800 0.03300822
vt 0.06085000 0.03300822
vt 0.06085000 0.46796600
vt 0.08366700 0.57415200
vt 0.08366700 0.94675642
vt 0.95867000 0.94675642
vt 0.95867000 0.57415200
vt 0.09574800 0.68457370
vt 0.10652900 0.62207310
vt 0.09574800 0.62207310
vt 0.10652900 0.67407690
vt 0.12543500 0.68457370
vt 0.20853400 0.62207310
vt 0.20853400 0.60332640
vt 0.10652900 0.60332640
vt 0.13554900 0.67407690
vt 0.13575700 0.74707080
vt 0.12543500 0.74707080
vt 0.20853400 0.74707200
vt 0.22164800 0.62207310
vt 0.22164800 0.74707200
vt 0.13575600 0.76582500
vt 0.20853300 0.76582500
vt 0.16867400 0.92398100
vt 0.16976200 0.09723600
vt 0.23226000 0.09723600
vt 0.23117300 0.92398100
vt 0.97335000 0.27206840
vt 0.97443000 0.39991500
vt 0.03693300 0.39989400
vt 0.03585100 0.27206840
vt 0.26586900 0.81586400
vt 0.26699900 0.52866200
vt 0.14200000 0.52866200
vt 0.14087000 0.81582000
vt 0.39403700 0.80672800
vt 0.41278700 0.80672100
vt 0.41166500 0.53607700
vt 0.39290900 0.53607700
vt 0.40215300 0.91492300
vt 0.38339600 0.91492300
vt 0.38230700 0.10454900
vt 0.40105700 0.10455800
vt 0.07141300 0.47936400
vt 0.09016200 0.47936400
vt 0.09016200 0.02374858
vt 0.07141300 0.02374798
vt 0.04493900 0.95851004
vt 0.02618800 0.95851004
vt 0.02618800 0.55968300
vt 0.04493900 0.55968300
vt 0.54764200 0.10458600
vt 0.56639100 0.10457900
vt 0.56530400 0.91489500
vt 0.54655100 0.91490100
vt 0.40374100 0.53609500
vt 0.38498800 0.53608900
vt 0.38386600 0.80671000
vt 0.40261500 0.80671700
vt 0.18053400 0.08386400
vt 0.19928500 0.08387100
vt 0.20036900 0.93482200
vt 0.18162500 0.93482200
vt 0.59255600 0.53984000
vt 0.57381200 0.53984000
vt 0.57493300 0.80209800
vt 0.59368400 0.80209200
vt 0.03523300 0.55968200
vt 0.05398300 0.55968200
vt 0.05398300 0.95851123
vt 0.03523300 0.95851123
vt 0.12091600 0.04995090
vt 0.10216500 0.04995090
vt 0.10216500 0.44710700
vt 0.12091600 0.44710700
vt 0.58285600 0.80210100
vt 0.60160600 0.80210700
vt 0.60272800 0.53983800
vt 0.58398100 0.53983100
vt 0.19153100 0.93481300
vt 0.17278400 0.93481900
vt 0.17386800 0.08388000
vt 0.19261800 0.08387400
vt 0.73954900 0.13627400
vt 0.75666400 0.13627400
vt 0.75754500 0.88758300
vt 0.74066200 0.88758300
vt 0.18259900 0.70677130
vt 0.19948200 0.70677130
vt 0.19948100 0.65586890
vt 0.18259800 0.65586890
vt 0.38491600 0.91659500
vt 0.36803400 0.91659500
vt 0.36889600 0.10631500
vt 0.38600700 0.10631500
vt 0.06310300 0.49142300
vt 0.08021400 0.49142300
vt 0.08021400 0.01395684
vt 0.06310300 0.01395684
vt 0.06212600 0.96830928
vt 0.04501100 0.96830928
vt 0.04501100 0.54761600
vt 0.06212600 0.54761600
vt 0.37559100 0.10625400
vt 0.39270100 0.10625400
vt 0.39356200 0.91665700
vt 0.37668100 0.91665700
vt 0.19164400 0.70677230
vt 0.20852700 0.70677230
vt 0.20852800 0.65586800
vt 0.19164400 0.65586800
vt 0.76398900 0.88759100
vt 0.74710800 0.88759100
vt 0.74798900 0.13626500
vt 0.76510400 0.13626500
vt 0.16714700 0.08374400
vt 0.18403400 0.08374400
vt 0.18317800 0.93495000
vt 0.16606300 0.93495000
vt 0.18152000 0.64024430
vt 0.16440500 0.64024430
vt 0.16440500 0.72037610
vt 0.18152000 0.72037610
vt 0.58068400 0.89213500
vt 0.56356600 0.89213500
vt 0.56268600 0.13258900
vt 0.57957000 0.13258900
vt 0.05416000 0.54759500
vt 0.07104400 0.54759500
vt 0.07104400 0.96833056
vt 0.05416000 0.96833056
vt 0.11084400 0.04014736
vt 0.09395600 0.04014736
vt 0.09395600 0.45917600
vt 0.11084400 0.45917600
vt 0.55624100 0.13262400
vt 0.57312500 0.13262400
vt 0.57224500 0.89209900
vt 0.55512700 0.89209900
vt 0.19056500 0.64024480
vt 0.17345000 0.64024480
vt 0.17345000 0.72037560
vt 0.19056600 0.72037560
vt 0.02604400 0.93487900
vt 0.00892800 0.93487900
vt 0.00807100 0.08381300
vt 0.02496100 0.08381300
vt 0.69322000 0.80669100
vt 0.70416000 0.79575300
vt 0.70416000 0.54705900
vt 0.69322000 0.53612100
vt 0.29437500 0.80668900
vt 0.75506000 0.54705900
vt 0.28343800 0.79575200
vt 0.76600000 0.53612100
vt 0.29437400 0.53611500
vt 0.75506000 0.73675400
vt 0.28343800 0.54705200
vt 0.76600000 0.72581700
vt 0.22159900 0.53611500
vt 0.23253500 0.73675600
vt 0.23253500 0.54705200
vt 0.22159900 0.72581800
vt 0.98520000 0.65321600
vt 0.97426000 0.64227900
vt 0.97426000 0.79107900
vt 0.98520000 0.80201600
vt 0.38229300 0.65321600
vt 0.89413000 0.79107900
vt 0.39323000 0.64227900
vt 0.88319000 0.80201600
vt 0.38229300 0.80201100
vt 0.89413000 0.55085900
vt 0.39323000 0.79107300
vt 0.88319000 0.53992200
vt 0.48429500 0.80201100
vt 0.47335700 0.55085800
vt 0.47335700 0.79107300
vt 0.48429500 0.53992200
vt 0.41980000 0.72541790
vt 0.53861000 0.72541790
vt 0.53861000 0.60660790
vt 0.41980000 0.60660790
vt 0.50295000 0.72541970
vt 0.50295000 0.60660870
vt 0.39023000 0.60660870
vt 0.39023000 0.72541970
vt 0.47338000 0.72542040
vt 0.47338000 0.60660880
vt 0.35457000 0.60660880
vt 0.35457000 0.72542040
vt 0.43772000 0.72542100
vt 0.43772000 0.60660850
vt 0.32500000 0.60660850
vt 0.32500000 0.72542100
vt 0.29308000 0.60660850
vt 0.29308000 0.72541910
vt 0.40580000 0.72541910
vt 0.40580000 0.60660850
vt 0.26116000 0.60661140
vt 0.26116000 0.72541800
vt 0.37388000 0.72541800
vt 0.37388000 0.60661140
vt 0.97824000 0.72556300
vt 0.97824000 0.71485900
vt 0.96494000 0.72556400
vt 0.07412100 0.71482400
vt 0.07412100 0.72552800
vt 0.08742700 0.72552900
vt 0.03300800 0.72553600
vt 0.03300800 0.71483300
vt 0.01970200 0.72553700
vt 0.12869100 0.71487300
vt 0.12869100 0.72557600
vt 0.14199800 0.72557700
vt 0.07412100 0.00389400
vt 0.07412100 0.01459700
vt 0.08742700 0.00389500
vt 0.97824000 0.00386300
vt 0.96494000 0.00386400
vt 0.97824000 0.01456700
vt 0.03300900 0.01458900
vt 0.03300900 0.00388500
vt 0.01970200 0.00388500
vt 0.12869100 0.00385000
vt 0.12869100 0.01455300
vt 0.14199800 0.00385000
vt 0.04664100 0.01456100
vt 0.05994600 0.00385600
vt 0.04664000 0.00385700
vt 0.00572300 0.00388900
vt 0.99242000 0.00388900
vt 0.00572300 0.01459300
vt 0.11471300 0.00388000
vt 0.10140600 0.00388100
vt 0.10140700 0.01458500
vt 0.04698800 0.00384200
vt 0.06029300 0.01454700
vt 0.06029400 0.00384300
vt 0.06029400 0.71486700
vt 0.04698800 0.72556900
vt 0.06029400 0.72557100
vt 0.10140600 0.72553400
vt 0.11471300 0.72553300
vt 0.10140600 0.71483000
vt 0.99242000 0.72552500
vt 0.00572300 0.72552600
vt 0.00572300 0.71482200
vt 0.04664000 0.72555600
vt 0.05994600 0.72555600
vt 0.04664000 0.71485300
vt 0.14358000 0.81223910
vt 0.14358000 0.87652970
vt 0.27506500 0.87652960
vt 0.27506500 0.81223910
vt 0.27506400 0.85073020
vt 0.27506400 0.78644050
vt 0.14358200 0.78644060
vt 0.14358200 0.85073020
vt 0.25386800 0.86308380
vt 0.25386800 0.70628600
vt 0.16477800 0.70628600
vt 0.16477800 0.86308390
vt 0.16478200 0.66428270
vt 0.16478200 0.82108180
vt 0.25386200 0.82108180
vt 0.25386200 0.66428270
vt 0.27769600 0.81647800
vt 0.31820400 0.81648300
vt 0.31820400 0.83374800
vt 0.27769600 0.83374200
vt 0.36012700 0.91169400
vt 0.28190700 0.91169400
vt 0.28190700 0.73853000
vt 0.36012700 0.73853000
vt 0.36497800 0.83372600
vt 0.32447100 0.83372800
vt 0.32447100 0.81649800
vt 0.36497800 0.81649400
vt 0.40690200 0.91168100
vt 0.32868200 0.91168500
vt 0.32868200 0.73854400
vt 0.40690200 0.73854200
vt 0.37124500 0.81647600
vt 0.41175300 0.81648100
vt 0.41175300 0.83375100
vt 0.37124500 0.83374500
vt 0.45367700 0.91167800
vt 0.37545700 0.91167800
vt 0.37545700 0.73854600
vt 0.45367700 0.73854600
vt 0.45852800 0.83372300
vt 0.41802100 0.83372500
vt 0.41802100 0.81650200
vt 0.45852800 0.81649700
vt 0.50045100 0.91169300
vt 0.42223100 0.91169700
vt 0.42223100 0.73853200
vt 0.50045100 0.73853000
vt 0.33858400 0.87170950
vt 0.33858400 0.93589660
vt 0.47007300 0.93589590
vt 0.47007300 0.87170870
vt 0.35978200 0.79316800
vt 0.35978100 0.94728310
vt 0.44887200 0.94728150
vt 0.44887200 0.79316720
vt 0.32906200 0.81294640
vt 0.32906200 0.86447850
vt 0.47959500 0.86447770
vt 0.47959500 0.81294560
vt 0.47006800 0.84710530
vt 0.47006800 0.78291700
vt 0.33858900 0.78291790
vt 0.33858900 0.84710620
vt 0.32906200 0.76554480
vt 0.32906200 0.81707600
vt 0.47959500 0.81707520
vt 0.47959500 0.76554410
vt 0.44887300 0.83779440
vt 0.44887300 0.68124330
vt 0.35978400 0.68124410
vt 0.35978400 0.83779530
vt 0.35978200 0.64079450
vt 0.35978200 0.79490910
vt 0.44887300 0.79490830
vt 0.44887300 0.64079370
vt 0.35978400 0.59790810
vt 0.35978400 0.75445960
vt 0.44887000 0.75445880
vt 0.44887000 0.59790730
vt 0.27506500 0.87652960
vt 0.14358000 0.87652970
vt 0.14358000 0.88903500
vt 0.27506500 0.88903650
vt 0.27506400 0.77393440
vt 0.14358200 0.77393450
vt 0.14358200 0.78644060
vt 0.27506400 0.78644050
vt 0.14358000 0.81223910
vt 0.27506500 0.81223910
vt 0.27506500 0.79973380
vt 0.14358000 0.79973160
vt 0.14358200 0.86323790
vt 0.27506400 0.86323780
vt 0.27506400 0.85073020
vt 0.14358200 0.85073020
vt 0.31820400 0.83374800
vt 0.31820400 0.81648300
vt 0.33170400 0.81648400
vt 0.33170400 0.83374900
vt 0.31097000 0.83372800
vt 0.31097000 0.81650000
vt 0.32447100 0.81649800
vt 0.32447100 0.83372800
vt 0.27769600 0.81647800
vt 0.27769600 0.83374200
vt 0.26419400 0.83374100
vt 0.26419400 0.81647600
vt 0.37847900 0.81649300
vt 0.37847900 0.83372500
vt 0.36497800 0.83372600
vt 0.36497800 0.81649400
vt 0.41175300 0.83375100
vt 0.41175300 0.81648100
vt 0.42525400 0.81648200
vt 0.42525400 0.83375200
vt 0.40452000 0.83372500
vt 0.40452000 0.81650300
vt 0.41802100 0.81650200
vt 0.41802100 0.83372500
vt 0.37124500 0.81647600
vt 0.37124500 0.83374500
vt 0.35774400 0.83374400
vt 0.35774400 0.81647400
vt 0.47202900 0.81649700
vt 0.47202900 0.83372200
vt 0.45852800 0.83372300
vt 0.45852800 0.81649700
vt 0.47959500 0.80292130
vt 0.32906200 0.80292210
vt 0.32906200 0.81294640
vt 0.47959500 0.81294560
vt 0.47959500 0.81707520
vt 0.32906200 0.81707600
vt 0.32906200 0.82710100
vt 0.47959500 0.82710020
vt 0.47007300 0.93589590
vt 0.33858400 0.93589660
vt 0.33858400 0.94838450
vt 0.47007300 0.94838370
vt 0.47006800 0.77042930
vt 0.33858900 0.77043010
vt 0.33858900 0.78291790
vt 0.47006800 0.78291700
vt 0.33858400 0.87170950
vt 0.47007300 0.87170870
vt 0.47007300 0.85922160
vt 0.33858400 0.85922240
vt 0.47959500 0.86447770
vt 0.32906200 0.86447850
vt 0.32906200 0.87450360
vt 0.47959500 0.87450280
vt 0.33858900 0.85959320
vt 0.47006800 0.85959240
vt 0.47006800 0.84710530
vt 0.33858900 0.84710620
vt 0.32906200 0.76554480
vt 0.47959500 0.76554410
vt 0.47959500 0.75551900
vt 0.32906200 0.75551980
vt 0.97824000 0.72556300
vt 0.04664000 0.72555600
vt 0.04664000 0.71485300
vt 0.97824000 0.71485900
vt 0.96494000 0.72556400
vt 0.96494000 0.00386400
vt 0.97824000 0.00386300
vt 0.97824000 0.72556300
vt 0.55631200 0.75383370
vt 0.55631300 0.58016260
vt 0.54301900 0.58016260
vt 0.54301900 0.75383310
vt 0.07412100 0.71482400
vt 0.00572300 0.71482200
vt 0.00572300 0.72552600
vt 0.07412100 0.72552800
vt 0.07412100 0.72552800
vt 0.07412100 0.00389400
vt 0.08742700 0.00389500
vt 0.08742700 0.72552900
vt 0.03300800 0.72553600
vt 0.10140600 0.72553400
vt 0.10140600 0.71483000
vt 0.03300800 0.71483300
vt 0.01970200 0.72553700
vt 0.01970200 0.00388500
vt 0.03300900 0.00388500
vt 0.03300800 0.72553600
vt 0.50224300 0.75351410
vt 0.50224300 0.58036750
vt 0.48895100 0.58036670
vt 0.48895100 0.75351410
vt 0.12869100 0.71487300
vt 0.06029400 0.71486700
vt 0.06029400 0.72557100
vt 0.12869100 0.72557600
vt 0.12869100 0.72557600
vt 0.12869100 0.00385000
vt 0.14199800 0.00385000
vt 0.14199800 0.72557700
vt 0.07412100 0.00389400
vt 0.00572300 0.00388900
vt 0.00572300 0.01459300
vt 0.07412100 0.01459700
vt 0.59761000 0.58016310
vt 0.59761000 0.75383280
vt 0.61090400 0.75383280
vt 0.61090400 0.58016310
vt 0.97824000 0.01456700
vt 0.04664100 0.01456100
vt 0.04664000 0.00385700
vt 0.97824000 0.00386300
vt 0.03300900 0.01458900
vt 0.10140700 0.01458500
vt 0.10140600 0.00388100
vt 0.03300900 0.00388500
vt 0.55683500 0.75351260
vt 0.55683500 0.58036910
vt 0.54354100 0.58036910
vt 0.54354100 0.75351260
vt 0.12869100 0.00385000
vt 0.06029400 0.00384300
vt 0.06029300 0.01454700
vt 0.12869100 0.01455300
vt 0.52927800 0.75383280
vt 0.52927900 0.58016310
vt 0.51598500 0.58016310
vt 0.51598500 0.75383280
vt 0.05994600 0.00385600
vt 0.05994600 0.72555600
vt 0.04664000 0.72555600
vt 0.04664000 0.00385700
vt 0.00572300 0.00388900
vt 0.00572300 0.72552600
vt 0.99242000 0.72552500
vt 0.99242000 0.00388900
vt 0.11471300 0.00388000
vt 0.11471300 0.72553300
vt 0.10140600 0.72553400
vt 0.10140600 0.00388100
vt 0.47520800 0.75351260
vt 0.47520800 0.58036740
vt 0.46191600 0.58036740
vt 0.46191600 0.75351260
vt 0.06029400 0.00384300
vt 0.06029400 0.72557100
vt 0.04698800 0.72556900
vt 0.04698800 0.00384200
vt 0.57057600 0.58036860
vt 0.57057600 0.75351410
vt 0.58387000 0.75351410
vt 0.58387000 0.58036860
vt 0.62464500 0.58016350
vt 0.62464500 0.75383310
vt 0.63793800 0.75383310
vt 0.63793800 0.58016260
vt 0.52927800 0.75383280
vt 0.59761000 0.75383280
vt 0.59761000 0.58016310
vt 0.52927900 0.58016310
vt 0.57057600 0.75351410
vt 0.57057600 0.58036860
vt 0.50224300 0.58036750
vt 0.50224300 0.75351410
vt 0.55631300 0.58016260
vt 0.55631200 0.75383370
vt 0.62464500 0.75383310
vt 0.62464500 0.58016350
vt 0.06029400 0.00384300
vt 0.12869100 0.00385000
vt 0.12869100 0.72557600
vt 0.06029400 0.72557100
vt 0.21402900 0.93859000
vt 0.21402800 0.78612000
vt 0.04686500 0.78612000
vt 0.04686500 0.93858700
vt 0.25854500 0.93857900
vt 0.25854400 0.78613100
vt 0.09188700 0.78613100
vt 0.09188700 0.93857900
vt 0.97824000 0.00386300
vt 0.04664000 0.00385700
vt 0.04664000 0.72555600
vt 0.97824000 0.72556300
vt 0.54354100 0.75351260
vt 0.54354100 0.58036910
vt 0.47520800 0.58036740
vt 0.47520800 0.75351260
vt 0.10140600 0.72553400
vt 0.03300800 0.72553600
vt 0.03300900 0.00388500
vt 0.10140600 0.00388100
vt 0.00572300 0.00388900
vt 0.07412100 0.00389400
vt 0.07412100 0.72552800
vt 0.00572300 0.72552600
vt 0.30337000 0.78612300
vt 0.13671300 0.78612600
vt 0.13671300 0.93858700
vt 0.30337100 0.93858600
vt 0.18134400 0.78612200
vt 0.18134400 0.93858600
vt 0.34850600 0.93858800
vt 0.34850600 0.78612300
vt 0.13523400 0.91935400
vt 0.06503800 0.91935400
vt 0.06503800 0.72632400
vt 0.13523400 0.72632400
vt 0.38664900 0.72632300
vt 0.38664700 0.91935400
vt 0.31645100 0.91935400
vt 0.31645100 0.72632300
vt 0.97214000 0.86125370
vt 0.95873200 0.86125370
vt 0.95873200 0.89584910
vt 0.97214000 0.89584910
vt 0.41021300 0.95601970
vt 0.38808300 0.93388960
vt 0.39456500 0.94953810
vt 0.40071800 0.93388960
vt 0.38808300 0.92047820
vt 0.40071800 0.92047820
vt 0.41021300 0.89834810
vt 0.39456500 0.90482970
vt 0.62026300 0.92010190
vt 0.62026300 0.93619460
vt 0.66221500 0.93619460
vt 0.66221500 0.92010190
vt 0.62026300 0.90630970
vt 0.66221500 0.90630970
vt 0.62026300 0.89021520
vt 0.66221500 0.89021520
vt 0.38839000 0.62473150
vt 0.37245700 0.66626300
vt 0.38839000 0.66626300
vt 0.37245700 0.62473150
vt 0.35880500 0.66626300
vt 0.35880500 0.62473150
vt 0.34287100 0.66626300
vt 0.34287100 0.62473150
vt 0.75789500 0.93619760
vt 0.71594000 0.92010350
vt 0.71594000 0.93619760
vt 0.75789500 0.92010350
vt 0.71594000 0.90631000
vt 0.75789500 0.90631000
vt 0.71594000 0.89021590
vt 0.75789500 0.89021590
vt 0.13797500 0.69168470
vt 0.15396200 0.65001240
vt 0.13797500 0.65001240
vt 0.15396200 0.69168470
vt 0.16766100 0.65001240
vt 0.16766100 0.69168470
vt 0.18364800 0.65001240
vt 0.18364800 0.69168470
vt 0.15396200 0.65001240
vt 0.16766100 0.65001240
vt 0.16766100 0.60490520
vt 0.15396200 0.60490520
vt 0.09162400 0.34760360
vt 0.04746700 0.34747530
vt 0.04746700 0.40514930
vt 0.12622100 0.40502110
vt 0.12622100 0.14964800
vt 0.09162400 0.14964800
vt 0.37245700 0.66626300
vt 0.35880500 0.66626300
vt 0.35880500 0.74644150
vt 0.37245700 0.74644150
vt 0.25830700 0.34760450
vt 0.30246200 0.40514950
vt 0.30246200 0.34747620
vt 0.22370900 0.40502210
vt 0.22370900 0.14965140
vt 0.25830700 0.14965140
vt 0.78680800 0.31435570
vt 0.80021900 0.31435570
vt 0.80021900 0.11638920
vt 0.78680800 0.11638920
vt 0.71409300 0.40494320
vt 0.72750500 0.40494660
vt 0.72750500 0.14958530
vt 0.71409300 0.14958530
vt 0.90522300 0.65769710
vt 0.87971600 0.51201080
vt 0.87971600 0.65769710
vt 0.90522300 0.51201080
vt 0.91906300 0.65769710
vt 0.91906300 0.51201080
vt 0.94457000 0.65769710
vt 0.94457000 0.51201080
vt 0.77754500 0.63606860
vt 0.80305300 0.78175520
vt 0.80305300 0.63606860
vt 0.77754500 0.78175520
vt 0.76370800 0.63606860
vt 0.76370800 0.78175520
vt 0.73820000 0.63606860
vt 0.73820000 0.78175520
vt 0.63603300 0.63606860
vt 0.66154100 0.78175430
vt 0.66154100 0.63606860
vt 0.63603300 0.78175430
vt 0.62219300 0.63606860
vt 0.62219300 0.78175430
vt 0.59668500 0.63606860
vt 0.59668500 0.78175430
vt 0.48067600 0.78175300
vt 0.45516700 0.63606900
vt 0.45516700 0.78175300
vt 0.48067600 0.63606900
vt 0.49451300 0.78175300
vt 0.49451300 0.63606900
vt 0.52002100 0.78175300
vt 0.52002100 0.63606900
vt 0.93721100 0.89584780
vt 0.93721100 0.86125140
vt 0.92379900 0.86125140
vt 0.92379900 0.89584780
vt 0.49907200 0.95601590
vt 0.51472000 0.94953450
vt 0.52120100 0.93388580
vt 0.50856700 0.93388580
vt 0.52120100 0.92047470
vt 0.50856700 0.92047470
vt 0.49907200 0.89834450
vt 0.51472000 0.90482600
vt 0.85356800 0.92010580
vt 0.81161800 0.93619890
vt 0.85356800 0.93619890
vt 0.81161800 0.92010580
vt 0.85356800 0.90631320
vt 0.81161800 0.90631320
vt 0.85356800 0.89021830
vt 0.81161800 0.89021830
vt 0.28598000 0.74642820
vt 0.28598000 0.70489920
vt 0.27004700 0.70489920
vt 0.27004700 0.74642820
vt 0.25639400 0.70489920
vt 0.25639400 0.74642820
vt 0.24046100 0.70489920
vt 0.24046100 0.74642820
vt 0.90729800 0.81213690
vt 0.94924700 0.81213690
vt 0.94924700 0.79604330
vt 0.90729800 0.79604330
vt 0.94924700 0.78225060
vt 0.90729800 0.78225060
vt 0.94924700 0.76615700
vt 0.90729800 0.76615700
vt 0.03556900 0.60489710
vt 0.03556900 0.64656660
vt 0.05155500 0.64656660
vt 0.05155500 0.60489710
vt 0.06525500 0.64656660
vt 0.06525500 0.60489710
vt 0.08124100 0.64656660
vt 0.08124100 0.60489710
vt 0.05155500 0.64656660
vt 0.05155500 0.69167080
vt 0.06525500 0.69167080
vt 0.06525500 0.64656660
vt 0.43434800 0.34760180
vt 0.47850000 0.40514620
vt 0.47850000 0.34747350
vt 0.39975400 0.40501790
vt 0.39975400 0.14965110
vt 0.43434800 0.14965110
vt 0.27004700 0.70489920
vt 0.27004700 0.62472650
vt 0.25639400 0.62472650
vt 0.25639400 0.70489920
vt 0.61995300 0.34760510
vt 0.57580100 0.34747730
vt 0.57580100 0.40515040
vt 0.65454800 0.40502250
vt 0.65454800 0.14965290
vt 0.61995300 0.14965250
vt 0.83657600 0.31434760
vt 0.83657600 0.11639910
vt 0.82316600 0.11639910
vt 0.82316600 0.31434760
vt 0.76386100 0.40494800
vt 0.76386100 0.14957640
vt 0.75045000 0.14957640
vt 0.75045000 0.40494800
vt 0.45922500 0.94954230
vt 0.46570600 0.93389470
vt 0.45300700 0.93389470
vt 0.44357700 0.95602380
vt 0.44357700 0.89835150
vt 0.45300700 0.92048390
vt 0.46570600 0.92048390
vt 0.45922500 0.90483620
vt 0.56104700 0.94953720
vt 0.57669500 0.95601890
vt 0.56726600 0.93388780
vt 0.55456400 0.93388780
vt 0.57669500 0.89834510
vt 0.56726600 0.92047630
vt 0.55456400 0.92047630
vt 0.56104700 0.90482690
vt 0.13343800 0.82690230
vt 0.12319900 0.80218460
vt 0.11413000 0.81125500
vt 0.12061100 0.82690230
vt 0.09848300 0.80477370
vt 0.13343800 0.84031290
vt 0.09848300 0.79194460
vt 0.12061100 0.84031290
vt 0.08507100 0.80477370
vt 0.12319900 0.86503050
vt 0.08507100 0.79194460
vt 0.11413000 0.85596020
vt 0.06942400 0.81125500
vt 0.09848300 0.87526710
vt 0.06035400 0.80218460
vt 0.09848300 0.86244150
vt 0.06294300 0.82690230
vt 0.08507100 0.87526710
vt 0.05011600 0.82690230
vt 0.08507100 0.86244150
vt 0.06294300 0.84031290
vt 0.06035400 0.86503050
vt 0.05011600 0.84031290
vt 0.06942400 0.85596020
vt 0.27088000 0.94984800
vt 0.27088000 0.93702150
vt 0.25523200 0.93054040
vt 0.28429000 0.94984800
vt 0.24616200 0.93960980
vt 0.28429000 0.93702150
vt 0.24875200 0.91489220
vt 0.30900800 0.93960980
vt 0.23592400 0.91489220
vt 0.29993700 0.93054040
vt 0.24875200 0.90148260
vt 0.31924600 0.91489220
vt 0.23592400 0.90148260
vt 0.30641900 0.91489220
vt 0.25523200 0.88583450
vt 0.31924600 0.90148260
vt 0.24616200 0.87676510
vt 0.30641900 0.90148260
vt 0.27088000 0.87935330
vt 0.30900800 0.87676510
vt 0.27088000 0.86652590
vt 0.29993700 0.88583450
vt 0.28429000 0.87935330
vt 0.28429000 0.86652590
f 3/3 2/2 1/1
f 4/4 3/3 1/1
f 1/1 5/5 4/4
f 3/3 4/4 6/6
f 6/6 7/7 3/3
f 7/7 8/8 3/3
f 5/5 9/9 4/4
f 4/4 9/9 6/6
f 9/9 5/5 10/10
f 9/9 10/10 6/6
f 5/5 11/11 10/10
f 10/10 12/12 6/6
f 6/6 12/12 13/13
f 12/12 14/14 13/13
f 10/10 15/15 12/12
f 15/15 16/16 12/12
f 19/19 18/18 17/17
f 18/18 20/20 17/17
f 20/20 21/21 17/17
f 21/21 22/22 17/17
f 21/21 23/23 22/22
f 23/23 24/24 22/22
f 27/27 26/26 25/25
f 28/28 27/27 25/25
f 25/25 29/29 28/28
f 29/29 30/30 28/28
f 29/29 31/31 30/30
f 31/31 32/32 30/30
f 35/35 34/34 33/33
f 36/36 35/35 33/33
f 39/39 38/38 37/37
f 40/40 39/39 37/37
f 37/37 41/41 40/40
f 41/41 42/42 40/40
f 43/43 42/42 41/41
f 44/44 43/43 41/41
f 47/47 46/46 45/45
f 48/48 47/47 45/45
f 51/51 50/50 49/49
f 52/52 51/51 49/49
f 52/52 53/53 51/51
f 53/53 54/54 51/51
f 55/55 54/54 53/53
f 56/56 55/55 53/53
f 59/59 58/58 57/57
f 60/60 59/59 57/57
f 63/63 62/62 61/61
f 64/64 63/63 61/61
f 64/64 65/65 63/63
f 65/65 66/66 63/63
f 65/65 67/67 66/66
f 67/67 68/68 66/66
f 71/71 70/70 69/69
f 72/72 71/71 69/69
f 69/69 73/73 72/72
f 73/73 74/74 72/72
f 75/75 74/74 73/73
f 76/76 75/75 73/73
f 79/79 78/78 77/77
f 80/80 79/79 77/77
f 80/80 81/81 79/79
f 81/81 82/82 79/79
f 83/83 82/82 81/81
f 84/84 83/83 81/81
f 87/87 86/86 85/85
f 88/88 87/87 85/85
f 91/91 90/90 89/89
f 92/92 91/91 89/89
f 95/95 94/94 93/93
f 96/96 95/95 93/93
f 99/99 98/98 97/97
f 98/98 100/100 97/97
f 101/101 97/97 100/100
f 100/100 98/98 102/102
f 102/102 98/98 103/103
f 98/98 104/104 103/103
f 105/105 101/101 100/100
f 105/105 100/100 102/102
f 101/101 105/105 106/106
f 106/106 105/105 102/102
f 107/107 101/101 106/106
f 108/108 106/106 102/102
f 108/108 102/102 109/109
f 110/110 108/108 109/109
f 106/106 108/108 111/111
f 108/108 112/112 111/111
f 115/115 114/114 113/113
f 116/116 115/115 113/113
f 119/119 118/118 117/117
f 120/120 119/119 117/117
f 123/123 122/122 121/121
f 124/124 123/123 121/121
f 127/127 126/126 125/125
f 128/128 127/127 125/125
f 131/131 130/130 129/129
f 132/132 131/131 129/129
f 135/135 134/134 133/133
f 136/136 135/135 133/133
f 139/139 138/138 137/137
f 140/140 139/139 137/137
f 143/143 142/142 141/141
f 144/144 143/143 141/141
f 147/147 146/146 145/145
f 148/148 147/147 145/145
f 151/151 150/150 149/149
f 152/152 151/151 149/149
f 155/155 154/154 153/153
f 156/156 155/155 153/153
f 159/159 158/158 157/157
f 160/160 159/159 157/157
f 163/163 162/162 161/161
f 164/164 163/163 161/161
f 167/167 166/166 165/165
f 168/168 167/167 165/165
f 171/171 170/170 169/169
f 172/172 171/171 169/169
f 175/175 174/174 173/173
f 176/176 175/175 173/173
f 179/179 178/178 177/177
f 180/180 179/179 177/177
f 183/183 182/182 181/181
f 184/184 183/183 181/181
f 187/187 186/186 185/185
f 188/188 187/187 185/185
f 191/191 190/190 189/189
f 192/192 191/191 189/189
f 195/195 194/194 193/193
f 196/196 195/195 193/193
f 199/199 198/198 197/197
f 200/200 199/199 197/197
f 203/203 202/202 201/201
f 204/204 203/203 201/201
f 207/207 206/206 205/205
f 208/208 207/207 205/205
f 211/211 210/210 209/209
f 212/212 211/211 209/209
f 215/215 214/214 213/213
f 216/216 215/215 213/213
f 219/219 218/218 217/217
f 220/220 219/219 217/217
f 223/223 222/222 221/221
f 224/224 223/223 221/221
f 227/227 226/226 225/225
f 228/228 227/227 225/225
f 231/231 230/230 229/229
f 232/232 231/231 229/229
f 235/235 234/234 233/233
f 236/236 235/235 233/233
f 239/239 238/238 237/237
f 240/240 239/239 237/237
f 237/237 238/238 241/241
f 242/242 239/239 240/240
f 238/238 243/243 241/241
f 244/244 242/242 240/240
f 241/241 243/243 245/245
f 246/246 242/242 244/244
f 243/243 247/247 245/245
f 248/248 246/246 244/244
f 245/245 247/247 249/249
f 250/250 246/246 248/248
f 247/247 251/251 249/249
f 252/252 250/250 248/248
f 249/249 251/251 252/252
f 251/251 250/250 252/252
f 255/255 254/254 253/253
f 256/256 255/255 253/253
f 253/253 254/254 257/257
f 258/258 255/255 256/256
f 254/254 259/259 257/257
f 260/260 258/258 256/256
f 257/257 259/259 261/261
f 262/262 258/258 260/260
f 259/259 263/263 261/261
f 264/264 262/262 260/260
f 261/261 263/263 265/265
f 266/266 262/262 264/264
f 263/263 267/267 265/265
f 268/268 266/266 264/264
f 265/265 267/267 268/268
f 267/267 266/266 268/268
f 271/271 270/270 269/269
f 272/272 271/271 269/269
f 275/275 274/274 273/273
f 276/276 275/275 273/273
f 279/279 278/278 277/277
f 280/280 279/279 277/277
f 283/283 282/282 281/281
f 284/284 283/283 281/281
f 287/287 286/286 285/285
f 288/288 287/287 285/285
f 291/291 290/290 289/289
f 292/292 291/291 289/289
f 295/295 294/294 293/293
f 298/298 297/297 296/296
f 301/301 300/300 299/299
f 304/304 303/303 302/302
f 307/307 306/306 305/305
f 310/310 309/309 308/308
f 313/313 312/312 311/311
f 316/316 315/315 314/314
f 319/319 318/318 317/317
f 322/322 321/321 320/320
f 325/325 324/324 323/323
f 328/328 327/327 326/326
f 331/331 330/330 329/329
f 334/334 333/333 332/332
f 337/337 336/336 335/335
f 340/340 339/339 338/338
f 343/343 342/342 341/341
f 344/344 343/343 341/341
f 347/347 346/346 345/345
f 348/348 347/347 345/345
f 351/351 350/350 349/349
f 352/352 351/351 349/349
f 355/355 354/354 353/353
f 356/356 355/355 353/353
f 359/359 358/358 357/357
f 360/360 359/359 357/357
f 363/363 362/362 361/361
f 364/364 363/363 361/361
f 367/367 366/366 365/365
f 368/368 367/367 365/365
f 371/371 370/370 369/369
f 372/372 371/371 369/369
f 375/375 374/374 373/373
f 376/376 375/375 373/373
f 379/379 378/378 377/377
f 380/380 379/379 377/377
f 383/383 382/382 381/381
f 384/384 383/383 381/381
f 387/387 386/386 385/385
f 388/388 387/387 385/385
f 391/391 390/390 389/389
f 392/392 391/391 389/389
f 395/395 394/394 393/393
f 396/396 395/395 393/393
f 399/399 398/398 397/397
f 400/400 399/399 397/397
f 403/403 402/402 401/401
f 404/404 403/403 401/401
f 407/407 406/406 405/405
f 408/408 407/407 405/405
f 411/411 410/410 409/409
f 412/412 411/411 409/409
f 415/415 414/414 413/413
f 416/416 415/415 413/413
f 419/419 418/418 417/417
f 420/420 419/419 417/417
f 423/423 422/422 421/421
f 424/424 423/423 421/421
f 427/427 426/426 425/425
f 428/428 427/427 425/425
f 431/431 430/430 429/429
f 432/432 431/431 429/429
f 435/435 434/434 433/433
f 436/436 435/435 433/433
f 439/439 438/438 437/437
f 440/440 439/439 437/437
f 443/443 442/442 441/441
f 444/444 443/443 441/441
f 447/447 446/446 445/445
f 448/448 447/447 445/445
f 451/451 450/450 449/449
f 452/452 451/451 449/449
f 455/455 454/454 453/453
f 456/456 455/455 453/453
f 459/459 458/458 457/457
f 460/460 459/459 457/457
f 463/463 462/462 461/461
f 464/464 463/463 461/461
f 467/467 466/466 465/465
f 468/468 467/467 465/465
f 471/471 470/470 469/469
f 472/472 471/471 469/469
f 475/475 474/474 473/473
f 476/476 475/475 473/473
f 479/479 478/478 477/477
f 480/480 479/479 477/477
f 483/483 482/482 481/481
f 484/484 483/483 481/481
f 487/487 486/486 485/485
f 488/488 487/487 485/485
f 491/491 490/490 489/489
f 492/492 491/491 489/489
f 495/495 494/494 493/493
f 496/496 495/495 493/493
f 499/499 498/498 497/497
f 500/500 499/499 497/497
f 503/503 502/502 501/501
f 504/504 503/503 501/501
f 507/507 506/506 505/505
f 508/508 507/507 505/505
f 511/511 510/510 509/509
f 512/512 511/511 509/509
f 515/515 514/514 513/513
f 516/516 515/515 513/513
f 519/519 518/518 517/517
f 520/520 519/519 517/517
f 523/523 522/522 521/521
f 524/524 523/523 521/521
f 527/527 526/526 525/525
f 528/528 527/527 525/525
f 531/531 530/530 529/529
f 532/532 531/531 529/529
f 535/535 534/534 533/533
f 536/536 535/535 533/533
f 539/539 538/538 537/537
f 540/540 539/539 537/537
f 543/543 542/542 541/541
f 544/544 543/543 541/541
f 547/547 546/546 545/545
f 548/548 547/547 545/545
f 551/551 550/550 549/549
f 552/552 551/551 549/549
f 555/555 554/554 553/553
f 556/556 555/555 553/553
f 559/559 558/558 557/557
f 560/560 559/559 557/557
f 563/563 562/562 561/561
f 564/564 563/563 561/561
f 567/567 566/566 565/565
f 568/568 567/567 565/565
f 571/571 570/570 569/569
f 572/572 571/571 569/569
f 575/575 574/574 573/573
f 576/576 575/575 573/573
f 579/579 578/578 577/577
f 580/580 579/579 577/577
f 583/583 582/582 581/581
f 584/584 583/583 581/581
f 587/587 586/586 585/585
f 588/588 587/587 585/585
f 591/591 590/590 589/589
f 592/592 591/591 589/589
f 595/595 594/594 593/593
f 596/596 595/595 593/593
f 599/599 598/598 597/597
f 600/600 599/599 597/597
f 603/603 602/602 601/601
f 604/604 603/603 601/601
f 607/607 606/606 605/605
f 608/608 607/607 605/605
f 611/611 610/610 609/609
f 612/612 611/611 609/609
f 615/615 614/614 613/613
f 616/616 615/615 613/613
f 619/619 618/618 617/617
f 620/620 619/619 617/617
f 623/623 622/622 621/621
f 624/624 623/623 621/621
f 627/627 626/626 625/625
f 628/628 627/627 625/625
f 631/631 630/630 629/629
f 632/632 631/631 629/629
f 635/635 634/634 633/633
f 636/636 635/635 633/633
f 639/639 638/638 637/637
f 640/640 639/639 637/637
f 643/643 642/642 641/641
f 644/644 643/643 641/641
f 647/647 646/646 645/645
f 648/648 647/647 645/645
f 651/651 650/650 649/649
f 652/652 651/651 649/649
f 655/655 654/654 653/653
f 656/656 655/655 653/653
f 659/659 658/658 657/657
f 658/658 660/660 657/657
f 660/660 658/658 661/661
f 660/660 662/662 657/657
f 662/662 660/660 661/661
f 662/662 663/663 657/657
f 661/661 664/664 662/662
f 664/664 663/663 662/662
f 667/667 666/666 665/665
f 668/668 667/667 665/665
f 668/668 665/665 669/669
f 670/670 668/668 669/669
f 670/670 669/669 671/671
f 672/672 670/670 671/671
f 675/675 674/674 673/673
f 674/674 676/676 673/673
f 674/674 677/677 676/676
f 677/677 678/678 676/676
f 677/677 679/679 678/678
f 679/679 680/680 678/678
f 683/683 682/682 681/681
f 682/682 684/684 681/681
f 682/682 685/685 684/684
f 685/685 686/686 684/684
f 685/685 687/687 686/686
f 687/687 688/688 686/686
f 691/691 690/690 689/689
f 690/690 692/692 689/689
f 690/690 693/693 692/692
f 693/693 694/694 692/692
f 693/693 695/695 694/694
f 695/695 696/696 694/694
f 699/699 698/698 697/697
f 700/700 699/699 697/697
f 703/703 702/702 701/701
f 704/704 703/703 701/701
f 704/704 701/701 705/705
f 701/701 706/706 705/705
f 709/709 708/708 707/707
f 710/710 709/709 707/707
f 713/713 712/712 711/711
f 712/712 714/714 711/711
f 711/711 714/714 715/715
f 716/716 711/711 715/715
f 719/719 718/718 717/717
f 720/720 719/719 717/717
f 723/723 722/722 721/721
f 724/724 723/723 721/721
f 727/727 726/726 725/725
f 726/726 728/728 725/725
f 725/725 728/728 729/729
f 728/728 730/730 729/729
f 729/729 730/730 731/731
f 730/730 732/732 731/731
f 735/735 734/734 733/733
f 734/734 736/736 733/733
f 733/733 736/736 737/737
f 736/736 738/738 737/737
f 737/737 738/738 739/739
f 738/738 740/740 739/739
f 743/743 742/742 741/741
f 742/742 744/744 741/741
f 741/741 744/744 745/745
f 744/744 746/746 745/745
f 745/745 746/746 747/747
f 746/746 748/748 747/747
f 751/751 750/750 749/749
f 750/750 752/752 749/749
f 749/749 752/752 753/753
f 752/752 754/754 753/753
f 753/753 754/754 755/755
f 754/754 756/756 755/755
f 759/759 758/758 757/757
f 760/760 759/759 757/757
f 763/763 762/762 761/761
f 764/764 763/763 761/761
f 763/763 764/764 765/765
f 766/766 764/764 761/761
f 764/764 766/766 765/765
f 767/767 766/766 761/761
f 768/768 765/765 766/766
f 767/767 768/768 766/766
f 771/771 770/770 769/769
f 770/770 772/772 769/769
f 769/769 772/772 773/773
f 772/772 774/774 773/773
f 773/773 774/774 775/775
f 774/774 776/776 775/775
f 779/779 778/778 777/777
f 780/780 779/779 777/777
f 781/781 779/779 780/780
f 782/782 781/781 780/780
f 783/783 781/781 782/782
f 784/784 783/783 782/782
f 787/787 786/786 785/785
f 788/788 787/787 785/785
f 789/789 787/787 788/788
f 790/790 789/789 788/788
f 791/791 789/789 790/790
f 792/792 791/791 790/790
f 795/795 794/794 793/793
f 796/796 795/795 793/793
f 797/797 795/795 796/796
f 798/798 797/797 796/796
f 799/799 797/797 798/798
f 800/800 799/799 798/798
f 803/803 802/802 801/801
f 804/804 803/803 801/801
f 807/807 806/806 805/805
f 806/806 808/808 805/805
f 805/805 808/808 809/809
f 810/810 805/805 809/809
f 813/813 812/812 811/811
f 814/814 813/813 811/811
f 817/817 816/816 815/815
f 818/818 817/817 815/815
f 818/818 815/815 819/819
f 815/815 820/820 819/819
f 823/823 822/822 821/821
f 824/824 823/823 821/821
f 827/827 826/826 825/825
f 828/828 827/827 825/825
f 831/831 830/830 829/829
f 832/832 831/831 829/829
f 831/831 832/832 833/833
f 830/830 831/831 834/834
f 834/834 831/831 833/833
f 835/835 830/830 834/834
f 833/833 836/836 834/834
f 836/836 835/835 834/834
f 839/839 838/838 837/837
f 840/840 839/839 837/837
f 838/838 839/839 841/841
f 839/839 840/840 842/842
f 839/839 842/842 841/841
f 840/840 843/843 842/842
f 844/844 841/841 842/842
f 843/843 844/844 842/842
f 847/847 846/846 845/845
f 848/848 847/847 845/845
f 847/847 849/849 846/846
f 848/848 845/845 850/850
f 849/849 851/851 846/846
f 852/852 848/848 850/850
f 849/849 853/853 851/851
f 852/852 850/850 854/854
f 853/853 855/855 851/851
f 856/856 852/852 854/854
f 853/853 857/857 855/855
f 856/856 854/854 858/858
f 857/857 859/859 855/855
f 860/860 856/856 858/858
f 857/857 861/861 859/859
f 860/860 858/858 862/862
f 861/861 863/863 859/859
f 864/864 860/860 862/862
f 861/861 865/865 863/863
f 864/864 862/862 866/866
f 865/865 867/867 863/863
f 868/868 864/864 866/866
f 868/868 866/866 867/867
f 865/865 868/868 867/867
f 871/871 870/870 869/869
f 869/869 870/870 872/872
f 873/873 871/871 869/869
f 870/870 874/874 872/872
f 875/875 871/871 873/873
f 872/872 874/874 876/876
f 877/877 875/875 873/873
f 874/874 878/878 876/876
f 879/879 875/875 877/877
f 876/876 878/878 880/880
f 881/881 879/879 877/877
f 878/878 882/882 880/880
f 883/883 879/879 881/881
f 880/880 882/882 884/884
f 885/885 883/883 881/881
f 882/882 886/886 884/884
f 887/887 883/883 885/885
f 884/884 886/886 888/888
f 889/889 887/887 885/885
f 886/886 890/890 888/888
f 891/891 887/887 889/889
f 888/888 890/890 892/892
f 892/892 891/891 889/889
f 890/890 891/891 892/892