mtllib material.mtl
usemtl material_0
v -0.08502811 -0.00373610 0.00160225
v -0.09996216 -0.00106984 0.00006288
v -0.09996216 -0.00061768 0.00051505
v -0.08502811 -0.00215703 0.00318132
v -0.09996216 -0.00000002 0.00068056
v -0.08447114 -0.00385862 0.00167299
v -0.08502811 0.00000000 0.00375929
v -0.09996216 0.00061765 0.00051505
v -0.08502811 0.00215704 0.00318132
v -0.08447114 -0.00222777 0.00330385
v -0.08447114 0.00000000 0.00390077
v -0.08447114 0.00222778 0.00330385
v 0.07375062 0.00222778 0.00330385
v 0.07375067 0.00000000 0.00390077
v 0.07430866 0.00222778 0.00330385
v 0.07375067 -0.00222777 0.00330385
v 0.07375067 -0.00385862 0.00167299
v 0.07430871 0.00000000 0.00390077
v 0.07430871 -0.00222777 0.00330385
v 0.07430871 -0.00385862 0.00167299
v 0.07440457 -0.00379902 0.00163860
v 0.07440457 -0.00219336 0.00324425
v 0.07450043 -0.00385862 0.00167299
v 0.07440457 0.00000001 0.00383196
v 0.07440452 0.00219337 0.00324425
v 0.07450043 -0.00222777 0.00330385
v 0.07459360 -0.00385862 0.00167299
v 0.07450043 0.00000001 0.00390077
v 0.07450037 0.00222778 0.00330385
v 0.07459360 -0.00222777 0.00330385
v 0.07609802 -0.00385861 0.00167299
v 0.07609802 -0.00222777 0.00330385
v 0.07622671 -0.00385861 0.00167299
v 0.07622671 -0.00222777 0.00330385
v -0.08502811 -0.00215703 -0.00429088
v -0.09996216 -0.00061768 -0.00162460
v -0.09996216 -0.00106984 -0.00117244
v -0.08502811 -0.00373609 -0.00271182
v -0.09996215 -0.00123535 -0.00055478
v -0.08447114 -0.00222777 -0.00441341
v -0.08502807 -0.00431407 -0.00055478
v -0.09996216 -0.00106984 0.00006288
v -0.08502811 -0.00373610 0.00160225
v -0.08447114 -0.00385862 -0.00278256
v -0.08447109 -0.00445555 -0.00055478
v -0.08447114 -0.00385862 0.00167299
v 0.07375067 -0.00385862 0.00167299
v 0.07375067 -0.00445555 -0.00055478
v 0.07430871 -0.00385862 0.00167299
v 0.07375067 -0.00385862 -0.00278256
v 0.07375067 -0.00222777 -0.00441341
v 0.07430871 -0.00445555 -0.00055478
v 0.07430871 -0.00385862 -0.00278256
v 0.07430871 -0.00222777 -0.00441341
v 0.07440457 -0.00219336 -0.00435381
v 0.07440457 -0.00379902 -0.00274815
v 0.07450043 -0.00222777 -0.00441341
v 0.07440457 -0.00438673 -0.00055478
v 0.07440457 -0.00379902 0.00163860
v 0.07450043 -0.00385862 -0.00278256
v 0.07459360 -0.00222777 -0.00441341
v 0.07450043 -0.00445555 -0.00055478
v 0.07450043 -0.00385862 0.00167299
v 0.07459360 -0.00385862 -0.00278256
v 0.07609802 -0.00222777 -0.00441341
v 0.07459360 -0.00445555 -0.00055478
v 0.07459360 -0.00385862 0.00167299
v 0.07609802 -0.00385861 -0.00278256
v 0.07622671 -0.00222777 -0.00441341
v 0.07622671 -0.00385861 -0.00278256
v 0.07609802 -0.00445554 -0.00055478
v 0.07609802 -0.00385861 0.00167299
v 0.07622671 -0.00445554 -0.00055478
v 0.07622671 -0.00385861 0.00167299
v -0.08502811 0.00373611 -0.00271181
v -0.09996216 0.00106981 -0.00117244
v -0.09996216 0.00061765 -0.00162460
v -0.08502811 0.00215704 -0.00429088
v -0.09996216 -0.00000002 -0.00179010
v -0.08447114 0.00385863 -0.00278256
v -0.08502811 0.00000001 -0.00486885
v -0.09996216 -0.00061768 -0.00162460
v -0.08502811 -0.00215703 -0.00429088
v -0.08447114 0.00222779 -0.00441341
v -0.08447114 0.00000001 -0.00501033
v -0.08447114 -0.00222777 -0.00441341
v 0.07375067 -0.00222777 -0.00441341
v 0.07375062 0.00000001 -0.00501033
v 0.07430871 -0.00222777 -0.00441341
v 0.07375062 0.00222779 -0.00441341
v 0.07375062 0.00385863 -0.00278256
v 0.07430866 0.00000001 -0.00501033
v 0.07430866 0.00222779 -0.00441341
v 0.07430866 0.00385863 -0.00278256
v 0.07440452 0.00379903 -0.00274815
v 0.07440452 0.00219338 -0.00435381
v 0.07450037 0.00385863 -0.00278256
v 0.07440452 0.00000001 -0.00494151
v 0.07440457 -0.00219336 -0.00435381
v 0.07450037 0.00222779 -0.00441341
v 0.07459354 0.00385863 -0.00278256
v 0.07450037 0.00000001 -0.00501033
v 0.07450043 -0.00222777 -0.00441341
v 0.07459354 0.00222779 -0.00441341
v 0.07609797 0.00385864 -0.00278256
v 0.07459354 0.00000001 -0.00501033
v 0.07459360 -0.00222777 -0.00441341
v 0.07609797 0.00222779 -0.00441341
v 0.07622666 0.00385864 -0.00278256
v 0.07622666 0.00222779 -0.00441341
v 0.07609797 0.00000001 -0.00501033
v 0.07609802 -0.00222777 -0.00441341
v 0.07622666 0.00000001 -0.00501033
v 0.07622671 -0.00222777 -0.00441341
v -0.08502811 0.00215704 0.00318132
v -0.09996216 0.00061765 0.00051505
v -0.09996216 0.00106981 0.00006288
v -0.08502811 0.00373610 0.00160226
v -0.09996216 0.00123531 -0.00055478
v -0.08447114 0.00222778 0.00330385
v -0.08502811 0.00431408 -0.00055478
v -0.09996216 0.00106981 -0.00117244
v -0.08502811 0.00373611 -0.00271181
v -0.08447114 0.00385863 0.00167300
v -0.08447114 0.00445556 -0.00055478
v -0.08447114 0.00385863 -0.00278256
v 0.07375062 0.00385863 -0.00278256
v 0.07375062 0.00445556 -0.00055478
v 0.07430866 0.00385863 -0.00278256
v 0.07375062 0.00385863 0.00167300
v 0.07375062 0.00222778 0.00330385
v 0.07430866 0.00445556 -0.00055478
v 0.07430866 0.00385863 0.00167300
v 0.07430866 0.00222778 0.00330385
v 0.07440452 0.00219337 0.00324425
v 0.07440452 0.00379903 0.00163860
v 0.07450037 0.00222778 0.00330385
v 0.07440452 0.00438674 -0.00055478
v 0.07440452 0.00379903 -0.00274815
v 0.07450037 0.00385863 0.00167300
v 0.07450037 0.00445556 -0.00055478
v 0.07450037 0.00385863 -0.00278256
v 0.07459354 0.00222779 0.00330385
v 0.07450037 0.00222778 0.00472191
v 0.07459354 0.00445556 -0.00055478
v 0.07459354 0.00385863 -0.00278256
v 0.07459354 0.00385863 0.00167300
v 0.07609797 0.00445557 -0.00055478
v 0.07609797 0.00385864 -0.00278256
v 0.07609797 0.00385864 0.00167300
v 0.07622666 0.00445557 -0.00055478
v 0.07622666 0.00385864 -0.00278256
v 0.07622666 0.00385864 0.00167300
v 0.07622666 0.00222779 0.00330385
v 0.07609797 0.00222779 0.00330385
v 0.07459354 0.00222778 0.00468831
v 0.07609797 0.00222779 0.00414562
v 0.07622666 0.00222779 0.00409920
v 0.07609797 0.00222779 0.00473114
v 0.07622666 0.00222779 0.00467131
v 0.07459354 0.00222778 0.00543048
v 0.07450037 0.00222778 0.00547379
v 0.03063034 0.00222751 0.00472191
v 0.03063153 0.00222755 0.00563954
v 0.02975661 0.00222751 0.00472191
v 0.02975783 0.00222754 0.00564284
v -0.09996216 -0.00000002 -0.00123338
v -0.10140860 -0.00033933 -0.00114247
v -0.09996216 -0.00033932 -0.00114247
v -0.10140860 -0.00000002 -0.00123338
v -0.10177560 -0.00022301 -0.00094099
v -0.09996216 0.00033929 -0.00114247
v -0.10177560 -0.00000002 -0.00100075
v -0.10140860 0.00033928 -0.00114247
v -0.09996216 0.00058767 -0.00089409
v -0.10177560 0.00022296 -0.00094099
v -0.10140860 0.00058767 -0.00089409
v -0.10177560 0.00038620 -0.00077776
v -0.09996216 0.00067859 -0.00055478
v -0.10140860 0.00058767 -0.00089409
v -0.09996216 0.00058767 -0.00089409
v -0.10140860 0.00067859 -0.00055478
v -0.10177560 0.00038620 -0.00077776
v -0.09996216 0.00058767 -0.00021547
v -0.10177560 0.00044595 -0.00055478
v -0.10140860 0.00058767 -0.00021547
v -0.09996216 0.00033929 0.00003291
v -0.10177560 0.00038620 -0.00033180
v -0.10140860 0.00033928 0.00003291
v -0.10177560 0.00022296 -0.00016856
v -0.09996216 -0.00000002 0.00012383
v -0.10140860 0.00033928 0.00003291
v -0.09996216 0.00033929 0.00003291
v -0.10140860 -0.00000002 0.00012383
v -0.10177560 0.00022296 -0.00016856
v -0.09996216 -0.00033932 0.00003291
v -0.10177560 -0.00000002 -0.00010881
v -0.10140860 -0.00033933 0.00003291
v -0.09996216 -0.00058771 -0.00021547
v -0.10177560 -0.00022301 -0.00016856
v -0.10140860 -0.00058772 -0.00021547
v -0.10177560 -0.00038624 -0.00033180
v -0.09996215 -0.00067863 -0.00055478
v -0.10140860 -0.00058772 -0.00021547
v -0.09996216 -0.00058771 -0.00021547
v -0.10140860 -0.00067863 -0.00055478
v -0.10177560 -0.00038624 -0.00033180
v -0.09996216 -0.00058771 -0.00089409
v -0.10177560 -0.00044599 -0.00055478
v -0.10140860 -0.00058771 -0.00089409
v -0.09996216 -0.00033932 -0.00114247
v -0.10177560 -0.00038624 -0.00077776
v -0.10140860 -0.00033933 -0.00114247
v -0.10177560 -0.00022301 -0.00094099
v -0.10177560 -0.00038624 -0.00033180
v -0.10177560 -0.00044599 -0.00055478
v -0.10177560 -0.00038624 -0.00077776
v -0.10177560 -0.00022301 -0.00016856
v -0.10177560 -0.00022301 -0.00094099
v -0.10177560 -0.00000002 -0.00010881
v -0.10177560 -0.00000002 -0.00100075
v -0.10177560 0.00022296 -0.00016856
v -0.10177560 0.00022296 -0.00094099
v -0.10177560 0.00038620 -0.00033180
v -0.10177560 0.00038620 -0.00077776
v -0.10177560 0.00044595 -0.00055478
v 0.07611555 -0.00105148 0.00126646
v 0.07628629 -0.00171664 0.00043633
v 0.07611555 -0.00182122 0.00049672
v 0.07628629 -0.00099110 0.00116188
v 0.07611555 0.00000001 0.00154820
v 0.07668417 -0.00171423 0.00043494
v 0.07628629 0.00000001 0.00142745
v 0.07611553 0.00105151 0.00126646
v 0.07628627 0.00099113 0.00116188
v 0.07668417 -0.00098971 0.00115947
v 0.08898755 -0.00164076 0.00039253
v 0.08898755 -0.00094726 0.00108603
v 0.07668417 0.00000002 0.00142467
v 0.07668415 0.00098974 0.00115947
v 0.08898755 0.00000007 0.00133986
v 0.08898754 0.00094740 0.00108603
v 0.07611555 -0.00182122 -0.00160628
v 0.07628629 -0.00099110 -0.00227144
v 0.07611555 -0.00105148 -0.00237602
v 0.07628629 -0.00171664 -0.00154590
v 0.07611555 -0.00210297 -0.00055478
v 0.07668417 -0.00098971 -0.00226903
v 0.07628629 -0.00198221 -0.00055478
v 0.07611555 -0.00182122 0.00049672
v 0.07628629 -0.00171664 0.00043633
v 0.07668417 -0.00171423 -0.00154451
v 0.08898755 -0.00094726 -0.00219563
v 0.08898755 -0.00164076 -0.00150214
v 0.07668417 -0.00197943 -0.00055478
v 0.07668417 -0.00171423 0.00043494
v 0.08898755 -0.00189460 -0.00055479
v 0.08898755 -0.00164076 0.00039253
v 0.07611553 0.00105151 -0.00237602
v 0.07628627 0.00171668 -0.00154590
v 0.07611553 0.00182125 -0.00160628
v 0.07628627 0.00099113 -0.00227144
v 0.07611553 0.00000002 -0.00265776
v 0.07668415 0.00171427 -0.00154451
v 0.07628627 0.00000002 -0.00253700
v 0.07611555 -0.00105148 -0.00237602
v 0.07628629 -0.00099110 -0.00227144
v 0.07668415 0.00098974 -0.00226903
v 0.08898754 0.00164090 -0.00150214
v 0.08898754 0.00094740 -0.00219563
v 0.07668415 0.00000002 -0.00253423
v 0.07668417 -0.00098971 -0.00226903
v 0.08898754 0.00000007 -0.00244946
v 0.08898755 -0.00094726 -0.00219563
v 0.07611553 0.00182125 0.00049672
v 0.07628627 0.00099113 0.00116188
v 0.07611553 0.00105151 0.00126646
v 0.07628627 0.00171668 0.00043634
v 0.07611553 0.00210300 -0.00055478
v 0.07668415 0.00098974 0.00115947
v 0.07628627 0.00198225 -0.00055478
v 0.07611553 0.00182125 -0.00160628
v 0.07628627 0.00171668 -0.00154590
v 0.07668415 0.00171426 0.00043494
v 0.08898754 0.00094740 0.00108603
v 0.08898754 0.00164090 0.00039253
v 0.07668415 0.00197946 -0.00055478
v 0.07668415 0.00171427 -0.00154451
v 0.08898754 0.00189474 -0.00055479
v 0.08898754 0.00164090 -0.00150214
v 0.08898755 -0.00164076 -0.00150214
v 0.08898755 -0.00189460 -0.00055479
v 0.08898755 -0.00164076 0.00039253
v 0.08898755 -0.00094726 -0.00219563
v 0.08898755 -0.00094726 0.00108603
v 0.08898755 0.00000007 0.00133986
v 0.08898754 0.00000007 -0.00244946
v 0.08898754 0.00094740 0.00108603
v 0.08898754 0.00094740 -0.00219563
v 0.08898754 0.00164090 0.00039253
v 0.08898754 0.00164090 -0.00150214
v 0.08898754 0.00189474 -0.00055479
v 0.07609797 0.00222779 0.00473114
v 0.07622666 0.00222779 0.00467131
v 0.07622671 0.00000001 0.00526825
v 0.07609802 0.00000001 0.00532806
v 0.07622671 -0.00222777 0.00467131
v 0.07459354 0.00222778 0.00543048
v 0.07609802 -0.00222777 0.00473114
v 0.07459360 0.00000000 0.00602740
v 0.07450037 0.00222778 0.00547379
v 0.07459360 -0.00222777 0.00543047
v 0.07450043 0.00000000 0.00607071
v 0.03063153 0.00222755 0.00563954
v 0.07450043 -0.00222777 0.00547379
v 0.03063137 -0.00000033 0.00623607
v 0.02975783 0.00222754 0.00564284
v 0.03062820 -0.00222801 0.00563876
v 0.02975767 -0.00000034 0.00623937
v 0.02975443 -0.00222801 0.00564204
v 0.07622671 -0.00222777 0.00409920
v 0.07622671 -0.00222777 0.00467131
v 0.07622671 0.00000001 0.00526825
v 0.07622671 0.00000001 0.00469612
v 0.07622666 0.00222779 0.00467131
v 0.07622666 0.00222779 0.00409920
v 0.07622671 -0.00222777 0.00330385
v 0.07622671 0.00000001 0.00390077
v 0.07622666 0.00222779 0.00330385
v 0.07648081 -0.00190564 0.00274591
v 0.07648081 0.00000001 0.00325652
v 0.07648081 -0.00330067 0.00135088
v 0.07622671 -0.00385861 0.00167299
v 0.07648076 0.00190567 0.00274591
v 0.07622666 0.00385864 0.00167300
v 0.07648081 -0.00381129 -0.00055478
v 0.07622671 -0.00445554 -0.00055478
v 0.07648076 0.00330070 0.00135088
v 0.07622666 0.00445557 -0.00055478
v 0.07648081 -0.00330067 -0.00246043
v 0.07622671 -0.00385861 -0.00278256
v 0.07648076 0.00381132 -0.00055478
v 0.07622666 0.00385864 -0.00278256
v 0.07648081 -0.00190564 -0.00385547
v 0.07622671 -0.00222777 -0.00441341
v 0.07648076 0.00330070 -0.00246043
v 0.07622666 0.00222779 -0.00441341
v 0.07648076 0.00000002 -0.00436609
v 0.07622666 0.00000001 -0.00501033
v 0.07648076 0.00190567 -0.00385547
v 0.07648080 -0.00204846 -0.00173747
v 0.07648080 -0.00118267 -0.00260326
v 0.07648078 0.00000002 -0.00292017
v 0.07648078 0.00118271 -0.00260326
v 0.07648078 0.00204849 -0.00173747
v 0.07648078 0.00236539 -0.00055478
v 0.07648080 -0.00236536 -0.00055478
v 0.07648078 0.00204849 0.00062791
v 0.07648080 -0.00204846 0.00062791
v 0.07648078 0.00118270 0.00149370
v 0.07648080 -0.00118268 0.00149370
v 0.07648080 0.00000001 0.00181059
v 0.07648078 0.00222375 -0.00055478
v 0.07648078 0.00192583 -0.00166664
v 0.07648078 0.00192583 0.00055708
v 0.07648078 0.00111188 0.00137103
v 0.07648078 0.00111188 -0.00248059
v 0.07648080 0.00000001 0.00166896
v 0.07648080 -0.00111185 0.00137103
v 0.07648078 0.00000002 -0.00277852
v 0.07648080 -0.00192580 0.00055708
v 0.07648080 -0.00111185 -0.00248059
v 0.07648080 -0.00222372 -0.00055478
v 0.07648080 -0.00192580 -0.00166664
v 0.03063034 0.00222751 0.00472191
v 0.02975661 0.00222751 0.00472191
v 0.02975666 -0.00000027 0.00531885
v 0.03063039 -0.00000026 0.00531885
v 0.07450037 0.00222778 0.00472191
v 0.02975666 -0.00222805 0.00472191
v 0.07450043 0.00000000 0.00531885
v 0.03063039 -0.00222804 0.00472191
v 0.07450043 -0.00222777 0.00472191
v 0.07450043 0.00000001 0.00390077
v 0.07450043 -0.00222777 0.00472191
v 0.07450043 -0.00222777 0.00330385
v 0.07450043 0.00000000 0.00531885
v 0.07450037 0.00222778 0.00330385
v 0.07450037 0.00222778 0.00472191
v 0.07609802 -0.00222777 0.00330385
v 0.07622671 -0.00222777 0.00409920
v 0.07622671 -0.00222777 0.00330385
v 0.07609802 -0.00222777 0.00414562
v 0.07622671 -0.00222777 0.00467131
v 0.07459360 -0.00222777 0.00330385
v 0.07609802 -0.00222777 0.00473114
v 0.07459360 -0.00222777 0.00468831
v 0.07450043 -0.00222777 0.00330385
v 0.07459360 -0.00222777 0.00543047
v 0.07450043 -0.00222777 0.00472191
v 0.07450043 -0.00222777 0.00547379
v 0.03062820 -0.00222801 0.00563876
v 0.03063039 -0.00222804 0.00472191
v 0.02975443 -0.00222801 0.00564204
v 0.02975666 -0.00222805 0.00472191
v 0.02975661 0.00222751 0.00472191
v 0.02975783 0.00222754 0.00564284
v 0.02975767 -0.00000034 0.00623937
v 0.02975666 -0.00000027 0.00531885
v 0.02975443 -0.00222801 0.00564204
v 0.02975666 -0.00222805 0.00472191
v 0.07648078 0.00192583 0.00055708
v 0.07611553 0.00105151 0.00126646
v 0.07648078 0.00111188 0.00137103
v 0.07611553 0.00182125 0.00049672
v 0.07648078 0.00222375 -0.00055478
v 0.07611553 0.00210300 -0.00055478
v 0.07648078 0.00192583 -0.00166664
v 0.07611553 0.00182125 -0.00160628
v 0.07648080 -0.00111185 -0.00248059
v 0.07611555 -0.00105148 -0.00237602
v 0.07611553 0.00000002 -0.00265776
v 0.07648078 0.00000002 -0.00277852
v 0.07611553 0.00105151 -0.00237602
v 0.07648078 0.00111188 -0.00248059
v 0.07611553 0.00182125 -0.00160628
v 0.07648078 0.00192583 -0.00166664
v 0.07648080 -0.00192580 0.00055708
v 0.07611555 -0.00182122 0.00049672
v 0.07611555 -0.00210297 -0.00055478
v 0.07648080 -0.00222372 -0.00055478
v 0.07611555 -0.00182122 -0.00160628
v 0.07648080 -0.00192580 -0.00166664
v 0.07611555 -0.00105148 -0.00237602
v 0.07648080 -0.00111185 -0.00248059
v 0.07648078 0.00111188 0.00137103
v 0.07611553 0.00105151 0.00126646
v 0.07611555 0.00000001 0.00154820
v 0.07648080 0.00000001 0.00166896
v 0.07611555 -0.00105148 0.00126646
v 0.07648080 -0.00111185 0.00137103
v 0.07611555 -0.00182122 0.00049672
v 0.07648080 -0.00192580 0.00055708
v -0.09996216 0.00061765 0.00051505
v -0.09996216 0.00033929 0.00003291
v -0.09996216 0.00058767 -0.00021547
v -0.09996216 0.00106981 0.00006288
v -0.09996216 -0.00000002 0.00068056
v -0.09996216 0.00067859 -0.00055478
v -0.09996216 -0.00000002 0.00012383
v -0.09996216 0.00123531 -0.00055478
v -0.09996216 -0.00061768 0.00051505
v -0.09996216 0.00058767 -0.00089409
v -0.09996216 -0.00033932 0.00003291
v -0.09996216 0.00106981 -0.00117244
v -0.09996216 -0.00106984 0.00006288
v -0.09996216 0.00033929 -0.00114247
v -0.09996216 -0.00058771 -0.00021547
v -0.09996216 0.00061765 -0.00162460
v -0.09996215 -0.00123535 -0.00055478
v -0.09996216 -0.00000002 -0.00123338
v -0.09996215 -0.00067863 -0.00055478
v -0.09996216 -0.00000002 -0.00179010
v -0.09996216 -0.00106984 -0.00117244
v -0.09996216 -0.00033932 -0.00114247
v -0.09996216 -0.00058771 -0.00089409
v -0.09996216 -0.00061768 -0.00162460
vn -0.22492930 -0.84383570 0.48718390
vn -0.72659310 -0.59502630 0.34352030
vn -0.72657870 -0.34352790 0.59503940
vn -0.22492930 -0.48718390 0.84383570
vn -0.72657710 0.00000000 0.68708490
vn -0.12158910 -0.85960850 0.49627540
vn -0.22492410 0.00000000 0.97437630
vn -0.72657870 0.34352790 0.59503940
vn -0.22492930 0.48718390 0.84383570
vn -0.12158910 -0.49627540 0.85960850
vn -0.12158910 0.00000000 0.99258050
vn -0.12158910 0.49627540 0.85960850
vn 0.00000000 0.49998930 0.86603160
vn 0.00000000 0.00000000 1.00000000
vn 0.29252980 0.47811910 0.82814760
vn 0.00000000 -0.49998930 0.86603160
vn 0.00000000 -0.86603160 0.49998930
vn 0.29252630 0.00000000 0.95625750
vn 0.29252980 -0.47811910 0.82814760
vn 0.29252980 -0.82814760 0.47811910
vn 0.00000000 -0.86601080 0.50002540
vn 0.00000000 -0.49998930 0.86603160
vn -0.29249450 -0.82816460 0.47811130
vn 0.00000000 0.00000000 1.00000000
vn 0.00000000 0.50000260 0.86602400
vn -0.51379200 -0.66858580 0.53759710
vn 0.00000000 -0.86603160 0.49998930
vn -0.91983030 0.00000000 0.39231650
vn -0.51381460 0.66857540 0.53758870
vn 0.00000000 -0.92388030 0.38268150
vn 0.00000000 -0.86603160 0.49998930
vn 0.00000000 -0.92388030 0.38268150
vn 0.52318830 -0.73804250 0.42610720
vn 0.71167660 -0.59814520 0.36842740
vn -0.22492930 -0.48718390 -0.84383570
vn -0.72657870 -0.34352790 -0.59503940
vn -0.72659310 -0.59502630 -0.34352030
vn -0.22492930 -0.84383570 -0.48718390
vn -0.72657710 -0.68708490 0.00000000
vn -0.12158910 -0.49627540 -0.85960850
vn -0.22492410 -0.97437630 0.00000000
vn -0.72659310 -0.59502630 0.34352030
vn -0.22492930 -0.84383570 0.48718390
vn -0.12158910 -0.85960850 -0.49627540
vn -0.12158910 -0.99258050 0.00000000
vn -0.12158910 -0.85960850 0.49627540
vn 0.00000000 -0.86603160 0.49998930
vn 0.00000000 -1.00000000 0.00000000
vn 0.29252980 -0.82814760 0.47811910
vn 0.00000000 -0.86603160 -0.49998930
vn 0.00000000 -0.49998930 -0.86603160
vn 0.29252630 -0.95625750 0.00000000
vn 0.29252980 -0.82814760 -0.47811910
vn 0.29252980 -0.47811910 -0.82814760
vn 0.00000000 -0.49998930 -0.86603160
vn 0.00000000 -0.86603160 -0.49998930
vn -0.29252980 -0.47811910 -0.82814760
vn 0.00000000 -1.00000000 0.00000000
vn 0.00000000 -0.86601080 0.50002540
vn -0.29252980 -0.82814760 -0.47811910
vn 0.00000000 -0.49998930 -0.86603160
vn -0.29252630 -0.95625750 0.00000000
vn -0.29249450 -0.82816460 0.47811130
vn 0.00000000 -0.86603160 -0.49998930
vn 0.00000000 -0.49998930 -0.86603160
vn 0.00000000 -1.00000000 0.00000000
vn 0.00000000 -0.86603160 0.49998930
vn 0.00000000 -0.86603160 -0.49998930
vn 0.52318830 -0.42610720 -0.73804250
vn 0.52318830 -0.73804250 -0.42610720
vn 0.00000000 -1.00000000 0.00000000
vn 0.00000000 -0.86603160 0.49998930
vn 0.52318950 -0.85221630 0.00000000
vn 0.52318830 -0.73804250 0.42610720
vn -0.22492930 0.84383570 -0.48718390
vn -0.72657870 0.59503940 -0.34352790
vn -0.72657870 0.34352790 -0.59503940
vn -0.22492930 0.48718390 -0.84383570
vn -0.72657710 0.00000000 -0.68708490
vn -0.12161920 0.85960530 -0.49627360
vn -0.22492410 0.00000000 -0.97437630
vn -0.72657870 -0.34352790 -0.59503940
vn -0.22492930 -0.48718390 -0.84383570
vn -0.12161920 0.49627360 -0.85960530
vn -0.12158910 0.00000000 -0.99258050
vn -0.12158910 -0.49627540 -0.85960850
vn 0.00000000 -0.49998930 -0.86603160
vn 0.00000000 0.00000000 -1.00000000
vn 0.29252980 -0.47811910 -0.82814760
vn 0.00000000 0.49998930 -0.86603160
vn 0.00000000 0.86603160 -0.49998930
vn 0.29252630 0.00000000 -0.95625750
vn 0.29252980 0.47811910 -0.82814760
vn 0.29252980 0.82814760 -0.47811910
vn 0.00000000 0.86603160 -0.49998930
vn 0.00000000 0.50000260 -0.86602400
vn -0.29252980 0.82814760 -0.47811910
vn 0.00000000 0.00000000 -1.00000000
vn 0.00000000 -0.49998930 -0.86603160
vn -0.29252980 0.47811910 -0.82814760
vn 0.00000000 0.86603160 -0.49998930
vn -0.29252630 0.00000000 -0.95625750
vn -0.29252980 -0.47811910 -0.82814760
vn 0.00000000 0.49998930 -0.86603160
vn 0.00000000 0.86603160 -0.49998930
vn 0.00000000 0.00000000 -1.00000000
vn 0.00000000 -0.49998930 -0.86603160
vn 0.00000000 0.49998930 -0.86603160
vn 0.52318830 0.73804250 -0.42610720
vn 0.52318830 0.42610720 -0.73804250
vn 0.00000000 0.00000000 -1.00000000
vn 0.00000000 -0.49998930 -0.86603160
vn 0.52318950 0.00000000 -0.85221630
vn 0.52318830 -0.42610720 -0.73804250
vn -0.22492930 0.48718390 0.84383570
vn -0.72657870 0.34352790 0.59503940
vn -0.72657870 0.59503940 0.34352790
vn -0.22492930 0.84383570 0.48718390
vn -0.72657710 0.68708490 0.00000000
vn -0.12158910 0.49627540 0.85960850
vn -0.22492410 0.97437630 0.00000000
vn -0.72657870 0.59503940 -0.34352790
vn -0.22492930 0.84383570 -0.48718390
vn -0.12158910 0.85960850 0.49627540
vn -0.12161910 0.99257690 0.00000000
vn -0.12161920 0.85960530 -0.49627360
vn 0.00000000 0.86603160 -0.49998930
vn 0.00000000 1.00000000 0.00000000
vn 0.29252980 0.82814760 -0.47811910
vn 0.00000000 0.86603160 0.49998930
vn 0.00000000 0.49998930 0.86603160
vn 0.29252630 0.95625750 0.00000000
vn 0.29252980 0.82814760 0.47811910
vn 0.29252980 0.47811910 0.82814760
vn 0.00000000 0.50000260 0.86602400
vn 0.00000000 0.86603160 0.49998930
vn -0.51381460 0.66857540 0.53758870
vn 0.00000000 1.00000000 0.00000000
vn 0.00000000 0.86603160 -0.49998930
vn -0.29252980 0.82814760 0.47811910
vn -0.29252630 0.95625750 0.00000000
vn -0.29252980 0.82814760 -0.47811910
vn 0.00000000 0.92388030 0.38268150
vn -0.37252170 0.87527040 -0.30843060
vn 0.00000000 1.00000000 0.00000000
vn 0.00000000 0.86603160 -0.49998930
vn 0.00000000 0.86602400 0.50000260
vn 0.00000000 1.00000000 0.00000000
vn 0.00000000 0.86603160 -0.49998930
vn 0.00000000 0.86603160 0.49998930
vn 0.52318950 0.85221630 0.00000000
vn 0.52318830 0.73804250 -0.42610720
vn 0.52318830 0.73804250 0.42610720
vn 0.71167660 0.59814520 0.36842740
vn 0.00000000 0.92388030 0.38268150
vn 0.00000000 1.00000000 0.00000000
vn 0.00000000 1.00000000 0.00000000
vn 0.70709150 0.70712200 0.00000000
vn 0.26051030 0.78616980 0.56042070
vn 0.67179100 0.64966460 0.35585510
vn 0.26048190 0.78617610 0.56042520
vn 0.14856680 0.75235590 0.64178540
vn 0.00000000 0.60873390 -0.79337440
vn 0.00228895 0.79332020 0.60880020
vn -0.56518670 0.50228650 -0.65442510
vn -0.59103650 0.63922640 0.49200140
vn -0.77026610 0.00000000 -0.63772260
vn -0.26716720 -0.48181040 -0.83455410
vn -0.77026670 -0.31883100 -0.55230070
vn -0.26716690 0.00000000 -0.96365020
vn -0.84239450 -0.26942460 -0.46667100
vn -0.77027960 0.31883640 -0.55227950
vn -0.84238610 0.00000000 -0.53887440
vn -0.26716720 0.48181040 -0.83455410
vn -0.77027210 0.55227400 -0.31886380
vn -0.84239450 0.26942460 -0.46667100
vn -0.26716330 0.83454180 -0.48183380
vn -0.84239450 0.46667100 -0.26942460
vn -0.77026610 0.63772260 0.00000000
vn -0.26716330 0.83454180 -0.48183380
vn -0.77027210 0.55227400 -0.31886380
vn -0.26713070 0.96366030 0.00000000
vn -0.84239450 0.46667100 -0.26942460
vn -0.77027210 0.55227400 0.31886380
vn -0.84238610 0.53887440 0.00000000
vn -0.26716330 0.83454180 0.48183380
vn -0.77027960 0.31883640 0.55227950
vn -0.84239450 0.46667100 0.26942460
vn -0.26716720 0.48181040 0.83455410
vn -0.84239450 0.26942460 0.46667100
vn -0.77026610 0.00000000 0.63772260
vn -0.26716720 0.48181040 0.83455410
vn -0.77027960 0.31883640 0.55227950
vn -0.26716690 0.00000000 0.96365020
vn -0.84239450 0.26942460 0.46667100
vn -0.77026670 -0.31883100 0.55230070
vn -0.84238610 0.00000000 0.53887440
vn -0.26716720 -0.48181040 0.83455410
vn -0.77027210 -0.55227400 0.31886380
vn -0.84239450 -0.26942460 0.46667100
vn -0.26716330 -0.83454180 0.48183380
vn -0.84239450 -0.46667100 0.26942460
vn -0.77026610 -0.63772260 0.00000000
vn -0.26716330 -0.83454180 0.48183380
vn -0.77027210 -0.55227400 0.31886380
vn -0.26713070 -0.96366030 0.00000000
vn -0.84239450 -0.46667100 0.26942460
vn -0.77027210 -0.55227400 -0.31886380
vn -0.84238610 -0.53887440 0.00000000
vn -0.26716330 -0.83454180 -0.48183380
vn -0.77026670 -0.31883100 -0.55230070
vn -0.84239450 -0.46667100 -0.26942460
vn -0.26716720 -0.48181040 -0.83455410
vn -0.84239450 -0.26942460 -0.46667100
vn -0.84239450 -0.46667100 0.26942460
vn -0.84238610 -0.53887440 0.00000000
vn -0.84239450 -0.46667100 -0.26942460
vn -0.84239450 -0.26942460 0.46667100
vn -0.84239450 -0.26942460 -0.46667100
vn -0.84238610 0.00000000 0.53887440
vn -0.84238610 0.00000000 -0.53887440
vn -0.84239450 0.26942460 0.46667100
vn -0.84239450 0.26942460 -0.46667100
vn -0.84239450 0.46667100 0.26942460
vn -0.84239450 0.46667100 -0.26942460
vn -0.84238610 0.53887440 0.00000000
vn 0.95867620 0.14225100 -0.24638330
vn 0.32173080 -0.81998310 0.47341000
vn 0.95866890 0.24641200 -0.14225000
vn 0.32173080 -0.47341000 0.81998310
vn 0.95867550 0.00000000 -0.28450190
vn 0.00692778 -0.86600320 0.49999050
vn 0.32170680 0.00000000 0.94683930
vn 0.95867620 -0.14225100 -0.24638330
vn 0.32170340 0.47341460 0.81999120
vn 0.00692778 -0.49999050 0.86600320
vn 0.65580390 -0.65378960 0.37746570
vn 0.65579080 -0.37745810 0.65380710
vn 0.00692775 0.00000000 0.99997600
vn 0.00692778 0.49999050 0.86600320
vn 0.65578880 0.00000000 0.75494450
vn 0.65579080 0.37745810 0.65380710
vn 0.95867620 0.24638330 0.14225100
vn 0.32173080 -0.47341000 -0.81998310
vn 0.95867200 0.14228090 0.24638220
vn 0.32170340 -0.81999120 -0.47341460
vn 0.95867550 0.28450190 0.00000000
vn 0.00692778 -0.49999050 -0.86600320
vn 0.32173420 -0.94683000 0.00000000
vn 0.95866890 0.24641200 -0.14225000
vn 0.32173080 -0.81998310 0.47341000
vn 0.00692778 -0.86600320 -0.49999050
vn 0.65579080 -0.37745810 -0.65380710
vn 0.65580390 -0.65378960 -0.37746570
vn 0.00692775 -0.99997600 0.00000000
vn 0.00692778 -0.86600320 0.49999050
vn 0.65578880 -0.75494450 0.00000000
vn 0.65580390 -0.65378960 0.37746570
vn 0.95867620 -0.14225100 0.24638330
vn 0.32170340 0.81999120 -0.47341460
vn 0.95867620 -0.24638330 0.14225100
vn 0.32170340 0.47341460 -0.81999120
vn 0.95867550 0.00000000 0.28450190
vn 0.00692778 0.86600320 -0.49999050
vn 0.32170680 0.00000000 -0.94683930
vn 0.95867200 0.14228090 0.24638220
vn 0.32173080 -0.47341000 -0.81998310
vn 0.00692778 0.49999050 -0.86600320
vn 0.65579080 0.65380710 -0.37745810
vn 0.65579080 0.37745810 -0.65380710
vn 0.00692775 0.00000000 -0.99997600
vn 0.00692778 -0.49999050 -0.86600320
vn 0.65578880 0.00000000 -0.75494450
vn 0.65579080 -0.37745810 -0.65380710
vn 0.95867620 -0.24638330 -0.14225100
vn 0.32170340 0.47341460 0.81999120
vn 0.95867620 -0.14225100 -0.24638330
vn 0.32170340 0.81999120 0.47341460
vn 0.95867550 -0.28450190 0.00000000
vn 0.00692778 0.49999050 0.86600320
vn 0.32169750 0.94684250 0.00000000
vn 0.95867620 -0.24638330 0.14225100
vn 0.32170340 0.81999120 -0.47341460
vn 0.00692778 0.86600320 0.49999050
vn 0.65579080 0.37745810 0.65380710
vn 0.65579080 0.65380710 0.37745810
vn 0.00692775 0.99997600 0.00000000
vn 0.00692778 0.86600320 -0.49999050
vn 0.65578880 0.75494450 0.00000000
vn 0.65579080 0.65380710 -0.37745810
vn 0.65580390 -0.65378960 -0.37746570
vn 0.65578880 -0.75494450 0.00000000
vn 0.65580390 -0.65378960 0.37746570
vn 0.65579080 -0.37745810 -0.65380710
vn 0.65579080 -0.37745810 0.65380710
vn 0.65578880 0.00000000 0.75494450
vn 0.65578880 0.00000000 -0.75494450
vn 0.65579080 0.37745810 0.65380710
vn 0.65579080 0.37745810 -0.65380710
vn 0.65579080 0.65380710 0.37745810
vn 0.65579080 0.65380710 -0.37745810
vn 0.65578880 0.75494450 0.00000000
vn 0.26051030 0.78616980 0.56042070
vn 0.67179100 0.64966460 0.35585510
vn 0.80336040 0.00000000 0.59549330
vn 0.42153000 0.00000000 0.90681440
vn 0.67180780 -0.64965120 0.35584780
vn 0.26048190 0.78617610 0.56042520
vn 0.26051030 -0.78616980 0.56042070
vn 0.42153000 0.00000000 0.90681440
vn 0.14856680 0.75235590 0.64178540
vn 0.26051030 -0.78616980 0.56042070
vn 0.21055020 -0.00003052 0.97758310
vn 0.00228895 0.79332020 0.60880020
vn 0.14859960 -0.75236730 0.64176460
vn 0.00375386 -0.00012208 0.99999300
vn -0.59103650 0.63922640 0.49200140
vn 0.00228897 -0.79338710 0.60871310
vn -0.65158030 0.00015259 0.75857970
vn -0.59231870 -0.63855550 0.49133030
vn 0.70710680 -0.70710680 0.00000000
vn 0.67180780 -0.64965120 0.35584780
vn 0.80336040 0.00000000 0.59549330
vn 1.00000000 0.00000000 0.00000000
vn 0.67179100 0.64966460 0.35585510
vn 0.70709150 0.70712200 0.00000000
vn 0.71167660 -0.59814520 0.36842740
vn 0.98769680 0.00000000 0.15638100
vn 0.71167660 0.59814520 0.36842740
vn 0.97630970 -0.10819060 0.18738800
vn 0.97630900 0.00000000 0.21638110
vn 0.97630970 -0.18738800 0.10819060
vn 0.52318830 -0.73804250 0.42610720
vn 0.97630970 0.10819060 0.18738800
vn 0.52318830 0.73804250 0.42610720
vn 0.97630900 -0.21638110 0.00000000
vn 0.52318950 -0.85221630 0.00000000
vn 0.97630970 0.18738800 0.10819060
vn 0.52318950 0.85221630 0.00000000
vn 0.97630970 -0.18738800 -0.10819060
vn 0.52318830 -0.73804250 -0.42610720
vn 0.97630900 0.21638110 0.00000000
vn 0.52318830 0.73804250 -0.42610720
vn 0.97631290 -0.10816050 -0.18738860
vn 0.52318830 -0.42610720 -0.73804250
vn 0.97630970 0.18738800 -0.10819060
vn 0.52318830 0.42610720 -0.73804250
vn 0.97630900 0.00000000 -0.21638110
vn 0.52318950 0.00000000 -0.85221630
vn 0.97630970 0.10819060 -0.18738800
vn 1.00000000 0.00000000 0.00000000
vn 1.00000000 0.00000000 0.00000000
vn 1.00000000 0.00000000 0.00000000
vn 1.00000000 0.00000000 0.00000000
vn 1.00000000 0.00000000 0.00000000
vn 1.00000000 0.00000000 0.00000000
vn 1.00000000 0.00000000 0.00000000
vn 1.00000000 0.00000000 0.00000000
vn 1.00000000 0.00000000 0.00000000
vn 1.00000000 0.00000000 0.00000000
vn 1.00000000 0.00000000 0.00000000
vn 1.00000000 0.00000000 0.00000000
vn 0.85762220 -0.51428030 0.00000000
vn 0.85763820 -0.44536020 0.25712050
vn 0.85763010 -0.44537190 -0.25712730
vn 0.85763820 -0.25712050 -0.44536020
vn 0.85764990 -0.25712400 0.44533580
vn 0.85764370 0.00000000 -0.51424440
vn 0.85764990 0.25712400 -0.44533580
vn 0.85764370 0.00000000 0.51424440
vn 0.85763820 0.44536020 -0.25712050
vn 0.85764990 0.25712400 0.44533580
vn 0.85764370 0.51424440 0.00000000
vn 0.85763820 0.44536020 0.25712050
vn 0.00000000 0.60873390 -0.79337440
vn -0.56518670 0.50228650 -0.65442510
vn -0.77036320 0.00045779 -0.63760510
vn 0.00000000 0.00000000 -1.00000000
vn -0.37252170 0.87527040 -0.30843060
vn -0.56451280 -0.50265040 -0.65472730
vn -0.65323600 0.00000000 -0.75715440
vn 0.00000000 -0.60876790 -0.79334840
vn -0.37251170 -0.87527740 -0.30842240
vn -0.91983030 0.00000000 0.39231650
vn -0.37251170 -0.87527740 -0.30842240
vn -0.51379200 -0.66858580 0.53759710
vn -0.65323600 0.00000000 -0.75715440
vn -0.51381460 0.66857540 0.53758870
vn -0.37252170 0.87527040 -0.30843060
vn 0.00000000 -0.92388030 0.38268150
vn 0.70710680 -0.70710680 0.00000000
vn 0.71167660 -0.59814520 0.36842740
vn 0.00000000 -1.00000000 0.00000000
vn 0.67180780 -0.64965120 0.35584780
vn 0.00000000 -0.92388030 0.38268150
vn 0.26051030 -0.78616980 0.56042070
vn 0.00000000 -1.00000000 0.00000000
vn -0.51379200 -0.66858580 0.53759710
vn 0.26051030 -0.78616980 0.56042070
vn -0.37251170 -0.87527740 -0.30842240
vn 0.14859960 -0.75236730 0.64176460
vn 0.00228897 -0.79338710 0.60871310
vn 0.00000000 -0.60876790 -0.79334840
vn -0.59231870 -0.63855550 0.49133030
vn -0.56451280 -0.50265040 -0.65472730
vn -0.56518670 0.50228650 -0.65442510
vn -0.59103650 0.63922640 0.49200140
vn -0.65158030 0.00015259 0.75857970
vn -0.77036320 0.00045779 -0.63760510
vn -0.59231870 -0.63855550 0.49133030
vn -0.56451280 -0.50265040 -0.65472730
vn 0.85763010 -0.44537190 -0.25712730
vn 0.95867620 -0.14225100 -0.24638330
vn 0.85763820 -0.25712050 -0.44536020
vn 0.95867620 -0.24638330 -0.14225100
vn 0.85762220 -0.51428030 0.00000000
vn 0.95867550 -0.28450190 0.00000000
vn 0.85763820 -0.44536020 0.25712050
vn 0.95867620 -0.24638330 0.14225100
vn 0.85764990 0.25712400 0.44533580
vn 0.95867200 0.14228090 0.24638220
vn 0.95867550 0.00000000 0.28450190
vn 0.85764370 0.00000000 0.51424440
vn 0.95867620 -0.14225100 0.24638330
vn 0.85764990 -0.25712400 0.44533580
vn 0.95867620 -0.24638330 0.14225100
vn 0.85763820 -0.44536020 0.25712050
vn 0.85763820 0.44536020 -0.25712050
vn 0.95866890 0.24641200 -0.14225000
vn 0.95867550 0.28450190 0.00000000
vn 0.85764370 0.51424440 0.00000000
vn 0.95867620 0.24638330 0.14225100
vn 0.85763820 0.44536020 0.25712050
vn 0.95867200 0.14228090 0.24638220
vn 0.85764990 0.25712400 0.44533580
vn 0.85763820 -0.25712050 -0.44536020
vn 0.95867620 -0.14225100 -0.24638330
vn 0.95867550 0.00000000 -0.28450190
vn 0.85764370 0.00000000 -0.51424440
vn 0.95867620 0.14225100 -0.24638330
vn 0.85764990 0.25712400 -0.44533580
vn 0.95866890 0.24641200 -0.14225000
vn 0.85763820 0.44536020 -0.25712050
vn -0.72657870 0.34352790 0.59503940
vn -0.77027960 0.31883640 0.55227950
vn -0.77027210 0.55227400 0.31886380
vn -0.72657870 0.59503940 0.34352790
vn -0.72657710 0.00000000 0.68708490
vn -0.77026610 0.63772260 0.00000000
vn -0.77026610 0.00000000 0.63772260
vn -0.72657710 0.68708490 0.00000000
vn -0.72657870 -0.34352790 0.59503940
vn -0.77027210 0.55227400 -0.31886380
vn -0.77026670 -0.31883100 0.55230070
vn -0.72657870 0.59503940 -0.34352790
vn -0.72659310 -0.59502630 0.34352030
vn -0.77027960 0.31883640 -0.55227950
vn -0.77027210 -0.55227400 0.31886380
vn -0.72657870 0.34352790 -0.59503940
vn -0.72657710 -0.68708490 0.00000000
vn -0.77026610 0.00000000 -0.63772260
vn -0.77026610 -0.63772260 0.00000000
vn -0.72657710 0.00000000 -0.68708490
vn -0.72659310 -0.59502630 -0.34352030
vn -0.77026670 -0.31883100 -0.55230070
vn -0.77027210 -0.55227400 -0.31886380
vn -0.72657870 -0.34352790 -0.59503940
vt 0.44020510 0.05921390
vt 0.43120460 0.00093390
vt 0.42909490 0.00096481
vt 0.43283750 0.05932190
vt 0.42658290 0.00096780
vt 0.44061870 0.06138904
vt 0.42406470 0.05933229
vt 0.42434150 0.00094201
vt 0.41623740 0.05924222
vt 0.43300940 0.06150061
vt 0.42394890 0.06151130
vt 0.41586490 0.06141828
vt 0.41586490 0.67693870
vt 0.42394890 0.67703190
vt 0.41586490 0.67910960
vt 0.43300940 0.67702120
vt 0.44061860 0.67690960
vt 0.42394890 0.67920270
vt 0.43300940 0.67919210
vt 0.44061860 0.67908050
vt 0.44041740 0.67944930
vt 0.43292580 0.67955910
vt 0.44061860 0.67982640
vt 0.42400520 0.67956980
vt 0.41604610 0.67947800
vt 0.43300940 0.67993800
vt 0.44061860 0.68018880
vt 0.42394890 0.67994860
vt 0.41586490 0.67985550
vt 0.43300940 0.68030040
vt 0.44061860 0.68604140
vt 0.43300940 0.68615290
vt 0.44061860 0.68654190
vt 0.43300940 0.68665360
vt 0.68274500 0.62832920
vt 0.68986780 0.68665360
vt 0.69221590 0.68663250
vt 0.69094500 0.62825570
vt 0.69470050 0.68664160
vt 0.68241780 0.62615200
vt 0.69962230 0.62828760
vt 0.69665610 0.68667860
vt 0.70645150 0.62841650
vt 0.69088670 0.62607620
vt 0.69984850 0.62610890
vt 0.70690160 0.62624220
vt 0.70690140 0.01073216
vt 0.69984820 0.01059915
vt 0.70690150 0.00856129
vt 0.69088660 0.01056614
vt 0.68241760 0.01064199
vt 0.69984830 0.00842826
vt 0.69088660 0.00839524
vt 0.68241760 0.00847107
vt 0.68257680 0.00810329
vt 0.69091490 0.00802863
vt 0.68241750 0.00772528
vt 0.69973830 0.00806111
vt 0.70668260 0.00819209
vt 0.69088660 0.00764942
vt 0.68241750 0.00736282
vt 0.69984830 0.00768241
vt 0.70690150 0.00781547
vt 0.69088660 0.00728696
vt 0.68241750 0.00151038
vt 0.69984830 0.00731995
vt 0.70690160 0.00745304
vt 0.69088660 0.00143456
vt 0.68241760 0.00100981
vt 0.69088660 0.00093390
vt 0.69984840 0.00146754
vt 0.70690150 0.00160060
vt 0.69984840 0.00096694
vt 0.70690160 0.00109989
vt 0.60077090 0.05936201
vt 0.59151740 0.00093390
vt 0.58945230 0.00100560
vt 0.59355900 0.05961243
vt 0.58694570 0.00101614
vt 0.60119620 0.06154452
vt 0.58480530 0.05964927
vt 0.58466920 0.00096270
vt 0.57685520 0.05946274
vt 0.59374780 0.06180313
vt 0.58470700 0.06184119
vt 0.57649610 0.06164848
vt 0.57649610 0.67654490
vt 0.58470690 0.67673740
vt 0.57649610 0.67871360
vt 0.59374770 0.67669930
vt 0.60119620 0.67644080
vt 0.58470690 0.67890610
vt 0.59374770 0.67886810
vt 0.60119610 0.67860940
vt 0.60098930 0.67897330
vt 0.59365590 0.67922790
vt 0.60119610 0.67935450
vt 0.58475480 0.67926540
vt 0.57667080 0.67907590
vt 0.59374770 0.67961320
vt 0.60119620 0.67971660
vt 0.58470700 0.67965110
vt 0.57649610 0.67945870
vt 0.59374770 0.67997520
vt 0.60119620 0.68556320
vt 0.58470700 0.68001320
vt 0.57649610 0.67982080
vt 0.59374770 0.68582180
vt 0.60119620 0.68606330
vt 0.59374770 0.68632200
vt 0.58470700 0.68585990
vt 0.57649610 0.68566750
vt 0.58470700 0.68636000
vt 0.57649610 0.68616760
vt 0.07923888 0.62832890
vt 0.08636162 0.68665330
vt 0.08870978 0.68663220
vt 0.08743897 0.62825540
vt 0.09119432 0.68664140
vt 0.07891157 0.62615170
vt 0.09611626 0.62828740
vt 0.09314990 0.68667830
vt 0.10294540 0.62841620
vt 0.08738057 0.62607580
vt 0.09634238 0.62610880
vt 0.10339560 0.62624190
vt 0.10339560 0.01073219
vt 0.09634250 0.01059912
vt 0.10339570 0.00856126
vt 0.08738057 0.01056614
vt 0.07891162 0.01064199
vt 0.09634244 0.00842823
vt 0.08738063 0.00839524
vt 0.07891157 0.00847107
vt 0.07907087 0.00810329
vt 0.08740902 0.00802854
vt 0.07891151 0.00772531
vt 0.09623241 0.00806108
vt 0.10317680 0.00819209
vt 0.08738063 0.00764945
vt 0.09634244 0.00768241
vt 0.10339570 0.00781553
vt 0.07891162 0.00736282
vt 0.07381452 0.00767243
vt 0.09634244 0.00731998
vt 0.10339570 0.00745304
vt 0.08738063 0.00728699
vt 0.09634244 0.00146751
vt 0.10339560 0.00160060
vt 0.08738057 0.00143453
vt 0.09634238 0.00096688
vt 0.10339570 0.00109997
vt 0.08738068 0.00093390
vt 0.07891162 0.00100978
vt 0.07891162 0.00151041
vt 0.07393529 0.00731119
vt 0.07588602 0.00147903
vt 0.07605289 0.00098010
vt 0.07378139 0.00145721
vt 0.07399652 0.00095878
vt 0.07126768 0.00728358
vt 0.07111203 0.00764441
vt 0.07381416 0.17833440
vt 0.07051586 0.17829560
vt 0.07381410 0.18173340
vt 0.07050403 0.18169430
vt 0.62308870 0.69721810
vt 0.62433930 0.70286880
vt 0.62433930 0.69724740
vt 0.62308870 0.70283940
vt 0.62374880 0.70433000
vt 0.62171180 0.69722380
vt 0.62292700 0.70431070
vt 0.62171180 0.70284520
vt 0.62057730 0.69726320
vt 0.62202200 0.70431450
vt 0.62057730 0.70288450
vt 0.62127660 0.70434040
vt 0.38214760 0.74025390
vt 0.38107330 0.73460670
vt 0.38107330 0.74023370
vt 0.38214740 0.73462690
vt 0.38181340 0.73316630
vt 0.38351250 0.74025890
vt 0.38251930 0.73317970
vt 0.38351250 0.73463190
vt 0.38480240 0.74024730
vt 0.38341630 0.73318300
vt 0.38480240 0.73462030
vt 0.38426410 0.73317530
vt 0.38230450 0.73129850
vt 0.38107330 0.72565730
vt 0.38107330 0.73128440
vt 0.38230450 0.72567140
vt 0.38168560 0.72421410
vt 0.38368450 0.73129690
vt 0.38249480 0.72422350
vt 0.38368450 0.72566980
vt 0.38484340 0.73127990
vt 0.38340170 0.72422240
vt 0.38484340 0.72565280
vt 0.38416330 0.72421120
vt 0.21996070 0.72942610
vt 0.22103500 0.73507340
vt 0.22103500 0.72944650
vt 0.21996070 0.73505320
vt 0.22029480 0.73651380
vt 0.21859570 0.72942120
vt 0.21958890 0.73650050
vt 0.21859580 0.73504810
vt 0.21730580 0.72943280
vt 0.21869180 0.73649710
vt 0.21730590 0.73505970
vt 0.21784420 0.73650470
vt 0.73231690 0.74224670
vt 0.73186280 0.74146870
vt 0.73107640 0.74101970
vt 0.73231690 0.74314500
vt 0.73016830 0.74101960
vt 0.73186280 0.74392290
vt 0.72938170 0.74146870
vt 0.73107640 0.74437210
vt 0.72892770 0.74224670
vt 0.73016820 0.74437210
vt 0.72892780 0.74314510
vt 0.72938170 0.74392290
vt 0.67693770 0.68859510
vt 0.68017540 0.68920330
vt 0.68052920 0.68854670
vt 0.67679010 0.68924890
vt 0.67266120 0.68859500
vt 0.68016540 0.69075100
vt 0.67275920 0.68924880
vt 0.66884570 0.68854640
vt 0.66916280 0.68920300
vt 0.67678480 0.69079650
vt 0.67985890 0.73860870
vt 0.67662310 0.73865220
vt 0.67275950 0.69079640
vt 0.66916820 0.69075080
vt 0.67277030 0.73865220
vt 0.66933270 0.73860850
vt 0.12175660 0.77910290
vt 0.11803650 0.77849720
vt 0.11775950 0.77915330
vt 0.12180390 0.77844950
vt 0.12598650 0.77910280
vt 0.11803710 0.77694950
vt 0.12579100 0.77844950
vt 0.12931580 0.77915330
vt 0.12892910 0.77849720
vt 0.12179930 0.77690190
vt 0.11805270 0.72909310
vt 0.12165390 0.72904760
vt 0.12578080 0.77690200
vt 0.12891450 0.77694950
vt 0.12546480 0.72904750
vt 0.12846430 0.72909310
vt 0.32776510 0.72787700
vt 0.33091550 0.72841650
vt 0.33128120 0.72776970
vt 0.32760130 0.72851760
vt 0.32349790 0.72787700
vt 0.33090050 0.72996230
vt 0.32357910 0.72851760
vt 0.31962290 0.72776990
vt 0.31992660 0.72841660
vt 0.32759090 0.73006330
vt 0.33044030 0.77776470
vt 0.32727250 0.77786140
vt 0.32357440 0.73006330
vt 0.31992700 0.72996250
vt 0.32342800 0.77786140
vt 0.31993690 0.77776470
vt 0.05871971 0.77910290
vt 0.05499949 0.77849710
vt 0.05472258 0.77915340
vt 0.05876707 0.77844950
vt 0.06294962 0.77910290
vt 0.05500003 0.77694950
vt 0.06275418 0.77844950
vt 0.06627890 0.77915340
vt 0.06589221 0.77849720
vt 0.05876245 0.77690190
vt 0.05501641 0.72909310
vt 0.05861755 0.72904750
vt 0.06274397 0.77690200
vt 0.06587756 0.77694950
vt 0.06242847 0.72904760
vt 0.06542797 0.72909310
vt 0.22321050 0.73425720
vt 0.22321050 0.73807360
vt 0.22513960 0.74137860
vt 0.22513950 0.73095210
vt 0.22848080 0.74328680
vt 0.23233900 0.74328680
vt 0.22848080 0.72904400
vt 0.23568020 0.74137860
vt 0.23233890 0.72904400
vt 0.23760930 0.73807350
vt 0.23568020 0.73095210
vt 0.23760920 0.73425720
vt 0.54355920 0.86842440
vt 0.54360590 0.86892000
vt 0.55168940 0.86904790
vt 0.55164270 0.86855230
vt 0.56074990 0.86907610
vt 0.54301260 0.86263010
vt 0.56070320 0.86858050
vt 0.55109610 0.86275800
vt 0.54297880 0.86227120
vt 0.56015660 0.86278630
vt 0.55106230 0.86239920
vt 0.54359300 0.69162640
vt 0.56012270 0.86242740
vt 0.55167730 0.69175360
vt 0.54360530 0.68822790
vt 0.56073770 0.69176930
vt 0.55168950 0.68835490
vt 0.56074990 0.68837050
vt 0.04989659 0.72502940
vt 0.05047909 0.72717980
vt 0.05955200 0.72717980
vt 0.05896950 0.72502930
vt 0.06740940 0.72269250
vt 0.06682692 0.72054210
vt 0.04908682 0.72204000
vt 0.05815971 0.72203990
vt 0.06601714 0.71755270
vt 0.04974278 0.71961840
vt 0.05750376 0.71961830
vt 0.04302154 0.71578000
vt 0.04122942 0.71755250
vt 0.06422505 0.71578000
vt 0.07055359 0.70978040
vt 0.03914103 0.70913140
vt 0.03669299 0.70978030
vt 0.06810556 0.70913160
vt 0.07055359 0.70080570
vt 0.03914106 0.70145460
vt 0.03669299 0.70080570
vt 0.06810556 0.70145450
vt 0.06601717 0.69303350
vt 0.04302157 0.69480610
vt 0.04122946 0.69303340
vt 0.06422508 0.69480620
vt 0.05815977 0.68854610
vt 0.04974280 0.69096750
vt 0.04908686 0.68854610
vt 0.05750383 0.69096760
vt 0.04463529 0.70291070
vt 0.04704362 0.69878450
vt 0.05121497 0.69640230
vt 0.05603164 0.69640230
vt 0.06020299 0.69878460
vt 0.06261130 0.70291080
vt 0.04463528 0.70767520
vt 0.06261130 0.70767530
vt 0.04704361 0.71180140
vt 0.06020297 0.71180150
vt 0.05121494 0.71418370
vt 0.05603159 0.71418360
vt 0.06207310 0.70305350
vt 0.05980900 0.69917440
vt 0.06207310 0.70753260
vt 0.05980897 0.71141180
vt 0.05588744 0.69693480
vt 0.05588740 0.71365120
vt 0.05135916 0.71365130
vt 0.05135919 0.69693470
vt 0.04743759 0.71141170
vt 0.04743762 0.69917430
vt 0.04517348 0.70753260
vt 0.04517350 0.70305340
vt 0.42561440 0.69210950
vt 0.42561440 0.68871390
vt 0.41740370 0.68852140
vt 0.41740360 0.69191690
vt 0.42561440 0.86260130
vt 0.40836280 0.68855940
vt 0.41740360 0.86240880
vt 0.40836280 0.69195490
vt 0.40836280 0.86244680
vt 0.34360550 0.70633130
vt 0.34037520 0.71500010
vt 0.34595370 0.71500010
vt 0.33802700 0.70633130
vt 0.34595380 0.69766240
vt 0.34037530 0.69766240
vt 0.51334940 0.66678140
vt 0.51620980 0.66632010
vt 0.51335120 0.66628080
vt 0.51637490 0.66682310
vt 0.51826620 0.66634850
vt 0.51332910 0.67263380
vt 0.51847940 0.66685210
vt 0.51830520 0.67270240
vt 0.51332790 0.67299630
vt 0.52097260 0.67273910
vt 0.51842470 0.67306650
vt 0.52112720 0.67310370
vt 0.52112710 0.84378140
vt 0.51783190 0.84372740
vt 0.52112710 0.84718050
vt 0.51782010 0.84712630
vt 0.73110160 0.70775210
vt 0.72747890 0.70775190
vt 0.72513220 0.71642120
vt 0.72875340 0.71642090
vt 0.72748190 0.72508970
vt 0.73110160 0.72508980
vt 0.21648170 0.74628810
vt 0.21510720 0.75019810
vt 0.21653570 0.75046910
vt 0.21505620 0.74624410
vt 0.21648170 0.74186380
vt 0.21505620 0.74206000
vt 0.21653570 0.73838160
vt 0.21510730 0.73876680
vt 0.24097530 0.73800430
vt 0.23954650 0.73831710
vt 0.23949750 0.74209130
vt 0.24092350 0.74199520
vt 0.23949750 0.74632140
vt 0.24092350 0.74646830
vt 0.23954650 0.74987410
vt 0.24097530 0.75022490
vt 0.21316790 0.73838160
vt 0.21173950 0.73876690
vt 0.21168840 0.74206020
vt 0.21311390 0.74186400
vt 0.21168850 0.74624420
vt 0.21311390 0.74628820
vt 0.21173960 0.75019810
vt 0.21316790 0.75046910
vt 0.06969355 0.72904750
vt 0.06827556 0.72934470
vt 0.06816718 0.73317780
vt 0.06957893 0.73310070
vt 0.06816715 0.73739870
vt 0.06957890 0.73756400
vt 0.06827553 0.74087670
vt 0.06969355 0.74124180
vt 0.29061630 0.71536180
vt 0.28850090 0.71592260
vt 0.28850090 0.71728940
vt 0.29061630 0.71785010
vt 0.28935860 0.71320690
vt 0.28780990 0.71847320
vt 0.28780990 0.71473880
vt 0.28935860 0.72000510
vt 0.28718000 0.71196280
vt 0.28661320 0.71915670
vt 0.28661320 0.71405540
vt 0.28718020 0.72124920
vt 0.28466450 0.71196290
vt 0.28523140 0.71915670
vt 0.28523140 0.71405540
vt 0.28466460 0.72124920
vt 0.28248600 0.71320700
vt 0.28403470 0.71847330
vt 0.28403460 0.71473880
vt 0.28248610 0.72000510
vt 0.28122830 0.71536180
vt 0.28334370 0.71728950
vt 0.28334370 0.71592260
vt 0.28122820 0.71785020
f 3/3/3 2/2/2 1/1/1
f 4/4/4 3/3/3 1/1/1
f 5/5/5 3/3/3 4/4/4
f 4/4/4 1/1/1 6/6/6
f 7/7/7 5/5/5 4/4/4
f 8/8/8 5/5/5 7/7/7
f 9/9/9 8/8/8 7/7/7
f 10/10/10 4/4/4 6/6/6
f 7/7/7 4/4/4 10/10/10
f 9/9/9 7/7/7 11/11/11
f 11/11/11 7/7/7 10/10/10
f 12/12/12 9/9/9 11/11/11
f 13/13/13 12/12/12 11/11/11
f 14/14/14 13/13/13 11/11/11
f 14/14/14 11/11/11 10/10/10
f 15/15/15 13/13/13 14/14/14
f 16/16/16 10/10/10 6/6/6
f 16/16/16 14/14/14 10/10/10
f 17/17/17 16/16/16 6/6/6
f 18/18/18 15/15/15 14/14/14
f 18/18/18 14/14/14 16/16/16
f 19/19/19 16/16/16 17/17/17
f 19/19/19 18/18/18 16/16/16
f 20/20/20 19/19/19 17/17/17
f 20/20/20 21/21/21 19/19/19
f 21/21/21 22/22/22 19/19/19
f 19/19/19 22/22/22 18/18/18
f 21/21/21 23/23/23 22/22/22
f 18/18/18 24/24/24 15/15/15
f 22/22/22 24/24/24 18/18/18
f 24/24/24 25/25/25 15/15/15
f 23/23/23 26/26/26 22/22/22
f 22/22/22 26/26/26 24/24/24
f 23/23/23 27/27/27 26/26/26
f 24/24/24 28/28/28 25/25/25
f 26/26/26 28/28/28 24/24/24
f 28/28/28 29/29/29 25/25/25
f 27/27/27 30/30/30 26/26/26
f 27/27/27 31/31/31 30/30/30
f 31/31/31 32/32/32 30/30/30
f 31/31/31 33/33/33 32/32/32
f 33/33/33 34/34/34 32/32/32
f 37/37/37 36/36/36 35/35/35
f 38/38/38 37/37/37 35/35/35
f 39/39/39 37/37/37 38/38/38
f 38/38/38 35/35/35 40/40/40
f 41/41/41 39/39/39 38/38/38
f 42/42/42 39/39/39 41/41/41
f 43/43/43 42/42/42 41/41/41
f 44/44/44 38/38/38 40/40/40
f 41/41/41 38/38/38 44/44/44
f 43/43/43 41/41/41 45/45/45
f 45/45/45 41/41/41 44/44/44
f 46/46/46 43/43/43 45/45/45
f 47/47/47 46/46/46 45/45/45
f 48/48/48 47/47/47 45/45/45
f 48/48/48 45/45/45 44/44/44
f 49/49/49 47/47/47 48/48/48
f 50/50/50 44/44/44 40/40/40
f 50/50/50 48/48/48 44/44/44
f 51/51/51 50/50/50 40/40/40
f 52/52/52 49/49/49 48/48/48
f 52/52/52 48/48/48 50/50/50
f 53/53/53 50/50/50 51/51/51
f 53/53/53 52/52/52 50/50/50
f 54/54/54 53/53/53 51/51/51
f 54/54/54 55/55/55 53/53/53
f 55/55/55 56/56/56 53/53/53
f 53/53/53 56/56/56 52/52/52
f 55/55/55 57/57/57 56/56/56
f 52/52/52 58/58/58 49/49/49
f 56/56/56 58/58/58 52/52/52
f 58/58/58 59/59/59 49/49/49
f 57/57/57 60/60/60 56/56/56
f 56/56/56 60/60/60 58/58/58
f 57/57/57 61/61/61 60/60/60
f 58/58/58 62/62/62 59/59/59
f 60/60/60 62/62/62 58/58/58
f 62/62/62 63/63/63 59/59/59
f 61/61/61 64/64/64 60/60/60
f 60/60/60 64/64/64 62/62/62
f 61/61/61 65/65/65 64/64/64
f 62/62/62 66/66/66 63/63/63
f 64/64/64 66/66/66 62/62/62
f 66/66/66 67/67/67 63/63/63
f 65/65/65 68/68/68 64/64/64
f 64/64/64 68/68/68 66/66/66
f 65/65/65 69/69/69 68/68/68
f 69/69/69 70/70/70 68/68/68
f 66/66/66 71/71/71 67/67/67
f 68/68/68 71/71/71 66/66/66
f 68/68/68 70/70/70 71/71/71
f 71/71/71 72/72/72 67/67/67
f 70/70/70 73/73/73 71/71/71
f 71/71/71 73/73/73 72/72/72
f 73/73/73 74/74/74 72/72/72
f 77/77/77 76/76/76 75/75/75
f 78/78/78 77/77/77 75/75/75
f 79/79/79 77/77/77 78/78/78
f 78/78/78 75/75/75 80/80/80
f 81/81/81 79/79/79 78/78/78
f 82/82/82 79/79/79 81/81/81
f 83/83/83 82/82/82 81/81/81
f 84/84/84 78/78/78 80/80/80
f 81/81/81 78/78/78 84/84/84
f 83/83/83 81/81/81 85/85/85
f 85/85/85 81/81/81 84/84/84
f 86/86/86 83/83/83 85/85/85
f 87/87/87 86/86/86 85/85/85
f 88/88/88 87/87/87 85/85/85
f 88/88/88 85/85/85 84/84/84
f 89/89/89 87/87/87 88/88/88
f 90/90/90 84/84/84 80/80/80
f 90/90/90 88/88/88 84/84/84
f 91/91/91 90/90/90 80/80/80
f 92/92/92 89/89/89 88/88/88
f 92/92/92 88/88/88 90/90/90
f 93/93/93 90/90/90 91/91/91
f 93/93/93 92/92/92 90/90/90
f 94/94/94 93/93/93 91/91/91
f 94/94/94 95/95/95 93/93/93
f 95/95/95 96/96/96 93/93/93
f 93/93/93 96/96/96 92/92/92
f 95/95/95 97/97/97 96/96/96
f 92/92/92 98/98/98 89/89/89
f 96/96/96 98/98/98 92/92/92
f 98/98/98 99/99/99 89/89/89
f 97/97/97 100/100/100 96/96/96
f 96/96/96 100/100/100 98/98/98
f 97/97/97 101/101/101 100/100/100
f 98/98/98 102/102/102 99/99/99
f 100/100/100 102/102/102 98/98/98
f 102/102/102 103/103/103 99/99/99
f 101/101/101 104/104/104 100/100/100
f 100/100/100 104/104/104 102/102/102
f 101/101/101 105/105/105 104/104/104
f 102/102/102 106/106/106 103/103/103
f 104/104/104 106/106/106 102/102/102
f 106/106/106 107/107/107 103/103/103
f 105/105/105 108/108/108 104/104/104
f 104/104/104 108/108/108 106/106/106
f 105/105/105 109/109/109 108/108/108
f 109/109/109 110/110/110 108/108/108
f 106/106/106 111/111/111 107/107/107
f 108/108/108 111/111/111 106/106/106
f 108/108/108 110/110/110 111/111/111
f 111/111/111 112/112/112 107/107/107
f 110/110/110 113/113/113 111/111/111
f 111/111/111 113/113/113 112/112/112
f 113/113/113 114/114/114 112/112/112
f 117/117/117 116/116/116 115/115/115
f 118/118/118 117/117/117 115/115/115
f 119/119/119 117/117/117 118/118/118
f 118/118/118 115/115/115 120/120/120
f 121/121/121 119/119/119 118/118/118
f 122/122/122 119/119/119 121/121/121
f 123/123/123 122/122/122 121/121/121
f 124/124/124 118/118/118 120/120/120
f 121/121/121 118/118/118 124/124/124
f 123/123/123 121/121/121 125/125/125
f 125/125/125 121/121/121 124/124/124
f 126/126/126 123/123/123 125/125/125
f 127/127/127 126/126/126 125/125/125
f 128/128/128 127/127/127 125/125/125
f 128/128/128 125/125/125 124/124/124
f 129/129/129 127/127/127 128/128/128
f 130/130/130 124/124/124 120/120/120
f 130/130/130 128/128/128 124/124/124
f 131/131/131 130/130/130 120/120/120
f 132/132/132 129/129/129 128/128/128
f 132/132/132 128/128/128 130/130/130
f 133/133/133 130/130/130 131/131/131
f 133/133/133 132/132/132 130/130/130
f 134/134/134 133/133/133 131/131/131
f 134/134/134 135/135/135 133/133/133
f 135/135/135 136/136/136 133/133/133
f 133/133/133 136/136/136 132/132/132
f 135/135/135 137/137/137 136/136/136
f 132/132/132 138/138/138 129/129/129
f 136/136/136 138/138/138 132/132/132
f 138/138/138 139/139/139 129/129/129
f 137/137/137 140/140/140 136/136/136
f 136/136/136 140/140/140 138/138/138
f 138/138/138 141/141/141 139/139/139
f 140/140/140 141/141/141 138/138/138
f 141/141/141 142/142/142 139/139/139
f 137/137/137 143/143/143 140/140/140
f 137/137/137 144/144/144 143/143/143
f 141/141/141 145/145/145 142/142/142
f 145/145/145 146/146/146 142/142/142
f 140/140/140 147/147/147 141/141/141
f 143/143/143 147/147/147 140/140/140
f 147/147/147 145/145/145 141/141/141
f 145/145/145 148/148/148 146/146/146
f 148/148/148 149/149/149 146/146/146
f 147/147/147 150/150/150 145/145/145
f 150/150/150 148/148/148 145/145/145
f 148/148/148 151/151/151 149/149/149
f 151/151/151 152/152/152 149/149/149
f 153/153/153 151/151/151 148/148/148
f 150/150/150 153/153/153 148/148/148
f 154/154/154 153/153/153 150/150/150
f 155/155/155 150/150/150 147/147/147
f 143/143/143 155/155/155 147/147/147
f 155/155/155 154/154/154 150/150/150
f 143/143/143 156/156/156 155/155/155
f 144/144/144 156/156/156 143/143/143
f 155/155/155 157/157/157 154/154/154
f 156/156/156 157/157/157 155/155/155
f 157/157/157 158/158/158 154/154/154
f 157/157/157 159/159/159 158/158/158
f 159/159/159 160/160/160 158/158/158
f 161/161/161 159/159/159 157/157/157
f 156/156/156 161/161/161 157/157/157
f 162/162/162 161/161/161 156/156/156
f 144/144/144 162/162/162 156/156/156
f 144/144/144 163/163/163 162/162/162
f 163/163/163 164/164/164 162/162/162
f 163/163/163 165/165/165 164/164/164
f 165/165/165 166/166/166 164/164/164
f 169/169/169 168/168/168 167/167/167
f 168/168/168 170/170/170 167/167/167
f 168/168/168 171/171/171 170/170/170
f 167/167/167 170/170/170 172/172/172
f 171/171/171 173/173/173 170/170/170
f 170/170/170 174/174/174 172/172/172
f 170/170/170 173/173/173 174/174/174
f 172/172/172 174/174/174 175/175/175
f 173/173/173 176/176/176 174/174/174
f 174/174/174 177/177/177 175/175/175
f 174/174/174 176/176/176 177/177/177
f 176/176/176 178/178/178 177/177/177
f 181/181/181 180/180/180 179/179/179
f 180/180/180 182/182/182 179/179/179
f 180/180/180 183/183/183 182/182/182
f 179/179/179 182/182/182 184/184/184
f 183/183/183 185/185/185 182/182/182
f 182/182/182 186/186/186 184/184/184
f 182/182/182 185/185/185 186/186/186
f 184/184/184 186/186/186 187/187/187
f 185/185/185 188/188/188 186/186/186
f 186/186/186 189/189/189 187/187/187
f 186/186/186 188/188/188 189/189/189
f 188/188/188 190/190/190 189/189/189
f 193/193/193 192/192/192 191/191/191
f 192/192/192 194/194/194 191/191/191
f 192/192/192 195/195/195 194/194/194
f 191/191/191 194/194/194 196/196/196
f 195/195/195 197/197/197 194/194/194
f 194/194/194 198/198/198 196/196/196
f 194/194/194 197/197/197 198/198/198
f 196/196/196 198/198/198 199/199/199
f 197/197/197 200/200/200 198/198/198
f 198/198/198 201/201/201 199/199/199
f 198/198/198 200/200/200 201/201/201
f 200/200/200 202/202/202 201/201/201
f 205/205/205 204/204/204 203/203/203
f 204/204/204 206/206/206 203/203/203
f 204/204/204 207/207/207 206/206/206
f 203/203/203 206/206/206 208/208/208
f 207/207/207 209/209/209 206/206/206
f 206/206/206 210/210/210 208/208/208
f 206/206/206 209/209/209 210/210/210
f 208/208/208 210/210/210 211/211/211
f 209/209/209 212/212/212 210/210/210
f 210/210/210 213/213/213 211/211/211
f 210/210/210 212/212/212 213/213/213
f 212/212/212 214/214/214 213/213/213
f 217/217/217 216/216/216 215/215/215
f 215/215/215 218/218/218 217/217/217
f 218/218/218 219/219/219 217/217/217
f 218/218/218 220/220/220 219/219/219
f 220/220/220 221/221/221 219/219/219
f 220/220/220 222/222/222 221/221/221
f 222/222/222 223/223/223 221/221/221
f 222/222/222 224/224/224 223/223/223
f 224/224/224 225/225/225 223/223/223
f 224/224/224 226/226/226 225/225/225
f 229/229/229 228/228/228 227/227/227
f 228/228/228 230/230/230 227/227/227
f 227/227/227 230/230/230 231/231/231
f 228/228/228 232/232/232 230/230/230
f 230/230/230 233/233/233 231/231/231
f 231/231/231 233/233/233 234/234/234
f 233/233/233 235/235/235 234/234/234
f 232/232/232 236/236/236 230/230/230
f 230/230/230 236/236/236 233/233/233
f 232/232/232 237/237/237 236/236/236
f 237/237/237 238/238/238 236/236/236
f 233/233/233 239/239/239 235/235/235
f 236/236/236 239/239/239 233/233/233
f 236/236/236 238/238/238 239/239/239
f 239/239/239 240/240/240 235/235/235
f 238/238/238 241/241/241 239/239/239
f 239/239/239 241/241/241 240/240/240
f 241/241/241 242/242/242 240/240/240
f 245/245/245 244/244/244 243/243/243
f 244/244/244 246/246/246 243/243/243
f 243/243/243 246/246/246 247/247/247
f 244/244/244 248/248/248 246/246/246
f 246/246/246 249/249/249 247/247/247
f 247/247/247 249/249/249 250/250/250
f 249/249/249 251/251/251 250/250/250
f 248/248/248 252/252/252 246/246/246
f 246/246/246 252/252/252 249/249/249
f 248/248/248 253/253/253 252/252/252
f 253/253/253 254/254/254 252/252/252
f 249/249/249 255/255/255 251/251/251
f 252/252/252 255/255/255 249/249/249
f 252/252/252 254/254/254 255/255/255
f 255/255/255 256/256/256 251/251/251
f 254/254/254 257/257/257 255/255/255
f 255/255/255 257/257/257 256/256/256
f 257/257/257 258/258/258 256/256/256
f 261/261/261 260/260/260 259/259/259
f 260/260/260 262/262/262 259/259/259
f 259/259/259 262/262/262 263/263/263
f 260/260/260 264/264/264 262/262/262
f 262/262/262 265/265/265 263/263/263
f 263/263/263 265/265/265 266/266/266
f 265/265/265 267/267/267 266/266/266
f 264/264/264 268/268/268 262/262/262
f 262/262/262 268/268/268 265/265/265
f 264/264/264 269/269/269 268/268/268
f 269/269/269 270/270/270 268/268/268
f 265/265/265 271/271/271 267/267/267
f 268/268/268 271/271/271 265/265/265
f 268/268/268 270/270/270 271/271/271
f 271/271/271 272/272/272 267/267/267
f 270/270/270 273/273/273 271/271/271
f 271/271/271 273/273/273 272/272/272
f 273/273/273 274/274/274 272/272/272
f 277/277/277 276/276/276 275/275/275
f 276/276/276 278/278/278 275/275/275
f 275/275/275 278/278/278 279/279/279
f 276/276/276 280/280/280 278/278/278
f 278/278/278 281/281/281 279/279/279
f 279/279/279 281/281/281 282/282/282
f 281/281/281 283/283/283 282/282/282
f 280/280/280 284/284/284 278/278/278
f 278/278/278 284/284/284 281/281/281
f 280/280/280 285/285/285 284/284/284
f 285/285/285 286/286/286 284/284/284
f 281/281/281 287/287/287 283/283/283
f 284/284/284 287/287/287 281/281/281
f 284/284/284 286/286/286 287/287/287
f 287/287/287 288/288/288 283/283/283
f 286/286/286 289/289/289 287/287/287
f 287/287/287 289/289/289 288/288/288
f 289/289/289 290/290/290 288/288/288
f 293/293/293 292/292/292 291/291/291
f 291/291/291 294/294/294 293/293/293
f 294/294/294 295/295/295 293/293/293
f 294/294/294 296/296/296 295/295/295
f 294/294/294 297/297/297 296/296/296
f 297/297/297 298/298/298 296/296/296
f 297/297/297 299/299/299 298/298/298
f 299/299/299 300/300/300 298/298/298
f 299/299/299 301/301/301 300/300/300
f 301/301/301 302/302/302 300/300/300
f 305/305/305 304/304/304 303/303/303
f 306/306/306 305/305/305 303/303/303
f 307/307/307 305/305/305 306/306/306
f 306/306/306 303/303/303 308/308/308
f 309/309/309 307/307/307 306/306/306
f 310/310/310 306/306/306 308/308/308
f 309/309/309 306/306/306 310/310/310
f 310/310/310 308/308/308 311/311/311
f 312/312/312 309/309/309 310/310/310
f 313/313/313 310/310/310 311/311/311
f 312/312/312 310/310/310 313/313/313
f 311/311/311 314/314/314 313/313/313
f 315/315/315 312/312/312 313/313/313
f 314/314/314 316/316/316 313/313/313
f 313/313/313 316/316/316 315/315/315
f 314/314/314 317/317/317 316/316/316
f 316/316/316 318/318/318 315/315/315
f 317/317/317 319/319/319 316/316/316
f 316/316/316 319/319/319 318/318/318
f 319/319/319 320/320/320 318/318/318
f 323/323/323 322/322/322 321/321/321
f 324/324/324 323/323/323 321/321/321
f 325/325/325 323/323/323 324/324/324
f 326/326/326 325/325/325 324/324/324
f 324/324/324 321/321/321 327/327/327
f 326/326/326 324/324/324 328/328/328
f 328/328/328 324/324/324 327/327/327
f 329/329/329 326/326/326 328/328/328
f 327/327/327 330/330/330 328/328/328
f 328/328/328 331/331/331 329/329/329
f 330/330/330 331/331/331 328/328/328
f 332/332/332 330/330/330 327/327/327
f 333/333/333 332/332/332 327/327/327
f 331/331/331 334/334/334 329/329/329
f 329/329/329 334/334/334 335/335/335
f 336/336/336 332/332/332 333/333/333
f 337/337/337 336/336/336 333/333/333
f 334/334/334 338/338/338 335/335/335
f 335/335/335 338/338/338 339/339/339
f 340/340/340 336/336/336 337/337/337
f 341/341/341 340/340/340 337/337/337
f 338/338/338 342/342/342 339/339/339
f 339/339/339 342/342/342 343/343/343
f 344/344/344 340/340/340 341/341/341
f 345/345/345 344/344/344 341/341/341
f 342/342/342 346/346/346 343/343/343
f 343/343/343 346/346/346 347/347/347
f 348/348/348 344/344/344 345/345/345
f 349/349/349 348/348/348 345/345/345
f 347/347/347 350/350/350 349/349/349
f 346/346/346 350/350/350 347/347/347
f 350/350/350 348/348/348 349/349/349
f 340/340/340 351/351/351 336/336/336
f 344/344/344 352/352/352 340/340/340
f 352/352/352 351/351/351 340/340/340
f 348/348/348 353/353/353 344/344/344
f 353/353/353 352/352/352 344/344/344
f 350/350/350 354/354/354 348/348/348
f 354/354/354 353/353/353 348/348/348
f 346/346/346 355/355/355 350/350/350
f 355/355/355 354/354/354 350/350/350
f 342/342/342 356/356/356 346/346/346
f 356/356/356 355/355/355 346/346/346
f 351/351/351 357/357/357 336/336/336
f 336/336/336 357/357/357 332/332/332
f 358/358/358 356/356/356 342/342/342
f 338/338/338 358/358/358 342/342/342
f 357/357/357 359/359/359 332/332/332
f 332/332/332 359/359/359 330/330/330
f 360/360/360 358/358/358 338/338/338
f 334/334/334 360/360/360 338/338/338
f 359/359/359 361/361/361 330/330/330
f 330/330/330 361/361/361 331/331/331
f 331/331/331 362/362/362 334/334/334
f 362/362/362 360/360/360 334/334/334
f 361/361/361 362/362/362 331/331/331
f 356/356/356 363/363/363 355/355/355
f 363/363/363 364/364/364 355/355/355
f 365/365/365 363/363/363 356/356/356
f 358/358/358 365/365/365 356/356/356
f 355/355/355 364/364/364 354/354/354
f 366/366/366 365/365/365 358/358/358
f 360/360/360 366/366/366 358/358/358
f 364/364/364 367/367/367 354/354/354
f 368/368/368 366/366/366 360/360/360
f 362/362/362 368/368/368 360/360/360
f 354/354/354 367/367/367 353/353/353
f 369/369/369 368/368/368 362/362/362
f 361/361/361 369/369/369 362/362/362
f 367/367/367 370/370/370 353/353/353
f 371/371/371 369/369/369 361/361/361
f 353/353/353 370/370/370 352/352/352
f 359/359/359 371/371/371 361/361/361
f 370/370/370 372/372/372 352/352/352
f 373/373/373 371/371/371 359/359/359
f 352/352/352 372/372/372 351/351/351
f 357/357/357 373/373/373 359/359/359
f 372/372/372 374/374/374 351/351/351
f 374/374/374 373/373/373 357/357/357
f 351/351/351 374/374/374 357/357/357
f 377/377/377 376/376/376 375/375/375
f 378/378/378 377/377/377 375/375/375
f 378/378/378 375/375/375 379/379/379
f 380/380/380 377/377/377 378/378/378
f 381/381/381 378/378/378 379/379/379
f 382/382/382 380/380/380 378/378/378
f 382/382/382 378/378/378 381/381/381
f 383/383/383 382/382/382 381/381/381
f 386/386/386 385/385/385 384/384/384
f 385/385/385 387/387/387 384/384/384
f 384/384/384 387/387/387 388/388/388
f 387/387/387 389/389/389 388/388/388
f 392/392/392 391/391/391 390/390/390
f 391/391/391 393/393/393 390/390/390
f 391/391/391 394/394/394 393/393/393
f 390/390/390 393/393/393 395/395/395
f 394/394/394 396/396/396 393/393/393
f 393/393/393 397/397/397 395/395/395
f 393/393/393 396/396/396 397/397/397
f 395/395/395 397/397/397 398/398/398
f 396/396/396 399/399/399 397/397/397
f 397/397/397 400/400/400 398/398/398
f 397/397/397 399/399/399 400/400/400
f 399/399/399 401/401/401 400/400/400
f 401/401/401 402/402/402 400/400/400
f 402/402/402 403/403/403 400/400/400
f 402/402/402 404/404/404 403/403/403
f 404/404/404 405/405/405 403/403/403
f 408/408/408 407/407/407 406/406/406
f 409/409/409 408/408/408 406/406/406
f 410/410/410 408/408/408 409/409/409
f 411/411/411 410/410/410 409/409/409
f 414/414/414 413/413/413 412/412/412
f 413/413/413 415/415/415 412/412/412
f 412/412/412 415/415/415 416/416/416
f 415/415/415 417/417/417 416/416/416
f 416/416/416 417/417/417 418/418/418
f 417/417/417 419/419/419 418/418/418
f 422/422/422 421/421/421 420/420/420
f 423/423/423 422/422/422 420/420/420
f 424/424/424 422/422/422 423/423/423
f 425/425/425 424/424/424 423/423/423
f 426/426/426 424/424/424 425/425/425
f 427/427/427 426/426/426 425/425/425
f 430/430/430 429/429/429 428/428/428
f 431/431/431 430/430/430 428/428/428
f 432/432/432 430/430/430 431/431/431
f 433/433/433 432/432/432 431/431/431
f 434/434/434 432/432/432 433/433/433
f 435/435/435 434/434/434 433/433/433
f 438/438/438 437/437/437 436/436/436
f 439/439/439 438/438/438 436/436/436
f 440/440/440 438/438/438 439/439/439
f 441/441/441 440/440/440 439/439/439
f 442/442/442 440/440/440 441/441/441
f 443/443/443 442/442/442 441/441/441
f 446/446/446 445/445/445 444/444/444
f 447/447/447 446/446/446 444/444/444
f 444/444/444 445/445/445 448/448/448
f 449/449/449 446/446/446 447/447/447
f 445/445/445 450/450/450 448/448/448
f 451/451/451 449/449/449 447/447/447
f 448/448/448 450/450/450 452/452/452
f 453/453/453 449/449/449 451/451/451
f 450/450/450 454/454/454 452/452/452
f 455/455/455 453/453/453 451/451/451
f 452/452/452 454/454/454 456/456/456
f 457/457/457 453/453/453 455/455/455
f 454/454/454 458/458/458 456/456/456
f 459/459/459 457/457/457 455/455/455
f 456/456/456 458/458/458 460/460/460
f 461/461/461 457/457/457 459/459/459
f 458/458/458 462/462/462 460/460/460
f 463/463/463 461/461/461 459/459/459
f 460/460/460 462/462/462 464/464/464
f 465/465/465 461/461/461 463/463/463
f 462/462/462 466/466/466 464/464/464
f 467/467/467 465/465/465 463/463/463
f 464/464/464 466/466/466 467/467/467
f 466/466/466 465/465/465 467/467/467

