mtllib material.mtl
usemtl material_0
v -0.00486305 0.01179886 -0.08456919
v -0.01251083 0.01256622 -0.08021555
v -0.00898590 0.00904419 -0.08457109
v -0.00677067 0.01640121 -0.08021290
v 0.00000000 0.01276627 -0.08456852
v 0.00000000 0.01774826 -0.08021196
v 0.00677074 0.01276627 -0.08456852
v -0.00677067 0.01638138 -0.05145908
v 0.00677074 0.01792954 -0.08021184
v 0.02008080 0.01276611 -0.08427887
v 0.00000000 0.01772827 -0.05145815
v -0.00677067 0.01634567 0.05162248
v 0.00000000 0.01769272 0.05162248
v 0.00677074 0.01657501 -0.05145894
v 0.02008240 0.01639999 -0.06449164
v 0.00677074 0.01653931 0.05162248
v 0.02008240 0.01641129 -0.08094288
v 0.03014339 0.01587967 -0.06713849
v 0.03008343 0.01583603 -0.08172193
v 0.03007229 0.01204849 -0.08363499
v 0.04114056 0.01531097 -0.07003164
v 0.04119976 0.01531967 -0.08242121
v 0.06439751 0.01451248 -0.08122288
v 0.06441803 0.01450561 -0.07162016
v 0.08901337 0.01417343 -0.07131273
v 0.09032801 0.01417770 -0.07793004
v 0.10767360 0.01336899 -0.06744101
v 0.10958070 0.01337204 -0.07201252
v 0.11982310 0.01318268 -0.06099437
v 0.12214570 0.01318466 -0.06386106
v 0.12791760 0.01276642 -0.05295064
v 0.12989730 0.01276886 -0.05441391
v 0.13146030 0.01244705 -0.04528030
v 0.13309360 0.01244736 -0.04575805
v 0.13500530 0.01091537 -0.03343289
v 0.13553820 0.01091537 -0.03352275
v 0.13569040 0.00901276 -0.03078995
v 0.13603340 0.00900421 -0.03081776
v 0.00677074 0.01657501 -0.05145894
v 0.02008240 0.01639999 -0.06449164
v 0.02119297 0.01207352 -0.06221231
v 0.01265861 0.01269424 -0.05146163
v 0.00677074 0.01653931 0.05162248
v 0.01656891 0.00681518 -0.05146569
v 0.02240051 0.00535950 -0.06105606
v 0.01265861 0.01265869 0.05162248
v 0.01769268 0.00003555 -0.05147038
v 0.02335701 0.00004166 -0.06014024
v 0.01656891 0.00677963 0.05162248
v 0.01769268 0.00000000 0.05162248
v 0.02119297 0.01203049 0.06237273
v 0.02008240 0.01635529 0.06465504
v 0.02240051 0.00531723 0.06121183
v 0.02335701 0.00000000 0.06029233
v 0.04119976 0.01531967 -0.08242121
v 0.03008343 0.01583603 -0.08172193
v 0.03007229 0.01204849 -0.08363499
v 0.04120895 0.01173538 -0.08314274
v 0.06439751 0.01451248 -0.08122288
v 0.06442741 0.01130188 -0.08190353
v 0.09032801 0.01417770 -0.07793004
v 0.09044815 0.01092331 -0.07851288
v 0.10958070 0.01337204 -0.07201252
v 0.10988200 0.01050125 -0.07259399
v 0.11052020 0.00005096 -0.07370152
v 0.09063759 0.00005493 -0.07949075
v 0.06442741 0.00005753 -0.08328198
v 0.09044815 -0.01081482 -0.07852791
v 0.10988200 -0.01040070 -0.07260845
v 0.10958070 -0.01327240 -0.07203094
v 0.09032801 -0.01406998 -0.07794957
v 0.06442741 -0.01118866 -0.08191907
v 0.06439751 -0.01440002 -0.08124285
v 0.04120895 -0.01162033 -0.08315890
v 0.04119976 -0.01520554 -0.08244230
v 0.04120895 0.00005859 -0.08469922
v 0.03007229 -0.01193268 -0.08365156
v 0.03008343 -0.01572296 -0.08174375
v 0.02982643 0.00005859 -0.08464906
v 0.02008400 0.00005844 -0.08443248
v 0.02008080 0.01276611 -0.08427887
v 0.02008080 -0.01264938 -0.08429644
v 0.00677074 0.01276627 -0.08456852
v 0.00677074 -0.01264923 -0.08458608
v 0.00677074 0.00005844 -0.08457730
v 0.00000000 0.01276627 -0.08456852
v 0.00000000 -0.01264923 -0.08458608
v 0.00000000 0.00005844 -0.08457730
v -0.00486305 0.01179886 -0.08456919
v -0.00486305 -0.01168182 -0.08458541
v -0.00898590 0.00904419 -0.08457109
v -0.00898590 -0.00892731 -0.08458351
v -0.01174053 0.00492157 -0.08457395
v -0.01174053 -0.00480454 -0.08458067
v -0.01270775 0.00005844 -0.08457730
v 0.10767360 0.01336899 -0.06744101
v 0.11982310 0.01318268 -0.06099437
v 0.11953300 0.00990128 -0.06061306
v 0.10749290 0.01011307 -0.06696577
v 0.08901337 0.01417343 -0.07131273
v 0.10723130 0.00004593 -0.06634472
v 0.11920220 0.00004166 -0.06021165
v 0.11953300 -0.00981735 -0.06062669
v 0.08893600 0.01082520 -0.07076756
v 0.06441803 0.01450561 -0.07162016
v 0.08876331 0.00004837 -0.06989048
v 0.10749290 -0.01002029 -0.06697968
v 0.06442741 0.01114105 -0.07100050
v 0.04114056 0.01531097 -0.07003164
v 0.10767360 -0.01327560 -0.06745943
v 0.11982310 -0.01309814 -0.06101254
v 0.08901337 -0.01407486 -0.07133226
v 0.08893600 -0.01072723 -0.07078245
v 0.06441803 -0.01440643 -0.07164014
v 0.06442741 0.00004822 -0.06975719
v 0.06442741 -0.01104279 -0.07101583
v 0.04114056 -0.01521423 -0.07005274
v 0.04120895 0.00004700 -0.06797861
v 0.04120895 0.01144165 -0.06938586
v 0.03014339 0.01587967 -0.06713849
v 0.04120895 -0.01134552 -0.06940160
v 0.03014339 -0.01578690 -0.06716038
v 0.03022236 0.01178848 -0.06544835
v 0.02008240 0.01639999 -0.06449164
v 0.02119297 0.01207352 -0.06221231
v 0.02240051 0.00535950 -0.06105606
v 0.02335701 0.00004166 -0.06014024
v 0.03036098 0.00532242 -0.06426084
v 0.03022236 -0.01169785 -0.06546459
v 0.02008240 -0.01631073 -0.06451425
v 0.02119297 -0.01198746 -0.06222894
v 0.02240051 -0.00527496 -0.06106340
v 0.02335701 0.00004166 -0.06014024
v 0.03036098 -0.00523346 -0.06426813
v 0.10988200 0.01050125 -0.07259399
v 0.12214570 0.01318466 -0.06386106
v 0.10958070 0.01337204 -0.07201252
v 0.12255570 0.01039413 -0.06435062
v 0.12989730 0.01276886 -0.05441391
v 0.12331170 0.00004517 -0.06532264
v 0.11052020 0.00005096 -0.07370152
v 0.10988200 -0.01040070 -0.07260845
v 0.13028890 0.00999573 -0.05465273
v 0.13309360 0.01244736 -0.04575805
v 0.13063290 0.00003799 -0.05490560
v 0.12255570 -0.01030518 -0.06436493
v 0.13350760 0.00972870 -0.04588103
v 0.13553820 0.01091537 -0.03352275
v 0.12214570 -0.01309616 -0.06387924
v 0.10958070 -0.01327240 -0.07203094
v 0.12989730 -0.01269363 -0.05443151
v 0.13028890 -0.00992020 -0.05466649
v 0.13309360 -0.01238403 -0.04577521
v 0.13381530 0.00003174 -0.04597776
v 0.13350760 -0.00966522 -0.04589444
v 0.13553820 -0.01086899 -0.03353781
v 0.13590920 0.00812744 -0.03369457
v 0.13603340 0.00900421 -0.03081776
v 0.13649720 0.00687119 -0.03063722
v 0.13663780 0.00002121 -0.03065564
v 0.13609110 0.00002335 -0.03362351
v 0.13590920 -0.00808075 -0.03370577
v 0.13603340 -0.00896149 -0.03083017
v 0.13649720 -0.00682861 -0.03064669
v 0.13500530 0.01091537 -0.03343289
v 0.13569040 0.00901276 -0.03078995
v 0.13537010 0.00688431 -0.03052756
v 0.13459420 0.00807404 -0.03346923
v 0.13146030 0.01244705 -0.04528030
v 0.13448060 0.00002304 -0.03335192
v 0.13537010 0.00002121 -0.03053230
v 0.13537010 -0.00684204 -0.03053704
v 0.13105200 0.00922790 -0.04516308
v 0.12791760 0.01276642 -0.05295064
v 0.13077740 0.00003113 -0.04508911
v 0.13459420 -0.00802780 -0.03348035
v 0.12754790 0.00951141 -0.05269299
v 0.11982310 0.01318268 -0.06099437
v 0.11953300 0.00990128 -0.06061306
v 0.11920220 0.00004166 -0.06021165
v 0.12724050 0.00003632 -0.05247968
v 0.13500530 -0.01086899 -0.03344794
v 0.13569040 -0.00897018 -0.03080239
v 0.13146030 -0.01238434 -0.04529746
v 0.13105200 -0.00916550 -0.04517579
v 0.12791760 -0.01269318 -0.05296823
v 0.12754790 -0.00943863 -0.05270609
v 0.11953300 -0.00981735 -0.06062669
v 0.11982310 -0.01309814 -0.06101254
v 0.13569040 0.00901276 -0.03078995
v 0.13603340 0.00900421 -0.03081776
v 0.13649720 0.00687119 -0.03063722
v 0.13537010 0.00688431 -0.03052756
v 0.13537010 0.00002121 -0.03053230
v 0.13663780 0.00002121 -0.03065564
v 0.13649720 -0.00682861 -0.03064669
v 0.13537010 -0.00684204 -0.03053704
v 0.13569040 -0.00897018 -0.03080239
v 0.13603340 -0.00896149 -0.03083017
v -0.00486305 -0.01168182 -0.08458541
v -0.00898590 -0.00892731 -0.08458351
v -0.01251083 -0.01245529 -0.08023284
v -0.00677067 -0.01629028 -0.08023549
v 0.00000000 -0.01264923 -0.08458608
v 0.00000000 -0.01763718 -0.08023642
v 0.00677074 -0.01264923 -0.08458608
v -0.00677067 -0.01631012 -0.05148168
v 0.00677074 -0.01781845 -0.08023655
v 0.02008080 -0.01264938 -0.08429644
v 0.00000000 -0.01765716 -0.05148260
v -0.00677067 -0.01634583 0.05162248
v 0.00000000 -0.01769272 0.05162248
v 0.00677074 -0.01650375 -0.05148181
v 0.02008240 -0.01631073 -0.06451425
v 0.00677074 -0.01653946 0.05162248
v 0.02008240 -0.01629944 -0.08096549
v 0.03014339 -0.01578690 -0.06716038
v 0.03008343 -0.01572296 -0.08174375
v 0.03007229 -0.01193268 -0.08365156
v 0.04114056 -0.01521423 -0.07005274
v 0.04119976 -0.01520554 -0.08244230
v 0.06439751 -0.01440002 -0.08124285
v 0.06441803 -0.01440643 -0.07164014
v 0.08901337 -0.01407486 -0.07133226
v 0.09032801 -0.01406998 -0.07794957
v 0.10767360 -0.01327560 -0.06745943
v 0.10958070 -0.01327240 -0.07203094
v 0.11982310 -0.01309814 -0.06101254
v 0.12214570 -0.01309616 -0.06387924
v 0.12791760 -0.01269318 -0.05296823
v 0.12989730 -0.01269363 -0.05443151
v 0.13146030 -0.01238434 -0.04529746
v 0.13309360 -0.01238403 -0.04577521
v 0.13500530 -0.01086899 -0.03344794
v 0.13553820 -0.01086899 -0.03353781
v 0.13569040 -0.00897018 -0.03080239
v 0.13603340 -0.00896149 -0.03083017
v 0.00677074 -0.01650375 -0.05148181
v 0.02119297 -0.01198746 -0.06222894
v 0.02008240 -0.01631073 -0.06451425
v 0.01265861 -0.01262314 -0.05147912
v 0.00677074 -0.01653946 0.05162248
v 0.01656891 -0.00674408 -0.05147506
v 0.02240051 -0.00527496 -0.06106340
v 0.01265861 -0.01265869 0.05162248
v 0.01769268 0.00003555 -0.05147038
v 0.02335701 0.00004166 -0.06014024
v 0.01656891 -0.00677963 0.05162248
v 0.01769268 0.00000000 0.05162248
v 0.02119297 -0.01203049 0.06237273
v 0.02008240 -0.01635544 0.06465504
v 0.02240051 -0.00531723 0.06121183
v 0.02335701 0.00000000 0.06029233
v -0.00486305 0.01174026 0.08472940
v -0.00898590 0.00898575 0.08472940
v -0.01251083 0.01251068 0.08037628
v -0.00677067 0.01634567 0.08037628
v 0.00000000 0.01270767 0.08472940
v 0.00000000 0.01769272 0.08037628
v 0.00677074 0.01270767 0.08472940
v 0.00677074 0.01787399 0.08037628
v 0.02008240 0.01635529 0.06465504
v 0.02008080 0.01270767 0.08443975
v 0.02008240 0.01635529 0.08110627
v 0.03014339 0.01583328 0.06730153
v 0.03008343 0.01577942 0.08188494
v 0.03007229 0.01199051 0.08379538
v 0.04114056 0.01526260 0.07019430
v 0.04119976 0.01526260 0.08258385
v 0.06439751 0.01445618 0.08138496
v 0.06441803 0.01445602 0.07178225
v 0.08901337 0.01412414 0.07147460
v 0.09032801 0.01412384 0.07809190
v 0.10767360 0.01332230 0.06760231
v 0.10958070 0.01332214 0.07217383
v 0.11982310 0.01314041 0.06115555
v 0.12214570 0.01314041 0.06402225
v 0.12791760 0.01272980 0.05311154
v 0.12989730 0.01273117 0.05457482
v 0.13146030 0.01241562 0.04544097
v 0.13309360 0.01241562 0.04591873
v 0.13500530 0.01089218 0.03359250
v 0.13553820 0.01089218 0.03368237
v 0.13569040 0.00899139 0.03094826
v 0.13603340 0.00898285 0.03097605
v 0.04119976 0.01526260 0.08258385
v 0.03007229 0.01199051 0.08379538
v 0.03008343 0.01577942 0.08188494
v 0.04120895 0.01167786 0.08330292
v 0.06439751 0.01445618 0.08138496
v 0.06442741 0.01124527 0.08206341
v 0.09032801 0.01412384 0.07809190
v 0.09044815 0.01086899 0.07867249
v 0.10958070 0.01332214 0.07217383
v 0.10988200 0.01045090 0.07275332
v 0.11052020 0.00000000 0.07385362
v 0.09063759 0.00000000 0.07964285
v 0.06442741 0.00000000 0.08343408
v 0.09044815 -0.01086914 0.07867249
v 0.10988200 -0.01045105 0.07275332
v 0.10958070 -0.01332230 0.07217383
v 0.09032801 -0.01412384 0.07809190
v 0.06442741 -0.01124527 0.08206341
v 0.06439751 -0.01445633 0.08138496
v 0.04120895 -0.01167786 0.08330292
v 0.04119976 -0.01526260 0.08258385
v 0.04120895 0.00000000 0.08485132
v 0.03007229 -0.01199066 0.08379538
v 0.03008343 -0.01577957 0.08188494
v 0.02982643 0.00000000 0.08480116
v 0.02008400 0.00000000 0.08458458
v 0.02008080 0.01270767 0.08443975
v 0.02008080 -0.01270782 0.08443975
v 0.00677074 0.01270767 0.08472940
v 0.00677074 -0.01270782 0.08472940
v 0.00677074 0.00000000 0.08472940
v 0.00000000 0.01270767 0.08472940
v 0.00000000 -0.01270782 0.08472940
v 0.00000000 0.00000000 0.08472940
v -0.00486305 0.01174026 0.08472940
v -0.00486305 -0.01174042 0.08472940
v -0.00898590 0.00898575 0.08472940
v -0.00898590 -0.00898575 0.08472940
v -0.01174053 0.00486298 0.08472940
v -0.01174053 -0.00486313 0.08472940
v -0.01270775 0.00000000 0.08472940
v 0.10767360 0.01332230 0.06760231
v 0.11953300 0.00985931 0.06077198
v 0.11982310 0.01314041 0.06115555
v 0.10749290 0.01006668 0.06712482
v 0.08901337 0.01412414 0.07147460
v 0.10723130 0.00000000 0.06649681
v 0.11920220 0.00000000 0.06036374
v 0.11953300 -0.00985931 0.06077198
v 0.08893600 0.01077621 0.07092711
v 0.06441803 0.01445602 0.07178225
v 0.08876331 0.00000000 0.07004257
v 0.10749290 -0.01006668 0.06712482
v 0.06442741 0.01109192 0.07116027
v 0.04114056 0.01526260 0.07019430
v 0.10767360 -0.01332230 0.06760231
v 0.11982310 -0.01314041 0.06115555
v 0.08901337 -0.01412414 0.07147460
v 0.08893600 -0.01077621 0.07092711
v 0.06441803 -0.01445602 0.07178225
v 0.06442741 0.00000000 0.06990929
v 0.06442741 -0.01109192 0.07116027
v 0.04114056 -0.01526260 0.07019430
v 0.04120895 0.00000000 0.06813072
v 0.04120895 0.01139359 0.06954583
v 0.03014339 0.01583328 0.06730153
v 0.04120895 -0.01139359 0.06954583
v 0.03014339 -0.01583328 0.06730153
v 0.03022236 0.01174316 0.06560857
v 0.02008240 0.01635529 0.06465504
v 0.02119297 0.01203049 0.06237273
v 0.02240051 0.00531723 0.06121183
v 0.02335701 0.00000000 0.06029233
v 0.03036098 0.00527786 0.06441658
v 0.03022236 -0.01174316 0.06560857
v 0.02008240 -0.01635544 0.06465504
v 0.02119297 -0.01203049 0.06237273
v 0.02240051 -0.00531723 0.06121183
v 0.02335701 0.00000000 0.06029233
v 0.03036098 -0.00527801 0.06441658
v 0.10988200 0.01045090 0.07275332
v 0.10958070 0.01332214 0.07217383
v 0.12214570 0.01314041 0.06402225
v 0.12255570 0.01034958 0.06450987
v 0.12989730 0.01273117 0.05457482
v 0.12331170 0.00000000 0.06547474
v 0.11052020 0.00000000 0.07385362
v 0.10988200 -0.01045105 0.07275332
v 0.13028890 0.00995788 0.05481171
v 0.13309360 0.01241562 0.04591873
v 0.13063290 0.00000000 0.05505770
v 0.12255570 -0.01034973 0.06450987
v 0.13350760 0.00969696 0.04603983
v 0.13553820 0.01089218 0.03368237
v 0.12214570 -0.01314041 0.06402225
v 0.10958070 -0.01332230 0.07217383
v 0.12989730 -0.01273132 0.05457482
v 0.13028890 -0.00995804 0.05481171
v 0.13309360 -0.01241577 0.04591873
v 0.13381530 0.00000000 0.04612985
v 0.13350760 -0.00969696 0.04603983
v 0.13553820 -0.01089218 0.03368237
v 0.13590920 0.00810410 0.03385226
v 0.13603340 0.00898285 0.03097605
v 0.13649720 0.00684982 0.03079404
v 0.13663780 0.00000000 0.03080772
v 0.13609110 0.00000000 0.03377560
v 0.13590920 -0.00810410 0.03385226
v 0.13603340 -0.00898285 0.03097605
v 0.13649720 -0.00684998 0.03079404
v 0.13500530 0.01089218 0.03359250
v 0.13537010 0.00686310 0.03068439
v 0.13569040 0.00899139 0.03094826
v 0.13459420 0.00805084 0.03362688
v 0.13146030 0.01241562 0.04544097
v 0.13448060 0.00000000 0.03350401
v 0.13537010 0.00000000 0.03068439
v 0.13537010 -0.00686325 0.03068439
v 0.13105200 0.00919662 0.04532152
v 0.12791760 0.01272980 0.05311154
v 0.13077740 0.00000000 0.04524121
v 0.13459420 -0.00805100 0.03362688
v 0.12754790 0.00947495 0.05285164
v 0.11982310 0.01314041 0.06115555
v 0.11953300 0.00985931 0.06077198
v 0.11920220 0.00000000 0.06036374
v 0.12724050 0.00000000 0.05263177
v 0.13500530 -0.01089218 0.03359250
v 0.13569040 -0.00899155 0.03094826
v 0.13146030 -0.01241577 0.04544097
v 0.13105200 -0.00919678 0.04532152
v 0.12791760 -0.01272980 0.05311154
v 0.12754790 -0.00947510 0.05285164
v 0.11953300 -0.00985931 0.06077198
v 0.11982310 -0.01314041 0.06115555
v 0.13569040 0.00899139 0.03094826
v 0.13649720 0.00684982 0.03079404
v 0.13603340 0.00898285 0.03097605
v 0.13537010 0.00686310 0.03068439
v 0.13537010 0.00000000 0.03068439
v 0.13663780 0.00000000 0.03080772
v 0.13649720 -0.00684998 0.03079404
v 0.13537010 -0.00686325 0.03068439
v 0.13569040 -0.00899155 0.03094826
v 0.13603340 -0.00898285 0.03097605
v -0.00486305 -0.01174042 0.08472940
v -0.01251083 -0.01251083 0.08037628
v -0.00898590 -0.00898575 0.08472940
v -0.00677067 -0.01634583 0.08037628
v 0.00000000 -0.01270782 0.08472940
v 0.00000000 -0.01769272 0.08037628
v 0.00677074 -0.01270782 0.08472940
v 0.00677074 -0.01787399 0.08037628
v 0.02008240 -0.01635544 0.06465504
v 0.02008080 -0.01270782 0.08443975
v 0.02008240 -0.01635544 0.08110627
v 0.03014339 -0.01583328 0.06730153
v 0.03008343 -0.01577957 0.08188494
v 0.03007229 -0.01199066 0.08379538
v 0.04114056 -0.01526260 0.07019430
v 0.04119976 -0.01526260 0.08258385
v 0.06439751 -0.01445633 0.08138496
v 0.06441803 -0.01445602 0.07178225
v 0.08901337 -0.01412414 0.07147460
v 0.09032801 -0.01412384 0.07809190
v 0.10767360 -0.01332230 0.06760231
v 0.10958070 -0.01332230 0.07217383
v 0.11982310 -0.01314041 0.06115555
v 0.12214570 -0.01314041 0.06402225
v 0.12791760 -0.01272980 0.05311154
v 0.12989730 -0.01273132 0.05457482
v 0.13146030 -0.01241577 0.04544097
v 0.13309360 -0.01241577 0.04591873
v 0.13500530 -0.01089218 0.03359250
v 0.13553820 -0.01089218 0.03368237
v 0.13569040 -0.00899155 0.03094826
v 0.13603340 -0.00898285 0.03097605
v -0.00677067 0.01638138 -0.05145908
v -0.00677067 0.01634567 0.05162248
v -0.01251083 0.01251068 0.05162248
v -0.00677067 0.01634567 0.08037628
v -0.01251083 0.01251068 0.08037628
v -0.01251083 0.01254639 -0.05146173
v -0.00677067 0.01640121 -0.08021290
v -0.01251083 0.01256622 -0.08021555
v -0.01634605 0.00677063 0.05162248
v -0.01634605 0.00680618 -0.05146570
v -0.01769264 0.00000000 0.05162248
v -0.01634605 0.00677063 0.08037628
v -0.00898590 0.00898575 0.08472940
v -0.01174053 0.00486298 0.08472940
v -0.01769264 0.00000000 0.08037628
v -0.01270775 0.00000000 0.08472940
v -0.01174053 -0.00486313 0.08472940
v -0.01634605 -0.00677063 0.08037628
v -0.00898590 -0.00898575 0.08472940
v -0.01251083 -0.01251083 0.08037628
v -0.01634605 0.00682617 -0.08021951
v -0.00898590 0.00904419 -0.08457109
v -0.01174053 0.00492157 -0.08457395
v -0.01634605 -0.00677063 0.05162248
v -0.01769264 0.00003555 -0.05147038
v -0.01769264 0.00005554 -0.08022419
v -0.01270775 0.00005844 -0.08457730
v -0.01174053 -0.00480454 -0.08458067
v -0.01634605 -0.00671509 -0.08022887
v -0.00898590 -0.00892731 -0.08458351
v -0.01251083 -0.01245529 -0.08023284
v -0.01634605 -0.00673508 -0.05147506
v -0.01251083 -0.01247513 -0.05147902
v -0.00677067 -0.01629028 -0.08023549
v -0.00677067 -0.01631012 -0.05148168
v -0.01251083 -0.01251083 0.05162248
v -0.00677067 -0.01634583 0.05162248
v -0.00677067 -0.01634583 0.08037628
vn -0.11757390 0.28450980 -0.95143600
vn -0.70199920 0.70210190 -0.11937360
vn -0.21724930 0.21791470 -0.95148090
vn -0.37991370 0.91730610 -0.11922770
vn -0.02758663 0.26775100 -0.96309320
vn -0.06652521 0.98980720 -0.12592120
vn 0.01203380 0.22790660 -0.97360860
vn -0.38268460 0.92387890 0.00038910
vn 0.06803808 0.98970250 -0.12593660
vn 0.02273632 0.21619940 -0.97608440
vn -0.02504016 0.99968210 0.00295120
vn -0.38268550 0.92387860 0.00024979
vn -0.02504014 0.99968390 -0.00225995
vn 0.32267660 0.94630160 0.01982642
vn 0.15005930 0.97946320 0.13466210
vn 0.32267730 0.94631490 -0.01917189
vn 0.06520703 0.98414210 -0.16496190
vn 0.12285620 0.96379540 0.23665360
vn 0.04889784 0.97371780 -0.22244690
vn 0.02144761 0.17779300 -0.98383410
vn 0.08029726 0.95896610 0.27191220
vn 0.04610828 0.96076390 -0.27350830
vn 0.05321111 0.94625780 -0.31900560
vn 0.03294856 0.94839200 0.31538380
vn -0.01282272 0.93195150 0.36235600
vn 0.09958202 0.91515490 -0.39060860
vn -0.11524320 0.89140350 0.43831350
vn 0.22347970 0.86370640 -0.45173880
vn -0.30786600 0.83093460 0.46342870
vn 0.39992980 0.80633460 -0.43575320
vn -0.52249880 0.73921840 0.42491310
vn 0.61680070 0.70785270 -0.34424070
vn -0.76207490 0.55937680 0.32609720
vn 0.80950220 0.55974860 -0.17716620
vn -0.83338460 0.44804870 0.32360870
vn 0.88481240 0.45627710 -0.09443615
vn -0.81114940 0.26683880 0.52041690
vn 0.95044600 0.27564840 0.14377190
vn 0.32267660 0.94630160 0.01982642
vn 0.15005930 0.97946320 0.13466210
vn 0.56928610 0.45759590 0.68302220
vn 0.71078610 0.70100900 0.05804733
vn 0.32267730 0.94631490 -0.01917189
vn 0.92855950 0.36726500 0.05379262
vn 0.62759490 0.25087510 0.73701170
vn 0.71078530 0.70104990 -0.05756210
vn 0.98480620 0.16723340 0.04679452
vn 0.62224810 0.19654530 0.75774490
vn 0.92855950 0.36730200 -0.05353920
vn 0.98480620 0.16726530 -0.04667912
vn 0.56928450 0.45807170 -0.68270450
vn 0.15005610 0.97955660 -0.13398550
vn 0.62759870 0.25138490 -0.73683480
vn 0.62225510 0.19706970 -0.75760290
vn 0.04610828 0.96076390 -0.27350830
vn 0.04889784 0.97371780 -0.22244690
vn 0.02144761 0.17779300 -0.98383410
vn 0.04385721 0.15092650 -0.98757160
vn 0.05321111 0.94625780 -0.31900560
vn 0.09759884 0.13472190 -0.98606510
vn 0.09958202 0.91515490 -0.39060860
vn 0.19972870 0.12586790 -0.97173340
vn 0.22347970 0.86370640 -0.45173880
vn 0.39585780 0.13259170 -0.90868920
vn 0.40074200 0.00063356 -0.91619070
vn 0.20151910 0.00067707 -0.97948440
vn 0.09916127 0.00068755 -0.99507120
vn 0.19972900 -0.12452500 -0.97190630
vn 0.39585740 -0.13133530 -0.90887180
vn 0.22348280 -0.86308380 -0.45292580
vn 0.09957974 -0.91461530 -0.39187100
vn 0.09759816 -0.13335990 -0.98625040
vn 0.05321007 -0.94581690 -0.32031100
vn 0.04385619 -0.14956230 -0.98777920
vn 0.04611064 -0.96038320 -0.27484150
vn 0.04587694 0.00069063 -0.99894680
vn 0.02144800 -0.17643160 -0.98407920
vn 0.04889841 -0.97340610 -0.22380710
vn 0.02220816 0.00069117 -0.99975320
vn 0.01926633 0.00069108 -0.99981420
vn 0.02273632 0.21619940 -0.97608440
vn 0.02273564 -0.21484700 -0.97638300
vn 0.01203380 0.22790660 -0.97360860
vn 0.01203236 -0.22656220 -0.97392240
vn 0.00000000 0.00069118 -0.99999980
vn -0.02758663 0.26775100 -0.96309320
vn -0.02758435 -0.26642340 -0.96346130
vn 0.00000000 0.00069117 -0.99999980
vn -0.11757390 0.28450980 -0.95143600
vn -0.11757020 -0.28319530 -0.95182860
vn -0.21724930 0.21791470 -0.95148090
vn -0.21725510 -0.21660480 -0.95177870
vn -0.28385650 0.11822850 -0.95155000
vn -0.28385780 -0.11691330 -0.95171220
vn -0.30723790 0.00065712 -0.95163250
vn -0.11524320 0.89140350 0.43831350
vn -0.30786600 0.83093460 0.46342870
vn -0.57133210 0.07756384 0.81704560
vn -0.30438690 0.09017067 0.94827100
vn -0.01282272 0.93195150 0.36235600
vn -0.30475410 -0.00065833 0.95243080
vn -0.57219450 -0.00056718 0.82011780
vn -0.57133170 -0.07869450 0.81693780
vn -0.08378599 0.10684620 0.99073900
vn 0.03294856 0.94839200 0.31538380
vn -0.08267759 -0.00068861 0.99657610
vn -0.30438520 -0.09148149 0.94814600
vn 0.03483469 0.12257710 0.99184740
vn 0.08029726 0.95896610 0.27191220
vn -0.11524060 -0.89200450 0.43708990
vn -0.30786310 -0.83157570 0.46227940
vn -0.01282653 -0.93244920 0.36107330
vn -0.08378593 -0.10821500 0.99059050
vn 0.03294848 -0.94882570 0.31407660
vn 0.03587035 -0.00069075 0.99935620
vn 0.03483457 -0.12394810 0.99167700
vn 0.08030216 -0.95934190 0.27058240
vn 0.15666530 -0.00068250 0.98765150
vn 0.15518280 0.14699670 0.97688810
vn 0.12285620 0.96379540 0.23665360
vn 0.15518350 -0.14834680 0.97668390
vn 0.12285940 -0.96412080 0.23532240
vn 0.33381710 0.23416350 0.91309010
vn 0.15005930 0.97946320 0.13466210
vn 0.56928610 0.45759590 0.68302220
vn 0.62759490 0.25087510 0.73701170
vn 0.62224810 0.19654530 0.75774490
vn 0.36854100 0.17099060 0.91375040
vn 0.33381860 -0.23542610 0.91276480
vn 0.15005230 -0.97964920 0.13331060
vn 0.56928590 -0.45854280 0.68238700
vn 0.62760030 -0.25189530 0.73665920
vn 0.62225190 -0.19759160 0.75746970
vn 0.36854330 -0.17225570 0.91351180
vn 0.39585780 0.13259170 -0.90868920
vn 0.39992980 0.80633460 -0.43575320
vn 0.22347970 0.86370640 -0.45173880
vn 0.66257970 0.12605730 -0.73830740
vn 0.61680070 0.70785270 -0.34424070
vn 0.66970750 0.00051318 -0.74262470
vn 0.40074200 0.00063356 -0.91619070
vn 0.39585740 -0.13133530 -0.90887180
vn 0.86332480 0.08723079 -0.49705240
vn 0.80950220 0.55974860 -0.17716620
vn 0.86876180 0.00034185 -0.49523010
vn 0.66257890 -0.12503690 -0.73848160
vn 0.96481190 0.06128945 -0.25569830
vn 0.88481240 0.45627710 -0.09443615
vn 0.39992490 -0.80574340 -0.43684980
vn 0.22348280 -0.86308380 -0.45292580
vn 0.61679100 -0.70739160 -0.34520420
vn 0.86332550 -0.08654432 -0.49717120
vn 0.80950020 -0.55950900 -0.17793030
vn 0.96658370 0.00017578 -0.25635130
vn 0.96481210 -0.06093779 -0.25578140
vn 0.88480890 -0.45615520 -0.09505575
vn 0.98233180 0.05552597 -0.17872070
vn 0.95044600 0.27564840 0.14377190
vn 0.99165480 0.04533456 0.12068810
vn 0.98579340 -0.00011710 0.16796230
vn 0.98279060 0.00012680 -0.18472360
vn 0.98233180 -0.05528045 -0.17879700
vn 0.95044960 -0.27582680 0.14340530
vn 0.99165280 -0.04550041 0.12064190
vn -0.83338460 0.44804870 0.32360870
vn -0.81114940 0.26683880 0.52041690
vn -0.84795020 0.03333965 0.52902630
vn -0.95331740 0.05215994 0.29743100
vn -0.76207490 0.55937680 0.32609720
vn -0.95594880 -0.00020261 0.29353370
vn -0.81926030 -0.00039611 0.57342170
vn -0.84795660 -0.03407149 0.52896960
vn -0.93355190 0.05747483 0.35380430
vn -0.52249880 0.73921840 0.42491310
vn -0.93577460 -0.00024399 0.35259900
vn -0.95331870 -0.05257331 0.29735420
vn -0.79365090 0.06715430 0.60465570
vn -0.30786600 0.83093460 0.46342870
vn -0.57133210 0.07756384 0.81704560
vn -0.57219450 -0.00056718 0.82011780
vn -0.79564040 -0.00041871 0.60576900
vn -0.83337960 -0.44850600 0.32298730
vn -0.81114950 -0.26758920 0.52003130
vn -0.76206710 -0.55983790 0.32532330
vn -0.93355220 -0.05796650 0.35372320
vn -0.52249270 -0.73981740 0.42387670
vn -0.79365120 -0.06799174 0.60456170
vn -0.57133170 -0.07869450 0.81693780
vn -0.30786310 -0.83157570 0.46227940
vn -0.81114940 0.26683880 0.52041690
vn 0.95044600 0.27564840 0.14377190
vn 0.99165480 0.04533456 0.12068810
vn -0.84795020 0.03333965 0.52902630
vn -0.81926030 -0.00039611 0.57342170
vn 0.98579340 -0.00011710 0.16796230
vn 0.99165280 -0.04550041 0.12064190
vn -0.84795660 -0.03407149 0.52896960
vn -0.81114950 -0.26758920 0.52003130
vn 0.95044960 -0.27582680 0.14340530
vn -0.11757020 -0.28319530 -0.95182860
vn -0.21725510 -0.21660480 -0.95177870
vn -0.70199900 -0.70193630 -0.12034460
vn -0.37991150 -0.91714130 -0.12049470
vn -0.02758435 -0.26642340 -0.96346130
vn -0.06651968 -0.98963220 -0.12729180
vn 0.01203236 -0.22656220 -0.97392240
vn -0.38265850 -0.92388980 -0.00038926
vn 0.06803659 -0.98952730 -0.12730590
vn 0.02273564 -0.21484700 -0.97638300
vn -0.02503672 -0.99968430 0.00210849
vn -0.38265750 -0.92389020 -0.00025017
vn -0.02503669 -0.99968270 -0.00279984
vn 0.32265140 -0.94632670 0.01902265
vn 0.15005230 -0.97964920 0.13331060
vn 0.32265090 -0.94631360 -0.01967670
vn 0.06520190 -0.98391290 -0.16632520
vn 0.12285940 -0.96412080 0.23532240
vn 0.04889841 -0.97340610 -0.22380710
vn 0.02144800 -0.17643160 -0.98407920
vn 0.08030216 -0.95934190 0.27058240
vn 0.04611064 -0.96038320 -0.27484150
vn 0.05321007 -0.94581690 -0.32031100
vn 0.03294848 -0.94882570 0.31407660
vn -0.01282653 -0.93244920 0.36107330
vn 0.09957974 -0.91461530 -0.39187100
vn -0.11524060 -0.89200450 0.43708990
vn 0.22348280 -0.86308380 -0.45292580
vn -0.30786310 -0.83157570 0.46227940
vn 0.39992490 -0.80574340 -0.43684980
vn -0.52249270 -0.73981740 0.42387670
vn 0.61679100 -0.70739160 -0.34520420
vn -0.76206710 -0.55983790 0.32532330
vn 0.80950020 -0.55950900 -0.17793030
vn -0.83337960 -0.44850600 0.32298730
vn 0.88480890 -0.45615520 -0.09505575
vn -0.81114950 -0.26758920 0.52003130
vn 0.95044960 -0.27582680 0.14340530
vn 0.32265140 -0.94632670 0.01902265
vn 0.56928590 -0.45854280 0.68238700
vn 0.15005230 -0.97964920 0.13331060
vn 0.71072330 -0.70111660 0.05751335
vn 0.32265090 -0.94631360 -0.01967670
vn 0.92851580 -0.36741630 0.05351340
vn 0.62760030 -0.25189530 0.73665920
vn 0.71072400 -0.70107610 -0.05799706
vn 0.98480270 -0.16729550 0.04664693
vn 0.62225190 -0.19759160 0.75746970
vn 0.92851600 -0.36737880 -0.05376710
vn 0.98480270 -0.16726330 -0.04676241
vn 0.56928860 -0.45806890 -0.68270300
vn 0.15005590 -0.97955640 -0.13398640
vn 0.62759540 -0.25138380 -0.73683800
vn 0.62224750 -0.19706740 -0.75760980
vn -0.11757140 0.28385220 0.95163270
vn -0.21725220 0.21725940 0.95163010
vn -0.70199770 0.70202060 0.11986000
vn -0.37991650 0.91722220 0.11986180
vn -0.02758650 0.26708910 0.96327690
vn -0.06652503 0.98971950 0.12660840
vn 0.01203343 0.22723520 0.97376550
vn 0.06804135 0.98961480 0.12662060
vn 0.15005610 0.97955660 -0.13398550
vn 0.02273627 0.21552420 0.97623380
vn 0.06520540 0.98402770 0.16564330
vn 0.12285330 0.96395990 -0.23598380
vn 0.04889417 0.97356220 0.22312800
vn 0.02144718 0.17711340 0.98395680
vn 0.08029909 0.95915510 -0.27124480
vn 0.04610875 0.96057320 0.27417720
vn 0.05321085 0.94603650 0.31966170
vn 0.03294893 0.94861020 -0.31472660
vn -0.01282443 0.93220450 -0.36170460
vn 0.09958190 0.91488270 0.39124560
vn -0.11524070 0.89171290 -0.43768440
vn 0.22348510 0.86338560 0.45234900
vn -0.30786410 0.83125900 -0.46284790
vn 0.39993190 0.80603220 0.43631000
vn -0.52249190 0.73951950 -0.42439740
vn 0.61680230 0.70761500 0.34472610
vn -0.76207410 0.55960620 -0.32570530
vn 0.80949820 0.55963300 0.17754890
vn -0.83338610 0.44827310 -0.32329390
vn 0.88480660 0.45622470 0.09474409
vn -0.81115220 0.26719360 -0.52023050
vn 0.95045130 0.27573110 -0.14357810
vn 0.04610875 0.96057320 0.27417720
vn 0.02144718 0.17711340 0.98395680
vn 0.04889417 0.97356220 0.22312800
vn 0.04385630 0.15024460 0.98767570
vn 0.05321085 0.94603650 0.31966170
vn 0.09759846 0.13404110 0.98615800
vn 0.09958190 0.91488270 0.39124560
vn 0.19972990 0.12519710 0.97181980
vn 0.22348510 0.86338560 0.45234900
vn 0.39585910 0.13196480 0.90877990
vn 0.40074360 0.00000000 0.91619030
vn 0.20151980 0.00000000 0.97948450
vn 0.09916127 0.00000000 0.99507140
vn 0.19972850 -0.12519610 0.97182020
vn 0.39585720 -0.13196340 0.90878090
vn 0.22347760 -0.86339740 0.45233050
vn 0.09958048 -0.91488340 0.39124430
vn 0.09759859 -0.13404090 0.98615800
vn 0.05321043 -0.94603760 0.31965840
vn 0.04385690 -0.15024440 0.98767570
vn 0.04611020 -0.96057420 0.27417360
vn 0.04587687 0.00000000 0.99894710
vn 0.02144798 -0.17711230 0.98395700
vn 0.04890171 -0.97356230 0.22312590
vn 0.02220803 0.00000000 0.99975340
vn 0.01926636 0.00000000 0.99981450
vn 0.02273627 0.21552420 0.97623380
vn 0.02273545 -0.21552260 0.97623410
vn 0.01203343 0.22723520 0.97376550
vn 0.01203266 -0.22723420 0.97376590
vn 0.00000000 0.00000000 1.00000000
vn -0.02758650 0.26708910 0.96327690
vn -0.02758433 -0.26708790 0.96327730
vn 0.00000000 0.00000000 1.00000000
vn -0.11757140 0.28385220 0.95163270
vn -0.11757090 -0.28385090 0.95163320
vn -0.21725220 0.21725940 0.95163010
vn -0.21725020 -0.21725460 0.95163160
vn -0.28385580 0.11757050 0.95163180
vn -0.28385800 -0.11757240 0.95163090
vn -0.30723780 0.00000032 0.95163280
vn -0.11524070 0.89171290 -0.43768440
vn -0.57133040 0.07812843 -0.81699300
vn -0.30786410 0.83125900 -0.46284790
vn -0.30438560 0.09082580 -0.94820890
vn -0.01282443 0.93220450 -0.36170460
vn -0.30475290 0.00000016 -0.95243140
vn -0.57219450 0.00000000 -0.82011790
vn -0.57133160 -0.07812846 -0.81699200
vn -0.08378605 0.10753070 -0.99066500
vn 0.03294893 0.94861020 -0.31472660
vn -0.08267725 0.00000000 -0.99657640
vn -0.30438690 -0.09082587 -0.94820850
vn 0.03483468 0.12326240 -0.99176250
vn 0.08029909 0.95915510 -0.27124480
vn -0.11524400 -0.89170270 -0.43770440
vn -0.30786510 -0.83125620 -0.46285220
vn -0.01282510 -0.93220160 -0.36171240
vn -0.08378606 -0.10753030 -0.99066500
vn 0.03294813 -0.94860790 -0.31473400
vn 0.03587046 0.00000000 -0.99935640
vn 0.03483471 -0.12326220 -0.99176250
vn 0.08030029 -0.95915280 -0.27125250
vn 0.15666570 0.00000000 -0.98765170
vn 0.15518280 0.14767170 -0.97678630
vn 0.12285330 0.96395990 -0.23598380
vn 0.15518360 -0.14767280 -0.97678590
vn 0.12286170 -0.96395730 -0.23598990
vn 0.33381690 0.23479390 -0.91292830
vn 0.15005610 0.97955660 -0.13398550
vn 0.56928450 0.45807170 -0.68270450
vn 0.62759870 0.25138490 -0.73683480
vn 0.62225510 0.19706970 -0.75760290
vn 0.36854360 0.17162490 -0.91363040
vn 0.33381710 -0.23479490 -0.91292790
vn 0.15005590 -0.97955640 -0.13398640
vn 0.56928860 -0.45806890 -0.68270300
vn 0.62759540 -0.25138380 -0.73683800
vn 0.62224750 -0.19706740 -0.75760980
vn 0.36854090 -0.17162380 -0.91363170
vn 0.39585910 0.13196480 0.90877990
vn 0.22348510 0.86338560 0.45234900
vn 0.39993190 0.80603220 0.43631000
vn 0.66258040 0.12554900 0.73839320
vn 0.61680230 0.70761500 0.34472610
vn 0.66970770 0.00000016 0.74262480
vn 0.40074360 0.00000000 0.91619030
vn 0.39585720 -0.13196340 0.90878090
vn 0.86332640 0.08688816 0.49710980
vn 0.80949820 0.55963300 0.17754890
vn 0.86876260 0.00000000 0.49522870
vn 0.66257860 -0.12554800 0.73839500
vn 0.96481250 0.06111214 0.25573860
vn 0.88480660 0.45622470 0.09474409
vn 0.39992080 -0.80604240 0.43630150
vn 0.22347760 -0.86339740 0.45233050
vn 0.61678860 -0.70762640 0.34472700
vn 0.86332510 -0.08688790 0.49711190
vn 0.80950120 -0.55962880 0.17754820
vn 0.96658400 0.00000000 0.25635010
vn 0.96481230 -0.06111126 0.25573940
vn 0.88481240 -0.45621260 0.09474803
vn 0.98233190 0.05540105 0.17875830
vn 0.95045130 0.27573110 -0.14357810
vn 0.99165450 0.04541615 -0.12065950
vn 0.98579380 0.00000000 -0.16796080
vn 0.98279060 0.00000018 0.18472320
vn 0.98233220 -0.05539969 0.17875810
vn 0.95045110 -0.27571970 -0.14360170
vn 0.99165350 -0.04541674 -0.12066750
vn -0.83338610 0.44827310 -0.32329390
vn -0.84795430 0.03370611 -0.52899650
vn -0.81115220 0.26719360 -0.52023050
vn -0.95331870 0.05236535 -0.29739050
vn -0.76207410 0.55960620 -0.32570530
vn -0.95594890 0.00000015 -0.29353300
vn -0.81926140 0.00000000 -0.57342010
vn -0.84795450 -0.03370549 -0.52899630
vn -0.93355250 0.05772057 -0.35376280
vn -0.52249190 0.73951950 -0.42439740
vn -0.93577410 0.00000025 -0.35260000
vn -0.95331820 -0.05236478 -0.29739250
vn -0.79365060 0.06757339 -0.60460940
vn -0.30786410 0.83125900 -0.46284790
vn -0.57133040 0.07812843 -0.81699300
vn -0.57219450 0.00000000 -0.82011790
vn -0.79564020 0.00000000 -0.60576950
vn -0.83338040 -0.44828330 -0.32329420
vn -0.81114940 -0.26722220 -0.52022000
vn -0.76206840 -0.55961350 -0.32570620
vn -0.93355190 -0.05771965 -0.35376430
vn -0.52249870 -0.73952110 -0.42438620
vn -0.79365100 -0.06757335 -0.60460900
vn -0.57133160 -0.07812846 -0.81699200
vn -0.30786510 -0.83125620 -0.46285220
vn -0.81115220 0.26719360 -0.52023050
vn 0.99165450 0.04541615 -0.12065950
vn 0.95045130 0.27573110 -0.14357810
vn -0.84795430 0.03370611 -0.52899650
vn -0.81926140 0.00000000 -0.57342010
vn 0.98579380 0.00000000 -0.16796080
vn 0.99165350 -0.04541674 -0.12066750
vn -0.84795450 -0.03370549 -0.52899630
vn -0.81114940 -0.26722220 -0.52022000
vn 0.95045110 -0.27571970 -0.14360170
vn -0.11757090 -0.28385090 0.95163320
vn -0.70200280 -0.70201540 0.11985960
vn -0.21725020 -0.21725460 0.95163160
vn -0.37990810 -0.91722560 0.11986250
vn -0.02758433 -0.26708790 0.96327730
vn -0.06651950 -0.98972020 0.12660580
vn 0.01203266 -0.22723420 0.97376590
vn 0.06803334 -0.98961560 0.12661940
vn 0.15005590 -0.97955640 -0.13398640
vn 0.02273545 -0.21552260 0.97623410
vn 0.06520340 -0.98402820 0.16564120
vn 0.12286170 -0.96395730 -0.23598990
vn 0.04890171 -0.97356230 0.22312590
vn 0.02144798 -0.17711230 0.98395700
vn 0.08030029 -0.95915280 -0.27125250
vn 0.04611020 -0.96057420 0.27417360
vn 0.05321043 -0.94603760 0.31965840
vn 0.03294813 -0.94860790 -0.31473400
vn -0.01282510 -0.93220160 -0.36171240
vn 0.09958048 -0.91488340 0.39124430
vn -0.11524400 -0.89170270 -0.43770440
vn 0.22347760 -0.86339740 0.45233050
vn -0.30786510 -0.83125620 -0.46285220
vn 0.39992080 -0.80604240 0.43630150
vn -0.52249870 -0.73952110 -0.42438620
vn 0.61678860 -0.70762640 0.34472700
vn -0.76206840 -0.55961350 -0.32570620
vn 0.80950120 -0.55962880 0.17754820
vn -0.83338040 -0.44828330 -0.32329420
vn 0.88481240 -0.45621260 0.09474803
vn -0.81114940 -0.26722220 -0.52022000
vn 0.95045110 -0.27571970 -0.14360170
vn -0.38268460 0.92387890 0.00038910
vn -0.38268550 0.92387860 0.00024979
vn -0.70711550 0.70709800 0.00019123
vn -0.37991650 0.91722220 0.11986180
vn -0.70199770 0.70202060 0.11986000
vn -0.70711590 0.70709760 0.00029786
vn -0.37991370 0.91730610 -0.11922770
vn -0.70199920 0.70210190 -0.11937360
vn -0.92390050 0.38263270 0.00010330
vn -0.92390070 0.38263230 0.00016131
vn -1.00000000 -0.00003860 0.00000000
vn -0.91722620 0.37990710 0.11986080
vn -0.21725220 0.21725940 0.95163010
vn -0.28385580 0.11757050 0.95163180
vn -0.99279070 0.00000000 0.11986100
vn -0.30723780 0.00000032 0.95163280
vn -0.28385800 -0.11757240 0.95163090
vn -0.91722790 -0.37990330 0.11986020
vn -0.21725020 -0.21725460 0.95163160
vn -0.70200280 -0.70201540 0.11985960
vn -0.91722640 0.37998980 -0.11959660
vn -0.21724930 0.21791470 -0.95148090
vn -0.28385650 0.11822850 -0.95155000
vn -0.92387400 -0.38269680 -0.00010331
vn -1.00000000 -0.00003866 0.00000000
vn -0.99279070 0.00008439 -0.11986110
vn -0.30723790 0.00065712 -0.95163250
vn -0.28385780 -0.11691330 -0.95171220
vn -0.91722750 -0.37982090 -0.12012390
vn -0.21725510 -0.21660480 -0.95177870
vn -0.70199900 -0.70193630 -0.12034460
vn -0.92387380 -0.38269720 -0.00016111
vn -0.70707810 -0.70713530 -0.00029783
vn -0.37991150 -0.91714130 -0.12049470
vn -0.38265850 -0.92388980 -0.00038926
vn -0.70707880 -0.70713460 -0.00019143
vn -0.38265750 -0.92389020 -0.00025017
vn -0.37990810 -0.91722560 0.11986250
vt -19.34872000 0.88509520
vt -19.36093000 0.87814610
vt -19.35530000 0.88509800
vt -19.35177000 0.87814200
vt -19.34096000 0.88509400
vt -19.34096000 0.87814040
vt -19.33015000 0.88509400
vt -19.35177000 0.83224830
vt -19.33015000 0.87814040
vt -19.30891000 0.88463170
vt -19.34096000 0.83224670
vt -19.35177000 0.66772030
vt -19.34096000 0.66772030
vt -19.33015000 0.83224790
vt -19.30891000 0.85304930
vt -19.33015000 0.66772030
vt -19.30891000 0.87930720
vt -19.29285000 0.85727410
vt -19.29295000 0.88055040
vt -19.29296000 0.88360400
vt -19.27530000 0.86189180
vt -19.27520000 0.88166690
vt -19.23818000 0.87975400
vt -19.23814000 0.86442710
vt -19.19889000 0.86393650
vt -19.19679000 0.87449840
vt -19.16910000 0.85775700
vt -19.16606000 0.86505330
vt -19.14971000 0.84746770
vt -19.14600000 0.85204280
vt -19.13679000 0.83462870
vt -19.13363000 0.83696450
vt -19.13114000 0.82238630
vt -19.12853000 0.82314870
vt -19.12548000 0.80347660
vt -19.12463000 0.80362020
vt -19.12439000 0.79925830
vt -19.12384000 0.79930290
vt -19.48515000 0.59983840
vt -19.48546000 0.57673010
vt -19.49313000 0.58077160
vt -19.49203000 0.59983340
vt -19.48521000 0.78261160
vt -19.50245000 0.59982620
vt -19.50503000 0.58282180
vt -19.49209000 0.78261160
vt -19.51447000 0.59981810
vt -19.51446000 0.58444540
vt -19.50251000 0.78261160
vt -19.51453000 0.78261160
vt -19.49320000 0.80167260
vt -19.48553000 0.80571940
vt -19.50511000 0.79961430
vt -19.51453000 0.79798390
vt -19.63930000 0.69464780
vt -19.64011000 0.71216790
vt -19.63414000 0.71218550
vt -19.63365000 0.69463340
vt -19.63803000 0.65808660
vt -19.63297000 0.65803940
vt -19.63750000 0.61721750
vt -19.63237000 0.61702850
vt -19.63623000 0.58687370
vt -19.63171000 0.58639870
vt -19.61523000 0.58539280
vt -19.61524000 0.61672980
vt -19.61525000 0.65803940
vt -19.59811000 0.61702850
vt -19.59876000 0.58639870
vt -19.59424000 0.58687370
vt -19.59298000 0.61721750
vt -19.59752000 0.65803940
vt -19.59246000 0.65808660
vt -19.59684000 0.69463340
vt -19.59119000 0.69464780
vt -19.61525000 0.69463340
vt -19.59635000 0.71218550
vt -19.59037000 0.71216790
vt -19.61525000 0.71257310
vt -19.61525000 0.72792850
vt -19.63527000 0.72793330
vt -19.59522000 0.72793330
vt -19.63527000 0.74891080
vt -19.59522000 0.74891080
vt -19.61525000 0.74891080
vt -19.63527000 0.75958180
vt -19.59522000 0.75958180
vt -19.61525000 0.75958180
vt -19.63375000 0.76724700
vt -19.59674000 0.76724700
vt -19.62941000 0.77374460
vt -19.60108000 0.77374460
vt -19.62291000 0.77808620
vt -19.60758000 0.77808620
vt -19.61525000 0.77961030
vt -19.79255000 0.58780200
vt -19.79285000 0.56838270
vt -19.79810000 0.56884650
vt -19.79776000 0.58809070
vt -19.79127000 0.61762740
vt -19.81385000 0.58850880
vt -19.81386000 0.56937530
vt -19.82961000 0.56884650
vt -19.79662000 0.61775090
vt -19.79074000 0.65693920
vt -19.81385000 0.61802700
vt -19.82994000 0.58809070
vt -19.79612000 0.65692410
vt -19.78945000 0.69414470
vt -19.83514000 0.58780200
vt -19.83486000 0.56838270
vt -19.83642000 0.61762740
vt -19.83107000 0.61775090
vt -19.83695000 0.65693920
vt -19.81385000 0.65692410
vt -19.83157000 0.65692410
vt -19.83824000 0.69414470
vt -19.81385000 0.69403550
vt -19.79564000 0.69403550
vt -19.78854000 0.71172200
vt -19.83206000 0.69403550
vt -19.83916000 0.71172200
vt -19.79508000 0.71159580
vt -19.78771000 0.72780300
vt -19.79463000 0.72602790
vt -19.80536000 0.72409800
vt -19.81386000 0.72256900
vt -19.80542000 0.71137420
vt -19.83262000 0.71159580
vt -19.83999000 0.72780300
vt -19.83308000 0.72602790
vt -19.82236000 0.72409800
vt -19.81386000 0.72256900
vt -19.82229000 0.71137420
vt -19.94066000 0.82532040
vt -19.93595000 0.84066100
vt -19.93562000 0.82634200
vt -19.94085000 0.83980100
vt -19.93668000 0.85725580
vt -19.95903000 0.83809330
vt -19.95902000 0.82337490
vt -19.97738000 0.82529500
vt -19.94155000 0.85683620
vt -19.93724000 0.87246110
vt -19.95904000 0.85639210
vt -19.97721000 0.83977560
vt -19.94202000 0.87224470
vt -19.93994000 0.89395370
vt -19.98211000 0.84062890
vt -19.98242000 0.82630940
vt -19.98141000 0.85722490
vt -19.97654000 0.85681210
vt -19.98086000 0.87243080
vt -19.95905000 0.87207510
vt -19.97609000 0.87222150
vt -19.97820000 0.89392730
vt -19.94483000 0.89365200
vt -19.94329000 0.89870510
vt -19.94704000 0.89902240
vt -19.95907000 0.89899030
vt -19.95907000 0.89377650
vt -19.97330000 0.89363240
vt -19.97485000 0.89868370
vt -19.97111000 0.89900590
vt -19.76955000 0.89069620
vt -19.77277000 0.88622110
vt -19.77638000 0.88577680
vt -19.77436000 0.89075770
vt -19.76696000 0.91075600
vt -19.78799000 0.89055890
vt -19.78800000 0.88578480
vt -19.79962000 0.88579270
vt -19.77241000 0.91055770
vt -19.76642000 0.92374350
vt -19.78798000 0.91043230
vt -19.80163000 0.89077640
vt -19.77193000 0.92330720
vt -19.76571000 0.93736310
vt -19.77127000 0.93671760
vt -19.78796000 0.93603790
vt -19.78797000 0.92294610
vt -19.80644000 0.89072160
vt -19.80322000 0.88624210
vt -19.80900000 0.91078510
vt -19.80355000 0.91057920
vt -19.80953000 0.92377330
vt -19.80401000 0.92332940
vt -19.80466000 0.93674060
vt -19.81021000 0.93739380
vt -19.65750000 0.90736900
vt -19.65697000 0.90735540
vt -19.65624000 0.90401110
vt -19.65801000 0.90403190
vt -19.65801000 0.89327110
vt -19.65602000 0.89327110
vt -19.65624000 0.88253130
vt -19.65801000 0.88251010
vt -19.65750000 0.87917350
vt -19.65697000 0.87918720
vt -19.88678000 0.11491020
vt -19.89336000 0.11491330
vt -19.89899000 0.12185750
vt -19.88983000 0.12185320
vt -19.87902000 0.11490920
vt -19.87902000 0.12185180
vt -19.86821000 0.11490920
vt -19.88983000 0.16774800
vt -19.86821000 0.12185160
vt -19.84697000 0.11537150
vt -19.87902000 0.16774660
vt -19.88983000 0.33231540
vt -19.87902000 0.33231540
vt -19.86821000 0.16774780
vt -19.84696000 0.14694630
vt -19.86821000 0.33231540
vt -19.84696000 0.12068810
vt -19.83091000 0.14272280
vt -19.83100000 0.11944590
vt -19.83102000 0.11640080
vt -19.81335000 0.13810620
vt -19.81326000 0.11833090
vt -19.77623000 0.12024530
vt -19.77620000 0.13557250
vt -19.73694000 0.13606400
vt -19.73484000 0.12550180
vt -19.70716000 0.14224550
vt -19.70411000 0.13494880
vt -19.68777000 0.15253560
vt -19.68406000 0.14795990
vt -19.67484000 0.16537520
vt -19.67169000 0.16303970
vt -19.66919000 0.17761890
vt -19.66658000 0.17685630
vt -19.66353000 0.19653220
vt -19.66268000 0.19638870
vt -19.66244000 0.20075480
vt -19.66189000 0.20071040
vt -19.54380000 0.59979780
vt -19.53579000 0.58074180
vt -19.54346000 0.57669000
vt -19.53692000 0.59980240
vt -19.54386000 0.78261160
vt -19.52649000 0.59980960
vt -19.52389000 0.58280870
vt -19.53698000 0.78261160
vt -19.51447000 0.59981810
vt -19.51446000 0.58444540
vt -19.52656000 0.78261160
vt -19.51453000 0.78261160
vt -19.53587000 0.80167260
vt -19.54353000 0.80571940
vt -19.52396000 0.79961430
vt -19.51453000 0.79798390
vt -19.34872000 0.61487860
vt -19.35530000 0.61487860
vt -19.36093000 0.62182650
vt -19.35177000 0.62182650
vt -19.34096000 0.61487860
vt -19.34096000 0.62182650
vt -19.33015000 0.61487860
vt -19.33015000 0.62182650
vt -19.30891000 0.64691920
vt -19.30891000 0.61534090
vt -19.30891000 0.62066140
vt -19.29285000 0.64269520
vt -19.29295000 0.61941840
vt -19.29296000 0.61636930
vt -19.27530000 0.63807790
vt -19.27520000 0.61830280
vt -19.23818000 0.62021650
vt -19.23814000 0.63554330
vt -19.19889000 0.63603450
vt -19.19679000 0.62547250
vt -19.16910000 0.64221510
vt -19.16606000 0.63491850
vt -19.14971000 0.65250450
vt -19.14600000 0.64792900
vt -19.13679000 0.66534350
vt -19.13363000 0.66300800
vt -19.13114000 0.67758670
vt -19.12853000 0.67682390
vt -19.12548000 0.69649800
vt -19.12463000 0.69635440
vt -19.12439000 0.70071830
vt -19.12384000 0.70067410
vt -19.68965000 0.69464700
vt -19.69481000 0.71218500
vt -19.68884000 0.71216740
vt -19.69530000 0.69463250
vt -19.69092000 0.65808520
vt -19.69598000 0.65803800
vt -19.69144000 0.61721630
vt -19.69658000 0.61702690
vt -19.69271000 0.58687250
vt -19.69723000 0.58639740
vt -19.71371000 0.58539170
vt -19.71371000 0.61672840
vt -19.71371000 0.65803800
vt -19.73083000 0.61702690
vt -19.73018000 0.58639740
vt -19.73470000 0.58687250
vt -19.73597000 0.61721630
vt -19.73143000 0.65803800
vt -19.73649000 0.65808520
vt -19.73211000 0.69463250
vt -19.73776000 0.69464700
vt -19.71371000 0.69463250
vt -19.73260000 0.71218500
vt -19.73857000 0.71216740
vt -19.71371000 0.71257240
vt -19.71371000 0.72792720
vt -19.69368000 0.72793240
vt -19.73373000 0.72793240
vt -19.69368000 0.74891030
vt -19.73373000 0.74891030
vt -19.71371000 0.74891030
vt -19.69368000 0.75958150
vt -19.73373000 0.75958150
vt -19.71371000 0.75958150
vt -19.69520000 0.76724620
vt -19.73221000 0.76724620
vt -19.69954000 0.77374420
vt -19.72787000 0.77374420
vt -19.70604000 0.77808560
vt -19.72137000 0.77808560
vt -19.71371000 0.77961010
vt -19.93698000 0.58780150
vt -19.93145000 0.56884620
vt -19.93669000 0.56838240
vt -19.93178000 0.58809060
vt -19.93826000 0.61762740
vt -19.91569000 0.58850890
vt -19.91569000 0.56937490
vt -19.89993000 0.56884620
vt -19.93291000 0.61775170
vt -19.93880000 0.65693990
vt -19.91569000 0.61802700
vt -19.89960000 0.58809060
vt -19.93342000 0.65692530
vt -19.94008000 0.69414640
vt -19.89439000 0.58780150
vt -19.89468000 0.56838240
vt -19.89311000 0.61762740
vt -19.89846000 0.61775170
vt -19.89258000 0.65693990
vt -19.91569000 0.65692530
vt -19.89796000 0.65692530
vt -19.89129000 0.69414640
vt -19.91569000 0.69403670
vt -19.93390000 0.69403670
vt -19.94099000 0.71172340
vt -19.89748000 0.69403670
vt -19.89038000 0.71172340
vt -19.93446000 0.71159750
vt -19.94183000 0.72780510
vt -19.93492000 0.72602960
vt -19.92419000 0.72409990
vt -19.91569000 0.72257130
vt -19.92412000 0.71137580
vt -19.89692000 0.71159750
vt -19.88955000 0.72780510
vt -19.89646000 0.72602960
vt -19.90719000 0.72409990
vt -19.91569000 0.72257130
vt -19.90725000 0.71137580
vt -19.85477000 0.89707880
vt -19.84973000 0.89606080
vt -19.85004000 0.88174180
vt -19.85495000 0.88259830
vt -19.85076000 0.86514620
vt -19.87313000 0.88429280
vt -19.87313000 0.89901170
vt -19.89149000 0.89707880
vt -19.85563000 0.86556210
vt -19.85132000 0.84994080
vt -19.87313000 0.86599420
vt -19.89131000 0.88259830
vt -19.85609000 0.85015320
vt -19.85399000 0.82844600
vt -19.89621000 0.88174180
vt -19.89653000 0.89606080
vt -19.89549000 0.86514620
vt -19.89062000 0.86556210
vt -19.89494000 0.84994080
vt -19.87313000 0.85031170
vt -19.89016000 0.85015320
vt -19.89226000 0.82844600
vt -19.85889000 0.82874460
vt -19.85735000 0.82369190
vt -19.86110000 0.82337240
vt -19.87313000 0.82339640
vt -19.87313000 0.82860980
vt -19.88736000 0.82874460
vt -19.88890000 0.82369190
vt -19.88516000 0.82337240
vt -19.68572000 0.93243910
vt -19.69254000 0.93736330
vt -19.68894000 0.93691650
vt -19.69053000 0.93238100
vt -19.68314000 0.91237680
vt -19.70416000 0.93258910
vt -19.70416000 0.93736330
vt -19.71579000 0.93736330
vt -19.68859000 0.91257900
vt -19.68261000 0.89938890
vt -19.70416000 0.91271520
vt -19.71780000 0.93238100
vt -19.68812000 0.89982900
vt -19.68192000 0.88576850
vt -19.68747000 0.88641790
vt -19.70416000 0.88710900
vt -19.70416000 0.90020110
vt -19.72261000 0.93243910
vt -19.71939000 0.93691650
vt -19.72519000 0.91237680
vt -19.71974000 0.91257900
vt -19.72572000 0.89938890
vt -19.72021000 0.89982900
vt -19.72086000 0.88641790
vt -19.72641000 0.88576850
vt -19.64607000 0.87920470
vt -19.64481000 0.88255560
vt -19.64554000 0.87921820
vt -19.64657000 0.88253410
vt -19.64657000 0.89327220
vt -19.64459000 0.89327220
vt -19.64481000 0.90398870
vt -19.64657000 0.90400930
vt -19.64607000 0.90733880
vt -19.64554000 0.90732530
vt -19.88678000 0.38515840
vt -19.89899000 0.37821030
vt -19.89336000 0.38515840
vt -19.88983000 0.37821030
vt -19.87902000 0.38515840
vt -19.87902000 0.37821030
vt -19.86821000 0.38515840
vt -19.86821000 0.37821030
vt -19.84696000 0.35311710
vt -19.84697000 0.38469610
vt -19.84696000 0.37937540
vt -19.83091000 0.35734130
vt -19.83100000 0.38061820
vt -19.83102000 0.38366760
vt -19.81335000 0.36195850
vt -19.81326000 0.38173380
vt -19.77623000 0.37982030
vt -19.77620000 0.36449310
vt -19.73694000 0.36400200
vt -19.73484000 0.37456400
vt -19.70716000 0.35782130
vt -19.70411000 0.36511800
vt -19.68777000 0.34753150
vt -19.68406000 0.35210710
vt -19.67484000 0.33469220
vt -19.67169000 0.33702770
vt -19.66919000 0.32244900
vt -19.66658000 0.32321160
vt -19.66353000 0.30353740
vt -19.66268000 0.30368070
vt -19.66244000 0.29931680
vt -19.66189000 0.29936120
vt -19.47914000 0.34114540
vt -19.47920000 0.15888370
vt -19.48598000 0.15888370
vt -19.47920000 0.10804330
vt -19.48598000 0.10804330
vt -19.48592000 0.34115010
vt -19.47910000 0.39198580
vt -19.48588000 0.39199050
vt -19.49613000 0.15888370
vt -19.49607000 0.34115710
vt -19.50810000 0.15888370
vt -19.49613000 0.10804330
vt -19.49221000 0.10034650
vt -19.49950000 0.10034650
vt -19.50810000 0.10804330
vt -19.50810000 0.10034650
vt -19.51670000 0.10034650
vt -19.52007000 0.10804330
vt -19.52399000 0.10034650
vt -19.53022000 0.10804330
vt -19.49603000 0.39199750
vt -19.49211000 0.39969160
vt -19.49940000 0.39969680
vt -19.52007000 0.15888370
vt -19.50804000 0.34116540
vt -19.50800000 0.39200590
vt -19.50800000 0.39970260
vt -19.51660000 0.39970870
vt -19.51998000 0.39201410
vt -19.52389000 0.39971360
vt -19.53012000 0.39202110
vt -19.52001000 0.34117370
vt -19.53016000 0.34118070
vt -19.53691000 0.39202580
vt -19.53694000 0.34118540
vt -19.53022000 0.15888370
vt -19.53700000 0.15888370
vt -19.53700000 0.10804330
f 3/3/3 2/2/2 1/1/1
f 2/2/2 4/4/4 1/1/1
f 1/1/1 4/4/4 5/5/5
f 4/4/4 6/6/6 5/5/5
f 5/5/5 6/6/6 7/7/7
f 4/4/4 8/8/8 6/6/6
f 6/6/6 9/9/9 7/7/7
f 7/7/7 9/9/9 10/10/10
f 8/8/8 11/11/11 6/6/6
f 6/6/6 11/11/11 9/9/9
f 8/8/8 12/12/12 11/11/11
f 12/12/12 13/13/13 11/11/11
f 11/11/11 14/14/14 9/9/9
f 11/11/11 13/13/13 14/14/14
f 14/14/14 15/15/15 9/9/9
f 13/13/13 16/16/16 14/14/14
f 15/15/15 17/17/17 9/9/9
f 9/9/9 17/17/17 10/10/10
f 17/17/17 15/15/15 18/18/18
f 10/10/10 17/17/17 19/19/19
f 19/19/19 17/17/17 18/18/18
f 20/20/20 10/10/10 19/19/19
f 19/19/19 18/18/18 21/21/21
f 22/22/22 19/19/19 21/21/21
f 23/23/23 22/22/22 21/21/21
f 24/24/24 23/23/23 21/21/21
f 24/24/24 25/25/25 23/23/23
f 25/25/25 26/26/26 23/23/23
f 25/25/25 27/27/27 26/26/26
f 27/27/27 28/28/28 26/26/26
f 27/27/27 29/29/29 28/28/28
f 29/29/29 30/30/30 28/28/28
f 29/29/29 31/31/31 30/30/30
f 31/31/31 32/32/32 30/30/30
f 31/31/31 33/33/33 32/32/32
f 33/33/33 34/34/34 32/32/32
f 33/33/33 35/35/35 34/34/34
f 35/35/35 36/36/36 34/34/34
f 35/35/35 37/37/37 36/36/36
f 37/37/37 38/38/38 36/36/36
f 41/41/41 40/40/40 39/39/39
f 42/42/42 41/41/41 39/39/39
f 39/39/39 43/43/43 42/42/42
f 42/42/42 44/44/44 41/41/41
f 44/44/44 45/45/45 41/41/41
f 43/43/43 46/46/46 42/42/42
f 42/42/42 46/46/46 44/44/44
f 44/44/44 47/47/47 45/45/45
f 47/47/47 48/48/48 45/45/45
f 44/44/44 49/49/49 47/47/47
f 46/46/46 49/49/49 44/44/44
f 49/49/49 50/50/50 47/47/47
f 51/51/51 46/46/46 43/43/43
f 49/49/49 46/46/46 51/51/51
f 52/52/52 51/51/51 43/43/43
f 53/53/53 49/49/49 51/51/51
f 50/50/50 49/49/49 53/53/53
f 54/54/54 50/50/50 53/53/53
f 57/57/57 56/56/56 55/55/55
f 58/58/58 57/57/57 55/55/55
f 55/55/55 59/59/59 58/58/58
f 59/59/59 60/60/60 58/58/58
f 59/59/59 61/61/61 60/60/60
f 61/61/61 62/62/62 60/60/60
f 61/61/61 63/63/63 62/62/62
f 63/63/63 64/64/64 62/62/62
f 64/64/64 65/65/65 62/62/62
f 62/62/62 66/66/66 60/60/60
f 65/65/65 66/66/66 62/62/62
f 60/60/60 67/67/67 58/58/58
f 66/66/66 67/67/67 60/60/60
f 66/66/66 65/65/65 68/68/68
f 65/65/65 69/69/69 68/68/68
f 69/69/69 70/70/70 68/68/68
f 70/70/70 71/71/71 68/68/68
f 66/66/66 68/68/68 72/72/72
f 68/68/68 71/71/71 72/72/72
f 67/67/67 66/66/66 72/72/72
f 71/71/71 73/73/73 72/72/72
f 72/72/72 73/73/73 74/74/74
f 67/67/67 72/72/72 74/74/74
f 73/73/73 75/75/75 74/74/74
f 67/67/67 76/76/76 58/58/58
f 76/76/76 67/67/67 74/74/74
f 58/58/58 76/76/76 57/57/57
f 77/77/77 74/74/74 75/75/75
f 76/76/76 74/74/74 77/77/77
f 78/78/78 77/77/77 75/75/75
f 76/76/76 79/79/79 57/57/57
f 79/79/79 76/76/76 77/77/77
f 79/79/79 80/80/80 57/57/57
f 80/80/80 79/79/79 77/77/77
f 80/80/80 81/81/81 57/57/57
f 82/82/82 80/80/80 77/77/77
f 81/81/81 80/80/80 83/83/83
f 80/80/80 82/82/82 84/84/84
f 80/80/80 85/85/85 83/83/83
f 85/85/85 80/80/80 84/84/84
f 83/83/83 85/85/85 86/86/86
f 85/85/85 84/84/84 87/87/87
f 85/85/85 88/88/88 86/86/86
f 88/88/88 85/85/85 87/87/87
f 89/89/89 86/86/86 88/88/88
f 87/87/87 90/90/90 88/88/88
f 91/91/91 89/89/89 88/88/88
f 90/90/90 92/92/92 88/88/88
f 93/93/93 91/91/91 88/88/88
f 92/92/92 94/94/94 88/88/88
f 95/95/95 93/93/93 88/88/88
f 94/94/94 95/95/95 88/88/88
f 98/98/98 97/97/97 96/96/96
f 99/99/99 98/98/98 96/96/96
f 99/99/99 96/96/96 100/100/100
f 99/99/99 101/101/101 98/98/98
f 101/101/101 102/102/102 98/98/98
f 102/102/102 101/101/101 103/103/103
f 104/104/104 99/99/99 100/100/100
f 104/104/104 100/100/100 105/105/105
f 106/106/106 101/101/101 99/99/99
f 104/104/104 106/106/106 99/99/99
f 101/101/101 107/107/107 103/103/103
f 101/101/101 106/106/106 107/107/107
f 108/108/108 104/104/104 105/105/105
f 108/108/108 105/105/105 109/109/109
f 103/103/103 107/107/107 110/110/110
f 111/111/111 103/103/103 110/110/110
f 110/110/110 107/107/107 112/112/112
f 107/107/107 113/113/113 112/112/112
f 106/106/106 113/113/113 107/107/107
f 112/112/112 113/113/113 114/114/114
f 115/115/115 106/106/106 104/104/104
f 106/106/106 115/115/115 113/113/113
f 108/108/108 115/115/115 104/104/104
f 113/113/113 116/116/116 114/114/114
f 115/115/115 116/116/116 113/113/113
f 114/114/114 116/116/116 117/117/117
f 118/118/118 115/115/115 108/108/108
f 115/115/115 118/118/118 116/116/116
f 119/119/119 118/118/118 108/108/108
f 119/119/119 108/108/108 109/109/109
f 109/109/109 120/120/120 119/119/119
f 116/116/116 121/121/121 117/117/117
f 118/118/118 121/121/121 116/116/116
f 122/122/122 117/117/117 121/121/121
f 120/120/120 123/123/123 119/119/119
f 120/120/120 124/124/124 123/123/123
f 124/124/124 125/125/125 123/123/123
f 123/123/123 125/125/125 126/126/126
f 126/126/126 127/127/127 118/118/118
f 123/123/123 128/128/128 119/119/119
f 128/128/128 123/123/123 126/126/126
f 128/128/128 118/118/118 119/119/119
f 128/128/128 126/126/126 118/118/118
f 129/129/129 122/122/122 121/121/121
f 130/130/130 122/122/122 129/129/129
f 131/131/131 130/130/130 129/129/129
f 131/131/131 129/129/129 132/132/132
f 133/133/133 132/132/132 118/118/118
f 134/134/134 129/129/129 121/121/121
f 118/118/118 134/134/134 121/121/121
f 132/132/132 134/134/134 118/118/118
f 129/129/129 134/134/134 132/132/132
f 137/137/137 136/136/136 135/135/135
f 136/136/136 138/138/138 135/135/135
f 136/136/136 139/139/139 138/138/138
f 138/138/138 140/140/140 135/135/135
f 140/140/140 141/141/141 135/135/135
f 141/141/141 140/140/140 142/142/142
f 139/139/139 143/143/143 138/138/138
f 139/139/139 144/144/144 143/143/143
f 145/145/145 140/140/140 138/138/138
f 143/143/143 145/145/145 138/138/138
f 140/140/140 146/146/146 142/142/142
f 140/140/140 145/145/145 146/146/146
f 144/144/144 147/147/147 143/143/143
f 144/144/144 148/148/148 147/147/147
f 146/146/146 149/149/149 142/142/142
f 149/149/149 150/150/150 142/142/142
f 151/151/151 149/149/149 146/146/146
f 152/152/152 151/151/151 146/146/146
f 145/145/145 152/152/152 146/146/146
f 153/153/153 151/151/151 152/152/152
f 154/154/154 145/145/145 143/143/143
f 145/145/145 154/154/154 152/152/152
f 147/147/147 154/154/154 143/143/143
f 155/155/155 153/153/153 152/152/152
f 154/154/154 155/155/155 152/152/152
f 156/156/156 153/153/153 155/155/155
f 148/148/148 157/157/157 147/147/147
f 148/148/148 158/158/158 157/157/157
f 158/158/158 159/159/159 157/157/157
f 159/159/159 160/160/160 157/157/157
f 161/161/161 154/154/154 147/147/147
f 157/157/157 161/161/161 147/147/147
f 154/154/154 161/161/161 155/155/155
f 160/160/160 161/161/161 157/157/157
f 162/162/162 156/156/156 155/155/155
f 161/161/161 162/162/162 155/155/155
f 161/161/161 160/160/160 162/162/162
f 163/163/163 156/156/156 162/162/162
f 160/160/160 164/164/164 162/162/162
f 164/164/164 163/163/163 162/162/162
f 167/167/167 166/166/166 165/165/165
f 168/168/168 167/167/167 165/165/165
f 168/168/168 165/165/165 169/169/169
f 168/168/168 170/170/170 167/167/167
f 170/170/170 171/171/171 167/167/167
f 171/171/171 170/170/170 172/172/172
f 173/173/173 168/168/168 169/169/169
f 173/173/173 169/169/169 174/174/174
f 175/175/175 170/170/170 168/168/168
f 173/173/173 175/175/175 168/168/168
f 170/170/170 176/176/176 172/172/172
f 170/170/170 175/175/175 176/176/176
f 177/177/177 173/173/173 174/174/174
f 177/177/177 174/174/174 178/178/178
f 179/179/179 177/177/177 178/178/178
f 179/179/179 180/180/180 177/177/177
f 177/177/177 181/181/181 173/173/173
f 181/181/181 175/175/175 173/173/173
f 180/180/180 181/181/181 177/177/177
f 172/172/172 176/176/176 182/182/182
f 183/183/183 172/172/172 182/182/182
f 182/182/182 176/176/176 184/184/184
f 175/175/175 185/185/185 176/176/176
f 176/176/176 185/185/185 184/184/184
f 175/175/175 181/181/181 185/185/185
f 184/184/184 185/185/185 186/186/186
f 181/181/181 180/180/180 187/187/187
f 181/181/181 187/187/187 185/185/185
f 185/185/185 187/187/187 186/186/186
f 180/180/180 188/188/188 187/187/187
f 186/186/186 187/187/187 189/189/189
f 187/187/187 188/188/188 189/189/189
f 192/192/192 191/191/191 190/190/190
f 193/193/193 192/192/192 190/190/190
f 193/193/193 194/194/194 192/192/192
f 194/194/194 195/195/195 192/192/192
f 195/195/195 194/194/194 196/196/196
f 194/194/194 197/197/197 196/196/196
f 196/196/196 197/197/197 198/198/198
f 199/199/199 196/196/196 198/198/198
f 202/202/202 201/201/201 200/200/200
f 203/203/203 202/202/202 200/200/200
f 203/203/203 200/200/200 204/204/204
f 205/205/205 203/203/203 204/204/204
f 205/205/205 204/204/204 206/206/206
f 207/207/207 203/203/203 205/205/205
f 208/208/208 205/205/205 206/206/206
f 208/208/208 206/206/206 209/209/209
f 210/210/210 207/207/207 205/205/205
f 210/210/210 205/205/205 208/208/208
f 211/211/211 207/207/207 210/210/210
f 212/212/212 211/211/211 210/210/210
f 213/213/213 210/210/210 208/208/208
f 212/212/212 210/210/210 213/213/213
f 214/214/214 213/213/213 208/208/208
f 215/215/215 212/212/212 213/213/213
f 216/216/216 214/214/214 208/208/208
f 216/216/216 208/208/208 209/209/209
f 214/214/214 216/216/216 217/217/217
f 216/216/216 209/209/209 218/218/218
f 216/216/216 218/218/218 217/217/217
f 209/209/209 219/219/219 218/218/218
f 217/217/217 218/218/218 220/220/220
f 218/218/218 221/221/221 220/220/220
f 221/221/221 222/222/222 220/220/220
f 222/222/222 223/223/223 220/220/220
f 224/224/224 223/223/223 222/222/222
f 225/225/225 224/224/224 222/222/222
f 226/226/226 224/224/224 225/225/225
f 227/227/227 226/226/226 225/225/225
f 228/228/228 226/226/226 227/227/227
f 229/229/229 228/228/228 227/227/227
f 230/230/230 228/228/228 229/229/229
f 231/231/231 230/230/230 229/229/229
f 232/232/232 230/230/230 231/231/231
f 233/233/233 232/232/232 231/231/231
f 234/234/234 232/232/232 233/233/233
f 235/235/235 234/234/234 233/233/233
f 236/236/236 234/234/234 235/235/235
f 237/237/237 236/236/236 235/235/235
f 240/240/240 239/239/239 238/238/238
f 239/239/239 241/241/241 238/238/238
f 242/242/242 238/238/238 241/241/241
f 243/243/243 241/241/241 239/239/239
f 244/244/244 243/243/243 239/239/239
f 245/245/245 242/242/242 241/241/241
f 245/245/245 241/241/241 243/243/243
f 246/246/246 243/243/243 244/244/244
f 247/247/247 246/246/246 244/244/244
f 248/248/248 243/243/243 246/246/246
f 248/248/248 245/245/245 243/243/243
f 249/249/249 248/248/248 246/246/246
f 245/245/245 250/250/250 242/242/242
f 245/245/245 248/248/248 250/250/250
f 250/250/250 251/251/251 242/242/242
f 248/248/248 252/252/252 250/250/250
f 248/248/248 249/249/249 252/252/252
f 249/249/249 253/253/253 252/252/252
f 256/256/256 255/255/255 254/254/254
f 257/257/257 256/256/256 254/254/254
f 257/257/257 254/254/254 258/258/258
f 259/259/259 257/257/257 258/258/258
f 12/12/12 257/257/257 259/259/259
f 259/259/259 258/258/258 260/260/260
f 13/13/13 12/12/12 259/259/259
f 261/261/261 259/259/259 260/260/260
f 13/13/13 259/259/259 261/261/261
f 16/16/16 13/13/13 261/261/261
f 262/262/262 16/16/16 261/261/261
f 261/261/261 260/260/260 263/263/263
f 264/264/264 262/262/262 261/261/261
f 264/264/264 261/261/261 263/263/263
f 262/262/262 264/264/264 265/265/265
f 264/264/264 263/263/263 266/266/266
f 264/264/264 266/266/266 265/265/265
f 263/263/263 267/267/267 266/266/266
f 265/265/265 266/266/266 268/268/268
f 266/266/266 269/269/269 268/268/268
f 269/269/269 270/270/270 268/268/268
f 270/270/270 271/271/271 268/268/268
f 272/272/272 271/271/271 270/270/270
f 273/273/273 272/272/272 270/270/270
f 274/274/274 272/272/272 273/273/273
f 275/275/275 274/274/274 273/273/273
f 276/276/276 274/274/274 275/275/275
f 277/277/277 276/276/276 275/275/275
f 278/278/278 276/276/276 277/277/277
f 279/279/279 278/278/278 277/277/277
f 280/280/280 278/278/278 279/279/279
f 281/281/281 280/280/280 279/279/279
f 282/282/282 280/280/280 281/281/281
f 283/283/283 282/282/282 281/281/281
f 284/284/284 282/282/282 283/283/283
f 285/285/285 284/284/284 283/283/283
f 288/288/288 287/287/287 286/286/286
f 287/287/287 289/289/289 286/286/286
f 290/290/290 286/286/286 289/289/289
f 291/291/291 290/290/290 289/289/289
f 292/292/292 290/290/290 291/291/291
f 293/293/293 292/292/292 291/291/291
f 294/294/294 292/292/292 293/293/293
f 295/295/295 294/294/294 293/293/293
f 296/296/296 295/295/295 293/293/293
f 297/297/297 293/293/293 291/291/291
f 297/297/297 296/296/296 293/293/293
f 298/298/298 291/291/291 289/289/289
f 298/298/298 297/297/297 291/291/291
f 296/296/296 297/297/297 299/299/299
f 300/300/300 296/296/296 299/299/299
f 301/301/301 300/300/300 299/299/299
f 302/302/302 301/301/301 299/299/299
f 299/299/299 297/297/297 303/303/303
f 302/302/302 299/299/299 303/303/303
f 297/297/297 298/298/298 303/303/303
f 304/304/304 302/302/302 303/303/303
f 304/304/304 303/303/303 305/305/305
f 303/303/303 298/298/298 305/305/305
f 306/306/306 304/304/304 305/305/305
f 307/307/307 298/298/298 289/289/289
f 298/298/298 307/307/307 305/305/305
f 307/307/307 289/289/289 287/287/287
f 305/305/305 308/308/308 306/306/306
f 305/305/305 307/307/307 308/308/308
f 308/308/308 309/309/309 306/306/306
f 310/310/310 307/307/307 287/287/287
f 307/307/307 310/310/310 308/308/308
f 311/311/311 310/310/310 287/287/287
f 310/310/310 311/311/311 308/308/308
f 312/312/312 311/311/311 287/287/287
f 311/311/311 313/313/313 308/308/308
f 311/311/311 312/312/312 314/314/314
f 313/313/313 311/311/311 315/315/315
f 316/316/316 311/311/311 314/314/314
f 311/311/311 316/316/316 315/315/315
f 316/316/316 314/314/314 317/317/317
f 315/315/315 316/316/316 318/318/318
f 319/319/319 316/316/316 317/317/317
f 316/316/316 319/319/319 318/318/318
f 317/317/317 320/320/320 319/319/319
f 321/321/321 318/318/318 319/319/319
f 320/320/320 322/322/322 319/319/319
f 323/323/323 321/321/321 319/319/319
f 322/322/322 324/324/324 319/319/319
f 325/325/325 323/323/323 319/319/319
f 324/324/324 326/326/326 319/319/319
f 326/326/326 325/325/325 319/319/319
f 329/329/329 328/328/328 327/327/327
f 328/328/328 330/330/330 327/327/327
f 327/327/327 330/330/330 331/331/331
f 332/332/332 330/330/330 328/328/328
f 333/333/333 332/332/332 328/328/328
f 332/332/332 333/333/333 334/334/334
f 330/330/330 335/335/335 331/331/331
f 331/331/331 335/335/335 336/336/336
f 332/332/332 337/337/337 330/330/330
f 337/337/337 335/335/335 330/330/330
f 338/338/338 332/332/332 334/334/334
f 337/337/337 332/332/332 338/338/338
f 335/335/335 339/339/339 336/336/336
f 336/336/336 339/339/339 340/340/340
f 338/338/338 334/334/334 341/341/341
f 334/334/334 342/342/342 341/341/341
f 338/338/338 341/341/341 343/343/343
f 344/344/344 338/338/338 343/343/343
f 344/344/344 337/337/337 338/338/338
f 344/344/344 343/343/343 345/345/345
f 337/337/337 346/346/346 335/335/335
f 346/346/346 337/337/337 344/344/344
f 346/346/346 339/339/339 335/335/335
f 347/347/347 344/344/344 345/345/345
f 347/347/347 346/346/346 344/344/344
f 347/347/347 345/345/345 348/348/348
f 346/346/346 349/349/349 339/339/339
f 349/349/349 346/346/346 347/347/347
f 349/349/349 350/350/350 339/339/339
f 339/339/339 350/350/350 340/340/340
f 351/351/351 340/340/340 350/350/350
f 352/352/352 347/347/347 348/348/348
f 352/352/352 349/349/349 347/347/347
f 348/348/348 353/353/353 352/352/352
f 354/354/354 351/351/351 350/350/350
f 355/355/355 351/351/351 354/354/354
f 356/356/356 355/355/355 354/354/354
f 356/356/356 354/354/354 357/357/357
f 358/358/358 357/357/357 349/349/349
f 359/359/359 354/354/354 350/350/350
f 354/354/354 359/359/359 357/357/357
f 349/349/349 359/359/359 350/350/350
f 357/357/357 359/359/359 349/349/349
f 353/353/353 360/360/360 352/352/352
f 353/353/353 361/361/361 360/360/360
f 361/361/361 362/362/362 360/360/360
f 360/360/360 362/362/362 363/363/363
f 363/363/363 364/364/364 349/349/349
f 365/365/365 349/349/349 352/352/352
f 360/360/360 365/365/365 352/352/352
f 365/365/365 363/363/363 349/349/349
f 365/365/365 360/360/360 363/363/363
f 368/368/368 367/367/367 366/366/366
f 369/369/369 368/368/368 366/366/366
f 370/370/370 368/368/368 369/369/369
f 371/371/371 369/369/369 366/366/366
f 372/372/372 371/371/371 366/366/366
f 371/371/371 372/372/372 373/373/373
f 374/374/374 370/370/370 369/369/369
f 375/375/375 370/370/370 374/374/374
f 371/371/371 376/376/376 369/369/369
f 376/376/376 374/374/374 369/369/369
f 377/377/377 371/371/371 373/373/373
f 376/376/376 371/371/371 377/377/377
f 378/378/378 375/375/375 374/374/374
f 379/379/379 375/375/375 378/378/378
f 380/380/380 377/377/377 373/373/373
f 381/381/381 380/380/380 373/373/373
f 380/380/380 382/382/382 377/377/377
f 382/382/382 383/383/383 377/377/377
f 383/383/383 376/376/376 377/377/377
f 382/382/382 384/384/384 383/383/383
f 376/376/376 385/385/385 374/374/374
f 385/385/385 376/376/376 383/383/383
f 385/385/385 378/378/378 374/374/374
f 384/384/384 386/386/386 383/383/383
f 386/386/386 385/385/385 383/383/383
f 384/384/384 387/387/387 386/386/386
f 388/388/388 379/379/379 378/378/378
f 389/389/389 379/379/379 388/388/388
f 390/390/390 389/389/389 388/388/388
f 391/391/391 390/390/390 388/388/388
f 385/385/385 392/392/392 378/378/378
f 392/392/392 388/388/388 378/378/378
f 392/392/392 385/385/385 386/386/386
f 392/392/392 391/391/391 388/388/388
f 387/387/387 393/393/393 386/386/386
f 393/393/393 392/392/392 386/386/386
f 391/391/391 392/392/392 393/393/393
f 387/387/387 394/394/394 393/393/393
f 395/395/395 391/391/391 393/393/393
f 394/394/394 395/395/395 393/393/393
f 398/398/398 397/397/397 396/396/396
f 397/397/397 399/399/399 396/396/396
f 396/396/396 399/399/399 400/400/400
f 401/401/401 399/399/399 397/397/397
f 402/402/402 401/401/401 397/397/397
f 401/401/401 402/402/402 403/403/403
f 399/399/399 404/404/404 400/400/400
f 400/400/400 404/404/404 405/405/405
f 401/401/401 406/406/406 399/399/399
f 406/406/406 404/404/404 399/399/399
f 407/407/407 401/401/401 403/403/403
f 406/406/406 401/401/401 407/407/407
f 404/404/404 408/408/408 405/405/405
f 405/405/405 408/408/408 409/409/409
f 408/408/408 410/410/410 409/409/409
f 411/411/411 410/410/410 408/408/408
f 412/412/412 408/408/408 404/404/404
f 406/406/406 412/412/412 404/404/404
f 412/412/412 411/411/411 408/408/408
f 407/407/407 403/403/403 413/413/413
f 403/403/403 414/414/414 413/413/413
f 407/407/407 413/413/413 415/415/415
f 416/416/416 406/406/406 407/407/407
f 416/416/416 407/407/407 415/415/415
f 412/412/412 406/406/406 416/416/416
f 416/416/416 415/415/415 417/417/417
f 411/411/411 412/412/412 418/418/418
f 418/418/418 412/412/412 416/416/416
f 418/418/418 416/416/416 417/417/417
f 419/419/419 411/411/411 418/418/418
f 418/418/418 417/417/417 420/420/420
f 419/419/419 418/418/418 420/420/420
f 423/423/423 422/422/422 421/421/421
f 422/422/422 424/424/424 421/421/421
f 425/425/425 424/424/424 422/422/422
f 426/426/426 425/425/425 422/422/422
f 425/425/425 426/426/426 427/427/427
f 428/428/428 425/425/425 427/427/427
f 428/428/428 427/427/427 429/429/429
f 427/427/427 430/430/430 429/429/429
f 433/433/433 432/432/432 431/431/431
f 432/432/432 434/434/434 431/431/431
f 431/431/431 434/434/434 435/435/435
f 434/434/434 436/436/436 435/435/435
f 434/434/434 211/211/211 436/436/436
f 435/435/435 436/436/436 437/437/437
f 211/211/211 212/212/212 436/436/436
f 436/436/436 438/438/438 437/437/437
f 436/436/436 212/212/212 438/438/438
f 212/212/212 215/215/215 438/438/438
f 215/215/215 439/439/439 438/438/438
f 437/437/437 438/438/438 440/440/440
f 439/439/439 441/441/441 438/438/438
f 438/438/438 441/441/441 440/440/440
f 441/441/441 439/439/439 442/442/442
f 440/440/440 441/441/441 443/443/443
f 443/443/443 441/441/441 442/442/442
f 444/444/444 440/440/440 443/443/443
f 443/443/443 442/442/442 445/445/445
f 446/446/446 443/443/443 445/445/445
f 447/447/447 446/446/446 445/445/445
f 448/448/448 447/447/447 445/445/445
f 448/448/448 449/449/449 447/447/447
f 449/449/449 450/450/450 447/447/447
f 449/449/449 451/451/451 450/450/450
f 451/451/451 452/452/452 450/450/450
f 451/451/451 453/453/453 452/452/452
f 453/453/453 454/454/454 452/452/452
f 453/453/453 455/455/455 454/454/454
f 455/455/455 456/456/456 454/454/454
f 455/455/455 457/457/457 456/456/456
f 457/457/457 458/458/458 456/456/456
f 457/457/457 459/459/459 458/458/458
f 459/459/459 460/460/460 458/458/458
f 459/459/459 461/461/461 460/460/460
f 461/461/461 462/462/462 460/460/460
f 465/465/465 464/464/464 463/463/463
f 464/464/464 465/465/465 466/466/466
f 465/465/465 467/467/467 466/466/466
f 468/468/468 465/465/465 463/463/463
f 468/468/468 463/463/463 469/469/469
f 470/470/470 468/468/468 469/469/469
f 465/465/465 471/471/471 467/467/467
f 471/471/471 465/465/465 468/468/468
f 472/472/472 468/468/468 470/470/470
f 472/472/472 471/471/471 468/468/468
f 473/473/473 471/471/471 472/472/472
f 471/471/471 474/474/474 467/467/467
f 471/471/471 473/473/473 474/474/474
f 467/467/467 474/474/474 475/475/475
f 474/474/474 476/476/476 475/475/475
f 474/474/474 477/477/477 476/476/476
f 473/473/473 477/477/477 474/474/474
f 477/477/477 478/478/478 476/476/476
f 478/478/478 477/477/477 479/479/479
f 477/477/477 480/480/480 479/479/479
f 477/477/477 473/473/473 480/480/480
f 479/479/479 480/480/480 481/481/481
f 480/480/480 482/482/482 481/481/481
f 483/483/483 472/472/472 470/470/470
f 483/483/483 470/470/470 484/484/484
f 485/485/485 483/483/483 484/484/484
f 480/480/480 486/486/486 482/482/482
f 473/473/473 486/486/486 480/480/480
f 487/487/487 472/472/472 483/483/483
f 487/487/487 473/473/473 472/472/472
f 488/488/488 483/483/483 485/485/485
f 488/488/488 487/487/487 483/483/483
f 489/489/489 488/488/488 485/485/485
f 488/488/488 489/489/489 490/490/490
f 491/491/491 488/488/488 490/490/490
f 487/487/487 488/488/488 491/491/491
f 491/491/491 490/490/490 492/492/492
f 493/493/493 491/491/491 492/492/492
f 473/473/473 487/487/487 494/494/494
f 494/494/494 487/487/487 491/491/491
f 494/494/494 491/491/491 493/493/493
f 486/486/486 473/473/473 494/494/494
f 495/495/495 494/494/494 493/493/493
f 486/486/486 494/494/494 495/495/495
f 495/495/495 493/493/493 496/496/496
f 497/497/497 495/495/495 496/496/496
f 498/498/498 486/486/486 495/495/495
f 498/498/498 495/495/495 497/497/497
f 486/486/486 498/498/498 482/482/482
f 499/499/499 498/498/498 497/497/497
f 482/482/482 498/498/498 500/500/500
f 498/498/498 499/499/499 500/500/500

