# https://github.com/mikedh/trimesh
mtllib material.mtl
usemtl material_0
v 0.40123409 -0.13883606 0.08442782
v 0.40888187 -0.13806870 0.08007418
v 0.40535694 -0.14159073 0.08442972
v 0.40314171 -0.13423371 0.08007153
v 0.39637104 -0.13786865 0.08442715
v 0.39637104 -0.13288666 0.08007059
v 0.38960030 -0.13786865 0.08442715
v 0.40314171 -0.13425354 0.05131771
v 0.38960030 -0.13270538 0.08007047
v 0.37629024 -0.13786881 0.08413750
v 0.39637104 -0.13290665 0.05131678
v 0.40314171 -0.13428925 -0.05176385
v 0.39637104 -0.13294220 -0.05176385
v 0.38960030 -0.13405991 0.05131757
v 0.37628864 -0.13423493 0.06435027
v 0.38960030 -0.13409561 -0.05176385
v 0.37628864 -0.13422363 0.08080151
v 0.36622765 -0.13475525 0.06699712
v 0.36628761 -0.13479889 0.08158056
v 0.36629875 -0.13858643 0.08349362
v 0.35523048 -0.13532395 0.06989027
v 0.35517128 -0.13531525 0.08227984
v 0.33197353 -0.13612244 0.08108151
v 0.33195301 -0.13612931 0.07147879
v 0.30735767 -0.13646149 0.07117136
v 0.30604303 -0.13645722 0.07778867
v 0.28869744 -0.13726593 0.06729964
v 0.28679034 -0.13726288 0.07187115
v 0.27654794 -0.13745224 0.06085300
v 0.27422534 -0.13745026 0.06371969
v 0.26845344 -0.13786850 0.05280927
v 0.26647374 -0.13786606 0.05427254
v 0.26491074 -0.13818787 0.04513893
v 0.26327744 -0.13818756 0.04561668
v 0.26136574 -0.13971955 0.03329152
v 0.26083284 -0.13971955 0.03338138
v 0.26068064 -0.14162216 0.03064858
v 0.26033764 -0.14163071 0.03067639
v 0.38960030 -0.13405991 0.05131757
v 0.37628864 -0.13423493 0.06435027
v 0.37517807 -0.13856140 0.06207094
v 0.38371243 -0.13794068 0.05132026
v 0.38960030 -0.13409561 -0.05176385
v 0.37980213 -0.14381974 0.05132432
v 0.37397053 -0.14527542 0.06091469
v 0.38371243 -0.13797623 -0.05176385
v 0.37867836 -0.15059937 0.05132901
v 0.37301403 -0.15059326 0.05999887
v 0.37980213 -0.14385529 -0.05176385
v 0.37867836 -0.15063492 -0.05176385
v 0.37517807 -0.13860443 -0.06251410
v 0.37628864 -0.13427963 -0.06479641
v 0.37397053 -0.14531769 -0.06135320
v 0.37301403 -0.15063492 -0.06043370
v 0.35517128 -0.13531525 0.08227984
v 0.36628761 -0.13479889 0.08158056
v 0.36629875 -0.13858643 0.08349362
v 0.35516209 -0.13889954 0.08300137
v 0.33197353 -0.13612244 0.08108151
v 0.33194363 -0.13933304 0.08176216
v 0.30604303 -0.13645722 0.07778867
v 0.30592289 -0.13971161 0.07837151
v 0.28679034 -0.13726288 0.07187115
v 0.28648904 -0.14013367 0.07245262
v 0.28585084 -0.15058396 0.07356015
v 0.30573345 -0.15057999 0.07934938
v 0.33194363 -0.15057739 0.08314061
v 0.30592289 -0.16144974 0.07838654
v 0.28648904 -0.16103562 0.07246708
v 0.28679034 -0.16390732 0.07188957
v 0.30604303 -0.16470490 0.07780820
v 0.33194363 -0.16182358 0.08177770
v 0.33197353 -0.16503494 0.08110148
v 0.35516209 -0.16225525 0.08301753
v 0.35517128 -0.16584046 0.08230093
v 0.35516209 -0.15057633 0.08455785
v 0.36629875 -0.16256760 0.08351019
v 0.36628761 -0.16635788 0.08160238
v 0.36654461 -0.15057633 0.08450769
v 0.37628704 -0.15057648 0.08429111
v 0.37629024 -0.13786881 0.08413750
v 0.37629024 -0.16328430 0.08415507
v 0.38960030 -0.13786865 0.08442715
v 0.38960030 -0.16328415 0.08444471
v 0.38960030 -0.15057648 0.08443593
v 0.39637104 -0.13786865 0.08442715
v 0.39637104 -0.16328415 0.08444471
v 0.39637104 -0.15057648 0.08443593
v 0.40123409 -0.13883606 0.08442782
v 0.40123409 -0.16231674 0.08444404
v 0.40535694 -0.14159073 0.08442972
v 0.40535694 -0.15956223 0.08444214
v 0.40811157 -0.14571335 0.08443258
v 0.40811157 -0.15543946 0.08443930
v 0.40907879 -0.15057648 0.08443593
v 0.28869744 -0.13726593 0.06729964
v 0.27654794 -0.13745224 0.06085300
v 0.27683804 -0.14073364 0.06047169
v 0.28887814 -0.14052185 0.06682440
v 0.30735767 -0.13646149 0.07117136
v 0.28913974 -0.15058899 0.06620335
v 0.27716884 -0.15059326 0.06007028
v 0.27683804 -0.16045227 0.06048532
v 0.30743504 -0.13980972 0.07062619
v 0.33195301 -0.13612931 0.07147879
v 0.30760773 -0.15058655 0.06974911
v 0.28887814 -0.16065521 0.06683831
v 0.33194363 -0.13949387 0.07085913
v 0.35523048 -0.13532395 0.06989027
v 0.28869744 -0.16391052 0.06731806
v 0.27654794 -0.16373306 0.06087117
v 0.30735767 -0.16470978 0.07119089
v 0.30743504 -0.16136215 0.07064108
v 0.33195301 -0.16504135 0.07149877
v 0.33194363 -0.15058670 0.06961582
v 0.33194363 -0.16167771 0.07087446
v 0.35523048 -0.16584915 0.06991137
v 0.35516209 -0.15058792 0.06783724
v 0.35516209 -0.13919327 0.06924449
v 0.36622765 -0.13475525 0.06699712
v 0.35516209 -0.16198044 0.06926023
v 0.36622765 -0.16642182 0.06701901
v 0.36614868 -0.13884644 0.06530698
v 0.37628864 -0.13423493 0.06435027
v 0.37517807 -0.13856140 0.06207094
v 0.37397053 -0.14527542 0.06091469
v 0.37301403 -0.15059326 0.05999887
v 0.36601006 -0.14531250 0.06411947
v 0.36614868 -0.16233277 0.06532322
v 0.37628864 -0.16694565 0.06437288
v 0.37517807 -0.16262238 0.06208757
v 0.37397053 -0.15590988 0.06092203
v 0.37301403 -0.15059326 0.05999887
v 0.36601006 -0.15586838 0.06412676
v 0.28648904 -0.14013367 0.07245262
v 0.27422534 -0.13745026 0.06371969
v 0.28679034 -0.13726288 0.07187115
v 0.27381534 -0.14024079 0.06420925
v 0.26647374 -0.13786606 0.05427254
v 0.27305934 -0.15058975 0.06518127
v 0.28585084 -0.15058396 0.07356015
v 0.28648904 -0.16103562 0.07246708
v 0.26608214 -0.14063919 0.05451136
v 0.26327744 -0.13818756 0.04561668
v 0.26573814 -0.15059693 0.05476423
v 0.27381534 -0.16094010 0.06422356
v 0.26286344 -0.14090622 0.04573966
v 0.26083284 -0.13971955 0.03338138
v 0.27422534 -0.16373108 0.06373787
v 0.28679034 -0.16390732 0.07188957
v 0.26647374 -0.16332855 0.05429014
v 0.26608214 -0.16055512 0.05452512
v 0.26327744 -0.16301895 0.04563384
v 0.26255574 -0.15060318 0.04583639
v 0.26286344 -0.16030014 0.04575307
v 0.26083284 -0.16150391 0.03339644
v 0.26046184 -0.14250748 0.03355320
v 0.26033764 -0.14163071 0.03067639
v 0.25987384 -0.14376373 0.03049585
v 0.25973324 -0.15061371 0.03051427
v 0.26027994 -0.15061157 0.03348214
v 0.26046184 -0.15871567 0.03356440
v 0.26033764 -0.15959641 0.03068880
v 0.25987384 -0.15746353 0.03050532
v 0.26136574 -0.13971955 0.03329152
v 0.26068064 -0.14162216 0.03064858
v 0.26100094 -0.14375061 0.03038619
v 0.26177684 -0.14256088 0.03332786
v 0.26491074 -0.13818787 0.04513893
v 0.26189044 -0.15061188 0.03321055
v 0.26100094 -0.15061371 0.03039093
v 0.26100094 -0.15747696 0.03039567
v 0.26531904 -0.14140702 0.04502171
v 0.26845344 -0.13786850 0.05280927
v 0.26559364 -0.15060379 0.04494774
v 0.26177684 -0.15866272 0.03333898
v 0.26882314 -0.14112351 0.05255162
v 0.27654794 -0.13745224 0.06085300
v 0.27683804 -0.14073364 0.06047169
v 0.27716884 -0.15059326 0.06007028
v 0.26913054 -0.15059860 0.05233831
v 0.26136574 -0.16150391 0.03330657
v 0.26068064 -0.15960510 0.03066102
v 0.26491074 -0.16301926 0.04515609
v 0.26531904 -0.15980042 0.04503442
v 0.26845344 -0.16332810 0.05282686
v 0.26882314 -0.16007355 0.05256472
v 0.27683804 -0.16045227 0.06048532
v 0.27654794 -0.16373306 0.06087117
v 0.26068064 -0.14162216 0.03064858
v 0.26033764 -0.14163071 0.03067639
v 0.25987384 -0.14376373 0.03049585
v 0.26100094 -0.14375061 0.03038619
v 0.26100094 -0.15061371 0.03039093
v 0.25973324 -0.15061371 0.03051427
v 0.25987384 -0.15746353 0.03050532
v 0.26100094 -0.15747696 0.03039567
v 0.26068064 -0.15960510 0.03066102
v 0.26033764 -0.15959641 0.03068880
v 0.40123409 -0.16231674 0.08444404
v 0.40535694 -0.15956223 0.08444214
v 0.40888187 -0.16309021 0.08009147
v 0.40314171 -0.16692520 0.08009412
v 0.39637104 -0.16328415 0.08444471
v 0.39637104 -0.16827210 0.08009505
v 0.38960030 -0.16328415 0.08444471
v 0.40314171 -0.16694504 0.05134031
v 0.38960030 -0.16845337 0.08009518
v 0.37629024 -0.16328430 0.08415507
v 0.39637104 -0.16829208 0.05134123
v 0.40314171 -0.16698075 -0.05176385
v 0.39637104 -0.16832764 -0.05176385
v 0.38960030 -0.16713867 0.05134044
v 0.37628864 -0.16694565 0.06437288
v 0.38960030 -0.16717438 -0.05176385
v 0.37628864 -0.16693436 0.08082412
v 0.36622765 -0.16642182 0.06701901
v 0.36628761 -0.16635788 0.08160238
v 0.36629875 -0.16256760 0.08351019
v 0.35523048 -0.16584915 0.06991137
v 0.35517128 -0.16584046 0.08230093
v 0.33197353 -0.16503494 0.08110148
v 0.33195301 -0.16504135 0.07149877
v 0.30735767 -0.16470978 0.07119089
v 0.30604303 -0.16470490 0.07780820
v 0.28869744 -0.16391052 0.06731806
v 0.28679034 -0.16390732 0.07188957
v 0.27654794 -0.16373306 0.06087117
v 0.27422534 -0.16373108 0.06373787
v 0.26845344 -0.16332810 0.05282686
v 0.26647374 -0.16332855 0.05429014
v 0.26491074 -0.16301926 0.04515609
v 0.26327744 -0.16301895 0.04563384
v 0.26136574 -0.16150391 0.03330657
v 0.26083284 -0.16150391 0.03339644
v 0.26068064 -0.15960510 0.03066102
v 0.26033764 -0.15959641 0.03068880
v 0.38960030 -0.16713867 0.05134044
v 0.37517807 -0.16262238 0.06208757
v 0.37628864 -0.16694565 0.06437288
v 0.38371243 -0.16325806 0.05133775
v 0.38960030 -0.16717438 -0.05176385
v 0.37980213 -0.15737900 0.05133369
v 0.37397053 -0.15590988 0.06092203
v 0.38371243 -0.16329361 -0.05176385
v 0.37867836 -0.15059937 0.05132901
v 0.37301403 -0.15059326 0.05999887
v 0.37980213 -0.15741455 -0.05176385
v 0.37867836 -0.15063492 -0.05176385
v 0.37517807 -0.16266541 -0.06251410
v 0.37628864 -0.16699036 -0.06479641
v 0.37397053 -0.15595215 -0.06135320
v 0.37301403 -0.15063492 -0.06043370
v 0.40123409 -0.13889466 -0.08487077
v 0.40535694 -0.14164917 -0.08487077
v 0.40888187 -0.13812424 -0.08051765
v 0.40314171 -0.13428925 -0.08051765
v 0.39637104 -0.13792725 -0.08487077
v 0.39637104 -0.13294220 -0.08051765
v 0.38960030 -0.13792725 -0.08487077
v 0.38960030 -0.13276093 -0.08051765
v 0.37628864 -0.13427963 -0.06479641
v 0.37629024 -0.13792725 -0.08458112
v 0.37628864 -0.13427963 -0.08124764
v 0.36622765 -0.13480164 -0.06744290
v 0.36628761 -0.13485550 -0.08202631
v 0.36629875 -0.13864441 -0.08393675
v 0.35523048 -0.13537232 -0.07033567
v 0.35517128 -0.13537232 -0.08272522
v 0.33197353 -0.13617874 -0.08152633
v 0.33195301 -0.13617890 -0.07192362
v 0.30735767 -0.13651078 -0.07161597
v 0.30604303 -0.13651108 -0.07823327
v 0.28869744 -0.13731262 -0.06774368
v 0.28679034 -0.13731278 -0.07231520
v 0.27654794 -0.13749451 -0.06129692
v 0.27422534 -0.13749451 -0.06416362
v 0.26845344 -0.13790512 -0.05325291
v 0.26647374 -0.13790375 -0.05471619
v 0.26491074 -0.13821930 -0.04558234
v 0.26327744 -0.13821930 -0.04606010
v 0.26136574 -0.13974274 -0.03373387
v 0.26083284 -0.13974274 -0.03382374
v 0.26068064 -0.14164353 -0.03108963
v 0.26033764 -0.14165207 -0.03111742
v 0.35517128 -0.13537232 -0.08272522
v 0.36629875 -0.13864441 -0.08393675
v 0.36628761 -0.13485550 -0.08202631
v 0.35516209 -0.13895706 -0.08344429
v 0.33197353 -0.13617874 -0.08152633
v 0.33194363 -0.13938965 -0.08220478
v 0.30604303 -0.13651108 -0.07823327
v 0.30592289 -0.13976593 -0.07881386
v 0.28679034 -0.13731278 -0.07231520
v 0.28648904 -0.14018402 -0.07289469
v 0.28585084 -0.15063492 -0.07399499
v 0.30573345 -0.15063492 -0.07978422
v 0.33194363 -0.15063492 -0.08357545
v 0.30592289 -0.16150406 -0.07881386
v 0.28648904 -0.16108597 -0.07289469
v 0.28679034 -0.16395722 -0.07231520
v 0.30604303 -0.16475876 -0.07823327
v 0.33194363 -0.16188019 -0.08220478
v 0.33197353 -0.16509125 -0.08152633
v 0.35516209 -0.16231278 -0.08344429
v 0.35517128 -0.16589752 -0.08272522
v 0.35516209 -0.15063492 -0.08499269
v 0.36629875 -0.16262558 -0.08393675
v 0.36628761 -0.16641449 -0.08202631
v 0.36654461 -0.15063492 -0.08494253
v 0.37628704 -0.15063492 -0.08472595
v 0.37629024 -0.13792725 -0.08458112
v 0.37629024 -0.16334274 -0.08458112
v 0.38960030 -0.13792725 -0.08487077
v 0.38960030 -0.16334274 -0.08487077
v 0.38960030 -0.15063492 -0.08487077
v 0.39637104 -0.13792725 -0.08487077
v 0.39637104 -0.16334274 -0.08487077
v 0.39637104 -0.15063492 -0.08487077
v 0.40123409 -0.13889466 -0.08487077
v 0.40123409 -0.16237534 -0.08487077
v 0.40535694 -0.14164917 -0.08487077
v 0.40535694 -0.15962067 -0.08487077
v 0.40811157 -0.14577194 -0.08487077
v 0.40811157 -0.15549805 -0.08487077
v 0.40907879 -0.15063492 -0.08487077
v 0.28869744 -0.13731262 -0.06774368
v 0.27683804 -0.14077561 -0.06091335
v 0.27654794 -0.13749451 -0.06129692
v 0.28887814 -0.14056824 -0.06726619
v 0.30735767 -0.13651078 -0.07161597
v 0.28913974 -0.15063492 -0.06663818
v 0.27716884 -0.15063492 -0.06050511
v 0.27683804 -0.16049423 -0.06091335
v 0.30743504 -0.13985871 -0.07106848
v 0.33195301 -0.13617890 -0.07192362
v 0.30760773 -0.15063492 -0.07018394
v 0.28887814 -0.16070160 -0.06726619
v 0.33194363 -0.13954300 -0.07130164
v 0.35523048 -0.13537232 -0.07033567
v 0.28869744 -0.16395722 -0.06774368
v 0.27654794 -0.16377533 -0.06129692
v 0.30735767 -0.16475906 -0.07161597
v 0.30743504 -0.16141113 -0.07106848
v 0.33195301 -0.16509094 -0.07192362
v 0.33194363 -0.15063492 -0.07005066
v 0.33194363 -0.16172684 -0.07130164
v 0.35523048 -0.16589752 -0.07033567
v 0.35516209 -0.15063492 -0.06827209
v 0.35516209 -0.13924133 -0.06968720
v 0.36622765 -0.13480164 -0.06744290
v 0.35516209 -0.16202851 -0.06968720
v 0.36622765 -0.16646820 -0.06744290
v 0.36614868 -0.13889176 -0.06574994
v 0.37628864 -0.13427963 -0.06479641
v 0.37517807 -0.13860443 -0.06251410
v 0.37397053 -0.14531769 -0.06135320
v 0.37301403 -0.15063492 -0.06043370
v 0.36601006 -0.14535706 -0.06455795
v 0.36614868 -0.16237808 -0.06574994
v 0.37628864 -0.16699036 -0.06479641
v 0.37517807 -0.16266541 -0.06251410
v 0.37397053 -0.15595215 -0.06135320
v 0.37301403 -0.15063492 -0.06043370
v 0.36601006 -0.15591293 -0.06455795
v 0.28648904 -0.14018402 -0.07289469
v 0.28679034 -0.13731278 -0.07231520
v 0.27422534 -0.13749451 -0.06416362
v 0.27381534 -0.14028534 -0.06465124
v 0.26647374 -0.13790375 -0.05471619
v 0.27305934 -0.15063492 -0.06561611
v 0.28585084 -0.15063492 -0.07399499
v 0.28648904 -0.16108597 -0.07289469
v 0.26608214 -0.14067704 -0.05495308
v 0.26327744 -0.13821930 -0.04606010
v 0.26573814 -0.15063492 -0.05519907
v 0.27381534 -0.16098465 -0.06465124
v 0.26286344 -0.14093796 -0.04618120
v 0.26083284 -0.13974274 -0.03382374
v 0.27422534 -0.16377533 -0.06416362
v 0.28679034 -0.16395722 -0.07231520
v 0.26647374 -0.16336624 -0.05471619
v 0.26608214 -0.16059296 -0.05495308
v 0.26327744 -0.16305069 -0.04606010
v 0.26255574 -0.15063492 -0.04627122
v 0.26286344 -0.16033188 -0.04618120
v 0.26083284 -0.16152710 -0.03382374
v 0.26046184 -0.14253082 -0.03399363
v 0.26033764 -0.14165207 -0.03111742
v 0.25987384 -0.14378510 -0.03093541
v 0.25973324 -0.15063492 -0.03094909
v 0.26027994 -0.15063492 -0.03391697
v 0.26046184 -0.15873902 -0.03399363
v 0.26033764 -0.15961777 -0.03111742
v 0.25987384 -0.15748490 -0.03093541
v 0.26136574 -0.13974274 -0.03373387
v 0.26100094 -0.14377182 -0.03082576
v 0.26068064 -0.14164353 -0.03108963
v 0.26177684 -0.14258408 -0.03376825
v 0.26491074 -0.13821930 -0.04558234
v 0.26189044 -0.15063492 -0.03364538
v 0.26100094 -0.15063492 -0.03082576
v 0.26100094 -0.15749817 -0.03082576
v 0.26531904 -0.14143830 -0.04546289
v 0.26845344 -0.13790512 -0.05325291
v 0.26559364 -0.15063492 -0.04538258
v 0.26177684 -0.15868592 -0.03376825
v 0.26882314 -0.14115997 -0.05299301
v 0.27654794 -0.13749451 -0.06129692
v 0.27683804 -0.14077561 -0.06091335
v 0.27716884 -0.15063492 -0.06050511
v 0.26913054 -0.15063492 -0.05277314
v 0.26136574 -0.16152710 -0.03373387
v 0.26068064 -0.15962647 -0.03108963
v 0.26491074 -0.16305069 -0.04558234
v 0.26531904 -0.15983170 -0.04546289
v 0.26845344 -0.16336472 -0.05325291
v 0.26882314 -0.16011002 -0.05299301
v 0.27683804 -0.16049423 -0.06091335
v 0.27654794 -0.16377533 -0.06129692
v 0.26068064 -0.14164353 -0.03108963
v 0.25987384 -0.14378510 -0.03093541
v 0.26033764 -0.14165207 -0.03111742
v 0.26100094 -0.14377182 -0.03082576
v 0.26100094 -0.15063492 -0.03082576
v 0.25973324 -0.15063492 -0.03094909
v 0.25987384 -0.15748490 -0.03093541
v 0.26100094 -0.15749817 -0.03082576
v 0.26068064 -0.15962647 -0.03108963
v 0.26033764 -0.15961777 -0.03111742
v 0.40123409 -0.16237534 -0.08487077
v 0.40888187 -0.16314575 -0.08051765
v 0.40535694 -0.15962067 -0.08487077
v 0.40314171 -0.16698075 -0.08051765
v 0.39637104 -0.16334274 -0.08487077
v 0.39637104 -0.16832764 -0.08051765
v 0.38960030 -0.16334274 -0.08487077
v 0.38960030 -0.16850891 -0.08051765
v 0.37628864 -0.16699036 -0.06479641
v 0.37629024 -0.16334274 -0.08458112
v 0.37628864 -0.16699036 -0.08124764
v 0.36622765 -0.16646820 -0.06744290
v 0.36628761 -0.16641449 -0.08202631
v 0.36629875 -0.16262558 -0.08393675
v 0.35523048 -0.16589752 -0.07033567
v 0.35517128 -0.16589752 -0.08272522
v 0.33197353 -0.16509125 -0.08152633
v 0.33195301 -0.16509094 -0.07192362
v 0.30735767 -0.16475906 -0.07161597
v 0.30604303 -0.16475876 -0.07823327
v 0.28869744 -0.16395722 -0.06774368
v 0.28679034 -0.16395722 -0.07231520
v 0.27654794 -0.16377533 -0.06129692
v 0.27422534 -0.16377533 -0.06416362
v 0.26845344 -0.16336472 -0.05325291
v 0.26647374 -0.16336624 -0.05471619
v 0.26491074 -0.16305069 -0.04558234
v 0.26327744 -0.16305069 -0.04606010
v 0.26136574 -0.16152710 -0.03373387
v 0.26083284 -0.16152710 -0.03382374
v 0.26068064 -0.15962647 -0.03108963
v 0.26033764 -0.15961777 -0.03111742
v 0.40314171 -0.13425354 0.05131771
v 0.40314171 -0.13428925 -0.05176385
v 0.40888187 -0.13812424 -0.05176385
v 0.40314171 -0.13428925 -0.08051765
v 0.40888187 -0.13812424 -0.08051765
v 0.40888187 -0.13808853 0.05132036
v 0.40314171 -0.13423371 0.08007153
v 0.40888187 -0.13806870 0.08007418
v 0.41271709 -0.14386429 -0.05176385
v 0.41271709 -0.14382874 0.05132433
v 0.41406368 -0.15063492 -0.05176385
v 0.41271709 -0.14386429 -0.08051765
v 0.40535694 -0.14164917 -0.08487077
v 0.40811157 -0.14577194 -0.08487077
v 0.41406368 -0.15063492 -0.08051765
v 0.40907879 -0.15063492 -0.08487077
v 0.40811157 -0.15549805 -0.08487077
v 0.41271709 -0.15740555 -0.08051765
v 0.40535694 -0.15962067 -0.08487077
v 0.40888187 -0.16314575 -0.08051765
v 0.41271709 -0.14380875 0.08007814
v 0.40535694 -0.14159073 0.08442972
v 0.40811157 -0.14571335 0.08443258
v 0.41271709 -0.15740555 -0.05176385
v 0.41406368 -0.15059937 0.05132901
v 0.41406368 -0.15057938 0.08008282
v 0.40907879 -0.15057648 0.08443593
v 0.40811157 -0.15543946 0.08443930
v 0.41271709 -0.15735001 0.08008750
v 0.40535694 -0.15956223 0.08444214
v 0.40888187 -0.16309021 0.08009147
v 0.41271709 -0.15737000 0.05133369
v 0.40888187 -0.16311005 0.05133765
v 0.40314171 -0.16692520 0.08009412
v 0.40314171 -0.16694504 0.05134031
v 0.40888187 -0.16314575 -0.05176385
v 0.40314171 -0.16698075 -0.05176385
v 0.40314171 -0.16698075 -0.08051765
vt -19.34872000 0.88509520
vt -19.36093000 0.87814610
vt -19.35530000 0.88509800
vt -19.35177000 0.87814200
vt -19.34096000 0.88509400
vt -19.34096000 0.87814040
vt -19.33015000 0.88509400
vt -19.35177000 0.83224830
vt -19.33015000 0.87814040
vt -19.30891000 0.88463170
vt -19.34096000 0.83224670
vt -19.35177000 0.66772030
vt -19.34096000 0.66772030
vt -19.33015000 0.83224790
vt -19.30891000 0.85304930
vt -19.33015000 0.66772030
vt -19.30891000 0.87930720
vt -19.29285000 0.85727410
vt -19.29295000 0.88055040
vt -19.29296000 0.88360400
vt -19.27530000 0.86189180
vt -19.27520000 0.88166690
vt -19.23818000 0.87975400
vt -19.23814000 0.86442710
vt -19.19889000 0.86393650
vt -19.19679000 0.87449840
vt -19.16910000 0.85775700
vt -19.16606000 0.86505330
vt -19.14971000 0.84746770
vt -19.14600000 0.85204280
vt -19.13679000 0.83462870
vt -19.13363000 0.83696450
vt -19.13114000 0.82238630
vt -19.12853000 0.82314870
vt -19.12548000 0.80347660
vt -19.12463000 0.80362020
vt -19.12439000 0.79925830
vt -19.12384000 0.79930290
vt -19.48515000 0.59983840
vt -19.48546000 0.57673010
vt -19.49313000 0.58077160
vt -19.49203000 0.59983340
vt -19.48521000 0.78261160
vt -19.50245000 0.59982620
vt -19.50503000 0.58282180
vt -19.49209000 0.78261160
vt -19.51447000 0.59981810
vt -19.51446000 0.58444540
vt -19.50251000 0.78261160
vt -19.51453000 0.78261160
vt -19.49320000 0.80167260
vt -19.48553000 0.80571940
vt -19.50511000 0.79961430
vt -19.51453000 0.79798390
vt -19.63930000 0.69464780
vt -19.64011000 0.71216790
vt -19.63414000 0.71218550
vt -19.63365000 0.69463340
vt -19.63803000 0.65808660
vt -19.63297000 0.65803940
vt -19.63750000 0.61721750
vt -19.63237000 0.61702850
vt -19.63623000 0.58687370
vt -19.63171000 0.58639870
vt -19.61523000 0.58539280
vt -19.61524000 0.61672980
vt -19.61525000 0.65803940
vt -19.59811000 0.61702850
vt -19.59876000 0.58639870
vt -19.59424000 0.58687370
vt -19.59298000 0.61721750
vt -19.59752000 0.65803940
vt -19.59246000 0.65808660
vt -19.59684000 0.69463340
vt -19.59119000 0.69464780
vt -19.61525000 0.69463340
vt -19.59635000 0.71218550
vt -19.59037000 0.71216790
vt -19.61525000 0.71257310
vt -19.61525000 0.72792850
vt -19.63527000 0.72793330
vt -19.59522000 0.72793330
vt -19.63527000 0.74891080
vt -19.59522000 0.74891080
vt -19.61525000 0.74891080
vt -19.63527000 0.75958180
vt -19.59522000 0.75958180
vt -19.61525000 0.75958180
vt -19.63375000 0.76724700
vt -19.59674000 0.76724700
vt -19.62941000 0.77374460
vt -19.60108000 0.77374460
vt -19.62291000 0.77808620
vt -19.60758000 0.77808620
vt -19.61525000 0.77961030
vt -19.79255000 0.58780200
vt -19.79285000 0.56838270
vt -19.79810000 0.56884650
vt -19.79776000 0.58809070
vt -19.79127000 0.61762740
vt -19.81385000 0.58850880
vt -19.81386000 0.56937530
vt -19.82961000 0.56884650
vt -19.79662000 0.61775090
vt -19.79074000 0.65693920
vt -19.81385000 0.61802700
vt -19.82994000 0.58809070
vt -19.79612000 0.65692410
vt -19.78945000 0.69414470
vt -19.83514000 0.58780200
vt -19.83486000 0.56838270
vt -19.83642000 0.61762740
vt -19.83107000 0.61775090
vt -19.83695000 0.65693920
vt -19.81385000 0.65692410
vt -19.83157000 0.65692410
vt -19.83824000 0.69414470
vt -19.81385000 0.69403550
vt -19.79564000 0.69403550
vt -19.78854000 0.71172200
vt -19.83206000 0.69403550
vt -19.83916000 0.71172200
vt -19.79508000 0.71159580
vt -19.78771000 0.72780300
vt -19.79463000 0.72602790
vt -19.80536000 0.72409800
vt -19.81386000 0.72256900
vt -19.80542000 0.71137420
vt -19.83262000 0.71159580
vt -19.83999000 0.72780300
vt -19.83308000 0.72602790
vt -19.82236000 0.72409800
vt -19.81386000 0.72256900
vt -19.82229000 0.71137420
vt -19.94066000 0.82532040
vt -19.93595000 0.84066100
vt -19.93562000 0.82634200
vt -19.94085000 0.83980100
vt -19.93668000 0.85725580
vt -19.95903000 0.83809330
vt -19.95902000 0.82337490
vt -19.97738000 0.82529500
vt -19.94155000 0.85683620
vt -19.93724000 0.87246110
vt -19.95904000 0.85639210
vt -19.97721000 0.83977560
vt -19.94202000 0.87224470
vt -19.93994000 0.89395370
vt -19.98211000 0.84062890
vt -19.98242000 0.82630940
vt -19.98141000 0.85722490
vt -19.97654000 0.85681210
vt -19.98086000 0.87243080
vt -19.95905000 0.87207510
vt -19.97609000 0.87222150
vt -19.97820000 0.89392730
vt -19.94483000 0.89365200
vt -19.94329000 0.89870510
vt -19.94704000 0.89902240
vt -19.95907000 0.89899030
vt -19.95907000 0.89377650
vt -19.97330000 0.89363240
vt -19.97485000 0.89868370
vt -19.97111000 0.89900590
vt -19.76955000 0.89069620
vt -19.77277000 0.88622110
vt -19.77638000 0.88577680
vt -19.77436000 0.89075770
vt -19.76696000 0.91075600
vt -19.78799000 0.89055890
vt -19.78800000 0.88578480
vt -19.79962000 0.88579270
vt -19.77241000 0.91055770
vt -19.76642000 0.92374350
vt -19.78798000 0.91043230
vt -19.80163000 0.89077640
vt -19.77193000 0.92330720
vt -19.76571000 0.93736310
vt -19.77127000 0.93671760
vt -19.78796000 0.93603790
vt -19.78797000 0.92294610
vt -19.80644000 0.89072160
vt -19.80322000 0.88624210
vt -19.80900000 0.91078510
vt -19.80355000 0.91057920
vt -19.80953000 0.92377330
vt -19.80401000 0.92332940
vt -19.80466000 0.93674060
vt -19.81021000 0.93739380
vt -19.65750000 0.90736900
vt -19.65697000 0.90735540
vt -19.65624000 0.90401110
vt -19.65801000 0.90403190
vt -19.65801000 0.89327110
vt -19.65602000 0.89327110
vt -19.65624000 0.88253130
vt -19.65801000 0.88251010
vt -19.65750000 0.87917350
vt -19.65697000 0.87918720
vt -19.88678000 0.11491020
vt -19.89336000 0.11491330
vt -19.89899000 0.12185750
vt -19.88983000 0.12185320
vt -19.87902000 0.11490920
vt -19.87902000 0.12185180
vt -19.86821000 0.11490920
vt -19.88983000 0.16774800
vt -19.86821000 0.12185160
vt -19.84697000 0.11537150
vt -19.87902000 0.16774660
vt -19.88983000 0.33231540
vt -19.87902000 0.33231540
vt -19.86821000 0.16774780
vt -19.84696000 0.14694630
vt -19.86821000 0.33231540
vt -19.84696000 0.12068810
vt -19.83091000 0.14272280
vt -19.83100000 0.11944590
vt -19.83102000 0.11640080
vt -19.81335000 0.13810620
vt -19.81326000 0.11833090
vt -19.77623000 0.12024530
vt -19.77620000 0.13557250
vt -19.73694000 0.13606400
vt -19.73484000 0.12550180
vt -19.70716000 0.14224550
vt -19.70411000 0.13494880
vt -19.68777000 0.15253560
vt -19.68406000 0.14795990
vt -19.67484000 0.16537520
vt -19.67169000 0.16303970
vt -19.66919000 0.17761890
vt -19.66658000 0.17685630
vt -19.66353000 0.19653220
vt -19.66268000 0.19638870
vt -19.66244000 0.20075480
vt -19.66189000 0.20071040
vt -19.54380000 0.59979780
vt -19.53579000 0.58074180
vt -19.54346000 0.57669000
vt -19.53692000 0.59980240
vt -19.54386000 0.78261160
vt -19.52649000 0.59980960
vt -19.52389000 0.58280870
vt -19.53698000 0.78261160
vt -19.51447000 0.59981810
vt -19.51446000 0.58444540
vt -19.52656000 0.78261160
vt -19.51453000 0.78261160
vt -19.53587000 0.80167260
vt -19.54353000 0.80571940
vt -19.52396000 0.79961430
vt -19.51453000 0.79798390
vt -19.34872000 0.61487860
vt -19.35530000 0.61487860
vt -19.36093000 0.62182650
vt -19.35177000 0.62182650
vt -19.34096000 0.61487860
vt -19.34096000 0.62182650
vt -19.33015000 0.61487860
vt -19.33015000 0.62182650
vt -19.30891000 0.64691920
vt -19.30891000 0.61534090
vt -19.30891000 0.62066140
vt -19.29285000 0.64269520
vt -19.29295000 0.61941840
vt -19.29296000 0.61636930
vt -19.27530000 0.63807790
vt -19.27520000 0.61830280
vt -19.23818000 0.62021650
vt -19.23814000 0.63554330
vt -19.19889000 0.63603450
vt -19.19679000 0.62547250
vt -19.16910000 0.64221510
vt -19.16606000 0.63491850
vt -19.14971000 0.65250450
vt -19.14600000 0.64792900
vt -19.13679000 0.66534350
vt -19.13363000 0.66300800
vt -19.13114000 0.67758670
vt -19.12853000 0.67682390
vt -19.12548000 0.69649800
vt -19.12463000 0.69635440
vt -19.12439000 0.70071830
vt -19.12384000 0.70067410
vt -19.68965000 0.69464700
vt -19.69481000 0.71218500
vt -19.68884000 0.71216740
vt -19.69530000 0.69463250
vt -19.69092000 0.65808520
vt -19.69598000 0.65803800
vt -19.69144000 0.61721630
vt -19.69658000 0.61702690
vt -19.69271000 0.58687250
vt -19.69723000 0.58639740
vt -19.71371000 0.58539170
vt -19.71371000 0.61672840
vt -19.71371000 0.65803800
vt -19.73083000 0.61702690
vt -19.73018000 0.58639740
vt -19.73470000 0.58687250
vt -19.73597000 0.61721630
vt -19.73143000 0.65803800
vt -19.73649000 0.65808520
vt -19.73211000 0.69463250
vt -19.73776000 0.69464700
vt -19.71371000 0.69463250
vt -19.73260000 0.71218500
vt -19.73857000 0.71216740
vt -19.71371000 0.71257240
vt -19.71371000 0.72792720
vt -19.69368000 0.72793240
vt -19.73373000 0.72793240
vt -19.69368000 0.74891030
vt -19.73373000 0.74891030
vt -19.71371000 0.74891030
vt -19.69368000 0.75958150
vt -19.73373000 0.75958150
vt -19.71371000 0.75958150
vt -19.69520000 0.76724620
vt -19.73221000 0.76724620
vt -19.69954000 0.77374420
vt -19.72787000 0.77374420
vt -19.70604000 0.77808560
vt -19.72137000 0.77808560
vt -19.71371000 0.77961010
vt -19.93698000 0.58780150
vt -19.93145000 0.56884620
vt -19.93669000 0.56838240
vt -19.93178000 0.58809060
vt -19.93826000 0.61762740
vt -19.91569000 0.58850890
vt -19.91569000 0.56937490
vt -19.89993000 0.56884620
vt -19.93291000 0.61775170
vt -19.93880000 0.65693990
vt -19.91569000 0.61802700
vt -19.89960000 0.58809060
vt -19.93342000 0.65692530
vt -19.94008000 0.69414640
vt -19.89439000 0.58780150
vt -19.89468000 0.56838240
vt -19.89311000 0.61762740
vt -19.89846000 0.61775170
vt -19.89258000 0.65693990
vt -19.91569000 0.65692530
vt -19.89796000 0.65692530
vt -19.89129000 0.69414640
vt -19.91569000 0.69403670
vt -19.93390000 0.69403670
vt -19.94099000 0.71172340
vt -19.89748000 0.69403670
vt -19.89038000 0.71172340
vt -19.93446000 0.71159750
vt -19.94183000 0.72780510
vt -19.93492000 0.72602960
vt -19.92419000 0.72409990
vt -19.91569000 0.72257130
vt -19.92412000 0.71137580
vt -19.89692000 0.71159750
vt -19.88955000 0.72780510
vt -19.89646000 0.72602960
vt -19.90719000 0.72409990
vt -19.91569000 0.72257130
vt -19.90725000 0.71137580
vt -19.85477000 0.89707880
vt -19.84973000 0.89606080
vt -19.85004000 0.88174180
vt -19.85495000 0.88259830
vt -19.85076000 0.86514620
vt -19.87313000 0.88429280
vt -19.87313000 0.89901170
vt -19.89149000 0.89707880
vt -19.85563000 0.86556210
vt -19.85132000 0.84994080
vt -19.87313000 0.86599420
vt -19.89131000 0.88259830
vt -19.85609000 0.85015320
vt -19.85399000 0.82844600
vt -19.89621000 0.88174180
vt -19.89653000 0.89606080
vt -19.89549000 0.86514620
vt -19.89062000 0.86556210
vt -19.89494000 0.84994080
vt -19.87313000 0.85031170
vt -19.89016000 0.85015320
vt -19.89226000 0.82844600
vt -19.85889000 0.82874460
vt -19.85735000 0.82369190
vt -19.86110000 0.82337240
vt -19.87313000 0.82339640
vt -19.87313000 0.82860980
vt -19.88736000 0.82874460
vt -19.88890000 0.82369190
vt -19.88516000 0.82337240
vt -19.68572000 0.93243910
vt -19.69254000 0.93736330
vt -19.68894000 0.93691650
vt -19.69053000 0.93238100
vt -19.68314000 0.91237680
vt -19.70416000 0.93258910
vt -19.70416000 0.93736330
vt -19.71579000 0.93736330
vt -19.68859000 0.91257900
vt -19.68261000 0.89938890
vt -19.70416000 0.91271520
vt -19.71780000 0.93238100
vt -19.68812000 0.89982900
vt -19.68192000 0.88576850
vt -19.68747000 0.88641790
vt -19.70416000 0.88710900
vt -19.70416000 0.90020110
vt -19.72261000 0.93243910
vt -19.71939000 0.93691650
vt -19.72519000 0.91237680
vt -19.71974000 0.91257900
vt -19.72572000 0.89938890
vt -19.72021000 0.89982900
vt -19.72086000 0.88641790
vt -19.72641000 0.88576850
vt -19.64607000 0.87920470
vt -19.64481000 0.88255560
vt -19.64554000 0.87921820
vt -19.64657000 0.88253410
vt -19.64657000 0.89327220
vt -19.64459000 0.89327220
vt -19.64481000 0.90398870
vt -19.64657000 0.90400930
vt -19.64607000 0.90733880
vt -19.64554000 0.90732530
vt -19.88678000 0.38515840
vt -19.89899000 0.37821030
vt -19.89336000 0.38515840
vt -19.88983000 0.37821030
vt -19.87902000 0.38515840
vt -19.87902000 0.37821030
vt -19.86821000 0.38515840
vt -19.86821000 0.37821030
vt -19.84696000 0.35311710
vt -19.84697000 0.38469610
vt -19.84696000 0.37937540
vt -19.83091000 0.35734130
vt -19.83100000 0.38061820
vt -19.83102000 0.38366760
vt -19.81335000 0.36195850
vt -19.81326000 0.38173380
vt -19.77623000 0.37982030
vt -19.77620000 0.36449310
vt -19.73694000 0.36400200
vt -19.73484000 0.37456400
vt -19.70716000 0.35782130
vt -19.70411000 0.36511800
vt -19.68777000 0.34753150
vt -19.68406000 0.35210710
vt -19.67484000 0.33469220
vt -19.67169000 0.33702770
vt -19.66919000 0.32244900
vt -19.66658000 0.32321160
vt -19.66353000 0.30353740
vt -19.66268000 0.30368070
vt -19.66244000 0.29931680
vt -19.66189000 0.29936120
vt -19.47914000 0.34114540
vt -19.47920000 0.15888370
vt -19.48598000 0.15888370
vt -19.47920000 0.10804330
vt -19.48598000 0.10804330
vt -19.48592000 0.34115010
vt -19.47910000 0.39198580
vt -19.48588000 0.39199050
vt -19.49613000 0.15888370
vt -19.49607000 0.34115710
vt -19.50810000 0.15888370
vt -19.49613000 0.10804330
vt -19.49221000 0.10034650
vt -19.49950000 0.10034650
vt -19.50810000 0.10804330
vt -19.50810000 0.10034650
vt -19.51670000 0.10034650
vt -19.52007000 0.10804330
vt -19.52399000 0.10034650
vt -19.53022000 0.10804330
vt -19.49603000 0.39199750
vt -19.49211000 0.39969160
vt -19.49940000 0.39969680
vt -19.52007000 0.15888370
vt -19.50804000 0.34116540
vt -19.50800000 0.39200590
vt -19.50800000 0.39970260
vt -19.51660000 0.39970870
vt -19.51998000 0.39201410
vt -19.52389000 0.39971360
vt -19.53012000 0.39202110
vt -19.52001000 0.34117370
vt -19.53016000 0.34118070
vt -19.53691000 0.39202580
vt -19.53694000 0.34118540
vt -19.53022000 0.15888370
vt -19.53700000 0.15888370
vt -19.53700000 0.10804330
f 3/3 2/2 1/1
f 2/2 4/4 1/1
f 1/1 4/4 5/5
f 4/4 6/6 5/5
f 5/5 6/6 7/7
f 4/4 8/8 6/6
f 6/6 9/9 7/7
f 7/7 9/9 10/10
f 8/8 11/11 6/6
f 6/6 11/11 9/9
f 8/8 12/12 11/11
f 12/12 13/13 11/11
f 11/11 14/14 9/9
f 11/11 13/13 14/14
f 14/14 15/15 9/9
f 13/13 16/16 14/14
f 15/15 17/17 9/9
f 9/9 17/17 10/10
f 17/17 15/15 18/18
f 10/10 17/17 19/19
f 19/19 17/17 18/18
f 20/20 10/10 19/19
f 19/19 18/18 21/21
f 22/22 19/19 21/21
f 23/23 22/22 21/21
f 24/24 23/23 21/21
f 24/24 25/25 23/23
f 25/25 26/26 23/23
f 25/25 27/27 26/26
f 27/27 28/28 26/26
f 27/27 29/29 28/28
f 29/29 30/30 28/28
f 29/29 31/31 30/30
f 31/31 32/32 30/30
f 31/31 33/33 32/32
f 33/33 34/34 32/32
f 33/33 35/35 34/34
f 35/35 36/36 34/34
f 35/35 37/37 36/36
f 37/37 38/38 36/36
f 41/41 40/40 39/39
f 42/42 41/41 39/39
f 39/39 43/43 42/42
f 42/42 44/44 41/41
f 44/44 45/45 41/41
f 43/43 46/46 42/42
f 42/42 46/46 44/44
f 44/44 47/47 45/45
f 47/47 48/48 45/45
f 44/44 49/49 47/47
f 46/46 49/49 44/44
f 49/49 50/50 47/47
f 51/51 46/46 43/43
f 49/49 46/46 51/51
f 52/52 51/51 43/43
f 53/53 49/49 51/51
f 50/50 49/49 53/53
f 54/54 50/50 53/53
f 57/57 56/56 55/55
f 58/58 57/57 55/55
f 55/55 59/59 58/58
f 59/59 60/60 58/58
f 59/59 61/61 60/60
f 61/61 62/62 60/60
f 61/61 63/63 62/62
f 63/63 64/64 62/62
f 64/64 65/65 62/62
f 62/62 66/66 60/60
f 65/65 66/66 62/62
f 60/60 67/67 58/58
f 66/66 67/67 60/60
f 66/66 65/65 68/68
f 65/65 69/69 68/68
f 69/69 70/70 68/68
f 70/70 71/71 68/68
f 66/66 68/68 72/72
f 68/68 71/71 72/72
f 67/67 66/66 72/72
f 71/71 73/73 72/72
f 72/72 73/73 74/74
f 67/67 72/72 74/74
f 73/73 75/75 74/74
f 67/67 76/76 58/58
f 76/76 67/67 74/74
f 58/58 76/76 57/57
f 77/77 74/74 75/75
f 76/76 74/74 77/77
f 78/78 77/77 75/75
f 76/76 79/79 57/57
f 79/79 76/76 77/77
f 79/79 80/80 57/57
f 80/80 79/79 77/77
f 80/80 81/81 57/57
f 82/82 80/80 77/77
f 81/81 80/80 83/83
f 80/80 82/82 84/84
f 80/80 85/85 83/83
f 85/85 80/80 84/84
f 83/83 85/85 86/86
f 85/85 84/84 87/87
f 85/85 88/88 86/86
f 88/88 85/85 87/87
f 89/89 86/86 88/88
f 87/87 90/90 88/88
f 91/91 89/89 88/88
f 90/90 92/92 88/88
f 93/93 91/91 88/88
f 92/92 94/94 88/88
f 95/95 93/93 88/88
f 94/94 95/95 88/88
f 98/98 97/97 96/96
f 99/99 98/98 96/96
f 99/99 96/96 100/100
f 99/99 101/101 98/98
f 101/101 102/102 98/98
f 102/102 101/101 103/103
f 104/104 99/99 100/100
f 104/104 100/100 105/105
f 106/106 101/101 99/99
f 104/104 106/106 99/99
f 101/101 107/107 103/103
f 101/101 106/106 107/107
f 108/108 104/104 105/105
f 108/108 105/105 109/109
f 103/103 107/107 110/110
f 111/111 103/103 110/110
f 110/110 107/107 112/112
f 107/107 113/113 112/112
f 106/106 113/113 107/107
f 112/112 113/113 114/114
f 115/115 106/106 104/104
f 106/106 115/115 113/113
f 108/108 115/115 104/104
f 113/113 116/116 114/114
f 115/115 116/116 113/113
f 114/114 116/116 117/117
f 118/118 115/115 108/108
f 115/115 118/118 116/116
f 119/119 118/118 108/108
f 119/119 108/108 109/109
f 109/109 120/120 119/119
f 116/116 121/121 117/117
f 118/118 121/121 116/116
f 122/122 117/117 121/121
f 120/120 123/123 119/119
f 120/120 124/124 123/123
f 124/124 125/125 123/123
f 123/123 125/125 126/126
f 126/126 127/127 118/118
f 123/123 128/128 119/119
f 128/128 123/123 126/126
f 128/128 118/118 119/119
f 128/128 126/126 118/118
f 129/129 122/122 121/121
f 130/130 122/122 129/129
f 131/131 130/130 129/129
f 131/131 129/129 132/132
f 133/133 132/132 118/118
f 134/134 129/129 121/121
f 118/118 134/134 121/121
f 132/132 134/134 118/118
f 129/129 134/134 132/132
f 137/137 136/136 135/135
f 136/136 138/138 135/135
f 136/136 139/139 138/138
f 138/138 140/140 135/135
f 140/140 141/141 135/135
f 141/141 140/140 142/142
f 139/139 143/143 138/138
f 139/139 144/144 143/143
f 145/145 140/140 138/138
f 143/143 145/145 138/138
f 140/140 146/146 142/142
f 140/140 145/145 146/146
f 144/144 147/147 143/143
f 144/144 148/148 147/147
f 146/146 149/149 142/142
f 149/149 150/150 142/142
f 151/151 149/149 146/146
f 152/152 151/151 146/146
f 145/145 152/152 146/146
f 153/153 151/151 152/152
f 154/154 145/145 143/143
f 145/145 154/154 152/152
f 147/147 154/154 143/143
f 155/155 153/153 152/152
f 154/154 155/155 152/152
f 156/156 153/153 155/155
f 148/148 157/157 147/147
f 148/148 158/158 157/157
f 158/158 159/159 157/157
f 159/159 160/160 157/157
f 161/161 154/154 147/147
f 157/157 161/161 147/147
f 154/154 161/161 155/155
f 160/160 161/161 157/157
f 162/162 156/156 155/155
f 161/161 162/162 155/155
f 161/161 160/160 162/162
f 163/163 156/156 162/162
f 160/160 164/164 162/162
f 164/164 163/163 162/162
f 167/167 166/166 165/165
f 168/168 167/167 165/165
f 168/168 165/165 169/169
f 168/168 170/170 167/167
f 170/170 171/171 167/167
f 171/171 170/170 172/172
f 173/173 168/168 169/169
f 173/173 169/169 174/174
f 175/175 170/170 168/168
f 173/173 175/175 168/168
f 170/170 176/176 172/172
f 170/170 175/175 176/176
f 177/177 173/173 174/174
f 177/177 174/174 178/178
f 179/179 177/177 178/178
f 179/179 180/180 177/177
f 177/177 181/181 173/173
f 181/181 175/175 173/173
f 180/180 181/181 177/177
f 172/172 176/176 182/182
f 183/183 172/172 182/182
f 182/182 176/176 184/184
f 175/175 185/185 176/176
f 176/176 185/185 184/184
f 175/175 181/181 185/185
f 184/184 185/185 186/186
f 181/181 180/180 187/187
f 181/181 187/187 185/185
f 185/185 187/187 186/186
f 180/180 188/188 187/187
f 186/186 187/187 189/189
f 187/187 188/188 189/189
f 192/192 191/191 190/190
f 193/193 192/192 190/190
f 193/193 194/194 192/192
f 194/194 195/195 192/192
f 195/195 194/194 196/196
f 194/194 197/197 196/196
f 196/196 197/197 198/198
f 199/199 196/196 198/198
f 202/202 201/201 200/200
f 203/203 202/202 200/200
f 203/203 200/200 204/204
f 205/205 203/203 204/204
f 205/205 204/204 206/206
f 207/207 203/203 205/205
f 208/208 205/205 206/206
f 208/208 206/206 209/209
f 210/210 207/207 205/205
f 210/210 205/205 208/208
f 211/211 207/207 210/210
f 212/212 211/211 210/210
f 213/213 210/210 208/208
f 212/212 210/210 213/213
f 214/214 213/213 208/208
f 215/215 212/212 213/213
f 216/216 214/214 208/208
f 216/216 208/208 209/209
f 214/214 216/216 217/217
f 216/216 209/209 218/218
f 216/216 218/218 217/217
f 209/209 219/219 218/218
f 217/217 218/218 220/220
f 218/218 221/221 220/220
f 221/221 222/222 220/220
f 222/222 223/223 220/220
f 224/224 223/223 222/222
f 225/225 224/224 222/222
f 226/226 224/224 225/225
f 227/227 226/226 225/225
f 228/228 226/226 227/227
f 229/229 228/228 227/227
f 230/230 228/228 229/229
f 231/231 230/230 229/229
f 232/232 230/230 231/231
f 233/233 232/232 231/231
f 234/234 232/232 233/233
f 235/235 234/234 233/233
f 236/236 234/234 235/235
f 237/237 236/236 235/235
f 240/240 239/239 238/238
f 239/239 241/241 238/238
f 242/242 238/238 241/241
f 243/243 241/241 239/239
f 244/244 243/243 239/239
f 245/245 242/242 241/241
f 245/245 241/241 243/243
f 246/246 243/243 244/244
f 247/247 246/246 244/244
f 248/248 243/243 246/246
f 248/248 245/245 243/243
f 249/249 248/248 246/246
f 245/245 250/250 242/242
f 245/245 248/248 250/250
f 250/250 251/251 242/242
f 248/248 252/252 250/250
f 248/248 249/249 252/252
f 249/249 253/253 252/252
f 256/256 255/255 254/254
f 257/257 256/256 254/254
f 257/257 254/254 258/258
f 259/259 257/257 258/258
f 12/12 257/257 259/259
f 259/259 258/258 260/260
f 13/13 12/12 259/259
f 261/261 259/259 260/260
f 13/13 259/259 261/261
f 16/16 13/13 261/261
f 262/262 16/16 261/261
f 261/261 260/260 263/263
f 264/264 262/262 261/261
f 264/264 261/261 263/263
f 262/262 264/264 265/265
f 264/264 263/263 266/266
f 264/264 266/266 265/265
f 263/263 267/267 266/266
f 265/265 266/266 268/268
f 266/266 269/269 268/268
f 269/269 270/270 268/268
f 270/270 271/271 268/268
f 272/272 271/271 270/270
f 273/273 272/272 270/270
f 274/274 272/272 273/273
f 275/275 274/274 273/273
f 276/276 274/274 275/275
f 277/277 276/276 275/275
f 278/278 276/276 277/277
f 279/279 278/278 277/277
f 280/280 278/278 279/279
f 281/281 280/280 279/279
f 282/282 280/280 281/281
f 283/283 282/282 281/281
f 284/284 282/282 283/283
f 285/285 284/284 283/283
f 288/288 287/287 286/286
f 287/287 289/289 286/286
f 290/290 286/286 289/289
f 291/291 290/290 289/289
f 292/292 290/290 291/291
f 293/293 292/292 291/291
f 294/294 292/292 293/293
f 295/295 294/294 293/293
f 296/296 295/295 293/293
f 297/297 293/293 291/291
f 297/297 296/296 293/293
f 298/298 291/291 289/289
f 298/298 297/297 291/291
f 296/296 297/297 299/299
f 300/300 296/296 299/299
f 301/301 300/300 299/299
f 302/302 301/301 299/299
f 299/299 297/297 303/303
f 302/302 299/299 303/303
f 297/297 298/298 303/303
f 304/304 302/302 303/303
f 304/304 303/303 305/305
f 303/303 298/298 305/305
f 306/306 304/304 305/305
f 307/307 298/298 289/289
f 298/298 307/307 305/305
f 307/307 289/289 287/287
f 305/305 308/308 306/306
f 305/305 307/307 308/308
f 308/308 309/309 306/306
f 310/310 307/307 287/287
f 307/307 310/310 308/308
f 311/311 310/310 287/287
f 310/310 311/311 308/308
f 312/312 311/311 287/287
f 311/311 313/313 308/308
f 311/311 312/312 314/314
f 313/313 311/311 315/315
f 316/316 311/311 314/314
f 311/311 316/316 315/315
f 316/316 314/314 317/317
f 315/315 316/316 318/318
f 319/319 316/316 317/317
f 316/316 319/319 318/318
f 317/317 320/320 319/319
f 321/321 318/318 319/319
f 320/320 322/322 319/319
f 323/323 321/321 319/319
f 322/322 324/324 319/319
f 325/325 323/323 319/319
f 324/324 326/326 319/319
f 326/326 325/325 319/319
f 329/329 328/328 327/327
f 328/328 330/330 327/327
f 327/327 330/330 331/331
f 332/332 330/330 328/328
f 333/333 332/332 328/328
f 332/332 333/333 334/334
f 330/330 335/335 331/331
f 331/331 335/335 336/336
f 332/332 337/337 330/330
f 337/337 335/335 330/330
f 338/338 332/332 334/334
f 337/337 332/332 338/338
f 335/335 339/339 336/336
f 336/336 339/339 340/340
f 338/338 334/334 341/341
f 334/334 342/342 341/341
f 338/338 341/341 343/343
f 344/344 338/338 343/343
f 344/344 337/337 338/338
f 344/344 343/343 345/345
f 337/337 346/346 335/335
f 346/346 337/337 344/344
f 346/346 339/339 335/335
f 347/347 344/344 345/345
f 347/347 346/346 344/344
f 347/347 345/345 348/348
f 346/346 349/349 339/339
f 349/349 346/346 347/347
f 349/349 350/350 339/339
f 339/339 350/350 340/340
f 351/351 340/340 350/350
f 352/352 347/347 348/348
f 352/352 349/349 347/347
f 348/348 353/353 352/352
f 354/354 351/351 350/350
f 355/355 351/351 354/354
f 356/356 355/355 354/354
f 356/356 354/354 357/357
f 358/358 357/357 349/349
f 359/359 354/354 350/350
f 354/354 359/359 357/357
f 349/349 359/359 350/350
f 357/357 359/359 349/349
f 353/353 360/360 352/352
f 353/353 361/361 360/360
f 361/361 362/362 360/360
f 360/360 362/362 363/363
f 363/363 364/364 349/349
f 365/365 349/349 352/352
f 360/360 365/365 352/352
f 365/365 363/363 349/349
f 365/365 360/360 363/363
f 368/368 367/367 366/366
f 369/369 368/368 366/366
f 370/370 368/368 369/369
f 371/371 369/369 366/366
f 372/372 371/371 366/366
f 371/371 372/372 373/373
f 374/374 370/370 369/369
f 375/375 370/370 374/374
f 371/371 376/376 369/369
f 376/376 374/374 369/369
f 377/377 371/371 373/373
f 376/376 371/371 377/377
f 378/378 375/375 374/374
f 379/379 375/375 378/378
f 380/380 377/377 373/373
f 381/381 380/380 373/373
f 380/380 382/382 377/377
f 382/382 383/383 377/377
f 383/383 376/376 377/377
f 382/382 384/384 383/383
f 376/376 385/385 374/374
f 385/385 376/376 383/383
f 385/385 378/378 374/374
f 384/384 386/386 383/383
f 386/386 385/385 383/383
f 384/384 387/387 386/386
f 388/388 379/379 378/378
f 389/389 379/379 388/388
f 390/390 389/389 388/388
f 391/391 390/390 388/388
f 385/385 392/392 378/378
f 392/392 388/388 378/378
f 392/392 385/385 386/386
f 392/392 391/391 388/388
f 387/387 393/393 386/386
f 393/393 392/392 386/386
f 391/391 392/392 393/393
f 387/387 394/394 393/393
f 395/395 391/391 393/393
f 394/394 395/395 393/393
f 398/398 397/397 396/396
f 397/397 399/399 396/396
f 396/396 399/399 400/400
f 401/401 399/399 397/397
f 402/402 401/401 397/397
f 401/401 402/402 403/403
f 399/399 404/404 400/400
f 400/400 404/404 405/405
f 401/401 406/406 399/399
f 406/406 404/404 399/399
f 407/407 401/401 403/403
f 406/406 401/401 407/407
f 404/404 408/408 405/405
f 405/405 408/408 409/409
f 408/408 410/410 409/409
f 411/411 410/410 408/408
f 412/412 408/408 404/404
f 406/406 412/412 404/404
f 412/412 411/411 408/408
f 407/407 403/403 413/413
f 403/403 414/414 413/413
f 407/407 413/413 415/415
f 416/416 406/406 407/407
f 416/416 407/407 415/415
f 412/412 406/406 416/416
f 416/416 415/415 417/417
f 411/411 412/412 418/418
f 418/418 412/412 416/416
f 418/418 416/416 417/417
f 419/419 411/411 418/418
f 418/418 417/417 420/420
f 419/419 418/418 420/420
f 423/423 422/422 421/421
f 422/422 424/424 421/421
f 425/425 424/424 422/422
f 426/426 425/425 422/422
f 425/425 426/426 427/427
f 428/428 425/425 427/427
f 428/428 427/427 429/429
f 427/427 430/430 429/429
f 433/433 432/432 431/431
f 432/432 434/434 431/431
f 431/431 434/434 435/435
f 434/434 436/436 435/435
f 434/434 211/211 436/436
f 435/435 436/436 437/437
f 211/211 212/212 436/436
f 436/436 438/438 437/437
f 436/436 212/212 438/438
f 212/212 215/215 438/438
f 215/215 439/439 438/438
f 437/437 438/438 440/440
f 439/439 441/441 438/438
f 438/438 441/441 440/440
f 441/441 439/439 442/442
f 440/440 441/441 443/443
f 443/443 441/441 442/442
f 444/444 440/440 443/443
f 443/443 442/442 445/445
f 446/446 443/443 445/445
f 447/447 446/446 445/445
f 448/448 447/447 445/445
f 448/448 449/449 447/447
f 449/449 450/450 447/447
f 449/449 451/451 450/450
f 451/451 452/452 450/450
f 451/451 453/453 452/452
f 453/453 454/454 452/452
f 453/453 455/455 454/454
f 455/455 456/456 454/454
f 455/455 457/457 456/456
f 457/457 458/458 456/456
f 457/457 459/459 458/458
f 459/459 460/460 458/458
f 459/459 461/461 460/460
f 461/461 462/462 460/460
f 465/465 464/464 463/463
f 464/464 465/465 466/466
f 465/465 467/467 466/466
f 468/468 465/465 463/463
f 468/468 463/463 469/469
f 470/470 468/468 469/469
f 465/465 471/471 467/467
f 471/471 465/465 468/468
f 472/472 468/468 470/470
f 472/472 471/471 468/468
f 473/473 471/471 472/472
f 471/471 474/474 467/467
f 471/471 473/473 474/474
f 467/467 474/474 475/475
f 474/474 476/476 475/475
f 474/474 477/477 476/476
f 473/473 477/477 474/474
f 477/477 478/478 476/476
f 478/478 477/477 479/479
f 477/477 480/480 479/479
f 477/477 473/473 480/480
f 479/479 480/480 481/481
f 480/480 482/482 481/481
f 483/483 472/472 470/470
f 483/483 470/470 484/484
f 485/485 483/483 484/484
f 480/480 486/486 482/482
f 473/473 486/486 480/480
f 487/487 472/472 483/483
f 487/487 473/473 472/472
f 488/488 483/483 485/485
f 488/488 487/487 483/483
f 489/489 488/488 485/485
f 488/488 489/489 490/490
f 491/491 488/488 490/490
f 487/487 488/488 491/491
f 491/491 490/490 492/492
f 493/493 491/491 492/492
f 473/473 487/487 494/494
f 494/494 487/487 491/491
f 494/494 491/491 493/493
f 486/486 473/473 494/494
f 495/495 494/494 493/493
f 486/486 494/494 495/495
f 495/495 493/493 496/496
f 497/497 495/495 496/496
f 498/498 486/486 495/495
f 498/498 495/495 497/497
f 486/486 498/498 482/482
f 499/499 498/498 497/497
f 482/482 498/498 500/500
f 498/498 499/499 500/500