mtllib material.mtl
usemtl material_0
v -0.00104555 0.01157208 0.00104555
v 0.00104555 0.01157208 0.00104555
v 0.00000000 0.01157208 0.00139407
v -0.00104555 0.01157208 -0.00104555
v -0.00104555 0.01157208 0.00104555
v -0.00139407 0.01157208 0.00000000
v 0.00104555 0.01157208 0.00104555
v 0.00104555 0.01157208 -0.00104555
v 0.00139407 0.01157208 0.00000000
v 0.00104555 0.01157208 -0.00104555
v -0.00104555 0.01157208 -0.00104555
v 0.00000000 0.01157208 -0.00139407
v 0.00162004 -0.00363052 0.00000000
v 0.00127206 -0.00347252 -0.00127206
v 0.00121503 -0.00363052 -0.00121503
v 0.00169608 -0.00347252 0.00000000
v 0.00172143 -0.00323477 0.00000000
v 0.00129107 -0.00323477 -0.00129107
v 0.00127294 -0.00295714 -0.00127294
v 0.00127206 -0.00347252 0.00127206
v 0.00121503 -0.00363052 0.00121503
v 0.00129107 -0.00323477 0.00129107
v 0.00127294 -0.00295714 0.00127294
v 0.00169726 -0.00295714 0.00000000
v 0.00162473 -0.00267952 0.00000000
v 0.00121855 -0.00267952 -0.00121855
v 0.00121855 -0.00267952 0.00121855
v 0.00115297 -0.00235612 -0.00115297
v 0.00115297 -0.00235612 0.00115297
v 0.00153730 -0.00235612 0.00000000
v 0.00146839 -0.00194116 0.00000000
v 0.00110130 -0.00194116 -0.00110130
v 0.00110130 -0.00194116 0.00110130
v 0.00106775 0.00002429 -0.00106775
v 0.00106775 0.00002429 0.00106775
v 0.00142367 0.00002429 0.00000000
v 0.00140876 0.00499920 0.00000000
v 0.00105657 0.00499920 -0.00105657
v 0.00105657 0.00499920 0.00105657
v 0.00105499 0.00986390 -0.00105499
v 0.00105499 0.00986390 0.00105499
v 0.00140666 0.00986390 0.00000000
v 0.00000000 -0.00363052 -0.00162004
v -0.00127206 -0.00347252 -0.00127206
v -0.00121503 -0.00363052 -0.00121503
v 0.00000000 -0.00347252 -0.00169608
v 0.00000000 -0.00323477 -0.00172143
v -0.00129107 -0.00323477 -0.00129107
v -0.00127294 -0.00295714 -0.00127294
v 0.00127206 -0.00347252 -0.00127206
v 0.00121503 -0.00363052 -0.00121503
v 0.00129107 -0.00323477 -0.00129107
v 0.00127294 -0.00295714 -0.00127294
v 0.00000000 -0.00295714 -0.00169726
v 0.00000000 -0.00267952 -0.00162473
v -0.00121855 -0.00267952 -0.00121855
v 0.00121855 -0.00267952 -0.00121855
v -0.00115297 -0.00235612 -0.00115297
v 0.00115297 -0.00235612 -0.00115297
v 0.00000000 -0.00235612 -0.00153730
v 0.00000000 -0.00194116 -0.00146839
v -0.00110130 -0.00194116 -0.00110130
v 0.00110130 -0.00194116 -0.00110130
v -0.00106775 0.00002429 -0.00106775
v 0.00106775 0.00002429 -0.00106775
v 0.00000000 0.00002429 -0.00142367
v 0.00000000 0.00499920 -0.00140876
v -0.00105657 0.00499920 -0.00105657
v 0.00105657 0.00499920 -0.00105657
v -0.00105499 0.00986390 -0.00105499
v 0.00105499 0.00986390 -0.00105499
v 0.00000000 0.00986390 -0.00140666
v -0.00162004 -0.00363052 0.00000000
v -0.00127206 -0.00347252 0.00127206
v -0.00121503 -0.00363052 0.00121503
v -0.00169608 -0.00347252 0.00000000
v -0.00172143 -0.00323477 0.00000000
v -0.00129107 -0.00323477 0.00129107
v -0.00127294 -0.00295714 0.00127294
v -0.00127206 -0.00347252 -0.00127206
v -0.00121503 -0.00363052 -0.00121503
v -0.00129107 -0.00323477 -0.00129107
v -0.00127294 -0.00295714 -0.00127294
v -0.00169726 -0.00295714 0.00000000
v -0.00162473 -0.00267952 0.00000000
v -0.00121855 -0.00267952 0.00121855
v -0.00121855 -0.00267952 -0.00121855
v -0.00115297 -0.00235612 0.00115297
v -0.00115297 -0.00235612 -0.00115297
v -0.00153730 -0.00235612 0.00000000
v -0.00146839 -0.00194116 0.00000000
v -0.00110130 -0.00194116 0.00110130
v -0.00110130 -0.00194116 -0.00110130
v -0.00106775 0.00002429 0.00106775
v -0.00106775 0.00002429 -0.00106775
v -0.00142367 0.00002429 0.00000000
v -0.00140876 0.00499920 0.00000000
v -0.00105657 0.00499920 0.00105657
v -0.00105657 0.00499920 -0.00105657
v -0.00105499 0.00986390 0.00105499
v -0.00105499 0.00986390 -0.00105499
v -0.00140666 0.00986390 0.00000000
v 0.00000000 -0.00363052 0.00162004
v 0.00127206 -0.00347252 0.00127206
v 0.00121503 -0.00363052 0.00121503
v 0.00000000 -0.00347252 0.00169608
v 0.00000000 -0.00323477 0.00172143
v 0.00129107 -0.00323477 0.00129107
v 0.00127294 -0.00295714 0.00127294
v -0.00127206 -0.00347252 0.00127206
v -0.00121503 -0.00363052 0.00121503
v -0.00129107 -0.00323477 0.00129107
v -0.00127294 -0.00295714 0.00127294
v 0.00000000 -0.00295714 0.00169726
v 0.00000000 -0.00267952 0.00162473
v 0.00121855 -0.00267952 0.00121855
v -0.00121855 -0.00267952 0.00121855
v 0.00115297 -0.00235612 0.00115297
v -0.00115297 -0.00235612 0.00115297
v 0.00000000 -0.00235612 0.00153730
v 0.00000000 -0.00194116 0.00146839
v 0.00110130 -0.00194116 0.00110130
v -0.00110130 -0.00194116 0.00110130
v 0.00106775 0.00002429 0.00106775
v -0.00106775 0.00002429 0.00106775
v 0.00000000 0.00002429 0.00142367
v 0.00000000 0.00499920 0.00140876
v 0.00105657 0.00499920 0.00105657
v -0.00105657 0.00499920 0.00105657
v 0.00105499 0.00986390 0.00105499
v -0.00105499 0.00986390 0.00105499
v 0.00000000 0.00986390 0.00140666
v 0.00000000 0.01149876 0.00140036
v 0.00000000 0.00986390 0.00140666
v -0.00105499 0.00986390 0.00105499
v -0.00105027 0.01149876 0.00105027
v 0.00105499 0.00986390 0.00105499
v 0.00105027 0.01149876 0.00105027
v -0.00140036 0.01149876 0.00000000
v -0.00105027 0.01149876 0.00105027
v -0.00105499 0.00986390 0.00105499
v -0.00105027 0.01149876 -0.00105027
v -0.00140666 0.00986390 0.00000000
v -0.00105499 0.00986390 -0.00105499
v 0.00000000 0.01149876 -0.00140036
v -0.00105027 0.01149876 -0.00105027
v -0.00105499 0.00986390 -0.00105499
v 0.00105027 0.01149876 -0.00105027
v 0.00000000 0.00986390 -0.00140666
v 0.00105499 0.00986390 -0.00105499
v 0.00140036 0.01149876 0.00000000
v 0.00105027 0.01149876 -0.00105027
v 0.00105499 0.00986390 -0.00105499
v 0.00105027 0.01149876 0.00105027
v 0.00140666 0.00986390 0.00000000
v 0.00105499 0.00986390 0.00105499
v 0.00162004 -0.00363052 0.00000000
v 0.00087749 -0.00369616 0.00087749
v 0.00121503 -0.00363052 0.00121503
v 0.00000000 -0.00363052 0.00162004
v 0.00116434 -0.00371913 0.00000000
v 0.00000000 -0.00374866 0.00000000
v 0.00087749 -0.00369616 -0.00087749
v 0.00121503 -0.00363052 -0.00121503
v 0.00000000 -0.00363052 -0.00162004
v 0.00000000 -0.00371913 0.00116434
v -0.00087749 -0.00369616 0.00087749
v -0.00121503 -0.00363052 0.00121503
v -0.00162004 -0.00363052 0.00000000
v 0.00000000 -0.00371913 -0.00116434
v -0.00087749 -0.00369616 -0.00087749
v -0.00121503 -0.00363052 -0.00121503
v -0.00116434 -0.00371913 0.00000000
vn -0.70614430 0.05215665 0.70614430
vn 0.70614430 0.05215665 0.70614430
vn 0.00000000 0.04901365 0.99879810
vn -0.70614430 0.05215665 -0.70614430
vn -0.70614430 0.05215665 0.70614430
vn -0.99879810 0.04901365 0.00000000
vn 0.70614430 0.05215665 0.70614430
vn 0.70614430 0.05215665 -0.70614430
vn 0.99879810 0.04901365 0.00000000
vn 0.70614430 0.05215665 -0.70614430
vn -0.70614430 0.05215665 -0.70614430
vn 0.00000000 0.04901365 -0.99879810
vn 0.65362950 -0.75681470 0.00000000
vn 0.67984800 -0.27497890 -0.67984800
vn 0.46915110 -0.74819410 -0.46915110
vn 0.96419820 -0.26518280 0.00000000
vn 0.99995490 -0.00949141 0.00000000
vn 0.70707180 -0.00994930 -0.70707180
vn 0.69608750 0.17585310 -0.69608750
vn 0.67984800 -0.27497890 0.67984800
vn 0.46915110 -0.74819410 0.46915110
vn 0.70707180 -0.00994930 0.70707180
vn 0.69608750 0.17585310 0.69608750
vn 0.98585840 0.16758040 0.00000000
vn 0.96650090 0.25666340 0.00000000
vn 0.68064390 0.27101240 -0.68064390
vn 0.68064390 0.27101240 0.68064390
vn 0.68845060 0.22819160 -0.68845060
vn 0.68845060 0.22819160 0.68845060
vn 0.97666650 0.21476160 0.00000000
vn 0.99549140 0.09485231 0.00000000
vn 0.70347420 0.10123310 -0.70347420
vn 0.70347420 0.10123310 0.70347420
vn 0.70704070 0.01367265 -0.70704070
vn 0.70704070 0.01367265 0.70704070
vn 0.99991700 0.01287892 0.00000000
vn 0.99999860 0.00170909 0.00000000
vn 0.70710560 0.00180065 -0.70710560
vn 0.70710560 0.00180065 0.70710560
vn 0.70710490 0.00225844 -0.70710490
vn 0.70710490 0.00225844 0.70710490
vn 0.99999770 0.00213636 0.00000000
vn 0.00000000 -0.75681470 -0.65362950
vn -0.67984800 -0.27497890 -0.67984800
vn -0.46915110 -0.74819410 -0.46915110
vn 0.00000000 -0.26518280 -0.96419820
vn 0.00000000 -0.00949141 -0.99995490
vn -0.70707180 -0.00994930 -0.70707180
vn -0.69608750 0.17585310 -0.69608750
vn 0.67984800 -0.27497890 -0.67984800
vn 0.46915110 -0.74819410 -0.46915110
vn 0.70707180 -0.00994930 -0.70707180
vn 0.69608750 0.17585310 -0.69608750
vn 0.00000000 0.16758040 -0.98585840
vn 0.00000000 0.25666340 -0.96650090
vn -0.68064390 0.27101240 -0.68064390
vn 0.68064390 0.27101240 -0.68064390
vn -0.68845060 0.22819160 -0.68845060
vn 0.68845060 0.22819160 -0.68845060
vn 0.00000000 0.21476160 -0.97666650
vn 0.00000000 0.09485231 -0.99549140
vn -0.70347420 0.10123310 -0.70347420
vn 0.70347420 0.10123310 -0.70347420
vn -0.70704070 0.01367265 -0.70704070
vn 0.70704070 0.01367265 -0.70704070
vn 0.00000000 0.01287892 -0.99991700
vn 0.00000000 0.00170909 -0.99999860
vn -0.70710560 0.00180065 -0.70710560
vn 0.70710560 0.00180065 -0.70710560
vn -0.70710490 0.00225844 -0.70710490
vn 0.70710490 0.00225844 -0.70710490
vn 0.00000000 0.00213636 -0.99999770
vn -0.65362950 -0.75681470 0.00000000
vn -0.67984800 -0.27497890 0.67984800
vn -0.46915110 -0.74819410 0.46915110
vn -0.96419820 -0.26518280 0.00000000
vn -0.99995490 -0.00949141 0.00000000
vn -0.70707180 -0.00994930 0.70707180
vn -0.69608750 0.17585310 0.69608750
vn -0.67984800 -0.27497890 -0.67984800
vn -0.46915110 -0.74819410 -0.46915110
vn -0.70707180 -0.00994930 -0.70707180
vn -0.69608750 0.17585310 -0.69608750
vn -0.98585840 0.16758040 0.00000000
vn -0.96650090 0.25666340 0.00000000
vn -0.68064390 0.27101240 0.68064390
vn -0.68064390 0.27101240 -0.68064390
vn -0.68845060 0.22819160 0.68845060
vn -0.68845060 0.22819160 -0.68845060
vn -0.97666650 0.21476160 0.00000000
vn -0.99549140 0.09485231 0.00000000
vn -0.70347420 0.10123310 0.70347420
vn -0.70347420 0.10123310 -0.70347420
vn -0.70704070 0.01367265 0.70704070
vn -0.70704070 0.01367265 -0.70704070
vn -0.99991700 0.01287892 0.00000000
vn -0.99999860 0.00170909 0.00000000
vn -0.70710560 0.00180065 0.70710560
vn -0.70710560 0.00180065 -0.70710560
vn -0.70710490 0.00225844 0.70710490
vn -0.70710490 0.00225844 -0.70710490
vn -0.99999770 0.00213636 0.00000000
vn 0.00000000 -0.75681470 0.65362950
vn 0.67984800 -0.27497890 0.67984800
vn 0.46915110 -0.74819410 0.46915110
vn 0.00000000 -0.26518280 0.96419820
vn 0.00000000 -0.00949141 0.99995490
vn 0.70707180 -0.00994930 0.70707180
vn 0.69608750 0.17585310 0.69608750
vn -0.67984800 -0.27497890 0.67984800
vn -0.46915110 -0.74819410 0.46915110
vn -0.70707180 -0.00994930 0.70707180
vn -0.69608750 0.17585310 0.69608750
vn 0.00000000 0.16758040 0.98585840
vn 0.00000000 0.25666340 0.96650090
vn 0.68064390 0.27101240 0.68064390
vn -0.68064390 0.27101240 0.68064390
vn 0.68845060 0.22819160 0.68845060
vn -0.68845060 0.22819160 0.68845060
vn 0.00000000 0.21476160 0.97666650
vn 0.00000000 0.09485231 0.99549140
vn 0.70347420 0.10123310 0.70347420
vn -0.70347420 0.10123310 0.70347420
vn 0.70704070 0.01367265 0.70704070
vn -0.70704070 0.01367265 0.70704070
vn 0.00000000 0.01287892 0.99991700
vn 0.00000000 0.00170909 0.99999860
vn 0.70710560 0.00180065 0.70710560
vn -0.70710560 0.00180065 0.70710560
vn 0.70710490 0.00225844 0.70710490
vn -0.70710490 0.00225844 0.70710490
vn 0.00000000 0.00213636 0.99999770
vn 0.00000000 0.04437490 0.99901500
vn 0.00000000 0.00213636 0.99999770
vn -0.70710490 0.00225844 0.70710490
vn -0.70633050 0.04684658 0.70633050
vn 0.70710490 0.00225844 0.70710490
vn 0.70633050 0.04684658 0.70633050
vn -0.99901500 0.04437490 0.00000000
vn -0.70633050 0.04684658 0.70633050
vn -0.70710490 0.00225844 0.70710490
vn -0.70633050 0.04684658 -0.70633050
vn -0.99999770 0.00213636 0.00000000
vn -0.70710490 0.00225844 -0.70710490
vn 0.00000000 0.04437490 -0.99901500
vn -0.70633050 0.04684658 -0.70633050
vn -0.70710490 0.00225844 -0.70710490
vn 0.70633050 0.04684658 -0.70633050
vn 0.00000000 0.00213636 -0.99999770
vn 0.70710490 0.00225844 -0.70710490
vn 0.99901500 0.04437490 0.00000000
vn 0.70633050 0.04684658 -0.70633050
vn 0.70710490 0.00225844 -0.70710490
vn 0.70633050 0.04684658 0.70633050
vn 0.99999770 0.00213636 0.00000000
vn 0.70710490 0.00225844 0.70710490
vn 0.65362950 -0.75681470 0.00000000
vn 0.08499516 -0.99274960 0.08499516
vn 0.46915110 -0.74819410 0.46915110
vn 0.00000000 -0.75681470 0.65362950
vn 0.11044830 -0.99388180 0.00000000
vn 0.00000000 -1.00000000 0.00000000
vn 0.08499516 -0.99274960 -0.08499516
vn 0.46915110 -0.74819410 -0.46915110
vn 0.00000000 -0.75681470 -0.65362950
vn 0.00000000 -0.99388180 0.11044830
vn -0.08499516 -0.99274960 0.08499516
vn -0.46915110 -0.74819410 0.46915110
vn -0.65362950 -0.75681470 0.00000000
vn 0.00000000 -0.99388180 -0.11044830
vn -0.08499516 -0.99274960 -0.08499516
vn -0.46915110 -0.74819410 -0.46915110
vn -0.11044830 -0.99388180 0.00000000
vt 0.40092580 0.52923880
vt 0.57518410 0.52923880
vt 0.48805490 0.52923880
vt 0.52923880 0.41287090
vt 0.52923880 0.58712910
vt 0.52923880 0.50000000
vt 0.52923880 0.58712910
vt 0.52923880 0.41287090
vt 0.52923880 0.50000000
vt 0.57518410 0.52923880
vt 0.40092580 0.52923880
vt 0.48805490 0.52923880
vt 0.26235560 0.50000000
vt 0.27552290 0.39399470
vt 0.26235560 0.39874720
vt 0.27552290 0.50000000
vt 0.29533550 0.50000000
vt 0.29533550 0.39241050
vt 0.31847070 0.39392150
vt 0.27552290 0.60600530
vt 0.26235560 0.60125280
vt 0.29533550 0.60758950
vt 0.31847070 0.60607850
vt 0.31847070 0.50000000
vt 0.34160590 0.50000000
vt 0.34160590 0.39845430
vt 0.34160590 0.60154570
vt 0.36855580 0.40391900
vt 0.36855580 0.59608100
vt 0.36855580 0.50000000
vt 0.40313550 0.50000000
vt 0.40313550 0.40822540
vt 0.40313550 0.59177460
vt 0.56692370 0.41102080
vt 0.56692370 0.58897920
vt 0.56692370 0.50000000
vt 0.98149900 0.50000000
vt 0.98149900 0.41195260
vt 0.98149900 0.58804740
vt 1.38689100 0.41208380
vt 1.38689100 0.58791620
vt 1.38689100 0.50000000
vt 0.48805490 0.26235560
vt 0.38204960 0.27552290
vt 0.38680220 0.26235560
vt 0.48805490 0.27552290
vt 0.48805490 0.29533550
vt 0.38046550 0.29533550
vt 0.38197640 0.31847070
vt 0.59406020 0.27552290
vt 0.58930770 0.26235560
vt 0.59564440 0.29533550
vt 0.59413340 0.31847070
vt 0.48805490 0.31847070
vt 0.48805490 0.34160590
vt 0.38650920 0.34160590
vt 0.58960060 0.34160590
vt 0.39197390 0.36855580
vt 0.58413590 0.36855580
vt 0.48805490 0.36855580
vt 0.48805490 0.40313550
vt 0.39628030 0.40313550
vt 0.57982960 0.40313550
vt 0.39907570 0.56692370
vt 0.57703410 0.56692370
vt 0.48805490 0.56692370
vt 0.48805490 0.98149900
vt 0.40000750 0.98149900
vt 0.57610230 0.98149900
vt 0.40013870 1.38689100
vt 0.57597110 1.38689100
vt 0.48805490 1.38689100
vt 0.26235560 0.50000000
vt 0.27552290 0.60600530
vt 0.26235560 0.60125280
vt 0.27552290 0.50000000
vt 0.29533550 0.50000000
vt 0.29533550 0.60758950
vt 0.31847070 0.60607850
vt 0.27552290 0.39399470
vt 0.26235560 0.39874720
vt 0.29533550 0.39241050
vt 0.31847070 0.39392150
vt 0.31847070 0.50000000
vt 0.34160590 0.50000000
vt 0.34160590 0.60154570
vt 0.34160590 0.39845430
vt 0.36855580 0.59608100
vt 0.36855580 0.40391900
vt 0.36855580 0.50000000
vt 0.40313550 0.50000000
vt 0.40313550 0.59177460
vt 0.40313550 0.40822540
vt 0.56692370 0.58897920
vt 0.56692370 0.41102080
vt 0.56692370 0.50000000
vt 0.98149900 0.50000000
vt 0.98149900 0.58804740
vt 0.98149900 0.41195260
vt 1.38689100 0.58791620
vt 1.38689100 0.41208380
vt 1.38689100 0.50000000
vt 0.48805490 0.26235560
vt 0.59406020 0.27552290
vt 0.58930770 0.26235560
vt 0.48805490 0.27552290
vt 0.48805490 0.29533550
vt 0.59564440 0.29533550
vt 0.59413340 0.31847070
vt 0.38204960 0.27552290
vt 0.38680220 0.26235560
vt 0.38046550 0.29533550
vt 0.38197640 0.31847070
vt 0.48805490 0.31847070
vt 0.48805490 0.34160590
vt 0.58960060 0.34160590
vt 0.38650920 0.34160590
vt 0.58413590 0.36855580
vt 0.39197390 0.36855580
vt 0.48805490 0.36855580
vt 0.48805490 0.40313550
vt 0.57982960 0.40313550
vt 0.39628030 0.40313550
vt 0.57703410 0.56692370
vt 0.39907570 0.56692370
vt 0.48805490 0.56692370
vt 0.48805490 0.98149900
vt 0.57610230 0.98149900
vt 0.40000750 0.98149900
vt 0.57597110 1.38689100
vt 0.40013870 1.38689100
vt 0.48805490 1.38689100
vt 0.48805490 0.52312950
vt 0.48805490 0.38689100
vt 0.40013870 0.38689100
vt 0.40053230 0.52312950
vt 0.57597110 0.38689100
vt 0.57557760 0.52312950
vt 0.52312950 0.50000000
vt 0.52312950 0.58752270
vt 0.38689100 0.58791620
vt 0.52312950 0.41247730
vt 0.38689090 0.50000000
vt 0.38689100 0.41208380
vt 0.48805490 0.52312950
vt 0.40053230 0.52312950
vt 0.40013870 0.38689100
vt 0.57557760 0.52312950
vt 0.48805490 0.38689090
vt 0.57597110 0.38689100
vt 0.52312950 0.50000000
vt 0.52312950 0.41247730
vt 0.38689100 0.41208380
vt 0.52312950 0.58752270
vt 0.38689090 0.50000000
vt 0.38689100 0.58791620
vt 0.62305860 0.50000000
vt 0.56117950 0.57312450
vt 0.58930770 0.60125280
vt 0.48805490 0.63500370
vt 0.58508320 0.50000000
vt 0.48805490 0.50000000
vt 0.56117950 0.42687550
vt 0.58930770 0.39874720
vt 0.48805490 0.36499630
vt 0.48805490 0.59702830
vt 0.41493040 0.57312450
vt 0.38680220 0.60125280
vt 0.35305120 0.50000000
vt 0.48805490 0.40297170
vt 0.41493040 0.42687550
vt 0.38680220 0.39874720
vt 0.39102660 0.50000000
f 15/15/15 14/14/14 13/13/13
f 14/14/14 16/16/16 13/13/13
f 16/16/16 14/14/14 17/17/17
f 14/14/14 18/18/18 17/17/17
f 18/18/18 19/19/19 17/17/17
f 16/16/16 20/20/20 13/13/13
f 20/20/20 16/16/16 17/17/17
f 20/20/20 21/21/21 13/13/13
f 22/22/22 20/20/20 17/17/17
f 23/23/23 22/22/22 17/17/17
f 19/19/19 24/24/24 17/17/17
f 24/24/24 23/23/23 17/17/17
f 24/24/24 19/19/19 25/25/25
f 23/23/23 24/24/24 25/25/25
f 19/19/19 26/26/26 25/25/25
f 27/27/27 23/23/23 25/25/25
f 26/26/26 28/28/28 25/25/25
f 29/29/29 27/27/27 25/25/25
f 28/28/28 30/30/30 25/25/25
f 30/30/30 29/29/29 25/25/25
f 30/30/30 28/28/28 31/31/31
f 29/29/29 30/30/30 31/31/31
f 28/28/28 32/32/32 31/31/31
f 33/33/33 29/29/29 31/31/31
f 32/32/32 34/34/34 31/31/31
f 35/35/35 33/33/33 31/31/31
f 34/34/34 36/36/36 31/31/31
f 36/36/36 35/35/35 31/31/31
f 36/36/36 34/34/34 37/37/37
f 35/35/35 36/36/36 37/37/37
f 34/34/34 38/38/38 37/37/37
f 39/39/39 35/35/35 37/37/37
f 38/38/38 40/40/40 37/37/37
f 41/41/41 39/39/39 37/37/37
f 40/40/40 42/42/42 37/37/37
f 42/42/42 41/41/41 37/37/37
f 45/45/45 44/44/44 43/43/43
f 44/44/44 46/46/46 43/43/43
f 46/46/46 44/44/44 47/47/47
f 44/44/44 48/48/48 47/47/47
f 48/48/48 49/49/49 47/47/47
f 46/46/46 50/50/50 43/43/43
f 50/50/50 46/46/46 47/47/47
f 50/50/50 51/51/51 43/43/43
f 52/52/52 50/50/50 47/47/47
f 53/53/53 52/52/52 47/47/47
f 49/49/49 54/54/54 47/47/47
f 54/54/54 53/53/53 47/47/47
f 54/54/54 49/49/49 55/55/55
f 53/53/53 54/54/54 55/55/55
f 49/49/49 56/56/56 55/55/55
f 57/57/57 53/53/53 55/55/55
f 56/56/56 58/58/58 55/55/55
f 59/59/59 57/57/57 55/55/55
f 58/58/58 60/60/60 55/55/55
f 60/60/60 59/59/59 55/55/55
f 60/60/60 58/58/58 61/61/61
f 59/59/59 60/60/60 61/61/61
f 58/58/58 62/62/62 61/61/61
f 63/63/63 59/59/59 61/61/61
f 62/62/62 64/64/64 61/61/61
f 65/65/65 63/63/63 61/61/61
f 64/64/64 66/66/66 61/61/61
f 66/66/66 65/65/65 61/61/61
f 66/66/66 64/64/64 67/67/67
f 65/65/65 66/66/66 67/67/67
f 64/64/64 68/68/68 67/67/67
f 69/69/69 65/65/65 67/67/67
f 68/68/68 70/70/70 67/67/67
f 71/71/71 69/69/69 67/67/67
f 70/70/70 72/72/72 67/67/67
f 72/72/72 71/71/71 67/67/67
f 75/75/75 74/74/74 73/73/73
f 74/74/74 76/76/76 73/73/73
f 76/76/76 74/74/74 77/77/77
f 74/74/74 78/78/78 77/77/77
f 78/78/78 79/79/79 77/77/77
f 76/76/76 80/80/80 73/73/73
f 80/80/80 76/76/76 77/77/77
f 80/80/80 81/81/81 73/73/73
f 82/82/82 80/80/80 77/77/77
f 83/83/83 82/82/82 77/77/77
f 79/79/79 84/84/84 77/77/77
f 84/84/84 83/83/83 77/77/77
f 84/84/84 79/79/79 85/85/85
f 83/83/83 84/84/84 85/85/85
f 79/79/79 86/86/86 85/85/85
f 87/87/87 83/83/83 85/85/85
f 86/86/86 88/88/88 85/85/85
f 89/89/89 87/87/87 85/85/85
f 88/88/88 90/90/90 85/85/85
f 90/90/90 89/89/89 85/85/85
f 90/90/90 88/88/88 91/91/91
f 89/89/89 90/90/90 91/91/91
f 88/88/88 92/92/92 91/91/91
f 93/93/93 89/89/89 91/91/91
f 92/92/92 94/94/94 91/91/91
f 95/95/95 93/93/93 91/91/91
f 94/94/94 96/96/96 91/91/91
f 96/96/96 95/95/95 91/91/91
f 96/96/96 94/94/94 97/97/97
f 95/95/95 96/96/96 97/97/97
f 94/94/94 98/98/98 97/97/97
f 99/99/99 95/95/95 97/97/97
f 98/98/98 100/100/100 97/97/97
f 101/101/101 99/99/99 97/97/97
f 100/100/100 102/102/102 97/97/97
f 102/102/102 101/101/101 97/97/97
f 105/105/105 104/104/104 103/103/103
f 104/104/104 106/106/106 103/103/103
f 106/106/106 104/104/104 107/107/107
f 104/104/104 108/108/108 107/107/107
f 108/108/108 109/109/109 107/107/107
f 106/106/106 110/110/110 103/103/103
f 110/110/110 106/106/106 107/107/107
f 110/110/110 111/111/111 103/103/103
f 112/112/112 110/110/110 107/107/107
f 113/113/113 112/112/112 107/107/107
f 109/109/109 114/114/114 107/107/107
f 114/114/114 113/113/113 107/107/107
f 114/114/114 109/109/109 115/115/115
f 113/113/113 114/114/114 115/115/115
f 109/109/109 116/116/116 115/115/115
f 117/117/117 113/113/113 115/115/115
f 116/116/116 118/118/118 115/115/115
f 119/119/119 117/117/117 115/115/115
f 118/118/118 120/120/120 115/115/115
f 120/120/120 119/119/119 115/115/115
f 120/120/120 118/118/118 121/121/121
f 119/119/119 120/120/120 121/121/121
f 118/118/118 122/122/122 121/121/121
f 123/123/123 119/119/119 121/121/121
f 122/122/122 124/124/124 121/121/121
f 125/125/125 123/123/123 121/121/121
f 124/124/124 126/126/126 121/121/121
f 126/126/126 125/125/125 121/121/121
f 126/126/126 124/124/124 127/127/127
f 125/125/125 126/126/126 127/127/127
f 124/124/124 128/128/128 127/127/127
f 129/129/129 125/125/125 127/127/127
f 128/128/128 130/130/130 127/127/127
f 131/131/131 129/129/129 127/127/127
f 130/130/130 132/132/132 127/127/127
f 132/132/132 131/131/131 127/127/127
f 135/135/135 134/134/134 133/133/133
f 136/136/136 135/135/135 133/133/133
f 134/134/134 137/137/137 133/133/133
f 1/1/1 136/136/136 133/133/133
f 137/137/137 138/138/138 133/133/133
f 3/3/3 1/1/1 133/133/133
f 138/138/138 2/2/2 133/133/133
f 2/2/2 3/3/3 133/133/133
f 5/5/5 6/6/6 139/139/139
f 140/140/140 5/5/5 139/139/139
f 6/6/6 4/4/4 139/139/139
f 141/141/141 140/140/140 139/139/139
f 4/4/4 142/142/142 139/139/139
f 143/143/143 141/141/141 139/139/139
f 142/142/142 144/144/144 139/139/139
f 144/144/144 143/143/143 139/139/139
f 11/11/11 12/12/12 145/145/145
f 146/146/146 11/11/11 145/145/145
f 12/12/12 10/10/10 145/145/145
f 147/147/147 146/146/146 145/145/145
f 10/10/10 148/148/148 145/145/145
f 149/149/149 147/147/147 145/145/145
f 148/148/148 150/150/150 145/145/145
f 150/150/150 149/149/149 145/145/145
f 8/8/8 9/9/9 151/151/151
f 152/152/152 8/8/8 151/151/151
f 9/9/9 7/7/7 151/151/151
f 153/153/153 152/152/152 151/151/151
f 7/7/7 154/154/154 151/151/151
f 155/155/155 153/153/153 151/151/151
f 154/154/154 156/156/156 151/151/151
f 156/156/156 155/155/155 151/151/151
f 159/159/159 158/158/158 157/157/157
f 158/158/158 159/159/159 160/160/160
f 158/158/158 161/161/161 157/157/157
f 161/161/161 158/158/158 162/162/162
f 161/161/161 163/163/163 157/157/157
f 163/163/163 161/161/161 162/162/162
f 163/163/163 164/164/164 157/157/157
f 164/164/164 163/163/163 165/165/165
f 166/166/166 158/158/158 160/160/160
f 158/158/158 166/166/166 162/162/162
f 167/167/167 166/166/166 160/160/160
f 166/166/166 167/167/167 162/162/162
f 168/168/168 167/167/167 160/160/160
f 167/167/167 168/168/168 169/169/169
f 163/163/163 170/170/170 165/165/165
f 170/170/170 163/163/163 162/162/162
f 170/170/170 171/171/171 165/165/165
f 171/171/171 170/170/170 162/162/162
f 171/171/171 172/172/172 165/165/165
f 172/172/172 171/171/171 169/169/169
f 167/167/167 173/173/173 162/162/162
f 173/173/173 167/167/167 169/169/169
f 173/173/173 171/171/171 162/162/162
f 171/171/171 173/173/173 169/169/169

