# Blender 4.0.0
# www.blender.org
o decimated_mesh
v -0.827058 -0.073351 -0.017404
v -0.826884 -0.073351 -0.016700
v -0.825987 -0.073351 -0.028111
v -0.814552 -0.100627 -0.028113
v -0.815483 -0.100627 -0.016669
v -0.825072 -0.074937 -0.016677
v -0.825835 -0.073358 -0.016859
v -0.824310 -0.073351 -0.028111
v -0.813226 -0.100623 -0.028113
v -0.817637 -0.086215 -0.016650
v -0.814674 -0.100620 -0.016716
v -0.823423 -0.073352 -0.027236
v -0.816212 -0.085561 -0.028108
v -0.812479 -0.100622 -0.027249
v -0.817765 -0.085423 -0.016845
v -0.816091 -0.084352 -0.027285
v -0.816056 -0.085375 -0.018714
v -0.815427 -0.085444 -0.026956
v -0.815288 -0.086299 -0.027217
v -0.811714 -0.100627 -0.023564
v -0.812500 -0.100623 -0.019388
v -0.815371 -0.085839 -0.019494
v -0.816087 -0.084313 -0.019414
v -0.823420 -0.073352 -0.019424
v -0.815184 -0.084599 -0.024502
v -0.814861 -0.085119 -0.023503
v -0.811808 -0.100625 -0.022328
v -0.815149 -0.084555 -0.022233
v -0.822522 -0.073351 -0.023593
v -0.815115 -0.084419 -0.023340
v -0.814903 -0.085161 -0.022488
v -0.822602 -0.073351 -0.022466
vn -0.9524 -0.2466 0.1792
vn -0.4960 -0.3327 -0.8021
vn -0.1487 -0.1844 -0.9715
vn -0.0021 -1.0000 0.0015
vn -0.9335 -0.2896 -0.2114
vn -0.9257 -0.3616 0.1108
vn -0.9793 -0.1965 -0.0488
vn 0.0007 0.0004 -1.0000
vn -0.7452 -0.1476 0.6503
vn -0.8264 -0.5552 -0.0939
vn -0.8146 -0.5439 0.2017
vn -0.7750 -0.2962 0.5583
vn -0.7060 -0.2748 -0.6527
vn -0.8996 -0.3757 0.2228
vn -0.9330 -0.3558 -0.0536
vn -0.7974 -0.3485 -0.4926
vn -0.8096 -0.5431 -0.2227
vn -0.0581 -0.0074 -0.9983
vn -0.9197 -0.3855 -0.0748
vn -0.9550 -0.1935 -0.2247
vn -0.0001 -1.0000 -0.0000
vn -0.7736 -0.0865 -0.6277
vn -0.4226 -0.2806 -0.8618
vn 0.0030 -1.0000 -0.0009
vn 0.0034 -1.0000 -0.0020
vn 0.0028 -1.0000 0.0014
vn 0.0008 -1.0000 0.0001
vn -0.0094 0.9999 -0.0085
vn -0.8250 -0.5490 0.1340
vn -0.9774 -0.1981 -0.0737
vn -0.0000 -0.0002 -1.0000
vn 0.0001 0.0003 -1.0000
vn -0.7481 -0.1485 0.6467
vn -0.8306 -0.5537 -0.0590
vn -0.8098 -0.5457 0.2153
vn -0.7731 -0.3022 0.5576
vn -0.6368 -0.4222 0.6451
vn -0.6045 -0.4060 0.6853
vn -0.6539 -0.4381 -0.6168
vn -0.6621 -0.4261 -0.6165
vn -0.6542 -0.4382 -0.6165
vn -0.8797 -0.3992 -0.2584
vn -0.9430 -0.3256 -0.0692
vn -0.8110 -0.5428 -0.2183
vn 0.0259 0.0147 -0.9996
vn 0.0091 0.0027 -1.0000
vn -0.9158 -0.3911 -0.0916
vn -0.9602 -0.1957 0.1991
vn -0.9667 -0.1899 0.1713
vn -0.9615 -0.2102 0.1772
vn -0.9629 -0.1884 -0.1930
vn -0.0009 -1.0000 0.0007
vn -0.0000 -1.0000 -0.0020
vn -0.0000 -1.0000 -0.0000
vn -0.0070 -1.0000 0.0017
vn -0.0037 -1.0000 -0.0058
vn -0.0010 -1.0000 -0.0009
vn -0.8600 -0.4503 0.2402
vn -0.7628 -0.1540 -0.6281
vn -0.7665 -0.1534 -0.6236
vn -0.9183 -0.3850 -0.0918
vn -0.9173 -0.3912 -0.0746
vn -0.0089 -0.9999 -0.0107
vn -0.0013 -1.0000 -0.0009
vn 0.0189 0.0068 -0.9998
vn -0.0000 0.0001 -1.0000
vn 0.0030 -1.0000 -0.0017
vn 0.0002 -1.0000 -0.0000
vn 0.0001 0.0001 -1.0000
vn 0.0030 -1.0000 0.0015
vn 0.0072 0.0024 -1.0000
vn -0.8101 -0.5422 -0.2230
vn -0.8105 -0.5436 -0.2182
vn -0.8281 -0.5527 -0.0936
vn -0.8290 -0.5561 -0.0589
vn 0.0013 -1.0000 0.0002
vn -0.0029 -1.0000 0.0009
vn -0.6354 -0.4264 0.6437
vn -0.6090 -0.4038 0.6827
vn 0.0011 0.0005 -1.0000
vn 0.0045 -1.0000 -0.0022
vn -0.7453 -0.1480 0.6501
vn -0.7481 -0.1482 0.6468
vn -0.9777 -0.1965 -0.0738
vn 0.0059 -1.0000 0.0021
vn -0.9615 -0.1890 0.1994
vn -0.9651 -0.1965 0.1732
vn -0.9789 -0.1985 -0.0489
vn -0.9562 -0.1873 -0.2249
vn -0.7866 -0.1571 -0.5971
vn -0.7668 -0.1512 -0.6238
vn -0.7538 -0.1521 -0.6393
vn -0.9345 -0.3486 -0.0718
vn -0.9427 -0.3295 -0.0529
vn -0.8129 -0.5465 0.2013
vn -0.8119 -0.5422 0.2163
vn -0.9615 -0.1945 -0.1942
s 0
f 25//1 18//1 26//1
f 15//2 6//2 7//2
f 2//3 7//3 6//3
f 27//4 4//4 20//4
f 31//5 22//5 28//5
f 26//6 30//6 25//6
f 27//7 31//7 26//7
f 4//8 3//8 13//8
f 14//9 19//9 13//9
f 29//10 30//10 28//10
f 16//11 29//11 12//11
f 13//12 19//12 18//12
f 17//13 10//13 15//13
f 1//14 5//14 2//14
f 26//15 31//15 28//15
f 17//16 23//16 22//16
f 28//17 23//17 32//17
f 11//18 5//18 10//18
f 5//19 3//19 4//19
f 27//20 21//20 31//20
f 29//21 32//21 3//21
f 22//22 10//22 17//22
f 6//23 15//23 10//23
f 4//24 9//24 14//24
f 14//25 20//25 4//25
f 27//26 21//26 5//26
f 4//27 27//27 5//27
f 21//28 5//28 11//28
f 29//29 25//29 30//29
f 27//30 26//30 20//30
f 3//31 8//31 13//31
f 13//32 9//32 4//32
f 9//33 14//33 13//33
f 29//34 28//34 32//34
f 29//35 16//35 25//35
f 13//36 18//36 16//36
f 13//37 12//37 8//37
f 16//38 12//38 13//38
f 7//39 24//39 15//39
f 15//40 23//40 17//40
f 23//41 15//41 24//41
f 22//42 23//42 28//42
f 26//43 28//43 30//43
f 24//44 32//44 23//44
f 6//45 10//45 2//45
f 2//46 10//46 5//46
f 5//47 1//47 3//47
f 26//48 14//48 20//48
f 14//49 26//49 19//49
f 19//50 26//50 18//50
f 22//51 31//51 21//51
f 29//52 3//52 12//52
f 12//53 3//53 8//53
f 3//54 32//54 1//54
f 1//55 7//55 2//55
f 7//56 1//56 24//56
f 24//57 1//57 32//57
f 16//58 18//58 25//58
f 10//59 22//59 11//59
f 21//60 11//60 22//60
f 2//54 8//54 32//54
f 2//54 3//54 8//54
f 2//54 1//54 3//54
f 3//61 4//61 1//61
f 4//62 5//62 1//62
f 7//63 2//63 24//63
f 24//64 2//64 32//64
f 5//65 2//65 6//65
f 8//66 4//66 3//66
f 9//67 20//67 4//67
f 20//68 5//68 4//68
f 8//69 9//69 4//69
f 20//70 21//70 5//70
f 10//71 5//71 6//71
f 23//72 24//72 28//72
f 28//73 24//73 32//73
f 28//74 32//74 30//74
f 30//75 32//75 29//75
f 29//76 32//76 12//76
f 12//77 32//77 8//77
f 12//78 8//78 16//78
f 16//79 8//79 13//79
f 13//80 9//80 8//80
f 14//81 20//81 9//81
f 13//82 9//82 19//82
f 19//83 9//83 14//83
f 31//84 20//84 27//84
f 27//85 21//85 20//85
f 14//86 20//86 19//86
f 19//87 20//87 26//87
f 26//88 20//88 31//88
f 27//89 21//89 22//89
f 22//90 21//90 17//90
f 17//91 21//91 11//91
f 17//92 11//92 10//92
f 31//93 28//93 30//93
f 31//94 30//94 26//94
f 25//95 29//95 12//95
f 25//96 12//96 16//96
f 22//97 31//97 27//97
