# Blender 4.0.0
# www.blender.org
o decimated_mesh
v -0.853654 -0.060544 -0.028148
v -0.853649 -0.061849 -0.028148
v -0.853646 -0.080688 -0.042834
v -0.853653 -0.061902 -0.029493
v -0.890953 -0.085388 -0.028149
v -0.869068 -0.063572 -0.028148
v -0.882213 -0.072338 -0.028152
v -0.892721 -0.100856 -0.028146
v -0.889569 -0.086011 -0.029655
v -0.868502 -0.064998 -0.029672
v -0.881205 -0.073354 -0.029576
v -0.894019 -0.100851 -0.028146
v -0.853649 -0.076501 -0.032170
v -0.878062 -0.100856 -0.032178
v -0.853647 -0.078906 -0.033170
v -0.875652 -0.100853 -0.033212
v -0.853645 -0.082607 -0.042937
v -0.873833 -0.100848 -0.042850
v -0.872261 -0.093193 -0.042854
v -0.861390 -0.082316 -0.042850
v -0.868241 -0.086310 -0.042591
v -0.871950 -0.100849 -0.042952
v -0.871185 -0.100849 -0.042669
v -0.853644 -0.083325 -0.042665
v -0.867696 -0.086867 -0.042900
v -0.892671 -0.100853 -0.029495
vn 0.3338 -0.3339 -0.8815
vn -0.5894 0.3946 -0.7049
vn -1.0000 -0.0007 0.0001
vn -0.1369 0.6973 -0.7036
vn -0.4934 0.3191 -0.8091
vn -0.2563 0.2567 -0.9319
vn 0.3572 -0.3583 0.8626
vn -0.5748 0.1114 -0.8107
vn -0.1183 0.5701 -0.8130
vn -0.2134 0.3059 -0.9278
vn -0.3265 0.4870 -0.8101
vn 0.6697 -0.6721 0.3160
vn -0.6999 0.1387 -0.7006
vn -0.0004 -1.0000 -0.0010
vn -0.0042 0.0050 -1.0000
vn -0.0001 -0.0001 -1.0000
vn -0.0000 -0.0001 -1.0000
vn 0.0002 -0.0003 -1.0000
vn -0.0000 -0.0000 -1.0000
vn -0.0000 0.0004 -1.0000
vn 0.3271 -0.3275 -0.8864
vn -0.5925 0.3959 -0.7016
vn 1.0000 0.0008 0.0010
vn -1.0000 -0.0003 -0.0001
vn -1.0000 -0.0041 0.0035
vn -1.0000 -0.0009 0.0034
vn -0.1369 0.6971 -0.7038
vn -0.4844 0.3252 -0.8122
vn -0.2551 0.2560 -0.9324
vn 0.3670 -0.3696 0.8537
vn -0.5711 0.1169 -0.8125
vn -0.1102 0.5755 -0.8104
vn -0.3158 0.4890 -0.8131
vn -0.3950 0.5925 -0.7020
vn -0.3952 0.5928 -0.7017
vn 0.6712 -0.6720 0.3130
vn -0.7001 0.1387 -0.7005
vn -0.0004 -1.0000 0.0003
vn -0.0004 -1.0000 -0.0006
vn -0.0007 -1.0000 -0.0026
vn 0.0015 -1.0000 -0.0002
vn 0.0041 1.0000 0.0027
vn -0.3065 0.2144 -0.9274
vn -0.0540 0.0106 -0.9985
vn -0.0263 0.0117 -0.9996
vn -0.0103 0.0252 -0.9996
vn -0.0092 0.0536 -0.9985
vn -0.1370 0.6973 -0.7036
vn -0.0001 -0.0000 -1.0000
vn -1.0000 -0.0029 0.0035
vn 0.0007 -0.0007 -1.0000
vn 0.0002 -0.0002 -1.0000
vn -0.0015 -1.0000 -0.0026
vn -0.0002 -1.0000 -0.0009
vn -0.2562 0.2571 -0.9318
vn -0.2555 0.2559 -0.9323
vn -1.0000 0.0015 -0.0053
vn -1.0000 -0.0000 -0.0002
vn -1.0000 -0.0007 0.0007
vn -0.4887 0.3165 -0.8130
vn -0.4868 0.3267 -0.8101
vn -0.5897 0.3941 -0.7049
vn -0.5921 0.3964 -0.7016
vn -0.0005 -1.0000 -0.0011
vn -0.0000 -1.0000 -0.0008
vn 0.0018 -1.0000 0.0004
s 0
f 23//1 17//1 24//1
f 5//2 7//2 9//2
f 3//3 15//3 13//3
f 10//4 6//4 4//4
f 11//5 21//5 19//5
f 14//6 8//6 2//6
f 14//7 15//7 13//7
f 18//8 26//8 9//8
f 20//9 10//9 3//9
f 20//10 25//10 21//10
f 21//11 11//11 10//11
f 23//12 15//12 16//12
f 5//13 9//13 26//13
f 26//14 18//14 14//14
f 17//15 22//15 25//15
f 7//16 8//16 5//16
f 5//17 8//17 12//17
f 8//18 7//18 2//18
f 6//19 1//19 2//19
f 6//20 2//20 7//20
f 23//21 22//21 17//21
f 11//22 9//22 7//22
f 17//23 3//23 24//23
f 3//24 13//24 4//24
f 4//25 2//25 1//25
f 2//26 4//26 13//26
f 3//3 24//3 15//3
f 6//27 1//27 4//27
f 9//28 11//28 19//28
f 14//29 2//29 13//29
f 14//30 16//30 15//30
f 19//31 18//31 9//31
f 10//32 4//32 3//32
f 20//33 21//33 10//33
f 10//34 11//34 7//34
f 7//35 6//35 10//35
f 23//36 24//36 15//36
f 26//37 12//37 5//37
f 18//38 22//38 23//38
f 23//39 16//39 18//39
f 14//40 8//40 26//40
f 16//41 14//41 18//41
f 8//42 26//42 12//42
f 21//43 25//43 19//43
f 18//44 19//44 22//44
f 19//45 25//45 22//45
f 25//46 20//46 17//46
f 20//47 3//47 17//47
f 4//27 10//27 1//27
f 10//48 6//48 1//48
f 6//17 1//17 8//17
f 8//49 1//49 2//49
f 2//50 4//50 3//50
f 7//51 6//51 5//51
f 5//52 6//52 8//52
f 26//53 22//53 8//53
f 22//54 14//54 8//54
f 14//55 8//55 13//55
f 13//56 8//56 2//56
f 13//57 2//57 15//57
f 15//58 2//58 24//58
f 24//59 2//59 3//59
f 19//60 9//60 21//60
f 9//61 11//61 21//61
f 9//62 5//62 11//62
f 5//63 7//63 11//63
f 9//13 12//13 5//13
f 9//37 26//37 12//37
f 18//64 22//64 26//64
f 23//65 14//65 22//65
f 23//66 16//66 14//66
