# Blender 4.0.0
# www.blender.org
o decimated_mesh
v -0.868698 -0.065885 0.016858
v -0.868689 -0.064999 0.016855
v -0.838648 -0.065788 0.016845
v -0.855097 -0.062272 0.016808
v -0.852131 -0.062275 0.016810
v -0.839616 -0.064746 0.016818
v -0.867164 -0.064577 0.016872
v -0.853635 -0.061696 0.017091
v -0.838651 -0.064917 0.016896
v -0.868696 -0.064939 0.028317
v -0.838650 -0.064876 0.028293
v -0.868687 -0.062660 0.019654
v -0.868697 -0.063420 0.018621
v -0.868696 -0.063455 0.028308
v -0.838650 -0.063429 0.028293
v -0.854324 -0.059837 0.019563
v -0.853048 -0.059824 0.019563
v -0.838652 -0.062659 0.019621
v -0.867476 -0.061701 0.022866
v -0.853625 -0.060485 0.028307
v -0.868696 -0.062074 0.022642
v -0.853720 -0.059128 0.022132
v -0.839797 -0.061701 0.022867
v -0.852986 -0.059821 0.027412
v -0.838654 -0.062643 0.027269
v -0.839029 -0.062568 0.027368
v -0.868696 -0.062027 0.023817
v -0.867435 -0.061668 0.023749
v -0.854189 -0.059023 0.023658
v -0.853197 -0.059093 0.022619
v -0.838650 -0.062009 0.023092
v -0.868692 -0.062650 0.027293
v -0.854163 -0.059845 0.027483
v -0.853577 -0.059153 0.024874
v -0.853211 -0.059009 0.023494
v -0.839877 -0.061658 0.023763
v -0.855449 -0.060020 0.027362
v -0.838650 -0.062190 0.025113
vn 0.1897 0.9701 0.1515
vn 0.0907 0.0578 -0.9942
vn -0.1919 0.9612 0.1982
vn -0.1888 0.9741 -0.1246
vn -0.0099 0.9645 -0.2640
vn -0.1903 -0.9568 0.2197
vn -0.9997 -0.0139 0.0197
vn 1.0000 0.0029 -0.0019
vn -0.1535 -0.7666 0.6235
vn 0.1919 0.9773 -0.0903
vn 0.3162 0.9449 0.0846
vn -0.2751 0.9612 -0.0225
vn 0.0021 -0.9968 0.0794
vn 0.0011 0.4380 -0.8990
vn 0.2631 0.9645 -0.0226
vn 0.0008 -0.0005 1.0000
vn 0.0206 0.7958 0.6051
vn 0.1464 0.7416 0.6547
vn -0.0081 0.7982 -0.6023
vn 0.1384 0.6991 -0.7015
vn -0.1360 0.6925 -0.7085
vn -0.1523 0.9633 0.2211
vn -0.1854 0.9629 0.1961
vn -0.1908 0.9623 0.1940
vn -0.2615 0.9500 0.1704
vn -0.1959 0.9803 -0.0269
vn -0.1895 -0.9579 0.2159
vn 0.2871 0.9415 -0.1766
vn 0.1435 0.9640 -0.2237
vn -0.0276 0.9967 -0.0766
vn 0.0215 0.9953 -0.0948
vn -0.0412 0.1885 -0.9812
vn -0.9999 0.0094 -0.0128
vn -1.0000 0.0002 0.0001
vn -1.0000 -0.0000 -0.0045
vn -1.0000 0.0025 0.0016
vn -1.0000 0.0013 0.0006
vn -1.0000 0.0072 -0.0045
vn 1.0000 0.0025 -0.0013
vn -1.0000 -0.0001 -0.0000
vn -1.0000 -0.0032 -0.0027
vn -1.0000 -0.0002 0.0038
vn -1.0000 -0.0002 -0.0001
vn 0.1851 0.7568 -0.6269
vn -0.1554 -0.7695 0.6195
vn 0.1954 0.9803 -0.0295
vn 0.0004 0.0124 0.9999
vn -0.0027 -0.0038 -1.0000
vn -0.0007 0.0074 1.0000
vn 0.0057 0.0319 0.9995
vn -0.0036 0.9668 0.2554
vn -0.2859 0.9575 -0.0376
vn 0.0030 0.9945 0.1045
vn 0.0033 -0.9966 0.0823
vn -0.1899 -0.9617 -0.1979
vn 0.2015 0.9599 0.1947
vn 0.2426 0.9493 0.1999
vn -0.1922 -0.9591 -0.2077
vn 0.0013 -0.0067 -1.0000
vn -0.2557 0.9485 -0.1870
vn -0.1907 0.9568 -0.2194
vn -0.1897 0.9581 -0.2148
vn 0.3047 0.7560 0.5794
vn 0.1503 0.7534 0.6402
vn 0.1537 -0.7688 0.6208
vn -0.1950 0.7308 -0.6542
vn 0.0676 -0.8040 0.5908
vn 0.1556 -0.7716 0.6168
vn -0.1469 0.7455 0.6502
vn -0.1620 0.7250 0.6694
vn -0.1569 0.7740 0.6135
vn -0.0007 -0.0005 1.0000
vn 0.0010 0.0100 0.9999
vn 0.0003 0.0269 0.9996
vn 0.0033 -0.9968 0.0794
vn 0.0021 -0.9966 0.0823
vn -1.0000 -0.0000 0.0001
vn -1.0000 0.0005 -0.0000
vn -1.0000 -0.0007 0.0006
vn -0.1513 0.7584 -0.6340
vn -0.1512 0.7694 -0.6206
vn -0.1541 -0.7698 0.6194
vn -0.1546 -0.7663 0.6236
vn -0.9997 0.0232 -0.0077
vn -0.1601 0.7958 -0.5840
vn -1.0000 -0.0003 -0.0001
vn -1.0000 -0.0001 -0.0001
vn -0.1445 0.7333 0.6643
vn -0.1574 0.7739 0.6135
vn -1.0000 0.0090 0.0027
vn -0.1895 0.9570 -0.2197
vn -0.1894 -0.9570 0.2198
vn -0.1904 -0.9578 0.2155
vn -0.1906 0.9580 -0.2144
vn -0.9999 -0.0110 -0.0043
vn -0.1636 0.8092 0.5643
vn -0.1918 -0.9614 -0.1974
vn -0.1895 -0.9595 -0.2085
s 0
f 36//1 35//1 34//1
f 6//2 9//2 3//2
f 32//3 37//3 28//3
f 19//4 29//4 22//4
f 16//5 22//5 17//5
f 30//6 17//6 23//6
f 12//7 13//7 1//7
f 9//8 18//8 3//8
f 17//9 6//9 18//9
f 35//10 23//10 30//10
f 31//11 36//11 38//11
f 19//12 27//12 28//12
f 10//13 3//13 11//13
f 4//14 8//14 5//14
f 31//15 23//15 36//15
f 20//16 11//16 15//16
f 33//17 20//17 24//17
f 20//18 15//18 24//18
f 17//19 8//19 16//19
f 6//20 5//20 8//20
f 8//21 4//21 7//21
f 37//22 33//22 34//22
f 34//23 29//23 37//23
f 29//24 28//24 37//24
f 28//25 27//25 32//25
f 19//26 28//26 29//26
f 18//27 23//27 17//27
f 18//28 23//28 31//28
f 22//29 30//29 17//29
f 22//30 29//30 35//30
f 35//31 30//31 22//31
f 4//32 2//32 7//32
f 13//33 2//33 1//33
f 1//34 10//34 21//34
f 14//35 32//35 10//35
f 32//36 27//36 10//36
f 27//37 21//37 10//37
f 21//38 12//38 1//38
f 18//39 31//39 3//39
f 31//40 11//40 38//40
f 38//41 11//41 25//41
f 25//42 11//42 15//42
f 11//43 31//43 3//43
f 18//44 9//44 6//44
f 6//45 17//45 8//45
f 35//46 36//46 23//46
f 3//47 4//47 1//47
f 1//48 2//48 4//48
f 3//49 5//49 4//49
f 5//50 3//50 6//50
f 33//51 24//51 34//51
f 19//52 21//52 27//52
f 34//53 35//53 29//53
f 10//54 1//54 3//54
f 24//55 36//55 26//55
f 36//56 26//56 38//56
f 26//57 25//57 38//57
f 36//58 24//58 34//58
f 20//59 10//59 14//59
f 10//16 11//16 20//16
f 12//60 21//60 19//60
f 19//61 22//61 16//61
f 12//62 19//62 16//62
f 25//63 26//63 15//63
f 26//64 24//64 15//64
f 8//65 16//65 7//65
f 7//66 2//66 13//66
f 12//67 13//67 7//67
f 12//68 7//68 16//68
f 14//69 20//69 37//69
f 20//70 33//70 37//70
f 37//71 32//71 14//71
f 5//72 4//72 6//72
f 6//73 4//73 1//73
f 6//74 1//74 3//74
f 3//75 11//75 1//75
f 11//76 10//76 1//76
f 10//77 14//77 1//77
f 14//78 27//78 1//78
f 27//79 21//79 1//79
f 21//34 13//34 1//34
f 13//80 8//80 7//80
f 13//81 16//81 8//81
f 17//82 8//82 18//82
f 18//83 8//83 6//83
f 21//84 12//84 13//84
f 12//85 16//85 13//85
f 31//86 3//86 38//86
f 38//87 3//87 15//87
f 15//43 3//43 11//43
f 15//16 10//16 11//16
f 15//16 20//16 10//16
f 20//88 33//88 14//88
f 33//89 32//89 14//89
f 32//90 27//90 14//90
f 12//91 22//91 16//91
f 30//92 17//92 18//92
f 30//93 18//93 23//93
f 19//94 22//94 12//94
f 25//95 38//95 15//95
f 37//96 32//96 33//96
f 34//97 36//97 26//97
f 34//98 26//98 24//98
