# Blender 4.0.0
# www.blender.org
o decimated_mesh
v -0.838969 -0.139911 -0.023088
v -0.837539 -0.139452 -0.024579
v -0.837832 -0.139683 -0.022991
v -0.837149 -0.139427 -0.023342
v -0.837296 -0.139383 -0.022194
v -0.838272 -0.139165 -0.026944
v -0.837096 -0.138479 -0.027278
v -0.837013 -0.138430 -0.019423
v -0.838239 -0.139138 -0.019734
v -0.838969 -0.139244 -0.027203
v -0.838969 -0.139222 -0.019436
v -0.838137 -0.138499 -0.018735
v -0.838140 -0.138272 -0.028148
v -0.824509 -0.130015 -0.019401
v -0.838968 -0.138458 -0.028155
v -0.824475 -0.129986 -0.027267
v -0.824490 -0.130848 -0.024190
v -0.823956 -0.130562 -0.023329
v -0.824006 -0.130533 -0.022588
v -0.838968 -0.137048 -0.028155
v -0.818598 -0.118357 -0.029025
v -0.825095 -0.129557 -0.028143
v -0.838178 -0.136719 -0.016804
v -0.838964 -0.136950 -0.016704
v -0.815704 -0.100635 -0.029025
v -0.823698 -0.130060 -0.024190
v -0.825450 -0.129092 -0.017724
v -0.826660 -0.129025 -0.016804
v -0.816099 -0.117483 -0.019396
v -0.838968 -0.136275 -0.016676
v -0.815485 -0.100631 -0.016670
v -0.814094 -0.100653 -0.029026
v -0.816101 -0.117511 -0.027265
v -0.825851 -0.128186 -0.016714
v -0.814983 -0.102375 -0.016647
v -0.814696 -0.100629 -0.016751
v -0.817147 -0.116136 -0.029025
v -0.815122 -0.117408 -0.023338
v -0.815070 -0.117081 -0.022202
v -0.815444 -0.116420 -0.019736
v -0.816120 -0.116351 -0.018600
v -0.817397 -0.114559 -0.016649
v -0.814397 -0.100860 -0.016934
v -0.812558 -0.100631 -0.027351
v -0.816075 -0.116342 -0.027947
v -0.815383 -0.116101 -0.027113
v -0.815172 -0.117203 -0.024479
v -0.814866 -0.116715 -0.023500
v -0.815291 -0.115529 -0.019465
v -0.817630 -0.115960 -0.016758
v -0.812630 -0.101256 -0.027462
v -0.812555 -0.101646 -0.019406
v -0.812534 -0.101728 -0.027190
v -0.812570 -0.100630 -0.019280
v -0.811887 -0.101050 -0.024738
v -0.811724 -0.101343 -0.023339
v -0.811829 -0.101240 -0.022185
v -0.811862 -0.100632 -0.022034
v -0.811716 -0.100632 -0.023584
vn -1.0000 0.0004 -0.0002
vn 0.3145 -0.9459 -0.0799
vn -0.0005 -0.0000 -1.0000
vn 0.5443 -0.8085 -0.2240
vn 0.5534 -0.8265 0.1026
vn 0.1764 -0.7592 -0.6265
vn 0.3442 -0.8061 0.4814
vn 0.1289 -0.7625 0.6340
vn -0.7365 -0.0361 0.6754
vn -0.8582 0.4483 -0.2502
vn -0.7605 0.0904 -0.6430
vn -0.8425 0.5374 -0.0362
vn -0.7247 0.3448 -0.5967
vn -0.1588 0.1032 -0.9819
vn -0.1779 0.9667 -0.1839
vn -0.8010 0.3343 -0.4967
vn -0.9739 0.2002 -0.1065
vn 0.2887 -0.7010 0.6521
vn 0.2950 -0.8180 0.4939
vn -0.9680 0.0166 -0.2503
vn 0.1743 -0.9696 -0.1718
vn 0.4356 -0.8640 0.2526
vn -0.8099 0.5443 -0.2188
vn 0.7707 -0.3336 -0.5430
vn -0.9635 0.1950 0.1831
vn 0.8244 -0.5497 -0.1348
vn 0.3885 -0.9175 0.0850
vn -0.4259 0.6701 -0.6079
vn 0.4361 -0.6471 -0.6254
vn 0.5564 -0.8280 -0.0702
vn 0.8277 -0.5557 0.0783
vn -0.6906 -0.4318 -0.5802
vn -0.9564 -0.1990 0.2139
vn 0.8125 -0.5435 -0.2107
vn -0.5447 0.8099 -0.2177
vn -0.6965 0.1364 0.7045
vn 0.2930 -0.7830 -0.5486
vn -0.9521 0.2267 -0.2051
vn -1.0000 0.0001 -0.0000
vn -1.0000 -0.0000 -0.0003
vn -1.0000 0.0002 0.0001
vn -1.0000 -0.0065 0.0075
vn 0.8745 -0.4186 -0.2452
vn -0.0000 -0.0000 -1.0000
vn -0.0231 -0.0214 -0.9995
vn 0.0085 -0.0000 -1.0000
vn -0.0502 0.0082 -0.9987
vn 0.9244 -0.3664 -0.1062
vn 0.0131 -0.0033 -0.9999
vn 0.0266 -0.0052 -0.9996
vn -0.1018 -0.0421 -0.9939
vn -0.0051 0.0035 -1.0000
vn 0.0286 -0.0417 0.9987
vn -0.9904 0.0554 0.1268
vn 0.5431 -0.8144 -0.2043
vn -0.9959 -0.0189 -0.0890
vn -0.9952 -0.0297 -0.0935
vn 0.5563 -0.8280 0.0704
vn -0.7819 0.1582 0.6030
vn -0.8051 0.1656 0.5696
vn 0.0034 -1.0000 0.0033
vn 0.0015 -1.0000 0.0012
vn 0.0002 -1.0000 0.0003
vn 0.0018 -1.0000 -0.0007
vn -0.0108 -0.9997 0.0229
vn 0.0012 -1.0000 -0.0002
vn 0.2501 -0.9494 0.1900
vn 0.6980 -0.6896 -0.1931
vn 0.9539 -0.2419 -0.1776
vn -0.7903 0.0636 -0.6094
vn -0.7652 0.1534 -0.6252
vn -0.7678 0.1552 -0.6217
vn -0.7585 0.1753 -0.6277
vn -0.8350 0.5501 0.0146
vn -0.6523 0.4277 -0.6258
vn -0.6479 0.4334 -0.6264
vn -0.6502 0.4366 -0.6218
vn -0.1886 0.2824 -0.9406
vn -0.2100 0.3131 -0.9262
vn -0.1849 0.9657 -0.1821
vn -0.8139 0.2929 -0.5018
vn 0.4369 -0.8667 -0.2406
vn -0.9751 0.1996 -0.0970
vn 0.4891 -0.5441 0.6818
vn -0.9684 0.0108 -0.2491
vn 0.2037 -0.9734 -0.1044
vn 0.1486 -0.9762 -0.1582
vn 0.0856 -0.1275 -0.9881
vn -0.8106 0.5441 -0.2164
vn -0.9663 0.1925 0.1710
vn -0.9429 0.2868 0.1696
vn 0.8277 -0.5559 -0.0762
vn 0.4202 -0.6628 0.6198
vn -0.4400 0.6554 -0.6139
vn 0.4358 -0.6525 0.6200
vn 0.4202 -0.6286 -0.6544
vn 0.5470 -0.8226 -0.1556
vn -0.5056 0.0320 -0.8622
vn 0.8252 -0.5516 0.1211
vn -0.9678 0.0156 0.2512
vn -0.9216 0.0364 0.3864
vn -0.7029 0.1394 -0.6975
vn 0.8103 -0.5439 -0.2179
vn 0.6864 -0.7011 -0.1932
vn -0.6322 0.4182 0.6522
vn -0.6147 0.4015 0.6789
vn -0.6064 0.4105 0.6810
vn -0.6141 0.4122 0.6730
vn -0.5449 0.8085 -0.2224
vn 0.9407 -0.3351 0.0534
vn -0.6897 0.1360 0.7112
vn 0.3003 -0.7815 -0.5469
vn -0.9555 0.1957 -0.2209
vn -0.9639 0.1907 -0.1857
vn -1.0000 -0.0004 -0.0001
vn -0.1781 0.9670 -0.1823
vn -0.1859 0.9651 -0.1846
vn -1.0000 0.0002 -0.0000
vn -1.0000 -0.0000 -0.0001
vn -1.0000 0.0003 -0.0001
vn -0.2105 0.3151 -0.9254
vn -0.1908 0.2844 -0.9395
vn -0.0095 0.0107 -0.9999
vn 0.0015 -0.0002 -1.0000
vn 0.0137 -0.0089 -0.9999
vn -0.0427 -0.0000 -0.9991
vn 0.0236 -0.0671 -0.9975
vn -0.5454 0.8094 -0.2177
vn -0.5440 0.8090 -0.2226
vn -0.4417 0.6579 -0.6100
vn -0.4359 0.6526 -0.6198
vn -0.6402 0.4282 -0.6378
vn -0.7429 0.1742 -0.6463
vn -0.7569 0.1525 -0.6355
vn 0.0031 -1.0000 0.0003
vn 0.0012 -1.0000 0.0004
vn 0.0001 -0.0001 -1.0000
vn -0.0005 0.0001 -1.0000
vn -0.6111 0.3992 0.6835
vn -0.6144 0.4075 0.6756
vn -0.6143 0.4095 0.6745
vn -0.6294 0.4224 0.6523
vn -0.8104 0.5445 -0.2164
vn -0.8102 0.5438 -0.2189
vn -0.6569 0.4411 -0.6115
vn -0.6487 0.4324 -0.6263
vn -0.7832 0.1569 -0.6016
vn -0.7686 0.1523 -0.6214
vn -0.0010 -1.0000 -0.0000
vn 0.0007 -1.0000 0.0010
vn -0.0022 -1.0000 -0.0006
vn -0.7819 0.1592 0.6028
vn -0.9749 0.2003 -0.0968
vn -0.9741 0.1994 -0.1065
vn -0.9620 0.1970 -0.1891
vn -0.9565 0.1894 -0.2221
vn -0.9684 0.1963 0.1537
vn -0.9652 0.1971 0.1716
vn -0.9608 0.1915 0.2007
vn -0.8079 0.1632 0.5663
s 0
f 1//1 11//1 30//1
f 3//2 2//2 4//2
f 37//3 25//3 32//3
f 7//4 16//4 17//4
f 4//5 19//5 5//5
f 13//6 10//6 15//6
f 9//7 8//7 12//7
f 11//8 12//8 24//8
f 51//9 44//9 32//9
f 40//10 39//10 29//10
f 50//11 49//11 41//11
f 30//12 25//12 20//12
f 34//13 14//13 27//13
f 34//14 42//14 50//14
f 9//15 3//15 1//15
f 40//16 29//16 41//16
f 57//17 56//17 48//17
f 12//18 23//18 24//18
f 11//19 9//19 12//19
f 52//20 54//20 57//20
f 10//21 6//21 2//21
f 8//22 9//22 5//22
f 19//23 29//23 39//23
f 33//24 45//24 46//24
f 56//25 53//25 48//25
f 38//26 26//26 47//26
f 5//27 3//27 4//27
f 14//28 28//28 27//28
f 16//29 7//29 22//29
f 4//30 17//30 18//30
f 38//31 19//31 18//31
f 43//32 36//32 54//32
f 55//33 59//33 44//33
f 47//34 26//34 33//34
f 14//35 19//35 8//35
f 45//36 51//36 32//36
f 13//37 6//37 10//37
f 49//38 39//38 40//38
f 30//39 20//39 1//39
f 20//40 15//40 10//40
f 10//41 1//41 20//41
f 11//42 24//42 30//42
f 46//43 47//43 33//43
f 37//44 21//44 25//44
f 21//45 13//45 20//45
f 13//46 15//46 20//46
f 20//47 25//47 21//47
f 48//48 38//48 47//48
f 34//49 31//49 42//49
f 42//50 31//50 35//50
f 35//51 31//51 36//51
f 31//52 34//52 30//52
f 34//53 30//53 24//53
f 56//54 59//54 55//54
f 17//55 2//55 7//55
f 56//56 57//56 59//56
f 59//57 57//57 58//57
f 4//58 18//58 19//58
f 46//59 53//59 45//59
f 45//60 53//60 51//60
f 36//61 31//61 54//61
f 54//62 31//62 58//62
f 31//63 25//63 58//63
f 59//64 25//64 44//64
f 44//65 25//65 32//65
f 25//66 59//66 58//66
f 9//67 3//67 5//67
f 18//68 16//68 26//68
f 46//69 48//69 47//69
f 43//70 54//70 52//70
f 49//71 42//71 52//71
f 42//72 43//72 52//72
f 42//73 49//73 50//73
f 30//74 31//74 25//74
f 41//75 29//75 50//75
f 50//76 29//76 34//76
f 14//77 34//77 29//77
f 23//78 34//78 28//78
f 34//79 23//79 24//79
f 9//80 1//80 11//80
f 40//81 41//81 49//81
f 7//82 2//82 6//82
f 57//83 48//83 39//83
f 34//84 28//84 27//84
f 58//85 57//85 54//85
f 3//86 1//86 2//86
f 1//87 10//87 2//87
f 22//88 13//88 21//88
f 29//89 19//89 14//89
f 46//90 48//90 53//90
f 55//91 53//91 56//91
f 38//92 18//92 26//92
f 23//93 12//93 8//93
f 8//94 28//94 14//94
f 28//95 23//95 8//95
f 13//96 22//96 7//96
f 4//97 2//97 17//97
f 35//98 36//98 43//98
f 38//99 39//99 19//99
f 55//100 44//100 53//100
f 44//101 51//101 53//101
f 43//102 42//102 35//102
f 16//103 33//103 26//103
f 16//104 18//104 17//104
f 22//105 16//105 21//105
f 21//106 33//106 37//106
f 37//107 33//107 45//107
f 33//108 21//108 16//108
f 5//109 8//109 19//109
f 39//110 38//110 48//110
f 45//111 32//111 37//111
f 13//112 7//112 6//112
f 39//113 52//113 57//113
f 52//114 39//114 49//114
f 10//115 1//115 11//115
f 1//116 11//116 3//116
f 3//117 11//117 9//117
f 30//118 20//118 11//118
f 20//119 15//119 11//119
f 15//120 10//120 11//120
f 23//121 24//121 28//121
f 28//122 24//122 34//122
f 34//123 30//123 42//123
f 42//124 30//124 35//124
f 35//125 30//125 31//125
f 21//126 15//126 20//126
f 21//127 13//127 15//127
f 19//128 5//128 14//128
f 14//129 5//129 8//129
f 14//130 8//130 27//130
f 27//131 8//131 28//131
f 27//132 34//132 50//132
f 50//133 42//133 41//133
f 41//134 42//134 43//134
f 36//135 31//135 25//135
f 36//136 25//136 44//136
f 32//137 37//137 21//137
f 32//138 21//138 25//138
f 37//139 21//139 45//139
f 45//140 21//140 33//140
f 33//141 21//141 22//141
f 33//142 22//142 16//142
f 39//143 19//143 14//143
f 39//144 14//144 29//144
f 29//145 14//145 27//145
f 29//146 27//146 50//146
f 49//147 41//147 52//147
f 52//148 41//148 43//148
f 59//149 36//149 44//149
f 54//150 36//150 58//150
f 58//151 36//151 59//151
f 51//152 45//152 46//152
f 48//153 39//153 56//153
f 56//154 39//154 57//154
f 57//155 39//155 49//155
f 57//156 49//156 52//156
f 56//157 55//157 48//157
f 48//158 55//158 46//158
f 46//159 55//159 53//159
f 46//160 53//160 51//160
