# Blender 4.0.0
# www.blender.org
o decimated_mesh
v -0.892641 -0.115606 0.023230
v -0.892421 -0.116670 0.023494
v -0.892161 -0.117050 0.024790
v -0.892364 -0.116670 0.022642
v -0.892156 -0.117412 0.023494
v -0.892117 -0.117237 0.022281
v -0.891828 -0.116418 0.027141
v -0.891857 -0.116375 0.019904
v -0.891204 -0.117469 0.027430
v -0.891995 -0.115606 0.027320
v -0.891176 -0.117509 0.019564
v -0.883314 -0.130594 0.023501
v -0.883577 -0.130072 0.024346
v -0.890985 -0.116418 0.028310
v -0.891932 -0.115606 0.019537
v -0.891226 -0.116439 0.018894
v -0.882834 -0.129914 0.019531
v -0.883370 -0.130418 0.022707
v -0.882854 -0.129885 0.027462
v -0.882154 -0.130530 0.019631
v -0.882815 -0.130878 0.022642
v -0.882790 -0.130861 0.024346
v -0.882284 -0.130450 0.027350
v -0.882208 -0.129500 0.028313
v -0.891164 -0.115606 0.028318
v -0.889678 -0.115609 0.016854
v -0.889498 -0.116398 0.017007
v -0.881682 -0.128075 0.017001
v -0.881823 -0.129103 0.017873
v -0.870254 -0.138442 0.019567
v -0.889777 -0.115607 0.028316
v -0.888920 -0.115606 0.016819
v -0.880686 -0.129036 0.016995
v -0.869981 -0.139387 0.022293
v -0.870135 -0.139436 0.023493
v -0.869949 -0.139339 0.024845
v -0.870220 -0.138462 0.027437
v -0.869116 -0.136704 0.028317
v -0.869115 -0.135641 0.016900
v -0.869116 -0.136441 0.016838
v -0.880193 -0.128978 0.016821
v -0.882192 -0.126888 0.016848
v -0.869116 -0.139176 0.020050
v -0.869117 -0.138581 0.018944
v -0.869120 -0.139706 0.022580
v -0.869123 -0.139772 0.023727
v -0.869115 -0.138298 0.028295
v -0.869116 -0.136784 0.017007
v -0.869116 -0.139168 0.026988
vn -0.0003 -1.0000 -0.0002
vn -0.5552 -0.8276 0.0827
vn -0.7570 -0.1732 0.6300
vn -0.7036 -0.2866 -0.6503
vn -0.9390 -0.3347 -0.0792
vn -0.9504 -0.2389 0.1991
vn -0.8071 -0.3396 -0.4829
vn -0.2811 -0.9392 -0.1970
vn -0.6622 -0.4296 -0.6140
vn -0.4364 -0.6566 -0.6152
vn -0.3938 -0.2609 -0.8814
vn -0.7722 -0.3053 0.5572
vn 0.0816 0.0766 -0.9937
vn -0.8274 -0.5550 0.0854
vn -0.5565 -0.8294 -0.0493
vn -1.0000 0.0005 0.0027
vn -0.4502 -0.8590 0.2437
vn -0.8132 -0.5432 0.2088
vn -0.8611 -0.4406 -0.2538
vn -0.2934 -0.7957 0.5299
vn -0.4221 -0.6285 0.6533
vn -0.3447 -0.8270 -0.4442
vn 0.7101 0.7021 0.0530
vn -0.9381 -0.3345 0.0898
vn -0.5418 -0.8132 -0.2127
vn -0.6359 -0.7384 -0.2244
vn -0.3294 -0.9425 -0.0558
vn -0.8142 -0.3128 -0.4891
vn -0.2881 -0.2928 -0.9117
vn -0.9701 -0.1446 -0.1951
vn -0.9738 -0.2175 -0.0657
vn -0.6417 -0.7571 -0.1226
vn -0.2841 -0.4237 -0.8601
vn -0.6923 -0.6901 0.2110
vn -0.0040 -0.0024 1.0000
vn -0.0081 -0.0141 0.9999
vn -0.0006 -0.0006 1.0000
vn 0.0007 -0.0094 1.0000
vn -0.0005 -1.0000 0.0001
vn -0.0006 -1.0000 0.0003
vn -0.0001 -1.0000 -0.0001
vn -0.0045 1.0000 -0.0051
vn -0.5496 -0.8245 0.1347
vn -0.8620 -0.4453 0.2420
vn -0.8287 -0.5559 -0.0648
vn -0.8269 -0.5521 -0.1070
vn -0.9290 -0.3648 -0.0627
vn -0.9755 -0.1572 0.1541
vn -0.9753 -0.1647 0.1471
vn -0.8084 -0.5437 -0.2253
vn -0.8093 -0.5436 -0.2227
vn -0.5427 -0.8150 0.2029
vn -0.5437 -0.8106 0.2176
vn -0.7570 -0.1510 -0.6357
vn -0.6259 -0.4197 0.6573
vn -0.6231 -0.4173 0.6615
vn -0.6541 -0.4382 -0.6165
vn -0.6532 -0.4369 -0.6184
vn -0.6656 -0.4179 -0.6183
vn -0.4840 -0.6325 -0.6048
vn -0.4371 -0.6537 -0.6177
vn -0.4199 -0.6651 -0.6175
vn -0.4386 -0.6548 -0.6155
vn -0.4524 -0.3024 -0.8390
vn -0.7777 -0.2833 0.5612
vn -0.4461 -0.8584 -0.2531
vn -0.8231 -0.5477 0.1499
vn -0.5516 -0.8276 -0.1043
vn -1.0000 0.0012 0.0001
vn -1.0000 -0.0003 0.0010
vn -1.0000 -0.0010 0.0024
vn -1.0000 0.0063 -0.0025
vn -1.0000 -0.0015 -0.0018
vn -1.0000 0.0002 -0.0006
vn -1.0000 0.0021 0.0020
vn -0.3367 -0.9347 0.1134
vn -0.9384 -0.2791 -0.2037
vn -0.0434 -0.0284 -0.9987
vn -0.0453 -0.0296 -0.9985
vn -0.5036 -0.5175 -0.6918
vn -0.8097 -0.5439 0.2205
vn -0.4189 -0.6248 0.6589
vn -0.4767 -0.6068 0.6361
vn 0.7129 0.6982 0.0650
vn 0.0027 0.0017 -1.0000
vn -0.5426 -0.8090 -0.2263
vn -0.6373 -0.7371 -0.2249
vn -0.2982 -0.9514 -0.0769
vn -0.2534 -0.2301 -0.9396
vn -0.9655 -0.1831 -0.1852
vn -0.2644 -0.3962 -0.8792
vn -0.2590 -0.9496 0.1766
vn -0.6702 -0.7152 0.1983
vn 0.0005 -1.0000 -0.0000
vn -0.9710 -0.1499 -0.1862
vn -0.9618 -0.1888 -0.1983
vn -0.0006 -1.0000 -0.0000
vn -0.0002 -1.0000 -0.0001
vn -0.9318 -0.3538 -0.0817
vn -0.9400 -0.3352 -0.0634
vn -0.0218 -0.0144 0.9997
vn -0.0007 -0.0008 1.0000
vn 0.0007 0.0008 1.0000
vn -0.6263 -0.4195 0.6572
vn -0.6229 -0.4177 0.6615
vn -0.8087 -0.5433 -0.2254
vn -0.8090 -0.5440 -0.2227
vn -0.7015 -0.6830 0.2037
vn -1.0000 -0.0003 -0.0000
vn -0.6861 -0.6982 0.2046
vn -0.6673 -0.7145 0.2101
vn -0.2648 -0.3950 -0.8797
vn -1.0000 0.0008 0.0002
vn -1.0000 -0.0008 -0.0001
vn -0.2829 -0.4238 -0.8604
vn -0.6521 -0.4362 -0.6201
vn -0.6533 -0.4368 -0.6184
vn -0.6554 -0.4391 -0.6145
vn -0.5450 -0.8135 0.2031
vn -0.5409 -0.8122 0.2184
vn -1.0000 0.0012 -0.0000
vn -1.0000 -0.0013 0.0003
vn -1.0000 0.0010 0.0002
vn -0.4377 -0.6542 -0.6168
vn -0.4390 -0.6553 -0.6147
vn -0.5400 -0.8105 -0.2270
vn -0.5440 -0.8116 -0.2130
vn -0.3218 -0.9434 -0.0796
vn -0.3030 -0.9513 -0.0562
vn -0.9998 0.0204 -0.0017
vn -1.0000 0.0071 -0.0000
s 0
f 15//1 32//1 1//1
f 35//2 22//2 12//2
f 14//3 25//3 10//3
f 27//4 16//4 26//4
f 2//5 6//5 5//5
f 3//6 7//6 10//6
f 8//7 16//7 11//7
f 43//8 45//8 34//8
f 29//9 17//9 28//9
f 20//10 29//10 33//10
f 42//11 27//11 26//11
f 14//12 7//12 9//12
f 39//13 40//13 32//13
f 13//14 5//14 12//14
f 21//15 35//15 12//15
f 48//16 39//16 40//16
f 49//17 37//17 36//17
f 3//18 13//18 9//18
f 8//19 11//19 6//19
f 49//20 47//20 37//20
f 23//21 37//21 24//21
f 43//22 30//22 44//22
f 31//23 39//23 32//23
f 3//24 2//24 5//24
f 20//25 30//25 21//25
f 20//26 18//26 17//26
f 46//27 34//27 45//27
f 15//28 16//28 8//28
f 33//29 28//29 41//29
f 1//30 8//30 4//30
f 2//31 1//31 4//31
f 12//32 18//32 21//32
f 48//33 41//33 40//33
f 22//34 13//34 12//34
f 14//35 24//35 31//35
f 24//36 47//36 38//36
f 31//37 24//37 38//37
f 31//38 25//38 14//38
f 1//39 31//39 10//39
f 25//40 10//40 31//40
f 31//41 1//41 32//41
f 15//42 32//42 26//42
f 35//43 36//43 22//43
f 7//44 3//44 9//44
f 12//45 5//45 18//45
f 5//46 6//46 18//46
f 2//47 4//47 6//47
f 10//48 1//48 3//48
f 1//49 2//49 3//49
f 18//50 6//50 11//50
f 17//51 18//51 11//51
f 37//52 23//52 22//52
f 22//53 36//53 37//53
f 15//54 26//54 16//54
f 24//55 14//55 9//55
f 9//56 19//56 24//56
f 17//57 11//57 28//57
f 28//58 11//58 27//58
f 16//59 27//59 11//59
f 20//60 17//60 29//60
f 33//61 48//61 30//61
f 48//62 44//62 30//62
f 30//63 20//63 33//63
f 28//64 27//64 42//64
f 14//65 10//65 7//65
f 43//66 34//66 30//66
f 13//67 3//67 5//67
f 21//68 34//68 35//68
f 39//69 45//69 38//69
f 47//70 38//70 49//70
f 49//71 38//71 46//71
f 46//72 38//72 45//72
f 45//73 39//73 43//73
f 44//74 39//74 48//74
f 43//75 39//75 44//75
f 36//76 35//76 46//76
f 4//77 8//77 6//77
f 41//78 42//78 32//78
f 42//79 26//79 32//79
f 28//80 33//80 29//80
f 19//81 9//81 13//81
f 47//82 24//82 37//82
f 24//83 19//83 23//83
f 31//84 38//84 39//84
f 32//85 40//85 41//85
f 34//86 21//86 30//86
f 20//87 21//87 18//87
f 46//88 35//88 34//88
f 42//89 41//89 28//89
f 1//90 15//90 8//90
f 48//91 33//91 41//91
f 49//92 36//92 46//92
f 22//34 23//34 13//34
f 13//93 23//93 19//93
f 10//94 1//94 15//94
f 15//95 4//95 1//95
f 25//41 10//41 15//41
f 8//96 4//96 15//96
f 25//97 15//97 31//97
f 31//98 15//98 32//98
f 6//99 5//99 4//99
f 5//100 2//100 4//100
f 14//101 24//101 25//101
f 24//102 38//102 25//102
f 38//103 31//103 25//103
f 9//104 19//104 14//104
f 19//105 24//105 14//105
f 11//106 17//106 6//106
f 17//107 18//107 6//107
f 12//108 19//108 13//108
f 47//109 38//109 39//109
f 12//110 22//110 19//110
f 22//111 23//111 19//111
f 40//112 33//112 41//112
f 47//113 39//113 40//113
f 47//114 40//114 48//114
f 48//115 33//115 40//115
f 28//116 29//116 27//116
f 29//117 11//117 27//117
f 29//118 17//118 11//118
f 22//119 36//119 23//119
f 36//120 37//120 23//120
f 49//121 47//121 43//121
f 43//122 47//122 44//122
f 44//123 47//123 48//123
f 30//124 29//124 33//124
f 30//125 20//125 29//125
f 30//126 34//126 20//126
f 34//127 21//127 20//127
f 34//128 45//128 35//128
f 45//129 46//129 35//129
f 46//130 49//130 45//130
f 45//131 49//131 43//131
