# Blender 4.0.0
# www.blender.org
o decimated_mesh
v -0.852158 -0.139558 0.016802
v -0.868246 -0.136986 0.016835
v -0.853634 -0.140142 0.017084
v -0.855148 -0.139560 0.016808
v -0.869110 -0.136544 0.016843
v -0.838157 -0.136266 0.016840
v -0.869112 -0.135605 0.016916
v -0.838157 -0.135602 0.016936
v -0.838157 -0.136783 0.017006
v -0.839033 -0.136990 0.016834
v -0.853099 -0.141992 0.019503
v -0.869111 -0.138449 0.018787
v -0.838157 -0.138481 0.018828
v -0.854289 -0.142015 0.019567
v -0.868260 -0.139264 0.019614
v -0.838157 -0.136738 0.028293
v -0.869112 -0.136708 0.028316
v -0.838657 -0.139198 0.019634
v -0.851807 -0.141814 0.019621
v -0.853763 -0.142749 0.022318
v -0.869109 -0.139138 0.019885
v -0.838165 -0.138303 0.028289
v -0.869108 -0.138300 0.028302
v -0.853180 -0.142747 0.022605
v -0.838158 -0.139183 0.020066
v -0.853210 -0.142837 0.023493
v -0.853280 -0.141342 0.028281
v -0.839003 -0.139266 0.027377
v -0.838157 -0.139699 0.022642
v -0.853529 -0.142711 0.024764
v -0.854137 -0.142831 0.023614
v -0.869112 -0.139767 0.023106
v -0.854038 -0.141313 0.028314
v -0.838163 -0.139148 0.027102
v -0.852966 -0.142018 0.027419
v -0.868695 -0.139200 0.027302
v -0.838157 -0.139756 0.023789
v -0.854241 -0.142023 0.027436
v -0.869111 -0.139167 0.026991
v -0.869112 -0.139634 0.024624
vn -0.0026 -0.7772 0.6292
vn -0.1934 0.9650 -0.1772
vn -0.0206 -0.9946 -0.1021
vn -1.0000 -0.0010 -0.0017
vn -1.0000 0.0010 0.0022
vn 0.2935 -0.6996 -0.6515
vn -0.1969 -0.9560 -0.2175
vn 0.2510 -0.2952 -0.9219
vn -0.2175 -0.9576 0.1890
vn 0.0356 -0.1795 0.9831
vn -0.1917 0.9625 0.1919
vn -0.1507 -0.7512 0.6426
vn -0.0002 0.9954 0.0963
vn -0.3483 -0.6694 -0.6562
vn 0.0002 -0.0124 0.9999
vn -0.1987 0.9788 0.0486
vn 0.4124 -0.7923 -0.4497
vn -0.1952 -0.9737 -0.1176
vn -0.0015 -0.4310 -0.9024
vn 0.1363 -0.6880 -0.7128
vn -0.4320 -0.7518 0.4983
vn -0.0008 0.0771 -0.9970
vn 0.0074 -0.9679 0.2513
vn -0.1376 -0.6926 -0.7081
vn 0.0115 -0.7850 0.6194
vn -0.1908 0.9656 -0.1767
vn -0.1974 0.9579 -0.2084
vn -0.1525 -0.7639 -0.6270
vn -0.1227 -0.7673 -0.6295
vn -0.1555 -0.7685 -0.6206
vn 0.0304 -0.9981 -0.0541
vn -1.0000 -0.0000 0.0001
vn -1.0000 0.0002 -0.0002
vn -1.0000 -0.0000 -0.0000
vn -1.0000 0.0007 0.0005
vn 1.0000 -0.0049 0.0051
vn 1.0000 -0.0035 0.0024
vn -1.0000 -0.0005 0.0004
vn -1.0000 -0.0022 0.0035
vn -1.0000 -0.0018 -0.0013
vn -1.0000 -0.0020 -0.0024
vn -0.2028 -0.9610 -0.1880
vn -0.1904 -0.9640 -0.1854
vn -0.0026 -0.0089 1.0000
vn 0.0020 -0.0024 1.0000
vn 0.0007 0.0020 1.0000
vn -0.1048 0.7741 0.6244
vn -0.1530 0.7660 0.6244
vn -0.1622 0.7663 0.6217
vn -0.1556 0.7697 0.6191
vn -0.1919 -0.9613 0.1979
vn -0.1859 -0.9623 0.1983
vn -0.1900 -0.9641 0.1857
vn -0.1950 0.9617 0.1924
vn -0.1949 0.9581 0.2099
vn 0.1235 -0.9619 -0.2440
vn 0.1529 -0.9628 -0.2228
vn -0.1552 -0.7653 0.6247
vn 0.0011 0.9950 0.0995
vn -0.2025 -0.9755 0.0855
vn 0.0009 0.0077 -1.0000
vn 0.0019 -0.0026 1.0000
vn -0.0024 -0.0227 0.9997
vn 0.0058 -0.9949 0.1002
vn -0.2015 0.9751 0.0926
vn 0.1957 -0.9698 0.1453
vn 0.2907 -0.7792 0.5553
vn -0.2833 -0.8126 -0.5093
vn -0.0169 -0.7962 -0.6048
vn 0.0006 0.1423 -0.9898
vn 0.0047 -0.9659 -0.2587
vn -0.1506 0.7507 -0.6432
vn -0.1488 0.7453 -0.6499
vn 0.0019 -0.0007 1.0000
vn 0.0001 -0.0120 0.9999
vn -1.0000 -0.0001 0.0002
vn 0.0003 -0.0175 0.9998
vn -0.1528 0.7583 0.6337
vn -0.1524 -0.7693 -0.6204
vn -0.1527 -0.7571 -0.6352
vn -0.1526 0.7686 0.6213
vn -1.0000 -0.0001 -0.0000
vn -1.0000 0.0001 -0.0000
vn -1.0000 0.0038 0.0011
vn -0.1571 0.7839 0.6007
vn -1.0000 0.0004 0.0002
vn -1.0000 -0.0003 -0.0000
vn -0.1554 -0.7789 -0.6075
vn -0.1892 -0.9571 -0.2193
vn -0.1630 0.8164 0.5540
vn 0.1534 -0.9611 -0.2299
vn 0.1176 -0.9656 -0.2319
vn -0.1967 0.9643 -0.1771
vn -0.2013 0.9783 0.0486
vn -0.1982 0.9758 0.0927
vn -0.1956 0.9616 0.1923
vn -0.1955 0.9615 0.1930
vn -0.1909 0.9585 0.2119
vn -0.1966 -0.9626 -0.1867
vn -0.1931 -0.9634 0.1861
vn 0.0527 -0.9936 -0.0996
vn -0.0161 -0.9976 -0.0675
vn -0.1495 0.7455 -0.6495
vn -0.1954 0.9633 -0.1840
vn -0.1896 0.9591 -0.2103
vn -0.1896 -0.9617 0.1981
vn -0.1499 0.7509 -0.6432
s 0
f 38//1 27//1 33//1
f 37//2 28//2 34//2
f 24//3 26//3 31//3
f 8//4 13//4 25//4
f 7//5 12//5 21//5
f 10//6 9//6 13//6
f 20//7 32//7 14//7
f 6//8 9//8 10//8
f 40//9 36//9 39//9
f 27//10 22//10 33//10
f 19//11 29//11 18//11
f 23//12 38//12 33//12
f 17//13 8//13 7//13
f 5//14 2//14 12//14
f 5//15 1//15 6//15
f 37//16 29//16 24//16
f 13//17 25//17 18//17
f 32//18 20//18 31//18
f 1//19 3//19 4//19
f 10//20 3//20 1//20
f 23//21 39//21 36//21
f 7//22 6//22 5//22
f 30//23 35//23 38//23
f 3//24 2//24 4//24
f 38//25 35//25 27//25
f 28//26 37//26 35//26
f 30//27 35//27 37//27
f 14//28 15//28 2//28
f 15//29 12//29 2//29
f 2//30 3//30 14//30
f 31//31 20//31 24//31
f 13//32 8//32 9//32
f 8//33 6//33 9//33
f 8//34 29//34 16//34
f 25//35 29//35 8//35
f 22//36 34//36 16//36
f 34//37 37//37 16//37
f 37//34 16//34 29//34
f 32//34 40//34 17//34
f 40//38 39//38 17//38
f 39//39 23//39 17//39
f 17//34 7//34 32//34
f 32//40 7//40 21//40
f 5//41 12//41 7//41
f 32//42 21//42 15//42
f 15//43 14//43 32//43
f 23//44 33//44 17//44
f 33//45 22//45 16//45
f 33//46 16//46 17//46
f 10//47 18//47 13//47
f 18//48 10//48 19//48
f 19//49 3//49 11//49
f 10//50 3//50 19//50
f 40//51 31//51 38//51
f 31//52 30//52 38//52
f 38//53 36//53 40//53
f 25//54 18//54 29//54
f 29//55 19//55 24//55
f 24//56 20//56 19//56
f 20//57 11//57 19//57
f 36//58 38//58 23//58
f 17//59 16//59 8//59
f 31//60 40//60 32//60
f 6//61 10//61 1//61
f 1//62 5//62 4//62
f 4//63 5//63 2//63
f 26//64 30//64 31//64
f 37//65 24//65 26//65
f 30//66 26//66 37//66
f 34//67 22//67 28//67
f 21//68 12//68 15//68
f 11//69 14//69 3//69
f 7//70 8//70 6//70
f 14//71 11//71 20//71
f 22//72 35//72 27//72
f 28//73 35//73 22//73
f 4//74 1//74 2//74
f 2//75 1//75 6//75
f 8//34 6//34 13//34
f 13//76 6//76 9//76
f 2//77 6//77 5//77
f 13//78 10//78 3//78
f 14//79 12//79 3//79
f 12//80 2//80 3//80
f 13//81 3//81 11//81
f 16//82 8//82 13//82
f 16//83 13//83 37//83
f 37//34 13//34 29//34
f 29//84 13//84 25//84
f 18//85 13//85 11//85
f 32//34 40//34 7//34
f 40//86 39//86 7//86
f 39//87 17//87 7//87
f 15//88 12//88 14//88
f 20//89 15//89 14//89
f 18//90 11//90 19//90
f 19//91 24//91 11//91
f 24//92 20//92 11//92
f 34//93 37//93 30//93
f 26//94 37//94 29//94
f 26//95 29//95 24//95
f 24//96 29//96 25//96
f 24//97 25//97 18//97
f 24//98 18//98 19//98
f 15//99 20//99 32//99
f 31//100 36//100 40//100
f 24//101 26//101 20//101
f 26//102 31//102 20//102
f 27//103 22//103 28//103
f 28//104 34//104 30//104
f 28//105 30//105 35//105
f 38//106 36//106 31//106
f 35//107 27//107 28//107
