# Blender 4.0.0
# www.blender.org
o decimated_mesh
v -0.816178 -0.085721 0.028289
v -0.817689 -0.085721 0.028293
v -0.818827 -0.085721 0.016957
v -0.817468 -0.115554 0.028293
v -0.815381 -0.085725 0.027269
v -0.816069 -0.115554 0.028293
v -0.812539 -0.100243 0.027414
v -0.818534 -0.085721 0.016843
v -0.818264 -0.115554 0.016822
v -0.817560 -0.115551 0.016843
v -0.813180 -0.100897 0.028289
v -0.814915 -0.085721 0.024903
v -0.811879 -0.100984 0.024924
v -0.817745 -0.085727 0.016891
v -0.817534 -0.086866 0.016803
v -0.811737 -0.100397 0.023649
v -0.812538 -0.101547 0.027428
v -0.811722 -0.101341 0.023494
v -0.814983 -0.102391 0.016810
v -0.815252 -0.115557 0.027312
v -0.814748 -0.085721 0.023097
v -0.811810 -0.100468 0.022613
v -0.811835 -0.101003 0.022187
v -0.817290 -0.087385 0.016876
v -0.815004 -0.099424 0.016804
v -0.814366 -0.114696 0.023720
v -0.816026 -0.085721 0.018794
v -0.814412 -0.100919 0.017088
v -0.812564 -0.100380 0.019511
v -0.812545 -0.101535 0.019559
v -0.812741 -0.099099 0.019627
v -0.815402 -0.085729 0.019654
v -0.814623 -0.115554 0.023336
v -0.814420 -0.114771 0.022853
v -0.815279 -0.115554 0.019643
vn -0.0063 -0.9998 -0.0181
vn -0.3633 -0.0026 -0.9317
vn -0.7717 -0.1548 0.6169
vn -0.6011 -0.1719 0.7804
vn -0.9616 -0.1417 0.2350
vn -0.0615 -0.0886 0.9942
vn -0.6823 -0.1339 0.7187
vn -0.9729 0.1891 0.1335
vn -0.7693 0.1552 0.6197
vn 0.0524 0.0107 0.9986
vn -0.9749 -0.2034 -0.0903
vn -0.9251 0.3423 0.1642
vn 0.8041 0.0069 0.5945
vn 0.0008 -0.0000 1.0000
vn -0.9616 -0.1914 -0.1969
vn -0.9592 0.1883 0.2108
vn 0.7593 -0.1524 0.6326
vn -0.0000 -1.0000 -0.0000
vn 0.0119 -0.9998 -0.0179
vn 0.0004 -1.0000 0.0046
vn -0.0027 -1.0000 -0.0022
vn 0.0001 -1.0000 0.0001
vn -0.0048 -1.0000 0.0031
vn -0.0047 -1.0000 0.0073
vn -0.0000 -1.0000 0.0030
vn -0.0052 1.0000 0.0055
vn -0.0018 -1.0000 -0.0010
vn -0.9616 0.2722 0.0355
vn -0.9974 -0.0192 0.0692
vn -0.9950 -0.0074 0.0999
vn -0.4641 -0.0934 0.8808
vn -0.7668 -0.1626 0.6209
vn -0.7710 -0.1543 0.6178
vn -0.8082 -0.0610 0.5858
vn -0.7259 -0.2051 0.6566
vn -0.9631 0.1882 -0.1924
vn -0.9588 0.1923 -0.2089
vn -0.9697 0.1894 -0.1542
vn -0.9619 -0.1539 0.2261
vn -0.9640 -0.1922 0.1836
vn -0.9579 -0.1977 0.2081
vn -0.9939 0.0017 -0.1101
vn -0.9799 0.1948 0.0434
vn -0.9769 -0.1973 0.0821
vn -0.7660 0.1531 0.6243
vn -0.0040 0.0019 1.0000
vn -0.0300 0.0084 0.9995
vn 0.0086 -0.0006 1.0000
vn -0.9970 -0.0283 0.0719
vn -0.9965 -0.0181 0.0819
vn -0.9651 -0.0043 0.2617
vn 0.7784 0.1585 0.6074
vn 0.7424 0.1467 0.6537
vn -0.0000 0.0002 1.0000
vn 0.0024 0.0005 1.0000
vn 0.9669 0.0035 0.2550
vn -0.9277 0.3435 -0.1464
vn -0.9631 -0.1905 -0.1901
vn -0.9611 -0.1940 -0.1967
vn -0.7964 0.0123 0.6046
vn -0.9568 0.1902 0.2201
vn -0.6986 0.1386 0.7020
vn -0.4349 -0.0013 0.9005
vn 0.7374 -0.1452 0.6596
vn 0.0004 -1.0000 -0.0000
vn -0.0000 -0.0000 1.0000
vn 0.0009 0.0001 1.0000
vn -0.0103 -0.9999 -0.0037
vn -0.0004 -1.0000 -0.0000
vn 0.0008 -1.0000 -0.0001
vn -0.0013 -1.0000 0.0001
vn -0.9616 -0.1902 -0.1980
vn -0.9620 -0.1908 -0.1952
vn -0.9628 -0.1922 -0.1901
vn -0.0217 -0.9997 0.0063
vn -0.9629 -0.1979 0.1834
vn -0.7996 -0.1605 0.5787
vn -0.7695 -0.1514 0.6205
vn -0.7596 -0.1517 0.6325
vn -0.0080 -0.9999 0.0103
vn -0.0398 0.0003 -0.9992
vn 0.0004 -1.0000 -0.0004
vn -0.0025 -0.0006 -1.0000
vn 0.0024 -1.0000 -0.0004
vn -0.9626 0.1914 -0.1915
vn -0.9595 0.1876 -0.2101
vn -0.8149 -0.1633 0.5561
vn -0.9585 -0.1912 0.2113
vn -0.9633 -0.1377 0.2302
vn -0.9611 -0.1540 0.2292
vn -0.7697 0.1538 0.6197
vn -0.7659 0.1543 0.6242
vn -0.9571 0.1879 0.2206
vn -0.9590 0.1902 0.2103
s 0
f 8//1 14//1 3//1
f 3//2 8//2 9//2
f 32//3 24//3 31//3
f 24//4 14//4 15//4
f 22//5 31//5 23//5
f 8//6 15//6 14//6
f 24//7 25//7 28//7
f 18//8 23//8 34//8
f 10//9 30//9 28//9
f 15//10 8//10 25//10
f 16//11 12//11 21//11
f 33//12 34//12 35//12
f 11//13 17//13 7//13
f 2//14 4//14 11//14
f 16//15 7//15 12//15
f 35//16 34//16 30//16
f 17//17 6//17 20//17
f 3//18 21//18 2//18
f 27//19 32//19 3//19
f 1//20 2//20 5//20
f 5//21 2//21 12//21
f 12//22 2//22 21//22
f 21//23 3//23 32//23
f 27//24 3//24 14//24
f 20//25 6//25 4//25
f 4//18 9//18 33//18
f 10//26 9//26 35//26
f 35//18 33//18 9//18
f 33//27 20//27 4//27
f 34//28 33//28 26//28
f 9//29 4//29 3//29
f 4//30 2//30 3//30
f 25//31 24//31 15//31
f 31//32 28//32 29//32
f 28//33 31//33 24//33
f 32//34 27//34 24//34
f 24//35 27//35 14//35
f 17//36 26//36 20//36
f 26//37 17//37 13//37
f 18//38 26//38 13//38
f 23//39 31//39 29//39
f 31//40 21//40 32//40
f 21//41 31//41 22//41
f 13//42 16//42 18//42
f 18//43 34//43 26//43
f 21//44 22//44 16//44
f 30//45 10//45 35//45
f 25//46 9//46 19//46
f 19//47 9//47 10//47
f 9//48 25//48 8//48
f 22//49 18//49 16//49
f 18//50 22//50 23//50
f 29//51 30//51 23//51
f 7//52 5//52 1//52
f 1//53 11//53 7//53
f 6//54 11//54 4//54
f 11//55 1//55 2//55
f 7//56 17//56 13//56
f 26//57 33//57 20//57
f 5//58 12//58 7//58
f 13//59 7//59 16//59
f 29//60 28//60 30//60
f 23//61 30//61 34//61
f 10//62 28//62 19//62
f 19//63 28//63 25//63
f 11//64 6//64 17//64
f 1//65 2//65 3//65
f 4//66 6//66 2//66
f 6//67 11//67 2//67
f 5//68 1//68 12//68
f 12//69 1//69 21//69
f 21//69 1//69 27//69
f 27//18 1//18 8//18
f 8//70 1//70 3//70
f 9//71 20//71 4//71
f 13//72 7//72 5//72
f 13//73 5//73 16//73
f 16//74 5//74 12//74
f 32//75 21//75 27//75
f 22//76 21//76 32//76
f 32//77 27//77 29//77
f 29//78 27//78 28//78
f 28//79 27//79 24//79
f 14//80 27//80 8//80
f 15//81 9//81 8//81
f 35//82 20//82 9//82
f 15//83 25//83 9//83
f 35//84 33//84 20//84
f 26//85 20//85 13//85
f 13//86 20//86 17//86
f 31//87 32//87 29//87
f 22//88 32//88 31//88
f 23//89 22//89 29//89
f 29//90 22//90 31//90
f 30//91 28//91 35//91
f 35//92 28//92 10//92
f 30//93 35//93 23//93
f 23//94 35//94 34//94
