# Blender 4.0.0
# www.blender.org
o decimated_mesh
v -0.838650 -0.062006 0.023183
v -0.837842 -0.062149 0.023739
v -0.837149 -0.062400 0.023495
v -0.837880 -0.062198 0.022642
v -0.838650 -0.062191 0.025113
v -0.837367 -0.062457 0.024690
v -0.837309 -0.062440 0.022336
v -0.838343 -0.062667 0.027169
v -0.838650 -0.062555 0.026988
v -0.837025 -0.063376 0.027400
v -0.837913 -0.062766 0.020093
v -0.838649 -0.062602 0.019786
v -0.838210 -0.063506 0.028286
v -0.838650 -0.062855 0.027586
v -0.837121 -0.063337 0.019561
v -0.838650 -0.063430 0.028294
v -0.824599 -0.071718 0.027415
v -0.824640 -0.071727 0.019534
v -0.824160 -0.071178 0.022699
v -0.838210 -0.063402 0.018757
v -0.825028 -0.072318 0.028289
v -0.824488 -0.070982 0.024345
v -0.823954 -0.071264 0.023525
v -0.838646 -0.063271 0.018750
v -0.838650 -0.064878 0.028295
v -0.823938 -0.072514 0.027344
v -0.824041 -0.072384 0.019633
v -0.823681 -0.071747 0.022641
v -0.826661 -0.072797 0.016961
v -0.838161 -0.065054 0.017012
v -0.838648 -0.065026 0.016849
v -0.817693 -0.085716 0.028294
v -0.825453 -0.072736 0.017878
v -0.816175 -0.085706 0.028295
v -0.838449 -0.066093 0.016950
v -0.818818 -0.085716 0.016951
v -0.815938 -0.084694 0.027493
v -0.816259 -0.084017 0.027355
v -0.825747 -0.073744 0.016888
v -0.816073 -0.084377 0.019559
v -0.838650 -0.065713 0.016841
v -0.818549 -0.085716 0.016845
v -0.815349 -0.085708 0.027185
v -0.816302 -0.084964 0.028059
v -0.815105 -0.084450 0.023584
v -0.815365 -0.085705 0.019822
v -0.817791 -0.085715 0.016873
v -0.815336 -0.084751 0.025592
v -0.814876 -0.085068 0.023741
v -0.815167 -0.084573 0.022321
v -0.816023 -0.085712 0.018777
v -0.814916 -0.085159 0.022641
v -0.814916 -0.085716 0.024904
v -0.814754 -0.085716 0.023188
vn -0.5559 -0.8277 -0.0762
vn -0.5570 -0.8289 0.0520
vn -0.9296 -0.3631 0.0637
vn -0.7981 -0.5755 -0.1782
vn -0.7625 -0.6158 -0.1982
vn -0.3216 -0.7752 -0.5437
vn -0.0620 -0.8921 -0.4475
vn -0.3525 -0.8513 0.3885
vn -0.8283 -0.5523 0.0940
vn -0.1442 -0.7683 -0.6236
vn -0.4256 -0.6352 -0.6445
vn -0.0072 -0.0061 1.0000
vn -0.7345 -0.6408 0.2236
vn -0.7052 -0.7055 0.0699
vn -0.2571 -0.9487 -0.1842
vn -0.4371 -0.6533 0.6182
vn -0.2606 -0.7093 0.6549
vn -0.1092 -0.9895 -0.0948
vn -0.3089 -0.7993 0.5154
vn -0.5436 -0.8088 0.2244
vn 0.0011 -1.0000 0.0077
vn -0.3458 -0.3477 -0.8715
vn -0.1516 -0.2199 0.9637
vn -0.4634 -0.4636 -0.7552
vn -0.8738 -0.4520 -0.1795
vn -0.9780 -0.1100 0.1771
vn -0.2076 -0.9769 0.0513
vn -0.7201 -0.3187 -0.6164
vn -0.9899 -0.1063 -0.0933
vn -0.3651 -0.9294 0.0546
vn -0.8087 -0.5426 0.2272
vn -0.9384 -0.2928 -0.1835
vn -0.6474 -0.4311 0.6285
vn -0.8868 -0.4609 0.0337
vn -0.7718 -0.2731 -0.5743
vn -0.9479 -0.2633 -0.1793
vn -1.0000 0.0001 0.0001
vn -1.0000 -0.0001 -0.0000
vn -1.0000 -0.0000 0.0006
vn -1.0000 -0.0005 -0.0011
vn -1.0000 -0.0000 -0.0000
vn 1.0000 -0.0007 0.0003
vn -0.9999 0.0088 -0.0088
vn -1.0000 0.0032 -0.0016
vn -0.5492 -0.8240 -0.1394
vn -0.5524 -0.8269 0.1056
vn -0.9410 -0.3294 0.0778
vn -0.8154 -0.5481 -0.1867
vn -0.8188 -0.5467 -0.1753
vn -0.2979 -0.9300 0.2154
vn -0.2851 -0.9355 0.2090
vn -0.9719 -0.2291 0.0542
vn -0.6476 -0.4354 -0.6253
vn -0.6474 -0.4355 -0.6255
vn -0.6357 -0.4250 -0.6444
vn -0.6267 -0.4644 -0.6258
vn -0.7988 -0.3264 0.5054
vn -0.8295 -0.5565 0.0475
vn -0.4203 -0.6290 -0.6540
vn -0.4956 -0.5304 0.6878
vn -0.4522 -0.8573 0.2463
vn -0.8727 -0.4150 0.2572
vn -0.0117 -0.0115 0.9999
vn -0.0368 -0.0359 0.9987
vn -0.7372 -0.6380 0.2225
vn -0.3731 -0.9210 -0.1119
vn -0.7037 -0.7077 0.0634
vn -0.3061 -0.4601 0.8335
vn -0.2437 -0.9536 -0.1769
vn -0.2559 -0.9498 -0.1799
vn -0.4170 -0.6660 0.6186
vn -0.4384 -0.6542 0.6163
vn -0.4332 -0.6595 0.6144
vn -0.2248 -0.7108 0.6665
vn -0.0005 -0.0000 1.0000
vn 0.0008 0.0008 1.0000
vn 0.0177 0.0008 0.9998
vn 0.0033 0.0054 1.0000
vn -0.2665 -0.8623 0.4305
vn -0.6763 -0.7104 -0.1949
vn -0.5435 -0.8093 0.2229
vn -0.2750 -0.7843 -0.5561
vn -0.4264 -0.8716 -0.2419
vn -0.0063 1.0000 -0.0066
vn -0.0000 -1.0000 -0.0000
vn 0.0007 -1.0000 0.0013
vn -0.0215 0.9997 0.0072
vn 0.0027 -1.0000 -0.0017
vn -0.0052 1.0000 -0.0042
vn -0.8593 -0.4353 -0.2686
vn -0.3156 -0.9458 0.0769
vn -0.8134 -0.5417 0.2121
vn -0.5443 -0.8111 -0.2143
vn -0.5438 -0.8132 -0.2073
vn -0.1234 -0.9775 0.1714
vn -0.9110 -0.3792 -0.1619
vn 0.6320 0.4840 -0.6053
vn -0.6512 -0.4364 0.6209
vn -0.6673 -0.4135 0.6195
vn -0.6738 -0.3925 0.6261
vn -0.7536 -0.6463 0.1200
vn -0.9352 -0.2888 0.2049
vn -0.5111 -0.3382 -0.7902
vn -1.0000 0.0002 -0.0000
vn -1.0000 0.0030 -0.0029
vn -0.3168 -0.8094 0.4945
vn -0.2532 -0.8129 0.5245
vn -0.9998 0.0162 -0.0135
vn -0.0109 -0.0115 0.9999
vn -0.0095 -0.0094 0.9999
vn -1.0000 -0.0000 0.0001
vn -1.0000 -0.0005 0.0002
vn -1.0000 0.0011 -0.0003
vn -0.2564 -0.9494 -0.1816
vn -0.2387 -0.9533 -0.1851
vn -0.3233 -0.9448 0.0539
vn -0.3521 -0.9324 0.0815
vn -0.2261 -0.7157 0.6608
vn -0.2618 -0.7046 0.6595
vn -0.5438 -0.8091 0.2229
vn -0.5433 -0.8090 0.2245
vn -0.4370 -0.6533 0.6183
vn -0.4391 -0.6552 0.6147
vn -0.6461 -0.4302 0.6304
vn -0.0368 -0.0258 0.9990
vn 0.0015 -1.0000 -0.0008
vn 0.0001 -1.0000 -0.0000
vn -0.0018 -1.0000 0.0002
vn -0.7034 -0.7074 0.0697
vn -0.7055 -0.7058 0.0631
vn -0.0005 -0.0006 1.0000
vn 0.0010 0.0010 1.0000
vn 0.0237 0.0359 0.9991
vn -0.4368 -0.6529 0.6187
vn -0.7347 -0.6408 0.2226
vn -0.7370 -0.6380 0.2233
vn -0.6551 -0.4390 0.6149
vn -0.6475 -0.4309 0.6285
vn 0.0045 -1.0000 -0.0023
vn -0.6354 -0.4266 -0.6437
vn -0.8170 -0.5491 -0.1761
vn -0.8117 -0.5441 0.2124
vn -0.8104 -0.5398 0.2279
vn -0.9315 -0.3550 0.0799
vn -0.9407 -0.3335 0.0617
vn -0.8674 -0.4235 -0.2615
vn -0.6497 -0.4343 -0.6239
vn -0.8148 -0.5441 -0.2000
vn -0.8170 -0.5490 -0.1764
vn -0.8519 -0.4571 -0.2556
s 0
f 3//1 23//1 22//1
f 19//2 23//2 3//2
f 50//3 52//3 49//3
f 45//4 48//4 38//4
f 23//5 26//5 17//5
f 8//6 10//6 13//6
f 8//7 14//7 9//7
f 11//8 12//8 15//8
f 28//9 50//9 45//9
f 14//10 13//10 16//10
f 17//11 21//11 10//11
f 31//12 47//12 39//12
f 27//13 28//13 19//13
f 32//14 35//14 36//14
f 5//15 6//15 9//15
f 29//16 15//16 30//16
f 24//17 31//17 30//17
f 2//18 5//18 1//18
f 15//19 12//19 24//19
f 7//20 15//20 19//20
f 36//21 42//21 47//21
f 41//22 42//22 36//22
f 29//23 31//23 39//23
f 35//24 41//24 36//24
f 43//25 37//25 38//25
f 54//26 52//26 46//26
f 1//27 4//27 2//27
f 37//28 34//28 44//28
f 54//29 53//29 49//29
f 2//30 4//30 7//30
f 28//31 40//31 50//31
f 49//32 43//32 48//32
f 47//33 40//33 39//33
f 35//34 25//34 41//34
f 43//35 34//35 37//35
f 53//36 43//36 49//36
f 41//37 25//37 1//37
f 5//38 25//38 9//38
f 16//39 14//39 25//39
f 14//40 9//40 25//40
f 5//41 1//41 25//41
f 1//42 41//42 12//42
f 41//43 12//43 24//43
f 24//44 31//44 41//44
f 3//45 22//45 6//45
f 19//46 3//46 7//46
f 50//47 49//47 45//47
f 45//48 38//48 23//48
f 26//49 23//49 38//49
f 7//50 12//50 11//50
f 12//51 7//51 4//51
f 54//52 49//52 52//52
f 21//53 38//53 44//53
f 44//54 38//54 37//54
f 38//55 21//55 26//55
f 26//56 21//56 17//56
f 46//57 40//57 51//57
f 28//58 45//58 23//58
f 13//59 10//59 21//59
f 39//60 33//60 29//60
f 11//61 15//61 7//61
f 50//62 40//62 46//62
f 42//63 31//63 41//63
f 47//64 31//64 42//64
f 27//65 19//65 18//65
f 6//66 2//66 3//66
f 32//67 25//67 35//67
f 29//68 30//68 31//68
f 8//69 9//69 6//69
f 2//70 6//70 5//70
f 20//71 30//71 15//71
f 15//72 29//72 18//72
f 18//73 29//73 33//73
f 24//74 30//74 20//74
f 34//75 21//75 32//75
f 25//76 32//76 21//76
f 13//77 16//77 25//77
f 21//78 13//78 25//78
f 20//79 15//79 24//79
f 17//80 22//80 23//80
f 18//81 19//81 15//81
f 13//82 14//82 8//82
f 10//83 8//83 6//83
f 43//84 32//84 34//84
f 32//85 36//85 54//85
f 47//86 51//86 36//86
f 51//87 54//87 46//87
f 36//88 51//88 54//88
f 54//85 53//85 32//85
f 53//89 32//89 43//89
f 43//90 38//90 48//90
f 2//91 7//91 3//91
f 40//92 28//92 27//92
f 10//93 22//93 17//93
f 22//94 10//94 6//94
f 12//95 4//95 1//95
f 45//96 49//96 48//96
f 33//97 18//97 27//97
f 27//98 39//98 40//98
f 27//99 33//99 39//99
f 40//100 47//100 51//100
f 23//101 19//101 28//101
f 52//102 50//102 46//102
f 21//103 44//103 34//103
f 41//104 5//104 1//104
f 31//105 41//105 12//105
f 15//106 12//106 20//106
f 20//107 12//107 24//107
f 24//108 31//108 12//108
f 31//109 41//109 39//109
f 39//110 41//110 42//110
f 25//111 16//111 41//111
f 16//112 14//112 41//112
f 14//113 9//113 41//113
f 9//104 5//104 41//104
f 8//114 5//114 6//114
f 9//115 5//115 8//115
f 3//116 2//116 4//116
f 3//117 4//117 7//117
f 24//118 31//118 20//118
f 20//119 31//119 30//119
f 19//120 7//120 18//120
f 18//121 7//121 15//121
f 33//122 15//122 30//122
f 18//123 15//123 33//123
f 33//124 39//124 47//124
f 47//125 39//125 42//125
f 47//126 54//126 42//126
f 54//127 53//127 42//127
f 53//85 32//85 42//85
f 32//128 36//128 42//128
f 32//129 25//129 36//129
f 25//130 35//130 36//130
f 21//76 16//76 25//76
f 32//131 34//131 25//131
f 34//132 21//132 25//132
f 21//133 13//133 16//133
f 33//134 30//134 29//134
f 28//135 19//135 18//135
f 28//136 18//136 27//136
f 27//137 33//137 40//137
f 40//138 33//138 47//138
f 51//139 54//139 47//139
f 44//140 21//140 26//140
f 26//141 23//141 45//141
f 50//142 28//142 27//142
f 50//143 27//143 40//143
f 50//144 52//144 45//144
f 45//145 52//145 49//145
f 48//146 43//146 37//146
f 38//147 44//147 26//147
f 38//148 26//148 48//148
f 48//149 26//149 45//149
f 48//150 37//150 38//150
