# Blender 4.0.0
# www.blender.org
o decimated_mesh
v -0.836288 -0.135491 0.028295
v -0.836288 -0.137077 0.028295
v -0.836290 -0.115935 0.033902
v -0.836299 -0.135023 0.029989
v -0.835889 -0.089155 0.033916
v -0.835298 -0.089155 0.033294
v -0.816837 -0.089155 0.028295
v -0.826296 -0.128265 0.030010
v -0.834136 -0.089155 0.033916
v -0.815515 -0.089155 0.028295
v -0.824990 -0.129487 0.028300
v -0.830606 -0.100492 0.033916
v -0.832336 -0.109860 0.033902
v -0.813204 -0.100907 0.028295
v -0.815208 -0.100968 0.030098
v -0.817237 -0.089155 0.029981
v -0.817890 -0.115793 0.029982
v -0.814940 -0.100393 0.029932
v -0.814958 -0.101549 0.029936
v -0.832424 -0.091819 0.033916
v -0.816265 -0.116417 0.028296
vn -0.7225 0.0894 -0.6855
vn 0.6848 -0.0081 0.7287
vn -0.2598 0.1091 -0.9595
vn 0.3921 -0.5841 0.7107
vn 0.2419 -0.0513 0.9690
vn 0.1324 -0.1991 0.9710
vn 0.2074 -0.1376 0.9685
vn -1.0000 0.0019 -0.0071
vn 0.2244 0.1442 0.9638
vn -0.2419 -0.0511 -0.9690
vn -0.0000 -0.0000 1.0000
vn 0.0001 -0.0000 1.0000
vn -0.0009 0.0008 1.0000
vn -0.0004 -0.0000 1.0000
vn -0.0001 -0.0000 1.0000
vn 0.5779 -0.3879 0.7180
vn 0.5862 -0.3911 0.7095
vn -0.0000 -1.0000 -0.0000
vn -0.0000 1.0000 -0.0000
vn 0.3911 -0.5812 0.7136
vn 0.2391 -0.0456 0.9699
vn 0.2074 -0.1350 0.9689
vn -0.9985 0.0150 -0.0527
vn -1.0000 -0.0000 -0.0066
vn 0.6869 -0.1391 0.7133
vn 0.7032 -0.1388 0.6973
vn 0.5329 -0.0053 0.8462
vn 0.4022 -0.0798 0.9121
vn -0.2421 -0.0508 -0.9689
vn 0.0008 -0.0005 1.0000
vn -0.0023 -0.0011 1.0000
vn 0.3979 0.0774 0.9142
vn 0.7008 0.1378 0.6999
vn 0.6927 0.1385 0.7078
vn 0.0032 -0.0021 1.0000
vn -0.0011 -0.0005 1.0000
vn -0.0002 0.0001 1.0000
vn -0.0011 0.0010 1.0000
vn -0.2419 -0.0507 -0.9690
vn -0.2421 -0.0511 -0.9689
s 0
f 1//1 5//1 6//1
f 14//2 18//2 19//2
f 6//3 7//3 1//3
f 4//4 2//4 11//4
f 13//5 17//5 15//5
f 8//6 3//6 4//6
f 3//7 8//7 17//7
f 4//8 3//8 1//8
f 9//9 20//9 16//9
f 12//10 16//10 15//10
f 12//11 20//11 5//11
f 7//11 14//11 10//11
f 14//12 7//12 21//12
f 21//13 1//13 11//13
f 11//14 1//14 2//14
f 1//15 21//15 7//15
f 17//16 8//16 11//16
f 11//17 21//17 17//17
f 5//18 6//18 9//18
f 9//18 6//18 16//18
f 16//19 10//19 7//19
f 7//19 6//19 16//19
f 8//20 4//20 11//20
f 12//21 13//21 15//21
f 13//22 3//22 17//22
f 3//23 5//23 1//23
f 1//24 2//24 4//24
f 19//25 17//25 21//25
f 21//26 14//26 19//26
f 19//27 18//27 15//27
f 17//28 19//28 15//28
f 16//29 12//29 20//29
f 20//11 9//11 5//11
f 5//30 3//30 13//30
f 13//31 12//31 5//31
f 18//32 16//32 15//32
f 14//33 10//33 18//33
f 18//34 10//34 16//34
f 13//35 12//35 3//35
f 12//36 5//36 3//36
f 7//11 1//11 10//11
f 10//11 1//11 14//11
f 14//11 1//11 2//11
f 14//37 2//37 21//37
f 21//38 2//38 11//38
f 15//39 12//39 20//39
f 9//18 5//18 16//18
f 16//18 5//18 6//18
f 16//40 15//40 20//40
