# Blender 4.0.0
# www.blender.org
o decimated_mesh
v -0.854043 -0.141338 -0.028119
v -0.868885 -0.138368 -0.028128
v -0.838972 -0.137053 -0.028155
v -0.868885 -0.136849 -0.028133
v -0.853267 -0.141318 -0.028154
v -0.854255 -0.142015 -0.027271
v -0.838972 -0.138462 -0.028155
v -0.868885 -0.135697 -0.016798
v -0.852993 -0.142006 -0.027266
v -0.838972 -0.136279 -0.016674
v -0.868879 -0.139156 -0.027095
v -0.868885 -0.136246 -0.016690
v -0.853568 -0.142672 -0.024739
v -0.854138 -0.142808 -0.023513
v -0.868885 -0.136825 -0.016810
v -0.868324 -0.136918 -0.016685
v -0.853208 -0.142821 -0.023341
v -0.854072 -0.142735 -0.022467
v -0.838977 -0.136953 -0.016684
v -0.852115 -0.139542 -0.016656
v -0.864810 -0.137713 -0.016703
v -0.838972 -0.139285 -0.027151
v -0.839899 -0.140180 -0.023614
v -0.853561 -0.142708 -0.022033
v -0.868885 -0.139777 -0.023660
v -0.853631 -0.140129 -0.016938
v -0.855088 -0.139554 -0.016660
v -0.868885 -0.138530 -0.018674
v -0.838972 -0.139902 -0.023209
v -0.839801 -0.140128 -0.022717
v -0.854167 -0.141985 -0.019370
v -0.855439 -0.141809 -0.019477
v -0.868885 -0.139721 -0.022488
v -0.868876 -0.139133 -0.019529
v -0.838971 -0.139283 -0.019525
v -0.853002 -0.141999 -0.019415
vn 0.1514 -0.7580 -0.6345
vn -0.1875 0.9605 -0.2054
vn -0.2637 -0.7115 0.6513
vn -0.2445 -0.1976 0.9493
vn 0.1891 -0.9726 0.1354
vn 0.1894 -0.9701 -0.1520
vn -0.0007 0.0022 -1.0000
vn 0.3419 -0.9284 -0.1454
vn 0.0006 -0.4340 0.9009
vn -0.1132 -0.8129 0.5713
vn 0.0076 -0.7891 -0.6143
vn -0.0003 0.1937 0.9811
vn -1.0000 0.0005 0.0003
vn -0.0393 -0.1994 -0.9791
vn -0.2014 -0.9762 0.0807
vn 0.0050 -0.0147 0.9999
vn 0.3447 -0.9258 0.1554
vn -0.1950 -0.9609 -0.1967
vn 0.0143 -0.7963 0.6047
vn -0.0011 -0.9652 0.2616
vn -0.1325 -0.6829 0.7184
vn 0.1534 -0.7640 -0.6267
vn -0.1903 0.9571 -0.2186
vn -1.0000 -0.0000 0.0059
vn -1.0000 -0.0036 -0.0024
vn -1.0000 -0.0000 -0.0000
vn -1.0000 -0.0054 0.0039
vn -1.0000 -0.0000 0.0004
vn -1.0000 0.0001 0.0003
vn -0.9997 0.0131 -0.0199
vn -0.1559 0.7689 -0.6200
vn -0.1528 0.7639 -0.6270
vn 0.0073 -0.9674 -0.2533
vn 0.1952 -0.9801 0.0353
vn 0.2769 -0.9606 0.0252
vn 0.1387 -0.6961 0.7044
vn -0.0001 -0.0000 -1.0000
vn -0.0023 -0.0032 -1.0000
vn -0.1565 -0.7737 0.6139
vn -0.1587 -0.7676 0.6209
vn -0.1535 -0.7703 0.6190
vn -0.1647 -0.7429 0.6489
vn 0.0197 0.9975 -0.0672
vn 0.0067 0.9949 -0.1011
vn -0.0277 -0.9971 0.0712
vn -0.0167 -0.9965 0.0820
vn -0.1920 0.9589 0.2090
vn -0.1885 0.9627 0.1943
vn -0.0077 -0.7808 -0.6248
vn -0.0509 -0.2462 0.9679
vn -1.0000 -0.0003 -0.0001
vn -1.0000 -0.0000 0.0005
vn 1.0000 0.0006 -0.0000
vn 0.9999 -0.0066 0.0076
vn -0.1992 -0.9788 0.0467
vn 0.0005 -0.0069 -1.0000
vn 0.0007 -0.0061 -1.0000
vn 0.0014 -0.0110 -0.9999
vn -0.1953 -0.9585 0.2076
vn -0.1924 -0.9624 0.1918
vn -0.1455 -0.9619 0.2314
vn -0.1525 -0.9620 0.2264
vn 0.0055 -0.9942 -0.1072
vn -0.1955 -0.9608 -0.1967
vn -0.1909 -0.9659 -0.1750
vn -0.1505 -0.7542 -0.6392
vn -0.1607 -0.7852 -0.5981
vn -1.0000 -0.0000 0.0002
vn -1.0000 -0.0004 0.0002
vn -0.1547 0.7637 -0.6268
vn -0.1538 0.7695 -0.6199
vn -0.1870 0.9575 -0.2194
vn -0.1902 0.9602 -0.2046
vn -1.0000 0.0016 0.0002
vn -0.1914 0.9623 0.1934
vn -0.1880 0.9594 0.2101
vn 0.0005 -0.0076 -1.0000
vn -1.0000 -0.0001 -0.0001
vn -1.0000 0.0002 -0.0000
vn -1.0000 0.0001 0.0004
vn -0.1515 -0.7621 0.6294
vn -0.1512 -0.7694 0.6206
vn -0.1431 -0.9629 0.2287
vn -0.1910 -0.9620 -0.1949
vn -0.1903 -0.9615 -0.1981
vn -0.9999 -0.0131 -0.0041
vn 0.0008 -0.0060 -1.0000
vn 0.0013 -0.0030 -1.0000
vn -1.0000 -0.0001 0.0005
vn -1.0000 -0.0008 -0.0000
vn -0.9996 -0.0261 0.0080
vn -0.1630 -0.8074 0.5671
vn -0.1595 -0.7970 0.5825
vn -0.1525 -0.9616 0.2281
vn -0.1917 -0.9589 0.2093
vn -0.1959 -0.9617 0.1917
vn -0.1988 -0.9767 0.0806
vn -0.2015 -0.9784 0.0467
vn -0.1965 -0.9648 -0.1748
s 0
f 9//1 5//1 7//1
f 35//2 30//2 36//2
f 16//3 15//3 28//3
f 12//4 15//4 16//4
f 17//5 30//5 24//5
f 23//6 17//6 13//6
f 4//7 3//7 5//7
f 29//8 23//8 22//8
f 27//9 26//9 20//9
f 28//10 34//10 21//10
f 6//11 5//11 9//11
f 8//12 12//12 10//12
f 35//13 3//13 29//13
f 1//14 2//14 5//14
f 18//15 25//15 14//15
f 20//16 19//16 10//16
f 29//17 35//17 30//17
f 14//18 6//18 13//18
f 26//19 31//19 36//19
f 31//20 24//20 36//20
f 21//21 26//21 27//21
f 22//22 9//22 7//22
f 24//23 36//23 30//23
f 2//24 11//24 4//24
f 11//25 25//25 4//25
f 25//26 33//26 4//26
f 33//27 34//27 8//27
f 28//28 15//28 8//28
f 15//29 12//29 8//29
f 8//26 4//26 33//26
f 34//30 28//30 8//30
f 19//31 36//31 26//31
f 36//32 19//32 35//32
f 6//33 9//33 13//33
f 17//34 23//34 30//34
f 29//35 30//35 23//35
f 19//36 20//36 26//36
f 7//37 5//37 3//37
f 5//38 2//38 4//38
f 34//39 32//39 21//39
f 32//40 31//40 26//40
f 21//41 32//41 26//41
f 21//42 16//42 28//42
f 10//43 3//43 8//43
f 3//44 4//44 8//44
f 18//45 14//45 17//45
f 17//46 24//46 18//46
f 23//47 9//47 13//47
f 9//48 23//48 22//48
f 6//49 1//49 5//49
f 27//50 16//50 21//50
f 29//51 3//51 22//51
f 22//52 3//52 7//52
f 3//53 10//53 35//53
f 19//54 35//54 10//54
f 18//55 33//55 25//55
f 10//56 27//56 12//56
f 12//57 27//57 16//57
f 27//58 10//58 20//58
f 33//59 18//59 32//59
f 34//60 33//60 32//60
f 18//61 24//61 32//61
f 24//62 31//62 32//62
f 13//63 17//63 14//63
f 14//64 25//64 6//64
f 11//65 6//65 25//65
f 2//66 1//66 6//66
f 6//67 11//67 2//67
f 3//68 7//68 35//68
f 35//69 7//69 22//69
f 19//70 35//70 26//70
f 26//71 35//71 36//71
f 36//72 35//72 24//72
f 24//73 35//73 30//73
f 29//74 35//74 22//74
f 23//75 22//75 13//75
f 13//76 22//76 9//76
f 12//77 10//77 20//77
f 2//78 28//78 4//78
f 28//79 8//79 4//79
f 28//80 12//80 8//80
f 21//81 28//81 26//81
f 28//82 31//82 26//82
f 31//83 18//83 24//83
f 14//84 11//84 13//84
f 11//85 6//85 13//85
f 25//51 28//51 2//51
f 11//86 25//86 2//86
f 12//87 20//87 16//87
f 16//88 20//88 27//88
f 28//89 15//89 12//89
f 25//90 33//90 28//90
f 33//91 34//91 28//91
f 34//92 32//92 28//92
f 32//93 31//93 28//93
f 32//94 18//94 31//94
f 32//95 34//95 18//95
f 34//96 33//96 18//96
f 33//97 14//97 18//97
f 33//98 25//98 14//98
f 25//99 11//99 14//99
