# Blender 4.0.0
# www.blender.org
o decimated_mesh
v -0.888965 -0.086085 -0.016662
v -0.889671 -0.086090 -0.016676
v -0.888815 -0.115876 -0.016684
v -0.892293 -0.099467 -0.016646
v -0.889760 -0.115032 -0.016654
v -0.889715 -0.086085 -0.028146
v -0.889691 -0.115875 -0.028133
v -0.892868 -0.100915 -0.016930
v -0.892273 -0.102467 -0.016645
v -0.889619 -0.115874 -0.016733
v -0.890458 -0.111951 -0.016684
v -0.891137 -0.086085 -0.028146
v -0.891136 -0.115874 -0.028132
v -0.894055 -0.100903 -0.028143
v -0.894732 -0.100309 -0.019403
v -0.891919 -0.115872 -0.027187
v -0.891986 -0.086084 -0.019529
v -0.894738 -0.101490 -0.019409
v -0.891924 -0.115865 -0.019519
v -0.891150 -0.115875 -0.018442
v -0.891942 -0.086096 -0.027178
v -0.894729 -0.100250 -0.027269
v -0.894707 -0.101442 -0.027331
v -0.895456 -0.100919 -0.022099
v -0.894526 -0.102753 -0.027219
v -0.892852 -0.114767 -0.022701
v -0.895399 -0.100853 -0.024733
v -0.892909 -0.114662 -0.023561
v -0.892855 -0.087051 -0.022690
v -0.895551 -0.100494 -0.023328
v -0.895534 -0.101475 -0.023487
v -0.892554 -0.115875 -0.022954
v -0.892898 -0.087125 -0.023567
v -0.892354 -0.115875 -0.025047
v -0.892597 -0.086086 -0.023110
v -0.892368 -0.086085 -0.025115
vn 0.9979 0.0051 -0.0651
vn -0.9579 -0.1896 0.2154
vn -0.9428 -0.3209 -0.0900
vn -0.9603 0.1872 0.2069
vn -0.0608 -0.1025 0.9929
vn -0.9342 0.3191 0.1594
vn -0.0368 -0.0066 -0.9993
vn -0.9665 -0.0042 -0.2565
vn -0.7352 -0.1438 -0.6624
vn -0.6955 0.1379 0.7051
vn -0.9942 0.0002 -0.1072
vn -0.9591 0.1924 -0.2078
vn -0.9734 -0.1887 0.1298
vn -0.9699 0.1897 -0.1530
vn -0.7728 -0.1560 0.6151
vn -0.7293 0.1435 -0.6690
vn -0.9612 -0.1915 -0.1985
vn 0.9971 0.0008 -0.0763
vn -0.9405 -0.2924 0.1731
vn -0.9583 -0.1892 0.2140
vn -0.9582 0.1889 0.2148
vn -0.9630 0.2683 0.0246
vn -0.9721 0.1883 0.1396
vn -0.9803 0.1951 0.0317
vn -0.3630 -0.0733 0.9289
vn -0.9634 -0.2662 0.0314
vn -0.9659 0.0040 0.2587
vn -0.0000 -0.9999 -0.0107
vn 0.0075 -1.0000 0.0066
vn -0.0002 -1.0000 -0.0002
vn 0.0006 -1.0000 0.0003
vn -0.0072 0.9999 0.0080
vn 0.0004 1.0000 -0.0000
vn -0.0000 -0.0002 -1.0000
vn 0.0008 -0.0005 -1.0000
vn -0.0005 -0.0008 -1.0000
vn -0.0085 0.0007 -1.0000
vn -0.0200 0.0062 0.9998
vn 0.0031 0.0004 1.0000
vn -0.7614 -0.1529 -0.6300
vn -0.7164 -0.1572 -0.6797
vn -0.6930 -0.1355 0.7081
vn -0.7854 0.0182 -0.6187
vn -0.9413 0.3201 -0.1072
vn -0.9611 0.1905 -0.2001
vn -0.9608 0.1925 -0.1994
vn -0.0018 -1.0000 0.0022
vn 0.0145 -0.9997 -0.0195
vn -0.0070 -1.0000 0.0040
vn -0.0000 -1.0000 -0.0000
vn -0.0019 -1.0000 -0.0017
vn -0.0004 -1.0000 0.0018
vn -0.0001 -1.0000 -0.0001
vn -0.9799 -0.1953 0.0411
vn -0.8069 -0.1170 0.5790
vn -0.7407 -0.1615 0.6521
vn -0.7322 -0.1836 0.6559
vn -0.7710 -0.1545 0.6178
vn -0.9974 -0.0279 0.0668
vn -0.7672 0.1537 0.6227
vn -0.7701 0.1555 0.6187
vn -0.7604 0.1537 -0.6310
vn -0.7983 0.0015 0.6022
vn -0.9602 -0.1995 -0.1955
vn -0.9622 -0.1905 -0.1945
vn -0.9628 -0.1854 -0.1964
vn -0.9631 -0.1520 -0.2220
vn -0.4376 -0.0026 0.8992
vn -0.0045 -0.0001 -1.0000
vn -0.7572 -0.1511 0.6355
vn -0.0304 0.0006 -0.9995
vn -0.7671 0.1547 0.6226
vn -0.7704 0.1542 0.6186
vn -0.7718 -0.1510 0.6176
vn -0.8020 -0.1614 0.5750
vn -0.0221 -0.9997 0.0068
vn -0.0002 -1.0000 -0.0000
vn -0.0001 -1.0000 -0.0000
vn 0.0002 -1.0000 -0.0001
vn -0.0004 -1.0000 -0.0000
vn -0.0000 -1.0000 0.0001
vn 0.0005 -1.0000 0.0002
vn 0.0020 -1.0000 0.0001
vn -0.9601 0.1889 0.2063
vn -0.9585 0.1870 0.2153
vn -0.9580 -0.1892 0.2155
vn -0.9583 -0.1895 0.2139
vn -0.0055 -1.0000 -0.0024
vn -0.7613 -0.1534 -0.6300
vn -0.7238 -0.1416 -0.6753
vn 0.0251 -0.9996 0.0102
vn -0.7982 -0.1600 -0.5807
vn -0.9594 0.1902 -0.2084
vn -0.9609 0.1920 -0.1996
s 0
f 3//1 6//1 1//1
f 24//2 26//2 18//2
f 32//3 28//3 34//3
f 15//4 17//4 29//4
f 5//5 10//5 3//5
f 35//6 29//6 17//6
f 9//7 3//7 5//7
f 27//8 22//8 23//8
f 13//9 25//9 14//9
f 2//10 8//10 4//10
f 31//11 30//11 27//11
f 27//12 33//12 22//12
f 31//13 26//13 24//13
f 30//14 33//14 27//14
f 18//15 19//15 11//15
f 12//16 14//16 22//16
f 25//17 16//17 28//17
f 3//18 7//18 6//18
f 26//19 32//19 19//19
f 19//20 18//20 26//20
f 29//21 24//21 15//21
f 35//22 33//22 29//22
f 30//23 24//23 29//23
f 29//24 33//24 30//24
f 11//25 5//25 9//25
f 26//26 28//26 32//26
f 15//27 24//27 18//27
f 12//28 6//28 21//28
f 21//29 6//29 36//29
f 36//30 6//30 35//30
f 35//31 6//31 17//31
f 17//32 2//32 1//32
f 1//33 6//33 17//33
f 14//34 12//34 6//34
f 6//35 7//35 14//35
f 14//36 7//36 13//36
f 3//37 9//37 1//37
f 4//38 1//38 2//38
f 4//39 9//39 1//39
f 16//40 25//40 13//40
f 25//41 23//41 14//41
f 11//42 9//42 8//42
f 23//43 22//43 14//43
f 35//44 36//44 33//44
f 21//45 22//45 33//45
f 21//46 33//46 36//46
f 10//47 20//47 3//47
f 20//48 19//48 3//48
f 19//49 32//49 3//49
f 32//50 34//50 7//50
f 34//51 16//51 7//51
f 16//52 13//52 7//52
f 7//53 3//53 32//53
f 31//54 28//54 26//54
f 19//55 20//55 11//55
f 11//56 20//56 5//56
f 20//57 10//57 5//57
f 11//58 8//58 18//58
f 31//59 24//59 30//59
f 17//60 15//60 2//60
f 2//61 15//61 8//61
f 22//62 21//62 12//62
f 8//63 15//63 18//63
f 34//64 28//64 16//64
f 28//65 31//65 25//65
f 31//66 27//66 25//66
f 27//67 23//67 25//67
f 8//68 9//68 4//68
f 5//69 9//69 1//69
f 8//70 20//70 11//70
f 3//71 5//71 1//71
f 2//72 17//72 8//72
f 17//73 15//73 8//73
f 18//74 20//74 8//74
f 18//75 19//75 20//75
f 19//76 32//76 20//76
f 32//77 3//77 20//77
f 32//78 34//78 3//78
f 34//79 13//79 3//79
f 13//80 7//80 3//80
f 12//81 6//81 17//81
f 12//82 17//82 36//82
f 36//83 17//83 35//83
f 29//84 24//84 17//84
f 24//85 15//85 17//85
f 24//86 19//86 18//86
f 24//87 26//87 19//87
f 16//88 13//88 34//88
f 16//89 23//89 13//89
f 23//90 14//90 13//90
f 21//91 12//91 36//91
f 25//92 23//92 16//92
f 27//93 21//93 22//93
f 27//94 33//94 21//94
