# Blender 4.0.0
# www.blender.org
o decimated_mesh
v -0.871186 -0.100931 0.042825
v -0.871949 -0.100931 0.043118
v -0.853632 -0.118492 0.042828
v -0.873872 -0.100932 0.042975
v -0.853635 -0.121133 0.042997
v -0.853633 -0.119225 0.043118
v -0.875689 -0.100933 0.033343
v -0.853634 -0.122889 0.033409
v -0.871873 -0.108668 0.043095
v -0.861535 -0.119094 0.043092
v -0.892686 -0.100939 0.029650
v -0.872599 -0.108733 0.042833
v -0.861370 -0.119887 0.042849
v -0.853641 -0.140025 0.029617
v -0.853637 -0.139999 0.028319
v -0.853637 -0.125364 0.032337
v -0.878080 -0.100935 0.032337
v -0.892710 -0.100935 0.028319
v -0.894014 -0.100941 0.028319
v -0.889544 -0.115839 0.029840
v -0.867690 -0.114966 0.043076
v -0.868771 -0.136775 0.029810
v -0.853643 -0.141308 0.028319
v -0.868247 -0.115527 0.042749
v -0.869110 -0.138273 0.028321
v -0.890961 -0.116432 0.028320
v -0.881020 -0.128303 0.029964
v -0.882203 -0.129537 0.028324
vn 0.3381 0.3385 0.8782
vn -1.0000 0.0010 -0.0002
vn -0.5904 -0.3943 0.7042
vn -0.2560 -0.2561 0.9321
vn -0.1084 -0.5773 0.8093
vn -0.3151 -0.2132 0.9248
vn -0.0741 -0.0037 0.9972
vn -0.5757 -0.1088 0.8104
vn 0.6716 0.6713 -0.3135
vn -0.3906 -0.5777 0.7168
vn 0.3610 0.3612 -0.8597
vn -0.3206 -0.4869 0.8125
vn 0.3460 0.3460 0.8721
vn 0.0008 -1.0000 -0.0030
vn -0.0045 1.0000 0.0031
vn 0.0002 -1.0000 0.0002
vn 0.0009 -1.0000 -0.0001
vn -0.0006 1.0000 -0.0003
vn 0.0006 -1.0000 -0.0001
vn 1.0000 -0.0008 0.0002
vn 1.0000 -0.0008 -0.0007
vn -1.0000 0.0003 0.0001
vn -1.0000 0.0009 -0.0032
vn 1.0000 -0.0048 0.0032
vn -0.5814 -0.3905 0.7137
vn -0.2558 -0.2559 0.9322
vn -0.1381 -0.7043 0.6963
vn -0.1375 -0.6825 0.7179
vn -0.1130 -0.5742 0.8109
vn -0.3229 -0.2172 0.9212
vn -0.0000 -0.0000 1.0000
vn 0.0003 0.0003 1.0000
vn 0.0001 -0.0000 1.0000
vn 0.0001 -0.0002 1.0000
vn -0.0006 -0.0000 1.0000
vn -0.0001 -0.0030 1.0000
vn -0.0034 -0.0014 1.0000
vn -0.0044 -0.0633 0.9980
vn -0.0043 -0.0043 1.0000
vn -0.5744 -0.1108 0.8110
vn -0.4868 -0.3248 0.8109
vn -0.4873 -0.3221 0.8117
vn -0.6971 -0.1380 0.7036
vn -0.7009 -0.1381 0.6998
vn -0.3332 -0.0716 0.9401
vn 0.6694 0.6714 -0.3180
vn -0.3996 -0.5992 0.6938
vn 0.3697 0.3688 -0.8528
vn -0.3259 -0.4858 0.8110
vn -0.2179 -0.3216 0.9215
vn -0.2204 -0.3265 0.9191
vn -0.0671 -0.3041 0.9503
vn 0.0001 -1.0000 0.0002
vn 0.0006 -1.0000 -0.0006
vn -0.0017 -1.0000 0.0061
vn 0.0025 -1.0000 -0.0030
vn -0.2560 -0.2562 0.9321
vn -0.2559 -0.2559 0.9322
vn -0.5746 -0.1086 0.8112
vn -0.0030 -0.0031 1.0000
vn -0.0034 -0.0037 1.0000
vn -1.0000 0.0001 -0.0000
vn -1.0000 -0.0016 0.0062
vn -0.5750 -0.1109 0.8106
vn -1.0000 0.0027 -0.0032
vn -0.3223 -0.2178 0.9213
vn -0.3152 -0.2121 0.9250
vn -0.0081 -0.0083 0.9999
vn -0.1080 -0.5746 0.8113
vn 0.0002 0.0002 1.0000
vn 0.0009 0.0010 1.0000
vn -0.1133 -0.5756 0.8098
s 0
f 6//1 1//1 2//1
f 16//2 5//2 8//2
f 26//3 28//3 20//3
f 17//4 18//4 15//4
f 13//5 22//5 5//5
f 9//6 12//6 24//6
f 2//7 4//7 9//7
f 20//8 12//8 4//8
f 8//9 1//9 3//9
f 22//10 27//10 28//10
f 7//11 16//11 17//11
f 22//12 13//12 24//12
f 6//13 3//13 1//13
f 17//14 11//14 18//14
f 18//15 19//15 11//15
f 11//16 17//16 4//16
f 17//17 7//17 4//17
f 4//18 2//18 1//18
f 1//19 4//19 7//19
f 8//20 3//20 5//20
f 5//21 3//21 6//21
f 5//22 16//22 14//22
f 16//23 15//23 14//23
f 14//24 23//24 15//24
f 27//25 20//25 28//25
f 17//26 15//26 16//26
f 25//27 23//27 14//27
f 22//28 25//28 14//28
f 22//29 14//29 5//29
f 24//30 21//30 9//30
f 26//31 18//31 19//31
f 18//32 28//32 15//32
f 23//33 15//33 25//33
f 25//34 15//34 28//34
f 28//35 18//35 26//35
f 9//36 21//36 2//36
f 21//37 10//37 6//37
f 10//38 5//38 6//38
f 6//39 2//39 21//39
f 4//40 11//40 20//40
f 27//41 24//41 20//41
f 24//42 12//42 20//42
f 20//43 11//43 26//43
f 11//44 19//44 26//44
f 4//45 12//45 9//45
f 8//46 7//46 1//46
f 28//47 25//47 22//47
f 7//48 8//48 16//48
f 24//49 27//49 22//49
f 21//50 24//50 10//50
f 24//51 13//51 10//51
f 5//52 10//52 13//52
f 7//53 1//53 18//53
f 18//54 1//54 4//54
f 17//55 7//55 18//55
f 11//56 18//56 4//56
f 17//57 18//57 16//57
f 16//58 18//58 15//58
f 15//31 18//31 19//31
f 11//59 12//59 4//59
f 9//60 6//60 2//60
f 9//61 10//61 6//61
f 5//62 8//62 15//62
f 15//63 8//63 16//63
f 15//31 19//31 23//31
f 23//31 19//31 26//31
f 20//64 12//64 11//64
f 5//65 15//65 14//65
f 24//66 21//66 12//66
f 21//67 9//67 12//67
f 21//68 10//68 9//68
f 13//69 14//69 5//69
f 23//70 26//70 25//70
f 25//71 26//71 28//71
f 13//72 22//72 14//72
