# Blender 4.0.0
# www.blender.org
o decimated_mesh
v -0.853647 -0.058969 -0.023734
v -0.853656 -0.059066 -0.022190
v -0.853649 -0.059830 -0.027343
v -0.854333 -0.059801 -0.027206
v -0.854234 -0.059816 -0.019378
v -0.853643 -0.059878 -0.019249
v -0.869427 -0.062135 -0.023487
v -0.869813 -0.062340 -0.022186
v -0.868900 -0.062681 -0.019508
v -0.868269 -0.062567 -0.027216
v -0.869962 -0.062476 -0.024531
v -0.870133 -0.062392 -0.023340
v -0.853647 -0.061830 -0.016768
v -0.853658 -0.060524 -0.028144
v -0.868989 -0.063528 -0.028141
v -0.869071 -0.062690 -0.026978
v -0.870311 -0.063418 -0.019405
v -0.869134 -0.063330 -0.018672
v -0.853643 -0.061849 -0.028144
v -0.870190 -0.063373 -0.027294
v -0.882750 -0.071807 -0.019363
v -0.868022 -0.064755 -0.016664
v -0.855082 -0.062245 -0.016634
v -0.853643 -0.062753 -0.016657
v -0.889711 -0.086083 -0.028145
v -0.882207 -0.072342 -0.028139
v -0.871589 -0.064257 -0.027229
v -0.882749 -0.071784 -0.027280
v -0.883255 -0.071192 -0.023370
v -0.883267 -0.071281 -0.022521
v -0.869138 -0.065039 -0.016842
v -0.888964 -0.086083 -0.016661
v -0.891135 -0.086083 -0.028145
v -0.880812 -0.072872 -0.016822
v -0.879613 -0.072351 -0.016677
v -0.881828 -0.072714 -0.017710
v -0.882197 -0.074931 -0.016676
v -0.889643 -0.086080 -0.016699
v -0.891727 -0.086083 -0.027457
v -0.891024 -0.085560 -0.028142
v -0.891100 -0.084132 -0.027226
v -0.881761 -0.073841 -0.016836
v -0.891196 -0.084345 -0.019406
v -0.891860 -0.085547 -0.027020
v -0.892060 -0.086084 -0.026769
v -0.892122 -0.084587 -0.022146
v -0.891792 -0.085181 -0.019926
v -0.891219 -0.085394 -0.018703
v -0.889505 -0.085422 -0.016846
v -0.892078 -0.084606 -0.024567
v -0.892367 -0.085160 -0.022487
v -0.891935 -0.086083 -0.019419
v -0.892425 -0.085168 -0.023525
v -0.892158 -0.084417 -0.023340
v -0.892599 -0.086083 -0.023082
vn -1.0000 -0.0040 -0.0003
vn -0.8553 0.4545 0.2488
vn -0.1917 0.9663 -0.1716
vn -0.8138 0.5496 -0.1887
vn -0.7572 0.3236 -0.5674
vn -0.0557 0.0351 0.9978
vn -0.5518 0.8259 0.1158
vn -0.3714 0.7808 0.5024
vn -0.7480 0.1618 -0.6436
vn -0.1939 0.9571 0.2155
vn -0.6547 0.4372 0.6166
vn -0.8267 0.5531 0.1034
vn -0.9826 0.1175 -0.1436
vn -0.5500 0.8326 0.0655
vn 0.0005 -1.0000 -0.0002
vn -0.5279 0.8196 -0.2225
vn -0.9283 0.3686 0.0483
vn -0.1446 0.7307 -0.6672
vn -0.8088 0.5441 0.2231
vn -0.3331 0.9416 0.0498
vn -0.2827 0.7014 0.6543
vn -0.3618 0.9249 -0.1170
vn -0.5230 0.5029 0.6882
vn -0.2052 0.2060 0.9568
vn -0.7003 0.2927 0.6511
vn -0.8923 0.1314 -0.4319
vn -0.1977 0.9756 0.0954
vn -0.2597 0.2410 0.9351
vn 0.0055 -0.9727 0.2321
vn -0.8463 0.3567 0.3957
vn -0.8081 0.3399 0.4811
vn -0.4240 0.2813 0.8609
vn -0.4244 0.6730 0.6058
vn -0.9266 0.3579 -0.1158
vn -0.5444 0.8084 0.2238
vn -0.9458 0.2662 -0.1860
vn -0.3046 0.7624 -0.5710
vn -0.9755 0.1307 0.1767
vn -0.9997 -0.0113 0.0208
vn -1.0000 -0.0036 0.0013
vn -1.0000 0.0061 -0.0051
vn -1.0000 0.0054 0.0059
vn 1.0000 0.0048 0.0052
vn -0.9376 0.2737 0.2144
vn -0.9399 0.2679 0.2116
vn 0.0426 0.9631 0.2657
vn -0.1989 0.9645 -0.1736
vn -0.1960 0.9617 -0.1918
vn -0.7319 0.6646 -0.1503
vn -0.8160 0.5488 -0.1817
vn -0.4327 0.8640 0.2574
vn -0.7688 0.2790 -0.5755
vn 0.0581 0.1195 0.9911
vn -0.0042 0.0337 -0.9994
vn 0.0003 0.0012 -1.0000
vn 0.0022 -0.0027 -1.0000
vn 0.0016 -0.0022 -1.0000
vn -0.5553 0.8278 0.0799
vn -0.1899 0.9637 0.1874
vn -0.7588 0.1243 0.6394
vn -0.6572 0.4406 0.6115
vn -0.6655 0.4326 0.6082
vn -0.6608 0.4277 0.6167
vn -0.8286 0.5578 0.0477
vn -0.6077 0.4055 -0.6828
vn -0.6213 0.4173 -0.6632
vn -0.0532 0.7849 0.6174
vn -0.5573 0.8295 0.0363
vn -0.0003 0.0058 -1.0000
vn -0.0020 0.0016 -1.0000
vn -0.0002 0.0001 -1.0000
vn -0.0005 0.0007 -1.0000
vn -0.0002 -0.0000 -1.0000
vn -0.8691 0.4311 -0.2425
vn -0.0039 -1.0000 0.0045
vn 0.0010 -1.0000 0.0005
vn -0.0010 -1.0000 -0.0028
vn -0.0000 -1.0000 0.0001
vn 0.0001 -1.0000 -0.0000
vn -0.5469 0.8162 -0.1865
vn -0.5479 0.8137 -0.1942
vn -0.6133 0.7768 -0.1427
vn -0.9761 0.2110 0.0522
vn -0.9453 0.3178 0.0734
vn 0.0981 -0.7528 0.6508
vn -0.1452 0.7405 -0.6562
vn -0.8082 0.5442 0.2250
vn -0.2594 0.9493 -0.1774
vn -0.1377 0.7013 0.6995
vn -0.4093 0.5977 -0.6894
vn -0.4090 0.6131 -0.6759
vn -0.4154 0.6204 -0.6653
vn 0.1514 -0.7659 -0.6248
vn 0.1567 -0.7743 -0.6131
vn 0.0642 -0.7967 -0.6009
vn -0.1954 0.9788 0.0605
vn -0.4586 0.3059 0.8343
vn -0.4554 0.8572 -0.2407
vn -0.4387 0.6552 0.6150
vn -0.4323 0.6596 0.6148
vn -0.4410 0.6569 0.6116
vn -0.5441 0.8106 0.2167
vn -0.9501 0.2554 -0.1789
vn -0.2874 0.7673 -0.5733
vn -0.2943 0.4407 0.8481
vn -0.2347 0.3566 0.9043
vn -1.0000 -0.0024 0.0005
vn -0.1909 0.9624 -0.1930
vn -0.1964 0.9652 -0.1729
vn -0.9989 -0.0461 -0.0083
vn -1.0000 -0.0000 -0.0000
vn -0.5565 0.8283 0.0652
vn -0.0000 -0.0000 -1.0000
vn -0.1434 0.7313 -0.6668
vn -0.1466 0.7409 -0.6555
vn -0.1950 0.9624 0.1890
vn -0.1890 0.9578 0.2167
vn -0.1615 0.8008 0.5768
vn -0.1510 0.7660 0.6248
vn -0.1511 0.7648 0.6263
vn -0.0104 0.0160 -0.9998
vn -0.5508 0.8339 0.0358
vn -0.0003 0.0005 -1.0000
vn 0.0007 -1.0000 -0.0000
vn -0.0000 -1.0000 -0.0012
vn -0.0003 0.0007 -1.0000
vn -0.0008 0.0009 -1.0000
vn -0.4046 0.6067 -0.6843
vn -0.5465 0.8117 -0.2061
vn -0.5497 0.8125 -0.1943
vn -0.5515 0.8229 -0.1371
vn 0.0041 -0.0046 -1.0000
vn 0.0032 -0.0032 -1.0000
vn 0.0029 -0.0030 -1.0000
vn 0.0002 -1.0000 0.0001
vn -0.0016 -1.0000 0.0001
vn -0.0065 -1.0000 -0.0055
vn -0.0120 0.0082 -0.9999
vn -0.4159 0.6200 -0.6653
vn -0.4559 0.6799 -0.5743
vn -0.8119 0.5483 -0.2005
vn -0.8127 0.5513 -0.1888
vn -0.8217 0.5528 -0.1389
vn -0.8086 0.5444 0.2231
vn -0.4425 0.6591 0.6081
vn -0.4385 0.6554 0.6150
vn -0.4376 0.6537 0.6174
vn -0.9392 0.2690 0.2133
vn -0.9449 0.3235 0.0495
vn -0.9325 0.3526 0.0780
vn -0.8084 0.5439 0.2251
vn -0.6586 0.4416 0.6094
vn -0.9377 0.2744 0.2130
vn -0.6555 0.4383 0.6150
s 0
f 24//1 2//1 19//1
f 47//2 43//2 46//2
f 4//3 10//3 7//3
f 28//4 41//4 29//4
f 40//5 44//5 41//5
f 37//6 38//6 32//6
f 12//7 30//7 8//7
f 9//8 17//8 18//8
f 39//9 40//9 33//9
f 2//10 8//10 5//10
f 49//11 42//11 43//11
f 54//12 46//12 30//12
f 55//13 53//13 45//13
f 32//14 24//14 19//14
f 55//15 32//15 52//15
f 11//16 20//16 27//16
f 46//17 53//17 51//17
f 10//18 4//18 14//18
f 43//19 21//19 30//19
f 8//20 7//20 12//20
f 18//21 31//21 22//21
f 7//22 11//22 12//22
f 34//23 36//23 42//23
f 35//24 34//24 37//24
f 48//25 38//25 49//25
f 39//26 45//26 44//26
f 2//27 7//27 8//27
f 42//28 37//28 34//28
f 1//29 4//29 3//29
f 43//30 47//30 52//30
f 43//31 52//31 48//31
f 49//32 38//32 37//32
f 21//33 36//33 34//33
f 50//34 53//34 54//34
f 21//35 17//35 30//35
f 50//36 44//36 45//36
f 16//37 15//37 20//37
f 51//38 55//38 52//38
f 19//39 3//39 14//39
f 3//40 19//40 1//40
f 1//41 19//41 2//41
f 2//42 24//42 6//42
f 6//43 13//43 24//43
f 51//44 52//44 46//44
f 52//45 47//45 46//45
f 6//46 2//46 5//46
f 16//47 7//47 10//47
f 7//48 1//48 4//48
f 50//49 54//49 41//49
f 54//50 29//50 41//50
f 9//51 8//51 17//51
f 40//52 39//52 44//52
f 13//53 23//53 24//53
f 23//54 24//54 22//54
f 22//55 24//55 35//55
f 35//56 32//56 37//56
f 24//57 32//57 35//57
f 12//58 29//58 30//58
f 9//59 5//59 8//59
f 38//60 48//60 52//60
f 21//61 43//61 42//61
f 21//62 42//62 36//62
f 43//63 48//63 49//63
f 29//64 54//64 30//64
f 26//65 40//65 41//65
f 41//66 28//66 26//66
f 6//67 5//67 13//67
f 32//68 19//68 25//68
f 25//69 33//69 40//69
f 40//70 26//70 25//70
f 26//71 15//71 19//71
f 25//72 26//72 19//72
f 15//73 14//73 19//73
f 44//74 50//74 41//74
f 32//75 38//75 52//75
f 55//76 45//76 25//76
f 45//77 39//77 25//77
f 39//78 33//78 25//78
f 25//79 32//79 55//79
f 29//80 12//80 27//80
f 29//81 27//81 28//81
f 12//82 11//82 27//82
f 55//83 51//83 53//83
f 46//84 54//84 53//84
f 3//85 4//85 14//85
f 14//86 15//86 10//86
f 30//87 46//87 43//87
f 7//88 16//88 11//88
f 22//89 23//89 13//89
f 27//90 20//90 15//90
f 15//91 26//91 27//91
f 27//92 26//92 28//92
f 22//93 5//93 13//93
f 5//94 22//94 9//94
f 9//95 22//95 18//95
f 2//96 1//96 7//96
f 37//97 42//97 49//97
f 20//98 11//98 16//98
f 34//99 31//99 17//99
f 31//100 18//100 17//100
f 17//101 21//101 34//101
f 8//102 30//102 17//102
f 45//103 53//103 50//103
f 16//104 10//104 15//104
f 31//105 34//105 35//105
f 35//106 22//106 31//106
f 6//107 1//107 19//107
f 4//108 10//108 1//108
f 10//109 7//109 1//109
f 2//110 1//110 6//110
f 24//111 6//111 19//111
f 24//112 19//112 25//112
f 25//113 14//113 19//113
f 14//114 15//114 4//114
f 15//115 10//115 4//115
f 8//116 9//116 2//116
f 9//117 5//117 2//117
f 9//118 18//118 5//118
f 18//119 13//119 5//119
f 18//120 22//120 13//120
f 23//121 24//121 32//121
f 32//122 24//122 25//122
f 25//123 15//123 14//123
f 32//124 45//124 25//124
f 45//125 33//125 25//125
f 33//126 26//126 25//126
f 26//127 15//127 25//127
f 26//128 20//128 15//128
f 27//129 28//129 11//129
f 28//130 29//130 11//130
f 29//131 12//131 11//131
f 35//132 22//132 37//132
f 37//133 22//133 32//133
f 32//134 22//134 23//134
f 52//135 45//135 32//135
f 52//136 55//136 45//136
f 39//137 33//137 45//137
f 40//138 26//138 33//138
f 28//139 20//139 26//139
f 28//140 27//140 20//140
f 41//141 50//141 28//141
f 50//142 29//142 28//142
f 50//143 54//143 29//143
f 46//144 21//144 30//144
f 21//145 36//145 17//145
f 36//146 31//146 17//146
f 36//147 34//147 31//147
f 47//148 51//148 52//148
f 51//149 54//149 53//149
f 51//150 46//150 54//150
f 46//151 43//151 21//151
f 43//152 36//152 21//152
f 51//153 47//153 46//153
f 43//154 42//154 36//154
