# Blender 4.0.0
# www.blender.org
o decimated_mesh
v -0.894037 -0.100868 -0.028135
v -0.892739 -0.100862 -0.028135
v -0.853643 -0.140030 -0.028135
v -0.873838 -0.100860 -0.042845
v -0.878062 -0.100862 -0.032174
v -0.875599 -0.100859 -0.033251
v -0.853645 -0.122936 -0.033215
v -0.853649 -0.141329 -0.028135
v -0.892697 -0.100866 -0.029482
v -0.891007 -0.116421 -0.028135
v -0.853643 -0.125360 -0.032185
v -0.889515 -0.115790 -0.029714
v -0.853643 -0.118459 -0.042673
v -0.871944 -0.100858 -0.042952
v -0.872233 -0.108703 -0.042859
v -0.871212 -0.100858 -0.042673
v -0.869093 -0.138296 -0.028135
v -0.853647 -0.139968 -0.029499
v -0.853643 -0.119230 -0.042967
v -0.867688 -0.114970 -0.042913
v -0.868562 -0.136826 -0.029682
v -0.868237 -0.115516 -0.042589
v -0.861168 -0.119561 -0.042875
v -0.881018 -0.128294 -0.029809
v -0.853644 -0.121102 -0.042855
v -0.882233 -0.129501 -0.028135
vn 0.0012 -1.0000 0.0002
vn -0.6723 -0.6690 -0.3169
vn -0.0096 -0.0595 -0.9982
vn -0.2576 -0.2571 -0.9314
vn -0.3660 -0.3645 -0.8562
vn -0.3360 -0.3354 0.8801
vn -0.0000 -0.0000 -1.0000
vn -0.0001 -0.0000 -1.0000
vn -0.0000 0.0001 -1.0000
vn -0.1375 -0.6939 -0.7068
vn -0.1377 -0.7010 -0.6997
vn -0.5860 -0.3928 -0.7087
vn -0.5851 -0.3924 -0.7097
vn 0.0009 -1.0000 0.0033
vn 0.0003 -1.0000 -0.0001
vn 0.0007 -1.0000 0.0002
vn -0.0008 1.0000 0.0010
vn -0.0045 1.0000 -0.0034
vn -0.6722 -0.6709 -0.3131
vn -0.0111 -0.0241 -0.9996
vn -0.0270 -0.0109 -0.9996
vn -0.0564 -0.0098 -0.9984
vn -0.0051 -0.0043 -1.0000
vn -0.2217 -0.3225 -0.9203
vn -0.3971 -0.5933 -0.7002
vn -0.3940 -0.5857 -0.7084
vn -0.1150 -0.5716 -0.8124
vn -0.1110 -0.5742 -0.8111
vn -1.0000 0.0004 -0.0000
vn 1.0000 -0.0005 0.0007
vn -1.0000 0.0008 0.0029
vn -1.0000 -0.0010 -0.0003
vn 1.0000 -0.0047 -0.0031
vn -1.0000 0.0003 0.0002
vn -0.4907 -0.3198 -0.8105
vn -0.4852 -0.3235 -0.8123
vn -0.5746 -0.1099 -0.8110
vn -0.5709 -0.1154 -0.8128
vn -0.2566 -0.2553 -0.9322
vn -0.3249 -0.4864 -0.8111
vn -0.3125 -0.4887 -0.8146
vn -0.3198 -0.2240 -0.9206
vn -0.7022 -0.1368 -0.6987
vn -0.6922 -0.1366 -0.7086
vn -0.3716 -0.3709 -0.8511
vn -0.3361 -0.3355 0.8800
vn -0.5852 -0.3923 -0.7097
vn -0.5859 -0.3930 -0.7087
vn -1.0000 0.0023 0.0030
vn -1.0000 0.0004 0.0006
vn -1.0000 -0.0000 -0.0000
vn -0.2583 -0.2571 -0.9312
vn -0.2565 -0.2560 -0.9320
vn -0.0018 -1.0000 -0.0066
vn 0.0001 -1.0000 -0.0001
vn 0.0007 -1.0000 0.0008
vn 0.0027 -1.0000 0.0034
vn -0.4878 -0.3182 -0.8129
vn -0.4866 -0.3245 -0.8111
vn -1.0000 -0.0012 -0.0008
vn -0.3361 -0.3355 0.8801
s 0
f 4//1 6//1 5//1
f 13//2 7//2 6//2
f 19//3 25//3 23//3
f 11//4 3//4 2//4
f 7//5 11//5 5//5
f 13//6 16//6 14//6
f 1//7 2//7 10//7
f 10//8 2//8 26//8
f 26//9 3//9 17//9
f 17//7 3//7 8//7
f 3//7 26//7 2//7
f 21//10 18//10 17//10
f 18//11 8//11 17//11
f 12//12 24//12 26//12
f 26//13 10//13 12//13
f 2//14 9//14 5//14
f 9//15 4//15 5//15
f 6//16 4//16 16//16
f 14//17 4//17 16//17
f 9//18 1//18 2//18
f 13//19 6//19 16//19
f 23//20 20//20 19//20
f 20//21 15//21 14//21
f 15//22 4//22 14//22
f 14//23 19//23 20//23
f 22//24 20//24 23//24
f 17//25 26//25 21//25
f 24//26 21//26 26//26
f 23//27 25//27 21//27
f 25//28 18//28 21//28
f 13//29 25//29 7//29
f 19//30 13//30 25//30
f 11//31 18//31 3//31
f 7//32 25//32 11//32
f 3//33 8//33 18//33
f 18//34 11//34 25//34
f 15//35 22//35 24//35
f 24//36 12//36 15//36
f 12//37 9//37 4//37
f 4//38 15//38 12//38
f 11//39 2//39 5//39
f 24//40 22//40 21//40
f 22//41 23//41 21//41
f 15//42 20//42 22//42
f 10//43 1//43 9//43
f 9//44 12//44 10//44
f 7//45 5//45 6//45
f 13//46 14//46 19//46
f 10//8 1//8 26//8
f 26//7 1//7 17//7
f 17//7 1//7 8//7
f 8//7 1//7 3//7
f 3//7 1//7 2//7
f 12//47 24//47 10//47
f 24//48 26//48 10//48
f 18//49 3//49 25//49
f 25//50 3//50 13//50
f 13//51 3//51 11//51
f 11//52 3//52 5//52
f 5//53 3//53 2//53
f 5//54 2//54 6//54
f 6//55 2//55 16//55
f 16//56 2//56 4//56
f 4//57 2//57 9//57
f 15//58 22//58 12//58
f 22//59 24//59 12//59
f 7//60 13//60 11//60
f 19//61 13//61 16//61
f 19//6 16//6 14//6
