# Blender 4.0.0
# www.blender.org
o decimated_mesh
v -0.853639 -0.058961 -0.023677
v -0.853166 -0.059079 -0.022443
v -0.853639 -0.059159 -0.021787
v -0.852981 -0.059780 -0.027152
v -0.853057 -0.059808 -0.019392
v -0.837855 -0.062134 -0.023491
v -0.837460 -0.062335 -0.022208
v -0.853633 -0.059851 -0.027410
v -0.838370 -0.062686 -0.019503
v -0.837139 -0.062393 -0.023340
v -0.837405 -0.062463 -0.024683
v -0.839009 -0.062566 -0.027217
v -0.853641 -0.059876 -0.019249
v -0.838213 -0.062693 -0.026989
v -0.838255 -0.063505 -0.028108
v -0.853630 -0.060499 -0.028112
v -0.853637 -0.061675 -0.016919
v -0.840135 -0.064533 -0.016712
v -0.838104 -0.063337 -0.018686
v -0.836992 -0.063401 -0.019400
v -0.836905 -0.063449 -0.027251
v -0.853641 -0.061803 -0.028112
v -0.852174 -0.062248 -0.016634
v -0.838913 -0.064923 -0.016643
v -0.824066 -0.071246 -0.022446
v -0.823977 -0.071224 -0.023385
v -0.824612 -0.071733 -0.019361
v -0.825993 -0.073349 -0.028112
v -0.853641 -0.062102 -0.016689
v -0.853641 -0.062751 -0.016658
v -0.838135 -0.065038 -0.016840
v -0.824593 -0.071733 -0.027271
v -0.827046 -0.073345 -0.016704
v -0.824300 -0.073346 -0.028113
v -0.827656 -0.072350 -0.016676
v -0.823939 -0.072484 -0.019490
v -0.823860 -0.072618 -0.027197
v -0.825118 -0.072267 -0.028109
v -0.826527 -0.072804 -0.016840
v -0.825442 -0.072714 -0.017709
v -0.822505 -0.073347 -0.023022
v -0.823657 -0.073348 -0.019112
v -0.823243 -0.073348 -0.019948
v -0.825926 -0.073349 -0.016832
v -0.823379 -0.073346 -0.027120
vn -0.4348 -0.6613 -0.6112
vn 0.2008 0.9753 0.0915
vn 0.0026 0.0108 -0.9999
vn -0.1125 -0.7944 -0.5968
vn 0.2702 0.7059 0.6548
vn 0.3318 0.9422 0.0460
vn 0.3682 0.7817 0.5034
vn 0.1144 0.0426 0.9925
vn -0.0131 0.9727 -0.2318
vn 0.1536 0.7843 -0.6011
vn -1.0000 0.0010 -0.0001
vn -0.8228 -0.5406 0.1754
vn 0.0883 0.4343 0.8964
vn 0.0014 -1.0000 -0.0004
vn -0.3691 -0.9262 -0.0767
vn 0.5956 0.4542 -0.6625
vn 0.4486 0.8601 -0.2429
vn 0.3261 0.7592 -0.5632
vn 0.3047 0.4555 0.8365
vn 0.8110 0.5779 0.0907
vn 0.4302 0.8654 0.2569
vn 0.4926 0.5526 0.6722
vn -0.0458 0.9614 0.2713
vn -0.6423 -0.4726 -0.6034
vn 0.4066 0.6097 -0.6803
vn 0.2508 0.2898 0.9236
vn 0.3605 0.9251 -0.1198
vn 0.8060 0.4372 0.3990
vn 0.5558 0.8281 0.0727
vn -0.0243 0.9942 0.1045
vn 0.1461 0.7400 -0.6565
vn -0.6365 -0.7534 0.1653
vn -0.4398 -0.6564 -0.6129
vn 0.4327 0.6594 0.6148
vn -0.4385 -0.6555 -0.6149
vn 0.0567 0.7902 0.6103
vn 0.1968 0.9803 0.0185
vn 0.0258 0.0435 -0.9987
vn 0.0057 0.0317 -0.9995
vn -0.0331 0.0484 0.9983
vn -0.1536 -0.7708 -0.6182
vn 0.1981 0.7347 0.6488
vn -0.1566 -0.7752 -0.6120
vn 0.0004 0.0009 -1.0000
vn 0.0003 -0.0000 -1.0000
vn 0.0013 0.0020 -1.0000
vn -0.0009 0.0038 -1.0000
vn -0.1956 -0.9621 0.1898
vn 0.2039 0.9632 -0.1749
vn -0.1919 -0.9663 0.1715
vn -0.9999 0.0086 -0.0118
vn -1.0000 0.0008 0.0001
vn -1.0000 0.0052 -0.0027
vn -0.9997 -0.0011 -0.0231
vn -1.0000 0.0062 0.0068
vn -1.0000 -0.0012 -0.0013
vn -0.8305 -0.5309 0.1686
vn -0.0012 -1.0000 -0.0006
vn -0.0011 -1.0000 -0.0005
vn -0.0040 -1.0000 -0.0045
vn 0.0002 -1.0000 0.0004
vn 0.0020 -1.0000 -0.0022
vn -0.3851 -0.9222 -0.0352
vn 0.0135 0.4736 0.8806
vn -0.1948 -0.9556 -0.2212
vn 0.1479 0.9631 0.2248
vn -0.1902 -0.9634 -0.1888
vn 0.6102 0.4510 -0.6513
vn 0.6779 0.3813 -0.6286
vn 0.1375 0.7006 0.7002
vn 0.7626 0.6147 -0.2014
vn 0.2863 0.7703 -0.5698
vn 0.2806 0.4215 0.8623
vn 0.7439 0.6273 0.2307
vn -0.8120 -0.5500 -0.1953
vn -0.8120 -0.5500 -0.1954
vn 0.6501 0.3983 0.6471
vn -0.6431 -0.4731 -0.6022
vn 0.4188 0.6240 -0.6597
vn 0.2325 0.9564 -0.1767
vn 0.5517 0.8262 0.1142
vn 0.1424 0.7274 -0.6713
vn 0.5437 0.8089 0.2239
vn 0.5434 0.8109 0.2173
vn -0.5475 -0.8141 0.1935
vn -0.5468 -0.8160 0.1876
vn -0.1961 -0.9653 0.1727
vn -0.1911 -0.9628 0.1909
vn -1.0000 0.0001 -0.0000
vn -1.0000 -0.0000 -0.0000
vn -1.0000 0.0019 -0.0004
vn -0.1891 -0.9566 -0.2217
vn -0.1965 -0.9618 -0.1907
vn -0.0000 -0.0000 -1.0000
vn -0.0009 -0.0022 -1.0000
vn -0.3843 -0.9201 -0.0762
vn -0.9996 0.0216 0.0185
vn -0.1528 -0.7710 -0.6182
vn -0.1605 -0.7966 -0.5829
vn -0.5503 -0.8210 0.1519
vn -0.5491 -0.8130 0.1936
vn -0.5461 -0.8121 0.2055
vn 0.0059 0.0089 -0.9999
vn 0.0006 0.0014 -1.0000
vn 0.0123 0.0353 -0.9993
vn 0.0082 0.0242 -0.9997
vn -0.3699 -0.9285 -0.0338
vn 0.0009 -1.0000 -0.0001
vn 0.0005 -1.0000 -0.0000
vn -0.0034 -1.0000 -0.0000
vn -0.1529 -0.7677 -0.6222
vn -0.4404 -0.6572 -0.6116
vn -0.8120 -0.5499 -0.1953
vn -0.8229 -0.5412 0.1726
vn 0.0003 0.0048 -1.0000
vn -0.8298 -0.5293 0.1769
vn -0.8120 -0.5501 -0.1952
vn 0.0012 -1.0000 0.0006
vn -0.4384 -0.6553 -0.6151
vn -0.6422 -0.4732 -0.6031
vn -0.6426 -0.4723 -0.6034
s 0
f 40//1 39//1 27//1
f 6//2 2//2 7//2
f 30//3 24//3 33//3
f 18//4 9//4 19//4
f 19//5 24//5 31//5
f 6//6 7//6 10//6
f 9//7 19//7 20//7
f 33//8 44//8 35//8
f 8//9 1//9 4//9
f 8//10 4//10 12//10
f 3//11 1//11 22//11
f 26//12 45//12 41//12
f 18//13 23//13 24//13
f 41//14 28//14 45//14
f 33//15 30//15 22//15
f 34//16 38//16 32//16
f 21//17 14//17 11//17
f 15//18 14//18 21//18
f 35//19 39//19 31//19
f 25//20 41//20 26//20
f 9//21 20//21 7//21
f 39//22 44//22 40//22
f 5//23 3//23 13//23
f 27//24 42//24 40//24
f 38//25 15//25 21//25
f 35//26 44//26 39//26
f 11//27 6//27 10//27
f 36//28 42//28 43//28
f 10//29 25//29 26//29
f 3//30 2//30 1//30
f 8//31 12//31 15//31
f 11//32 21//32 10//32
f 27//33 39//33 20//33
f 20//34 19//34 31//34
f 31//35 20//35 39//35
f 17//36 5//36 13//36
f 6//37 1//37 2//37
f 35//38 33//38 24//38
f 24//39 30//39 23//39
f 23//40 29//40 30//40
f 17//41 5//41 18//41
f 18//42 24//42 19//42
f 9//43 18//43 5//43
f 28//44 22//44 15//44
f 15//45 22//45 16//45
f 15//46 38//46 28//46
f 38//47 34//47 28//47
f 1//48 4//48 6//48
f 6//49 14//49 12//49
f 12//50 6//50 4//50
f 8//51 16//51 22//51
f 22//52 30//52 3//52
f 8//53 22//53 1//53
f 30//54 29//54 17//54
f 17//55 13//55 30//55
f 13//56 3//56 30//56
f 37//57 45//57 26//57
f 41//58 43//58 33//58
f 33//59 43//59 42//59
f 42//60 44//60 33//60
f 33//61 28//61 41//61
f 28//62 34//62 45//62
f 22//63 28//63 33//63
f 29//64 23//64 17//64
f 7//65 5//65 2//65
f 2//66 3//66 5//66
f 5//67 7//67 9//67
f 32//68 37//68 34//68
f 37//69 45//69 34//69
f 17//70 23//70 18//70
f 26//71 37//71 32//71
f 15//72 12//72 14//72
f 24//73 35//73 31//73
f 25//74 27//74 36//74
f 41//75 43//75 25//75
f 25//76 43//76 36//76
f 44//77 42//77 40//77
f 36//78 42//78 27//78
f 21//79 32//79 38//79
f 14//80 6//80 11//80
f 10//81 7//81 25//81
f 15//82 16//82 8//82
f 20//83 27//83 25//83
f 25//84 7//84 20//84
f 32//85 26//85 21//85
f 26//86 10//86 21//86
f 6//87 1//87 12//87
f 12//88 1//88 4//88
f 22//89 30//89 29//89
f 22//90 29//90 13//90
f 22//91 13//91 3//91
f 5//92 2//92 9//92
f 9//93 2//93 7//93
f 16//94 34//94 22//94
f 34//95 28//95 22//95
f 28//96 30//96 22//96
f 29//97 17//97 13//97
f 17//98 5//98 19//98
f 19//99 5//99 9//99
f 26//100 10//100 11//100
f 26//101 11//101 32//101
f 32//102 11//102 21//102
f 38//103 34//103 15//103
f 34//104 16//104 15//104
f 33//105 30//105 35//105
f 35//106 30//106 23//106
f 28//107 33//107 30//107
f 41//108 43//108 28//108
f 43//109 44//109 28//109
f 44//110 33//110 28//110
f 18//111 17//111 19//111
f 40//112 20//112 27//112
f 31//35 20//35 40//35
f 36//113 25//113 41//113
f 41//114 26//114 37//114
f 24//115 35//115 23//115
f 41//116 37//116 45//116
f 36//117 41//117 43//117
f 42//118 44//118 43//118
f 39//119 31//119 40//119
f 42//120 40//120 36//120
f 36//121 40//121 27//121
