# Blender 4.0.0
# www.blender.org
o decimated_mesh
v -0.853584 -0.083377 0.042829
v -0.853584 -0.079236 0.033918
v -0.836065 -0.100930 0.042830
v -0.853584 -0.082610 0.043121
v -0.831962 -0.100930 0.033917
v -0.853580 -0.080550 0.042930
v -0.835328 -0.100930 0.043119
v -0.833325 -0.100924 0.042959
v -0.830589 -0.100920 0.033916
v -0.853580 -0.077876 0.033917
v -0.832228 -0.100922 0.041929
v -0.845835 -0.082692 0.043093
v -0.853579 -0.079526 0.041934
v -0.846249 -0.079151 0.033917
v -0.844302 -0.079813 0.033917
v -0.835440 -0.093066 0.043091
v -0.845134 -0.081258 0.041896
v -0.845876 -0.081852 0.042788
v -0.834594 -0.093047 0.042781
v -0.831864 -0.093517 0.033916
v -0.833972 -0.092451 0.041928
v -0.839586 -0.086867 0.043075
v -0.832539 -0.091565 0.033916
v -0.838512 -0.085800 0.041950
v -0.837285 -0.084567 0.033916
v -0.838976 -0.086325 0.042732
vn -1.0000 0.0016 0.0007
vn 0.9660 0.1664 0.1977
vn 0.0020 -1.0000 -0.0002
vn -0.3357 -0.3346 0.8805
vn 0.9259 0.3199 0.2010
vn -0.6730 -0.6708 -0.3117
vn -0.3925 -0.5807 -0.7133
vn 0.3312 0.2227 0.9169
vn 0.0045 0.0923 0.9957
vn -0.8086 -0.5513 -0.2056
vn 0.2230 0.3298 0.9174
vn 0.0001 0.0001 1.0000
vn -0.5866 -0.3981 -0.7053
vn -0.5486 -0.8097 -0.2081
vn 0.3156 0.9274 0.2009
vn 0.1968 0.9544 0.2246
vn -1.0000 0.0015 -0.0032
vn -1.0000 0.0015 0.0001
vn -1.0000 0.0032 0.0008
vn 0.9544 0.1965 0.2249
vn 0.0069 -1.0000 0.0012
vn 0.0022 -1.0000 -0.0057
vn 0.0023 -1.0000 0.0010
vn -0.3430 -0.3423 0.8747
vn 0.6792 0.1258 0.7231
vn 0.7445 0.1533 0.6497
vn -0.6729 -0.6717 -0.3097
vn -0.4107 -0.6252 -0.6637
vn 0.3234 0.2188 0.9206
vn 0.0797 0.0046 0.9968
vn 0.0013 0.0035 1.0000
vn 0.0036 0.0009 1.0000
vn 0.0047 0.0046 1.0000
vn -0.8095 -0.5490 -0.2079
vn 0.2294 0.3424 0.9111
vn 0.0754 0.3440 0.9360
vn 0.1580 0.7561 0.6351
vn 0.1299 0.6911 0.7110
vn 0.0001 -0.0000 1.0000
vn 0.0002 0.0001 1.0000
vn 0.0008 0.0001 1.0000
vn 0.0004 0.0002 1.0000
vn 0.0001 0.0005 1.0000
vn -0.6312 -0.4163 -0.6544
vn -0.5526 -0.8081 -0.2040
vn 0.1679 0.9656 0.1987
vn 0.3418 0.0762 0.9367
vn -1.0000 0.0014 0.0006
vn 0.0036 0.0035 1.0000
vn -1.0000 0.0022 0.0007
vn 0.0008 0.0008 1.0000
vn 0.0029 -1.0000 0.0011
vn -0.0000 -1.0000 -0.0000
vn 0.0027 -1.0000 0.0006
vn 0.0037 0.0036 1.0000
vn 0.0085 0.0084 0.9999
vn -0.3861 -0.5866 -0.7119
vn -0.0001 -0.0003 1.0000
vn -0.5491 -0.8104 -0.2041
vn -0.0001 -0.0000 1.0000
vn -0.8099 -0.5493 -0.2056
vn -0.5921 -0.3912 -0.7046
vn -0.6246 -0.4242 -0.6557
vn -0.4190 -0.6188 -0.6644
vn -0.5521 -0.8074 -0.2082
vn -0.8082 -0.5510 -0.2080
s 0
f 2//1 1//1 13//1
f 11//2 9//2 20//2
f 11//3 8//3 3//3
f 1//4 7//4 4//4
f 20//5 23//5 21//5
f 5//6 1//6 2//6
f 24//7 18//7 17//7
f 26//8 16//8 19//8
f 12//9 6//9 4//9
f 24//10 23//10 21//10
f 12//11 22//11 26//11
f 14//12 2//12 15//12
f 24//13 21//13 19//13
f 24//14 15//14 25//14
f 17//15 15//15 14//15
f 14//16 13//16 17//16
f 4//17 6//17 1//17
f 1//18 6//18 13//18
f 13//19 10//19 2//19
f 21//20 11//20 20//20
f 9//21 11//21 5//21
f 8//22 7//22 3//22
f 3//23 5//23 11//23
f 1//24 3//24 7//24
f 19//25 8//25 11//25
f 11//26 21//26 19//26
f 5//27 3//27 1//27
f 18//28 24//28 26//28
f 22//29 16//29 26//29
f 8//30 16//30 7//30
f 16//31 22//31 7//31
f 22//32 12//32 4//32
f 7//33 22//33 4//33
f 23//34 24//34 25//34
f 26//35 18//35 12//35
f 18//36 6//36 12//36
f 17//37 13//37 18//37
f 13//38 6//38 18//38
f 15//39 2//39 25//39
f 25//40 5//40 23//40
f 20//41 5//41 9//41
f 5//12 25//12 2//12
f 20//42 23//42 5//42
f 10//43 2//43 14//43
f 24//44 19//44 26//44
f 17//45 15//45 24//45
f 14//46 10//46 13//46
f 16//47 8//47 19//47
f 6//48 2//48 1//48
f 7//49 12//49 4//49
f 13//50 2//50 6//50
f 10//43 2//43 15//43
f 15//39 2//39 23//39
f 23//39 2//39 9//39
f 9//51 2//51 5//51
f 11//52 7//52 5//52
f 7//53 3//53 5//53
f 11//54 8//54 7//54
f 16//55 12//55 7//55
f 16//56 22//56 12//56
f 26//57 18//57 17//57
f 14//58 10//58 15//58
f 17//59 15//59 25//59
f 25//40 15//40 23//40
f 20//60 23//60 9//60
f 25//61 23//61 21//61
f 19//62 26//62 21//62
f 21//63 26//63 24//63
f 24//64 26//64 17//64
f 24//65 17//65 25//65
f 24//66 25//66 21//66
