# Blender 4.0.0
# www.blender.org
o decimated_mesh
v -0.892559 -0.115877 -0.023038
v -0.892407 -0.116714 -0.023603
v -0.892357 -0.116670 -0.022488
v -0.892353 -0.115877 -0.025048
v -0.892151 -0.117405 -0.023342
v -0.892110 -0.117337 -0.022488
v -0.892076 -0.117229 -0.024547
v -0.891789 -0.116888 -0.020270
v -0.891925 -0.115882 -0.019538
v -0.891270 -0.117334 -0.027285
v -0.891961 -0.115883 -0.027097
v -0.891202 -0.117458 -0.019413
v -0.891214 -0.116428 -0.018720
v -0.891007 -0.116418 -0.028121
v -0.882737 -0.130051 -0.027261
v -0.883574 -0.130064 -0.024192
v -0.883303 -0.130581 -0.023354
v -0.883588 -0.130086 -0.022488
v -0.882830 -0.129905 -0.019380
v -0.882318 -0.129430 -0.028130
v -0.891132 -0.115877 -0.028130
v -0.883102 -0.130662 -0.022552
v -0.889710 -0.115880 -0.016768
v -0.889689 -0.115877 -0.028132
v -0.882782 -0.130853 -0.024192
v -0.882150 -0.130520 -0.019480
v -0.881816 -0.129098 -0.017725
v -0.888878 -0.115876 -0.016681
v -0.888573 -0.117254 -0.016669
v -0.868887 -0.136846 -0.028133
v -0.881757 -0.127887 -0.016806
v -0.880783 -0.128810 -0.016729
v -0.868885 -0.136245 -0.016690
v -0.868885 -0.135704 -0.016794
v -0.888459 -0.116106 -0.016799
v -0.870208 -0.138471 -0.027257
v -0.868892 -0.136786 -0.016771
v -0.868895 -0.138406 -0.028122
v -0.870121 -0.139428 -0.023340
v -0.869960 -0.139385 -0.022163
v -0.870210 -0.138455 -0.019415
v -0.868885 -0.139718 -0.022488
v -0.868887 -0.139769 -0.023622
v -0.868895 -0.139185 -0.026981
v -0.869924 -0.139374 -0.024500
v -0.869340 -0.139710 -0.023558
v -0.869392 -0.139630 -0.022488
v -0.868895 -0.139202 -0.019761
v -0.868888 -0.138502 -0.018623
vn 0.0051 -1.0000 -0.0027
vn -0.3139 -0.7842 -0.5353
vn -0.5441 -0.8098 -0.2195
vn -0.9180 -0.3414 0.2019
vn -0.1722 -0.9829 0.0657
vn -0.8248 -0.5500 -0.1314
vn -0.9763 -0.1253 0.1765
vn -0.6500 -0.4325 0.6248
vn -0.8631 -0.3684 0.3454
vn -0.8104 -0.3335 0.4817
vn -0.9455 -0.2683 -0.1845
vn -0.1497 -0.9742 -0.1689
vn -0.9886 -0.1111 -0.1013
vn -0.7338 -0.6440 0.2162
vn -0.4104 -0.6688 0.6199
vn -0.7784 -0.0809 0.6225
vn -0.8873 -0.3900 -0.2461
vn -0.6341 -0.7382 0.2303
vn -1.0000 -0.0039 0.0081
vn -0.7657 -0.1874 -0.6153
vn -0.7057 -0.7049 0.0711
vn -0.5556 -0.8279 -0.0765
vn -0.5521 -0.8270 0.1062
vn -0.0043 -0.0073 -1.0000
vn -0.9440 -0.3222 0.0716
vn -0.0114 -0.0129 0.9999
vn -0.8092 -0.5435 -0.2232
vn 0.4747 0.8795 -0.0337
vn -0.1697 -0.9684 0.1827
vn -0.2237 -0.1558 0.9621
vn 0.4673 0.4669 0.7507
vn -0.3186 -0.9446 0.0784
vn -0.8293 -0.5569 0.0454
vn -0.4259 -0.8681 0.2550
vn -0.3991 -0.2671 0.8772
vn 0.1903 0.1864 0.9639
vn -0.3261 -0.8044 0.4966
vn -0.2888 -0.9364 0.1994
vn -0.2573 -0.9496 -0.1791
vn -0.6275 -0.4186 -0.6566
vn -0.8114 -0.5424 0.2180
vn 0.0002 -1.0000 0.0001
vn -0.0001 -1.0000 -0.0057
vn 0.0042 -1.0000 0.0036
vn -0.0000 -1.0000 -0.0000
vn 0.0034 -1.0000 -0.0020
vn -0.5436 -0.8126 -0.2102
vn -0.5257 -0.4977 0.6899
vn -0.9358 -0.2816 0.2123
vn -0.1221 -0.9915 0.0442
vn -0.4118 -0.6164 -0.6712
vn -0.4224 -0.6288 -0.6529
vn -0.8279 -0.5559 -0.0745
vn -0.7712 -0.2936 -0.5648
vn -0.6540 -0.4276 0.6240
vn -0.6542 -0.4384 0.6164
vn -0.6582 -0.4343 0.6149
vn -0.9759 -0.2121 0.0515
vn -0.4836 -0.6329 0.6047
vn -0.4360 -0.6509 0.6215
vn -0.3973 -0.6736 0.6233
vn -0.4331 -0.6489 0.6256
vn -0.9173 -0.3819 -0.1127
vn -1.0000 0.0051 0.0032
vn -1.0000 0.0051 0.0033
vn -1.0000 -0.0003 0.0002
vn -0.9992 0.0074 0.0387
vn -0.9999 0.0065 -0.0079
vn -1.0000 0.0072 -0.0051
vn -1.0000 0.0032 0.0021
vn -0.5436 -0.8089 0.2242
vn -0.5424 -0.8146 0.2054
vn -0.7085 -0.7029 0.0627
vn -0.5498 -0.8248 -0.1321
vn -0.3630 -0.9258 -0.1050
vn -0.5565 -0.8290 0.0559
vn -0.7515 -0.6481 0.1232
vn -0.0070 -0.0040 -1.0000
vn -0.0016 -0.0170 -0.9999
vn -0.0005 -0.0004 -1.0000
vn -0.9360 -0.3477 0.0550
vn -0.0948 -0.1465 0.9847
vn 0.0124 0.0118 0.9999
vn -0.1038 -0.0140 0.9945
vn -0.6813 -0.7058 -0.1944
vn -0.8109 -0.5432 -0.2177
vn -0.3694 -0.9278 0.0519
vn -0.8284 -0.5537 0.0844
vn -0.4237 -0.8728 -0.2423
vn -0.7023 -0.6848 -0.1946
vn -0.6482 -0.4362 -0.6241
vn -0.8081 -0.5429 0.2285
vn -0.8278 -0.5143 0.2239
vn -0.9507 -0.2515 -0.1812
vn 0.0039 -1.0000 -0.0021
vn 0.0003 -1.0000 -0.0000
vn 0.0051 -1.0000 -0.0034
vn -0.0001 -1.0000 0.0001
vn 0.0139 -0.9999 0.0055
vn -0.9431 -0.3280 0.0546
vn -0.9348 -0.3475 0.0732
vn -0.6550 -0.4389 0.6151
vn -0.6533 -0.4371 0.6182
vn -0.7062 -0.7053 0.0624
vn -0.0016 -0.0011 -1.0000
vn -0.7081 -0.7025 0.0709
vn -0.0395 -0.0257 -0.9989
vn -0.9997 0.0156 -0.0165
vn -1.0000 0.0034 -0.0021
vn -1.0000 -0.0000 -0.0000
vn -0.4390 -0.6555 0.6145
vn -0.4324 -0.6494 0.6255
vn -0.4298 -0.6441 0.6328
vn -1.0000 0.0051 0.0030
vn -0.9997 0.0226 -0.0079
vn -1.0000 -0.0000 0.0022
vn -1.0000 0.0042 0.0028
vn -0.5454 -0.8124 0.2062
vn -0.5401 -0.8109 0.2252
vn -0.3249 -0.9441 0.0553
vn -0.3536 -0.9317 0.0828
s 0
f 28//1 23//1 1//1
f 44//2 36//2 38//2
f 36//3 25//3 15//3
f 3//4 6//4 8//4
f 46//5 42//5 47//5
f 16//6 5//6 7//6
f 3//7 9//7 1//7
f 31//8 23//8 12//8
f 8//9 12//9 9//9
f 9//10 12//10 13//10
f 7//11 2//11 11//11
f 43//12 46//12 44//12
f 2//13 1//13 4//13
f 22//14 19//14 18//14
f 32//15 27//15 26//15
f 13//16 23//16 9//16
f 11//17 10//17 7//17
f 22//18 26//18 19//18
f 48//19 49//19 34//19
f 14//20 11//20 21//20
f 30//21 34//21 35//21
f 25//22 39//22 17//22
f 22//23 39//23 40//23
f 20//24 30//24 38//24
f 6//25 2//25 5//25
f 29//26 32//26 33//26
f 10//27 15//27 16//27
f 35//28 24//28 28//28
f 42//29 48//29 47//29
f 31//30 32//30 29//30
f 28//31 34//31 35//31
f 46//32 40//32 39//32
f 18//33 5//33 17//33
f 48//34 41//34 40//34
f 29//35 23//35 31//35
f 34//36 28//36 33//36
f 41//37 48//37 49//37
f 48//38 40//38 47//38
f 46//39 45//39 44//39
f 14//40 20//40 10//40
f 6//41 18//41 12//41
f 28//42 1//42 24//42
f 11//43 21//43 24//43
f 11//44 24//44 4//44
f 4//45 24//45 1//45
f 1//46 23//46 9//46
f 45//47 25//47 36//47
f 32//48 31//48 27//48
f 9//49 3//49 8//49
f 46//50 43//50 42//50
f 20//51 38//51 36//51
f 36//52 15//52 20//52
f 16//53 17//53 5//53
f 11//54 14//54 10//54
f 23//55 13//55 12//55
f 12//56 19//56 31//56
f 19//57 27//57 31//57
f 2//58 3//58 1//58
f 27//59 19//59 26//59
f 26//60 41//60 32//60
f 37//61 41//61 49//61
f 37//62 32//62 41//62
f 7//63 5//63 2//63
f 43//64 30//64 44//64
f 44//65 30//65 38//65
f 30//66 42//66 34//66
f 34//67 37//67 33//67
f 37//68 34//68 49//68
f 48//69 34//69 42//69
f 42//70 30//70 43//70
f 22//71 40//71 41//71
f 26//72 22//72 41//72
f 30//73 35//73 24//73
f 25//74 45//74 39//74
f 46//75 39//75 45//75
f 22//76 17//76 39//76
f 22//77 18//77 17//77
f 20//78 14//78 24//78
f 14//79 21//79 24//79
f 24//80 30//80 20//80
f 6//81 3//81 2//81
f 32//82 37//82 33//82
f 33//83 28//83 29//83
f 28//84 23//84 29//84
f 17//85 15//85 25//85
f 16//86 7//86 10//86
f 46//87 47//87 40//87
f 18//88 6//88 5//88
f 44//89 45//89 36//89
f 15//90 17//90 16//90
f 15//91 10//91 20//91
f 19//92 12//92 18//92
f 12//93 8//93 6//93
f 11//94 2//94 4//94
f 9//95 1//95 28//95
f 28//96 1//96 4//96
f 23//97 9//97 28//97
f 24//98 28//98 21//98
f 21//42 28//42 4//42
f 21//99 4//99 11//99
f 5//100 3//100 2//100
f 5//101 6//101 3//101
f 19//102 27//102 12//102
f 27//103 31//103 12//103
f 34//104 35//104 24//104
f 20//105 21//105 24//105
f 34//106 24//106 30//106
f 20//107 14//107 21//107
f 37//108 33//108 49//108
f 49//109 33//109 42//109
f 42//110 33//110 34//110
f 26//111 41//111 27//111
f 41//112 37//112 27//112
f 37//113 32//113 27//113
f 42//114 30//114 38//114
f 48//115 49//115 42//115
f 43//116 42//116 44//116
f 44//117 42//117 38//117
f 40//118 26//118 22//118
f 40//119 41//119 26//119
f 39//120 46//120 47//120
f 40//121 39//121 47//121
