# Blender 4.0.0
# www.blender.org
o decimated_mesh
v -0.838143 -0.139771 0.023712
v -0.838150 -0.139703 0.022573
v -0.838144 -0.136346 0.016833
v -0.838155 -0.136781 0.017005
v -0.838154 -0.138611 0.019013
v -0.837137 -0.139436 0.023493
v -0.837325 -0.139353 0.024794
v -0.837290 -0.139388 0.022297
v -0.838154 -0.139178 0.020058
v -0.838157 -0.136734 0.028294
v -0.838155 -0.135604 0.016934
v -0.818266 -0.115558 0.016821
v -0.837007 -0.138434 0.019563
v -0.817469 -0.115558 0.028295
v -0.825629 -0.127528 0.016819
v -0.827661 -0.129472 0.016847
v -0.817571 -0.115561 0.016850
v -0.826447 -0.128934 0.016996
v -0.838157 -0.139167 0.026986
v -0.816068 -0.115558 0.028296
v -0.825451 -0.129103 0.017873
v -0.824531 -0.130029 0.019527
v -0.824013 -0.130552 0.022702
v -0.823955 -0.130585 0.023528
v -0.824481 -0.130860 0.024345
v -0.837026 -0.138451 0.027430
v -0.838159 -0.138353 0.028261
v -0.825046 -0.129510 0.028290
v -0.825515 -0.127976 0.017007
v -0.817771 -0.116396 0.017008
v -0.824526 -0.130060 0.027402
v -0.816263 -0.116422 0.028284
v -0.815292 -0.115558 0.027374
v -0.816044 -0.116385 0.018861
v -0.815298 -0.115557 0.019621
v -0.816109 -0.117547 0.019579
v -0.816974 -0.118871 0.027389
v -0.816110 -0.117520 0.027454
v -0.815403 -0.116335 0.027125
v -0.815399 -0.116313 0.019881
v -0.815075 -0.117088 0.022303
v -0.815208 -0.117242 0.024788
v -0.814837 -0.116636 0.023740
v -0.815116 -0.117412 0.023495
v -0.814606 -0.115558 0.023363
vn -0.5555 0.8277 -0.0794
vn -0.9229 0.3678 -0.1140
vn -0.8164 0.5473 -0.1845
vn -0.6754 0.7109 -0.1959
vn -0.9999 -0.0133 0.0057
vn 0.1383 -0.1317 0.9816
vn -0.4275 0.6347 -0.6437
vn -0.9683 0.1694 0.1838
vn -0.6375 0.4296 -0.6395
vn 0.0022 -0.0015 1.0000
vn -0.2818 0.9391 0.1965
vn 0.7136 -0.6971 -0.0692
vn -0.8105 0.5445 0.2158
vn -0.8276 0.5555 0.0803
vn -0.5438 0.8110 -0.2159
vn -0.4473 0.8579 0.2528
vn -0.9469 0.2653 -0.1818
vn -0.3037 0.4541 0.8376
vn -0.6554 0.4396 0.6142
vn -0.0346 0.0507 0.9981
vn -0.7006 0.2917 0.6512
vn -0.3352 0.9359 -0.1079
vn -0.8044 0.3442 0.4842
vn -0.8609 0.4460 -0.2448
vn -0.7788 0.2891 -0.5567
vn -0.5532 0.8265 0.1044
vn -0.3064 0.8021 -0.5127
vn -0.3000 0.9508 0.0770
vn -0.9451 0.3222 0.0551
vn -0.4246 0.6685 0.6106
vn -0.5500 0.8247 -0.1319
vn -0.5443 0.8089 0.2220
vn -0.5445 0.8079 0.2253
vn -0.8168 0.5330 -0.2208
vn -0.8132 0.5486 -0.1942
vn -0.7727 0.6199 -0.1365
vn -1.0000 0.0015 0.0019
vn -1.0000 -0.0012 -0.0009
vn -1.0000 0.0024 -0.0048
vn -1.0000 0.0014 -0.0026
vn -1.0000 -0.0016 -0.0004
vn 0.9970 0.0046 0.0770
vn -1.0000 0.0001 0.0006
vn -0.4487 0.8599 -0.2434
vn 0.0001 -1.0000 -0.0001
vn -0.0054 -1.0000 0.0058
vn -0.0000 -1.0000 -0.0000
vn -0.0004 -1.0000 -0.0010
vn -0.3170 0.2978 0.9005
vn -0.2260 0.2499 0.9415
vn -0.4231 0.6296 -0.6516
vn -0.9653 0.1906 0.1785
vn -0.5229 0.5005 0.6900
vn -0.6097 0.4220 -0.6710
vn -0.6282 0.4213 -0.6541
vn -0.3994 0.2670 0.8770
vn -0.3914 0.2613 0.8824
vn -0.0407 0.0249 0.9989
vn 0.7089 -0.7036 -0.0492
vn -0.8088 0.5448 0.2216
vn -0.8253 0.5515 0.1217
vn -0.5440 0.8097 -0.2198
vn -0.3423 0.8259 0.4480
vn -0.2388 0.3623 0.9009
vn -0.6635 0.4319 0.6110
vn -0.6535 0.4370 0.6181
vn -0.6655 0.4190 0.6177
vn -0.8199 0.2816 0.4984
vn -0.7682 0.1142 0.6299
vn -0.8639 0.4346 0.2546
vn -0.9676 0.1905 -0.1655
vn -0.9734 0.1472 -0.1757
vn -0.0115 0.0203 -0.9997
vn 0.0064 -0.0039 1.0000
vn 0.0008 -0.0008 1.0000
vn -0.0007 -0.0138 0.9999
vn -0.2523 0.9514 -0.1767
vn -0.7744 0.3092 -0.5520
vn -0.5561 0.8280 0.0722
vn -0.7527 0.1788 -0.6336
vn -0.3275 0.9430 0.0584
vn -0.9677 0.2373 0.0855
vn -0.4391 0.6544 0.6156
vn -0.4005 0.6772 0.6172
vn -0.4373 0.6531 0.6182
vn -1.0000 0.0014 -0.0001
vn -1.0000 -0.0001 -0.0004
vn -1.0000 -0.0017 -0.0006
vn -1.0000 -0.0097 -0.0004
vn -0.9990 -0.0439 0.0039
vn -1.0000 -0.0008 -0.0004
vn -0.6370 0.4302 -0.6396
vn -0.6203 0.4160 -0.6649
vn 0.0323 -0.0212 0.9993
vn 0.0009 -0.0010 1.0000
vn -0.0007 0.0006 1.0000
vn -1.0000 -0.0024 -0.0018
vn -0.4362 0.6516 0.6206
vn -0.4371 0.6533 0.6182
vn -0.3210 0.9437 0.0795
vn -0.3040 0.9509 0.0587
vn -0.8119 0.5506 -0.1943
vn -0.8109 0.5470 -0.2080
vn -0.7118 0.4798 -0.5129
vn 0.0007 -1.0000 -0.0000
vn -0.0004 -1.0000 -0.0001
vn 0.0001 -1.0000 -0.0000
vn -0.4404 0.6563 0.6127
vn -0.5439 0.8083 0.2255
vn -0.6537 0.4373 0.6175
vn -0.6567 0.4405 0.6121
vn -0.5448 0.8086 0.2221
vn -0.8234 0.5521 -0.1312
vn -0.9646 0.1942 -0.1784
vn -0.9745 0.1505 -0.1667
vn -0.0002 -1.0000 -0.0000
vn -0.9685 0.1728 0.1791
vn -0.9622 0.1945 0.1909
s 0
f 25//1 24//1 6//1
f 43//2 44//2 42//2
f 24//3 37//3 44//3
f 24//4 25//4 31//4
f 2//5 1//5 10//5
f 3//6 12//6 11//6
f 26//7 28//7 31//7
f 40//8 41//8 45//8
f 31//9 28//9 37//9
f 12//10 3//10 15//10
f 2//11 8//11 9//11
f 14//12 10//12 11//12
f 41//13 36//13 23//13
f 23//14 24//14 44//14
f 7//15 26//15 25//15
f 9//16 8//16 13//16
f 42//17 39//17 43//17
f 4//18 18//18 16//18
f 36//19 29//19 22//19
f 16//20 15//20 3//20
f 34//21 17//21 30//21
f 7//22 6//22 1//22
f 34//23 36//23 40//23
f 39//24 42//24 38//24
f 32//25 33//25 39//25
f 23//26 8//26 6//26
f 26//27 19//27 27//27
f 1//28 6//28 8//28
f 41//29 44//29 43//29
f 18//30 22//30 21//30
f 25//31 6//31 7//31
f 13//32 23//32 22//32
f 23//33 13//33 8//33
f 38//34 42//34 37//34
f 37//35 24//35 31//35
f 42//36 44//36 37//36
f 9//37 2//37 11//37
f 5//38 9//38 11//38
f 1//39 19//39 10//39
f 19//40 27//40 10//40
f 10//41 11//41 2//41
f 11//42 4//42 3//42
f 4//43 5//43 11//43
f 19//44 26//44 7//44
f 45//45 12//45 35//45
f 35//46 12//46 17//46
f 12//47 45//47 14//47
f 14//48 33//48 20//48
f 33//47 14//47 45//47
f 29//49 15//49 18//49
f 18//50 15//50 16//50
f 28//51 26//51 27//51
f 40//52 45//52 35//52
f 18//53 21//53 29//53
f 38//54 37//54 32//54
f 32//55 37//55 28//55
f 30//56 15//56 29//56
f 15//57 30//57 17//57
f 17//58 12//58 15//58
f 14//59 11//59 12//59
f 22//60 23//60 36//60
f 23//61 44//61 41//61
f 31//62 25//62 26//62
f 5//63 9//63 13//63
f 4//64 16//64 3//64
f 22//65 29//65 21//65
f 29//66 36//66 30//66
f 30//67 36//67 34//67
f 35//68 34//68 40//68
f 35//69 17//69 34//69
f 40//70 36//70 41//70
f 45//71 39//71 33//71
f 43//72 39//72 45//72
f 27//73 10//73 28//73
f 28//74 32//74 14//74
f 10//75 28//75 14//75
f 32//76 20//76 14//76
f 19//77 7//77 1//77
f 38//78 32//78 39//78
f 23//79 6//79 24//79
f 20//80 33//80 32//80
f 1//81 8//81 2//81
f 43//82 45//82 41//82
f 22//83 18//83 13//83
f 4//84 5//84 13//84
f 4//85 13//85 18//85
f 10//86 11//86 27//86
f 11//87 4//87 27//87
f 4//88 19//88 27//88
f 9//89 2//89 19//89
f 2//90 1//90 19//90
f 4//91 9//91 19//91
f 31//92 28//92 38//92
f 38//93 28//93 32//93
f 32//94 20//94 28//94
f 20//95 10//95 28//95
f 20//96 14//96 10//96
f 5//97 9//97 4//97
f 18//98 4//98 21//98
f 21//99 4//99 13//99
f 8//100 2//100 6//100
f 6//101 2//101 1//101
f 24//102 31//102 42//102
f 42//103 31//103 37//103
f 37//104 31//104 38//104
f 33//105 20//105 35//105
f 35//106 20//106 14//106
f 35//107 14//107 12//107
f 21//108 13//108 22//108
f 22//109 13//109 8//109
f 29//110 21//110 36//110
f 36//111 21//111 22//111
f 22//112 8//112 23//112
f 44//113 24//113 42//113
f 43//114 39//114 33//114
f 43//115 33//115 45//115
f 45//116 33//116 35//116
f 45//117 35//117 41//117
f 41//118 35//118 40//118
