# Blender 4.0.0
# www.blender.org
o decimated_mesh
v -0.853633 -0.141310 -0.028155
v -0.853639 -0.140003 -0.028155
v -0.815708 -0.100631 -0.029028
v -0.853639 -0.125358 -0.032182
v -0.817587 -0.118375 -0.028156
v -0.814045 -0.100639 -0.029046
v -0.853634 -0.139940 -0.029531
v -0.829208 -0.100631 -0.032177
v -0.817087 -0.115978 -0.029039
v -0.817765 -0.115779 -0.029719
v -0.853638 -0.121226 -0.042779
v -0.831660 -0.100632 -0.033278
v -0.825075 -0.129529 -0.028164
v -0.834650 -0.108658 -0.042680
v -0.838711 -0.136853 -0.029661
v -0.846141 -0.119629 -0.042858
v -0.853639 -0.122968 -0.033188
v -0.826255 -0.128299 -0.029810
v -0.835437 -0.108757 -0.042927
v -0.833054 -0.100634 -0.042645
v -0.839032 -0.115516 -0.042589
v -0.833850 -0.100632 -0.042922
v -0.838166 -0.138265 -0.028156
v -0.853641 -0.119388 -0.042990
v -0.836055 -0.100631 -0.042670
v -0.853639 -0.118452 -0.042675
v -0.839585 -0.114967 -0.042916
v -0.835325 -0.100631 -0.042951
vn 0.3245 -0.4866 -0.8111
vn 0.0006 1.0000 0.0004
vn -0.3794 0.3768 0.8450
vn 0.4868 -0.3242 -0.8111
vn -1.0000 -0.0001 -0.0001
vn -0.2452 0.2570 0.9348
vn -0.3093 0.3039 -0.9011
vn 0.2218 -0.3232 -0.9200
vn -0.3253 0.2190 0.9199
vn -0.6754 0.6663 0.3161
vn 0.9805 -0.1945 0.0270
vn 0.1116 -0.5736 -0.8115
vn 0.3136 -0.4886 -0.8142
vn -0.0010 -1.0000 0.0004
vn 0.0010 1.0000 0.0033
vn -0.0041 -0.9998 0.0177
vn -0.0006 -1.0000 0.0005
vn -0.0001 -1.0000 0.0003
vn 0.5822 -0.3896 -0.7136
vn 0.5838 -0.3914 -0.7113
vn 0.5947 -0.3843 -0.7062
vn -0.3656 0.3611 0.8579
vn 0.0137 -0.1136 -0.9934
vn 0.4872 -0.3221 -0.8117
vn -1.0000 -0.0007 0.0085
vn -1.0000 -0.0004 -0.0002
vn -1.0000 -0.0047 -0.0036
vn -1.0000 -0.0009 -0.0034
vn -1.0000 -0.0003 -0.0002
vn 0.3280 -0.0611 -0.9427
vn 0.3057 -0.0592 -0.9503
vn -0.2217 0.2188 0.9502
vn -0.3382 0.3339 -0.8799
vn 0.5753 -0.1109 -0.8104
vn 0.5785 -0.1062 -0.8087
vn 0.3904 -0.5809 -0.7143
vn 0.3959 -0.5939 -0.7004
vn -0.3169 0.2147 0.9238
vn 0.1381 -0.7016 -0.6990
vn 0.1380 -0.6970 -0.7037
vn 0.0112 0.0479 0.9988
vn 0.0121 -0.0338 -0.9994
vn -0.0000 -0.0000 -1.0000
vn 0.0001 -0.0011 -1.0000
vn 0.0878 -0.0582 -0.9944
vn 0.6813 -0.1354 -0.7194
vn -0.6754 0.6659 0.3170
vn 0.0193 -0.0032 -0.9998
vn 0.0017 -0.0029 -1.0000
vn 0.0163 -0.0353 -0.9992
vn 0.0066 -0.0044 -1.0000
vn 0.1137 -0.5741 -0.8109
vn 0.0052 -0.0030 -1.0000
vn 0.0074 -0.0067 -1.0000
vn -1.0000 -0.0020 -0.0025
vn -1.0000 -0.0026 -0.0035
vn -1.0000 0.0001 0.0002
vn -1.0000 -0.0000 0.0002
vn -1.0000 0.0020 0.0009
vn -0.3168 0.2133 0.9242
vn -0.3247 0.2196 0.9200
vn 0.1135 -0.5730 -0.8117
vn 0.1117 -0.5742 -0.8111
vn 0.0314 -0.0524 -0.9981
vn -0.2209 0.2338 0.9469
vn -0.2593 0.2560 0.9312
vn 0.0001 -1.0000 -0.0001
vn -0.0000 -1.0000 -0.0000
vn -0.0010 -1.0000 0.0015
vn -0.0021 0.0022 -1.0000
vn -0.0043 -1.0000 0.0056
s 0
f 21//1 18//1 15//1
f 22//2 28//2 25//2
f 17//3 8//3 12//3
f 10//4 18//4 21//4
f 11//5 4//5 17//5
f 3//6 4//6 2//6
f 26//7 28//7 24//7
f 16//8 27//8 21//8
f 21//9 19//9 27//9
f 26//10 12//10 25//10
f 6//11 5//11 9//11
f 15//12 7//12 16//12
f 16//13 21//13 15//13
f 25//14 20//14 12//14
f 25//15 20//15 22//15
f 8//16 6//16 3//16
f 6//17 8//17 20//17
f 8//18 12//18 20//18
f 18//19 10//19 5//19
f 13//20 18//20 5//20
f 10//21 9//21 5//21
f 17//22 4//22 8//22
f 24//23 16//23 11//23
f 21//24 14//24 10//24
f 24//25 11//25 26//25
f 11//26 7//26 4//26
f 7//27 1//27 2//27
f 4//28 7//28 2//28
f 17//29 26//29 11//29
f 20//30 14//30 22//30
f 22//31 14//31 19//31
f 3//32 8//32 4//32
f 26//33 25//33 28//33
f 14//34 20//34 10//34
f 20//35 6//35 10//35
f 15//36 18//36 13//36
f 13//37 23//37 15//37
f 14//38 19//38 21//38
f 23//39 1//39 7//39
f 7//40 15//40 23//40
f 5//41 6//41 3//41
f 3//42 13//42 2//42
f 23//43 1//43 2//43
f 23//44 2//44 13//44
f 13//45 3//45 5//45
f 10//46 6//46 9//46
f 26//47 17//47 12//47
f 22//48 19//48 28//48
f 19//49 27//49 28//49
f 27//50 16//50 24//50
f 24//51 28//51 27//51
f 11//52 16//52 7//52
f 28//53 19//53 24//53
f 19//54 27//54 24//54
f 11//55 7//55 24//55
f 7//56 2//56 24//56
f 2//57 4//57 24//57
f 4//58 17//58 24//58
f 17//59 26//59 24//59
f 14//60 19//60 27//60
f 14//61 27//61 21//61
f 15//62 11//62 16//62
f 15//63 7//63 11//63
f 1//43 2//43 5//43
f 5//64 2//64 3//64
f 3//65 8//65 2//65
f 8//66 4//66 2//66
f 8//67 12//67 25//67
f 8//68 25//68 3//68
f 3//69 25//69 20//69
f 13//70 23//70 5//70
f 5//43 23//43 1//43
f 6//71 3//71 20//71
