# Blender 4.0.0
# www.blender.org
o decimated_mesh
v -0.853634 -0.060471 -0.028170
v -0.853639 -0.061806 -0.028113
v -0.838136 -0.063561 -0.028113
v -0.814557 -0.100631 -0.028113
v -0.838740 -0.064993 -0.029660
v -0.845896 -0.082311 -0.042851
v -0.853639 -0.076498 -0.032169
v -0.813229 -0.100626 -0.028113
v -0.853637 -0.080688 -0.042832
v -0.829207 -0.100631 -0.032175
v -0.853639 -0.078935 -0.033199
v -0.825068 -0.072320 -0.028113
v -0.853639 -0.082606 -0.042937
v -0.835326 -0.100631 -0.042952
v -0.831563 -0.100631 -0.033183
v -0.814730 -0.100629 -0.029586
v -0.826272 -0.073543 -0.029800
v -0.839482 -0.086583 -0.042854
v -0.853639 -0.083325 -0.042664
v -0.836090 -0.100632 -0.042671
v -0.835078 -0.093071 -0.042861
v -0.833487 -0.100631 -0.042849
v -0.817732 -0.085988 -0.029669
v -0.816305 -0.085362 -0.028114
vn -1.0000 0.0001 -0.0002
vn -0.3257 -0.3302 -0.8859
vn 0.1176 0.5705 -0.8128
vn -0.0000 -1.0000 -0.0000
vn 0.5872 0.3955 -0.7062
vn 0.3945 0.5868 -0.7072
vn -0.3656 -0.3703 0.8540
vn 0.5737 0.1130 -0.8113
vn 0.1417 0.6981 -0.7019
vn -0.6649 -0.6763 0.3172
vn 0.6934 0.1381 -0.7072
vn 0.3237 0.4853 -0.8122
vn -0.2540 -0.2574 0.9323
vn -0.0000 -0.0001 -1.0000
vn 0.0049 0.0427 0.9991
vn -0.0000 -0.0000 -1.0000
vn -0.0001 -0.0000 -1.0000
vn -1.0000 0.0008 -0.0003
vn -0.9999 0.0029 -0.0108
vn -1.0000 0.0004 -0.0003
vn -1.0000 0.0009 0.0009
vn -0.3305 -0.3348 -0.8824
vn 0.0968 0.5843 -0.8057
vn 0.0002 -1.0000 -0.0000
vn 0.0002 -1.0000 0.0001
vn 0.0002 -1.0000 -0.0001
vn 0.0038 -1.0000 -0.0023
vn 0.0005 -1.0000 -0.0019
vn 0.5911 0.3971 -0.7021
vn 0.3963 0.5913 -0.7024
vn -0.3578 -0.3635 0.8602
vn 0.5700 0.1186 -0.8131
vn -0.6667 -0.6762 0.3137
vn 0.7006 0.1412 -0.6994
vn 0.4808 0.3273 -0.8134
vn 0.4851 0.3244 -0.8120
vn 0.3228 0.4855 -0.8125
vn -0.2580 -0.2597 0.9306
vn 0.0091 0.0549 -0.9985
vn 0.0105 0.0166 -0.9998
vn 0.0153 0.0115 -0.9998
vn 0.0558 0.0101 -0.9984
vn 0.0085 0.0095 -0.9999
vn -1.0000 0.0033 -0.0043
vn -1.0000 0.0007 -0.0010
vn -0.2556 -0.2573 0.9319
vn -1.0000 -0.0000 -0.0000
vn -0.0001 -0.0001 -1.0000
vn -0.3587 -0.3633 0.8599
vn -0.2579 -0.2613 0.9302
vn 0.0013 -1.0000 -0.0020
vn -0.0001 -1.0000 0.0001
vn -0.3654 -0.3712 0.8536
s 0
f 11//1 7//1 9//1
f 20//2 13//2 14//2
f 5//3 6//3 9//3
f 10//4 15//4 22//4
f 23//5 17//5 12//5
f 17//6 5//6 12//6
f 7//7 15//7 10//7
f 23//8 16//8 22//8
f 5//9 1//9 3//9
f 11//10 20//10 15//10
f 8//11 16//11 23//11
f 5//12 17//12 18//12
f 10//13 2//13 7//13
f 12//14 2//14 3//14
f 3//15 1//15 2//15
f 2//16 12//16 4//16
f 24//16 8//16 4//16
f 24//17 4//17 12//17
f 19//18 11//18 9//18
f 7//19 2//19 1//19
f 1//20 9//20 7//20
f 9//21 13//21 19//21
f 20//22 19//22 13//22
f 9//23 1//23 5//23
f 15//24 20//24 22//24
f 14//25 22//25 20//25
f 22//26 16//26 10//26
f 16//27 8//27 4//27
f 4//28 10//28 16//28
f 12//29 24//29 23//29
f 3//30 12//30 5//30
f 7//31 11//31 15//31
f 22//32 21//32 23//32
f 11//33 19//33 20//33
f 24//34 8//34 23//34
f 21//35 18//35 17//35
f 17//36 23//36 21//36
f 18//37 6//37 5//37
f 10//38 4//38 2//38
f 9//39 6//39 13//39
f 6//40 18//40 13//40
f 18//41 21//41 14//41
f 21//42 22//42 14//42
f 14//43 13//43 18//43
f 9//44 2//44 1//44
f 2//16 3//16 8//16
f 8//16 3//16 12//16
f 19//45 2//45 9//45
f 7//46 4//46 2//46
f 4//16 2//16 8//16
f 19//47 7//47 2//47
f 24//48 8//48 12//48
f 11//47 7//47 19//47
f 11//49 10//49 7//49
f 10//50 4//50 7//50
f 10//4 20//4 4//4
f 20//51 16//51 4//51
f 20//24 22//24 16//24
f 10//52 15//52 20//52
f 15//53 10//53 11//53
