# Blender 4.0.0
# www.blender.org
o decimated_mesh
v -0.853577 -0.060510 0.028295
v -0.853586 -0.061815 0.028295
v -0.816839 -0.089155 0.028295
v -0.853583 -0.062217 0.029982
v -0.853586 -0.076471 0.032334
v -0.815512 -0.089155 0.028295
v -0.838176 -0.063544 0.028298
v -0.832607 -0.089155 0.032354
v -0.853586 -0.078768 0.033303
v -0.838595 -0.065190 0.029941
v -0.844541 -0.079709 0.033916
v -0.816267 -0.085436 0.028298
v -0.817268 -0.089154 0.029971
v -0.835274 -0.089155 0.033285
v -0.853586 -0.079223 0.033914
v -0.853586 -0.077888 0.033916
v -0.826286 -0.073610 0.030021
v -0.825053 -0.072297 0.028300
v -0.817868 -0.086084 0.029974
v -0.835887 -0.089155 0.033916
v -0.837285 -0.084563 0.033916
v -0.834139 -0.089155 0.033916
vn -0.0000 -1.0000 -0.0000
vn 0.2275 0.0433 0.9728
vn -0.0000 -0.0000 1.0000
vn -0.2279 -0.3784 -0.8971
vn 0.1367 0.2091 0.9683
vn 0.1372 0.6820 0.7184
vn -0.4419 -0.7876 -0.4295
vn -0.1939 -0.2606 -0.9458
vn -0.0000 -0.0007 1.0000
vn -0.0004 -0.0005 1.0000
vn -0.0002 -0.0000 1.0000
vn -0.0002 0.0001 1.0000
vn -0.0007 -0.0006 1.0000
vn 0.0001 -1.0000 0.0005
vn -0.0000 -1.0000 0.0005
vn 0.0001 -1.0000 0.0001
vn -0.4145 -0.7299 -0.5435
vn 0.0490 0.2432 0.9687
vn 0.0511 0.2442 0.9684
vn -0.0003 -0.0017 1.0000
vn -0.0003 -0.0002 1.0000
vn -1.0000 0.0070 0.0037
vn -1.0000 0.0006 0.0022
vn -1.0000 0.0001 -0.0000
vn -1.0000 -0.0000 -0.0000
vn -1.0000 0.0003 0.0003
vn -0.2303 -0.3824 -0.8948
vn 0.1378 0.2060 0.9688
vn 0.5854 0.3913 0.7101
vn 0.5816 0.3898 0.7140
vn 0.6842 0.1328 0.7171
vn 0.6888 0.1394 0.7114
vn 0.1370 0.6960 0.7049
vn -0.2852 -0.5015 -0.8168
vn 0.3894 0.5762 0.7185
vn 0.3972 0.5957 0.6982
vn 0.2039 0.1397 0.9690
vn 0.2087 0.1372 0.9683
vn -0.0002 -0.0003 1.0000
vn -0.0007 -0.0007 1.0000
vn 0.0002 -1.0000 0.0006
vn -0.0012 -0.0010 1.0000
vn -0.0000 -1.0000 -0.0001
vn -0.2302 -0.3833 -0.8945
vn -0.2292 -0.3783 -0.8969
vn -1.0000 -0.0002 -0.0002
vn -1.0000 0.0007 0.0022
vn -1.0000 0.0002 0.0002
vn -1.0000 0.0001 -0.0007
vn -0.0011 -0.0017 1.0000
s 0
f 22//1 20//1 14//1
f 19//2 22//2 13//2
f 11//3 20//3 21//3
f 5//4 8//4 9//4
f 11//5 17//5 10//5
f 4//6 10//6 7//6
f 15//7 14//7 20//7
f 3//8 5//8 2//8
f 12//9 3//9 6//9
f 3//10 18//10 2//10
f 1//11 2//11 7//11
f 7//12 2//12 18//12
f 18//13 3//13 12//13
f 14//1 8//1 22//1
f 8//14 3//14 13//14
f 3//15 6//15 13//15
f 13//16 22//16 8//16
f 14//17 15//17 9//17
f 16//18 11//18 4//18
f 10//19 4//19 11//19
f 11//20 16//20 15//20
f 15//21 20//21 11//21
f 20//3 22//3 21//3
f 1//22 2//22 4//22
f 2//23 5//23 4//23
f 5//24 9//24 16//24
f 9//25 15//25 16//25
f 16//26 4//26 5//26
f 5//27 3//27 8//27
f 11//28 21//28 17//28
f 12//29 18//29 19//29
f 17//30 19//30 18//30
f 19//31 13//31 6//31
f 6//32 12//32 19//32
f 7//33 1//33 4//33
f 9//34 8//34 14//34
f 10//35 17//35 18//35
f 18//36 7//36 10//36
f 22//37 17//37 21//37
f 19//38 17//38 22//38
f 7//39 1//39 6//39
f 6//3 1//3 3//3
f 3//3 1//3 2//3
f 18//40 7//40 6//40
f 13//41 14//41 6//41
f 14//1 3//1 6//1
f 18//42 6//42 12//42
f 14//43 8//43 3//43
f 8//44 9//44 3//44
f 9//45 5//45 3//45
f 5//46 9//46 2//46
f 9//47 4//47 2//47
f 9//48 15//48 4//48
f 15//49 16//49 4//49
f 22//1 14//1 13//1
f 20//50 16//50 15//50
f 20//3 11//3 16//3
