mtllib Doorway_7.mtl
v -0.03720566 -0.006600052 -0.06357387
v -0.01320175 -1.521968E-08 -0.0618063
v -0.01143295 -0.006600357 -0.0635751
v -0.03720566 -1.521968E-08 -0.0618063
v -0.01143295 0.006600326 -0.0635751
v -0.03720566 0.006600021 -0.06357387
v -0.03720566 -0.01143152 -0.06840542
v -0.03720566 -0.006600052 -0.06357387
v -0.01143295 -0.006600357 -0.0635751
v -0.00660141 -0.01143205 -0.06840786
v -0.03720566 -0.01320001 -0.07500575
v 1.525879E-07 -0.01320024 -0.07500575
v -0.03720566 -0.01143152 -0.0816061
v 1.525879E-07 -0.01143274 -0.08160122
v -0.03720566 -0.006600052 -0.08643764
v 1.525879E-07 -0.006600052 -0.08643764
v 0.02410904 -0.01143213 -0.08160366
v 0.02410904 -0.006600052 -0.08643764
v 0.02410904 -0.01320009 -0.07500575
v 0.006601715 -0.01143205 -0.06840786
v 0.02410904 -0.01143175 -0.06840663
v 0.01143326 -0.006600357 -0.0635751
v 0.02410904 -0.006600204 -0.0635751
v -0.03720566 0.006600021 -0.06357387
v -0.00660141 0.01143202 -0.06840786
v -0.01143295 0.006600326 -0.0635751
v -0.03720566 0.01143149 -0.06840542
v 1.525879E-07 0.01320029 -0.07500575
v -0.03720566 0.01319998 -0.07500575
v 1.525879E-07 0.01143149 -0.0816061
v -0.03720566 0.01143149 -0.0816061
v 1.525879E-07 0.006600021 -0.08643764
v -0.03720566 0.006600021 -0.08643764
v 0.02410904 0.006600021 -0.08643764
v 0.02410904 0.01143149 -0.0816061
v 0.02410904 0.01320013 -0.07500575
v 0.02410904 0.01143172 -0.06840663
v 0.006601715 0.01143202 -0.06840786
v 0.02410904 0.006600174 -0.0635751
v 0.01143326 0.006600326 -0.0635751
v -0.01143295 -0.006600357 -0.0635751
v -0.00660141 -0.01143205 0.06840854
v -0.00660141 -0.01143205 -0.06840786
v -0.01143295 -0.006600357 0.06357456
v -0.01320175 -1.521968E-08 -0.0618063
v -0.01320175 -1.521968E-08 0.06180576
v -0.01143295 0.006600326 -0.0635751
v -0.01143295 0.006600326 0.06357456
v -0.00660141 0.01143202 -0.06840786
v -0.00660141 0.01143202 0.06840854
v 0.006601715 -0.01143205 -0.06840786
v 0.006601715 -0.01143205 0.06840854
v 0.01143326 -0.006600357 0.06357456
v 0.01143326 -0.006600357 -0.0635751
v 0.01320084 -1.521968E-08 0.06180576
v 0.01320084 -1.521968E-08 -0.0618063
v 0.01143326 0.006600326 0.06357456
v 0.01143326 0.006600326 -0.0635751
v 0.006601715 0.01143202 0.06840854
v 0.006601715 0.01143202 -0.06840786
v -0.03720566 -1.521968E-08 -0.08820644
v -0.03720566 -0.006600052 -0.08643764
v 1.525879E-07 -0.006600052 -0.08643764
v 1.525879E-07 -1.521968E-08 -0.08820644
v -0.03720566 0.006600021 -0.08643764
v 0.02410904 -0.006600052 -0.08643764
v 1.525879E-07 0.006600021 -0.08643764
v 0.02410904 -1.521968E-08 -0.08820644
v 0.02410904 0.006600021 -0.08643764
v 0.02410904 0.009638503 -0.0694418
v 0.0294606 0.005564788 -0.06536709
v 0.02410904 0.005564788 -0.06536709
v 0.0294606 0.00963858 -0.0694418
v 0.02410904 0.01112952 -0.07500575
v 0.0294606 0.01112959 -0.07500575
v 0.02410904 0.009638427 -0.08057094
v 0.0294606 0.009638351 -0.08057094
v 0.02410904 0.005564712 -0.08464443
v 0.0294606 0.005564712 -0.08464443
v 0.02410904 0.005564788 -0.06536709
v 0.0294606 0.005564788 -0.06536709
v 0.0294606 -1.521968E-08 -0.06387661
v 0.02410904 -1.521968E-08 -0.06387661
v 0.0294606 -0.00556482 -0.06536709
v 0.02410904 -0.005564743 -0.06536709
v 0.02410904 -0.005564743 -0.06536709
v 0.0294606 -0.00556482 -0.06536709
v 0.0294606 -0.009638535 -0.0694418
v 0.02410904 -0.009638535 -0.0694418
v 0.0294606 -0.01112955 -0.07500575
v 0.02410904 -0.01112955 -0.07500575
v 0.0294606 -0.009638916 -0.0805685
v 0.02410904 -0.009638916 -0.0805685
v 0.0294606 -0.005564438 -0.08464443
v 0.02410904 -0.00556459 -0.08464443
v 0.02410904 -0.00556459 -0.08464443
v 0.0294606 -0.005564438 -0.08464443
v 0.0294606 -1.521968E-08 -0.08613491
v 0.02410904 6.107427E-08 -0.08613491
v 0.0294606 0.005564712 -0.08464443
v 0.02410904 0.005564712 -0.08464443
v 0.1453664 0.009638427 -0.0694418
v 0.1507179 0.005564636 -0.06536709
v 0.1453664 0.005564788 -0.06536709
v 0.1507179 0.009638427 -0.0694418
v 0.1453664 0.01112952 -0.07500575
v 0.1507179 0.01112952 -0.07500575
v 0.1453664 0.009638351 -0.08057094
v 0.1507179 0.009638351 -0.08057094
v 0.1453664 0.005564712 -0.08464443
v 0.1507179 0.005564712 -0.08464443
v 0.1453664 0.005564788 -0.06536709
v 0.1507179 0.005564636 -0.06536709
v 0.1507179 -1.521968E-08 -0.06387661
v 0.1453664 -1.521968E-08 -0.06387661
v 0.1507179 -0.00556482 -0.06536709
v 0.1453664 -0.005564896 -0.06536709
v 0.1453664 -0.005564896 -0.06536709
v 0.1507179 -0.00556482 -0.06536709
v 0.1507179 -0.009638458 -0.0694418
v 0.1453664 -0.009638535 -0.0694418
v 0.1507179 -0.01112955 -0.07500575
v 0.1453664 -0.01112955 -0.07500575
v 0.1507179 -0.009638611 -0.08056972
v 0.1453664 -0.009638611 -0.08056972
v 0.1507179 -0.005564667 -0.08464443
v 0.1453664 -0.005564667 -0.08464443
v 0.1453664 -0.005564667 -0.08464443
v 0.1507179 -0.005564667 -0.08464443
v 0.1507179 -1.521968E-08 -0.08613491
v 0.1453664 -9.151362E-08 -0.08613491
v 0.1507179 0.005564712 -0.08464443
v 0.1453664 0.005564712 -0.08464443
v 0.01320084 -1.521968E-08 -0.0618063
v 0.02410904 -0.006600204 -0.0635751
v 0.01143326 -0.006600357 -0.0635751
v 0.02410904 -1.521968E-08 -0.0618063
v 0.01143326 0.006600326 -0.0635751
v 0.02410904 0.006600174 -0.0635751
v 0.0294606 0.01143172 -0.06840663
v 0.1453664 0.006600097 -0.06357387
v 0.0294606 0.006600174 -0.0635751
v 0.1453664 0.01143156 -0.06840663
v 0.1453664 0.01320006 -0.07500575
v 0.0294606 0.01320013 -0.07500575
v 0.1453664 0.01143149 -0.0816061
v 0.0294606 0.01143149 -0.0816061
v 0.1453664 0.006600021 -0.08643764
v 0.0294606 0.006600021 -0.08643764
v 0.0294606 -1.521968E-08 -0.0618063
v 0.0294606 0.006600174 -0.0635751
v 0.1453664 0.006600097 -0.06357387
v 0.1453664 -1.521968E-08 -0.0618063
v 0.0294606 -0.006600204 -0.0635751
v 0.1453664 -0.006600128 -0.06357387
v 0.0294606 -0.01143175 -0.06840663
v 0.0294606 -0.006600204 -0.0635751
v 0.1453664 -0.006600128 -0.06357387
v 0.1453664 -0.01143159 -0.06840663
v 0.0294606 -0.01320009 -0.07500575
v 0.1453664 -0.01320009 -0.07500575
v 0.0294606 -0.01143213 -0.08160366
v 0.1453664 -0.01143182 -0.08160488
v 0.0294606 -0.006600052 -0.08643764
v 0.1453664 -0.006600052 -0.08643764
v 0.0294606 -1.521968E-08 -0.08820644
v 0.0294606 -0.006600052 -0.08643764
v 0.1453664 -0.006600052 -0.08643764
v 0.1453664 -1.521968E-08 -0.08820644
v 0.0294606 0.006600021 -0.08643764
v 0.1453664 0.006600021 -0.08643764
v 0.1507179 0.01143156 -0.06840663
v 0.1652419 0.006600021 -0.06357387
v 0.1507179 0.006600097 -0.06357387
v 0.1652419 0.01143149 -0.06840542
v 0.1652419 0.01319998 -0.07500575
v 0.1507179 0.01320006 -0.07500575
v 0.1652419 0.01143149 -0.0816061
v 0.1507179 0.01143149 -0.0816061
v 0.1652419 0.006600021 -0.08643764
v 0.1507179 0.006600021 -0.08643764
v 0.1507179 -1.521968E-08 -0.0618063
v 0.1507179 0.006600097 -0.06357387
v 0.1652419 0.006600021 -0.06357387
v 0.1652419 -1.521968E-08 -0.0618063
v 0.1507179 -0.006600128 -0.06357387
v 0.1652419 -0.006600052 -0.06357387
v 0.1507179 -0.01143159 -0.06840663
v 0.1507179 -0.006600128 -0.06357387
v 0.1652419 -0.006600052 -0.06357387
v 0.1652419 -0.01143152 -0.06840542
v 0.1507179 -0.01320009 -0.07500575
v 0.1652419 -0.01320001 -0.07500575
v 0.1507179 -0.01143182 -0.08160488
v 0.1652419 -0.01143152 -0.0816061
v 0.1507179 -0.006600052 -0.08643764
v 0.1652419 -0.006600052 -0.08643764
v 0.1507179 -1.521968E-08 -0.08820644
v 0.1507179 -0.006600052 -0.08643764
v 0.1652419 -0.006600052 -0.08643764
v 0.1652419 -1.521968E-08 -0.08820644
v 0.1507179 0.006600021 -0.08643764
v 0.1652419 0.006600021 -0.08643764
v -0.03720566 -0.006600052 0.06357456
v -0.01143295 -0.006600357 0.06357456
v -0.01320175 -1.521968E-08 0.06180576
v -0.03720566 -1.521968E-08 0.06180576
v -0.01143295 0.006600326 0.06357456
v -0.03720566 0.006600021 0.06357456
v 1.525879E-07 -0.01320024 -0.07500575
v -0.00660141 -0.01143205 -0.06840786
v -0.00660141 -0.01143205 0.06840854
v 1.525879E-07 -0.01320024 0.07500645
v 0.006601715 -0.01143205 -0.06840786
v 0.006601715 -0.01143205 0.06840854
v -0.03720566 -0.01143152 0.06840611
v -0.01143295 -0.006600357 0.06357456
v -0.03720566 -0.006600052 0.06357456
v -0.00660141 -0.01143205 0.06840854
v -0.03720566 -0.01320001 0.07500645
v 1.525879E-07 -0.01320024 0.07500645
v -0.03720566 -0.01143152 0.08160557
v 1.525879E-07 -0.01143274 0.0816019
v -0.03720566 -0.006600052 0.08643711
v 1.525879E-07 -0.006600052 0.08643711
v 0.02410904 -0.01143213 0.08160312
v 0.02410904 -0.006600052 0.08643711
v 0.02410904 -0.01320009 0.07500645
v 0.006601715 -0.01143205 0.06840854
v 0.02410904 -0.01143175 0.06840733
v 0.01143326 -0.006600357 0.06357456
v 0.02410904 -0.006600204 0.06357456
v -0.00660141 0.01143202 -0.06840786
v 1.525879E-07 0.01320029 0.07500645
v -0.00660141 0.01143202 0.06840854
v 1.525879E-07 0.01320029 -0.07500575
v 0.006601715 0.01143202 0.06840854
v 0.006601715 0.01143202 -0.06840786
v -0.03720566 0.006600021 0.06357456
v -0.01143295 0.006600326 0.06357456
v -0.00660141 0.01143202 0.06840854
v -0.03720566 0.01143149 0.06840611
v 1.525879E-07 0.01320029 0.07500645
v -0.03720566 0.01319998 0.07500645
v 1.525879E-07 0.01143149 0.08160557
v -0.03720566 0.01143149 0.08160557
v 1.525879E-07 0.006600021 0.08643711
v -0.03720566 0.006600021 0.08643711
v 0.02410904 0.006600021 0.08643711
v 0.02410904 0.01143149 0.08160557
v 0.02410904 0.01320013 0.07500645
v 0.02410904 0.01143172 0.06840733
v 0.006601715 0.01143202 0.06840854
v 0.02410904 0.006600174 0.06357456
v 0.01143326 0.006600326 0.06357456
v -0.03720566 -1.521968E-08 0.08820591
v 1.525879E-07 -0.006600052 0.08643711
v -0.03720566 -0.006600052 0.08643711
v 1.525879E-07 -1.521968E-08 0.08820591
v -0.03720566 0.006600021 0.08643711
v 0.02410904 -0.006600052 0.08643711
v 1.525879E-07 0.006600021 0.08643711
v 0.02410904 -1.521968E-08 0.08820591
v 0.02410904 0.006600021 0.08643711
v 0.02410904 0.009638503 0.06944248
v 0.02410904 0.005564788 0.06536777
v 0.0294606 0.005564788 0.06536777
v 0.0294606 0.00963858 0.06944248
v 0.02410904 0.01112952 0.07500645
v 0.0294606 0.01112959 0.07500645
v 0.02410904 0.009638427 0.08057041
v 0.0294606 0.009638351 0.08057041
v 0.02410904 0.005564712 0.08464389
v 0.0294606 0.005564712 0.08464389
v 0.02410904 0.005564788 0.06536777
v 0.0294606 -1.521968E-08 0.06387608
v 0.0294606 0.005564788 0.06536777
v 0.02410904 -1.521968E-08 0.06387608
v 0.0294606 -0.00556482 0.06536777
v 0.02410904 -0.005564743 0.06536777
v 0.02410904 -0.005564743 0.06536777
v 0.0294606 -0.009638535 0.06944248
v 0.0294606 -0.00556482 0.06536777
v 0.02410904 -0.009638535 0.06944248
v 0.0294606 -0.01112955 0.07500645
v 0.02410904 -0.01112955 0.07500645
v 0.0294606 -0.009638916 0.08056919
v 0.02410904 -0.009638916 0.08056797
v 0.0294606 -0.005564438 0.08464389
v 0.02410904 -0.00556459 0.08464389
v 0.02410904 -0.00556459 0.08464389
v 0.0294606 -1.521968E-08 0.0861356
v 0.0294606 -0.005564438 0.08464389
v 0.02410904 6.107427E-08 0.0861356
v 0.0294606 0.005564712 0.08464389
v 0.02410904 0.005564712 0.08464389
v 0.1453664 0.009638427 0.06944126
v 0.1453664 0.005564788 0.06536777
v 0.1507179 0.005564636 0.06536777
v 0.1507179 0.009638427 0.06944126
v 0.1453664 0.01112952 0.07500645
v 0.1507179 0.01112952 0.07500645
v 0.1453664 0.009638351 0.08057041
v 0.1507179 0.009638351 0.08057041
v 0.1453664 0.005564712 0.08464389
v 0.1507179 0.005564712 0.08464389
v 0.1453664 0.005564788 0.06536777
v 0.1507179 -1.521968E-08 0.06387608
v 0.1507179 0.005564636 0.06536777
v 0.1453664 -1.521968E-08 0.06387608
v 0.1507179 -0.00556482 0.06536777
v 0.1453664 -0.005564896 0.06536777
v 0.1453664 -0.005564896 0.06536777
v 0.1507179 -0.009638458 0.06944126
v 0.1507179 -0.00556482 0.06536777
v 0.1453664 -0.009638535 0.06944126
v 0.1507179 -0.01112955 0.07500645
v 0.1453664 -0.01112955 0.07500645
v 0.1507179 -0.009638611 0.08056919
v 0.1453664 -0.009638611 0.08056919
v 0.1507179 -0.005564667 0.08464389
v 0.1453664 -0.005564667 0.08464389
v 0.1453664 -0.005564667 0.08464389
v 0.1507179 -1.521968E-08 0.0861356
v 0.1507179 -0.005564667 0.08464389
v 0.1453664 -9.151362E-08 0.0861356
v 0.1507179 0.005564712 0.08464389
v 0.1453664 0.005564712 0.08464389
v 0.01320084 -1.521968E-08 0.06180576
v 0.01143326 -0.006600357 0.06357456
v 0.02410904 -0.006600204 0.06357456
v 0.02410904 -1.521968E-08 0.06180576
v 0.01143326 0.006600326 0.06357456
v 0.02410904 0.006600174 0.06357456
v 0.0294606 0.01143172 0.06840733
v 0.0294606 0.006600174 0.06357456
v 0.1453664 0.006600097 0.06357456
v 0.1453664 0.01143156 0.06840611
v 0.1453664 0.01320006 0.07500645
v 0.0294606 0.01320013 0.07500645
v 0.1453664 0.01143149 0.08160557
v 0.0294606 0.01143149 0.08160557
v 0.1453664 0.006600021 0.08643711
v 0.0294606 0.006600021 0.08643711
v 0.0294606 -1.521968E-08 0.06180576
v 0.1453664 0.006600097 0.06357456
v 0.0294606 0.006600174 0.06357456
v 0.1453664 -1.521968E-08 0.06180576
v 0.0294606 -0.006600204 0.06357456
v 0.1453664 -0.006600128 0.06357456
v 0.0294606 -0.01143175 0.06840733
v 0.1453664 -0.006600128 0.06357456
v 0.0294606 -0.006600204 0.06357456
v 0.1453664 -0.01143159 0.06840611
v 0.0294606 -0.01320009 0.07500645
v 0.1453664 -0.01320009 0.07500645
v 0.0294606 -0.01143213 0.08160312
v 0.1453664 -0.01143182 0.08160435
v 0.0294606 -0.006600052 0.08643711
v 0.1453664 -0.006600052 0.08643711
v 0.0294606 -1.521968E-08 0.08820591
v 0.1453664 -0.006600052 0.08643711
v 0.0294606 -0.006600052 0.08643711
v 0.1453664 -1.521968E-08 0.08820591
v 0.0294606 0.006600021 0.08643711
v 0.1453664 0.006600021 0.08643711
v 0.1507179 0.01143156 0.06840611
v 0.1507179 0.006600097 0.06357456
v 0.1652419 0.006600021 0.06357456
v 0.1652419 0.01143149 0.06840611
v 0.1652419 0.01319998 0.07500645
v 0.1507179 0.01320006 0.07500645
v 0.1652419 0.01143149 0.08160557
v 0.1507179 0.01143149 0.08160557
v 0.1652419 0.006600021 0.08643711
v 0.1507179 0.006600021 0.08643711
v 0.1507179 -1.521968E-08 0.06180576
v 0.1652419 0.006600021 0.06357456
v 0.1507179 0.006600097 0.06357456
v 0.1652419 -1.521968E-08 0.06180576
v 0.1507179 -0.006600128 0.06357456
v 0.1652419 -0.006600052 0.06357456
v 0.1507179 -0.01143159 0.06840611
v 0.1652419 -0.006600052 0.06357456
v 0.1507179 -0.006600128 0.06357456
v 0.1652419 -0.01143152 0.06840611
v 0.1507179 -0.01320009 0.07500645
v 0.1652419 -0.01320001 0.07500645
v 0.1507179 -0.01143182 0.08160435
v 0.1652419 -0.01143152 0.08160557
v 0.1507179 -0.006600052 0.08643711
v 0.1652419 -0.006600052 0.08643711
v 0.1507179 -1.521968E-08 0.08820591
v 0.1652419 -0.006600052 0.08643711
v 0.1507179 -0.006600052 0.08643711
v 0.1652419 -1.521968E-08 0.08820591
v 0.1507179 0.006600021 0.08643711
v 0.1652419 0.006600021 0.08643711
v -0.03720566 -0.008741776 -0.06995815
v -0.04220566 -0.005047547 -0.0662643
v -0.03720566 -0.005047241 -0.0662643
v -0.04220566 -0.008741776 -0.06995815
v -0.03720566 -0.01009416 -0.07500575
v -0.04220566 -0.01009416 -0.07500575
v -0.03720566 -0.008741776 -0.08005337
v -0.04220566 -0.008742386 -0.08005337
v -0.03720566 -0.005047089 -0.08374844
v -0.04220566 -0.005047699 -0.08374844
v -0.03720566 -1.521968E-08 -0.06491177
v -0.04220566 0.00504721 -0.0662643
v -0.03720566 0.00504721 -0.0662643
v -0.04220566 -3.203954E-07 -0.06491177
v -0.03720566 -0.005047241 -0.0662643
v -0.04220566 -0.005047547 -0.0662643
v -0.03720566 0.00504721 -0.0662643
v -0.04220566 0.00504721 -0.0662643
v -0.04220566 0.008741745 -0.06995815
v -0.03720566 0.008741745 -0.06995815
v -0.04220566 0.01009474 -0.07500575
v -0.03720566 0.01009413 -0.07500575
v -0.04220566 0.008742355 -0.08005337
v -0.03720566 0.008741745 -0.08005337
v -0.04220566 0.005047058 -0.08374844
v -0.03720566 0.005047058 -0.08374844
v -0.03720566 0.005047058 -0.08374844
v -0.04220566 0.005047058 -0.08374844
v -0.04220566 -1.521968E-08 -0.08510097
v -0.03720566 -1.521968E-08 -0.08510097
v -0.04220566 -0.005047699 -0.08374844
v -0.03720566 -0.005047089 -0.08374844
v -0.03720566 -0.005047089 0.06626377
v -0.04220566 -0.005047699 0.06626377
v -0.04220566 -0.008742386 0.06995884
v -0.03720566 -0.008741776 0.06995884
v -0.04220566 -0.01009416 0.07500645
v -0.03720566 -0.01009416 0.07500645
v -0.04220566 -0.008741852 0.08005283
v -0.03720566 -0.008741852 0.08005283
v -0.04220566 -0.005047089 0.0837479
v -0.03720566 -0.005047089 0.0837479
v -0.03720566 -1.521968E-08 0.06491123
v -0.04220566 -0.005047699 0.06626377
v -0.03720566 -0.005047089 0.06626377
v -0.04220566 2.899561E-07 0.06491123
v -0.03720566 0.005047058 0.06626377
v -0.04220566 0.005047363 0.06626377
v -0.03720566 0.008741745 0.06995884
v -0.04220566 0.005047363 0.06626377
v -0.03720566 0.005047058 0.06626377
v -0.04220566 0.008742355 0.06995884
v -0.03720566 0.01009413 0.07500645
v -0.04220566 0.01009474 0.07500645
v -0.03720566 0.008741821 0.08005283
v -0.04220566 0.008741821 0.08005283
v -0.03720566 0.005047058 0.0837479
v -0.04220566 0.005047058 0.0837479
v -0.03720566 -0.005047089 0.0837479
v -0.04220566 -0.005047089 0.0837479
v -0.04220566 -1.521968E-08 0.08510044
v -0.03720566 -1.521968E-08 0.08510044
v -0.04220566 0.005047058 0.0837479
v -0.03720566 0.005047058 0.0837479
v 0.1652419 -0.01143152 -0.06840542
v 0.1652419 -0.006600052 -0.06357387
v 0.1652419 -1.521968E-08 -0.07500575
v 0.1652419 -0.01320001 -0.07500575
v 0.1652419 -1.521968E-08 -0.0618063
v 0.1652419 -0.01143152 -0.0816061
v 0.1652419 0.006600021 -0.06357387
v 0.1652419 -0.006600052 -0.08643764
v 0.1652419 0.01143149 -0.06840542
v 0.1652419 -1.521968E-08 -0.08820644
v 0.1652419 0.01319998 -0.07500575
v 0.1652419 0.006600021 -0.08643764
v 0.1652419 0.01143149 -0.0816061
v 0.1652419 -0.01143152 0.06840611
v 0.1652419 -0.01320001 0.07500645
v 0.1652419 -1.521968E-08 0.07500645
v 0.1652419 -0.006600052 0.06357456
v 0.1652419 -0.01143152 0.08160557
v 0.1652419 -1.521968E-08 0.06180576
v 0.1652419 -0.006600052 0.08643711
v 0.1652419 0.006600021 0.06357456
v 0.1652419 -1.521968E-08 0.08820591
v 0.1652419 0.01143149 0.06840611
v 0.1652419 0.006600021 0.08643711
v 0.1652419 0.01319998 0.07500645
v 0.1652419 0.01143149 0.08160557
v -0.04220566 -1.521968E-08 -0.07500575
v -0.04220566 -0.008741776 -0.06995815
v -0.04220566 -0.01009416 -0.07500575
v -0.04220566 -0.005047547 -0.0662643
v -0.04220566 -0.008742386 -0.08005337
v -0.04220566 -3.203954E-07 -0.06491177
v -0.04220566 -0.005047699 -0.08374844
v -0.04220566 0.00504721 -0.0662643
v -0.04220566 -1.521968E-08 -0.08510097
v -0.04220566 0.008741745 -0.06995815
v -0.04220566 0.005047058 -0.08374844
v -0.04220566 0.01009474 -0.07500575
v -0.04220566 0.008742355 -0.08005337
v -0.04220566 -1.521968E-08 0.07500645
v -0.04220566 -0.008742386 0.06995884
v -0.04220566 -0.005047699 0.06626377
v -0.04220566 -0.01009416 0.07500645
v -0.04220566 2.899561E-07 0.06491123
v -0.04220566 -0.008741852 0.08005283
v -0.04220566 0.005047363 0.06626377
v -0.04220566 -0.005047089 0.0837479
v -0.04220566 0.008742355 0.06995884
v -0.04220566 -1.521968E-08 0.08510044
v -0.04220566 0.01009474 0.07500645
v -0.04220566 0.005047058 0.0837479
v -0.04220566 0.008741821 0.08005283
v -0.03720566 -0.01320001 -0.07500575
v -0.03720566 -0.01009416 -0.07500575
v -0.03720566 -0.008741776 -0.06995815
v -0.03720566 -0.01143152 -0.06840542
v -0.03720566 -0.01143152 -0.0816061
v -0.03720566 -0.005047241 -0.0662643
v -0.03720566 -0.008741776 -0.08005337
v -0.03720566 -0.006600052 -0.06357387
v -0.03720566 -0.006600052 -0.08643764
v -0.03720566 -1.521968E-08 -0.06491177
v -0.03720566 -0.005047089 -0.08374844
v -0.03720566 -1.521968E-08 -0.0618063
v -0.03720566 -1.521968E-08 -0.08820644
v -0.03720566 0.00504721 -0.0662643
v -0.03720566 -1.521968E-08 -0.08510097
v -0.03720566 0.006600021 -0.06357387
v -0.03720566 0.006600021 -0.08643764
v -0.03720566 0.008741745 -0.06995815
v -0.03720566 0.005047058 -0.08374844
v -0.03720566 0.01143149 -0.06840542
v -0.03720566 0.01143149 -0.0816061
v -0.03720566 0.01009413 -0.07500575
v -0.03720566 0.008741745 -0.08005337
v -0.03720566 0.01319998 -0.07500575
v -0.03720566 -0.006600052 0.06357456
v -0.03720566 -0.005047089 0.06626377
v -0.03720566 -0.008741776 0.06995884
v -0.03720566 -0.01143152 0.06840611
v -0.03720566 -1.521968E-08 0.06180576
v -0.03720566 -0.01009416 0.07500645
v -0.03720566 -1.521968E-08 0.06491123
v -0.03720566 -0.01320001 0.07500645
v -0.03720566 0.006600021 0.06357456
v -0.03720566 -0.008741852 0.08005283
v -0.03720566 0.005047058 0.06626377
v -0.03720566 -0.01143152 0.08160557
v -0.03720566 0.01143149 0.06840611
v -0.03720566 -0.005047089 0.0837479
v -0.03720566 0.008741745 0.06995884
v -0.03720566 -0.006600052 0.08643711
v -0.03720566 0.01319998 0.07500645
v -0.03720566 -1.521968E-08 0.08510044
v -0.03720566 0.01009413 0.07500645
v -0.03720566 -1.521968E-08 0.08820591
v -0.03720566 0.01143149 0.08160557
v -0.03720566 0.005047058 0.0837479
v -0.03720566 0.008741821 0.08005283
v -0.03720566 0.006600021 0.08643711
v 0.02410904 0.01143172 -0.06840663
v 0.02410904 0.01320013 -0.07500575
v 0.02410904 0.01112952 -0.07500575
v 0.02410904 0.009638503 -0.0694418
v 0.02410904 0.009638427 -0.08057094
v 0.02410904 0.006600174 -0.0635751
v 0.02410904 0.01143149 -0.0816061
v 0.02410904 0.005564788 -0.06536709
v 0.02410904 0.005564712 -0.08464443
v 0.02410904 -1.521968E-08 -0.0618063
v 0.02410904 0.006600021 -0.08643764
v 0.02410904 -1.521968E-08 -0.06387661
v 0.02410904 6.107427E-08 -0.08613491
v 0.02410904 -0.006600204 -0.0635751
v 0.02410904 -1.521968E-08 -0.08820644
v 0.02410904 -0.005564743 -0.06536709
v 0.02410904 -0.00556459 -0.08464443
v 0.02410904 -0.01143175 -0.06840663
v 0.02410904 -0.006600052 -0.08643764
v 0.02410904 -0.009638535 -0.0694418
v 0.02410904 -0.009638916 -0.0805685
v 0.02410904 -0.01320009 -0.07500575
v 0.02410904 -0.01143213 -0.08160366
v 0.02410904 -0.01112955 -0.07500575
v 0.0294606 0.01320013 -0.07500575
v 0.0294606 0.01143172 -0.06840663
v 0.0294606 0.00963858 -0.0694418
v 0.0294606 0.01112959 -0.07500575
v 0.0294606 0.005564788 -0.06536709
v 0.0294606 0.01143149 -0.0816061
v 0.0294606 0.006600174 -0.0635751
v 0.0294606 0.009638351 -0.08057094
v 0.0294606 -1.521968E-08 -0.06387661
v 0.0294606 0.006600021 -0.08643764
v 0.0294606 -1.521968E-08 -0.0618063
v 0.0294606 0.005564712 -0.08464443
v 0.0294606 -0.00556482 -0.06536709
v 0.0294606 -1.521968E-08 -0.08820644
v 0.0294606 -0.006600204 -0.0635751
v 0.0294606 -1.521968E-08 -0.08613491
v 0.0294606 -0.009638535 -0.0694418
v 0.0294606 -0.006600052 -0.08643764
v 0.0294606 -0.01143175 -0.06840663
v 0.0294606 -0.005564438 -0.08464443
v 0.0294606 -0.01112955 -0.07500575
v 0.0294606 -0.01143213 -0.08160366
v 0.0294606 -0.01320009 -0.07500575
v 0.0294606 -0.009638916 -0.0805685
v 0.1453664 0.01143156 -0.06840663
v 0.1453664 0.01320006 -0.07500575
v 0.1453664 0.01112952 -0.07500575
v 0.1453664 0.009638427 -0.0694418
v 0.1453664 0.009638351 -0.08057094
v 0.1453664 0.006600097 -0.06357387
v 0.1453664 0.01143149 -0.0816061
v 0.1453664 0.005564788 -0.06536709
v 0.1453664 0.005564712 -0.08464443
v 0.1453664 -1.521968E-08 -0.0618063
v 0.1453664 0.006600021 -0.08643764
v 0.1453664 -1.521968E-08 -0.06387661
v 0.1453664 -9.151362E-08 -0.08613491
v 0.1453664 -0.006600128 -0.06357387
v 0.1453664 -1.521968E-08 -0.08820644
v 0.1453664 -0.005564896 -0.06536709
v 0.1453664 -0.005564667 -0.08464443
v 0.1453664 -0.01143159 -0.06840663
v 0.1453664 -0.006600052 -0.08643764
v 0.1453664 -0.009638535 -0.0694418
v 0.1453664 -0.009638611 -0.08056972
v 0.1453664 -0.01320009 -0.07500575
v 0.1453664 -0.01143182 -0.08160488
v 0.1453664 -0.01112955 -0.07500575
v 0.1507179 0.01320006 -0.07500575
v 0.1507179 0.01143156 -0.06840663
v 0.1507179 0.009638427 -0.0694418
v 0.1507179 0.01112952 -0.07500575
v 0.1507179 0.005564636 -0.06536709
v 0.1507179 0.01143149 -0.0816061
v 0.1507179 0.006600097 -0.06357387
v 0.1507179 0.009638351 -0.08057094
v 0.1507179 -1.521968E-08 -0.06387661
v 0.1507179 0.006600021 -0.08643764
v 0.1507179 -1.521968E-08 -0.0618063
v 0.1507179 0.005564712 -0.08464443
v 0.1507179 -0.00556482 -0.06536709
v 0.1507179 -1.521968E-08 -0.08820644
v 0.1507179 -0.006600128 -0.06357387
v 0.1507179 -1.521968E-08 -0.08613491
v 0.1507179 -0.009638458 -0.0694418
v 0.1507179 -0.006600052 -0.08643764
v 0.1507179 -0.01143159 -0.06840663
v 0.1507179 -0.005564667 -0.08464443
v 0.1507179 -0.01112955 -0.07500575
v 0.1507179 -0.01143182 -0.08160488
v 0.1507179 -0.01320009 -0.07500575
v 0.1507179 -0.009638611 -0.08056972
v 0.02410904 0.01143172 0.06840733
v 0.02410904 0.009638503 0.06944248
v 0.02410904 0.01112952 0.07500645
v 0.02410904 0.01320013 0.07500645
v 0.02410904 0.006600174 0.06357456
v 0.02410904 0.009638427 0.08057041
v 0.02410904 0.005564788 0.06536777
v 0.02410904 0.01143149 0.08160557
v 0.02410904 -1.521968E-08 0.06180576
v 0.02410904 0.005564712 0.08464389
v 0.02410904 -1.521968E-08 0.06387608
v 0.02410904 0.006600021 0.08643711
v 0.02410904 -0.006600204 0.06357456
v 0.02410904 6.107427E-08 0.0861356
v 0.02410904 -0.005564743 0.06536777
v 0.02410904 -1.521968E-08 0.08820591
v 0.02410904 -0.01143175 0.06840733
v 0.02410904 -0.00556459 0.08464389
v 0.02410904 -0.009638535 0.06944248
v 0.02410904 -0.006600052 0.08643711
v 0.02410904 -0.01320009 0.07500645
v 0.02410904 -0.009638916 0.08056797
v 0.02410904 -0.01112955 0.07500645
v 0.02410904 -0.01143213 0.08160312
v 0.0294606 0.01320013 0.07500645
v 0.0294606 0.01112959 0.07500645
v 0.0294606 0.00963858 0.06944248
v 0.0294606 0.01143172 0.06840733
v 0.0294606 0.01143149 0.08160557
v 0.0294606 0.005564788 0.06536777
v 0.0294606 0.009638351 0.08057041
v 0.0294606 0.006600174 0.06357456
v 0.0294606 0.006600021 0.08643711
v 0.0294606 -1.521968E-08 0.06387608
v 0.0294606 0.005564712 0.08464389
v 0.0294606 -1.521968E-08 0.06180576
v 0.0294606 -1.521968E-08 0.08820591
v 0.0294606 -0.00556482 0.06536777
v 0.0294606 -1.521968E-08 0.0861356
v 0.0294606 -0.006600204 0.06357456
v 0.0294606 -0.006600052 0.08643711
v 0.0294606 -0.009638535 0.06944248
v 0.0294606 -0.005564438 0.08464389
v 0.0294606 -0.01143175 0.06840733
v 0.0294606 -0.01143213 0.08160312
v 0.0294606 -0.01112955 0.07500645
v 0.0294606 -0.009638916 0.08056919
v 0.0294606 -0.01320009 0.07500645
v 0.1453664 0.01143156 0.06840611
v 0.1453664 0.009638427 0.06944126
v 0.1453664 0.01112952 0.07500645
v 0.1453664 0.01320006 0.07500645
v 0.1453664 0.006600097 0.06357456
v 0.1453664 0.009638351 0.08057041
v 0.1453664 0.005564788 0.06536777
v 0.1453664 0.01143149 0.08160557
v 0.1453664 -1.521968E-08 0.06180576
v 0.1453664 0.005564712 0.08464389
v 0.1453664 -1.521968E-08 0.06387608
v 0.1453664 0.006600021 0.08643711
v 0.1453664 -0.006600128 0.06357456
v 0.1453664 -9.151362E-08 0.0861356
v 0.1453664 -0.005564896 0.06536777
v 0.1453664 -1.521968E-08 0.08820591
v 0.1453664 -0.01143159 0.06840611
v 0.1453664 -0.005564667 0.08464389
v 0.1453664 -0.009638535 0.06944126
v 0.1453664 -0.006600052 0.08643711
v 0.1453664 -0.01320009 0.07500645
v 0.1453664 -0.009638611 0.08056919
v 0.1453664 -0.01112955 0.07500645
v 0.1453664 -0.01143182 0.08160435
v 0.1507179 0.01320006 0.07500645
v 0.1507179 0.01112952 0.07500645
v 0.1507179 0.009638427 0.06944126
v 0.1507179 0.01143156 0.06840611
v 0.1507179 0.01143149 0.08160557
v 0.1507179 0.005564636 0.06536777
v 0.1507179 0.009638351 0.08057041
v 0.1507179 0.006600097 0.06357456
v 0.1507179 0.006600021 0.08643711
v 0.1507179 -1.521968E-08 0.06387608
v 0.1507179 0.005564712 0.08464389
v 0.1507179 -1.521968E-08 0.06180576
v 0.1507179 -1.521968E-08 0.08820591
v 0.1507179 -0.00556482 0.06536777
v 0.1507179 -1.521968E-08 0.0861356
v 0.1507179 -0.006600128 0.06357456
v 0.1507179 -0.006600052 0.08643711
v 0.1507179 -0.009638458 0.06944126
v 0.1507179 -0.005564667 0.08464389
v 0.1507179 -0.01143159 0.06840611
v 0.1507179 -0.01143182 0.08160435
v 0.1507179 -0.01112955 0.07500645
v 0.1507179 -0.009638611 0.08056919
v 0.1507179 -0.01320009 0.07500645
vt -9.379456 0.7859346
vt -9.368962 0.7477745
vt -9.379457 0.7449625
vt -9.368962 0.7859346
vt -9.35847 0.7449625
vt -9.35847 0.7859346
vt -9.938986 0.1982718
vt -9.938986 0.2062674
vt -9.896338 0.2062656
vt -9.888343 0.1982682
vt -9.938986 0.1873503
vt -9.877419 0.1873503
vt -9.938986 0.1764279
vt -9.877419 0.176436
vt -9.938986 0.1684332
vt -9.877419 0.1684332
vt -9.837524 0.1764324
vt -9.837524 0.1684332
vt -9.837524 0.1873503
vt -9.866494 0.1982682
vt -9.837524 0.19827
vt -9.8585 0.2062656
vt -9.837524 0.2062656
vt -9.711831 0.4166682
vt -9.661188 0.4246684
vt -9.669184 0.4166701
vt -9.711831 0.4246629
vt -9.650264 0.4355863
vt -9.711831 0.4355863
vt -9.650264 0.4465079
vt -9.711831 0.4465079
vt -9.650264 0.4545026
vt -9.711831 0.4545026
vt -9.61037 0.4545026
vt -9.61037 0.4465079
vt -9.61037 0.4355863
vt -9.61037 0.4246647
vt -9.639339 0.4246684
vt -9.61037 0.4166701
vt -9.631345 0.4166701
vt -9.514272 0.3557427
vt -9.522542 0.1298176
vt -9.522542 0.3640146
vt -9.514272 0.1380914
vt -9.502973 0.352715
vt -9.502973 0.1411191
vt -9.491675 0.3557427
vt -9.491675 0.1380914
vt -9.483404 0.3640146
vt -9.483404 0.1298176
vt -9.433311 0.1298161
vt -9.433311 0.3640201
vt -9.425041 0.3557462
vt -9.425041 0.13809
vt -9.413743 0.3527184
vt -9.413743 0.1411178
vt -9.402445 0.3557462
vt -9.402445 0.13809
vt -9.394175 0.3640201
vt -9.394175 0.1298161
vt -9.31295 0.5794445
vt -9.302457 0.5794445
vt -9.302457 0.5202954
vt -9.31295 0.5202954
vt -9.323443 0.5794445
vt -9.302457 0.4819683
vt -9.323443 0.5202954
vt -9.31295 0.4819683
vt -9.323443 0.4819683
vt -9.177592 0.9507354
vt -9.168452 0.9437753
vt -9.177592 0.9437753
vt -9.168452 0.9507354
vt -9.177592 0.9602399
vt -9.168452 0.9602399
vt -9.177592 0.9697445
vt -9.168452 0.9697445
vt -9.177592 0.9767028
vt -9.168452 0.9767028
vt -9.791903 0.8506753
vt -9.783393 0.8506753
vt -9.783393 0.8418255
vt -9.791903 0.8418255
vt -9.783393 0.8329748
vt -9.791903 0.8329756
vt -9.202862 0.9767014
vt -9.19372 0.9767014
vt -9.19372 0.9697421
vt -9.202862 0.9697421
vt -9.19372 0.9602385
vt -9.202862 0.9602385
vt -9.19372 0.9507368
vt -9.202862 0.9507368
vt -9.19372 0.9437747
vt -9.202862 0.9437747
vt -9.817167 0.850659
vt -9.808666 0.850659
vt -9.808666 0.8418202
vt -9.817167 0.8418202
vt -9.808666 0.8329814
vt -9.817167 0.8329814
vt -9.22813 0.9507313
vt -9.218987 0.943768
vt -9.22813 0.943768
vt -9.218987 0.9507313
vt -9.22813 0.9602399
vt -9.218987 0.9602399
vt -9.22813 0.9697486
vt -9.218987 0.9697486
vt -9.22813 0.97671
vt -9.218987 0.97671
vt -9.84244 0.8506735
vt -9.833929 0.8506735
vt -9.833929 0.8418235
vt -9.84244 0.8418235
vt -9.833929 0.8329727
vt -9.84244 0.8329727
vt -9.253396 0.9767045
vt -9.244254 0.9767045
vt -9.244254 0.969744
vt -9.253396 0.969744
vt -9.244254 0.9602385
vt -9.253396 0.9602385
vt -9.244254 0.950733
vt -9.253396 0.950733
vt -9.244254 0.9437715
vt -9.253396 0.9437715
vt -9.867708 0.8506741
vt -9.859194 0.8506741
vt -9.859194 0.8418202
vt -9.867708 0.8418202
vt -9.859194 0.8329662
vt -9.867708 0.8329662
vt -9.705044 0.8455326
vt -9.687705 0.8350411
vt -9.707853 0.8350402
vt -9.687705 0.8455326
vt -9.707853 0.8560241
vt -9.687705 0.8560241
vt -9.335781 0.3084892
vt -9.344036 0.1104791
vt -9.344035 0.3084892
vt -9.335781 0.1104791
vt -9.324506 0.1104791
vt -9.324506 0.3084892
vt -9.313231 0.1104791
vt -9.313231 0.3084892
vt -9.304977 0.1104791
vt -9.304977 0.3084892
vt -9.252574 0.301621
vt -9.242081 0.301621
vt -9.242081 0.1173473
vt -9.252574 0.1173473
vt -9.263067 0.301621
vt -9.263067 0.1173473
vt -9.169686 0.308489
vt -9.161431 0.308489
vt -9.16143 0.1104793
vt -9.169686 0.1104793
vt -9.180959 0.308489
vt -9.180959 0.1104793
vt -9.19223 0.308489
vt -9.192232 0.1104793
vt -9.200489 0.308489
vt -9.200489 0.1104793
vt -9.109026 0.3016207
vt -9.098534 0.3016207
vt -9.098534 0.1173437
vt -9.109026 0.1173437
vt -9.119519 0.3016207
vt -9.119519 0.1173437
vt -9.27037 0.8695504
vt -9.245557 0.8612944
vt -9.27037 0.8612944
vt -9.245557 0.8695485
vt -9.245557 0.8808264
vt -9.27037 0.8808264
vt -9.245557 0.8921024
vt -9.27037 0.8921024
vt -9.245557 0.9003566
vt -9.27037 0.9003566
vt -9.485248 0.8594442
vt -9.474758 0.8594442
vt -9.474758 0.8363599
vt -9.485248 0.8363599
vt -9.495737 0.8594442
vt -9.495737 0.8363599
vt -9.212174 0.8920993
vt -9.212174 0.9003559
vt -9.187362 0.9003559
vt -9.187362 0.8921011
vt -9.212174 0.8808255
vt -9.187362 0.8808255
vt -9.212174 0.8695517
vt -9.187362 0.8695489
vt -9.212174 0.861295
vt -9.187362 0.861295
vt -9.538615 0.8594415
vt -9.528125 0.8594415
vt -9.528125 0.8363548
vt -9.538615 0.8363548
vt -9.549106 0.8594415
vt -9.549106 0.8363548
vt -9.304155 0.7110481
vt -9.304155 0.6700722
vt -9.314649 0.6728845
vt -9.314649 0.7110481
vt -9.325142 0.6700722
vt -9.325142 0.7110481
vt -9.877419 0.1873503
vt -9.888343 0.1982682
vt -9.888343 0.4246672
vt -9.877419 0.4355851
vt -9.866494 0.1982682
vt -9.866494 0.4246672
vt -9.938986 0.4246631
vt -9.896338 0.4166681
vt -9.938986 0.4166681
vt -9.888343 0.4246672
vt -9.938986 0.4355851
vt -9.877419 0.4355851
vt -9.938986 0.4465053
vt -9.877419 0.4464994
vt -9.938986 0.4545004
vt -9.877419 0.4545004
vt -9.837524 0.4465012
vt -9.837524 0.4545004
vt -9.837524 0.4355851
vt -9.866494 0.4246672
vt -9.837524 0.4246654
vt -9.8585 0.4166681
vt -9.837524 0.4166681
vt -9.661188 0.4246684
vt -9.650264 0.1873492
vt -9.661188 0.1982672
vt -9.650264 0.4355863
vt -9.639339 0.1982672
vt -9.639339 0.4246684
vt -9.711831 0.2062655
vt -9.669184 0.2062655
vt -9.661188 0.1982672
vt -9.711831 0.1982708
vt -9.650264 0.1873492
vt -9.711831 0.1873492
vt -9.650264 0.1764294
vt -9.711831 0.1764294
vt -9.650264 0.168433
vt -9.711831 0.168433
vt -9.61037 0.168433
vt -9.61037 0.1764294
vt -9.61037 0.1873492
vt -9.61037 0.198269
vt -9.639339 0.1982672
vt -9.61037 0.2062655
vt -9.631345 0.2062655
vt -9.366318 0.6543177
vt -9.376811 0.5951647
vt -9.376811 0.6543177
vt -9.366318 0.5951647
vt -9.355824 0.6543177
vt -9.376811 0.5568346
vt -9.355824 0.5951647
vt -9.366318 0.5568346
vt -9.355824 0.5568346
vt -9.278665 0.9697405
vt -9.278665 0.9767033
vt -9.269521 0.9767033
vt -9.269521 0.9697405
vt -9.278665 0.9602342
vt -9.269521 0.9602342
vt -9.278665 0.9507259
vt -9.269521 0.9507259
vt -9.278665 0.9437668
vt -9.269521 0.9437668
vt -9.892972 0.8329765
vt -9.884467 0.8418202
vt -9.884467 0.8329765
vt -9.892972 0.8418202
vt -9.884467 0.8506638
vt -9.892972 0.8506638
vt -9.303933 0.7587116
vt -9.294789 0.7656724
vt -9.294789 0.7587116
vt -9.303933 0.7656724
vt -9.294789 0.775177
vt -9.303933 0.775177
vt -9.294789 0.7846803
vt -9.303933 0.784678
vt -9.294789 0.7916411
vt -9.303933 0.7916411
vt -9.918242 0.8329749
vt -9.909734 0.8418221
vt -9.909734 0.8329749
vt -9.918242 0.8418221
vt -9.909734 0.8506693
vt -9.918242 0.8506693
vt -9.329201 0.7846835
vt -9.329201 0.7916446
vt -9.320057 0.7916446
vt -9.320057 0.7846835
vt -9.329201 0.775175
vt -9.320057 0.775175
vt -9.329201 0.7656665
vt -9.320057 0.7656665
vt -9.329201 0.7587072
vt -9.320057 0.7587072
vt -9.94351 0.8329723
vt -9.935001 0.8418202
vt -9.935001 0.8329723
vt -9.94351 0.8418202
vt -9.935001 0.8506681
vt -9.94351 0.8506681
vt -9.354467 0.8335987
vt -9.345325 0.8405581
vt -9.345325 0.8335987
vt -9.354467 0.8405581
vt -9.345325 0.8500664
vt -9.354467 0.8500664
vt -9.345325 0.859571
vt -9.354467 0.859571
vt -9.345325 0.8665327
vt -9.354467 0.8665327
vt -9.968779 0.8329714
vt -9.960266 0.8418221
vt -9.960266 0.8329714
vt -9.968779 0.8418221
vt -9.960266 0.8506729
vt -9.968779 0.8506729
vt -9.756536 0.8455273
vt -9.759345 0.8560196
vt -9.739194 0.8560196
vt -9.739194 0.8455273
vt -9.759345 0.835035
vt -9.739194 0.835035
vt -9.036315 0.7274353
vt -9.028059 0.7274353
vt -9.028059 0.5294253
vt -9.036313 0.5294253
vt -9.047588 0.5294253
vt -9.047588 0.7274353
vt -9.058862 0.5294253
vt -9.058862 0.7274353
vt -9.067117 0.5294253
vt -9.067117 0.7274353
vt -9.118253 0.7205723
vt -9.128746 0.5363001
vt -9.128746 0.7205723
vt -9.118253 0.5363001
vt -9.107759 0.7205723
vt -9.107759 0.5363001
vt -9.200191 0.727438
vt -9.208447 0.5294304
vt -9.208447 0.727438
vt -9.200192 0.5294304
vt -9.188917 0.727438
vt -9.188917 0.5294304
vt -9.177648 0.727438
vt -9.177645 0.5294304
vt -9.16939 0.727438
vt -9.16939 0.5294304
vt -9.259583 0.7205727
vt -9.270076 0.5362958
vt -9.270076 0.7205727
vt -9.259583 0.5362958
vt -9.24909 0.7205727
vt -9.24909 0.5362958
vt -9.153981 0.8921003
vt -9.153981 0.900355
vt -9.129167 0.900355
vt -9.129167 0.8921003
vt -9.129167 0.8808236
vt -9.153981 0.8808236
vt -9.129167 0.8695486
vt -9.153981 0.8695486
vt -9.129167 0.8612921
vt -9.153981 0.8612921
vt -9.591983 0.8594437
vt -9.602475 0.8363526
vt -9.602475 0.8594437
vt -9.591983 0.8363526
vt -9.581491 0.8594437
vt -9.581491 0.8363526
vt -9.095783 0.8695452
vt -9.070972 0.8612915
vt -9.095783 0.8612915
vt -9.070972 0.8695452
vt -9.095783 0.8808206
vt -9.070972 0.8808206
vt -9.095783 0.8920921
vt -9.070972 0.892094
vt -9.095783 0.9003478
vt -9.070972 0.9003478
vt -9.645351 0.8594484
vt -9.655844 0.8363557
vt -9.655844 0.8594484
vt -9.645351 0.8363557
vt -9.634857 0.8594484
vt -9.634857 0.8363557
vt -9.370263 0.8554816
vt -9.378804 0.8617925
vt -9.370263 0.8617925
vt -9.378804 0.8554816
vt -9.370263 0.8468586
vt -9.378804 0.8468586
vt -9.370263 0.8382356
vt -9.378804 0.8382356
vt -9.370263 0.8319229
vt -9.378804 0.8319229
vt -9.98509 0.8399699
vt -9.993044 0.847999
vt -9.98509 0.847999
vt -9.993044 0.8399691
vt -9.98509 0.83194
vt -9.993044 0.83194
vt -9.39427 0.8382651
vt -9.402813 0.8382651
vt -9.402813 0.8445761
vt -9.39427 0.8445761
vt -9.402813 0.8532002
vt -9.39427 0.8532002
vt -9.402813 0.8618224
vt -9.39427 0.8618224
vt -9.402813 0.8681353
vt -9.39427 0.8681353
vt -9.959682 0.8757654
vt -9.967628 0.8757654
vt -9.967628 0.8837844
vt -9.959682 0.8837844
vt -9.967628 0.8918068
vt -9.959682 0.8918068
vt -9.41828 0.8382622
vt -9.426823 0.8382622
vt -9.426823 0.8445763
vt -9.41828 0.8445763
vt -9.426823 0.8532012
vt -9.41828 0.8532012
vt -9.426823 0.8618246
vt -9.41828 0.8618246
vt -9.426823 0.8681382
vt -9.41828 0.8681382
vt -9.934463 0.8837765
vt -9.942412 0.8918033
vt -9.934463 0.8918033
vt -9.942412 0.8837765
vt -9.934463 0.8757532
vt -9.942412 0.8757532
vt -9.442288 0.8618229
vt -9.45083 0.8681328
vt -9.442288 0.8681328
vt -9.45083 0.8618229
vt -9.442288 0.8532002
vt -9.45083 0.8532002
vt -9.442288 0.8445794
vt -9.45083 0.8445794
vt -9.442288 0.8382676
vt -9.45083 0.8382676
vt -9.909244 0.8757609
vt -9.917195 0.8757609
vt -9.917195 0.8837895
vt -9.909244 0.8837895
vt -9.917195 0.8918171
vt -9.909244 0.8918171
vt -9.453631 0.5252115
vt -9.461182 0.5327613
vt -9.443317 0.543074
vt -9.443317 0.5224486
vt -9.463943 0.543074
vt -9.433004 0.5252115
vt -9.461182 0.5533866
vt -9.425456 0.5327613
vt -9.453631 0.5609356
vt -9.422691 0.543074
vt -9.443317 0.5636993
vt -9.425456 0.5533866
vt -9.433004 0.5609356
vt -9.936142 0.65431
vt -9.946454 0.6515473
vt -9.946454 0.6721714
vt -9.928594 0.6618593
vt -9.956764 0.65431
vt -9.92583 0.6721714
vt -9.964315 0.6618593
vt -9.928594 0.6824835
vt -9.967078 0.6721714
vt -9.936142 0.690032
vt -9.964315 0.6824835
vt -9.946454 0.6927956
vt -9.956764 0.690032
vt -9.042801 0.961862
vt -9.034915 0.9482045
vt -9.042801 0.9460919
vt -9.029144 0.9539765
vt -9.050686 0.9482037
vt -9.027032 0.9618611
vt -9.056459 0.9539756
vt -9.029144 0.9697466
vt -9.058572 0.961862
vt -9.034915 0.9755185
vt -9.056459 0.9697466
vt -9.042801 0.9776329
vt -9.050686 0.9755194
vt -9.121191 0.9618658
vt -9.129078 0.9482052
vt -9.134852 0.9539782
vt -9.121191 0.946093
vt -9.136965 0.9618658
vt -9.113306 0.9482061
vt -9.134852 0.9697527
vt -9.107533 0.953979
vt -9.129078 0.9755256
vt -9.105419 0.9618658
vt -9.121191 0.9776395
vt -9.107533 0.9697518
vt -9.113306 0.9755248
vt -9.547075 0.7500434
vt -9.547075 0.7548958
vt -9.539189 0.7570087
vt -9.536763 0.7528061
vt -9.557388 0.7528061
vt -9.533418 0.7627812
vt -9.554961 0.7570087
vt -9.529215 0.7603554
vt -9.564937 0.7603554
vt -9.531305 0.7706674
vt -9.560735 0.7627812
vt -9.526452 0.7706674
vt -9.5677 0.7706674
vt -9.533418 0.7785527
vt -9.562849 0.7706674
vt -9.529215 0.7809793
vt -9.564937 0.7809793
vt -9.539189 0.7843251
vt -9.560735 0.7785527
vt -9.536763 0.7885277
vt -9.557388 0.7885277
vt -9.547075 0.7864388
vt -9.554961 0.7843251
vt -9.547075 0.7912912
vt -9.464067 0.7603556
vt -9.459864 0.7627814
vt -9.454091 0.757009
vt -9.456517 0.7528065
vt -9.46683 0.7706674
vt -9.446205 0.7548962
vt -9.461977 0.7706674
vt -9.446205 0.7500438
vt -9.464067 0.7809792
vt -9.438321 0.757009
vt -9.459864 0.7785525
vt -9.435895 0.7528065
vt -9.456517 0.7885274
vt -9.432548 0.7627814
vt -9.454091 0.7843249
vt -9.428346 0.7603556
vt -9.446205 0.7912909
vt -9.430434 0.7706674
vt -9.446205 0.7864385
vt -9.425582 0.7706674
vt -9.435895 0.7885274
vt -9.432548 0.7785525
vt -9.438321 0.7843249
vt -9.428346 0.7809792
vt -9.554253 0.6900294
vt -9.543943 0.6927913
vt -9.543943 0.6895567
vt -9.552635 0.6872281
vt -9.535252 0.6872281
vt -9.561799 0.6824824
vt -9.533634 0.6900285
vt -9.559 0.680865
vt -9.528888 0.680865
vt -9.564562 0.6721734
vt -9.526088 0.6824824
vt -9.561326 0.6721734
vt -9.526563 0.6721734
vt -9.561799 0.6618644
vt -9.523325 0.6721734
vt -9.559 0.6634817
vt -9.528888 0.6634817
vt -9.554253 0.6543174
vt -9.526088 0.6618644
vt -9.552635 0.6571186
vt -9.535256 0.6571177
vt -9.543943 0.6515555
vt -9.533638 0.6543165
vt -9.543943 0.6547892
vt -9.64457 0.6928021
vt -9.634257 0.6900387
vt -9.635875 0.6872361
vt -9.64457 0.6895667
vt -9.629508 0.6808696
vt -9.654885 0.6900379
vt -9.626706 0.6824877
vt -9.653268 0.6872361
vt -9.627178 0.6721734
vt -9.662436 0.6824877
vt -9.623942 0.6721734
vt -9.659635 0.6808696
vt -9.629508 0.6634763
vt -9.6652 0.6721734
vt -9.626706 0.661859
vt -9.661963 0.6721734
vt -9.635875 0.6571106
vt -9.662436 0.661859
vt -9.634257 0.654308
vt -9.659635 0.6634772
vt -9.64457 0.6547801
vt -9.654881 0.6543071
vt -9.64457 0.6515447
vt -9.653263 0.6571098
vt -9.755513 0.6900372
vt -9.745199 0.6928012
vt -9.745199 0.6895651
vt -9.753895 0.6872355
vt -9.736503 0.6872355
vt -9.763063 0.6824873
vt -9.734885 0.6900372
vt -9.760262 0.6808693
vt -9.730137 0.6808693
vt -9.765827 0.6721734
vt -9.727336 0.6824873
vt -9.762591 0.6721734
vt -9.727808 0.6721734
vt -9.763063 0.6618595
vt -9.724571 0.6721734
vt -9.760262 0.6634767
vt -9.730137 0.6634775
vt -9.755513 0.6543087
vt -9.727336 0.6618595
vt -9.753895 0.6571113
vt -9.736505 0.6571113
vt -9.745199 0.6515455
vt -9.734887 0.6543087
vt -9.745199 0.6547808
vt -9.845825 0.6927923
vt -9.835518 0.6900292
vt -9.837133 0.6872285
vt -9.845825 0.6895573
vt -9.830769 0.6808644
vt -9.856135 0.6900292
vt -9.827967 0.6824819
vt -9.854519 0.6872285
vt -9.82844 0.6721714
vt -9.863685 0.6824819
vt -9.825206 0.6721714
vt -9.860883 0.6808644
vt -9.830769 0.6634777
vt -9.866446 0.6721714
vt -9.827967 0.6618609
vt -9.863212 0.6721714
vt -9.837133 0.6571144
vt -9.863685 0.6618609
vt -9.835518 0.6543128
vt -9.860883 0.6634785
vt -9.845825 0.6547847
vt -9.856134 0.6543128
vt -9.845825 0.6515505
vt -9.854517 0.6571144
vt -9.940449 0.788522
vt -9.942067 0.7857207
vt -9.950757 0.7880493
vt -9.950757 0.791284
vt -9.932901 0.7809747
vt -9.959449 0.7857207
vt -9.935701 0.7793573
vt -9.961065 0.7885212
vt -9.930138 0.7706654
vt -9.965811 0.7793573
vt -9.933372 0.7706654
vt -9.968614 0.7809747
vt -9.932901 0.7603561
vt -9.968142 0.7706654
vt -9.935701 0.7619734
vt -9.971376 0.7706654
vt -9.940449 0.7528088
vt -9.965811 0.7619734
vt -9.942067 0.7556101
vt -9.968614 0.7603561
vt -9.950757 0.7500468
vt -9.959443 0.7556093
vt -9.950757 0.7532807
vt -9.961061 0.7528079
vt -9.84969 0.7912971
vt -9.84969 0.7880613
vt -9.858387 0.7857303
vt -9.860005 0.7885334
vt -9.839376 0.7885326
vt -9.864756 0.7793629
vt -9.840994 0.7857303
vt -9.867558 0.7809812
vt -9.831825 0.7809812
vt -9.867087 0.7706654
vt -9.834627 0.7793629
vt -9.870323 0.7706654
vt -9.82906 0.7706654
vt -9.864756 0.7619671
vt -9.832296 0.7706654
vt -9.867558 0.7603496
vt -9.831825 0.7603496
vt -9.858387 0.7556005
vt -9.834627 0.7619679
vt -9.860005 0.7527974
vt -9.83938 0.7527965
vt -9.84969 0.7532696
vt -9.840996 0.7555996
vt -9.84969 0.7500337
vt -9.738508 0.7885282
vt -9.740126 0.785727
vt -9.748819 0.7880562
vt -9.748819 0.7912918
vt -9.730959 0.7809796
vt -9.757513 0.785727
vt -9.733761 0.7793618
vt -9.75913 0.7885282
vt -9.728196 0.7706674
vt -9.763877 0.7793618
vt -9.731429 0.7706674
vt -9.76668 0.7809796
vt -9.730959 0.7603551
vt -9.766209 0.7706674
vt -9.733761 0.7619721
vt -9.769444 0.7706674
vt -9.738508 0.7528057
vt -9.763877 0.7619729
vt -9.740126 0.7556077
vt -9.76668 0.7603551
vt -9.748819 0.7500429
vt -9.75751 0.7556077
vt -9.748819 0.7532776
vt -9.759128 0.7528057
vt -9.647948 0.7912916
vt -9.647948 0.788056
vt -9.656644 0.7857268
vt -9.65826 0.788528
vt -9.637638 0.788528
vt -9.663009 0.7793617
vt -9.639255 0.7857268
vt -9.66581 0.7809795
vt -9.630088 0.7809795
vt -9.665338 0.7706674
vt -9.63289 0.7793617
vt -9.668573 0.7706674
vt -9.627325 0.7706674
vt -9.663009 0.7619721
vt -9.63056 0.7706674
vt -9.66581 0.7603552
vt -9.630088 0.7603552
vt -9.656644 0.7556078
vt -9.63289 0.761973
vt -9.65826 0.7528058
vt -9.637639 0.7528058
vt -9.647948 0.7532778
vt -9.639256 0.7556078
vt -9.647948 0.750043
vn 0 0 1
vn 0 0 1
vn 0 0 1
vn 0 0 1
vn 0 0 1
vn 0 0 1
vn 0 0 1
vn 0 0 1
vn -1 0 0
vn -1 0 0
vn -1 0 0
vn -1 0 0
vn 1 0 0
vn 1 0 0
vn 1 0 0
vn 1 0 0
vn 1 0 0
vn 1 0 0
vn 1 0 0
vn 1 0 0
vn -1 0 0
vn -1 0 0
vn -1 0 0
vn -1 0 0
vn 0 0 1
vn 0 0 1
vn 0 0 1
vn 0 0 1
vn 0 0 -1
vn 0 0 -1
vn 0 0 -1
vn 0 0 -1
vn 0 0 -1
vn 0 0 -1
vn 0 0 -1
vn 0 0 -1
vn -1 0 0
vn -1 0 0
vn -1 0 0
vn -1 0 0
vn 1 0 0
vn 1 0 0
vn 1 0 0
vn 1 0 0
vn 1 0 0
vn 1 0 0
vn 1 0 0
vn 1 0 0
vn -1 0 0
vn -1 0 0
vn -1 0 0
vn -1 0 0
vn 0 0 -1
vn 0 0 -1
vn 0 0 -1
vn 0 0 -1
vn 0 0 -1
vn 0 0 -1
vn 0 0 -1
vn 0 0 -1
vn 0 1 0
vn 0 1 0
vn 0 1 0
vn 0 1 0
vn 0 1 0
vn 0 1 0
vn 0 1 0
vn 0 1 0
vn 1 0 0
vn 1 0 0
vn 1 0 0
vn 1 0 0
vn 1 0 0
vn 1 0 0
vn 1 0 0
vn 1 0 0
vn 1 0 0
vn 1 0 0
vn 1 0 0
vn 1 0 0
vn 1 0 0
vn 1 0 0
vn 0 -1 0
vn 0 -1 0
vn 0 -1 0
vn 0 -1 0
vn 0 -1 0
vn 0 -1 0
vn -1 0 0
vn -1 0 0
vn -1 0 0
vn -1 0 0
vn -1 0 0
vn -1 0 0
vn -1 0 0
vn -1 0 0
vn -1 0 0
vn -1 0 0
vn -1 0 0
vn -1 0 0
vn -1 0 0
vn -1 0 0
vn 0 0 1
vn 0 0 1
vn 0 0 1
vn 0 0 1
vn 0 0 -1
vn 0 0 -1
vn 0 0 -1
vn 0 0 -1
vn 0 0 -1
vn 0 0 -1
vn 0 0 -1
vn 0 0 -1
vn 0 0 -1
vn 0 0 -1
vn 0 0 -1
vn 0 0 -1
vn 0 0 -1
vn 0 0 -1
vn 0 0 -1
vn 0 0 -1
vn 0 1 0
vn 0 1 0
vn 0 1 0
vn 0 1 0
vn 0 -1 0
vn 0 -1 0
vn 0 -1 0
vn 0 -1 0
vn 1 0 0
vn 1 0 0
vn 1 0 0
vn 1 0 0
vn -1 0 0
vn -1 0 0
vn -1 0 0
vn -1 0 0
vn 0 0 1
vn 0 0 1
vn 0 0 1
vn 0 0 1
vn 0 0 1
vn 0 0 1
vn 0 0 1
vn 0 0 1
vn 0 0 -1
vn 0 0 -1
vn 0 0 -1
vn 0 0 -1
vn 0 0 -1
vn 0 0 -1
vn 0 0 -1
vn 0 0 -1
vn 0 0 1
vn 0 0 1
vn 3.484089E-05 -0.5143579 0.8575756
vn 1.857804E-05 0 1
vn 3.844277E-05 -0.5689871 0.8223464
vn 1.857804E-05 0 1
vn 3.844312E-05 0.5689922 0.822343
vn 3.484115E-05 0.5143619 0.8575732
vn 2.047431E-05 -0.8780795 0.4785147
vn 3.484089E-05 -0.5143579 0.8575756
vn 3.844277E-05 -0.5689871 0.8223464
vn 9.843577E-06 -0.924045 0.3822837
vn -1.625849E-06 -0.999923 -0.01240856
vn -4.760123E-07 -0.9950246 -0.09962856
vn 1.864279E-05 -0.8660201 -0.5000093
vn 3.770087E-06 -0.8660394 -0.4999758
vn 1.863905E-05 -0.5001381 -0.8659456
vn 3.769964E-06 -0.5001612 -0.8659323
vn -1.917979E-05 -0.8660196 -0.5000101
vn -1.917505E-05 -0.5001968 -0.8659117
vn 7.132685E-07 -0.9998069 -0.01965036
vn -4.706032E-06 -0.9289756 0.3701409
vn -1.003213E-05 -0.8865317 0.4626679
vn -1.759649E-05 -0.5808069 0.8140414
vn -1.458941E-05 -0.5282282 0.8491025
vn 3.484115E-05 0.5143619 0.8575732
vn 9.843558E-06 0.9240429 0.3822889
vn 3.844312E-05 0.5689922 0.822343
vn 2.047431E-05 0.8780796 0.4785146
vn -2.787004E-06 0.9950194 -0.09968122
vn -4.876602E-06 0.9999224 -0.01245809
vn -1.885251E-06 0.8660272 -0.4999968
vn -3.106872E-06 0.8660282 -0.4999952
vn 0 0.5000216 -0.8660129
vn 0 0.5000213 -0.8660131
vn 0 0.5000219 -0.8660128
vn 0 0.8660258 -0.4999994
vn 1.752797E-06 0.9998055 -0.01972164
vn -8.352862E-06 0.8865293 0.4626724
vn -2.787856E-06 0.9289726 0.3701483
vn -1.668278E-05 0.5282364 0.8490974
vn -1.887545E-05 0.5808142 0.8140362
vn -0.8274066 -0.5616033 0
vn -0.3917664 -0.9200647 0
vn -0.3917785 -0.9200597 0
vn -0.8274028 -0.5616089 0
vn -1 -1.626797E-06 0
vn -1 -1.626797E-06 0
vn -0.8274074 0.5616024 0
vn -0.8274036 0.5616079 0
vn -0.3917853 0.9200567 0
vn -0.3917733 0.9200618 0
vn 0.3917777 -0.92006 0
vn 0.3917656 -0.920065 0
vn 0.8274354 -0.561561 0
vn 0.8274392 -0.5615554 0
vn 1 0 0
vn 1 0 0
vn 0.8274345 0.5615622 0
vn 0.8274382 0.5615566 0
vn 0.3917719 0.9200624 0
vn 0.391784 0.9200572 0
vn 0 0 -1
vn 1.863905E-05 -0.5001381 -0.8659456
vn 3.769964E-06 -0.5001612 -0.8659323
vn 0 0 -1
vn 0 0.5000213 -0.8660131
vn -1.917505E-05 -0.5001968 -0.8659117
vn 0 0.5000216 -0.8660129
vn 0 0 -1
vn 0 0.5000219 -0.8660128
vn -1.280922E-05 0.8660272 0.4999969
vn -3.640115E-06 0.5000255 0.8660108
vn -3.640115E-06 0.5000255 0.8660108
vn -1.280927E-05 0.8660285 0.4999948
vn -4.08285E-06 1 -1.920892E-05
vn -4.08285E-06 1 -1.922494E-05
vn 5.086486E-06 0.8660256 -0.4999996
vn 5.086442E-06 0.8660244 -0.5000017
vn -5.957826E-07 0.4999521 -0.866053
vn -5.957826E-07 0.4999521 -0.866053
vn -3.640115E-06 0.5000255 0.8660108
vn -3.640115E-06 0.5000255 0.8660108
vn 0 0 1
vn 0 0 1
vn -1.579271E-06 -0.5000273 0.8660097
vn -1.579247E-06 -0.5000237 0.8660117
vn -1.579247E-06 -0.5000237 0.8660117
vn -1.579271E-06 -0.5000273 0.8660097
vn -1.579269E-06 -0.8660306 0.4999911
vn -1.579269E-06 -0.8660306 0.4999911
vn 0 -1 3.844235E-05
vn 0 -1 3.844235E-05
vn 2.561835E-05 -0.8660219 -0.5000061
vn 2.561835E-05 -0.8660219 -0.5000061
vn 3.062522E-05 -0.5000882 -0.8659745
vn 3.062585E-05 -0.5000952 -0.8659704
vn 3.062585E-05 -0.5000952 -0.8659704
vn 3.062522E-05 -0.5000882 -0.8659745
vn 4.414377E-06 -2.341376E-06 -1
vn 4.414279E-06 2.357304E-06 -1
vn -5.957826E-07 0.4999521 -0.866053
vn -5.957826E-07 0.4999521 -0.866053
vn 0 0.8660275 0.4999965
vn -3.158601E-06 0.5000275 0.8660095
vn -3.158505E-06 0.5000346 0.8660055
vn 0 0.8660275 0.4999965
vn 0 1 -6.418925E-06
vn 0 1 -6.418925E-06
vn 0 0.8660278 -0.4999959
vn 0 0.8660278 -0.4999959
vn 5.957826E-07 0.4999521 -0.866053
vn 5.957826E-07 0.4999521 -0.866053
vn -3.158505E-06 0.5000346 0.8660055
vn -3.158601E-06 0.5000275 0.8660095
vn -5.439629E-05 0 1
vn -5.439629E-05 0 1
vn -4.965794E-05 -0.5000237 0.8660117
vn -4.965714E-05 -0.5000273 0.8660097
vn -4.965714E-05 -0.5000273 0.8660097
vn -4.965794E-05 -0.5000237 0.8660117
vn -2.060861E-06 -0.8660351 0.4999831
vn -2.060907E-06 -0.8660364 0.4999811
vn -3.640727E-06 -1 6.403704E-06
vn -3.640727E-06 -1 6.403704E-06
vn 0 -0.8660275 -0.4999965
vn 0 -0.8660275 -0.4999965
vn 0 -0.5000226 -0.8660123
vn 0 -0.5000226 -0.8660123
vn 0 -0.5000226 -0.8660123
vn 0 -0.5000226 -0.8660123
vn 5.957677E-07 2.341346E-06 -1
vn 5.957572E-07 -2.341346E-06 -1
vn 5.957826E-07 0.4999521 -0.866053
vn 5.957826E-07 0.4999521 -0.866053
vn -2.965212E-06 1.238643E-06 1
vn -1.458941E-05 -0.5282282 0.8491025
vn -1.759649E-05 -0.5808069 0.8140414
vn -2.965211E-06 1.231039E-06 1
vn -1.887545E-05 0.5808142 0.8140362
vn -1.668278E-05 0.5282364 0.8490974
vn -1.315852E-06 0.8660275 0.4999965
vn -5.803738E-06 0.5000167 0.8660158
vn -5.803722E-06 0.5000183 0.8660148
vn -1.315854E-06 0.8660273 0.4999966
vn 4.98688E-07 1 -7.976549E-06
vn 4.98688E-07 1 -7.97655E-06
vn 0 0.8660319 -0.4999886
vn 0 0.8660319 -0.4999886
vn 0 0.5000209 -0.8660133
vn 0 0.5000209 -0.8660133
vn -7.978426E-06 0 1
vn -5.803722E-06 0.5000183 0.8660148
vn -5.803738E-06 0.5000167 0.8660158
vn -7.978426E-06 0 1
vn -5.983863E-06 -0.500015 0.8660169
vn -5.983876E-06 -0.5000132 0.8660178
vn -1.496034E-06 -0.866024 0.5000025
vn -5.983863E-06 -0.500015 0.8660169
vn -5.983876E-06 -0.5000132 0.8660178
vn -1.496035E-06 -0.8660238 0.5000027
vn 4.987572E-07 -1 2.392305E-05
vn 4.987572E-07 -1 2.392305E-05
vn -1.994612E-06 -0.866033 -0.4999871
vn -1.994637E-06 -0.8660312 -0.49999
vn -1.994443E-06 -0.5001076 -0.8659633
vn -1.994443E-06 -0.5001076 -0.8659633
vn 0 0 -1
vn -1.994443E-06 -0.5001076 -0.8659633
vn -1.994443E-06 -0.5001076 -0.8659633
vn 0 0 -1
vn 0 0.5000209 -0.8660133
vn 0 0.5000209 -0.8660133
vn -7.239837E-06 0.8660362 0.4999813
vn -7.2404E-06 0.499984 0.8660346
vn -7.240439E-06 0.4999852 0.8660339
vn -7.240508E-06 0.8660238 0.5000027
vn 3.979513E-06 1 -1.28651E-07
vn 3.979514E-06 1 -1.18755E-07
vn 3.979434E-06 0.8660302 -0.4999919
vn 3.979434E-06 0.8660302 -0.4999919
vn 0 0.5000192 -0.8660144
vn 0 0.5000192 -0.8660144
vn 0 0 1
vn -7.240439E-06 0.4999852 0.8660339
vn -7.2404E-06 0.499984 0.8660346
vn 0 0 1
vn 0 -0.4999852 0.8660339
vn 0 -0.499984 0.8660346
vn 0 -0.8660362 0.4999811
vn 0 -0.4999852 0.8660339
vn 0 -0.499984 0.8660346
vn 0 -0.8660239 0.5000026
vn 0 -1 8.085607E-06
vn 0 -1 8.09549E-06
vn -1.591692E-05 -0.8660369 -0.4999802
vn -1.591856E-05 -0.8660232 -0.5000039
vn -1.591744E-05 -0.5000504 -0.8659963
vn -1.591744E-05 -0.5000504 -0.8659963
vn 0 0 -1
vn -1.591744E-05 -0.5000504 -0.8659963
vn -1.591744E-05 -0.5000504 -0.8659963
vn 0 0 -1
vn 0 0.5000192 -0.8660144
vn 0 0.5000192 -0.8660144
vn 1.616825E-05 -0.5144342 -0.8575298
vn 1.988099E-05 -0.5690491 -0.8223035
vn -1.62149E-07 -1.491913E-07 -1
vn -1.62149E-07 -1.501487E-07 -1
vn 2.152636E-05 0.5690518 -0.8223017
vn 1.757171E-05 0.5144351 -0.8575293
vn 0 -1 0
vn -0.3917785 -0.9200597 0
vn -0.3917664 -0.9200647 0
vn 0 -1 0
vn 0.3917777 -0.92006 0
vn 0.3917656 -0.920065 0
vn 1.305315E-05 -0.8780931 -0.4784899
vn 1.988099E-05 -0.5690491 -0.8223035
vn 1.616825E-05 -0.5144342 -0.8575298
vn 6.508506E-06 -0.9240499 -0.382272
vn -5.8662E-06 -0.999923 0.01241533
vn -3.858177E-07 -0.9950238 0.09963726
vn 1.358546E-06 -0.8659993 0.5000452
vn -5.318537E-07 -0.8660135 0.5000207
vn 6.21316E-06 -0.5001038 0.8659654
vn 0 -0.5001268 0.8659522
vn -3.448152E-06 -0.8660001 0.5000437
vn -9.587747E-06 -0.5001623 0.8659317
vn 9.169255E-06 -0.9998069 0.01965122
vn -2.687892E-06 -0.9289794 -0.3701315
vn -9.652269E-06 -0.8865487 -0.4626352
vn -2.07305E-05 -0.5808885 -0.8139832
vn -1.71883E-05 -0.5283042 -0.8490552
vn -0.3917853 0.9200567 0
vn 0 1 0
vn -0.3917733 0.9200618 0
vn 0 1 0
vn 0.3917719 0.9200624 0
vn 0.391784 0.9200572 0
vn 1.757171E-05 0.5144351 -0.8575293
vn 2.152636E-05 0.5690518 -0.8223017
vn 4.544025E-06 0.9240443 -0.3822855
vn 1.223714E-05 0.8780902 -0.4784953
vn -1.200631E-06 0.9950181 0.09969374
vn -4.637351E-06 0.9999224 0.01245926
vn -6.398216E-07 0.866004 0.500037
vn -2.108838E-06 0.8660049 0.5000353
vn 0 0.5000216 0.8660129
vn 0 0.5000213 0.8660131
vn 0 0.5000219 0.8660128
vn 1.627217E-06 0.8660027 0.5000395
vn 4.320224E-06 0.9998055 0.01972354
vn -9.652302E-06 0.8865449 -0.4626425
vn -2.687936E-06 0.9289758 -0.3701403
vn -1.718846E-05 0.5283078 -0.8490529
vn -2.073062E-05 0.5808908 -0.8139815
vn 0 0 1
vn 0 -0.5001268 0.8659522
vn 6.21316E-06 -0.5001038 0.8659654
vn 0 0 1
vn 0 0.5000213 0.8660131
vn -9.587747E-06 -0.5001623 0.8659317
vn 0 0.5000216 0.8660129
vn 0 0 1
vn 0 0.5000219 0.8660128
vn 0 0.8660272 -0.4999969
vn 0 0.5001077 -0.8659632
vn 0 0.5001077 -0.8659632
vn 0 0.8660285 -0.4999948
vn 0 1 1.921101E-05
vn 0 1 1.922703E-05
vn 2.56207E-05 0.8659984 0.5000468
vn 2.562092E-05 0.8659972 0.5000489
vn -2.561881E-05 0.5000345 0.8660056
vn -2.561881E-05 0.5000345 0.8660056
vn 0 0.5001077 -0.8659632
vn -5.123804E-05 0 -1
vn 0 0.5001077 -0.8659632
vn -5.123804E-05 0 -1
vn -5.123359E-05 -0.5001094 -0.8659622
vn -5.123438E-05 -0.500106 -0.8659643
vn -5.123438E-05 -0.500106 -0.8659643
vn 0 -0.8660306 -0.4999911
vn -5.123359E-05 -0.5001094 -0.8659622
vn 0 -0.8660306 -0.4999911
vn -1.281346E-05 -1 -3.83329E-05
vn -1.281346E-05 -1 -3.83329E-05
vn -6.405656E-05 -0.8659784 0.5000814
vn -6.404723E-05 -0.866011 0.500025
vn -0.0001024617 -0.5001295 0.8659506
vn -0.0001024617 -0.5001366 0.8659466
vn -0.0001024617 -0.5001366 0.8659466
vn -0.0001024787 -2.341376E-06 1
vn -0.0001024617 -0.5001295 0.8659506
vn -0.0001024787 2.357304E-06 1
vn -2.561881E-05 0.5000345 0.8660056
vn -2.561881E-05 0.5000345 0.8660056
vn 0 0.8660278 -0.4999959
vn 5.123657E-05 0.5000351 -0.8660051
vn 5.123812E-05 0.5000281 -0.8660092
vn 0 0.8660278 -0.4999959
vn 0 1 6.418925E-06
vn 0 1 6.418925E-06
vn 0 0.8660002 0.5000437
vn 0 0.8660002 0.5000437
vn 0 0.5000345 0.8660056
vn 0 0.5000345 0.8660056
vn 5.123657E-05 0.5000351 -0.8660051
vn 5.123771E-05 0 -1
vn 5.123812E-05 0.5000281 -0.8660092
vn 5.123771E-05 0 -1
vn 0 -0.5000243 -0.8660113
vn 0 -0.5000278 -0.8660094
vn 0 -0.5000278 -0.8660094
vn 0 -0.8660356 -0.4999825
vn 0 -0.5000243 -0.8660113
vn 0 -0.8660368 -0.4999804
vn 0 -1 -6.419624E-06
vn 0 -1 -6.419624E-06
vn 0 -0.8660002 0.5000436
vn 0 -0.8660002 0.5000436
vn 0 -0.500105 0.8659648
vn 0 -0.500105 0.8659648
vn 0 -0.500105 0.8659648
vn 0 2.357273E-06 1
vn 0 -0.500105 0.8659648
vn 0 -2.357273E-06 1
vn 0 0.5000345 0.8660056
vn 0 0.5000345 0.8660056
vn 0 -3.149093E-07 -1
vn -2.07305E-05 -0.5808885 -0.8139832
vn -1.71883E-05 -0.5283042 -0.8490552
vn 0 -3.169011E-07 -1
vn -2.073062E-05 0.5808908 -0.8139815
vn -1.718846E-05 0.5283078 -0.8490529
vn -2.493962E-06 0.8660398 -0.4999752
vn 0 0.5000522 -0.8659953
vn 0 0.5000521 -0.8659954
vn -2.49398E-06 0.8660381 -0.499978
vn -5.794959E-07 1 7.986841E-06
vn -5.794959E-07 1 7.986841E-06
vn 0 0.8660089 0.5000287
vn 0 0.8660089 0.5000287
vn 0 0.5000209 0.8660133
vn 0 0.5000209 0.8660133
vn 3.499266E-06 0 -1
vn 0 0.5000521 -0.8659954
vn 0 0.5000522 -0.8659953
vn 3.499266E-06 0 -1
vn -9.879158E-07 -0.5000488 -0.8659973
vn -9.87913E-07 -0.5000486 -0.8659974
vn -2.991267E-06 -0.8660362 -0.4999812
vn -9.87913E-07 -0.5000486 -0.8659974
vn -9.879158E-07 -0.5000488 -0.8659973
vn -2.991291E-06 -0.8660346 -0.499984
vn -3.583765E-07 -1 -2.3944E-05
vn -3.583765E-07 -1 -2.3944E-05
vn -1.854391E-06 -0.8660098 0.5000271
vn -1.854418E-06 -0.8660081 0.50003
vn -1.994443E-06 -0.5001076 0.8659633
vn -1.994443E-06 -0.5001076 0.8659633
vn 0 0 1
vn -1.994443E-06 -0.5001076 0.8659633
vn -1.994443E-06 -0.5001076 0.8659633
vn 0 0 1
vn 0 0.5000209 0.8660133
vn 0 0.5000209 0.8660133
vn 1.987291E-06 0.8660303 -0.4999915
vn 0 0.5000198 -0.866014
vn 0 0.5000185 -0.8660148
vn 1.987284E-06 0.8660299 -0.4999923
vn 5.327797E-06 1 0
vn 5.327799E-06 1 0
vn 3.340427E-06 0.866007 0.5000319
vn 3.340427E-06 0.866007 0.5000319
vn 0 0.5000192 0.8660144
vn 0 0.5000192 0.8660144
vn -3.910031E-06 0 -1
vn 0 0.5000185 -0.8660148
vn 0 0.5000198 -0.866014
vn -3.910031E-06 0 -1
vn -5.897319E-06 -0.5000198 -0.866014
vn -5.897329E-06 -0.5000185 -0.8660148
vn -1.348009E-06 -0.8660303 -0.4999915
vn -5.897329E-06 -0.5000185 -0.8660148
vn -5.897319E-06 -0.5000198 -0.866014
vn -1.348018E-06 -0.8660299 -0.4999923
vn 1.761602E-06 -1 -8.085981E-06
vn 1.761602E-06 -1 -8.085968E-06
vn 1.122277E-06 -0.8660137 0.5000202
vn 1.122162E-06 -0.8660001 0.5000439
vn 0 -0.5000504 0.8659963
vn 0 -0.5000504 0.8659963
vn 0 0 1
vn 0 -0.5000504 0.8659963
vn 0 -0.5000504 0.8659963
vn 0 0 1
vn 0 0.5000192 0.8660144
vn 0 0.5000192 0.8660144
vn 0 -0.8660303 0.4999917
vn -2.029834E-06 -0.4999642 0.866046
vn -2.029966E-06 -0.4999492 0.8660548
vn 0 -0.8660303 0.4999917
vn 2.664292E-05 -1 3.022983E-05
vn 2.664292E-05 -1 3.022983E-05
vn 8.285616E-05 -0.8660555 -0.4999479
vn 8.285394E-05 -0.8660656 -0.4999305
vn 0.0001166747 -0.5000126 -0.8660181
vn 0.0001166741 -0.5000429 -0.8660007
vn -1.22376E-05 1.004589E-05 1
vn -1.020829E-05 0.4999436 0.866058
vn -1.020829E-05 0.4999436 0.866058
vn -1.223699E-05 -1.006469E-05 1
vn -2.029966E-06 -0.4999492 0.8660548
vn -2.029834E-06 -0.4999642 0.866046
vn -1.020829E-05 0.4999436 0.866058
vn -1.020829E-05 0.4999436 0.866058
vn 3.023358E-05 0.8660107 0.5000256
vn 3.023358E-05 0.8660107 0.5000256
vn 9.485173E-05 1 3.023044E-05
vn 9.485174E-05 1 3.022922E-05
vn 8.332661E-05 0.8660393 -0.4999759
vn 8.332317E-05 0.8660293 -0.4999933
vn 1.870274E-05 0.5000278 -0.8660094
vn 1.870274E-05 0.5000278 -0.8660094
vn 1.870274E-05 0.5000278 -0.8660094
vn 1.870274E-05 0.5000278 -0.8660094
vn 6.046407E-05 0 -1
vn 6.046407E-05 0 -1
vn 0.0001166741 -0.5000429 -0.8660007
vn 0.0001166747 -0.5000126 -0.8660181
vn 6.519737E-05 -0.5000061 -0.8660219
vn 6.520347E-05 -0.5000364 -0.8660044
vn 8.255873E-05 -0.8660656 -0.4999305
vn 8.256094E-05 -0.8660555 -0.4999479
vn 2.649851E-05 -1 2.266807E-05
vn 2.649851E-05 -1 2.266807E-05
vn 0 -0.8660171 0.5000142
vn 0 -0.8660171 0.5000142
vn 0 -0.5000376 0.8660038
vn 0 -0.5000376 0.8660038
vn 2.645232E-05 -1.005529E-05 -1
vn 6.520347E-05 -0.5000364 -0.8660044
vn 6.519737E-05 -0.5000061 -0.8660219
vn 2.645293E-05 1.005529E-05 -1
vn 3.616594E-05 0.5000268 -0.86601
vn 3.616604E-05 0.5000418 -0.8660012
vn 8.361902E-05 0.8660359 -0.4999819
vn 3.616604E-05 0.5000418 -0.8660012
vn 3.616594E-05 0.5000268 -0.86601
vn 8.362246E-05 0.8660459 -0.4999645
vn 9.501083E-05 1 2.267701E-05
vn 9.501084E-05 1 2.266853E-05
vn 3.023335E-05 0.866004 0.500037
vn 3.023335E-05 0.866004 0.500037
vn 0 0.5000376 0.8660038
vn 0 0.5000376 0.8660038
vn 0 -0.5000376 0.8660038
vn 0 -0.5000376 0.8660038
vn 0 0 1
vn 0 0 1
vn 0 0.5000376 0.8660038
vn 0 0.5000376 0.8660038
vn 1 -1.094609E-06 0
vn 1 -5.473441E-07 0
vn 1 0 0
vn 1 -1.094638E-06 0
vn 1 0 0
vn 1 -1.094667E-06 0
vn 1 0 0
vn 1 -2.73667E-07 0
vn 1 0 0
vn 1 5.472855E-07 0
vn 1 5.473287E-07 0
vn 1 8.209515E-07 0
vn 1 1.094648E-06 0
vn 1 -1.09459E-06 0
vn 1 -1.094657E-06 0
vn 1 -2.736675E-07 0
vn 1 -5.472793E-07 0
vn 1 -1.094724E-06 0
vn 1 0 0
vn 1 -8.210402E-07 0
vn 1 5.472745E-07 0
vn 1 -5.473622E-07 0
vn 1 1.094571E-06 0
vn 1 -2.736841E-07 0
vn 1 5.473287E-07 0
vn 1 0 0
vn -1 -1.247864E-06 0
vn -1 7.48817E-06 0
vn -1 3.743615E-06 0
vn -1 1.872365E-06 0
vn -1 0 0
vn -1 -3.74386E-06 0
vn -1 -3.743438E-06 0
vn -1 -3.743748E-06 0
vn -1 -7.486823E-06 0
vn -1 -3.743636E-06 0
vn -1 -3.743541E-06 0
vn -1 -1.871625E-06 0
vn -1 0 0
vn -1 1.871819E-06 0
vn -1 0 0
vn -1 1.871596E-06 0
vn -1 0 0
vn -1 3.742963E-06 0
vn -1 0 0
vn -1 1.871538E-06 0
vn -1 3.744088E-06 0
vn -1 0 0
vn -1 7.48772E-06 0
vn -1 0 0
vn -1 3.744032E-06 0
vn -1 0 0
vn -1 -2.636408E-06 0
vn -1 -2.636408E-06 0
vn -1 -2.636313E-06 0
vn -1 -2.636096E-06 0
vn -1 -5.273038E-06 0
vn -1 -2.636397E-06 0
vn -1 -5.273038E-06 0
vn -1 -2.636075E-06 0
vn -1 -2.636493E-06 0
vn -1 0 0
vn -1 -2.636274E-06 0
vn -1 0 0
vn -1 -2.636353E-06 0
vn -1 5.273016E-06 0
vn -1 -2.636352E-06 0
vn -1 5.272372E-06 0
vn -1 -2.636433E-06 0
vn -1 7.909072E-06 0
vn -1 -2.636653E-06 0
vn -1 7.908856E-06 0
vn -1 0 0
vn -1 2.636353E-06 0
vn -1 0 0
vn -1 2.636353E-06 0
vn -1 -2.636938E-06 0
vn -1 -2.636718E-06 0
vn -1 -5.272593E-06 0
vn -1 -5.272593E-06 0
vn -1 -2.63702E-06 0
vn -1 -2.63643E-06 0
vn -1 -2.63702E-06 0
vn -1 -2.63651E-06 0
vn -1 -2.636433E-06 0
vn -1 0 0
vn -1 -2.636653E-06 0
vn -1 0 0
vn -1 0 0
vn -1 2.636772E-06 0
vn -1 0 0
vn -1 2.636544E-06 0
vn -1 2.636417E-06 0
vn -1 2.636686E-06 0
vn -1 2.636497E-06 0
vn -1 2.636686E-06 0
vn -1 5.273594E-06 0
vn -1 2.6366E-06 0
vn -1 5.273594E-06 0
vn -1 2.636827E-06 0
vn 1 0 0
vn 1 0 0
vn 1 0 0
vn 1 0 0
vn 1 0 0
vn 1 0 0
vn 1 0 0
vn 1 0 0
vn 1 1.893138E-06 0
vn 1 -1.893652E-06 0
vn 1 1.893116E-06 0
vn 1 -1.893654E-06 0
vn 1 0 0
vn 1 -1.892906E-06 0
vn 1 0 0
vn 1 -1.893756E-06 0
vn 1 -1.892518E-06 0
vn 1 0 0
vn 1 -1.892591E-06 0
vn 1 0 0
vn 1 -7.571959E-06 0
vn 1 -7.573944E-06 0
vn 1 -7.571686E-06 0
vn 1 -7.573903E-06 0
vn -1 0 0
vn -1 0 0
vn -1 0 0
vn -1 0 0
vn -1 -1.894098E-06 0
vn -1 0 0
vn -1 -1.893325E-06 0
vn -1 0 0
vn -1 0 0
vn -1 -1.893005E-06 0
vn -1 0 0
vn -1 -1.893023E-06 0
vn -1 1.894036E-06 0
vn -1 0 0
vn -1 1.893268E-06 0
vn -1 0 0
vn -1 0 0
vn -1 1.892413E-06 0
vn -1 0 0
vn -1 1.892502E-06 0
vn -1 0 0
vn -1 0 0
vn -1 0 0
vn -1 0 0
vn 1 1.135858E-05 0
vn 1 7.573131E-06 0
vn 1 7.57332E-06 0
vn 1 1.135859E-05 0
vn 1 0 0
vn 1 3.785459E-06 0
vn 1 0 0
vn 1 3.785503E-06 0
vn 1 0 0
vn 1 1.893136E-06 0
vn 1 0 0
vn 1 1.893134E-06 0
vn 1 1.89266E-06 0
vn 1 1.892987E-06 0
vn 1 1.892564E-06 0
vn 1 1.892888E-06 0
vn 1 -1.893045E-06 0
vn 1 -7.571856E-06 0
vn 1 -1.892947E-06 0
vn 1 -7.572072E-06 0
vn 1 -1.135877E-05 0
vn 1 -1.514647E-05 0
vn 1 -1.135886E-05 0
vn 1 -1.514647E-05 0
vn -1 0 0
vn -1 -3.786736E-06 0
vn -1 -3.786751E-06 0
vn -1 0 0
vn -1 -1.893887E-06 0
vn -1 -3.786605E-06 0
vn -1 -1.894315E-06 0
vn -1 -3.786844E-06 0
vn -1 0 0
vn -1 -1.893071E-06 0
vn -1 0 0
vn -1 -1.893017E-06 0
vn -1 1.89267E-06 0
vn -1 0 0
vn -1 1.892604E-06 0
vn -1 0 0
vn -1 3.785585E-06 0
vn -1 1.891858E-06 0
vn -1 3.78559E-06 0
vn -1 1.891951E-06 0
vn -1 0 0
vn -1 3.785538E-06 0
vn -1 0 0
vn -1 3.785636E-06 0
vn 1 0 0
vn 1 0 0
vn 1 -1.893416E-06 0
vn 1 -1.893446E-06 0
vn 1 1.892774E-06 0
vn 1 -1.893315E-06 0
vn 1 1.892934E-06 0
vn 1 -1.893173E-06 0
vn 1 -1.893022E-06 0
vn 1 0 0
vn 1 -1.893023E-06 0
vn 1 0 0
vn 1 -7.570192E-06 0
vn 1 1.892888E-06 0
vn 1 -7.570349E-06 0
vn 1 1.892796E-06 0
vn 1 -5.678505E-06 0
vn 1 1.892657E-06 0
vn 1 -5.678617E-06 0
vn 1 1.892478E-06 0
vn 1 1.893739E-06 0
vn 1 3.786387E-06 0
vn 1 1.893791E-06 0
vn 1 3.786387E-06 0
vn -1 1.893399E-06 0
vn -1 1.893443E-06 0
vn -1 -1.893312E-06 0
vn -1 -1.893313E-06 0
vn -1 1.893355E-06 0
vn -1 -3.786215E-06 0
vn -1 1.89316E-06 0
vn -1 -3.786215E-06 0
vn -1 -3.786584E-06 0
vn -1 1.89285E-06 0
vn -1 -3.786408E-06 0
vn -1 1.89285E-06 0
vn -1 -1.893537E-06 0
vn -1 3.785874E-06 0
vn -1 -1.893516E-06 0
vn -1 3.786195E-06 0
vn -1 3.786215E-06 0
vn -1 -1.893176E-06 0
vn -1 3.786215E-06 0
vn -1 -1.893208E-06 0
vn -1 1.892694E-06 0
vn -1 -1.893714E-06 0
vn -1 1.894012E-06 0
vn -1 -1.893738E-06 0
vn 1 1.892851E-06 0
vn 1 1.892956E-06 0
vn 1 3.786343E-06 0
vn 1 3.78619E-06 0
vn 1 0 0
vn 1 5.679726E-06 0
vn 1 0 0
vn 1 5.679906E-06 0
vn 1 -1.89348E-06 0
vn 1 1.893296E-06 0
vn 1 -1.893482E-06 0
vn 1 1.89321E-06 0
vn 1 -1.893166E-06 0
vn 1 1.893452E-06 0
vn 1 -1.893327E-06 0
vn 1 1.893355E-06 0
vn 1 -1.89305E-06 0
vn 1 0 0
vn 1 -1.893103E-06 0
vn 1 0 0
vn 1 3.786874E-06 0
vn 1 1.893147E-06 0
vn 1 3.78706E-06 0
vn 1 1.893479E-06 0
vn -1 0 0
vn -1 0 0
vn -1 -3.786849E-06 0
vn -1 -3.786621E-06 0
vn -1 -3.786537E-06 0
vn -1 -3.787135E-06 0
vn -1 -3.7869E-06 0
vn -1 -3.787297E-06 0
vn -1 -5.680056E-06 0
vn -1 1.893477E-06 0
vn -1 -5.680143E-06 0
vn -1 1.89348E-06 0
vn -1 -1.893251E-06 0
vn -1 5.679683E-06 0
vn -1 -1.893249E-06 0
vn -1 5.679599E-06 0
vn -1 3.785458E-06 0
vn -1 3.785913E-06 0
vn -1 3.785732E-06 0
vn -1 3.785703E-06 0
vn -1 3.786274E-06 0
vn -1 0 0
vn -1 3.786495E-06 0
vn -1 0 0
vn 0 -1 0
vn 0 -1 0
vn 0 -1 0
vn 0 -1 0
vn 0 -1 0
vn 0 -1 0
vn 0 -1 0
vn 0 -1 0
vn 0 -1 0
vn 0 -1 0
vn 0 -1 0
vn 0 -1 0
vn 0 -1 0
vn 0 -1 0
vn 0 -1 0
vn 0 -1 0
vn 0 -1 0
vn 0 -1 0
vn 0 -1 0
vn 0 -1 0
vn 0 -1 0
vn 0 -1 0
vn 0 -1 0
vn 0 -1 0
vn 0 -1 0
vn 0 -1 0
vn 0 0 1
vn 0 0 1
vn 0 0 -1
vn 0 0 -1
vn 0 -1 0
vn 0 -1 0
vn 0 -1 0
vn 0 -1 0
vn 0 -1 0
vn 0 -1 0
vn 0 -1 0
vn 0 -1 0
vn 0 -1 0
vn 0 -1 0
vn 0 -1 0
vn 0 -1 0
vn 0 -1 0
vn 0 -1 0
vn 0 -1 0
vn 0 -1 0
vn 0 -1 0
vn 0 -1 0
vn 0 -1 0
vn 0 -1 0
vn 0 -1 0
vn 0 -1 0
vn 0 -1 0
vn 0 -1 0
vn 0 -1 0
vn 0 -1 0
vn 0 0 -1
vn 0 0 -1
vn 0 0 -1
vn 0 0 -1
vn 0 0 1
vn 0 0 1
vn 0 0 1
vn 0 0 1
vn 0 -1 0
vn 0 -1 0
vn 0 -1 0
vn 0 -1 0
vn 0 1 0
vn 0 1 0
vn 0 1 0
vn 0 1 0
vn 0 1 0
vn 0 1 0
vn 0 1 0
vn 0 1 0
vn 0 1 0
vn 0 1 0
vn 0 1 0
vn 0 1 0
vn -1 0 0
vn -1 0 0
vn -1 0 0
vn -1 0 0
vn 1 0 0
vn 1 0 0
vn 1 0 0
vn 1 0 0
vn 1 0 0
vn 1 0 0
vn 1 0 0
vn 1 0 0
vn 1 0 0
vn 1 0 0
vn 1 0 0
vn 1 0 0
vn 1 0 0
vn 1 0 0
vn 1 0 0
vn 1 0 0
vn -1 0 0
vn -1 0 0
vn -1 0 0
vn -1 0 0
vn -1 0 0
vn -1 0 0
vn -1 0 0
vn -1 0 0
vn -1 0 0
vn -1 0 0
vn -1 0 0
vn -1 0 0
vn -1 0 0
vn -1 0 0
vn -1 0 0
vn -1 0 0
vn 0 -1 0
vn 0 -1 0
vn 0 -1 0
vn 0 -1 0
vn 1 0 0
vn 1 0 0
vn 1 0 0
vn 1 0 0
usemtl BlackPlastic
f 3/3/159 2/2/158 1/1/157
f 2/2/158 4/4/160 1/1/157
f 2/2/158 5/5/161 4/4/160
f 5/5/161 6/6/162 4/4/160
f 9/9/165 8/8/164 7/7/163
f 10/10/166 9/9/165 7/7/163
f 10/10/166 7/7/163 11/11/167
f 12/12/168 10/10/166 11/11/167
f 12/12/168 11/11/167 13/13/169
f 14/14/170 12/12/168 13/13/169
f 14/14/170 13/13/169 15/15/171
f 16/16/172 14/14/170 15/15/171
f 17/17/173 14/14/170 16/16/172
f 18/18/174 17/17/173 16/16/172
f 17/17/173 19/19/175 14/14/170
f 19/19/175 12/12/168 14/14/170
f 12/12/168 19/19/175 20/20/176
f 19/19/175 21/21/177 20/20/176
f 20/20/176 21/21/177 22/22/178
f 21/21/177 23/23/179 22/22/178
f 26/26/182 25/25/181 24/24/180
f 25/25/181 27/27/183 24/24/180
f 25/25/181 28/28/184 27/27/183
f 28/28/184 29/29/185 27/27/183
f 28/28/184 30/30/186 29/29/185
f 30/30/186 31/31/187 29/29/185
f 30/30/186 32/32/188 31/31/187
f 32/32/188 33/33/189 31/31/187
f 34/34/190 32/32/188 30/30/186
f 35/35/191 34/34/190 30/30/186
f 35/35/191 30/30/186 28/28/184
f 36/36/192 35/35/191 28/28/184
f 37/37/193 36/36/192 28/28/184
f 38/38/194 37/37/193 28/28/184
f 39/39/195 37/37/193 38/38/194
f 40/40/196 39/39/195 38/38/194
f 43/43/199 42/42/198 41/41/197
f 42/42/198 44/44/200 41/41/197
f 41/41/197 44/44/200 45/45/201
f 44/44/200 46/46/202 45/45/201
f 45/45/201 46/46/202 47/47/203
f 46/46/202 48/48/204 47/47/203
f 47/47/203 48/48/204 49/49/205
f 48/48/204 50/50/206 49/49/205
f 53/53/209 52/52/208 51/51/207
f 54/54/210 53/53/209 51/51/207
f 55/55/211 53/53/209 54/54/210
f 56/56/212 55/55/211 54/54/210
f 57/57/213 55/55/211 56/56/212
f 58/58/214 57/57/213 56/56/212
f 59/59/215 57/57/213 58/58/214
f 60/60/216 59/59/215 58/58/214
f 63/63/219 62/62/218 61/61/217
f 64/64/220 63/63/219 61/61/217
f 64/64/220 61/61/217 65/65/221
f 66/66/222 63/63/219 64/64/220
f 67/67/223 64/64/220 65/65/221
f 68/68/224 66/66/222 64/64/220
f 68/68/224 64/64/220 67/67/223
f 69/69/225 68/68/224 67/67/223
f 72/72/228 71/71/227 70/70/226
f 71/71/227 73/73/229 70/70/226
f 74/74/230 70/70/226 73/73/229
f 75/75/231 74/74/230 73/73/229
f 74/74/230 75/75/231 76/76/232
f 75/75/231 77/77/233 76/76/232
f 76/76/232 77/77/233 78/78/234
f 77/77/233 79/79/235 78/78/234
f 82/82/238 81/81/237 80/80/236
f 83/83/239 82/82/238 80/80/236
f 84/84/240 82/82/238 83/83/239
f 85/85/241 84/84/240 83/83/239
f 88/88/244 87/87/243 86/86/242
f 89/89/245 88/88/244 86/86/242
f 90/90/246 88/88/244 89/89/245
f 91/91/247 90/90/246 89/89/245
f 92/92/248 90/90/246 91/91/247
f 93/93/249 92/92/248 91/91/247
f 94/94/250 92/92/248 93/93/249
f 95/95/251 94/94/250 93/93/249
f 98/98/254 97/97/253 96/96/252
f 99/99/255 98/98/254 96/96/252
f 100/100/256 98/98/254 99/99/255
f 101/101/257 100/100/256 99/99/255
f 104/104/260 103/103/259 102/102/258
f 103/103/259 105/105/261 102/102/258
f 106/106/262 102/102/258 105/105/261
f 107/107/263 106/106/262 105/105/261
f 106/106/262 107/107/263 108/108/264
f 107/107/263 109/109/265 108/108/264
f 108/108/264 109/109/265 110/110/266
f 109/109/265 111/111/267 110/110/266
f 114/114/270 113/113/269 112/112/268
f 115/115/271 114/114/270 112/112/268
f 116/116/272 114/114/270 115/115/271
f 117/117/273 116/116/272 115/115/271
f 120/120/276 119/119/275 118/118/274
f 121/121/277 120/120/276 118/118/274
f 122/122/278 120/120/276 121/121/277
f 123/123/279 122/122/278 121/121/277
f 124/124/280 122/122/278 123/123/279
f 125/125/281 124/124/280 123/123/279
f 126/126/282 124/124/280 125/125/281
f 127/127/283 126/126/282 125/125/281
f 130/130/286 129/129/285 128/128/284
f 131/131/287 130/130/286 128/128/284
f 132/132/288 130/130/286 131/131/287
f 133/133/289 132/132/288 131/131/287
f 136/136/292 135/135/291 134/134/290
f 135/135/291 137/137/293 134/134/290
f 134/134/290 137/137/293 138/138/294
f 137/137/293 139/139/295 138/138/294
f 142/142/298 141/141/297 140/140/296
f 141/141/297 143/143/299 140/140/296
f 143/143/299 144/144/300 140/140/296
f 144/144/300 145/145/301 140/140/296
f 144/144/300 146/146/302 145/145/301
f 146/146/302 147/147/303 145/145/301
f 146/146/302 148/148/304 147/147/303
f 148/148/304 149/149/305 147/147/303
f 152/152/308 151/151/307 150/150/306
f 153/153/309 152/152/308 150/150/306
f 153/153/309 150/150/306 154/154/310
f 155/155/311 153/153/309 154/154/310
f 158/158/314 157/157/313 156/156/312
f 159/159/315 158/158/314 156/156/312
f 159/159/315 156/156/312 160/160/316
f 161/161/317 159/159/315 160/160/316
f 161/161/317 160/160/316 162/162/318
f 163/163/319 161/161/317 162/162/318
f 163/163/319 162/162/318 164/164/320
f 165/165/321 163/163/319 164/164/320
f 168/168/324 167/167/323 166/166/322
f 169/169/325 168/168/324 166/166/322
f 169/169/325 166/166/322 170/170/326
f 171/171/327 169/169/325 170/170/326
f 174/174/330 173/173/329 172/172/328
f 173/173/329 175/175/331 172/172/328
f 175/175/331 176/176/332 172/172/328
f 176/176/332 177/177/333 172/172/328
f 176/176/332 178/178/334 177/177/333
f 178/178/334 179/179/335 177/177/333
f 178/178/334 180/180/336 179/179/335
f 180/180/336 181/181/337 179/179/335
f 184/184/340 183/183/339 182/182/338
f 185/185/341 184/184/340 182/182/338
f 185/185/341 182/182/338 186/186/342
f 187/187/343 185/185/341 186/186/342
f 190/190/346 189/189/345 188/188/344
f 191/191/347 190/190/346 188/188/344
f 191/191/347 188/188/344 192/192/348
f 193/193/349 191/191/347 192/192/348
f 193/193/349 192/192/348 194/194/350
f 195/195/351 193/193/349 194/194/350
f 195/195/351 194/194/350 196/196/352
f 197/197/353 195/195/351 196/196/352
f 200/200/356 199/199/355 198/198/354
f 201/201/357 200/200/356 198/198/354
f 201/201/357 198/198/354 202/202/358
f 203/203/359 201/201/357 202/202/358
f 206/206/362 205/205/361 204/204/360
f 207/207/363 206/206/362 204/204/360
f 208/208/364 206/206/362 207/207/363
f 209/209/365 208/208/364 207/207/363
f 212/212/368 211/211/367 210/210/366
f 213/213/369 212/212/368 210/210/366
f 213/213/369 210/210/366 214/214/370
f 215/215/371 213/213/369 214/214/370
f 218/218/374 217/217/373 216/216/372
f 217/217/373 219/219/375 216/216/372
f 216/216/372 219/219/375 220/220/376
f 219/219/375 221/221/377 220/220/376
f 220/220/376 221/221/377 222/222/378
f 221/221/377 223/223/379 222/222/378
f 222/222/378 223/223/379 224/224/380
f 223/223/379 225/225/381 224/224/380
f 223/223/379 226/226/382 225/225/381
f 226/226/382 227/227/383 225/225/381
f 228/228/384 226/226/382 223/223/379
f 221/221/377 228/228/384 223/223/379
f 228/228/384 221/221/377 229/229/385
f 230/230/386 228/228/384 229/229/385
f 230/230/386 229/229/385 231/231/387
f 232/232/388 230/230/386 231/231/387
f 235/235/391 234/234/390 233/233/389
f 234/234/390 236/236/392 233/233/389
f 234/234/390 237/237/393 236/236/392
f 237/237/393 238/238/394 236/236/392
f 241/241/397 240/240/396 239/239/395
f 242/242/398 241/241/397 239/239/395
f 243/243/399 241/241/397 242/242/398
f 244/244/400 243/243/399 242/242/398
f 245/245/401 243/243/399 244/244/400
f 246/246/402 245/245/401 244/244/400
f 247/247/403 245/245/401 246/246/402
f 248/248/404 247/247/403 246/246/402
f 247/247/403 249/249/405 245/245/401
f 249/249/405 250/250/406 245/245/401
f 245/245/401 250/250/406 243/243/399
f 250/250/406 251/251/407 243/243/399
f 251/251/407 252/252/408 243/243/399
f 252/252/408 253/253/409 243/243/399
f 252/252/408 254/254/410 253/253/409
f 254/254/410 255/255/411 253/253/409
f 258/258/414 257/257/413 256/256/412
f 257/257/413 259/259/415 256/256/412
f 256/256/412 259/259/415 260/260/416
f 257/257/413 261/261/417 259/259/415
f 259/259/415 262/262/418 260/260/416
f 261/261/417 263/263/419 259/259/415
f 259/259/415 263/263/419 262/262/418
f 263/263/419 264/264/420 262/262/418
f 267/267/423 266/266/422 265/265/421
f 268/268/424 267/267/423 265/265/421
f 265/265/421 269/269/425 268/268/424
f 269/269/425 270/270/426 268/268/424
f 270/270/426 269/269/425 271/271/427
f 272/272/428 270/270/426 271/271/427
f 272/272/428 271/271/427 273/273/429
f 274/274/430 272/272/428 273/273/429
f 277/277/433 276/276/432 275/275/431
f 276/276/432 278/278/434 275/275/431
f 276/276/432 279/279/435 278/278/434
f 279/279/435 280/280/436 278/278/434
f 283/283/439 282/282/438 281/281/437
f 282/282/438 284/284/440 281/281/437
f 282/282/438 285/285/441 284/284/440
f 285/285/441 286/286/442 284/284/440
f 285/285/441 287/287/443 286/286/442
f 287/287/443 288/288/444 286/286/442
f 287/287/443 289/289/445 288/288/444
f 289/289/445 290/290/446 288/288/444
f 293/293/449 292/292/448 291/291/447
f 292/292/448 294/294/450 291/291/447
f 292/292/448 295/295/451 294/294/450
f 295/295/451 296/296/452 294/294/450
f 299/299/455 298/298/454 297/297/453
f 300/300/456 299/299/455 297/297/453
f 297/297/453 301/301/457 300/300/456
f 301/301/457 302/302/458 300/300/456
f 302/302/458 301/301/457 303/303/459
f 304/304/460 302/302/458 303/303/459
f 304/304/460 303/303/459 305/305/461
f 306/306/462 304/304/460 305/305/461
f 309/309/465 308/308/464 307/307/463
f 308/308/464 310/310/466 307/307/463
f 308/308/464 311/311/467 310/310/466
f 311/311/467 312/312/468 310/310/466
f 315/315/471 314/314/470 313/313/469
f 314/314/470 316/316/472 313/313/469
f 314/314/470 317/317/473 316/316/472
f 317/317/473 318/318/474 316/316/472
f 317/317/473 319/319/475 318/318/474
f 319/319/475 320/320/476 318/318/474
f 319/319/475 321/321/477 320/320/476
f 321/321/477 322/322/478 320/320/476
f 325/325/481 324/324/480 323/323/479
f 324/324/480 326/326/482 323/323/479
f 324/324/480 327/327/483 326/326/482
f 327/327/483 328/328/484 326/326/482
f 331/331/487 330/330/486 329/329/485
f 332/332/488 331/331/487 329/329/485
f 332/332/488 329/329/485 333/333/489
f 334/334/490 332/332/488 333/333/489
f 337/337/493 336/336/492 335/335/491
f 338/338/494 337/337/493 335/335/491
f 339/339/495 338/338/494 335/335/491
f 340/340/496 339/339/495 335/335/491
f 341/341/497 339/339/495 340/340/496
f 342/342/498 341/341/497 340/340/496
f 343/343/499 341/341/497 342/342/498
f 344/344/500 343/343/499 342/342/498
f 347/347/503 346/346/502 345/345/501
f 346/346/502 348/348/504 345/345/501
f 345/345/501 348/348/504 349/349/505
f 348/348/504 350/350/506 349/349/505
f 353/353/509 352/352/508 351/351/507
f 352/352/508 354/354/510 351/351/507
f 351/351/507 354/354/510 355/355/511
f 354/354/510 356/356/512 355/355/511
f 355/355/511 356/356/512 357/357/513
f 356/356/512 358/358/514 357/357/513
f 357/357/513 358/358/514 359/359/515
f 358/358/514 360/360/516 359/359/515
f 363/363/519 362/362/518 361/361/517
f 362/362/518 364/364/520 361/361/517
f 361/361/517 364/364/520 365/365/521
f 364/364/520 366/366/522 365/365/521
f 369/369/525 368/368/524 367/367/523
f 370/370/526 369/369/525 367/367/523
f 371/371/527 370/370/526 367/367/523
f 372/372/528 371/371/527 367/367/523
f 373/373/529 371/371/527 372/372/528
f 374/374/530 373/373/529 372/372/528
f 375/375/531 373/373/529 374/374/530
f 376/376/532 375/375/531 374/374/530
f 379/379/535 378/378/534 377/377/533
f 378/378/534 380/380/536 377/377/533
f 377/377/533 380/380/536 381/381/537
f 380/380/536 382/382/538 381/381/537
f 385/385/541 384/384/540 383/383/539
f 384/384/540 386/386/542 383/383/539
f 383/383/539 386/386/542 387/387/543
f 386/386/542 388/388/544 387/387/543
f 387/387/543 388/388/544 389/389/545
f 388/388/544 390/390/546 389/389/545
f 389/389/545 390/390/546 391/391/547
f 390/390/546 392/392/548 391/391/547
f 395/395/551 394/394/550 393/393/549
f 394/394/550 396/396/552 393/393/549
f 393/393/549 396/396/552 397/397/553
f 396/396/552 398/398/554 397/397/553
f 401/401/557 400/400/556 399/399/555
f 400/400/556 402/402/558 399/399/555
f 399/399/555 402/402/558 403/403/559
f 402/402/558 404/404/560 403/403/559
f 403/403/559 404/404/560 405/405/561
f 404/404/560 406/406/562 405/405/561
f 405/405/561 406/406/562 407/407/563
f 406/406/562 408/408/564 407/407/563
f 411/411/567 410/410/566 409/409/565
f 410/410/566 412/412/568 409/409/565
f 409/409/565 412/412/568 413/413/569
f 412/412/568 414/414/570 413/413/569
f 417/417/573 416/416/572 415/415/571
f 418/418/574 417/417/573 415/415/571
f 419/419/575 417/417/573 418/418/574
f 420/420/576 419/419/575 418/418/574
f 421/421/577 419/419/575 420/420/576
f 422/422/578 421/421/577 420/420/576
f 423/423/579 421/421/577 422/422/578
f 424/424/580 423/423/579 422/422/578
f 427/427/583 426/426/582 425/425/581
f 428/428/584 427/427/583 425/425/581
f 429/429/585 427/427/583 428/428/584
f 430/430/586 429/429/585 428/428/584
f 433/433/589 432/432/588 431/431/587
f 434/434/590 433/433/589 431/431/587
f 435/435/591 433/433/589 434/434/590
f 436/436/592 435/435/591 434/434/590
f 437/437/593 435/435/591 436/436/592
f 438/438/594 437/437/593 436/436/592
f 439/439/595 437/437/593 438/438/594
f 440/440/596 439/439/595 438/438/594
f 443/443/599 442/442/598 441/441/597
f 442/442/598 444/444/600 441/441/597
f 441/441/597 444/444/600 445/445/601
f 444/444/600 446/446/602 445/445/601
f 449/449/605 448/448/604 447/447/603
f 448/448/604 450/450/606 447/447/603
f 447/447/603 450/450/606 451/451/607
f 450/450/606 452/452/608 451/451/607
f 451/451/607 452/452/608 453/453/609
f 452/452/608 454/454/610 453/453/609
f 453/453/609 454/454/610 455/455/611
f 454/454/610 456/456/612 455/455/611
f 459/459/615 458/458/614 457/457/613
f 460/460/616 459/459/615 457/457/613
f 461/461/617 459/459/615 460/460/616
f 462/462/618 461/461/617 460/460/616
f 465/465/621 464/464/620 463/463/619
f 466/466/622 465/465/621 463/463/619
f 467/467/623 464/464/620 465/465/621
f 465/465/621 466/466/622 468/468/624
f 469/469/625 467/467/623 465/465/621
f 470/470/626 465/465/621 468/468/624
f 471/471/627 469/469/625 465/465/621
f 465/465/621 470/470/626 472/472/628
f 473/473/629 471/471/627 465/465/621
f 474/474/630 465/465/621 472/472/628
f 475/475/631 473/473/629 465/465/621
f 474/474/630 475/475/631 465/465/621
f 478/478/634 477/477/633 476/476/632
f 479/479/635 478/478/634 476/476/632
f 477/477/633 478/478/634 480/480/636
f 479/479/635 481/481/637 478/478/634
f 478/478/634 482/482/638 480/480/636
f 481/481/637 483/483/639 478/478/634
f 482/482/638 478/478/634 484/484/640
f 483/483/639 485/485/641 478/478/634
f 478/478/634 486/486/642 484/484/640
f 485/485/641 487/487/643 478/478/634
f 488/488/644 486/486/642 478/478/634
f 487/487/643 488/488/644 478/478/634
f 491/491/647 490/490/646 489/489/645
f 490/490/646 492/492/648 489/489/645
f 493/493/649 491/491/647 489/489/645
f 489/489/645 492/492/648 494/494/650
f 495/495/651 493/493/649 489/489/645
f 496/496/652 489/489/645 494/494/650
f 497/497/653 495/495/651 489/489/645
f 489/489/645 496/496/652 498/498/654
f 499/499/655 497/497/653 489/489/645
f 500/500/656 489/489/645 498/498/654
f 499/499/655 489/489/645 501/501/657
f 489/489/645 500/500/656 501/501/657
f 504/504/660 503/503/659 502/502/658
f 503/503/659 505/505/661 502/502/658
f 504/504/660 502/502/658 506/506/662
f 505/505/661 507/507/663 502/502/658
f 502/502/658 508/508/664 506/506/662
f 507/507/663 509/509/665 502/502/658
f 508/508/664 502/502/658 510/510/666
f 509/509/665 511/511/667 502/502/658
f 502/502/658 512/512/668 510/510/666
f 511/511/667 513/513/669 502/502/658
f 512/512/668 502/502/658 514/514/670
f 502/502/658 513/513/669 514/514/670
f 517/517/673 516/516/672 515/515/671
f 518/518/674 517/517/673 515/515/671
f 515/515/671 516/516/672 519/519/675
f 520/520/676 517/517/673 518/518/674
f 516/516/672 521/521/677 519/519/675
f 522/522/678 520/520/676 518/518/674
f 519/519/675 521/521/677 523/523/679
f 524/524/680 520/520/676 522/522/678
f 521/521/677 525/525/681 523/523/679
f 526/526/682 524/524/680 522/522/678
f 523/523/679 525/525/681 527/527/683
f 528/528/684 524/524/680 526/526/682
f 525/525/681 529/529/685 527/527/683
f 530/530/686 528/528/684 526/526/682
f 527/527/683 529/529/685 531/531/687
f 532/532/688 528/528/684 530/530/686
f 529/529/685 533/533/689 531/531/687
f 534/534/690 532/532/688 530/530/686
f 531/531/687 533/533/689 535/535/691
f 536/536/692 532/532/688 534/534/690
f 533/533/689 537/537/693 535/535/691
f 538/538/694 536/536/692 534/534/690
f 535/535/691 537/537/693 538/538/694
f 537/537/693 536/536/692 538/538/694
f 541/541/697 540/540/696 539/539/695
f 542/542/698 541/541/697 539/539/695
f 539/539/695 540/540/696 543/543/699
f 544/544/700 541/541/697 542/542/698
f 540/540/696 545/545/701 543/543/699
f 546/546/702 544/544/700 542/542/698
f 543/543/699 545/545/701 547/547/703
f 548/548/704 544/544/700 546/546/702
f 545/545/701 549/549/705 547/547/703
f 550/550/706 548/548/704 546/546/702
f 547/547/703 549/549/705 551/551/707
f 552/552/708 548/548/704 550/550/706
f 549/549/705 553/553/709 551/551/707
f 554/554/710 552/552/708 550/550/706
f 551/551/707 553/553/709 555/555/711
f 556/556/712 552/552/708 554/554/710
f 553/553/709 557/557/713 555/555/711
f 558/558/714 556/556/712 554/554/710
f 555/555/711 557/557/713 559/559/715
f 560/560/716 556/556/712 558/558/714
f 557/557/713 561/561/717 559/559/715
f 562/562/718 560/560/716 558/558/714
f 559/559/715 561/561/717 562/562/718
f 561/561/717 560/560/716 562/562/718
f 565/565/721 564/564/720 563/563/719
f 566/566/722 565/565/721 563/563/719
f 565/565/721 567/567/723 564/564/720
f 566/566/722 563/563/719 568/568/724
f 567/567/723 569/569/725 564/564/720
f 570/570/726 566/566/722 568/568/724
f 567/567/723 571/571/727 569/569/725
f 570/570/726 568/568/724 572/572/728
f 571/571/727 573/573/729 569/569/725
f 574/574/730 570/570/726 572/572/728
f 571/571/727 575/575/731 573/573/729
f 574/574/730 572/572/728 576/576/732
f 575/575/731 577/577/733 573/573/729
f 578/578/734 574/574/730 576/576/732
f 575/575/731 579/579/735 577/577/733
f 578/578/734 576/576/732 580/580/736
f 579/579/735 581/581/737 577/577/733
f 582/582/738 578/578/734 580/580/736
f 579/579/735 583/583/739 581/581/737
f 582/582/738 580/580/736 584/584/740
f 583/583/739 585/585/741 581/581/737
f 586/586/742 582/582/738 584/584/740
f 586/586/742 584/584/740 585/585/741
f 583/583/739 586/586/742 585/585/741
f 589/589/745 588/588/744 587/587/743
f 590/590/746 589/589/745 587/587/743
f 589/589/745 591/591/747 588/588/744
f 590/590/746 587/587/743 592/592/748
f 591/591/747 593/593/749 588/588/744
f 594/594/750 590/590/746 592/592/748
f 591/591/747 595/595/751 593/593/749
f 594/594/750 592/592/748 596/596/752
f 595/595/751 597/597/753 593/593/749
f 598/598/754 594/594/750 596/596/752
f 595/595/751 599/599/755 597/597/753
f 598/598/754 596/596/752 600/600/756
f 599/599/755 601/601/757 597/597/753
f 602/602/758 598/598/754 600/600/756
f 599/599/755 603/603/759 601/601/757
f 602/602/758 600/600/756 604/604/760
f 603/603/759 605/605/761 601/601/757
f 606/606/762 602/602/758 604/604/760
f 603/603/759 607/607/763 605/605/761
f 606/606/762 604/604/760 608/608/764
f 607/607/763 609/609/765 605/605/761
f 610/610/766 606/606/762 608/608/764
f 610/610/766 608/608/764 609/609/765
f 607/607/763 610/610/766 609/609/765
f 613/613/769 612/612/768 611/611/767
f 614/614/770 613/613/769 611/611/767
f 613/613/769 615/615/771 612/612/768
f 614/614/770 611/611/767 616/616/772
f 615/615/771 617/617/773 612/612/768
f 618/618/774 614/614/770 616/616/772
f 615/615/771 619/619/775 617/617/773
f 618/618/774 616/616/772 620/620/776
f 619/619/775 621/621/777 617/617/773
f 622/622/778 618/618/774 620/620/776
f 619/619/775 623/623/779 621/621/777
f 622/622/778 620/620/776 624/624/780
f 623/623/779 625/625/781 621/621/777
f 626/626/782 622/622/778 624/624/780
f 623/623/779 627/627/783 625/625/781
f 626/626/782 624/624/780 628/628/784
f 627/627/783 629/629/785 625/625/781
f 630/630/786 626/626/782 628/628/784
f 627/627/783 631/631/787 629/629/785
f 630/630/786 628/628/784 632/632/788
f 631/631/787 633/633/789 629/629/785
f 634/634/790 630/630/786 632/632/788
f 634/634/790 632/632/788 633/633/789
f 631/631/787 634/634/790 633/633/789
f 637/637/793 636/636/792 635/635/791
f 638/638/794 637/637/793 635/635/791
f 637/637/793 639/639/795 636/636/792
f 638/638/794 635/635/791 640/640/796
f 639/639/795 641/641/797 636/636/792
f 642/642/798 638/638/794 640/640/796
f 639/639/795 643/643/799 641/641/797
f 642/642/798 640/640/796 644/644/800
f 643/643/799 645/645/801 641/641/797
f 646/646/802 642/642/798 644/644/800
f 643/643/799 647/647/803 645/645/801
f 646/646/802 644/644/800 648/648/804
f 647/647/803 649/649/805 645/645/801
f 650/650/806 646/646/802 648/648/804
f 647/647/803 651/651/807 649/649/805
f 650/650/806 648/648/804 652/652/808
f 651/651/807 653/653/809 649/649/805
f 654/654/810 650/650/806 652/652/808
f 651/651/807 655/655/811 653/653/809
f 654/654/810 652/652/808 656/656/812
f 655/655/811 657/657/813 653/653/809
f 658/658/814 654/654/810 656/656/812
f 658/658/814 656/656/812 657/657/813
f 655/655/811 658/658/814 657/657/813
f 661/661/817 660/660/816 659/659/815
f 662/662/818 661/661/817 659/659/815
f 659/659/815 660/660/816 663/663/819
f 664/664/820 661/661/817 662/662/818
f 660/660/816 665/665/821 663/663/819
f 666/666/822 664/664/820 662/662/818
f 663/663/819 665/665/821 667/667/823
f 668/668/824 664/664/820 666/666/822
f 665/665/821 669/669/825 667/667/823
f 670/670/826 668/668/824 666/666/822
f 667/667/823 669/669/825 671/671/827
f 672/672/828 668/668/824 670/670/826
f 669/669/825 673/673/829 671/671/827
f 674/674/830 672/672/828 670/670/826
f 671/671/827 673/673/829 675/675/831
f 676/676/832 672/672/828 674/674/830
f 673/673/829 677/677/833 675/675/831
f 678/678/834 676/676/832 674/674/830
f 675/675/831 677/677/833 679/679/835
f 680/680/836 676/676/832 678/678/834
f 677/677/833 681/681/837 679/679/835
f 682/682/838 680/680/836 678/678/834
f 679/679/835 681/681/837 682/682/838
f 681/681/837 680/680/836 682/682/838
f 685/685/841 684/684/840 683/683/839
f 686/686/842 685/685/841 683/683/839
f 683/683/839 684/684/840 687/687/843
f 688/688/844 685/685/841 686/686/842
f 684/684/840 689/689/845 687/687/843
f 690/690/846 688/688/844 686/686/842
f 687/687/843 689/689/845 691/691/847
f 692/692/848 688/688/844 690/690/846
f 689/689/845 693/693/849 691/691/847
f 694/694/850 692/692/848 690/690/846
f 691/691/847 693/693/849 695/695/851
f 696/696/852 692/692/848 694/694/850
f 693/693/849 697/697/853 695/695/851
f 698/698/854 696/696/852 694/694/850
f 695/695/851 697/697/853 699/699/855
f 700/700/856 696/696/852 698/698/854
f 697/697/853 701/701/857 699/699/855
f 702/702/858 700/700/856 698/698/854
f 699/699/855 701/701/857 703/703/859
f 704/704/860 700/700/856 702/702/858
f 701/701/857 705/705/861 703/703/859
f 706/706/862 704/704/860 702/702/858
f 703/703/859 705/705/861 706/706/862
f 705/705/861 704/704/860 706/706/862
f 709/709/865 708/708/864 707/707/863
f 710/710/866 709/709/865 707/707/863
f 707/707/863 708/708/864 711/711/867
f 712/712/868 709/709/865 710/710/866
f 708/708/864 713/713/869 711/711/867
f 714/714/870 712/712/868 710/710/866
f 711/711/867 713/713/869 715/715/871
f 716/716/872 712/712/868 714/714/870
f 713/713/869 717/717/873 715/715/871
f 718/718/874 716/716/872 714/714/870
f 715/715/871 717/717/873 719/719/875
f 720/720/876 716/716/872 718/718/874
f 717/717/873 721/721/877 719/719/875
f 722/722/878 720/720/876 718/718/874
f 719/719/875 721/721/877 723/723/879
f 724/724/880 720/720/876 722/722/878
f 721/721/877 725/725/881 723/723/879
f 726/726/882 724/724/880 722/722/878
f 723/723/879 725/725/881 727/727/883
f 728/728/884 724/724/880 726/726/882
f 725/725/881 729/729/885 727/727/883
f 730/730/886 728/728/884 726/726/882
f 727/727/883 729/729/885 730/730/886
f 729/729/885 728/728/884 730/730/886
f 733/733/889 732/732/888 731/731/887
f 734/734/890 733/733/889 731/731/887
f 731/731/887 732/732/888 735/735/891
f 736/736/892 733/733/889 734/734/890
f 732/732/888 737/737/893 735/735/891
f 738/738/894 736/736/892 734/734/890
f 735/735/891 737/737/893 739/739/895
f 740/740/896 736/736/892 738/738/894
f 737/737/893 741/741/897 739/739/895
f 742/742/898 740/740/896 738/738/894
f 739/739/895 741/741/897 743/743/899
f 744/744/900 740/740/896 742/742/898
f 741/741/897 745/745/901 743/743/899
f 746/746/902 744/744/900 742/742/898
f 743/743/899 745/745/901 747/747/903
f 748/748/904 744/744/900 746/746/902
f 745/745/901 749/749/905 747/747/903
f 750/750/906 748/748/904 746/746/902
f 747/747/903 749/749/905 751/751/907
f 752/752/908 748/748/904 750/750/906
f 749/749/905 753/753/909 751/751/907
f 754/754/910 752/752/908 750/750/906
f 751/751/907 753/753/909 754/754/910
f 753/753/909 752/752/908 754/754/910
