mtllib RoboTHOR_plate_ai2_v.mtl
g robothor_plate_ai2
v -0.1038006 0.01979023 -0.01259763
v -0.1040109 0.02038846 -0.0126225
v -0.1040096 0.02038785 0.01262268
v -0.1038013 0.01978893 0.01259718
v -0.09788143 0.0203869 0.03711989
v -0.0976861 0.01979064 -0.03704593
v -0.09788463 0.02038869 -0.03712105
v -0.09768812 0.01978702 0.03704597
v -0.08619586 0.02038599 0.05950631
v -0.08830038 0.01230243 -0.01071649
v -0.08602548 0.01979039 -0.05938841
v -0.08619955 0.02038862 -0.05950942
v -0.08602828 0.01978525 0.05938935
v -0.06949207 0.02038529 0.07843435
v -0.06935798 0.01978384 0.07828268
v -0.04865715 0.02038491 0.09269675
v -0.07316624 0.01204559 0.05050991
v -0.08309072 0.01214315 0.03151013
v -0.08829527 0.01223592 0.01071533
v -0.08310156 0.01232832 -0.03151493
v -0.06935535 0.01978933 -0.07828101
v -0.06949475 0.02038804 -0.07843884
v -0.04856369 0.01978296 0.09251896
v -0.02505252 0.02038476 0.1016705
v -0.07318067 0.01231288 -0.0505208
v -0.04856189 0.01978752 -0.09251715
v -0.04865807 0.02038717 -0.09270123
v -0.02500508 0.0197827 0.1014758
v -4.76588E-07 0.02038474 0.1047989
v -0.05899605 0.01225601 -0.06658834
v -0.02500411 0.01978563 -0.1014744
v -0.0250521 0.02038627 -0.1016736
v -4.866578E-07 0.0197827 0.1045982
v 0.02505161 0.02038478 0.1016705
v -5.047936E-09 0.01978413 -0.1045975
v 4.674188E-07 0.02038544 -0.1048005
v 0.02500451 0.01978314 -0.1014757
v 0.02505244 0.02038497 -0.101671
v -2.012489E-07 0.01198575 -0.08895448
v -0.02126633 0.01206875 -0.08630453
v 0.04856326 0.0197827 -0.09251928
v 0.04865678 0.0203848 -0.09269658
v 0.02500412 0.01978263 0.1014759
v 0.04865625 0.02038473 0.09269667
v 0.04856289 0.01978262 0.09251952
v 0.06949079 0.02038475 0.0784337
v 0.02126332 0.0119138 0.08629514
v -0.04130636 0.01216793 -0.07869404
v 0.02126409 0.01193782 -0.08629678
v 0.06935761 0.01978271 0.07828367
v 0.08619347 0.02038479 0.05950495
v -6.108139E-07 0.01191333 0.08894932
v 0.08602879 0.01978265 0.05939072
v 0.09787728 0.02038472 0.03711832
v -0.02126453 0.01191586 0.08629499
v 0.09769001 0.01978259 0.03704741
v 0.1040036 0.02038475 0.01262188
v -0.04129941 0.01193068 0.07867932
v 0.1038045 0.0197827 0.01259809
v 0.1040036 0.02038478 -0.01262145
v 0.1038045 0.01978268 -0.01259766
v 0.09787742 0.02038473 -0.03711791
v 0.08827401 0.01191321 0.01071324
v 0.08307539 0.01191374 0.03150508
v -0.05898395 0.01196979 0.06657349
v 0.09769015 0.01978258 -0.03704701
v 0.08619374 0.02038475 -0.0595046
v 0.07315858 0.01191373 0.05050576
v 0.08602908 0.01978267 -0.05939039
v 0.06949114 0.02038477 -0.07843342
v 0.06935792 0.0197827 -0.07828338
v 0.07315807 0.01191324 -0.05050503
v 0.08307552 0.01191374 -0.03150482
v 0.04129811 0.01191785 -0.07867866
v 0.05898078 0.01191324 0.06657157
v 0.08827405 0.01191321 -0.01071296
v 0.05898106 0.01191327 -0.06657141
v 0.04129772 0.0119138 0.07867862
v 0.03607406 0.005478648 -0.06872575
v 0.05152061 0.005476086 -0.05815063
v 0.063905 0.005476437 -0.04411697
v 0.0725672 0.005476356 -0.02751964
v 0.07710829 0.005476045 -0.009357821
v 0.01857398 0.005490544 -0.0753787
v 0.07710888 0.005476344 0.009358217
v -7.095942E-11 0.005518554 -0.07769544
v 0.07256728 0.005476448 0.02752001
v -0.01857258 0.005567239 -0.07537325
v 0.06390417 0.005476047 0.0441168
v -0.03606988 0.005625387 -0.06871816
v 0.0515206 0.005476232 0.05815111
v -0.05151214 0.005677395 -0.05814148
v 0.0360741 0.005476484 0.06872651
v -0.06389173 0.005710117 -0.0441082
v 0.01857368 0.005476113 0.07537885
v -0.07255247 0.005719444 -0.02751439
v -3.578294E-07 0.00547613 0.07769799
v -0.077094 0.005704291 -0.00935642
v -0.01857453 0.005477691 0.0753793
v -0.07709588 0.005665237 0.009356247
v -0.03607414 0.005486042 0.06872504
v -0.07255889 0.005610502 0.0275163
v -0.05151933 0.005509279 0.05814862
v -0.06390078 0.005553695 0.0441137
v -1.603121E-07 0.00326329 0.07506873
v -0.01794551 0.003263704 0.07282738
v -0.03485389 0.003270339 0.06640074
v -0.04978 0.00328751 0.05618573
v -0.06174869 0.003318855 0.04262818
v -0.07012478 0.003360199 0.02659332
v -0.04793869 0.002061968 0.05410735
v -0.0335672 0.002052317 0.0639492
v 0.01794533 0.003263285 0.07282805
v -0.07452014 0.003400441 0.009043718
v -0.07452369 0.003428109 -0.009044465
v -0.05945858 0.002081039 0.0410471
v -0.07173286 0.002127346 0.008705423
v -0.07013545 0.003438864 -0.02659781
v 0.03485286 0.0032628 0.06639956
v 0.04977705 0.003263132 0.056183
v 0.03356741 0.002048539 0.06395078
v -0.06751291 0.002104658 0.02560276
v -0.07172988 0.002143976 -0.008705404
v -0.06176292 0.003432706 -0.04263865
v 0.06174204 0.003263362 0.04262405
v -0.06750364 0.002150282 -0.02559971
v -0.04979138 0.003408409 -0.05619945
v 0.07011062 0.00326289 0.02658832
v -0.0594459 0.002146123 -0.04103902
v -0.03486019 0.003370113 -0.06641384
v -0.01794758 0.003328771 -0.07283749
v -0.03356107 0.002111054 -0.06393863
v 1.853397E-07 0.003293718 -0.07507325
v 0.07449884 0.003262972 0.009041465
v -0.0479283 0.002132589 -0.05409649
v -0.01728123 0.002086397 -0.07013281
v 0.01794584 0.003272864 -0.0728287
v 0.07449945 0.003263388 -0.009041157
v 0.07011089 0.003263016 -0.02658802
v 0.07175031 0.002047978 -0.008707557
v 0.03485348 0.003264885 -0.06640001
v 0.06174162 0.003262848 -0.04262332
v 0.0497775 0.003263376 -0.05618297
v 0.04794065 0.002048008 -0.05410988
v 0.03356735 0.002049206 -0.06394999
v 0.05946446 0.002048511 -0.04105137
v 0.07175085 0.002048389 0.008707953
v 0.01728326 0.002054483 -0.07014025
v 0.0675246 0.002048315 -0.02560729
v 0.06752466 0.002048441 0.02560766
v 7.04208E-08 0.002065907 -0.07229505
v 0.05946371 0.002048 0.04105125
v 0.04794063 0.00204823 0.05411035
v 0.06881378 0.0009301729 -0.008351204
v 0.06475981 0.0009299969 -0.02455884
v 0.06881306 0.0009300239 0.008351405
v 0.06475952 0.0009299509 0.02455904
v 0.05702994 0.0009301611 0.03937111
v 0.04597802 0.0009300783 0.05189522
v 0.05702939 0.0009299761 -0.03937038
v 0.0459785 0.0009301651 -0.05189532
v 0.03219324 0.0009305411 -0.06133227
v 0.01657573 0.0009327205 -0.0672692
v 4.253725E-18 0.000938506 -0.06934
v -0.01657606 0.0009481692 -0.06727074
v -0.03219345 0.0009594386 -0.06133301
v -0.04597933 0.000969985 -0.05189663
v -0.05703186 0.0009766545 -0.03937243
v -0.06476181 0.0009782304 -0.02455991
v -0.06881538 0.0009753351 -0.008351697
v -0.0688157 0.000967774 0.008351376
v -0.06476116 0.0009566558 0.02455918
v -0.05703025 0.0009453529 0.03937066
v -0.04597898 0.0009367715 0.05189537
v -0.03219359 0.0009320228 0.0613322
v -0.05616857 -0.0003543044 -0.03877645
v -0.06378151 -0.0003527533 -0.02418814
v -0.06777373 -0.000355604 -0.008225278
v -0.06777404 -0.0003630508 0.008224958
v -0.06378087 -0.0003740009 0.02418742
v -0.05616699 -0.0003851321 0.03877469
v -0.04528301 -0.0003935846 0.05110982
v -0.04528334 -0.0003608736 -0.05111107
v -0.03170615 -0.0003712594 -0.06040461
v -0.01632516 -0.0003823587 -0.06625246
v -1.458029E-08 -0.0003918753 -0.06829039
v 0.01632481 -0.0003975733 -0.06625094
v 0.03170591 -0.0003997204 -0.06040388
v 0.0452825 -0.0004000909 -0.05110978
v 0.05616611 -0.0004002765 -0.03877443
v 0.06377952 -0.0004002557 -0.0241871
v 0.06777211 -0.0004000831 -0.008224792
v 0.0677714 -0.0004002288 0.008224986
v 0.06377923 -0.0004003017 0.02418728
v 0.05616666 -0.0004000949 0.03877514
v 0.04528203 -0.000400176 0.05110967
v 0.04244836 -0.001316175 -0.04791092
v 0.05265145 -0.001316175 -0.03634807
v -7.955418E-08 -0.001316175 -2.996125E-08
v 0.05978836 -0.001316175 -0.02267353
v 0.02972169 -0.001316175 -0.05662369
v 0.06353036 -0.001316175 -0.007710015
v 0.01530327 -0.001316175 -0.06210525
v 0.06353032 -0.001316175 0.007710272
v -1.458029E-08 -0.001316175 -0.06401608
v 0.05978826 -0.001316175 0.02267377
v -0.01530325 -0.001316175 -0.06210525
v 0.0526513 -0.001316175 0.03634829
v -0.02972159 -0.001316175 -0.05662375
v -0.04244822 -0.001316175 -0.04791107
v -0.05265134 -0.001316175 -0.03634829
v -0.05978829 -0.001316175 -0.02267378
v -0.06353036 -0.001316175 -0.007710286
v -0.06353039 -0.001316175 0.007709955
v 0.04244816 -0.001316175 0.04791109
v -0.05978844 -0.001316175 0.02267339
v -0.05265163 -0.001316175 0.03634787
v -0.04244862 -0.001316175 0.04791071
v 0.03170538 -0.0004003168 0.06040347
v -0.029722 -0.001316175 0.05662353
v -0.03170628 -0.0003982603 0.0604038
v 0.02972146 -0.001316175 0.05662381
v 0.0321927 0.0009299356 0.06133186
v 0.0163247 -0.0004001301 0.0662517
v 0.01728311 0.002048071 0.07014094
v 0.01657562 0.0009301244 0.06726997
v 0.01530301 -0.001316175 0.0621053
v -2.624778E-07 0.002048069 0.07229894
v -3.290201E-07 -0.0004001299 0.06829005
v -3.093407E-07 -0.001316175 0.06401608
v -0.01728375 0.00204908 0.07014132
v -3.192727E-07 0.0009301247 0.06933966
v -0.01657605 0.0009301926 0.06726903
v -0.01632515 -0.0004000635 0.06625076
v -0.01530361 -0.001316175 0.06210516
v -0.1040096 0.02038785 0.01262268
v -0.1040109 0.02038846 -0.0126225
v -0.1037514 0.02093293 -0.01259012
v -0.1037484 0.02093143 0.01259126
v -0.09788143 0.0203869 0.03711989
v -0.0976407 0.02093339 -0.03702832
v -0.09788463 0.02038869 -0.03712105
v -0.0976328 0.02092932 0.03702643
v -0.08619586 0.02038599 0.05950631
v -0.08598406 0.02093315 -0.05936175
v -0.08619955 0.02038862 -0.05950942
v -0.08597457 0.02092742 0.05935526
v -0.06949207 0.02038529 0.07843435
v -0.06932025 0.02093209 -0.07824252
v -0.06949475 0.02038804 -0.07843884
v -0.06931301 0.02092583 0.07823269
v -0.04865715 0.02038491 0.09269675
v -0.04853445 0.02093004 -0.09246678
v -0.04865807 0.02038717 -0.09270123
v -0.04853136 0.02092469 0.09245677
v -0.02505252 0.02038476 0.1016705
v -0.02498671 0.02092787 -0.1014144
v -0.0250521 0.02038627 -0.1016736
v -0.02498691 0.02092433 0.1014071
v -4.76588E-07 0.02038474 0.1047989
v 1.098311E-06 0.02092623 -0.1045312
v 4.674188E-07 0.02038544 -0.1048005
v -4.673009E-07 0.02092451 0.1045275
v 0.02505161 0.02038478 0.1016705
v 0.0249874 0.02092486 -0.1014083
v 0.02505244 0.02038497 -0.101671
v 0.02498605 0.02092436 0.101407
v 0.04865625 0.02038473 0.09269667
v 0.04853114 0.02092439 -0.09245607
v 0.04865678 0.0203848 -0.09269658
v 0.0485304 0.02092431 0.09245597
v 0.06949079 0.02038475 0.0784337
v 0.06931138 0.02092446 -0.07823011
v 0.06949114 0.02038477 -0.07843342
v 0.06931099 0.0209245 0.07823034
v 0.08619347 0.02038479 0.05950495
v 0.08597 0.02092428 -0.05935087
v 0.08619374 0.02038475 -0.0595046
v 0.0859697 0.02092441 0.05935119
v 0.09787728 0.02038472 0.03711832
v 0.09762352 0.02092424 -0.03702145
v 0.09787742 0.02038473 -0.03711791
v 0.09762335 0.02092427 0.03702186
v 0.1040036 0.02038475 0.01262188
v 0.1037342 0.02092436 -0.01258825
v 0.1040036 0.02038478 -0.01262145
v 0.1037342 0.02092436 0.01258869
v 0.0689092 0.02112364 -0.07777585
v 0.08547054 0.02112338 -0.05900662
v 0.0970566 0.02112314 -0.03680634
v 0.103132 0.02112351 -0.01251479
v 0.103132 0.02112351 0.01251522
v 0.09705646 0.02112315 0.03680676
v 0.07256514 0.01323297 -0.05009768
v 0.04824969 0.02112352 -0.09191898
v 0.08755985 0.01323292 0.01062535
v 0.08547042 0.02112345 0.05900705
v 0.08240301 0.01323332 -0.03124936
v 0.02484217 0.02112471 -0.1008196
v 0.08755992 0.01323293 -0.01062497
v 0.08240287 0.01323331 0.03124963
v 0.06890884 0.02112363 0.07777616
v 1.618486E-06 0.02112762 -0.1039252
v -0.02484088 0.02113141 -0.1008273
v 3.539016E-06 0.01330642 -0.08823621
v -0.04825348 0.02113627 -0.09193245
v 0.0725654 0.01323329 0.05009826
v 0.04824891 0.02112322 0.09191899
v 0.02109228 0.01325756 -0.08559822
v -0.02108862 0.01338969 -0.08560926
v -0.06891998 0.02114105 -0.07779129
v 0.05850405 0.01323295 0.06603248
v 0.02484054 0.02112333 0.1008184
v -4.637861E-07 0.02112366 0.1039207
v 0.02108956 0.01323334 0.08559685
v -0.0248413 0.02112347 0.1008184
v -0.08548782 0.02114367 -0.05902005
v 0.04096441 0.01323333 0.07804097
v -5.961205E-07 0.01323301 0.08822957
v -0.04824969 0.02112424 0.09191991
v -0.09707768 0.0211442 -0.03681462
v -0.02109031 0.01323538 0.08559673
v -0.06891083 0.02112679 0.07777914
v -0.1031531 0.02114322 -0.0125168
v -0.1031492 0.02113989 0.01251882
v -0.08759295 0.01362631 -0.01062681
v -0.08243545 0.01365228 -0.03126145
v -0.04096493 0.01325049 0.07804271
v -0.08547588 0.02113038 0.05901237
v -0.09706763 0.02113489 0.03681278
v -0.07257248 0.01336691 0.05010805
v -0.08242002 0.01346525 0.03126097
v -0.0725916 0.01363668 -0.05011877
v -0.05850503 0.01328984 0.06603681
v -0.08758578 0.01355904 0.01063265
v -0.05851987 0.01357933 -0.0660562
v -0.04097014 0.01349028 -0.07806282
v -0.07171766 0.006937737 -0.02719677
v -0.07620934 0.006923954 -0.009246253
v -0.07621332 0.00688714 0.009253568
v -0.07173239 0.006835491 0.02720564
v -0.06315485 0.006928461 -0.04360287
v -0.05091985 0.006897422 -0.05747537
v -0.03565281 0.006847899 -0.06793573
v -0.01835698 0.006792744 -0.07451723
v -0.06317527 0.006781838 0.04361827
v 4.913908E-06 0.006747114 -0.07681721
v -0.05093579 0.006739425 0.05749507
v 0.01836514 0.006721043 -0.07452912
v -0.03566824 0.006717148 0.06795118
v -0.01836295 0.006709363 0.07453217
v -3.301352E-07 0.006707841 0.07682449
v 0.01836315 0.00670763 0.07453129
v 0.03566971 0.006708143 0.06795283
v 0.05094194 0.006707963 0.05749689
v 0.06318444 0.006707574 0.04362192
v 0.07175121 0.006708055 0.02720989
v 0.07624216 0.006708089 0.009251679
v 0.07624137 0.006707628 -0.009250892
v 0.071751 0.006707903 -0.02720965
v 0.03447746 0.004547006 0.06568111
v 0.04923986 0.004547372 0.05557537
v 0.06107344 0.004547437 0.04216503
v 0.06935287 0.004547045 0.02630031
v 0.07369404 0.004547233 0.008942128
v 0.07369447 0.004547496 -0.008941742
v 0.01774935 0.00454735 0.07204121
v 0.06935305 0.004547126 -0.02630011
v 0.07117988 0.003435839 -0.00863726
v 0.07118021 0.003436157 0.008637614
v 0.06698744 0.003436186 0.02540352
v 0.03330112 0.003436258 0.0634414
v -1.024827E-07 0.004547489 0.07425759
v 0.05899005 0.003435854 0.04072585
v 0.01714439 0.00343593 0.06958339
v -0.01774863 0.004547912 0.07204084
v 0.04755976 0.003436032 0.05367963
v -0.03447543 0.004554064 0.06568272
v -0.04923651 0.004570295 0.05557965
v -0.0610697 0.004599622 0.04217281
v -0.04755238 0.003447354 0.05367371
v -0.0332989 0.003439116 0.06343835
v -0.01714442 0.003436513 0.06958288
v -0.06935215 0.004637673 0.02631043
v -0.05897381 0.003464153 0.04071804
v -2.390109E-07 0.003435861 0.07172392
v -0.07369667 0.00467446 0.008950213
v -0.07369751 0.004699393 -0.008937871
v -0.0711414 0.003506391 0.008635555
v -0.06935508 0.004708419 -0.02630067
v -0.06695909 0.00348549 0.02539627
v -0.07113639 0.003521911 -0.008630539
v -0.06107226 0.004702047 -0.04216891
v -0.06694467 0.003528181 -0.0253871
v -0.04923434 0.004679264 -0.05558034
v -0.05895409 0.003525152 -0.04070287
v -0.0344684 0.004643638 -0.06568462
v -0.01773983 0.004605572 -0.07204173
v -0.03328617 0.003494127 -0.06342091
v -3.031949E-06 0.004573931 -0.0742546
v -0.04753426 0.003513478 -0.05365516
v -0.01713743 0.003471736 -0.06957001
v -0.0638831 0.002219805 -0.02422726
v -0.05626028 0.002218099 -0.03883358
v -7.955418E-08 0.002212714 -2.996125E-08
v -0.04535694 0.002212714 -0.05119305
v -0.06788347 0.002218329 -0.008245669
v -0.03177331 0.002204232 -0.0604928
v -0.06788866 0.002212886 0.008223648
v -0.06388715 0.00220444 0.02422763
v -0.05627268 0.002195873 0.03882973
v -0.04537029 0.002188935 0.05119142
v -0.01636739 0.002195547 -0.06635652
v -0.03176251 0.002184873 0.06050726
v 3.998633E-07 0.002188665 -0.06840651
v 2.687862E-06 0.003452721 -0.07171745
v -0.01635396 0.002183494 0.0663658
v -5.555618E-07 0.002183466 0.06840876
v 0.01635182 0.002183282 0.06636649
v 0.0317611 0.002183218 0.06050774
v 0.04536163 0.002183456 0.05119769
v 0.05626316 0.002183349 0.03884324
v 0.06388972 0.002183179 0.02422881
v 0.06788936 0.002183407 0.008238348
v 0.06788968 0.002183409 -0.00823807
v 0.06389006 0.002183178 -0.02422827
v 0.06698739 0.003436077 -0.02540321
v 0.05626304 0.002183345 -0.03884277
v 0.0589906 0.00343626 -0.04072585
v 0.04536115 0.002183401 -0.0511983
v 0.06107322 0.004547103 -0.04216442
v 0.04755995 0.003435863 -0.05367915
v 0.03176235 0.002183312 -0.06050718
v 0.0631856 0.006708193 -0.0436223
v 0.01635055 0.002184722 -0.06636528
v 0.03330143 0.003436965 -0.06344045
v 0.01714434 0.003441928 -0.06958178
v 0.01774818 0.004555433 -0.07203926
v 0.04924039 0.004547468 -0.05557499
v 0.03447871 0.004548485 -0.06568023
v 0.03566938 0.006709859 -0.06795137
v 0.0509421 0.006707703 -0.05749605
v 0.04096513 0.01323737 -0.07804072
v 0.05850445 0.01323299 -0.0660322
vn -0.4561532 -0.8880851 -0.05682353
vn -0.9916202 0.04229552 -0.1220679
vn -0.9914903 0.04513796 0.1221045
vn -0.4590258 -0.8867024 0.05526488
vn -0.9336728 0.04932011 0.3547147
vn -0.4288698 -0.8885418 -0.1629854
vn -0.9340252 0.0413674 -0.3548037
vn -0.4363718 -0.8846565 0.1642023
vn -0.8229876 0.05321666 0.5655611
vn -0.4555424 -0.888377 -0.05716119
vn -0.3788373 -0.8882741 -0.259714
vn -0.8234382 0.04191478 -0.5658557
vn -0.387986 -0.8827212 0.2650851
vn -0.6613674 0.05633037 0.7479438
vn -0.3138318 -0.8811926 0.3535664
vn -0.4626026 0.05865219 0.8846234
vn -0.3834408 -0.8858976 0.2610718
vn -0.4330213 -0.8866743 0.1621765
vn -0.4570988 -0.887746 0.05447549
vn -0.4290431 -0.8884348 -0.1631126
vn -0.3065431 -0.8871422 -0.3449785
vn -0.6617563 0.0442696 -0.7484109
vn -0.2204089 -0.8801064 0.4205146
vn -0.2408876 0.05956126 0.9687237
vn -0.3788104 -0.8884143 -0.2592732
vn -0.2168792 -0.8851846 -0.4115964
vn -0.462828 0.0482755 -0.8851326
vn -0.114826 -0.8797268 0.4614061
vn 1.381577E-06 0.05963746 0.99822
vn -0.3058574 -0.8879852 -0.3434145
vn -0.1144802 -0.8831652 -0.4548774
vn -0.2409492 0.05230318 -0.9691273
vn -1.753891E-05 -0.8797312 0.4754714
vn 0.2408817 0.05996056 0.9687006
vn -0.0009797307 -0.8815464 -0.4720964
vn 2.69906E-05 0.05557938 -0.9984543
vn 0.1139421 -0.8803155 -0.4605018
vn 0.240928 0.0581882 -0.9687971
vn -0.001481294 -0.8854658 -0.4647023
vn -0.1138994 -0.8860527 -0.4493746
vn 0.2201782 -0.879763 -0.4213533
vn 0.462599 0.0594538 -0.8845719
vn 0.1147555 -0.8796025 0.4616607
vn 0.4625691 0.06004444 0.8845476
vn 0.220497 -0.8795747 0.4215798
vn 0.6612504 0.05975505 0.7477817
vn 0.1126458 -0.8844359 0.4528623
vn -0.215915 -0.8869306 -0.408332
vn 0.1117499 -0.8847654 -0.4524402
vn 0.3150133 -0.8797066 0.3562067
vn 0.8226949 0.05988059 0.5653206
vn -2.594639E-05 -0.8846326 0.4662886
vn 0.3919867 -0.8796394 0.2694087
vn 0.9331368 0.06005218 0.3544706
vn -0.1128085 -0.8844953 0.4527056
vn 0.4447829 -0.8795598 0.1689461
vn 0.9907308 0.05977646 0.1219807
vn -0.216606 -0.8846387 0.4129119
vn 0.4720121 -0.8796769 0.0580784
vn 0.9907321 0.05976172 -0.1219772
vn 0.4720132 -0.8796765 -0.05807649
vn 0.9331409 0.06003562 -0.3544627
vn 0.4629342 -0.8845565 0.05702484
vn 0.4363657 -0.884367 0.1657706
vn -0.3090209 -0.8852902 0.347516
vn 0.4447847 -0.8795592 -0.1689448
vn 0.8226992 0.05985361 -0.5653171
vn 0.3845384 -0.884495 0.2641945
vn 0.3919878 -0.8796394 -0.2694072
vn 0.6612591 0.0596067 -0.7477857
vn 0.3149614 -0.8797314 -0.356191
vn 0.3845396 -0.8844947 -0.2641937
vn 0.4363663 -0.8843673 -0.1657679
vn 0.2159546 -0.8844804 -0.4135916
vn 0.3089071 -0.8846058 0.3493552
vn 0.4629343 -0.8845565 -0.05702372
vn 0.3088569 -0.8846187 -0.3493669
vn 0.2162705 -0.884391 0.4136179
vn 0.2426503 -0.8514293 -0.4649611
vn 0.3469323 -0.8518202 -0.3924797
vn 0.4319577 -0.8516799 -0.2967387
vn 0.4901672 -0.8515052 -0.1862126
vn 0.5199955 -0.8517625 -0.0640746
vn 0.1256382 -0.851152 -0.509662
vn 0.5199952 -0.8517625 0.06407575
vn -0.002186843 -0.8506585 -0.5257141
vn 0.4901663 -0.8515047 0.1862168
vn -0.1304218 -0.849187 -0.5117339
vn 0.4319581 -0.8516789 0.296741
vn -0.2485245 -0.8477105 -0.4686389
vn 0.3469707 -0.8518322 0.3924198
vn -0.3542072 -0.846733 -0.3969641
vn 0.2429169 -0.8515396 0.46462
vn -0.4404737 -0.8457474 -0.3011549
vn 0.1265581 -0.8516014 0.5086827
vn -0.4993486 -0.8453372 -0.1898846
vn -3.684272E-05 -0.8518576 0.5237734
vn -0.5290096 -0.8459893 -0.06671419
vn -0.1268619 -0.8515336 0.5087206
vn -0.5279952 -0.8469526 0.06238927
vn -0.2439739 -0.8512108 0.4646686
vn -0.4965098 -0.8480349 0.1852428
vn -0.3494463 -0.8508666 0.3923182
vn -0.4363381 -0.8496065 0.2962735
vn -2.301628E-05 -0.8376595 0.5461929
vn -0.132068 -0.8375514 0.5301564
vn -0.2539986 -0.8371214 0.4844715
vn -0.3643152 -0.8361176 0.4100997
vn -0.4553793 -0.8343716 0.31057
vn -0.5191468 -0.8321452 0.1949898
vn -0.2537524 -0.9241791 0.2854867
vn -0.176745 -0.9247633 0.3370077
vn 0.1318474 -0.8376584 0.5300421
vn -0.5537675 -0.8300155 0.06645176
vn -0.5556844 -0.8284869 -0.06945742
vn -0.3180245 -0.9229783 0.2167292
vn -0.3889114 -0.9200992 0.0465325
vn -0.5243358 -0.8278574 -0.1993088
vn 0.2530838 -0.8376583 0.4840218
vn 0.361795 -0.8376675 0.4091667
vn 0.1759128 -0.9251348 0.3364227
vn -0.3637542 -0.9214453 0.1364607
vn -0.3910292 -0.9190759 -0.04894506
vn -0.4623147 -0.8282365 -0.3166849
vn 0.4501851 -0.8376581 0.3092933
vn -0.3694644 -0.9185704 -0.1404442
vn -0.3710809 -0.8295695 -0.4172689
vn 0.510603 -0.837651 0.1939726
vn -0.3255237 -0.9188802 -0.2229203
vn -0.2591499 -0.8315955 -0.4912131
vn -0.1351732 -0.833841 -0.5351985
vn -0.1818091 -0.9210954 -0.3442801
vn -0.001445348 -0.8357557 -0.5490994
vn 0.5420867 -0.8376651 0.06677647
vn -0.2608029 -0.9198296 -0.2930791
vn -0.09459601 -0.9226074 -0.3739617
vn 0.1313883 -0.8369465 -0.5312791
vn 0.5420961 -0.8376592 -0.06677559
vn 0.5106073 -0.8376492 -0.1939697
vn 0.3766314 -0.925201 -0.04638742
vn 0.2529852 -0.8374748 -0.4843909
vn 0.4501772 -0.8376654 -0.3092849
vn 0.3617868 -0.8376434 -0.4092235
vn 0.2513383 -0.9252056 -0.2842949
vn 0.175881 -0.9250057 -0.3367943
vn 0.3128103 -0.9251803 -0.2149209
vn 0.3766167 -0.9252071 0.04638697
vn 0.09134948 -0.9246691 -0.3696514
vn 0.3549228 -0.9251224 -0.1348275
vn 0.3549173 -0.9251246 0.1348269
vn -0.001118407 -0.9239541 -0.3825019
vn 0.3128221 -0.9251741 0.2149307
vn 0.2513314 -0.9252255 0.2842364
vn 0.5019324 -0.8626944 -0.0618239
vn 0.4734723 -0.8622457 -0.1798785
vn 0.5019286 -0.8626955 0.06184002
vn 0.4734789 -0.8622466 0.1798567
vn 0.4170393 -0.8625454 0.2865199
vn 0.334853 -0.862812 0.3787201
vn 0.4170424 -0.8625451 -0.2865163
vn 0.334877 -0.8627933 -0.3787414
vn 0.2346289 -0.8621658 -0.4490205
vn 0.1220595 -0.8618954 -0.4921766
vn -0.0006780539 -0.8615344 -0.5076987
vn -0.1241927 -0.8597901 -0.4953153
vn -0.2387387 -0.8581724 -0.4544711
vn -0.3415574 -0.8573166 -0.3851582
vn -0.4261046 -0.8561522 -0.292298
vn -0.4838841 -0.8555986 -0.1838674
vn -0.5122691 -0.8564671 -0.06359553
vn -0.5107222 -0.8575025 0.06206681
vn -0.4797439 -0.858494 0.1812016
vn -0.4207135 -0.8602839 0.2879439
vn -0.3365448 -0.8617324 0.3796774
vn -0.2351913 -0.8619165 0.4492049
vn -0.3439374 -0.9088256 -0.2360998
vn -0.3899759 -0.9088264 -0.1481671
vn -0.4139876 -0.9088405 -0.05121782
vn -0.4130904 -0.90929 0.05047672
vn -0.3875703 -0.9100871 0.1467337
vn -0.3408304 -0.9106252 0.233659
vn -0.2733589 -0.9110296 0.3087071
vn -0.2762005 -0.9091089 -0.311824
vn -0.1926278 -0.909902 -0.3673863
vn -0.1002279 -0.9105244 -0.4011231
vn -0.0003197258 -0.9109021 -0.4126223
vn 0.09914788 -0.9114329 -0.3993242
vn 0.1903982 -0.9116299 -0.3642522
vn 0.2724816 -0.9114768 -0.3081619
vn 0.3388331 -0.9115898 -0.2328008
vn 0.3840733 -0.9117014 -0.145905
vn 0.4081506 -0.9115298 -0.05026612
vn 0.4081489 -0.9115302 0.05027233
vn 0.3840749 -0.9117017 0.1458986
vn 0.3388323 -0.9115894 0.2328034
vn 0.2724723 -0.9114836 0.3081501
vn 0.01059747 -0.999872 -0.01198766
vn 0.0131488 -0.9998728 -0.009031335
vn 0 -1 0
vn 0.01486622 -0.9998735 -0.005647861
vn 0.007375565 -0.9998732 -0.01411821
vn 0.01585711 -0.9998723 -0.001954898
vn 0.003848817 -0.9998722 -0.0155184
vn 0.01585729 -0.9998723 0.001954888
vn -2.559964E-05 -0.9998693 -0.0161645
vn 0.01486742 -0.9998735 0.00564857
vn -0.003956666 -0.999868 -0.0157548
vn 0.01314951 -0.9998728 0.009031871
vn -0.007634458 -0.9998653 -0.01452688
vn -0.01106009 -0.9998611 -0.01246682
vn -0.01379589 -0.99986 -0.009459109
vn -0.01561572 -0.9998604 -0.005934947
vn -0.01660425 -0.99986 -0.002064845
vn -0.01648708 -0.9998621 0.002001358
vn 0.01059522 -0.9998721 0.01198376
vn -0.01530388 -0.9998662 0.005775315
vn -0.01339284 -0.9998684 0.009158732
vn -0.01069858 -0.9998699 0.01206696
vn 0.1903987 -0.9116838 0.3641165
vn -0.007402005 -0.9998727 0.0141364
vn -0.1906771 -0.9115259 0.3643662
vn 0.007371147 -0.9998734 0.0141004
vn 0.2346507 -0.8622986 0.4487541
vn 0.09919766 -0.9116456 0.3988259
vn 0.09162597 -0.9251472 0.368385
vn 0.1222051 -0.862401 0.4912539
vn 0.003846989 -0.9998732 0.01545789
vn -2.004873E-05 -0.9252217 0.3794269
vn -1.164477E-05 -0.9114617 0.4113847
vn -3.865788E-07 -0.9998719 0.01600731
vn -0.09181312 -0.9250711 0.368529
vn -2.705714E-05 -0.8628488 0.5054622
vn -0.1223217 -0.8623142 0.4913773
vn -0.09925655 -0.9116118 0.3988884
vn -0.003852578 -0.9998729 0.01546615
vn -0.9914903 0.04513796 0.1221045
vn -0.9916202 0.04229552 -0.1220679
vn -0.669867 0.7378852 -0.08248334
vn -0.6677362 0.7398422 0.08223125
vn -0.9336728 0.04932011 0.3547147
vn -0.6313046 0.7375261 -0.2398122
vn -0.9340252 0.0413674 -0.3548037
vn -0.6257221 0.7429435 0.2377116
vn -0.8229876 0.05321666 0.5655611
vn -0.5564497 0.737679 -0.3823526
vn -0.8234382 0.04191478 -0.5658557
vn -0.5494779 0.7453322 0.377563
vn -0.6613674 0.05633037 0.7479438
vn -0.4462313 0.7390568 -0.5046511
vn -0.6617563 0.0442696 -0.7484109
vn -0.4402118 0.7472486 0.4978285
vn -0.4626026 0.05865219 0.8846234
vn -0.3105863 0.7421102 -0.593977
vn -0.462828 0.0482755 -0.8851326
vn -0.3069475 0.749154 0.5869852
vn -0.2408876 0.05956126 0.9687237
vn -0.1610294 0.7448065 -0.6475591
vn -0.2409492 0.05230318 -0.9691273
vn -0.1597232 0.7496744 0.6422436
vn 1.381577E-06 0.05963746 0.99822
vn 7.848813E-06 0.7467274 -0.6651301
vn 2.69906E-05 0.05557938 -0.9984543
vn -2.900682E-06 0.7493848 0.6621348
vn 0.2408817 0.05996056 0.9687006
vn 0.1599721 0.7487807 -0.6432234
vn 0.240928 0.0581882 -0.9687971
vn 0.1596649 0.7498782 0.6420202
vn 0.4625691 0.06004444 0.8845476
vn 0.3066747 0.7496808 -0.586455
vn 0.462599 0.0594538 -0.8845719
vn 0.3065121 0.7499856 0.5861502
vn 0.6612504 0.05975505 0.7477817
vn 0.4385835 0.7494304 -0.4959825
vn 0.6612591 0.0596067 -0.7477857
vn 0.4385641 0.7494509 0.4959686
vn 0.8226949 0.05988059 0.5653206
vn 0.5453673 0.7497699 -0.3747261
vn 0.8226992 0.05985361 -0.5653171
vn 0.545404 0.7497289 0.3747549
vn 0.9331368 0.06005218 0.3544706
vn 0.6182317 0.7500906 -0.2348484
vn 0.9331409 0.06003562 -0.3544627
vn 0.6182618 0.7500618 0.2348612
vn 0.9907308 0.05977646 0.1219807
vn 0.6569049 0.7496219 -0.08088839
vn 0.9907321 0.05976172 -0.1219772
vn 0.6569123 0.7496147 0.08089388
vn -0.2790086 0.9069695 0.3155321
vn -0.3473651 0.9068272 0.2387504
vn -0.3943094 0.9066914 0.1497696
vn -0.4182062 0.906894 0.05144825
vn -0.4182065 0.9068937 -0.05145004
vn -0.3943109 0.9066901 -0.1497727
vn -0.3846194 0.8844455 0.2642426
vn -0.1951349 0.9068892 0.3734628
vn -0.4630261 0.8845073 -0.05704051
vn -0.347368 0.9068251 -0.2387545
vn -0.4364536 0.8843178 0.165802
vn -0.1008602 0.907418 0.407946
vn -0.4630261 0.8845073 0.05703957
vn -0.4364524 0.8843178 -0.1658055
vn -0.2790673 0.9069441 -0.3155531
vn 0.0009962108 0.9086452 0.4175678
vn 0.1013378 0.9100308 0.4019634
vn 0.001491852 0.8854092 0.4648099
vn 0.1915386 0.9118572 0.3630831
vn -0.384618 0.8844458 -0.2642435
vn -0.1954692 0.9067136 -0.373714
vn -0.1117772 0.884712 0.452538
vn 0.1139395 0.8859885 0.4494911
vn 0.2699734 0.9137533 0.3035937
vn -0.3089673 0.8845568 -0.3494259
vn -0.1017047 0.9067608 -0.4091956
vn 1.714697E-05 0.906978 -0.4211783
vn -0.1126733 0.8843864 -0.4529517
vn 0.1017715 0.9068769 -0.4089217
vn 0.3333042 0.9147305 0.2284212
vn -0.2163102 0.8843417 -0.4137025
vn 2.535624E-05 0.8845837 -0.4663815
vn 0.1953528 0.9072043 -0.3725823
vn 0.3773167 0.914914 0.1434028
vn 0.1128371 0.8844458 -0.4527951
vn 0.277768 0.9083094 -0.3127602
vn 0.4012675 0.9145911 0.05007309
vn 0.4043191 0.9133309 -0.0485053
vn 0.4556907 0.8882993 0.05718553
vn 0.4291895 0.8883532 0.1631715
vn 0.2166478 0.8845882 -0.4129981
vn 0.3430505 0.9096547 -0.2341896
vn 0.3852915 0.9113675 -0.1447751
vn 0.3835384 0.8858395 -0.2611258
vn 0.4331426 0.8866081 -0.1622146
vn 0.3789431 0.8883339 0.259355
vn 0.309092 0.8852369 -0.3475886
vn 0.4572385 0.8876736 -0.05448395
vn 0.3059579 0.8879087 0.3435228
vn 0.2159874 0.8868594 0.408448
vn 0.4984662 0.8459308 0.1895584
vn 0.5280709 0.8465826 0.06662606
vn 0.5270721 0.8475375 -0.06225181
vn 0.4956656 0.8486098 -0.1848703
vn 0.4397251 0.8463316 0.300607
vn 0.3536276 0.8473041 0.3962615
vn 0.2481326 0.8482694 0.4678347
vn 0.1302585 0.8497302 0.5108732
vn 0.4356242 0.8501654 -0.2957201
vn 0.002185962 0.8512002 0.5248365
vn 0.3488736 0.8514091 -0.3916499
vn -0.1254333 0.8516922 0.5088093
vn 0.2435721 0.8517469 -0.4638963
vn 0.126662 0.8520647 -0.5078804
vn 3.507355E-05 0.8523846 -0.5229155
vn -0.1263602 0.8521302 -0.5078457
vn -0.2425126 0.8520694 -0.4638592
vn -0.3463999 0.8523593 -0.3917789
vn -0.4312558 0.8522069 -0.2962463
vn -0.4893599 0.8520348 -0.1859129
vn -0.5191414 0.8522905 -0.06397819
vn -0.519143 0.8522896 0.06397583
vn -0.4893619 0.8520347 0.1859079
vn -0.254808 0.8352149 -0.4873286
vn -0.3642575 0.8352297 -0.411956
vn -0.4532589 0.8352162 -0.3114006
vn -0.5140896 0.835207 -0.1952978
vn -0.5457787 0.8352275 -0.06723592
vn -0.5457894 0.8352205 0.06723574
vn -0.1327524 0.8352149 -0.5336598
vn -0.5140923 0.8352058 0.1952959
vn -0.3742146 0.926196 0.04609146
vn -0.3742025 0.9262009 -0.04609208
vn -0.3526463 0.9261178 -0.1339642
vn -0.1747856 0.9261288 -0.3342684
vn 2.355508E-05 0.8352248 -0.5499086
vn -0.3108167 0.9261695 -0.2135489
vn -0.09104134 0.9261423 -0.3660218
vn 0.1329693 0.8351158 -0.533761
vn -0.2497138 0.9262208 -0.2824146
vn 0.2556906 0.8346916 -0.4877625
vn 0.3667385 0.8336887 -0.4128752
vn 0.4583731 0.8319297 -0.312709
vn 0.252132 0.9251495 -0.2837741
vn 0.1756127 0.9257503 -0.3348827
vn 0.09122004 0.9260606 -0.3661838
vn 0.5225573 0.8296811 -0.196375
vn 0.3161021 0.923915 -0.215547
vn 1.932997E-05 0.9262165 -0.3769919
vn 0.5574616 0.8274984 -0.06695376
vn 0.5594346 0.8259243 0.0698704
vn 0.3867051 0.9210359 -0.04639062
vn 0.5278993 0.8252644 0.2006513
vn 0.3616489 0.9223835 -0.1357151
vn 0.388907 0.9199933 0.04861923
vn 0.465473 0.8256232 0.3188752
vn 0.3674281 0.9195067 0.1396565
vn 0.3735954 0.8269578 0.4201993
vn 0.323638 0.9198467 0.2216766
vn 0.2608948 0.8290155 0.4946384
vn 0.1360271 0.8312995 0.5389229
vn 0.180583 0.9220963 0.34224
vn 0.00154866 0.833259 0.5528808
vn 0.2592517 0.9208064 0.2913832
vn 0.09387296 0.9236447 0.3715756
vn 0.02014687 0.9997677 0.007656976
vn 0.01789931 0.9997676 0.01201162
vn 0.0002173132 1 8.102943E-05
vn 0.01452253 0.9997697 0.01579787
vn 0.02134555 0.9997681 0.002873289
vn 0.01025168 0.9997786 0.01837759
vn 0.02121938 0.9997725 -0.002189849
vn 0.0197278 0.9997817 -0.006894794
vn 0.01728418 0.999787 -0.01127763
vn 0.01381661 0.9997908 -0.01507712
vn 0.005487063 0.999785 0.01999863
vn 0.009535682 0.999796 -0.01780595
vn 0.0003625545 0.9997889 0.02054489
vn 0.001027371 0.9249568 0.380071
vn 0.004919367 0.9997965 -0.01956862
vn 2.489663E-05 0.9997944 -0.02027501
vn -0.004864494 0.9997967 -0.01957205
vn -0.00933727 0.9997968 -0.01786638
vn -0.01342029 0.9997948 -0.01517421
vn -0.01666107 0.9997957 -0.01143875
vn -0.01882368 0.9997973 -0.007149519
vn -0.02009139 0.9997951 -0.002480902
vn -0.02007996 0.9997954 0.002469079
vn -0.01883407 0.999797 0.00715609
vn -0.3526503 0.9261158 0.1339675
vn -0.01664748 0.999796 0.01144132
vn -0.3108075 0.9261744 0.2135408
vn -0.01340672 0.9997947 0.01519943
vn -0.4532479 0.8352263 0.3113892
vn -0.249731 0.9262005 0.2824661
vn -0.009303339 0.9997966 0.01789859
vn -0.4312544 0.8522087 0.2962431
vn -0.004697353 0.9997947 0.01971183
vn -0.1747636 0.9259947 0.3346515
vn -0.09082199 0.925642 0.3673395
vn -0.1322466 0.8344888 0.5349199
vn -0.3642549 0.8352029 0.4120128
vn -0.254716 0.8350257 0.4877006
vn -0.2422389 0.8519607 0.4642017
vn -0.3463609 0.8523467 0.3918407
vn -0.2159957 0.8844299 0.4136781
vn -0.3089166 0.8845694 0.3494388
vt -8.617113 0.8071318
vt -8.61582 0.8072835
vt -8.615829 0.6530922
vt -8.61711 0.6532481
vt -8.653543 0.503469
vt -8.654744 0.9564562
vt -8.653522 0.956915
vt -8.654733 0.5039207
vt -8.72546 0.3667382
vt -8.712505 0.7956423
vt -8.726507 1.092919
vt -8.725437 1.093658
vt -8.72649 0.3674528
vt -8.828257 0.2511303
vt -8.829086 0.252057
vt -8.956482 0.164019
vt -8.805649 0.4216862
vt -8.744569 0.5377323
vt -8.71254 0.6647419
vt -8.744503 0.9226741
vt -8.829101 1.20831
vt -8.828242 1.209274
vt -8.95706 0.1651051
vt -9.101753 0.1092097
vt -8.805557 1.038757
vt -8.957068 1.295261
vt -8.956476 1.296385
vt -9.102045 0.1103991
vt -9.255931 0.09010208
vt -8.892856 1.136894
vt -9.102051 1.34997
vt -9.101756 1.351187
vt -9.255931 0.09132802
vt -9.410109 0.1092093
vt -9.255934 1.369045
vt -9.255937 1.370285
vt -9.409817 1.349978
vt -9.410114 1.351171
vt -9.255934 1.273501
vt -9.125053 1.257316
vt -9.554805 1.295274
vt -9.55538 1.296357
vt -9.409817 0.1103979
vt -9.55538 0.1640195
vt -9.554802 0.1651015
vt -9.683599 0.2511343
vt -9.386794 0.2031184
vt -9.00172 1.210833
vt -9.386797 1.257269
vt -9.682781 0.2520507
vt -9.786393 0.3667466
vt -9.255928 0.1869075
vt -9.785378 0.3674442
vt -9.858299 0.5034787
vt -9.125065 0.2031195
vt -9.857146 0.5039118
vt -9.896002 0.6530972
vt -9.001763 0.2496342
vt -9.894777 0.6532424
vt -9.896002 0.807277
vt -9.894777 0.8071318
vt -9.858299 0.9568957
vt -9.799196 0.6647546
vt -9.767204 0.5377631
vt -8.89293 0.3235736
vt -9.857146 0.9564628
vt -9.786396 1.093628
vt -9.706173 0.4217116
vt -9.78538 1.092931
vt -9.683602 1.209241
vt -9.682781 1.208325
vt -9.706167 1.038661
vt -9.767204 0.9226124
vt -9.510096 1.210739
vt -9.618917 0.3235854
vt -9.799196 0.7956209
vt -9.61892 1.136791
vt -9.51009 0.2496383
vt -9.477943 1.149949
vt -9.573007 1.085359
vt -9.649224 0.9996444
vt -9.702534 0.8982719
vt -9.73048 0.7873439
vt -9.370243 1.190584
vt -9.730483 0.6730307
vt -9.255934 1.204734
vt -9.702534 0.5621029
vt -9.14163 1.19055
vt -9.649219 0.4607338
vt -9.03395 1.149902
vt -9.573007 0.3750155
vt -8.938912 1.085303
vt -9.477943 0.3104236
vt -8.862726 0.9995909
vt -9.37024 0.2697926
vt -8.809425 0.8982397
vt -9.255931 0.2556279
vt -8.781473 0.7873353
vt -9.141622 0.2697899
vt -8.781462 0.6730428
vt -9.033921 0.3104326
vt -8.809385 0.5621256
vt -8.938869 0.3750307
vt -8.862669 0.4607525
vt -9.255934 0.2716868
vt -9.145493 0.2853764
vt -9.041431 0.3246288
vt -8.949573 0.3870197
vt -8.875916 0.4698259
vt -8.824366 0.567763
vt -8.960905 0.3997138
vt -9.049351 0.3396021
vt -9.366375 0.2853725
vt -8.797315 0.6749517
vt -8.797292 0.7854299
vt -8.890009 0.4794826
vt -8.814469 0.6770179
vt -8.8243 0.8926416
vt -9.470428 0.324636
vt -9.562275 0.3870365
vt -9.462517 0.3395925
vt -8.840439 0.573813
vt -8.814487 0.7833589
vt -8.875827 0.9906152
vt -9.635912 0.469851
vt -8.840496 0.8865455
vt -8.949501 1.073441
vt -9.687416 0.5677934
vt -8.890086 0.9808452
vt -9.041394 1.135828
vt -9.145478 1.175062
vt -9.049388 1.12071
vt -9.255934 1.188718
vt -9.714421 0.6749654
vt -8.960968 1.060597
vt -9.149578 1.158543
vt -9.366375 1.175009
vt -9.714424 0.7854099
vt -9.687416 0.8925819
vt -9.697504 0.7833721
vt -9.470433 1.135744
vt -9.635909 0.9905217
vt -9.562278 1.073341
vt -9.550974 1.060679
vt -9.462517 1.12078
vt -9.621896 0.9809204
vt -9.69751 0.6770025
vt -9.362301 1.158588
vt -9.6715 0.8865918
vt -9.6715 0.573783
vt -9.255934 1.171749
vt -9.62189 0.4794574
vt -9.550974 0.3996954
vt -9.679434 0.7811956
vt -9.654486 0.8801881
vt -9.679428 0.6791801
vt -9.65448 0.5801878
vt -9.606913 0.4897193
vt -9.538895 0.413225
vt -9.60691 0.9706533
vt -9.5389 1.047153
vt -9.45406 1.104791
vt -9.357946 1.141053
vt -9.255934 1.1537
vt -9.153921 1.141062
vt -9.057805 1.104796
vt -8.972961 1.047161
vt -8.904943 0.9706658
vt -8.85737 0.8801947
vt -8.832422 0.7811988
vt -8.832422 0.6791804
vt -8.857376 0.5801868
vt -8.904952 0.489722
vt -8.972967 0.4132241
vt -9.057805 0.3555863
vt -8.910256 0.9670259
vt -8.863404 0.877924
vt -8.838834 0.7804263
vt -8.838831 0.6799526
vt -8.863407 0.5824577
vt -8.910265 0.4933621
vt -8.977247 0.4180221
vt -8.977247 1.042363
vt -9.060803 1.099125
vt -9.155463 1.134843
vt -9.255934 1.14729
vt -9.356401 1.134833
vt -9.451061 1.099121
vt -9.534615 1.042355
vt -9.601597 0.9670135
vt -9.648449 0.8779175
vt -9.673022 0.7804235
vt -9.673019 0.6799522
vt -9.648449 0.5824584
vt -9.6016 0.4933593
vt -9.534612 0.418023
vt -9.517174 1.022817
vt -9.579965 0.952194
vt -9.255934 0.7301885
vt -9.62389 0.868673
vt -9.43885 1.076033
vt -9.646915 0.7772796
vt -9.350113 1.109512
vt -9.646918 0.6830961
vt -9.255934 1.121183
vt -9.623887 0.5917027
vt -9.161752 1.109513
vt -9.579965 0.5081819
vt -9.073017 1.076033
vt -8.994694 1.022818
vt -8.931903 0.9521952
vt -8.887978 0.8686746
vt -8.864949 0.777281
vt -8.864949 0.6830979
vt -9.517174 0.4375593
vt -8.887978 0.591705
vt -8.9319 0.5081844
vt -8.994691 0.4375615
vt -9.451056 0.3612587
vt -9.073017 0.3843457
vt -9.060806 0.3612565
vt -9.438848 0.3843439
vt -9.454057 0.3555881
vt -9.356401 0.3255391
vt -9.362301 0.3017846
vt -9.357946 0.3193196
vt -9.350113 0.3508642
vt -9.255931 0.288604
vt -9.255931 0.3130894
vt -9.255934 0.3391937
vt -9.149564 0.3017823
vt -9.255931 0.3066786
vt -9.153921 0.3193254
vt -9.155463 0.3255449
vt -9.161749 0.3508653
vt -10.13684 0.4232895
vt -10.13685 0.5766997
vt -10.13526 0.576503
vt -10.13524 0.4234804
vt -10.09932 0.2744244
vt -10.09784 0.7250094
vt -10.09933 0.7255729
vt -10.0978 0.2749924
vt -10.02777 0.1383863
vt -10.02647 0.8607256
vt -10.02779 0.8616229
vt -10.02641 0.1393043
vt -9.925485 0.02336413
vt -9.924435 0.9754606
vt -9.925502 0.9766535
vt -9.924389 0.02458954
vt -9.79791 -0.06330597
vt -9.79716 1.061899
vt -9.797915 1.063323
vt -9.79714 -0.06184757
vt -9.653377 -0.1178375
vt -9.652976 1.116272
vt -9.653374 1.117847
vt -9.652976 -0.1162373
vt -9.49998 -0.1368483
vt -9.499971 1.135212
vt -9.499974 1.136848
vt -9.49998 -0.1351989
vt -9.346586 -0.117838
vt -9.346975 1.116235
vt -9.346578 1.117831
vt -9.346984 -0.1162366
vt -9.202047 -0.06330544
vt -9.202814 1.061834
vt -9.202047 1.063295
vt -9.20282 -0.06184268
vt -9.074478 0.02336806
vt -9.075577 0.9753851
vt -9.074475 0.9766206
vt -9.075577 0.02460375
vt -8.972205 0.1383945
vt -8.973573 0.8606595
vt -8.972205 0.8615936
vt -8.973576 0.1393289
vt -8.900662 0.274434
vt -8.902216 0.7249678
vt -8.900662 0.7255538
vt -8.902219 0.2750202
vt -8.863152 0.4232943
vt -8.864802 0.5764916
vt -8.863152 0.5766933
vt -8.864802 0.423496
vt -9.07804 0.9726248
vt -8.976631 0.8585676
vt -8.905689 0.7236605
vt -8.86849 0.5760453
vt -8.86849 0.4239425
vt -8.905692 0.2763273
vt -9.055655 0.8044295
vt -9.204539 1.05857
vt -8.96384 0.4354269
vt -8.976634 0.1414202
vt -8.995414 0.6898919
vt -9.347865 1.112658
vt -8.96384 0.5645612
vt -8.995417 0.3100969
vt -9.07804 0.02736375
vt -9.499966 1.131529
vt -9.652081 1.112704
vt -9.499957 1.03619
vt -9.795441 1.058652
vt -9.05565 0.1955574
vt -9.204545 -0.05857956
vt -9.370828 1.02016
vt -9.629107 1.020227
vt -9.921983 0.9727185
vt -9.141751 0.09872803
vt -9.347874 -0.1126598
vt -9.49998 -0.131512
vt -9.370845 -0.02016109
vt -9.652086 -0.1126598
vt -10.02343 0.8586491
vt -9.249148 0.0257546
vt -9.499983 -0.03615975
vt -9.795418 -0.05858511
vt -10.09439 0.7237107
vt -9.629115 -0.02016038
vt -9.921926 0.02734569
vt -10.1316 0.5760574
vt -10.13157 0.4239206
vt -10.03632 0.5645725
vt -10.00474 0.6899654
vt -9.750812 0.02574405
vt -10.02335 0.1413879
vt -10.09433 0.2762908
vt -9.944347 0.1954978
vt -10.00464 0.310028
vt -9.944465 0.8045576
vt -9.858209 0.09870157
vt -10.03627 0.4353826
vt -9.8583 0.9014065
vt -9.750843 0.9743686
vt -9.939115 0.665265
vt -9.966618 0.556183
vt -9.96664 0.4437629
vt -9.939203 0.3346716
vt -9.886684 0.7649618
vt -9.811766 0.8492625
vt -9.718285 0.9128282
vt -9.612381 0.9528226
vt -9.886809 0.234935
vt -9.499949 0.9667992
vt -9.811866 0.1506082
vt -9.387525 0.9528948
vt -9.718379 0.08706841
vt -9.612415 0.04707697
vt -9.49998 0.03314704
vt -9.387536 0.04708225
vt -9.281569 0.08705831
vt -9.188057 0.1505972
vt -9.113093 0.2349128
vt -9.060639 0.3346456
vt -9.033139 0.4437745
vt -9.033142 0.5562113
vt -9.060639 0.6653433
vt -9.288868 0.1008632
vt -9.198477 0.1622739
vt -9.126019 0.2437661
vt -9.075322 0.340173
vt -9.04874 0.4456555
vt -9.04874 0.5543325
vt -9.391295 0.06221411
vt -9.075319 0.6598161
vt -9.064136 0.5524823
vt -9.064133 0.447506
vt -9.089808 0.3456227
vt -9.296072 0.1144735
vt -9.499977 0.04874548
vt -9.138776 0.2525117
vt -9.395 0.07714987
vt -9.608653 0.06221634
vt -9.208765 0.173794
vt -9.711075 0.1008534
vt -9.80146 0.1622479
vt -9.873915 0.2437188
vt -9.791146 0.1738299
vt -9.703871 0.1144921
vt -9.604957 0.07715291
vt -9.924626 0.3401116
vt -9.861081 0.2525592
vt -9.49998 0.06414226
vt -9.951231 0.4456064
vt -9.951237 0.5543091
vt -9.935584 0.4475186
vt -9.924646 0.6598195
vt -9.909975 0.3456667
vt -9.935555 0.5524414
vt -9.87393 0.7562479
vt -9.909889 0.6542679
vt -9.801446 0.8377467
vt -9.860961 0.747339
vt -9.711032 0.8991486
vt -9.608602 0.9377793
vt -9.703794 0.8853923
vt -9.499997 0.9512267
vt -9.791035 0.8260476
vt -9.604911 0.9227594
vt -9.891141 0.6472198
vt -9.844467 0.7359797
vt -9.499977 0.4999954
vt -9.777702 0.8110859
vt -9.915637 0.5501027
vt -9.69453 0.8675989
vt -9.915666 0.4500216
vt -9.891167 0.3527683
vt -9.844542 0.2640341
vt -9.777785 0.1889143
vt -9.600199 0.9032315
vt -9.694464 0.1323037
vt -9.499977 0.9156889
vt -9.49996 0.9358088
vt -9.600116 0.09670243
vt -9.49998 0.08428776
vt -9.399853 0.09669831
vt -9.305502 0.1323008
vt -9.222223 0.1888762
vt -9.155473 0.2639519
vt -9.108773 0.3527611
vt -9.084283 0.4499323
vt -9.084283 0.5500563
vt -9.108773 0.6472259
vt -9.089805 0.6543659
vt -9.15547 0.7360355
vt -9.13877 0.7474787
vt -9.222223 0.8111178
vt -9.126019 0.7562207
vt -9.208762 0.8261935
vt -9.30549 0.8676862
vt -9.113088 0.7650799
vt -9.399858 0.9032848
vt -9.296069 0.885511
vt -9.395 0.9228309
vt -9.391304 0.9377645
vt -9.198474 0.8377141
vt -9.288862 0.899122
vt -9.281569 0.9129232
vt -9.188054 0.8493881
vt -9.249143 0.9742341
vt -9.141748 0.9012606
usemtl RoboTHOR_Primary_AI2_Mat
f 3/3/3 2/2/2 1/1/1
f 4/4/4 3/3/3 1/1/1
f 5/5/5 3/3/3 4/4/4
f 6/6/6 1/1/1 2/2/2
f 7/7/7 6/6/6 2/2/2
f 8/8/8 5/5/5 4/4/4
f 5/5/5 8/8/8 9/9/9
f 1/1/1 10/10/10 4/4/4
f 10/10/10 1/1/1 6/6/6
f 6/6/6 7/7/7 11/11/11
f 7/7/7 12/12/12 11/11/11
f 8/8/8 13/13/13 9/9/9
f 14/14/14 9/9/9 13/13/13
f 15/15/15 14/14/14 13/13/13
f 16/16/16 14/14/14 15/15/15
f 17/17/17 13/13/13 8/8/8
f 13/13/13 17/17/17 15/15/15
f 18/18/18 8/8/8 4/4/4
f 18/18/18 17/17/17 8/8/8
f 10/10/10 19/19/19 4/4/4
f 19/19/19 18/18/18 4/4/4
f 20/20/20 6/6/6 11/11/11
f 20/20/20 10/10/10 6/6/6
f 11/11/11 12/12/12 21/21/21
f 12/12/12 22/22/22 21/21/21
f 23/23/23 16/16/16 15/15/15
f 24/24/24 16/16/16 23/23/23
f 25/25/25 20/20/20 11/11/11
f 25/25/25 11/11/11 21/21/21
f 21/21/21 22/22/22 26/26/26
f 22/22/22 27/27/27 26/26/26
f 28/28/28 24/24/24 23/23/23
f 29/29/29 24/24/24 28/28/28
f 30/30/30 25/25/25 21/21/21
f 30/30/30 21/21/21 26/26/26
f 26/26/26 27/27/27 31/31/31
f 27/27/27 32/32/32 31/31/31
f 33/33/33 29/29/29 28/28/28
f 34/34/34 29/29/29 33/33/33
f 35/35/35 31/31/31 32/32/32
f 36/36/36 35/35/35 32/32/32
f 37/37/37 35/35/35 36/36/36
f 38/38/38 37/37/37 36/36/36
f 31/31/31 35/35/35 39/39/39
f 39/39/39 35/35/35 37/37/37
f 31/31/31 40/40/40 26/26/26
f 40/40/40 31/31/31 39/39/39
f 37/37/37 38/38/38 41/41/41
f 38/38/38 42/42/42 41/41/41
f 43/43/43 34/34/34 33/33/33
f 44/44/44 34/34/34 43/43/43
f 45/45/45 44/44/44 43/43/43
f 46/46/46 44/44/44 45/45/45
f 47/47/47 43/43/43 33/33/33
f 43/43/43 47/47/47 45/45/45
f 40/40/40 48/48/48 26/26/26
f 48/48/48 30/30/30 26/26/26
f 49/49/49 37/37/37 41/41/41
f 49/49/49 39/39/39 37/37/37
f 50/50/50 46/46/46 45/45/45
f 51/51/51 46/46/46 50/50/50
f 52/52/52 47/47/47 33/33/33
f 52/52/52 33/33/33 28/28/28
f 53/53/53 51/51/51 50/50/50
f 54/54/54 51/51/51 53/53/53
f 55/55/55 52/52/52 28/28/28
f 55/55/55 28/28/28 23/23/23
f 56/56/56 54/54/54 53/53/53
f 54/54/54 56/56/56 57/57/57
f 58/58/58 55/55/55 23/23/23
f 58/58/58 23/23/23 15/15/15
f 56/56/56 59/59/59 57/57/57
f 60/60/60 57/57/57 59/59/59
f 61/61/61 60/60/60 59/59/59
f 62/62/62 60/60/60 61/61/61
f 63/63/63 59/59/59 56/56/56
f 59/59/59 63/63/63 61/61/61
f 64/64/64 56/56/56 53/53/53
f 64/64/64 63/63/63 56/56/56
f 65/65/65 58/58/58 15/15/15
f 17/17/17 65/65/65 15/15/15
f 66/66/66 62/62/62 61/61/61
f 62/62/62 66/66/66 67/67/67
f 68/68/68 64/64/64 53/53/53
f 68/68/68 53/53/53 50/50/50
f 66/66/66 69/69/69 67/67/67
f 70/70/70 67/67/67 69/69/69
f 71/71/71 70/70/70 69/69/69
f 42/42/42 70/70/70 71/71/71
f 41/41/41 42/42/42 71/71/71
f 72/72/72 69/69/69 66/66/66
f 69/69/69 72/72/72 71/71/71
f 73/73/73 66/66/66 61/61/61
f 73/73/73 72/72/72 66/66/66
f 74/74/74 41/41/41 71/71/71
f 74/74/74 49/49/49 41/41/41
f 75/75/75 68/68/68 50/50/50
f 75/75/75 50/50/50 45/45/45
f 76/76/76 73/73/73 61/61/61
f 63/63/63 76/76/76 61/61/61
f 72/72/72 77/77/77 71/71/71
f 77/77/77 74/74/74 71/71/71
f 78/78/78 75/75/75 45/45/45
f 47/47/47 78/78/78 45/45/45
f 74/74/74 79/79/79 49/49/49
f 77/77/77 80/80/80 74/74/74
f 80/80/80 79/79/79 74/74/74
f 72/72/72 81/81/81 77/77/77
f 81/81/81 80/80/80 77/77/77
f 73/73/73 82/82/82 72/72/72
f 82/82/82 81/81/81 72/72/72
f 76/76/76 83/83/83 73/73/73
f 83/83/83 82/82/82 73/73/73
f 79/79/79 84/84/84 49/49/49
f 49/49/49 84/84/84 39/39/39
f 85/85/85 83/83/83 76/76/76
f 63/63/63 85/85/85 76/76/76
f 84/84/84 86/86/86 39/39/39
f 39/39/39 86/86/86 40/40/40
f 87/87/87 85/85/85 63/63/63
f 64/64/64 87/87/87 63/63/63
f 86/86/86 88/88/88 40/40/40
f 40/40/40 88/88/88 48/48/48
f 89/89/89 87/87/87 64/64/64
f 68/68/68 89/89/89 64/64/64
f 88/88/88 90/90/90 48/48/48
f 48/48/48 90/90/90 30/30/30
f 91/91/91 89/89/89 68/68/68
f 75/75/75 91/91/91 68/68/68
f 90/90/90 92/92/92 30/30/30
f 30/30/30 92/92/92 25/25/25
f 93/93/93 91/91/91 75/75/75
f 78/78/78 93/93/93 75/75/75
f 92/92/92 94/94/94 25/25/25
f 25/25/25 94/94/94 20/20/20
f 95/95/95 93/93/93 78/78/78
f 47/47/47 95/95/95 78/78/78
f 94/94/94 96/96/96 20/20/20
f 20/20/20 96/96/96 10/10/10
f 97/97/97 95/95/95 47/47/47
f 52/52/52 97/97/97 47/47/47
f 96/96/96 98/98/98 10/10/10
f 10/10/10 98/98/98 19/19/19
f 99/99/99 97/97/97 52/52/52
f 55/55/55 99/99/99 52/52/52
f 98/98/98 100/100/100 19/19/19
f 19/19/19 100/100/100 18/18/18
f 101/101/101 99/99/99 55/55/55
f 58/58/58 101/101/101 55/55/55
f 100/100/100 102/102/102 18/18/18
f 18/18/18 102/102/102 17/17/17
f 103/103/103 101/101/101 58/58/58
f 65/65/65 103/103/103 58/58/58
f 17/17/17 104/104/104 65/65/65
f 102/102/102 104/104/104 17/17/17
f 104/104/104 103/103/103 65/65/65
f 105/105/105 97/97/97 99/99/99
f 106/106/106 99/99/99 101/101/101
f 106/106/106 105/105/105 99/99/99
f 107/107/107 101/101/101 103/103/103
f 107/107/107 106/106/106 101/101/101
f 108/108/108 103/103/103 104/104/104
f 108/108/108 107/107/107 103/103/103
f 109/109/109 104/104/104 102/102/102
f 109/109/109 108/108/108 104/104/104
f 110/110/110 102/102/102 100/100/100
f 110/110/110 109/109/109 102/102/102
f 107/107/107 108/108/108 111/111/111
f 111/111/111 108/108/108 109/109/109
f 106/106/106 107/107/107 112/112/112
f 112/112/112 107/107/107 111/111/111
f 105/105/105 113/113/113 97/97/97
f 113/113/113 95/95/95 97/97/97
f 114/114/114 110/110/110 100/100/100
f 114/114/114 100/100/100 98/98/98
f 115/115/115 114/114/114 98/98/98
f 115/115/115 98/98/98 96/96/96
f 116/116/116 109/109/109 110/110/110
f 116/116/116 111/111/111 109/109/109
f 110/110/110 114/114/114 117/117/117
f 117/117/117 114/114/114 115/115/115
f 118/118/118 115/115/115 96/96/96
f 118/118/118 96/96/96 94/94/94
f 113/113/113 119/119/119 95/95/95
f 119/119/119 93/93/93 95/95/95
f 119/119/119 120/120/120 93/93/93
f 120/120/120 91/91/91 93/93/93
f 121/121/121 119/119/119 113/113/113
f 120/120/120 119/119/119 121/121/121
f 122/122/122 116/116/116 110/110/110
f 122/122/122 110/110/110 117/117/117
f 123/123/123 115/115/115 118/118/118
f 123/123/123 117/117/117 115/115/115
f 124/124/124 118/118/118 94/94/94
f 124/124/124 94/94/94 92/92/92
f 120/120/120 125/125/125 91/91/91
f 125/125/125 89/89/89 91/91/91
f 126/126/126 123/123/123 118/118/118
f 126/126/126 118/118/118 124/124/124
f 127/127/127 124/124/124 92/92/92
f 127/127/127 92/92/92 90/90/90
f 125/125/125 128/128/128 89/89/89
f 128/128/128 87/87/87 89/89/89
f 129/129/129 126/126/126 124/124/124
f 129/129/129 124/124/124 127/127/127
f 130/130/130 127/127/127 90/90/90
f 130/130/130 90/90/90 88/88/88
f 131/131/131 130/130/130 88/88/88
f 131/131/131 88/88/88 86/86/86
f 127/127/127 130/130/130 132/132/132
f 132/132/132 130/130/130 131/131/131
f 133/133/133 131/131/131 86/86/86
f 86/86/86 84/84/84 133/133/133
f 128/128/128 134/134/134 87/87/87
f 134/134/134 85/85/85 87/87/87
f 135/135/135 129/129/129 127/127/127
f 135/135/135 127/127/127 132/132/132
f 136/136/136 131/131/131 133/133/133
f 136/136/136 132/132/132 131/131/131
f 84/84/84 137/137/137 133/133/133
f 137/137/137 84/84/84 79/79/79
f 134/134/134 138/138/138 85/85/85
f 138/138/138 83/83/83 85/85/85
f 138/138/138 139/139/139 83/83/83
f 139/139/139 82/82/82 83/83/83
f 140/140/140 138/138/138 134/134/134
f 139/139/139 138/138/138 140/140/140
f 141/141/141 137/137/137 79/79/79
f 141/141/141 79/79/79 80/80/80
f 139/139/139 142/142/142 82/82/82
f 142/142/142 81/81/81 82/82/82
f 143/143/143 80/80/80 81/81/81
f 143/143/143 141/141/141 80/80/80
f 142/142/142 143/143/143 81/81/81
f 141/141/141 143/143/143 144/144/144
f 144/144/144 143/143/143 142/142/142
f 137/137/137 141/141/141 145/145/145
f 145/145/145 141/141/141 144/144/144
f 146/146/146 142/142/142 139/139/139
f 146/146/146 144/144/144 142/142/142
f 147/147/147 140/140/140 134/134/134
f 147/147/147 134/134/134 128/128/128
f 148/148/148 137/137/137 145/145/145
f 133/133/133 137/137/137 148/148/148
f 149/149/149 139/139/139 140/140/140
f 149/149/149 146/146/146 139/139/139
f 150/150/150 147/147/147 128/128/128
f 150/150/150 128/128/128 125/125/125
f 151/151/151 133/133/133 148/148/148
f 151/151/151 136/136/136 133/133/133
f 152/152/152 150/150/150 125/125/125
f 152/152/152 125/125/125 120/120/120
f 153/153/153 152/152/152 120/120/120
f 153/153/153 120/120/120 121/121/121
f 154/154/154 140/140/140 147/147/147
f 149/149/149 140/140/140 155/155/155
f 140/140/140 154/154/154 155/155/155
f 156/156/156 147/147/147 150/150/150
f 156/156/156 154/154/154 147/147/147
f 157/157/157 150/150/150 152/152/152
f 157/157/157 156/156/156 150/150/150
f 158/158/158 152/152/152 153/153/153
f 158/158/158 157/157/157 152/152/152
f 153/153/153 121/121/121 159/159/159
f 159/159/159 158/158/158 153/153/153
f 155/155/155 160/160/160 149/149/149
f 160/160/160 146/146/146 149/149/149
f 160/160/160 161/161/161 146/146/146
f 161/161/161 144/144/144 146/146/146
f 144/144/144 161/161/161 162/162/162
f 145/145/145 144/144/144 162/162/162
f 162/162/162 163/163/163 145/145/145
f 163/163/163 148/148/148 145/145/145
f 148/148/148 163/163/163 164/164/164
f 151/151/151 148/148/148 164/164/164
f 164/164/164 165/165/165 151/151/151
f 165/165/165 136/136/136 151/151/151
f 165/165/165 166/166/166 136/136/136
f 166/166/166 132/132/132 136/136/136
f 132/132/132 166/166/166 167/167/167
f 135/135/135 132/132/132 167/167/167
f 167/167/167 168/168/168 135/135/135
f 168/168/168 129/129/129 135/135/135
f 168/168/168 169/169/169 129/129/129
f 169/169/169 126/126/126 129/129/129
f 169/169/169 170/170/170 126/126/126
f 170/170/170 123/123/123 126/126/126
f 170/170/170 171/171/171 123/123/123
f 171/171/171 117/117/117 123/123/123
f 117/117/117 171/171/171 172/172/172
f 122/122/122 117/117/117 172/172/172
f 172/172/172 173/173/173 122/122/122
f 173/173/173 116/116/116 122/122/122
f 173/173/173 174/174/174 116/116/116
f 174/174/174 111/111/111 116/116/116
f 111/111/111 174/174/174 175/175/175
f 112/112/112 111/111/111 175/175/175
f 168/168/168 176/176/176 169/169/169
f 169/169/169 177/177/177 170/170/170
f 176/176/176 177/177/177 169/169/169
f 170/170/170 178/178/178 171/171/171
f 177/177/177 178/178/178 170/170/170
f 171/171/171 179/179/179 172/172/172
f 178/178/178 179/179/179 171/171/171
f 172/172/172 180/180/180 173/173/173
f 179/179/179 180/180/180 172/172/172
f 173/173/173 181/181/181 174/174/174
f 180/180/180 181/181/181 173/173/173
f 174/174/174 182/182/182 175/175/175
f 181/181/181 182/182/182 174/174/174
f 183/183/183 176/176/176 168/168/168
f 167/167/167 183/183/183 168/168/168
f 184/184/184 183/183/183 167/167/167
f 166/166/166 184/184/184 167/167/167
f 185/185/185 184/184/184 166/166/166
f 165/165/165 185/185/185 166/166/166
f 186/186/186 185/185/185 165/165/165
f 164/164/164 186/186/186 165/165/165
f 187/187/187 186/186/186 164/164/164
f 163/163/163 187/187/187 164/164/164
f 188/188/188 187/187/187 163/163/163
f 162/162/162 188/188/188 163/163/163
f 189/189/189 188/188/188 162/162/162
f 161/161/161 189/189/189 162/162/162
f 190/190/190 189/189/189 161/161/161
f 160/160/160 190/190/190 161/161/161
f 191/191/191 190/190/190 160/160/160
f 155/155/155 191/191/191 160/160/160
f 192/192/192 191/191/191 155/155/155
f 154/154/154 192/192/192 155/155/155
f 193/193/193 192/192/192 154/154/154
f 156/156/156 193/193/193 154/154/154
f 194/194/194 193/193/193 156/156/156
f 157/157/157 194/194/194 156/156/156
f 195/195/195 194/194/194 157/157/157
f 158/158/158 195/195/195 157/157/157
f 196/196/196 195/195/195 158/158/158
f 159/159/159 196/196/196 158/158/158
f 197/197/197 189/189/189 190/190/190
f 198/198/198 190/190/190 191/191/191
f 198/198/198 197/197/197 190/190/190
f 197/197/197 198/198/198 199/199/199
f 198/198/198 200/200/200 199/199/199
f 200/200/200 198/198/198 191/191/191
f 201/201/201 197/197/197 199/199/199
f 189/189/189 197/197/197 201/201/201
f 191/191/191 192/192/192 200/200/200
f 188/188/188 189/189/189 201/201/201
f 192/192/192 202/202/202 200/200/200
f 200/200/200 202/202/202 199/199/199
f 202/202/202 192/192/192 193/193/193
f 188/188/188 201/201/201 203/203/203
f 203/203/203 201/201/201 199/199/199
f 187/187/187 188/188/188 203/203/203
f 204/204/204 202/202/202 193/193/193
f 202/202/202 204/204/204 199/199/199
f 204/204/204 193/193/193 194/194/194
f 187/187/187 203/203/203 205/205/205
f 205/205/205 203/203/203 199/199/199
f 186/186/186 187/187/187 205/205/205
f 206/206/206 204/204/204 194/194/194
f 204/204/204 206/206/206 199/199/199
f 206/206/206 194/194/194 195/195/195
f 207/207/207 205/205/205 199/199/199
f 205/205/205 207/207/207 186/186/186
f 206/206/206 208/208/208 199/199/199
f 208/208/208 206/206/206 195/195/195
f 209/209/209 207/207/207 199/199/199
f 207/207/207 185/185/185 186/186/186
f 207/207/207 209/209/209 185/185/185
f 209/209/209 184/184/184 185/185/185
f 208/208/208 195/195/195 196/196/196
f 184/184/184 209/209/209 210/210/210
f 210/210/210 209/209/209 199/199/199
f 183/183/183 184/184/184 210/210/210
f 210/210/210 211/211/211 183/183/183
f 211/211/211 210/210/210 199/199/199
f 211/211/211 176/176/176 183/183/183
f 211/211/211 212/212/212 176/176/176
f 212/212/212 211/211/211 199/199/199
f 212/212/212 177/177/177 176/176/176
f 212/212/212 213/213/213 177/177/177
f 213/213/213 212/212/212 199/199/199
f 213/213/213 178/178/178 177/177/177
f 213/213/213 214/214/214 178/178/178
f 214/214/214 213/213/213 199/199/199
f 214/214/214 179/179/179 178/178/178
f 208/208/208 215/215/215 199/199/199
f 216/216/216 214/214/214 199/199/199
f 179/179/179 214/214/214 216/216/216
f 217/217/217 216/216/216 199/199/199
f 180/180/180 179/179/179 216/216/216
f 216/216/216 217/217/217 180/180/180
f 217/217/217 181/181/181 180/180/180
f 215/215/215 208/208/208 196/196/196
f 217/217/217 218/218/218 181/181/181
f 218/218/218 217/217/217 199/199/199
f 218/218/218 182/182/182 181/181/181
f 196/196/196 219/219/219 215/215/215
f 219/219/219 196/196/196 159/159/159
f 182/182/182 218/218/218 220/220/220
f 220/220/220 218/218/218 199/199/199
f 221/221/221 182/182/182 220/220/220
f 182/182/182 221/221/221 175/175/175
f 215/215/215 222/222/222 199/199/199
f 219/219/219 222/222/222 215/215/215
f 223/223/223 219/219/219 159/159/159
f 121/121/121 223/223/223 159/159/159
f 222/222/222 219/219/219 224/224/224
f 224/224/224 219/219/219 223/223/223
f 223/223/223 121/121/121 225/225/225
f 225/225/225 121/121/121 113/113/113
f 225/225/225 113/113/113 105/105/105
f 226/226/226 223/223/223 225/225/225
f 226/226/226 224/224/224 223/223/223
f 227/227/227 222/222/222 224/224/224
f 222/222/222 227/227/227 199/199/199
f 228/228/228 225/225/225 105/105/105
f 226/226/226 225/225/225 228/228/228
f 227/227/227 224/224/224 229/229/229
f 229/229/229 224/224/224 226/226/226
f 227/227/227 230/230/230 199/199/199
f 230/230/230 227/227/227 229/229/229
f 228/228/228 105/105/105 231/231/231
f 105/105/105 106/106/106 231/231/231
f 231/231/231 106/106/106 112/112/112
f 232/232/232 226/226/226 228/228/228
f 232/232/232 229/229/229 226/226/226
f 232/232/232 228/228/228 231/231/231
f 233/233/233 231/231/231 112/112/112
f 233/233/233 232/232/232 231/231/231
f 175/175/175 233/233/233 112/112/112
f 175/175/175 221/221/221 233/233/233
f 234/234/234 229/229/229 232/232/232
f 233/233/233 234/234/234 232/232/232
f 229/229/229 234/234/234 230/230/230
f 221/221/221 234/234/234 233/233/233
f 230/230/230 235/235/235 199/199/199
f 234/234/234 235/235/235 230/230/230
f 234/234/234 221/221/221 235/235/235
f 235/235/235 220/220/220 199/199/199
f 221/221/221 220/220/220 235/235/235
f 238/238/238 237/237/237 236/236/236
f 239/239/239 238/238/238 236/236/236
f 239/239/239 236/236/236 240/240/240
f 238/238/238 241/241/241 237/237/237
f 241/241/241 242/242/242 237/237/237
f 243/243/243 239/239/239 240/240/240
f 243/243/243 240/240/240 244/244/244
f 241/241/241 245/245/245 242/242/242
f 245/245/245 246/246/246 242/242/242
f 247/247/247 243/243/243 244/244/244
f 247/247/247 244/244/244 248/248/248
f 245/245/245 249/249/249 246/246/246
f 249/249/249 250/250/250 246/246/246
f 251/251/251 247/247/247 248/248/248
f 251/251/251 248/248/248 252/252/252
f 249/249/249 253/253/253 250/250/250
f 253/253/253 254/254/254 250/250/250
f 255/255/255 251/251/251 252/252/252
f 255/255/255 252/252/252 256/256/256
f 253/253/253 257/257/257 254/254/254
f 257/257/257 258/258/258 254/254/254
f 259/259/259 255/255/255 256/256/256
f 259/259/259 256/256/256 260/260/260
f 257/257/257 261/261/261 258/258/258
f 261/261/261 262/262/262 258/258/258
f 263/263/263 259/259/259 260/260/260
f 263/263/263 260/260/260 264/264/264
f 261/261/261 265/265/265 262/262/262
f 265/265/265 266/266/266 262/262/262
f 267/267/267 263/263/263 264/264/264
f 267/267/267 264/264/264 268/268/268
f 265/265/265 269/269/269 266/266/266
f 269/269/269 270/270/270 266/266/266
f 271/271/271 267/267/267 268/268/268
f 271/271/271 268/268/268 272/272/272
f 269/269/269 273/273/273 270/270/270
f 273/273/273 274/274/274 270/270/270
f 275/275/275 271/271/271 272/272/272
f 275/275/275 272/272/272 276/276/276
f 273/273/273 277/277/277 274/274/274
f 277/277/277 278/278/278 274/274/274
f 279/279/279 275/275/275 276/276/276
f 279/279/279 276/276/276 280/280/280
f 277/277/277 281/281/281 278/278/278
f 281/281/281 282/282/282 278/278/278
f 283/283/283 279/279/279 280/280/280
f 283/283/283 280/280/280 284/284/284
f 281/281/281 285/285/285 282/282/282
f 285/285/285 286/286/286 282/282/282
f 287/287/287 284/284/284 286/286/286
f 287/287/287 283/283/283 284/284/284
f 285/285/285 287/287/287 286/286/286
f 277/277/277 273/273/273 288/288/288
f 281/281/281 277/277/277 289/289/289
f 289/289/289 277/277/277 288/288/288
f 281/281/281 290/290/290 285/285/285
f 290/290/290 281/281/281 289/289/289
f 287/287/287 285/285/285 291/291/291
f 290/290/290 291/291/291 285/285/285
f 283/283/283 287/287/287 292/292/292
f 292/292/292 287/287/287 291/291/291
f 283/283/283 293/293/293 279/279/279
f 293/293/293 283/283/283 292/292/292
f 289/289/289 294/294/294 290/290/290
f 294/294/294 289/289/289 288/288/288
f 295/295/295 288/288/288 273/273/273
f 269/269/269 295/295/295 273/273/273
f 296/296/296 292/292/292 291/291/291
f 292/292/292 296/296/296 293/293/293
f 293/293/293 297/297/297 279/279/279
f 279/279/279 297/297/297 275/275/275
f 290/290/290 298/298/298 291/291/291
f 294/294/294 298/298/298 290/290/290
f 299/299/299 295/295/295 269/269/269
f 265/265/265 299/299/299 269/269/269
f 300/300/300 296/296/296 291/291/291
f 298/298/298 300/300/300 291/291/291
f 293/293/293 301/301/301 297/297/297
f 296/296/296 301/301/301 293/293/293
f 297/297/297 302/302/302 275/275/275
f 275/275/275 302/302/302 271/271/271
f 299/299/299 265/265/265 303/303/303
f 265/265/265 261/261/261 303/303/303
f 303/303/303 261/261/261 304/304/304
f 261/261/261 257/257/257 304/304/304
f 303/303/303 305/305/305 299/299/299
f 303/303/303 304/304/304 305/305/305
f 304/304/304 257/257/257 306/306/306
f 257/257/257 253/253/253 306/306/306
f 301/301/301 307/307/307 297/297/297
f 297/297/297 307/307/307 302/302/302
f 302/302/302 308/308/308 271/271/271
f 267/267/267 271/271/271 308/308/308
f 305/305/305 309/309/309 299/299/299
f 299/299/299 309/309/309 295/295/295
f 310/310/310 304/304/304 306/306/306
f 304/304/304 310/310/310 305/305/305
f 311/311/311 306/306/306 253/253/253
f 249/249/249 311/311/311 253/253/253
f 307/307/307 312/312/312 302/302/302
f 302/302/302 312/312/312 308/308/308
f 313/313/313 267/267/267 308/308/308
f 267/267/267 313/313/313 263/263/263
f 313/313/313 314/314/314 263/263/263
f 263/263/263 314/314/314 259/259/259
f 315/315/315 313/313/313 308/308/308
f 313/313/313 315/315/315 314/314/314
f 314/314/314 316/316/316 259/259/259
f 259/259/259 316/316/316 255/255/255
f 317/317/317 311/311/311 249/249/249
f 245/245/245 317/317/317 249/249/249
f 312/312/312 318/318/318 308/308/308
f 318/318/318 315/315/315 308/308/308
f 314/314/314 319/319/319 316/316/316
f 315/315/315 319/319/319 314/314/314
f 316/316/316 320/320/320 255/255/255
f 255/255/255 320/320/320 251/251/251
f 321/321/321 317/317/317 245/245/245
f 241/241/241 321/321/321 245/245/245
f 319/319/319 322/322/322 316/316/316
f 316/316/316 322/322/322 320/320/320
f 320/320/320 323/323/323 251/251/251
f 247/247/247 251/251/251 323/323/323
f 321/321/321 241/241/241 324/324/324
f 241/241/241 238/238/238 324/324/324
f 324/324/324 238/238/238 325/325/325
f 238/238/238 239/239/239 325/325/325
f 324/324/324 326/326/326 321/321/321
f 326/326/326 324/324/324 325/325/325
f 321/321/321 327/327/327 317/317/317
f 326/326/326 327/327/327 321/321/321
f 322/322/322 328/328/328 320/320/320
f 320/320/320 328/328/328 323/323/323
f 329/329/329 247/247/247 323/323/323
f 243/243/243 247/247/247 329/329/329
f 243/243/243 330/330/330 239/239/239
f 330/330/330 243/243/243 329/329/329
f 330/330/330 325/325/325 239/239/239
f 331/331/331 329/329/329 323/323/323
f 329/329/329 331/331/331 330/330/330
f 330/330/330 332/332/332 325/325/325
f 331/331/331 332/332/332 330/330/330
f 327/327/327 333/333/333 317/317/317
f 317/317/317 333/333/333 311/311/311
f 328/328/328 334/334/334 323/323/323
f 334/334/334 331/331/331 323/323/323
f 332/332/332 335/335/335 325/325/325
f 335/335/335 326/326/326 325/325/325
f 333/333/333 336/336/336 311/311/311
f 311/311/311 336/336/336 306/306/306
f 336/336/336 337/337/337 306/306/306
f 337/337/337 310/310/310 306/306/306
f 338/338/338 327/327/327 326/326/326
f 339/339/339 326/326/326 335/335/335
f 339/339/339 338/338/338 326/326/326
f 340/340/340 335/335/335 332/332/332
f 340/340/340 339/339/339 335/335/335
f 341/341/341 332/332/332 331/331/331
f 341/341/341 340/340/340 332/332/332
f 342/342/342 333/333/333 327/327/327
f 338/338/338 342/342/342 327/327/327
f 343/343/343 336/336/336 333/333/333
f 342/342/342 343/343/343 333/333/333
f 344/344/344 337/337/337 336/336/336
f 343/343/343 344/344/344 336/336/336
f 345/345/345 310/310/310 337/337/337
f 344/344/344 345/345/345 337/337/337
f 346/346/346 341/341/341 331/331/331
f 346/346/346 331/331/331 334/334/334
f 345/345/345 347/347/347 310/310/310
f 347/347/347 305/305/305 310/310/310
f 348/348/348 346/346/346 334/334/334
f 348/348/348 334/334/334 328/328/328
f 347/347/347 349/349/349 305/305/305
f 349/349/349 309/309/309 305/305/305
f 350/350/350 348/348/348 328/328/328
f 350/350/350 328/328/328 322/322/322
f 351/351/351 350/350/350 322/322/322
f 351/351/351 322/322/322 319/319/319
f 352/352/352 351/351/351 319/319/319
f 352/352/352 319/319/319 315/315/315
f 353/353/353 352/352/352 315/315/315
f 353/353/353 315/315/315 318/318/318
f 354/354/354 353/353/353 318/318/318
f 354/354/354 318/318/318 312/312/312
f 355/355/355 354/354/354 312/312/312
f 355/355/355 312/312/312 307/307/307
f 356/356/356 355/355/355 307/307/307
f 356/356/356 307/307/307 301/301/301
f 357/357/357 356/356/356 301/301/301
f 357/357/357 301/301/301 296/296/296
f 358/358/358 357/357/357 296/296/296
f 358/358/358 296/296/296 300/300/300
f 359/359/359 358/358/358 300/300/300
f 359/359/359 300/300/300 298/298/298
f 360/360/360 359/359/359 298/298/298
f 360/360/360 298/298/298 294/294/294
f 354/354/354 361/361/361 353/353/353
f 355/355/355 362/362/362 354/354/354
f 362/362/362 361/361/361 354/354/354
f 356/356/356 363/363/363 355/355/355
f 363/363/363 362/362/362 355/355/355
f 357/357/357 364/364/364 356/356/356
f 364/364/364 363/363/363 356/356/356
f 358/358/358 365/365/365 357/357/357
f 365/365/365 364/364/364 357/357/357
f 359/359/359 366/366/366 358/358/358
f 366/366/366 365/365/365 358/358/358
f 361/361/361 367/367/367 353/353/353
f 353/353/353 367/367/367 352/352/352
f 368/368/368 366/366/366 359/359/359
f 360/360/360 368/368/368 359/359/359
f 366/366/366 369/369/369 365/365/365
f 366/366/366 368/368/368 369/369/369
f 365/365/365 370/370/370 364/364/364
f 369/369/369 370/370/370 365/365/365
f 364/364/364 371/371/371 363/363/363
f 370/370/370 371/371/371 364/364/364
f 361/361/361 372/372/372 367/367/367
f 361/361/361 362/362/362 372/372/372
f 367/367/367 373/373/373 352/352/352
f 352/352/352 373/373/373 351/351/351
f 363/363/363 374/374/374 362/362/362
f 371/371/371 374/374/374 363/363/363
f 372/372/372 375/375/375 367/367/367
f 367/367/367 375/375/375 373/373/373
f 373/373/373 376/376/376 351/351/351
f 351/351/351 376/376/376 350/350/350
f 362/362/362 377/377/377 372/372/372
f 374/374/374 377/377/377 362/362/362
f 376/376/376 378/378/378 350/350/350
f 350/350/350 378/378/378 348/348/348
f 378/378/378 379/379/379 348/348/348
f 348/348/348 379/379/379 346/346/346
f 379/379/379 380/380/380 346/346/346
f 346/346/346 380/380/380 341/341/341
f 379/379/379 378/378/378 381/381/381
f 379/379/379 381/381/381 380/380/380
f 378/378/378 376/376/376 382/382/382
f 378/378/378 382/382/382 381/381/381
f 376/376/376 373/373/373 383/383/383
f 376/376/376 383/383/383 382/382/382
f 380/380/380 384/384/384 341/341/341
f 341/341/341 384/384/384 340/340/340
f 381/381/381 385/385/385 380/380/380
f 380/380/380 385/385/385 384/384/384
f 373/373/373 386/386/386 383/383/383
f 375/375/375 386/386/386 373/373/373
f 384/384/384 387/387/387 340/340/340
f 340/340/340 387/387/387 339/339/339
f 387/387/387 388/388/388 339/339/339
f 339/339/339 388/388/388 338/338/338
f 387/387/387 384/384/384 389/389/389
f 387/387/387 389/389/389 388/388/388
f 388/388/388 390/390/390 338/338/338
f 338/338/338 390/390/390 342/342/342
f 385/385/385 391/391/391 384/384/384
f 384/384/384 391/391/391 389/389/389
f 388/388/388 392/392/392 390/390/390
f 389/389/389 392/392/392 388/388/388
f 390/390/390 393/393/393 342/342/342
f 342/342/342 393/393/393 343/343/343
f 392/392/392 394/394/394 390/390/390
f 390/390/390 394/394/394 393/393/393
f 393/393/393 395/395/395 343/343/343
f 343/343/343 395/395/395 344/344/344
f 394/394/394 396/396/396 393/393/393
f 393/393/393 396/396/396 395/395/395
f 395/395/395 397/397/397 344/344/344
f 344/344/344 397/397/397 345/345/345
f 397/397/397 398/398/398 345/345/345
f 345/345/345 398/398/398 347/347/347
f 397/397/397 395/395/395 399/399/399
f 397/397/397 399/399/399 398/398/398
f 398/398/398 400/400/400 347/347/347
f 349/349/349 347/347/347 400/400/400
f 396/396/396 401/401/401 395/395/395
f 395/395/395 401/401/401 399/399/399
f 398/398/398 402/402/402 400/400/400
f 399/399/399 402/402/402 398/398/398
f 394/394/394 403/403/403 396/396/396
f 396/396/396 404/404/404 401/401/401
f 403/403/403 404/404/404 396/396/396
f 404/404/404 403/403/403 405/405/405
f 406/406/406 404/404/404 405/405/405
f 404/404/404 406/406/406 401/401/401
f 399/399/399 401/401/401 406/406/406
f 403/403/403 407/407/407 405/405/405
f 407/407/407 403/403/403 394/394/394
f 392/392/392 407/407/407 394/394/394
f 408/408/408 399/399/399 406/406/406
f 399/399/399 408/408/408 402/402/402
f 408/408/408 406/406/406 405/405/405
f 409/409/409 407/407/407 392/392/392
f 407/407/407 409/409/409 405/405/405
f 389/389/389 409/409/409 392/392/392
f 409/409/409 389/389/389 410/410/410
f 409/409/409 410/410/410 405/405/405
f 389/389/389 391/391/391 410/410/410
f 411/411/411 410/410/410 391/391/391
f 410/410/410 411/411/411 405/405/405
f 385/385/385 411/411/411 391/391/391
f 412/412/412 411/411/411 385/385/385
f 411/411/411 412/412/412 405/405/405
f 381/381/381 412/412/412 385/385/385
f 413/413/413 408/408/408 405/405/405
f 408/408/408 413/413/413 402/402/402
f 412/412/412 414/414/414 405/405/405
f 412/412/412 381/381/381 414/414/414
f 415/415/415 413/413/413 405/405/405
f 381/381/381 382/382/382 414/414/414
f 402/402/402 413/413/413 416/416/416
f 413/413/413 415/415/415 416/416/416
f 402/402/402 416/416/416 400/400/400
f 417/417/417 414/414/414 382/382/382
f 414/414/414 417/417/417 405/405/405
f 383/383/383 417/417/417 382/382/382
f 418/418/418 417/417/417 383/383/383
f 417/417/417 418/418/418 405/405/405
f 386/386/386 418/418/418 383/383/383
f 419/419/419 418/418/418 386/386/386
f 418/418/418 419/419/419 405/405/405
f 375/375/375 419/419/419 386/386/386
f 420/420/420 419/419/419 375/375/375
f 419/419/419 420/420/420 405/405/405
f 372/372/372 420/420/420 375/375/375
f 420/420/420 372/372/372 421/421/421
f 420/420/420 421/421/421 405/405/405
f 372/372/372 377/377/377 421/421/421
f 421/421/421 422/422/422 405/405/405
f 422/422/422 421/421/421 377/377/377
f 374/374/374 422/422/422 377/377/377
f 422/422/422 423/423/423 405/405/405
f 423/423/423 422/422/422 374/374/374
f 423/423/423 424/424/424 405/405/405
f 371/371/371 423/423/423 374/374/374
f 424/424/424 423/423/423 371/371/371
f 370/370/370 424/424/424 371/371/371
f 425/425/425 424/424/424 370/370/370
f 424/424/424 425/425/425 405/405/405
f 369/369/369 425/425/425 370/370/370
f 425/425/425 369/369/369 426/426/426
f 425/425/425 426/426/426 405/405/405
f 369/369/369 427/427/427 426/426/426
f 368/368/368 427/427/427 369/369/369
f 428/428/428 426/426/426 427/427/427
f 426/426/426 428/428/428 405/405/405
f 429/429/429 427/427/427 368/368/368
f 429/429/429 428/428/428 427/427/427
f 428/428/428 430/430/430 405/405/405
f 430/430/430 428/428/428 429/429/429
f 431/431/431 429/429/429 368/368/368
f 431/431/431 368/368/368 360/360/360
f 432/432/432 430/430/430 429/429/429
f 432/432/432 429/429/429 431/431/431
f 430/430/430 433/433/433 405/405/405
f 430/430/430 432/432/432 433/433/433
f 434/434/434 431/431/431 360/360/360
f 434/434/434 360/360/360 294/294/294
f 433/433/433 435/435/435 405/405/405
f 435/435/435 415/415/415 405/405/405
f 435/435/435 433/433/433 436/436/436
f 432/432/432 436/436/436 433/433/433
f 435/435/435 437/437/437 415/415/415
f 437/437/437 435/435/435 436/436/436
f 437/437/437 416/416/416 415/415/415
f 400/400/400 416/416/416 437/437/437
f 438/438/438 400/400/400 437/437/437
f 438/438/438 437/437/437 436/436/436
f 438/438/438 349/349/349 400/400/400
f 439/439/439 432/432/432 431/431/431
f 439/439/439 431/431/431 434/434/434
f 440/440/440 436/436/436 432/432/432
f 440/440/440 438/438/438 436/436/436
f 439/439/439 440/440/440 432/432/432
f 349/349/349 438/438/438 441/441/441
f 438/438/438 440/440/440 441/441/441
f 349/349/349 441/441/441 309/309/309
f 440/440/440 439/439/439 442/442/442
f 442/442/442 439/439/439 434/434/434
f 441/441/441 440/440/440 442/442/442
f 441/441/441 443/443/443 309/309/309
f 441/441/441 442/442/442 443/443/443
f 309/309/309 443/443/443 295/295/295
f 295/295/295 443/443/443 288/288/288
f 442/442/442 434/434/434 444/444/444
f 442/442/442 444/444/444 443/443/443
f 443/443/443 444/444/444 288/288/288
f 434/434/434 294/294/294 444/444/444
f 444/444/444 294/294/294 288/288/288
