mtllib Pen_3.mtl
v 0.07622667 0.002227789 0.004098999
v 0.07622667 0.002227785 0.004671112
v 0.07609797 0.002227785 0.004730942
v 0.07609797 0.002227787 0.004145416
v 0.07459355 0.002227781 0.005430283
v 0.07622667 0.002227789 0.00330365
v 0.07459355 0.002227783 0.004688111
v 0.07450038 0.002227781 0.005473587
v 0.07609797 0.002227789 0.00330365
v 0.07609797 0.003858635 0.001672806
v 0.07622667 0.003858635 0.001672806
v 0.07609797 0.004455568 -0.0005549775
v 0.07622667 0.004455568 -0.0005549775
v 0.07609797 0.003858637 -0.002782761
v 0.07622667 0.003858638 -0.002782761
v 0.07459355 0.003858633 -0.002782761
v 0.07459355 0.004455564 -0.0005549775
v 0.07450038 0.003858633 -0.002782761
v 0.07459355 0.003858631 0.001672806
v 0.07450038 0.004455564 -0.0005549775
v 0.07440453 0.00379903 -0.002748352
v 0.07459355 0.002227785 0.00330365
v 0.07440453 0.004386741 -0.0005549775
v 0.07430866 0.003858633 -0.002782761
v 0.07450038 0.003858631 0.001672806
v 0.07450038 0.002227783 0.00472171
v 0.03063034 0.002227514 0.00472171
v 0.03063154 0.002227546 0.005639344
v 0.02975662 0.00222751 0.00472171
v 0.02975784 0.002227542 0.005642639
v 0.07450038 0.002227783 0.00330365
v 0.07440453 0.003799028 0.001638397
v 0.07440453 0.002193372 0.003244049
v 0.07430866 0.004455564 -0.0005549775
v 0.07430866 0.003858629 0.001672806
v 0.07430866 0.002227783 0.00330365
v 0.07375062 0.002227783 0.00330365
v 0.07375062 0.003858629 0.001672806
v -0.08447114 0.002227781 0.00330365
v 0.07375062 0.004455564 -0.0005549775
v 0.07375062 0.003858633 -0.002782761
v -0.08447114 0.003858629 0.001672806
v -0.08447114 0.004455564 -0.0005549775
v -0.08447114 0.003858633 -0.002782761
v -0.0850281 0.003736105 -0.002712006
v -0.0850281 0.004314081 -0.0005549775
v -0.09996215 0.001069807 -0.001172638
v -0.09996215 0.001235309 -0.0005549775
v -0.0850281 0.003736103 0.001602066
v -0.0850281 0.002157041 0.003181122
v -0.09996215 0.001069805 6.268311E-05
v -0.09996215 0.0006176448 0.0005148468
v 0.07648081 -0.001925799 0.0005568848
v 0.07611556 -0.001821223 0.000496521
v 0.07611556 -0.002102969 -0.0005549775
v 0.07648081 -0.002223723 -0.0005549775
v 0.07611556 -0.001821223 -0.001606476
v 0.07648081 -0.001925799 -0.00166684
v 0.07611556 -0.001051478 -0.002376221
v 0.07648081 -0.001111855 -0.002480789
v 0.07648078 0.001925827 -0.00166684
v 0.07611553 0.001821251 -0.001606476
v 0.07611553 0.002102998 -0.0005549775
v 0.07648078 0.002223751 -0.0005549775
v 0.07611553 0.001821251 0.000496521
v 0.07648078 0.001925825 0.0005568848
v 0.07611553 0.001051504 0.001266266
v 0.07648078 0.001111881 0.001370834
v 0.07648078 0.001111883 -0.002480789
v 0.07611553 0.001821251 -0.001606476
v 0.07648078 0.001925827 -0.00166684
v 0.07611553 0.001051506 -0.002376221
v 0.07648078 1.478195E-08 -0.002778717
v 0.07611553 1.478195E-08 -0.002657959
v 0.07648081 -0.001111855 -0.002480789
v 0.07611556 -0.001051478 -0.002376221
v 0.07648081 -0.001111855 0.001370834
v 0.07611556 -0.001821223 0.000496521
v 0.07648081 -0.001925799 0.0005568848
v 0.07611556 -0.001051478 0.001266266
v 0.07648081 1.28746E-08 0.001668762
v 0.07611556 1.28746E-08 0.001548004
v 0.07648078 0.001111881 0.001370834
v 0.07611553 0.001051504 0.001266266
v 0.07609802 -0.00222777 0.00330365
v 0.07622672 -0.00222777 0.004098999
v 0.07622672 -0.002227769 0.00330365
v 0.07609802 -0.00222777 0.004145416
v 0.07622672 -0.002227772 0.004671112
v 0.07459361 -0.002227774 0.00330365
v 0.07609802 -0.002227772 0.004730942
v 0.07459361 -0.002227774 0.004688111
v 0.07450044 -0.002227774 0.00330365
v 0.07459361 -0.002227776 0.005430268
v 0.07450044 -0.002227774 0.00472171
v 0.07450044 -0.002227776 0.005473587
v 0.0306282 -0.002228009 0.005638565
v 0.0306304 -0.002228043 0.00472171
v 0.02975444 -0.002228015 0.005641846
v 0.02975667 -0.002228049 0.00472171
v 0.0306282 -0.002228009 0.005638565
v 0.02975444 -0.002228015 0.005641846
v 0.02975767 -3.418922E-07 0.006239166
v 0.03063138 -3.361702E-07 0.006235871
v 0.02975784 0.002227542 0.005642639
v 0.07450044 -0.002227776 0.005473587
v 0.03063154 0.002227546 0.005639344
v 0.07450044 1.430511E-09 0.006070511
v 0.07459361 -0.002227776 0.005430268
v 0.07450038 0.002227781 0.005473587
v 0.07459361 1.430511E-09 0.006027207
v 0.07609802 -0.002227772 0.004730942
v 0.07459355 0.002227781 0.005430283
v 0.07609802 7.152558E-09 0.005327866
v 0.07622672 -0.002227772 0.004671112
v 0.07609797 0.002227785 0.004730942
v 0.07622672 7.152558E-09 0.005268051
v 0.07622667 0.002227785 0.004671112
v 0.07450038 0.002227783 0.00330365
v 0.07450038 0.002227783 0.00472171
v 0.07450044 3.33786E-09 0.00531865
v 0.07450044 5.245209E-09 0.003900574
v 0.07450044 -0.002227774 0.00472171
v 0.07450044 -0.002227774 0.00330365
v 0.02975667 -2.69413E-07 0.00531865
v 0.02975444 -0.002228015 0.005641846
v 0.02975667 -0.002228049 0.00472171
v 0.02975767 -3.418922E-07 0.006239166
v 0.02975662 0.00222751 0.00472171
v 0.02975784 0.002227542 0.005642639
v -0.09996215 -2.145767E-08 0.0001236267
v -0.1014086 0.0003392787 3.271484E-05
v -0.09996215 0.0003392844 3.271484E-05
v -0.1014086 -2.527237E-08 0.0001236267
v -0.1017756 0.000222961 -0.0001687622
v -0.09996215 -0.0003393235 3.271484E-05
v -0.1017756 -2.336502E-08 -0.0001090088
v -0.1014086 -0.0003393293 3.271484E-05
v -0.09996215 -0.0005877119 -0.0002156677
v -0.1017756 -0.0002230077 -0.0001687622
v -0.1014086 -0.0005877176 -0.0002156677
v -0.1017756 -0.0003862443 -0.0003320008
v 0.07622672 -0.00222777 0.004098999
v 0.07622672 -0.002227772 0.004671112
v 0.07622672 7.152558E-09 0.005268051
v 0.07622672 9.059907E-09 0.004695923
v 0.07622667 0.002227785 0.004671112
v 0.07622667 0.002227789 0.004098999
v 0.07622672 -0.002227769 0.00330365
v 0.07622672 9.059907E-09 0.003900574
v 0.07622667 0.002227789 0.00330365
v 0.07648081 -0.00190564 0.002745712
v 0.07648081 1.28746E-08 0.003256317
v 0.07648081 -0.003300673 0.001350678
v 0.07622672 -0.003858615 0.001672791
v 0.07648077 0.001905664 0.002745712
v 0.07622667 0.003858635 0.001672806
v 0.07648081 -0.003811291 -0.0005549775
v 0.07622672 -0.004455546 -0.0005549775
v 0.07648077 0.003300699 0.001350678
v 0.07622667 0.004455568 -0.0005549775
v 0.07648081 -0.003300673 -0.002460632
v 0.07622672 -0.003858615 -0.002782761
v 0.07648077 0.003811319 -0.0005549775
v 0.07622667 0.003858638 -0.002782761
v 0.07648081 -0.001905638 -0.003855667
v 0.07622672 -0.002227767 -0.004413605
v 0.07648077 0.003300701 -0.002460632
v 0.07622667 0.00222779 -0.004413605
v 0.07648077 1.478195E-08 -0.004366287
v 0.07622667 1.28746E-08 -0.005010529
v 0.07648077 0.001905668 -0.003855667
v 0.07648081 -0.002048464 -0.001737671
v 0.07648081 -0.001182675 -0.002603455
v 0.07648078 1.478195E-08 -0.002920364
v 0.07648078 0.001182704 -0.002603455
v 0.07648078 0.002048492 -0.001737671
v 0.07648078 0.002365392 -0.0005549775
v 0.07648081 -0.002365365 -0.0005549775
v 0.07648078 0.00204849 0.0006277161
v 0.07648081 -0.002048464 0.0006277161
v 0.07648078 0.001182703 0.0014935
v 0.07648081 -0.001182677 0.0014935
v 0.07648081 1.28746E-08 0.001810394
v 0.07648078 0.002223751 -0.0005549775
v 0.07648078 0.001925827 -0.00166684
v 0.07648078 0.001925825 0.0005568848
v 0.07648078 0.001111881 0.001370834
v 0.07648078 0.001111883 -0.002480789
v 0.07648081 1.28746E-08 0.001668762
v 0.07648081 -0.001111855 0.001370834
v 0.07648078 1.478195E-08 -0.002778717
v 0.07648081 -0.001925799 0.0005568848
v 0.07648081 -0.001111855 -0.002480789
v 0.07648081 -0.002223723 -0.0005549775
v 0.07648081 -0.001925799 -0.00166684
v 0.03063034 0.002227514 0.00472171
v 0.02975662 0.00222751 0.00472171
v 0.02975667 -2.69413E-07 0.00531865
v 0.0306304 -2.63691E-07 0.00531865
v 0.07450038 0.002227783 0.00472171
v 0.02975667 -0.002228049 0.00472171
v 0.07450044 3.33786E-09 0.00531865
v 0.0306304 -0.002228043 0.00472171
v 0.07450044 -0.002227774 0.00472171
v 0.07611553 0.001821251 0.000496521
v 0.07628628 0.0009911285 0.001161682
v 0.07611553 0.001051504 0.001266266
v 0.07628628 0.001716674 0.000436142
v 0.07611553 0.002102998 -0.0005549775
v 0.07668415 0.0009897362 0.001159271
v 0.07628628 0.001982244 -0.0005549775
v 0.07611553 0.001821251 -0.001606476
v 0.07628628 0.001716676 -0.001546097
v 0.07668415 0.001714264 0.0004347382
v 0.08898754 0.0009474006 0.001085831
v 0.08898754 0.001640897 0.000392334
v 0.07668415 0.001979459 -0.0005549775
v 0.07668415 0.001714265 -0.001544708
v 0.08898754 0.001894735 -0.0005549927
v 0.08898754 0.001640897 -0.001502335
v 0.07611556 -0.001051478 0.001266266
v 0.07628629 -0.001716647 0.0004361267
v 0.07611556 -0.001821223 0.000496521
v 0.07628629 -0.0009911028 0.001161682
v 0.07611556 1.28746E-08 0.001548004
v 0.07668418 -0.001714234 0.0004347382
v 0.07628629 1.28746E-08 0.001427246
v 0.07611553 0.001051504 0.001266266
v 0.07628628 0.0009911285 0.001161682
v 0.07668418 -0.0009897066 0.001159271
v 0.08898756 -0.001640759 0.000392334
v 0.08898756 -0.0009472643 0.001085831
v 0.07668418 1.478195E-08 0.001424469
v 0.07668415 0.0009897362 0.001159271
v 0.08898756 6.818772E-08 0.001339661
v 0.08898754 0.0009474006 0.001085831
v 0.07668418 -0.0009897066 -0.002269226
v 0.08898756 -0.0009472623 -0.002195831
v 0.08898754 7.009506E-08 -0.002449661
v 0.07668415 1.66893E-08 -0.002534424
v 0.07628629 -0.0009911008 -0.002271637
v 0.08898754 0.0009474025 -0.002195831
v 0.07628628 1.478195E-08 -0.002537201
v 0.07611556 -0.001051478 -0.002376221
v 0.07611553 1.478195E-08 -0.002657959
v 0.07668415 0.000989738 -0.002269226
v 0.08898754 0.001640897 -0.001502335
v 0.07668415 0.001714265 -0.001544708
v 0.07628628 0.0009911285 -0.002271637
v 0.07611553 0.001051506 -0.002376221
v 0.07628628 0.001716676 -0.001546097
v 0.07611553 0.001821251 -0.001606476
v 0.07609802 -0.00222777 0.00330365
v 0.07622672 -0.002227769 0.00330365
v 0.07622672 -0.003858615 0.001672791
v 0.07609802 -0.003858615 0.001672791
v 0.07459361 -0.002227774 0.00330365
v 0.07459361 -0.003858618 0.001672791
v 0.07450044 -0.002227774 0.00330365
v 0.07450044 -0.003858618 0.001672791
v 0.07440457 -0.002193362 0.003244049
v 0.07440457 -0.003799018 0.001638397
v 0.07440457 5.245209E-09 0.003831757
v 0.07450044 5.245209E-09 0.003900574
v 0.07430872 -0.002227774 0.00330365
v 0.07430872 -0.00385862 0.001672791
v 0.07375067 -0.00385862 0.001672791
v 0.07440453 0.002193372 0.003244049
v 0.07450038 0.002227783 0.00330365
v 0.07430866 0.002227783 0.00330365
v 0.07430872 3.33786E-09 0.003900574
v 0.07375067 -0.002227774 0.00330365
v -0.08447114 -0.003858622 0.001672791
v 0.07375067 3.33786E-09 0.003900574
v 0.07375062 0.002227783 0.00330365
v -0.08447114 -0.002227774 0.00330365
v -0.08447114 3.33786E-09 0.003900574
v -0.08447114 0.002227781 0.00330365
v -0.0850281 0.002157041 0.003181122
v -0.0850281 1.430511E-09 0.003759095
v -0.09996215 0.0006176448 0.0005148468
v -0.09996215 -1.955032E-08 0.0006803589
v -0.0850281 -0.002157035 0.003181122
v -0.0850281 -0.003736098 0.001602051
v -0.09996215 -0.000617682 0.0005148468
v -0.09996215 -0.001069844 6.268311E-05
v 0.07609802 -0.002227767 -0.004413605
v 0.07622672 -0.002227767 -0.004413605
v 0.07622667 1.28746E-08 -0.005010529
v 0.07609797 1.28746E-08 -0.005010529
v 0.07459361 -0.00222777 -0.004413605
v 0.07622667 0.00222779 -0.004413605
v 0.07459355 7.152558E-09 -0.005010529
v 0.07450044 -0.00222777 -0.004413605
v 0.07609797 0.00222779 -0.004413605
v 0.07622667 0.003858638 -0.002782761
v 0.07609797 0.003858637 -0.002782761
v 0.07459355 0.002227787 -0.004413605
v 0.07459355 0.003858633 -0.002782761
v 0.07450038 7.152558E-09 -0.005010529
v 0.07440457 -0.00219336 -0.004354004
v 0.07450038 0.002227787 -0.004413605
v 0.07450038 0.003858633 -0.002782761
v 0.07440453 7.152558E-09 -0.004941712
v 0.07430872 -0.002227772 -0.004413605
v 0.07440453 0.002193374 -0.004354004
v 0.07440453 0.00379903 -0.002748352
v 0.07430866 7.152558E-09 -0.005010529
v 0.07430866 0.002227785 -0.004413605
v 0.07430866 0.003858633 -0.002782761
v 0.07375062 0.003858633 -0.002782761
v 0.07375062 0.002227785 -0.004413605
v -0.08447114 0.003858633 -0.002782761
v 0.07375062 7.152558E-09 -0.005010529
v 0.07375067 -0.002227772 -0.004413605
v -0.08447114 0.002227785 -0.004413605
v -0.08447114 5.245209E-09 -0.005010529
v -0.08447114 -0.002227774 -0.004413605
v -0.0850281 -0.002157035 -0.004291077
v -0.0850281 5.245209E-09 -0.004869049
v -0.09996215 -0.000617682 -0.001624802
v -0.09996215 -1.955032E-08 -0.001790298
v -0.0850281 0.002157043 -0.004291077
v -0.0850281 0.003736105 -0.002712006
v -0.09996215 0.0006176448 -0.001624802
v -0.09996215 0.001069807 -0.001172638
v -0.1014086 -0.0003393293 -0.00114267
v -0.1017756 -0.0002230077 -0.0009411927
v -0.1017756 -0.0003862443 -0.0007779541
v -0.1014086 -0.0005877157 -0.0008942871
v -0.09996215 -0.0003393235 -0.00114267
v -0.1017756 -0.000445992 -0.0005549775
v -0.09996215 -0.0005877119 -0.0008942871
v -0.1014086 -0.0006786332 -0.0005549775
v -0.1017756 -0.0003862443 -0.0003320008
v -0.09996215 -0.0006786294 -0.0005549775
v -0.1014086 -0.0005877176 -0.0002156677
v -0.09996215 -0.0005877119 -0.0002156677
v -0.1014086 0.000587667 -0.0008942871
v -0.1017756 0.0003861957 -0.0007779541
v -0.1017756 0.000222961 -0.0009411927
v -0.1014086 0.0003392787 -0.00114267
v -0.09996215 0.0005876728 -0.0008942871
v -0.1017756 -2.336502E-08 -0.001000946
v -0.09996215 0.0003392844 -0.00114267
v -0.1014086 -2.527237E-08 -0.001233582
v -0.1017756 -0.0002230077 -0.0009411927
v -0.09996215 -1.955032E-08 -0.001233582
v -0.1014086 -0.0003393293 -0.00114267
v -0.09996215 -0.0003393235 -0.00114267
v -0.1017756 -0.0003862443 -0.0003320008
v -0.1017756 -0.000445992 -0.0005549775
v -0.1017756 -0.0003862443 -0.0007779541
v -0.1017756 -0.0002230077 -0.0001687622
v -0.1017756 -0.0002230077 -0.0009411927
v -0.1017756 -2.336502E-08 -0.0001090088
v -0.1017756 -2.336502E-08 -0.001000946
v -0.1017756 0.000222961 -0.0001687622
v -0.1017756 0.000222961 -0.0009411927
v -0.1017756 0.0003861957 -0.0003320008
v -0.1017756 0.0003861957 -0.0007779541
v -0.1017756 0.0004459453 -0.0005549775
v -0.1014086 0.0003392787 3.271484E-05
v -0.1017756 0.000222961 -0.0001687622
v -0.1017756 0.0003861957 -0.0003320008
v -0.1014086 0.000587667 -0.0002156677
v -0.09996215 0.0003392844 3.271484E-05
v -0.1017756 0.0004459453 -0.0005549775
v -0.09996215 0.0005876708 -0.0002156677
v -0.1014086 0.0006785846 -0.0005549775
v -0.1017756 0.0003861957 -0.0007779541
v -0.09996215 0.0006785884 -0.0005549775
v -0.1014086 0.000587667 -0.0008942871
v -0.09996215 0.0005876728 -0.0008942871
v 0.07668418 -0.001714234 0.0004347382
v 0.08898756 -0.001640759 0.000392334
v 0.08898756 -0.001894597 -0.0005549927
v 0.07668418 -0.001979428 -0.0005549775
v 0.07628629 -0.001716647 0.0004361267
v 0.08898756 -0.001640759 -0.001502335
v 0.07628629 -0.001982216 -0.0005549775
v 0.07611556 -0.001821223 0.000496521
v 0.07611556 -0.002102969 -0.0005549775
v 0.07668418 -0.001714234 -0.001544708
v 0.08898756 -0.0009472623 -0.002195831
v 0.07668418 -0.0009897066 -0.002269226
v 0.07628629 -0.001716647 -0.001546097
v 0.07611556 -0.001821223 -0.001606476
v 0.07628629 -0.0009911008 -0.002271637
v 0.07611556 -0.001051478 -0.002376221
v 0.07609802 -0.003858615 0.001672791
v 0.07622672 -0.003858615 0.001672791
v 0.07622672 -0.004455546 -0.0005549775
v 0.07609802 -0.004455546 -0.0005549775
v 0.07459361 -0.003858618 0.001672791
v 0.07622672 -0.003858615 -0.002782761
v 0.07459361 -0.00445555 -0.0005549775
v 0.07450044 -0.003858618 0.001672791
v 0.07609802 -0.003858615 -0.002782761
v 0.07622672 -0.002227767 -0.004413605
v 0.07609802 -0.002227767 -0.004413605
v 0.07459361 -0.003858618 -0.002782761
v 0.07459361 -0.00222777 -0.004413605
v 0.07450044 -0.00445555 -0.0005549775
v 0.07440457 -0.003799018 0.001638397
v 0.07450044 -0.003858618 -0.002782761
v 0.07450044 -0.00222777 -0.004413605
v 0.07440457 -0.004386729 -0.0005549775
v 0.07430872 -0.00385862 0.001672791
v 0.07440457 -0.003799018 -0.002748352
v 0.07440457 -0.00219336 -0.004354004
v 0.07430872 -0.004455552 -0.0005549775
v 0.07430872 -0.00385862 -0.002782761
v 0.07430872 -0.002227772 -0.004413605
v 0.07375067 -0.002227772 -0.004413605
v 0.07375067 -0.00385862 -0.002782761
v -0.08447114 -0.002227774 -0.004413605
v 0.07375067 -0.004455552 -0.0005549775
v 0.07375067 -0.00385862 0.001672791
v -0.08447114 -0.00385862 -0.002782761
v -0.08447108 -0.004455552 -0.0005549775
v -0.08447114 -0.003858622 0.001672791
v -0.0850281 -0.003736098 0.001602051
v -0.08502806 -0.004314071 -0.0005549775
v -0.09996215 -0.001069844 6.268311E-05
v -0.09996215 -0.001235346 -0.0005549775
v -0.0850281 -0.003736094 -0.002712021
v -0.0850281 -0.002157035 -0.004291077
v -0.09996215 -0.001069844 -0.001172638
v -0.09996215 -0.000617682 -0.001624802
v 0.08898756 -0.001640759 -0.001502335
v 0.08898756 -0.001894597 -0.0005549927
v 0.08898756 -0.001640759 0.000392334
v 0.08898756 -0.0009472623 -0.002195831
v 0.08898756 -0.0009472643 0.001085831
v 0.08898756 6.818772E-08 0.001339661
v 0.08898754 7.009506E-08 -0.002449661
v 0.08898754 0.0009474006 0.001085831
v 0.08898754 0.0009474025 -0.002195831
v 0.08898754 0.001640897 0.000392334
v 0.08898754 0.001640897 -0.001502335
v 0.08898754 0.001894735 -0.0005549927
v -0.09996215 0.001069805 6.268311E-05
v -0.09996215 0.0005876708 -0.0002156677
v -0.09996215 0.0006785884 -0.0005549775
v -0.09996215 0.001235309 -0.0005549775
v -0.09996215 0.0006176448 0.0005148468
v -0.09996215 0.0005876728 -0.0008942871
v -0.09996215 0.0003392844 3.271484E-05
v -0.09996215 0.001069807 -0.001172638
v -0.09996215 -1.955032E-08 0.0006803589
v -0.09996215 0.0003392844 -0.00114267
v -0.09996215 -2.145767E-08 0.0001236267
v -0.09996215 0.0006176448 -0.001624802
v -0.09996215 -0.000617682 0.0005148468
v -0.09996215 -1.955032E-08 -0.001233582
v -0.09996215 -0.0003393235 3.271484E-05
v -0.09996215 -1.955032E-08 -0.001790298
v -0.09996215 -0.001069844 6.268311E-05
v -0.09996215 -0.0003393235 -0.00114267
v -0.09996215 -0.0005877119 -0.0002156677
v -0.09996215 -0.000617682 -0.001624802
v -0.09996215 -0.001235346 -0.0005549775
v -0.09996215 -0.0005877119 -0.0008942871
v -0.09996215 -0.0006786294 -0.0005549775
v -0.09996215 -0.001069844 -0.001172638
vt 0.1108327 0.0009801248
vt 0.1087764 0.0009588089
vt 0.1085613 0.001457209
vt 0.1106659 0.001479
vt 0.1060476 0.007283579
vt 0.1136915 0.001009783
vt 0.1087152 0.007311248
vt 0.1058919 0.007644406
vt 0.1136916 0.00151041
vt 0.1221605 0.001434498
vt 0.1221606 0.0009339007
vt 0.1311224 0.001467511
vt 0.1311224 0.000966884
vt 0.1381756 0.001600572
vt 0.1381756 0.001099945
vt 0.1381756 0.007453068
vt 0.1311223 0.007319977
vt 0.1381756 0.007815498
vt 0.1221605 0.007286993
vt 0.1311223 0.007682407
vt 0.1379566 0.008192059
vt 0.1136915 0.007362816
vt 0.1310124 0.008061076
vt 0.1381756 0.008561287
vt 0.1221605 0.007649424
vt 0.1085945 0.007672461
vt 0.1085941 0.1783344
vt 0.1052957 0.1782956
vt 0.1085941 0.1817334
vt 0.105284 0.1816943
vt 0.1136915 0.007725306
vt 0.1221889 0.008028598
vt 0.1138507 0.008103292
vt 0.1311223 0.008428226
vt 0.1221606 0.008395214
vt 0.1136916 0.008471096
vt 0.1136916 0.01064199
vt 0.1221606 0.01056611
vt 0.1136915 0.6261517
vt 0.1311224 0.01059912
vt 0.1381756 0.01073219
vt 0.1221606 0.6260759
vt 0.1311224 0.6261088
vt 0.1381756 0.6262419
vt 0.1377254 0.6284162
vt 0.1308962 0.6282874
vt 0.1279299 0.6866783
vt 0.1259743 0.6866414
vt 0.1222189 0.6282555
vt 0.1140188 0.6283289
vt 0.1234896 0.6866322
vt 0.1211415 0.6866533
vt 0.4850359 0.7401772
vt 0.4836075 0.7405624
vt 0.4835564 0.7438556
vt 0.4849819 0.7436594
vt 0.4835564 0.7480397
vt 0.4849819 0.7480838
vt 0.4836076 0.7519937
vt 0.4850359 0.7522646
vt 0.2443431 0.7380043
vt 0.2429146 0.7383896
vt 0.2428636 0.7416829
vt 0.2442891 0.7414866
vt 0.2428635 0.745867
vt 0.2442891 0.745911
vt 0.2429146 0.7498209
vt 0.2443431 0.7500918
vt 0.13263 0.7464719
vt 0.131253 0.7498777
vt 0.1326818 0.7502286
vt 0.131204 0.7463251
vt 0.13263 0.7419989
vt 0.131204 0.7420949
vt 0.1326818 0.738008
vt 0.131253 0.7383207
vt 0.4924287 0.7062612
vt 0.4937321 0.7029485
vt 0.492314 0.7025834
vt 0.4938405 0.7064264
vt 0.4924287 0.7107245
vt 0.4938405 0.7106474
vt 0.4923141 0.7147776
vt 0.4937322 0.7144805
vt 0.4275243 0.6890221
vt 0.4303846 0.6885607
vt 0.427526 0.6885214
vt 0.4305498 0.6890637
vt 0.432441 0.688589
vt 0.427504 0.6948745
vt 0.4326544 0.6890926
vt 0.4324801 0.694943
vt 0.4275027 0.6952369
vt 0.4351475 0.6949797
vt 0.4325995 0.6953071
vt 0.435302 0.6953443
vt 0.435302 0.8660219
vt 0.4320067 0.865968
vt 0.4353019 0.8694211
vt 0.4319949 0.8693669
vt 0.5410783 0.6917693
vt 0.5410905 0.6883705
vt 0.5320301 0.6883549
vt 0.5320178 0.6917536
vt 0.5239458 0.6882279
vt 0.5404633 0.8624274
vt 0.5239336 0.6916265
vt 0.5314029 0.8623992
vt 0.5404972 0.8627862
vt 0.5233194 0.8622713
vt 0.5314367 0.8627581
vt 0.5410437 0.8685804
vt 0.5233532 0.8626301
vt 0.5319833 0.8685523
vt 0.5410905 0.8690761
vt 0.5238997 0.8684243
vt 0.53203 0.8690479
vt 0.5239465 0.86892
vt 0.6669574 0.6885464
vt 0.661379 0.6885464
vt 0.6590307 0.6972153
vt 0.6646091 0.6972153
vt 0.661379 0.7058842
vt 0.6669574 0.7058842
vt 0.3846945 0.7136745
vt 0.3834231 0.7223433
vt 0.3870428 0.7223434
vt 0.3810733 0.7136748
vt 0.3870428 0.7050057
vt 0.38342 0.7050056
vt 0.3392583 0.7239552
vt 0.338027 0.7183139
vt 0.338027 0.723941
vt 0.3392582 0.7183281
vt 0.3386393 0.7168708
vt 0.3406382 0.7239535
vt 0.3394485 0.7168801
vt 0.3406382 0.7183264
vt 0.3417971 0.7239366
vt 0.3403554 0.7168791
vt 0.3417971 0.7183094
vt 0.341117 0.7168679
vt 0.0216011 0.6906965
vt 0.02101864 0.6885462
vt 0.01194568 0.6885461
vt 0.01252824 0.6906966
vt 0.004088316 0.6930334
vt 0.004670778 0.6951838
vt 0.02241091 0.6936859
vt 0.01333798 0.6936859
vt 0.005480588 0.6981733
vt 0.02175494 0.6961075
vt 0.01399395 0.6961076
vt 0.0284762 0.6999459
vt 0.03026827 0.6981733
vt 0.007272693 0.699946
vt 0.0009441266 0.7059456
vt 0.0323567 0.7065943
vt 0.03480474 0.7059456
vt 0.003392165 0.7065943
vt 0.0009441266 0.7149202
vt 0.0323567 0.7142714
vt 0.03480474 0.7149202
vt 0.003392165 0.7142713
vt 0.005480618 0.7226925
vt 0.02847617 0.7209198
vt 0.03026824 0.7226924
vt 0.007272663 0.7209198
vt 0.01333795 0.7271798
vt 0.02175491 0.7247583
vt 0.02241088 0.7271798
vt 0.01399389 0.7247583
vt 0.02686246 0.7128152
vt 0.0244541 0.7169413
vt 0.02028275 0.7193236
vt 0.01546608 0.7193236
vt 0.01129476 0.7169413
vt 0.00888643 0.7128151
vt 0.02686243 0.7080506
vt 0.008886401 0.7080505
vt 0.0244541 0.7039244
vt 0.01129476 0.7039244
vt 0.02028275 0.7015422
vt 0.01546608 0.7015422
vt 0.009424623 0.7126724
vt 0.01168871 0.7165515
vt 0.009424653 0.7081934
vt 0.01168874 0.7043142
vt 0.0156103 0.7187912
vt 0.01561033 0.7020746
vt 0.02013857 0.7020746
vt 0.02013854 0.7187912
vt 0.02406012 0.7043143
vt 0.02406012 0.7165515
vt 0.02632424 0.7081932
vt 0.02632424 0.7126725
vt 0.4064745 0.6921095
vt 0.4064745 0.6887139
vt 0.3982637 0.6885214
vt 0.3982637 0.6919169
vt 0.4064745 0.8626013
vt 0.3892229 0.6885594
vt 0.3982637 0.8624088
vt 0.3892229 0.6919549
vt 0.3892229 0.8624468
vt 0.4741088 0.7790783
vt 0.4703887 0.7784725
vt 0.4701117 0.7791288
vt 0.4741563 0.7784249
vt 0.4783388 0.7790782
vt 0.4703893 0.7769249
vt 0.4781434 0.7784249
vt 0.4816681 0.7791288
vt 0.4812815 0.7784725
vt 0.4741518 0.7768773
vt 0.4704054 0.7290685
vt 0.4740066 0.729023
vt 0.478133 0.7768773
vt 0.4812669 0.7769249
vt 0.4778175 0.729023
vt 0.480817 0.7290685
vt 0.3514336 0.7477196
vt 0.3481958 0.7471115
vt 0.347842 0.7477681
vt 0.3515811 0.7470658
vt 0.3557101 0.7477196
vt 0.3482058 0.7455638
vt 0.355612 0.7470658
vt 0.3595256 0.7477681
vt 0.3592085 0.7471114
vt 0.3515864 0.7455182
vt 0.3485113 0.6977061
vt 0.351747 0.6976624
vt 0.3556117 0.7455181
vt 0.359203 0.7455638
vt 0.3555999 0.6976624
vt 0.3590375 0.697706
vt 0.4568693 0.7312156
vt 0.4568788 0.7790179
vt 0.46037 0.7791145
vt 0.4605167 0.7313164
vt 0.4568689 0.7296697
vt 0.4642145 0.7791145
vt 0.4605213 0.7297708
vt 0.4565652 0.729023
vt 0.4604402 0.7291302
vt 0.4645332 0.7313165
vt 0.4673823 0.7790179
vt 0.4678427 0.7312155
vt 0.4645436 0.7297708
vt 0.4647074 0.7291302
vt 0.4678577 0.7296697
vt 0.4682235 0.729023
vt 0.4501162 0.001434528
vt 0.4501162 0.0009339007
vt 0.442507 0.001045468
vt 0.442507 0.001546065
vt 0.4501162 0.007287053
vt 0.4425069 0.00739865
vt 0.4501162 0.007649572
vt 0.442507 0.007761079
vt 0.4501998 0.0080283
vt 0.4427082 0.008138145
vt 0.4591204 0.008017672
vt 0.4591767 0.007638825
vt 0.4501162 0.008395421
vt 0.4425069 0.008506958
vt 0.442507 0.01067786
vt 0.4670795 0.008109467
vt 0.4672607 0.007732045
vt 0.4672607 0.008477835
vt 0.4591766 0.008384644
vt 0.4501162 0.01056629
vt 0.442507 0.6261984
vt 0.4591766 0.01055554
vt 0.4672607 0.01064876
vt 0.4501162 0.6260868
vt 0.4591767 0.6260762
vt 0.4672607 0.6261691
vt 0.4668883 0.6283453
vt 0.4590609 0.6282552
vt 0.4587841 0.6866454
vt 0.4565428 0.6866197
vt 0.4502882 0.6282655
vt 0.4429205 0.6283736
vt 0.4540307 0.6866226
vt 0.451921 0.6866536
vt 0.5480194 0.00162646
vt 0.5480194 0.001126367
vt 0.5398086 0.0009339007
vt 0.5398086 0.001433993
vt 0.5480194 0.007473107
vt 0.5307678 0.0009719606
vt 0.5398086 0.00728064
vt 0.5480193 0.00783521
vt 0.5307677 0.001472083
vt 0.5233194 0.001230513
vt 0.5233194 0.001730665
vt 0.5307678 0.0073187
vt 0.5233194 0.007577252
vt 0.5398086 0.007642744
vt 0.5478448 0.008218036
vt 0.5307677 0.007680774
vt 0.5233194 0.007939326
vt 0.5397608 0.008028478
vt 0.5480194 0.008580258
vt 0.5308596 0.008066004
vt 0.5235263 0.008320607
vt 0.5398086 0.008387821
vt 0.5307677 0.008425822
vt 0.5233194 0.008684433
vt 0.5233194 0.01085313
vt 0.5307677 0.01059452
vt 0.5233195 0.6257494
vt 0.5398086 0.01055652
vt 0.5480194 0.01074899
vt 0.5307679 0.6254908
vt 0.5398087 0.6254528
vt 0.5480195 0.6256454
vt 0.5476604 0.6278312
vt 0.5397103 0.6276447
vt 0.5398464 0.6863312
vt 0.5375699 0.6862778
vt 0.5309566 0.6276815
vt 0.5237447 0.6279319
vt 0.5350633 0.6862884
vt 0.5329982 0.6863601
vt 0.2812282 0.7399097
vt 0.2817665 0.7413546
vt 0.2826142 0.7413471
vt 0.2825181 0.7398981
vt 0.2812282 0.7342827
vt 0.2835112 0.7413504
vt 0.2825181 0.7342712
vt 0.2838831 0.7399032
vt 0.2842171 0.7413637
vt 0.2838831 0.7342762
vt 0.2849574 0.7399234
vt 0.2849574 0.7342964
vt 0.6243393 0.707664
vt 0.6236401 0.7062082
vt 0.6228946 0.706234
vt 0.6232048 0.7077034
vt 0.6243393 0.7132853
vt 0.6219897 0.7062379
vt 0.6232048 0.7133248
vt 0.6218278 0.7077092
vt 0.6211678 0.7062186
vt 0.6218279 0.7133305
vt 0.6205773 0.7076798
vt 0.6205773 0.7133012
vt 0.4881649 0.7435296
vt 0.489073 0.7435296
vt 0.4898594 0.7430804
vt 0.4873783 0.7430805
vt 0.4903135 0.7423025
vt 0.4869242 0.7423026
vt 0.4903135 0.7414042
vt 0.4869242 0.7414043
vt 0.4898594 0.7406262
vt 0.4873784 0.7406263
vt 0.4890728 0.7401772
vt 0.4881648 0.7401772
vt 0.2394976 0.7346826
vt 0.2400358 0.7361276
vt 0.2408836 0.73612
vt 0.2407875 0.7346709
vt 0.2394975 0.7290556
vt 0.2417805 0.7361233
vt 0.2407875 0.729044
vt 0.2421523 0.7346759
vt 0.2424864 0.7361366
vt 0.2421525 0.729049
vt 0.2432267 0.7346963
vt 0.2432267 0.7290693
vt 0.03898843 0.7769495
vt 0.03853823 0.7290931
vt 0.03553886 0.7290476
vt 0.03585471 0.7769019
vt 0.03900307 0.7784971
vt 0.03172793 0.7290475
vt 0.03586498 0.7784495
vt 0.03938976 0.7791534
vt 0.03606054 0.7791029
vt 0.03187325 0.7769019
vt 0.02812667 0.7290931
vt 0.02811101 0.7769495
vt 0.03187799 0.7784495
vt 0.03183063 0.7791028
vt 0.02811029 0.7784972
vt 0.02783339 0.7791534
vt 0.6296728 0.6860119
vt 0.6296728 0.6865125
vt 0.6367259 0.6866456
vt 0.6367259 0.6861449
vt 0.6296727 0.6801594
vt 0.6456877 0.6866786
vt 0.6367258 0.6802925
vt 0.6296727 0.6797969
vt 0.6456877 0.6861779
vt 0.6541568 0.6866027
vt 0.6541568 0.686102
vt 0.6456878 0.6803255
vt 0.6541567 0.6802496
vt 0.6367258 0.67993
vt 0.6298917 0.6794204
vt 0.6456877 0.679963
vt 0.6541567 0.6798872
vt 0.6368359 0.6795513
vt 0.6296728 0.6790512
vt 0.6456593 0.6795838
vt 0.6539975 0.6795091
vt 0.6367259 0.6791843
vt 0.6456876 0.6792172
vt 0.6541567 0.6791413
vt 0.6541567 0.6769704
vt 0.6456877 0.6770463
vt 0.6541569 0.06146047
vt 0.6367258 0.6770133
vt 0.6296727 0.6768803
vt 0.6456879 0.06153638
vt 0.636726 0.06150355
vt 0.6296729 0.06137031
vt 0.6301231 0.059196
vt 0.6369522 0.05932499
vt 0.6399186 0.0009339007
vt 0.6418741 0.0009708621
vt 0.6456295 0.05935673
vt 0.6538296 0.05928328
vt 0.6443588 0.0009799466
vt 0.6467069 0.0009589573
vt 0.7206889 0.7405199
vt 0.7168306 0.7405199
vt 0.7134894 0.7424281
vt 0.7240301 0.7424281
vt 0.7115604 0.7457331
vt 0.7115603 0.7495494
vt 0.725959 0.7457333
vt 0.7134892 0.7528546
vt 0.725959 0.7495496
vt 0.7168305 0.7547628
vt 0.7240299 0.7528546
vt 0.7206886 0.7547628
vt 0.6610056 0.7362438
vt 0.6615725 0.7341513
vt 0.6603757 0.7334679
vt 0.6588271 0.7349997
vt 0.6635212 0.7362438
vt 0.6596848 0.7322841
vt 0.6629543 0.7341512
vt 0.6575694 0.7328448
vt 0.6656997 0.7349997
vt 0.6596848 0.7309172
vt 0.6641511 0.7334678
vt 0.6575694 0.7303566
vt 0.6669574 0.7328447
vt 0.6603758 0.7297335
vt 0.6648419 0.7322841
vt 0.6588271 0.7282016
vt 0.6669574 0.7303565
vt 0.6615724 0.7290499
vt 0.6648419 0.7309172
vt 0.6610056 0.7269575
vt 0.6656996 0.7282016
vt 0.6629543 0.7290499
vt 0.664151 0.7297333
vt 0.6635212 0.7269575
vn 0.7070915 0.707122 0
vn 0.671791 0.6496646 0.3558551
vn 0.2605103 0.7861698 0.5604207
vn 0 1 0
vn 0.2604819 0.7861761 0.5604252
vn 0.7116766 0.5981452 0.3684274
vn 0 1 0
vn 0.1485668 0.7523559 0.6417854
vn 0 0.9238803 0.3826815
vn 0 0.8660316 0.4999893
vn 0.5231883 0.7380425 0.4261072
vn 0 1 0
vn 0.5231895 0.8522163 0
vn 0 0.8660316 -0.4999893
vn 0.5231883 0.7380425 -0.4261072
vn 0 0.866024 -0.5000026
vn 0 1 0
vn -0.2925298 0.8281476 -0.4781191
vn 0 0.866024 0.5000026
vn -0.2925263 0.9562575 0
vn 0 0.8660316 -0.4999893
vn 0 0.9238803 0.3826815
vn 0 1 0
vn 0.2925298 0.8281476 -0.4781191
vn -0.2925298 0.8281476 0.4781191
vn -0.3725217 0.8752704 -0.3084306
vn 0 0.6087339 -0.7933744
vn 0.002288952 0.7933202 0.6088002
vn -0.5651867 0.5022865 -0.6544251
vn -0.5910365 0.6392264 0.4920014
vn -0.513825 0.6685585 0.5375996
vn 0 0.8660316 0.4999893
vn 0 0.5000026 0.866024
vn 0.2925263 0.9562575 0
vn 0.2925298 0.8281476 0.4781191
vn 0.2925255 0.4781426 0.8281356
vn 0 0.4999893 0.8660316
vn 0 0.8660316 0.4999893
vn -0.1215891 0.4962754 0.8596085
vn 0 1 0
vn 0 0.8660316 -0.4999893
vn -0.1215891 0.8596085 0.4962754
vn -0.1216191 0.9925769 0
vn -0.1216192 0.8596053 -0.4962736
vn -0.2249293 0.8438357 -0.4871839
vn -0.2249241 0.9743763 0
vn -0.7265787 0.5950394 -0.3435279
vn -0.7265916 0.6870697 0
vn -0.2249293 0.8438357 0.4871839
vn -0.2249293 0.4871839 0.8438357
vn -0.7265931 0.5950263 0.3435203
vn -0.7265787 0.3435279 0.5950394
vn 0.8576499 0.4453358 -0.257124
vn 0.9586762 0.2463833 -0.142251
vn 0.9586755 0.2845019 0
vn 0.8576571 0.5142219 0
vn 0.9586762 0.2463833 0.142251
vn 0.8576499 0.4453358 0.257124
vn 0.9586689 0.14225 0.246412
vn 0.8576499 0.257124 0.4453358
vn 0.8576382 -0.4453602 0.2571205
vn 0.9586762 -0.2463833 0.142251
vn 0.9586755 -0.2845019 0
vn 0.8576437 -0.5142444 0
vn 0.9586762 -0.2463833 -0.142251
vn 0.8576382 -0.4453602 -0.2571205
vn 0.9586762 -0.142251 -0.2463833
vn 0.8576382 -0.2571205 -0.4453602
vn 0.8576499 -0.257124 0.4453358
vn 0.9586762 -0.2463833 0.142251
vn 0.8576382 -0.4453602 0.2571205
vn 0.9586762 -0.142251 0.2463833
vn 0.8576437 0 0.5142444
vn 0.9586755 0 0.2845019
vn 0.8576499 0.257124 0.4453358
vn 0.9586689 0.14225 0.246412
vn 0.8576499 0.257124 -0.4453358
vn 0.9586762 0.2463833 -0.142251
vn 0.8576499 0.4453358 -0.257124
vn 0.9586689 0.14225 -0.246412
vn 0.8576437 0 -0.5142444
vn 0.9586755 0 -0.2845019
vn 0.8576382 -0.2571205 -0.4453602
vn 0.9586762 -0.142251 -0.2463833
vn 0 -0.9238803 0.3826815
vn 0.7071068 -0.7071068 0
vn 0.7116766 -0.5981452 0.3684274
vn 0 -1 0
vn 0.6718211 -0.6496336 0.3558549
vn 0 -0.9238803 0.3826815
vn 0.2605103 -0.7861698 0.5604207
vn 0 -1 0
vn -0.513792 -0.6685858 0.5375971
vn 0.2605103 -0.7861698 0.5604207
vn -0.3725117 -0.8752774 -0.3084224
vn 0.1485996 -0.7523673 0.6417646
vn 0.002288969 -0.7933871 0.6087131
vn 0 -0.6087679 -0.7933484
vn -0.5923187 -0.6385555 0.4913303
vn -0.5645128 -0.5026504 -0.6547273
vn 0.002288969 -0.7933871 0.6087131
vn -0.5923187 -0.6385555 0.4913303
vn -0.6515803 0.0001525949 0.7585797
vn 0.003753865 -0.0001220769 0.999993
vn -0.5910365 0.6392264 0.4920014
vn 0.1485996 -0.7523673 0.6417646
vn 0.002288952 0.7933202 0.6088002
vn 0.2105502 -3.051895E-05 0.9775831
vn 0.2605103 -0.7861698 0.5604207
vn 0.1485668 0.7523559 0.6417854
vn 0.42153 0 0.9068144
vn 0.2605103 -0.7861698 0.5604207
vn 0.2604819 0.7861761 0.5604252
vn 0.42153 0 0.9068144
vn 0.6718211 -0.6496336 0.3558549
vn 0.2605103 0.7861698 0.5604207
vn 0.8033604 0 0.5954933
vn 0.671791 0.6496646 0.3558551
vn -0.513825 0.6685585 0.5375996
vn -0.3725217 0.8752704 -0.3084306
vn -0.653236 0 -0.7571544
vn -0.9198413 0 0.3922907
vn -0.3725117 -0.8752774 -0.3084224
vn -0.513792 -0.6685858 0.5375971
vn -0.7703632 0.0004577866 -0.6376051
vn -0.5923187 -0.6385555 0.4913303
vn -0.5645128 -0.5026504 -0.6547273
vn -0.6515803 0.0001525949 0.7585797
vn -0.5651867 0.5022865 -0.6544251
vn -0.5910365 0.6392264 0.4920014
vn -0.7702661 0 0.6377226
vn -0.2671672 0.4818104 0.8345541
vn -0.7702796 0.3188364 0.5522795
vn -0.2671669 0 0.9636502
vn -0.8423945 0.2694246 0.466671
vn -0.7702667 -0.318831 0.5523007
vn -0.8423861 0 0.5388744
vn -0.2671672 -0.4818104 0.8345541
vn -0.7702721 -0.552274 0.3188638
vn -0.8423945 -0.2694246 0.466671
vn -0.2671633 -0.8345418 0.4818338
vn -0.8423945 -0.466671 0.2694246
vn 0.7071068 -0.7071068 0
vn 0.6718211 -0.6496336 0.3558549
vn 0.8033604 0 0.5954933
vn 1 0 0
vn 0.671791 0.6496646 0.3558551
vn 0.7070915 0.707122 0
vn 0.7116766 -0.5981452 0.3684274
vn 0.9876968 0 0.156381
vn 0.7116766 0.5981452 0.3684274
vn 0.9763097 -0.1081906 0.187388
vn 0.976309 0 0.2163811
vn 0.9763097 -0.187388 0.1081906
vn 0.5231883 -0.7380425 0.4261072
vn 0.9763097 0.1081906 0.187388
vn 0.5231883 0.7380425 0.4261072
vn 0.976309 -0.2163811 0
vn 0.5231895 -0.8522163 0
vn 0.9763097 0.187388 0.1081906
vn 0.5231895 0.8522163 0
vn 0.9763097 -0.187388 -0.1081906
vn 0.5231883 -0.7380425 -0.4261072
vn 0.976309 0.2163811 0
vn 0.5231883 0.7380425 -0.4261072
vn 0.9763129 -0.1081605 -0.1873886
vn 0.5231883 -0.4261072 -0.7380425
vn 0.9763097 0.187388 -0.1081906
vn 0.5231883 0.4261072 -0.7380425
vn 0.976309 0 -0.2163811
vn 0.5231895 0 -0.8522163
vn 0.9763097 0.1081906 -0.187388
vn 1 0 0
vn 1 0 0
vn 1 0 0
vn 1 0 0
vn 1 0 0
vn 1 0 0
vn 1 0 0
vn 1 0 0
vn 1 0 0
vn 1 0 0
vn 1 0 0
vn 1 0 0
vn 0.8576437 -0.5142444 0
vn 0.8576382 -0.4453602 0.2571205
vn 0.8576382 -0.4453602 -0.2571205
vn 0.8576382 -0.2571205 -0.4453602
vn 0.8576499 -0.257124 0.4453358
vn 0.8576437 0 -0.5142444
vn 0.8576499 0.257124 -0.4453358
vn 0.8576437 0 0.5142444
vn 0.8576499 0.4453358 -0.257124
vn 0.8576499 0.257124 0.4453358
vn 0.8576571 0.5142219 0
vn 0.8576499 0.4453358 0.257124
vn 0 0.6087339 -0.7933744
vn -0.5651867 0.5022865 -0.6544251
vn -0.7703632 0.0004577866 -0.6376051
vn 0 0 -1
vn -0.3725217 0.8752704 -0.3084306
vn -0.5645128 -0.5026504 -0.6547273
vn -0.653236 0 -0.7571544
vn 0 -0.6087679 -0.7933484
vn -0.3725117 -0.8752774 -0.3084224
vn 0.9586762 -0.2463833 -0.142251
vn 0.3217034 0.4734146 0.8199912
vn 0.9586762 -0.142251 -0.2463833
vn 0.3217034 0.8199912 0.4734146
vn 0.9586755 -0.2845019 0
vn 0.006927781 0.4999905 0.8660032
vn 0.3216975 0.9468425 0
vn 0.9586762 -0.2463833 0.142251
vn 0.3217034 0.8199912 -0.4734146
vn 0.006927781 0.8660032 0.4999905
vn 0.6557908 0.3774581 0.6538071
vn 0.6557908 0.6538071 0.3774581
vn 0.006927747 0.999976 0
vn 0.006927781 0.8660032 -0.4999905
vn 0.6557888 0.7549445 0
vn 0.6557908 0.6538071 -0.3774581
vn 0.9586689 0.14225 -0.246412
vn 0.3217308 -0.8199831 0.47341
vn 0.9586762 0.2463833 -0.142251
vn 0.3217308 -0.47341 0.8199831
vn 0.9586755 0 -0.2845019
vn 0.006927781 -0.8660032 0.4999905
vn 0.3217068 0 0.9468393
vn 0.9586762 -0.142251 -0.2463833
vn 0.3217034 0.4734146 0.8199912
vn 0.006927781 -0.4999905 0.8660032
vn 0.6558039 -0.6537896 0.3774657
vn 0.6557908 -0.3774581 0.6538071
vn 0.006927747 0 0.999976
vn 0.006927781 0.4999905 0.8660032
vn 0.6557888 0 0.7549445
vn 0.6557908 0.3774581 0.6538071
vn 0.006927887 -0.4999676 -0.8660164
vn 0.6557908 -0.3774581 -0.6538071
vn 0.6557888 0 -0.7549445
vn 0.006927747 0 -0.999976
vn 0.3217034 -0.4734146 -0.8199912
vn 0.6557908 0.3774581 -0.6538071
vn 0.3217068 0 -0.9468393
vn 0.9586689 0.14225 0.246412
vn 0.9586755 0 0.2845019
vn 0.006927887 0.4999676 -0.8660164
vn 0.6557908 0.6538071 -0.3774581
vn 0.006927781 0.8660032 -0.4999905
vn 0.3217034 0.4734146 -0.8199912
vn 0.9586762 -0.142251 0.2463833
vn 0.3217034 0.8199912 -0.4734146
vn 0.9586762 -0.2463833 0.142251
vn 0 -0.9238803 0.3826815
vn 0.7116766 -0.5981452 0.3684274
vn 0.5231883 -0.7380425 0.4261072
vn 0 -0.8660316 0.4999893
vn 0 -0.9238803 0.3826815
vn 0 -0.8660316 0.4999893
vn -0.513792 -0.6685858 0.5375971
vn -0.2924945 -0.8281646 0.4781113
vn 0 -0.4999893 0.8660316
vn 0 -0.8660108 0.5000254
vn 0 0 1
vn -0.9198413 0 0.3922907
vn 0.2925298 -0.4781191 0.8281476
vn 0.2925298 -0.8281476 0.4781191
vn 0 -0.8660316 0.4999893
vn 0 0.5000026 0.866024
vn -0.513825 0.6685585 0.5375996
vn 0.2925255 0.4781426 0.8281356
vn 0.2925263 0 0.9562575
vn 0 -0.4999893 0.8660316
vn -0.1215891 -0.8596085 0.4962754
vn 0 0 1
vn 0 0.4999893 0.8660316
vn -0.1215891 -0.4962754 0.8596085
vn -0.1215891 0 0.9925805
vn -0.1215891 0.4962754 0.8596085
vn -0.2249293 0.4871839 0.8438357
vn -0.2249241 0 0.9743763
vn -0.7265787 0.3435279 0.5950394
vn -0.7265771 0 0.6870849
vn -0.2249293 -0.4871839 0.8438357
vn -0.2249293 -0.8438357 0.4871839
vn -0.7265787 -0.3435279 0.5950394
vn -0.7265787 -0.5950394 0.3435279
vn 0 -0.4999893 -0.8660316
vn 0.5231883 -0.4261072 -0.7380425
vn 0.5231895 0 -0.8522163
vn 0 0 -1
vn 0 -0.4999893 -0.8660316
vn 0.5231883 0.4261072 -0.7380425
vn 0 0 -1
vn -0.2925255 -0.4781426 -0.8281356
vn 0 0.4999893 -0.8660316
vn 0.5231883 0.7380425 -0.4261072
vn 0 0.8660316 -0.4999893
vn 0 0.4999893 -0.8660316
vn 0 0.866024 -0.5000026
vn -0.2925263 0 -0.9562575
vn 0 -0.5000026 -0.866024
vn -0.2925298 0.4781191 -0.8281476
vn -0.2925298 0.8281476 -0.4781191
vn 0 0 -1
vn 0.2925298 -0.4781191 -0.8281476
vn 0 0.5000026 -0.866024
vn 0 0.8660316 -0.4999893
vn 0.2925263 0 -0.9562575
vn 0.2925298 0.4781191 -0.8281476
vn 0.2925298 0.8281476 -0.4781191
vn 0 0.8660316 -0.4999893
vn 0 0.4999893 -0.8660316
vn -0.1216192 0.8596053 -0.4962736
vn 0 0 -1
vn 0 -0.4999893 -0.8660316
vn -0.1216192 0.4962736 -0.8596053
vn -0.1215891 0 -0.9925805
vn -0.1215891 -0.4962754 -0.8596085
vn -0.2249293 -0.4871839 -0.8438357
vn -0.2249241 0 -0.9743763
vn -0.7265787 -0.3435279 -0.5950394
vn -0.7265771 0 -0.6870849
vn -0.2249293 0.4871839 -0.8438357
vn -0.2249293 0.8438357 -0.4871839
vn -0.7265787 0.3435279 -0.5950394
vn -0.7265787 0.5950394 -0.3435279
vn -0.2671672 -0.4818104 -0.8345541
vn -0.8423945 -0.2694246 -0.466671
vn -0.8423945 -0.466671 -0.2694246
vn -0.2671633 -0.8345418 -0.4818338
vn -0.7702796 -0.3188364 -0.5522795
vn -0.8423861 -0.5388744 0
vn -0.7702721 -0.552274 -0.3188638
vn -0.2671307 -0.9636603 0
vn -0.8423945 -0.466671 0.2694246
vn -0.7702661 -0.6377226 0
vn -0.2671633 -0.8345418 0.4818338
vn -0.7702721 -0.552274 0.3188638
vn -0.2671633 0.8345418 -0.4818338
vn -0.8423945 0.466671 -0.2694246
vn -0.8423945 0.2694246 -0.466671
vn -0.2671672 0.4818104 -0.8345541
vn -0.7702721 0.552274 -0.3188638
vn -0.8423861 0 -0.5388744
vn -0.7702796 0.3188364 -0.5522795
vn -0.2671669 0 -0.9636502
vn -0.8423945 -0.2694246 -0.466671
vn -0.7702661 0 -0.6377226
vn -0.2671672 -0.4818104 -0.8345541
vn -0.7702796 -0.3188364 -0.5522795
vn -0.8423945 -0.466671 0.2694246
vn -0.8423861 -0.5388744 0
vn -0.8423945 -0.466671 -0.2694246
vn -0.8423945 -0.2694246 0.466671
vn -0.8423945 -0.2694246 -0.466671
vn -0.8423861 0 0.5388744
vn -0.8423861 0 -0.5388744
vn -0.8423945 0.2694246 0.466671
vn -0.8423945 0.2694246 -0.466671
vn -0.8423945 0.466671 0.2694246
vn -0.8423945 0.466671 -0.2694246
vn -0.8423861 0.5388744 0
vn -0.2671672 0.4818104 0.8345541
vn -0.8423945 0.2694246 0.466671
vn -0.8423945 0.466671 0.2694246
vn -0.2671633 0.8345418 0.4818338
vn -0.7702796 0.3188364 0.5522795
vn -0.8423861 0.5388744 0
vn -0.7702721 0.552274 0.3188638
vn -0.2671669 0.9636502 0
vn -0.8423945 0.466671 -0.2694246
vn -0.7702661 0.6377226 0
vn -0.2671633 0.8345418 -0.4818338
vn -0.7702721 0.552274 -0.3188638
vn 0.006927781 -0.8660032 0.4999905
vn 0.6558039 -0.6537896 0.3774657
vn 0.6557888 -0.7549445 0
vn 0.006927747 -0.999976 0
vn 0.3217308 -0.8199831 0.47341
vn 0.6558039 -0.6537896 -0.3774657
vn 0.3217068 -0.9468393 0
vn 0.9586762 0.2463833 -0.142251
vn 0.9586755 0.2845019 0
vn 0.006927781 -0.8660032 -0.4999905
vn 0.6557908 -0.3774581 -0.6538071
vn 0.006927887 -0.4999676 -0.8660164
vn 0.3217034 -0.8199912 -0.4734146
vn 0.9586762 0.2463833 0.142251
vn 0.3217034 -0.4734146 -0.8199912
vn 0.9586689 0.14225 0.246412
vn 0 -0.8660316 0.4999893
vn 0.5231883 -0.7380425 0.4261072
vn 0.5231895 -0.8522163 0
vn 0 -1 0
vn 0 -0.8660316 0.4999893
vn 0.5231883 -0.7380425 -0.4261072
vn 0 -1 0
vn -0.2924945 -0.8281646 0.4781113
vn 0 -0.8660316 -0.4999893
vn 0.5231883 -0.4261072 -0.7380425
vn 0 -0.4999893 -0.8660316
vn 0 -0.8660316 -0.4999893
vn 0 -0.4999893 -0.8660316
vn -0.2925263 -0.9562575 0
vn 0 -0.8660108 0.5000254
vn -0.2925298 -0.8281476 -0.4781191
vn -0.2925255 -0.4781426 -0.8281356
vn 3.051851E-05 -1 0
vn 0.2925298 -0.8281476 0.4781191
vn 0 -0.8660316 -0.4999893
vn 0 -0.5000026 -0.866024
vn 0.2925263 -0.9562575 0
vn 0.2925298 -0.8281476 -0.4781191
vn 0.2925298 -0.4781191 -0.8281476
vn 0 -0.4999893 -0.8660316
vn 0 -0.8660316 -0.4999893
vn -0.1215891 -0.4962754 -0.8596085
vn 0 -1 0
vn 0 -0.8660316 0.4999893
vn -0.1215891 -0.8596085 -0.4962754
vn -0.1215891 -0.9925805 0
vn -0.1215891 -0.8596085 0.4962754
vn -0.2249293 -0.8438357 0.4871839
vn -0.2249241 -0.9743763 0
vn -0.7265787 -0.5950394 0.3435279
vn -0.7265771 -0.6870849 0
vn -0.2249293 -0.8438357 -0.4871839
vn -0.2249293 -0.4871839 -0.8438357
vn -0.7265787 -0.5950394 -0.3435279
vn -0.7265787 -0.3435279 -0.5950394
vn 0.6558039 -0.6537896 -0.3774657
vn 0.6557888 -0.7549445 0
vn 0.6558039 -0.6537896 0.3774657
vn 0.6557908 -0.3774581 -0.6538071
vn 0.6557908 -0.3774581 0.6538071
vn 0.6557888 0 0.7549445
vn 0.6557888 0 -0.7549445
vn 0.6557908 0.3774581 0.6538071
vn 0.6557908 0.3774581 -0.6538071
vn 0.6557908 0.6538071 0.3774581
vn 0.6557908 0.6538071 -0.3774581
vn 0.6557888 0.7549445 0
vn -0.7265931 0.5950263 0.3435203
vn -0.7702721 0.552274 0.3188638
vn -0.7702661 0.6377226 0
vn -0.7265916 0.6870697 0
vn -0.7265787 0.3435279 0.5950394
vn -0.7702721 0.552274 -0.3188638
vn -0.7702796 0.3188364 0.5522795
vn -0.7265787 0.5950394 -0.3435279
vn -0.7265771 0 0.6870849
vn -0.7702796 0.3188364 -0.5522795
vn -0.7702661 0 0.6377226
vn -0.7265787 0.3435279 -0.5950394
vn -0.7265787 -0.3435279 0.5950394
vn -0.7702661 0 -0.6377226
vn -0.7702667 -0.318831 0.5523007
vn -0.7265771 0 -0.6870849
vn -0.7265787 -0.5950394 0.3435279
vn -0.7702796 -0.3188364 -0.5522795
vn -0.7702721 -0.552274 0.3188638
vn -0.7265787 -0.3435279 -0.5950394
vn -0.7265771 -0.6870849 0
vn -0.7702721 -0.552274 -0.3188638
vn -0.7702661 -0.6377226 0
vn -0.7265787 -0.5950394 -0.3435279
usemtl PensPencils_DefaultMaterial_AlbedoTransparency
f 3/3/3 2/2/2 1/1/1
f 4/4/4 3/3/3 1/1/1
f 5/5/5 3/3/3 4/4/4
f 4/4/4 1/1/1 6/6/6
f 7/7/7 5/5/5 4/4/4
f 8/8/8 5/5/5 7/7/7
f 9/9/9 4/4/4 6/6/6
f 7/7/7 4/4/4 9/9/9
f 9/9/9 6/6/6 10/10/10
f 6/6/6 11/11/11 10/10/10
f 10/10/10 11/11/11 12/12/12
f 11/11/11 13/13/13 12/12/12
f 12/12/12 13/13/13 14/14/14
f 13/13/13 15/15/15 14/14/14
f 12/12/12 14/14/14 16/16/16
f 17/17/17 12/12/12 16/16/16
f 10/10/10 12/12/12 17/17/17
f 17/17/17 16/16/16 18/18/18
f 9/9/9 10/10/10 19/19/19
f 19/19/19 10/10/10 17/17/17
f 20/20/20 17/17/17 18/18/18
f 19/19/19 17/17/17 20/20/20
f 20/20/20 18/18/18 21/21/21
f 22/22/22 7/7/7 9/9/9
f 22/22/22 9/9/9 19/19/19
f 23/23/23 20/20/20 21/21/21
f 23/23/23 21/21/21 24/24/24
f 25/25/25 19/19/19 20/20/20
f 22/22/22 19/19/19 25/25/25
f 25/25/25 20/20/20 23/23/23
f 26/26/26 7/7/7 22/22/22
f 26/26/26 8/8/8 7/7/7
f 26/26/26 27/27/27 8/8/8
f 27/27/27 28/28/28 8/8/8
f 27/27/27 29/29/29 28/28/28
f 29/29/29 30/30/30 28/28/28
f 31/31/31 26/26/26 22/22/22
f 31/31/31 22/22/22 25/25/25
f 31/31/31 25/25/25 32/32/32
f 32/32/32 25/25/25 23/23/23
f 33/33/33 31/31/31 32/32/32
f 32/32/32 23/23/23 34/34/34
f 34/34/34 23/23/23 24/24/24
f 33/33/33 32/32/32 35/35/35
f 35/35/35 32/32/32 34/34/34
f 36/36/36 33/33/33 35/35/35
f 36/36/36 35/35/35 37/37/37
f 35/35/35 38/38/38 37/37/37
f 35/35/35 34/34/34 38/38/38
f 37/37/37 38/38/38 39/39/39
f 34/34/34 24/24/24 40/40/40
f 34/34/34 40/40/40 38/38/38
f 24/24/24 41/41/41 40/40/40
f 38/38/38 42/42/42 39/39/39
f 38/38/38 40/40/40 42/42/42
f 40/40/40 41/41/41 43/43/43
f 40/40/40 43/43/43 42/42/42
f 41/41/41 44/44/44 43/43/43
f 44/44/44 45/45/45 43/43/43
f 45/45/45 46/46/46 43/43/43
f 43/43/43 46/46/46 42/42/42
f 45/45/45 47/47/47 46/46/46
f 47/47/47 48/48/48 46/46/46
f 42/42/42 49/49/49 39/39/39
f 46/46/46 49/49/49 42/42/42
f 46/46/46 48/48/48 49/49/49
f 49/49/49 50/50/50 39/39/39
f 48/48/48 51/51/51 49/49/49
f 49/49/49 51/51/51 50/50/50
f 51/51/51 52/52/52 50/50/50
f 55/55/55 54/54/54 53/53/53
f 56/56/56 55/55/55 53/53/53
f 57/57/57 55/55/55 56/56/56
f 58/58/58 57/57/57 56/56/56
f 59/59/59 57/57/57 58/58/58
f 60/60/60 59/59/59 58/58/58
f 63/63/63 62/62/62 61/61/61
f 64/64/64 63/63/63 61/61/61
f 65/65/65 63/63/63 64/64/64
f 66/66/66 65/65/65 64/64/64
f 67/67/67 65/65/65 66/66/66
f 68/68/68 67/67/67 66/66/66
f 71/71/71 70/70/70 69/69/69
f 70/70/70 72/72/72 69/69/69
f 69/69/69 72/72/72 73/73/73
f 72/72/72 74/74/74 73/73/73
f 73/73/73 74/74/74 75/75/75
f 74/74/74 76/76/76 75/75/75
f 79/79/79 78/78/78 77/77/77
f 78/78/78 80/80/80 77/77/77
f 77/77/77 80/80/80 81/81/81
f 80/80/80 82/82/82 81/81/81
f 81/81/81 82/82/82 83/83/83
f 82/82/82 84/84/84 83/83/83
f 87/87/87 86/86/86 85/85/85
f 86/86/86 88/88/88 85/85/85
f 86/86/86 89/89/89 88/88/88
f 85/85/85 88/88/88 90/90/90
f 89/89/89 91/91/91 88/88/88
f 88/88/88 92/92/92 90/90/90
f 88/88/88 91/91/91 92/92/92
f 90/90/90 92/92/92 93/93/93
f 91/91/91 94/94/94 92/92/92
f 92/92/92 95/95/95 93/93/93
f 92/92/92 94/94/94 95/95/95
f 94/94/94 96/96/96 95/95/95
f 96/96/96 97/97/97 95/95/95
f 97/97/97 98/98/98 95/95/95
f 97/97/97 99/99/99 98/98/98
f 99/99/99 100/100/100 98/98/98
f 103/103/103 102/102/102 101/101/101
f 104/104/104 103/103/103 101/101/101
f 105/105/105 103/103/103 104/104/104
f 104/104/104 101/101/101 106/106/106
f 107/107/107 105/105/105 104/104/104
f 108/108/108 104/104/104 106/106/106
f 107/107/107 104/104/104 108/108/108
f 106/106/106 109/109/109 108/108/108
f 110/110/110 107/107/107 108/108/108
f 109/109/109 111/111/111 108/108/108
f 108/108/108 111/111/111 110/110/110
f 109/109/109 112/112/112 111/111/111
f 111/111/111 113/113/113 110/110/110
f 112/112/112 114/114/114 111/111/111
f 111/111/111 114/114/114 113/113/113
f 112/112/112 115/115/115 114/114/114
f 114/114/114 116/116/116 113/113/113
f 115/115/115 117/117/117 114/114/114
f 114/114/114 117/117/117 116/116/116
f 117/117/117 118/118/118 116/116/116
f 121/121/121 120/120/120 119/119/119
f 122/122/122 121/121/121 119/119/119
f 123/123/123 121/121/121 122/122/122
f 124/124/124 123/123/123 122/122/122
f 127/127/127 126/126/126 125/125/125
f 126/126/126 128/128/128 125/125/125
f 125/125/125 128/128/128 129/129/129
f 128/128/128 130/130/130 129/129/129
f 133/133/133 132/132/132 131/131/131
f 132/132/132 134/134/134 131/131/131
f 132/132/132 135/135/135 134/134/134
f 131/131/131 134/134/134 136/136/136
f 135/135/135 137/137/137 134/134/134
f 134/134/134 138/138/138 136/136/136
f 134/134/134 137/137/137 138/138/138
f 136/136/136 138/138/138 139/139/139
f 137/137/137 140/140/140 138/138/138
f 138/138/138 141/141/141 139/139/139
f 138/138/138 140/140/140 141/141/141
f 140/140/140 142/142/142 141/141/141
f 145/145/145 144/144/144 143/143/143
f 146/146/146 145/145/145 143/143/143
f 147/147/147 145/145/145 146/146/146
f 148/148/148 147/147/147 146/146/146
f 146/146/146 143/143/143 149/149/149
f 148/148/148 146/146/146 150/150/150
f 150/150/150 146/146/146 149/149/149
f 151/151/151 148/148/148 150/150/150
f 149/149/149 152/152/152 150/150/150
f 150/150/150 153/153/153 151/151/151
f 152/152/152 153/153/153 150/150/150
f 154/154/154 152/152/152 149/149/149
f 155/155/155 154/154/154 149/149/149
f 153/153/153 156/156/156 151/151/151
f 151/151/151 156/156/156 157/157/157
f 158/158/158 154/154/154 155/155/155
f 159/159/159 158/158/158 155/155/155
f 156/156/156 160/160/160 157/157/157
f 157/157/157 160/160/160 161/161/161
f 162/162/162 158/158/158 159/159/159
f 163/163/163 162/162/162 159/159/159
f 160/160/160 164/164/164 161/161/161
f 161/161/161 164/164/164 165/165/165
f 166/166/166 162/162/162 163/163/163
f 167/167/167 166/166/166 163/163/163
f 164/164/164 168/168/168 165/165/165
f 165/165/165 168/168/168 169/169/169
f 170/170/170 166/166/166 167/167/167
f 171/171/171 170/170/170 167/167/167
f 169/169/169 172/172/172 171/171/171
f 168/168/168 172/172/172 169/169/169
f 172/172/172 170/170/170 171/171/171
f 162/162/162 173/173/173 158/158/158
f 166/166/166 174/174/174 162/162/162
f 174/174/174 173/173/173 162/162/162
f 170/170/170 175/175/175 166/166/166
f 175/175/175 174/174/174 166/166/166
f 172/172/172 176/176/176 170/170/170
f 176/176/176 175/175/175 170/170/170
f 168/168/168 177/177/177 172/172/172
f 177/177/177 176/176/176 172/172/172
f 164/164/164 178/178/178 168/168/168
f 178/178/178 177/177/177 168/168/168
f 173/173/173 179/179/179 158/158/158
f 158/158/158 179/179/179 154/154/154
f 180/180/180 178/178/178 164/164/164
f 160/160/160 180/180/180 164/164/164
f 179/179/179 181/181/181 154/154/154
f 154/154/154 181/181/181 152/152/152
f 182/182/182 180/180/180 160/160/160
f 156/156/156 182/182/182 160/160/160
f 181/181/181 183/183/183 152/152/152
f 152/152/152 183/183/183 153/153/153
f 153/153/153 184/184/184 156/156/156
f 184/184/184 182/182/182 156/156/156
f 183/183/183 184/184/184 153/153/153
f 178/178/178 185/185/185 177/177/177
f 185/185/185 186/186/186 177/177/177
f 187/187/187 185/185/185 178/178/178
f 180/180/180 187/187/187 178/178/178
f 177/177/177 186/186/186 176/176/176
f 188/188/188 187/187/187 180/180/180
f 182/182/182 188/188/188 180/180/180
f 186/186/186 189/189/189 176/176/176
f 190/190/190 188/188/188 182/182/182
f 184/184/184 190/190/190 182/182/182
f 176/176/176 189/189/189 175/175/175
f 191/191/191 190/190/190 184/184/184
f 183/183/183 191/191/191 184/184/184
f 189/189/189 192/192/192 175/175/175
f 193/193/193 191/191/191 183/183/183
f 175/175/175 192/192/192 174/174/174
f 181/181/181 193/193/193 183/183/183
f 192/192/192 194/194/194 174/174/174
f 195/195/195 193/193/193 181/181/181
f 174/174/174 194/194/194 173/173/173
f 179/179/179 195/195/195 181/181/181
f 194/194/194 196/196/196 173/173/173
f 196/196/196 195/195/195 179/179/179
f 173/173/173 196/196/196 179/179/179
f 199/199/199 198/198/198 197/197/197
f 200/200/200 199/199/199 197/197/197
f 200/200/200 197/197/197 201/201/201
f 202/202/202 199/199/199 200/200/200
f 203/203/203 200/200/200 201/201/201
f 204/204/204 202/202/202 200/200/200
f 204/204/204 200/200/200 203/203/203
f 205/205/205 204/204/204 203/203/203
f 208/208/208 207/207/207 206/206/206
f 207/207/207 209/209/209 206/206/206
f 206/206/206 209/209/209 210/210/210
f 207/207/207 211/211/211 209/209/209
f 209/209/209 212/212/212 210/210/210
f 210/210/210 212/212/212 213/213/213
f 212/212/212 214/214/214 213/213/213
f 211/211/211 215/215/215 209/209/209
f 209/209/209 215/215/215 212/212/212
f 211/211/211 216/216/216 215/215/215
f 216/216/216 217/217/217 215/215/215
f 212/212/212 218/218/218 214/214/214
f 215/215/215 218/218/218 212/212/212
f 215/215/215 217/217/217 218/218/218
f 218/218/218 219/219/219 214/214/214
f 217/217/217 220/220/220 218/218/218
f 218/218/218 220/220/220 219/219/219
f 220/220/220 221/221/221 219/219/219
f 224/224/224 223/223/223 222/222/222
f 223/223/223 225/225/225 222/222/222
f 222/222/222 225/225/225 226/226/226
f 223/223/223 227/227/227 225/225/225
f 225/225/225 228/228/228 226/226/226
f 226/226/226 228/228/228 229/229/229
f 228/228/228 230/230/230 229/229/229
f 227/227/227 231/231/231 225/225/225
f 225/225/225 231/231/231 228/228/228
f 227/227/227 232/232/232 231/231/231
f 232/232/232 233/233/233 231/231/231
f 228/228/228 234/234/234 230/230/230
f 231/231/231 234/234/234 228/228/228
f 231/231/231 233/233/233 234/234/234
f 234/234/234 235/235/235 230/230/230
f 233/233/233 236/236/236 234/234/234
f 234/234/234 236/236/236 235/235/235
f 236/236/236 237/237/237 235/235/235
f 240/240/240 239/239/239 238/238/238
f 241/241/241 240/240/240 238/238/238
f 241/241/241 238/238/238 242/242/242
f 243/243/243 240/240/240 241/241/241
f 244/244/244 241/241/241 242/242/242
f 244/244/244 242/242/242 245/245/245
f 246/246/246 244/244/244 245/245/245
f 247/247/247 243/243/243 241/241/241
f 247/247/247 241/241/241 244/244/244
f 248/248/248 243/243/243 247/247/247
f 249/249/249 248/248/248 247/247/247
f 250/250/250 244/244/244 246/246/246
f 250/250/250 247/247/247 244/244/244
f 249/249/249 247/247/247 250/250/250
f 251/251/251 250/250/250 246/246/246
f 252/252/252 249/249/249 250/250/250
f 252/252/252 250/250/250 251/251/251
f 253/253/253 252/252/252 251/251/251
f 256/256/256 255/255/255 254/254/254
f 257/257/257 256/256/256 254/254/254
f 257/257/257 254/254/254 258/258/258
f 259/259/259 257/257/257 258/258/258
f 259/259/259 258/258/258 260/260/260
f 261/261/261 259/259/259 260/260/260
f 261/261/261 260/260/260 262/262/262
f 263/263/263 261/261/261 262/262/262
f 262/262/262 260/260/260 264/264/264
f 260/260/260 265/265/265 264/264/264
f 263/263/263 262/262/262 266/266/266
f 267/267/267 263/263/263 266/266/266
f 267/267/267 266/266/266 268/268/268
f 264/264/264 265/265/265 269/269/269
f 265/265/265 270/270/270 269/269/269
f 264/264/264 269/269/269 271/271/271
f 262/262/262 264/264/264 272/272/272
f 266/266/266 262/262/262 272/272/272
f 272/272/272 264/264/264 271/271/271
f 266/266/266 273/273/273 268/268/268
f 266/266/266 272/272/272 273/273/273
f 268/268/268 273/273/273 274/274/274
f 272/272/272 271/271/271 275/275/275
f 272/272/272 275/275/275 273/273/273
f 271/271/271 276/276/276 275/275/275
f 273/273/273 277/277/277 274/274/274
f 273/273/273 275/275/275 277/277/277
f 275/275/275 276/276/276 278/278/278
f 275/275/275 278/278/278 277/277/277
f 276/276/276 279/279/279 278/278/278
f 279/279/279 280/280/280 278/278/278
f 280/280/280 281/281/281 278/278/278
f 278/278/278 281/281/281 277/277/277
f 280/280/280 282/282/282 281/281/281
f 282/282/282 283/283/283 281/281/281
f 277/277/277 284/284/284 274/274/274
f 281/281/281 284/284/284 277/277/277
f 281/281/281 283/283/283 284/284/284
f 284/284/284 285/285/285 274/274/274
f 283/283/283 286/286/286 284/284/284
f 284/284/284 286/286/286 285/285/285
f 286/286/286 287/287/287 285/285/285
f 290/290/290 289/289/289 288/288/288
f 291/291/291 290/290/290 288/288/288
f 291/291/291 288/288/288 292/292/292
f 293/293/293 290/290/290 291/291/291
f 294/294/294 291/291/291 292/292/292
f 294/294/294 292/292/292 295/295/295
f 296/296/296 293/293/293 291/291/291
f 296/296/296 291/291/291 294/294/294
f 297/297/297 293/293/293 296/296/296
f 298/298/298 297/297/297 296/296/296
f 298/298/298 296/296/296 299/299/299
f 299/299/299 296/296/296 294/294/294
f 300/300/300 298/298/298 299/299/299
f 301/301/301 294/294/294 295/295/295
f 299/299/299 294/294/294 301/301/301
f 301/301/301 295/295/295 302/302/302
f 300/300/300 299/299/299 303/303/303
f 303/303/303 299/299/299 301/301/301
f 304/304/304 300/300/300 303/303/303
f 305/305/305 301/301/301 302/302/302
f 303/303/303 301/301/301 305/305/305
f 305/305/305 302/302/302 306/306/306
f 304/304/304 303/303/303 307/307/307
f 307/307/307 303/303/303 305/305/305
f 308/308/308 304/304/304 307/307/307
f 309/309/309 305/305/305 306/306/306
f 307/307/307 305/305/305 309/309/309
f 308/308/308 307/307/307 310/310/310
f 310/310/310 307/307/307 309/309/309
f 311/311/311 308/308/308 310/310/310
f 311/311/311 310/310/310 312/312/312
f 310/310/310 313/313/313 312/312/312
f 310/310/310 309/309/309 313/313/313
f 312/312/312 313/313/313 314/314/314
f 309/309/309 306/306/306 315/315/315
f 309/309/309 315/315/315 313/313/313
f 306/306/306 316/316/316 315/315/315
f 313/313/313 317/317/317 314/314/314
f 313/313/313 315/315/315 317/317/317
f 315/315/315 316/316/316 318/318/318
f 315/315/315 318/318/318 317/317/317
f 316/316/316 319/319/319 318/318/318
f 319/319/319 320/320/320 318/318/318
f 320/320/320 321/321/321 318/318/318
f 318/318/318 321/321/321 317/317/317
f 320/320/320 322/322/322 321/321/321
f 322/322/322 323/323/323 321/321/321
f 317/317/317 324/324/324 314/314/314
f 321/321/321 324/324/324 317/317/317
f 321/321/321 323/323/323 324/324/324
f 324/324/324 325/325/325 314/314/314
f 323/323/323 326/326/326 324/324/324
f 324/324/324 326/326/326 325/325/325
f 326/326/326 327/327/327 325/325/325
f 330/330/330 329/329/329 328/328/328
f 331/331/331 330/330/330 328/328/328
f 331/331/331 328/328/328 332/332/332
f 333/333/333 330/330/330 331/331/331
f 334/334/334 331/331/331 332/332/332
f 335/335/335 333/333/333 331/331/331
f 335/335/335 331/331/331 334/334/334
f 336/336/336 333/333/333 335/335/335
f 337/337/337 335/335/335 334/334/334
f 338/338/338 336/336/336 335/335/335
f 338/338/338 335/335/335 337/337/337
f 339/339/339 338/338/338 337/337/337
f 342/342/342 341/341/341 340/340/340
f 343/343/343 342/342/342 340/340/340
f 343/343/343 340/340/340 344/344/344
f 345/345/345 342/342/342 343/343/343
f 346/346/346 343/343/343 344/344/344
f 347/347/347 345/345/345 343/343/343
f 347/347/347 343/343/343 346/346/346
f 348/348/348 345/345/345 347/347/347
f 349/349/349 347/347/347 346/346/346
f 350/350/350 348/348/348 347/347/347
f 350/350/350 347/347/347 349/349/349
f 351/351/351 350/350/350 349/349/349
f 354/354/354 353/353/353 352/352/352
f 352/352/352 355/355/355 354/354/354
f 355/355/355 356/356/356 354/354/354
f 355/355/355 357/357/357 356/356/356
f 357/357/357 358/358/358 356/356/356
f 357/357/357 359/359/359 358/358/358
f 359/359/359 360/360/360 358/358/358
f 359/359/359 361/361/361 360/360/360
f 361/361/361 362/362/362 360/360/360
f 361/361/361 363/363/363 362/362/362
f 366/366/366 365/365/365 364/364/364
f 367/367/367 366/366/366 364/364/364
f 367/367/367 364/364/364 368/368/368
f 369/369/369 366/366/366 367/367/367
f 370/370/370 367/367/367 368/368/368
f 371/371/371 369/369/369 367/367/367
f 371/371/371 367/367/367 370/370/370
f 372/372/372 369/369/369 371/371/371
f 373/373/373 371/371/371 370/370/370
f 374/374/374 372/372/372 371/371/371
f 374/374/374 371/371/371 373/373/373
f 375/375/375 374/374/374 373/373/373
f 378/378/378 377/377/377 376/376/376
f 379/379/379 378/378/378 376/376/376
f 379/379/379 376/376/376 380/380/380
f 381/381/381 378/378/378 379/379/379
f 382/382/382 379/379/379 380/380/380
f 382/382/382 380/380/380 383/383/383
f 384/384/384 382/382/382 383/383/383
f 385/385/385 381/381/381 379/379/379
f 385/385/385 379/379/379 382/382/382
f 386/386/386 381/381/381 385/385/385
f 387/387/387 386/386/386 385/385/385
f 388/388/388 382/382/382 384/384/384
f 388/388/388 385/385/385 382/382/382
f 387/387/387 385/385/385 388/388/388
f 389/389/389 388/388/388 384/384/384
f 390/390/390 387/387/387 388/388/388
f 390/390/390 388/388/388 389/389/389
f 391/391/391 390/390/390 389/389/389
f 394/394/394 393/393/393 392/392/392
f 395/395/395 394/394/394 392/392/392
f 395/395/395 392/392/392 396/396/396
f 397/397/397 394/394/394 395/395/395
f 398/398/398 395/395/395 396/396/396
f 398/398/398 396/396/396 399/399/399
f 400/400/400 397/397/397 395/395/395
f 400/400/400 395/395/395 398/398/398
f 401/401/401 397/397/397 400/400/400
f 402/402/402 401/401/401 400/400/400
f 402/402/402 400/400/400 403/403/403
f 403/403/403 400/400/400 398/398/398
f 404/404/404 402/402/402 403/403/403
f 405/405/405 398/398/398 399/399/399
f 403/403/403 398/398/398 405/405/405
f 405/405/405 399/399/399 406/406/406
f 404/404/404 403/403/403 407/407/407
f 407/407/407 403/403/403 405/405/405
f 408/408/408 404/404/404 407/407/407
f 409/409/409 405/405/405 406/406/406
f 407/407/407 405/405/405 409/409/409
f 409/409/409 406/406/406 410/410/410
f 408/408/408 407/407/407 411/411/411
f 411/411/411 407/407/407 409/409/409
f 412/412/412 408/408/408 411/411/411
f 413/413/413 409/409/409 410/410/410
f 411/411/411 409/409/409 413/413/413
f 412/412/412 411/411/411 414/414/414
f 414/414/414 411/411/411 413/413/413
f 415/415/415 412/412/412 414/414/414
f 415/415/415 414/414/414 416/416/416
f 414/414/414 417/417/417 416/416/416
f 414/414/414 413/413/413 417/417/417
f 416/416/416 417/417/417 418/418/418
f 413/413/413 410/410/410 419/419/419
f 413/413/413 419/419/419 417/417/417
f 410/410/410 420/420/420 419/419/419
f 417/417/417 421/421/421 418/418/418
f 417/417/417 419/419/419 421/421/421
f 419/419/419 420/420/420 422/422/422
f 419/419/419 422/422/422 421/421/421
f 420/420/420 423/423/423 422/422/422
f 423/423/423 424/424/424 422/422/422
f 424/424/424 425/425/425 422/422/422
f 422/422/422 425/425/425 421/421/421
f 424/424/424 426/426/426 425/425/425
f 426/426/426 427/427/427 425/425/425
f 421/421/421 428/428/428 418/418/418
f 425/425/425 428/428/428 421/421/421
f 425/425/425 427/427/427 428/428/428
f 428/428/428 429/429/429 418/418/418
f 427/427/427 430/430/430 428/428/428
f 428/428/428 430/430/430 429/429/429
f 430/430/430 431/431/431 429/429/429
f 434/434/434 433/433/433 432/432/432
f 432/432/432 435/435/435 434/434/434
f 435/435/435 436/436/436 434/434/434
f 435/435/435 437/437/437 436/436/436
f 435/435/435 438/438/438 437/437/437
f 438/438/438 439/439/439 437/437/437
f 438/438/438 440/440/440 439/439/439
f 440/440/440 441/441/441 439/439/439
f 440/440/440 442/442/442 441/441/441
f 442/442/442 443/443/443 441/441/441
f 446/446/446 445/445/445 444/444/444
f 447/447/447 446/446/446 444/444/444
f 444/444/444 445/445/445 448/448/448
f 449/449/449 446/446/446 447/447/447
f 445/445/445 450/450/450 448/448/448
f 451/451/451 449/449/449 447/447/447
f 448/448/448 450/450/450 452/452/452
f 453/453/453 449/449/449 451/451/451
f 450/450/450 454/454/454 452/452/452
f 455/455/455 453/453/453 451/451/451
f 452/452/452 454/454/454 456/456/456
f 457/457/457 453/453/453 455/455/455
f 454/454/454 458/458/458 456/456/456
f 459/459/459 457/457/457 455/455/455
f 456/456/456 458/458/458 460/460/460
f 461/461/461 457/457/457 459/459/459
f 458/458/458 462/462/462 460/460/460
f 463/463/463 461/461/461 459/459/459
f 460/460/460 462/462/462 464/464/464
f 465/465/465 461/461/461 463/463/463
f 462/462/462 466/466/466 464/464/464
f 467/467/467 465/465/465 463/463/463
f 464/464/464 466/466/466 467/467/467
f 466/466/466 465/465/465 467/467/467
