# Blender 4.0.0
# www.blender.org
o decimated_mesh
v -0.084802 -0.001745 -0.005610
v 0.074590 -0.000007 -0.005946
v 0.075059 -0.002590 -0.005222
v -0.084111 -0.004508 -0.003548
v -0.084350 0.000989 -0.005770
v -0.084367 0.002426 -0.005306
v 0.089215 -0.000007 -0.003353
v -0.095223 -0.001885 -0.003163
v -0.097897 0.000000 -0.003304
v 0.075046 0.002589 -0.005227
v 0.089268 -0.002088 -0.001985
v 0.074670 -0.004270 -0.003755
v -0.100026 -0.002040 -0.001413
v -0.095223 0.001885 -0.003163
v -0.102028 -0.000488 -0.001625
v 0.089268 0.002085 -0.001990
v 0.089939 -0.000953 -0.000338
v 0.089353 -0.002326 0.000667
v 0.074670 -0.005034 -0.002246
v -0.099968 -0.001982 0.000601
v -0.102098 -0.000687 -0.000445
v -0.084283 -0.005256 -0.000380
v -0.102051 0.000466 -0.001630
v -0.084638 0.004688 -0.003092
v -0.100034 0.002036 -0.001411
v 0.074670 0.004270 -0.003755
v 0.089353 0.002326 0.000667
v 0.089939 0.000953 -0.000338
v 0.074670 0.005034 -0.002246
v 0.089391 0.001009 0.001378
v 0.089409 -0.001056 0.001347
v 0.074960 -0.004735 0.001821
v 0.074670 -0.005285 -0.000338
v -0.084336 -0.004961 0.001159
v -0.102025 -0.000014 0.000890
v -0.102105 0.000678 -0.000419
v -0.099972 0.001981 0.000599
v -0.084330 0.005252 -0.000387
v 0.074670 0.005286 -0.000338
v 0.074308 -0.002085 0.006478
v -0.084657 -0.004095 0.002787
v -0.092953 -0.001948 0.002636
v -0.096333 0.000041 0.002456
v -0.084366 0.004953 0.001174
v 0.074959 0.004735 0.001820
v 0.074291 0.002089 0.006475
v 0.074477 0.000012 0.006899
v 0.030799 -0.002288 0.006573
v -0.084419 -0.001709 0.004568
v -0.092907 0.001961 0.002638
v -0.084667 0.004094 0.002786
v 0.030799 -0.000953 0.007046
v -0.086882 0.000042 0.004453
v -0.084401 0.001689 0.004582
v 0.031172 0.002067 0.006797
vn 0.0007 -0.8923 -0.4515
vn -0.0003 0.6589 -0.7523
vn 0.1817 0.8434 0.5056
vn 0.0002 0.3074 -0.9516
vn 0.1696 -0.2372 -0.9565
vn 0.9540 -0.0000 0.2997
vn -0.2862 0.4834 -0.8273
vn 0.1697 0.2351 -0.9570
vn 0.2057 -0.5338 -0.8202
vn -0.2008 -0.7599 -0.6183
vn -0.2850 0.4668 -0.8372
vn 0.2060 0.5305 -0.8223
vn 0.9477 -0.1583 -0.2771
vn 0.1849 0.8769 -0.4437
vn 0.8987 -0.4333 -0.0676
vn -0.5333 -0.8450 0.0394
vn -0.5928 -0.7876 -0.1683
vn 0.1987 0.9755 -0.0946
vn -0.1987 0.7659 -0.6115
vn -0.0173 0.5969 0.8021
vn 0.8986 0.4336 -0.0679
vn 0.9478 0.1570 -0.2775
vn 0.1848 -0.8769 -0.4437
vn 0.1985 -0.9756 -0.0938
vn 0.9393 -0.1936 0.2833
vn -0.1920 0.2996 -0.9345
vn -0.5946 0.7869 -0.1647
vn -0.2861 -0.4824 -0.8279
vn -0.5344 0.8443 0.0396
vn 0.9378 0.1856 0.2933
vn 0.3138 -0.4587 0.8314
vn -0.1905 0.9650 0.1803
vn 0.9724 -0.0000 -0.2334
vn -0.1839 0.8813 0.4353
vn -0.1903 -0.9654 0.1783
vn -0.0010 0.9790 -0.2039
vn 0.1817 -0.8436 0.5054
vn 0.3136 0.4579 0.8318
vn 0.3261 0.2169 0.9201
vn -0.1645 -0.5795 0.7982
vn -0.2850 -0.4669 -0.8371
vn -0.0015 -0.0582 -0.9983
vn -0.2542 -0.3952 0.8827
vn -0.1947 -0.7040 0.6830
vn -0.1992 0.2664 0.9430
vn 0.1782 0.9589 0.2208
vn -0.1948 0.7051 0.6819
vn -0.0181 -0.3343 0.9423
vn 0.3273 -0.2113 0.9210
vn -0.0002 -0.9914 -0.1307
vn -0.2542 0.3906 0.8848
vn 0.0006 0.9822 0.1880
vn -0.9990 -0.0044 -0.0439
vn -0.1641 0.5784 0.7991
vn -0.0170 -0.5970 0.8021
vn -0.0002 -0.9690 0.2469
vn -0.3750 -0.0140 -0.9269
vn -0.0011 0.6994 -0.7147
vn 0.0006 0.2667 -0.9638
vn 0.9527 0.0038 0.3039
vn -0.1721 -0.6165 -0.7683
vn 0.0005 0.8923 -0.4515
vn 0.0015 0.0822 0.9966
vn -0.0194 0.0847 0.9962
vn -0.0494 -0.0038 0.9988
vn -0.0215 -0.0040 0.9998
vn 0.3478 -0.0112 0.9375
vn -0.0007 0.8838 0.4678
vn -0.0008 0.8826 0.4701
vn 0.0032 0.8691 0.4946
vn -0.2084 -0.3634 -0.9081
vn 0.2045 0.9704 -0.1285
vn -0.0000 -0.6578 -0.7532
vn -0.1982 0.3495 -0.9157
vn 0.2043 -0.9705 -0.1280
vn 0.1872 -0.6704 -0.7180
vn 0.0072 0.2004 0.9797
vn -0.2021 -0.9788 0.0337
vn -0.1797 -0.9552 -0.2351
vn -0.1771 -0.0283 -0.9838
vn -0.6100 -0.6937 0.3830
vn -0.0002 0.9914 -0.1312
vn 0.0051 -0.8689 0.4950
vn -0.0016 -0.8829 0.4695
vn -0.0006 -0.8914 0.4532
vn -0.6091 0.6852 0.3993
vn -0.2468 -0.3374 0.9084
vn -0.2087 -0.2311 0.9503
vn -0.1999 -0.2543 0.9463
vn -0.2089 0.2405 0.9479
vn -0.2506 0.3623 0.8977
vn 0.1872 0.6707 -0.7178
vn 0.0036 -0.3344 0.9424
vn 0.0077 -0.1974 0.9803
vn -0.0013 -0.9733 -0.2297
vn -0.9983 -0.0064 0.0575
vn -0.0003 0.9689 0.2473
vn -0.9977 -0.0244 -0.0633
vn -0.0012 -0.5983 -0.8013
vn -0.1861 0.9659 -0.1801
vn 0.0006 -0.9822 0.1881
vn -0.2026 0.9787 0.0330
vn 0.0009 -0.2696 -0.9630
vn -0.1836 -0.8824 0.4333
vn 0.1782 -0.9590 0.2204
vn -0.1748 0.6780 -0.7140
vn 0.1985 0.9716 -0.1286
vn 0.2030 0.9746 -0.0946
vn 0.2029 -0.9747 -0.0939
vn 0.1983 -0.9717 -0.1281
vn -0.0003 0.9822 0.1880
vn 0.0003 0.9690 0.2472
vn 0.0003 -0.9691 0.2468
vn -0.0002 -0.9822 0.1880
vn -0.2059 -0.2649 0.9421
vn -0.2055 0.2781 0.9383
vn -0.2012 0.2286 0.9525
vn -0.2016 -0.2208 0.9543
s 0
f 4//1 12//1 19//1
f 6//2 26//2 10//2
f 45//3 46//3 27//3
f 10//4 5//4 6//4
f 2//5 7//5 3//5
f 28//6 31//6 17//6
f 14//7 23//7 25//7
f 2//8 10//8 7//8
f 7//9 11//9 3//9
f 8//10 4//10 13//10
f 23//11 14//11 9//11
f 10//12 16//12 7//12
f 7//13 17//13 11//13
f 26//14 29//14 16//14
f 11//15 17//15 18//15
f 13//16 20//16 21//16
f 13//17 21//17 15//17
f 29//18 27//18 16//18
f 14//19 25//19 24//19
f 54//20 55//20 51//20
f 16//21 27//21 28//21
f 16//22 28//22 7//22
f 12//23 11//23 19//23
f 18//24 19//24 11//24
f 17//25 31//25 18//25
f 6//26 5//26 9//26
f 23//27 36//27 25//27
f 15//28 8//28 13//28
f 25//29 36//29 37//29
f 28//30 27//30 30//30
f 18//31 31//31 40//31
f 37//32 44//32 38//32
f 17//33 7//33 28//33
f 51//34 44//34 37//34
f 34//35 20//35 22//35
f 38//36 29//36 24//36
f 40//37 32//37 18//37
f 27//38 46//38 30//38
f 46//39 47//39 30//39
f 41//40 49//40 42//40
f 8//41 15//41 9//41
f 2//42 1//42 5//42
f 42//43 35//43 20//43
f 20//44 41//44 42//44
f 43//45 53//45 50//45
f 45//46 27//46 39//46
f 50//47 51//47 37//47
f 52//48 49//48 48//48
f 47//49 40//49 31//49
f 22//50 19//50 33//50
f 35//51 50//51 37//51
f 45//52 38//52 44//52
f 23//53 21//53 36//53
f 54//54 51//54 50//54
f 48//55 49//55 41//55
f 32//56 22//56 33//56
f 9//57 15//57 23//57
f 6//58 24//58 26//58
f 10//59 2//59 5//59
f 28//60 30//60 31//60
f 4//61 8//61 1//61
f 24//62 29//62 26//62
f 47//63 55//63 52//63
f 55//64 54//64 52//64
f 49//65 54//65 53//65
f 49//66 52//66 54//66
f 47//67 31//67 30//67
f 45//68 44//68 55//68
f 44//69 51//69 55//69
f 55//70 46//70 45//70
f 9//71 1//71 8//71
f 29//72 39//72 27//72
f 4//73 3//73 12//73
f 14//74 6//74 9//74
f 18//75 33//75 19//75
f 12//76 3//76 11//76
f 55//77 47//77 46//77
f 13//78 22//78 20//78
f 13//79 4//79 22//79
f 9//80 5//80 1//80
f 21//81 20//81 35//81
f 38//82 39//82 29//82
f 40//83 48//83 32//83
f 48//84 41//84 34//84
f 32//85 48//85 34//85
f 35//86 37//86 36//86
f 35//87 42//87 43//87
f 42//88 49//88 53//88
f 43//89 42//89 53//89
f 54//90 50//90 53//90
f 50//91 35//91 43//91
f 16//92 10//92 26//92
f 48//93 40//93 52//93
f 52//94 40//94 47//94
f 22//95 4//95 19//95
f 36//96 21//96 35//96
f 45//97 39//97 38//97
f 23//98 15//98 21//98
f 4//99 1//99 3//99
f 25//100 38//100 24//100
f 32//101 34//101 22//101
f 37//102 38//102 25//102
f 1//103 2//103 3//103
f 41//104 20//104 34//104
f 32//105 33//105 18//105
f 6//106 14//106 24//106
f 29//107 39//107 16//107
f 39//108 27//108 16//108
f 18//109 33//109 11//109
f 33//110 19//110 11//110
f 38//111 44//111 39//111
f 44//112 45//112 39//112
f 32//113 34//113 33//113
f 34//114 22//114 33//114
f 49//115 43//115 42//115
f 43//116 54//116 50//116
f 43//117 53//117 54//117
f 53//118 43//118 49//118
