# https://github.com/mikedh/trimesh
mtllib material.mtl
usemtl material_0
v -0.28906080 0.11485796 0.15302785
v 0.15194549 0.11591667 0.15302785
v -0.28906080 -0.08217898 0.15302785
v 0.15194549 -0.08323768 0.15302785
v -0.28906080 0.11485796 0.15266438
v 0.15194549 0.11591667 0.15266438
v -0.28906080 -0.08217898 0.15266438
v 0.15194549 -0.08323768 0.15266438
v 0.00041509 -0.17544678 -0.00372479
v 0.00041509 -0.17544678 -0.00373479
v 0.00042509 -0.17544678 -0.00373479
v 0.00042509 -0.17544678 -0.00372479
v 0.00041509 -0.17544678 -0.00372479
v 0.00041509 -0.17544678 -0.00373479
v 0.00042509 -0.17544678 -0.00373479
v 0.00042509 -0.17544678 -0.00372479
v 0.00041509 -0.17544678 -0.00372479
v 0.00041509 -0.17544678 -0.00373479
v 0.00042509 -0.17544678 -0.00373479
v 0.00042509 -0.17544678 -0.00372479
v 0.00041509 -0.17544678 -0.00372479
v 0.00041509 -0.17544678 -0.00373479
v 0.00042509 -0.17544678 -0.00373479
v 0.00042509 -0.17544678 -0.00372479
v -0.28361715 -0.09917848 0.11503328
v -0.28320133 -0.09917848 0.11193633
v -0.28400226 -0.09917848 0.10891603
v -0.28589818 -0.09917848 0.10643174
v -0.28860023 -0.09917848 0.10486250
v -0.29169736 -0.09917848 0.10444685
v -0.29471769 -0.09917848 0.10524765
v -0.28361715 -0.09714288 0.11503328
v -0.28320133 -0.09714288 0.11193633
v -0.28400226 -0.09714288 0.10891603
v -0.28589818 -0.09714288 0.10643174
v -0.28860023 -0.09714288 0.10486250
v -0.29169736 -0.09714288 0.10444685
v -0.29471769 -0.09714288 0.10524765
v -0.28914367 -0.09917848 0.11350067
v -0.28901346 -0.09917848 0.11252867
v -0.28926458 -0.09917848 0.11158111
v -0.28985916 -0.09917848 0.11080201
v -0.29070720 -0.09917848 0.11030945
v -0.29167882 -0.09917848 0.11017914
v -0.29262647 -0.09917848 0.11043016
v -0.28914367 -0.09714288 0.11350067
v -0.28901346 -0.09714288 0.11252867
v -0.28926458 -0.09714288 0.11158111
v -0.28985916 -0.09714288 0.11080201
v -0.29070720 -0.09714288 0.11030945
v -0.29167882 -0.09714288 0.11017914
v -0.29262647 -0.09714288 0.11043016
v -0.28361715 0.13951172 0.11503328
v -0.28320133 0.13951172 0.11193633
v -0.28400226 0.13951172 0.10891603
v -0.28589818 0.13951172 0.10643174
v -0.28860023 0.13951172 0.10486250
v -0.29169736 0.13951172 0.10444685
v -0.29471769 0.13951172 0.10524765
v -0.28361715 0.14156502 0.11503328
v -0.28320133 0.14156502 0.11193633
v -0.28400226 0.14156502 0.10891603
v -0.28589818 0.14156502 0.10643174
v -0.28860023 0.14156502 0.10486250
v -0.29169736 0.14156502 0.10444685
v -0.29471769 0.14156502 0.10524765
v -0.28914367 0.13951172 0.11350067
v -0.28901346 0.13951172 0.11252867
v -0.28926458 0.13951172 0.11158111
v -0.28985916 0.13951172 0.11080201
v -0.29070720 0.13951172 0.11030945
v -0.29167882 0.13951172 0.11017914
v -0.29262647 0.13951172 0.11043016
v -0.28914367 0.14156502 0.11350067
v -0.28901346 0.14156502 0.11252867
v -0.28926458 0.14156502 0.11158111
v -0.28985916 0.14156502 0.11080201
v -0.29070720 0.14156502 0.11030945
v -0.29167882 0.14156502 0.11017914
v -0.29262647 0.14156502 0.11043016
v 0.00041509 -0.17544678 -0.00372479
v 0.00041509 -0.17544678 -0.00373479
v 0.00042509 -0.17544678 -0.00373479
v 0.00042509 -0.17544678 -0.00372479
v -0.28860023 -0.09714288 0.10486250
v -0.28860023 -0.09917848 0.10486250
v -0.28361715 -0.09714288 0.11503328
v -0.28320133 -0.09714288 0.11193633
v -0.28400226 -0.09714288 0.10891603
v -0.28589818 -0.09714288 0.10643174
v -0.28860023 -0.09714288 0.10486250
v -0.29169736 -0.09714288 0.10444685
v -0.29471769 -0.09714288 0.10524765
v -0.28320133 -0.09917848 0.11193633
v -0.28361715 -0.09917848 0.11503328
v -0.29471769 -0.09917848 0.10524765
v -0.29169736 -0.09917848 0.10444685
v -0.28860023 -0.09917848 0.10486250
v -0.28589818 -0.09917848 0.10643174
v -0.28400226 -0.09917848 0.10891603
v -0.28361715 -0.09714288 0.11503328
v -0.28361715 -0.09917848 0.11503328
v -0.28914367 -0.09917848 0.11350067
v -0.28914367 -0.09714288 0.11350067
v -0.28914367 -0.09714288 0.11350067
v -0.28914367 -0.09917848 0.11350067
v -0.28901346 -0.09917848 0.11252867
v -0.28901346 -0.09714288 0.11252867
v -0.28926458 -0.09917848 0.11158111
v -0.28926458 -0.09714288 0.11158111
v -0.28985916 -0.09917848 0.11080201
v -0.28985916 -0.09714288 0.11080201
v -0.29070720 -0.09917848 0.11030945
v -0.29070720 -0.09714288 0.11030945
v -0.29070720 -0.09714288 0.11030945
v -0.29070720 -0.09917848 0.11030945
v -0.29167882 -0.09917848 0.11017914
v -0.29167882 -0.09714288 0.11017914
v -0.29262647 -0.09917848 0.11043016
v -0.29262647 -0.09714288 0.11043016
v -0.29262647 -0.09714288 0.11043016
v -0.29262647 -0.09917848 0.11043016
v -0.29471769 -0.09917848 0.10524765
v -0.29471769 -0.09714288 0.10524765
v -0.28860023 0.14156502 0.10486250
v -0.28860023 0.13951172 0.10486250
v -0.28361715 0.14156502 0.11503328
v -0.28320133 0.14156502 0.11193633
v -0.28400226 0.14156502 0.10891603
v -0.28589818 0.14156502 0.10643174
v -0.28860023 0.14156502 0.10486250
v -0.29169736 0.14156502 0.10444685
v -0.29471769 0.14156502 0.10524765
v -0.28320133 0.13951172 0.11193633
v -0.28361715 0.13951172 0.11503328
v -0.29471769 0.13951172 0.10524765
v -0.29169736 0.13951172 0.10444685
v -0.28860023 0.13951172 0.10486250
v -0.28589818 0.13951172 0.10643174
v -0.28400226 0.13951172 0.10891603
v -0.28361715 0.14156502 0.11503328
v -0.28361715 0.13951172 0.11503328
v -0.28914367 0.13951172 0.11350067
v -0.28914367 0.14156502 0.11350067
v -0.28914367 0.14156502 0.11350067
v -0.28914367 0.13951172 0.11350067
v -0.28901346 0.13951172 0.11252867
v -0.28901346 0.14156502 0.11252867
v -0.28926458 0.13951172 0.11158111
v -0.28926458 0.14156502 0.11158111
v -0.28985916 0.13951172 0.11080201
v -0.28985916 0.14156502 0.11080201
v -0.29070720 0.13951172 0.11030945
v -0.29070720 0.14156502 0.11030945
v -0.29070720 0.14156502 0.11030945
v -0.29070720 0.13951172 0.11030945
v -0.29167882 0.13951172 0.11017914
v -0.29167882 0.14156502 0.11017914
v -0.29262647 0.13951172 0.11043016
v -0.29262647 0.14156502 0.11043016
v -0.29262647 0.14156502 0.11043016
v -0.29262647 0.13951172 0.11043016
v -0.29471769 0.13951172 0.10524765
v -0.29471769 0.14156502 0.10524765
v 0.13445239 -0.06918254 0.15388885
v 0.13445239 0.11424414 0.15388885
v -0.26551858 0.11424414 0.15388885
v -0.26551858 -0.06918254 0.15388885
v 0.13445239 -0.06918254 0.15173553
v 0.13445239 0.11424414 0.15173553
v -0.26551858 0.11424414 0.15173553
v -0.26551858 -0.06918254 0.15173553
v -0.27922368 0.11582381 0.14759430
v -0.26709829 0.12794914 0.14759430
v -0.27830072 0.12046402 0.14759430
v -0.27567230 0.12439785 0.14759430
v -0.27173845 0.12702618 0.14759430
v -0.26709829 -0.08309688 0.14759430
v -0.27922368 -0.07097158 0.14759430
v -0.27173845 -0.08217398 0.14759430
v -0.27567230 -0.07954548 0.14759430
v -0.27830072 -0.07561168 0.14759430
v 0.13445239 -0.06918254 0.14759385
v 0.13445239 0.11424414 0.14759385
v -0.26551858 0.11424414 0.14759430
v -0.26551858 -0.06918254 0.14759430
v 0.13445239 -0.06918254 0.14974745
v 0.13445239 0.11424414 0.14974745
v -0.26551858 0.11424414 0.14974745
v -0.26551858 -0.06918254 0.14974745
v 0.14642219 0.11559285 0.15388885
v 0.14642219 -0.07055189 0.15388885
v 0.14642219 -0.07055189 0.14759385
v 0.14642219 0.11559285 0.14759385
v 0.14642219 -0.08309688 0.14759385
v 0.14642219 0.12794914 0.14759385
v -0.29290981 -0.09116518 0.11545868
v -0.28926559 -0.09480948 0.11545868
v 0.15881639 -0.09480948 0.11545868
v 0.16246049 -0.09116518 0.11545868
v 0.16246049 0.13558702 0.11545868
v 0.15881639 0.13923102 0.11545868
v -0.28926559 0.13923102 0.11545868
v -0.29290981 0.13558702 0.11545868
v -0.27773658 -0.08328038 0.11562439
v -0.28138082 -0.07963618 0.11562439
v -0.28138082 0.12405787 0.11562439
v -0.27773658 0.12770214 0.11562439
v 0.14728729 0.12770214 0.11562439
v 0.15093149 0.12405787 0.11562439
v 0.15093149 -0.07963618 0.11562439
v 0.14728729 -0.08328038 0.11562439
v -0.28868259 -0.09422648 0.11311265
v -0.29232684 -0.09058228 0.11311265
v -0.29170312 -0.08995848 0.11249420
v -0.28805881 -0.09360268 0.11249420
v 0.16187759 -0.09058228 0.11311280
v 0.15823339 -0.09422648 0.11311265
v 0.15760949 -0.09360268 0.11249466
v 0.16125359 -0.08995848 0.11249466
v 0.15823339 0.13864812 0.11311265
v 0.16187759 0.13500372 0.11311280
v 0.16125359 0.13438002 0.11249466
v 0.15760949 0.13802432 0.11249466
v -0.29232684 0.13500372 0.11311265
v -0.28868259 0.13864812 0.11311265
v -0.28805881 0.13802432 0.11249420
v -0.29170312 0.13438002 0.11249420
v -0.28194932 -0.08020468 0.11325944
v -0.27830507 -0.08384888 0.11325944
v -0.27892436 -0.08446818 0.11262559
v -0.28256858 -0.08082398 0.11262559
v -0.27830507 0.12827053 0.11325944
v -0.28194932 0.12462626 0.11325944
v -0.28256858 0.12524560 0.11262559
v -0.27892436 0.12888993 0.11262559
v 0.15149989 0.12462626 0.11325944
v 0.14785569 0.12827053 0.11325944
v 0.14847499 0.12888993 0.11262559
v 0.15211919 0.12524560 0.11262559
v 0.14785569 -0.08384888 0.11325944
v 0.15149989 -0.08020468 0.11325944
v 0.15211919 -0.08082398 0.11262559
v 0.14847499 -0.08446818 0.11262559
v -0.29125953 -0.09315908 0.11311265
v -0.29063571 -0.09253528 0.11249420
v 0.16018639 0.13695702 0.11249420
v 0.15105189 0.12782250 0.11262559
v -0.28088189 0.12720324 0.11325944
v -0.28150119 0.12782250 0.11262559
v -0.28150119 -0.08340088 0.11262559
v -0.28088189 -0.08278148 0.11325944
v 0.15043249 -0.08278148 0.11325944
v 0.14986409 -0.08221308 0.11562439
v 0.15105189 -0.08340088 0.11262559
v 0.16081019 0.13758082 0.11311280
v 0.16018639 -0.09253528 0.11249420
v -0.28031345 -0.08221308 0.11562439
v 0.16139329 0.13816382 0.11545868
v 0.16081019 -0.09315908 0.11311280
v -0.29063571 0.13695702 0.11249420
v -0.29125953 0.13758082 0.11311265
v -0.29184244 -0.09374208 0.11545868
v 0.15043249 0.12720324 0.11325944
v -0.28031345 0.12663456 0.11562439
v -0.29184244 0.13816382 0.11545868
v 0.14986409 0.12663456 0.11562439
v 0.16139329 -0.09374208 0.11545868
v 0.00041509 -0.17544678 -0.00372479
v 0.00041509 -0.17544678 -0.00373479
v 0.00042509 -0.17544678 -0.00373479
v 0.00042509 -0.17544678 -0.00372479
v -0.27567230 -0.07954548 0.15388885
v -0.27173845 -0.08217398 0.15388885
v -0.26709829 -0.08309688 0.15388885
v -0.26709829 0.12794914 0.15388885
v -0.27173845 0.12702618 0.15388885
v -0.27567230 0.12439785 0.15388885
v -0.27830070 0.12046402 0.15388885
v -0.27922368 0.11582381 0.15388885
v -0.27922368 -0.07097158 0.15388885
v -0.27830070 -0.07561168 0.15388885
v -0.26551858 0.11424414 0.15388885
v -0.26551858 0.11424414 0.15388885
v -0.26551858 0.11424414 0.15173553
v -0.26551858 -0.06918254 0.15388885
v -0.26551858 -0.06918254 0.15388885
v -0.26551858 -0.06918254 0.15173553
v 0.13445239 -0.06918254 0.15388885
v 0.13445239 -0.06918254 0.15173553
v 0.13445239 0.11424414 0.15173553
v 0.13445239 0.11424414 0.15388885
v -0.26551858 0.11424414 0.14759430
v -0.26551858 0.11424414 0.14759430
v -0.26551858 -0.06918254 0.14759430
v -0.26551858 0.11424414 0.14974745
v -0.26551858 -0.06918254 0.14759430
v -0.26551858 -0.06918254 0.14974745
v 0.13445239 -0.06918254 0.14759385
v 0.13445239 0.11424414 0.14759385
v 0.13445239 0.11424414 0.14974745
v 0.13445239 -0.06918254 0.14974745
v 0.13445239 -0.06918254 0.15388885
v 0.13445239 0.11424414 0.15388885
v 0.14642219 -0.08309688 0.15388885
v 0.14642219 0.12794914 0.15388885
v 0.13445239 0.11424414 0.14759385
v 0.13445239 -0.06918254 0.14759385
v 0.18405729 0.12794914 0.15388885
v 0.18405729 -0.08309688 0.15388885
v -0.29063571 -0.09253528 0.11249420
v -0.29125953 -0.09315908 0.11311265
v -0.28150119 0.12782250 0.11262559
v -0.28088189 0.12720324 0.11325944
v -0.28088189 -0.08278148 0.11325944
v -0.28150119 -0.08340088 0.11262559
v 0.14986409 -0.08221308 0.11562439
v 0.15043249 -0.08278148 0.11325944
v 0.15043249 -0.08278148 0.11325944
v 0.15043249 -0.08278148 0.11325944
v 0.15105189 -0.08340088 0.11262559
v 0.15760949 0.13802432 0.11249466
v 0.16018639 0.13695702 0.11249420
v 0.16018639 0.13695702 0.11249420
v 0.16125359 0.13438002 0.11249466
v 0.16081019 0.13758082 0.11311280
v 0.15105189 -0.08340088 0.11262559
v 0.14847499 -0.08446818 0.11262559
v 0.15211919 -0.08082398 0.11262559
v -0.28088189 -0.08278148 0.11325944
v -0.27830507 -0.08384888 0.11325944
v -0.28031345 -0.08221308 0.11562439
v -0.28194932 -0.08020468 0.11325944
v -0.28088189 -0.08278148 0.11325944
v 0.15823339 0.13864812 0.11311265
v 0.16081019 0.13758082 0.11311280
v 0.16081019 0.13758082 0.11311280
v 0.16187759 0.13500372 0.11311280
v 0.16139329 0.13816382 0.11545868
v -0.27892436 -0.08446818 0.11262559
v -0.28150119 -0.08340088 0.11262559
v -0.29063571 -0.09253528 0.11249420
v -0.28805881 -0.09360268 0.11249420
v -0.28256858 -0.08082398 0.11262559
v -0.29170312 -0.08995848 0.11249420
v 0.16018639 -0.09253528 0.11249420
v 0.15760949 -0.09360268 0.11249466
v 0.16081019 -0.09315908 0.11311280
v 0.16125359 -0.08995848 0.11249466
v 0.16018639 -0.09253528 0.11249420
v -0.29125953 0.13758082 0.11311265
v -0.29063571 0.13695702 0.11249420
v -0.28868259 -0.09422648 0.11311265
v -0.29125953 -0.09315908 0.11311265
v -0.29125953 -0.09315908 0.11311265
v -0.29232684 -0.09058228 0.11311265
v -0.29184244 -0.09374208 0.11545868
v 0.15211919 0.12524560 0.11262559
v 0.15105189 0.12782250 0.11262559
v 0.15105189 0.12782250 0.11262559
v 0.14847499 0.12888993 0.11262559
v 0.15043249 0.12720324 0.11325944
v -0.27830507 0.12827053 0.11325944
v -0.28088189 0.12720324 0.11325944
v -0.28088189 0.12720324 0.11325944
v -0.28194932 0.12462626 0.11325944
v -0.28031345 0.12663456 0.11562439
v -0.29125953 0.13758082 0.11311265
v -0.28868259 0.13864812 0.11311265
v -0.29184244 0.13816382 0.11545868
v -0.29232684 0.13500372 0.11311265
v -0.29125953 0.13758082 0.11311265
v 0.15149989 0.12462626 0.11325944
v 0.15043249 0.12720324 0.11325944
v 0.15043249 0.12720324 0.11325944
v 0.14785569 0.12827053 0.11325944
v 0.14986409 0.12663456 0.11562439
v 0.16187759 -0.09058228 0.11311280
v 0.16081019 -0.09315908 0.11311280
v 0.16081019 -0.09315908 0.11311280
v 0.15823339 -0.09422648 0.11311265
v 0.16139329 -0.09374208 0.11545868
v -0.28256858 0.12524560 0.11262559
v -0.28150119 0.12782250 0.11262559
v -0.29063571 0.13695702 0.11249420
v -0.29170312 0.13438002 0.11249420
v -0.27892436 0.12888993 0.11262559
v -0.28805881 0.13802432 0.11249420
v 0.15760949 -0.09360268 0.11249466
v 0.15211919 0.12524560 0.11262559
v 0.15760949 0.13802432 0.11249466
v 0.14847499 0.12888993 0.11262559
v 0.16125359 0.13438002 0.11249466
v 0.16125359 -0.08995848 0.11249466
v 0.15149989 0.12462626 0.11325944
v -0.27830507 0.12827053 0.11325944
v 0.14785569 0.12827053 0.11325944
v -0.28194932 -0.08020468 0.11325944
v -0.28194932 0.12462626 0.11325944
v -0.27830507 -0.08384888 0.11325944
v -0.29232684 0.13500372 0.11311265
v -0.29232684 -0.09058228 0.11311265
v 0.15823339 0.13864812 0.11311265
v -0.28868259 0.13864812 0.11311265
v 0.16187759 -0.09058228 0.11311280
v 0.16187759 0.13500372 0.11311280
v -0.28868259 -0.09422648 0.11311265
v 0.15823339 -0.09422648 0.11311265
v 0.00041509 -0.17544678 -0.00372479
v 0.00042509 -0.17544678 -0.00372479
v 0.00041509 -0.17544678 -0.00373479
v 0.00042509 -0.17544678 -0.00373479
v 0.17677859 0.14814382 0.10399019
v 0.18147159 0.14814382 0.10399019
v 0.17827739 0.14325752 0.09518158
v 0.17997279 0.14325752 0.09518158
v 0.17827739 0.14308562 0.09382143
v 0.17997279 0.14308562 0.09382143
v 0.17677859 0.14723092 0.11283173
v 0.18147159 0.14723092 0.11283173
v 0.18147159 0.15249452 0.11053910
v 0.17677859 0.15249452 0.11053910
v 0.17827739 0.13568342 0.09407732
v 0.17997279 0.13568342 0.09407732
v 0.18147159 0.13330282 0.10354004
v 0.17677859 0.13330282 0.10354004
v 0.18084119 0.14514302 0.09724868
v 0.18147159 0.14666612 0.10065766
v 0.17677859 0.14666612 0.10065766
v 0.17740899 0.14514302 0.09724868
v 0.17677859 0.14351462 0.10088334
v 0.17730969 0.14309322 0.09658906
v 0.17677859 0.13240502 0.10074463
v 0.17729989 0.13337092 0.09651276
v 0.18147159 0.13240502 0.10074463
v 0.18095039 0.13337092 0.09651276
v 0.18147159 0.14351532 0.10085280
v 0.18094959 0.14309612 0.09661743
v 0.17677859 0.14329172 0.10455643
v 0.17677859 0.14770422 0.10539612
v 0.18147159 0.14329172 0.10455643
v 0.18147159 0.14770422 0.10539612
v 0.17677859 0.15481852 0.12099228
v 0.18147159 0.15481852 0.12099228
v 0.18147159 0.15875242 0.11718521
v 0.17677859 0.15875242 0.11718521
v 0.17677859 -0.09853748 0.10399019
v 0.18147159 -0.09853748 0.10399019
v 0.17827739 -0.10342368 0.09518158
v 0.17997279 -0.10342368 0.09518158
v 0.17827739 -0.10885908 0.09382143
v 0.17997279 -0.10885908 0.09382143
v 0.17677859 -0.09945028 0.11283173
v 0.18147159 -0.09945028 0.11283173
v 0.18147159 -0.09418678 0.11053910
v 0.17677859 -0.09418678 0.11053910
v 0.17827739 -0.11626128 0.09407732
v 0.17997279 -0.11626128 0.09407732
v 0.18147159 -0.11864198 0.10354004
v 0.17677859 -0.11864198 0.10354004
v 0.18084119 -0.10153828 0.09724868
v 0.18147159 -0.10001508 0.10065766
v 0.17677859 -0.10001508 0.10065766
v 0.17740899 -0.10153828 0.09724868
v 0.17677859 -0.10843008 0.10088334
v 0.17730969 -0.10885148 0.09658906
v 0.17677859 -0.11953978 0.10074463
v 0.17729989 -0.11857388 0.09651276
v 0.18147159 -0.11953978 0.10074463
v 0.18095039 -0.11857388 0.09651276
v 0.18147159 -0.10842938 0.10085280
v 0.18094959 -0.10884868 0.09661743
v 0.17677859 -0.10865288 0.10455643
v 0.17677859 -0.10424058 0.10539612
v 0.18147159 -0.10865288 0.10455643
v 0.18147159 -0.10424058 0.10539612
v 0.17677859 -0.09186268 0.12099228
v 0.18147159 -0.09186268 0.12099228
v 0.18147159 -0.08792878 0.11718521
v 0.17677859 -0.08792878 0.11718521
v -0.29197849 -0.08309688 0.16084598
v -0.30224861 -0.08309688 0.15057571
v -0.30224861 0.12794914 0.15057571
v -0.29197849 0.12794914 0.16084598
v -0.30146690 -0.08309688 0.15450594
v -0.29924056 -0.08309688 0.15783784
v -0.29590875 -0.08309688 0.16006440
v -0.30146690 0.12794914 0.15450594
v -0.29924056 0.12794914 0.15783784
v -0.29590875 0.12794914 0.16006440
v 0.18405739 -0.08309688 0.16084598
v 0.18405739 0.12794914 0.16084598
v -0.27922368 -0.13511018 0.11313951
v -0.27922368 0.17006092 0.11313951
v -0.30224861 -0.08309688 0.11313951
v -0.30224861 0.12794914 0.11313951
v 0.18405739 -0.13511018 0.11313936
v 0.18405739 0.17006092 0.11313936
v -0.29134904 0.12794914 0.16084598
v -0.27922368 0.11582381 0.16084598
v -0.26709833 0.12794914 0.16084598
v -0.27922368 0.14007452 0.16084598
v -0.28670884 0.12702618 0.16084598
v -0.28277505 0.12439785 0.16084598
v -0.28014663 0.12046402 0.16084598
v -0.27830070 0.12046402 0.16084598
v -0.27567230 0.12439785 0.16084598
v -0.27173845 0.12702618 0.16084598
v -0.27173845 0.12887219 0.16084598
v -0.27567230 0.13150082 0.16084598
v -0.27830070 0.13543442 0.16084598
v -0.28014663 0.13543442 0.16084598
v -0.28277505 0.13150082 0.16084598
v -0.28670884 0.12887219 0.16084598
v -0.27922368 -0.09522228 0.16084598
v -0.26709833 -0.08309688 0.16084598
v -0.27922368 -0.07097158 0.16084598
v -0.29134904 -0.08309688 0.16084598
v -0.27830070 -0.09058208 0.16084598
v -0.27567230 -0.08664838 0.16084598
v -0.27173845 -0.08401988 0.16084598
v -0.27173845 -0.08217398 0.16084598
v -0.27567230 -0.07954548 0.16084598
v -0.27830070 -0.07561168 0.16084598
v -0.28014663 -0.07561168 0.16084598
v -0.28277505 -0.07954548 0.16084598
v -0.28670884 -0.08217398 0.16084598
v -0.28670884 -0.08401988 0.16084598
v -0.28277505 -0.08664838 0.16084598
v -0.28014663 -0.09058208 0.16084598
v -0.27922368 0.12794914 0.16084598
v -0.28157337 0.12559946 0.16084598
v -0.27922368 0.12282437 0.16084598
v -0.27687398 0.12559946 0.16084598
v -0.27409889 0.12794914 0.16084598
v -0.27687398 0.13029882 0.16084598
v -0.27922368 0.13307402 0.16084598
v -0.28157337 0.13029882 0.16084598
v -0.28434852 0.12794914 0.16084598
v -0.27922368 -0.08309688 0.16084598
v -0.27687398 -0.08544658 0.16084598
v -0.27409889 -0.08309688 0.16084598
v -0.27687398 -0.08074728 0.16084598
v -0.27922368 -0.07797208 0.16084598
v -0.28157337 -0.08074728 0.16084598
v -0.28434852 -0.08309688 0.16084598
v -0.28157337 -0.08544658 0.16084598
v -0.27922368 -0.08822178 0.16084598
v 0.18405729 -0.08309688 0.15388885
v 0.18405729 0.12794914 0.15388885
v -0.27922368 0.11582381 0.15388885
v -0.26709829 0.12794914 0.15388885
v -0.27830070 0.12046402 0.15388885
v -0.27567230 0.12439785 0.15388885
v -0.27173845 0.12702618 0.15388885
v -0.26709829 -0.08309688 0.15388885
v -0.27922368 -0.07097158 0.15388885
v -0.27173845 -0.08217398 0.15388885
v -0.27567230 -0.07954548 0.15388885
v -0.27830070 -0.07561168 0.15388885
v -0.27922363 -0.13511018 0.15952074
v -0.27922368 -0.13378498 0.16084598
v -0.27922368 0.16873582 0.16084598
v -0.27922363 0.17006092 0.15952074
v -0.30224861 -0.13378498 0.15057571
v -0.30092983 -0.13511018 0.15044588
v -0.29197849 -0.13378498 0.16084598
v -0.29184858 -0.13511018 0.15952728
v -0.30224861 0.16873582 0.15057571
v -0.30092983 0.17006092 0.15044588
v -0.29197849 0.16873582 0.16084598
v -0.29184858 0.17006092 0.15952728
v -0.30146690 -0.13378498 0.15450594
v -0.30024259 -0.13511018 0.15399904
v -0.29924056 -0.13378498 0.15783784
v -0.29830352 -0.13511018 0.15690110
v -0.29590875 -0.13378498 0.16006440
v -0.29540159 -0.13511018 0.15884004
v -0.30146690 0.16873582 0.15450594
v -0.30024259 0.17006092 0.15399904
v -0.29924056 0.16873582 0.15783784
v -0.29830352 0.17006092 0.15690110
v -0.29590875 0.16873582 0.16006440
v -0.29540159 0.17006092 0.15884004
v 0.18405739 -0.13378498 0.16084598
v 0.18405719 -0.13511018 0.15952058
v 0.18405719 0.17006092 0.15952058
v 0.18405739 0.16873582 0.16084598
v -0.30092348 -0.13511018 0.11313951
v -0.30092348 0.17006092 0.11313951
v -0.27922363 0.11582381 0.11347076
v -0.27830072 0.12046402 0.11347076
v -0.27567230 0.12439785 0.11347076
v -0.27173845 0.12702618 0.11347076
v -0.27922363 -0.07097158 0.11347076
v -0.27173845 -0.08217398 0.11347076
v -0.27567230 -0.07954548 0.11347076
v -0.27830072 -0.07561168 0.11347076
v 0.18405729 -0.08309688 0.11479584
v 0.18405729 0.12794914 0.11479584
v -0.27922363 0.14007452 0.11320588
v -0.27173845 0.12887219 0.11320588
v -0.27567230 0.13150082 0.11320588
v -0.27830070 0.13543442 0.11320588
v -0.27922363 -0.09522228 0.11320588
v -0.27830070 -0.09058208 0.11320588
v -0.27567230 -0.08664838 0.11320588
v -0.27173845 -0.08401988 0.11320588
v 0.18405729 -0.13378498 0.11320588
v 0.18405729 0.16873582 0.11320588
v -0.26709834 -0.08309688 0.11347076
v 0.18405739 -0.08309688 0.11347076
v -0.26709834 0.12794914 0.11347076
v 0.18405739 0.12794914 0.11347076
v 0.17272699 -0.08309688 0.11479614
v 0.17272699 0.12794914 0.11479614
v 0.17272709 0.12794914 0.11347076
v 0.17272709 -0.08309688 0.11347076
v 0.14642219 0.12794914 0.15388885
v 0.14642219 0.12794914 0.16084611
v 0.14642219 -0.08309688 0.16084611
v 0.14642219 -0.08309688 0.15388885
v 0.14642219 0.16873582 0.16084611
v 0.14642219 0.17006092 0.15952074
v 0.14642219 -0.13511018 0.15952074
v 0.14642219 -0.13378498 0.16084611
v 0.14642219 -0.13511018 0.11313951
v 0.14642219 0.17006092 0.11313951
v 0.14642219 0.16873582 0.11320588
v 0.14642219 -0.13378498 0.11320588
v -0.27567230 0.12439785 0.11483584
v -0.27173845 0.12702618 0.11483584
v -0.27830070 0.12046402 0.11483584
v -0.27922368 0.11582381 0.11483584
v -0.27922368 -0.07097158 0.11483584
v -0.27830070 -0.07561168 0.11483584
v -0.27567230 -0.07954548 0.11483584
v -0.27173845 -0.08217398 0.11483584
v -0.26709833 0.12794914 0.11483584
v -0.26709833 -0.08309688 0.11483584
v 0.14642209 -0.08309688 0.11347124
v 0.14638909 -0.08309688 0.11479614
v 0.14642209 0.12794914 0.11347124
v 0.14638909 0.12794914 0.11479614
v 0.18405739 -0.08077788 0.14562622
v 0.18405729 -0.08077788 0.12305848
v 0.18405729 0.12563021 0.12305848
v 0.18405739 0.12563021 0.14562622
v 0.18339469 -0.08024778 0.14509627
v 0.18339459 -0.08024778 0.12358841
v 0.18339459 0.12510014 0.12358841
v 0.18339469 0.12510014 0.14509627
v 0.14642219 0.15193832 0.11330262
v -0.27922363 0.15193832 0.11320588
v 0.14642219 -0.11529578 0.11330262
v -0.27922363 -0.11529578 0.11320588
v 0.18405729 -0.11529578 0.11330231
v 0.18405729 0.15193832 0.11330231
v -0.30224861 -0.13378498 0.11313951
v -0.27922363 -0.13378498 0.11320588
v -0.30224861 0.16873582 0.11313951
v -0.27922363 0.16873582 0.11320588
v 0.14225969 -0.07899588 0.15264662
v 0.14225969 0.12479431 0.15264662
v 0.14226799 -0.07899588 0.15757844
v 0.14228199 -0.06748552 0.16552064
v 0.14226799 0.12479431 0.15757844
v 0.14228199 0.11328387 0.16552064
v 0.18483819 -0.08196608 0.15792392
v 0.14228109 0.11768870 0.16491626
v 0.14227799 0.12142293 0.16319459
v 0.14227319 0.12391812 0.16061769
v 0.14228109 -0.07189028 0.16491626
v 0.14227799 -0.07562458 0.16319459
v 0.14227319 -0.07811968 0.16061769
v 0.13040359 0.01409346 0.17088792
v 0.13553949 -0.03545911 0.16856706
v 0.13553949 0.08125756 0.16856706
v 0.13040359 0.03170498 0.17088792
v 0.13169239 -0.01087360 0.17030549
v 0.13169239 0.05667200 0.17030549
v 0.14225969 -0.08196608 0.15264662
v 0.14225969 0.12776440 0.15264662
v 0.18482919 -0.08196608 0.15262909
v 0.14226889 -0.08196608 0.15799804
v 0.14228729 -0.06782769 0.16847169
v 0.14226889 0.12776440 0.15799804
v 0.14228729 0.11362616 0.16847169
v 0.14228599 0.11853066 0.16779848
v 0.14228229 0.12317057 0.16565965
v 0.14227609 0.12656700 0.16215227
v 0.14228599 -0.07273228 0.16779848
v 0.14228229 -0.07737218 0.16565965
v 0.14227609 -0.08076848 0.16215227
v 0.13040869 0.01405894 0.17385804
v 0.13554479 -0.03570352 0.17152774
v 0.13554479 0.08150198 0.17152774
v 0.13040869 0.03173941 0.17385804
v 0.13169809 -0.01101249 0.17327333
v 0.13169809 0.05681090 0.17327333
v 0.14697099 -0.07900918 0.15263838
v 0.14697099 0.12480763 0.15263838
v 0.14697949 -0.07899588 0.15757034
v 0.14700649 -0.06749487 0.16558046
v 0.14697949 0.12479431 0.15757034
v 0.14700649 0.11329327 0.16558046
v 0.14699219 0.11768870 0.16490787
v 0.14698909 0.12142293 0.16318620
v 0.14698479 0.12391812 0.16060945
v 0.14699219 -0.07189028 0.16490787
v 0.14698909 -0.07562458 0.16318620
v 0.14698479 -0.07811968 0.16060945
v 0.14397139 0.01409149 0.17086427
v 0.14527819 -0.03547343 0.16855455
v 0.14527819 0.08127182 0.16855455
v 0.14397139 0.03170698 0.17086427
v 0.14504199 -0.03577424 0.15264601
v 0.14393939 0.01409182 0.15264344
v 0.14393939 0.03170664 0.15264344
v 0.14504199 0.08157261 0.15264601
v 0.14429939 -0.01088165 0.17028444
v 0.14429939 0.05668001 0.17028444
v 0.14421579 -0.01095662 0.15264435
v 0.14421579 0.05675505 0.15264435
v 0.18482509 0.03161198 0.15849137
v 0.18480989 0.05684662 0.15828691
v 0.18476819 0.08202515 0.15807985
v 0.18470049 0.11349265 0.15781877
v 0.18471219 0.11840714 0.15779100
v 0.18473219 0.12306380 0.15777421
v 0.18476549 0.12648825 0.15777986
v 0.18482669 0.01393133 0.15863359
v 0.18481609 -0.01130347 0.15883516
v 0.18477909 -0.03648201 0.15903245
v 0.18471699 -0.06794958 0.15927766
v 0.18472939 -0.07284378 0.15932939
v 0.18475049 -0.07746608 0.15938659
v 0.18478409 -0.08083408 0.15944719
v 0.18485739 -0.06782769 0.16898393
v 0.18485559 -0.07273228 0.16772432
v 0.18485179 -0.07737218 0.16558502
v 0.18484559 -0.08076858 0.16207765
v 0.18492399 -0.03635821 0.16898393
v 0.18496439 -0.01117801 0.16898393
v 0.18497739 0.01405840 0.16898393
v 0.18497739 0.03174004 0.16898393
v 0.18496439 0.05697649 0.16898393
v 0.18492399 0.08215649 0.16898393
v 0.18482719 0.12774916 0.15788545
v 0.18485739 0.11362616 0.16898393
v 0.18485559 0.11853066 0.16772432
v 0.18485179 0.12317057 0.16558502
v 0.18484559 0.12656700 0.16207765
v 0.18482509 0.03161198 0.15318026
v 0.18480989 0.05684662 0.15297577
v 0.18476819 0.08202515 0.15276825
v 0.18470049 0.11349265 0.15250718
v 0.18471219 0.11840714 0.15247956
v 0.18473219 0.12306380 0.15246293
v 0.18476549 0.12648825 0.15246856
v 0.18482669 0.01393133 0.15332229
v 0.18481609 -0.01130347 0.15352386
v 0.18477909 -0.03648201 0.15372178
v 0.18471699 -0.06794958 0.15396637
v 0.18472939 -0.07284378 0.15401764
v 0.18475049 -0.07746608 0.15407549
v 0.18478409 -0.08083408 0.15413590
v 0.18482819 0.12775688 0.15260163
v 0.18477479 0.05960516 0.16099092
v 0.18473749 0.08204762 0.16080585
v 0.18467469 0.11079947 0.16056764
v 0.18478189 -0.01399518 0.16158265
v 0.18474899 -0.03646063 0.16175905
v 0.18469219 -0.06518967 0.16198276
v 0.18475399 -0.06513595 0.16625947
v 0.18481449 -0.03635798 0.16625917
v 0.18485029 -0.01393741 0.16625901
v 0.18485059 0.05966910 0.16625917
v 0.18481519 0.08215641 0.16625917
v 0.18475519 0.11086760 0.16625947
v 0.17988329 0.05959753 0.16106140
v 0.17984569 0.08203877 0.16087602
v 0.17978319 0.11078946 0.16063659
v 0.17989039 -0.01398740 0.16165422
v 0.17985719 -0.03645165 0.16183017
v 0.17980029 -0.06517944 0.16205354
v 0.17986249 -0.06512567 0.16632997
v 0.17992319 -0.03634897 0.16633042
v 0.17995879 -0.01392965 0.16633027
v 0.17995919 0.05966131 0.16632951
v 0.17992369 0.08214735 0.16632905
v 0.17986339 0.11085732 0.16632890
v 0.17677859 0.14814382 0.10399019
v 0.17677859 0.15249452 0.11053910
v 0.17677859 0.14723092 0.11283173
v 0.17677859 0.14770422 0.10539612
v 0.17827739 0.14308562 0.09382143
v 0.17997279 0.14308562 0.09382143
v 0.18147159 0.14666612 0.10065766
v 0.18084119 0.14514302 0.09724868
v 0.17677859 0.14666612 0.10065766
v 0.17740899 0.14514302 0.09724868
v 0.17677859 0.13240502 0.10074463
v 0.17729989 0.13337092 0.09651276
v 0.18147159 0.13240502 0.10074463
v 0.18095039 0.13337092 0.09651276
v 0.17677859 0.13330282 0.10354004
v 0.18147159 0.13330282 0.10354004
v 0.17677859 0.14329172 0.10455643
v 0.18147159 0.13330282 0.10354004
v 0.18147159 0.14329172 0.10455643
v 0.17827739 0.14308562 0.09382143
v 0.17827739 0.14325752 0.09518158
v 0.17827739 0.13568342 0.09407732
v 0.17827739 0.13568342 0.09407732
v 0.17997279 0.13568342 0.09407732
v 0.17997279 0.14308562 0.09382143
v 0.17997279 0.13568342 0.09407732
v 0.17997279 0.14325752 0.09518158
v 0.17677859 0.13330282 0.10354004
v 0.18147159 0.14814382 0.10399019
v 0.18147159 0.14770422 0.10539612
v 0.18147159 0.14723092 0.11283173
v 0.18147159 0.15249452 0.11053910
v 0.17677859 0.14770422 0.10539612
v 0.18147159 0.14770422 0.10539612
v 0.18147159 0.15481852 0.12099228
v 0.18147159 0.15875242 0.11718521
v 0.17677859 0.15875242 0.11718521
v 0.17677859 0.15481852 0.12099228
v 0.18147159 0.15481852 0.12099228
v 0.17677859 0.15481852 0.12099228
v 0.17677859 0.15875242 0.11718521
v 0.18147159 0.15875242 0.11718521
v 0.17677859 -0.09853748 0.10399019
v 0.17677859 -0.09418678 0.11053910
v 0.17677859 -0.09945028 0.11283173
v 0.17677859 -0.10424058 0.10539612
v 0.18147159 -0.10001508 0.10065766
v 0.18084119 -0.10153828 0.09724868
v 0.17677859 -0.10001508 0.10065766
v 0.17740899 -0.10153828 0.09724868
v 0.17677859 -0.11953978 0.10074463
v 0.17729989 -0.11857388 0.09651276
v 0.18147159 -0.11953978 0.10074463
v 0.18095039 -0.11857388 0.09651276
v 0.17677859 -0.11864198 0.10354004
v 0.18147159 -0.11864198 0.10354004
v 0.17677859 -0.10865288 0.10455643
v 0.18147159 -0.11864198 0.10354004
v 0.18147159 -0.10865288 0.10455643
v 0.17827739 -0.10342368 0.09518158
v 0.17997279 -0.10342368 0.09518158
v 0.17827739 -0.10885908 0.09382143
v 0.17827739 -0.10342368 0.09518158
v 0.17827739 -0.11626128 0.09407732
v 0.17827739 -0.11626128 0.09407732
v 0.17997279 -0.11626128 0.09407732
v 0.17997279 -0.10885908 0.09382143
v 0.17997279 -0.11626128 0.09407732
v 0.17997279 -0.10342368 0.09518158
v 0.17677859 -0.11864198 0.10354004
v 0.18147159 -0.09853748 0.10399019
v 0.18147159 -0.10424058 0.10539612
v 0.18147159 -0.09945028 0.11283173
v 0.18147159 -0.09418678 0.11053910
v 0.18147159 -0.09186268 0.12099228
v 0.18147159 -0.08792878 0.11718521
v 0.17677859 -0.08792878 0.11718521
v 0.17677859 -0.09186268 0.12099228
v 0.18147159 -0.09186268 0.12099228
v 0.17677859 -0.09186268 0.12099228
v 0.17677859 -0.08792878 0.11718521
v 0.18147159 -0.08792878 0.11718521
v -0.29590875 0.12794914 0.16006440
v -0.29590875 -0.08309688 0.16006440
v -0.26709833 0.12794914 0.16084598
v -0.27173845 0.12702618 0.16084598
v -0.27173845 0.12702618 0.16084598
v -0.27173845 0.12702618 0.15388885
v -0.27567230 0.12439785 0.16084598
v -0.27830070 0.12046402 0.16084598
v -0.27922368 0.11582381 0.16084598
v -0.27922368 -0.07097158 0.16084598
v -0.27830070 -0.07561168 0.16084598
v -0.27567230 -0.07954548 0.16084598
v -0.27173845 -0.08217398 0.16084598
v -0.27173845 -0.08217398 0.16084598
v -0.27173845 -0.08217398 0.15388885
v -0.26709833 -0.08309688 0.16084598
v -0.29830352 0.17006092 0.15690110
v -0.29924056 0.16873582 0.15783784
v -0.29924056 -0.13378498 0.15783784
v -0.29830352 -0.13511018 0.15690110
v -0.30224861 -0.13378498 0.15057571
v -0.30146690 -0.13378498 0.15450594
v -0.29924056 -0.13378498 0.15783784
v -0.29590875 -0.13378498 0.16006440
v -0.29590875 -0.13378498 0.16006440
v -0.29197849 -0.13378498 0.16084598
v -0.30224861 0.16873582 0.15057571
v -0.30146690 0.16873582 0.15450594
v -0.29924056 0.16873582 0.15783784
v -0.29590875 0.16873582 0.16006440
v -0.29590875 0.16873582 0.16006440
v -0.29197849 0.16873582 0.16084598
v -0.27922363 -0.13511018 0.15952074
v -0.30092983 -0.13511018 0.15044588
v -0.30024259 -0.13511018 0.15399904
v -0.29830352 -0.13511018 0.15690110
v -0.29540159 -0.13511018 0.15884004
v -0.29184858 -0.13511018 0.15952728
v -0.30092983 0.17006092 0.15044588
v -0.27922363 0.17006092 0.15952074
v -0.30024259 0.17006092 0.15399904
v -0.29830352 0.17006092 0.15690110
v -0.29540159 0.17006092 0.15884004
v -0.29184858 0.17006092 0.15952728
v -0.27922368 0.16873582 0.16084598
v -0.27922368 -0.13378498 0.16084598
v 0.18405729 0.12794914 0.11479584
v 0.18405739 0.12794914 0.11347076
v 0.18405739 -0.08309688 0.11347076
v 0.18405729 -0.08309688 0.11479584
v 0.14642219 -0.13511018 0.15952074
v 0.14642219 0.17006092 0.15952074
v 0.14642219 0.16873582 0.16084611
v 0.14642219 0.12794914 0.16084611
v 0.14642219 -0.08309688 0.16084611
v 0.14642219 -0.13378498 0.16084611
v -0.27567230 0.12439785 0.14759430
v -0.27173845 0.12702618 0.14759430
v -0.27830072 0.12046402 0.14759430
v -0.27922368 0.11582381 0.14759430
v -0.27922368 -0.07097158 0.14759430
v -0.27830072 -0.07561168 0.14759430
v -0.27567230 -0.07954548 0.14759430
v -0.27173845 -0.08217398 0.14759430
v -0.27173845 0.12702618 0.14759430
v -0.26709829 0.12794914 0.14759430
v -0.27173845 0.12702618 0.11483584
v -0.27173845 0.12702618 0.11347076
v -0.26709829 -0.08309688 0.14759430
v -0.27173845 -0.08217398 0.14759430
v -0.27173845 -0.08217398 0.11483584
v -0.27173845 -0.08217398 0.11347076
v 0.14642219 0.12794914 0.14759385
v 0.14642219 -0.08309688 0.14759385
v 0.14642219 0.12794914 0.14759385
v 0.14642219 -0.08309688 0.14759385
v 0.14638909 -0.08309688 0.11479614
v 0.14638909 0.12794914 0.11479614
v 0.18405729 -0.08309688 0.15388885
v 0.18405739 -0.08309688 0.16084598
v 0.18405739 0.12794914 0.16084598
v 0.18405729 0.12794914 0.15388885
v 0.18405719 0.17006092 0.15952058
v 0.18405739 0.16873582 0.16084598
v 0.18405739 0.16873582 0.16084598
v 0.18405739 0.12794914 0.16084598
v 0.18405719 -0.13511018 0.15952058
v 0.18405739 -0.13511018 0.11313936
v 0.18405739 0.17006092 0.11313936
v 0.18405719 0.17006092 0.15952058
v 0.18405739 -0.08309688 0.16084598
v 0.18405739 -0.13378498 0.16084598
v 0.14642219 -0.13511018 0.11313951
v 0.18405739 -0.13511018 0.11313936
v 0.18405729 -0.13378498 0.11320588
v 0.18405729 0.16873582 0.11320588
v 0.18405739 0.17006092 0.11313936
v 0.14642219 0.17006092 0.11313951
v 0.18405739 -0.13378498 0.16084598
v 0.18405719 -0.13511018 0.15952058
v 0.17272699 -0.08309688 0.11479614
v 0.18405729 -0.08309688 0.11479584
v 0.18405729 0.12794914 0.11479584
v 0.17272699 0.12794914 0.11479614
v 0.14638909 -0.08309688 0.11479614
v 0.14638909 0.12794914 0.11479614
v 0.18405739 0.12563021 0.14562622
v 0.18405739 -0.08077788 0.14562622
v 0.18405739 -0.08077788 0.14562622
v 0.18339469 -0.08024778 0.14509627
v 0.18405729 -0.08077788 0.12305848
v 0.18405729 -0.08077788 0.12305848
v 0.18339459 -0.08024778 0.12358841
v 0.18405729 0.12563021 0.12305848
v 0.18405729 0.12563021 0.12305848
v 0.18339459 0.12510014 0.12358841
v 0.18339469 0.12510014 0.14509627
v 0.18405739 0.12563021 0.14562622
v 0.18339469 -0.08024778 0.14509627
v 0.18339469 0.12510014 0.14509627
v 0.18339459 0.12510014 0.12358841
v 0.18339459 -0.08024778 0.12358841
v 0.14642209 0.12794914 0.11347124
v -0.26709834 0.12794914 0.11347076
v 0.14642209 -0.08309688 0.11347124
v -0.26709834 -0.08309688 0.11347076
v 0.18405739 -0.08309688 0.11347076
v 0.17272709 -0.08309688 0.11347076
v 0.17272709 0.12794914 0.11347076
v 0.18405739 0.12794914 0.11347076
v -0.30092348 0.17006092 0.11313951
v -0.30092348 -0.13511018 0.11313951
v -0.30224861 -0.13378498 0.11313951
v -0.30224861 0.16873582 0.11313951
v -0.27922368 0.17006092 0.11313951
v -0.27922368 -0.13511018 0.11313951
v -0.30224861 -0.13378498 0.11313951
v -0.30092348 -0.13511018 0.11313951
v -0.27922363 -0.07097158 0.11347076
v -0.27922363 0.11582381 0.11347076
v -0.30224861 0.16873582 0.11313951
v -0.30224861 -0.08309688 0.11313951
v -0.30224861 0.12794914 0.11313951
v -0.27173845 0.12702618 0.11347076
v -0.27567230 0.12439785 0.11347076
v -0.27830072 0.12046402 0.11347076
v -0.27173845 -0.08217398 0.11347076
v -0.27567230 -0.07954548 0.11347076
v -0.27830072 -0.07561168 0.11347076
v -0.30092348 0.17006092 0.11313951
v 0.14226889 -0.08196608 0.15799804
v 0.14225969 -0.08196608 0.15264662
v 0.14225969 -0.07899588 0.15264662
v 0.14697099 -0.07900918 0.15263838
v 0.14697949 -0.07899588 0.15757034
v 0.14226799 -0.07899588 0.15757844
v 0.14698479 -0.07811968 0.16060945
v 0.14227319 -0.07811968 0.16061769
v 0.14227319 -0.07811968 0.16061769
v 0.14698479 -0.07811968 0.16060945
v 0.14698909 -0.07562458 0.16318620
v 0.14227799 -0.07562458 0.16319459
v 0.14227799 -0.07562458 0.16319459
v 0.14698909 -0.07562458 0.16318620
v 0.14699219 -0.07189028 0.16490787
v 0.14228109 -0.07189028 0.16491626
v 0.14700649 -0.06749487 0.16558046
v 0.14228199 -0.06748552 0.16552064
v 0.14527819 -0.03547343 0.16855455
v 0.13553949 -0.03545911 0.16856706
v 0.14429939 -0.01088165 0.17028444
v 0.13169239 -0.01087360 0.17030549
v 0.14397139 0.01409149 0.17086427
v 0.13040359 0.01409346 0.17088792
v 0.14397139 0.03170698 0.17086427
v 0.13040359 0.03170498 0.17088792
v 0.14429939 0.05668001 0.17028444
v 0.13169239 0.05667200 0.17030549
v 0.14527819 0.08127182 0.16855455
v 0.13553949 0.08125756 0.16856706
v 0.14700649 0.11329327 0.16558046
v 0.14228199 0.11328387 0.16552064
v 0.14699219 0.11768870 0.16490787
v 0.14228109 0.11768870 0.16491626
v 0.14698909 0.12142293 0.16318620
v 0.14227799 0.12142293 0.16319459
v 0.14227799 0.12142293 0.16319459
v 0.14698909 0.12142293 0.16318620
v 0.14698479 0.12391812 0.16060945
v 0.14227319 0.12391812 0.16061769
v 0.14227319 0.12391812 0.16061769
v 0.14698479 0.12391812 0.16060945
v 0.14697949 0.12479431 0.15757034
v 0.14226799 0.12479431 0.15757844
v 0.14697099 0.12480763 0.15263838
v 0.14225969 0.12479431 0.15264662
v 0.13040869 0.03173941 0.17385804
v 0.13169809 0.05681090 0.17327333
v 0.13554479 0.08150198 0.17152774
v 0.13169809 -0.01101249 0.17327333
v 0.13040869 0.01405894 0.17385804
v 0.13554479 -0.03570352 0.17152774
v 0.14228729 0.11362616 0.16847169
v 0.14228729 -0.06782769 0.16847169
v 0.14227609 -0.08076848 0.16215227
v 0.14228229 -0.07737218 0.16565965
v 0.18485179 -0.07737218 0.16558502
v 0.14228229 -0.07737218 0.16565965
v 0.14228599 -0.07273228 0.16779848
v 0.14226889 0.12776440 0.15799804
v 0.14227609 0.12656700 0.16215227
v 0.14228229 0.12317057 0.16565965
v 0.14228599 0.11853066 0.16779848
v 0.14228229 0.12317057 0.16565965
v 0.18485179 0.12317057 0.16558502
v 0.18497739 0.03174004 0.16898393
v 0.18496439 0.05697649 0.16898393
v 0.18485739 0.11362616 0.16898393
v 0.18485559 0.11853066 0.16772432
v 0.18485179 0.12317057 0.16558502
v 0.18484559 0.12656700 0.16207765
v 0.18482719 0.12774916 0.15788545
v 0.18497739 0.01405840 0.16898393
v 0.18496439 -0.01117801 0.16898393
v 0.18485559 -0.07273228 0.16772432
v 0.18485739 -0.06782769 0.16898393
v 0.18485179 -0.07737218 0.16558502
v 0.18484559 -0.08076858 0.16207765
v 0.14225969 0.12776440 0.15264662
v 0.18482819 0.12775688 0.15260163
v 0.18483819 -0.08196608 0.15792392
v 0.18482919 -0.08196608 0.15262909
v 0.18492399 0.08215649 0.16898393
v 0.18492399 -0.03635821 0.16898393
v 0.18481449 -0.03635798 0.16625917
v 0.17992319 -0.03634897 0.16633042
v 0.17986249 -0.06512567 0.16632997
v 0.18475399 -0.06513595 0.16625947
v 0.18475399 -0.06513595 0.16625947
v 0.17986249 -0.06512567 0.16632997
v 0.17980029 -0.06517944 0.16205354
v 0.18469219 -0.06518967 0.16198276
v 0.18469219 -0.06518967 0.16198276
v 0.17980029 -0.06517944 0.16205354
v 0.17985719 -0.03645165 0.16183017
v 0.18474899 -0.03646063 0.16175905
v 0.17989039 -0.01398740 0.16165422
v 0.18478189 -0.01399518 0.16158265
v 0.18478189 -0.01399518 0.16158265
v 0.17989039 -0.01398740 0.16165422
v 0.17995879 -0.01392965 0.16633027
v 0.18485029 -0.01393741 0.16625901
v 0.18485029 -0.01393741 0.16625901
v 0.17995879 -0.01392965 0.16633027
v 0.18467469 0.11079947 0.16056764
v 0.17978319 0.11078946 0.16063659
v 0.17986339 0.11085732 0.16632890
v 0.18475519 0.11086760 0.16625947
v 0.18475519 0.11086760 0.16625947
v 0.17986339 0.11085732 0.16632890
v 0.17992369 0.08214735 0.16632905
v 0.18481519 0.08215641 0.16625917
v 0.17995919 0.05966131 0.16632951
v 0.18485059 0.05966910 0.16625917
v 0.18485059 0.05966910 0.16625917
v 0.17995919 0.05966131 0.16632951
v 0.17988329 0.05959753 0.16106140
v 0.18477479 0.05960516 0.16099092
v 0.18477479 0.05960516 0.16099092
v 0.17988329 0.05959753 0.16106140
v 0.17984569 0.08203877 0.16087602
v 0.18473749 0.08204762 0.16080585
v 0.17978319 0.11078946 0.16063659
v 0.18467469 0.11079947 0.16056764
v 0.18482819 0.12775688 0.15260163
v 0.14225969 0.12776440 0.15264662
v 0.18476549 0.12648825 0.15246856
v 0.14225969 0.12479431 0.15264662
v 0.14697099 0.12480763 0.15263838
v 0.18473219 0.12306380 0.15246293
v 0.14504199 0.08157261 0.15264601
v 0.18471219 0.11840714 0.15247956
v 0.18470049 0.11349265 0.15250718
v 0.18476819 0.08202515 0.15276825
v 0.18480989 0.05684662 0.15297577
v 0.14421579 0.05675505 0.15264435
v 0.18482509 0.03161198 0.15318026
v 0.14393939 0.03170664 0.15264344
v 0.18482919 -0.08196608 0.15262909
v 0.18478409 -0.08083408 0.15413590
v 0.14225969 -0.08196608 0.15264662
v 0.14225969 -0.07899588 0.15264662
v 0.14697099 -0.07900918 0.15263838
v 0.18475049 -0.07746608 0.15407549
v 0.14393939 0.01409182 0.15264344
v 0.18482669 0.01393133 0.15332229
v 0.14421579 -0.01095662 0.15264435
v 0.18481609 -0.01130347 0.15352386
v 0.14504199 -0.03577424 0.15264601
v 0.18477909 -0.03648201 0.15372178
v 0.18472939 -0.07284378 0.15401764
v 0.18471699 -0.06794958 0.15396637
vt 0.53592200 0.85212500
vt 0.52556800 0.55153200
vt 0.46284500 0.85212500
vt 0.47319800 0.55153200
vt 0.53592200 0.85212500
vt 0.52556800 0.55153200
vt 0.46284500 0.85212500
vt 0.47319700 0.55153200
vt 0.00000000 0.00000000
vt 0.00000000 0.00000000
vt 0.00000000 0.00000000
vt 0.00000000 0.00000000
vt 0.00000000 0.00000000
vt 0.00000000 0.00000000
vt 0.00000000 0.00000000
vt 0.00000000 0.00000000
vt 0.00000000 0.00000000
vt 0.00000000 0.00000000
vt 0.00000000 0.00000000
vt 0.00000000 0.00000000
vt 0.00000000 0.00000000
vt 0.00000000 0.00000000
vt 0.00000000 0.00000000
vt 0.00000000 0.00000000
vt 0.66294190 0.16550900
vt 0.66294190 0.89363280
vt 0.66294190 0.62848340
vt 0.66294190 0.41039050
vt 0.66294190 0.27263060
vt 0.45214740 0.54452330
vt 0.45214740 0.80967430
vt 0.84164100 0.16550900
vt 0.84164100 0.89363280
vt 0.84164100 0.62848340
vt 0.84164100 0.41039050
vt 0.84164100 0.27263060
vt 0.27344830 0.54452330
vt 0.27344830 0.80967430
vt 0.99345530 0.77336180
vt 0.90812530 0.76192930
vt 0.82493890 0.78397670
vt 0.75654080 0.83617540
vt 0.71330150 0.91062659
vt 0.70186200 0.99592412
vt 0.72389760 0.07911506
vt 0.38699120 0.77336180
vt 0.47232110 0.76192930
vt 0.55550910 0.78397670
vt 0.62390560 0.83617540
vt 0.66714620 0.91062659
vt 0.67858450 0.99592412
vt 0.65654880 0.07911506
vt 0.46741420 0.16550800
vt 0.46741420 0.89363280
vt 0.46741420 0.62848470
vt 0.46741420 0.41039050
vt 0.46741420 0.27263060
vt 0.43270760 0.09149900
vt 0.43270760 0.35665000
vt 0.64767500 0.16550800
vt 0.64767500 0.89363280
vt 0.64767500 0.62848470
vt 0.64767500 0.41039050
vt 0.64767500 0.27263060
vt 0.25244680 0.09149900
vt 0.25244680 0.35665000
vt 0.65173320 0.79430110
vt 0.56640340 0.78286870
vt 0.48321680 0.80491610
vt 0.41481880 0.85711490
vt 0.37157970 0.93156590
vt 0.36014000 0.01686300
vt 0.38217560 0.10005400
vt 0.93608820 0.79430110
vt 0.02141800 0.78286870
vt 0.10460600 0.80491610
vt 0.17300300 0.85711490
vt 0.21624300 0.93156590
vt 0.22768100 0.01686300
vt 0.20564600 0.10005400
vt 0.00000000 0.00000000
vt 0.00000000 0.00000000
vt 0.00000000 0.00000000
vt 0.00000000 0.00000000
vt 0.27344830 0.27263060
vt 0.45214740 0.27263060
vt 0.25244680 0.28819750
vt 0.52432350 0.25169120
vt 0.78947300 0.32200240
vt 0.00756577 0.48844570
vt 0.14532570 0.72565470
vt 0.18181590 0.99754727
vt 0.11151490 0.26269840
vt 0.85612450 0.25169120
vt 0.12800000 0.28819750
vt 0.26893140 0.26269840
vt 0.19863050 0.99754727
vt 0.23512060 0.72565470
vt 0.37288050 0.48844570
vt 0.59097340 0.32200240
vt 0.63047000 0.17544000
vt 0.45177080 0.17544000
vt 0.45177080 0.66060400
vt 0.63047150 0.66060400
vt 0.41612850 0.29357000
vt 0.23742790 0.29357000
vt 0.23742790 0.37890000
vt 0.41612850 0.37890000
vt 0.23742790 0.46208600
vt 0.41612850 0.46208600
vt 0.23742790 0.53048400
vt 0.41612850 0.53048400
vt 0.23742790 0.57372400
vt 0.41612850 0.57372400
vt 0.98303510 0.47227000
vt 0.98303510 0.29357000
vt 0.89773750 0.29357000
vt 0.89773750 0.47227000
vt 0.81454660 0.29357000
vt 0.81454660 0.47227000
vt 0.02329996 0.29357000
vt 0.84459940 0.29357000
vt 0.84459940 0.74853600
vt 0.02329847 0.74853600
vt 0.25244680 0.81960650
vt 0.43270760 0.81960650
vt 0.80154380 0.30913690
vt 0.07342000 0.27263060
vt 0.33857000 0.34294180
vt 0.55666300 0.50938520
vt 0.69442300 0.74659410
vt 0.73091300 0.01848600
vt 0.66061200 0.28363800
vt 0.51440250 0.27263060
vt 0.78627760 0.30913690
vt 0.92720950 0.28363800
vt 0.85690860 0.01848600
vt 0.89339880 0.74659410
vt 0.03115866 0.50938520
vt 0.24925150 0.34294180
vt 0.82602030 0.17544000
vt 0.64575960 0.17544000
vt 0.64575960 0.66060400
vt 0.82602030 0.66060400
vt 0.61167810 0.29357000
vt 0.43141730 0.29357000
vt 0.43141730 0.37890000
vt 0.61167810 0.37890000
vt 0.43141730 0.46208800
vt 0.61167810 0.46208800
vt 0.43141730 0.53048300
vt 0.61167810 0.53048300
vt 0.43141730 0.57372500
vt 0.61167810 0.57372500
vt 0.79874580 0.47383100
vt 0.79874580 0.29357000
vt 0.71344820 0.29357000
vt 0.71344820 0.47383100
vt 0.63025710 0.29357000
vt 0.63025710 0.47383100
vt 0.21884960 0.29357000
vt 0.03858879 0.29357000
vt 0.03858879 0.74853600
vt 0.21884960 0.74853600
vt 0.31342400 0.63643300
vt 0.28746500 0.63643300
vt 0.65236830 0.94910040
vt 0.70880100 0.94910040
vt 0.32450100 0.63643200
vt 0.27638900 0.63643200
vt 0.27638900 0.69392730
vt 0.18964000 0.84093710
vt 0.20168900 0.82600200
vt 0.13931500 0.76362750
vt 0.17781900 0.82125410
vt 0.15758400 0.80773320
vt 0.14406300 0.78749720
vt 0.22495900 0.76362750
vt 0.16258500 0.82600200
vt 0.22021200 0.78749720
vt 0.20669100 0.80773320
vt 0.18645500 0.82125410
vt 0.34580600 0.63643200
vt 0.25508300 0.63643200
vt 0.20981500 0.75550140
vt 0.15338300 0.75550140
vt 0.33472800 0.63643200
vt 0.26616100 0.63643200
vt 0.26616100 0.69392730
vt 0.19986700 0.84093710
vt 0.65930630 0.83003200
vt 0.70175700 0.83003200
vt 0.16042700 0.63643200
vt 0.20287800 0.63643200
vt 0.22495900 0.63643200
vt 0.13931500 0.63643200
vt 0.36412200 0.72211850
vt 0.76167830 0.95467160
vt 0.76167830 0.64968800
vt 0.31066600 0.72211850
vt 0.31066600 0.88855700
vt 0.79018430 0.64968800
vt 0.79018430 0.95467140
vt 0.36412200 0.88855700
vt 0.09556000 0.84216750
vt 0.27228200 0.72822880
vt 0.27228200 0.77605300
vt 0.06723000 0.84216750
vt 0.06723000 0.65579800
vt 0.24932600 0.90812800
vt 0.24932600 0.86030340
vt 0.09556000 0.65579800
vt 0.74961000 0.95167300
vt 0.35205400 0.72511730
vt 0.34887300 0.72832630
vt 0.74642850 0.94846380
vt 0.32273300 0.72511730
vt 0.74961000 0.65268700
vt 0.02545500 0.65517900
vt 0.00670800 0.63643200
vt 0.80225240 0.65268700
vt 0.32273300 0.88555700
vt 0.85268610 0.63643200
vt 0.83393990 0.65517900
vt 0.35205400 0.88555700
vt 0.80225240 0.95167280
vt 0.80543400 0.94846370
vt 0.34887300 0.88234800
vt 0.28444900 0.72530440
vt 0.10772500 0.84509190
vt 0.11098600 0.84827730
vt 0.28770900 0.72211870
vt 0.05506500 0.84509190
vt 0.28444900 0.77897700
vt 0.28770900 0.78216300
vt 0.05180400 0.84827730
vt 0.23716000 0.91105100
vt 0.05506500 0.65287300
vt 0.88092800 0.70216700
vt 0.89967500 0.68342100
vt 0.10772500 0.65287300
vt 0.23716000 0.85737900
vt 0.23389900 0.85419300
vt 0.11098600 0.64968800
vt 0.74961000 0.96492850
vt 0.74642850 0.96171980
vt 0.83943000 0.64192300
vt 0.88641900 0.68891200
vt 0.05506500 0.85834740
vt 0.05180400 0.86153290
vt 0.11098600 0.86153290
vt 0.10772500 0.85834740
vt 0.23716000 0.84412310
vt 0.24932600 0.84704740
vt 0.23389900 0.84093710
vt 0.80225180 0.63943200
vt 0.01996400 0.64192300
vt 0.09556000 0.85542310
vt 0.79018430 0.63643200
vt 0.74961070 0.63943200
vt 0.80543400 0.96171960
vt 0.80225240 0.96492850
vt 0.76167830 0.96792750
vt 0.23716000 0.92430800
vt 0.06723000 0.85542330
vt 0.79018430 0.96792730
vt 0.24932600 0.92138300
vt 0.31066600 0.70886270
vt 0.00000000 0.00000000
vt 0.00000000 0.00000000
vt 0.00000000 0.00000000
vt 0.00000000 0.00000000
vt 0.65549300 0.00133200
vt 0.64197200 0.98109640
vt 0.63722400 0.95722660
vt 0.72286840 0.95722660
vt 0.71812020 0.98109640
vt 0.70460000 0.00133200
vt 0.68436400 0.01485300
vt 0.66049420 0.01960100
vt 0.69959800 0.01960100
vt 0.67572900 0.01485300
vt 0.28746500 0.69392730
vt 0.17856200 0.78450400
vt 0.18964000 0.78450400
vt 0.17856200 0.84093710
vt 0.31342400 0.69392730
vt 0.32450100 0.69392730
vt 0.15560500 0.84093710
vt 0.14452800 0.84093710
vt 0.14452800 0.78450400
vt 0.15560500 0.78450400
vt 0.25508500 0.69392730
vt 0.21094300 0.78450400
vt 0.21094300 0.84093710
vt 0.19986700 0.78450400
vt 0.34580400 0.69392730
vt 0.33472800 0.69392730
vt 0.12322300 0.84093710
vt 0.12322300 0.78450400
vt 0.13430200 0.78450400
vt 0.13430200 0.84093710
vt 0.70880100 0.89160600
vt 0.65236830 0.89160600
vt 0.63722400 0.83003200
vt 0.72286840 0.83003200
vt 0.20981500 0.69800600
vt 0.15338300 0.69800600
vt 0.72286840 0.63643200
vt 0.63722400 0.63643200
vt 0.34887300 0.71507050
vt 0.35205400 0.71186170
vt 0.28770900 0.79541900
vt 0.28444900 0.79223300
vt 0.28444900 0.71204840
vt 0.28770900 0.70886270
vt 0.09556000 0.64254200
vt 0.10772500 0.63961800
vt 0.23716000 0.84412310
vt 0.10772500 0.63961800
vt 0.11098600 0.63643200
vt 0.80543140 0.65589700
vt 0.80543400 0.64264100
vt 0.32591600 0.89560400
vt 0.32591300 0.88234800
vt 0.32273300 0.89881300
vt 0.97297530 0.68891200
vt 0.97846590 0.70216700
vt 0.95971970 0.68342100
vt 0.10772500 0.85834740
vt 0.10772500 0.84509190
vt 0.27228200 0.71497270
vt 0.28444900 0.72530440
vt 0.28444900 0.71204840
vt 0.80225240 0.65268700
vt 0.80225180 0.63943200
vt 0.32273300 0.89881300
vt 0.32273300 0.88555700
vt 0.31066600 0.90181200
vt 0.97846590 0.90075680
vt 0.97297530 0.91401240
vt 0.01996400 0.96100120
vt 0.02545500 0.94774530
vt 0.95971970 0.91950320
vt 0.00670800 0.96649190
vt 0.74642850 0.64264100
vt 0.74643120 0.65589700
vt 0.32273300 0.71186170
vt 0.32591300 0.72832630
vt 0.32591600 0.71507050
vt 0.35205400 0.89881300
vt 0.34887300 0.89560400
vt 0.74961000 0.95167300
vt 0.74961000 0.96492850
vt 0.35205400 0.71186170
vt 0.35205400 0.72511730
vt 0.36412200 0.70886270
vt 0.23389900 0.91423800
vt 0.23389900 0.92749300
vt 0.05180400 0.63643200
vt 0.05180400 0.64968800
vt 0.05506500 0.63961800
vt 0.05506500 0.84509190
vt 0.05506500 0.85834740
vt 0.28444900 0.79223300
vt 0.28444900 0.77897700
vt 0.27228200 0.78930800
vt 0.80225240 0.96492850
vt 0.80225240 0.95167280
vt 0.36412200 0.90181200
vt 0.35205400 0.88555700
vt 0.35205400 0.89881300
vt 0.23716000 0.91105100
vt 0.23716000 0.92430800
vt 0.05506500 0.63961800
vt 0.05506500 0.65287300
vt 0.06723000 0.64254200
vt 0.32273300 0.72511730
vt 0.32273300 0.71186170
vt 0.74961070 0.63943200
vt 0.74961000 0.65268700
vt 0.76167830 0.63643200
vt 0.89967500 0.91950320
vt 0.88641900 0.91401240
vt 0.83943000 0.96100120
vt 0.85268610 0.96649190
vt 0.88092800 0.90075680
vt 0.83393990 0.94774530
vt 0.74643120 0.65589700
vt 0.23389900 0.91423800
vt 0.80543140 0.65589700
vt 0.05180400 0.64968800
vt 0.32591300 0.88234800
vt 0.32591300 0.72832630
vt 0.23716000 0.91105100
vt 0.05506500 0.84509190
vt 0.05506500 0.65287300
vt 0.28444900 0.72530440
vt 0.28444900 0.77897700
vt 0.10772500 0.84509190
vt 0.35205400 0.88555700
vt 0.35205400 0.72511730
vt 0.80225240 0.65268700
vt 0.80225240 0.95167280
vt 0.32273300 0.72511730
vt 0.32273300 0.88555700
vt 0.74961000 0.95167300
vt 0.74961000 0.65268700
vt 0.00000000 0.00000000
vt 0.00000000 0.00000000
vt 0.00000000 0.00000000
vt 0.00000000 0.00000000
vt 0.09740900 0.74737700
vt 0.10965000 0.74737700
vt 0.10131800 0.77035300
vt 0.10574000 0.77035300
vt 0.10131800 0.77390100
vt 0.10574000 0.77390100
vt 0.19011700 0.72242400
vt 0.20235800 0.72242400
vt 0.10965000 0.73029500
vt 0.09740900 0.73029500
vt 0.61760300 0.02348400
vt 0.62202500 0.02348400
vt 0.23326000 0.70302900
vt 0.22101900 0.70302900
vt 0.04307700 0.71196800
vt 0.04705000 0.72086000
vt 0.09740900 0.75607000
vt 0.09905300 0.76496100
vt 0.95127200 0.75548100
vt 0.95017300 0.76668200
vt 0.92229400 0.75584200
vt 0.92481300 0.76688100
vt 0.56803900 0.02156600
vt 0.56667900 0.01052900
vt 0.03883100 0.72137000
vt 0.03773800 0.71032200
vt 0.22101900 0.72908400
vt 0.19011700 0.70302900
vt 0.23326000 0.72908400
vt 0.20235800 0.70302900
vt 0.19011700 0.74371000
vt 0.20235800 0.74371000
vt 0.07857500 0.76397100
vt 0.09740900 0.71295900
vt 0.15921400 0.74737700
vt 0.17145500 0.74737700
vt 0.25192200 0.95030300
vt 0.25634400 0.95030300
vt 0.25192200 0.96448000
vt 0.25634400 0.96448000
vt 0.12831100 0.75308800
vt 0.14055200 0.75308800
vt 0.17145500 0.73029500
vt 0.15921400 0.73029500
vt 0.25192200 0.98378800
vt 0.25634400 0.98378800
vt 0.14055200 0.70302900
vt 0.12831100 0.70302900
vt 0.89666800 0.50837300
vt 0.88777700 0.51234500
vt 0.15921400 0.75607000
vt 0.16085800 0.76496100
vt 0.76559900 0.48993400
vt 0.75439700 0.48883400
vt 0.76523700 0.46095600
vt 0.75419900 0.46347500
vt 0.59894200 0.02156600
vt 0.59758200 0.01052900
vt 0.88726800 0.49039700
vt 0.89831500 0.48930500
vt 0.12831100 0.72908400
vt 0.12831100 0.74059300
vt 0.14055200 0.72908400
vt 0.14055200 0.74059300
vt 0.12831100 0.77288000
vt 0.14055200 0.77288000
vt 0.84466600 0.54387100
vt 0.15921400 0.71295900
vt 0.39443600 0.86258300
vt 0.20814800 0.03215000
vt 0.20814800 0.58263800
vt 0.94492400 0.86258300
vt 0.21840000 0.03215000
vt 0.22709100 0.03215000
vt 0.23289900 0.03215000
vt 0.21840000 0.58263800
vt 0.22709100 0.58263800
vt 0.23289900 0.58263800
vt 0.96985100 0.03215000
vt 0.96985100 0.58263800
vt 0.11801100 0.82931400
vt 0.09823500 0.82931400
vt 0.11050100 0.03215000
vt 0.11050100 0.58263800
vt 0.09428700 0.89648000
vt 0.09428700 0.69248100
vt 0.94492400 0.86094100
vt 0.91329600 0.82931400
vt 0.94492400 0.79768600
vt 0.97655100 0.82931400
vt 0.94251600 0.84883800
vt 0.93566100 0.83857700
vt 0.92540000 0.83172100
vt 0.92540000 0.82690600
vt 0.93566100 0.82005000
vt 0.94251600 0.80978900
vt 0.94733100 0.80978900
vt 0.95418800 0.82005000
vt 0.96444800 0.82690600
vt 0.96444800 0.83172100
vt 0.95418800 0.83857700
vt 0.94733100 0.84883800
vt 0.36280800 0.82931400
vt 0.39443600 0.79768600
vt 0.42606400 0.82931400
vt 0.39443600 0.86094100
vt 0.37491200 0.82690600
vt 0.38517300 0.82005000
vt 0.39202900 0.80978900
vt 0.39684300 0.80978900
vt 0.40370000 0.82005000
vt 0.41396000 0.82690600
vt 0.41396000 0.83172100
vt 0.40370000 0.83857700
vt 0.39684300 0.84883800
vt 0.39202900 0.84883800
vt 0.38517300 0.83857700
vt 0.37491200 0.83172100
vt 0.94492400 0.82931400
vt 0.93879500 0.83544300
vt 0.93155600 0.82931400
vt 0.93879500 0.82318500
vt 0.94492400 0.81594700
vt 0.95105300 0.82318500
vt 0.95829200 0.82931400
vt 0.95105300 0.83544300
vt 0.94492400 0.84268200
vt 0.39443600 0.82931400
vt 0.38830800 0.82318500
vt 0.39443600 0.81594700
vt 0.40056500 0.82318500
vt 0.40780400 0.82931400
vt 0.40056500 0.83544300
vt 0.39443600 0.84268200
vt 0.38830800 0.83544300
vt 0.38106900 0.82931400
vt 0.98799700 0.03215000
vt 0.98799700 0.58263800
vt 0.38334600 0.41637300
vt 0.64254020 0.79768600
vt 0.38334600 0.42847600
vt 0.38334600 0.43873700
vt 0.64254020 0.80979000
vt 0.69674020 0.79768600
vt 0.38334600 0.92914000
vt 0.38334600 0.89992000
vt 0.38334600 0.90677600
vt 0.38334600 0.91703700
vt 0.23899000 0.82931400
vt 0.24244700 0.82931400
vt 0.97379800 0.82931400
vt 0.97725500 0.82931400
vt 0.20814800 0.89993600
vt 0.20781000 0.89648000
vt 0.24244700 0.86258300
vt 0.23900700 0.86224500
vt 0.20814800 0.68902500
vt 0.20781000 0.69248100
vt 0.97379800 0.86258300
vt 0.97723800 0.86224500
vt 0.21840000 0.89993600
vt 0.21707800 0.89648000
vt 0.23460100 0.88152600
vt 0.23215700 0.87908100
vt 0.24040800 0.87283500
vt 0.23721500 0.87151200
vt 0.21840000 0.68902500
vt 0.21707800 0.69248100
vt 0.98164500 0.88152600
vt 0.98408800 0.87908100
vt 0.97583700 0.87283500
vt 0.97903100 0.87151200
vt 0.96985100 0.89993600
vt 0.97330800 0.89648000
vt 0.97330800 0.69248100
vt 0.96985100 0.68902500
vt 0.11801100 0.88591500
vt 0.09823500 0.88591500
vt 0.34898600 0.41637300
vt 0.34898600 0.42847600
vt 0.34898600 0.43873700
vt 0.34898600 0.44559300
vt 0.34898600 0.92914000
vt 0.34898600 0.89992000
vt 0.34898600 0.90677600
vt 0.34898600 0.91703700
vt 0.08996600 0.03215000
vt 0.08996600 0.58263800
vt 0.23772900 0.82931400
vt 0.26694900 0.80979000
vt 0.26009300 0.82005000
vt 0.24983300 0.82690600
vt 0.85147200 0.82931400
vt 0.83936900 0.82690600
vt 0.82910800 0.82005000
vt 0.82225200 0.80979000
vt 0.09411400 0.89993600
vt 0.09411400 0.68902500
vt 0.68643450 0.01664600
vt 0.09342300 0.03215000
vt 0.70264820 0.99712200
vt 0.09342300 0.58263800
vt 0.68297740 0.86941600
vt 0.70610570 0.84989200
vt 0.70264820 0.84989200
vt 0.68643450 0.86941500
vt 0.64254020 0.71906900
vt 0.66068740 0.71906900
vt 0.67859340 0.71906900
vt 0.69674020 0.71906900
vt 0.97379800 0.71906900
vt 0.97725500 0.71906900
vt 0.23899000 0.71906900
vt 0.24244800 0.71906900
vt 0.11801100 0.71906900
vt 0.09823500 0.71906900
vt 0.16297000 0.71906900
vt 0.95205800 0.71906900
vt 0.34542500 0.43873700
vt 0.34542500 0.44559300
vt 0.34542500 0.42847600
vt 0.34542500 0.41637300
vt 0.34542500 0.92914000
vt 0.34542500 0.91703700
vt 0.34542500 0.90677600
vt 0.34542500 0.89992000
vt 0.70620920 0.99712200
vt 0.68287440 0.01664500
vt 0.68643360 0.93802900
vt 0.68297740 0.93811500
vt 0.70264940 0.91850500
vt 0.70610570 0.91859100
vt 0.00954900 0.03819900
vt 0.06841400 0.03819900
vt 0.06841400 0.57658900
vt 0.00954900 0.57658900
vt 0.01093200 0.03958200
vt 0.06703200 0.03958200
vt 0.06703200 0.57520600
vt 0.01093200 0.57520600
vt 0.20678400 0.71906900
vt 0.20678400 0.82931400
vt 0.90383100 0.71906900
vt 0.90383100 0.82931400
vt 0.90383100 0.62090280
vt 0.20678400 0.62090280
vt 0.11050100 0.89993600
vt 0.95205800 0.82931400
vt 0.11050100 0.68902500
vt 0.16297000 0.82931400
vt 0.58611700 0.90766700
vt 0.58611700 0.43922900
vt 0.59898100 0.90766700
vt 0.61969700 0.93769100
vt 0.59898100 0.43922900
vt 0.61969700 0.40920500
vt 0.65798000 0.46099100
vt 0.61812100 0.42069500
vt 0.61363000 0.43043500
vt 0.60690900 0.43694400
vt 0.61812100 0.92620100
vt 0.61363000 0.91646100
vt 0.60690900 0.90995300
vt 0.63369700 0.15048000
vt 0.62764400 0.02122700
vt 0.62764400 0.32566900
vt 0.63369700 0.19641600
vt 0.63217800 0.08535600
vt 0.63217800 0.26154000
vt 0.64421600 0.57205200
vt 0.58611700 0.44697600
vt 0.64417000 0.46101500
vt 0.65817400 0.57202800
vt 0.62739500 0.93679800
vt 0.60007600 0.44697600
vt 0.62739500 0.41009800
vt 0.62563900 0.42289100
vt 0.62006000 0.43499300
vt 0.61091100 0.44385200
vt 0.62563900 0.92400500
vt 0.62006000 0.91190300
vt 0.61091100 0.90304300
vt 0.64144400 0.15038900
vt 0.63536600 0.02059000
vt 0.63536600 0.32630600
vt 0.64144400 0.19650700
vt 0.63991900 0.08499400
vt 0.63991900 0.26190300
vt 0.19622500 0.89992000
vt 0.19622500 0.43155100
vt 0.20909000 0.89995500
vt 0.22998300 0.92995400
vt 0.20909000 0.43151600
vt 0.22998300 0.40151700
vt 0.22822900 0.41298200
vt 0.22373800 0.42272200
vt 0.21701700 0.42923100
vt 0.22822900 0.91848900
vt 0.22373800 0.90874800
vt 0.21701700 0.90224000
vt 0.24376500 0.14276200
vt 0.23774100 0.01347800
vt 0.23774100 0.31799300
vt 0.24376500 0.18870900
vt 0.19624500 0.01269300
vt 0.19623800 0.14276200
vt 0.19623800 0.18870800
vt 0.19624500 0.31877800
vt 0.24225300 0.07762200
vt 0.24225300 0.25384900
vt 0.19624000 0.07742700
vt 0.19624000 0.25404400
vt 0.42692800 0.19617400
vt 0.42746100 0.26199500
vt 0.42800100 0.32767100
vt 0.42868300 0.40975000
vt 0.42875500 0.42256900
vt 0.42879900 0.43471500
vt 0.42878400 0.44364700
vt 0.42655700 0.15005600
vt 0.42603100 0.08423400
vt 0.42551700 0.01855900
vt 0.42487700 0.93648000
vt 0.42474200 0.92371400
vt 0.42459300 0.91165700
vt 0.42443500 0.90287200
vt 0.30153600 0.48103600
vt 0.30153200 0.46824300
vt 0.67796400 0.46095600
vt 0.66881500 0.46097200
vt 0.30171000 0.56312100
vt 0.30181600 0.62880000
vt 0.30185000 0.69462600
vt 0.30185000 0.74074600
vt 0.30181600 0.80657300
vt 0.30171000 0.87225200
vt 0.71595200 0.46102000
vt 0.30153600 0.95433600
vt 0.30153200 0.96712900
vt 0.69586900 0.46095600
vt 0.70501800 0.46097200
vt 0.44078200 0.19617400
vt 0.44131500 0.26199500
vt 0.44185600 0.32767100
vt 0.44253700 0.40975000
vt 0.44260900 0.42256900
vt 0.44265300 0.43471500
vt 0.44263800 0.44364700
vt 0.44041100 0.15005600
vt 0.43988500 0.08423400
vt 0.43936900 0.01855900
vt 0.43873100 0.93648000
vt 0.43859700 0.92371400
vt 0.43844600 0.91165700
vt 0.43828900 0.90287200
vt 0.72973400 0.46101700
vt 0.42040800 0.26919100
vt 0.42089100 0.32772900
vt 0.42151200 0.40272500
vt 0.41886500 0.07721300
vt 0.41840500 0.01861500
vt 0.41782100 0.94367900
vt 0.40666600 0.94381900
vt 0.40666700 0.01888300
vt 0.40666700 0.07736400
vt 0.40666700 0.26935800
vt 0.40666700 0.32801300
vt 0.40666600 0.40290300
vt 0.46734500 0.45752400
vt 0.46782800 0.51605900
vt 0.46845300 0.59105200
vt 0.50185400 0.59105200
vt 0.50139500 0.53245700
vt 0.50081200 0.45752400
vt 0.48965800 0.45766400
vt 0.48965700 0.53272500
vt 0.48965700 0.59120300
vt 0.45360400 0.45769000
vt 0.45360500 0.51634300
vt 0.45360500 0.59122900
vt 0.96334600 0.74737700
vt 0.97469500 0.73029500
vt 0.96096500 0.72431500
vt 0.96220000 0.74371000
vt 0.61760300 0.00417600
vt 0.62202500 0.00417600
vt 0.10965000 0.75607000
vt 0.10800600 0.76496100
vt 0.95949200 0.75607000
vt 0.95551900 0.76496100
vt 0.55579700 0.02156600
vt 0.55715700 0.01052900
vt 0.00985100 0.72108700
vt 0.01237100 0.71004900
vt 0.55579700 0.02885800
vt 0.56803900 0.02885800
vt 0.95069100 0.74590000
vt 0.01219300 0.72837900
vt 0.03824800 0.73103000
vt 0.95015300 0.77390100
vt 0.95060100 0.77035300
vt 0.93084500 0.77323300
vt 0.55970700 0.00417600
vt 0.56412900 0.00417600
vt 0.03771000 0.70302900
vt 0.01840300 0.70369700
vt 0.03815900 0.70657700
vt 0.92463500 0.74855100
vt 0.05090400 0.72955300
vt 0.04975700 0.73322000
vt 0.04852300 0.75261500
vt 0.06225200 0.74663500
vt 0.22101900 0.74059300
vt 0.23326000 0.74059300
vt 0.06831400 0.77390100
vt 0.10965000 0.71295900
vt 0.99101800 0.71295900
vt 0.98075700 0.70302900
vt 0.10965000 0.70302900
vt 0.09740900 0.70302900
vt 0.09740900 0.71295900
vt 0.10965000 0.71295900
vt 0.77370300 0.51573800
vt 0.79078500 0.52708600
vt 0.79676500 0.51335600
vt 0.77737000 0.50086100
vt 0.17145500 0.75607000
vt 0.16981100 0.76496100
vt 0.76501000 0.51188300
vt 0.75611800 0.50791000
vt 0.58670000 0.02156600
vt 0.58806000 0.01052900
vt 0.88755000 0.46141800
vt 0.89858800 0.46393700
vt 0.58670000 0.02885800
vt 0.59894200 0.02885800
vt 0.77518000 0.48935300
vt 0.88025800 0.46375900
vt 0.87760700 0.48981500
vt 0.16312300 0.77035300
vt 0.16754600 0.77035300
vt 0.74717900 0.48881500
vt 0.75072600 0.50299200
vt 0.74784600 0.46950700
vt 0.59061000 0.00417600
vt 0.59503200 0.00417600
vt 0.90560800 0.48927700
vt 0.90494100 0.46997000
vt 0.90206000 0.50345400
vt 0.77252900 0.46329700
vt 0.87908400 0.51620000
vt 0.87541700 0.50132400
vt 0.85602200 0.51381900
vt 0.86200200 0.52754800
vt 0.83473600 0.53361000
vt 0.17145500 0.71295900
vt 0.80812000 0.54340900
vt 0.81805100 0.53314800
vt 0.17145500 0.70302900
vt 0.15921400 0.70302900
vt 0.15921400 0.71295900
vt 0.17145500 0.71295900
vt 0.94492400 0.87283500
vt 0.39443600 0.87283500
vt 0.66068700 0.79768600
vt 0.66068700 0.80978900
vt 0.36520000 0.44559300
vt 0.38334600 0.44559300
vt 0.36520000 0.43873700
vt 0.36520000 0.42847600
vt 0.36520000 0.41637300
vt 0.36520000 0.92914000
vt 0.36520000 0.91703700
vt 0.36520000 0.90677600
vt 0.36520000 0.89992000
vt 0.67859360 0.80978900
vt 0.69674020 0.80979000
vt 0.67859360 0.79768700
vt 0.22464800 0.69248100
vt 0.22709100 0.68902500
vt 0.22709100 0.89993600
vt 0.22464800 0.89648000
vt 0.20814800 0.89993600
vt 0.21840000 0.89993600
vt 0.22709100 0.89993600
vt 0.23289900 0.89993600
vt 0.26222300 0.87283500
vt 0.26222300 0.86258300
vt 0.20814800 0.68902500
vt 0.21840000 0.68902500
vt 0.22709100 0.68902500
vt 0.23289900 0.68902500
vt 0.05131080 0.87283500
vt 0.05131080 0.86258300
vt 0.23899000 0.82931400
vt 0.21532000 0.88593200
vt 0.22458800 0.88413900
vt 0.23215700 0.87908100
vt 0.23721500 0.87151200
vt 0.23900700 0.86224500
vt 0.00092600 0.88593200
vt 0.97725500 0.82931400
vt 0.99165800 0.88413900
vt 0.98408800 0.87908100
vt 0.97903100 0.87151200
vt 0.97723800 0.86224500
vt 0.05131080 0.82931400
vt 0.26222300 0.82931400
vt 0.70610450 0.82033800
vt 0.70264820 0.82033800
vt 0.68643450 0.83986200
vt 0.68297820 0.83986200
vt 0.23899000 0.71906900
vt 0.97725500 0.71906900
vt 0.05131080 0.71906900
vt 0.94492400 0.71906900
vt 0.39443600 0.71906900
vt 0.26222300 0.71906900
vt 0.25997900 0.43873700
vt 0.25997900 0.44559300
vt 0.25997900 0.42847600
vt 0.25997900 0.41637300
vt 0.25997900 0.92914000
vt 0.25997900 0.91703700
vt 0.25997900 0.90677600
vt 0.25997900 0.89992000
vt 0.79165550 0.00922500
vt 0.79165550 0.99712100
vt 0.70620920 0.00922500
vt 0.70264820 0.00922500
vt 0.59742780 0.01664500
vt 0.59742780 0.02874900
vt 0.68287440 0.02874900
vt 0.68643450 0.02874900
vt 0.79165410 0.91850500
vt 0.59742880 0.93802900
vt 0.85767300 0.45040800
vt 0.85767300 0.89992000
vt 0.77212400 0.89992000
vt 0.77212400 0.45040800
vt 0.69674020 0.62090280
vt 0.67859360 0.62090180
vt 0.66068700 0.62090180
vt 0.64254020 0.62090280
vt 0.97725600 0.62090280
vt 0.97379800 0.62090180
vt 0.05131080 0.62090180
vt 0.94492400 0.62090180
vt 0.23899000 0.62090280
vt 0.11801000 0.62090180
vt 0.09823500 0.62090180
vt 0.97725600 0.62090280
vt 0.39443600 0.62090180
vt 0.26222300 0.62090180
vt 0.95551500 0.71906900
vt 0.95551500 0.62090180
vt 0.95205800 0.62090280
vt 0.16297000 0.62090280
vt 0.15951300 0.62090180
vt 0.15951300 0.71906900
vt 0.24244700 0.62090180
vt 0.23899000 0.62090280
vt 0.72635700 0.45040800
vt 0.75591100 0.45040800
vt 0.75591100 0.89992000
vt 0.72635700 0.89992000
vt 0.65765800 0.45040800
vt 0.65765800 0.89992000
vt 0.00954900 0.57658900
vt 0.00954900 0.03819900
vt 0.00954900 0.03819900
vt 0.01093200 0.03958200
vt 0.06841400 0.03819900
vt 0.06841400 0.03819900
vt 0.06703200 0.03958200
vt 0.06841400 0.57658900
vt 0.06841400 0.57658900
vt 0.06703200 0.57520600
vt 0.01093200 0.57520600
vt 0.00954900 0.57658900
vt 0.01093200 0.03958200
vt 0.01093200 0.57520600
vt 0.06703200 0.57520600
vt 0.06703200 0.03958200
vt 0.26935700 0.71906970
vt 0.26935700 0.79768700
vt 0.81984500 0.71906970
vt 0.81984500 0.79768700
vt 0.81984500 0.62090180
vt 0.81984500 0.65045600
vt 0.26935700 0.65045600
vt 0.26935700 0.62090180
vt 0.11050100 0.69248100
vt 0.11050100 0.89648000
vt 0.11050100 0.89993600
vt 0.11050100 0.68902500
vt 0.15951300 0.82931400
vt 0.95551500 0.82931400
vt 0.95205800 0.88937200
vt 0.95551500 0.88591500
vt 0.78821700 0.82931400
vt 0.30098400 0.82931400
vt 0.16297000 0.88937200
vt 0.81984500 0.88937200
vt 0.26935700 0.88937200
vt 0.27176400 0.80979000
vt 0.27862000 0.82005000
vt 0.28888100 0.82690700
vt 0.81743700 0.80979000
vt 0.81058100 0.82005000
vt 0.80032000 0.82690700
vt 0.15951300 0.88591500
vt 0.60007600 0.89992000
vt 0.58611700 0.89992000
vt 0.49399200 0.03168900
vt 0.50628100 0.03171000
vt 0.50630400 0.01884600
vt 0.49401400 0.01882500
vt 0.50631700 0.01091900
vt 0.49402800 0.01089800
vt 0.49402800 0.01089800
vt 0.50631700 0.01091900
vt 0.50632800 0.00419800
vt 0.49404000 0.00417600
vt 0.35066500 0.97011500
vt 0.36295300 0.97011500
vt 0.36296100 0.96037400
vt 0.35067300 0.96037400
vt 0.36299800 0.94891000
vt 0.35067500 0.94888500
vt 0.35849000 0.86538600
vt 0.33308800 0.86534800
vt 0.35593700 0.80124100
vt 0.32305400 0.80122000
vt 0.35508200 0.73610200
vt 0.31969200 0.73609600
vt 0.35508200 0.69015400
vt 0.31969200 0.69015900
vt 0.35593700 0.62501500
vt 0.32305400 0.62503600
vt 0.35849000 0.56087000
vt 0.33308800 0.56090700
vt 0.36299800 0.47734600
vt 0.35067500 0.47737100
vt 0.36296100 0.46588100
vt 0.35067300 0.46588100
vt 0.36295300 0.45614100
vt 0.35066500 0.45614100
vt 0.52494300 0.03171000
vt 0.53723100 0.03168900
vt 0.53722000 0.02496700
vt 0.52493000 0.02498900
vt 0.52493000 0.02498900
vt 0.53722000 0.02496700
vt 0.53720600 0.01704000
vt 0.52491700 0.01706100
vt 0.53718400 0.00417600
vt 0.52489500 0.00419700
vt 0.15951300 0.74074500
vt 0.16287700 0.80614100
vt 0.17291100 0.87054400
vt 0.16287700 0.62923200
vt 0.15951300 0.69462800
vt 0.17291100 0.56482800
vt 0.19049700 0.95433600
vt 0.19049700 0.48103600
vt 0.66901000 0.57200900
vt 0.67815800 0.57199300
vt 0.30152200 0.45614100
vt 0.19048500 0.45614100
vt 0.19049400 0.46824300
vt 0.71565900 0.57202800
vt 0.70482300 0.57200900
vt 0.69567400 0.57199300
vt 0.19049400 0.96712900
vt 0.19048500 0.97923200
vt 0.30152200 0.97923200
vt 0.39955900 0.19650800
vt 0.39955900 0.26233500
vt 0.39955900 0.41009800
vt 0.40284500 0.42289100
vt 0.40842500 0.43499300
vt 0.41757400 0.44385200
vt 0.42850900 0.44693600
vt 0.39955900 0.15038800
vt 0.39955900 0.08456200
vt 0.40284500 0.92400500
vt 0.39955900 0.93679800
vt 0.40842500 0.91190300
vt 0.41757400 0.90304300
vt 0.72961700 0.57205200
vt 0.44229100 0.44695600
vt 0.42840800 0.89992000
vt 0.44221900 0.89992000
vt 0.39955900 0.32801300
vt 0.39955900 0.01888200
vt 0.53347600 0.51602600
vt 0.52071800 0.51600200
vt 0.52055900 0.59106300
vt 0.53331800 0.59109000
vt 0.83925500 0.00417600
vt 0.83907200 0.01693500
vt 0.85022600 0.01709700
vt 0.85041100 0.00433700
vt 0.59512400 0.45752400
vt 0.58236500 0.45755100
vt 0.58251300 0.53248400
vt 0.59527300 0.53246000
vt 0.58260000 0.59107900
vt 0.59535800 0.59105900
vt 0.80816900 0.00435400
vt 0.80835600 0.01711300
vt 0.82055300 0.01693500
vt 0.82036700 0.00417600
vt 0.53356900 0.45754500
vt 0.52081100 0.45752400
vt 0.70761800 0.00417600
vt 0.69486000 0.00435600
vt 0.69506900 0.01920300
vt 0.70782800 0.01902200
vt 0.56422100 0.45752400
vt 0.55146200 0.45755100
vt 0.55161900 0.53243700
vt 0.56437800 0.53241300
vt 0.55171200 0.59108900
vt 0.56447000 0.59106900
vt 0.73871900 0.00435900
vt 0.72596000 0.00417600
vt 0.72576200 0.01791700
vt 0.73852100 0.01810100
vt 0.62628700 0.45754400
vt 0.61352800 0.45752400
vt 0.61343000 0.51605900
vt 0.62618900 0.51608200
vt 0.61326700 0.59105200
vt 0.62602600 0.59107800
vt 0.56990100 0.89994000
vt 0.45886600 0.89992000
vt 0.56973700 0.90324900
vt 0.45886600 0.90766700
vt 0.47115500 0.90763200
vt 0.56965100 0.91218100
vt 0.46612400 0.02040500
vt 0.56959900 0.92432700
vt 0.56956800 0.93714600
vt 0.56974500 0.01922500
vt 0.56985300 0.08490000
vt 0.46396800 0.08513900
vt 0.56989300 0.15072200
vt 0.46324800 0.15047500
vt 0.56990300 0.44697600
vt 0.56978600 0.44402300
vt 0.45886600 0.44697600
vt 0.45886600 0.43922900
vt 0.47115500 0.43926300
vt 0.56969800 0.43523800
vt 0.46324800 0.19642100
vt 0.56989700 0.19683900
vt 0.46396800 0.26175600
vt 0.56987000 0.26266100
vt 0.46612400 0.32649000
vt 0.56977300 0.32833600
vt 0.56964300 0.42318200
vt 0.56961100 0.41041600
f 4/4 2/2 1/1
f 3/3 4/4 1/1
f 7/7 5/5 6/6
f 8/8 7/7 6/6
f 11/11 10/10 9/9
f 12/12 11/11 9/9
f 15/15 14/14 13/13
f 16/16 15/15 13/13
f 19/19 18/18 17/17
f 20/20 19/19 17/17
f 23/23 22/22 21/21
f 24/24 23/23 21/21
f 83/83 82/82 81/81
f 84/84 83/83 81/81
f 29/29 36/36 35/35
f 57/57 64/64 63/63
f 25/25 26/26 32/32
f 26/26 33/33 32/32
f 26/26 27/27 33/33
f 27/27 34/34 33/33
f 27/27 28/28 34/34
f 28/28 35/35 34/34
f 28/28 29/29 35/35
f 86/86 30/30 85/85
f 30/30 37/37 85/85
f 30/30 31/31 37/37
f 31/31 38/38 37/37
f 47/47 46/46 87/87
f 88/88 47/47 87/87
f 48/48 47/47 88/88
f 89/89 48/48 88/88
f 49/49 48/48 89/89
f 90/90 49/49 89/89
f 50/50 49/49 90/90
f 91/91 50/50 90/90
f 51/51 50/50 91/91
f 92/92 51/51 91/91
f 52/52 51/51 92/92
f 93/93 52/52 92/92
f 95/95 39/39 94/94
f 39/39 40/40 94/94
f 94/94 40/40 100/100
f 40/40 41/41 100/100
f 100/100 41/41 99/99
f 41/41 42/42 99/99
f 99/99 42/42 98/98
f 42/42 43/43 98/98
f 98/98 43/43 97/97
f 43/43 44/44 97/97
f 97/97 44/44 96/96
f 44/44 45/45 96/96
f 103/103 102/102 101/101
f 104/104 103/103 101/101
f 107/107 106/106 105/105
f 108/108 107/107 105/105
f 109/109 107/107 108/108
f 110/110 109/109 108/108
f 111/111 109/109 110/110
f 112/112 111/111 110/110
f 113/113 111/111 112/112
f 114/114 113/113 112/112
f 117/117 116/116 115/115
f 118/118 117/117 115/115
f 119/119 117/117 118/118
f 120/120 119/119 118/118
f 123/123 122/122 121/121
f 124/124 123/123 121/121
f 53/53 54/54 60/60
f 54/54 61/61 60/60
f 54/54 55/55 61/61
f 55/55 62/62 61/61
f 55/55 56/56 62/62
f 56/56 63/63 62/62
f 56/56 57/57 63/63
f 126/126 58/58 125/125
f 58/58 65/65 125/125
f 58/58 59/59 65/65
f 59/59 66/66 65/65
f 75/75 74/74 127/127
f 128/128 75/75 127/127
f 76/76 75/75 128/128
f 129/129 76/76 128/128
f 77/77 76/76 129/129
f 130/130 77/77 129/129
f 78/78 77/77 130/130
f 131/131 78/78 130/130
f 79/79 78/78 131/131
f 132/132 79/79 131/131
f 80/80 79/79 132/132
f 133/133 80/80 132/132
f 135/135 67/67 134/134
f 67/67 68/68 134/134
f 134/134 68/68 140/140
f 68/68 69/69 140/140
f 140/140 69/69 139/139
f 69/69 70/70 139/139
f 139/139 70/70 138/138
f 70/70 71/71 138/138
f 138/138 71/71 137/137
f 71/71 72/72 137/137
f 137/137 72/72 136/136
f 72/72 73/73 136/136
f 143/143 142/142 141/141
f 144/144 143/143 141/141
f 147/147 146/146 145/145
f 148/148 147/147 145/145
f 149/149 147/147 148/148
f 150/150 149/149 148/148
f 151/151 149/149 150/150
f 152/152 151/151 150/150
f 153/153 151/151 152/152
f 154/154 153/153 152/152
f 157/157 156/156 155/155
f 158/158 157/157 155/155
f 159/159 157/157 158/158
f 160/160 159/159 158/158
f 163/163 162/162 161/161
f 164/164 163/163 161/161
f 271/271 270/270 269/269
f 272/272 271/271 269/269
f 249/249 250/250 236/236
f 236/236 392/392 363/363
f 233/233 249/249 236/236
f 232/232 229/229 315/315
f 232/232 235/235 333/333
f 235/235 366/366 333/333
f 234/234 235/235 313/313
f 314/314 234/234 313/313
f 316/316 232/232 315/315
f 256/256 323/323 322/322
f 221/221 256/256 322/322
f 349/349 217/217 348/348
f 350/350 349/349 348/348
f 261/261 262/262 226/226
f 227/227 261/261 226/226
f 264/264 359/359 358/358
f 237/237 264/264 358/358
f 238/238 361/361 360/360
f 362/362 238/238 360/360
f 386/386 385/385 383/383
f 392/392 376/376 363/363
f 283/283 171/171 166/166
f 171/171 170/170 166/166
f 188/188 170/170 171/171
f 189/189 188/188 171/171
f 188/188 189/189 184/184
f 189/189 293/293 184/184
f 286/286 172/172 284/284
f 172/172 285/285 284/284
f 296/296 285/285 172/172
f 190/190 296/296 172/172
f 296/296 190/190 294/294
f 190/190 295/295 294/294
f 165/165 169/169 287/287
f 169/169 288/288 287/287
f 298/298 288/288 169/169
f 187/187 298/298 169/169
f 298/298 187/187 297/297
f 187/187 183/183 297/297
f 292/292 291/291 289/289
f 291/291 290/290 289/289
f 302/302 290/290 291/291
f 301/301 302/302 291/291
f 302/302 301/301 299/299
f 301/301 300/300 299/299
f 193/193 195/195 178/178
f 178/178 308/308 193/193
f 193/193 308/308 194/194
f 178/178 186/186 308/308
f 308/308 307/307 194/194
f 196/196 194/194 307/307
f 307/307 174/174 196/196
f 186/186 178/178 180/180
f 307/307 185/185 174/174
f 186/186 180/180 181/181
f 185/185 177/177 174/174
f 186/186 181/181 182/182
f 186/186 182/182 179/179
f 186/186 179/179 173/173
f 185/185 186/186 173/173
f 185/185 176/176 177/177
f 185/185 173/173 175/175
f 185/185 175/175 176/176
f 245/245 246/246 216/216
f 213/213 245/245 216/216
f 214/214 215/215 311/311
f 312/312 214/214 311/311
f 251/251 252/252 230/230
f 231/231 251/251 230/230
f 231/231 331/331 241/241
f 244/244 231/231 241/241
f 253/253 254/254 211/211
f 242/242 253/253 211/211
f 242/242 211/211 395/395
f 211/211 210/210 395/395
f 210/210 267/267 373/373
f 267/267 374/374 373/373
f 318/318 241/241 317/317
f 241/241 212/212 317/317
f 205/205 212/212 241/241
f 400/400 205/205 241/241
f 330/330 258/258 205/205
f 331/331 330/330 205/205
f 255/255 319/319 242/242
f 243/243 255/255 242/242
f 244/244 241/241 320/320
f 321/321 244/244 320/320
f 222/222 325/325 324/324
f 326/326 222/222 324/324
f 334/334 333/333 332/332
f 333/333 206/206 332/332
f 207/207 206/206 398/398
f 399/399 207/207 398/398
f 259/259 336/336 335/335
f 202/202 259/259 335/335
f 203/203 202/202 403/403
f 404/404 203/203 403/403
f 368/368 266/266 203/203
f 369/369 368/368 203/203
f 201/201 338/338 337/337
f 339/339 201/201 337/337
f 406/406 201/201 405/405
f 201/201 200/200 405/405
f 200/200 268/268 378/378
f 268/268 379/379 378/378
f 346/346 260/260 218/218
f 347/347 346/346 218/218
f 228/228 225/225 351/351
f 352/352 228/228 351/351
f 228/228 215/215 371/371
f 215/215 356/356 371/371
f 263/263 354/354 353/353
f 198/198 263/263 353/353
f 199/199 198/198 407/407
f 408/408 199/199 407/407
f 199/199 381/381 380/380
f 382/382 199/199 380/380
f 197/197 356/356 355/355
f 357/357 197/197 355/355
f 402/402 197/197 401/401
f 197/197 204/204 401/401
f 371/371 204/204 370/370
f 372/372 371/371 370/370
f 265/265 364/364 363/363
f 208/208 265/265 363/363
f 209/209 208/208 396/396
f 397/397 209/209 396/396
f 209/209 376/376 375/375
f 377/377 209/209 375/375
f 207/207 366/366 365/365
f 367/367 207/207 365/365
f 389/389 381/381 353/353
f 216/216 389/389 353/353
f 243/243 242/242 373/373
f 390/390 243/243 373/373
f 227/227 369/369 335/335
f 391/391 227/227 335/335
f 393/393 338/338 378/378
f 394/394 393/393 378/378
f 345/345 386/386 383/383
f 344/344 345/345 383/383
f 345/345 344/344 341/341
f 342/342 345/345 341/341
f 342/342 341/341 340/340
f 343/343 342/342 340/340
f 219/219 343/343 340/340
f 328/328 219/219 340/340
f 328/328 327/327 219/219
f 327/327 257/257 219/219
f 327/327 329/329 257/257
f 329/329 220/220 257/257
f 223/223 220/220 329/329
f 240/240 223/223 329/329
f 223/223 240/240 248/248
f 247/247 223/223 248/248
f 247/247 248/248 239/239
f 224/224 247/247 239/239
f 388/388 224/224 239/239
f 387/387 388/388 239/239
f 388/388 387/387 384/384
f 385/385 388/388 384/384
f 385/385 384/384 383/383
f 274/274 168/168 273/273
f 273/273 168/168 282/282
f 282/282 168/168 281/281
f 275/275 168/168 274/274
f 281/281 168/168 280/280
f 303/303 168/168 275/275
f 168/168 167/167 280/280
f 280/280 167/167 279/279
f 279/279 167/167 278/278
f 278/278 167/167 277/277
f 277/277 167/167 276/276
f 303/303 275/275 305/305
f 276/276 167/167 304/304
f 305/305 192/192 303/303
f 304/304 303/303 192/192
f 305/305 310/310 192/192
f 310/310 309/309 192/192
f 276/276 304/304 191/191
f 191/191 304/304 192/192
f 309/309 191/191 192/192
f 191/191 306/306 276/276
f 309/309 306/306 191/191
f 412/412 411/411 409/409
f 410/410 412/412 409/409
f 802/802 813/813 812/812
f 817/817 819/819 427/427
f 582/582 581/581 584/584
f 567/567 577/577 578/578
f 599/599 549/549 491/491
f 1011/1011 1016/1016 1015/1015
f 1016/1016 1017/1017 1015/1015
f 418/418 417/417 415/415
f 416/416 418/418 415/415
f 416/416 415/415 430/430
f 800/800 416/416 430/430
f 800/800 430/430 799/799
f 430/430 429/429 799/799
f 799/799 429/429 413/413
f 414/414 799/799 413/413
f 413/413 422/422 414/414
f 422/422 421/421 414/414
f 422/422 446/446 421/421
f 446/446 828/828 421/421
f 442/442 420/420 440/440
f 420/420 419/419 440/440
f 420/420 444/444 419/419
f 444/444 443/443 419/419
f 424/424 423/423 797/797
f 798/798 424/424 797/797
f 426/426 425/425 441/441
f 439/439 426/426 441/441
f 439/439 441/441 825/825
f 441/441 826/826 825/825
f 804/804 436/436 803/803
f 436/436 435/435 803/803
f 435/435 808/808 803/803
f 808/808 807/807 803/803
f 812/812 814/814 434/434
f 432/432 812/812 434/434
f 432/432 802/802 812/812
f 802/802 432/432 801/801
f 432/432 434/434 431/431
f 432/432 431/431 801/801
f 434/434 433/433 431/431
f 793/793 801/801 431/431
f 431/431 433/433 809/809
f 809/809 793/793 431/431
f 433/433 820/820 809/809
f 796/796 793/793 809/809
f 796/796 795/795 793/793
f 795/795 794/794 793/793
f 795/795 830/830 794/794
f 830/830 829/829 794/794
f 436/436 804/804 815/815
f 816/816 436/436 815/815
f 806/806 818/818 817/817
f 438/438 806/806 817/817
f 438/438 817/817 427/427
f 806/806 438/438 805/805
f 437/437 438/438 427/427
f 438/438 437/437 805/805
f 428/428 437/437 427/427
f 810/810 805/805 437/437
f 811/811 810/810 437/437
f 437/437 428/428 821/821
f 811/811 437/437 821/821
f 821/821 822/822 811/811
f 821/821 824/824 822/822
f 824/824 823/823 822/822
f 824/824 445/445 823/823
f 445/445 827/827 823/823
f 833/833 832/832 831/831
f 834/834 833/833 831/831
f 450/450 452/452 449/449
f 452/452 451/451 449/449
f 452/452 458/458 451/451
f 458/458 457/457 451/451
f 460/460 459/459 475/475
f 473/473 460/460 475/475
f 473/473 475/475 474/474
f 475/475 476/476 474/474
f 476/476 454/454 474/474
f 454/454 453/453 474/474
f 454/454 478/478 453/453
f 478/478 477/477 453/453
f 848/848 847/847 843/843
f 469/469 848/848 843/843
f 470/470 469/469 843/843
f 844/844 470/470 843/843
f 470/470 844/844 857/857
f 858/858 470/470 857/857
f 853/853 852/852 464/464
f 840/840 853/853 464/464
f 840/840 464/464 839/839
f 464/464 463/463 839/839
f 839/839 463/463 447/447
f 448/448 839/839 447/447
f 447/447 456/456 448/448
f 456/456 455/455 448/448
f 456/456 480/480 455/455
f 480/480 868/868 455/455
f 842/842 855/855 854/854
f 466/466 842/842 854/854
f 842/842 466/466 841/841
f 466/466 854/854 468/468
f 854/854 856/856 468/468
f 466/466 465/465 841/841
f 466/466 468/468 465/465
f 468/468 467/467 465/465
f 835/835 841/841 465/465
f 465/465 467/467 849/849
f 849/849 835/835 465/465
f 467/467 862/862 849/849
f 838/838 835/835 849/849
f 838/838 837/837 835/835
f 837/837 836/836 835/835
f 837/837 870/870 836/836
f 870/870 869/869 836/836
f 846/846 860/860 859/859
f 472/472 846/846 859/859
f 846/846 472/472 845/845
f 472/472 859/859 461/461
f 859/859 861/861 461/461
f 472/472 471/471 845/845
f 471/471 472/472 461/461
f 850/850 845/845 471/471
f 462/462 471/471 461/461
f 851/851 850/850 471/471
f 471/471 462/462 863/863
f 851/851 471/471 863/863
f 863/863 864/864 851/851
f 863/863 866/866 864/864
f 866/866 865/865 864/864
f 866/866 479/479 865/865
f 479/479 867/867 865/865
f 873/873 872/872 871/871
f 874/874 873/873 871/871
f 878/878 555/555 877/877
f 555/555 552/552 877/877
f 552/552 619/619 877/877
f 619/619 620/620 877/877
f 619/619 956/956 620/620
f 956/956 955/955 620/620
f 554/554 880/880 879/879
f 881/881 554/554 879/879
f 553/553 554/554 881/881
f 882/882 553/553 881/881
f 551/551 553/553 882/882
f 883/883 551/551 882/882
f 557/557 551/551 883/883
f 884/884 557/557 883/883
f 560/560 557/557 884/884
f 885/885 560/560 884/884
f 559/559 560/560 885/885
f 886/886 559/559 885/885
f 558/558 559/559 886/886
f 887/887 558/558 886/886
f 556/556 889/889 888/888
f 890/890 556/556 888/888
f 890/890 621/621 556/556
f 621/621 622/622 556/556
f 621/621 954/954 622/622
f 954/954 953/953 622/622
f 581/581 583/583 584/584
f 584/584 583/583 572/572
f 583/583 571/571 572/572
f 572/572 571/571 564/564
f 571/571 563/563 564/564
f 563/563 623/623 564/564
f 623/623 624/624 564/564
f 623/623 958/958 624/624
f 958/958 957/957 624/624
f 577/577 575/575 576/576
f 578/578 577/577 576/576
f 579/579 892/892 891/891
f 580/580 579/579 891/891
f 569/569 579/579 580/580
f 570/570 569/569 580/580
f 569/569 570/570 661/661
f 570/570 1005/1005 661/661
f 894/894 893/893 574/574
f 893/893 573/573 574/574
f 574/574 573/573 566/566
f 573/573 565/565 566/566
f 566/566 565/565 1006/1006
f 565/565 659/659 1006/1006
f 568/568 567/567 578/578
f 562/562 567/567 568/568
f 561/561 562/562 568/568
f 561/561 625/625 562/562
f 625/625 626/626 562/562
f 625/625 974/974 626/626
f 974/974 973/973 626/626
f 897/897 486/486 896/896
f 486/486 485/485 896/896
f 896/896 485/485 895/895
f 485/485 486/486 488/488
f 486/486 489/489 488/488
f 489/489 903/903 488/488
f 903/903 902/902 488/488
f 488/488 902/902 483/483
f 485/485 488/488 483/483
f 902/902 901/901 483/483
f 485/485 482/482 895/895
f 482/482 485/485 483/483
f 895/895 482/482 1007/1007
f 482/482 495/495 1007/1007
f 495/495 482/482 496/496
f 482/482 483/483 496/496
f 483/483 901/901 496/496
f 901/901 1008/1008 496/496
f 898/898 487/487 897/897
f 487/487 486/486 897/897
f 486/486 487/487 489/489
f 487/487 490/490 489/489
f 490/490 904/904 489/489
f 904/904 903/903 489/489
f 906/906 905/905 875/875
f 484/484 906/906 875/875
f 481/481 484/484 875/875
f 876/876 481/481 875/875
f 481/481 876/876 899/899
f 900/900 481/481 899/899
f 484/484 481/481 518/518
f 518/518 481/481 900/900
f 906/906 484/484 499/499
f 499/499 484/484 518/518
f 528/528 518/518 900/900
f 499/499 518/518 527/527
f 528/528 546/546 518/518
f 546/546 527/527 518/518
f 529/529 528/528 900/900
f 530/530 529/529 900/900
f 530/530 900/900 920/920
f 529/529 547/547 528/528
f 547/547 546/546 528/528
f 547/547 529/529 530/530
f 547/547 540/540 546/546
f 548/548 547/547 530/530
f 540/540 547/547 548/548
f 546/546 545/545 527/527
f 540/540 545/545 546/546
f 920/920 515/515 530/530
f 548/548 530/530 515/515
f 519/519 548/548 515/515
f 519/519 515/515 920/920
f 541/541 548/548 519/519
f 541/541 540/540 548/548
f 520/520 519/519 920/920
f 520/520 541/541 519/519
f 521/521 520/520 920/920
f 541/541 520/520 521/521
f 516/516 521/521 920/920
f 516/516 920/920 930/930
f 542/542 541/541 521/521
f 542/542 521/521 516/516
f 540/540 541/541 542/542
f 930/930 929/929 516/516
f 930/930 966/966 929/929
f 966/966 965/965 929/929
f 522/522 542/542 516/516
f 543/543 542/542 522/522
f 543/543 540/540 542/542
f 523/523 543/543 522/522
f 543/543 523/523 524/524
f 540/540 543/543 544/544
f 544/544 543/543 524/524
f 545/545 540/540 544/544
f 544/544 524/524 517/517
f 545/545 544/544 525/525
f 525/525 544/544 517/517
f 526/526 545/545 525/525
f 545/545 526/526 527/527
f 505/505 525/525 517/517
f 517/517 500/500 505/505
f 503/503 527/527 526/526
f 503/503 499/499 527/527
f 504/504 526/526 525/525
f 505/505 504/504 525/525
f 504/504 503/503 526/526
f 533/533 505/505 500/500
f 506/506 533/533 500/500
f 532/532 504/504 505/505
f 504/504 532/532 503/503
f 533/533 532/532 505/505
f 531/531 532/532 533/533
f 534/534 533/533 506/506
f 534/534 531/531 533/533
f 507/507 534/534 506/506
f 534/534 507/507 508/508
f 532/532 539/539 503/503
f 503/503 539/539 499/499
f 532/532 531/531 539/539
f 535/535 534/534 508/508
f 531/531 534/534 535/535
f 535/535 508/508 501/501
f 539/539 514/514 499/499
f 906/906 499/499 514/514
f 539/539 538/538 514/514
f 531/531 538/538 539/539
f 906/906 514/514 513/513
f 538/538 513/513 514/514
f 906/906 513/513 512/512
f 513/513 538/538 512/512
f 538/538 531/531 537/537
f 538/538 537/537 512/512
f 906/906 512/512 502/502
f 512/512 537/537 502/502
f 502/502 919/919 906/906
f 536/536 531/531 535/535
f 531/531 536/536 537/537
f 537/537 511/511 502/502
f 919/919 502/502 511/511
f 537/537 536/536 511/511
f 509/509 535/535 501/501
f 536/536 535/535 509/509
f 919/919 509/509 501/501
f 919/919 501/501 928/928
f 536/536 510/510 511/511
f 510/510 536/536 509/509
f 919/919 510/510 509/509
f 919/919 511/511 510/510
f 928/928 927/927 919/919
f 928/928 960/960 927/927
f 960/960 959/959 927/927
f 907/907 912/912 911/911
f 907/907 911/911 910/910
f 907/907 910/910 909/909
f 907/907 909/909 908/908
f 907/907 908/908 589/589
f 589/589 493/493 907/907
f 907/907 493/493 627/627
f 925/925 907/907 627/627
f 627/627 962/962 925/925
f 962/962 961/961 925/925
f 494/494 590/590 913/913
f 913/913 914/914 494/494
f 913/913 915/915 914/914
f 915/915 916/916 914/914
f 916/916 917/917 914/914
f 917/917 918/918 914/914
f 914/914 926/926 494/494
f 926/926 628/628 494/494
f 926/926 964/964 628/628
f 964/964 963/963 628/628
f 497/497 609/609 586/586
f 585/585 586/586 609/609
f 609/609 612/612 585/585
f 612/612 491/491 585/585
f 612/612 599/599 491/491
f 600/600 614/614 610/610
f 610/610 550/550 600/600
f 610/610 492/492 550/550
f 610/610 588/588 492/492
f 610/610 498/498 588/588
f 498/498 587/587 588/588
f 550/550 648/648 600/600
f 648/648 647/647 600/600
f 645/645 648/648 550/550
f 600/600 647/647 599/599
f 549/549 645/645 550/550
f 647/647 646/646 599/599
f 646/646 645/645 549/549
f 599/599 646/646 549/549
f 922/922 921/921 616/616
f 617/617 922/922 616/616
f 617/617 616/616 644/644
f 643/643 617/617 644/644
f 643/643 644/644 639/639
f 613/613 643/643 639/639
f 639/639 644/644 940/940
f 644/644 947/947 940/940
f 639/639 940/940 939/939
f 941/941 639/639 939/939
f 613/613 639/639 941/941
f 942/942 613/613 941/941
f 615/615 924/924 923/923
f 618/618 615/615 923/923
f 615/615 618/618 642/642
f 618/618 641/641 642/642
f 641/641 611/611 642/642
f 611/611 640/640 642/642
f 642/642 640/640 948/948
f 611/611 946/946 640/640
f 640/640 943/943 948/948
f 946/946 945/945 640/640
f 640/640 945/945 943/943
f 945/945 944/944 943/943
f 632/632 932/932 931/931
f 631/631 632/632 931/931
f 631/631 931/931 933/933
f 594/594 632/632 631/631
f 633/633 631/631 933/933
f 593/593 594/594 631/631
f 593/593 631/631 633/633
f 592/592 593/593 633/633
f 633/633 933/933 934/934
f 634/634 633/633 934/934
f 592/592 633/633 634/634
f 634/634 934/934 935/935
f 591/591 592/592 634/634
f 635/635 634/634 935/935
f 591/591 634/634 635/635
f 635/635 935/935 936/936
f 595/595 591/591 635/635
f 636/636 635/635 936/936
f 595/595 635/635 636/636
f 636/636 936/936 937/937
f 598/598 595/595 636/636
f 637/637 636/636 937/937
f 598/598 636/636 637/637
f 597/597 598/598 637/637
f 637/637 937/937 938/938
f 638/638 637/637 938/938
f 597/597 637/637 638/638
f 596/596 597/597 638/638
f 951/951 950/950 949/949
f 952/952 951/951 949/949
f 969/969 968/968 967/967
f 630/630 969/969 967/967
f 630/630 967/967 1010/1010
f 657/657 969/969 630/630
f 660/660 630/630 1010/1010
f 1011/1011 660/660 1010/1010
f 1012/1012 1011/1011 1010/1010
f 655/655 657/657 630/630
f 630/630 660/660 655/655
f 657/657 655/655 1002/1002
f 1002/1002 1001/1001 657/657
f 655/655 999/999 1002/1002
f 660/660 656/656 655/655
f 999/999 655/655 656/656
f 656/656 1000/1000 999/999
f 605/605 660/660 1011/1011
f 656/656 608/608 1000/1000
f 1021/1021 1000/1000 608/608
f 608/608 607/607 1021/1021
f 656/656 607/607 608/608
f 607/607 1022/1022 1021/1021
f 656/656 606/606 607/607
f 607/607 606/606 1022/1022
f 656/656 605/605 606/606
f 606/606 1023/1023 1022/1022
f 606/606 605/605 1023/1023
f 605/605 1013/1013 1023/1023
f 1011/1011 1013/1013 605/605
f 1011/1011 1014/1014 1013/1013
f 1011/1011 601/601 1014/1014
f 1020/1020 1014/1014 601/601
f 1011/1011 662/662 601/601
f 1011/1011 1015/1015 662/662
f 1015/1015 1024/1024 662/662
f 1024/1024 1009/1009 662/662
f 1009/1009 972/972 662/662
f 972/972 629/629 662/662
f 654/654 662/662 629/629
f 972/972 971/971 629/629
f 971/971 970/970 629/629
f 653/653 629/629 970/970
f 653/653 654/654 629/629
f 658/658 653/653 970/970
f 1003/1003 653/653 658/658
f 658/658 1004/1004 1003/1003
f 1003/1003 997/997 653/653
f 654/654 653/653 997/997
f 997/997 998/998 654/654
f 998/998 602/602 654/654
f 602/602 998/998 1018/1018
f 1018/1018 1019/1019 602/602
f 1019/1019 603/603 602/602
f 602/602 603/603 654/654
f 1019/1019 1020/1020 603/603
f 603/603 604/604 654/654
f 1020/1020 604/604 603/603
f 604/604 601/601 654/654
f 1020/1020 601/601 604/604
f 977/977 976/976 975/975
f 975/975 978/978 977/977
f 975/975 979/979 978/978
f 979/979 980/980 978/978
f 649/649 652/652 981/981
f 982/982 649/649 981/981
f 650/650 984/984 983/983
f 985/985 650/650 983/983
f 651/651 987/987 986/986
f 988/988 651/651 986/986
f 991/991 990/990 989/989
f 992/992 991/991 989/989
f 995/995 994/994 993/993
f 996/996 995/995 993/993
f 709/709 705/705 702/702
f 708/708 709/709 702/702
f 707/707 708/708 702/702
f 706/706 707/707 702/702
f 706/706 702/702 720/720
f 720/720 715/715 706/706
f 715/715 720/720 724/724
f 722/722 715/715 724/724
f 722/722 724/724 719/719
f 716/716 722/722 719/719
f 716/716 719/719 713/713
f 719/719 718/718 713/713
f 721/721 713/713 718/718
f 723/723 721/721 718/718
f 714/714 721/721 723/723
f 717/717 714/714 723/723
f 704/704 714/714 717/717
f 710/710 704/704 717/717
f 711/711 710/710 717/717
f 712/712 711/711 717/717
f 703/703 712/712 717/717
f 717/717 701/701 703/703
f 684/684 669/669 685/685
f 682/682 684/684 685/685
f 663/663 1026/1026 665/665
f 1026/1026 1025/1025 665/665
f 665/665 1025/1025 675/675
f 1025/1025 694/694 675/675
f 675/675 694/694 674/674
f 694/694 693/693 674/674
f 674/674 693/693 673/673
f 693/693 692/692 673/673
f 673/673 692/692 666/666
f 692/692 686/686 666/666
f 666/666 686/686 677/677
f 686/686 696/696 677/677
f 677/677 696/696 680/680
f 696/696 699/699 680/680
f 680/680 699/699 676/676
f 699/699 695/695 676/676
f 676/676 695/695 679/679
f 695/695 698/698 679/679
f 679/679 698/698 681/681
f 698/698 700/700 681/681
f 681/681 700/700 678/678
f 700/700 697/697 678/678
f 678/678 697/697 668/668
f 697/697 688/688 668/668
f 668/668 688/688 670/670
f 688/688 689/689 670/670
f 670/670 689/689 671/671
f 689/689 690/690 671/671
f 671/671 690/690 672/672
f 690/690 691/691 672/672
f 672/672 691/691 667/667
f 691/691 687/687 667/667
f 667/667 687/687 664/664
f 687/687 683/683 664/664
f 1029/1029 1028/1028 1027/1027
f 1030/1030 1029/1029 1027/1027
f 1031/1031 1029/1029 1030/1030
f 1032/1032 1031/1031 1030/1030
f 1035/1035 1034/1034 1033/1033
f 1036/1036 1035/1035 1033/1033
f 1039/1039 1038/1038 1037/1037
f 1040/1040 1039/1039 1037/1037
f 1041/1041 1039/1039 1040/1040
f 1042/1042 1041/1041 1040/1040
f 1043/1043 1041/1041 1042/1042
f 1044/1044 1043/1043 1042/1042
f 1045/1045 1043/1043 1044/1044
f 1046/1046 1045/1045 1044/1044
f 1047/1047 1045/1045 1046/1046
f 1048/1048 1047/1047 1046/1046
f 1049/1049 1047/1047 1048/1048
f 1050/1050 1049/1049 1048/1048
f 1051/1051 1049/1049 1050/1050
f 1052/1052 1051/1051 1050/1050
f 1053/1053 1051/1051 1052/1052
f 1054/1054 1053/1053 1052/1052
f 1055/1055 1053/1053 1054/1054
f 1056/1056 1055/1055 1054/1054
f 1057/1057 1055/1055 1056/1056
f 1058/1058 1057/1057 1056/1056
f 1059/1059 1057/1057 1058/1058
f 1060/1060 1059/1059 1058/1058
f 1063/1063 1062/1062 1061/1061
f 1064/1064 1063/1063 1061/1061
f 1067/1067 1066/1066 1065/1065
f 1068/1068 1067/1067 1065/1065
f 1069/1069 1067/1067 1068/1068
f 1070/1070 1069/1069 1068/1068
f 669/669 742/742 685/685
f 742/742 1079/1079 685/685
f 1080/1080 1079/1079 742/742
f 741/741 1080/1080 742/742
f 1082/1082 1081/1081 740/740
f 1083/1083 1082/1082 740/740
f 1083/1083 740/740 739/739
f 1078/1078 1083/1083 739/739
f 1078/1078 739/739 1076/1076
f 739/739 743/743 1076/1076
f 1076/1076 743/743 744/744
f 1074/1074 1076/1076 744/744
f 1074/1074 744/744 745/745
f 1075/1075 1074/1074 745/745
f 745/745 746/746 1075/1075
f 746/746 1071/1071 1075/1075
f 1072/1072 1071/1071 746/746
f 747/747 1072/1072 746/746
f 1073/1073 1072/1072 747/747
f 748/748 1073/1073 747/747
f 748/748 750/750 1073/1073
f 750/750 1077/1077 1073/1073
f 750/750 751/751 1077/1077
f 751/751 1087/1087 1077/1077
f 1086/1086 752/752 753/753
f 1085/1085 1086/1086 753/753
f 1085/1085 753/753 1084/1084
f 753/753 749/749 1084/1084
f 749/749 768/768 1084/1084
f 768/768 1103/1103 1084/1084
f 1089/1089 1088/1088 1087/1087
f 751/751 1089/1089 1087/1087
f 790/790 781/781 791/791
f 781/781 782/782 791/791
f 791/791 782/782 783/783
f 792/792 791/791 783/783
f 789/789 788/788 784/784
f 788/788 785/785 784/784
f 786/786 785/785 788/788
f 787/787 786/786 788/788
f 1112/1112 1111/1111 1109/1109
f 1111/1111 1110/1110 1109/1109
f 1109/1109 1110/1110 1127/1127
f 1110/1110 1128/1128 1127/1127
f 1115/1115 1114/1114 1113/1113
f 1116/1116 1115/1115 1113/1113
f 1119/1119 1118/1118 1117/1117
f 1120/1120 1119/1119 1117/1117
f 1121/1121 1119/1119 1120/1120
f 1122/1122 1121/1121 1120/1120
f 1125/1125 1124/1124 1123/1123
f 1126/1126 1125/1125 1123/1123
f 1131/1131 1130/1130 1129/1129
f 1132/1132 1131/1131 1129/1129
f 1135/1135 1134/1134 1133/1133
f 1136/1136 1135/1135 1133/1133
f 1137/1137 1135/1135 1136/1136
f 1138/1138 1137/1137 1136/1136
f 1141/1141 1140/1140 1139/1139
f 1142/1142 1141/1141 1139/1139
f 1145/1145 1144/1144 1143/1143
f 1146/1146 1145/1145 1143/1143
f 1147/1147 1145/1145 1146/1146
f 1148/1148 1147/1147 1146/1146
f 1151/1151 1150/1150 1149/1149
f 1151/1151 1153/1153 1150/1150
f 1150/1150 1153/1153 1152/1152
f 1154/1154 1153/1153 1151/1151
f 1154/1154 1155/1155 1153/1153
f 1156/1156 1155/1155 1154/1154
f 1157/1157 1155/1155 1156/1156
f 1158/1158 1155/1155 1157/1157
f 1159/1159 1155/1155 1158/1158
f 1159/1159 1160/1160 1155/1155
f 1161/1161 1160/1160 1159/1159
f 1161/1161 1162/1162 1160/1160
f 1161/1161 1169/1169 1162/1162
f 1170/1170 1169/1169 1161/1161
f 1170/1170 1171/1171 1169/1169
f 1172/1172 1171/1171 1170/1170
f 1172/1172 1173/1173 1171/1171
f 1174/1174 1173/1173 1172/1172
f 1174/1174 1167/1167 1173/1173
f 1176/1176 1167/1167 1174/1174
f 1167/1167 1176/1176 1175/1175
f 1167/1167 1175/1175 1168/1168
f 1167/1167 1168/1168 1164/1164
f 1167/1167 1164/1164 1166/1166
f 1166/1166 1164/1164 1165/1165
f 1165/1165 1164/1164 1163/1163
f 767/767 766/766 738/738
f 1106/1106 767/767 738/738
f 1105/1105 1106/1106 738/738
f 738/738 1102/1102 1105/1105
f 766/766 737/737 738/738
f 738/738 737/737 1102/1102
f 766/766 765/765 737/737
f 737/737 1101/1101 1102/1102
f 765/765 736/736 737/737
f 737/737 736/736 1101/1101
f 765/765 764/764 736/736
f 764/764 735/735 736/736
f 736/736 1099/1099 1101/1101
f 736/736 735/735 1099/1099
f 764/764 763/763 735/735
f 735/735 1100/1100 1099/1099
f 763/763 734/734 735/735
f 763/763 762/762 734/734
f 762/762 733/733 734/734
f 762/762 761/761 733/733
f 761/761 732/732 733/733
f 761/761 754/754 732/732
f 754/754 725/725 732/732
f 754/754 755/755 725/725
f 755/755 726/726 725/725
f 755/755 756/756 726/726
f 756/756 727/727 726/726
f 756/756 757/757 727/727
f 757/757 728/728 727/727
f 757/757 758/758 728/728
f 758/758 729/729 728/728
f 758/758 759/759 729/729
f 759/759 730/730 729/729
f 759/759 760/760 730/730
f 760/760 731/731 730/730
f 760/760 1104/1104 731/731
f 1104/1104 1096/1096 731/731
f 731/731 1096/1096 1095/1095
f 731/731 1095/1095 1094/1094
f 730/730 731/731 1094/1094
f 730/730 1094/1094 1093/1093
f 729/729 730/730 1093/1093
f 729/729 1093/1093 1092/1092
f 728/728 729/729 1092/1092
f 728/728 771/771 727/727
f 771/771 770/770 727/727
f 780/780 771/771 728/728
f 1092/1092 780/780 728/728
f 779/779 780/780 1092/1092
f 1107/1107 779/779 1092/1092
f 778/778 779/779 1107/1107
f 727/727 770/770 726/726
f 1091/1091 778/778 1107/1107
f 769/769 778/778 1091/1091
f 770/770 769/769 726/726
f 726/726 769/769 1091/1091
f 726/726 1091/1091 1090/1090
f 725/725 726/726 1090/1090
f 725/725 1090/1090 1097/1097
f 732/732 725/725 1097/1097
f 732/732 1097/1097 1098/1098
f 733/733 732/732 1098/1098
f 1098/1098 777/777 733/733
f 777/777 772/772 733/733
f 776/776 777/777 1098/1098
f 733/733 772/772 734/734
f 1108/1108 776/776 1098/1098
f 772/772 773/773 734/734
f 775/775 776/776 1108/1108
f 734/734 773/773 735/735
f 1100/1100 775/775 1108/1108
f 773/773 774/774 735/735
f 774/774 775/775 1100/1100
f 735/735 774/774 1100/1100