# https://github.com/mikedh/trimesh
mtllib material.mtl
usemtl material_0
v 0.00105466 0.24464412 0.21622685
v 0.00105466 0.24136412 0.21300685
v 0.00470466 0.24136412 0.21622685
v -0.73468534 0.24136412 0.21622685
v -0.73103534 0.24136412 0.21300685
v -0.73103534 0.24464412 0.21622685
v 0.00105466 0.08503412 0.21622685
v 0.00470466 0.08831412 0.21622685
v 0.00105466 0.08831412 0.21300685
v -0.73468534 0.08831412 0.21622685
v -0.73103534 0.08503412 0.21622685
v -0.73103534 0.08831412 0.21300685
v -0.73468534 0.24136412 0.23320685
v -0.73103534 0.24464412 0.23320685
v -0.73103534 0.24136412 0.23643685
v -0.73468534 0.08831412 0.23320685
v -0.73103534 0.08831412 0.23643685
v -0.73103534 0.08503412 0.23320685
v 0.00105466 0.24464412 0.23321685
v 0.00470466 0.24136412 0.23321685
v 0.00105466 0.24136412 0.23643685
v 0.00105466 0.08503412 0.23321685
v 0.00105466 0.08831412 0.23643685
v 0.00470466 0.08831412 0.23321685
v 0.00470466 0.08831412 0.21622685
v 0.00470466 0.08831412 0.23321685
v 0.00470466 0.24136412 0.23321685
v 0.00470466 0.24136412 0.21622685
v 0.00105466 0.08831412 0.23643685
v -0.73103534 0.08831412 0.23643685
v -0.73103534 0.24136412 0.23643685
v 0.00105466 0.24136412 0.23643685
v -0.73468534 0.24136412 0.21622685
v -0.73468534 0.24136412 0.23320685
v -0.73468534 0.08831412 0.23320685
v -0.73468534 0.08831412 0.21622685
v 0.00105466 0.24464412 0.21622685
v 0.00105466 0.24464412 0.23321685
v -0.73103534 0.24464412 0.23320685
v -0.73103534 0.24464412 0.21622685
v -0.73103534 0.08503412 0.21622685
v -0.73103534 0.08503412 0.23320685
v 0.00105466 0.08503412 0.23321685
v 0.00105466 0.08503412 0.21622685
v -0.38168534 0.16494412 0.24361685
v -0.37666534 0.15405412 0.24849685
v -0.37666534 0.15405412 0.24361685
v -0.38168534 0.16494412 0.24849685
v -0.37666534 0.17582412 0.24361685
v -0.37666534 0.17582412 0.24849685
v -0.37373534 0.16494412 0.24100685
v -0.37104534 0.15910412 0.24100685
v -0.37104534 0.15910412 0.23595685
v -0.37373534 0.16494412 0.23595685
v -0.37104534 0.17078412 0.24100685
v -0.37104534 0.17078412 0.23595685
v -0.34738534 0.16494412 0.24361685
v -0.35241534 0.17582412 0.24849685
v -0.35241534 0.17582412 0.24361685
v -0.34738534 0.16494412 0.24849685
v -0.35241534 0.15405412 0.24361685
v -0.35241534 0.15405412 0.24849685
v -0.37104534 0.15910412 0.24100685
v -0.36453534 0.15668412 0.23595685
v -0.37104534 0.15910412 0.23595685
v -0.36453534 0.15668412 0.24100685
v -0.35803534 0.15910412 0.23595685
v -0.35803534 0.15910412 0.24100685
v -0.36453534 0.14954412 0.24361685
v -0.35241534 0.15405412 0.24849685
v -0.35241534 0.15405412 0.24361685
v -0.36453534 0.14954412 0.24849685
v -0.37666534 0.15405412 0.24361685
v -0.37666534 0.15405412 0.24849685
v -0.35241534 0.17582412 0.24361685
v -0.35241534 0.17582412 0.24849685
v -0.36453534 0.18033412 0.24849685
v -0.36453534 0.18033412 0.24361685
v -0.37666534 0.17582412 0.24849685
v -0.37666534 0.17582412 0.24361685
v -0.35803534 0.15910412 0.24100685
v -0.35533534 0.16494412 0.23595685
v -0.35803534 0.15910412 0.23595685
v -0.35533534 0.16494412 0.24100685
v -0.35803534 0.17078412 0.23595685
v -0.35803534 0.17078412 0.24100685
v -0.35803534 0.17078412 0.24100685
v -0.36453534 0.17319412 0.23595685
v -0.35803534 0.17078412 0.23595685
v -0.36453534 0.17319412 0.24100685
v -0.37104534 0.17078412 0.23595685
v -0.37104534 0.17078412 0.24100685
v -0.73103534 0.24136412 0.21300685
v -0.73468534 0.24136412 0.21622685
v -0.73468534 0.08831412 0.21622685
v -0.73103534 0.08831412 0.21300685
v 0.00105466 0.24136412 0.21300685
v 0.00105466 0.24464412 0.21622685
v -0.73103534 0.24464412 0.21622685
v -0.73103534 0.24136412 0.21300685
v 0.00105466 0.08503412 0.21622685
v 0.00105466 0.08831412 0.21300685
v -0.73103534 0.08831412 0.21300685
v -0.73103534 0.08503412 0.21622685
v 0.00470466 0.24136412 0.21622685
v 0.00105466 0.24136412 0.21300685
v 0.00105466 0.08831412 0.21300685
v 0.00470466 0.08831412 0.21622685
v -0.73468534 0.24136412 0.23320685
v -0.73103534 0.24136412 0.23643685
v -0.73103534 0.08831412 0.23643685
v -0.73468534 0.08831412 0.23320685
v 0.00105466 0.24464412 0.23321685
v 0.00105466 0.24136412 0.23643685
v -0.73103534 0.24136412 0.23643685
v -0.73103534 0.24464412 0.23320685
v 0.00105466 0.08831412 0.23643685
v 0.00105466 0.08503412 0.23321685
v -0.73103534 0.08503412 0.23320685
v -0.73103534 0.08831412 0.23643685
v 0.00105466 0.24136412 0.23643685
v 0.00470466 0.24136412 0.23321685
v 0.00470466 0.08831412 0.23321685
v 0.00105466 0.08831412 0.23643685
v -0.73103534 0.08503412 0.21622685
v -0.73468534 0.08831412 0.21622685
v -0.73468534 0.08831412 0.23320685
v -0.73103534 0.08503412 0.23320685
v -0.73103534 0.24464412 0.23320685
v -0.73468534 0.24136412 0.23320685
v -0.73468534 0.24136412 0.21622685
v -0.73103534 0.24464412 0.21622685
v 0.00470466 0.24136412 0.23321685
v 0.00105466 0.24464412 0.23321685
v 0.00105466 0.24464412 0.21622685
v 0.00470466 0.24136412 0.21622685
v 0.00470466 0.08831412 0.21622685
v 0.00105466 0.08503412 0.21622685
v 0.00105466 0.08503412 0.23321685
v 0.00470466 0.08831412 0.23321685
v -0.00595534 0.23507412 0.21300685
v -0.00595534 0.23507412 -0.17645315
v -0.00595534 0.09460412 -0.17645315
v -0.00595534 0.09460412 0.21300685
v -0.00595534 0.09460412 0.21300685
v -0.00595534 0.09460412 -0.17645315
v -0.72402534 0.09460412 -0.17646315
v -0.72402534 0.09460412 0.21300685
v -0.00595534 0.09460412 -0.17645315
v -0.00595534 0.23507412 -0.17645315
v -0.72402534 0.23507412 -0.17646315
v -0.72402534 0.09460412 -0.17646315
v -0.72402534 0.09460412 0.21300685
v -0.72402534 0.09460412 -0.17646315
v -0.72402534 0.23507412 -0.17646315
v -0.72402534 0.23507412 0.21300685
v -0.01532534 0.23507412 0.20473685
v -0.00595534 0.23507412 0.21300685
v -0.72402534 0.23507412 0.21300685
v -0.71466534 0.23507412 0.20472685
v -0.72402534 0.23507412 -0.17646315
v -0.71466534 0.23507412 -0.16819315
v -0.71466534 0.23507412 -0.16819315
v -0.72402534 0.23507412 -0.17646315
v -0.00595534 0.23507412 -0.17645315
v -0.01531534 0.23507412 -0.16818315
v -0.00595534 0.23507412 0.21300685
v -0.01532534 0.23507412 0.20473685
v -0.71466534 0.10102412 0.20472685
v -0.71466534 0.10102412 -0.16819315
v -0.01531534 0.10102412 -0.16818315
v -0.01532534 0.10102412 0.20473685
v -0.01532534 0.23507412 0.20473685
v -0.01532534 0.10102412 0.20473685
v -0.01531534 0.10102412 -0.16818315
v -0.01531534 0.23507412 -0.16818315
v -0.01531534 0.23507412 -0.16818315
v -0.01531534 0.10102412 -0.16818315
v -0.71466534 0.10102412 -0.16819315
v -0.71466534 0.23507412 -0.16819315
v -0.71466534 0.23507412 0.20472685
v -0.71466534 0.10102412 0.20472685
v -0.01532534 0.10102412 0.20473685
v -0.01532534 0.23507412 0.20473685
v -0.71466534 0.23507412 -0.16819315
v -0.71466534 0.10102412 -0.16819315
v -0.71466534 0.10102412 0.20472685
v -0.71466534 0.23507412 0.20472685
v -0.36453534 0.17319412 0.24100685
v -0.36453534 0.18033412 0.24361685
v -0.37666534 0.17582412 0.24361685
v -0.37104534 0.17078412 0.24100685
v -0.35803534 0.17078412 0.24100685
v -0.38168534 0.16494412 0.24361685
v -0.35241534 0.17582412 0.24361685
v -0.37373534 0.16494412 0.24100685
v -0.35533534 0.16494412 0.24100685
v -0.37666534 0.15405412 0.24361685
v -0.34738534 0.16494412 0.24361685
v -0.37104534 0.15910412 0.24100685
v -0.35803534 0.15910412 0.24100685
v -0.36453534 0.14954412 0.24361685
v -0.35241534 0.15405412 0.24361685
v -0.36453534 0.15668412 0.24100685
v -0.72402534 0.23507412 0.21300685
v -0.73103534 0.24136412 0.21300685
v -0.73103534 0.08831412 0.21300685
v -0.72402534 0.09460412 0.21300685
v -0.00595534 0.23507412 0.21300685
v 0.00105466 0.08831412 0.21300685
v 0.00105466 0.24136412 0.21300685
v -0.00595534 0.09460412 0.21300685
v -0.37666534 0.17582412 0.24849685
v -0.37437534 0.17377412 0.25114685
v -0.37844534 0.16494412 0.25114685
v -0.38168534 0.16494412 0.24849685
v -0.36453534 0.18033412 0.24849685
v -0.37437534 0.15611412 0.25114685
v -0.37666534 0.15405412 0.24849685
v -0.36453534 0.15245412 0.25114685
v -0.36453534 0.14954412 0.24849685
v -0.36453534 0.17742412 0.25114685
v -0.35241534 0.17582412 0.24849685
v -0.35470534 0.17377412 0.25114685
v -0.34738534 0.16494412 0.24849685
v -0.35470534 0.15611412 0.25114685
v -0.35241534 0.15405412 0.24849685
v -0.35062534 0.16494412 0.25114685
vt 0.93078040 0.33991190
vt 0.93272780 0.33991190
vt 0.93078040 0.33796450
vt 0.93078040 0.73289590
vt 0.93272780 0.73094840
vt 0.93078040 0.73094840
vt 0.93078040 0.33991190
vt 0.93078040 0.33796450
vt 0.93272780 0.33991190
vt 0.93078040 0.73289590
vt 0.93078040 0.73094840
vt 0.93272780 0.73094840
vt 0.92051580 0.73289590
vt 0.92051580 0.73094840
vt 0.91856840 0.73094840
vt 0.92051580 0.73289590
vt 0.91856840 0.73094840
vt 0.92051580 0.73094840
vt 0.92051580 0.33991190
vt 0.92051580 0.33796450
vt 0.91856840 0.33991190
vt 0.92051580 0.33991190
vt 0.91856840 0.33991190
vt 0.92051580 0.33796450
vt 0.93078040 0.79502620
vt 0.92051580 0.79502620
vt 0.92051580 0.88609460
vt 0.93078040 0.88609460
vt 0.33991190 0.79502620
vt 0.73094840 0.79502620
vt 0.73094840 0.88609460
vt 0.33991190 0.88609460
vt 0.93078040 0.88609460
vt 0.92051580 0.88609460
vt 0.92051580 0.79502620
vt 0.93078040 0.79502620
vt 0.93078040 0.33991190
vt 0.92051580 0.33991190
vt 0.92051580 0.73094840
vt 0.93078040 0.73094840
vt 0.93078040 0.73094840
vt 0.92051580 0.73094840
vt 0.92051580 0.33991190
vt 0.93078040 0.33991190
vt 0.91422650 0.84062120
vt 0.91127550 0.83414520
vt 0.91422650 0.83414520
vt 0.91127550 0.84062120
vt 0.91422650 0.84709730
vt 0.91127550 0.84709730
vt 0.91580430 0.84062120
vt 0.91580430 0.83714720
vt 0.91885510 0.83714720
vt 0.91885510 0.84062120
vt 0.91580430 0.84409520
vt 0.91885510 0.84409520
vt 0.91422650 0.84062120
vt 0.91127550 0.84709730
vt 0.91422650 0.84709730
vt 0.91127550 0.84062120
vt 0.91422650 0.83414520
vt 0.91127550 0.83414520
vt 0.91580430 0.53866120
vt 0.91885510 0.53518720
vt 0.91885510 0.53866120
vt 0.91580430 0.53518720
vt 0.91885510 0.53171350
vt 0.91580430 0.53171350
vt 0.91422650 0.53518720
vt 0.91127550 0.52871130
vt 0.91422650 0.52871130
vt 0.91127550 0.53518720
vt 0.91422650 0.54166340
vt 0.91127550 0.54166340
vt 0.91422650 0.52871130
vt 0.91127550 0.52871130
vt 0.91127550 0.53518720
vt 0.91422650 0.53518720
vt 0.91127550 0.54166340
vt 0.91422650 0.54166340
vt 0.91580430 0.83714720
vt 0.91885510 0.84062120
vt 0.91885510 0.83714720
vt 0.91580430 0.84062120
vt 0.91885510 0.84409520
vt 0.91580430 0.84409520
vt 0.91580430 0.53171350
vt 0.91885510 0.53518720
vt 0.91885510 0.53171350
vt 0.91580430 0.53518720
vt 0.91885510 0.53866120
vt 0.91580430 0.53866120
vt 0.93272780 0.88609460
vt 0.93078040 0.88609460
vt 0.93078040 0.79502620
vt 0.93272780 0.79502620
vt 0.93272780 0.33991190
vt 0.93078040 0.33991190
vt 0.93078040 0.73094840
vt 0.93272780 0.73094840
vt 0.93078040 0.33991190
vt 0.93272780 0.33991190
vt 0.93272780 0.73094840
vt 0.93078040 0.73094840
vt 0.33796450 0.88609460
vt 0.33991190 0.88609460
vt 0.33991190 0.79502620
vt 0.33796450 0.79502620
vt 0.92051580 0.88609460
vt 0.91856840 0.88609460
vt 0.91856840 0.79502620
vt 0.92051580 0.79502620
vt 0.92051580 0.33991190
vt 0.91856840 0.33991190
vt 0.91856840 0.73094840
vt 0.92051580 0.73094840
vt 0.91856840 0.33991190
vt 0.92051580 0.33991190
vt 0.92051580 0.73094840
vt 0.91856840 0.73094840
vt 0.33991190 0.88609460
vt 0.33796450 0.88609460
vt 0.33796450 0.79502620
vt 0.33991190 0.79502620
vt 0.93078040 0.73094840
vt 0.93078040 0.73289590
vt 0.92051580 0.73289590
vt 0.92051580 0.73094840
vt 0.92051580 0.73094840
vt 0.92051580 0.73289590
vt 0.93078040 0.73289590
vt 0.93078040 0.73094840
vt 0.92051580 0.33796450
vt 0.92051580 0.33991190
vt 0.93078040 0.33991190
vt 0.93078040 0.33796450
vt 0.93078040 0.33796450
vt 0.93078040 0.33991190
vt 0.92051580 0.33991190
vt 0.92051580 0.33796450
vt 0.93272780 0.88234770
vt 1.16812600 0.88234770
vt 1.16812600 0.79877290
vt 0.93272780 0.79877290
vt 0.93272780 0.34365840
vt 1.16812600 0.34365840
vt 1.16812600 0.72720170
vt 0.93272780 0.72720170
vt 0.34365840 0.79877290
vt 0.34365840 0.88234770
vt 0.72720170 0.88234770
vt 0.72720170 0.79877290
vt 0.93272780 0.79877290
vt 1.16812600 0.79877290
vt 1.16812600 0.88234770
vt 0.93272780 0.88234770
vt 0.93772780 0.34865860
vt 0.93272780 0.34365840
vt 0.93272780 0.72720170
vt 0.93772780 0.72220180
vt 1.16812600 0.72720170
vt 1.16312600 0.72220180
vt 0.16312650 0.72220180
vt 0.16812630 0.72720170
vt 0.16812630 0.34365840
vt 0.16312650 0.34865860
vt -0.06727219 0.34365840
vt -0.06227219 0.34865860
vt 0.93772780 0.72220180
vt 1.16312600 0.72220180
vt 1.16312600 0.34865860
vt 0.93772780 0.34865860
vt 0.93772780 0.88234770
vt 0.93772780 0.80259040
vt 1.16312600 0.80259040
vt 1.16312600 0.88234770
vt 0.34865860 0.88234770
vt 0.34865860 0.80259040
vt 0.72220180 0.80259040
vt 0.72220180 0.88234770
vt 0.72220180 0.88234770
vt 0.72220180 0.80259040
vt 0.34865860 0.80259040
vt 0.34865860 0.88234770
vt 0.16312650 0.88234770
vt 0.16312650 0.80259040
vt -0.06227219 0.80259040
vt -0.06227219 0.88234770
vt 0.53518720 0.84553410
vt 0.53518720 0.84977990
vt 0.54166340 0.84709730
vt 0.53866120 0.84409520
vt 0.53171350 0.84409520
vt 0.54434590 0.84062120
vt 0.52871130 0.84709730
vt 0.54010030 0.84062120
vt 0.53027440 0.84062120
vt 0.54166340 0.83414520
vt 0.52602890 0.84062120
vt 0.53866120 0.83714720
vt 0.53171350 0.83714720
vt 0.53518720 0.83146290
vt 0.52871130 0.83414520
vt 0.53518720 0.83570830
vt 0.72720170 0.88234770
vt 0.73094840 0.88609460
vt 0.73094840 0.79502620
vt 0.72720170 0.79877290
vt 0.34365840 0.88234770
vt 0.33991190 0.79502620
vt 0.33991190 0.88609460
vt 0.34365840 0.79877290
vt 0.54166340 0.84709730
vt 0.54043980 0.84587410
vt 0.54261570 0.84062120
vt 0.54434590 0.84062120
vt 0.53518720 0.84977990
vt 0.54043980 0.83536850
vt 0.54166340 0.83414520
vt 0.53518750 0.83319290
vt 0.53518720 0.83146290
vt 0.53518720 0.84804980
vt 0.52871130 0.84709730
vt 0.52993460 0.84587410
vt 0.52602890 0.84062120
vt 0.52993460 0.83536880
vt 0.52871130 0.83414520
vt 0.52775880 0.84062120
f 3/3 2/2 1/1
f 6/6 5/5 4/4
f 9/9 8/8 7/7
f 12/12 11/11 10/10
f 15/15 14/14 13/13
f 18/18 17/17 16/16
f 21/21 20/20 19/19
f 24/24 23/23 22/22
f 27/27 26/26 25/25
f 28/28 27/27 25/25
f 31/31 30/30 29/29
f 32/32 31/31 29/29
f 35/35 34/34 33/33
f 36/36 35/35 33/33
f 39/39 38/38 37/37
f 40/40 39/39 37/37
f 43/43 42/42 41/41
f 44/44 43/43 41/41
f 47/47 46/46 45/45
f 46/46 48/48 45/45
f 45/45 48/48 49/49
f 48/48 50/50 49/49
f 53/53 52/52 51/51
f 54/54 53/53 51/51
f 54/54 51/51 55/55
f 56/56 54/54 55/55
f 59/59 58/58 57/57
f 58/58 60/60 57/57
f 57/57 60/60 61/61
f 60/60 62/62 61/61
f 65/65 64/64 63/63
f 64/64 66/66 63/63
f 64/64 67/67 66/66
f 67/67 68/68 66/66
f 71/71 70/70 69/69
f 70/70 72/72 69/69
f 69/69 72/72 73/73
f 72/72 74/74 73/73
f 77/77 76/76 75/75
f 78/78 77/77 75/75
f 79/79 77/77 78/78
f 80/80 79/79 78/78
f 83/83 82/82 81/81
f 82/82 84/84 81/81
f 82/82 85/85 84/84
f 85/85 86/86 84/84
f 89/89 88/88 87/87
f 88/88 90/90 87/87
f 88/88 91/91 90/90
f 91/91 92/92 90/90
f 95/95 94/94 93/93
f 96/96 95/95 93/93
f 99/99 98/98 97/97
f 100/100 99/99 97/97
f 103/103 102/102 101/101
f 104/104 103/103 101/101
f 107/107 106/106 105/105
f 108/108 107/107 105/105
f 111/111 110/110 109/109
f 112/112 111/111 109/109
f 115/115 114/114 113/113
f 116/116 115/115 113/113
f 119/119 118/118 117/117
f 120/120 119/119 117/117
f 123/123 122/122 121/121
f 124/124 123/123 121/121
f 127/127 126/126 125/125
f 128/128 127/127 125/125
f 131/131 130/130 129/129
f 132/132 131/131 129/129
f 135/135 134/134 133/133
f 136/136 135/135 133/133
f 139/139 138/138 137/137
f 140/140 139/139 137/137
f 143/143 142/142 141/141
f 144/144 143/143 141/141
f 147/147 146/146 145/145
f 148/148 147/147 145/145
f 151/151 150/150 149/149
f 152/152 151/151 149/149
f 155/155 154/154 153/153
f 156/156 155/155 153/153
f 159/159 158/158 157/157
f 160/160 159/159 157/157
f 161/161 159/159 160/160
f 162/162 161/161 160/160
f 165/165 164/164 163/163
f 166/166 165/165 163/163
f 167/167 165/165 166/166
f 168/168 167/167 166/166
f 171/171 170/170 169/169
f 172/172 171/171 169/169
f 175/175 174/174 173/173
f 176/176 175/175 173/173
f 179/179 178/178 177/177
f 180/180 179/179 177/177
f 183/183 182/182 181/181
f 184/184 183/183 181/181
f 187/187 186/186 185/185
f 188/188 187/187 185/185
f 191/191 190/190 189/189
f 192/192 191/191 189/189
f 189/189 190/190 193/193
f 194/194 191/191 192/192
f 190/190 195/195 193/193
f 196/196 194/194 192/192
f 193/193 195/195 197/197
f 198/198 194/194 196/196
f 195/195 199/199 197/197
f 200/200 198/198 196/196
f 197/197 199/199 201/201
f 202/202 198/198 200/200
f 199/199 203/203 201/201
f 204/204 202/202 200/200
f 201/201 203/203 204/204
f 203/203 202/202 204/204
f 207/207 206/206 205/205
f 208/208 207/207 205/205
f 205/205 206/206 209/209
f 210/210 207/207 208/208
f 206/206 211/211 209/209
f 212/212 210/210 208/208
f 209/209 211/211 212/212
f 211/211 210/210 212/212
f 215/215 214/214 213/213
f 216/216 215/215 213/213
f 213/213 214/214 217/217
f 218/218 215/215 216/216
f 214/214 215/215 218/218
f 219/219 218/218 216/216
f 220/220 218/218 219/219
f 214/214 218/218 220/220
f 221/221 220/220 219/219
f 214/214 222/222 217/217
f 222/222 214/214 220/220
f 217/217 222/222 223/223
f 222/222 224/224 223/223
f 224/224 222/222 220/220
f 223/223 224/224 225/225
f 226/226 220/220 221/221
f 224/224 220/220 226/226
f 227/227 226/226 221/221
f 224/224 228/228 225/225
f 226/226 228/228 224/224
f 225/225 228/228 227/227
f 228/228 226/226 227/227