# https://github.com/mikedh/trimesh
v 0.00028264 0.05091993 0.00019628
v 0.00036928 0.05086255 0.00041305
v 0.00036928 0.05090771 0.00019196
v 0.00036928 0.05090585 0.00014420
v 0.00028264 0.05088912 -0.00011725
v -0.00010964 0.05091993 0.00019628
v 0.00028264 0.05086760 0.00041675
v 0.00036928 0.05069863 0.00049378
v 0.00036928 0.05088168 -0.00010045
v 0.00036928 0.05086255 -0.00014359
v 0.00028264 0.05079932 -0.00031368
v -0.00010964 0.05088912 -0.00011725
v -0.00010964 0.05086760 0.00041675
v -0.00050241 0.05085511 -0.00004083
v -0.00070195 0.05083731 -0.00000108
v -0.00070195 0.05083731 0.00003019
v -0.00053112 0.05085936 0.00017517
v -0.00068103 0.05083306 0.00029195
v -0.00041918 0.05084980 0.00040365
v 0.00028264 0.05064045 0.00052860
v 0.00036928 0.05064789 0.00051781
v 0.00036928 0.05079241 -0.00029689
v 0.00028264 0.05060511 -0.00058884
v -0.00010964 0.05079932 -0.00031368
v 0.00036928 0.05073954 -0.00038655
v 0.00036928 0.05054109 -0.00066819
v -0.00050241 0.05076717 -0.00023711
v -0.00010964 0.05064045 0.00052860
v -0.00274854 0.05045953 -0.00003390
v -0.00297096 0.05042658 0.00019628
v -0.00277482 0.05046192 0.00019628
v -0.00272566 0.05045235 0.00039980
v -0.00053112 0.05067738 0.00047637
v 0.00013323 0.05005597 0.00078697
v 0.00027145 0.05021113 0.00071563
v 0.00036928 0.05022016 0.00070531
v 0.00028264 0.05044624 -0.00078636
v -0.00010964 0.05060511 -0.00058884
v -0.00032427 0.05044545 -0.00078620
v -0.00047418 0.05054640 -0.00062166
v -0.00089518 0.05053577 -0.00055218
v -0.00128794 0.05050071 -0.00050210
v -0.00168023 0.05046564 -0.00043678
v 0.00036928 0.05044412 -0.00078636
v -0.00189146 0.05044678 -0.00039826
v -0.00325033 0.05029694 -0.00019628
v -0.00009844 0.05021113 0.00071563
v 0.00003978 0.05005597 0.00078697
v -0.00246528 0.05024779 0.00051720
v -0.00207300 0.05024779 0.00054847
v -0.00128794 0.05024779 0.00061071
v -0.00089518 0.05024779 0.00064184
v -0.00050241 0.05024779 0.00067280
v -0.00325033 0.05036681 0.00019628
v -0.00364310 0.05026081 0.00019628
v -0.00392295 0.05008971 0.00041628
v -0.00364310 0.05014205 0.00044386
v -0.00325033 0.05019970 0.00046728
v -0.00285707 0.05027754 0.00046913
v 0.00013323 0.05004854 0.00078697
v 0.00036928 0.04986363 0.00059592
v -0.00010964 0.05044624 -0.00078636
v -0.00222144 0.05005438 -0.00078697
v -0.00234993 0.05005438 -0.00078697
v -0.00325033 0.05012956 -0.00053461
v 0.00036928 0.05044093 -0.00078636
v -0.00356425 0.05009184 -0.00047098
v -0.00367425 0.05017074 -0.00022910
v -0.00227595 0.04965986 0.00078558
v -0.00207300 0.04966225 0.00078635
v 0.00003978 0.05004854 0.00078697
v -0.00325033 0.04985513 0.00062828
v -0.00285805 0.04985513 0.00065955
v -0.00394096 0.05010991 -0.00012017
v -0.00397844 0.05012399 0.00019628
v -0.00417458 0.05001692 0.00019628
v -0.00460288 0.04973558 0.00034726
v -0.00460288 0.04970263 0.00041767
v -0.00404657 0.04987691 0.00048145
v -0.00364310 0.04985513 0.00057867
v -0.00207300 0.04965694 0.00078635
v -0.00185544 0.04965720 0.00078635
v -0.00460288 0.04865403 0.00063537
v -0.00460288 0.04855228 0.00058375
v 0.00036928 0.04977622 0.00050857
v -0.00460288 0.04843724 0.00047575
v -0.00222144 0.05004694 -0.00078697
v -0.00234993 0.05004694 -0.00078697
v -0.00384849 0.04966225 -0.00078682
v 0.00036928 0.05040374 -0.00077341
v -0.00460288 0.04867741 -0.00059115
v -0.00460288 0.04924727 -0.00077804
v -0.00382902 0.04965401 -0.00078682
v -0.00400180 0.04976613 -0.00060132
v -0.00382610 0.05004614 -0.00038193
v -0.00364310 0.04946273 0.00070608
v -0.00442864 0.04907007 0.00070562
v -0.00460288 0.04889553 0.00071009
v -0.00227595 0.04965800 0.00078558
v -0.00403587 0.04946273 0.00065817
v -0.00405728 0.04998956 -0.00022910
v -0.00460288 0.04972761 -0.00012356
v -0.00460288 0.04976825 0.00019628
v -0.00460288 0.04946592 0.00052182
v -0.00442864 0.04946273 0.00056727
v -0.00442864 0.04975258 0.00043970
v 0.00036928 0.04961921 0.00027886
v -0.00460288 0.04840111 0.00041921
v -0.00384849 0.04965401 -0.00078682
v -0.00460288 0.04925020 -0.00077804
v -0.00460288 0.04928765 -0.00076787
v 0.00036928 0.05015879 -0.00068159
v -0.00460288 0.04834612 -0.00045034
v 0.00036928 0.04985513 -0.00055464
v -0.00431815 0.04970874 -0.00047869
v -0.00458000 0.04963303 -0.00034033
v -0.00460288 0.04907007 0.00067373
v -0.00460288 0.04928845 0.00059685
v -0.00460288 0.04962612 -0.00032770
v 0.00036928 0.04958653 0.00020614
v -0.00460288 0.04828767 0.00019936
v -0.00460288 0.04820611 -0.00019628
v 0.00036928 0.04979482 -0.00052460
v 0.00036928 0.04960487 -0.00042969
v 0.00036928 0.04953553 -0.00011001
v -0.00460288 0.04823480 -0.00004915
v 0.00036928 0.04952304 -0.00019628
v 0.00036928 0.04958096 -0.00037577
f 1 2 3
f 1 3 4
f 1 4 5
f 1 5 12
f 1 12 6
f 1 6 13
f 1 13 7
f 1 7 2
f 2 7 8
f 2 8 21
f 2 21 36
f 2 36 61
f 2 61 85
f 2 85 107
f 2 107 120
f 2 120 125
f 2 125 127
f 2 127 128
f 2 128 124
f 2 124 123
f 2 123 114
f 2 114 112
f 2 112 90
f 2 90 66
f 2 66 44
f 2 44 26
f 2 26 25
f 2 25 22
f 2 22 10
f 2 10 9
f 2 9 4
f 2 4 3
f 4 9 5
f 5 9 10
f 5 10 11
f 5 11 24
f 5 24 12
f 6 12 14
f 6 14 15
f 6 15 16
f 6 16 17
f 6 17 18
f 6 18 19
f 6 19 13
f 7 13 28
f 7 28 20
f 7 20 8
f 8 20 21
f 10 22 11
f 11 23 38
f 11 38 24
f 11 22 25
f 11 25 26
f 11 26 23
f 12 24 27
f 12 27 14
f 13 19 28
f 14 27 29
f 14 29 15
f 15 29 30
f 15 30 16
f 16 18 17
f 16 30 31
f 16 31 18
f 18 31 30
f 18 30 32
f 18 32 19
f 19 33 28
f 19 32 33
f 20 28 48
f 20 48 34
f 20 34 35
f 20 35 36
f 20 36 21
f 23 26 37
f 23 37 62
f 23 62 38
f 24 38 39
f 24 39 40
f 24 40 41
f 24 41 42
f 24 42 43
f 24 43 27
f 26 44 37
f 27 43 45
f 27 45 46
f 27 46 29
f 28 47 48
f 28 33 49
f 28 49 50
f 28 50 51
f 28 51 52
f 28 52 53
f 28 53 47
f 29 46 54
f 29 54 30
f 30 54 32
f 32 54 55
f 32 55 56
f 32 56 57
f 32 57 58
f 32 58 59
f 32 59 49
f 32 49 33
f 34 48 71
f 34 71 60
f 34 60 36
f 34 36 35
f 36 60 61
f 37 44 63
f 37 63 64
f 37 64 62
f 38 62 39
f 39 41 40
f 39 62 64
f 39 64 65
f 39 65 41
f 41 65 42
f 42 65 43
f 43 65 45
f 44 66 87
f 44 87 63
f 45 65 46
f 46 65 67
f 46 67 68
f 46 68 55
f 46 55 54
f 47 53 69
f 47 69 48
f 48 70 81
f 48 81 71
f 48 69 70
f 49 59 72
f 49 72 73
f 49 73 50
f 50 73 51
f 51 73 52
f 52 73 53
f 53 73 69
f 55 68 74
f 55 74 75
f 55 75 56
f 56 75 76
f 56 76 77
f 56 77 78
f 56 78 79
f 56 79 80
f 56 80 57
f 57 80 58
f 58 80 72
f 58 72 59
f 60 71 81
f 60 81 82
f 60 82 83
f 60 83 84
f 60 84 61
f 61 84 86
f 61 86 85
f 63 87 88
f 63 88 64
f 64 88 109
f 64 109 89
f 64 89 65
f 65 89 67
f 66 90 91
f 66 91 92
f 66 92 93
f 66 93 87
f 67 89 94
f 67 94 95
f 67 95 68
f 68 95 74
f 69 73 72
f 69 72 96
f 69 96 97
f 69 97 98
f 69 98 99
f 69 99 81
f 69 81 70
f 72 80 100
f 72 100 96
f 74 95 101
f 74 101 102
f 74 102 76
f 74 76 75
f 76 102 103
f 76 103 77
f 77 103 102
f 77 102 119
f 77 119 111
f 77 111 110
f 77 110 92
f 77 92 91
f 77 91 113
f 77 113 122
f 77 122 126
f 77 126 121
f 77 121 108
f 77 108 86
f 77 86 84
f 77 84 83
f 77 83 98
f 77 98 117
f 77 117 118
f 77 118 104
f 77 104 78
f 78 104 105
f 78 105 106
f 78 106 79
f 79 100 80
f 79 106 105
f 79 105 100
f 81 99 98
f 81 98 82
f 82 98 83
f 85 86 107
f 86 108 107
f 87 93 109
f 87 109 88
f 89 109 92
f 89 92 110
f 89 110 111
f 89 111 94
f 90 112 91
f 91 112 114
f 91 114 113
f 92 109 93
f 94 111 115
f 94 115 95
f 95 115 116
f 95 116 101
f 96 100 97
f 97 100 117
f 97 117 98
f 100 105 118
f 100 118 117
f 101 116 102
f 102 116 119
f 104 118 105
f 107 108 121
f 107 121 120
f 111 119 116
f 111 116 115
f 113 114 123
f 113 123 124
f 113 124 122
f 120 121 126
f 120 126 122
f 120 122 125
f 122 127 125
f 122 124 128
f 122 128 127

