# https://github.com/mikedh/trimesh
v -0.00603912 0.02375012 0.00020945
v -0.00603912 0.02399081 0.00044330
v -0.00603912 0.02378050 0.00008562
v -0.00581251 0.02333475 -0.00001859
v -0.00581251 0.02333475 0.00013026
v -0.00580261 0.02335111 0.00039203
v -0.00603912 0.02429051 0.00051669
v -0.00603912 0.02386346 -0.00019162
v -0.00400809 0.02025951 -0.00016965
v -0.00424187 0.02058433 -0.00001900
v -0.00406918 0.02025951 0.00019619
v -0.00423470 0.02059776 0.00039452
v -0.00396576 0.02025951 0.00043308
v -0.00364358 0.02025951 0.00057045
v -0.00603912 0.02433257 0.00052678
v -0.00603912 0.02390377 -0.00023737
v -0.00392242 0.02025951 -0.00034227
v -0.00325110 0.02025951 0.00069069
v -0.00364358 0.02040673 0.00059975
v -0.00599919 0.02472574 0.00063154
v -0.00603912 0.02472515 0.00061579
v -0.00599919 0.02433257 0.00054309
v -0.00603912 0.02407611 -0.00041068
v -0.00386884 0.02025951 -0.00043998
v -0.00364358 0.02079931 0.00067328
v -0.00288557 0.02025951 0.00056907
v -0.00325110 0.02040673 0.00069995
v -0.00560636 0.02472574 0.00071018
v -0.00560636 0.02433257 0.00067756
v -0.00599919 0.02511832 0.00068185
v -0.00603912 0.02511832 0.00067093
v -0.00589169 0.02393999 -0.00050646
v -0.00582274 0.02371039 -0.00042713
v -0.00603912 0.02433783 -0.00056175
v -0.00380331 0.02025951 -0.00051558
v -0.00268864 0.02025951 0.00032348
v -0.00255281 0.02315540 0.00058331
v -0.00364358 0.02119248 0.00070065
v -0.00521388 0.02433257 0.00070023
v -0.00255281 0.02352111 0.00052609
v -0.00603912 0.02553019 0.00059381
v -0.00603912 0.02435243 -0.00056907
v -0.00364666 0.02025951 -0.00061675
v -0.00259274 0.02025951 0.00012971
v -0.00255349 0.02025951 -0.00019632
v -0.00255281 0.02283760 0.00044980
v -0.00255281 0.02371215 0.00032541
v -0.00603912 0.02590524 0.00041801
v -0.00603912 0.02573174 0.00054129
v -0.00597223 0.02553428 0.00058151
v -0.00603912 0.02475904 -0.00067369
v -0.00560636 0.02393999 -0.00066416
v -0.00364358 0.02040673 -0.00066181
v -0.00349649 0.02025951 -0.00067660
v -0.00260639 0.02025951 -0.00038581
v -0.00255281 0.02315540 -0.00059367
v -0.00255281 0.02291763 -0.00052968
v -0.00255281 0.02286155 -0.00050591
v -0.00255281 0.02270381 -0.00024525
v -0.00255281 0.02267168 -0.00018416
v -0.00255281 0.02265591 0.00011851
v -0.00255281 0.02265182 0.00020600
v -0.00255281 0.02376765 0.00020365
v -0.00603912 0.02613016 0.00018071
v -0.00603912 0.02515805 -0.00065656
v -0.00599919 0.02472574 -0.00068282
v -0.00364358 0.02079931 -0.00070175
v -0.00325110 0.02025951 -0.00067010
v -0.00262209 0.02025951 -0.00041649
v -0.00272721 0.02025951 -0.00046320
v -0.00284359 0.02025951 -0.00051379
v -0.00310366 0.02025951 -0.00062131
v -0.00403607 0.02158507 -0.00069982
v -0.00560636 0.02433257 -0.00070161
v -0.00255281 0.02324245 -0.00058109
v -0.00255281 0.02380153 0.00012929
v -0.00603912 0.02622714 -0.00018167
v -0.00603912 0.02555063 -0.00056230
v -0.00255281 0.02356610 -0.00047274
v -0.00603912 0.02593445 -0.00045947
v -0.00603912 0.02598177 -0.00044662
v -0.00255281 0.02380328 -0.00019397
v -0.00255281 0.02374253 -0.00037807
v -0.00603912 0.02612724 -0.00033743
v -0.00255281 0.02366307 -0.00042907
f 1 2 7
f 1 7 15
f 1 15 21
f 1 21 31
f 1 31 41
f 1 41 49
f 1 49 48
f 1 48 64
f 1 64 77
f 1 77 84
f 1 84 81
f 1 81 80
f 1 80 78
f 1 78 65
f 1 65 51
f 1 51 42
f 1 42 34
f 1 34 23
f 1 23 16
f 1 16 8
f 1 8 3
f 1 3 4
f 1 4 5
f 1 5 6
f 1 6 2
f 2 6 7
f 3 8 4
f 4 8 9
f 4 9 10
f 4 10 11
f 4 11 5
f 5 11 6
f 6 11 12
f 6 12 13
f 6 13 14
f 6 14 7
f 7 14 15
f 8 16 17
f 8 17 9
f 9 17 24
f 9 24 35
f 9 35 43
f 9 43 54
f 9 54 68
f 9 68 72
f 9 72 71
f 9 71 70
f 9 70 69
f 9 69 55
f 9 55 45
f 9 45 44
f 9 44 36
f 9 36 26
f 9 26 18
f 9 18 14
f 9 14 13
f 9 13 11
f 9 11 10
f 11 13 12
f 14 18 19
f 14 19 20
f 14 20 21
f 14 21 22
f 14 22 15
f 15 22 21
f 16 23 24
f 16 24 17
f 18 25 19
f 18 26 27
f 18 27 28
f 18 28 29
f 18 29 25
f 19 25 20
f 20 29 30
f 20 30 31
f 20 31 21
f 20 25 29
f 23 32 33
f 23 33 24
f 23 34 32
f 24 33 32
f 24 32 35
f 26 36 37
f 26 37 27
f 27 38 28
f 27 37 38
f 28 39 37
f 28 37 40
f 28 40 30
f 28 30 29
f 28 38 39
f 30 41 31
f 30 40 41
f 32 34 42
f 32 42 35
f 35 42 43
f 36 44 37
f 37 39 38
f 37 44 45
f 37 45 46
f 37 46 62
f 37 62 61
f 37 61 60
f 37 60 59
f 37 59 58
f 37 58 57
f 37 57 56
f 37 56 75
f 37 75 79
f 37 79 85
f 37 85 83
f 37 83 82
f 37 82 76
f 37 76 63
f 37 63 47
f 37 47 40
f 40 47 48
f 40 48 49
f 40 49 50
f 40 50 41
f 41 50 49
f 42 51 52
f 42 52 53
f 42 53 43
f 43 53 54
f 45 55 56
f 45 56 57
f 45 57 58
f 45 58 59
f 45 59 60
f 45 60 61
f 45 61 62
f 45 62 46
f 47 63 64
f 47 64 48
f 51 65 66
f 51 66 52
f 52 66 53
f 53 66 54
f 54 67 68
f 54 66 67
f 55 69 56
f 56 69 70
f 56 70 71
f 56 71 72
f 56 72 68
f 56 68 67
f 56 67 73
f 56 73 74
f 56 74 65
f 56 65 75
f 63 76 64
f 64 76 77
f 65 74 66
f 65 78 75
f 66 74 67
f 67 74 73
f 75 78 80
f 75 80 81
f 75 81 79
f 76 82 77
f 77 82 83
f 77 83 84
f 79 81 85
f 81 84 83
f 81 83 85

