# Blender 4.0.0
# www.blender.org
o decimated_mesh
v -0.147284 0.000005 0.026380
v -0.152577 -0.002895 0.028419
v -0.143087 -0.004061 0.026352
v -0.153310 -0.004425 0.032018
v -0.152716 0.002853 0.028486
v -0.143106 0.004074 0.026364
v -0.150886 -0.006124 0.032886
v -0.154163 -0.001519 0.033000
v -0.153297 0.004451 0.032018
v 0.143708 -0.003803 0.026349
v 0.150883 -0.006104 0.032751
v -0.150517 -0.006097 0.035208
v -0.153008 -0.003737 0.037725
v -0.154012 -0.001519 0.036048
v -0.154163 0.001529 0.033000
v -0.150883 0.006133 0.032866
v 0.152296 -0.003142 0.028480
v -0.150964 -0.003904 0.038352
v -0.153265 -0.000001 0.038597
v -0.154012 0.001529 0.036048
v 0.150835 0.006157 0.032767
v 0.143812 0.003780 0.026337
v -0.152829 0.003928 0.037876
v -0.150553 0.006033 0.035418
v 0.153308 -0.004451 0.032086
v 0.152835 -0.003895 0.037912
v 0.150537 -0.006028 0.035450
v -0.150705 -0.001491 0.039684
v 0.150520 0.006115 0.035191
v 0.152294 0.003123 0.028466
v 0.153034 -0.000052 0.028239
v 0.154356 -0.001184 0.034268
v -0.150682 0.001675 0.039660
v 0.153017 0.003749 0.037726
v 0.153285 0.004463 0.032012
v 0.154415 0.000843 0.034368
v 0.153253 -0.000026 0.038618
v 0.150729 -0.001658 0.039660
v 0.150974 0.003914 0.038352
v 0.150691 0.001508 0.039684
vn -0.9487 0.1986 -0.2459
vn 0.0010 -0.7562 0.6543
vn 0.1922 -0.8351 -0.5155
vn 0.4243 0.8015 -0.4214
vn -0.0002 0.9533 -0.3021
vn -0.9092 0.4140 0.0450
vn -0.2145 -0.8283 -0.5176
vn -0.2303 -0.8133 0.5344
vn -0.9221 -0.1469 0.3579
vn 0.0008 -0.9408 -0.3390
vn 0.6117 0.7809 0.1263
vn -0.6021 0.7896 0.1185
vn 0.3832 -0.0023 0.9237
vn -0.3860 0.0099 0.9225
vn 0.6004 -0.7900 0.1242
vn -0.2960 -0.4372 0.8493
vn -0.4908 -0.2299 0.8404
vn -0.9137 0.1692 0.3695
vn -0.2203 0.8227 -0.5240
vn -0.0010 0.7600 0.6499
vn -0.0001 0.0077 1.0000
vn -0.9988 -0.0000 0.0494
vn -0.3606 0.0023 -0.9327
vn -0.4853 0.2097 0.8488
vn -0.6118 -0.7808 0.1264
vn 0.2507 0.1269 -0.9597
vn 0.2484 -0.1341 -0.9593
vn -0.9523 -0.0000 -0.3053
vn 0.9473 -0.1537 0.2812
vn 0.4851 -0.2074 0.8495
vn 0.9759 -0.0176 -0.2174
vn 0.2295 0.8139 0.5337
vn -0.9475 -0.3076 0.0872
vn 0.9597 -0.1487 -0.2384
vn 0.9499 0.1269 0.2858
vn 0.2957 0.4360 0.8500
vn 0.4880 0.2295 0.8421
vn 0.9091 0.2362 -0.3431
vn -0.0002 0.9992 0.0392
vn -0.2384 0.2412 -0.9407
vn 0.0002 -0.9996 0.0282
vn 0.0001 -0.9999 0.0120
vn 0.0001 0.0015 1.0000
vn -0.0000 -0.0015 1.0000
vn -0.0052 0.0015 -1.0000
vn 0.0002 0.4845 0.8748
vn -0.0012 0.6200 0.7846
vn -0.4090 0.8042 -0.4312
vn 0.9073 -0.2434 -0.3430
vn -0.0003 -0.8203 0.5720
vn 0.0009 0.9376 -0.3477
vn -0.9436 0.3145 0.1034
vn -0.9445 -0.1855 -0.2712
vn 0.9604 0.1452 -0.2376
vn 0.4330 -0.8014 -0.4125
vn -0.0002 -0.4833 0.8754
vn 0.0012 -0.6153 0.7883
vn 0.1949 0.8314 -0.5203
vn 0.2003 -0.0043 -0.9797
vn -0.0001 -0.9536 -0.3012
vn 0.5851 0.8059 0.0902
vn 0.9659 -0.0407 0.2559
vn -0.4120 -0.8053 -0.4262
vn -0.5937 0.7974 0.1081
vn 0.5787 -0.8098 0.0971
vn 0.0002 0.8207 0.5713
vn -0.2344 -0.2354 -0.9432
vn 0.0001 -0.0075 1.0000
vn 0.9333 0.3483 0.0873
vn 0.9226 -0.3697 0.1102
vn -0.5958 -0.7964 0.1042
vn -0.9596 -0.0000 0.2814
vn -0.9466 -0.0191 -0.3219
vn -0.9226 -0.3831 0.0457
vn -0.0001 0.9998 0.0176
vn -0.0000 0.0015 1.0000
vn 0.0001 -0.0015 1.0000
vn -0.9314 -0.3523 0.0918
vn -0.9540 -0.2960 0.0472
vn -0.9533 0.2985 0.0472
vn -0.9216 0.3730 0.1069
s 0
f 15//1 9//1 5//1
f 18//2 27//2 26//2
f 17//3 11//3 10//3
f 35//4 30//4 21//4
f 21//5 6//5 16//5
f 23//6 15//6 20//6
f 7//7 2//7 3//7
f 12//8 18//8 13//8
f 14//9 13//9 19//9
f 11//10 3//10 10//10
f 35//11 29//11 34//11
f 24//12 9//12 23//12
f 38//13 37//13 40//13
f 19//14 28//14 33//14
f 27//15 25//15 26//15
f 18//16 28//16 13//16
f 13//17 28//17 19//17
f 20//18 19//18 23//18
f 5//19 16//19 6//19
f 23//20 39//20 24//20
f 40//21 33//21 28//21
f 15//22 14//22 20//22
f 1//23 2//23 5//23
f 19//24 33//24 23//24
f 4//25 12//25 13//25
f 22//26 30//26 31//26
f 17//27 10//27 31//27
f 5//28 8//28 15//28
f 32//29 37//29 26//29
f 26//30 37//30 38//30
f 32//31 31//31 36//31
f 29//32 39//32 34//32
f 13//33 8//33 4//33
f 32//34 25//34 31//34
f 36//35 34//35 37//35
f 34//36 39//36 40//36
f 34//37 40//37 37//37
f 31//38 30//38 35//38
f 24//39 29//39 16//39
f 5//40 6//40 1//40
f 27//41 12//41 11//41
f 11//42 12//42 7//42
f 6//43 10//43 22//43
f 10//44 6//44 3//44
f 3//45 1//45 6//45
f 33//46 40//46 39//46
f 39//47 23//47 33//47
f 9//48 16//48 5//48
f 31//49 25//49 17//49
f 18//50 12//50 27//50
f 21//51 22//51 6//51
f 23//52 9//52 15//52
f 8//53 2//53 4//53
f 36//54 31//54 35//54
f 25//55 11//55 17//55
f 38//56 28//56 18//56
f 18//57 26//57 38//57
f 30//58 22//58 21//58
f 31//59 10//59 22//59
f 11//60 7//60 3//60
f 35//61 21//61 29//61
f 37//62 32//62 36//62
f 2//63 7//63 4//63
f 24//64 16//64 9//64
f 27//65 11//65 25//65
f 39//66 29//66 24//66
f 1//67 3//67 2//67
f 28//68 38//68 40//68
f 36//69 35//69 34//69
f 26//70 25//70 32//70
f 15//22 8//22 14//22
f 4//71 7//71 12//71
f 20//72 14//72 19//72
f 5//73 2//73 8//73
f 13//74 14//74 8//74
f 21//75 16//75 29//75
f 10//76 22//76 3//76
f 3//77 22//77 6//77
f 13//78 14//78 4//78
f 14//79 8//79 4//79
f 20//80 9//80 15//80
f 20//81 23//81 9//81
