# Blender 4.0.0
# www.blender.org
o decimated_mesh
v 0.144909 0.003078 0.026376
v 0.145075 -0.002955 0.026375
v 0.143625 -0.003269 0.000444
v 0.144165 0.001753 0.000326
v 0.141825 0.004139 0.026377
v 0.143136 0.003519 0.000498
v 0.139252 0.003679 0.000374
v 0.141825 -0.001520 -0.001175
v 0.141825 0.001530 -0.001175
v 0.137331 0.002954 0.002502
v 0.136969 0.001186 0.000102
v 0.139639 -0.004211 0.026378
v 0.139182 -0.003660 0.000398
v 0.137062 -0.001221 0.000031
v 0.136123 0.002937 0.026376
v 0.137331 -0.002944 0.002502
v 0.135691 -0.001777 0.026377
vn 0.0417 0.9989 -0.0218
vn -0.5246 -0.8513 0.0056
vn 0.3252 0.9456 -0.0062
vn -0.2555 0.0186 -0.9666
vn 0.0878 -0.9959 -0.0227
vn 0.9927 -0.1080 -0.0542
vn 0.4797 0.3575 -0.8013
vn -0.3704 0.9287 -0.0181
vn 0.0505 0.6230 -0.7806
vn -0.6621 0.6476 -0.3772
vn -0.2616 0.3383 -0.9039
vn 0.2250 -0.9744 -0.0008
vn 0.0644 -0.6414 -0.7645
vn -0.2504 -0.3532 -0.9014
vn -0.9635 0.2633 -0.0486
vn 0.5398 -0.0000 -0.8418
vn -0.6718 -0.6399 -0.3732
vn -0.9714 -0.2310 -0.0554
vn 0.0005 -0.0001 1.0000
vn -0.0003 0.0001 1.0000
vn 0.0002 0.0003 1.0000
vn -0.2062 0.9785 0.0031
vn 0.8609 0.5063 -0.0503
vn -0.2455 -0.0000 -0.9694
vn 0.9992 0.0274 -0.0299
vn -0.3735 -0.9275 -0.0131
vn 0.6193 -0.0850 -0.7805
vn -0.9979 -0.0371 -0.0527
vn -0.9951 0.0912 -0.0381
s 0
f 7//1 5//1 6//1
f 12//2 17//2 16//2
f 1//3 6//3 5//3
f 9//4 14//4 11//4
f 12//5 13//5 3//5
f 4//6 2//6 3//6
f 4//7 9//7 6//7
f 7//8 10//8 15//8
f 6//9 9//9 7//9
f 7//10 11//10 10//10
f 7//11 9//11 11//11
f 2//12 12//12 3//12
f 3//13 13//13 8//13
f 8//14 13//14 14//14
f 10//15 11//15 15//15
f 4//16 8//16 9//16
f 13//17 16//17 14//17
f 16//18 17//18 14//18
f 2//19 1//19 5//19
f 5//20 15//20 12//20
f 2//19 5//19 12//19
f 15//21 17//21 12//21
f 7//22 15//22 5//22
f 4//23 6//23 1//23
f 9//24 8//24 14//24
f 4//25 1//25 2//25
f 12//26 16//26 13//26
f 4//27 3//27 8//27
f 14//28 17//28 11//28
f 17//29 15//29 11//29
f 1//19 12//19 2//19
f 5//19 12//19 1//19
