# https://github.com/mikedh/trimesh
mtllib material.mtl
usemtl material_0
v -0.00058456 -1.09377950 -0.02030493
v -0.00058456 -1.09377950 -0.02031443
v -0.00057506 -1.09377950 -0.02031443
v -0.00057506 -1.09377950 -0.02030493
v -0.00058456 -1.09377950 -0.02030493
v -0.00058456 -1.09377950 -0.02031443
v -0.00057506 -1.09377950 -0.02031443
v -0.00057506 -1.09377950 -0.02030493
v -0.00058456 -1.09377950 -0.02030493
v -0.00058456 -1.09377950 -0.02031443
v -0.00057506 -1.09377950 -0.02031443
v -0.00057506 -1.09377950 -0.02030493
v -0.03674593 0.24821121 -0.06428717
v -0.45737477 0.24697877 -0.06221807
v -0.45737477 0.24821121 -0.06428717
v -0.03404821 0.25042832 0.16467837
v -0.46007258 0.25042832 0.16467837
v -0.46012616 0.24939348 0.15914160
v -0.03399463 0.24939348 0.15914160
v -0.03674593 0.24697877 -0.06221807
v -0.03404821 0.25332249 0.16861303
v -0.46007258 0.25332249 0.16861303
v -0.03404821 0.25765383 0.17124218
v -0.46007258 0.25765383 0.17124218
v -0.03397725 0.26459386 0.17228192
v -0.46007258 0.25765383 0.17124218
v -0.03404821 0.25765383 0.17124218
v -0.46014345 0.26459386 0.17228192
v -0.45813838 0.34700681 0.18655040
v -0.03598241 0.34700681 0.18655040
v -0.02940386 0.26276217 0.18127550
v -0.02940386 0.25381592 0.17965883
v -0.46471694 0.25381592 0.17965883
v -0.46471694 0.26276283 0.18127550
v -0.46471694 0.34700681 0.19436294
v -0.02940386 0.34700681 0.19436294
v -0.02940386 0.25381592 0.17965883
v -0.02940386 0.24623093 0.17505499
v -0.46471694 0.24623093 0.17505499
v -0.46471694 0.25381592 0.17965883
v -0.46471694 0.24116278 0.16816473
v -0.02940386 0.24116278 0.16816473
v -0.46471694 0.23938314 0.16003731
v -0.02940386 0.23938314 0.16003731
v -0.46471694 0.23938314 -0.06396484
v -0.02940386 0.23938314 -0.06396484
v -0.02940386 0.24244537 -0.06910671
v -0.46471694 0.24244537 -0.06910671
v -0.02940386 0.34700681 -0.13119928
v -0.46471694 0.34700681 -0.13119928
v -0.46014345 0.26459386 0.17228192
v -0.45813838 0.34700681 0.18655040
v -0.45507596 0.34700681 -0.06361039
v -0.46007258 0.25765383 0.17124218
v -0.46007258 0.25332249 0.16861303
v -0.46007258 0.25042832 0.16467837
v -0.46012616 0.24939348 0.15914160
v -0.45737477 0.24697877 -0.06221807
v -0.45737477 0.24821121 -0.06428717
v -0.45508175 0.34700681 -0.06811909
v -0.45954789 0.34700681 -0.12117783
v -0.03903866 0.34700681 -0.06811909
v -0.03674593 0.24821121 -0.06428717
v -0.03457290 0.34700681 -0.12117783
v -0.03904455 0.34700681 -0.06361039
v -0.03674593 0.24697877 -0.06221807
v -0.03399463 0.24939348 0.15914160
v -0.03404821 0.25042832 0.16467837
v -0.03404821 0.25332249 0.16861303
v -0.03404821 0.25765383 0.17124218
v -0.03397725 0.26459386 0.17228192
v -0.03598241 0.34700681 0.18655040
v -0.03457290 0.34700681 -0.12117783
v -0.03674593 0.24821121 -0.06428717
v -0.45737477 0.24821121 -0.06428717
v -0.45954789 0.34700681 -0.12117783
v -0.46471694 0.34700681 -0.06910671
v -0.46471694 0.24244537 -0.06910671
v -0.46471694 0.34700681 -0.13119928
v -0.46471694 0.34700681 -0.06396484
v -0.46471694 0.23938314 -0.06396484
v -0.46471694 0.24116278 0.16816473
v -0.46471694 0.23938314 0.16003731
v -0.46471694 0.24623093 0.17505499
v -0.46471694 0.25381592 0.17965883
v -0.46471694 0.26276283 0.18127550
v -0.46471694 0.34700681 0.19436294
v -0.02940386 0.26276217 0.18127550
v -0.02940386 0.34700681 0.19436294
v -0.02940386 0.34700681 -0.06396484
v -0.02940386 0.25381592 0.17965883
v -0.02940386 0.24623093 0.17505499
v -0.02940386 0.24116278 0.16816473
v -0.02940386 0.23938314 0.16003731
v -0.02940386 0.23938314 -0.06396484
v -0.02940386 0.24244537 -0.06910671
v -0.02940386 0.34700681 -0.06910671
v -0.02940386 0.34700681 -0.13119928
v -0.00058456 -1.09377950 -0.02030493
v -0.00058456 -1.09377950 -0.02031443
v -0.00057506 -1.09377950 -0.02031443
v -0.00057506 -1.09377950 -0.02030493
v -0.00058456 -1.09377950 -0.02030493
v -0.00058456 -1.09377950 -0.02031443
v -0.00057506 -1.09377950 -0.02031443
v -0.00057506 -1.09377950 -0.02030493
v -0.00058456 -1.09377950 -0.02030493
v -0.00058456 -1.09377950 -0.02031443
v -0.00057506 -1.09377950 -0.02031443
v -0.00057506 -1.09377950 -0.02030493
v -0.00058456 -1.09377950 -0.02030493
v -0.00058456 -1.09377950 -0.02031443
v -0.00057506 -1.09377950 -0.02031443
v -0.00057506 -1.09377950 -0.02030493
v -0.45998699 0.36697295 -0.13267501
v -0.45748620 0.37246993 -0.13413317
v -0.03663459 0.37246993 -0.13413317
v -0.03413372 0.36697295 -0.13267501
v -0.45954789 0.34700681 -0.12117783
v -0.03457290 0.34700681 -0.12117783
v -0.45748620 0.37381181 0.19119124
v -0.03663459 0.37381181 0.19119124
v -0.02940386 0.37246993 0.19831848
v -0.46471694 0.37246993 0.19831848
v -0.46471694 0.37246993 0.21273960
v -0.02940386 0.37246993 0.21273960
v -0.45449114 0.37246993 -0.06910671
v -0.45449114 0.37246993 -0.06396484
v -0.46471694 0.37246993 -0.06396484
v -0.46471694 0.37246993 -0.06910671
v -0.45748620 0.37246993 -0.13413317
v -0.46471694 0.37246993 -0.14136400
v -0.03663459 0.37246993 -0.13413317
v -0.02940386 0.37246993 -0.14136400
v -0.03962966 0.37246993 -0.06910671
v -0.02940386 0.37246993 -0.06910671
v -0.03962966 0.37246993 -0.06396484
v -0.02940386 0.37246993 -0.06396484
v -0.46471694 0.36412380 -0.14136400
v -0.02940386 0.37246993 -0.14136400
v -0.46471694 0.37246993 -0.14136400
v -0.02940386 0.36412380 -0.14136400
v -0.02940386 0.34700681 -0.13119928
v -0.46471694 0.34700681 -0.13119928
v -0.45748620 0.37381181 0.19119124
v -0.45507596 0.34700681 -0.06361039
v -0.45813838 0.34700681 0.18655040
v -0.45449114 0.37246993 -0.06396484
v -0.45449114 0.37246993 -0.06910671
v -0.45508175 0.34700681 -0.06811909
v -0.45998699 0.36697295 -0.13267501
v -0.45954789 0.34700681 -0.12117783
v -0.45748620 0.37246993 -0.13413317
v -0.03413372 0.36697295 -0.13267501
v -0.03663459 0.37246993 -0.13413317
v -0.03962966 0.37246993 -0.06910671
v -0.03457290 0.34700681 -0.12117783
v -0.03903866 0.34700681 -0.06811909
v -0.03904455 0.34700681 -0.06361039
v -0.03962966 0.37246993 -0.06396484
v -0.03663459 0.37381181 0.19119124
v -0.03598241 0.34700681 0.18655040
v -0.45813838 0.34700681 0.18655040
v -0.03598241 0.34700681 0.18655040
v -0.03663459 0.37381181 0.19119124
v -0.45748620 0.37381181 0.19119124
v -0.46471694 0.34700681 0.20878379
v -0.46471694 0.37246993 0.21273960
v -0.02940386 0.37246993 0.21273960
v -0.02940386 0.34700681 0.20878379
v -0.46471694 0.36412380 -0.14136400
v -0.46471694 0.37246993 -0.14136400
v -0.46471694 0.37246993 -0.06910671
v -0.46471694 0.34700681 -0.13119928
v -0.46471694 0.34700681 -0.06910671
v -0.46471694 0.34700681 -0.06396484
v -0.46471694 0.37246993 -0.06396484
v -0.46471694 0.37246993 0.19831848
v -0.46471694 0.34700681 0.19436294
v -0.46471694 0.34700681 0.20878379
v -0.46471694 0.37246993 0.21273960
v -0.02940386 0.36412380 -0.14136400
v -0.02940386 0.34700681 -0.13119928
v -0.02940386 0.34700681 -0.06910671
v -0.02940386 0.37246993 -0.06910671
v -0.02940386 0.37246993 -0.14136400
v -0.02940386 0.37246993 -0.06396484
v -0.02940386 0.34700681 -0.06396484
v -0.02940386 0.34700681 0.19436294
v -0.02940386 0.37246993 0.19831848
v -0.02940386 0.37246993 0.21273960
v -0.02940386 0.34700681 0.20878379
v -0.46471694 0.34700681 0.19436294
v -0.46471694 0.34700681 0.20878379
v -0.02940386 0.34700681 0.20878379
v -0.02940386 0.34700681 0.19436294
vn 0.00000000 1.00000000 0.00000000
vn 0.00000000 1.00000000 0.00000000
vn 0.00000000 1.00000000 0.00000000
vn 0.00000000 1.00000000 0.00000000
vn 0.00000000 1.00000000 0.00000000
vn 0.00000000 1.00000000 0.00000000
vn 0.00000000 1.00000000 0.00000000
vn 0.00000000 1.00000000 0.00000000
vn 0.00000000 1.00000000 0.00000000
vn 0.00000000 1.00000000 0.00000000
vn 0.00000000 1.00000000 0.00000000
vn 0.00000000 1.00000000 0.00000000
vn 0.00000000 0.50763961 0.86156951
vn 0.00000000 0.99998558 -0.00537066
vn 0.00000000 0.50763961 0.86156951
vn 0.00000000 0.92394796 -0.38251818
vn 0.00000000 0.92394788 -0.38251839
vn 0.00000000 0.99988393 -0.01523595
vn 0.00000000 0.99988393 -0.01523594
vn 0.00000000 0.99998558 -0.00537067
vn 0.00000000 0.67240748 -0.74018118
vn 0.00000000 0.67240748 -0.74018118
vn 0.00000000 0.30890500 -0.95109290
vn 0.00000000 0.30890521 -0.95109283
vn 0.00000000 0.16884071 -0.98564335
vn 0.00000000 0.30890521 -0.95109283
vn 0.00000000 0.30890500 -0.95109290
vn 0.00000000 0.16884071 -0.98564335
vn 0.00000000 0.17059601 -0.98534106
vn 0.00000000 0.17059601 -0.98534106
vn -0.00000015 -0.15585661 0.98777969
vn 0.00000000 -0.35217549 0.93593398
vn 0.00000000 -0.35217549 0.93593398
vn -0.00000015 -0.15585661 0.98777969
vn -0.00000015 -0.15350961 0.98814716
vn -0.00000015 -0.15350961 0.98814716
vn 0.00000000 -0.35217549 0.93593398
vn 0.00000000 -0.67238998 0.74019708
vn 0.00000000 -0.67238998 0.74019708
vn 0.00000000 -0.35217549 0.93593398
vn 0.00000000 -0.90987089 0.41489150
vn 0.00000000 -0.90987089 0.41489150
vn 0.00000000 -0.99997061 0.00766640
vn 0.00000000 -0.99997061 0.00766640
vn 0.00000000 -0.99991072 -0.01336268
vn 0.00000000 -0.99991072 -0.01336268
vn 0.00000000 -0.52982660 -0.84810599
vn 0.00000000 -0.52982660 -0.84810599
vn 0.00000000 -0.51059475 -0.85982149
vn 0.00000000 -0.51059475 -0.85982149
vn 0.99964457 -0.02336950 0.01282983
vn 0.99963940 -0.02369774 0.01262915
vn 0.99964336 -0.02364451 0.01241353
vn 0.99964457 -0.02336950 0.01282982
vn 0.99964457 -0.02336950 0.01282983
vn 0.99964457 -0.02336950 0.01282983
vn 0.99964457 -0.02336949 0.01282983
vn 0.99964662 -0.02336827 0.01267111
vn 0.99810541 -0.02527815 -0.05609458
vn 0.99628954 -0.04268220 -0.07473543
vn 0.99521917 -0.05400578 -0.08137674
vn -0.99628981 -0.04268271 -0.07473158
vn -0.99810565 -0.02527465 -0.05609192
vn -0.99521937 -0.05400814 -0.08137278
vn -0.99964338 -0.02364387 0.01241289
vn -0.99964667 -0.02336644 0.01267049
vn -0.99964462 -0.02336768 0.01282923
vn -0.99964462 -0.02336768 0.01282923
vn -0.99964462 -0.02336768 0.01282923
vn -0.99964462 -0.02336768 0.01282923
vn -0.99964462 -0.02336768 0.01282923
vn -0.99963941 -0.02369727 0.01262855
vn 0.00000000 0.49901832 0.86659144
vn 0.00000000 0.50763961 0.86156951
vn 0.00000000 0.50763961 0.86156951
vn 0.00000000 0.49901828 0.86659146
vn -1.00000000 0.00000049 0.00000000
vn -1.00000000 0.00000000 0.00000000
vn -1.00000000 0.00000082 0.00000000
vn -1.00000000 0.00000023 0.00000000
vn -1.00000000 0.00000041 0.00000000
vn -1.00000000 0.00000041 0.00000000
vn -1.00000000 0.00000041 0.00000000
vn -1.00000000 0.00000041 0.00000000
vn -1.00000000 0.00000041 0.00000000
vn -1.00000000 0.00000041 0.00000000
vn -1.00000000 0.00000021 0.00000000
vn 1.00000000 0.00000000 0.00000000
vn 1.00000000 0.00000000 0.00000000
vn 1.00000000 0.00000000 0.00000000
vn 1.00000000 0.00000000 0.00000000
vn 1.00000000 0.00000000 0.00000000
vn 1.00000000 0.00000000 0.00000000
vn 1.00000000 0.00000000 0.00000000
vn 1.00000000 0.00000000 0.00000000
vn 1.00000000 0.00000000 0.00000000
vn 1.00000000 0.00000000 0.00000000
vn 1.00000000 0.00000000 0.00000000
vn 0.00000000 1.00000000 0.00000000
vn 0.00000000 1.00000000 0.00000000
vn 0.00000000 1.00000000 0.00000000
vn 0.00000000 1.00000000 0.00000000
vn 0.00000000 1.00000000 0.00000000
vn 0.00000000 1.00000000 0.00000000
vn 0.00000000 1.00000000 0.00000000
vn 0.00000000 1.00000000 0.00000000
vn 0.00000000 1.00000000 0.00000000
vn 0.00000000 1.00000000 0.00000000
vn 0.00000000 1.00000000 0.00000000
vn 0.00000000 1.00000000 0.00000000
vn 0.00000000 1.00000000 0.00000000
vn 0.00000000 1.00000000 0.00000000
vn 0.00000000 1.00000000 0.00000000
vn 0.00000000 1.00000000 0.00000000
vn 0.00000000 0.46356271 0.88606412
vn 0.00000000 0.25640128 0.96657042
vn 0.00000000 0.25640128 0.96657042
vn 0.00000000 0.46356279 0.88606407
vn 0.00000000 0.49901828 0.86659146
vn 0.00000000 0.49901832 0.86659144
vn -0.03294304 0.99377523 0.10642160
vn 0.03294310 0.99377521 0.10642170
vn 0.01001608 0.99944636 0.03172777
vn -0.01001606 0.99944636 0.03172774
vn 0.00000000 1.00000000 0.00000000
vn 0.00000000 1.00000000 0.00000000
vn 0.00000000 1.00000000 0.00000106
vn -0.07609672 0.99709603 -0.00296676
vn -0.07610971 0.99709503 -0.00296727
vn 0.00000000 1.00000000 0.00000107
vn 0.00000000 1.00000000 0.00000019
vn 0.00000000 1.00000000 0.00000019
vn 0.00000000 1.00000000 0.00000000
vn 0.00000000 1.00000000 0.00000000
vn 0.00000000 1.00000000 -0.00000053
vn 0.00000000 1.00000000 -0.00000053
vn 0.07609682 0.99709602 -0.00296647
vn 0.07610982 0.99709503 -0.00296697
vn 0.00000000 -0.37074550 -0.92873450
vn 0.00000000 0.00000000 -1.00000000
vn 0.00000000 0.00000000 -1.00000000
vn 0.00000000 -0.37074550 -0.92873450
vn 0.00000000 -0.51059475 -0.85982149
vn 0.00000000 -0.51059475 -0.85982149
vn 0.99962359 -0.02464763 0.01204840
vn 0.99964336 -0.02364451 0.01241353
vn 0.99963940 -0.02369774 0.01262915
vn 0.99962710 -0.02461879 0.01181402
vn 0.99454218 -0.07391832 -0.07363373
vn 0.99628954 -0.04268220 -0.07473543
vn 0.99381963 -0.07778328 -0.07919782
vn 0.99521917 -0.05400578 -0.08137674
vn 0.99381963 -0.07778328 -0.07919783
vn -0.99381925 -0.07779058 -0.07919545
vn -0.99381925 -0.07779057 -0.07919544
vn -0.99454176 -0.07392604 -0.07363176
vn -0.99521937 -0.05400814 -0.08137278
vn -0.99628981 -0.04268271 -0.07473158
vn -0.99964338 -0.02364387 0.01241289
vn -0.99962702 -0.02462240 0.01181337
vn -0.99962352 -0.02465105 0.01204780
vn -0.99963941 -0.02369727 0.01262855
vn 0.00000000 0.17059601 -0.98534106
vn 0.00000000 0.17059601 -0.98534106
vn 0.00000000 0.17059590 -0.98534108
vn 0.00000000 0.17059590 -0.98534108
vn 0.00000000 -0.15351279 0.98814666
vn 0.00000000 -0.15351279 0.98814666
vn 0.00000000 -0.15351279 0.98814666
vn 0.00000000 -0.15351279 0.98814666
vn -1.00000000 0.00000157 0.00000000
vn -1.00000000 0.00000157 0.00000000
vn -1.00000000 0.00000146 0.00000000
vn -1.00000000 0.00000082 0.00000000
vn -1.00000000 0.00000049 0.00000000
vn -1.00000000 0.00000023 0.00000000
vn -1.00000000 -0.00000046 0.00000000
vn -1.00000000 -0.00000044 0.00000000
vn -1.00000000 0.00000021 0.00000000
vn -1.00000000 0.00000000 0.00000000
vn -1.00000000 0.00000000 0.00000000
vn 1.00000000 0.00000000 0.00000000
vn 1.00000000 0.00000000 0.00000000
vn 1.00000000 0.00000000 0.00000000
vn 1.00000000 0.00000000 0.00000000
vn 1.00000000 0.00000000 0.00000000
vn 1.00000000 0.00000000 0.00000000
vn 1.00000000 0.00000000 0.00000000
vn 1.00000000 0.00000000 0.00000000
vn 1.00000000 0.00000000 0.00000000
vn 1.00000000 0.00000000 0.00000000
vn 1.00000000 0.00000000 0.00000000
vn 0.00000000 -1.00000000 0.00000000
vn 0.00000000 -1.00000000 0.00000000
vn 0.00000000 -1.00000000 0.00000000
vn 0.00000000 -1.00000000 0.00000000
vt -5.25307500 -117.08900000
vt -5.25307500 -115.37750000
vt -3.54152000 -115.37750000
vt -3.54152000 -117.08900000
vt 5.64693300 -120.60230000
vt 5.64693300 -118.89080000
vt 7.35848600 -118.89080000
vt 7.35848600 -120.60230000
vt -69.00050000 -111.67040000
vt -69.00050000 -111.67040000
vt -69.00049000 -111.67040000
vt -69.00049000 -111.67040000
vt -70.94262000 -0.97570080
vt -70.94805000 0.12872720
vt -70.94262000 0.12872720
vt -71.54380000 -0.98278420
vt -71.54380000 0.13581060
vt -71.52927000 0.13595120
vt -71.52927000 -0.98292480
vt -70.94805000 -0.97570080
vt -71.55413000 -0.98278420
vt -71.55413000 0.13581060
vt -71.56104000 -0.98278420
vt -71.56104000 0.13581060
vt -71.34840000 -0.98246350
vt -71.33019000 0.13534440
vt -71.33019000 -0.98227750
vt -71.34840000 0.13553050
vt -71.56460000 0.13027040
vt -71.56460000 -0.97720340
vt -71.65969000 -0.98851160
vt -71.68314000 -0.98851160
vt -71.68314000 0.15224220
vt -71.65969000 0.15224220
vt -71.43893000 0.15224220
vt -71.43893000 -0.98851160
vt -71.35804000 -1.04269200
vt -71.37125000 -1.04269200
vt -71.37125000 0.20642300
vt -71.35804000 0.20642300
vt -71.39102000 0.20642300
vt -71.39102000 -1.04269200
vt -71.41434000 0.20642300
vt -71.41434000 -1.04269200
vt -72.05711000 0.20642300
vt -72.05711000 -1.04269200
vt -72.07186000 -1.04269200
vt -72.07186000 0.20642300
vt -72.25003000 -1.04269200
vt -72.25003000 0.20642300
vt -71.57147000 0.38246010
vt -71.35676000 0.41963480
vt -71.35676000 -0.23212390
vt -71.58955000 0.37975150
vt -71.60084000 0.37290140
vt -71.60838000 0.36265030
vt -71.61107000 0.34822490
vt -71.61736000 -0.22849620
vt -71.61415000 -0.23388680
vt -71.35676000 -0.24387060
vt -71.35676000 -0.38210760
vt -71.47916000 0.28139690
vt -71.73656000 0.27141330
vt -71.47916000 0.41963340
vt -71.47916000 0.26965050
vt -71.73977000 0.26602270
vt -71.73347000 -0.31069650
vt -71.73078000 -0.32512180
vt -71.72324000 -0.33537310
vt -71.71196000 -0.34222300
vt -71.69388000 -0.34493200
vt -71.47916000 -0.38210620
vt -70.96465000 -0.51808080
vt -71.24105000 -0.51200120
vt -71.24105000 0.66481040
vt -70.96465000 0.67089020
vt -71.08881000 0.28069240
vt -71.36114000 0.28069240
vt -71.08881000 0.44240870
vt -71.08881000 0.26730100
vt -71.36911000 0.26730100
vt -71.36448000 -0.33726650
vt -71.36911000 -0.31609930
vt -71.35128000 -0.35521190
vt -71.33153000 -0.36720230
vt -71.30822000 -0.37141280
vt -71.08881000 -0.40549810
vt -71.43948000 0.40836460
vt -71.22008000 0.44244990
vt -71.22008000 -0.23035000
vt -71.46278000 0.40415360
vt -71.48254000 0.39216340
vt -71.49574000 0.37421810
vt -71.50037000 0.35305050
vt -71.50037000 -0.23035000
vt -71.49240000 -0.24374180
vt -71.22008000 -0.24374180
vt -71.22008000 -0.40545830
vt -88.71439000 -113.31290000
vt -88.71439000 -110.12650000
vt -85.53026000 -110.12650000
vt -85.53026000 -113.31290000
vt -116.58840000 -110.94040000
vt -116.58840000 -110.94030000
vt -116.58830000 -110.94030000
vt -116.58830000 -110.94040000
vt -143.95440000 -113.01000000
vt -143.95440000 -107.31050000
vt -138.25910000 -107.31050000
vt -138.25910000 -113.01000000
vt -169.52120000 -113.22000000
vt -169.52120000 -113.21990000
vt -169.52110000 -113.21990000
vt -169.52110000 -113.22000000
vt -170.19360000 0.66313400
vt -170.17730000 0.65572620
vt -170.17730000 -0.59086300
vt -170.19360000 -0.59827070
vt -170.25270000 0.66183330
vt -170.25270000 -0.59696980
vt -171.12010000 0.62857580
vt -171.12010000 -0.54740780
vt -171.14000000 -0.56761260
vt -171.14000000 0.64878070
vt -171.18030000 0.64878070
vt -171.18030000 -0.56761260
vt -170.39270000 0.62020670
vt -170.40710000 0.62020670
vt -170.40710000 0.64878070
vt -170.39270000 0.64878070
vt -170.21100000 0.62857580
vt -170.19080000 0.64878070
vt -170.21100000 -0.54740780
vt -170.19080000 -0.56761260
vt -170.39270000 -0.53903870
vt -170.39270000 -0.56761260
vt -170.40710000 -0.53903870
vt -170.40710000 -0.56761260
vt -170.36430000 0.68002400
vt -170.38880000 -0.59885600
vt -170.38880000 0.68002400
vt -170.36430000 -0.59885600
vt -170.31400000 -0.59885600
vt -170.31400000 0.68002400
vt -169.96440000 0.39972390
vt -170.03920000 -0.31132670
vt -170.03920000 0.38677350
vt -169.96820000 -0.31231590
vt -169.96820000 -0.32666450
vt -170.03920000 -0.32390850
vt -169.98350000 -0.50405870
vt -170.03920000 -0.47197460
vt -169.96820000 -0.50812780
vt -169.92890000 0.39578600
vt -169.91360000 0.39985650
vt -169.91360000 0.21834010
vt -169.98460000 0.36369220
vt -169.98460000 0.21558360
vt -169.98460000 0.20299750
vt -169.91360000 0.20398700
vt -169.90980000 -0.50826010
vt -169.98460000 -0.49530530
vt -170.12370000 0.62240170
vt -170.12370000 -0.56391080
vt -170.19900000 -0.56207820
vt -170.19900000 0.62056900
vt -170.33470000 0.65123140
vt -170.26320000 0.65123140
vt -170.26320000 -0.57006340
vt -170.33470000 -0.57006340
vt -170.09570000 0.46440760
vt -170.07240000 0.46440760
vt -170.07240000 0.26287780
vt -170.14340000 0.43605720
vt -170.14340000 0.26287780
vt -170.14340000 0.24853680
vt -170.07240000 0.24853680
vt -170.07240000 -0.48298740
vt -170.14340000 -0.47195520
vt -170.14340000 -0.51217570
vt -170.07240000 -0.52320870
vt -170.04320000 -0.52317980
vt -170.09100000 -0.49483140
vt -170.09100000 -0.32166140
vt -170.01990000 -0.32166140
vt -170.01990000 -0.52317980
vt -170.01990000 -0.30732160
vt -170.09100000 -0.30732160
vt -170.09100000 0.41312820
vt -170.01990000 0.42415990
vt -170.01990000 0.46437850
vt -170.09100000 0.45334640
vt -170.27610000 0.64741240
vt -170.23590000 0.64741240
vt -170.23590000 -0.56624440
vt -170.27610000 -0.56624440
f 3/3/3 2/2/2 1/1/1
f 4/4/4 3/3/3 1/1/1
f 7/7/7 6/6/6 5/5/5
f 8/8/8 7/7/7 5/5/5
f 11/11/11 10/10/10 9/9/9
f 12/12/12 11/11/11 9/9/9
f 15/15/15 14/14/14 13/13/13
f 18/18/18 17/17/17 16/16/16
f 19/19/19 18/18/18 16/16/16
f 18/18/18 19/19/19 14/14/14
f 19/19/19 20/20/20 14/14/14
f 14/14/14 20/20/20 13/13/13
f 17/17/17 22/22/22 21/21/21
f 16/16/16 17/17/17 21/21/21
f 22/22/22 24/24/24 23/23/23
f 21/21/21 22/22/22 23/23/23
f 27/27/27 26/26/26 25/25/25
f 26/26/26 28/28/28 25/25/25
f 28/28/28 29/29/29 25/25/25
f 29/29/29 30/30/30 25/25/25
f 33/33/33 32/32/32 31/31/31
f 34/34/34 33/33/33 31/31/31
f 34/34/34 31/31/31 35/35/35
f 31/31/31 36/36/36 35/35/35
f 39/39/39 38/38/38 37/37/37
f 40/40/40 39/39/39 37/37/37
f 39/39/39 41/41/41 38/38/38
f 41/41/41 42/42/42 38/38/38
f 41/41/41 43/43/43 42/42/42
f 43/43/43 44/44/44 42/42/42
f 44/44/44 43/43/43 45/45/45
f 46/46/46 44/44/44 45/45/45
f 46/46/46 45/45/45 47/47/47
f 45/45/45 48/48/48 47/47/47
f 47/47/47 48/48/48 49/49/49
f 48/48/48 50/50/50 49/49/49
f 53/53/53 52/52/52 51/51/51
f 53/53/53 51/51/51 54/54/54
f 53/53/53 54/54/54 55/55/55
f 53/53/53 55/55/55 56/56/56
f 53/53/53 56/56/56 57/57/57
f 57/57/57 58/58/58 53/53/53
f 58/58/58 59/59/59 53/53/53
f 59/59/59 60/60/60 53/53/53
f 59/59/59 61/61/61 60/60/60
f 64/64/64 63/63/63 62/62/62
f 62/62/62 63/63/63 65/65/65
f 63/63/63 66/66/66 65/65/65
f 65/65/65 66/66/66 67/67/67
f 67/67/67 68/68/68 65/65/65
f 68/68/68 69/69/69 65/65/65
f 69/69/69 70/70/70 65/65/65
f 70/70/70 71/71/71 65/65/65
f 71/71/71 72/72/72 65/65/65
f 75/75/75 74/74/74 73/73/73
f 76/76/76 75/75/75 73/73/73
f 79/79/79 78/78/78 77/77/77
f 77/77/77 78/78/78 80/80/80
f 78/78/78 81/81/81 80/80/80
f 82/82/82 80/80/80 81/81/81
f 81/81/81 83/83/83 82/82/82
f 82/82/82 84/84/84 80/80/80
f 84/84/84 85/85/85 80/80/80
f 85/85/85 86/86/86 80/80/80
f 86/86/86 87/87/87 80/80/80
f 90/90/90 89/89/89 88/88/88
f 90/90/90 88/88/88 91/91/91
f 90/90/90 91/91/91 92/92/92
f 90/90/90 92/92/92 93/93/93
f 90/90/90 93/93/93 94/94/94
f 94/94/94 95/95/95 90/90/90
f 95/95/95 96/96/96 90/90/90
f 96/96/96 97/97/97 90/90/90
f 97/97/97 96/96/96 98/98/98
f 101/101/101 100/100/100 99/99/99
f 102/102/102 101/101/101 99/99/99
f 105/105/105 104/104/104 103/103/103
f 106/106/106 105/105/105 103/103/103
f 109/109/109 108/108/108 107/107/107
f 110/110/110 109/109/109 107/107/107
f 113/113/113 112/112/112 111/111/111
f 114/114/114 113/113/113 111/111/111
f 117/117/117 116/116/116 115/115/115
f 118/118/118 117/117/117 115/115/115
f 115/115/115 119/119/119 118/118/118
f 119/119/119 120/120/120 118/118/118
f 123/123/123 122/122/122 121/121/121
f 124/124/124 123/123/123 121/121/121
f 124/124/124 125/125/125 123/123/123
f 125/125/125 126/126/126 123/123/123
f 129/129/129 128/128/128 127/127/127
f 130/130/130 129/129/129 127/127/127
f 130/130/130 127/127/127 131/131/131
f 132/132/132 130/130/130 131/131/131
f 132/132/132 131/131/131 133/133/133
f 134/134/134 132/132/132 133/133/133
f 134/134/134 133/133/133 135/135/135
f 136/136/136 134/134/134 135/135/135
f 136/136/136 135/135/135 137/137/137
f 138/138/138 136/136/136 137/137/137
f 138/138/138 137/137/137 122/122/122
f 123/123/123 138/138/138 122/122/122
f 124/124/124 121/121/121 128/128/128
f 129/129/129 124/124/124 128/128/128
f 141/141/141 140/140/140 139/139/139
f 140/140/140 142/142/142 139/139/139
f 139/139/139 142/142/142 143/143/143
f 144/144/144 139/139/139 143/143/143
f 147/147/147 146/146/146 145/145/145
f 146/146/146 148/148/148 145/145/145
f 148/148/148 146/146/146 149/149/149
f 146/146/146 150/150/150 149/149/149
f 151/151/151 149/149/149 150/150/150
f 150/150/150 152/152/152 151/151/151
f 151/151/151 153/153/153 149/149/149
f 156/156/156 155/155/155 154/154/154
f 156/156/156 154/154/154 157/157/157
f 157/157/157 158/158/158 156/156/156
f 158/158/158 159/159/159 156/156/156
f 159/159/159 160/160/160 156/156/156
f 160/160/160 159/159/159 161/161/161
f 159/159/159 162/162/162 161/161/161
f 165/165/165 164/164/164 163/163/163
f 166/166/166 165/165/165 163/163/163
f 169/169/169 168/168/168 167/167/167
f 170/170/170 169/169/169 167/167/167
f 173/173/173 172/172/172 171/171/171
f 173/173/173 171/171/171 174/174/174
f 174/174/174 175/175/175 173/173/173
f 173/173/173 175/175/175 176/176/176
f 177/177/177 173/173/173 176/176/176
f 177/177/177 176/176/176 178/178/178
f 176/176/176 179/179/179 178/178/178
f 179/179/179 180/180/180 178/178/178
f 180/180/180 181/181/181 178/178/178
f 184/184/184 183/183/183 182/182/182
f 182/182/182 185/185/185 184/184/184
f 182/182/182 186/186/186 185/185/185
f 185/185/185 187/187/187 184/184/184
f 187/187/187 188/188/188 184/184/184
f 189/189/189 188/188/188 187/187/187
f 190/190/190 189/189/189 187/187/187
f 190/190/190 191/191/191 189/189/189
f 191/191/191 192/192/192 189/189/189
f 195/195/195 194/194/194 193/193/193
f 196/196/196 195/195/195 193/193/193

