# https://github.com/mikedh/trimesh
v -0.00406889 0.02025864 0.00019631
v -0.00396543 0.02025864 0.00043312
v -0.00404625 0.02025864 0.00006026
v -0.00151737 0.01153032 -0.00019615
v -0.00151737 0.01153032 0.00019631
v -0.00148653 0.01156925 0.00039933
v -0.00364331 0.02025864 0.00057038
v -0.00112264 0.01153637 0.00120448
v -0.00113357 0.01176907 0.00121383
v -0.00400799 0.02025864 -0.00016961
v -0.00148653 0.01156925 -0.00039948
v -0.00117378 0.01149658 -0.00098139
v -0.00128779 0.01145765 -0.00019615
v -0.00128779 0.01145592 0.00019631
v -0.00117378 0.01149658 0.00098155
v -0.00325053 0.02025864 0.00069074
v -0.00089501 0.01176907 0.00131459
v -0.00089501 0.01149312 0.00125063
v -0.00008016 0.01176907 0.00154415
v -0.00014888 0.01176907 0.00152605
v -0.00050223 0.01176907 0.00143043
v -0.00392209 0.02025864 -0.00034216
v -0.00112264 0.01153637 -0.00120432
v -0.00089501 0.01149312 -0.00125048
v -0.00086065 0.01147063 -0.00094640
v -0.00089501 0.01142565 -0.00019615
v -0.00089501 0.01142305 0.00019631
v -0.00088525 0.01147063 0.00096948
v -0.00288508 0.02025864 0.00056917
v -0.00008016 0.01183135 0.00154023
v -0.00008016 0.01212634 0.00148201
v -0.00050223 0.01148015 0.00130252
v -0.00008016 0.01151907 0.00141082
v -0.00386860 0.02025864 -0.00043990
v -0.00113357 0.01176907 -0.00121367
v -0.00089501 0.01176907 -0.00131443
v -0.00008016 0.01169641 -0.00153766
v -0.00380300 0.02025864 -0.00051562
v -0.00364605 0.02025864 -0.00061668
v -0.00050223 0.01148534 -0.00129844
v -0.00008016 0.01152945 -0.00140795
v -0.00050223 0.01142392 -0.00019615
v -0.00050223 0.01142219 0.00019631
v -0.00253525 0.01962110 0.00055439
v -0.00260943 0.01992301 0.00047958
v -0.00267385 0.02018512 0.00036766
v -0.00268830 0.02025864 0.00032331
v -0.00008016 0.01215661 0.00146693
v -0.00182933 0.01834343 0.00047354
v -0.00177038 0.01805018 0.00054805
v -0.00214598 0.01883564 0.00055198
v -0.00008016 0.01151475 0.00139211
v -0.00349612 0.02025864 -0.00067641
v -0.00008016 0.01176907 -0.00153736
v -0.00008016 0.01144295 -0.00019615
v -0.00008016 0.01152513 -0.00138894
v -0.00008016 0.01145333 0.00019631
v -0.00252861 0.02003806 0.00022045
v -0.00259225 0.02025864 0.00012964
v -0.00228341 0.01939533 0.00036313
v -0.00008016 0.01251561 0.00128140
v -0.00156735 0.01805710 0.00018937
v -0.00175242 0.01846194 0.00021502
v -0.00189336 0.01860554 0.00035861
v -0.00008016 0.01253031 0.00127175
v -0.00008016 0.01271197 0.00114837
v -0.00325053 0.02025864 -0.00067007
v -0.00325053 0.02001384 -0.00070114
v -0.00008016 0.01212634 -0.00147703
v -0.00214012 0.01925000 0.00021773
v -0.00221860 0.01952681 0.00010129
v -0.00255321 0.02025864 -0.00019615
v -0.00145880 0.01793080 0.00005393
v -0.00182855 0.01873703 0.00009676
v -0.00008016 0.01273014 0.00113298
v -0.00310334 0.02025864 -0.00062120
v -0.00008016 0.01215661 -0.00146255
v -0.00284330 0.02025864 -0.00051381
v -0.00272695 0.02025864 -0.00046313
v -0.00262192 0.02025864 -0.00041637
v -0.00223968 0.01950346 -0.00041185
v -0.00184885 0.01871281 -0.00041094
v -0.00147169 0.01790312 -0.00040219
v -0.00230059 0.01975692 -0.00019615
v -0.00260592 0.02025864 -0.00038560
v -0.00106680 0.01675001 0.00005272
v -0.00145568 0.01794810 -0.00019615
v -0.00152479 0.01814447 -0.00019615
v -0.00008016 0.01295851 0.00092302
v -0.00008016 0.01329415 0.00057309
v -0.00166418 0.01844291 -0.00019615
v -0.00191250 0.01896453 -0.00019615
v -0.00008016 0.01251561 -0.00128155
v -0.00068769 0.01554241 -0.00040129
v -0.00008016 0.01271197 -0.00114218
v -0.00008016 0.01269727 -0.00115274
v -0.00067519 0.01557009 0.00005091
v -0.00067285 0.01558480 -0.00019615
v -0.00029569 0.01436162 -0.00040099
v -0.00008016 0.01355539 0.00021109
v -0.00028436 0.01438843 0.00004699
v -0.00008016 0.01359432 -0.00031199
v -0.00028202 0.01440228 -0.00019615
v -0.00008016 0.01370505 -0.00019615
v -0.00008016 0.01368342 -0.00013582
f 1 2 7
f 1 7 16
f 1 16 29
f 1 29 47
f 1 47 59
f 1 59 72
f 1 72 85
f 1 85 80
f 1 80 79
f 1 79 78
f 1 78 76
f 1 76 67
f 1 67 53
f 1 53 39
f 1 39 38
f 1 38 34
f 1 34 22
f 1 22 10
f 1 10 3
f 1 3 4
f 1 4 5
f 1 5 6
f 1 6 2
f 2 6 8
f 2 8 9
f 2 9 7
f 3 10 4
f 4 11 12
f 4 12 13
f 4 13 14
f 4 14 5
f 4 10 11
f 5 14 15
f 5 15 6
f 6 15 8
f 7 9 17
f 7 17 16
f 8 15 18
f 8 18 19
f 8 19 20
f 8 20 21
f 8 21 17
f 8 17 9
f 10 22 23
f 10 23 11
f 11 23 12
f 12 24 25
f 12 25 26
f 12 26 13
f 12 23 24
f 13 26 27
f 13 27 14
f 14 27 28
f 14 28 15
f 15 28 18
f 16 17 21
f 16 21 20
f 16 20 19
f 16 19 30
f 16 30 31
f 16 31 29
f 18 28 32
f 18 32 33
f 18 33 19
f 19 33 52
f 19 52 57
f 19 57 55
f 19 55 56
f 19 56 41
f 19 41 37
f 19 37 54
f 19 54 69
f 19 69 77
f 19 77 93
f 19 93 96
f 19 96 95
f 19 95 102
f 19 102 104
f 19 104 105
f 19 105 100
f 19 100 90
f 19 90 89
f 19 89 75
f 19 75 66
f 19 66 65
f 19 65 61
f 19 61 48
f 19 48 31
f 19 31 30
f 22 34 23
f 23 35 36
f 23 36 37
f 23 37 24
f 23 34 38
f 23 38 39
f 23 39 35
f 24 40 25
f 24 37 41
f 24 41 40
f 25 40 26
f 26 42 27
f 26 40 42
f 27 42 43
f 27 43 32
f 27 32 28
f 29 44 45
f 29 45 46
f 29 46 47
f 29 31 44
f 31 48 49
f 31 49 50
f 31 50 51
f 31 51 44
f 32 43 52
f 32 52 33
f 35 39 36
f 36 39 53
f 36 53 37
f 37 53 54
f 40 55 42
f 40 41 56
f 40 56 55
f 42 55 43
f 43 55 57
f 43 57 52
f 44 51 45
f 45 51 49
f 45 49 46
f 46 58 59
f 46 59 47
f 46 49 60
f 46 60 58
f 48 61 49
f 49 62 63
f 49 63 64
f 49 64 60
f 49 51 50
f 49 61 65
f 49 65 66
f 49 66 62
f 53 67 68
f 53 68 54
f 54 68 67
f 54 67 69
f 58 60 70
f 58 70 71
f 58 71 59
f 59 71 72
f 60 64 70
f 62 73 63
f 62 66 73
f 63 73 74
f 63 74 64
f 64 74 70
f 66 75 73
f 67 76 69
f 69 76 78
f 69 78 79
f 69 79 80
f 69 80 81
f 69 81 82
f 69 82 83
f 69 83 77
f 70 74 71
f 71 84 72
f 71 74 84
f 72 84 85
f 73 86 87
f 73 87 88
f 73 88 74
f 73 75 89
f 73 89 90
f 73 90 86
f 74 88 91
f 74 91 92
f 74 92 84
f 77 83 93
f 80 85 81
f 81 85 84
f 81 84 82
f 82 84 92
f 82 92 91
f 82 91 88
f 82 88 83
f 83 88 87
f 83 87 94
f 83 94 95
f 83 95 96
f 83 96 93
f 86 97 87
f 86 90 97
f 87 98 99
f 87 99 94
f 87 97 98
f 90 100 101
f 90 101 97
f 94 99 95
f 95 99 102
f 97 101 98
f 98 103 99
f 98 101 103
f 99 103 104
f 99 104 102
f 100 105 101
f 101 105 104
f 101 104 103

