# https://github.com/mikedh/trimesh
v 0.00555936 0.02540171 0.00002732
v 0.00555936 0.02538970 0.00010762
v 0.00555936 0.02538179 -0.00019624
v 0.00190670 0.02352687 -0.00019160
v 0.00190670 0.02351106 0.00015269
v 0.00190670 0.02350901 0.00019147
v 0.00555936 0.02534636 0.00021333
v 0.00555936 0.02533230 -0.00030946
v 0.00190670 0.02340505 -0.00042267
v 0.00555936 0.02528749 -0.00039905
v 0.00190670 0.02341032 0.00039988
v 0.00555936 0.02522043 0.00037967
v 0.00190670 0.02338689 0.00044235
v 0.00190670 0.02315525 -0.00053998
v 0.00555936 0.02510651 -0.00046897
v 0.00555936 0.02507254 0.00052361
v 0.00190670 0.02319302 0.00054450
v 0.00555936 0.02491762 0.00060855
v 0.00224637 0.02315525 -0.00057617
v 0.00190670 0.02275960 -0.00054695
v 0.00555936 0.02472551 -0.00059789
v 0.00190670 0.02315525 0.00055720
v 0.00555936 0.02472551 0.00066755
v 0.00263931 0.02315525 -0.00059898
v 0.00555936 0.02433309 -0.00067286
v 0.00190670 0.02254231 -0.00042977
v 0.00460186 0.02240994 -0.00067819
v 0.00190670 0.02281583 0.00054573
v 0.00224637 0.02315525 0.00059094
v 0.00555936 0.02450500 0.00070661
v 0.00538738 0.02354796 -0.00068857
v 0.00499480 0.02276283 -0.00068843
v 0.00555936 0.02394038 -0.00067013
v 0.00190670 0.02243337 -0.00019583
v 0.00501232 0.02240994 -0.00059188
v 0.00417066 0.02240994 -0.00053766
v 0.00190670 0.02275843 0.00053044
v 0.00460186 0.02240994 0.00068640
v 0.00460186 0.02276283 0.00070060
v 0.00538738 0.02433309 0.00070511
v 0.00538738 0.02394038 0.00070156
v 0.00555936 0.02411228 0.00069159
v 0.00555936 0.02355645 -0.00062711
v 0.00542313 0.02312186 -0.00058942
v 0.00190670 0.02241580 0.00019981
v 0.00531980 0.02276283 -0.00054299
v 0.00509884 0.02240994 -0.00053712
v 0.00391073 0.02240994 -0.00043196
v 0.00190670 0.02252415 0.00041749
v 0.00464190 0.02240994 0.00067998
v 0.00499480 0.02315525 0.00069691
v 0.00190670 0.02242985 0.00023422
v 0.00421321 0.02240994 0.00058902
v 0.00538738 0.02354796 0.00066113
v 0.00555936 0.02371986 0.00063655
v 0.00555936 0.02318541 -0.00053466
v 0.00379167 0.02240994 -0.00019624
v 0.00379846 0.02240994 -0.00015541
v 0.00387962 0.02240994 0.00021278
v 0.00400548 0.02240994 0.00040520
v 0.00418890 0.02240994 0.00057837
v 0.00523757 0.02248843 -0.00046801
v 0.00528262 0.02240994 -0.00030031
v 0.00499480 0.02240994 0.00055857
v 0.00499480 0.02276283 0.00063860
v 0.00538738 0.02315525 0.00057714
v 0.00555936 0.02329611 0.00054259
v 0.00555936 0.02298715 -0.00040628
v 0.00555936 0.02289520 -0.00033226
v 0.00533625 0.02240994 -0.00020266
v 0.00503734 0.02240994 0.00054163
v 0.00555936 0.02295728 0.00046024
v 0.00555936 0.02277571 -0.00019460
v 0.00541491 0.02240994 0.00019625
v 0.00529048 0.02240994 0.00043743
v 0.00555936 0.02284570 0.00043115
v 0.00555936 0.02264979 0.00019625
v 0.00554613 0.02262665 0.00019625
v 0.00555936 0.02267204 0.00023490
v 0.00531909 0.02240994 0.00039633
f 1 2 7
f 1 7 12
f 1 12 16
f 1 16 18
f 1 18 23
f 1 23 30
f 1 30 42
f 1 42 55
f 1 55 67
f 1 67 72
f 1 72 76
f 1 76 79
f 1 79 77
f 1 77 73
f 1 73 69
f 1 69 68
f 1 68 56
f 1 56 43
f 1 43 33
f 1 33 25
f 1 25 21
f 1 21 15
f 1 15 10
f 1 10 8
f 1 8 3
f 1 3 4
f 1 4 5
f 1 5 6
f 1 6 2
f 2 6 7
f 3 8 4
f 4 9 14
f 4 14 20
f 4 20 26
f 4 26 34
f 4 34 45
f 4 45 52
f 4 52 49
f 4 49 37
f 4 37 28
f 4 28 22
f 4 22 17
f 4 17 13
f 4 13 11
f 4 11 6
f 4 6 5
f 4 8 10
f 4 10 9
f 6 11 7
f 7 11 13
f 7 13 12
f 9 10 14
f 10 15 14
f 12 13 16
f 13 17 18
f 13 18 16
f 14 19 20
f 14 15 21
f 14 21 19
f 17 22 18
f 18 22 23
f 19 24 20
f 19 21 25
f 19 25 24
f 20 24 27
f 20 27 26
f 22 28 29
f 22 29 30
f 22 30 23
f 24 25 31
f 24 31 32
f 24 32 27
f 25 33 31
f 26 27 34
f 27 32 35
f 27 35 47
f 27 47 63
f 27 63 70
f 27 70 74
f 27 74 80
f 27 80 75
f 27 75 71
f 27 71 64
f 27 64 50
f 27 50 38
f 27 38 53
f 27 53 61
f 27 61 60
f 27 60 59
f 27 59 58
f 27 58 57
f 27 57 48
f 27 48 36
f 27 36 34
f 28 37 38
f 28 38 29
f 29 38 39
f 29 39 40
f 29 40 30
f 30 40 39
f 30 39 41
f 30 41 42
f 31 33 43
f 31 43 32
f 32 43 44
f 32 44 35
f 34 36 45
f 35 44 46
f 35 46 47
f 36 48 45
f 37 49 38
f 38 50 51
f 38 51 39
f 38 49 52
f 38 52 45
f 38 45 53
f 39 51 41
f 41 51 42
f 42 51 54
f 42 54 55
f 43 56 44
f 44 56 46
f 45 57 58
f 45 58 59
f 45 59 60
f 45 60 61
f 45 61 53
f 45 48 57
f 46 62 47
f 46 56 62
f 47 62 63
f 50 64 65
f 50 65 54
f 50 54 51
f 54 65 55
f 55 65 66
f 55 66 67
f 56 68 62
f 62 68 69
f 62 69 63
f 63 69 70
f 64 71 67
f 64 67 66
f 64 66 65
f 67 71 72
f 69 73 70
f 70 73 74
f 71 75 72
f 72 75 76
f 73 77 78
f 73 78 74
f 74 78 79
f 74 79 80
f 75 80 76
f 76 80 79
f 77 79 78

