# https://github.com/mikedh/trimesh
v -0.00255247 0.02380365 -0.00019402
v -0.00255247 0.02374277 -0.00037810
v -0.00255247 0.02380189 0.00012931
v 0.00190670 0.02352652 -0.00019155
v -0.00255247 0.02366340 -0.00042904
v 0.00190670 0.02340491 -0.00042267
v -0.00255247 0.02371224 0.00032553
v 0.00190670 0.02350885 0.00019145
v 0.00190670 0.02351078 0.00015266
v -0.00255247 0.02356637 -0.00047278
v 0.00190670 0.02315509 -0.00054000
v -0.00255247 0.02352154 0.00052611
v 0.00190670 0.02338676 0.00044239
v 0.00190670 0.02341005 0.00039994
v -0.00255247 0.02324217 -0.00058103
v 0.00190670 0.02275956 -0.00054696
v 0.00185345 0.02276261 -0.00055415
v 0.00146061 0.02276261 -0.00058516
v 0.00106821 0.02276261 -0.00059542
v 0.00067537 0.02276261 -0.00060108
v -0.00246517 0.02315509 -0.00059837
v -0.00255247 0.02315509 0.00058330
v -0.00246517 0.02315509 0.00059096
v -0.00207277 0.02315509 0.00059592
v 0.00190670 0.02315509 0.00055724
v 0.00190670 0.02319285 0.00054450
v -0.00255247 0.02315509 -0.00059365
v 0.00190670 0.02254236 -0.00042986
v 0.00185345 0.02253593 -0.00043930
v 0.00146061 0.02250332 -0.00048387
v 0.00106821 0.02248404 -0.00050238
v 0.00067537 0.02246476 -0.00051665
v 0.00028297 0.02244805 -0.00052585
v 0.00028297 0.02276261 -0.00060297
v -0.00050184 0.02276261 -0.00060002
v -0.00089468 0.02276261 -0.00059306
v -0.00128709 0.02276261 -0.00058080
v -0.00010987 0.02276261 -0.00060261
v -0.00255247 0.02283748 0.00044981
v -0.00167993 0.02276261 0.00052835
v -0.00128709 0.02276261 0.00056349
v -0.00089468 0.02276261 0.00058059
v -0.00050184 0.02276261 0.00059368
v -0.00010987 0.02276261 0.00060111
v 0.00028297 0.02276261 0.00060169
v 0.00067537 0.02276261 0.00059615
v 0.00106821 0.02276261 0.00058448
v 0.00146061 0.02276261 0.00056938
v 0.00190670 0.02281563 0.00054580
v -0.00255247 0.02291716 -0.00052962
v 0.00190670 0.02243343 -0.00019591
v 0.00185345 0.02242026 -0.00019626
v 0.00146061 0.02235391 -0.00019626
v 0.00106821 0.02231503 -0.00019626
v 0.00028297 0.02225173 -0.00021773
v -0.00010987 0.02245062 -0.00052443
v -0.00050184 0.02247006 -0.00051323
v -0.00089468 0.02248934 -0.00049790
v -0.00128709 0.02251007 -0.00047573
v -0.00207277 0.02279715 -0.00052903
v -0.00246517 0.02284937 -0.00051618
v -0.00255247 0.02265160 0.00020608
v -0.00219498 0.02258573 0.00034805
v -0.00193353 0.02255666 0.00039935
v -0.00206753 0.02273498 0.00046668
v -0.00167993 0.02252870 0.00041515
v -0.00128709 0.02249239 0.00043342
v -0.00089468 0.02246717 0.00044345
v -0.00050184 0.02244275 0.00045217
v -0.00010987 0.02241833 0.00046055
v 0.00028297 0.02241512 0.00046172
v 0.00146061 0.02248404 0.00043696
v 0.00185345 0.02276261 0.00053873
v 0.00067537 0.02243617 0.00045453
v 0.00190670 0.02275828 0.00053047
v -0.00255247 0.02286126 -0.00050592
v 0.00190670 0.02241576 0.00019983
v 0.00185345 0.02240259 0.00019629
v 0.00049510 0.02217205 -0.00000347
v 0.00064569 0.02225655 -0.00015912
v 0.00028297 0.02216418 -0.00002151
v -0.00002476 0.02216241 -0.00002505
v -0.00013737 0.02223936 -0.00017209
v -0.00050184 0.02228660 -0.00019626
v -0.00089468 0.02232564 -0.00019626
v -0.00128709 0.02236821 -0.00019626
v -0.00159743 0.02253625 -0.00043918
v -0.00233335 0.02254927 0.00008627
v -0.00255247 0.02265578 0.00011846
v -0.00233335 0.02254927 -0.00003943
v -0.00206753 0.02251906 0.00020879
v -0.00167993 0.02242492 0.00019629
v -0.00128709 0.02235054 0.00019629
v -0.00089468 0.02230346 0.00019629
v -0.00013737 0.02221350 0.00019676
v 0.00028297 0.02221880 0.00025442
v 0.00185345 0.02251842 0.00042069
v 0.00190670 0.02252420 0.00041751
v -0.00255247 0.02270365 -0.00024520
v -0.00185932 0.02257256 -0.00038210
v 0.00190670 0.02242958 0.00023426
v 0.00146061 0.02233463 0.00019629
v 0.00049510 0.02217205 0.00001127
v 0.00028297 0.02216418 0.00005809
v -0.00002476 0.02216241 0.00006611
v -0.00170917 0.02246524 -0.00022916
v -0.00255247 0.02267152 -0.00018424
v -0.00246430 0.02264630 -0.00018070
v -0.00207277 0.02251456 -0.00011985
v -0.00207277 0.02260084 -0.00031619
f 1 2 5
f 1 5 10
f 1 10 15
f 1 15 27
f 1 27 50
f 1 50 76
f 1 76 99
f 1 99 107
f 1 107 89
f 1 89 62
f 1 62 39
f 1 39 22
f 1 22 12
f 1 12 7
f 1 7 3
f 1 3 4
f 1 4 2
f 2 4 6
f 2 6 5
f 3 7 8
f 3 8 9
f 3 9 4
f 4 9 8
f 4 8 14
f 4 14 13
f 4 13 26
f 4 26 25
f 4 25 49
f 4 49 75
f 4 75 98
f 4 98 101
f 4 101 77
f 4 77 51
f 4 51 28
f 4 28 16
f 4 16 11
f 4 11 6
f 5 6 11
f 5 11 10
f 7 12 13
f 7 13 14
f 7 14 8
f 10 11 15
f 11 16 17
f 11 17 18
f 11 18 19
f 11 19 20
f 11 20 21
f 11 21 15
f 12 22 23
f 12 23 24
f 12 24 25
f 12 25 26
f 12 26 13
f 15 21 27
f 16 28 29
f 16 29 30
f 16 30 17
f 17 30 18
f 18 30 31
f 18 31 32
f 18 32 33
f 18 33 19
f 19 33 20
f 20 33 34
f 20 34 21
f 21 35 36
f 21 36 37
f 21 37 27
f 21 34 38
f 21 38 35
f 22 39 40
f 22 40 41
f 22 41 23
f 23 41 42
f 23 42 43
f 23 43 44
f 23 44 24
f 24 44 45
f 24 45 25
f 25 45 46
f 25 46 47
f 25 47 48
f 25 48 49
f 27 37 50
f 28 51 52
f 28 52 29
f 29 52 53
f 29 53 30
f 30 53 54
f 30 54 55
f 30 55 31
f 31 55 32
f 32 55 33
f 33 55 56
f 33 56 38
f 33 38 34
f 35 38 56
f 35 56 36
f 36 56 37
f 37 56 57
f 37 57 58
f 37 58 59
f 37 59 60
f 37 60 61
f 37 61 50
f 39 62 63
f 39 63 64
f 39 64 65
f 39 65 40
f 40 64 66
f 40 66 67
f 40 67 41
f 40 65 64
f 41 67 68
f 41 68 69
f 41 69 70
f 41 70 42
f 42 70 43
f 43 70 44
f 44 70 71
f 44 71 45
f 45 71 46
f 46 71 47
f 47 71 48
f 48 72 73
f 48 73 49
f 48 71 74
f 48 74 72
f 49 73 75
f 50 61 76
f 51 77 78
f 51 78 52
f 52 78 79
f 52 79 53
f 53 79 80
f 53 80 54
f 54 80 55
f 55 80 79
f 55 79 81
f 55 81 82
f 55 82 83
f 55 83 56
f 56 83 57
f 57 83 58
f 58 83 59
f 59 83 84
f 59 84 85
f 59 85 86
f 59 86 87
f 59 87 61
f 59 61 60
f 61 87 76
f 62 88 63
f 62 89 90
f 62 90 88
f 63 88 91
f 63 91 92
f 63 92 64
f 64 92 93
f 64 93 66
f 66 93 67
f 67 93 94
f 67 94 95
f 67 95 96
f 67 96 68
f 68 96 69
f 69 96 70
f 70 96 71
f 71 96 74
f 72 97 73
f 72 74 96
f 72 96 97
f 73 97 98
f 73 98 75
f 76 87 100
f 76 100 99
f 77 101 78
f 78 101 102
f 78 102 79
f 79 103 104
f 79 104 81
f 79 102 103
f 81 104 105
f 81 105 82
f 82 105 93
f 82 93 86
f 82 86 85
f 82 85 83
f 83 85 84
f 86 93 90
f 86 90 106
f 86 106 87
f 87 106 100
f 88 92 91
f 88 90 92
f 89 107 90
f 90 108 109
f 90 109 106
f 90 93 92
f 90 107 108
f 93 105 94
f 94 105 95
f 95 105 96
f 96 105 104
f 96 104 103
f 96 103 102
f 96 102 97
f 97 102 98
f 98 102 101
f 99 100 107
f 100 106 109
f 100 109 110
f 100 110 107
f 107 110 108
f 108 110 109

