# https://github.com/mikedh/trimesh
v -0.01053601 0.04159620 0.00019631
v -0.01049245 0.04159620 -0.00015146
v -0.01051336 0.04159620 0.00031337
v -0.01049419 0.04174580 0.00019631
v -0.01045934 0.04159620 -0.00021399
v -0.01015848 0.04270020 -0.00007999
v -0.01034202 0.04200260 -0.00019628
v -0.01045702 0.04163940 -0.00020136
v -0.01036583 0.04159620 0.00046261
v -0.01013873 0.04266340 0.00040531
v -0.00974609 0.04384021 0.00040547
v -0.00935345 0.04501622 0.00040562
v -0.01009923 0.04292341 0.00019631
v -0.01025141 0.04159620 -0.00055868
v -0.01024967 0.04160980 -0.00055822
v -0.00970427 0.04409461 0.00019631
v -0.00936855 0.04504182 -0.00007014
v -0.00930931 0.04486662 -0.00033197
v -0.01009865 0.04252260 -0.00034182
v -0.01014279 0.04226100 -0.00043285
v -0.01018694 0.04200260 -0.00049861
v -0.00993950 0.04159620 0.00064758
v -0.00992556 0.04160980 0.00065251
v -0.01034434 0.04161140 0.00047046
v -0.00995112 0.04279140 0.00047308
v -0.00914029 0.04475142 0.00054778
v -0.00916468 0.04514582 0.00047416
v -0.00906304 0.04553622 0.00045583
v -0.00899624 0.04582983 0.00042503
v -0.00920708 0.04553622 0.00019631
v -0.00930873 0.04526582 0.00019631
v -0.00992556 0.04159620 -0.00068004
v -0.00992556 0.04200260 -0.00065094
v -0.00992556 0.04160980 -0.00068020
v -0.00985703 0.04278821 -0.00056145
v -0.00855481 0.04573623 -0.00078647
v -0.00914319 0.04553622 -0.00019628
v -0.00895849 0.04575382 -0.00042237
v -0.00935345 0.04460422 -0.00042653
v -0.00979081 0.04318101 -0.00049692
v -0.00899915 0.04553622 -0.00049245
v -0.00939469 0.04435862 -0.00049522
v -0.00906594 0.04514422 -0.00056807
v -0.00992556 0.04159620 0.00065328
v -0.00992556 0.04200260 0.00060138
v -0.00953293 0.04239540 0.00068640
v -0.00914029 0.04357301 0.00069564
v -0.00874765 0.04475142 0.00070365
v -0.00953293 0.04278821 0.00065713
v -0.00992556 0.04239540 0.00054516
v -0.00953293 0.04357301 0.00054670
v -0.00914029 0.04435862 0.00060523
v -0.00874765 0.04514422 0.00066314
v -0.00874765 0.04553622 0.00059676
v -0.00876972 0.04594743 0.00048263
v -0.00865356 0.04624663 0.00043196
v -0.00816508 0.04691703 0.00039669
v -0.00891028 0.04608503 0.00019631
v -0.00903864 0.04588903 0.00019631
v -0.00901018 0.04583223 -0.00019628
v -0.00953293 0.04159620 -0.00054990
v -0.00855481 0.04572582 -0.00078647
v -0.00854726 0.04572582 -0.00078647
v -0.00461972 0.04926345 -0.00078585
v -0.00460288 0.04924665 -0.00077800
v -0.00854726 0.04573623 -0.00078647
v -0.00870234 0.04587623 -0.00056684
v -0.00834688 0.04630663 -0.00055067
v -0.00783227 0.04698503 -0.00048752
v -0.00745531 0.04739464 -0.00050231
v -0.00707777 0.04780424 -0.00051355
v -0.00670024 0.04820664 -0.00052110
v -0.00681292 0.04791784 -0.00060827
v -0.00642144 0.04831624 -0.00059842
v -0.00462785 0.04926665 -0.00078585
v -0.00886149 0.04602823 -0.00019628
v -0.00858792 0.04616663 -0.00044948
v -0.00950679 0.04159620 0.00056195
v -0.00953293 0.04200260 0.00066222
v -0.00914029 0.04396581 0.00066068
v -0.00953293 0.04318101 0.00060354
v -0.00501178 0.04847784 0.00078666
v -0.00737342 0.04651623 0.00078543
v -0.00737458 0.04651623 0.00078543
v -0.00737458 0.04651783 0.00078543
v -0.00835501 0.04553622 0.00070519
v -0.00835501 0.04592823 0.00063511
v -0.00838928 0.04635463 0.00049295
v -0.00825569 0.04671383 0.00042919
v -0.00817321 0.04692663 0.00019631
v -0.00836256 0.04671383 0.00019631
v -0.00854378 0.04650903 0.00019631
v -0.00871396 0.04631303 0.00019631
v -0.00793275 0.04707143 0.00043073
v -0.00754650 0.04747064 0.00044028
v -0.00716083 0.04787064 0.00044921
v -0.00701911 0.04813224 0.00041255
v -0.00687332 0.04836584 0.00019631
v -0.00705280 0.04816984 0.00019631
v -0.00817147 0.04692503 -0.00002208
v -0.00952479 0.04159620 -0.00054620
v -0.00461972 0.04926665 -0.00078585
v -0.00460288 0.04924985 -0.00077800
v -0.00460288 0.04867705 -0.00059118
v -0.00821038 0.04657543 -0.00046966
v -0.00696219 0.04806664 -0.00035984
v -0.00657188 0.04846904 -0.00037370
v -0.00630992 0.04854584 -0.00049661
v -0.00478351 0.04934745 -0.00058209
v -0.00460288 0.04962585 -0.00032765
v -0.00460288 0.04928745 -0.00076799
v -0.00866517 0.04625303 -0.00019628
v -0.00950388 0.04159620 0.00056103
v -0.00460288 0.04865385 0.00063526
v -0.00460288 0.04889545 0.00071012
v -0.00501178 0.04848584 0.00078666
v -0.00697671 0.04690423 0.00078697
v -0.00718000 0.04671143 0.00078620
v -0.00698717 0.04691703 0.00078697
v -0.00753140 0.04667463 0.00068917
v -0.00796237 0.04632103 0.00065082
v -0.00639240 0.04789144 0.00069364
v -0.00674903 0.04746344 0.00070765
v -0.00678504 0.04789144 0.00057920
v -0.00796237 0.04671383 0.00053300
v -0.00756973 0.04710663 0.00054871
v -0.00677458 0.04827144 0.00045706
v -0.00663751 0.04851784 0.00041548
v -0.00667701 0.04855144 0.00019631
v -0.00665784 0.04853784 -0.00011188
v -0.00703828 0.04815224 -0.00009801
v -0.00741640 0.04774344 -0.00007245
v -0.00927620 0.04159620 -0.00042869
v -0.00460288 0.04834584 -0.00045041
v -0.00681001 0.04831064 -0.00023586
v -0.00638485 0.04867304 -0.00018811
v -0.00506870 0.04929545 -0.00044655
v -0.00619840 0.04887465 -0.00000237
v -0.00460288 0.04964585 -0.00028807
v -0.00932964 0.04159620 0.00040408
v -0.00460288 0.04855144 0.00058367
v -0.00460288 0.04906985 0.00067377
v -0.00502862 0.04848584 0.00078666
v -0.00659395 0.04730904 0.00078635
v -0.00580460 0.04808904 0.00078558
v -0.00639240 0.04828424 0.00057535
v -0.00639240 0.04860424 0.00044936
v -0.00543230 0.04927705 0.00040085
v -0.00619027 0.04886985 0.00032045
v -0.00635407 0.04877065 0.00019231
v -0.00917688 0.04159620 -0.00019628
v -0.00460288 0.04820584 -0.00019628
v -0.00619840 0.04887465 0.00005878
v -0.00460288 0.04976825 0.00019631
v -0.00469348 0.04969785 -0.00007861
v -0.00460288 0.04972745 -0.00012358
v -0.00923845 0.04159620 0.00021449
v -0.00460288 0.04843704 0.00047570
v -0.00460288 0.04928825 0.00059691
v -0.00482185 0.04906985 0.00063388
v -0.00596143 0.04824584 0.00069271
v -0.00603577 0.04871385 0.00049249
v -0.00521449 0.04906985 0.00054301
v -0.00460288 0.04946505 0.00052191
v -0.00460288 0.04962345 0.00045244
v -0.00460288 0.04970185 0.00041764
v -0.00467374 0.04968185 0.00040855
v -0.00460288 0.04973545 0.00034725
v -0.00917746 0.04159620 -0.00018503
v -0.00460288 0.04823464 -0.00004919
v -0.00460288 0.04828664 0.00019939
v -0.00460288 0.04840024 0.00041918
v -0.00560712 0.04867705 0.00060846
f 1 2 5
f 1 5 14
f 1 14 32
f 1 32 61
f 1 61 101
f 1 101 133
f 1 133 151
f 1 151 169
f 1 169 157
f 1 157 140
f 1 140 113
f 1 113 78
f 1 78 44
f 1 44 22
f 1 22 9
f 1 9 3
f 1 3 4
f 1 4 2
f 2 4 6
f 2 6 7
f 2 7 8
f 2 8 5
f 3 9 10
f 3 10 4
f 4 10 11
f 4 11 12
f 4 12 13
f 4 13 6
f 5 8 15
f 5 15 14
f 6 13 16
f 6 16 17
f 6 17 18
f 6 18 7
f 7 19 20
f 7 20 8
f 7 18 19
f 8 20 21
f 8 21 15
f 9 22 23
f 9 23 24
f 9 24 10
f 10 24 25
f 10 25 26
f 10 26 11
f 11 26 12
f 12 16 13
f 12 26 27
f 12 27 28
f 12 28 29
f 12 29 30
f 12 30 31
f 12 31 16
f 14 15 33
f 14 33 34
f 14 34 32
f 15 21 35
f 15 35 36
f 15 36 33
f 16 31 17
f 17 31 30
f 17 30 37
f 17 37 18
f 18 37 38
f 18 38 39
f 18 39 19
f 19 39 20
f 20 40 21
f 20 39 41
f 20 41 42
f 20 42 40
f 21 40 43
f 21 43 35
f 22 44 23
f 23 45 24
f 23 44 46
f 23 46 47
f 23 47 48
f 23 48 49
f 23 49 45
f 24 45 50
f 24 50 25
f 25 50 51
f 25 51 26
f 26 52 53
f 26 53 27
f 26 51 52
f 27 53 28
f 28 53 54
f 28 54 29
f 29 54 55
f 29 55 56
f 29 56 57
f 29 57 58
f 29 58 59
f 29 59 30
f 30 59 60
f 30 60 37
f 32 34 62
f 32 62 63
f 32 63 64
f 32 64 65
f 32 65 61
f 33 36 34
f 34 36 62
f 35 43 36
f 36 66 63
f 36 63 62
f 36 43 41
f 36 41 38
f 36 38 67
f 36 67 68
f 36 68 69
f 36 69 70
f 36 70 71
f 36 71 72
f 36 72 73
f 36 73 74
f 36 74 75
f 36 75 102
f 36 102 66
f 37 60 38
f 38 60 76
f 38 76 77
f 38 77 67
f 38 41 39
f 40 42 43
f 41 43 42
f 44 78 79
f 44 79 46
f 45 49 80
f 45 80 53
f 45 53 81
f 45 81 50
f 46 79 82
f 46 82 83
f 46 83 84
f 46 84 85
f 46 85 47
f 47 85 48
f 48 86 53
f 48 53 80
f 48 80 49
f 48 85 86
f 50 81 52
f 50 52 51
f 52 81 53
f 53 86 54
f 54 86 87
f 54 87 55
f 55 87 88
f 55 88 56
f 56 88 89
f 56 89 57
f 57 90 91
f 57 91 92
f 57 92 93
f 57 93 58
f 57 89 94
f 57 94 95
f 57 95 96
f 57 96 97
f 57 97 98
f 57 98 99
f 57 99 90
f 58 76 60
f 58 60 59
f 58 93 100
f 58 100 76
f 61 65 101
f 63 66 102
f 63 102 64
f 64 102 103
f 64 103 65
f 65 103 111
f 65 111 110
f 65 110 139
f 65 139 156
f 65 156 154
f 65 154 168
f 65 168 166
f 65 166 165
f 65 165 164
f 65 164 159
f 65 159 142
f 65 142 115
f 65 115 114
f 65 114 141
f 65 141 158
f 65 158 172
f 65 172 171
f 65 171 170
f 65 170 152
f 65 152 134
f 65 134 104
f 65 104 101
f 67 77 105
f 67 105 69
f 67 69 68
f 69 105 106
f 69 106 70
f 70 106 71
f 71 106 72
f 72 106 107
f 72 107 108
f 72 108 74
f 72 74 73
f 74 108 75
f 75 108 109
f 75 109 110
f 75 110 111
f 75 111 102
f 76 100 112
f 76 112 77
f 77 112 106
f 77 106 105
f 78 113 82
f 78 82 79
f 82 114 115
f 82 115 116
f 82 116 117
f 82 117 83
f 82 113 114
f 83 117 84
f 84 117 118
f 84 118 119
f 84 119 85
f 85 120 121
f 85 121 87
f 85 87 86
f 85 119 122
f 85 122 123
f 85 123 124
f 85 124 120
f 87 121 126
f 87 126 125
f 87 125 88
f 88 125 89
f 89 125 126
f 89 126 124
f 89 124 94
f 90 100 91
f 90 99 100
f 91 100 92
f 92 100 93
f 94 124 95
f 95 124 96
f 96 124 127
f 96 127 97
f 97 127 128
f 97 128 98
f 98 128 129
f 98 129 130
f 98 130 131
f 98 131 132
f 98 132 100
f 98 100 99
f 100 132 106
f 100 106 112
f 101 104 133
f 102 111 103
f 104 134 133
f 106 131 135
f 106 135 107
f 106 132 131
f 107 130 136
f 107 136 110
f 107 110 137
f 107 137 108
f 107 135 130
f 108 137 109
f 109 137 110
f 110 138 139
f 110 136 138
f 113 140 141
f 113 141 114
f 115 142 143
f 115 143 116
f 116 143 119
f 116 119 117
f 117 119 118
f 119 144 122
f 119 143 145
f 119 145 144
f 120 124 121
f 121 124 126
f 122 124 123
f 122 144 145
f 122 145 146
f 122 146 124
f 124 146 127
f 127 146 128
f 128 147 148
f 128 148 149
f 128 149 129
f 128 146 147
f 129 149 150
f 129 150 138
f 129 138 130
f 130 135 131
f 130 138 136
f 133 134 151
f 134 152 151
f 138 150 153
f 138 153 154
f 138 154 155
f 138 155 156
f 138 156 139
f 140 157 158
f 140 158 141
f 142 159 160
f 142 160 145
f 142 145 143
f 145 160 161
f 145 161 146
f 146 161 162
f 146 162 147
f 147 162 148
f 148 162 163
f 148 163 164
f 148 164 165
f 148 165 166
f 148 166 167
f 148 167 168
f 148 168 154
f 148 154 149
f 149 154 153
f 149 153 150
f 151 152 169
f 152 170 169
f 154 156 155
f 157 169 171
f 157 171 172
f 157 172 158
f 159 164 163
f 159 163 160
f 160 163 173
f 160 173 161
f 161 173 162
f 162 173 163
f 166 168 167
f 169 170 171

