# https://github.com/mikedh/trimesh
mtllib material.mtl
usemtl material_0
v 0.45535350 0.98426700 -0.03746485
v 0.45535350 0.98426700 0.03486485
v 0.45535350 -1.04260092 0.03486485
v 0.45535350 -1.04260092 -0.03746485
v 0.51175000 -1.04260000 0.04941960
v 0.51175000 1.04054900 0.04941960
v 0.51175000 1.04054900 -0.05201960
v 0.51175000 -1.04260000 -0.05201960
v 0.46816020 -1.04260000 -0.04110316
v 0.47179860 -1.04260000 -0.05201960
v 0.46816020 -1.04260000 -0.04838130
v 0.47179860 -1.04260000 -0.04110316
v 0.49828990 -1.04260000 -0.04110316
v 0.51175000 -1.04260000 -0.05201960
v 0.51175000 -1.04260000 0.04941960
v 0.49828990 -1.04260000 0.03850316
v 0.47179850 -1.04259985 0.03850316
v 0.47179860 -1.04260000 0.04941960
v 0.46816020 -1.04260000 0.03850316
v 0.46816020 -1.04260000 0.04578130
v 0.46452200 -1.04260046 0.03486485
v 0.46452200 -1.04260046 -0.03746485
v 0.45535350 -1.04260092 -0.03746485
v 0.45535350 -1.04260092 0.03486485
v 0.46452200 0.99340900 0.03486485
v 0.46816020 -1.04260000 0.03850316
v 0.46452200 -1.04260046 0.03486485
v 0.46816020 0.99704800 0.03850316
v 0.46816020 0.99704800 0.04578130
v 0.46816020 -1.04260000 0.04578130
v 0.47179860 -1.04260000 0.04941960
v 0.47179860 1.00068600 0.04941960
v 0.46452200 -1.04260046 -0.03746485
v 0.46816020 0.99704800 -0.04110316
v 0.46452200 0.99340900 -0.03746485
v 0.46816020 -1.04260000 -0.04110316
v 0.46816020 -1.04260000 -0.04838130
v 0.46816020 0.99704800 -0.04838130
v 0.47179860 1.00068600 -0.05201960
v 0.47179860 -1.04260000 -0.05201960
v 0.45535350 0.98426700 0.03486485
v 0.46452200 -1.04260046 0.03486485
v 0.45535350 -1.04260092 0.03486485
v 0.46452200 0.99340900 0.03486485
v -0.46452400 0.99340900 0.03486485
v -0.45535560 0.98426700 0.03486485
v -0.46452400 -1.04260046 0.03486485
v -0.45535560 -1.04260092 0.03486485
v 0.46452200 0.99340900 -0.03746485
v 0.45535350 -1.04260092 -0.03746485
v 0.46452200 -1.04260046 -0.03746485
v 0.45535350 0.98426700 -0.03746485
v -0.45535560 0.98426700 -0.03746485
v -0.46452400 0.99340900 -0.03746485
v -0.45535560 -1.04260092 -0.03746485
v -0.46452400 -1.04260046 -0.03746485
v 0.47179860 -1.04260000 0.04941960
v 0.51175000 1.04054900 0.04941960
v 0.51175000 -1.04260000 0.04941960
v 0.47179860 1.00068600 0.04941960
v -0.51175220 1.04054900 0.04941960
v -0.47180070 1.00068600 0.04941960
v -0.47180070 -1.04260000 0.04941960
v -0.51175220 -1.04260000 0.04941960
v 0.51175000 1.04054900 -0.05201960
v 0.47179860 -1.04260000 -0.05201960
v 0.51175000 -1.04260000 -0.05201960
v 0.47179860 1.00068600 -0.05201960
v -0.47180070 1.00068600 -0.05201960
v -0.51175220 1.04054900 -0.05201960
v -0.47180070 -1.04260000 -0.05201960
v -0.51175220 -1.04260000 -0.05201960
v 0.46816020 0.99704800 0.04578130
v -0.47180070 1.00068600 0.04941960
v 0.47179860 1.00068600 0.04941960
v -0.46816230 0.99704800 0.04578130
v 0.46816020 0.99704800 0.03850316
v -0.46816230 0.99704800 0.03850316
v 0.46452200 0.99340900 0.03486485
v -0.46452400 0.99340900 0.03486485
v 0.45535350 0.98426700 -0.03746485
v -0.45535560 0.98426700 -0.03746485
v -0.45535560 0.98426700 0.03486485
v 0.45535350 0.98426700 0.03486485
v 0.46816020 0.99704800 -0.04110316
v -0.46452400 0.99340900 -0.03746485
v 0.46452200 0.99340900 -0.03746485
v -0.46816230 0.99704800 -0.04110316
v 0.46816020 0.99704800 -0.04838130
v -0.46816230 0.99704800 -0.04838130
v 0.47179860 1.00068600 -0.05201960
v -0.47180070 1.00068600 -0.05201960
v 0.51175000 1.04054900 0.04941960
v -0.51175220 1.04054900 0.04941960
v -0.51175220 1.04054900 -0.05201960
v 0.51175000 1.04054900 -0.05201960
v -0.45535560 0.98426700 -0.03746485
v -0.45535560 -1.04260092 -0.03746485
v -0.45535560 -1.04260092 0.03486485
v -0.45535560 0.98426700 0.03486485
v -0.51175220 -1.04260000 0.04941960
v -0.51175220 -1.04260000 -0.05201960
v -0.51175220 1.04054900 -0.05201960
v -0.51175220 1.04054900 0.04941960
v -0.46816230 -1.04260000 -0.04110316
v -0.46816230 -1.04260000 -0.04838130
v -0.47180070 -1.04260000 -0.05201960
v -0.47180070 -1.04260000 -0.04110316
v -0.49829220 -1.04260000 -0.04110316
v -0.51175220 -1.04260000 -0.05201960
v -0.51175220 -1.04260000 0.04941960
v -0.49829210 -1.04260000 0.03850316
v -0.47180070 -1.04259985 0.03850316
v -0.47180070 -1.04260000 0.04941960
v -0.46816230 -1.04260000 0.03850316
v -0.46816230 -1.04260000 0.04578130
v -0.46452400 -1.04260046 0.03486485
v -0.46452400 -1.04260046 -0.03746485
v -0.45535560 -1.04260092 -0.03746485
v -0.45535560 -1.04260092 0.03486485
v -0.46452400 0.99340900 0.03486485
v -0.46452400 -1.04260046 0.03486485
v -0.46816230 -1.04260000 0.03850316
v -0.46816230 0.99704800 0.03850316
v -0.46816230 0.99704800 0.04578130
v -0.46816230 -1.04260000 0.04578130
v -0.47180070 -1.04260000 0.04941960
v -0.47180070 1.00068600 0.04941960
v -0.46452400 -1.04260046 -0.03746485
v -0.46452400 0.99340900 -0.03746485
v -0.46816230 0.99704800 -0.04110316
v -0.46816230 -1.04260000 -0.04110316
v -0.46816230 -1.04260000 -0.04838130
v -0.46816230 0.99704800 -0.04838130
v -0.47180070 1.00068600 -0.05201960
v -0.47180070 -1.04260000 -0.05201960
v -0.36266128 -0.98578070 -0.00704219
v -0.36266128 0.91696500 -0.00704219
v -0.36266128 0.91696500 0.00473363
v -0.36266128 -0.98578070 0.00473363
v -0.36266128 0.91696500 -0.00704219
v 0.36205509 0.91696500 -0.00704219
v 0.36205509 0.91696500 0.00473363
v -0.36266128 0.91696500 0.00473363
v 0.36205509 0.91696500 -0.00704219
v 0.36205509 -0.98578070 -0.00704219
v 0.36205509 -0.98578070 0.00473363
v 0.36205509 0.91696500 0.00473363
v 0.36205509 -0.98578070 -0.00704219
v -0.36266128 -0.98578070 -0.00704219
v -0.36266128 -0.98578070 0.00473363
v 0.36205509 -0.98578070 0.00473363
v -0.36266128 -0.98578070 0.00473363
v -0.36266128 0.91696500 0.00473363
v 0.36205509 0.91696500 0.00473363
v 0.36205509 -0.98578070 0.00473363
v 0.36205509 -0.98578070 -0.00704219
v 0.36205509 0.91696500 -0.00704219
v -0.36266128 0.91696500 -0.00704219
v -0.36266128 -0.98578070 -0.00704219
v 0.36789849 -0.97609780 -0.01852199
v 0.35769299 -0.96714310 -0.01381175
v -0.35749237 -0.96714310 -0.01381175
v -0.36769805 -0.97609780 -0.01852199
v 0.45719759 -1.04478460 -0.01852199
v -0.45699707 -1.04478460 -0.01852199
v 0.45719759 -0.60279050 -0.01852199
v -0.36769805 -0.61473570 -0.01852199
v -0.45699707 -0.60279050 -0.01852199
v -0.35749237 -0.62369050 -0.01381175
v -0.35749237 -0.96714310 -0.01381175
v 0.36789849 -0.61473570 -0.01852199
v 0.35769299 -0.96714310 -0.01381175
v 0.35769299 -0.62369050 -0.01381175
v 0.35769299 -0.62369050 -0.01381175
v -0.35749237 -0.62369050 -0.01381175
v -0.36769805 -0.59136230 -0.01852199
v 0.36789849 -0.59136230 -0.01852199
v 0.45719759 -0.22091130 -0.01852199
v -0.36769805 -0.23233960 -0.01852199
v -0.45699707 -0.22091130 -0.01852199
v -0.35749237 -0.58240750 -0.01381175
v 0.35769299 -0.58240750 -0.01381175
v -0.35749237 -0.24129440 -0.01381175
v -0.35749237 -0.58240750 -0.01381175
v 0.36789849 -0.23233960 -0.01852199
v 0.35769299 -0.58240750 -0.01381175
v 0.35769299 -0.24129440 -0.01381175
v 0.35769299 -0.24129440 -0.01381175
v -0.35749237 -0.24129440 -0.01381175
v -0.36769805 -0.21060410 -0.01852199
v 0.36789849 -0.21060410 -0.01852199
v 0.45719759 0.16261950 -0.01852199
v -0.36769805 0.15231240 -0.01852199
v -0.45699707 0.16261950 -0.01852199
v -0.35749237 -0.20164920 -0.01381175
v 0.35769299 -0.20164920 -0.01381175
v -0.35749237 0.14335750 -0.01381175
v -0.35749237 -0.20164920 -0.01381175
v 0.36789849 0.15231240 -0.01852199
v 0.35769299 -0.20164920 -0.01381175
v 0.35769299 0.14335750 -0.01381175
v 0.35769299 0.14335750 -0.01381175
v -0.35749237 0.14335750 -0.01381175
v -0.36769805 0.17177030 -0.01852199
v 0.36789849 0.17177030 -0.01852199
v 0.45719759 0.54581160 -0.01852199
v -0.36769805 0.53666070 -0.01852199
v -0.45699707 0.54581160 -0.01852199
v -0.35749237 0.18072500 -0.01381175
v 0.35769299 0.18072500 -0.01381175
v -0.35749237 0.52770610 -0.01381175
v -0.35749237 0.18072500 -0.01381175
v 0.36789849 0.53666070 -0.01852199
v 0.35769299 0.18072500 -0.01381175
v 0.35769299 0.52770610 -0.01381175
v 0.35769299 0.52770610 -0.01381175
v -0.35749237 0.52770610 -0.01381175
v -0.36769805 0.55620540 -0.01852199
v 0.36789849 0.55620540 -0.01852199
v 0.45719759 0.98394740 -0.01852199
v -0.36769805 0.92021030 -0.01852199
v -0.45699707 0.98394740 -0.01852199
v 0.36789849 0.92021030 -0.01852199
v -0.35749237 0.56516000 -0.01381175
v 0.35769299 0.56516000 -0.01381175
v 0.35769299 0.56516000 -0.01381175
v 0.35769299 0.91125560 -0.01381175
v 0.35769299 0.91125560 -0.01381175
v -0.35749237 0.91125560 -0.01381175
v -0.35749237 0.91125560 -0.01381175
v -0.35749237 0.56516000 -0.01381175
v 0.35769299 -0.96714310 -0.01381175
v 0.35769299 -0.96714310 -0.01848643
v -0.35749237 -0.96714310 -0.01848643
v -0.35749237 -0.96714310 -0.01381175
v -0.35749237 -0.96714310 -0.01381175
v -0.35749237 -0.96714310 -0.01848643
v -0.35749237 -0.62369050 -0.01848643
v -0.35749237 -0.62369050 -0.01381175
v -0.35749237 -0.62369050 -0.01381175
v -0.35749237 -0.62369050 -0.01848643
v 0.35769299 -0.62369050 -0.01848643
v 0.35769299 -0.62369050 -0.01381175
v 0.35769299 -0.62369050 -0.01381175
v 0.35769299 -0.62369050 -0.01848643
v 0.35769299 -0.96714310 -0.01848643
v 0.35769299 -0.96714310 -0.01381175
v 0.35769299 0.56516000 -0.01381175
v 0.35769299 0.56516000 0.01176473
v -0.35749237 0.56516000 0.01176473
v -0.35749237 0.56516000 -0.01381175
v -0.35749237 0.56516000 -0.01381175
v -0.35749237 0.56516000 0.01176473
v -0.35749237 0.91125560 0.01176473
v -0.35749237 0.91125560 -0.01381175
v -0.35749237 0.91125560 -0.01381175
v -0.35749237 0.91125560 0.01176473
v 0.35769299 0.91125560 0.01176473
v 0.35769299 0.91125560 -0.01381175
v 0.35769299 0.91125560 -0.01381175
v 0.35769299 0.91125560 0.01176473
v 0.35769299 0.56516000 0.01176473
v 0.35769299 0.56516000 -0.01381175
v 0.35769299 0.18072500 -0.01381175
v 0.35769299 0.18072500 0.01176473
v -0.35749237 0.18072500 0.01176473
v -0.35749237 0.18072500 -0.01381175
v -0.35749237 0.18072500 -0.01381175
v -0.35749237 0.18072500 0.01176473
v -0.35749237 0.52770610 0.01176473
v -0.35749237 0.52770610 -0.01381175
v 0.35769299 0.52770610 -0.01381175
v 0.35769299 0.52770610 0.01176473
v 0.35769299 0.18072500 0.01176473
v 0.35769299 0.18072500 -0.01381175
v 0.35769299 -0.20164920 -0.01381175
v 0.35769299 -0.20164920 0.01176473
v -0.35749237 -0.20164920 0.01176473
v -0.35749237 -0.20164920 -0.01381175
v -0.35749237 -0.20164920 -0.01381175
v -0.35749237 -0.20164920 0.01176473
v -0.35749237 0.14335750 0.01176473
v -0.35749237 0.14335750 -0.01381175
v 0.35769299 0.14335750 -0.01381175
v 0.35769299 0.14335750 0.01176473
v 0.35769299 -0.20164920 0.01176473
v 0.35769299 -0.20164920 -0.01381175
v 0.35769299 -0.58240750 -0.01381175
v 0.35769299 -0.58240750 0.01176473
v -0.35749237 -0.58240750 0.01176473
v -0.35749237 -0.58240750 -0.01381175
v -0.35749237 -0.58240750 -0.01381175
v -0.35749237 -0.58240750 0.01176473
v -0.35749237 -0.24129440 0.01176473
v -0.35749237 -0.24129440 -0.01381175
v 0.35769299 -0.24129440 -0.01381175
v 0.35769299 -0.24129440 0.01176473
v 0.35769299 -0.58240750 0.01176473
v 0.35769299 -0.58240750 -0.01381175
v -0.45699707 -1.04478460 -0.01852199
v -0.45699707 -0.60279050 0.01647496
v -0.45699707 -1.04478460 0.01647496
v -0.45699707 -0.60279050 -0.01852199
v -0.45699707 -0.22091130 0.01647496
v -0.45699707 -0.22091130 -0.01852199
v -0.45699707 0.16261950 0.01647496
v -0.45699707 0.16261950 -0.01852199
v -0.45699707 0.54581160 0.01647496
v -0.45699707 0.54581160 -0.01852199
v -0.45699707 0.98394740 0.01647496
v -0.45699707 0.98394740 -0.01852199
v -0.45699707 0.98394740 -0.01852199
v 0.45719759 0.98394740 -0.01852199
v 0.45719759 0.98394740 0.01647496
v -0.45699707 0.98394740 0.01647496
v 0.45719759 -0.60279050 -0.01852199
v 0.45719759 -1.04478460 -0.01852199
v 0.45719759 -1.04478460 0.01647496
v 0.45719759 -0.60279050 0.01647496
v 0.45719759 -0.22091130 -0.01852199
v 0.45719759 -0.22091130 0.01647496
v 0.45719759 0.16261950 -0.01852199
v 0.45719759 0.16261950 0.01647496
v 0.45719759 0.54581160 -0.01852199
v 0.45719759 0.54581160 0.01647496
v 0.45719759 0.98394740 -0.01852199
v 0.45719759 0.98394740 0.01647496
v 0.45719759 -1.04478460 -0.01852199
v -0.45699707 -1.04478460 -0.01852199
v -0.45699707 -1.04478460 0.01647496
v 0.45719759 -1.04478460 0.01647496
v -0.36769805 -0.97609780 0.01647496
v -0.35749237 -0.96714310 0.01176473
v 0.35769299 -0.96714310 0.01176473
v 0.36789849 -0.97609780 0.01647496
v -0.45699707 -1.04478460 0.01647496
v 0.45719759 -1.04478460 0.01647496
v -0.45699707 -0.60279050 0.01647496
v 0.36789849 -0.61473570 0.01647496
v 0.45719759 -0.60279050 0.01647496
v 0.35769299 -0.62369050 0.01176473
v 0.35769299 -0.96714310 0.01176473
v -0.36769805 -0.61473570 0.01647496
v -0.35749237 -0.96714310 0.01176473
v -0.35749237 -0.62369050 0.01176473
v -0.35749237 -0.62369050 0.01176473
v 0.35769299 -0.62369050 0.01176473
v 0.36789849 -0.59136230 0.01647496
v -0.36769805 -0.59136230 0.01647496
v -0.45699707 -0.22091130 0.01647496
v 0.36789849 -0.23233960 0.01647496
v 0.45719759 -0.22091130 0.01647496
v 0.35769299 -0.58240750 0.01176473
v -0.35749237 -0.58240750 0.01176473
v 0.35769299 -0.24129440 0.01176473
v 0.35769299 -0.58240750 0.01176473
v -0.36769805 -0.23233960 0.01647496
v -0.35749237 -0.58240750 0.01176473
v -0.35749237 -0.24129440 0.01176473
v -0.35749237 -0.24129440 0.01176473
v 0.35769299 -0.24129440 0.01176473
v 0.36789849 -0.21060410 0.01647496
v -0.36769805 -0.21060410 0.01647496
v -0.45699707 0.16261950 0.01647496
v 0.36789849 0.15231240 0.01647496
v 0.45719759 0.16261950 0.01647496
v 0.35769299 -0.20164920 0.01176473
v -0.35749237 -0.20164920 0.01176473
v 0.35769299 0.14335750 0.01176473
v 0.35769299 -0.20164920 0.01176473
v -0.36769805 0.15231240 0.01647496
v -0.35749237 -0.20164920 0.01176473
v -0.35749237 0.14335750 0.01176473
v -0.35749237 0.14335750 0.01176473
v 0.35769299 0.14335750 0.01176473
v 0.36789849 0.17177030 0.01647496
v -0.36769805 0.17177030 0.01647496
v -0.45699707 0.54581160 0.01647496
v 0.36789849 0.53666070 0.01647496
v 0.45719759 0.54581160 0.01647496
v 0.35769299 0.18072500 0.01176473
v -0.35749237 0.18072500 0.01176473
v 0.35769299 0.52770610 0.01176473
v 0.35769299 0.18072500 0.01176473
v -0.36769805 0.53666070 0.01647496
v -0.35749237 0.18072500 0.01176473
v -0.35749237 0.52770610 0.01176473
v -0.35749237 0.52770610 0.01176473
v 0.35769299 0.52770610 0.01176473
v 0.36789849 0.55620540 0.01647496
v -0.36769805 0.55620540 0.01647496
v -0.45699707 0.98394740 0.01647496
v 0.36789849 0.92021030 0.01647496
v 0.45719759 0.98394740 0.01647496
v -0.36769805 0.92021030 0.01647496
v 0.35769299 0.56516000 0.01176473
v -0.35749237 0.56516000 0.01176473
v -0.35749237 0.56516000 0.01176473
v -0.35749237 0.91125560 0.01176473
v -0.35749237 0.91125560 0.01176473
v 0.35769299 0.91125560 0.01176473
v 0.35769299 0.91125560 0.01176473
v 0.35769299 0.56516000 0.01176473
v -0.35749237 -0.96714310 0.01176473
v -0.35749237 -0.96714310 -0.01848643
v 0.35769299 -0.96714310 -0.01848643
v 0.35769299 -0.96714310 0.01176473
v 0.35769299 -0.96714310 0.01176473
v 0.35769299 -0.96714310 -0.01848643
v 0.35769299 -0.62369050 -0.01848643
v 0.35769299 -0.62369050 0.01176473
v 0.35769299 -0.62369050 0.01176473
v 0.35769299 -0.62369050 -0.01848643
v -0.35749237 -0.62369050 -0.01848643
v -0.35749237 -0.62369050 0.01176473
v -0.35749237 -0.62369050 0.01176473
v -0.35749237 -0.62369050 -0.01848643
v -0.35749237 -0.96714310 -0.01848643
v -0.35749237 -0.96714310 0.01176473
v 0.35769299 0.52770610 -0.01381175
v -0.35749237 0.52770610 -0.01381175
v -0.35749237 0.52770610 0.01176473
v 0.35769299 0.52770610 0.01176473
v 0.35769299 0.14335750 -0.01381175
v -0.35749237 0.14335750 -0.01381175
v -0.35749237 0.14335750 0.01176473
v 0.35769299 0.14335750 0.01176473
v 0.35769299 -0.24129440 -0.01381175
v -0.35749237 -0.24129440 -0.01381175
v -0.35749237 -0.24129440 0.01176473
v 0.35769299 -0.24129440 0.01176473
v 0.42781971 -0.04525404 -0.02485186
v 0.42074802 -0.03818242 0.02225950
v 0.42074802 -0.03818242 -0.02485186
v 0.42781971 -0.04525404 0.02225950
v 0.43040821 -0.05491407 -0.02485186
v 0.43040821 -0.05491407 0.02225950
v 0.42781971 -0.06457402 -0.02485186
v 0.42781971 -0.06457402 0.02225950
v 0.42074802 -0.07164564 -0.02485186
v 0.42074802 -0.07164564 0.02225950
v 0.41108814 -0.07423406 -0.02485186
v 0.42074802 -0.07164564 0.02225950
v 0.42074802 -0.07164564 -0.02485186
v 0.41108814 -0.07423406 0.02225950
v 0.40142826 -0.07164564 -0.02485186
v 0.40142826 -0.07164564 0.02225950
v 0.39435673 -0.06457402 -0.02485186
v 0.40142826 -0.07164564 0.02225950
v 0.40142826 -0.07164564 -0.02485186
v 0.39435673 -0.06457402 0.02225950
v 0.39176823 -0.05491407 -0.02485186
v 0.39176823 -0.05491407 0.02225950
v 0.39435673 -0.04525404 -0.02485186
v 0.39435673 -0.04525404 0.02225950
v 0.40142826 -0.03818242 -0.02485186
v 0.40142826 -0.03818242 0.02225950
v 0.41108814 -0.03559400 -0.02485186
v 0.40142826 -0.03818242 0.02225950
v 0.40142826 -0.03818242 -0.02485186
v 0.41108814 -0.03559400 0.02225950
v 0.42074802 -0.03818242 -0.02485186
v 0.42074802 -0.03818242 0.02225950
v 0.42054203 -0.04945569 -0.02485186
v 0.41654636 -0.04546003 -0.02485186
v 0.41653019 -0.04546003 -0.04593279
v 0.42051365 -0.04945569 -0.04363481
v 0.42200459 -0.05491407 -0.02485186
v 0.42197178 -0.05491407 -0.04049562
v 0.42054203 -0.06037229 -0.02485186
v 0.42051365 -0.06037229 -0.03735643
v 0.41654636 -0.06436796 -0.02485186
v 0.41653019 -0.06436796 -0.03505846
v 0.41108814 -0.06583051 -0.02485186
v 0.41654636 -0.06436796 -0.02485186
v 0.41653019 -0.06436796 -0.03505846
v 0.41108830 -0.06578519 -0.03421740
v 0.40562977 -0.06436796 -0.02485186
v 0.40564655 -0.06436796 -0.03505846
v 0.40163441 -0.06037229 -0.02485186
v 0.40562977 -0.06436796 -0.02485186
v 0.40564655 -0.06436796 -0.03505846
v 0.40166294 -0.06037229 -0.03735643
v 0.40017155 -0.05491407 -0.02485186
v 0.40020466 -0.05491407 -0.04049562
v 0.40163441 -0.04945569 -0.02485186
v 0.40166294 -0.04945569 -0.04363481
v 0.40562977 -0.04546003 -0.02485186
v 0.40564655 -0.04546003 -0.04593279
v 0.41108814 -0.04399762 -0.02485186
v 0.40562977 -0.04546003 -0.02485186
v 0.40564655 -0.04546003 -0.04593279
v 0.41108830 -0.04399762 -0.04677385
v 0.41654636 -0.04546003 -0.02485186
v 0.41653019 -0.04546003 -0.04593279
v 0.40564655 -0.06436796 -0.03505846
v 0.40166233 -0.19902669 -0.03735643
v 0.40166294 -0.06037229 -0.03735643
v 0.40564579 -0.19503102 -0.03505846
v 0.41108830 -0.06578519 -0.03421740
v 0.41108768 -0.19361379 -0.03421740
v 0.41653019 -0.06436796 -0.03505846
v 0.41652943 -0.19503102 -0.03505846
v 0.42051365 -0.06037229 -0.03735643
v 0.42051304 -0.19902669 -0.03735643
v 0.40166294 -0.06037229 -0.03735643
v 0.40166233 -0.19902669 -0.03735643
v 0.40020420 -0.20448491 -0.04049562
v 0.40020466 -0.05491407 -0.04049562
v 0.40166233 -0.20994329 -0.04363481
v 0.40166294 -0.04945569 -0.04363481
v 0.40166294 -0.04945569 -0.04363481
v 0.40166233 -0.20994329 -0.04363481
v 0.40564579 -0.21393895 -0.04593279
v 0.40564655 -0.04546003 -0.04593279
v 0.41108768 -0.21540136 -0.04677385
v 0.41108830 -0.04399762 -0.04677385
v 0.41652943 -0.21393895 -0.04593279
v 0.41653019 -0.04546003 -0.04593279
v 0.42051304 -0.20994329 -0.04363481
v 0.42051365 -0.04945569 -0.04363481
v 0.42051365 -0.04945569 -0.04363481
v 0.42051304 -0.20994329 -0.04363481
v 0.42197132 -0.20448491 -0.04049562
v 0.42197178 -0.05491407 -0.04049562
v 0.42051304 -0.19902669 -0.03735643
v 0.42051365 -0.06037229 -0.03735643
v 0.39435627 -0.21414494 -0.02485186
v 0.40142796 -0.22121656 0.02225950
v 0.40142796 -0.22121656 -0.02485186
v 0.39435627 -0.21414494 0.02225950
v 0.39176777 -0.20448491 -0.02485186
v 0.39176777 -0.20448491 0.02225950
v 0.39435627 -0.19482496 -0.02485186
v 0.39435627 -0.19482496 0.02225950
v 0.40142796 -0.18775334 -0.02485186
v 0.40142796 -0.18775334 0.02225950
v 0.41108784 -0.18516492 -0.02485186
v 0.40142796 -0.18775334 0.02225950
v 0.40142796 -0.18775334 -0.02485186
v 0.41108784 -0.18516492 0.02225950
v 0.42074772 -0.18775334 -0.02485186
v 0.42074772 -0.18775334 0.02225950
v 0.42781925 -0.19482496 -0.02485186
v 0.42074772 -0.18775334 0.02225950
v 0.42074772 -0.18775334 -0.02485186
v 0.42781925 -0.19482496 0.02225950
v 0.43040791 -0.20448491 -0.02485186
v 0.43040791 -0.20448491 0.02225950
v 0.42781925 -0.21414494 -0.02485186
v 0.42781925 -0.21414494 0.02225950
v 0.42074772 -0.22121656 -0.02485186
v 0.42074772 -0.22121656 0.02225950
v 0.41108784 -0.22380498 -0.02485186
v 0.42074772 -0.22121656 0.02225950
v 0.42074772 -0.22121656 -0.02485186
v 0.41108784 -0.22380498 0.02225950
v 0.40142796 -0.22121656 -0.02485186
v 0.40142796 -0.22121656 0.02225950
v 0.40163395 -0.20994329 -0.02485186
v 0.40562962 -0.21393895 -0.02485186
v 0.40564579 -0.21393895 -0.04593279
v 0.40166233 -0.20994329 -0.04363481
v 0.40017139 -0.20448491 -0.02485186
v 0.40020420 -0.20448491 -0.04049562
v 0.40163395 -0.19902669 -0.02485186
v 0.40166233 -0.19902669 -0.03735643
v 0.40562962 -0.19503102 -0.02485186
v 0.40564579 -0.19503102 -0.03505846
v 0.41108784 -0.19356847 -0.02485186
v 0.40562962 -0.19503102 -0.02485186
v 0.40564579 -0.19503102 -0.03505846
v 0.41108768 -0.19361379 -0.03421740
v 0.41654621 -0.19503102 -0.02485186
v 0.41652943 -0.19503102 -0.03505846
v 0.42054157 -0.19902669 -0.02485186
v 0.41654621 -0.19503102 -0.02485186
v 0.41652943 -0.19503102 -0.03505846
v 0.42051304 -0.19902669 -0.03735643
v 0.42200443 -0.20448491 -0.02485186
v 0.42197132 -0.20448491 -0.04049562
v 0.42054157 -0.20994329 -0.02485186
v 0.42051304 -0.20994329 -0.04363481
v 0.41654621 -0.21393895 -0.02485186
v 0.41652943 -0.21393895 -0.04593279
v 0.41108784 -0.21540136 -0.02485186
v 0.41654621 -0.21393895 -0.02485186
v 0.41652943 -0.21393895 -0.04593279
v 0.41108768 -0.21540136 -0.04677385
v 0.40562962 -0.21393895 -0.02485186
v 0.40564579 -0.21393895 -0.04593279
v 0.42054203 -0.04945569 0.02225950
v 0.41653019 -0.04546003 0.04333281
v 0.41654636 -0.04546003 0.02225950
v 0.42051365 -0.04945569 0.04103560
v 0.42200459 -0.05491407 0.02225950
v 0.42197178 -0.05491407 0.03789762
v 0.42054203 -0.06037229 0.02225950
v 0.42051365 -0.06037229 0.03475965
v 0.41654636 -0.06436796 0.02225950
v 0.41653019 -0.06436796 0.03246244
v 0.41108814 -0.06583051 0.02225950
v 0.41653019 -0.06436796 0.03246244
v 0.41654636 -0.06436796 0.02225950
v 0.41108830 -0.06578519 0.03162168
v 0.40562977 -0.06436796 0.02225950
v 0.40564655 -0.06436796 0.03246244
v 0.40163441 -0.06037229 0.02225950
v 0.40564655 -0.06436796 0.03246244
v 0.40562977 -0.06436796 0.02225950
v 0.40166294 -0.06037229 0.03475965
v 0.40017155 -0.05491407 0.02225950
v 0.40020466 -0.05491407 0.03789762
v 0.40163441 -0.04945569 0.02225950
v 0.40166294 -0.04945569 0.04103560
v 0.40562977 -0.04546003 0.02225950
v 0.40564655 -0.04546003 0.04333281
v 0.41108814 -0.04399762 0.02225950
v 0.40564655 -0.04546003 0.04333281
v 0.40562977 -0.04546003 0.02225950
v 0.41108830 -0.04399762 0.04417372
v 0.41654636 -0.04546003 0.02225950
v 0.41653019 -0.04546003 0.04333281
v 0.40564655 -0.06436796 0.03246244
v 0.40166294 -0.06037229 0.03475965
v 0.40166233 -0.19902669 0.03475965
v 0.40564579 -0.19503102 0.03246244
v 0.41108830 -0.06578519 0.03162168
v 0.41108768 -0.19361379 0.03162168
v 0.41653019 -0.06436796 0.03246244
v 0.41652943 -0.19503102 0.03246244
v 0.42051365 -0.06037229 0.03475965
v 0.42051304 -0.19902669 0.03475965
v 0.40166294 -0.06037229 0.03475965
v 0.40020420 -0.20448491 0.03789762
v 0.40166233 -0.19902669 0.03475965
v 0.40020466 -0.05491407 0.03789762
v 0.40166233 -0.20994329 0.04103560
v 0.40166294 -0.04945569 0.04103560
v 0.40166294 -0.04945569 0.04103560
v 0.40564579 -0.21393895 0.04333281
v 0.40166233 -0.20994329 0.04103560
v 0.40564655 -0.04546003 0.04333281
v 0.41108768 -0.21540136 0.04417372
v 0.41108830 -0.04399762 0.04417372
v 0.41652943 -0.21393895 0.04333281
v 0.41653019 -0.04546003 0.04333281
v 0.42051304 -0.20994329 0.04103560
v 0.42051365 -0.04945569 0.04103560
v 0.42051365 -0.04945569 0.04103560
v 0.42197132 -0.20448491 0.03789762
v 0.42051304 -0.20994329 0.04103560
v 0.42197178 -0.05491407 0.03789762
v 0.42051304 -0.19902669 0.03475965
v 0.42051365 -0.06037229 0.03475965
v 0.40163395 -0.20994329 0.02225950
v 0.40564579 -0.21393895 0.04333281
v 0.40562962 -0.21393895 0.02225950
v 0.40166233 -0.20994329 0.04103560
v 0.40017139 -0.20448491 0.02225950
v 0.40020420 -0.20448491 0.03789762
v 0.40163395 -0.19902669 0.02225950
v 0.40166233 -0.19902669 0.03475965
v 0.40562962 -0.19503102 0.02225950
v 0.40564579 -0.19503102 0.03246244
v 0.41108784 -0.19356847 0.02225950
v 0.40564579 -0.19503102 0.03246244
v 0.40562962 -0.19503102 0.02225950
v 0.41108768 -0.19361379 0.03162168
v 0.41654621 -0.19503102 0.02225950
v 0.41652943 -0.19503102 0.03246244
v 0.42054157 -0.19902669 0.02225950
v 0.41652943 -0.19503102 0.03246244
v 0.41654621 -0.19503102 0.02225950
v 0.42051304 -0.19902669 0.03475965
v 0.42200443 -0.20448491 0.02225950
v 0.42197132 -0.20448491 0.03789762
v 0.42054157 -0.20994329 0.02225950
v 0.42051304 -0.20994329 0.04103560
v 0.41654621 -0.21393895 0.02225950
v 0.41652943 -0.21393895 0.04333281
v 0.41108784 -0.21540136 0.02225950
v 0.41652943 -0.21393895 0.04333281
v 0.41654621 -0.21393895 0.02225950
v 0.41108768 -0.21540136 0.04417372
v 0.40562962 -0.21393895 0.02225950
v 0.40564579 -0.21393895 0.04333281
v 0.42781971 -0.04525404 -0.02485186
v 0.42074802 -0.03818242 -0.02485186
v 0.41654636 -0.04546003 -0.02485186
v 0.42054203 -0.04945569 -0.02485186
v 0.41108814 -0.04399762 -0.02485186
v 0.43040821 -0.05491407 -0.02485186
v 0.41108814 -0.03559400 -0.02485186
v 0.42200459 -0.05491407 -0.02485186
v 0.40562977 -0.04546003 -0.02485186
v 0.42781971 -0.06457402 -0.02485186
v 0.40142826 -0.03818242 -0.02485186
v 0.42054203 -0.06037229 -0.02485186
v 0.40163441 -0.04945569 -0.02485186
v 0.42074802 -0.07164564 -0.02485186
v 0.39435673 -0.04525404 -0.02485186
v 0.41654636 -0.06436796 -0.02485186
v 0.40017155 -0.05491407 -0.02485186
v 0.41108814 -0.07423406 -0.02485186
v 0.39176823 -0.05491407 -0.02485186
v 0.41108814 -0.06583051 -0.02485186
v 0.40163441 -0.06037229 -0.02485186
v 0.40142826 -0.07164564 -0.02485186
v 0.39435673 -0.06457402 -0.02485186
v 0.40562977 -0.06436796 -0.02485186
v 0.39435627 -0.21414494 -0.02485186
v 0.40142796 -0.22121656 -0.02485186
v 0.40562962 -0.21393895 -0.02485186
v 0.40163395 -0.20994329 -0.02485186
v 0.41108784 -0.21540136 -0.02485186
v 0.39176777 -0.20448491 -0.02485186
v 0.41108784 -0.22380498 -0.02485186
v 0.40017139 -0.20448491 -0.02485186
v 0.41654621 -0.21393895 -0.02485186
v 0.39435627 -0.19482496 -0.02485186
v 0.42074772 -0.22121656 -0.02485186
v 0.40163395 -0.19902669 -0.02485186
v 0.42054157 -0.20994329 -0.02485186
v 0.40142796 -0.18775334 -0.02485186
v 0.42781925 -0.21414494 -0.02485186
v 0.40562962 -0.19503102 -0.02485186
v 0.42200443 -0.20448491 -0.02485186
v 0.41108784 -0.18516492 -0.02485186
v 0.43040791 -0.20448491 -0.02485186
v 0.41108784 -0.19356847 -0.02485186
v 0.42054157 -0.19902669 -0.02485186
v 0.42074772 -0.18775334 -0.02485186
v 0.42781925 -0.19482496 -0.02485186
v 0.41654621 -0.19503102 -0.02485186
v 0.42781971 -0.04525404 0.02225950
v 0.42054203 -0.04945569 0.02225950
v 0.41654636 -0.04546003 0.02225950
v 0.42074802 -0.03818242 0.02225950
v 0.43040821 -0.05491407 0.02225950
v 0.41108814 -0.04399762 0.02225950
v 0.42200459 -0.05491407 0.02225950
v 0.41108814 -0.03559400 0.02225950
v 0.42781971 -0.06457402 0.02225950
v 0.40562977 -0.04546003 0.02225950
v 0.42054203 -0.06037229 0.02225950
v 0.40142826 -0.03818242 0.02225950
v 0.42074802 -0.07164564 0.02225950
v 0.40163441 -0.04945569 0.02225950
v 0.41654636 -0.06436796 0.02225950
v 0.39435673 -0.04525404 0.02225950
v 0.41108814 -0.07423406 0.02225950
v 0.40017155 -0.05491407 0.02225950
v 0.41108814 -0.06583051 0.02225950
v 0.39176823 -0.05491407 0.02225950
v 0.40142826 -0.07164564 0.02225950
v 0.40163441 -0.06037229 0.02225950
v 0.40562977 -0.06436796 0.02225950
v 0.39435673 -0.06457402 0.02225950
v 0.39435627 -0.21414494 0.02225950
v 0.40163395 -0.20994329 0.02225950
v 0.40562962 -0.21393895 0.02225950
v 0.40142796 -0.22121656 0.02225950
v 0.39176777 -0.20448491 0.02225950
v 0.41108784 -0.21540136 0.02225950
v 0.40017139 -0.20448491 0.02225950
v 0.41108784 -0.22380498 0.02225950
v 0.39435627 -0.19482496 0.02225950
v 0.41654621 -0.21393895 0.02225950
v 0.40163395 -0.19902669 0.02225950
v 0.42074772 -0.22121656 0.02225950
v 0.40142796 -0.18775334 0.02225950
v 0.42054157 -0.20994329 0.02225950
v 0.40562962 -0.19503102 0.02225950
v 0.42781925 -0.21414494 0.02225950
v 0.41108784 -0.18516492 0.02225950
v 0.42200443 -0.20448491 0.02225950
v 0.41108784 -0.19356847 0.02225950
v 0.43040791 -0.20448491 0.02225950
v 0.42074772 -0.18775334 0.02225950
v 0.42054157 -0.19902669 0.02225950
v 0.41654621 -0.19503102 0.02225950
v 0.42781925 -0.19482496 0.02225950
vt 0.63040400 0.33231500
vt 0.74341900 0.33231500
vt 0.74341900 0.16532110
vt 0.63040400 0.16532110
vt 0.93496000 0.62835500
vt 0.93496000 0.88326900
vt 0.09346100 0.88326900
vt 0.09346100 0.62835500
vt 0.59398800 0.58789470
vt 0.58830300 0.60495170
vt 0.59398800 0.59926650
vt 0.58830300 0.58789470
vt 0.54691000 0.58789470
vt 0.52588000 0.60495170
vt 0.52588000 0.44645270
vt 0.54691000 0.46350930
vt 0.58830300 0.46350930
vt 0.58830300 0.44645270
vt 0.59398800 0.46350930
vt 0.59398800 0.45213720
vt 0.59967300 0.46919420
vt 0.59967300 0.58220990
vt 0.61399900 0.58220990
vt 0.61399900 0.46919420
vt 0.56387300 0.99227000
vt 0.57011900 0.49714900
vt 0.56387300 0.49714800
vt 0.57011900 0.99851700
vt 0.58261400 0.99851700
vt 0.58261400 0.49714900
vt 0.58886000 0.49714900
vt 0.58886000 0.00476200
vt 0.59973100 0.49710800
vt 0.59348600 0.99855600
vt 0.59973100 0.99230900
vt 0.59348600 0.49710900
vt 0.58099000 0.49710900
vt 0.58099000 0.99855600
vt 0.57474500 0.00480200
vt 0.57474500 0.49710900
vt 0.01979400 0.67374200
vt 0.00547000 0.84067900
vt 0.01979400 0.84068200
vt 0.00547000 0.65945500
vt 0.45708600 0.65945500
vt 0.44276000 0.67374200
vt 0.45708600 0.84067900
vt 0.44276000 0.84068200
vt 0.08880700 0.34057000
vt 0.10313300 0.15929330
vt 0.08880700 0.15929410
vt 0.10313300 0.32628600
vt 0.52612000 0.32628600
vt 0.54044600 0.34057000
vt 0.52612000 0.15929330
vt 0.54044600 0.15929410
vt 0.42035000 0.88327500
vt 0.35793000 0.62834900
vt 0.35793000 0.88327500
vt 0.42035000 0.69063500
vt 0.95715500 0.62834900
vt 0.89473200 0.69063500
vt 0.89473200 0.88327500
vt 0.95715500 0.88327500
vt 0.61341000 0.88326700
vt 0.67584000 0.62835700
vt 0.61341000 0.62835700
vt 0.67584000 0.82098100
vt 0.15020600 0.82098100
vt 0.21263000 0.88326700
vt 0.15020600 0.62835700
vt 0.21263000 0.62835700
vt 0.61062000 0.42229500
vt 0.60437500 0.80865970
vt 0.60437500 0.42854200
vt 0.61062000 0.81490610
vt 0.62311600 0.42229500
vt 0.62311600 0.81490610
vt 0.62936100 0.41605000
vt 0.62936100 0.82115200
vt 0.64783600 0.32608500
vt 0.64783600 0.90310127
vt 0.53482200 0.90310127
vt 0.53482200 0.32608500
vt 0.60137100 0.42230200
vt 0.59512500 0.82114590
vt 0.59512500 0.41605600
vt 0.60137100 0.81489990
vt 0.61386500 0.42230200
vt 0.61386500 0.81489990
vt 0.62011100 0.42854800
vt 0.62011100 0.80865350
vt 0.71595500 0.42617400
vt 0.71595500 0.82695320
vt 0.55745600 0.82695320
vt 0.55745600 0.42617400
vt 0.72008900 0.33230900
vt 0.72008900 0.16532730
vt 0.60707300 0.16532730
vt 0.60707300 0.33230900
vt 0.63540000 0.62835500
vt 0.47690100 0.62835500
vt 0.47690100 0.88326900
vt 0.63540000 0.88326900
vt 0.52644200 0.58789470
vt 0.52644200 0.59926640
vt 0.53212700 0.60495160
vt 0.53212700 0.58789470
vt 0.57352000 0.58789470
vt 0.59455200 0.60495160
vt 0.59455200 0.44645290
vt 0.57352000 0.46350940
vt 0.53212700 0.46350940
vt 0.53212700 0.44645290
vt 0.52644200 0.46350940
vt 0.52644200 0.45213740
vt 0.52075800 0.46919430
vt 0.52075800 0.58220980
vt 0.50643200 0.58220980
vt 0.50643200 0.46919430
vt 0.61060100 0.99230000
vt 0.61060100 0.49711800
vt 0.60435600 0.49711900
vt 0.60435600 0.99854600
vt 0.59186300 0.99854600
vt 0.59186300 0.49711900
vt 0.58561600 0.49711900
vt 0.58561600 0.00479200
vt 0.59648700 0.49708100
vt 0.59648700 0.99233700
vt 0.60273400 0.99858300
vt 0.60273400 0.49708200
vt 0.61522800 0.49708200
vt 0.61522800 0.99858300
vt 0.62147300 0.00482900
vt 0.62147300 0.49708200
vt 0.51628000 0.76361200
vt 0.51628000 0.73654400
vt 0.53468000 0.73654400
vt 0.53468000 0.76361200
vt 0.68354000 0.03019065
vt 0.68354000 0.16246300
vt 0.70194000 0.16246300
vt 0.70194000 0.03019065
vt 0.54365000 0.73646500
vt 0.54365000 0.76369200
vt 0.52525000 0.76369200
vt 0.52525000 0.73646500
vt 0.69322000 0.16243400
vt 0.69322000 0.03021872
vt 0.67482000 0.03021872
vt 0.67482000 0.16243400
vt 0.20255000 0.73659700
vt 0.20255000 0.76355800
vt 0.07018000 0.76355800
vt 0.07018000 0.73659700
vt 0.25777000 0.26340100
vt 0.25777000 0.23644300
vt 0.39014000 0.23644300
vt 0.39014000 0.26340100
vt 0.61290000 0.93428800
vt 0.62900000 0.94841500
vt 0.75728200 0.94841500
vt 0.77338200 0.93428800
vt 0.47202000 0.82592800
vt 0.91426200 0.82592800
vt 0.47202000 0.52321890
vt 0.77338200 0.50437390
vt 0.91426200 0.52321890
vt 0.75728200 0.49024760
vt 0.75728200 0.94841500
vt 0.61290000 0.50437390
vt 0.62900000 0.94841500
vt 0.62900000 0.49024760
vt 0.62900000 0.49024760
vt 0.75728200 0.49024760
vt 0.77338200 0.54124840
vt 0.61290000 0.54124840
vt 0.47202000 0.12567300
vt 0.77338200 0.10764330
vt 0.91426200 0.12567300
vt 0.75728200 0.55537510
vt 0.62900000 0.55537510
vt 0.75728200 0.09351677
vt 0.75728200 0.55537510
vt 0.61290000 0.10764330
vt 0.62900000 0.55537510
vt 0.62900000 0.09351677
vt 0.62900000 0.09351677
vt 0.75728200 0.09351677
vt 0.77338200 0.14193390
vt 0.61290000 0.14193390
vt 0.47202000 0.73073300
vt 0.77338200 0.71447230
vt 0.91426200 0.73073300
vt 0.75728200 0.15606110
vt 0.62900000 0.15606110
vt 0.75728200 0.70034490
vt 0.75728200 0.15606110
vt 0.61290000 0.71447230
vt 0.62900000 0.15606110
vt 0.62900000 0.70034490
vt 0.62900000 0.70034490
vt 0.75728200 0.70034490
vt 0.77338200 0.74516870
vt 0.61290000 0.74516870
vt 0.47202000 0.33525800
vt 0.77338200 0.32082100
vt 0.91426200 0.33525800
vt 0.75728200 0.75929590
vt 0.62900000 0.75929590
vt 0.75728200 0.30669500
vt 0.75728200 0.75929590
vt 0.61290000 0.32082100
vt 0.62900000 0.75929590
vt 0.62900000 0.30669500
vt 0.62900000 0.30669500
vt 0.75728200 0.30669500
vt 0.77338200 0.35165500
vt 0.61290000 0.35165500
vt 0.47202000 0.02646200
vt 0.77338200 0.92591100
vt 0.91426200 0.02646200
vt 0.61290000 0.92591100
vt 0.75728200 0.36578200
vt 0.62900000 0.36578200
vt 0.62900000 0.36578200
vt 0.62900000 0.91178400
vt 0.62900000 0.91178400
vt 0.75728200 0.91178400
vt 0.75728200 0.91178400
vt 0.75728200 0.36578200
vt 0.86237100 0.71027740
vt 0.86967700 0.71027740
vt 0.86967700 0.59279360
vt 0.86237100 0.59279360
vt 0.82774300 0.19179430
vt 0.82043900 0.19179430
vt 0.82043900 0.72840440
vt 0.82774300 0.72840440
vt 0.87939400 0.59280900
vt 0.87208800 0.59280900
vt 0.87208800 0.71026300
vt 0.87939400 0.71026300
vt 0.81236600 0.19451700
vt 0.81967000 0.19451700
vt 0.81967000 0.65786930
vt 0.81236600 0.65786930
vt 0.86984600 0.71028230
vt 0.90980900 0.71028230
vt 0.90980900 0.59278970
vt 0.86984600 0.59278970
vt 0.90695700 0.10704120
vt 0.86699400 0.10704120
vt 0.86699400 0.64781420
vt 0.90695700 0.64781420
vt 0.92729900 0.59279400
vt 0.88733700 0.59279400
vt 0.88733700 0.71027720
vt 0.92729900 0.71027720
vt 0.85018100 0.64781570
vt 0.89014300 0.64781570
vt 0.89014300 0.10703960
vt 0.85018100 0.10703960
vt 0.90482700 0.71028260
vt 0.94479000 0.71028260
vt 0.94479000 0.59278940
vt 0.90482700 0.59278940
vt 0.94058400 0.10653510
vt 0.90062100 0.10653510
vt 0.90062100 0.64869030
vt 0.94058400 0.64869030
vt 0.88380800 0.64869400
vt 0.92377000 0.64869400
vt 0.92377000 0.10653160
vt 0.88380800 0.10653160
vt 0.92231800 0.71028230
vt 0.96228000 0.71028230
vt 0.96228000 0.59278970
vt 0.92231800 0.59278970
vt 0.87332900 0.19088830
vt 0.83336600 0.19088830
vt 0.83336600 0.72995940
vt 0.87332900 0.72995940
vt 0.81655300 0.72996380
vt 0.85651600 0.72996380
vt 0.85651600 0.19088470
vt 0.81655300 0.19088470
vt 0.93980900 0.71028070
vt 0.97977100 0.71028070
vt 0.97977100 0.59279130
vt 0.93980900 0.59279130
vt 0.78601800 0.65921140
vt 0.74605600 0.65921140
vt 0.74605600 0.19219600
vt 0.78601800 0.19219600
vt 0.72924200 0.19220000
vt 0.76920400 0.19220000
vt 0.76920400 0.65920770
vt 0.72924200 0.65920770
vt 0.37083500 0.84127500
vt 0.42551900 0.53187870
vt 0.42551900 0.84127500
vt 0.37083500 0.53187870
vt 0.42551900 0.12855510
vt 0.37083500 0.12855510
vt 0.42551900 0.72781220
vt 0.37083500 0.72781220
vt 0.42551900 0.32653900
vt 0.37083500 0.32653900
vt 0.42551900 0.01111500
vt 0.37083500 0.01111500
vt 0.80226800 0.47894380
vt 0.80226800 0.90735250
vt 0.85695200 0.90735250
vt 0.85695200 0.47894380
vt 0.44689500 0.53185680
vt 0.44689500 0.84123600
vt 0.39221300 0.84123600
vt 0.39221300 0.53185680
vt 0.44689500 0.12854780
vt 0.39221300 0.12854780
vt 0.44689500 0.72781980
vt 0.39221300 0.72781980
vt 0.44689500 0.32656100
vt 0.39221300 0.32656100
vt 0.44689500 0.01115400
vt 0.39221300 0.01115400
vt 0.87832700 0.90736460
vt 0.87832700 0.47893120
vt 0.82364600 0.47893120
vt 0.82364600 0.90736460
vt 0.20500900 0.91810300
vt 0.18891000 0.90397500
vt 0.06062900 0.90397500
vt 0.04452900 0.91810300
vt 0.34588900 0.02646300
vt 0.90365000 0.02646300
vt 0.34588900 0.32917000
vt 0.04452900 0.34801500
vt 0.90365000 0.32917000
vt 0.06062900 0.36214400
vt 0.06062900 0.90397500
vt 0.20500900 0.34801500
vt 0.18891000 0.90397500
vt 0.18891000 0.36214400
vt 0.18891000 0.36214400
vt 0.06062900 0.36214400
vt 0.04452900 0.31114200
vt 0.20500900 0.31114200
vt 0.34588900 0.72671570
vt 0.04452900 0.74474630
vt 0.90365000 0.72671570
vt 0.06062900 0.29701400
vt 0.18891000 0.29701400
vt 0.06062900 0.75887450
vt 0.06062900 0.29701400
vt 0.20500900 0.74474630
vt 0.18891000 0.29701400
vt 0.18891000 0.75887450
vt 0.18891000 0.75887450
vt 0.06062900 0.75887450
vt 0.04452900 0.71045660
vt 0.20500900 0.71045660
vt 0.34588900 0.12165770
vt 0.04452900 0.13791670
vt 0.90365000 0.12165770
vt 0.06062900 0.69632840
vt 0.18891000 0.69632840
vt 0.06062900 0.15204500
vt 0.06062900 0.69632840
vt 0.20500900 0.13791670
vt 0.18891000 0.69632840
vt 0.18891000 0.15204500
vt 0.18891000 0.15204500
vt 0.06062900 0.15204500
vt 0.04452900 0.10721870
vt 0.20500900 0.10721870
vt 0.34588900 0.51713160
vt 0.04452900 0.53156720
vt 0.90365000 0.51713160
vt 0.06062900 0.09309387
vt 0.18891000 0.09309387
vt 0.06062900 0.54569200
vt 0.06062900 0.09309387
vt 0.20500900 0.53156720
vt 0.18891000 0.09309387
vt 0.18891000 0.54569200
vt 0.18891000 0.54569200
vt 0.06062900 0.54569200
vt 0.04452900 0.50073450
vt 0.20500900 0.50073450
vt 0.34588900 0.82592700
vt 0.04452900 0.92647800
vt 0.90365000 0.82592700
vt 0.20500900 0.92647800
vt 0.06062900 0.48660630
vt 0.18891000 0.48660630
vt 0.18891000 0.48660630
vt 0.18891000 0.94060300
vt 0.18891000 0.94060300
vt 0.06062900 0.94060300
vt 0.06062900 0.94060300
vt 0.06062900 0.48660630
vt 0.00189100 0.59279580
vt 0.95462500 0.59279580
vt 0.95462500 0.71027570
vt 0.00189100 0.71027570
vt 0.82623000 0.65786770
vt 0.77896400 0.65786770
vt 0.77896400 0.19451800
vt 0.82623000 0.19451800
vt 0.96520100 0.01333800
vt 0.01246800 0.01333800
vt 0.01246800 0.89586780
vt 0.96520100 0.89586780
vt 0.76019500 0.19451600
vt 0.80746100 0.19451600
vt 0.80746100 0.65786970
vt 0.76019500 0.65786970
vt 0.99102500 0.01333900
vt 0.99102500 0.89586750
vt 0.95106200 0.89586750
vt 0.95106200 0.01333900
vt 0.97421200 0.01334400
vt 0.97421200 0.89586330
vt 0.93424900 0.89586330
vt 0.93424900 0.01334400
vt 0.95739800 0.01334400
vt 0.95739800 0.89586260
vt 0.91743600 0.89586260
vt 0.91743600 0.01334400
vt 0.75647000 0.05335467
vt 0.76855000 0.13383820
vt 0.76855000 0.05335467
vt 0.75647000 0.13383820
vt 0.73997000 0.05335467
vt 0.73997000 0.13383820
vt 0.72347000 0.05335467
vt 0.72347000 0.13383820
vt 0.71139000 0.05335467
vt 0.71139000 0.13383820
vt 0.84884000 0.13104540
vt 0.83349000 0.05614737
vt 0.83349000 0.13104540
vt 0.84884000 0.05614737
vt 0.86420000 0.13104540
vt 0.86420000 0.05614737
vt 0.83729000 0.32072180
vt 0.82520000 0.24023820
vt 0.82520000 0.32072180
vt 0.83729000 0.24023820
vt 0.85379000 0.32072180
vt 0.85379000 0.24023820
vt 0.87029000 0.32072180
vt 0.87029000 0.24023820
vt 0.88237000 0.32072180
vt 0.88237000 0.24023820
vt 0.74550000 0.24303180
vt 0.76086000 0.31793020
vt 0.76086000 0.24303180
vt 0.74550000 0.31793020
vt 0.73015000 0.24303180
vt 0.73015000 0.31793020
vt 0.18513000 0.46335640
vt 0.18513000 0.47001770
vt 0.22028000 0.47001770
vt 0.21644000 0.46335640
vt 0.18513000 0.45425730
vt 0.21121000 0.45425730
vt 0.18513000 0.44515810
vt 0.20598000 0.44515810
vt 0.18513000 0.43849730
vt 0.20215000 0.43849730
vt 0.67588000 0.75298570
vt 0.67588000 0.76165850
vt 0.69209000 0.76163290
vt 0.69076000 0.75298600
vt 0.67588000 0.74431260
vt 0.69209000 0.74433920
vt 0.30820000 0.44515850
vt 0.30820000 0.43849770
vt 0.29118000 0.43849770
vt 0.28735000 0.44515850
vt 0.30820000 0.45425770
vt 0.28212000 0.45425770
vt 0.30820000 0.46335690
vt 0.27689000 0.46335690
vt 0.30820000 0.47001820
vt 0.27306000 0.47001820
vt 0.49157000 0.90779400
vt 0.50025000 0.90779400
vt 0.50022000 0.87427810
vt 0.49157000 0.87294050
vt 0.48289000 0.90779400
vt 0.48292000 0.87427810
vt 0.55887000 0.16582950
vt 0.56533000 0.38383270
vt 0.56532000 0.15936010
vt 0.55888000 0.37736410
vt 0.55007000 0.16812380
vt 0.55007000 0.37506890
vt 0.54126000 0.16582950
vt 0.54126000 0.37736410
vt 0.53481000 0.15936010
vt 0.53481000 0.38383270
vt 0.28735000 0.44515850
vt 0.28735000 0.21401500
vt 0.28212000 0.20491600
vt 0.28212000 0.45425770
vt 0.27689000 0.19581630
vt 0.27689000 0.46335690
vt 0.05373000 0.46503010
vt 0.05373000 0.20551740
vt 0.04729000 0.19905640
vt 0.04729000 0.47149150
vt 0.03849000 0.19669160
vt 0.03849000 0.47385610
vt 0.02969000 0.19905640
vt 0.02969000 0.47149150
vt 0.02325000 0.20551740
vt 0.02325000 0.46503010
vt 0.21644000 0.46335640
vt 0.21644000 0.19581680
vt 0.21121000 0.20491640
vt 0.21121000 0.45425730
vt 0.20598000 0.21401540
vt 0.20598000 0.44515810
vt 0.62072000 0.67672180
vt 0.60864000 0.59623810
vt 0.60864000 0.67672180
vt 0.62072000 0.59623810
vt 0.63723000 0.67672180
vt 0.63723000 0.59623810
vt 0.65373000 0.67672180
vt 0.65373000 0.59623810
vt 0.66581000 0.67672180
vt 0.66581000 0.59623810
vt 0.52894000 0.71501240
vt 0.54430000 0.78991030
vt 0.54430000 0.71501240
vt 0.52894000 0.78991030
vt 0.51359000 0.71501240
vt 0.51359000 0.78991030
vt 0.43716000 0.71221850
vt 0.44924000 0.79270280
vt 0.44924000 0.71221850
vt 0.43716000 0.79270280
vt 0.42066000 0.71221850
vt 0.42066000 0.79270280
vt 0.40416000 0.71221850
vt 0.40416000 0.79270280
vt 0.39208000 0.71221850
vt 0.39208000 0.79270280
vt 0.31238000 0.78991020
vt 0.29702000 0.71501110
vt 0.29702000 0.78991020
vt 0.31238000 0.71501110
vt 0.32774000 0.78991020
vt 0.32774000 0.71501110
vt 0.30820000 0.19581630
vt 0.30820000 0.18915550
vt 0.27306000 0.18915550
vt 0.27689000 0.19581630
vt 0.30820000 0.20491600
vt 0.28212000 0.20491600
vt 0.30820000 0.21401500
vt 0.28735000 0.21401500
vt 0.30820000 0.22067600
vt 0.29118000 0.22067600
vt 0.73875000 0.39698660
vt 0.73875000 0.38831280
vt 0.72253000 0.38833870
vt 0.72387000 0.39698620
vt 0.73875000 0.40566040
vt 0.72253000 0.40563370
vt 0.18513000 0.21401540
vt 0.18513000 0.22067640
vt 0.20215000 0.22067640
vt 0.20598000 0.21401540
vt 0.18513000 0.20491640
vt 0.21121000 0.20491640
vt 0.18513000 0.19581680
vt 0.21644000 0.19581680
vt 0.18513000 0.18915610
vt 0.22028000 0.18915610
vt 0.54002000 0.87294000
vt 0.53134000 0.87294000
vt 0.53137000 0.90645640
vt 0.54002000 0.90779360
vt 0.54870000 0.87294000
vt 0.54867000 0.90645640
vt 0.39610000 0.46335850
vt 0.36097000 0.47001980
vt 0.39610000 0.47001980
vt 0.36480000 0.46335850
vt 0.39610000 0.45425920
vt 0.37003000 0.45425920
vt 0.39610000 0.44515990
vt 0.37527000 0.44515990
vt 0.39610000 0.43849900
vt 0.37909000 0.43849900
vt 0.78539000 0.39698660
vt 0.76918000 0.40563460
vt 0.78539000 0.40566030
vt 0.77051000 0.39698700
vt 0.78539000 0.38831290
vt 0.76918000 0.38833950
vt 0.44890000 0.44515900
vt 0.46591000 0.43849820
vt 0.44890000 0.43849820
vt 0.46974000 0.44515900
vt 0.44890000 0.45425830
vt 0.47497000 0.45425830
vt 0.44890000 0.46335760
vt 0.48020000 0.46335760
vt 0.44890000 0.47001880
vt 0.48403000 0.47001880
vt 0.58847000 0.87293140
vt 0.59712000 0.90643630
vt 0.59715000 0.87293140
vt 0.58847000 0.90777340
vt 0.57979000 0.87293140
vt 0.57982000 0.90643630
vt 0.63962000 0.37736190
vt 0.64607000 0.38383040
vt 0.64607000 0.15935990
vt 0.63962000 0.16582860
vt 0.63081000 0.37506750
vt 0.63081000 0.16812300
vt 0.62200000 0.37736190
vt 0.62200000 0.16582860
vt 0.61555000 0.38383040
vt 0.61555000 0.15935990
vt 0.46974000 0.44515900
vt 0.47497000 0.20491540
vt 0.46974000 0.21401440
vt 0.47497000 0.45425830
vt 0.48020000 0.19581570
vt 0.48020000 0.46335760
vt 0.13286000 0.20552270
vt 0.12642000 0.47148730
vt 0.13286000 0.46502660
vt 0.12642000 0.19906200
vt 0.11762000 0.47385210
vt 0.11762000 0.19669720
vt 0.10882000 0.47148730
vt 0.10882000 0.19906200
vt 0.10238000 0.46502660
vt 0.10238000 0.20552270
vt 0.36480000 0.46335850
vt 0.37003000 0.20491450
vt 0.36480000 0.19581480
vt 0.37003000 0.45425920
vt 0.37527000 0.21401360
vt 0.37527000 0.44515990
vt 0.44890000 0.19581570
vt 0.48403000 0.18915490
vt 0.44890000 0.18915490
vt 0.48020000 0.19581570
vt 0.44890000 0.20491540
vt 0.47497000 0.20491540
vt 0.44890000 0.21401440
vt 0.46974000 0.21401440
vt 0.44890000 0.22067550
vt 0.46591000 0.22067550
vt 0.81583000 0.39698660
vt 0.83205000 0.38833890
vt 0.81583000 0.38831310
vt 0.83071000 0.39698620
vt 0.81583000 0.40566010
vt 0.83205000 0.40563350
vt 0.39610000 0.21401360
vt 0.37909000 0.22067470
vt 0.39610000 0.22067470
vt 0.37527000 0.21401360
vt 0.39610000 0.20491450
vt 0.37003000 0.20491450
vt 0.39610000 0.19581480
vt 0.36480000 0.19581480
vt 0.39610000 0.18915390
vt 0.36097000 0.18915390
vt 0.63692000 0.79179030
vt 0.62827000 0.75828610
vt 0.62824000 0.79179030
vt 0.63692000 0.75694920
vt 0.64560000 0.79179030
vt 0.64557000 0.75828610
vt 0.16789000 0.76245830
vt 0.17894000 0.77350750
vt 0.18550000 0.76213650
vt 0.17926000 0.75589310
vt 0.19403000 0.76442140
vt 0.16385000 0.74736450
vt 0.19403000 0.77755200
vt 0.17698000 0.74736450
vt 0.20256000 0.76213650
vt 0.16789000 0.73227100
vt 0.20913000 0.77350750
vt 0.17926000 0.73883590
vt 0.20881000 0.75589310
vt 0.17894000 0.72122160
vt 0.22017000 0.76245830
vt 0.18550000 0.73259290
vt 0.21109000 0.74736450
vt 0.19403000 0.71717700
vt 0.22422000 0.74736450
vt 0.19403000 0.73030740
vt 0.20881000 0.73883590
vt 0.20913000 0.72122160
vt 0.22017000 0.73227100
vt 0.20256000 0.73259290
vt 0.06187000 0.87516120
vt 0.05082000 0.88621080
vt 0.06219000 0.89277590
vt 0.06844000 0.88653280
vt 0.05991000 0.90130450
vt 0.07697000 0.87111670
vt 0.04678000 0.90130450
vt 0.07697000 0.88424750
vt 0.06219000 0.90983340
vt 0.09206000 0.87516120
vt 0.05082000 0.91639830
vt 0.08549000 0.88653280
vt 0.06844000 0.91607610
vt 0.10311000 0.88621080
vt 0.06187000 0.92744760
vt 0.09174000 0.89277590
vt 0.07697000 0.91836180
vt 0.10715000 0.90130450
vt 0.07697000 0.93149240
vt 0.09402000 0.90130450
vt 0.08549000 0.91607610
vt 0.10311000 0.91639830
vt 0.09206000 0.92744760
vt 0.09174000 0.90983340
vt 0.20712000 0.90778110
vt 0.21849000 0.91434560
vt 0.22473000 0.90810270
vt 0.21816000 0.89673160
vt 0.20307000 0.92287430
vt 0.23326000 0.90581760
vt 0.21620000 0.92287430
vt 0.23326000 0.89268710
vt 0.20712000 0.93796750
vt 0.24179000 0.90810270
vt 0.21849000 0.93140230
vt 0.24835000 0.89673160
vt 0.21816000 0.94901710
vt 0.24803000 0.91434560
vt 0.22473000 0.93764600
vt 0.25940000 0.90778110
vt 0.23326000 0.95306150
vt 0.25031000 0.92287430
vt 0.23326000 0.93993100
vt 0.26344000 0.92287430
vt 0.24835000 0.94901710
vt 0.24803000 0.93140230
vt 0.24179000 0.93764600
vt 0.25940000 0.93796750
vt 0.40446000 0.89673050
vt 0.39790000 0.90810180
vt 0.40414000 0.91434480
vt 0.41551000 0.90778020
vt 0.38937000 0.89268600
vt 0.40643000 0.92287370
vt 0.38937000 0.90581670
vt 0.41956000 0.92287370
vt 0.37427000 0.89673050
vt 0.40414000 0.93140180
vt 0.38084000 0.90810180
vt 0.41551000 0.93796720
vt 0.36322000 0.90778020
vt 0.39790000 0.93764480
vt 0.37460000 0.91434480
vt 0.40446000 0.94901620
vt 0.35918000 0.92287370
vt 0.38937000 0.93993070
vt 0.37231000 0.92287370
vt 0.38937000 0.95306060
vt 0.36322000 0.93796720
vt 0.38084000 0.93764480
vt 0.37460000 0.93140180
vt 0.37427000 0.94901620
f 3/3 2/2 1/1
f 4/4 3/3 1/1
f 7/7 6/6 5/5
f 8/8 7/7 5/5
f 11/11 10/10 9/9
f 10/10 12/12 9/9
f 12/12 10/10 13/13
f 10/10 14/14 13/13
f 13/13 14/14 15/15
f 16/16 13/13 15/15
f 17/17 16/16 15/15
f 13/13 16/16 17/17
f 12/12 13/13 17/17
f 18/18 17/17 15/15
f 12/12 17/17 19/19
f 19/19 17/17 18/18
f 9/9 12/12 19/19
f 20/20 19/19 18/18
f 9/9 19/19 21/21
f 22/22 9/9 21/21
f 22/22 21/21 23/23
f 21/21 24/24 23/23
f 27/27 26/26 25/25
f 26/26 28/28 25/25
f 29/29 28/28 26/26
f 30/30 29/29 26/26
f 30/30 31/31 29/29
f 31/31 32/32 29/29
f 35/35 34/34 33/33
f 34/34 36/36 33/33
f 37/37 36/36 34/34
f 38/38 37/37 34/34
f 37/37 38/38 39/39
f 40/40 37/37 39/39
f 43/43 42/42 41/41
f 42/42 44/44 41/41
f 44/44 45/45 41/41
f 45/45 46/46 41/41
f 45/45 47/47 46/46
f 47/47 48/48 46/46
f 51/51 50/50 49/49
f 50/50 52/52 49/49
f 52/52 53/53 49/49
f 53/53 54/54 49/49
f 53/53 55/55 54/54
f 55/55 56/56 54/54
f 59/59 58/58 57/57
f 58/58 60/60 57/57
f 58/58 61/61 60/60
f 61/61 62/62 60/60
f 62/62 61/61 63/63
f 61/61 64/64 63/63
f 67/67 66/66 65/65
f 66/66 68/68 65/65
f 68/68 69/69 65/65
f 69/69 70/70 65/65
f 69/69 71/71 70/70
f 71/71 72/72 70/70
f 75/75 74/74 73/73
f 74/74 76/76 73/73
f 73/73 76/76 77/77
f 76/76 78/78 77/77
f 77/77 78/78 79/79
f 78/78 80/80 79/79
f 83/83 82/82 81/81
f 84/84 83/83 81/81
f 87/87 86/86 85/85
f 86/86 88/88 85/85
f 85/85 88/88 89/89
f 88/88 90/90 89/89
f 89/89 90/90 91/91
f 90/90 92/92 91/91
f 95/95 94/94 93/93
f 96/96 95/95 93/93
f 99/99 98/98 97/97
f 100/100 99/99 97/97
f 103/103 102/102 101/101
f 104/104 103/103 101/101
f 107/107 106/106 105/105
f 108/108 107/107 105/105
f 107/107 108/108 109/109
f 110/110 107/107 109/109
f 110/110 109/109 111/111
f 109/109 112/112 111/111
f 112/112 113/113 111/111
f 112/112 109/109 113/113
f 109/109 108/108 113/113
f 113/113 114/114 111/111
f 113/113 108/108 115/115
f 113/113 115/115 114/114
f 108/108 105/105 115/115
f 115/115 116/116 114/114
f 115/115 105/105 117/117
f 105/105 118/118 117/117
f 117/117 118/118 119/119
f 120/120 117/117 119/119
f 123/123 122/122 121/121
f 124/124 123/123 121/121
f 124/124 125/125 123/123
f 125/125 126/126 123/123
f 127/127 126/126 125/125
f 128/128 127/127 125/125
f 131/131 130/130 129/129
f 132/132 131/131 129/129
f 132/132 133/133 131/131
f 133/133 134/134 131/131
f 134/134 133/133 135/135
f 133/133 136/136 135/135
f 139/139 138/138 137/137
f 140/140 139/139 137/137
f 143/143 142/142 141/141
f 144/144 143/143 141/141
f 147/147 146/146 145/145
f 148/148 147/147 145/145
f 151/151 150/150 149/149
f 152/152 151/151 149/149
f 155/155 154/154 153/153
f 156/156 155/155 153/153
f 159/159 158/158 157/157
f 160/160 159/159 157/157
f 163/163 162/162 161/161
f 164/164 163/163 161/161
f 164/164 161/161 165/165
f 166/166 164/164 165/165
f 165/165 161/161 167/167
f 168/168 164/164 166/166
f 169/169 168/168 166/166
f 168/168 170/170 164/164
f 170/170 171/171 164/164
f 161/161 172/172 167/167
f 172/172 168/168 169/169
f 167/167 172/172 169/169
f 161/161 173/173 172/172
f 173/173 174/174 172/172
f 172/172 175/175 168/168
f 175/175 176/176 168/168
f 169/169 177/177 167/167
f 177/177 178/178 167/167
f 167/167 178/178 179/179
f 180/180 177/177 169/169
f 181/181 180/180 169/169
f 177/177 182/182 178/178
f 182/182 183/183 178/178
f 180/180 184/184 177/177
f 184/184 185/185 177/177
f 178/178 186/186 179/179
f 186/186 180/180 181/181
f 179/179 186/186 181/181
f 178/178 187/187 186/186
f 187/187 188/188 186/186
f 186/186 189/189 180/180
f 189/189 190/190 180/180
f 181/181 191/191 179/179
f 191/191 192/192 179/179
f 179/179 192/192 193/193
f 194/194 191/191 181/181
f 195/195 194/194 181/181
f 191/191 196/196 192/192
f 196/196 197/197 192/192
f 194/194 198/198 191/191
f 198/198 199/199 191/191
f 192/192 200/200 193/193
f 200/200 194/194 195/195
f 193/193 200/200 195/195
f 192/192 201/201 200/200
f 201/201 202/202 200/200
f 200/200 203/203 194/194
f 203/203 204/204 194/194
f 195/195 205/205 193/193
f 205/205 206/206 193/193
f 193/193 206/206 207/207
f 208/208 205/205 195/195
f 209/209 208/208 195/195
f 205/205 210/210 206/206
f 210/210 211/211 206/206
f 208/208 212/212 205/205
f 212/212 213/213 205/205
f 206/206 214/214 207/207
f 214/214 208/208 209/209
f 207/207 214/214 209/209
f 206/206 215/215 214/214
f 215/215 216/216 214/214
f 214/214 217/217 208/208
f 217/217 218/218 208/208
f 209/209 219/219 207/207
f 219/219 220/220 207/207
f 207/207 220/220 221/221
f 222/222 219/219 209/209
f 223/223 222/222 209/209
f 221/221 224/224 223/223
f 220/220 224/224 221/221
f 224/224 222/222 223/223
f 219/219 225/225 220/220
f 225/225 226/226 220/220
f 220/220 227/227 224/224
f 227/227 228/228 224/224
f 224/224 229/229 222/222
f 229/229 230/230 222/222
f 222/222 231/231 219/219
f 231/231 232/232 219/219
f 235/235 234/234 233/233
f 236/236 235/235 233/233
f 239/239 238/238 237/237
f 240/240 239/239 237/237
f 243/243 242/242 241/241
f 244/244 243/243 241/241
f 247/247 246/246 245/245
f 248/248 247/247 245/245
f 251/251 250/250 249/249
f 252/252 251/251 249/249
f 255/255 254/254 253/253
f 256/256 255/255 253/253
f 259/259 258/258 257/257
f 260/260 259/259 257/257
f 263/263 262/262 261/261
f 264/264 263/263 261/261
f 267/267 266/266 265/265
f 268/268 267/267 265/265
f 271/271 270/270 269/269
f 272/272 271/271 269/269
f 275/275 274/274 273/273
f 276/276 275/275 273/273
f 279/279 278/278 277/277
f 280/280 279/279 277/277
f 283/283 282/282 281/281
f 284/284 283/283 281/281
f 287/287 286/286 285/285
f 288/288 287/287 285/285
f 291/291 290/290 289/289
f 292/292 291/291 289/289
f 295/295 294/294 293/293
f 296/296 295/295 293/293
f 299/299 298/298 297/297
f 300/300 299/299 297/297
f 303/303 302/302 301/301
f 302/302 304/304 301/301
f 302/302 305/305 304/304
f 305/305 306/306 304/304
f 305/305 307/307 306/306
f 307/307 308/308 306/306
f 307/307 309/309 308/308
f 309/309 310/310 308/308
f 309/309 311/311 310/310
f 311/311 312/312 310/310
f 315/315 314/314 313/313
f 316/316 315/315 313/313
f 319/319 318/318 317/317
f 320/320 319/319 317/317
f 320/320 317/317 321/321
f 322/322 320/320 321/321
f 322/322 321/321 323/323
f 324/324 322/322 323/323
f 324/324 323/323 325/325
f 326/326 324/324 325/325
f 326/326 325/325 327/327
f 328/328 326/326 327/327
f 331/331 330/330 329/329
f 332/332 331/331 329/329
f 335/335 334/334 333/333
f 336/336 335/335 333/333
f 336/336 333/333 337/337
f 338/338 336/336 337/337
f 337/337 333/333 339/339
f 340/340 336/336 338/338
f 341/341 340/340 338/338
f 340/340 342/342 336/336
f 342/342 343/343 336/336
f 333/333 344/344 339/339
f 344/344 340/340 341/341
f 339/339 344/344 341/341
f 333/333 345/345 344/344
f 345/345 346/346 344/344
f 344/344 347/347 340/340
f 347/347 348/348 340/340
f 341/341 349/349 339/339
f 349/349 350/350 339/339
f 339/339 350/350 351/351
f 352/352 349/349 341/341
f 353/353 352/352 341/341
f 349/349 354/354 350/350
f 354/354 355/355 350/350
f 352/352 356/356 349/349
f 356/356 357/357 349/349
f 350/350 358/358 351/351
f 358/358 352/352 353/353
f 351/351 358/358 353/353
f 350/350 359/359 358/358
f 359/359 360/360 358/358
f 358/358 361/361 352/352
f 361/361 362/362 352/352
f 353/353 363/363 351/351
f 363/363 364/364 351/351
f 351/351 364/364 365/365
f 366/366 363/363 353/353
f 367/367 366/366 353/353
f 363/363 368/368 364/364
f 368/368 369/369 364/364
f 366/366 370/370 363/363
f 370/370 371/371 363/363
f 364/364 372/372 365/365
f 372/372 366/366 367/367
f 365/365 372/372 367/367
f 364/364 373/373 372/372
f 373/373 374/374 372/372
f 372/372 375/375 366/366
f 375/375 376/376 366/366
f 367/367 377/377 365/365
f 377/377 378/378 365/365
f 365/365 378/378 379/379
f 380/380 377/377 367/367
f 381/381 380/380 367/367
f 377/377 382/382 378/378
f 382/382 383/383 378/378
f 380/380 384/384 377/377
f 384/384 385/385 377/377
f 378/378 386/386 379/379
f 386/386 380/380 381/381
f 379/379 386/386 381/381
f 378/378 387/387 386/386
f 387/387 388/388 386/386
f 386/386 389/389 380/380
f 389/389 390/390 380/380
f 381/381 391/391 379/379
f 391/391 392/392 379/379
f 379/379 392/392 393/393
f 394/394 391/391 381/381
f 395/395 394/394 381/381
f 393/393 396/396 395/395
f 392/392 396/396 393/393
f 396/396 394/394 395/395
f 391/391 397/397 392/392
f 397/397 398/398 392/392
f 392/392 399/399 396/396
f 399/399 400/400 396/396
f 396/396 401/401 394/394
f 401/401 402/402 394/394
f 394/394 403/403 391/391
f 403/403 404/404 391/391
f 407/407 406/406 405/405
f 408/408 407/407 405/405
f 411/411 410/410 409/409
f 412/412 411/411 409/409
f 415/415 414/414 413/413
f 416/416 415/415 413/413
f 419/419 418/418 417/417
f 420/420 419/419 417/417
f 423/423 422/422 421/421
f 424/424 423/423 421/421
f 427/427 426/426 425/425
f 428/428 427/427 425/425
f 431/431 430/430 429/429
f 432/432 431/431 429/429
f 435/435 434/434 433/433
f 434/434 436/436 433/433
f 433/433 436/436 437/437
f 436/436 438/438 437/437
f 437/437 438/438 439/439
f 438/438 440/440 439/439
f 439/439 440/440 441/441
f 440/440 442/442 441/441
f 445/445 444/444 443/443
f 444/444 446/446 443/443
f 443/443 446/446 447/447
f 446/446 448/448 447/447
f 451/451 450/450 449/449
f 450/450 452/452 449/449
f 449/449 452/452 453/453
f 452/452 454/454 453/453
f 453/453 454/454 455/455
f 454/454 456/456 455/455
f 455/455 456/456 457/457
f 456/456 458/458 457/457
f 461/461 460/460 459/459
f 460/460 462/462 459/459
f 459/459 462/462 463/463
f 462/462 464/464 463/463
f 467/467 466/466 465/465
f 468/468 467/467 465/465
f 468/468 465/465 469/469
f 470/470 468/468 469/469
f 470/470 469/469 471/471
f 472/472 470/470 471/471
f 472/472 471/471 473/473
f 474/474 472/472 473/473
f 477/477 476/476 475/475
f 478/478 477/477 475/475
f 478/478 475/475 479/479
f 480/480 478/478 479/479
f 483/483 482/482 481/481
f 484/484 483/483 481/481
f 484/484 481/481 485/485
f 486/486 484/484 485/485
f 486/486 485/485 487/487
f 488/488 486/486 487/487
f 488/488 487/487 489/489
f 490/490 488/488 489/489
f 493/493 492/492 491/491
f 494/494 493/493 491/491
f 494/494 491/491 495/495
f 496/496 494/494 495/495
f 499/499 498/498 497/497
f 498/498 500/500 497/497
f 497/497 500/500 501/501
f 500/500 502/502 501/501
f 501/501 502/502 503/503
f 502/502 504/504 503/503
f 503/503 504/504 505/505
f 504/504 506/506 505/505
f 509/509 508/508 507/507
f 510/510 509/509 507/507
f 511/511 509/509 510/510
f 512/512 511/511 510/510
f 515/515 514/514 513/513
f 516/516 515/515 513/513
f 517/517 515/515 516/516
f 518/518 517/517 516/516
f 519/519 517/517 518/518
f 520/520 519/519 518/518
f 521/521 519/519 520/520
f 522/522 521/521 520/520
f 525/525 524/524 523/523
f 526/526 525/525 523/523
f 527/527 525/525 526/526
f 528/528 527/527 526/526
f 531/531 530/530 529/529
f 530/530 532/532 529/529
f 529/529 532/532 533/533
f 532/532 534/534 533/533
f 533/533 534/534 535/535
f 534/534 536/536 535/535
f 535/535 536/536 537/537
f 536/536 538/538 537/537
f 541/541 540/540 539/539
f 540/540 542/542 539/539
f 539/539 542/542 543/543
f 542/542 544/544 543/543
f 547/547 546/546 545/545
f 546/546 548/548 545/545
f 545/545 548/548 549/549
f 548/548 550/550 549/549
f 549/549 550/550 551/551
f 550/550 552/552 551/551
f 551/551 552/552 553/553
f 552/552 554/554 553/553
f 557/557 556/556 555/555
f 556/556 558/558 555/555
f 555/555 558/558 559/559
f 558/558 560/560 559/559
f 563/563 562/562 561/561
f 564/564 563/563 561/561
f 564/564 561/561 565/565
f 566/566 564/564 565/565
f 566/566 565/565 567/567
f 568/568 566/566 567/567
f 568/568 567/567 569/569
f 570/570 568/568 569/569
f 573/573 572/572 571/571
f 574/574 573/573 571/571
f 574/574 571/571 575/575
f 576/576 574/574 575/575
f 579/579 578/578 577/577
f 580/580 579/579 577/577
f 580/580 577/577 581/581
f 582/582 580/580 581/581
f 582/582 581/581 583/583
f 584/584 582/582 583/583
f 584/584 583/583 585/585
f 586/586 584/584 585/585
f 589/589 588/588 587/587
f 590/590 589/589 587/587
f 590/590 587/587 591/591
f 592/592 590/590 591/591
f 595/595 594/594 593/593
f 594/594 596/596 593/593
f 593/593 596/596 597/597
f 596/596 598/598 597/597
f 597/597 598/598 599/599
f 598/598 600/600 599/599
f 599/599 600/600 601/601
f 600/600 602/602 601/601
f 605/605 604/604 603/603
f 604/604 606/606 603/603
f 603/603 606/606 607/607
f 606/606 608/608 607/607
f 611/611 610/610 609/609
f 610/610 612/612 609/609
f 609/609 612/612 613/613
f 612/612 614/614 613/613
f 613/613 614/614 615/615
f 614/614 616/616 615/615
f 615/615 616/616 617/617
f 616/616 618/618 617/617
f 621/621 620/620 619/619
f 620/620 622/622 619/619
f 619/619 622/622 623/623
f 622/622 624/624 623/623
f 627/627 626/626 625/625
f 628/628 627/627 625/625
f 628/628 625/625 629/629
f 630/630 628/628 629/629
f 630/630 629/629 631/631
f 632/632 630/630 631/631
f 632/632 631/631 633/633
f 634/634 632/632 633/633
f 637/637 636/636 635/635
f 636/636 638/638 635/635
f 636/636 639/639 638/638
f 639/639 640/640 638/638
f 643/643 642/642 641/641
f 642/642 644/644 641/641
f 642/642 645/645 644/644
f 645/645 646/646 644/644
f 645/645 647/647 646/646
f 647/647 648/648 646/646
f 647/647 649/649 648/648
f 649/649 650/650 648/648
f 653/653 652/652 651/651
f 652/652 654/654 651/651
f 652/652 655/655 654/654
f 655/655 656/656 654/654
f 659/659 658/658 657/657
f 658/658 660/660 657/657
f 657/657 660/660 661/661
f 660/660 662/662 661/661
f 661/661 662/662 663/663
f 662/662 664/664 663/663
f 663/663 664/664 665/665
f 664/664 666/666 665/665
f 669/669 668/668 667/667
f 668/668 670/670 667/667
f 667/667 670/670 671/671
f 670/670 672/672 671/671
f 675/675 674/674 673/673
f 674/674 676/676 673/673
f 673/673 676/676 677/677
f 676/676 678/678 677/677
f 677/677 678/678 679/679
f 678/678 680/680 679/679
f 679/679 680/680 681/681
f 680/680 682/682 681/681
f 685/685 684/684 683/683
f 684/684 686/686 683/683
f 683/683 686/686 687/687
f 686/686 688/688 687/687
f 691/691 690/690 689/689
f 692/692 691/691 689/689
f 691/691 693/693 690/690
f 692/692 689/689 694/694
f 693/693 695/695 690/690
f 696/696 692/692 694/694
f 693/693 697/697 695/695
f 696/696 694/694 698/698
f 697/697 699/699 695/695
f 700/700 696/696 698/698
f 697/697 701/701 699/699
f 700/700 698/698 702/702
f 701/701 703/703 699/699
f 704/704 700/700 702/702
f 701/701 705/705 703/703
f 704/704 702/702 706/706
f 705/705 707/707 703/703
f 708/708 704/704 706/706
f 705/705 709/709 707/707
f 708/708 706/706 710/710
f 709/709 711/711 707/707
f 712/712 708/708 710/710
f 712/712 710/710 711/711
f 709/709 712/712 711/711
f 715/715 714/714 713/713
f 716/716 715/715 713/713
f 715/715 717/717 714/714
f 716/716 713/713 718/718
f 717/717 719/719 714/714
f 720/720 716/716 718/718
f 717/717 721/721 719/719
f 720/720 718/718 722/722
f 721/721 723/723 719/719
f 724/724 720/720 722/722
f 721/721 725/725 723/723
f 724/724 722/722 726/726
f 725/725 727/727 723/723
f 728/728 724/724 726/726
f 725/725 729/729 727/727
f 728/728 726/726 730/730
f 729/729 731/731 727/727
f 732/732 728/728 730/730
f 729/729 733/733 731/731
f 732/732 730/730 734/734
f 733/733 735/735 731/731
f 736/736 732/732 734/734
f 736/736 734/734 735/735
f 733/733 736/736 735/735
f 739/739 738/738 737/737
f 740/740 739/739 737/737
f 737/737 738/738 741/741
f 742/742 739/739 740/740
f 738/738 743/743 741/741
f 744/744 742/742 740/740
f 741/741 743/743 745/745
f 746/746 742/742 744/744
f 743/743 747/747 745/745
f 748/748 746/746 744/744
f 745/745 747/747 749/749
f 750/750 746/746 748/748
f 747/747 751/751 749/749
f 752/752 750/750 748/748
f 749/749 751/751 753/753
f 754/754 750/750 752/752
f 751/751 755/755 753/753
f 756/756 754/754 752/752
f 753/753 755/755 757/757
f 758/758 754/754 756/756
f 755/755 759/759 757/757
f 760/760 758/758 756/756
f 757/757 759/759 760/760
f 759/759 758/758 760/760
f 763/763 762/762 761/761
f 764/764 763/763 761/761
f 761/761 762/762 765/765
f 766/766 763/763 764/764
f 762/762 767/767 765/765
f 768/768 766/766 764/764
f 765/765 767/767 769/769
f 770/770 766/766 768/768
f 767/767 771/771 769/769
f 772/772 770/770 768/768
f 769/769 771/771 773/773
f 774/774 770/770 772/772
f 771/771 775/775 773/773
f 776/776 774/774 772/772
f 773/773 775/775 777/777
f 778/778 774/774 776/776
f 775/775 779/779 777/777
f 780/780 778/778 776/776
f 777/777 779/779 781/781
f 782/782 778/778 780/780
f 779/779 783/783 781/781
f 784/784 782/782 780/780
f 781/781 783/783 784/784
f 783/783 782/782 784/784