mtllib material.mtl
usemtl material_0
v 0.05306663 0.09290508 -0.00579349
v 0.05192795 0.09110263 -0.00358058
v 0.05591232 0.08718479 -0.00358058
v 0.04293182 0.02739340 -0.00579348
v 0.04239410 0.02949519 -0.00358056
v 0.03980476 0.02815794 -0.00358056
v 0.04024872 0.00274502 -0.00000000
v 0.03743973 0.00000000 0.01003195
v 0.03887733 0.00274502 0.01041714
v 0.03485641 0.00274502 0.02012437
v 0.03485641 0.00567115 0.02012438
v 0.03887733 0.00567115 0.01041714
v 0.03863159 0.10016770 0.02230397
v 0.04308800 0.10016770 0.01154537
v 0.04024872 0.00567114 -0.00000000
v 0.03860260 0.10302200 0.02228719
v 0.04305557 0.10302200 0.01153669
v 0.04460793 0.10016770 -0.00000002
v 0.04457443 0.10302200 -0.00000002
v 0.04308800 0.10016770 -0.01154541
v 0.04305557 0.10302200 -0.01153672
v 0.05987389 0.07065163 -0.00579349
v 0.05784858 0.07024071 -0.00358057
v 0.05521957 0.05723824 -0.00358057
v 0.05695663 0.05660347 -0.00579349
v 0.05139549 0.04463545 -0.00358057
v 0.05263016 0.04316729 -0.00579349
v 0.04685295 0.03517062 -0.00358056
v 0.04780319 0.03333163 -0.00579348
v 0.04239410 0.02949519 -0.00358056
v 0.04293182 0.02739340 -0.00579348
v 0.06225227 0.07069107 -0.00579349
v 0.05904732 0.05570096 -0.00579349
v 0.06258041 0.08237018 -0.00579349
v 0.05421470 0.04146137 -0.00579348
v 0.06013412 0.08141553 -0.00579349
v 0.04909172 0.03117445 -0.00579348
v 0.05969406 0.09051696 -0.00579349
v 0.04365616 0.02497529 -0.00579348
v 0.04004433 0.02597507 -0.00579348
v 0.04037064 0.02343883 -0.00579348
v 0.03767738 0.02519318 -0.00579348
v 0.03767738 0.02263873 -0.00579348
v 0.05761253 0.08875465 -0.00579350
v 0.05450836 0.09505461 -0.00579350
v 0.04797195 0.09681760 -0.00579350
v 0.04729828 0.09456727 -0.00579350
v 0.04224953 0.09636664 -0.00579350
v 0.04219017 0.09403385 -0.00579350
v 0.04067711 0.09625541 -0.00579350
v 0.04079048 0.09388844 -0.00579349
v 0.05709137 0.07002118 0.00000000
v 0.05784858 0.07024071 0.00358058
v 0.05521957 0.05723824 0.00358058
v 0.05695663 0.05660347 0.00579350
v 0.05987389 0.07065163 0.00579350
v 0.06225227 0.07069107 0.00579350
v 0.06067222 0.05481578 0.00358058
v 0.05904732 0.05570097 0.00579350
v 0.06401062 0.07045875 0.00358058
v 0.06258041 0.08237018 0.00579350
v 0.06453858 0.08302349 0.00358058
v 0.06462631 0.07003959 0.00000000
v 0.06525932 0.08323153 0.00000000
v 0.06135902 0.09194197 0.00358058
v 0.06198730 0.09248717 -0.00000000
v 0.06453858 0.08302348 -0.00358057
v 0.06135902 0.09194197 -0.00358058
v 0.06258041 0.08237018 -0.00579349
v 0.06225227 0.07069107 -0.00579349
v 0.06401062 0.07045875 -0.00358057
v 0.05904732 0.05570096 -0.00579349
v 0.06067222 0.05481578 -0.00358057
v 0.05421470 0.04146137 -0.00579348
v 0.06130897 0.05437530 0.00000001
v 0.05556694 0.04018520 -0.00358057
v 0.04909172 0.03117445 -0.00579348
v 0.05018646 0.02968863 -0.00358056
v 0.05609855 0.03967523 0.00000001
v 0.05556694 0.04018519 0.00358059
v 0.05061317 0.02925704 0.00000001
v 0.05018646 0.02968863 0.00358059
v 0.05904732 0.05570097 0.00579350
v 0.06067222 0.05481578 0.00358058
v 0.05556694 0.04018519 0.00358059
v 0.05421470 0.04146138 0.00579350
v 0.04651535 0.03584987 0.00000001
v 0.05091843 0.04506205 0.00000001
v 0.04685295 0.03517062 0.00358059
v 0.05139549 0.04463545 0.00358058
v 0.05458878 0.05733104 0.00000001
v 0.05813728 0.08047101 -0.00358057
v 0.05733383 0.07999105 0.00000000
v 0.05813728 0.08047101 0.00358058
v 0.05523155 0.08651485 0.00000000
v 0.05591232 0.08718480 0.00358058
v 0.05147537 0.09034896 -0.00000000
v 0.05139549 0.04463545 0.00358058
v 0.04780319 0.03333163 0.00579351
v 0.04685295 0.03517062 0.00358059
v 0.05263016 0.04316729 0.00579350
v 0.05521957 0.05723824 0.00358058
v 0.05695663 0.05660347 0.00579350
v 0.04909172 0.03117445 0.00579351
v 0.04365616 0.02497529 0.00579351
v 0.04293182 0.02739340 0.00579351
v 0.04037064 0.02343883 0.00579351
v 0.04004433 0.02597507 0.00579351
v 0.03767738 0.02263873 0.00579351
v 0.03767738 0.02519318 0.00579351
v 0.05987389 0.07065163 0.00579350
v 0.06225227 0.07069107 0.00579350
v 0.06013412 0.08141553 0.00579350
v 0.06258041 0.08237018 0.00579350
v 0.05813728 0.08047101 0.00358058
v 0.05784858 0.07024071 0.00358058
v 0.05591232 0.08718480 0.00358058
v 0.05761253 0.08875465 0.00579349
v 0.05969406 0.09051696 0.00579349
v 0.05306663 0.09290508 0.00579349
v 0.05450836 0.09505461 0.00579349
v 0.04729828 0.09456727 0.00579349
v 0.04797195 0.09681760 0.00579349
v 0.04219017 0.09403385 0.00579349
v 0.05421470 0.04146138 0.00579350
v 0.05556694 0.04018519 0.00358059
v 0.05018646 0.02968863 0.00358059
v 0.04909172 0.03117445 0.00579351
v 0.04425064 0.02315003 0.00358059
v 0.04365616 0.02497529 0.00579351
v 0.04447769 0.02246279 0.00000001
v 0.05061317 0.02925704 0.00000001
v 0.04063843 0.02148449 0.00358059
v 0.04037064 0.02343883 0.00579351
v 0.03767738 0.02068206 0.00358059
v 0.03767738 0.02263873 0.00579351
v 0.03767738 0.01995941 0.00000001
v 0.04074074 0.02075914 0.00000001
v 0.03767738 0.02068206 -0.00358056
v 0.04063843 0.02148449 -0.00358056
v 0.03767738 0.02263873 -0.00579348
v 0.04037064 0.02343883 -0.00579348
v 0.04425064 0.02315003 -0.00358056
v 0.05018646 0.02968863 -0.00358056
v 0.04365616 0.02497529 -0.00579348
v 0.04909172 0.03117445 -0.00579348
v 0.04651535 0.03584987 0.00000001
v 0.04685295 0.03517062 0.00358059
v 0.04239410 0.02949519 0.00358059
v 0.04220276 0.03034069 0.00000001
v 0.04685295 0.03517062 -0.00358056
v 0.03980476 0.02815794 0.00358059
v 0.03972618 0.02903019 0.00000001
v 0.03768219 0.02737715 0.00358059
v 0.03769607 0.02824819 0.00000001
v 0.03768219 0.02737715 -0.00358056
v 0.04004433 0.02597507 -0.00579348
v 0.03767738 0.02519318 -0.00579348
v 0.04780319 0.03333163 0.00579351
v 0.04293182 0.02739340 0.00579351
v 0.04004433 0.02597507 0.00579351
v 0.03767738 0.02519318 0.00579351
v 0.04224953 0.09636664 0.00579349
v 0.04079048 0.09388844 0.00579349
v 0.04067711 0.09625541 0.00579349
v 0.04729828 0.09456727 -0.00579350
v 0.05192795 0.09110263 -0.00358058
v 0.05306663 0.09290508 -0.00579349
v 0.04676025 0.09257052 -0.00358058
v 0.04219017 0.09403385 -0.00579350
v 0.05147537 0.09034896 -0.00000000
v 0.04217567 0.09198745 -0.00358058
v 0.04079048 0.09388844 -0.00579349
v 0.04092560 0.09183309 -0.00358058
v 0.04659515 0.09181004 -0.00000000
v 0.05192795 0.09110264 0.00358057
v 0.04676025 0.09257053 0.00358057
v 0.04224151 0.09118909 0.00000000
v 0.04104996 0.09102640 -0.00000000
v 0.04217567 0.09198745 0.00358058
v 0.04092560 0.09183309 0.00358057
v 0.04853073 0.09856783 0.00358057
v 0.05594810 0.09745038 -0.00000000
v 0.05561378 0.09679176 0.00358058
v 0.04797195 0.09681760 0.00579349
v 0.04224953 0.09636664 0.00579349
v 0.05450836 0.09505461 0.00579349
v 0.06135902 0.09194197 0.00358058
v 0.05969406 0.09051696 0.00579349
v 0.04232643 0.09818769 0.00358057
v 0.04067711 0.09625541 0.00579349
v 0.04061699 0.09809931 0.00358057
v 0.05561378 0.09679176 -0.00358057
v 0.05450836 0.09505461 -0.00579350
v 0.05969406 0.09051696 -0.00579349
v 0.05591232 0.08718480 0.00358058
v 0.05523155 0.08651485 0.00000000
v 0.05761253 0.08875465 0.00579349
v 0.05306663 0.09290508 0.00579349
v 0.04729828 0.09456727 0.00579349
v 0.04219017 0.09403385 0.00579349
v 0.04079048 0.09388844 0.00579349
v 0.06198730 0.09248717 -0.00000000
v 0.06135902 0.09194197 -0.00358058
v 0.05561378 0.09679176 -0.00358057
v 0.04872513 0.09907620 -0.00000000
v 0.04853073 0.09856782 -0.00358058
v 0.05450836 0.09505461 -0.00579350
v 0.04797195 0.09681760 -0.00579350
v 0.04239143 0.09886025 -0.00000000
v 0.04064293 0.09881808 -0.00000000
v 0.04232643 0.09818769 -0.00358058
v 0.04224953 0.09636664 -0.00579350
v 0.04061699 0.09809931 -0.00358058
v 0.04067711 0.09625541 -0.00579350
v 0.06135902 0.09194197 0.00358058
v 0.06453858 0.08302349 0.00358058
v 0.00000000 0.10016770 -0.04460800
v 0.01153671 0.10302200 -0.04305560
v 0.00000000 0.10302200 -0.04457444
v 0.01154541 0.10016770 -0.04308802
v 0.00000000 0.00567114 -0.04024876
v 0.02228722 0.10302200 -0.03860260
v 0.01041710 0.00567114 -0.03887732
v 0.00000000 0.00274502 -0.04024876
v 0.01041710 0.00274502 -0.03887732
v 0.02230400 0.10016770 -0.03863166
v 0.03151886 0.10302200 -0.03151889
v 0.03154259 0.10016770 -0.03154262
v 0.03860260 0.10302200 -0.02228723
v 0.02012436 0.00567114 -0.03485645
v 0.02012436 0.00274502 -0.03485645
v 0.01938019 -0.00000000 -0.03356756
v 0.01003197 -0.00000000 -0.03743975
v 0.02740776 -0.00000000 -0.02740780
v 0.03863159 0.10016770 0.02230397
v 0.03151886 0.10302200 0.03151885
v 0.03860260 0.10302200 0.02228719
v 0.03154259 0.10016770 0.03154258
v 0.03485641 0.00567115 0.02012438
v 0.02228722 0.10302200 0.03860256
v 0.02846016 0.00567115 0.02846016
v 0.03485641 0.00274502 0.02012437
v 0.02846016 0.00274503 0.02846017
v 0.02230400 0.10016770 0.03863162
v 0.01153671 0.10302200 0.04305556
v 0.01154541 0.10016770 0.04308798
v 0.02012436 0.00567115 0.03485644
v 0.01041718 0.00567115 0.03887732
v 0.02012436 0.00274503 0.03485644
v 0.01041718 0.00274503 0.03887732
v 0.01938026 0.00000001 0.03356756
v 0.02740776 0.00000001 0.02740779
v 0.01003197 0.00000001 0.03743975
v 0.00000000 0.10302200 0.04457441
v 0.00000000 0.10016770 0.04460796
v -0.01153671 0.10302200 0.04305557
v 0.00000000 0.00567115 0.04024876
v -0.01154541 0.10016770 0.04308799
v -0.02228722 0.10302200 0.03860258
v -0.02230400 0.10016770 0.03863164
v -0.03151886 0.10302200 0.03151888
v -0.03154259 0.10016770 0.03154261
v -0.03860260 0.10302200 0.02228721
v -0.01041718 0.00567115 0.03887732
v -0.02012436 0.00567115 0.03485646
v 0.00000000 0.00274503 0.04024876
v -0.01041718 0.00274503 0.03887732
v -0.02012436 0.00274503 0.03485646
v -0.02846016 0.00567115 0.02846019
v -0.01938026 0.00000001 0.03356757
v -0.01003197 0.00000001 0.03743975
v 0.00000000 0.00000001 0.03876048
v -0.03863167 0.10016770 0.02230399
v -0.03485649 0.00567115 0.02012439
v -0.02846016 0.00274503 0.02846019
v -0.03485649 0.00274503 0.02012439
v -0.03356758 0.00000000 0.01938025
v -0.02740784 0.00000001 0.02740782
v -0.03863167 0.10016770 0.02230399
v -0.04305557 0.10302200 0.01153671
v -0.03860260 0.10302200 0.02228721
v -0.04308800 0.10016770 0.01154540
v -0.03485649 0.00567115 0.02012439
v -0.04457443 0.10302200 0.00000000
v -0.03887733 0.00567115 0.01041716
v -0.03485649 0.00274503 0.02012439
v -0.04460800 0.10016770 0.00000000
v -0.04305557 0.10302200 -0.01153670
v -0.04308800 0.10016770 -0.01154539
v -0.03860260 0.10302200 -0.02228721
v -0.04024879 0.00567114 0.00000002
v -0.03887733 0.00274502 0.01041716
v -0.03863167 0.10016770 -0.02230398
v -0.03151894 0.10302200 -0.03151888
v -0.03154266 0.10016770 -0.03154260
v -0.03743973 0.00000000 0.01003197
v -0.03356758 0.00000000 0.01938025
v -0.03876053 0.00000000 0.00000002
v -0.04024879 0.00274502 0.00000002
v -0.03743980 -0.00000000 -0.01003193
v -0.03887733 0.00567114 -0.01041712
v -0.03485649 0.00567114 -0.02012436
v -0.02846023 0.00567114 -0.02846015
v -0.03887733 0.00274502 -0.01041712
v -0.03356758 -0.00000000 -0.01938022
v -0.03485649 0.00274502 -0.02012436
v -0.02846023 0.00274502 -0.02846015
v -0.02740784 -0.00000000 -0.02740778
v -0.02228729 0.10302200 -0.03860259
v -0.02230400 0.10016770 -0.03863164
v -0.01153679 0.10302200 -0.04305560
v -0.02012444 0.00567114 -0.03485643
v -0.01154541 0.10016770 -0.04308801
v 0.00000000 0.10302200 -0.04457444
v 0.00000000 0.10016770 -0.04460800
v -0.01041718 0.00567114 -0.03887731
v 0.00000000 0.00567114 -0.04024876
v -0.02012444 0.00274502 -0.03485643
v -0.01041718 0.00274502 -0.03887731
v 0.00000000 0.00274502 -0.04024876
v -0.01003197 -0.00000000 -0.03743974
v -0.01938026 -0.00000000 -0.03356755
v 0.01003197 -0.00000000 -0.03743975
v 0.00000000 -0.00000000 -0.03876048
v -0.01003197 -0.00000000 -0.03743974
v 0.01938019 -0.00000000 -0.03356756
v -0.01938026 -0.00000000 -0.03356755
v 0.02740776 -0.00000000 -0.02740780
v -0.02740784 -0.00000000 -0.02740778
v 0.03356750 -0.00000000 -0.01938024
v -0.03356758 -0.00000000 -0.01938022
v 0.03743973 0.00000000 -0.01003195
v -0.03743980 -0.00000000 -0.01003193
v 0.03876045 0.00000000 -0.00000000
v -0.03876053 0.00000000 0.00000002
v 0.03743973 0.00000000 0.01003195
v -0.03743973 0.00000000 0.01003197
v 0.03356758 0.00000000 0.01938024
v -0.03356758 0.00000000 0.01938025
v 0.02740776 0.00000001 0.02740779
v -0.02740784 0.00000001 0.02740782
v 0.01938026 0.00000001 0.03356756
v -0.01938026 0.00000001 0.03356757
v 0.01003197 0.00000001 0.03743975
v -0.01003197 0.00000001 0.03743975
v 0.00000000 0.00000001 0.03876048
v 0.03887733 0.00274502 0.01041714
v 0.03485641 0.00274502 0.02012437
v 0.02846016 0.00274503 0.02846017
v 0.00000000 0.00274502 -0.04024876
v 0.01041710 0.00274502 -0.03887732
v -0.01041718 0.00274502 -0.03887731
v 0.03876045 0.00000000 -0.00000000
v 0.03887733 0.00274502 -0.01041715
v 0.03743973 0.00000000 -0.01003195
v 0.03485641 0.00274502 -0.02012438
v 0.03356750 -0.00000000 -0.01938024
v 0.02846016 0.00274502 -0.02846017
v 0.02846016 0.00567114 -0.02846017
v 0.03485641 0.00567114 -0.02012438
v 0.03863159 0.10016770 -0.02230401
v 0.03887733 0.00567114 -0.01041715
v 0.03496384 0.10016770 -0.02018641
v 0.03493927 0.10301540 -0.02017222
v 0.03896973 0.10301540 -0.01044192
v 0.03899711 0.10016770 -0.01044926
v 0.03346229 0.07551546 -0.01931950
v 0.04034439 0.10301540 -0.00000002
v 0.03732239 0.07551547 -0.01000052
v 0.03162193 0.01207204 -0.01825696
v 0.04037277 0.10016770 -0.00000002
v 0.03896973 0.10301540 0.01044188
v 0.03899711 0.10016770 0.01044923
v 0.03863899 0.07551546 -0.00000001
v 0.03732239 0.07551546 0.01000049
v 0.03526970 0.01207204 -0.00945050
v 0.03162193 0.00945100 -0.01825696
v 0.03651390 0.01207204 -0.00000000
v 0.03526970 0.00945101 -0.00945050
v 0.03493927 0.10301540 0.02017218
v 0.03496384 0.10016770 0.02018637
v 0.02852776 0.10301540 0.02852778
v 0.02854782 0.10016770 0.02854785
v 0.02017220 0.10301540 0.03493926
v 0.03346229 0.07551547 0.01931948
v 0.02018639 0.10016770 0.03496384
v 0.01044189 0.10301540 0.03896969
v 0.02732185 0.07551547 0.02732187
v 0.01931946 0.07551547 0.03346233
v 0.02581924 0.01207205 0.02581923
v 0.01825691 0.01207205 0.03162198
v 0.02581924 0.00945101 0.02581923
v 0.03162201 0.00945101 0.01825696
v 0.03162201 0.01207205 0.01825695
v 0.03526970 0.00945101 0.00945049
v 0.03526970 0.01207204 0.00945049
v 0.03651390 0.00945101 -0.00000000
v 0.00000000 0.10016770 0.04037277
v 0.00000000 0.10301540 0.04034439
v -0.01044189 0.10301540 0.03896969
v -0.01044922 0.10016770 0.03899711
v 0.00000000 0.07551547 0.03863898
v -0.02017220 0.10301540 0.03493927
v -0.01000053 0.07551547 0.03732239
v 0.00000000 0.01207205 0.03651392
v -0.02018639 0.10016770 0.03496385
v -0.02852783 0.10301540 0.02852781
v -0.00945053 0.01207205 0.03526974
v 0.00000000 0.00945101 0.03651392
v -0.00945053 0.00945101 0.03526974
v -0.02854790 0.10016770 0.02854788
v -0.03493927 0.10301540 0.02017220
v -0.01931953 0.07551547 0.03346234
v -0.01825699 0.01207205 0.03162199
v -0.01825699 0.00945101 0.03162199
v -0.03496384 0.10016770 0.02018639
v -0.03896973 0.10301540 0.01044190
v -0.03899711 0.10016770 0.01044925
v -0.02732193 0.07551547 0.02732190
v -0.02581924 0.01207205 0.02581926
v -0.02581924 0.00945101 0.02581926
v -0.03346237 0.07551546 0.01931950
v -0.03732239 0.07551547 0.01000051
v -0.03162201 0.01207205 0.01825697
v -0.03162201 0.00945101 0.01825697
v -0.03526977 0.01207204 0.00945051
v -0.03526977 0.00945101 0.00945051
v -0.04034439 0.10301540 0.00000000
v -0.04037277 0.10016770 0.00000000
v -0.03896973 0.10301540 -0.01044190
v -0.03863899 0.07551546 0.00000001
v -0.03899711 0.10016770 -0.01044924
v -0.03493934 0.10301540 -0.02017220
v -0.03496391 0.10016770 -0.02018639
v -0.03732239 0.07551546 -0.01000050
v -0.03346237 0.07551546 -0.01931948
v -0.03651398 0.01207204 0.00000002
v -0.03651398 0.00945101 0.00000002
v -0.03526977 0.01207204 -0.00945048
v -0.03162201 0.01207204 -0.01825694
v -0.03526977 0.00945101 -0.00945048
v -0.03162201 0.00945100 -0.01825694
v -0.03496391 0.10016770 -0.02018639
v -0.03493934 0.10301540 -0.02017220
v -0.02852783 0.10301540 -0.02852781
v -0.02854790 0.10016770 -0.02854787
v -0.03346237 0.07551546 -0.01931948
v -0.02017227 0.10301540 -0.03493929
v -0.02732193 0.07551546 -0.02732188
v -0.03162201 0.01207204 -0.01825694
v -0.02018646 0.10016770 -0.03496386
v -0.01044197 0.10301540 -0.03896971
v -0.01044929 0.10016770 -0.03899713
v -0.01931953 0.07551546 -0.03346234
v -0.01000053 0.07551546 -0.03732240
v -0.02581924 0.01207204 -0.02581923
v -0.03162201 0.00945100 -0.01825694
v -0.02581924 0.00945100 -0.02581923
v -0.01825699 0.01207204 -0.03162197
v -0.00945053 0.01207204 -0.03526974
v -0.01825699 0.00945100 -0.03162197
v -0.00945053 0.00945100 -0.03526973
v 0.00000000 0.10301540 -0.04034443
v 0.00000000 0.10016770 -0.04037280
v 0.01044189 0.10301540 -0.03896972
v 0.00000000 0.07551546 -0.03863900
v 0.01044922 0.10016770 -0.03899714
v 0.02017220 0.10301540 -0.03493930
v 0.00000000 0.01207204 -0.03651392
v 0.00000000 0.00945100 -0.03651392
v 0.02018639 0.10016770 -0.03496388
v 0.02852776 0.10301540 -0.02852782
v 0.01000046 0.07551546 -0.03732241
v 0.00945045 0.01207204 -0.03526974
v 0.00945045 0.00945100 -0.03526974
v 0.02854782 0.10016770 -0.02854789
v 0.03493927 0.10301540 -0.02017222
v 0.03496384 0.10016770 -0.02018641
v 0.01931946 0.07551547 -0.03346235
v 0.01825691 0.01207204 -0.03162198
v 0.01825691 0.00945100 -0.03162199
v 0.02732185 0.07551546 -0.02732190
v 0.03346229 0.07551546 -0.01931950
v 0.02581924 0.01207204 -0.02581924
v 0.02581924 0.00945100 -0.02581924
v 0.03162193 0.01207204 -0.01825696
v 0.03162193 0.00945100 -0.01825696
v 0.01825691 0.00945101 0.03162198
v 0.00945045 0.01207205 0.03526974
v 0.00945045 0.00945101 0.03526974
v 0.00000000 0.01207205 0.03651392
v 0.00000000 0.00945101 0.03651392
v 0.00000000 0.07551547 0.03863898
v 0.01000053 0.07551547 0.03732239
v 0.00000000 0.10016770 0.04037277
v 0.01044922 0.10016770 0.03899711
v 0.00000000 0.10301540 0.04034439
v 0.00895996 0.00886860 -0.03343925
v 0.00945045 0.00945100 -0.03526974
v 0.01825691 0.00945100 -0.03162199
v 0.00000000 0.00886859 -0.03461885
v 0.00000000 0.00945100 -0.03651392
v 0.01730942 0.00886860 -0.02998080
v 0.02581924 0.00945100 -0.02581924
v -0.00896004 0.00886860 -0.03343923
v -0.00945053 0.00945100 -0.03526973
v 0.02447922 0.00886860 -0.02447922
v 0.03162193 0.00945100 -0.01825696
v -0.01730949 0.00886860 -0.02998079
v -0.01825699 0.00945100 -0.03162197
v 0.02998077 0.00886860 -0.01730943
v 0.03526970 0.00945101 -0.00945050
v -0.02447929 0.00886860 -0.02447921
v -0.02581924 0.00945100 -0.02581923
v 0.03343925 0.00886860 -0.00896002
v 0.03651390 0.00945101 -0.00000000
v -0.02998085 0.00886860 -0.01730941
v -0.03162201 0.00945100 -0.01825694
v 0.03461884 0.00886860 -0.00000000
v 0.03526970 0.00945101 0.00945049
v -0.03343925 0.00886860 -0.00896000
v -0.03526977 0.00945101 -0.00945048
v 0.03343925 0.00886860 0.00896001
v 0.03162201 0.00945101 0.01825696
v -0.03461884 0.00886860 0.00000002
v -0.03651398 0.00945101 0.00000002
v 0.02998077 0.00886860 0.01730942
v 0.02581924 0.00945101 0.02581923
v -0.03343925 0.00886860 0.00896003
v -0.03526977 0.00945101 0.00945051
v 0.02447922 0.00886860 0.02447922
v 0.01825691 0.00945101 0.03162198
v -0.02998085 0.00886860 0.01730943
v -0.03162201 0.00945101 0.01825697
v 0.01730942 0.00886861 0.02998080
v 0.00945045 0.00945101 0.03526974
v -0.02447922 0.00886860 0.02447924
v -0.02581924 0.00945101 0.02581926
v 0.00896004 0.00886861 0.03343924
v 0.00000000 0.00945101 0.03651392
v -0.01730942 0.00886860 0.02998081
v -0.01825699 0.00945101 0.03162199
v 0.00000000 0.00886861 0.03461885
v -0.00945053 0.00945101 0.03526974
v -0.00896004 0.00886860 0.03343925
v 0.01712242 0.00567115 0.01712243
v 0.01210739 0.00567115 0.02097061
v 0.00000000 0.00567115 0.00000001
v 0.02097061 0.00567115 0.01210739
v 0.00626724 0.00567115 0.02338967
v 0.02338966 0.00567115 0.00626724
v 0.00000000 0.00567115 0.02421477
v 0.02421478 0.00567114 0.00000000
v -0.00626724 0.00567115 0.02338968
v 0.02338966 0.00567114 -0.00626724
v -0.01210739 0.00567115 0.02097062
v 0.02097061 0.00567114 -0.01210738
v -0.01712242 0.00567115 0.01712245
v 0.01712242 0.00567114 -0.01712243
v -0.02097061 0.00567115 0.01210740
v 0.01210739 0.00567114 -0.02097061
v -0.02338966 0.00567115 0.00626726
v 0.00626724 0.00567114 -0.02338967
v -0.02421478 0.00567114 0.00000001
v 0.00000000 0.00567114 -0.02421477
v -0.02338966 0.00567114 -0.00626723
v -0.00626732 0.00567114 -0.02338967
v -0.02097061 0.00567114 -0.01210737
v -0.01210739 0.00567114 -0.02097060
v -0.01712250 0.00567114 -0.01712242
v 0.04305557 0.10302200 -0.01153672
v 0.03896973 0.10301540 -0.01044192
v 0.03493927 0.10301540 -0.02017222
v 0.03860260 0.10302200 -0.02228723
v 0.04457443 0.10302200 -0.00000002
v 0.02852776 0.10301540 -0.02852782
v 0.04034439 0.10301540 -0.00000002
v 0.03151886 0.10302200 -0.03151889
v 0.04305557 0.10302200 0.01153669
v 0.02017220 0.10301540 -0.03493930
v 0.03896973 0.10301540 0.01044188
v 0.02228722 0.10302200 -0.03860260
v 0.03860260 0.10302200 0.02228719
v 0.01044189 0.10301540 -0.03896972
v 0.03493927 0.10301540 0.02017218
v 0.01153671 0.10302200 -0.04305560
v 0.03151886 0.10302200 0.03151885
v 0.00000000 0.10301540 -0.04034443
v 0.02852776 0.10301540 0.02852778
v 0.00000000 0.10302200 -0.04457444
v 0.02228722 0.10302200 0.03860256
v -0.01044197 0.10301540 -0.03896971
v 0.02017220 0.10301540 0.03493926
v -0.01153679 0.10302200 -0.04305560
v 0.01153671 0.10302200 0.04305556
v -0.02017227 0.10301540 -0.03493929
v 0.01044189 0.10301540 0.03896969
v -0.02228729 0.10302200 -0.03860259
v 0.00000000 0.10302200 0.04457441
v -0.02852783 0.10301540 -0.02852781
v 0.00000000 0.10301540 0.04034439
v -0.03151894 0.10302200 -0.03151888
v -0.01153671 0.10302200 0.04305557
v -0.03493934 0.10301540 -0.02017220
v -0.01044189 0.10301540 0.03896969
v -0.03860260 0.10302200 -0.02228721
v -0.02228722 0.10302200 0.03860258
v -0.03896973 0.10301540 -0.01044190
v -0.02017220 0.10301540 0.03493927
v -0.04305557 0.10302200 -0.01153670
v -0.03151886 0.10302200 0.03151888
v -0.04034439 0.10301540 0.00000000
v -0.02852783 0.10301540 0.02852781
v -0.04457443 0.10302200 0.00000000
v -0.03860260 0.10302200 0.02228721
v -0.03896973 0.10301540 0.01044190
v -0.03493927 0.10301540 0.02017220
v -0.04305557 0.10302200 0.01153671
vn -0.16663560 -0.29069690 -0.94219310
vn -0.43065730 -0.74589090 -0.50811510
vn -0.72819780 -0.45080520 -0.51623900
vn -0.21350800 0.28489090 -0.93447920
vn -0.57000980 0.67603390 -0.46697660
vn -0.35353840 0.80434240 -0.47753940
vn 0.97050050 -0.24109920 0.00000000
vn 0.52322080 -0.84058970 0.14017470
vn 0.93743300 -0.24110300 0.25117450
vn 0.84047260 -0.24110290 0.48525790
vn 0.86579290 -0.02307227 0.49987040
vn 0.96567210 -0.02307208 0.25873740
vn 0.86589290 -0.01712123 0.49993630
vn 0.96578620 -0.01712134 0.25877400
vn 0.99973370 -0.02307219 0.00000000
vn 0.63199480 0.68369470 0.36488940
vn 0.70490300 0.68369210 0.18888350
vn 0.99985340 -0.01712099 0.00000000
vn 0.72977330 0.68368930 -0.00000011
vn 0.96578620 -0.01712142 -0.25877400
vn 0.70490290 0.68369200 -0.18888370
vn -0.39010070 0.04031616 -0.91988930
vn -0.88806930 0.10355050 -0.44789530
vn -0.87998360 0.22239160 -0.41972730
vn -0.40413660 0.10553560 -0.90859010
vn -0.85181410 0.32881100 -0.40779410
vn -0.39064730 0.16196590 -0.90617970
vn -0.77311720 0.47613300 -0.41903130
vn -0.33693340 0.22517150 -0.91420660
vn -0.57000980 0.67603390 -0.46697660
vn -0.21350800 0.28489090 -0.93447920
vn 0.44381310 -0.05496559 -0.89443210
vn 0.43063260 -0.11710420 -0.89489790
vn 0.44268770 0.06064242 -0.89462290
vn 0.41740820 -0.17173050 -0.89234470
vn -0.34910810 -0.06036695 -0.93513600
vn 0.38911390 -0.25541140 -0.88507370
vn 0.36644920 0.24440100 -0.89776560
vn 0.28986610 -0.36771940 -0.88360640
vn -0.14523940 0.35111980 -0.92499750
vn 0.15338750 -0.40394710 -0.90183090
vn -0.10770110 0.30943070 -0.94480320
vn 0.13071190 -0.46129150 -0.87756740
vn -0.27061700 -0.18079810 -0.94555730
vn 0.20234270 0.39861200 -0.89451990
vn 0.03518888 0.45898130 -0.88774880
vn -0.03436439 -0.35496650 -0.93424730
vn -0.02786409 0.42827680 -0.90321790
vn 0.04593131 -0.40230350 -0.91435350
vn -0.02545298 0.41884480 -0.90770100
vn 0.04620633 -0.40871550 -0.91149150
vn -0.99323820 0.11609400 0.00000000
vn -0.88806930 0.10355070 0.44789530
vn -0.87998360 0.22239170 0.41972720
vn -0.40413660 0.10553590 0.90859000
vn -0.39010070 0.04031645 0.91988930
vn 0.44381310 -0.05496530 0.89443210
vn 0.87499280 -0.24546790 0.41729250
vn 0.43063260 -0.11710380 0.89489790
vn 0.90074740 -0.11136500 0.41982380
vn 0.44268770 0.06064271 0.89462280
vn 0.88865850 0.13645150 0.43779810
vn 0.99129490 -0.13165990 0.00000000
vn 0.98862120 0.15042640 0.00000000
vn 0.73011680 0.50820990 0.45678450
vn 0.81803730 0.57516520 0.00000000
vn 0.88865850 0.13645130 -0.43779820
vn 0.73010550 0.50823240 -0.45677760
vn 0.44268770 0.06064242 -0.89462290
vn 0.44381310 -0.05496559 -0.89443210
vn 0.90074740 -0.11136510 -0.41982380
vn 0.43063260 -0.11710420 -0.89489790
vn 0.87499280 -0.24546810 -0.41729240
vn 0.41740820 -0.17173050 -0.89234470
vn 0.96197400 -0.27314070 0.00000000
vn 0.83746060 -0.36153640 -0.40981850
vn 0.38911390 -0.25541140 -0.88507370
vn 0.75079720 -0.52468220 -0.40126340
vn 0.91634700 -0.40038490 0.00000000
vn 0.83746060 -0.36153630 0.40981860
vn 0.81963600 -0.57288440 0.00000000
vn 0.75079710 -0.52468200 0.40126350
vn 0.43063260 -0.11710380 0.89489790
vn 0.87499280 -0.24546790 0.41729250
vn 0.83746060 -0.36153630 0.40981860
vn 0.41740820 -0.17173020 0.89234470
vn -0.85346810 0.52114510 0.00000000
vn -0.93353970 0.35847390 0.00000000
vn -0.77311720 0.47613310 0.41903110
vn -0.85181410 0.32881110 0.40779400
vn -0.97002020 0.24302390 0.00000000
vn -0.86465820 -0.12308230 -0.48704920
vn -0.99105000 -0.13349100 0.00000000
vn -0.86465820 -0.12308220 0.48704930
vn -0.85688910 -0.51550080 0.00000000
vn -0.72819780 -0.45080500 0.51623920
vn -0.50917650 -0.86066200 0.00000014
vn -0.85181410 0.32881110 0.40779400
vn -0.33693340 0.22517180 0.91420660
vn -0.77311720 0.47613310 0.41903110
vn -0.39064730 0.16196620 0.90617970
vn -0.87998360 0.22239170 0.41972720
vn -0.40413660 0.10553590 0.90859000
vn 0.38911380 -0.25541110 0.88507380
vn 0.28986610 -0.36771900 0.88360640
vn -0.21350810 0.28489120 0.93447920
vn 0.15338750 -0.40394690 0.90183110
vn -0.14523950 0.35112010 0.92499740
vn 0.13071190 -0.46129120 0.87756760
vn -0.10770110 0.30943100 0.94480310
vn -0.39010070 0.04031645 0.91988930
vn 0.44381310 -0.05496530 0.89443210
vn -0.34910810 -0.06036665 0.93513600
vn 0.44268770 0.06064271 0.89462280
vn -0.86465820 -0.12308220 0.48704930
vn -0.88806930 0.10355070 0.44789530
vn -0.72819780 -0.45080500 0.51623920
vn -0.27061700 -0.18079780 0.94555730
vn 0.36644930 0.24440140 0.89776550
vn -0.16663560 -0.29069660 0.94219320
vn 0.20234280 0.39861240 0.89451980
vn -0.03436438 -0.35496630 0.93424740
vn 0.03518889 0.45898170 0.88774860
vn 0.04593131 -0.40230320 0.91435360
vn 0.41740820 -0.17173020 0.89234470
vn 0.83746060 -0.36153630 0.40981860
vn 0.75079710 -0.52468200 0.40126350
vn 0.38911380 -0.25541110 0.88507380
vn 0.53485360 -0.73496960 0.41683490
vn 0.28986610 -0.36771900 0.88360640
vn 0.58502240 -0.81101710 0.00000013
vn 0.81963600 -0.57288440 0.00000000
vn 0.30683890 -0.84696570 0.43416470
vn 0.15338750 -0.40394690 0.90183110
vn 0.23868940 -0.87467560 0.42186480
vn 0.13071190 -0.46129120 0.87756760
vn 0.25699970 -0.96641160 0.00000016
vn 0.33601740 -0.94185570 0.00000015
vn 0.23868940 -0.87467570 -0.42186440
vn 0.30683890 -0.84696590 -0.43416440
vn 0.13071190 -0.46129150 -0.87756740
vn 0.15338750 -0.40394710 -0.90183090
vn 0.53485360 -0.73496970 -0.41683470
vn 0.75079720 -0.52468220 -0.40126340
vn 0.28986610 -0.36771940 -0.88360640
vn 0.38911390 -0.25541140 -0.88507370
vn -0.85346810 0.52114510 0.00000000
vn -0.77311720 0.47613310 0.41903110
vn -0.57000980 0.67603400 0.46697630
vn -0.65075860 0.75928470 -0.00000012
vn -0.77311720 0.47613300 -0.41903130
vn -0.35353840 0.80434260 0.47753910
vn -0.41121220 0.91153970 -0.00000015
vn -0.29585560 0.81551020 0.49740580
vn -0.35221690 0.93591850 -0.00000015
vn -0.29585560 0.81551020 -0.49740610
vn -0.14523940 0.35111980 -0.92499750
vn -0.10770110 0.30943070 -0.94480320
vn -0.33693340 0.22517180 0.91420660
vn -0.21350810 0.28489120 0.93447920
vn -0.14523950 0.35112010 0.92499740
vn -0.10770110 0.30943100 0.94480310
vn -0.02786410 0.42827710 0.90321780
vn 0.04620633 -0.40871520 0.91149160
vn -0.02545299 0.41884520 0.90770100
vn -0.03436439 -0.35496650 -0.93424730
vn -0.43065730 -0.74589090 -0.50811510
vn -0.16663560 -0.29069690 -0.94219310
vn -0.06357164 -0.87477400 -0.48034270
vn 0.04593131 -0.40230350 -0.91435350
vn -0.50917650 -0.86066200 0.00000014
vn 0.10968540 -0.88157270 -0.45912810
vn 0.04620633 -0.40871550 -0.91149150
vn 0.10797670 -0.87986640 -0.46279180
vn -0.07074386 -0.99749450 0.00000016
vn -0.43065740 -0.74589080 0.50811540
vn -0.06357165 -0.87477390 0.48034300
vn 0.13110810 -0.99136800 0.00000016
vn 0.12875860 -0.99167600 0.00000016
vn 0.10968540 -0.88157250 0.45912840
vn 0.10797670 -0.87986620 0.46279210
vn 0.08725479 0.90746220 0.41097330
vn 0.44707930 0.89449430 -0.00000015
vn 0.40862630 0.79933760 0.44054960
vn 0.03518889 0.45898170 0.88774860
vn -0.02786410 0.42827710 0.90321780
vn 0.20234280 0.39861240 0.89451980
vn 0.73011680 0.50820990 0.45678450
vn 0.36644930 0.24440140 0.89776550
vn -0.04782316 0.90809070 0.41603390
vn -0.02545299 0.41884520 0.90770100
vn -0.04330701 0.90227510 0.42898030
vn 0.40862630 0.79933750 -0.44054980
vn 0.20234270 0.39861200 -0.89451990
vn 0.36644920 0.24440100 -0.89776560
vn -0.72819780 -0.45080500 0.51623920
vn -0.85688910 -0.51550080 0.00000000
vn -0.27061700 -0.18079780 0.94555730
vn -0.16663560 -0.29069660 0.94219320
vn -0.03436438 -0.35496630 0.93424740
vn 0.04593131 -0.40230320 0.91435360
vn 0.04620633 -0.40871520 0.91149160
vn 0.81803730 0.57516520 0.00000000
vn 0.73010550 0.50823240 -0.45677760
vn 0.40862630 0.79933750 -0.44054980
vn 0.09631833 0.99535060 -0.00000016
vn 0.08725479 0.90746200 -0.41097360
vn 0.20234270 0.39861200 -0.89451990
vn 0.03518888 0.45898130 -0.88774880
vn -0.04266509 0.99908940 -0.00000016
vn -0.03772166 0.99928840 -0.00000016
vn -0.04782316 0.90809070 -0.41603420
vn -0.02786409 0.42827680 -0.90321790
vn -0.04330701 0.90227500 -0.42898060
vn -0.02545298 0.41884480 -0.90770100
vn 0.73011680 0.50820990 0.45678450
vn 0.88865850 0.13645150 0.43779810
vn 0.00000000 -0.01712115 -0.99985340
vn 0.18888360 0.68369200 -0.70490300
vn 0.00000000 0.68368920 -0.72977330
vn 0.25877390 -0.01712153 -0.96578620
vn 0.00000000 -0.02307235 -0.99973370
vn 0.36488940 0.68369450 -0.63199480
vn 0.25873740 -0.02307228 -0.96567210
vn 0.00000000 -0.24109930 -0.97050050
vn 0.25117440 -0.24110320 -0.93743300
vn 0.49993630 -0.01712145 -0.86589290
vn 0.51602270 0.68369650 -0.51602290
vn 0.70700310 -0.01712127 -0.70700310
vn 0.63199480 0.68369450 -0.36488950
vn 0.49987040 -0.02307249 -0.86579290
vn 0.48525780 -0.24110310 -0.84047260
vn 0.27082680 -0.84058860 -0.46910940
vn 0.14017460 -0.84058980 -0.52322070
vn 0.38301700 -0.84059270 -0.38301690
vn 0.86589290 -0.01712123 0.49993630
vn 0.51602270 0.68369660 0.51602260
vn 0.63199480 0.68369470 0.36488940
vn 0.70700310 -0.01712104 0.70700310
vn 0.86579290 -0.02307227 0.49987040
vn 0.36488940 0.68369470 0.63199480
vn 0.70691850 -0.02307247 0.70691850
vn 0.84047260 -0.24110290 0.48525790
vn 0.68624750 -0.24109900 0.68624760
vn 0.49993630 -0.01712117 0.86589290
vn 0.18888360 0.68369220 0.70490280
vn 0.25877390 -0.01712122 0.96578620
vn 0.49987040 -0.02307221 0.86579290
vn 0.25873740 -0.02307197 0.96567210
vn 0.48525780 -0.24110280 0.84047260
vn 0.25117440 -0.24110290 0.93743310
vn 0.27082680 -0.84058850 0.46910970
vn 0.38301700 -0.84059250 0.38301720
vn 0.14017460 -0.84058960 0.52322090
vn 0.00000000 0.68368940 0.72977310
vn 0.00000000 -0.01712082 0.99985340
vn -0.18888360 0.68369220 0.70490280
vn 0.00000000 -0.02307202 0.99973370
vn -0.25877390 -0.01712122 0.96578620
vn -0.36488940 0.68369470 0.63199480
vn -0.49993630 -0.01712117 0.86589290
vn -0.51602270 0.68369660 0.51602260
vn -0.70700310 -0.01712104 0.70700310
vn -0.63199480 0.68369470 0.36488940
vn -0.25873740 -0.02307197 0.96567210
vn -0.49987040 -0.02307221 0.86579290
vn 0.00000000 -0.24109900 0.97050060
vn -0.25117440 -0.24110290 0.93743310
vn -0.48525780 -0.24110280 0.84047260
vn -0.70691850 -0.02307247 0.70691850
vn -0.27082680 -0.84058850 0.46910970
vn -0.14017460 -0.84058960 0.52322090
vn 0.00000000 -0.84059780 0.54165970
vn -0.86589290 -0.01712123 0.49993630
vn -0.86579290 -0.02307227 0.49987040
vn -0.68624750 -0.24109900 0.68624760
vn -0.84047260 -0.24110290 0.48525790
vn -0.46910960 -0.84058850 0.27082700
vn -0.38301700 -0.84059250 0.38301720
vn -0.86589290 -0.01712123 0.49993630
vn -0.70490300 0.68369210 0.18888350
vn -0.63199480 0.68369470 0.36488940
vn -0.96578620 -0.01712134 0.25877400
vn -0.86579290 -0.02307227 0.49987040
vn -0.72977330 0.68368930 -0.00000011
vn -0.96567210 -0.02307208 0.25873740
vn -0.84047260 -0.24110290 0.48525790
vn -0.99985340 -0.01712099 0.00000000
vn -0.70490700 0.68369600 -0.18885430
vn -0.96578620 -0.01712142 -0.25877400
vn -0.63199480 0.68369450 -0.36488950
vn -0.99973370 -0.02307219 0.00000000
vn -0.93743300 -0.24110300 0.25117450
vn -0.86589290 -0.01712140 -0.49993630
vn -0.51602270 0.68369650 -0.51602290
vn -0.70700310 -0.01712127 -0.70700310
vn -0.52322080 -0.84058970 0.14017470
vn -0.46910960 -0.84058850 0.27082700
vn -0.54165960 -0.84059790 0.00000014
vn -0.97050050 -0.24109920 0.00000000
vn -0.52322080 -0.84058970 -0.14017440
vn -0.96567210 -0.02307216 -0.25873740
vn -0.86579290 -0.02307243 -0.49987040
vn -0.70691850 -0.02307271 -0.70691850
vn -0.93743300 -0.24110310 -0.25117440
vn -0.46910960 -0.84058860 -0.27082660
vn -0.84047260 -0.24110300 -0.48525780
vn -0.68624750 -0.24109930 -0.68624750
vn -0.38301700 -0.84059270 -0.38301690
vn -0.36488940 0.68369450 -0.63199480
vn -0.49993630 -0.01712145 -0.86589290
vn -0.18888360 0.68369200 -0.70490300
vn -0.49987040 -0.02307249 -0.86579290
vn -0.25877390 -0.01712153 -0.96578620
vn 0.00000000 0.68368920 -0.72977330
vn 0.00000000 -0.01712115 -0.99985340
vn -0.25873740 -0.02307228 -0.96567210
vn 0.00000000 -0.02307235 -0.99973370
vn -0.48525780 -0.24110310 -0.84047260
vn -0.25117440 -0.24110320 -0.93743300
vn 0.00000000 -0.24109930 -0.97050050
vn -0.14017460 -0.84058980 -0.52322070
vn -0.27082680 -0.84058860 -0.46910940
vn 0.14017460 -0.84058980 -0.52322070
vn 0.00000000 -0.84059800 -0.54165950
vn -0.14017460 -0.84058980 -0.52322070
vn 0.27082680 -0.84058860 -0.46910940
vn -0.27082680 -0.84058860 -0.46910940
vn 0.38301700 -0.84059270 -0.38301690
vn -0.38301700 -0.84059270 -0.38301690
vn 0.46910960 -0.84058860 -0.27082660
vn -0.46910960 -0.84058860 -0.27082660
vn 0.52322080 -0.84058970 -0.14017440
vn -0.52322080 -0.84058970 -0.14017440
vn 0.54165960 -0.84059790 0.00000014
vn -0.54165960 -0.84059790 0.00000014
vn 0.52322080 -0.84058970 0.14017470
vn -0.52322080 -0.84058970 0.14017470
vn 0.46910960 -0.84058850 0.27082700
vn -0.46910960 -0.84058850 0.27082700
vn 0.38301700 -0.84059250 0.38301720
vn -0.38301700 -0.84059250 0.38301720
vn 0.27082680 -0.84058850 0.46910970
vn -0.27082680 -0.84058850 0.46910970
vn 0.14017460 -0.84058960 0.52322090
vn -0.14017460 -0.84058960 0.52322090
vn 0.00000000 -0.84059780 0.54165970
vn 0.93743300 -0.24110300 0.25117450
vn 0.84047260 -0.24110290 0.48525790
vn 0.68624750 -0.24109900 0.68624760
vn 0.00000000 -0.24109930 -0.97050050
vn 0.25117440 -0.24110320 -0.93743300
vn -0.25117440 -0.24110320 -0.93743300
vn 0.54165960 -0.84059790 0.00000014
vn 0.93743300 -0.24110310 -0.25117440
vn 0.52322080 -0.84058970 -0.14017440
vn 0.84047260 -0.24110300 -0.48525780
vn 0.46910960 -0.84058860 -0.27082660
vn 0.68624750 -0.24109930 -0.68624750
vn 0.70691850 -0.02307271 -0.70691850
vn 0.86579290 -0.02307243 -0.49987040
vn 0.86589290 -0.01712140 -0.49993630
vn 0.96567210 -0.02307216 -0.25873740
vn -0.86563500 0.03000006 0.49977580
vn -0.58838100 0.73377490 0.33967940
vn -0.65625240 0.73377110 0.17582050
vn -0.96549750 0.03000017 0.25867860
vn -0.86485830 0.05188303 0.49932770
vn -0.67940750 0.73376130 -0.00000012
vn -0.96462550 0.05188296 0.25846850
vn -0.86590590 0.01675482 0.49992620
vn -0.99954980 0.02999992 0.00000000
vn -0.65625250 0.73377100 -0.17582070
vn -0.96549750 0.03000009 -0.25867860
vn -0.99865320 0.05188284 0.00000000
vn -0.96462550 0.05188287 -0.25846850
vn -0.96579410 0.01675479 0.25876790
vn -0.71054830 0.57168590 0.41023920
vn -0.99985960 0.01675487 0.00000000
vn -0.79251860 0.57168280 0.21235140
vn -0.58838100 0.73377480 -0.33967960
vn -0.86563520 0.02999990 -0.49977580
vn -0.48040360 0.73377440 -0.48040370
vn -0.70678850 0.03000002 -0.70678850
vn -0.33970650 0.73376730 -0.58837500
vn -0.86485830 0.05188287 -0.49932770
vn -0.49977580 0.02999983 -0.86563500
vn -0.17582060 0.73377080 -0.65625260
vn -0.70615440 0.05188260 -0.70615440
vn -0.49932770 0.05188281 -0.86485830
vn -0.70700750 0.01675492 -0.70700750
vn -0.49992620 0.01675460 -0.86590590
vn -0.58015450 0.57170040 -0.58015460
vn -0.71054830 0.57168580 -0.41023940
vn -0.86590590 0.01675466 -0.49992620
vn -0.79251860 0.57168270 -0.21235160
vn -0.96579410 0.01675471 -0.25876790
vn -0.82047440 0.57168310 0.00000000
vn 0.00000000 0.02999976 -0.99954990
vn 0.00000000 0.73377630 -0.67939110
vn 0.17582060 0.73377080 -0.65625260
vn 0.25867860 0.02999997 -0.96549750
vn 0.00000000 0.05188268 -0.99865320
vn 0.33967950 0.73377480 -0.58838110
vn 0.25846850 0.05188276 -0.96462550
vn 0.00000000 0.01675470 -0.99985960
vn 0.49977580 0.02999983 -0.86563500
vn 0.48040360 0.73377440 -0.48040370
vn 0.25876790 0.01675460 -0.96579410
vn 0.00000000 0.57168300 -0.82047460
vn 0.21235150 0.57168260 -0.79251870
vn 0.70678850 0.03000002 -0.70678850
vn 0.58837490 0.73376730 -0.33970660
vn 0.49932770 0.05188281 -0.86485830
vn 0.49992620 0.01675460 -0.86590590
vn 0.41023930 0.57168580 -0.71054850
vn 0.86563520 0.02999990 -0.49977580
vn 0.65625250 0.73377100 -0.17582070
vn 0.96549750 0.03000009 -0.25867860
vn 0.70615440 0.05188260 -0.70615440
vn 0.70700750 0.01675492 -0.70700750
vn 0.58015450 0.57170040 -0.58015460
vn 0.86485830 0.05188287 -0.49932770
vn 0.96462550 0.05188287 -0.25846850
vn 0.86590590 0.01675466 -0.49992620
vn 0.71054830 0.57168580 -0.41023940
vn 0.96579410 0.01675471 -0.25876790
vn 0.79251860 0.57168270 -0.21235160
vn 0.67940750 0.73376130 -0.00000012
vn 0.99954980 0.02999992 0.00000000
vn 0.65625240 0.73377110 0.17582050
vn 0.99865320 0.05188284 0.00000000
vn 0.96549750 0.03000017 0.25867860
vn 0.58838100 0.73377490 0.33967940
vn 0.86563500 0.03000006 0.49977580
vn 0.96462550 0.05188296 0.25846850
vn 0.86485830 0.05188303 0.49932770
vn 0.99985960 0.01675487 0.00000000
vn 0.82047440 0.57168310 0.00000000
vn 0.96579410 0.01675479 0.25876790
vn 0.86590590 0.01675482 0.49992620
vn 0.79251860 0.57168280 0.21235140
vn 0.71054830 0.57168590 0.41023920
vn 0.86563500 0.03000006 0.49977580
vn 0.58838100 0.73377490 0.33967940
vn 0.48040350 0.73377450 0.48040350
vn 0.70678850 0.03000025 0.70678850
vn 0.86485830 0.05188303 0.49932770
vn 0.33970650 0.73376730 0.58837490
vn 0.70615440 0.05188283 0.70615440
vn 0.86590590 0.01675482 0.49992620
vn 0.49977580 0.03000012 0.86563500
vn 0.17582060 0.73377110 0.65625230
vn 0.25867860 0.03000029 0.96549750
vn 0.49932770 0.05188309 0.86485830
vn 0.25846850 0.05188307 0.96462550
vn 0.70700750 0.01675515 0.70700750
vn 0.71054830 0.57168590 0.41023920
vn 0.58015450 0.57170060 0.58015440
vn 0.49992620 0.01675488 0.86590590
vn 0.25876790 0.01675491 0.96579410
vn 0.41023930 0.57168600 0.71054820
vn 0.21235150 0.57168280 0.79251850
vn 0.00000000 0.73377660 0.67939090
vn 0.00000000 0.03000009 0.99954980
vn -0.17582060 0.73377110 0.65625230
vn 0.00000000 0.05188300 0.99865320
vn -0.25867860 0.03000029 0.96549750
vn -0.33967950 0.73377500 0.58838090
vn 0.00000000 0.01675503 0.99985960
vn 0.00000000 0.57168330 0.82047440
vn -0.49977580 0.03000012 0.86563500
vn -0.48040350 0.73377450 0.48040350
vn -0.25846850 0.05188307 0.96462550
vn -0.25876790 0.01675491 0.96579410
vn -0.21235150 0.57168280 0.79251850
vn -0.70678850 0.03000025 0.70678850
vn -0.58838100 0.73377490 0.33967940
vn -0.86563500 0.03000006 0.49977580
vn -0.49932770 0.05188309 0.86485830
vn -0.49992620 0.01675488 0.86590590
vn -0.41023930 0.57168600 0.71054820
vn -0.70615440 0.05188283 0.70615440
vn -0.86485830 0.05188303 0.49932770
vn -0.70700750 0.01675515 0.70700750
vn -0.58015450 0.57170060 0.58015440
vn -0.86590590 0.01675482 0.49992620
vn -0.71054830 0.57168590 0.41023920
vn -0.41023930 0.57168580 -0.71054850
vn -0.25876790 0.01675460 -0.96579410
vn -0.21235150 0.57168260 -0.79251870
vn 0.00000000 0.01675470 -0.99985960
vn 0.00000000 0.57168300 -0.82047460
vn 0.00000000 0.05188268 -0.99865320
vn -0.25846850 0.05188276 -0.96462550
vn 0.00000000 0.02999976 -0.99954990
vn -0.25867860 0.02999997 -0.96549750
vn 0.00000000 0.73377630 -0.67939110
vn -0.07602272 0.95588450 0.28373470
vn -0.21235150 0.57168280 0.79251850
vn -0.41023930 0.57168600 0.71054820
vn 0.00000000 0.95588390 0.29374470
vn 0.00000000 0.57168330 0.82047440
vn -0.14685690 0.95588230 0.25440530
vn -0.58015450 0.57170060 0.58015440
vn 0.07602272 0.95588450 0.28373470
vn 0.21235150 0.57168280 0.79251850
vn -0.20771170 0.95588270 0.20771150
vn -0.71054830 0.57168590 0.41023920
vn 0.14685690 0.95588230 0.25440530
vn 0.41023930 0.57168600 0.71054820
vn -0.25440550 0.95588230 0.14685680
vn -0.79251860 0.57168280 0.21235140
vn 0.20771170 0.95588270 0.20771150
vn 0.58015450 0.57170060 0.58015440
vn -0.28373480 0.95588450 0.07602258
vn -0.82047440 0.57168310 0.00000000
vn 0.25440550 0.95588230 0.14685680
vn 0.71054830 0.57168590 0.41023920
vn -0.29374480 0.95588380 -0.00000016
vn -0.79251860 0.57168270 -0.21235160
vn 0.28373480 0.95588450 0.07602258
vn 0.79251860 0.57168280 0.21235140
vn -0.28373480 0.95588450 -0.07602289
vn -0.71054830 0.57168580 -0.41023940
vn 0.29374480 0.95588380 -0.00000016
vn 0.82047440 0.57168310 0.00000000
vn -0.25440550 0.95588230 -0.14685710
vn -0.58015450 0.57170040 -0.58015460
vn 0.28373480 0.95588450 -0.07602289
vn 0.79251860 0.57168270 -0.21235160
vn -0.20771170 0.95588260 -0.20771180
vn -0.41023930 0.57168580 -0.71054850
vn 0.25440550 0.95588230 -0.14685710
vn 0.71054830 0.57168580 -0.41023940
vn -0.14685690 0.95588220 -0.25440560
vn -0.21235150 0.57168260 -0.79251870
vn 0.20771170 0.95588260 -0.20771180
vn 0.58015450 0.57170040 -0.58015460
vn -0.07602274 0.95588440 -0.28373500
vn 0.00000000 0.57168300 -0.82047460
vn 0.14685690 0.95588220 -0.25440560
vn 0.41023930 0.57168580 -0.71054850
vn 0.00000000 0.95588380 -0.29374500
vn 0.21235150 0.57168260 -0.79251870
vn 0.07602274 0.95588440 -0.28373500
vn -0.11353200 0.98702630 -0.11353210
vn -0.08029597 0.98702090 -0.13907610
vn 0.00000000 1.00000000 -0.00000016
vn -0.13907590 0.98702090 -0.08029614
vn -0.04153679 0.98702520 -0.15509930
vn -0.15509920 0.98702530 -0.04153696
vn 0.00000000 0.98702080 -0.16059210
vn -0.16059190 0.98702090 -0.00000016
vn 0.04153679 0.98702520 -0.15509930
vn -0.15509920 0.98702530 0.04153663
vn 0.08029597 0.98702090 -0.13907610
vn -0.13907590 0.98702100 0.08029582
vn 0.11353200 0.98702630 -0.11353210
vn -0.11353200 0.98702640 0.11353190
vn 0.13907590 0.98702090 -0.08029614
vn -0.08029598 0.98702100 0.13907580
vn 0.15509920 0.98702530 -0.04153696
vn -0.04153680 0.98702530 0.15509900
vn 0.16059190 0.98702090 -0.00000016
vn 0.00000000 0.98702090 0.16059180
vn 0.15509920 0.98702530 0.04153663
vn 0.04153680 0.98702530 0.15509900
vn 0.13907590 0.98702100 0.08029582
vn 0.08029598 0.98702100 0.13907580
vn 0.11353200 0.98702640 0.11353190
vn 0.70490290 0.68369200 -0.18888370
vn -0.65625240 0.73377110 0.17582050
vn -0.58838100 0.73377490 0.33967940
vn 0.63199480 0.68369450 -0.36488950
vn 0.72977330 0.68368930 -0.00000011
vn -0.48040350 0.73377450 0.48040350
vn -0.67940750 0.73376130 -0.00000012
vn 0.51602270 0.68369650 -0.51602290
vn 0.70490300 0.68369210 0.18888350
vn -0.33967950 0.73377500 0.58838090
vn -0.65625250 0.73377100 -0.17582070
vn 0.36488940 0.68369450 -0.63199480
vn 0.63199480 0.68369470 0.36488940
vn -0.17582060 0.73377110 0.65625230
vn -0.58838100 0.73377480 -0.33967960
vn 0.18888360 0.68369200 -0.70490300
vn 0.51602270 0.68369660 0.51602260
vn 0.00000000 0.73377660 0.67939090
vn -0.48040360 0.73377440 -0.48040370
vn 0.00000000 0.68368920 -0.72977330
vn 0.36488940 0.68369470 0.63199480
vn 0.17582060 0.73377110 0.65625230
vn -0.33970650 0.73376730 -0.58837500
vn -0.18888360 0.68369200 -0.70490300
vn 0.18888360 0.68369220 0.70490280
vn 0.33970650 0.73376730 0.58837490
vn -0.17582060 0.73377080 -0.65625260
vn -0.36488940 0.68369450 -0.63199480
vn 0.00000000 0.68368940 0.72977310
vn 0.48040350 0.73377450 0.48040350
vn 0.00000000 0.73377630 -0.67939110
vn -0.51602270 0.68369650 -0.51602290
vn -0.18888360 0.68369220 0.70490280
vn 0.58838100 0.73377490 0.33967940
vn 0.17582060 0.73377080 -0.65625260
vn -0.63199480 0.68369450 -0.36488950
vn -0.36488940 0.68369470 0.63199480
vn 0.65625240 0.73377110 0.17582050
vn 0.33967950 0.73377480 -0.58838110
vn -0.70490700 0.68369600 -0.18885430
vn -0.51602270 0.68369660 0.51602260
vn 0.67940750 0.73376130 -0.00000012
vn 0.48040360 0.73377440 -0.48040370
vn -0.72977330 0.68368930 -0.00000011
vn -0.63199480 0.68369470 0.36488940
vn 0.65625250 0.73377100 -0.17582070
vn 0.58837490 0.73376730 -0.33970660
vn -0.70490300 0.68369210 0.18888350
vt 0.28698420 0.90377940
vt 0.29994270 0.89659900
vt 0.29239440 0.88429170
vt 0.97952680 0.06671695
vt 0.97738610 0.05408080
vt 0.96645810 0.05407174
vt 0.06386787 0.34548900
vt 0.03226758 0.33570580
vt 0.02801757 0.34507030
vt 0.00000001 0.34451380
vt 0.00000000 0.35441640
vt 0.02801757 0.35497290
vt 0.00000003 0.67421270
vt 0.02801759 0.67476920
vt 0.06386787 0.35539160
vt 0.00000001 0.68293490
vt 0.02801758 0.68349140
vt 0.06386788 0.67518790
vt 0.06386788 0.68391010
vt 0.10510780 0.67544030
vt 0.10510780 0.68416250
vt 0.26940810 0.82941940
vt 0.28415840 0.82761840
vt 0.28405020 0.78741070
vt 0.26936960 0.78546700
vt 0.28687080 0.75030140
vt 0.27259550 0.74584690
vt 0.29239440 0.72277280
vt 0.27881520 0.71715630
vt 0.29998730 0.70601120
vt 0.28729420 0.69957310
vt 0.26496270 0.82929500
vt 0.26500670 0.78193190
vt 0.26835090 0.86923930
vt 0.26871930 0.73969820
vt 0.27251000 0.86587250
vt 0.27575730 0.70948210
vt 0.27508970 0.89688220
vt 0.28534130 0.69125280
vt 0.29273360 0.69542750
vt 0.29154860 0.68682250
vt 0.29724460 0.69285880
vt 0.29670230 0.68423120
vt 0.27849710 0.89068000
vt 0.28476280 0.91136850
vt 0.29623490 0.91531250
vt 0.29706740 0.90749150
vt 0.30583580 0.91143950
vt 0.30550300 0.90357640
vt 0.30845930 0.91038120
vt 0.30780640 0.90247980
vt 0.30356800 0.82577750
vt 0.32032460 0.82499810
vt 0.32021640 0.78479040
vt 0.32788770 0.78122740
vt 0.32792620 0.82517960
vt 0.91821640 0.45611620
vt 0.92818710 0.40535720
vt 0.92036280 0.40861280
vt 0.92587550 0.45520710
vt 0.91981510 0.49611820
vt 0.92756780 0.49833730
vt 0.94268520 0.45364400
vt 0.94438710 0.49894180
vt 0.93353990 0.52862880
vt 0.95054920 0.53037000
vt 0.96385340 0.49799040
vt 0.96982550 0.52828190
vt 0.97852640 0.49555690
vt 0.97692770 0.45555490
vt 0.96216110 0.45486020
vt 0.97907410 0.40805150
vt 0.96447270 0.40501030
vt 0.98464390 0.36562790
vt 0.94501730 0.40370160
vt 0.97048390 0.36106910
vt 0.99298980 0.33519840
vt 0.97952770 0.32991190
vt 0.95120480 0.35951930
vt 0.93419830 0.36141600
vt 0.96051570 0.32840140
vt 0.94324210 0.33025880
vt 0.90082970 0.80932930
vt 0.89365040 0.81247010
vt 0.90711520 0.85642740
vt 0.91333080 0.85176800
vt 0.31137710 0.72396090
vt 0.30610910 0.75076110
vt 0.32856060 0.72015260
vt 0.32303700 0.74768100
vt 0.30343190 0.78674860
vt 0.28701430 0.86168310
vt 0.30634620 0.85868920
vt 0.32318050 0.85906270
vt 0.31150240 0.88061830
vt 0.32856060 0.88167140
vt 0.31869350 0.89262700
vt 0.92688720 0.84045900
vt 0.93722540 0.87458130
vt 0.94162320 0.86818310
vt 0.92088510 0.84567760
vt 0.91684010 0.80317830
vt 0.90970280 0.80587030
vt 0.93157510 0.88221820
vt 0.95391130 0.90069530
vt 0.95714590 0.89238820
vt 0.96757080 0.90526320
vt 0.96914440 0.89665530
vt 0.97879270 0.90796540
vt 0.97899970 0.89932200
vt 0.90497510 0.76178250
vt 0.89555360 0.76181850
vt 0.90756980 0.72527830
vt 0.89837380 0.72181810
vt 0.91500380 0.72873500
vt 0.91266980 0.76284820
vt 0.92394880 0.70616370
vt 0.91756240 0.70051350
vt 0.90965160 0.69422420
vt 0.93414250 0.68754300
vt 0.92859720 0.67988600
vt 0.95513720 0.68402060
vt 0.95251450 0.67615870
vt 0.97346970 0.68811620
vt 0.98469320 0.54911600
vt 0.97199730 0.54371550
vt 0.97199730 0.56832090
vt 0.98469320 0.57211890
vt 0.97199730 0.59565680
vt 0.98469320 0.59723390
vt 0.95145480 0.59504640
vt 0.95145480 0.56678240
vt 0.97199730 0.61130890
vt 0.98469320 0.61150180
vt 0.97199730 0.62396930
vt 0.98469320 0.62305340
vt 0.95145480 0.62430750
vt 0.95145480 0.61122550
vt 0.93091240 0.62396930
vt 0.93091240 0.61130890
vt 0.91821640 0.62305340
vt 0.91821640 0.61150180
vt 0.93091240 0.59565680
vt 0.93091240 0.56832090
vt 0.91821640 0.59723390
vt 0.91821640 0.57211890
vt 0.99449290 0.03365225
vt 0.99594190 0.01299820
vt 0.97724130 0.01285117
vt 0.97657490 0.03350750
vt 0.99608680 0.05422784
vt 0.96631330 0.01284212
vt 0.96612010 0.03349717
vt 0.95737010 0.01284373
vt 0.95756370 0.03349707
vt 0.95751490 0.05407337
vt 0.96734710 0.06671095
vt 0.95738110 0.06671695
vt 1.00000000 0.00015586
vt 0.97929230 0.00000600
vt 0.96711280 0.00000000
vt 0.95714670 0.00000599
vt 0.97331570 0.68023540
vt 0.97847860 0.68926220
vt 0.97899970 0.68134930
vt 0.29937770 0.98202970
vt 0.28468820 0.96928790
vt 0.27922930 0.98202970
vt 0.30263780 0.96928790
vt 0.31812930 0.98202970
vt 0.28680710 0.94867110
vt 0.31933210 0.96928790
vt 0.32325690 0.98202970
vt 0.32387640 0.96928790
vt 0.30382340 0.94867110
vt 0.28468820 0.92805440
vt 0.30263780 0.92805440
vt 0.31976620 0.94867110
vt 0.32440960 0.94867110
vt 0.31933210 0.92805430
vt 0.32393750 0.92805430
vt 0.94466020 0.93739130
vt 0.92406960 0.96533750
vt 0.94464510 0.96358580
vt 0.95744140 0.93506760
vt 0.95754690 0.91402760
vt 0.95743190 0.95887700
vt 0.94479850 0.98382670
vt 0.95757580 0.97721960
vt 0.94477000 0.91438010
vt 0.95757580 0.90827820
vt 0.94480010 0.90809210
vt 0.97972760 0.54371550
vt 0.99298980 0.53752010
vt 0.98400590 0.52316200
vt 0.27217710 0.92805430
vt 0.27496490 0.94867110
vt 0.26496270 0.91531250
vt 0.27922930 0.91531250
vt 0.29937770 0.91531250
vt 0.31762140 0.91531250
vt 0.32306040 0.91531250
vt 0.92422630 0.98630190
vt 0.90371730 0.98369990
vt 0.90356390 0.96345920
vt 0.92409390 0.93818560
vt 0.90357900 0.93726460
vt 0.89096120 0.95867200
vt 0.89097060 0.93486260
vt 0.92419890 0.91448030
vt 0.92422770 0.90800270
vt 0.90368890 0.91425340
vt 0.89107620 0.91382250
vt 0.90371890 0.90796540
vt 0.89110510 0.90807320
vt 0.90325020 0.68920440
vt 0.89096120 0.71948370
vt 0.29188120 0.67404310
vt 0.26633750 0.68335290
vt 0.29188110 0.68276540
vt 0.26633750 0.67463080
vt 0.29188110 0.35424680
vt 0.23238550 0.68381220
vt 0.26633750 0.35483440
vt 0.29188110 0.34434420
vt 0.26633750 0.34493180
vt 0.23238550 0.67509000
vt 0.19233890 0.68411180
vt 0.19233890 0.67538960
vt 0.14892690 0.68423120
vt 0.23238550 0.35529370
vt 0.23238550 0.34539110
vt 0.22907860 0.33601470
vt 0.26177520 0.33557250
vt 0.19051280 0.33630320
vt 0.62615200 0.33712480
vt 0.65294930 0.32840140
vt 0.62615200 0.32840140
vt 0.65294930 0.33712480
vt 0.62615200 0.65696380
vt 0.68787240 0.32840150
vt 0.65294940 0.65696380
vt 0.62615200 0.66686780
vt 0.65294940 0.66686780
vt 0.68787240 0.33712480
vt 0.72854120 0.32840140
vt 0.72854120 0.33712480
vt 0.68787250 0.65696380
vt 0.72854130 0.65696380
vt 0.68787250 0.66686770
vt 0.72854130 0.66686770
vt 0.69099000 0.67615870
vt 0.65735830 0.67615870
vt 0.73015510 0.67615870
vt 0.77218410 0.32840140
vt 0.77218410 0.33712480
vt 0.81582710 0.32840140
vt 0.77218420 0.65696380
vt 0.81582710 0.33712480
vt 0.85649590 0.32840140
vt 0.85649590 0.33712480
vt 0.89141890 0.32840140
vt 0.89141890 0.33712480
vt 0.91821630 0.32840140
vt 0.81582710 0.65696380
vt 0.85649590 0.65696380
vt 0.77218420 0.66686770
vt 0.81582710 0.66686770
vt 0.85649590 0.66686770
vt 0.89141900 0.65696380
vt 0.85337840 0.67615870
vt 0.81421340 0.67615870
vt 0.77218420 0.67615870
vt 0.91821630 0.33712480
vt 0.91821640 0.65696380
vt 0.89141900 0.66686770
vt 0.91821640 0.66686770
vt 0.91281660 0.67615870
vt 0.88701000 0.67615870
vt 0.33425660 0.33847670
vt 0.36222650 0.32917460
vt 0.33425660 0.32975470
vt 0.36222650 0.33789660
vt 0.33425660 0.65826950
vt 0.39804090 0.32873780
vt 0.36222650 0.65768940
vt 0.33425660 0.66817190
vt 0.39804090 0.33745990
vt 0.43925920 0.32847410
vt 0.43925920 0.33719620
vt 0.48307230 0.32840140
vt 0.39804090 0.65725260
vt 0.36222650 0.66759190
vt 0.48307230 0.33712350
vt 0.52649460 0.32852480
vt 0.52649460 0.33724690
vt 0.36648290 0.67695930
vt 0.33954720 0.67751790
vt 0.40097300 0.67653860
vt 0.39804090 0.66715510
vt 0.44066720 0.67628470
vt 0.43925920 0.65698890
vt 0.48307230 0.65691630
vt 0.52649460 0.65703960
vt 0.43925920 0.66689140
vt 0.48286020 0.67621480
vt 0.48307230 0.66681880
vt 0.52649460 0.66694210
vt 0.52467690 0.67633350
vt 0.56656670 0.32883570
vt 0.56656670 0.33755780
vt 0.60055800 0.32931300
vt 0.56656680 0.65735050
vt 0.60055800 0.33803510
vt 0.62615190 0.32992420
vt 0.62615190 0.33864630
vt 0.60055800 0.65782780
vt 0.62615200 0.65843900
vt 0.56656680 0.66725300
vt 0.60055800 0.66773030
vt 0.62615190 0.66834150
vt 0.59600160 0.67709260
vt 0.56326730 0.67663290
vt 0.59300430 0.03793761
vt 0.55673730 0.01669538
vt 0.51620020 0.00569958
vt 0.62252990 0.06797868
vt 0.47415580 0.00569964
vt 0.64330180 0.10477130
vt 0.43346930 0.01669547
vt 0.65390450 0.14580820
vt 0.39691320 0.03793776
vt 0.65361550 0.18829270
vt 0.36697900 0.06797887
vt 0.64245440 0.22932960
vt 0.34570660 0.10477150
vt 0.62118200 0.26612220
vt 0.33454560 0.14580840
vt 0.59124780 0.29616330
vt 0.33425660 0.18829290
vt 0.55469180 0.31740560
vt 0.34485930 0.22932980
vt 0.51400520 0.32840140
vt 0.36563130 0.26612250
vt 0.47196080 0.32840140
vt 0.39515680 0.29616350
vt 0.43142380 0.31740570
vt 0.62724340 0.27042200
vt 0.59615980 0.30161660
vt 0.55820020 0.32367450
vt 0.56032430 0.01141798
vt 0.59798380 0.03347586
vt 0.51823060 0.00000000
vt 0.06679225 0.33610900
vt 0.10510780 0.34574130
vt 0.10650720 0.33635200
vt 0.14892690 0.34581010
vt 0.14870600 0.33641820
vt 0.19233890 0.34569060
vt 0.19233890 0.35559330
vt 0.14892690 0.35571270
vt 0.14892690 0.67550900
vt 0.10510780 0.35564390
vt 0.62615200 0.98438730
vt 0.62615200 0.99310950
vt 0.65152650 0.99258320
vt 0.65152650 0.98386110
vt 0.62615200 0.90554830
vt 0.68401750 0.99218690
vt 0.65152650 0.90502200
vt 0.62615200 0.68625640
vt 0.68401750 0.98346480
vt 0.72141100 0.99194770
vt 0.72141100 0.98322560
vt 0.68401750 0.90462580
vt 0.72141100 0.90438660
vt 0.65152650 0.68573020
vt 0.62615200 0.67738630
vt 0.68401750 0.68533390
vt 0.65152650 0.67686010
vt 0.76115850 0.99188180
vt 0.76115860 0.98315970
vt 0.80055150 0.99199370
vt 0.80055150 0.98327160
vt 0.83690520 0.99227580
vt 0.76115850 0.90432070
vt 0.83690520 0.98355360
vt 0.86774230 0.99270880
vt 0.80055150 0.90443250
vt 0.83690520 0.90471460
vt 0.80055140 0.68514060
vt 0.83690520 0.68542270
vt 0.80055140 0.67627060
vt 0.76115850 0.67615870
vt 0.76115850 0.68502870
vt 0.72141100 0.67622460
vt 0.72141100 0.68509470
vt 0.68401750 0.67646380
vt 0.33425660 0.98585220
vt 0.33425660 0.99457450
vt 0.35742990 0.99404130
vt 0.35742990 0.98531910
vt 0.33425660 0.90701230
vt 0.38823130 0.99362470
vt 0.35742990 0.90647920
vt 0.33425660 0.68771790
vt 0.38823130 0.98490250
vt 0.42456180 0.99335290
vt 0.35742990 0.68718480
vt 0.33425660 0.67884780
vt 0.35742990 0.67831470
vt 0.42456180 0.98463080
vt 0.46394560 0.99324460
vt 0.38823130 0.90606250
vt 0.38823130 0.68676820
vt 0.38823130 0.67789800
vt 0.46394560 0.98452240
vt 0.50369850 0.99330700
vt 0.50369850 0.98458470
vt 0.42456180 0.90579070
vt 0.42456180 0.68649640
vt 0.42456180 0.67762630
vt 0.46394550 0.90568240
vt 0.50369850 0.90574480
vt 0.46394560 0.68638800
vt 0.46394550 0.67751790
vt 0.50369850 0.68645040
vt 0.50369850 0.67758030
vt 0.54111160 0.99353590
vt 0.54111160 0.98481370
vt 0.57363520 0.99391570
vt 0.54111160 0.90597370
vt 0.57363520 0.98519360
vt 0.59905290 0.99442060
vt 0.59905290 0.98569850
vt 0.57363520 0.90635360
vt 0.59905290 0.90685840
vt 0.54111160 0.68667940
vt 0.54111160 0.67780920
vt 0.57363520 0.68705920
vt 0.59905290 0.68756410
vt 0.57363520 0.67818900
vt 0.59905290 0.67869400
vt 0.00000004 0.99127670
vt 0.00000005 1.00000000
vt 0.02431080 1.00000000
vt 0.02431079 0.99127670
vt 0.00000003 0.91242620
vt 0.05599319 1.00000000
vt 0.02431078 0.91242620
vt 0.00000000 0.69310250
vt 0.05599319 0.99127670
vt 0.09288813 1.00000000
vt 0.09288813 0.99127670
vt 0.05599318 0.91242620
vt 0.09288812 0.91242620
vt 0.02431075 0.69310250
vt 0.00000000 0.68423120
vt 0.02431075 0.68423120
vt 0.05599316 0.69310250
vt 0.09288809 0.69310250
vt 0.05599316 0.68423120
vt 0.09288809 0.68423120
vt 0.13248140 1.00000000
vt 0.13248140 0.99127670
vt 0.17207460 1.00000000
vt 0.13248140 0.91242620
vt 0.17207460 0.99127670
vt 0.20896950 1.00000000
vt 0.13248140 0.69310250
vt 0.13248140 0.68423120
vt 0.20896950 0.99127670
vt 0.24065200 1.00000000
vt 0.17207460 0.91242620
vt 0.17207450 0.69310250
vt 0.17207450 0.68423120
vt 0.24065200 0.99127670
vt 0.26496270 1.00000000
vt 0.26496270 0.99127670
vt 0.20896950 0.91242620
vt 0.20896950 0.69310250
vt 0.20896950 0.68423120
vt 0.24065190 0.91242620
vt 0.26496270 0.91242620
vt 0.24065190 0.69310250
vt 0.24065190 0.68423120
vt 0.26496270 0.69310250
vt 0.26496270 0.68423120
vt 0.83690510 0.67655270
vt 0.86774220 0.68585570
vt 0.86774220 0.67698570
vt 0.89096120 0.68641020
vt 0.89096120 0.67754010
vt 0.89096120 0.90570210
vt 0.86774220 0.90514760
vt 0.89096120 0.98454120
vt 0.86774220 0.98398670
vt 0.89096120 0.99326320
vt 0.69053990 0.06359867
vt 0.68419350 0.05875308
vt 0.66423460 0.09346258
vt 0.71730230 0.03672932
vt 0.71242090 0.03041287
vt 0.67161690 0.09650676
vt 0.65390450 0.13217600
vt 0.75008050 0.01772975
vt 0.74699340 0.01037324
vt 0.66182290 0.13321100
vt 0.65390710 0.17225510
vt 0.78664040 0.00789490
vt 0.78555460 0.00000004
vt 0.66182540 0.17120990
vt 0.66424230 0.21096850
vt 0.82449070 0.00789488
vt 0.82547690 0.00000000
vt 0.67162420 0.20791410
vt 0.68420570 0.24567790
vt 0.86105190 0.01772972
vt 0.86403950 0.01037323
vt 0.69055150 0.24082220
vt 0.71243690 0.27401810
vt 0.89383240 0.03672920
vt 0.89861450 0.03041275
vt 0.71731740 0.26769150
vt 0.74701180 0.29405760
vt 0.92059840 0.06359851
vt 0.92684560 0.05875291
vt 0.75009790 0.28669090
vt 0.78557440 0.30443080
vt 0.93952570 0.09650657
vt 0.94680900 0.09346239
vt 0.78665920 0.29652570
vt 0.82549670 0.30443080
vt 0.94932440 0.13321070
vt 0.95714410 0.13217580
vt 0.82450940 0.29652570
vt 0.86405800 0.29405750
vt 0.94932690 0.17120980
vt 0.95714680 0.17225490
vt 0.86106940 0.28669090
vt 0.89863030 0.27401800
vt 0.93953290 0.20791390
vt 0.94681660 0.21096830
vt 0.89384750 0.26769130
vt 0.92685780 0.24567780
vt 0.92060990 0.24082200
vt 0.79261440 0.25312640
vt 0.81908950 0.25312640
vt 0.80584540 0.15218240
vt 0.76704100 0.24624720
vt 0.84466200 0.24624720
vt 0.74411210 0.23295770
vt 0.86758920 0.23295760
vt 0.72539020 0.21416350
vt 0.88630860 0.21416340
vt 0.71215110 0.19114540
vt 0.89954470 0.19114520
vt 0.70529720 0.16547200
vt 0.90639530 0.16547190
vt 0.70529540 0.13889290
vt 0.90639350 0.13889280
vt 0.71214600 0.11321950
vt 0.89953960 0.11321940
vt 0.72538200 0.09020136
vt 0.88630060 0.09020126
vt 0.74410150 0.07140713
vt 0.86757870 0.07140705
vt 0.76702880 0.05811753
vt 0.84464970 0.05811754
vt 0.79260130 0.05123840
vt 0.81907640 0.05123837
vt 0.01138954 0.23253870
vt 0.02584114 0.22653000
vt 0.01550847 0.18781600
vt 0.00000000 0.18986470
vt 0.03339240 0.27079980
vt 0.01550846 0.14773690
vt 0.04580227 0.26124080
vt 0.00000000 0.14568610
vt 0.06450915 0.30204080
vt 0.02584110 0.10902410
vt 0.07403157 0.28958280
vt 0.01138949 0.10301360
vt 0.10261920 0.32413260
vt 0.04580223 0.07431595
vt 0.10860520 0.30962460
vt 0.03339233 0.06475531
vt 0.14512540 0.33556960
vt 0.07403149 0.04597759
vt 0.14716720 0.32000030
vt 0.06450906 0.03351834
vt 0.18913120 0.33557250
vt 0.10860530 0.02594023
vt 0.18708940 0.32000290
vt 0.10261920 0.01143148
vt 0.23163740 0.32414090
vt 0.14716720 0.01556954
vt 0.22565130 0.30963220
vt 0.14512550 0.00000000
vt 0.26974750 0.30205410
vt 0.18708950 0.01557211
vt 0.26022500 0.28959490
vt 0.18913120 0.00000287
vt 0.30086420 0.27081720
vt 0.22565140 0.02594789
vt 0.28845430 0.26125660
vt 0.23163740 0.01143991
vt 0.32286700 0.23255890
vt 0.26022500 0.04598967
vt 0.30841540 0.22654840
vt 0.26974750 0.03353167
vt 0.33425660 0.18988640
vt 0.28845430 0.07433169
vt 0.31874810 0.18783560
vt 0.30086420 0.06477267
vt 0.33425660 0.14570780
vt 0.30841550 0.10904250
vt 0.31874810 0.14775650
vt 0.32286700 0.10303380
f 3/3/3 2/2/2 1/1/1
f 6/6/6 5/5/5 4/4/4
f 9/9/9 8/8/8 7/7/7
f 11/11/11 10/10/10 9/9/9
f 12/12/12 11/11/11 9/9/9
f 13/13/13 11/11/11 12/12/12
f 14/14/14 13/13/13 12/12/12
f 14/14/14 12/12/12 15/15/15
f 16/16/16 13/13/13 14/14/14
f 17/17/17 16/16/16 14/14/14
f 18/18/18 14/14/14 15/15/15
f 17/17/17 14/14/14 18/18/18
f 19/19/19 17/17/17 18/18/18
f 19/19/19 18/18/18 20/20/20
f 21/21/21 19/19/19 20/20/20
f 24/24/24 23/23/23 22/22/22
f 25/25/25 24/24/24 22/22/22
f 26/26/26 24/24/24 25/25/25
f 27/27/27 26/26/26 25/25/25
f 28/28/28 26/26/26 27/27/27
f 29/29/29 28/28/28 27/27/27
f 30/30/30 28/28/28 29/29/29
f 31/31/31 30/30/30 29/29/29
f 25/25/25 22/22/22 32/32/32
f 33/33/33 25/25/25 32/32/32
f 27/27/27 25/25/25 33/33/33
f 32/32/32 22/22/22 34/34/34
f 35/35/35 27/27/27 33/33/33
f 29/29/29 27/27/27 35/35/35
f 22/22/22 36/36/36 34/34/34
f 37/37/37 29/29/29 35/35/35
f 31/31/31 29/29/29 37/37/37
f 34/34/34 36/36/36 38/38/38
f 39/39/39 31/31/31 37/37/37
f 40/40/40 31/31/31 39/39/39
f 41/41/41 40/40/40 39/39/39
f 42/42/42 40/40/40 41/41/41
f 43/43/43 42/42/42 41/41/41
f 36/36/36 44/44/44 38/38/38
f 38/38/38 44/44/44 45/45/45
f 44/44/44 1/1/1 45/45/45
f 44/44/44 3/3/3 1/1/1
f 45/45/45 1/1/1 46/46/46
f 1/1/1 47/47/47 46/46/46
f 46/46/46 47/47/47 48/48/48
f 47/47/47 49/49/49 48/48/48
f 48/48/48 49/49/49 50/50/50
f 49/49/49 51/51/51 50/50/50
f 54/54/54 53/53/53 52/52/52
f 54/54/54 55/55/55 53/53/53
f 55/55/55 56/56/56 53/53/53
f 59/59/59 58/58/58 57/57/57
f 58/58/58 60/60/60 57/57/57
f 57/57/57 60/60/60 61/61/61
f 60/60/60 62/62/62 61/61/61
f 60/60/60 63/63/63 62/62/62
f 60/60/60 58/58/58 63/63/63
f 63/63/63 64/64/64 62/62/62
f 62/62/62 64/64/64 65/65/65
f 64/64/64 66/66/66 65/65/65
f 64/64/64 67/67/67 66/66/66
f 67/67/67 68/68/68 66/66/66
f 67/67/67 69/69/69 68/68/68
f 70/70/70 69/69/69 67/67/67
f 71/71/71 67/67/67 64/64/64
f 71/71/71 70/70/70 67/67/67
f 63/63/63 71/71/71 64/64/64
f 72/72/72 70/70/70 71/71/71
f 73/73/73 72/72/72 71/71/71
f 73/73/73 71/71/71 63/63/63
f 74/74/74 72/72/72 73/73/73
f 58/58/58 75/75/75 63/63/63
f 75/75/75 73/73/73 63/63/63
f 76/76/76 74/74/74 73/73/73
f 76/76/76 73/73/73 75/75/75
f 77/77/77 74/74/74 76/76/76
f 78/78/78 77/77/77 76/76/76
f 79/79/79 75/75/75 58/58/58
f 79/79/79 76/76/76 75/75/75
f 78/78/78 76/76/76 79/79/79
f 80/80/80 79/79/79 58/58/58
f 81/81/81 78/78/78 79/79/79
f 81/81/81 79/79/79 80/80/80
f 82/82/82 81/81/81 80/80/80
f 85/85/85 84/84/84 83/83/83
f 86/86/86 85/85/85 83/83/83
f 28/28/28 87/87/87 26/26/26
f 87/87/87 88/88/88 26/26/26
f 87/87/87 89/89/89 88/88/88
f 26/26/26 88/88/88 24/24/24
f 89/89/89 90/90/90 88/88/88
f 88/88/88 91/91/91 24/24/24
f 88/88/88 90/90/90 91/91/91
f 90/90/90 54/54/54 91/91/91
f 24/24/24 91/91/91 23/23/23
f 91/91/91 54/54/54 52/52/52
f 91/91/91 52/52/52 23/23/23
f 23/23/23 52/52/52 92/92/92
f 23/23/23 92/92/92 36/36/36
f 22/22/22 23/23/23 36/36/36
f 36/36/36 92/92/92 44/44/44
f 92/92/92 3/3/3 44/44/44
f 52/52/52 93/93/93 92/92/92
f 92/92/92 93/93/93 3/3/3
f 52/52/52 53/53/53 93/93/93
f 53/53/53 94/94/94 93/93/93
f 93/93/93 95/95/95 3/3/3
f 93/93/93 94/94/94 95/95/95
f 94/94/94 96/96/96 95/95/95
f 3/3/3 95/95/95 2/2/2
f 95/95/95 97/97/97 2/2/2
f 100/100/100 99/99/99 98/98/98
f 99/99/99 101/101/101 98/98/98
f 98/98/98 101/101/101 102/102/102
f 101/101/101 103/103/103 102/102/102
f 99/99/99 104/104/104 101/101/101
f 104/104/104 86/86/86 101/101/101
f 101/101/101 86/86/86 103/103/103
f 105/105/105 104/104/104 99/99/99
f 86/86/86 83/83/83 103/103/103
f 106/106/106 105/105/105 99/99/99
f 107/107/107 105/105/105 106/106/106
f 108/108/108 107/107/107 106/106/106
f 109/109/109 107/107/107 108/108/108
f 110/110/110 109/109/109 108/108/108
f 103/103/103 83/83/83 111/111/111
f 83/83/83 112/112/112 111/111/111
f 111/111/111 112/112/112 113/113/113
f 112/112/112 114/114/114 113/113/113
f 111/111/111 113/113/113 115/115/115
f 116/116/116 111/111/111 115/115/115
f 115/115/115 113/113/113 117/117/117
f 113/113/113 118/118/118 117/117/117
f 113/113/113 114/114/114 118/118/118
f 114/114/114 119/119/119 118/118/118
f 118/118/118 119/119/119 120/120/120
f 119/119/119 121/121/121 120/120/120
f 120/120/120 121/121/121 122/122/122
f 121/121/121 123/123/123 122/122/122
f 122/122/122 123/123/123 124/124/124
f 127/127/127 126/126/126 125/125/125
f 128/128/128 127/127/127 125/125/125
f 129/129/129 127/127/127 128/128/128
f 130/130/130 129/129/129 128/128/128
f 129/129/129 131/131/131 127/127/127
f 131/131/131 132/132/132 127/127/127
f 133/133/133 129/129/129 130/130/130
f 134/134/134 133/133/133 130/130/130
f 135/135/135 133/133/133 134/134/134
f 136/136/136 135/135/135 134/134/134
f 135/135/135 137/137/137 133/133/133
f 133/133/133 138/138/138 129/129/129
f 137/137/137 138/138/138 133/133/133
f 138/138/138 131/131/131 129/129/129
f 137/137/137 139/139/139 138/138/138
f 139/139/139 140/140/140 138/138/138
f 138/138/138 140/140/140 131/131/131
f 139/139/139 141/141/141 140/140/140
f 141/141/141 142/142/142 140/140/140
f 131/131/131 143/143/143 132/132/132
f 140/140/140 143/143/143 131/131/131
f 140/140/140 142/142/142 143/143/143
f 143/143/143 144/144/144 132/132/132
f 142/142/142 145/145/145 143/143/143
f 143/143/143 145/145/145 144/144/144
f 145/145/145 146/146/146 144/144/144
f 149/149/149 148/148/148 147/147/147
f 150/150/150 149/149/149 147/147/147
f 150/150/150 147/147/147 151/151/151
f 152/152/152 149/149/149 150/150/150
f 5/5/5 150/150/150 151/151/151
f 153/153/153 152/152/152 150/150/150
f 153/153/153 150/150/150 5/5/5
f 154/154/154 152/152/152 153/153/153
f 155/155/155 154/154/154 153/153/153
f 6/6/6 153/153/153 5/5/5
f 155/155/155 153/153/153 6/6/6
f 156/156/156 155/155/155 6/6/6
f 156/156/156 6/6/6 157/157/157
f 158/158/158 156/156/156 157/157/157
f 157/157/157 6/6/6 4/4/4
f 160/160/160 159/159/159 148/148/148
f 149/149/149 160/160/160 148/148/148
f 161/161/161 160/160/160 149/149/149
f 152/152/152 161/161/161 149/149/149
f 162/162/162 161/161/161 152/152/152
f 154/154/154 162/162/162 152/152/152
f 123/123/123 163/163/163 124/124/124
f 124/124/124 163/163/163 164/164/164
f 163/163/163 165/165/165 164/164/164
f 168/168/168 167/167/167 166/166/166
f 167/167/167 169/169/169 166/166/166
f 166/166/166 169/169/169 170/170/170
f 167/167/167 171/171/171 169/169/169
f 169/169/169 172/172/172 170/170/170
f 170/170/170 172/172/172 173/173/173
f 172/172/172 174/174/174 173/173/173
f 171/171/171 175/175/175 169/169/169
f 169/169/169 175/175/175 172/172/172
f 171/171/171 176/176/176 175/175/175
f 176/176/176 177/177/177 175/175/175
f 172/172/172 178/178/178 174/174/174
f 175/175/175 178/178/178 172/172/172
f 175/175/175 177/177/177 178/178/178
f 178/178/178 179/179/179 174/174/174
f 177/177/177 180/180/180 178/178/178
f 178/178/178 180/180/180 179/179/179
f 180/180/180 181/181/181 179/179/179
f 184/184/184 183/183/183 182/182/182
f 184/184/184 182/182/182 185/185/185
f 185/185/185 182/182/182 186/186/186
f 187/187/187 184/184/184 185/185/185
f 188/188/188 184/184/184 187/187/187
f 189/189/189 188/188/188 187/187/187
f 182/182/182 190/190/190 186/186/186
f 186/186/186 190/190/190 191/191/191
f 190/190/190 192/192/192 191/191/191
f 195/195/195 194/194/194 193/193/193
f 68/68/68 195/195/195 193/193/193
f 69/69/69 195/195/195 68/68/68
f 196/196/196 176/176/176 171/171/171
f 197/197/197 196/196/196 171/171/171
f 196/196/196 198/198/198 176/176/176
f 198/198/198 199/199/199 176/176/176
f 176/176/176 199/199/199 177/177/177
f 199/199/199 200/200/200 177/177/177
f 177/177/177 200/200/200 180/180/180
f 200/200/200 201/201/201 180/180/180
f 180/180/180 201/201/201 181/181/181
f 201/201/201 202/202/202 181/181/181
f 188/188/188 203/203/203 184/184/184
f 203/203/203 183/183/183 184/184/184
f 203/203/203 204/204/204 183/183/183
f 204/204/204 205/205/205 183/183/183
f 183/183/183 205/205/205 206/206/206
f 183/183/183 206/206/206 182/182/182
f 182/182/182 206/206/206 190/190/190
f 205/205/205 207/207/207 206/206/206
f 205/205/205 208/208/208 207/207/207
f 208/208/208 209/209/209 207/207/207
f 206/206/206 210/210/210 190/190/190
f 206/206/206 207/207/207 210/210/210
f 190/190/190 210/210/210 192/192/192
f 210/210/210 211/211/211 192/192/192
f 207/207/207 209/209/209 212/212/212
f 207/207/207 212/212/212 210/210/210
f 210/210/210 212/212/212 211/211/211
f 209/209/209 213/213/213 212/212/212
f 212/212/212 214/214/214 211/211/211
f 212/212/212 213/213/213 214/214/214
f 213/213/213 215/215/215 214/214/214
f 217/217/217 216/216/216 119/119/119
f 114/114/114 217/217/217 119/119/119
f 220/220/220 219/219/219 218/218/218
f 219/219/219 221/221/221 218/218/218
f 218/218/218 221/221/221 222/222/222
f 219/219/219 223/223/223 221/221/221
f 221/221/221 224/224/224 222/222/222
f 222/222/222 224/224/224 225/225/225
f 224/224/224 226/226/226 225/225/225
f 223/223/223 227/227/227 221/221/221
f 221/221/221 227/227/227 224/224/224
f 223/223/223 228/228/228 227/227/227
f 228/228/228 229/229/229 227/227/227
f 228/228/228 230/230/230 229/229/229
f 227/227/227 229/229/229 231/231/231
f 227/227/227 231/231/231 224/224/224
f 224/224/224 231/231/231 226/226/226
f 231/231/231 232/232/232 226/226/226
f 232/232/232 233/233/233 226/226/226
f 233/233/233 234/234/234 226/226/226
f 235/235/235 233/233/233 232/232/232
f 238/238/238 237/237/237 236/236/236
f 237/237/237 239/239/239 236/236/236
f 236/236/236 239/239/239 240/240/240
f 237/237/237 241/241/241 239/239/239
f 239/239/239 242/242/242 240/240/240
f 240/240/240 242/242/242 243/243/243
f 242/242/242 244/244/244 243/243/243
f 241/241/241 245/245/245 239/239/239
f 239/239/239 245/245/245 242/242/242
f 241/241/241 246/246/246 245/245/245
f 246/246/246 247/247/247 245/245/245
f 245/245/245 248/248/248 242/242/242
f 245/245/245 247/247/247 248/248/248
f 242/242/242 248/248/248 244/244/244
f 247/247/247 249/249/249 248/248/248
f 248/248/248 249/249/249 250/250/250
f 248/248/248 250/250/250 244/244/244
f 249/249/249 251/251/251 250/250/250
f 250/250/250 252/252/252 244/244/244
f 252/252/252 253/253/253 244/244/244
f 254/254/254 252/252/252 250/250/250
f 246/246/246 255/255/255 247/247/247
f 255/255/255 256/256/256 247/247/247
f 247/247/247 256/256/256 249/249/249
f 255/255/255 257/257/257 256/256/256
f 256/256/256 258/258/258 249/249/249
f 249/249/249 258/258/258 251/251/251
f 257/257/257 259/259/259 256/256/256
f 256/256/256 259/259/259 258/258/258
f 257/257/257 260/260/260 259/259/259
f 260/260/260 261/261/261 259/259/259
f 260/260/260 262/262/262 261/261/261
f 262/262/262 263/263/263 261/261/261
f 262/262/262 264/264/264 263/263/263
f 259/259/259 261/261/261 265/265/265
f 259/259/259 265/265/265 258/258/258
f 261/261/261 266/266/266 265/265/265
f 258/258/258 265/265/265 267/267/267
f 258/258/258 267/267/267 251/251/251
f 265/265/265 266/266/266 268/268/268
f 265/265/265 268/268/268 267/267/267
f 266/266/266 269/269/269 268/268/268
f 266/266/266 270/270/270 269/269/269
f 269/269/269 271/271/271 268/268/268
f 271/271/271 272/272/272 268/268/268
f 268/268/268 272/272/272 267/267/267
f 272/272/272 273/273/273 267/267/267
f 267/267/267 273/273/273 251/251/251
f 273/273/273 254/254/254 251/251/251
f 251/251/251 254/254/254 250/250/250
f 264/264/264 274/274/274 263/263/263
f 263/263/263 274/274/274 270/270/270
f 274/274/274 275/275/275 270/270/270
f 263/263/263 270/270/270 266/266/266
f 261/261/261 263/263/263 266/266/266
f 270/270/270 275/275/275 276/276/276
f 275/275/275 277/277/277 276/276/276
f 277/277/277 278/278/278 276/276/276
f 270/270/270 276/276/276 269/269/269
f 278/278/278 279/279/279 276/276/276
f 276/276/276 279/279/279 269/269/269
f 279/279/279 271/271/271 269/269/269
f 282/282/282 281/281/281 280/280/280
f 281/281/281 283/283/283 280/280/280
f 280/280/280 283/283/283 284/284/284
f 281/281/281 285/285/285 283/283/283
f 283/283/283 286/286/286 284/284/284
f 284/284/284 286/286/286 287/287/287
f 285/285/285 288/288/288 283/283/283
f 283/283/283 288/288/288 286/286/286
f 285/285/285 289/289/289 288/288/288
f 289/289/289 290/290/290 288/288/288
f 289/289/289 291/291/291 290/290/290
f 288/288/288 292/292/292 286/286/286
f 288/288/288 290/290/290 292/292/292
f 286/286/286 293/293/293 287/287/287
f 286/286/286 292/292/292 293/293/293
f 291/291/291 294/294/294 290/290/290
f 291/291/291 295/295/295 294/294/294
f 295/295/295 296/296/296 294/294/294
f 293/293/293 297/297/297 287/287/287
f 297/297/297 298/298/298 287/287/287
f 299/299/299 297/297/297 293/293/293
f 300/300/300 299/299/299 293/293/293
f 292/292/292 300/300/300 293/293/293
f 301/301/301 299/299/299 300/300/300
f 290/290/290 302/302/302 292/292/292
f 290/290/290 294/294/294 302/302/302
f 292/292/292 302/302/302 300/300/300
f 294/294/294 296/296/296 303/303/303
f 294/294/294 303/303/303 302/302/302
f 296/296/296 304/304/304 303/303/303
f 305/305/305 301/301/301 300/300/300
f 302/302/302 305/305/305 300/300/300
f 302/302/302 303/303/303 305/305/305
f 306/306/306 301/301/301 305/305/305
f 303/303/303 304/304/304 307/307/307
f 303/303/303 307/307/307 305/305/305
f 307/307/307 306/306/306 305/305/305
f 304/304/304 308/308/308 307/307/307
f 309/309/309 306/306/306 307/307/307
f 308/308/308 309/309/309 307/307/307
f 295/295/295 310/310/310 296/296/296
f 310/310/310 311/311/311 296/296/296
f 296/296/296 311/311/311 304/304/304
f 310/310/310 312/312/312 311/311/311
f 311/311/311 313/313/313 304/304/304
f 304/304/304 313/313/313 308/308/308
f 312/312/312 314/314/314 311/311/311
f 311/311/311 314/314/314 313/313/313
f 312/312/312 315/315/315 314/314/314
f 315/315/315 316/316/316 314/314/314
f 314/314/314 316/316/316 317/317/317
f 314/314/314 317/317/317 313/313/313
f 316/316/316 318/318/318 317/317/317
f 313/313/313 319/319/319 308/308/308
f 313/313/313 317/317/317 319/319/319
f 317/317/317 318/318/318 320/320/320
f 317/317/317 320/320/320 319/319/319
f 318/318/318 321/321/321 320/320/320
f 320/320/320 322/322/322 319/319/319
f 322/322/322 323/323/323 319/319/319
f 319/319/319 323/323/323 308/308/308
f 323/323/323 309/309/309 308/308/308
f 326/326/326 325/325/325 324/324/324
f 324/324/324 327/327/327 326/326/326
f 327/327/327 328/328/328 326/326/326
f 327/327/327 329/329/329 328/328/328
f 329/329/329 330/330/330 328/328/328
f 329/329/329 331/331/331 330/330/330
f 331/331/331 332/332/332 330/330/330
f 331/331/331 333/333/333 332/332/332
f 333/333/333 334/334/334 332/332/332
f 333/333/333 335/335/335 334/334/334
f 335/335/335 336/336/336 334/334/334
f 335/335/335 337/337/337 336/336/336
f 337/337/337 338/338/338 336/336/336
f 337/337/337 339/339/339 338/338/338
f 339/339/339 340/340/340 338/338/338
f 339/339/339 341/341/341 340/340/340
f 341/341/341 342/342/342 340/340/340
f 341/341/341 343/343/343 342/342/342
f 343/343/343 344/344/344 342/342/342
f 343/343/343 345/345/345 344/344/344
f 345/345/345 346/346/346 344/344/344
f 345/345/345 347/347/347 346/346/346
f 339/339/339 337/337/337 348/348/348
f 349/349/349 339/339/339 348/348/348
f 341/341/341 339/339/339 349/349/349
f 350/350/350 341/341/341 349/349/349
f 352/352/352 324/324/324 351/351/351
f 324/324/324 325/325/325 351/351/351
f 351/351/351 325/325/325 353/353/353
f 325/325/325 326/326/326 353/353/353
f 8/8/8 354/354/354 7/7/7
f 7/7/7 354/354/354 355/355/355
f 354/354/354 356/356/356 355/355/355
f 355/355/355 356/356/356 357/357/357
f 356/356/356 358/358/358 357/357/357
f 357/357/357 358/358/358 359/359/359
f 358/358/358 235/235/235 359/359/359
f 359/359/359 235/235/235 232/232/232
f 360/360/360 359/359/359 232/232/232
f 231/231/231 360/360/360 232/232/232
f 229/229/229 360/360/360 231/231/231
f 361/361/361 357/357/357 359/359/359
f 360/360/360 361/361/361 359/359/359
f 229/229/229 362/362/362 360/360/360
f 362/362/362 361/361/361 360/360/360
f 230/230/230 362/362/362 229/229/229
f 230/230/230 21/21/21 362/362/362
f 21/21/21 20/20/20 362/362/362
f 362/362/362 20/20/20 361/361/361
f 361/361/361 363/363/363 357/357/357
f 20/20/20 363/363/363 361/361/361
f 363/363/363 355/355/355 357/357/357
f 20/20/20 18/18/18 363/363/363
f 18/18/18 15/15/15 363/363/363
f 363/363/363 15/15/15 355/355/355
f 15/15/15 7/7/7 355/355/355
f 15/15/15 12/12/12 7/7/7
f 12/12/12 9/9/9 7/7/7
f 366/366/366 365/365/365 364/364/364
f 367/367/367 366/366/366 364/364/364
f 367/367/367 364/364/364 368/368/368
f 369/369/369 366/366/366 367/367/367
f 370/370/370 367/367/367 368/368/368
f 370/370/370 368/368/368 371/371/371
f 372/372/372 369/369/369 367/367/367
f 372/372/372 367/367/367 370/370/370
f 373/373/373 369/369/369 372/372/372
f 374/374/374 373/373/373 372/372/372
f 374/374/374 372/372/372 375/375/375
f 375/375/375 372/372/372 370/370/370
f 376/376/376 374/374/374 375/375/375
f 377/377/377 370/370/370 371/371/371
f 375/375/375 370/370/370 377/377/377
f 377/377/377 371/371/371 378/378/378
f 379/379/379 375/375/375 377/377/377
f 380/380/380 377/377/377 378/378/378
f 379/379/379 377/377/377 380/380/380
f 381/381/381 373/373/373 374/374/374
f 382/382/382 381/381/381 374/374/374
f 383/383/383 381/381/381 382/382/382
f 382/382/382 374/374/374 376/376/376
f 384/384/384 383/383/383 382/382/382
f 385/385/385 383/383/383 384/384/384
f 386/386/386 382/382/382 376/376/376
f 384/384/384 382/382/382 386/386/386
f 387/387/387 385/385/385 384/384/384
f 388/388/388 385/385/385 387/387/387
f 387/387/387 384/384/384 389/389/389
f 389/389/389 384/384/384 386/386/386
f 390/390/390 387/387/387 389/389/389
f 390/390/390 389/389/389 391/391/391
f 392/392/392 390/390/390 391/391/391
f 392/392/392 391/391/391 393/393/393
f 393/393/393 391/391/391 394/394/394
f 391/391/391 389/389/389 395/395/395
f 391/391/391 395/395/395 394/394/394
f 389/389/389 386/386/386 395/395/395
f 394/394/394 395/395/395 396/396/396
f 395/395/395 386/386/386 397/397/397
f 395/395/395 397/397/397 396/396/396
f 386/386/386 376/376/376 397/397/397
f 396/396/396 397/397/397 398/398/398
f 397/397/397 376/376/376 379/379/379
f 397/397/397 379/379/379 398/398/398
f 376/376/376 375/375/375 379/379/379
f 398/398/398 379/379/379 380/380/380
f 401/401/401 400/400/400 399/399/399
f 402/402/402 401/401/401 399/399/399
f 402/402/402 399/399/399 403/403/403
f 404/404/404 401/401/401 402/402/402
f 405/405/405 402/402/402 403/403/403
f 405/405/405 403/403/403 406/406/406
f 407/407/407 404/404/404 402/402/402
f 407/407/407 402/402/402 405/405/405
f 408/408/408 404/404/404 407/407/407
f 409/409/409 405/405/405 406/406/406
f 409/409/409 406/406/406 410/410/410
f 411/411/411 409/409/409 410/410/410
f 412/412/412 408/408/408 407/407/407
f 413/413/413 408/408/408 412/412/412
f 414/414/414 407/407/407 405/405/405
f 414/414/414 405/405/405 409/409/409
f 412/412/412 407/407/407 414/414/414
f 415/415/415 409/409/409 411/411/411
f 415/415/415 414/414/414 409/409/409
f 416/416/416 415/415/415 411/411/411
f 417/417/417 413/413/413 412/412/412
f 418/418/418 413/413/413 417/417/417
f 419/419/419 418/418/418 417/417/417
f 420/420/420 412/412/412 414/414/414
f 420/420/420 414/414/414 415/415/415
f 417/417/417 412/412/412 420/420/420
f 421/421/421 415/415/415 416/416/416
f 421/421/421 420/420/420 415/415/415
f 422/422/422 421/421/421 416/416/416
f 419/419/419 417/417/417 423/423/423
f 423/423/423 417/417/417 420/420/420
f 423/423/423 420/420/420 421/421/421
f 424/424/424 419/419/419 423/423/423
f 425/425/425 421/421/421 422/422/422
f 425/425/425 423/423/423 421/421/421
f 424/424/424 423/423/423 425/425/425
f 426/426/426 425/425/425 422/422/422
f 427/427/427 424/424/424 425/425/425
f 427/427/427 425/425/425 426/426/426
f 428/428/428 427/427/427 426/426/426
f 429/429/429 418/418/418 419/419/419
f 430/430/430 429/429/429 419/419/419
f 430/430/430 419/419/419 424/424/424
f 431/431/431 429/429/429 430/430/430
f 432/432/432 430/430/430 424/424/424
f 432/432/432 424/424/424 427/427/427
f 433/433/433 431/431/431 430/430/430
f 433/433/433 430/430/430 432/432/432
f 434/434/434 431/431/431 433/433/433
f 435/435/435 434/434/434 433/433/433
f 435/435/435 433/433/433 436/436/436
f 436/436/436 433/433/433 432/432/432
f 437/437/437 435/435/435 436/436/436
f 438/438/438 432/432/432 427/427/427
f 436/436/436 432/432/432 438/438/438
f 438/438/438 427/427/427 428/428/428
f 439/439/439 438/438/438 428/428/428
f 437/437/437 436/436/436 440/440/440
f 440/440/440 436/436/436 438/438/438
f 440/440/440 438/438/438 439/439/439
f 441/441/441 437/437/437 440/440/440
f 442/442/442 440/440/440 439/439/439
f 441/441/441 440/440/440 442/442/442
f 443/443/443 441/441/441 442/442/442
f 446/446/446 445/445/445 444/444/444
f 447/447/447 446/446/446 444/444/444
f 447/447/447 444/444/444 448/448/448
f 449/449/449 446/446/446 447/447/447
f 450/450/450 447/447/447 448/448/448
f 450/450/450 448/448/448 451/451/451
f 452/452/452 449/449/449 447/447/447
f 452/452/452 447/447/447 450/450/450
f 453/453/453 449/449/449 452/452/452
f 454/454/454 453/453/453 452/452/452
f 454/454/454 452/452/452 455/455/455
f 455/455/455 452/452/452 450/450/450
f 456/456/456 454/454/454 455/455/455
f 457/457/457 450/450/450 451/451/451
f 455/455/455 450/450/450 457/457/457
f 457/457/457 451/451/451 458/458/458
f 459/459/459 457/457/457 458/458/458
f 456/456/456 455/455/455 460/460/460
f 460/460/460 455/455/455 457/457/457
f 460/460/460 457/457/457 459/459/459
f 461/461/461 456/456/456 460/460/460
f 462/462/462 460/460/460 459/459/459
f 461/461/461 460/460/460 462/462/462
f 463/463/463 461/461/461 462/462/462
f 464/464/464 453/453/453 454/454/454
f 465/465/465 464/464/464 454/454/454
f 465/465/465 454/454/454 456/456/456
f 466/466/466 464/464/464 465/465/465
f 467/467/467 465/465/465 456/456/456
f 467/467/467 456/456/456 461/461/461
f 468/468/468 466/466/466 465/465/465
f 468/468/468 465/465/465 467/467/467
f 469/469/469 466/466/466 468/468/468
f 470/470/470 467/467/467 461/461/461
f 470/470/470 461/461/461 463/463/463
f 471/471/471 470/470/470 463/463/463
f 472/472/472 469/469/469 468/468/468
f 473/473/473 469/469/469 472/472/472
f 474/474/474 468/468/468 467/467/467
f 474/474/474 467/467/467 470/470/470
f 472/472/472 468/468/468 474/474/474
f 475/475/475 470/470/470 471/471/471
f 475/475/475 474/474/474 470/470/470
f 476/476/476 475/475/475 471/471/471
f 477/477/477 473/473/473 472/472/472
f 478/478/478 473/473/473 477/477/477
f 479/479/479 478/478/478 477/477/477
f 480/480/480 472/472/472 474/474/474
f 480/480/480 474/474/474 475/475/475
f 477/477/477 472/472/472 480/480/480
f 481/481/481 475/475/475 476/476/476
f 481/481/481 480/480/480 475/475/475
f 482/482/482 481/481/481 476/476/476
f 479/479/479 477/477/477 483/483/483
f 483/483/483 477/477/477 480/480/480
f 483/483/483 480/480/480 481/481/481
f 484/484/484 479/479/479 483/483/483
f 485/485/485 481/481/481 482/482/482
f 485/485/485 483/483/483 481/481/481
f 484/484/484 483/483/483 485/485/485
f 486/486/486 485/485/485 482/482/482
f 487/487/487 484/484/484 485/485/485
f 487/487/487 485/485/485 486/486/486
f 488/488/488 487/487/487 486/486/486
f 489/489/489 392/392/392 393/393/393
f 490/490/490 392/392/392 489/489/489
f 491/491/491 490/490/490 489/489/489
f 492/492/492 490/490/490 491/491/491
f 493/493/493 492/492/492 491/491/491
f 492/492/492 494/494/494 490/490/490
f 490/490/490 495/495/495 392/392/392
f 494/494/494 495/495/495 490/490/490
f 495/495/495 390/390/390 392/392/392
f 494/494/494 496/496/496 495/495/495
f 495/495/495 497/497/497 390/390/390
f 496/496/496 497/497/497 495/495/495
f 497/497/497 387/387/387 390/390/390
f 496/496/496 498/498/498 497/497/497
f 497/497/497 388/388/388 387/387/387
f 498/498/498 388/388/388 497/497/497
f 501/501/501 500/500/500 499/499/499
f 499/499/499 500/500/500 502/502/502
f 500/500/500 503/503/503 502/502/502
f 504/504/504 501/501/501 499/499/499
f 505/505/505 501/501/501 504/504/504
f 502/502/502 503/503/503 506/506/506
f 503/503/503 507/507/507 506/506/506
f 508/508/508 505/505/505 504/504/504
f 509/509/509 505/505/505 508/508/508
f 506/506/506 507/507/507 510/510/510
f 507/507/507 511/511/511 510/510/510
f 512/512/512 509/509/509 508/508/508
f 513/513/513 509/509/509 512/512/512
f 510/510/510 511/511/511 514/514/514
f 511/511/511 515/515/515 514/514/514
f 516/516/516 513/513/513 512/512/512
f 517/517/517 513/513/513 516/516/516
f 514/514/514 515/515/515 518/518/518
f 515/515/515 519/519/519 518/518/518
f 520/520/520 517/517/517 516/516/516
f 521/521/521 517/517/517 520/520/520
f 518/518/518 519/519/519 522/522/522
f 519/519/519 523/523/523 522/522/522
f 524/524/524 521/521/521 520/520/520
f 525/525/525 521/521/521 524/524/524
f 522/522/522 523/523/523 526/526/526
f 523/523/523 527/527/527 526/526/526
f 528/528/528 525/525/525 524/524/524
f 529/529/529 525/525/525 528/528/528
f 526/526/526 527/527/527 530/530/530
f 527/527/527 531/531/531 530/530/530
f 532/532/532 529/529/529 528/528/528
f 533/533/533 529/529/529 532/532/532
f 530/530/530 531/531/531 534/534/534
f 531/531/531 535/535/535 534/534/534
f 536/536/536 533/533/533 532/532/532
f 537/537/537 533/533/533 536/536/536
f 534/534/534 535/535/535 538/538/538
f 535/535/535 539/539/539 538/538/538
f 540/540/540 537/537/537 536/536/536
f 541/541/541 537/537/537 540/540/540
f 538/538/538 539/539/539 542/542/542
f 539/539/539 543/543/543 542/542/542
f 544/544/544 541/541/541 540/540/540
f 545/545/545 541/541/541 544/544/544
f 543/543/543 545/545/545 546/546/546
f 542/542/542 543/543/543 546/546/546
f 546/546/546 545/545/545 544/544/544
f 536/536/536 532/532/532 547/547/547
f 540/540/540 536/536/536 548/548/548
f 548/548/548 536/536/536 547/547/547
f 548/548/548 547/547/547 549/549/549
f 547/547/547 532/532/532 550/550/550
f 547/547/547 550/550/550 549/549/549
f 532/532/532 528/528/528 550/550/550
f 551/551/551 540/540/540 548/548/548
f 544/544/544 540/540/540 551/551/551
f 551/551/551 548/548/548 549/549/549
f 550/550/550 528/528/528 552/552/552
f 549/549/549 550/550/550 552/552/552
f 528/528/528 524/524/524 552/552/552
f 553/553/553 544/544/544 551/551/551
f 546/546/546 544/544/544 553/553/553
f 553/553/553 551/551/551 549/549/549
f 552/552/552 524/524/524 554/554/554
f 554/554/554 549/549/549 552/552/552
f 524/524/524 520/520/520 554/554/554
f 555/555/555 546/546/546 553/553/553
f 555/555/555 553/553/553 549/549/549
f 549/549/549 554/554/554 556/556/556
f 554/554/554 520/520/520 556/556/556
f 557/557/557 555/555/555 549/549/549
f 542/542/542 546/546/546 555/555/555
f 557/557/557 542/542/542 555/555/555
f 520/520/520 516/516/516 556/556/556
f 538/538/538 542/542/542 557/557/557
f 556/556/556 516/516/516 558/558/558
f 558/558/558 549/549/549 556/556/556
f 516/516/516 512/512/512 558/558/558
f 559/559/559 538/538/538 557/557/557
f 557/557/557 549/549/549 559/559/559
f 534/534/534 538/538/538 559/559/559
f 558/558/558 512/512/512 560/560/560
f 558/558/558 560/560/560 549/549/549
f 512/512/512 508/508/508 560/560/560
f 561/561/561 534/534/534 559/559/559
f 549/549/549 561/561/561 559/559/559
f 530/530/530 534/534/534 561/561/561
f 560/560/560 508/508/508 562/562/562
f 560/560/560 562/562/562 549/549/549
f 508/508/508 504/504/504 562/562/562
f 561/561/561 549/549/549 563/563/563
f 563/563/563 530/530/530 561/561/561
f 549/549/549 562/562/562 564/564/564
f 562/562/562 504/504/504 564/564/564
f 549/549/549 565/565/565 563/563/563
f 526/526/526 530/530/530 563/563/563
f 565/565/565 526/526/526 563/563/563
f 504/504/504 499/499/499 564/564/564
f 522/522/522 526/526/526 565/565/565
f 564/564/564 499/499/499 566/566/566
f 566/566/566 549/549/549 564/564/564
f 499/499/499 502/502/502 566/566/566
f 567/567/567 522/522/522 565/565/565
f 565/565/565 549/549/549 567/567/567
f 518/518/518 522/522/522 567/567/567
f 566/566/566 502/502/502 568/568/568
f 566/566/566 568/568/568 549/549/549
f 502/502/502 506/506/506 568/568/568
f 569/569/569 518/518/518 567/567/567
f 549/549/549 569/569/569 567/567/567
f 514/514/514 518/518/518 569/569/569
f 568/568/568 506/506/506 570/570/570
f 568/568/568 570/570/570 549/549/549
f 506/506/506 510/510/510 570/570/570
f 571/571/571 569/569/569 549/549/549
f 571/571/571 514/514/514 569/569/569
f 570/570/570 571/571/571 549/549/549
f 510/510/510 514/514/514 571/571/571
f 570/570/570 510/510/510 571/571/571
f 574/574/574 573/573/573 572/572/572
f 575/575/575 574/574/574 572/572/572
f 572/572/572 573/573/573 576/576/576
f 577/577/577 574/574/574 575/575/575
f 573/573/573 578/578/578 576/576/576
f 579/579/579 577/577/577 575/575/575
f 576/576/576 578/578/578 580/580/580
f 581/581/581 577/577/577 579/579/579
f 578/578/578 582/582/582 580/580/580
f 583/583/583 581/581/581 579/579/579
f 580/580/580 582/582/582 584/584/584
f 585/585/585 581/581/581 583/583/583
f 582/582/582 586/586/586 584/584/584
f 587/587/587 585/585/585 583/583/583
f 584/584/584 586/586/586 588/588/588
f 589/589/589 585/585/585 587/587/587
f 586/586/586 590/590/590 588/588/588
f 591/591/591 589/589/589 587/587/587
f 588/588/588 590/590/590 592/592/592
f 593/593/593 589/589/589 591/591/591
f 590/590/590 594/594/594 592/592/592
f 595/595/595 593/593/593 591/591/591
f 592/592/592 594/594/594 596/596/596
f 597/597/597 593/593/593 595/595/595
f 594/594/594 598/598/598 596/596/596
f 599/599/599 597/597/597 595/595/595
f 596/596/596 598/598/598 600/600/600
f 601/601/601 597/597/597 599/599/599
f 598/598/598 602/602/602 600/600/600
f 603/603/603 601/601/601 599/599/599
f 600/600/600 602/602/602 604/604/604
f 605/605/605 601/601/601 603/603/603
f 602/602/602 606/606/606 604/604/604
f 607/607/607 605/605/605 603/603/603
f 604/604/604 606/606/606 608/608/608
f 609/609/609 605/605/605 607/607/607
f 606/606/606 610/610/610 608/608/608
f 611/611/611 609/609/609 607/607/607
f 608/608/608 610/610/610 612/612/612
f 613/613/613 609/609/609 611/611/611
f 610/610/610 614/614/614 612/612/612
f 615/615/615 613/613/613 611/611/611
f 612/612/612 614/614/614 616/616/616
f 617/617/617 613/613/613 615/615/615
f 614/614/614 618/618/618 616/616/616
f 619/619/619 617/617/617 615/615/615
f 616/616/616 618/618/618 619/619/619
f 618/618/618 617/617/617 619/619/619

