# https://github.com/mikedh/trimesh
mtllib material.mtl
usemtl material_0
v 0.00980796 0.23252329 0.36555661
v 0.00980796 0.23252329 0.35084661
v 0.00980796 0.37653329 0.35084661
v 0.00980796 0.37653329 0.36555661
v 0.00980796 0.37653329 0.36555661
v 0.01285796 0.37653329 0.36654661
v 0.01285796 0.23252329 0.36654661
v 0.00980796 0.23252329 0.36555661
v 0.01285796 0.08257329 0.36654661
v 0.00980796 0.08257329 0.36555661
v 0.01285796 0.37653329 0.34985661
v 0.00980796 0.37653329 0.35084661
v 0.00980796 0.23252329 0.35084661
v 0.01286796 0.23252329 0.34985661
v 0.00980796 0.08257329 0.35084661
v 0.01286796 0.08257329 0.34985661
v 0.56824796 -0.36256671 0.36555661
v 0.56824796 -0.36133671 0.36654661
v 0.57129796 -0.36133671 0.36555661
v 0.50111796 -0.36256671 0.36555661
v 0.50111796 -0.36133671 0.36654661
v 0.29055796 -0.36256671 0.36555661
v 0.29055796 -0.36133671 0.36654661
v 0.07999796 -0.36256671 0.36555661
v 0.07999796 -0.36133671 0.36654661
v 0.01286796 -0.36256671 0.36555661
v 0.01285796 -0.36133671 0.36654661
v 0.00980796 -0.36133671 0.36555661
v 0.56824796 -0.36256671 0.35084661
v 0.57129796 -0.36133671 0.35084661
v 0.56824796 -0.36133671 0.34985661
v 0.50111796 -0.36133671 0.34985661
v 0.50111796 -0.36256671 0.35084661
v 0.29055796 -0.36133671 0.34985661
v 0.29055796 -0.36256671 0.35084661
v 0.07999796 -0.36133671 0.34985661
v 0.07999796 -0.36256671 0.35084661
v 0.01285796 -0.36133671 0.34985661
v 0.01286796 -0.36256671 0.35084661
v 0.00980796 -0.36133671 0.35084661
v 0.56824796 -0.36256671 0.36555661
v 0.57129796 -0.36133671 0.36555661
v 0.57129796 -0.36133671 0.35084661
v 0.56824796 -0.36256671 0.35084661
v 0.50111796 -0.36256671 0.35084661
v 0.50111796 -0.36256671 0.36555661
v 0.29055796 -0.36256671 0.35084661
v 0.29055796 -0.36256671 0.36555661
v 0.07999796 -0.36256671 0.35084661
v 0.07999796 -0.36256671 0.36555661
v 0.01286796 -0.36256671 0.35084661
v 0.01286796 -0.36256671 0.36555661
v 0.00980796 -0.36133671 0.36555661
v 0.00980796 -0.36133671 0.35084661
v 0.00980796 0.08257329 0.36555661
v 0.00980796 0.23252329 0.35084661
v 0.00980796 0.23252329 0.36555661
v 0.00980796 0.08257329 0.35084661
v 0.00980796 -0.06737671 0.36555661
v 0.00980796 -0.06737671 0.35084661
v 0.00980796 -0.21732671 0.36555661
v 0.00980796 -0.21732671 0.35084661
v 0.00980796 -0.36133671 0.36555661
v 0.00980796 -0.36133671 0.35084661
v 0.00980796 0.08257329 0.36555661
v 0.01285796 0.08257329 0.36654661
v 0.01286796 -0.06737671 0.36654661
v 0.00980796 -0.06737671 0.36555661
v 0.01286796 -0.21732671 0.36654661
v 0.00980796 -0.21732671 0.36555661
v 0.01285796 -0.36133671 0.36654661
v 0.00980796 -0.36133671 0.36555661
v 0.01286796 0.08257329 0.34985661
v 0.00980796 0.08257329 0.35084661
v 0.00980796 -0.06737671 0.35084661
v 0.01286796 -0.06737671 0.34985661
v 0.00980796 -0.21732671 0.35084661
v 0.01286796 -0.21732671 0.34985661
v 0.00980796 -0.36133671 0.35084661
v 0.01285796 -0.36133671 0.34985661
v 0.57129796 0.08257329 0.36555661
v 0.57129796 0.08257329 0.35084661
v 0.57129796 -0.06737671 0.35084661
v 0.57129796 -0.06737671 0.36555661
v 0.57129796 -0.21732671 0.35084661
v 0.57129796 -0.21732671 0.36555661
v 0.57129796 -0.36133671 0.35084661
v 0.57129796 -0.36133671 0.36555661
v 0.56824796 -0.21732671 0.36654661
v 0.57129796 -0.36133671 0.36555661
v 0.56824796 -0.36133671 0.36654661
v 0.57129796 -0.21732671 0.36555661
v 0.56824796 -0.06737671 0.36654661
v 0.57129796 -0.06737671 0.36555661
v 0.56824796 0.08257329 0.36654661
v 0.57129796 0.08257329 0.36555661
v 0.57129796 -0.21732671 0.35084661
v 0.56824796 -0.36133671 0.34985661
v 0.57129796 -0.36133671 0.35084661
v 0.56824796 -0.21732671 0.34985661
v 0.57129796 -0.06737671 0.35084661
v 0.56824796 -0.06737671 0.34985661
v 0.57129796 0.08257329 0.35084661
v 0.56824796 0.08257329 0.34985661
v 0.18527796 0.15877329 0.38476661
v 0.09331796 0.22781329 0.36654661
v 0.27722796 0.22781329 0.36654661
v 0.18673796 0.15754329 0.38479661
v 0.27885796 0.22671329 0.36654661
v 0.18381796 0.15754329 0.38479661
v 0.27885796 0.08838329 0.36654661
v 0.18527796 0.15632329 0.38476661
v 0.27722796 0.08728329 0.36654661
v 0.27988796 0.08687329 0.36654661
v 0.09331796 0.08728329 0.36654661
v 0.07999796 0.08257329 0.36654661
v 0.29055796 0.08257329 0.36654661
v 0.09169796 0.08838329 0.36654661
v 0.09169796 0.22671329 0.36654661
v 0.09066796 0.22822329 0.36654661
v 0.09066796 0.08687329 0.36654661
v 0.07999796 0.23252329 0.36654661
v 0.01285796 0.23252329 0.36654661
v 0.01285796 0.08257329 0.36654661
v 0.07999796 -0.06737671 0.36654661
v 0.01286796 -0.06737671 0.36654661
v 0.07999796 -0.21732671 0.36654661
v 0.01286796 -0.21732671 0.36654661
v 0.07999796 -0.36133671 0.36654661
v 0.01285796 -0.36133671 0.36654661
v 0.09066796 -0.21302671 0.36654661
v 0.09066796 -0.06307671 0.36654661
v 0.09066796 -0.07167671 0.36654661
v 0.09331796 -0.06266671 0.36654661
v 0.09331796 -0.21261671 0.36654661
v 0.09052796 -0.35819671 0.36654661
v 0.27722796 -0.21261671 0.36654661
v 0.09169796 -0.21151671 0.36654661
v 0.09169796 -0.07318671 0.36654661
v 0.18381796 -0.14234671 0.38479661
v 0.09331796 -0.07208671 0.36654661
v 0.18527796 -0.14112671 0.38476661
v 0.18527796 -0.14357671 0.38476661
v 0.27722796 -0.07208671 0.36654661
v 0.18673796 -0.14234671 0.38479661
v 0.27885796 -0.21151671 0.36654661
v 0.27885796 -0.07318671 0.36654661
v 0.27988796 -0.21302671 0.36654661
v 0.29055796 -0.21732671 0.36654661
v 0.27988796 -0.07167671 0.36654661
v 0.29055796 -0.06737671 0.36654661
v 0.27988796 -0.06307671 0.36654661
v 0.27722796 -0.06266671 0.36654661
v 0.27885796 -0.06156671 0.36654661
v 0.18527796 0.00637329 0.38476661
v 0.27885796 0.07676329 0.36654661
v 0.18673796 0.00759329 0.38479661
v 0.18381796 0.00759329 0.38479661
v 0.27988796 0.07827329 0.36654661
v 0.27722796 0.07786329 0.36654661
v 0.09169796 -0.06156671 0.36654661
v 0.18527796 0.00882329 0.38476661
v 0.09066796 0.07827329 0.36654661
v 0.09169796 0.07676329 0.36654661
v 0.09331796 0.07786329 0.36654661
v 0.30115796 -0.06310671 0.36654661
v 0.30380796 -0.06269671 0.36654661
v 0.48785796 -0.06269671 0.36654661
v 0.49050796 -0.06310671 0.36654661
v 0.50111796 -0.06737671 0.36654661
v 0.30115796 0.07830329 0.36654661
v 0.30380796 0.07789329 0.36654661
v 0.48785796 0.07789329 0.36654661
v 0.30218796 -0.06159671 0.36654661
v 0.30218796 0.07679329 0.36654661
v 0.39437796 0.00759329 0.38479661
v 0.39583796 0.00882329 0.38476661
v 0.39583796 0.00637329 0.38476661
v 0.39729796 0.00759329 0.38479661
v 0.48948796 -0.06159671 0.36654661
v 0.48948796 0.07679329 0.36654661
v 0.49050796 0.07830329 0.36654661
v 0.50111796 0.08257329 0.36654661
v 0.49043796 0.08687329 0.36654661
v 0.48778796 0.08728329 0.36654661
v 0.48941796 0.08838329 0.36654661
v 0.56824796 -0.06737671 0.36654661
v 0.56824796 0.08257329 0.36654661
v 0.50111796 0.23252329 0.36654661
v 0.56824796 0.23252329 0.36654661
v 0.56824796 -0.21732671 0.36654661
v 0.50111796 -0.21732671 0.36654661
v 0.56824796 -0.36133671 0.36654661
v 0.50111796 -0.36133671 0.36654661
v 0.49043796 -0.07167671 0.36654661
v 0.30387796 0.08728329 0.36654661
v 0.30122796 0.08687329 0.36654661
v 0.29055796 0.23252329 0.36654661
v 0.30122796 0.22822329 0.36654661
v 0.30225796 0.08838329 0.36654661
v 0.30225796 0.22671329 0.36654661
v 0.39437796 0.15754329 0.38479661
v 0.39583796 0.15632329 0.38476661
v 0.39729796 0.15754329 0.38479661
v 0.48941796 0.22671329 0.36654661
v 0.39583796 0.15877329 0.38476661
v 0.48778796 0.22781329 0.36654661
v 0.30387796 0.22781329 0.36654661
v 0.01286796 0.37776329 0.36555661
v 0.01285796 0.37653329 0.36654661
v 0.00980796 0.37653329 0.36555661
v 0.07999796 0.37776329 0.36555661
v 0.07999796 0.37653329 0.36654661
v 0.29055796 0.37776329 0.36555661
v 0.29055796 0.37653329 0.36654661
v 0.50111796 0.37776329 0.36555661
v 0.50111796 0.37653329 0.36654661
v 0.56824796 0.37776329 0.36555661
v 0.56824796 0.37653329 0.36654661
v 0.57129796 0.37653329 0.36555661
v 0.01286796 0.37776329 0.35084661
v 0.00980796 0.37653329 0.35084661
v 0.01285796 0.37653329 0.34985661
v 0.07999796 0.37653329 0.34985661
v 0.07999796 0.37776329 0.35084661
v 0.29055796 0.37653329 0.34985661
v 0.29055796 0.37776329 0.35084661
v 0.50111796 0.37653329 0.34985661
v 0.50111796 0.37776329 0.35084661
v 0.56824796 0.37653329 0.34985661
v 0.56824796 0.37776329 0.35084661
v 0.57129796 0.37653329 0.35084661
v 0.00980796 0.37653329 0.35084661
v 0.01286796 0.37776329 0.36555661
v 0.00980796 0.37653329 0.36555661
v 0.01286796 0.37776329 0.35084661
v 0.07999796 0.37776329 0.35084661
v 0.07999796 0.37776329 0.36555661
v 0.29055796 0.37776329 0.35084661
v 0.29055796 0.37776329 0.36555661
v 0.50111796 0.37776329 0.35084661
v 0.50111796 0.37776329 0.36555661
v 0.56824796 0.37776329 0.35084661
v 0.56824796 0.37776329 0.36555661
v 0.57129796 0.37653329 0.36555661
v 0.57129796 0.37653329 0.35084661
v 0.49043796 0.08687329 0.36654661
v 0.48941796 0.08838329 0.36654661
v 0.48941796 0.22671329 0.36654661
v 0.49043796 0.22822329 0.36654661
v 0.50111796 0.08257329 0.36654661
v 0.48778796 0.22781329 0.36654661
v 0.50111796 0.23252329 0.36654661
v 0.29055796 0.23252329 0.36654661
v 0.30387796 0.22781329 0.36654661
v 0.30122796 0.22822329 0.36654661
v 0.30225796 0.22671329 0.36654661
v 0.39583796 0.15877329 0.38476661
v 0.39437796 0.15754329 0.38479661
v 0.49043796 0.23682329 0.36654661
v 0.48777796 0.23723329 0.36654661
v 0.30388796 0.23723329 0.36654661
v 0.30122796 0.23682329 0.36654661
v 0.49057796 0.37339329 0.36654661
v 0.50111796 0.37653329 0.36654661
v 0.56824796 0.23252329 0.36654661
v 0.56824796 0.37653329 0.36654661
v 0.29055796 0.37653329 0.36654661
v 0.48941796 0.23830329 0.36654661
v 0.48941796 0.37197329 0.36654661
v 0.39583796 0.30395329 0.38475661
v 0.48777796 0.37304329 0.36654661
v 0.39730796 0.30514329 0.38479661
v 0.39435796 0.30514329 0.38479661
v 0.30225796 0.23830329 0.36654661
v 0.39583796 0.30633329 0.38475661
v 0.30108796 0.37339329 0.36654661
v 0.30225796 0.37197329 0.36654661
v 0.30388796 0.37304329 0.36654661
v 0.28002796 0.37339329 0.36654661
v 0.07999796 0.37653329 0.36654661
v 0.27988796 0.23682329 0.36654661
v 0.27721796 0.37304329 0.36654661
v 0.27885796 0.37197329 0.36654661
v 0.07999796 0.23252329 0.36654661
v 0.01285796 0.37653329 0.36654661
v 0.01285796 0.23252329 0.36654661
v 0.27988796 0.22822329 0.36654661
v 0.27721796 0.23723329 0.36654661
v 0.29055796 0.08257329 0.36654661
v 0.27988796 0.08687329 0.36654661
v 0.27885796 0.22671329 0.36654661
v 0.27885796 0.08838329 0.36654661
v 0.27722796 0.22781329 0.36654661
v 0.09331796 0.22781329 0.36654661
v 0.27885796 0.23830329 0.36654661
v 0.09066796 0.22822329 0.36654661
v 0.09169796 0.22671329 0.36654661
v 0.18527796 0.15877329 0.38476661
v 0.18381796 0.15754329 0.38479661
v 0.18674796 0.30514329 0.38479661
v 0.18527796 0.30395329 0.38476661
v 0.18527796 0.30633329 0.38476661
v 0.09333796 0.23723329 0.36654661
v 0.09333796 0.37304329 0.36654661
v 0.18380796 0.30514329 0.38479661
v 0.09052796 0.37339329 0.36654661
v 0.09169796 0.37197329 0.36654661
v 0.09169796 0.23830329 0.36654661
v 0.09066796 0.23682329 0.36654661
v 0.01286796 -0.21732671 0.34985661
v 0.01285796 -0.36133671 0.34985661
v 0.07999796 -0.36133671 0.34985661
v 0.07999796 -0.21732671 0.34985661
v 0.01286796 -0.06737671 0.34985661
v 0.29055796 -0.36133671 0.34985661
v 0.07999796 -0.06737671 0.34985661
v 0.01286796 0.08257329 0.34985661
v 0.07999796 0.08257329 0.34985661
v 0.29055796 -0.21732671 0.34985661
v 0.50111796 -0.36133671 0.34985661
v 0.29055796 -0.06737671 0.34985661
v 0.29055796 0.08257329 0.34985661
v 0.50111796 -0.21732671 0.34985661
v 0.56824796 -0.36133671 0.34985661
v 0.56824796 -0.21732671 0.34985661
v 0.50111796 -0.06737671 0.34985661
v 0.50111796 0.08257329 0.34985661
v 0.56824796 -0.06737671 0.34985661
v 0.56824796 0.08257329 0.34985661
v 0.57129796 0.37653329 0.36555661
v 0.57129796 0.37653329 0.35084661
v 0.57129796 0.23252329 0.35084661
v 0.57129796 0.23252329 0.36555661
v 0.57129796 0.08257329 0.35084661
v 0.57129796 0.08257329 0.36555661
v 0.56824796 0.37653329 0.36654661
v 0.57129796 0.37653329 0.36555661
v 0.57129796 0.23252329 0.36555661
v 0.56824796 0.23252329 0.36654661
v 0.57129796 0.08257329 0.36555661
v 0.56824796 0.08257329 0.36654661
v 0.57129796 0.37653329 0.35084661
v 0.56824796 0.37653329 0.34985661
v 0.56824796 0.23252329 0.34985661
v 0.57129796 0.23252329 0.35084661
v 0.56824796 0.08257329 0.34985661
v 0.57129796 0.08257329 0.35084661
v 0.50111796 0.37653329 0.34985661
v 0.56824796 0.23252329 0.34985661
v 0.56824796 0.37653329 0.34985661
v 0.50111796 0.23252329 0.34985661
v 0.56824796 0.08257329 0.34985661
v 0.29055796 0.37653329 0.34985661
v 0.50111796 0.08257329 0.34985661
v 0.29055796 0.23252329 0.34985661
v 0.07999796 0.37653329 0.34985661
v 0.29055796 0.08257329 0.34985661
v 0.07999796 0.23252329 0.34985661
v 0.01285796 0.37653329 0.34985661
v 0.07999796 0.08257329 0.34985661
v 0.01286796 0.23252329 0.34985661
v 0.01286796 0.08257329 0.34985661
v 0.49057796 -0.35819671 0.36654661
v 0.29055796 -0.36133671 0.36654661
v 0.49043796 -0.22162671 0.36654661
v 0.48777796 -0.35784671 0.36654661
v 0.48941796 -0.35677671 0.36654661
v 0.49043796 -0.21302671 0.36654661
v 0.48777796 -0.22203671 0.36654661
v 0.27988796 -0.22162671 0.36654661
v 0.48778796 -0.21261671 0.36654661
v 0.30388796 -0.22203671 0.36654661
v 0.48941796 -0.22310671 0.36654661
v 0.39730796 -0.28994671 0.38479661
v 0.39583796 -0.29113671 0.38476661
v 0.39583796 -0.28875671 0.38475661
v 0.30388796 -0.35784671 0.36654661
v 0.39435796 -0.28994671 0.38479661
v 0.30225796 -0.22310671 0.36654661
v 0.30225796 -0.35677671 0.36654661
v 0.30122796 -0.22162671 0.36654661
v 0.30108796 -0.35819671 0.36654661
v 0.28002796 -0.35819671 0.36654661
v 0.27721796 -0.35784671 0.36654661
v 0.27885796 -0.35677671 0.36654661
v 0.09333796 -0.35784671 0.36654661
v 0.18527796 -0.29113671 0.38476661
v 0.09169796 -0.35677671 0.36654661
v 0.18380796 -0.28994671 0.38479661
v 0.09066796 -0.22162671 0.36654661
v 0.09169796 -0.22310671 0.36654661
v 0.18527796 -0.28875671 0.38476661
v 0.09333796 -0.22203671 0.36654661
v 0.27721796 -0.22203671 0.36654661
v 0.18674796 -0.28994671 0.38479661
v 0.27885796 -0.22310671 0.36654661
v 0.30122796 -0.21302671 0.36654661
v 0.30387796 -0.21261671 0.36654661
v 0.30122796 -0.07167671 0.36654661
v 0.30225796 -0.21151671 0.36654661
v 0.39583796 -0.14357671 0.38476661
v 0.39437796 -0.14234671 0.38479661
v 0.30225796 -0.07318671 0.36654661
v 0.30387796 -0.07208671 0.36654661
v 0.39583796 -0.14112671 0.38476661
v 0.48778796 -0.07208671 0.36654661
v 0.48941796 -0.21151671 0.36654661
v 0.39729796 -0.14234671 0.38479661
v 0.48941796 -0.07318671 0.36654661
v 0.54058796 0.04975329 0.37452661
v 0.53729796 0.05605329 0.37208661
v 0.54058796 0.05538329 0.37195661
v 0.53729796 0.05033329 0.37469661
v 0.54058796 0.04263329 0.37666661
v 0.53198796 0.05631329 0.37212661
v 0.53729796 0.04309329 0.37686661
v 0.54058796 0.03433329 0.37825661
v 0.53198796 0.05055329 0.37476661
v 0.52667796 0.05605329 0.37208661
v 0.53729796 0.03465329 0.37848661
v 0.54058796 0.02522329 0.37923661
v 0.53198796 0.04326329 0.37694661
v 0.52667796 0.05033329 0.37469661
v 0.52338796 0.05538329 0.37195661
v 0.52338796 0.04975329 0.37452661
v 0.52667796 0.04309329 0.37686661
v 0.52338796 0.04263329 0.37666661
v 0.53729796 0.02539329 0.37948661
v 0.54058796 0.01570329 0.37956661
v 0.53198796 0.03477329 0.37857661
v 0.52667796 0.03465329 0.37848661
v 0.52338796 0.03433329 0.37825661
v 0.53198796 0.02545329 0.37958661
v 0.52667796 0.02539329 0.37948661
v 0.52338796 0.02522329 0.37923661
v 0.53729796 0.01570329 0.37982661
v 0.54058796 0.00617329 0.37923661
v 0.53198796 0.01570329 0.37992661
v 0.52667796 0.01570329 0.37982661
v 0.52338796 0.01570329 0.37956661
v 0.53729796 0.00601329 0.37948661
v 0.54058796 -0.00293671 0.37824661
v 0.53198796 0.00595329 0.37958661
v 0.52667796 0.00601329 0.37948661
v 0.52338796 0.00617329 0.37923661
v 0.53729796 -0.00324671 0.37848661
v 0.54058796 -0.01122671 0.37666661
v 0.53198796 -0.00337671 0.37857661
v 0.52667796 -0.00324671 0.37848661
v 0.52338796 -0.00293671 0.37825661
v 0.53729796 -0.01168671 0.37686661
v 0.54058796 -0.01834671 0.37452661
v 0.53198796 -0.01186671 0.37694661
v 0.52667796 -0.01168671 0.37686661
v 0.52338796 -0.01122671 0.37666661
v 0.53729796 -0.01892671 0.37469661
v 0.54058796 -0.02397671 0.37195661
v 0.53729796 -0.02465671 0.37208661
v 0.53198796 -0.01914671 0.37476661
v 0.53198796 -0.02490671 0.37213661
v 0.52667796 -0.01892671 0.37469661
v 0.52338796 -0.01834671 0.37452661
v 0.52667796 -0.02465671 0.37208661
v 0.52338796 -0.02397671 0.37195661
v 0.52667796 0.05605329 0.37208661
v 0.52338796 0.05538329 0.37195661
v 0.52338796 0.05927329 0.36904661
v 0.52667796 0.06001329 0.36912661
v 0.52338796 0.06126329 0.36592661
v 0.53198796 0.05631329 0.37212661
v 0.52667796 0.06204329 0.36595661
v 0.53198796 0.06030329 0.36915661
v 0.53729796 0.05605329 0.37208661
v 0.53198796 0.06233329 0.36596661
v 0.53729796 0.06001329 0.36912661
v 0.54058796 0.05538329 0.37195661
v 0.53729796 0.06204329 0.36595661
v 0.54058796 0.05927329 0.36904661
v 0.54058796 0.06126329 0.36592661
v 0.52667796 -0.03063671 0.36595661
v 0.52338796 -0.02986671 0.36592661
v 0.52338796 -0.02787671 0.36904661
v 0.52667796 -0.02861671 0.36912661
v 0.52338796 -0.02397671 0.37195661
v 0.53198796 -0.03093671 0.36596661
v 0.52667796 -0.02465671 0.37208661
v 0.53198796 -0.02889671 0.36915661
v 0.53729796 -0.03063671 0.36595661
v 0.53198796 -0.02490671 0.37213661
v 0.53729796 -0.02861671 0.36912661
v 0.54058796 -0.02986671 0.36592661
v 0.53729796 -0.02465671 0.37208661
v 0.54058796 -0.02787671 0.36904661
v 0.54058796 -0.02397671 0.37195661
v 0.53824796 0.04837329 0.37322661
v 0.53797796 0.05360329 0.37086661
v 0.53562796 0.05414329 0.37092661
v 0.53580796 0.04887329 0.37332661
v 0.53845796 0.04164329 0.37521661
v 0.53198796 0.05434329 0.37094661
v 0.53594796 0.04205329 0.37536661
v 0.53859796 0.03369329 0.37673661
v 0.53198796 0.04906329 0.37336661
v 0.52833796 0.05414329 0.37092661
v 0.53604796 0.03398329 0.37690661
v 0.53867796 0.02491329 0.37767661
v 0.53198796 0.04220329 0.37541661
v 0.52815796 0.04887329 0.37332661
v 0.52599796 0.05360329 0.37086661
v 0.52572796 0.04837329 0.37322661
v 0.52801796 0.04205329 0.37536661
v 0.52551796 0.04164329 0.37521661
v 0.53609796 0.02506329 0.37787661
v 0.53870796 0.01570329 0.37799661
v 0.53198796 0.03409329 0.37697661
v 0.52792796 0.03398329 0.37690661
v 0.52537796 0.03369329 0.37673661
v 0.53198796 0.02512329 0.37794661
v 0.52786796 0.02506329 0.37787661
v 0.52529796 0.02491329 0.37767661
v 0.53611796 0.01570329 0.37819661
v 0.53867796 0.00649329 0.37767661
v 0.53198796 0.01570329 0.37827661
v 0.52785796 0.01570329 0.37819661
v 0.52526796 0.01570329 0.37799661
v 0.53609796 0.00634329 0.37787661
v 0.53859796 -0.00229671 0.37673661
v 0.53198796 0.00628329 0.37794661
v 0.52786796 0.00634329 0.37787661
v 0.52529796 0.00649329 0.37767661
v 0.53604796 -0.00258671 0.37690661
v 0.53845796 -0.01023671 0.37521661
v 0.53198796 -0.00269671 0.37697661
v 0.52792796 -0.00258671 0.37690661
v 0.52537796 -0.00229671 0.37673661
v 0.53594796 -0.01064671 0.37536661
v 0.53824796 -0.01697671 0.37322661
v 0.53198796 -0.01080671 0.37542661
v 0.52801796 -0.01064671 0.37536661
v 0.52551796 -0.01023671 0.37521661
v 0.53580796 -0.01746671 0.37332661
v 0.53797796 -0.02219671 0.37086661
v 0.53562796 -0.02273671 0.37092661
v 0.53198796 -0.01765671 0.37336661
v 0.53198796 -0.02294671 0.37094661
v 0.52815796 -0.01746671 0.37332661
v 0.52572796 -0.01697671 0.37322661
v 0.52833796 -0.02273671 0.37092661
v 0.52599796 -0.02219671 0.37086661
v 0.52833796 0.05414329 0.37092661
v 0.52627796 0.05711329 0.36830661
v 0.52599796 0.05360329 0.37086661
v 0.52853796 0.05765329 0.36832661
v 0.52634796 0.05898329 0.36541661
v 0.53198796 0.05434329 0.37094661
v 0.52860796 0.05953329 0.36538661
v 0.53198796 0.05785329 0.36833661
v 0.53562796 0.05414329 0.37092661
v 0.53198796 0.05973329 0.36537661
v 0.53543796 0.05765329 0.36832661
v 0.53797796 0.05360329 0.37086661
v 0.53536796 0.05953329 0.36538661
v 0.53769796 0.05711329 0.36830661
v 0.53762796 0.05898329 0.36541661
v 0.52860796 -0.02813671 0.36538661
v 0.52627796 -0.02570671 0.36830661
v 0.52634796 -0.02757671 0.36541661
v 0.52853796 -0.02624671 0.36832661
v 0.52599796 -0.02219671 0.37086661
v 0.53198796 -0.02833671 0.36537661
v 0.52833796 -0.02273671 0.37092661
v 0.53198796 -0.02644671 0.36833661
v 0.53536796 -0.02813671 0.36538661
v 0.53198796 -0.02294671 0.37094661
v 0.53543796 -0.02624671 0.36832661
v 0.53762796 -0.02757671 0.36541661
v 0.53562796 -0.02273671 0.37092661
v 0.53769796 -0.02570671 0.36830661
v 0.53797796 -0.02219671 0.37086661
v 0.52338796 0.06126329 0.36592661
v 0.52634796 0.05898329 0.36541661
v 0.52860796 0.05953329 0.36538661
v 0.52667796 0.06204329 0.36595661
v 0.53198796 0.05973329 0.36537661
v 0.53198796 0.06233329 0.36596661
v 0.53536796 0.05953329 0.36538661
v 0.53729796 0.06204329 0.36595661
v 0.53762796 0.05898329 0.36541661
v 0.54058796 0.06126329 0.36592661
v 0.52338796 -0.02986671 0.36592661
v 0.52634796 -0.02757671 0.36541661
v 0.52627796 -0.02570671 0.36830661
v 0.52338796 -0.02787671 0.36904661
v 0.52599796 -0.02219671 0.37086661
v 0.52338796 -0.02397671 0.37195661
v 0.52572796 -0.01697671 0.37322661
v 0.52338796 -0.01834671 0.37452661
v 0.52551796 -0.01023671 0.37521661
v 0.52338796 -0.01122671 0.37666661
v 0.52537796 -0.00229671 0.37673661
v 0.52338796 -0.00293671 0.37825661
v 0.52529796 0.00649329 0.37767661
v 0.52338796 0.00617329 0.37923661
v 0.52526796 0.01570329 0.37799661
v 0.52338796 0.01570329 0.37956661
v 0.52529796 0.02491329 0.37767661
v 0.52338796 0.02522329 0.37923661
v 0.52537796 0.03369329 0.37673661
v 0.52338796 0.03433329 0.37825661
v 0.52551796 0.04164329 0.37521661
v 0.52338796 0.04263329 0.37666661
v 0.52572796 0.04837329 0.37322661
v 0.52338796 0.04975329 0.37452661
v 0.52599796 0.05360329 0.37086661
v 0.52338796 0.05538329 0.37195661
v 0.52627796 0.05711329 0.36830661
v 0.52338796 0.05927329 0.36904661
v 0.52634796 0.05898329 0.36541661
v 0.52338796 0.06126329 0.36592661
v 0.54058796 -0.02787671 0.36904661
v 0.53762796 -0.02757671 0.36541661
v 0.54058796 -0.02986671 0.36592661
v 0.53769796 -0.02570671 0.36830661
v 0.54058796 -0.02397671 0.37195661
v 0.53797796 -0.02219671 0.37086661
v 0.54058796 -0.01834671 0.37452661
v 0.53824796 -0.01697671 0.37322661
v 0.54058796 -0.01122671 0.37666661
v 0.53845796 -0.01023671 0.37521661
v 0.54058796 -0.00293671 0.37824661
v 0.53859796 -0.00229671 0.37673661
v 0.54058796 0.00617329 0.37923661
v 0.53867796 0.00649329 0.37767661
v 0.54058796 0.01570329 0.37956661
v 0.53870796 0.01570329 0.37799661
v 0.54058796 0.02522329 0.37923661
v 0.53867796 0.02491329 0.37767661
v 0.54058796 0.03433329 0.37825661
v 0.53859796 0.03369329 0.37673661
v 0.54058796 0.04263329 0.37666661
v 0.53845796 0.04164329 0.37521661
v 0.54058796 0.04975329 0.37452661
v 0.53824796 0.04837329 0.37322661
v 0.54058796 0.05538329 0.37195661
v 0.53797796 0.05360329 0.37086661
v 0.54058796 0.05927329 0.36904661
v 0.53769796 0.05711329 0.36830661
v 0.54058796 0.06126329 0.36592661
v 0.53762796 0.05898329 0.36541661
v 0.52667796 -0.03063671 0.36595661
v 0.52634796 -0.02757671 0.36541661
v 0.52338796 -0.02986671 0.36592661
v 0.52860796 -0.02813671 0.36538661
v 0.53198796 -0.03093671 0.36596661
v 0.53198796 -0.02833671 0.36537661
v 0.53729796 -0.03063671 0.36595661
v 0.53536796 -0.02813671 0.36538661
v 0.54058796 -0.02986671 0.36592661
v 0.53762796 -0.02757671 0.36541661
vt 0.34503650 0.02415073
vt 0.36451780 0.02415073
vt 0.36451780 0.17693170
vt 0.34503650 0.17693170
vt 0.34503650 0.17693170
vt 0.34373270 0.17693170
vt 0.34373270 0.02415073
vt 0.34503650 0.02415073
vt 0.34373270 0.86506590
vt 0.34503650 0.86506590
vt 0.36582160 0.17693170
vt 0.36451780 0.17693170
vt 0.36451780 0.02415073
vt 0.36582160 0.02415073
vt 0.36451780 0.86506590
vt 0.36582160 0.86506590
vt 0.34503650 0.56772280
vt 0.34373270 0.56772280
vt 0.34503650 0.56641900
vt 0.34503650 0.59641900
vt 0.34373270 0.59641900
vt 0.34503650 0.68641900
vt 0.34373270 0.68641900
vt 0.34503650 0.77641900
vt 0.34373270 0.77641900
vt 0.34503650 0.80511520
vt 0.34373270 0.80511520
vt 0.34503650 0.80641900
vt 0.36451780 0.56772280
vt 0.36451780 0.56641900
vt 0.36582160 0.56772280
vt 0.36582160 0.59641900
vt 0.36451780 0.59641900
vt 0.36582160 0.68641900
vt 0.36451780 0.68641900
vt 0.36582160 0.77641900
vt 0.36451780 0.77641900
vt 0.36582160 0.80511520
vt 0.36451780 0.80511520
vt 0.36451780 0.80641900
vt 0.34503650 0.56772280
vt 0.34503650 0.56641900
vt 0.36451780 0.56641900
vt 0.36451780 0.56772280
vt 0.36451780 0.59641900
vt 0.34503650 0.59641900
vt 0.36451780 0.68641900
vt 0.34503650 0.68641900
vt 0.36451780 0.77641900
vt 0.34503650 0.77641900
vt 0.36451780 0.80511520
vt 0.34503650 0.80511520
vt 0.34503650 0.80641900
vt 0.36451780 0.80641900
vt 0.34503650 0.86506590
vt 0.36451780 0.02415100
vt 0.34503650 0.02415100
vt 0.36451780 0.86506590
vt 0.34503650 0.70598110
vt 0.36451780 0.70598110
vt 0.34503650 0.54689640
vt 0.36451780 0.54689640
vt 0.34503650 0.39411540
vt 0.36451780 0.39411540
vt 0.34503650 0.86506590
vt 0.34373270 0.86506590
vt 0.34373270 0.70598110
vt 0.34503650 0.70598110
vt 0.34373270 0.54689640
vt 0.34503650 0.54689640
vt 0.34373270 0.39411540
vt 0.34503650 0.39411540
vt 0.36582160 0.86506590
vt 0.36451780 0.86506590
vt 0.36451780 0.70598110
vt 0.36582160 0.70598110
vt 0.36451780 0.54689640
vt 0.36582160 0.54689640
vt 0.36451780 0.39411540
vt 0.36582160 0.39411540
vt 0.34503650 0.86506590
vt 0.36451780 0.86506590
vt 0.36451780 0.70598110
vt 0.34503650 0.70598110
vt 0.36451780 0.54689640
vt 0.34503650 0.54689640
vt 0.36451780 0.39411540
vt 0.34503650 0.39411540
vt 0.34373270 0.54689640
vt 0.34503650 0.39411540
vt 0.34373270 0.39411540
vt 0.34503650 0.54689640
vt 0.34373270 0.70598110
vt 0.34503650 0.70598110
vt 0.34373270 0.86506590
vt 0.34503650 0.86506590
vt 0.36451780 0.54689640
vt 0.36582160 0.39411540
vt 0.36451780 0.39411540
vt 0.36582160 0.54689640
vt 0.36451780 0.70598110
vt 0.36582160 0.70598110
vt 0.36451780 0.86506590
vt 0.36582160 0.86506590
vt 0.73141900 0.94590400
vt 0.77072380 0.01915100
vt 0.69211420 0.01915100
vt 0.73079520 0.94460830
vt 0.69141900 0.01798800
vt 0.73204280 0.94460830
vt 0.69141900 0.87122850
vt 0.73141900 0.94331270
vt 0.69211420 0.87006590
vt 0.69098100 0.86962800
vt 0.77072380 0.87006590
vt 0.77641900 0.86506590
vt 0.68641900 0.86506590
vt 0.77141900 0.87122850
vt 0.77141900 0.01798800
vt 0.77185700 0.01958900
vt 0.77185700 0.86962800
vt 0.77641900 0.02415100
vt 0.80511520 0.02415100
vt 0.80511520 0.86506590
vt 0.77641900 0.70598110
vt 0.80511520 0.70598110
vt 0.77641900 0.54689630
vt 0.80511520 0.54689640
vt 0.77641900 0.39411540
vt 0.80511520 0.39411540
vt 0.77185700 0.55145840
vt 0.77185700 0.71054320
vt 0.77185700 0.70141920
vt 0.77072380 0.71098110
vt 0.77072380 0.55189630
vt 0.77191710 0.39744340
vt 0.69211420 0.55189630
vt 0.77141900 0.55305890
vt 0.77141900 0.69981860
vt 0.73204280 0.62643870
vt 0.77072380 0.70098110
vt 0.73141900 0.62773440
vt 0.73141900 0.62514320
vt 0.69211420 0.70098110
vt 0.73079520 0.62643870
vt 0.69141900 0.55305890
vt 0.69141900 0.69981860
vt 0.69098100 0.55145840
vt 0.68641900 0.54689630
vt 0.69098100 0.70141920
vt 0.68641900 0.70598110
vt 0.69098100 0.71054320
vt 0.69211420 0.71098110
vt 0.69141900 0.71214370
vt 0.73141900 0.78422800
vt 0.69141900 0.85890340
vt 0.73079520 0.78552350
vt 0.73204280 0.78552350
vt 0.69098100 0.86050390
vt 0.69211420 0.86006590
vt 0.77141900 0.71214370
vt 0.73141900 0.78681920
vt 0.77185700 0.86050390
vt 0.77141900 0.85890340
vt 0.77072380 0.86006590
vt 0.68188700 0.71051320
vt 0.68075370 0.71095120
vt 0.60208430 0.71095120
vt 0.60095110 0.71051320
vt 0.59641900 0.70598110
vt 0.68188700 0.86053390
vt 0.68075370 0.86009590
vt 0.60208430 0.86009590
vt 0.68144890 0.71211370
vt 0.68144890 0.85893340
vt 0.64204300 0.78552350
vt 0.64141900 0.78681880
vt 0.64141900 0.78422830
vt 0.64079500 0.78552350
vt 0.60138910 0.71211370
vt 0.60138910 0.85893340
vt 0.60095110 0.86053390
vt 0.59641900 0.86506590
vt 0.60098100 0.86962800
vt 0.60211420 0.87006590
vt 0.60141900 0.87122850
vt 0.56772280 0.70598110
vt 0.56772280 0.86506590
vt 0.59641900 0.02415100
vt 0.56772280 0.02415100
vt 0.56772280 0.54689640
vt 0.59641900 0.54689630
vt 0.56772280 0.39411540
vt 0.59641900 0.39411540
vt 0.60098100 0.70141920
vt 0.68072380 0.87006590
vt 0.68185700 0.86962800
vt 0.68641900 0.02415100
vt 0.68185700 0.01958900
vt 0.68141900 0.87122850
vt 0.68141900 0.01798800
vt 0.64204280 0.94460830
vt 0.64141900 0.94331270
vt 0.64079520 0.94460830
vt 0.60141900 0.01798800
vt 0.64141900 0.94590400
vt 0.60211420 0.01915100
vt 0.68072380 0.01915100
vt 0.34503650 0.80511520
vt 0.34373270 0.80511520
vt 0.34503650 0.80641900
vt 0.34503650 0.77641900
vt 0.34373270 0.77641900
vt 0.34503650 0.68641900
vt 0.34373270 0.68641900
vt 0.34503650 0.59641900
vt 0.34373270 0.59641900
vt 0.34503650 0.56772280
vt 0.34373270 0.56772280
vt 0.34503650 0.56641900
vt 0.36451780 0.80511520
vt 0.36451780 0.80641900
vt 0.36582160 0.80511520
vt 0.36582160 0.77641900
vt 0.36451780 0.77641900
vt 0.36582160 0.68641900
vt 0.36451780 0.68641900
vt 0.36582160 0.59641900
vt 0.36451780 0.59641900
vt 0.36582160 0.56772280
vt 0.36451780 0.56772280
vt 0.36451780 0.56641900
vt 0.36451780 0.80641900
vt 0.34503650 0.80511520
vt 0.34503650 0.80641900
vt 0.36451780 0.80511520
vt 0.36451780 0.77641900
vt 0.34503650 0.77641900
vt 0.36451780 0.68641900
vt 0.34503650 0.68641900
vt 0.36451780 0.59641900
vt 0.34503650 0.59641900
vt 0.36451780 0.56772280
vt 0.34503650 0.56772280
vt 0.34503650 0.56641900
vt 0.36451780 0.56641900
vt 0.60098100 0.86962800
vt 0.60141900 0.87122850
vt 0.60141900 0.01798820
vt 0.60098100 0.01958871
vt 0.59641900 0.86506590
vt 0.60211420 0.01915073
vt 0.59641900 0.02415073
vt 0.68641900 0.02415073
vt 0.68072380 0.01915073
vt 0.68185700 0.01958871
vt 0.68141900 0.01798820
vt 0.64141900 0.94590396
vt 0.64204280 0.94460833
vt 0.60098100 0.02871275
vt 0.60211870 0.02915072
vt 0.68071930 0.02915072
vt 0.68185700 0.02871275
vt 0.60092090 0.17360380
vt 0.59641900 0.17693170
vt 0.56772280 0.02415073
vt 0.56772280 0.17693170
vt 0.68641900 0.17693170
vt 0.60141900 0.03028548
vt 0.60141900 0.17210080
vt 0.64141900 0.09993291
vt 0.60211870 0.17323550
vt 0.64078890 0.10119320
vt 0.64204910 0.10119320
vt 0.68141900 0.03028548
vt 0.64141900 0.10245350
vt 0.68191710 0.17360380
vt 0.68141900 0.17210080
vt 0.68071930 0.17323550
vt 0.69092090 0.17360380
vt 0.77641900 0.17693170
vt 0.69098100 0.02871275
vt 0.69211880 0.17323550
vt 0.69141900 0.17210080
vt 0.77641900 0.02415073
vt 0.80511520 0.17693170
vt 0.80511520 0.02415073
vt 0.69098100 0.01958871
vt 0.69211880 0.02915072
vt 0.68641900 0.86506590
vt 0.69098100 0.86962800
vt 0.69141900 0.01798820
vt 0.69141900 0.87122850
vt 0.69211420 0.01915073
vt 0.77072380 0.01915073
vt 0.69141900 0.03028548
vt 0.77185700 0.01958871
vt 0.77141900 0.01798820
vt 0.73141900 0.94590396
vt 0.73204280 0.94460833
vt 0.73078890 0.10119320
vt 0.73141900 0.09993291
vt 0.73141900 0.10245350
vt 0.77071930 0.02915072
vt 0.77071930 0.17323550
vt 0.73204910 0.10119320
vt 0.77191710 0.17360380
vt 0.77141900 0.17210080
vt 0.77141900 0.03028548
vt 0.77185700 0.02871275
vt 0.80511520 0.54689640
vt 0.80511520 0.39411540
vt 0.77641900 0.39411540
vt 0.77641900 0.54689630
vt 0.80511520 0.70598110
vt 0.68641900 0.39411540
vt 0.77641900 0.70598120
vt 0.80511520 0.86506590
vt 0.77641900 0.86506590
vt 0.68641900 0.54689630
vt 0.59641900 0.39411540
vt 0.68641900 0.70598120
vt 0.68641900 0.86506590
vt 0.59641900 0.54689630
vt 0.56772280 0.39411540
vt 0.56772280 0.54689640
vt 0.59641900 0.70598120
vt 0.59641900 0.86506590
vt 0.56772280 0.70598110
vt 0.56772280 0.86506590
vt 0.34503650 0.17693170
vt 0.36451780 0.17693170
vt 0.36451780 0.02415073
vt 0.34503650 0.02415073
vt 0.36451780 0.86506590
vt 0.34503650 0.86506590
vt 0.34373270 0.17693170
vt 0.34503650 0.17693170
vt 0.34503650 0.02415073
vt 0.34373270 0.02415073
vt 0.34503650 0.86506590
vt 0.34373270 0.86506590
vt 0.36451780 0.17693170
vt 0.36582160 0.17693170
vt 0.36582160 0.02415073
vt 0.36451780 0.02415073
vt 0.36582160 0.86506590
vt 0.36451780 0.86506590
vt 0.59641900 0.17693170
vt 0.56772280 0.02415073
vt 0.56772280 0.17693170
vt 0.59641900 0.02415073
vt 0.56772280 0.86506590
vt 0.68641900 0.17693170
vt 0.59641900 0.86506590
vt 0.68641900 0.02415073
vt 0.77641900 0.17693170
vt 0.68641900 0.86506590
vt 0.77641900 0.02415073
vt 0.80511520 0.17693170
vt 0.77641900 0.86506590
vt 0.80511520 0.02415073
vt 0.80511520 0.86506590
vt 0.60092090 0.39744340
vt 0.68641900 0.39411540
vt 0.60098100 0.54233440
vt 0.60211870 0.39781160
vt 0.60141900 0.39894630
vt 0.60098100 0.55145840
vt 0.60211870 0.54189630
vt 0.69098100 0.54233440
vt 0.60211420 0.55189630
vt 0.68071930 0.54189630
vt 0.60141900 0.54076160
vt 0.64078890 0.46985400
vt 0.64141900 0.46859370
vt 0.64141900 0.47111430
vt 0.68071930 0.39781160
vt 0.64204910 0.46985400
vt 0.68141900 0.54076160
vt 0.68141900 0.39894630
vt 0.68185700 0.54233440
vt 0.68191710 0.39744340
vt 0.69092090 0.39744340
vt 0.69211880 0.39781160
vt 0.69141900 0.39894630
vt 0.77071930 0.39781160
vt 0.73141900 0.46859370
vt 0.77141900 0.39894630
vt 0.73204910 0.46985400
vt 0.77185700 0.54233440
vt 0.77141900 0.54076160
vt 0.73141900 0.47111430
vt 0.77071930 0.54189630
vt 0.69211880 0.54189630
vt 0.73078890 0.46985400
vt 0.69141900 0.54076160
vt 0.68185700 0.55145840
vt 0.68072380 0.55189630
vt 0.68185700 0.70141920
vt 0.68141900 0.55305890
vt 0.64141900 0.62514320
vt 0.64204280 0.62643870
vt 0.68141900 0.69981860
vt 0.68072380 0.70098110
vt 0.64141900 0.62773440
vt 0.60211420 0.70098110
vt 0.60141900 0.55305890
vt 0.64079520 0.62643870
vt 0.60141900 0.69981860
vt 0.64919400 0.00126171
vt 0.65395040 0.00296485
vt 0.65344120 0.00126171
vt 0.64963100 0.00296485
vt 0.64382420 0.00126171
vt 0.65414490 0.00572062
vt 0.64416990 0.00296485
vt 0.63756660 0.00126171
vt 0.64979790 0.00572062
vt 0.65395040 0.00847650
vt 0.63780580 0.00296485
vt 0.63069460 0.00126171
vt 0.64430190 0.00572062
vt 0.64963100 0.00847650
vt 0.65344120 0.01017952
vt 0.64919400 0.01017952
vt 0.64416990 0.00847650
vt 0.64382420 0.01017952
vt 0.63081680 0.00296485
vt 0.62350850 0.00126171
vt 0.63789710 0.00572062
vt 0.63780580 0.00847650
vt 0.63756660 0.01017952
vt 0.63086350 0.00572062
vt 0.63081680 0.00847650
vt 0.63069460 0.01017952
vt 0.62350850 0.00296485
vt 0.61632230 0.00126171
vt 0.62350850 0.00572062
vt 0.62350850 0.00847650
vt 0.62350850 0.01017952
vt 0.61620010 0.00296497
vt 0.60945030 0.00126171
vt 0.61615340 0.00572062
vt 0.61620010 0.00847650
vt 0.61632230 0.01017952
vt 0.60921110 0.00296497
vt 0.60319270 0.00126171
vt 0.60911980 0.00572062
vt 0.60921110 0.00847650
vt 0.60945030 0.01017952
vt 0.60284700 0.00296497
vt 0.59782290 0.00126171
vt 0.60271500 0.00572062
vt 0.60284700 0.00847650
vt 0.60319270 0.01017952
vt 0.59738590 0.00296497
vt 0.59357580 0.00126171
vt 0.59306650 0.00296497
vt 0.59721900 0.00572062
vt 0.59287200 0.00572062
vt 0.59738590 0.00847650
vt 0.59782290 0.01017964
vt 0.59306650 0.00847650
vt 0.59357580 0.01017964
vt 0.16627810 0.00847650
vt 0.16644220 0.01017952
vt 0.17012770 0.01017952
vt 0.17002630 0.00847650
vt 0.17407390 0.01017952
vt 0.16621530 0.00572062
vt 0.17403960 0.00847650
vt 0.16998740 0.00572062
vt 0.16627810 0.00296485
vt 0.17402660 0.00572062
vt 0.17002630 0.00296485
vt 0.16644220 0.00126171
vt 0.17403960 0.00296485
vt 0.17012770 0.00126171
vt 0.17407390 0.00126171
vt 0.17403960 0.00847650
vt 0.17407390 0.01017964
vt 0.17012770 0.01017964
vt 0.17002630 0.00847650
vt 0.16644220 0.01017964
vt 0.17402660 0.00572062
vt 0.16627810 0.00847650
vt 0.16998740 0.00572062
vt 0.17403960 0.00296497
vt 0.16621530 0.00572062
vt 0.17002630 0.00296497
vt 0.17407390 0.00126171
vt 0.16627810 0.00296497
vt 0.17012770 0.00126171
vt 0.16644220 0.00126171
vt 0.64815940 0.00247347
vt 0.65209940 0.00261223
vt 0.65250690 0.00383008
vt 0.64853290 0.00373638
vt 0.64307800 0.00236559
vt 0.65266110 0.00572062
vt 0.64338540 0.00366402
vt 0.63708440 0.00229192
vt 0.64867600 0.00572062
vt 0.65250690 0.00761116
vt 0.63730200 0.00361466
vt 0.63045810 0.00224948
vt 0.64350370 0.00572062
vt 0.64853290 0.00770485
vt 0.65209940 0.00882900
vt 0.64815940 0.00896788
vt 0.64338540 0.00777733
vt 0.64307800 0.00907564
vt 0.63057070 0.00358629
vt 0.62350850 0.00223565
vt 0.63738570 0.00572062
vt 0.63730200 0.00782669
vt 0.63708440 0.00914931
vt 0.63061400 0.00572062
vt 0.63057070 0.00785518
vt 0.63045810 0.00919175
vt 0.62350850 0.00357699
vt 0.61655880 0.00224948
vt 0.62350850 0.00572062
vt 0.62350850 0.00786436
vt 0.62350850 0.00920558
vt 0.61644630 0.00358629
vt 0.60993250 0.00229192
vt 0.61640300 0.00572062
vt 0.61644630 0.00785518
vt 0.61655880 0.00919175
vt 0.60971490 0.00361466
vt 0.60393890 0.00236571
vt 0.60963120 0.00572062
vt 0.60971490 0.00782669
vt 0.60993250 0.00914943
vt 0.60363150 0.00366402
vt 0.59885750 0.00247347
vt 0.60351320 0.00572062
vt 0.60363150 0.00777733
vt 0.60393890 0.00907564
vt 0.59848400 0.00373638
vt 0.59491750 0.00261235
vt 0.59451000 0.00383019
vt 0.59834090 0.00572062
vt 0.59435580 0.00572062
vt 0.59848400 0.00770485
vt 0.59885750 0.00896788
vt 0.59451000 0.00761127
vt 0.59491750 0.00882912
vt 0.16773820 0.00761116
vt 0.17106280 0.00868070
vt 0.16781160 0.00882900
vt 0.17103680 0.00751090
vt 0.17473100 0.00864506
vt 0.16771530 0.00572062
vt 0.17475880 0.00747454
vt 0.17103290 0.00572062
vt 0.16773820 0.00383008
vt 0.17477330 0.00572062
vt 0.17103680 0.00393045
vt 0.16781160 0.00261223
vt 0.17475880 0.00396681
vt 0.17106280 0.00276053
vt 0.17473100 0.00279617
vt 0.17475880 0.00747454
vt 0.17106280 0.00868082
vt 0.17473100 0.00864506
vt 0.17103680 0.00751090
vt 0.16781160 0.00882912
vt 0.17477330 0.00572062
vt 0.16773820 0.00761127
vt 0.17103290 0.00572062
vt 0.17475880 0.00396681
vt 0.16771530 0.00572062
vt 0.17103680 0.00393045
vt 0.17473100 0.00279617
vt 0.16773820 0.00383019
vt 0.17106280 0.00276065
vt 0.16781160 0.00261235
vt 0.65788240 0.01017952
vt 0.65615660 0.00864506
vt 0.65657810 0.00747454
vt 0.65846720 0.00847650
vt 0.65672900 0.00572062
vt 0.65869060 0.00572062
vt 0.65657810 0.00396681
vt 0.65846720 0.00296485
vt 0.65615660 0.00279617
vt 0.65788240 0.00126171
vt 0.58913450 0.17407390
vt 0.59086030 0.17473100
vt 0.59226930 0.17106280
vt 0.59063680 0.17012770
vt 0.59491750 0.16781160
vt 0.59357580 0.16644220
vt 0.59885750 0.16482910
vt 0.59782290 0.16317830
vt 0.60393890 0.16230240
vt 0.60319270 0.16047880
vt 0.60993250 0.16038660
vt 0.60945030 0.15846160
vt 0.61655880 0.15919320
vt 0.61632230 0.15721500
vt 0.62350850 0.15878800
vt 0.62350850 0.15679320
vt 0.63045810 0.15919320
vt 0.63069460 0.15721500
vt 0.63708440 0.16038660
vt 0.63756660 0.15846160
vt 0.64307800 0.16230240
vt 0.64382420 0.16047880
vt 0.64815940 0.16482910
vt 0.64919400 0.16317830
vt 0.65209940 0.16781160
vt 0.65344120 0.16644220
vt 0.65474760 0.17106280
vt 0.65638010 0.17012770
vt 0.65615660 0.17473100
vt 0.65788240 0.17407390
vt 0.59063680 0.17012770
vt 0.59086040 0.17473100
vt 0.58913450 0.17407390
vt 0.59226930 0.17106280
vt 0.59357580 0.16644220
vt 0.59491750 0.16781160
vt 0.59782290 0.16317830
vt 0.59885750 0.16482910
vt 0.60319270 0.16047880
vt 0.60393890 0.16230240
vt 0.60945030 0.15846170
vt 0.60993250 0.16038660
vt 0.61632230 0.15721500
vt 0.61655880 0.15919320
vt 0.62350850 0.15679320
vt 0.62350850 0.15878800
vt 0.63069460 0.15721500
vt 0.63045810 0.15919320
vt 0.63756660 0.15846160
vt 0.63708440 0.16038660
vt 0.64382420 0.16047880
vt 0.64307800 0.16230240
vt 0.64919400 0.16317830
vt 0.64815940 0.16482910
vt 0.65344120 0.16644220
vt 0.65209940 0.16781160
vt 0.65638010 0.17012770
vt 0.65474760 0.17106280
vt 0.65788240 0.17407390
vt 0.65615660 0.17473100
vt 0.58854970 0.00847650
vt 0.59086030 0.00864506
vt 0.58913450 0.01017964
vt 0.59043880 0.00747454
vt 0.58832630 0.00572062
vt 0.59028800 0.00572062
vt 0.58854970 0.00296497
vt 0.59043880 0.00396681
vt 0.58913450 0.00126171
vt 0.59086040 0.00279617
f 3/3 2/2 1/1
f 4/4 3/3 1/1
f 7/7 6/6 5/5
f 8/8 7/7 5/5
f 9/9 7/7 8/8
f 10/10 9/9 8/8
f 13/13 12/12 11/11
f 14/14 13/13 11/11
f 15/15 13/13 14/14
f 16/16 15/15 14/14
f 19/19 18/18 17/17
f 17/17 18/18 20/20
f 18/18 21/21 20/20
f 20/20 21/21 22/22
f 21/21 23/23 22/22
f 22/22 23/23 24/24
f 23/23 25/25 24/24
f 24/24 25/25 26/26
f 25/25 27/27 26/26
f 26/26 27/27 28/28
f 31/31 30/30 29/29
f 31/31 29/29 32/32
f 29/29 33/33 32/32
f 32/32 33/33 34/34
f 33/33 35/35 34/34
f 34/34 35/35 36/36
f 35/35 37/37 36/36
f 36/36 37/37 38/38
f 37/37 39/39 38/38
f 38/38 39/39 40/40
f 43/43 42/42 41/41
f 44/44 43/43 41/41
f 45/45 44/44 41/41
f 46/46 45/45 41/41
f 47/47 45/45 46/46
f 48/48 47/47 46/46
f 49/49 47/47 48/48
f 50/50 49/49 48/48
f 51/51 49/49 50/50
f 52/52 51/51 50/50
f 51/51 52/52 53/53
f 54/54 51/51 53/53
f 57/57 56/56 55/55
f 56/56 58/58 55/55
f 55/55 58/58 59/59
f 58/58 60/60 59/59
f 59/59 60/60 61/61
f 60/60 62/62 61/61
f 61/61 62/62 63/63
f 62/62 64/64 63/63
f 67/67 66/66 65/65
f 68/68 67/67 65/65
f 69/69 67/67 68/68
f 70/70 69/69 68/68
f 71/71 69/69 70/70
f 72/72 71/71 70/70
f 75/75 74/74 73/73
f 76/76 75/75 73/73
f 77/77 75/75 76/76
f 78/78 77/77 76/76
f 79/79 77/77 78/78
f 80/80 79/79 78/78
f 83/83 82/82 81/81
f 84/84 83/83 81/81
f 85/85 83/83 84/84
f 86/86 85/85 84/84
f 87/87 85/85 86/86
f 88/88 87/87 86/86
f 91/91 90/90 89/89
f 90/90 92/92 89/89
f 89/89 92/92 93/93
f 92/92 94/94 93/93
f 93/93 94/94 95/95
f 94/94 96/96 95/95
f 99/99 98/98 97/97
f 98/98 100/100 97/97
f 97/97 100/100 101/101
f 100/100 102/102 101/101
f 101/101 102/102 103/103
f 102/102 104/104 103/103
f 107/107 106/106 105/105
f 107/107 105/105 108/108
f 109/109 107/107 108/108
f 108/108 105/105 110/110
f 111/111 109/109 108/108
f 108/108 112/112 111/111
f 112/112 108/108 110/110
f 112/112 113/113 111/111
f 113/113 114/114 111/111
f 115/115 112/112 110/110
f 115/115 113/113 112/112
f 114/114 113/113 116/116
f 113/113 115/115 116/116
f 116/116 117/117 114/114
f 118/118 115/115 110/110
f 119/119 118/118 110/110
f 118/118 119/119 120/120
f 118/118 121/121 115/115
f 120/120 121/121 118/118
f 115/115 121/121 116/116
f 120/120 122/122 121/121
f 122/122 116/116 121/121
f 122/122 123/123 116/116
f 123/123 124/124 116/116
f 116/116 124/124 125/125
f 124/124 126/126 125/125
f 125/125 126/126 127/127
f 126/126 128/128 127/127
f 127/127 128/128 129/129
f 128/128 130/130 129/129
f 125/125 127/127 131/131
f 116/116 125/125 132/132
f 133/133 125/125 131/131
f 134/134 132/132 125/125
f 135/135 131/131 127/127
f 127/127 129/129 136/136
f 137/137 135/135 127/127
f 133/133 131/131 138/138
f 138/138 131/131 135/135
f 138/138 139/139 133/133
f 138/138 135/135 140/140
f 139/139 138/138 140/140
f 141/141 133/133 139/139
f 125/125 133/133 141/141
f 142/142 141/141 139/139
f 140/140 142/142 139/139
f 135/135 143/143 140/140
f 135/135 137/137 143/143
f 144/144 141/141 142/142
f 125/125 141/141 144/144
f 142/142 140/140 145/145
f 140/140 143/143 145/145
f 144/144 142/142 145/145
f 143/143 137/137 146/146
f 145/145 143/143 146/146
f 147/147 144/144 145/145
f 146/146 147/147 145/145
f 137/137 148/148 146/146
f 147/147 146/146 148/148
f 148/148 137/137 127/127
f 127/127 149/149 148/148
f 147/147 150/150 144/144
f 150/150 147/147 148/148
f 125/125 144/144 150/150
f 150/150 148/148 149/149
f 150/150 151/151 125/125
f 149/149 151/151 150/150
f 125/125 151/151 152/152
f 152/152 153/153 125/125
f 153/153 134/134 125/125
f 153/153 152/152 154/154
f 134/134 153/153 155/155
f 155/155 153/153 154/154
f 156/156 154/154 152/152
f 157/157 155/155 154/154
f 154/154 156/156 157/157
f 134/134 155/155 158/158
f 155/155 157/157 158/158
f 159/159 156/156 152/152
f 159/159 152/152 151/151
f 156/156 160/160 157/157
f 156/156 159/159 160/160
f 161/161 134/134 158/158
f 161/161 132/132 134/134
f 157/157 162/162 158/158
f 160/160 162/162 157/157
f 163/163 132/132 161/161
f 163/163 116/116 132/132
f 116/116 160/160 159/159
f 164/164 161/161 158/158
f 158/158 162/162 164/164
f 161/161 164/164 163/163
f 160/160 165/165 162/162
f 162/162 165/165 164/164
f 165/165 163/163 164/164
f 116/116 165/165 160/160
f 116/116 163/163 165/165
f 159/159 117/117 116/116
f 151/151 117/117 159/159
f 117/117 151/151 166/166
f 167/167 166/166 151/151
f 168/168 167/167 151/151
f 169/169 168/168 151/151
f 151/151 170/170 169/169
f 171/171 117/117 166/166
f 117/117 171/171 172/172
f 117/117 172/172 173/173
f 171/171 166/166 174/174
f 174/174 166/166 167/167
f 172/172 171/171 175/175
f 174/174 175/175 171/171
f 174/174 167/167 176/176
f 175/175 174/174 176/176
f 177/177 172/172 175/175
f 173/173 172/172 177/177
f 176/176 177/177 175/175
f 167/167 168/168 178/178
f 167/167 178/178 176/176
f 179/179 177/177 176/176
f 178/178 179/179 176/176
f 173/173 177/177 179/179
f 178/178 168/168 180/180
f 179/179 178/178 180/180
f 168/168 169/169 180/180
f 180/180 181/181 179/179
f 181/181 173/173 179/179
f 181/181 180/180 169/169
f 181/181 182/182 173/173
f 182/182 181/181 169/169
f 117/117 173/173 182/182
f 182/182 169/169 170/170
f 182/182 183/183 117/117
f 170/170 183/183 182/182
f 117/117 183/183 184/184
f 184/184 185/185 117/117
f 185/185 184/184 186/186
f 183/183 170/170 187/187
f 188/188 183/183 187/187
f 189/189 183/183 188/188
f 190/190 189/189 188/188
f 187/187 170/170 191/191
f 170/170 192/192 191/191
f 191/191 192/192 193/193
f 192/192 194/194 193/193
f 192/192 170/170 195/195
f 195/195 170/170 151/151
f 185/185 196/196 117/117
f 196/196 197/197 117/117
f 198/198 117/117 197/197
f 199/199 198/198 197/197
f 199/199 197/197 200/200
f 200/200 197/197 196/196
f 200/200 201/201 199/199
f 201/201 200/200 202/202
f 200/200 196/196 202/202
f 196/196 185/185 203/203
f 196/196 203/203 202/202
f 203/203 185/185 186/186
f 202/202 203/203 204/204
f 204/204 203/203 186/186
f 186/186 205/205 204/204
f 206/206 202/202 204/204
f 205/205 207/207 204/204
f 207/207 206/206 204/204
f 207/207 208/208 206/206
f 211/211 210/210 209/209
f 209/209 210/210 212/212
f 210/210 213/213 212/212
f 212/212 213/213 214/214
f 213/213 215/215 214/214
f 214/214 215/215 216/216
f 215/215 217/217 216/216
f 216/216 217/217 218/218
f 217/217 219/219 218/218
f 218/218 219/219 220/220
f 223/223 222/222 221/221
f 223/223 221/221 224/224
f 221/221 225/225 224/224
f 224/224 225/225 226/226
f 225/225 227/227 226/226
f 226/226 227/227 228/228
f 227/227 229/229 228/228
f 228/228 229/229 230/230
f 229/229 231/231 230/230
f 230/230 231/231 232/232
f 235/235 234/234 233/233
f 234/234 236/236 233/233
f 237/237 236/236 234/234
f 238/238 237/237 234/234
f 239/239 237/237 238/238
f 240/240 239/239 238/238
f 241/241 239/239 240/240
f 242/242 241/241 240/240
f 243/243 241/241 242/242
f 244/244 243/243 242/242
f 243/243 244/244 245/245
f 246/246 243/243 245/245
f 249/249 248/248 247/247
f 250/250 249/249 247/247
f 250/250 247/247 251/251
f 249/249 250/250 252/252
f 251/251 253/253 250/250
f 254/254 252/252 250/250
f 250/250 253/253 254/254
f 254/254 255/255 252/252
f 254/254 256/256 255/255
f 255/255 256/256 257/257
f 258/258 255/255 257/257
f 259/259 258/258 257/257
f 254/254 253/253 260/260
f 260/260 261/261 254/254
f 261/261 262/262 254/254
f 262/262 263/263 254/254
f 264/264 260/260 253/253
f 253/253 265/265 264/264
f 265/265 253/253 266/266
f 267/267 265/265 266/266
f 264/264 265/265 268/268
f 261/261 260/260 269/269
f 264/264 270/270 260/260
f 270/270 269/269 260/260
f 271/271 261/261 269/269
f 262/262 261/261 271/271
f 270/270 264/264 272/272
f 268/268 272/272 264/264
f 269/269 270/270 273/273
f 273/273 271/271 269/269
f 270/270 272/272 273/273
f 262/262 271/271 274/274
f 271/271 273/273 274/274
f 275/275 263/263 262/262
f 275/275 262/262 274/274
f 272/272 276/276 273/273
f 273/273 276/276 274/274
f 277/277 263/263 275/275
f 277/277 254/254 263/263
f 277/277 268/268 254/254
f 278/278 275/275 274/274
f 274/274 276/276 278/278
f 275/275 278/278 277/277
f 272/272 279/279 276/276
f 276/276 279/279 278/278
f 279/279 277/277 278/278
f 268/268 279/279 272/272
f 268/268 277/277 279/279
f 254/254 268/268 280/280
f 280/280 268/268 281/281
f 280/280 282/282 254/254
f 281/281 283/283 280/280
f 280/280 284/284 282/282
f 284/284 280/280 283/283
f 285/285 254/254 282/282
f 281/281 286/286 285/285
f 286/286 287/287 285/285
f 288/288 254/254 285/285
f 282/282 289/289 285/285
f 290/290 254/254 288/288
f 288/288 291/291 290/290
f 288/288 292/292 291/291
f 292/292 293/293 291/291
f 292/292 288/288 294/294
f 285/285 294/294 288/288
f 285/285 295/295 294/294
f 284/284 296/296 282/282
f 289/289 282/282 296/296
f 285/285 297/297 295/295
f 295/295 297/297 298/298
f 299/299 295/295 298/298
f 300/300 299/299 298/298
f 296/296 284/284 301/301
f 284/284 283/283 301/301
f 302/302 289/289 296/296
f 301/301 302/302 296/296
f 283/283 303/303 301/301
f 301/301 303/303 302/302
f 304/304 289/289 302/302
f 289/289 304/304 285/285
f 283/283 305/305 303/303
f 281/281 305/305 283/283
f 303/303 306/306 302/302
f 304/304 302/302 306/306
f 307/307 281/281 285/285
f 281/281 307/307 305/305
f 303/303 305/305 308/308
f 306/306 303/303 308/308
f 305/305 307/307 308/308
f 308/308 309/309 306/306
f 309/309 304/304 306/306
f 309/309 308/308 307/307
f 307/307 285/285 310/310
f 304/304 310/310 285/285
f 307/307 310/310 309/309
f 309/309 310/310 304/304
f 313/313 312/312 311/311
f 314/314 313/313 311/311
f 314/314 311/311 315/315
f 316/316 313/313 314/314
f 317/317 314/314 315/315
f 317/317 315/315 318/318
f 319/319 317/317 318/318
f 320/320 316/316 314/314
f 320/320 314/314 317/317
f 321/321 316/316 320/320
f 322/322 317/317 319/319
f 322/322 320/320 317/317
f 323/323 322/322 319/319
f 324/324 321/321 320/320
f 324/324 320/320 322/322
f 325/325 321/321 324/324
f 326/326 325/325 324/324
f 327/327 322/322 323/323
f 327/327 324/324 322/322
f 326/326 324/324 327/327
f 328/328 327/327 323/323
f 329/329 326/326 327/327
f 329/329 327/327 328/328
f 330/330 329/329 328/328
f 333/333 332/332 331/331
f 334/334 333/333 331/331
f 335/335 333/333 334/334
f 336/336 335/335 334/334
f 339/339 338/338 337/337
f 340/340 339/339 337/337
f 341/341 339/339 340/340
f 342/342 341/341 340/340
f 345/345 344/344 343/343
f 346/346 345/345 343/343
f 347/347 345/345 346/346
f 348/348 347/347 346/346
f 351/351 350/350 349/349
f 350/350 352/352 349/349
f 350/350 353/353 352/352
f 349/349 352/352 354/354
f 353/353 355/355 352/352
f 352/352 356/356 354/354
f 352/352 355/355 356/356
f 354/354 356/356 357/357
f 355/355 358/358 356/356
f 356/356 359/359 357/357
f 356/356 358/358 359/359
f 357/357 359/359 360/360
f 358/358 361/361 359/359
f 359/359 362/362 360/360
f 359/359 361/361 362/362
f 361/361 363/363 362/362
f 365/365 194/194 364/364
f 366/366 364/364 194/194
f 194/194 192/192 366/366
f 364/364 367/367 365/365
f 366/366 368/368 364/364
f 367/367 364/364 368/368
f 366/366 192/192 149/149
f 149/149 192/192 369/369
f 195/195 369/369 192/192
f 149/149 370/370 366/366
f 365/365 149/149 371/371
f 369/369 372/372 149/149
f 149/149 373/373 370/370
f 366/366 374/374 368/368
f 374/374 366/366 370/370
f 368/368 374/374 375/375
f 374/374 370/370 375/375
f 376/376 367/367 368/368
f 375/375 376/376 368/368
f 370/370 377/377 375/375
f 370/370 373/373 377/377
f 376/376 375/375 377/377
f 378/378 367/367 376/376
f 367/367 378/378 365/365
f 379/379 376/376 377/377
f 378/378 376/376 379/379
f 377/377 373/373 380/380
f 379/379 377/377 380/380
f 381/381 378/378 379/379
f 380/380 381/381 379/379
f 373/373 382/382 380/380
f 381/381 380/380 382/382
f 149/149 382/382 373/373
f 381/381 383/383 378/378
f 382/382 383/383 381/381
f 378/378 383/383 365/365
f 382/382 149/149 383/383
f 149/149 365/365 383/383
f 371/371 384/384 365/365
f 129/129 365/365 384/384
f 384/384 385/385 129/129
f 371/371 386/386 384/384
f 385/385 384/384 386/386
f 385/385 387/387 129/129
f 387/387 136/136 129/129
f 388/388 385/385 386/386
f 387/387 385/385 388/388
f 389/389 136/136 387/387
f 387/387 388/388 390/390
f 389/389 387/387 390/390
f 391/391 136/136 389/389
f 391/391 127/127 136/136
f 371/371 149/149 127/127
f 392/392 389/389 390/390
f 389/389 392/392 391/391
f 390/390 388/388 393/393
f 390/390 393/393 392/392
f 394/394 391/391 392/392
f 127/127 391/391 394/394
f 393/393 394/394 392/392
f 127/127 394/394 395/395
f 127/127 395/395 371/371
f 395/395 394/394 393/393
f 388/388 396/396 393/393
f 396/396 388/388 386/386
f 395/395 393/393 396/396
f 371/371 397/397 386/386
f 386/386 397/397 396/396
f 397/397 371/371 395/395
f 397/397 395/395 396/396
f 151/151 149/149 398/398
f 399/399 398/398 149/149
f 372/372 399/399 149/149
f 400/400 151/151 398/398
f 401/401 398/398 399/399
f 400/400 398/398 401/401
f 399/399 372/372 402/402
f 401/401 399/399 403/403
f 399/399 402/402 403/403
f 401/401 404/404 400/400
f 404/404 401/401 403/403
f 151/151 400/400 405/405
f 405/405 400/400 404/404
f 403/403 406/406 404/404
f 406/406 405/405 404/404
f 403/403 402/402 406/406
f 151/151 405/405 407/407
f 407/407 405/405 406/406
f 151/151 407/407 195/195
f 402/402 372/372 408/408
f 372/372 369/369 408/408
f 402/402 409/409 406/406
f 407/407 406/406 409/409
f 409/409 402/402 408/408
f 195/195 410/410 369/369
f 410/410 195/195 407/407
f 410/410 408/408 369/369
f 408/408 410/410 409/409
f 410/410 407/407 409/409
f 413/413 412/412 411/411
f 412/412 414/414 411/411
f 411/411 414/414 415/415
f 412/412 416/416 414/414
f 414/414 417/417 415/415
f 415/415 417/417 418/418
f 416/416 419/419 414/414
f 414/414 419/419 417/417
f 416/416 420/420 419/419
f 417/417 421/421 418/418
f 418/418 421/421 422/422
f 419/419 423/423 417/417
f 417/417 423/423 421/421
f 420/420 424/424 419/419
f 419/419 424/424 423/423
f 420/420 425/425 424/424
f 425/425 426/426 424/424
f 424/424 426/426 427/427
f 424/424 427/427 423/423
f 426/426 428/428 427/427
f 421/421 429/429 422/422
f 422/422 429/429 430/430
f 423/423 431/431 421/421
f 423/423 427/427 431/431
f 421/421 431/431 429/429
f 427/427 428/428 432/432
f 427/427 432/432 431/431
f 428/428 433/433 432/432
f 431/431 432/432 434/434
f 431/431 434/434 429/429
f 432/432 433/433 435/435
f 432/432 435/435 434/434
f 433/433 436/436 435/435
f 429/429 437/437 430/430
f 430/430 437/437 438/438
f 429/429 434/434 439/439
f 434/434 435/435 439/439
f 437/437 429/429 439/439
f 435/435 436/436 440/440
f 435/435 440/440 439/439
f 436/436 441/441 440/440
f 437/437 442/442 438/438
f 437/437 439/439 442/442
f 438/438 442/442 443/443
f 439/439 440/440 444/444
f 439/439 444/444 442/442
f 440/440 441/441 445/445
f 440/440 445/445 444/444
f 441/441 446/446 445/445
f 442/442 447/447 443/443
f 442/442 444/444 447/447
f 443/443 447/447 448/448
f 444/444 445/445 449/449
f 444/444 449/449 447/447
f 445/445 446/446 450/450
f 445/445 450/450 449/449
f 446/446 451/451 450/450
f 447/447 452/452 448/448
f 447/447 449/449 452/452
f 448/448 452/452 453/453
f 449/449 450/450 454/454
f 449/449 454/454 452/452
f 450/450 451/451 455/455
f 450/450 455/455 454/454
f 451/451 456/456 455/455
f 452/452 457/457 453/453
f 452/452 454/454 457/457
f 453/453 457/457 458/458
f 457/457 459/459 458/458
f 454/454 460/460 457/457
f 457/457 460/460 459/459
f 454/454 455/455 460/460
f 460/460 461/461 459/459
f 455/455 456/456 462/462
f 455/455 462/462 460/460
f 460/460 462/462 461/461
f 456/456 463/463 462/462
f 462/462 464/464 461/461
f 462/462 463/463 464/464
f 463/463 465/465 464/464
f 468/468 467/467 466/466
f 469/469 468/468 466/466
f 470/470 468/468 469/469
f 469/469 466/466 471/471
f 472/472 470/470 469/469
f 473/473 469/469 471/471
f 472/472 469/469 473/473
f 473/473 471/471 474/474
f 475/475 472/472 473/473
f 476/476 473/473 474/474
f 475/475 473/473 476/476
f 476/476 474/474 477/477
f 478/478 475/475 476/476
f 479/479 476/476 477/477
f 478/478 476/476 479/479
f 480/480 478/478 479/479
f 483/483 482/482 481/481
f 484/484 483/483 481/481
f 485/485 483/483 484/484
f 484/484 481/481 486/486
f 487/487 485/485 484/484
f 488/488 484/484 486/486
f 487/487 484/484 488/488
f 488/488 486/486 489/489
f 490/490 487/487 488/488
f 491/491 488/488 489/489
f 490/490 488/488 491/491
f 491/491 489/489 492/492
f 493/493 490/490 491/491
f 494/494 491/491 492/492
f 493/493 491/491 494/494
f 495/495 493/493 494/494
f 498/498 497/497 496/496
f 499/499 498/498 496/496
f 499/499 496/496 500/500
f 501/501 498/498 499/499
f 502/502 499/499 500/500
f 502/502 500/500 503/503
f 504/504 501/501 499/499
f 504/504 499/499 502/502
f 505/505 501/501 504/504
f 506/506 502/502 503/503
f 506/506 503/503 507/507
f 508/508 504/504 502/502
f 508/508 502/502 506/506
f 509/509 505/505 504/504
f 509/509 504/504 508/508
f 510/510 505/505 509/509
f 511/511 510/510 509/509
f 511/511 509/509 512/512
f 512/512 509/509 508/508
f 513/513 511/511 512/512
f 514/514 506/506 507/507
f 514/514 507/507 515/515
f 516/516 508/508 506/506
f 512/512 508/508 516/516
f 516/516 506/506 514/514
f 513/513 512/512 517/517
f 517/517 512/512 516/516
f 518/518 513/513 517/517
f 517/517 516/516 519/519
f 519/519 516/516 514/514
f 518/518 517/517 520/520
f 520/520 517/517 519/519
f 521/521 518/518 520/520
f 522/522 514/514 515/515
f 522/522 515/515 523/523
f 519/519 514/514 524/524
f 520/520 519/519 524/524
f 514/514 522/522 524/524
f 521/521 520/520 525/525
f 525/525 520/520 524/524
f 526/526 521/521 525/525
f 527/527 522/522 523/523
f 524/524 522/522 527/527
f 527/527 523/523 528/528
f 525/525 524/524 529/529
f 529/529 524/524 527/527
f 526/526 525/525 530/530
f 530/530 525/525 529/529
f 531/531 526/526 530/530
f 532/532 527/527 528/528
f 529/529 527/527 532/532
f 532/532 528/528 533/533
f 530/530 529/529 534/534
f 534/534 529/529 532/532
f 531/531 530/530 535/535
f 535/535 530/530 534/534
f 536/536 531/531 535/535
f 537/537 532/532 533/533
f 534/534 532/532 537/537
f 537/537 533/533 538/538
f 535/535 534/534 539/539
f 539/539 534/534 537/537
f 536/536 535/535 540/540
f 540/540 535/535 539/539
f 541/541 536/536 540/540
f 542/542 537/537 538/538
f 539/539 537/537 542/542
f 542/542 538/538 543/543
f 544/544 542/542 543/543
f 545/545 539/539 542/542
f 545/545 542/542 544/544
f 540/540 539/539 545/545
f 546/546 545/545 544/544
f 541/541 540/540 547/547
f 547/547 540/540 545/545
f 547/547 545/545 546/546
f 548/548 541/541 547/547
f 549/549 547/547 546/546
f 548/548 547/547 549/549
f 550/550 548/548 549/549
f 553/553 552/552 551/551
f 552/552 554/554 551/551
f 552/552 555/555 554/554
f 551/551 554/554 556/556
f 555/555 557/557 554/554
f 554/554 558/558 556/556
f 554/554 557/557 558/558
f 556/556 558/558 559/559
f 557/557 560/560 558/558
f 558/558 561/561 559/559
f 558/558 560/560 561/561
f 559/559 561/561 562/562
f 560/560 563/563 561/561
f 561/561 564/564 562/562
f 561/561 563/563 564/564
f 563/563 565/565 564/564
f 568/568 567/567 566/566
f 567/567 569/569 566/566
f 567/567 570/570 569/569
f 566/566 569/569 571/571
f 570/570 572/572 569/569
f 569/569 573/573 571/571
f 569/569 572/572 573/573
f 571/571 573/573 574/574
f 572/572 575/575 573/573
f 573/573 576/576 574/574
f 573/573 575/575 576/576
f 574/574 576/576 577/577
f 575/575 578/578 576/576
f 576/576 579/579 577/577
f 576/576 578/578 579/579
f 578/578 580/580 579/579
f 583/583 582/582 581/581
f 584/584 583/583 581/581
f 585/585 583/583 584/584
f 586/586 585/585 584/584
f 587/587 585/585 586/586
f 588/588 587/587 586/586
f 589/589 587/587 588/588
f 590/590 589/589 588/588
f 593/593 592/592 591/591
f 594/594 593/593 591/591
f 595/595 593/593 594/594
f 596/596 595/595 594/594
f 597/597 595/595 596/596
f 598/598 597/597 596/596
f 599/599 597/597 598/598
f 600/600 599/599 598/598
f 601/601 599/599 600/600
f 602/602 601/601 600/600
f 603/603 601/601 602/602
f 604/604 603/603 602/602
f 605/605 603/603 604/604
f 606/606 605/605 604/604
f 607/607 605/605 606/606
f 608/608 607/607 606/606
f 609/609 607/607 608/608
f 610/610 609/609 608/608
f 611/611 609/609 610/610
f 612/612 611/611 610/610
f 613/613 611/611 612/612
f 614/614 613/613 612/612
f 615/615 613/613 614/614
f 616/616 615/615 614/614
f 617/617 615/615 616/616
f 618/618 617/617 616/616
f 619/619 617/617 618/618
f 620/620 619/619 618/618
f 623/623 622/622 621/621
f 622/622 624/624 621/621
f 621/621 624/624 625/625
f 624/624 626/626 625/625
f 625/625 626/626 627/627
f 626/626 628/628 627/627
f 627/627 628/628 629/629
f 628/628 630/630 629/629
f 629/629 630/630 631/631
f 630/630 632/632 631/631
f 631/631 632/632 633/633
f 632/632 634/634 633/633
f 633/633 634/634 635/635
f 634/634 636/636 635/635
f 635/635 636/636 637/637
f 636/636 638/638 637/637
f 637/637 638/638 639/639
f 638/638 640/640 639/639
f 639/639 640/640 641/641
f 640/640 642/642 641/641
f 641/641 642/642 643/643
f 642/642 644/644 643/643
f 643/643 644/644 645/645
f 644/644 646/646 645/645
f 645/645 646/646 647/647
f 646/646 648/648 647/647
f 647/647 648/648 649/649
f 648/648 650/650 649/649
f 653/653 652/652 651/651
f 652/652 654/654 651/651
f 651/651 654/654 655/655
f 654/654 656/656 655/655
f 655/655 656/656 657/657
f 656/656 658/658 657/657
f 657/657 658/658 659/659
f 658/658 660/660 659/659