# Blender 4.0.0
# www.blender.org
o decimated_mesh
v -0.257677 -0.117345 -0.131208
v -0.256848 -0.086541 -0.132118
v 0.000047 -0.117362 -0.132227
v -0.253216 -0.120060 -0.127166
v -0.259242 -0.086541 -0.127367
v 0.000063 -0.085939 -0.132343
v 0.000047 -0.119892 -0.127455
v -0.259567 -0.113877 -0.007529
v -0.259530 -0.086334 -0.007512
v 0.000047 -0.096982 -0.007529
v 0.000047 -0.120409 -0.007529
v -0.256855 -0.119356 -0.007529
vn -0.8930 0.0108 -0.4500
vn -0.8962 -0.4437 -0.0013
vn -0.0041 -1.0000 0.0058
vn 0.0001 -0.8835 -0.4684
vn -0.0009 -0.0037 -1.0000
vn -1.0000 0.0013 -0.0024
vn 0.0408 0.9953 0.0881
vn 1.0000 -0.0005 -0.0003
vn -0.0012 -0.0006 1.0000
vn 0.0007 -1.0000 -0.0043
vn -0.5128 -0.8584 -0.0105
vn -0.0034 1.0000 -0.0017
vn -0.0023 1.0000 -0.0017
vn -0.0023 -0.8313 -0.5558
vn -0.0040 -0.0294 -0.9996
vn -0.9987 -0.0490 -0.0139
vn 1.0000 -0.0000 0.0001
vn 1.0000 -0.0005 -0.0000
vn -0.0000 -0.0005 1.0000
vn 0.0001 -0.0000 1.0000
s 0
f 5//1 2//1 1//1
f 8//2 1//2 12//2
f 4//3 11//3 12//3
f 4//4 3//4 7//4
f 3//5 2//5 6//5
f 5//6 8//6 9//6
f 6//7 9//7 10//7
f 6//8 7//8 3//8
f 9//9 8//9 12//9
f 4//10 7//10 11//10
f 12//11 1//11 4//11
f 2//12 5//12 9//12
f 9//13 6//13 2//13
f 4//14 1//14 3//14
f 3//15 1//15 2//15
f 5//16 1//16 8//16
f 10//17 11//17 6//17
f 11//18 7//18 6//18
f 12//19 11//19 9//19
f 11//20 10//20 9//20
