# Blender 4.0.0
# www.blender.org
o decimated_mesh
v 0.000047 -0.092014 -0.132529
v 0.000047 -0.092014 -0.107748
v 0.234646 -0.092014 -0.132529
v 0.234646 -0.092014 -0.105281
v 0.234643 0.157185 -0.106509
v 0.000041 0.159314 -0.110707
v 0.000047 0.157200 -0.131919
v 0.234646 0.158665 -0.130380
vn -0.0000 -1.0000 -0.0000
vn -1.0000 -0.0000 -0.0003
vn -0.0178 0.0118 0.9998
vn 0.0079 0.9981 0.0619
vn 0.0065 0.0086 -0.9999
vn 1.0000 -0.0000 -0.0000
vn 1.0000 -0.0000 0.0001
vn -1.0000 -0.0000 -0.0000
vn -0.0056 0.9951 -0.0992
vn -0.0105 0.0049 0.9999
vn -0.0000 0.0024 -1.0000
s 0
f 2//1 3//1 4//1
f 7//2 1//2 6//2
f 2//3 5//3 6//3
f 5//4 8//4 6//4
f 3//5 7//5 8//5
f 2//1 1//1 3//1
f 5//6 4//6 3//6
f 8//7 5//7 3//7
f 2//8 6//8 1//8
f 8//9 7//9 6//9
f 2//10 4//10 5//10
f 3//11 1//11 7//11
f 5//7 4//7 8//7
f 4//6 3//6 8//6
