# Blender 4.0.0
# www.blender.org
o decimated_mesh
v 0.238798 0.158844 -0.007533
v 0.253388 0.159677 -0.007529
v 0.234534 0.159576 -0.126528
v 0.258588 0.156855 -0.007529
v 0.253420 0.159184 -0.127586
v 0.235839 0.153122 -0.007529
v 0.257210 0.157033 -0.131506
v 0.259305 0.152709 -0.127198
v 0.258867 -0.117610 -0.007529
v 0.234637 0.156665 -0.132068
v 0.234648 -0.120409 -0.007529
v 0.257756 -0.117381 -0.131108
v 0.234649 -0.120029 -0.127036
v 0.253388 -0.120327 -0.007529
v 0.253401 -0.119945 -0.127348
v 0.234643 -0.117337 -0.132227
vn 0.0001 -0.0007 -1.0000
vn 0.0044 -1.0000 -0.0032
vn 0.5032 -0.8641 -0.0061
vn 0.9035 0.4284 -0.0094
vn -0.8877 0.4591 0.0346
vn -0.0037 -0.8878 -0.4603
vn 0.9999 -0.0056 -0.0090
vn 0.0249 0.0006 -0.9997
vn -0.0077 0.8852 -0.4652
vn 0.4770 0.8789 -0.0040
vn -0.0570 0.9983 0.0082
vn -0.0000 -0.0000 1.0000
vn -0.0000 -0.0000 -1.0000
vn 0.0002 0.0004 -1.0000
vn 1.0000 -0.0044 -0.0001
vn 0.9987 0.0509 -0.0082
vn -1.0000 -0.0023 -0.0000
vn 1.0000 -0.0000 -0.0097
vn 0.4442 -0.8959 -0.0028
vn 0.0247 -0.8391 -0.5435
vn 1.0000 0.0010 0.0060
vn 0.0484 -0.0014 -0.9988
vn -0.0022 0.8757 -0.4828
vn 0.4910 0.8712 -0.0034
vn 0.0205 0.9998 -0.0041
vn 0.8997 0.0012 -0.4364
vn 0.0003 -0.0000 -1.0000
vn -0.0011 -0.0001 -1.0000
vn 0.4904 0.8715 -0.0042
vn 0.4770 0.8789 -0.0035
vn 0.9999 -0.0044 -0.0112
vn 1.0000 0.0004 -0.0000
vn 0.9998 -0.0000 0.0185
s 0
f 1//1 4//1 6//1
f 14//2 13//2 15//2
f 9//3 15//3 12//3
f 7//4 4//4 8//4
f 3//5 6//5 1//5
f 16//6 15//6 13//6
f 8//7 9//7 12//7
f 7//8 16//8 10//8
f 5//9 10//9 3//9
f 7//10 2//10 4//10
f 3//11 1//11 2//11
f 11//12 14//12 9//12
f 9//13 6//13 4//13
f 11//12 9//12 6//12
f 2//14 4//14 1//14
f 14//2 11//2 13//2
f 11//15 16//15 6//15
f 6//16 10//16 3//16
f 11//17 16//17 13//17
f 10//18 6//18 16//18
f 9//19 14//19 15//19
f 16//20 12//20 15//20
f 8//21 4//21 9//21
f 7//22 12//22 16//22
f 5//23 7//23 10//23
f 7//24 5//24 2//24
f 2//25 5//25 3//25
f 12//26 7//26 8//26
f 4//13 9//13 2//13
f 2//27 9//27 1//27
f 1//28 9//28 6//28
f 7//29 5//29 4//29
f 5//30 2//30 4//30
f 3//31 6//31 11//31
f 13//2 15//2 11//2
f 15//2 14//2 11//2
f 3//32 11//32 16//32
f 3//33 16//33 10//33
