v -0.106207603590725 0.00806104061918234 -0.106082623220935
v -0.115421184767857 0.00529800032078409 -0.0896346552887137
v -0.122007148316214 0.0210731861482714 -0.0943907565522721
v -0.12775541816471 0.025675528553819 -0.0763301283303655
v -0.134525890776321 0.041931802926954 -0.0809479913092135
v -0.0941324834106609 0.0229628285849799 -0.122964788743701
v -0.10122071201507 0.0414373866113498 -0.130166119884368
v -0.0711384919022642 0.00613265729241874 -0.119555285563337
v -0.0898677751997603 0.00616223272722749 -0.11584655088436
v -0.0758483698504904 0.0231665443696443 -0.126682408584458
v -0.103758991953634 0.000575420047403935 -0.101047947453115
v -0.101548575018803 0.00154991604009769 -0.104635712441913
v -0.0916946034370349 -0.000372709880496837 -0.106359710700154
v -0.112643807921854 0.000955180388464053 -0.0883344296157891
v -0.109847705345858 -0.00048860544018402 -0.0854900332951348
v -0.11485387800001 0.000112119659701489 -0.0692802408986778
v -0.101682017764544 -0.00049823289821131 -0.094645288637686
v -0.0964279424874559 0.0125277903601475 -0.102324236844587
v -0.101169991279426 0.0143058370130884 -0.0997048509160048
v -0.104655276963986 0.0227012383757845 -0.102440747834626
v -0.0901584663689494 0.0146124052252858 -0.107797572727561
v -0.108406133395149 0.0411807392974985 -0.11268382720157
v -0.108298293327564 0.0150067332528453 -0.0901896708134395
v -0.111333877648017 0.0146284133945354 -0.0824899473016596
v -0.108070864747394 0.00838150563689857 -0.0825134629045867
v -0.104574819400023 0.00866970447515542 -0.0891792282818953
v -0.108907649367995 0.0191105004181065 -0.0927442521381616
v -0.11302289183185 0.0214795790081377 -0.0887332035272559
v -0.106622448679437 0.0195270132457788 -0.0970367553050511
v -0.116936225901045 0.0257154465784118 -0.0815747123434285
v -0.100480531582233 0.00865678106087397 -0.0955295901250137
v -0.104093434315187 0.0145291800871497 -0.0954448414569828
v -0.0995111038621364 0.00655795325582972 -0.0916370719194673
v -0.0943694316306813 0.00702243910647224 -0.0994947561824073
v -0.105074505006817 0.00631565840094066 -0.0834188593531777
v -0.100801460691037 0.00562285434285838 -0.0823715761494901
v -0.0882332357857705 0.000760588369732917 -0.112470982097138
v -0.0697554522792603 0.00117878776043584 -0.116696480144879
v -0.0695446590407837 -0.000463388876333023 -0.112537198433648
v -0.0868827349091785 0.00730101283105106 -0.104675547440503
v -0.0892479604758988 0.00547794282732213 -0.0976315835020357
v -0.0861286447732793 0.0105880108359231 -0.108207137452393
v -0.0864269734238814 0.0208067233650802 -0.113493740386984
v -0.0937370385769212 0.0364314966571158 -0.11928096499685
v -0.0796269362143517 0.00570208573433842 -0.104357318710868
v -0.081260346725391 0.00542205107369726 -0.100900086763801
v -0.0773403386678604 0.00712436800093791 -0.107933665920054
v -0.0728465329609964 0.00930770841021555 -0.110597288447403
v -0.0736852046799501 0.0179980903234238 -0.114694448238964
v -0.0724388570922869 0.0262121516242502 -0.118938074246959
v -0.0799226362697247 0.0314187401383705 -0.120005967488547
v -0.0856992606164461 0.0054310383606024 -0.0873487099430702
v -0.0923697318265414 0.0066907527181382 -0.086809271052741
v -0.080029629058564 0.0413235927043285 -0.134389344263387
v -0.013471472632455 0.0353070081506246 -0.131873541723918
v -0.0216199569516954 -0.000500086 -0.0737622484467342
v -0.0247646756223501 -0.000493622345434657 -0.11079938661647
v -0.0662201597433767 0.0126770693691336 -0.113265199694449
v -0.0682904017696049 0.0061803387332427 -0.108336115551072
v -0.0637860783860507 0.00811177833748866 -0.110804835788444
v -0.0652815562566178 0.017237166407245 -0.115237855045947
v -0.059400672922242 0.00540808244055163 -0.104379307016356
v -0.0540877650067018 0.0055417569582531 -0.105044044057894
v -0.0733792356281984 0.00680143537994922 -0.0943897600992366
v -0.0654827174550491 0.00547643561052442 -0.0945970581533316
v -0.0722400590918231 0.00670173202171387 0.00661716634207406
v -0.0210899630797871 -8.74810410530225e-05 -0.113958155212974
v -0.0512723805402683 0.00681530605132889 -0.0963236370957524
v -0.00296582944043156 0.0180650215413429 -0.115400876954609
v -0.0729630365836113 0.033434284230097 -0.122161195590757
v -0.0434854732345592 0.00548882732237159 -0.0950307008193412
v -0.0369601810255388 0.00552969108138258 -0.105973973736084
v -0.0501892452648173 0.00671416553387304 -0.0123816339467515
v -0.038065885717156 0.00540888998981392 0.00651350080501412
v -0.00716343746202508 0.029465745608424 -0.129414210441239
v 0.0149414679357557 0.00200682245884898 -0.117364478606864
v -0.00386080803240096 0.0126850124745159 -0.113256984930352
v -0.0305325739682031 0.00680864545337976 -0.0963354967460999
v -0.0159353668175362 0.00615495932403334 -0.108276392128133
v -0.0228840109233135 0.00554345720961237 -0.0979102097488655
v -0.0113983938395947 0.00553434843824363 -0.105097615892138
v -0.0188027963387761 0.00537555380368521 -0.0988796356361125
v -0.0288743878577475 0.00668686369751114 -0.0417919205914049
v 0.0382828084832937 0.000123542031847418 -0.114844832972167
v 0.0356385850649026 -0.000497704321125317 -0.110609972623679
v -0.00724579347512444 0.0333100493466727 -0.122063848499587
v 0.0694543844982081 0.00666921881657861 -0.109122946697077
v 0.00974370101818534 0.00552364869319596 -0.106136392767077
v -0.00144602954079791 0.00536592346208835 -0.0975368022982359
v -0.0104749394979707 0.0068696232424726 -0.0961437062928466
v -0.119376918759411 0.00579444005285557 -0.0710715941225282
v -0.116846597314099 0.00140790619004131 -0.0697129893324848
v -0.118280119689741 0.00373795629845072 0.00536871758770473
v -0.134192252993137 0.0408188153034435 -0.0180813061837164
v -0.116042599882306 0.0195065451672769 -0.0700095298225867
v -0.120780444096975 0.00900430569519611 0.00814349268051588
v -0.111843580310501 0.00999029530096712 -0.068456123186637
v -0.114931088156092 0.000147704016709941 -0.0039378143652935
v -0.124076233864563 0.0379081848772399 -0.00266022811801998
v -0.11186887276928 0.0100478414667543 0.0134094214669076
v -0.110836673108821 -0.000491476363820524 -0.00186203015625836
v -0.069411104672448 -0.000500086 -0.0378311739011178
v -0.105563396324966 0.00543141362196391 -0.0682769485361359
v -0.109759799505912 0.00701790282594601 -0.0674235145450113
v -0.0947691756276434 0.00669575874245878 -0.000101753089831857
v -0.0815062952383338 0.00541537670240361 0.00560306154058977
v -0.0749702553107895 0.00664397427103914 -0.00263189278336233
v -0.0693376367690415 -0.000500086 0.00169980904479916
v -0.106584316965439 0.00566099017634681 0.0700715786448334
v -0.108784838870241 0.00649024814192051 0.0708418590330526
v -0.110620835867777 0.00790089613461726 0.06685471317601
v -0.104152292416305 0.00538639770817236 0.0730514129746669
v -0.116834165591656 0.00140625769404944 0.069503542914634
v -0.114889389294087 0.000162542139476814 0.0707136792325469
v -0.119786323806063 0.00675301574344633 0.0716153927892726
v -0.113696198671759 0.0020336031219068 0.0887640214223242
v -0.126069586763961 0.0215759132792357 0.0752092927862034
v -0.124067240981227 0.0378641157693123 0.0733709805266813
v -0.115510441516549 0.0183965813749856 0.0687100351001058
v -0.115064046228821 0.0193218873850334 0.0749242226730691
v -0.0713596298057174 -0.000500086 0.0419378384451956
v -0.101038870406893 0.00557267015059792 0.0837947444120519
v -0.0857186962598738 0.00542574912397817 0.0920153552077658
v -0.108645764325684 -0.00047420553422507 0.0893443233080662
v -0.111435211402735 0.0119727424210421 0.0750895358890191
v -0.0936705115026403 0.00683673687833453 0.0856662062904892
v -0.055309624951644 -0.000500086 0.0798538931771651
v -0.0814510812083514 0.00537336303180492 0.102555814441349
v -0.0612353573264573 0.00533219105593223 0.00514320223830596
v -0.0578744647076454 0.00567630915191786 -0.00533127894443091
v -0.0053490891134343 -0.000500086 -0.0271268784437872
v -0.0431748077020076 0.0054510213124038 0.0199396895565288
v -0.0531538145693361 0.00660801483522978 0.0228957120826912
v -0.0660072469573748 0.00555495643480003 0.0979932329801199
v -0.0226291790486795 0.00554608953842362 -0.0467589354904565
v -0.018496373687625 0.00540201267449737 -0.0288536274771895
v -0.00927047257523345 0.00671327576430482 0.00717335650335657
v -0.00304221326843593 0.0055732711440566 -0.00229423122649252
v -0.0120119194093553 0.00662976810999695 0.00743731472547914
v -0.0226849854238705 0.0055361838609961 -0.00931880128204678
v -0.0305829980997998 0.00678163660931147 0.0967392061802923
v -0.0207374835984159 0.00530580147214153 0.0220070668608346
v 3.99244333633356e-07 0.00537637997441645 0.0225969995164317
v -0.0191905279605955 -0.000500086 0.030030020753041
v -0.0509792184550221 0.00678250012582238 0.0971318540449054
v -0.0735087290854598 0.00685592747197458 0.0950967507498378
v -0.0597907695504825 0.00534350807685148 0.10043833519863
v -0.0387211689435775 0.00530732677012458 0.0983608183666446
v -0.0447004433755863 0.00556954931233149 0.105955373934246
v -0.0289486596728868 0.0066844672879394 0.0287538616794988
v 0.0338161766804086 -0.000500086 0.0072738487931769
v -0.0183836470876818 0.00541116695766125 0.09771365340836
v 0.000780566391411606 -0.000500086 0.0753791599996345
v -0.0226713353738242 0.00553631267696228 0.0632490217820493
v -0.0106229706432481 0.00680421598107457 0.096944501750777
v -0.00192515035944529 0.00537885476508451 0.102445592324294
v -0.118040171198023 0.0114755676309137 0.0914630787024944
v -0.123757024935875 0.0255751736172876 0.0960383139620742
v -0.110490927614936 0.0196076559591347 0.110391293582001
v -0.100440384757829 -0.000420405509121476 0.101385167805161
v -0.1032301403376 0.00173653633707493 0.10360239497574
v -0.10643557007778 0.00891474461606911 0.10645916709793
v -0.10735511448855 0.006976941332241 0.0817772004575184
v -0.111488742769896 0.0184898852936533 0.0880219729444693
v -0.104743594850687 0.00890517995501305 0.0891405240200713
v -0.118690902265664 0.0275133389622737 0.0768212769171188
v -0.117350074504484 0.029760919027646 0.0886722965638223
v -0.0990976531347834 0.0106016437422625 0.0989584752774997
v -0.102170740929893 0.00650809908587018 0.0888298919197542
v -0.0974386813207232 0.0067519920023007 0.0962096501733689
v -0.0930215962465037 0.00548283686656676 0.0953943165089254
v -0.116570582040228 0.0342550606188921 0.0960135734873369
v -0.103449874662983 0.0226757967727931 0.10382626374795
v -0.114107724578057 0.0295676243468215 0.114161976148861
v -0.0924845981453943 0.0144917341648716 0.106226654989108
v -0.0924887736058885 0.0299840017547943 0.115937771444834
v -0.087884074544057 0.00049046121111089 0.112288302367319
v -0.0724439898401524 -0.000473068530426167 0.112309574752303
v -0.0856124072622033 0.00677475243751419 0.104782306340944
v -0.0936336581969215 0.00937747310427772 0.102109389334829
v -0.0869212197413405 0.011780117261234 0.108212971667145
v -0.085062214659164 0.0176831400874917 0.112092878215197
v -0.0729519781793559 0.00550909832481769 0.104930368287333
v -0.0802540185713383 0.00882262235114872 0.108706786235332
v -0.0751000041143493 0.00681825200018332 0.107878696639971
v -0.092475589186551 0.0136388545036414 0.118727832417721
v -0.0948036851057892 0.0219377106805041 0.122274045887528
v -0.0969444526713881 0.0283472497541055 0.124858373499901
v -0.0895081815908298 0.00607828459063953 0.115831590733671
v -0.0851640015851656 0.00403496452029506 0.114712825495307
v -0.0715099685248066 0.001238418661547 0.116155615235823
v -0.0714200414989374 0.00502468322770433 0.118119747609688
v -0.0800708575196332 0.00872612109960436 0.119022677589321
v -0.0743270327551527 0.0177578259471254 0.124331270894954
v -0.0893280050875536 0.0323913450663014 0.118456829154514
v -0.0697141562264179 0.0193166738163484 0.115884141959427
v -0.0775569077276586 0.0285227822265837 0.128824298581915
v -0.0669098253130617 0.00925065923108104 0.111424078220133
v -0.0659601403957593 0.00683962687439926 0.109503302117478
v -0.025069969884151 0.00558731634585801 0.105849261995669
v -0.0398332679858613 -5.28470989100693e-05 0.114127542884664
v -0.0386007233931235 0.00148346616925688 0.116448349611811
v -0.0717963545049258 0.00866027213540654 0.120629507896531
v -0.0757738904059666 0.0426340430618595 0.126151493713019
v -0.0616782066608277 0.0293171890709134 0.12930172026973
v -0.00446897260784418 0.00991913559040825 0.111812299731954
v -0.0140663978548368 0.00537875086162742 0.118288035773869
v 0.0672597695598471 0.00759506410525346 0.110275372847111
v 0.0661374716234766 0.00632728137365646 0.108448296352118
v -0.00874085777457495 0.00554879420993972 0.105910825236338
v -0.00701617484923611 -0.000470899867645098 0.112536358036692
v -0.00462643736427265 0.00103524618379258 0.116065289120138
v -0.00895378784687573 0.00333490518255442 0.117869839482764
v -0.00294050105104571 0.0085361672690869 0.120584741535484
v 0.0129487790809026 0.029073154063612 0.12923354312102
v 0.00309377632330454 0.00523488195843136 0.118249745894453
v -0.0112749815500695 0.0373849527764395 -0.294254515330905
v -0.00773225069790517 0.033720564971752 -0.297596903995437
v -0.00594376853306033 0.0372436867217972 -0.300755841496828
v -0.00738140071729587 0.0313930698516209 -0.292423001962868
v -0.000905741489811901 0.0300611233118773 -0.29308323257394
v -0.00121273006942224 0.0329356419858911 -0.300141913490373
v -0.00560663017829166 0.0403574211560751 -0.299876408136365
v -0.00501089977543989 0.0436327420887374 -0.293134199743799
v -0.0104139081770971 0.0418685614696813 -0.29147168344462
v 0.00150516268938328 0.0438114161010492 -0.295058194302442
v 0.00418621028293864 0.0408976111141307 -0.300240517687568
v -0.0149814186407506 0.033899990096471 -0.282731500408538
v -0.0116396135219251 0.0304377423699029 -0.282328117669797
v -0.0177983216313877 0.033943841355942 -0.261213111296158
v -0.00553668982196615 0.0280901297482337 -0.283119984389413
v -0.0156410750103055 0.0391382247333768 -0.282709771475755
v -0.0128939733960709 0.0429982399293823 -0.282548449809524
v -0.017040713566741 0.0383051670093216 -0.272669737461923
v -0.00489566728717786 0.0298882840736589 -0.288860778299006
v -0.00135125916716772 0.0330243243279993 -0.289217574294253
v -0.00185880579649706 0.0321991139339257 -0.286355462277892
v -0.00138971857901603 0.0268676494903821 -0.262631223518593
v -0.000588832132052103 0.0275507946061175 -0.281429820745111
v 0.000199150800763923 0.0325295038532216 -0.28550225074504
v -0.00162670700283875 0.0425083540838353 -0.288693280279489
v 4.60278089239041e-05 0.0419286312812558 -0.289671557620462
v -0.00139763547639346 0.0416238629664709 -0.285629765505535
v 0.00110362349180543 0.0438225542092964 -0.29175407032678
v -0.00546854911508959 0.0463455355418214 -0.283171120473593
v -0.00927844645896868 0.0454194344897635 -0.279154461939063
v -0.00366666299475496 0.0449855655523883 -0.28490999080432
v 0.00271488057134051 0.0469068916401386 -0.281259795340366
v -0.0132125077545629 0.0297668413116402 -0.26107027907862
v -0.0143952076643943 0.0436718110624095 -0.261831118314485
v -0.0168615908431842 0.041349879455236 -0.263370570078914
v -0.0181402061696344 0.0389016812022619 -0.260753751795282
v -0.00814847676877031 0.027912834137731 -0.261902898307942
v -0.016783548086916 0.0326691400247126 -0.237280808992977
v -0.01265130042893 0.0294056935467099 -0.236673126450417
v -0.0178664471680932 0.0348188382579653 -0.235489750842251
v -0.0169730177982413 0.0417031836195748 -0.249751368792892
v -0.0180195454025922 0.0395595664122309 -0.236339439339171
v -0.0162847199105238 0.042227133855279 -0.235867099071241
v -0.00305637867631917 0.0269808332550879 -0.232161358734153
v -0.0104366064849869 0.0457461943890287 -0.262972519392867
v -0.00571815284453979 0.0472727164342375 -0.256002886728465
v 0.00152584695200847 0.047698207838222 -0.249727102917523
v -0.0127005039517307 0.0447351828116528 -0.240954658323338
v -0.00811661956112556 0.0464182826311565 -0.22991496930389
v -0.13013822206562 0.0411434352766678 -0.100866145432816
v -0.124936643234658 0.0427896937480082 -0.110118738328524
v -0.130464678699953 0.0456771468598294 -0.100897437838318
v -0.118687231913732 0.0416705117978056 -0.11852265353961
v -0.119028753944849 0.0445580165619107 -0.118632294498139
v -0.134828678696181 0.0447240302722853 -0.080188632187659
v -0.121566320310026 0.0409041562869832 -0.0941439186116049
v -0.121258756753364 0.034558027630496 -0.0812543357926501
v -0.113279444491608 0.043581603004244 -0.109806614711065
v -0.12471114706195 0.0442926565543333 -0.0887738288612647
v -0.124498964603329 0.0459061058795411 -0.109591142136786
v -0.123219900838193 0.0466843392683403 -0.104506524795387
v -0.1183651935349 0.0461531922772782 -0.118523477628869
v -0.113226936851726 0.0466410174300273 -0.116892278148042
v -0.12293058502258 0.0458817713195285 -0.0991871225664189
v -0.113045548974566 0.0459224650709975 -0.113710316327091
v -0.13387498986136 0.0460331938360326 -0.082241337183954
v -0.130269911934608 0.0466267854819837 -0.0812602485359323
v -0.127423057022811 0.0465911733249812 -0.093179119356471
v -0.128263392001748 0.045492903769899 -0.0774580444137623
v -0.127120815214786 0.0440440813266629 -0.0753416696285194
v -0.109398225212613 0.0460321457006483 -0.124916666246889
v -0.101277472722323 0.044155159354095 -0.130633321444854
v -0.101356475665696 0.0466226809686206 -0.124594747671422
v -0.100104142943543 0.0461779782414015 -0.130039188331033
v -0.0995936127945254 0.0459133831018502 -0.12280670753459
v -0.0918127320023787 0.0426236023263931 -0.123205651130392
v -0.0893577382282469 0.0313404242349691 -0.118033548119104
v -0.0808550740551938 0.0445996818375223 -0.134742495762173
v -0.077301816026111 0.0427512186159698 -0.12614719979679
v -0.0818727645691997 0.0460679845260963 -0.133936273776027
v -0.0784573756046248 0.0465899517822718 -0.130411113584702
v -0.0895947098945267 0.046401619838915 -0.1270452871148
v -0.0993269531967185 0.0418093588491963 -0.119192480409618
v -0.0772742954066467 0.0454720557367545 -0.128207325758174
v -0.0145061461473301 0.0333278448098955 -0.218845435467403
v -0.00980476536719552 0.0300284286529022 -0.211235569463221
v -0.00687042585143766 0.0283399317758451 -0.215537628690865
v -0.0169642323053662 0.0388387589070238 -0.22885264972417
v -0.0147637895579558 0.0406395776271385 -0.218629506749361
v -0.0147415539081789 0.0376402976376177 -0.213957302754873
v -0.0100429815150278 0.0450901351139899 -0.21711678316511
v -0.000189155161913673 0.0271901550873782 -0.217670103163189
v -0.0115564061398954 0.0330382731818161 -0.204872257683221
v -0.00921190885800968 0.0339612396475071 -0.192843938233947
v -0.0123957973816547 0.036737571729491 -0.202151016975911
v -0.0115626567190257 0.0406255448628877 -0.202576175462033
v -0.00946237289957546 0.0436594804827748 -0.207122052868234
v -0.0103213705998102 0.036343428109063 -0.192373551050093
v -0.000430358505115802 0.0281110643298145 -0.206423173619132
v -0.00617742672609126 0.031226494433406 -0.19680176668727
v 0.000644774186800146 0.0305397650252148 -0.192798329806592
v 0.00464517738122117 0.0312182547843105 -0.191937551737102
v -0.00230861367926155 0.0472127547497221 -0.217551922387702
v -0.0036877899027822 0.0455891330955736 -0.203811131815183
v -0.00544106056392748 0.044018014906689 -0.193170380457092
v 0.00302595233010929 0.0454206374838717 -0.201657949716245
v -0.00997804852680249 0.0398440595633369 -0.191138277805205
v -0.0105213569518265 0.033446155274073 -0.174999567303729
v -0.0107857902647629 0.0395690831869154 -0.182247671684182
v -0.01196836527946 0.0353516683672194 -0.16718570531869
v -0.00377410689739416 0.0307536692504979 -0.189414150635329
v -0.00700613865808453 0.0313082563420634 -0.180471873506975
v 0.00194297970030299 0.0297044738656217 -0.174560970755173
v -0.00919561179638614 0.0423813529459214 -0.171251306387241
v -0.0067408625441291 0.0304109880537664 -0.15571013866431
v -0.012274613926488 0.0384645770902719 -0.16487774975243
v -0.00606764552684557 0.0439899118454349 -0.165149455338985
v -0.0124386767643678 0.03763128663281 -0.154267018914094
v -0.0100000952092726 0.0417754405761384 -0.154729068919896
v -0.00128405186623116 0.0293486582484764 -0.15559218493684
v -0.00231888115371191 0.044685904944884 -0.177917401360293
v 0.00256315983491396 0.044737336517781 -0.177629419189603
v -0.00384650708216951 0.0447776161627127 -0.15519551902506
v 0.00292569679457431 0.0450145661816574 -0.155748061837598
v -0.0700334354085444 0.038497640711503 -0.124660660039104
v -0.00888324445216787 0.0445095094764492 -0.134788429268996
v 0.0018432605351596 0.0432449584864765 -0.126476688620178
v -0.00512912309345448 0.0401577579961376 -0.125029875558572
v -0.0337375444906949 0.0460564174938132 -0.134019521322047
v -0.0137454416126198 0.0415737966408836 -0.134479172248799
v -0.0116765600259442 0.0360163272645178 -0.123650440965884
v -0.0282906075740213 0.0455137429775617 -0.128222648343049
v -0.00422799810697011 0.0465776433930341 -0.131254703917302
v 0.00136169116219287 0.0461564411752196 -0.133890828656651
v -0.0109044287384917 0.0340805840485578 -0.154000595535398
v -0.00744515443734478 0.0328983993715296 -0.150228605421333
v -0.0105433031747367 0.0370015825488168 -0.148989202431417
v -0.00997346395715738 0.0395264411705221 -0.139343970714021
v -0.0101803252523835 0.0357552972219454 -0.1353689259612
v -0.00751326628085884 0.0416109799524016 -0.148728409321936
v -0.00109600966489759 0.0311321106292354 -0.149727337545335
v -0.00684331846656043 0.0324814162946511 -0.133099581671328
v -0.00152806996562094 0.031280685338258 -0.133546081619509
v 0.000723085078928636 0.0433903867763623 -0.150485550683002
v -0.00566715438854248 0.0423630745764727 -0.137883033494419
v 4.62358750241421e-05 0.0433788216790974 -0.1384138318707
v -0.010847634471432 0.0404700001241219 -0.136345752899475
v 0.00542711925334549 0.0300005734085973 -0.129711501643158
v -6.0110882671216e-05 0.0392783361604674 -0.123377191401572
v 0.00441306283275988 0.0332077626463896 -0.122040281578732
v 0.0113635909138892 0.0447253076121078 -0.134724240006023
v 0.0754027808194069 0.0463955405037881 -0.129816057105628
v -0.124097397624798 0.0378243766112353 -0.0742500316742304
v -0.127222127383495 0.0441407740314754 -0.00140777644968224
v -0.131046876671106 0.0466598742580922 0.0260378842471158
v -0.133961872990867 0.0460545016488474 -0.0011904278939221
v -0.128868627653721 0.0460179647856708 0.010821788848083
v -0.134928772319919 0.0445242286621746 0.00230009774548612
v -0.12518957135498 0.039715265261808 -0.000451904432465011
v -0.134492698119696 0.0415819638900373 0.0581089018153118
v -0.134908639489453 0.0445463157234017 0.0419374318469007
v -0.133944712777083 0.0460428880974686 0.0447573883855785
v -0.128763834633197 0.0459476890961555 0.0772082627247183
v -0.12722521337106 0.0441622337536026 0.0720993464897508
v -0.1342019769903 0.0409930293497404 0.0804075922264396
v -0.134810250768403 0.0444392605219711 0.0826189076808852
v -0.13366084833797 0.0459702653570191 0.0848699251180032
v -0.130269494589274 0.0466249201944121 0.0769514124126619
v -0.129807803410597 0.040191092073119 0.100492968253971
v -0.122325406572875 0.0361106173749293 0.0797417422718625
v -0.12576727481963 0.0432997155212119 0.0800658925781086
v -0.121605355233553 0.0417522880711747 0.0956453460859152
v -0.12386171688298 0.0451348890721605 0.0958597628925022
v -0.13140300605153 0.0446265944989053 0.0989579740396906
v -0.129347922191177 0.0434485376319202 0.104168232848902
v -0.126128476994835 0.0448344763190389 0.109102263303016
v -0.118734301891656 0.0448277300268923 0.10319898062927
v -0.116172849429586 0.0420245950083973 0.104143335277732
v -0.119260189040895 0.0435041652460194 0.119238507275472
v -0.127929787396093 0.0466892536868868 0.0939320154123711
v -0.126238382751405 0.0458811722082835 0.0895251437054545
v -0.128850724973259 0.0464191440990258 0.100642423008478
v -0.118851400373446 0.04662299931958 0.114579792348662
v -0.114153196962346 0.0465604699646549 0.114119810969523
v -0.119481670927966 0.0454008865235761 0.118102970704752
v -0.112518539525198 0.0448446721281931 0.112239777226209
v -0.111209538658553 0.0434807893592983 0.12470656128205
v -0.111363258377201 0.0351222773768356 0.104740687044098
v -0.107835610806732 0.0344592431515114 0.108455190376688
v -0.111007741527416 0.039966727841459 0.11010456683356
v -0.104181976653113 0.042057412784021 0.116094421645867
v -0.102670045666645 0.0440618610623318 0.130601774505947
v -0.0995685889339666 0.0350671657029746 0.127268207771868
v -0.0959623158300767 0.0422133699430081 0.121706245284431
v -0.0902262739419326 0.0424643855470426 0.132976487433036
v -0.111080994951791 0.0456900696875064 0.12389584163036
v -0.101483592838445 0.0458550802320341 0.121259828477254
v -0.0995528463375732 0.046361103696961 0.129406285802471
v -0.0927909545973836 0.046726280822327 0.126869852387312
v -0.0880296282897959 0.0343021521371192 0.129474796202887
v -0.0794194433463313 0.0347678283070749 0.13145858108335
v -0.0888603674999513 0.0450712535841108 0.133347666958802
v -0.0789756472905424 0.0423929700915312 0.134819917681887
v -0.076074703890495 0.0458784535912915 0.128613696069022
v -0.0741225545098444 0.0466577133199831 0.131043453486652
v -0.0810157510982332 0.0446991821477055 0.134747826665945
v -0.080242263554926 0.0459911430758901 0.133813283196
v -0.0572021255677617 0.0347630911045673 0.131463108823402
v 0.00445246973108238 0.0410538333844039 0.13432683712833
v -0.00756261380154477 0.0448494117671661 0.127622589023778
v -0.0026140828742216 0.0322414885073616 0.13014510005109
v 0.0172623434204775 0.0358286768307856 0.132074506102305
v -0.0091626699421446 0.046180495970402 0.129227247704416
v 0.0810780667014086 0.0427018118250159 0.134841159097512
v -0.00448056005794173 0.0466582934397225 0.131092742315848
v -0.00627993009739938 0.0446908931488988 0.134777438050385
v -0.00256725372175964 0.0459205195330209 0.133932235192174
v 0.0264554826353568 0.0420324036472763 0.125886215883785
v 0.0142066613003458 0.0345195142138053 -0.131541306215126
v 0.0713237900554873 0.00686162808598567 -0.119869537181909
v 0.0133514573238216 0.0397167402938265 -0.133726770285858
v 0.0121911452180088 0.0126009083574097 -0.113126289186988
v 0.00232480096514158 0.00541811816039338 -0.102947892654335
v 0.0105860558595541 0.00682522694404406 -0.0963087726483527
v 0.013206313018078 0.0180032983516298 -0.115385253876698
v 0.0186557247075733 0.00539649964320969 -0.0976233806171351
v 0.0297988043639249 0.00554136627178943 -0.10530551453891
v 0.038505506187907 -0.000500086 -0.0610481027622048
v 0.066074255518332 0.00818886768418592 -0.110856558410484
v 0.0646136269919353 0.0128581994847625 -0.113381802354914
v 0.0226189659919481 0.0054917846745073 -0.0999795182392825
v 0.0297734619130212 0.00679787936020705 -0.0965075882591399
v 0.0496071765822227 0.00552580331279857 -0.106058269347462
v 0.0384116979780862 0.00535332838165684 -0.0967280005097566
v 0.0656080153901266 0.0174800089482838 -0.115285972352383
v 0.0756903780359437 0.0237413698230284 -0.126967050003202
v 0.0703250441717287 0.00133703915846717 -0.116759135587734
v 0.0911937726538078 -0.000500420928975839 -0.106110349743992
v 0.043282918075128 0.00541383995984197 -0.103438652781657
v 0.0588194741702142 0.00550070852339993 -0.0975699747497764
v 0.0579345443225154 0.0335984388047699 -0.122197449717927
v 0.0516653148251322 0.00681615659524726 -0.0964553894074291
v 0.0793163011361435 -0.000143976422850092 -0.112698357426275
v 0.0882685042246378 0.00191852410684246 -0.113700408999296
v 0.0719274273787728 0.00548253865725298 -0.105468526761908
v 0.0651455902809494 0.00544674844146669 -0.0984804906582292
v 0.0727113599690167 0.0125896217053629 -0.112238181607629
v 0.0903532080639522 0.00794647721634689 -0.116599324556576
v 0.0843911043444683 0.00890149647129501 -0.107642773309079
v 0.0816470521393179 0.00603744647261049 -0.105387680457712
v 0.0727638888880496 0.0242632146842565 -0.117938176102874
v 0.0850903895061625 0.0202312842502472 -0.113409758520795
v 0.0843369120744653 0.0269446661554191 -0.116811629109399
v 0.0592563586024704 0.00544233134443217 -0.0197740944873243
v 0.0721645493525791 0.00668350845047714 -0.0221598262990933
v 0.0738229817125806 0.00679025070317365 -0.0945497485791931
v 0.0794324218979194 0.00575196625800186 -0.0958217418175611
v 0.0927989456279619 0.0159870773369022 -0.119927087167973
v 0.0980070227406529 0.0314983217614468 -0.126118140750492
v 0.100242060540686 -7.90184501036351e-05 -0.10291758456683
v 0.103488304677346 0.00182231110450493 -0.103433371989632
v 0.110012994855079 -0.000495232044721849 -0.0812892613331808
v 0.0902853603372185 0.00744342500308418 -0.102728083117048
v 0.08893327131024 0.0122987600149713 -0.107173123829145
v 0.089883846167233 0.0220119274392552 -0.112574161186068
v 0.105875813687363 0.00763978434462942 -0.106060609318792
v 0.0984250831654174 0.0139392780068173 -0.101832054098088
v 0.0852443920093426 0.00533924097304425 -0.0903658476824959
v 0.0906145800153958 0.00539337264604257 -0.096591699840864
v 0.0815862526039555 0.00540891834587008 -0.0149074886844097
v 0.0856420817715864 0.00542165606353356 -0.0211942520038866
v 0.0972786696135373 0.00720200141963076 -0.0973676083526835
v 0.101414241532828 0.00665480353187856 -0.0902355622357951
v 0.0979377996353381 0.00610872860157622 -0.0891746765347956
v 0.0936145443573449 0.00682493485246991 -0.0863714953327112
v 0.113798645043285 0.00240879809950734 -0.0887695923924701
v 0.11093736101908 8.88989307648302e-05 -0.0887157264276581
v 0.117392739183969 0.0101055871900115 -0.0912559607277643
v 0.113854364787614 0.000940825512288475 -0.0837006180936228
v 0.109303132895761 0.0166169862452286 -0.109305977446379
v 0.1129648019519 0.0261852669438731 -0.112760550408767
v 0.105160714552109 0.0234335303578241 -0.102432995729016
v 0.120922260987185 0.0194075527560189 -0.0945429283495565
v 0.100535806553123 0.0115060145652981 -0.0981752519711296
v 0.105471164024127 0.0153775835376684 -0.0943899088214177
v 0.108325128946118 0.0145528307998777 -0.0894069423131318
v 0.10300979026446 0.005402587461336 -0.0800509058013097
v 0.108000748105311 0.00938260648690192 -0.0844975166642918
v 0.105534511417868 0.00656598449923511 -0.0834693950550522
v 0.106868277761025 0.0198209594183454 -0.0965705757159983
v 0.110868299976088 0.0150747462871683 -0.0847874742450863
v 0.114200206754453 0.0237545168568065 -0.089046249548776
v 0.119411752106028 0.0112790841087604 -0.0839535163991627
v 0.125680428853034 0.0309521442135692 -0.0981506370231271
v 0.124072278294501 0.0232873635927864 -0.0892529287017787
v 0.12687690958889 0.0236067764973831 -0.0753786932836453
v 0.00301029120123952 0.00556931743716793 0.000929313368354039
v 0.0184413800175091 0.005406269360532 0.000356093716421142
v 0.00923271413131481 0.00671047689309275 0.00651645126561423
v 0.0224409761490262 0.00547842198376152 -0.0125361431987355
v 0.0314493981191423 0.0066692713491383 0.0111788843779185
v 0.0385695792055194 0.00532410277977821 -0.0100890526108868
v 0.0292985934089634 0.00673668731520082 0.0968959406301113
v 0.110936606381441 -0.000498607000105225 -0.0342472895011083
v 0.0434314670841781 0.00548029320053205 0.0144952903214873
v 0.0503120613877447 0.00672543622822285 -0.00636721386756629
v 0.110685667755805 -0.000498787583662663 -0.00435658277920598
v 0.0749529294085843 0.00664694970232773 0.093407639964881
v 0.0612351384328701 0.00533219362379554 0.0414821244057821
v 0.010776778981544 0.00680963283288092 0.0969467082917345
v 0.0415428609898034 -0.000500086 0.0729024212837126
v 0.00278814637609674 0.00548078056344052 0.100585759091333
v 0.0178398443946827 0.00544552307738109 0.105465487429771
v 0.0224610410434223 0.00547359532259806 0.0982826742200481
v 0.0379111579918004 0.00542347507673559 0.103572059094969
v 0.0754897915538838 -0.000500086 0.0426845946249037
v 0.0514994048297988 0.00685510060528791 0.0966614857520361
v 0.0656475217906461 0.00550145775386093 0.0953647129871516
v 0.0723747202994373 0.00670200613371515 0.0954672751444506
v 0.059242702910565 0.00542701101559867 0.102145106426167
v 0.0811384196526371 0.00545993250532336 0.102316263409383
v 0.11563485670627 0.000474351767959861 -0.0695214422263859
v 0.115197973040755 0.000210337921459219 -0.0373424289411481
v 0.1155683201131 0.000723150294704346 -0.0522068960914437
v 0.108692784738359 0.00646349038954019 -0.0698335430904413
v 0.10660974767193 0.00565160883883762 -0.0677388572821268
v 0.111738255942102 0.00983759450682514 -0.0673535152966402
v 0.11039542843256 0.00767424372938855 -0.0625331449050042
v 0.121485355582148 0.0320657768738961 -0.0730331563214106
v 0.102728215474815 0.0053410106182819 -0.00891239040669548
v 0.111821675628146 0.0099416922821013 -0.0250059865821348
v 0.092542466401859 0.00671392128369872 0.0860592259278333
v 0.0947774681988946 0.00670412963858378 0.0136638577561904
v 0.114552883350644 0.000475999530628617 -0.024611287865556
v 0.114132347641784 5.08140688898419e-05 0.000917505466139223
v 0.118386532999172 0.00485265095805908 -0.0731278723799191
v 0.118811565157499 0.00551866764784933 -0.0621907381120892
v 0.11778118050255 0.00407119352445367 -0.0476170265935634
v 0.122176322831165 0.0133879443782368 -0.0756136661054527
v 0.122748306237102 0.0136864342213246 -0.0691131551526655
v 0.121431692360003 0.0109271611239123 -0.0654574817606471
v 0.121676417255695 0.0118879259191268 -0.0562661076822191
v 0.12721667157291 0.0243077574400828 -0.0313068918359807
v 0.117367222000411 0.00333031000839876 -0.0277504930121659
v 0.117102392229318 0.003117844519489 -0.00345238542286896
v 0.121653081854255 0.011805791421932 0.00576906481419159
v 0.119189879129478 0.00624453837284617 -0.00244753160814914
v 0.122618133118834 0.0135549616512456 0.0131930461026948
v 0.126231771241433 0.042816165293017 -0.00885908571585146
v 0.127284559007816 0.0245823606345235 -0.000455157181191712
v 0.0856978278536558 0.00542915044525261 0.0869297653407805
v 0.101384305524105 0.0055243039853172 0.081481256065837
v 0.112258206752462 -0.000464102626554047 0.0476906722251145
v 0.115992138239397 0.00105563318360838 0.0194439351331606
v 0.115042653178823 0.000392023428726178 0.0370398170806299
v 0.11267620388151 0.0118771047648667 0.0342627759253036
v 0.105695191659531 0.00545116880687981 0.0668801503920635
v 0.109559372912419 0.00686387969506408 0.0657911348548252
v 0.111658563821677 0.00965405974613226 0.0672803466483245
v 0.0968724316160027 0.00634241704245512 0.0902285017730432
v 0.110900156680603 -0.000470010532898013 0.0791095014901151
v 0.115346429668359 0.000812164464111077 0.0495542412157972
v 0.115936641993158 0.00131875240840969 0.0696198722653424
v 0.113623246297626 -0.00011180473326903 0.0722808786062746
v 0.108330645400103 0.00684538364688904 0.0723073518725997
v 0.11718199261395 0.00239313870360707 0.00234693824706808
v 0.118680875042054 0.00533247581365154 0.0110482100984627
v 0.117584053630757 0.00376035212521009 0.0419495446333399
v 0.119053443674755 0.00598987843028975 0.0735307038585835
v 0.12299550400121 0.0142640675117143 0.0732706275995527
v 0.121779905756409 0.0122682674148924 0.0747823087346705
v 0.127190350184664 0.02419984088301 0.046856755454628
v 0.11720726121798 0.00330403408275699 0.0640841750269062
v 0.115637210515038 0.00206892798672065 0.0754800944190033
v 0.126049965931561 0.0424379792099664 0.0757721889675362
v 0.127446498002141 0.0255062565934536 0.0771930055994479
v 0.0596688769094541 -0.000455065057997289 0.112568034941011
v 0.0316059696489752 0.00557798663252433 0.106008178048139
v 0.0672323676862545 0.0100180129940242 0.111852012234934
v 0.029717154987956 -8.42710612150299e-05 0.113973896846419
v 0.0326971835658565 0.00132956497914827 0.11643939079753
v 0.0578038396410521 0.0049245263846438 0.11807361895374
v 0.0677945717540762 0.00840069219703743 0.120523831107106
v 0.0431695631358937 0.00539454603140511 0.0999387845838985
v 0.052875494775477 0.00551604262695497 0.105680979667674
v 0.0944132502465652 -0.00046907437419928 0.104290527615254
v 0.0846717559423895 -0.000193920570940372 0.110677719629434
v 0.071857945539776 0.00543971626048209 0.104659866303455
v 0.0763298741846108 0.00741723207624706 0.10859753687207
v 0.0532703699599075 0.000648241115558751 0.116028982658173
v 0.0758356074331621 0.0292764069577576 0.129267703779609
v 0.0685135657560889 -0.000101709276960599 0.113906373160463
v 0.0690452538274313 0.00161850112842032 0.116702163462726
v 0.0797147605129478 0.00110942782986212 0.114277961784666
v 0.0833153318910486 0.00855253441424031 0.118206157487463
v 0.0724675260376122 0.0102926137250279 0.121249736512855
v 0.0818892212179723 0.0177659712105385 0.122961798327889
v 0.0834836662398593 0.009942052453912 0.108600042247526
v 0.106070877619327 -0.000459724312873766 0.0920613720162462
v 0.101092831486778 -0.000444126697762616 0.097745361632168
v 0.0885096964377966 0.00187502926265992 0.112712668253419
v 0.0973812438189083 0.00121725765659036 0.10611864775443
v 0.0941349163697138 0.00469821094022382 0.111089263287518
v 0.0894491882390517 0.00541194660423794 0.0965024308352228
v 0.0857805405045858 0.00673094559708731 0.104370489323573
v 0.0897183705662972 0.00888504492290032 0.104171862258665
v 0.0930132910548638 0.00740516240951072 0.100549157394057
v 0.0954479174338231 0.00612525364084007 0.0959624228467394
v 0.0993711220723948 0.00682759501732733 0.092274916350353
v 0.0985831433826451 0.00863869784016308 0.0976622746227018
v 0.0905984039019216 0.028335082457744 0.116137791836216
v 0.109719473500857 0.041164771934767 0.111677956331315
v 0.110643013165386 0.000190870107321302 0.0887825356463465
v 0.1143821663536 0.00356969067361768 0.0880696604857186
v 0.117179566205808 0.00642544271529266 0.0816480117818486
v 0.116742906975176 0.00785758689387905 0.0896010787250496
v 0.103032973284908 0.00211579063294368 0.103169130262974
v 0.106069343005048 0.00176995107934008 0.0980910052054282
v 0.10189338539799 0.00654812812493932 0.107542087412247
v 0.106286281512383 0.00768907354938042 0.105642202577995
v 0.11278109960139 0.00832695523526628 0.0963670558110605
v 0.109609921686038 0.0087049927594709 0.101507486609354
v 0.107132058190325 0.00741859045026345 0.0826641489240796
v 0.101702344827959 0.00622106511936931 0.0871124200723861
v 0.105012413724646 0.0086870473452334 0.0882838506619104
v 0.113013673600005 0.0207941767477351 0.0879040365611363
v 0.105652136034578 0.0254354191680619 0.103579270029982
v 0.0971930254379929 0.00881741024770699 0.112651624790922
v 0.103493290190299 0.0175161294720221 0.113663756285666
v 0.11405311552658 0.0152852276564426 0.100799480225998
v 0.108792916122367 0.0154159109390761 0.108818472597997
v 0.116264756305042 0.0318266775740099 0.112963265368073
v 0.0898499283672763 0.00754993063816478 0.116455848520902
v 0.0925777383133723 0.0151234985633506 0.119417477892474
v 0.0833540572263579 0.0262970425333684 0.126615699688773
v 0.0976471575047606 0.0186835821867442 0.11814695505672
v 0.0960982626126627 0.0240549231678209 0.122863175330643
v 0.12099482464951 0.0143334718790937 0.0829714185324821
v 0.119071010332115 0.0152932406707733 0.0931816390253841
v 0.125613077920429 0.0229131200174812 0.0808324508594005
v 0.123984451158127 0.0229760719346448 0.0883788071166469
v 0.126256153976105 0.0315858947171117 0.0977387080163954
v 0.121182837808182 0.0320571710030189 0.105710669884594
v 0.00551454476738578 0.0344132076446526 -0.300258096446066
v 0.00834629232900563 0.0322257635544401 -0.293932825860479
v 0.0111636101601096 0.0362606999654204 -0.29417882427004
v 0.00706828694794526 0.0395323970229408 -0.299241657385864
v 0.0108175995697044 0.0404100904598137 -0.292894022169295
v 0.00250190306890376 0.0307474998569323 -0.289887070055514
v 0.00583637201467627 0.0294930888955559 -0.287639870255811
v 0.00216838895362691 0.0316143921524308 -0.286329261972394
v 0.0114121428416575 0.0303065610871297 -0.28216283024031
v 0.00477112163631999 0.0278651483720264 -0.281872410366345
v 0.00757879793655937 0.0277574052347197 -0.263565305419482
v 0.00226291675310511 0.0421595197349368 -0.28884994287602
v 0.00201843010643513 0.0420791576627576 -0.286005272062147
v 0.00982780397077665 0.0431355879921711 -0.288969301922687
v 0.0150432155614311 0.0339259053869748 -0.282632810388927
v 0.016505464149311 0.0323773581032873 -0.261969636094929
v 0.0154662145655717 0.0395446122590825 -0.282629610472696
v 0.0112654721779595 0.0443363180173835 -0.281991925772424
v 0.00519012427721924 0.0455808341554047 -0.284761471285753
v 0.00713936628924671 0.0467597741986842 -0.266081667248937
v 0.0127525308711895 0.0296114173868196 -0.26199755481392
v 0.0170232363677159 0.0348021467401629 -0.268588018756981
v 0.0171290967325023 0.0380053535689081 -0.271874976397946
v 0.0173964914471208 0.0405903755865521 -0.261660283490786
v 0.0143229056604622 0.0435579934697612 -0.264878239378353
v 0.0183845354356549 0.0365251027575329 -0.2610559789208
v 0.0169107648131128 0.041132580275611 -0.251816737722934
v 0.00431248576005982 0.0271256256269937 -0.236790890732876
v 0.012674567331158 0.0294011314813962 -0.237461539071656
v 0.0178471531255072 0.0340546054917095 -0.237529699975876
v 0.0181011456512334 0.0381825955076102 -0.234541388038993
v 0.0170710784283156 0.0408878788749547 -0.233969670658832
v 0.0161188472879653 0.0413983533506635 -0.239657941496831
v 0.0126446635664142 0.0447391897759894 -0.257381508251745
v 0.00679555705104114 0.0469448425903496 -0.23782921010154
v 0.01378415019646 0.0441339581107205 -0.246874595972652
v 0.013004998590703 0.0445653804007186 -0.234464416233408
v 0.00676549278669741 0.0280814253175579 -0.218217267831148
v 0.0125819218733406 0.0309422535045722 -0.219883212640142
v 0.0169357112224855 0.0351713112163013 -0.230029118518451
v 0.0147874204277115 0.0335263184228915 -0.220341262937598
v 0.0145648847421278 0.0397649279450756 -0.215862537775722
v 0.0148800176999875 0.0363616778852855 -0.215383969454782
v 0.0134658796644104 0.0425860223429302 -0.219535981820404
v 0.00647444714375212 0.0303244242050774 -0.201615277725033
v 0.0099304948309486 0.0310122725422868 -0.207300234706793
v 0.0101255212205965 0.0334287061443735 -0.199596126510266
v 0.0127383031877484 0.03460747355245 -0.206061441774942
v 0.0121286928792712 0.0390312730921478 -0.202517547238666
v 0.0109923592774744 0.041753011851069 -0.203337828040388
v 0.00637856056945378 0.0439957147413675 -0.198121429745614
v 0.00372029441645634 0.0469992665827114 -0.217392023835038
v 0.00846124353846308 0.045493337202401 -0.214861388793062
v 0.00867645427366328 0.0334588095360345 -0.192024018816199
v 0.00680329664012509 0.0309388253646955 -0.176387431543632
v 0.00716920709943276 0.0428169071021509 -0.191866721322341
v 0.0101824879853375 0.0390883876970076 -0.192116101064001
v 0.00994447860964384 0.0410054268106427 -0.181017899937073
v 0.0101727449878772 0.0359243260504743 -0.191412879742822
v 0.0106407332619462 0.0334513897204657 -0.172308201569388
v 0.00576955700288347 0.0302104800860898 -0.154720470863976
v 0.00973129033773401 0.0323032385705968 -0.154203239662142
v 0.00973920442058939 0.0421603227904187 -0.164994920394184
v 0.0121999428333691 0.0357989955759566 -0.154899180281374
v 0.012073326993408 0.0360156341122732 -0.16605550404068
v 0.0118945700162708 0.0391369436831568 -0.165295024994021
v 0.00617711413378226 0.044055986865009 -0.163906275791045
v 0.00672591005600775 0.0324789515316055 -0.149924795740307
v 0.00488631449010797 0.0318146827538016 -0.134029316581517
v 0.0105362906497752 0.0354258102136483 -0.134315719518649
v 0.0103249198797821 0.0360577017718522 -0.149685617639568
v 0.00824442613944038 0.0409665409598147 -0.14949664177349
v 0.0109402409825883 0.0413702419524617 -0.155330073416231
v 0.00751485959015159 0.0415486948935768 -0.140122954271249
v 0.0103796636365343 0.0370044596996386 -0.140785552105872
v 0.00832980218689106 0.0426567829586506 -0.136708446489037
v 0.0109917887211844 0.0398200764648296 -0.136366506301348
v 0.00664609558954432 0.0386207968349792 -0.124686336619141
v 0.0154551463385585 0.041990558595475 -0.134553310825277
v 0.0758072895028382 0.0457257457327607 -0.128475868693066
v 0.0593827568727843 0.0402957020774908 -0.125085539873379
v 0.0803891367792036 0.0445509051329795 -0.134732473702806
v 0.0352199689952296 0.0461611381333005 -0.133861497408109
v 0.0527798314307566 0.0363688448154802 -0.123851536047412
v 0.057450239695611 0.0465952132277308 -0.132023028193973
v 0.081117760438556 0.0460659637323294 -0.133949767189565
v 0.0707401341722018 0.0338900494421726 -0.122439539140044
v 0.0804438805323799 0.0416375845326078 -0.134471781331697
v 0.0772540218383536 0.0423422173297716 -0.125824679331162
v 0.0777490492082612 0.0313023299000275 -0.120361709989787
v 0.0939306292495866 0.0466641916692764 -0.127757901590302
v 0.0923973742916129 0.042894846543994 -0.123177241841262
v 0.100776918016318 0.0452888016670317 -0.130745740708254
v 0.100834351095265 0.0413060176988811 -0.130165524195149
v 0.0977369497796192 0.0463932501111613 -0.130182952453353
v 0.0877594886638611 0.0458859525231885 -0.126567904832885
v 0.0995007957195391 0.045852767891383 -0.122518145125494
v 0.108160623315758 0.0413886703332511 -0.125503597942767
v 0.108715554227496 0.0459656245631581 -0.125699148540043
v 0.116088830880987 0.0348325527308475 -0.116091886961454
v 0.118527417957181 0.0416360676750196 -0.118661606798093
v 0.115540918879794 0.0457099474041097 -0.12112847597984
v 0.112228711573096 0.0463849087372984 -0.114862119226188
v 0.0915508126268834 0.0322694691803935 -0.117919310300796
v 0.0992990284485473 0.0417508828122521 -0.119155193560301
v 0.106144828333007 0.0307658690266823 -0.107312740148473
v 0.107783365326403 0.0419888355165283 -0.113688616623828
v 0.112652350362135 0.0425368280526407 -0.109605878620652
v 0.118647715296113 0.0341106654087149 -0.0922759786706528
v 0.12206301642873 0.0423179729169602 -0.09506410647018
v 0.124644556641416 0.0465017457869824 -0.108876732653233
v 0.117433866083458 0.0463420044584405 -0.108479012101188
v 0.130078412192437 0.0413783794143974 -0.101192255906007
v 0.128034146996452 0.0453520534077142 -0.105484450419987
v 0.12623380826701 0.0429075213802965 -0.0762450456679937
v 0.132695421985398 0.0412080386345801 -0.0882618478028263
v 0.129732611922697 0.0303936972329576 -0.0773149259515757
v 0.134415341160554 0.0415202152281077 -0.0801462758124443
v 0.133032041053583 0.0444114761227354 -0.089349273890031
v 0.119998714997091 0.0460044502652816 -0.117080159604476
v 0.124420672349343 0.0463379366045605 -0.097468186133121
v 0.130799773492223 0.0459459026439338 -0.0989271883486991
v 0.126851300259974 0.046470046829491 -0.0907640498514526
v 0.128419845295022 0.0457602347578774 -0.0778930402157599
v 0.13380317797479 0.0461266449387079 -0.082536512082011
v 0.130795255382176 0.0466076710218205 -0.0762116175532351
v 0.134984614579528 0.0445654949201181 -0.0797248889381971
v 0.127948328055273 0.0270647467462755 -0.0735412492852644
v 0.129935883058528 0.0308133598378019 -0.0266862739333288
v 0.134234642371827 0.0409420976359059 -0.0329327096254226
v 0.134905756253534 0.0446492004933147 -0.0304980010240062
v 0.129398273742766 0.0462349939317616 0.010147728954923
v 0.128042232349593 0.0453258257942969 0.0297062016418975
v 0.133953971966573 0.0461023489180905 -0.0273451741430613
v 0.127948132425062 0.0270796791096594 -0.0227363070756521
v 0.129648393238548 0.0303575857362898 0.00484328412050011
v 0.134399523442196 0.0413677439186552 0.0334260584802039
v 0.134927601219715 0.044586486622394 0.0202095200305227
v 0.130870313490027 0.0466289163144812 0.0231881162711408
v 0.127847235069189 0.0265809040315824 0.0485498385199506
v 0.130102648474935 0.0311095089869298 0.0515117490912541
v 0.133923849625688 0.0460581731825245 0.0271491656419316
v 0.134023706428959 0.0404706802809626 0.0797085003634932
v 0.134867395256109 0.0445556847612168 0.0596539717579931
v 0.129679620160722 0.0305081627003428 0.0774498370282362
v 0.130269452345149 0.0466008504430347 0.0860203802738736
v 0.133784849523764 0.0460169056070361 0.0826515443946045
v 0.128539627154763 0.0459390273919127 0.0773973391942666
v 0.134731315906907 0.044431543244274 0.0828474026348738
v 0.0229635966931215 0.0329516932022171 0.130470011392624
v 0.0797734465287472 0.034369270303876 0.131222837587614
v 0.0875301077252647 0.0465752426796455 0.130306570798398
v 0.0784613245503915 0.0460213888614956 0.128748778447443
v 0.0811808738807569 0.0446655046439879 0.134765781861062
v 0.0823265560163261 0.0460357458035806 0.133657486233259
v 0.0757763413158892 0.0427103361540571 0.126155824337253
v 0.0880710891399974 0.0457264346109872 0.12614890695344
v 0.117369625598353 0.0320330654803875 0.0922756179150337
v 0.118687214621489 0.0449846300066057 0.103318799284713
v 0.114139969739567 0.0454644514703672 0.111538460717247
v 0.118476014256772 0.0466909884613166 0.111047264514691
v 0.0947497284465619 0.0427659655291937 0.122478828423502
v 0.0929840075301929 0.0436548250213916 0.13286938053725
v 0.0979250617611691 0.0327915374297527 0.126768454142401
v 0.101256350174692 0.0428967160542457 0.130862292700742
v 0.100449145895867 0.045619863967641 0.121794571810649
v 0.10186041582496 0.045612981047558 0.13005289319628
v 0.104527883480547 0.0365532925782048 0.124837086062149
v 0.10864354976521 0.0343744373728403 0.120518862755437
v 0.108681712878553 0.0436406084701508 0.126333253843962
v 0.113841349389176 0.0324955601681785 0.116190066738503
v 0.118335537649088 0.0429945097952837 0.119623500293108
v 0.10863076144116 0.0457239892625221 0.116416752027861
v 0.102985758543432 0.046673828539422 0.123691291688641
v 0.11255127224686 0.0466478362354761 0.117596684967185
v 0.115768189392171 0.0456548969302275 0.12101619640897
v 0.123273219816039 0.0448613088040871 0.0960382682464496
v 0.130098872103996 0.0383904455497586 0.0947508532412034
v 0.124344043527671 0.0407326735522613 0.10935020467894
v 0.129763158939935 0.0401392691425984 0.100442372081043
v 0.126156602782716 0.0444499519830572 0.108452692246751
v 0.130758057054916 0.0440812470019439 0.101507106965329
v 0.126003207602783 0.0459159602182736 0.0896000890808093
v 0.123547960113368 0.0466543411781415 0.103340950395955
v 0.12977459014879 0.0459404938207594 0.101216401117712
v 0.123065033006804 0.0457163728040024 0.111727136303451
v 0.121811509227856 0.0438555587782603 0.115233621856254
f 3 1 2
f 3 4 5
f 10 9 6
f 10 8 9
f 1 12 11
f 12 13 11
f 11 2 1
f 11 14 2
f 14 11 15
f 14 15 16
f 11 17 15
f 11 13 17
f 9 12 1
f 7 9 1
f 21 22 18
f 23 24 25
f 26 23 25
f 29 27 23
f 28 24 23
f 28 23 27
f 34 31 33
f 18 19 31
f 34 18 31
f 31 19 32
f 35 33 26
f 25 35 26
f 35 36 33
f 32 23 26
f 32 26 31
f 31 26 33
f 29 32 19
f 29 23 32
f 29 19 20
f 37 12 9
f 37 13 12
f 9 38 37
f 38 9 8
f 37 39 13
f 13 39 17
f 42 34 40
f 18 34 42
f 18 42 21
f 6 9 7
f 44 22 21
f 44 21 43
f 40 41 45
f 45 41 46
f 47 40 45
f 47 42 40
f 43 21 42
f 47 48 42
f 43 49 50
f 49 42 48
f 49 43 42
f 34 33 41
f 34 41 40
f 41 33 52
f 33 36 53
f 33 53 52
f 41 52 46
f 54 55 8
f 38 39 37
f 17 39 56
f 39 57 56
f 48 58 49
f 47 45 59
f 48 47 59
f 60 58 48
f 61 49 58
f 50 49 61
f 59 60 48
f 59 45 62
f 59 62 63
f 46 64 45
f 64 65 45
f 45 65 62
f 38 67 39
f 39 67 57
f 61 69 50
f 69 70 50
f 59 63 72
f 63 71 72
f 63 62 68
f 63 68 71
f 71 74 72
f 55 75 8
f 38 8 76
f 59 72 79
f 59 79 60
f 58 77 61
f 60 77 58
f 79 72 81
f 72 82 81
f 72 80 82
f 72 78 80
f 78 83 80
f 38 84 67
f 38 76 84
f 57 85 56
f 61 77 69
f 79 88 87
f 79 87 60
f 79 81 88
f 82 90 81
f 81 90 89
f 2 92 91
f 91 92 93
f 4 3 91
f 2 91 3
f 91 94 4
f 93 96 91
f 94 91 96
f 92 16 98
f 14 92 2
f 14 16 92
f 101 15 102
f 25 95 97
f 25 24 95
f 35 104 103
f 35 25 104
f 25 97 104
f 30 24 28
f 24 30 95
f 35 103 36
f 15 17 102
f 36 105 53
f 52 106 46
f 46 106 107
f 16 15 101
f 16 101 98
f 102 108 101
f 104 109 103
f 104 111 110
f 97 111 104
f 104 110 109
f 100 97 99
f 97 100 111
f 109 112 103
f 103 112 36
f 92 113 93
f 92 98 113
f 113 98 114
f 93 113 115
f 113 114 116
f 93 115 96
f 115 117 96
f 112 122 36
f 36 122 105
f 108 121 101
f 52 123 106
f 53 123 52
f 98 101 114
f 124 101 121
f 114 101 124
f 100 119 111
f 111 119 125
f 100 118 119
f 105 122 126
f 105 126 53
f 126 123 53
f 17 56 102
f 66 65 64
f 65 129 62
f 46 107 64
f 56 131 102
f 73 71 68
f 71 132 74
f 62 133 68
f 62 130 133
f 133 73 68
f 107 66 64
f 62 129 130
f 66 134 65
f 102 131 108
f 83 135 80
f 80 136 82
f 80 135 136
f 72 74 78
f 82 136 90
f 90 138 89
f 90 139 137
f 136 139 90
f 90 137 138
f 135 83 140
f 74 141 78
f 78 141 83
f 135 140 136
f 140 142 136
f 138 143 89
f 65 134 129
f 108 131 144
f 108 144 121
f 133 145 73
f 73 132 71
f 106 128 107
f 128 146 107
f 107 146 66
f 129 147 130
f 132 148 74
f 130 147 133
f 73 145 132
f 145 149 132
f 141 150 83
f 83 150 140
f 150 142 140
f 144 131 151
f 136 152 139
f 121 144 127
f 127 144 153
f 150 154 142
f 154 152 142
f 150 141 154
f 142 152 136
f 139 152 155
f 139 155 137
f 138 156 143
f 113 116 115
f 117 115 157
f 115 116 157
f 157 158 117
f 157 159 158
f 114 124 116
f 124 127 160
f 116 124 161
f 161 162 116
f 124 160 161
f 109 110 163
f 110 111 125
f 110 125 163
f 163 164 165
f 125 119 120
f 125 120 163
f 120 166 163
f 163 167 164
f 163 166 167
f 165 164 168
f 109 163 112
f 112 163 122
f 169 163 165
f 163 169 122
f 165 168 169
f 122 171 126
f 122 169 171
f 169 170 171
f 116 159 157
f 116 162 159
f 164 172 168
f 168 172 173
f 168 170 169
f 173 176 168
f 124 121 127
f 161 160 177
f 127 178 160
f 160 178 177
f 126 171 123
f 123 128 106
f 170 180 179
f 170 168 180
f 168 175 180
f 170 179 171
f 180 181 179
f 180 175 181
f 168 176 175
f 181 175 182
f 175 176 182
f 123 171 128
f 171 179 128
f 179 181 184
f 181 182 184
f 128 179 185
f 179 184 185
f 162 186 159
f 159 186 174
f 186 187 174
f 161 177 189
f 177 190 189
f 177 178 191
f 177 192 190
f 177 191 192
f 161 189 162
f 162 189 186
f 190 193 189
f 189 193 186
f 190 192 193
f 186 194 187
f 186 193 194
f 187 194 197
f 66 146 134
f 134 147 129
f 128 183 146
f 146 183 134
f 128 185 183
f 185 184 198
f 183 185 199
f 185 198 199
f 134 183 147
f 147 183 149
f 183 199 149
f 147 145 133
f 132 149 148
f 145 147 149
f 149 199 200
f 178 201 191
f 191 202 192
f 192 203 193
f 184 196 198
f 193 203 194
f 184 182 196
f 196 204 198
f 203 205 194
f 201 202 191
f 198 204 206
f 192 207 203
f 202 207 192
f 74 148 141
f 148 200 141
f 148 149 200
f 199 198 208
f 141 200 154
f 154 200 152
f 200 199 209
f 199 208 209
f 200 210 152
f 200 209 210
f 127 153 211
f 127 211 178
f 137 156 138
f 137 155 156
f 155 152 210
f 155 210 156
f 208 198 206
f 178 211 201
f 201 211 212
f 201 212 202
f 212 213 202
f 202 213 207
f 203 207 214
f 212 216 213
f 207 213 214
f 213 216 214
f 217 219 218
f 220 218 221
f 218 222 221
f 219 217 223
f 218 219 222
f 223 225 224
f 223 217 225
f 223 224 226
f 219 223 227
f 223 226 227
f 218 229 228
f 218 220 229
f 228 229 230
f 228 217 218
f 217 228 232
f 217 232 225
f 225 232 233
f 232 228 234
f 220 221 235
f 220 235 231
f 221 236 235
f 235 236 237
f 229 220 231
f 231 239 238
f 235 237 231
f 231 240 239
f 237 240 231
f 236 241 237
f 241 236 242
f 241 243 237
f 237 243 240
f 225 233 245
f 233 246 245
f 225 245 224
f 245 247 224
f 224 244 226
f 242 244 241
f 224 241 244
f 241 247 243
f 224 247 241
f 243 247 248
f 247 245 248
f 229 231 249
f 230 229 249
f 234 228 230
f 232 250 233
f 232 251 250
f 232 234 251
f 230 252 234
f 234 252 251
f 231 238 253
f 253 249 231
f 230 249 254
f 254 249 255
f 252 257 251
f 256 230 254
f 230 258 252
f 230 256 258
f 252 259 257
f 252 258 259
f 253 255 249
f 253 238 260
f 255 253 260
f 233 250 246
f 246 250 261
f 261 250 262
f 246 262 245
f 246 261 262
f 245 262 248
f 262 263 248
f 251 257 250
f 250 257 264
f 262 264 265
f 250 264 262
f 257 259 264
f 267 269 1
f 269 267 270
f 267 1 266
f 266 271 268
f 266 5 271
f 5 266 3
f 266 1 3
f 273 30 272
f 272 28 274
f 275 273 272
f 267 268 276
f 267 266 268
f 276 268 277
f 270 267 278
f 278 276 277
f 267 276 278
f 278 277 279
f 277 281 279
f 277 280 281
f 280 274 281
f 282 283 268
f 268 271 282
f 268 284 277
f 268 283 284
f 275 284 285
f 283 285 284
f 277 284 280
f 284 275 280
f 275 272 280
f 272 274 280
f 275 285 286
f 269 287 7
f 269 270 287
f 7 287 288
f 270 278 287
f 278 279 287
f 287 279 289
f 287 289 290
f 288 287 290
f 7 54 6
f 7 288 54
f 54 10 6
f 51 295 293
f 292 293 295
f 288 290 294
f 290 297 296
f 294 290 296
f 290 289 298
f 291 292 298
f 291 299 292
f 291 298 289
f 290 298 297
f 288 294 54
f 298 292 300
f 295 300 292
f 298 300 297
f 269 7 1
f 274 28 20
f 274 20 22
f 19 18 22
f 19 22 20
f 299 22 44
f 27 29 20
f 28 27 20
f 272 30 28
f 274 22 281
f 289 279 291
f 279 281 291
f 281 299 291
f 22 299 281
f 43 293 44
f 292 299 44
f 293 292 44
f 43 51 293
f 43 50 51
f 254 301 256
f 254 302 301
f 254 255 302
f 302 255 303
f 256 304 258
f 258 305 259
f 304 305 258
f 301 306 256
f 256 306 304
f 305 307 259
f 255 260 303
f 260 308 303
f 301 302 309
f 304 306 305
f 301 311 306
f 301 309 311
f 305 312 307
f 305 306 312
f 312 313 307
f 309 314 311
f 309 310 314
f 306 311 312
f 302 303 315
f 308 315 303
f 309 302 316
f 302 315 316
f 315 317 316
f 315 318 317
f 259 265 264
f 259 307 265
f 265 319 262
f 262 319 263
f 265 307 319
f 313 320 307
f 313 321 320
f 312 321 313
f 307 320 319
f 311 314 312
f 314 323 312
f 314 310 324
f 314 325 323
f 324 326 314
f 314 326 325
f 309 316 310
f 316 327 310
f 316 317 327
f 310 328 324
f 310 327 328
f 327 317 329
f 323 321 312
f 323 325 321
f 325 330 321
f 324 328 331
f 326 332 325
f 325 332 330
f 332 326 334
f 332 335 330
f 328 327 331
f 327 336 331
f 327 329 336
f 321 337 320
f 320 337 322
f 321 330 333
f 337 338 322
f 321 333 337
f 333 339 337
f 337 340 338
f 337 339 340
f 10 54 8
f 295 51 341
f 341 51 70
f 54 294 342
f 341 344 295
f 296 297 345
f 343 300 295
f 344 343 295
f 54 342 346
f 70 347 341
f 294 296 342
f 342 296 345
f 300 348 297
f 345 297 349
f 343 348 300
f 51 50 70
f 55 54 346
f 70 86 347
f 341 347 344
f 345 349 350
f 324 351 326
f 324 331 351
f 351 331 352
f 334 326 351
f 351 353 334
f 332 334 335
f 353 355 354
f 334 356 335
f 334 353 356
f 353 354 356
f 331 357 352
f 331 336 357
f 352 357 358
f 335 356 339
f 339 356 360
f 352 353 351
f 352 358 353
f 356 354 361
f 356 362 360
f 356 361 362
f 355 363 354
f 55 355 358
f 355 55 363
f 363 55 346
f 358 357 359
f 359 364 358
f 75 55 358
f 75 358 364
f 86 366 365
f 358 355 353
f 354 363 361
f 362 361 367
f 347 86 344
f 86 365 344
f 344 365 343
f 330 335 333
f 333 335 339
f 346 342 363
f 342 345 350
f 363 342 361
f 361 342 367
f 342 350 367
f 349 297 368
f 348 368 297
f 86 70 69
f 5 4 94
f 30 369 95
f 30 273 369
f 275 286 273
f 273 286 369
f 95 369 97
f 369 99 97
f 369 286 370
f 282 371 283
f 282 372 371
f 285 283 373
f 371 373 283
f 94 374 5
f 99 369 375
f 369 370 375
f 5 374 271
f 271 372 282
f 271 374 372
f 285 370 286
f 285 373 370
f 94 96 376
f 94 377 374
f 94 376 377
f 374 378 372
f 378 371 372
f 374 377 378
f 371 379 373
f 376 96 117
f 99 118 100
f 99 375 118
f 375 370 118
f 118 370 380
f 118 166 119
f 373 379 370
f 379 380 370
f 376 382 377
f 377 383 378
f 377 382 383
f 378 383 371
f 383 384 371
f 371 384 379
f 117 381 376
f 381 382 376
f 117 385 381
f 119 166 120
f 166 118 386
f 386 167 166
f 118 387 386
f 387 118 380
f 386 387 167
f 167 387 388
f 387 389 388
f 158 385 117
f 381 390 382
f 381 385 390
f 385 391 390
f 158 174 385
f 159 174 158
f 167 388 172
f 172 388 393
f 385 395 391
f 385 174 395
f 391 395 392
f 387 380 379
f 383 396 384
f 387 379 397
f 384 397 379
f 384 396 397
f 387 397 389
f 382 390 383
f 383 398 396
f 383 390 398
f 391 392 398
f 390 391 398
f 398 392 399
f 397 396 389
f 396 393 389
f 389 393 388
f 398 399 396
f 396 400 393
f 392 401 399
f 394 393 402
f 396 399 400
f 400 402 393
f 395 174 403
f 392 395 401
f 164 167 172
f 172 394 404
f 172 404 173
f 404 405 173
f 393 394 172
f 394 402 404
f 402 406 404
f 405 404 406
f 405 406 407
f 174 188 403
f 174 187 188
f 173 405 176
f 188 409 403
f 405 407 176
f 407 410 176
f 403 409 408
f 409 411 408
f 399 401 412
f 406 402 407
f 402 413 407
f 402 400 413
f 395 403 412
f 395 412 401
f 399 412 414
f 403 408 412
f 407 413 410
f 400 399 414
f 408 414 412
f 400 415 413
f 400 414 415
f 182 176 195
f 188 187 416
f 176 410 195
f 409 188 411
f 188 416 411
f 410 204 195
f 195 204 182
f 187 417 416
f 187 197 417
f 416 417 411
f 411 417 419
f 410 413 415
f 410 415 420
f 410 420 204
f 415 421 420
f 411 418 408
f 408 418 414
f 415 414 418
f 411 422 418
f 415 418 423
f 411 419 422
f 422 423 418
f 415 423 421
f 182 204 196
f 194 205 197
f 197 205 417
f 205 424 417
f 417 424 419
f 204 420 426
f 424 425 419
f 205 427 424
f 424 428 425
f 420 421 429
f 203 215 205
f 205 215 427
f 203 214 215
f 424 427 428
f 425 430 419
f 420 429 426
f 429 421 431
f 419 430 422
f 430 432 422
f 422 432 423
f 421 423 433
f 432 433 423
f 421 433 431
f 206 204 434
f 204 426 434
f 8 75 435
f 75 364 435
f 435 437 436
f 67 84 57
f 60 438 77
f 76 8 436
f 8 435 436
f 88 81 439
f 81 89 439
f 439 440 88
f 441 69 438
f 77 438 69
f 69 441 366
f 88 442 443
f 88 440 442
f 84 85 57
f 85 444 56
f 60 445 438
f 445 446 438
f 443 442 447
f 87 445 60
f 438 446 441
f 87 88 449
f 88 443 449
f 441 446 451
f 447 448 443
f 448 450 443
f 437 452 436
f 84 76 453
f 85 454 444
f 449 443 455
f 443 450 455
f 451 366 441
f 457 366 451
f 455 458 449
f 449 458 456
f 76 436 453
f 453 459 84
f 84 459 85
f 85 459 454
f 453 436 460
f 87 449 461
f 449 462 461
f 449 456 462
f 445 463 446
f 87 463 445
f 463 87 465
f 461 466 87
f 451 446 463
f 451 463 467
f 463 469 467
f 463 468 469
f 456 470 462
f 461 462 472
f 461 472 473
f 462 471 472
f 436 452 474
f 453 460 459
f 459 476 454
f 460 476 459
f 476 460 477
f 460 436 464
f 464 436 474
f 466 465 87
f 465 468 463
f 466 479 465
f 468 465 480
f 465 479 480
f 468 480 481
f 460 464 482
f 479 483 480
f 480 483 481
f 461 473 484
f 466 461 485
f 461 484 485
f 473 486 484
f 486 487 484
f 466 485 479
f 479 485 488
f 485 489 488
f 485 490 489
f 479 488 483
f 485 484 491
f 485 491 490
f 460 482 477
f 454 476 478
f 476 477 492
f 476 492 493
f 476 493 478
f 493 492 495
f 464 496 482
f 474 496 464
f 474 475 496
f 475 497 496
f 488 500 483
f 500 502 501
f 488 489 500
f 490 503 489
f 489 503 505
f 505 504 489
f 489 502 500
f 489 504 502
f 483 500 506
f 500 501 506
f 483 506 498
f 477 494 492
f 477 482 494
f 482 496 494
f 494 496 499
f 504 507 502
f 501 502 506
f 502 507 508
f 502 508 506
f 496 497 499
f 494 509 492
f 499 497 510
f 494 499 509
f 499 511 509
f 509 511 512
f 56 444 131
f 89 513 439
f 439 513 440
f 440 514 442
f 513 515 440
f 442 516 447
f 448 517 450
f 447 516 448
f 442 514 516
f 517 518 450
f 89 143 513
f 516 519 448
f 448 519 517
f 450 518 455
f 518 521 455
f 455 522 458
f 455 521 522
f 458 470 456
f 444 454 520
f 131 444 151
f 444 520 151
f 520 523 151
f 472 486 473
f 471 524 472
f 472 524 486
f 470 525 462
f 515 526 440
f 440 526 514
f 144 151 527
f 144 527 153
f 513 528 515
f 526 529 514
f 514 530 516
f 516 530 519
f 517 531 518
f 522 533 458
f 458 533 470
f 151 523 532
f 462 534 471
f 525 534 462
f 471 535 524
f 151 532 527
f 518 531 521
f 533 536 470
f 521 533 522
f 470 536 525
f 534 535 471
f 454 478 520
f 484 487 491
f 493 538 478
f 493 495 538
f 478 538 539
f 539 538 540
f 478 539 520
f 503 541 505
f 503 542 541
f 505 541 504
f 504 541 543
f 504 543 507
f 541 544 543
f 507 543 508
f 508 543 545
f 490 546 503
f 491 546 490
f 503 546 542
f 491 487 548
f 520 539 550
f 520 551 523
f 520 550 551
f 491 549 546
f 544 547 543
f 495 552 538
f 538 552 553
f 538 553 540
f 540 553 554
f 492 552 495
f 492 509 552
f 509 555 552
f 552 555 556
f 556 557 552
f 552 557 553
f 509 512 555
f 555 512 556
f 553 557 558
f 557 556 558
f 556 512 559
f 540 554 539
f 539 554 560
f 550 539 560
f 560 554 561
f 550 561 551
f 550 560 561
f 558 556 562
f 553 558 563
f 554 563 561
f 554 553 563
f 562 556 564
f 558 562 563
f 556 559 564
f 564 559 566
f 548 549 491
f 486 567 487
f 524 537 486
f 487 567 548
f 523 551 569
f 523 569 532
f 569 551 571
f 551 570 571
f 549 568 546
f 546 573 542
f 542 574 541
f 541 574 544
f 544 575 547
f 542 573 574
f 547 575 572
f 486 537 567
f 549 576 568
f 549 548 576
f 569 577 532
f 569 571 578
f 569 578 579
f 577 569 580
f 569 579 580
f 546 568 573
f 544 574 575
f 573 581 574
f 574 581 575
f 551 561 582
f 551 582 570
f 582 583 570
f 570 583 584
f 570 584 571
f 561 562 582
f 561 563 562
f 582 562 583
f 583 562 564
f 547 572 565
f 583 564 585
f 583 585 584
f 564 586 587
f 564 566 586
f 566 588 586
f 571 584 578
f 578 584 589
f 578 589 579
f 589 585 579
f 564 587 585
f 584 585 589
f 588 592 586
f 153 527 211
f 143 528 513
f 143 156 528
f 528 526 515
f 156 210 529
f 156 529 528
f 210 209 529
f 528 529 526
f 514 529 530
f 517 519 531
f 530 594 519
f 530 529 594
f 529 209 594
f 519 594 531
f 208 206 595
f 211 596 212
f 212 597 216
f 596 597 212
f 211 593 596
f 216 598 214
f 216 597 598
f 214 598 599
f 214 599 215
f 206 434 595
f 527 593 211
f 531 600 521
f 521 600 533
f 531 594 600
f 600 594 601
f 594 209 601
f 533 600 601
f 533 601 536
f 532 602 527
f 536 534 525
f 534 604 535
f 536 601 604
f 601 209 604
f 536 604 534
f 535 537 524
f 535 604 537
f 604 209 605
f 209 208 605
f 604 605 537
f 593 606 596
f 596 606 597
f 597 606 598
f 593 608 609
f 606 609 598
f 593 609 606
f 593 603 608
f 608 610 609
f 598 609 599
f 599 612 607
f 609 612 599
f 208 595 605
f 609 611 612
f 595 614 605
f 532 615 602
f 615 616 602
f 527 602 593
f 593 602 603
f 603 602 617
f 602 618 617
f 537 620 567
f 567 576 548
f 537 621 620
f 537 605 621
f 605 614 621
f 621 614 622
f 567 620 576
f 620 621 623
f 576 620 624
f 576 624 625
f 620 623 624
f 624 623 626
f 621 622 623
f 623 622 626
f 614 627 622
f 622 627 628
f 622 628 626
f 532 577 615
f 615 577 629
f 580 579 590
f 580 590 577
f 590 631 630
f 577 590 630
f 577 630 629
f 630 631 632
f 616 615 634
f 616 634 633
f 602 616 633
f 618 633 635
f 602 633 618
f 618 635 619
f 634 636 633
f 615 629 634
f 629 638 634
f 629 637 638
f 629 630 637
f 573 568 581
f 568 639 581
f 576 640 568
f 576 625 640
f 625 626 641
f 625 641 640
f 568 640 639
f 640 641 639
f 581 639 575
f 575 639 642
f 575 642 591
f 641 642 639
f 641 643 642
f 625 624 626
f 626 643 641
f 619 635 644
f 635 633 636
f 635 636 644
f 644 636 645
f 626 628 643
f 630 632 637
f 632 646 637
f 637 646 638
f 636 634 638
f 636 638 647
f 636 647 645
f 638 646 647
f 608 603 610
f 603 617 610
f 610 617 649
f 618 619 617
f 609 610 611
f 611 613 612
f 610 649 611
f 611 650 613
f 611 649 650
f 614 595 627
f 613 651 612
f 619 644 617
f 617 644 649
f 649 644 650
f 613 650 653
f 650 644 645
f 650 645 652
f 650 652 653
f 645 653 652
f 645 647 653
f 579 585 590
f 590 585 631
f 585 587 654
f 585 654 631
f 631 654 632
f 587 586 654
f 586 656 654
f 654 656 657
f 654 657 632
f 586 592 656
f 632 655 646
f 646 655 658
f 632 658 655
f 632 657 658
f 646 658 647
f 658 659 647
f 647 659 648
f 222 660 221
f 221 660 661
f 222 219 660
f 219 227 660
f 660 227 663
f 660 662 661
f 660 663 662
f 662 663 664
f 663 227 664
f 221 666 665
f 221 661 666
f 221 665 236
f 665 666 667
f 666 661 668
f 239 667 669
f 239 240 667
f 667 666 669
f 666 668 669
f 669 668 670
f 236 665 671
f 236 671 242
f 665 667 671
f 244 242 671
f 671 667 672
f 227 673 664
f 240 672 667
f 240 243 672
f 661 662 674
f 661 674 668
f 668 674 675
f 662 664 676
f 673 677 664
f 676 664 677
f 662 676 674
f 244 678 226
f 244 671 678
f 671 672 678
f 227 226 673
f 226 678 673
f 243 248 678
f 672 243 678
f 678 248 677
f 678 677 673
f 239 669 238
f 669 670 238
f 668 675 680
f 675 674 681
f 670 668 680
f 674 682 681
f 674 676 682
f 676 683 682
f 677 683 676
f 677 684 683
f 675 681 685
f 681 682 685
f 682 683 685
f 238 687 260
f 238 670 687
f 687 670 688
f 670 680 688
f 680 675 688
f 688 675 689
f 675 685 689
f 689 685 690
f 685 683 686
f 685 686 690
f 690 686 691
f 686 692 691
f 248 263 679
f 248 679 677
f 679 684 677
f 684 679 693
f 684 693 683
f 683 693 686
f 263 694 679
f 695 693 694
f 679 694 693
f 693 695 686
f 695 694 696
f 686 695 692
f 695 696 692
f 687 688 697
f 260 687 308
f 687 697 308
f 688 698 697
f 688 689 698
f 689 700 698
f 689 699 700
f 689 690 699
f 691 701 690
f 699 690 702
f 700 699 702
f 690 701 702
f 701 691 703
f 308 697 315
f 315 697 704
f 697 705 704
f 315 704 318
f 697 698 705
f 698 700 707
f 705 698 707
f 705 707 706
f 705 706 704
f 700 702 707
f 701 709 708
f 701 703 709
f 702 708 707
f 702 701 708
f 263 319 711
f 263 711 694
f 696 694 712
f 694 711 712
f 691 696 703
f 696 712 703
f 691 692 696
f 319 320 711
f 320 322 711
f 711 322 712
f 712 322 710
f 703 712 709
f 712 710 709
f 704 713 318
f 704 706 713
f 329 317 714
f 317 318 714
f 318 713 714
f 716 715 717
f 706 707 718
f 706 718 713
f 707 716 718
f 707 708 716
f 708 709 716
f 710 715 709
f 715 716 709
f 713 718 719
f 714 713 719
f 329 714 720
f 720 714 721
f 715 722 717
f 714 719 721
f 719 718 724
f 718 716 724
f 724 716 725
f 716 717 725
f 719 724 723
f 725 723 724
f 725 717 722
f 322 338 710
f 338 715 710
f 715 726 722
f 338 726 715
f 338 340 726
f 329 720 336
f 336 727 357
f 336 720 727
f 720 721 727
f 357 727 728
f 727 729 728
f 727 723 730
f 340 360 731
f 362 733 360
f 730 734 729
f 727 730 729
f 360 733 731
f 731 733 734
f 719 723 721
f 727 721 723
f 723 725 732
f 725 722 732
f 723 731 730
f 723 732 731
f 730 731 734
f 359 357 728
f 359 728 364
f 362 367 735
f 728 729 364
f 733 362 735
f 734 733 736
f 736 733 735
f 365 366 737
f 343 365 737
f 734 736 729
f 729 435 364
f 729 437 435
f 729 736 437
f 735 367 736
f 736 738 437
f 736 367 738
f 339 360 340
f 726 340 732
f 722 726 732
f 731 732 340
f 348 343 739
f 348 739 368
f 737 740 343
f 350 349 742
f 367 350 742
f 738 367 741
f 69 366 86
f 366 743 737
f 366 457 743
f 737 743 740
f 743 457 740
f 742 349 744
f 367 742 741
f 741 742 745
f 745 742 744
f 349 368 744
f 738 741 747
f 740 746 748
f 740 457 746
f 343 740 748
f 452 437 747
f 738 747 437
f 746 749 748
f 739 343 748
f 744 368 745
f 745 368 750
f 746 457 451
f 746 451 467
f 469 749 467
f 467 749 746
f 474 452 747
f 749 751 748
f 474 747 475
f 747 752 753
f 747 753 475
f 745 750 754
f 368 739 755
f 748 755 739
f 368 755 750
f 751 755 748
f 747 741 752
f 741 745 754
f 741 754 752
f 750 755 756
f 751 756 755
f 475 753 757
f 753 758 757
f 475 757 759
f 759 757 760
f 757 758 761
f 757 761 760
f 753 752 758
f 752 754 758
f 750 762 754
f 750 756 762
f 469 763 749
f 749 763 751
f 468 763 469
f 468 481 763
f 763 764 751
f 763 765 764
f 481 483 765
f 481 765 763
f 483 498 765
f 765 766 764
f 475 759 497
f 765 767 766
f 765 498 767
f 498 768 767
f 498 506 508
f 508 768 498
f 768 769 767
f 756 751 764
f 756 766 762
f 756 764 766
f 754 762 770
f 766 767 762
f 754 770 758
f 762 771 770
f 762 767 771
f 497 759 510
f 759 760 772
f 759 772 510
f 772 760 773
f 499 510 511
f 768 774 769
f 512 511 776
f 510 775 511
f 511 775 776
f 776 775 777
f 772 775 510
f 772 778 775
f 760 761 779
f 758 779 761
f 758 770 779
f 760 779 770
f 760 770 773
f 771 780 770
f 772 773 781
f 767 769 780
f 767 780 771
f 780 769 782
f 769 783 782
f 769 774 783
f 770 781 773
f 780 782 770
f 770 782 781
f 772 781 778
f 778 781 784
f 782 784 781
f 782 783 785
f 782 785 784
f 778 786 775
f 775 786 777
f 778 784 786
f 768 508 545
f 768 545 774
f 776 787 512
f 787 776 788
f 776 777 789
f 543 547 545
f 545 547 565
f 545 565 774
f 512 787 559
f 788 776 789
f 777 786 789
f 789 786 790
f 783 791 785
f 774 792 783
f 565 792 774
f 785 793 784
f 786 784 790
f 783 792 791
f 790 784 793
f 787 788 559
f 559 788 794
f 794 788 795
f 559 794 566
f 794 795 566
f 788 789 795
f 789 790 796
f 796 790 797
f 791 798 785
f 785 798 793
f 790 793 797
f 795 789 796
f 566 795 799
f 566 799 588
f 795 796 800
f 798 801 793
f 797 793 801
f 565 591 792
f 565 572 591
f 795 800 799
f 800 796 802
f 796 803 802
f 572 575 591
f 799 800 804
f 588 799 592
f 799 804 592
f 800 802 804
f 796 797 803
f 797 801 803
f 791 805 798
f 798 806 801
f 798 805 806
f 803 801 806
f 591 807 792
f 791 807 805
f 792 807 791
f 803 806 808
f 427 215 428
f 215 809 428
f 215 607 809
f 599 607 215
f 809 810 428
f 428 810 425
f 429 431 811
f 426 429 812
f 607 810 809
f 429 811 812
f 430 813 432
f 811 431 814
f 431 433 814
f 432 813 433
f 813 814 433
f 595 434 815
f 425 810 430
f 426 812 815
f 434 426 815
f 815 812 816
f 642 643 817
f 817 643 818
f 818 643 628
f 628 819 818
f 595 821 627
f 612 651 810
f 607 612 810
f 595 815 821
f 815 816 821
f 613 823 651
f 651 823 810
f 613 653 823
f 627 821 628
f 810 823 822
f 810 822 430
f 823 824 822
f 816 812 811
f 821 816 825
f 430 822 813
f 813 822 814
f 811 814 826
f 822 826 814
f 653 827 823
f 653 828 827
f 823 829 824
f 823 827 829
f 647 830 653
f 653 830 828
f 648 830 647
f 827 828 831
f 827 831 829
f 830 831 828
f 628 821 825
f 628 825 832
f 825 833 832
f 825 816 833
f 816 811 833
f 833 811 826
f 824 829 826
f 628 832 819
f 832 834 819
f 832 833 834
f 819 834 820
f 833 835 834
f 835 826 829
f 833 826 835
f 829 831 835
f 824 826 822
f 591 642 836
f 642 817 836
f 656 592 802
f 656 658 657
f 656 837 658
f 804 802 592
f 802 803 808
f 802 837 656
f 802 808 837
f 817 818 836
f 659 839 838
f 837 839 658
f 837 808 841
f 839 837 841
f 659 658 839
f 839 841 838
f 838 841 840
f 591 842 807
f 591 836 842
f 842 805 807
f 808 806 841
f 836 818 843
f 836 843 842
f 818 820 843
f 818 819 820
f 843 845 844
f 820 845 843
f 842 843 805
f 843 844 805
f 841 806 844
f 805 844 806
f 844 840 841
f 840 844 845
f 659 838 648
f 830 648 831
f 838 846 648
f 648 846 831
f 838 840 846
f 834 835 820
f 835 831 846
f 820 835 845
f 835 846 845
f 845 846 840
