# https://github.com/mikedh/trimesh
mtllib material.mtl
usemtl material_0
v -0.00073293 -0.88460810 -0.03667446
v -0.00073293 -0.88460810 -0.03668346
v -0.00072330 -0.88460810 -0.03668346
v -0.00072330 -0.88460810 -0.03667446
v -0.00073293 -0.88460810 -0.03667446
v -0.00073293 -0.88460810 -0.03668346
v -0.00072330 -0.88460810 -0.03668346
v -0.00072330 -0.88460810 -0.03667446
v -0.00073293 -0.88460810 -0.03667446
v -0.00073293 -0.88460810 -0.03668346
v -0.00072330 -0.88460810 -0.03668346
v -0.00072330 -0.88460810 -0.03667446
v 0.46492614 -0.04724612 0.13857152
v 0.03316608 -0.04724612 0.13857278
v 0.03311171 -0.04809923 0.13332741
v 0.46498076 -0.04809923 0.13332615
v 0.03589947 -0.05008985 -0.07638176
v 0.46219176 -0.05008985 -0.07638300
v 0.46219176 -0.04907393 -0.07834320
v 0.46492615 -0.04486029 0.14229910
v 0.03316609 -0.04486029 0.14230036
v 0.46492616 -0.04128967 0.14478988
v 0.03316610 -0.04128967 0.14479114
v 0.46499861 -0.03556854 0.14577488
v 0.03316610 -0.04128967 0.14479114
v 0.46492616 -0.04128967 0.14478988
v 0.03309419 -0.03556854 0.14577614
v 0.03512634 0.03237023 0.15929365
v 0.46296627 0.03237023 0.15929240
v 0.03589947 -0.04907393 -0.07834196
v 0.46439390 0.03237023 -0.13223962
v 0.03369701 0.03237023 -0.13223836
v 0.02845854 -0.05635142 -0.07803656
v 0.02845916 -0.05635142 0.13417600
v 0.46963340 -0.05635142 0.13417471
v 0.46963278 -0.05635142 -0.07803785
v 0.46963277 -0.05382701 -0.08290910
v 0.02845853 -0.05382701 -0.08290781
v 0.46963259 0.03237023 -0.14173364
v 0.02845835 0.03237023 -0.14173235
v 0.46963346 -0.03707847 0.15429511
v 0.46963345 -0.04445359 0.15276353
v 0.02845921 -0.04445359 0.15276482
v 0.02845922 -0.03707786 0.15429640
v 0.02845925 0.03237023 0.16669502
v 0.46963349 0.03237023 0.16669373
v 0.46963345 -0.04445359 0.15276353
v 0.46963344 -0.05070635 0.14840199
v 0.02845920 -0.05070635 0.14840328
v 0.02845921 -0.04445359 0.15276482
v 0.02845918 -0.05488433 0.14187566
v 0.46963342 -0.05488433 0.14187438
v 0.03309419 -0.03556854 0.14577614
v 0.03512634 0.03237023 0.15929365
v 0.03822903 0.03237023 -0.07770080
v 0.03316610 -0.04128967 0.14479114
v 0.03316609 -0.04486029 0.14230036
v 0.03316608 -0.04724612 0.13857278
v 0.03311171 -0.04809923 0.13332741
v 0.03589947 -0.05008985 -0.07638176
v 0.03589947 -0.04907393 -0.07834196
v 0.03822308 0.03237023 -0.08197220
v 0.03369701 0.03237023 -0.13223836
v 0.45986840 0.03237023 -0.08197343
v 0.46219176 -0.04907393 -0.07834320
v 0.46439390 0.03237023 -0.13223962
v 0.45986247 0.03237023 -0.07770203
v 0.46219176 -0.05008985 -0.07638300
v 0.46498076 -0.04809923 0.13332615
v 0.46492614 -0.04724612 0.13857152
v 0.46492615 -0.04486029 0.14229910
v 0.46492616 -0.04128967 0.14478988
v 0.46499861 -0.03556854 0.14577488
v 0.46296627 0.03237023 0.15929240
v 0.02845853 0.03237023 -0.08290781
v 0.02845853 -0.05382701 -0.08290781
v 0.02845835 0.03237023 -0.14173235
v 0.02845854 0.03237023 -0.07803656
v 0.02845854 -0.05635142 -0.07803656
v 0.02845918 -0.05488433 0.14187566
v 0.02845916 -0.05635142 0.13417600
v 0.02845920 -0.05070635 0.14840328
v 0.02845921 -0.04445359 0.15276482
v 0.02845922 -0.03707786 0.15429640
v 0.02845925 0.03237023 0.16669502
v 0.46963346 -0.03707847 0.15429511
v 0.46963349 0.03237023 0.16669373
v 0.46963278 0.03237023 -0.07803785
v 0.46963345 -0.04445359 0.15276353
v 0.46963344 -0.05070635 0.14840199
v 0.46963342 -0.05488433 0.14187438
v 0.46963340 -0.05635142 0.13417471
v 0.46963278 -0.05635142 -0.07803785
v 0.46963277 -0.05382701 -0.08290910
v 0.46963277 0.03237023 -0.08290910
v 0.46963259 0.03237023 -0.14173364
v -0.00073293 -0.88460810 -0.03667446
v -0.00073293 -0.88460810 -0.03668346
v -0.00072330 -0.88460810 -0.03668346
v -0.00072330 -0.88460810 -0.03667446
v -0.00073293 -0.88460810 -0.03667446
v -0.00073293 -0.88460810 -0.03668346
v -0.00072330 -0.88460810 -0.03668346
v -0.00072330 -0.88460810 -0.03667446
v -0.00073293 -0.88460810 -0.03667446
v -0.00073293 -0.88460810 -0.03668346
v -0.00072330 -0.88460810 -0.03668346
v -0.00072330 -0.88460810 -0.03667446
v -0.00073293 -0.88460810 -0.03667446
v -0.00073293 -0.88460810 -0.03668346
v -0.00072330 -0.88460810 -0.03668346
v -0.00072330 -0.88460810 -0.03667446
v 0.03325193 0.04882967 -0.14313043
v 0.03578642 0.05336133 -0.14451194
v 0.46230470 0.05336133 -0.14451318
v 0.46483892 0.04882967 -0.14313169
v 0.03578732 0.05446744 0.16369022
v 0.46230560 0.05446744 0.16368897
v 0.46963351 0.05336133 0.17044108
v 0.02845927 0.05336133 0.17044237
v 0.02845931 0.05336133 0.18410448
v 0.46963355 0.05336133 0.18410319
v 0.03578642 0.05336133 -0.14451194
v 0.03882203 0.05336133 -0.08290784
v 0.02845853 0.05336133 -0.08290781
v 0.02845854 0.05336133 -0.07803656
v 0.03882204 0.05336133 -0.07803659
v 0.02845833 0.05336133 -0.15136208
v 0.46230470 0.05336133 -0.14451318
v 0.46963257 0.05336133 -0.15136337
v 0.45926918 0.05336133 -0.08290907
v 0.46963277 0.05336133 -0.08290910
v 0.45926919 0.05336133 -0.07803782
v 0.46963278 0.05336133 -0.07803785
v 0.02845833 0.04648100 -0.15136208
v 0.46963257 0.04648100 -0.15136337
v 0.46963257 0.05336133 -0.15136337
v 0.02845833 0.05336133 -0.15136208
v 0.03578732 0.05446744 0.16369022
v 0.03822903 0.03237023 -0.07770080
v 0.03512634 0.03237023 0.15929365
v 0.03882204 0.05336133 -0.07803659
v 0.03882203 0.05336133 -0.08290784
v 0.03822308 0.03237023 -0.08197220
v 0.03325193 0.04882967 -0.14313043
v 0.03369701 0.03237023 -0.13223836
v 0.03578642 0.05336133 -0.14451194
v 0.46483892 0.04882967 -0.14313169
v 0.46230470 0.05336133 -0.14451318
v 0.45926918 0.05336133 -0.08290907
v 0.46439390 0.03237023 -0.13223962
v 0.45986840 0.03237023 -0.08197343
v 0.45986247 0.03237023 -0.07770203
v 0.45926919 0.05336133 -0.07803782
v 0.46230560 0.05446744 0.16368897
v 0.46296627 0.03237023 0.15929240
v 0.03512634 0.03237023 0.15929365
v 0.46296627 0.03237023 0.15929240
v 0.46230560 0.05446744 0.16368897
v 0.03578732 0.05446744 0.16369022
v 0.46439390 0.03237023 -0.13223962
v 0.03369701 0.03237023 -0.13223836
v 0.46963259 0.03237023 -0.14173364
v 0.02845835 0.03237023 -0.14173235
v 0.02845929 0.03237023 0.18035687
v 0.02845931 0.05336133 0.18410448
v 0.46963355 0.05336133 0.18410319
v 0.46963353 0.03237023 0.18035559
v 0.02845833 0.04648100 -0.15136208
v 0.02845833 0.05336133 -0.15136208
v 0.02845853 0.05336133 -0.08290781
v 0.02845835 0.03237023 -0.14173235
v 0.02845853 0.03237023 -0.08290781
v 0.02845854 0.03237023 -0.07803656
v 0.02845854 0.05336133 -0.07803656
v 0.02845927 0.05336133 0.17044237
v 0.02845925 0.03237023 0.16669502
v 0.02845929 0.03237023 0.18035687
v 0.02845931 0.05336133 0.18410448
v 0.46963257 0.04648100 -0.15136337
v 0.46963259 0.03237023 -0.14173364
v 0.46963277 0.03237023 -0.08290910
v 0.46963277 0.05336133 -0.08290910
v 0.46963257 0.05336133 -0.15136337
v 0.46963278 0.05336133 -0.07803785
v 0.46963278 0.03237023 -0.07803785
v 0.46963349 0.03237023 0.16669373
v 0.46963351 0.05336133 0.17044108
v 0.46963355 0.05336133 0.18410319
v 0.46963353 0.03237023 0.18035559
v 0.02845925 0.03237023 0.16669502
v 0.02845929 0.03237023 0.18035687
v 0.46963353 0.03237023 0.18035559
v 0.46963349 0.03237023 0.16669373
vn 0.00000000 1.00000000 0.00000000
vn 0.00000000 1.00000000 0.00000000
vn 0.00000000 1.00000000 0.00000000
vn 0.00000000 1.00000000 0.00000000
vn 0.00000000 1.00000000 0.00000000
vn 0.00000000 1.00000000 0.00000000
vn 0.00000000 1.00000000 0.00000000
vn 0.00000000 1.00000000 0.00000000
vn 0.00000000 1.00000000 0.00000000
vn 0.00000000 1.00000000 0.00000000
vn 0.00000000 1.00000000 0.00000000
vn 0.00000000 1.00000000 0.00000000
vn -0.00000099 0.94082323 -0.33889771
vn -0.00000099 0.94082205 -0.33890098
vn -0.00000004 0.99991209 -0.01325954
vn -0.00000004 0.99991209 -0.01325941
vn -0.00000001 0.99998907 -0.00467619
vn -0.00000001 0.99998907 -0.00467619
vn 0.00000242 0.56065642 0.82804853
vn -0.00000202 0.72215156 -0.69173486
vn -0.00000202 0.72215156 -0.69173486
vn -0.00000274 0.34953868 -0.93692194
vn -0.00000274 0.34954529 -0.93691947
vn -0.00000287 0.19314810 -0.98116961
vn -0.00000274 0.34954529 -0.93691947
vn -0.00000274 0.34953868 -0.93692194
vn -0.00000287 0.19314801 -0.98116963
vn -0.00000286 0.19514071 -0.98077526
vn -0.00000286 0.19514071 -0.98077526
vn 0.00000242 0.56065642 0.82804853
vn 0.00000244 0.55186329 0.83393459
vn 0.00000244 0.55186329 0.83393459
vn -0.00000003 -0.99993239 -0.01162842
vn 0.00000002 -0.99997775 0.00667117
vn 0.00000002 -0.99997775 0.00667117
vn -0.00000003 -0.99993239 -0.01162842
vn -0.00000237 -0.58319540 -0.81233190
vn -0.00000237 -0.58319540 -0.81233190
vn -0.00000241 -0.56368830 -0.82598759
vn -0.00000241 -0.56368830 -0.82598759
vn 0.00000275 -0.17841721 0.98395493
vn 0.00000268 -0.39690549 0.91785948
vn 0.00000268 -0.39690549 0.91785948
vn 0.00000275 -0.17841721 0.98395493
vn 0.00000276 -0.17575089 0.98443467
vn 0.00000276 -0.17575089 0.98443467
vn 0.00000268 -0.39690549 0.91785948
vn 0.00000202 -0.72214085 0.69174605
vn 0.00000202 -0.72214085 0.69174605
vn 0.00000268 -0.39690549 0.91785948
vn 0.00000108 -0.92950317 0.36881413
vn 0.00000108 -0.92950317 0.36881413
vn 0.99949325 -0.02872336 0.01371932
vn 0.99948422 -0.02913849 0.01349951
vn 0.99948943 -0.02906382 0.01327325
vn 0.99949325 -0.02872337 0.01371932
vn 0.99949325 -0.02872336 0.01371932
vn 0.99949325 -0.02872336 0.01371932
vn 0.99949325 -0.02872336 0.01371932
vn 0.99949573 -0.02872178 0.01354055
vn 0.99755540 -0.03117654 -0.06253993
vn 0.99542712 -0.05234827 -0.07990307
vn 0.99391835 -0.06772309 -0.08683260
vn -0.99542802 -0.05234639 -0.07989318
vn -0.99755611 -0.03117295 -0.06253048
vn -0.99391929 -0.06772168 -0.08682294
vn -0.99948940 -0.02906210 0.01327883
vn -0.99949570 -0.02872034 0.01354612
vn -0.99949321 -0.02872194 0.01372489
vn -0.99949321 -0.02872194 0.01372489
vn -0.99949321 -0.02872194 0.01372489
vn -0.99949321 -0.02872195 0.01372489
vn -0.99949321 -0.02872194 0.01372489
vn -0.99948420 -0.02913666 0.01350512
vn -1.00000000 0.00000000 0.00000292
vn -1.00000000 0.00000000 0.00000292
vn -1.00000000 0.00000000 0.00000292
vn -1.00000000 0.00000000 0.00000292
vn -1.00000000 0.00000000 0.00000292
vn -1.00000000 0.00000000 0.00000292
vn -1.00000000 0.00000000 0.00000292
vn -1.00000000 0.00000000 0.00000292
vn -1.00000000 0.00000000 0.00000292
vn -1.00000000 0.00000000 0.00000292
vn -1.00000000 0.00000000 0.00000292
vn 1.00000000 0.00000047 -0.00000292
vn 1.00000000 -0.00000011 -0.00000292
vn 1.00000000 0.00000000 -0.00000292
vn 1.00000000 0.00000047 -0.00000292
vn 1.00000000 0.00000047 -0.00000292
vn 1.00000000 0.00000047 -0.00000292
vn 1.00000000 0.00000047 -0.00000292
vn 1.00000000 0.00000047 -0.00000292
vn 1.00000000 0.00000000 -0.00000292
vn 1.00000000 0.00000000 -0.00000292
vn 1.00000000 0.00000000 -0.00000292
vn 0.00000000 1.00000000 0.00000000
vn 0.00000000 1.00000000 0.00000000
vn 0.00000000 1.00000000 0.00000000
vn 0.00000000 1.00000000 0.00000000
vn 0.00000000 1.00000000 0.00000000
vn 0.00000000 1.00000000 0.00000000
vn 0.00000000 1.00000000 0.00000000
vn 0.00000000 1.00000000 0.00000000
vn 0.00000000 1.00000000 0.00000000
vn 0.00000000 1.00000000 0.00000000
vn 0.00000000 1.00000000 0.00000000
vn 0.00000000 1.00000000 0.00000000
vn 0.00000000 1.00000000 0.00000000
vn 0.00000000 1.00000000 0.00000000
vn 0.00000000 1.00000000 0.00000000
vn 0.00000000 1.00000000 0.00000000
vn 0.00000250 0.51732719 0.85578769
vn 0.00000279 0.29159980 0.95654041
vn 0.00000279 0.29159980 0.95654041
vn 0.00000250 0.51732589 0.85578848
vn -0.02640524 0.99523563 0.09385524
vn 0.02640615 0.99523562 0.09385508
vn 0.00848538 0.99961539 0.02640208
vn -0.00848538 0.99961541 0.02640150
vn 0.00000000 1.00000000 0.00000000
vn 0.00000000 1.00000000 0.00000000
vn 0.00000000 1.00000000 0.00000000
vn 0.00000000 1.00000000 0.00000050
vn 0.00000000 1.00000000 0.00000050
vn -0.06196486 0.99807499 -0.00258458
vn -0.06195352 0.99807569 -0.00258411
vn 0.00000000 1.00000000 0.00000000
vn 0.00000000 1.00000000 0.00000000
vn 0.00000000 1.00000000 0.00000000
vn 0.00000000 1.00000000 0.00000050
vn 0.00000000 1.00000000 0.00000050
vn 0.06195430 0.99807564 -0.00258436
vn 0.06196564 0.99807494 -0.00258484
vn -0.00000265 -0.41697311 -0.90891882
vn -0.00000265 -0.41697311 -0.90891882
vn -0.00000292 0.00000000 -1.00000000
vn -0.00000292 0.00000000 -1.00000000
vn 0.99945776 -0.03030187 0.01288346
vn 0.99948943 -0.02906382 0.01327325
vn 0.99948422 -0.02913849 0.01349951
vn 0.99946204 -0.03026655 0.01263197
vn 0.99276138 -0.09075175 -0.07866997
vn 0.99542712 -0.05234827 -0.07990307
vn 0.99183729 -0.09544291 -0.08455431
vn 0.99391835 -0.06772309 -0.08683260
vn 0.99183729 -0.09544292 -0.08455431
vn -0.99183793 -0.09544325 -0.08454642
vn -0.99183793 -0.09544326 -0.08454643
vn -0.99276187 -0.09075301 -0.07866229
vn -0.99391929 -0.06772168 -0.08682294
vn -0.99542802 -0.05234639 -0.07989318
vn -0.99948940 -0.02906210 0.01327883
vn -0.99946205 -0.03026386 0.01263767
vn -0.99945778 -0.03029888 0.01288918
vn -0.99948420 -0.02913666 0.01350512
vn -0.00000286 0.19514071 -0.98077526
vn -0.00000286 0.19514071 -0.98077526
vn -0.00000286 0.19514090 -0.98077522
vn -0.00000286 0.19514090 -0.98077522
vn 0.00000244 0.55186329 0.83393459
vn 0.00000244 0.55186329 0.83393459
vn -0.00000241 -0.56368830 -0.82598759
vn -0.00000241 -0.56368830 -0.82598759
vn 0.00000288 -0.17575481 0.98443397
vn 0.00000288 -0.17575481 0.98443397
vn 0.00000288 -0.17575481 0.98443397
vn 0.00000288 -0.17575481 0.98443397
vn -1.00000000 0.00000000 0.00000292
vn -1.00000000 0.00000000 0.00000292
vn -1.00000000 0.00000000 0.00000292
vn -1.00000000 0.00000000 0.00000292
vn -1.00000000 0.00000000 0.00000292
vn -1.00000000 0.00000000 0.00000292
vn -1.00000000 0.00000000 0.00000292
vn -1.00000000 0.00000000 0.00000292
vn -1.00000000 0.00000000 0.00000292
vn -1.00000000 0.00000013 0.00000292
vn -1.00000000 0.00000013 0.00000292
vn 1.00000000 0.00000000 -0.00000292
vn 1.00000000 0.00000000 -0.00000292
vn 1.00000000 0.00000000 -0.00000292
vn 1.00000000 0.00000000 -0.00000292
vn 1.00000000 0.00000000 -0.00000292
vn 1.00000000 -0.00000187 -0.00000292
vn 1.00000000 0.00000000 -0.00000292
vn 1.00000000 -0.00000011 -0.00000292
vn 1.00000000 -0.00000193 -0.00000292
vn 1.00000000 -0.00000215 -0.00000292
vn 1.00000000 -0.00000215 -0.00000292
vn 0.00000000 -1.00000000 0.00000000
vn 0.00000000 -1.00000000 0.00000000
vn 0.00000000 -1.00000000 0.00000000
vn 0.00000000 -1.00000000 0.00000000
vt -5.25307500 -117.71080000
vt -5.25307500 -115.99920000
vt -3.54152000 -115.99920000
vt -3.54152000 -117.71080000
vt 5.64693300 -121.22410000
vt 5.64693300 -119.51250000
vt 7.35848600 -119.51250000
vt 7.35848600 -121.22410000
vt -68.79395000 -112.22750000
vt -68.79394000 -112.22750000
vt -68.79394000 -112.22750000
vt -68.79395000 -112.22750000
vt -71.58265000 -1.02743700
vt -71.58265000 0.25550230
vt -71.56706000 0.25566360
vt -71.56706000 -1.02759900
vt -70.94392000 0.24737820
vt -70.94392000 -1.01931400
vt -70.93810000 -1.01931400
vt -71.59372000 -1.02743700
vt -71.59372000 0.25550230
vt -71.60112000 -1.02743700
vt -71.60112000 0.25550230
vt -71.34309000 -0.98530340
vt -71.32722000 0.21321550
vt -71.32722000 -0.98510230
vt -71.34309000 0.21341500
vt -71.53165000 0.20777520
vt -71.53165000 -0.97966260
vt -70.93810000 0.24737820
vt -70.77795000 -1.02585800
vt -70.77795000 0.25392220
vt -72.03885000 0.27681170
vt -71.40716000 0.27681170
vt -71.40716000 -1.03642500
vt -72.03885000 -1.03642500
vt -72.05335000 -1.03642500
vt -72.05335000 0.27681170
vt -72.22845000 -1.03642500
vt -72.22845000 0.27681170
vt -71.62250000 -0.99116420
vt -71.64294000 -0.99116420
vt -71.64294000 0.23155090
vt -71.62250000 0.23155090
vt -71.43002000 0.23155090
vt -71.43002000 -0.99116420
vt -71.35183000 -1.03642500
vt -71.36481000 -1.03642500
vt -71.36481000 0.27681170
vt -71.35183000 0.27681170
vt -71.38424000 0.27681170
vt -71.38424000 -1.03642500
vt -71.36441000 0.46072270
vt -71.17755000 0.49790090
vt -71.17755000 -0.15392250
vt -71.38014000 0.45801360
vt -71.38996000 0.45116290
vt -71.39653000 0.44091070
vt -71.39887000 0.42648390
vt -71.40435000 -0.15029450
vt -71.40155000 -0.15568580
vt -71.17755000 -0.16567040
vt -71.17755000 -0.30392100
vt -71.29288000 0.35969790
vt -71.51688000 0.34971340
vt -71.29288000 0.49794890
vt -71.29288000 0.34795000
vt -71.51968000 0.34432200
vt -71.51421000 -0.23245810
vt -71.51186000 -0.24688480
vt -71.50529000 -0.25713710
vt -71.49548000 -0.26398780
vt -71.47974000 -0.26669690
vt -71.29288000 -0.30387510
vt -70.92590000 0.37041350
vt -71.16286000 0.37041350
vt -70.92590000 0.53212980
vt -70.92590000 0.35702180
vt -71.16981000 0.35702180
vt -71.16577000 -0.24754520
vt -71.16981000 -0.22637780
vt -71.15429000 -0.26549050
vt -71.13710000 -0.27748070
vt -71.11682000 -0.28169140
vt -70.92590000 -0.31577680
vt -71.24045000 0.49804510
vt -71.04952000 0.53213070
vt -71.04952000 -0.14066960
vt -71.26072000 0.49383450
vt -71.27791000 0.48184390
vt -71.28940000 0.46389870
vt -71.29343000 0.44273130
vt -71.29343000 -0.14066960
vt -71.28649000 -0.15406110
vt -71.04952000 -0.15406110
vt -71.04952000 -0.31577780
vt -88.71478000 -110.74830000
vt -85.73376000 -110.74830000
vt -85.73376000 -113.93460000
vt -88.71478000 -113.93460000
vt -118.53910000 -109.61050000
vt -114.88680000 -109.61050000
vt -114.88680000 -113.51360000
vt -118.53910000 -113.51360000
vt -143.95530000 -107.93220000
vt -138.65240000 -107.93220000
vt -138.65240000 -113.63170000
vt -143.95530000 -113.63170000
vt -170.93040000 -111.15450000
vt -170.93030000 -111.15450000
vt -170.93030000 -111.15460000
vt -170.93040000 -111.15460000
vt -170.28490000 0.70843800
vt -170.27050000 0.70038130
vt -170.27050000 -0.65538210
vt -170.28490000 -0.66343780
vt -171.14830000 0.65899940
vt -171.14830000 -0.59816500
vt -171.16820000 -0.61976400
vt -171.16820000 0.68059900
vt -171.20850000 0.68059900
vt -171.20850000 -0.61976400
vt -170.23990000 0.65899940
vt -170.42150000 0.65005260
vt -170.42150000 0.68059900
vt -170.43590000 0.68059900
vt -170.43590000 0.65005260
vt -170.21970000 0.68059900
vt -170.23990000 -0.59816500
vt -170.21970000 -0.61976400
vt -170.42150000 -0.58921740
vt -170.42150000 -0.61976400
vt -170.43590000 -0.58921740
vt -170.43590000 -0.61976400
vt -170.42440000 0.72434520
vt -170.42440000 -0.66351010
vt -170.44600000 -0.66351010
vt -170.44600000 0.72434520
vt -170.11900000 0.93227480
vt -170.18410000 0.22088360
vt -170.18410000 0.91931780
vt -170.12220000 0.21989390
vt -170.12220000 0.20553810
vt -170.18410000 0.20829530
vt -170.13560000 0.02805892
vt -170.18410000 0.06015871
vt -170.12220000 0.02398785
vt -170.17740000 0.92828270
vt -170.16400000 0.93235480
vt -170.16400000 0.75077270
vt -170.22590000 0.89617780
vt -170.22590000 0.74801480
vt -170.22590000 0.73542470
vt -170.16400000 0.73641420
vt -170.16080000 0.02390778
vt -170.22590000 0.03686687
vt -170.22980000 0.65535110
vt -170.22980000 -0.61654040
vt -170.29550000 -0.61457630
vt -170.29550000 0.65338610
vt -170.33720000 -0.66202290
vt -170.33720000 0.70702290
vt -170.38000000 -0.66351010
vt -170.38000000 0.72434520
vt -170.40390000 0.68485590
vt -170.34160000 0.68485590
vt -170.34160000 -0.62402070
vt -170.40390000 -0.62402070
vt -170.21100000 0.43688600
vt -170.19070000 0.43688600
vt -170.19070000 0.23537260
vt -170.25250000 0.40853790
vt -170.25250000 0.23537260
vt -170.25250000 0.22103270
vt -170.19070000 0.22103270
vt -170.19070000 -0.51043020
vt -170.25250000 -0.49939890
vt -170.25250000 -0.53961610
vt -170.19070000 -0.55064830
vt -170.17070000 -0.55067460
vt -170.21220000 -0.52232510
vt -170.21220000 -0.34915060
vt -170.15040000 -0.34915060
vt -170.15040000 -0.55067460
vt -170.15040000 -0.33481000
vt -170.21220000 -0.33481000
vt -170.21220000 0.38566020
vt -170.15040000 0.39669220
vt -170.15040000 0.43691230
vt -170.21220000 0.42587960
vt -170.35860000 0.67985020
vt -170.31840000 0.67985020
vt -170.31840000 -0.61901500
vt -170.35860000 -0.61901500
f 3/3/3 2/2/2 1/1/1
f 4/4/4 3/3/3 1/1/1
f 7/7/7 6/6/6 5/5/5
f 8/8/8 7/7/7 5/5/5
f 11/11/11 10/10/10 9/9/9
f 12/12/12 11/11/11 9/9/9
f 15/15/15 14/14/14 13/13/13
f 16/16/16 15/15/15 13/13/13
f 15/15/15 16/16/16 17/17/17
f 16/16/16 18/18/18 17/17/17
f 17/17/17 18/18/18 19/19/19
f 14/14/14 21/21/21 20/20/20
f 13/13/13 14/14/14 20/20/20
f 21/21/21 23/23/23 22/22/22
f 20/20/20 21/21/21 22/22/22
f 26/26/26 25/25/25 24/24/24
f 25/25/25 27/27/27 24/24/24
f 27/27/27 28/28/28 24/24/24
f 28/28/28 29/29/29 24/24/24
f 30/30/30 17/17/17 19/19/19
f 30/30/30 19/19/19 31/31/31
f 32/32/32 30/30/30 31/31/31
f 35/35/35 34/34/34 33/33/33
f 36/36/36 35/35/35 33/33/33
f 36/36/36 33/33/33 37/37/37
f 33/33/33 38/38/38 37/37/37
f 37/37/37 38/38/38 39/39/39
f 38/38/38 40/40/40 39/39/39
f 43/43/43 42/42/42 41/41/41
f 44/44/44 43/43/43 41/41/41
f 44/44/44 41/41/41 45/45/45
f 41/41/41 46/46/46 45/45/45
f 49/49/49 48/48/48 47/47/47
f 50/50/50 49/49/49 47/47/47
f 49/49/49 51/51/51 48/48/48
f 51/51/51 52/52/52 48/48/48
f 51/51/51 34/34/34 52/52/52
f 34/34/34 35/35/35 52/52/52
f 55/55/55 54/54/54 53/53/53
f 55/55/55 53/53/53 56/56/56
f 55/55/55 56/56/56 57/57/57
f 55/55/55 57/57/57 58/58/58
f 55/55/55 58/58/58 59/59/59
f 59/59/59 60/60/60 55/55/55
f 60/60/60 61/61/61 55/55/55
f 61/61/61 62/62/62 55/55/55
f 61/61/61 63/63/63 62/62/62
f 66/66/66 65/65/65 64/64/64
f 64/64/64 65/65/65 67/67/67
f 65/65/65 68/68/68 67/67/67
f 67/67/67 68/68/68 69/69/69
f 69/69/69 70/70/70 67/67/67
f 70/70/70 71/71/71 67/67/67
f 71/71/71 72/72/72 67/67/67
f 72/72/72 73/73/73 67/67/67
f 73/73/73 74/74/74 67/67/67
f 77/77/77 76/76/76 75/75/75
f 75/75/75 76/76/76 78/78/78
f 76/76/76 79/79/79 78/78/78
f 80/80/80 78/78/78 79/79/79
f 79/79/79 81/81/81 80/80/80
f 80/80/80 82/82/82 78/78/78
f 82/82/82 83/83/83 78/78/78
f 83/83/83 84/84/84 78/78/78
f 84/84/84 85/85/85 78/78/78
f 88/88/88 87/87/87 86/86/86
f 88/88/88 86/86/86 89/89/89
f 88/88/88 89/89/89 90/90/90
f 88/88/88 90/90/90 91/91/91
f 88/88/88 91/91/91 92/92/92
f 92/92/92 93/93/93 88/88/88
f 93/93/93 94/94/94 88/88/88
f 94/94/94 95/95/95 88/88/88
f 95/95/95 94/94/94 96/96/96
f 99/99/99 98/98/98 97/97/97
f 100/100/100 99/99/99 97/97/97
f 103/103/103 102/102/102 101/101/101
f 104/104/104 103/103/103 101/101/101
f 107/107/107 106/106/106 105/105/105
f 108/108/108 107/107/107 105/105/105
f 111/111/111 110/110/110 109/109/109
f 112/112/112 111/111/111 109/109/109
f 115/115/115 114/114/114 113/113/113
f 116/116/116 115/115/115 113/113/113
f 119/119/119 118/118/118 117/117/117
f 120/120/120 119/119/119 117/117/117
f 120/120/120 121/121/121 119/119/119
f 121/121/121 122/122/122 119/119/119
f 125/125/125 124/124/124 123/123/123
f 125/125/125 126/126/126 124/124/124
f 126/126/126 127/127/127 124/124/124
f 128/128/128 125/125/125 123/123/123
f 128/128/128 123/123/123 129/129/129
f 130/130/130 128/128/128 129/129/129
f 130/130/130 129/129/129 131/131/131
f 132/132/132 130/130/130 131/131/131
f 132/132/132 131/131/131 133/133/133
f 134/134/134 132/132/132 133/133/133
f 134/134/134 133/133/133 118/118/118
f 119/119/119 134/134/134 118/118/118
f 120/120/120 117/117/117 127/127/127
f 126/126/126 120/120/120 127/127/127
f 137/137/137 136/136/136 135/135/135
f 138/138/138 137/137/137 135/135/135
f 141/141/141 140/140/140 139/139/139
f 140/140/140 142/142/142 139/139/139
f 142/142/142 140/140/140 143/143/143
f 140/140/140 144/144/144 143/143/143
f 145/145/145 143/143/143 144/144/144
f 144/144/144 146/146/146 145/145/145
f 145/145/145 147/147/147 143/143/143
f 150/150/150 149/149/149 148/148/148
f 150/150/150 148/148/148 151/151/151
f 151/151/151 152/152/152 150/150/150
f 152/152/152 153/153/153 150/150/150
f 153/153/153 154/154/154 150/150/150
f 154/154/154 153/153/153 155/155/155
f 153/153/153 156/156/156 155/155/155
f 159/159/159 158/158/158 157/157/157
f 160/160/160 159/159/159 157/157/157
f 162/162/162 161/161/161 116/116/116
f 113/113/113 162/162/162 116/116/116
f 135/135/135 136/136/136 163/163/163
f 164/164/164 135/135/135 163/163/163
f 167/167/167 166/166/166 165/165/165
f 168/168/168 167/167/167 165/165/165
f 171/171/171 170/170/170 169/169/169
f 171/171/171 169/169/169 172/172/172
f 172/172/172 173/173/173 171/171/171
f 171/171/171 173/173/173 174/174/174
f 175/175/175 171/171/171 174/174/174
f 175/175/175 174/174/174 176/176/176
f 174/174/174 177/177/177 176/176/176
f 177/177/177 178/178/178 176/176/176
f 178/178/178 179/179/179 176/176/176
f 182/182/182 181/181/181 180/180/180
f 180/180/180 183/183/183 182/182/182
f 180/180/180 184/184/184 183/183/183
f 183/183/183 185/185/185 182/182/182
f 185/185/185 186/186/186 182/182/182
f 187/187/187 186/186/186 185/185/185
f 188/188/188 187/187/187 185/185/185
f 188/188/188 189/189/189 187/187/187
f 189/189/189 190/190/190 187/187/187
f 193/193/193 192/192/192 191/191/191
f 194/194/194 193/193/193 191/191/191

