# Blender 4.0.0
# www.blender.org
o decimated_mesh
v -0.000992 -0.002251 0.001302
v -0.001444 -0.003461 0.001076
v -0.001184 -0.003482 0.001079
v -0.000988 -0.002257 0.001084
v -0.000991 -0.000691 0.001192
v -0.001542 -0.003482 -0.000000
v -0.001138 -0.000691 0.001101
v -0.001771 -0.003475 0.000018
v -0.000990 -0.000691 0.000966
v -0.001324 -0.000691 0.000000
v -0.001351 -0.001834 0.000000
v -0.001494 -0.000691 0.000005
vn -0.0250 -0.1743 0.9844
vn 0.9873 -0.1575 0.0205
vn -0.0304 -0.9995 0.0101
vn 0.9453 -0.0233 -0.3253
vn 0.9999 0.0003 0.0165
vn 0.9294 -0.1076 -0.3530
vn -0.0837 -0.9957 0.0396
vn -0.5223 0.0603 0.8506
vn -0.5582 0.0540 0.8280
vn 0.9448 -0.0218 -0.3268
vn -0.9463 0.1016 0.3070
vn -0.9513 0.0961 0.2930
vn -0.0000 -1.0000 -0.0000
vn 0.0003 -1.0000 0.0002
vn 0.0001 -1.0000 -0.0000
vn 1.0000 0.0014 0.0013
vn 0.9386 -0.1484 -0.3115
vn -0.0383 -0.0011 -0.9993
vn -0.0250 0.0006 -0.9997
vn -0.0808 0.0098 -0.9967
vn -0.0004 -1.0000 0.0001
vn 0.0004 -1.0000 -0.0002
vn -0.0250 0.0022 -0.9997
vn -0.0810 0.0032 -0.9967
vn 0.0049 -0.0001 -1.0000
s 0
f 1//1 2//1 3//1
f 1//2 3//2 4//2
f 6//3 3//3 8//3
f 11//4 9//4 4//4
f 5//5 1//5 4//5
f 4//6 6//6 11//6
f 2//7 8//7 3//7
f 5//8 7//8 1//8
f 7//9 2//9 1//9
f 11//10 10//10 9//10
f 2//11 7//11 12//11
f 12//12 8//12 2//12
f 12//13 10//13 7//13
f 7//14 9//14 5//14
f 9//15 7//15 10//15
f 4//16 9//16 5//16
f 4//17 3//17 6//17
f 8//18 12//18 11//18
f 12//19 10//19 11//19
f 11//20 6//20 8//20
f 9//21 5//21 10//21
f 10//13 5//13 12//13
f 12//22 5//22 7//22
f 10//23 6//23 12//23
f 6//24 8//24 12//24
f 10//25 11//25 6//25
