# https://github.com/mikedh/trimesh
v 0.00889559 0.03720880 0.00010389
v 0.01049081 0.03716427 0.00008721
v 0.00889559 0.03720880 -0.00015755
v 0.00856831 0.03720880 0.00020396
v 0.01049081 0.03693525 0.00010538
v 0.01071105 0.03713405 0.00004671
v 0.01049081 0.03716427 -0.00015123
v 0.00856831 0.03720880 -0.00024063
v 0.00856831 0.03693525 0.00020952
v 0.01021499 0.03473993 0.00018064
v 0.00170786 0.03720880 0.00020473
v 0.01071311 0.03605468 0.00004852
v 0.01071105 0.03713405 -0.00011226
v 0.01049081 0.03693525 -0.00015887
v 0.00856831 0.03693525 -0.00024995
v 0.00170786 0.03693525 -0.00025022
v 0.00170786 0.03720880 -0.00024086
v 0.00747122 0.03473993 0.00021079
v 0.00856831 0.03473993 0.00021038
v 0.00170786 0.03693525 0.00021011
v 0.00994123 0.03254462 0.00017734
v 0.01021499 0.03364254 0.00015198
v 0.01071311 0.03589882 0.00004852
v 0.00856831 0.03254462 0.00020957
v -0.00597593 0.03720880 0.00020441
v -0.00597593 0.03693525 0.00020984
v 0.01071311 0.03605468 -0.00011710
v 0.01071311 0.03589882 -0.00011710
v 0.01049081 0.03586065 -0.00015850
v 0.01021499 0.03473993 -0.00018386
v 0.00856831 0.03611194 -0.00025017
v 0.00170786 0.03611194 -0.00025044
v -0.00734679 0.03473993 -0.00025094
v -0.00597593 0.03693525 -0.00025013
v -0.00597593 0.03720880 -0.00024077
v 0.00747122 0.03254462 0.00021002
v 0.00417787 0.03473993 0.00021083
v 0.00170786 0.03364254 0.00021052
v -0.00487678 0.03473993 0.00021079
v 0.01011207 0.03238398 0.00003030
v 0.01013883 0.03254462 0.00007152
v 0.01039201 0.03345964 0.00004165
v 0.00856831 0.03179340 0.00019809
v 0.01039406 0.03364254 0.00005629
v -0.00817012 0.03720880 0.00018403
v -0.00817012 0.03693525 0.00019262
v -0.00817012 0.03473993 0.00021025
v 0.01039201 0.03345964 -0.00010056
v 0.01021499 0.03364254 -0.00017188
v 0.00994123 0.03254462 -0.00018278
v 0.00856831 0.03364254 -0.00024479
v 0.00747122 0.03254462 -0.00024741
v 0.00609830 0.03254462 -0.00024963
v 0.00527497 0.03254462 -0.00024990
v 0.00308077 0.03254462 -0.00025049
v 0.00308077 0.03473993 -0.00025076
v -0.00734679 0.03254462 -0.00025062
v -0.00817012 0.03473993 -0.00025076
v -0.00817012 0.03693525 -0.00023978
v -0.00817012 0.03720880 -0.00023268
v 0.00417787 0.03254462 0.00021007
v 0.00170786 0.03179340 0.00019922
v -0.00487678 0.03254462 0.00021002
v -0.00597593 0.03364254 0.00021025
v 0.01011207 0.03238398 -0.00007303
v 0.00882561 0.03179340 0.00009751
v -0.00849946 0.03720880 0.00010814
v -0.01009262 0.03716427 0.00008721
v -0.01009262 0.03693525 0.00010538
v -0.00844594 0.03693525 0.00018647
v -0.00981680 0.03473993 0.00018064
v -0.00844594 0.03473993 0.00020554
v -0.00817012 0.03254462 0.00020948
v 0.01013883 0.03254462 -0.00010856
v 0.00856831 0.03179340 -0.00022626
v 0.00856831 0.03254462 -0.00023824
v 0.00170786 0.03179340 -0.00022662
v -0.00597593 0.03179340 -0.00022649
v -0.00817012 0.03254462 -0.00025040
v -0.00844594 0.03254462 -0.00024213
v -0.00844594 0.03473993 -0.00024240
v -0.00844594 0.03693525 -0.00023390
v -0.01009262 0.03716427 -0.00015123
v -0.00849946 0.03720880 -0.00017220
v -0.00597593 0.03179340 0.00019876
v 0.00882561 0.03179340 -0.00014309
v 0.00877827 0.03179340 -0.00016560
v -0.01031286 0.03713405 0.00004671
v -0.01009262 0.03473993 0.00017169
v -0.00954304 0.03254462 0.00017734
v -0.00844594 0.03254462 0.00020460
v -0.00817012 0.03179340 0.00017038
v -0.00817012 0.03179340 -0.00021699
v -0.00954304 0.03254462 -0.00018282
v -0.01009262 0.03473993 -0.00017677
v -0.01009262 0.03693525 -0.00015887
v -0.01031286 0.03713405 -0.00011226
v -0.01031492 0.03605468 0.00004852
v -0.01031492 0.03589882 0.00004852
v -0.01026963 0.03473993 0.00006420
v -0.00981680 0.03254462 0.00011076
v -0.00844388 0.03179340 0.00010696
v -0.00823188 0.03179340 -0.00021058
v -0.00981680 0.03254462 -0.00013563
v -0.01026963 0.03473993 -0.00010196
v -0.01031492 0.03589882 -0.00011710
v -0.01031492 0.03605468 -0.00011710
v -0.01025111 0.03457983 0.00002691
v -0.00995882 0.03240254 -0.00001847
v -0.00996706 0.03254462 0.00000490
v -0.00981680 0.03238610 0.00002605
v -0.00844388 0.03179340 -0.00017093
v -0.00995882 0.03240254 -0.00004324
v -0.00996706 0.03254462 -0.00006137
v -0.01025111 0.03457983 -0.00007212
f 1 2 7
f 1 7 3
f 1 3 8
f 1 8 17
f 1 17 35
f 1 35 60
f 1 60 84
f 1 84 67
f 1 67 45
f 1 45 25
f 1 25 11
f 1 11 4
f 1 4 2
f 2 5 6
f 2 6 13
f 2 13 7
f 2 4 5
f 3 7 8
f 4 9 10
f 4 10 5
f 4 11 9
f 5 10 12
f 5 12 6
f 6 12 27
f 6 27 13
f 7 13 14
f 7 14 15
f 7 15 8
f 8 15 16
f 8 16 17
f 9 18 19
f 9 19 10
f 9 11 20
f 9 20 18
f 10 21 22
f 10 22 23
f 10 23 12
f 10 19 24
f 10 24 21
f 11 25 26
f 11 26 20
f 12 23 28
f 12 28 27
f 13 27 14
f 14 27 28
f 14 28 29
f 14 29 30
f 14 30 15
f 15 30 31
f 15 31 32
f 15 32 16
f 16 32 33
f 16 33 34
f 16 34 35
f 16 35 17
f 18 36 19
f 18 20 37
f 18 37 38
f 18 38 36
f 19 36 24
f 20 26 39
f 20 39 37
f 21 40 41
f 21 41 42
f 21 42 22
f 21 24 43
f 21 43 40
f 22 42 44
f 22 44 23
f 23 44 42
f 23 42 48
f 23 48 28
f 24 36 43
f 25 45 46
f 25 46 26
f 26 46 47
f 26 47 39
f 28 48 49
f 28 49 29
f 29 49 30
f 30 49 50
f 30 50 51
f 30 51 31
f 31 51 52
f 31 52 53
f 31 53 54
f 31 54 55
f 31 55 56
f 31 56 32
f 32 56 33
f 33 57 58
f 33 58 34
f 33 56 55
f 33 55 57
f 34 58 59
f 34 59 60
f 34 60 35
f 36 38 61
f 36 61 62
f 36 62 43
f 37 39 38
f 38 39 63
f 38 63 61
f 39 47 64
f 39 64 63
f 40 65 48
f 40 48 42
f 40 42 41
f 40 43 66
f 40 66 86
f 40 86 65
f 43 62 85
f 43 85 92
f 43 92 102
f 43 102 112
f 43 112 103
f 43 103 93
f 43 93 78
f 43 78 77
f 43 77 75
f 43 75 87
f 43 87 86
f 43 86 66
f 45 67 68
f 45 68 69
f 45 69 70
f 45 70 46
f 46 70 71
f 46 71 72
f 46 72 47
f 47 72 73
f 47 73 64
f 48 65 74
f 48 74 50
f 48 50 49
f 50 74 65
f 50 65 75
f 50 75 76
f 50 76 51
f 51 76 52
f 52 76 75
f 52 75 53
f 53 75 54
f 54 75 55
f 55 75 77
f 55 77 57
f 57 78 79
f 57 79 58
f 57 77 78
f 58 79 80
f 58 80 81
f 58 81 82
f 58 82 59
f 59 82 60
f 60 82 83
f 60 83 84
f 61 63 62
f 62 63 85
f 63 64 73
f 63 73 85
f 65 86 87
f 65 87 75
f 67 84 83
f 67 83 68
f 68 83 97
f 68 97 88
f 68 88 69
f 69 88 89
f 69 89 70
f 70 89 71
f 71 89 90
f 71 90 91
f 71 91 72
f 72 91 73
f 73 91 92
f 73 92 85
f 78 93 79
f 79 93 80
f 80 93 94
f 80 94 95
f 80 95 81
f 81 95 82
f 82 95 96
f 82 96 83
f 83 96 97
f 88 97 107
f 88 107 98
f 88 98 89
f 89 98 99
f 89 99 100
f 89 100 101
f 89 101 90
f 90 101 102
f 90 102 92
f 90 92 91
f 93 103 94
f 94 104 95
f 94 103 104
f 95 104 105
f 95 105 106
f 95 106 107
f 95 107 97
f 95 97 96
f 98 107 106
f 98 106 99
f 99 106 105
f 99 105 100
f 100 108 109
f 100 109 110
f 100 110 101
f 100 105 115
f 100 115 108
f 101 110 109
f 101 109 111
f 101 111 102
f 102 111 109
f 102 109 113
f 102 113 112
f 103 112 104
f 104 113 114
f 104 114 105
f 104 112 113
f 105 114 113
f 105 113 115
f 108 115 113
f 108 113 109

