# https://github.com/mikedh/trimesh
v -0.01027251 0.03210611 0.00019624
v -0.01021989 0.03179282 0.00019624
v -0.01013411 0.03155805 0.00040206
v -0.01015358 0.03179282 0.00041534
v -0.01017720 0.03210611 0.00042836
v -0.01026588 0.03210611 0.00012715
v -0.01015358 0.03151797 -0.00007002
v -0.01015483 0.03150897 0.00019624
v -0.00953283 0.03100753 0.00056296
v -0.00953283 0.03140018 0.00063205
v -0.00992567 0.03179282 0.00052243
v -0.00933972 0.02962511 0.00039501
v -0.00992567 0.03210611 0.00055007
v -0.00997167 0.03210611 0.00052841
v -0.01021243 0.03210611 -0.00022056
v -0.01018839 0.03179282 -0.00014629
v -0.01009805 0.03179282 -0.00034267
v -0.01004045 0.03139281 -0.00019904
v -0.00978229 0.03068688 -0.00011068
v -0.00935340 0.02959402 -0.00003495
v -0.00855197 0.02767008 -0.00000107
v -0.00855197 0.02767008 0.00000903
v -0.00971267 0.03045538 0.00019624
v -0.00914040 0.02982961 0.00051739
v -0.00914040 0.03022225 0.00058727
v -0.00874756 0.02943697 0.00061119
v -0.00835514 0.02865168 0.00063404
v -0.00914040 0.03061489 0.00065158
v -0.00953283 0.03179282 0.00067483
v -0.00935174 0.02959729 0.00019624
v -0.00853623 0.02770443 0.00027078
v -0.00858057 0.02796538 0.00041162
v -0.00838539 0.02784758 0.00047792
v -0.00953283 0.03210611 0.00067855
v -0.01011919 0.03200386 -0.00038678
v -0.01018466 0.03210611 -0.00028208
v -0.00984030 0.03140018 -0.00053892
v -0.00977525 0.03109588 -0.00046929
v -0.00971972 0.03083412 -0.00037243
v -0.00849893 0.02786722 -0.00028407
v -0.00840196 0.02751302 -0.00015758
v -0.00821508 0.02719236 -0.00019625
v -0.00779323 0.02645370 -0.00004983
v -0.00824408 0.02713837 0.00019624
v -0.00845376 0.02751302 0.00016236
v -0.00874756 0.02904432 0.00054170
v -0.00835514 0.02825904 0.00056548
v -0.00796271 0.02786722 0.00065265
v -0.00874756 0.02982961 0.00066726
v -0.00835514 0.02904432 0.00067709
v -0.00914040 0.03100753 0.00067723
v -0.00820099 0.02720054 0.00041587
v -0.00827723 0.02747457 0.00044750
v -0.00796271 0.02747457 0.00057930
v -0.00920629 0.03210611 0.00055060
v -0.00796271 0.02825904 0.00067749
v -0.00678461 0.02629665 0.00067616
v -0.00603912 0.02511872 0.00067098
v -0.00639218 0.02590401 0.00065823
v -0.00603912 0.02553100 0.00059392
v -0.01012830 0.03210611 -0.00040459
v -0.00953283 0.03140018 -0.00067285
v -0.00914040 0.03022225 -0.00063671
v -0.00947689 0.03061489 -0.00055606
v -0.00866552 0.02865168 -0.00054117
v -0.00902935 0.02943697 -0.00051553
v -0.00990163 0.03179282 -0.00056921
v -0.00859963 0.02834166 -0.00047195
v -0.00897299 0.02917275 -0.00044418
v -0.00934635 0.03000303 -0.00041096
v -0.00854410 0.02807990 -0.00037775
v -0.00816245 0.02727253 -0.00039927
v -0.00603912 0.02386390 -0.00019173
v -0.00623140 0.02407740 -0.00006830
v -0.00811977 0.02694205 0.00019624
v -0.00603912 0.02375020 0.00020940
v -0.00777500 0.02647988 0.00039820
v -0.00757029 0.02708193 0.00063032
v -0.00717745 0.02668929 0.00066274
v -0.00757029 0.02747457 0.00067483
v -0.00797929 0.02707457 0.00047287
v -0.00603912 0.02399151 0.00044324
v -0.00900863 0.03210611 0.00021006
v -0.00603912 0.02573222 0.00054130
v -0.00609714 0.02590401 0.00050636
v -0.00603912 0.02590564 0.00041800
v -0.00603912 0.02472608 0.00061584
v -0.00639218 0.02551136 0.00065902
v -0.00995468 0.03210611 -0.00055366
v -0.00953283 0.03179282 -0.00067258
v -0.00914040 0.03061489 -0.00067816
v -0.00835514 0.02865168 -0.00067418
v -0.00874756 0.02943697 -0.00066036
v -0.00830251 0.02786722 -0.00055752
v -0.00821259 0.02747457 -0.00047288
v -0.00795070 0.02711792 -0.00050995
v -0.00781188 0.02681853 -0.00046185
v -0.00603912 0.02407740 -0.00041070
v -0.00603912 0.02390480 -0.00023731
v -0.00603912 0.02378128 0.00008556
v -0.00621068 0.02410767 0.00040272
v -0.00603912 0.02429090 0.00051672
v -0.00603912 0.02433344 0.00052682
v -0.00895144 0.03210611 0.00007201
v -0.00603912 0.02613141 0.00018070
v -0.00990536 0.03210611 -0.00056748
v -0.00953283 0.03210611 -0.00064933
v -0.00603912 0.02515880 -0.00065650
v -0.00639218 0.02551136 -0.00067298
v -0.00603912 0.02475962 -0.00067364
v -0.00796271 0.02786722 -0.00067883
v -0.00796271 0.02747457 -0.00063206
v -0.00758313 0.02668847 -0.00056443
v -0.00603912 0.02435307 -0.00056908
v -0.00603912 0.02433834 -0.00056177
v -0.00624176 0.02445368 -0.00046464
v -0.00892824 0.03207421 0.00003428
v -0.00893818 0.03210611 -0.00019625
v -0.00603912 0.02622793 -0.00018177
v -0.00619369 0.02649624 0.00000385
v -0.00945368 0.03210611 -0.00061744
v -0.00603912 0.02555145 -0.00056230
v -0.00912010 0.03210611 -0.00046770
v -0.00908819 0.03210611 -0.00045295
v -0.00757029 0.02708193 -0.00067285
v -0.00895227 0.03210611 -0.00031902
v -0.00603912 0.02612814 -0.00033736
v -0.00603912 0.02593509 -0.00045946
v -0.00905587 0.03210611 -0.00043727
v -0.00894150 0.03200877 -0.00039489
v -0.00603912 0.02598253 -0.00044657
v -0.00613278 0.02621076 -0.00042226
f 1 2 3
f 1 3 4
f 1 4 5
f 1 5 14
f 1 14 13
f 1 13 34
f 1 34 55
f 1 55 83
f 1 83 104
f 1 104 118
f 1 118 126
f 1 126 129
f 1 129 124
f 1 124 123
f 1 123 121
f 1 121 107
f 1 107 106
f 1 106 89
f 1 89 61
f 1 61 36
f 1 36 15
f 1 15 6
f 1 6 7
f 1 7 2
f 2 7 8
f 2 8 3
f 3 9 10
f 3 10 11
f 3 11 4
f 3 8 12
f 3 12 9
f 4 11 13
f 4 13 14
f 4 14 5
f 6 15 16
f 6 16 7
f 7 16 17
f 7 17 18
f 7 18 19
f 7 19 20
f 7 20 8
f 8 20 21
f 8 21 22
f 8 22 23
f 8 23 12
f 9 12 24
f 9 24 25
f 9 25 10
f 10 25 26
f 10 26 27
f 10 27 28
f 10 28 29
f 10 29 11
f 11 29 13
f 12 23 30
f 12 30 31
f 12 31 32
f 12 32 33
f 12 33 24
f 13 29 34
f 15 35 16
f 15 36 35
f 16 35 17
f 17 35 37
f 17 37 38
f 17 38 18
f 18 38 39
f 18 39 21
f 18 21 19
f 19 21 20
f 21 40 41
f 21 41 42
f 21 42 43
f 21 43 44
f 21 44 22
f 21 39 40
f 22 44 45
f 22 45 31
f 22 31 30
f 22 30 23
f 24 33 46
f 24 46 25
f 25 46 47
f 25 47 26
f 26 47 27
f 27 47 48
f 27 48 28
f 28 48 49
f 28 49 29
f 29 49 50
f 29 50 51
f 29 51 34
f 31 45 44
f 31 44 52
f 31 52 32
f 32 52 53
f 32 53 33
f 33 53 54
f 33 54 48
f 33 48 47
f 33 47 46
f 34 51 50
f 34 50 56
f 34 56 57
f 34 57 58
f 34 58 59
f 34 59 60
f 34 60 55
f 35 36 61
f 35 61 37
f 37 62 63
f 37 63 64
f 37 64 65
f 37 65 66
f 37 66 38
f 37 61 67
f 37 67 62
f 38 66 68
f 38 68 69
f 38 69 70
f 38 70 39
f 39 70 71
f 39 71 40
f 40 71 72
f 40 72 41
f 41 72 42
f 42 72 73
f 42 73 74
f 42 74 43
f 43 75 44
f 43 74 76
f 43 76 75
f 44 75 77
f 44 77 52
f 48 54 78
f 48 78 79
f 48 79 80
f 48 80 56
f 48 56 50
f 48 50 49
f 52 54 53
f 52 77 81
f 52 81 54
f 54 81 82
f 54 82 78
f 55 60 84
f 55 84 85
f 55 85 86
f 55 86 83
f 56 80 57
f 57 80 79
f 57 79 58
f 58 87 103
f 58 103 102
f 58 102 82
f 58 82 76
f 58 76 100
f 58 100 73
f 58 73 99
f 58 99 98
f 58 98 115
f 58 115 114
f 58 114 110
f 58 110 108
f 58 108 122
f 58 122 128
f 58 128 131
f 58 131 127
f 58 127 119
f 58 119 105
f 58 105 86
f 58 86 84
f 58 84 60
f 58 60 59
f 58 79 88
f 58 88 87
f 61 89 67
f 62 67 90
f 62 90 91
f 62 91 92
f 62 92 93
f 62 93 63
f 63 93 94
f 63 94 64
f 64 94 65
f 65 68 66
f 65 94 68
f 67 89 90
f 68 94 95
f 68 95 71
f 68 71 69
f 69 71 70
f 71 95 72
f 72 95 96
f 72 96 97
f 72 97 98
f 72 98 99
f 72 99 73
f 73 100 74
f 74 100 76
f 75 76 77
f 76 82 101
f 76 101 77
f 77 101 82
f 77 82 81
f 78 82 102
f 78 102 103
f 78 103 87
f 78 87 79
f 79 87 88
f 83 86 105
f 83 105 104
f 84 86 85
f 89 106 90
f 90 106 107
f 90 107 108
f 90 108 109
f 90 109 91
f 91 109 110
f 91 110 111
f 91 111 92
f 92 111 112
f 92 112 93
f 93 112 94
f 94 112 95
f 95 112 96
f 96 112 113
f 96 113 114
f 96 114 115
f 96 115 116
f 96 116 97
f 97 116 98
f 98 116 115
f 104 117 118
f 104 105 117
f 105 119 120
f 105 120 117
f 107 121 108
f 108 110 109
f 108 121 123
f 108 123 124
f 108 124 122
f 110 114 112
f 110 112 125
f 110 125 111
f 111 125 112
f 112 114 113
f 117 120 119
f 117 119 118
f 118 119 126
f 119 127 126
f 122 124 129
f 122 129 128
f 126 130 129
f 126 127 130
f 127 131 132
f 127 132 130
f 128 129 131
f 129 130 131
f 130 132 131

