# https://github.com/mikedh/trimesh
v 0.00190670 0.01449477 0.00019629
v 0.00206501 0.01504570 0.00040418
v 0.00190670 0.01450407 0.00020411
v 0.00190670 0.01468074 -0.00019617
v 0.00533596 0.02240994 -0.00020262
v 0.00541494 0.02240994 0.00019629
v 0.00520924 0.02213797 0.00040487
v 0.00190670 0.01493489 0.00045897
v 0.00190670 0.01467144 0.00031136
v 0.00529063 0.02240994 0.00043741
v 0.00190670 0.01490080 -0.00032511
v 0.00528239 0.02240994 -0.00030039
v 0.00531913 0.02240994 0.00039622
v 0.00190670 0.01536959 0.00052502
v 0.00503754 0.02240994 0.00054164
v 0.00499462 0.02240994 0.00055853
v 0.00464194 0.02240994 0.00068005
v 0.00190670 0.01534092 -0.00053507
v 0.00509901 0.02240994 -0.00053699
v 0.00190670 0.01574539 0.00058022
v 0.00460210 0.02240994 0.00068637
v 0.00460210 0.02236965 0.00068472
v 0.00190670 0.01653342 0.00068280
v 0.00190670 0.01614134 0.00063735
v 0.00190670 0.01569503 -0.00061869
v 0.00501247 0.02240994 -0.00059192
v 0.00501488 0.02236190 -0.00057887
v 0.00421302 0.02240994 0.00058901
v 0.00420924 0.02197680 0.00069585
v 0.00381673 0.02119186 0.00070065
v 0.00224633 0.01765851 0.00069694
v 0.00190670 0.01692627 0.00069214
v 0.00190670 0.01608788 -0.00067801
v 0.00460210 0.02197680 -0.00067499
v 0.00460210 0.02236965 -0.00068612
v 0.00460210 0.02240994 -0.00067815
v 0.00418898 0.02240994 0.00057844
v 0.00388370 0.02197680 0.00054878
v 0.00348775 0.02119186 0.00055880
v 0.00303170 0.01962123 0.00069914
v 0.00342456 0.02040616 0.00069996
v 0.00263919 0.01883552 0.00069818
v 0.00224633 0.01805137 0.00069681
v 0.00190670 0.01731913 0.00065012
v 0.00190670 0.01648228 -0.00067403
v 0.00224633 0.01726566 -0.00070218
v 0.00420924 0.02158394 -0.00069985
v 0.00420924 0.02197680 -0.00064423
v 0.00417078 0.02240994 -0.00053768
v 0.00400560 0.02240994 0.00040528
v 0.00396371 0.02226349 0.00047229
v 0.00356398 0.02150336 0.00048561
v 0.00309832 0.02040616 0.00055674
v 0.00270925 0.01962123 0.00055455
v 0.00231982 0.01883552 0.00055221
v 0.00194379 0.01805137 0.00054809
v 0.00190670 0.01790802 0.00054933
v 0.00190670 0.01687358 -0.00064533
v 0.00224633 0.01765851 -0.00069106
v 0.00263919 0.01844345 -0.00069985
v 0.00303170 0.01922838 -0.00070053
v 0.00342456 0.02001331 -0.00070122
v 0.00381673 0.02079901 -0.00070163
v 0.00381673 0.02119186 -0.00065385
v 0.00381673 0.02158394 -0.00057640
v 0.00391048 0.02240994 -0.00043194
v 0.00387957 0.02240994 0.00021276
v 0.00362854 0.02176526 0.00037699
v 0.00200286 0.01834426 0.00047367
v 0.00190670 0.01800643 0.00051376
v 0.00190670 0.01726566 -0.00060345
v 0.00190670 0.01765851 -0.00055415
v 0.00224633 0.01805137 -0.00063819
v 0.00263919 0.01883552 -0.00064602
v 0.00303170 0.01962123 -0.00064877
v 0.00342456 0.02079901 -0.00057393
v 0.00351316 0.02158394 -0.00044499
v 0.00358596 0.02186599 -0.00041450
v 0.00379407 0.02198919 -0.00047671
v 0.00339846 0.02120581 -0.00047835
v 0.00379166 0.02240994 -0.00019631
v 0.00379853 0.02240994 -0.00015538
v 0.00356364 0.02188846 0.00011527
v 0.00347985 0.02161416 0.00022622
v 0.00317319 0.02110663 0.00011060
v 0.00278273 0.02031705 0.00010607
v 0.00284764 0.02018532 0.00036779
v 0.00206708 0.01860539 0.00035873
v 0.00192594 0.01846204 0.00021523
v 0.00190670 0.01842097 0.00021249
v 0.00190670 0.01823888 0.00036944
v 0.00190670 0.01804284 -0.00049428
v 0.00224633 0.01844345 -0.00056555
v 0.00319517 0.02108493 -0.00041368
v 0.00325183 0.02134219 -0.00019631
v 0.00300767 0.02041778 -0.00047671
v 0.00202243 0.01871310 -0.00041093
v 0.00200217 0.01873712 0.00009687
v 0.00211859 0.01885489 0.00021523
v 0.00231398 0.01925007 0.00021784
v 0.00190670 0.01856665 -0.00007299
v 0.00190670 0.01827608 -0.00044979
v 0.00195787 0.01844345 -0.00043963
v 0.00222607 0.01884095 -0.00047341
v 0.00286309 0.02054951 -0.00019631
v 0.00190670 0.01844345 -0.00033637
v 0.00190670 0.01858757 -0.00019631
v 0.00208596 0.01896415 -0.00019631
f 1 2 3
f 1 3 9
f 1 9 8
f 1 8 14
f 1 14 20
f 1 20 24
f 1 24 23
f 1 23 32
f 1 32 44
f 1 44 57
f 1 57 70
f 1 70 91
f 1 91 90
f 1 90 101
f 1 101 107
f 1 107 106
f 1 106 102
f 1 102 92
f 1 92 72
f 1 72 71
f 1 71 58
f 1 58 45
f 1 45 33
f 1 33 25
f 1 25 18
f 1 18 11
f 1 11 4
f 1 4 5
f 1 5 6
f 1 6 7
f 1 7 2
f 2 8 9
f 2 9 3
f 2 7 10
f 2 10 8
f 4 11 12
f 4 12 5
f 5 12 19
f 5 19 26
f 5 26 36
f 5 36 49
f 5 49 66
f 5 66 81
f 5 81 82
f 5 82 67
f 5 67 50
f 5 50 37
f 5 37 28
f 5 28 21
f 5 21 17
f 5 17 16
f 5 16 15
f 5 15 10
f 5 10 13
f 5 13 6
f 6 13 7
f 7 13 10
f 8 10 15
f 8 15 16
f 8 16 17
f 8 17 14
f 11 18 19
f 11 19 12
f 14 17 20
f 17 21 22
f 17 22 23
f 17 23 24
f 17 24 20
f 18 25 26
f 18 26 27
f 18 27 19
f 19 27 26
f 21 28 29
f 21 29 30
f 21 30 31
f 21 31 23
f 21 23 22
f 23 31 32
f 25 33 34
f 25 34 26
f 26 34 35
f 26 35 36
f 28 37 29
f 29 37 38
f 29 38 39
f 29 39 30
f 30 39 40
f 30 40 41
f 30 41 31
f 31 42 43
f 31 43 32
f 31 41 40
f 31 40 42
f 32 43 44
f 33 45 46
f 33 46 34
f 34 47 35
f 34 46 47
f 35 47 48
f 35 48 36
f 36 48 49
f 37 50 51
f 37 51 38
f 38 51 52
f 38 52 39
f 39 53 43
f 39 43 40
f 39 52 53
f 40 43 42
f 43 53 54
f 43 54 55
f 43 55 56
f 43 56 44
f 44 56 57
f 45 58 59
f 45 59 46
f 46 59 60
f 46 60 61
f 46 61 62
f 46 62 63
f 46 63 47
f 47 63 64
f 47 64 48
f 48 64 65
f 48 65 49
f 49 65 66
f 50 67 51
f 51 67 68
f 51 68 52
f 52 54 53
f 52 68 69
f 52 69 55
f 52 55 54
f 55 69 56
f 56 70 57
f 56 69 70
f 58 71 59
f 59 72 73
f 59 73 60
f 59 71 72
f 60 73 74
f 60 74 75
f 60 75 64
f 60 64 61
f 61 64 62
f 62 64 63
f 64 75 76
f 64 76 65
f 65 77 78
f 65 78 79
f 65 79 66
f 65 76 80
f 65 80 77
f 66 79 78
f 66 78 81
f 67 82 83
f 67 83 68
f 68 83 84
f 68 84 85
f 68 85 86
f 68 86 87
f 68 87 69
f 69 88 89
f 69 89 90
f 69 90 91
f 69 91 70
f 69 87 88
f 72 92 73
f 73 92 93
f 73 93 74
f 74 93 75
f 75 93 76
f 76 93 80
f 77 80 78
f 78 80 94
f 78 94 95
f 78 95 81
f 80 93 96
f 80 96 97
f 80 97 94
f 81 95 83
f 81 83 82
f 83 95 85
f 83 85 84
f 85 95 86
f 86 95 98
f 86 98 99
f 86 99 100
f 86 100 88
f 86 88 87
f 88 100 99
f 88 99 98
f 88 98 89
f 89 98 90
f 90 98 101
f 92 102 93
f 93 102 103
f 93 103 104
f 93 104 96
f 94 97 95
f 95 97 105
f 95 105 98
f 96 104 97
f 97 104 103
f 97 103 102
f 97 102 106
f 97 106 107
f 97 107 108
f 97 108 105
f 98 108 101
f 98 105 108
f 101 108 107

