# https://github.com/mikedh/trimesh
v -0.01096196 0.03611278 0.00019623
v -0.01094789 0.03611278 -0.00009095
v -0.01092987 0.03572083 -0.00005050
v -0.01093086 0.03571155 0.00019009
v -0.01091639 0.03583600 0.00039996
v -0.01092135 0.03611278 0.00040410
v -0.01091778 0.03650566 0.00040130
v -0.01091144 0.03679451 0.00039622
v -0.01095186 0.03650566 0.00019623
v -0.01094136 0.03650566 -0.00007613
v -0.01086033 0.03611278 -0.00028735
v -0.01091065 0.03550536 -0.00000751
v -0.01084230 0.03572083 -0.00024676
v -0.01053305 0.03345646 -0.00004062
v -0.01091065 0.03550536 0.00005511
v -0.01089738 0.03557409 0.00031692
v -0.01074424 0.03571155 0.00047006
v -0.01031830 0.03572083 0.00065911
v -0.01071095 0.03611278 0.00050357
v -0.01051918 0.03352426 0.00039636
v -0.01071095 0.03650566 0.00049783
v -0.01031830 0.04121645 0.00051812
v -0.01053919 0.04121645 0.00041158
v -0.01052770 0.04148023 0.00040303
v -0.01090391 0.03705550 0.00037233
v -0.01092551 0.03691339 0.00022333
v -0.01091560 0.03720596 0.00011065
v -0.01091560 0.03720596 -0.00001846
v -0.01085359 0.03650566 -0.00027253
v -0.01065727 0.03650566 -0.00056999
v -0.01066400 0.03611278 -0.00057132
v -0.01064597 0.03572083 -0.00056451
v -0.01061091 0.03532796 -0.00054182
v -0.01057604 0.03493508 -0.00050056
v -0.01054097 0.03454221 -0.00044302
v -0.01052057 0.03431280 -0.00040470
v -0.01049719 0.03405088 -0.00035397
v -0.01021627 0.03215616 -0.00023207
v -0.01030740 0.03257875 -0.00019629
v -0.01021251 0.03210786 -0.00022046
v -0.01026600 0.03210786 0.00012720
v -0.01027234 0.03210786 0.00019623
v -0.01049541 0.03325862 0.00019623
v -0.01053186 0.03345553 0.00019623
v -0.01031830 0.03493508 0.00060050
v -0.01031830 0.03532796 0.00063147
v -0.01031830 0.03375738 0.00050731
v -0.01031830 0.03611278 0.00067152
v -0.00992584 0.03336451 0.00064923
v -0.00992584 0.03375738 0.00067206
v -0.01031830 0.03650566 0.00066805
v -0.01017724 0.03210786 0.00042840
v -0.00997160 0.03210786 0.00052853
v -0.00992584 0.03218681 0.00055710
v -0.01031830 0.03689760 0.00065871
v -0.01031830 0.03729048 0.00064696
v -0.01031830 0.03768243 0.00063427
v -0.01031830 0.03886105 0.00059556
v -0.00992584 0.04121645 0.00067593
v -0.00992584 0.04159540 0.00065337
v -0.00994011 0.04159540 0.00064762
v -0.01034366 0.04159540 0.00047233
v -0.01036604 0.04159540 0.00046258
v -0.01051344 0.04159540 0.00031345
v -0.01054929 0.04154896 0.00019623
v -0.01059605 0.04121645 0.00019623
v -0.01057148 0.04121645 -0.00012700
v -0.01062735 0.04003875 -0.00019629
v -0.01058535 0.04042048 -0.00022727
v -0.01051819 0.04028210 -0.00039976
v -0.01052711 0.04003875 -0.00041765
v -0.01054157 0.03964588 -0.00044542
v -0.01055603 0.03925300 -0.00047119
v -0.01057049 0.03886105 -0.00049455
v -0.01058496 0.03846818 -0.00051525
v -0.01059942 0.03807530 -0.00053274
v -0.01061388 0.03768243 -0.00054702
v -0.01062834 0.03729048 -0.00055784
v -0.01064280 0.03689760 -0.00056545
v -0.01031830 0.03807530 -0.00066865
v -0.01031830 0.03768243 -0.00067640
v -0.01031830 0.03729048 -0.00068080
v -0.01031830 0.03572083 -0.00068053
v -0.01031830 0.03532796 -0.00067359
v -0.01031830 0.03689760 -0.00068187
v -0.01031830 0.03493508 -0.00064796
v -0.01023985 0.03336451 -0.00055784
v -0.01020498 0.03297163 -0.00052807
v -0.01017011 0.03257875 -0.00048027
v -0.01014257 0.03226668 -0.00043234
v -0.01012831 0.03210786 -0.00040457
v -0.01018497 0.03210786 -0.00028201
v -0.00992584 0.03297163 0.00061919
v -0.00992584 0.03415026 0.00068114
v -0.00992584 0.04043163 0.00068180
v -0.00992584 0.04082358 0.00067927
v -0.00953319 0.03210786 0.00067847
v -0.00992584 0.03210786 0.00055003
v -0.00953319 0.03218681 0.00067940
v -0.00950703 0.04159540 0.00056191
v -0.01053642 0.04159540 0.00019623
v -0.01054771 0.04152760 -0.00007386
v -0.01048352 0.04121645 -0.00032339
v -0.01049798 0.04082358 -0.00035570
v -0.01028720 0.04121645 -0.00057199
v -0.01031830 0.03886105 -0.00064342
v -0.01031830 0.03846818 -0.00065757
v -0.00992584 0.04159540 -0.00068000
v -0.00992584 0.03336451 -0.00068053
v -0.00992584 0.03297163 -0.00066612
v -0.00992584 0.03257875 -0.00063381
v -0.00995496 0.03210786 -0.00055357
v -0.00920650 0.03210786 0.00055056
v -0.00950426 0.04159540 0.00056111
v -0.01049264 0.04159540 -0.00015143
v -0.01045975 0.04159540 -0.00021392
v -0.01025153 0.04159540 -0.00055877
v -0.00953319 0.04159540 -0.00054996
v -0.00953319 0.03210786 -0.00064929
v -0.00990543 0.03210786 -0.00056758
v -0.00900879 0.03210786 0.00020998
v -0.00932973 0.04159540 0.00040397
v -0.00952526 0.04159540 -0.00054622
v -0.00908843 0.03210786 -0.00045303
v -0.00912052 0.03210786 -0.00046772
v -0.00945414 0.03210786 -0.00061752
v -0.00895153 0.03210786 0.00007193
v -0.00923899 0.04159540 0.00021452
v -0.00927663 0.04159540 -0.00042860
v -0.00905633 0.03210786 -0.00043728
v -0.00893826 0.03210786 -0.00019629
v -0.00917738 0.04159540 -0.00019629
v -0.00917797 0.04159540 -0.00018508
v -0.00895272 0.03210786 -0.00031899
f 1 2 3
f 1 3 4
f 1 4 5
f 1 5 6
f 1 6 7
f 1 7 8
f 1 8 9
f 1 9 10
f 1 10 2
f 2 10 11
f 2 11 3
f 3 12 4
f 3 11 13
f 3 13 14
f 3 14 12
f 4 12 15
f 4 15 16
f 4 16 5
f 5 17 18
f 5 18 19
f 5 19 6
f 5 16 20
f 5 20 17
f 6 19 7
f 7 19 21
f 7 21 8
f 8 22 23
f 8 23 24
f 8 24 25
f 8 25 9
f 8 21 22
f 9 25 26
f 9 26 27
f 9 27 28
f 9 28 10
f 10 28 29
f 10 29 11
f 11 29 30
f 11 30 31
f 11 31 32
f 11 32 13
f 12 14 15
f 13 32 33
f 13 33 34
f 13 34 35
f 13 35 36
f 13 36 37
f 13 37 38
f 13 38 39
f 13 39 14
f 14 39 38
f 14 38 40
f 14 40 41
f 14 41 42
f 14 42 43
f 14 43 44
f 14 44 15
f 15 44 16
f 16 44 20
f 17 45 46
f 17 46 18
f 17 20 47
f 17 47 45
f 18 48 19
f 18 46 49
f 18 49 50
f 18 50 48
f 19 48 51
f 19 51 21
f 20 44 43
f 20 43 42
f 20 42 52
f 20 52 53
f 20 53 54
f 20 54 47
f 21 51 55
f 21 55 56
f 21 56 57
f 21 57 58
f 21 58 22
f 22 58 59
f 22 59 60
f 22 60 61
f 22 61 24
f 22 24 23
f 24 61 62
f 24 62 63
f 24 63 64
f 24 64 65
f 24 65 66
f 24 66 25
f 25 27 26
f 25 66 27
f 27 66 28
f 28 66 67
f 28 67 68
f 28 68 29
f 29 68 69
f 29 69 70
f 29 70 71
f 29 71 72
f 29 72 73
f 29 73 74
f 29 74 75
f 29 75 76
f 29 76 77
f 29 77 78
f 29 78 79
f 29 79 30
f 30 79 80
f 30 80 81
f 30 81 82
f 30 82 31
f 31 83 84
f 31 84 32
f 31 82 85
f 31 85 83
f 32 84 86
f 32 86 87
f 32 87 33
f 33 87 88
f 33 88 34
f 34 88 89
f 34 89 35
f 35 89 90
f 35 90 36
f 36 90 91
f 36 91 92
f 36 92 37
f 37 92 38
f 38 92 40
f 40 92 91
f 40 91 112
f 40 112 120
f 40 120 119
f 40 119 126
f 40 126 125
f 40 125 124
f 40 124 130
f 40 130 134
f 40 134 131
f 40 131 127
f 40 127 121
f 40 121 113
f 40 113 97
f 40 97 98
f 40 98 53
f 40 53 52
f 40 52 42
f 40 42 41
f 45 47 54
f 45 54 93
f 45 93 46
f 46 93 49
f 48 50 94
f 48 94 95
f 48 95 96
f 48 96 59
f 48 59 51
f 49 93 97
f 49 97 50
f 50 97 94
f 51 59 55
f 53 98 54
f 54 98 97
f 54 97 93
f 55 59 56
f 56 59 57
f 57 59 58
f 59 96 99
f 59 99 100
f 59 100 60
f 60 100 114
f 60 114 122
f 60 122 128
f 60 128 133
f 60 133 132
f 60 132 129
f 60 129 123
f 60 123 118
f 60 118 108
f 60 108 117
f 60 117 116
f 60 116 115
f 60 115 101
f 60 101 64
f 60 64 63
f 60 63 62
f 60 62 61
f 64 101 65
f 65 101 102
f 65 102 66
f 66 102 67
f 67 102 103
f 67 103 69
f 67 69 68
f 69 103 70
f 70 103 104
f 70 104 105
f 70 105 71
f 71 105 72
f 72 105 73
f 73 105 74
f 74 105 75
f 75 105 76
f 76 105 77
f 77 105 78
f 78 105 106
f 78 106 79
f 79 106 107
f 79 107 80
f 80 107 108
f 80 108 81
f 81 108 82
f 82 108 85
f 83 109 84
f 83 85 109
f 84 109 110
f 84 110 86
f 85 108 109
f 86 110 87
f 87 110 111
f 87 111 88
f 88 111 112
f 88 112 89
f 89 112 90
f 90 112 91
f 94 97 99
f 94 99 95
f 95 99 96
f 97 113 99
f 99 113 114
f 99 114 100
f 101 115 102
f 102 115 103
f 103 115 116
f 103 116 117
f 103 117 105
f 103 105 104
f 105 117 108
f 105 108 107
f 105 107 106
f 108 118 119
f 108 119 109
f 109 119 110
f 110 119 111
f 111 119 120
f 111 120 112
f 113 121 122
f 113 122 114
f 118 123 124
f 118 124 125
f 118 125 126
f 118 126 119
f 121 127 128
f 121 128 122
f 123 129 124
f 124 129 130
f 127 131 132
f 127 132 133
f 127 133 128
f 129 132 134
f 129 134 130
f 131 134 132

