# https://github.com/mikedh/trimesh
v 0.00010907 0.01156138 0.00157783
v 0.00101732 0.01176882 0.00125009
v 0.00067580 0.01176882 0.00137489
v 0.00010868 0.01176882 0.00157752
v 0.00004703 0.01156138 0.00157783
v 0.00025727 0.01150934 0.00138292
v 0.00067580 0.01148262 0.00127604
v 0.00097453 0.01151426 0.00122878
v 0.00121356 0.01176882 0.00110584
v 0.00190651 0.01692532 0.00069192
v 0.00004781 0.01176882 0.00157752
v 0.00009371 0.01197134 0.00157258
v -0.00007997 0.01151919 0.00141072
v -0.00007997 0.01151426 0.00139218
v -0.00007997 0.01176882 0.00154385
v 0.00106828 0.01140527 0.00019615
v 0.00106828 0.01144324 0.00058875
v 0.00134503 0.01148754 0.00058875
v 0.00129641 0.01153114 0.00087571
v 0.00190651 0.01493458 0.00045871
v 0.00190651 0.01530165 0.00051493
v 0.00190651 0.01536845 0.00052481
v 0.00190651 0.01574466 0.00058010
v 0.00190651 0.01614056 0.00063725
v 0.00190651 0.01653294 0.00068266
v 0.00190651 0.01731840 0.00064991
v 0.00007465 0.01197134 0.00157258
v -0.00007997 0.01183070 0.00154045
v 0.00190651 0.01790697 0.00054921
v -0.00007997 0.01145308 0.00019615
v -0.00007997 0.01144394 -0.00016680
v -0.00007997 0.01144324 -0.00019615
v 0.00106828 0.01140386 -0.00019615
v 0.00139307 0.01147910 0.00019615
v 0.00152707 0.01176882 0.00019615
v 0.00141699 0.01176882 0.00058875
v 0.00190651 0.01467159 0.00031106
v -0.00007763 0.01212604 0.00148269
v -0.00007997 0.01212393 0.00148238
v 0.00190651 0.01800542 0.00051369
v -0.00007997 0.01212604 0.00148176
v 0.00067580 0.01148262 -0.00127604
v -0.00007997 0.01152481 -0.00138879
v 0.00106828 0.01143761 -0.00058875
v 0.00134503 0.01148754 -0.00058875
v 0.00139307 0.01147910 -0.00019615
v 0.00152707 0.01176882 -0.00019615
v 0.00190651 0.01449439 0.00019615
v 0.00190651 0.01450423 0.00020387
v 0.00190651 0.01823817 0.00036944
v -0.00007997 0.01251561 0.00128160
v -0.00007997 0.01215628 0.00146694
v 0.00010907 0.01156138 -0.00157783
v 0.00097453 0.01151426 -0.00122878
v 0.00004703 0.01156138 -0.00157783
v -0.00007997 0.01152903 -0.00140794
v 0.00129641 0.01153114 -0.00087571
v 0.00141699 0.01176882 -0.00058875
v 0.00190651 0.01534032 -0.00053500
v 0.00190651 0.01490083 -0.00032496
v 0.00190651 0.01468073 -0.00019615
v 0.00190651 0.01842030 0.00021252
v -0.00007997 0.01273008 0.00113302
v -0.00007997 0.01271180 0.00114847
v -0.00007997 0.01253037 0.00127172
v 0.00010868 0.01176882 -0.00157752
v 0.00067580 0.01176882 -0.00137489
v 0.00101732 0.01176882 -0.00125009
v 0.00121356 0.01176882 -0.00110584
v -0.00007997 0.01169639 -0.00153736
v -0.00007997 0.01176882 -0.00153736
v 0.00004781 0.01176882 -0.00157752
v 0.00130827 0.01176882 -0.00090938
v 0.00190651 0.01569473 -0.00061871
v 0.00174061 0.01805675 0.00018935
v 0.00190651 0.01856656 -0.00007290
v 0.00163190 0.01793018 0.00005375
v -0.00007997 0.01295862 0.00092297
v 0.00009371 0.01197134 -0.00157258
v 0.00190651 0.01648160 -0.00067401
v 0.00190651 0.01608711 -0.00067802
v -0.00007997 0.01211338 -0.00147929
v 0.00007465 0.01197134 -0.00157258
v 0.00190651 0.01858766 -0.00019615
v 0.00183747 0.01844280 -0.00019615
v 0.00169802 0.01814465 -0.00019615
v -0.00007997 0.01370470 -0.00019615
v -0.00007997 0.01368361 -0.00013591
v -0.00007997 0.01355492 0.00021097
v -0.00007997 0.01329474 0.00057300
v 0.00190651 0.01804198 -0.00049423
v 0.00190651 0.01765804 -0.00055416
v 0.00190651 0.01726496 -0.00060327
v 0.00190651 0.01687258 -0.00064528
v -0.00007997 0.01212604 -0.00147713
v 0.00190651 0.01827544 -0.00044975
v 0.00190651 0.01844280 -0.00033639
v 0.00164512 0.01790275 -0.00040218
v -0.00007997 0.01359430 -0.00031198
v -0.00007997 0.01215628 -0.00146261
v -0.00007997 0.01251561 -0.00128160
v -0.00007997 0.01271180 -0.00114229
f 1 2 3
f 1 3 4
f 1 4 11
f 1 11 5
f 1 5 6
f 1 6 7
f 1 7 8
f 1 8 2
f 2 8 9
f 2 9 10
f 2 10 3
f 3 10 4
f 4 10 12
f 4 12 27
f 4 27 11
f 5 13 14
f 5 14 6
f 5 11 15
f 5 15 13
f 6 14 7
f 7 14 16
f 7 16 17
f 7 17 8
f 8 17 18
f 8 18 19
f 8 19 9
f 9 19 20
f 9 20 21
f 9 21 22
f 9 22 23
f 9 23 24
f 9 24 25
f 9 25 10
f 10 25 24
f 10 24 23
f 10 23 22
f 10 22 21
f 10 21 20
f 10 20 37
f 10 37 49
f 10 49 48
f 10 48 61
f 10 61 60
f 10 60 59
f 10 59 74
f 10 74 81
f 10 81 80
f 10 80 94
f 10 94 93
f 10 93 92
f 10 92 91
f 10 91 96
f 10 96 97
f 10 97 84
f 10 84 76
f 10 76 62
f 10 62 50
f 10 50 40
f 10 40 29
f 10 29 26
f 10 26 12
f 11 27 28
f 11 28 15
f 12 26 29
f 12 29 27
f 13 15 28
f 13 28 39
f 13 39 41
f 13 41 52
f 13 52 51
f 13 51 65
f 13 65 64
f 13 64 63
f 13 63 78
f 13 78 90
f 13 90 89
f 13 89 88
f 13 88 87
f 13 87 99
f 13 99 102
f 13 102 101
f 13 101 100
f 13 100 95
f 13 95 82
f 13 82 71
f 13 71 70
f 13 70 56
f 13 56 43
f 13 43 32
f 13 32 31
f 13 31 30
f 13 30 14
f 14 30 16
f 16 30 31
f 16 31 32
f 16 32 33
f 16 33 34
f 16 34 18
f 16 18 17
f 18 34 35
f 18 35 19
f 19 35 36
f 19 36 20
f 20 36 35
f 20 35 37
f 27 38 39
f 27 39 28
f 27 29 38
f 29 40 41
f 29 41 38
f 32 42 33
f 32 43 42
f 33 44 45
f 33 45 46
f 33 46 34
f 33 42 44
f 34 46 47
f 34 47 35
f 35 47 48
f 35 48 49
f 35 49 37
f 38 41 39
f 40 50 51
f 40 51 52
f 40 52 41
f 42 53 54
f 42 54 44
f 42 43 55
f 42 55 53
f 43 56 55
f 44 54 45
f 45 54 57
f 45 57 47
f 45 47 46
f 47 57 58
f 47 58 59
f 47 59 60
f 47 60 61
f 47 61 48
f 50 62 63
f 50 63 64
f 50 64 65
f 50 65 51
f 53 66 67
f 53 67 68
f 53 68 54
f 53 55 72
f 53 72 66
f 54 68 69
f 54 69 57
f 55 56 70
f 55 70 71
f 55 71 72
f 57 69 73
f 57 73 59
f 57 59 58
f 59 73 69
f 59 69 74
f 62 75 63
f 62 76 77
f 62 77 75
f 63 75 78
f 66 72 83
f 66 83 79
f 66 79 67
f 67 79 80
f 67 80 68
f 68 80 81
f 68 81 69
f 69 81 74
f 71 82 83
f 71 83 72
f 75 77 78
f 76 84 85
f 76 85 86
f 76 86 77
f 77 86 87
f 77 87 88
f 77 88 89
f 77 89 90
f 77 90 78
f 79 91 92
f 79 92 93
f 79 93 94
f 79 94 80
f 79 83 91
f 82 95 83
f 83 95 96
f 83 96 91
f 84 97 98
f 84 98 85
f 85 98 86
f 86 98 87
f 87 98 99
f 95 100 98
f 95 98 96
f 96 98 97
f 98 100 101
f 98 101 102
f 98 102 99

