# https://github.com/mikedh/trimesh
v 0.00036992 0.05090775 0.00019201
v 0.00036992 0.05090554 0.00014410
v 0.00036992 0.05086257 0.00041307
v 0.00059305 0.05084973 0.00040367
v 0.00085499 0.05083289 0.00029199
v 0.00070494 0.05085903 0.00017522
v 0.00087504 0.05083732 0.00003026
v 0.00087504 0.05083732 -0.00000117
v 0.00036992 0.05088162 -0.00010053
v 0.00067584 0.05085504 -0.00004076
v 0.00036992 0.05069868 0.00049379
v 0.00070494 0.05067742 0.00047639
v 0.00289937 0.05045241 0.00039982
v 0.00314514 0.05042628 0.00019617
v 0.00294853 0.05046171 0.00019617
v 0.00292266 0.05045950 -0.00003383
v 0.00036992 0.05086213 -0.00014366
v 0.00067584 0.05076690 -0.00023702
v 0.00036992 0.05064775 0.00051783
v 0.00263938 0.05024777 0.00051721
v 0.00303131 0.05027745 0.00046915
v 0.00342454 0.05019949 0.00046730
v 0.00381647 0.05014191 0.00044388
v 0.00409651 0.05008964 0.00041631
v 0.00381647 0.05026062 0.00019617
v 0.00342454 0.05036692 0.00019617
v 0.00342454 0.05029694 -0.00019619
v 0.00036992 0.05079214 -0.00029679
v 0.00206506 0.05044665 -0.00039831
v 0.00185422 0.05046570 -0.00043682
v 0.00036992 0.05021987 0.00070530
v 0.00067584 0.05024777 0.00067280
v 0.00106842 0.05024777 0.00064184
v 0.00146164 0.05024777 0.00061072
v 0.00185422 0.05024777 0.00057960
v 0.00303196 0.04985489 0.00065955
v 0.00342454 0.04985489 0.00062828
v 0.00381647 0.04985489 0.00057868
v 0.00415149 0.05012375 0.00019617
v 0.00422004 0.04987703 0.00048147
v 0.00560539 0.04927729 0.00040090
v 0.00411398 0.05011002 -0.00012009
v 0.00384751 0.05017070 -0.00022916
v 0.00373757 0.05009186 -0.00047102
v 0.00342454 0.05012951 -0.00053449
v 0.00146164 0.05050069 -0.00050214
v 0.00106842 0.05053568 -0.00055220
v 0.00036992 0.05073943 -0.00038660
v 0.00036992 0.04986374 0.00059593
v 0.00697650 0.04708962 0.00078664
v 0.00202885 0.04965689 0.00078633
v 0.00202885 0.04966221 0.00078633
v 0.00224680 0.04966221 0.00078633
v 0.00244988 0.04965955 0.00078556
v 0.00260446 0.04981635 0.00070808
v 0.00381647 0.04946244 0.00070623
v 0.00420905 0.04946244 0.00065816
v 0.00434810 0.05001656 0.00019617
v 0.00460163 0.04946244 0.00056728
v 0.00538743 0.04906955 0.00054294
v 0.00620816 0.04871432 0.00049241
v 0.00656517 0.04860491 0.00044927
v 0.00681029 0.04851854 0.00041554
v 0.00636338 0.04887023 0.00032049
v 0.00399950 0.05004623 -0.00038198
v 0.00637114 0.04887466 -0.00000240
v 0.00423104 0.04998954 -0.00022916
v 0.00417542 0.04976630 -0.00060134
v 0.00402214 0.04966221 -0.00078682
v 0.00252426 0.05005421 -0.00078682
v 0.00049798 0.05044532 -0.00078620
v 0.00064738 0.05054631 -0.00062168
v 0.00036992 0.05054100 -0.00066820
v 0.00036992 0.04977649 0.00050843
v 0.00697650 0.04678443 0.00053970
v 0.00697650 0.04683847 0.00058699
v 0.00697650 0.04709183 0.00078664
v 0.00518435 0.04847823 0.00078664
v 0.00518435 0.04848665 0.00078664
v 0.00520117 0.04848665 0.00078664
v 0.00597792 0.04808933 0.00078556
v 0.00499421 0.04906955 0.00063398
v 0.00637114 0.04887466 0.00005876
v 0.00578001 0.04867711 0.00060841
v 0.00613443 0.04824613 0.00069283
v 0.00656517 0.04828511 0.00057529
v 0.00684974 0.04855220 0.00019617
v 0.00694805 0.04827227 0.00045713
v 0.00697650 0.04825588 0.00045189
v 0.00697650 0.04843305 0.00019617
v 0.00652701 0.04877101 0.00019232
v 0.00655806 0.04867268 -0.00018803
v 0.00674432 0.04846937 -0.00037366
v 0.00524127 0.04929545 -0.00044652
v 0.00449168 0.04970872 -0.00047872
v 0.00683099 0.04853847 -0.00011193
v 0.00480083 0.04926711 -0.00078589
v 0.00402214 0.04965379 -0.00078682
v 0.00239555 0.05005421 -0.00078682
v 0.00036992 0.05044399 -0.00078636
v 0.00036992 0.04961924 0.00027890
v 0.00046435 0.04965601 0.00039844
v 0.00697650 0.04649165 0.00019617
v 0.00697650 0.04712727 0.00077817
v 0.00676696 0.04730932 0.00078649
v 0.00695840 0.04710911 0.00078664
v 0.00656517 0.04789222 0.00069360
v 0.00695775 0.04789222 0.00057914
v 0.00697650 0.04789134 0.00057282
v 0.00697650 0.04842242 0.00009588
v 0.00697650 0.04832143 -0.00023039
v 0.00697650 0.04831567 -0.00023979
v 0.00697650 0.04815223 -0.00045777
v 0.00687302 0.04820760 -0.00052108
v 0.00648303 0.04854644 -0.00049659
v 0.00659427 0.04831700 -0.00059842
v 0.00617259 0.04828511 -0.00071195
v 0.00697650 0.04748118 -0.00070533
v 0.00480083 0.04926356 -0.00078589
v 0.00400209 0.04965379 -0.00078682
v 0.00239555 0.05004668 -0.00078682
v 0.00036992 0.05044089 -0.00078636
v 0.00036992 0.04958646 0.00020618
v 0.00697650 0.04640528 -0.00011347
v 0.00697650 0.04731862 0.00073118
v 0.00692153 0.04746390 0.00070777
v 0.00697650 0.04794272 -0.00060103
v 0.00697650 0.04792810 -0.00060812
v 0.00697650 0.04791791 -0.00061043
v 0.00697650 0.04777706 -0.00064109
v 0.00697650 0.04708873 -0.00061305
v 0.00479242 0.04926356 -0.00078589
v 0.00036992 0.05040369 -0.00077342
v 0.00697650 0.04666750 -0.00047964
v 0.00697650 0.04662276 -0.00046532
v 0.00036992 0.04953508 -0.00011008
v 0.00697650 0.04638269 -0.00019619
v 0.00036992 0.05015874 -0.00068160
v 0.00697650 0.04646640 -0.00034793
v 0.00036992 0.04960507 -0.00042973
v 0.00036992 0.04979465 -0.00052463
v 0.00036992 0.04985489 -0.00055467
v 0.00036992 0.04952268 -0.00019619
v 0.00036992 0.04958071 -0.00037581
f 1 2 9
f 1 9 17
f 1 17 28
f 1 28 48
f 1 48 73
f 1 73 100
f 1 100 122
f 1 122 133
f 1 133 138
f 1 138 142
f 1 142 141
f 1 141 140
f 1 140 144
f 1 144 143
f 1 143 136
f 1 136 123
f 1 123 101
f 1 101 74
f 1 74 49
f 1 49 31
f 1 31 19
f 1 19 11
f 1 11 3
f 1 3 4
f 1 4 5
f 1 5 6
f 1 6 7
f 1 7 8
f 1 8 2
f 2 8 10
f 2 10 9
f 3 11 4
f 4 11 12
f 4 12 13
f 4 13 5
f 5 7 6
f 5 13 14
f 5 14 15
f 5 15 7
f 7 15 14
f 7 14 8
f 8 14 16
f 8 16 10
f 9 10 18
f 9 18 17
f 10 16 18
f 11 19 12
f 12 19 20
f 12 20 13
f 13 20 21
f 13 21 22
f 13 22 23
f 13 23 24
f 13 24 25
f 13 25 26
f 13 26 14
f 14 26 16
f 16 26 27
f 16 27 18
f 17 18 28
f 18 29 30
f 18 30 28
f 18 27 29
f 19 31 32
f 19 32 33
f 19 33 34
f 19 34 35
f 19 35 20
f 20 36 37
f 20 37 21
f 20 35 36
f 21 37 22
f 22 37 38
f 22 38 23
f 23 38 24
f 24 39 25
f 24 38 40
f 24 40 41
f 24 41 39
f 25 39 42
f 25 42 43
f 25 43 27
f 25 27 26
f 27 43 44
f 27 44 45
f 27 45 29
f 28 30 46
f 28 46 47
f 28 47 48
f 29 45 30
f 30 45 46
f 31 49 50
f 31 50 51
f 31 51 52
f 31 52 53
f 31 53 54
f 31 54 32
f 32 54 55
f 32 55 36
f 32 36 33
f 33 36 34
f 34 36 35
f 36 55 54
f 36 54 37
f 37 54 56
f 37 56 57
f 37 57 38
f 38 57 40
f 39 41 58
f 39 58 42
f 40 57 59
f 40 59 41
f 41 59 60
f 41 60 61
f 41 61 62
f 41 62 63
f 41 63 64
f 41 64 58
f 42 65 43
f 42 58 66
f 42 66 67
f 42 67 65
f 43 65 44
f 44 65 68
f 44 68 69
f 44 69 45
f 45 69 70
f 45 70 71
f 45 71 47
f 45 47 46
f 47 71 72
f 47 72 48
f 48 72 71
f 48 71 73
f 49 74 75
f 49 75 76
f 49 76 50
f 50 76 75
f 50 75 103
f 50 103 124
f 50 124 137
f 50 137 139
f 50 139 135
f 50 135 134
f 50 134 131
f 50 131 118
f 50 118 130
f 50 130 129
f 50 129 128
f 50 128 127
f 50 127 113
f 50 113 112
f 50 112 111
f 50 111 110
f 50 110 90
f 50 90 89
f 50 89 109
f 50 109 125
f 50 125 104
f 50 104 77
f 50 77 106
f 50 106 80
f 50 80 79
f 50 79 78
f 50 78 51
f 51 78 79
f 51 79 52
f 52 79 80
f 52 80 53
f 53 80 54
f 54 80 56
f 56 80 57
f 57 80 81
f 57 81 82
f 57 82 59
f 58 64 83
f 58 83 66
f 59 82 60
f 60 82 84
f 60 84 61
f 61 85 86
f 61 86 62
f 61 84 85
f 62 86 63
f 63 87 64
f 63 86 88
f 63 88 89
f 63 89 90
f 63 90 87
f 64 87 91
f 64 91 83
f 65 67 66
f 65 66 92
f 65 92 93
f 65 93 94
f 65 94 95
f 65 95 68
f 66 83 91
f 66 91 87
f 66 87 96
f 66 96 92
f 68 95 97
f 68 97 69
f 69 98 120
f 69 120 121
f 69 121 99
f 69 99 70
f 69 97 119
f 69 119 98
f 70 99 100
f 70 100 71
f 71 100 73
f 74 101 102
f 74 102 103
f 74 103 75
f 77 104 105
f 77 105 106
f 80 106 105
f 80 105 81
f 81 105 107
f 81 107 86
f 81 86 85
f 81 85 82
f 82 85 84
f 86 107 108
f 86 108 88
f 87 90 96
f 88 108 109
f 88 109 89
f 90 110 96
f 92 96 93
f 93 96 111
f 93 111 112
f 93 112 113
f 93 113 114
f 93 114 115
f 93 115 94
f 94 115 95
f 95 115 97
f 96 110 111
f 97 115 116
f 97 116 117
f 97 117 118
f 97 118 119
f 98 119 132
f 98 132 120
f 99 121 122
f 99 122 100
f 101 123 103
f 101 103 102
f 103 123 124
f 104 125 105
f 105 125 107
f 107 125 126
f 107 126 108
f 108 126 125
f 108 125 109
f 113 127 114
f 114 116 115
f 114 127 128
f 114 128 116
f 116 128 117
f 117 128 129
f 117 129 130
f 117 130 118
f 118 131 122
f 118 122 132
f 118 132 119
f 120 122 121
f 120 132 122
f 122 131 134
f 122 134 135
f 122 135 133
f 123 136 137
f 123 137 124
f 133 135 138
f 135 139 140
f 135 140 141
f 135 141 142
f 135 142 138
f 136 143 137
f 137 143 144
f 137 144 140
f 137 140 139

