# https://github.com/mikedh/trimesh
v 0.00883776 0.04276779 0.00010137
v 0.00994100 0.04266822 0.00008895
v 0.00883776 0.04276779 -0.00015160
v 0.00856812 0.04276779 0.00020124
v 0.01021476 0.04050327 0.00017658
v 0.01021476 0.04160071 0.00011041
v 0.01013860 0.04263231 0.00004772
v 0.00994100 0.04266822 -0.00015688
v 0.00856812 0.04269869 0.00020620
v 0.00879659 0.04276779 -0.00017075
v 0.00170782 0.04276779 0.00020228
v 0.01049057 0.03803363 0.00011312
v 0.01071286 0.03934163 0.00004821
v 0.00856812 0.04242446 0.00020837
v 0.00856812 0.04160071 0.00020964
v 0.00856812 0.03803363 0.00020959
v 0.00856812 0.03720933 0.00020395
v 0.01038560 0.04160071 0.00003489
v 0.01013860 0.04263231 -0.00011587
v 0.01035678 0.04174217 -0.00001886
v 0.01021476 0.04160071 -0.00015765
v 0.01021476 0.04050327 -0.00018254
v 0.00856812 0.04269869 -0.00024713
v 0.00856812 0.04276779 -0.00023443
v 0.00170782 0.04269869 0.00020693
v -0.00597579 0.04276779 0.00020187
v -0.00597579 0.04269869 0.00020661
v 0.01064082 0.03789217 -0.00001682
v 0.01070051 0.03803363 0.00003941
v 0.01071081 0.03823059 0.00004645
v 0.01071286 0.03918711 0.00004821
v 0.01071286 0.03934163 -0.00011660
v 0.00170782 0.04242446 0.00020905
v 0.00747105 0.04050327 0.00020986
v 0.00170782 0.04160071 0.00021027
v 0.00170782 0.03803363 0.00021018
v 0.00170782 0.03720933 0.00020471
v 0.00889539 0.03720933 0.00010390
v 0.01038560 0.04160071 -0.00009361
v 0.01035678 0.04174217 -0.00004094
v 0.01039383 0.04141027 -0.00010670
v 0.01049057 0.03937809 -0.00015774
v 0.01049057 0.03803363 -0.00016126
v 0.00856812 0.03803363 -0.00024952
v 0.00856812 0.03913161 -0.00025069
v 0.00856812 0.04242446 -0.00025083
v 0.00170782 0.04242446 -0.00025115
v 0.00170782 0.04269869 -0.00024735
v 0.00170782 0.04276779 -0.00023479
v -0.00597579 0.04242446 0.00020878
v -0.00816993 0.04276779 0.00017098
v -0.00816993 0.04269869 0.00018629
v -0.00816993 0.04050327 0.00020932
v 0.01064082 0.03789217 -0.00004176
v 0.01070051 0.03803363 -0.00009776
v 0.01071081 0.03823059 -0.00011145
v 0.01071286 0.03918711 -0.00011660
v -0.00597579 0.04160071 0.00021000
v -0.00597579 0.03803363 0.00020995
v -0.00597579 0.03720933 0.00020440
v 0.00889539 0.03720933 -0.00015756
v 0.00856812 0.03720933 -0.00024067
v 0.00170782 0.03803363 -0.00024984
v 0.00170782 0.03913161 -0.00025096
v -0.00597579 0.04242446 -0.00025101
v -0.00597579 0.04269869 -0.00024726
v -0.00597579 0.04276779 -0.00023466
v -0.00845192 0.04276779 0.00010829
v -0.00954281 0.04266822 0.00008918
v -0.01009238 0.04050327 0.00016750
v -0.00981657 0.04050327 0.00017658
v -0.00844574 0.04050327 0.00020440
v -0.00816993 0.03803363 0.00019464
v -0.00816993 0.03720933 0.00018403
v 0.00170782 0.03720933 -0.00024085
v -0.00597579 0.03803363 -0.00024974
v -0.00597579 0.03913161 -0.00025083
v -0.00816993 0.04050327 -0.00025033
v -0.00816993 0.04242446 -0.00023958
v -0.00816993 0.04269869 -0.00023701
v -0.00816993 0.04276779 -0.00022084
v -0.00845192 0.04276779 -0.00017454
v -0.00954281 0.04266822 -0.00015711
v -0.00981657 0.04263938 0.00005887
v -0.00996888 0.04259422 0.00000766
v -0.01026733 0.04050327 0.00006204
v -0.01031467 0.03934163 0.00004821
v -0.01031467 0.03918711 0.00004821
v -0.01031262 0.03823059 0.00004645
v -0.01009238 0.03803363 0.00011312
v -0.00844574 0.03803363 0.00018868
v -0.00850132 0.03720933 0.00010810
v -0.00597579 0.03720933 -0.00024076
v -0.00816993 0.03720933 -0.00023267
v -0.00816993 0.03803363 -0.00024112
v -0.00844574 0.03803363 -0.00023520
v -0.00844574 0.04050327 -0.00024207
v -0.00844574 0.04160071 -0.00023583
v -0.01009238 0.04050327 -0.00017540
v -0.00822962 0.04276779 -0.00021542
v -0.00981657 0.04263938 -0.00012685
v -0.00996888 0.04259422 -0.00007581
v -0.01024881 0.04066051 0.00002297
v -0.01026733 0.04050327 -0.00010128
v -0.01031467 0.03934163 -0.00011660
v -0.01031467 0.03918711 -0.00011660
v -0.01031262 0.03823059 -0.00011145
v -0.01030232 0.03803363 0.00003941
v -0.01024263 0.03789217 -0.00001682
v -0.00850132 0.03720933 -0.00017220
v -0.01009238 0.03803363 -0.00016126
v -0.01024881 0.04066051 -0.00006791
v -0.01030232 0.03803363 -0.00009776
v -0.01024263 0.03789217 -0.00004176
f 1 2 8
f 1 8 3
f 1 3 10
f 1 10 24
f 1 24 49
f 1 49 67
f 1 67 81
f 1 81 100
f 1 100 82
f 1 82 68
f 1 68 51
f 1 51 26
f 1 26 11
f 1 11 4
f 1 4 2
f 2 5 6
f 2 6 7
f 2 7 19
f 2 19 8
f 2 4 9
f 2 9 5
f 3 8 10
f 4 11 9
f 5 12 13
f 5 13 6
f 5 9 14
f 5 14 15
f 5 15 16
f 5 16 17
f 5 17 12
f 6 13 18
f 6 18 7
f 7 18 20
f 7 20 40
f 7 40 19
f 8 19 21
f 8 21 22
f 8 22 23
f 8 23 24
f 8 24 10
f 9 11 25
f 9 25 14
f 11 26 27
f 11 27 25
f 12 28 29
f 12 29 30
f 12 30 31
f 12 31 13
f 12 17 28
f 13 31 57
f 13 57 32
f 13 32 39
f 13 39 18
f 14 25 33
f 14 33 15
f 15 34 16
f 15 33 35
f 15 35 34
f 16 34 36
f 16 36 37
f 16 37 17
f 17 38 28
f 17 37 60
f 17 60 74
f 17 74 92
f 17 92 110
f 17 110 94
f 17 94 93
f 17 93 75
f 17 75 62
f 17 62 61
f 17 61 38
f 18 39 40
f 18 40 20
f 19 40 39
f 19 39 41
f 19 41 21
f 21 41 32
f 21 32 42
f 21 42 22
f 22 42 43
f 22 43 44
f 22 44 45
f 22 45 46
f 22 46 23
f 23 46 47
f 23 47 48
f 23 48 49
f 23 49 24
f 25 27 50
f 25 50 33
f 26 51 52
f 26 52 27
f 27 52 53
f 27 53 50
f 28 54 55
f 28 55 29
f 28 38 61
f 28 61 54
f 29 55 56
f 29 56 30
f 30 56 57
f 30 57 31
f 32 57 43
f 32 43 42
f 32 41 39
f 33 50 58
f 33 58 35
f 34 35 36
f 35 58 59
f 35 59 36
f 36 59 37
f 37 59 60
f 43 57 56
f 43 56 55
f 43 55 54
f 43 54 61
f 43 61 62
f 43 62 44
f 44 62 63
f 44 63 45
f 45 63 64
f 45 64 47
f 45 47 46
f 47 64 77
f 47 77 65
f 47 65 66
f 47 66 48
f 48 66 49
f 49 66 67
f 50 53 58
f 51 68 69
f 51 69 52
f 52 69 70
f 52 70 71
f 52 71 72
f 52 72 53
f 53 72 73
f 53 73 59
f 53 59 58
f 59 73 60
f 60 73 74
f 62 75 63
f 63 75 93
f 63 93 76
f 63 76 64
f 64 76 77
f 65 77 78
f 65 78 79
f 65 79 80
f 65 80 66
f 66 80 67
f 67 80 81
f 68 82 83
f 68 83 69
f 69 83 101
f 69 101 84
f 69 84 70
f 70 85 86
f 70 86 87
f 70 87 88
f 70 88 89
f 70 89 90
f 70 90 74
f 70 74 91
f 70 91 71
f 70 84 85
f 71 91 73
f 71 73 72
f 73 91 74
f 74 90 92
f 76 93 94
f 76 94 95
f 76 95 78
f 76 78 77
f 78 95 96
f 78 96 97
f 78 97 79
f 79 97 98
f 79 98 80
f 80 98 99
f 80 99 83
f 80 83 81
f 81 83 100
f 82 100 83
f 83 99 101
f 84 101 102
f 84 102 85
f 85 102 112
f 85 112 103
f 85 103 86
f 86 103 112
f 86 112 104
f 86 104 105
f 86 105 87
f 87 105 106
f 87 106 88
f 88 106 107
f 88 107 89
f 89 107 113
f 89 113 108
f 89 108 90
f 90 108 109
f 90 109 92
f 92 109 114
f 92 114 110
f 94 110 111
f 94 111 96
f 94 96 95
f 96 111 99
f 96 99 97
f 97 99 98
f 99 111 106
f 99 106 105
f 99 105 104
f 99 104 102
f 99 102 101
f 102 104 112
f 106 111 107
f 107 111 113
f 108 113 114
f 108 114 109
f 110 114 111
f 111 114 113

