# https://github.com/mikedh/trimesh
v 0.00240144 0.01942998 -0.04120447
v 0.00240144 0.01942998 -0.03579602
v 0.00240144 0.03213790 -0.04180804
v 0.00240303 0.01015045 -0.04079560
v 0.00240144 0.02005166 -0.03581271
v 0.00240303 0.01015045 -0.03958986
v 0.00240303 0.01098241 -0.03622019
v 0.00240303 0.01115611 -0.03614787
v 0.00240303 0.01235377 -0.03581271
v 0.00240303 0.01312173 -0.03566530
v 0.00240303 0.01345085 -0.03566808
v 0.00240303 0.01564503 -0.03570145
v 0.00240303 0.01675126 -0.03572093
v 0.00240303 0.01784834 -0.03574735
v 0.00240144 0.03349098 -0.04187201
v 0.00977810 0.01015045 -0.03982489
v 0.00240303 0.01532504 -0.04103480
v 0.00240144 0.02114875 -0.03584609
v 0.00240303 0.01894543 -0.03577933
v 0.01860438 0.01312173 -0.03058228
v 0.01208419 0.01015045 -0.03367659
v 0.01431892 0.01015045 -0.03259741
v 0.01860438 0.01202464 -0.03079227
v 0.00240144 0.06259121 -0.04321543
v 0.01033004 0.01015045 -0.03971920
v 0.00977968 0.06148498 -0.04219326
v 0.01087405 0.09007325 -0.04336701
v 0.01095493 0.08125084 -0.04294841
v 0.01145295 0.08160739 -0.04289278
v 0.01038079 0.03096768 -0.04069686
v 0.00427931 0.09007325 -0.04423620
v 0.00240144 0.02852666 -0.03609224
v 0.01860438 0.01942084 -0.03082565
v 0.00240144 0.06625731 -0.03735917
v 0.00240144 0.06595561 -0.03734805
v 0.01515000 0.01015045 -0.03257098
v 0.01860438 0.01119268 -0.03127624
v 0.00240144 0.08898530 -0.04443229
v 0.01058539 0.01015045 -0.03966774
v 0.00977968 0.08678198 -0.04336006
v 0.01087405 0.09117033 -0.04341291
v 0.00757826 0.09778028 -0.04415693
v 0.00816510 0.09886823 -0.04412912
v 0.00931180 0.09917907 -0.04399144
v 0.01197317 0.09447074 -0.04329331
v 0.01197317 0.09336451 -0.04324741
v 0.01272654 0.09336451 -0.04296649
v 0.01254890 0.09040237 -0.04289278
v 0.01143074 0.05870570 -0.04178439
v 0.00427931 0.09557697 -0.04448931
v 0.00537843 0.09778028 -0.04444620
v 0.01860438 0.01942084 -0.03681263
v 0.01774951 0.10351256 -0.03683905
v 0.01774951 0.10313773 -0.03572232
v 0.01774951 0.10294574 -0.03547060
v 0.01774951 0.10251604 -0.03527034
v 0.01774951 0.07798700 -0.03359315
v 0.01774951 0.07688992 -0.03352083
v 0.01774951 0.07578369 -0.03347077
v 0.00240144 0.07831613 -0.03790155
v 0.01860438 0.01015045 -0.03512431
v 0.00240144 0.09007325 -0.04447818
v 0.00318019 0.09227656 -0.04448097
v 0.01144819 0.01457537 -0.03959404
v 0.01313732 0.01015045 -0.03867617
v 0.01197317 0.09556782 -0.04333364
v 0.00940696 0.09997446 -0.04400396
v 0.00647756 0.09888651 -0.04435163
v 0.00647756 0.09997446 -0.04439057
v 0.00757826 0.09997446 -0.04424594
v 0.01307229 0.09997446 -0.04313616
v 0.01316270 0.09893222 -0.04306106
v 0.01298823 0.09777114 -0.04307357
v 0.01292320 0.09667406 -0.04304715
v 0.01603025 0.09887737 -0.04187062
v 0.01774951 0.02742957 -0.03762341
v 0.01162424 0.01751922 -0.03966774
v 0.00318019 0.09338279 -0.04452408
v 0.00427931 0.09668319 -0.04453103
v 0.00537843 0.09888651 -0.04449487
v 0.01860438 0.01642213 -0.03671389
v 0.01774951 0.09887737 -0.04111547
v 0.01774951 0.09997446 -0.04114745
v 0.01774951 0.10107155 -0.04115023
v 0.01774951 0.10188522 -0.04115023
v 0.01774951 0.10216863 -0.04114884
v 0.01774951 0.10304630 -0.04091659
v 0.01774951 0.10343942 -0.04015449
v 0.01774951 0.10347600 -0.03903219
v 0.01747195 0.10351256 -0.04013224
v 0.01747195 0.10352171 -0.03683905
v 0.01637125 0.10346685 -0.03683905
v 0.00240144 0.10337543 -0.04013224
v 0.00240144 0.10294574 -0.03948278
v 0.00240144 0.10217777 -0.03938543
v 0.00240144 0.08051030 -0.03801837
v 0.00240144 0.07940407 -0.03795161
v 0.01860438 0.01015045 -0.03639125
v 0.00240144 0.09117948 -0.04451574
v 0.01860438 0.01156752 -0.03648303
v 0.01846323 0.01015045 -0.03647051
v 0.01860438 0.01532504 -0.03666939
v 0.01197317 0.09777114 -0.04340178
v 0.00942600 0.10106240 -0.04400813
v 0.01197317 0.09997446 -0.04346436
v 0.01197317 0.09886823 -0.04343516
v 0.00537843 0.09997446 -0.04452825
v 0.00647756 0.10108069 -0.04439613
v 0.01307229 0.10107155 -0.04314311
v 0.01608100 0.09997446 -0.04189009
v 0.01363216 0.09934363 -0.04288583
v 0.01774951 0.09667406 -0.04103480
v 0.01774951 0.09557697 -0.04099030
v 0.01774951 0.09447074 -0.04093885
v 0.01774951 0.09400447 -0.04091659
v 0.00240144 0.09227656 -0.04455050
v 0.00318019 0.09447988 -0.04455606
v 0.00427931 0.09888651 -0.04458944
v 0.00318019 0.09557697 -0.04458527
v 0.01608734 0.10107155 -0.04189287
v 0.01606673 0.10216863 -0.04188313
v 0.01597791 0.10286345 -0.04184837
v 0.01527212 0.10304630 -0.04199300
v 0.01747195 0.10310116 -0.04096805
v 0.01527212 0.10345771 -0.04123228
v 0.01197317 0.10351256 -0.04233233
v 0.01417141 0.10353085 -0.04123228
v 0.00537843 0.10354913 -0.04343238
v 0.00537843 0.10353999 -0.04013224
v 0.00427931 0.10353085 -0.04013224
v 0.00318019 0.10345771 -0.04013224
v 0.00240144 0.10350342 -0.04123228
v 0.00936414 0.10216863 -0.04399978
v 0.01197317 0.10216863 -0.04346993
v 0.00240144 0.10217777 -0.04478970
v 0.00537843 0.10108069 -0.04453103
v 0.00537843 0.10217777 -0.04452130
v 0.00647756 0.10217777 -0.04437945
v 0.01274874 0.10216863 -0.04322655
v 0.01307229 0.10216863 -0.04312225
v 0.01364009 0.10216863 -0.04289000
v 0.00240144 0.09338279 -0.04457971
v 0.01362582 0.10272632 -0.04288305
v 0.01307229 0.10290916 -0.04299848
v 0.01197317 0.10311030 -0.04318066
v 0.01307229 0.10334800 -0.04233233
v 0.00647756 0.10351256 -0.04343238
v 0.00757826 0.10343028 -0.04343238
v 0.00240144 0.10314687 -0.04441004
v 0.00427931 0.10353085 -0.04343238
v 0.00240144 0.10349428 -0.04343238
v 0.00929594 0.10274460 -0.04399144
v 0.00537843 0.10312858 -0.04424872
v 0.00647756 0.10307373 -0.04417640
v 0.00757826 0.10298231 -0.04410409
v 0.00816510 0.10290916 -0.04406654
f 1 2 5
f 1 5 18
f 1 18 32
f 1 32 35
f 1 35 34
f 1 34 60
f 1 60 97
f 1 97 96
f 1 96 95
f 1 95 94
f 1 94 93
f 1 93 132
f 1 132 151
f 1 151 149
f 1 149 135
f 1 135 142
f 1 142 116
f 1 116 99
f 1 99 62
f 1 62 38
f 1 38 24
f 1 24 15
f 1 15 3
f 1 3 4
f 1 4 6
f 1 6 2
f 2 6 7
f 2 7 8
f 2 8 9
f 2 9 10
f 2 10 11
f 2 11 12
f 2 12 13
f 2 13 14
f 2 14 5
f 3 15 4
f 4 16 25
f 4 25 39
f 4 39 65
f 4 65 101
f 4 101 98
f 4 98 61
f 4 61 36
f 4 36 22
f 4 22 21
f 4 21 6
f 4 15 17
f 4 17 16
f 5 14 19
f 5 19 20
f 5 20 18
f 6 21 7
f 7 21 22
f 7 22 8
f 8 22 9
f 9 23 10
f 9 22 23
f 10 20 11
f 10 23 20
f 11 20 12
f 12 20 13
f 13 20 14
f 14 20 19
f 15 24 17
f 16 17 26
f 16 26 27
f 16 27 28
f 16 28 29
f 16 29 30
f 16 30 25
f 17 24 31
f 17 31 26
f 18 20 32
f 20 23 37
f 20 37 61
f 20 61 98
f 20 98 100
f 20 100 102
f 20 102 81
f 20 81 52
f 20 52 33
f 20 33 34
f 20 34 35
f 20 35 32
f 22 36 37
f 22 37 23
f 24 38 31
f 25 30 29
f 25 29 39
f 26 31 40
f 26 40 27
f 27 41 29
f 27 29 28
f 27 40 42
f 27 42 43
f 27 43 44
f 27 44 41
f 29 41 45
f 29 45 46
f 29 46 47
f 29 47 48
f 29 48 49
f 29 49 39
f 31 38 50
f 31 50 51
f 31 51 42
f 31 42 40
f 33 52 53
f 33 53 54
f 33 54 55
f 33 55 56
f 33 56 57
f 33 57 58
f 33 58 59
f 33 59 34
f 34 59 60
f 36 61 37
f 38 62 63
f 38 63 50
f 39 49 64
f 39 64 65
f 41 66 45
f 41 44 67
f 41 67 66
f 42 51 43
f 43 51 68
f 43 68 44
f 44 68 69
f 44 69 70
f 44 70 67
f 45 66 71
f 45 71 46
f 46 71 72
f 46 72 73
f 46 73 74
f 46 74 47
f 47 74 72
f 47 72 75
f 47 75 76
f 47 76 77
f 47 77 49
f 47 49 48
f 49 77 64
f 50 63 78
f 50 78 79
f 50 79 80
f 50 80 51
f 51 80 68
f 52 81 82
f 52 82 83
f 52 83 84
f 52 84 85
f 52 85 86
f 52 86 87
f 52 87 88
f 52 88 89
f 52 89 53
f 53 89 90
f 53 90 91
f 53 91 54
f 54 91 92
f 54 92 93
f 54 93 94
f 54 94 55
f 55 94 56
f 56 94 95
f 56 95 57
f 57 95 58
f 58 95 96
f 58 96 97
f 58 97 60
f 58 60 59
f 62 99 78
f 62 78 63
f 64 77 65
f 65 100 101
f 65 77 76
f 65 76 102
f 65 102 100
f 66 67 103
f 66 103 71
f 67 70 104
f 67 104 105
f 67 105 106
f 67 106 103
f 68 80 69
f 69 80 107
f 69 107 108
f 69 108 70
f 70 108 104
f 71 103 106
f 71 106 105
f 71 105 109
f 71 109 110
f 71 110 111
f 71 111 72
f 72 111 75
f 72 74 73
f 75 111 110
f 75 110 112
f 75 112 113
f 75 113 114
f 75 114 115
f 75 115 76
f 76 115 102
f 78 99 116
f 78 116 117
f 78 117 79
f 79 118 107
f 79 107 80
f 79 117 119
f 79 119 118
f 81 102 113
f 81 113 112
f 81 112 82
f 82 112 110
f 82 110 83
f 83 110 120
f 83 120 84
f 84 120 85
f 85 120 86
f 86 120 121
f 86 121 122
f 86 122 87
f 87 122 123
f 87 123 124
f 87 124 88
f 88 124 90
f 88 90 89
f 90 124 125
f 90 125 126
f 90 126 127
f 90 127 91
f 91 127 128
f 91 128 129
f 91 129 130
f 91 130 92
f 92 130 131
f 92 131 93
f 93 131 132
f 98 101 100
f 102 115 114
f 102 114 113
f 104 108 133
f 104 133 134
f 104 134 105
f 105 134 109
f 107 118 135
f 107 135 136
f 107 136 108
f 108 136 137
f 108 137 138
f 108 138 133
f 109 134 139
f 109 139 140
f 109 140 141
f 109 141 120
f 109 120 110
f 116 142 119
f 116 119 117
f 118 119 135
f 119 142 135
f 120 141 121
f 121 141 143
f 121 143 122
f 122 143 144
f 122 144 123
f 123 144 145
f 123 145 146
f 123 146 125
f 123 125 124
f 125 146 126
f 126 147 128
f 126 128 127
f 126 146 145
f 126 145 148
f 126 148 147
f 128 147 149
f 128 149 150
f 128 150 132
f 128 132 130
f 128 130 129
f 130 132 131
f 132 150 151
f 133 138 152
f 133 152 134
f 134 152 144
f 134 144 143
f 134 143 139
f 135 149 153
f 135 153 154
f 135 154 155
f 135 155 137
f 135 137 136
f 137 155 156
f 137 156 152
f 137 152 138
f 139 143 140
f 140 143 141
f 144 152 145
f 145 154 148
f 145 152 156
f 145 156 155
f 145 155 154
f 147 148 153
f 147 153 149
f 148 154 153
f 149 151 150

