# https://github.com/mikedh/trimesh
v 0.03205137 0.00652332 0.02292279
v 0.03205442 0.00658464 0.02292279
v 0.03215824 0.00577209 0.02292279
v 0.00240144 0.00652332 0.03940523
v 0.03208191 0.00703648 0.02292279
v 0.03216435 0.00575151 0.02292279
v 0.00240144 0.00575266 0.03948291
v 0.00240144 0.00703633 0.03943112
v 0.02544044 0.00703648 0.03017237
v 0.03359647 0.00703648 0.02292279
v 0.03282697 0.00570444 0.02292279
v 0.00428243 0.00559591 0.03935863
v 0.00318010 0.00566932 0.03943112
v 0.00240144 0.00575266 0.03963135
v 0.00240144 0.00703633 0.04055654
v 0.02735502 0.00703648 0.03017237
v 0.03344684 0.00703648 0.02313337
v 0.03356898 0.00652332 0.02292279
v 0.03347738 0.00590984 0.02292279
v 0.03280560 0.00574906 0.02353383
v 0.03175823 0.00567004 0.02469894
v 0.03179182 0.00568242 0.02370816
v 0.00538170 0.00556597 0.03929994
v 0.00428243 0.00559591 0.03990235
v 0.00318010 0.00566932 0.03993342
v 0.00240144 0.00576144 0.04009394
v 0.00240144 0.00652332 0.04050130
v 0.00648098 0.00652332 0.04009049
v 0.00648098 0.00703633 0.04011120
v 0.02797489 0.00703648 0.02973222
v 0.00699398 0.00703633 0.04004734
v 0.00867953 0.00703633 0.03982640
v 0.00981545 0.00703633 0.03967450
v 0.01036509 0.00703633 0.03959683
v 0.01288121 0.00703633 0.03863022
v 0.01827683 0.00703633 0.03639148
v 0.02053645 0.00703633 0.03538689
v 0.02079295 0.00703633 0.03521083
v 0.02108609 0.00703633 0.03500888
v 0.03150479 0.00703648 0.02566555
v 0.03341631 0.00597289 0.02309367
v 0.03354761 0.00614231 0.02292279
v 0.03240253 0.00582103 0.02430366
v 0.03138570 0.00573222 0.02551538
v 0.03037192 0.00569264 0.02672364
v 0.02847567 0.00563189 0.02805964
v 0.00538170 0.00556597 0.03987818
v 0.00648098 0.00558742 0.03982467
v 0.00758026 0.00565478 0.03975218
v 0.00867953 0.00576273 0.03967968
v 0.00953147 0.00587645 0.03962272
v 0.00758026 0.00652332 0.03994722
v 0.02544044 0.00703633 0.03167752
v 0.02795351 0.00652332 0.02971841
v 0.02823138 0.00703648 0.02951991
v 0.02180673 0.00703633 0.03445826
v 0.00985210 0.00652131 0.03964689
v 0.01035288 0.00688649 0.03959338
v 0.01197736 0.00652332 0.03895300
v 0.01284762 0.00652332 0.03861641
v 0.01824629 0.00652332 0.03637940
v 0.02051202 0.00652332 0.03537481
v 0.02106166 0.00652332 0.03499679
v 0.02178841 0.00652332 0.03444790
v 0.02945280 0.00703648 0.02832718
v 0.03148952 0.00652332 0.02564656
v 0.02912302 0.00652332 0.02870692
v 0.02907722 0.00585918 0.02865687
v 0.02930318 0.00570660 0.02803892
v 0.02515036 0.00566989 0.03135129
v 0.01966924 0.00562038 0.03544558
v 0.01417592 0.00561505 0.03767396
v 0.01197736 0.00564413 0.03870962
v 0.01271937 0.00581168 0.03856463
v 0.01026738 0.00615368 0.03953124
v 0.02360526 0.00652332 0.03305494
v 0.02792908 0.00595591 0.02969770
v 0.02850620 0.00652332 0.02925754
v 0.02852453 0.00703648 0.02927308
v 0.01814858 0.00585601 0.03633797
v 0.02040210 0.00576245 0.03530231
v 0.02356251 0.00590538 0.03302215
v 0.02913829 0.00703648 0.02872246
v 0.02598092 0.00571178 0.03099399
v 0.02836269 0.00576605 0.02906940
v 0.02161741 0.00570026 0.03431672
v 0.01747374 0.00567767 0.03647951
v 0.01506755 0.00573611 0.03752725
v 0.02477172 0.00577972 0.03200721
f 1 2 5
f 1 5 10
f 1 10 18
f 1 18 42
f 1 42 19
f 1 19 11
f 1 11 6
f 1 6 3
f 1 3 4
f 1 4 2
f 2 4 5
f 3 6 7
f 3 7 4
f 4 7 14
f 4 14 26
f 4 26 27
f 4 27 15
f 4 15 8
f 4 8 5
f 5 9 16
f 5 16 30
f 5 30 55
f 5 55 79
f 5 79 83
f 5 83 65
f 5 65 40
f 5 40 17
f 5 17 10
f 5 8 9
f 6 11 12
f 6 12 13
f 6 13 7
f 7 13 25
f 7 25 14
f 8 15 9
f 9 15 16
f 10 17 18
f 11 19 20
f 11 20 21
f 11 21 22
f 11 22 12
f 12 23 47
f 12 47 24
f 12 24 25
f 12 25 13
f 12 22 23
f 14 25 26
f 15 27 28
f 15 28 29
f 15 29 16
f 16 29 31
f 16 31 32
f 16 32 33
f 16 33 34
f 16 34 35
f 16 35 36
f 16 36 37
f 16 37 38
f 16 38 39
f 16 39 30
f 17 40 41
f 17 41 18
f 18 41 42
f 19 42 41
f 19 41 43
f 19 43 20
f 20 43 44
f 20 44 21
f 21 44 45
f 21 45 46
f 21 46 22
f 22 46 23
f 23 46 47
f 24 47 26
f 24 26 25
f 26 47 27
f 27 47 48
f 27 48 49
f 27 49 50
f 27 50 51
f 27 51 28
f 28 51 52
f 28 52 31
f 28 31 29
f 30 53 54
f 30 54 55
f 30 39 56
f 30 56 53
f 31 52 32
f 32 52 57
f 32 57 33
f 33 57 58
f 33 58 34
f 34 58 59
f 34 59 35
f 35 59 60
f 35 60 61
f 35 61 36
f 36 61 62
f 36 62 37
f 37 62 38
f 38 63 39
f 38 62 63
f 39 63 64
f 39 64 56
f 40 65 66
f 40 66 41
f 41 66 67
f 41 67 68
f 41 68 43
f 43 68 44
f 44 68 45
f 45 68 69
f 45 69 46
f 46 69 70
f 46 70 71
f 46 71 47
f 47 71 72
f 47 72 48
f 48 72 73
f 48 73 49
f 49 73 50
f 50 73 51
f 51 73 74
f 51 74 75
f 51 75 57
f 51 57 52
f 53 56 64
f 53 64 76
f 53 76 54
f 54 77 78
f 54 78 55
f 54 76 77
f 55 78 79
f 57 75 58
f 58 75 59
f 59 74 60
f 59 75 74
f 60 74 80
f 60 80 61
f 61 80 62
f 62 80 81
f 62 81 63
f 63 82 64
f 63 81 82
f 64 82 77
f 64 77 76
f 65 83 67
f 65 67 66
f 67 83 79
f 67 79 78
f 67 78 77
f 67 77 68
f 68 77 84
f 68 84 85
f 68 85 69
f 69 85 84
f 69 84 70
f 70 84 71
f 71 84 86
f 71 86 81
f 71 81 87
f 71 87 73
f 71 73 72
f 73 87 88
f 73 88 74
f 74 88 87
f 74 87 80
f 77 82 89
f 77 89 84
f 80 87 81
f 81 86 89
f 81 89 82
f 84 89 86

