# https://github.com/mikedh/trimesh
v 0.04414921 0.02176112 -0.00057490
v 0.04414921 0.02176606 0.00057364
v 0.04414921 0.02197854 -0.00164905
v 0.04442930 0.02245785 -0.00332332
v 0.04451851 0.02239361 -0.00274842
v 0.04467411 0.02227008 -0.00164905
v 0.04481727 0.02215149 -0.00054968
v 0.04481727 0.02215149 0.00054969
v 0.04414921 0.02184018 0.00099473
v 0.04414921 0.02220584 -0.00274842
v 0.04506831 0.02290750 -0.00274842
v 0.04522391 0.02276420 -0.00164905
v 0.04414921 0.02239361 -0.00344309
v 0.04414921 0.02255173 -0.00371415
v 0.04457453 0.02341645 -0.00455381
v 0.04486914 0.02311504 -0.00370029
v 0.04553719 0.02354493 -0.00334349
v 0.04536706 0.02262585 -0.00054968
v 0.04536706 0.02262091 0.00054969
v 0.04467619 0.02227008 0.00164906
v 0.04451851 0.02239361 0.00274843
v 0.04442930 0.02245785 0.00332333
v 0.04414921 0.02207243 0.00212940
v 0.04561395 0.02346092 -0.00274842
v 0.04414921 0.02328798 -0.00468997
v 0.04492100 0.02416753 -0.00490430
v 0.04564092 0.02452824 -0.00452229
v 0.04530690 0.02379693 -0.00407599
v 0.04414921 0.02361905 -0.00501903
v 0.04453303 0.02453813 -0.00561158
v 0.04660358 0.02468143 -0.00325398
v 0.04902268 0.02773514 -0.00384779
v 0.05013264 0.02882222 -0.00364607
v 0.04574466 0.02331269 -0.00164905
v 0.04587122 0.02317433 -0.00054968
v 0.04587329 0.02317433 0.00054969
v 0.04574673 0.02331269 0.00164906
v 0.04561603 0.02345599 0.00274843
v 0.04522598 0.02276420 0.00164906
v 0.04414921 0.02239361 0.00344184
v 0.04414921 0.02226514 0.00303966
v 0.04506831 0.02290750 0.00274843
v 0.04553719 0.02354493 0.00334476
v 0.04486706 0.02311504 0.00370029
v 0.04457038 0.02342140 0.00455256
v 0.04414921 0.02296186 0.00429032
v 0.04624674 0.02417741 -0.00283163
v 0.04526748 0.02494331 -0.00525479
v 0.04883803 0.02793773 -0.00442143
v 0.04414921 0.02440471 -0.00572378
v 0.04414921 0.02492849 -0.00598980
v 0.04414921 0.02523485 -0.00614487
v 0.04492515 0.02527438 -0.00579817
v 0.04559943 0.02567462 -0.00557754
v 0.04873430 0.02695441 -0.00295897
v 0.04980692 0.02808103 -0.00274842
v 0.04989613 0.02908411 -0.00437857
v 0.05051231 0.02955847 -0.00391840
v 0.05108493 0.03002789 -0.00345696
v 0.05085464 0.02931635 -0.00274842
v 0.05030484 0.02863445 -0.00274842
v 0.04642101 0.02378211 -0.00054968
v 0.04796666 0.02548685 0.00054969
v 0.04888990 0.02678147 0.00164906
v 0.04775711 0.02571910 0.00238533
v 0.04882143 0.02685559 0.00224035
v 0.04766998 0.02581792 0.00311783
v 0.04660358 0.02468143 0.00326029
v 0.04873637 0.02695441 0.00297284
v 0.04530482 0.02380682 0.00407725
v 0.05013264 0.02882222 0.00363978
v 0.04414921 0.02329292 0.00468872
v 0.04563262 0.02453813 0.00451221
v 0.04491478 0.02417247 0.00489926
v 0.04452681 0.02454307 0.00560906
v 0.04414921 0.02409341 0.00545147
v 0.04665752 0.02682100 -0.00553845
v 0.04909530 0.02851586 -0.00465845
v 0.04414921 0.02631699 -0.00638441
v 0.04496457 0.02631699 -0.00624447
v 0.04606416 0.02741890 -0.00619782
v 0.04803305 0.02870363 -0.00575782
v 0.04600399 0.02640099 -0.00574774
v 0.04692101 0.02741890 -0.00573891
v 0.04908700 0.02985495 -0.00573135
v 0.05045837 0.02852080 -0.00162762
v 0.04988368 0.02799703 -0.00207771
v 0.04771147 0.02796738 -0.00549685
v 0.04876542 0.02911870 -0.00545524
v 0.04949156 0.02946953 -0.00506693
v 0.04982144 0.03030461 -0.00541238
v 0.05015961 0.02981542 -0.00467989
v 0.05089198 0.03039849 -0.00418946
v 0.05117207 0.02986483 -0.00274842
v 0.05219489 0.03220206 -0.00347713
v 0.05533183 0.03801301 -0.00295897
v 0.05313058 0.03362021 -0.00274842
v 0.05162020 0.03071473 -0.00274842
v 0.05094800 0.02916811 -0.00191003
v 0.05102684 0.02904952 -0.00117753
v 0.04691686 0.02433059 -0.00054968
v 0.04956003 0.02725583 -0.00054968
v 0.05005795 0.02780432 0.00054969
v 0.04996874 0.02790314 0.00135278
v 0.04951853 0.02748807 0.00169066
v 0.05030484 0.02862951 0.00274843
v 0.04980899 0.02808103 0.00274843
v 0.04989198 0.02908905 0.00437227
v 0.05085464 0.02932129 0.00274843
v 0.05108078 0.03003283 0.00345066
v 0.05051231 0.02956341 0.00391210
v 0.04882558 0.02795255 0.00441009
v 0.04492100 0.02528426 0.00578809
v 0.04414921 0.02523485 0.00613983
v 0.04414921 0.02440965 0.00572127
v 0.04948949 0.02947941 0.00506190
v 0.04908492 0.02986483 0.00572883
v 0.04414921 0.02741890 -0.00642980
v 0.04496457 0.02741890 -0.00642602
v 0.04606416 0.02851586 -0.00641467
v 0.04716375 0.02961777 -0.00639954
v 0.04826334 0.03071473 -0.00637937
v 0.04834425 0.02953871 -0.00598224
v 0.04941687 0.03069003 -0.00591416
v 0.05003928 0.03103592 -0.00564309
v 0.05060775 0.02842198 -0.00054968
v 0.05005795 0.02780926 -0.00054968
v 0.05046667 0.03071473 -0.00494590
v 0.05108078 0.03112980 -0.00448069
v 0.05200195 0.03257760 -0.00420963
v 0.05123016 0.02956836 -0.00158602
v 0.05207871 0.03132745 -0.00202097
v 0.05330486 0.03438117 -0.00349478
v 0.05552063 0.03874432 -0.00352630
v 0.05612645 0.03951516 -0.00274842
v 0.05559532 0.03839349 -0.00265387
v 0.05452685 0.03634286 -0.00274842
v 0.05430694 0.03567084 -0.00218235
v 0.05319697 0.03349173 -0.00212688
v 0.05108078 0.02897046 -0.00054968
v 0.05144178 0.02961777 -0.00054968
v 0.05060775 0.02842198 0.00054969
v 0.05045837 0.02852080 0.00163141
v 0.05102684 0.02904952 0.00117754
v 0.05094800 0.02917305 0.00191003
v 0.05088991 0.03040837 0.00418316
v 0.05015754 0.02982530 0.00467863
v 0.04981937 0.03030461 0.00541238
v 0.05116584 0.02986977 0.00274843
v 0.05219074 0.03221194 0.00346579
v 0.05160360 0.03071473 0.00274843
v 0.05563267 0.03853679 0.00274843
v 0.04496457 0.02631699 0.00623439
v 0.04833803 0.02954365 0.00597972
v 0.04606416 0.02741890 0.00617892
v 0.04414921 0.02550662 0.00626087
v 0.05003513 0.03103592 0.00564184
v 0.04941687 0.03069003 0.00591164
v 0.04496457 0.02851586 -0.00643736
v 0.04414921 0.02851586 -0.00632516
v 0.06035675 0.07224130 -0.00642224
v 0.04606416 0.02961777 -0.00643989
v 0.04826334 0.03181664 -0.00643863
v 0.04936293 0.03291855 -0.00642098
v 0.04936293 0.03181664 -0.00629490
v 0.05024468 0.03181664 -0.00582338
v 0.05114717 0.03320020 -0.00564814
v 0.05096045 0.03246889 -0.00543633
v 0.05079447 0.03181664 -0.00523840
v 0.05329863 0.03549296 -0.00450086
v 0.05421980 0.03694075 -0.00424493
v 0.05214510 0.03119898 -0.00128722
v 0.05299572 0.03296302 -0.00171587
v 0.05236502 0.03174252 -0.00165157
v 0.05532354 0.03913468 -0.00426006
v 0.05570528 0.03950528 -0.00387553
v 0.05656213 0.04101237 -0.00342040
v 0.05644802 0.04023165 -0.00274842
v 0.05650404 0.04007353 -0.00218361
v 0.05634636 0.03952504 -0.00174991
v 0.05642520 0.03914457 -0.00054968
v 0.05582976 0.03841325 -0.00164905
v 0.05547706 0.03772642 -0.00164905
v 0.05519491 0.03717793 -0.00164905
v 0.05446876 0.03536448 -0.00054968
v 0.05326544 0.03336326 -0.00139438
v 0.05606006 0.03841325 -0.00054968
v 0.05559117 0.03751394 -0.00054968
v 0.05530486 0.03696546 -0.00054968
v 0.05491275 0.03621438 -0.00054968
v 0.05108078 0.02897046 0.00054969
v 0.05143763 0.02961777 0.00054969
v 0.05221149 0.03107545 -0.00054968
v 0.05122393 0.02956836 0.00158602
v 0.05605175 0.03841325 0.00054969
v 0.05107663 0.03113968 0.00447439
v 0.05046252 0.03072462 0.00494339
v 0.05329863 0.03439105 0.00348344
v 0.05440860 0.03657510 0.00350109
v 0.05551648 0.03875421 0.00351748
v 0.05531731 0.03913962 0.00425124
v 0.05573225 0.03830455 0.00175244
v 0.05642520 0.03914457 0.00054969
v 0.05612022 0.03951516 0.00274843
v 0.04826334 0.03071473 0.00637685
v 0.04936293 0.03181664 0.00629238
v 0.04716375 0.02961777 0.00639703
v 0.04606416 0.02851586 0.00641089
v 0.04496457 0.02741890 0.00642476
v 0.04414921 0.02660358 0.00643107
v 0.05113472 0.03321996 0.00563932
v 0.05023430 0.03181664 0.00582087
v 0.05439822 0.03769183 0.00449456
v 0.05550196 0.03987588 0.00450465
v 0.06145634 0.07224130 -0.00643863
v 0.04414921 0.02960294 -0.00598980
v 0.05928621 0.07224130 -0.00595072
v 0.05376129 0.04281100 -0.00643863
v 0.06145634 0.07139634 -0.00643863
v 0.06035675 0.06589668 -0.00643863
v 0.05925716 0.06040198 -0.00643863
v 0.05815757 0.05600423 -0.00643863
v 0.05705798 0.05270345 -0.00643863
v 0.05046252 0.03401551 -0.00629742
v 0.05266170 0.03951516 -0.00641971
v 0.05135464 0.03401551 -0.00582716
v 0.05054136 0.03286419 -0.00594946
v 0.05224883 0.03538919 -0.00564688
v 0.05206626 0.03465788 -0.00544516
v 0.05190443 0.03401551 -0.00525352
v 0.05440652 0.03767700 -0.00450716
v 0.05550196 0.03986599 -0.00450590
v 0.05621773 0.04063189 -0.00381123
v 0.05640445 0.04171403 -0.00420837
v 0.05749160 0.04479246 -0.00419072
v 0.05767832 0.04425386 -0.00345696
v 0.06090032 0.05326676 -0.00327794
v 0.05978414 0.05001539 -0.00320103
v 0.05866795 0.04677391 -0.00312286
v 0.05755176 0.04352254 -0.00302957
v 0.05664305 0.04078013 -0.00274842
v 0.05657666 0.03990058 -0.00145112
v 0.05674471 0.04050836 -0.00174991
v 0.05701649 0.04061213 -0.00054968
v 0.05666379 0.03969305 -0.00054968
v 0.05644595 0.04023659 0.00274843
v 0.05656006 0.04101731 0.00341536
v 0.05570113 0.03951022 0.00386923
v 0.05666379 0.03969305 0.00054969
v 0.05657666 0.03990058 0.00144734
v 0.05650404 0.04007353 0.00218109
v 0.05634221 0.03952504 0.00174866
v 0.04936293 0.03291855 0.00641972
v 0.05383598 0.03947069 0.00594316
v 0.05376129 0.04061213 0.00629112
v 0.04826334 0.03181664 0.00643863
v 0.04716375 0.03071473 0.00643863
v 0.04606416 0.02961777 0.00643863
v 0.04496457 0.02851586 0.00643737
v 0.04414921 0.02770549 0.00643359
v 0.05443971 0.03980670 0.00564058
v 0.05463266 0.04061213 0.00581960
v 0.05621566 0.04063683 0.00380872
v 0.05639823 0.04171403 0.00419829
v 0.05649782 0.04229217 0.00438109
v 0.05565134 0.04061213 0.00469124
v 0.05518038 0.04061213 0.00524092
v 0.06255593 0.07224130 -0.00613605
v 0.04414921 0.03024531 -0.00571496
v 0.05768662 0.07224130 -0.00427645
v 0.05823641 0.07224130 -0.00491564
v 0.05835260 0.07224130 -0.00504424
v 0.05873641 0.07224130 -0.00546533
v 0.05485880 0.04500987 -0.00642476
v 0.05376129 0.04171403 -0.00641845
v 0.05815757 0.05490233 -0.00642980
v 0.06145634 0.07029937 -0.00643610
v 0.05925716 0.05930007 -0.00642854
v 0.06035675 0.06479972 -0.00643358
v 0.05376129 0.04061213 -0.00629364
v 0.05245423 0.03621438 -0.00582590
v 0.05355174 0.03841325 -0.00582338
v 0.05444386 0.03979187 -0.00564309
v 0.05316378 0.03685675 -0.00544516
v 0.05459324 0.03841325 -0.00471519
v 0.05410154 0.03841325 -0.00526487
v 0.05426129 0.03906056 -0.00544390
v 0.05518453 0.04061213 -0.00524344
v 0.05565341 0.04061213 -0.00469375
v 0.05650197 0.04227734 -0.00438991
v 0.05879658 0.04750028 -0.00349100
v 0.05860778 0.04803888 -0.00422476
v 0.06114721 0.05370159 -0.00284676
v 0.06001858 0.05043046 -0.00280011
v 0.05991277 0.05075165 -0.00352378
v 0.06102896 0.05399807 -0.00355026
v 0.06152481 0.05490233 -0.00274842
v 0.05928828 0.04830571 -0.00274842
v 0.05739823 0.04289006 -0.00269673
v 0.05697292 0.04171403 -0.00274842
v 0.05888787 0.04716427 -0.00275347
v 0.05874886 0.04654167 -0.00238911
v 0.05981526 0.04882949 -0.00114475
v 0.05797293 0.04391291 -0.00164905
v 0.05769284 0.04312230 -0.00164905
v 0.05719284 0.04171403 -0.00164905
v 0.05757044 0.04236628 -0.00090647
v 0.05935467 0.04720380 -0.00054968
v 0.05763890 0.04216863 -0.00017272
v 0.05663890 0.04078507 0.00274843
v 0.05754761 0.04353243 0.00300058
v 0.06129244 0.05270345 0.00054969
v 0.05978206 0.05002528 0.00317834
v 0.06089825 0.05327170 0.00326786
v 0.06102896 0.05400795 0.00354774
v 0.05701234 0.04061213 0.00054969
v 0.05763890 0.04216863 0.00016138
v 0.05674263 0.04050836 0.00174866
v 0.05376129 0.04171403 0.00641846
v 0.05376129 0.04281100 0.00643863
v 0.05485880 0.04281100 0.00618018
v 0.05485880 0.04391291 0.00634660
v 0.06035675 0.06810050 0.00643989
v 0.06145634 0.07224130 0.00643863
v 0.04414921 0.02880246 0.00630499
v 0.06119701 0.07224130 0.00643611
v 0.06035675 0.07224130 0.00642224
v 0.05534014 0.04135826 0.00541617
v 0.05546669 0.04208957 0.00556998
v 0.05558910 0.04281100 0.00570866
v 0.05577582 0.04391291 0.00587508
v 0.05492727 0.04171898 0.00590155
v 0.05971567 0.05131495 0.00424872
v 0.05579449 0.04171898 0.00500894
v 0.05984430 0.05204626 0.00444035
v 0.06324266 0.07224130 -0.00566453
v 0.06255593 0.07139634 -0.00611714
v 0.06145634 0.06919746 -0.00641971
v 0.04414921 0.03046767 -0.00555863
v 0.05739408 0.07224130 -0.00372676
v 0.05746255 0.07224130 -0.00385662
v 0.05595840 0.04720380 -0.00635668
v 0.05815757 0.05380536 -0.00636802
v 0.05485880 0.04391291 -0.00634911
v 0.05925716 0.05820310 -0.00639198
v 0.06035675 0.06369781 -0.00640837
v 0.05485880 0.04281100 -0.00618522
v 0.05463681 0.04061213 -0.00582212
v 0.05384220 0.03946081 -0.00594567
v 0.05534221 0.04134838 -0.00541742
v 0.05580279 0.04171403 -0.00501020
v 0.05663060 0.04300865 -0.00454877
v 0.05873641 0.04877019 -0.00443278
v 0.05972397 0.05129025 -0.00425754
v 0.06144597 0.05380536 -0.00164905
v 0.06106423 0.05268369 -0.00161879
v 0.06093560 0.05207097 -0.00123301
v 0.06083394 0.05461573 -0.00428275
v 0.06112231 0.05495174 -0.00388940
v 0.06200614 0.05764474 -0.00330189
v 0.06074265 0.05370159 -0.00388940
v 0.06176962 0.05600423 -0.00274842
v 0.06175510 0.05490233 -0.00164905
v 0.05993144 0.04941256 -0.00156584
v 0.06129659 0.05270345 -0.00054968
v 0.06052273 0.05050458 -0.00054968
v 0.05987335 0.04866642 -0.00054968
v 0.05869285 0.04559788 -0.00102877
v 0.06106008 0.05268863 0.00160871
v 0.06114721 0.05370653 0.00284046
v 0.06167419 0.05380536 0.00054969
v 0.06144182 0.05380536 0.00164906
v 0.06152481 0.05490233 0.00274843
v 0.06200614 0.05764474 0.00330190
v 0.06112231 0.05495174 0.00388814
v 0.06083186 0.05461573 0.00428149
v 0.05595840 0.04720380 0.00635290
v 0.05815757 0.05380536 0.00636551
v 0.05485880 0.04500987 0.00642350
v 0.05595840 0.04830571 0.00642602
v 0.05815757 0.05490233 0.00642854
v 0.05705798 0.05270345 0.00643863
v 0.05912023 0.05380536 0.00589399
v 0.05815757 0.05270345 0.00621548
v 0.05815757 0.05600423 0.00643863
v 0.05925716 0.06040198 0.00643863
v 0.06035675 0.06589668 0.00643863
v 0.06145634 0.07139634 0.00643863
v 0.06229659 0.07224130 0.00620287
v 0.04414921 0.02993895 0.00589273
v 0.06010364 0.07224130 0.00631130
v 0.05928828 0.07224130 0.00595072
v 0.05915965 0.07224130 0.00583852
v 0.05873849 0.07224130 0.00546155
v 0.05995841 0.05270345 0.00457273
v 0.06015136 0.05380536 0.00479210
v 0.05977999 0.05443290 0.00546660
v 0.05989824 0.05516421 0.00560906
v 0.05892936 0.05270345 0.00574396
v 0.06381113 0.07224130 -0.00495977
v 0.06322606 0.07139634 -0.00564562
v 0.06255593 0.07029937 -0.00604401
v 0.06145634 0.06810050 -0.00637055
v 0.04414921 0.03159922 -0.00469249
v 0.05706628 0.07224130 -0.00274842
v 0.04414921 0.03162393 -0.00467106
v 0.04414921 0.03215265 -0.00420080
v 0.05815757 0.05270345 -0.00622178
v 0.05925716 0.05710120 -0.00631507
v 0.05925716 0.05600423 -0.00620034
v 0.05595840 0.04611178 -0.00620287
v 0.06035675 0.06260085 -0.00634533
v 0.05579034 0.04391291 -0.00587885
v 0.05492727 0.04171403 -0.00590407
v 0.05559740 0.04281100 -0.00571496
v 0.05547084 0.04207969 -0.00557375
v 0.05985053 0.05202156 -0.00445043
v 0.05645840 0.04459974 -0.00543885
v 0.06167419 0.05380536 -0.00054968
v 0.06194390 0.05482821 -0.00064424
v 0.06036713 0.05488750 -0.00494968
v 0.06093352 0.05534704 -0.00443152
v 0.05996671 0.05270345 -0.00458407
v 0.06015551 0.05380536 -0.00479840
v 0.06138165 0.05600423 -0.00384779
v 0.06194597 0.05682943 -0.00274842
v 0.06206630 0.05820310 -0.00343553
v 0.06313062 0.06303074 -0.00336115
v 0.06417627 0.06768049 -0.00315690
v 0.06200406 0.05656260 -0.00218739
v 0.06199991 0.05547551 -0.00107289
v 0.06207046 0.05514445 0.00034040
v 0.06194390 0.05482821 0.00064298
v 0.06175510 0.05490233 0.00164906
v 0.06176962 0.05600423 0.00274843
v 0.06206630 0.05820310 0.00343553
v 0.06138165 0.05600423 0.00384780
v 0.06194597 0.05682943 0.00274843
v 0.06417627 0.06768049 0.00315691
v 0.06313062 0.06303074 0.00336115
v 0.06093352 0.05534704 0.00443152
v 0.06036505 0.05489244 0.00494843
v 0.05925716 0.05600423 0.00620035
v 0.05925716 0.05710120 0.00631508
v 0.05925716 0.05820310 0.00639198
v 0.05925716 0.05930007 0.00642854
v 0.06000405 0.05600423 0.00573009
v 0.06035675 0.06479972 0.00643359
v 0.06145634 0.07029937 0.00643611
v 0.06255593 0.07224130 0.00612597
v 0.04414921 0.03029967 0.00571370
v 0.05823849 0.07224130 0.00491187
v 0.05810986 0.07224130 0.00476310
v 0.05768869 0.07224130 0.00427393
v 0.06423229 0.07224130 -0.00443404
v 0.06421984 0.07158905 -0.00441639
v 0.06386092 0.07129257 -0.00484883
v 0.06420324 0.07085280 -0.00439748
v 0.06316797 0.07029937 -0.00557628
v 0.06239618 0.06810050 -0.00589903
v 0.06145634 0.06699859 -0.00627851
v 0.05665549 0.07224130 -0.00078922
v 0.04414921 0.03257760 -0.00368137
v 0.05912646 0.05380536 -0.00589651
v 0.06035675 0.06149894 -0.00624069
v 0.06023850 0.05820310 -0.00592172
v 0.06012231 0.05710120 -0.00584481
v 0.06000405 0.05600423 -0.00573009
v 0.05690653 0.04720380 -0.00588516
v 0.05801649 0.05050458 -0.00589146
v 0.05671981 0.04611178 -0.00573135
v 0.05658703 0.04533600 -0.00558888
v 0.05757044 0.04786593 -0.00545272
v 0.06207046 0.05514445 -0.00034040
v 0.05989824 0.05515927 -0.00560905
v 0.06055385 0.05600423 -0.00506946
v 0.06100613 0.05600423 -0.00451977
v 0.06310365 0.06535808 -0.00439496
v 0.06197917 0.05997208 -0.00435461
v 0.06190655 0.05930007 -0.00422476
v 0.05880073 0.05187826 -0.00560401
v 0.05978206 0.05442796 -0.00546911
v 0.06179037 0.05820310 -0.00398521
v 0.06218249 0.05930007 -0.00367507
v 0.06320324 0.06369781 -0.00351622
v 0.06425511 0.06841180 -0.00341662
v 0.06458084 0.06919746 -0.00274842
v 0.06433602 0.06806591 -0.00277364
v 0.06217419 0.05590541 -0.00064424
v 0.06479868 0.06919746 -0.00164905
v 0.06311403 0.05980408 0.00004917
v 0.06244597 0.05710120 0.00054969
v 0.06217419 0.05590541 0.00064298
v 0.06199991 0.05547551 0.00107290
v 0.06200406 0.05656260 0.00218740
v 0.06218249 0.05930007 0.00367634
v 0.06190863 0.05930007 0.00422602
v 0.06425511 0.06841180 0.00341662
v 0.06320324 0.06369781 0.00351622
v 0.06433602 0.06806591 0.00277364
v 0.06458084 0.06919746 0.00274843
v 0.06197917 0.05997208 0.00435588
v 0.06310365 0.06535314 0.00439622
v 0.06205801 0.06070339 0.00446178
v 0.06100613 0.05600423 0.00451978
v 0.06055385 0.05600423 0.00506946
v 0.06012231 0.05710120 0.00584482
v 0.06023850 0.05820310 0.00592172
v 0.06145634 0.06589668 0.00615496
v 0.06035675 0.06149894 0.00624069
v 0.06145634 0.06699859 0.00627852
v 0.06035675 0.06260085 0.00634534
v 0.06145634 0.06810050 0.00637055
v 0.06035675 0.06369781 0.00640837
v 0.06145634 0.06919746 0.00641972
v 0.06067211 0.05710120 0.00521193
v 0.06094597 0.05966572 0.00554602
v 0.06102481 0.06040198 0.00564058
v 0.06216174 0.06589668 0.00568344
v 0.06114099 0.06149894 0.00577044
v 0.06255593 0.07139634 0.00611210
v 0.06307668 0.07224130 0.00576539
v 0.04414921 0.03039355 0.00565823
v 0.05739201 0.07224130 0.00372425
v 0.06428208 0.07224130 -0.00433696
v 0.06452067 0.07224130 -0.00387175
v 0.06443768 0.07129257 -0.00395748
v 0.06443561 0.07029937 -0.00377845
v 0.06416382 0.07029937 -0.00432814
v 0.06367627 0.07029937 -0.00494716
v 0.06311610 0.06969159 -0.00551198
v 0.06227793 0.06699859 -0.00580699
v 0.06125925 0.06260085 -0.00587381
v 0.06145634 0.06589668 -0.00615370
v 0.05659740 0.07224130 -0.00050934
v 0.04414921 0.03306678 -0.00276986
v 0.05650197 0.07224130 -0.00003782
v 0.05893973 0.05270345 -0.00575152
v 0.06114099 0.06149894 -0.00577043
v 0.06094597 0.05966572 -0.00554602
v 0.06067211 0.05710120 -0.00521192
v 0.06216174 0.06589668 -0.00568344
v 0.05769284 0.04859724 -0.00559645
v 0.06244597 0.05710120 -0.00054968
v 0.06311403 0.05980408 -0.00005043
v 0.06318249 0.06608940 -0.00449077
v 0.06406216 0.06919746 -0.00414155
v 0.06304349 0.06479972 -0.00429158
v 0.06292730 0.06369781 -0.00406590
v 0.06433810 0.06919746 -0.00359186
v 0.06476756 0.07029937 -0.00274842
v 0.06501030 0.06919746 -0.00054968
v 0.06423644 0.06519996 0.00016264
v 0.06501030 0.06919746 0.00054969
v 0.06479868 0.06919746 0.00164906
v 0.06406424 0.06919746 0.00414155
v 0.06304349 0.06479972 0.00429284
v 0.06433810 0.06919746 0.00359187
v 0.06476549 0.07029937 0.00274843
v 0.06318249 0.06608940 0.00449204
v 0.06416175 0.07029937 0.00432562
v 0.06279037 0.06579292 0.00489422
v 0.06282979 0.06699859 0.00516023
v 0.06192730 0.06369781 0.00540104
v 0.06228000 0.06699859 0.00580826
v 0.06125925 0.06260085 0.00587382
v 0.06239618 0.06810050 0.00589903
v 0.06255593 0.07029937 0.00604276
v 0.06199162 0.06431053 0.00548172
v 0.06311610 0.06969159 0.00551198
v 0.06321984 0.07139634 0.00564058
v 0.06323229 0.07224130 0.00565571
v 0.04414921 0.03098156 0.00521445
v 0.05706006 0.07224130 0.00274843
v 0.04414921 0.03217241 0.00422098
v 0.04414921 0.03178205 0.00459416
v 0.04414921 0.03170299 0.00465594
v 0.06461818 0.07224130 -0.00359060
v 0.06486299 0.07139634 -0.00274842
v 0.06339618 0.06810050 -0.00475301
v 0.06343768 0.06927652 -0.00500894
v 0.06207046 0.06504679 -0.00557628
v 0.04414921 0.03340773 -0.00166544
v 0.05649989 0.07223636 -0.00003404
v 0.05650197 0.07224130 0.00003909
v 0.06423644 0.06519996 -0.00016263
v 0.06497296 0.07029937 -0.00164905
v 0.06519910 0.07037843 -0.00045387
v 0.06530698 0.07079844 -0.00002269
v 0.06530698 0.07079844 0.00002270
v 0.06519702 0.07037843 0.00045261
v 0.06497088 0.07029937 0.00164906
v 0.06443353 0.07029937 0.00377594
v 0.06485677 0.07139634 0.00274843
v 0.06339618 0.06810050 0.00475427
v 0.06343975 0.06927652 0.00500894
v 0.06367419 0.07029937 0.00494717
v 0.06420324 0.07091209 0.00439496
v 0.06316797 0.07029937 0.00557502
v 0.06262440 0.06927652 0.00586751
v 0.06414723 0.07224130 0.00451851
v 0.06365345 0.07224130 0.00513250
v 0.05682769 0.07224130 0.00164906
v 0.04414921 0.03245901 0.00385536
v 0.06490242 0.07224130 -0.00274842
v 0.06509951 0.07224130 -0.00164905
v 0.06505802 0.07139634 -0.00164905
v 0.04414921 0.03370915 -0.00062281
v 0.05649989 0.07223636 0.00003530
v 0.04414921 0.03372892 -0.00054968
v 0.05659325 0.07224130 0.00050934
v 0.04414921 0.03306678 0.00277743
v 0.04414921 0.03253807 0.00371920
v 0.06523022 0.07139634 -0.00066315
v 0.06532358 0.07139634 -0.00011346
v 0.06532358 0.07139634 0.00010717
v 0.06505180 0.07139634 0.00164906
v 0.06443146 0.07132716 0.00395622
v 0.06534433 0.07224130 0.00021685
v 0.06532151 0.07224130 0.00034545
v 0.06489204 0.07224130 0.00274843
v 0.06450822 0.07224130 0.00387175
v 0.06443353 0.07224130 0.00401800
v 0.06422399 0.07224130 0.00442144
v 0.05677790 0.07224130 0.00141204
v 0.06525096 0.07224130 -0.00078292
v 0.04414921 0.03372892 0.00054969
v 0.04414921 0.03349173 0.00139187
v 0.04414921 0.03341267 0.00166671
v 0.04414921 0.03328420 0.00210797
v 0.04414921 0.03309149 0.00270304
v 0.06534433 0.07224130 -0.00023324
f 1 2 9
f 1 9 23
f 1 23 41
f 1 41 40
f 1 40 46
f 1 46 72
f 1 72 76
f 1 76 115
f 1 115 114
f 1 114 156
f 1 156 210
f 1 210 260
f 1 260 325
f 1 325 390
f 1 390 451
f 1 451 523
f 1 523 573
f 1 573 577
f 1 577 576
f 1 576 575
f 1 575 604
f 1 604 613
f 1 613 612
f 1 612 631
f 1 631 630
f 1 630 629
f 1 629 628
f 1 628 627
f 1 627 610
f 1 610 608
f 1 608 583
f 1 583 536
f 1 536 463
f 1 463 407
f 1 407 406
f 1 406 404
f 1 404 339
f 1 339 269
f 1 269 216
f 1 216 160
f 1 160 118
f 1 118 79
f 1 79 52
f 1 52 51
f 1 51 50
f 1 50 29
f 1 29 25
f 1 25 14
f 1 14 13
f 1 13 10
f 1 10 3
f 1 3 4
f 1 4 5
f 1 5 6
f 1 6 7
f 1 7 8
f 1 8 2
f 2 8 9
f 3 10 4
f 4 11 12
f 4 12 5
f 4 10 13
f 4 13 14
f 4 14 15
f 4 15 16
f 4 16 17
f 4 17 11
f 5 12 18
f 5 18 6
f 6 18 7
f 7 18 19
f 7 19 8
f 8 19 20
f 8 20 9
f 9 20 21
f 9 21 22
f 9 22 23
f 11 17 12
f 12 17 24
f 12 24 18
f 14 25 15
f 15 26 27
f 15 27 28
f 15 28 16
f 15 25 29
f 15 29 30
f 15 30 26
f 16 28 17
f 17 31 24
f 17 28 32
f 17 32 33
f 17 33 31
f 18 24 34
f 18 34 35
f 18 35 19
f 19 35 36
f 19 36 37
f 19 37 38
f 19 38 39
f 19 39 21
f 19 21 20
f 21 39 22
f 22 40 41
f 22 41 23
f 22 39 42
f 22 42 43
f 22 43 44
f 22 44 45
f 22 45 46
f 22 46 40
f 24 31 47
f 24 47 34
f 26 30 27
f 27 30 48
f 27 48 49
f 27 49 28
f 28 49 32
f 29 50 30
f 30 50 51
f 30 51 52
f 30 52 53
f 30 53 54
f 30 54 48
f 31 34 47
f 31 33 55
f 31 55 56
f 31 56 34
f 32 49 33
f 33 49 57
f 33 57 58
f 33 58 59
f 33 59 60
f 33 60 61
f 33 61 55
f 34 56 35
f 35 56 62
f 35 62 63
f 35 63 36
f 36 63 64
f 36 64 37
f 37 65 38
f 37 64 66
f 37 66 65
f 38 67 68
f 38 68 43
f 38 43 42
f 38 42 39
f 38 65 69
f 38 69 67
f 43 70 44
f 43 68 71
f 43 71 70
f 44 70 45
f 45 72 46
f 45 70 73
f 45 73 74
f 45 74 75
f 45 75 76
f 45 76 72
f 48 54 49
f 49 77 78
f 49 78 57
f 49 54 77
f 52 79 80
f 52 80 53
f 53 80 81
f 53 81 82
f 53 82 83
f 53 83 54
f 54 83 84
f 54 84 82
f 54 82 85
f 54 85 77
f 55 61 56
f 56 61 86
f 56 86 87
f 56 87 62
f 57 78 88
f 57 88 89
f 57 89 90
f 57 90 91
f 57 91 92
f 57 92 93
f 57 93 58
f 58 93 59
f 59 94 60
f 59 93 95
f 59 95 96
f 59 96 97
f 59 97 98
f 59 98 94
f 60 99 61
f 60 94 99
f 61 99 100
f 61 100 86
f 62 101 63
f 62 87 101
f 63 101 102
f 63 102 103
f 63 103 104
f 63 104 64
f 64 104 105
f 64 105 66
f 65 66 69
f 66 105 106
f 66 106 107
f 66 107 69
f 67 69 71
f 67 71 68
f 69 107 106
f 69 106 71
f 70 71 108
f 70 108 73
f 71 106 109
f 71 109 110
f 71 110 111
f 71 111 108
f 73 108 112
f 73 112 74
f 74 112 108
f 74 108 75
f 75 113 114
f 75 114 115
f 75 115 76
f 75 108 116
f 75 116 117
f 75 117 113
f 77 85 88
f 77 88 78
f 79 118 119
f 79 119 80
f 80 119 120
f 80 120 121
f 80 121 122
f 80 122 81
f 81 123 82
f 81 122 123
f 82 84 83
f 82 123 85
f 85 91 89
f 85 89 88
f 85 123 124
f 85 124 125
f 85 125 91
f 86 100 126
f 86 126 127
f 86 127 102
f 86 102 87
f 87 102 101
f 89 91 90
f 91 125 128
f 91 128 92
f 92 128 93
f 93 128 129
f 93 129 130
f 93 130 95
f 94 131 100
f 94 100 99
f 94 98 132
f 94 132 131
f 95 130 133
f 95 133 96
f 96 134 135
f 96 135 136
f 96 136 137
f 96 137 97
f 96 133 134
f 97 138 139
f 97 139 98
f 97 137 138
f 98 139 132
f 100 140 126
f 100 131 141
f 100 141 140
f 102 127 103
f 103 127 126
f 103 126 142
f 103 142 143
f 103 143 104
f 104 143 106
f 104 106 105
f 106 143 144
f 106 144 145
f 106 145 109
f 108 111 146
f 108 146 147
f 108 147 148
f 108 148 116
f 109 145 149
f 109 149 110
f 110 150 146
f 110 146 111
f 110 149 151
f 110 151 152
f 110 152 150
f 113 153 114
f 113 117 154
f 113 154 155
f 113 155 153
f 114 153 156
f 116 148 117
f 117 148 157
f 117 157 158
f 117 158 154
f 118 159 119
f 118 160 161
f 118 161 159
f 119 159 162
f 119 162 163
f 119 163 120
f 120 163 121
f 121 163 164
f 121 164 122
f 122 164 165
f 122 165 123
f 123 165 124
f 124 165 166
f 124 166 125
f 125 166 167
f 125 167 168
f 125 168 169
f 125 169 128
f 126 140 191
f 126 191 142
f 128 169 129
f 129 169 170
f 129 170 171
f 129 171 130
f 130 171 133
f 131 132 172
f 131 172 141
f 132 139 173
f 132 173 174
f 132 174 172
f 133 171 134
f 134 171 175
f 134 175 176
f 134 176 177
f 134 177 178
f 134 178 135
f 135 179 180
f 135 180 181
f 135 181 182
f 135 182 136
f 135 178 179
f 136 182 137
f 137 182 138
f 138 182 183
f 138 183 184
f 138 184 139
f 139 185 186
f 139 186 173
f 139 184 187
f 139 187 188
f 139 188 189
f 139 189 190
f 139 190 185
f 140 141 191
f 141 192 191
f 141 172 193
f 141 193 192
f 142 191 144
f 142 144 143
f 144 194 149
f 144 149 145
f 144 191 192
f 144 192 195
f 144 195 194
f 146 196 197
f 146 197 147
f 146 150 198
f 146 198 199
f 146 199 200
f 146 200 201
f 146 201 196
f 147 197 148
f 148 197 157
f 149 194 195
f 149 195 151
f 150 152 198
f 151 195 202
f 151 202 152
f 152 202 195
f 152 195 203
f 152 203 204
f 152 204 200
f 152 200 198
f 153 155 205
f 153 205 156
f 154 158 206
f 154 206 205
f 154 205 155
f 156 205 207
f 156 207 208
f 156 208 209
f 156 209 210
f 157 211 212
f 157 212 158
f 157 197 196
f 157 196 213
f 157 213 214
f 157 214 211
f 158 212 206
f 159 161 215
f 159 215 162
f 160 216 217
f 160 217 161
f 161 217 273
f 161 273 272
f 161 272 271
f 161 271 270
f 161 270 341
f 161 341 340
f 161 340 405
f 161 405 462
f 161 462 535
f 161 535 537
f 161 537 585
f 161 585 611
f 161 611 625
f 161 625 603
f 161 603 574
f 161 574 524
f 161 524 454
f 161 454 453
f 161 453 452
f 161 452 394
f 161 394 393
f 161 393 392
f 161 392 391
f 161 391 327
f 161 327 326
f 161 326 324
f 161 324 389
f 161 389 450
f 161 450 522
f 161 522 572
f 161 572 602
f 161 602 601
f 161 601 624
f 161 624 623
f 161 623 622
f 161 622 621
f 161 621 620
f 161 620 619
f 161 619 632
f 161 632 626
f 161 626 606
f 161 606 605
f 161 605 578
f 161 578 526
f 161 526 525
f 161 525 455
f 161 455 400
f 161 400 336
f 161 336 268
f 161 268 215
f 162 218 163
f 162 215 219
f 162 219 220
f 162 220 221
f 162 221 222
f 162 222 223
f 162 223 218
f 163 218 164
f 164 224 165
f 164 218 225
f 164 225 224
f 165 224 226
f 165 226 227
f 165 227 166
f 166 227 226
f 166 226 167
f 167 226 228
f 167 228 229
f 167 229 168
f 168 229 230
f 168 230 231
f 168 231 170
f 168 170 169
f 170 231 171
f 171 231 175
f 172 174 186
f 172 186 193
f 173 186 174
f 175 232 176
f 175 231 232
f 176 232 233
f 176 233 177
f 177 233 234
f 177 234 235
f 177 235 236
f 177 236 237
f 177 237 238
f 177 238 239
f 177 239 240
f 177 240 178
f 178 240 241
f 178 241 179
f 179 242 181
f 179 181 180
f 179 241 243
f 179 243 244
f 179 244 242
f 181 187 182
f 181 242 245
f 181 245 249
f 181 249 203
f 181 203 187
f 182 187 183
f 183 187 184
f 185 192 193
f 185 193 186
f 185 190 195
f 185 195 192
f 187 203 195
f 187 195 188
f 188 195 189
f 189 195 190
f 196 201 213
f 198 200 199
f 200 204 246
f 200 246 247
f 200 247 248
f 200 248 201
f 201 248 214
f 201 214 213
f 203 249 250
f 203 250 251
f 203 251 252
f 203 252 204
f 204 252 251
f 204 251 246
f 205 206 253
f 205 253 207
f 206 212 254
f 206 254 255
f 206 255 319
f 206 319 253
f 207 253 256
f 207 256 208
f 208 256 209
f 209 256 210
f 210 256 257
f 210 257 258
f 210 258 259
f 210 259 260
f 211 214 261
f 211 261 212
f 212 261 262
f 212 262 254
f 214 248 263
f 214 263 264
f 214 264 265
f 214 265 266
f 214 266 267
f 214 267 261
f 215 268 219
f 216 269 270
f 216 270 271
f 216 271 272
f 216 272 273
f 216 273 217
f 218 274 275
f 218 275 225
f 218 223 276
f 218 276 274
f 219 268 277
f 219 277 220
f 220 277 221
f 221 278 276
f 221 276 222
f 221 277 279
f 221 279 278
f 222 276 223
f 224 225 275
f 224 275 280
f 224 280 281
f 224 281 226
f 226 281 228
f 228 281 282
f 228 282 283
f 228 283 284
f 228 284 229
f 229 284 285
f 229 285 231
f 229 231 230
f 231 285 232
f 232 285 286
f 232 286 287
f 232 287 283
f 232 283 288
f 232 288 289
f 232 289 290
f 232 290 234
f 232 234 233
f 234 290 235
f 235 291 236
f 235 290 292
f 235 292 291
f 236 291 237
f 237 293 294
f 237 294 238
f 237 291 295
f 237 295 296
f 237 296 297
f 237 297 293
f 238 294 298
f 238 298 240
f 238 240 239
f 240 299 300
f 240 300 241
f 240 298 301
f 240 301 302
f 240 302 303
f 240 303 299
f 241 304 305
f 241 305 306
f 241 306 243
f 241 300 303
f 241 303 304
f 242 244 245
f 243 306 307
f 243 307 244
f 244 307 308
f 244 308 309
f 244 309 245
f 245 309 317
f 245 317 249
f 246 310 311
f 246 311 247
f 246 251 312
f 246 312 310
f 247 264 263
f 247 263 248
f 247 311 313
f 247 313 314
f 247 314 315
f 247 315 264
f 249 316 250
f 249 317 316
f 250 316 251
f 251 316 318
f 251 318 312
f 253 319 320
f 253 320 256
f 254 262 255
f 255 262 321
f 255 321 322
f 255 322 319
f 256 320 323
f 256 323 257
f 257 323 258
f 258 323 259
f 259 323 324
f 259 324 260
f 260 324 326
f 260 326 327
f 260 327 325
f 261 267 262
f 262 267 328
f 262 328 329
f 262 329 330
f 262 330 331
f 262 331 332
f 262 332 321
f 264 315 333
f 264 333 265
f 265 334 266
f 265 333 335
f 265 335 334
f 266 328 267
f 266 334 328
f 268 336 337
f 268 337 338
f 268 338 277
f 269 339 340
f 269 340 341
f 269 341 270
f 274 342 275
f 274 276 343
f 274 343 342
f 275 342 344
f 275 344 280
f 276 278 345
f 276 345 343
f 277 338 279
f 278 279 338
f 278 338 346
f 278 346 345
f 280 344 347
f 280 347 348
f 280 348 349
f 280 349 282
f 280 282 281
f 282 349 348
f 282 348 283
f 283 348 288
f 283 287 284
f 284 287 286
f 284 286 285
f 288 348 350
f 288 350 289
f 289 350 351
f 289 351 290
f 290 351 352
f 290 352 353
f 290 353 354
f 290 354 292
f 291 292 354
f 291 354 295
f 293 355 356
f 293 356 294
f 293 297 355
f 294 356 357
f 294 357 298
f 295 354 296
f 296 358 359
f 296 359 360
f 296 360 297
f 296 354 361
f 296 361 358
f 297 360 362
f 297 362 363
f 297 363 355
f 298 357 301
f 299 303 300
f 301 357 302
f 302 357 364
f 302 364 303
f 303 364 357
f 303 357 365
f 303 365 366
f 303 366 367
f 303 367 368
f 303 368 305
f 303 305 304
f 305 368 307
f 305 307 306
f 307 368 367
f 307 367 308
f 308 367 309
f 309 367 366
f 309 366 365
f 309 365 317
f 310 312 369
f 310 369 311
f 311 369 370
f 311 370 313
f 312 365 371
f 312 371 372
f 312 372 369
f 312 318 317
f 312 317 365
f 313 370 314
f 314 370 373
f 314 373 315
f 315 373 374
f 315 374 375
f 315 375 376
f 315 376 333
f 316 317 318
f 319 322 377
f 319 377 378
f 319 378 379
f 319 379 320
f 320 379 380
f 320 380 381
f 320 381 382
f 320 382 323
f 321 332 331
f 321 331 383
f 321 383 384
f 321 384 322
f 322 384 377
f 323 382 385
f 323 385 386
f 323 386 387
f 323 387 388
f 323 388 324
f 324 388 389
f 325 327 391
f 325 391 392
f 325 392 393
f 325 393 394
f 325 394 390
f 328 334 335
f 328 335 329
f 329 335 395
f 329 395 396
f 329 396 397
f 329 397 330
f 330 397 398
f 330 398 399
f 330 399 331
f 331 399 383
f 333 376 335
f 335 376 395
f 336 400 401
f 336 401 337
f 337 401 402
f 337 402 403
f 337 403 338
f 338 403 346
f 339 404 340
f 340 404 406
f 340 406 407
f 340 407 405
f 342 343 408
f 342 408 344
f 343 345 409
f 343 409 410
f 343 410 408
f 344 408 411
f 344 411 347
f 345 346 403
f 345 403 412
f 345 412 409
f 347 411 413
f 347 413 414
f 347 414 348
f 348 414 413
f 348 413 415
f 348 415 416
f 348 416 350
f 350 416 351
f 351 416 353
f 351 353 352
f 353 417 354
f 353 416 418
f 353 418 417
f 354 417 358
f 354 358 361
f 355 419 365
f 355 365 357
f 355 357 356
f 355 363 420
f 355 420 419
f 358 421 422
f 358 422 359
f 358 417 423
f 358 423 424
f 358 424 421
f 359 422 425
f 359 425 360
f 360 426 362
f 360 425 427
f 360 427 428
f 360 428 429
f 360 429 426
f 362 426 430
f 362 430 431
f 362 431 363
f 363 431 420
f 365 419 371
f 369 372 370
f 370 372 373
f 371 419 474
f 371 474 432
f 371 432 433
f 371 433 434
f 371 434 373
f 371 373 372
f 373 434 435
f 373 435 374
f 374 436 437
f 374 437 375
f 374 435 438
f 374 438 439
f 374 439 440
f 374 440 436
f 375 441 376
f 375 437 441
f 376 441 442
f 376 442 396
f 376 396 395
f 377 384 378
f 378 384 443
f 378 443 444
f 378 444 445
f 378 445 381
f 378 381 380
f 378 380 379
f 381 445 446
f 381 446 386
f 381 386 385
f 381 385 382
f 383 399 398
f 383 398 447
f 383 447 443
f 383 443 384
f 386 446 448
f 386 448 449
f 386 449 387
f 387 449 388
f 388 449 389
f 389 449 450
f 390 394 452
f 390 452 453
f 390 453 454
f 390 454 451
f 396 442 398
f 396 398 397
f 398 442 441
f 398 441 447
f 400 455 456
f 400 456 457
f 400 457 401
f 401 457 458
f 401 458 459
f 401 459 402
f 402 459 460
f 402 460 461
f 402 461 403
f 403 461 412
f 405 407 463
f 405 463 462
f 408 410 464
f 408 464 411
f 409 412 461
f 409 461 465
f 409 465 410
f 410 466 467
f 410 467 468
f 410 468 464
f 410 465 460
f 410 460 466
f 411 469 413
f 411 464 470
f 411 470 469
f 413 469 471
f 413 471 415
f 415 471 472
f 415 472 416
f 416 472 418
f 417 418 472
f 417 472 473
f 417 473 423
f 419 420 474
f 420 431 474
f 421 475 422
f 421 424 475
f 422 475 468
f 422 468 476
f 422 476 477
f 422 477 478
f 422 478 479
f 422 479 480
f 422 480 425
f 423 473 424
f 424 481 482
f 424 482 475
f 424 473 481
f 425 480 483
f 425 483 427
f 426 429 430
f 427 483 480
f 427 480 484
f 427 484 485
f 427 485 486
f 427 486 428
f 428 486 429
f 429 486 487
f 429 487 488
f 429 488 431
f 429 431 430
f 431 489 474
f 431 488 490
f 431 490 489
f 432 474 545
f 432 545 491
f 432 491 492
f 432 492 493
f 432 493 494
f 432 494 433
f 433 494 434
f 434 494 435
f 435 494 495
f 435 495 438
f 436 496 497
f 436 497 437
f 436 440 498
f 436 498 499
f 436 499 496
f 437 497 441
f 438 495 439
f 439 500 501
f 439 501 498
f 439 498 440
f 439 495 494
f 439 494 500
f 441 497 502
f 441 502 503
f 441 503 504
f 441 504 505
f 441 505 506
f 441 506 447
f 443 447 507
f 443 507 508
f 443 508 509
f 443 509 510
f 443 510 444
f 444 510 511
f 444 511 512
f 444 512 445
f 445 512 513
f 445 513 514
f 445 514 446
f 446 514 515
f 446 515 448
f 447 506 516
f 447 516 517
f 447 517 518
f 447 518 519
f 447 519 520
f 447 520 507
f 448 515 449
f 449 515 450
f 450 521 522
f 450 515 521
f 451 454 523
f 454 524 523
f 455 525 456
f 456 458 457
f 456 525 526
f 456 526 458
f 458 526 527
f 458 527 528
f 458 528 529
f 458 529 530
f 458 530 459
f 459 530 531
f 459 531 532
f 459 532 460
f 460 532 533
f 460 533 466
f 460 465 534
f 460 534 461
f 461 534 465
f 462 463 535
f 463 536 537
f 463 537 535
f 464 538 470
f 464 468 475
f 464 475 538
f 466 533 467
f 467 533 532
f 467 532 539
f 467 539 468
f 468 540 541
f 468 541 476
f 468 539 542
f 468 542 540
f 469 470 538
f 469 538 471
f 471 538 481
f 471 481 543
f 471 543 472
f 472 543 473
f 473 543 481
f 474 489 544
f 474 544 545
f 475 482 481
f 475 481 538
f 476 541 477
f 477 541 540
f 477 540 531
f 477 531 546
f 477 546 478
f 478 546 529
f 478 529 547
f 478 547 548
f 478 548 479
f 479 548 480
f 480 548 547
f 480 547 549
f 480 549 485
f 480 485 484
f 485 549 547
f 485 547 550
f 485 550 486
f 486 550 487
f 487 490 488
f 487 550 551
f 487 551 490
f 489 490 544
f 490 551 552
f 490 552 544
f 491 545 586
f 491 586 553
f 491 553 492
f 492 494 493
f 492 553 554
f 492 554 555
f 492 555 494
f 494 555 500
f 496 499 497
f 497 499 556
f 497 556 557
f 497 557 503
f 497 503 502
f 498 501 558
f 498 558 499
f 499 558 556
f 500 555 501
f 501 555 559
f 501 559 558
f 503 560 504
f 503 557 556
f 503 556 561
f 503 561 560
f 504 560 562
f 504 562 563
f 504 563 564
f 504 564 505
f 505 516 506
f 505 564 516
f 507 520 565
f 507 565 566
f 507 566 508
f 508 566 567
f 508 567 509
f 509 511 510
f 509 567 511
f 511 567 568
f 511 568 513
f 511 513 512
f 513 568 521
f 513 521 515
f 513 515 514
f 516 564 517
f 517 564 569
f 517 569 570
f 517 570 518
f 518 570 519
f 519 570 565
f 519 565 520
f 521 571 572
f 521 572 522
f 521 568 571
f 523 524 573
f 524 574 575
f 524 575 576
f 524 576 577
f 524 577 573
f 526 578 579
f 526 579 527
f 527 579 528
f 528 551 550
f 528 550 529
f 528 579 551
f 529 550 547
f 529 546 580
f 529 580 581
f 529 581 530
f 530 581 531
f 531 582 542
f 531 542 532
f 531 581 546
f 531 540 582
f 532 542 539
f 536 583 584
f 536 584 537
f 537 584 609
f 537 609 585
f 540 542 582
f 544 552 545
f 545 552 586
f 546 581 580
f 551 587 552
f 551 579 587
f 552 587 588
f 552 588 589
f 552 589 590
f 552 590 554
f 552 554 553
f 552 553 586
f 554 590 591
f 554 591 592
f 554 592 559
f 554 559 555
f 556 558 561
f 558 559 593
f 558 593 561
f 559 592 594
f 559 594 593
f 560 561 595
f 560 595 596
f 560 596 562
f 561 597 596
f 561 596 595
f 561 593 598
f 561 598 597
f 562 596 563
f 563 596 570
f 563 570 564
f 564 570 569
f 565 570 599
f 565 599 567
f 565 567 566
f 567 599 600
f 567 600 568
f 568 600 599
f 568 599 571
f 570 596 597
f 570 597 599
f 571 599 598
f 571 598 601
f 571 601 602
f 571 602 572
f 574 603 604
f 574 604 575
f 578 605 579
f 579 605 606
f 579 606 607
f 579 607 589
f 579 589 588
f 579 588 587
f 583 608 584
f 584 608 610
f 584 610 627
f 584 627 609
f 585 609 612
f 585 612 613
f 585 613 604
f 585 604 611
f 589 607 614
f 589 614 615
f 589 615 616
f 589 616 590
f 590 616 617
f 590 617 594
f 590 594 591
f 591 594 592
f 593 594 618
f 593 618 598
f 594 617 619
f 594 619 620
f 594 620 621
f 594 621 622
f 594 622 618
f 597 598 599
f 598 618 622
f 598 622 623
f 598 623 624
f 598 624 601
f 603 625 604
f 604 625 611
f 606 626 607
f 607 626 614
f 609 627 628
f 609 628 629
f 609 629 630
f 609 630 631
f 609 631 612
f 614 626 632
f 614 632 615
f 615 632 619
f 615 619 616
f 616 619 617

