# https://github.com/mikedh/trimesh
v 0.00240038 0.00743707 -0.03120045
v 0.00096209 0.00694102 -0.03011285
v 0.00096209 0.00735747 -0.03112713
v -0.00012585 0.00735747 -0.03118823
v -0.00088188 0.00735747 -0.03112713
v -0.00693622 0.00735747 -0.03049168
v -0.00774756 0.00735747 -0.03033893
v -0.00791352 0.00735747 -0.03030227
v 0.03053925 0.00930797 0.01414262
v 0.00648168 0.00743707 -0.03078497
v 0.00756347 0.00743707 -0.03066276
v 0.00240038 0.00696964 -0.03002120
v 0.00240038 0.00585087 -0.02637958
v 0.00240038 0.00568382 -0.02583578
v 0.00096209 0.00562617 -0.02582967
v -0.00012585 0.00560892 -0.02582967
v -0.00012585 0.00662182 -0.02912913
v -0.00012585 0.00693160 -0.03013729
v -0.00121994 0.00694572 -0.03008841
v -0.00670880 0.00705670 -0.02973403
v -0.00732345 0.00706964 -0.02968515
v -0.00891541 0.00698141 -0.02889694
v -0.00980051 0.00703395 -0.02871975
v -0.01036599 0.00735747 -0.02939797
v 0.03054539 0.00930836 0.01826083
v 0.03147967 0.00743707 0.00052931
v 0.03147352 0.00743707 -0.00054606
v 0.03117234 0.00743707 -0.00388829
v 0.03038558 0.00743707 -0.00823868
v 0.03006597 0.00743707 -0.00935072
v 0.02781018 0.00743707 -0.01482538
v 0.02714021 0.00743707 -0.01594963
v 0.02639033 0.00743707 -0.01703112
v 0.02563431 0.00743707 -0.01810039
v 0.02294827 0.00743707 -0.02143040
v 0.02205702 0.00743707 -0.02253021
v 0.02186648 0.00743707 -0.02270130
v 0.01741023 0.00743707 -0.02620850
v 0.01529582 0.00743707 -0.02753439
v 0.01308307 0.00743707 -0.02851812
v 0.01082729 0.00743707 -0.02948351
v -0.01342082 0.00735747 -0.02810263
v -0.01477921 0.00735747 -0.02748551
v -0.01567045 0.00735747 -0.02705169
v -0.01697352 0.00735747 -0.02616573
v -0.01812907 0.00735747 -0.02532253
v -0.01943214 0.00735747 -0.02429604
v -0.02130683 0.00735747 -0.02281739
v -0.02188461 0.00735747 -0.02232247
v -0.02242550 0.00735747 -0.02177256
v -0.02497632 0.00735747 -0.01862586
v -0.02582454 0.00735747 -0.01748327
v 0.02259792 0.00930836 0.02495140
v 0.02807448 0.00930836 0.01849913
v 0.02830191 0.00930836 0.01826083
v 0.00867600 0.00696729 -0.02895193
v 0.00715780 0.00706650 -0.02969737
v 0.00648168 0.00705199 -0.02975236
v 0.00428122 0.00575950 -0.02583578
v 0.00538145 0.00548147 -0.02472985
v 0.00240038 0.00540344 -0.02472985
v 0.00096209 0.00537128 -0.02472374
v -0.00012585 0.00536344 -0.02472374
v -0.00121994 0.00537559 -0.02472374
v -0.00232017 0.00540108 -0.02472374
v -0.00121994 0.00563637 -0.02582967
v -0.00121994 0.00664926 -0.02912913
v -0.00557783 0.00584028 -0.02592132
v -0.00670880 0.00687121 -0.02912913
v -0.00774142 0.00695160 -0.02919023
v -0.00670880 0.00584146 -0.02572580
v -0.00781517 0.00589518 -0.02556083
v -0.01213619 0.00586420 -0.02366059
v -0.01441041 0.00699278 -0.02666064
v -0.01287993 0.00705944 -0.02752217
v 0.03054539 0.00930836 0.02035660
v 0.03054539 0.00915347 0.02035660
v 0.03054539 0.00912445 0.02024662
v 0.03054539 0.00887662 0.01923845
v 0.03054539 0.00885231 0.01912236
v 0.03054539 0.00869114 0.01826083
v 0.03112932 0.00743707 0.00439090
v 0.03036100 0.00699866 0.00052931
v 0.03036100 0.00699866 -0.00054606
v 0.03028724 0.00701984 -0.00165199
v 0.03015816 0.00705983 -0.00361945
v 0.02937141 0.00696258 -0.00714498
v 0.02924233 0.00700493 -0.00823868
v 0.02910096 0.00704846 -0.00899634
v 0.02790853 0.00707591 -0.01207583
v 0.02687591 0.00705592 -0.01443433
v 0.02597851 0.00700729 -0.01572967
v 0.02469389 0.00705513 -0.01767879
v 0.02265938 0.00701317 -0.02009839
v 0.02164520 0.00699278 -0.02124709
v 0.02130714 0.00707905 -0.02197420
v 0.01694310 0.00706807 -0.02530420
v 0.01637147 0.00701317 -0.02552417
v 0.01498850 0.00703160 -0.02652622
v 0.01272657 0.00704964 -0.02756494
v 0.01037244 0.00706768 -0.02859755
v -0.01514185 0.00704140 -0.02648956
v -0.01637116 0.00701396 -0.02552417
v -0.01831347 0.00706219 -0.02422271
v -0.02073521 0.00702023 -0.02219416
v -0.02180470 0.00701199 -0.02117988
v -0.02281888 0.00703317 -0.01999452
v -0.02382692 0.00705395 -0.01879083
v -0.02613187 0.00702689 -0.01563191
v -0.02671579 0.00735747 -0.01618182
v 0.02704186 0.00930836 0.02495140
v -0.02723825 0.00735747 -0.01538139
v -0.02785905 0.00735747 -0.01407994
v -0.02980750 0.00735747 -0.00935072
v -0.02984438 0.00735747 -0.00925907
v -0.03012097 0.00735747 -0.00848309
v -0.03017015 0.00735747 -0.00824479
v -0.03131340 0.00736688 0.00000996
v -0.03131340 0.00736688 0.00054153
v -0.03120891 0.00736688 0.00164135
v -0.03107984 0.00736688 0.00268618
v -0.03020703 0.00736688 0.00824026
v -0.02988126 0.00736688 0.00925454
v -0.02797583 0.00736688 0.01378824
v -0.02747796 0.00736688 0.01483307
v -0.02687560 0.00736688 0.01595732
v -0.02527750 0.00736688 0.01812641
v -0.02447230 0.00736688 0.01918957
v -0.02262834 0.00736688 0.02145642
v -0.02211818 0.00736688 0.02203077
v -0.02159572 0.00736688 0.02253791
v -0.02102409 0.00736688 0.02300227
v -0.01874373 0.00736688 0.02484141
v -0.01664776 0.00736688 0.02635672
v -0.01551064 0.00736688 0.02716325
v -0.01328560 0.00736688 0.02818975
v -0.01007095 0.00736688 0.02951564
v -0.00775986 0.00736688 0.03037106
v -0.00670880 0.00736688 0.03053603
v -0.00121994 0.00736688 0.03112871
v -0.00011970 0.00736688 0.03122036
v 0.00757577 0.00588067 -0.02560971
v 0.00754503 0.00694219 -0.02921467
v 0.00648168 0.00583204 -0.02576246
v 0.00538760 0.00583440 -0.02592743
v 0.00648168 0.00553049 -0.02472985
v 0.00757577 0.00538579 -0.02363003
v 0.00648168 0.00533834 -0.02363003
v 0.00206847 0.00539520 -0.02472374
v 0.00538145 0.00532501 -0.02363003
v -0.00121994 0.00530226 -0.02362392
v -0.00232017 0.00530658 -0.02362392
v -0.00562086 0.00532658 -0.02362392
v 0.00240038 0.00530697 -0.02363003
v 0.00206847 0.00530501 -0.02362392
v 0.00096209 0.00530305 -0.02362392
v -0.00670880 0.00534462 -0.02362392
v -0.00562086 0.00548814 -0.02472374
v -0.00452063 0.00576970 -0.02582967
v -0.00670880 0.00554774 -0.02472374
v -0.00781517 0.00565793 -0.02472374
v -0.01000949 0.00560382 -0.02362392
v -0.01220995 0.00555363 -0.02253021
v 0.03019504 0.00930836 0.02100427
v 0.03019504 0.00921112 0.02100427
v 0.02704186 0.00916367 0.02495140
v 0.02712177 0.00913347 0.02473754
v 0.02954351 0.00908093 0.02139532
v 0.02956195 0.00882799 0.02033827
v 0.02911325 0.00814842 0.01771703
v 0.03053925 0.00866800 0.01813863
v 0.03053925 0.00864094 0.01797366
v 0.03053925 0.00807861 0.01420983
v 0.02931609 0.00808920 0.01703881
v 0.03053925 0.00801587 0.01367826
v 0.03053925 0.00789588 0.01263954
v 0.03053925 0.00777039 0.01154583
v 0.03053925 0.00764373 0.01032992
v 0.03053925 0.00755001 0.00918733
v 0.03053925 0.00748256 0.00824637
v 0.02937141 0.00696258 0.00714045
v 0.03015816 0.00705983 0.00360270
v 0.03028724 0.00701984 0.00163524
v 0.02626740 0.00574068 0.00052931
v 0.02626740 0.00574068 -0.00054606
v 0.02516717 0.00553598 -0.00384552
v 0.02516717 0.00558029 -0.00493923
v 0.02516717 0.00562539 -0.00604516
v 0.02846171 0.00668730 -0.00714498
v 0.02846171 0.00677710 -0.00823868
v 0.02516717 0.00570695 -0.00714498
v 0.02577568 0.00595753 -0.00783542
v 0.02626740 0.00679749 -0.01373778
v 0.02355063 0.00596537 -0.01324286
v 0.02631043 0.00694964 -0.01481927
v 0.02527166 0.00688729 -0.01602906
v 0.02295441 0.00588028 -0.01365835
v 0.02186648 0.00561755 -0.01373778
v 0.02219224 0.00693749 -0.02031225
v 0.01925420 0.00594145 -0.01882749
v 0.02195253 0.00689827 -0.02041612
v 0.01852276 0.00587636 -0.01921243
v 0.01746555 0.00567480 -0.01923076
v 0.02057570 0.00700533 -0.02226137
v 0.01937098 0.00702611 -0.02327565
v 0.01746555 0.00589243 -0.02012283
v 0.01417101 0.00559284 -0.02143040
v 0.01376533 0.00594812 -0.02318400
v 0.01532656 0.00691749 -0.02590299
v 0.01307692 0.00589714 -0.02336119
v 0.01417101 0.00672809 -0.02583578
v 0.01417101 0.00697866 -0.02671564
v 0.01194596 0.00584734 -0.02368503
v -0.01551064 0.00694180 -0.02586633
v -0.01331633 0.00591557 -0.02328787
v -0.01331633 0.00571127 -0.02253021
v -0.01391869 0.00596302 -0.02313512
v -0.01770496 0.00571989 -0.01923687
v -0.02106097 0.00691867 -0.02150372
v -0.01940755 0.00596145 -0.01874195
v -0.01964727 0.00590302 -0.01813705
v -0.02214276 0.00693396 -0.02034891
v -0.02100565 0.00561362 -0.01483760
v -0.02545575 0.00692298 -0.01597407
v -0.02512384 0.00700572 -0.01684171
v -0.02634700 0.00696376 -0.01483760
v -0.02209974 0.00567676 -0.01373778
v -0.02295411 0.00589322 -0.01373778
v -0.02540043 0.00670809 -0.01483760
v 0.00096209 0.00736688 0.03114704
v 0.00166279 0.00736688 0.03107983
v 0.00240038 0.00736688 0.03098207
v -0.02718293 0.00703552 -0.01351170
v -0.02822169 0.00705317 -0.01115931
v -0.02926046 0.00707160 -0.00880692
v -0.02935880 0.00704062 -0.00824479
v -0.02949403 0.00699945 -0.00714498
v -0.03029922 0.00735747 -0.00748103
v -0.03103066 0.00735747 -0.00291067
v -0.03115974 0.00735747 -0.00186585
v -0.03127652 0.00735747 -0.00054606
v -0.03047133 0.00703513 -0.00054606
v -0.03047747 0.00703513 0.00000996
v -0.03047747 0.00703513 0.00054153
v -0.03036684 0.00706964 0.00227069
v -0.02949403 0.00699905 0.00713434
v -0.02936495 0.00704062 0.00824026
v -0.02926046 0.00707082 0.00880239
v -0.02718907 0.00703513 0.01350717
v -0.02703541 0.00710336 0.01422816
v -0.02634700 0.00696337 0.01483307
v -0.02613187 0.00702650 0.01562738
v -0.02485339 0.00708376 0.01757039
v -0.02383306 0.00705395 0.01878019
v -0.02281888 0.00703278 0.01998999
v -0.02181085 0.00701199 0.02116924
v -0.02073521 0.00701984 0.02218963
v -0.01953048 0.00704140 0.02321002
v -0.01831961 0.00706219 0.02422430
v -0.01637116 0.00701396 0.02551964
v -0.01514800 0.00704140 0.02648503
v -0.01288607 0.00705944 0.02752986
v -0.00980051 0.00703356 0.02871522
v -0.00892155 0.00698141 0.02890463
v -0.00731730 0.00706964 0.02968062
v -0.00670880 0.00705670 0.02972950
v -0.00562086 0.00703474 0.02980282
v -0.00232017 0.00696807 0.03002278
v -0.00121994 0.00694572 0.03008388
v -0.00011970 0.00693239 0.03013888
v 0.00096209 0.00694063 0.03010832
v 0.00757577 0.00562931 -0.02472985
v 0.00867600 0.00546618 -0.02363003
v 0.01087646 0.00542853 -0.02253021
v 0.00977623 0.00536030 -0.02253021
v 0.01197669 0.00534030 -0.02143040
v 0.00867600 0.00532501 -0.02253021
v 0.00757577 0.00531050 -0.02253021
v -0.01441656 0.00531246 -0.01923687
v -0.00781517 0.00531011 -0.02253021
v 0.02296671 0.00530462 -0.00604516
v -0.00121994 0.00530226 0.02362550
v -0.02319997 0.00530344 -0.00493923
v 0.01197669 0.00531168 -0.02033669
v -0.00891541 0.00533168 -0.02253021
v -0.01221610 0.00535481 -0.02143040
v -0.01000949 0.00537481 -0.02253021
v -0.00781517 0.00539951 -0.02362392
v -0.00891541 0.00549010 -0.02362392
v -0.01110972 0.00544775 -0.02253021
v -0.01331633 0.00545755 -0.02143040
v -0.01331633 0.00546226 -0.02145484
v 0.02626740 0.00884917 0.02473754
v 0.00725000 0.00703670 0.02958896
v 0.00867600 0.00703670 0.02911238
v 0.00977623 0.00703670 0.02873355
v 0.02625511 0.00890250 0.02495140
v 0.02578797 0.00815508 0.02208576
v 0.02846786 0.00806254 0.01810808
v 0.02186648 0.00561755 0.01373325
v 0.02597851 0.00700729 0.01573736
v 0.02846786 0.00786608 0.01703881
v 0.03020119 0.00814685 0.01560905
v 0.02907637 0.00703709 0.00897348
v 0.02963571 0.00802646 0.01596343
v 0.02355063 0.00596498 0.01324444
v 0.02924233 0.00700493 0.00824026
v 0.02846786 0.00668691 0.00714045
v 0.02516717 0.00562539 0.00603452
v 0.02887968 0.00678534 0.00652944
v 0.02516717 0.00553598 0.00382877
v 0.02516717 0.00549873 0.00273506
v 0.02516717 0.00546931 0.00163524
v 0.02516717 0.00544069 0.00052931
v 0.02516717 0.00544069 -0.00054606
v 0.02516717 0.00546931 -0.00165199
v 0.02516717 0.00549873 -0.00274570
v 0.02406694 0.00537207 -0.00604516
v 0.02406694 0.00542540 -0.00714498
v 0.02406694 0.00552500 -0.00823868
v 0.02406694 0.00564695 -0.00933850
v 0.02296671 0.00559323 -0.01153814
v 0.02367971 0.00592773 -0.01263796
v 0.02296671 0.00572774 -0.01263796
v 0.02186648 0.00545637 -0.01263796
v 0.02076625 0.00539598 -0.01373778
v 0.02076625 0.00555951 -0.01483149
v 0.01966601 0.00569950 -0.01703112
v 0.01964143 0.00588616 -0.01805762
v 0.01856578 0.00564578 -0.01813705
v 0.01746555 0.00544108 -0.01813705
v 0.01637147 0.00548774 -0.01923076
v 0.01527738 0.00553951 -0.02033669
v 0.01307692 0.00542226 -0.02143040
v 0.01307692 0.00567323 -0.02253021
v 0.01197669 0.00552892 -0.02253021
v 0.00977623 0.00557519 -0.02363003
v -0.01441656 0.00563833 -0.02143040
v -0.01550450 0.00557637 -0.02033669
v -0.01661088 0.00552539 -0.01923687
v -0.01770496 0.00548304 -0.01813705
v -0.01880519 0.00570146 -0.01813705
v -0.01870685 0.00590616 -0.01916355
v -0.01990542 0.00555676 -0.01593741
v -0.02100565 0.00543677 -0.01373778
v -0.02328602 0.00582263 -0.01268073
v -0.02659901 0.00690494 -0.01382332
v -0.02209974 0.00550853 -0.01263796
v 0.00240038 0.00696925 0.03001667
v 0.00571336 0.00703670 0.02980282
v 0.00705946 0.00703670 0.02961952
v -0.02525906 0.00585910 -0.00824479
v -0.02870112 0.00684769 -0.00824479
v -0.02549878 0.00581401 -0.00721219
v -0.02603967 0.00594655 -0.00689446
v -0.02870112 0.00675985 -0.00714498
v -0.02980135 0.00682808 -0.00054606
v -0.02980135 0.00687239 -0.00164588
v -0.03036069 0.00707003 -0.00227522
v -0.02540043 0.00569911 -0.00604516
v -0.02641461 0.00583244 -0.00164588
v -0.02706614 0.00597086 0.00000996
v -0.02706614 0.00597086 0.00009550
v -0.02659286 0.00584107 0.00049265
v -0.02540043 0.00556578 0.00273506
v -0.02540043 0.00569950 0.00604063
v -0.02870727 0.00675985 0.00713434
v -0.02603967 0.00594655 0.00688993
v -0.02549878 0.00581440 0.00720766
v -0.02870727 0.00684730 0.00824026
v -0.02430635 0.00558578 0.00824026
v -0.02659901 0.00690494 0.01381268
v -0.02329217 0.00582263 0.01267620
v -0.02540043 0.00670809 0.01483307
v -0.02546190 0.00692259 0.01596343
v -0.02512998 0.00700572 0.01683718
v -0.02296025 0.00589322 0.01373325
v -0.02211203 0.00567715 0.01373325
v -0.02319997 0.00697160 0.01917735
v -0.02214891 0.00693435 0.02034438
v -0.01941370 0.00596106 0.01873742
v -0.02106712 0.00691867 0.02148697
v -0.01828273 0.00596929 0.01980058
v -0.01393098 0.00596341 0.02311836
v -0.01551064 0.00694102 0.02586791
v -0.01330404 0.00571127 0.02253180
v -0.01221610 0.00555363 0.02253180
v -0.01441041 0.00699278 0.02666223
v -0.00781517 0.00589518 0.02555630
v -0.00772912 0.00695160 0.02918570
v -0.00670880 0.00584185 0.02572738
v -0.00557783 0.00583989 0.02591679
v -0.00670880 0.00687121 0.02912460
v -0.00121994 0.00563598 0.02582514
v -0.00011970 0.00560892 0.02582514
v 0.00096209 0.00562617 0.02582514
v 0.01417101 0.00538540 -0.02033669
v 0.01307692 0.00531364 -0.02033669
v 0.01087646 0.00531560 -0.02143040
v -0.01880519 0.00531403 -0.01483760
v -0.01770496 0.00535050 -0.01703723
v -0.01661088 0.00535834 -0.01813705
v -0.01331633 0.00532540 -0.02033669
v -0.01110972 0.00532030 -0.02143040
v -0.02100565 0.00531050 -0.01153814
v 0.01966601 0.00531364 -0.01373778
v 0.02186648 0.00531050 -0.00934461
v 0.02296671 0.00531442 -0.00714498
v 0.02406694 0.00532893 -0.00274570
v 0.02406694 0.00532187 -0.00165199
v 0.02406694 0.00531599 -0.00054606
v 0.02406694 0.00531599 0.00052931
v 0.02296671 0.00530501 0.00603452
v 0.00096209 0.00530344 0.02362550
v -0.00011970 0.00536344 0.02471921
v -0.00232017 0.00530658 0.02362550
v -0.00781517 0.00531050 0.02253180
v -0.01441041 0.00531246 0.01922623
v -0.02319997 0.00530344 0.00494081
v -0.02430020 0.00532658 -0.00054606
v -0.02319997 0.00531050 -0.00604516
v -0.01441656 0.00540736 -0.02033669
v 0.02373502 0.00812567 0.02437705
v 0.02409152 0.00804410 0.02364994
v 0.02477379 0.00813391 0.02329556
v 0.00647554 0.00583204 0.02575182
v 0.00754503 0.00694219 0.02921014
v 0.00867600 0.00696729 0.02894740
v 0.00984384 0.00703670 0.02870911
v 0.02281919 0.00808724 0.02495140
v 0.01276345 0.00703670 0.02750542
v 0.01499464 0.00703670 0.02652780
v 0.01498850 0.00703199 0.02652169
v 0.02737378 0.00782215 0.01826083
v 0.02186648 0.00545637 0.01263343
v 0.02296671 0.00572813 0.01263343
v 0.02295441 0.00588028 0.01365382
v 0.02465086 0.00703709 0.01764371
v 0.01966601 0.00569911 0.01703270
v 0.02076625 0.00555951 0.01483307
v 0.02076625 0.00539598 0.01373325
v 0.02846786 0.00677749 0.00824026
v 0.02683288 0.00703709 0.01438703
v 0.02491516 0.00588969 0.00934008
v 0.02406694 0.00564695 0.00934008
v 0.02296671 0.00559323 0.01153361
v 0.02367971 0.00592773 0.01263343
v 0.02516717 0.00570695 0.00714045
v 0.02406694 0.00542579 0.00714045
v 0.02406694 0.00537207 0.00603452
v 0.02406694 0.00535559 0.00492248
v 0.02406694 0.00534187 0.00382877
v 0.02406694 0.00532893 0.00273506
v 0.02406694 0.00532187 0.00163524
v 0.02406694 0.00534187 -0.00384552
v 0.02406694 0.00535559 -0.00493923
v 0.02296671 0.00533952 -0.00823868
v 0.02296671 0.00539402 -0.00933850
v 0.02296671 0.00548108 -0.01043832
v 0.02219224 0.00549716 -0.01232023
v 0.02219224 0.00540265 -0.01122041
v 0.02186648 0.00536932 -0.01153814
v 0.02076625 0.00532030 -0.01263796
v 0.01746555 0.00532658 -0.01703112
v 0.01856578 0.00545559 -0.01703112
v 0.01637147 0.00533912 -0.01813705
v -0.01550450 0.00537912 -0.01923687
v -0.01880519 0.00537167 -0.01593741
v -0.01880519 0.00550539 -0.01703723
v -0.01990542 0.00539442 -0.01483760
v -0.02100565 0.00534187 -0.01263796
v -0.02209974 0.00540226 -0.01153814
v -0.02319997 0.00566225 -0.01153814
v -0.02319997 0.00553794 -0.01043832
v 0.00318099 0.00571519 0.02582514
v 0.00428122 0.00575950 0.02582514
v 0.00538145 0.00583401 0.02592290
v -0.02430020 0.00558578 -0.00824479
v -0.02430020 0.00547598 -0.00714498
v -0.02659286 0.00584107 -0.00049107
v -0.02540043 0.00556578 -0.00274570
v -0.02430020 0.00541520 -0.00604516
v -0.02540043 0.00548853 -0.00054606
v -0.02540043 0.00548853 0.00000996
v -0.02540043 0.00548892 0.00054153
v -0.02540043 0.00552382 0.00164135
v -0.02430635 0.00541520 0.00604063
v -0.02430635 0.00547637 0.00713434
v -0.02319997 0.00553755 0.01043379
v -0.02319997 0.00566225 0.01153361
v -0.02211203 0.00550892 0.01263343
v -0.02100565 0.00543716 0.01373325
v -0.02100565 0.00561402 0.01483307
v -0.01965341 0.00590263 0.01812641
v -0.01880519 0.00570185 0.01812641
v -0.01870685 0.00590616 0.01915291
v -0.01770496 0.00571989 0.01922623
v -0.01441041 0.00563833 0.02142587
v -0.01330404 0.00545716 0.02142587
v -0.01110972 0.00544775 0.02253180
v -0.00892155 0.00549010 0.02362550
v -0.00781517 0.00565754 0.02471921
v -0.00670880 0.00554774 0.02471921
v -0.00562086 0.00548814 0.02471921
v -0.00452063 0.00576930 0.02582514
v -0.00232017 0.00540148 0.02471921
v 0.00096209 0.00537128 0.02471921
v -0.00121994 0.00537599 0.02471921
v 0.00206847 0.00539520 0.02471921
v 0.00240038 0.00540344 0.02471921
v 0.00537530 0.00548147 0.02471921
v -0.01990542 0.00531795 -0.01373778
v -0.02209974 0.00531716 -0.00934461
v -0.02209974 0.00534383 -0.01043832
v 0.02186648 0.00532893 -0.01044443
v 0.02296671 0.00531442 0.00714045
v 0.02186648 0.00531011 0.00934008
v 0.01966601 0.00531364 0.01373325
v 0.01636532 0.00531325 0.01703270
v 0.01197054 0.00531168 0.02033216
v 0.00206847 0.00530501 0.02362550
v -0.00562086 0.00532658 0.02362550
v 0.00240038 0.00530697 0.02362550
v 0.00537530 0.00532462 0.02362550
v -0.00670880 0.00534462 0.02362550
v -0.00892155 0.00533168 0.02253180
v -0.01110972 0.00532069 0.02142587
v -0.01330404 0.00532540 0.02032605
v -0.01661088 0.00535834 0.01812641
v -0.01770496 0.00535089 0.01702659
v -0.01880519 0.00531442 0.01483918
v -0.02100565 0.00531089 0.01153361
v -0.02319997 0.00531089 0.00604063
v -0.02430635 0.00532697 0.00054153
v -0.02430020 0.00532658 0.00000996
v -0.02430020 0.00533795 -0.00164588
v -0.02430635 0.00532697 0.00000996
v -0.02430020 0.00536540 -0.00384552
v -0.02319997 0.00532697 -0.00714498
v 0.02294212 0.00805940 0.02474365
v 0.02121494 0.00703670 0.02188413
v 0.01925420 0.00594145 0.01882907
v 0.02406694 0.00781745 0.02253791
v 0.00647554 0.00552970 0.02471921
v 0.00757577 0.00588067 0.02560518
v 0.00977623 0.00683396 0.02803089
v 0.01532041 0.00691749 0.02589846
v 0.01636532 0.00701356 0.02551964
v 0.01661118 0.00703670 0.02542798
v 0.01799416 0.00703670 0.02437705
v 0.01820314 0.00703670 0.02421818
v 0.00977623 0.00557519 0.02362550
v 0.01193981 0.00584694 0.02368050
v 0.01417101 0.00697827 0.02671111
v 0.01417101 0.00672848 0.02582514
v 0.01307692 0.00589675 0.02335055
v 0.01376533 0.00594773 0.02317947
v 0.02186648 0.00536932 0.01153361
v 0.02296671 0.00539402 0.00934008
v 0.02296671 0.00548108 0.01043379
v 0.01963528 0.00588616 0.01805920
v 0.01856578 0.00564578 0.01813252
v 0.01856578 0.00545598 0.01703270
v 0.01746555 0.00532618 0.01703270
v 0.02076625 0.00532030 0.01263343
v 0.02576953 0.00595792 0.00783089
v 0.02406694 0.00552500 0.00824026
v 0.02296671 0.00533912 0.00824026
v -0.02319997 0.00536540 -0.00824479
v -0.02319997 0.00543598 -0.00934461
v -0.02540043 0.00552343 -0.00164588
v -0.02430020 0.00538579 -0.00493923
v -0.02430635 0.00533795 0.00164135
v -0.02430635 0.00536540 0.00383488
v -0.02430635 0.00538618 0.00494081
v -0.02319997 0.00532697 0.00713434
v -0.02319997 0.00536579 0.00824026
v -0.02319997 0.00543598 0.00934008
v -0.02211203 0.00540226 0.01153361
v -0.02100565 0.00534187 0.01263343
v -0.01990542 0.00539442 0.01483918
v -0.01880519 0.00550539 0.01702659
v -0.01990542 0.00555676 0.01593288
v -0.01770496 0.00548304 0.01812641
v -0.01661088 0.00552539 0.01922623
v -0.01550450 0.00557637 0.02032605
v -0.01441041 0.00540736 0.02032605
v -0.01221610 0.00535520 0.02142587
v -0.01000949 0.00537481 0.02253180
v -0.00781517 0.00539991 0.02362550
v 0.00647554 0.00533834 0.02362550
v 0.00757577 0.00538579 0.02362550
v 0.02186648 0.00532893 0.01043379
v 0.01307692 0.00531364 0.02033216
v 0.00757577 0.00531050 0.02252569
v -0.01550450 0.00537873 0.01922623
v -0.01880519 0.00537167 0.01593288
v -0.01990542 0.00531795 0.01373936
v -0.02211203 0.00534383 0.01043379
v -0.02211203 0.00531756 0.00934008
v 0.01746555 0.00567441 0.01923234
v 0.02088918 0.00703670 0.02214686
v 0.01852276 0.00587636 0.01920790
v 0.00867600 0.00546657 0.02362550
v 0.00757577 0.00562931 0.02471921
v 0.01417101 0.00559284 0.02143198
v 0.01197054 0.00552853 0.02252569
v 0.01307692 0.00567323 0.02252569
v 0.01746555 0.00544108 0.01813252
v 0.01636532 0.00533912 0.01813252
v 0.00867600 0.00532462 0.02252569
v 0.01197054 0.00534069 0.02143198
v 0.00977623 0.00536030 0.02252569
v 0.01087646 0.00542853 0.02252569
v 0.01087646 0.00531560 0.02143198
v 0.01417101 0.00538540 0.02033216
v 0.01636532 0.00548814 0.01923234
v 0.01527124 0.00553951 0.02033216
v 0.01307692 0.00542265 0.02143198
f 1 2 3
f 1 3 4
f 1 4 5
f 1 5 6
f 1 6 7
f 1 7 8
f 1 8 9
f 1 9 10
f 1 10 2
f 2 10 11
f 2 11 12
f 2 12 13
f 2 13 14
f 2 14 15
f 2 15 16
f 2 16 17
f 2 17 18
f 2 18 4
f 2 4 3
f 4 18 19
f 4 19 5
f 5 19 6
f 6 20 21
f 6 21 7
f 6 19 20
f 7 21 8
f 8 21 22
f 8 22 23
f 8 23 24
f 8 24 9
f 9 25 26
f 9 26 27
f 9 27 28
f 9 28 29
f 9 29 30
f 9 30 31
f 9 31 32
f 9 32 33
f 9 33 34
f 9 34 35
f 9 35 36
f 9 36 37
f 9 37 38
f 9 38 39
f 9 39 40
f 9 40 41
f 9 41 11
f 9 11 10
f 9 24 42
f 9 42 43
f 9 43 44
f 9 44 45
f 9 45 46
f 9 46 47
f 9 47 48
f 9 48 49
f 9 49 50
f 9 50 51
f 9 51 52
f 9 52 53
f 9 53 54
f 9 54 55
f 9 55 25
f 11 56 57
f 11 57 58
f 11 58 12
f 11 41 56
f 12 58 59
f 12 59 13
f 13 59 14
f 14 59 60
f 14 60 15
f 15 60 61
f 15 61 62
f 15 62 16
f 16 63 64
f 16 64 65
f 16 65 66
f 16 66 67
f 16 67 17
f 16 62 63
f 17 67 18
f 18 67 19
f 19 67 20
f 20 68 69
f 20 69 21
f 20 67 68
f 21 70 22
f 21 69 68
f 21 68 71
f 21 71 70
f 22 70 72
f 22 72 23
f 23 73 74
f 23 74 75
f 23 75 24
f 23 72 73
f 24 75 42
f 25 76 26
f 25 55 54
f 25 54 53
f 25 53 111
f 25 111 164
f 25 164 76
f 26 77 78
f 26 78 79
f 26 79 80
f 26 80 81
f 26 81 82
f 26 82 83
f 26 83 84
f 26 84 27
f 26 76 77
f 27 84 28
f 28 84 85
f 28 85 86
f 28 86 87
f 28 87 29
f 29 87 88
f 29 88 30
f 30 88 89
f 30 89 31
f 31 89 90
f 31 90 91
f 31 91 92
f 31 92 32
f 32 92 33
f 33 92 34
f 34 92 93
f 34 93 94
f 34 94 35
f 35 94 36
f 36 94 95
f 36 95 96
f 36 96 37
f 37 96 38
f 38 97 98
f 38 98 99
f 38 99 39
f 38 96 97
f 39 99 40
f 40 100 41
f 40 99 100
f 41 100 101
f 41 101 56
f 42 75 102
f 42 102 43
f 43 102 44
f 44 102 45
f 45 102 103
f 45 103 46
f 46 103 104
f 46 104 105
f 46 105 47
f 47 105 48
f 48 105 49
f 49 105 106
f 49 106 50
f 50 106 51
f 51 106 107
f 51 107 108
f 51 108 109
f 51 109 52
f 52 109 110
f 52 110 53
f 53 110 112
f 53 112 113
f 53 113 114
f 53 114 115
f 53 115 116
f 53 116 117
f 53 117 118
f 53 118 119
f 53 119 120
f 53 120 121
f 53 121 122
f 53 122 123
f 53 123 124
f 53 124 125
f 53 125 126
f 53 126 127
f 53 127 128
f 53 128 129
f 53 129 130
f 53 130 131
f 53 131 132
f 53 132 133
f 53 133 134
f 53 134 135
f 53 135 136
f 53 136 137
f 53 137 138
f 53 138 139
f 53 139 140
f 53 140 141
f 53 141 111
f 56 142 143
f 56 143 57
f 56 101 100
f 56 100 142
f 57 143 144
f 57 144 58
f 58 144 145
f 58 145 59
f 59 145 144
f 59 144 60
f 60 144 146
f 60 146 147
f 60 147 148
f 60 148 61
f 61 149 62
f 61 148 149
f 62 149 148
f 62 148 150
f 62 150 63
f 63 151 152
f 63 152 153
f 63 153 64
f 63 150 154
f 63 154 155
f 63 155 156
f 63 156 151
f 64 153 157
f 64 157 65
f 65 157 158
f 65 158 66
f 66 158 159
f 66 159 68
f 66 68 67
f 68 159 158
f 68 158 71
f 70 71 160
f 70 160 72
f 71 158 160
f 72 160 161
f 72 161 162
f 72 162 73
f 73 162 163
f 73 163 74
f 74 163 102
f 74 102 75
f 76 164 165
f 76 165 77
f 77 165 166
f 77 166 167
f 77 167 168
f 77 168 78
f 78 168 79
f 79 168 169
f 79 169 170
f 79 170 80
f 80 170 81
f 81 171 172
f 81 172 173
f 81 173 82
f 81 170 174
f 81 174 171
f 82 173 175
f 82 175 176
f 82 176 177
f 82 177 178
f 82 178 179
f 82 179 180
f 82 180 181
f 82 181 182
f 82 182 183
f 82 183 83
f 83 183 184
f 83 184 185
f 83 185 84
f 84 185 85
f 85 185 186
f 85 186 86
f 86 186 187
f 86 187 188
f 86 188 87
f 87 189 88
f 87 188 189
f 88 190 89
f 88 189 191
f 88 191 190
f 89 190 192
f 89 192 193
f 89 193 91
f 89 91 90
f 91 193 194
f 91 194 195
f 91 195 92
f 92 196 93
f 92 195 194
f 92 194 197
f 92 197 198
f 92 198 196
f 93 199 94
f 93 196 198
f 93 198 199
f 94 199 95
f 95 200 96
f 95 199 201
f 95 201 200
f 96 200 202
f 96 202 203
f 96 203 204
f 96 204 205
f 96 205 97
f 97 205 98
f 98 205 206
f 98 206 207
f 98 207 208
f 98 208 209
f 98 209 99
f 99 209 208
f 99 208 210
f 99 210 211
f 99 211 212
f 99 212 100
f 100 213 142
f 100 212 213
f 102 214 103
f 102 163 215
f 102 215 216
f 102 216 217
f 102 217 214
f 103 214 217
f 103 217 218
f 103 218 105
f 103 105 104
f 105 219 106
f 105 218 219
f 106 219 220
f 106 220 221
f 106 221 222
f 106 222 107
f 107 222 223
f 107 223 108
f 108 223 224
f 108 224 225
f 108 225 109
f 109 226 112
f 109 112 110
f 109 225 224
f 109 224 227
f 109 227 228
f 109 228 229
f 109 229 226
f 111 166 165
f 111 165 164
f 111 141 230
f 111 230 231
f 111 231 232
f 111 232 166
f 112 226 113
f 113 226 233
f 113 233 234
f 113 234 235
f 113 235 114
f 114 235 115
f 115 235 116
f 116 235 236
f 116 236 237
f 116 237 117
f 117 238 118
f 117 237 238
f 118 238 239
f 118 239 240
f 118 240 241
f 118 241 242
f 118 242 243
f 118 243 244
f 118 244 119
f 119 244 120
f 120 244 245
f 120 245 121
f 121 245 246
f 121 246 122
f 122 246 247
f 122 247 123
f 123 247 248
f 123 248 249
f 123 249 124
f 124 249 250
f 124 250 125
f 125 250 251
f 125 251 252
f 125 252 126
f 126 252 127
f 127 252 253
f 127 253 128
f 128 253 254
f 128 254 255
f 128 255 256
f 128 256 129
f 129 256 130
f 130 256 131
f 131 256 257
f 131 257 132
f 132 257 133
f 133 257 258
f 133 258 259
f 133 259 260
f 133 260 261
f 133 261 134
f 134 261 135
f 135 261 136
f 136 261 262
f 136 262 137
f 137 262 263
f 137 263 264
f 137 264 138
f 138 264 265
f 138 265 139
f 139 265 266
f 139 266 267
f 139 267 268
f 139 268 140
f 140 268 269
f 140 269 141
f 141 269 270
f 141 270 271
f 141 271 230
f 142 272 146
f 142 146 144
f 142 144 143
f 142 213 272
f 146 272 273
f 146 273 147
f 147 273 274
f 147 274 275
f 147 275 148
f 148 275 276
f 148 276 277
f 148 277 278
f 148 278 150
f 150 278 154
f 151 279 280
f 151 280 152
f 151 156 281
f 151 281 282
f 151 282 419
f 151 419 283
f 151 283 279
f 152 280 153
f 153 280 157
f 154 278 155
f 155 278 156
f 156 278 284
f 156 284 281
f 157 280 285
f 157 285 286
f 157 286 287
f 157 287 288
f 157 288 158
f 158 288 160
f 160 288 289
f 160 289 161
f 161 289 162
f 162 289 163
f 163 289 290
f 163 290 291
f 163 291 292
f 163 292 216
f 163 216 215
f 166 293 167
f 166 232 294
f 166 294 295
f 166 295 296
f 166 296 297
f 166 297 293
f 167 293 168
f 168 293 169
f 169 293 170
f 170 293 298
f 170 298 299
f 170 299 300
f 170 300 301
f 170 301 302
f 170 302 174
f 171 174 172
f 172 174 303
f 172 303 173
f 173 303 304
f 173 304 175
f 174 305 303
f 174 302 306
f 174 306 305
f 175 304 176
f 176 304 177
f 177 304 307
f 177 307 178
f 178 307 179
f 179 307 181
f 179 181 180
f 181 307 308
f 181 308 309
f 181 309 310
f 181 310 182
f 182 310 183
f 183 310 311
f 183 311 184
f 184 311 312
f 184 312 313
f 184 313 314
f 184 314 315
f 184 315 185
f 185 315 316
f 185 316 317
f 185 317 186
f 186 317 318
f 186 318 187
f 187 318 188
f 188 318 319
f 188 319 191
f 188 191 189
f 190 191 192
f 191 319 320
f 191 320 321
f 191 321 192
f 192 321 193
f 193 321 322
f 193 322 323
f 193 323 194
f 194 323 322
f 194 322 324
f 194 324 198
f 194 198 197
f 198 325 326
f 198 326 327
f 198 327 328
f 198 328 329
f 198 329 199
f 198 324 325
f 199 329 201
f 200 201 329
f 200 329 330
f 200 330 202
f 202 330 203
f 203 206 204
f 203 330 331
f 203 331 332
f 203 332 333
f 203 333 207
f 203 207 206
f 204 206 205
f 207 333 334
f 207 334 335
f 207 335 208
f 208 335 210
f 210 335 336
f 210 336 213
f 210 213 211
f 211 213 212
f 213 337 272
f 213 336 337
f 216 292 338
f 216 338 217
f 217 338 218
f 218 338 339
f 218 339 340
f 218 340 341
f 218 341 342
f 218 342 343
f 218 343 219
f 219 343 220
f 220 342 221
f 220 343 342
f 221 342 223
f 221 223 222
f 223 342 344
f 223 344 345
f 223 345 227
f 223 227 224
f 226 229 346
f 226 346 347
f 226 347 233
f 227 345 348
f 227 348 228
f 228 348 346
f 228 346 229
f 230 271 231
f 231 271 349
f 231 349 350
f 231 350 232
f 232 350 351
f 232 351 294
f 233 347 234
f 234 347 352
f 234 352 235
f 235 352 353
f 235 353 236
f 236 353 354
f 236 354 355
f 236 355 356
f 236 356 237
f 237 357 358
f 237 358 359
f 237 359 239
f 237 239 238
f 237 356 360
f 237 360 361
f 237 361 357
f 239 359 240
f 240 359 242
f 240 242 241
f 242 359 357
f 242 357 362
f 242 362 243
f 243 362 363
f 243 363 244
f 244 363 364
f 244 364 245
f 245 364 365
f 245 365 366
f 245 366 246
f 246 367 247
f 246 366 367
f 247 367 368
f 247 368 369
f 247 369 370
f 247 370 248
f 248 370 371
f 248 371 249
f 249 372 251
f 249 251 250
f 249 371 373
f 249 373 372
f 251 372 373
f 251 373 374
f 251 374 252
f 252 375 376
f 252 376 254
f 252 254 253
f 252 374 377
f 252 377 378
f 252 378 375
f 254 379 255
f 254 376 379
f 255 379 380
f 255 380 256
f 256 381 382
f 256 382 257
f 256 380 381
f 257 382 383
f 257 383 258
f 258 383 384
f 258 384 259
f 259 384 260
f 260 385 261
f 260 384 385
f 261 385 384
f 261 384 386
f 261 386 387
f 261 387 388
f 261 388 262
f 262 388 387
f 262 387 264
f 262 264 263
f 264 387 389
f 264 389 390
f 264 390 265
f 265 390 391
f 265 391 392
f 265 392 393
f 265 393 266
f 266 393 392
f 266 392 267
f 267 392 268
f 268 394 269
f 268 392 394
f 269 394 270
f 270 395 396
f 270 396 271
f 270 394 395
f 271 396 349
f 272 337 273
f 273 337 336
f 273 336 274
f 274 336 334
f 274 334 276
f 274 276 275
f 276 334 397
f 276 397 398
f 276 398 399
f 276 399 277
f 277 399 278
f 278 399 398
f 278 398 284
f 279 400 401
f 279 401 402
f 279 402 403
f 279 403 404
f 279 404 280
f 279 283 405
f 279 405 400
f 280 404 285
f 281 284 398
f 281 398 406
f 281 406 407
f 281 407 408
f 281 408 409
f 281 409 410
f 281 410 411
f 281 411 412
f 281 412 413
f 281 413 282
f 282 414 415
f 282 415 416
f 282 416 417
f 282 417 418
f 282 418 419
f 282 413 414
f 283 419 535
f 283 535 420
f 283 420 421
f 283 421 405
f 285 404 286
f 286 403 422
f 286 422 291
f 286 291 290
f 286 290 287
f 286 404 403
f 287 290 288
f 288 290 289
f 291 422 292
f 292 422 340
f 292 340 339
f 292 339 338
f 293 297 423
f 293 423 424
f 293 424 425
f 293 425 298
f 294 351 426
f 294 426 427
f 294 427 428
f 294 428 295
f 295 428 296
f 296 428 429
f 296 429 297
f 297 430 423
f 297 429 431
f 297 431 432
f 297 432 433
f 297 433 430
f 298 425 299
f 299 425 434
f 299 434 300
f 300 435 436
f 300 436 306
f 300 306 437
f 300 437 301
f 300 434 438
f 300 438 439
f 300 439 440
f 300 440 441
f 300 441 435
f 301 437 306
f 301 306 302
f 303 305 304
f 304 442 307
f 304 305 443
f 304 443 444
f 304 444 445
f 304 445 442
f 305 306 443
f 306 436 446
f 306 446 447
f 306 447 443
f 307 442 448
f 307 448 308
f 308 448 309
f 309 448 449
f 309 449 450
f 309 450 311
f 309 311 310
f 311 450 312
f 312 450 313
f 313 450 314
f 314 450 451
f 314 451 452
f 314 452 453
f 314 453 454
f 314 454 412
f 314 412 411
f 314 411 315
f 315 411 410
f 315 410 409
f 315 409 455
f 315 455 456
f 315 456 318
f 315 318 316
f 316 318 317
f 318 456 408
f 318 408 457
f 318 457 319
f 319 457 458
f 319 458 459
f 319 459 320
f 320 459 322
f 320 322 321
f 322 459 460
f 322 460 324
f 324 460 325
f 325 460 459
f 325 459 461
f 325 461 462
f 325 462 326
f 326 462 463
f 326 463 464
f 326 464 465
f 326 465 327
f 327 465 330
f 327 330 328
f 328 330 329
f 330 465 331
f 331 465 464
f 331 464 466
f 331 466 397
f 331 397 334
f 331 334 332
f 332 334 333
f 334 336 335
f 340 422 341
f 341 422 467
f 341 467 402
f 341 402 401
f 341 401 468
f 341 468 469
f 341 469 342
f 342 469 344
f 344 469 345
f 345 469 470
f 345 470 471
f 345 471 472
f 345 472 348
f 346 348 473
f 346 473 347
f 347 473 352
f 348 472 474
f 348 474 473
f 349 475 350
f 349 396 475
f 350 475 476
f 350 476 477
f 350 477 351
f 351 477 426
f 352 354 353
f 352 473 478
f 352 478 354
f 354 478 479
f 354 479 360
f 354 360 355
f 355 360 356
f 357 361 480
f 357 480 362
f 357 359 358
f 360 481 361
f 360 479 482
f 360 482 481
f 361 481 480
f 362 480 483
f 362 483 484
f 362 484 363
f 363 484 485
f 363 485 364
f 364 485 486
f 364 486 365
f 365 486 487
f 365 487 366
f 366 369 368
f 366 368 367
f 366 487 488
f 366 488 369
f 369 488 371
f 369 371 370
f 371 488 489
f 371 489 490
f 371 490 373
f 373 490 491
f 373 491 377
f 373 377 374
f 375 378 379
f 375 379 376
f 377 491 378
f 378 491 492
f 378 492 493
f 378 493 494
f 378 494 379
f 379 494 380
f 380 494 381
f 381 494 495
f 381 495 496
f 381 496 382
f 382 496 497
f 382 497 383
f 383 497 498
f 383 498 384
f 384 498 386
f 386 498 499
f 386 499 387
f 387 500 501
f 387 501 502
f 387 502 389
f 387 499 500
f 389 502 503
f 389 503 391
f 389 391 390
f 391 503 504
f 391 504 392
f 392 504 505
f 392 505 394
f 394 505 504
f 394 504 506
f 394 506 395
f 395 415 507
f 395 507 396
f 395 506 508
f 395 508 415
f 396 507 509
f 396 509 510
f 396 510 511
f 396 511 475
f 397 466 398
f 398 466 464
f 398 464 406
f 400 405 512
f 400 512 401
f 401 512 468
f 402 467 403
f 403 467 422
f 405 421 513
f 405 513 514
f 405 514 471
f 405 471 512
f 406 464 463
f 406 463 407
f 407 463 408
f 408 456 455
f 408 455 409
f 408 463 515
f 408 515 457
f 412 454 413
f 413 454 453
f 413 453 516
f 413 516 517
f 413 517 518
f 413 518 519
f 413 519 520
f 413 520 414
f 414 521 415
f 414 520 521
f 415 508 522
f 415 522 416
f 415 521 523
f 415 523 524
f 415 524 507
f 416 522 417
f 417 522 525
f 417 525 526
f 417 526 527
f 417 527 418
f 418 527 528
f 418 528 529
f 418 529 530
f 418 530 531
f 418 531 532
f 418 532 419
f 419 532 533
f 419 533 534
f 419 534 535
f 420 536 421
f 420 535 534
f 420 534 537
f 420 537 483
f 420 483 536
f 421 536 538
f 421 538 539
f 421 539 513
f 423 430 540
f 423 540 541
f 423 541 542
f 423 542 424
f 424 542 425
f 425 542 543
f 425 543 438
f 425 438 434
f 426 477 544
f 426 544 545
f 426 545 427
f 427 545 428
f 428 546 429
f 428 545 546
f 429 546 431
f 430 433 547
f 430 547 548
f 430 548 549
f 430 549 550
f 430 550 551
f 430 551 540
f 431 546 545
f 431 545 552
f 431 552 553
f 431 553 554
f 431 554 433
f 431 433 432
f 433 554 555
f 433 555 556
f 433 556 557
f 433 557 547
f 435 441 558
f 435 558 559
f 435 559 560
f 435 560 446
f 435 446 436
f 438 543 439
f 439 561 562
f 439 562 440
f 439 543 561
f 440 562 563
f 440 563 441
f 441 563 564
f 441 564 565
f 441 565 558
f 442 445 566
f 442 566 448
f 443 447 446
f 443 446 445
f 443 445 444
f 445 446 567
f 445 567 448
f 445 448 566
f 446 560 567
f 448 567 449
f 449 567 560
f 449 560 559
f 449 559 568
f 449 568 450
f 450 568 516
f 450 516 451
f 451 516 452
f 452 516 453
f 457 515 462
f 457 462 458
f 458 462 461
f 458 461 459
f 462 515 463
f 468 512 470
f 468 470 469
f 470 512 471
f 471 514 472
f 472 514 569
f 472 569 570
f 472 570 474
f 473 474 478
f 474 570 479
f 474 479 478
f 475 511 476
f 476 511 477
f 477 511 544
f 479 570 569
f 479 569 482
f 480 481 571
f 480 571 483
f 481 482 571
f 482 569 539
f 482 539 572
f 482 572 483
f 482 483 571
f 483 572 538
f 483 538 536
f 483 537 534
f 483 534 484
f 484 534 485
f 485 534 573
f 485 573 574
f 485 574 575
f 485 575 487
f 485 487 486
f 487 576 577
f 487 577 488
f 487 575 576
f 488 577 578
f 488 578 489
f 489 578 579
f 489 579 491
f 489 491 490
f 491 579 492
f 492 579 580
f 492 580 581
f 492 581 582
f 492 582 583
f 492 583 493
f 493 583 494
f 494 583 495
f 495 582 584
f 495 584 497
f 495 497 496
f 495 583 582
f 497 584 585
f 497 585 586
f 497 586 498
f 498 586 499
f 499 586 585
f 499 585 587
f 499 587 588
f 499 588 500
f 500 588 589
f 500 589 590
f 500 590 501
f 501 590 503
f 501 503 502
f 503 590 504
f 504 590 525
f 504 525 506
f 506 525 508
f 507 524 591
f 507 591 509
f 508 525 522
f 509 591 510
f 510 591 511
f 511 591 592
f 511 592 544
f 513 539 514
f 514 539 569
f 516 568 593
f 516 593 565
f 516 565 517
f 517 565 518
f 518 565 564
f 518 564 519
f 519 564 594
f 519 594 520
f 520 594 595
f 520 595 521
f 521 595 523
f 523 595 524
f 524 595 591
f 525 590 589
f 525 589 588
f 525 588 526
f 526 588 527
f 527 588 528
f 528 587 596
f 528 596 529
f 528 588 587
f 529 596 584
f 529 584 530
f 530 584 597
f 530 597 598
f 530 598 531
f 531 598 532
f 532 598 580
f 532 580 599
f 532 599 600
f 532 600 533
f 533 600 576
f 533 576 574
f 533 574 573
f 533 573 534
f 538 572 539
f 540 551 601
f 540 601 602
f 540 602 541
f 541 602 601
f 541 601 603
f 541 603 542
f 542 603 562
f 542 562 561
f 542 561 543
f 544 592 604
f 544 604 605
f 544 605 545
f 545 605 552
f 547 557 548
f 548 557 549
f 549 557 550
f 550 557 551
f 551 557 606
f 551 606 601
f 552 604 607
f 552 607 553
f 552 605 604
f 553 607 556
f 553 556 555
f 553 555 554
f 556 607 608
f 556 608 557
f 557 608 606
f 558 565 593
f 558 593 568
f 558 568 559
f 562 603 601
f 562 601 609
f 562 609 563
f 563 609 564
f 564 609 610
f 564 610 594
f 574 576 575
f 576 600 599
f 576 599 577
f 577 599 579
f 577 579 578
f 579 599 580
f 580 598 581
f 581 598 597
f 581 597 584
f 581 584 582
f 584 596 587
f 584 587 585
f 591 595 611
f 591 611 612
f 591 612 613
f 591 613 592
f 592 613 614
f 592 614 604
f 594 612 615
f 594 615 595
f 594 610 616
f 594 616 612
f 595 615 611
f 601 617 609
f 601 606 618
f 601 618 617
f 604 614 607
f 606 608 619
f 606 619 618
f 607 619 608
f 607 614 619
f 609 617 619
f 609 619 616
f 609 616 610
f 611 615 612
f 612 616 619
f 612 619 614
f 612 614 613
f 617 618 619

