# https://github.com/mikedh/trimesh
v -0.01118693 0.01006104 0.03943673
v -0.01318173 0.01006104 0.03865316
v -0.01124218 0.00736868 0.03930935
v -0.01118693 0.00755568 0.03933637
v -0.01118693 0.01006104 0.03815522
v -0.01310321 0.00872212 0.03862228
v -0.01600818 0.01006104 0.03748359
v -0.01303633 0.00762388 0.03859140
v -0.01302180 0.00736868 0.03858368
v -0.02030020 0.00611996 0.03542238
v -0.02057645 0.00582603 0.03525254
v -0.02030020 0.00575432 0.03531816
v -0.01118693 0.00736868 0.03932865
v -0.01118693 0.00986084 0.03353486
v -0.01221922 0.01001836 0.03353486
v -0.01451353 0.01006104 0.03253513
v -0.01771801 0.00736868 0.03664212
v -0.01546441 0.00762388 0.03758781
v -0.01858456 0.01006104 0.03641438
v -0.01544987 0.00736868 0.03758009
v -0.02030020 0.00652432 0.03546484
v -0.02064624 0.00652432 0.03531044
v -0.02119874 0.00652388 0.03489742
v -0.02494117 0.00586476 0.03194070
v -0.02178322 0.00573496 0.03425281
v -0.02030020 0.00566147 0.03512516
v -0.02030020 0.00565663 0.03462337
v -0.01118693 0.00736868 0.02492330
v -0.02744485 0.00736868 0.00000344
v -0.03410389 0.00942172 0.00000344
v -0.03530193 0.00978208 0.00000344
v -0.03539498 0.01006104 0.00381322
v -0.01842462 0.00736868 0.03634104
v -0.02078000 0.01006104 0.03539536
v -0.02068404 0.00736868 0.03532974
v -0.02132378 0.00982168 0.03499778
v -0.02123072 0.00736824 0.03492830
v -0.02499642 0.00652388 0.03198702
v -0.02752337 0.00652388 0.03004160
v -0.02614212 0.00575608 0.03092553
v -0.02735471 0.00570107 0.02991422
v -0.02299871 0.00569316 0.03323764
v -0.02534827 0.00568392 0.03131153
v -0.03089941 0.00566939 0.02579951
v -0.03610450 0.00562628 0.01814522
v -0.02030020 0.00566720 0.03436861
v -0.03942239 0.00557172 0.00934839
v -0.03884372 0.00557172 0.00934839
v -0.03888443 0.00556864 0.00824830
v -0.03996035 0.00556644 0.00000730
v -0.04085306 0.00736868 0.00000344
v -0.03980914 0.01006104 0.00000344
v -0.02132959 0.01006104 0.03500164
v -0.02205075 0.01006104 0.03445353
v -0.02385653 0.00982168 0.03305623
v -0.02515926 0.00736824 0.03191368
v -0.02820671 0.01006104 0.02972509
v -0.02816891 0.00909832 0.02969421
v -0.02807296 0.00652388 0.02958999
v -0.02922157 0.00632324 0.02856324
v -0.02849169 0.00571516 0.02887590
v -0.02951526 0.00569447 0.02782599
v -0.03504022 0.00566807 0.02034154
v -0.03595911 0.00577720 0.01894424
v -0.03713098 0.00569976 0.01594505
v -0.03832903 0.00561659 0.01264479
v -0.03946310 0.00556864 0.00824830
v -0.03932061 0.00567599 0.01044848
v -0.04028312 0.00590260 0.00461609
v -0.04033255 0.00579568 0.00385182
v -0.04040525 0.00567688 0.00275173
v -0.04047795 0.00560031 0.00165164
v -0.04053610 0.00556644 0.00055155
v -0.03996035 0.00556644 0.00055155
v -0.04053610 0.00556644 0.00000730
v -0.04085888 0.00762388 0.00000344
v -0.04083561 0.00652343 0.00000730
v -0.04085016 0.00707696 0.00000730
v -0.04089377 0.01006104 0.00000344
v -0.02875340 0.01006104 0.02923487
v -0.02874758 0.00982168 0.02923101
v -0.02925646 0.00705540 0.02859026
v -0.03063770 0.00652388 0.02675292
v -0.03256271 0.00596243 0.02419377
v -0.03154496 0.00581459 0.02540966
v -0.03053302 0.00572923 0.02661782
v -0.03385671 0.00571340 0.02225221
v -0.03487447 0.00578335 0.02104019
v -0.03602599 0.00652343 0.01910249
v -0.03699722 0.00588015 0.01659352
v -0.03922175 0.00583176 0.01116257
v -0.03818363 0.00574772 0.01350942
v -0.03951253 0.00652343 0.01044848
v -0.03970445 0.00652343 0.00934839
v -0.04030929 0.00652343 0.00482066
v -0.04058263 0.00652343 0.00275173
v -0.04072512 0.00652343 0.00165164
v -0.04083561 0.00652343 0.00055155
v -0.04085597 0.00736780 0.00000730
v -0.04087633 0.00872212 0.00000344
v -0.04085597 0.00736780 0.00055155
v -0.04089377 0.01006104 0.00055155
v -0.02921575 0.01006104 0.02881028
v -0.02926518 0.00736824 0.02860184
v -0.03171070 0.01006104 0.02561810
v -0.03258307 0.00652343 0.02422079
v -0.03494717 0.00652343 0.02113669
v -0.03585733 0.00913792 0.01980500
v -0.03604635 0.00736780 0.01915267
v -0.03613940 0.01006104 0.01924531
v -0.03711644 0.01006104 0.01689460
v -0.03711935 0.00736868 0.01656650
v -0.03926827 0.00652343 0.01127451
v -0.03955324 0.00736780 0.01044848
v -0.03961431 0.00872212 0.01044848
v -0.03966083 0.01006104 0.01044848
v -0.04028312 0.01006104 0.00622569
v -0.04031511 0.01006104 0.00599795
v -0.04032383 0.00736780 0.00500594
v -0.04071058 0.01006104 0.00299105
v -0.04076292 0.00736780 0.00165164
v -0.04078909 0.00736780 0.00139688
v -0.04083852 0.00982168 0.00165550
v -0.04084434 0.01006104 0.00165550
v -0.04087633 0.00872212 0.00055155
v -0.04088505 0.01006104 0.00079473
v -0.02934079 0.01006104 0.02868676
v -0.02933788 0.00982168 0.02867904
v -0.03504022 0.01006104 0.02126021
v -0.03500823 0.00872212 0.02121389
v -0.03497043 0.00736780 0.02116757
v -0.03559563 0.01006104 0.02039944
v -0.03581953 0.01006104 0.01997484
v -0.03587769 0.00982168 0.01983588
v -0.03588060 0.01006104 0.01985132
v -0.03934097 0.01006104 0.01150996
v -0.03934679 0.00982168 0.01147522
v -0.03958523 0.01006104 0.01070323
v -0.04073965 0.01006104 0.00275559
v -0.04077164 0.00762388 0.00165550
v -0.04080654 0.00872212 0.00165550
v -0.04082398 0.01006104 0.00189482
f 1 2 3
f 1 3 4
f 1 4 13
f 1 13 28
f 1 28 14
f 1 14 5
f 1 5 16
f 1 16 32
f 1 32 52
f 1 52 79
f 1 79 102
f 1 102 126
f 1 126 124
f 1 124 142
f 1 142 139
f 1 139 120
f 1 120 118
f 1 118 117
f 1 117 116
f 1 116 138
f 1 138 136
f 1 136 111
f 1 111 110
f 1 110 135
f 1 135 133
f 1 133 132
f 1 132 129
f 1 129 105
f 1 105 127
f 1 127 103
f 1 103 80
f 1 80 57
f 1 57 54
f 1 54 53
f 1 53 34
f 1 34 19
f 1 19 7
f 1 7 2
f 2 6 3
f 2 7 6
f 3 6 8
f 3 8 9
f 3 9 10
f 3 10 11
f 3 11 12
f 3 12 13
f 3 13 4
f 5 14 15
f 5 15 16
f 6 7 17
f 6 17 18
f 6 18 8
f 7 19 17
f 8 18 20
f 8 20 9
f 9 20 10
f 10 17 21
f 10 21 22
f 10 22 11
f 10 20 17
f 11 22 23
f 11 23 24
f 11 24 25
f 11 25 12
f 12 25 26
f 12 26 13
f 13 26 27
f 13 27 28
f 14 28 29
f 14 29 30
f 14 30 31
f 14 31 15
f 15 31 32
f 15 32 16
f 17 19 33
f 17 33 21
f 17 20 18
f 19 34 35
f 19 35 22
f 19 22 21
f 19 21 33
f 22 35 36
f 22 36 37
f 22 37 23
f 23 37 38
f 23 38 24
f 24 38 39
f 24 39 40
f 24 40 25
f 25 40 41
f 25 41 42
f 25 42 26
f 26 42 41
f 26 41 43
f 26 43 44
f 26 44 45
f 26 45 27
f 27 46 28
f 27 45 47
f 27 47 48
f 27 48 49
f 27 49 50
f 27 50 46
f 28 46 50
f 28 50 29
f 29 50 75
f 29 75 51
f 29 51 76
f 29 76 100
f 29 100 79
f 29 79 52
f 29 52 31
f 29 31 30
f 31 52 32
f 34 53 36
f 34 36 35
f 36 54 55
f 36 55 37
f 36 53 54
f 37 55 56
f 37 56 38
f 38 56 39
f 39 56 57
f 39 57 58
f 39 58 59
f 39 59 41
f 39 41 40
f 41 59 60
f 41 60 61
f 41 61 62
f 41 62 43
f 43 62 44
f 44 62 63
f 44 63 45
f 45 64 65
f 45 65 66
f 45 66 47
f 45 63 64
f 47 67 49
f 47 49 48
f 47 66 68
f 47 68 69
f 47 69 70
f 47 70 71
f 47 71 72
f 47 72 73
f 47 73 67
f 49 67 73
f 49 73 74
f 49 74 50
f 50 74 73
f 50 73 75
f 51 75 77
f 51 77 78
f 51 78 76
f 54 57 55
f 55 57 56
f 57 80 81
f 57 81 58
f 58 81 82
f 58 82 59
f 59 82 60
f 60 82 83
f 60 83 84
f 60 84 85
f 60 85 86
f 60 86 62
f 60 62 61
f 62 86 87
f 62 87 63
f 63 87 88
f 63 88 64
f 64 89 90
f 64 90 91
f 64 91 92
f 64 92 65
f 64 88 89
f 65 92 68
f 65 68 66
f 68 91 93
f 68 93 94
f 68 94 69
f 68 92 91
f 69 95 96
f 69 96 97
f 69 97 98
f 69 98 70
f 69 94 95
f 70 98 71
f 71 98 72
f 72 98 73
f 73 98 77
f 73 77 75
f 76 78 99
f 76 99 100
f 77 98 78
f 78 98 101
f 78 101 99
f 79 100 125
f 79 125 102
f 80 103 81
f 81 103 104
f 81 104 82
f 82 104 105
f 82 105 106
f 82 106 83
f 83 106 84
f 84 106 107
f 84 107 88
f 84 88 85
f 85 88 86
f 86 88 87
f 88 107 89
f 89 108 109
f 89 109 110
f 89 110 111
f 89 111 112
f 89 112 113
f 89 113 90
f 89 107 108
f 90 113 91
f 91 113 93
f 93 113 114
f 93 114 94
f 94 114 115
f 94 115 116
f 94 116 117
f 94 117 118
f 94 118 119
f 94 119 95
f 95 119 96
f 96 119 118
f 96 118 120
f 96 120 97
f 97 120 121
f 97 121 122
f 97 122 98
f 98 122 123
f 98 123 124
f 98 124 101
f 99 101 125
f 99 125 100
f 101 124 126
f 101 126 125
f 102 125 126
f 103 127 128
f 103 128 104
f 104 128 105
f 105 128 127
f 105 129 130
f 105 130 131
f 105 131 107
f 105 107 106
f 107 131 132
f 107 132 108
f 108 133 134
f 108 134 110
f 108 110 109
f 108 132 133
f 110 134 135
f 111 136 137
f 111 137 113
f 111 113 112
f 113 115 114
f 113 137 115
f 115 138 116
f 115 137 138
f 120 139 121
f 121 140 122
f 121 139 140
f 122 140 141
f 122 141 123
f 123 141 142
f 123 142 124
f 129 132 130
f 130 132 131
f 133 135 134
f 136 138 137
f 139 142 141
f 139 141 140

