# https://github.com/mikedh/trimesh
v -0.02608251 0.01006174 -0.03136170
v -0.02397744 0.01006174 -0.03297391
v -0.02608251 0.01006174 -0.02986103
v -0.02608251 0.02411841 -0.03217287
v -0.02160750 0.01752019 -0.03522086
v -0.02132589 0.01006174 -0.03500185
v -0.02429251 0.01006174 -0.02705842
v -0.02608251 0.01122398 -0.02506901
v -0.02278968 0.07248397 -0.03748404
v -0.02608251 0.09886769 -0.03647818
v -0.02159356 0.03621667 -0.03630784
v -0.02077662 0.01006174 -0.03539932
v -0.02328597 0.01006174 -0.02702394
v 0.00240144 0.01007089 -0.03566092
v -0.02608251 0.01202931 -0.02467965
v -0.02269210 0.08896579 -0.03850612
v -0.02608251 0.09997501 -0.03652483
v -0.02491148 0.09997501 -0.03742320
v -0.02488639 0.09907817 -0.03740292
v -0.02348951 0.09558230 -0.03827493
v -0.02158240 0.05518768 -0.03739684
v -0.02047271 0.02343205 -0.03629161
v -0.01999315 0.01532384 -0.03607665
v -0.01982028 0.01417075 -0.03608882
v -0.01857954 0.01006174 -0.03641734
v -0.01450324 0.01006174 -0.03254196
v -0.01254315 0.01006174 -0.03768886
v 0.00240144 0.01007089 -0.04078957
v 0.00240144 0.01312749 -0.03566295
v -0.02608251 0.01313664 -0.02446266
v -0.02277574 0.09117129 -0.03856696
v -0.02215398 0.09997501 -0.03935177
v -0.02608251 0.10108234 -0.03653294
v -0.02491427 0.10108234 -0.03742523
v -0.02309917 0.10108234 -0.03880220
v -0.02309359 0.09997501 -0.03880017
v -0.02306292 0.09887684 -0.03877786
v -0.02158240 0.07720614 -0.03849395
v -0.01961953 0.01827977 -0.03639301
v -0.01939369 0.01450021 -0.03629770
v -0.01961953 0.01532384 -0.03624294
v -0.02157961 0.09926120 -0.03959106
v -0.01317607 0.01006174 -0.03865416
v -0.01986489 0.08896579 -0.03979183
v -0.01168161 0.06082499 -0.04178935
v -0.01169834 0.01672402 -0.03959715
v -0.01254315 0.01006174 -0.03888128
v 0.00097669 0.01007089 -0.04097817
v 0.00240144 0.05927839 -0.04306289
v 0.00240144 0.01344779 -0.03566701
v 0.00240144 0.01564414 -0.03570148
v 0.00240144 0.01675147 -0.03571973
v 0.00240144 0.01784965 -0.03574610
v 0.00240144 0.01894783 -0.03577652
v 0.00240144 0.02004600 -0.03580896
v 0.00240144 0.02225151 -0.03588197
v 0.00240144 0.05524259 -0.03698719
v 0.00240144 0.06625182 -0.03735628
v -0.02608251 0.01423481 -0.02450728
v -0.02216234 0.10108234 -0.03935380
v -0.02160750 0.09997501 -0.03960120
v -0.02608251 0.10202495 -0.03651469
v -0.02490312 0.10218052 -0.03741509
v -0.02308523 0.10218052 -0.03879409
v -0.01551534 0.09997501 -0.04212598
v -0.01322625 0.09997501 -0.04307303
v -0.01317607 0.09887684 -0.04305275
v -0.01074200 0.01007089 -0.03964987
v -0.01167324 0.08289836 -0.04288443
v -0.01001707 0.01007089 -0.03978777
v -0.00251131 0.01007089 -0.04077741
v -0.00122039 0.01007089 -0.04094572
v -0.00012185 0.01007089 -0.04103293
v 0.00073691 0.01007089 -0.04099034
v 0.00053337 0.02656186 -0.04179746
v 0.00061702 0.07468033 -0.04400791
v 0.00240144 0.08865463 -0.04441755
v 0.00240144 0.07940249 -0.03795046
v -0.02608251 0.07457051 -0.02738695
v -0.02214004 0.10218052 -0.03934366
v -0.02159077 0.10218052 -0.03959512
v -0.02161307 0.10108234 -0.03960323
v -0.02608251 0.10218052 -0.03651063
v -0.02488360 0.10275706 -0.03740292
v -0.02294024 0.10300415 -0.03868661
v -0.02157404 0.10272961 -0.03958701
v -0.01551534 0.10108234 -0.04213004
v -0.01323183 0.10108234 -0.04307506
v -0.01254315 0.10108234 -0.04331435
v -0.01221415 0.09997501 -0.04342184
v -0.01221415 0.09888599 -0.04339547
v -0.01221415 0.09667133 -0.04332247
v -0.01221415 0.09558230 -0.04327582
v -0.01254315 0.09601242 -0.04316631
v -0.01058028 0.03120165 -0.04068615
v -0.01111840 0.09118044 -0.04337114
v -0.00461917 0.01981721 -0.04094978
v -0.01001707 0.05709119 -0.04195767
v -0.00122039 0.01202931 -0.04103698
v -0.00080495 0.09887684 -0.04509894
v -0.00081053 0.02742210 -0.04180151
v -0.00069900 0.02679064 -0.04178529
v -0.00012185 0.01312749 -0.04117488
v 0.00033262 0.04990728 -0.04288443
v 0.00044694 0.04990728 -0.04288443
v 0.00048876 0.07395736 -0.04398966
v 0.00053058 0.09803490 -0.04509488
v 0.00067835 0.09887684 -0.04511516
v 0.00240144 0.09008227 -0.04447839
v 0.00240144 0.08050982 -0.03801738
v 0.00240144 0.10218052 -0.03938624
v -0.02608251 0.10218052 -0.02961565
v -0.01551534 0.10218052 -0.04211382
v -0.02608251 0.10288518 -0.03640112
v -0.02608251 0.10291264 -0.03639504
v -0.02608251 0.10312312 -0.03609490
v -0.02326925 0.10321464 -0.03799305
v -0.02101083 0.10337021 -0.03903135
v -0.02200900 0.10305906 -0.03904555
v -0.02101083 0.10292179 -0.03970463
v -0.01613989 0.10280282 -0.04181368
v -0.01321231 0.10218052 -0.04306695
v -0.01849032 0.10291264 -0.04077538
v -0.01254315 0.10218052 -0.04330219
v -0.01221415 0.10218052 -0.04341778
v -0.01221415 0.10108234 -0.04342589
v -0.00952356 0.09997501 -0.04398966
v -0.00954587 0.10108234 -0.04399168
v -0.01111840 0.09228777 -0.04341372
v -0.01064999 0.07932928 -0.04289660
v -0.01011466 0.07900898 -0.04295541
v -0.01001707 0.08787676 -0.04337722
v -0.00947059 0.09941677 -0.04398154
v -0.00562012 0.09667133 -0.04436280
v -0.00069621 0.09826369 -0.04508474
v -0.00095273 0.09997501 -0.04511719
v -0.00012185 0.09997501 -0.04517194
v -0.00012185 0.02658016 -0.04179746
v 0.00014303 0.07395736 -0.04398966
v -0.00012185 0.09887684 -0.04513138
v 0.00082613 0.09997501 -0.04513341
v 0.00240144 0.09118044 -0.04451692
v 0.00240144 0.10294009 -0.03948358
v -0.02608251 0.10316888 -0.03023619
v -0.02608251 0.10327870 -0.03573798
v -0.02430923 0.10337936 -0.03683307
v -0.02211216 0.10353494 -0.03793424
v -0.01991229 0.10351664 -0.03903135
v -0.01771242 0.10348918 -0.04013252
v -0.01551534 0.10341597 -0.04123166
v -0.01771242 0.10307737 -0.04092139
v -0.01991229 0.10312312 -0.03991553
v -0.01305618 0.10294009 -0.04300205
v -0.01254315 0.10248252 -0.04325555
v -0.01551534 0.10298585 -0.04194347
v -0.00945665 0.10263809 -0.04397952
v -0.00949847 0.10190598 -0.04398560
v -0.00891853 0.10108234 -0.04407483
v -0.00097224 0.10108234 -0.04512124
v -0.00012185 0.07908219 -0.04421881
v -0.00012185 0.10108234 -0.04517803
v 0.00084564 0.10108234 -0.04513747
v 0.00240144 0.10218052 -0.04478866
v 0.00240144 0.09337680 -0.04457979
v 0.00240144 0.09227862 -0.04455140
v 0.00240144 0.10337936 -0.04013455
v -0.02608251 0.10330615 -0.03052213
v -0.02608251 0.10351664 -0.03506268
v -0.02541056 0.10348918 -0.03573393
v -0.02321069 0.10355324 -0.03353970
v -0.01441402 0.10353494 -0.04123166
v -0.01221415 0.10350748 -0.04233283
v -0.01221415 0.10309567 -0.04314806
v -0.01254315 0.10304076 -0.04309128
v -0.00081053 0.10277537 -0.04509894
v -0.00090811 0.10218052 -0.04511313
v -0.00562012 0.10218052 -0.04449259
v -0.00781999 0.10218052 -0.04420259
v -0.00872336 0.10284858 -0.04402819
v -0.00012185 0.10218052 -0.04515978
v 0.00078430 0.10218052 -0.04512733
v 0.00133358 0.10218052 -0.04501376
v 0.00064490 0.10280282 -0.04511111
v 0.00240144 0.10314143 -0.04440944
v 0.00240144 0.10350748 -0.04123166
v -0.02541056 0.10347088 -0.03134142
v -0.02608251 0.10348918 -0.03134142
v -0.00452158 0.10353494 -0.04013455
v -0.00461917 0.10353494 -0.04343197
v -0.00562012 0.10353494 -0.04343197
v -0.02430923 0.10351664 -0.03243853
v -0.00671866 0.10349833 -0.04343197
v -0.00781999 0.10340682 -0.04343197
v -0.01111840 0.10314143 -0.04327785
v -0.00671866 0.10306821 -0.04416000
v -0.00781999 0.10296755 -0.04408700
v -0.00562012 0.10312312 -0.04423301
v -0.00012185 0.10282112 -0.04511719
v -0.00012185 0.10326040 -0.04453111
v 0.00099621 0.10311397 -0.04462237
v 0.00207523 0.10315058 -0.04443580
v 0.00240144 0.10348918 -0.04343197
v -0.00012185 0.10350748 -0.04343197
f 1 2 6
f 1 6 12
f 1 12 25
f 1 25 43
f 1 43 47
f 1 47 27
f 1 27 26
f 1 26 13
f 1 13 7
f 1 7 3
f 1 3 8
f 1 8 15
f 1 15 30
f 1 30 59
f 1 59 79
f 1 79 112
f 1 112 144
f 1 144 167
f 1 167 187
f 1 187 168
f 1 168 145
f 1 145 116
f 1 116 115
f 1 115 114
f 1 114 83
f 1 83 62
f 1 62 33
f 1 33 17
f 1 17 10
f 1 10 4
f 1 4 5
f 1 5 2
f 2 5 6
f 3 7 8
f 4 9 5
f 4 10 9
f 5 9 11
f 5 11 6
f 6 11 12
f 7 13 8
f 8 14 15
f 8 13 14
f 9 16 11
f 9 10 16
f 10 17 18
f 10 18 19
f 10 19 20
f 10 20 16
f 11 16 21
f 11 21 12
f 12 22 23
f 12 23 24
f 12 24 25
f 12 21 22
f 13 26 14
f 14 26 27
f 14 27 47
f 14 47 28
f 14 28 49
f 14 49 77
f 14 77 109
f 14 109 142
f 14 142 165
f 14 165 164
f 14 164 163
f 14 163 184
f 14 184 202
f 14 202 185
f 14 185 166
f 14 166 143
f 14 143 111
f 14 111 110
f 14 110 78
f 14 78 58
f 14 58 57
f 14 57 56
f 14 56 55
f 14 55 54
f 14 54 53
f 14 53 52
f 14 52 51
f 14 51 50
f 14 50 29
f 14 29 30
f 14 30 15
f 16 20 31
f 16 31 32
f 16 32 21
f 17 33 18
f 18 33 34
f 18 34 35
f 18 35 36
f 18 36 37
f 18 37 19
f 19 37 20
f 20 37 31
f 21 32 38
f 21 38 22
f 22 39 40
f 22 40 41
f 22 41 23
f 22 38 42
f 22 42 39
f 23 41 25
f 23 25 24
f 25 41 40
f 25 40 39
f 25 39 42
f 25 42 44
f 25 44 45
f 25 45 46
f 25 46 43
f 28 47 48
f 28 48 49
f 29 50 30
f 30 50 51
f 30 51 52
f 30 52 53
f 30 53 54
f 30 54 55
f 30 55 56
f 30 56 57
f 30 57 58
f 30 58 59
f 31 37 32
f 32 36 60
f 32 60 61
f 32 61 42
f 32 42 38
f 32 37 36
f 33 62 63
f 33 63 34
f 34 63 35
f 35 63 64
f 35 64 60
f 35 60 36
f 42 61 65
f 42 65 66
f 42 66 67
f 42 67 45
f 42 45 44
f 43 68 47
f 43 46 68
f 45 67 69
f 45 69 68
f 45 68 46
f 47 68 70
f 47 70 71
f 47 71 72
f 47 72 73
f 47 73 74
f 47 74 48
f 48 74 75
f 48 75 76
f 48 76 49
f 49 76 77
f 58 78 59
f 59 78 79
f 60 64 80
f 60 80 81
f 60 81 82
f 60 82 61
f 61 82 65
f 62 83 63
f 63 83 84
f 63 84 64
f 64 84 85
f 64 85 86
f 64 86 80
f 65 82 87
f 65 87 88
f 65 88 66
f 66 88 89
f 66 89 90
f 66 90 91
f 66 91 92
f 66 92 67
f 67 92 93
f 67 93 94
f 67 94 69
f 68 69 95
f 68 95 70
f 69 94 93
f 69 93 92
f 69 92 96
f 69 96 95
f 70 97 71
f 70 95 98
f 70 98 97
f 71 99 72
f 71 97 100
f 71 100 101
f 71 101 99
f 72 99 102
f 72 102 73
f 73 103 104
f 73 104 105
f 73 105 75
f 73 75 74
f 73 102 103
f 75 105 106
f 75 106 76
f 76 106 107
f 76 107 108
f 76 108 77
f 77 108 109
f 78 110 79
f 79 110 111
f 79 111 112
f 80 86 81
f 81 86 113
f 81 113 82
f 82 113 87
f 83 114 84
f 84 114 115
f 84 115 85
f 85 115 116
f 85 116 117
f 85 117 118
f 85 118 119
f 85 119 120
f 85 120 86
f 86 121 122
f 86 122 113
f 86 120 123
f 86 123 121
f 87 113 122
f 87 122 88
f 88 122 124
f 88 124 125
f 88 125 89
f 89 125 126
f 89 126 90
f 90 127 91
f 90 126 128
f 90 128 127
f 91 127 129
f 91 129 92
f 92 129 96
f 95 96 130
f 95 130 131
f 95 131 98
f 96 132 130
f 96 129 133
f 96 133 132
f 97 98 134
f 97 134 100
f 98 131 132
f 98 132 133
f 98 133 134
f 99 101 102
f 100 135 101
f 100 134 133
f 100 133 136
f 100 136 137
f 100 137 135
f 101 135 102
f 102 138 103
f 102 135 138
f 103 138 104
f 104 138 139
f 104 139 106
f 104 106 105
f 106 139 107
f 107 139 140
f 107 140 137
f 107 137 108
f 108 137 141
f 108 141 109
f 109 141 142
f 111 143 112
f 112 143 144
f 116 145 117
f 117 145 146
f 117 146 147
f 117 147 118
f 118 147 148
f 118 148 149
f 118 149 150
f 118 150 151
f 118 151 152
f 118 152 119
f 119 152 120
f 120 152 151
f 120 151 123
f 121 123 153
f 121 153 122
f 122 153 154
f 122 154 124
f 123 151 155
f 123 155 153
f 124 154 125
f 125 154 156
f 125 156 157
f 125 157 128
f 125 128 126
f 127 136 133
f 127 133 129
f 127 128 158
f 127 158 159
f 127 159 136
f 128 157 158
f 130 132 131
f 135 137 140
f 135 140 160
f 135 160 138
f 136 159 161
f 136 161 137
f 137 161 141
f 138 160 139
f 139 160 140
f 141 161 162
f 141 162 163
f 141 163 164
f 141 164 165
f 141 165 142
f 143 166 144
f 144 166 167
f 145 168 169
f 145 169 146
f 146 169 147
f 147 170 171
f 147 171 148
f 147 169 168
f 147 168 170
f 148 171 172
f 148 172 149
f 149 172 150
f 150 172 173
f 150 173 151
f 151 173 174
f 151 174 155
f 153 155 174
f 153 174 156
f 153 156 154
f 156 175 176
f 156 176 177
f 156 177 178
f 156 178 157
f 156 174 173
f 156 173 179
f 156 179 175
f 157 178 177
f 157 177 158
f 158 177 176
f 158 176 159
f 159 176 161
f 161 176 180
f 161 180 181
f 161 181 162
f 162 181 182
f 162 182 163
f 163 182 183
f 163 183 184
f 166 185 186
f 166 186 167
f 167 186 187
f 168 187 170
f 170 188 189
f 170 189 190
f 170 190 171
f 170 187 191
f 170 191 185
f 170 185 188
f 171 190 172
f 172 190 192
f 172 192 193
f 172 193 173
f 173 194 195
f 173 195 196
f 173 196 179
f 173 193 194
f 175 180 176
f 175 179 196
f 175 196 195
f 175 195 197
f 175 197 198
f 175 198 180
f 180 198 183
f 180 183 181
f 181 183 182
f 183 198 199
f 183 199 200
f 183 200 184
f 184 200 201
f 184 201 199
f 184 199 202
f 185 202 203
f 185 203 189
f 185 189 188
f 185 191 187
f 185 187 186
f 189 203 199
f 189 199 190
f 190 199 192
f 192 199 197
f 192 197 193
f 193 197 195
f 193 195 194
f 197 199 198
f 199 201 200
f 199 203 202

