# https://github.com/mikedh/trimesh
v -0.00012223 0.01006174 -0.04103269
v -0.00012223 0.00982191 -0.04102437
v -0.00036246 0.01006174 -0.04101604
v 0.00097668 0.01006174 -0.04097775
v -0.00012460 0.00735806 -0.04091116
v 0.00097668 0.00735806 -0.04085456
v -0.00122351 0.00652372 -0.04078297
v -0.00122351 0.00982191 -0.04093447
v -0.00122351 0.01006174 -0.04094446
v 0.00183772 0.01006174 -0.04086455
v -0.00012460 0.00652372 -0.04087121
v 0.00189481 0.00735806 -0.04073303
v 0.00174971 0.00652372 -0.04071305
v 0.00097668 0.00652372 -0.04081460
v -0.00122351 0.00588564 -0.04072138
v -0.00177771 0.00597233 -0.04068475
v -0.00146136 0.01006174 -0.04091449
v 0.00232771 0.01006174 -0.04079962
v 0.00240144 0.00878559 -0.04073137
v -0.00012460 0.00578487 -0.04076466
v 0.00097668 0.00584956 -0.04073636
v 0.00160938 0.00594417 -0.04069474
v 0.00240144 0.00843706 -0.04070307
v 0.00240144 0.00762341 -0.04061983
v 0.00239906 0.00652372 -0.04050163
v -0.00672039 0.00559916 -0.03980908
v -0.00781929 0.00567485 -0.03973749
v -0.00892058 0.00579279 -0.03966424
v -0.00968886 0.00590016 -0.03961264
v -0.00989104 0.00652372 -0.03964094
v -0.00781929 0.00652372 -0.03991562
v -0.00892058 0.00735806 -0.03980908
v -0.01001472 0.01006174 -0.03978744
v 0.00240144 0.01006174 -0.04078963
v 0.00240144 0.00940386 -0.04075967
v -0.00452259 0.00558508 -0.03990064
v -0.00562149 0.00556616 -0.03986901
v 0.00239906 0.00576155 -0.04009376
v 0.00239906 0.00642735 -0.04046001
v 0.00240144 0.00735850 -0.04058986
v -0.01111362 0.00563569 -0.03885516
v -0.01221252 0.00569026 -0.03866870
v -0.01287615 0.00587024 -0.03853053
v -0.01044049 0.00652372 -0.03952107
v -0.01054514 0.00712659 -0.03957268
v -0.01030729 0.00735806 -0.03962096
v -0.01007181 0.00735806 -0.03965592
v -0.01060461 0.00785928 -0.03959765
v -0.01074019 0.01006174 -0.03964926
v 0.00240144 0.01006174 -0.03565878
v -0.00452259 0.00558508 -0.03934294
v 0.00239906 0.00575274 -0.03948278
v -0.00562149 0.00556616 -0.03928967
v -0.01661051 0.00562029 -0.03661437
v -0.01441271 0.00562381 -0.03763987
v 0.00240144 0.00735850 -0.02721169
v -0.01990959 0.00565549 -0.03540740
v -0.01771179 0.00574218 -0.03643124
v -0.01522618 0.00577123 -0.03749504
v -0.01221252 0.00652372 -0.03887847
v -0.01111362 0.00652372 -0.03928301
v -0.01830881 0.00592524 -0.03630638
v -0.01056417 0.00735806 -0.03958100
v -0.01316158 0.00982191 -0.03864873
v -0.01317585 0.01006174 -0.03865372
v 0.00235863 0.01006174 -0.03565379
v -0.01221490 0.01001905 -0.03353619
v -0.01319963 0.00980959 -0.03254897
v -0.01319963 0.00735850 -0.02402697
v -0.01996668 0.00564889 -0.03462329
v -0.01661051 0.00562029 -0.03602836
v -0.02096330 0.00567089 -0.03462829
v -0.02143664 0.00570786 -0.03441186
v -0.02056846 0.00582535 -0.03525924
v -0.01301410 0.00735806 -0.03858880
v -0.01539030 0.00652372 -0.03756329
v -0.01990959 0.00652372 -0.03564713
v -0.01836590 0.00652372 -0.03632969
v -0.01771179 0.00652372 -0.03660105
v -0.01841585 0.00735806 -0.03635133
v -0.02049710 0.00735806 -0.03541406
v -0.02067312 0.00735806 -0.03533249
v -0.01319963 0.01006174 -0.03864040
v 0.00206606 0.01006174 -0.03562049
v -0.01011938 0.01006174 -0.03455337
v -0.01319963 0.01006174 -0.03737517
v -0.01319963 0.00990948 -0.03353619
v -0.02189808 0.00735806 -0.03441186
v -0.02189570 0.00730613 -0.03441186
v -0.02183386 0.00652372 -0.03441186
v -0.02097520 0.00568058 -0.03441186
v -0.02119165 0.00652372 -0.03490464
v -0.02064220 0.00652372 -0.03531084
v -0.02109174 0.00735806 -0.03502617
v -0.02122257 0.00735806 -0.03492794
f 1 2 3
f 1 3 9
f 1 9 17
f 1 17 33
f 1 33 49
f 1 49 65
f 1 65 83
f 1 83 86
f 1 86 85
f 1 85 84
f 1 84 66
f 1 66 50
f 1 50 34
f 1 34 18
f 1 18 10
f 1 10 4
f 1 4 2
f 2 5 3
f 2 4 6
f 2 6 5
f 3 5 7
f 3 7 8
f 3 8 9
f 4 10 6
f 5 6 14
f 5 14 11
f 5 11 7
f 6 10 12
f 6 12 13
f 6 13 14
f 7 15 16
f 7 16 17
f 7 17 8
f 7 11 15
f 8 17 9
f 10 18 19
f 10 19 12
f 11 20 15
f 11 14 21
f 11 21 20
f 12 19 13
f 13 22 14
f 13 19 23
f 13 23 24
f 13 24 25
f 13 25 22
f 14 22 21
f 15 20 26
f 15 26 27
f 15 27 28
f 15 28 29
f 15 29 16
f 16 29 30
f 16 30 31
f 16 31 17
f 17 31 32
f 17 32 33
f 18 34 35
f 18 35 19
f 19 35 34
f 19 34 50
f 19 50 56
f 19 56 40
f 19 40 24
f 19 24 23
f 20 36 37
f 20 37 26
f 20 21 38
f 20 38 36
f 21 22 38
f 22 25 39
f 22 39 38
f 24 40 25
f 25 40 39
f 26 37 41
f 26 41 27
f 27 41 28
f 28 41 42
f 28 42 29
f 29 42 43
f 29 43 44
f 29 44 45
f 29 45 30
f 30 32 31
f 30 45 46
f 30 46 47
f 30 47 32
f 32 47 33
f 33 47 46
f 33 46 48
f 33 48 49
f 36 51 53
f 36 53 37
f 36 38 52
f 36 52 51
f 37 53 71
f 37 71 54
f 37 54 55
f 37 55 41
f 38 39 40
f 38 40 52
f 40 56 52
f 41 55 42
f 42 55 57
f 42 57 58
f 42 58 59
f 42 59 43
f 43 60 61
f 43 61 44
f 43 59 62
f 43 62 60
f 44 61 45
f 45 61 60
f 45 60 63
f 45 63 46
f 46 63 48
f 48 63 60
f 48 60 49
f 49 60 64
f 49 64 65
f 50 66 67
f 50 67 68
f 50 68 69
f 50 69 56
f 51 52 70
f 51 70 53
f 52 56 70
f 53 70 71
f 54 71 70
f 54 70 57
f 54 57 55
f 56 69 70
f 57 70 72
f 57 72 73
f 57 73 74
f 57 74 58
f 58 74 62
f 58 62 59
f 60 75 64
f 60 62 76
f 60 76 75
f 62 77 78
f 62 78 79
f 62 79 76
f 62 74 77
f 64 75 80
f 64 80 65
f 65 80 81
f 65 81 82
f 65 82 83
f 66 84 67
f 67 85 86
f 67 86 87
f 67 87 68
f 67 84 85
f 68 87 88
f 68 88 69
f 69 88 89
f 69 89 90
f 69 90 73
f 69 73 91
f 69 91 70
f 70 91 72
f 72 91 73
f 73 90 74
f 74 90 92
f 74 92 93
f 74 93 77
f 75 76 80
f 76 79 80
f 77 80 78
f 77 93 81
f 77 81 80
f 78 80 79
f 81 93 82
f 82 93 94
f 82 94 83
f 83 94 95
f 83 95 88
f 83 88 86
f 86 88 87
f 88 95 89
f 89 95 92
f 89 92 90
f 92 95 94
f 92 94 93

