# https://github.com/mikedh/trimesh
v 0.04622611 0.09981058 -0.00054973
v 0.04622611 0.09979141 -0.00067708
v 0.04622611 0.09978886 0.00054854
v 0.04826247 0.09962146 0.00054854
v 0.04936063 0.09952562 0.00048928
v 0.04826247 0.09962785 -0.00054973
v 0.04897421 0.09947835 -0.00135924
v 0.04622611 0.09955502 -0.00168834
v 0.04826247 0.09930712 -0.00274878
v 0.04622611 0.09922789 0.00274885
v 0.04826247 0.09929689 0.00274885
v 0.04899218 0.09947835 0.00136183
v 0.04934984 0.09952562 -0.00048290
v 0.04972548 0.09939656 0.00081585
v 0.04996632 0.09945023 0.00008326
v 0.04996632 0.09945023 -0.00007184
v 0.05452611 0.09838708 -0.00025215
v 0.04936242 0.09916528 -0.00274878
v 0.04622611 0.09929689 -0.00268447
v 0.04826247 0.09895444 -0.00384830
v 0.04622611 0.09923939 -0.00286478
v 0.04622611 0.09886627 0.00384838
v 0.04716252 0.09891994 0.00384838
v 0.04826247 0.09894933 0.00384838
v 0.04936242 0.09917934 0.00274885
v 0.04936063 0.09934417 0.00169598
v 0.05046238 0.09910394 0.00164932
v 0.05266050 0.09877554 0.00054854
v 0.05038510 0.09929689 0.00048928
v 0.05452611 0.09838708 0.00031653
v 0.05595857 0.09791429 0.00054854
v 0.05595857 0.09790918 -0.00054973
v 0.05488018 0.09824141 -0.00059134
v 0.04936242 0.09879854 -0.00384830
v 0.05486041 0.09803568 -0.00164925
v 0.05217882 0.09835642 -0.00334015
v 0.04826247 0.09851103 -0.00460990
v 0.04716252 0.09850464 -0.00461116
v 0.04716252 0.09893399 -0.00384830
v 0.04936242 0.09842797 -0.00450020
v 0.04622611 0.09888288 -0.00384830
v 0.04622611 0.09853531 0.00444984
v 0.04716252 0.09849953 0.00460241
v 0.04826247 0.09851103 0.00460871
v 0.04936242 0.09843436 0.00450910
v 0.04936242 0.09881004 0.00384838
v 0.05220577 0.09836280 0.00335535
v 0.05046238 0.09892121 0.00274885
v 0.05427628 0.09833086 0.00104913
v 0.05385032 0.09849314 0.00062924
v 0.05488018 0.09825419 0.00062924
v 0.05486041 0.09806379 0.00164932
v 0.05486041 0.09783507 0.00274885
v 0.05595857 0.09767022 0.00164932
v 0.05652113 0.09724982 0.00224070
v 0.05661458 0.09732649 0.00164932
v 0.05678533 0.09746449 0.00054854
v 0.05677994 0.09746322 -0.00054973
v 0.05660739 0.09732266 -0.00164925
v 0.05651753 0.09724727 -0.00223054
v 0.05598373 0.09742233 -0.00265799
v 0.05486041 0.09781462 -0.00274878
v 0.05156054 0.09843309 -0.00350407
v 0.05068704 0.09825802 -0.00426441
v 0.04995374 0.09835003 -0.00440941
v 0.05477054 0.09743127 -0.00387856
v 0.05563505 0.09735077 -0.00353181
v 0.04826247 0.09806124 -0.00515966
v 0.04716252 0.09807785 -0.00516092
v 0.04622611 0.09848036 -0.00457711
v 0.05434458 0.09724854 -0.00440689
v 0.04936242 0.09795262 -0.00504996
v 0.04826247 0.09751178 -0.00580904
v 0.04622611 0.09847270 0.00456206
v 0.04716252 0.09806891 0.00515217
v 0.04826247 0.09806124 0.00515847
v 0.04716252 0.09751944 0.00582929
v 0.04936242 0.09796413 0.00505886
v 0.05437154 0.09725493 0.00441579
v 0.04998070 0.09835642 0.00441831
v 0.04826247 0.09751178 0.00581037
v 0.05071400 0.09826441 0.00427457
v 0.05039228 0.09854298 0.00388368
v 0.05156054 0.09844331 0.00352306
v 0.05293908 0.09827080 0.00297077
v 0.05156054 0.09865798 0.00274885
v 0.05478672 0.09744150 0.00387990
v 0.05563864 0.09735332 0.00353567
v 0.05324282 0.09834747 0.00223692
v 0.05598553 0.09742872 0.00266437
v 0.05637195 0.09715398 0.00297456
v 0.05704954 0.09668502 0.00272489
v 0.05770016 0.09621606 0.00247523
v 0.05838314 0.09587361 0.00164932
v 0.05783316 0.09632595 0.00164932
v 0.05716456 0.09687542 0.00164932
v 0.05733531 0.09701470 0.00054854
v 0.05983897 0.09506602 0.00010722
v 0.05983897 0.09506602 -0.00009579
v 0.05704414 0.09667863 -0.00270590
v 0.05636655 0.09715143 -0.00296439
v 0.06101800 0.09403226 -0.00032906
v 0.06141341 0.09362208 -0.00063673
v 0.05156054 0.09814813 -0.00405383
v 0.05507788 0.09714887 -0.00426441
v 0.05598373 0.09692142 -0.00387856
v 0.04716252 0.09752711 -0.00583299
v 0.04622611 0.09749900 -0.00579895
v 0.04622611 0.09804846 -0.00512688
v 0.04622611 0.09841648 -0.00465907
v 0.05475257 0.09666458 -0.00490495
v 0.05442726 0.09618156 -0.00554298
v 0.05376045 0.09627101 -0.00564386
v 0.04936242 0.09740316 -0.00568421
v 0.05156054 0.09655724 -0.00590361
v 0.04936242 0.09669014 -0.00615453
v 0.04826247 0.09669014 -0.00627936
v 0.04622611 0.09803568 0.00511182
v 0.04622611 0.09756800 0.00569185
v 0.04622611 0.09748622 0.00579272
v 0.04716252 0.09669014 0.00630087
v 0.04826247 0.09669014 0.00628070
v 0.04622611 0.09681281 0.00619369
v 0.04622611 0.09669014 0.00626430
v 0.04936242 0.09741338 0.00569311
v 0.05018739 0.09730988 0.00557710
v 0.05092069 0.09721532 0.00546992
v 0.05376045 0.09628251 0.00565150
v 0.05443624 0.09618540 0.00554684
v 0.05477054 0.09666841 0.00491007
v 0.05510484 0.09715015 0.00426826
v 0.04936242 0.09669014 0.00616469
v 0.05156054 0.09657897 0.00590620
v 0.05156054 0.09815835 0.00407282
v 0.05260837 0.09841775 0.00266185
v 0.05598553 0.09692781 0.00387990
v 0.05677814 0.09636685 0.00384838
v 0.05757615 0.09611384 0.00320783
v 0.06090477 0.09394026 0.00109704
v 0.05972753 0.09497657 0.00084107
v 0.05800391 0.09646524 0.00054854
v 0.06101800 0.09403226 0.00036444
v 0.05757076 0.09610873 -0.00318127
v 0.05676915 0.09636046 -0.00384830
v 0.06215930 0.09300234 0.00054854
v 0.06215750 0.09300106 -0.00054973
v 0.06205865 0.09289756 -0.00128484
v 0.05595857 0.09635790 -0.00461116
v 0.05516056 0.09602567 -0.00540428
v 0.05652472 0.09615473 -0.00441067
v 0.04716252 0.09669014 -0.00630458
v 0.04622611 0.09669014 -0.00627053
v 0.05482086 0.09563082 -0.00583299
v 0.05376045 0.09558993 -0.00611292
v 0.05266050 0.09641157 -0.00579264
v 0.05266050 0.09558993 -0.00626423
v 0.05156054 0.09558993 -0.00637519
v 0.05046238 0.09558993 -0.00642815
v 0.04622611 0.09575349 0.00641814
v 0.04622611 0.09558993 0.00643957
v 0.04936242 0.09558993 0.00643957
v 0.05046238 0.09558993 0.00642822
v 0.05156054 0.09558993 0.00637779
v 0.05266050 0.09558993 0.00626935
v 0.05266050 0.09643074 0.00579902
v 0.05376045 0.09558993 0.00612056
v 0.05482626 0.09563210 0.00583559
v 0.05516955 0.09602822 0.00540435
v 0.05595857 0.09636429 0.00461628
v 0.05653191 0.09616112 0.00441453
v 0.05843347 0.09480918 0.00408795
v 0.05991086 0.09402971 0.00344614
v 0.05874440 0.09507241 0.00335409
v 0.06126244 0.09314417 0.00274885
v 0.05941120 0.09470568 0.00274885
v 0.05886123 0.09516952 0.00274885
v 0.06080772 0.09385720 0.00164932
v 0.06152844 0.09324896 0.00165185
v 0.06206044 0.09289884 0.00128744
v 0.06141341 0.09362847 0.00065824
v 0.05873721 0.09506602 -0.00334645
v 0.06152664 0.09323746 -0.00165051
v 0.06125884 0.09313395 -0.00274878
v 0.05990547 0.09402332 -0.00343850
v 0.06107552 0.09298317 -0.00351920
v 0.05958914 0.09375753 -0.00417236
v 0.06256549 0.09229187 0.00054854
v 0.06256549 0.09229187 -0.00054973
v 0.06194003 0.09275827 -0.00201744
v 0.06226534 0.09235193 -0.00165051
v 0.06216469 0.09204397 -0.00274878
v 0.05602147 0.09563082 -0.00519497
v 0.05569616 0.09529220 -0.00569934
v 0.06075559 0.09271610 -0.00425306
v 0.06002409 0.09302534 -0.00454055
v 0.04622611 0.09558993 -0.00643950
v 0.04936242 0.09558993 -0.00643950
v 0.05602147 0.09455873 -0.00594648
v 0.05486041 0.09448973 -0.00635249
v 0.05376045 0.09448973 -0.00643824
v 0.04622611 0.09465456 0.00632861
v 0.05925663 0.08675634 0.00643957
v 0.05925663 0.08679467 0.00644083
v 0.05266050 0.09448973 0.00643957
v 0.05376045 0.09448973 0.00643831
v 0.05486041 0.09448973 0.00635509
v 0.05602866 0.09456639 0.00594907
v 0.05570874 0.09529475 0.00570067
v 0.05602866 0.09563210 0.00520513
v 0.05696147 0.09552732 0.00464024
v 0.05770016 0.09511841 0.00446245
v 0.06076638 0.09271994 0.00425944
v 0.05959992 0.09376520 0.00417874
v 0.06107911 0.09298828 0.00352684
v 0.06181241 0.09259471 0.00274885
v 0.06194182 0.09275955 0.00202004
v 0.06216469 0.09204525 0.00274885
v 0.06226534 0.09235320 0.00165185
v 0.06180882 0.09259471 -0.00274878
v 0.06206943 0.09186252 -0.00343220
v 0.06146014 0.09228931 -0.00384326
v 0.06277038 0.09119294 0.00164932
v 0.06298786 0.09120827 0.00064563
v 0.06317837 0.09085304 0.00034301
v 0.06317837 0.09085304 -0.00035176
v 0.06298966 0.09120827 -0.00065060
v 0.06277398 0.09119294 -0.00164925
v 0.06252056 0.09119294 -0.00274878
v 0.05916497 0.09223181 -0.00571699
v 0.05684824 0.09423799 -0.00572960
v 0.06032963 0.09227014 -0.00493017
v 0.05990367 0.09182418 -0.00556190
v 0.06111146 0.09198264 -0.00458594
v 0.04622611 0.09448973 -0.00630458
v 0.05925663 0.08679467 -0.00644076
v 0.05925663 0.08675634 -0.00643950
v 0.05266050 0.09448973 -0.00643950
v 0.05815668 0.09229187 -0.00615327
v 0.05925663 0.09119294 -0.00621379
v 0.05595857 0.09339079 -0.00637897
v 0.05705672 0.09229187 -0.00639789
v 0.05815668 0.09119294 -0.00641428
v 0.05925663 0.09009274 -0.00642689
v 0.05486041 0.09339079 -0.00643950
v 0.04622611 0.09448973 0.00630718
v 0.05815668 0.08675634 0.00623530
v 0.06035659 0.08675634 0.00643327
v 0.05925663 0.08899381 0.00643957
v 0.05486041 0.09339079 0.00643957
v 0.05925663 0.09009274 0.00642696
v 0.05815668 0.09119294 0.00641562
v 0.05705672 0.09229187 0.00640048
v 0.05595857 0.09339079 0.00638031
v 0.05925663 0.09119294 0.00621765
v 0.05815668 0.09229187 0.00616469
v 0.05687160 0.09425077 0.00573219
v 0.05760311 0.09393770 0.00549514
v 0.05644204 0.09498424 0.00545227
v 0.05886662 0.09407571 0.00450910
v 0.06003307 0.09303428 0.00455071
v 0.06033682 0.09227653 0.00493529
v 0.06111326 0.09198774 0.00458602
v 0.06146194 0.09229059 0.00384585
v 0.06206943 0.09186252 0.00343227
v 0.06251696 0.09119294 0.00274885
v 0.06187173 0.09119294 -0.00420640
v 0.06306514 0.08942954 -0.00312075
v 0.06319455 0.08869607 -0.00347885
v 0.06220064 0.09119294 -0.00365664
v 0.06306335 0.08942571 0.00311200
v 0.06407523 0.08675634 0.00283964
v 0.06309929 0.09062942 0.00107687
v 0.06334732 0.09019496 0.00064563
v 0.06429091 0.08758565 0.00054854
v 0.06458387 0.08675634 0.00054854
v 0.06458747 0.08675634 -0.00054973
v 0.06310289 0.09063453 -0.00108436
v 0.06429271 0.08759076 -0.00054973
v 0.06303818 0.09045308 -0.00164925
v 0.06014631 0.09119294 -0.00576869
v 0.06132175 0.09119294 -0.00480534
v 0.06089579 0.09061281 -0.00548624
v 0.06069628 0.09119294 -0.00535510
v 0.04622611 0.09362719 -0.00583299
v 0.05819442 0.08675634 -0.00625162
v 0.05815668 0.08675634 -0.00623901
v 0.05925663 0.08899381 -0.00643950
v 0.06035659 0.08675634 -0.00643319
v 0.05929438 0.08675634 -0.00643950
v 0.06045904 0.09018474 -0.00593639
v 0.06035659 0.08899381 -0.00624027
v 0.06035659 0.08789360 -0.00637771
v 0.06035659 0.08679467 -0.00643193
v 0.04622611 0.09361697 0.00583685
v 0.05732812 0.08675634 0.00576372
v 0.06145655 0.08675634 0.00608778
v 0.06035659 0.08679467 0.00643201
v 0.06035659 0.08789360 0.00637779
v 0.06035659 0.08899381 0.00624035
v 0.05917576 0.09223564 0.00572715
v 0.06045904 0.09018602 0.00593773
v 0.06014990 0.09119294 0.00577128
v 0.05815668 0.09314673 0.00571832
v 0.05990726 0.09183185 0.00556575
v 0.05948849 0.09256404 0.00528457
v 0.06132355 0.09119294 0.00480668
v 0.06187352 0.09119294 0.00420648
v 0.06069988 0.09119294 0.00535644
v 0.06089579 0.09061409 0.00548758
v 0.06219884 0.09119294 0.00365672
v 0.06319455 0.08869224 0.00347892
v 0.06198855 0.09059364 -0.00437411
v 0.06407164 0.08679978 -0.00281813
v 0.06407883 0.08675634 -0.00284839
v 0.06298247 0.08809933 -0.00421271
v 0.06367803 0.08675634 -0.00380921
v 0.06364388 0.08679467 -0.00384830
v 0.06365646 0.08675634 0.00384838
v 0.06433584 0.08675634 0.00167707
v 0.06434303 0.08679467 0.00158502
v 0.06422261 0.08739397 0.00117522
v 0.06435561 0.08675634 0.00158754
v 0.06436100 0.08675634 -0.00159503
v 0.06434663 0.08679978 -0.00159251
v 0.06422441 0.08740036 -0.00118775
v 0.06398717 0.08781821 -0.00159251
v 0.06414353 0.08717035 -0.00192161
v 0.06102519 0.08988062 -0.00561864
v 0.06211796 0.08986145 -0.00451281
v 0.06311367 0.08736586 -0.00440563
v 0.04622611 0.09354541 -0.00574725
v 0.05734429 0.08675634 -0.00578382
v 0.06039434 0.08675634 -0.00642689
v 0.06118156 0.08899381 -0.00576869
v 0.06145655 0.08679467 -0.00608014
v 0.06145655 0.08675634 -0.00608644
v 0.04622611 0.09306878 0.00524170
v 0.05617964 0.08675634 0.00468437
v 0.04622611 0.09258194 0.00469193
v 0.04622611 0.09199030 0.00377650
v 0.06213234 0.08675634 0.00562376
v 0.06145655 0.08679467 0.00608147
v 0.06118515 0.08899381 0.00577002
v 0.06102699 0.08988189 0.00561997
v 0.06198855 0.09059620 0.00437544
v 0.06211976 0.08986400 0.00451414
v 0.06298247 0.08810189 0.00421152
v 0.06364388 0.08679467 0.00384838
v 0.06421542 0.08675634 -0.00224693
v 0.06409500 0.08675634 -0.00278030
v 0.06365646 0.08675634 -0.00384830
v 0.06311367 0.08736969 0.00440696
v 0.06322331 0.08675634 0.00451793
v 0.06433764 0.08675634 -0.00169969
v 0.06212155 0.08679467 -0.00561612
v 0.06212874 0.08675634 -0.00562242
v 0.06321432 0.08679467 -0.00450902
v 0.06250079 0.08774026 -0.00489235
v 0.06324308 0.08675634 -0.00448507
v 0.04622611 0.09300234 -0.00514957
v 0.05732093 0.08675634 -0.00576869
v 0.06149609 0.08780543 -0.00583173
v 0.06148530 0.08675634 -0.00607005
v 0.05557753 0.08675634 0.00395429
v 0.04622611 0.09175646 0.00321665
v 0.06320533 0.08675634 0.00453684
v 0.06212515 0.08679467 0.00561745
v 0.06149609 0.08780927 0.00583307
v 0.06202090 0.08738503 0.00551279
v 0.06173513 0.08899381 0.00522152
v 0.06322151 0.08675634 -0.00451533
v 0.04622611 0.09258704 -0.00468177
v 0.05619222 0.08675634 -0.00470951
v 0.04622611 0.09199414 -0.00377517
v 0.04622611 0.09249632 -0.00454685
v 0.05551103 0.08675634 0.00386225
v 0.04622611 0.09162101 0.00278290
v 0.05617424 0.08675634 -0.00469060
v 0.04622611 0.09162485 -0.00278156
v 0.05553799 0.08675634 -0.00392900
v 0.05525222 0.08675634 -0.00349272
v 0.05492871 0.08675634 0.00277533
v 0.04622611 0.09137183 0.00164932
v 0.05490354 0.08675634 0.00271354
v 0.04622611 0.09158012 -0.00259368
v 0.05489635 0.08675634 -0.00274751
v 0.04622611 0.09115716 0.00054854
v 0.05489096 0.08675634 0.00268076
v 0.04622611 0.09137695 -0.00164925
v 0.05456205 0.08675634 -0.00164925
v 0.04622611 0.09115844 -0.00054973
v 0.04622611 0.09134245 -0.00148533
v 0.05423314 0.08675634 -0.00054973
v 0.05423674 0.08675634 -0.00001383
v 0.05424393 0.08675634 0.00054854
v 0.05450274 0.08675634 0.00141227
f 1 2 8
f 1 8 19
f 1 19 21
f 1 21 41
f 1 41 70
f 1 70 110
f 1 110 109
f 1 109 108
f 1 108 152
f 1 152 196
f 1 196 234
f 1 234 284
f 1 284 331
f 1 331 360
f 1 360 372
f 1 372 375
f 1 375 374
f 1 374 379
f 1 379 385
f 1 385 389
f 1 389 392
f 1 392 391
f 1 391 387
f 1 387 383
f 1 383 377
f 1 377 365
f 1 365 340
f 1 340 339
f 1 339 337
f 1 337 294
f 1 294 245
f 1 245 201
f 1 201 160
f 1 160 159
f 1 159 124
f 1 124 123
f 1 123 120
f 1 120 119
f 1 119 118
f 1 118 74
f 1 74 42
f 1 42 22
f 1 22 10
f 1 10 3
f 1 3 4
f 1 4 5
f 1 5 6
f 1 6 7
f 1 7 2
f 2 7 9
f 2 9 8
f 3 10 11
f 3 11 12
f 3 12 4
f 4 12 5
f 5 13 6
f 5 12 14
f 5 14 15
f 5 15 16
f 5 16 13
f 6 13 7
f 7 13 16
f 7 16 17
f 7 17 18
f 7 18 9
f 8 9 19
f 9 18 20
f 9 20 21
f 9 21 19
f 10 22 23
f 10 23 11
f 11 24 25
f 11 25 12
f 11 23 24
f 12 25 26
f 12 26 27
f 12 27 14
f 14 27 28
f 14 28 29
f 14 29 15
f 15 29 28
f 15 28 30
f 15 30 17
f 15 17 16
f 17 30 31
f 17 31 32
f 17 32 33
f 17 33 18
f 18 34 20
f 18 33 35
f 18 35 36
f 18 36 34
f 20 37 38
f 20 38 39
f 20 39 21
f 20 34 40
f 20 40 37
f 21 39 41
f 22 42 23
f 23 42 43
f 23 43 24
f 24 44 45
f 24 45 46
f 24 46 25
f 24 43 44
f 25 46 47
f 25 47 48
f 25 48 49
f 25 49 27
f 25 27 26
f 27 49 50
f 27 50 28
f 28 50 30
f 30 50 49
f 30 49 51
f 30 51 31
f 31 51 52
f 31 52 53
f 31 53 54
f 31 54 55
f 31 55 56
f 31 56 57
f 31 57 58
f 31 58 32
f 32 58 59
f 32 59 60
f 32 60 61
f 32 61 62
f 32 62 35
f 32 35 33
f 34 36 63
f 34 63 64
f 34 64 65
f 34 65 40
f 35 62 36
f 36 66 63
f 36 62 67
f 36 67 66
f 37 40 68
f 37 68 69
f 37 69 38
f 38 69 70
f 38 70 39
f 39 70 41
f 40 65 71
f 40 71 72
f 40 72 73
f 40 73 68
f 42 74 43
f 43 75 44
f 43 74 75
f 44 76 45
f 44 75 77
f 44 77 76
f 45 78 79
f 45 79 80
f 45 80 46
f 45 76 81
f 45 81 78
f 46 80 82
f 46 82 83
f 46 83 84
f 46 84 47
f 47 85 86
f 47 86 48
f 47 84 87
f 47 87 88
f 47 88 53
f 47 53 85
f 48 86 49
f 49 86 89
f 49 89 52
f 49 52 51
f 52 89 53
f 53 88 90
f 53 90 54
f 53 89 85
f 54 90 55
f 55 90 91
f 55 91 92
f 55 92 93
f 55 93 94
f 55 94 95
f 55 95 96
f 55 96 56
f 56 96 97
f 56 97 57
f 57 97 98
f 57 98 99
f 57 99 58
f 58 60 59
f 58 99 60
f 60 100 101
f 60 101 61
f 60 99 102
f 60 102 103
f 60 103 100
f 61 101 67
f 61 67 62
f 63 66 104
f 63 104 64
f 64 104 66
f 64 66 105
f 64 105 71
f 64 71 65
f 66 67 105
f 67 101 106
f 67 106 105
f 68 73 107
f 68 107 69
f 69 107 108
f 69 108 109
f 69 109 110
f 69 110 70
f 71 111 112
f 71 112 113
f 71 113 114
f 71 114 72
f 71 105 111
f 72 114 73
f 73 114 115
f 73 115 116
f 73 116 117
f 73 117 107
f 74 118 75
f 75 118 119
f 75 119 120
f 75 120 77
f 76 77 81
f 77 121 122
f 77 122 81
f 77 120 123
f 77 123 124
f 77 124 121
f 78 81 125
f 78 125 126
f 78 126 79
f 79 82 80
f 79 126 127
f 79 127 128
f 79 128 129
f 79 129 130
f 79 130 131
f 79 131 82
f 81 122 132
f 81 132 133
f 81 133 125
f 82 131 134
f 82 134 84
f 82 84 83
f 84 134 87
f 85 89 135
f 85 135 86
f 86 135 89
f 87 131 88
f 87 134 131
f 88 131 136
f 88 136 91
f 88 91 90
f 91 136 137
f 91 137 138
f 91 138 92
f 92 138 93
f 93 138 139
f 93 139 94
f 94 139 140
f 94 140 95
f 95 140 96
f 96 140 97
f 97 140 141
f 97 141 98
f 98 140 142
f 98 142 102
f 98 102 99
f 98 141 140
f 100 143 101
f 100 103 143
f 101 143 144
f 101 144 106
f 102 142 145
f 102 145 146
f 102 146 103
f 103 146 147
f 103 147 143
f 105 106 148
f 105 148 149
f 105 149 111
f 106 144 150
f 106 150 148
f 107 117 151
f 107 151 152
f 107 152 108
f 111 149 112
f 112 149 153
f 112 153 113
f 113 153 154
f 113 154 155
f 113 155 114
f 114 155 115
f 115 155 154
f 115 154 116
f 116 154 156
f 116 156 117
f 117 156 157
f 117 157 158
f 117 158 151
f 121 124 159
f 121 159 160
f 121 160 161
f 121 161 162
f 121 162 122
f 122 162 163
f 122 163 164
f 122 164 132
f 125 133 165
f 125 165 126
f 126 165 128
f 126 128 127
f 128 165 166
f 128 166 167
f 128 167 129
f 129 167 168
f 129 168 130
f 130 168 131
f 131 168 169
f 131 169 136
f 132 164 166
f 132 166 133
f 133 166 165
f 136 169 170
f 136 170 137
f 137 171 172
f 137 172 173
f 137 173 138
f 137 170 171
f 138 173 174
f 138 174 175
f 138 175 176
f 138 176 139
f 139 177 178
f 139 178 179
f 139 179 180
f 139 180 142
f 139 142 140
f 139 176 177
f 142 180 145
f 143 181 144
f 143 147 182
f 143 182 183
f 143 183 181
f 144 181 184
f 144 184 185
f 144 185 186
f 144 186 150
f 145 187 188
f 145 188 146
f 145 180 179
f 145 179 187
f 146 188 147
f 147 189 183
f 147 183 182
f 147 188 190
f 147 190 191
f 147 191 189
f 148 150 192
f 148 192 193
f 148 193 149
f 149 193 153
f 150 186 194
f 150 194 195
f 150 195 192
f 151 196 152
f 151 158 197
f 151 197 196
f 153 193 198
f 153 198 199
f 153 199 154
f 154 199 156
f 156 199 157
f 157 199 200
f 157 200 158
f 158 200 197
f 160 201 202
f 160 202 203
f 160 203 161
f 161 203 204
f 161 204 205
f 161 205 162
f 162 205 163
f 163 205 206
f 163 206 164
f 164 206 166
f 166 206 167
f 167 206 207
f 167 207 208
f 167 208 168
f 168 208 169
f 169 208 209
f 169 209 170
f 170 209 210
f 170 210 211
f 170 211 212
f 170 212 213
f 170 213 171
f 171 213 172
f 172 213 214
f 172 214 174
f 172 174 173
f 174 214 215
f 174 215 216
f 174 216 179
f 174 179 178
f 174 178 175
f 175 178 176
f 176 178 177
f 179 216 217
f 179 217 218
f 179 218 187
f 181 183 184
f 183 189 219
f 183 219 185
f 183 185 184
f 185 219 220
f 185 220 221
f 185 221 194
f 185 194 186
f 187 218 217
f 187 217 222
f 187 222 223
f 187 223 224
f 187 224 225
f 187 225 188
f 188 225 226
f 188 226 227
f 188 227 191
f 188 191 190
f 189 191 220
f 189 220 219
f 191 227 228
f 191 228 220
f 192 195 193
f 193 229 230
f 193 230 198
f 193 195 231
f 193 231 232
f 193 232 229
f 194 231 195
f 194 221 233
f 194 233 231
f 196 197 235
f 196 235 236
f 196 236 234
f 197 200 237
f 197 237 235
f 198 230 229
f 198 229 238
f 198 238 199
f 199 238 239
f 199 239 240
f 199 240 200
f 200 240 241
f 200 241 242
f 200 242 243
f 200 243 244
f 200 244 237
f 201 245 202
f 202 246 295
f 202 295 338
f 202 338 364
f 202 364 376
f 202 376 382
f 202 382 384
f 202 384 388
f 202 388 396
f 202 396 395
f 202 395 394
f 202 394 393
f 202 393 390
f 202 390 386
f 202 386 381
f 202 381 380
f 202 380 378
f 202 378 373
f 202 373 361
f 202 361 332
f 202 332 286
f 202 286 285
f 202 285 236
f 202 236 289
f 202 289 288
f 202 288 333
f 202 333 336
f 202 336 363
f 202 363 356
f 202 356 371
f 202 371 359
f 202 359 351
f 202 351 316
f 202 316 314
f 202 314 350
f 202 350 349
f 202 349 354
f 202 354 323
f 202 323 276
f 202 276 275
f 202 275 322
f 202 322 319
f 202 319 271
f 202 271 318
f 202 318 353
f 202 353 366
f 202 366 341
f 202 341 296
f 202 296 247
f 202 247 203
f 202 245 246
f 203 247 248
f 203 248 249
f 203 249 204
f 204 249 205
f 205 249 250
f 205 250 251
f 205 251 252
f 205 252 253
f 205 253 206
f 206 253 254
f 206 254 255
f 206 255 207
f 207 255 256
f 207 256 208
f 208 256 257
f 208 257 258
f 208 258 209
f 209 258 210
f 210 258 211
f 211 258 259
f 211 259 212
f 212 259 260
f 212 260 261
f 212 261 262
f 212 262 263
f 212 263 214
f 212 214 213
f 214 263 264
f 214 264 215
f 215 264 216
f 216 264 217
f 217 265 222
f 217 264 265
f 220 266 233
f 220 233 221
f 220 228 267
f 220 267 268
f 220 268 269
f 220 269 266
f 222 265 270
f 222 270 271
f 222 271 272
f 222 272 223
f 223 272 273
f 223 273 224
f 224 273 274
f 224 274 275
f 224 275 276
f 224 276 225
f 225 277 226
f 225 276 278
f 225 278 277
f 226 277 227
f 227 277 279
f 227 279 267
f 227 267 228
f 229 239 238
f 229 232 239
f 231 233 232
f 232 233 280
f 232 280 239
f 233 266 281
f 233 281 282
f 233 282 283
f 233 283 280
f 234 236 285
f 234 285 286
f 234 286 284
f 235 244 287
f 235 287 288
f 235 288 289
f 235 289 236
f 235 237 244
f 239 243 242
f 239 242 241
f 239 241 240
f 239 280 290
f 239 290 291
f 239 291 243
f 243 287 244
f 243 291 292
f 243 292 293
f 243 293 288
f 243 288 287
f 245 294 246
f 246 294 295
f 247 296 297
f 247 297 250
f 247 250 248
f 248 250 249
f 250 254 251
f 250 297 298
f 250 298 299
f 250 299 254
f 251 254 252
f 252 254 253
f 254 300 255
f 254 299 301
f 254 301 302
f 254 302 300
f 255 300 256
f 256 300 303
f 256 303 304
f 256 304 257
f 257 304 305
f 257 305 261
f 257 261 260
f 257 260 258
f 258 260 259
f 261 305 304
f 261 304 262
f 262 306 307
f 262 307 264
f 262 264 263
f 262 304 302
f 262 302 308
f 262 308 309
f 262 309 306
f 264 307 310
f 264 310 311
f 264 311 270
f 264 270 265
f 266 269 312
f 266 312 281
f 267 279 313
f 267 313 314
f 267 314 268
f 268 315 269
f 268 314 316
f 268 316 317
f 268 317 315
f 269 315 312
f 270 311 271
f 271 319 320
f 271 320 272
f 271 311 318
f 272 320 321
f 272 321 273
f 273 321 274
f 274 321 275
f 275 321 320
f 275 320 322
f 276 323 324
f 276 324 325
f 276 325 278
f 277 278 325
f 277 325 326
f 277 326 327
f 277 327 313
f 277 313 279
f 280 283 282
f 280 282 290
f 281 312 282
f 282 328 290
f 282 312 329
f 282 329 330
f 282 330 328
f 284 286 332
f 284 332 331
f 288 293 333
f 290 328 334
f 290 334 335
f 290 335 291
f 291 335 336
f 291 336 292
f 292 336 333
f 292 333 293
f 294 337 295
f 295 337 339
f 295 339 340
f 295 340 338
f 296 341 342
f 296 342 299
f 296 299 298
f 296 298 297
f 299 342 301
f 300 302 304
f 300 304 303
f 301 342 343
f 301 343 344
f 301 344 309
f 301 309 302
f 302 309 308
f 306 345 307
f 306 309 345
f 307 345 310
f 309 344 346
f 309 346 345
f 310 347 311
f 310 345 347
f 311 347 348
f 311 348 318
f 312 315 330
f 312 330 329
f 313 327 349
f 313 349 350
f 313 350 314
f 315 317 330
f 316 351 317
f 317 351 330
f 318 348 352
f 318 352 353
f 319 322 320
f 323 354 324
f 324 354 349
f 324 349 327
f 324 327 325
f 325 327 326
f 328 355 356
f 328 356 334
f 328 330 357
f 328 357 358
f 328 358 355
f 330 351 359
f 330 359 357
f 331 332 361
f 331 361 360
f 334 356 362
f 334 362 335
f 335 362 363
f 335 363 336
f 338 340 364
f 340 365 364
f 341 366 367
f 341 367 344
f 341 344 343
f 341 343 368
f 341 368 342
f 342 368 343
f 344 367 369
f 344 369 366
f 344 366 370
f 344 370 346
f 345 346 352
f 345 352 347
f 346 370 366
f 346 366 352
f 347 352 348
f 352 366 353
f 355 358 357
f 355 357 371
f 355 371 356
f 356 363 362
f 357 359 371
f 360 361 372
f 361 373 374
f 361 374 375
f 361 375 372
f 364 365 376
f 365 377 376
f 366 369 367
f 373 378 374
f 374 378 380
f 374 380 381
f 374 381 379
f 376 377 382
f 377 383 384
f 377 384 382
f 379 381 386
f 379 386 385
f 383 387 388
f 383 388 384
f 385 386 389
f 386 390 391
f 386 391 392
f 386 392 389
f 387 391 393
f 387 393 394
f 387 394 395
f 387 395 396
f 387 396 388
f 390 393 391

