# https://github.com/mikedh/trimesh
v -0.02029398 0.00652337 0.03404380
v -0.02029398 0.00581534 0.03414735
v -0.02029398 0.00736772 0.03408482
v 0.00240144 0.00736772 0.03944605
v 0.00240144 0.00652337 0.03940772
v 0.00240144 0.00575256 0.03948370
v -0.02029398 0.00566667 0.03436989
v -0.02029398 0.00736772 0.03550412
v 0.00240144 0.00736772 0.04059776
v 0.00240144 0.00575256 0.03963094
v -0.00452093 0.00558467 0.03934385
v -0.01996964 0.00564869 0.03462471
v -0.02029398 0.00565592 0.03462605
v -0.02029398 0.00652337 0.03547320
v -0.01991188 0.00652337 0.03564801
v -0.01841899 0.00736772 0.03635194
v 0.00232147 0.00736772 0.04062466
v 0.00240144 0.00652337 0.04050296
v 0.00240144 0.00576137 0.04009485
v -0.00452093 0.00558467 0.03990055
v -0.00562060 0.00556616 0.03929073
v -0.01991188 0.00565521 0.03540865
v -0.02029398 0.00566085 0.03512694
v -0.01661286 0.00562030 0.03602922
v -0.01661286 0.00562030 0.03661550
v -0.02029398 0.00611936 0.03542411
v -0.01831236 0.00592485 0.03630690
v -0.01836790 0.00652337 0.03633110
v -0.01771254 0.00652337 0.03660273
v -0.01786582 0.00736772 0.03658121
v 0.00189937 0.00736772 0.04073357
v 0.00175275 0.00652337 0.04071408
v 0.00161279 0.00594407 0.04069592
v 0.00097743 0.00584920 0.04073761
v -0.00012225 0.00578465 0.04076585
v -0.00562060 0.00556616 0.03987029
v -0.02029398 0.00575361 0.03532326
v -0.01441352 0.00562347 0.03763947
v -0.01221418 0.00569031 0.03866882
v -0.01771254 0.00574197 0.03643128
v -0.01522661 0.00577090 0.03749492
v -0.01287621 0.00586965 0.03853167
v -0.01221418 0.00652337 0.03887927
v -0.01296507 0.00652337 0.03856864
v -0.01301616 0.00736772 0.03858949
v 0.00097743 0.00736772 0.04085460
v 0.00097743 0.00652337 0.04081627
v -0.00012225 0.00652337 0.04087275
v -0.00122192 0.00588552 0.04072147
v -0.00672027 0.00559913 0.03980978
v -0.01111451 0.00563529 0.03885573
v -0.00891961 0.00579241 0.03966523
v -0.00968605 0.00589981 0.03961413
v -0.01044138 0.00652337 0.03952269
v -0.01111451 0.00652337 0.03928401
v -0.01054801 0.00712595 0.03957312
v -0.01082571 0.00736772 0.03947361
v -0.01123447 0.00736772 0.03931023
v 0.00072195 0.00736772 0.04086804
v -0.00037772 0.00736772 0.04089090
v -0.00122192 0.00736772 0.04082299
v -0.00122192 0.00652337 0.04078400
v -0.00012225 0.00736772 0.04091107
v -0.00177508 0.00597211 0.04068517
v -0.00781994 0.00567461 0.03973784
v -0.00989265 0.00652337 0.03964170
v -0.01007704 0.00736772 0.03965649
v -0.01029698 0.00736772 0.03962287
v -0.00137298 0.00736772 0.04080350
v -0.00672027 0.00652337 0.04006056
v -0.00891961 0.00652337 0.03977079
v -0.00891961 0.00736772 0.03980978
f 1 2 7
f 1 7 13
f 1 13 23
f 1 23 37
f 1 37 26
f 1 26 14
f 1 14 8
f 1 8 3
f 1 3 4
f 1 4 5
f 1 5 6
f 1 6 2
f 2 6 7
f 3 8 16
f 3 16 30
f 3 30 45
f 3 45 58
f 3 58 57
f 3 57 68
f 3 68 67
f 3 67 72
f 3 72 69
f 3 69 61
f 3 61 60
f 3 60 63
f 3 63 59
f 3 59 46
f 3 46 31
f 3 31 17
f 3 17 9
f 3 9 4
f 4 9 18
f 4 18 19
f 4 19 10
f 4 10 6
f 4 6 5
f 6 10 20
f 6 20 11
f 6 11 12
f 6 12 7
f 7 12 13
f 8 14 15
f 8 15 16
f 9 17 18
f 10 19 20
f 11 20 36
f 11 36 21
f 11 21 12
f 12 22 23
f 12 23 13
f 12 21 24
f 12 24 25
f 12 25 22
f 14 26 15
f 15 26 27
f 15 27 28
f 15 28 16
f 16 28 29
f 16 29 30
f 17 31 32
f 17 32 33
f 17 33 18
f 18 33 19
f 19 33 34
f 19 34 35
f 19 35 20
f 20 35 36
f 21 36 25
f 21 25 24
f 22 37 23
f 22 25 38
f 22 38 39
f 22 39 40
f 22 40 37
f 25 36 38
f 26 37 27
f 27 29 28
f 27 37 40
f 27 40 41
f 27 41 42
f 27 42 43
f 27 43 44
f 27 44 29
f 29 44 45
f 29 45 30
f 31 46 47
f 31 47 32
f 32 47 33
f 33 47 34
f 34 47 48
f 34 48 35
f 35 48 49
f 35 49 50
f 35 50 36
f 36 50 51
f 36 51 38
f 38 51 39
f 39 42 41
f 39 41 40
f 39 51 52
f 39 52 53
f 39 53 42
f 42 53 54
f 42 54 55
f 42 55 43
f 43 55 56
f 43 56 57
f 43 57 58
f 43 58 45
f 43 45 44
f 46 59 47
f 47 59 48
f 48 60 61
f 48 61 62
f 48 62 49
f 48 59 63
f 48 63 60
f 49 62 64
f 49 64 53
f 49 53 52
f 49 52 65
f 49 65 50
f 50 65 51
f 51 65 52
f 53 64 66
f 53 66 56
f 53 56 54
f 54 56 55
f 56 66 67
f 56 67 68
f 56 68 57
f 61 69 62
f 62 69 70
f 62 70 64
f 64 70 71
f 64 71 66
f 66 71 67
f 67 71 72
f 69 72 70
f 70 72 71

