# https://github.com/mikedh/trimesh
v 0.04101793 0.01014974 0.00020900
v 0.04053461 0.00872270 0.00384916
v 0.04048716 0.00762375 0.00384916
v 0.04047827 0.00743762 0.00384916
v 0.04059095 0.00743762 0.00274833
v 0.04064877 0.00743762 0.00165088
v 0.04069324 0.00743762 0.00073578
v 0.04070066 0.00743762 0.00055005
v 0.04101793 0.01014974 -0.00020972
v 0.04045899 0.01014974 0.00494998
v 0.04044417 0.00982210 0.00494998
v 0.04045455 0.00743762 0.00403488
v 0.04008094 0.00652391 0.00655057
v 0.04005277 0.00607218 0.00655057
v 0.04002608 0.00594184 0.00669577
v 0.04003498 0.00592042 0.00655057
v 0.04070066 0.00743762 -0.00054740
v 0.04064877 0.00743762 -0.00164485
v 0.04060429 0.00743762 -0.00255995
v 0.04059095 0.00743762 -0.00274567
v 0.04050051 0.00743762 -0.00366078
v 0.04048716 0.00762375 -0.00384650
v 0.04053461 0.00872270 -0.00384650
v 0.04045899 0.01014974 -0.00494732
v 0.04024847 0.01014974 0.00654719
v 0.04021140 0.00930834 0.00654719
v 0.04039376 0.00872270 0.00494998
v 0.04033446 0.00743762 0.00494998
v 0.04004387 0.00652391 0.00683759
v 0.03946122 0.00652391 0.01044736
v 0.03906092 0.00573205 0.01135233
v 0.03917953 0.00559011 0.01044736
v 0.03923290 0.00559770 0.00934653
v 0.03926551 0.00567135 0.00824571
v 0.03945380 0.00581776 0.00655057
v 0.03955907 0.00743762 -0.00954310
v 0.04006463 0.00743762 -0.00699027
v 0.04008242 0.00743762 -0.00685857
v 0.04033446 0.00743762 -0.00494732
v 0.04047827 0.00743762 -0.00384650
v 0.04044417 0.00982210 -0.00494732
v 0.04041600 0.01014974 -0.00527487
v 0.03518396 0.01014974 0.00654719
v 0.03218321 0.00930834 0.02495395
v 0.03351457 0.00930834 0.02321492
v 0.03490078 0.00930834 0.02139822
v 0.03519285 0.00930834 0.02097950
v 0.03544934 0.00930834 0.02061143
v 0.03574586 0.00930834 0.02006102
v 0.03675105 0.00930834 0.01767702
v 0.03798456 0.00930834 0.01470546
v 0.03929220 0.00930834 0.01154819
v 0.03954721 0.00930834 0.01044736
v 0.04003498 0.00930834 0.00787089
v 0.04002757 0.00895303 0.00780673
v 0.03947752 0.00703678 0.01044736
v 0.03926403 0.00872226 0.01154819
v 0.03920918 0.00762286 0.01154819
v 0.03915877 0.00703678 0.01159884
v 0.03910836 0.00646499 0.01164949
v 0.03889487 0.00605924 0.01208509
v 0.03787189 0.00584677 0.01443532
v 0.03683556 0.00575705 0.01678555
v 0.03801570 0.00566956 0.01374646
v 0.03698085 0.00561868 0.01594136
v 0.03596380 0.00562626 0.01813964
v 0.03860132 0.00559011 0.01044736
v 0.03868731 0.00559770 0.00934653
v 0.03876292 0.00567135 0.00824571
v 0.02587184 0.00743762 -0.00954310
v 0.03956055 0.00747065 -0.00954310
v 0.04005128 0.01014974 -0.00804382
v 0.04002757 0.00895303 -0.00780745
v 0.03999495 0.00822054 -0.00767913
v 0.04016989 0.01014974 -0.00714560
v 0.03516765 0.01014974 -0.00713547
v 0.03054791 0.00930834 0.02035480
v 0.03067245 0.00930834 0.02495395
v 0.03208684 0.00762286 0.02495395
v 0.03249603 0.00762286 0.02442042
v 0.03485927 0.00762286 0.02133743
v 0.03488892 0.00872226 0.02137458
v 0.03484296 0.00703678 0.02131380
v 0.03482665 0.00652391 0.02129354
v 0.03509797 0.00703678 0.02093560
v 0.03543748 0.00872226 0.02057766
v 0.03567766 0.00652391 0.01991919
v 0.03583778 0.00703678 0.01960178
v 0.03602014 0.00762286 0.01924046
v 0.03596825 0.00652391 0.01924046
v 0.03796974 0.00872226 0.01467169
v 0.03893342 0.00703678 0.01214587
v 0.03564801 0.00589810 0.01985841
v 0.03577847 0.00571643 0.01924046
v 0.03471250 0.00571643 0.02114158
v 0.03284296 0.00567715 0.02253619
v 0.03537076 0.00562626 0.01813964
v 0.03396527 0.00979979 -0.00954310
v 0.03216986 0.00575214 0.02292114
v 0.02686814 0.00743762 0.00654719
v 0.03054791 0.00930834 0.01414154
v 0.03965543 0.01014974 -0.00954310
v 0.03516913 0.01014974 -0.00714560
v 0.03066356 0.00915345 0.02495395
v 0.03205274 0.00703678 0.02495395
v 0.03537669 0.00652391 0.02046623
v 0.03354867 0.00614226 0.02292114
v 0.03540783 0.00762286 0.02052363
v 0.03347898 0.00591015 0.02292114
v 0.03361835 0.00576821 0.02253619
v 0.03283110 0.00570483 0.02292114
v 0.03506535 0.01005689 -0.00824643
v 0.03506535 0.00991674 -0.00934388
v 0.03861466 0.01014974 -0.00954310
v 0.03056274 0.00703678 0.02495395
f 1 2 3
f 1 3 4
f 1 4 5
f 1 5 6
f 1 6 7
f 1 7 8
f 1 8 17
f 1 17 9
f 1 9 24
f 1 24 42
f 1 42 75
f 1 75 72
f 1 72 102
f 1 102 114
f 1 114 103
f 1 103 76
f 1 76 43
f 1 43 25
f 1 25 10
f 1 10 2
f 2 10 3
f 3 10 11
f 3 11 12
f 3 12 4
f 4 12 13
f 4 13 14
f 4 14 15
f 4 15 5
f 5 15 16
f 5 16 6
f 6 16 7
f 7 16 8
f 8 16 17
f 9 17 18
f 9 18 19
f 9 19 20
f 9 20 21
f 9 21 22
f 9 22 23
f 9 23 24
f 10 25 26
f 10 26 11
f 11 27 12
f 11 26 27
f 12 27 26
f 12 26 28
f 12 28 29
f 12 29 13
f 13 29 15
f 13 15 14
f 15 29 30
f 15 30 31
f 15 31 32
f 15 32 16
f 16 32 33
f 16 33 34
f 16 34 35
f 16 35 36
f 16 36 37
f 16 37 38
f 16 38 39
f 16 39 40
f 16 40 21
f 16 21 20
f 16 20 19
f 16 19 18
f 16 18 17
f 21 40 22
f 22 24 23
f 22 40 39
f 22 39 41
f 22 41 24
f 24 41 42
f 25 43 78
f 25 78 44
f 25 44 45
f 25 45 46
f 25 46 47
f 25 47 48
f 25 48 49
f 25 49 50
f 25 50 51
f 25 51 52
f 25 52 53
f 25 53 54
f 25 54 26
f 26 54 55
f 26 55 29
f 26 29 28
f 29 55 30
f 30 56 52
f 30 52 57
f 30 57 58
f 30 58 59
f 30 59 60
f 30 60 31
f 30 55 54
f 30 54 56
f 31 60 61
f 31 61 62
f 31 62 63
f 31 63 64
f 31 64 32
f 32 64 65
f 32 65 66
f 32 66 97
f 32 97 67
f 32 67 68
f 32 68 33
f 33 68 69
f 33 69 34
f 34 69 35
f 35 69 70
f 35 70 36
f 36 71 72
f 36 72 73
f 36 73 74
f 36 74 37
f 36 70 98
f 36 98 114
f 36 114 102
f 36 102 71
f 37 74 73
f 37 73 38
f 38 73 39
f 39 73 75
f 39 75 41
f 41 75 42
f 43 76 77
f 43 77 78
f 44 78 104
f 44 104 115
f 44 115 105
f 44 105 79
f 44 79 80
f 44 80 81
f 44 81 45
f 45 81 82
f 45 82 46
f 46 82 47
f 47 82 48
f 48 82 81
f 48 81 83
f 48 83 84
f 48 84 85
f 48 85 86
f 48 86 49
f 49 86 87
f 49 87 88
f 49 88 89
f 49 89 50
f 50 89 90
f 50 90 51
f 51 90 91
f 51 91 57
f 51 57 52
f 52 56 53
f 53 56 54
f 57 91 92
f 57 92 58
f 58 92 59
f 59 92 60
f 60 92 90
f 60 90 61
f 61 90 93
f 61 93 62
f 62 93 63
f 63 93 94
f 63 94 64
f 64 94 65
f 65 94 66
f 66 94 95
f 66 95 96
f 66 96 97
f 67 97 68
f 68 70 69
f 68 97 96
f 68 96 70
f 70 96 99
f 70 99 100
f 70 100 78
f 70 78 77
f 70 77 101
f 70 101 98
f 71 102 72
f 72 75 73
f 76 103 98
f 76 98 101
f 76 101 77
f 78 100 104
f 79 105 80
f 80 105 81
f 81 105 83
f 83 105 84
f 84 95 93
f 84 93 106
f 84 106 85
f 84 105 107
f 84 107 95
f 85 106 108
f 85 108 86
f 86 108 87
f 87 93 90
f 87 90 88
f 87 108 106
f 87 106 93
f 88 90 89
f 90 92 91
f 93 95 94
f 95 107 109
f 95 109 110
f 95 110 111
f 95 111 96
f 96 111 99
f 98 103 112
f 98 112 113
f 98 113 114
f 99 111 115
f 99 115 100
f 100 115 104
f 103 114 112
f 105 115 111
f 105 111 109
f 105 109 107
f 109 111 110
f 112 114 113

