# https://github.com/mikedh/trimesh
v -0.01962218 0.10218052 0.04035355
v -0.01962218 0.10315057 0.03999339
v -0.02101363 0.10293094 0.03970479
v -0.02157654 0.10274791 0.03958792
v -0.02101363 0.10218052 0.03983598
v -0.02101363 0.10108234 0.03985506
v -0.01962218 0.09998416 0.04033924
v -0.01991460 0.10313227 0.03991707
v -0.01962218 0.10352578 0.03903219
v -0.01991460 0.10352578 0.03903219
v -0.02101363 0.10337021 0.03903219
v -0.02201153 0.10307736 0.03904650
v -0.02294241 0.10300415 0.03868634
v -0.02308862 0.10218052 0.03879367
v -0.02214433 0.10218052 0.03934464
v -0.02159360 0.10218052 0.03959508
v -0.02161553 0.10108234 0.03960462
v -0.02160822 0.09998416 0.03960223
v -0.02101363 0.09998416 0.03984790
v -0.01962218 0.09888598 0.04030346
v -0.01962218 0.10351663 0.03573354
v -0.01991460 0.10353494 0.03573354
v -0.02211387 0.10354409 0.03793502
v -0.02327017 0.10323294 0.03799226
v -0.02730683 0.10297669 0.03537338
v -0.02608231 0.10291264 0.03639422
v -0.02488580 0.10277536 0.03740313
v -0.02648195 0.10315972 0.03573831
v -0.03085977 0.10313227 0.03242535
v -0.02490408 0.10218052 0.03741506
v -0.02491748 0.10108234 0.03742699
v -0.02310202 0.10108234 0.03880321
v -0.02216505 0.10108234 0.03935418
v -0.02215774 0.09998416 0.03935180
v -0.02158142 0.09927950 0.03959031
v -0.02110867 0.09890429 0.03976919
v -0.01962218 0.09369710 0.04011981
v -0.01962218 0.09448412 0.04015081
v -0.03206968 0.10321463 0.02364804
v -0.03200754 0.10350748 0.02474282
v -0.01962218 0.10310481 0.03473417
v -0.03206968 0.10314142 0.02344531
v -0.02321168 0.10355324 0.03353444
v -0.02980827 0.10354409 0.02803908
v -0.02761022 0.10353494 0.03353444
v -0.03090851 0.10352578 0.03133534
v -0.02541095 0.10349833 0.03573354
v -0.02431193 0.10338851 0.03683309
v -0.02608231 0.10328784 0.03573831
v -0.03163713 0.10295839 0.03204850
v -0.03046013 0.10286688 0.03306457
v -0.03106813 0.10217136 0.03268533
v -0.03051861 0.10217136 0.03310750
v -0.02743598 0.10217136 0.03547356
v -0.02764799 0.10322378 0.03468408
v -0.02980827 0.10346172 0.03243728
v -0.03200632 0.10315972 0.03131388
v -0.02546821 0.10108234 0.03700482
v -0.02926728 0.10031362 0.03409256
v -0.02491383 0.09998416 0.03742460
v -0.02309715 0.09998416 0.03880083
v -0.02306547 0.09888598 0.03877698
v -0.02298383 0.09668963 0.03871973
v -0.02269385 0.08898409 0.03850746
v -0.02267070 0.08834348 0.03848837
v -0.02158507 0.05518768 0.03739837
v -0.02158507 0.07721529 0.03849553
v -0.02047265 0.04549627 0.03738883
v -0.02050676 0.06827429 0.03850268
v -0.01986709 0.08898409 0.03979304
v -0.01991460 0.09228777 0.03993615
v -0.01991460 0.09338594 0.03998862
v -0.01973549 0.08678773 0.03973819
v -0.01962218 0.08491168 0.03969048
v -0.03206968 0.10350748 0.02474282
v -0.03206968 0.10265639 0.02303745
v -0.01962218 0.10218052 0.03440740
v -0.03200754 0.10350748 0.02913625
v -0.03200754 0.10348918 0.03023580
v -0.03206968 0.10347087 0.03023341
v -0.03206968 0.10313227 0.03127810
v -0.03206968 0.10243676 0.03172174
v -0.03206968 0.10217136 0.03178614
v -0.03173339 0.10217136 0.03213675
v -0.03108153 0.10107319 0.03269726
v -0.03053202 0.10107319 0.03311943
v -0.02618343 0.10107319 0.03645624
v -0.02926728 0.10088101 0.03409256
v -0.03107665 0.09997501 0.03269249
v -0.03052714 0.09997501 0.03311466
v -0.02488824 0.09907817 0.03740552
v -0.02349192 0.09558230 0.03827610
v -0.02279132 0.07249312 0.03748423
v -0.02159482 0.03621667 0.03630836
v -0.02157045 0.03557606 0.03628928
v -0.02077969 0.01006174 0.03539962
v -0.02047630 0.02343205 0.03629166
v -0.02000842 0.02304769 0.03646816
v -0.01984028 0.02192206 0.03648247
v -0.01970991 0.01972570 0.03642761
v -0.01962218 0.01827977 0.03639184
v -0.03206968 0.10349833 0.02913625
v -0.03206968 0.10217136 0.02287049
v -0.01962218 0.07579681 0.03239911
v -0.03206968 0.07468033 0.02001310
v -0.03206968 0.07510129 0.02004649
v -0.03206968 0.07577850 0.02010611
v -0.03206968 0.10152161 0.03180045
v -0.03206968 0.10107319 0.03180999
v -0.03174557 0.10107319 0.03214629
v -0.03174070 0.09997501 0.03214391
v -0.03171390 0.09887683 0.03212005
v -0.03104498 0.09887683 0.03266864
v -0.03049546 0.09887683 0.03309081
v -0.02608231 0.09886768 0.03647770
v -0.02855572 0.09557315 0.03439071
v -0.02819872 0.06698393 0.03301687
v -0.02608231 0.01092198 0.03140928
v -0.02160944 0.01752020 0.03522073
v -0.02132920 0.01006174 0.03500369
v -0.02058352 0.01006174 0.03548549
v -0.01982444 0.01417076 0.03608893
v -0.01999624 0.01532384 0.03607700
v -0.01962218 0.01532384 0.03624157
v -0.01962218 0.07550396 0.03238004
v -0.03206968 0.01862753 0.01606569
v -0.03206968 0.01953352 0.01612770
v -0.03206968 0.10042343 0.03180522
v -0.03206968 0.09997501 0.03180045
v -0.03206968 0.09887683 0.03174559
v -0.03160911 0.09557315 0.03202465
v -0.03147752 0.09141838 0.03190301
v -0.03145315 0.09068626 0.03188154
v -0.03100477 0.09777865 0.03263763
v -0.02820969 0.01006174 0.02972538
v -0.02608231 0.01006174 0.03135920
v -0.02188968 0.01006174 0.03457436
v -0.03055151 0.08127854 0.03203419
v -0.02926363 0.02351442 0.02969199
v -0.01991460 0.01006174 0.03577409
v -0.01962218 0.01432633 0.03618672
v -0.01962218 0.07468948 0.03233710
v -0.03206968 0.01720905 0.01598698
v -0.03206968 0.09557315 0.03151662
v -0.03152991 0.07688583 0.03087024
v -0.03147386 0.07496402 0.03080346
v -0.02879088 0.01092198 0.02926982
v -0.02875920 0.01006174 0.02923881
v -0.02912107 0.01972570 0.02956557
v -0.03036753 0.04102119 0.02969676
v -0.02934648 0.01006174 0.02869023
v -0.01962218 0.01006174 0.03589811
v -0.01962218 0.01526894 0.02988757
v -0.01962218 0.01428058 0.02984702
v -0.01962218 0.01312749 0.02980647
v -0.03196855 0.01312749 0.01598698
v -0.03206968 0.01270652 0.01598698
v -0.03206968 0.08568040 0.03081539
v -0.03206968 0.08127854 0.03050055
v -0.03206968 0.08018036 0.03041945
v -0.03206968 0.07196234 0.02980647
v -0.03163470 0.06588576 0.02991619
v -0.02998494 0.01312749 0.02810348
v -0.02995326 0.01202931 0.02806055
v -0.03035900 0.01147107 0.02749050
v -0.03171268 0.01006174 0.02562294
v -0.01962218 0.01006174 0.03035267
v -0.01962218 0.01202931 0.02999490
v -0.03206968 0.01213913 0.01706029
v -0.03043942 0.01006174 0.01877521
v -0.03100477 0.01006174 0.01820993
v -0.03180893 0.01006174 0.01823617
v -0.03206968 0.01312749 0.02538920
v -0.03173704 0.01092198 0.02565633
v -0.03206968 0.01006174 0.02515784
v -0.03206968 0.01021732 0.02516976
v -0.03206968 0.01212998 0.01708415
v -0.03206968 0.01006174 0.02316863
f 1 2 3
f 1 3 4
f 1 4 5
f 1 5 6
f 1 6 19
f 1 19 7
f 1 7 20
f 1 20 38
f 1 38 37
f 1 37 74
f 1 74 101
f 1 101 124
f 1 124 141
f 1 141 152
f 1 152 167
f 1 167 168
f 1 168 155
f 1 155 154
f 1 154 153
f 1 153 142
f 1 142 125
f 1 125 104
f 1 104 77
f 1 77 41
f 1 41 21
f 1 21 9
f 1 9 2
f 2 8 3
f 2 9 10
f 2 10 11
f 2 11 8
f 3 8 12
f 3 12 13
f 3 13 4
f 4 14 15
f 4 15 16
f 4 16 5
f 4 13 14
f 5 16 6
f 6 17 18
f 6 18 19
f 6 16 17
f 7 19 20
f 8 11 12
f 9 21 22
f 9 22 23
f 9 23 10
f 10 23 11
f 11 23 24
f 11 24 13
f 11 13 12
f 13 25 26
f 13 26 27
f 13 27 14
f 13 24 28
f 13 28 29
f 13 29 25
f 14 30 31
f 14 31 32
f 14 32 33
f 14 33 15
f 14 27 30
f 15 33 17
f 15 17 16
f 17 33 34
f 17 34 18
f 18 34 35
f 18 35 19
f 19 35 36
f 19 36 37
f 19 37 38
f 19 38 20
f 21 39 40
f 21 40 22
f 21 41 42
f 21 42 39
f 22 43 23
f 22 40 43
f 23 43 44
f 23 44 45
f 23 45 46
f 23 46 47
f 23 47 48
f 23 48 24
f 24 48 49
f 24 49 28
f 25 29 50
f 25 50 26
f 26 51 27
f 26 50 51
f 27 51 52
f 27 52 53
f 27 53 54
f 27 54 30
f 28 49 55
f 28 55 29
f 29 55 49
f 29 49 56
f 29 56 46
f 29 46 57
f 29 57 50
f 30 54 58
f 30 58 31
f 31 58 59
f 31 59 60
f 31 60 32
f 32 60 61
f 32 61 33
f 33 61 34
f 34 61 62
f 34 62 63
f 34 63 64
f 34 64 65
f 34 65 66
f 34 66 67
f 34 67 35
f 35 67 68
f 35 68 36
f 36 68 69
f 36 69 70
f 36 70 71
f 36 71 72
f 36 72 37
f 37 72 71
f 37 71 73
f 37 73 74
f 39 75 40
f 39 42 76
f 39 76 103
f 39 103 107
f 39 107 106
f 39 106 105
f 39 105 127
f 39 127 126
f 39 126 143
f 39 143 157
f 39 157 169
f 39 169 177
f 39 177 178
f 39 178 175
f 39 175 176
f 39 176 173
f 39 173 161
f 39 161 160
f 39 160 159
f 39 159 158
f 39 158 144
f 39 144 130
f 39 130 129
f 39 129 128
f 39 128 109
f 39 109 108
f 39 108 83
f 39 83 82
f 39 82 81
f 39 81 80
f 39 80 102
f 39 102 75
f 40 44 43
f 40 75 44
f 41 76 42
f 41 77 76
f 44 75 46
f 44 46 45
f 46 56 47
f 46 75 78
f 46 78 79
f 46 79 80
f 46 80 57
f 47 56 49
f 47 49 48
f 50 57 81
f 50 81 82
f 50 82 83
f 50 83 84
f 50 84 51
f 51 84 52
f 52 84 85
f 52 85 86
f 52 86 53
f 53 86 54
f 54 86 87
f 54 87 58
f 57 80 81
f 58 87 88
f 58 88 59
f 59 88 85
f 59 85 89
f 59 89 90
f 59 90 60
f 60 90 91
f 60 91 61
f 61 91 62
f 62 92 63
f 62 91 92
f 63 92 64
f 64 92 65
f 65 92 93
f 65 93 94
f 65 94 66
f 66 94 95
f 66 95 96
f 66 96 97
f 66 97 67
f 67 97 68
f 68 97 98
f 68 98 99
f 68 99 100
f 68 100 70
f 68 70 69
f 70 100 73
f 70 73 71
f 73 100 101
f 73 101 74
f 75 102 78
f 76 77 103
f 77 104 105
f 77 105 106
f 77 106 107
f 77 107 103
f 78 102 79
f 79 102 80
f 83 108 84
f 84 108 109
f 84 109 110
f 84 110 85
f 85 88 86
f 85 110 111
f 85 111 89
f 86 88 87
f 89 111 112
f 89 112 113
f 89 113 114
f 89 114 90
f 90 114 91
f 91 114 115
f 91 115 92
f 92 115 116
f 92 116 93
f 93 117 118
f 93 118 119
f 93 119 94
f 93 116 117
f 94 119 120
f 94 120 95
f 95 120 96
f 96 120 137
f 96 137 136
f 96 136 135
f 96 135 148
f 96 148 151
f 96 151 166
f 96 166 175
f 96 175 178
f 96 178 172
f 96 172 171
f 96 171 170
f 96 170 167
f 96 167 152
f 96 152 140
f 96 140 121
f 96 121 122
f 96 122 123
f 96 123 97
f 97 101 100
f 97 100 99
f 97 99 98
f 97 123 124
f 97 124 101
f 104 125 126
f 104 126 127
f 104 127 105
f 109 128 111
f 109 111 110
f 111 129 112
f 111 128 129
f 112 130 131
f 112 131 113
f 112 129 130
f 113 131 132
f 113 132 133
f 113 133 134
f 113 134 114
f 114 134 115
f 115 134 116
f 116 134 117
f 117 134 118
f 118 135 136
f 118 136 137
f 118 137 119
f 118 134 138
f 118 138 139
f 118 139 135
f 119 137 120
f 121 140 141
f 121 141 122
f 122 141 123
f 123 141 124
f 125 142 143
f 125 143 126
f 130 144 145
f 130 145 133
f 130 133 132
f 130 132 131
f 133 145 146
f 133 146 139
f 133 139 134
f 134 139 138
f 135 147 148
f 135 139 149
f 135 149 147
f 139 146 150
f 139 150 151
f 139 151 149
f 140 152 141
f 142 153 143
f 143 153 154
f 143 154 155
f 143 155 156
f 143 156 157
f 144 158 145
f 145 158 159
f 145 159 146
f 146 159 160
f 146 160 161
f 146 161 162
f 146 162 150
f 147 151 148
f 147 149 151
f 150 162 163
f 150 163 151
f 151 163 164
f 151 164 165
f 151 165 166
f 155 168 156
f 156 168 167
f 156 167 157
f 157 167 170
f 157 170 171
f 157 171 172
f 157 172 169
f 161 173 163
f 161 163 162
f 163 173 174
f 163 174 166
f 163 166 165
f 163 165 164
f 166 174 176
f 166 176 175
f 169 172 177
f 172 178 177
f 173 176 174

