# https://github.com/mikedh/trimesh
v 0.03946350 0.10350375 0.01897439
v 0.04166176 0.10351288 0.01374366
v 0.04056190 0.10353117 0.01594145
v 0.03946350 0.10351288 0.01814198
v 0.03616829 0.10350375 0.01897439
v 0.03972606 0.10340319 0.01897439
v 0.04056190 0.10343061 0.01704034
v 0.04276162 0.10354945 0.01044424
v 0.04276162 0.10346717 0.01154588
v 0.03726670 0.10352202 0.01594145
v 0.04056336 0.10349460 -0.00807210
v 0.03946350 0.10343975 -0.00807210
v 0.03616829 0.10348546 0.01814198
v 0.03535872 0.10321122 0.01897439
v 0.04056336 0.10353117 -0.00164633
v 0.04034310 0.10308323 0.01897439
v 0.04129125 0.10301010 0.01704034
v 0.04151297 0.10314722 0.01594145
v 0.04250489 0.10310151 0.01374366
v 0.03946204 0.10353117 0.00934809
v 0.04357995 0.10313808 0.01044424
v 0.04387169 0.10313808 0.00654592
v 0.04342825 0.10328435 0.00654592
v 0.04276162 0.10349460 0.00654592
v 0.04102139 0.10345804 -0.00807210
v 0.04347930 0.10302838 0.01154588
v 0.04034164 0.01942910 -0.00909132
v 0.03493569 0.01942910 -0.00909132
v 0.03877499 0.10299182 -0.00807210
v 0.03513553 0.10310151 0.01897439
v 0.04063483 0.10216908 0.01897439
v 0.04115559 0.10282727 0.01769693
v 0.04234297 0.10295525 0.01461453
v 0.04385273 0.10217822 0.01044424
v 0.04431513 0.10217822 0.00654592
v 0.04525600 0.09557804 0.00654592
v 0.04102139 0.10220564 -0.00807210
v 0.04338011 0.10287298 0.01226290
v 0.04365726 0.10217822 0.01154588
v 0.04153193 0.01942910 -0.00054744
v 0.04025411 0.01752767 -0.00909132
v 0.03481170 0.01672321 -0.00909132
v 0.03666863 0.06798890 -0.00807210
v 0.03726815 0.08018370 -0.00807210
v 0.03732796 0.08128069 -0.00807210
v 0.03863933 0.10216908 -0.00807210
v 0.03865100 0.10228792 -0.00807210
v 0.03478107 0.10216908 0.01897439
v 0.04064359 0.10107209 0.01897439
v 0.04119060 0.10107209 0.01778209
v 0.04118185 0.10216908 0.01776011
v 0.04341949 0.10217822 0.01235906
v 0.04342970 0.10107209 0.01237829
v 0.04342533 0.09998425 0.01237279
v 0.04340491 0.09887813 0.01232334
v 0.04332906 0.09577001 0.01213653
v 0.04201476 0.02523397 0.00654592
v 0.04111329 0.01036071 -0.00000898
v 0.04045979 0.01015959 -0.00494575
v 0.04013012 0.01015959 -0.00745397
v 0.04005135 0.01015959 -0.00804463
v 0.04001343 0.01147598 -0.00879737
v 0.04005135 0.01313973 -0.00909132
v 0.03475481 0.01323115 -0.00909132
v 0.03035537 0.01474864 0.01897439
v 0.03037579 0.01530628 0.01897439
v 0.03054500 0.01952052 0.01897439
v 0.03275348 0.07449767 0.01897439
v 0.03279870 0.07545753 0.01897439
v 0.03281912 0.07580491 0.01897439
v 0.04064067 0.10030421 0.01897439
v 0.04063921 0.09997511 0.01897439
v 0.04118768 0.09997511 0.01777385
v 0.04149838 0.10107209 0.01704034
v 0.04242174 0.09997511 0.01479860
v 0.04239986 0.09887813 0.01474915
v 0.04112204 0.09703154 0.01761451
v 0.04012867 0.08832880 0.01897439
v 0.03684513 0.02194302 0.01897439
v 0.04002364 0.02886316 0.01212005
v 0.04005135 0.02082776 0.01108984
v 0.04002947 0.01994103 0.01103489
v 0.04112204 0.04207267 0.01102115
v 0.04000613 0.01920056 0.01098819
v 0.03916884 0.01474864 0.01247169
v 0.03949559 0.01474864 0.01154588
v 0.03965021 0.01474864 0.01106236
v 0.04001634 0.01474864 0.00991402
v 0.04024828 0.01015959 0.00654592
v 0.04026870 0.01015959 0.00639482
v 0.04045979 0.01015959 0.00494428
v 0.04111329 0.01036071 0.00001025
v 0.04101701 0.01015959 -0.00020953
v 0.04000467 0.01015959 -0.00821496
v 0.03974940 0.01015959 -0.00909132
v 0.03987194 0.01119258 -0.00909132
v 0.03993174 0.01173194 -0.00909132
v 0.03998571 0.01232614 -0.00909132
v 0.03475335 0.01313059 -0.00909132
v 0.03640752 0.01474864 0.01897439
v 0.03517200 0.01015959 -0.00714628
v 0.03517054 0.01015959 -0.00713255
v 0.03518659 0.01015959 0.00654592
v 0.04061295 0.09887813 0.01897439
v 0.04057794 0.09777201 0.01897439
v 0.04054731 0.09696755 0.01897439
v 0.04116580 0.09887813 0.01772440
v 0.04139627 0.09777201 0.01704034
v 0.04049480 0.09581572 0.01897439
v 0.03664821 0.01803045 0.01897439
v 0.03673573 0.01771963 0.01873263
v 0.03910466 0.01474864 0.01265026
v 0.03688889 0.01474864 0.01800462
v 0.04101701 0.01015959 0.00020805
v 0.03869039 0.01015959 -0.00909132
v 0.03511949 0.01213416 -0.00909132
v 0.03656652 0.01670493 0.01897439
v 0.03660736 0.01725342 0.01897439
f 1 2 3
f 1 3 4
f 1 4 5
f 1 5 14
f 1 14 30
f 1 30 48
f 1 48 70
f 1 70 69
f 1 69 68
f 1 68 67
f 1 67 66
f 1 66 65
f 1 65 100
f 1 100 117
f 1 117 118
f 1 118 110
f 1 110 79
f 1 79 78
f 1 78 109
f 1 109 106
f 1 106 105
f 1 105 104
f 1 104 72
f 1 72 71
f 1 71 49
f 1 49 31
f 1 31 16
f 1 16 6
f 1 6 7
f 1 7 2
f 2 8 3
f 2 7 9
f 2 9 8
f 3 8 10
f 3 10 5
f 3 5 4
f 5 11 12
f 5 12 13
f 5 13 14
f 5 10 15
f 5 15 11
f 6 16 7
f 7 16 17
f 7 17 18
f 7 18 19
f 7 19 9
f 8 15 20
f 8 20 10
f 8 9 21
f 8 21 22
f 8 22 23
f 8 23 24
f 8 24 25
f 8 25 11
f 8 11 15
f 9 19 26
f 9 26 21
f 10 20 15
f 11 25 27
f 11 27 28
f 11 28 12
f 12 29 30
f 12 30 14
f 12 14 13
f 12 28 29
f 16 31 32
f 16 32 17
f 17 19 18
f 17 32 33
f 17 33 19
f 19 33 26
f 21 26 34
f 21 34 35
f 21 35 22
f 22 25 23
f 22 35 25
f 23 25 24
f 25 35 36
f 25 36 37
f 25 37 27
f 26 33 38
f 26 38 39
f 26 39 34
f 27 37 36
f 27 36 40
f 27 40 41
f 27 41 63
f 27 63 98
f 27 98 97
f 27 97 96
f 27 96 95
f 27 95 115
f 27 115 116
f 27 116 99
f 27 99 64
f 27 64 42
f 27 42 28
f 28 42 43
f 28 43 44
f 28 44 45
f 28 45 46
f 28 46 47
f 28 47 29
f 29 47 48
f 29 48 30
f 31 49 50
f 31 50 51
f 31 51 32
f 32 51 52
f 32 52 38
f 32 38 33
f 34 39 36
f 34 36 35
f 36 39 52
f 36 52 53
f 36 53 54
f 36 54 55
f 36 55 56
f 36 56 57
f 36 57 40
f 38 52 39
f 40 57 58
f 40 58 59
f 40 59 60
f 40 60 61
f 40 61 62
f 40 62 63
f 40 63 41
f 42 64 65
f 42 65 66
f 42 66 43
f 43 66 67
f 43 67 68
f 43 68 69
f 43 69 44
f 44 69 45
f 45 69 70
f 45 70 46
f 46 48 47
f 46 70 48
f 49 71 50
f 50 71 72
f 50 72 73
f 50 73 74
f 50 74 51
f 51 74 52
f 52 74 53
f 53 74 75
f 53 75 54
f 54 75 55
f 55 75 76
f 55 76 77
f 55 77 56
f 56 77 78
f 56 78 79
f 56 79 80
f 56 80 81
f 56 81 82
f 56 82 83
f 56 83 57
f 57 83 82
f 57 82 84
f 57 84 85
f 57 85 86
f 57 86 87
f 57 87 88
f 57 88 89
f 57 89 90
f 57 90 91
f 57 91 92
f 57 92 58
f 58 92 114
f 58 114 93
f 58 93 59
f 59 93 114
f 59 114 91
f 59 91 90
f 59 90 89
f 59 89 103
f 59 103 102
f 59 102 101
f 59 101 115
f 59 115 95
f 59 95 94
f 59 94 61
f 59 61 60
f 61 94 62
f 62 94 95
f 62 95 96
f 62 96 97
f 62 97 98
f 62 98 63
f 64 99 65
f 65 99 101
f 65 101 102
f 65 102 103
f 65 103 89
f 65 89 100
f 72 104 73
f 73 104 105
f 73 105 106
f 73 106 107
f 73 107 76
f 73 76 75
f 73 75 74
f 76 107 108
f 76 108 77
f 77 109 78
f 77 108 107
f 77 107 109
f 79 110 111
f 79 111 112
f 79 112 80
f 80 112 81
f 81 112 82
f 82 112 84
f 84 112 85
f 85 112 89
f 85 89 86
f 86 89 87
f 87 89 88
f 89 112 113
f 89 113 100
f 91 114 92
f 99 116 101
f 100 113 117
f 101 116 115
f 106 109 107
f 110 118 111
f 111 118 113
f 111 113 112
f 113 118 117

