# https://github.com/mikedh/trimesh
v 0.06035607 0.08349415 0.00644065
v 0.06145608 0.08239444 0.00643939
v 0.06035607 0.08569357 0.00643939
v 0.05925831 0.08675634 0.00643939
v 0.06145608 0.07224130 0.00643939
v 0.06255610 0.08129473 0.00627421
v 0.06145608 0.08349415 0.00643561
v 0.06035607 0.08675634 0.00643309
v 0.05815830 0.08675634 0.00623513
v 0.05925831 0.08569357 0.00642930
v 0.06035607 0.07224130 0.00642174
v 0.06119858 0.07224130 0.00643561
v 0.06229747 0.07224130 0.00620234
v 0.06255610 0.08019502 0.00625656
v 0.06337941 0.08129473 0.00580390
v 0.06255610 0.08239444 0.00625278
v 0.06145608 0.08459386 0.00639274
v 0.06145608 0.08675634 0.00608886
v 0.06145608 0.08569357 0.00627043
v 0.05733046 0.08675634 0.00576355
v 0.05929106 0.07224130 0.00595142
v 0.06010309 0.07224130 0.00631204
v 0.06255610 0.07224130 0.00612669
v 0.06255610 0.07359959 0.00614938
v 0.06255610 0.07579901 0.00618595
v 0.06392942 0.08129473 0.00518101
v 0.06442860 0.08239444 0.00464513
v 0.06392377 0.08239444 0.00519488
v 0.06337377 0.08239444 0.00578120
v 0.06307674 0.07224130 0.00576607
v 0.06323598 0.07249988 0.00566015
v 0.06323259 0.07224130 0.00565511
v 0.06255610 0.08349415 0.00611912
v 0.06232005 0.08569357 0.00580011
v 0.06213145 0.08675634 0.00562359
v 0.05731127 0.08675634 0.00574589
v 0.05874106 0.07224130 0.00546093
v 0.05916119 0.07224130 0.00583920
v 0.06440941 0.08129473 0.00463126
v 0.06493908 0.08239444 0.00384823
v 0.06434616 0.08349415 0.00454804
v 0.06380971 0.08349415 0.00509779
v 0.06325970 0.08349415 0.00565259
v 0.06365385 0.07224130 0.00513183
v 0.06261031 0.08454839 0.00585938
v 0.06266339 0.08675634 0.00508644
v 0.06314337 0.08415056 0.00553532
v 0.06301349 0.08488370 0.00540419
v 0.06287006 0.08569357 0.00525919
v 0.05618189 0.08675634 0.00468547
v 0.05862360 0.07224130 0.00533232
v 0.06380180 0.07224130 0.00494774
v 0.06414626 0.07224130 0.00451903
v 0.06422419 0.07224130 0.00442194
v 0.06489504 0.08129473 0.00384823
v 0.06526547 0.08239444 0.00310052
v 0.06479114 0.08349415 0.00384823
v 0.06423887 0.08413920 0.00443203
v 0.06322356 0.08675634 0.00451777
v 0.06341329 0.08569357 0.00470943
v 0.05557993 0.08675634 0.00395415
v 0.05769074 0.07224130 0.00427442
v 0.05811087 0.07224130 0.00476365
v 0.05824074 0.07224130 0.00491118
v 0.06443425 0.07224130 0.00401719
v 0.06450766 0.07224130 0.00387219
v 0.06452912 0.07249988 0.00384823
v 0.06537502 0.08239444 0.00255076
v 0.06536034 0.08316310 0.00247763
v 0.06519771 0.08351546 0.00280547
v 0.06489278 0.07224130 0.00274873
v 0.06431905 0.08546482 0.00352292
v 0.06444103 0.08454129 0.00387345
v 0.06410899 0.08487234 0.00425551
v 0.06365724 0.08675634 0.00384823
v 0.05551217 0.08675634 0.00386210
v 0.05762072 0.07224130 0.00414581
v 0.06555346 0.08239444 0.00164922
v 0.06576579 0.08239444 0.00054971
v 0.06566866 0.08349415 0.00054971
v 0.06543940 0.08351546 0.00165048
v 0.06526434 0.08389624 0.00201866
v 0.06486680 0.08459386 0.00274873
v 0.06418918 0.08619796 0.00322535
v 0.06532081 0.07224130 0.00034544
v 0.06535018 0.07249988 0.00024961
v 0.06571384 0.08129473 0.00054971
v 0.06400170 0.08577597 0.00387345
v 0.06407511 0.08675634 0.00283951
v 0.05492715 0.08675634 0.00277520
v 0.05739371 0.07224130 0.00372467
v 0.06576918 0.08239444 -0.00054980
v 0.06534340 0.07224130 0.00021683
v 0.06566979 0.08349415 -0.00054980
v 0.06542471 0.08438358 0.00054971
v 0.06534566 0.08416051 0.00128482
v 0.06434616 0.08675634 0.00163030
v 0.05490343 0.08675634 0.00271342
v 0.05731352 0.07224130 0.00349140
v 0.05489101 0.08675634 0.00268064
v 0.06534340 0.07224130 -0.00023331
v 0.06566979 0.08019502 -0.00054980
v 0.06536260 0.07689873 -0.00141352
v 0.06538857 0.07799844 -0.00154213
v 0.06539874 0.07906973 -0.00174135
v 0.06546537 0.08019502 -0.00164931
v 0.06555798 0.08239444 -0.00164931
v 0.06536034 0.08316452 -0.00247898
v 0.06544053 0.08351688 -0.00165309
v 0.06534679 0.08416335 -0.00128869
v 0.06542471 0.08438500 -0.00054980
v 0.06496280 0.08569357 -0.00054980
v 0.06458672 0.08675634 -0.00051197
v 0.06458333 0.08675634 0.00054971
v 0.06457542 0.08675634 0.00058627
v 0.05706167 0.07224130 0.00274873
v 0.05450250 0.08675634 0.00141217
v 0.06525079 0.07224130 -0.00078307
v 0.06535018 0.07249988 -0.00026988
v 0.06561897 0.07909673 -0.00054980
v 0.06533549 0.07579901 -0.00127356
v 0.06522707 0.07465668 -0.00157996
v 0.06523724 0.07579901 -0.00182457
v 0.06529936 0.07426169 -0.00106803
v 0.06526096 0.07689873 -0.00196327
v 0.06528467 0.07799844 -0.00209189
v 0.06529936 0.07868469 -0.00216880
v 0.06533098 0.08019502 -0.00232894
v 0.06526773 0.08239444 -0.00311070
v 0.06519884 0.08351688 -0.00280682
v 0.06526547 0.08389766 -0.00202128
v 0.06487019 0.08459386 -0.00274882
v 0.06512769 0.08455550 -0.00165309
v 0.06436197 0.08675634 -0.00159383
v 0.06437101 0.08675634 -0.00155222
v 0.06458672 0.08675634 -0.00054980
v 0.05682902 0.07224130 0.00164922
v 0.05424274 0.08675634 0.00054971
v 0.06514011 0.07224130 -0.00141730
v 0.06528354 0.07359959 -0.00097473
v 0.06539083 0.07465668 -0.00064059
v 0.06511188 0.07249988 -0.00164931
v 0.06491424 0.07249988 -0.00274882
v 0.06509945 0.07224130 -0.00164931
v 0.06501362 0.07469930 -0.00274882
v 0.06506219 0.07579901 -0.00274882
v 0.06522143 0.08019502 -0.00287869
v 0.06490181 0.07224130 -0.00274882
v 0.06454380 0.07249988 -0.00384833
v 0.06482163 0.07909673 -0.00384833
v 0.06486454 0.08019502 -0.00384833
v 0.06490633 0.08129473 -0.00384833
v 0.06494360 0.08239444 -0.00384833
v 0.06479226 0.08349415 -0.00384833
v 0.06432019 0.08546766 -0.00352301
v 0.06419031 0.08620080 -0.00323174
v 0.06409544 0.08675634 -0.00278034
v 0.06421628 0.08675634 -0.00224698
v 0.05677933 0.07224130 0.00141217
v 0.05423597 0.08675634 -0.00001392
v 0.05650263 0.07224130 0.00003904
v 0.05656588 0.07224130 0.00035805
v 0.05659637 0.07224130 0.00050936
v 0.06461834 0.07224130 -0.00358984
v 0.06452121 0.07224130 -0.00387102
v 0.06423322 0.07224130 -0.00443339
v 0.06423887 0.07249988 -0.00444095
v 0.06426258 0.07359959 -0.00446995
v 0.06430889 0.07579901 -0.00452669
v 0.06433148 0.07689873 -0.00455443
v 0.06435519 0.07799844 -0.00457965
v 0.06437778 0.07909673 -0.00460361
v 0.06439811 0.08019502 -0.00462504
v 0.06441731 0.08129473 -0.00464270
v 0.06443086 0.08239444 -0.00464900
v 0.06434503 0.08349415 -0.00454687
v 0.06423774 0.08413778 -0.00443086
v 0.06410786 0.08487092 -0.00425560
v 0.06444216 0.08453987 -0.00387354
v 0.06365724 0.08675634 -0.00384833
v 0.06367870 0.08675634 -0.00380924
v 0.06407963 0.08675634 -0.00284843
v 0.05423145 0.08675634 -0.00054980
v 0.05650263 0.07224130 -0.00003787
v 0.06391812 0.07224130 -0.00482805
v 0.06379954 0.07249988 -0.00499071
v 0.06382100 0.07359959 -0.00501971
v 0.06324389 0.07224130 -0.00566529
v 0.06324954 0.07249988 -0.00567033
v 0.06327099 0.07359959 -0.00569303
v 0.06329132 0.07469930 -0.00571194
v 0.06393732 0.08129473 -0.00519245
v 0.06330939 0.07579901 -0.00572960
v 0.06392264 0.08019502 -0.00517480
v 0.06338845 0.08129473 -0.00580777
v 0.06392603 0.08239444 -0.00519875
v 0.06337602 0.08239444 -0.00578255
v 0.06380858 0.08349415 -0.00509662
v 0.06362449 0.08451003 -0.00491757
v 0.06212919 0.08675634 -0.00562242
v 0.06267920 0.08675634 -0.00506510
v 0.06341103 0.08569357 -0.00470700
v 0.06322130 0.08675634 -0.00451534
v 0.06324389 0.08675634 -0.00448508
v 0.05456236 0.08675634 -0.00164931
v 0.05706845 0.07224130 -0.00274882
v 0.05683693 0.07224130 -0.00164931
v 0.05659863 0.07224130 -0.00050945
v 0.06381196 0.07224130 -0.00496044
v 0.06255610 0.07224130 -0.00613561
v 0.06334214 0.07799844 -0.00576238
v 0.06332633 0.07689873 -0.00574599
v 0.06255610 0.08129473 -0.00627935
v 0.06255610 0.08239444 -0.00625287
v 0.06255610 0.07249988 -0.00614191
v 0.06255610 0.07359959 -0.00616461
v 0.06255610 0.07469930 -0.00618352
v 0.06255610 0.07909673 -0.00624909
v 0.06255610 0.08019502 -0.00626422
v 0.06255610 0.08349415 -0.00611795
v 0.06325857 0.08349415 -0.00565142
v 0.06314224 0.08414772 -0.00553542
v 0.06231780 0.08569357 -0.00579894
v 0.06148545 0.08675634 -0.00607004
v 0.05489553 0.08675634 -0.00274756
v 0.05714638 0.07224130 -0.00298208
v 0.06145608 0.07224130 -0.00643948
v 0.06145608 0.08239444 -0.00643948
v 0.06145608 0.08349415 -0.00643570
v 0.06145608 0.08459386 -0.00639283
v 0.06145608 0.08569357 -0.00626926
v 0.06145608 0.08675634 -0.00608643
v 0.06260918 0.08454555 -0.00585947
v 0.05525128 0.08675634 -0.00349275
v 0.05739597 0.07224130 -0.00372728
v 0.05929558 0.08675634 -0.00644074
v 0.06035607 0.07224130 -0.00642183
v 0.06035607 0.08569357 -0.00643948
v 0.06035607 0.08675634 -0.00643318
v 0.06039447 0.08675634 -0.00642688
v 0.05553927 0.08675634 -0.00392902
v 0.05768735 0.07224130 -0.00427703
v 0.05746373 0.07224130 -0.00385589
v 0.05925831 0.08675634 -0.00643948
v 0.05928768 0.07224130 -0.00595151
v 0.05815830 0.08675634 -0.00623900
v 0.05819557 0.08675634 -0.00625161
v 0.05925831 0.08569357 -0.00642940
v 0.05617511 0.08675634 -0.00469061
v 0.05823736 0.07224130 -0.00491505
v 0.05873767 0.07224130 -0.00546480
v 0.05732256 0.08675634 -0.00576868
v 0.05734515 0.08675634 -0.00578381
v 0.05619431 0.08675634 -0.00470952
f 1 2 3
f 1 3 4
f 1 4 5
f 1 5 2
f 2 6 7
f 2 7 3
f 2 5 6
f 3 8 4
f 3 7 8
f 4 8 18
f 4 18 35
f 4 35 46
f 4 46 59
f 4 59 75
f 4 75 89
f 4 89 97
f 4 97 115
f 4 115 114
f 4 114 113
f 4 113 136
f 4 136 135
f 4 135 134
f 4 134 158
f 4 158 157
f 4 157 182
f 4 182 181
f 4 181 180
f 4 180 204
f 4 204 203
f 4 203 201
f 4 201 200
f 4 200 224
f 4 224 232
f 4 232 240
f 4 240 239
f 4 239 236
f 4 236 244
f 4 244 247
f 4 247 246
f 4 246 253
f 4 253 252
f 4 252 254
f 4 254 249
f 4 249 241
f 4 241 234
f 4 234 225
f 4 225 205
f 4 205 183
f 4 183 160
f 4 160 138
f 4 138 117
f 4 117 100
f 4 100 98
f 4 98 90
f 4 90 76
f 4 76 61
f 4 61 50
f 4 50 36
f 4 36 20
f 4 20 9
f 4 9 10
f 4 10 11
f 4 11 12
f 4 12 5
f 5 12 11
f 5 11 22
f 5 22 21
f 5 21 38
f 5 38 37
f 5 37 51
f 5 51 64
f 5 64 63
f 5 63 62
f 5 62 77
f 5 77 91
f 5 91 99
f 5 99 116
f 5 116 137
f 5 137 159
f 5 159 163
f 5 163 162
f 5 162 161
f 5 161 184
f 5 184 208
f 5 208 207
f 5 207 206
f 5 206 226
f 5 226 235
f 5 235 243
f 5 243 242
f 5 242 250
f 5 250 251
f 5 251 245
f 5 245 237
f 5 237 227
f 5 227 210
f 5 210 188
f 5 188 209
f 5 209 185
f 5 185 166
f 5 166 165
f 5 165 164
f 5 164 148
f 5 148 144
f 5 144 139
f 5 139 118
f 5 118 101
f 5 101 93
f 5 93 85
f 5 85 71
f 5 71 66
f 5 66 65
f 5 65 54
f 5 54 53
f 5 53 52
f 5 52 44
f 5 44 32
f 5 32 30
f 5 30 23
f 5 23 13
f 5 13 6
f 6 14 15
f 6 15 16
f 6 16 7
f 6 13 14
f 7 16 17
f 7 17 8
f 8 17 19
f 8 19 18
f 9 20 21
f 9 21 22
f 9 22 11
f 9 11 10
f 13 23 24
f 13 24 25
f 13 25 14
f 14 25 15
f 15 26 27
f 15 27 28
f 15 28 29
f 15 29 16
f 15 25 24
f 15 24 23
f 15 23 30
f 15 30 31
f 15 31 32
f 15 32 26
f 16 29 33
f 16 33 19
f 16 19 17
f 18 34 35
f 18 19 33
f 18 33 34
f 20 36 37
f 20 37 38
f 20 38 21
f 26 39 27
f 26 32 39
f 27 39 40
f 27 40 41
f 27 41 28
f 28 41 29
f 29 41 42
f 29 42 43
f 29 43 33
f 30 32 31
f 32 44 39
f 33 43 45
f 33 45 34
f 34 45 43
f 34 43 35
f 35 43 47
f 35 47 48
f 35 48 49
f 35 49 46
f 36 50 37
f 37 50 51
f 39 44 52
f 39 52 53
f 39 53 54
f 39 54 40
f 40 55 56
f 40 56 57
f 40 57 41
f 40 54 55
f 41 57 58
f 41 58 42
f 42 47 43
f 42 58 49
f 42 49 48
f 42 48 47
f 46 49 60
f 46 60 59
f 49 58 60
f 50 61 62
f 50 62 63
f 50 63 64
f 50 64 51
f 54 65 55
f 55 65 66
f 55 66 67
f 55 67 56
f 56 68 69
f 56 69 70
f 56 70 57
f 56 67 71
f 56 71 68
f 57 70 72
f 57 72 73
f 57 73 74
f 57 74 58
f 58 74 59
f 58 59 60
f 59 74 75
f 61 76 62
f 62 76 77
f 66 71 67
f 68 78 69
f 68 71 78
f 69 78 79
f 69 79 80
f 69 80 81
f 69 81 82
f 69 82 70
f 70 82 83
f 70 83 84
f 70 84 72
f 71 85 86
f 71 86 87
f 71 87 79
f 71 79 78
f 72 84 75
f 72 75 88
f 72 88 74
f 72 74 73
f 74 88 75
f 75 84 89
f 76 90 91
f 76 91 77
f 79 92 80
f 79 87 86
f 79 86 93
f 79 93 92
f 80 94 95
f 80 95 96
f 80 96 81
f 80 92 94
f 81 96 82
f 82 96 83
f 83 97 84
f 83 96 97
f 84 97 89
f 85 93 86
f 90 98 91
f 91 98 100
f 91 100 99
f 92 93 101
f 92 101 102
f 92 102 103
f 92 103 104
f 92 104 105
f 92 105 106
f 92 106 107
f 92 107 108
f 92 108 94
f 94 109 110
f 94 110 111
f 94 111 95
f 94 108 109
f 95 111 112
f 95 112 113
f 95 113 114
f 95 114 96
f 96 114 115
f 96 115 97
f 99 100 116
f 100 117 116
f 101 118 119
f 101 119 120
f 101 120 102
f 102 120 103
f 103 121 122
f 103 122 123
f 103 123 104
f 103 120 124
f 103 124 121
f 104 123 125
f 104 125 105
f 105 125 126
f 105 126 106
f 106 126 127
f 106 127 107
f 107 127 128
f 107 128 129
f 107 129 108
f 108 129 130
f 108 130 131
f 108 131 109
f 109 131 110
f 110 131 132
f 110 132 133
f 110 133 134
f 110 134 135
f 110 135 136
f 110 136 112
f 110 112 111
f 112 136 113
f 116 117 138
f 116 138 137
f 118 139 140
f 118 140 119
f 119 140 141
f 119 141 120
f 120 141 140
f 120 140 124
f 121 124 122
f 122 124 142
f 122 142 143
f 122 143 123
f 123 143 125
f 124 140 139
f 124 139 144
f 124 144 142
f 125 143 145
f 125 145 146
f 125 146 126
f 126 146 127
f 127 146 147
f 127 147 129
f 127 129 128
f 129 147 146
f 129 146 145
f 129 145 143
f 129 143 148
f 129 148 149
f 129 149 150
f 129 150 151
f 129 151 152
f 129 152 153
f 129 153 154
f 129 154 130
f 130 154 155
f 130 155 156
f 130 156 132
f 130 132 131
f 132 156 157
f 132 157 158
f 132 158 134
f 132 134 133
f 137 138 159
f 138 160 161
f 138 161 162
f 138 162 163
f 138 163 159
f 142 144 148
f 142 148 143
f 148 164 149
f 149 164 165
f 149 165 166
f 149 166 150
f 150 166 151
f 151 166 167
f 151 167 152
f 152 167 168
f 152 168 169
f 152 169 170
f 152 170 171
f 152 171 153
f 153 171 172
f 153 172 173
f 153 173 174
f 153 174 175
f 153 175 176
f 153 176 154
f 154 176 177
f 154 177 178
f 154 178 179
f 154 179 155
f 155 179 178
f 155 178 180
f 155 180 181
f 155 181 156
f 156 181 182
f 156 182 157
f 160 183 161
f 161 183 184
f 166 185 167
f 167 185 186
f 167 186 168
f 168 186 169
f 169 186 170
f 170 186 187
f 170 187 188
f 170 188 171
f 171 188 172
f 172 188 189
f 172 189 190
f 172 190 173
f 173 190 191
f 173 191 174
f 174 192 175
f 174 191 193
f 174 193 194
f 174 194 192
f 175 192 195
f 175 195 196
f 175 196 176
f 176 196 197
f 176 197 198
f 176 198 177
f 177 198 199
f 177 199 200
f 177 200 201
f 177 201 202
f 177 202 203
f 177 203 178
f 178 203 204
f 178 204 180
f 183 205 206
f 183 206 207
f 183 207 208
f 183 208 184
f 185 209 186
f 186 209 188
f 186 188 187
f 188 210 189
f 189 210 190
f 190 210 191
f 191 210 193
f 192 194 211
f 192 211 195
f 193 210 212
f 193 212 194
f 194 212 211
f 195 213 214
f 195 214 197
f 195 197 196
f 195 211 215
f 195 215 216
f 195 216 217
f 195 217 218
f 195 218 219
f 195 219 213
f 197 214 220
f 197 220 221
f 197 221 198
f 198 221 222
f 198 222 200
f 198 200 199
f 200 223 224
f 200 222 221
f 200 221 223
f 201 203 202
f 205 225 206
f 206 225 226
f 210 227 215
f 210 215 212
f 211 212 215
f 213 228 229
f 213 229 214
f 213 219 227
f 213 227 228
f 214 229 230
f 214 230 231
f 214 231 220
f 215 227 216
f 216 227 217
f 217 227 218
f 218 227 219
f 220 231 232
f 220 232 224
f 220 224 223
f 220 223 233
f 220 233 221
f 221 233 223
f 225 234 235
f 225 235 226
f 227 236 228
f 227 237 236
f 228 236 238
f 228 238 229
f 229 238 239
f 229 239 230
f 230 239 240
f 230 240 231
f 231 240 232
f 234 241 242
f 234 242 243
f 234 243 235
f 236 239 238
f 236 237 244
f 237 245 246
f 237 246 247
f 237 247 248
f 237 248 244
f 241 249 242
f 242 249 250
f 244 248 247
f 245 251 252
f 245 252 253
f 245 253 246
f 249 254 251
f 249 251 250
f 251 254 252

