# https://github.com/mikedh/trimesh
v 0.04045804 0.01474377 0.00654659
v 0.04043710 0.01421973 0.00654659
v 0.03509289 0.01474377 0.00654659
v 0.04038234 0.01474377 0.00714967
v 0.04021161 0.00930912 0.00654659
v 0.03302640 0.00930912 0.00654659
v 0.02400502 0.01474377 0.02650040
v 0.04008920 0.01474377 0.00937401
v 0.04001350 0.01146595 0.00880226
v 0.04003605 0.00930912 0.00787284
v 0.02400502 0.00930912 0.02374869
v 0.02400502 0.01474377 0.03321519
v 0.04001672 0.01474377 0.00991705
v 0.03954801 0.00930912 0.01044702
v 0.02400502 0.00930912 0.03243458
v 0.02400502 0.01421973 0.03318647
v 0.02580897 0.01474377 0.03183934
v 0.03965110 0.01474377 0.01106577
v 0.03936278 0.01092275 0.01154614
v 0.03931769 0.00982305 0.01154614
v 0.03929353 0.00930912 0.01154614
v 0.02426434 0.00930912 0.03271132
v 0.02400502 0.00930965 0.03290712
v 0.02400502 0.01202192 0.03306376
v 0.02700087 0.01474377 0.03092558
v 0.03949647 0.01474377 0.01154614
v 0.03910508 0.01474377 0.01265048
v 0.03899072 0.00930912 0.01228237
v 0.02806069 0.00930912 0.02979513
v 0.02808163 0.00982305 0.02981080
v 0.02824753 0.01421973 0.02993872
v 0.02826525 0.01474377 0.02995178
v 0.03688718 0.01474377 0.01801030
v 0.03675188 0.00930912 0.01768396
v 0.02835545 0.00930912 0.02955495
v 0.02881610 0.01474377 0.02951579
v 0.02852779 0.01474377 0.02974553
v 0.03585796 0.01474377 0.02038346
v 0.03586763 0.01421973 0.02031036
v 0.03574683 0.00930912 0.02006234
v 0.02861154 0.00930912 0.02934348
v 0.02871463 0.01202192 0.02942963
v 0.02920588 0.00930912 0.02879261
v 0.02925420 0.01092275 0.02884483
v 0.02936373 0.01474377 0.02896492
v 0.03560992 0.01474377 0.02088733
v 0.03560992 0.00930912 0.02031819
v 0.02950064 0.00930912 0.02843233
v 0.02991297 0.01474377 0.02831746
v 0.02962466 0.01474377 0.02865947
v 0.03544885 0.00930912 0.02061320
v 0.03557609 0.01474377 0.02093432
v 0.03489961 0.00930912 0.02139903
v 0.03519275 0.00930912 0.02098392
v 0.02975673 0.00930912 0.02811382
v 0.02977123 0.00982305 0.02813471
v 0.03421991 0.01474377 0.02270440
v 0.03497209 0.01474377 0.02172276
v 0.03456137 0.01202192 0.02205432
v 0.03451466 0.01037796 0.02199167
v 0.03351282 0.00930912 0.02321610
v 0.03414098 0.01202192 0.02260258
f 1 2 5
f 1 5 6
f 1 6 3
f 1 3 7
f 1 7 12
f 1 12 17
f 1 17 25
f 1 25 32
f 1 32 37
f 1 37 36
f 1 36 45
f 1 45 50
f 1 50 49
f 1 49 57
f 1 57 58
f 1 58 52
f 1 52 46
f 1 46 38
f 1 38 33
f 1 33 27
f 1 27 26
f 1 26 18
f 1 18 13
f 1 13 8
f 1 8 4
f 1 4 2
f 2 4 5
f 3 6 7
f 4 8 5
f 5 8 9
f 5 9 10
f 5 10 14
f 5 14 21
f 5 21 28
f 5 28 34
f 5 34 40
f 5 40 47
f 5 47 51
f 5 51 54
f 5 54 53
f 5 53 61
f 5 61 55
f 5 55 48
f 5 48 43
f 5 43 41
f 5 41 35
f 5 35 29
f 5 29 22
f 5 22 15
f 5 15 11
f 5 11 6
f 6 11 7
f 7 11 15
f 7 15 23
f 7 23 24
f 7 24 16
f 7 16 12
f 8 13 9
f 9 13 14
f 9 14 10
f 12 16 17
f 13 18 19
f 13 19 20
f 13 20 21
f 13 21 14
f 15 22 23
f 16 24 17
f 17 24 22
f 17 22 25
f 18 26 19
f 19 26 27
f 19 27 20
f 20 27 21
f 21 27 28
f 22 24 23
f 22 29 30
f 22 30 31
f 22 31 25
f 25 31 32
f 27 33 28
f 28 33 34
f 29 35 30
f 30 35 36
f 30 36 31
f 31 36 37
f 31 37 32
f 33 38 39
f 33 39 40
f 33 40 34
f 35 41 42
f 35 42 36
f 36 42 43
f 36 43 44
f 36 44 45
f 38 46 40
f 38 40 39
f 40 46 47
f 41 43 42
f 43 48 49
f 43 49 44
f 44 49 50
f 44 50 45
f 46 51 47
f 46 52 53
f 46 53 54
f 46 54 51
f 48 55 56
f 48 56 49
f 49 56 57
f 52 58 59
f 52 59 60
f 52 60 53
f 53 60 61
f 55 61 56
f 56 61 60
f 56 60 62
f 56 62 57
f 57 62 60
f 57 60 59
f 57 59 58

