# https://github.com/mikedh/trimesh
v 0.04070233 0.00743745 0.00054898
v 0.04069542 0.00743745 0.00073344
v 0.04064079 0.00652341 0.00164706
v 0.04067813 0.00652341 0.00054898
v 0.04067813 0.00652341 -0.00055197
v 0.04070164 0.00743745 -0.00055197
v 0.04064978 0.00743745 0.00164706
v 0.04032547 0.00556986 0.00164706
v 0.04059377 0.00743745 0.00274801
v 0.04056957 0.00652341 0.00274801
v 0.04028467 0.00556968 0.00274801
v 0.04032547 0.00556986 -0.00165004
v 0.04064079 0.00652341 -0.00165004
v 0.04064978 0.00743745 -0.00165004
v 0.04048036 0.00743745 0.00384608
v 0.04043818 0.00652341 0.00384608
v 0.04003574 0.00592001 0.00654659
v 0.04006893 0.00584578 0.00604511
v 0.04014084 0.00571120 0.00494704
v 0.04021345 0.00562161 0.00384608
v 0.03970521 0.00556968 0.00274801
v 0.04028467 0.00556968 -0.00275100
v 0.04056957 0.00652341 -0.00275100
v 0.04059377 0.00743745 -0.00275100
v 0.04060552 0.00743745 -0.00256366
v 0.04045616 0.00743745 0.00403342
v 0.04029366 0.00652341 0.00494704
v 0.04005372 0.00607178 0.00654659
v 0.03945489 0.00581744 0.00654659
v 0.03968723 0.00562161 0.00384608
v 0.03970521 0.00556968 -0.00275100
v 0.03887542 0.00587613 0.00654659
v 0.03363810 0.00570480 -0.02153352
v 0.03363810 0.00569914 -0.02174103
v 0.03537097 0.00562618 -0.01814131
v 0.04021345 0.00562161 -0.00384907
v 0.03918106 0.00559016 -0.01044615
v 0.04014084 0.00571120 -0.00495002
v 0.04006893 0.00584578 -0.00604810
v 0.04002606 0.00594141 -0.00669080
v 0.04043818 0.00652341 -0.00384907
v 0.04050249 0.00743745 -0.00366462
v 0.04033584 0.00743745 0.00494704
v 0.04010143 0.00692494 0.00654659
v 0.04008276 0.00652341 0.00654659
v 0.03860298 0.00559016 -0.01044615
v 0.03886367 0.00603338 0.00654659
v 0.03363810 0.00652341 -0.02089081
v 0.03363810 0.00576423 -0.02247307
v 0.03471336 0.00571596 -0.02114732
v 0.03596634 0.00562618 -0.01814131
v 0.03698213 0.00561850 -0.01594228
v 0.03801659 0.00566915 -0.01374325
v 0.03906213 0.00573168 -0.01135113
v 0.04004542 0.00652341 -0.00683490
v 0.04029366 0.00652341 -0.00495002
v 0.03946319 0.00652341 -0.01044615
v 0.04048036 0.00743745 -0.00384907
v 0.04012494 0.00743745 0.00654659
v 0.03886159 0.00652341 0.00654659
v 0.03363810 0.00668120 -0.02089946
v 0.03363810 0.00583719 -0.02253936
v 0.03363810 0.00652341 -0.02282757
v 0.03482746 0.00652341 -0.02129430
v 0.03564894 0.00589752 -0.01985903
v 0.03577894 0.00571614 -0.01924226
v 0.03683761 0.00575655 -0.01678673
v 0.03889478 0.00605898 -0.01208317
v 0.03911122 0.00646471 -0.01164798
v 0.03787346 0.00584651 -0.01443495
v 0.04006616 0.00743745 -0.00699630
v 0.04021552 0.00743745 -0.00586364
v 0.04033584 0.00743745 -0.00495002
v 0.03925367 0.00743745 -0.01135977
v 0.03949016 0.00743745 -0.01044615
v 0.03892244 0.00743745 0.00654659
v 0.03887473 0.00681194 0.00654659
v 0.03363810 0.00743745 -0.02094845
v 0.03363810 0.00712039 -0.02287368
v 0.03485373 0.00743745 -0.02132889
v 0.03540347 0.00743745 -0.02051614
v 0.03537719 0.00652341 -0.02047003
v 0.03567868 0.00652341 -0.01991955
v 0.03596910 0.00652341 -0.01924226
v 0.03894457 0.00743745 -0.01216675
v 0.03919489 0.00743745 -0.01156152
v 0.03691229 0.00652341 -0.01696542
v 0.03889963 0.00734237 0.00654659
v 0.03363810 0.00743745 -0.02289674
v 0.03545464 0.00743745 -0.02042391
v 0.03570150 0.00743745 -0.01996566
v 0.03601336 0.00743745 -0.01924226
v 0.03690123 0.00743745 -0.01710088
f 1 2 3
f 1 3 4
f 1 4 5
f 1 5 6
f 1 6 14
f 1 14 25
f 1 25 24
f 1 24 42
f 1 42 58
f 1 58 73
f 1 73 72
f 1 72 71
f 1 71 75
f 1 75 74
f 1 74 86
f 1 86 85
f 1 85 93
f 1 93 92
f 1 92 91
f 1 91 90
f 1 90 81
f 1 81 80
f 1 80 89
f 1 89 78
f 1 78 76
f 1 76 59
f 1 59 43
f 1 43 26
f 1 26 15
f 1 15 9
f 1 9 7
f 1 7 2
f 2 7 3
f 3 8 4
f 3 7 9
f 3 9 10
f 3 10 11
f 3 11 8
f 4 8 12
f 4 12 5
f 5 12 13
f 5 13 6
f 6 13 14
f 8 11 22
f 8 22 12
f 9 15 10
f 10 15 16
f 10 16 17
f 10 17 18
f 10 18 19
f 10 19 20
f 10 20 11
f 11 20 30
f 11 30 21
f 11 21 31
f 11 31 22
f 12 22 13
f 13 22 23
f 13 23 24
f 13 24 25
f 13 25 14
f 15 26 16
f 16 26 27
f 16 27 28
f 16 28 17
f 17 28 45
f 17 45 44
f 17 44 59
f 17 59 76
f 17 76 88
f 17 88 77
f 17 77 60
f 17 60 47
f 17 47 32
f 17 32 29
f 17 29 18
f 18 29 19
f 19 29 20
f 20 29 30
f 21 30 32
f 21 32 33
f 21 33 34
f 21 34 35
f 21 35 31
f 22 36 23
f 22 31 46
f 22 46 37
f 22 37 36
f 23 36 38
f 23 38 39
f 23 39 40
f 23 40 41
f 23 41 42
f 23 42 24
f 26 43 27
f 27 43 44
f 27 44 45
f 27 45 28
f 29 32 30
f 31 35 46
f 32 47 48
f 32 48 33
f 33 48 61
f 33 61 78
f 33 78 89
f 33 89 79
f 33 79 63
f 33 63 62
f 33 62 49
f 33 49 34
f 34 49 50
f 34 50 51
f 34 51 35
f 35 51 37
f 35 37 46
f 36 37 38
f 37 51 52
f 37 52 53
f 37 53 54
f 37 54 40
f 37 40 39
f 37 39 38
f 40 55 56
f 40 56 41
f 40 54 57
f 40 57 55
f 41 56 73
f 41 73 58
f 41 58 42
f 43 59 44
f 47 60 48
f 48 60 61
f 49 62 50
f 50 62 63
f 50 63 64
f 50 64 65
f 50 65 66
f 50 66 51
f 51 66 52
f 52 66 53
f 53 66 67
f 53 67 54
f 54 68 69
f 54 69 57
f 54 67 70
f 54 70 68
f 55 71 72
f 55 72 56
f 55 57 71
f 56 72 73
f 57 69 74
f 57 74 75
f 57 75 71
f 60 77 78
f 60 78 61
f 63 79 64
f 64 80 81
f 64 81 82
f 64 82 65
f 64 79 80
f 65 82 83
f 65 83 84
f 65 84 68
f 65 68 70
f 65 70 67
f 65 67 66
f 68 84 69
f 69 85 86
f 69 86 74
f 69 84 87
f 69 87 85
f 76 78 88
f 77 88 78
f 79 89 80
f 81 90 82
f 82 90 83
f 83 91 92
f 83 92 84
f 83 90 91
f 84 92 93
f 84 93 87
f 85 87 93

