# https://github.com/mikedh/trimesh
v 0.02400142 0.00930907 0.02375026
v 0.02400142 0.01474386 0.02650346
v 0.03218122 0.00930831 0.02495679
v 0.03204963 0.00703677 0.02495679
v 0.00850778 0.00703677 0.02495679
v -0.01118401 0.00736872 0.02492802
v 0.02400142 0.01474386 0.03321639
v 0.00240370 0.01474386 0.03568869
v 0.02974893 0.00930831 0.02811950
v 0.03013097 0.00787342 0.02751369
v 0.02977864 0.00755355 0.02794521
v 0.02945179 0.00703677 0.02832764
v 0.00240370 0.00703677 0.02618701
v -0.01118401 0.00736872 0.03932690
v -0.01118401 0.00986205 0.03353452
v 0.02391228 0.01474386 0.03328916
v 0.02805524 0.00930831 0.02979985
v 0.02860707 0.00930831 0.02934803
v 0.02920135 0.00930831 0.02879807
v 0.02949424 0.00930831 0.02843763
v -0.01118401 0.01006197 0.03816606
v 0.00240370 0.01474386 0.04100725
v 0.02913767 0.00703677 0.02872531
v 0.00240370 0.00703677 0.04055375
v -0.01082320 0.00736872 0.03947243
v -0.01118401 0.00741323 0.03933029
v 0.02353874 0.01474386 0.03357852
v 0.02797459 0.00703677 0.02973386
v 0.02822928 0.00703677 0.02952064
v 0.02852217 0.00703677 0.02927527
v 0.02915465 0.00762371 0.02874392
v -0.01118401 0.01006197 0.03943351
v -0.00011773 0.01006197 0.04103602
v 0.00098168 0.01006197 0.04097680
v 0.00098168 0.00982207 0.04096664
v 0.00240370 0.00878626 0.04073312
v 0.00978123 0.01312036 0.03996148
v 0.00978123 0.01474386 0.04003424
v -0.01073831 0.01006197 0.03964673
v -0.01056851 0.01006197 0.03968227
v -0.01001244 0.01006197 0.03978718
v -0.00891303 0.01006197 0.03993271
v -0.00121714 0.01006197 0.04094464
v 0.00648299 0.00703677 0.04011039
v 0.00098168 0.00736872 0.04085326
v -0.00011773 0.00736872 0.04090911
v -0.00037242 0.00736872 0.04089049
v -0.00121714 0.00736872 0.04082280
v -0.01007611 0.00736872 0.03965519
v -0.01029684 0.00736872 0.03962135
v -0.01060247 0.00785984 0.03959766
v -0.01118401 0.00752262 0.03933706
v 0.02138236 0.01474386 0.03523179
v 0.02419669 0.00762371 0.03266474
v 0.02543618 0.00703677 0.03167818
v -0.01118401 0.01003330 0.03943351
v 0.00700086 0.00703677 0.04004609
v 0.00758665 0.00872289 0.04004778
v 0.01036701 0.00703677 0.03959596
v 0.00926760 0.00930831 0.03985318
v 0.00977698 0.00762371 0.03970765
v 0.01030334 0.01474386 0.03991748
v -0.01072557 0.00982207 0.03964504
v -0.00780937 0.00872289 0.04001732
v 0.02106824 0.01474386 0.03541624
v 0.02072866 0.01202193 0.03550424
v 0.02068621 0.01092200 0.03548055
v 0.02055886 0.00762371 0.03540101
v 0.02133142 0.01347795 0.03519626
v 0.02142056 0.00703677 0.03475121
v 0.02244357 0.00930907 0.03410479
v 0.00981519 0.00703677 0.03967380
v 0.01049011 0.00872289 0.03963488
v 0.01287571 0.00703677 0.03862972
v 0.01144945 0.01456657 0.03959258
v 0.01092733 0.01474386 0.03977026
v 0.02076686 0.01474386 0.03559054
v 0.02076686 0.01422029 0.03557023
v 0.01983724 0.01474386 0.03609312
v 0.01980328 0.01422029 0.03608804
v 0.01973961 0.01312036 0.03607282
v 0.02053339 0.00703677 0.03538578
v 0.02108098 0.00703677 0.03500504
v 0.01097403 0.01420822 0.03973134
v 0.01290967 0.00762371 0.03864495
v 0.01827939 0.00703677 0.03638926
v 0.01567306 0.00930831 0.03758564
v 0.01146218 0.01474386 0.03959596
v 0.01314314 0.01014345 0.03867372
v 0.01388598 0.01474386 0.03859249
v 0.01928541 0.01474386 0.03635541
v 0.01914533 0.01235765 0.03629449
v 0.01830910 0.00762371 0.03640618
f 1 2 3
f 1 3 4
f 1 4 5
f 1 5 6
f 1 6 2
f 2 7 3
f 2 6 8
f 2 8 22
f 2 22 38
f 2 38 62
f 2 62 76
f 2 76 88
f 2 88 90
f 2 90 91
f 2 91 79
f 2 79 77
f 2 77 65
f 2 65 53
f 2 53 27
f 2 27 16
f 2 16 7
f 3 9 4
f 3 7 9
f 4 9 10
f 4 10 11
f 4 11 12
f 4 12 23
f 4 23 30
f 4 30 29
f 4 29 28
f 4 28 55
f 4 55 70
f 4 70 83
f 4 83 82
f 4 82 86
f 4 86 74
f 4 74 59
f 4 59 72
f 4 72 57
f 4 57 44
f 4 44 24
f 4 24 13
f 4 13 5
f 5 13 6
f 6 14 26
f 6 26 52
f 6 52 56
f 6 56 32
f 6 32 21
f 6 21 15
f 6 15 8
f 6 13 24
f 6 24 14
f 7 16 17
f 7 17 18
f 7 18 19
f 7 19 20
f 7 20 9
f 8 15 21
f 8 21 32
f 8 32 22
f 9 12 11
f 9 11 10
f 9 20 23
f 9 23 12
f 14 25 26
f 14 24 25
f 16 27 17
f 17 28 18
f 17 27 28
f 18 28 29
f 18 29 30
f 18 30 23
f 18 23 31
f 18 31 19
f 19 31 20
f 20 31 23
f 22 33 34
f 22 34 35
f 22 35 36
f 22 36 37
f 22 37 38
f 22 32 39
f 22 39 40
f 22 40 41
f 22 41 42
f 22 42 43
f 22 43 33
f 24 44 45
f 24 45 46
f 24 46 47
f 24 47 48
f 24 48 49
f 24 49 50
f 24 50 25
f 25 50 51
f 25 51 26
f 26 51 52
f 27 53 54
f 27 54 28
f 28 54 55
f 32 56 39
f 33 43 48
f 33 48 47
f 33 47 46
f 33 46 45
f 33 45 35
f 33 35 34
f 35 45 36
f 36 57 58
f 36 58 37
f 36 45 57
f 37 59 38
f 37 58 60
f 37 60 61
f 37 61 59
f 38 59 62
f 39 56 63
f 39 63 40
f 40 63 41
f 41 63 51
f 41 51 49
f 41 49 42
f 42 49 64
f 42 64 43
f 43 64 48
f 44 57 45
f 48 64 49
f 49 51 50
f 51 63 52
f 52 63 56
f 53 65 66
f 53 66 67
f 53 67 68
f 53 68 69
f 53 69 70
f 53 70 71
f 53 71 54
f 54 71 70
f 54 70 55
f 57 61 58
f 57 72 61
f 58 61 60
f 59 73 62
f 59 61 72
f 59 74 75
f 59 75 73
f 62 73 76
f 65 77 78
f 65 78 66
f 66 78 79
f 66 79 67
f 67 79 80
f 67 80 81
f 67 81 68
f 68 81 82
f 68 82 69
f 69 83 70
f 69 82 83
f 73 75 84
f 73 84 76
f 74 85 75
f 74 86 87
f 74 87 85
f 75 88 76
f 75 76 84
f 75 85 89
f 75 89 87
f 75 87 90
f 75 90 88
f 77 79 78
f 79 91 80
f 80 91 81
f 81 91 92
f 81 92 86
f 81 86 82
f 85 87 89
f 86 92 91
f 86 91 93
f 86 93 87
f 87 93 91
f 87 91 90

