# https://github.com/mikedh/trimesh
v -0.01962002 0.01006174 0.03035423
v -0.01889352 0.01006174 0.03031662
v -0.01962002 0.01006174 0.03590129
v -0.01962002 0.01253231 0.02991040
v 0.00239929 0.01006174 0.03561995
v -0.01962002 0.01313623 0.02980810
v -0.01857878 0.01006174 0.03642034
v -0.01962002 0.01433491 0.03619015
v 0.00239929 0.01006174 0.04079089
v 0.00239929 0.01313623 0.03566509
v -0.01962002 0.01423426 0.02984722
v 0.00239929 0.06626264 0.03735764
v 0.00239929 0.05569409 0.03700258
v 0.00239929 0.02412569 0.03594492
v 0.00239929 0.02192048 0.03587271
v 0.00239929 0.02083160 0.03583810
v 0.00239929 0.01752835 0.03574031
v 0.00239929 0.01642117 0.03571774
v -0.01317635 0.01006174 0.03865451
v -0.01169531 0.01672313 0.03959783
v -0.01167160 0.08288866 0.04288514
v -0.01962002 0.01828783 0.03639627
v -0.01939367 0.01450877 0.03630148
v -0.01962002 0.01532314 0.03624582
v 0.00229365 0.01006174 0.04080593
v 0.00239929 0.01018984 0.04079691
v -0.01962002 0.01532314 0.02989085
v -0.01962002 0.07445212 0.03232812
v 0.00239929 0.07909131 0.03793837
v -0.01254470 0.01006174 0.03888019
v -0.01074030 0.01008004 0.03964898
v -0.01057646 0.03119884 0.04068708
v -0.01111540 0.09117880 0.04337109
v -0.01221271 0.09557092 0.04327782
v -0.01317635 0.09887417 0.04305214
v -0.01857878 0.09887417 0.04081346
v -0.01962002 0.08567949 0.03972872
v 0.00121791 0.01006174 0.04094736
v 0.00239929 0.08491087 0.04424521
v -0.01962002 0.07469003 0.03234016
v -0.01962002 0.07549525 0.03238379
v 0.00239929 0.08018934 0.03800006
v -0.00304410 0.01006174 0.04070664
v -0.01056999 0.01008004 0.03968358
v -0.01011511 0.07899980 0.04295586
v -0.01064975 0.07932006 0.04289718
v -0.01001595 0.01008004 0.03978739
v -0.01001595 0.01643032 0.04008227
v -0.00946838 0.09941403 0.04398192
v -0.01111540 0.09227683 0.04341322
v -0.01221271 0.09666896 0.04332145
v -0.01322593 0.09998135 0.04307321
v -0.01862836 0.09998135 0.04083602
v -0.01962002 0.09367682 0.04012139
v 0.00097646 0.01006174 0.04097895
v 0.00048925 0.07396716 0.04399095
v 0.00239929 0.08821411 0.04439716
v 0.00067896 0.09888332 0.04511480
v 0.00053237 0.09804150 0.04509524
v -0.01962002 0.07578806 0.03240034
v 0.00239929 0.10218656 0.03938720
v -0.00977881 0.01008004 0.03981899
v -0.00122029 0.01006174 0.04094585
v -0.00122029 0.01202905 0.04103763
v -0.00401205 0.01245911 0.04069009
v -0.01001595 0.08458146 0.04322666
v -0.00461568 0.02072179 0.04099249
v -0.00844222 0.07282338 0.04289267
v -0.00848318 0.09689771 0.04399696
v -0.00080423 0.09888332 0.04509976
v -0.00095082 0.09998135 0.04511931
v -0.00952443 0.09997220 0.04398944
v -0.01221271 0.09887417 0.04339517
v -0.01323240 0.10107938 0.04307621
v -0.01254470 0.09997220 0.04330941
v -0.01551323 0.10107938 0.04213139
v -0.01863483 0.10107938 0.04083753
v -0.01962002 0.10217741 0.04035308
v -0.01962002 0.09998135 0.04033804
v -0.01962002 0.09931338 0.04031698
v -0.01962002 0.09448204 0.04015148
v -0.00012084 0.01006174 0.04103462
v 0.00053452 0.02656881 0.04179739
v 0.00014432 0.07396716 0.04399095
v 0.00044829 0.04991113 0.04288514
v 0.00239929 0.08931215 0.04444681
v 0.00082771 0.09998135 0.04513436
v -0.00012084 0.09998135 0.04517197
v 0.00239929 0.09041018 0.04449194
v -0.00012084 0.09888332 0.04513285
v -0.01962002 0.10217741 0.03441184
v 0.00239929 0.10269898 0.03944136
v -0.00098316 0.01006174 0.04096541
v -0.00069859 0.02679757 0.04178687
v -0.00080854 0.02742894 0.04180191
v -0.00122029 0.05929929 0.04321914
v -0.00461568 0.09557092 0.04444530
v -0.00069428 0.09827025 0.04508471
v -0.00012084 0.10108853 0.04517799
v -0.00097238 0.10108853 0.04512082
v -0.00782135 0.10107023 0.04421963
v -0.00891649 0.10107023 0.04407520
v -0.00954167 0.10107023 0.04399245
v -0.01221271 0.09997220 0.04342225
v -0.01254470 0.10107938 0.04331392
v -0.01221271 0.10216826 0.04341774
v -0.01254470 0.10217741 0.04330189
v -0.01321300 0.10217741 0.04306719
v -0.01254470 0.10107023 0.04331392
v -0.01861327 0.10217741 0.04082850
v -0.01849039 0.10290943 0.04077584
v -0.01962002 0.10312904 0.03999201
v 0.00033188 0.04991113 0.04288514
v -0.00012084 0.02657796 0.04179739
v -0.00018120 0.07461683 0.04401201
v 0.00084711 0.10108853 0.04513737
v 0.00239929 0.09150821 0.04453106
v 0.00239929 0.09260624 0.04456566
v 0.00239929 0.10218656 0.04478983
v -0.01962002 0.10310159 0.03473982
v 0.00239929 0.10294603 0.03948499
v 0.00078460 0.10218656 0.04512834
v -0.00012084 0.10218656 0.04515994
v -0.00090986 0.10218656 0.04511330
v -0.00562028 0.10216826 0.04449344
v -0.00949640 0.10189376 0.04398643
v -0.01221271 0.10107023 0.04342676
v -0.00945544 0.10262578 0.04397891
v -0.01305562 0.10294603 0.04300249
v -0.01613841 0.10279963 0.04181394
v -0.01551323 0.10298264 0.04194333
v -0.01771214 0.10307414 0.04092329
v -0.01771214 0.10348590 0.04013192
v -0.01962002 0.10352250 0.03903214
v 0.00133432 0.10218656 0.04501400
v 0.00239929 0.10246107 0.04469204
v 0.00064447 0.10280878 0.04511029
v -0.01962002 0.10351335 0.03573881
v 0.00239929 0.10338525 0.04013493
v 0.00239929 0.10325714 0.03992882
v -0.00012084 0.10282708 0.04511781
v -0.00080854 0.10278133 0.04509976
v -0.00782135 0.10216826 0.04420308
v -0.00872247 0.10283623 0.04402856
v -0.01221271 0.10308329 0.04314843
v -0.01254470 0.10303754 0.04309126
v -0.01551323 0.10340355 0.04123171
v -0.01221271 0.10349505 0.04233149
v -0.01441378 0.10353165 0.04123171
v -0.00452082 0.10354080 0.04013493
v 0.00239929 0.10314734 0.04440919
v 0.00099802 0.10311989 0.04462434
v -0.00012084 0.10326629 0.04453256
v 0.00239929 0.10351335 0.04123321
v 0.00239929 0.10349505 0.04091125
v -0.00562028 0.10311074 0.04423166
v -0.00671973 0.10305584 0.04415945
v -0.00782135 0.10295518 0.04408723
v -0.01111540 0.10312904 0.04327782
v -0.00782135 0.10339440 0.04343127
v -0.00671973 0.10348590 0.04343127
v -0.00562028 0.10352250 0.04343127
v -0.00461568 0.10353165 0.04343278
v -0.00452082 0.10353165 0.04343278
v 0.00239929 0.10325714 0.04414139
v 0.00207592 0.10315649 0.04443627
v 0.00239929 0.10349505 0.04343278
v -0.00012084 0.10351335 0.04343278
f 1 2 5
f 1 5 9
f 1 9 25
f 1 25 38
f 1 38 55
f 1 55 82
f 1 82 93
f 1 93 63
f 1 63 43
f 1 43 30
f 1 30 19
f 1 19 7
f 1 7 3
f 1 3 8
f 1 8 24
f 1 24 22
f 1 22 37
f 1 37 54
f 1 54 81
f 1 81 80
f 1 80 79
f 1 79 78
f 1 78 112
f 1 112 134
f 1 134 138
f 1 138 120
f 1 120 91
f 1 91 60
f 1 60 41
f 1 41 40
f 1 40 28
f 1 28 27
f 1 27 11
f 1 11 6
f 1 6 4
f 1 4 2
f 2 4 6
f 2 6 5
f 3 7 8
f 5 6 10
f 5 10 18
f 5 18 17
f 5 17 16
f 5 16 15
f 5 15 14
f 5 14 13
f 5 13 12
f 5 12 29
f 5 29 42
f 5 42 61
f 5 61 92
f 5 92 121
f 5 121 140
f 5 140 139
f 5 139 155
f 5 155 154
f 5 154 167
f 5 167 165
f 5 165 151
f 5 151 136
f 5 136 119
f 5 119 118
f 5 118 117
f 5 117 89
f 5 89 86
f 5 86 57
f 5 57 39
f 5 39 26
f 5 26 9
f 6 11 12
f 6 12 13
f 6 13 14
f 6 14 15
f 6 15 16
f 6 16 17
f 6 17 18
f 6 18 10
f 7 19 20
f 7 20 21
f 7 21 22
f 7 22 23
f 7 23 24
f 7 24 8
f 9 26 25
f 11 27 12
f 12 27 28
f 12 28 29
f 19 30 31
f 19 31 20
f 20 31 21
f 21 31 32
f 21 32 33
f 21 33 34
f 21 34 35
f 21 35 36
f 21 36 22
f 22 24 23
f 22 36 37
f 25 26 39
f 25 39 38
f 28 40 29
f 29 40 41
f 29 41 42
f 30 43 44
f 30 44 31
f 31 44 32
f 32 45 46
f 32 46 33
f 32 44 47
f 32 47 48
f 32 48 45
f 33 46 49
f 33 49 50
f 33 50 51
f 33 51 34
f 34 51 35
f 35 51 52
f 35 52 53
f 35 53 36
f 36 53 54
f 36 54 37
f 38 39 56
f 38 56 55
f 39 57 58
f 39 58 59
f 39 59 56
f 41 60 42
f 42 60 61
f 43 62 47
f 43 47 44
f 43 63 64
f 43 64 65
f 43 65 48
f 43 48 62
f 45 66 46
f 45 48 66
f 46 66 49
f 47 62 48
f 48 65 67
f 48 67 68
f 48 68 66
f 49 66 69
f 49 69 70
f 49 70 71
f 49 71 72
f 49 72 50
f 50 72 73
f 50 73 51
f 51 73 52
f 52 74 53
f 52 73 75
f 52 75 74
f 53 74 76
f 53 76 77
f 53 77 78
f 53 78 79
f 53 79 80
f 53 80 81
f 53 81 54
f 55 56 83
f 55 83 82
f 56 84 113
f 56 113 85
f 56 85 83
f 56 59 84
f 57 86 58
f 58 87 88
f 58 88 59
f 58 86 89
f 58 89 87
f 59 88 90
f 59 90 84
f 60 91 61
f 61 91 92
f 63 93 94
f 63 94 64
f 64 67 65
f 64 94 95
f 64 95 96
f 64 96 67
f 66 68 69
f 67 96 68
f 68 96 70
f 68 70 97
f 68 97 69
f 69 97 70
f 70 98 88
f 70 88 71
f 70 96 95
f 70 95 94
f 70 94 98
f 71 88 99
f 71 99 100
f 71 100 101
f 71 101 72
f 72 101 102
f 72 102 103
f 72 103 104
f 72 104 73
f 73 104 75
f 74 105 106
f 74 106 107
f 74 107 108
f 74 108 76
f 74 75 109
f 74 109 105
f 75 104 127
f 75 127 109
f 76 108 77
f 77 108 110
f 77 110 78
f 78 110 111
f 78 111 112
f 82 83 85
f 82 85 113
f 82 113 114
f 82 114 94
f 82 94 93
f 84 115 114
f 84 114 113
f 84 90 115
f 87 116 99
f 87 99 88
f 87 89 117
f 87 117 118
f 87 118 119
f 87 119 116
f 88 98 90
f 90 98 115
f 91 120 121
f 91 121 92
f 94 114 115
f 94 115 98
f 99 116 122
f 99 122 123
f 99 123 124
f 99 124 100
f 100 124 101
f 101 124 125
f 101 125 126
f 101 126 102
f 102 126 103
f 103 126 106
f 103 106 127
f 103 127 104
f 105 109 127
f 105 127 106
f 106 126 128
f 106 128 129
f 106 129 107
f 107 129 108
f 108 129 130
f 108 130 110
f 110 130 111
f 111 130 129
f 111 129 131
f 111 131 132
f 111 132 112
f 112 133 134
f 112 132 133
f 116 119 135
f 116 135 122
f 119 136 137
f 119 137 135
f 120 138 139
f 120 139 140
f 120 140 121
f 122 135 137
f 122 137 123
f 123 137 141
f 123 141 142
f 123 142 124
f 124 142 128
f 124 128 125
f 125 143 126
f 125 128 143
f 126 143 128
f 128 142 144
f 128 144 145
f 128 145 146
f 128 146 129
f 129 146 132
f 129 132 131
f 132 146 145
f 132 145 147
f 132 147 133
f 133 147 148
f 133 148 149
f 133 149 134
f 134 149 150
f 134 150 138
f 136 151 137
f 137 151 152
f 137 152 153
f 137 153 141
f 138 150 154
f 138 154 155
f 138 155 139
f 141 153 156
f 141 156 142
f 142 156 157
f 142 157 158
f 142 158 144
f 144 158 145
f 145 158 157
f 145 157 159
f 145 159 160
f 145 160 148
f 145 148 147
f 148 160 161
f 148 161 162
f 148 162 149
f 149 162 163
f 149 163 150
f 150 163 164
f 150 164 154
f 151 165 153
f 151 153 166
f 151 166 152
f 152 166 153
f 153 165 167
f 153 167 168
f 153 168 164
f 153 164 163
f 153 163 162
f 153 162 161
f 153 161 156
f 154 168 167
f 154 164 168
f 156 161 160
f 156 160 157
f 157 160 159

