# https://github.com/mikedh/trimesh
v 0.01775130 0.01942147 -0.03716120
v 0.01775130 0.01942147 -0.03133163
v 0.01775130 0.02529128 -0.03751147
v 0.01860614 0.01156762 -0.03647942
v 0.01860614 0.01092761 -0.03643980
v 0.01860614 0.01015045 -0.03638976
v 0.01860614 0.01015045 -0.03512210
v 0.01860614 0.01119276 -0.03127325
v 0.01860614 0.01202477 -0.03078746
v 0.01860614 0.01312193 -0.03058105
v 0.02891059 0.01312193 -0.02078171
v 0.02988912 0.01942147 -0.01985182
v 0.02988912 0.01943976 -0.01985182
v 0.01775130 0.02006148 -0.03135248
v 0.01834328 0.07468185 -0.03971528
v 0.01860614 0.01312193 -0.03655864
v 0.01860614 0.01274707 -0.03653988
v 0.01775130 0.09285817 -0.04085784
v 0.01867241 0.01200648 -0.03647524
v 0.01914952 0.01236306 -0.03629385
v 0.01957805 0.01200648 -0.03608119
v 0.02035558 0.01015045 -0.03560164
v 0.02199457 0.01015045 -0.02817083
v 0.01901478 0.01118361 -0.03070406
v 0.02748586 0.01015045 -0.02265192
v 0.01883365 0.01202477 -0.03056645
v 0.02895697 0.01236306 -0.02078171
v 0.02893268 0.01275621 -0.02078171
v 0.02897464 0.01232649 -0.02078171
v 0.02931260 0.01198820 -0.02078171
v 0.03388720 0.01015045 -0.02078171
v 0.03629710 0.01942147 -0.01985182
v 0.03006804 0.02373697 -0.01985182
v 0.01775130 0.06629771 -0.03307884
v 0.01775130 0.05391807 -0.03259512
v 0.01775130 0.02443184 -0.03150052
v 0.01957142 0.01942147 -0.03647107
v 0.02077305 0.09887427 -0.03990501
v 0.02137166 0.09777711 -0.03960269
v 0.01926218 0.01422824 -0.03634181
v 0.01775130 0.09446734 -0.04093707
v 0.02023188 0.02129579 -0.03628551
v 0.01974371 0.01312193 -0.03607285
v 0.02065819 0.01015045 -0.03546195
v 0.02754550 0.01015045 -0.02260814
v 0.03537378 0.01015045 -0.02078171
v 0.03566094 0.01468539 -0.02078171
v 0.03671458 0.02669931 -0.01985182
v 0.03049657 0.03402287 -0.01985182
v 0.03155020 0.05931244 -0.01985182
v 0.03204720 0.07110693 -0.01985182
v 0.01775130 0.07577901 -0.03346664
v 0.02134295 0.05303119 -0.03739471
v 0.02143793 0.09887427 -0.03962771
v 0.01846256 0.09887427 -0.04085992
v 0.01851116 0.09998058 -0.04088286
v 0.02148873 0.09998058 -0.03964856
v 0.02192168 0.09777711 -0.03936292
v 0.01775130 0.09558279 -0.04098711
v 0.02133632 0.01348765 -0.03519716
v 0.02120821 0.01015045 -0.03506581
v 0.02132969 0.03230398 -0.03628551
v 0.03489225 0.01015045 -0.02146558
v 0.03561234 0.01479510 -0.02089221
v 0.03671679 0.03559546 -0.02090264
v 0.03650032 0.02742161 -0.02041893
v 0.03703707 0.03732349 -0.02034595
v 0.04005441 0.09447648 -0.01989352
v 0.04021787 0.09746625 -0.01985182
v 0.03220624 0.07468185 -0.01985182
v 0.03224600 0.07551387 -0.01985182
v 0.01775130 0.07687618 -0.03351668
v 0.02242972 0.08505918 -0.03848515
v 0.02198794 0.09887427 -0.03938377
v 0.01775130 0.09667080 -0.04103089
v 0.01775130 0.09887427 -0.04111429
v 0.01775130 0.09998058 -0.04114348
v 0.01775130 0.10105945 -0.04115182
v 0.01851999 0.10105945 -0.04088494
v 0.02077305 0.10105945 -0.03995297
v 0.02149536 0.10105945 -0.03965273
v 0.02203875 0.09998058 -0.03939628
v 0.02136504 0.01422824 -0.03521801
v 0.02248052 0.01015045 -0.03412966
v 0.02153070 0.01862603 -0.03534519
v 0.03467578 0.01015045 -0.02175956
v 0.03451232 0.01037903 -0.02199308
v 0.03456312 0.01202477 -0.02205563
v 0.03542901 0.02302382 -0.02175330
v 0.03563222 0.01552655 -0.02092140
v 0.03672120 0.04876141 -0.02200350
v 0.03780797 0.06755030 -0.02199308
v 0.03892125 0.08936554 -0.02200975
v 0.03919295 0.09007869 -0.02144473
v 0.03930118 0.09227301 -0.02144473
v 0.04016044 0.09887427 -0.02015831
v 0.04026426 0.09850855 -0.01985182
v 0.01775130 0.07799162 -0.03358965
v 0.03431573 0.10217490 -0.01985182
v 0.01775130 0.10252233 -0.03526597
v 0.02230602 0.09849026 -0.03918778
v 0.02286708 0.09667995 -0.03878539
v 0.02352091 0.09951428 -0.03847264
v 0.02324922 0.09226387 -0.03827040
v 0.02476230 0.09888341 -0.03749062
v 0.02739529 0.02962507 -0.03148384
v 0.01775130 0.10188232 -0.04115182
v 0.01849790 0.10217490 -0.04087452
v 0.02147327 0.10217490 -0.03964439
v 0.02204537 0.10105945 -0.03939837
v 0.02230602 0.10105945 -0.03924616
v 0.02230602 0.09996229 -0.03923991
v 0.02294660 0.09888341 -0.03883334
v 0.02787904 0.01015045 -0.02998683
v 0.02717661 0.01942147 -0.03106267
v 0.03353599 0.01015045 -0.02325031
v 0.02977647 0.01015045 -0.02814998
v 0.03025359 0.01202477 -0.02767044
v 0.03086766 0.01422824 -0.02703661
v 0.03245143 0.02082949 -0.02547080
v 0.03747002 0.07028406 -0.02264567
v 0.03816802 0.09447648 -0.02355263
v 0.03874233 0.09558279 -0.02283749
v 0.03915761 0.09887427 -0.02243509
v 0.03913110 0.09777711 -0.02238505
v 0.03893892 0.09007869 -0.02204311
v 0.04018253 0.09998058 -0.02020835
v 0.04030181 0.09956914 -0.01985182
v 0.03436212 0.10266862 -0.01985182
v 0.03441955 0.10286063 -0.01985182
v 0.01775130 0.10293377 -0.03546612
v 0.02290684 0.09777711 -0.03881249
v 0.02353637 0.10025487 -0.03848723
v 0.02479764 0.09998058 -0.03751356
v 0.02965719 0.09888341 -0.03373351
v 0.02902103 0.02025348 -0.02969494
v 0.01775130 0.10217490 -0.04114348
v 0.01833445 0.10294291 -0.04080780
v 0.02142026 0.10280577 -0.03961937
v 0.02202328 0.10217490 -0.03938794
v 0.02230602 0.10184575 -0.03923157
v 0.02297531 0.10105945 -0.03885419
v 0.02308134 0.09992572 -0.03877705
v 0.02816398 0.01202477 -0.02987633
v 0.02809109 0.01015045 -0.02982212
v 0.02922646 0.01015045 -0.02882134
v 0.03011885 0.03670177 -0.02969702
v 0.02989575 0.01422824 -0.02830218
v 0.03235645 0.06147934 -0.02864828
v 0.03760255 0.09747539 -0.02451588
v 0.03768207 0.09888341 -0.02451797
v 0.03787203 0.09887427 -0.02426777
v 0.03880418 0.09887427 -0.02298552
v 0.03883069 0.09998058 -0.02302305
v 0.03917748 0.09998058 -0.02247262
v 0.04031064 0.09998058 -0.01985182
v 0.03918190 0.10106859 -0.02247887
v 0.04018474 0.10106859 -0.02021460
v 0.04031727 0.10106859 -0.01985182
v 0.04031506 0.10066630 -0.01985182
v 0.03505129 0.10328120 -0.01985182
v 0.01775130 0.10313492 -0.03571423
v 0.03095160 0.09998058 -0.03278694
v 0.02353637 0.10105945 -0.03848723
v 0.02969474 0.10105945 -0.03376062
v 0.03092067 0.09888341 -0.03276192
v 0.03123433 0.08814951 -0.03190292
v 0.03122550 0.07064064 -0.03080205
v 0.02905416 0.01015045 -0.02898605
v 0.02864331 0.01015045 -0.02937177
v 0.01775130 0.10305263 -0.04091413
v 0.02077305 0.10298863 -0.03975281
v 0.02278314 0.10300691 -0.03871241
v 0.02351428 0.10244919 -0.03847264
v 0.02230602 0.10214747 -0.03922323
v 0.02307913 0.10212004 -0.03876662
v 0.03012768 0.02230152 -0.02860659
v 0.03259059 0.09888341 -0.03114816
v 0.03770416 0.09934057 -0.02451588
v 0.03773066 0.09998058 -0.02451797
v 0.03789412 0.09998058 -0.02430113
v 0.03883511 0.10106859 -0.02302722
v 0.03883290 0.10217490 -0.02301262
v 0.03917086 0.10217490 -0.02246219
v 0.04017811 0.10217490 -0.02019375
v 0.04030181 0.10217490 -0.01985182
v 0.03616456 0.10350064 -0.01985182
v 0.03506233 0.10341835 -0.02034595
v 0.01775130 0.10350978 -0.03683177
v 0.03095822 0.10105945 -0.03278902
v 0.03162089 0.09998058 -0.03223860
v 0.02478881 0.10217490 -0.03750521
v 0.03094276 0.10217490 -0.03277860
v 0.03159217 0.09888341 -0.03221149
v 0.03148394 0.09558279 -0.03211767
v 0.03214439 0.09888341 -0.03169650
v 0.01775130 0.10343663 -0.04015104
v 0.02077305 0.10342749 -0.03903141
v 0.02182007 0.10312577 -0.03906060
v 0.02407092 0.10305263 -0.03771163
v 0.02472917 0.10287891 -0.03746143
v 0.02307913 0.10323549 -0.03803688
v 0.02512677 0.10313492 -0.03682135
v 0.02908509 0.10283320 -0.03413800
v 0.03216869 0.09998058 -0.03172986
v 0.03261489 0.09998058 -0.03117943
v 0.03773729 0.10105945 -0.02451797
v 0.03789633 0.10106859 -0.02430530
v 0.03788749 0.10217490 -0.02429071
v 0.03785657 0.10281491 -0.02425318
v 0.03908250 0.10297948 -0.02230165
v 0.04012068 0.10292463 -0.02005406
v 0.04022008 0.10274177 -0.01985182
v 0.03836020 0.10349149 -0.01985182
v 0.03836020 0.10350978 -0.02034595
v 0.03506233 0.10352806 -0.02144473
v 0.03396452 0.10354635 -0.02254351
v 0.01967303 0.10352806 -0.03573300
v 0.01967303 0.10352806 -0.03903141
v 0.01857521 0.10350064 -0.03903141
v 0.01775130 0.10347321 -0.03903141
v 0.03162752 0.10105945 -0.03223860
v 0.03161426 0.10217490 -0.03223026
v 0.03217753 0.10105945 -0.03173195
v 0.03029777 0.10293377 -0.03312471
v 0.02187308 0.10353721 -0.03793263
v 0.02407092 0.10346406 -0.03683177
v 0.02593743 0.10297034 -0.03644605
v 0.02629527 0.10321720 -0.03577261
v 0.03066444 0.10319892 -0.03246169
v 0.03261710 0.10105945 -0.03118360
v 0.03260826 0.10217490 -0.03116901
v 0.03771520 0.10217490 -0.02451797
v 0.03453220 0.10277834 -0.02862118
v 0.03351832 0.10290634 -0.02983046
v 0.03684269 0.10293377 -0.02546663
v 0.03808408 0.10300691 -0.02364437
v 0.03723367 0.10308920 -0.02467226
v 0.03844192 0.10321720 -0.02261857
v 0.03926805 0.10313492 -0.02144473
v 0.04015381 0.10297034 -0.01985182
v 0.03949998 0.10333606 -0.01985182
v 0.03836020 0.10352806 -0.02144473
v 0.03506233 0.10354635 -0.02584401
v 0.02627318 0.10355550 -0.03463214
v 0.02737541 0.10354635 -0.03024120
v 0.02297531 0.10353721 -0.03353336
v 0.03216427 0.10217490 -0.03171944
v 0.03147510 0.10299777 -0.03211141
v 0.02517315 0.10352806 -0.03573300
v 0.02847102 0.10344578 -0.03353336
v 0.02956442 0.10351892 -0.03243667
v 0.03181306 0.10321720 -0.03137750
v 0.03250665 0.10297948 -0.03103974
v 0.03618224 0.10319892 -0.02583984
v 0.03726459 0.10342749 -0.02364437
v 0.03616236 0.10350978 -0.02474315
v 0.03176447 0.10353721 -0.03024120
v 0.03066665 0.10354635 -0.03133789
v 0.03286891 0.10316235 -0.03021409
v 0.03286228 0.10347321 -0.02914242
f 1 2 14
f 1 14 36
f 1 36 35
f 1 35 34
f 1 34 52
f 1 52 72
f 1 72 98
f 1 98 100
f 1 100 131
f 1 131 162
f 1 162 189
f 1 189 221
f 1 221 197
f 1 197 171
f 1 171 137
f 1 137 107
f 1 107 78
f 1 78 77
f 1 77 76
f 1 76 75
f 1 75 59
f 1 59 41
f 1 41 18
f 1 18 3
f 1 3 4
f 1 4 5
f 1 5 6
f 1 6 7
f 1 7 2
f 2 7 8
f 2 8 9
f 2 9 10
f 2 10 11
f 2 11 12
f 2 12 13
f 2 13 14
f 3 15 16
f 3 16 17
f 3 17 4
f 3 18 15
f 4 19 20
f 4 20 5
f 4 17 19
f 5 20 6
f 6 20 21
f 6 21 22
f 6 22 44
f 6 44 61
f 6 61 84
f 6 84 114
f 6 114 145
f 6 145 170
f 6 170 169
f 6 169 146
f 6 146 117
f 6 117 116
f 6 116 86
f 6 86 63
f 6 63 46
f 6 46 31
f 6 31 45
f 6 45 25
f 6 25 23
f 6 23 7
f 7 23 8
f 8 24 9
f 8 23 24
f 9 24 25
f 9 25 26
f 9 26 10
f 10 26 27
f 10 27 28
f 10 28 11
f 11 28 12
f 12 28 27
f 12 27 29
f 12 29 30
f 12 30 31
f 12 31 46
f 12 46 32
f 12 32 48
f 12 48 69
f 12 69 97
f 12 97 128
f 12 128 156
f 12 156 160
f 12 160 159
f 12 159 186
f 12 186 213
f 12 213 241
f 12 241 242
f 12 242 214
f 12 214 187
f 12 187 161
f 12 161 130
f 12 130 129
f 12 129 99
f 12 99 71
f 12 71 70
f 12 70 51
f 12 51 50
f 12 50 49
f 12 49 33
f 12 33 13
f 13 33 34
f 13 34 35
f 13 35 36
f 13 36 14
f 15 37 16
f 15 18 38
f 15 38 39
f 15 39 37
f 16 40 17
f 16 37 40
f 17 40 19
f 18 41 38
f 19 40 20
f 20 40 42
f 20 42 43
f 20 43 21
f 21 44 22
f 21 43 44
f 23 25 24
f 25 45 29
f 25 29 27
f 25 27 26
f 29 45 30
f 30 45 31
f 32 46 47
f 32 47 48
f 33 49 34
f 34 49 50
f 34 50 51
f 34 51 52
f 37 53 42
f 37 42 40
f 37 39 53
f 38 54 39
f 38 41 55
f 38 55 56
f 38 56 57
f 38 57 54
f 39 54 58
f 39 58 53
f 41 59 55
f 42 53 44
f 42 44 43
f 44 60 61
f 44 53 62
f 44 62 60
f 46 63 64
f 46 64 47
f 47 64 65
f 47 65 66
f 47 66 48
f 48 66 65
f 48 65 67
f 48 67 68
f 48 68 69
f 51 70 52
f 52 70 71
f 52 71 72
f 53 58 73
f 53 73 62
f 54 74 58
f 54 57 74
f 55 59 75
f 55 75 76
f 55 76 56
f 56 77 78
f 56 78 79
f 56 79 80
f 56 80 57
f 56 76 77
f 57 80 81
f 57 81 82
f 57 82 74
f 58 74 73
f 60 83 84
f 60 84 61
f 60 62 83
f 62 85 83
f 62 73 85
f 63 86 64
f 64 86 87
f 64 87 88
f 64 88 89
f 64 89 90
f 64 90 91
f 64 91 92
f 64 92 65
f 65 92 93
f 65 93 67
f 67 93 94
f 67 94 68
f 68 94 95
f 68 95 96
f 68 96 69
f 69 96 97
f 71 98 72
f 71 99 100
f 71 100 98
f 73 74 101
f 73 101 102
f 73 102 103
f 73 103 104
f 73 104 105
f 73 105 106
f 73 106 84
f 73 84 85
f 74 82 101
f 78 107 79
f 79 107 108
f 79 108 109
f 79 109 80
f 80 109 81
f 81 110 82
f 81 109 110
f 82 110 111
f 82 111 112
f 82 112 113
f 82 113 101
f 83 85 84
f 84 106 115
f 84 115 114
f 86 116 87
f 87 116 88
f 88 116 117
f 88 117 118
f 88 118 119
f 88 119 120
f 88 120 121
f 88 121 89
f 89 121 91
f 89 91 90
f 91 121 92
f 92 121 122
f 92 122 123
f 92 123 124
f 92 124 125
f 92 125 126
f 92 126 93
f 93 126 95
f 93 95 94
f 95 126 125
f 95 125 96
f 96 125 124
f 96 124 127
f 96 127 97
f 97 127 128
f 99 129 100
f 100 129 130
f 100 130 131
f 101 113 132
f 101 132 102
f 102 132 103
f 103 133 134
f 103 134 135
f 103 135 105
f 103 105 104
f 103 132 113
f 103 113 133
f 105 135 106
f 106 136 115
f 106 135 136
f 107 137 108
f 108 137 138
f 108 138 139
f 108 139 109
f 109 140 110
f 109 139 140
f 110 141 111
f 110 140 141
f 111 141 142
f 111 142 112
f 112 142 143
f 112 143 113
f 113 143 133
f 114 115 136
f 114 136 144
f 114 144 145
f 117 146 147
f 117 147 148
f 117 148 118
f 118 148 119
f 119 148 120
f 120 149 150
f 120 150 121
f 120 148 149
f 121 150 151
f 121 151 122
f 122 151 152
f 122 152 153
f 122 153 123
f 123 153 124
f 124 153 154
f 124 154 155
f 124 155 127
f 127 156 128
f 127 155 157
f 127 157 158
f 127 158 159
f 127 159 160
f 127 160 156
f 130 161 162
f 130 162 131
f 133 163 134
f 133 143 142
f 133 142 164
f 133 164 165
f 133 165 163
f 134 163 135
f 135 163 166
f 135 166 167
f 135 167 136
f 136 167 168
f 136 168 147
f 136 147 146
f 136 146 169
f 136 169 170
f 136 170 145
f 136 145 144
f 137 171 138
f 138 171 172
f 138 172 139
f 139 172 173
f 139 173 174
f 139 174 140
f 140 174 175
f 140 175 141
f 141 175 176
f 141 176 142
f 142 176 164
f 147 177 148
f 147 168 178
f 147 178 177
f 148 177 149
f 149 177 178
f 149 178 151
f 149 151 150
f 151 178 179
f 151 179 152
f 152 179 180
f 152 180 181
f 152 181 154
f 152 154 153
f 154 181 182
f 154 182 157
f 154 157 155
f 157 182 183
f 157 183 184
f 157 184 185
f 157 185 158
f 158 185 159
f 159 185 186
f 161 187 188
f 161 188 189
f 161 189 162
f 163 165 190
f 163 190 191
f 163 191 166
f 164 176 174
f 164 174 192
f 164 192 165
f 165 192 193
f 165 193 190
f 166 194 195
f 166 195 167
f 166 191 194
f 167 195 196
f 167 196 168
f 168 196 178
f 171 197 198
f 171 198 172
f 172 198 199
f 172 199 173
f 173 200 201
f 173 201 174
f 173 199 202
f 173 202 203
f 173 203 200
f 174 193 192
f 174 176 175
f 174 201 204
f 174 204 193
f 178 196 205
f 178 205 206
f 178 206 179
f 179 206 180
f 180 206 207
f 180 207 181
f 181 207 208
f 181 208 182
f 182 208 183
f 183 208 209
f 183 209 210
f 183 210 211
f 183 211 184
f 184 211 212
f 184 212 185
f 185 212 186
f 186 212 213
f 187 214 215
f 187 215 216
f 187 216 217
f 187 217 189
f 187 189 188
f 189 218 219
f 189 219 220
f 189 220 221
f 189 217 218
f 190 222 191
f 190 193 223
f 190 223 222
f 191 222 224
f 191 224 205
f 191 205 194
f 193 204 225
f 193 225 223
f 194 196 195
f 194 205 196
f 197 221 220
f 197 220 219
f 197 219 198
f 198 219 226
f 198 226 227
f 198 227 202
f 198 202 199
f 200 203 201
f 201 203 228
f 201 228 225
f 201 225 204
f 202 227 203
f 203 227 229
f 203 229 230
f 203 230 228
f 205 224 206
f 206 224 231
f 206 231 207
f 207 231 232
f 207 232 233
f 207 233 209
f 207 209 208
f 209 233 210
f 210 234 235
f 210 235 236
f 210 236 237
f 210 237 211
f 210 233 234
f 211 237 238
f 211 238 239
f 211 239 240
f 211 240 241
f 211 241 212
f 212 241 213
f 214 242 215
f 215 242 243
f 215 243 217
f 215 217 216
f 217 244 245
f 217 245 246
f 217 246 247
f 217 247 218
f 217 243 244
f 218 247 245
f 218 245 226
f 218 226 219
f 222 223 224
f 223 248 224
f 223 225 249
f 223 249 248
f 224 248 232
f 224 232 231
f 225 228 230
f 225 230 249
f 226 245 250
f 226 250 227
f 227 251 229
f 227 250 252
f 227 252 251
f 229 251 230
f 230 251 252
f 230 252 253
f 230 253 249
f 232 248 234
f 232 234 233
f 234 248 235
f 235 248 254
f 235 254 236
f 236 254 238
f 236 238 237
f 238 255 239
f 238 254 255
f 239 255 256
f 239 256 243
f 239 243 240
f 240 243 242
f 240 242 241
f 243 256 257
f 243 257 244
f 244 257 258
f 244 258 259
f 244 259 245
f 245 259 250
f 245 247 246
f 248 249 254
f 249 253 254
f 250 259 252
f 252 259 253
f 253 255 260
f 253 260 254
f 253 259 258
f 253 258 261
f 253 261 255
f 254 260 255
f 255 261 256
f 256 261 257
f 257 261 258

