# https://github.com/mikedh/trimesh
v -0.03207157 0.10108428 0.03181003
v -0.03229779 0.10108428 0.03157298
v -0.03229391 0.09998608 0.03156896
v -0.03207157 0.09998608 0.03179797
v -0.03196945 0.01313670 0.01598379
v -0.03207157 0.10217333 0.03178190
v -0.03274247 0.10108428 0.03102253
v -0.03273989 0.09998608 0.03101852
v -0.03228616 0.10217333 0.03155690
v -0.03273213 0.10217333 0.03101048
v -0.03271533 0.09887873 0.03098637
v -0.03226677 0.09887873 0.03153681
v -0.03207157 0.09887873 0.03174172
v -0.03207157 0.01007089 0.02515248
v -0.03207157 0.01007089 0.02316366
v -0.03207157 0.01213917 0.01708066
v -0.03207157 0.01214832 0.01705655
v -0.03469054 0.01220323 -0.00923613
v -0.03460134 0.01302688 -0.00923613
v -0.03207157 0.07511183 0.02004180
v -0.03207157 0.07577990 0.02010207
v -0.03207157 0.10217333 0.02286634
v -0.03207157 0.10266752 0.02303107
v -0.03207157 0.10314341 0.02344089
v -0.03207157 0.10322577 0.02364178
v -0.03207157 0.10350032 0.02473865
v -0.03207157 0.10350032 0.02913415
v -0.03207157 0.10347287 0.03023102
v -0.03207157 0.10314341 0.03127566
v -0.03207157 0.10244788 0.03172164
v -0.03207157 0.09668233 0.03159306
v -0.03207157 0.08678022 0.03089396
v -0.03207157 0.08459297 0.03073727
v -0.03207157 0.08018186 0.03041584
v -0.03207157 0.07029805 0.02968058
v -0.03705096 0.10108428 0.02540962
v -0.03607629 0.09998608 0.02667122
v -0.03508092 0.09887873 0.02790470
v -0.03267138 0.10291462 0.03093012
v -0.03368612 0.10277734 0.02971674
v -0.03564841 0.10217333 0.02720961
v -0.03285235 0.08898577 0.03006629
v -0.03220860 0.08128921 0.03032745
v -0.03268689 0.01007089 0.02435293
v -0.04089409 0.01006174 0.00000488
v -0.03981341 0.01006174 0.00000488
v -0.03540409 0.01006174 -0.00380804
v -0.03536014 0.01006174 -0.00393259
v -0.03519726 0.01006174 -0.00500937
v -0.03517400 0.01006174 -0.00522633
v -0.03221118 0.01203850 0.01598379
v -0.03525156 0.01006174 -0.00610222
v -0.03530844 0.01006174 -0.00629106
v -0.03866939 0.01006174 -0.00923613
v -0.03463624 0.01410678 -0.00923613
v -0.03854142 0.10218248 -0.00923613
v -0.03546485 0.03843193 -0.00923613
v -0.03671358 0.07458104 -0.00923613
v -0.03671874 0.07470001 -0.00923613
v -0.03676658 0.07569754 -0.00923613
v -0.03884520 0.10313426 -0.00923613
v -0.03970741 0.10352778 -0.00923613
v -0.03970741 0.10354608 -0.00824372
v -0.03310959 0.10353693 0.02363776
v -0.03892664 0.10318001 -0.00923613
v -0.03310959 0.10352778 0.02803327
v -0.03640850 0.10342711 0.02473865
v -0.03310959 0.10339965 0.02913415
v -0.03533300 0.10319832 0.02693238
v -0.03420966 0.10353693 0.02693640
v -0.03530844 0.10350947 0.02583953
v -0.03498268 0.10300613 0.02777612
v -0.03668513 0.07248530 0.02383463
v -0.03844059 0.10108428 0.02359356
v -0.03843671 0.09998608 0.02358955
v -0.03843154 0.10217333 0.02358151
v -0.03841474 0.09887873 0.02355740
v -0.03835269 0.09668233 0.02347705
v -0.03774125 0.09007482 0.02377838
v -0.03599614 0.10294207 0.02656274
v -0.03700960 0.10283225 0.02535337
v -0.03507705 0.01093115 0.02130340
v -0.03505119 0.01007089 0.02127126
v -0.04060065 0.01007089 0.00384995
v -0.04071312 0.01007089 0.00299013
v -0.04074414 0.01007089 0.00274906
v -0.04082687 0.01007089 0.00188924
v -0.04084755 0.01007089 0.00165219
v -0.04088633 0.01007089 0.00079238
v -0.04089409 0.01007089 0.00055131
v -0.04135945 0.01576323 0.00004104
v -0.04089409 0.01006174 -0.00054556
v -0.03560187 0.01007089 0.02040341
v -0.03582680 0.01007089 0.01997752
v -0.03588885 0.01007089 0.01985698
v -0.03614609 0.01007089 0.01924225
v -0.03712077 0.01007089 0.01688781
v -0.03934676 0.01007089 0.01150391
v -0.03966475 0.01007089 0.01045124
v -0.04028653 0.01007089 0.00622448
v -0.04031756 0.01007089 0.00599547
v -0.03979144 0.01006174 -0.00923613
v -0.04300374 0.10352778 -0.00923613
v -0.04300374 0.10353693 -0.00824372
v -0.04410380 0.10353693 -0.00054556
v -0.03750728 0.10355523 0.02254089
v -0.03860476 0.10348202 0.02144001
v -0.03864354 0.10318917 0.02253286
v -0.03830356 0.10300613 0.02341276
v -0.03898739 0.10108428 0.02282214
v -0.03898481 0.09998608 0.02281410
v -0.03898093 0.10217333 0.02280607
v -0.03896412 0.09887873 0.02277794
v -0.03805796 0.07191790 0.02199045
v -0.03586299 0.01913104 0.02089358
v -0.03924334 0.10291462 0.02215920
v -0.03562643 0.01093115 0.02045162
v -0.04027102 0.01112333 0.00672269
v -0.04031109 0.01648621 0.00830170
v -0.04047526 0.02302966 0.00935035
v -0.04136333 0.01896631 0.00117407
v -0.04135945 0.01576323 -0.00003932
v -0.04356993 0.06388273 0.00012943
v -0.04465707 0.08722865 0.00003702
v -0.04084755 0.01006174 -0.00164645
v -0.03697340 0.04088457 0.02091367
v -0.03915415 0.09391852 0.02199045
v -0.03715567 0.04055511 0.02044358
v -0.03618875 0.01093115 0.01924225
v -0.04026326 0.02449393 0.01102177
v -0.04025551 0.01363089 0.00771108
v -0.04026068 0.02013773 0.00993696
v -0.04025939 0.01688888 0.00883206
v -0.04031756 0.01006174 -0.00599374
v -0.04024904 0.01039120 -0.00658838
v -0.04025551 0.01363089 -0.00770935
v -0.04025809 0.01687974 -0.00882631
v -0.04030333 0.01903038 -0.00923613
v -0.04308647 0.10349117 -0.00923613
v -0.04410380 0.10350032 -0.00164645
v -0.04410380 0.10353693 0.00000488
v -0.04490139 0.10312510 -0.00054556
v -0.04300245 0.10352778 0.00935035
v -0.04190367 0.10352778 0.01264498
v -0.03970483 0.10352778 0.01814539
v -0.04080490 0.10350032 0.01594362
v -0.04190367 0.10344541 0.01374184
v -0.03970483 0.10339965 0.01924225
v -0.03938941 0.10306104 0.02144001
v -0.03930151 0.10108428 0.02227170
v -0.03929893 0.09998608 0.02226366
v -0.03929246 0.10217333 0.02225161
v -0.03927824 0.09887873 0.02222348
v -0.03916837 0.09447677 0.02201857
v -0.04040804 0.10296953 0.01924225
v -0.04146933 0.10294207 0.01677129
v -0.04028007 0.10278649 0.01985698
v -0.04142796 0.04714432 0.01055169
v -0.04291713 0.07908366 0.01045124
v -0.04498799 0.09886958 0.00165219
v -0.04467905 0.09117302 0.00129862
v -0.04482641 0.09227122 0.00055131
v -0.04465707 0.08722865 0.00000488
v -0.04465707 0.08723780 -0.00003932
v -0.04137496 0.01643130 -0.00016387
v -0.04074414 0.01006174 -0.00274733
v -0.04512890 0.09886958 0.00055131
v -0.04513019 0.09887873 0.00000488
v -0.03951997 0.09668233 0.02144001
v -0.03946697 0.09558413 0.02144001
v -0.04045717 0.09668233 0.01918198
v -0.04278398 0.08898577 0.01264498
v -0.04246728 0.07826916 0.01212668
v -0.04355571 0.10048027 0.01209855
v -0.04136850 0.04745548 0.01103784
v -0.04027102 0.01112333 -0.00671695
v -0.04136333 0.01897547 -0.00116832
v -0.04355700 0.06636283 -0.00112413
v -0.04033824 0.01974421 -0.00923613
v -0.04377934 0.10310680 -0.00923613
v -0.04490139 0.10312510 0.00000488
v -0.04410380 0.10352778 0.00055131
v -0.04483029 0.10306104 -0.00164645
v -0.04515734 0.10218248 -0.00054556
v -0.04502936 0.10265837 0.00000488
v -0.04410380 0.10349117 0.00165219
v -0.04300245 0.10345456 0.01045124
v -0.04287059 0.10314341 0.01264498
v -0.04264567 0.10302444 0.01374184
v -0.04162187 0.10308850 0.01594362
v -0.04030721 0.10108428 0.01992127
v -0.04030463 0.09998608 0.01991323
v -0.04029817 0.10217333 0.01989716
v -0.03957039 0.09778968 0.02144001
v -0.04250606 0.10284140 0.01442086
v -0.04284732 0.10217333 0.01374184
v -0.04245564 0.07076479 0.01100972
v -0.04356217 0.09483369 0.01103784
v -0.04382846 0.09887873 0.01045124
v -0.04397454 0.09887873 0.00935035
v -0.04406890 0.09777138 0.00824947
v -0.04464802 0.09944613 0.00439235
v -0.04472041 0.09987626 0.00395843
v -0.04502677 0.09997693 0.00165219
v -0.04516897 0.09997693 0.00055131
v -0.04513019 0.09887873 -0.00054556
v -0.04467258 0.08788757 -0.00015583
v -0.04141762 0.01861855 -0.00062190
v -0.04028265 0.09887873 0.01986502
v -0.04168908 0.09447677 0.01594362
v -0.04281630 0.09887873 0.01374184
v -0.04283698 0.09007482 0.01264498
v -0.04355571 0.10059924 0.01209855
v -0.04365395 0.10101107 0.01164454
v -0.04365137 0.10005930 0.01163650
v -0.04365525 0.09887873 0.01143963
v -0.04286025 0.09998608 0.01374184
v -0.04466224 0.09044089 -0.00116431
v -0.04470490 0.09228037 -0.00148975
v -0.04360354 0.09051410 -0.00923613
v -0.04401461 0.10218248 -0.00923613
v -0.04469714 0.10284140 -0.00364331
v -0.04475661 0.10296037 -0.00274733
v -0.04490010 0.10311595 0.00055131
v -0.04515734 0.10218248 0.00000488
v -0.04464802 0.10256685 -0.00437857
v -0.04501385 0.10218248 -0.00164645
v -0.04517543 0.10108428 -0.00054556
v -0.04515734 0.10217333 0.00055131
v -0.04377288 0.10310680 0.00935035
v -0.04370178 0.10302444 0.01045124
v -0.04362681 0.10288716 0.01131909
v -0.04352598 0.10217333 0.01205034
v -0.04360483 0.09668233 0.01122266
v -0.04386854 0.09998608 0.01045124
v -0.04466095 0.10017827 0.00446467
v -0.04503194 0.10107513 0.00165219
v -0.04517543 0.10107513 0.00055131
v -0.04516897 0.09997693 0.00000488
v -0.04516768 0.09998608 -0.00054556
v -0.04502677 0.09998608 -0.00164645
v -0.04498670 0.09887873 -0.00164645
v -0.04366946 0.10217333 0.01149989
v -0.04387242 0.10108428 0.01045124
v -0.04393834 0.09778053 -0.00923613
v -0.04471136 0.09887873 -0.00374375
v -0.04471266 0.10219164 -0.00394465
v -0.04402883 0.10119410 -0.00923613
v -0.04466095 0.10108428 -0.00446295
v -0.04482900 0.10305189 0.00165219
v -0.04517543 0.10108428 0.00000488
v -0.04466095 0.10018742 -0.00445893
v -0.04517543 0.10107513 0.00000488
v -0.04501514 0.10217333 0.00165219
v -0.04464931 0.10255770 0.00438030
v -0.04469714 0.10283225 0.00364905
v -0.04475790 0.10295122 0.00274906
v -0.04385820 0.10217333 0.01045124
v -0.04401849 0.10108428 0.00935035
v -0.04400298 0.10217333 0.00935035
v -0.04472041 0.09988541 -0.00395268
v -0.04398617 0.09887873 -0.00923613
v -0.04402883 0.10108428 -0.00923613
v -0.04402366 0.09998608 -0.00923613
f 1 2 3
f 1 3 4
f 1 4 5
f 1 5 6
f 1 6 2
f 2 7 8
f 2 8 3
f 2 6 9
f 2 9 10
f 2 10 7
f 3 8 11
f 3 11 12
f 3 12 13
f 3 13 4
f 4 13 5
f 5 14 15
f 5 15 16
f 5 16 17
f 5 17 18
f 5 18 19
f 5 19 20
f 5 20 21
f 5 21 22
f 5 22 23
f 5 23 24
f 5 24 25
f 5 25 26
f 5 26 27
f 5 27 28
f 5 28 29
f 5 29 30
f 5 30 6
f 5 13 31
f 5 31 32
f 5 32 33
f 5 33 34
f 5 34 35
f 5 35 14
f 6 30 9
f 7 36 8
f 7 10 36
f 8 36 37
f 8 37 38
f 8 38 11
f 9 30 39
f 9 39 40
f 9 40 10
f 10 41 36
f 10 40 41
f 11 38 42
f 11 42 43
f 11 43 34
f 11 34 33
f 11 33 12
f 12 33 32
f 12 32 31
f 12 31 13
f 14 44 45
f 14 45 46
f 14 46 47
f 14 47 48
f 14 48 49
f 14 49 50
f 14 50 15
f 14 35 44
f 15 18 51
f 15 51 16
f 15 50 52
f 15 52 18
f 16 51 18
f 16 18 17
f 18 52 53
f 18 53 54
f 18 54 102
f 18 102 138
f 18 138 179
f 18 179 220
f 18 220 245
f 18 245 262
f 18 262 264
f 18 264 263
f 18 263 248
f 18 248 221
f 18 221 180
f 18 180 139
f 18 139 103
f 18 103 62
f 18 62 65
f 18 65 61
f 18 61 56
f 18 56 60
f 18 60 59
f 18 59 58
f 18 58 57
f 18 57 55
f 18 55 19
f 19 55 22
f 19 22 21
f 19 21 20
f 22 56 23
f 22 55 57
f 22 57 58
f 22 58 59
f 22 59 60
f 22 60 56
f 23 56 24
f 24 61 25
f 24 56 61
f 25 61 26
f 26 62 63
f 26 63 64
f 26 64 27
f 26 61 65
f 26 65 62
f 27 64 66
f 27 66 28
f 28 67 68
f 28 68 69
f 28 69 29
f 28 66 70
f 28 70 71
f 28 71 67
f 29 69 72
f 29 72 39
f 29 39 30
f 34 43 35
f 35 43 73
f 35 73 44
f 36 74 75
f 36 75 37
f 36 41 76
f 36 76 74
f 37 75 77
f 37 77 38
f 38 77 78
f 38 78 79
f 38 79 42
f 39 72 80
f 39 80 81
f 39 81 40
f 40 81 76
f 40 76 41
f 42 79 73
f 42 73 43
f 44 82 83
f 44 83 45
f 44 73 82
f 45 84 85
f 45 85 86
f 45 86 87
f 45 87 88
f 45 88 89
f 45 89 90
f 45 90 91
f 45 91 122
f 45 122 92
f 45 92 125
f 45 125 166
f 45 166 134
f 45 134 102
f 45 102 54
f 45 54 53
f 45 53 52
f 45 52 50
f 45 50 49
f 45 49 48
f 45 48 47
f 45 47 46
f 45 83 93
f 45 93 94
f 45 94 95
f 45 95 96
f 45 96 97
f 45 97 98
f 45 98 99
f 45 99 100
f 45 100 101
f 45 101 84
f 62 103 63
f 63 104 105
f 63 105 106
f 63 106 64
f 63 103 104
f 64 106 70
f 64 70 66
f 67 71 107
f 67 107 108
f 67 108 69
f 67 69 68
f 69 108 109
f 69 109 72
f 70 106 71
f 71 106 107
f 72 109 80
f 73 79 78
f 73 78 82
f 74 110 75
f 74 76 110
f 75 110 111
f 75 111 77
f 76 81 112
f 76 112 110
f 77 111 113
f 77 113 78
f 78 114 115
f 78 115 82
f 78 113 114
f 80 109 81
f 81 109 116
f 81 116 112
f 82 115 83
f 83 115 117
f 83 117 93
f 84 101 118
f 84 118 119
f 84 119 120
f 84 120 121
f 84 121 85
f 85 121 91
f 85 91 86
f 86 91 87
f 87 91 88
f 88 91 89
f 89 91 90
f 91 121 123
f 91 123 124
f 91 124 163
f 91 163 122
f 92 122 125
f 93 117 94
f 94 117 115
f 94 115 95
f 95 115 126
f 95 126 127
f 95 127 128
f 95 128 96
f 96 128 129
f 96 129 97
f 97 129 130
f 97 130 98
f 98 130 99
f 99 131 118
f 99 118 100
f 99 130 132
f 99 132 133
f 99 133 131
f 100 118 101
f 102 134 135
f 102 135 136
f 102 136 137
f 102 137 138
f 103 105 104
f 103 139 140
f 103 140 105
f 105 141 106
f 105 140 142
f 105 142 181
f 105 181 141
f 106 141 143
f 106 143 144
f 106 144 145
f 106 145 107
f 107 146 147
f 107 147 148
f 107 148 149
f 107 149 108
f 107 145 146
f 108 149 116
f 108 116 109
f 110 112 150
f 110 150 151
f 110 151 111
f 111 151 113
f 112 152 150
f 112 116 152
f 113 151 153
f 113 153 114
f 114 154 127
f 114 127 126
f 114 126 115
f 114 153 154
f 116 149 155
f 116 155 156
f 116 156 157
f 116 157 152
f 118 131 133
f 118 133 119
f 119 133 120
f 120 133 132
f 120 132 158
f 120 158 159
f 120 159 160
f 120 160 121
f 121 160 161
f 121 161 162
f 121 162 123
f 122 163 164
f 122 164 165
f 122 165 166
f 122 166 125
f 123 162 124
f 124 162 167
f 124 167 168
f 124 168 206
f 124 206 163
f 127 154 169
f 127 169 170
f 127 170 128
f 128 170 129
f 129 170 171
f 129 171 172
f 129 172 130
f 130 172 173
f 130 173 174
f 130 174 175
f 130 175 132
f 132 175 158
f 134 176 135
f 134 166 177
f 134 177 178
f 134 178 179
f 134 179 176
f 135 176 136
f 136 176 179
f 136 179 137
f 137 179 138
f 139 180 140
f 140 180 142
f 141 181 182
f 141 182 143
f 142 180 183
f 142 183 184
f 142 184 185
f 142 185 181
f 143 182 186
f 143 186 187
f 143 187 144
f 144 187 147
f 144 147 146
f 144 146 145
f 147 187 188
f 147 188 189
f 147 189 190
f 147 190 148
f 148 190 149
f 149 190 189
f 149 189 155
f 150 152 191
f 150 191 192
f 150 192 151
f 151 192 153
f 152 157 193
f 152 193 191
f 153 192 194
f 153 194 154
f 154 194 169
f 155 189 156
f 156 195 157
f 156 189 195
f 157 195 196
f 157 196 193
f 158 175 197
f 158 197 159
f 159 198 199
f 159 199 200
f 159 200 201
f 159 201 160
f 159 197 198
f 160 167 162
f 160 162 161
f 160 201 200
f 160 200 202
f 160 202 203
f 160 203 204
f 160 204 205
f 160 205 167
f 163 206 164
f 164 207 165
f 164 206 207
f 165 207 178
f 165 178 208
f 165 208 166
f 166 208 177
f 167 205 168
f 168 205 239
f 168 239 206
f 169 194 209
f 169 209 170
f 170 209 171
f 171 210 172
f 171 209 210
f 172 210 211
f 172 211 212
f 172 212 173
f 173 212 174
f 174 191 213
f 174 213 214
f 174 214 215
f 174 215 216
f 174 216 175
f 174 212 211
f 174 211 217
f 174 217 192
f 174 192 191
f 175 216 197
f 177 208 178
f 178 207 206
f 178 206 218
f 178 218 219
f 178 219 179
f 179 219 220
f 180 221 222
f 180 222 223
f 180 223 183
f 181 185 224
f 181 224 182
f 182 224 186
f 183 223 184
f 184 225 185
f 184 223 222
f 184 222 226
f 184 226 227
f 184 227 228
f 184 228 251
f 184 251 225
f 185 225 229
f 185 229 224
f 186 224 230
f 186 230 187
f 187 230 231
f 187 231 188
f 188 231 232
f 188 232 189
f 189 232 195
f 191 193 213
f 192 217 209
f 192 209 194
f 193 196 213
f 195 232 233
f 195 233 196
f 196 233 213
f 197 216 234
f 197 234 198
f 198 234 199
f 199 216 235
f 199 235 200
f 199 234 216
f 200 235 203
f 200 203 202
f 203 235 204
f 204 235 236
f 204 236 237
f 204 237 238
f 204 238 205
f 205 238 253
f 205 253 239
f 206 239 240
f 206 240 241
f 206 241 242
f 206 242 219
f 206 219 218
f 209 217 211
f 209 211 210
f 213 233 243
f 213 243 214
f 214 244 235
f 214 235 215
f 214 243 244
f 215 235 216
f 219 245 220
f 219 242 246
f 219 246 245
f 221 247 226
f 221 226 222
f 221 248 249
f 221 249 247
f 224 250 230
f 224 229 250
f 225 251 238
f 225 238 229
f 226 247 227
f 227 247 228
f 228 249 252
f 228 252 241
f 228 241 240
f 228 240 239
f 228 239 253
f 228 253 238
f 228 238 251
f 228 247 249
f 229 238 254
f 229 254 255
f 229 255 256
f 229 256 257
f 229 257 250
f 230 250 231
f 231 250 257
f 231 257 256
f 231 256 232
f 232 256 255
f 232 255 258
f 232 258 243
f 232 243 233
f 235 244 259
f 235 259 236
f 236 259 237
f 237 259 258
f 237 258 260
f 237 260 254
f 237 254 238
f 241 261 242
f 241 252 261
f 242 261 246
f 243 258 244
f 244 258 259
f 245 246 262
f 246 261 262
f 248 263 249
f 249 263 252
f 252 263 264
f 252 264 261
f 254 260 255
f 255 260 258
f 261 264 262

