# https://github.com/mikedh/trimesh
v 0.00240509 0.01014947 -0.04079634
v 0.00240509 0.00878596 -0.04073210
v 0.00240144 0.00743769 -0.04060055
v 0.00240509 0.01014947 -0.03958186
v 0.00977888 0.01014947 -0.03981742
v 0.00977888 0.00872269 -0.03975623
v 0.00978982 0.00743769 -0.03969811
v 0.00758352 0.00762389 -0.03999790
v 0.00240509 0.00843688 -0.04070457
v 0.00648219 0.00652374 -0.04008968
v 0.00240144 0.00652374 -0.04050266
v 0.00240144 0.00743769 -0.03944726
v 0.00240509 0.01012121 -0.03580383
v 0.03299792 0.01014947 -0.01385756
v 0.01033319 0.01014947 -0.03971952
v 0.01039519 0.00743769 -0.03960634
v 0.01035507 0.00688716 -0.03959104
v 0.00992475 0.00743769 -0.03967976
v 0.00985182 0.00652194 -0.03964610
v 0.00953454 0.00587675 -0.03962469
v 0.00240144 0.00642727 -0.04045984
v 0.00867755 0.00576279 -0.03967976
v 0.00757987 0.00565511 -0.03975318
v 0.00648219 0.00558781 -0.03982353
v 0.00240144 0.00684678 -0.03941973
v 0.00240509 0.00743814 -0.02749215
v 0.03396432 0.00979951 -0.00954418
v 0.03396432 0.00994174 -0.01044968
v 0.03396432 0.01003416 -0.01154791
v 0.03861397 0.01014947 -0.00954418
v 0.01058846 0.01014947 -0.03966752
v 0.01197789 0.00652374 -0.03895168
v 0.01026390 0.00615448 -0.03952986
v 0.01271818 0.00581169 -0.03856317
v 0.01197789 0.00564434 -0.03871001
v 0.00240144 0.00576144 -0.04009274
v 0.00538086 0.00556582 -0.03987860
v 0.01417325 0.00561518 -0.03767296
v 0.00240144 0.00652374 -0.03940749
v 0.00240144 0.00600373 -0.03944420
v 0.00240144 0.00575292 -0.03948091
v 0.00318186 0.00566946 -0.03943197
v 0.02587212 0.00743814 -0.00954418
v 0.03965694 0.01014947 -0.00954418
v 0.01314486 0.01014947 -0.03867330
v 0.01290052 0.00743769 -0.03863965
v 0.01284582 0.00652374 -0.03861518
v 0.01815189 0.00585611 -0.03633917
v 0.01507036 0.00573632 -0.03752612
v 0.01747358 0.00567799 -0.03647989
v 0.01967259 0.00562056 -0.03544591
v 0.00427954 0.00559588 -0.03990307
v 0.00318186 0.00566946 -0.03993366
v 0.00538086 0.00556582 -0.03929736
v 0.02847227 0.00563177 -0.02805503
v 0.00427954 0.00559588 -0.03935855
v 0.03318756 0.00570087 -0.02169814
v 0.03363611 0.00570536 -0.02154212
v 0.03955848 0.00743814 -0.00954418
v 0.03950378 0.00743814 -0.01026919
v 0.03957307 0.01014947 -0.01044968
v 0.01340013 0.01014947 -0.03856929
v 0.01588359 0.00743814 -0.03740682
v 0.01537304 0.00652733 -0.03757201
v 0.01825035 0.00652374 -0.03637894
v 0.02051864 0.00652374 -0.03537249
v 0.02040559 0.00576279 -0.03530213
v 0.02161633 0.00570042 -0.03431708
v 0.02598517 0.00571209 -0.03098874
v 0.02515006 0.00566991 -0.03134972
v 0.03283747 0.00567709 -0.02254246
v 0.02930009 0.00570715 -0.02803667
v 0.03036860 0.00569325 -0.02672124
v 0.03175802 0.00567036 -0.02470221
v 0.03363611 0.00569952 -0.02174402
v 0.03949284 0.00762389 -0.01044968
v 0.03948555 0.00743814 -0.01044968
v 0.03950378 0.01014947 -0.01078313
v 0.01847280 0.01014947 -0.03646460
v 0.01839257 0.00872269 -0.03643401
v 0.02055511 0.00743769 -0.03539696
v 0.02056605 0.00762389 -0.03540002
v 0.02106202 0.00652374 -0.03499621
v 0.02356006 0.00590592 -0.03302001
v 0.02477444 0.00578029 -0.03200438
v 0.02792525 0.00595661 -0.02969473
v 0.02907399 0.00585970 -0.02865462
v 0.02836287 0.00576638 -0.02906454
v 0.03138605 0.00573273 -0.02550982
v 0.03361423 0.00576862 -0.02254552
v 0.03363611 0.00576503 -0.02247516
v 0.03931779 0.00982149 -0.01154791
v 0.03925215 0.00743814 -0.01136131
v 0.03932509 0.01014947 -0.01154791
v 0.02035819 0.01014947 -0.03559886
v 0.02066087 0.01014947 -0.03545814
v 0.02109848 0.00743769 -0.03501763
v 0.02243320 0.00906637 -0.03409683
v 0.02178772 0.00652374 -0.03444557
v 0.02613833 0.00652419 -0.03110499
v 0.02795078 0.00652464 -0.02971308
v 0.02850145 0.00652464 -0.02925115
v 0.02912140 0.00652464 -0.02870051
v 0.03239985 0.00582156 -0.02430758
v 0.03341366 0.00597322 -0.02309310
v 0.03569654 0.00743814 -0.01997584
v 0.03600652 0.00743814 -0.01924471
v 0.03919380 0.00743814 -0.01156321
v 0.03920839 0.00762389 -0.01154791
v 0.03800495 0.01014947 -0.01476001
v 0.03922662 0.01014947 -0.01179570
v 0.02120424 0.01014947 -0.03506046
v 0.02246967 0.01014947 -0.03412130
v 0.02302034 0.01014947 -0.03370526
v 0.02352724 0.01014947 -0.03331675
v 0.02808571 0.01014947 -0.02982015
v 0.02798360 0.00743814 -0.02974367
v 0.02853791 0.00743769 -0.02928174
v 0.02922351 0.01014947 -0.02881675
v 0.02976688 0.00982149 -0.02813456
v 0.02973406 0.00872269 -0.02809174
v 0.02976323 0.00743769 -0.02795102
v 0.03148816 0.00652464 -0.02564443
v 0.02862179 0.00982149 -0.02936128
v 0.02905211 0.01014947 -0.02898501
v 0.03343189 0.00652464 -0.02311758
v 0.03485049 0.00743814 -0.02134022
v 0.03539751 0.00743814 -0.02052649
v 0.03547774 0.00872269 -0.02051425
v 0.03576583 0.01014947 -0.02010432
v 0.03602111 0.00762389 -0.01924471
v 0.03541574 0.00758710 -0.02051425
v 0.03547044 0.00858450 -0.02051425
v 0.03689633 0.00766113 -0.01713696
v 0.03672129 0.00805103 -0.01760807
v 0.03677234 0.01014947 -0.01773655
v 0.02863638 0.01014947 -0.02936740
v 0.02977417 0.01014947 -0.02814374
v 0.03341001 0.01014947 -0.02341737
v 0.03467544 0.01014947 -0.02176238
v 0.03488331 0.00872269 -0.02138304
v 0.03546315 0.01014947 -0.02065803
v 0.03543397 0.00872269 -0.02058461
v 0.03489060 0.01014947 -0.02146564
v 0.03490884 0.00982149 -0.02142281
f 1 2 3
f 1 3 12
f 1 12 4
f 1 4 14
f 1 14 30
f 1 30 44
f 1 44 61
f 1 61 78
f 1 78 94
f 1 94 111
f 1 111 110
f 1 110 136
f 1 136 130
f 1 130 142
f 1 142 144
f 1 144 140
f 1 140 139
f 1 139 138
f 1 138 119
f 1 119 125
f 1 125 137
f 1 137 116
f 1 116 115
f 1 115 114
f 1 114 113
f 1 113 112
f 1 112 96
f 1 96 95
f 1 95 79
f 1 79 62
f 1 62 45
f 1 45 31
f 1 31 15
f 1 15 5
f 1 5 6
f 1 6 7
f 1 7 8
f 1 8 2
f 2 9 3
f 2 8 10
f 2 10 9
f 3 11 21
f 3 21 36
f 3 36 41
f 3 41 40
f 3 40 39
f 3 39 25
f 3 25 12
f 3 9 10
f 3 10 11
f 4 12 13
f 4 13 14
f 5 15 16
f 5 16 17
f 5 17 18
f 5 18 6
f 6 18 7
f 7 18 19
f 7 19 8
f 8 19 10
f 10 19 20
f 10 20 11
f 11 20 22
f 11 22 23
f 11 23 24
f 11 24 21
f 12 25 26
f 12 26 13
f 13 26 27
f 13 27 28
f 13 28 29
f 13 29 30
f 13 30 14
f 15 31 16
f 16 31 32
f 16 32 17
f 17 33 19
f 17 19 18
f 17 32 33
f 19 33 20
f 20 33 34
f 20 34 35
f 20 35 22
f 21 24 37
f 21 37 36
f 22 35 23
f 23 35 24
f 24 35 38
f 24 38 37
f 25 39 26
f 26 39 40
f 26 40 41
f 26 41 42
f 26 42 43
f 26 43 27
f 27 30 28
f 27 43 59
f 27 59 44
f 27 44 30
f 28 30 29
f 31 45 46
f 31 46 32
f 32 46 47
f 32 47 34
f 32 34 33
f 34 47 48
f 34 48 49
f 34 49 35
f 35 49 50
f 35 50 51
f 35 51 38
f 36 37 52
f 36 52 53
f 36 53 41
f 37 54 56
f 37 56 52
f 37 38 51
f 37 51 55
f 37 55 54
f 41 53 42
f 42 53 52
f 42 52 56
f 42 56 43
f 43 56 57
f 43 57 58
f 43 58 59
f 44 59 60
f 44 60 61
f 45 62 46
f 46 62 63
f 46 63 64
f 46 64 47
f 47 64 48
f 48 50 49
f 48 64 65
f 48 65 66
f 48 66 67
f 48 67 50
f 50 67 51
f 51 67 68
f 51 68 69
f 51 69 70
f 51 70 55
f 54 55 71
f 54 71 57
f 54 57 56
f 55 70 72
f 55 72 73
f 55 73 74
f 55 74 71
f 57 71 75
f 57 75 58
f 58 75 59
f 59 75 60
f 60 76 61
f 60 75 77
f 60 77 76
f 61 76 78
f 62 79 80
f 62 80 63
f 63 80 64
f 64 80 65
f 65 80 66
f 66 81 82
f 66 82 83
f 66 83 67
f 66 80 79
f 66 79 81
f 67 83 84
f 67 84 85
f 67 85 68
f 68 85 69
f 69 85 86
f 69 86 87
f 69 87 88
f 69 88 72
f 69 72 70
f 71 74 75
f 72 88 87
f 72 87 73
f 73 89 74
f 73 87 89
f 74 89 90
f 74 90 91
f 74 91 75
f 75 91 77
f 76 77 92
f 76 92 78
f 77 93 92
f 77 91 93
f 78 92 94
f 79 95 82
f 79 82 81
f 82 96 97
f 82 97 83
f 82 95 96
f 83 97 98
f 83 98 99
f 83 99 84
f 84 86 85
f 84 99 86
f 86 100 101
f 86 101 102
f 86 102 103
f 86 103 87
f 86 99 100
f 87 104 89
f 87 103 105
f 87 105 104
f 89 104 90
f 90 105 106
f 90 106 107
f 90 107 108
f 90 108 91
f 90 104 105
f 91 108 93
f 92 93 109
f 92 109 108
f 92 108 110
f 92 110 111
f 92 111 94
f 93 108 109
f 96 112 97
f 97 112 113
f 97 113 98
f 98 113 114
f 98 114 115
f 98 115 116
f 98 116 117
f 98 117 99
f 99 117 100
f 100 117 101
f 101 117 118
f 101 118 102
f 102 118 103
f 103 119 120
f 103 120 121
f 103 121 122
f 103 122 123
f 103 123 105
f 103 118 124
f 103 124 125
f 103 125 119
f 105 126 127
f 105 127 128
f 105 128 106
f 105 123 126
f 106 129 130
f 106 130 131
f 106 131 107
f 106 128 132
f 106 132 133
f 106 133 129
f 107 131 108
f 108 131 134
f 108 134 135
f 108 135 110
f 110 135 136
f 116 137 124
f 116 124 117
f 117 124 118
f 119 138 120
f 120 138 139
f 120 139 127
f 120 127 126
f 120 126 123
f 120 123 121
f 121 123 122
f 124 137 125
f 127 140 141
f 127 141 142
f 127 142 143
f 127 143 132
f 127 132 128
f 127 139 140
f 129 133 143
f 129 143 142
f 129 142 130
f 130 136 131
f 131 136 135
f 131 135 134
f 132 143 133
f 140 144 145
f 140 145 141
f 141 145 142
f 142 145 144

