# https://github.com/mikedh/trimesh
v -0.01320380 0.00735900 -0.02402791
v -0.02011816 0.00572292 -0.03441136
v -0.01320380 0.00735900 -0.03848531
v -0.01320380 0.00980916 -0.03254272
v -0.02741470 0.00735900 0.00000344
v -0.03995867 0.00556626 0.00000344
v -0.02098280 0.00568023 -0.03441136
v -0.02144086 0.00570795 -0.03441136
v -0.01544534 0.00735900 -0.03758125
v -0.01320380 0.01006174 -0.03864040
v -0.01320380 0.00990905 -0.03353379
v -0.01450752 0.01006174 -0.03253137
v -0.03530483 0.00978231 0.00000344
v -0.03410681 0.00942148 0.00000344
v -0.04053600 0.00556626 0.00000344
v -0.03995867 0.00556626 -0.00055261
v -0.03888533 0.00556846 -0.00825036
v -0.02435731 0.00566835 -0.03134361
v -0.02534933 0.00568375 -0.03131335
v -0.02299395 0.00569299 -0.03323873
v -0.03884468 0.00557154 -0.00934734
v -0.03942200 0.00557154 -0.00934734
v -0.02067651 0.00735900 -0.03533056
v -0.01842142 0.00735900 -0.03634810
v -0.01826421 0.00735900 -0.03641618
v -0.02178509 0.00573479 -0.03425249
v -0.01561610 0.00869013 -0.03757747
v -0.01615548 0.01006174 -0.03742238
v -0.01320380 0.01006174 -0.03737320
v -0.03539698 0.01006174 -0.00381328
v -0.03980960 0.01006174 0.00000344
v -0.04068778 0.00604811 0.00000344
v -0.04053600 0.00556626 -0.00055261
v -0.03946266 0.00556846 -0.00825036
v -0.03090305 0.00566923 -0.02580199
v -0.03610441 0.00562654 -0.01814585
v -0.02951530 0.00569431 -0.02782572
v -0.02735507 0.00570135 -0.02991376
v -0.04047637 0.00560102 -0.00165337
v -0.04040590 0.00567759 -0.00275035
v -0.04033272 0.00579552 -0.00385111
v -0.04028393 0.00590245 -0.00461521
v -0.03931901 0.00567627 -0.01044810
v -0.03832698 0.00561686 -0.01264584
v -0.02184201 0.00652379 -0.03441136
v -0.02109663 0.00735900 -0.03502416
v -0.02133244 0.01006174 -0.03500146
v -0.02077951 0.01006174 -0.03539865
v -0.01858133 0.01006174 -0.03641618
v -0.01843768 0.00762390 -0.03635566
v -0.02614892 0.00575592 -0.03092752
v -0.02493735 0.00586417 -0.03194506
v -0.04089378 0.01006174 0.00000344
v -0.04083415 0.00652379 0.00000344
v -0.04083415 0.00652379 -0.00055261
v -0.03385745 0.00571367 -0.02225384
v -0.03503920 0.00566835 -0.02033980
v -0.03713167 0.00570003 -0.01594433
v -0.03595805 0.00577792 -0.01894399
v -0.03053443 0.00572908 -0.02661905
v -0.02922257 0.00632269 -0.02855956
v -0.02849075 0.00571455 -0.02887731
v -0.02807605 0.00652379 -0.02958845
v -0.02752312 0.00652379 -0.03004616
v -0.04030832 0.00652379 -0.00481947
v -0.03970389 0.00652379 -0.00934734
v -0.04072573 0.00652379 -0.00165337
v -0.03951145 0.00652379 -0.01044810
v -0.03922143 0.00583204 -0.01115924
v -0.03818604 0.00574844 -0.01351207
v -0.02204258 0.00982148 -0.03444919
v -0.02681298 0.00652379 -0.03059464
v -0.02512708 0.00982148 -0.03208502
v -0.02441694 0.01006174 -0.03264107
v -0.04089378 0.01006174 -0.00055640
v -0.04087752 0.00872181 0.00000344
v -0.04085312 0.00735900 0.00000344
v -0.04085312 0.00735900 -0.00055261
v -0.04084228 0.00982148 -0.00165337
v -0.04081247 0.00872181 -0.00165337
v -0.04077452 0.00762390 -0.00165337
v -0.04076368 0.00735900 -0.00165337
v -0.03487115 0.00578320 -0.02103582
v -0.03699615 0.00588001 -0.01659495
v -0.03602581 0.00652379 -0.01910287
v -0.03154814 0.00581444 -0.02540859
v -0.02926052 0.00705536 -0.02858982
v -0.03256185 0.00596274 -0.02419813
v -0.03063743 0.00652379 -0.02675522
v -0.02817092 0.00909805 -0.02969815
v -0.04032458 0.00735900 -0.00500483
v -0.04031374 0.00982148 -0.00595049
v -0.04031645 0.01006174 -0.00599967
v -0.03965781 0.00982148 -0.01044810
v -0.03961173 0.00872181 -0.01044810
v -0.03955211 0.00735900 -0.01044810
v -0.04073386 0.00982148 -0.00275413
v -0.04063358 0.00762390 -0.00275413
v -0.03927022 0.00652379 -0.01127272
v -0.02820073 0.00982148 -0.02971706
v -0.02820615 0.01006174 -0.02972463
v -0.04087752 0.00872181 -0.00055640
v -0.04084770 0.01006174 -0.00165337
v -0.04074470 0.01006174 -0.00275413
v -0.03494705 0.00652379 -0.02113795
v -0.03604478 0.00735900 -0.01915961
v -0.03586318 0.00913765 -0.01980266
v -0.02934183 0.01006174 -0.02868439
v -0.02875095 0.00982148 -0.02922910
v -0.03125270 0.00872181 -0.02611973
v -0.03183274 0.01006174 -0.02546155
v -0.03470040 0.00652379 -0.02145948
v -0.03966323 0.01006174 -0.01044810
v -0.03934882 0.01006174 -0.01150725
v -0.03929732 0.00762390 -0.01134081
v -0.02875908 0.01006174 -0.02923288
v -0.03559756 0.01006174 -0.02040411
v -0.03500939 0.00872181 -0.02122117
v -0.03613151 0.00982148 -0.01924283
v -0.03587944 0.00982148 -0.01984049
v -0.03504733 0.01006174 -0.02126656
v -0.03841914 0.01006174 -0.01375038
v -0.03588486 0.01006174 -0.01984805
v -0.03516659 0.01006174 -0.02108121
v -0.03613693 0.01006174 -0.01924283
f 1 2 3
f 1 3 10
f 1 10 29
f 1 29 11
f 1 11 4
f 1 4 5
f 1 5 6
f 1 6 2
f 2 7 3
f 2 6 7
f 3 7 8
f 3 8 9
f 3 9 10
f 4 11 12
f 4 12 13
f 4 13 14
f 4 14 5
f 5 14 13
f 5 13 31
f 5 31 53
f 5 53 76
f 5 76 77
f 5 77 54
f 5 54 32
f 5 32 15
f 5 15 6
f 6 15 33
f 6 33 16
f 6 16 17
f 6 17 7
f 7 18 19
f 7 19 20
f 7 20 8
f 7 17 21
f 7 21 22
f 7 22 18
f 8 23 24
f 8 24 25
f 8 25 9
f 8 20 26
f 8 26 23
f 9 27 10
f 9 25 27
f 10 27 28
f 10 28 49
f 10 49 48
f 10 48 47
f 10 47 74
f 10 74 101
f 10 101 116
f 10 116 108
f 10 108 111
f 10 111 121
f 10 121 124
f 10 124 117
f 10 117 123
f 10 123 125
f 10 125 122
f 10 122 114
f 10 114 113
f 10 113 93
f 10 93 104
f 10 104 103
f 10 103 75
f 10 75 53
f 10 53 31
f 10 31 30
f 10 30 12
f 10 12 29
f 11 29 12
f 12 30 13
f 13 30 31
f 15 32 33
f 16 33 34
f 16 34 17
f 17 34 22
f 17 22 21
f 18 35 19
f 18 22 36
f 18 36 35
f 19 35 37
f 19 37 38
f 19 38 20
f 20 38 26
f 22 34 33
f 22 33 39
f 22 39 40
f 22 40 41
f 22 41 42
f 22 42 43
f 22 43 44
f 22 44 36
f 23 26 45
f 23 45 46
f 23 46 47
f 23 47 48
f 23 48 49
f 23 49 50
f 23 50 24
f 24 50 25
f 25 50 49
f 25 49 28
f 25 28 27
f 26 38 51
f 26 51 52
f 26 52 45
f 32 54 55
f 32 55 33
f 33 55 39
f 35 56 37
f 35 36 57
f 35 57 56
f 36 44 58
f 36 58 59
f 36 59 57
f 37 56 60
f 37 60 61
f 37 61 62
f 37 62 38
f 38 62 61
f 38 61 63
f 38 63 64
f 38 64 51
f 39 55 40
f 40 55 41
f 41 55 42
f 42 65 66
f 42 66 43
f 42 55 67
f 42 67 65
f 43 68 69
f 43 69 70
f 43 70 58
f 43 58 44
f 43 66 68
f 45 71 47
f 45 47 46
f 45 52 72
f 45 72 73
f 45 73 71
f 47 71 74
f 51 64 52
f 52 64 72
f 53 75 102
f 53 102 76
f 54 77 78
f 54 78 55
f 55 78 79
f 55 79 80
f 55 80 81
f 55 81 82
f 55 82 67
f 56 57 83
f 56 83 60
f 57 59 83
f 58 70 59
f 59 70 69
f 59 69 84
f 59 84 85
f 59 85 83
f 60 83 86
f 60 86 61
f 61 87 63
f 61 86 88
f 61 88 89
f 61 89 87
f 63 87 90
f 63 90 64
f 64 90 72
f 65 91 66
f 65 67 91
f 66 91 92
f 66 92 93
f 66 93 94
f 66 94 95
f 66 95 96
f 66 96 68
f 67 82 97
f 67 97 98
f 67 98 91
f 68 96 99
f 68 99 69
f 69 99 84
f 71 73 74
f 72 90 73
f 73 90 100
f 73 100 101
f 73 101 74
f 75 103 102
f 76 102 78
f 76 78 77
f 78 102 103
f 78 103 79
f 79 103 104
f 79 104 80
f 80 104 81
f 81 104 82
f 82 104 97
f 83 85 105
f 83 105 88
f 83 88 86
f 84 99 85
f 85 99 106
f 85 106 107
f 85 107 105
f 87 108 109
f 87 109 90
f 87 89 110
f 87 110 111
f 87 111 108
f 88 112 89
f 88 105 112
f 89 112 110
f 90 109 100
f 91 98 92
f 92 98 97
f 92 97 104
f 92 104 93
f 93 113 94
f 94 113 114
f 94 114 115
f 94 115 95
f 95 115 99
f 95 99 96
f 99 115 106
f 100 109 101
f 101 109 116
f 105 107 117
f 105 117 118
f 105 118 110
f 105 110 112
f 106 115 114
f 106 114 119
f 106 119 107
f 107 119 120
f 107 120 117
f 108 116 109
f 110 118 111
f 111 118 121
f 114 122 119
f 117 120 123
f 117 124 118
f 118 124 121
f 119 125 123
f 119 123 120
f 119 122 125

