# https://github.com/mikedh/trimesh
v 0.00240206 0.01475299 0.03568904
v 0.03035105 0.01474430 0.01897925
v 0.01585247 0.01474430 0.03209845
v 0.00240206 0.01475299 0.04100545
v 0.00240206 0.01642212 0.03571431
v 0.03036977 0.01528329 0.01897925
v 0.03640430 0.01474430 0.01897925
v 0.01585247 0.01474430 0.03774587
v 0.00277266 0.01475299 0.04095745
v 0.00240206 0.01564841 0.04104841
v 0.00240206 0.01752617 0.03573958
v 0.03049705 0.01845636 0.01897925
v 0.03585775 0.01474430 0.02038921
v 0.03655778 0.01670030 0.01897925
v 0.01636532 0.01474430 0.03756647
v 0.01146134 0.01475299 0.03959802
v 0.01092601 0.01475299 0.03977237
v 0.01030085 0.01475299 0.03991640
v 0.00977676 0.01475299 0.04003516
v 0.00868740 0.02961862 0.04086648
v 0.00318071 0.09228029 0.04448235
v 0.00240206 0.08930717 0.04444697
v 0.00240206 0.01972559 0.03580275
v 0.03279556 0.07545866 0.01897925
v 0.03275064 0.07449370 0.01897925
v 0.03561068 0.01479646 0.02089204
v 0.03560693 0.01474430 0.02088951
v 0.03659896 0.01724799 0.01897925
v 0.03653158 0.01742185 0.01916370
v 0.03671501 0.03559096 0.02090468
v 0.01929274 0.01474430 0.03635107
v 0.01646266 0.01540500 0.03755889
v 0.01587867 0.02961862 0.03850644
v 0.01299243 0.09777449 0.04307491
v 0.01146882 0.05928903 0.04179888
v 0.01143139 0.05870657 0.04178371
v 0.01087735 0.01532675 0.03981533
v 0.01038321 0.03096609 0.04069719
v 0.01145385 0.08161355 0.04289298
v 0.01095596 0.08125713 0.04294857
v 0.00977676 0.08348262 0.04320883
v 0.00428129 0.09667913 0.04453036
v 0.00318071 0.09338435 0.04452277
v 0.00240206 0.09041122 0.04449245
v 0.00757932 0.09887855 0.04420693
v 0.00537814 0.09887855 0.04449498
v 0.00240206 0.02082095 0.03583560
v 0.03281428 0.07580639 0.01897925
v 0.00240206 0.02192501 0.03587098
v 0.03528499 0.01522244 0.02134940
v 0.03088263 0.01474430 0.02705999
v 0.03463737 0.01474430 0.02215797
v 0.03780437 0.06755641 0.02199373
v 0.03759473 0.07468495 0.02280989
v 0.03664014 0.01802169 0.01897925
v 0.03683855 0.02192501 0.01897925
v 0.03674121 0.02741921 0.01986868
v 0.03891993 0.08935933 0.02201142
v 0.01984304 0.01474430 0.03609334
v 0.02023236 0.02129039 0.03628537
v 0.02087250 0.07469365 0.03867068
v 0.01585247 0.09886985 0.04194543
v 0.01316463 0.09893940 0.04305975
v 0.01307479 0.09997391 0.04313556
v 0.01197794 0.09447102 0.04329475
v 0.01197794 0.09337565 0.04324926
v 0.01266300 0.09227160 0.04293847
v 0.01087735 0.09118493 0.04341098
v 0.01087735 0.09008088 0.04336550
v 0.01087735 0.08568204 0.04316335
v 0.00931256 0.09918282 0.04399215
v 0.00428129 0.09778318 0.04456068
v 0.00318071 0.09447971 0.04455562
v 0.00537814 0.09998260 0.04452783
v 0.00240206 0.09150659 0.04453036
v 0.00647873 0.09998260 0.04439138
v 0.00240206 0.03159201 0.03619441
v 0.00240206 0.06625240 0.03735421
v 0.00240206 0.07909248 0.03794044
v 0.03477588 0.10218202 0.01897925
v 0.02992804 0.01533545 0.02834613
v 0.02990932 0.01474430 0.02832339
v 0.03592887 0.09888724 0.02680225
v 0.03311002 0.09778318 0.03039285
v 0.03259341 0.09888724 0.03114837
v 0.03874025 0.09558377 0.02284021
v 0.03816375 0.09447102 0.02355277
v 0.03786801 0.09886985 0.02427039
v 0.03713803 0.09829609 0.02518004
v 0.03907716 0.06808670 0.01909548
v 0.03891619 0.07076425 0.01980551
v 0.04012534 0.08834221 0.01897925
v 0.03929803 0.09226291 0.02144794
v 0.03915203 0.09886985 0.02243592
v 0.02077517 0.01474430 0.03559050
v 0.02081261 0.02192501 0.03598721
v 0.02132921 0.03231356 0.03628537
v 0.02134418 0.05302982 0.03739212
v 0.02087625 0.05268208 0.03757405
v 0.02134044 0.07506746 0.03848875
v 0.02143777 0.09886985 0.03962835
v 0.02149018 0.09997391 0.03965108
v 0.01363257 0.09934799 0.04288540
v 0.01365503 0.09997391 0.04289551
v 0.01585247 0.10074762 0.04199091
v 0.01366252 0.10107797 0.04289804
v 0.01307479 0.10107797 0.04314061
v 0.01197794 0.09997391 0.04346404
v 0.01197794 0.09887855 0.04343625
v 0.01197794 0.09557507 0.04333265
v 0.00940615 0.09997391 0.04400478
v 0.00868740 0.09997391 0.04410080
v 0.00428129 0.09887855 0.04458847
v 0.00240206 0.09261064 0.04456321
v 0.00318071 0.09558377 0.04458342
v 0.00647873 0.10107797 0.04439643
v 0.00537814 0.10107797 0.04453036
v 0.00240206 0.10218202 0.04479062
v 0.00240206 0.08018784 0.03800108
v 0.00240206 0.10218202 0.03938577
v 0.00240206 0.10269493 0.03943883
v 0.00240206 0.10294703 0.03948432
v 0.03513151 0.10310352 0.01897925
v 0.03011896 0.03670370 0.02969798
v 0.02936277 0.01474430 0.02897026
v 0.03789421 0.09997391 0.02430071
v 0.03358544 0.09997391 0.02991528
v 0.03214419 0.09888724 0.03169416
v 0.03122703 0.07063385 0.03080220
v 0.03261213 0.09997391 0.03117616
v 0.03217040 0.09997391 0.03172701
v 0.03880388 0.09886985 0.02298677
v 0.03882635 0.09997391 0.02302467
v 0.04021519 0.09327134 0.01935574
v 0.04015903 0.09886985 0.02015927
v 0.04054836 0.09696601 0.01897925
v 0.04018149 0.09997391 0.02020728
v 0.03917449 0.09997391 0.02247130
v 0.02107091 0.01474430 0.03541868
v 0.02138536 0.01474430 0.03522917
v 0.02144900 0.01643081 0.03527970
v 0.02242606 0.08507351 0.03848622
v 0.02198807 0.09886985 0.03938324
v 0.02203673 0.09997391 0.03939840
v 0.02149767 0.10107797 0.03965361
v 0.01851410 0.09997391 0.04088417
v 0.01609205 0.10106927 0.04189237
v 0.01584872 0.10217333 0.04197575
v 0.01364380 0.10217333 0.04288793
v 0.01307479 0.10217333 0.04312292
v 0.01197794 0.10217333 0.04346910
v 0.00942487 0.10107797 0.04400731
v 0.00868740 0.10109535 0.04410585
v 0.00647873 0.10218202 0.04437875
v 0.00537814 0.10218202 0.04452025
v 0.00757932 0.10299050 0.04410333
v 0.00647873 0.10307743 0.04417660
v 0.00537814 0.10313829 0.04424988
v 0.00240206 0.10246021 0.04469207
v 0.00240206 0.10326000 0.03992651
v 0.03535237 0.10322522 0.01897925
v 0.02901837 0.02024719 0.02969292
v 0.02881247 0.01474430 0.02951857
v 0.03883383 0.10107797 0.02302972
v 0.03789421 0.10107797 0.02430576
v 0.03722413 0.10058244 0.02518004
v 0.03261962 0.10108666 0.03118121
v 0.03159390 0.09888724 0.03221215
v 0.03126447 0.08898551 0.03192410
v 0.03217789 0.10108666 0.03173459
v 0.03162385 0.09997391 0.03223490
v 0.04058579 0.09807876 0.01897925
v 0.04061948 0.09920020 0.01897925
v 0.04063820 0.09997391 0.01897925
v 0.04064569 0.10107797 0.01897925
v 0.04018524 0.10107797 0.02021486
v 0.03917824 0.10107797 0.02247888
v 0.02789157 0.01474430 0.03024377
v 0.02596367 0.01492686 0.03173206
v 0.02324588 0.09227160 0.03827397
v 0.02351542 0.09952186 0.03847612
v 0.02290148 0.09778318 0.03881471
v 0.02294266 0.09886985 0.03883492
v 0.02307743 0.09993044 0.03877681
v 0.02296886 0.10107797 0.03885767
v 0.02204048 0.10107797 0.03940093
v 0.02147521 0.10218202 0.03964350
v 0.02107091 0.10218202 0.03981280
v 0.01362882 0.10272970 0.04288288
v 0.01307479 0.10291226 0.04299911
v 0.00929759 0.10274709 0.04398962
v 0.00936123 0.10217333 0.04399973
v 0.00867991 0.10285141 0.04403257
v 0.01197794 0.10311221 0.04318104
v 0.00757932 0.10343386 0.04343119
v 0.00647873 0.10351210 0.04343119
v 0.00537814 0.10354688 0.04343119
v 0.00240206 0.10314698 0.04440907
v 0.00240206 0.10338170 0.04013118
v 0.03616097 0.10351210 0.01897925
v 0.02826218 0.01474430 0.02995571
v 0.02852422 0.01474430 0.02974851
v 0.03051577 0.08349132 0.03218941
v 0.03883009 0.10218202 0.02300951
v 0.03788298 0.10218202 0.02429313
v 0.03746745 0.10218202 0.02484145
v 0.03722413 0.10108666 0.02518004
v 0.03260839 0.10218202 0.03117111
v 0.03092381 0.09888724 0.03276047
v 0.03095750 0.09997391 0.03278321
v 0.03162759 0.10108666 0.03223742
v 0.03216291 0.10218202 0.03171690
v 0.03161261 0.10218202 0.03222732
v 0.03096125 0.10108666 0.03278827
v 0.04063071 0.10218202 0.01897925
v 0.04017401 0.10218202 0.02019464
v 0.03917075 0.10218202 0.02246372
v 0.02649525 0.09668782 0.03603522
v 0.02596367 0.09778318 0.03650520
v 0.02530855 0.09886985 0.03706869
v 0.02729261 0.09888724 0.03554754
v 0.02914190 0.09997391 0.03417801
v 0.02596367 0.09997391 0.03661638
v 0.02353039 0.10026079 0.03848875
v 0.02352665 0.10107797 0.03848875
v 0.02351916 0.10172127 0.03848622
v 0.02307743 0.10212117 0.03876923
v 0.02202176 0.10218202 0.03938830
v 0.02141906 0.10281663 0.03962076
v 0.01598349 0.10286010 0.04184688
v 0.01585247 0.10289487 0.04187468
v 0.01527597 0.10304266 0.04199344
v 0.01307479 0.10334693 0.04233203
v 0.01197794 0.10351210 0.04233203
v 0.02596367 0.10354688 0.03493858
v 0.03066551 0.10355557 0.03133788
v 0.03396354 0.10354688 0.02254458
v 0.00537814 0.10353818 0.04013118
v 0.00428129 0.10352949 0.04013118
v 0.00240206 0.10350341 0.04123287
v 0.00428129 0.10352949 0.04343119
v 0.00240206 0.10325130 0.04414123
v 0.01417538 0.10352949 0.04123287
v 0.02186828 0.10353818 0.03793033
v 0.00240206 0.10349472 0.04090944
v 0.00318071 0.10346863 0.04013118
v 0.03836215 0.10352949 0.02144794
v 0.03946274 0.10350341 0.01897925
v 0.03907716 0.10299050 0.02230200
v 0.03785678 0.10282533 0.02425523
v 0.03453255 0.10278186 0.02861903
v 0.03351806 0.10291226 0.02982937
v 0.03250731 0.10299050 0.03103719
v 0.03147785 0.10300789 0.03210856
v 0.03094627 0.10218202 0.03277563
v 0.03029864 0.10294703 0.03312433
v 0.02596367 0.10108666 0.03662144
v 0.02913067 0.10218202 0.03417043
v 0.02596367 0.10218202 0.03660123
v 0.04011785 0.10292965 0.02005567
v 0.04033872 0.10309482 0.01897925
v 0.02351167 0.10244282 0.03847612
v 0.02107091 0.10292096 0.03969151
v 0.02277795 0.10300789 0.03871616
v 0.01833441 0.10294703 0.04080836
v 0.02077517 0.10299050 0.03975469
v 0.02107091 0.10334693 0.03903960
v 0.02077517 0.10342517 0.03903202
v 0.01527597 0.10346863 0.04123287
v 0.01747715 0.10351210 0.04012865
v 0.02517005 0.10352949 0.03573200
v 0.03176236 0.10353818 0.03023871
v 0.03506413 0.10354688 0.02584459
v 0.02956492 0.10352080 0.03243451
v 0.03066551 0.10320783 0.03245978
v 0.03181102 0.10322522 0.03137831
v 0.00240206 0.10349472 0.04343119
v 0.02107091 0.10345994 0.03873638
v 0.02406946 0.10346863 0.03683369
v 0.03572673 0.10352949 0.02518004
v 0.03616097 0.10351210 0.02474290
v 0.03726156 0.10342517 0.02364374
v 0.03844076 0.10322522 0.02261785
v 0.03926434 0.10313829 0.02144794
v 0.03946274 0.10350341 0.01924709
v 0.03972479 0.10341648 0.01897925
v 0.03723161 0.10308613 0.02467215
v 0.03698454 0.10299920 0.02518004
v 0.03684229 0.10294703 0.02546557
v 0.03287043 0.10317306 0.03021597
v 0.02908575 0.10284272 0.03414011
v 0.02593372 0.10297312 0.03644962
v 0.02472082 0.10287749 0.03746287
v 0.04026385 0.10308613 0.01924709
v 0.02107091 0.10303397 0.03955759
v 0.02406946 0.10305136 0.03771302
v 0.02512138 0.10313829 0.03682106
v 0.02307743 0.10323392 0.03803645
v 0.02181587 0.10312960 0.03906234
v 0.03286294 0.10349472 0.02913955
v 0.02846433 0.10344256 0.03353368
v 0.02628935 0.10322522 0.03577243
v 0.03396354 0.10339909 0.02804039
v 0.03618343 0.10319045 0.02583701
v 0.03677491 0.10313829 0.02518004
f 1 2 3
f 1 3 8
f 1 8 4
f 1 4 10
f 1 10 22
f 1 22 44
f 1 44 75
f 1 75 114
f 1 114 118
f 1 118 159
f 1 159 198
f 1 198 242
f 1 242 277
f 1 277 240
f 1 240 245
f 1 245 199
f 1 199 160
f 1 160 122
f 1 122 121
f 1 121 120
f 1 120 119
f 1 119 79
f 1 79 78
f 1 78 77
f 1 77 49
f 1 49 47
f 1 47 23
f 1 23 11
f 1 11 5
f 1 5 2
f 2 5 6
f 2 6 12
f 2 12 25
f 2 25 24
f 2 24 48
f 2 48 80
f 2 80 123
f 2 123 161
f 2 161 200
f 2 200 248
f 2 248 286
f 2 286 261
f 2 261 215
f 2 215 175
f 2 175 174
f 2 174 173
f 2 173 172
f 2 172 136
f 2 136 92
f 2 92 56
f 2 56 55
f 2 55 28
f 2 28 14
f 2 14 7
f 2 7 13
f 2 13 27
f 2 27 52
f 2 52 51
f 2 51 82
f 2 82 125
f 2 125 163
f 2 163 202
f 2 202 201
f 2 201 178
f 2 178 140
f 2 140 139
f 2 139 95
f 2 95 59
f 2 59 31
f 2 31 15
f 2 15 8
f 2 8 3
f 4 8 9
f 4 9 10
f 5 11 6
f 6 11 12
f 7 14 13
f 8 15 16
f 8 16 17
f 8 17 18
f 8 18 19
f 8 19 9
f 9 19 10
f 10 19 20
f 10 20 21
f 10 21 22
f 11 23 24
f 11 24 25
f 11 25 12
f 13 26 27
f 13 14 28
f 13 28 29
f 13 29 30
f 13 30 26
f 15 31 32
f 15 32 33
f 15 33 16
f 16 33 34
f 16 34 35
f 16 35 36
f 16 36 17
f 17 36 37
f 17 37 18
f 18 37 19
f 19 37 38
f 19 38 39
f 19 39 40
f 19 40 41
f 19 41 20
f 20 41 21
f 21 42 43
f 21 43 44
f 21 44 22
f 21 41 45
f 21 45 46
f 21 46 42
f 23 47 24
f 24 47 49
f 24 49 48
f 26 50 51
f 26 51 52
f 26 52 27
f 26 30 53
f 26 53 54
f 26 54 50
f 28 55 29
f 29 55 56
f 29 56 57
f 29 57 30
f 30 57 58
f 30 58 53
f 31 59 60
f 31 60 61
f 31 61 32
f 32 61 33
f 33 61 62
f 33 62 34
f 34 62 63
f 34 63 64
f 34 64 65
f 34 65 66
f 34 66 39
f 34 39 67
f 34 67 35
f 35 67 39
f 35 39 36
f 36 39 37
f 37 39 38
f 39 66 65
f 39 65 68
f 39 68 69
f 39 69 70
f 39 70 40
f 40 70 41
f 41 70 71
f 41 71 45
f 42 72 73
f 42 73 43
f 42 46 74
f 42 74 72
f 43 73 75
f 43 75 44
f 45 71 46
f 46 71 76
f 46 76 74
f 48 49 77
f 48 77 78
f 48 78 79
f 48 79 80
f 50 54 51
f 51 81 82
f 51 54 83
f 51 83 84
f 51 84 85
f 51 85 81
f 53 58 86
f 53 86 87
f 53 87 54
f 54 87 88
f 54 88 89
f 54 89 83
f 56 90 91
f 56 91 57
f 56 92 90
f 57 91 58
f 58 93 94
f 58 94 86
f 58 91 93
f 59 95 60
f 60 95 96
f 60 96 97
f 60 97 98
f 60 98 99
f 60 99 61
f 61 100 101
f 61 101 62
f 61 99 98
f 61 98 100
f 62 101 102
f 62 102 103
f 62 103 63
f 63 103 64
f 64 104 105
f 64 105 106
f 64 106 107
f 64 107 108
f 64 108 109
f 64 109 110
f 64 110 65
f 64 103 104
f 65 110 68
f 68 110 111
f 68 111 71
f 68 71 69
f 69 71 70
f 71 111 112
f 71 112 76
f 72 113 73
f 72 74 113
f 73 114 75
f 73 113 115
f 73 115 114
f 74 76 116
f 74 116 117
f 74 117 118
f 74 118 113
f 76 112 116
f 79 119 80
f 80 120 121
f 80 121 122
f 80 122 123
f 80 119 120
f 81 124 125
f 81 125 82
f 81 85 124
f 83 85 84
f 83 89 88
f 83 88 126
f 83 126 127
f 83 127 85
f 85 128 129
f 85 129 124
f 85 127 130
f 85 130 131
f 85 131 128
f 86 94 132
f 86 132 87
f 87 132 88
f 88 132 133
f 88 133 126
f 90 92 134
f 90 134 91
f 91 134 135
f 91 135 93
f 92 136 134
f 93 135 94
f 94 135 137
f 94 137 138
f 94 138 133
f 94 133 132
f 95 139 96
f 96 139 97
f 97 139 140
f 97 140 141
f 97 141 142
f 97 142 98
f 98 142 143
f 98 143 101
f 98 101 100
f 101 143 102
f 102 144 145
f 102 145 105
f 102 105 146
f 102 146 103
f 102 143 144
f 103 146 104
f 104 146 105
f 105 145 147
f 105 147 106
f 106 147 148
f 106 148 149
f 106 149 150
f 106 150 107
f 107 150 151
f 107 151 108
f 108 151 152
f 108 152 111
f 108 111 109
f 109 111 110
f 111 152 112
f 112 152 153
f 112 153 116
f 113 118 115
f 114 115 118
f 116 153 154
f 116 154 155
f 116 155 117
f 117 155 118
f 118 155 156
f 118 156 157
f 118 157 158
f 118 158 159
f 122 160 161
f 122 161 123
f 124 129 162
f 124 162 125
f 125 162 163
f 126 133 164
f 126 164 165
f 126 165 166
f 126 166 127
f 127 166 167
f 127 167 130
f 128 168 169
f 128 169 129
f 128 131 168
f 129 169 162
f 130 167 170
f 130 170 131
f 131 171 168
f 131 170 171
f 133 138 164
f 134 136 135
f 135 136 137
f 136 172 137
f 137 172 173
f 137 173 174
f 137 174 175
f 137 175 176
f 137 176 177
f 137 177 138
f 138 177 164
f 140 178 179
f 140 179 141
f 141 179 178
f 141 178 180
f 141 180 142
f 142 180 181
f 142 181 182
f 142 182 143
f 143 182 183
f 143 183 144
f 144 183 184
f 144 184 185
f 144 185 186
f 144 186 145
f 145 186 187
f 145 187 188
f 145 188 148
f 145 148 147
f 148 188 189
f 148 189 149
f 149 189 150
f 150 189 151
f 151 189 190
f 151 190 191
f 151 191 192
f 151 192 152
f 152 192 153
f 153 192 154
f 154 191 155
f 154 192 191
f 155 191 193
f 155 193 156
f 156 194 157
f 156 193 194
f 157 194 195
f 157 195 158
f 158 195 196
f 158 196 197
f 158 197 198
f 158 198 159
f 160 199 161
f 161 199 200
f 162 178 201
f 162 201 202
f 162 202 163
f 162 169 203
f 162 203 178
f 164 177 204
f 164 204 165
f 165 204 205
f 165 205 206
f 165 206 207
f 165 207 166
f 166 207 167
f 167 207 206
f 167 206 208
f 167 208 170
f 168 209 169
f 168 171 210
f 168 210 209
f 169 209 203
f 170 211 171
f 170 208 212
f 170 212 213
f 170 213 211
f 171 211 214
f 171 214 210
f 175 215 176
f 176 215 216
f 176 216 217
f 176 217 177
f 177 217 204
f 178 203 218
f 178 218 180
f 180 218 219
f 180 219 220
f 180 220 181
f 181 183 182
f 181 220 221
f 181 221 209
f 181 209 222
f 181 222 223
f 181 223 224
f 181 224 183
f 183 224 184
f 184 224 185
f 185 224 225
f 185 225 226
f 185 226 227
f 185 227 228
f 185 228 186
f 186 228 187
f 187 228 229
f 187 229 188
f 188 229 189
f 189 229 230
f 189 230 190
f 190 230 231
f 190 231 232
f 190 232 194
f 190 194 191
f 191 194 193
f 194 232 233
f 194 233 234
f 194 234 195
f 195 234 196
f 196 234 197
f 197 235 236
f 197 236 237
f 197 237 238
f 197 238 239
f 197 239 240
f 197 240 241
f 197 241 242
f 197 242 198
f 197 234 243
f 197 243 244
f 197 244 235
f 199 245 246
f 199 246 200
f 200 246 245
f 200 245 239
f 200 239 237
f 200 237 247
f 200 247 248
f 203 209 218
f 204 217 249
f 204 249 250
f 204 250 205
f 205 250 206
f 206 250 251
f 206 251 208
f 208 251 252
f 208 252 212
f 209 221 219
f 209 219 218
f 209 210 222
f 210 214 222
f 211 213 214
f 212 252 253
f 212 253 254
f 212 254 213
f 213 255 214
f 213 254 256
f 213 256 255
f 214 226 257
f 214 257 224
f 214 224 222
f 214 255 258
f 214 258 259
f 214 259 226
f 215 260 216
f 215 261 260
f 216 260 217
f 217 260 249
f 219 221 220
f 222 224 223
f 224 257 225
f 225 257 226
f 226 259 262
f 226 262 227
f 227 262 228
f 228 262 229
f 229 263 230
f 229 262 264
f 229 264 263
f 230 263 265
f 230 265 231
f 231 265 232
f 232 265 266
f 232 266 267
f 232 267 268
f 232 268 269
f 232 269 233
f 233 269 234
f 234 269 270
f 234 270 243
f 235 244 271
f 235 271 236
f 236 272 273
f 236 273 237
f 236 271 274
f 236 274 275
f 236 275 276
f 236 276 272
f 237 273 247
f 237 239 238
f 239 245 240
f 240 277 241
f 241 277 242
f 243 270 244
f 244 270 278
f 244 278 279
f 244 279 271
f 247 273 280
f 247 280 281
f 247 281 282
f 247 282 283
f 247 283 284
f 247 284 285
f 247 285 248
f 248 285 286
f 249 284 283
f 249 283 287
f 249 287 288
f 249 288 289
f 249 289 250
f 249 260 284
f 250 252 251
f 250 289 252
f 252 289 253
f 253 289 290
f 253 290 276
f 253 276 254
f 254 276 275
f 254 275 256
f 255 256 291
f 255 291 262
f 255 262 258
f 256 275 292
f 256 292 293
f 256 293 291
f 258 262 259
f 260 261 294
f 260 294 284
f 261 286 294
f 262 291 293
f 262 293 264
f 263 264 295
f 263 295 266
f 263 266 265
f 264 292 296
f 264 296 297
f 264 297 298
f 264 298 299
f 264 299 295
f 264 293 292
f 266 295 267
f 267 295 299
f 267 299 298
f 267 298 279
f 267 279 268
f 268 279 278
f 268 278 270
f 268 270 269
f 271 279 274
f 272 280 273
f 272 276 300
f 272 300 280
f 274 279 301
f 274 301 275
f 275 302 297
f 275 297 292
f 275 301 302
f 276 290 300
f 279 298 297
f 279 297 302
f 279 302 301
f 280 300 281
f 281 300 282
f 282 300 303
f 282 303 304
f 282 304 305
f 282 305 283
f 283 305 287
f 284 294 285
f 285 294 286
f 287 305 288
f 288 305 290
f 288 290 289
f 290 305 304
f 290 304 303
f 290 303 300
f 292 297 296

