# Blender 4.0.0
# www.blender.org
o decimated_mesh
v -0.135986 0.001376 0.026380
v -0.140139 0.004287 0.026379
v -0.135996 -0.001416 0.026380
v -0.137092 0.000196 0.000565
v -0.139593 0.003595 0.000384
v -0.144030 0.003408 0.000136
v -0.139268 -0.003472 0.000524
v -0.146196 0.002594 0.026377
v -0.138418 -0.003558 0.026380
v -0.141815 0.001530 -0.001385
v -0.143517 -0.003701 0.000312
v -0.141815 -0.001520 -0.001385
v -0.144816 -0.001454 0.000298
v -0.146590 -0.001520 0.026380
v -0.143530 -0.004172 0.026379
vn -0.4877 0.0499 -0.8716
vn 0.8055 0.5894 -0.0614
vn 0.5739 0.8188 -0.0097
vn 0.1193 -0.9928 -0.0072
vn 0.6623 -0.7489 -0.0243
vn -0.9932 0.0950 -0.0673
vn 0.4319 0.2720 -0.8599
vn 0.0158 0.6406 -0.7677
vn -0.0406 0.9988 -0.0274
vn 0.0728 -0.6472 -0.7589
vn 0.4469 -0.2555 -0.8573
vn -0.0003 0.0001 1.0000
vn -0.4743 -0.2793 -0.8349
vn -0.2691 0.9631 0.0077
vn -0.6549 -0.7555 -0.0140
vn 0.3817 -0.0000 -0.9243
vn 0.9991 -0.0036 -0.0427
vn -0.5662 -0.0000 -0.8243
vn 0.0549 -0.9983 -0.0180
vn -0.9847 0.1567 -0.0764
vn -0.8641 -0.4998 -0.0600
vn -0.0003 0.0002 1.0000
vn 0.0009 0.0007 1.0000
vn -0.0001 0.0001 1.0000
vn 0.8584 -0.5084 -0.0682
vn -0.0005 0.0008 1.0000
vn -0.0000 0.0003 1.0000
vn -0.0000 -0.0004 1.0000
vn -0.0001 -0.0001 1.0000
vn -0.5315 0.0579 -0.8451
vn -0.4891 -0.0000 -0.8722
s 0
f 6//1 12//1 13//1
f 1//2 4//2 5//2
f 1//3 5//3 2//3
f 15//4 7//4 9//4
f 3//5 9//5 7//5
f 8//6 13//6 14//6
f 4//7 10//7 5//7
f 5//8 10//8 6//8
f 2//9 5//9 6//9
f 7//10 11//10 12//10
f 7//11 12//11 4//11
f 1//12 2//12 9//12
f 12//13 11//13 13//13
f 2//14 6//14 8//14
f 14//15 11//15 15//15
f 10//16 4//16 12//16
f 4//17 1//17 3//17
f 6//18 10//18 12//18
f 15//19 11//19 7//19
f 8//20 6//20 13//20
f 11//21 14//21 13//21
f 2//22 8//22 15//22
f 14//23 15//23 8//23
f 15//24 9//24 2//24
f 3//12 1//12 9//12
f 7//25 4//25 3//25
f 2//12 3//12 1//12
f 8//26 14//26 2//26
f 14//27 3//27 2//27
f 14//28 15//28 3//28
f 15//29 9//29 3//29
f 10//30 13//30 6//30
f 13//31 10//31 12//31
