mtllib material.mtl
usemtl material_0
v -0.08502811 -0.00373610 0.00160225
v -0.09996216 -0.00106984 0.00006288
v -0.09996216 -0.00061768 0.00051505
v -0.08502811 -0.00215703 0.00318132
v -0.09996216 -0.00000002 0.00068056
v -0.08447114 -0.00385862 0.00167299
v -0.08502811 0.00000000 0.00375929
v -0.09996216 0.00061765 0.00051505
v -0.08502811 0.00215704 0.00318132
v -0.08447114 -0.00222777 0.00330385
v -0.08447114 0.00000000 0.00390077
v -0.08447114 0.00222778 0.00330385
v 0.07375062 0.00222778 0.00330385
v 0.07375067 0.00000000 0.00390077
v 0.07430866 0.00222778 0.00330385
v 0.07375067 -0.00222777 0.00330385
v 0.07375067 -0.00385862 0.00167299
v 0.07430871 0.00000000 0.00390077
v 0.07430871 -0.00222777 0.00330385
v 0.07430871 -0.00385862 0.00167299
v 0.07440457 -0.00379902 0.00163860
v 0.07440457 -0.00219336 0.00324425
v 0.07450043 -0.00385862 0.00167299
v 0.07440457 0.00000001 0.00383196
v 0.07440452 0.00219337 0.00324425
v 0.07450043 -0.00222777 0.00330385
v 0.07459360 -0.00385862 0.00167299
v 0.07450043 0.00000001 0.00390077
v 0.07450037 0.00222778 0.00330385
v 0.07459360 -0.00222777 0.00330385
v 0.07609802 -0.00385861 0.00167299
v 0.07609802 -0.00222777 0.00330385
v 0.07622671 -0.00385861 0.00167299
v 0.07622671 -0.00222777 0.00330385
v -0.08502811 -0.00215703 -0.00429088
v -0.09996216 -0.00061768 -0.00162460
v -0.09996216 -0.00106984 -0.00117244
v -0.08502811 -0.00373609 -0.00271182
v -0.09996215 -0.00123535 -0.00055478
v -0.08447114 -0.00222777 -0.00441341
v -0.08502807 -0.00431407 -0.00055478
v -0.09996216 -0.00106984 0.00006288
v -0.08502811 -0.00373610 0.00160225
v -0.08447114 -0.00385862 -0.00278256
v -0.08447109 -0.00445555 -0.00055478
v -0.08447114 -0.00385862 0.00167299
v 0.07375067 -0.00385862 0.00167299
v 0.07375067 -0.00445555 -0.00055478
v 0.07430871 -0.00385862 0.00167299
v 0.07375067 -0.00385862 -0.00278256
v 0.07375067 -0.00222777 -0.00441341
v 0.07430871 -0.00445555 -0.00055478
v 0.07430871 -0.00385862 -0.00278256
v 0.07430871 -0.00222777 -0.00441341
v 0.07440457 -0.00219336 -0.00435381
v 0.07440457 -0.00379902 -0.00274815
v 0.07450043 -0.00222777 -0.00441341
v 0.07440457 -0.00438673 -0.00055478
v 0.07440457 -0.00379902 0.00163860
v 0.07450043 -0.00385862 -0.00278256
v 0.07459360 -0.00222777 -0.00441341
v 0.07450043 -0.00445555 -0.00055478
v 0.07450043 -0.00385862 0.00167299
v 0.07459360 -0.00385862 -0.00278256
v 0.07609802 -0.00222777 -0.00441341
v 0.07459360 -0.00445555 -0.00055478
v 0.07459360 -0.00385862 0.00167299
v 0.07609802 -0.00385861 -0.00278256
v 0.07622671 -0.00222777 -0.00441341
v 0.07622671 -0.00385861 -0.00278256
v 0.07609802 -0.00445554 -0.00055478
v 0.07609802 -0.00385861 0.00167299
v 0.07622671 -0.00445554 -0.00055478
v 0.07622671 -0.00385861 0.00167299
v -0.08502811 0.00373611 -0.00271181
v -0.09996216 0.00106981 -0.00117244
v -0.09996216 0.00061765 -0.00162460
v -0.08502811 0.00215704 -0.00429088
v -0.09996216 -0.00000002 -0.00179010
v -0.08447114 0.00385863 -0.00278256
v -0.08502811 0.00000001 -0.00486885
v -0.09996216 -0.00061768 -0.00162460
v -0.08502811 -0.00215703 -0.00429088
v -0.08447114 0.00222779 -0.00441341
v -0.08447114 0.00000001 -0.00501033
v -0.08447114 -0.00222777 -0.00441341
v 0.07375067 -0.00222777 -0.00441341
v 0.07375062 0.00000001 -0.00501033
v 0.07430871 -0.00222777 -0.00441341
v 0.07375062 0.00222779 -0.00441341
v 0.07375062 0.00385863 -0.00278256
v 0.07430866 0.00000001 -0.00501033
v 0.07430866 0.00222779 -0.00441341
v 0.07430866 0.00385863 -0.00278256
v 0.07440452 0.00379903 -0.00274815
v 0.07440452 0.00219338 -0.00435381
v 0.07450037 0.00385863 -0.00278256
v 0.07440452 0.00000001 -0.00494151
v 0.07440457 -0.00219336 -0.00435381
v 0.07450037 0.00222779 -0.00441341
v 0.07459354 0.00385863 -0.00278256
v 0.07450037 0.00000001 -0.00501033
v 0.07450043 -0.00222777 -0.00441341
v 0.07459354 0.00222779 -0.00441341
v 0.07609797 0.00385864 -0.00278256
v 0.07459354 0.00000001 -0.00501033
v 0.07459360 -0.00222777 -0.00441341
v 0.07609797 0.00222779 -0.00441341
v 0.07622666 0.00385864 -0.00278256
v 0.07622666 0.00222779 -0.00441341
v 0.07609797 0.00000001 -0.00501033
v 0.07609802 -0.00222777 -0.00441341
v 0.07622666 0.00000001 -0.00501033
v 0.07622671 -0.00222777 -0.00441341
v -0.08502811 0.00215704 0.00318132
v -0.09996216 0.00061765 0.00051505
v -0.09996216 0.00106981 0.00006288
v -0.08502811 0.00373610 0.00160226
v -0.09996216 0.00123531 -0.00055478
v -0.08447114 0.00222778 0.00330385
v -0.08502811 0.00431408 -0.00055478
v -0.09996216 0.00106981 -0.00117244
v -0.08502811 0.00373611 -0.00271181
v -0.08447114 0.00385863 0.00167300
v -0.08447114 0.00445556 -0.00055478
v -0.08447114 0.00385863 -0.00278256
v 0.07375062 0.00385863 -0.00278256
v 0.07375062 0.00445556 -0.00055478
v 0.07430866 0.00385863 -0.00278256
v 0.07375062 0.00385863 0.00167300
v 0.07375062 0.00222778 0.00330385
v 0.07430866 0.00445556 -0.00055478
v 0.07430866 0.00385863 0.00167300
v 0.07430866 0.00222778 0.00330385
v 0.07440452 0.00219337 0.00324425
v 0.07440452 0.00379903 0.00163860
v 0.07450037 0.00222778 0.00330385
v 0.07440452 0.00438674 -0.00055478
v 0.07440452 0.00379903 -0.00274815
v 0.07450037 0.00385863 0.00167300
v 0.07450037 0.00445556 -0.00055478
v 0.07450037 0.00385863 -0.00278256
v 0.07459354 0.00222779 0.00330385
v 0.07450037 0.00222778 0.00472191
v 0.07459354 0.00445556 -0.00055478
v 0.07459354 0.00385863 -0.00278256
v 0.07459354 0.00385863 0.00167300
v 0.07609797 0.00445557 -0.00055478
v 0.07609797 0.00385864 -0.00278256
v 0.07609797 0.00385864 0.00167300
v 0.07622666 0.00445557 -0.00055478
v 0.07622666 0.00385864 -0.00278256
v 0.07622666 0.00385864 0.00167300
v 0.07622666 0.00222779 0.00330385
v 0.07609797 0.00222779 0.00330385
v 0.07459354 0.00222778 0.00468831
v 0.07609797 0.00222779 0.00414562
v 0.07622666 0.00222779 0.00409920
v 0.07609797 0.00222779 0.00473114
v 0.07622666 0.00222779 0.00467131
v 0.07459354 0.00222778 0.00543048
v 0.07450037 0.00222778 0.00547379
v 0.03063034 0.00222751 0.00472191
v 0.03063153 0.00222755 0.00563954
v 0.02975661 0.00222751 0.00472191
v 0.02975783 0.00222754 0.00564284
v -0.09996216 -0.00000002 -0.00123338
v -0.10140860 -0.00033933 -0.00114247
v -0.09996216 -0.00033932 -0.00114247
v -0.10140860 -0.00000002 -0.00123338
v -0.10177560 -0.00022301 -0.00094099
v -0.09996216 0.00033929 -0.00114247
v -0.10177560 -0.00000002 -0.00100075
v -0.10140860 0.00033928 -0.00114247
v -0.09996216 0.00058767 -0.00089409
v -0.10177560 0.00022296 -0.00094099
v -0.10140860 0.00058767 -0.00089409
v -0.10177560 0.00038620 -0.00077776
v -0.09996216 0.00067859 -0.00055478
v -0.10140860 0.00058767 -0.00089409
v -0.09996216 0.00058767 -0.00089409
v -0.10140860 0.00067859 -0.00055478
v -0.10177560 0.00038620 -0.00077776
v -0.09996216 0.00058767 -0.00021547
v -0.10177560 0.00044595 -0.00055478
v -0.10140860 0.00058767 -0.00021547
v -0.09996216 0.00033929 0.00003291
v -0.10177560 0.00038620 -0.00033180
v -0.10140860 0.00033928 0.00003291
v -0.10177560 0.00022296 -0.00016856
v -0.09996216 -0.00000002 0.00012383
v -0.10140860 0.00033928 0.00003291
v -0.09996216 0.00033929 0.00003291
v -0.10140860 -0.00000002 0.00012383
v -0.10177560 0.00022296 -0.00016856
v -0.09996216 -0.00033932 0.00003291
v -0.10177560 -0.00000002 -0.00010881
v -0.10140860 -0.00033933 0.00003291
v -0.09996216 -0.00058771 -0.00021547
v -0.10177560 -0.00022301 -0.00016856
v -0.10140860 -0.00058772 -0.00021547
v -0.10177560 -0.00038624 -0.00033180
v -0.09996215 -0.00067863 -0.00055478
v -0.10140860 -0.00058772 -0.00021547
v -0.09996216 -0.00058771 -0.00021547
v -0.10140860 -0.00067863 -0.00055478
v -0.10177560 -0.00038624 -0.00033180
v -0.09996216 -0.00058771 -0.00089409
v -0.10177560 -0.00044599 -0.00055478
v -0.10140860 -0.00058771 -0.00089409
v -0.09996216 -0.00033932 -0.00114247
v -0.10177560 -0.00038624 -0.00077776
v -0.10140860 -0.00033933 -0.00114247
v -0.10177560 -0.00022301 -0.00094099
v -0.10177560 -0.00038624 -0.00033180
v -0.10177560 -0.00044599 -0.00055478
v -0.10177560 -0.00038624 -0.00077776
v -0.10177560 -0.00022301 -0.00016856
v -0.10177560 -0.00022301 -0.00094099
v -0.10177560 -0.00000002 -0.00010881
v -0.10177560 -0.00000002 -0.00100075
v -0.10177560 0.00022296 -0.00016856
v -0.10177560 0.00022296 -0.00094099
v -0.10177560 0.00038620 -0.00033180
v -0.10177560 0.00038620 -0.00077776
v -0.10177560 0.00044595 -0.00055478
v 0.07611555 -0.00105148 0.00126646
v 0.07628629 -0.00171664 0.00043633
v 0.07611555 -0.00182122 0.00049672
v 0.07628629 -0.00099110 0.00116188
v 0.07611555 0.00000001 0.00154820
v 0.07668417 -0.00171423 0.00043494
v 0.07628629 0.00000001 0.00142745
v 0.07611553 0.00105151 0.00126646
v 0.07628627 0.00099113 0.00116188
v 0.07668417 -0.00098971 0.00115947
v 0.08898755 -0.00164076 0.00039253
v 0.08898755 -0.00094726 0.00108603
v 0.07668417 0.00000002 0.00142467
v 0.07668415 0.00098974 0.00115947
v 0.08898755 0.00000007 0.00133986
v 0.08898754 0.00094740 0.00108603
v 0.07611555 -0.00182122 -0.00160628
v 0.07628629 -0.00099110 -0.00227144
v 0.07611555 -0.00105148 -0.00237602
v 0.07628629 -0.00171664 -0.00154590
v 0.07611555 -0.00210297 -0.00055478
v 0.07668417 -0.00098971 -0.00226903
v 0.07628629 -0.00198221 -0.00055478
v 0.07611555 -0.00182122 0.00049672
v 0.07628629 -0.00171664 0.00043633
v 0.07668417 -0.00171423 -0.00154451
v 0.08898755 -0.00094726 -0.00219563
v 0.08898755 -0.00164076 -0.00150214
v 0.07668417 -0.00197943 -0.00055478
v 0.07668417 -0.00171423 0.00043494
v 0.08898755 -0.00189460 -0.00055479
v 0.08898755 -0.00164076 0.00039253
v 0.07611553 0.00105151 -0.00237602
v 0.07628627 0.00171668 -0.00154590
v 0.07611553 0.00182125 -0.00160628
v 0.07628627 0.00099113 -0.00227144
v 0.07611553 0.00000002 -0.00265776
v 0.07668415 0.00171427 -0.00154451
v 0.07628627 0.00000002 -0.00253700
v 0.07611555 -0.00105148 -0.00237602
v 0.07628629 -0.00099110 -0.00227144
v 0.07668415 0.00098974 -0.00226903
v 0.08898754 0.00164090 -0.00150214
v 0.08898754 0.00094740 -0.00219563
v 0.07668415 0.00000002 -0.00253423
v 0.07668417 -0.00098971 -0.00226903
v 0.08898754 0.00000007 -0.00244946
v 0.08898755 -0.00094726 -0.00219563
v 0.07611553 0.00182125 0.00049672
v 0.07628627 0.00099113 0.00116188
v 0.07611553 0.00105151 0.00126646
v 0.07628627 0.00171668 0.00043634
v 0.07611553 0.00210300 -0.00055478
v 0.07668415 0.00098974 0.00115947
v 0.07628627 0.00198225 -0.00055478
v 0.07611553 0.00182125 -0.00160628
v 0.07628627 0.00171668 -0.00154590
v 0.07668415 0.00171426 0.00043494
v 0.08898754 0.00094740 0.00108603
v 0.08898754 0.00164090 0.00039253
v 0.07668415 0.00197946 -0.00055478
v 0.07668415 0.00171427 -0.00154451
v 0.08898754 0.00189474 -0.00055479
v 0.08898754 0.00164090 -0.00150214
v 0.08898755 -0.00164076 -0.00150214
v 0.08898755 -0.00189460 -0.00055479
v 0.08898755 -0.00164076 0.00039253
v 0.08898755 -0.00094726 -0.00219563
v 0.08898755 -0.00094726 0.00108603
v 0.08898755 0.00000007 0.00133986
v 0.08898754 0.00000007 -0.00244946
v 0.08898754 0.00094740 0.00108603
v 0.08898754 0.00094740 -0.00219563
v 0.08898754 0.00164090 0.00039253
v 0.08898754 0.00164090 -0.00150214
v 0.08898754 0.00189474 -0.00055479
v 0.07609797 0.00222779 0.00473114
v 0.07622666 0.00222779 0.00467131
v 0.07622671 0.00000001 0.00526825
v 0.07609802 0.00000001 0.00532806
v 0.07622671 -0.00222777 0.00467131
v 0.07459354 0.00222778 0.00543048
v 0.07609802 -0.00222777 0.00473114
v 0.07459360 0.00000000 0.00602740
v 0.07450037 0.00222778 0.00547379
v 0.07459360 -0.00222777 0.00543047
v 0.07450043 0.00000000 0.00607071
v 0.03063153 0.00222755 0.00563954
v 0.07450043 -0.00222777 0.00547379
v 0.03063137 -0.00000033 0.00623607
v 0.02975783 0.00222754 0.00564284
v 0.03062820 -0.00222801 0.00563876
v 0.02975767 -0.00000034 0.00623937
v 0.02975443 -0.00222801 0.00564204
v 0.07622671 -0.00222777 0.00409920
v 0.07622671 -0.00222777 0.00467131
v 0.07622671 0.00000001 0.00526825
v 0.07622671 0.00000001 0.00469612
v 0.07622666 0.00222779 0.00467131
v 0.07622666 0.00222779 0.00409920
v 0.07622671 -0.00222777 0.00330385
v 0.07622671 0.00000001 0.00390077
v 0.07622666 0.00222779 0.00330385
v 0.07648081 -0.00190564 0.00274591
v 0.07648081 0.00000001 0.00325652
v 0.07648081 -0.00330067 0.00135088
v 0.07622671 -0.00385861 0.00167299
v 0.07648076 0.00190567 0.00274591
v 0.07622666 0.00385864 0.00167300
v 0.07648081 -0.00381129 -0.00055478
v 0.07622671 -0.00445554 -0.00055478
v 0.07648076 0.00330070 0.00135088
v 0.07622666 0.00445557 -0.00055478
v 0.07648081 -0.00330067 -0.00246043
v 0.07622671 -0.00385861 -0.00278256
v 0.07648076 0.00381132 -0.00055478
v 0.07622666 0.00385864 -0.00278256
v 0.07648081 -0.00190564 -0.00385547
v 0.07622671 -0.00222777 -0.00441341
v 0.07648076 0.00330070 -0.00246043
v 0.07622666 0.00222779 -0.00441341
v 0.07648076 0.00000002 -0.00436609
v 0.07622666 0.00000001 -0.00501033
v 0.07648076 0.00190567 -0.00385547
v 0.07648080 -0.00204846 -0.00173747
v 0.07648080 -0.00118267 -0.00260326
v 0.07648078 0.00000002 -0.00292017
v 0.07648078 0.00118271 -0.00260326
v 0.07648078 0.00204849 -0.00173747
v 0.07648078 0.00236539 -0.00055478
v 0.07648080 -0.00236536 -0.00055478
v 0.07648078 0.00204849 0.00062791
v 0.07648080 -0.00204846 0.00062791
v 0.07648078 0.00118270 0.00149370
v 0.07648080 -0.00118268 0.00149370
v 0.07648080 0.00000001 0.00181059
v 0.07648078 0.00222375 -0.00055478
v 0.07648078 0.00192583 -0.00166664
v 0.07648078 0.00192583 0.00055708
v 0.07648078 0.00111188 0.00137103
v 0.07648078 0.00111188 -0.00248059
v 0.07648080 0.00000001 0.00166896
v 0.07648080 -0.00111185 0.00137103
v 0.07648078 0.00000002 -0.00277852
v 0.07648080 -0.00192580 0.00055708
v 0.07648080 -0.00111185 -0.00248059
v 0.07648080 -0.00222372 -0.00055478
v 0.07648080 -0.00192580 -0.00166664
v 0.03063034 0.00222751 0.00472191
v 0.02975661 0.00222751 0.00472191
v 0.02975666 -0.00000027 0.00531885
v 0.03063039 -0.00000026 0.00531885
v 0.07450037 0.00222778 0.00472191
v 0.02975666 -0.00222805 0.00472191
v 0.07450043 0.00000000 0.00531885
v 0.03063039 -0.00222804 0.00472191
v 0.07450043 -0.00222777 0.00472191
v 0.07450043 0.00000001 0.00390077
v 0.07450043 -0.00222777 0.00472191
v 0.07450043 -0.00222777 0.00330385
v 0.07450043 0.00000000 0.00531885
v 0.07450037 0.00222778 0.00330385
v 0.07450037 0.00222778 0.00472191
v 0.07609802 -0.00222777 0.00330385
v 0.07622671 -0.00222777 0.00409920
v 0.07622671 -0.00222777 0.00330385
v 0.07609802 -0.00222777 0.00414562
v 0.07622671 -0.00222777 0.00467131
v 0.07459360 -0.00222777 0.00330385
v 0.07609802 -0.00222777 0.00473114
v 0.07459360 -0.00222777 0.00468831
v 0.07450043 -0.00222777 0.00330385
v 0.07459360 -0.00222777 0.00543047
v 0.07450043 -0.00222777 0.00472191
v 0.07450043 -0.00222777 0.00547379
v 0.03062820 -0.00222801 0.00563876
v 0.03063039 -0.00222804 0.00472191
v 0.02975443 -0.00222801 0.00564204
v 0.02975666 -0.00222805 0.00472191
v 0.02975661 0.00222751 0.00472191
v 0.02975783 0.00222754 0.00564284
v 0.02975767 -0.00000034 0.00623937
v 0.02975666 -0.00000027 0.00531885
v 0.02975443 -0.00222801 0.00564204
v 0.02975666 -0.00222805 0.00472191
v 0.07648078 0.00192583 0.00055708
v 0.07611553 0.00105151 0.00126646
v 0.07648078 0.00111188 0.00137103
v 0.07611553 0.00182125 0.00049672
v 0.07648078 0.00222375 -0.00055478
v 0.07611553 0.00210300 -0.00055478
v 0.07648078 0.00192583 -0.00166664
v 0.07611553 0.00182125 -0.00160628
v 0.07648080 -0.00111185 -0.00248059
v 0.07611555 -0.00105148 -0.00237602
v 0.07611553 0.00000002 -0.00265776
v 0.07648078 0.00000002 -0.00277852
v 0.07611553 0.00105151 -0.00237602
v 0.07648078 0.00111188 -0.00248059
v 0.07611553 0.00182125 -0.00160628
v 0.07648078 0.00192583 -0.00166664
v 0.07648080 -0.00192580 0.00055708
v 0.07611555 -0.00182122 0.00049672
v 0.07611555 -0.00210297 -0.00055478
v 0.07648080 -0.00222372 -0.00055478
v 0.07611555 -0.00182122 -0.00160628
v 0.07648080 -0.00192580 -0.00166664
v 0.07611555 -0.00105148 -0.00237602
v 0.07648080 -0.00111185 -0.00248059
v 0.07648078 0.00111188 0.00137103
v 0.07611553 0.00105151 0.00126646
v 0.07611555 0.00000001 0.00154820
v 0.07648080 0.00000001 0.00166896
v 0.07611555 -0.00105148 0.00126646
v 0.07648080 -0.00111185 0.00137103
v 0.07611555 -0.00182122 0.00049672
v 0.07648080 -0.00192580 0.00055708
v -0.09996216 0.00061765 0.00051505
v -0.09996216 0.00033929 0.00003291
v -0.09996216 0.00058767 -0.00021547
v -0.09996216 0.00106981 0.00006288
v -0.09996216 -0.00000002 0.00068056
v -0.09996216 0.00067859 -0.00055478
v -0.09996216 -0.00000002 0.00012383
v -0.09996216 0.00123531 -0.00055478
v -0.09996216 -0.00061768 0.00051505
v -0.09996216 0.00058767 -0.00089409
v -0.09996216 -0.00033932 0.00003291
v -0.09996216 0.00106981 -0.00117244
v -0.09996216 -0.00106984 0.00006288
v -0.09996216 0.00033929 -0.00114247
v -0.09996216 -0.00058771 -0.00021547
v -0.09996216 0.00061765 -0.00162460
v -0.09996215 -0.00123535 -0.00055478
v -0.09996216 -0.00000002 -0.00123338
v -0.09996215 -0.00067863 -0.00055478
v -0.09996216 -0.00000002 -0.00179010
v -0.09996216 -0.00106984 -0.00117244
v -0.09996216 -0.00033932 -0.00114247
v -0.09996216 -0.00058771 -0.00089409
v -0.09996216 -0.00061768 -0.00162460
vn -0.22492930 -0.84383570 0.48718390
vn -0.72659310 -0.59502630 0.34352030
vn -0.72657870 -0.34352790 0.59503940
vn -0.22492930 -0.48718390 0.84383570
vn -0.72657710 0.00000000 0.68708490
vn -0.12158910 -0.85960850 0.49627540
vn -0.22492410 0.00000000 0.97437630
vn -0.72657870 0.34352790 0.59503940
vn -0.22492930 0.48718390 0.84383570
vn -0.12158910 -0.49627540 0.85960850
vn -0.12158910 0.00000000 0.99258050
vn -0.12158910 0.49627540 0.85960850
vn 0.00000000 0.49998930 0.86603160
vn 0.00000000 0.00000000 1.00000000
vn 0.29252980 0.47811910 0.82814760
vn 0.00000000 -0.49998930 0.86603160
vn 0.00000000 -0.86603160 0.49998930
vn 0.29252630 0.00000000 0.95625750
vn 0.29252980 -0.47811910 0.82814760
vn 0.29252980 -0.82814760 0.47811910
vn 0.00000000 -0.86601080 0.50002540
vn 0.00000000 -0.49998930 0.86603160
vn -0.29249450 -0.82816460 0.47811130
vn 0.00000000 0.00000000 1.00000000
vn 0.00000000 0.50000260 0.86602400
vn -0.51379200 -0.66858580 0.53759710
vn 0.00000000 -0.86603160 0.49998930
vn -0.91983030 0.00000000 0.39231650
vn -0.51381460 0.66857540 0.53758870
vn 0.00000000 -0.92388030 0.38268150
vn 0.00000000 -0.86603160 0.49998930
vn 0.00000000 -0.92388030 0.38268150
vn 0.52318830 -0.73804250 0.42610720
vn 0.71167660 -0.59814520 0.36842740
vn -0.22492930 -0.48718390 -0.84383570
vn -0.72657870 -0.34352790 -0.59503940
vn -0.72659310 -0.59502630 -0.34352030
vn -0.22492930 -0.84383570 -0.48718390
vn -0.72657710 -0.68708490 0.00000000
vn -0.12158910 -0.49627540 -0.85960850
vn -0.22492410 -0.97437630 0.00000000
vn -0.72659310 -0.59502630 0.34352030
vn -0.22492930 -0.84383570 0.48718390
vn -0.12158910 -0.85960850 -0.49627540
vn -0.12158910 -0.99258050 0.00000000
vn -0.12158910 -0.85960850 0.49627540
vn 0.00000000 -0.86603160 0.49998930
vn 0.00000000 -1.00000000 0.00000000
vn 0.29252980 -0.82814760 0.47811910
vn 0.00000000 -0.86603160 -0.49998930
vn 0.00000000 -0.49998930 -0.86603160
vn 0.29252630 -0.95625750 0.00000000
vn 0.29252980 -0.82814760 -0.47811910
vn 0.29252980 -0.47811910 -0.82814760
vn 0.00000000 -0.49998930 -0.86603160
vn 0.00000000 -0.86603160 -0.49998930
vn -0.29252980 -0.47811910 -0.82814760
vn 0.00000000 -1.00000000 0.00000000
vn 0.00000000 -0.86601080 0.50002540
vn -0.29252980 -0.82814760 -0.47811910
vn 0.00000000 -0.49998930 -0.86603160
vn -0.29252630 -0.95625750 0.00000000
vn -0.29249450 -0.82816460 0.47811130
vn 0.00000000 -0.86603160 -0.49998930
vn 0.00000000 -0.49998930 -0.86603160
vn 0.00000000 -1.00000000 0.00000000
vn 0.00000000 -0.86603160 0.49998930
vn 0.00000000 -0.86603160 -0.49998930
vn 0.52318830 -0.42610720 -0.73804250
vn 0.52318830 -0.73804250 -0.42610720
vn 0.00000000 -1.00000000 0.00000000
vn 0.00000000 -0.86603160 0.49998930
vn 0.52318950 -0.85221630 0.00000000
vn 0.52318830 -0.73804250 0.42610720
vn -0.22492930 0.84383570 -0.48718390
vn -0.72657870 0.59503940 -0.34352790
vn -0.72657870 0.34352790 -0.59503940
vn -0.22492930 0.48718390 -0.84383570
vn -0.72657710 0.00000000 -0.68708490
vn -0.12161920 0.85960530 -0.49627360
vn -0.22492410 0.00000000 -0.97437630
vn -0.72657870 -0.34352790 -0.59503940
vn -0.22492930 -0.48718390 -0.84383570
vn -0.12161920 0.49627360 -0.85960530
vn -0.12158910 0.00000000 -0.99258050
vn -0.12158910 -0.49627540 -0.85960850
vn 0.00000000 -0.49998930 -0.86603160
vn 0.00000000 0.00000000 -1.00000000
vn 0.29252980 -0.47811910 -0.82814760
vn 0.00000000 0.49998930 -0.86603160
vn 0.00000000 0.86603160 -0.49998930
vn 0.29252630 0.00000000 -0.95625750
vn 0.29252980 0.47811910 -0.82814760
vn 0.29252980 0.82814760 -0.47811910
vn 0.00000000 0.86603160 -0.49998930
vn 0.00000000 0.50000260 -0.86602400
vn -0.29252980 0.82814760 -0.47811910
vn 0.00000000 0.00000000 -1.00000000
vn 0.00000000 -0.49998930 -0.86603160
vn -0.29252980 0.47811910 -0.82814760
vn 0.00000000 0.86603160 -0.49998930
vn -0.29252630 0.00000000 -0.95625750
vn -0.29252980 -0.47811910 -0.82814760
vn 0.00000000 0.49998930 -0.86603160
vn 0.00000000 0.86603160 -0.49998930
vn 0.00000000 0.00000000 -1.00000000
vn 0.00000000 -0.49998930 -0.86603160
vn 0.00000000 0.49998930 -0.86603160
vn 0.52318830 0.73804250 -0.42610720
vn 0.52318830 0.42610720 -0.73804250
vn 0.00000000 0.00000000 -1.00000000
vn 0.00000000 -0.49998930 -0.86603160
vn 0.52318950 0.00000000 -0.85221630
vn 0.52318830 -0.42610720 -0.73804250
vn -0.22492930 0.48718390 0.84383570
vn -0.72657870 0.34352790 0.59503940
vn -0.72657870 0.59503940 0.34352790
vn -0.22492930 0.84383570 0.48718390
vn -0.72657710 0.68708490 0.00000000
vn -0.12158910 0.49627540 0.85960850
vn -0.22492410 0.97437630 0.00000000
vn -0.72657870 0.59503940 -0.34352790
vn -0.22492930 0.84383570 -0.48718390
vn -0.12158910 0.85960850 0.49627540
vn -0.12161910 0.99257690 0.00000000
vn -0.12161920 0.85960530 -0.49627360
vn 0.00000000 0.86603160 -0.49998930
vn 0.00000000 1.00000000 0.00000000
vn 0.29252980 0.82814760 -0.47811910
vn 0.00000000 0.86603160 0.49998930
vn 0.00000000 0.49998930 0.86603160
vn 0.29252630 0.95625750 0.00000000
vn 0.29252980 0.82814760 0.47811910
vn 0.29252980 0.47811910 0.82814760
vn 0.00000000 0.50000260 0.86602400
vn 0.00000000 0.86603160 0.49998930
vn -0.51381460 0.66857540 0.53758870
vn 0.00000000 1.00000000 0.00000000
vn 0.00000000 0.86603160 -0.49998930
vn -0.29252980 0.82814760 0.47811910
vn -0.29252630 0.95625750 0.00000000
vn -0.29252980 0.82814760 -0.47811910
vn 0.00000000 0.92388030 0.38268150
vn -0.37252170 0.87527040 -0.30843060
vn 0.00000000 1.00000000 0.00000000
vn 0.00000000 0.86603160 -0.49998930
vn 0.00000000 0.86602400 0.50000260
vn 0.00000000 1.00000000 0.00000000
vn 0.00000000 0.86603160 -0.49998930
vn 0.00000000 0.86603160 0.49998930
vn 0.52318950 0.85221630 0.00000000
vn 0.52318830 0.73804250 -0.42610720
vn 0.52318830 0.73804250 0.42610720
vn 0.71167660 0.59814520 0.36842740
vn 0.00000000 0.92388030 0.38268150
vn 0.00000000 1.00000000 0.00000000
vn 0.00000000 1.00000000 0.00000000
vn 0.70709150 0.70712200 0.00000000
vn 0.26051030 0.78616980 0.56042070
vn 0.67179100 0.64966460 0.35585510
vn 0.26048190 0.78617610 0.56042520
vn 0.14856680 0.75235590 0.64178540
vn 0.00000000 0.60873390 -0.79337440
vn 0.00228895 0.79332020 0.60880020
vn -0.56518670 0.50228650 -0.65442510
vn -0.59103650 0.63922640 0.49200140
vn -0.77026610 0.00000000 -0.63772260
vn -0.26716720 -0.48181040 -0.83455410
vn -0.77026670 -0.31883100 -0.55230070
vn -0.26716690 0.00000000 -0.96365020
vn -0.84239450 -0.26942460 -0.46667100
vn -0.77027960 0.31883640 -0.55227950
vn -0.84238610 0.00000000 -0.53887440
vn -0.26716720 0.48181040 -0.83455410
vn -0.77027210 0.55227400 -0.31886380
vn -0.84239450 0.26942460 -0.46667100
vn -0.26716330 0.83454180 -0.48183380
vn -0.84239450 0.46667100 -0.26942460
vn -0.77026610 0.63772260 0.00000000
vn -0.26716330 0.83454180 -0.48183380
vn -0.77027210 0.55227400 -0.31886380
vn -0.26713070 0.96366030 0.00000000
vn -0.84239450 0.46667100 -0.26942460
vn -0.77027210 0.55227400 0.31886380
vn -0.84238610 0.53887440 0.00000000
vn -0.26716330 0.83454180 0.48183380
vn -0.77027960 0.31883640 0.55227950
vn -0.84239450 0.46667100 0.26942460
vn -0.26716720 0.48181040 0.83455410
vn -0.84239450 0.26942460 0.46667100
vn -0.77026610 0.00000000 0.63772260
vn -0.26716720 0.48181040 0.83455410
vn -0.77027960 0.31883640 0.55227950
vn -0.26716690 0.00000000 0.96365020
vn -0.84239450 0.26942460 0.46667100
vn -0.77026670 -0.31883100 0.55230070
vn -0.84238610 0.00000000 0.53887440
vn -0.26716720 -0.48181040 0.83455410
vn -0.77027210 -0.55227400 0.31886380
vn -0.84239450 -0.26942460 0.46667100
vn -0.26716330 -0.83454180 0.48183380
vn -0.84239450 -0.46667100 0.26942460
vn -0.77026610 -0.63772260 0.00000000
vn -0.26716330 -0.83454180 0.48183380
vn -0.77027210 -0.55227400 0.31886380
vn -0.26713070 -0.96366030 0.00000000
vn -0.84239450 -0.46667100 0.26942460
vn -0.77027210 -0.55227400 -0.31886380
vn -0.84238610 -0.53887440 0.00000000
vn -0.26716330 -0.83454180 -0.48183380
vn -0.77026670 -0.31883100 -0.55230070
vn -0.84239450 -0.46667100 -0.26942460
vn -0.26716720 -0.48181040 -0.83455410
vn -0.84239450 -0.26942460 -0.46667100
vn -0.84239450 -0.46667100 0.26942460
vn -0.84238610 -0.53887440 0.00000000
vn -0.84239450 -0.46667100 -0.26942460
vn -0.84239450 -0.26942460 0.46667100
vn -0.84239450 -0.26942460 -0.46667100
vn -0.84238610 0.00000000 0.53887440
vn -0.84238610 0.00000000 -0.53887440
vn -0.84239450 0.26942460 0.46667100
vn -0.84239450 0.26942460 -0.46667100
vn -0.84239450 0.46667100 0.26942460
vn -0.84239450 0.46667100 -0.26942460
vn -0.84238610 0.53887440 0.00000000
vn 0.95867620 0.14225100 -0.24638330
vn 0.32173080 -0.81998310 0.47341000
vn 0.95866890 0.24641200 -0.14225000
vn 0.32173080 -0.47341000 0.81998310
vn 0.95867550 0.00000000 -0.28450190
vn 0.00692778 -0.86600320 0.49999050
vn 0.32170680 0.00000000 0.94683930
vn 0.95867620 -0.14225100 -0.24638330
vn 0.32170340 0.47341460 0.81999120
vn 0.00692778 -0.49999050 0.86600320
vn 0.65580390 -0.65378960 0.37746570
vn 0.65579080 -0.37745810 0.65380710
vn 0.00692775 0.00000000 0.99997600
vn 0.00692778 0.49999050 0.86600320
vn 0.65578880 0.00000000 0.75494450
vn 0.65579080 0.37745810 0.65380710
vn 0.95867620 0.24638330 0.14225100
vn 0.32173080 -0.47341000 -0.81998310
vn 0.95867200 0.14228090 0.24638220
vn 0.32170340 -0.81999120 -0.47341460
vn 0.95867550 0.28450190 0.00000000
vn 0.00692778 -0.49999050 -0.86600320
vn 0.32173420 -0.94683000 0.00000000
vn 0.95866890 0.24641200 -0.14225000
vn 0.32173080 -0.81998310 0.47341000
vn 0.00692778 -0.86600320 -0.49999050
vn 0.65579080 -0.37745810 -0.65380710
vn 0.65580390 -0.65378960 -0.37746570
vn 0.00692775 -0.99997600 0.00000000
vn 0.00692778 -0.86600320 0.49999050
vn 0.65578880 -0.75494450 0.00000000
vn 0.65580390 -0.65378960 0.37746570
vn 0.95867620 -0.14225100 0.24638330
vn 0.32170340 0.81999120 -0.47341460
vn 0.95867620 -0.24638330 0.14225100
vn 0.32170340 0.47341460 -0.81999120
vn 0.95867550 0.00000000 0.28450190
vn 0.00692778 0.86600320 -0.49999050
vn 0.32170680 0.00000000 -0.94683930
vn 0.95867200 0.14228090 0.24638220
vn 0.32173080 -0.47341000 -0.81998310
vn 0.00692778 0.49999050 -0.86600320
vn 0.65579080 0.65380710 -0.37745810
vn 0.65579080 0.37745810 -0.65380710
vn 0.00692775 0.00000000 -0.99997600
vn 0.00692778 -0.49999050 -0.86600320
vn 0.65578880 0.00000000 -0.75494450
vn 0.65579080 -0.37745810 -0.65380710
vn 0.95867620 -0.24638330 -0.14225100
vn 0.32170340 0.47341460 0.81999120
vn 0.95867620 -0.14225100 -0.24638330
vn 0.32170340 0.81999120 0.47341460
vn 0.95867550 -0.28450190 0.00000000
vn 0.00692778 0.49999050 0.86600320
vn 0.32169750 0.94684250 0.00000000
vn 0.95867620 -0.24638330 0.14225100
vn 0.32170340 0.81999120 -0.47341460
vn 0.00692778 0.86600320 0.49999050
vn 0.65579080 0.37745810 0.65380710
vn 0.65579080 0.65380710 0.37745810
vn 0.00692775 0.99997600 0.00000000
vn 0.00692778 0.86600320 -0.49999050
vn 0.65578880 0.75494450 0.00000000
vn 0.65579080 0.65380710 -0.37745810
vn 0.65580390 -0.65378960 -0.37746570
vn 0.65578880 -0.75494450 0.00000000
vn 0.65580390 -0.65378960 0.37746570
vn 0.65579080 -0.37745810 -0.65380710
vn 0.65579080 -0.37745810 0.65380710
vn 0.65578880 0.00000000 0.75494450
vn 0.65578880 0.00000000 -0.75494450
vn 0.65579080 0.37745810 0.65380710
vn 0.65579080 0.37745810 -0.65380710
vn 0.65579080 0.65380710 0.37745810
vn 0.65579080 0.65380710 -0.37745810
vn 0.65578880 0.75494450 0.00000000
vn 0.26051030 0.78616980 0.56042070
vn 0.67179100 0.64966460 0.35585510
vn 0.80336040 0.00000000 0.59549330
vn 0.42153000 0.00000000 0.90681440
vn 0.67180780 -0.64965120 0.35584780
vn 0.26048190 0.78617610 0.56042520
vn 0.26051030 -0.78616980 0.56042070
vn 0.42153000 0.00000000 0.90681440
vn 0.14856680 0.75235590 0.64178540
vn 0.26051030 -0.78616980 0.56042070
vn 0.21055020 -0.00003052 0.97758310
vn 0.00228895 0.79332020 0.60880020
vn 0.14859960 -0.75236730 0.64176460
vn 0.00375386 -0.00012208 0.99999300
vn -0.59103650 0.63922640 0.49200140
vn 0.00228897 -0.79338710 0.60871310
vn -0.65158030 0.00015259 0.75857970
vn -0.59231870 -0.63855550 0.49133030
vn 0.70710680 -0.70710680 0.00000000
vn 0.67180780 -0.64965120 0.35584780
vn 0.80336040 0.00000000 0.59549330
vn 1.00000000 0.00000000 0.00000000
vn 0.67179100 0.64966460 0.35585510
vn 0.70709150 0.70712200 0.00000000
vn 0.71167660 -0.59814520 0.36842740
vn 0.98769680 0.00000000 0.15638100
vn 0.71167660 0.59814520 0.36842740
vn 0.97630970 -0.10819060 0.18738800
vn 0.97630900 0.00000000 0.21638110
vn 0.97630970 -0.18738800 0.10819060
vn 0.52318830 -0.73804250 0.42610720
vn 0.97630970 0.10819060 0.18738800
vn 0.52318830 0.73804250 0.42610720
vn 0.97630900 -0.21638110 0.00000000
vn 0.52318950 -0.85221630 0.00000000
vn 0.97630970 0.18738800 0.10819060
vn 0.52318950 0.85221630 0.00000000
vn 0.97630970 -0.18738800 -0.10819060
vn 0.52318830 -0.73804250 -0.42610720
vn 0.97630900 0.21638110 0.00000000
vn 0.52318830 0.73804250 -0.42610720
vn 0.97631290 -0.10816050 -0.18738860
vn 0.52318830 -0.42610720 -0.73804250
vn 0.97630970 0.18738800 -0.10819060
vn 0.52318830 0.42610720 -0.73804250
vn 0.97630900 0.00000000 -0.21638110
vn 0.52318950 0.00000000 -0.85221630
vn 0.97630970 0.10819060 -0.18738800
vn 1.00000000 0.00000000 0.00000000
vn 1.00000000 0.00000000 0.00000000
vn 1.00000000 0.00000000 0.00000000
vn 1.00000000 0.00000000 0.00000000
vn 1.00000000 0.00000000 0.00000000
vn 1.00000000 0.00000000 0.00000000
vn 1.00000000 0.00000000 0.00000000
vn 1.00000000 0.00000000 0.00000000
vn 1.00000000 0.00000000 0.00000000
vn 1.00000000 0.00000000 0.00000000
vn 1.00000000 0.00000000 0.00000000
vn 1.00000000 0.00000000 0.00000000
vn 0.85762220 -0.51428030 0.00000000
vn 0.85763820 -0.44536020 0.25712050
vn 0.85763010 -0.44537190 -0.25712730
vn 0.85763820 -0.25712050 -0.44536020
vn 0.85764990 -0.25712400 0.44533580
vn 0.85764370 0.00000000 -0.51424440
vn 0.85764990 0.25712400 -0.44533580
vn 0.85764370 0.00000000 0.51424440
vn 0.85763820 0.44536020 -0.25712050
vn 0.85764990 0.25712400 0.44533580
vn 0.85764370 0.51424440 0.00000000
vn 0.85763820 0.44536020 0.25712050
vn 0.00000000 0.60873390 -0.79337440
vn -0.56518670 0.50228650 -0.65442510
vn -0.77036320 0.00045779 -0.63760510
vn 0.00000000 0.00000000 -1.00000000
vn -0.37252170 0.87527040 -0.30843060
vn -0.56451280 -0.50265040 -0.65472730
vn -0.65323600 0.00000000 -0.75715440
vn 0.00000000 -0.60876790 -0.79334840
vn -0.37251170 -0.87527740 -0.30842240
vn -0.91983030 0.00000000 0.39231650
vn -0.37251170 -0.87527740 -0.30842240
vn -0.51379200 -0.66858580 0.53759710
vn -0.65323600 0.00000000 -0.75715440
vn -0.51381460 0.66857540 0.53758870
vn -0.37252170 0.87527040 -0.30843060
vn 0.00000000 -0.92388030 0.38268150
vn 0.70710680 -0.70710680 0.00000000
vn 0.71167660 -0.59814520 0.36842740
vn 0.00000000 -1.00000000 0.00000000
vn 0.67180780 -0.64965120 0.35584780
vn 0.00000000 -0.92388030 0.38268150
vn 0.26051030 -0.78616980 0.56042070
vn 0.00000000 -1.00000000 0.00000000
vn -0.51379200 -0.66858580 0.53759710
vn 0.26051030 -0.78616980 0.56042070
vn -0.37251170 -0.87527740 -0.30842240
vn 0.14859960 -0.75236730 0.64176460
vn 0.00228897 -0.79338710 0.60871310
vn 0.00000000 -0.60876790 -0.79334840
vn -0.59231870 -0.63855550 0.49133030
vn -0.56451280 -0.50265040 -0.65472730
vn -0.56518670 0.50228650 -0.65442510
vn -0.59103650 0.63922640 0.49200140
vn -0.65158030 0.00015259 0.75857970
vn -0.77036320 0.00045779 -0.63760510
vn -0.59231870 -0.63855550 0.49133030
vn -0.56451280 -0.50265040 -0.65472730
vn 0.85763010 -0.44537190 -0.25712730
vn 0.95867620 -0.14225100 -0.24638330
vn 0.85763820 -0.25712050 -0.44536020
vn 0.95867620 -0.24638330 -0.14225100
vn 0.85762220 -0.51428030 0.00000000
vn 0.95867550 -0.28450190 0.00000000
vn 0.85763820 -0.44536020 0.25712050
vn 0.95867620 -0.24638330 0.14225100
vn 0.85764990 0.25712400 0.44533580
vn 0.95867200 0.14228090 0.24638220
vn 0.95867550 0.00000000 0.28450190
vn 0.85764370 0.00000000 0.51424440
vn 0.95867620 -0.14225100 0.24638330
vn 0.85764990 -0.25712400 0.44533580
vn 0.95867620 -0.24638330 0.14225100
vn 0.85763820 -0.44536020 0.25712050
vn 0.85763820 0.44536020 -0.25712050
vn 0.95866890 0.24641200 -0.14225000
vn 0.95867550 0.28450190 0.00000000
vn 0.85764370 0.51424440 0.00000000
vn 0.95867620 0.24638330 0.14225100
vn 0.85763820 0.44536020 0.25712050
vn 0.95867200 0.14228090 0.24638220
vn 0.85764990 0.25712400 0.44533580
vn 0.85763820 -0.25712050 -0.44536020
vn 0.95867620 -0.14225100 -0.24638330
vn 0.95867550 0.00000000 -0.28450190
vn 0.85764370 0.00000000 -0.51424440
vn 0.95867620 0.14225100 -0.24638330
vn 0.85764990 0.25712400 -0.44533580
vn 0.95866890 0.24641200 -0.14225000
vn 0.85763820 0.44536020 -0.25712050
vn -0.72657870 0.34352790 0.59503940
vn -0.77027960 0.31883640 0.55227950
vn -0.77027210 0.55227400 0.31886380
vn -0.72657870 0.59503940 0.34352790
vn -0.72657710 0.00000000 0.68708490
vn -0.77026610 0.63772260 0.00000000
vn -0.77026610 0.00000000 0.63772260
vn -0.72657710 0.68708490 0.00000000
vn -0.72657870 -0.34352790 0.59503940
vn -0.77027210 0.55227400 -0.31886380
vn -0.77026670 -0.31883100 0.55230070
vn -0.72657870 0.59503940 -0.34352790
vn -0.72659310 -0.59502630 0.34352030
vn -0.77027960 0.31883640 -0.55227950
vn -0.77027210 -0.55227400 0.31886380
vn -0.72657870 0.34352790 -0.59503940
vn -0.72657710 -0.68708490 0.00000000
vn -0.77026610 0.00000000 -0.63772260
vn -0.77026610 -0.63772260 0.00000000
vn -0.72657710 0.00000000 -0.68708490
vn -0.72659310 -0.59502630 -0.34352030
vn -0.77026670 -0.31883100 -0.55230070
vn -0.77027210 -0.55227400 -0.31886380
vn -0.72657870 -0.34352790 -0.59503940
vt 0.41356300 0.05921390
vt 0.40456260 0.00093390
vt 0.40245290 0.00096481
vt 0.40619540 0.05932190
vt 0.39994080 0.00096780
vt 0.41397660 0.06138904
vt 0.39742270 0.05933229
vt 0.39769950 0.00094201
vt 0.38959530 0.05924225
vt 0.40636750 0.06150061
vt 0.39730690 0.06151130
vt 0.38922290 0.06141828
vt 0.38922290 0.67693870
vt 0.39730690 0.67703190
vt 0.38922290 0.67910960
vt 0.40636740 0.67702120
vt 0.41397660 0.67690960
vt 0.39730690 0.67920280
vt 0.40636740 0.67919210
vt 0.41397660 0.67908050
vt 0.41377540 0.67944930
vt 0.40628370 0.67955910
vt 0.41397660 0.67982640
vt 0.39736320 0.67956970
vt 0.38940400 0.67947800
vt 0.40636740 0.67993800
vt 0.41397660 0.68018880
vt 0.39730690 0.67994860
vt 0.38922290 0.67985550
vt 0.40636740 0.68030040
vt 0.41397660 0.68604140
vt 0.40636740 0.68615290
vt 0.41397660 0.68654190
vt 0.40636740 0.68665360
vt 0.65637270 0.62832920
vt 0.66349540 0.68665360
vt 0.66584350 0.68663260
vt 0.66457260 0.62825580
vt 0.66832810 0.68664170
vt 0.65604530 0.62615200
vt 0.67325000 0.62828760
vt 0.67028370 0.68667860
vt 0.68007910 0.62841650
vt 0.66451440 0.62607620
vt 0.67347620 0.62610890
vt 0.68052920 0.62624220
vt 0.68052920 0.01073221
vt 0.67347600 0.01059912
vt 0.68052920 0.00856126
vt 0.66451420 0.01056614
vt 0.65604520 0.01064202
vt 0.67347610 0.00842826
vt 0.66451420 0.00839527
vt 0.65604520 0.00847112
vt 0.65620450 0.00810338
vt 0.66454260 0.00802863
vt 0.65604530 0.00772531
vt 0.67336600 0.00806114
vt 0.68031040 0.00819212
vt 0.66451430 0.00764945
vt 0.65604520 0.00736288
vt 0.67347600 0.00768244
vt 0.68052920 0.00781547
vt 0.66451420 0.00728699
vt 0.65604510 0.00151041
vt 0.67347600 0.00732001
vt 0.68052920 0.00745304
vt 0.66451420 0.00143456
vt 0.65604510 0.00100978
vt 0.66451420 0.00093390
vt 0.67347600 0.00146757
vt 0.68052920 0.00160060
vt 0.67347610 0.00096694
vt 0.68052920 0.00109994
vt 0.62735920 0.05936207
vt 0.61810580 0.00093390
vt 0.61604060 0.00100557
vt 0.62014730 0.05961246
vt 0.61353400 0.00101614
vt 0.62778440 0.06154453
vt 0.61139360 0.05964930
vt 0.61125760 0.00096273
vt 0.60344350 0.05946271
vt 0.62033610 0.06180317
vt 0.61129520 0.06184119
vt 0.60308440 0.06164856
vt 0.60308440 0.67654500
vt 0.61129520 0.67673740
vt 0.60308440 0.67871370
vt 0.62033610 0.67669940
vt 0.62778440 0.67644080
vt 0.61129520 0.67890610
vt 0.62033610 0.67886810
vt 0.62778440 0.67860950
vt 0.62757760 0.67897340
vt 0.62024430 0.67922800
vt 0.62778440 0.67935460
vt 0.61134310 0.67926540
vt 0.60325910 0.67907590
vt 0.62033610 0.67961320
vt 0.62778440 0.67971660
vt 0.61129520 0.67965120
vt 0.60308440 0.67945870
vt 0.62033610 0.67997530
vt 0.62778440 0.68556330
vt 0.61129520 0.68001330
vt 0.60308440 0.67982080
vt 0.62033610 0.68582190
vt 0.62778440 0.68606340
vt 0.62033610 0.68632200
vt 0.61129520 0.68586000
vt 0.60308440 0.68566750
vt 0.61129520 0.68636010
vt 0.60308440 0.68616760
vt 0.00967904 0.62832890
vt 0.01680172 0.68665330
vt 0.01914982 0.68663220
vt 0.01787919 0.62825540
vt 0.02163447 0.68664140
vt 0.00935166 0.62615170
vt 0.02655642 0.62828740
vt 0.02359006 0.68667830
vt 0.03338551 0.62841620
vt 0.01782078 0.62607590
vt 0.02678254 0.62610880
vt 0.03383577 0.62624190
vt 0.03383577 0.01073219
vt 0.02678254 0.01059912
vt 0.03383577 0.00856126
vt 0.01782078 0.01056611
vt 0.00935178 0.01064199
vt 0.02678248 0.00842823
vt 0.01782078 0.00839524
vt 0.00935172 0.00847110
vt 0.00951097 0.00810326
vt 0.01784923 0.00802857
vt 0.00935166 0.00772531
vt 0.02667263 0.00806111
vt 0.03361679 0.00819209
vt 0.01782084 0.00764942
vt 0.02678254 0.00768241
vt 0.03383583 0.00781547
vt 0.00935166 0.00736282
vt 0.00425468 0.00767246
vt 0.02678254 0.00731995
vt 0.03383583 0.00745304
vt 0.01782084 0.00728696
vt 0.02678254 0.00146754
vt 0.03383577 0.00160057
vt 0.01782078 0.00143453
vt 0.02678248 0.00096688
vt 0.03383583 0.00109994
vt 0.01782084 0.00093390
vt 0.00935178 0.00100978
vt 0.00935178 0.00151038
vt 0.00437545 0.00731122
vt 0.00632617 0.00147903
vt 0.00649298 0.00098012
vt 0.00422154 0.00145718
vt 0.00443656 0.00095878
vt 0.00170778 0.00728355
vt 0.00155219 0.00764441
vt 0.00425426 0.17833440
vt 0.00095589 0.17829560
vt 0.00425420 0.18173340
vt 0.00094413 0.18169430
vt 0.62308870 0.68822790
vt 0.62433930 0.69387860
vt 0.62433930 0.68825720
vt 0.62308870 0.69384930
vt 0.62374880 0.69533990
vt 0.62171180 0.68823370
vt 0.62292700 0.69532050
vt 0.62171180 0.69385500
vt 0.62057730 0.68827310
vt 0.62202210 0.69532440
vt 0.62057730 0.69389440
vt 0.62127660 0.69535020
vt 0.21434330 0.72942630
vt 0.21541760 0.73507340
vt 0.21541760 0.72944650
vt 0.21434320 0.73505320
vt 0.21467730 0.73651380
vt 0.21297830 0.72942120
vt 0.21397130 0.73650050
vt 0.21297840 0.73504820
vt 0.21168850 0.72943280
vt 0.21307440 0.73649720
vt 0.21168840 0.73505980
vt 0.21222670 0.73650480
vt 0.72767100 0.72695760
vt 0.72890230 0.73259880
vt 0.72890230 0.72697170
vt 0.72767100 0.73258470
vt 0.72828990 0.73404190
vt 0.72629110 0.72695920
vt 0.72748080 0.73403260
vt 0.72629110 0.73258630
vt 0.72513220 0.72697620
vt 0.72657390 0.73403370
vt 0.72513220 0.73260330
vt 0.72581220 0.73404480
vt 0.24776990 0.72904900
vt 0.24884420 0.73469630
vt 0.24884420 0.72906930
vt 0.24776990 0.73467590
vt 0.24810410 0.73613660
vt 0.24640490 0.72904400
vt 0.24739800 0.73612320
vt 0.24640490 0.73467090
vt 0.24511510 0.72905550
vt 0.24650100 0.73612000
vt 0.24511500 0.73468250
vt 0.24565330 0.73612760
vt 0.38107330 0.74425200
vt 0.38152740 0.74503000
vt 0.38231380 0.74547920
vt 0.38107330 0.74335380
vt 0.38322190 0.74547920
vt 0.38152740 0.74257590
vt 0.38400840 0.74503000
vt 0.38231390 0.74212670
vt 0.38446240 0.74425200
vt 0.38322200 0.74212670
vt 0.38446240 0.74335380
vt 0.38400850 0.74257590
vt 0.29609610 0.76202010
vt 0.29285830 0.76141190
vt 0.29250460 0.76206860
vt 0.29624370 0.76136630
vt 0.30037260 0.76202010
vt 0.29286840 0.75986420
vt 0.30027460 0.76136620
vt 0.30418810 0.76206860
vt 0.30387100 0.76141200
vt 0.29624890 0.75981870
vt 0.29317410 0.71200660
vt 0.29640980 0.71196290
vt 0.30027420 0.75981860
vt 0.30386560 0.75986430
vt 0.30026270 0.71196280
vt 0.30370030 0.71200660
vt 0.02194794 0.72909810
vt 0.02566817 0.72970380
vt 0.02594513 0.72904750
vt 0.02190058 0.72975150
vt 0.01771798 0.72909810
vt 0.02566745 0.73125150
vt 0.01791354 0.72975140
vt 0.01438876 0.72904750
vt 0.01477550 0.72970380
vt 0.02190527 0.73129900
vt 0.02565173 0.77910780
vt 0.02205047 0.77915340
vt 0.01792374 0.73129900
vt 0.01479015 0.73125150
vt 0.01823960 0.77915340
vt 0.01524016 0.77910790
vt 0.31421860 0.72787700
vt 0.31736890 0.72841650
vt 0.31773460 0.72776970
vt 0.31405470 0.72851770
vt 0.30995130 0.72787700
vt 0.31735390 0.72996230
vt 0.31003250 0.72851760
vt 0.30607630 0.72776990
vt 0.30638010 0.72841650
vt 0.31404440 0.73006330
vt 0.31689340 0.77776470
vt 0.31372570 0.77786140
vt 0.31002780 0.73006330
vt 0.30638050 0.72996240
vt 0.30988110 0.77786140
vt 0.30639000 0.77776470
vt 0.11187420 0.72909810
vt 0.11559440 0.72970390
vt 0.11587130 0.72904750
vt 0.11182680 0.72975150
vt 0.10764420 0.72909810
vt 0.11559380 0.73125150
vt 0.10783970 0.72975150
vt 0.10431500 0.72904760
vt 0.10470160 0.72970390
vt 0.11183140 0.73129900
vt 0.11557770 0.77910790
vt 0.11197650 0.77915350
vt 0.10785000 0.73129910
vt 0.10471640 0.73125150
vt 0.10816560 0.77915350
vt 0.10516610 0.77910790
vt 0.20067170 0.74366410
vt 0.20452990 0.74366400
vt 0.20787120 0.74175580
vt 0.19733050 0.74175590
vt 0.20980020 0.73845080
vt 0.20980020 0.73463440
vt 0.19540140 0.73845080
vt 0.20787120 0.73132930
vt 0.19540140 0.73463450
vt 0.20452980 0.72942120
vt 0.19733040 0.73132940
vt 0.20067170 0.72942130
vt 0.56321860 0.86842440
vt 0.56326530 0.86892000
vt 0.57134880 0.86904790
vt 0.57130210 0.86855230
vt 0.58040930 0.86907610
vt 0.56267200 0.86263010
vt 0.58036260 0.86858040
vt 0.57075550 0.86275800
vt 0.56263820 0.86227120
vt 0.57981600 0.86278630
vt 0.57072170 0.86239920
vt 0.56325230 0.69162650
vt 0.57978220 0.86242740
vt 0.57133660 0.69175360
vt 0.56326450 0.68822790
vt 0.58039700 0.69176930
vt 0.57134880 0.68835490
vt 0.58040930 0.68837050
vt 0.13444900 0.69518380
vt 0.13503150 0.69303360
vt 0.12717410 0.68854610
vt 0.12659160 0.69069660
vt 0.11810120 0.68854610
vt 0.11751870 0.69069640
vt 0.13363920 0.69817330
vt 0.12578180 0.69368590
vt 0.11670890 0.69368590
vt 0.13184710 0.69994600
vt 0.12512580 0.69610760
vt 0.13572760 0.70659450
vt 0.13817560 0.70594560
vt 0.11736480 0.69610750
vt 0.10885150 0.69817320
vt 0.13572760 0.71427140
vt 0.13817560 0.71492030
vt 0.11064360 0.69994590
vt 0.10431500 0.70594550
vt 0.13184700 0.72091980
vt 0.13363910 0.72269250
vt 0.10676310 0.70659430
vt 0.10431500 0.71492010
vt 0.12512580 0.72475830
vt 0.12578170 0.72717980
vt 0.10676300 0.71427140
vt 0.10885140 0.72269240
vt 0.11736470 0.72475830
vt 0.11670880 0.72717980
vt 0.11064350 0.72091970
vt 0.12782500 0.71694130
vt 0.12365360 0.71932350
vt 0.11883690 0.71932360
vt 0.11466560 0.71694120
vt 0.11225730 0.71281510
vt 0.11225730 0.70805050
vt 0.13023330 0.71281520
vt 0.11466570 0.70392440
vt 0.13023330 0.70805060
vt 0.11883700 0.70154220
vt 0.12782500 0.70392450
vt 0.12365370 0.70154220
vt 0.11279550 0.70819320
vt 0.11279550 0.71267240
vt 0.11505960 0.70431420
vt 0.11898120 0.70207450
vt 0.11505960 0.71655150
vt 0.12350940 0.70207460
vt 0.12743100 0.70431430
vt 0.11898110 0.71879120
vt 0.12969510 0.70819340
vt 0.12350940 0.71879120
vt 0.12969510 0.71267250
vt 0.12743100 0.71655150
vt 0.60143740 0.85871980
vt 0.60143740 0.86211530
vt 0.60964820 0.86230780
vt 0.60964820 0.85891230
vt 0.60143740 0.68822790
vt 0.61868910 0.86226990
vt 0.60964820 0.68842040
vt 0.61868910 0.85887430
vt 0.61868910 0.68838240
vt 0.66460920 0.71642080
vt 0.66137900 0.72508970
vt 0.66695730 0.72508970
vt 0.65903070 0.71642080
vt 0.66695740 0.70775190
vt 0.66137890 0.70775190
vt 0.44689930 0.68902200
vt 0.44975970 0.68856070
vt 0.44690100 0.68852140
vt 0.44992470 0.68906370
vt 0.45181610 0.68858900
vt 0.44687890 0.69487440
vt 0.45202930 0.68909260
vt 0.45185500 0.69494290
vt 0.44687770 0.69523690
vt 0.45452250 0.69497960
vt 0.45197450 0.69530700
vt 0.45467690 0.69534420
vt 0.45467690 0.86602190
vt 0.45138170 0.86596800
vt 0.45467690 0.86942110
vt 0.45136980 0.86936690
vt 0.38704280 0.68580010
vt 0.38342000 0.68580000
vt 0.38107330 0.69446920
vt 0.38469450 0.69446890
vt 0.38342310 0.70313760
vt 0.38704280 0.70313780
vt 0.66236270 0.74601820
vt 0.66098820 0.74992810
vt 0.66241670 0.75019910
vt 0.66093710 0.74597420
vt 0.66236270 0.74159390
vt 0.66093720 0.74179000
vt 0.66241670 0.73811160
vt 0.66098830 0.73849680
vt 0.28684560 0.74649180
vt 0.28827450 0.74617900
vt 0.28832340 0.74240480
vt 0.28689740 0.74250080
vt 0.28832340 0.73817470
vt 0.28689740 0.73802780
vt 0.28827440 0.73462210
vt 0.28684560 0.73427120
vt 0.21990350 0.73838160
vt 0.21847510 0.73876680
vt 0.21842400 0.74206000
vt 0.21984950 0.74186380
vt 0.21842400 0.74624410
vt 0.21984950 0.74628820
vt 0.21847500 0.75019800
vt 0.21990350 0.75046900
vt 0.73231700 0.72695760
vt 0.73089900 0.72725470
vt 0.73079060 0.73108780
vt 0.73220240 0.73101070
vt 0.73079060 0.73530880
vt 0.73220240 0.73547410
vt 0.73089900 0.73878680
vt 0.73231700 0.73915180
vt 0.48481410 0.73026720
vt 0.48636280 0.73179890
vt 0.48755940 0.73111550
vt 0.48699260 0.72902300
vt 0.48355640 0.73242210
vt 0.48894130 0.73111550
vt 0.48567180 0.73298270
vt 0.48950820 0.72902300
vt 0.48355640 0.73491040
vt 0.49013810 0.73179890
vt 0.48567180 0.73434960
vt 0.49168660 0.73026700
vt 0.48481410 0.73706530
vt 0.49082900 0.73298270
vt 0.48636280 0.73553340
vt 0.49294440 0.73242190
vt 0.48699270 0.73830930
vt 0.49082900 0.73434950
vt 0.48755950 0.73621680
vt 0.49294440 0.73491020
vt 0.48950820 0.73830930
vt 0.49013810 0.73553340
vt 0.48894140 0.73621680
vt 0.49168670 0.73706520
f 3/3/3 2/2/2 1/1/1
f 4/4/4 3/3/3 1/1/1
f 5/5/5 3/3/3 4/4/4
f 4/4/4 1/1/1 6/6/6
f 7/7/7 5/5/5 4/4/4
f 8/8/8 5/5/5 7/7/7
f 9/9/9 8/8/8 7/7/7
f 10/10/10 4/4/4 6/6/6
f 7/7/7 4/4/4 10/10/10
f 9/9/9 7/7/7 11/11/11
f 11/11/11 7/7/7 10/10/10
f 12/12/12 9/9/9 11/11/11
f 13/13/13 12/12/12 11/11/11
f 14/14/14 13/13/13 11/11/11
f 14/14/14 11/11/11 10/10/10
f 15/15/15 13/13/13 14/14/14
f 16/16/16 10/10/10 6/6/6
f 16/16/16 14/14/14 10/10/10
f 17/17/17 16/16/16 6/6/6
f 18/18/18 15/15/15 14/14/14
f 18/18/18 14/14/14 16/16/16
f 19/19/19 16/16/16 17/17/17
f 19/19/19 18/18/18 16/16/16
f 20/20/20 19/19/19 17/17/17
f 20/20/20 21/21/21 19/19/19
f 21/21/21 22/22/22 19/19/19
f 19/19/19 22/22/22 18/18/18
f 21/21/21 23/23/23 22/22/22
f 18/18/18 24/24/24 15/15/15
f 22/22/22 24/24/24 18/18/18
f 24/24/24 25/25/25 15/15/15
f 23/23/23 26/26/26 22/22/22
f 22/22/22 26/26/26 24/24/24
f 23/23/23 27/27/27 26/26/26
f 24/24/24 28/28/28 25/25/25
f 26/26/26 28/28/28 24/24/24
f 28/28/28 29/29/29 25/25/25
f 27/27/27 30/30/30 26/26/26
f 27/27/27 31/31/31 30/30/30
f 31/31/31 32/32/32 30/30/30
f 31/31/31 33/33/33 32/32/32
f 33/33/33 34/34/34 32/32/32
f 37/37/37 36/36/36 35/35/35
f 38/38/38 37/37/37 35/35/35
f 39/39/39 37/37/37 38/38/38
f 38/38/38 35/35/35 40/40/40
f 41/41/41 39/39/39 38/38/38
f 42/42/42 39/39/39 41/41/41
f 43/43/43 42/42/42 41/41/41
f 44/44/44 38/38/38 40/40/40
f 41/41/41 38/38/38 44/44/44
f 43/43/43 41/41/41 45/45/45
f 45/45/45 41/41/41 44/44/44
f 46/46/46 43/43/43 45/45/45
f 47/47/47 46/46/46 45/45/45
f 48/48/48 47/47/47 45/45/45
f 48/48/48 45/45/45 44/44/44
f 49/49/49 47/47/47 48/48/48
f 50/50/50 44/44/44 40/40/40
f 50/50/50 48/48/48 44/44/44
f 51/51/51 50/50/50 40/40/40
f 52/52/52 49/49/49 48/48/48
f 52/52/52 48/48/48 50/50/50
f 53/53/53 50/50/50 51/51/51
f 53/53/53 52/52/52 50/50/50
f 54/54/54 53/53/53 51/51/51
f 54/54/54 55/55/55 53/53/53
f 55/55/55 56/56/56 53/53/53
f 53/53/53 56/56/56 52/52/52
f 55/55/55 57/57/57 56/56/56
f 52/52/52 58/58/58 49/49/49
f 56/56/56 58/58/58 52/52/52
f 58/58/58 59/59/59 49/49/49
f 57/57/57 60/60/60 56/56/56
f 56/56/56 60/60/60 58/58/58
f 57/57/57 61/61/61 60/60/60
f 58/58/58 62/62/62 59/59/59
f 60/60/60 62/62/62 58/58/58
f 62/62/62 63/63/63 59/59/59
f 61/61/61 64/64/64 60/60/60
f 60/60/60 64/64/64 62/62/62
f 61/61/61 65/65/65 64/64/64
f 62/62/62 66/66/66 63/63/63
f 64/64/64 66/66/66 62/62/62
f 66/66/66 67/67/67 63/63/63
f 65/65/65 68/68/68 64/64/64
f 64/64/64 68/68/68 66/66/66
f 65/65/65 69/69/69 68/68/68
f 69/69/69 70/70/70 68/68/68
f 66/66/66 71/71/71 67/67/67
f 68/68/68 71/71/71 66/66/66
f 68/68/68 70/70/70 71/71/71
f 71/71/71 72/72/72 67/67/67
f 70/70/70 73/73/73 71/71/71
f 71/71/71 73/73/73 72/72/72
f 73/73/73 74/74/74 72/72/72
f 77/77/77 76/76/76 75/75/75
f 78/78/78 77/77/77 75/75/75
f 79/79/79 77/77/77 78/78/78
f 78/78/78 75/75/75 80/80/80
f 81/81/81 79/79/79 78/78/78
f 82/82/82 79/79/79 81/81/81
f 83/83/83 82/82/82 81/81/81
f 84/84/84 78/78/78 80/80/80
f 81/81/81 78/78/78 84/84/84
f 83/83/83 81/81/81 85/85/85
f 85/85/85 81/81/81 84/84/84
f 86/86/86 83/83/83 85/85/85
f 87/87/87 86/86/86 85/85/85
f 88/88/88 87/87/87 85/85/85
f 88/88/88 85/85/85 84/84/84
f 89/89/89 87/87/87 88/88/88
f 90/90/90 84/84/84 80/80/80
f 90/90/90 88/88/88 84/84/84
f 91/91/91 90/90/90 80/80/80
f 92/92/92 89/89/89 88/88/88
f 92/92/92 88/88/88 90/90/90
f 93/93/93 90/90/90 91/91/91
f 93/93/93 92/92/92 90/90/90
f 94/94/94 93/93/93 91/91/91
f 94/94/94 95/95/95 93/93/93
f 95/95/95 96/96/96 93/93/93
f 93/93/93 96/96/96 92/92/92
f 95/95/95 97/97/97 96/96/96
f 92/92/92 98/98/98 89/89/89
f 96/96/96 98/98/98 92/92/92
f 98/98/98 99/99/99 89/89/89
f 97/97/97 100/100/100 96/96/96
f 96/96/96 100/100/100 98/98/98
f 97/97/97 101/101/101 100/100/100
f 98/98/98 102/102/102 99/99/99
f 100/100/100 102/102/102 98/98/98
f 102/102/102 103/103/103 99/99/99
f 101/101/101 104/104/104 100/100/100
f 100/100/100 104/104/104 102/102/102
f 101/101/101 105/105/105 104/104/104
f 102/102/102 106/106/106 103/103/103
f 104/104/104 106/106/106 102/102/102
f 106/106/106 107/107/107 103/103/103
f 105/105/105 108/108/108 104/104/104
f 104/104/104 108/108/108 106/106/106
f 105/105/105 109/109/109 108/108/108
f 109/109/109 110/110/110 108/108/108
f 106/106/106 111/111/111 107/107/107
f 108/108/108 111/111/111 106/106/106
f 108/108/108 110/110/110 111/111/111
f 111/111/111 112/112/112 107/107/107
f 110/110/110 113/113/113 111/111/111
f 111/111/111 113/113/113 112/112/112
f 113/113/113 114/114/114 112/112/112
f 117/117/117 116/116/116 115/115/115
f 118/118/118 117/117/117 115/115/115
f 119/119/119 117/117/117 118/118/118
f 118/118/118 115/115/115 120/120/120
f 121/121/121 119/119/119 118/118/118
f 122/122/122 119/119/119 121/121/121
f 123/123/123 122/122/122 121/121/121
f 124/124/124 118/118/118 120/120/120
f 121/121/121 118/118/118 124/124/124
f 123/123/123 121/121/121 125/125/125
f 125/125/125 121/121/121 124/124/124
f 126/126/126 123/123/123 125/125/125
f 127/127/127 126/126/126 125/125/125
f 128/128/128 127/127/127 125/125/125
f 128/128/128 125/125/125 124/124/124
f 129/129/129 127/127/127 128/128/128
f 130/130/130 124/124/124 120/120/120
f 130/130/130 128/128/128 124/124/124
f 131/131/131 130/130/130 120/120/120
f 132/132/132 129/129/129 128/128/128
f 132/132/132 128/128/128 130/130/130
f 133/133/133 130/130/130 131/131/131
f 133/133/133 132/132/132 130/130/130
f 134/134/134 133/133/133 131/131/131
f 134/134/134 135/135/135 133/133/133
f 135/135/135 136/136/136 133/133/133
f 133/133/133 136/136/136 132/132/132
f 135/135/135 137/137/137 136/136/136
f 132/132/132 138/138/138 129/129/129
f 136/136/136 138/138/138 132/132/132
f 138/138/138 139/139/139 129/129/129
f 137/137/137 140/140/140 136/136/136
f 136/136/136 140/140/140 138/138/138
f 138/138/138 141/141/141 139/139/139
f 140/140/140 141/141/141 138/138/138
f 141/141/141 142/142/142 139/139/139
f 137/137/137 143/143/143 140/140/140
f 137/137/137 144/144/144 143/143/143
f 141/141/141 145/145/145 142/142/142
f 145/145/145 146/146/146 142/142/142
f 140/140/140 147/147/147 141/141/141
f 143/143/143 147/147/147 140/140/140
f 147/147/147 145/145/145 141/141/141
f 145/145/145 148/148/148 146/146/146
f 148/148/148 149/149/149 146/146/146
f 147/147/147 150/150/150 145/145/145
f 150/150/150 148/148/148 145/145/145
f 148/148/148 151/151/151 149/149/149
f 151/151/151 152/152/152 149/149/149
f 153/153/153 151/151/151 148/148/148
f 150/150/150 153/153/153 148/148/148
f 154/154/154 153/153/153 150/150/150
f 155/155/155 150/150/150 147/147/147
f 143/143/143 155/155/155 147/147/147
f 155/155/155 154/154/154 150/150/150
f 143/143/143 156/156/156 155/155/155
f 144/144/144 156/156/156 143/143/143
f 155/155/155 157/157/157 154/154/154
f 156/156/156 157/157/157 155/155/155
f 157/157/157 158/158/158 154/154/154
f 157/157/157 159/159/159 158/158/158
f 159/159/159 160/160/160 158/158/158
f 161/161/161 159/159/159 157/157/157
f 156/156/156 161/161/161 157/157/157
f 162/162/162 161/161/161 156/156/156
f 144/144/144 162/162/162 156/156/156
f 144/144/144 163/163/163 162/162/162
f 163/163/163 164/164/164 162/162/162
f 163/163/163 165/165/165 164/164/164
f 165/165/165 166/166/166 164/164/164
f 169/169/169 168/168/168 167/167/167
f 168/168/168 170/170/170 167/167/167
f 168/168/168 171/171/171 170/170/170
f 167/167/167 170/170/170 172/172/172
f 171/171/171 173/173/173 170/170/170
f 170/170/170 174/174/174 172/172/172
f 170/170/170 173/173/173 174/174/174
f 172/172/172 174/174/174 175/175/175
f 173/173/173 176/176/176 174/174/174
f 174/174/174 177/177/177 175/175/175
f 174/174/174 176/176/176 177/177/177
f 176/176/176 178/178/178 177/177/177
f 181/181/181 180/180/180 179/179/179
f 180/180/180 182/182/182 179/179/179
f 180/180/180 183/183/183 182/182/182
f 179/179/179 182/182/182 184/184/184
f 183/183/183 185/185/185 182/182/182
f 182/182/182 186/186/186 184/184/184
f 182/182/182 185/185/185 186/186/186
f 184/184/184 186/186/186 187/187/187
f 185/185/185 188/188/188 186/186/186
f 186/186/186 189/189/189 187/187/187
f 186/186/186 188/188/188 189/189/189
f 188/188/188 190/190/190 189/189/189
f 193/193/193 192/192/192 191/191/191
f 192/192/192 194/194/194 191/191/191
f 192/192/192 195/195/195 194/194/194
f 191/191/191 194/194/194 196/196/196
f 195/195/195 197/197/197 194/194/194
f 194/194/194 198/198/198 196/196/196
f 194/194/194 197/197/197 198/198/198
f 196/196/196 198/198/198 199/199/199
f 197/197/197 200/200/200 198/198/198
f 198/198/198 201/201/201 199/199/199
f 198/198/198 200/200/200 201/201/201
f 200/200/200 202/202/202 201/201/201
f 205/205/205 204/204/204 203/203/203
f 204/204/204 206/206/206 203/203/203
f 204/204/204 207/207/207 206/206/206
f 203/203/203 206/206/206 208/208/208
f 207/207/207 209/209/209 206/206/206
f 206/206/206 210/210/210 208/208/208
f 206/206/206 209/209/209 210/210/210
f 208/208/208 210/210/210 211/211/211
f 209/209/209 212/212/212 210/210/210
f 210/210/210 213/213/213 211/211/211
f 210/210/210 212/212/212 213/213/213
f 212/212/212 214/214/214 213/213/213
f 217/217/217 216/216/216 215/215/215
f 215/215/215 218/218/218 217/217/217
f 218/218/218 219/219/219 217/217/217
f 218/218/218 220/220/220 219/219/219
f 220/220/220 221/221/221 219/219/219
f 220/220/220 222/222/222 221/221/221
f 222/222/222 223/223/223 221/221/221
f 222/222/222 224/224/224 223/223/223
f 224/224/224 225/225/225 223/223/223
f 224/224/224 226/226/226 225/225/225
f 229/229/229 228/228/228 227/227/227
f 228/228/228 230/230/230 227/227/227
f 227/227/227 230/230/230 231/231/231
f 228/228/228 232/232/232 230/230/230
f 230/230/230 233/233/233 231/231/231
f 231/231/231 233/233/233 234/234/234
f 233/233/233 235/235/235 234/234/234
f 232/232/232 236/236/236 230/230/230
f 230/230/230 236/236/236 233/233/233
f 232/232/232 237/237/237 236/236/236
f 237/237/237 238/238/238 236/236/236
f 233/233/233 239/239/239 235/235/235
f 236/236/236 239/239/239 233/233/233
f 236/236/236 238/238/238 239/239/239
f 239/239/239 240/240/240 235/235/235
f 238/238/238 241/241/241 239/239/239
f 239/239/239 241/241/241 240/240/240
f 241/241/241 242/242/242 240/240/240
f 245/245/245 244/244/244 243/243/243
f 244/244/244 246/246/246 243/243/243
f 243/243/243 246/246/246 247/247/247
f 244/244/244 248/248/248 246/246/246
f 246/246/246 249/249/249 247/247/247
f 247/247/247 249/249/249 250/250/250
f 249/249/249 251/251/251 250/250/250
f 248/248/248 252/252/252 246/246/246
f 246/246/246 252/252/252 249/249/249
f 248/248/248 253/253/253 252/252/252
f 253/253/253 254/254/254 252/252/252
f 249/249/249 255/255/255 251/251/251
f 252/252/252 255/255/255 249/249/249
f 252/252/252 254/254/254 255/255/255
f 255/255/255 256/256/256 251/251/251
f 254/254/254 257/257/257 255/255/255
f 255/255/255 257/257/257 256/256/256
f 257/257/257 258/258/258 256/256/256
f 261/261/261 260/260/260 259/259/259
f 260/260/260 262/262/262 259/259/259
f 259/259/259 262/262/262 263/263/263
f 260/260/260 264/264/264 262/262/262
f 262/262/262 265/265/265 263/263/263
f 263/263/263 265/265/265 266/266/266
f 265/265/265 267/267/267 266/266/266
f 264/264/264 268/268/268 262/262/262
f 262/262/262 268/268/268 265/265/265
f 264/264/264 269/269/269 268/268/268
f 269/269/269 270/270/270 268/268/268
f 265/265/265 271/271/271 267/267/267
f 268/268/268 271/271/271 265/265/265
f 268/268/268 270/270/270 271/271/271
f 271/271/271 272/272/272 267/267/267
f 270/270/270 273/273/273 271/271/271
f 271/271/271 273/273/273 272/272/272
f 273/273/273 274/274/274 272/272/272
f 277/277/277 276/276/276 275/275/275
f 276/276/276 278/278/278 275/275/275
f 275/275/275 278/278/278 279/279/279
f 276/276/276 280/280/280 278/278/278
f 278/278/278 281/281/281 279/279/279
f 279/279/279 281/281/281 282/282/282
f 281/281/281 283/283/283 282/282/282
f 280/280/280 284/284/284 278/278/278
f 278/278/278 284/284/284 281/281/281
f 280/280/280 285/285/285 284/284/284
f 285/285/285 286/286/286 284/284/284
f 281/281/281 287/287/287 283/283/283
f 284/284/284 287/287/287 281/281/281
f 284/284/284 286/286/286 287/287/287
f 287/287/287 288/288/288 283/283/283
f 286/286/286 289/289/289 287/287/287
f 287/287/287 289/289/289 288/288/288
f 289/289/289 290/290/290 288/288/288
f 293/293/293 292/292/292 291/291/291
f 291/291/291 294/294/294 293/293/293
f 294/294/294 295/295/295 293/293/293
f 294/294/294 296/296/296 295/295/295
f 294/294/294 297/297/297 296/296/296
f 297/297/297 298/298/298 296/296/296
f 297/297/297 299/299/299 298/298/298
f 299/299/299 300/300/300 298/298/298
f 299/299/299 301/301/301 300/300/300
f 301/301/301 302/302/302 300/300/300
f 305/305/305 304/304/304 303/303/303
f 306/306/306 305/305/305 303/303/303
f 307/307/307 305/305/305 306/306/306
f 306/306/306 303/303/303 308/308/308
f 309/309/309 307/307/307 306/306/306
f 310/310/310 306/306/306 308/308/308
f 309/309/309 306/306/306 310/310/310
f 310/310/310 308/308/308 311/311/311
f 312/312/312 309/309/309 310/310/310
f 313/313/313 310/310/310 311/311/311
f 312/312/312 310/310/310 313/313/313
f 311/311/311 314/314/314 313/313/313
f 315/315/315 312/312/312 313/313/313
f 314/314/314 316/316/316 313/313/313
f 313/313/313 316/316/316 315/315/315
f 314/314/314 317/317/317 316/316/316
f 316/316/316 318/318/318 315/315/315
f 317/317/317 319/319/319 316/316/316
f 316/316/316 319/319/319 318/318/318
f 319/319/319 320/320/320 318/318/318
f 323/323/323 322/322/322 321/321/321
f 324/324/324 323/323/323 321/321/321
f 325/325/325 323/323/323 324/324/324
f 326/326/326 325/325/325 324/324/324
f 324/324/324 321/321/321 327/327/327
f 326/326/326 324/324/324 328/328/328
f 328/328/328 324/324/324 327/327/327
f 329/329/329 326/326/326 328/328/328
f 327/327/327 330/330/330 328/328/328
f 328/328/328 331/331/331 329/329/329
f 330/330/330 331/331/331 328/328/328
f 332/332/332 330/330/330 327/327/327
f 333/333/333 332/332/332 327/327/327
f 331/331/331 334/334/334 329/329/329
f 329/329/329 334/334/334 335/335/335
f 336/336/336 332/332/332 333/333/333
f 337/337/337 336/336/336 333/333/333
f 334/334/334 338/338/338 335/335/335
f 335/335/335 338/338/338 339/339/339
f 340/340/340 336/336/336 337/337/337
f 341/341/341 340/340/340 337/337/337
f 338/338/338 342/342/342 339/339/339
f 339/339/339 342/342/342 343/343/343
f 344/344/344 340/340/340 341/341/341
f 345/345/345 344/344/344 341/341/341
f 342/342/342 346/346/346 343/343/343
f 343/343/343 346/346/346 347/347/347
f 348/348/348 344/344/344 345/345/345
f 349/349/349 348/348/348 345/345/345
f 347/347/347 350/350/350 349/349/349
f 346/346/346 350/350/350 347/347/347
f 350/350/350 348/348/348 349/349/349
f 340/340/340 351/351/351 336/336/336
f 344/344/344 352/352/352 340/340/340
f 352/352/352 351/351/351 340/340/340
f 348/348/348 353/353/353 344/344/344
f 353/353/353 352/352/352 344/344/344
f 350/350/350 354/354/354 348/348/348
f 354/354/354 353/353/353 348/348/348
f 346/346/346 355/355/355 350/350/350
f 355/355/355 354/354/354 350/350/350
f 342/342/342 356/356/356 346/346/346
f 356/356/356 355/355/355 346/346/346
f 351/351/351 357/357/357 336/336/336
f 336/336/336 357/357/357 332/332/332
f 358/358/358 356/356/356 342/342/342
f 338/338/338 358/358/358 342/342/342
f 357/357/357 359/359/359 332/332/332
f 332/332/332 359/359/359 330/330/330
f 360/360/360 358/358/358 338/338/338
f 334/334/334 360/360/360 338/338/338
f 359/359/359 361/361/361 330/330/330
f 330/330/330 361/361/361 331/331/331
f 331/331/331 362/362/362 334/334/334
f 362/362/362 360/360/360 334/334/334
f 361/361/361 362/362/362 331/331/331
f 356/356/356 363/363/363 355/355/355
f 363/363/363 364/364/364 355/355/355
f 365/365/365 363/363/363 356/356/356
f 358/358/358 365/365/365 356/356/356
f 355/355/355 364/364/364 354/354/354
f 366/366/366 365/365/365 358/358/358
f 360/360/360 366/366/366 358/358/358
f 364/364/364 367/367/367 354/354/354
f 368/368/368 366/366/366 360/360/360
f 362/362/362 368/368/368 360/360/360
f 354/354/354 367/367/367 353/353/353
f 369/369/369 368/368/368 362/362/362
f 361/361/361 369/369/369 362/362/362
f 367/367/367 370/370/370 353/353/353
f 371/371/371 369/369/369 361/361/361
f 353/353/353 370/370/370 352/352/352
f 359/359/359 371/371/371 361/361/361
f 370/370/370 372/372/372 352/352/352
f 373/373/373 371/371/371 359/359/359
f 352/352/352 372/372/372 351/351/351
f 357/357/357 373/373/373 359/359/359
f 372/372/372 374/374/374 351/351/351
f 374/374/374 373/373/373 357/357/357
f 351/351/351 374/374/374 357/357/357
f 377/377/377 376/376/376 375/375/375
f 378/378/378 377/377/377 375/375/375
f 378/378/378 375/375/375 379/379/379
f 380/380/380 377/377/377 378/378/378
f 381/381/381 378/378/378 379/379/379
f 382/382/382 380/380/380 378/378/378
f 382/382/382 378/378/378 381/381/381
f 383/383/383 382/382/382 381/381/381
f 386/386/386 385/385/385 384/384/384
f 385/385/385 387/387/387 384/384/384
f 384/384/384 387/387/387 388/388/388
f 387/387/387 389/389/389 388/388/388
f 392/392/392 391/391/391 390/390/390
f 391/391/391 393/393/393 390/390/390
f 391/391/391 394/394/394 393/393/393
f 390/390/390 393/393/393 395/395/395
f 394/394/394 396/396/396 393/393/393
f 393/393/393 397/397/397 395/395/395
f 393/393/393 396/396/396 397/397/397
f 395/395/395 397/397/397 398/398/398
f 396/396/396 399/399/399 397/397/397
f 397/397/397 400/400/400 398/398/398
f 397/397/397 399/399/399 400/400/400
f 399/399/399 401/401/401 400/400/400
f 401/401/401 402/402/402 400/400/400
f 402/402/402 403/403/403 400/400/400
f 402/402/402 404/404/404 403/403/403
f 404/404/404 405/405/405 403/403/403
f 408/408/408 407/407/407 406/406/406
f 409/409/409 408/408/408 406/406/406
f 410/410/410 408/408/408 409/409/409
f 411/411/411 410/410/410 409/409/409
f 414/414/414 413/413/413 412/412/412
f 413/413/413 415/415/415 412/412/412
f 412/412/412 415/415/415 416/416/416
f 415/415/415 417/417/417 416/416/416
f 416/416/416 417/417/417 418/418/418
f 417/417/417 419/419/419 418/418/418
f 422/422/422 421/421/421 420/420/420
f 423/423/423 422/422/422 420/420/420
f 424/424/424 422/422/422 423/423/423
f 425/425/425 424/424/424 423/423/423
f 426/426/426 424/424/424 425/425/425
f 427/427/427 426/426/426 425/425/425
f 430/430/430 429/429/429 428/428/428
f 431/431/431 430/430/430 428/428/428
f 432/432/432 430/430/430 431/431/431
f 433/433/433 432/432/432 431/431/431
f 434/434/434 432/432/432 433/433/433
f 435/435/435 434/434/434 433/433/433
f 438/438/438 437/437/437 436/436/436
f 439/439/439 438/438/438 436/436/436
f 440/440/440 438/438/438 439/439/439
f 441/441/441 440/440/440 439/439/439
f 442/442/442 440/440/440 441/441/441
f 443/443/443 442/442/442 441/441/441
f 446/446/446 445/445/445 444/444/444
f 447/447/447 446/446/446 444/444/444
f 444/444/444 445/445/445 448/448/448
f 449/449/449 446/446/446 447/447/447
f 445/445/445 450/450/450 448/448/448
f 451/451/451 449/449/449 447/447/447
f 448/448/448 450/450/450 452/452/452
f 453/453/453 449/449/449 451/451/451
f 450/450/450 454/454/454 452/452/452
f 455/455/455 453/453/453 451/451/451
f 452/452/452 454/454/454 456/456/456
f 457/457/457 453/453/453 455/455/455
f 454/454/454 458/458/458 456/456/456
f 459/459/459 457/457/457 455/455/455
f 456/456/456 458/458/458 460/460/460
f 461/461/461 457/457/457 459/459/459
f 458/458/458 462/462/462 460/460/460
f 463/463/463 461/461/461 459/459/459
f 460/460/460 462/462/462 464/464/464
f 465/465/465 461/461/461 463/463/463
f 462/462/462 466/466/466 464/464/464
f 467/467/467 465/465/465 463/463/463
f 464/464/464 466/466/466 467/467/467
f 466/466/466 465/465/465 467/467/467

