mtllib material.mtl
usemtl material_0
v -0.08502810 -0.00373610 0.00160232
v -0.09996215 -0.00106984 0.00006296
v -0.09996215 -0.00061768 0.00051511
v -0.08502810 -0.00215703 0.00318140
v -0.09996215 -0.00000002 0.00068063
v -0.08447114 -0.00385862 0.00167307
v -0.08502810 0.00000000 0.00375937
v -0.09996215 0.00061765 0.00051511
v -0.08502810 0.00215704 0.00318140
v -0.08447114 -0.00222777 0.00330393
v -0.08447114 0.00000001 0.00390085
v -0.08447114 0.00222778 0.00330393
v 0.07375062 0.00222779 0.00330393
v 0.07375067 0.00000001 0.00390085
v 0.07430866 0.00222779 0.00330393
v 0.07375067 -0.00222777 0.00330393
v 0.07375067 -0.00385862 0.00167307
v 0.07430872 0.00000001 0.00390085
v 0.07430872 -0.00222777 0.00330393
v 0.07430872 -0.00385862 0.00167307
v 0.07440457 -0.00379902 0.00163867
v 0.07440457 -0.00219336 0.00324432
v 0.07450044 -0.00385862 0.00167307
v 0.07440457 0.00000001 0.00383203
v 0.07440453 0.00219338 0.00324432
v 0.07450044 -0.00222777 0.00330393
v 0.07459361 -0.00385862 0.00167307
v 0.07450044 0.00000001 0.00390085
v 0.07450038 0.00222779 0.00330393
v 0.07459361 -0.00222777 0.00330393
v 0.07609802 -0.00385861 0.00167307
v 0.07609802 -0.00222777 0.00330393
v 0.07622672 -0.00385861 0.00167307
v 0.07622672 -0.00222777 0.00330393
v -0.08502810 -0.00215703 -0.00429080
v -0.09996215 -0.00061768 -0.00162454
v -0.09996215 -0.00106984 -0.00117236
v -0.08502810 -0.00373609 -0.00271173
v -0.09996215 -0.00123534 -0.00055472
v -0.08447114 -0.00222777 -0.00441333
v -0.08502806 -0.00431407 -0.00055472
v -0.09996215 -0.00106984 0.00006296
v -0.08502810 -0.00373610 0.00160232
v -0.08447114 -0.00385862 -0.00278247
v -0.08447108 -0.00445555 -0.00055472
v -0.08447114 -0.00385862 0.00167307
v 0.07375067 -0.00385862 0.00167307
v 0.07375067 -0.00445555 -0.00055472
v 0.07430872 -0.00385862 0.00167307
v 0.07375067 -0.00385862 -0.00278247
v 0.07375067 -0.00222777 -0.00441333
v 0.07430872 -0.00445555 -0.00055472
v 0.07430872 -0.00385862 -0.00278247
v 0.07430872 -0.00222777 -0.00441333
v 0.07440457 -0.00219336 -0.00435373
v 0.07440457 -0.00379902 -0.00274808
v 0.07450044 -0.00222777 -0.00441333
v 0.07440457 -0.00438673 -0.00055472
v 0.07440457 -0.00379902 0.00163867
v 0.07450044 -0.00385862 -0.00278247
v 0.07459361 -0.00222777 -0.00441333
v 0.07450044 -0.00445555 -0.00055472
v 0.07450044 -0.00385862 0.00167307
v 0.07459361 -0.00385862 -0.00278247
v 0.07609802 -0.00222776 -0.00441333
v 0.07459361 -0.00445555 -0.00055472
v 0.07459361 -0.00385862 0.00167307
v 0.07609802 -0.00385861 -0.00278247
v 0.07622672 -0.00222776 -0.00441333
v 0.07622672 -0.00385861 -0.00278247
v 0.07609802 -0.00445554 -0.00055472
v 0.07609802 -0.00385861 0.00167307
v 0.07622672 -0.00445554 -0.00055472
v 0.07622672 -0.00385861 0.00167307
v -0.08502810 0.00373611 -0.00271173
v -0.09996215 0.00106981 -0.00117236
v -0.09996215 0.00061765 -0.00162454
v -0.08502810 0.00215705 -0.00429080
v -0.09996215 -0.00000002 -0.00179004
v -0.08447114 0.00385864 -0.00278247
v -0.08502810 0.00000001 -0.00486877
v -0.09996215 -0.00061768 -0.00162454
v -0.08502810 -0.00215703 -0.00429080
v -0.08447114 0.00222779 -0.00441333
v -0.08447114 0.00000001 -0.00501025
v -0.08447114 -0.00222777 -0.00441333
v 0.07375067 -0.00222777 -0.00441333
v 0.07375062 0.00000001 -0.00501025
v 0.07430872 -0.00222777 -0.00441333
v 0.07375062 0.00222779 -0.00441333
v 0.07375062 0.00385864 -0.00278247
v 0.07430866 0.00000001 -0.00501025
v 0.07430866 0.00222779 -0.00441333
v 0.07430866 0.00385864 -0.00278247
v 0.07440453 0.00379903 -0.00274808
v 0.07440453 0.00219338 -0.00435373
v 0.07450038 0.00385864 -0.00278247
v 0.07440453 0.00000001 -0.00494144
v 0.07440457 -0.00219336 -0.00435373
v 0.07450038 0.00222779 -0.00441333
v 0.07459355 0.00385864 -0.00278247
v 0.07450038 0.00000001 -0.00501025
v 0.07450044 -0.00222777 -0.00441333
v 0.07459355 0.00222779 -0.00441333
v 0.07609797 0.00385864 -0.00278247
v 0.07459355 0.00000001 -0.00501025
v 0.07459361 -0.00222777 -0.00441333
v 0.07609797 0.00222779 -0.00441333
v 0.07622667 0.00385864 -0.00278247
v 0.07622667 0.00222779 -0.00441333
v 0.07609797 0.00000002 -0.00501025
v 0.07609802 -0.00222776 -0.00441333
v 0.07622667 0.00000002 -0.00501025
v 0.07622672 -0.00222776 -0.00441333
v -0.08502810 0.00215704 0.00318140
v -0.09996215 0.00061765 0.00051511
v -0.09996215 0.00106981 0.00006296
v -0.08502810 0.00373611 0.00160232
v -0.09996215 0.00123531 -0.00055472
v -0.08447114 0.00222778 0.00330393
v -0.08502810 0.00431408 -0.00055472
v -0.09996215 0.00106981 -0.00117236
v -0.08502810 0.00373611 -0.00271173
v -0.08447114 0.00385863 0.00167307
v -0.08447114 0.00445557 -0.00055472
v -0.08447114 0.00385864 -0.00278247
v 0.07375062 0.00385864 -0.00278247
v 0.07375062 0.00445557 -0.00055472
v 0.07430866 0.00385864 -0.00278247
v 0.07375062 0.00385863 0.00167307
v 0.07375062 0.00222779 0.00330393
v 0.07430866 0.00445557 -0.00055472
v 0.07430866 0.00385863 0.00167307
v 0.07430866 0.00222779 0.00330393
v 0.07440453 0.00219338 0.00324432
v 0.07440453 0.00379903 0.00163867
v 0.07450038 0.00222779 0.00330393
v 0.07440453 0.00438674 -0.00055472
v 0.07440453 0.00379903 -0.00274808
v 0.07450038 0.00385863 0.00167307
v 0.07450038 0.00445557 -0.00055472
v 0.07450038 0.00385864 -0.00278247
v 0.07459355 0.00222779 0.00330393
v 0.07450038 0.00222779 0.00472198
v 0.07459355 0.00445557 -0.00055472
v 0.07459355 0.00385864 -0.00278247
v 0.07459355 0.00385863 0.00167307
v 0.07609797 0.00445557 -0.00055472
v 0.07609797 0.00385864 -0.00278247
v 0.07609797 0.00385864 0.00167307
v 0.07622667 0.00445557 -0.00055472
v 0.07622667 0.00385864 -0.00278247
v 0.07622667 0.00385864 0.00167307
v 0.07622667 0.00222779 0.00330393
v 0.07609797 0.00222779 0.00330393
v 0.07459355 0.00222779 0.00468838
v 0.07609797 0.00222779 0.00414569
v 0.07622667 0.00222779 0.00409927
v 0.07609797 0.00222779 0.00473123
v 0.07622667 0.00222779 0.00467139
v 0.07459355 0.00222778 0.00543054
v 0.07450038 0.00222778 0.00547385
v 0.03063035 0.00222752 0.00472198
v 0.03063155 0.00222755 0.00563962
v 0.02975662 0.00222751 0.00472198
v 0.02975785 0.00222755 0.00564291
v -0.09996215 -0.00000002 -0.00123331
v -0.10140860 -0.00033933 -0.00114240
v -0.09996215 -0.00033932 -0.00114240
v -0.10140860 -0.00000002 -0.00123331
v -0.10177560 -0.00022300 -0.00094092
v -0.09996215 0.00033929 -0.00114240
v -0.10177560 -0.00000002 -0.00100067
v -0.10140860 0.00033928 -0.00114240
v -0.09996215 0.00058768 -0.00089401
v -0.10177560 0.00022296 -0.00094092
v -0.10140860 0.00058767 -0.00089401
v -0.10177560 0.00038620 -0.00077768
v -0.09996215 0.00067859 -0.00055472
v -0.10140860 0.00058767 -0.00089401
v -0.09996215 0.00058768 -0.00089401
v -0.10140860 0.00067859 -0.00055472
v -0.10177560 0.00038620 -0.00077768
v -0.09996215 0.00058767 -0.00021539
v -0.10177560 0.00044595 -0.00055472
v -0.10140860 0.00058767 -0.00021539
v -0.09996215 0.00033929 0.00003299
v -0.10177560 0.00038620 -0.00033173
v -0.10140860 0.00033928 0.00003299
v -0.10177560 0.00022296 -0.00016849
v -0.09996215 -0.00000002 0.00012390
v -0.10140860 0.00033928 0.00003299
v -0.09996215 0.00033929 0.00003299
v -0.10140860 -0.00000002 0.00012390
v -0.10177560 0.00022296 -0.00016849
v -0.09996215 -0.00033932 0.00003299
v -0.10177560 -0.00000002 -0.00010873
v -0.10140860 -0.00033933 0.00003299
v -0.09996215 -0.00058771 -0.00021539
v -0.10177560 -0.00022300 -0.00016849
v -0.10140860 -0.00058771 -0.00021539
v -0.10177560 -0.00038624 -0.00033173
v -0.09996215 -0.00067863 -0.00055472
v -0.10140860 -0.00058771 -0.00021539
v -0.09996215 -0.00058771 -0.00021539
v -0.10140860 -0.00067863 -0.00055472
v -0.10177560 -0.00038624 -0.00033173
v -0.09996215 -0.00058771 -0.00089401
v -0.10177560 -0.00044599 -0.00055472
v -0.10140860 -0.00058771 -0.00089401
v -0.09996215 -0.00033932 -0.00114240
v -0.10177560 -0.00038624 -0.00077768
v -0.10140860 -0.00033933 -0.00114240
v -0.10177560 -0.00022300 -0.00094092
v -0.10177560 -0.00038624 -0.00033173
v -0.10177560 -0.00044599 -0.00055472
v -0.10177560 -0.00038624 -0.00077768
v -0.10177560 -0.00022300 -0.00016849
v -0.10177560 -0.00022300 -0.00094092
v -0.10177560 -0.00000002 -0.00010873
v -0.10177560 -0.00000002 -0.00100067
v -0.10177560 0.00022296 -0.00016849
v -0.10177560 0.00022296 -0.00094092
v -0.10177560 0.00038620 -0.00033173
v -0.10177560 0.00038620 -0.00077768
v -0.10177560 0.00044595 -0.00055472
v 0.07611556 -0.00105148 0.00126654
v 0.07628629 -0.00171664 0.00043640
v 0.07611556 -0.00182122 0.00049680
v 0.07628629 -0.00099110 0.00116196
v 0.07611556 0.00000002 0.00154828
v 0.07668418 -0.00171423 0.00043503
v 0.07628629 0.00000002 0.00142752
v 0.07611553 0.00105151 0.00126654
v 0.07628628 0.00099113 0.00116196
v 0.07668418 -0.00098970 0.00115955
v 0.08898756 -0.00164076 0.00039261
v 0.08898756 -0.00094726 0.00108609
v 0.07668418 0.00000002 0.00142474
v 0.07668415 0.00098974 0.00115955
v 0.08898756 0.00000007 0.00133993
v 0.08898754 0.00094740 0.00108609
v 0.07611556 -0.00182122 -0.00160620
v 0.07628629 -0.00099110 -0.00227136
v 0.07611556 -0.00105148 -0.00237595
v 0.07628629 -0.00171664 -0.00154581
v 0.07611556 -0.00210297 -0.00055472
v 0.07668418 -0.00098970 -0.00226895
v 0.07628629 -0.00198221 -0.00055472
v 0.07611556 -0.00182122 0.00049680
v 0.07628629 -0.00171664 0.00043640
v 0.07668418 -0.00171423 -0.00154443
v 0.08898756 -0.00094726 -0.00219556
v 0.08898756 -0.00164076 -0.00150205
v 0.07668418 -0.00197942 -0.00055472
v 0.07668418 -0.00171423 0.00043503
v 0.08898756 -0.00189459 -0.00055472
v 0.08898756 -0.00164076 0.00039261
v 0.07611553 0.00105151 -0.00237595
v 0.07628628 0.00171668 -0.00154581
v 0.07611553 0.00182125 -0.00160620
v 0.07628628 0.00099113 -0.00227136
v 0.07611553 0.00000002 -0.00265768
v 0.07668415 0.00171427 -0.00154443
v 0.07628628 0.00000002 -0.00253693
v 0.07611556 -0.00105148 -0.00237595
v 0.07628629 -0.00099110 -0.00227136
v 0.07668415 0.00098974 -0.00226895
v 0.08898754 0.00164090 -0.00150205
v 0.08898754 0.00094741 -0.00219556
v 0.07668415 0.00000002 -0.00253415
v 0.07668418 -0.00098970 -0.00226895
v 0.08898754 0.00000007 -0.00244937
v 0.08898756 -0.00094726 -0.00219556
v 0.07611553 0.00182125 0.00049680
v 0.07628628 0.00099113 0.00116196
v 0.07611553 0.00105151 0.00126654
v 0.07628628 0.00171668 0.00043640
v 0.07611553 0.00210300 -0.00055472
v 0.07668415 0.00098974 0.00115955
v 0.07628628 0.00198225 -0.00055472
v 0.07611553 0.00182125 -0.00160620
v 0.07628628 0.00171668 -0.00154581
v 0.07668415 0.00171427 0.00043503
v 0.08898754 0.00094740 0.00108609
v 0.08898754 0.00164090 0.00039261
v 0.07668415 0.00197946 -0.00055472
v 0.07668415 0.00171427 -0.00154443
v 0.08898754 0.00189474 -0.00055472
v 0.08898754 0.00164090 -0.00150205
v 0.08898756 -0.00164076 -0.00150205
v 0.08898756 -0.00189459 -0.00055472
v 0.08898756 -0.00164076 0.00039261
v 0.08898756 -0.00094726 -0.00219556
v 0.08898756 -0.00094726 0.00108609
v 0.08898756 0.00000007 0.00133993
v 0.08898754 0.00000007 -0.00244937
v 0.08898754 0.00094740 0.00108609
v 0.08898754 0.00094741 -0.00219556
v 0.08898754 0.00164090 0.00039261
v 0.08898754 0.00164090 -0.00150205
v 0.08898754 0.00189474 -0.00055472
v 0.07609797 0.00222779 0.00473123
v 0.07622667 0.00222779 0.00467139
v 0.07622672 0.00000001 0.00526831
v 0.07609802 0.00000001 0.00532816
v 0.07622672 -0.00222777 0.00467139
v 0.07459355 0.00222778 0.00543054
v 0.07609802 -0.00222777 0.00473120
v 0.07459361 0.00000000 0.00602750
v 0.07450038 0.00222778 0.00547385
v 0.07459361 -0.00222777 0.00543054
v 0.07450044 0.00000000 0.00607080
v 0.03063155 0.00222755 0.00563962
v 0.07450044 -0.00222777 0.00547385
v 0.03063139 -0.00000033 0.00623615
v 0.02975785 0.00222755 0.00564291
v 0.03062821 -0.00222801 0.00563883
v 0.02975768 -0.00000034 0.00623944
v 0.02975444 -0.00222801 0.00564212
v 0.07622672 -0.00222777 0.00409927
v 0.07622672 -0.00222777 0.00467139
v 0.07622672 0.00000001 0.00526831
v 0.07622672 0.00000001 0.00469620
v 0.07622667 0.00222779 0.00467139
v 0.07622667 0.00222779 0.00409927
v 0.07622672 -0.00222777 0.00330393
v 0.07622672 0.00000001 0.00390085
v 0.07622667 0.00222779 0.00330393
v 0.07648081 -0.00190564 0.00274597
v 0.07648081 0.00000002 0.00325659
v 0.07648081 -0.00330067 0.00135095
v 0.07622672 -0.00385861 0.00167307
v 0.07648077 0.00190567 0.00274597
v 0.07622667 0.00385864 0.00167307
v 0.07648081 -0.00381129 -0.00055472
v 0.07622672 -0.00445554 -0.00055472
v 0.07648077 0.00330070 0.00135095
v 0.07622667 0.00445557 -0.00055472
v 0.07648081 -0.00330067 -0.00246036
v 0.07622672 -0.00385861 -0.00278247
v 0.07648077 0.00381132 -0.00055472
v 0.07622667 0.00385864 -0.00278247
v 0.07648081 -0.00190563 -0.00385538
v 0.07622672 -0.00222776 -0.00441333
v 0.07648077 0.00330070 -0.00246036
v 0.07622667 0.00222779 -0.00441333
v 0.07648077 0.00000002 -0.00436600
v 0.07622667 0.00000002 -0.00501025
v 0.07648077 0.00190567 -0.00385538
v 0.07648081 -0.00204846 -0.00173740
v 0.07648081 -0.00118267 -0.00260318
v 0.07648078 0.00000002 -0.00292007
v 0.07648078 0.00118271 -0.00260318
v 0.07648078 0.00204850 -0.00173740
v 0.07648078 0.00236540 -0.00055472
v 0.07648081 -0.00236536 -0.00055472
v 0.07648078 0.00204849 0.00062799
v 0.07648081 -0.00204846 0.00062799
v 0.07648078 0.00118271 0.00149377
v 0.07648081 -0.00118267 0.00149377
v 0.07648081 0.00000002 0.00181067
v 0.07648078 0.00222375 -0.00055472
v 0.07648078 0.00192583 -0.00166657
v 0.07648078 0.00192583 0.00055716
v 0.07648078 0.00111188 0.00137112
v 0.07648078 0.00111189 -0.00248053
v 0.07648081 0.00000002 0.00166904
v 0.07648081 -0.00111185 0.00137112
v 0.07648078 0.00000002 -0.00277844
v 0.07648081 -0.00192580 0.00055716
v 0.07648081 -0.00111185 -0.00248053
v 0.07648081 -0.00222372 -0.00055472
v 0.07648081 -0.00192580 -0.00166657
v 0.03063035 0.00222752 0.00472198
v 0.02975662 0.00222751 0.00472198
v 0.02975667 -0.00000027 0.00531891
v 0.03063040 -0.00000026 0.00531891
v 0.07450038 0.00222779 0.00472198
v 0.02975667 -0.00222805 0.00472198
v 0.07450044 0.00000001 0.00531891
v 0.03063040 -0.00222804 0.00472198
v 0.07450044 -0.00222777 0.00472198
v 0.07450044 0.00000001 0.00390085
v 0.07450044 -0.00222777 0.00472198
v 0.07450044 -0.00222777 0.00330393
v 0.07450044 0.00000001 0.00531891
v 0.07450038 0.00222779 0.00330393
v 0.07450038 0.00222779 0.00472198
v 0.07609802 -0.00222777 0.00330393
v 0.07622672 -0.00222777 0.00409927
v 0.07622672 -0.00222777 0.00330393
v 0.07609802 -0.00222777 0.00414569
v 0.07622672 -0.00222777 0.00467139
v 0.07459361 -0.00222777 0.00330393
v 0.07609802 -0.00222777 0.00473120
v 0.07459361 -0.00222777 0.00468838
v 0.07450044 -0.00222777 0.00330393
v 0.07459361 -0.00222777 0.00543054
v 0.07450044 -0.00222777 0.00472198
v 0.07450044 -0.00222777 0.00547385
v 0.03062821 -0.00222801 0.00563883
v 0.03063040 -0.00222804 0.00472198
v 0.02975444 -0.00222801 0.00564212
v 0.02975667 -0.00222805 0.00472198
v 0.02975662 0.00222751 0.00472198
v 0.02975785 0.00222755 0.00564291
v 0.02975768 -0.00000034 0.00623944
v 0.02975667 -0.00000027 0.00531891
v 0.02975444 -0.00222801 0.00564212
v 0.02975667 -0.00222805 0.00472198
v 0.07648078 0.00192583 0.00055716
v 0.07611553 0.00105151 0.00126654
v 0.07648078 0.00111188 0.00137112
v 0.07611553 0.00182125 0.00049680
v 0.07648078 0.00222375 -0.00055472
v 0.07611553 0.00210300 -0.00055472
v 0.07648078 0.00192583 -0.00166657
v 0.07611553 0.00182125 -0.00160620
v 0.07648081 -0.00111185 -0.00248053
v 0.07611556 -0.00105148 -0.00237595
v 0.07611553 0.00000002 -0.00265768
v 0.07648078 0.00000002 -0.00277844
v 0.07611553 0.00105151 -0.00237595
v 0.07648078 0.00111189 -0.00248053
v 0.07611553 0.00182125 -0.00160620
v 0.07648078 0.00192583 -0.00166657
v 0.07648081 -0.00192580 0.00055716
v 0.07611556 -0.00182122 0.00049680
v 0.07611556 -0.00210297 -0.00055472
v 0.07648081 -0.00222372 -0.00055472
v 0.07611556 -0.00182122 -0.00160620
v 0.07648081 -0.00192580 -0.00166657
v 0.07611556 -0.00105148 -0.00237595
v 0.07648081 -0.00111185 -0.00248053
v 0.07648078 0.00111188 0.00137112
v 0.07611553 0.00105151 0.00126654
v 0.07611556 0.00000002 0.00154828
v 0.07648081 0.00000002 0.00166904
v 0.07611556 -0.00105148 0.00126654
v 0.07648081 -0.00111185 0.00137112
v 0.07611556 -0.00182122 0.00049680
v 0.07648081 -0.00192580 0.00055716
v -0.09996215 0.00061765 0.00051511
v -0.09996215 0.00033929 0.00003299
v -0.09996215 0.00058767 -0.00021539
v -0.09996215 0.00106981 0.00006296
v -0.09996215 -0.00000002 0.00068063
v -0.09996215 0.00067859 -0.00055472
v -0.09996215 -0.00000002 0.00012390
v -0.09996215 0.00123531 -0.00055472
v -0.09996215 -0.00061768 0.00051511
v -0.09996215 0.00058768 -0.00089401
v -0.09996215 -0.00033932 0.00003299
v -0.09996215 0.00106981 -0.00117236
v -0.09996215 -0.00106984 0.00006296
v -0.09996215 0.00033929 -0.00114240
v -0.09996215 -0.00058771 -0.00021539
v -0.09996215 0.00061765 -0.00162454
v -0.09996215 -0.00123534 -0.00055472
v -0.09996215 -0.00000002 -0.00123331
v -0.09996215 -0.00067863 -0.00055472
v -0.09996215 -0.00000002 -0.00179004
v -0.09996215 -0.00106984 -0.00117236
v -0.09996215 -0.00033932 -0.00114240
v -0.09996215 -0.00058771 -0.00089401
v -0.09996215 -0.00061768 -0.00162454
vn -0.22492930 -0.84383570 0.48718390
vn -0.72657870 -0.59503940 0.34352790
vn -0.72659310 -0.34352030 0.59502630
vn -0.22492930 -0.48718390 0.84383570
vn -0.72657710 0.00000000 0.68708490
vn -0.12158910 -0.85960850 0.49627540
vn -0.22492410 0.00000000 0.97437630
vn -0.72659310 0.34352030 0.59502630
vn -0.22492930 0.48718390 0.84383570
vn -0.12158910 -0.49627540 0.85960850
vn -0.12158910 0.00000000 0.99258050
vn -0.12158910 0.49627540 0.85960850
vn 0.00000000 0.49998930 0.86603160
vn 0.00000000 0.00000000 1.00000000
vn 0.29249760 0.47814690 0.82814300
vn 0.00000000 -0.49998930 0.86603160
vn 0.00000000 -0.86603160 0.49998930
vn 0.29252630 0.00000000 0.95625750
vn 0.29252980 -0.47811910 0.82814760
vn 0.29252980 -0.82814760 0.47811910
vn 0.00000000 -0.86601080 0.50002540
vn 0.00000000 -0.49998930 0.86603160
vn -0.29252980 -0.82814760 0.47811910
vn 0.00000000 0.00000000 1.00000000
vn 0.00000000 0.50000260 0.86602400
vn -0.51379200 -0.66858580 0.53759710
vn 0.00000000 -0.86603160 0.49998930
vn -0.91983030 0.00000000 0.39231650
vn -0.51381460 0.66857540 0.53758870
vn 0.00000000 -0.92388030 0.38268150
vn 0.00000000 -0.86603160 0.49998930
vn 0.00000000 -0.92388030 0.38268150
vn 0.52319510 -0.73805210 0.42608220
vn 0.71167660 -0.59814520 0.36842740
vn -0.22492930 -0.48718390 -0.84383570
vn -0.72657870 -0.34352790 -0.59503940
vn -0.72657870 -0.59503940 -0.34352790
vn -0.22492930 -0.84383570 -0.48718390
vn -0.72657710 -0.68708490 0.00000000
vn -0.12158910 -0.49627540 -0.85960850
vn -0.22492410 -0.97437630 0.00000000
vn -0.72657870 -0.59503940 0.34352790
vn -0.22492930 -0.84383570 0.48718390
vn -0.12158910 -0.85960850 -0.49627540
vn -0.12158910 -0.99258050 0.00000000
vn -0.12158910 -0.85960850 0.49627540
vn 0.00000000 -0.86603160 0.49998930
vn 0.00000000 -1.00000000 0.00000000
vn 0.29252980 -0.82814760 0.47811910
vn 0.00000000 -0.86603160 -0.49998930
vn 0.00000000 -0.49998930 -0.86603160
vn 0.29252630 -0.95625750 0.00000000
vn 0.29252980 -0.82814760 -0.47811910
vn 0.29252980 -0.47811910 -0.82814760
vn 0.00000000 -0.50000260 -0.86602400
vn 0.00000000 -0.86601080 -0.50002540
vn -0.29249760 -0.47814690 -0.82814300
vn 0.00000000 -1.00000000 0.00000000
vn 0.00000000 -0.86601080 0.50002540
vn -0.29252980 -0.82814760 -0.47811910
vn 0.00000000 -0.49998930 -0.86603160
vn -0.29252630 -0.95625750 0.00000000
vn -0.29252980 -0.82814760 0.47811910
vn 0.00000000 -0.86603160 -0.49998930
vn 0.00000000 -0.49998930 -0.86603160
vn 0.00000000 -1.00000000 0.00000000
vn 0.00000000 -0.86603160 0.49998930
vn 0.00000000 -0.86603160 -0.49998930
vn 0.52318830 -0.42610720 -0.73804250
vn 0.52318830 -0.73804250 -0.42610720
vn 0.00000000 -1.00000000 0.00000000
vn 0.00000000 -0.86603160 0.49998930
vn 0.52318950 -0.85221630 0.00000000
vn 0.52319510 -0.73805210 0.42608220
vn -0.22492930 0.84383570 -0.48718390
vn -0.72659310 0.59502630 -0.34352030
vn -0.72657870 0.34352790 -0.59503940
vn -0.22492930 0.48718390 -0.84383570
vn -0.72657710 0.00000000 -0.68708490
vn -0.12158910 0.85960850 -0.49627540
vn -0.22492410 0.00000000 -0.97437630
vn -0.72657870 -0.34352790 -0.59503940
vn -0.22492930 -0.48718390 -0.84383570
vn -0.12158910 0.49627540 -0.85960850
vn -0.12158910 0.00000000 -0.99258050
vn -0.12158910 -0.49627540 -0.85960850
vn 0.00000000 -0.49998930 -0.86603160
vn 0.00000000 0.00000000 -1.00000000
vn 0.29252980 -0.47811910 -0.82814760
vn 0.00000000 0.49998930 -0.86603160
vn 0.00000000 0.86603160 -0.49998930
vn 0.29252630 0.00000000 -0.95625750
vn 0.29250180 0.47812330 -0.82815500
vn 0.29250180 0.82815500 -0.47812330
vn 0.00000000 0.86601080 -0.50002540
vn 0.00000000 0.49998930 -0.86603160
vn -0.29252980 0.82814760 -0.47811910
vn 0.00000000 0.00000000 -1.00000000
vn 0.00000000 -0.50000260 -0.86602400
vn -0.29252980 0.47811910 -0.82814760
vn 0.00000000 0.86603160 -0.49998930
vn -0.29252630 0.00000000 -0.95625750
vn -0.29249760 -0.47814690 -0.82814300
vn 0.00000000 0.49998930 -0.86603160
vn 0.00000000 0.86603160 -0.49998930
vn 0.00000000 0.00000000 -1.00000000
vn 0.00000000 -0.49998930 -0.86603160
vn 0.00000000 0.49998930 -0.86603160
vn 0.52318830 0.73804250 -0.42610720
vn 0.52318830 0.42610720 -0.73804250
vn 0.00000000 0.00000000 -1.00000000
vn 0.00000000 -0.49998930 -0.86603160
vn 0.52318950 0.00000000 -0.85221630
vn 0.52318830 -0.42610720 -0.73804250
vn -0.22492930 0.48718390 0.84383570
vn -0.72659310 0.34352030 0.59502630
vn -0.72657870 0.59503940 0.34352790
vn -0.22492930 0.84383570 0.48718390
vn -0.72657710 0.68708490 0.00000000
vn -0.12158910 0.49627540 0.85960850
vn -0.22492410 0.97437630 0.00000000
vn -0.72659310 0.59502630 -0.34352030
vn -0.22492930 0.84383570 -0.48718390
vn -0.12158910 0.85960850 0.49627540
vn -0.12158910 0.99258050 0.00000000
vn -0.12158910 0.85960850 -0.49627540
vn 0.00000000 0.86603160 -0.49998930
vn 0.00000000 1.00000000 0.00000000
vn 0.29250180 0.82815500 -0.47812330
vn 0.00000000 0.86603160 0.49998930
vn 0.00000000 0.49998930 0.86603160
vn 0.29252630 0.95625750 0.00000000
vn 0.29249450 0.82816460 0.47811130
vn 0.29249760 0.47814690 0.82814300
vn 0.00000000 0.50000260 0.86602400
vn 0.00000000 0.86601080 0.50002540
vn -0.51381460 0.66857540 0.53758870
vn 0.00000000 1.00000000 0.00000000
vn 0.00000000 0.86601080 -0.50002540
vn -0.29252980 0.82814760 0.47811910
vn -0.29252630 0.95625750 0.00000000
vn -0.29252980 0.82814760 -0.47811910
vn 0.00000000 0.92388030 0.38268150
vn -0.37252170 0.87527040 -0.30843060
vn 0.00000000 1.00000000 0.00000000
vn 0.00000000 0.86603160 -0.49998930
vn 0.00000000 0.86603160 0.49998930
vn 0.00000000 1.00000000 0.00000000
vn 0.00000000 0.86603160 -0.49998930
vn 0.00000000 0.86603160 0.49998930
vn 0.52318950 0.85221630 0.00000000
vn 0.52318830 0.73804250 -0.42610720
vn 0.52318830 0.73804250 0.42610720
vn 0.71167660 0.59814520 0.36842740
vn 0.00000000 0.92388030 0.38268150
vn 0.00000000 1.00000000 0.00000000
vn 0.00000000 1.00000000 0.00000000
vn 0.70709150 0.70712200 0.00000000
vn 0.26054500 0.78615190 0.56042970
vn 0.67182230 0.64966530 0.35579450
vn 0.26048190 0.78617610 0.56042520
vn 0.14856680 0.75235590 0.64178540
vn 0.00000000 0.60873390 -0.79337440
vn 0.00228895 0.79332020 0.60880020
vn -0.56518670 0.50228650 -0.65442510
vn -0.59103650 0.63922640 0.49200140
vn -0.77026610 0.00000000 -0.63772260
vn -0.26716720 -0.48181040 -0.83455410
vn -0.77027210 -0.31886380 -0.55227400
vn -0.26716690 0.00000000 -0.96365020
vn -0.84239450 -0.26942460 -0.46667100
vn -0.77027960 0.31883640 -0.55227950
vn -0.84238610 0.00000000 -0.53887440
vn -0.26716720 0.48181040 -0.83455410
vn -0.77027210 0.55227400 -0.31886380
vn -0.84239450 0.26942460 -0.46667100
vn -0.26716330 0.83454180 -0.48183380
vn -0.84239450 0.46667100 -0.26942460
vn -0.77026610 0.63772260 0.00000000
vn -0.26716330 0.83454180 -0.48183380
vn -0.77027210 0.55227400 -0.31886380
vn -0.26716690 0.96365020 0.00000000
vn -0.84239450 0.46667100 -0.26942460
vn -0.77027210 0.55227400 0.31886380
vn -0.84238610 0.53887440 0.00000000
vn -0.26716720 0.83455410 0.48181040
vn -0.77027960 0.31883640 0.55227950
vn -0.84239450 0.46667100 0.26942460
vn -0.26716720 0.48181040 0.83455410
vn -0.84239450 0.26942460 0.46667100
vn -0.77026610 0.00000000 0.63772260
vn -0.26716720 0.48181040 0.83455410
vn -0.77027960 0.31883640 0.55227950
vn -0.26716690 0.00000000 0.96365020
vn -0.84239450 0.26942460 0.46667100
vn -0.77026670 -0.31883100 0.55230070
vn -0.84238610 0.00000000 0.53887440
vn -0.26716720 -0.48181040 0.83455410
vn -0.77027960 -0.55227950 0.31883640
vn -0.84239450 -0.26942460 0.46667100
vn -0.26716720 -0.83455410 0.48181040
vn -0.84239450 -0.46667100 0.26942460
vn -0.77026610 -0.63772260 0.00000000
vn -0.26716720 -0.83455410 0.48181040
vn -0.77027960 -0.55227950 0.31883640
vn -0.26716690 -0.96365020 0.00000000
vn -0.84239450 -0.46667100 0.26942460
vn -0.77025920 -0.55229530 -0.31885840
vn -0.84238610 -0.53887440 0.00000000
vn -0.26716330 -0.83454180 -0.48183380
vn -0.77027210 -0.31886380 -0.55227400
vn -0.84239450 -0.46667100 -0.26942460
vn -0.26716720 -0.48181040 -0.83455410
vn -0.84239450 -0.26942460 -0.46667100
vn -0.84239450 -0.46667100 0.26942460
vn -0.84238610 -0.53887440 0.00000000
vn -0.84239450 -0.46667100 -0.26942460
vn -0.84239450 -0.26942460 0.46667100
vn -0.84239450 -0.26942460 -0.46667100
vn -0.84238610 0.00000000 0.53887440
vn -0.84238610 0.00000000 -0.53887440
vn -0.84239450 0.26942460 0.46667100
vn -0.84239450 0.26942460 -0.46667100
vn -0.84239450 0.46667100 0.26942460
vn -0.84239450 0.46667100 -0.26942460
vn -0.84238610 0.53887440 0.00000000
vn 0.95867620 0.14225100 -0.24638330
vn 0.32170810 -0.82000300 0.47339090
vn 0.95867620 0.24638330 -0.14225100
vn 0.32173080 -0.47341000 0.81998310
vn 0.95867550 0.00000000 -0.28450190
vn 0.00692778 -0.86600320 0.49999050
vn 0.32170680 0.00000000 0.94683930
vn 0.95867620 -0.14225100 -0.24638330
vn 0.32170340 0.47341460 0.81999120
vn 0.00692778 -0.49999050 0.86600320
vn 0.65580390 -0.65378960 0.37746570
vn 0.65579080 -0.37745810 0.65380710
vn 0.00692775 0.00000000 0.99997600
vn 0.00692778 0.49999050 0.86600320
vn 0.65578880 0.00000000 0.75494450
vn 0.65579080 0.37745810 0.65380710
vn 0.95867620 0.24638330 0.14225100
vn 0.32173080 -0.47341000 -0.81998310
vn 0.95867620 0.14225100 0.24638330
vn 0.32170340 -0.81999120 -0.47341460
vn 0.95867550 0.28450190 0.00000000
vn 0.00692778 -0.49999050 -0.86600320
vn 0.32170680 -0.94683930 0.00000000
vn 0.95867620 0.24638330 -0.14225100
vn 0.32170810 -0.82000300 0.47339090
vn 0.00692778 -0.86600320 -0.49999050
vn 0.65579080 -0.37745810 -0.65380710
vn 0.65580390 -0.65378960 -0.37746570
vn 0.00692775 -0.99997600 0.00000000
vn 0.00692778 -0.86600320 0.49999050
vn 0.65578880 -0.75494450 0.00000000
vn 0.65580390 -0.65378960 0.37746570
vn 0.95867620 -0.14225100 0.24638330
vn 0.32170340 0.81999120 -0.47341460
vn 0.95867620 -0.24638330 0.14225100
vn 0.32170340 0.47341460 -0.81999120
vn 0.95867550 0.00000000 0.28450190
vn 0.00692778 0.86600320 -0.49999050
vn 0.32170680 0.00000000 -0.94683930
vn 0.95867620 0.14225100 0.24638330
vn 0.32173080 -0.47341000 -0.81998310
vn 0.00692778 0.49999050 -0.86600320
vn 0.65579080 0.65380710 -0.37745810
vn 0.65579080 0.37745810 -0.65380710
vn 0.00692775 0.00000000 -0.99997600
vn 0.00692778 -0.49999050 -0.86600320
vn 0.65578880 0.00000000 -0.75494450
vn 0.65579080 -0.37745810 -0.65380710
vn 0.95867620 -0.24638330 -0.14225100
vn 0.32170340 0.47341460 0.81999120
vn 0.95867620 -0.14225100 -0.24638330
vn 0.32170340 0.81999120 0.47341460
vn 0.95867550 -0.28450190 0.00000000
vn 0.00692778 0.49999050 0.86600320
vn 0.32169750 0.94684250 0.00000000
vn 0.95867620 -0.24638330 0.14225100
vn 0.32170340 0.81999120 -0.47341460
vn 0.00692778 0.86600320 0.49999050
vn 0.65579080 0.37745810 0.65380710
vn 0.65579080 0.65380710 0.37745810
vn 0.00692775 0.99997600 0.00000000
vn 0.00692778 0.86600320 -0.49999050
vn 0.65578880 0.75494450 0.00000000
vn 0.65579080 0.65380710 -0.37745810
vn 0.65580390 -0.65378960 -0.37746570
vn 0.65578880 -0.75494450 0.00000000
vn 0.65580390 -0.65378960 0.37746570
vn 0.65579080 -0.37745810 -0.65380710
vn 0.65579080 -0.37745810 0.65380710
vn 0.65578880 0.00000000 0.75494450
vn 0.65578880 0.00000000 -0.75494450
vn 0.65579080 0.37745810 0.65380710
vn 0.65579080 0.37745810 -0.65380710
vn 0.65579080 0.65380710 0.37745810
vn 0.65579080 0.65380710 -0.37745810
vn 0.65578880 0.75494450 0.00000000
vn 0.26054500 0.78615190 0.56042970
vn 0.67182230 0.64966530 0.35579450
vn 0.80338580 0.00000000 0.59545890
vn 0.42156680 0.00000000 0.90679730
vn 0.67182110 -0.64963360 0.35585490
vn 0.26048190 0.78617610 0.56042520
vn 0.26051480 -0.78618330 0.56039980
vn 0.42150490 0.00000000 0.90682610
vn 0.14856680 0.75235590 0.64178540
vn 0.26048190 -0.78617610 0.56042520
vn 0.21052110 -0.00003052 0.97758930
vn 0.00228895 0.79332020 0.60880020
vn 0.14856630 -0.75238390 0.64175270
vn 0.00375386 -0.00012208 0.99999300
vn -0.59103650 0.63922640 0.49200140
vn 0.00228897 -0.79338710 0.60871310
vn -0.65158030 0.00015259 0.75857970
vn -0.59231870 -0.63855550 0.49133030
vn 0.70710680 -0.70710680 0.00000000
vn 0.67182110 -0.64963360 0.35585490
vn 0.80338580 0.00000000 0.59545890
vn 1.00000000 0.00000000 0.00000000
vn 0.67182230 0.64966530 0.35579450
vn 0.70709150 0.70712200 0.00000000
vn 0.71167660 -0.59814520 0.36842740
vn 0.98769680 0.00000000 0.15638100
vn 0.71167660 0.59814520 0.36842740
vn 0.97630970 -0.10819060 0.18738800
vn 0.97630900 0.00000000 0.21638110
vn 0.97630970 -0.18738800 0.10819060
vn 0.52319510 -0.73805210 0.42608220
vn 0.97630970 0.10819060 0.18738800
vn 0.52318830 0.73804250 0.42610720
vn 0.97630900 -0.21638110 0.00000000
vn 0.52318950 -0.85221630 0.00000000
vn 0.97630970 0.18738800 0.10819060
vn 0.52318950 0.85221630 0.00000000
vn 0.97630970 -0.18738800 -0.10819060
vn 0.52318830 -0.73804250 -0.42610720
vn 0.97630900 0.21638110 0.00000000
vn 0.52318830 0.73804250 -0.42610720
vn 0.97631290 -0.10816050 -0.18738860
vn 0.52318830 -0.42610720 -0.73804250
vn 0.97630970 0.18738800 -0.10819060
vn 0.52318830 0.42610720 -0.73804250
vn 0.97630900 0.00000000 -0.21638110
vn 0.52318950 0.00000000 -0.85221630
vn 0.97630970 0.10819060 -0.18738800
vn 1.00000000 0.00000000 0.00000000
vn 1.00000000 0.00000000 0.00000000
vn 1.00000000 0.00000000 0.00000000
vn 1.00000000 0.00000000 0.00000000
vn 1.00000000 0.00000000 0.00000000
vn 1.00000000 0.00000000 0.00000000
vn 1.00000000 0.00000000 0.00000000
vn 1.00000000 0.00000000 0.00000000
vn 1.00000000 0.00000000 0.00000000
vn 1.00000000 0.00000000 0.00000000
vn 1.00000000 0.00000000 0.00000000
vn 1.00000000 0.00000000 0.00000000
vn 0.85764370 -0.51424440 0.00000000
vn 0.85763820 -0.44536020 0.25712050
vn 0.85763820 -0.44536020 -0.25712050
vn 0.85764990 -0.25712400 -0.44533580
vn 0.85764990 -0.25712400 0.44533580
vn 0.85764370 0.00000000 -0.51424440
vn 0.85764990 0.25712400 -0.44533580
vn 0.85764370 0.00000000 0.51424440
vn 0.85764990 0.44533580 -0.25712400
vn 0.85764990 0.25712400 0.44533580
vn 0.85765710 0.51422190 0.00000000
vn 0.85764990 0.44533580 0.25712400
vn 0.00000000 0.60873390 -0.79337440
vn -0.56518670 0.50228650 -0.65442510
vn -0.77036320 0.00045779 -0.63760510
vn 0.00000000 0.00000000 -1.00000000
vn -0.37252170 0.87527040 -0.30843060
vn -0.56451280 -0.50265040 -0.65472730
vn -0.65323600 0.00000000 -0.75715440
vn 0.00000000 -0.60876790 -0.79334840
vn -0.37251170 -0.87527740 -0.30842240
vn -0.91983030 0.00000000 0.39231650
vn -0.37251170 -0.87527740 -0.30842240
vn -0.51379200 -0.66858580 0.53759710
vn -0.65323600 0.00000000 -0.75715440
vn -0.51381460 0.66857540 0.53758870
vn -0.37252170 0.87527040 -0.30843060
vn 0.00000000 -0.92388030 0.38268150
vn 0.70710680 -0.70710680 0.00000000
vn 0.71167660 -0.59814520 0.36842740
vn 0.00000000 -1.00000000 0.00000000
vn 0.67182110 -0.64963360 0.35585490
vn 0.00000000 -0.92388030 0.38268150
vn 0.26051480 -0.78618330 0.56039980
vn 0.00000000 -1.00000000 0.00000000
vn -0.51379200 -0.66858580 0.53759710
vn 0.26048190 -0.78617610 0.56042520
vn -0.37251170 -0.87527740 -0.30842240
vn 0.14856630 -0.75238390 0.64175270
vn 0.00228897 -0.79338710 0.60871310
vn 0.00000000 -0.60876790 -0.79334840
vn -0.59231870 -0.63855550 0.49133030
vn -0.56451280 -0.50265040 -0.65472730
vn -0.56518670 0.50228650 -0.65442510
vn -0.59103650 0.63922640 0.49200140
vn -0.65158030 0.00015259 0.75857970
vn -0.77036320 0.00045779 -0.63760510
vn -0.59231870 -0.63855550 0.49133030
vn -0.56451280 -0.50265040 -0.65472730
vn 0.85763820 -0.44536020 -0.25712050
vn 0.95867620 -0.14225100 -0.24638330
vn 0.85764990 -0.25712400 -0.44533580
vn 0.95867620 -0.24638330 -0.14225100
vn 0.85764370 -0.51424440 0.00000000
vn 0.95867550 -0.28450190 0.00000000
vn 0.85763820 -0.44536020 0.25712050
vn 0.95867620 -0.24638330 0.14225100
vn 0.85764990 0.25712400 0.44533580
vn 0.95867620 0.14225100 0.24638330
vn 0.95867550 0.00000000 0.28450190
vn 0.85764370 0.00000000 0.51424440
vn 0.95867620 -0.14225100 0.24638330
vn 0.85764990 -0.25712400 0.44533580
vn 0.95867620 -0.24638330 0.14225100
vn 0.85763820 -0.44536020 0.25712050
vn 0.85764990 0.44533580 -0.25712400
vn 0.95867620 0.24638330 -0.14225100
vn 0.95867550 0.28450190 0.00000000
vn 0.85765710 0.51422190 0.00000000
vn 0.95867620 0.24638330 0.14225100
vn 0.85764990 0.44533580 0.25712400
vn 0.95867620 0.14225100 0.24638330
vn 0.85764990 0.25712400 0.44533580
vn 0.85764990 -0.25712400 -0.44533580
vn 0.95867620 -0.14225100 -0.24638330
vn 0.95867550 0.00000000 -0.28450190
vn 0.85764370 0.00000000 -0.51424440
vn 0.95867620 0.14225100 -0.24638330
vn 0.85764990 0.25712400 -0.44533580
vn 0.95867620 0.24638330 -0.14225100
vn 0.85764990 0.44533580 -0.25712400
vn -0.72659310 0.34352030 0.59502630
vn -0.77027960 0.31883640 0.55227950
vn -0.77027210 0.55227400 0.31886380
vn -0.72657870 0.59503940 0.34352790
vn -0.72657710 0.00000000 0.68708490
vn -0.77026610 0.63772260 0.00000000
vn -0.77026610 0.00000000 0.63772260
vn -0.72657710 0.68708490 0.00000000
vn -0.72659310 -0.34352030 0.59502630
vn -0.77027210 0.55227400 -0.31886380
vn -0.77026670 -0.31883100 0.55230070
vn -0.72659310 0.59502630 -0.34352030
vn -0.72657870 -0.59503940 0.34352790
vn -0.77027960 0.31883640 -0.55227950
vn -0.77027960 -0.55227950 0.31883640
vn -0.72657870 0.34352790 -0.59503940
vn -0.72657710 -0.68708490 0.00000000
vn -0.77026610 0.00000000 -0.63772260
vn -0.77026610 -0.63772260 0.00000000
vn -0.72657710 0.00000000 -0.68708490
vn -0.72657870 -0.59503940 -0.34352790
vn -0.77027210 -0.31886380 -0.55227400
vn -0.77025920 -0.55229530 -0.31885840
vn -0.72657870 -0.34352790 -0.59503940
vt 0.49348910 0.05921393
vt 0.48448870 0.00093390
vt 0.48237900 0.00096487
vt 0.48612150 0.05932193
vt 0.47986700 0.00096780
vt 0.49390270 0.06138907
vt 0.47734870 0.05933229
vt 0.47762560 0.00094204
vt 0.46952140 0.05924228
vt 0.48629350 0.06150061
vt 0.47723300 0.06151130
vt 0.46914900 0.06141837
vt 0.46914900 0.67693870
vt 0.47723300 0.67703190
vt 0.46914900 0.67910960
vt 0.48629350 0.67702120
vt 0.49390270 0.67690960
vt 0.47723300 0.67920280
vt 0.48629350 0.67919210
vt 0.49390270 0.67908050
vt 0.49370150 0.67944930
vt 0.48620980 0.67955910
vt 0.49390270 0.67982640
vt 0.47728930 0.67956980
vt 0.46933010 0.67947800
vt 0.48629350 0.67993800
vt 0.49390270 0.68018880
vt 0.47723300 0.67994870
vt 0.46914900 0.67985550
vt 0.48629350 0.68030040
vt 0.49390270 0.68604140
vt 0.48629350 0.68615290
vt 0.49390270 0.68654200
vt 0.48629350 0.68665360
vt 0.73294650 0.05928331
vt 0.72582390 0.00095890
vt 0.72347580 0.00097992
vt 0.72474630 0.05935673
vt 0.72099100 0.00097083
vt 0.73327380 0.06146047
vt 0.71606920 0.05932499
vt 0.71903550 0.00093390
vt 0.70924000 0.05919597
vt 0.72480480 0.06153635
vt 0.71584300 0.06150355
vt 0.70878980 0.06137028
vt 0.70878990 0.67688030
vt 0.71584310 0.67701330
vt 0.70878980 0.67905120
vt 0.72480480 0.67704630
vt 0.73327390 0.67697050
vt 0.71584310 0.67918430
vt 0.72480480 0.67921720
vt 0.73327390 0.67914130
vt 0.73311470 0.67950910
vt 0.72477650 0.67958380
vt 0.73327390 0.67988720
vt 0.71595320 0.67955140
vt 0.70900880 0.67942040
vt 0.72480480 0.67996310
vt 0.73327390 0.68024970
vt 0.71584310 0.67993010
vt 0.70878990 0.67979700
vt 0.72480480 0.68032550
vt 0.73327380 0.68610210
vt 0.71584310 0.68029250
vt 0.70878990 0.68015950
vt 0.72480480 0.68617790
vt 0.73327390 0.68660270
vt 0.72480480 0.68667860
vt 0.71584310 0.68614490
vt 0.70878990 0.68601190
vt 0.71584310 0.68664560
vt 0.70878990 0.68651250
vt 0.55033310 0.62793200
vt 0.55958650 0.68636010
vt 0.56165160 0.68628840
vt 0.55754490 0.62768160
vt 0.56415830 0.68627780
vt 0.54990790 0.62574950
vt 0.56629870 0.62764470
vt 0.56643470 0.68633120
vt 0.57424880 0.62783120
vt 0.55735620 0.62549080
vt 0.56639710 0.62545280
vt 0.57460780 0.62564540
vt 0.57460780 0.01074902
vt 0.56639700 0.01055652
vt 0.57460780 0.00858029
vt 0.55735610 0.01059452
vt 0.54990770 0.01085316
vt 0.56639700 0.00838782
vt 0.55735610 0.00842588
vt 0.54990770 0.00868446
vt 0.55011460 0.00832061
vt 0.55744800 0.00806600
vt 0.54990780 0.00793936
vt 0.56634910 0.00802848
vt 0.57443310 0.00821807
vt 0.55735620 0.00768077
vt 0.54990770 0.00757734
vt 0.56639700 0.00764271
vt 0.57460780 0.00783521
vt 0.55735610 0.00731870
vt 0.54990770 0.00173066
vt 0.56639700 0.00728064
vt 0.57460780 0.00747314
vt 0.55735610 0.00147208
vt 0.54990770 0.00123051
vt 0.55735610 0.00097196
vt 0.56639700 0.00143399
vt 0.57460780 0.00162649
vt 0.56639700 0.00093390
vt 0.57460780 0.00112637
vt 0.04445906 0.62832890
vt 0.05158179 0.68665330
vt 0.05392983 0.68663230
vt 0.05265914 0.62825540
vt 0.05641448 0.68664140
vt 0.04413167 0.62615170
vt 0.06133643 0.62828740
vt 0.05837001 0.68667830
vt 0.06816553 0.62841620
vt 0.05260085 0.62607590
vt 0.06156267 0.62610880
vt 0.06861578 0.62624190
vt 0.06861566 0.01073219
vt 0.06156255 0.01059912
vt 0.06861572 0.00856129
vt 0.05260079 0.01056614
vt 0.04413173 0.01064199
vt 0.06156261 0.00842823
vt 0.05260079 0.00839521
vt 0.04413167 0.00847107
vt 0.04429092 0.00810326
vt 0.05262919 0.00802857
vt 0.04413167 0.00772531
vt 0.06145258 0.00806108
vt 0.06839675 0.00819206
vt 0.05260079 0.00764945
vt 0.06156261 0.00768244
vt 0.06861572 0.00781550
vt 0.04413161 0.00736282
vt 0.03903469 0.00767246
vt 0.06156261 0.00731998
vt 0.06861572 0.00745304
vt 0.05260079 0.00728696
vt 0.06156267 0.00146754
vt 0.06861572 0.00160060
vt 0.05260073 0.00143456
vt 0.06156267 0.00096691
vt 0.06861578 0.00109994
vt 0.05260092 0.00093390
vt 0.04413179 0.00100978
vt 0.04413173 0.00151038
vt 0.03915540 0.00731122
vt 0.04110606 0.00147903
vt 0.04127288 0.00098012
vt 0.03900144 0.00145721
vt 0.03921657 0.00095881
vt 0.03648779 0.00728352
vt 0.03633220 0.00764444
vt 0.03903427 0.17833440
vt 0.03573596 0.17829560
vt 0.03903427 0.18173340
vt 0.03572408 0.18169430
vt 0.62308870 0.71519830
vt 0.62433930 0.72084900
vt 0.62433930 0.71522770
vt 0.62308870 0.72081970
vt 0.62374880 0.72231030
vt 0.62171170 0.71520420
vt 0.62292700 0.72229100
vt 0.62171170 0.72082560
vt 0.62057730 0.71524350
vt 0.62202200 0.72229480
vt 0.62057730 0.72086490
vt 0.62127660 0.72232070
vt 0.13385900 0.72905270
vt 0.13493330 0.73469980
vt 0.13493330 0.72907280
vt 0.13385900 0.73467960
vt 0.13419290 0.73614010
vt 0.13249400 0.72904750
vt 0.13348710 0.73612680
vt 0.13249400 0.73467450
vt 0.13120400 0.72905920
vt 0.13259010 0.73612350
vt 0.13120410 0.73468610
vt 0.13174230 0.73613110
vt 0.62180850 0.73127580
vt 0.62057730 0.72563450
vt 0.62057730 0.73126160
vt 0.62180850 0.72564870
vt 0.62118970 0.72419140
vt 0.62318850 0.73127410
vt 0.62199880 0.72420070
vt 0.62318850 0.72564700
vt 0.62434740 0.73125710
vt 0.62290570 0.72419970
vt 0.62434740 0.72563000
vt 0.62366740 0.72418850
vt 0.62323210 0.73314860
vt 0.62430650 0.73879590
vt 0.62430650 0.73316880
vt 0.62323220 0.73877560
vt 0.62356620 0.74023610
vt 0.62186720 0.73314360
vt 0.62286030 0.74022290
vt 0.62186730 0.73877060
vt 0.62057730 0.73315510
vt 0.62196340 0.74021970
vt 0.62057740 0.73878220
vt 0.62111550 0.74022720
vt 0.62351240 0.74500730
vt 0.62396650 0.74422930
vt 0.62396650 0.74333100
vt 0.62272600 0.74545640
vt 0.62351240 0.74255310
vt 0.62181790 0.74545640
vt 0.62272600 0.74210410
vt 0.62103150 0.74500720
vt 0.62181780 0.74210390
vt 0.62057730 0.74422930
vt 0.62103140 0.74255310
vt 0.62057730 0.74333100
vt 0.71515190 0.73860370
vt 0.71191410 0.73799560
vt 0.71156030 0.73865210
vt 0.71529940 0.73794980
vt 0.71942840 0.73860370
vt 0.71192410 0.73644780
vt 0.71933040 0.73794980
vt 0.72324390 0.73865210
vt 0.72292680 0.73799550
vt 0.71530470 0.73640230
vt 0.71222950 0.68859010
vt 0.71546530 0.68854650
vt 0.71933000 0.73640220
vt 0.72292130 0.73644780
vt 0.71931820 0.68854640
vt 0.72275570 0.68859000
vt 0.04527514 0.77910290
vt 0.04155498 0.77849720
vt 0.04127802 0.77915340
vt 0.04532257 0.77844940
vt 0.04950511 0.77910290
vt 0.04155558 0.77694950
vt 0.04930961 0.77844950
vt 0.05283433 0.77915330
vt 0.05244765 0.77849710
vt 0.04531788 0.77690200
vt 0.04157160 0.72909310
vt 0.04517280 0.72904750
vt 0.04929923 0.77690190
vt 0.05243294 0.77694950
vt 0.04898355 0.72904760
vt 0.05198311 0.72909310
vt 0.33668550 0.77775410
vt 0.33353510 0.77721450
vt 0.33316940 0.77786120
vt 0.33684930 0.77711340
vt 0.34095270 0.77775410
vt 0.33355010 0.77566860
vt 0.34087150 0.77711340
vt 0.34482770 0.77786120
vt 0.34452400 0.77721450
vt 0.33685970 0.77556770
vt 0.33401070 0.72786630
vt 0.33717850 0.72776970
vt 0.34087630 0.77556780
vt 0.34452360 0.77566870
vt 0.34102300 0.72776970
vt 0.34451420 0.72786630
vt 0.00494131 0.77910290
vt 0.00122115 0.77849720
vt 0.00094413 0.77915340
vt 0.00498886 0.77844950
vt 0.00917134 0.77910290
vt 0.00122175 0.77694950
vt 0.00897584 0.77844950
vt 0.01250050 0.77915340
vt 0.01211388 0.77849710
vt 0.00498417 0.77690200
vt 0.00123789 0.72909310
vt 0.00483903 0.72904750
vt 0.00896552 0.77690200
vt 0.01209929 0.77694950
vt 0.00864990 0.72904760
vt 0.01164928 0.72909310
vt 0.68052920 0.74573330
vt 0.67860020 0.74242820
vt 0.67525910 0.74052010
vt 0.68052920 0.74954970
vt 0.67140100 0.74052020
vt 0.66805960 0.74242810
vt 0.67860020 0.75285480
vt 0.66613070 0.74573330
vt 0.67525890 0.75476280
vt 0.66613050 0.74954950
vt 0.67140070 0.75476280
vt 0.66805950 0.75285460
vt 0.36199420 0.84679070
vt 0.36204100 0.84728640
vt 0.37012450 0.84741430
vt 0.37007780 0.84691880
vt 0.37918500 0.84744250
vt 0.36144770 0.84099660
vt 0.37913820 0.84694680
vt 0.36953120 0.84112450
vt 0.36141380 0.84063770
vt 0.37859170 0.84115270
vt 0.36949740 0.84076560
vt 0.36202810 0.66999290
vt 0.37855780 0.84079380
vt 0.37011240 0.67011990
vt 0.36204030 0.66659430
vt 0.37917270 0.67013570
vt 0.37012460 0.66672130
vt 0.37918500 0.66673690
vt 0.46976880 0.72500470
vt 0.47035130 0.72715510
vt 0.47942420 0.72715520
vt 0.47884170 0.72500460
vt 0.48728160 0.72266780
vt 0.48669910 0.72051750
vt 0.46895900 0.72201530
vt 0.47803200 0.72201530
vt 0.48588930 0.71752800
vt 0.46961500 0.71959370
vt 0.47737600 0.71959370
vt 0.46289380 0.71575540
vt 0.46110170 0.71752790
vt 0.48409720 0.71575530
vt 0.49042580 0.70975570
vt 0.45901320 0.70910670
vt 0.45656520 0.70975560
vt 0.48797770 0.70910670
vt 0.49042580 0.70078090
vt 0.45901320 0.70142990
vt 0.45656520 0.70078100
vt 0.48797780 0.70142980
vt 0.48588930 0.69300880
vt 0.46289380 0.69478150
vt 0.46110160 0.69300880
vt 0.48409720 0.69478140
vt 0.47803200 0.68852150
vt 0.46961500 0.69094280
vt 0.46895900 0.68852140
vt 0.47737600 0.69094310
vt 0.46450750 0.70288620
vt 0.46691580 0.69875990
vt 0.47108720 0.69637760
vt 0.47590380 0.69637760
vt 0.48007520 0.69875990
vt 0.48248350 0.70288600
vt 0.46450750 0.70765050
vt 0.48248350 0.70765060
vt 0.46691580 0.71177690
vt 0.48007520 0.71177670
vt 0.47108720 0.71415900
vt 0.47590380 0.71415890
vt 0.48194530 0.70302870
vt 0.47968110 0.69914970
vt 0.48194530 0.70750800
vt 0.47968120 0.71138710
vt 0.47575950 0.69691000
vt 0.47575960 0.71362670
vt 0.47123140 0.71362670
vt 0.47123140 0.69691000
vt 0.46730980 0.71138700
vt 0.46730980 0.69914970
vt 0.46504570 0.70750780
vt 0.46504570 0.70302880
vt 0.58229760 0.85871980
vt 0.58229760 0.86211540
vt 0.59050830 0.86230780
vt 0.59050830 0.85891230
vt 0.58229760 0.68822790
vt 0.59954920 0.86226990
vt 0.59050840 0.68842040
vt 0.59954920 0.85887430
vt 0.59954920 0.68838240
vt 0.73071060 0.69721530
vt 0.72748050 0.70588420
vt 0.73305880 0.70588420
vt 0.72513220 0.69721530
vt 0.73305880 0.68854640
vt 0.72748040 0.68854640
vt 0.43721180 0.68902210
vt 0.44007230 0.68856080
vt 0.43721360 0.68852140
vt 0.44023750 0.68906370
vt 0.44212840 0.68858900
vt 0.43719150 0.69487450
vt 0.44234180 0.68909270
vt 0.44216760 0.69494300
vt 0.43719020 0.69523690
vt 0.44483510 0.69497970
vt 0.44228700 0.69530710
vt 0.44498950 0.69534430
vt 0.44498950 0.86602190
vt 0.44169420 0.86596800
vt 0.44498940 0.86942120
vt 0.44168230 0.86936690
vt 0.38704290 0.66659440
vt 0.38341990 0.66659430
vt 0.38107330 0.67526360
vt 0.38469450 0.67526330
vt 0.38342310 0.68393200
vt 0.38704290 0.68393210
vt 0.24628540 0.74218530
vt 0.24765980 0.73827540
vt 0.24623130 0.73800430
vt 0.24771090 0.74222930
vt 0.24628540 0.74660970
vt 0.24771090 0.74641350
vt 0.24623140 0.75009190
vt 0.24765990 0.74970660
vt 0.13604780 0.73800800
vt 0.13461900 0.73832070
vt 0.13457000 0.74209490
vt 0.13599600 0.74199890
vt 0.13457000 0.74632510
vt 0.13599600 0.74647190
vt 0.13461900 0.74987780
vt 0.13604780 0.75022860
vt 0.65904890 0.73811160
vt 0.65762050 0.73849690
vt 0.65756940 0.74179030
vt 0.65899490 0.74159400
vt 0.65756940 0.74597430
vt 0.65899490 0.74601820
vt 0.65762050 0.74992820
vt 0.65904890 0.75019930
vt 0.49384050 0.68852140
vt 0.49242250 0.68881860
vt 0.49231410 0.69265160
vt 0.49372590 0.69257450
vt 0.49231400 0.69687260
vt 0.49372590 0.69703790
vt 0.49242250 0.70035060
vt 0.49384050 0.70071560
vt 0.28122840 0.72900440
vt 0.28334380 0.72844370
vt 0.28334360 0.72707690
vt 0.28122820 0.72651620
vt 0.28248610 0.73115940
vt 0.28403460 0.72589310
vt 0.28403460 0.72962750
vt 0.28248590 0.72436120
vt 0.28466470 0.73240330
vt 0.28523130 0.72520960
vt 0.28523140 0.73031090
vt 0.28466440 0.72311720
vt 0.28718010 0.73240330
vt 0.28661320 0.72520950
vt 0.28661320 0.73031100
vt 0.28718000 0.72311700
vt 0.28935860 0.73115920
vt 0.28780980 0.72589310
vt 0.28781000 0.72962740
vt 0.28935850 0.72436120
vt 0.29061630 0.72900430
vt 0.28850080 0.72707680
vt 0.28850090 0.72844360
vt 0.29061630 0.72651590
f 3/3/3 2/2/2 1/1/1
f 4/4/4 3/3/3 1/1/1
f 5/5/5 3/3/3 4/4/4
f 4/4/4 1/1/1 6/6/6
f 7/7/7 5/5/5 4/4/4
f 8/8/8 5/5/5 7/7/7
f 9/9/9 8/8/8 7/7/7
f 10/10/10 4/4/4 6/6/6
f 7/7/7 4/4/4 10/10/10
f 9/9/9 7/7/7 11/11/11
f 11/11/11 7/7/7 10/10/10
f 12/12/12 9/9/9 11/11/11
f 13/13/13 12/12/12 11/11/11
f 14/14/14 13/13/13 11/11/11
f 14/14/14 11/11/11 10/10/10
f 15/15/15 13/13/13 14/14/14
f 16/16/16 10/10/10 6/6/6
f 16/16/16 14/14/14 10/10/10
f 17/17/17 16/16/16 6/6/6
f 18/18/18 15/15/15 14/14/14
f 18/18/18 14/14/14 16/16/16
f 19/19/19 16/16/16 17/17/17
f 19/19/19 18/18/18 16/16/16
f 20/20/20 19/19/19 17/17/17
f 20/20/20 21/21/21 19/19/19
f 21/21/21 22/22/22 19/19/19
f 19/19/19 22/22/22 18/18/18
f 21/21/21 23/23/23 22/22/22
f 18/18/18 24/24/24 15/15/15
f 22/22/22 24/24/24 18/18/18
f 24/24/24 25/25/25 15/15/15
f 23/23/23 26/26/26 22/22/22
f 22/22/22 26/26/26 24/24/24
f 23/23/23 27/27/27 26/26/26
f 24/24/24 28/28/28 25/25/25
f 26/26/26 28/28/28 24/24/24
f 28/28/28 29/29/29 25/25/25
f 27/27/27 30/30/30 26/26/26
f 27/27/27 31/31/31 30/30/30
f 31/31/31 32/32/32 30/30/30
f 31/31/31 33/33/33 32/32/32
f 33/33/33 34/34/34 32/32/32
f 37/37/37 36/36/36 35/35/35
f 38/38/38 37/37/37 35/35/35
f 39/39/39 37/37/37 38/38/38
f 38/38/38 35/35/35 40/40/40
f 41/41/41 39/39/39 38/38/38
f 42/42/42 39/39/39 41/41/41
f 43/43/43 42/42/42 41/41/41
f 44/44/44 38/38/38 40/40/40
f 41/41/41 38/38/38 44/44/44
f 43/43/43 41/41/41 45/45/45
f 45/45/45 41/41/41 44/44/44
f 46/46/46 43/43/43 45/45/45
f 47/47/47 46/46/46 45/45/45
f 48/48/48 47/47/47 45/45/45
f 48/48/48 45/45/45 44/44/44
f 49/49/49 47/47/47 48/48/48
f 50/50/50 44/44/44 40/40/40
f 50/50/50 48/48/48 44/44/44
f 51/51/51 50/50/50 40/40/40
f 52/52/52 49/49/49 48/48/48
f 52/52/52 48/48/48 50/50/50
f 53/53/53 50/50/50 51/51/51
f 53/53/53 52/52/52 50/50/50
f 54/54/54 53/53/53 51/51/51
f 54/54/54 55/55/55 53/53/53
f 55/55/55 56/56/56 53/53/53
f 53/53/53 56/56/56 52/52/52
f 55/55/55 57/57/57 56/56/56
f 52/52/52 58/58/58 49/49/49
f 56/56/56 58/58/58 52/52/52
f 58/58/58 59/59/59 49/49/49
f 57/57/57 60/60/60 56/56/56
f 56/56/56 60/60/60 58/58/58
f 57/57/57 61/61/61 60/60/60
f 58/58/58 62/62/62 59/59/59
f 60/60/60 62/62/62 58/58/58
f 62/62/62 63/63/63 59/59/59
f 61/61/61 64/64/64 60/60/60
f 60/60/60 64/64/64 62/62/62
f 61/61/61 65/65/65 64/64/64
f 62/62/62 66/66/66 63/63/63
f 64/64/64 66/66/66 62/62/62
f 66/66/66 67/67/67 63/63/63
f 65/65/65 68/68/68 64/64/64
f 64/64/64 68/68/68 66/66/66
f 65/65/65 69/69/69 68/68/68
f 69/69/69 70/70/70 68/68/68
f 66/66/66 71/71/71 67/67/67
f 68/68/68 71/71/71 66/66/66
f 68/68/68 70/70/70 71/71/71
f 71/71/71 72/72/72 67/67/67
f 70/70/70 73/73/73 71/71/71
f 71/71/71 73/73/73 72/72/72
f 73/73/73 74/74/74 72/72/72
f 77/77/77 76/76/76 75/75/75
f 78/78/78 77/77/77 75/75/75
f 79/79/79 77/77/77 78/78/78
f 78/78/78 75/75/75 80/80/80
f 81/81/81 79/79/79 78/78/78
f 82/82/82 79/79/79 81/81/81
f 83/83/83 82/82/82 81/81/81
f 84/84/84 78/78/78 80/80/80
f 81/81/81 78/78/78 84/84/84
f 83/83/83 81/81/81 85/85/85
f 85/85/85 81/81/81 84/84/84
f 86/86/86 83/83/83 85/85/85
f 87/87/87 86/86/86 85/85/85
f 88/88/88 87/87/87 85/85/85
f 88/88/88 85/85/85 84/84/84
f 89/89/89 87/87/87 88/88/88
f 90/90/90 84/84/84 80/80/80
f 90/90/90 88/88/88 84/84/84
f 91/91/91 90/90/90 80/80/80
f 92/92/92 89/89/89 88/88/88
f 92/92/92 88/88/88 90/90/90
f 93/93/93 90/90/90 91/91/91
f 93/93/93 92/92/92 90/90/90
f 94/94/94 93/93/93 91/91/91
f 94/94/94 95/95/95 93/93/93
f 95/95/95 96/96/96 93/93/93
f 93/93/93 96/96/96 92/92/92
f 95/95/95 97/97/97 96/96/96
f 92/92/92 98/98/98 89/89/89
f 96/96/96 98/98/98 92/92/92
f 98/98/98 99/99/99 89/89/89
f 97/97/97 100/100/100 96/96/96
f 96/96/96 100/100/100 98/98/98
f 97/97/97 101/101/101 100/100/100
f 98/98/98 102/102/102 99/99/99
f 100/100/100 102/102/102 98/98/98
f 102/102/102 103/103/103 99/99/99
f 101/101/101 104/104/104 100/100/100
f 100/100/100 104/104/104 102/102/102
f 101/101/101 105/105/105 104/104/104
f 102/102/102 106/106/106 103/103/103
f 104/104/104 106/106/106 102/102/102
f 106/106/106 107/107/107 103/103/103
f 105/105/105 108/108/108 104/104/104
f 104/104/104 108/108/108 106/106/106
f 105/105/105 109/109/109 108/108/108
f 109/109/109 110/110/110 108/108/108
f 106/106/106 111/111/111 107/107/107
f 108/108/108 111/111/111 106/106/106
f 108/108/108 110/110/110 111/111/111
f 111/111/111 112/112/112 107/107/107
f 110/110/110 113/113/113 111/111/111
f 111/111/111 113/113/113 112/112/112
f 113/113/113 114/114/114 112/112/112
f 117/117/117 116/116/116 115/115/115
f 118/118/118 117/117/117 115/115/115
f 119/119/119 117/117/117 118/118/118
f 118/118/118 115/115/115 120/120/120
f 121/121/121 119/119/119 118/118/118
f 122/122/122 119/119/119 121/121/121
f 123/123/123 122/122/122 121/121/121
f 124/124/124 118/118/118 120/120/120
f 121/121/121 118/118/118 124/124/124
f 123/123/123 121/121/121 125/125/125
f 125/125/125 121/121/121 124/124/124
f 126/126/126 123/123/123 125/125/125
f 127/127/127 126/126/126 125/125/125
f 128/128/128 127/127/127 125/125/125
f 128/128/128 125/125/125 124/124/124
f 129/129/129 127/127/127 128/128/128
f 130/130/130 124/124/124 120/120/120
f 130/130/130 128/128/128 124/124/124
f 131/131/131 130/130/130 120/120/120
f 132/132/132 129/129/129 128/128/128
f 132/132/132 128/128/128 130/130/130
f 133/133/133 130/130/130 131/131/131
f 133/133/133 132/132/132 130/130/130
f 134/134/134 133/133/133 131/131/131
f 134/134/134 135/135/135 133/133/133
f 135/135/135 136/136/136 133/133/133
f 133/133/133 136/136/136 132/132/132
f 135/135/135 137/137/137 136/136/136
f 132/132/132 138/138/138 129/129/129
f 136/136/136 138/138/138 132/132/132
f 138/138/138 139/139/139 129/129/129
f 137/137/137 140/140/140 136/136/136
f 136/136/136 140/140/140 138/138/138
f 138/138/138 141/141/141 139/139/139
f 140/140/140 141/141/141 138/138/138
f 141/141/141 142/142/142 139/139/139
f 137/137/137 143/143/143 140/140/140
f 137/137/137 144/144/144 143/143/143
f 141/141/141 145/145/145 142/142/142
f 145/145/145 146/146/146 142/142/142
f 140/140/140 147/147/147 141/141/141
f 143/143/143 147/147/147 140/140/140
f 147/147/147 145/145/145 141/141/141
f 145/145/145 148/148/148 146/146/146
f 148/148/148 149/149/149 146/146/146
f 147/147/147 150/150/150 145/145/145
f 150/150/150 148/148/148 145/145/145
f 148/148/148 151/151/151 149/149/149
f 151/151/151 152/152/152 149/149/149
f 153/153/153 151/151/151 148/148/148
f 150/150/150 153/153/153 148/148/148
f 154/154/154 153/153/153 150/150/150
f 155/155/155 150/150/150 147/147/147
f 143/143/143 155/155/155 147/147/147
f 155/155/155 154/154/154 150/150/150
f 143/143/143 156/156/156 155/155/155
f 144/144/144 156/156/156 143/143/143
f 155/155/155 157/157/157 154/154/154
f 156/156/156 157/157/157 155/155/155
f 157/157/157 158/158/158 154/154/154
f 157/157/157 159/159/159 158/158/158
f 159/159/159 160/160/160 158/158/158
f 161/161/161 159/159/159 157/157/157
f 156/156/156 161/161/161 157/157/157
f 162/162/162 161/161/161 156/156/156
f 144/144/144 162/162/162 156/156/156
f 144/144/144 163/163/163 162/162/162
f 163/163/163 164/164/164 162/162/162
f 163/163/163 165/165/165 164/164/164
f 165/165/165 166/166/166 164/164/164
f 169/169/169 168/168/168 167/167/167
f 168/168/168 170/170/170 167/167/167
f 168/168/168 171/171/171 170/170/170
f 167/167/167 170/170/170 172/172/172
f 171/171/171 173/173/173 170/170/170
f 170/170/170 174/174/174 172/172/172
f 170/170/170 173/173/173 174/174/174
f 172/172/172 174/174/174 175/175/175
f 173/173/173 176/176/176 174/174/174
f 174/174/174 177/177/177 175/175/175
f 174/174/174 176/176/176 177/177/177
f 176/176/176 178/178/178 177/177/177
f 181/181/181 180/180/180 179/179/179
f 180/180/180 182/182/182 179/179/179
f 180/180/180 183/183/183 182/182/182
f 179/179/179 182/182/182 184/184/184
f 183/183/183 185/185/185 182/182/182
f 182/182/182 186/186/186 184/184/184
f 182/182/182 185/185/185 186/186/186
f 184/184/184 186/186/186 187/187/187
f 185/185/185 188/188/188 186/186/186
f 186/186/186 189/189/189 187/187/187
f 186/186/186 188/188/188 189/189/189
f 188/188/188 190/190/190 189/189/189
f 193/193/193 192/192/192 191/191/191
f 192/192/192 194/194/194 191/191/191
f 192/192/192 195/195/195 194/194/194
f 191/191/191 194/194/194 196/196/196
f 195/195/195 197/197/197 194/194/194
f 194/194/194 198/198/198 196/196/196
f 194/194/194 197/197/197 198/198/198
f 196/196/196 198/198/198 199/199/199
f 197/197/197 200/200/200 198/198/198
f 198/198/198 201/201/201 199/199/199
f 198/198/198 200/200/200 201/201/201
f 200/200/200 202/202/202 201/201/201
f 205/205/205 204/204/204 203/203/203
f 204/204/204 206/206/206 203/203/203
f 204/204/204 207/207/207 206/206/206
f 203/203/203 206/206/206 208/208/208
f 207/207/207 209/209/209 206/206/206
f 206/206/206 210/210/210 208/208/208
f 206/206/206 209/209/209 210/210/210
f 208/208/208 210/210/210 211/211/211
f 209/209/209 212/212/212 210/210/210
f 210/210/210 213/213/213 211/211/211
f 210/210/210 212/212/212 213/213/213
f 212/212/212 214/214/214 213/213/213
f 217/217/217 216/216/216 215/215/215
f 215/215/215 218/218/218 217/217/217
f 218/218/218 219/219/219 217/217/217
f 218/218/218 220/220/220 219/219/219
f 220/220/220 221/221/221 219/219/219
f 220/220/220 222/222/222 221/221/221
f 222/222/222 223/223/223 221/221/221
f 222/222/222 224/224/224 223/223/223
f 224/224/224 225/225/225 223/223/223
f 224/224/224 226/226/226 225/225/225
f 229/229/229 228/228/228 227/227/227
f 228/228/228 230/230/230 227/227/227
f 227/227/227 230/230/230 231/231/231
f 228/228/228 232/232/232 230/230/230
f 230/230/230 233/233/233 231/231/231
f 231/231/231 233/233/233 234/234/234
f 233/233/233 235/235/235 234/234/234
f 232/232/232 236/236/236 230/230/230
f 230/230/230 236/236/236 233/233/233
f 232/232/232 237/237/237 236/236/236
f 237/237/237 238/238/238 236/236/236
f 233/233/233 239/239/239 235/235/235
f 236/236/236 239/239/239 233/233/233
f 236/236/236 238/238/238 239/239/239
f 239/239/239 240/240/240 235/235/235
f 238/238/238 241/241/241 239/239/239
f 239/239/239 241/241/241 240/240/240
f 241/241/241 242/242/242 240/240/240
f 245/245/245 244/244/244 243/243/243
f 244/244/244 246/246/246 243/243/243
f 243/243/243 246/246/246 247/247/247
f 244/244/244 248/248/248 246/246/246
f 246/246/246 249/249/249 247/247/247
f 247/247/247 249/249/249 250/250/250
f 249/249/249 251/251/251 250/250/250
f 248/248/248 252/252/252 246/246/246
f 246/246/246 252/252/252 249/249/249
f 248/248/248 253/253/253 252/252/252
f 253/253/253 254/254/254 252/252/252
f 249/249/249 255/255/255 251/251/251
f 252/252/252 255/255/255 249/249/249
f 252/252/252 254/254/254 255/255/255
f 255/255/255 256/256/256 251/251/251
f 254/254/254 257/257/257 255/255/255
f 255/255/255 257/257/257 256/256/256
f 257/257/257 258/258/258 256/256/256
f 261/261/261 260/260/260 259/259/259
f 260/260/260 262/262/262 259/259/259
f 259/259/259 262/262/262 263/263/263
f 260/260/260 264/264/264 262/262/262
f 262/262/262 265/265/265 263/263/263
f 263/263/263 265/265/265 266/266/266
f 265/265/265 267/267/267 266/266/266
f 264/264/264 268/268/268 262/262/262
f 262/262/262 268/268/268 265/265/265
f 264/264/264 269/269/269 268/268/268
f 269/269/269 270/270/270 268/268/268
f 265/265/265 271/271/271 267/267/267
f 268/268/268 271/271/271 265/265/265
f 268/268/268 270/270/270 271/271/271
f 271/271/271 272/272/272 267/267/267
f 270/270/270 273/273/273 271/271/271
f 271/271/271 273/273/273 272/272/272
f 273/273/273 274/274/274 272/272/272
f 277/277/277 276/276/276 275/275/275
f 276/276/276 278/278/278 275/275/275
f 275/275/275 278/278/278 279/279/279
f 276/276/276 280/280/280 278/278/278
f 278/278/278 281/281/281 279/279/279
f 279/279/279 281/281/281 282/282/282
f 281/281/281 283/283/283 282/282/282
f 280/280/280 284/284/284 278/278/278
f 278/278/278 284/284/284 281/281/281
f 280/280/280 285/285/285 284/284/284
f 285/285/285 286/286/286 284/284/284
f 281/281/281 287/287/287 283/283/283
f 284/284/284 287/287/287 281/281/281
f 284/284/284 286/286/286 287/287/287
f 287/287/287 288/288/288 283/283/283
f 286/286/286 289/289/289 287/287/287
f 287/287/287 289/289/289 288/288/288
f 289/289/289 290/290/290 288/288/288
f 293/293/293 292/292/292 291/291/291
f 291/291/291 294/294/294 293/293/293
f 294/294/294 295/295/295 293/293/293
f 294/294/294 296/296/296 295/295/295
f 294/294/294 297/297/297 296/296/296
f 297/297/297 298/298/298 296/296/296
f 297/297/297 299/299/299 298/298/298
f 299/299/299 300/300/300 298/298/298
f 299/299/299 301/301/301 300/300/300
f 301/301/301 302/302/302 300/300/300
f 305/305/305 304/304/304 303/303/303
f 306/306/306 305/305/305 303/303/303
f 307/307/307 305/305/305 306/306/306
f 306/306/306 303/303/303 308/308/308
f 309/309/309 307/307/307 306/306/306
f 310/310/310 306/306/306 308/308/308
f 309/309/309 306/306/306 310/310/310
f 310/310/310 308/308/308 311/311/311
f 312/312/312 309/309/309 310/310/310
f 313/313/313 310/310/310 311/311/311
f 312/312/312 310/310/310 313/313/313
f 311/311/311 314/314/314 313/313/313
f 315/315/315 312/312/312 313/313/313
f 314/314/314 316/316/316 313/313/313
f 313/313/313 316/316/316 315/315/315
f 314/314/314 317/317/317 316/316/316
f 316/316/316 318/318/318 315/315/315
f 317/317/317 319/319/319 316/316/316
f 316/316/316 319/319/319 318/318/318
f 319/319/319 320/320/320 318/318/318
f 323/323/323 322/322/322 321/321/321
f 324/324/324 323/323/323 321/321/321
f 325/325/325 323/323/323 324/324/324
f 326/326/326 325/325/325 324/324/324
f 324/324/324 321/321/321 327/327/327
f 326/326/326 324/324/324 328/328/328
f 328/328/328 324/324/324 327/327/327
f 329/329/329 326/326/326 328/328/328
f 327/327/327 330/330/330 328/328/328
f 328/328/328 331/331/331 329/329/329
f 330/330/330 331/331/331 328/328/328
f 332/332/332 330/330/330 327/327/327
f 333/333/333 332/332/332 327/327/327
f 331/331/331 334/334/334 329/329/329
f 329/329/329 334/334/334 335/335/335
f 336/336/336 332/332/332 333/333/333
f 337/337/337 336/336/336 333/333/333
f 334/334/334 338/338/338 335/335/335
f 335/335/335 338/338/338 339/339/339
f 340/340/340 336/336/336 337/337/337
f 341/341/341 340/340/340 337/337/337
f 338/338/338 342/342/342 339/339/339
f 339/339/339 342/342/342 343/343/343
f 344/344/344 340/340/340 341/341/341
f 345/345/345 344/344/344 341/341/341
f 342/342/342 346/346/346 343/343/343
f 343/343/343 346/346/346 347/347/347
f 348/348/348 344/344/344 345/345/345
f 349/349/349 348/348/348 345/345/345
f 347/347/347 350/350/350 349/349/349
f 346/346/346 350/350/350 347/347/347
f 350/350/350 348/348/348 349/349/349
f 340/340/340 351/351/351 336/336/336
f 344/344/344 352/352/352 340/340/340
f 352/352/352 351/351/351 340/340/340
f 348/348/348 353/353/353 344/344/344
f 353/353/353 352/352/352 344/344/344
f 350/350/350 354/354/354 348/348/348
f 354/354/354 353/353/353 348/348/348
f 346/346/346 355/355/355 350/350/350
f 355/355/355 354/354/354 350/350/350
f 342/342/342 356/356/356 346/346/346
f 356/356/356 355/355/355 346/346/346
f 351/351/351 357/357/357 336/336/336
f 336/336/336 357/357/357 332/332/332
f 358/358/358 356/356/356 342/342/342
f 338/338/338 358/358/358 342/342/342
f 357/357/357 359/359/359 332/332/332
f 332/332/332 359/359/359 330/330/330
f 360/360/360 358/358/358 338/338/338
f 334/334/334 360/360/360 338/338/338
f 359/359/359 361/361/361 330/330/330
f 330/330/330 361/361/361 331/331/331
f 331/331/331 362/362/362 334/334/334
f 362/362/362 360/360/360 334/334/334
f 361/361/361 362/362/362 331/331/331
f 356/356/356 363/363/363 355/355/355
f 363/363/363 364/364/364 355/355/355
f 365/365/365 363/363/363 356/356/356
f 358/358/358 365/365/365 356/356/356
f 355/355/355 364/364/364 354/354/354
f 366/366/366 365/365/365 358/358/358
f 360/360/360 366/366/366 358/358/358
f 364/364/364 367/367/367 354/354/354
f 368/368/368 366/366/366 360/360/360
f 362/362/362 368/368/368 360/360/360
f 354/354/354 367/367/367 353/353/353
f 369/369/369 368/368/368 362/362/362
f 361/361/361 369/369/369 362/362/362
f 367/367/367 370/370/370 353/353/353
f 371/371/371 369/369/369 361/361/361
f 353/353/353 370/370/370 352/352/352
f 359/359/359 371/371/371 361/361/361
f 370/370/370 372/372/372 352/352/352
f 373/373/373 371/371/371 359/359/359
f 352/352/352 372/372/372 351/351/351
f 357/357/357 373/373/373 359/359/359
f 372/372/372 374/374/374 351/351/351
f 374/374/374 373/373/373 357/357/357
f 351/351/351 374/374/374 357/357/357
f 377/377/377 376/376/376 375/375/375
f 378/378/378 377/377/377 375/375/375
f 378/378/378 375/375/375 379/379/379
f 380/380/380 377/377/377 378/378/378
f 381/381/381 378/378/378 379/379/379
f 382/382/382 380/380/380 378/378/378
f 382/382/382 378/378/378 381/381/381
f 383/383/383 382/382/382 381/381/381
f 386/386/386 385/385/385 384/384/384
f 385/385/385 387/387/387 384/384/384
f 384/384/384 387/387/387 388/388/388
f 387/387/387 389/389/389 388/388/388
f 392/392/392 391/391/391 390/390/390
f 391/391/391 393/393/393 390/390/390
f 391/391/391 394/394/394 393/393/393
f 390/390/390 393/393/393 395/395/395
f 394/394/394 396/396/396 393/393/393
f 393/393/393 397/397/397 395/395/395
f 393/393/393 396/396/396 397/397/397
f 395/395/395 397/397/397 398/398/398
f 396/396/396 399/399/399 397/397/397
f 397/397/397 400/400/400 398/398/398
f 397/397/397 399/399/399 400/400/400
f 399/399/399 401/401/401 400/400/400
f 401/401/401 402/402/402 400/400/400
f 402/402/402 403/403/403 400/400/400
f 402/402/402 404/404/404 403/403/403
f 404/404/404 405/405/405 403/403/403
f 408/408/408 407/407/407 406/406/406
f 409/409/409 408/408/408 406/406/406
f 410/410/410 408/408/408 409/409/409
f 411/411/411 410/410/410 409/409/409
f 414/414/414 413/413/413 412/412/412
f 413/413/413 415/415/415 412/412/412
f 412/412/412 415/415/415 416/416/416
f 415/415/415 417/417/417 416/416/416
f 416/416/416 417/417/417 418/418/418
f 417/417/417 419/419/419 418/418/418
f 422/422/422 421/421/421 420/420/420
f 423/423/423 422/422/422 420/420/420
f 424/424/424 422/422/422 423/423/423
f 425/425/425 424/424/424 423/423/423
f 426/426/426 424/424/424 425/425/425
f 427/427/427 426/426/426 425/425/425
f 430/430/430 429/429/429 428/428/428
f 431/431/431 430/430/430 428/428/428
f 432/432/432 430/430/430 431/431/431
f 433/433/433 432/432/432 431/431/431
f 434/434/434 432/432/432 433/433/433
f 435/435/435 434/434/434 433/433/433
f 438/438/438 437/437/437 436/436/436
f 439/439/439 438/438/438 436/436/436
f 440/440/440 438/438/438 439/439/439
f 441/441/441 440/440/440 439/439/439
f 442/442/442 440/440/440 441/441/441
f 443/443/443 442/442/442 441/441/441
f 446/446/446 445/445/445 444/444/444
f 447/447/447 446/446/446 444/444/444
f 444/444/444 445/445/445 448/448/448
f 449/449/449 446/446/446 447/447/447
f 445/445/445 450/450/450 448/448/448
f 451/451/451 449/449/449 447/447/447
f 448/448/448 450/450/450 452/452/452
f 453/453/453 449/449/449 451/451/451
f 450/450/450 454/454/454 452/452/452
f 455/455/455 453/453/453 451/451/451
f 452/452/452 454/454/454 456/456/456
f 457/457/457 453/453/453 455/455/455
f 454/454/454 458/458/458 456/456/456
f 459/459/459 457/457/457 455/455/455
f 456/456/456 458/458/458 460/460/460
f 461/461/461 457/457/457 459/459/459
f 458/458/458 462/462/462 460/460/460
f 463/463/463 461/461/461 459/459/459
f 460/460/460 462/462/462 464/464/464
f 465/465/465 461/461/461 463/463/463
f 462/462/462 466/466/466 464/464/464
f 467/467/467 465/465/465 463/463/463
f 464/464/464 466/466/466 467/467/467
f 466/466/466 465/465/465 467/467/467

