# Blender 4.0.0
# www.blender.org
o decimated_mesh
v 0.000069 0.011561 0.001585
v 0.000924 0.011502 0.001271
v 0.001214 0.011769 0.001106
v 0.001907 0.016952 0.000695
v 0.000083 0.011975 0.001573
v -0.000080 0.011518 0.001408
v -0.000090 0.011865 0.001547
v 0.001089 0.011394 -0.000059
v 0.001310 0.011511 0.000831
v 0.001910 0.014666 0.000366
v 0.001907 0.017967 0.000534
v -0.000080 0.011443 -0.000196
v 0.001402 0.011477 0.000001
v 0.001557 0.011793 0.000002
v 0.000916 0.011502 -0.001276
v -0.000080 0.011528 -0.001406
v 0.001311 0.011512 -0.000830
v 0.001904 0.018511 0.000129
v 0.000045 0.011584 -0.001606
v 0.001908 0.015115 -0.000467
v -0.000080 0.012641 0.001204
v 0.001214 0.011769 -0.001106
v -0.000080 0.011706 -0.001540
v 0.001907 0.016352 -0.000686
v 0.001905 0.018603 -0.000198
v -0.000080 0.013705 -0.000196
v -0.000080 0.013447 0.000411
v 0.001907 0.018240 -0.000464
v -0.000081 0.012264 -0.001435
v 0.001645 0.017903 -0.000402
vn 0.9017 -0.1071 -0.4189
vn -0.6986 -0.2822 0.6575
vn -0.8592 0.3341 -0.3875
vn 0.6987 -0.3824 0.6046
vn 0.9010 -0.1094 0.4197
vn -0.3194 0.1750 -0.9313
vn 0.0456 0.1573 0.9865
vn -1.0000 -0.0002 0.0009
vn 0.0503 0.9960 -0.0742
vn 0.8923 -0.4360 0.1172
vn 0.1339 -0.9863 0.0962
vn 0.8534 -0.0734 0.5160
vn 0.1885 0.1146 -0.9753
vn 0.8927 -0.4353 -0.1164
vn -0.6246 0.3225 0.7112
vn 0.0318 0.9960 0.0835
vn 0.3453 0.0150 0.9384
vn 0.6945 -0.3875 -0.6062
vn -0.7088 -0.4263 -0.5620
vn 0.4938 0.0050 -0.8696
vn 0.8672 -0.0863 -0.4904
vn 0.9606 -0.1479 0.2355
vn -0.1655 0.2116 -0.9632
vn -0.9214 0.3733 -0.1082
vn -0.5836 0.3157 -0.7481
vn -0.6886 0.4267 -0.5863
vn 0.4950 0.0025 0.8689
vn 0.0093 -0.9645 -0.2639
vn 0.2668 -0.9612 -0.0699
vn 0.2422 -0.9679 0.0669
vn 0.1471 -0.9832 -0.1078
vn 0.9618 -0.1353 -0.2380
vn -1.0000 0.0006 0.0004
vn -1.0000 -0.0016 0.0008
vn -1.0000 -0.0017 -0.0000
vn -1.0000 0.0001 -0.0001
vn -0.9988 -0.0086 -0.0481
vn -1.0000 -0.0000 -0.0000
vn 0.0158 -0.9736 0.2276
vn 0.0093 0.9989 -0.0463
vn 1.0000 0.0023 0.0042
vn 1.0000 0.0070 0.0021
vn 1.0000 0.0009 0.0004
vn 1.0000 0.0004 -0.0002
vn 1.0000 0.0013 -0.0019
vn 1.0000 0.0002 -0.0001
vn -0.7961 0.3583 0.4877
vn -0.8604 0.3573 0.3634
vn 0.0168 0.9974 0.0698
vn -0.3024 0.2516 0.9194
vn 0.3549 0.0347 0.9343
vn 0.9915 -0.1138 -0.0638
vn 0.3572 0.0406 -0.9332
vn -0.9220 0.3736 0.1020
vn -0.9167 0.3678 0.1562
vn -0.1731 0.0339 0.9843
vn 0.0471 0.9978 -0.0463
vn 0.0047 0.9968 -0.0799
vn -0.9996 -0.0283 0.0012
vn -0.9995 0.0229 0.0232
vn -1.0000 0.0091 0.0040
vn -1.0000 0.0030 -0.0024
vn -1.0000 -0.0009 -0.0030
vn -1.0000 -0.0043 -0.0028
vn -0.9998 -0.0183 -0.0012
vn 0.0334 0.9970 0.0698
vn 0.0146 0.9962 0.0860
vn 1.0000 0.0010 0.0006
vn 1.0000 0.0010 0.0004
vn 1.0000 0.0044 0.0013
vn 0.9999 0.0103 0.0065
vn 1.0000 -0.0003 -0.0027
vn 1.0000 0.0005 -0.0014
s 0
f 22//1 20//1 17//1
f 1//2 7//2 6//2
f 30//3 29//3 26//3
f 2//4 9//4 3//4
f 3//5 9//5 10//5
f 29//6 19//6 23//6
f 5//7 4//7 11//7
f 12//8 27//8 29//8
f 12//9 2//9 8//9
f 9//10 13//10 14//10
f 2//11 8//11 9//11
f 10//12 4//12 3//12
f 24//13 19//13 28//13
f 17//14 14//14 13//14
f 21//15 7//15 11//15
f 8//16 15//16 12//16
f 2//17 5//17 1//17
f 15//18 22//18 17//18
f 19//19 16//19 23//19
f 15//20 24//20 22//20
f 22//21 24//21 20//21
f 10//22 9//22 14//22
f 19//23 29//23 28//23
f 25//24 30//24 26//24
f 29//25 30//25 28//25
f 28//26 30//26 25//26
f 4//27 2//27 3//27
f 15//28 16//28 19//28
f 17//29 13//29 8//29
f 13//30 9//30 8//30
f 15//31 17//31 8//31
f 20//32 14//32 17//32
f 27//33 26//33 29//33
f 29//34 23//34 16//34
f 12//35 29//35 16//35
f 12//36 6//36 21//36
f 7//37 21//37 6//37
f 21//38 27//38 12//38
f 6//39 2//39 1//39
f 2//40 12//40 6//40
f 25//41 18//41 28//41
f 18//42 11//42 28//42
f 11//43 4//43 28//43
f 28//44 4//44 24//44
f 4//45 10//45 20//45
f 24//46 4//46 20//46
f 11//47 18//47 21//47
f 27//48 21//48 18//48
f 12//49 15//49 16//49
f 5//50 11//50 7//50
f 2//51 4//51 5//51
f 14//52 20//52 10//52
f 24//53 15//53 19//53
f 25//54 26//54 18//54
f 26//55 27//55 18//55
f 7//56 1//56 5//56
f 12//57 6//57 8//57
f 8//58 6//58 2//58
f 7//59 12//59 6//59
f 21//60 27//60 7//60
f 27//61 26//61 7//61
f 26//62 29//62 7//62
f 29//63 23//63 7//63
f 23//64 16//64 7//64
f 16//65 12//65 7//65
f 16//66 12//66 8//66
f 16//67 8//67 15//67
f 10//68 11//68 4//68
f 10//69 28//69 11//69
f 28//70 25//70 11//70
f 25//71 18//71 11//71
f 20//72 24//72 10//72
f 24//73 28//73 10//73
