# Blender 4.0.0
# www.blender.org
o decimated_mesh
v 0.000370 0.050895 0.000396
v 0.000370 0.050906 -0.000067
v 0.002899 0.050452 0.000400
v 0.002923 0.050460 -0.000034
v 0.004066 0.050091 0.000440
v 0.003961 0.050219 0.000192
v 0.000370 0.050220 0.000705
v 0.006267 0.048915 0.000382
v 0.004008 0.050115 -0.000269
v 0.003609 0.050109 -0.000509
v 0.000370 0.049842 0.000585
v 0.002450 0.049660 0.000786
v 0.006971 0.048424 0.000385
v 0.006759 0.048625 -0.000050
v 0.003779 0.049771 -0.000787
v 0.000370 0.050453 -0.000787
v 0.006977 0.047053 0.000783
v 0.005978 0.048089 0.000786
v 0.006726 0.048434 -0.000446
v 0.004801 0.049267 -0.000786
v 0.000370 0.049594 0.000234
v 0.006977 0.046492 0.000196
v 0.006976 0.048156 -0.000508
v 0.006977 0.047409 -0.000712
v 0.006976 0.046498 -0.000393
v 0.006977 0.046383 -0.000196
v 0.000370 0.049618 -0.000452
v 0.000370 0.049523 -0.000196
vn 0.4622 0.8530 0.2422
vn 0.2811 0.2687 0.9213
vn 0.1614 0.8910 -0.4243
vn 0.2660 0.8988 0.3484
vn 1.0000 -0.0003 -0.0000
vn 0.5690 0.8162 0.0999
vn 0.1268 0.2849 0.9501
vn 0.0449 0.0923 0.9947
vn 0.2189 0.3651 0.9049
vn 0.1340 0.6685 -0.7316
vn -0.0723 -0.1265 0.9893
vn 0.1459 0.3263 0.9339
vn 1.0000 -0.0005 0.0062
vn 0.1345 0.8389 -0.5273
vn -0.4245 -0.8931 0.1488
vn -0.1544 -0.2992 0.9416
vn 0.6455 0.6651 -0.3755
vn -0.3557 -0.7639 0.5384
vn -0.4111 -0.8783 0.2439
vn 0.8293 0.5364 -0.1564
vn 0.0769 0.4154 0.9064
vn -0.4066 -0.8555 -0.3206
vn 0.3470 0.7029 -0.6209
vn 0.1720 0.9848 0.0254
vn 0.4801 0.8651 -0.1453
vn 0.2076 0.9061 -0.3687
vn 1.0000 -0.0007 -0.0002
vn 1.0000 -0.0004 0.0003
vn 1.0000 -0.0001 -0.0000
vn 1.0000 -0.0002 0.0002
vn 1.0000 -0.0002 0.0003
vn 0.4933 0.8696 -0.0219
vn 0.0084 0.0430 0.9990
vn 0.2444 0.3550 0.9024
vn -0.0020 -0.0045 1.0000
vn -0.3736 -0.7999 -0.4696
vn 0.1592 0.3684 0.9159
vn 1.0000 0.0049 0.0011
vn 1.0000 0.0001 -0.0000
vn 1.0000 -0.0005 -0.0000
vn -0.3095 -0.6867 0.6577
vn 0.3547 0.4961 -0.7925
vn 0.2497 0.2552 -0.9341
vn 0.4582 0.7846 -0.4177
vn 0.2602 0.9474 -0.1862
vn 0.0693 0.4044 0.9120
vn 0.0901 0.3939 0.9147
vn 0.3637 0.6934 -0.6220
vn 0.4110 0.7229 -0.5554
vn 0.1724 0.9847 0.0233
vn 0.2201 0.9751 0.0278
vn 1.0000 -0.0005 -0.0002
vn 0.1721 0.9848 0.0234
vn 0.1724 0.9847 0.0254
vn 0.3570 0.7064 -0.6112
vn 0.3421 0.6930 -0.6346
vn 1.0000 -0.0004 0.0001
vn -0.0000 -0.0014 -1.0000
vn -0.0151 -0.0576 -0.9982
vn 0.1397 0.3266 0.9348
vn 0.1657 0.3680 0.9149
vn 1.0000 -0.0003 0.0007
vn 1.0000 -0.0000 -0.0000
vn 0.0713 0.4156 0.9068
vn 0.0732 0.4024 0.9125
vn 1.0000 0.0011 0.0002
vn 1.0000 -0.0003 -0.0003
vn 1.0000 -0.0013 0.0004
vn 1.0000 0.0059 0.0042
s 0
f 8//1 6//1 5//1
f 13//2 18//2 17//2
f 10//3 2//3 4//3
f 3//4 5//4 6//4
f 2//5 21//5 27//5
f 14//6 8//6 13//6
f 18//7 5//7 12//7
f 20//8 15//8 24//8
f 5//9 18//9 8//9
f 10//10 15//10 16//10
f 12//11 7//11 17//11
f 27//12 25//12 24//12
f 24//13 23//13 13//13
f 16//14 2//14 10//14
f 21//15 28//15 26//15
f 17//16 7//16 11//16
f 23//17 19//17 14//17
f 21//18 22//18 11//18
f 21//19 26//19 22//19
f 14//20 13//20 23//20
f 7//21 12//21 1//21
f 26//22 28//22 27//22
f 9//23 20//23 15//23
f 4//24 2//24 3//24
f 6//25 14//25 9//25
f 4//26 9//26 10//26
f 1//27 7//27 2//27
f 2//28 27//28 16//28
f 28//29 27//29 21//29
f 21//30 2//30 11//30
f 11//31 2//31 7//31
f 14//32 6//32 8//32
f 24//33 15//33 16//33
f 13//34 8//34 18//34
f 18//35 12//35 17//35
f 25//36 26//36 27//36
f 27//37 24//37 16//37
f 13//38 17//38 24//38
f 17//27 22//27 24//27
f 22//39 26//39 25//39
f 25//40 24//40 22//40
f 11//41 22//41 17//41
f 23//42 20//42 19//42
f 24//43 20//43 23//43
f 19//44 9//44 14//44
f 9//45 4//45 6//45
f 3//46 1//46 12//46
f 5//47 3//47 12//47
f 15//48 10//48 9//48
f 9//49 19//49 20//49
f 1//50 3//50 2//50
f 3//51 6//51 4//51
f 16//30 2//30 11//30
f 11//52 2//52 1//52
f 1//53 4//53 2//53
f 1//54 3//54 4//54
f 9//55 20//55 10//55
f 20//56 15//56 10//56
f 27//57 16//57 11//57
f 15//58 20//58 16//58
f 20//59 24//59 16//59
f 24//60 16//60 25//60
f 25//61 16//61 27//61
f 7//62 11//62 1//62
f 27//63 11//63 28//63
f 28//39 11//39 21//39
f 7//64 3//64 1//64
f 7//65 12//65 3//65
f 23//66 17//66 24//66
f 17//52 25//52 24//52
f 17//67 26//67 25//67
f 26//68 17//68 22//68
f 23//69 13//69 17//69
