# Blender 4.0.0
# www.blender.org
o decimated_mesh
v 0.000369 0.050887 0.000383
v 0.000368 0.050871 -0.000165
v -0.000111 0.050926 -0.000062
v -0.000463 0.050852 0.000399
v -0.002749 0.050460 -0.000034
v -0.002726 0.050452 0.000400
v 0.000131 0.050051 0.000788
v 0.000369 0.050220 0.000705
v -0.000324 0.050445 -0.000786
v 0.000369 0.050443 -0.000786
v -0.003940 0.050074 -0.000275
v -0.003760 0.050233 0.000193
v -0.003872 0.050098 0.000442
v 0.000370 0.049840 0.000580
v -0.003656 0.049755 -0.000785
v -0.003440 0.050109 -0.000507
v -0.004603 0.049739 0.000393
v -0.002205 0.049645 0.000790
v -0.004603 0.048513 0.000573
v -0.004603 0.048346 -0.000451
v -0.004603 0.049267 -0.000781
v -0.004603 0.048929 0.000714
v -0.004603 0.049714 -0.000178
v 0.000369 0.049595 0.000235
v 0.000369 0.049618 -0.000451
v -0.004603 0.048288 0.000199
v -0.004603 0.048206 -0.000196
v 0.000369 0.049523 -0.000196
vn -0.0861 0.3366 0.9377
vn 0.0026 0.8327 -0.5537
vn -0.4864 0.8670 -0.1081
vn 1.0000 0.0008 -0.0000
vn -0.2119 0.7972 -0.5652
vn -0.2511 0.9480 -0.1955
vn -0.1376 0.8433 -0.5195
vn -0.0516 0.2927 -0.9548
vn -0.0865 0.3878 0.9177
vn -0.2628 0.8928 0.3659
vn -0.4841 0.2733 -0.8312
vn 0.0017 -0.0111 -0.9999
vn -0.1375 0.6624 -0.7364
vn -0.1181 0.2951 0.9481
vn -0.1583 0.5977 -0.7859
vn -0.0390 0.9909 0.1289
vn -1.0000 -0.0004 0.0002
vn -0.3578 0.6895 -0.6297
vn -0.2161 0.8355 -0.5051
vn -0.4640 0.7123 -0.5267
vn -0.2409 0.9097 0.3383
vn -0.1739 0.9844 0.0255
vn -0.0878 0.3748 0.9229
vn -0.2189 0.8556 0.4691
vn -0.0268 0.8233 -0.5669
vn -0.5119 0.8582 -0.0377
vn 1.0000 0.0005 0.0013
vn 1.0000 -0.0000 -0.0011
vn 1.0000 0.0001 -0.0021
vn 1.0000 -0.0000 -0.0000
vn 1.0000 0.0018 0.0003
vn -0.2500 0.9550 -0.1599
vn -0.0664 0.3221 -0.9444
vn 0.0016 0.4377 0.8991
vn -0.0006 0.4352 0.9003
vn -0.0700 0.3973 0.9150
vn -0.0678 0.3946 0.9164
vn -0.0000 -0.0014 -1.0000
vn -0.2249 0.9108 -0.3463
vn -0.1623 0.8913 -0.4233
vn -0.2601 0.9402 -0.2198
vn -1.0000 -0.0000 -0.0000
vn -1.0000 -0.0003 -0.0000
vn -1.0000 0.0001 0.0006
vn -1.0000 -0.0004 0.0004
vn -1.0000 0.0004 -0.0002
vn -0.3405 0.7006 -0.6270
vn -0.4392 0.8577 0.2675
vn -0.2367 0.3587 0.9029
vn 0.1078 0.9937 -0.0294
vn -0.2129 0.9767 0.0274
vn -0.1741 0.9844 0.0247
vn -0.0214 0.8358 -0.5487
vn -0.1740 0.9844 0.0248
vn -0.1741 0.9844 0.0255
vn -0.0007 0.4363 0.8998
vn 1.0000 0.0014 0.0017
vn 1.0000 0.0010 -0.0001
vn 1.0000 0.0041 -0.0012
vn 0.0038 0.4352 0.9003
vn 0.0026 0.8236 -0.5671
vn -0.0442 0.2501 -0.9672
vn -0.0616 0.3222 -0.9447
vn 1.0000 -0.0038 0.0006
vn 1.0000 -0.0011 -0.0005
vn 1.0000 -0.0003 -0.0007
vn -0.0958 0.3745 0.9223
vn -0.0788 0.3368 0.9383
vn -1.0000 0.0001 0.0007
vn -1.0000 0.0001 0.0003
vn -1.0000 -0.0004 -0.0000
vn -0.2481 0.9488 -0.1956
vn -0.2527 0.9542 -0.1598
vn -1.0000 -0.0006 -0.0003
vn -1.0000 -0.0004 0.0001
vn -1.0000 -0.0008 0.0007
s 0
f 21//1 20//1 25//1
f 10//2 9//2 3//2
f 23//3 12//3 11//3
f 25//4 2//4 24//4
f 19//5 14//5 24//5
f 28//6 27//6 26//6
f 9//7 16//7 3//7
f 18//8 7//8 19//8
f 13//9 18//9 6//9
f 6//10 12//10 13//10
f 8//11 14//11 7//11
f 21//12 15//12 10//12
f 9//13 15//13 16//13
f 18//14 13//14 22//14
f 7//15 14//15 19//15
f 1//16 3//16 4//16
f 23//17 20//17 22//17
f 15//18 21//18 11//18
f 24//19 26//19 19//19
f 23//20 11//20 21//20
f 27//21 28//21 25//21
f 3//22 5//22 6//22
f 10//23 21//23 25//23
f 25//24 20//24 27//24
f 2//25 10//25 3//25
f 23//26 17//26 12//26
f 10//27 2//27 25//27
f 2//28 1//28 8//28
f 14//29 24//29 2//29
f 24//30 28//30 25//30
f 8//31 14//31 2//31
f 28//32 26//32 24//32
f 18//33 19//33 22//33
f 7//34 8//34 4//34
f 8//35 1//35 4//35
f 4//36 6//36 18//36
f 7//37 4//37 18//37
f 15//38 9//38 10//38
f 11//39 5//39 16//39
f 5//40 3//40 16//40
f 12//41 5//41 11//41
f 27//42 26//42 20//42
f 26//43 19//43 20//43
f 17//44 23//44 22//44
f 23//45 21//45 20//45
f 22//46 20//46 19//46
f 11//47 16//47 15//47
f 17//48 13//48 12//48
f 22//49 13//49 17//49
f 3//50 1//50 2//50
f 12//51 6//51 5//51
f 6//52 4//52 3//52
f 2//53 9//53 3//53
f 5//54 4//54 3//54
f 5//55 6//55 4//55
f 7//56 1//56 4//56
f 8//57 14//57 1//57
f 14//58 10//58 1//58
f 10//59 2//59 1//59
f 7//60 8//60 1//60
f 10//61 9//61 2//61
f 22//62 18//62 7//62
f 22//63 7//63 19//63
f 24//64 28//64 14//64
f 28//65 25//65 14//65
f 25//66 10//66 14//66
f 25//67 10//67 20//67
f 20//68 10//68 21//68
f 17//69 19//69 22//69
f 17//70 21//70 19//70
f 21//71 26//71 19//71
f 26//72 24//72 27//72
f 27//73 24//73 28//73
f 27//74 21//74 20//74
f 27//75 26//75 21//75
f 17//76 23//76 21//76
