mtllib Dresser_205_1.mtl
v -0.13949 0.00201 0
v -0.14041 0.00262 0.03038
v -0.14041 0.00262 0
v -0.13949 0.00201 0.03038
v -0.13888 0.00109 0
v -0.13888 0.00109 0.03038
v -0.13866 0 0
v -0.13866 0 0.03038
v -0.13888 -0.00108 0
v -0.13888 -0.00108 0.03038
v -0.13949 -0.002 0
v -0.13949 -0.002 0.03038
v -0.14041 -0.00261 0
v -0.14041 -0.00261 0.03038
v -0.14041 0.00262 0
v -0.14041 0.00262 0.03038
v -0.14149 0.00284 0.03038
v -0.14149 0.00284 0
v -0.14258 0.00262 0.03038
v -0.14258 0.00262 0
v -0.14258 0.00262 0
v -0.14258 0.00262 0.03038
v -0.1435 0.00201 0.03038
v -0.1435 0.00201 0
v -0.14411 0.00109 0.03038
v -0.14411 0.00109 0
v -0.14433 1E-05 0.03038
v -0.14432 1E-05 0
v -0.14411 -0.00108 0.03038
v -0.14411 -0.00108 0
v -0.1435 -0.002 0.03038
v -0.1435 -0.002 0
v -0.14258 -0.00261 0.03038
v -0.14258 -0.00261 0
v -0.14258 -0.00261 0
v -0.14258 -0.00261 0.03038
v -0.14149 -0.00283 0.03038
v -0.14149 -0.00283 0
v -0.14041 -0.00261 0.03038
v -0.14041 -0.00261 0
v 0.14266 0.00201 0
v 0.14175 0.00262 0.03038
v 0.14175 0.00262 0
v 0.14266 0.00201 0.03038
v 0.14328 0.00109 0
v 0.14328 0.00109 0.03038
v 0.14349 0 0
v 0.14349 0 0.03038
v 0.14328 -0.00108 0
v 0.14328 -0.00108 0.03038
v 0.14266 -0.002 0
v 0.14266 -0.002 0.03038
v 0.14175 -0.00261 0
v 0.14175 -0.00261 0.03038
v 0.14175 0.00262 0
v 0.14175 0.00262 0.03038
v 0.14066 0.00284 0.03038
v 0.14066 0.00284 0
v 0.13958 0.00262 0.03038
v 0.13958 0.00262 0
v 0.13958 0.00262 0
v 0.13958 0.00262 0.03038
v 0.13866 0.00201 0.03038
v 0.13866 0.00201 0
v 0.13805 0.00109 0.03038
v 0.13805 0.00109 0
v 0.13783 0 0.03038
v 0.13783 0 0
v 0.13805 -0.00108 0.03038
v 0.13805 -0.00108 0
v 0.13866 -0.002 0.03038
v 0.13866 -0.002 0
v 0.13958 -0.00261 0.03038
v 0.13958 -0.00261 0
v 0.13958 -0.00261 0
v 0.13958 -0.00261 0.03038
v 0.14066 -0.00283 0.03038
v 0.14066 -0.00283 0
v 0.14175 -0.00261 0.03038
v 0.14175 -0.00261 0
v -0.15156 0.00184 0.02934
v 0.15157 0.00184 0.02934
v 0.15157 0.00339 0.03038
v -0.15156 0.00339 0.03038
v 0.15157 0.00443 0.03193
v -0.15156 0.00443 0.03193
v 0.15157 0.00479 0.03377
v -0.15156 0.00479 0.03377
v 0.15157 0.00443 0.0356
v -0.15156 0.00443 0.0356
v 0.15157 0.00339 0.03715
v -0.15156 0.00339 0.03715
v 0.15157 0.00184 0.03819
v -0.15156 0.00184 0.03819
v -0.15156 0.00184 0.03819
v 0.15157 0.00184 0.03819
v 0.15157 0 0.03855
v -0.15156 1E-05 0.03855
v 0.15157 -0.00183 0.03819
v -0.15156 -0.00183 0.03819
v -0.15156 -0.00183 0.03819
v 0.15157 -0.00183 0.03819
v 0.15157 -0.00338 0.03715
v -0.15156 -0.00338 0.03715
v 0.15157 -0.00442 0.0356
v -0.15156 -0.00442 0.0356
v 0.15157 -0.00478 0.03377
v -0.15156 -0.00478 0.03377
v 0.15157 -0.00442 0.03193
v -0.15156 -0.00442 0.03193
v 0.15157 -0.00338 0.03038
v -0.15156 -0.00338 0.03038
v 0.15157 -0.00183 0.02934
v -0.15156 -0.00183 0.02934
v -0.15156 -0.00183 0.02934
v 0.15157 -0.00183 0.02934
v 0.15157 0 0.02898
v -0.15156 1E-05 0.02898
v 0.15157 0.00184 0.02934
v -0.15156 0.00184 0.02934
v -0.14041 0.00262 0
v -0.14149 0.00284 0
v -0.14149 0 0
v -0.13949 0.00201 0
v -0.14258 0.00262 0
v -0.13888 0.00109 0
v -0.1435 0.00201 0
v -0.13866 0 0
v -0.14411 0.00109 0
v -0.13888 -0.00108 0
v -0.14432 1E-05 0
v -0.13949 -0.002 0
v -0.14411 -0.00108 0
v -0.14041 -0.00261 0
v -0.1435 -0.002 0
v -0.14149 -0.00283 0
v -0.14258 -0.00261 0
v 0.14175 0.00262 0
v 0.14066 0.00284 0
v 0.14066 0 0
v 0.14266 0.00201 0
v 0.13958 0.00262 0
v 0.14328 0.00109 0
v 0.13866 0.00201 0
v 0.14349 0 0
v 0.13805 0.00109 0
v 0.14328 -0.00108 0
v 0.13783 0 0
v 0.14266 -0.002 0
v 0.13805 -0.00108 0
v 0.14175 -0.00261 0
v 0.13866 -0.002 0
v 0.14066 -0.00283 0
v 0.13958 -0.00261 0
v -0.15249 0.00354 0.0323
v -0.15249 0.00383 0.03377
v -0.15249 0 0.03377
v -0.15249 0.00271 0.03106
v -0.15249 0.00354 0.03523
v -0.15249 0.00147 0.03023
v -0.15249 0.00271 0.03647
v -0.15249 0 0.02994
v -0.15249 0.00147 0.0373
v -0.15249 -0.00146 0.03023
v -0.15249 1E-05 0.0376
v -0.15249 -0.0027 0.03106
v -0.15249 -0.00146 0.0373
v -0.15249 -0.00353 0.0323
v -0.15249 -0.0027 0.03647
v -0.15249 -0.00382 0.03377
v -0.15249 -0.00353 0.03523
v 0.1525 0 0.03377
v 0.1525 0.00383 0.03377
v 0.1525 0.00354 0.0323
v 0.1525 0.00271 0.03106
v 0.1525 0.00354 0.03523
v 0.1525 0.00147 0.03023
v 0.1525 0.00271 0.03647
v 0.1525 0 0.02994
v 0.1525 0.00147 0.0373
v 0.1525 -0.00146 0.03023
v 0.1525 0 0.0376
v 0.1525 -0.0027 0.03106
v 0.1525 -0.00146 0.0373
v 0.1525 -0.00353 0.0323
v 0.1525 -0.0027 0.03647
v 0.1525 -0.00382 0.03377
v 0.1525 -0.00353 0.03523
v -0.15249 0.00147 0.03023
v -0.15249 0 0.02994
v -0.15156 1E-05 0.02898
v -0.15156 0.00184 0.02934
v -0.15156 -0.00183 0.02934
v -0.15249 0.00271 0.03106
v -0.15249 -0.00146 0.03023
v -0.15156 0.00339 0.03038
v -0.15156 -0.00338 0.03038
v -0.15249 0.00354 0.0323
v -0.15249 -0.0027 0.03106
v -0.15156 0.00443 0.03193
v -0.15156 -0.00442 0.03193
v -0.15249 0.00383 0.03377
v -0.15249 -0.00353 0.0323
v -0.15156 0.00479 0.03377
v -0.15156 -0.00478 0.03377
v -0.15249 0.00354 0.03523
v -0.15249 -0.00382 0.03377
v -0.15156 0.00443 0.0356
v -0.15156 -0.00442 0.0356
v -0.15249 0.00271 0.03647
v -0.15249 -0.00353 0.03523
v -0.15156 0.00339 0.03715
v -0.15156 -0.00338 0.03715
v -0.15249 0.00147 0.0373
v -0.15249 -0.0027 0.03647
v -0.15156 0.00184 0.03819
v -0.15156 -0.00183 0.03819
v -0.15249 1E-05 0.0376
v -0.15249 -0.00146 0.0373
v -0.15156 1E-05 0.03855
v 0.1525 0.00147 0.03023
v 0.1525 0.00271 0.03106
v 0.15157 0.00339 0.03038
v 0.15157 0.00184 0.02934
v 0.15157 0.00443 0.03193
v 0.1525 0 0.02994
v 0.1525 0.00354 0.0323
v 0.15157 0 0.02898
v 0.15157 0.00479 0.03377
v 0.1525 -0.00146 0.03023
v 0.1525 0.00383 0.03377
v 0.15157 -0.00183 0.02934
v 0.15157 0.00443 0.0356
v 0.1525 -0.0027 0.03106
v 0.1525 0.00354 0.03523
v 0.15157 -0.00338 0.03038
v 0.15157 0.00339 0.03715
v 0.1525 -0.00353 0.0323
v 0.1525 0.00271 0.03647
v 0.15157 -0.00442 0.03193
v 0.15157 0.00184 0.03819
v 0.1525 -0.00382 0.03377
v 0.1525 0.00147 0.0373
v 0.15157 -0.00478 0.03377
v 0.15157 0 0.03855
v 0.1525 -0.00353 0.03523
v 0.1525 0 0.0376
v 0.15157 -0.00442 0.0356
v 0.15157 -0.00183 0.03819
v 0.1525 -0.0027 0.03647
v 0.1525 -0.00146 0.0373
v 0.15157 -0.00338 0.03715
v -0.13949 0.00201 0
v -0.14041 0.00262 0.03038
v -0.14041 0.00262 0
v -0.13949 0.00201 0.03038
v -0.13888 0.00109 0
v -0.13888 0.00109 0.03038
v -0.13866 0 0
v -0.13866 0 0.03038
v -0.13888 -0.00108 0
v -0.13888 -0.00108 0.03038
v -0.13949 -0.002 0
v -0.13949 -0.002 0.03038
v -0.14041 -0.00261 0
v -0.14041 -0.00261 0.03038
v -0.14041 0.00262 0
v -0.14041 0.00262 0.03038
v -0.14149 0.00284 0.03038
v -0.14149 0.00284 0
v -0.14258 0.00262 0.03038
v -0.14258 0.00262 0
v -0.14258 0.00262 0
v -0.14258 0.00262 0.03038
v -0.1435 0.00201 0.03038
v -0.1435 0.00201 0
v -0.14411 0.00109 0.03038
v -0.14411 0.00109 0
v -0.14433 1E-05 0.03038
v -0.14432 1E-05 0
v -0.14411 -0.00108 0.03038
v -0.14411 -0.00108 0
v -0.1435 -0.002 0.03038
v -0.1435 -0.002 0
v -0.14258 -0.00261 0.03038
v -0.14258 -0.00261 0
v -0.14258 -0.00261 0
v -0.14258 -0.00261 0.03038
v -0.14149 -0.00283 0.03038
v -0.14149 -0.00283 0
v -0.14041 -0.00261 0.03038
v -0.14041 -0.00261 0
v 0.14266 0.00201 0
v 0.14175 0.00262 0.03038
v 0.14175 0.00262 0
v 0.14266 0.00201 0.03038
v 0.14328 0.00109 0
v 0.14328 0.00109 0.03038
v 0.14349 0 0
v 0.14349 0 0.03038
v 0.14328 -0.00108 0
v 0.14328 -0.00108 0.03038
v 0.14266 -0.002 0
v 0.14266 -0.002 0.03038
v 0.14175 -0.00261 0
v 0.14175 -0.00261 0.03038
v 0.14175 0.00262 0
v 0.14175 0.00262 0.03038
v 0.14066 0.00284 0.03038
v 0.14066 0.00284 0
v 0.13958 0.00262 0.03038
v 0.13958 0.00262 0
v 0.13958 0.00262 0
v 0.13958 0.00262 0.03038
v 0.13866 0.00201 0.03038
v 0.13866 0.00201 0
v 0.13805 0.00109 0.03038
v 0.13805 0.00109 0
v 0.13783 0 0.03038
v 0.13783 0 0
v 0.13805 -0.00108 0.03038
v 0.13805 -0.00108 0
v 0.13866 -0.002 0.03038
v 0.13866 -0.002 0
v 0.13958 -0.00261 0.03038
v 0.13958 -0.00261 0
v 0.13958 -0.00261 0
v 0.13958 -0.00261 0.03038
v 0.14066 -0.00283 0.03038
v 0.14066 -0.00283 0
v 0.14175 -0.00261 0.03038
v 0.14175 -0.00261 0
v -0.15156 0.00184 0.02934
v 0.15157 0.00184 0.02934
v 0.15157 0.00339 0.03038
v -0.15156 0.00339 0.03038
v 0.15157 0.00443 0.03193
v -0.15156 0.00443 0.03193
v 0.15157 0.00479 0.03377
v -0.15156 0.00479 0.03377
v 0.15157 0.00443 0.0356
v -0.15156 0.00443 0.0356
v 0.15157 0.00339 0.03715
v -0.15156 0.00339 0.03715
v 0.15157 0.00184 0.03819
v -0.15156 0.00184 0.03819
v -0.15156 0.00184 0.03819
v 0.15157 0.00184 0.03819
v 0.15157 0 0.03855
v -0.15156 1E-05 0.03855
v 0.15157 -0.00183 0.03819
v -0.15156 -0.00183 0.03819
v -0.15156 -0.00183 0.03819
v 0.15157 -0.00183 0.03819
v 0.15157 -0.00338 0.03715
v -0.15156 -0.00338 0.03715
v 0.15157 -0.00442 0.0356
v -0.15156 -0.00442 0.0356
v 0.15157 -0.00478 0.03377
v -0.15156 -0.00478 0.03377
v 0.15157 -0.00442 0.03193
v -0.15156 -0.00442 0.03193
v 0.15157 -0.00338 0.03038
v -0.15156 -0.00338 0.03038
v 0.15157 -0.00183 0.02934
v -0.15156 -0.00183 0.02934
v -0.15156 -0.00183 0.02934
v 0.15157 -0.00183 0.02934
v 0.15157 0 0.02898
v -0.15156 1E-05 0.02898
v 0.15157 0.00184 0.02934
v -0.15156 0.00184 0.02934
v -0.14041 0.00262 0
v -0.14149 0.00284 0
v -0.14149 0 0
v -0.13949 0.00201 0
v -0.14258 0.00262 0
v -0.13888 0.00109 0
v -0.1435 0.00201 0
v -0.13866 0 0
v -0.14411 0.00109 0
v -0.13888 -0.00108 0
v -0.14432 1E-05 0
v -0.13949 -0.002 0
v -0.14411 -0.00108 0
v -0.14041 -0.00261 0
v -0.1435 -0.002 0
v -0.14149 -0.00283 0
v -0.14258 -0.00261 0
v 0.14175 0.00262 0
v 0.14066 0.00284 0
v 0.14066 0 0
v 0.14266 0.00201 0
v 0.13958 0.00262 0
v 0.14328 0.00109 0
v 0.13866 0.00201 0
v 0.14349 0 0
v 0.13805 0.00109 0
v 0.14328 -0.00108 0
v 0.13783 0 0
v 0.14266 -0.002 0
v 0.13805 -0.00108 0
v 0.14175 -0.00261 0
v 0.13866 -0.002 0
v 0.14066 -0.00283 0
v 0.13958 -0.00261 0
v -0.15249 0.00354 0.0323
v -0.15249 0.00383 0.03377
v -0.15249 0 0.03377
v -0.15249 0.00271 0.03106
v -0.15249 0.00354 0.03523
v -0.15249 0.00147 0.03023
v -0.15249 0.00271 0.03647
v -0.15249 0 0.02994
v -0.15249 0.00147 0.0373
v -0.15249 -0.00146 0.03023
v -0.15249 1E-05 0.0376
v -0.15249 -0.0027 0.03106
v -0.15249 -0.00146 0.0373
v -0.15249 -0.00353 0.0323
v -0.15249 -0.0027 0.03647
v -0.15249 -0.00382 0.03377
v -0.15249 -0.00353 0.03523
v 0.1525 0 0.03377
v 0.1525 0.00383 0.03377
v 0.1525 0.00354 0.0323
v 0.1525 0.00271 0.03106
v 0.1525 0.00354 0.03523
v 0.1525 0.00147 0.03023
v 0.1525 0.00271 0.03647
v 0.1525 0 0.02994
v 0.1525 0.00147 0.0373
v 0.1525 -0.00146 0.03023
v 0.1525 0 0.0376
v 0.1525 -0.0027 0.03106
v 0.1525 -0.00146 0.0373
v 0.1525 -0.00353 0.0323
v 0.1525 -0.0027 0.03647
v 0.1525 -0.00382 0.03377
v 0.1525 -0.00353 0.03523
v -0.15249 0.00147 0.03023
v -0.15249 0 0.02994
v -0.15156 1E-05 0.02898
v -0.15156 0.00184 0.02934
v -0.15156 -0.00183 0.02934
v -0.15249 0.00271 0.03106
v -0.15249 -0.00146 0.03023
v -0.15156 0.00339 0.03038
v -0.15156 -0.00338 0.03038
v -0.15249 0.00354 0.0323
v -0.15249 -0.0027 0.03106
v -0.15156 0.00443 0.03193
v -0.15156 -0.00442 0.03193
v -0.15249 0.00383 0.03377
v -0.15249 -0.00353 0.0323
v -0.15156 0.00479 0.03377
v -0.15156 -0.00478 0.03377
v -0.15249 0.00354 0.03523
v -0.15249 -0.00382 0.03377
v -0.15156 0.00443 0.0356
v -0.15156 -0.00442 0.0356
v -0.15249 0.00271 0.03647
v -0.15249 -0.00353 0.03523
v -0.15156 0.00339 0.03715
v -0.15156 -0.00338 0.03715
v -0.15249 0.00147 0.0373
v -0.15249 -0.0027 0.03647
v -0.15156 0.00184 0.03819
v -0.15156 -0.00183 0.03819
v -0.15249 1E-05 0.0376
v -0.15249 -0.00146 0.0373
v -0.15156 1E-05 0.03855
v 0.1525 0.00147 0.03023
v 0.1525 0.00271 0.03106
v 0.15157 0.00339 0.03038
v 0.15157 0.00184 0.02934
v 0.15157 0.00443 0.03193
v 0.1525 0 0.02994
v 0.1525 0.00354 0.0323
v 0.15157 0 0.02898
v 0.15157 0.00479 0.03377
v 0.1525 -0.00146 0.03023
v 0.1525 0.00383 0.03377
v 0.15157 -0.00183 0.02934
v 0.15157 0.00443 0.0356
v 0.1525 -0.0027 0.03106
v 0.1525 0.00354 0.03523
v 0.15157 -0.00338 0.03038
v 0.15157 0.00339 0.03715
v 0.1525 -0.00353 0.0323
v 0.1525 0.00271 0.03647
v 0.15157 -0.00442 0.03193
v 0.15157 0.00184 0.03819
v 0.1525 -0.00382 0.03377
v 0.1525 0.00147 0.0373
v 0.15157 -0.00478 0.03377
v 0.15157 0 0.03855
v 0.1525 -0.00353 0.03523
v 0.1525 0 0.0376
v 0.15157 -0.00442 0.0356
v 0.15157 -0.00183 0.03819
v 0.1525 -0.0027 0.03647
v 0.1525 -0.00146 0.0373
v 0.15157 -0.00338 0.03715
v -0.13949 0.00201 0
v -0.14041 0.00262 0.03038
v -0.14041 0.00262 0
v -0.13949 0.00201 0.03038
v -0.13888 0.00109 0
v -0.13888 0.00109 0.03038
v -0.13866 0 0
v -0.13866 0 0.03038
v -0.13888 -0.00108 0
v -0.13888 -0.00108 0.03038
v -0.13949 -0.002 0
v -0.13949 -0.002 0.03038
v -0.14041 -0.00261 0
v -0.14041 -0.00261 0.03038
v -0.14041 0.00262 0
v -0.14041 0.00262 0.03038
v -0.14149 0.00284 0.03038
v -0.14149 0.00284 0
v -0.14258 0.00262 0.03038
v -0.14258 0.00262 0
v -0.14258 0.00262 0
v -0.14258 0.00262 0.03038
v -0.1435 0.00201 0.03038
v -0.1435 0.00201 0
v -0.14411 0.00109 0.03038
v -0.14411 0.00109 0
v -0.14433 1E-05 0.03038
v -0.14432 1E-05 0
v -0.14411 -0.00108 0.03038
v -0.14411 -0.00108 0
v -0.1435 -0.002 0.03038
v -0.1435 -0.002 0
v -0.14258 -0.00261 0.03038
v -0.14258 -0.00261 0
v -0.14258 -0.00261 0
v -0.14258 -0.00261 0.03038
v -0.14149 -0.00283 0.03038
v -0.14149 -0.00283 0
v -0.14041 -0.00261 0.03038
v -0.14041 -0.00261 0
v 0.14266 0.00201 0
v 0.14175 0.00262 0.03038
v 0.14175 0.00262 0
v 0.14266 0.00201 0.03038
v 0.14328 0.00109 0
v 0.14328 0.00109 0.03038
v 0.14349 0 0
v 0.14349 0 0.03038
v 0.14328 -0.00108 0
v 0.14328 -0.00108 0.03038
v 0.14266 -0.002 0
v 0.14266 -0.002 0.03038
v 0.14175 -0.00261 0
v 0.14175 -0.00261 0.03038
v 0.14175 0.00262 0
v 0.14175 0.00262 0.03038
v 0.14066 0.00284 0.03038
v 0.14066 0.00284 0
v 0.13958 0.00262 0.03038
v 0.13958 0.00262 0
v 0.13958 0.00262 0
v 0.13958 0.00262 0.03038
v 0.13866 0.00201 0.03038
v 0.13866 0.00201 0
v 0.13805 0.00109 0.03038
v 0.13805 0.00109 0
v 0.13783 0 0.03038
v 0.13783 0 0
v 0.13805 -0.00108 0.03038
v 0.13805 -0.00108 0
v 0.13866 -0.002 0.03038
v 0.13866 -0.002 0
v 0.13958 -0.00261 0.03038
v 0.13958 -0.00261 0
v 0.13958 -0.00261 0
v 0.13958 -0.00261 0.03038
v 0.14066 -0.00283 0.03038
v 0.14066 -0.00283 0
v 0.14175 -0.00261 0.03038
v 0.14175 -0.00261 0
v -0.15156 0.00184 0.02934
v 0.15157 0.00184 0.02934
v 0.15157 0.00339 0.03038
v -0.15156 0.00339 0.03038
v 0.15157 0.00443 0.03193
v -0.15156 0.00443 0.03193
v 0.15157 0.00479 0.03377
v -0.15156 0.00479 0.03377
v 0.15157 0.00443 0.0356
v -0.15156 0.00443 0.0356
v 0.15157 0.00339 0.03715
v -0.15156 0.00339 0.03715
v 0.15157 0.00184 0.03819
v -0.15156 0.00184 0.03819
v -0.15156 0.00184 0.03819
v 0.15157 0.00184 0.03819
v 0.15157 0 0.03855
v -0.15156 1E-05 0.03855
v 0.15157 -0.00183 0.03819
v -0.15156 -0.00183 0.03819
v -0.15156 -0.00183 0.03819
v 0.15157 -0.00183 0.03819
v 0.15157 -0.00338 0.03715
v -0.15156 -0.00338 0.03715
v 0.15157 -0.00442 0.0356
v -0.15156 -0.00442 0.0356
v 0.15157 -0.00478 0.03377
v -0.15156 -0.00478 0.03377
v 0.15157 -0.00442 0.03193
v -0.15156 -0.00442 0.03193
v 0.15157 -0.00338 0.03038
v -0.15156 -0.00338 0.03038
v 0.15157 -0.00183 0.02934
v -0.15156 -0.00183 0.02934
v -0.15156 -0.00183 0.02934
v 0.15157 -0.00183 0.02934
v 0.15157 0 0.02898
v -0.15156 1E-05 0.02898
v 0.15157 0.00184 0.02934
v -0.15156 0.00184 0.02934
v -0.14041 0.00262 0
v -0.14149 0.00284 0
v -0.14149 0 0
v -0.13949 0.00201 0
v -0.14258 0.00262 0
v -0.13888 0.00109 0
v -0.1435 0.00201 0
v -0.13866 0 0
v -0.14411 0.00109 0
v -0.13888 -0.00108 0
v -0.14432 1E-05 0
v -0.13949 -0.002 0
v -0.14411 -0.00108 0
v -0.14041 -0.00261 0
v -0.1435 -0.002 0
v -0.14149 -0.00283 0
v -0.14258 -0.00261 0
v 0.14175 0.00262 0
v 0.14066 0.00284 0
v 0.14066 0 0
v 0.14266 0.00201 0
v 0.13958 0.00262 0
v 0.14328 0.00109 0
v 0.13866 0.00201 0
v 0.14349 0 0
v 0.13805 0.00109 0
v 0.14328 -0.00108 0
v 0.13783 0 0
v 0.14266 -0.002 0
v 0.13805 -0.00108 0
v 0.14175 -0.00261 0
v 0.13866 -0.002 0
v 0.14066 -0.00283 0
v 0.13958 -0.00261 0
v -0.15249 0.00354 0.0323
v -0.15249 0.00383 0.03377
v -0.15249 0 0.03377
v -0.15249 0.00271 0.03106
v -0.15249 0.00354 0.03523
v -0.15249 0.00147 0.03023
v -0.15249 0.00271 0.03647
v -0.15249 0 0.02994
v -0.15249 0.00147 0.0373
v -0.15249 -0.00146 0.03023
v -0.15249 1E-05 0.0376
v -0.15249 -0.0027 0.03106
v -0.15249 -0.00146 0.0373
v -0.15249 -0.00353 0.0323
v -0.15249 -0.0027 0.03647
v -0.15249 -0.00382 0.03377
v -0.15249 -0.00353 0.03523
v 0.1525 0 0.03377
v 0.1525 0.00383 0.03377
v 0.1525 0.00354 0.0323
v 0.1525 0.00271 0.03106
v 0.1525 0.00354 0.03523
v 0.1525 0.00147 0.03023
v 0.1525 0.00271 0.03647
v 0.1525 0 0.02994
v 0.1525 0.00147 0.0373
v 0.1525 -0.00146 0.03023
v 0.1525 0 0.0376
v 0.1525 -0.0027 0.03106
v 0.1525 -0.00146 0.0373
v 0.1525 -0.00353 0.0323
v 0.1525 -0.0027 0.03647
v 0.1525 -0.00382 0.03377
v 0.1525 -0.00353 0.03523
v -0.15249 0.00147 0.03023
v -0.15249 0 0.02994
v -0.15156 1E-05 0.02898
v -0.15156 0.00184 0.02934
v -0.15156 -0.00183 0.02934
v -0.15249 0.00271 0.03106
v -0.15249 -0.00146 0.03023
v -0.15156 0.00339 0.03038
v -0.15156 -0.00338 0.03038
v -0.15249 0.00354 0.0323
v -0.15249 -0.0027 0.03106
v -0.15156 0.00443 0.03193
v -0.15156 -0.00442 0.03193
v -0.15249 0.00383 0.03377
v -0.15249 -0.00353 0.0323
v -0.15156 0.00479 0.03377
v -0.15156 -0.00478 0.03377
v -0.15249 0.00354 0.03523
v -0.15249 -0.00382 0.03377
v -0.15156 0.00443 0.0356
v -0.15156 -0.00442 0.0356
v -0.15249 0.00271 0.03647
v -0.15249 -0.00353 0.03523
v -0.15156 0.00339 0.03715
v -0.15156 -0.00338 0.03715
v -0.15249 0.00147 0.0373
v -0.15249 -0.0027 0.03647
v -0.15156 0.00184 0.03819
v -0.15156 -0.00183 0.03819
v -0.15249 1E-05 0.0376
v -0.15249 -0.00146 0.0373
v -0.15156 1E-05 0.03855
v 0.1525 0.00147 0.03023
v 0.1525 0.00271 0.03106
v 0.15157 0.00339 0.03038
v 0.15157 0.00184 0.02934
v 0.15157 0.00443 0.03193
v 0.1525 0 0.02994
v 0.1525 0.00354 0.0323
v 0.15157 0 0.02898
v 0.15157 0.00479 0.03377
v 0.1525 -0.00146 0.03023
v 0.1525 0.00383 0.03377
v 0.15157 -0.00183 0.02934
v 0.15157 0.00443 0.0356
v 0.1525 -0.0027 0.03106
v 0.1525 0.00354 0.03523
v 0.15157 -0.00338 0.03038
v 0.15157 0.00339 0.03715
v 0.1525 -0.00353 0.0323
v 0.1525 0.00271 0.03647
v 0.15157 -0.00442 0.03193
v 0.15157 0.00184 0.03819
v 0.1525 -0.00382 0.03377
v 0.1525 0.00147 0.0373
v 0.15157 -0.00478 0.03377
v 0.15157 0 0.03855
v 0.1525 -0.00353 0.03523
v 0.1525 0 0.0376
v 0.15157 -0.00442 0.0356
v 0.15157 -0.00183 0.03819
v 0.1525 -0.0027 0.03647
v 0.1525 -0.00146 0.0373
v 0.15157 -0.00338 0.03715
v -0.13949 0.00201 0
v -0.14041 0.00262 0.03038
v -0.14041 0.00262 0
v -0.13949 0.00201 0.03038
v -0.13888 0.00109 0
v -0.13888 0.00109 0.03038
v -0.13866 0 0
v -0.13866 0 0.03038
v -0.13888 -0.00108 0
v -0.13888 -0.00108 0.03038
v -0.13949 -0.002 0
v -0.13949 -0.002 0.03038
v -0.14041 -0.00261 0
v -0.14041 -0.00261 0.03038
v -0.14041 0.00262 0
v -0.14041 0.00262 0.03038
v -0.14149 0.00284 0.03038
v -0.14149 0.00284 0
v -0.14258 0.00262 0.03038
v -0.14258 0.00262 0
v -0.14258 0.00262 0
v -0.14258 0.00262 0.03038
v -0.1435 0.00201 0.03038
v -0.1435 0.00201 0
v -0.14411 0.00109 0.03038
v -0.14411 0.00109 0
v -0.14433 1E-05 0.03038
v -0.14432 1E-05 0
v -0.14411 -0.00108 0.03038
v -0.14411 -0.00108 0
v -0.1435 -0.002 0.03038
v -0.1435 -0.002 0
v -0.14258 -0.00261 0.03038
v -0.14258 -0.00261 0
v -0.14258 -0.00261 0
v -0.14258 -0.00261 0.03038
v -0.14149 -0.00283 0.03038
v -0.14149 -0.00283 0
v -0.14041 -0.00261 0.03038
v -0.14041 -0.00261 0
v 0.14266 0.00201 0
v 0.14175 0.00262 0.03038
v 0.14175 0.00262 0
v 0.14266 0.00201 0.03038
v 0.14328 0.00109 0
v 0.14328 0.00109 0.03038
v 0.14349 0 0
v 0.14349 0 0.03038
v 0.14328 -0.00108 0
v 0.14328 -0.00108 0.03038
v 0.14266 -0.002 0
v 0.14266 -0.002 0.03038
v 0.14175 -0.00261 0
v 0.14175 -0.00261 0.03038
v 0.14175 0.00262 0
v 0.14175 0.00262 0.03038
v 0.14066 0.00284 0.03038
v 0.14066 0.00284 0
v 0.13958 0.00262 0.03038
v 0.13958 0.00262 0
v 0.13958 0.00262 0
v 0.13958 0.00262 0.03038
v 0.13866 0.00201 0.03038
v 0.13866 0.00201 0
v 0.13805 0.00109 0.03038
v 0.13805 0.00109 0
v 0.13783 0 0.03038
v 0.13783 0 0
v 0.13805 -0.00108 0.03038
v 0.13805 -0.00108 0
v 0.13866 -0.002 0.03038
v 0.13866 -0.002 0
v 0.13958 -0.00261 0.03038
v 0.13958 -0.00261 0
v 0.13958 -0.00261 0
v 0.13958 -0.00261 0.03038
v 0.14066 -0.00283 0.03038
v 0.14066 -0.00283 0
v 0.14175 -0.00261 0.03038
v 0.14175 -0.00261 0
v -0.15156 0.00184 0.02934
v 0.15157 0.00184 0.02934
v 0.15157 0.00339 0.03038
v -0.15156 0.00339 0.03038
v 0.15157 0.00443 0.03193
v -0.15156 0.00443 0.03193
v 0.15157 0.00479 0.03377
v -0.15156 0.00479 0.03377
v 0.15157 0.00443 0.0356
v -0.15156 0.00443 0.0356
v 0.15157 0.00339 0.03715
v -0.15156 0.00339 0.03715
v 0.15157 0.00184 0.03819
v -0.15156 0.00184 0.03819
v -0.15156 0.00184 0.03819
v 0.15157 0.00184 0.03819
v 0.15157 0 0.03855
v -0.15156 1E-05 0.03855
v 0.15157 -0.00183 0.03819
v -0.15156 -0.00183 0.03819
v -0.15156 -0.00183 0.03819
v 0.15157 -0.00183 0.03819
v 0.15157 -0.00338 0.03715
v -0.15156 -0.00338 0.03715
v 0.15157 -0.00442 0.0356
v -0.15156 -0.00442 0.0356
v 0.15157 -0.00478 0.03377
v -0.15156 -0.00478 0.03377
v 0.15157 -0.00442 0.03193
v -0.15156 -0.00442 0.03193
v 0.15157 -0.00338 0.03038
v -0.15156 -0.00338 0.03038
v 0.15157 -0.00183 0.02934
v -0.15156 -0.00183 0.02934
v -0.15156 -0.00183 0.02934
v 0.15157 -0.00183 0.02934
v 0.15157 0 0.02898
v -0.15156 1E-05 0.02898
v 0.15157 0.00184 0.02934
v -0.15156 0.00184 0.02934
v -0.14041 0.00262 0
v -0.14149 0.00284 0
v -0.14149 0 0
v -0.13949 0.00201 0
v -0.14258 0.00262 0
v -0.13888 0.00109 0
v -0.1435 0.00201 0
v -0.13866 0 0
v -0.14411 0.00109 0
v -0.13888 -0.00108 0
v -0.14432 1E-05 0
v -0.13949 -0.002 0
v -0.14411 -0.00108 0
v -0.14041 -0.00261 0
v -0.1435 -0.002 0
v -0.14149 -0.00283 0
v -0.14258 -0.00261 0
v 0.14175 0.00262 0
v 0.14066 0.00284 0
v 0.14066 0 0
v 0.14266 0.00201 0
v 0.13958 0.00262 0
v 0.14328 0.00109 0
v 0.13866 0.00201 0
v 0.14349 0 0
v 0.13805 0.00109 0
v 0.14328 -0.00108 0
v 0.13783 0 0
v 0.14266 -0.002 0
v 0.13805 -0.00108 0
v 0.14175 -0.00261 0
v 0.13866 -0.002 0
v 0.14066 -0.00283 0
v 0.13958 -0.00261 0
v -0.15249 0.00354 0.0323
v -0.15249 0.00383 0.03377
v -0.15249 0 0.03377
v -0.15249 0.00271 0.03106
v -0.15249 0.00354 0.03523
v -0.15249 0.00147 0.03023
v -0.15249 0.00271 0.03647
v -0.15249 0 0.02994
v -0.15249 0.00147 0.0373
v -0.15249 -0.00146 0.03023
v -0.15249 1E-05 0.0376
v -0.15249 -0.0027 0.03106
v -0.15249 -0.00146 0.0373
v -0.15249 -0.00353 0.0323
v -0.15249 -0.0027 0.03647
v -0.15249 -0.00382 0.03377
v -0.15249 -0.00353 0.03523
v 0.1525 0 0.03377
v 0.1525 0.00383 0.03377
v 0.1525 0.00354 0.0323
v 0.1525 0.00271 0.03106
v 0.1525 0.00354 0.03523
v 0.1525 0.00147 0.03023
v 0.1525 0.00271 0.03647
v 0.1525 0 0.02994
v 0.1525 0.00147 0.0373
v 0.1525 -0.00146 0.03023
v 0.1525 0 0.0376
v 0.1525 -0.0027 0.03106
v 0.1525 -0.00146 0.0373
v 0.1525 -0.00353 0.0323
v 0.1525 -0.0027 0.03647
v 0.1525 -0.00382 0.03377
v 0.1525 -0.00353 0.03523
v -0.15249 0.00147 0.03023
v -0.15249 0 0.02994
v -0.15156 1E-05 0.02898
v -0.15156 0.00184 0.02934
v -0.15156 -0.00183 0.02934
v -0.15249 0.00271 0.03106
v -0.15249 -0.00146 0.03023
v -0.15156 0.00339 0.03038
v -0.15156 -0.00338 0.03038
v -0.15249 0.00354 0.0323
v -0.15249 -0.0027 0.03106
v -0.15156 0.00443 0.03193
v -0.15156 -0.00442 0.03193
v -0.15249 0.00383 0.03377
v -0.15249 -0.00353 0.0323
v -0.15156 0.00479 0.03377
v -0.15156 -0.00478 0.03377
v -0.15249 0.00354 0.03523
v -0.15249 -0.00382 0.03377
v -0.15156 0.00443 0.0356
v -0.15156 -0.00442 0.0356
v -0.15249 0.00271 0.03647
v -0.15249 -0.00353 0.03523
v -0.15156 0.00339 0.03715
v -0.15156 -0.00338 0.03715
v -0.15249 0.00147 0.0373
v -0.15249 -0.0027 0.03647
v -0.15156 0.00184 0.03819
v -0.15156 -0.00183 0.03819
v -0.15249 1E-05 0.0376
v -0.15249 -0.00146 0.0373
v -0.15156 1E-05 0.03855
v 0.1525 0.00147 0.03023
v 0.1525 0.00271 0.03106
v 0.15157 0.00339 0.03038
v 0.15157 0.00184 0.02934
v 0.15157 0.00443 0.03193
v 0.1525 0 0.02994
v 0.1525 0.00354 0.0323
v 0.15157 0 0.02898
v 0.15157 0.00479 0.03377
v 0.1525 -0.00146 0.03023
v 0.1525 0.00383 0.03377
v 0.15157 -0.00183 0.02934
v 0.15157 0.00443 0.0356
v 0.1525 -0.0027 0.03106
v 0.1525 0.00354 0.03523
v 0.15157 -0.00338 0.03038
v 0.15157 0.00339 0.03715
v 0.1525 -0.00353 0.0323
v 0.1525 0.00271 0.03647
v 0.15157 -0.00442 0.03193
v 0.15157 0.00184 0.03819
v 0.1525 -0.00382 0.03377
v 0.1525 0.00147 0.0373
v 0.15157 -0.00478 0.03377
v 0.15157 0 0.03855
v 0.1525 -0.00353 0.03523
v 0.1525 0 0.0376
v 0.15157 -0.00442 0.0356
v 0.15157 -0.00183 0.03819
v 0.1525 -0.0027 0.03647
v 0.1525 -0.00146 0.0373
v 0.15157 -0.00338 0.03715
vt -10.03768 0.821121
vt -9.9709 0.8197725
vt -10.03768 0.8197725
vt -9.9709 0.821121
vt -10.03768 0.8231399
vt -9.9709 0.8231399
vt -10.03768 0.8255222
vt -9.9709 0.8255222
vt -10.03768 0.8279045
vt -9.9709 0.8279045
vt -10.03768 0.8299234
vt -9.9709 0.8299234
vt -10.03768 0.8312719
vt -9.9709 0.8312719
vt -9.974336 0.804857
vt -10.03424 0.804857
vt -10.03424 0.8069942
vt -9.974336 0.8069942
vt -10.03424 0.8091304
vt -9.974336 0.8091304
vt -9.9709 0.7817085
vt -10.03768 0.7817085
vt -10.03768 0.7830589
vt -9.9709 0.7830589
vt -10.03768 0.7850778
vt -9.9709 0.7850778
vt -10.03768 0.7874591
vt -9.9709 0.7874591
vt -10.03768 0.7898414
vt -9.9709 0.7898414
vt -10.03768 0.7918603
vt -9.9709 0.7918603
vt -10.03768 0.7932098
vt -9.9709 0.7932098
vt -10.03424 0.7710683
vt -9.974336 0.7710683
vt -9.974336 0.7689312
vt -10.03424 0.7689312
vt -9.974336 0.766794
vt -10.03424 0.766794
vt -10.03768 0.7449958
vt -9.9709 0.7436473
vt -10.03768 0.7436473
vt -9.9709 0.7449958
vt -10.03768 0.7470148
vt -9.9709 0.7470148
vt -10.03768 0.749397
vt -9.9709 0.749397
vt -10.03768 0.7517793
vt -9.9709 0.7517793
vt -10.03768 0.7537982
vt -9.9709 0.7537982
vt -10.03768 0.7551467
vt -9.9709 0.7551467
vt -9.974337 0.7287309
vt -10.03424 0.7287309
vt -10.03424 0.7308681
vt -9.974337 0.7308681
vt -10.03424 0.7330053
vt -9.974337 0.7330053
vt -9.9709 0.7055833
vt -10.03768 0.7055833
vt -10.03768 0.7069328
vt -9.9709 0.7069328
vt -10.03768 0.7089517
vt -9.9709 0.7089517
vt -10.03768 0.711334
vt -9.9709 0.711334
vt -10.03768 0.7137163
vt -9.9709 0.7137163
vt -10.03768 0.7157342
vt -9.9709 0.7157342
vt -10.03768 0.7170837
vt -9.9709 0.7170837
vt -10.03424 0.6949422
vt -9.974336 0.6949422
vt -9.974336 0.692806
vt -10.03424 0.692806
vt -9.974336 0.6906688
vt -10.03424 0.6906688
vt -9.222989 0.9187925
vt -9.889388 0.9187925
vt -9.889388 0.9210746
vt -9.222989 0.9210746
vt -9.889388 0.9244878
vt -9.222989 0.9244878
vt -9.889388 0.9285161
vt -9.222989 0.9285161
vt -9.889388 0.9325426
vt -9.222989 0.9325426
vt -9.889388 0.9359577
vt -9.222989 0.9359577
vt -9.889388 0.9382389
vt -9.222989 0.9382389
vt -9.257284 0.8969848
vt -9.855092 0.8969848
vt -9.855092 0.9005973
vt -9.257284 0.9005973
vt -9.855092 0.9042099
vt -9.257284 0.9042099
vt -9.22299 0.8642356
vt -9.889386 0.8642356
vt -9.889386 0.8665178
vt -9.22299 0.8665178
vt -9.889386 0.8699319
vt -9.22299 0.8699319
vt -9.889386 0.8739593
vt -9.22299 0.8739593
vt -9.889386 0.8779867
vt -9.22299 0.8779867
vt -9.889386 0.8814008
vt -9.22299 0.8814008
vt -9.889386 0.883683
vt -9.22299 0.883683
vt -9.257299 0.8426082
vt -9.855077 0.8426082
vt -9.855077 0.8462217
vt -9.257299 0.8462217
vt -9.855077 0.8498342
vt -9.257299 0.8498342
vt -10.05 0.594321
vt -10.05042 0.5964372
vt -10.04489 0.5964372
vt -10.0488 0.5925272
vt -10.05 0.5985534
vt -10.04701 0.5913284
vt -10.0488 0.6003473
vt -10.04489 0.5909078
vt -10.04701 0.601546
vt -10.04278 0.5913284
vt -10.04489 0.6019666
vt -10.04098 0.5925272
vt -10.04278 0.601546
vt -10.03978 0.594321
vt -10.04098 0.6003473
vt -10.03936 0.5964372
vt -10.03978 0.5985534
vt -10.05 0.5689456
vt -10.05042 0.5710618
vt -10.04489 0.5710618
vt -10.0488 0.5671518
vt -10.05 0.5731781
vt -10.04701 0.565953
vt -10.0488 0.5749719
vt -10.04489 0.5655324
vt -10.04701 0.5761707
vt -10.04278 0.565953
vt -10.04489 0.5765913
vt -10.04098 0.5671518
vt -10.04278 0.5761707
vt -10.03978 0.5689456
vt -10.04098 0.5749719
vt -10.03936 0.5710618
vt -10.03978 0.5731781
vt -10.0354 0.6587265
vt -10.03847 0.6581171
vt -10.03847 0.6661355
vt -10.0328 0.660465
vt -10.04153 0.6587265
vt -10.03106 0.6630666
vt -10.04414 0.660465
vt -10.03045 0.6661355
vt -10.04587 0.6630666
vt -10.03106 0.6692035
vt -10.04648 0.6661355
vt -10.0328 0.6718051
vt -10.04587 0.6692035
vt -10.0354 0.6735437
vt -10.04414 0.6718051
vt -10.03847 0.6741531
vt -10.04153 0.6735437
vt -10.03847 0.6280735
vt -10.03045 0.6280735
vt -10.03106 0.6250045
vt -10.03279 0.6224029
vt -10.03106 0.6311414
vt -10.0354 0.6206653
vt -10.03279 0.633743
vt -10.03847 0.620054
vt -10.0354 0.6354806
vt -10.04153 0.6206653
vt -10.03847 0.636091
vt -10.04414 0.6224029
vt -10.04153 0.6354806
vt -10.04587 0.6250045
vt -10.04414 0.633743
vt -10.04648 0.6280735
vt -10.04587 0.6311414
vt -10.03106 0.6630666
vt -10.03045 0.6661355
vt -10.02844 0.6661355
vt -10.02921 0.6622999
vt -10.02921 0.6699712
vt -10.0328 0.660465
vt -10.03106 0.6692035
vt -10.03138 0.6590488
vt -10.03138 0.6732223
vt -10.0354 0.6587265
vt -10.0328 0.6718051
vt -10.03463 0.6568754
vt -10.03463 0.6753948
vt -10.03847 0.6581171
vt -10.0354 0.6735437
vt -10.03847 0.6561124
vt -10.03847 0.6761587
vt -10.04153 0.6587265
vt -10.03847 0.6741531
vt -10.0423 0.6568754
vt -10.0423 0.6753948
vt -10.04414 0.660465
vt -10.04153 0.6735437
vt -10.04555 0.6590488
vt -10.04555 0.6732223
vt -10.04587 0.6630666
vt -10.04414 0.6718051
vt -10.04773 0.6622999
vt -10.04773 0.6699712
vt -10.04648 0.6661355
vt -10.04587 0.6692035
vt -10.04849 0.6661355
vt -10.0354 0.6206653
vt -10.03279 0.6224029
vt -10.03138 0.6209857
vt -10.03463 0.6188133
vt -10.02921 0.6242368
vt -10.03847 0.620054
vt -10.03106 0.6250045
vt -10.03847 0.6180503
vt -10.02844 0.6280735
vt -10.04153 0.6206653
vt -10.03045 0.6280735
vt -10.0423 0.6188133
vt -10.02921 0.6319082
vt -10.04414 0.6224029
vt -10.03106 0.6311414
vt -10.04555 0.6209857
vt -10.03138 0.6351612
vt -10.04587 0.6250045
vt -10.03279 0.633743
vt -10.04773 0.6242368
vt -10.03463 0.6373327
vt -10.04648 0.6280735
vt -10.0354 0.6354806
vt -10.04849 0.6280735
vt -10.03847 0.6380966
vt -10.04587 0.6311414
vt -10.03847 0.636091
vt -10.04773 0.6319082
vt -10.0423 0.6373327
vt -10.04414 0.633743
vt -10.04153 0.6354806
vt -10.04555 0.6351612
vt -10.03768 0.821121
vt -9.9709 0.8197725
vt -10.03768 0.8197725
vt -9.9709 0.821121
vt -10.03768 0.8231399
vt -9.9709 0.8231399
vt -10.03768 0.8255222
vt -9.9709 0.8255222
vt -10.03768 0.8279045
vt -9.9709 0.8279045
vt -10.03768 0.8299234
vt -9.9709 0.8299234
vt -10.03768 0.8312719
vt -9.9709 0.8312719
vt -9.974336 0.804857
vt -10.03424 0.804857
vt -10.03424 0.8069942
vt -9.974336 0.8069942
vt -10.03424 0.8091304
vt -9.974336 0.8091304
vt -9.9709 0.7817085
vt -10.03768 0.7817085
vt -10.03768 0.7830589
vt -9.9709 0.7830589
vt -10.03768 0.7850778
vt -9.9709 0.7850778
vt -10.03768 0.7874591
vt -9.9709 0.7874591
vt -10.03768 0.7898414
vt -9.9709 0.7898414
vt -10.03768 0.7918603
vt -9.9709 0.7918603
vt -10.03768 0.7932098
vt -9.9709 0.7932098
vt -10.03424 0.7710683
vt -9.974336 0.7710683
vt -9.974336 0.7689312
vt -10.03424 0.7689312
vt -9.974336 0.766794
vt -10.03424 0.766794
vt -10.03768 0.7449958
vt -9.9709 0.7436473
vt -10.03768 0.7436473
vt -9.9709 0.7449958
vt -10.03768 0.7470148
vt -9.9709 0.7470148
vt -10.03768 0.749397
vt -9.9709 0.749397
vt -10.03768 0.7517793
vt -9.9709 0.7517793
vt -10.03768 0.7537982
vt -9.9709 0.7537982
vt -10.03768 0.7551467
vt -9.9709 0.7551467
vt -9.974337 0.7287309
vt -10.03424 0.7287309
vt -10.03424 0.7308681
vt -9.974337 0.7308681
vt -10.03424 0.7330053
vt -9.974337 0.7330053
vt -9.9709 0.7055833
vt -10.03768 0.7055833
vt -10.03768 0.7069328
vt -9.9709 0.7069328
vt -10.03768 0.7089517
vt -9.9709 0.7089517
vt -10.03768 0.711334
vt -9.9709 0.711334
vt -10.03768 0.7137163
vt -9.9709 0.7137163
vt -10.03768 0.7157342
vt -9.9709 0.7157342
vt -10.03768 0.7170837
vt -9.9709 0.7170837
vt -10.03424 0.6949422
vt -9.974336 0.6949422
vt -9.974336 0.692806
vt -10.03424 0.692806
vt -9.974336 0.6906688
vt -10.03424 0.6906688
vt -9.222989 0.9187925
vt -9.889388 0.9187925
vt -9.889388 0.9210746
vt -9.222989 0.9210746
vt -9.889388 0.9244878
vt -9.222989 0.9244878
vt -9.889388 0.9285161
vt -9.222989 0.9285161
vt -9.889388 0.9325426
vt -9.222989 0.9325426
vt -9.889388 0.9359577
vt -9.222989 0.9359577
vt -9.889388 0.9382389
vt -9.222989 0.9382389
vt -9.257284 0.8969848
vt -9.855092 0.8969848
vt -9.855092 0.9005973
vt -9.257284 0.9005973
vt -9.855092 0.9042099
vt -9.257284 0.9042099
vt -9.22299 0.8642356
vt -9.889386 0.8642356
vt -9.889386 0.8665178
vt -9.22299 0.8665178
vt -9.889386 0.8699319
vt -9.22299 0.8699319
vt -9.889386 0.8739593
vt -9.22299 0.8739593
vt -9.889386 0.8779867
vt -9.22299 0.8779867
vt -9.889386 0.8814008
vt -9.22299 0.8814008
vt -9.889386 0.883683
vt -9.22299 0.883683
vt -9.257299 0.8426082
vt -9.855077 0.8426082
vt -9.855077 0.8462217
vt -9.257299 0.8462217
vt -9.855077 0.8498342
vt -9.257299 0.8498342
vt -10.05 0.594321
vt -10.05042 0.5964372
vt -10.04489 0.5964372
vt -10.0488 0.5925272
vt -10.05 0.5985534
vt -10.04701 0.5913284
vt -10.0488 0.6003473
vt -10.04489 0.5909078
vt -10.04701 0.601546
vt -10.04278 0.5913284
vt -10.04489 0.6019666
vt -10.04098 0.5925272
vt -10.04278 0.601546
vt -10.03978 0.594321
vt -10.04098 0.6003473
vt -10.03936 0.5964372
vt -10.03978 0.5985534
vt -10.05 0.5689456
vt -10.05042 0.5710618
vt -10.04489 0.5710618
vt -10.0488 0.5671518
vt -10.05 0.5731781
vt -10.04701 0.565953
vt -10.0488 0.5749719
vt -10.04489 0.5655324
vt -10.04701 0.5761707
vt -10.04278 0.565953
vt -10.04489 0.5765913
vt -10.04098 0.5671518
vt -10.04278 0.5761707
vt -10.03978 0.5689456
vt -10.04098 0.5749719
vt -10.03936 0.5710618
vt -10.03978 0.5731781
vt -10.0354 0.6587265
vt -10.03847 0.6581171
vt -10.03847 0.6661355
vt -10.0328 0.660465
vt -10.04153 0.6587265
vt -10.03106 0.6630666
vt -10.04414 0.660465
vt -10.03045 0.6661355
vt -10.04587 0.6630666
vt -10.03106 0.6692035
vt -10.04648 0.6661355
vt -10.0328 0.6718051
vt -10.04587 0.6692035
vt -10.0354 0.6735437
vt -10.04414 0.6718051
vt -10.03847 0.6741531
vt -10.04153 0.6735437
vt -10.03847 0.6280735
vt -10.03045 0.6280735
vt -10.03106 0.6250045
vt -10.03279 0.6224029
vt -10.03106 0.6311414
vt -10.0354 0.6206653
vt -10.03279 0.633743
vt -10.03847 0.620054
vt -10.0354 0.6354806
vt -10.04153 0.6206653
vt -10.03847 0.636091
vt -10.04414 0.6224029
vt -10.04153 0.6354806
vt -10.04587 0.6250045
vt -10.04414 0.633743
vt -10.04648 0.6280735
vt -10.04587 0.6311414
vt -10.03106 0.6630666
vt -10.03045 0.6661355
vt -10.02844 0.6661355
vt -10.02921 0.6622999
vt -10.02921 0.6699712
vt -10.0328 0.660465
vt -10.03106 0.6692035
vt -10.03138 0.6590488
vt -10.03138 0.6732223
vt -10.0354 0.6587265
vt -10.0328 0.6718051
vt -10.03463 0.6568754
vt -10.03463 0.6753948
vt -10.03847 0.6581171
vt -10.0354 0.6735437
vt -10.03847 0.6561124
vt -10.03847 0.6761587
vt -10.04153 0.6587265
vt -10.03847 0.6741531
vt -10.0423 0.6568754
vt -10.0423 0.6753948
vt -10.04414 0.660465
vt -10.04153 0.6735437
vt -10.04555 0.6590488
vt -10.04555 0.6732223
vt -10.04587 0.6630666
vt -10.04414 0.6718051
vt -10.04773 0.6622999
vt -10.04773 0.6699712
vt -10.04648 0.6661355
vt -10.04587 0.6692035
vt -10.04849 0.6661355
vt -10.0354 0.6206653
vt -10.03279 0.6224029
vt -10.03138 0.6209857
vt -10.03463 0.6188133
vt -10.02921 0.6242368
vt -10.03847 0.620054
vt -10.03106 0.6250045
vt -10.03847 0.6180503
vt -10.02844 0.6280735
vt -10.04153 0.6206653
vt -10.03045 0.6280735
vt -10.0423 0.6188133
vt -10.02921 0.6319082
vt -10.04414 0.6224029
vt -10.03106 0.6311414
vt -10.04555 0.6209857
vt -10.03138 0.6351612
vt -10.04587 0.6250045
vt -10.03279 0.633743
vt -10.04773 0.6242368
vt -10.03463 0.6373327
vt -10.04648 0.6280735
vt -10.0354 0.6354806
vt -10.04849 0.6280735
vt -10.03847 0.6380966
vt -10.04587 0.6311414
vt -10.03847 0.636091
vt -10.04773 0.6319082
vt -10.0423 0.6373327
vt -10.04414 0.633743
vt -10.04153 0.6354806
vt -10.04555 0.6351612
vt -10.03768 0.821121
vt -9.9709 0.8197725
vt -10.03768 0.8197725
vt -9.9709 0.821121
vt -10.03768 0.8231399
vt -9.9709 0.8231399
vt -10.03768 0.8255222
vt -9.9709 0.8255222
vt -10.03768 0.8279045
vt -9.9709 0.8279045
vt -10.03768 0.8299234
vt -9.9709 0.8299234
vt -10.03768 0.8312719
vt -9.9709 0.8312719
vt -9.974336 0.804857
vt -10.03424 0.804857
vt -10.03424 0.8069942
vt -9.974336 0.8069942
vt -10.03424 0.8091304
vt -9.974336 0.8091304
vt -9.9709 0.7817085
vt -10.03768 0.7817085
vt -10.03768 0.7830589
vt -9.9709 0.7830589
vt -10.03768 0.7850778
vt -9.9709 0.7850778
vt -10.03768 0.7874591
vt -9.9709 0.7874591
vt -10.03768 0.7898414
vt -9.9709 0.7898414
vt -10.03768 0.7918603
vt -9.9709 0.7918603
vt -10.03768 0.7932098
vt -9.9709 0.7932098
vt -10.03424 0.7710683
vt -9.974336 0.7710683
vt -9.974336 0.7689312
vt -10.03424 0.7689312
vt -9.974336 0.766794
vt -10.03424 0.766794
vt -10.03768 0.7449958
vt -9.9709 0.7436473
vt -10.03768 0.7436473
vt -9.9709 0.7449958
vt -10.03768 0.7470148
vt -9.9709 0.7470148
vt -10.03768 0.749397
vt -9.9709 0.749397
vt -10.03768 0.7517793
vt -9.9709 0.7517793
vt -10.03768 0.7537982
vt -9.9709 0.7537982
vt -10.03768 0.7551467
vt -9.9709 0.7551467
vt -9.974337 0.7287309
vt -10.03424 0.7287309
vt -10.03424 0.7308681
vt -9.974337 0.7308681
vt -10.03424 0.7330053
vt -9.974337 0.7330053
vt -9.9709 0.7055833
vt -10.03768 0.7055833
vt -10.03768 0.7069328
vt -9.9709 0.7069328
vt -10.03768 0.7089517
vt -9.9709 0.7089517
vt -10.03768 0.711334
vt -9.9709 0.711334
vt -10.03768 0.7137163
vt -9.9709 0.7137163
vt -10.03768 0.7157342
vt -9.9709 0.7157342
vt -10.03768 0.7170837
vt -9.9709 0.7170837
vt -10.03424 0.6949422
vt -9.974336 0.6949422
vt -9.974336 0.692806
vt -10.03424 0.692806
vt -9.974336 0.6906688
vt -10.03424 0.6906688
vt -9.222989 0.9187925
vt -9.889388 0.9187925
vt -9.889388 0.9210746
vt -9.222989 0.9210746
vt -9.889388 0.9244878
vt -9.222989 0.9244878
vt -9.889388 0.9285161
vt -9.222989 0.9285161
vt -9.889388 0.9325426
vt -9.222989 0.9325426
vt -9.889388 0.9359577
vt -9.222989 0.9359577
vt -9.889388 0.9382389
vt -9.222989 0.9382389
vt -9.257284 0.8969848
vt -9.855092 0.8969848
vt -9.855092 0.9005973
vt -9.257284 0.9005973
vt -9.855092 0.9042099
vt -9.257284 0.9042099
vt -9.22299 0.8642356
vt -9.889386 0.8642356
vt -9.889386 0.8665178
vt -9.22299 0.8665178
vt -9.889386 0.8699319
vt -9.22299 0.8699319
vt -9.889386 0.8739593
vt -9.22299 0.8739593
vt -9.889386 0.8779867
vt -9.22299 0.8779867
vt -9.889386 0.8814008
vt -9.22299 0.8814008
vt -9.889386 0.883683
vt -9.22299 0.883683
vt -9.257299 0.8426082
vt -9.855077 0.8426082
vt -9.855077 0.8462217
vt -9.257299 0.8462217
vt -9.855077 0.8498342
vt -9.257299 0.8498342
vt -10.05 0.594321
vt -10.05042 0.5964372
vt -10.04489 0.5964372
vt -10.0488 0.5925272
vt -10.05 0.5985534
vt -10.04701 0.5913284
vt -10.0488 0.6003473
vt -10.04489 0.5909078
vt -10.04701 0.601546
vt -10.04278 0.5913284
vt -10.04489 0.6019666
vt -10.04098 0.5925272
vt -10.04278 0.601546
vt -10.03978 0.594321
vt -10.04098 0.6003473
vt -10.03936 0.5964372
vt -10.03978 0.5985534
vt -10.05 0.5689456
vt -10.05042 0.5710618
vt -10.04489 0.5710618
vt -10.0488 0.5671518
vt -10.05 0.5731781
vt -10.04701 0.565953
vt -10.0488 0.5749719
vt -10.04489 0.5655324
vt -10.04701 0.5761707
vt -10.04278 0.565953
vt -10.04489 0.5765913
vt -10.04098 0.5671518
vt -10.04278 0.5761707
vt -10.03978 0.5689456
vt -10.04098 0.5749719
vt -10.03936 0.5710618
vt -10.03978 0.5731781
vt -10.0354 0.6587265
vt -10.03847 0.6581171
vt -10.03847 0.6661355
vt -10.0328 0.660465
vt -10.04153 0.6587265
vt -10.03106 0.6630666
vt -10.04414 0.660465
vt -10.03045 0.6661355
vt -10.04587 0.6630666
vt -10.03106 0.6692035
vt -10.04648 0.6661355
vt -10.0328 0.6718051
vt -10.04587 0.6692035
vt -10.0354 0.6735437
vt -10.04414 0.6718051
vt -10.03847 0.6741531
vt -10.04153 0.6735437
vt -10.03847 0.6280735
vt -10.03045 0.6280735
vt -10.03106 0.6250045
vt -10.03279 0.6224029
vt -10.03106 0.6311414
vt -10.0354 0.6206653
vt -10.03279 0.633743
vt -10.03847 0.620054
vt -10.0354 0.6354806
vt -10.04153 0.6206653
vt -10.03847 0.636091
vt -10.04414 0.6224029
vt -10.04153 0.6354806
vt -10.04587 0.6250045
vt -10.04414 0.633743
vt -10.04648 0.6280735
vt -10.04587 0.6311414
vt -10.03106 0.6630666
vt -10.03045 0.6661355
vt -10.02844 0.6661355
vt -10.02921 0.6622999
vt -10.02921 0.6699712
vt -10.0328 0.660465
vt -10.03106 0.6692035
vt -10.03138 0.6590488
vt -10.03138 0.6732223
vt -10.0354 0.6587265
vt -10.0328 0.6718051
vt -10.03463 0.6568754
vt -10.03463 0.6753948
vt -10.03847 0.6581171
vt -10.0354 0.6735437
vt -10.03847 0.6561124
vt -10.03847 0.6761587
vt -10.04153 0.6587265
vt -10.03847 0.6741531
vt -10.0423 0.6568754
vt -10.0423 0.6753948
vt -10.04414 0.660465
vt -10.04153 0.6735437
vt -10.04555 0.6590488
vt -10.04555 0.6732223
vt -10.04587 0.6630666
vt -10.04414 0.6718051
vt -10.04773 0.6622999
vt -10.04773 0.6699712
vt -10.04648 0.6661355
vt -10.04587 0.6692035
vt -10.04849 0.6661355
vt -10.0354 0.6206653
vt -10.03279 0.6224029
vt -10.03138 0.6209857
vt -10.03463 0.6188133
vt -10.02921 0.6242368
vt -10.03847 0.620054
vt -10.03106 0.6250045
vt -10.03847 0.6180503
vt -10.02844 0.6280735
vt -10.04153 0.6206653
vt -10.03045 0.6280735
vt -10.0423 0.6188133
vt -10.02921 0.6319082
vt -10.04414 0.6224029
vt -10.03106 0.6311414
vt -10.04555 0.6209857
vt -10.03138 0.6351612
vt -10.04587 0.6250045
vt -10.03279 0.633743
vt -10.04773 0.6242368
vt -10.03463 0.6373327
vt -10.04648 0.6280735
vt -10.0354 0.6354806
vt -10.04849 0.6280735
vt -10.03847 0.6380966
vt -10.04587 0.6311414
vt -10.03847 0.636091
vt -10.04773 0.6319082
vt -10.0423 0.6373327
vt -10.04414 0.633743
vt -10.04153 0.6354806
vt -10.04555 0.6351612
vt -10.03768 0.821121
vt -9.9709 0.8197725
vt -10.03768 0.8197725
vt -9.9709 0.821121
vt -10.03768 0.8231399
vt -9.9709 0.8231399
vt -10.03768 0.8255222
vt -9.9709 0.8255222
vt -10.03768 0.8279045
vt -9.9709 0.8279045
vt -10.03768 0.8299234
vt -9.9709 0.8299234
vt -10.03768 0.8312719
vt -9.9709 0.8312719
vt -9.974336 0.804857
vt -10.03424 0.804857
vt -10.03424 0.8069942
vt -9.974336 0.8069942
vt -10.03424 0.8091304
vt -9.974336 0.8091304
vt -9.9709 0.7817085
vt -10.03768 0.7817085
vt -10.03768 0.7830589
vt -9.9709 0.7830589
vt -10.03768 0.7850778
vt -9.9709 0.7850778
vt -10.03768 0.7874591
vt -9.9709 0.7874591
vt -10.03768 0.7898414
vt -9.9709 0.7898414
vt -10.03768 0.7918603
vt -9.9709 0.7918603
vt -10.03768 0.7932098
vt -9.9709 0.7932098
vt -10.03424 0.7710683
vt -9.974336 0.7710683
vt -9.974336 0.7689312
vt -10.03424 0.7689312
vt -9.974336 0.766794
vt -10.03424 0.766794
vt -10.03768 0.7449958
vt -9.9709 0.7436473
vt -10.03768 0.7436473
vt -9.9709 0.7449958
vt -10.03768 0.7470148
vt -9.9709 0.7470148
vt -10.03768 0.749397
vt -9.9709 0.749397
vt -10.03768 0.7517793
vt -9.9709 0.7517793
vt -10.03768 0.7537982
vt -9.9709 0.7537982
vt -10.03768 0.7551467
vt -9.9709 0.7551467
vt -9.974337 0.7287309
vt -10.03424 0.7287309
vt -10.03424 0.7308681
vt -9.974337 0.7308681
vt -10.03424 0.7330053
vt -9.974337 0.7330053
vt -9.9709 0.7055833
vt -10.03768 0.7055833
vt -10.03768 0.7069328
vt -9.9709 0.7069328
vt -10.03768 0.7089517
vt -9.9709 0.7089517
vt -10.03768 0.711334
vt -9.9709 0.711334
vt -10.03768 0.7137163
vt -9.9709 0.7137163
vt -10.03768 0.7157342
vt -9.9709 0.7157342
vt -10.03768 0.7170837
vt -9.9709 0.7170837
vt -10.03424 0.6949422
vt -9.974336 0.6949422
vt -9.974336 0.692806
vt -10.03424 0.692806
vt -9.974336 0.6906688
vt -10.03424 0.6906688
vt -9.222989 0.9187925
vt -9.889388 0.9187925
vt -9.889388 0.9210746
vt -9.222989 0.9210746
vt -9.889388 0.9244878
vt -9.222989 0.9244878
vt -9.889388 0.9285161
vt -9.222989 0.9285161
vt -9.889388 0.9325426
vt -9.222989 0.9325426
vt -9.889388 0.9359577
vt -9.222989 0.9359577
vt -9.889388 0.9382389
vt -9.222989 0.9382389
vt -9.257284 0.8969848
vt -9.855092 0.8969848
vt -9.855092 0.9005973
vt -9.257284 0.9005973
vt -9.855092 0.9042099
vt -9.257284 0.9042099
vt -9.22299 0.8642356
vt -9.889386 0.8642356
vt -9.889386 0.8665178
vt -9.22299 0.8665178
vt -9.889386 0.8699319
vt -9.22299 0.8699319
vt -9.889386 0.8739593
vt -9.22299 0.8739593
vt -9.889386 0.8779867
vt -9.22299 0.8779867
vt -9.889386 0.8814008
vt -9.22299 0.8814008
vt -9.889386 0.883683
vt -9.22299 0.883683
vt -9.257299 0.8426082
vt -9.855077 0.8426082
vt -9.855077 0.8462217
vt -9.257299 0.8462217
vt -9.855077 0.8498342
vt -9.257299 0.8498342
vt -10.05 0.594321
vt -10.05042 0.5964372
vt -10.04489 0.5964372
vt -10.0488 0.5925272
vt -10.05 0.5985534
vt -10.04701 0.5913284
vt -10.0488 0.6003473
vt -10.04489 0.5909078
vt -10.04701 0.601546
vt -10.04278 0.5913284
vt -10.04489 0.6019666
vt -10.04098 0.5925272
vt -10.04278 0.601546
vt -10.03978 0.594321
vt -10.04098 0.6003473
vt -10.03936 0.5964372
vt -10.03978 0.5985534
vt -10.05 0.5689456
vt -10.05042 0.5710618
vt -10.04489 0.5710618
vt -10.0488 0.5671518
vt -10.05 0.5731781
vt -10.04701 0.565953
vt -10.0488 0.5749719
vt -10.04489 0.5655324
vt -10.04701 0.5761707
vt -10.04278 0.565953
vt -10.04489 0.5765913
vt -10.04098 0.5671518
vt -10.04278 0.5761707
vt -10.03978 0.5689456
vt -10.04098 0.5749719
vt -10.03936 0.5710618
vt -10.03978 0.5731781
vt -10.0354 0.6587265
vt -10.03847 0.6581171
vt -10.03847 0.6661355
vt -10.0328 0.660465
vt -10.04153 0.6587265
vt -10.03106 0.6630666
vt -10.04414 0.660465
vt -10.03045 0.6661355
vt -10.04587 0.6630666
vt -10.03106 0.6692035
vt -10.04648 0.6661355
vt -10.0328 0.6718051
vt -10.04587 0.6692035
vt -10.0354 0.6735437
vt -10.04414 0.6718051
vt -10.03847 0.6741531
vt -10.04153 0.6735437
vt -10.03847 0.6280735
vt -10.03045 0.6280735
vt -10.03106 0.6250045
vt -10.03279 0.6224029
vt -10.03106 0.6311414
vt -10.0354 0.6206653
vt -10.03279 0.633743
vt -10.03847 0.620054
vt -10.0354 0.6354806
vt -10.04153 0.6206653
vt -10.03847 0.636091
vt -10.04414 0.6224029
vt -10.04153 0.6354806
vt -10.04587 0.6250045
vt -10.04414 0.633743
vt -10.04648 0.6280735
vt -10.04587 0.6311414
vt -10.03106 0.6630666
vt -10.03045 0.6661355
vt -10.02844 0.6661355
vt -10.02921 0.6622999
vt -10.02921 0.6699712
vt -10.0328 0.660465
vt -10.03106 0.6692035
vt -10.03138 0.6590488
vt -10.03138 0.6732223
vt -10.0354 0.6587265
vt -10.0328 0.6718051
vt -10.03463 0.6568754
vt -10.03463 0.6753948
vt -10.03847 0.6581171
vt -10.0354 0.6735437
vt -10.03847 0.6561124
vt -10.03847 0.6761587
vt -10.04153 0.6587265
vt -10.03847 0.6741531
vt -10.0423 0.6568754
vt -10.0423 0.6753948
vt -10.04414 0.660465
vt -10.04153 0.6735437
vt -10.04555 0.6590488
vt -10.04555 0.6732223
vt -10.04587 0.6630666
vt -10.04414 0.6718051
vt -10.04773 0.6622999
vt -10.04773 0.6699712
vt -10.04648 0.6661355
vt -10.04587 0.6692035
vt -10.04849 0.6661355
vt -10.0354 0.6206653
vt -10.03279 0.6224029
vt -10.03138 0.6209857
vt -10.03463 0.6188133
vt -10.02921 0.6242368
vt -10.03847 0.620054
vt -10.03106 0.6250045
vt -10.03847 0.6180503
vt -10.02844 0.6280735
vt -10.04153 0.6206653
vt -10.03045 0.6280735
vt -10.0423 0.6188133
vt -10.02921 0.6319082
vt -10.04414 0.6224029
vt -10.03106 0.6311414
vt -10.04555 0.6209857
vt -10.03138 0.6351612
vt -10.04587 0.6250045
vt -10.03279 0.633743
vt -10.04773 0.6242368
vt -10.03463 0.6373327
vt -10.04648 0.6280735
vt -10.0354 0.6354806
vt -10.04849 0.6280735
vt -10.03847 0.6380966
vt -10.04587 0.6311414
vt -10.03847 0.636091
vt -10.04773 0.6319082
vt -10.0423 0.6373327
vt -10.04414 0.633743
vt -10.04153 0.6354806
vt -10.04555 0.6351612
vn 1 0 0
vn 1 0 0
vn 1 0 0
vn 1 0 0
vn -1 0 0
vn -1 0 0
vn -1 0 0
vn -1 0 0
vn 1 0 0
vn 1 0 0
vn 1 0 0
vn 1 0 0
vn -1 0 0
vn -1 0 0
vn -1 0 0
vn -1 0 0
vn 1 0 0
vn 1 0 0
vn 1 0 0
vn 1 0 0
vn -1 0 0
vn -1 0 0
vn -1 0 0
vn -1 0 0
vn 1 0 0
vn 1 0 0
vn 1 0 0
vn 1 0 0
vn -1 0 0
vn -1 0 0
vn -1 0 0
vn -1 0 0
vn 1 0 0
vn 1 0 0
vn 1 0 0
vn 1 0 0
vn -1 0 0
vn -1 0 0
vn -1 0 0
vn -1 0 0
vn -1 0 0
vn -1 0 0
vn -1 0 0
vn -1 0 0
vn 1 0 0
vn 1 0 0
vn 1 0 0
vn 1 0 0
vn 1 0 0
vn 1 0 0
vn 1 0 0
vn 1 0 0
vn -1 0 0
vn -1 0 0
vn -1 0 0
vn -1 0 0
vn 1 0 0
vn 1 0 0
vn 1 0 0
vn 1 0 0
vn 1 0 0
vn -1 0 0
vn -1 0 0
vn -1 0 0
vn -1 0 0
vn -1 0 0
vn 1 0 0
vn 1 0 0
vn 1 0 0
vn 1 0 0
vn -1 0 0
vn -1 0 0
vn -1 0 0
vn -1 0 0
vn -1 0 0
vn -1 0 0
vn -1 0 0
vn -1 0 0
vn 1 0 0
vn 1 0 0
vn 1 0 0
vn 1 0 0
vn -1 0 0
vn -1 0 0
vn -1 0 0
vn -1 0 0
vn 1 0 0
vn 1 0 0
vn 1 0 0
vn 1 0 0
vn 1 0 0
vn 1 0 0
vn 1 0 0
vn 1 0 0
vn -1 0 0
vn -1 0 0
vn -1 0 0
vn -1 0 0
vn 0.7071072 0.7071064 0
vn 0.3826837 0.9238794 0
vn 0.3826837 0.9238794 0
vn 0.7071072 0.7071064 0
vn 0.9238798 0.3826828 0
vn 0.9238798 0.3826828 0
vn 1 -7.206469E-07 0
vn 1 -7.206469E-07 0
vn 0.9238794 -0.3826839 0
vn 0.9238794 -0.3826839 0
vn 0.7071069 -0.7071066 0
vn 0.7071069 -0.7071066 0
vn 0.3826837 -0.9238794 0
vn 0.3826837 -0.9238794 0
vn 0.3826837 0.9238794 0
vn 0.3826837 0.9238794 0
vn 5.332784E-07 1 0
vn 5.332784E-07 1 0
vn -0.382683 0.9238797 0
vn -0.382683 0.9238797 0
vn -0.382683 0.9238797 0
vn -0.382683 0.9238797 0
vn -0.7071061 0.7071074 0
vn -0.7071061 0.7071074 0
vn -0.9238794 0.3826839 0
vn -0.9238794 0.3826839 0
vn -1 0 0
vn -1 0 0
vn -0.9238797 -0.3826831 0
vn -0.9238797 -0.3826831 0
vn -0.7071072 -0.7071064 0
vn -0.7071072 -0.7071064 0
vn -0.3826834 -0.9238795 0
vn -0.3826834 -0.9238795 0
vn -0.3826834 -0.9238795 0
vn -0.3826834 -0.9238795 0
vn 0 -1 0
vn 0 -1 0
vn 0.3826837 -0.9238794 0
vn 0.3826837 -0.9238794 0
vn 0.7071061 0.7071074 0
vn 0.3826829 0.9238797 0
vn 0.3826829 0.9238797 0
vn 0.7071061 0.7071074 0
vn 0.9238793 0.382684 0
vn 0.9238793 0.382684 0
vn 1 0 0
vn 1 0 0
vn 0.9238794 -0.3826838 0
vn 0.9238794 -0.3826838 0
vn 0.7071059 -0.7071077 0
vn 0.7071059 -0.7071077 0
vn 0.3826824 -0.92388 0
vn 0.3826824 -0.92388 0
vn 0.3826829 0.9238797 0
vn 0.3826829 0.9238797 0
vn 5.404888E-07 1 0
vn 5.404888E-07 1 0
vn -0.3826861 0.9238784 0
vn -0.3826861 0.9238784 0
vn -0.3826861 0.9238784 0
vn -0.3826861 0.9238784 0
vn -0.7071 0.7071136 0
vn -0.7071 0.7071136 0
vn -0.9238794 0.3826839 0
vn -0.9238794 0.3826839 0
vn -1 0 0
vn -1 0 0
vn -0.9238835 -0.3826738 0
vn -0.9238835 -0.3826738 0
vn -0.7071061 -0.7071074 0
vn -0.7071061 -0.7071074 0
vn -0.3826826 -0.9238799 0
vn -0.3826826 -0.9238799 0
vn -0.3826826 -0.9238799 0
vn -0.3826826 -0.9238799 0
vn 0 -1 0
vn 0 -1 0
vn 0.3826824 -0.92388 0
vn 0.3826824 -0.92388 0
vn 0 0.3826824 -0.92388
vn 0 0.3826824 -0.92388
vn 0 0.7071066 -0.7071069
vn 0 0.7071066 -0.7071069
vn 0 0.9238795 -0.3826834
vn 0 0.9238795 -0.3826834
vn 0 1 -6.969865E-07
vn 0 1 -6.969865E-07
vn 0 0.9238798 0.3826829
vn 0 0.9238798 0.3826829
vn 0 0.7071068 0.7071066
vn 0 0.7071068 0.7071066
vn 0 0.3826823 0.92388
vn 0 0.3826823 0.92388
vn 0 0.3826823 0.92388
vn 0 0.3826823 0.92388
vn 0 0 1
vn 0 0 1
vn 0 -0.3826821 0.92388
vn 0 -0.3826821 0.92388
vn 0 -0.3826821 0.92388
vn 0 -0.3826821 0.92388
vn 0 -0.7071066 0.7071069
vn 0 -0.7071066 0.7071069
vn 0 -0.9238795 0.3826833
vn 0 -0.9238795 0.3826833
vn 0 -1 1.639968E-07
vn 0 -1 1.639968E-07
vn 0 -0.9238795 -0.3826833
vn 0 -0.9238795 -0.3826833
vn 0 -0.7071069 -0.7071066
vn 0 -0.7071069 -0.7071066
vn 0 -0.3826823 -0.92388
vn 0 -0.3826823 -0.92388
vn 0 -0.3826823 -0.92388
vn 0 -0.3826823 -0.92388
vn 0 0 -1
vn 0 0 -1
vn 0 0.3826824 -0.92388
vn 0 0.3826824 -0.92388
vn -1.214599E-06 0 -1
vn 1.214598E-07 0 -1
vn 1.518248E-07 0 -1
vn -6.072998E-07 0 -1
vn 1.457519E-06 0 -1
vn 0 0 -1
vn 7.287595E-07 0 -1
vn -4.858398E-07 0 -1
vn 0 0 -1
vn -9.716794E-07 0 -1
vn 4.858396E-07 0 -1
vn 0 0 -1
vn 9.716797E-07 0 -1
vn 9.716798E-07 0 -1
vn 4.858396E-07 0 -1
vn 4.858397E-07 0 -1
vn 0 0 -1
vn -1.214598E-06 0 -1
vn 1.214593E-07 0 -1
vn 1.518239E-07 0 -1
vn -6.072999E-07 0 -1
vn 1.457533E-06 0 -1
vn 0 0 -1
vn 7.287611E-07 0 -1
vn -4.858402E-07 0 -1
vn 0 0 -1
vn -9.716799E-07 0 -1
vn 4.858389E-07 0 -1
vn 0 0 -1
vn 9.716799E-07 0 -1
vn 9.71678E-07 0 -1
vn 4.858391E-07 0 -1
vn 4.85839E-07 0 -1
vn 0 0 -1
vn -1 0 0
vn -1 0 0
vn -1 0 0
vn -1 0 0
vn -1 0 0
vn -1 0 0
vn -1 0 0
vn -1 0 0
vn -1 0 0
vn -1 0 0
vn -1 0 0
vn -1 0 0
vn -1 0 0
vn -1 0 0
vn -1 0 0
vn -1 0 0
vn -1 0 0
vn 1 0 0
vn 1 4.247519E-06 0
vn 1 8.495043E-06 0
vn 1 4.247529E-06 0
vn 1 0 0
vn 1 0 0
vn 1 0 0
vn 1 0 0
vn 1 0 0
vn 1 0 0
vn 1 0 0
vn 1 0 0
vn 1 0 0
vn 1 0 0
vn 1 -4.247526E-06 0
vn 1 -4.247519E-06 0
vn 1 -8.495042E-06 0
vn -0.7139321 0.2679597 -0.6469147
vn -0.7139321 0 -0.700215
vn -0.7139321 0 -0.700215
vn -0.713932 0.2679597 -0.6469147
vn -0.7139322 -0.2679596 -0.6469147
vn -0.7139319 0.4951265 -0.4951273
vn -0.7139321 -0.2679596 -0.6469147
vn -0.7139319 0.4951268 -0.495127
vn -0.713932 -0.4951269 -0.4951268
vn -0.7139321 0.6469142 -0.2679607
vn -0.713932 -0.4951266 -0.4951271
vn -0.7139321 0.6469144 -0.2679603
vn -0.7139321 -0.6469144 -0.2679603
vn -0.7139324 0.7002147 -5.602393E-07
vn -0.7139321 -0.6469142 -0.2679607
vn -0.7139324 0.7002146 -4.562435E-07
vn -0.7139324 -0.7002146 1.545341E-07
vn -0.7139322 0.6469144 0.2679602
vn -0.7139324 -0.7002146 1.785377E-07
vn -0.7139322 0.6469145 0.2679599
vn -0.713932 -0.6469145 0.2679603
vn -0.7139319 0.4951266 0.4951272
vn -0.713932 -0.6469143 0.2679607
vn -0.7139319 0.4951269 0.4951269
vn -0.7139319 -0.4951268 0.4951269
vn -0.713932 0.2679597 0.6469147
vn -0.7139319 -0.4951265 0.4951272
vn -0.713932 0.2679597 0.6469147
vn -0.7139322 -0.2679595 0.6469147
vn -0.7139322 0 0.7002148
vn -0.7139322 -0.2679595 0.6469147
vn -0.7139321 0 0.7002149
vn 0.7139297 0.2679613 -0.6469166
vn 0.7139297 0.4951279 -0.495129
vn 0.7139297 0.4951282 -0.4951287
vn 0.7139297 0.2679613 -0.6469166
vn 0.7139298 0.6469165 -0.2679611
vn 0.7139299 0 -0.7002171
vn 0.7139298 0.6469164 -0.2679616
vn 0.7139299 0 -0.7002171
vn 0.7139291 0.700218 -4.488825E-07
vn 0.7139297 -0.2679613 -0.6469166
vn 0.7139291 0.700218 -5.417675E-07
vn 0.7139297 -0.2679613 -0.6469166
vn 0.7139298 0.6469166 0.2679607
vn 0.7139297 -0.4951282 -0.4951287
vn 0.7139298 0.6469165 0.2679611
vn 0.7139297 -0.4951284 -0.4951285
vn 0.7139297 0.4951284 0.4951286
vn 0.7139298 -0.6469164 -0.2679615
vn 0.7139297 0.4951281 0.4951288
vn 0.7139298 -0.6469165 -0.2679611
vn 0.7139295 0.2679613 0.6469167
vn 0.7139291 -0.700218 0
vn 0.7139295 0.2679613 0.6469169
vn 0.7139291 -0.700218 0
vn 0.7139298 0 0.7002173
vn 0.7139297 -0.6469164 0.2679615
vn 0.7139298 0 0.7002173
vn 0.7139298 -0.6469166 0.2679611
vn 0.7139297 -0.2679611 0.6469167
vn 0.7139297 -0.4951279 0.495129
vn 0.7139297 -0.2679611 0.6469167
vn 0.7139297 -0.4951282 0.4951287
vn -1 0 0
vn -1 0 0
vn -1 0 0
vn -1 0 0
vn -1 0 0
vn -1 0 0
vn -1 0 0
vn -1 0 0
vn 1 0 0
vn 1 0 0
vn 1 0 0
vn 1 0 0
vn 1 0 0
vn 1 0 0
vn 1 0 0
vn 1 0 0
vn 1 0 0
vn 1 0 0
vn 1 0 0
vn 1 0 0
vn -1 0 0
vn -1 0 0
vn -1 0 0
vn -1 0 0
vn 0.7071072 0.7071064 0
vn 0.3826837 0.9238794 0
vn 0.3826837 0.9238794 0
vn 0.7071072 0.7071064 0
vn 0.9238798 0.3826828 0
vn 0.9238798 0.3826828 0
vn 1 -7.206469E-07 0
vn 1 -7.206469E-07 0
vn 0.9238794 -0.3826839 0
vn 0.9238794 -0.3826839 0
vn 0.7071069 -0.7071066 0
vn 0.7071069 -0.7071066 0
vn 0.3826837 -0.9238794 0
vn 0.3826837 -0.9238794 0
vn 0.3826837 0.9238794 0
vn 0.3826837 0.9238794 0
vn 5.332784E-07 1 0
vn 5.332784E-07 1 0
vn -0.382683 0.9238797 0
vn -0.382683 0.9238797 0
vn -0.382683 0.9238797 0
vn -0.382683 0.9238797 0
vn -0.7071061 0.7071074 0
vn -0.7071061 0.7071074 0
vn -0.9238794 0.3826839 0
vn -0.9238794 0.3826839 0
vn -1 0 0
vn -1 0 0
vn -0.9238797 -0.3826831 0
vn -0.9238797 -0.3826831 0
vn -0.7071072 -0.7071064 0
vn -0.7071072 -0.7071064 0
vn -0.3826834 -0.9238795 0
vn -0.3826834 -0.9238795 0
vn -0.3826834 -0.9238795 0
vn -0.3826834 -0.9238795 0
vn 0 -1 0
vn 0 -1 0
vn 0.3826837 -0.9238794 0
vn 0.3826837 -0.9238794 0
vn 0.7071061 0.7071074 0
vn 0.3826829 0.9238797 0
vn 0.3826829 0.9238797 0
vn 0.7071061 0.7071074 0
vn 0.9238793 0.382684 0
vn 0.9238793 0.382684 0
vn 1 0 0
vn 1 0 0
vn 0.9238794 -0.3826838 0
vn 0.9238794 -0.3826838 0
vn 0.7071059 -0.7071077 0
vn 0.7071059 -0.7071077 0
vn 0.3826824 -0.92388 0
vn 0.3826824 -0.92388 0
vn 0.3826829 0.9238797 0
vn 0.3826829 0.9238797 0
vn 5.404888E-07 1 0
vn 5.404888E-07 1 0
vn -0.3826861 0.9238784 0
vn -0.3826861 0.9238784 0
vn -0.3826861 0.9238784 0
vn -0.3826861 0.9238784 0
vn -0.7071 0.7071136 0
vn -0.7071 0.7071136 0
vn -0.9238794 0.3826839 0
vn -0.9238794 0.3826839 0
vn -1 0 0
vn -1 0 0
vn -0.9238835 -0.3826738 0
vn -0.9238835 -0.3826738 0
vn -0.7071061 -0.7071074 0
vn -0.7071061 -0.7071074 0
vn -0.3826826 -0.9238799 0
vn -0.3826826 -0.9238799 0
vn -0.3826826 -0.9238799 0
vn -0.3826826 -0.9238799 0
vn 0 -1 0
vn 0 -1 0
vn 0.3826824 -0.92388 0
vn 0.3826824 -0.92388 0
vn 0 0.3826824 -0.92388
vn 0 0.3826824 -0.92388
vn 0 0.7071066 -0.7071069
vn 0 0.7071066 -0.7071069
vn 0 0.9238795 -0.3826834
vn 0 0.9238795 -0.3826834
vn 0 1 -6.969865E-07
vn 0 1 -6.969865E-07
vn 0 0.9238798 0.3826829
vn 0 0.9238798 0.3826829
vn 0 0.7071068 0.7071066
vn 0 0.7071068 0.7071066
vn 0 0.3826823 0.92388
vn 0 0.3826823 0.92388
vn 0 0.3826823 0.92388
vn 0 0.3826823 0.92388
vn 0 0 1
vn 0 0 1
vn 0 -0.3826821 0.92388
vn 0 -0.3826821 0.92388
vn 0 -0.3826821 0.92388
vn 0 -0.3826821 0.92388
vn 0 -0.7071066 0.7071069
vn 0 -0.7071066 0.7071069
vn 0 -0.9238795 0.3826833
vn 0 -0.9238795 0.3826833
vn 0 -1 1.639968E-07
vn 0 -1 1.639968E-07
vn 0 -0.9238795 -0.3826833
vn 0 -0.9238795 -0.3826833
vn 0 -0.7071069 -0.7071066
vn 0 -0.7071069 -0.7071066
vn 0 -0.3826823 -0.92388
vn 0 -0.3826823 -0.92388
vn 0 -0.3826823 -0.92388
vn 0 -0.3826823 -0.92388
vn 0 0 -1
vn 0 0 -1
vn 0 0.3826824 -0.92388
vn 0 0.3826824 -0.92388
vn -1.214599E-06 0 -1
vn 1.214598E-07 0 -1
vn 1.518248E-07 0 -1
vn -6.072998E-07 0 -1
vn 1.457519E-06 0 -1
vn 0 0 -1
vn 7.287595E-07 0 -1
vn -4.858398E-07 0 -1
vn 0 0 -1
vn -9.716794E-07 0 -1
vn 4.858396E-07 0 -1
vn 0 0 -1
vn 9.716797E-07 0 -1
vn 9.716798E-07 0 -1
vn 4.858396E-07 0 -1
vn 4.858397E-07 0 -1
vn 0 0 -1
vn -1.214598E-06 0 -1
vn 1.214593E-07 0 -1
vn 1.518239E-07 0 -1
vn -6.072999E-07 0 -1
vn 1.457533E-06 0 -1
vn 0 0 -1
vn 7.287611E-07 0 -1
vn -4.858402E-07 0 -1
vn 0 0 -1
vn -9.716799E-07 0 -1
vn 4.858389E-07 0 -1
vn 0 0 -1
vn 9.716799E-07 0 -1
vn 9.71678E-07 0 -1
vn 4.858391E-07 0 -1
vn 4.85839E-07 0 -1
vn 0 0 -1
vn -1 0 0
vn -1 0 0
vn -1 0 0
vn -1 0 0
vn -1 0 0
vn -1 0 0
vn -1 0 0
vn -1 0 0
vn -1 0 0
vn -1 0 0
vn -1 0 0
vn -1 0 0
vn -1 0 0
vn -1 0 0
vn -1 0 0
vn -1 0 0
vn -1 0 0
vn 1 0 0
vn 1 4.247519E-06 0
vn 1 8.495043E-06 0
vn 1 4.247529E-06 0
vn 1 0 0
vn 1 0 0
vn 1 0 0
vn 1 0 0
vn 1 0 0
vn 1 0 0
vn 1 0 0
vn 1 0 0
vn 1 0 0
vn 1 0 0
vn 1 -4.247526E-06 0
vn 1 -4.247519E-06 0
vn 1 -8.495042E-06 0
vn -0.7139321 0.2679597 -0.6469147
vn -0.7139321 0 -0.700215
vn -0.7139321 0 -0.700215
vn -0.713932 0.2679597 -0.6469147
vn -0.7139322 -0.2679596 -0.6469147
vn -0.7139319 0.4951265 -0.4951273
vn -0.7139321 -0.2679596 -0.6469147
vn -0.7139319 0.4951268 -0.495127
vn -0.713932 -0.4951269 -0.4951268
vn -0.7139321 0.6469142 -0.2679607
vn -0.713932 -0.4951266 -0.4951271
vn -0.7139321 0.6469144 -0.2679603
vn -0.7139321 -0.6469144 -0.2679603
vn -0.7139324 0.7002147 -5.602393E-07
vn -0.7139321 -0.6469142 -0.2679607
vn -0.7139324 0.7002146 -4.562435E-07
vn -0.7139324 -0.7002146 1.545341E-07
vn -0.7139322 0.6469144 0.2679602
vn -0.7139324 -0.7002146 1.785377E-07
vn -0.7139322 0.6469145 0.2679599
vn -0.713932 -0.6469145 0.2679603
vn -0.7139319 0.4951266 0.4951272
vn -0.713932 -0.6469143 0.2679607
vn -0.7139319 0.4951269 0.4951269
vn -0.7139319 -0.4951268 0.4951269
vn -0.713932 0.2679597 0.6469147
vn -0.7139319 -0.4951265 0.4951272
vn -0.713932 0.2679597 0.6469147
vn -0.7139322 -0.2679595 0.6469147
vn -0.7139322 0 0.7002148
vn -0.7139322 -0.2679595 0.6469147
vn -0.7139321 0 0.7002149
vn 0.7139297 0.2679613 -0.6469166
vn 0.7139297 0.4951279 -0.495129
vn 0.7139297 0.4951282 -0.4951287
vn 0.7139297 0.2679613 -0.6469166
vn 0.7139298 0.6469165 -0.2679611
vn 0.7139299 0 -0.7002171
vn 0.7139298 0.6469164 -0.2679616
vn 0.7139299 0 -0.7002171
vn 0.7139291 0.700218 -4.488825E-07
vn 0.7139297 -0.2679613 -0.6469166
vn 0.7139291 0.700218 -5.417675E-07
vn 0.7139297 -0.2679613 -0.6469166
vn 0.7139298 0.6469166 0.2679607
vn 0.7139297 -0.4951282 -0.4951287
vn 0.7139298 0.6469165 0.2679611
vn 0.7139297 -0.4951284 -0.4951285
vn 0.7139297 0.4951284 0.4951286
vn 0.7139298 -0.6469164 -0.2679615
vn 0.7139297 0.4951281 0.4951288
vn 0.7139298 -0.6469165 -0.2679611
vn 0.7139295 0.2679613 0.6469167
vn 0.7139291 -0.700218 0
vn 0.7139295 0.2679613 0.6469169
vn 0.7139291 -0.700218 0
vn 0.7139298 0 0.7002173
vn 0.7139297 -0.6469164 0.2679615
vn 0.7139298 0 0.7002173
vn 0.7139298 -0.6469166 0.2679611
vn 0.7139297 -0.2679611 0.6469167
vn 0.7139297 -0.4951279 0.495129
vn 0.7139297 -0.2679611 0.6469167
vn 0.7139297 -0.4951282 0.4951287
vn 1 0 0
vn 1 0 0
vn 1 0 0
vn 1 0 0
vn -1 0 0
vn -1 0 0
vn -1 0 0
vn -1 0 0
vn -1 0 0
vn -1 0 0
vn -1 0 0
vn -1 0 0
vn 1 0 0
vn 1 0 0
vn 1 0 0
vn 1 0 0
vn 1 0 0
vn 1 0 0
vn 1 0 0
vn 1 0 0
vn -1 0 0
vn -1 0 0
vn -1 0 0
vn -1 0 0
vn 0.7071072 0.7071064 0
vn 0.3826837 0.9238794 0
vn 0.3826837 0.9238794 0
vn 0.7071072 0.7071064 0
vn 0.9238798 0.3826828 0
vn 0.9238798 0.3826828 0
vn 1 -7.206469E-07 0
vn 1 -7.206469E-07 0
vn 0.9238794 -0.3826839 0
vn 0.9238794 -0.3826839 0
vn 0.7071069 -0.7071066 0
vn 0.7071069 -0.7071066 0
vn 0.3826837 -0.9238794 0
vn 0.3826837 -0.9238794 0
vn 0.3826837 0.9238794 0
vn 0.3826837 0.9238794 0
vn 5.332784E-07 1 0
vn 5.332784E-07 1 0
vn -0.382683 0.9238797 0
vn -0.382683 0.9238797 0
vn -0.382683 0.9238797 0
vn -0.382683 0.9238797 0
vn -0.7071061 0.7071074 0
vn -0.7071061 0.7071074 0
vn -0.9238794 0.3826839 0
vn -0.9238794 0.3826839 0
vn -1 0 0
vn -1 0 0
vn -0.9238797 -0.3826831 0
vn -0.9238797 -0.3826831 0
vn -0.7071072 -0.7071064 0
vn -0.7071072 -0.7071064 0
vn -0.3826834 -0.9238795 0
vn -0.3826834 -0.9238795 0
vn -0.3826834 -0.9238795 0
vn -0.3826834 -0.9238795 0
vn 0 -1 0
vn 0 -1 0
vn 0.3826837 -0.9238794 0
vn 0.3826837 -0.9238794 0
vn 0.7071061 0.7071074 0
vn 0.3826829 0.9238797 0
vn 0.3826829 0.9238797 0
vn 0.7071061 0.7071074 0
vn 0.9238793 0.382684 0
vn 0.9238793 0.382684 0
vn 1 0 0
vn 1 0 0
vn 0.9238794 -0.3826838 0
vn 0.9238794 -0.3826838 0
vn 0.7071059 -0.7071077 0
vn 0.7071059 -0.7071077 0
vn 0.3826824 -0.92388 0
vn 0.3826824 -0.92388 0
vn 0.3826829 0.9238797 0
vn 0.3826829 0.9238797 0
vn 5.404888E-07 1 0
vn 5.404888E-07 1 0
vn -0.3826861 0.9238784 0
vn -0.3826861 0.9238784 0
vn -0.3826861 0.9238784 0
vn -0.3826861 0.9238784 0
vn -0.7071 0.7071136 0
vn -0.7071 0.7071136 0
vn -0.9238794 0.3826839 0
vn -0.9238794 0.3826839 0
vn -1 0 0
vn -1 0 0
vn -0.9238835 -0.3826738 0
vn -0.9238835 -0.3826738 0
vn -0.7071061 -0.7071074 0
vn -0.7071061 -0.7071074 0
vn -0.3826826 -0.9238799 0
vn -0.3826826 -0.9238799 0
vn -0.3826826 -0.9238799 0
vn -0.3826826 -0.9238799 0
vn 0 -1 0
vn 0 -1 0
vn 0.3826824 -0.92388 0
vn 0.3826824 -0.92388 0
vn 0 0.3826824 -0.92388
vn 0 0.3826824 -0.92388
vn 0 0.7071066 -0.7071069
vn 0 0.7071066 -0.7071069
vn 0 0.9238795 -0.3826834
vn 0 0.9238795 -0.3826834
vn 0 1 -6.969865E-07
vn 0 1 -6.969865E-07
vn 0 0.9238798 0.3826829
vn 0 0.9238798 0.3826829
vn 0 0.7071068 0.7071066
vn 0 0.7071068 0.7071066
vn 0 0.3826823 0.92388
vn 0 0.3826823 0.92388
vn 0 0.3826823 0.92388
vn 0 0.3826823 0.92388
vn 0 0 1
vn 0 0 1
vn 0 -0.3826821 0.92388
vn 0 -0.3826821 0.92388
vn 0 -0.3826821 0.92388
vn 0 -0.3826821 0.92388
vn 0 -0.7071066 0.7071069
vn 0 -0.7071066 0.7071069
vn 0 -0.9238795 0.3826833
vn 0 -0.9238795 0.3826833
vn 0 -1 1.639968E-07
vn 0 -1 1.639968E-07
vn 0 -0.9238795 -0.3826833
vn 0 -0.9238795 -0.3826833
vn 0 -0.7071069 -0.7071066
vn 0 -0.7071069 -0.7071066
vn 0 -0.3826823 -0.92388
vn 0 -0.3826823 -0.92388
vn 0 -0.3826823 -0.92388
vn 0 -0.3826823 -0.92388
vn 0 0 -1
vn 0 0 -1
vn 0 0.3826824 -0.92388
vn 0 0.3826824 -0.92388
vn -1.214599E-06 0 -1
vn 1.214598E-07 0 -1
vn 1.518248E-07 0 -1
vn -6.072998E-07 0 -1
vn 1.457519E-06 0 -1
vn 0 0 -1
vn 7.287595E-07 0 -1
vn -4.858398E-07 0 -1
vn 0 0 -1
vn -9.716794E-07 0 -1
vn 4.858396E-07 0 -1
vn 0 0 -1
vn 9.716797E-07 0 -1
vn 9.716798E-07 0 -1
vn 4.858396E-07 0 -1
vn 4.858397E-07 0 -1
vn 0 0 -1
vn -1.214598E-06 0 -1
vn 1.214593E-07 0 -1
vn 1.518239E-07 0 -1
vn -6.072999E-07 0 -1
vn 1.457533E-06 0 -1
vn 0 0 -1
vn 7.287611E-07 0 -1
vn -4.858402E-07 0 -1
vn 0 0 -1
vn -9.716799E-07 0 -1
vn 4.858389E-07 0 -1
vn 0 0 -1
vn 9.716799E-07 0 -1
vn 9.71678E-07 0 -1
vn 4.858391E-07 0 -1
vn 4.85839E-07 0 -1
vn 0 0 -1
vn -1 0 0
vn -1 0 0
vn -1 0 0
vn -1 0 0
vn -1 0 0
vn -1 0 0
vn -1 0 0
vn -1 0 0
vn -1 0 0
vn -1 0 0
vn -1 0 0
vn -1 0 0
vn -1 0 0
vn -1 0 0
vn -1 0 0
vn -1 0 0
vn -1 0 0
vn 1 0 0
vn 1 4.247519E-06 0
vn 1 8.495043E-06 0
vn 1 4.247529E-06 0
vn 1 0 0
vn 1 0 0
vn 1 0 0
vn 1 0 0
vn 1 0 0
vn 1 0 0
vn 1 0 0
vn 1 0 0
vn 1 0 0
vn 1 0 0
vn 1 -4.247526E-06 0
vn 1 -4.247519E-06 0
vn 1 -8.495042E-06 0
vn -0.7139321 0.2679597 -0.6469147
vn -0.7139321 0 -0.700215
vn -0.7139321 0 -0.700215
vn -0.713932 0.2679597 -0.6469147
vn -0.7139322 -0.2679596 -0.6469147
vn -0.7139319 0.4951265 -0.4951273
vn -0.7139321 -0.2679596 -0.6469147
vn -0.7139319 0.4951268 -0.495127
vn -0.713932 -0.4951269 -0.4951268
vn -0.7139321 0.6469142 -0.2679607
vn -0.713932 -0.4951266 -0.4951271
vn -0.7139321 0.6469144 -0.2679603
vn -0.7139321 -0.6469144 -0.2679603
vn -0.7139324 0.7002147 -5.602393E-07
vn -0.7139321 -0.6469142 -0.2679607
vn -0.7139324 0.7002146 -4.562435E-07
vn -0.7139324 -0.7002146 1.545341E-07
vn -0.7139322 0.6469144 0.2679602
vn -0.7139324 -0.7002146 1.785377E-07
vn -0.7139322 0.6469145 0.2679599
vn -0.713932 -0.6469145 0.2679603
vn -0.7139319 0.4951266 0.4951272
vn -0.713932 -0.6469143 0.2679607
vn -0.7139319 0.4951269 0.4951269
vn -0.7139319 -0.4951268 0.4951269
vn -0.713932 0.2679597 0.6469147
vn -0.7139319 -0.4951265 0.4951272
vn -0.713932 0.2679597 0.6469147
vn -0.7139322 -0.2679595 0.6469147
vn -0.7139322 0 0.7002148
vn -0.7139322 -0.2679595 0.6469147
vn -0.7139321 0 0.7002149
vn 0.7139297 0.2679613 -0.6469166
vn 0.7139297 0.4951279 -0.495129
vn 0.7139297 0.4951282 -0.4951287
vn 0.7139297 0.2679613 -0.6469166
vn 0.7139298 0.6469165 -0.2679611
vn 0.7139299 0 -0.7002171
vn 0.7139298 0.6469164 -0.2679616
vn 0.7139299 0 -0.7002171
vn 0.7139291 0.700218 -4.488825E-07
vn 0.7139297 -0.2679613 -0.6469166
vn 0.7139291 0.700218 -5.417675E-07
vn 0.7139297 -0.2679613 -0.6469166
vn 0.7139298 0.6469166 0.2679607
vn 0.7139297 -0.4951282 -0.4951287
vn 0.7139298 0.6469165 0.2679611
vn 0.7139297 -0.4951284 -0.4951285
vn 0.7139297 0.4951284 0.4951286
vn 0.7139298 -0.6469164 -0.2679615
vn 0.7139297 0.4951281 0.4951288
vn 0.7139298 -0.6469165 -0.2679611
vn 0.7139295 0.2679613 0.6469167
vn 0.7139291 -0.700218 0
vn 0.7139295 0.2679613 0.6469169
vn 0.7139291 -0.700218 0
vn 0.7139298 0 0.7002173
vn 0.7139297 -0.6469164 0.2679615
vn 0.7139298 0 0.7002173
vn 0.7139298 -0.6469166 0.2679611
vn 0.7139297 -0.2679611 0.6469167
vn 0.7139297 -0.4951279 0.495129
vn 0.7139297 -0.2679611 0.6469167
vn 0.7139297 -0.4951282 0.4951287
vn 1 0 0
vn 1 0 0
vn 1 0 0
vn 1 0 0
vn -1 0 0
vn -1 0 0
vn -1 0 0
vn -1 0 0
vn -1 0 0
vn -1 0 0
vn -1 0 0
vn -1 0 0
vn 1 0 0
vn 1 0 0
vn 1 0 0
vn 1 0 0
vn -1 0 0
vn -1 0 0
vn -1 0 0
vn -1 0 0
vn 1 0 0
vn 1 0 0
vn 1 0 0
vn 1 0 0
vn 0.7071072 0.7071064 0
vn 0.3826837 0.9238794 0
vn 0.3826837 0.9238794 0
vn 0.7071072 0.7071064 0
vn 0.9238798 0.3826828 0
vn 0.9238798 0.3826828 0
vn 1 -7.206469E-07 0
vn 1 -7.206469E-07 0
vn 0.9238794 -0.3826839 0
vn 0.9238794 -0.3826839 0
vn 0.7071069 -0.7071066 0
vn 0.7071069 -0.7071066 0
vn 0.3826837 -0.9238794 0
vn 0.3826837 -0.9238794 0
vn 0.3826837 0.9238794 0
vn 0.3826837 0.9238794 0
vn 5.332784E-07 1 0
vn 5.332784E-07 1 0
vn -0.382683 0.9238797 0
vn -0.382683 0.9238797 0
vn -0.382683 0.9238797 0
vn -0.382683 0.9238797 0
vn -0.7071061 0.7071074 0
vn -0.7071061 0.7071074 0
vn -0.9238794 0.3826839 0
vn -0.9238794 0.3826839 0
vn -1 0 0
vn -1 0 0
vn -0.9238797 -0.3826831 0
vn -0.9238797 -0.3826831 0
vn -0.7071072 -0.7071064 0
vn -0.7071072 -0.7071064 0
vn -0.3826834 -0.9238795 0
vn -0.3826834 -0.9238795 0
vn -0.3826834 -0.9238795 0
vn -0.3826834 -0.9238795 0
vn 0 -1 0
vn 0 -1 0
vn 0.3826837 -0.9238794 0
vn 0.3826837 -0.9238794 0
vn 0.7071061 0.7071074 0
vn 0.3826829 0.9238797 0
vn 0.3826829 0.9238797 0
vn 0.7071061 0.7071074 0
vn 0.9238793 0.382684 0
vn 0.9238793 0.382684 0
vn 1 0 0
vn 1 0 0
vn 0.9238794 -0.3826838 0
vn 0.9238794 -0.3826838 0
vn 0.7071059 -0.7071077 0
vn 0.7071059 -0.7071077 0
vn 0.3826824 -0.92388 0
vn 0.3826824 -0.92388 0
vn 0.3826829 0.9238797 0
vn 0.3826829 0.9238797 0
vn 5.404888E-07 1 0
vn 5.404888E-07 1 0
vn -0.3826861 0.9238784 0
vn -0.3826861 0.9238784 0
vn -0.3826861 0.9238784 0
vn -0.3826861 0.9238784 0
vn -0.7071 0.7071136 0
vn -0.7071 0.7071136 0
vn -0.9238794 0.3826839 0
vn -0.9238794 0.3826839 0
vn -1 0 0
vn -1 0 0
vn -0.9238835 -0.3826738 0
vn -0.9238835 -0.3826738 0
vn -0.7071061 -0.7071074 0
vn -0.7071061 -0.7071074 0
vn -0.3826826 -0.9238799 0
vn -0.3826826 -0.9238799 0
vn -0.3826826 -0.9238799 0
vn -0.3826826 -0.9238799 0
vn 0 -1 0
vn 0 -1 0
vn 0.3826824 -0.92388 0
vn 0.3826824 -0.92388 0
vn 0 0.3826824 -0.92388
vn 0 0.3826824 -0.92388
vn 0 0.7071066 -0.7071069
vn 0 0.7071066 -0.7071069
vn 0 0.9238795 -0.3826834
vn 0 0.9238795 -0.3826834
vn 0 1 -6.969865E-07
vn 0 1 -6.969865E-07
vn 0 0.9238798 0.3826829
vn 0 0.9238798 0.3826829
vn 0 0.7071068 0.7071066
vn 0 0.7071068 0.7071066
vn 0 0.3826823 0.92388
vn 0 0.3826823 0.92388
vn 0 0.3826823 0.92388
vn 0 0.3826823 0.92388
vn 0 0 1
vn 0 0 1
vn 0 -0.3826821 0.92388
vn 0 -0.3826821 0.92388
vn 0 -0.3826821 0.92388
vn 0 -0.3826821 0.92388
vn 0 -0.7071066 0.7071069
vn 0 -0.7071066 0.7071069
vn 0 -0.9238795 0.3826833
vn 0 -0.9238795 0.3826833
vn 0 -1 1.639968E-07
vn 0 -1 1.639968E-07
vn 0 -0.9238795 -0.3826833
vn 0 -0.9238795 -0.3826833
vn 0 -0.7071069 -0.7071066
vn 0 -0.7071069 -0.7071066
vn 0 -0.3826823 -0.92388
vn 0 -0.3826823 -0.92388
vn 0 -0.3826823 -0.92388
vn 0 -0.3826823 -0.92388
vn 0 0 -1
vn 0 0 -1
vn 0 0.3826824 -0.92388
vn 0 0.3826824 -0.92388
vn -1.214599E-06 0 -1
vn 1.214598E-07 0 -1
vn 1.518248E-07 0 -1
vn -6.072998E-07 0 -1
vn 1.457519E-06 0 -1
vn 0 0 -1
vn 7.287595E-07 0 -1
vn -4.858398E-07 0 -1
vn 0 0 -1
vn -9.716794E-07 0 -1
vn 4.858396E-07 0 -1
vn 0 0 -1
vn 9.716797E-07 0 -1
vn 9.716798E-07 0 -1
vn 4.858396E-07 0 -1
vn 4.858397E-07 0 -1
vn 0 0 -1
vn -1.214598E-06 0 -1
vn 1.214593E-07 0 -1
vn 1.518239E-07 0 -1
vn -6.072999E-07 0 -1
vn 1.457533E-06 0 -1
vn 0 0 -1
vn 7.287611E-07 0 -1
vn -4.858402E-07 0 -1
vn 0 0 -1
vn -9.716799E-07 0 -1
vn 4.858389E-07 0 -1
vn 0 0 -1
vn 9.716799E-07 0 -1
vn 9.71678E-07 0 -1
vn 4.858391E-07 0 -1
vn 4.85839E-07 0 -1
vn 0 0 -1
vn -1 0 0
vn -1 0 0
vn -1 0 0
vn -1 0 0
vn -1 0 0
vn -1 0 0
vn -1 0 0
vn -1 0 0
vn -1 0 0
vn -1 0 0
vn -1 0 0
vn -1 0 0
vn -1 0 0
vn -1 0 0
vn -1 0 0
vn -1 0 0
vn -1 0 0
vn 1 0 0
vn 1 4.247519E-06 0
vn 1 8.495043E-06 0
vn 1 4.247529E-06 0
vn 1 0 0
vn 1 0 0
vn 1 0 0
vn 1 0 0
vn 1 0 0
vn 1 0 0
vn 1 0 0
vn 1 0 0
vn 1 0 0
vn 1 0 0
vn 1 -4.247526E-06 0
vn 1 -4.247519E-06 0
vn 1 -8.495042E-06 0
vn -0.7139321 0.2679597 -0.6469147
vn -0.7139321 0 -0.700215
vn -0.7139321 0 -0.700215
vn -0.713932 0.2679597 -0.6469147
vn -0.7139322 -0.2679596 -0.6469147
vn -0.7139319 0.4951265 -0.4951273
vn -0.7139321 -0.2679596 -0.6469147
vn -0.7139319 0.4951268 -0.495127
vn -0.713932 -0.4951269 -0.4951268
vn -0.7139321 0.6469142 -0.2679607
vn -0.713932 -0.4951266 -0.4951271
vn -0.7139321 0.6469144 -0.2679603
vn -0.7139321 -0.6469144 -0.2679603
vn -0.7139324 0.7002147 -5.602393E-07
vn -0.7139321 -0.6469142 -0.2679607
vn -0.7139324 0.7002146 -4.562435E-07
vn -0.7139324 -0.7002146 1.545341E-07
vn -0.7139322 0.6469144 0.2679602
vn -0.7139324 -0.7002146 1.785377E-07
vn -0.7139322 0.6469145 0.2679599
vn -0.713932 -0.6469145 0.2679603
vn -0.7139319 0.4951266 0.4951272
vn -0.713932 -0.6469143 0.2679607
vn -0.7139319 0.4951269 0.4951269
vn -0.7139319 -0.4951268 0.4951269
vn -0.713932 0.2679597 0.6469147
vn -0.7139319 -0.4951265 0.4951272
vn -0.713932 0.2679597 0.6469147
vn -0.7139322 -0.2679595 0.6469147
vn -0.7139322 0 0.7002148
vn -0.7139322 -0.2679595 0.6469147
vn -0.7139321 0 0.7002149
vn 0.7139297 0.2679613 -0.6469166
vn 0.7139297 0.4951279 -0.495129
vn 0.7139297 0.4951282 -0.4951287
vn 0.7139297 0.2679613 -0.6469166
vn 0.7139298 0.6469165 -0.2679611
vn 0.7139299 0 -0.7002171
vn 0.7139298 0.6469164 -0.2679616
vn 0.7139299 0 -0.7002171
vn 0.7139291 0.700218 -4.488825E-07
vn 0.7139297 -0.2679613 -0.6469166
vn 0.7139291 0.700218 -5.417675E-07
vn 0.7139297 -0.2679613 -0.6469166
vn 0.7139298 0.6469166 0.2679607
vn 0.7139297 -0.4951282 -0.4951287
vn 0.7139298 0.6469165 0.2679611
vn 0.7139297 -0.4951284 -0.4951285
vn 0.7139297 0.4951284 0.4951286
vn 0.7139298 -0.6469164 -0.2679615
vn 0.7139297 0.4951281 0.4951288
vn 0.7139298 -0.6469165 -0.2679611
vn 0.7139295 0.2679613 0.6469167
vn 0.7139291 -0.700218 0
vn 0.7139295 0.2679613 0.6469169
vn 0.7139291 -0.700218 0
vn 0.7139298 0 0.7002173
vn 0.7139297 -0.6469164 0.2679615
vn 0.7139298 0 0.7002173
vn 0.7139298 -0.6469166 0.2679611
vn 0.7139297 -0.2679611 0.6469167
vn 0.7139297 -0.4951279 0.495129
vn 0.7139297 -0.2679611 0.6469167
vn 0.7139297 -0.4951282 0.4951287
usemtl HammeredMetal_Dark
f 255/255/377 254/254/376 253/253/375
f 254/254/376 256/256/378 253/253/375
f 253/253/375 256/256/378 257/257/379
f 256/256/378 258/258/380 257/257/379
f 257/257/379 258/258/380 259/259/381
f 258/258/380 260/260/382 259/259/381
f 259/259/381 260/260/382 261/261/383
f 260/260/382 262/262/384 261/261/383
f 261/261/383 262/262/384 263/263/385
f 262/262/384 264/264/386 263/263/385
f 263/263/385 264/264/386 265/265/387
f 264/264/386 266/266/388 265/265/387
f 269/269/391 268/268/390 267/267/389
f 270/270/392 269/269/391 267/267/389
f 271/271/393 269/269/391 270/270/392
f 272/272/394 271/271/393 270/270/392
f 275/275/397 274/274/396 273/273/395
f 276/276/398 275/275/397 273/273/395
f 277/277/399 275/275/397 276/276/398
f 278/278/400 277/277/399 276/276/398
f 279/279/401 277/277/399 278/278/400
f 280/280/402 279/279/401 278/278/400
f 281/281/403 279/279/401 280/280/402
f 282/282/404 281/281/403 280/280/402
f 283/283/405 281/281/403 282/282/404
f 284/284/406 283/283/405 282/282/404
f 285/285/407 283/283/405 284/284/406
f 286/286/408 285/285/407 284/284/406
f 289/289/411 288/288/410 287/287/409
f 290/290/412 289/289/411 287/287/409
f 291/291/413 289/289/411 290/290/412
f 292/292/414 291/291/413 290/290/412
f 295/295/417 294/294/416 293/293/415
f 294/294/416 296/296/418 293/293/415
f 293/293/415 296/296/418 297/297/419
f 296/296/418 298/298/420 297/297/419
f 297/297/419 298/298/420 299/299/421
f 298/298/420 300/300/422 299/299/421
f 299/299/421 300/300/422 301/301/423
f 300/300/422 302/302/424 301/301/423
f 301/301/423 302/302/424 303/303/425
f 302/302/424 304/304/426 303/303/425
f 303/303/425 304/304/426 305/305/427
f 304/304/426 306/306/428 305/305/427
f 309/309/431 308/308/430 307/307/429
f 310/310/432 309/309/431 307/307/429
f 311/311/433 309/309/431 310/310/432
f 312/312/434 311/311/433 310/310/432
f 315/315/437 314/314/436 313/313/435
f 316/316/438 315/315/437 313/313/435
f 317/317/439 315/315/437 316/316/438
f 318/318/440 317/317/439 316/316/438
f 319/319/441 317/317/439 318/318/440
f 320/320/442 319/319/441 318/318/440
f 321/321/443 319/319/441 320/320/442
f 322/322/444 321/321/443 320/320/442
f 323/323/445 321/321/443 322/322/444
f 324/324/446 323/323/445 322/322/444
f 325/325/447 323/323/445 324/324/446
f 326/326/448 325/325/447 324/324/446
f 329/329/451 328/328/450 327/327/449
f 330/330/452 329/329/451 327/327/449
f 331/331/453 329/329/451 330/330/452
f 332/332/454 331/331/453 330/330/452
f 335/335/457 334/334/456 333/333/455
f 336/336/458 335/335/457 333/333/455
f 337/337/459 335/335/457 336/336/458
f 338/338/460 337/337/459 336/336/458
f 339/339/461 337/337/459 338/338/460
f 340/340/462 339/339/461 338/338/460
f 341/341/463 339/339/461 340/340/462
f 342/342/464 341/341/463 340/340/462
f 343/343/465 341/341/463 342/342/464
f 344/344/466 343/343/465 342/342/464
f 345/345/467 343/343/465 344/344/466
f 346/346/468 345/345/467 344/344/466
f 349/349/471 348/348/470 347/347/469
f 350/350/472 349/349/471 347/347/469
f 351/351/473 349/349/471 350/350/472
f 352/352/474 351/351/473 350/350/472
f 355/355/477 354/354/476 353/353/475
f 356/356/478 355/355/477 353/353/475
f 357/357/479 355/355/477 356/356/478
f 358/358/480 357/357/479 356/356/478
f 359/359/481 357/357/479 358/358/480
f 360/360/482 359/359/481 358/358/480
f 361/361/483 359/359/481 360/360/482
f 362/362/484 361/361/483 360/360/482
f 363/363/485 361/361/483 362/362/484
f 364/364/486 363/363/485 362/362/484
f 365/365/487 363/363/485 364/364/486
f 366/366/488 365/365/487 364/364/486
f 369/369/491 368/368/490 367/367/489
f 370/370/492 369/369/491 367/367/489
f 371/371/493 369/369/491 370/370/492
f 372/372/494 371/371/493 370/370/492
f 375/375/497 374/374/496 373/373/495
f 376/376/498 375/375/497 373/373/495
f 374/374/496 375/375/497 377/377/499
f 375/375/497 376/376/498 378/378/500
f 375/375/497 379/379/501 377/377/499
f 380/380/502 375/375/497 378/378/500
f 379/379/501 375/375/497 381/381/503
f 375/375/497 380/380/502 382/382/504
f 375/375/497 383/383/505 381/381/503
f 384/384/506 375/375/497 382/382/504
f 383/383/505 375/375/497 385/385/507
f 375/375/497 384/384/506 386/386/508
f 375/375/497 387/387/509 385/385/507
f 388/388/510 375/375/497 386/386/508
f 387/387/509 375/375/497 389/389/511
f 375/375/497 388/388/510 389/389/511
f 392/392/514 391/391/513 390/390/512
f 393/393/515 392/392/514 390/390/512
f 391/391/513 392/392/514 394/394/516
f 392/392/514 393/393/515 395/395/517
f 392/392/514 396/396/518 394/394/516
f 397/397/519 392/392/514 395/395/517
f 396/396/518 392/392/514 398/398/520
f 392/392/514 397/397/519 399/399/521
f 392/392/514 400/400/522 398/398/520
f 401/401/523 392/392/514 399/399/521
f 400/400/522 392/392/514 402/402/524
f 392/392/514 401/401/523 403/403/525
f 392/392/514 404/404/526 402/402/524
f 405/405/527 392/392/514 403/403/525
f 404/404/526 392/392/514 406/406/528
f 392/392/514 405/405/527 406/406/528
f 409/409/531 408/408/530 407/407/529
f 410/410/532 409/409/531 407/407/529
f 408/408/530 409/409/531 411/411/533
f 409/409/531 410/410/532 412/412/534
f 409/409/531 413/413/535 411/411/533
f 414/414/536 409/409/531 412/412/534
f 413/413/535 409/409/531 415/415/537
f 409/409/531 414/414/536 416/416/538
f 409/409/531 417/417/539 415/415/537
f 418/418/540 409/409/531 416/416/538
f 417/417/539 409/409/531 419/419/541
f 409/409/531 418/418/540 420/420/542
f 409/409/531 421/421/543 419/419/541
f 422/422/544 409/409/531 420/420/542
f 421/421/543 409/409/531 423/423/545
f 409/409/531 422/422/544 423/423/545
f 426/426/548 425/425/547 424/424/546
f 427/427/549 426/426/548 424/424/546
f 425/425/547 428/428/550 424/424/546
f 429/429/551 427/427/549 424/424/546
f 428/428/550 430/430/552 424/424/546
f 431/431/553 429/429/551 424/424/546
f 430/430/552 432/432/554 424/424/546
f 433/433/555 431/431/553 424/424/546
f 432/432/554 434/434/556 424/424/546
f 435/435/557 433/433/555 424/424/546
f 434/434/556 436/436/558 424/424/546
f 437/437/559 435/435/557 424/424/546
f 436/436/558 438/438/560 424/424/546
f 439/439/561 437/437/559 424/424/546
f 438/438/560 440/440/562 424/424/546
f 440/440/562 439/439/561 424/424/546
f 443/443/565 442/442/564 441/441/563
f 444/444/566 443/443/565 441/441/563
f 442/442/564 443/443/565 445/445/567
f 441/441/563 446/446/568 444/444/566
f 447/447/569 442/442/564 445/445/567
f 446/446/568 448/448/570 444/444/566
f 447/447/569 445/445/567 449/449/571
f 446/446/568 450/450/572 448/448/570
f 451/451/573 447/447/569 449/449/571
f 450/450/572 452/452/574 448/448/570
f 451/451/573 449/449/571 453/453/575
f 450/450/572 454/454/576 452/452/574
f 455/455/577 451/451/573 453/453/575
f 454/454/576 456/456/578 452/452/574
f 455/455/577 453/453/575 457/457/579
f 454/454/576 458/458/580 456/456/578
f 459/459/581 455/455/577 457/457/579
f 458/458/580 460/460/582 456/456/578
f 459/459/581 457/457/579 461/461/583
f 458/458/580 462/462/584 460/460/582
f 463/463/585 459/459/581 461/461/583
f 462/462/584 464/464/586 460/460/582
f 463/463/585 461/461/583 465/465/587
f 462/462/584 466/466/588 464/464/586
f 467/467/589 463/463/585 465/465/587
f 466/466/588 468/468/590 464/464/586
f 467/467/589 465/465/587 469/469/591
f 466/466/588 470/470/592 468/468/590
f 471/471/593 467/467/589 469/469/591
f 470/470/592 472/472/594 468/468/590
f 471/471/593 469/469/591 472/472/594
f 470/470/592 471/471/593 472/472/594
f 475/475/597 474/474/596 473/473/595
f 476/476/598 475/475/597 473/473/595
f 475/475/597 477/477/599 474/474/596
f 473/473/595 478/478/600 476/476/598
f 477/477/599 479/479/601 474/474/596
f 478/478/600 480/480/602 476/476/598
f 477/477/599 481/481/603 479/479/601
f 480/480/602 478/478/600 482/482/604
f 481/481/603 483/483/605 479/479/601
f 484/484/606 480/480/602 482/482/604
f 481/481/603 485/485/607 483/483/605
f 484/484/606 482/482/604 486/486/608
f 485/485/607 487/487/609 483/483/605
f 488/488/610 484/484/606 486/486/608
f 485/485/607 489/489/611 487/487/609
f 488/488/610 486/486/608 490/490/612
f 489/489/611 491/491/613 487/487/609
f 492/492/614 488/488/610 490/490/612
f 489/489/611 493/493/615 491/491/613
f 492/492/614 490/490/612 494/494/616
f 493/493/615 495/495/617 491/491/613
f 496/496/618 492/492/614 494/494/616
f 493/493/615 497/497/619 495/495/617
f 496/496/618 494/494/616 498/498/620
f 497/497/619 499/499/621 495/495/617
f 500/500/622 496/496/618 498/498/620
f 497/497/619 501/501/623 499/499/621
f 500/500/622 498/498/620 502/502/624
f 501/501/623 503/503/625 499/499/621
f 504/504/626 500/500/622 502/502/624
f 504/504/626 502/502/624 503/503/625
f 501/501/623 504/504/626 503/503/625
