mtllib Dresser_205_1.mtl
v -0.55039 -0.00064 0.16991
v -0.55039 -0.00012 0.1737
v -0.5471 -0.00012 0.16991
v -0.55039 0.65452 0.17393
v -0.55039 0.65504 0.17014
v -0.5471 0.65452 0.17014
v -0.55039 -0.00063 0.12686
v -0.5471 -0.0001 0.12686
v -0.55039 -0.0001 0.12307
v -0.55039 0.65505 0.12709
v -0.55039 0.65453 0.1233
v -0.5471 0.65453 0.12709
v -0.59245 -0.00064 0.16991
v -0.59573 -0.00012 0.16991
v -0.59245 -0.00012 0.1737
v -0.59245 0.65504 0.17014
v -0.59245 0.65452 0.17393
v -0.59573 0.65452 0.17014
v -0.59245 -0.00063 0.12686
v -0.59245 -0.0001 0.12307
v -0.59573 -0.0001 0.12686
v -0.59245 0.65505 0.12709
v -0.59573 0.65453 0.12709
v -0.59245 0.65453 0.1233
v -0.55039 -0.00053 -0.14848
v -0.55039 -1E-05 -0.14469
v -0.5471 -1E-05 -0.14848
v -0.55039 0.65463 -0.14446
v -0.55039 0.65515 -0.14825
v -0.5471 0.65463 -0.14825
v -0.55039 -0.00052 -0.19153
v -0.5471 0 -0.19153
v -0.55039 1E-05 -0.19532
v -0.55039 0.65516 -0.1913
v -0.55039 0.65464 -0.19509
v -0.5471 0.65464 -0.1913
v -0.59245 -0.00053 -0.14848
v -0.59573 -1E-05 -0.14848
v -0.59245 -1E-05 -0.14469
v -0.59245 0.65515 -0.14825
v -0.59245 0.65463 -0.14446
v -0.59573 0.65463 -0.14825
v -0.59245 -0.00052 -0.19153
v -0.59245 1E-05 -0.19532
v -0.59573 0 -0.19153
v -0.59245 0.65516 -0.1913
v -0.59573 0.65464 -0.1913
v -0.59245 0.65464 -0.19509
v 0.55021 -0.00064 0.16991
v 0.54692 -0.00012 0.16991
v 0.55021 -0.00012 0.1737
v 0.55021 0.65452 0.17393
v 0.54692 0.65452 0.17014
v 0.55021 0.65504 0.17014
v 0.55021 -0.00063 0.12686
v 0.55021 -0.0001 0.12307
v 0.54692 -0.0001 0.12686
v 0.55021 0.65505 0.12709
v 0.54692 0.65453 0.12709
v 0.55021 0.65453 0.1233
v 0.59227 -0.00064 0.16991
v 0.59227 -0.00012 0.1737
v 0.59556 -0.00012 0.16991
v 0.59227 0.65504 0.17014
v 0.59556 0.65452 0.17014
v 0.59227 0.65452 0.17393
v 0.59227 -0.00063 0.12686
v 0.59556 -0.0001 0.12686
v 0.59227 -0.0001 0.12307
v 0.59227 0.65505 0.12709
v 0.59227 0.65453 0.1233
v 0.59556 0.65453 0.12709
v 0.55021 -0.00053 -0.14848
v 0.54692 -1E-05 -0.14848
v 0.55021 -1E-05 -0.14469
v 0.55021 0.65463 -0.14446
v 0.54692 0.65463 -0.14825
v 0.55021 0.65515 -0.14825
v 0.55021 -0.00052 -0.19153
v 0.55021 1E-05 -0.19532
v 0.54692 0 -0.19153
v 0.55021 0.65516 -0.1913
v 0.54692 0.65464 -0.1913
v 0.55021 0.65464 -0.19509
v 0.59227 -0.00053 -0.14848
v 0.59227 -1E-05 -0.14469
v 0.59556 -1E-05 -0.14848
v 0.59227 0.65515 -0.14825
v 0.59556 0.65463 -0.14825
v 0.59227 0.65463 -0.14446
v 0.59227 -0.00052 -0.19153
v 0.59556 0 -0.19153
v 0.59227 1E-05 -0.19532
v 0.59227 0.65516 -0.1913
v 0.59227 0.65464 -0.19509
v 0.59556 0.65464 -0.1913
v -0.5471 -0.00012 0.16991
v -0.5471 0.65452 0.17014
v -0.5471 0.65453 0.12709
v -0.5471 -0.0001 0.12686
v -0.59245 -0.00012 0.1737
v -0.59245 0.65452 0.17393
v -0.55039 0.65452 0.17393
v -0.55039 -0.00012 0.1737
v -0.59573 -0.0001 0.12686
v -0.59573 0.65453 0.12709
v -0.59573 0.65452 0.17014
v -0.59573 -0.00012 0.16991
v -0.55039 -0.00063 0.12686
v -0.59245 -0.00063 0.12686
v -0.59245 -0.00064 0.16991
v -0.55039 -0.00064 0.16991
v -0.59245 0.65505 0.12709
v -0.55039 0.65505 0.12709
v -0.55039 0.65504 0.17014
v -0.59245 0.65504 0.17014
v -0.55039 -0.0001 0.12307
v -0.55039 0.65453 0.1233
v -0.59245 0.65453 0.1233
v -0.59245 -0.0001 0.12307
v -0.5471 -0.0001 0.12686
v -0.55039 -0.00063 0.12686
v -0.55039 -0.00064 0.16991
v -0.5471 -0.00012 0.16991
v -0.5471 -0.00012 0.16991
v -0.55039 -0.00012 0.1737
v -0.55039 0.65452 0.17393
v -0.5471 0.65452 0.17014
v -0.5471 0.65452 0.17014
v -0.55039 0.65504 0.17014
v -0.55039 0.65505 0.12709
v -0.5471 0.65453 0.12709
v -0.5471 0.65453 0.12709
v -0.55039 0.65453 0.1233
v -0.55039 -0.0001 0.12307
v -0.5471 -0.0001 0.12686
v -0.59245 -0.0001 0.12307
v -0.59245 -0.00063 0.12686
v -0.55039 -0.00063 0.12686
v -0.55039 -0.0001 0.12307
v -0.55039 0.65453 0.1233
v -0.55039 0.65505 0.12709
v -0.59245 0.65505 0.12709
v -0.59245 0.65453 0.1233
v -0.59245 0.65453 0.1233
v -0.59573 0.65453 0.12709
v -0.59573 -0.0001 0.12686
v -0.59245 -0.0001 0.12307
v -0.59573 -0.00012 0.16991
v -0.59245 -0.00064 0.16991
v -0.59245 -0.00063 0.12686
v -0.59573 -0.0001 0.12686
v -0.59573 0.65453 0.12709
v -0.59245 0.65505 0.12709
v -0.59245 0.65504 0.17014
v -0.59573 0.65452 0.17014
v -0.59573 0.65452 0.17014
v -0.59245 0.65452 0.17393
v -0.59245 -0.00012 0.1737
v -0.59573 -0.00012 0.16991
v -0.55039 -0.00012 0.1737
v -0.55039 -0.00064 0.16991
v -0.59245 -0.00064 0.16991
v -0.59245 -0.00012 0.1737
v -0.59245 0.65452 0.17393
v -0.59245 0.65504 0.17014
v -0.55039 0.65504 0.17014
v -0.55039 0.65452 0.17393
v -0.5471 -1E-05 -0.14848
v -0.5471 0.65463 -0.14825
v -0.5471 0.65464 -0.1913
v -0.5471 0 -0.19153
v -0.59245 -1E-05 -0.14469
v -0.59245 0.65463 -0.14446
v -0.55039 0.65463 -0.14446
v -0.55039 -1E-05 -0.14469
v -0.59573 0 -0.19153
v -0.59573 0.65464 -0.1913
v -0.59573 0.65463 -0.14825
v -0.59573 -1E-05 -0.14848
v -0.55039 -0.00052 -0.19153
v -0.59245 -0.00052 -0.19153
v -0.59245 -0.00053 -0.14848
v -0.55039 -0.00053 -0.14848
v -0.59245 0.65516 -0.1913
v -0.55039 0.65516 -0.1913
v -0.55039 0.65515 -0.14825
v -0.59245 0.65515 -0.14825
v -0.55039 1E-05 -0.19532
v -0.55039 0.65464 -0.19509
v -0.59245 0.65464 -0.19509
v -0.59245 1E-05 -0.19532
v -0.5471 0 -0.19153
v -0.55039 -0.00052 -0.19153
v -0.55039 -0.00053 -0.14848
v -0.5471 -1E-05 -0.14848
v -0.5471 -1E-05 -0.14848
v -0.55039 -1E-05 -0.14469
v -0.55039 0.65463 -0.14446
v -0.5471 0.65463 -0.14825
v -0.5471 0.65463 -0.14825
v -0.55039 0.65515 -0.14825
v -0.55039 0.65516 -0.1913
v -0.5471 0.65464 -0.1913
v -0.5471 0.65464 -0.1913
v -0.55039 0.65464 -0.19509
v -0.55039 1E-05 -0.19532
v -0.5471 0 -0.19153
v -0.59245 1E-05 -0.19532
v -0.59245 -0.00052 -0.19153
v -0.55039 -0.00052 -0.19153
v -0.55039 1E-05 -0.19532
v -0.55039 0.65464 -0.19509
v -0.55039 0.65516 -0.1913
v -0.59245 0.65516 -0.1913
v -0.59245 0.65464 -0.19509
v -0.59245 0.65464 -0.19509
v -0.59573 0.65464 -0.1913
v -0.59573 0 -0.19153
v -0.59245 1E-05 -0.19532
v -0.59573 -1E-05 -0.14848
v -0.59245 -0.00053 -0.14848
v -0.59245 -0.00052 -0.19153
v -0.59573 0 -0.19153
v -0.59573 0.65464 -0.1913
v -0.59245 0.65516 -0.1913
v -0.59245 0.65515 -0.14825
v -0.59573 0.65463 -0.14825
v -0.59573 0.65463 -0.14825
v -0.59245 0.65463 -0.14446
v -0.59245 -1E-05 -0.14469
v -0.59573 -1E-05 -0.14848
v -0.55039 -1E-05 -0.14469
v -0.55039 -0.00053 -0.14848
v -0.59245 -0.00053 -0.14848
v -0.59245 -1E-05 -0.14469
v -0.59245 0.65463 -0.14446
v -0.59245 0.65515 -0.14825
v -0.55039 0.65515 -0.14825
v -0.55039 0.65463 -0.14446
v 0.55021 -0.00063 0.12686
v 0.55021 -0.00064 0.16991
v 0.59227 -0.00064 0.16991
v 0.59227 -0.00063 0.12686
v 0.59227 -0.00012 0.1737
v 0.55021 -0.00012 0.1737
v 0.55021 0.65452 0.17393
v 0.59227 0.65452 0.17393
v 0.59556 -0.0001 0.12686
v 0.59556 -0.00012 0.16991
v 0.59556 0.65452 0.17014
v 0.59556 0.65453 0.12709
v 0.59227 0.65505 0.12709
v 0.59227 0.65504 0.17014
v 0.55021 0.65504 0.17014
v 0.55021 0.65505 0.12709
v 0.54692 -0.00012 0.16991
v 0.54692 -0.0001 0.12686
v 0.54692 0.65453 0.12709
v 0.54692 0.65452 0.17014
v 0.55021 -0.0001 0.12307
v 0.59227 -0.0001 0.12307
v 0.59227 0.65453 0.1233
v 0.55021 0.65453 0.1233
v 0.55021 -0.00063 0.12686
v 0.54692 -0.0001 0.12686
v 0.54692 -0.00012 0.16991
v 0.55021 -0.00064 0.16991
v 0.55021 -0.00012 0.1737
v 0.54692 -0.00012 0.16991
v 0.54692 0.65452 0.17014
v 0.55021 0.65452 0.17393
v 0.55021 0.65504 0.17014
v 0.54692 0.65452 0.17014
v 0.54692 0.65453 0.12709
v 0.55021 0.65505 0.12709
v 0.55021 0.65453 0.1233
v 0.54692 0.65453 0.12709
v 0.54692 -0.0001 0.12686
v 0.55021 -0.0001 0.12307
v 0.59227 -0.00063 0.12686
v 0.59227 -0.0001 0.12307
v 0.55021 -0.0001 0.12307
v 0.55021 -0.00063 0.12686
v 0.55021 0.65505 0.12709
v 0.55021 0.65453 0.1233
v 0.59227 0.65453 0.1233
v 0.59227 0.65505 0.12709
v 0.59556 0.65453 0.12709
v 0.59227 0.65453 0.1233
v 0.59227 -0.0001 0.12307
v 0.59556 -0.0001 0.12686
v 0.59227 -0.00064 0.16991
v 0.59556 -0.00012 0.16991
v 0.59556 -0.0001 0.12686
v 0.59227 -0.00063 0.12686
v 0.59227 0.65505 0.12709
v 0.59556 0.65453 0.12709
v 0.59556 0.65452 0.17014
v 0.59227 0.65504 0.17014
v 0.59227 0.65452 0.17393
v 0.59556 0.65452 0.17014
v 0.59556 -0.00012 0.16991
v 0.59227 -0.00012 0.1737
v 0.55021 -0.00064 0.16991
v 0.55021 -0.00012 0.1737
v 0.59227 -0.00012 0.1737
v 0.59227 -0.00064 0.16991
v 0.59227 0.65504 0.17014
v 0.59227 0.65452 0.17393
v 0.55021 0.65452 0.17393
v 0.55021 0.65504 0.17014
v 0.59227 -1E-05 -0.14469
v 0.55021 -1E-05 -0.14469
v 0.55021 0.65463 -0.14446
v 0.59227 0.65463 -0.14446
v 0.59556 0 -0.19153
v 0.59556 -1E-05 -0.14848
v 0.59556 0.65463 -0.14825
v 0.59556 0.65464 -0.1913
v 0.59227 0.65516 -0.1913
v 0.59227 0.65515 -0.14825
v 0.55021 0.65515 -0.14825
v 0.55021 0.65516 -0.1913
v 0.54692 -1E-05 -0.14848
v 0.54692 0 -0.19153
v 0.54692 0.65464 -0.1913
v 0.54692 0.65463 -0.14825
v 0.55021 1E-05 -0.19532
v 0.59227 1E-05 -0.19532
v 0.59227 0.65464 -0.19509
v 0.55021 0.65464 -0.19509
v 0.55021 -0.00052 -0.19153
v 0.54692 0 -0.19153
v 0.54692 -1E-05 -0.14848
v 0.55021 -0.00053 -0.14848
v 0.55021 -1E-05 -0.14469
v 0.54692 -1E-05 -0.14848
v 0.54692 0.65463 -0.14825
v 0.55021 0.65463 -0.14446
v 0.55021 0.65515 -0.14825
v 0.54692 0.65463 -0.14825
v 0.54692 0.65464 -0.1913
v 0.55021 0.65516 -0.1913
v 0.55021 0.65464 -0.19509
v 0.54692 0.65464 -0.1913
v 0.54692 0 -0.19153
v 0.55021 1E-05 -0.19532
v 0.59227 -0.00052 -0.19153
v 0.59227 1E-05 -0.19532
v 0.55021 1E-05 -0.19532
v 0.55021 -0.00052 -0.19153
v 0.55021 0.65516 -0.1913
v 0.55021 0.65464 -0.19509
v 0.59227 0.65464 -0.19509
v 0.59227 0.65516 -0.1913
v 0.59556 0.65464 -0.1913
v 0.59227 0.65464 -0.19509
v 0.59227 1E-05 -0.19532
v 0.59556 0 -0.19153
v 0.59227 -0.00053 -0.14848
v 0.59556 -1E-05 -0.14848
v 0.59556 0 -0.19153
v 0.59227 -0.00052 -0.19153
v 0.59227 0.65516 -0.1913
v 0.59556 0.65464 -0.1913
v 0.59556 0.65463 -0.14825
v 0.59227 0.65515 -0.14825
v 0.59227 0.65463 -0.14446
v 0.59556 0.65463 -0.14825
v 0.59556 -1E-05 -0.14848
v 0.59227 -1E-05 -0.14469
v 0.55021 -0.00053 -0.14848
v 0.55021 -1E-05 -0.14469
v 0.59227 -1E-05 -0.14469
v 0.59227 -0.00053 -0.14848
v 0.59227 0.65515 -0.14825
v 0.59227 0.65463 -0.14446
v 0.55021 0.65463 -0.14446
v 0.55021 0.65515 -0.14825
v 0.55021 -0.00052 -0.19153
v 0.55021 -0.00053 -0.14848
v 0.59227 -0.00053 -0.14848
v 0.59227 -0.00052 -0.19153
v -0.57027 0.03305 0.12281
v -0.57027 0.6526 0.12302
v -0.57027 0.65269 -0.14547
v -0.57027 0.03314 -0.14569
v -0.57027 0.03314 -0.14569
v -0.57027 0.65269 -0.14547
v -0.59459 0.65269 -0.14547
v -0.59459 0.03314 -0.14569
v -0.59459 0.03314 -0.14569
v -0.59459 0.65269 -0.14547
v -0.59459 0.6526 0.12302
v -0.59459 0.03305 0.12281
v -0.59459 0.03305 0.12281
v -0.59459 0.6526 0.12302
v -0.57027 0.6526 0.12302
v -0.57027 0.03305 0.12281
v -0.57027 0.03314 -0.14569
v -0.59459 0.03314 -0.14569
v -0.59459 0.03305 0.12281
v -0.57027 0.03305 0.12281
v -0.59459 0.65269 -0.14547
v -0.57027 0.65269 -0.14547
v -0.57027 0.6526 0.12302
v -0.59459 0.6526 0.12302
v 0.57115 0.03305 0.12281
v 0.57115 0.03314 -0.14569
v 0.57115 0.65269 -0.14547
v 0.57115 0.6526 0.12302
v 0.57115 0.03314 -0.14569
v 0.59547 0.03314 -0.14569
v 0.59547 0.65269 -0.14547
v 0.57115 0.65269 -0.14547
v 0.59547 0.03314 -0.14569
v 0.59547 0.03305 0.12281
v 0.59547 0.6526 0.12302
v 0.59547 0.65269 -0.14547
v 0.59547 0.03305 0.12281
v 0.57115 0.03305 0.12281
v 0.57115 0.6526 0.12302
v 0.59547 0.6526 0.12302
v 0.57115 0.03314 -0.14569
v 0.57115 0.03305 0.12281
v 0.59547 0.03305 0.12281
v 0.59547 0.03314 -0.14569
v 0.59547 0.65269 -0.14547
v 0.59547 0.6526 0.12302
v 0.57115 0.6526 0.12302
v 0.57115 0.65269 -0.14547
v -0.55187 0.03315 -0.16863
v -0.55187 0.6527 -0.16842
v 0.5517 0.6527 -0.16842
v 0.5517 0.03315 -0.16863
v 0.5517 0.03315 -0.16863
v 0.5517 0.6527 -0.16842
v 0.5517 0.65271 -0.19647
v 0.5517 0.03316 -0.19668
v 0.5517 0.03316 -0.19668
v 0.5517 0.65271 -0.19647
v -0.55187 0.65271 -0.19647
v -0.55187 0.03316 -0.19668
v -0.55187 0.03316 -0.19668
v -0.55187 0.65271 -0.19647
v -0.55187 0.6527 -0.16842
v -0.55187 0.03315 -0.16863
v 0.5517 0.03315 -0.16863
v 0.5517 0.03316 -0.19668
v -0.55187 0.03316 -0.19668
v -0.55187 0.03315 -0.16863
v 0.5517 0.65271 -0.19647
v 0.5517 0.6527 -0.16842
v -0.55187 0.6527 -0.16842
v -0.55187 0.65271 -0.19647
v -0.55187 0.03304 0.14383
v 0.5517 0.03304 0.14383
v 0.5517 0.65259 0.14404
v -0.55187 0.65259 0.14404
v 0.5517 0.03304 0.14383
v 0.5517 0.03303 0.17188
v 0.5517 0.34281 0.17199
v 0.5517 0.65258 0.17209
v 0.5517 0.65259 0.14404
v -0.54187 0.33281 0.17198
v -0.54187 0.33289 -0.06897
v -0.54187 0.04311 -0.06907
v -0.54187 0.04303 0.17188
v -0.55187 0.65259 0.14404
v -0.55187 0.65258 0.17209
v -0.55187 0.34281 0.17199
v -0.55187 0.03303 0.17188
v -0.55187 0.03304 0.14383
v -9E-05 0.03303 0.17188
v 0.5517 0.03303 0.17188
v 0.5517 0.03304 0.14383
v -0.55187 0.03304 0.14383
v -0.55187 0.03303 0.17188
v -0.55187 0.65259 0.14404
v 0.5517 0.65259 0.14404
v 0.5517 0.65258 0.17209
v -9E-05 0.65258 0.17209
v -0.55187 0.65258 0.17209
v 0.5417 0.04303 0.17188
v 0.5417 0.04311 -0.06907
v 0.5417 0.33289 -0.06897
v 0.5417 0.33281 0.17198
v 0.00991 0.64258 0.17209
v 0.00991 0.64267 -0.06886
v 0.00991 0.35289 -0.06896
v 0.00991 0.35281 0.17199
v -0.01009 0.35281 0.17199
v -0.01009 0.35289 -0.06896
v -0.01009 0.64267 -0.06886
v -0.01009 0.64258 0.17209
v -0.01009 0.04303 0.17188
v -0.55187 0.03303 0.17188
v -0.54187 0.04303 0.17188
v -9E-05 0.03303 0.17188
v -0.01009 0.33281 0.17198
v -9E-05 0.34281 0.17199
v 0.00991 0.04303 0.17188
v 0.00991 0.33281 0.17198
v 0.5417 0.04303 0.17188
v 0.5517 0.03303 0.17188
v 0.5417 0.33281 0.17198
v 0.5517 0.34281 0.17199
v 0.5417 0.35281 0.17199
v 0.5417 0.64258 0.17209
v 0.5517 0.65258 0.17209
v 0.00991 0.64258 0.17209
v -9E-05 0.65258 0.17209
v 0.00991 0.35281 0.17199
v -0.01009 0.64258 0.17209
v -0.01009 0.35281 0.17199
v -0.55187 0.34281 0.17199
v -0.54187 0.35281 0.17199
v -0.54187 0.04303 0.17188
v -0.55187 0.03303 0.17188
v -0.55187 0.34281 0.17199
v -0.54187 0.33281 0.17198
v -9E-05 0.34281 0.17199
v -0.01009 0.33281 0.17198
v -0.54187 0.35281 0.17199
v -0.55187 0.65258 0.17209
v -0.54187 0.64258 0.17209
v -9E-05 0.65258 0.17209
v -0.01009 0.64258 0.17209
v -0.01009 0.35289 -0.06896
v -0.54187 0.35289 -0.06896
v -0.54187 0.64267 -0.06886
v -0.01009 0.64267 -0.06886
v -0.01009 0.04311 -0.06907
v -0.54187 0.04311 -0.06907
v -0.54187 0.33289 -0.06897
v -0.01009 0.33289 -0.06897
v 0.5417 0.04311 -0.06907
v 0.00991 0.04311 -0.06907
v 0.00991 0.33289 -0.06897
v 0.5417 0.33289 -0.06897
v 0.5417 0.35289 -0.06896
v 0.00991 0.35289 -0.06896
v 0.00991 0.64267 -0.06886
v 0.5417 0.64267 -0.06886
v 0.00991 0.04303 0.17188
v 0.00991 0.04311 -0.06907
v 0.5417 0.04311 -0.06907
v 0.5417 0.04303 0.17188
v -0.01009 0.64258 0.17209
v -0.01009 0.64267 -0.06886
v -0.54187 0.64267 -0.06886
v -0.54187 0.64258 0.17209
v -0.54187 0.04303 0.17188
v -0.54187 0.04311 -0.06907
v -0.01009 0.04311 -0.06907
v -0.01009 0.04303 0.17188
v 0.5417 0.35281 0.17199
v 0.5417 0.35289 -0.06896
v 0.5417 0.64267 -0.06886
v 0.5417 0.64258 0.17209
v 0.5417 0.33281 0.17198
v 0.5417 0.33289 -0.06897
v 0.00991 0.33289 -0.06897
v 0.00991 0.33281 0.17198
v -0.54187 0.64258 0.17209
v -0.54187 0.64267 -0.06886
v -0.54187 0.35289 -0.06896
v -0.54187 0.35281 0.17199
v -0.01009 0.33281 0.17198
v -0.01009 0.33289 -0.06897
v -0.54187 0.33289 -0.06897
v -0.54187 0.33281 0.17198
v 0.5417 0.64258 0.17209
v 0.5417 0.64267 -0.06886
v 0.00991 0.64267 -0.06886
v 0.00991 0.64258 0.17209
v 0.00991 0.33281 0.17198
v 0.00991 0.33289 -0.06897
v 0.00991 0.04311 -0.06907
v 0.00991 0.04303 0.17188
v -0.54187 0.35281 0.17199
v -0.54187 0.35289 -0.06896
v -0.01009 0.35289 -0.06896
v -0.01009 0.35281 0.17199
v -0.01009 0.04303 0.17188
v -0.01009 0.04311 -0.06907
v -0.01009 0.33289 -0.06897
v -0.01009 0.33281 0.17198
v 0.00991 0.35281 0.17199
v 0.00991 0.35289 -0.06896
v 0.5417 0.35289 -0.06896
v 0.5417 0.35281 0.17199
v -0.59568 0.65116 0.1726
v -0.59981 0.65674 0.1726
v -0.59568 0.65674 0.17736
v -0.59568 0.69186 0.17737
v -0.59981 0.69186 0.17261
v -0.59568 0.69745 0.17261
v -0.59568 0.65128 -0.1944
v -0.59568 0.65687 -0.19916
v -0.59981 0.65687 -0.1944
v -0.59568 0.69757 -0.19438
v -0.59981 0.69199 -0.19439
v -0.59568 0.69199 -0.19915
v 0.59569 0.65116 0.1726
v 0.59569 0.65674 0.17736
v 0.59982 0.65674 0.1726
v 0.59569 0.69745 0.17261
v 0.59982 0.69186 0.17261
v 0.59569 0.69186 0.17737
v 0.59569 0.65128 -0.1944
v 0.59982 0.65687 -0.1944
v 0.59569 0.65687 -0.19916
v 0.59569 0.69757 -0.19438
v 0.59569 0.69199 -0.19915
v 0.59982 0.69199 -0.19439
v 0.59569 0.65674 0.17736
v -0.59568 0.65674 0.17736
v -0.59568 0.69186 0.17737
v 0.59569 0.69186 0.17737
v 0.59982 0.65687 -0.1944
v 0.59982 0.65674 0.1726
v 0.59982 0.69186 0.17261
v 0.59982 0.69199 -0.19439
v 0.59569 0.69757 -0.19438
v 0.59569 0.69745 0.17261
v -0.59568 0.69745 0.17261
v -0.59568 0.69757 -0.19438
v -0.59981 0.65674 0.1726
v -0.59981 0.65687 -0.1944
v -0.59981 0.69199 -0.19439
v -0.59981 0.69186 0.17261
v -0.59568 0.65687 -0.19916
v 0.59569 0.65687 -0.19916
v 0.59569 0.69199 -0.19915
v -0.59568 0.69199 -0.19915
v -0.59568 0.65128 -0.1944
v -0.59981 0.65687 -0.1944
v -0.59981 0.65674 0.1726
v -0.59568 0.65116 0.1726
v -0.59568 0.65674 0.17736
v -0.59981 0.65674 0.1726
v -0.59981 0.69186 0.17261
v -0.59568 0.69186 0.17737
v -0.59568 0.69745 0.17261
v -0.59981 0.69186 0.17261
v -0.59981 0.69199 -0.19439
v -0.59568 0.69757 -0.19438
v -0.59568 0.69199 -0.19915
v -0.59981 0.69199 -0.19439
v -0.59981 0.65687 -0.1944
v -0.59568 0.65687 -0.19916
v 0.59569 0.65128 -0.1944
v 0.59569 0.65687 -0.19916
v -0.59568 0.65687 -0.19916
v -0.59568 0.65128 -0.1944
v -0.59568 0.69757 -0.19438
v -0.59568 0.69199 -0.19915
v 0.59569 0.69199 -0.19915
v 0.59569 0.69757 -0.19438
v 0.59982 0.69199 -0.19439
v 0.59569 0.69199 -0.19915
v 0.59569 0.65687 -0.19916
v 0.59982 0.65687 -0.1944
v 0.59569 0.65116 0.1726
v 0.59982 0.65674 0.1726
v 0.59982 0.65687 -0.1944
v 0.59569 0.65128 -0.1944
v 0.59569 0.69757 -0.19438
v 0.59982 0.69199 -0.19439
v 0.59982 0.69186 0.17261
v 0.59569 0.69745 0.17261
v 0.59569 0.69186 0.17737
v 0.59982 0.69186 0.17261
v 0.59982 0.65674 0.1726
v 0.59569 0.65674 0.17736
v -0.59568 0.65116 0.1726
v -0.59568 0.65674 0.17736
v 0.59569 0.65674 0.17736
v 0.59569 0.65116 0.1726
v 0.59569 0.69745 0.17261
v 0.59569 0.69186 0.17737
v -0.59568 0.69186 0.17737
v -0.59568 0.69745 0.17261
v -0.59568 0.65128 -0.1944
v -0.59568 0.65116 0.1726
v 0.59569 0.65116 0.1726
v 0.59569 0.65128 -0.1944
vt 0.8262225 0.269002
vt 0.8262225 0.2671056
vt 0.8278666 0.269002
vt 0.8262225 0.2671056
vt 0.8262225 0.269002
vt 0.8278666 0.269002
vt 0.8262225 0.2905245
vt 0.8278666 0.2905245
vt 0.8262225 0.2924209
vt 0.8262225 0.2905245
vt 0.8262225 0.2924209
vt 0.8278666 0.2905245
vt 0.8051931 0.269002
vt 0.8035491 0.269002
vt 0.8051931 0.2671056
vt 0.8051931 0.269002
vt 0.8051931 0.2671056
vt 0.8035491 0.269002
vt 0.8051931 0.2905245
vt 0.8051931 0.2924209
vt 0.8035491 0.2905245
vt 0.8051931 0.2905245
vt 0.8035491 0.2905245
vt 0.8051931 0.2924209
vt 0.8262225 0.4281976
vt 0.8262225 0.4263015
vt 0.8278666 0.4281976
vt 0.8262225 0.4263015
vt 0.8262225 0.4281976
vt 0.8278666 0.4281976
vt 0.8262225 0.4497204
vt 0.8278666 0.4497204
vt 0.8262225 0.4516165
vt 0.8262225 0.4497204
vt 0.8262225 0.4516165
vt 0.8278666 0.4497204
vt 0.8051931 0.4281976
vt 0.8035491 0.4281976
vt 0.8051931 0.4263015
vt 0.8051931 0.4281976
vt 0.8051931 0.4263015
vt 0.8035491 0.4281976
vt 0.8051931 0.4497204
vt 0.8051931 0.4516165
vt 0.8035491 0.4497204
vt 0.8051931 0.4497204
vt 0.8035491 0.4497204
vt 0.8051931 0.4516165
vt 0.3765216 0.269002
vt 0.3748775 0.269002
vt 0.3765216 0.2671056
vt 0.3765216 0.2671056
vt 0.3748775 0.269002
vt 0.3765216 0.269002
vt 0.3765216 0.2905245
vt 0.3765216 0.2924209
vt 0.3748775 0.2905245
vt 0.3765216 0.2905245
vt 0.3748775 0.2905245
vt 0.3765216 0.2924209
vt 0.3975508 0.269002
vt 0.3975508 0.2671056
vt 0.399195 0.269002
vt 0.3975508 0.269002
vt 0.399195 0.269002
vt 0.3975508 0.2671056
vt 0.3975508 0.2905245
vt 0.399195 0.2905245
vt 0.3975508 0.2924209
vt 0.3975508 0.2905245
vt 0.3975508 0.2924209
vt 0.399195 0.2905245
vt 0.3765216 0.4281976
vt 0.3748775 0.4281976
vt 0.3765216 0.4263015
vt 0.3765216 0.4263015
vt 0.3748775 0.4281976
vt 0.3765216 0.4281976
vt 0.3765216 0.4497204
vt 0.3765216 0.4516165
vt 0.3748775 0.4497204
vt 0.3765216 0.4497204
vt 0.3748775 0.4497204
vt 0.3765216 0.4516165
vt 0.3975508 0.4281976
vt 0.3975508 0.4263015
vt 0.399195 0.4281976
vt 0.3975508 0.4281976
vt 0.399195 0.4281976
vt 0.3975508 0.4263015
vt 0.3975508 0.4497204
vt 0.399195 0.4497204
vt 0.3975508 0.4516165
vt 0.3975508 0.4497204
vt 0.3975508 0.4516165
vt 0.399195 0.4497204
vt 0.269002 0.4959137
vt 0.269002 0.8232319
vt 0.2905245 0.8232319
vt 0.2905245 0.4959137
vt 0.8051931 0.4959137
vt 0.8051931 0.8232319
vt 0.8262225 0.8232319
vt 0.8262225 0.4959137
vt 0.2905245 0.4959137
vt 0.2905245 0.8232319
vt 0.269002 0.8232319
vt 0.269002 0.4959137
vt 0.8262225 0.2905245
vt 0.8051931 0.2905245
vt 0.8051931 0.269002
vt 0.8262225 0.269002
vt 0.8051931 0.2905245
vt 0.8262225 0.2905245
vt 0.8262225 0.269002
vt 0.8051931 0.269002
vt 0.8262225 0.4959137
vt 0.8262225 0.8232319
vt 0.8051931 0.8232319
vt 0.8051931 0.4959137
vt 0.8278666 0.2905245
vt 0.8262225 0.2905245
vt 0.8262225 0.269002
vt 0.8278666 0.269002
vt 0.269002 0.4959137
vt 0.2671056 0.4959137
vt 0.2671056 0.8232319
vt 0.269002 0.8232319
vt 0.8278666 0.269002
vt 0.8262225 0.269002
vt 0.8262225 0.2905245
vt 0.8278666 0.2905245
vt 0.2905245 0.8232319
vt 0.2924209 0.8232319
vt 0.2924209 0.4959137
vt 0.2905245 0.4959137
vt 0.8051931 0.2924209
vt 0.8051931 0.2905245
vt 0.8262225 0.2905245
vt 0.8262225 0.2924209
vt 0.8262225 0.2924209
vt 0.8262225 0.2905245
vt 0.8051931 0.2905245
vt 0.8051931 0.2924209
vt 0.2924209 0.8232319
vt 0.2905245 0.8232319
vt 0.2905245 0.4959137
vt 0.2924209 0.4959137
vt 0.8035491 0.269002
vt 0.8051931 0.269002
vt 0.8051931 0.2905245
vt 0.8035491 0.2905245
vt 0.8035491 0.2905245
vt 0.8051931 0.2905245
vt 0.8051931 0.269002
vt 0.8035491 0.269002
vt 0.269002 0.8232319
vt 0.2671056 0.8232319
vt 0.2671056 0.4959137
vt 0.269002 0.4959137
vt 0.8262225 0.2671056
vt 0.8262225 0.269002
vt 0.8051931 0.269002
vt 0.8051931 0.2671056
vt 0.8051931 0.2671056
vt 0.8051931 0.269002
vt 0.8262225 0.269002
vt 0.8262225 0.2671056
vt 0.4281976 0.4959136
vt 0.4281976 0.8232319
vt 0.4497204 0.8232319
vt 0.4497204 0.4959136
vt 0.8051931 0.4959136
vt 0.8051931 0.8232319
vt 0.8262225 0.8232319
vt 0.8262225 0.4959136
vt 0.4497204 0.4959136
vt 0.4497204 0.8232319
vt 0.4281976 0.8232319
vt 0.4281976 0.4959136
vt 0.8262225 0.4497204
vt 0.8051931 0.4497204
vt 0.8051931 0.4281976
vt 0.8262225 0.4281976
vt 0.8051931 0.4497204
vt 0.8262225 0.4497204
vt 0.8262225 0.4281976
vt 0.8051931 0.4281976
vt 0.8262225 0.4959136
vt 0.8262225 0.8232319
vt 0.8051931 0.8232319
vt 0.8051931 0.4959136
vt 0.8278666 0.4497204
vt 0.8262225 0.4497204
vt 0.8262225 0.4281976
vt 0.8278666 0.4281976
vt 0.4281976 0.4959136
vt 0.4263015 0.4959136
vt 0.4263015 0.8232319
vt 0.4281976 0.8232319
vt 0.8278666 0.4281976
vt 0.8262225 0.4281976
vt 0.8262225 0.4497204
vt 0.8278666 0.4497204
vt 0.4497204 0.8232319
vt 0.4516165 0.8232319
vt 0.4516165 0.4959136
vt 0.4497204 0.4959136
vt 0.8051931 0.4516165
vt 0.8051931 0.4497204
vt 0.8262225 0.4497204
vt 0.8262225 0.4516165
vt 0.8262225 0.4516165
vt 0.8262225 0.4497204
vt 0.8051931 0.4497204
vt 0.8051931 0.4516165
vt 0.4516165 0.8232319
vt 0.4497204 0.8232319
vt 0.4497204 0.4959136
vt 0.4516165 0.4959136
vt 0.8035491 0.4281976
vt 0.8051931 0.4281976
vt 0.8051931 0.4497204
vt 0.8035491 0.4497204
vt 0.8035491 0.4497204
vt 0.8051931 0.4497204
vt 0.8051931 0.4281976
vt 0.8035491 0.4281976
vt 0.4281976 0.8232319
vt 0.4263015 0.8232319
vt 0.4263015 0.4959136
vt 0.4281976 0.4959136
vt 0.8262225 0.4263015
vt 0.8262225 0.4281976
vt 0.8051931 0.4281976
vt 0.8051931 0.4263015
vt 0.8051931 0.4263015
vt 0.8051931 0.4281976
vt 0.8262225 0.4281976
vt 0.8262225 0.4263015
vt 0.3765216 0.2905245
vt 0.3765216 0.269002
vt 0.3975508 0.269002
vt 0.3975508 0.2905245
vt 0.3975508 0.4959137
vt 0.3765216 0.4959137
vt 0.3765216 0.8232319
vt 0.3975508 0.8232319
vt 0.2905245 0.4959137
vt 0.269002 0.4959137
vt 0.269002 0.8232319
vt 0.2905245 0.8232319
vt 0.3975508 0.2905245
vt 0.3975508 0.269002
vt 0.3765216 0.269002
vt 0.3765216 0.2905245
vt 0.269002 0.4959137
vt 0.2905245 0.4959137
vt 0.2905245 0.8232319
vt 0.269002 0.8232319
vt 0.3765216 0.4959137
vt 0.3975508 0.4959137
vt 0.3975508 0.8232319
vt 0.3765216 0.8232319
vt 0.3765216 0.2905245
vt 0.3748775 0.2905245
vt 0.3748775 0.269002
vt 0.3765216 0.269002
vt 0.2671056 0.4959137
vt 0.269002 0.4959137
vt 0.269002 0.8232319
vt 0.2671056 0.8232319
vt 0.3765216 0.269002
vt 0.3748775 0.269002
vt 0.3748775 0.2905245
vt 0.3765216 0.2905245
vt 0.2924209 0.8232319
vt 0.2905245 0.8232319
vt 0.2905245 0.4959137
vt 0.2924209 0.4959137
vt 0.3975508 0.2905245
vt 0.3975508 0.2924209
vt 0.3765216 0.2924209
vt 0.3765216 0.2905245
vt 0.3765216 0.2905245
vt 0.3765216 0.2924209
vt 0.3975508 0.2924209
vt 0.3975508 0.2905245
vt 0.2905245 0.8232319
vt 0.2924209 0.8232319
vt 0.2924209 0.4959137
vt 0.2905245 0.4959137
vt 0.3975508 0.269002
vt 0.399195 0.269002
vt 0.399195 0.2905245
vt 0.3975508 0.2905245
vt 0.3975508 0.2905245
vt 0.399195 0.2905245
vt 0.399195 0.269002
vt 0.3975508 0.269002
vt 0.2671056 0.8232319
vt 0.269002 0.8232319
vt 0.269002 0.4959137
vt 0.2671056 0.4959137
vt 0.3765216 0.269002
vt 0.3765216 0.2671056
vt 0.3975508 0.2671056
vt 0.3975508 0.269002
vt 0.3975508 0.269002
vt 0.3975508 0.2671056
vt 0.3765216 0.2671056
vt 0.3765216 0.269002
vt 0.3975508 0.4959136
vt 0.3765216 0.4959136
vt 0.3765216 0.8232319
vt 0.3975508 0.8232319
vt 0.4497204 0.4959136
vt 0.4281976 0.4959136
vt 0.4281976 0.8232319
vt 0.4497204 0.8232319
vt 0.3975508 0.4497204
vt 0.3975508 0.4281976
vt 0.3765216 0.4281976
vt 0.3765216 0.4497204
vt 0.4281976 0.4959136
vt 0.4497204 0.4959136
vt 0.4497204 0.8232319
vt 0.4281976 0.8232319
vt 0.3765216 0.4959136
vt 0.3975508 0.4959136
vt 0.3975508 0.8232319
vt 0.3765216 0.8232319
vt 0.3765216 0.4497204
vt 0.3748775 0.4497204
vt 0.3748775 0.4281976
vt 0.3765216 0.4281976
vt 0.4263015 0.4959136
vt 0.4281976 0.4959136
vt 0.4281976 0.8232319
vt 0.4263015 0.8232319
vt 0.3765216 0.4281976
vt 0.3748775 0.4281976
vt 0.3748775 0.4497204
vt 0.3765216 0.4497204
vt 0.4516165 0.8232319
vt 0.4497204 0.8232319
vt 0.4497204 0.4959136
vt 0.4516165 0.4959136
vt 0.3975508 0.4497204
vt 0.3975508 0.4516165
vt 0.3765216 0.4516165
vt 0.3765216 0.4497204
vt 0.3765216 0.4497204
vt 0.3765216 0.4516165
vt 0.3975508 0.4516165
vt 0.3975508 0.4497204
vt 0.4497204 0.8232319
vt 0.4516165 0.8232319
vt 0.4516165 0.4959136
vt 0.4497204 0.4959136
vt 0.3975508 0.4281976
vt 0.399195 0.4281976
vt 0.399195 0.4497204
vt 0.3975508 0.4497204
vt 0.3975508 0.4497204
vt 0.399195 0.4497204
vt 0.399195 0.4281976
vt 0.3975508 0.4281976
vt 0.4263015 0.8232319
vt 0.4281976 0.8232319
vt 0.4281976 0.4959136
vt 0.4263015 0.4959136
vt 0.3765216 0.4281976
vt 0.3765216 0.4263015
vt 0.3975508 0.4263015
vt 0.3975508 0.4281976
vt 0.3975508 0.4281976
vt 0.3975508 0.4263015
vt 0.3765216 0.4263015
vt 0.3765216 0.4281976
vt 0.3765216 0.4497204
vt 0.3765216 0.4281976
vt 0.3975508 0.4281976
vt 0.3975508 0.4497204
vt 0.2925582 0.5124884
vt 0.2925582 0.8222651
vt 0.4268067 0.822265
vt 0.4268067 0.5124883
vt 0.8162801 0.5124883
vt 0.8162801 0.822265
vt 0.8041189 0.822265
vt 0.8041189 0.5124883
vt 0.4268067 0.5124883
vt 0.4268067 0.822265
vt 0.2925582 0.8222651
vt 0.2925582 0.5124884
vt 0.8041189 0.5124884
vt 0.8041189 0.8222651
vt 0.8162801 0.8222651
vt 0.8162801 0.5124884
vt 0.8162801 0.4268067
vt 0.8041189 0.4268067
vt 0.8041189 0.2925582
vt 0.8162801 0.2925582
vt 0.8041189 0.4268067
vt 0.8162801 0.4268067
vt 0.8162801 0.2925582
vt 0.8041189 0.2925582
vt 0.2925582 0.5124884
vt 0.4268067 0.5124883
vt 0.4268067 0.822265
vt 0.2925582 0.8222651
vt 0.3869927 0.5124883
vt 0.3991539 0.5124883
vt 0.3991539 0.822265
vt 0.3869927 0.822265
vt 0.4268067 0.5124883
vt 0.2925582 0.5124884
vt 0.2925582 0.8222651
vt 0.4268067 0.822265
vt 0.3991539 0.5124884
vt 0.3869927 0.5124884
vt 0.3869927 0.8222651
vt 0.3991539 0.8222651
vt 0.3869927 0.4268067
vt 0.3869927 0.2925582
vt 0.3991539 0.2925582
vt 0.3991539 0.4268067
vt 0.3991539 0.4268067
vt 0.3991539 0.2925582
vt 0.3869927 0.2925582
vt 0.3869927 0.4268067
vt 0.8254793 0.5124883
vt 0.8254793 0.822265
vt 1.377265 0.822265
vt 1.377265 0.5124883
vt 0.4382768 0.5124883
vt 0.4382768 0.822265
vt 0.4523034 0.822265
vt 0.4523034 0.5124883
vt 0.3772647 0.5124883
vt 0.3772647 0.822265
vt -0.1745207 0.822265
vt -0.1745207 0.5124883
vt 0.4523034 0.5124883
vt 0.4523034 0.822265
vt 0.4382768 0.822265
vt 0.4382768 0.5124883
vt 0.3772647 0.4382768
vt 0.3772647 0.4523034
vt -0.1745207 0.4523034
vt -0.1745207 0.4382768
vt 0.3772647 0.4523034
vt 0.3772647 0.4382768
vt -0.1745207 0.4382768
vt -0.1745207 0.4523034
vt 0.8254793 0.5124884
vt 1.377265 0.5124884
vt 1.377265 0.8222651
vt 0.8254793 0.8222651
vt 0.2820492 0.5124884
vt 0.2680225 0.5124884
vt 0.2680225 0.6673767
vt 0.2680225 0.8222651
vt 0.2820492 0.8222651
vt 0.2680225 0.6623767
vt 0.3884988 0.6623767
vt 0.3884988 0.5174884
vt 0.2680225 0.5174884
vt 0.2820492 0.8222651
vt 0.2680225 0.8222651
vt 0.2680225 0.6673767
vt 0.2680225 0.5124884
vt 0.2820492 0.5124884
vt 0.101372 0.2680225
vt 0.3772647 0.2680225
vt 0.3772647 0.2820492
vt -0.1745207 0.2820492
vt -0.1745207 0.2680225
vt -0.1745207 0.2820492
vt 0.3772647 0.2820492
vt 0.3772647 0.2680225
vt 0.101372 0.2680225
vt -0.1745207 0.2680225
vt 0.2680225 0.5174884
vt 0.3884988 0.5174884
vt 0.3884988 0.6623767
vt 0.2680225 0.6623767
vt 0.2680225 0.817265
vt 0.3884988 0.817265
vt 0.3884988 0.6723768
vt 0.2680225 0.6723767
vt 0.2680225 0.6723767
vt 0.3884988 0.6723768
vt 0.3884988 0.817265
vt 0.2680225 0.817265
vt 0.09637213 0.5174884
vt -0.1745207 0.5124884
vt -0.1695207 0.5174884
vt 0.101372 0.5124884
vt 0.09637213 0.6623767
vt 0.101372 0.6673767
vt 0.1063719 0.5174884
vt 0.1063719 0.6623767
vt 0.3722649 0.5174884
vt 0.3772647 0.5124884
vt 0.3722649 0.6623767
vt 0.3772647 0.6673767
vt 0.3722649 0.6723767
vt 0.3722649 0.817265
vt 0.3772647 0.8222651
vt 0.1063719 0.817265
vt 0.101372 0.8222651
vt 0.1063719 0.6723767
vt 0.09637213 0.817265
vt 0.09637213 0.6723767
vt -0.1745207 0.6673767
vt -0.1695207 0.6723767
vt 0.8304793 0.5174884
vt 0.8254793 0.5124884
vt 0.8254793 0.6673767
vt 0.8304793 0.6623767
vt 1.101372 0.6673767
vt 1.096372 0.6623767
vt 0.8304793 0.6723767
vt 0.8254793 0.8222651
vt 0.8304793 0.817265
vt 1.101372 0.8222651
vt 1.096372 0.817265
vt 0.09637213 0.6723768
vt -0.1695207 0.6723768
vt -0.1695207 0.817265
vt 0.09637213 0.817265
vt 0.09637213 0.5174884
vt -0.1695207 0.5174884
vt -0.1695207 0.6623767
vt 0.09637213 0.6623767
vt 0.3722649 0.5174884
vt 0.1063719 0.5174884
vt 0.1063719 0.6623767
vt 0.3722649 0.6623767
vt 0.3722649 0.6723768
vt 0.1063719 0.6723768
vt 0.1063719 0.817265
vt 0.3722649 0.817265
vt 0.1063719 0.2680225
vt 0.1063719 0.3884988
vt 0.3722649 0.3884988
vt 0.3722649 0.2680225
vt 0.09637213 0.2680225
vt 0.09637213 0.3884988
vt -0.1695207 0.3884988
vt -0.1695207 0.2680225
vt 0.8304793 0.2680225
vt 0.8304793 0.3884988
vt 1.096372 0.3884988
vt 1.096372 0.2680225
vt 0.2680225 0.6723767
vt 0.3884988 0.6723768
vt 0.3884988 0.817265
vt 0.2680225 0.817265
vt 0.3722649 0.2680225
vt 0.3722649 0.3884988
vt 0.1063719 0.3884988
vt 0.1063719 0.2680225
vt 0.2680225 0.817265
vt 0.3884988 0.817265
vt 0.3884988 0.6723768
vt 0.2680225 0.6723767
vt 0.09637213 0.2680225
vt 0.09637213 0.3884988
vt -0.1695207 0.3884988
vt -0.1695207 0.2680225
vt 0.3722649 0.2680225
vt 0.3722649 0.3884988
vt 0.1063719 0.3884988
vt 0.1063719 0.2680225
vt 0.2680225 0.6623767
vt 0.3884988 0.6623767
vt 0.3884988 0.5174884
vt 0.2680225 0.5174884
vt 0.8304793 0.2680225
vt 0.8304793 0.3884988
vt 1.096372 0.3884988
vt 1.096372 0.2680225
vt 0.2680225 0.5174884
vt 0.3884988 0.5174884
vt 0.3884988 0.6623767
vt 0.2680225 0.6623767
vt 0.1063719 0.2680225
vt 0.1063719 0.3884988
vt 0.3722649 0.3884988
vt 0.3722649 0.2680225
vt 0.2677717 0.8215529
vt 0.2677717 0.8243454
vt 0.2653906 0.8243454
vt 0.2653906 0.8419051
vt 0.2677717 0.8419051
vt 0.2677717 0.8446976
vt 0.4512691 0.8215529
vt 0.4536505 0.8243454
vt 0.4512691 0.8243454
vt 0.4512691 0.8446975
vt 0.4512691 0.8419051
vt 0.4536505 0.8419051
vt 0.2677717 0.8215529
vt 0.2653906 0.8243454
vt 0.2677717 0.8243454
vt 0.2677717 0.8446976
vt 0.2677717 0.8419051
vt 0.2653906 0.8419051
vt 0.4512691 0.8215529
vt 0.4512691 0.8243454
vt 0.4536505 0.8243454
vt 0.4512691 0.8446975
vt 0.4536505 0.8419051
vt 0.4512691 0.8419051
vt 0.3992605 0.8243454
vt -0.1964232 0.8243454
vt -0.1964232 0.8419051
vt 0.3992605 0.8419051
vt 0.4512691 0.8243454
vt 0.2677717 0.8243454
vt 0.2677717 0.8419051
vt 0.4512691 0.8419051
vt 0.3992605 0.4512691
vt 0.3992605 0.2677717
vt -0.1964232 0.2677717
vt -0.1964232 0.4512691
vt 0.2677717 0.8243454
vt 0.4512691 0.8243454
vt 0.4512691 0.8419051
vt 0.2677717 0.8419051
vt 0.8035768 0.8243454
vt 1.399261 0.8243454
vt 1.399261 0.8419051
vt 0.8035768 0.8419051
vt 0.4512691 0.8215529
vt 0.4512691 0.8243454
vt 0.2677717 0.8243454
vt 0.2677717 0.8215529
vt 0.2653906 0.8243454
vt 0.2677717 0.8243454
vt 0.2677717 0.8419051
vt 0.2653906 0.8419051
vt 0.2677717 0.8446976
vt 0.2677717 0.8419051
vt 0.4512691 0.8419051
vt 0.4512691 0.8446975
vt 0.4536505 0.8419051
vt 0.4512691 0.8419051
vt 0.4512691 0.8243454
vt 0.4536505 0.8243454
vt 0.3992605 0.8215529
vt 0.3992605 0.8243454
vt -0.1964232 0.8243454
vt -0.1964232 0.8215529
vt 0.8035768 0.8446975
vt 0.8035768 0.8419051
vt 1.399261 0.8419051
vt 1.399261 0.8446975
vt 0.4512691 0.8419051
vt 0.4536505 0.8419051
vt 0.4536505 0.8243454
vt 0.4512691 0.8243454
vt 0.2677717 0.8215529
vt 0.2677717 0.8243454
vt 0.4512691 0.8243454
vt 0.4512691 0.8215529
vt 0.4512691 0.8446975
vt 0.4512691 0.8419051
vt 0.2677717 0.8419051
vt 0.2677717 0.8446976
vt 0.2653906 0.8419051
vt 0.2677717 0.8419051
vt 0.2677717 0.8243454
vt 0.2653906 0.8243454
vt 0.8035768 0.8215529
vt 0.8035768 0.8243454
vt 1.399261 0.8243454
vt 1.399261 0.8215529
vt 0.3992605 0.8446976
vt 0.3992605 0.8419051
vt -0.1964232 0.8419051
vt -0.1964232 0.8446976
vt 0.8035768 0.4512691
vt 0.8035768 0.2677717
vt 1.399261 0.2677717
vt 1.399261 0.4512691
vn 0.1550197 -0.9787739 0.1340545
vn 0.1550197 -0.9787739 0.1340545
vn 0.1550197 -0.9787739 0.1340545
vn 0.1550458 0.9786729 0.1347595
vn 0.1550458 0.9786729 0.1347595
vn 0.1550458 0.9786729 0.1347595
vn 0.1550103 -0.9786835 -0.1347228
vn 0.1550103 -0.9786835 -0.1347228
vn 0.1550103 -0.9786835 -0.1347228
vn 0.1550454 0.978767 -0.1340748
vn 0.1550454 0.978767 -0.1340748
vn 0.1550454 0.978767 -0.1340748
vn -0.1550197 -0.9787739 0.1340545
vn -0.1550197 -0.9787739 0.1340545
vn -0.1550197 -0.9787739 0.1340545
vn -0.1550458 0.9786729 0.1347595
vn -0.1550458 0.9786729 0.1347595
vn -0.1550458 0.9786729 0.1347595
vn -0.1550103 -0.9786835 -0.1347228
vn -0.1550103 -0.9786835 -0.1347228
vn -0.1550103 -0.9786835 -0.1347228
vn -0.1550454 0.978767 -0.1340748
vn -0.1550454 0.978767 -0.1340748
vn -0.1550454 0.978767 -0.1340748
vn 0.1550019 -0.9787766 0.1340549
vn 0.1550019 -0.9787766 0.1340549
vn 0.1550019 -0.9787766 0.1340549
vn 0.1550458 0.9786729 0.1347595
vn 0.1550458 0.9786729 0.1347595
vn 0.1550458 0.9786729 0.1347595
vn 0.1550019 -0.9786838 -0.1347313
vn 0.1550019 -0.9786838 -0.1347313
vn 0.1550019 -0.9786838 -0.1347313
vn 0.1550458 0.9787659 -0.1340831
vn 0.1550458 0.9787659 -0.1340831
vn 0.1550458 0.9787659 -0.1340831
vn -0.1550019 -0.9787766 0.1340549
vn -0.1550019 -0.9787766 0.1340549
vn -0.1550019 -0.9787766 0.1340549
vn -0.1550458 0.9786729 0.1347595
vn -0.1550458 0.9786729 0.1347595
vn -0.1550458 0.9786729 0.1347595
vn -0.1550019 -0.9786838 -0.1347313
vn -0.1550019 -0.9786838 -0.1347313
vn -0.1550019 -0.9786838 -0.1347313
vn -0.1550458 0.9787659 -0.1340831
vn -0.1550458 0.9787659 -0.1340831
vn -0.1550458 0.9787659 -0.1340831
vn -0.1550091 -0.9787756 0.1340545
vn -0.1550091 -0.9787756 0.1340545
vn -0.1550091 -0.9787756 0.1340545
vn -0.1550352 0.9786743 0.1347617
vn -0.1550352 0.9786743 0.1347617
vn -0.1550352 0.9786743 0.1347617
vn -0.1549994 -0.9786854 -0.1347225
vn -0.1549994 -0.9786854 -0.1347225
vn -0.1549994 -0.9786854 -0.1347225
vn -0.1550344 0.9787685 -0.1340767
vn -0.1550344 0.9787685 -0.1340767
vn -0.1550344 0.9787685 -0.1340767
vn 0.1550091 -0.9787756 0.1340545
vn 0.1550091 -0.9787756 0.1340545
vn 0.1550091 -0.9787756 0.1340545
vn 0.1550353 0.9786749 0.1347572
vn 0.1550353 0.9786749 0.1347572
vn 0.1550353 0.9786749 0.1347572
vn 0.1549994 -0.9786854 -0.1347225
vn 0.1549994 -0.9786854 -0.1347225
vn 0.1549994 -0.9786854 -0.1347225
vn 0.1550434 0.9787677 -0.134072
vn 0.1550434 0.9787677 -0.134072
vn 0.1550434 0.9787677 -0.134072
vn -0.1549906 -0.9787785 0.1340543
vn -0.1549906 -0.9787785 0.1340543
vn -0.1549906 -0.9787785 0.1340543
vn -0.1550345 0.9786745 0.1347611
vn -0.1550345 0.9786745 0.1347611
vn -0.1550345 0.9786745 0.1347611
vn -0.1549906 -0.9786856 -0.1347307
vn -0.1549906 -0.9786856 -0.1347307
vn -0.1549906 -0.9786856 -0.1347307
vn -0.1550345 0.9787674 -0.1340847
vn -0.1550345 0.9787674 -0.1340847
vn -0.1550345 0.9787674 -0.1340847
vn 0.1549906 -0.9787785 0.1340543
vn 0.1549906 -0.9787785 0.1340543
vn 0.1549906 -0.9787785 0.1340543
vn 0.1550346 0.9786751 0.1347566
vn 0.1550346 0.9786751 0.1347566
vn 0.1550346 0.9786751 0.1347566
vn 0.1549906 -0.9786856 -0.1347307
vn 0.1549906 -0.9786856 -0.1347307
vn 0.1549906 -0.9786856 -0.1347307
vn 0.1550346 0.9787679 -0.1340802
vn 0.1550346 0.9787679 -0.1340802
vn 0.1550346 0.9787679 -0.1340802
vn 1 0 0
vn 1 0 0
vn 1 0 0
vn 1 0 0
vn 1.771458E-07 -0.0003455752 1
vn 1.771458E-07 -0.0003455752 1
vn 1.771458E-07 -0.0003455752 1
vn 1.771458E-07 -0.0003455752 1
vn -1 0 0
vn -1 0 0
vn -1 0 0
vn -1 0 0
vn 0 -1 -0.0003455752
vn 0 -1 -0.0003455752
vn 0 -1 -0.0003455752
vn 0 -1 -0.0003455752
vn -2.572091E-07 1 0.0003455752
vn -2.572091E-07 1 0.0003455752
vn -2.572091E-07 1 0.0003455752
vn -2.572091E-07 1 0.0003455752
vn -1.771458E-07 0.0003455752 -1
vn -1.771458E-07 0.0003455752 -1
vn -1.771458E-07 0.0003455752 -1
vn -1.771458E-07 0.0003455752 -1
vn 0.1564353 -0.9876881 -0.0003413206
vn 0.1564353 -0.9876881 -0.0003413206
vn 0.1564353 -0.9876881 -0.0003413206
vn 0.1564353 -0.9876881 -0.0003413206
vn 0.7555742 -0.0002263736 0.6550631
vn 0.7555742 -0.0002263736 0.6550631
vn 0.7555742 -0.0002263736 0.6550631
vn 0.7555742 -0.0002263736 0.6550631
vn 0.156467 0.9876831 0.0003413188
vn 0.156467 0.9876831 0.0003413188
vn 0.156467 0.9876831 0.0003413188
vn 0.156467 0.9876831 0.0003413188
vn 0.7555947 0.0002263654 -0.6550395
vn 0.7555947 0.0002263654 -0.6550395
vn 0.7555947 0.0002263654 -0.6550395
vn 0.7555947 0.0002263654 -0.6550395
vn 2.637915E-07 -0.9906578 -0.1363713
vn 2.637915E-07 -0.9906578 -0.1363713
vn 2.637915E-07 -0.9906578 -0.1363713
vn 2.637915E-07 -0.9906578 -0.1363713
vn -2.373311E-07 0.9907477 -0.1357171
vn -2.373311E-07 0.9907477 -0.1357171
vn -2.373311E-07 0.9907477 -0.1357171
vn -2.373311E-07 0.9907477 -0.1357171
vn -0.7555923 0.0002263664 -0.6550422
vn -0.7555923 0.0002263664 -0.6550422
vn -0.7555923 0.0002263664 -0.6550422
vn -0.7555923 0.0002263664 -0.6550422
vn -0.1564353 -0.9876881 -0.0003413206
vn -0.1564353 -0.9876881 -0.0003413206
vn -0.1564353 -0.9876881 -0.0003413206
vn -0.1564353 -0.9876881 -0.0003413206
vn -0.156467 0.9876831 0.0003413188
vn -0.156467 0.9876831 0.0003413188
vn -0.156467 0.9876831 0.0003413188
vn -0.156467 0.9876831 0.0003413188
vn -0.755572 -0.0002263745 0.6550656
vn -0.755572 -0.0002263745 0.6550656
vn -0.755572 -0.0002263745 0.6550656
vn -0.755572 -0.0002263745 0.6550656
vn -2.638077E-07 -0.9907507 0.1356949
vn -2.638077E-07 -0.9907507 0.1356949
vn -2.638077E-07 -0.9907507 0.1356949
vn -2.638077E-07 -0.9907507 0.1356949
vn -4.856996E-07 0.9906524 0.1364103
vn -4.856996E-07 0.9906524 0.1364103
vn -4.856996E-07 0.9906524 0.1364103
vn -4.856996E-07 0.9906524 0.1364103
vn 1 0 0
vn 1 0 0
vn 1 0 0
vn 1 0 0
vn 0 -0.0003455752 1
vn 0 -0.0003455752 1
vn 0 -0.0003455752 1
vn 0 -0.0003455752 1
vn -1 0 0
vn -1 0 0
vn -1 0 0
vn -1 0 0
vn 0 -1 -0.0003455752
vn 0 -1 -0.0003455752
vn 0 -1 -0.0003455752
vn 0 -1 -0.0003455752
vn 0 1 0.0003455752
vn 0 1 0.0003455752
vn 0 1 0.0003455752
vn 0 1 0.0003455752
vn 0 0.0003455752 -1
vn 0 0.0003455752 -1
vn 0 0.0003455752 -1
vn 0 0.0003455752 -1
vn 0.1564353 -0.9876881 -0.0003413206
vn 0.1564353 -0.9876881 -0.0003413206
vn 0.1564353 -0.9876881 -0.0003413206
vn 0.1564353 -0.9876881 -0.0003413206
vn 0.7555742 -0.0002263736 0.6550631
vn 0.7555742 -0.0002263736 0.6550631
vn 0.7555742 -0.0002263736 0.6550631
vn 0.7555742 -0.0002263736 0.6550631
vn 0.156467 0.9876831 0.0003413188
vn 0.156467 0.9876831 0.0003413188
vn 0.156467 0.9876831 0.0003413188
vn 0.156467 0.9876831 0.0003413188
vn 0.7555742 0.0002263736 -0.6550631
vn 0.7555742 0.0002263736 -0.6550631
vn 0.7555742 0.0002263736 -0.6550631
vn 0.7555742 0.0002263736 -0.6550631
vn 0 -0.9906566 -0.1363796
vn 0 -0.9906566 -0.1363796
vn 0 -0.9906566 -0.1363796
vn 0 -0.9906566 -0.1363796
vn 0 0.9907465 -0.1357255
vn 0 0.9907465 -0.1357255
vn 0 0.9907465 -0.1357255
vn 0 0.9907465 -0.1357255
vn -0.755572 0.0002263745 -0.6550656
vn -0.755572 0.0002263745 -0.6550656
vn -0.755572 0.0002263745 -0.6550656
vn -0.755572 0.0002263745 -0.6550656
vn -0.1564353 -0.9876881 -0.0003413206
vn -0.1564353 -0.9876881 -0.0003413206
vn -0.1564353 -0.9876881 -0.0003413206
vn -0.1564353 -0.9876881 -0.0003413206
vn -0.156467 0.9876831 0.0003413188
vn -0.156467 0.9876831 0.0003413188
vn -0.156467 0.9876831 0.0003413188
vn -0.156467 0.9876831 0.0003413188
vn -0.755572 -0.0002263745 0.6550656
vn -0.755572 -0.0002263745 0.6550656
vn -0.755572 -0.0002263745 0.6550656
vn -0.755572 -0.0002263745 0.6550656
vn 0 -0.9907507 0.1356949
vn 0 -0.9907507 0.1356949
vn 0 -0.9907507 0.1356949
vn 0 -0.9907507 0.1356949
vn 0 0.9906524 0.1364103
vn 0 0.9906524 0.1364103
vn 0 0.9906524 0.1364103
vn 0 0.9906524 0.1364103
vn 0 -1 -0.0003455752
vn 0 -1 -0.0003455752
vn 0 -1 -0.0003455752
vn 0 -1 -0.0003455752
vn 1.771463E-07 -0.0003455752 1
vn 1.771463E-07 -0.0003455752 1
vn 1.771463E-07 -0.0003455752 1
vn 1.771463E-07 -0.0003455752 1
vn 1 0 0
vn 1 0 0
vn 1 0 0
vn 1 0 0
vn -4.712261E-07 1 0.0003455752
vn -4.712261E-07 1 0.0003455752
vn -4.712261E-07 1 0.0003455752
vn -4.712261E-07 1 0.0003455752
vn -1 0 0
vn -1 0 0
vn -1 0 0
vn -1 0 0
vn -1.771463E-07 0.0003455752 -1
vn -1.771463E-07 0.0003455752 -1
vn -1.771463E-07 0.0003455752 -1
vn -1.771463E-07 0.0003455752 -1
vn -0.1564242 -0.98769 -0.0003413212
vn -0.1564242 -0.98769 -0.0003413212
vn -0.1564242 -0.98769 -0.0003413212
vn -0.1564242 -0.98769 -0.0003413212
vn -0.7555494 -0.0002263834 0.6550915
vn -0.7555494 -0.0002263834 0.6550915
vn -0.7555494 -0.0002263834 0.6550915
vn -0.7555494 -0.0002263834 0.6550915
vn -0.1564559 0.9876848 0.0003413194
vn -0.1564559 0.9876848 0.0003413194
vn -0.1564559 0.9876848 0.0003413194
vn -0.1564559 0.9876848 0.0003413194
vn -0.7555698 0.0002263753 -0.6550681
vn -0.7555698 0.0002263753 -0.6550681
vn -0.7555698 0.0002263753 -0.6550681
vn -0.7555698 0.0002263753 -0.6550681
vn -2.878901E-07 -0.9906578 -0.1363712
vn -2.878901E-07 -0.9906578 -0.1363712
vn -2.878901E-07 -0.9906578 -0.1363712
vn -2.878901E-07 -0.9906578 -0.1363712
vn -5.09775E-07 0.9907476 -0.1357172
vn -5.09775E-07 0.9907476 -0.1357172
vn -5.09775E-07 0.9907476 -0.1357172
vn -5.09775E-07 0.9907476 -0.1357172
vn 0.7555698 0.0002263753 -0.6550681
vn 0.7555698 0.0002263753 -0.6550681
vn 0.7555698 0.0002263753 -0.6550681
vn 0.7555698 0.0002263753 -0.6550681
vn 0.1564242 -0.98769 -0.0003413212
vn 0.1564242 -0.98769 -0.0003413212
vn 0.1564242 -0.98769 -0.0003413212
vn 0.1564242 -0.98769 -0.0003413212
vn 0.1564559 0.9876848 0.0003413194
vn 0.1564559 0.9876848 0.0003413194
vn 0.1564559 0.9876848 0.0003413194
vn 0.1564559 0.9876848 0.0003413194
vn 0.7555494 -0.0002263834 0.6550915
vn 0.7555494 -0.0002263834 0.6550915
vn 0.7555494 -0.0002263834 0.6550915
vn 0.7555494 -0.0002263834 0.6550915
vn 2.879079E-07 -0.9907507 0.1356949
vn 2.879079E-07 -0.9907507 0.1356949
vn 2.879079E-07 -0.9907507 0.1356949
vn 2.879079E-07 -0.9907507 0.1356949
vn -2.132431E-07 0.9906524 0.1364104
vn -2.132431E-07 0.9906524 0.1364104
vn -2.132431E-07 0.9906524 0.1364104
vn -2.132431E-07 0.9906524 0.1364104
vn 0 -0.0003455752 1
vn 0 -0.0003455752 1
vn 0 -0.0003455752 1
vn 0 -0.0003455752 1
vn 1 0 0
vn 1 0 0
vn 1 0 0
vn 1 0 0
vn 0 1 0.0003455752
vn 0 1 0.0003455752
vn 0 1 0.0003455752
vn 0 1 0.0003455752
vn -1 0 0
vn -1 0 0
vn -1 0 0
vn -1 0 0
vn 0 0.0003455752 -1
vn 0 0.0003455752 -1
vn 0 0.0003455752 -1
vn 0 0.0003455752 -1
vn -0.1564242 -0.98769 -0.0003413212
vn -0.1564242 -0.98769 -0.0003413212
vn -0.1564242 -0.98769 -0.0003413212
vn -0.1564242 -0.98769 -0.0003413212
vn -0.7555494 -0.0002263834 0.6550915
vn -0.7555494 -0.0002263834 0.6550915
vn -0.7555494 -0.0002263834 0.6550915
vn -0.7555494 -0.0002263834 0.6550915
vn -0.1564591 0.9876844 0.0003413192
vn -0.1564591 0.9876844 0.0003413192
vn -0.1564591 0.9876844 0.0003413192
vn -0.1564591 0.9876844 0.0003413192
vn -0.7555494 0.0002263834 -0.6550915
vn -0.7555494 0.0002263834 -0.6550915
vn -0.7555494 0.0002263834 -0.6550915
vn -0.7555494 0.0002263834 -0.6550915
vn 0 -0.9906566 -0.1363796
vn 0 -0.9906566 -0.1363796
vn 0 -0.9906566 -0.1363796
vn 0 -0.9906566 -0.1363796
vn 0 0.9907465 -0.1357256
vn 0 0.9907465 -0.1357256
vn 0 0.9907465 -0.1357256
vn 0 0.9907465 -0.1357256
vn 0.7555494 0.0002263834 -0.6550915
vn 0.7555494 0.0002263834 -0.6550915
vn 0.7555494 0.0002263834 -0.6550915
vn 0.7555494 0.0002263834 -0.6550915
vn 0.1564242 -0.98769 -0.0003413212
vn 0.1564242 -0.98769 -0.0003413212
vn 0.1564242 -0.98769 -0.0003413212
vn 0.1564242 -0.98769 -0.0003413212
vn 0.1564591 0.9876844 0.0003413192
vn 0.1564591 0.9876844 0.0003413192
vn 0.1564591 0.9876844 0.0003413192
vn 0.1564591 0.9876844 0.0003413192
vn 0.7555494 -0.0002263834 0.6550915
vn 0.7555494 -0.0002263834 0.6550915
vn 0.7555494 -0.0002263834 0.6550915
vn 0.7555494 -0.0002263834 0.6550915
vn 0 -0.9907508 0.1356941
vn 0 -0.9907508 0.1356941
vn 0 -0.9907508 0.1356941
vn 0 -0.9907508 0.1356941
vn 0 0.9906526 0.1364096
vn 0 0.9906526 0.1364096
vn 0 0.9906526 0.1364096
vn 0 0.9906526 0.1364096
vn 0 -1 -0.0003455752
vn 0 -1 -0.0003455752
vn 0 -1 -0.0003455752
vn 0 -1 -0.0003455752
vn 1 0 0
vn 1 0 0
vn 1 0 0
vn 1 0 0
vn 0 0.0003455752 -1
vn 0 0.0003455752 -1
vn 0 0.0003455752 -1
vn 0 0.0003455752 -1
vn -1 0 0
vn -1 0 0
vn -1 0 0
vn -1 0 0
vn 0 -0.0003455752 1
vn 0 -0.0003455752 1
vn 0 -0.0003455752 1
vn 0 -0.0003455752 1
vn 0 -1 -0.0003452422
vn 0 -1 -0.0003452422
vn 0 -1 -0.0003452422
vn 0 -1 -0.0003452422
vn -5.704436E-07 1 0.00034527
vn -5.704436E-07 1 0.00034527
vn -5.704436E-07 1 0.00034527
vn -5.704436E-07 1 0.00034527
vn -1 0 0
vn -1 0 0
vn -1 0 0
vn -1 0 0
vn 0 0.0003455752 -1
vn 0 0.0003455752 -1
vn 0 0.0003455752 -1
vn 0 0.0003455752 -1
vn 1 0 0
vn 1 0 0
vn 1 0 0
vn 1 0 0
vn 0 -0.0003455752 1
vn 0 -0.0003455752 1
vn 0 -0.0003455752 1
vn 0 -0.0003455752 1
vn 0 -1 -0.0003452422
vn 0 -1 -0.0003452422
vn 0 -1 -0.0003452422
vn 0 -1 -0.0003452422
vn 0 1 0.0003452422
vn 0 1 0.0003452422
vn 0 1 0.0003452422
vn 0 1 0.0003452422
vn 0 -0.0003455752 1
vn 0 -0.0003455752 1
vn 0 -0.0003455752 1
vn 0 -0.0003455752 1
vn 1 0 0
vn 1 0 0
vn 1 0 0
vn 1 0 0
vn 0 0.0003455752 -1
vn 0 0.0003455752 -1
vn 0 0.0003455752 -1
vn 0 0.0003455752 -1
vn -1 0 0
vn -1 0 0
vn -1 0 0
vn -1 0 0
vn 0 -1 -0.0003455752
vn 0 -1 -0.0003455752
vn 0 -1 -0.0003455752
vn 0 -1 -0.0003455752
vn 0 1 0.0003455752
vn 0 1 0.0003455752
vn 0 1 0.0003455752
vn 0 1 0.0003455752
vn 0 0.0003455752 -1
vn 0 0.0003455752 -1
vn 0 0.0003455752 -1
vn 0 0.0003455752 -1
vn 1 0 0
vn 1 0 0
vn 1 0 0
vn 1 0 0
vn 1 0 0
vn 0.3015114 -0.3018239 0.9044298
vn 0.5773503 -0.5775498 0.5771507
vn 0.7071068 0.7071068 0.0002443586
vn 0.7071068 0.7071068 0.0002443586
vn -1 0 0
vn -1 0 0
vn -1 0 0
vn -1 0 0
vn -1 0 0
vn 0 -1 -0.0003455752
vn 0 -1 -0.0003455752
vn 0 -1 -0.0003455752
vn 0 -1 -0.0003455752
vn 0 -1 -0.0003455752
vn 0 1 0.0003455752
vn 0 1 0.0003455752
vn 0 1 0.0003455752
vn 0 1 0.0003455752
vn 0 1 0.0003455752
vn -0.7071068 0.7071068 0.0002443586
vn -0.7071068 0.7071068 0.0002443586
vn -0.5773503 -0.5775498 0.5771507
vn -0.3015113 -0.3018239 0.9044298
vn 0.3015114 -0.3018239 0.9044298
vn 0.5773503 -0.5775498 0.5771507
vn 0.5773503 0.5771507 0.5775498
vn 0.3015113 0.3011987 0.9046382
vn -0.3015113 0.3011987 0.9046382
vn -0.5773503 0.5771507 0.5775498
vn -0.5773503 -0.5775498 0.5771507
vn -0.3015113 -0.3018239 0.9044298
vn -0.3015113 0.3011987 0.9046382
vn 0 -0.0003455752 1
vn 0 -0.0003455752 1
vn 0 -0.0003455752 1
vn -0.3015113 -0.3018239 0.9044298
vn 0 -0.0003455752 1
vn 0.3015114 0.3011987 0.9046381
vn 0.3015114 -0.3018239 0.9044298
vn 0 -0.0003455752 1
vn 0 -0.0003455752 1
vn -0.3015113 -0.3018239 0.9044298
vn 0 -0.0003455752 1
vn -0.3015113 0.3011987 0.9046382
vn 0 -0.0003455752 1
vn 0 -0.0003455752 1
vn 0.3015114 -0.3018239 0.9044298
vn 0 -0.0003455752 1
vn 0.3015113 0.3011987 0.9046382
vn -0.3015113 -0.3018239 0.9044298
vn -0.3015113 0.3011987 0.9046382
vn 0 -0.0003455752 1
vn 0.3015114 0.3011987 0.9046381
vn 0 -0.0003455752 1
vn 0 -0.0003455752 1
vn 0 -0.0003455752 1
vn 0.3015114 -0.3018239 0.9044298
vn 0 -0.0003455752 1
vn -0.3015113 -0.3018239 0.9044298
vn 0.3015114 0.3011987 0.9046381
vn 0 -0.0003455752 1
vn 0 -0.0003455752 1
vn 0 -0.0003455752 1
vn -0.3015113 -0.3018239 0.9044298
vn -0.5773503 0.5771507 0.5775498
vn 0.5773503 0.5771508 0.5775497
vn 0 -0.0003455752 1
vn -0.5773503 -0.5775498 0.5771507
vn -0.5773503 0.5771507 0.5775498
vn 0 -0.0003455752 1
vn 0.5773503 -0.5775498 0.5771507
vn -0.5773503 -0.5775498 0.5771507
vn 0 -0.0003455752 1
vn 0.5773503 0.5771507 0.5775498
vn 0.5773503 -0.5775498 0.5771507
vn -0.5773503 -0.5775498 0.5771507
vn -0.5773503 0.5771506 0.5775499
vn 0.5773503 0.5771507 0.5775498
vn 0.5773503 -0.5775498 0.5771507
vn 0 -0.0003455752 1
vn 0.3015114 0.3011987 0.9046381
vn 0.5773503 0.5771507 0.5775498
vn -0.7071068 0.7071068 0.0002443586
vn -0.7071068 0.7071068 0.0002443586
vn -0.3015113 -0.3018239 0.9044298
vn -0.5773503 -0.5775498 0.5771507
vn 0.7071068 -0.7071068 -0.0002443586
vn 0.7071068 -0.7071068 -0.0002443586
vn 0.7071068 0.7071068 0.0002443586
vn 0.7071068 0.7071068 0.0002443586
vn -0.5773503 0.5771507 0.5775498
vn -0.3015113 0.3011987 0.9046382
vn -0.3015113 0.3011987 0.9046382
vn -0.5773503 0.5771506 0.5775499
vn -0.7071068 -0.7071068 -0.0002442077
vn -0.7071068 -0.7071068 -0.0002442077
vn -0.3015113 -0.3018239 0.9044298
vn -0.5773503 -0.5775498 0.5771507
vn 0.5773503 -0.5775498 0.5771507
vn 0.3015114 -0.3018239 0.9044298
vn 0.7071068 -0.7071068 -0.0002443586
vn 0.7071068 -0.7071068 -0.0002443586
vn 0.5773503 0.5771508 0.5775497
vn 0.3015114 0.3011987 0.9046381
vn -0.3015113 -0.3018239 0.9044298
vn -0.5773503 -0.5775498 0.5771507
vn 0.5773503 -0.5775498 0.5771507
vn 0.3015114 -0.3018239 0.9044298
vn -0.7071068 -0.7071068 -0.0002442077
vn -0.7071068 -0.7071068 -0.0002442077
vn 0.5773503 -0.5775498 0.5771507
vn 0.3015114 -0.3018239 0.9044298
vn 0.3015114 -0.3018239 0.9044298
vn 0.5773503 -0.5775498 0.5771507
vn 0.5773503 0.5771507 0.5775498
vn 0.3015114 0.3011987 0.9046381
vn 0.3015114 0.3011987 0.9046381
vn 0.5773503 0.5771508 0.5775497
vn -0.5773503 0.5771507 0.5775498
vn -0.3015113 0.3011987 0.9046382
vn -0.3015113 0.3011987 0.9046382
vn -0.5773503 0.5771507 0.5775498
vn -0.5773503 -0.5775498 0.5771507
vn -0.3015113 -0.3018239 0.9044298
vn 0.3015113 0.3011987 0.9046382
vn 0.5773503 0.5771507 0.5775498
vn -0.5773503 0.5771506 0.5775499
vn -0.3015113 0.3011987 0.9046382
vn -0.6596372 -0.487865 0.5717226
vn -0.6596372 -0.487865 0.5717226
vn -0.6596372 -0.487865 0.5717226
vn -0.6596372 0.4874698 0.5720596
vn -0.6596372 0.4874698 0.5720596
vn -0.6596372 0.4874698 0.5720596
vn -0.659625 -0.4874632 -0.5720791
vn -0.659625 -0.4874632 -0.5720791
vn -0.659625 -0.4874632 -0.5720791
vn -0.6596283 0.4878567 -0.5717399
vn -0.6596283 0.4878567 -0.5717399
vn -0.6596283 0.4878567 -0.5717399
vn 0.6596392 -0.4878665 0.5717187
vn 0.6596392 -0.4878665 0.5717187
vn 0.6596392 -0.4878665 0.5717187
vn 0.6596392 0.4874713 0.5720557
vn 0.6596392 0.4874713 0.5720557
vn 0.6596392 0.4874713 0.5720557
vn 0.6596307 -0.4874595 -0.5720757
vn 0.6596307 -0.4874595 -0.5720757
vn 0.6596307 -0.4874595 -0.5720757
vn 0.6596323 0.4878539 -0.5717376
vn 0.6596323 0.4878539 -0.5717376
vn 0.6596323 0.4878539 -0.5717376
vn 1.375833E-07 -0.0003455752 1
vn 1.375833E-07 -0.0003455752 1
vn 1.375833E-07 -0.0003455752 1
vn 1.375833E-07 -0.0003455752 1
vn 1 0 0
vn 1 0 0
vn 1 0 0
vn 1 0 0
vn 0 1 0.0003453316
vn 0 1 0.0003453316
vn 0 1 0.0003453316
vn 0 1 0.0003453316
vn -1 0 0
vn -1 0 0
vn -1 0 0
vn -1 0 0
vn -1.000605E-07 0.0003455752 -1
vn -1.000605E-07 0.0003455752 -1
vn -1.000605E-07 0.0003455752 -1
vn -1.000605E-07 0.0003455752 -1
vn -0.8041122 -0.5944774 -0.000205334
vn -0.8041122 -0.5944774 -0.000205334
vn -0.8041122 -0.5944774 -0.000205334
vn -0.8041122 -0.5944774 -0.000205334
vn -0.7555699 -0.0002263753 0.655068
vn -0.7555699 -0.0002263753 0.655068
vn -0.7555699 -0.0002263753 0.655068
vn -0.7555699 -0.0002263753 0.655068
vn -0.8041133 0.594476 0.0002053129
vn -0.8041133 0.594476 0.0002053129
vn -0.8041133 0.594476 0.0002053129
vn -0.8041133 0.594476 0.0002053129
vn -0.7555535 0.0002263818 -0.6550868
vn -0.7555535 0.0002263818 -0.6550868
vn -0.7555535 0.0002263818 -0.6550868
vn -0.7555535 0.0002263818 -0.6550868
vn 0 -0.6485679 -0.7611567
vn 0 -0.6485679 -0.7611567
vn 0 -0.6485679 -0.7611567
vn 0 -0.6485679 -0.7611567
vn 0 0.6490939 -0.7607083
vn 0 0.6490939 -0.7607083
vn 0 0.6490939 -0.7607083
vn 0 0.6490939 -0.7607083
vn 0.7555512 0.0002263827 -0.6550896
vn 0.7555512 0.0002263827 -0.6550896
vn 0.7555512 0.0002263827 -0.6550896
vn 0.7555512 0.0002263827 -0.6550896
vn 0.8041123 -0.5944774 -0.000205226
vn 0.8041123 -0.5944774 -0.000205226
vn 0.8041123 -0.5944774 -0.000205226
vn 0.8041123 -0.5944774 -0.000205226
vn 0.8041123 0.5944774 0.000205226
vn 0.8041123 0.5944774 0.000205226
vn 0.8041123 0.5944774 0.000205226
vn 0.8041123 0.5944774 0.000205226
vn 0.7555677 -0.0002263761 0.6550705
vn 0.7555677 -0.0002263761 0.6550705
vn 0.7555677 -0.0002263761 0.6550705
vn 0.7555677 -0.0002263761 0.6550705
vn 1.148101E-07 -0.6491132 0.7606918
vn 1.148101E-07 -0.6491132 0.7606918
vn 1.148101E-07 -0.6491132 0.7606918
vn 1.148101E-07 -0.6491132 0.7606918
vn 1.05547E-07 0.6485872 0.7611403
vn 1.05547E-07 0.6485872 0.7611403
vn 1.05547E-07 0.6485872 0.7611403
vn 1.05547E-07 0.6485872 0.7611403
vn 0 -1 -0.0003453519
vn 0 -1 -0.0003453519
vn 0 -1 -0.0003453519
vn 0 -1 -0.0003453519
vn 0.5773503 0.5771507 0.5775498
vn 0.5773503 0.5771507 0.5775498
vn 0.5773503 0.5771507 0.5775498
vn -0.5773503 0.5771507 0.5775498
vn -0.5773503 0.5771507 0.5775498
vn -0.5773503 0.5771507 0.5775498
vn 0.5773503 -0.5775498 0.5771507
vn 0.5773503 -0.5775498 0.5771507
vn 0.5773503 -0.5775498 0.5771507
vn -1 0 0
vn -1 0 0
vn -1 0 0
vn -1 0 0
vn 1 0 0
vn 1 0 0
vn 1 0 0
vn 1 0 0
vn 0 -0.0003455752 1
vn 0 -0.0003455752 1
vn 0 -0.0003455752 1
vn 0 -0.0003455752 1
vn 0 1 0.0003455752
vn 0 1 0.0003455752
vn 0 1 0.0003455752
vn 0 1 0.0003455752
vn 0 -1 -0.0003455752
vn 0 -1 -0.0003455752
vn 0 -1 -0.0003455752
vn 0 -1 -0.0003455752
vn 0 0.0003455752 -1
vn 0 0.0003455752 -1
vn 0 0.0003455752 -1
vn 0 0.0003455752 -1
vn 0 0.0003455752 -1
vn 0 0.0003455752 -1
vn 0 0.0003455752 -1
vn 0 0.0003455752 -1
vn 0 0.0003455752 -1
vn 0 0.0003455752 -1
vn -1 0 0
vn -1 0 0
vn -1 0 0
vn -1 0 0
vn 0 -1 -0.0003455752
vn 0 -1 -0.0003455752
vn 0 -1 -0.0003455752
vn 0 -1 -0.0003455752
vn 1 0 0
vn 1 0 0
vn 1 0 0
vn 1 0 0
vn 1 0 0
vn 1 0 0
vn 1 0 0
vn 1 0 0
vn 0 1 0.0003455752
vn 0 1 0.0003455752
vn 0 1 0.0003455752
vn 0 1 0.0003455752
vn 0 1 0.0003455752
vn 0 1 0.0003455752
vn 0 1 0.0003455752
vn 0 1 0.0003455752
vn 0 1 0.0003455752
vn 0 1 0.0003455752
vn 0 1 0.0003455752
vn 0 1 0.0003455752
vn 0 0.0003455752 -1
vn 0 0.0003455752 -1
vn 0 0.0003455752 -1
vn 0 0.0003455752 -1
vn -1 0 0
vn -1 0 0
vn -1 0 0
vn -1 0 0
vn -1 0 0
vn -1 0 0
vn 1 0 0
vn 1 0 0
vn -1 0 0
vn -1 0 0
vn -1 0 0
vn -1 0 0
vn -1 0 0
vn -1 0 0
vn -1 0 0
vn -1 0 0
vn -1 0 0
vn -1 0 0
vn -1 0 0
vn -1 0 0
vn -1 0 0
vn -1 0 0
vn -1 0 0
vn -1 0 0
vn -1 0 0
vn -1 0 0
vn -1 0 0
vn 1 0 0
vn 1 0 0
vn 1 0 0
vn 1 0 0
vn 1 0 0
vn 1 0 0
vn 1 0 0
vn 1 0 0
vn 1 0 0
vn 1 0 0
vn 1 0 0
vn 0 -1 -0.0003455752
vn 0 -1 -0.0003455752
vn 0 -1 -0.0003455752
vn 0 -1 -0.0003455752
vn 0 -0.0003455752 1
vn 0 -0.0003455752 1
vn 0 -0.0003455752 1
vn 0 -0.0003455752 1
vn -1 0 0
vn -1 0 0
vn -1 0 0
vn -1 0 0
vn 0 1 0.0003455752
vn 0 1 0.0003455752
vn 0 1 0.0003455752
vn 0 1 0.0003455752
vn -1 0 0
vn -1 0 0
vn -1 0 0
vn -1 0 0
vn 1 0 0
vn 1 0 0
vn 1 0 0
vn 1 0 0
vn 0.7071068 0.7071068 0.0002443586
vn 0.7071068 0.7071068 0.0002443586
vn 0.7071068 0.7071068 0.0002443586
vn 0.7071068 0.7071068 0.0002443586
vn -0.7071068 0.7071068 0.0002443586
vn -0.7071068 0.7071068 0.0002443586
vn -0.7071068 0.7071068 0.0002443586
vn -0.7071068 0.7071068 0.0002443586
vn 0 0.0003455752 -1
vn 0 0.0003455752 -1
vn 0 0.0003455752 -1
vn 0 0.0003455752 -1
vn 0 0.0003455752 -1
vn 0 0.0003455752 -1
vn 0 0.0003455752 -1
vn 0 0.0003455752 -1
vn 0 0.0003455752 -1
vn 0 0.0003455752 -1
vn 0 -1 -0.0003455752
vn 0 -1 -0.0003455752
vn 0 -1 -0.0003455752
vn 0 -1 -0.0003455752
vn 1 0 0
vn 1 0 0
vn 1 0 0
vn 1 0 0
vn 0 1 0.0003455752
vn 0 1 0.0003455752
vn 0 1 0.0003455752
vn 0 1 0.0003455752
vn 0 1 0.0003455752
vn 0 1 0.0003455752
vn 0 1 0.0003455752
vn 0 1 0.0003455752
vn 0 1 0.0003455752
vn 0 1 0.0003455752
vn 0 1 0.0003455752
vn 0 1 0.0003455752
vn 0 1 0.0003455752
vn 0 1 0.0003455752
vn 0 1 0.0003455752
vn 0 1 0.0003455752
vn 1 0 0
vn 1 0 0
vn 1 0 0
vn 1 0 0
vn -1 0 0
vn -1 0 0
vn -1 0 0
vn -1 0 0
vn 0 0.0003455752 -1
vn 0 0.0003455752 -1
vn 0 0.0003455752 -1
vn 0 0.0003455752 -1
vn -1 0 0
vn -1 0 0
vn 1 0 0
vn 1 0 0
vn -1 0 0
vn -1 0 0
vn -1 0 0
vn -1 0 0
vn -1 0 0
vn -1 0 0
vn -1 0 0
vn -1 0 0
vn -1 0 0
vn -1 0 0
vn -1 0 0
vn -1 0 0
vn -1 0 0
vn -1 0 0
vn -1 0 0
vn -1 0 0
vn -1 0 0
vn -1 0 0
vn -1 0 0
vn 1 0 0
vn 1 0 0
vn 1 0 0
vn 1 0 0
vn 1 0 0
vn 1 0 0
vn 1 0 0
vn 1 0 0
vn 1 0 0
vn 1 0 0
vn 1 0 0
vn 0.5773503 0.5771507 0.5775498
vn 0.5773503 0.5771507 0.5775498
vn 0.5773503 0.5771507 0.5775498
vn 0.5773503 -0.5775498 0.5771507
vn 0.5773503 -0.5775498 0.5771507
vn 0.5773503 -0.5775498 0.5771507
vn 0 -1 -0.0003455752
vn 0 -1 -0.0003455752
vn 0 -1 -0.0003455752
vn 0 -1 -0.0003455752
vn 0 -0.0003455752 1
vn 0 -0.0003455752 1
vn 0 -0.0003455752 1
vn 0 -0.0003455752 1
vn 1 0 0
vn 1 0 0
vn 1 0 0
vn 1 0 0
vn 0 1 0.0003455752
vn 0 1 0.0003455752
vn 0 1 0.0003455752
vn 0 1 0.0003455752
vn -1 0 0
vn -1 0 0
vn -1 0 0
vn -1 0 0
vn -1 0 0
vn -1 0 0
vn -1 0 0
vn -1 0 0
vn 0 0.0003455752 -1
vn 0 0.0003455752 -1
vn 0 0.0003455752 -1
vn 0 0.0003455752 -1
vn 1 0 0
vn 1 0 0
vn 1 0 0
vn 1 0 0
vn 1 0 0
vn 1 0 0
vn 1 0 0
vn 1 0 0
vn 0 -1 -0.0003455752
vn 0 -1 -0.0003455752
vn 0 -1 -0.0003455752
vn 0 -1 -0.0003455752
vn 0 1 0.0003455752
vn 0 1 0.0003455752
vn 0 1 0.0003455752
vn 0 1 0.0003455752
vn -1 0 0
vn -1 0 0
vn -1 0 0
vn -1 0 0
vn 0 0.0003455752 -1
vn 0 0.0003455752 -1
vn 0 0.0003455752 -1
vn 0 0.0003455752 -1
vn 0 0.0003455752 -1
vn 0 0.0003455752 -1
vn 0 0.0003455752 -1
vn 0 0.0003455752 -1
vn 0 1 0.0003455752
vn 0 1 0.0003455752
vn 0 1 0.0003455752
vn 0 1 0.0003455752
vn 0 1 0.0003455752
vn 0 1 0.0003455752
vn 0 1 0.0003455752
vn 0 1 0.0003455752
vn -1 0 0
vn -1 0 0
vn 1 0 0
vn 1 0 0
vn -1 0 0
vn -1 0 0
vn -1 0 0
vn -1 0 0
vn -1 0 0
vn -1 0 0
vn -1 0 0
vn -1 0 0
vn -1 0 0
vn -1 0 0
vn -1 0 0
vn -1 0 0
vn -1 0 0
vn -1 0 0
vn -1 0 0
vn -1 0 0
vn -1 0 0
vn -1 0 0
vn -1 0 0
vn 1 0 0
vn 1 0 0
vn 1 0 0
vn 1 0 0
vn 1 0 0
vn 1 0 0
vn 1 0 0
vn 1 0 0
vn 1 0 0
vn 1 0 0
vn 1 0 0
vn 0.5773503 0.5771507 0.5775498
vn 0.5773503 0.5771507 0.5775498
vn 0.5773503 0.5771507 0.5775498
vn 0 1 0.0003455752
vn 0 1 0.0003455752
vn 0 1 0.0003455752
vn 0 1 0.0003455752
vn 0 -0.0003455752 1
vn 0 -0.0003455752 1
vn 0 -0.0003455752 1
vn 0 -0.0003455752 1
vn 0 -1 -0.0003455752
vn 0 -1 -0.0003455752
vn 0 -1 -0.0003455752
vn 0 -1 -0.0003455752
vn 1 0 0
vn 1 0 0
vn 1 0 0
vn 1 0 0
vn -1 0 0
vn -1 0 0
vn -1 0 0
vn -1 0 0
vn 0.7071068 0.7071068 0.0002443586
vn 0.7071068 0.7071068 0.0002443586
vn 0.7071068 0.7071068 0.0002443586
vn 0.7071068 0.7071068 0.0002443586
vn -1 0 0
vn -1 0 0
vn -1 0 0
vn -1 0 0
vn 0 0.0003455752 -1
vn 0 0.0003455752 -1
vn 0 0.0003455752 -1
vn 0 0.0003455752 -1
vn 1 0 0
vn 1 0 0
vn 1 0 0
vn 1 0 0
vn 0 -1 -0.0003455752
vn 0 -1 -0.0003455752
vn 0 -1 -0.0003455752
vn 0 -1 -0.0003455752
vn 0 1 0.0003455752
vn 0 1 0.0003455752
vn 0 1 0.0003455752
vn 0 1 0.0003455752
vn -1 0 0
vn -1 0 0
vn -1 0 0
vn -1 0 0
vn 1 0 0
vn 1 0 0
vn 1 0 0
vn 1 0 0
vn 0 0.0003455752 -1
vn 0 0.0003455752 -1
vn 0 0.0003455752 -1
vn 0 0.0003455752 -1
vn 0 0.0003455752 -1
vn 0 0.0003455752 -1
vn 0 0.0003455752 -1
vn 0 0.0003455752 -1
vn 0 1 0.0003455752
vn 0 1 0.0003455752
vn 0 1 0.0003455752
vn 0 1 0.0003455752
vn 0 1 0.0003455752
vn 0 1 0.0003455752
vn 0 1 0.0003455752
vn 0 1 0.0003455752
vn -1 0 0
vn -1 0 0
vn 1 0 0
vn 1 0 0
vn -1 0 0
vn -1 0 0
vn -1 0 0
vn -1 0 0
vn -1 0 0
vn -1 0 0
vn -1 0 0
vn -1 0 0
vn -1 0 0
vn -1 0 0
vn -1 0 0
vn -1 0 0
vn -1 0 0
vn -1 0 0
vn -1 0 0
vn -1 0 0
vn -1 0 0
vn -1 0 0
vn -1 0 0
vn 1 0 0
vn 1 0 0
vn 1 0 0
vn 1 0 0
vn 1 0 0
vn 1 0 0
vn 1 0 0
vn 1 0 0
vn 1 0 0
vn 1 0 0
vn 1 0 0
usemtl DarkWoodSmooth
f 3/3/3 2/2/2 1/1/1
f 6/6/6 5/5/5 4/4/4
f 9/9/9 8/8/8 7/7/7
f 12/12/12 11/11/11 10/10/10
f 15/15/15 14/14/14 13/13/13
f 18/18/18 17/17/17 16/16/16
f 21/21/21 20/20/20 19/19/19
f 24/24/24 23/23/23 22/22/22
f 27/27/27 26/26/26 25/25/25
f 30/30/30 29/29/29 28/28/28
f 33/33/33 32/32/32 31/31/31
f 36/36/36 35/35/35 34/34/34
f 39/39/39 38/38/38 37/37/37
f 42/42/42 41/41/41 40/40/40
f 45/45/45 44/44/44 43/43/43
f 48/48/48 47/47/47 46/46/46
f 51/51/51 50/50/50 49/49/49
f 54/54/54 53/53/53 52/52/52
f 57/57/57 56/56/56 55/55/55
f 60/60/60 59/59/59 58/58/58
f 63/63/63 62/62/62 61/61/61
f 66/66/66 65/65/65 64/64/64
f 69/69/69 68/68/68 67/67/67
f 72/72/72 71/71/71 70/70/70
f 75/75/75 74/74/74 73/73/73
f 78/78/78 77/77/77 76/76/76
f 81/81/81 80/80/80 79/79/79
f 84/84/84 83/83/83 82/82/82
f 87/87/87 86/86/86 85/85/85
f 90/90/90 89/89/89 88/88/88
f 93/93/93 92/92/92 91/91/91
f 96/96/96 95/95/95 94/94/94
f 99/99/99 98/98/98 97/97/97
f 100/100/100 99/99/99 97/97/97
f 103/103/103 102/102/102 101/101/101
f 104/104/104 103/103/103 101/101/101
f 107/107/107 106/106/106 105/105/105
f 108/108/108 107/107/107 105/105/105
f 111/111/111 110/110/110 109/109/109
f 112/112/112 111/111/111 109/109/109
f 115/115/115 114/114/114 113/113/113
f 116/116/116 115/115/115 113/113/113
f 119/119/119 118/118/118 117/117/117
f 120/120/120 119/119/119 117/117/117
f 123/123/123 122/122/122 121/121/121
f 124/124/124 123/123/123 121/121/121
f 127/127/127 126/126/126 125/125/125
f 128/128/128 127/127/127 125/125/125
f 131/131/131 130/130/130 129/129/129
f 132/132/132 131/131/131 129/129/129
f 135/135/135 134/134/134 133/133/133
f 136/136/136 135/135/135 133/133/133
f 139/139/139 138/138/138 137/137/137
f 140/140/140 139/139/139 137/137/137
f 143/143/143 142/142/142 141/141/141
f 144/144/144 143/143/143 141/141/141
f 147/147/147 146/146/146 145/145/145
f 148/148/148 147/147/147 145/145/145
f 151/151/151 150/150/150 149/149/149
f 152/152/152 151/151/151 149/149/149
f 155/155/155 154/154/154 153/153/153
f 156/156/156 155/155/155 153/153/153
f 159/159/159 158/158/158 157/157/157
f 160/160/160 159/159/159 157/157/157
f 163/163/163 162/162/162 161/161/161
f 164/164/164 163/163/163 161/161/161
f 167/167/167 166/166/166 165/165/165
f 168/168/168 167/167/167 165/165/165
f 171/171/171 170/170/170 169/169/169
f 172/172/172 171/171/171 169/169/169
f 175/175/175 174/174/174 173/173/173
f 176/176/176 175/175/175 173/173/173
f 179/179/179 178/178/178 177/177/177
f 180/180/180 179/179/179 177/177/177
f 183/183/183 182/182/182 181/181/181
f 184/184/184 183/183/183 181/181/181
f 187/187/187 186/186/186 185/185/185
f 188/188/188 187/187/187 185/185/185
f 191/191/191 190/190/190 189/189/189
f 192/192/192 191/191/191 189/189/189
f 195/195/195 194/194/194 193/193/193
f 196/196/196 195/195/195 193/193/193
f 199/199/199 198/198/198 197/197/197
f 200/200/200 199/199/199 197/197/197
f 203/203/203 202/202/202 201/201/201
f 204/204/204 203/203/203 201/201/201
f 207/207/207 206/206/206 205/205/205
f 208/208/208 207/207/207 205/205/205
f 211/211/211 210/210/210 209/209/209
f 212/212/212 211/211/211 209/209/209
f 215/215/215 214/214/214 213/213/213
f 216/216/216 215/215/215 213/213/213
f 219/219/219 218/218/218 217/217/217
f 220/220/220 219/219/219 217/217/217
f 223/223/223 222/222/222 221/221/221
f 224/224/224 223/223/223 221/221/221
f 227/227/227 226/226/226 225/225/225
f 228/228/228 227/227/227 225/225/225
f 231/231/231 230/230/230 229/229/229
f 232/232/232 231/231/231 229/229/229
f 235/235/235 234/234/234 233/233/233
f 236/236/236 235/235/235 233/233/233
f 239/239/239 238/238/238 237/237/237
f 240/240/240 239/239/239 237/237/237
f 243/243/243 242/242/242 241/241/241
f 244/244/244 243/243/243 241/241/241
f 247/247/247 246/246/246 245/245/245
f 248/248/248 247/247/247 245/245/245
f 251/251/251 250/250/250 249/249/249
f 252/252/252 251/251/251 249/249/249
f 255/255/255 254/254/254 253/253/253
f 256/256/256 255/255/255 253/253/253
f 259/259/259 258/258/258 257/257/257
f 260/260/260 259/259/259 257/257/257
f 263/263/263 262/262/262 261/261/261
f 264/264/264 263/263/263 261/261/261
f 267/267/267 266/266/266 265/265/265
f 268/268/268 267/267/267 265/265/265
f 271/271/271 270/270/270 269/269/269
f 272/272/272 271/271/271 269/269/269
f 275/275/275 274/274/274 273/273/273
f 276/276/276 275/275/275 273/273/273
f 279/279/279 278/278/278 277/277/277
f 280/280/280 279/279/279 277/277/277
f 283/283/283 282/282/282 281/281/281
f 284/284/284 283/283/283 281/281/281
f 287/287/287 286/286/286 285/285/285
f 288/288/288 287/287/287 285/285/285
f 291/291/291 290/290/290 289/289/289
f 292/292/292 291/291/291 289/289/289
f 295/295/295 294/294/294 293/293/293
f 296/296/296 295/295/295 293/293/293
f 299/299/299 298/298/298 297/297/297
f 300/300/300 299/299/299 297/297/297
f 303/303/303 302/302/302 301/301/301
f 304/304/304 303/303/303 301/301/301
f 307/307/307 306/306/306 305/305/305
f 308/308/308 307/307/307 305/305/305
f 311/311/311 310/310/310 309/309/309
f 312/312/312 311/311/311 309/309/309
f 315/315/315 314/314/314 313/313/313
f 316/316/316 315/315/315 313/313/313
f 319/319/319 318/318/318 317/317/317
f 320/320/320 319/319/319 317/317/317
f 323/323/323 322/322/322 321/321/321
f 324/324/324 323/323/323 321/321/321
f 327/327/327 326/326/326 325/325/325
f 328/328/328 327/327/327 325/325/325
f 331/331/331 330/330/330 329/329/329
f 332/332/332 331/331/331 329/329/329
f 335/335/335 334/334/334 333/333/333
f 336/336/336 335/335/335 333/333/333
f 339/339/339 338/338/338 337/337/337
f 340/340/340 339/339/339 337/337/337
f 343/343/343 342/342/342 341/341/341
f 344/344/344 343/343/343 341/341/341
f 347/347/347 346/346/346 345/345/345
f 348/348/348 347/347/347 345/345/345
f 351/351/351 350/350/350 349/349/349
f 352/352/352 351/351/351 349/349/349
f 355/355/355 354/354/354 353/353/353
f 356/356/356 355/355/355 353/353/353
f 359/359/359 358/358/358 357/357/357
f 360/360/360 359/359/359 357/357/357
f 363/363/363 362/362/362 361/361/361
f 364/364/364 363/363/363 361/361/361
f 367/367/367 366/366/366 365/365/365
f 368/368/368 367/367/367 365/365/365
f 371/371/371 370/370/370 369/369/369
f 372/372/372 371/371/371 369/369/369
f 375/375/375 374/374/374 373/373/373
f 376/376/376 375/375/375 373/373/373
f 379/379/379 378/378/378 377/377/377
f 380/380/380 379/379/379 377/377/377
f 383/383/383 382/382/382 381/381/381
f 384/384/384 383/383/383 381/381/381
f 387/387/387 386/386/386 385/385/385
f 388/388/388 387/387/387 385/385/385
f 391/391/391 390/390/390 389/389/389
f 392/392/392 391/391/391 389/389/389
f 395/395/395 394/394/394 393/393/393
f 396/396/396 395/395/395 393/393/393
f 399/399/399 398/398/398 397/397/397
f 400/400/400 399/399/399 397/397/397
f 403/403/403 402/402/402 401/401/401
f 404/404/404 403/403/403 401/401/401
f 407/407/407 406/406/406 405/405/405
f 408/408/408 407/407/407 405/405/405
f 411/411/411 410/410/410 409/409/409
f 412/412/412 411/411/411 409/409/409
f 415/415/415 414/414/414 413/413/413
f 416/416/416 415/415/415 413/413/413
f 419/419/419 418/418/418 417/417/417
f 420/420/420 419/419/419 417/417/417
f 423/423/423 422/422/422 421/421/421
f 424/424/424 423/423/423 421/421/421
f 427/427/427 426/426/426 425/425/425
f 428/428/428 427/427/427 425/425/425
f 431/431/431 430/430/430 429/429/429
f 432/432/432 431/431/431 429/429/429
f 435/435/435 434/434/434 433/433/433
f 436/436/436 435/435/435 433/433/433
f 439/439/439 438/438/438 437/437/437
f 440/440/440 439/439/439 437/437/437
f 443/443/443 442/442/442 441/441/441
f 444/444/444 443/443/443 441/441/441
f 447/447/447 446/446/446 445/445/445
f 448/448/448 447/447/447 445/445/445
f 451/451/451 450/450/450 449/449/449
f 452/452/452 451/451/451 449/449/449
f 455/455/455 454/454/454 453/453/453
f 456/456/456 455/455/455 453/453/453
f 459/459/459 458/458/458 457/457/457
f 460/460/460 459/459/459 457/457/457
f 463/463/463 462/462/462 461/461/461
f 461/461/461 464/464/464 463/463/463
f 461/461/461 465/465/465 464/464/464
f 468/468/468 467/467/467 466/466/466
f 469/469/469 468/468/468 466/466/466
f 472/472/472 471/471/471 470/470/470
f 470/470/470 473/473/473 472/472/472
f 470/470/470 474/474/474 473/473/473
f 477/477/477 476/476/476 475/475/475
f 475/475/475 478/478/478 477/477/477
f 475/475/475 479/479/479 478/478/478
f 482/482/482 481/481/481 480/480/480
f 480/480/480 483/483/483 482/482/482
f 480/480/480 484/484/484 483/483/483
f 487/487/487 486/486/486 485/485/485
f 488/488/488 487/487/487 485/485/485
f 491/491/491 490/490/490 489/489/489
f 492/492/492 491/491/491 489/489/489
f 495/495/495 494/494/494 493/493/493
f 496/496/496 495/495/495 493/493/493
f 499/499/499 498/498/498 497/497/497
f 498/498/498 500/500/500 497/497/497
f 497/497/497 500/500/500 501/501/501
f 500/500/500 502/502/502 501/501/501
f 502/502/502 500/500/500 503/503/503
f 504/504/504 502/502/502 503/503/503
f 503/503/503 500/500/500 505/505/505
f 500/500/500 506/506/506 505/505/505
f 505/505/505 506/506/506 507/507/507
f 506/506/506 508/508/508 507/507/507
f 507/507/507 508/508/508 504/504/504
f 508/508/508 502/502/502 504/504/504
f 502/502/502 508/508/508 509/509/509
f 509/509/509 508/508/508 510/510/510
f 508/508/508 511/511/511 510/510/510
f 510/510/510 511/511/511 512/512/512
f 511/511/511 513/513/513 512/512/512
f 512/512/512 513/513/513 514/514/514
f 514/514/514 502/502/502 509/509/509
f 513/513/513 502/502/502 514/514/514
f 502/502/502 513/513/513 515/515/515
f 516/516/516 502/502/502 515/515/515
f 517/517/517 502/502/502 516/516/516
f 518/518/518 517/517/517 516/516/516
f 521/521/521 520/520/520 519/519/519
f 522/522/522 521/521/521 519/519/519
f 523/523/523 521/521/521 522/522/522
f 524/524/524 523/523/523 522/522/522
f 526/526/526 521/521/521 525/525/525
f 527/527/527 526/526/526 525/525/525
f 528/528/528 526/526/526 527/527/527
f 529/529/529 528/528/528 527/527/527
f 532/532/532 531/531/531 530/530/530
f 533/533/533 532/532/532 530/530/530
f 536/536/536 535/535/535 534/534/534
f 537/537/537 536/536/536 534/534/534
f 540/540/540 539/539/539 538/538/538
f 541/541/541 540/540/540 538/538/538
f 544/544/544 543/543/543 542/542/542
f 545/545/545 544/544/544 542/542/542
f 548/548/548 547/547/547 546/546/546
f 549/549/549 548/548/548 546/546/546
f 552/552/552 551/551/551 550/550/550
f 553/553/553 552/552/552 550/550/550
f 556/556/556 555/555/555 554/554/554
f 557/557/557 556/556/556 554/554/554
f 560/560/560 559/559/559 558/558/558
f 561/561/561 560/560/560 558/558/558
f 564/564/564 563/563/563 562/562/562
f 565/565/565 564/564/564 562/562/562
f 568/568/568 567/567/567 566/566/566
f 569/569/569 568/568/568 566/566/566
f 572/572/572 571/571/571 570/570/570
f 573/573/573 572/572/572 570/570/570
f 576/576/576 575/575/575 574/574/574
f 577/577/577 576/576/576 574/574/574
f 580/580/580 579/579/579 578/578/578
f 581/581/581 580/580/580 578/578/578
f 584/584/584 583/583/583 582/582/582
f 585/585/585 584/584/584 582/582/582
f 588/588/588 587/587/587 586/586/586
f 589/589/589 588/588/588 586/586/586
f 592/592/592 591/591/591 590/590/590
f 593/593/593 592/592/592 590/590/590
usemtl LightWoodCounters3
f 596/596/596 595/595/595 594/594/594
f 599/599/599 598/598/598 597/597/597
f 602/602/602 601/601/601 600/600/600
f 605/605/605 604/604/604 603/603/603
f 608/608/608 607/607/607 606/606/606
f 611/611/611 610/610/610 609/609/609
f 614/614/614 613/613/613 612/612/612
f 617/617/617 616/616/616 615/615/615
f 620/620/620 619/619/619 618/618/618
f 621/621/621 620/620/620 618/618/618
f 624/624/624 623/623/623 622/622/622
f 625/625/625 624/624/624 622/622/622
f 628/628/628 627/627/627 626/626/626
f 629/629/629 628/628/628 626/626/626
f 632/632/632 631/631/631 630/630/630
f 633/633/633 632/632/632 630/630/630
f 636/636/636 635/635/635 634/634/634
f 637/637/637 636/636/636 634/634/634
f 640/640/640 639/639/639 638/638/638
f 641/641/641 640/640/640 638/638/638
f 644/644/644 643/643/643 642/642/642
f 645/645/645 644/644/644 642/642/642
f 648/648/648 647/647/647 646/646/646
f 649/649/649 648/648/648 646/646/646
f 652/652/652 651/651/651 650/650/650
f 653/653/653 652/652/652 650/650/650
f 656/656/656 655/655/655 654/654/654
f 657/657/657 656/656/656 654/654/654
f 660/660/660 659/659/659 658/658/658
f 661/661/661 660/660/660 658/658/658
f 664/664/664 663/663/663 662/662/662
f 665/665/665 664/664/664 662/662/662
f 668/668/668 667/667/667 666/666/666
f 669/669/669 668/668/668 666/666/666
f 672/672/672 671/671/671 670/670/670
f 673/673/673 672/672/672 670/670/670
f 676/676/676 675/675/675 674/674/674
f 677/677/677 676/676/676 674/674/674
f 680/680/680 679/679/679 678/678/678
f 681/681/681 680/680/680 678/678/678
f 684/684/684 683/683/683 682/682/682
f 685/685/685 684/684/684 682/682/682
f 688/688/688 687/687/687 686/686/686
f 689/689/689 688/688/688 686/686/686
