mtllib Dresser_205_1.mtl
v -0.26657 0.17258 0.10921
v -0.27245 0.16671 0.1092
v -0.26657 0.16671 0.10333
v 0.26658 0.17258 0.10921
v 0.26658 0.16671 0.10333
v 0.27246 0.16671 0.1092
v -0.27245 -0.12745 0.1091
v -0.26657 -0.13333 0.1091
v -0.26657 -0.12745 0.10323
v 0.26658 -0.13333 0.1091
v 0.27246 -0.12745 0.1091
v 0.26658 -0.12745 0.10323
v 0.26658 0.17258 0.12244
v 0.27246 0.16671 0.12243
v 0.26658 0.1667 0.12831
v -0.26657 0.17258 0.12244
v -0.26657 0.1667 0.12831
v -0.27245 0.16671 0.12243
v -0.27245 -0.12746 0.12233
v -0.26657 -0.12746 0.12821
v -0.26657 -0.13333 0.12233
v 0.26658 -0.13333 0.12233
v 0.26658 -0.12746 0.12821
v 0.27246 -0.12746 0.12233
v -0.27245 0.16671 0.1092
v -0.27245 0.16671 0.12243
v -0.27245 -0.12746 0.12233
v -0.27245 -0.12745 0.1091
v 0.27246 -0.12745 0.1091
v 0.27246 -0.12746 0.12233
v 0.27246 0.16671 0.12243
v 0.27246 0.16671 0.1092
v 0.26658 -0.12746 0.12821
v -0.26657 -0.12746 0.12821
v -0.26657 0.1667 0.12831
v 0.26658 0.1667 0.12831
v 0.26658 0.17258 0.10921
v 0.26658 0.17258 0.12244
v -0.26657 0.17258 0.12244
v -0.26657 0.17258 0.10921
v 0.23883 0.15679 -0.1117
v 0.23883 -0.09994 -0.11179
v -0.23882 -0.09994 -0.11179
v -0.23882 0.15679 -0.1117
v -0.26657 -0.13333 0.1091
v -0.26657 -0.13333 0.12233
v 0.26658 -0.13333 0.12233
v 0.26658 -0.13333 0.1091
v 0.26658 0.16671 0.10333
v 0.26658 0.17258 0.10921
v -0.26657 0.17258 0.10921
v -0.26657 0.16671 0.10333
v -0.26657 0.16671 0.10333
v -0.27245 0.16671 0.1092
v -0.27245 -0.12745 0.1091
v -0.26657 -0.12745 0.10323
v 0.26658 -0.13333 0.1091
v 0.26658 -0.12745 0.10323
v -0.26657 -0.12745 0.10323
v -0.26657 -0.13333 0.1091
v 0.27246 0.16671 0.1092
v 0.26658 0.16671 0.10333
v 0.26658 -0.12745 0.10323
v 0.27246 -0.12745 0.1091
v 0.26658 0.17258 0.12244
v 0.26658 0.1667 0.12831
v -0.26657 0.1667 0.12831
v -0.26657 0.17258 0.12244
v -0.27245 0.16671 0.12243
v -0.26657 0.1667 0.12831
v -0.26657 -0.12746 0.12821
v -0.27245 -0.12746 0.12233
v 0.26658 -0.12746 0.12821
v 0.26658 -0.13333 0.12233
v -0.26657 -0.13333 0.12233
v -0.26657 -0.12746 0.12821
v 0.26658 0.1667 0.12831
v 0.27246 0.16671 0.12243
v 0.27246 -0.12746 0.12233
v 0.26658 -0.12746 0.12821
v -0.27245 0.16671 0.1092
v -0.26657 0.17258 0.10921
v -0.26657 0.17258 0.12244
v -0.27245 0.16671 0.12243
v 0.27246 0.16671 0.12243
v 0.26658 0.17258 0.12244
v 0.26658 0.17258 0.10921
v 0.27246 0.16671 0.1092
v -0.26657 -0.13333 0.1091
v -0.27245 -0.12745 0.1091
v -0.27245 -0.12746 0.12233
v -0.26657 -0.13333 0.12233
v 0.27246 -0.12745 0.1091
v 0.26658 -0.13333 0.1091
v 0.26658 -0.13333 0.12233
v 0.27246 -0.12746 0.12233
v 0.25658 0.15671 0.10333
v -0.26657 0.16671 0.10333
v -0.25657 0.15671 0.10333
v 0.26658 0.16671 0.10333
v 0.25658 -0.11745 0.10323
v 0.26658 -0.12745 0.10323
v -0.25657 0.15671 0.10333
v -0.26657 0.16671 0.10333
v -0.26657 -0.12745 0.10323
v -0.25657 -0.11745 0.10323
v 0.26658 -0.12745 0.10323
v 0.25658 -0.11745 0.10323
v 0.25658 -0.11737 -0.12954
v 0.25658 0.15679 -0.12945
v -0.25657 0.15679 -0.12945
v -0.25657 -0.11737 -0.12954
v -0.25657 -0.11745 0.10323
v -0.25657 -0.11737 -0.12954
v -0.25657 0.15679 -0.12945
v -0.25657 0.15671 0.10333
v 0.25658 -0.11745 0.10323
v 0.25658 -0.11737 -0.12954
v -0.25657 -0.11737 -0.12954
v -0.25657 -0.11745 0.10323
v 0.25658 0.15671 0.10333
v 0.25658 0.15679 -0.12945
v 0.25658 -0.11737 -0.12954
v 0.25658 -0.11745 0.10323
v -0.23882 0.15679 -0.1117
v -0.23882 -0.09994 -0.11179
v -0.23882 -0.10001 0.08549
v -0.23882 0.15672 0.08558
v 0.23883 0.15672 0.08558
v -0.25657 0.15671 0.10333
v -0.23882 0.15672 0.08558
v 0.25658 0.15671 0.10333
v 0.23883 0.15679 -0.1117
v 0.25658 0.15679 -0.12945
v -0.23882 0.15679 -0.1117
v 0.25658 0.15679 -0.12945
v 0.23883 0.15679 -0.1117
v -0.25657 0.15679 -0.12945
v -0.23882 0.15672 0.08558
v -0.25657 0.15671 0.10333
v -0.23882 -0.10001 0.08549
v -0.23882 -0.09994 -0.11179
v 0.23883 -0.09994 -0.11179
v 0.23883 -0.10001 0.08549
v -0.23882 0.15672 0.08558
v -0.23882 -0.10001 0.08549
v 0.23883 -0.10001 0.08549
v 0.23883 0.15672 0.08558
v 0.23883 0.15672 0.08558
v 0.23883 -0.10001 0.08549
v 0.23883 -0.09994 -0.11179
v 0.23883 0.15679 -0.1117
v -0.27245 -0.12745 0.1091
v -0.26657 -0.13333 0.1091
v -0.26657 -0.12745 0.10323
v -0.27245 0.16671 0.1092
v -0.26657 0.16671 0.10333
v -0.26657 0.17258 0.10921
v 0.26658 -0.13333 0.1091
v 0.27246 -0.12745 0.1091
v 0.26658 -0.12745 0.10323
v 0.26658 0.17258 0.10921
v 0.26658 0.16671 0.10333
v 0.27246 0.16671 0.1092
v -0.27245 0.16671 0.12243
v -0.26657 0.17258 0.12244
v -0.26657 0.1667 0.12831
v -0.27245 -0.12746 0.12233
v -0.26657 -0.12746 0.12821
v -0.26657 -0.13333 0.12233
v 0.26658 -0.13333 0.12233
v 0.26658 -0.12746 0.12821
v 0.27246 -0.12746 0.12233
v 0.26658 0.17258 0.12244
v 0.27246 0.16671 0.12243
v 0.26658 0.1667 0.12831
v -0.26657 -0.13333 0.1091
v -0.26657 -0.13333 0.12233
v 0.26658 -0.13333 0.12233
v 0.26658 -0.13333 0.1091
v 0.26658 -0.12746 0.12821
v -0.26657 -0.12746 0.12821
v -0.26657 0.1667 0.12831
v 0.26658 0.1667 0.12831
v -0.25657 -0.11745 0.10323
v -0.25657 -0.11737 -0.12954
v -0.25657 0.15679 -0.12945
v -0.25657 0.15671 0.10333
v 0.26658 0.17258 0.10921
v 0.26658 0.17258 0.12244
v -0.26657 0.17258 0.12244
v -0.26657 0.17258 0.10921
v -0.27245 0.16671 0.1092
v -0.27245 0.16671 0.12243
v -0.27245 -0.12746 0.12233
v -0.27245 -0.12745 0.1091
v 0.27246 -0.12745 0.1091
v 0.27246 -0.12746 0.12233
v 0.27246 0.16671 0.12243
v 0.27246 0.16671 0.1092
v -0.26657 0.16671 0.10333
v -0.27245 0.16671 0.1092
v -0.27245 -0.12745 0.1091
v -0.26657 -0.12745 0.10323
v -0.26657 -0.12745 0.10323
v -0.26657 -0.13333 0.1091
v 0.26658 -0.13333 0.1091
v 0.26658 -0.12745 0.10323
v 0.26658 0.16671 0.10333
v 0.26658 0.17258 0.10921
v -0.26657 0.17258 0.10921
v -0.26657 0.16671 0.10333
v 0.27246 0.16671 0.1092
v 0.26658 0.16671 0.10333
v 0.26658 -0.12745 0.10323
v 0.27246 -0.12745 0.1091
v -0.27245 0.16671 0.12243
v -0.26657 0.1667 0.12831
v -0.26657 -0.12746 0.12821
v -0.27245 -0.12746 0.12233
v -0.26657 -0.13333 0.12233
v -0.26657 -0.12746 0.12821
v 0.26658 -0.12746 0.12821
v 0.26658 -0.13333 0.12233
v 0.26658 0.17258 0.12244
v 0.26658 0.1667 0.12831
v -0.26657 0.1667 0.12831
v -0.26657 0.17258 0.12244
v 0.26658 0.1667 0.12831
v 0.27246 0.16671 0.12243
v 0.27246 -0.12746 0.12233
v 0.26658 -0.12746 0.12821
v 0.26658 0.17258 0.10921
v 0.27246 0.16671 0.1092
v 0.27246 0.16671 0.12243
v 0.26658 0.17258 0.12244
v 0.26658 -0.13333 0.12233
v 0.27246 -0.12746 0.12233
v 0.27246 -0.12745 0.1091
v 0.26658 -0.13333 0.1091
v -0.26657 -0.13333 0.1091
v -0.27245 -0.12745 0.1091
v -0.27245 -0.12746 0.12233
v -0.26657 -0.13333 0.12233
v -0.26657 0.17258 0.12244
v -0.27245 0.16671 0.12243
v -0.27245 0.16671 0.1092
v -0.26657 0.17258 0.10921
v -0.25657 0.15671 0.10333
v -0.26657 0.16671 0.10333
v -0.26657 -0.12745 0.10323
v -0.25657 -0.11745 0.10323
v 0.26658 -0.12745 0.10323
v 0.25658 -0.11745 0.10323
v 0.25658 0.15671 0.10333
v -0.26657 0.16671 0.10333
v -0.25657 0.15671 0.10333
v 0.26658 0.16671 0.10333
v 0.25658 -0.11745 0.10323
v 0.26658 -0.12745 0.10323
v 0.25658 -0.11737 -0.12954
v 0.25658 0.15679 -0.12945
v -0.25657 0.15679 -0.12945
v -0.25657 -0.11737 -0.12954
v 0.25658 -0.11745 0.10323
v 0.25658 -0.11737 -0.12954
v -0.25657 -0.11737 -0.12954
v -0.25657 -0.11745 0.10323
v 0.25658 0.15671 0.10333
v 0.25658 0.15679 -0.12945
v 0.25658 -0.11737 -0.12954
v 0.25658 -0.11745 0.10323
v 0.23883 0.15672 0.08558
v -0.25657 0.15671 0.10333
v -0.23882 0.15672 0.08558
v 0.25658 0.15671 0.10333
v 0.23883 0.15679 -0.1117
v 0.25658 0.15679 -0.12945
v -0.23882 0.15679 -0.1117
v 0.25658 0.15679 -0.12945
v 0.23883 0.15679 -0.1117
v -0.25657 0.15679 -0.12945
v -0.23882 0.15672 0.08558
v -0.25657 0.15671 0.10333
v -0.23882 -0.10001 0.08549
v -0.23882 -0.09994 -0.11179
v 0.23883 -0.09994 -0.11179
v 0.23883 -0.10001 0.08549
v -0.23882 0.15679 -0.1117
v -0.23882 -0.09994 -0.11179
v -0.23882 -0.10001 0.08549
v -0.23882 0.15672 0.08558
v 0.23883 0.15672 0.08558
v 0.23883 -0.10001 0.08549
v 0.23883 -0.09994 -0.11179
v 0.23883 0.15679 -0.1117
v 0.23883 0.15679 -0.1117
v 0.23883 -0.09994 -0.11179
v -0.23882 -0.09994 -0.11179
v -0.23882 0.15679 -0.1117
v -0.23882 0.15672 0.08558
v -0.23882 -0.10001 0.08549
v 0.23883 -0.10001 0.08549
v 0.23883 0.15672 0.08558
v 0.27246 -0.12745 0.1091
v 0.26658 -0.12745 0.10323
v 0.26658 -0.13333 0.1091
v 0.27246 0.16671 0.1092
v 0.26658 0.17258 0.10921
v 0.26658 0.16671 0.10333
v -0.26657 -0.13333 0.1091
v -0.26657 -0.12745 0.10323
v -0.27245 -0.12745 0.1091
v -0.26657 0.17258 0.10921
v -0.27245 0.16671 0.1092
v -0.26657 0.16671 0.10333
v 0.27246 0.16671 0.12243
v 0.26658 0.1667 0.12831
v 0.26658 0.17258 0.12244
v 0.27246 -0.12746 0.12233
v 0.26658 -0.13333 0.12233
v 0.26658 -0.12746 0.12821
v -0.26657 -0.13333 0.12233
v -0.27245 -0.12746 0.12233
v -0.26657 -0.12746 0.12821
v -0.26657 0.17258 0.12244
v -0.26657 0.1667 0.12831
v -0.27245 0.16671 0.12243
v -0.26657 -0.13333 0.1091
v -0.26657 -0.13333 0.12233
v 0.26658 -0.13333 0.12233
v 0.26658 -0.13333 0.1091
v 0.26658 -0.12746 0.12821
v -0.26657 -0.12746 0.12821
v -0.26657 0.1667 0.12831
v 0.26658 0.1667 0.12831
v 0.27246 -0.12745 0.1091
v 0.27246 -0.12746 0.12233
v 0.27246 0.16671 0.12243
v 0.27246 0.16671 0.1092
v 0.26658 0.17258 0.10921
v 0.26658 0.17258 0.12244
v -0.26657 0.17258 0.12244
v -0.26657 0.17258 0.10921
v -0.27245 0.16671 0.1092
v -0.27245 0.16671 0.12243
v -0.27245 -0.12746 0.12233
v -0.27245 -0.12745 0.1091
v -0.25657 -0.11745 0.10323
v -0.25657 -0.11737 -0.12954
v -0.25657 0.15679 -0.12945
v -0.25657 0.15671 0.10333
v 0.27246 0.16671 0.1092
v 0.26658 0.16671 0.10333
v 0.26658 -0.12745 0.10323
v 0.27246 -0.12745 0.1091
v -0.26657 -0.12745 0.10323
v -0.26657 -0.13333 0.1091
v 0.26658 -0.13333 0.1091
v 0.26658 -0.12745 0.10323
v 0.26658 0.16671 0.10333
v 0.26658 0.17258 0.10921
v -0.26657 0.17258 0.10921
v -0.26657 0.16671 0.10333
v -0.26657 0.16671 0.10333
v -0.27245 0.16671 0.1092
v -0.27245 -0.12745 0.1091
v -0.26657 -0.12745 0.10323
v 0.26658 0.1667 0.12831
v 0.27246 0.16671 0.12243
v 0.27246 -0.12746 0.12233
v 0.26658 -0.12746 0.12821
v -0.26657 -0.13333 0.12233
v -0.26657 -0.12746 0.12821
v 0.26658 -0.12746 0.12821
v 0.26658 -0.13333 0.12233
v 0.26658 0.17258 0.12244
v 0.26658 0.1667 0.12831
v -0.26657 0.1667 0.12831
v -0.26657 0.17258 0.12244
v -0.27245 0.16671 0.12243
v -0.26657 0.1667 0.12831
v -0.26657 -0.12746 0.12821
v -0.27245 -0.12746 0.12233
v 0.26658 0.17258 0.10921
v 0.27246 0.16671 0.1092
v 0.27246 0.16671 0.12243
v 0.26658 0.17258 0.12244
v 0.26658 -0.13333 0.12233
v 0.27246 -0.12746 0.12233
v 0.27246 -0.12745 0.1091
v 0.26658 -0.13333 0.1091
v -0.27245 -0.12746 0.12233
v -0.26657 -0.13333 0.12233
v -0.26657 -0.13333 0.1091
v -0.27245 -0.12745 0.1091
v -0.27245 0.16671 0.1092
v -0.26657 0.17258 0.10921
v -0.26657 0.17258 0.12244
v -0.27245 0.16671 0.12243
v 0.25658 -0.11737 -0.12954
v 0.25658 0.15679 -0.12945
v -0.25657 0.15679 -0.12945
v -0.25657 -0.11737 -0.12954
v -0.23882 0.15679 -0.1117
v -0.23882 -0.09994 -0.11179
v -0.23882 -0.10001 0.08549
v -0.23882 0.15672 0.08558
v 0.25658 0.15671 0.10333
v 0.25658 0.15679 -0.12945
v 0.25658 -0.11737 -0.12954
v 0.25658 -0.11745 0.10323
v -0.23882 0.15672 0.08558
v -0.23882 -0.10001 0.08549
v 0.23883 -0.10001 0.08549
v 0.23883 0.15672 0.08558
v 0.25658 -0.11745 0.10323
v 0.25658 -0.11737 -0.12954
v -0.25657 -0.11737 -0.12954
v -0.25657 -0.11745 0.10323
v -0.23882 -0.10001 0.08549
v -0.23882 -0.09994 -0.11179
v 0.23883 -0.09994 -0.11179
v 0.23883 -0.10001 0.08549
v 0.23883 0.15679 -0.1117
v 0.23883 -0.09994 -0.11179
v -0.23882 -0.09994 -0.11179
v -0.23882 0.15679 -0.1117
v 0.23883 0.15672 0.08558
v 0.23883 -0.10001 0.08549
v 0.23883 -0.09994 -0.11179
v 0.23883 0.15679 -0.1117
v 0.25658 -0.11745 0.10323
v 0.26658 -0.12745 0.10323
v 0.26658 0.16671 0.10333
v 0.25658 0.15671 0.10333
v -0.25657 -0.11745 0.10323
v -0.26657 0.16671 0.10333
v -0.26657 -0.12745 0.10323
v -0.25657 0.15671 0.10333
v -0.23882 0.15679 -0.1117
v 0.25658 0.15679 -0.12945
v 0.23883 0.15679 -0.1117
v -0.25657 0.15679 -0.12945
v 0.25658 0.15671 0.10333
v -0.23882 0.15672 0.08558
v 0.23883 0.15672 0.08558
v -0.25657 0.15671 0.10333
v 0.26658 0.17258 0.10921
v 0.26658 0.16671 0.10333
v 0.27246 -0.12745 0.1091
v 0.26658 -0.12745 0.10323
v 0.26658 -0.13333 0.1091
v -0.26657 0.17258 0.10921
v -0.26657 0.16671 0.10333
v -0.26657 -0.13333 0.1091
v -0.26657 -0.12745 0.10323
v -0.27245 -0.12745 0.1091
v 0.27246 0.16671 0.12243
v 0.26658 0.1667 0.12831
v 0.26658 0.17258 0.12244
v 0.27246 -0.12746 0.12233
v 0.26658 -0.13333 0.12233
v 0.26658 -0.12746 0.12821
v -0.26657 0.17258 0.12244
v -0.26657 0.1667 0.12831
v -0.27245 0.16671 0.12243
v -0.26657 -0.13333 0.12233
v -0.27245 -0.12746 0.12233
v -0.26657 -0.12746 0.12821
v 0.26658 0.17258 0.10921
v 0.26658 0.17258 0.12244
v -0.26657 0.17258 0.12244
v -0.26657 0.17258 0.10921
v 0.26658 -0.12746 0.12821
v -0.26657 -0.12746 0.12821
v -0.26657 0.1667 0.12831
v 0.26658 0.1667 0.12831
v -0.26657 -0.13333 0.1091
v -0.26657 -0.13333 0.12233
v 0.26658 -0.13333 0.12233
v 0.26658 -0.13333 0.1091
v 0.27246 -0.12745 0.1091
v 0.27246 -0.12746 0.12233
v 0.27246 0.16671 0.12243
v -0.27245 0.16671 0.12243
v -0.27245 -0.12746 0.12233
v -0.27245 -0.12745 0.1091
v 0.26658 0.16671 0.10333
v 0.26658 -0.12745 0.10323
v 0.27246 -0.12745 0.1091
v 0.26658 0.16671 0.10333
v 0.26658 0.17258 0.10921
v -0.26657 0.17258 0.10921
v -0.26657 0.16671 0.10333
v 0.26658 -0.13333 0.1091
v 0.26658 -0.12745 0.10323
v -0.26657 -0.12745 0.10323
v -0.26657 -0.13333 0.1091
v -0.26657 0.16671 0.10333
v -0.27245 -0.12745 0.1091
v -0.26657 -0.12745 0.10323
v 0.26658 0.1667 0.12831
v 0.27246 0.16671 0.12243
v 0.27246 -0.12746 0.12233
v 0.26658 -0.12746 0.12821
v 0.26658 0.17258 0.12244
v 0.26658 0.1667 0.12831
v -0.26657 0.1667 0.12831
v -0.26657 0.17258 0.12244
v 0.26658 -0.12746 0.12821
v 0.26658 -0.13333 0.12233
v -0.26657 -0.13333 0.12233
v -0.26657 -0.12746 0.12821
v -0.27245 0.16671 0.12243
v -0.26657 0.1667 0.12831
v -0.26657 -0.12746 0.12821
v -0.27245 -0.12746 0.12233
v 0.26658 0.17258 0.10921
v 0.27246 0.16671 0.12243
v 0.26658 0.17258 0.12244
v 0.26658 -0.13333 0.12233
v 0.27246 -0.12746 0.12233
v 0.27246 -0.12745 0.1091
v 0.26658 -0.13333 0.1091
v -0.26657 0.17258 0.10921
v -0.26657 0.17258 0.12244
v -0.27245 0.16671 0.12243
v -0.27245 -0.12746 0.12233
v -0.26657 -0.13333 0.12233
v -0.26657 -0.13333 0.1091
v -0.27245 -0.12745 0.1091
v -0.25657 -0.11745 0.10323
v -0.25657 -0.11737 -0.12954
v -0.25657 0.15679 -0.12945
v -0.25657 0.15671 0.10333
v 0.25658 -0.11737 -0.12954
v 0.25658 0.15679 -0.12945
v -0.25657 0.15679 -0.12945
v -0.25657 -0.11737 -0.12954
v 0.25658 0.15671 0.10333
v 0.25658 0.15679 -0.12945
v 0.25658 -0.11737 -0.12954
v 0.25658 -0.11745 0.10323
v 0.25658 -0.11745 0.10323
v 0.25658 -0.11737 -0.12954
v -0.25657 -0.11737 -0.12954
v -0.25657 -0.11745 0.10323
v -0.23882 -0.10001 0.08549
v -0.23882 -0.09994 -0.11179
v 0.23883 -0.09994 -0.11179
v 0.23883 -0.10001 0.08549
v 0.23883 0.15679 -0.1117
v 0.23883 -0.09994 -0.11179
v -0.23882 -0.09994 -0.11179
v -0.23882 0.15679 -0.1117
v 0.23883 0.15672 0.08558
v 0.23883 -0.10001 0.08549
v 0.23883 -0.09994 -0.11179
v 0.23883 0.15679 -0.1117
v -0.23882 0.15679 -0.1117
v -0.23882 -0.09994 -0.11179
v -0.23882 -0.10001 0.08549
v -0.23882 0.15672 0.08558
v -0.23882 0.15672 0.08558
v -0.23882 -0.10001 0.08549
v 0.23883 -0.10001 0.08549
v 0.23883 0.15672 0.08558
v 0.25658 -0.11745 0.10323
v 0.26658 -0.12745 0.10323
v 0.26658 0.16671 0.10333
v 0.25658 0.15671 0.10333
v -0.25657 -0.11745 0.10323
v -0.26657 0.16671 0.10333
v -0.26657 -0.12745 0.10323
v -0.25657 0.15671 0.10333
v 0.23883 0.15672 0.08558
v 0.25658 0.15671 0.10333
v -0.25657 0.15671 0.10333
v -0.23882 0.15672 0.08558
v 0.23883 0.15679 -0.1117
v -0.25657 0.15679 -0.12945
v 0.25658 0.15679 -0.12945
v -0.23882 0.15679 -0.1117
vt 0.8301375 0.2640352
vt 0.8272002 0.2640352
vt 0.8301375 0.2669725
vt 0.2640352 0.821299
vt 0.2669725 0.8183616
vt 0.2640352 0.8183616
vt 0.8272002 0.2640352
vt 0.8301375 0.2640352
vt 0.8301375 0.2669725
vt 0.09671378 0.2640352
vt 0.0996511 0.2640352
vt 0.09671378 0.2669725
vt 0.257421 0.821299
vt 0.257421 0.8183616
vt 0.2544837 0.8183616
vt 0.8301375 0.257421
vt 0.8301375 0.2544837
vt 0.8272002 0.257421
vt 0.8272002 0.257421
vt 0.8301375 0.2544837
vt 0.8301375 0.257421
vt 0.09671378 0.257421
vt 0.09671378 0.2544837
vt 0.0996511 0.257421
vt 0.2640352 0.8183616
vt 0.257421 0.8183616
vt 0.257421 0.6712801
vt 0.2640352 0.6712801
vt 0.2640352 0.6712801
vt 0.257421 0.6712801
vt 0.257421 0.8183616
vt 0.2640352 0.8183616
vt 0.09671378 0.6712801
vt -0.1698625 0.6712801
vt -0.1698625 0.8183616
vt 0.09671378 0.8183616
vt 0.09671378 0.2640352
vt 0.09671378 0.257421
vt -0.1698625 0.257421
vt -0.1698625 0.2640352
vt 0.08283973 0.8133616
vt 0.08283973 0.6849966
vt -0.1559885 0.6849966
vt -0.1559885 0.8133616
vt 0.8301375 0.2640352
vt 0.8301375 0.257421
vt 1.096714 0.257421
vt 1.096714 0.2640352
vt 0.09671378 0.2669725
vt 0.09671378 0.2640352
vt -0.1698625 0.2640352
vt -0.1698625 0.2669725
vt 0.8301375 0.8183616
vt 0.8272002 0.8183616
vt 0.8272002 0.6712801
vt 0.8301375 0.6712801
vt 0.09671378 0.2640352
vt 0.09671378 0.2669725
vt -0.1698625 0.2669725
vt -0.1698625 0.2640352
vt 0.2640352 0.8183616
vt 0.2669725 0.8183616
vt 0.2669725 0.6712801
vt 0.2640352 0.6712801
vt 0.09671378 0.257421
vt 0.09671378 0.2544837
vt -0.1698625 0.2544837
vt -0.1698625 0.257421
vt 0.8272002 0.8183616
vt 0.8301375 0.8183616
vt 0.8301375 0.6712801
vt 0.8272002 0.6712801
vt 0.09671378 0.2544837
vt 0.09671378 0.257421
vt -0.1698625 0.257421
vt -0.1698625 0.2544837
vt 0.2544837 0.8183616
vt 0.257421 0.8183616
vt 0.257421 0.6712801
vt 0.2544837 0.6712801
vt 0.8272002 0.2640352
vt 0.8301375 0.2640352
vt 0.8301375 0.257421
vt 0.8272002 0.257421
vt 0.257421 0.8183616
vt 0.257421 0.821299
vt 0.2640352 0.821299
vt 0.2640352 0.8183616
vt 0.8301375 0.2640352
vt 0.8272002 0.2640352
vt 0.8272002 0.257421
vt 0.8301375 0.257421
vt 0.0996511 0.2640352
vt 0.09671378 0.2640352
vt 0.09671378 0.257421
vt 0.0996511 0.257421
vt 0.09171391 0.8133616
vt -0.1698625 0.8183616
vt -0.1648625 0.8133616
vt 0.09671378 0.8183616
vt 0.09171391 0.6762801
vt 0.09671378 0.6712801
vt 0.8351375 0.8133616
vt 0.8301375 0.8183616
vt 0.8301375 0.6712801
vt 0.8351375 0.6762801
vt 1.096714 0.6712801
vt 1.091714 0.6762801
vt 0.09171391 0.6762801
vt 0.09171391 0.8133616
vt -0.1648625 0.8133616
vt -0.1648625 0.6762801
vt 0.2669725 0.6762801
vt 0.3833599 0.6762801
vt 0.3833599 0.8133616
vt 0.2669725 0.8133616
vt 0.09171391 0.2669725
vt 0.09171391 0.3833599
vt -0.1648625 0.3833599
vt -0.1648625 0.2669725
vt 0.2669725 0.8133616
vt 0.3833599 0.8133616
vt 0.3833599 0.6762801
vt 0.2669725 0.6762801
vt 0.374486 0.8133616
vt 0.374486 0.6849966
vt 0.2758465 0.6849966
vt 0.2758465 0.8133616
vt 0.08283973 0.2758465
vt -0.1648625 0.2669725
vt -0.1559885 0.2758465
vt 0.09171391 0.2669725
vt 0.08283973 0.374486
vt 0.09171391 0.3833599
vt 0.8440115 0.374486
vt 1.091714 0.3833599
vt 1.08284 0.374486
vt 0.8351375 0.3833599
vt 0.8440115 0.2758465
vt 0.8351375 0.2669725
vt 0.8440115 0.2758465
vt 0.8440115 0.374486
vt 1.08284 0.374486
vt 1.08284 0.2758465
vt 0.8440115 0.8133616
vt 0.8440115 0.6849966
vt 1.08284 0.6849966
vt 1.08284 0.8133616
vt 0.2758465 0.8133616
vt 0.2758465 0.6849966
vt 0.374486 0.6849966
vt 0.374486 0.8133616
vt 0.8272002 0.2640352
vt 0.8301375 0.2640352
vt 0.8301375 0.2669725
vt 0.8272002 0.2640352
vt 0.8301375 0.2669725
vt 0.8301375 0.2640352
vt 0.09671378 0.2640352
vt 0.09671378 0.2669725
vt 0.0996511 0.2640352
vt 0.8272002 0.257421
vt 0.8301375 0.257421
vt 0.8301375 0.2544837
vt 0.8272002 0.257421
vt 0.8301375 0.2544837
vt 0.8301375 0.257421
vt 0.09671378 0.257421
vt 0.0996511 0.257421
vt 0.09671378 0.2544837
vt 0.8301375 0.2640352
vt 0.8301375 0.257421
vt 1.096714 0.257421
vt 1.096714 0.2640352
vt 0.09671378 0.2640352
vt 0.09671378 0.257421
vt -0.1698625 0.257421
vt -0.1698625 0.2640352
vt 0.8301375 0.2669725
vt 0.8301375 0.2640352
vt 1.096714 0.2640352
vt 0.09671378 0.2669725
vt 0.09671378 0.2640352
vt -0.1698625 0.2640352
vt -0.1698625 0.2669725
vt 0.8301375 0.257421
vt 0.8301375 0.2544837
vt 1.096714 0.257421
vt 0.09671378 0.257421
vt 0.09671378 0.2544837
vt -0.1698625 0.2544837
vt -0.1698625 0.257421
vt 0.09671378 0.2640352
vt 0.0996511 0.2640352
vt 0.0996511 0.257421
vt 0.09671378 0.257421
vt 0.8301375 0.2640352
vt 0.8272002 0.2640352
vt 0.8272002 0.257421
vt 0.8301375 0.257421
vt 0.8301375 0.257421
vt 0.8272002 0.257421
vt 0.8272002 0.2640352
vt 0.8301375 0.2640352
vt 0.09171391 0.2669725
vt 0.09171391 0.3833599
vt -0.1648625 0.3833599
vt -0.1648625 0.2669725
vt 0.08283973 0.2758465
vt -0.1648625 0.2669725
vt -0.1559885 0.2758465
vt 0.09171391 0.2669725
vt 0.08283973 0.374486
vt 0.09171391 0.3833599
vt 0.8440115 0.374486
vt 1.091714 0.3833599
vt 1.08284 0.374486
vt 0.8351375 0.3833599
vt 0.8440115 0.2758465
vt 0.8351375 0.2669725
vt 0.8440115 0.2758465
vt 0.8440115 0.374486
vt 1.08284 0.374486
vt 1.08284 0.2758465
vt 0.2640352 0.821299
vt 0.2640352 0.8183616
vt 0.2669725 0.8183616
vt 0.257421 0.821299
vt 0.2544837 0.8183616
vt 0.257421 0.8183616
vt 0.2640352 0.6712801
vt 0.257421 0.6712801
vt 0.257421 0.8183616
vt 0.2640352 0.8183616
vt 0.2640352 0.8183616
vt 0.257421 0.8183616
vt 0.257421 0.6712801
vt 0.2640352 0.6712801
vt 0.2669725 0.8183616
vt 0.2640352 0.8183616
vt 0.2640352 0.6712801
vt 0.2669725 0.6712801
vt 0.257421 0.8183616
vt 0.2544837 0.8183616
vt 0.2544837 0.6712801
vt 0.257421 0.6712801
vt 0.2640352 0.8183616
vt 0.2640352 0.821299
vt 0.257421 0.821299
vt 0.257421 0.8183616
vt 0.2669725 0.6762801
vt 0.3833599 0.6762801
vt 0.3833599 0.8133616
vt 0.2669725 0.8133616
vt 0.2669725 0.8133616
vt 0.3833599 0.8133616
vt 0.3833599 0.6762801
vt 0.2669725 0.6762801
vt 0.2758465 0.8133616
vt 0.2758465 0.6849966
vt 0.374486 0.6849966
vt 0.374486 0.8133616
vt 0.374486 0.8133616
vt 0.374486 0.6849966
vt 0.2758465 0.6849966
vt 0.2758465 0.8133616
vn 1 0 0
vn 1 0 0
vn 1 0 0
vn 1 0 0
vn -1 0 0
vn -1 0 0
vn -1 0 0
vn -1 0 0
vn 0 -1 -0.0003455752
vn 0 -1 -0.0003455752
vn 0 -1 -0.0003455752
vn 0 -1 -0.0003455752
vn 1 0 0
vn 1 0 0
vn 1 0 0
vn 1 0 0
vn 0 -0.0003455752 1
vn 0 -0.0003455752 1
vn 0 -0.0003455752 1
vn 0 -0.0003455752 1
vn -1 0 0
vn -1 0 0
vn -1 0 0
vn -1 0 0
vn 0 -1 -0.0003455752
vn 0 -1 -0.0003455752
vn 0 -1 -0.0003455752
vn 0 -1 -0.0003455752
vn 0 1 0.0003455752
vn 0 1 0.0003455752
vn 0 1 0.0003455752
vn 0 1 0.0003455752
vn 0 0.0003455752 -1
vn 0 0.0003455752 -1
vn 0 0.0003455752 -1
vn 0 0.0003455752 -1
vn 0 -1 -0.0003455752
vn 0 -1 -0.0003455752
vn 0 -1 -0.0003455752
vn 0 -1 -0.0003455752
vn 1 0 0
vn 1 0 0
vn 1 0 0
vn 1 0 0
vn -1 0 0
vn -1 0 0
vn -1 0 0
vn -1 0 0
vn 0 -0.0003455752 1
vn 0 -0.0003455752 1
vn 0 -0.0003455752 1
vn 0 -0.0003455752 1
vn 1 0 0
vn 1 0 0
vn 1 0 0
vn 1 0 0
vn 0 1 0.0003455752
vn 0 1 0.0003455752
vn 0 1 0.0003455752
vn 0 1 0.0003455752
vn -1 0 0
vn -1 0 0
vn -1 0 0
vn -1 0 0
vn 0 0.0003455752 -1
vn 0 0.0003455752 -1
vn 0 0.0003455752 -1
vn 0 0.0003455752 -1
vn 0 -1 -0.0003455752
vn 0 -1 -0.0003455752
vn 0 -1 -0.0003455752
vn 0 -1 -0.0003455752
vn 1 0 0
vn 1 0 0
vn 1 0 0
vn 1 0 0
vn 0 0.0003455752 -1
vn 0 0.0003455752 -1
vn 0 0.0003455752 -1
vn 0 0.0003455752 -1
vn -1 0 0
vn -1 0 0
vn -1 0 0
vn -1 0 0
vn 0 -0.0003455752 1
vn 0 -0.0003455752 1
vn 0 -0.0003455752 1
vn 0 -0.0003455752 1
vn -1 0 0
vn -1 0 0
vn -1 0 0
vn -1 0 0
vn 0 0.0003455752 -1
vn 0 0.0003455752 -1
vn 0 0.0003455752 -1
vn 0 0.0003455752 -1
vn 1 0 0
vn 1 0 0
vn 1 0 0
vn 1 0 0
vn 0 -0.0003455752 1
vn 0 -0.0003455752 1
vn 0 -0.0003455752 1
vn 0 -0.0003455752 1
vn 0 -0.0003455752 1
vn 0 -0.0003455752 1
vn 0 -0.0003455752 1
vn 0 -0.0003455752 1
vn 1 0 0
vn 1 0 0
vn 1 0 0
vn 1 0 0
vn 0 0.0003455752 -1
vn 0 0.0003455752 -1
vn 0 0.0003455752 -1
vn 0 0.0003455752 -1
vn -1 0 0
vn -1 0 0
vn -1 0 0
vn -1 0 0
vn 0 -1 -0.0003455752
vn 0 -1 -0.0003455752
vn 0 -1 -0.0003455752
vn 0 -1 -0.0003455752
vn 0 1 0.0003455752
vn 0 1 0.0003455752
vn 0 1 0.0003455752
vn 0 1 0.0003455752
vn 0 0.0003455752 -1
vn 0 0.0003455752 -1
vn 0 0.0003455752 -1
vn 0 0.0003455752 -1
vn 1 0 0
vn 1 0 0
vn 1 0 0
vn 1 0 0
vn 1 0 0
vn 0.5773503 -0.5775498 0.5771507
vn -1 0 0
vn -1 0 0
vn -1 0 0
vn -1 0 0
vn -1 0 0
vn 0 -1 -0.0003455752
vn 0 -1 -0.0003455752
vn 0 -1 -0.0003455752
vn 0 -1 -0.0003455752
vn 0 -1 -0.0003455752
vn 0 1 0.0003455752
vn 0 1 0.0003455752
vn 0 1 0.0003455752
vn 0 1 0.0003455752
vn 0 1 0.0003455752
vn 0.5773503 -0.5775498 0.5771507
vn 0.5773503 0.5771507 0.5775498
vn -0.5773503 0.5771507 0.5775498
vn 0 -0.0003455752 1
vn 0 -0.0003455752 1
vn 0 -0.0003455752 1
vn 0 -0.0003455752 1
vn 0 -0.0003455752 1
vn 0 -0.0003455752 1
vn 0 -0.0003455752 1
vn 0 -0.0003455752 1
vn 0 -0.0003455752 1
vn 0 -0.0003455752 1
vn 0 -0.0003455752 1
vn 0 -0.0003455752 1
vn 0 -0.0003455752 1
vn 0 -0.0003455752 1
vn 0 -0.0003455752 1
vn 0 -0.0003455752 1
vn 0 -0.0003455752 1
vn 0 -0.0003455752 1
vn -0.5773503 0.5771507 0.5775498
vn 0 -0.0003455752 1
vn -0.5773503 0.5771507 0.5775498
vn 0 -0.0003455752 1
vn 0.5773503 -0.5775498 0.5771507
vn 0 -0.0003455752 1
vn 0.5773503 0.5771507 0.5775498
vn 0.5773503 -0.5775498 0.5771507
vn 0.5773503 0.5771507 0.5775498
vn 0.5773503 -0.5775498 0.5771507
vn 0 -0.0003455752 1
vn 0.5773503 0.5771507 0.5775498
vn -0.5773503 0.5771507 0.5775498
vn 0.5773503 -0.5775498 0.5771507
vn 0.5773503 -0.5775498 0.5771507
vn 0.5773503 -0.5775498 0.5771507
vn 0.5773503 -0.5775498 0.5771507
vn 0.5773503 0.5771507 0.5775498
vn -0.5773503 0.5771507 0.5775498
vn -0.5773503 0.5771507 0.5775498
vn 0.5773503 0.5771507 0.5775498
vn 1 0 0
vn 1 0 0
vn 1 0 0
vn 1 0 0
vn -1 0 0
vn -1 0 0
vn -1 0 0
vn -1 0 0
vn -0.5773503 0.5775498 -0.5771507
vn -0.5773503 0.5775498 -0.5771507
vn -0.5773503 0.5775498 -0.5771507
vn 0.5773503 0.5775498 -0.5771507
vn 0.5773503 0.5775498 -0.5771507
vn 0.5773503 0.5775498 -0.5771507
vn -0.5773516 -0.577152 -0.5775471
vn -0.5773516 -0.577152 -0.5775471
vn -0.5773516 -0.577152 -0.5775471
vn 0.5773503 -0.5771507 -0.5775498
vn 0.5773503 -0.5771507 -0.5775498
vn 0.5773503 -0.5771507 -0.5775498
vn 0.5773503 0.5771507 0.5775498
vn 0.5773503 0.5771507 0.5775498
vn 0.5773503 0.5771507 0.5775498
vn -0.5773503 0.5771507 0.5775498
vn -0.5773503 0.5771507 0.5775498
vn -0.5773503 0.5771507 0.5775498
vn -0.5773516 -0.5775511 0.5771481
vn -0.5773516 -0.5775511 0.5771481
vn -0.5773516 -0.5775511 0.5771481
vn 0.5773503 -0.5775498 0.5771507
vn 0.5773503 -0.5775498 0.5771507
vn 0.5773503 -0.5775498 0.5771507
vn -1 0 0
vn -1 0 0
vn -1 0 0
vn -1 0 0
vn 1 0 0
vn 1 0 0
vn 1 0 0
vn 1 0 0
vn 0 -0.0003455752 1
vn 0 -0.0003455752 1
vn 0 -0.0003455752 1
vn 0 -0.0003455752 1
vn 0 1 0.0003455752
vn 0 1 0.0003455752
vn 0 1 0.0003455752
vn 0 1 0.0003455752
vn 0 -0.0003456967 1
vn 0 -0.0003456967 1
vn 0 -0.0003456967 1
vn 0 -0.0003456967 1
vn 0 -1 -0.0003455752
vn 0 -1 -0.0003455752
vn 0 -1 -0.0003455752
vn 0 -1 -0.0003455752
vn 0 0.7073509 -0.7068626
vn 0 0.7073509 -0.7068626
vn 0 0.7073509 -0.7068626
vn 0 0.7073509 -0.7068626
vn -0.7071061 0.0002443588 -0.7071074
vn -0.7071061 0.0002443588 -0.7071074
vn -0.7071061 0.0002443588 -0.7071074
vn -0.7071061 0.0002443588 -0.7071074
vn 0 -0.706863 -0.7073504
vn 0 -0.706863 -0.7073504
vn 0 -0.706863 -0.7073504
vn 0 -0.706863 -0.7073504
vn 0.7071061 0.0002443588 -0.7071074
vn 0.7071061 0.0002443588 -0.7071074
vn 0.7071061 0.0002443588 -0.7071074
vn 0.7071061 0.0002443588 -0.7071074
vn 0 0.7068623 0.7073513
vn 0 0.7068623 0.7073513
vn 0 0.7068623 0.7073513
vn 0 0.7068623 0.7073513
vn -0.7071061 -0.0002443588 0.7071074
vn -0.7071061 -0.0002443588 0.7071074
vn -0.7071061 -0.0002443588 0.7071074
vn -0.7071061 -0.0002443588 0.7071074
vn 0 -0.7073518 0.7068617
vn 0 -0.7073518 0.7068617
vn 0 -0.7073518 0.7068617
vn 0 -0.7073518 0.7068617
vn 0.7071061 -0.0002443588 0.7071074
vn 0.7071061 -0.0002443588 0.7071074
vn 0.7071061 -0.0002443588 0.7071074
vn 0.7071061 -0.0002443588 0.7071074
vn -0.7071071 0.7071064 0.0002443585
vn -0.7071071 0.7071064 0.0002443585
vn -0.7071071 0.7071064 0.0002443585
vn -0.7071071 0.7071064 0.0002443585
vn 0.7071071 0.7071064 0.0002443585
vn 0.7071071 0.7071064 0.0002443585
vn 0.7071071 0.7071064 0.0002443585
vn 0.7071071 0.7071064 0.0002443585
vn -0.707106 -0.7071074 -0.0002443588
vn -0.707106 -0.7071074 -0.0002443588
vn -0.707106 -0.7071074 -0.0002443588
vn -0.707106 -0.7071074 -0.0002443588
vn 0.707106 -0.7071074 -0.0002443588
vn 0.707106 -0.7071074 -0.0002443588
vn 0.707106 -0.7071074 -0.0002443588
vn 0.707106 -0.7071074 -0.0002443588
vn 0 0.000344151 -1
vn 0 0.000344151 -1
vn 0 0.000344151 -1
vn 0 0.000344151 -1
vn 0 0.0003455752 -1
vn 0 0.0003455752 -1
vn 0 0.000344151 -1
vn 0 0.000344151 -1
vn 0 0.0003455752 -1
vn 0 0.0003455752 -1
vn 0 0.0003455752 -1
vn 0 0.0003455752 -1
vn 0 0.0003455752 -1
vn 0 0.0003455752 -1
vn 0 0.0003455752 -1
vn 0 0.0003455752 -1
vn -1 0 0
vn -1 0 0
vn -1 0 0
vn -1 0 0
vn 0 -1 -0.0003455752
vn 0 -1 -0.0003455752
vn 0 -1 -0.0003455752
vn 0 -1 -0.0003455752
vn 1 0 0
vn 1 0 0
vn 1 0 0
vn 1 0 0
vn 1 0 0
vn 1 0 0
vn 1 0 0
vn 1 0 0
vn 0 1 0.0003455752
vn 0 1 0.0003455752
vn 0 1 0.0003455752
vn 0 1 0.0003455752
vn -9.761404E-07 1 0.0003455752
vn -9.761404E-07 1 0.0003455752
vn 0 1 0.0003455752
vn -9.761404E-07 1 0.0003455752
vn -9.761404E-07 1 0.0003455752
vn 0 1 0.0003455752
vn 0 1 0.0003455752
vn 0 1 0.0003455752
vn 0 1 0.0003455752
vn 0 1 0.0003455752
vn 0 1 0.0003455752
vn 0 1 0.0003455752
vn 0 0.0003455752 -1
vn 0 0.0003455752 -1
vn 0 0.0003455752 -1
vn 0 0.0003455752 -1
vn -1 0 0
vn -1 0 0
vn -1 0 0
vn -1 0 0
vn -1 0 0
vn -1 0 0
vn 1 0 0
vn 1 0 0
vn -1 0 0
vn -1 0 0
vn -1 0 0
vn -1 0 0
vn -1 0 0
vn -1 0 0
vn -1 0 0
vn -1 0 0
vn -1 0 0
vn -1 0 0
vn -1 0 0
vn -1 0 0
vn -1 0 0
vn -1 0 0
vn -1 0 0
vn -1 0 0
vn -1 0 0
vn -1 0 0
vn -1 0 0
vn 1 0 0
vn 1 0 0
vn 1 0 0
vn 1 0 0
vn 1 0 0
vn 1 0 0
vn 1 0 0
vn 1 0 0
vn 1 0 0
vn 1 0 0
vn 1 0 0
vn -0.5773503 0.5775498 -0.5771507
vn -0.5773503 0.5775498 -0.5771507
vn -0.5773503 0.5775498 -0.5771507
vn 0.5773503 -0.5771507 -0.5775498
vn 0.5773503 -0.5771507 -0.5775498
vn 0.5773503 -0.5771507 -0.5775498
vn 0.5773503 0.5775498 -0.5771507
vn 0.5773503 0.5775498 -0.5771507
vn 0.5773503 0.5775498 -0.5771507
vn 0 -1 -0.0003455752
vn 0 -1 -0.0003455752
vn 0 -1 -0.0003455752
vn 0 -1 -0.0003455752
vn 0 -0.0003455752 1
vn 0 -0.0003455752 1
vn 0 -0.0003455752 1
vn 0 -0.0003455752 1
vn -1 0 0
vn -1 0 0
vn -1 0 0
vn -1 0 0
vn 0 1 0.0003455752
vn 0 1 0.0003455752
vn 0 1 0.0003455752
vn 0 1 0.0003455752
vn -1 0 0
vn -1 0 0
vn -1 0 0
vn -1 0 0
vn 1 0 0
vn 1 0 0
vn 1 0 0
vn 1 0 0
vn -0.7071061 0.0002443588 -0.7071074
vn -0.7071061 0.0002443588 -0.7071074
vn -0.7071061 0.0002443588 -0.7071074
vn -0.7071061 0.0002443588 -0.7071074
vn 0 0.7073509 -0.7068626
vn 0 0.7073509 -0.7068626
vn 0 0.7073509 -0.7068626
vn 0 0.7073509 -0.7068626
vn 0.7071061 0.0002443588 -0.7071074
vn 0.7071061 0.0002443588 -0.7071074
vn 0.7071061 0.0002443588 -0.7071074
vn 0.7071061 0.0002443588 -0.7071074
vn 0 0.0003455752 -1
vn 0 0.0003455752 -1
vn 0 0.0003455752 -1
vn 0 0.0003455752 -1
vn 0 0.000344151 -1
vn 0 0.0003455752 -1
vn 0 0.0003455752 -1
vn 0 0.000344151 -1
vn 0 0.0003455752 -1
vn 0 0.0003455752 -1
vn 0 0.0003455752 -1
vn 0 0.0003455752 -1
vn 0 -1 -0.0003455752
vn 0 -1 -0.0003455752
vn 0 -1 -0.0003455752
vn 0 -1 -0.0003455752
vn 1 0 0
vn 1 0 0
vn 1 0 0
vn 1 0 0
vn 0 1 0.0003455752
vn 0 1 0.0003455752
vn 0 1 0.0003455752
vn 0 1 0.0003455752
vn 0 1 0.0003455752
vn 0 1 0.0003455752
vn 0 1 0.0003455752
vn 0 1 0.0003455752
vn 0 1 0.0003455752
vn 0 1 0.0003455752
vn 0 1 0.0003455752
vn 0 1 0.0003455752
vn 0 1 0.0003455752
vn 0 1 0.0003455752
vn 0 1 0.0003455752
vn 0 1 0.0003455752
vn 1 0 0
vn 1 0 0
vn 1 0 0
vn 1 0 0
vn -1 0 0
vn -1 0 0
vn -1 0 0
vn -1 0 0
vn 0 -0.0003456967 1
vn 0 -0.0003456967 1
vn 0 -0.0003456967 1
vn 0 -0.0003456967 1
vn 0 0.0003455752 -1
vn 0 0.0003455752 -1
vn 0 0.0003455752 -1
vn 0 0.0003455752 -1
vn -1 0 0
vn -1 0 0
vn 1 0 0
vn 1 0 0
vn -1 0 0
vn -1 0 0
vn -1 0 0
vn -1 0 0
vn -1 0 0
vn -1 0 0
vn -1 0 0
vn -1 0 0
vn -1 0 0
vn -1 0 0
vn -1 0 0
vn -1 0 0
vn -1 0 0
vn -1 0 0
vn -1 0 0
vn -1 0 0
vn -1 0 0
vn -1 0 0
vn -1 0 0
vn 1 0 0
vn 1 0 0
vn 1 0 0
vn 1 0 0
vn 1 0 0
vn 1 0 0
vn 1 0 0
vn 1 0 0
vn 1 0 0
vn 1 0 0
vn 1 0 0
vn 0.5773503 -0.5771507 -0.5775498
vn 0.5773503 -0.5771507 -0.5775498
vn 0.5773503 -0.5771507 -0.5775498
vn 0.5773503 0.5775498 -0.5771507
vn 0.5773503 0.5775498 -0.5771507
vn 0.5773503 0.5775498 -0.5771507
vn 0.5773503 0.5771507 0.5775498
vn 0.5773503 0.5771507 0.5775498
vn 0.5773503 0.5771507 0.5775498
vn 0.5773503 -0.5775498 0.5771507
vn 0.5773503 -0.5775498 0.5771507
vn 0.5773503 -0.5775498 0.5771507
vn 0 -1 -0.0003455752
vn 0 -1 -0.0003455752
vn 0 -1 -0.0003455752
vn 0 -1 -0.0003455752
vn 0 -0.0003455752 1
vn 0 -0.0003455752 1
vn 0 -0.0003455752 1
vn 0 -0.0003455752 1
vn 1 0 0
vn 1 0 0
vn 1 0 0
vn 1 0 0
vn 0 1 0.0003455752
vn 0 1 0.0003455752
vn 0 1 0.0003455752
vn 0 1 0.0003455752
vn -1 0 0
vn -1 0 0
vn -1 0 0
vn -1 0 0
vn -1 0 0
vn -1 0 0
vn -1 0 0
vn -1 0 0
vn 0.7071061 0.0002443588 -0.7071074
vn 0.7071061 0.0002443588 -0.7071074
vn 0.7071061 0.0002443588 -0.7071074
vn 0.7071061 0.0002443588 -0.7071074
vn 0 0.7073509 -0.7068626
vn 0 0.7073509 -0.7068626
vn 0 0.7073509 -0.7068626
vn 0 0.7073509 -0.7068626
vn 0.7071061 -0.0002443588 0.7071074
vn 0.7071061 -0.0002443588 0.7071074
vn 0.7071061 -0.0002443588 0.7071074
vn 0.7071061 -0.0002443588 0.7071074
vn 0 0.7068623 0.7073513
vn 0 0.7068623 0.7073513
vn 0 0.7068623 0.7073513
vn 0 0.7068623 0.7073513
vn 0.7071071 0.7071064 0.0002443585
vn 0.7071071 0.7071064 0.0002443585
vn 0.7071071 0.7071064 0.0002443585
vn 0.7071071 0.7071064 0.0002443585
vn 0 0.0003455752 -1
vn 0 0.0003455752 -1
vn 0 0.0003455752 -1
vn 0 0.0003455752 -1
vn 1 0 0
vn 1 0 0
vn 1 0 0
vn 1 0 0
vn 1 0 0
vn 1 0 0
vn 1 0 0
vn 1 0 0
vn 0 -1 -0.0003455752
vn 0 -1 -0.0003455752
vn 0 -1 -0.0003455752
vn 0 -1 -0.0003455752
vn 0 1 0.0003455752
vn 0 1 0.0003455752
vn 0 1 0.0003455752
vn 0 1 0.0003455752
vn 0 -0.0003456967 1
vn 0 -0.0003456967 1
vn 0 -0.0003456967 1
vn 0 -0.0003456967 1
vn -1 0 0
vn -1 0 0
vn -1 0 0
vn -1 0 0
vn 0 0.0003455752 -1
vn 0 0.0003455752 -1
vn 0 0.0003455752 -1
vn 0 0.0003455752 -1
vn 0 0.0003455752 -1
vn 0 0.0003455752 -1
vn 0 0.0003455752 -1
vn 0 0.0003455752 -1
vn 0 1 0.0003455752
vn 0 1 0.0003455752
vn 0 1 0.0003455752
vn 0 1 0.0003455752
vn 0 1 0.0003455752
vn 0 1 0.0003455752
vn 0 1 0.0003455752
vn 0 1 0.0003455752
vn -1 0 0
vn -1 0 0
vn 1 0 0
vn 1 0 0
vn -1 0 0
vn -1 0 0
vn -1 0 0
vn -1 0 0
vn -1 0 0
vn -1 0 0
vn -1 0 0
vn -1 0 0
vn -1 0 0
vn -1 0 0
vn -1 0 0
vn -1 0 0
vn -1 0 0
vn -1 0 0
vn -1 0 0
vn -1 0 0
vn -1 0 0
vn -1 0 0
vn -1 0 0
vn 1 0 0
vn 1 0 0
vn 1 0 0
vn 1 0 0
vn 1 0 0
vn 1 0 0
vn 1 0 0
vn 1 0 0
vn 1 0 0
vn 1 0 0
vn 1 0 0
vn 0.5773503 0.5775498 -0.5771507
vn 0.5773503 0.5775498 -0.5771507
vn 0.5773503 0.5775498 -0.5771507
vn -0.5773516 -0.577152 -0.5775471
vn -0.5773516 -0.577152 -0.5775471
vn -0.5773516 -0.577152 -0.5775471
vn 0.5773503 0.5771507 0.5775498
vn 0.5773503 0.5771507 0.5775498
vn 0.5773503 0.5771507 0.5775498
vn 0 1 0.0003455752
vn 0 1 0.0003455752
vn 0 1 0.0003455752
vn 0 1 0.0003455752
vn 0 -0.0003455752 1
vn 0 -0.0003455752 1
vn 0 -0.0003455752 1
vn 0 -0.0003455752 1
vn 0 -1 -0.0003455752
vn 0 -1 -0.0003455752
vn 0 -1 -0.0003455752
vn 0 -1 -0.0003455752
vn 1 0 0
vn 1 0 0
vn 1 0 0
vn 1 0 0
vn -1 0 0
vn -1 0 0
vn -1 0 0
vn -1 0 0
vn 0.7071061 0.0002443588 -0.7071074
vn 0.7071061 0.0002443588 -0.7071074
vn 0.7071061 0.0002443588 -0.7071074
vn 0.7071061 0.0002443588 -0.7071074
vn 0 0.7073509 -0.7068626
vn 0 0.7073509 -0.7068626
vn 0 0.7073509 -0.7068626
vn 0 0.7073509 -0.7068626
vn 0 -0.706863 -0.7073504
vn 0 -0.706863 -0.7073504
vn 0 -0.706863 -0.7073504
vn 0 -0.706863 -0.7073504
vn 0.7071061 -0.0002443588 0.7071074
vn 0.7071061 -0.0002443588 0.7071074
vn 0.7071061 -0.0002443588 0.7071074
vn 0.7071061 -0.0002443588 0.7071074
vn 0 0.7068623 0.7073513
vn 0 0.7068623 0.7073513
vn 0 0.7068623 0.7073513
vn 0 0.7068623 0.7073513
vn 0 -0.7073518 0.7068617
vn 0 -0.7073518 0.7068617
vn 0 -0.7073518 0.7068617
vn 0 -0.7073518 0.7068617
vn -1 0 0
vn -1 0 0
vn -1 0 0
vn -1 0 0
vn 0 0.0003455752 -1
vn 0 0.0003455752 -1
vn 0 0.0003455752 -1
vn 0 0.0003455752 -1
vn 1 0 0
vn 1 0 0
vn 1 0 0
vn 1 0 0
vn 0 -1 -0.0003455752
vn 0 -1 -0.0003455752
vn 0 -1 -0.0003455752
vn 0 -1 -0.0003455752
vn 0 1 0.0003455752
vn 0 1 0.0003455752
vn 0 1 0.0003455752
vn 0 1 0.0003455752
vn 0 -0.0003456967 1
vn 0 -0.0003456967 1
vn 0 -0.0003456967 1
vn 0 -0.0003456967 1
vn -1 0 0
vn -1 0 0
vn -1 0 0
vn -1 0 0
vn 1 0 0
vn 1 0 0
vn 1 0 0
vn 1 0 0
vn 0 0.0003455752 -1
vn 0 0.0003455752 -1
vn 0 0.0003455752 -1
vn 0 0.0003455752 -1
vn 0 0.0003455752 -1
vn 0 0.0003455752 -1
vn 0 0.0003455752 -1
vn 0 0.0003455752 -1
vn 0 1 0.0003455752
vn 0 1 0.0003455752
vn 0 1 0.0003455752
vn 0 1 0.0003455752
vn 0 1 0.0003455752
vn 0 1 0.0003455752
vn 0 1 0.0003455752
vn 0 1 0.0003455752
vn -1 0 0
vn -1 0 0
vn 1 0 0
vn 1 0 0
vn -1 0 0
vn -1 0 0
vn -1 0 0
vn -1 0 0
vn -1 0 0
vn -1 0 0
vn -1 0 0
vn -1 0 0
vn -1 0 0
vn -1 0 0
vn -1 0 0
vn -1 0 0
vn -1 0 0
vn -1 0 0
vn -1 0 0
vn -1 0 0
vn -1 0 0
vn -1 0 0
vn -1 0 0
vn 1 0 0
vn 1 0 0
vn 1 0 0
vn 1 0 0
vn 1 0 0
vn 1 0 0
vn 1 0 0
vn 1 0 0
vn 1 0 0
vn 1 0 0
vn 1 0 0
usemtl DarkWoodSmooth
f 3/3/206 2/2/205 1/1/204
f 6/6/209 5/5/208 4/4/207
f 9/9/212 8/8/211 7/7/210
f 12/12/215 11/11/214 10/10/213
f 15/15/218 14/14/217 13/13/216
f 18/18/221 17/17/220 16/16/219
f 21/21/224 20/20/223 19/19/222
f 24/24/227 23/23/226 22/22/225
f 27/27/230 26/26/229 25/25/228
f 28/28/231 27/27/230 25/25/228
f 31/31/234 30/30/233 29/29/232
f 32/32/235 31/31/234 29/29/232
f 35/35/238 34/34/237 33/33/236
f 36/36/239 35/35/238 33/33/236
f 39/39/242 38/38/241 37/37/240
f 40/40/243 39/39/242 37/37/240
f 43/43/246 42/42/245 41/41/244
f 44/44/247 43/43/246 41/41/244
f 47/47/250 46/46/249 45/45/248
f 48/48/251 47/47/250 45/45/248
f 51/51/254 50/50/253 49/49/252
f 52/52/255 51/51/254 49/49/252
f 55/55/258 54/54/257 53/53/256
f 56/56/259 55/55/258 53/53/256
f 59/59/262 58/58/261 57/57/260
f 60/60/263 59/59/262 57/57/260
f 63/63/266 62/62/265 61/61/264
f 64/64/267 63/63/266 61/61/264
f 67/67/270 66/66/269 65/65/268
f 68/68/271 67/67/270 65/65/268
f 71/71/274 70/70/273 69/69/272
f 72/72/275 71/71/274 69/69/272
f 75/75/278 74/74/277 73/73/276
f 76/76/279 75/75/278 73/73/276
f 79/79/282 78/78/281 77/77/280
f 80/80/283 79/79/282 77/77/280
f 83/83/286 82/82/285 81/81/284
f 84/84/287 83/83/286 81/81/284
f 87/87/290 86/86/289 85/85/288
f 88/88/291 87/87/290 85/85/288
f 91/91/294 90/90/293 89/89/292
f 92/92/295 91/91/294 89/89/292
f 95/95/298 94/94/297 93/93/296
f 96/96/299 95/95/298 93/93/296
f 99/99/302 98/98/301 97/97/300
f 98/98/301 100/100/303 97/97/300
f 97/97/300 100/100/303 101/101/304
f 100/100/303 102/102/305 101/101/304
f 105/105/308 104/104/307 103/103/306
f 106/106/309 105/105/308 103/103/306
f 107/107/310 105/105/308 106/106/309
f 108/108/311 107/107/310 106/106/309
f 111/111/314 110/110/313 109/109/312
f 112/112/315 111/111/314 109/109/312
f 115/115/318 114/114/317 113/113/316
f 116/116/319 115/115/318 113/113/316
f 119/119/322 118/118/321 117/117/320
f 120/120/323 119/119/322 117/117/320
f 123/123/326 122/122/325 121/121/324
f 124/124/327 123/123/326 121/121/324
f 127/127/330 126/126/329 125/125/328
f 128/128/331 127/127/330 125/125/328
f 131/131/334 130/130/333 129/129/332
f 130/130/333 132/132/335 129/129/332
f 129/129/332 132/132/335 133/133/336
f 132/132/335 134/134/337 133/133/336
f 137/137/340 136/136/339 135/135/338
f 136/136/339 138/138/341 135/135/338
f 135/135/338 138/138/341 139/139/342
f 138/138/341 140/140/343 139/139/342
f 143/143/346 142/142/345 141/141/344
f 144/144/347 143/143/346 141/141/344
f 147/147/350 146/146/349 145/145/348
f 148/148/351 147/147/350 145/145/348
f 151/151/354 150/150/353 149/149/352
f 152/152/355 151/151/354 149/149/352
