mtllib Dresser_205_1.mtl
v -0.26657 0.17258 0.10921
v -0.27245 0.16671 0.1092
v -0.26657 0.16671 0.10333
v 0.26658 0.17258 0.10921
v 0.26658 0.16671 0.10333
v 0.27246 0.16671 0.1092
v -0.27245 -0.12745 0.1091
v -0.26657 -0.13333 0.1091
v -0.26657 -0.12745 0.10323
v 0.26658 -0.13333 0.1091
v 0.27246 -0.12745 0.1091
v 0.26658 -0.12745 0.10323
v 0.26658 0.17258 0.12244
v 0.27246 0.16671 0.12243
v 0.26658 0.1667 0.12831
v -0.26657 0.17258 0.12244
v -0.26657 0.1667 0.12831
v -0.27245 0.16671 0.12243
v -0.27245 -0.12746 0.12233
v -0.26657 -0.12746 0.12821
v -0.26657 -0.13333 0.12233
v 0.26658 -0.13333 0.12233
v 0.26658 -0.12746 0.12821
v 0.27246 -0.12746 0.12233
v -0.27245 0.16671 0.1092
v -0.27245 0.16671 0.12243
v -0.27245 -0.12746 0.12233
v -0.27245 -0.12745 0.1091
v 0.27246 -0.12745 0.1091
v 0.27246 -0.12746 0.12233
v 0.27246 0.16671 0.12243
v 0.27246 0.16671 0.1092
v 0.26658 -0.12746 0.12821
v -0.26657 -0.12746 0.12821
v -0.26657 0.1667 0.12831
v 0.26658 0.1667 0.12831
v 0.26658 0.17258 0.10921
v 0.26658 0.17258 0.12244
v -0.26657 0.17258 0.12244
v -0.26657 0.17258 0.10921
v 0.23883 0.15679 -0.1117
v 0.23883 -0.09994 -0.11179
v -0.23882 -0.09994 -0.11179
v -0.23882 0.15679 -0.1117
v -0.26657 -0.13333 0.1091
v -0.26657 -0.13333 0.12233
v 0.26658 -0.13333 0.12233
v 0.26658 -0.13333 0.1091
v 0.26658 0.16671 0.10333
v 0.26658 0.17258 0.10921
v -0.26657 0.17258 0.10921
v -0.26657 0.16671 0.10333
v -0.26657 0.16671 0.10333
v -0.27245 0.16671 0.1092
v -0.27245 -0.12745 0.1091
v -0.26657 -0.12745 0.10323
v 0.26658 -0.13333 0.1091
v 0.26658 -0.12745 0.10323
v -0.26657 -0.12745 0.10323
v -0.26657 -0.13333 0.1091
v 0.27246 0.16671 0.1092
v 0.26658 0.16671 0.10333
v 0.26658 -0.12745 0.10323
v 0.27246 -0.12745 0.1091
v 0.26658 0.17258 0.12244
v 0.26658 0.1667 0.12831
v -0.26657 0.1667 0.12831
v -0.26657 0.17258 0.12244
v -0.27245 0.16671 0.12243
v -0.26657 0.1667 0.12831
v -0.26657 -0.12746 0.12821
v -0.27245 -0.12746 0.12233
v 0.26658 -0.12746 0.12821
v 0.26658 -0.13333 0.12233
v -0.26657 -0.13333 0.12233
v -0.26657 -0.12746 0.12821
v 0.26658 0.1667 0.12831
v 0.27246 0.16671 0.12243
v 0.27246 -0.12746 0.12233
v 0.26658 -0.12746 0.12821
v -0.27245 0.16671 0.1092
v -0.26657 0.17258 0.10921
v -0.26657 0.17258 0.12244
v -0.27245 0.16671 0.12243
v 0.27246 0.16671 0.12243
v 0.26658 0.17258 0.12244
v 0.26658 0.17258 0.10921
v 0.27246 0.16671 0.1092
v -0.26657 -0.13333 0.1091
v -0.27245 -0.12745 0.1091
v -0.27245 -0.12746 0.12233
v -0.26657 -0.13333 0.12233
v 0.27246 -0.12745 0.1091
v 0.26658 -0.13333 0.1091
v 0.26658 -0.13333 0.12233
v 0.27246 -0.12746 0.12233
v 0.25658 0.15671 0.10333
v -0.26657 0.16671 0.10333
v -0.25657 0.15671 0.10333
v 0.26658 0.16671 0.10333
v 0.25658 -0.11745 0.10323
v 0.26658 -0.12745 0.10323
v -0.25657 0.15671 0.10333
v -0.26657 0.16671 0.10333
v -0.26657 -0.12745 0.10323
v -0.25657 -0.11745 0.10323
v 0.26658 -0.12745 0.10323
v 0.25658 -0.11745 0.10323
v 0.25658 -0.11737 -0.12954
v 0.25658 0.15679 -0.12945
v -0.25657 0.15679 -0.12945
v -0.25657 -0.11737 -0.12954
v -0.25657 -0.11745 0.10323
v -0.25657 -0.11737 -0.12954
v -0.25657 0.15679 -0.12945
v -0.25657 0.15671 0.10333
v 0.25658 -0.11745 0.10323
v 0.25658 -0.11737 -0.12954
v -0.25657 -0.11737 -0.12954
v -0.25657 -0.11745 0.10323
v 0.25658 0.15671 0.10333
v 0.25658 0.15679 -0.12945
v 0.25658 -0.11737 -0.12954
v 0.25658 -0.11745 0.10323
v -0.23882 0.15679 -0.1117
v -0.23882 -0.09994 -0.11179
v -0.23882 -0.10001 0.08549
v -0.23882 0.15672 0.08558
v 0.23883 0.15672 0.08558
v -0.25657 0.15671 0.10333
v -0.23882 0.15672 0.08558
v 0.25658 0.15671 0.10333
v 0.23883 0.15679 -0.1117
v 0.25658 0.15679 -0.12945
v -0.23882 0.15679 -0.1117
v 0.25658 0.15679 -0.12945
v 0.23883 0.15679 -0.1117
v -0.25657 0.15679 -0.12945
v -0.23882 0.15672 0.08558
v -0.25657 0.15671 0.10333
v -0.23882 -0.10001 0.08549
v -0.23882 -0.09994 -0.11179
v 0.23883 -0.09994 -0.11179
v 0.23883 -0.10001 0.08549
v -0.23882 0.15672 0.08558
v -0.23882 -0.10001 0.08549
v 0.23883 -0.10001 0.08549
v 0.23883 0.15672 0.08558
v 0.23883 0.15672 0.08558
v 0.23883 -0.10001 0.08549
v 0.23883 -0.09994 -0.11179
v 0.23883 0.15679 -0.1117
v -0.27245 -0.12745 0.1091
v -0.26657 -0.13333 0.1091
v -0.26657 -0.12745 0.10323
v -0.27245 0.16671 0.1092
v -0.26657 0.16671 0.10333
v -0.26657 0.17258 0.10921
v 0.26658 -0.13333 0.1091
v 0.27246 -0.12745 0.1091
v 0.26658 -0.12745 0.10323
v 0.26658 0.17258 0.10921
v 0.26658 0.16671 0.10333
v 0.27246 0.16671 0.1092
v -0.27245 0.16671 0.12243
v -0.26657 0.17258 0.12244
v -0.26657 0.1667 0.12831
v -0.27245 -0.12746 0.12233
v -0.26657 -0.12746 0.12821
v -0.26657 -0.13333 0.12233
v 0.26658 -0.13333 0.12233
v 0.26658 -0.12746 0.12821
v 0.27246 -0.12746 0.12233
v 0.26658 0.17258 0.12244
v 0.27246 0.16671 0.12243
v 0.26658 0.1667 0.12831
v -0.26657 -0.13333 0.1091
v -0.26657 -0.13333 0.12233
v 0.26658 -0.13333 0.12233
v 0.26658 -0.13333 0.1091
v 0.26658 -0.12746 0.12821
v -0.26657 -0.12746 0.12821
v -0.26657 0.1667 0.12831
v 0.26658 0.1667 0.12831
v -0.25657 -0.11745 0.10323
v -0.25657 -0.11737 -0.12954
v -0.25657 0.15679 -0.12945
v -0.25657 0.15671 0.10333
v 0.26658 0.17258 0.10921
v 0.26658 0.17258 0.12244
v -0.26657 0.17258 0.12244
v -0.26657 0.17258 0.10921
v -0.27245 0.16671 0.1092
v -0.27245 0.16671 0.12243
v -0.27245 -0.12746 0.12233
v -0.27245 -0.12745 0.1091
v 0.27246 -0.12745 0.1091
v 0.27246 -0.12746 0.12233
v 0.27246 0.16671 0.12243
v 0.27246 0.16671 0.1092
v -0.26657 0.16671 0.10333
v -0.27245 0.16671 0.1092
v -0.27245 -0.12745 0.1091
v -0.26657 -0.12745 0.10323
v -0.26657 -0.12745 0.10323
v -0.26657 -0.13333 0.1091
v 0.26658 -0.13333 0.1091
v 0.26658 -0.12745 0.10323
v 0.26658 0.16671 0.10333
v 0.26658 0.17258 0.10921
v -0.26657 0.17258 0.10921
v -0.26657 0.16671 0.10333
v 0.27246 0.16671 0.1092
v 0.26658 0.16671 0.10333
v 0.26658 -0.12745 0.10323
v 0.27246 -0.12745 0.1091
v -0.27245 0.16671 0.12243
v -0.26657 0.1667 0.12831
v -0.26657 -0.12746 0.12821
v -0.27245 -0.12746 0.12233
v -0.26657 -0.13333 0.12233
v -0.26657 -0.12746 0.12821
v 0.26658 -0.12746 0.12821
v 0.26658 -0.13333 0.12233
v 0.26658 0.17258 0.12244
v 0.26658 0.1667 0.12831
v -0.26657 0.1667 0.12831
v -0.26657 0.17258 0.12244
v 0.26658 0.1667 0.12831
v 0.27246 0.16671 0.12243
v 0.27246 -0.12746 0.12233
v 0.26658 -0.12746 0.12821
v 0.26658 0.17258 0.10921
v 0.27246 0.16671 0.1092
v 0.27246 0.16671 0.12243
v 0.26658 0.17258 0.12244
v 0.26658 -0.13333 0.12233
v 0.27246 -0.12746 0.12233
v 0.27246 -0.12745 0.1091
v 0.26658 -0.13333 0.1091
v -0.26657 -0.13333 0.1091
v -0.27245 -0.12745 0.1091
v -0.27245 -0.12746 0.12233
v -0.26657 -0.13333 0.12233
v -0.26657 0.17258 0.12244
v -0.27245 0.16671 0.12243
v -0.27245 0.16671 0.1092
v -0.26657 0.17258 0.10921
v -0.25657 0.15671 0.10333
v -0.26657 0.16671 0.10333
v -0.26657 -0.12745 0.10323
v -0.25657 -0.11745 0.10323
v 0.26658 -0.12745 0.10323
v 0.25658 -0.11745 0.10323
v 0.25658 0.15671 0.10333
v -0.26657 0.16671 0.10333
v -0.25657 0.15671 0.10333
v 0.26658 0.16671 0.10333
v 0.25658 -0.11745 0.10323
v 0.26658 -0.12745 0.10323
v 0.25658 -0.11737 -0.12954
v 0.25658 0.15679 -0.12945
v -0.25657 0.15679 -0.12945
v -0.25657 -0.11737 -0.12954
v 0.25658 -0.11745 0.10323
v 0.25658 -0.11737 -0.12954
v -0.25657 -0.11737 -0.12954
v -0.25657 -0.11745 0.10323
v 0.25658 0.15671 0.10333
v 0.25658 0.15679 -0.12945
v 0.25658 -0.11737 -0.12954
v 0.25658 -0.11745 0.10323
v 0.23883 0.15672 0.08558
v -0.25657 0.15671 0.10333
v -0.23882 0.15672 0.08558
v 0.25658 0.15671 0.10333
v 0.23883 0.15679 -0.1117
v 0.25658 0.15679 -0.12945
v -0.23882 0.15679 -0.1117
v 0.25658 0.15679 -0.12945
v 0.23883 0.15679 -0.1117
v -0.25657 0.15679 -0.12945
v -0.23882 0.15672 0.08558
v -0.25657 0.15671 0.10333
v -0.23882 -0.10001 0.08549
v -0.23882 -0.09994 -0.11179
v 0.23883 -0.09994 -0.11179
v 0.23883 -0.10001 0.08549
v -0.23882 0.15679 -0.1117
v -0.23882 -0.09994 -0.11179
v -0.23882 -0.10001 0.08549
v -0.23882 0.15672 0.08558
v 0.23883 0.15672 0.08558
v 0.23883 -0.10001 0.08549
v 0.23883 -0.09994 -0.11179
v 0.23883 0.15679 -0.1117
v 0.23883 0.15679 -0.1117
v 0.23883 -0.09994 -0.11179
v -0.23882 -0.09994 -0.11179
v -0.23882 0.15679 -0.1117
v -0.23882 0.15672 0.08558
v -0.23882 -0.10001 0.08549
v 0.23883 -0.10001 0.08549
v 0.23883 0.15672 0.08558
v 0.27246 -0.12745 0.1091
v 0.26658 -0.12745 0.10323
v 0.26658 -0.13333 0.1091
v 0.27246 0.16671 0.1092
v 0.26658 0.17258 0.10921
v 0.26658 0.16671 0.10333
v -0.26657 -0.13333 0.1091
v -0.26657 -0.12745 0.10323
v -0.27245 -0.12745 0.1091
v -0.26657 0.17258 0.10921
v -0.27245 0.16671 0.1092
v -0.26657 0.16671 0.10333
v 0.27246 0.16671 0.12243
v 0.26658 0.1667 0.12831
v 0.26658 0.17258 0.12244
v 0.27246 -0.12746 0.12233
v 0.26658 -0.13333 0.12233
v 0.26658 -0.12746 0.12821
v -0.26657 -0.13333 0.12233
v -0.27245 -0.12746 0.12233
v -0.26657 -0.12746 0.12821
v -0.26657 0.17258 0.12244
v -0.26657 0.1667 0.12831
v -0.27245 0.16671 0.12243
v -0.26657 -0.13333 0.1091
v -0.26657 -0.13333 0.12233
v 0.26658 -0.13333 0.12233
v 0.26658 -0.13333 0.1091
v 0.26658 -0.12746 0.12821
v -0.26657 -0.12746 0.12821
v -0.26657 0.1667 0.12831
v 0.26658 0.1667 0.12831
v 0.27246 -0.12745 0.1091
v 0.27246 -0.12746 0.12233
v 0.27246 0.16671 0.12243
v 0.27246 0.16671 0.1092
v 0.26658 0.17258 0.10921
v 0.26658 0.17258 0.12244
v -0.26657 0.17258 0.12244
v -0.26657 0.17258 0.10921
v -0.27245 0.16671 0.1092
v -0.27245 0.16671 0.12243
v -0.27245 -0.12746 0.12233
v -0.27245 -0.12745 0.1091
v -0.25657 -0.11745 0.10323
v -0.25657 -0.11737 -0.12954
v -0.25657 0.15679 -0.12945
v -0.25657 0.15671 0.10333
v 0.27246 0.16671 0.1092
v 0.26658 0.16671 0.10333
v 0.26658 -0.12745 0.10323
v 0.27246 -0.12745 0.1091
v -0.26657 -0.12745 0.10323
v -0.26657 -0.13333 0.1091
v 0.26658 -0.13333 0.1091
v 0.26658 -0.12745 0.10323
v 0.26658 0.16671 0.10333
v 0.26658 0.17258 0.10921
v -0.26657 0.17258 0.10921
v -0.26657 0.16671 0.10333
v -0.26657 0.16671 0.10333
v -0.27245 0.16671 0.1092
v -0.27245 -0.12745 0.1091
v -0.26657 -0.12745 0.10323
v 0.26658 0.1667 0.12831
v 0.27246 0.16671 0.12243
v 0.27246 -0.12746 0.12233
v 0.26658 -0.12746 0.12821
v -0.26657 -0.13333 0.12233
v -0.26657 -0.12746 0.12821
v 0.26658 -0.12746 0.12821
v 0.26658 -0.13333 0.12233
v 0.26658 0.17258 0.12244
v 0.26658 0.1667 0.12831
v -0.26657 0.1667 0.12831
v -0.26657 0.17258 0.12244
v -0.27245 0.16671 0.12243
v -0.26657 0.1667 0.12831
v -0.26657 -0.12746 0.12821
v -0.27245 -0.12746 0.12233
v 0.26658 0.17258 0.10921
v 0.27246 0.16671 0.1092
v 0.27246 0.16671 0.12243
v 0.26658 0.17258 0.12244
v 0.26658 -0.13333 0.12233
v 0.27246 -0.12746 0.12233
v 0.27246 -0.12745 0.1091
v 0.26658 -0.13333 0.1091
v -0.27245 -0.12746 0.12233
v -0.26657 -0.13333 0.12233
v -0.26657 -0.13333 0.1091
v -0.27245 -0.12745 0.1091
v -0.27245 0.16671 0.1092
v -0.26657 0.17258 0.10921
v -0.26657 0.17258 0.12244
v -0.27245 0.16671 0.12243
v 0.25658 -0.11737 -0.12954
v 0.25658 0.15679 -0.12945
v -0.25657 0.15679 -0.12945
v -0.25657 -0.11737 -0.12954
v -0.23882 0.15679 -0.1117
v -0.23882 -0.09994 -0.11179
v -0.23882 -0.10001 0.08549
v -0.23882 0.15672 0.08558
v 0.25658 0.15671 0.10333
v 0.25658 0.15679 -0.12945
v 0.25658 -0.11737 -0.12954
v 0.25658 -0.11745 0.10323
v -0.23882 0.15672 0.08558
v -0.23882 -0.10001 0.08549
v 0.23883 -0.10001 0.08549
v 0.23883 0.15672 0.08558
v 0.25658 -0.11745 0.10323
v 0.25658 -0.11737 -0.12954
v -0.25657 -0.11737 -0.12954
v -0.25657 -0.11745 0.10323
v -0.23882 -0.10001 0.08549
v -0.23882 -0.09994 -0.11179
v 0.23883 -0.09994 -0.11179
v 0.23883 -0.10001 0.08549
v 0.23883 0.15679 -0.1117
v 0.23883 -0.09994 -0.11179
v -0.23882 -0.09994 -0.11179
v -0.23882 0.15679 -0.1117
v 0.23883 0.15672 0.08558
v 0.23883 -0.10001 0.08549
v 0.23883 -0.09994 -0.11179
v 0.23883 0.15679 -0.1117
v 0.25658 -0.11745 0.10323
v 0.26658 -0.12745 0.10323
v 0.26658 0.16671 0.10333
v 0.25658 0.15671 0.10333
v -0.25657 -0.11745 0.10323
v -0.26657 0.16671 0.10333
v -0.26657 -0.12745 0.10323
v -0.25657 0.15671 0.10333
v -0.23882 0.15679 -0.1117
v 0.25658 0.15679 -0.12945
v 0.23883 0.15679 -0.1117
v -0.25657 0.15679 -0.12945
v 0.25658 0.15671 0.10333
v -0.23882 0.15672 0.08558
v 0.23883 0.15672 0.08558
v -0.25657 0.15671 0.10333
v 0.26658 0.17258 0.10921
v 0.26658 0.16671 0.10333
v 0.27246 -0.12745 0.1091
v 0.26658 -0.12745 0.10323
v 0.26658 -0.13333 0.1091
v -0.26657 0.17258 0.10921
v -0.26657 0.16671 0.10333
v -0.26657 -0.13333 0.1091
v -0.26657 -0.12745 0.10323
v -0.27245 -0.12745 0.1091
v 0.27246 0.16671 0.12243
v 0.26658 0.1667 0.12831
v 0.26658 0.17258 0.12244
v 0.27246 -0.12746 0.12233
v 0.26658 -0.13333 0.12233
v 0.26658 -0.12746 0.12821
v -0.26657 0.17258 0.12244
v -0.26657 0.1667 0.12831
v -0.27245 0.16671 0.12243
v -0.26657 -0.13333 0.12233
v -0.27245 -0.12746 0.12233
v -0.26657 -0.12746 0.12821
v 0.26658 0.17258 0.10921
v 0.26658 0.17258 0.12244
v -0.26657 0.17258 0.12244
v -0.26657 0.17258 0.10921
v 0.26658 -0.12746 0.12821
v -0.26657 -0.12746 0.12821
v -0.26657 0.1667 0.12831
v 0.26658 0.1667 0.12831
v -0.26657 -0.13333 0.1091
v -0.26657 -0.13333 0.12233
v 0.26658 -0.13333 0.12233
v 0.26658 -0.13333 0.1091
v 0.27246 -0.12745 0.1091
v 0.27246 -0.12746 0.12233
v 0.27246 0.16671 0.12243
v -0.27245 0.16671 0.12243
v -0.27245 -0.12746 0.12233
v -0.27245 -0.12745 0.1091
v 0.26658 0.16671 0.10333
v 0.26658 -0.12745 0.10323
v 0.27246 -0.12745 0.1091
v 0.26658 0.16671 0.10333
v 0.26658 0.17258 0.10921
v -0.26657 0.17258 0.10921
v -0.26657 0.16671 0.10333
v 0.26658 -0.13333 0.1091
v 0.26658 -0.12745 0.10323
v -0.26657 -0.12745 0.10323
v -0.26657 -0.13333 0.1091
v -0.26657 0.16671 0.10333
v -0.27245 -0.12745 0.1091
v -0.26657 -0.12745 0.10323
v 0.26658 0.1667 0.12831
v 0.27246 0.16671 0.12243
v 0.27246 -0.12746 0.12233
v 0.26658 -0.12746 0.12821
v 0.26658 0.17258 0.12244
v 0.26658 0.1667 0.12831
v -0.26657 0.1667 0.12831
v -0.26657 0.17258 0.12244
v 0.26658 -0.12746 0.12821
v 0.26658 -0.13333 0.12233
v -0.26657 -0.13333 0.12233
v -0.26657 -0.12746 0.12821
v -0.27245 0.16671 0.12243
v -0.26657 0.1667 0.12831
v -0.26657 -0.12746 0.12821
v -0.27245 -0.12746 0.12233
v 0.26658 0.17258 0.10921
v 0.27246 0.16671 0.12243
v 0.26658 0.17258 0.12244
v 0.26658 -0.13333 0.12233
v 0.27246 -0.12746 0.12233
v 0.27246 -0.12745 0.1091
v 0.26658 -0.13333 0.1091
v -0.26657 0.17258 0.10921
v -0.26657 0.17258 0.12244
v -0.27245 0.16671 0.12243
v -0.27245 -0.12746 0.12233
v -0.26657 -0.13333 0.12233
v -0.26657 -0.13333 0.1091
v -0.27245 -0.12745 0.1091
v -0.25657 -0.11745 0.10323
v -0.25657 -0.11737 -0.12954
v -0.25657 0.15679 -0.12945
v -0.25657 0.15671 0.10333
v 0.25658 -0.11737 -0.12954
v 0.25658 0.15679 -0.12945
v -0.25657 0.15679 -0.12945
v -0.25657 -0.11737 -0.12954
v 0.25658 0.15671 0.10333
v 0.25658 0.15679 -0.12945
v 0.25658 -0.11737 -0.12954
v 0.25658 -0.11745 0.10323
v 0.25658 -0.11745 0.10323
v 0.25658 -0.11737 -0.12954
v -0.25657 -0.11737 -0.12954
v -0.25657 -0.11745 0.10323
v -0.23882 -0.10001 0.08549
v -0.23882 -0.09994 -0.11179
v 0.23883 -0.09994 -0.11179
v 0.23883 -0.10001 0.08549
v 0.23883 0.15679 -0.1117
v 0.23883 -0.09994 -0.11179
v -0.23882 -0.09994 -0.11179
v -0.23882 0.15679 -0.1117
v 0.23883 0.15672 0.08558
v 0.23883 -0.10001 0.08549
v 0.23883 -0.09994 -0.11179
v 0.23883 0.15679 -0.1117
v -0.23882 0.15679 -0.1117
v -0.23882 -0.09994 -0.11179
v -0.23882 -0.10001 0.08549
v -0.23882 0.15672 0.08558
v -0.23882 0.15672 0.08558
v -0.23882 -0.10001 0.08549
v 0.23883 -0.10001 0.08549
v 0.23883 0.15672 0.08558
v 0.25658 -0.11745 0.10323
v 0.26658 -0.12745 0.10323
v 0.26658 0.16671 0.10333
v 0.25658 0.15671 0.10333
v -0.25657 -0.11745 0.10323
v -0.26657 0.16671 0.10333
v -0.26657 -0.12745 0.10323
v -0.25657 0.15671 0.10333
v 0.23883 0.15672 0.08558
v 0.25658 0.15671 0.10333
v -0.25657 0.15671 0.10333
v -0.23882 0.15672 0.08558
v 0.23883 0.15679 -0.1117
v -0.25657 0.15679 -0.12945
v 0.25658 0.15679 -0.12945
v -0.23882 0.15679 -0.1117
vt 0.8301375 0.2640352
vt 0.8272002 0.2640352
vt 0.8301375 0.2669725
vt 0.8272002 0.2640352
vt 0.8301375 0.2640352
vt 0.8301375 0.2669725
vt 0.09671378 0.2640352
vt 0.0996511 0.2640352
vt 0.09671378 0.2669725
vt 0.8301375 0.257421
vt 0.8301375 0.2544837
vt 0.8272002 0.257421
vt 0.8272002 0.257421
vt 0.8301375 0.2544837
vt 0.8301375 0.257421
vt 0.09671378 0.257421
vt 0.09671378 0.2544837
vt 0.0996511 0.257421
vt 0.09671378 0.2640352
vt 0.09671378 0.257421
vt -0.1698625 0.257421
vt -0.1698625 0.2640352
vt 0.8301375 0.2640352
vt 0.8301375 0.257421
vt 1.096714 0.257421
vt 1.096714 0.2640352
vt 0.09671378 0.2669725
vt 0.09671378 0.2640352
vt -0.1698625 0.2640352
vt -0.1698625 0.2669725
vt 0.09671378 0.2640352
vt 0.09671378 0.2669725
vt -0.1698625 0.2669725
vt -0.1698625 0.2640352
vt 0.09671378 0.257421
vt 0.09671378 0.2544837
vt -0.1698625 0.2544837
vt -0.1698625 0.257421
vt 0.09671378 0.2544837
vt 0.09671378 0.257421
vt -0.1698625 0.257421
vt -0.1698625 0.2544837
vt 0.8272002 0.2640352
vt 0.8301375 0.2640352
vt 0.8301375 0.257421
vt 0.8272002 0.257421
vt 0.8301375 0.2640352
vt 0.8272002 0.2640352
vt 0.8272002 0.257421
vt 0.8301375 0.257421
vt 0.0996511 0.2640352
vt 0.09671378 0.2640352
vt 0.09671378 0.257421
vt 0.0996511 0.257421
vt 0.09171391 0.2669725
vt 0.09171391 0.3833599
vt -0.1648625 0.3833599
vt -0.1648625 0.2669725
vt 0.08283973 0.2758465
vt -0.1648625 0.2669725
vt -0.1559885 0.2758465
vt 0.09171391 0.2669725
vt 0.08283973 0.374486
vt 0.09171391 0.3833599
vt 0.8440115 0.374486
vt 1.091714 0.3833599
vt 1.08284 0.374486
vt 0.8351375 0.3833599
vt 0.8440115 0.2758465
vt 0.8351375 0.2669725
vt 0.8440115 0.2758465
vt 0.8440115 0.374486
vt 1.08284 0.374486
vt 1.08284 0.2758465
vt 0.8272002 0.2640352
vt 0.8301375 0.2640352
vt 0.8301375 0.2669725
vt 0.8272002 0.2640352
vt 0.8301375 0.2669725
vt 0.8301375 0.2640352
vt 0.2640352 0.5134545
vt 0.2640352 0.5163918
vt 0.2669725 0.5163918
vt 0.09671378 0.2640352
vt 0.09671378 0.2669725
vt 0.0996511 0.2640352
vt 0.8272002 0.257421
vt 0.8301375 0.257421
vt 0.8301375 0.2544837
vt 0.8272002 0.257421
vt 0.8301375 0.2544837
vt 0.8301375 0.257421
vt 0.257421 0.5134545
vt 0.2544837 0.5163918
vt 0.257421 0.5163918
vt 0.09671378 0.257421
vt 0.0996511 0.257421
vt 0.09671378 0.2544837
vt 0.8301375 0.2640352
vt 0.8301375 0.257421
vt 1.096714 0.257421
vt 1.096714 0.2640352
vt 0.09671378 0.5163918
vt -0.1698625 0.5163918
vt -0.1698625 0.6634732
vt 0.09671378 0.6634732
vt 0.2669725 0.5213918
vt 0.3833599 0.5213918
vt 0.3833599 0.6584733
vt 0.2669725 0.6584733
vt 0.09671378 0.2640352
vt 0.09671378 0.257421
vt -0.1698625 0.257421
vt -0.1698625 0.2640352
vt 0.2640352 0.6634732
vt 0.257421 0.6634732
vt 0.257421 0.5163918
vt 0.2640352 0.5163918
vt 0.2640352 0.5163918
vt 0.257421 0.5163918
vt 0.257421 0.6634732
vt 0.2640352 0.6634732
vt 0.8301375 0.6634732
vt 0.8272002 0.6634732
vt 0.8272002 0.5163918
vt 0.8301375 0.5163918
vt 0.8301375 0.2669725
vt 0.8301375 0.2640352
vt 1.096714 0.2640352
vt 1.096714 0.2669725
vt 0.09671378 0.2669725
vt 0.09671378 0.2640352
vt -0.1698625 0.2640352
vt -0.1698625 0.2669725
vt 0.2640352 0.6634732
vt 0.2669725 0.6634732
vt 0.2669725 0.5163918
vt 0.2640352 0.5163918
vt 0.8272002 0.6634732
vt 0.8301375 0.6634732
vt 0.8301375 0.5163918
vt 0.8272002 0.5163918
vt 0.8301375 0.257421
vt 0.8301375 0.2544837
vt 1.096714 0.2544837
vt 1.096714 0.257421
vt 0.09671378 0.257421
vt 0.09671378 0.2544837
vt -0.1698625 0.2544837
vt -0.1698625 0.257421
vt 0.2544837 0.6634732
vt 0.257421 0.6634732
vt 0.257421 0.5163918
vt 0.2544837 0.5163918
vt 0.09671378 0.2640352
vt 0.0996511 0.2640352
vt 0.0996511 0.257421
vt 0.09671378 0.257421
vt 0.257421 0.5134545
vt 0.257421 0.5163918
vt 0.2640352 0.5163918
vt 0.2640352 0.5134545
vt 0.8301375 0.2640352
vt 0.8272002 0.2640352
vt 0.8272002 0.257421
vt 0.8301375 0.257421
vt 0.8301375 0.257421
vt 0.8272002 0.257421
vt 0.8272002 0.2640352
vt 0.8301375 0.2640352
vt 0.8351375 0.6584733
vt 0.8301375 0.6634732
vt 0.8301375 0.5163918
vt 0.8351375 0.5213918
vt 1.096714 0.5163918
vt 1.091714 0.5213918
vt 0.09171391 0.6584733
vt -0.1698625 0.6634732
vt -0.1648625 0.6584733
vt 0.09671378 0.6634732
vt 0.09171391 0.5213918
vt 0.09671378 0.5163918
vt 0.09171391 0.5213918
vt 0.09171391 0.6584733
vt -0.1648625 0.6584733
vt -0.1648625 0.5213918
vt 0.09171391 0.2669725
vt 0.09171391 0.3833599
vt -0.1648625 0.3833599
vt -0.1648625 0.2669725
vt 0.2669725 0.6584733
vt 0.3833599 0.6584733
vt 0.3833599 0.5213918
vt 0.2669725 0.5213918
vt 0.08283973 0.2758465
vt -0.1648625 0.2669725
vt -0.1559885 0.2758465
vt 0.09171391 0.2669725
vt 0.08283973 0.374486
vt 0.09171391 0.3833599
vt 0.8440115 0.374486
vt 1.091714 0.3833599
vt 1.08284 0.374486
vt 0.8351375 0.3833599
vt 0.8440115 0.2758465
vt 0.8351375 0.2669725
vt 0.8440115 0.2758465
vt 0.8440115 0.374486
vt 1.08284 0.374486
vt 1.08284 0.2758465
vt 0.374486 0.6584733
vt 0.374486 0.5301082
vt 0.2758465 0.5301082
vt 0.2758465 0.6584733
vt 0.2758465 0.6584733
vt 0.2758465 0.5301082
vt 0.374486 0.5301082
vt 0.374486 0.6584733
vt 0.08283973 0.6584733
vt 0.08283973 0.5301082
vt -0.1559885 0.5301082
vt -0.1559885 0.6584733
vt 0.8440115 0.6584733
vt 0.8440115 0.5301082
vt 1.08284 0.5301082
vt 1.08284 0.6584733
vt 0.2640352 0.5134545
vt 0.2669725 0.5163918
vt 0.2640352 0.5163918
vt 0.257421 0.5134545
vt 0.257421 0.5163918
vt 0.2544837 0.5163918
vt 0.2640352 0.5163918
vt 0.257421 0.5163918
vt 0.257421 0.6634732
vt 0.2640352 0.6634732
vt 0.2640352 0.6634732
vt 0.257421 0.6634732
vt 0.257421 0.5163918
vt 0.2640352 0.5163918
vt 0.2669725 0.5213918
vt 0.3833599 0.5213918
vt 0.3833599 0.6584733
vt 0.2669725 0.6584733
vt 0.2669725 0.6634732
vt 0.2640352 0.6634732
vt 0.2640352 0.5163918
vt 0.2669725 0.5163918
vt 0.257421 0.6634732
vt 0.2544837 0.6634732
vt 0.2544837 0.5163918
vt 0.257421 0.5163918
vt 0.257421 0.5163918
vt 0.257421 0.5134545
vt 0.2640352 0.5134545
vt 0.2640352 0.5163918
vt 0.374486 0.6584733
vt 0.374486 0.5301082
vt 0.2758465 0.5301082
vt 0.2758465 0.6584733
vt 0.2669725 0.6584733
vt 0.3833599 0.6584733
vt 0.3833599 0.5213918
vt 0.2669725 0.5213918
vt 0.2758465 0.6584733
vt 0.2758465 0.5301082
vt 0.374486 0.5301082
vt 0.374486 0.6584733
vn 1 0 0
vn 1 0 0
vn 1 0 0
vn 1 0 0
vn -1 0 0
vn -1 0 0
vn -1 0 0
vn -1 0 0
vn 0 -1 -0.0003455752
vn 0 -1 -0.0003455752
vn 0 -1 -0.0003455752
vn 0 -1 -0.0003455752
vn 1 0 0
vn 1 0 0
vn 1 0 0
vn 1 0 0
vn 0 -0.0003455752 1
vn 0 -0.0003455752 1
vn 0 -0.0003455752 1
vn 0 -0.0003455752 1
vn -1 0 0
vn -1 0 0
vn -1 0 0
vn -1 0 0
vn 0 -1 -0.0003455752
vn 0 -1 -0.0003455752
vn 0 -1 -0.0003455752
vn 0 -1 -0.0003455752
vn 0 1 0.0003455752
vn 0 1 0.0003455752
vn 0 1 0.0003455752
vn 0 1 0.0003455752
vn 0 0.0003455752 -1
vn 0 0.0003455752 -1
vn 0 0.0003455752 -1
vn 0 0.0003455752 -1
vn 0 -1 -0.0003455752
vn 0 -1 -0.0003455752
vn 0 -1 -0.0003455752
vn 0 -1 -0.0003455752
vn 1 0 0
vn 1 0 0
vn 1 0 0
vn 1 0 0
vn -1 0 0
vn -1 0 0
vn -1 0 0
vn -1 0 0
vn 0 -0.0003455752 1
vn 0 -0.0003455752 1
vn 0 -0.0003455752 1
vn 0 -0.0003455752 1
vn 1 0 0
vn 1 0 0
vn 1 0 0
vn 1 0 0
vn 0 1 0.0003455752
vn 0 1 0.0003455752
vn 0 1 0.0003455752
vn 0 1 0.0003455752
vn -1 0 0
vn -1 0 0
vn -1 0 0
vn -1 0 0
vn 0 0.0003455752 -1
vn 0 0.0003455752 -1
vn 0 0.0003455752 -1
vn 0 0.0003455752 -1
vn 0 -1 -0.0003455752
vn 0 -1 -0.0003455752
vn 0 -1 -0.0003455752
vn 0 -1 -0.0003455752
vn 1 0 0
vn 1 0 0
vn 1 0 0
vn 1 0 0
vn 0 0.0003455752 -1
vn 0 0.0003455752 -1
vn 0 0.0003455752 -1
vn 0 0.0003455752 -1
vn -1 0 0
vn -1 0 0
vn -1 0 0
vn -1 0 0
vn 0 -0.0003455752 1
vn 0 -0.0003455752 1
vn 0 -0.0003455752 1
vn 0 -0.0003455752 1
vn -1 0 0
vn -1 0 0
vn -1 0 0
vn -1 0 0
vn 0 0.0003455752 -1
vn 0 0.0003455752 -1
vn 0 0.0003455752 -1
vn 0 0.0003455752 -1
vn 1 0 0
vn 1 0 0
vn 1 0 0
vn 1 0 0
vn 0 -0.0003455752 1
vn 0 -0.0003455752 1
vn 0 -0.0003455752 1
vn 0 -0.0003455752 1
vn 0 -0.0003455752 1
vn 0 -0.0003455752 1
vn 0 -0.0003455752 1
vn 0 -0.0003455752 1
vn 1 0 0
vn 1 0 0
vn 1 0 0
vn 1 0 0
vn 0 0.0003455752 -1
vn 0 0.0003455752 -1
vn 0 0.0003455752 -1
vn 0 0.0003455752 -1
vn -1 0 0
vn -1 0 0
vn -1 0 0
vn -1 0 0
vn 0 -1 -0.0003455752
vn 0 -1 -0.0003455752
vn 0 -1 -0.0003455752
vn 0 -1 -0.0003455752
vn 0 1 0.0003455752
vn 0 1 0.0003455752
vn 0 1 0.0003455752
vn 0 1 0.0003455752
vn 0 0.0003455752 -1
vn 0 0.0003455752 -1
vn 0 0.0003455752 -1
vn 0 0.0003455752 -1
vn 1 0 0
vn 1 0 0
vn 1 0 0
vn 1 0 0
vn 1 0 0
vn 0.7071068 0.7071068 0.0002443586
vn 0.7071068 0.7071068 0.0002443586
vn -1 0 0
vn -1 0 0
vn -1 0 0
vn -1 0 0
vn -1 0 0
vn 0 -1 -0.0003455752
vn 0 -1 -0.0003455752
vn 0 -1 -0.0003455752
vn 0 -1 -0.0003455752
vn 0 -1 -0.0003455752
vn 0 1 0.0003455752
vn 0 1 0.0003455752
vn 0 1 0.0003455752
vn 0 1 0.0003455752
vn 0 1 0.0003455752
vn -0.7071068 0.7071068 0.0002443586
vn -0.7071068 0.7071068 0.0002443586
vn 0 -0.0003455752 1
vn 0 -0.0003455752 1
vn 0 -0.0003455752 1
vn 0 -0.0003455752 1
vn 0 -0.0003455752 1
vn 0 -0.0003455752 1
vn 0 -0.0003455752 1
vn 0 -0.0003455752 1
vn 0 -0.0003455752 1
vn 0 -0.0003455752 1
vn 0 -0.0003455752 1
vn 0 -0.0003455752 1
vn 0 -0.0003455752 1
vn 0 -0.0003455752 1
vn 0 -0.0003455752 1
vn 0 -0.0003455752 1
vn 0 -0.0003455752 1
vn 0 -0.0003455752 1
vn 0 -0.0003455752 1
vn 0 -0.0003455752 1
vn 0 -0.0003455752 1
vn 0 -0.0003455752 1
vn -0.7071068 0.7071068 0.0002443586
vn -0.7071068 0.7071068 0.0002443586
vn 0.7071068 0.7071068 0.0002443586
vn 0.7071068 0.7071068 0.0002443586
vn 1 0 0
vn 1 0 0
vn 1 0 0
vn 1 0 0
vn -1 0 0
vn -1 0 0
vn -1 0 0
vn -1 0 0
vn -0.5773503 0.5775498 -0.5771507
vn -0.5773503 0.5775498 -0.5771507
vn -0.5773503 0.5775498 -0.5771507
vn 0.5773503 0.5775498 -0.5771507
vn 0.5773503 0.5775498 -0.5771507
vn 0.5773503 0.5775498 -0.5771507
vn 0.5773503 -0.5771507 -0.5775498
vn 0.5773503 -0.5771507 -0.5775498
vn 0.5773503 -0.5771507 -0.5775498
vn -1 0 0
vn -1 0 0
vn -1 0 0
vn -1 0 0
vn 1 0 0
vn 1 0 0
vn 1 0 0
vn 1 0 0
vn 0 -0.0003455752 1
vn 0 -0.0003455752 1
vn 0 -0.0003455752 1
vn 0 -0.0003455752 1
vn 0 1 0.0003455752
vn 0 1 0.0003455752
vn 0 1 0.0003455752
vn 0 1 0.0003455752
vn 0 -0.0003456967 1
vn 0 -0.0003456967 1
vn 0 -0.0003456967 1
vn 0 -0.0003456967 1
vn 0 -1 -0.0003455752
vn 0 -1 -0.0003455752
vn 0 -1 -0.0003455752
vn 0 -1 -0.0003455752
vn 0 0.7073509 -0.7068626
vn 0 0.7073509 -0.7068626
vn 0 0.7073509 -0.7068626
vn 0 0.7073509 -0.7068626
vn -0.7071061 0.0002443588 -0.7071074
vn -0.7071061 0.0002443588 -0.7071074
vn -0.7071061 0.0002443588 -0.7071074
vn -0.7071061 0.0002443588 -0.7071074
vn 0.7071061 0.0002443588 -0.7071074
vn 0.7071061 0.0002443588 -0.7071074
vn 0.7071061 0.0002443588 -0.7071074
vn 0.7071061 0.0002443588 -0.7071074
vn 0 0.000344151 -1
vn 0 0.000344151 -1
vn 0 0.000344151 -1
vn 0 0.000344151 -1
vn 0 0.0003455752 -1
vn 0 0.0003455752 -1
vn 0 0.000344151 -1
vn 0 0.000344151 -1
vn 0 0.0003455752 -1
vn 0 0.0003455752 -1
vn 0 0.0003455752 -1
vn 0 0.0003455752 -1
vn 0 0.0003455752 -1
vn 0 0.0003455752 -1
vn 0 0.0003455752 -1
vn 0 0.0003455752 -1
vn -1 0 0
vn -1 0 0
vn -1 0 0
vn -1 0 0
vn 0 -1 -0.0003455752
vn 0 -1 -0.0003455752
vn 0 -1 -0.0003455752
vn 0 -1 -0.0003455752
vn 1 0 0
vn 1 0 0
vn 1 0 0
vn 1 0 0
vn 1 0 0
vn 1 0 0
vn 1 0 0
vn 1 0 0
vn 0 1 0.0003455752
vn 0 1 0.0003455752
vn 0 1 0.0003455752
vn 0 1 0.0003455752
vn 0 1 0.0003455752
vn 0 1 0.0003455752
vn 0 1 0.0003455752
vn 0 1 0.0003455752
vn 0 1 0.0003455752
vn 0 1 0.0003455752
vn 0 1 0.0003455752
vn 0 1 0.0003455752
vn 0 0.0003455752 -1
vn 0 0.0003455752 -1
vn 0 0.0003455752 -1
vn 0 0.0003455752 -1
vn -1 0 0
vn -1 0 0
vn -1 0 0
vn -1 0 0
vn -1 0 0
vn -1 0 0
vn 1 0 0
vn 1 0 0
vn -1 0 0
vn -1 0 0
vn -1 0 0
vn -1 0 0
vn -1 0 0
vn -1 0 0
vn -1 0 0
vn -1 0 0
vn -1 0 0
vn -1 0 0
vn -1 0 0
vn -1 0 0
vn -1 0 0
vn -1 0 0
vn -1 0 0
vn -1 0 0
vn -1 0 0
vn -1 0 0
vn -1 0 0
vn 1 0 0
vn 1 0 0
vn 1 0 0
vn 1 0 0
vn 1 0 0
vn 1 0 0
vn 1 0 0
vn 1 0 0
vn 1 0 0
vn 1 0 0
vn 1 0 0
vn -0.5773503 -0.5771507 -0.5775498
vn -0.5773503 -0.5771507 -0.5775498
vn -0.5773503 -0.5771507 -0.5775498
vn -0.5773503 0.5775498 -0.5771507
vn -0.5773503 0.5775498 -0.5771507
vn -0.5773503 0.5775498 -0.5771507
vn 0.5773503 -0.5771507 -0.5775498
vn 0.5773503 -0.5771507 -0.5775498
vn 0.5773503 -0.5771507 -0.5775498
vn 0.5773503 0.5775498 -0.5771507
vn 0.5773503 0.5775498 -0.5771507
vn 0.5773503 0.5775498 -0.5771507
vn -0.5773484 0.5771507 0.5775517
vn -0.5773484 0.5771507 0.5775517
vn -0.5773484 0.5771507 0.5775517
vn -0.5773509 -0.5775484 0.5771514
vn -0.5773509 -0.5775484 0.5771514
vn -0.5773509 -0.5775484 0.5771514
vn 0.5773509 -0.5775484 0.5771514
vn 0.5773509 -0.5775484 0.5771514
vn 0.5773509 -0.5775484 0.5771514
vn 0.5773484 0.5771507 0.5775517
vn 0.5773484 0.5771507 0.5775517
vn 0.5773484 0.5771507 0.5775517
vn 0 -1 -0.0003455752
vn 0 -1 -0.0003455752
vn 0 -1 -0.0003455752
vn 0 -1 -0.0003455752
vn 0 -0.0003455752 1
vn 0 -0.0003455752 1
vn 0 -0.0003455752 1
vn 0 -0.0003455752 1
vn -1 0 0
vn -1 0 0
vn -1 0 0
vn -1 0 0
vn 0 1 0.0003455752
vn 0 1 0.0003455752
vn 0 1 0.0003455752
vn 0 1 0.0003455752
vn -1 0 0
vn -1 0 0
vn -1 0 0
vn -1 0 0
vn 1 0 0
vn 1 0 0
vn 1 0 0
vn 1 0 0
vn -0.7071061 0.0002443588 -0.7071074
vn -0.7071061 0.0002443588 -0.7071074
vn -0.7071061 0.0002443588 -0.7071074
vn -0.7071061 0.0002443588 -0.7071074
vn 0 -0.7068623 -0.7073513
vn 0 -0.7068623 -0.7073513
vn 0 -0.7068623 -0.7073513
vn 0 -0.7068623 -0.7073513
vn 0 0.7073509 -0.7068626
vn 0 0.7073509 -0.7068626
vn 0 0.7073509 -0.7068626
vn 0 0.7073509 -0.7068626
vn 0.7071061 0.0002443588 -0.7071074
vn 0.7071061 0.0002443588 -0.7071074
vn 0.7071061 0.0002443588 -0.7071074
vn 0.7071061 0.0002443588 -0.7071074
vn -0.7071058 -0.0002443589 0.7071077
vn -0.7071058 -0.0002443589 0.7071077
vn -0.7071058 -0.0002443589 0.7071077
vn -0.7071058 -0.0002443589 0.7071077
vn 0 -0.7073501 0.7068634
vn 0 -0.7073501 0.7068634
vn 0 -0.7073501 0.7068634
vn 0 -0.7073501 0.7068634
vn 0 0.7068614 0.707352
vn 0 0.7068614 0.707352
vn 0 0.7068614 0.707352
vn 0 0.7068614 0.707352
vn 0.7071058 -0.0002443589 0.7071077
vn 0.7071058 -0.0002443589 0.7071077
vn 0.7071058 -0.0002443589 0.7071077
vn 0.7071058 -0.0002443589 0.7071077
vn 0.7071068 0.7071068 0.0002443586
vn 0.7071068 0.7071068 0.0002443586
vn 0.7071068 0.7071068 0.0002443586
vn 0.7071068 0.7071068 0.0002443586
vn 0.7071062 -0.7071072 -0.0002443588
vn 0.7071062 -0.7071072 -0.0002443588
vn 0.7071062 -0.7071072 -0.0002443588
vn 0.7071062 -0.7071072 -0.0002443588
vn -0.7071062 -0.7071072 -0.0002443588
vn -0.7071062 -0.7071072 -0.0002443588
vn -0.7071062 -0.7071072 -0.0002443588
vn -0.7071062 -0.7071072 -0.0002443588
vn -0.7071068 0.7071068 0.0002443586
vn -0.7071068 0.7071068 0.0002443586
vn -0.7071068 0.7071068 0.0002443586
vn -0.7071068 0.7071068 0.0002443586
vn 0 0.0003455752 -1
vn 0 0.0003455752 -1
vn 0 0.0003455752 -1
vn 0 0.0003455752 -1
vn 0 0.0003469994 -1
vn 0 0.0003469994 -1
vn 0 0.000344151 -1
vn 0 0.0003455752 -1
vn 0 0.0003455752 -1
vn 0 0.000344151 -1
vn 0 0.0003469994 -1
vn 0 0.0003469994 -1
vn 0 0.0003455752 -1
vn 0 0.0003455752 -1
vn 0 0.0003455752 -1
vn 0 0.0003455752 -1
vn 0 -1 -0.0003455752
vn 0 -1 -0.0003455752
vn 0 -1 -0.0003455752
vn 0 -1 -0.0003455752
vn 1 0 0
vn 1 0 0
vn 1 0 0
vn 1 0 0
vn 0 1 0.0003455752
vn 0 1 0.0003455752
vn 0 1 0.0003455752
vn 0 1 0.0003455752
vn 0 1 0.0003455752
vn 0 1 0.0003455752
vn 0 1 0.0003455752
vn 0 1 0.0003455752
vn 0 1 0.0003455752
vn 0 1 0.0003455752
vn 0 1 0.0003455752
vn 0 1 0.0003455752
vn 0 1 0.0003455752
vn 0 1 0.0003455752
vn 0 1 0.0003455752
vn 0 1 0.0003455752
vn 1 0 0
vn 1 0 0
vn 1 0 0
vn 1 0 0
vn -1 0 0
vn -1 0 0
vn -1 0 0
vn -1 0 0
vn 0 -0.0003456967 1
vn 0 -0.0003456967 1
vn 0 -0.0003456967 1
vn 0 -0.0003456967 1
vn 0 0.0003455752 -1
vn 0 0.0003455752 -1
vn 0 0.0003455752 -1
vn 0 0.0003455752 -1
vn -1 0 0
vn -1 0 0
vn 1 0 0
vn 1 0 0
vn -1 0 0
vn -1 0 0
vn -1 0 0
vn -1 0 0
vn -1 0 0
vn -1 0 0
vn -1 0 0
vn -1 0 0
vn -1 0 0
vn -1 0 0
vn -1 0 0
vn -1 0 0
vn -1 0 0
vn -1 0 0
vn -1 0 0
vn -1 0 0
vn -1 0 0
vn -1 0 0
vn -1 0 0
vn 1 0 0
vn 1 0 0
vn 1 0 0
vn 1 0 0
vn 1 0 0
vn 1 0 0
vn 1 0 0
vn 1 0 0
vn 1 0 0
vn 1 0 0
vn 1 0 0
vn 0.5773503 -0.5771507 -0.5775498
vn 0.5773503 -0.5771507 -0.5775498
vn 0.5773503 -0.5771507 -0.5775498
vn 0.5773503 0.5775498 -0.5771507
vn 0.5773503 0.5775498 -0.5771507
vn 0.5773503 0.5775498 -0.5771507
vn 0 -1 -0.0003455752
vn 0 -1 -0.0003455752
vn 0 -1 -0.0003455752
vn 0 -1 -0.0003455752
vn 0 -0.0003455752 1
vn 0 -0.0003455752 1
vn 0 -0.0003455752 1
vn 0 -0.0003455752 1
vn 1 0 0
vn 1 0 0
vn 1 0 0
vn 1 0 0
vn 0 1 0.0003455752
vn 0 1 0.0003455752
vn 0 1 0.0003455752
vn 0 1 0.0003455752
vn -1 0 0
vn -1 0 0
vn -1 0 0
vn -1 0 0
vn -1 0 0
vn -1 0 0
vn -1 0 0
vn -1 0 0
vn 0.7071061 0.0002443588 -0.7071074
vn 0.7071061 0.0002443588 -0.7071074
vn 0.7071061 0.0002443588 -0.7071074
vn 0.7071061 0.0002443588 -0.7071074
vn 0 -0.7068623 -0.7073513
vn 0 -0.7068623 -0.7073513
vn 0 -0.7068623 -0.7073513
vn 0 -0.7068623 -0.7073513
vn 0 0.7073509 -0.7068626
vn 0 0.7073509 -0.7068626
vn 0 0.7073509 -0.7068626
vn 0 0.7073509 -0.7068626
vn 0 0.0003455752 -1
vn 0 0.0003455752 -1
vn 0 0.0003455752 -1
vn 0 0.0003455752 -1
vn 1 0 0
vn 1 0 0
vn 1 0 0
vn 1 0 0
vn 1 0 0
vn 1 0 0
vn 1 0 0
vn 1 0 0
vn 0 -1 -0.0003455752
vn 0 -1 -0.0003455752
vn 0 -1 -0.0003455752
vn 0 -1 -0.0003455752
vn 0 1 0.0003455752
vn 0 1 0.0003455752
vn 0 1 0.0003455752
vn 0 1 0.0003455752
vn 0 -0.0003456967 1
vn 0 -0.0003456967 1
vn 0 -0.0003456967 1
vn 0 -0.0003456967 1
vn -1 0 0
vn -1 0 0
vn -1 0 0
vn -1 0 0
vn 0 0.0003455752 -1
vn 0 0.0003455752 -1
vn 0 0.0003455752 -1
vn 0 0.0003455752 -1
vn 0 0.0003455752 -1
vn 0 0.0003455752 -1
vn 0 0.0003455752 -1
vn 0 0.0003455752 -1
vn 0 1 0.0003455752
vn 0 1 0.0003455752
vn 0 1 0.0003455752
vn 0 1 0.0003455752
vn 0 1 0.0003455752
vn 0 1 0.0003455752
vn 0 1 0.0003455752
vn 0 1 0.0003455752
vn -1 0 0
vn -1 0 0
vn 1 0 0
vn 1 0 0
vn -1 0 0
vn -1 0 0
vn -1 0 0
vn -1 0 0
vn -1 0 0
vn -1 0 0
vn -1 0 0
vn -1 0 0
vn -1 0 0
vn -1 0 0
vn -1 0 0
vn -1 0 0
vn -1 0 0
vn -1 0 0
vn -1 0 0
vn -1 0 0
vn -1 0 0
vn -1 0 0
vn -1 0 0
vn 1 0 0
vn 1 0 0
vn 1 0 0
vn 1 0 0
vn 1 0 0
vn 1 0 0
vn 1 0 0
vn 1 0 0
vn 1 0 0
vn 1 0 0
vn 1 0 0
vn 0.5773503 0.5775498 -0.5771507
vn 0.5773503 0.5775498 -0.5771507
vn 0.5773503 0.5775498 -0.5771507
vn 0 1 0.0003455752
vn 0 1 0.0003455752
vn 0 1 0.0003455752
vn 0 1 0.0003455752
vn 0 -0.0003455752 1
vn 0 -0.0003455752 1
vn 0 -0.0003455752 1
vn 0 -0.0003455752 1
vn 0 -1 -0.0003455752
vn 0 -1 -0.0003455752
vn 0 -1 -0.0003455752
vn 0 -1 -0.0003455752
vn 1 0 0
vn 1 0 0
vn 1 0 0
vn 1 0 0
vn -1 0 0
vn -1 0 0
vn -1 0 0
vn -1 0 0
vn 0.7071061 0.0002443588 -0.7071074
vn 0.7071061 0.0002443588 -0.7071074
vn 0.7071061 0.0002443588 -0.7071074
vn 0.7071061 0.0002443588 -0.7071074
vn 0 0.7073509 -0.7068626
vn 0 0.7073509 -0.7068626
vn 0 0.7073509 -0.7068626
vn 0 0.7073509 -0.7068626
vn 0.7071068 0.7071068 0.0002443586
vn 0.7071068 0.7071068 0.0002443586
vn 0.7071068 0.7071068 0.0002443586
vn 0.7071068 0.7071068 0.0002443586
vn -1 0 0
vn -1 0 0
vn -1 0 0
vn -1 0 0
vn 0 0.0003455752 -1
vn 0 0.0003455752 -1
vn 0 0.0003455752 -1
vn 0 0.0003455752 -1
vn 1 0 0
vn 1 0 0
vn 1 0 0
vn 1 0 0
vn 0 -1 -0.0003455752
vn 0 -1 -0.0003455752
vn 0 -1 -0.0003455752
vn 0 -1 -0.0003455752
vn 0 1 0.0003455752
vn 0 1 0.0003455752
vn 0 1 0.0003455752
vn 0 1 0.0003455752
vn 0 -0.0003456967 1
vn 0 -0.0003456967 1
vn 0 -0.0003456967 1
vn 0 -0.0003456967 1
vn -1 0 0
vn -1 0 0
vn -1 0 0
vn -1 0 0
vn 1 0 0
vn 1 0 0
vn 1 0 0
vn 1 0 0
vn 0 0.0003455752 -1
vn 0 0.0003455752 -1
vn 0 0.0003455752 -1
vn 0 0.0003455752 -1
vn 0 0.0003455752 -1
vn 0 0.0003455752 -1
vn 0 0.0003455752 -1
vn 0 0.0003455752 -1
vn 0 1 0.0003455752
vn 0 1 0.0003455752
vn 0 1 0.0003455752
vn 0 1 0.0003455752
vn 0 1 0.0003455752
vn 0 1 0.0003455752
vn 0 1 0.0003455752
vn 0 1 0.0003455752
vn -1 0 0
vn -1 0 0
vn 1 0 0
vn 1 0 0
vn -1 0 0
vn -1 0 0
vn -1 0 0
vn -1 0 0
vn -1 0 0
vn -1 0 0
vn -1 0 0
vn -1 0 0
vn -1 0 0
vn -1 0 0
vn -1 0 0
vn -1 0 0
vn -1 0 0
vn -1 0 0
vn -1 0 0
vn -1 0 0
vn -1 0 0
vn -1 0 0
vn -1 0 0
vn 1 0 0
vn 1 0 0
vn 1 0 0
vn 1 0 0
vn 1 0 0
vn 1 0 0
vn 1 0 0
vn 1 0 0
vn 1 0 0
vn 1 0 0
vn 1 0 0
usemtl DarkWoodSmooth
f 155/77/324 154/76/323 153/75/322
f 158/80/327 157/79/326 156/78/325
f 161/83/330 160/82/329 159/81/328
f 164/86/333 163/85/332 162/84/331
f 167/89/336 166/88/335 165/87/334
f 170/92/339 169/91/338 168/90/337
f 173/95/342 172/94/341 171/93/340
f 176/98/345 175/97/344 174/96/343
f 179/101/348 178/100/347 177/99/346
f 180/102/349 179/101/348 177/99/346
f 183/105/352 182/104/351 181/103/350
f 184/106/353 183/105/352 181/103/350
f 187/109/356 186/108/355 185/107/354
f 188/110/357 187/109/356 185/107/354
f 191/113/360 190/112/359 189/111/358
f 192/114/361 191/113/360 189/111/358
f 195/117/364 194/116/363 193/115/362
f 196/118/365 195/117/364 193/115/362
f 199/121/368 198/120/367 197/119/366
f 200/122/369 199/121/368 197/119/366
f 203/125/372 202/124/371 201/123/370
f 204/126/373 203/125/372 201/123/370
f 207/129/376 206/128/375 205/127/374
f 208/130/377 207/129/376 205/127/374
f 211/133/380 210/132/379 209/131/378
f 212/134/381 211/133/380 209/131/378
f 215/137/384 214/136/383 213/135/382
f 216/138/385 215/137/384 213/135/382
f 219/141/388 218/140/387 217/139/386
f 220/142/389 219/141/388 217/139/386
f 223/145/392 222/144/391 221/143/390
f 224/146/393 223/145/392 221/143/390
f 227/149/396 226/148/395 225/147/394
f 228/150/397 227/149/396 225/147/394
f 231/153/400 230/152/399 229/151/398
f 232/154/401 231/153/400 229/151/398
f 235/157/404 234/156/403 233/155/402
f 236/158/405 235/157/404 233/155/402
f 239/161/408 238/160/407 237/159/406
f 240/162/409 239/161/408 237/159/406
f 243/165/412 242/164/411 241/163/410
f 244/166/413 243/165/412 241/163/410
f 247/169/416 246/168/415 245/167/414
f 248/170/417 247/169/416 245/167/414
f 251/173/420 250/172/419 249/171/418
f 252/174/421 251/173/420 249/171/418
f 253/175/422 251/173/420 252/174/421
f 254/176/423 253/175/422 252/174/421
f 257/179/426 256/178/425 255/177/424
f 256/178/425 258/180/427 255/177/424
f 255/177/424 258/180/427 259/181/428
f 258/180/427 260/182/429 259/181/428
f 263/185/432 262/184/431 261/183/430
f 264/186/433 263/185/432 261/183/430
f 267/189/436 266/188/435 265/187/434
f 268/190/437 267/189/436 265/187/434
f 271/193/440 270/192/439 269/191/438
f 272/194/441 271/193/440 269/191/438
f 275/197/444 274/196/443 273/195/442
f 274/196/443 276/198/445 273/195/442
f 273/195/442 276/198/445 277/199/446
f 276/198/445 278/200/447 277/199/446
f 281/203/450 280/202/449 279/201/448
f 280/202/449 282/204/451 279/201/448
f 279/201/448 282/204/451 283/205/452
f 282/204/451 284/206/453 283/205/452
f 287/209/456 286/208/455 285/207/454
f 288/210/457 287/209/456 285/207/454
f 291/213/460 290/212/459 289/211/458
f 292/214/461 291/213/460 289/211/458
f 295/217/464 294/216/463 293/215/462
f 296/218/465 295/217/464 293/215/462
f 299/221/468 298/220/467 297/219/466
f 300/222/469 299/221/468 297/219/466
f 303/225/472 302/224/471 301/223/470
f 304/226/473 303/225/472 301/223/470
