mtllib Dresser_205_1.mtl
v -0.26657 0.17258 0.10921
v -0.26657 0.16671 0.10333
v 0.26658 0.17258 0.10921
v 0.26658 0.16671 0.10333
v -0.27245 -0.12745 0.1091
v -0.26657 -0.13333 0.1091
v -0.26657 -0.12745 0.10323
v 0.26658 -0.13333 0.1091
v 0.27246 -0.12745 0.1091
v 0.26658 -0.12745 0.10323
v 0.26658 0.17258 0.12244
v 0.27246 0.16671 0.12243
v 0.26658 0.1667 0.12831
v -0.26657 0.17258 0.12244
v -0.26657 0.1667 0.12831
v -0.27245 0.16671 0.12243
v -0.27245 -0.12746 0.12233
v -0.26657 -0.12746 0.12821
v -0.26657 -0.13333 0.12233
v 0.26658 -0.13333 0.12233
v 0.26658 -0.12746 0.12821
v 0.27246 -0.12746 0.12233
v -0.27245 0.16671 0.12243
v -0.27245 -0.12746 0.12233
v -0.27245 -0.12745 0.1091
v 0.27246 -0.12745 0.1091
v 0.27246 -0.12746 0.12233
v 0.27246 0.16671 0.12243
v 0.26658 -0.12746 0.12821
v -0.26657 -0.12746 0.12821
v -0.26657 0.1667 0.12831
v 0.26658 0.1667 0.12831
v 0.26658 0.17258 0.10921
v 0.26658 0.17258 0.12244
v -0.26657 0.17258 0.12244
v -0.26657 0.17258 0.10921
v 0.23883 0.15679 -0.1117
v 0.23883 -0.09994 -0.11179
v -0.23882 -0.09994 -0.11179
v -0.23882 0.15679 -0.1117
v -0.26657 -0.13333 0.1091
v -0.26657 -0.13333 0.12233
v 0.26658 -0.13333 0.12233
v 0.26658 -0.13333 0.1091
v 0.26658 0.16671 0.10333
v 0.26658 0.17258 0.10921
v -0.26657 0.17258 0.10921
v -0.26657 0.16671 0.10333
v -0.26657 0.16671 0.10333
v -0.27245 -0.12745 0.1091
v -0.26657 -0.12745 0.10323
v 0.26658 -0.13333 0.1091
v 0.26658 -0.12745 0.10323
v -0.26657 -0.12745 0.10323
v -0.26657 -0.13333 0.1091
v 0.26658 0.16671 0.10333
v 0.26658 -0.12745 0.10323
v 0.27246 -0.12745 0.1091
v 0.26658 0.17258 0.12244
v 0.26658 0.1667 0.12831
v -0.26657 0.1667 0.12831
v -0.26657 0.17258 0.12244
v -0.27245 0.16671 0.12243
v -0.26657 0.1667 0.12831
v -0.26657 -0.12746 0.12821
v -0.27245 -0.12746 0.12233
v 0.26658 -0.12746 0.12821
v 0.26658 -0.13333 0.12233
v -0.26657 -0.13333 0.12233
v -0.26657 -0.12746 0.12821
v 0.26658 0.1667 0.12831
v 0.27246 0.16671 0.12243
v 0.27246 -0.12746 0.12233
v 0.26658 -0.12746 0.12821
v -0.26657 0.17258 0.10921
v -0.26657 0.17258 0.12244
v -0.27245 0.16671 0.12243
v 0.27246 0.16671 0.12243
v 0.26658 0.17258 0.12244
v 0.26658 0.17258 0.10921
v -0.26657 -0.13333 0.1091
v -0.27245 -0.12745 0.1091
v -0.27245 -0.12746 0.12233
v -0.26657 -0.13333 0.12233
v 0.27246 -0.12745 0.1091
v 0.26658 -0.13333 0.1091
v 0.26658 -0.13333 0.12233
v 0.27246 -0.12746 0.12233
v 0.25658 0.15671 0.10333
v -0.26657 0.16671 0.10333
v -0.25657 0.15671 0.10333
v 0.26658 0.16671 0.10333
v 0.25658 -0.11745 0.10323
v 0.26658 -0.12745 0.10323
v -0.25657 0.15671 0.10333
v -0.26657 0.16671 0.10333
v -0.26657 -0.12745 0.10323
v -0.25657 -0.11745 0.10323
v 0.26658 -0.12745 0.10323
v 0.25658 -0.11745 0.10323
v 0.25658 -0.11737 -0.12954
v 0.25658 0.15679 -0.12945
v -0.25657 0.15679 -0.12945
v -0.25657 -0.11737 -0.12954
v -0.25657 -0.11745 0.10323
v -0.25657 -0.11737 -0.12954
v -0.25657 0.15679 -0.12945
v -0.25657 0.15671 0.10333
v 0.25658 -0.11745 0.10323
v 0.25658 -0.11737 -0.12954
v -0.25657 -0.11737 -0.12954
v -0.25657 -0.11745 0.10323
v 0.25658 0.15671 0.10333
v 0.25658 0.15679 -0.12945
v 0.25658 -0.11737 -0.12954
v 0.25658 -0.11745 0.10323
v -0.23882 0.15679 -0.1117
v -0.23882 -0.09994 -0.11179
v -0.23882 -0.10001 0.08549
v -0.23882 0.15672 0.08558
v 0.23883 0.15672 0.08558
v -0.25657 0.15671 0.10333
v -0.23882 0.15672 0.08558
v 0.25658 0.15671 0.10333
v 0.23883 0.15679 -0.1117
v 0.25658 0.15679 -0.12945
v -0.23882 0.15679 -0.1117
v 0.25658 0.15679 -0.12945
v 0.23883 0.15679 -0.1117
v -0.25657 0.15679 -0.12945
v -0.23882 0.15672 0.08558
v -0.25657 0.15671 0.10333
v -0.23882 -0.10001 0.08549
v -0.23882 -0.09994 -0.11179
v 0.23883 -0.09994 -0.11179
v 0.23883 -0.10001 0.08549
v -0.23882 0.15672 0.08558
v -0.23882 -0.10001 0.08549
v 0.23883 -0.10001 0.08549
v 0.23883 0.15672 0.08558
v 0.23883 0.15672 0.08558
v 0.23883 -0.10001 0.08549
v 0.23883 -0.09994 -0.11179
v 0.23883 0.15679 -0.1117
v -0.27245 -0.12745 0.1091
v -0.26657 -0.13333 0.1091
v -0.26657 -0.12745 0.10323
v -0.26657 0.16671 0.10333
v -0.26657 0.17258 0.10921
v 0.26658 -0.13333 0.1091
v 0.27246 -0.12745 0.1091
v 0.26658 -0.12745 0.10323
v 0.26658 0.17258 0.10921
v 0.26658 0.16671 0.10333
v -0.27245 0.16671 0.12243
v -0.26657 0.17258 0.12244
v -0.26657 0.1667 0.12831
v -0.27245 -0.12746 0.12233
v -0.26657 -0.12746 0.12821
v -0.26657 -0.13333 0.12233
v 0.26658 -0.13333 0.12233
v 0.26658 -0.12746 0.12821
v 0.27246 -0.12746 0.12233
v 0.26658 0.17258 0.12244
v 0.27246 0.16671 0.12243
v 0.26658 0.1667 0.12831
v -0.26657 -0.13333 0.1091
v -0.26657 -0.13333 0.12233
v 0.26658 -0.13333 0.12233
v 0.26658 -0.13333 0.1091
v 0.26658 -0.12746 0.12821
v -0.26657 -0.12746 0.12821
v -0.26657 0.1667 0.12831
v 0.26658 0.1667 0.12831
v -0.25657 -0.11745 0.10323
v -0.25657 -0.11737 -0.12954
v -0.25657 0.15679 -0.12945
v -0.25657 0.15671 0.10333
v 0.26658 0.17258 0.10921
v 0.26658 0.17258 0.12244
v -0.26657 0.17258 0.12244
v -0.26657 0.17258 0.10921
v -0.27245 0.16671 0.12243
v -0.27245 -0.12746 0.12233
v -0.27245 -0.12745 0.1091
v 0.27246 -0.12745 0.1091
v 0.27246 -0.12746 0.12233
v 0.27246 0.16671 0.12243
v -0.26657 0.16671 0.10333
v -0.27245 -0.12745 0.1091
v -0.26657 -0.12745 0.10323
v -0.26657 -0.12745 0.10323
v -0.26657 -0.13333 0.1091
v 0.26658 -0.13333 0.1091
v 0.26658 -0.12745 0.10323
v 0.26658 0.16671 0.10333
v 0.26658 0.17258 0.10921
v -0.26657 0.17258 0.10921
v -0.26657 0.16671 0.10333
v 0.26658 0.16671 0.10333
v 0.26658 -0.12745 0.10323
v 0.27246 -0.12745 0.1091
v -0.27245 0.16671 0.12243
v -0.26657 0.1667 0.12831
v -0.26657 -0.12746 0.12821
v -0.27245 -0.12746 0.12233
v -0.26657 -0.13333 0.12233
v -0.26657 -0.12746 0.12821
v 0.26658 -0.12746 0.12821
v 0.26658 -0.13333 0.12233
v 0.26658 0.17258 0.12244
v 0.26658 0.1667 0.12831
v -0.26657 0.1667 0.12831
v -0.26657 0.17258 0.12244
v 0.26658 0.1667 0.12831
v 0.27246 0.16671 0.12243
v 0.27246 -0.12746 0.12233
v 0.26658 -0.12746 0.12821
v 0.26658 0.17258 0.10921
v 0.27246 0.16671 0.12243
v 0.26658 0.17258 0.12244
v 0.26658 -0.13333 0.12233
v 0.27246 -0.12746 0.12233
v 0.27246 -0.12745 0.1091
v 0.26658 -0.13333 0.1091
v -0.26657 -0.13333 0.1091
v -0.27245 -0.12745 0.1091
v -0.27245 -0.12746 0.12233
v -0.26657 -0.13333 0.12233
v -0.26657 0.17258 0.12244
v -0.27245 0.16671 0.12243
v -0.26657 0.17258 0.10921
v -0.25657 0.15671 0.10333
v -0.26657 0.16671 0.10333
v -0.26657 -0.12745 0.10323
v -0.25657 -0.11745 0.10323
v 0.26658 -0.12745 0.10323
v 0.25658 -0.11745 0.10323
v 0.25658 0.15671 0.10333
v -0.26657 0.16671 0.10333
v -0.25657 0.15671 0.10333
v 0.26658 0.16671 0.10333
v 0.25658 -0.11745 0.10323
v 0.26658 -0.12745 0.10323
v 0.25658 -0.11737 -0.12954
v 0.25658 0.15679 -0.12945
v -0.25657 0.15679 -0.12945
v -0.25657 -0.11737 -0.12954
v 0.25658 -0.11745 0.10323
v 0.25658 -0.11737 -0.12954
v -0.25657 -0.11737 -0.12954
v -0.25657 -0.11745 0.10323
v 0.25658 0.15671 0.10333
v 0.25658 0.15679 -0.12945
v 0.25658 -0.11737 -0.12954
v 0.25658 -0.11745 0.10323
v 0.23883 0.15672 0.08558
v -0.25657 0.15671 0.10333
v -0.23882 0.15672 0.08558
v 0.25658 0.15671 0.10333
v 0.23883 0.15679 -0.1117
v 0.25658 0.15679 -0.12945
v -0.23882 0.15679 -0.1117
v 0.25658 0.15679 -0.12945
v 0.23883 0.15679 -0.1117
v -0.25657 0.15679 -0.12945
v -0.23882 0.15672 0.08558
v -0.25657 0.15671 0.10333
v -0.23882 -0.10001 0.08549
v -0.23882 -0.09994 -0.11179
v 0.23883 -0.09994 -0.11179
v 0.23883 -0.10001 0.08549
v -0.23882 0.15679 -0.1117
v -0.23882 -0.09994 -0.11179
v -0.23882 -0.10001 0.08549
v -0.23882 0.15672 0.08558
v 0.23883 0.15672 0.08558
v 0.23883 -0.10001 0.08549
v 0.23883 -0.09994 -0.11179
v 0.23883 0.15679 -0.1117
v 0.23883 0.15679 -0.1117
v 0.23883 -0.09994 -0.11179
v -0.23882 -0.09994 -0.11179
v -0.23882 0.15679 -0.1117
v -0.23882 0.15672 0.08558
v -0.23882 -0.10001 0.08549
v 0.23883 -0.10001 0.08549
v 0.23883 0.15672 0.08558
v 0.27246 -0.12745 0.1091
v 0.26658 -0.12745 0.10323
v 0.26658 -0.13333 0.1091
v 0.26658 0.17258 0.10921
v 0.26658 0.16671 0.10333
v -0.26657 -0.13333 0.1091
v -0.26657 -0.12745 0.10323
v -0.27245 -0.12745 0.1091
v -0.26657 0.17258 0.10921
v -0.26657 0.16671 0.10333
v 0.27246 0.16671 0.12243
v 0.26658 0.1667 0.12831
v 0.26658 0.17258 0.12244
v 0.27246 -0.12746 0.12233
v 0.26658 -0.13333 0.12233
v 0.26658 -0.12746 0.12821
v -0.26657 -0.13333 0.12233
v -0.27245 -0.12746 0.12233
v -0.26657 -0.12746 0.12821
v -0.26657 0.17258 0.12244
v -0.26657 0.1667 0.12831
v -0.27245 0.16671 0.12243
v -0.26657 -0.13333 0.1091
v -0.26657 -0.13333 0.12233
v 0.26658 -0.13333 0.12233
v 0.26658 -0.13333 0.1091
v 0.26658 -0.12746 0.12821
v -0.26657 -0.12746 0.12821
v -0.26657 0.1667 0.12831
v 0.26658 0.1667 0.12831
v 0.27246 -0.12745 0.1091
v 0.27246 -0.12746 0.12233
v 0.27246 0.16671 0.12243
v 0.26658 0.17258 0.10921
v 0.26658 0.17258 0.12244
v -0.26657 0.17258 0.12244
v -0.26657 0.17258 0.10921
v -0.27245 0.16671 0.12243
v -0.27245 -0.12746 0.12233
v -0.27245 -0.12745 0.1091
v -0.25657 -0.11745 0.10323
v -0.25657 -0.11737 -0.12954
v -0.25657 0.15679 -0.12945
v -0.25657 0.15671 0.10333
v 0.26658 0.16671 0.10333
v 0.26658 -0.12745 0.10323
v 0.27246 -0.12745 0.1091
v -0.26657 -0.12745 0.10323
v -0.26657 -0.13333 0.1091
v 0.26658 -0.13333 0.1091
v 0.26658 -0.12745 0.10323
v 0.26658 0.16671 0.10333
v 0.26658 0.17258 0.10921
v -0.26657 0.17258 0.10921
v -0.26657 0.16671 0.10333
v -0.26657 0.16671 0.10333
v -0.27245 -0.12745 0.1091
v -0.26657 -0.12745 0.10323
v 0.26658 0.1667 0.12831
v 0.27246 0.16671 0.12243
v 0.27246 -0.12746 0.12233
v 0.26658 -0.12746 0.12821
v -0.26657 -0.13333 0.12233
v -0.26657 -0.12746 0.12821
v 0.26658 -0.12746 0.12821
v 0.26658 -0.13333 0.12233
v 0.26658 0.17258 0.12244
v 0.26658 0.1667 0.12831
v -0.26657 0.1667 0.12831
v -0.26657 0.17258 0.12244
v -0.27245 0.16671 0.12243
v -0.26657 0.1667 0.12831
v -0.26657 -0.12746 0.12821
v -0.27245 -0.12746 0.12233
v 0.26658 0.17258 0.10921
v 0.27246 0.16671 0.12243
v 0.26658 0.17258 0.12244
v 0.26658 -0.13333 0.12233
v 0.27246 -0.12746 0.12233
v 0.27246 -0.12745 0.1091
v 0.26658 -0.13333 0.1091
v -0.27245 -0.12746 0.12233
v -0.26657 -0.13333 0.12233
v -0.26657 -0.13333 0.1091
v -0.27245 -0.12745 0.1091
v -0.26657 0.17258 0.10921
v -0.26657 0.17258 0.12244
v -0.27245 0.16671 0.12243
v 0.25658 -0.11737 -0.12954
v 0.25658 0.15679 -0.12945
v -0.25657 0.15679 -0.12945
v -0.25657 -0.11737 -0.12954
v -0.23882 0.15679 -0.1117
v -0.23882 -0.09994 -0.11179
v -0.23882 -0.10001 0.08549
v -0.23882 0.15672 0.08558
v 0.25658 0.15671 0.10333
v 0.25658 0.15679 -0.12945
v 0.25658 -0.11737 -0.12954
v 0.25658 -0.11745 0.10323
v -0.23882 0.15672 0.08558
v -0.23882 -0.10001 0.08549
v 0.23883 -0.10001 0.08549
v 0.23883 0.15672 0.08558
v 0.25658 -0.11745 0.10323
v 0.25658 -0.11737 -0.12954
v -0.25657 -0.11737 -0.12954
v -0.25657 -0.11745 0.10323
v -0.23882 -0.10001 0.08549
v -0.23882 -0.09994 -0.11179
v 0.23883 -0.09994 -0.11179
v 0.23883 -0.10001 0.08549
v 0.23883 0.15679 -0.1117
v 0.23883 -0.09994 -0.11179
v -0.23882 -0.09994 -0.11179
v -0.23882 0.15679 -0.1117
v 0.23883 0.15672 0.08558
v 0.23883 -0.10001 0.08549
v 0.23883 -0.09994 -0.11179
v 0.23883 0.15679 -0.1117
v 0.25658 -0.11745 0.10323
v 0.26658 -0.12745 0.10323
v 0.26658 0.16671 0.10333
v 0.25658 0.15671 0.10333
v -0.25657 -0.11745 0.10323
v -0.26657 0.16671 0.10333
v -0.26657 -0.12745 0.10323
v -0.25657 0.15671 0.10333
v -0.23882 0.15679 -0.1117
v 0.25658 0.15679 -0.12945
v 0.23883 0.15679 -0.1117
v -0.25657 0.15679 -0.12945
v 0.25658 0.15671 0.10333
v -0.23882 0.15672 0.08558
v 0.23883 0.15672 0.08558
v -0.25657 0.15671 0.10333
v 0.27246 0.16671 0.10921
v 0.26658 0.17258 0.10921
v 0.26658 0.16671 0.10333
v 0.27246 -0.12745 0.1091
v 0.26658 -0.12745 0.10323
v 0.26658 -0.13333 0.1091
v -0.26657 0.17258 0.10921
v -0.27245 0.16671 0.10921
v -0.26657 0.16671 0.10333
v -0.26657 -0.13333 0.1091
v -0.26657 -0.12745 0.10323
v -0.27245 -0.12745 0.1091
v 0.27246 0.16671 0.12243
v 0.26658 0.1667 0.12831
v 0.26658 0.17258 0.12244
v 0.27246 -0.12746 0.12233
v 0.26658 -0.13333 0.12233
v 0.26658 -0.12746 0.12821
v -0.26657 0.17258 0.12244
v -0.26657 0.1667 0.12831
v -0.27245 0.16671 0.12243
v -0.26657 -0.13333 0.12233
v -0.27245 -0.12746 0.12233
v -0.26657 -0.12746 0.12821
v 0.26658 0.17258 0.10921
v 0.26658 0.17258 0.12244
v -0.26657 0.17258 0.12244
v -0.26657 0.17258 0.10921
v 0.26658 -0.12746 0.12821
v -0.26657 -0.12746 0.12821
v -0.26657 0.1667 0.12831
v 0.26658 0.1667 0.12831
v -0.26657 -0.13333 0.1091
v -0.26657 -0.13333 0.12233
v 0.26658 -0.13333 0.12233
v 0.26658 -0.13333 0.1091
v 0.27246 -0.12745 0.1091
v 0.27246 -0.12746 0.12233
v 0.27246 0.16671 0.12243
v 0.27246 0.16671 0.10921
v -0.27245 0.16671 0.10921
v -0.27245 0.16671 0.12243
v -0.27245 -0.12746 0.12233
v -0.27245 -0.12745 0.1091
v 0.27246 0.16671 0.10921
v 0.26658 0.16671 0.10333
v 0.26658 -0.12745 0.10323
v 0.27246 -0.12745 0.1091
v 0.26658 0.16671 0.10333
v 0.26658 0.17258 0.10921
v -0.26657 0.17258 0.10921
v -0.26657 0.16671 0.10333
v 0.26658 -0.13333 0.1091
v 0.26658 -0.12745 0.10323
v -0.26657 -0.12745 0.10323
v -0.26657 -0.13333 0.1091
v -0.26657 0.16671 0.10333
v -0.27245 0.16671 0.10921
v -0.27245 -0.12745 0.1091
v -0.26657 -0.12745 0.10323
v 0.26658 0.1667 0.12831
v 0.27246 0.16671 0.12243
v 0.27246 -0.12746 0.12233
v 0.26658 -0.12746 0.12821
v 0.26658 0.17258 0.12244
v 0.26658 0.1667 0.12831
v -0.26657 0.1667 0.12831
v -0.26657 0.17258 0.12244
v 0.26658 -0.12746 0.12821
v 0.26658 -0.13333 0.12233
v -0.26657 -0.13333 0.12233
v -0.26657 -0.12746 0.12821
v -0.27245 0.16671 0.12243
v -0.26657 0.1667 0.12831
v -0.26657 -0.12746 0.12821
v -0.27245 -0.12746 0.12233
v 0.26658 0.17258 0.10921
v 0.27246 0.16671 0.10921
v 0.27246 0.16671 0.12243
v 0.26658 0.17258 0.12244
v 0.26658 -0.13333 0.12233
v 0.27246 -0.12746 0.12233
v 0.27246 -0.12745 0.1091
v 0.26658 -0.13333 0.1091
v -0.27245 0.16671 0.10921
v -0.26657 0.17258 0.10921
v -0.26657 0.17258 0.12244
v -0.27245 0.16671 0.12243
v -0.27245 -0.12746 0.12233
v -0.26657 -0.13333 0.12233
v -0.26657 -0.13333 0.1091
v -0.27245 -0.12745 0.1091
v -0.25657 -0.11745 0.10323
v -0.25657 -0.11737 -0.12954
v -0.25657 0.15679 -0.12945
v -0.25657 0.15671 0.10333
v 0.25658 -0.11737 -0.12954
v 0.25658 0.15679 -0.12945
v -0.25657 0.15679 -0.12945
v -0.25657 -0.11737 -0.12954
v 0.25658 0.15671 0.10333
v 0.25658 0.15679 -0.12945
v 0.25658 -0.11737 -0.12954
v 0.25658 -0.11745 0.10323
v 0.25658 -0.11745 0.10323
v 0.25658 -0.11737 -0.12954
v -0.25657 -0.11737 -0.12954
v -0.25657 -0.11745 0.10323
v -0.23882 -0.10001 0.08549
v -0.23882 -0.09994 -0.11179
v 0.23883 -0.09994 -0.11179
v 0.23883 -0.10001 0.08549
v 0.23883 0.15679 -0.1117
v 0.23883 -0.09994 -0.11179
v -0.23882 -0.09994 -0.11179
v -0.23882 0.15679 -0.1117
v 0.23883 0.15672 0.08558
v 0.23883 -0.10001 0.08549
v 0.23883 -0.09994 -0.11179
v 0.23883 0.15679 -0.1117
v -0.23882 0.15679 -0.1117
v -0.23882 -0.09994 -0.11179
v -0.23882 -0.10001 0.08549
v -0.23882 0.15672 0.08558
v -0.23882 0.15672 0.08558
v -0.23882 -0.10001 0.08549
v 0.23883 -0.10001 0.08549
v 0.23883 0.15672 0.08558
v 0.25658 -0.11745 0.10323
v 0.26658 -0.12745 0.10323
v 0.26658 0.16671 0.10333
v 0.25658 0.15671 0.10333
v -0.25657 -0.11745 0.10323
v -0.26657 0.16671 0.10333
v -0.26657 -0.12745 0.10323
v -0.25657 0.15671 0.10333
v 0.23883 0.15672 0.08558
v 0.25658 0.15671 0.10333
v -0.25657 0.15671 0.10333
v -0.23882 0.15672 0.08558
v 0.23883 0.15679 -0.1117
v -0.25657 0.15679 -0.12945
v 0.25658 0.15679 -0.12945
v -0.23882 0.15679 -0.1117
vt 0.2640352 0.821299
vt 0.2669725 0.8183616
vt 0.2640352 0.8183616
vt 0.257421 0.821299
vt 0.257421 0.8183616
vt 0.2544837 0.8183616
vt 0.2640352 0.8183616
vt 0.257421 0.8183616
vt 0.257421 0.6712801
vt 0.2640352 0.6712801
vt 0.2640352 0.6712801
vt 0.257421 0.6712801
vt 0.257421 0.8183616
vt 0.2640352 0.8183616
vt 0.2640352 0.8183616
vt 0.2669725 0.8183616
vt 0.2669725 0.6712801
vt 0.2640352 0.6712801
vt 0.2544837 0.8183616
vt 0.257421 0.8183616
vt 0.257421 0.6712801
vt 0.2544837 0.6712801
vt 0.257421 0.8183616
vt 0.257421 0.821299
vt 0.2640352 0.821299
vt 0.2640352 0.8183616
vt 0.2669725 0.6762801
vt 0.3833599 0.6762801
vt 0.3833599 0.8133616
vt 0.2669725 0.8133616
vt 0.2669725 0.8133616
vt 0.3833599 0.8133616
vt 0.3833599 0.6762801
vt 0.2669725 0.6762801
vt 0.374486 0.8133616
vt 0.374486 0.6849966
vt 0.2758465 0.6849966
vt 0.2758465 0.8133616
vt 0.2758465 0.8133616
vt 0.2758465 0.6849966
vt 0.374486 0.6849966
vt 0.374486 0.8133616
vt 0.3755438 0.2640352
vt 0.3726065 0.2669725
vt 0.3726065 0.2640352
vt 0.3755438 0.2640352
vt 0.3726065 0.2640352
vt 0.3726065 0.2669725
vt 0.1060302 0.2640352
vt 0.1030929 0.2640352
vt 0.1060302 0.2669725
vt 0.3755438 0.257421
vt 0.3726065 0.2544837
vt 0.3726065 0.257421
vt 0.3755438 0.257421
vt 0.3726065 0.257421
vt 0.3726065 0.2544837
vt 0.1060302 0.257421
vt 0.1060302 0.2544837
vt 0.1030929 0.257421
vt 0.1060302 0.2640352
vt 0.1060302 0.257421
vt 0.3726065 0.257421
vt 0.3726065 0.2640352
vt 0.3726065 0.2640352
vt 0.3726065 0.257421
vt 0.1060302 0.257421
vt 0.1060302 0.2640352
vt 0.1060302 0.2669725
vt 0.1060302 0.2640352
vt 0.3726065 0.2640352
vt 0.3726065 0.2669725
vt 0.3726065 0.2669725
vt 0.3726065 0.2640352
vt 0.1060302 0.2640352
vt 0.1060302 0.2669725
vt 0.1060302 0.257421
vt 0.1060302 0.2544837
vt 0.3726065 0.2544837
vt 0.3726065 0.257421
vt 0.3726065 0.257421
vt 0.3726065 0.2544837
vt 0.1060302 0.2544837
vt 0.1060302 0.257421
vt 0.3726065 0.2640352
vt 0.3755438 0.2640352
vt 0.3755438 0.257421
vt 0.3726065 0.257421
vt 0.3726065 0.257421
vt 0.3755438 0.257421
vt 0.3755438 0.2640352
vt 0.3726065 0.2640352
vt 0.1030929 0.2640352
vt 0.1060302 0.2640352
vt 0.1060302 0.257421
vt 0.1030929 0.257421
vt 0.3676066 0.2669725
vt 0.3676066 0.3833599
vt 0.1110301 0.3833599
vt 0.1110301 0.2669725
vt 0.1199043 0.2758465
vt 0.1199043 0.374486
vt 0.3587325 0.374486
vt 0.3587325 0.2758465
vt 0.1199043 0.374486
vt 0.3676066 0.3833599
vt 0.3587325 0.374486
vt 0.1110301 0.3833599
vt 0.3676066 0.2669725
vt 0.1199043 0.2758465
vt 0.3587325 0.2758465
vt 0.1110301 0.2669725
vt 0.3755438 0.2640352
vt 0.3726065 0.2640352
vt 0.3726065 0.2669725
vt 0.3755438 0.2640352
vt 0.3726065 0.2669725
vt 0.3726065 0.2640352
vt 0.2640352 0.821299
vt 0.2640352 0.8183616
vt 0.2669725 0.8183616
vt 0.1060302 0.2640352
vt 0.1060302 0.2669725
vt 0.1030929 0.2640352
vt 0.3755438 0.257421
vt 0.3726065 0.2544837
vt 0.3726065 0.257421
vt 0.3755438 0.257421
vt 0.3726065 0.257421
vt 0.3726065 0.2544837
vt 0.257421 0.821299
vt 0.2544837 0.8183616
vt 0.257421 0.8183616
vt 0.1060302 0.257421
vt 0.1030929 0.257421
vt 0.1060302 0.2544837
vt 0.3726065 0.2640352
vt 0.3726065 0.257421
vt 0.1060302 0.257421
vt 0.1060302 0.2640352
vt 0.3726065 0.6712801
vt 0.1060302 0.6712801
vt 0.1060302 0.8183616
vt 0.3726065 0.8183616
vt 0.1060302 0.2640352
vt 0.1060302 0.257421
vt 0.3726065 0.257421
vt 0.3726065 0.2640352
vt 0.2640352 0.6712801
vt 0.257421 0.6712801
vt 0.257421 0.8183616
vt 0.2640352 0.8183616
vt 0.2640352 0.8183616
vt 0.257421 0.8183616
vt 0.257421 0.6712801
vt 0.2640352 0.6712801
vt 0.3755438 0.8183616
vt 0.3726065 0.8183616
vt 0.3726065 0.6712801
vt 0.3755438 0.6712801
vt 0.3726065 0.2669725
vt 0.3726065 0.2640352
vt 0.1060302 0.2640352
vt 0.1060302 0.2669725
vt 0.3726065 0.2640352
vt 0.3726065 0.2669725
vt 0.1060302 0.2669725
vt 0.1060302 0.2640352
vt 0.2669725 0.8183616
vt 0.2640352 0.8183616
vt 0.2640352 0.6712801
vt 0.2669725 0.6712801
vt 0.3726065 0.8183616
vt 0.3755438 0.8183616
vt 0.3755438 0.6712801
vt 0.3726065 0.6712801
vt 0.3726065 0.257421
vt 0.3726065 0.2544837
vt 0.1060302 0.2544837
vt 0.1060302 0.257421
vt 0.3726065 0.2544837
vt 0.3726065 0.257421
vt 0.1060302 0.257421
vt 0.1060302 0.2544837
vt 0.257421 0.8183616
vt 0.2544837 0.8183616
vt 0.2544837 0.6712801
vt 0.257421 0.6712801
vt 0.3726065 0.2640352
vt 0.3755438 0.2640352
vt 0.3755438 0.257421
vt 0.3726065 0.257421
vt 0.3726065 0.257421
vt 0.3755438 0.257421
vt 0.3755438 0.2640352
vt 0.3726065 0.2640352
vt 0.2640352 0.8183616
vt 0.2640352 0.821299
vt 0.257421 0.821299
vt 0.257421 0.8183616
vt 0.1030929 0.257421
vt 0.1060302 0.257421
vt 0.1060302 0.2640352
vt 0.1030929 0.2640352
vt 0.2669725 0.6762801
vt 0.3833599 0.6762801
vt 0.3833599 0.8133616
vt 0.2669725 0.8133616
vt 0.3676066 0.6762801
vt 0.3676066 0.8133616
vt 0.1110301 0.8133616
vt 0.1110301 0.6762801
vt 0.2669725 0.8133616
vt 0.3833599 0.8133616
vt 0.3833599 0.6762801
vt 0.2669725 0.6762801
vt 0.3676066 0.2669725
vt 0.3676066 0.3833599
vt 0.1110301 0.3833599
vt 0.1110301 0.2669725
vt 0.1199043 0.2758465
vt 0.1199043 0.374486
vt 0.3587325 0.374486
vt 0.3587325 0.2758465
vt 0.3587325 0.8133616
vt 0.3587325 0.6849966
vt 0.1199043 0.6849966
vt 0.1199043 0.8133616
vt 0.2758465 0.8133616
vt 0.2758465 0.6849966
vt 0.374486 0.6849966
vt 0.374486 0.8133616
vt 0.374486 0.8133616
vt 0.374486 0.6849966
vt 0.2758465 0.6849966
vt 0.2758465 0.8133616
vt 0.1199043 0.8133616
vt 0.1199043 0.6849966
vt 0.3587325 0.6849966
vt 0.3587325 0.8133616
vt 0.3676066 0.6762801
vt 0.3726065 0.6712801
vt 0.3726065 0.8183616
vt 0.3676066 0.8133616
vt 0.1110301 0.6762801
vt 0.1060302 0.8183616
vt 0.1060302 0.6712801
vt 0.1110301 0.8133616
vt 0.3587325 0.2758465
vt 0.3676066 0.2669725
vt 0.1110301 0.2669725
vt 0.1199043 0.2758465
vt 0.3587325 0.374486
vt 0.1110301 0.3833599
vt 0.3676066 0.3833599
vt 0.1199043 0.374486
vn 1 0 0
vn 1 0 0
vn 1 0 0
vn 1 0 0
vn -1 0 0
vn -1 0 0
vn -1 0 0
vn -1 0 0
vn 0 -1 -0.0003455752
vn 0 -1 -0.0003455752
vn 0 -1 -0.0003455752
vn 0 -1 -0.0003455752
vn 1 0 0
vn 1 0 0
vn 1 0 0
vn 1 0 0
vn 0 -0.0003455752 1
vn 0 -0.0003455752 1
vn 0 -0.0003455752 1
vn 0 -0.0003455752 1
vn -1 0 0
vn -1 0 0
vn -1 0 0
vn -1 0 0
vn 0 -1 -0.0003455752
vn 0 -1 -0.0003455752
vn 0 -1 -0.0003455752
vn 0 -1 -0.0003455752
vn 0 1 0.0003455752
vn 0 1 0.0003455752
vn 0 1 0.0003455752
vn 0 1 0.0003455752
vn 0 0.0003455752 -1
vn 0 0.0003455752 -1
vn 0 0.0003455752 -1
vn 0 0.0003455752 -1
vn 0 -1 -0.0003455752
vn 0 -1 -0.0003455752
vn 0 -1 -0.0003455752
vn 0 -1 -0.0003455752
vn 1 0 0
vn 1 0 0
vn 1 0 0
vn 1 0 0
vn -1 0 0
vn -1 0 0
vn -1 0 0
vn -1 0 0
vn 0 -0.0003455752 1
vn 0 -0.0003455752 1
vn 0 -0.0003455752 1
vn 0 -0.0003455752 1
vn 1 0 0
vn 1 0 0
vn 1 0 0
vn 1 0 0
vn 0 1 0.0003455752
vn 0 1 0.0003455752
vn 0 1 0.0003455752
vn 0 1 0.0003455752
vn -1 0 0
vn -1 0 0
vn -1 0 0
vn -1 0 0
vn 0 0.0003455752 -1
vn 0 0.0003455752 -1
vn 0 0.0003455752 -1
vn 0 0.0003455752 -1
vn 0 -1 -0.0003455752
vn 0 -1 -0.0003455752
vn 0 -1 -0.0003455752
vn 0 -1 -0.0003455752
vn 1 0 0
vn 1 0 0
vn 1 0 0
vn 1 0 0
vn 0 0.0003455752 -1
vn 0 0.0003455752 -1
vn 0 0.0003455752 -1
vn 0 0.0003455752 -1
vn -1 0 0
vn -1 0 0
vn -1 0 0
vn -1 0 0
vn 0 -0.0003455752 1
vn 0 -0.0003455752 1
vn 0 -0.0003455752 1
vn 0 -0.0003455752 1
vn -1 0 0
vn -1 0 0
vn -1 0 0
vn -1 0 0
vn 0 0.0003455752 -1
vn 0 0.0003455752 -1
vn 0 0.0003455752 -1
vn 0 0.0003455752 -1
vn 1 0 0
vn 1 0 0
vn 1 0 0
vn 1 0 0
vn 0 -0.0003455752 1
vn 0 -0.0003455752 1
vn 0 -0.0003455752 1
vn 0 -0.0003455752 1
vn 0 -0.0003455752 1
vn 0 -0.0003455752 1
vn 0 -0.0003455752 1
vn 0 -0.0003455752 1
vn 1 0 0
vn 1 0 0
vn 1 0 0
vn 1 0 0
vn 0 0.0003455752 -1
vn 0 0.0003455752 -1
vn 0 0.0003455752 -1
vn 0 0.0003455752 -1
vn -1 0 0
vn -1 0 0
vn -1 0 0
vn -1 0 0
vn 0 -1 -0.0003455752
vn 0 -1 -0.0003455752
vn 0 -1 -0.0003455752
vn 0 -1 -0.0003455752
vn 0 1 0.0003455752
vn 0 1 0.0003455752
vn 0 1 0.0003455752
vn 0 1 0.0003455752
vn 0 0.0003455752 -1
vn 0 0.0003455752 -1
vn 0 0.0003455752 -1
vn 0 0.0003455752 -1
vn 1 0 0
vn 1 0 0
vn 1 0 0
vn 1 0 0
vn 1 0 0
vn 0.7071068 0.7071068 0.0002443586
vn 0.7071068 0.7071068 0.0002443586
vn -1 0 0
vn -1 0 0
vn -1 0 0
vn -1 0 0
vn -1 0 0
vn 0 -1 -0.0003455752
vn 0 -1 -0.0003455752
vn 0 -1 -0.0003455752
vn 0 -1 -0.0003455752
vn 0 -1 -0.0003455752
vn 0 1 0.0003455752
vn 0 1 0.0003455752
vn 0 1 0.0003455752
vn 0 1 0.0003455752
vn 0 1 0.0003455752
vn 0.5773503 0.5771507 0.5775498
vn 0 -0.0003455752 1
vn 0 -0.0003455752 1
vn 0 -0.0003455752 1
vn 0 -0.0003455752 1
vn 0 -0.0003455752 1
vn 0 -0.0003455752 1
vn 0 -0.0003455752 1
vn 0 -0.0003455752 1
vn 0 -0.0003455752 1
vn 0 -0.0003455752 1
vn 0 -0.0003455752 1
vn 0 -0.0003455752 1
vn 0 -0.0003455752 1
vn 0 -0.0003455752 1
vn 0 -0.0003455752 1
vn 0 -0.0003455752 1
vn 0 -0.0003455752 1
vn 0 -0.0003455752 1
vn 0 -0.0003455752 1
vn 0 -0.0003455752 1
vn 0 -0.0003455752 1
vn 0.5773503 0.5771507 0.5775498
vn 0.5773503 0.5771507 0.5775498
vn 0 -0.0003455752 1
vn 0.5773503 0.5771507 0.5775498
vn 0.7071068 0.7071068 0.0002443586
vn 0.7071068 0.7071068 0.0002443586
vn 0.5773503 0.5771507 0.5775498
vn 0.5773503 0.5771507 0.5775498
vn 1 0 0
vn 1 0 0
vn 1 0 0
vn 1 0 0
vn -1 0 0
vn -1 0 0
vn -1 0 0
vn -1 0 0
vn 0.5773503 0.5775498 -0.5771507
vn 0.5773503 0.5775498 -0.5771507
vn 0.5773503 0.5775498 -0.5771507
vn -0.5773516 -0.577152 -0.5775471
vn -0.5773516 -0.577152 -0.5775471
vn -0.5773516 -0.577152 -0.5775471
vn 0.5773503 0.5771507 0.5775498
vn 0.5773503 0.5771507 0.5775498
vn 0.5773503 0.5771507 0.5775498
vn -1 0 0
vn -1 0 0
vn -1 0 0
vn -1 0 0
vn 1 0 0
vn 1 0 0
vn 1 0 0
vn 1 0 0
vn 0 -0.0003455752 1
vn 0 -0.0003455752 1
vn 0 -0.0003455752 1
vn 0 -0.0003455752 1
vn 0 1 0.0003455752
vn 0 1 0.0003455752
vn 0 1 0.0003455752
vn 0 1 0.0003455752
vn 0 -0.0003456967 1
vn 0 -0.0003456967 1
vn 0 -0.0003456967 1
vn 0 -0.0003456967 1
vn 0 -1 -0.0003455752
vn 0 -1 -0.0003455752
vn 0 -1 -0.0003455752
vn 0 -1 -0.0003455752
vn 0 0.7073509 -0.7068626
vn 0 0.7073509 -0.7068626
vn 0 0.7073509 -0.7068626
vn 0 0.7073509 -0.7068626
vn 0 -0.706863 -0.7073504
vn 0 -0.706863 -0.7073504
vn 0 -0.706863 -0.7073504
vn 0 -0.706863 -0.7073504
vn 0.7071061 0.0002443588 -0.7071074
vn 0.7071061 0.0002443588 -0.7071074
vn 0.7071061 0.0002443588 -0.7071074
vn 0.7071061 0.0002443588 -0.7071074
vn 0 0.7068623 0.7073513
vn 0 0.7068623 0.7073513
vn 0 0.7068623 0.7073513
vn 0 0.7068623 0.7073513
vn 0 -0.7073518 0.7068617
vn 0 -0.7073518 0.7068617
vn 0 -0.7073518 0.7068617
vn 0 -0.7073518 0.7068617
vn 0.7071061 -0.0002443588 0.7071074
vn 0.7071061 -0.0002443588 0.7071074
vn 0.7071061 -0.0002443588 0.7071074
vn 0.7071061 -0.0002443588 0.7071074
vn 0 0.0003455752 -1
vn 0 0.0003455752 -1
vn 0 0.0003455752 -1
vn 0 0.0003455752 -1
vn 0 0.0003455752 -1
vn 0 0.0003455752 -1
vn 0 0.0003455752 -1
vn 0 0.0003455752 -1
vn 0 0.0003455752 -1
vn 0 0.0003455752 -1
vn -1 0 0
vn -1 0 0
vn -1 0 0
vn -1 0 0
vn 0 -1 -0.0003455752
vn 0 -1 -0.0003455752
vn 0 -1 -0.0003455752
vn 0 -1 -0.0003455752
vn 1 0 0
vn 1 0 0
vn 1 0 0
vn 1 0 0
vn 1 0 0
vn 1 0 0
vn 1 0 0
vn 1 0 0
vn 0 1 0.0003455752
vn 0 1 0.0003455752
vn 0 1 0.0003455752
vn 0 1 0.0003455752
vn 0 1 0.0003455752
vn 0 1 0.0003455752
vn 0 1 0.0003455752
vn 0 1 0.0003455752
vn 0 1 0.0003455752
vn 0 1 0.0003455752
vn 0 1 0.0003455752
vn 0 1 0.0003455752
vn 0 0.0003455752 -1
vn 0 0.0003455752 -1
vn 0 0.0003455752 -1
vn 0 0.0003455752 -1
vn -1 0 0
vn -1 0 0
vn -1 0 0
vn -1 0 0
vn -1 0 0
vn -1 0 0
vn 1 0 0
vn 1 0 0
vn -1 0 0
vn -1 0 0
vn -1 0 0
vn -1 0 0
vn -1 0 0
vn -1 0 0
vn -1 0 0
vn -1 0 0
vn -1 0 0
vn -1 0 0
vn -1 0 0
vn -1 0 0
vn -1 0 0
vn -1 0 0
vn -1 0 0
vn -1 0 0
vn -1 0 0
vn -1 0 0
vn -1 0 0
vn 1 0 0
vn 1 0 0
vn 1 0 0
vn 1 0 0
vn 1 0 0
vn 1 0 0
vn 1 0 0
vn 1 0 0
vn 1 0 0
vn 1 0 0
vn 1 0 0
vn 0.5773503 0.5775498 -0.5771507
vn 0.5773503 0.5775498 -0.5771507
vn 0.5773503 0.5775498 -0.5771507
vn 0 -1 -0.0003455752
vn 0 -1 -0.0003455752
vn 0 -1 -0.0003455752
vn 0 -1 -0.0003455752
vn 0 -0.0003455752 1
vn 0 -0.0003455752 1
vn 0 -0.0003455752 1
vn 0 -0.0003455752 1
vn -1 0 0
vn -1 0 0
vn -1 0 0
vn -1 0 0
vn 0 1 0.0003455752
vn 0 1 0.0003455752
vn 0 1 0.0003455752
vn 0 1 0.0003455752
vn -1 0 0
vn -1 0 0
vn -1 0 0
vn -1 0 0
vn 1 0 0
vn 1 0 0
vn 1 0 0
vn 1 0 0
vn 0 0.7073509 -0.7068626
vn 0 0.7073509 -0.7068626
vn 0 0.7073509 -0.7068626
vn 0 0.7073509 -0.7068626
vn 0.7071061 0.0002443588 -0.7071074
vn 0.7071061 0.0002443588 -0.7071074
vn 0.7071061 0.0002443588 -0.7071074
vn 0.7071061 0.0002443588 -0.7071074
vn 0.7071068 0.7071068 0.0002443586
vn 0.7071068 0.7071068 0.0002443586
vn 0.7071068 0.7071068 0.0002443586
vn 0.7071068 0.7071068 0.0002443586
vn 0 0.0003455752 -1
vn 0 0.0003455752 -1
vn 0 0.0003455752 -1
vn 0 0.0003455752 -1
vn 0 0.0003455752 -1
vn 0 0.0003455752 -1
vn 0 0.0003455752 -1
vn 0 0.0003455752 -1
vn 0 0.0003455752 -1
vn 0 0.0003455752 -1
vn 0 -1 -0.0003455752
vn 0 -1 -0.0003455752
vn 0 -1 -0.0003455752
vn 0 -1 -0.0003455752
vn 1 0 0
vn 1 0 0
vn 1 0 0
vn 1 0 0
vn 0 1 0.0003455752
vn 0 1 0.0003455752
vn 0 1 0.0003455752
vn 0 1 0.0003455752
vn 0 1 0.0003455752
vn 0 1 0.0003455752
vn 0 1 0.0003455752
vn 0 1 0.0003455752
vn 0 1 0.0003455752
vn 0 1 0.0003455752
vn 0 1 0.0003455752
vn 0 1 0.0003455752
vn 0 1 0.0003455752
vn 0 1 0.0003455752
vn 0 1 0.0003455752
vn 0 1 0.0003455752
vn 1 0 0
vn 1 0 0
vn 1 0 0
vn 1 0 0
vn -1 0 0
vn -1 0 0
vn -1 0 0
vn -1 0 0
vn 0 -0.0003456967 1
vn 0 -0.0003456967 1
vn 0 -0.0003456967 1
vn 0 -0.0003456967 1
vn 0 0.0003455752 -1
vn 0 0.0003455752 -1
vn 0 0.0003455752 -1
vn 0 0.0003455752 -1
vn -1 0 0
vn -1 0 0
vn 1 0 0
vn 1 0 0
vn -1 0 0
vn -1 0 0
vn -1 0 0
vn -1 0 0
vn -1 0 0
vn -1 0 0
vn -1 0 0
vn -1 0 0
vn -1 0 0
vn -1 0 0
vn -1 0 0
vn -1 0 0
vn -1 0 0
vn -1 0 0
vn -1 0 0
vn -1 0 0
vn -1 0 0
vn -1 0 0
vn -1 0 0
vn 1 0 0
vn 1 0 0
vn 1 0 0
vn 1 0 0
vn 1 0 0
vn 1 0 0
vn 1 0 0
vn 1 0 0
vn 1 0 0
vn 1 0 0
vn 1 0 0
vn 0.5773503 0.5775498 -0.5771507
vn 0.5773503 0.5775498 -0.5771507
vn 0.5773503 0.5775498 -0.5771507
vn 0.5773503 0.5771507 0.5775498
vn 0.5773503 0.5771507 0.5775498
vn 0.5773503 0.5771507 0.5775498
vn 0 -1 -0.0003455752
vn 0 -1 -0.0003455752
vn 0 -1 -0.0003455752
vn 0 -1 -0.0003455752
vn 0 -0.0003455752 1
vn 0 -0.0003455752 1
vn 0 -0.0003455752 1
vn 0 -0.0003455752 1
vn 1 0 0
vn 1 0 0
vn 1 0 0
vn 1 0 0
vn 0 1 0.0003455752
vn 0 1 0.0003455752
vn 0 1 0.0003455752
vn 0 1 0.0003455752
vn -1 0 0
vn -1 0 0
vn -1 0 0
vn -1 0 0
vn -1 0 0
vn -1 0 0
vn -1 0 0
vn -1 0 0
vn 0.7071061 0.0002443588 -0.7071074
vn 0.7071061 0.0002443588 -0.7071074
vn 0.7071061 0.0002443588 -0.7071074
vn 0.7071061 0.0002443588 -0.7071074
vn 0 0.7073509 -0.7068626
vn 0 0.7073509 -0.7068626
vn 0 0.7073509 -0.7068626
vn 0 0.7073509 -0.7068626
vn 0.7071061 -0.0002443588 0.7071074
vn 0.7071061 -0.0002443588 0.7071074
vn 0.7071061 -0.0002443588 0.7071074
vn 0.7071061 -0.0002443588 0.7071074
vn 0 0.7068623 0.7073513
vn 0 0.7068623 0.7073513
vn 0 0.7068623 0.7073513
vn 0 0.7068623 0.7073513
vn -0.7071086 0.7071049 0.0002443579
vn -0.7071086 0.7071049 0.0002443579
vn -0.7071086 0.7071049 0.0002443579
vn -0.7071086 0.7071049 0.0002443579
vn 0 0.0003455752 -1
vn 0 0.0003455752 -1
vn 0 0.0003455752 -1
vn 0 0.0003455752 -1
vn 1 0 0
vn 1 0 0
vn 1 0 0
vn 1 0 0
vn 1 0 0
vn 1 0 0
vn 1 0 0
vn 1 0 0
vn 0 0.0003456967 -1
vn 0 0.0003456967 -1
vn 0 0.0003456967 -1
vn 0 0.0003456967 -1
vn 0 -1 -0.0003455752
vn 0 -1 -0.0003455752
vn 0 -1 -0.0003455752
vn 0 -1 -0.0003455752
vn 0 1 0.0003455752
vn 0 1 0.0003455752
vn 0 1 0.0003455752
vn 0 1 0.0003455752
vn 0 -0.0003456967 1
vn 0 -0.0003456967 1
vn 0 -0.0003456967 1
vn 0 -0.0003456967 1
vn -1 0 0
vn -1 0 0
vn -1 0 0
vn -1 0 0
vn 0 0.0003455752 -1
vn 0 0.0003455752 -1
vn 0 0.0003455752 -1
vn 0 0.0003455752 -1
vn 0 0.0003455752 -1
vn 0 0.0003455752 -1
vn 0 0.0003455752 -1
vn 0 0.0003455752 -1
vn 0 1 0.0003455752
vn 0 1 0.0003455752
vn 0 1 0.0003455752
vn 0 1 0.0003455752
vn 0 1 0.0003455752
vn 0 1 0.0003455752
vn 0 1 0.0003455752
vn 0 1 0.0003455752
vn -1 0 0
vn -1 0 0
vn 1 0 0
vn 1 0 0
vn -1 0 0
vn -1 0 0
vn -1 0 0
vn -1 0 0
vn -1 0 0
vn -1 0 0
vn -1 0 0
vn -1 0 0
vn -1 0 0
vn -1 0 0
vn -1 0 0
vn -1 0 0
vn -1 0 0
vn -1 0 0
vn -1 0 0
vn -1 0 0
vn -1 0 0
vn -1 0 0
vn -1 0 0
vn 1 0 0
vn 1 0 0
vn 1 0 0
vn 1 0 0
vn 1 0 0
vn 1 0 0
vn 1 0 0
vn 1 0 0
vn 1 0 0
vn 1 0 0
vn 1 0 0
vn 0.5773503 0.5775498 -0.5771507
vn 0.5773503 0.5775498 -0.5771507
vn 0.5773503 0.5775498 -0.5771507
vn 0.5773476 -0.577152 -0.5775511
vn 0.5773476 -0.577152 -0.5775511
vn 0.5773476 -0.577152 -0.5775511
vn -0.5773528 0.5775485 -0.5771495
vn -0.5773528 0.5775485 -0.5771495
vn -0.5773528 0.5775485 -0.5771495
vn -0.5773516 -0.577152 -0.5775471
vn -0.5773516 -0.577152 -0.5775471
vn -0.5773516 -0.577152 -0.5775471
vn 0.5773503 0.5771507 0.5775498
vn 0.5773503 0.5771507 0.5775498
vn 0.5773503 0.5771507 0.5775498
vn 0.5773476 -0.5775511 0.577152
vn 0.5773476 -0.5775511 0.577152
vn 0.5773476 -0.5775511 0.577152
vn -0.5773522 0.5771507 0.5775478
vn -0.5773522 0.5771507 0.5775478
vn -0.5773522 0.5771507 0.5775478
vn -0.5773509 -0.5775524 0.5771475
vn -0.5773509 -0.5775524 0.5771475
vn -0.5773509 -0.5775524 0.5771475
vn 0 1 0.0003455752
vn 0 1 0.0003455752
vn 0 1 0.0003455752
vn 0 1 0.0003455752
vn 0 -0.0003455752 1
vn 0 -0.0003455752 1
vn 0 -0.0003455752 1
vn 0 -0.0003455752 1
vn 0 -1 -0.0003455752
vn 0 -1 -0.0003455752
vn 0 -1 -0.0003455752
vn 0 -1 -0.0003455752
vn 1 0 0
vn 1 0 0
vn 1 0 0
vn 1 0 0
vn -1 0 0
vn -1 0 0
vn -1 0 0
vn -1 0 0
vn 0.7071061 0.0002443588 -0.7071074
vn 0.7071061 0.0002443588 -0.7071074
vn 0.7071061 0.0002443588 -0.7071074
vn 0.7071061 0.0002443588 -0.7071074
vn 0 0.7073509 -0.7068626
vn 0 0.7073509 -0.7068626
vn 0 0.7073509 -0.7068626
vn 0 0.7073509 -0.7068626
vn 0 -0.706863 -0.7073504
vn 0 -0.706863 -0.7073504
vn 0 -0.706863 -0.7073504
vn 0 -0.706863 -0.7073504
vn -0.7071092 0.0002443577 -0.7071043
vn -0.7071092 0.0002443577 -0.7071043
vn -0.7071092 0.0002443577 -0.7071043
vn -0.7071092 0.0002443577 -0.7071043
vn 0.7071061 -0.0002443588 0.7071074
vn 0.7071061 -0.0002443588 0.7071074
vn 0.7071061 -0.0002443588 0.7071074
vn 0.7071061 -0.0002443588 0.7071074
vn 0 0.7068623 0.7073513
vn 0 0.7068623 0.7073513
vn 0 0.7068623 0.7073513
vn 0 0.7068623 0.7073513
vn 0 -0.7073518 0.7068617
vn 0 -0.7073518 0.7068617
vn 0 -0.7073518 0.7068617
vn 0 -0.7073518 0.7068617
vn -0.7071092 -0.0002443577 0.7071043
vn -0.7071092 -0.0002443577 0.7071043
vn -0.7071092 -0.0002443577 0.7071043
vn -0.7071092 -0.0002443577 0.7071043
vn 0.7071068 0.7071068 0.0002443586
vn 0.7071068 0.7071068 0.0002443586
vn 0.7071068 0.7071068 0.0002443586
vn 0.7071068 0.7071068 0.0002443586
vn 0.7071058 -0.7071077 -0.0002443589
vn 0.7071058 -0.7071077 -0.0002443589
vn 0.7071058 -0.7071077 -0.0002443589
vn 0.7071058 -0.7071077 -0.0002443589
vn -0.7071086 0.7071049 0.0002443579
vn -0.7071086 0.7071049 0.0002443579
vn -0.7071086 0.7071049 0.0002443579
vn -0.7071086 0.7071049 0.0002443579
vn -0.7071074 -0.707106 -0.0002443583
vn -0.7071074 -0.707106 -0.0002443583
vn -0.7071074 -0.707106 -0.0002443583
vn -0.7071074 -0.707106 -0.0002443583
vn -1 0 0
vn -1 0 0
vn -1 0 0
vn -1 0 0
vn 0 0.0003455752 -1
vn 0 0.0003455752 -1
vn 0 0.0003455752 -1
vn 0 0.0003455752 -1
vn 1 0 0
vn 1 0 0
vn 1 0 0
vn 1 0 0
vn 0 -1 -0.0003455752
vn 0 -1 -0.0003455752
vn 0 -1 -0.0003455752
vn 0 -1 -0.0003455752
vn 0 1 0.0003455752
vn 0 1 0.0003455752
vn 0 1 0.0003455752
vn 0 1 0.0003455752
vn 0 -0.0003456967 1
vn 0 -0.0003456967 1
vn 0 -0.0003456967 1
vn 0 -0.0003456967 1
vn -1 0 0
vn -1 0 0
vn -1 0 0
vn -1 0 0
vn 1 0 0
vn 1 0 0
vn 1 0 0
vn 1 0 0
vn 0 0.0003456967 -1
vn 0 0.0003456967 -1
vn 0 0.0003456967 -1
vn 0 0.0003456967 -1
vn 0 0.0003455752 -1
vn 0 0.0003455752 -1
vn 0 0.0003455752 -1
vn 0 0.0003455752 -1
vn 0 0.0003455752 -1
vn 0 0.0003455752 -1
vn 0 0.0003455752 -1
vn 0 0.0003455752 -1
vn 0 1 0.0003455752
vn 0 1 0.0003455752
vn 0 1 0.0003455752
vn 0 1 0.0003455752
vn 0 1 0.0003455752
vn 0 1 0.0003455752
vn 0 1 0.0003455752
vn 0 1 0.0003455752
vn -1 0 0
vn -1 0 0
vn 1 0 0
vn 1 0 0
vn -1 0 0
vn -1 0 0
vn -1 0 0
vn -1 0 0
vn -1 0 0
vn -1 0 0
vn -1 0 0
vn -1 0 0
vn -1 0 0
vn -1 0 0
vn -1 0 0
vn -1 0 0
vn -1 0 0
vn -1 0 0
vn -1 0 0
vn -1 0 0
vn -1 0 0
vn -1 0 0
vn -1 0 0
vn 1 0 0
vn 1 0 0
vn 1 0 0
vn 1 0 0
vn 1 0 0
vn 1 0 0
vn 1 0 0
vn 1 0 0
vn 1 0 0
vn 1 0 0
vn 1 0 0
usemtl DarkWoodSmooth
f 427/115/587 426/114/586 425/113/585
f 430/118/590 429/117/589 428/116/588
f 433/121/593 432/120/592 431/119/591
f 436/124/596 435/123/595 434/122/594
f 439/127/599 438/126/598 437/125/597
f 442/130/602 441/129/601 440/128/600
f 445/133/605 444/132/604 443/131/603
f 448/136/608 447/135/607 446/134/606
f 451/139/611 450/138/610 449/137/609
f 452/140/612 451/139/611 449/137/609
f 455/143/615 454/142/614 453/141/613
f 456/144/616 455/143/615 453/141/613
f 459/147/619 458/146/618 457/145/617
f 460/148/620 459/147/619 457/145/617
f 463/151/623 462/150/622 461/149/621
f 464/152/624 463/151/623 461/149/621
f 467/155/627 466/154/626 465/153/625
f 468/156/628 467/155/627 465/153/625
f 471/159/631 470/158/630 469/157/629
f 472/160/632 471/159/631 469/157/629
f 475/163/635 474/162/634 473/161/633
f 476/164/636 475/163/635 473/161/633
f 479/167/639 478/166/638 477/165/637
f 480/168/640 479/167/639 477/165/637
f 483/171/643 482/170/642 481/169/641
f 484/172/644 483/171/643 481/169/641
f 487/175/647 486/174/646 485/173/645
f 488/176/648 487/175/647 485/173/645
f 491/179/651 490/178/650 489/177/649
f 492/180/652 491/179/651 489/177/649
f 495/183/655 494/182/654 493/181/653
f 496/184/656 495/183/655 493/181/653
f 499/187/659 498/186/658 497/185/657
f 500/188/660 499/187/659 497/185/657
f 503/191/663 502/190/662 501/189/661
f 504/192/664 503/191/663 501/189/661
f 507/195/667 506/194/666 505/193/665
f 508/196/668 507/195/667 505/193/665
f 511/199/671 510/198/670 509/197/669
f 512/200/672 511/199/671 509/197/669
f 515/203/675 514/202/674 513/201/673
f 516/204/676 515/203/675 513/201/673
f 519/207/679 518/206/678 517/205/677
f 520/208/680 519/207/679 517/205/677
f 523/211/683 522/210/682 521/209/681
f 524/212/684 523/211/683 521/209/681
f 527/215/687 526/214/686 525/213/685
f 528/216/688 527/215/687 525/213/685
f 531/219/691 530/218/690 529/217/689
f 532/220/692 531/219/691 529/217/689
f 535/223/695 534/222/694 533/221/693
f 536/224/696 535/223/695 533/221/693
f 539/227/699 538/226/698 537/225/697
f 540/228/700 539/227/699 537/225/697
f 543/231/703 542/230/702 541/229/701
f 544/232/704 543/231/703 541/229/701
f 547/235/707 546/234/706 545/233/705
f 548/236/708 547/235/707 545/233/705
f 551/239/711 550/238/710 549/237/709
f 552/240/712 551/239/711 549/237/709
f 555/243/715 554/242/714 553/241/713
f 556/244/716 555/243/715 553/241/713
f 553/241/713 554/242/714 557/245/717
f 558/246/718 555/243/715 556/244/716
f 554/242/714 559/247/719 557/245/717
f 560/248/720 558/246/718 556/244/716
f 557/245/717 559/247/719 560/248/720
f 559/247/719 558/246/718 560/248/720
f 563/251/723 562/250/722 561/249/721
f 564/252/724 563/251/723 561/249/721
f 561/249/721 562/250/722 565/253/725
f 566/254/726 563/251/723 564/252/724
f 562/250/722 567/255/727 565/253/725
f 568/256/728 566/254/726 564/252/724
f 565/253/725 567/255/727 568/256/728
f 567/255/727 566/254/726 568/256/728
