mtllib Dresser_205_1.mtl
v -0.13949 0.00201 0
v -0.14041 0.00262 0.03038
v -0.14041 0.00262 0
v -0.13949 0.00201 0.03038
v -0.13888 0.00109 0
v -0.13888 0.00109 0.03038
v -0.13866 0 0
v -0.13866 0 0.03038
v -0.13888 -0.00108 0
v -0.13888 -0.00108 0.03038
v -0.13949 -0.002 0
v -0.13949 -0.002 0.03038
v -0.14041 -0.00261 0
v -0.14041 -0.00261 0.03038
v -0.14041 0.00262 0
v -0.14041 0.00262 0.03038
v -0.14149 0.00284 0.03038
v -0.14149 0.00284 0
v -0.14258 0.00262 0.03038
v -0.14258 0.00262 0
v -0.14258 0.00262 0
v -0.14258 0.00262 0.03038
v -0.1435 0.00201 0.03038
v -0.1435 0.00201 0
v -0.14411 0.00109 0.03038
v -0.14411 0.00109 0
v -0.14433 1E-05 0.03038
v -0.14432 1E-05 0
v -0.14411 -0.00108 0.03038
v -0.14411 -0.00108 0
v -0.1435 -0.002 0.03038
v -0.1435 -0.002 0
v -0.14258 -0.00261 0.03038
v -0.14258 -0.00261 0
v -0.14258 -0.00261 0
v -0.14258 -0.00261 0.03038
v -0.14149 -0.00283 0.03038
v -0.14149 -0.00283 0
v -0.14041 -0.00261 0.03038
v -0.14041 -0.00261 0
v 0.14266 0.00201 0
v 0.14175 0.00262 0.03038
v 0.14175 0.00262 0
v 0.14266 0.00201 0.03038
v 0.14328 0.00109 0
v 0.14328 0.00109 0.03038
v 0.14349 0 0
v 0.14349 0 0.03038
v 0.14328 -0.00108 0
v 0.14328 -0.00108 0.03038
v 0.14266 -0.002 0
v 0.14266 -0.002 0.03038
v 0.14175 -0.00261 0
v 0.14175 -0.00261 0.03038
v 0.14175 0.00262 0
v 0.14175 0.00262 0.03038
v 0.14066 0.00284 0.03038
v 0.14066 0.00284 0
v 0.13958 0.00262 0.03038
v 0.13958 0.00262 0
v 0.13958 0.00262 0
v 0.13958 0.00262 0.03038
v 0.13866 0.00201 0.03038
v 0.13866 0.00201 0
v 0.13805 0.00109 0.03038
v 0.13805 0.00109 0
v 0.13783 0 0.03038
v 0.13783 0 0
v 0.13805 -0.00108 0.03038
v 0.13805 -0.00108 0
v 0.13866 -0.002 0.03038
v 0.13866 -0.002 0
v 0.13958 -0.00261 0.03038
v 0.13958 -0.00261 0
v 0.13958 -0.00261 0
v 0.13958 -0.00261 0.03038
v 0.14066 -0.00283 0.03038
v 0.14066 -0.00283 0
v 0.14175 -0.00261 0.03038
v 0.14175 -0.00261 0
v -0.15156 0.00184 0.02934
v 0.15157 0.00184 0.02934
v 0.15157 0.00339 0.03038
v -0.15156 0.00339 0.03038
v 0.15157 0.00443 0.03193
v -0.15156 0.00443 0.03193
v 0.15157 0.00479 0.03377
v -0.15156 0.00479 0.03377
v 0.15157 0.00443 0.0356
v -0.15156 0.00443 0.0356
v 0.15157 0.00339 0.03715
v -0.15156 0.00339 0.03715
v 0.15157 0.00184 0.03819
v -0.15156 0.00184 0.03819
v -0.15156 0.00184 0.03819
v 0.15157 0.00184 0.03819
v 0.15157 0 0.03855
v -0.15156 1E-05 0.03855
v 0.15157 -0.00183 0.03819
v -0.15156 -0.00183 0.03819
v -0.15156 -0.00183 0.03819
v 0.15157 -0.00183 0.03819
v 0.15157 -0.00338 0.03715
v -0.15156 -0.00338 0.03715
v 0.15157 -0.00442 0.0356
v -0.15156 -0.00442 0.0356
v 0.15157 -0.00478 0.03377
v -0.15156 -0.00478 0.03377
v 0.15157 -0.00442 0.03193
v -0.15156 -0.00442 0.03193
v 0.15157 -0.00338 0.03038
v -0.15156 -0.00338 0.03038
v 0.15157 -0.00183 0.02934
v -0.15156 -0.00183 0.02934
v -0.15156 -0.00183 0.02934
v 0.15157 -0.00183 0.02934
v 0.15157 0 0.02898
v -0.15156 1E-05 0.02898
v 0.15157 0.00184 0.02934
v -0.15156 0.00184 0.02934
v -0.14041 0.00262 0
v -0.14149 0.00284 0
v -0.14149 0 0
v -0.13949 0.00201 0
v -0.14258 0.00262 0
v -0.13888 0.00109 0
v -0.1435 0.00201 0
v -0.13866 0 0
v -0.14411 0.00109 0
v -0.13888 -0.00108 0
v -0.14432 1E-05 0
v -0.13949 -0.002 0
v -0.14411 -0.00108 0
v -0.14041 -0.00261 0
v -0.1435 -0.002 0
v -0.14149 -0.00283 0
v -0.14258 -0.00261 0
v 0.14175 0.00262 0
v 0.14066 0.00284 0
v 0.14066 0 0
v 0.14266 0.00201 0
v 0.13958 0.00262 0
v 0.14328 0.00109 0
v 0.13866 0.00201 0
v 0.14349 0 0
v 0.13805 0.00109 0
v 0.14328 -0.00108 0
v 0.13783 0 0
v 0.14266 -0.002 0
v 0.13805 -0.00108 0
v 0.14175 -0.00261 0
v 0.13866 -0.002 0
v 0.14066 -0.00283 0
v 0.13958 -0.00261 0
v -0.15249 0.00354 0.0323
v -0.15249 0.00383 0.03377
v -0.15249 0 0.03377
v -0.15249 0.00271 0.03106
v -0.15249 0.00354 0.03523
v -0.15249 0.00147 0.03023
v -0.15249 0.00271 0.03647
v -0.15249 0 0.02994
v -0.15249 0.00147 0.0373
v -0.15249 -0.00146 0.03023
v -0.15249 1E-05 0.0376
v -0.15249 -0.0027 0.03106
v -0.15249 -0.00146 0.0373
v -0.15249 -0.00353 0.0323
v -0.15249 -0.0027 0.03647
v -0.15249 -0.00382 0.03377
v -0.15249 -0.00353 0.03523
v 0.1525 0 0.03377
v 0.1525 0.00383 0.03377
v 0.1525 0.00354 0.0323
v 0.1525 0.00271 0.03106
v 0.1525 0.00354 0.03523
v 0.1525 0.00147 0.03023
v 0.1525 0.00271 0.03647
v 0.1525 0 0.02994
v 0.1525 0.00147 0.0373
v 0.1525 -0.00146 0.03023
v 0.1525 0 0.0376
v 0.1525 -0.0027 0.03106
v 0.1525 -0.00146 0.0373
v 0.1525 -0.00353 0.0323
v 0.1525 -0.0027 0.03647
v 0.1525 -0.00382 0.03377
v 0.1525 -0.00353 0.03523
v -0.15249 0.00147 0.03023
v -0.15249 0 0.02994
v -0.15156 1E-05 0.02898
v -0.15156 0.00184 0.02934
v -0.15156 -0.00183 0.02934
v -0.15249 0.00271 0.03106
v -0.15249 -0.00146 0.03023
v -0.15156 0.00339 0.03038
v -0.15156 -0.00338 0.03038
v -0.15249 0.00354 0.0323
v -0.15249 -0.0027 0.03106
v -0.15156 0.00443 0.03193
v -0.15156 -0.00442 0.03193
v -0.15249 0.00383 0.03377
v -0.15249 -0.00353 0.0323
v -0.15156 0.00479 0.03377
v -0.15156 -0.00478 0.03377
v -0.15249 0.00354 0.03523
v -0.15249 -0.00382 0.03377
v -0.15156 0.00443 0.0356
v -0.15156 -0.00442 0.0356
v -0.15249 0.00271 0.03647
v -0.15249 -0.00353 0.03523
v -0.15156 0.00339 0.03715
v -0.15156 -0.00338 0.03715
v -0.15249 0.00147 0.0373
v -0.15249 -0.0027 0.03647
v -0.15156 0.00184 0.03819
v -0.15156 -0.00183 0.03819
v -0.15249 1E-05 0.0376
v -0.15249 -0.00146 0.0373
v -0.15156 1E-05 0.03855
v 0.1525 0.00147 0.03023
v 0.1525 0.00271 0.03106
v 0.15157 0.00339 0.03038
v 0.15157 0.00184 0.02934
v 0.15157 0.00443 0.03193
v 0.1525 0 0.02994
v 0.1525 0.00354 0.0323
v 0.15157 0 0.02898
v 0.15157 0.00479 0.03377
v 0.1525 -0.00146 0.03023
v 0.1525 0.00383 0.03377
v 0.15157 -0.00183 0.02934
v 0.15157 0.00443 0.0356
v 0.1525 -0.0027 0.03106
v 0.1525 0.00354 0.03523
v 0.15157 -0.00338 0.03038
v 0.15157 0.00339 0.03715
v 0.1525 -0.00353 0.0323
v 0.1525 0.00271 0.03647
v 0.15157 -0.00442 0.03193
v 0.15157 0.00184 0.03819
v 0.1525 -0.00382 0.03377
v 0.1525 0.00147 0.0373
v 0.15157 -0.00478 0.03377
v 0.15157 0 0.03855
v 0.1525 -0.00353 0.03523
v 0.1525 0 0.0376
v 0.15157 -0.00442 0.0356
v 0.15157 -0.00183 0.03819
v 0.1525 -0.0027 0.03647
v 0.1525 -0.00146 0.0373
v 0.15157 -0.00338 0.03715
v -0.13949 0.00201 0
v -0.14041 0.00262 0.03038
v -0.14041 0.00262 0
v -0.13949 0.00201 0.03038
v -0.13888 0.00109 0
v -0.13888 0.00109 0.03038
v -0.13866 0 0
v -0.13866 0 0.03038
v -0.13888 -0.00108 0
v -0.13888 -0.00108 0.03038
v -0.13949 -0.002 0
v -0.13949 -0.002 0.03038
v -0.14041 -0.00261 0
v -0.14041 -0.00261 0.03038
v -0.14041 0.00262 0
v -0.14041 0.00262 0.03038
v -0.14149 0.00284 0.03038
v -0.14149 0.00284 0
v -0.14258 0.00262 0.03038
v -0.14258 0.00262 0
v -0.14258 0.00262 0
v -0.14258 0.00262 0.03038
v -0.1435 0.00201 0.03038
v -0.1435 0.00201 0
v -0.14411 0.00109 0.03038
v -0.14411 0.00109 0
v -0.14433 1E-05 0.03038
v -0.14432 1E-05 0
v -0.14411 -0.00108 0.03038
v -0.14411 -0.00108 0
v -0.1435 -0.002 0.03038
v -0.1435 -0.002 0
v -0.14258 -0.00261 0.03038
v -0.14258 -0.00261 0
v -0.14258 -0.00261 0
v -0.14258 -0.00261 0.03038
v -0.14149 -0.00283 0.03038
v -0.14149 -0.00283 0
v -0.14041 -0.00261 0.03038
v -0.14041 -0.00261 0
v 0.14266 0.00201 0
v 0.14175 0.00262 0.03038
v 0.14175 0.00262 0
v 0.14266 0.00201 0.03038
v 0.14328 0.00109 0
v 0.14328 0.00109 0.03038
v 0.14349 0 0
v 0.14349 0 0.03038
v 0.14328 -0.00108 0
v 0.14328 -0.00108 0.03038
v 0.14266 -0.002 0
v 0.14266 -0.002 0.03038
v 0.14175 -0.00261 0
v 0.14175 -0.00261 0.03038
v 0.14175 0.00262 0
v 0.14175 0.00262 0.03038
v 0.14066 0.00284 0.03038
v 0.14066 0.00284 0
v 0.13958 0.00262 0.03038
v 0.13958 0.00262 0
v 0.13958 0.00262 0
v 0.13958 0.00262 0.03038
v 0.13866 0.00201 0.03038
v 0.13866 0.00201 0
v 0.13805 0.00109 0.03038
v 0.13805 0.00109 0
v 0.13783 0 0.03038
v 0.13783 0 0
v 0.13805 -0.00108 0.03038
v 0.13805 -0.00108 0
v 0.13866 -0.002 0.03038
v 0.13866 -0.002 0
v 0.13958 -0.00261 0.03038
v 0.13958 -0.00261 0
v 0.13958 -0.00261 0
v 0.13958 -0.00261 0.03038
v 0.14066 -0.00283 0.03038
v 0.14066 -0.00283 0
v 0.14175 -0.00261 0.03038
v 0.14175 -0.00261 0
v -0.15156 0.00184 0.02934
v 0.15157 0.00184 0.02934
v 0.15157 0.00339 0.03038
v -0.15156 0.00339 0.03038
v 0.15157 0.00443 0.03193
v -0.15156 0.00443 0.03193
v 0.15157 0.00479 0.03377
v -0.15156 0.00479 0.03377
v 0.15157 0.00443 0.0356
v -0.15156 0.00443 0.0356
v 0.15157 0.00339 0.03715
v -0.15156 0.00339 0.03715
v 0.15157 0.00184 0.03819
v -0.15156 0.00184 0.03819
v -0.15156 0.00184 0.03819
v 0.15157 0.00184 0.03819
v 0.15157 0 0.03855
v -0.15156 1E-05 0.03855
v 0.15157 -0.00183 0.03819
v -0.15156 -0.00183 0.03819
v -0.15156 -0.00183 0.03819
v 0.15157 -0.00183 0.03819
v 0.15157 -0.00338 0.03715
v -0.15156 -0.00338 0.03715
v 0.15157 -0.00442 0.0356
v -0.15156 -0.00442 0.0356
v 0.15157 -0.00478 0.03377
v -0.15156 -0.00478 0.03377
v 0.15157 -0.00442 0.03193
v -0.15156 -0.00442 0.03193
v 0.15157 -0.00338 0.03038
v -0.15156 -0.00338 0.03038
v 0.15157 -0.00183 0.02934
v -0.15156 -0.00183 0.02934
v -0.15156 -0.00183 0.02934
v 0.15157 -0.00183 0.02934
v 0.15157 0 0.02898
v -0.15156 1E-05 0.02898
v 0.15157 0.00184 0.02934
v -0.15156 0.00184 0.02934
v -0.14041 0.00262 0
v -0.14149 0.00284 0
v -0.14149 0 0
v -0.13949 0.00201 0
v -0.14258 0.00262 0
v -0.13888 0.00109 0
v -0.1435 0.00201 0
v -0.13866 0 0
v -0.14411 0.00109 0
v -0.13888 -0.00108 0
v -0.14432 1E-05 0
v -0.13949 -0.002 0
v -0.14411 -0.00108 0
v -0.14041 -0.00261 0
v -0.1435 -0.002 0
v -0.14149 -0.00283 0
v -0.14258 -0.00261 0
v 0.14175 0.00262 0
v 0.14066 0.00284 0
v 0.14066 0 0
v 0.14266 0.00201 0
v 0.13958 0.00262 0
v 0.14328 0.00109 0
v 0.13866 0.00201 0
v 0.14349 0 0
v 0.13805 0.00109 0
v 0.14328 -0.00108 0
v 0.13783 0 0
v 0.14266 -0.002 0
v 0.13805 -0.00108 0
v 0.14175 -0.00261 0
v 0.13866 -0.002 0
v 0.14066 -0.00283 0
v 0.13958 -0.00261 0
v -0.15249 0.00354 0.0323
v -0.15249 0.00383 0.03377
v -0.15249 0 0.03377
v -0.15249 0.00271 0.03106
v -0.15249 0.00354 0.03523
v -0.15249 0.00147 0.03023
v -0.15249 0.00271 0.03647
v -0.15249 0 0.02994
v -0.15249 0.00147 0.0373
v -0.15249 -0.00146 0.03023
v -0.15249 1E-05 0.0376
v -0.15249 -0.0027 0.03106
v -0.15249 -0.00146 0.0373
v -0.15249 -0.00353 0.0323
v -0.15249 -0.0027 0.03647
v -0.15249 -0.00382 0.03377
v -0.15249 -0.00353 0.03523
v 0.1525 0 0.03377
v 0.1525 0.00383 0.03377
v 0.1525 0.00354 0.0323
v 0.1525 0.00271 0.03106
v 0.1525 0.00354 0.03523
v 0.1525 0.00147 0.03023
v 0.1525 0.00271 0.03647
v 0.1525 0 0.02994
v 0.1525 0.00147 0.0373
v 0.1525 -0.00146 0.03023
v 0.1525 0 0.0376
v 0.1525 -0.0027 0.03106
v 0.1525 -0.00146 0.0373
v 0.1525 -0.00353 0.0323
v 0.1525 -0.0027 0.03647
v 0.1525 -0.00382 0.03377
v 0.1525 -0.00353 0.03523
v -0.15249 0.00147 0.03023
v -0.15249 0 0.02994
v -0.15156 1E-05 0.02898
v -0.15156 0.00184 0.02934
v -0.15156 -0.00183 0.02934
v -0.15249 0.00271 0.03106
v -0.15249 -0.00146 0.03023
v -0.15156 0.00339 0.03038
v -0.15156 -0.00338 0.03038
v -0.15249 0.00354 0.0323
v -0.15249 -0.0027 0.03106
v -0.15156 0.00443 0.03193
v -0.15156 -0.00442 0.03193
v -0.15249 0.00383 0.03377
v -0.15249 -0.00353 0.0323
v -0.15156 0.00479 0.03377
v -0.15156 -0.00478 0.03377
v -0.15249 0.00354 0.03523
v -0.15249 -0.00382 0.03377
v -0.15156 0.00443 0.0356
v -0.15156 -0.00442 0.0356
v -0.15249 0.00271 0.03647
v -0.15249 -0.00353 0.03523
v -0.15156 0.00339 0.03715
v -0.15156 -0.00338 0.03715
v -0.15249 0.00147 0.0373
v -0.15249 -0.0027 0.03647
v -0.15156 0.00184 0.03819
v -0.15156 -0.00183 0.03819
v -0.15249 1E-05 0.0376
v -0.15249 -0.00146 0.0373
v -0.15156 1E-05 0.03855
v 0.1525 0.00147 0.03023
v 0.1525 0.00271 0.03106
v 0.15157 0.00339 0.03038
v 0.15157 0.00184 0.02934
v 0.15157 0.00443 0.03193
v 0.1525 0 0.02994
v 0.1525 0.00354 0.0323
v 0.15157 0 0.02898
v 0.15157 0.00479 0.03377
v 0.1525 -0.00146 0.03023
v 0.1525 0.00383 0.03377
v 0.15157 -0.00183 0.02934
v 0.15157 0.00443 0.0356
v 0.1525 -0.0027 0.03106
v 0.1525 0.00354 0.03523
v 0.15157 -0.00338 0.03038
v 0.15157 0.00339 0.03715
v 0.1525 -0.00353 0.0323
v 0.1525 0.00271 0.03647
v 0.15157 -0.00442 0.03193
v 0.15157 0.00184 0.03819
v 0.1525 -0.00382 0.03377
v 0.1525 0.00147 0.0373
v 0.15157 -0.00478 0.03377
v 0.15157 0 0.03855
v 0.1525 -0.00353 0.03523
v 0.1525 0 0.0376
v 0.15157 -0.00442 0.0356
v 0.15157 -0.00183 0.03819
v 0.1525 -0.0027 0.03647
v 0.1525 -0.00146 0.0373
v 0.15157 -0.00338 0.03715
v -0.13949 0.00201 0
v -0.14041 0.00262 0.03038
v -0.14041 0.00262 0
v -0.13949 0.00201 0.03038
v -0.13888 0.00109 0
v -0.13888 0.00109 0.03038
v -0.13866 0 0
v -0.13866 0 0.03038
v -0.13888 -0.00108 0
v -0.13888 -0.00108 0.03038
v -0.13949 -0.002 0
v -0.13949 -0.002 0.03038
v -0.14041 -0.00261 0
v -0.14041 -0.00261 0.03038
v -0.14041 0.00262 0
v -0.14041 0.00262 0.03038
v -0.14149 0.00284 0.03038
v -0.14149 0.00284 0
v -0.14258 0.00262 0.03038
v -0.14258 0.00262 0
v -0.14258 0.00262 0
v -0.14258 0.00262 0.03038
v -0.1435 0.00201 0.03038
v -0.1435 0.00201 0
v -0.14411 0.00109 0.03038
v -0.14411 0.00109 0
v -0.14433 1E-05 0.03038
v -0.14432 1E-05 0
v -0.14411 -0.00108 0.03038
v -0.14411 -0.00108 0
v -0.1435 -0.002 0.03038
v -0.1435 -0.002 0
v -0.14258 -0.00261 0.03038
v -0.14258 -0.00261 0
v -0.14258 -0.00261 0
v -0.14258 -0.00261 0.03038
v -0.14149 -0.00283 0.03038
v -0.14149 -0.00283 0
v -0.14041 -0.00261 0.03038
v -0.14041 -0.00261 0
v 0.14266 0.00201 0
v 0.14175 0.00262 0.03038
v 0.14175 0.00262 0
v 0.14266 0.00201 0.03038
v 0.14328 0.00109 0
v 0.14328 0.00109 0.03038
v 0.14349 0 0
v 0.14349 0 0.03038
v 0.14328 -0.00108 0
v 0.14328 -0.00108 0.03038
v 0.14266 -0.002 0
v 0.14266 -0.002 0.03038
v 0.14175 -0.00261 0
v 0.14175 -0.00261 0.03038
v 0.14175 0.00262 0
v 0.14175 0.00262 0.03038
v 0.14066 0.00284 0.03038
v 0.14066 0.00284 0
v 0.13958 0.00262 0.03038
v 0.13958 0.00262 0
v 0.13958 0.00262 0
v 0.13958 0.00262 0.03038
v 0.13866 0.00201 0.03038
v 0.13866 0.00201 0
v 0.13805 0.00109 0.03038
v 0.13805 0.00109 0
v 0.13783 0 0.03038
v 0.13783 0 0
v 0.13805 -0.00108 0.03038
v 0.13805 -0.00108 0
v 0.13866 -0.002 0.03038
v 0.13866 -0.002 0
v 0.13958 -0.00261 0.03038
v 0.13958 -0.00261 0
v 0.13958 -0.00261 0
v 0.13958 -0.00261 0.03038
v 0.14066 -0.00283 0.03038
v 0.14066 -0.00283 0
v 0.14175 -0.00261 0.03038
v 0.14175 -0.00261 0
v -0.15156 0.00184 0.02934
v 0.15157 0.00184 0.02934
v 0.15157 0.00339 0.03038
v -0.15156 0.00339 0.03038
v 0.15157 0.00443 0.03193
v -0.15156 0.00443 0.03193
v 0.15157 0.00479 0.03377
v -0.15156 0.00479 0.03377
v 0.15157 0.00443 0.0356
v -0.15156 0.00443 0.0356
v 0.15157 0.00339 0.03715
v -0.15156 0.00339 0.03715
v 0.15157 0.00184 0.03819
v -0.15156 0.00184 0.03819
v -0.15156 0.00184 0.03819
v 0.15157 0.00184 0.03819
v 0.15157 0 0.03855
v -0.15156 1E-05 0.03855
v 0.15157 -0.00183 0.03819
v -0.15156 -0.00183 0.03819
v -0.15156 -0.00183 0.03819
v 0.15157 -0.00183 0.03819
v 0.15157 -0.00338 0.03715
v -0.15156 -0.00338 0.03715
v 0.15157 -0.00442 0.0356
v -0.15156 -0.00442 0.0356
v 0.15157 -0.00478 0.03377
v -0.15156 -0.00478 0.03377
v 0.15157 -0.00442 0.03193
v -0.15156 -0.00442 0.03193
v 0.15157 -0.00338 0.03038
v -0.15156 -0.00338 0.03038
v 0.15157 -0.00183 0.02934
v -0.15156 -0.00183 0.02934
v -0.15156 -0.00183 0.02934
v 0.15157 -0.00183 0.02934
v 0.15157 0 0.02898
v -0.15156 1E-05 0.02898
v 0.15157 0.00184 0.02934
v -0.15156 0.00184 0.02934
v -0.14041 0.00262 0
v -0.14149 0.00284 0
v -0.14149 0 0
v -0.13949 0.00201 0
v -0.14258 0.00262 0
v -0.13888 0.00109 0
v -0.1435 0.00201 0
v -0.13866 0 0
v -0.14411 0.00109 0
v -0.13888 -0.00108 0
v -0.14432 1E-05 0
v -0.13949 -0.002 0
v -0.14411 -0.00108 0
v -0.14041 -0.00261 0
v -0.1435 -0.002 0
v -0.14149 -0.00283 0
v -0.14258 -0.00261 0
v 0.14175 0.00262 0
v 0.14066 0.00284 0
v 0.14066 0 0
v 0.14266 0.00201 0
v 0.13958 0.00262 0
v 0.14328 0.00109 0
v 0.13866 0.00201 0
v 0.14349 0 0
v 0.13805 0.00109 0
v 0.14328 -0.00108 0
v 0.13783 0 0
v 0.14266 -0.002 0
v 0.13805 -0.00108 0
v 0.14175 -0.00261 0
v 0.13866 -0.002 0
v 0.14066 -0.00283 0
v 0.13958 -0.00261 0
v -0.15249 0.00354 0.0323
v -0.15249 0.00383 0.03377
v -0.15249 0 0.03377
v -0.15249 0.00271 0.03106
v -0.15249 0.00354 0.03523
v -0.15249 0.00147 0.03023
v -0.15249 0.00271 0.03647
v -0.15249 0 0.02994
v -0.15249 0.00147 0.0373
v -0.15249 -0.00146 0.03023
v -0.15249 1E-05 0.0376
v -0.15249 -0.0027 0.03106
v -0.15249 -0.00146 0.0373
v -0.15249 -0.00353 0.0323
v -0.15249 -0.0027 0.03647
v -0.15249 -0.00382 0.03377
v -0.15249 -0.00353 0.03523
v 0.1525 0 0.03377
v 0.1525 0.00383 0.03377
v 0.1525 0.00354 0.0323
v 0.1525 0.00271 0.03106
v 0.1525 0.00354 0.03523
v 0.1525 0.00147 0.03023
v 0.1525 0.00271 0.03647
v 0.1525 0 0.02994
v 0.1525 0.00147 0.0373
v 0.1525 -0.00146 0.03023
v 0.1525 0 0.0376
v 0.1525 -0.0027 0.03106
v 0.1525 -0.00146 0.0373
v 0.1525 -0.00353 0.0323
v 0.1525 -0.0027 0.03647
v 0.1525 -0.00382 0.03377
v 0.1525 -0.00353 0.03523
v -0.15249 0.00147 0.03023
v -0.15249 0 0.02994
v -0.15156 1E-05 0.02898
v -0.15156 0.00184 0.02934
v -0.15156 -0.00183 0.02934
v -0.15249 0.00271 0.03106
v -0.15249 -0.00146 0.03023
v -0.15156 0.00339 0.03038
v -0.15156 -0.00338 0.03038
v -0.15249 0.00354 0.0323
v -0.15249 -0.0027 0.03106
v -0.15156 0.00443 0.03193
v -0.15156 -0.00442 0.03193
v -0.15249 0.00383 0.03377
v -0.15249 -0.00353 0.0323
v -0.15156 0.00479 0.03377
v -0.15156 -0.00478 0.03377
v -0.15249 0.00354 0.03523
v -0.15249 -0.00382 0.03377
v -0.15156 0.00443 0.0356
v -0.15156 -0.00442 0.0356
v -0.15249 0.00271 0.03647
v -0.15249 -0.00353 0.03523
v -0.15156 0.00339 0.03715
v -0.15156 -0.00338 0.03715
v -0.15249 0.00147 0.0373
v -0.15249 -0.0027 0.03647
v -0.15156 0.00184 0.03819
v -0.15156 -0.00183 0.03819
v -0.15249 1E-05 0.0376
v -0.15249 -0.00146 0.0373
v -0.15156 1E-05 0.03855
v 0.1525 0.00147 0.03023
v 0.1525 0.00271 0.03106
v 0.15157 0.00339 0.03038
v 0.15157 0.00184 0.02934
v 0.15157 0.00443 0.03193
v 0.1525 0 0.02994
v 0.1525 0.00354 0.0323
v 0.15157 0 0.02898
v 0.15157 0.00479 0.03377
v 0.1525 -0.00146 0.03023
v 0.1525 0.00383 0.03377
v 0.15157 -0.00183 0.02934
v 0.15157 0.00443 0.0356
v 0.1525 -0.0027 0.03106
v 0.1525 0.00354 0.03523
v 0.15157 -0.00338 0.03038
v 0.15157 0.00339 0.03715
v 0.1525 -0.00353 0.0323
v 0.1525 0.00271 0.03647
v 0.15157 -0.00442 0.03193
v 0.15157 0.00184 0.03819
v 0.1525 -0.00382 0.03377
v 0.1525 0.00147 0.0373
v 0.15157 -0.00478 0.03377
v 0.15157 0 0.03855
v 0.1525 -0.00353 0.03523
v 0.1525 0 0.0376
v 0.15157 -0.00442 0.0356
v 0.15157 -0.00183 0.03819
v 0.1525 -0.0027 0.03647
v 0.1525 -0.00146 0.0373
v 0.15157 -0.00338 0.03715
v -0.13949 0.00201 0
v -0.14041 0.00262 0.03038
v -0.14041 0.00262 0
v -0.13949 0.00201 0.03038
v -0.13888 0.00109 0
v -0.13888 0.00109 0.03038
v -0.13866 0 0
v -0.13866 0 0.03038
v -0.13888 -0.00108 0
v -0.13888 -0.00108 0.03038
v -0.13949 -0.002 0
v -0.13949 -0.002 0.03038
v -0.14041 -0.00261 0
v -0.14041 -0.00261 0.03038
v -0.14041 0.00262 0
v -0.14041 0.00262 0.03038
v -0.14149 0.00284 0.03038
v -0.14149 0.00284 0
v -0.14258 0.00262 0.03038
v -0.14258 0.00262 0
v -0.14258 0.00262 0
v -0.14258 0.00262 0.03038
v -0.1435 0.00201 0.03038
v -0.1435 0.00201 0
v -0.14411 0.00109 0.03038
v -0.14411 0.00109 0
v -0.14433 1E-05 0.03038
v -0.14432 1E-05 0
v -0.14411 -0.00108 0.03038
v -0.14411 -0.00108 0
v -0.1435 -0.002 0.03038
v -0.1435 -0.002 0
v -0.14258 -0.00261 0.03038
v -0.14258 -0.00261 0
v -0.14258 -0.00261 0
v -0.14258 -0.00261 0.03038
v -0.14149 -0.00283 0.03038
v -0.14149 -0.00283 0
v -0.14041 -0.00261 0.03038
v -0.14041 -0.00261 0
v 0.14266 0.00201 0
v 0.14175 0.00262 0.03038
v 0.14175 0.00262 0
v 0.14266 0.00201 0.03038
v 0.14328 0.00109 0
v 0.14328 0.00109 0.03038
v 0.14349 0 0
v 0.14349 0 0.03038
v 0.14328 -0.00108 0
v 0.14328 -0.00108 0.03038
v 0.14266 -0.002 0
v 0.14266 -0.002 0.03038
v 0.14175 -0.00261 0
v 0.14175 -0.00261 0.03038
v 0.14175 0.00262 0
v 0.14175 0.00262 0.03038
v 0.14066 0.00284 0.03038
v 0.14066 0.00284 0
v 0.13958 0.00262 0.03038
v 0.13958 0.00262 0
v 0.13958 0.00262 0
v 0.13958 0.00262 0.03038
v 0.13866 0.00201 0.03038
v 0.13866 0.00201 0
v 0.13805 0.00109 0.03038
v 0.13805 0.00109 0
v 0.13783 0 0.03038
v 0.13783 0 0
v 0.13805 -0.00108 0.03038
v 0.13805 -0.00108 0
v 0.13866 -0.002 0.03038
v 0.13866 -0.002 0
v 0.13958 -0.00261 0.03038
v 0.13958 -0.00261 0
v 0.13958 -0.00261 0
v 0.13958 -0.00261 0.03038
v 0.14066 -0.00283 0.03038
v 0.14066 -0.00283 0
v 0.14175 -0.00261 0.03038
v 0.14175 -0.00261 0
v -0.15156 0.00184 0.02934
v 0.15157 0.00184 0.02934
v 0.15157 0.00339 0.03038
v -0.15156 0.00339 0.03038
v 0.15157 0.00443 0.03193
v -0.15156 0.00443 0.03193
v 0.15157 0.00479 0.03377
v -0.15156 0.00479 0.03377
v 0.15157 0.00443 0.0356
v -0.15156 0.00443 0.0356
v 0.15157 0.00339 0.03715
v -0.15156 0.00339 0.03715
v 0.15157 0.00184 0.03819
v -0.15156 0.00184 0.03819
v -0.15156 0.00184 0.03819
v 0.15157 0.00184 0.03819
v 0.15157 0 0.03855
v -0.15156 1E-05 0.03855
v 0.15157 -0.00183 0.03819
v -0.15156 -0.00183 0.03819
v -0.15156 -0.00183 0.03819
v 0.15157 -0.00183 0.03819
v 0.15157 -0.00338 0.03715
v -0.15156 -0.00338 0.03715
v 0.15157 -0.00442 0.0356
v -0.15156 -0.00442 0.0356
v 0.15157 -0.00478 0.03377
v -0.15156 -0.00478 0.03377
v 0.15157 -0.00442 0.03193
v -0.15156 -0.00442 0.03193
v 0.15157 -0.00338 0.03038
v -0.15156 -0.00338 0.03038
v 0.15157 -0.00183 0.02934
v -0.15156 -0.00183 0.02934
v -0.15156 -0.00183 0.02934
v 0.15157 -0.00183 0.02934
v 0.15157 0 0.02898
v -0.15156 1E-05 0.02898
v 0.15157 0.00184 0.02934
v -0.15156 0.00184 0.02934
v -0.14041 0.00262 0
v -0.14149 0.00284 0
v -0.14149 0 0
v -0.13949 0.00201 0
v -0.14258 0.00262 0
v -0.13888 0.00109 0
v -0.1435 0.00201 0
v -0.13866 0 0
v -0.14411 0.00109 0
v -0.13888 -0.00108 0
v -0.14432 1E-05 0
v -0.13949 -0.002 0
v -0.14411 -0.00108 0
v -0.14041 -0.00261 0
v -0.1435 -0.002 0
v -0.14149 -0.00283 0
v -0.14258 -0.00261 0
v 0.14175 0.00262 0
v 0.14066 0.00284 0
v 0.14066 0 0
v 0.14266 0.00201 0
v 0.13958 0.00262 0
v 0.14328 0.00109 0
v 0.13866 0.00201 0
v 0.14349 0 0
v 0.13805 0.00109 0
v 0.14328 -0.00108 0
v 0.13783 0 0
v 0.14266 -0.002 0
v 0.13805 -0.00108 0
v 0.14175 -0.00261 0
v 0.13866 -0.002 0
v 0.14066 -0.00283 0
v 0.13958 -0.00261 0
v -0.15249 0.00354 0.0323
v -0.15249 0.00383 0.03377
v -0.15249 0 0.03377
v -0.15249 0.00271 0.03106
v -0.15249 0.00354 0.03523
v -0.15249 0.00147 0.03023
v -0.15249 0.00271 0.03647
v -0.15249 0 0.02994
v -0.15249 0.00147 0.0373
v -0.15249 -0.00146 0.03023
v -0.15249 1E-05 0.0376
v -0.15249 -0.0027 0.03106
v -0.15249 -0.00146 0.0373
v -0.15249 -0.00353 0.0323
v -0.15249 -0.0027 0.03647
v -0.15249 -0.00382 0.03377
v -0.15249 -0.00353 0.03523
v 0.1525 0 0.03377
v 0.1525 0.00383 0.03377
v 0.1525 0.00354 0.0323
v 0.1525 0.00271 0.03106
v 0.1525 0.00354 0.03523
v 0.1525 0.00147 0.03023
v 0.1525 0.00271 0.03647
v 0.1525 0 0.02994
v 0.1525 0.00147 0.0373
v 0.1525 -0.00146 0.03023
v 0.1525 0 0.0376
v 0.1525 -0.0027 0.03106
v 0.1525 -0.00146 0.0373
v 0.1525 -0.00353 0.0323
v 0.1525 -0.0027 0.03647
v 0.1525 -0.00382 0.03377
v 0.1525 -0.00353 0.03523
v -0.15249 0.00147 0.03023
v -0.15249 0 0.02994
v -0.15156 1E-05 0.02898
v -0.15156 0.00184 0.02934
v -0.15156 -0.00183 0.02934
v -0.15249 0.00271 0.03106
v -0.15249 -0.00146 0.03023
v -0.15156 0.00339 0.03038
v -0.15156 -0.00338 0.03038
v -0.15249 0.00354 0.0323
v -0.15249 -0.0027 0.03106
v -0.15156 0.00443 0.03193
v -0.15156 -0.00442 0.03193
v -0.15249 0.00383 0.03377
v -0.15249 -0.00353 0.0323
v -0.15156 0.00479 0.03377
v -0.15156 -0.00478 0.03377
v -0.15249 0.00354 0.03523
v -0.15249 -0.00382 0.03377
v -0.15156 0.00443 0.0356
v -0.15156 -0.00442 0.0356
v -0.15249 0.00271 0.03647
v -0.15249 -0.00353 0.03523
v -0.15156 0.00339 0.03715
v -0.15156 -0.00338 0.03715
v -0.15249 0.00147 0.0373
v -0.15249 -0.0027 0.03647
v -0.15156 0.00184 0.03819
v -0.15156 -0.00183 0.03819
v -0.15249 1E-05 0.0376
v -0.15249 -0.00146 0.0373
v -0.15156 1E-05 0.03855
v 0.1525 0.00147 0.03023
v 0.1525 0.00271 0.03106
v 0.15157 0.00339 0.03038
v 0.15157 0.00184 0.02934
v 0.15157 0.00443 0.03193
v 0.1525 0 0.02994
v 0.1525 0.00354 0.0323
v 0.15157 0 0.02898
v 0.15157 0.00479 0.03377
v 0.1525 -0.00146 0.03023
v 0.1525 0.00383 0.03377
v 0.15157 -0.00183 0.02934
v 0.15157 0.00443 0.0356
v 0.1525 -0.0027 0.03106
v 0.1525 0.00354 0.03523
v 0.15157 -0.00338 0.03038
v 0.15157 0.00339 0.03715
v 0.1525 -0.00353 0.0323
v 0.1525 0.00271 0.03647
v 0.15157 -0.00442 0.03193
v 0.15157 0.00184 0.03819
v 0.1525 -0.00382 0.03377
v 0.1525 0.00147 0.0373
v 0.15157 -0.00478 0.03377
v 0.15157 0 0.03855
v 0.1525 -0.00353 0.03523
v 0.1525 0 0.0376
v 0.15157 -0.00442 0.0356
v 0.15157 -0.00183 0.03819
v 0.1525 -0.0027 0.03647
v 0.1525 -0.00146 0.0373
v 0.15157 -0.00338 0.03715
vt -10.03768 0.821121
vt -9.9709 0.8197725
vt -10.03768 0.8197725
vt -9.9709 0.821121
vt -10.03768 0.8231399
vt -9.9709 0.8231399
vt -10.03768 0.8255222
vt -9.9709 0.8255222
vt -10.03768 0.8279045
vt -9.9709 0.8279045
vt -10.03768 0.8299234
vt -9.9709 0.8299234
vt -10.03768 0.8312719
vt -9.9709 0.8312719
vt -9.974336 0.804857
vt -10.03424 0.804857
vt -10.03424 0.8069942
vt -9.974336 0.8069942
vt -10.03424 0.8091304
vt -9.974336 0.8091304
vt -9.9709 0.7817085
vt -10.03768 0.7817085
vt -10.03768 0.7830589
vt -9.9709 0.7830589
vt -10.03768 0.7850778
vt -9.9709 0.7850778
vt -10.03768 0.7874591
vt -9.9709 0.7874591
vt -10.03768 0.7898414
vt -9.9709 0.7898414
vt -10.03768 0.7918603
vt -9.9709 0.7918603
vt -10.03768 0.7932098
vt -9.9709 0.7932098
vt -10.03424 0.7710683
vt -9.974336 0.7710683
vt -9.974336 0.7689312
vt -10.03424 0.7689312
vt -9.974336 0.766794
vt -10.03424 0.766794
vt -10.03768 0.7449958
vt -9.9709 0.7436473
vt -10.03768 0.7436473
vt -9.9709 0.7449958
vt -10.03768 0.7470148
vt -9.9709 0.7470148
vt -10.03768 0.749397
vt -9.9709 0.749397
vt -10.03768 0.7517793
vt -9.9709 0.7517793
vt -10.03768 0.7537982
vt -9.9709 0.7537982
vt -10.03768 0.7551467
vt -9.9709 0.7551467
vt -9.974337 0.7287309
vt -10.03424 0.7287309
vt -10.03424 0.7308681
vt -9.974337 0.7308681
vt -10.03424 0.7330053
vt -9.974337 0.7330053
vt -9.9709 0.7055833
vt -10.03768 0.7055833
vt -10.03768 0.7069328
vt -9.9709 0.7069328
vt -10.03768 0.7089517
vt -9.9709 0.7089517
vt -10.03768 0.711334
vt -9.9709 0.711334
vt -10.03768 0.7137163
vt -9.9709 0.7137163
vt -10.03768 0.7157342
vt -9.9709 0.7157342
vt -10.03768 0.7170837
vt -9.9709 0.7170837
vt -10.03424 0.6949422
vt -9.974336 0.6949422
vt -9.974336 0.692806
vt -10.03424 0.692806
vt -9.974336 0.6906688
vt -10.03424 0.6906688
vt -9.222989 0.9187925
vt -9.889388 0.9187925
vt -9.889388 0.9210746
vt -9.222989 0.9210746
vt -9.889388 0.9244878
vt -9.222989 0.9244878
vt -9.889388 0.9285161
vt -9.222989 0.9285161
vt -9.889388 0.9325426
vt -9.222989 0.9325426
vt -9.889388 0.9359577
vt -9.222989 0.9359577
vt -9.889388 0.9382389
vt -9.222989 0.9382389
vt -9.257284 0.8969848
vt -9.855092 0.8969848
vt -9.855092 0.9005973
vt -9.257284 0.9005973
vt -9.855092 0.9042099
vt -9.257284 0.9042099
vt -9.22299 0.8642356
vt -9.889386 0.8642356
vt -9.889386 0.8665178
vt -9.22299 0.8665178
vt -9.889386 0.8699319
vt -9.22299 0.8699319
vt -9.889386 0.8739593
vt -9.22299 0.8739593
vt -9.889386 0.8779867
vt -9.22299 0.8779867
vt -9.889386 0.8814008
vt -9.22299 0.8814008
vt -9.889386 0.883683
vt -9.22299 0.883683
vt -9.257299 0.8426082
vt -9.855077 0.8426082
vt -9.855077 0.8462217
vt -9.257299 0.8462217
vt -9.855077 0.8498342
vt -9.257299 0.8498342
vt -10.05 0.594321
vt -10.05042 0.5964372
vt -10.04489 0.5964372
vt -10.0488 0.5925272
vt -10.05 0.5985534
vt -10.04701 0.5913284
vt -10.0488 0.6003473
vt -10.04489 0.5909078
vt -10.04701 0.601546
vt -10.04278 0.5913284
vt -10.04489 0.6019666
vt -10.04098 0.5925272
vt -10.04278 0.601546
vt -10.03978 0.594321
vt -10.04098 0.6003473
vt -10.03936 0.5964372
vt -10.03978 0.5985534
vt -10.05 0.5689456
vt -10.05042 0.5710618
vt -10.04489 0.5710618
vt -10.0488 0.5671518
vt -10.05 0.5731781
vt -10.04701 0.565953
vt -10.0488 0.5749719
vt -10.04489 0.5655324
vt -10.04701 0.5761707
vt -10.04278 0.565953
vt -10.04489 0.5765913
vt -10.04098 0.5671518
vt -10.04278 0.5761707
vt -10.03978 0.5689456
vt -10.04098 0.5749719
vt -10.03936 0.5710618
vt -10.03978 0.5731781
vt -10.0354 0.6587265
vt -10.03847 0.6581171
vt -10.03847 0.6661355
vt -10.0328 0.660465
vt -10.04153 0.6587265
vt -10.03106 0.6630666
vt -10.04414 0.660465
vt -10.03045 0.6661355
vt -10.04587 0.6630666
vt -10.03106 0.6692035
vt -10.04648 0.6661355
vt -10.0328 0.6718051
vt -10.04587 0.6692035
vt -10.0354 0.6735437
vt -10.04414 0.6718051
vt -10.03847 0.6741531
vt -10.04153 0.6735437
vt -10.03847 0.6280735
vt -10.03045 0.6280735
vt -10.03106 0.6250045
vt -10.03279 0.6224029
vt -10.03106 0.6311414
vt -10.0354 0.6206653
vt -10.03279 0.633743
vt -10.03847 0.620054
vt -10.0354 0.6354806
vt -10.04153 0.6206653
vt -10.03847 0.636091
vt -10.04414 0.6224029
vt -10.04153 0.6354806
vt -10.04587 0.6250045
vt -10.04414 0.633743
vt -10.04648 0.6280735
vt -10.04587 0.6311414
vt -10.03106 0.6630666
vt -10.03045 0.6661355
vt -10.02844 0.6661355
vt -10.02921 0.6622999
vt -10.02921 0.6699712
vt -10.0328 0.660465
vt -10.03106 0.6692035
vt -10.03138 0.6590488
vt -10.03138 0.6732223
vt -10.0354 0.6587265
vt -10.0328 0.6718051
vt -10.03463 0.6568754
vt -10.03463 0.6753948
vt -10.03847 0.6581171
vt -10.0354 0.6735437
vt -10.03847 0.6561124
vt -10.03847 0.6761587
vt -10.04153 0.6587265
vt -10.03847 0.6741531
vt -10.0423 0.6568754
vt -10.0423 0.6753948
vt -10.04414 0.660465
vt -10.04153 0.6735437
vt -10.04555 0.6590488
vt -10.04555 0.6732223
vt -10.04587 0.6630666
vt -10.04414 0.6718051
vt -10.04773 0.6622999
vt -10.04773 0.6699712
vt -10.04648 0.6661355
vt -10.04587 0.6692035
vt -10.04849 0.6661355
vt -10.0354 0.6206653
vt -10.03279 0.6224029
vt -10.03138 0.6209857
vt -10.03463 0.6188133
vt -10.02921 0.6242368
vt -10.03847 0.620054
vt -10.03106 0.6250045
vt -10.03847 0.6180503
vt -10.02844 0.6280735
vt -10.04153 0.6206653
vt -10.03045 0.6280735
vt -10.0423 0.6188133
vt -10.02921 0.6319082
vt -10.04414 0.6224029
vt -10.03106 0.6311414
vt -10.04555 0.6209857
vt -10.03138 0.6351612
vt -10.04587 0.6250045
vt -10.03279 0.633743
vt -10.04773 0.6242368
vt -10.03463 0.6373327
vt -10.04648 0.6280735
vt -10.0354 0.6354806
vt -10.04849 0.6280735
vt -10.03847 0.6380966
vt -10.04587 0.6311414
vt -10.03847 0.636091
vt -10.04773 0.6319082
vt -10.0423 0.6373327
vt -10.04414 0.633743
vt -10.04153 0.6354806
vt -10.04555 0.6351612
vt -10.03768 0.821121
vt -9.9709 0.8197725
vt -10.03768 0.8197725
vt -9.9709 0.821121
vt -10.03768 0.8231399
vt -9.9709 0.8231399
vt -10.03768 0.8255222
vt -9.9709 0.8255222
vt -10.03768 0.8279045
vt -9.9709 0.8279045
vt -10.03768 0.8299234
vt -9.9709 0.8299234
vt -10.03768 0.8312719
vt -9.9709 0.8312719
vt -9.974336 0.804857
vt -10.03424 0.804857
vt -10.03424 0.8069942
vt -9.974336 0.8069942
vt -10.03424 0.8091304
vt -9.974336 0.8091304
vt -9.9709 0.7817085
vt -10.03768 0.7817085
vt -10.03768 0.7830589
vt -9.9709 0.7830589
vt -10.03768 0.7850778
vt -9.9709 0.7850778
vt -10.03768 0.7874591
vt -9.9709 0.7874591
vt -10.03768 0.7898414
vt -9.9709 0.7898414
vt -10.03768 0.7918603
vt -9.9709 0.7918603
vt -10.03768 0.7932098
vt -9.9709 0.7932098
vt -10.03424 0.7710683
vt -9.974336 0.7710683
vt -9.974336 0.7689312
vt -10.03424 0.7689312
vt -9.974336 0.766794
vt -10.03424 0.766794
vt -10.03768 0.7449958
vt -9.9709 0.7436473
vt -10.03768 0.7436473
vt -9.9709 0.7449958
vt -10.03768 0.7470148
vt -9.9709 0.7470148
vt -10.03768 0.749397
vt -9.9709 0.749397
vt -10.03768 0.7517793
vt -9.9709 0.7517793
vt -10.03768 0.7537982
vt -9.9709 0.7537982
vt -10.03768 0.7551467
vt -9.9709 0.7551467
vt -9.974337 0.7287309
vt -10.03424 0.7287309
vt -10.03424 0.7308681
vt -9.974337 0.7308681
vt -10.03424 0.7330053
vt -9.974337 0.7330053
vt -9.9709 0.7055833
vt -10.03768 0.7055833
vt -10.03768 0.7069328
vt -9.9709 0.7069328
vt -10.03768 0.7089517
vt -9.9709 0.7089517
vt -10.03768 0.711334
vt -9.9709 0.711334
vt -10.03768 0.7137163
vt -9.9709 0.7137163
vt -10.03768 0.7157342
vt -9.9709 0.7157342
vt -10.03768 0.7170837
vt -9.9709 0.7170837
vt -10.03424 0.6949422
vt -9.974336 0.6949422
vt -9.974336 0.692806
vt -10.03424 0.692806
vt -9.974336 0.6906688
vt -10.03424 0.6906688
vt -9.222989 0.9187925
vt -9.889388 0.9187925
vt -9.889388 0.9210746
vt -9.222989 0.9210746
vt -9.889388 0.9244878
vt -9.222989 0.9244878
vt -9.889388 0.9285161
vt -9.222989 0.9285161
vt -9.889388 0.9325426
vt -9.222989 0.9325426
vt -9.889388 0.9359577
vt -9.222989 0.9359577
vt -9.889388 0.9382389
vt -9.222989 0.9382389
vt -9.257284 0.8969848
vt -9.855092 0.8969848
vt -9.855092 0.9005973
vt -9.257284 0.9005973
vt -9.855092 0.9042099
vt -9.257284 0.9042099
vt -9.22299 0.8642356
vt -9.889386 0.8642356
vt -9.889386 0.8665178
vt -9.22299 0.8665178
vt -9.889386 0.8699319
vt -9.22299 0.8699319
vt -9.889386 0.8739593
vt -9.22299 0.8739593
vt -9.889386 0.8779867
vt -9.22299 0.8779867
vt -9.889386 0.8814008
vt -9.22299 0.8814008
vt -9.889386 0.883683
vt -9.22299 0.883683
vt -9.257299 0.8426082
vt -9.855077 0.8426082
vt -9.855077 0.8462217
vt -9.257299 0.8462217
vt -9.855077 0.8498342
vt -9.257299 0.8498342
vt -10.05 0.594321
vt -10.05042 0.5964372
vt -10.04489 0.5964372
vt -10.0488 0.5925272
vt -10.05 0.5985534
vt -10.04701 0.5913284
vt -10.0488 0.6003473
vt -10.04489 0.5909078
vt -10.04701 0.601546
vt -10.04278 0.5913284
vt -10.04489 0.6019666
vt -10.04098 0.5925272
vt -10.04278 0.601546
vt -10.03978 0.594321
vt -10.04098 0.6003473
vt -10.03936 0.5964372
vt -10.03978 0.5985534
vt -10.05 0.5689456
vt -10.05042 0.5710618
vt -10.04489 0.5710618
vt -10.0488 0.5671518
vt -10.05 0.5731781
vt -10.04701 0.565953
vt -10.0488 0.5749719
vt -10.04489 0.5655324
vt -10.04701 0.5761707
vt -10.04278 0.565953
vt -10.04489 0.5765913
vt -10.04098 0.5671518
vt -10.04278 0.5761707
vt -10.03978 0.5689456
vt -10.04098 0.5749719
vt -10.03936 0.5710618
vt -10.03978 0.5731781
vt -10.0354 0.6587265
vt -10.03847 0.6581171
vt -10.03847 0.6661355
vt -10.0328 0.660465
vt -10.04153 0.6587265
vt -10.03106 0.6630666
vt -10.04414 0.660465
vt -10.03045 0.6661355
vt -10.04587 0.6630666
vt -10.03106 0.6692035
vt -10.04648 0.6661355
vt -10.0328 0.6718051
vt -10.04587 0.6692035
vt -10.0354 0.6735437
vt -10.04414 0.6718051
vt -10.03847 0.6741531
vt -10.04153 0.6735437
vt -10.03847 0.6280735
vt -10.03045 0.6280735
vt -10.03106 0.6250045
vt -10.03279 0.6224029
vt -10.03106 0.6311414
vt -10.0354 0.6206653
vt -10.03279 0.633743
vt -10.03847 0.620054
vt -10.0354 0.6354806
vt -10.04153 0.6206653
vt -10.03847 0.636091
vt -10.04414 0.6224029
vt -10.04153 0.6354806
vt -10.04587 0.6250045
vt -10.04414 0.633743
vt -10.04648 0.6280735
vt -10.04587 0.6311414
vt -10.03106 0.6630666
vt -10.03045 0.6661355
vt -10.02844 0.6661355
vt -10.02921 0.6622999
vt -10.02921 0.6699712
vt -10.0328 0.660465
vt -10.03106 0.6692035
vt -10.03138 0.6590488
vt -10.03138 0.6732223
vt -10.0354 0.6587265
vt -10.0328 0.6718051
vt -10.03463 0.6568754
vt -10.03463 0.6753948
vt -10.03847 0.6581171
vt -10.0354 0.6735437
vt -10.03847 0.6561124
vt -10.03847 0.6761587
vt -10.04153 0.6587265
vt -10.03847 0.6741531
vt -10.0423 0.6568754
vt -10.0423 0.6753948
vt -10.04414 0.660465
vt -10.04153 0.6735437
vt -10.04555 0.6590488
vt -10.04555 0.6732223
vt -10.04587 0.6630666
vt -10.04414 0.6718051
vt -10.04773 0.6622999
vt -10.04773 0.6699712
vt -10.04648 0.6661355
vt -10.04587 0.6692035
vt -10.04849 0.6661355
vt -10.0354 0.6206653
vt -10.03279 0.6224029
vt -10.03138 0.6209857
vt -10.03463 0.6188133
vt -10.02921 0.6242368
vt -10.03847 0.620054
vt -10.03106 0.6250045
vt -10.03847 0.6180503
vt -10.02844 0.6280735
vt -10.04153 0.6206653
vt -10.03045 0.6280735
vt -10.0423 0.6188133
vt -10.02921 0.6319082
vt -10.04414 0.6224029
vt -10.03106 0.6311414
vt -10.04555 0.6209857
vt -10.03138 0.6351612
vt -10.04587 0.6250045
vt -10.03279 0.633743
vt -10.04773 0.6242368
vt -10.03463 0.6373327
vt -10.04648 0.6280735
vt -10.0354 0.6354806
vt -10.04849 0.6280735
vt -10.03847 0.6380966
vt -10.04587 0.6311414
vt -10.03847 0.636091
vt -10.04773 0.6319082
vt -10.0423 0.6373327
vt -10.04414 0.633743
vt -10.04153 0.6354806
vt -10.04555 0.6351612
vt -10.03768 0.821121
vt -9.9709 0.8197725
vt -10.03768 0.8197725
vt -9.9709 0.821121
vt -10.03768 0.8231399
vt -9.9709 0.8231399
vt -10.03768 0.8255222
vt -9.9709 0.8255222
vt -10.03768 0.8279045
vt -9.9709 0.8279045
vt -10.03768 0.8299234
vt -9.9709 0.8299234
vt -10.03768 0.8312719
vt -9.9709 0.8312719
vt -9.974336 0.804857
vt -10.03424 0.804857
vt -10.03424 0.8069942
vt -9.974336 0.8069942
vt -10.03424 0.8091304
vt -9.974336 0.8091304
vt -9.9709 0.7817085
vt -10.03768 0.7817085
vt -10.03768 0.7830589
vt -9.9709 0.7830589
vt -10.03768 0.7850778
vt -9.9709 0.7850778
vt -10.03768 0.7874591
vt -9.9709 0.7874591
vt -10.03768 0.7898414
vt -9.9709 0.7898414
vt -10.03768 0.7918603
vt -9.9709 0.7918603
vt -10.03768 0.7932098
vt -9.9709 0.7932098
vt -10.03424 0.7710683
vt -9.974336 0.7710683
vt -9.974336 0.7689312
vt -10.03424 0.7689312
vt -9.974336 0.766794
vt -10.03424 0.766794
vt -10.03768 0.7449958
vt -9.9709 0.7436473
vt -10.03768 0.7436473
vt -9.9709 0.7449958
vt -10.03768 0.7470148
vt -9.9709 0.7470148
vt -10.03768 0.749397
vt -9.9709 0.749397
vt -10.03768 0.7517793
vt -9.9709 0.7517793
vt -10.03768 0.7537982
vt -9.9709 0.7537982
vt -10.03768 0.7551467
vt -9.9709 0.7551467
vt -9.974337 0.7287309
vt -10.03424 0.7287309
vt -10.03424 0.7308681
vt -9.974337 0.7308681
vt -10.03424 0.7330053
vt -9.974337 0.7330053
vt -9.9709 0.7055833
vt -10.03768 0.7055833
vt -10.03768 0.7069328
vt -9.9709 0.7069328
vt -10.03768 0.7089517
vt -9.9709 0.7089517
vt -10.03768 0.711334
vt -9.9709 0.711334
vt -10.03768 0.7137163
vt -9.9709 0.7137163
vt -10.03768 0.7157342
vt -9.9709 0.7157342
vt -10.03768 0.7170837
vt -9.9709 0.7170837
vt -10.03424 0.6949422
vt -9.974336 0.6949422
vt -9.974336 0.692806
vt -10.03424 0.692806
vt -9.974336 0.6906688
vt -10.03424 0.6906688
vt -9.222989 0.9187925
vt -9.889388 0.9187925
vt -9.889388 0.9210746
vt -9.222989 0.9210746
vt -9.889388 0.9244878
vt -9.222989 0.9244878
vt -9.889388 0.9285161
vt -9.222989 0.9285161
vt -9.889388 0.9325426
vt -9.222989 0.9325426
vt -9.889388 0.9359577
vt -9.222989 0.9359577
vt -9.889388 0.9382389
vt -9.222989 0.9382389
vt -9.257284 0.8969848
vt -9.855092 0.8969848
vt -9.855092 0.9005973
vt -9.257284 0.9005973
vt -9.855092 0.9042099
vt -9.257284 0.9042099
vt -9.22299 0.8642356
vt -9.889386 0.8642356
vt -9.889386 0.8665178
vt -9.22299 0.8665178
vt -9.889386 0.8699319
vt -9.22299 0.8699319
vt -9.889386 0.8739593
vt -9.22299 0.8739593
vt -9.889386 0.8779867
vt -9.22299 0.8779867
vt -9.889386 0.8814008
vt -9.22299 0.8814008
vt -9.889386 0.883683
vt -9.22299 0.883683
vt -9.257299 0.8426082
vt -9.855077 0.8426082
vt -9.855077 0.8462217
vt -9.257299 0.8462217
vt -9.855077 0.8498342
vt -9.257299 0.8498342
vt -10.05 0.594321
vt -10.05042 0.5964372
vt -10.04489 0.5964372
vt -10.0488 0.5925272
vt -10.05 0.5985534
vt -10.04701 0.5913284
vt -10.0488 0.6003473
vt -10.04489 0.5909078
vt -10.04701 0.601546
vt -10.04278 0.5913284
vt -10.04489 0.6019666
vt -10.04098 0.5925272
vt -10.04278 0.601546
vt -10.03978 0.594321
vt -10.04098 0.6003473
vt -10.03936 0.5964372
vt -10.03978 0.5985534
vt -10.05 0.5689456
vt -10.05042 0.5710618
vt -10.04489 0.5710618
vt -10.0488 0.5671518
vt -10.05 0.5731781
vt -10.04701 0.565953
vt -10.0488 0.5749719
vt -10.04489 0.5655324
vt -10.04701 0.5761707
vt -10.04278 0.565953
vt -10.04489 0.5765913
vt -10.04098 0.5671518
vt -10.04278 0.5761707
vt -10.03978 0.5689456
vt -10.04098 0.5749719
vt -10.03936 0.5710618
vt -10.03978 0.5731781
vt -10.0354 0.6587265
vt -10.03847 0.6581171
vt -10.03847 0.6661355
vt -10.0328 0.660465
vt -10.04153 0.6587265
vt -10.03106 0.6630666
vt -10.04414 0.660465
vt -10.03045 0.6661355
vt -10.04587 0.6630666
vt -10.03106 0.6692035
vt -10.04648 0.6661355
vt -10.0328 0.6718051
vt -10.04587 0.6692035
vt -10.0354 0.6735437
vt -10.04414 0.6718051
vt -10.03847 0.6741531
vt -10.04153 0.6735437
vt -10.03847 0.6280735
vt -10.03045 0.6280735
vt -10.03106 0.6250045
vt -10.03279 0.6224029
vt -10.03106 0.6311414
vt -10.0354 0.6206653
vt -10.03279 0.633743
vt -10.03847 0.620054
vt -10.0354 0.6354806
vt -10.04153 0.6206653
vt -10.03847 0.636091
vt -10.04414 0.6224029
vt -10.04153 0.6354806
vt -10.04587 0.6250045
vt -10.04414 0.633743
vt -10.04648 0.6280735
vt -10.04587 0.6311414
vt -10.03106 0.6630666
vt -10.03045 0.6661355
vt -10.02844 0.6661355
vt -10.02921 0.6622999
vt -10.02921 0.6699712
vt -10.0328 0.660465
vt -10.03106 0.6692035
vt -10.03138 0.6590488
vt -10.03138 0.6732223
vt -10.0354 0.6587265
vt -10.0328 0.6718051
vt -10.03463 0.6568754
vt -10.03463 0.6753948
vt -10.03847 0.6581171
vt -10.0354 0.6735437
vt -10.03847 0.6561124
vt -10.03847 0.6761587
vt -10.04153 0.6587265
vt -10.03847 0.6741531
vt -10.0423 0.6568754
vt -10.0423 0.6753948
vt -10.04414 0.660465
vt -10.04153 0.6735437
vt -10.04555 0.6590488
vt -10.04555 0.6732223
vt -10.04587 0.6630666
vt -10.04414 0.6718051
vt -10.04773 0.6622999
vt -10.04773 0.6699712
vt -10.04648 0.6661355
vt -10.04587 0.6692035
vt -10.04849 0.6661355
vt -10.0354 0.6206653
vt -10.03279 0.6224029
vt -10.03138 0.6209857
vt -10.03463 0.6188133
vt -10.02921 0.6242368
vt -10.03847 0.620054
vt -10.03106 0.6250045
vt -10.03847 0.6180503
vt -10.02844 0.6280735
vt -10.04153 0.6206653
vt -10.03045 0.6280735
vt -10.0423 0.6188133
vt -10.02921 0.6319082
vt -10.04414 0.6224029
vt -10.03106 0.6311414
vt -10.04555 0.6209857
vt -10.03138 0.6351612
vt -10.04587 0.6250045
vt -10.03279 0.633743
vt -10.04773 0.6242368
vt -10.03463 0.6373327
vt -10.04648 0.6280735
vt -10.0354 0.6354806
vt -10.04849 0.6280735
vt -10.03847 0.6380966
vt -10.04587 0.6311414
vt -10.03847 0.636091
vt -10.04773 0.6319082
vt -10.0423 0.6373327
vt -10.04414 0.633743
vt -10.04153 0.6354806
vt -10.04555 0.6351612
vt -10.03768 0.821121
vt -9.9709 0.8197725
vt -10.03768 0.8197725
vt -9.9709 0.821121
vt -10.03768 0.8231399
vt -9.9709 0.8231399
vt -10.03768 0.8255222
vt -9.9709 0.8255222
vt -10.03768 0.8279045
vt -9.9709 0.8279045
vt -10.03768 0.8299234
vt -9.9709 0.8299234
vt -10.03768 0.8312719
vt -9.9709 0.8312719
vt -9.974336 0.804857
vt -10.03424 0.804857
vt -10.03424 0.8069942
vt -9.974336 0.8069942
vt -10.03424 0.8091304
vt -9.974336 0.8091304
vt -9.9709 0.7817085
vt -10.03768 0.7817085
vt -10.03768 0.7830589
vt -9.9709 0.7830589
vt -10.03768 0.7850778
vt -9.9709 0.7850778
vt -10.03768 0.7874591
vt -9.9709 0.7874591
vt -10.03768 0.7898414
vt -9.9709 0.7898414
vt -10.03768 0.7918603
vt -9.9709 0.7918603
vt -10.03768 0.7932098
vt -9.9709 0.7932098
vt -10.03424 0.7710683
vt -9.974336 0.7710683
vt -9.974336 0.7689312
vt -10.03424 0.7689312
vt -9.974336 0.766794
vt -10.03424 0.766794
vt -10.03768 0.7449958
vt -9.9709 0.7436473
vt -10.03768 0.7436473
vt -9.9709 0.7449958
vt -10.03768 0.7470148
vt -9.9709 0.7470148
vt -10.03768 0.749397
vt -9.9709 0.749397
vt -10.03768 0.7517793
vt -9.9709 0.7517793
vt -10.03768 0.7537982
vt -9.9709 0.7537982
vt -10.03768 0.7551467
vt -9.9709 0.7551467
vt -9.974337 0.7287309
vt -10.03424 0.7287309
vt -10.03424 0.7308681
vt -9.974337 0.7308681
vt -10.03424 0.7330053
vt -9.974337 0.7330053
vt -9.9709 0.7055833
vt -10.03768 0.7055833
vt -10.03768 0.7069328
vt -9.9709 0.7069328
vt -10.03768 0.7089517
vt -9.9709 0.7089517
vt -10.03768 0.711334
vt -9.9709 0.711334
vt -10.03768 0.7137163
vt -9.9709 0.7137163
vt -10.03768 0.7157342
vt -9.9709 0.7157342
vt -10.03768 0.7170837
vt -9.9709 0.7170837
vt -10.03424 0.6949422
vt -9.974336 0.6949422
vt -9.974336 0.692806
vt -10.03424 0.692806
vt -9.974336 0.6906688
vt -10.03424 0.6906688
vt -9.222989 0.9187925
vt -9.889388 0.9187925
vt -9.889388 0.9210746
vt -9.222989 0.9210746
vt -9.889388 0.9244878
vt -9.222989 0.9244878
vt -9.889388 0.9285161
vt -9.222989 0.9285161
vt -9.889388 0.9325426
vt -9.222989 0.9325426
vt -9.889388 0.9359577
vt -9.222989 0.9359577
vt -9.889388 0.9382389
vt -9.222989 0.9382389
vt -9.257284 0.8969848
vt -9.855092 0.8969848
vt -9.855092 0.9005973
vt -9.257284 0.9005973
vt -9.855092 0.9042099
vt -9.257284 0.9042099
vt -9.22299 0.8642356
vt -9.889386 0.8642356
vt -9.889386 0.8665178
vt -9.22299 0.8665178
vt -9.889386 0.8699319
vt -9.22299 0.8699319
vt -9.889386 0.8739593
vt -9.22299 0.8739593
vt -9.889386 0.8779867
vt -9.22299 0.8779867
vt -9.889386 0.8814008
vt -9.22299 0.8814008
vt -9.889386 0.883683
vt -9.22299 0.883683
vt -9.257299 0.8426082
vt -9.855077 0.8426082
vt -9.855077 0.8462217
vt -9.257299 0.8462217
vt -9.855077 0.8498342
vt -9.257299 0.8498342
vt -10.05 0.594321
vt -10.05042 0.5964372
vt -10.04489 0.5964372
vt -10.0488 0.5925272
vt -10.05 0.5985534
vt -10.04701 0.5913284
vt -10.0488 0.6003473
vt -10.04489 0.5909078
vt -10.04701 0.601546
vt -10.04278 0.5913284
vt -10.04489 0.6019666
vt -10.04098 0.5925272
vt -10.04278 0.601546
vt -10.03978 0.594321
vt -10.04098 0.6003473
vt -10.03936 0.5964372
vt -10.03978 0.5985534
vt -10.05 0.5689456
vt -10.05042 0.5710618
vt -10.04489 0.5710618
vt -10.0488 0.5671518
vt -10.05 0.5731781
vt -10.04701 0.565953
vt -10.0488 0.5749719
vt -10.04489 0.5655324
vt -10.04701 0.5761707
vt -10.04278 0.565953
vt -10.04489 0.5765913
vt -10.04098 0.5671518
vt -10.04278 0.5761707
vt -10.03978 0.5689456
vt -10.04098 0.5749719
vt -10.03936 0.5710618
vt -10.03978 0.5731781
vt -10.0354 0.6587265
vt -10.03847 0.6581171
vt -10.03847 0.6661355
vt -10.0328 0.660465
vt -10.04153 0.6587265
vt -10.03106 0.6630666
vt -10.04414 0.660465
vt -10.03045 0.6661355
vt -10.04587 0.6630666
vt -10.03106 0.6692035
vt -10.04648 0.6661355
vt -10.0328 0.6718051
vt -10.04587 0.6692035
vt -10.0354 0.6735437
vt -10.04414 0.6718051
vt -10.03847 0.6741531
vt -10.04153 0.6735437
vt -10.03847 0.6280735
vt -10.03045 0.6280735
vt -10.03106 0.6250045
vt -10.03279 0.6224029
vt -10.03106 0.6311414
vt -10.0354 0.6206653
vt -10.03279 0.633743
vt -10.03847 0.620054
vt -10.0354 0.6354806
vt -10.04153 0.6206653
vt -10.03847 0.636091
vt -10.04414 0.6224029
vt -10.04153 0.6354806
vt -10.04587 0.6250045
vt -10.04414 0.633743
vt -10.04648 0.6280735
vt -10.04587 0.6311414
vt -10.03106 0.6630666
vt -10.03045 0.6661355
vt -10.02844 0.6661355
vt -10.02921 0.6622999
vt -10.02921 0.6699712
vt -10.0328 0.660465
vt -10.03106 0.6692035
vt -10.03138 0.6590488
vt -10.03138 0.6732223
vt -10.0354 0.6587265
vt -10.0328 0.6718051
vt -10.03463 0.6568754
vt -10.03463 0.6753948
vt -10.03847 0.6581171
vt -10.0354 0.6735437
vt -10.03847 0.6561124
vt -10.03847 0.6761587
vt -10.04153 0.6587265
vt -10.03847 0.6741531
vt -10.0423 0.6568754
vt -10.0423 0.6753948
vt -10.04414 0.660465
vt -10.04153 0.6735437
vt -10.04555 0.6590488
vt -10.04555 0.6732223
vt -10.04587 0.6630666
vt -10.04414 0.6718051
vt -10.04773 0.6622999
vt -10.04773 0.6699712
vt -10.04648 0.6661355
vt -10.04587 0.6692035
vt -10.04849 0.6661355
vt -10.0354 0.6206653
vt -10.03279 0.6224029
vt -10.03138 0.6209857
vt -10.03463 0.6188133
vt -10.02921 0.6242368
vt -10.03847 0.620054
vt -10.03106 0.6250045
vt -10.03847 0.6180503
vt -10.02844 0.6280735
vt -10.04153 0.6206653
vt -10.03045 0.6280735
vt -10.0423 0.6188133
vt -10.02921 0.6319082
vt -10.04414 0.6224029
vt -10.03106 0.6311414
vt -10.04555 0.6209857
vt -10.03138 0.6351612
vt -10.04587 0.6250045
vt -10.03279 0.633743
vt -10.04773 0.6242368
vt -10.03463 0.6373327
vt -10.04648 0.6280735
vt -10.0354 0.6354806
vt -10.04849 0.6280735
vt -10.03847 0.6380966
vt -10.04587 0.6311414
vt -10.03847 0.636091
vt -10.04773 0.6319082
vt -10.0423 0.6373327
vt -10.04414 0.633743
vt -10.04153 0.6354806
vt -10.04555 0.6351612
vn 1 0 0
vn 1 0 0
vn 1 0 0
vn 1 0 0
vn -1 0 0
vn -1 0 0
vn -1 0 0
vn -1 0 0
vn 1 0 0
vn 1 0 0
vn 1 0 0
vn 1 0 0
vn -1 0 0
vn -1 0 0
vn -1 0 0
vn -1 0 0
vn 1 0 0
vn 1 0 0
vn 1 0 0
vn 1 0 0
vn -1 0 0
vn -1 0 0
vn -1 0 0
vn -1 0 0
vn 1 0 0
vn 1 0 0
vn 1 0 0
vn 1 0 0
vn -1 0 0
vn -1 0 0
vn -1 0 0
vn -1 0 0
vn 1 0 0
vn 1 0 0
vn 1 0 0
vn 1 0 0
vn -1 0 0
vn -1 0 0
vn -1 0 0
vn -1 0 0
vn -1 0 0
vn -1 0 0
vn -1 0 0
vn -1 0 0
vn 1 0 0
vn 1 0 0
vn 1 0 0
vn 1 0 0
vn 1 0 0
vn 1 0 0
vn 1 0 0
vn 1 0 0
vn -1 0 0
vn -1 0 0
vn -1 0 0
vn -1 0 0
vn 1 0 0
vn 1 0 0
vn 1 0 0
vn 1 0 0
vn 1 0 0
vn -1 0 0
vn -1 0 0
vn -1 0 0
vn -1 0 0
vn -1 0 0
vn 1 0 0
vn 1 0 0
vn 1 0 0
vn 1 0 0
vn -1 0 0
vn -1 0 0
vn -1 0 0
vn -1 0 0
vn -1 0 0
vn -1 0 0
vn -1 0 0
vn -1 0 0
vn 1 0 0
vn 1 0 0
vn 1 0 0
vn 1 0 0
vn -1 0 0
vn -1 0 0
vn -1 0 0
vn -1 0 0
vn 1 0 0
vn 1 0 0
vn 1 0 0
vn 1 0 0
vn 1 0 0
vn 1 0 0
vn 1 0 0
vn 1 0 0
vn -1 0 0
vn -1 0 0
vn -1 0 0
vn -1 0 0
vn 0.7071072 0.7071064 0
vn 0.3826837 0.9238794 0
vn 0.3826837 0.9238794 0
vn 0.7071072 0.7071064 0
vn 0.9238798 0.3826828 0
vn 0.9238798 0.3826828 0
vn 1 -7.206469E-07 0
vn 1 -7.206469E-07 0
vn 0.9238794 -0.3826839 0
vn 0.9238794 -0.3826839 0
vn 0.7071069 -0.7071066 0
vn 0.7071069 -0.7071066 0
vn 0.3826837 -0.9238794 0
vn 0.3826837 -0.9238794 0
vn 0.3826837 0.9238794 0
vn 0.3826837 0.9238794 0
vn 5.332784E-07 1 0
vn 5.332784E-07 1 0
vn -0.382683 0.9238797 0
vn -0.382683 0.9238797 0
vn -0.382683 0.9238797 0
vn -0.382683 0.9238797 0
vn -0.7071061 0.7071074 0
vn -0.7071061 0.7071074 0
vn -0.9238794 0.3826839 0
vn -0.9238794 0.3826839 0
vn -1 0 0
vn -1 0 0
vn -0.9238797 -0.3826831 0
vn -0.9238797 -0.3826831 0
vn -0.7071072 -0.7071064 0
vn -0.7071072 -0.7071064 0
vn -0.3826834 -0.9238795 0
vn -0.3826834 -0.9238795 0
vn -0.3826834 -0.9238795 0
vn -0.3826834 -0.9238795 0
vn 0 -1 0
vn 0 -1 0
vn 0.3826837 -0.9238794 0
vn 0.3826837 -0.9238794 0
vn 0.7071061 0.7071074 0
vn 0.3826829 0.9238797 0
vn 0.3826829 0.9238797 0
vn 0.7071061 0.7071074 0
vn 0.9238793 0.382684 0
vn 0.9238793 0.382684 0
vn 1 0 0
vn 1 0 0
vn 0.9238794 -0.3826838 0
vn 0.9238794 -0.3826838 0
vn 0.7071059 -0.7071077 0
vn 0.7071059 -0.7071077 0
vn 0.3826824 -0.92388 0
vn 0.3826824 -0.92388 0
vn 0.3826829 0.9238797 0
vn 0.3826829 0.9238797 0
vn 5.404888E-07 1 0
vn 5.404888E-07 1 0
vn -0.3826861 0.9238784 0
vn -0.3826861 0.9238784 0
vn -0.3826861 0.9238784 0
vn -0.3826861 0.9238784 0
vn -0.7071 0.7071136 0
vn -0.7071 0.7071136 0
vn -0.9238794 0.3826839 0
vn -0.9238794 0.3826839 0
vn -1 0 0
vn -1 0 0
vn -0.9238835 -0.3826738 0
vn -0.9238835 -0.3826738 0
vn -0.7071061 -0.7071074 0
vn -0.7071061 -0.7071074 0
vn -0.3826826 -0.9238799 0
vn -0.3826826 -0.9238799 0
vn -0.3826826 -0.9238799 0
vn -0.3826826 -0.9238799 0
vn 0 -1 0
vn 0 -1 0
vn 0.3826824 -0.92388 0
vn 0.3826824 -0.92388 0
vn 0 0.3826824 -0.92388
vn 0 0.3826824 -0.92388
vn 0 0.7071066 -0.7071069
vn 0 0.7071066 -0.7071069
vn 0 0.9238795 -0.3826834
vn 0 0.9238795 -0.3826834
vn 0 1 -6.969865E-07
vn 0 1 -6.969865E-07
vn 0 0.9238798 0.3826829
vn 0 0.9238798 0.3826829
vn 0 0.7071068 0.7071066
vn 0 0.7071068 0.7071066
vn 0 0.3826823 0.92388
vn 0 0.3826823 0.92388
vn 0 0.3826823 0.92388
vn 0 0.3826823 0.92388
vn 0 0 1
vn 0 0 1
vn 0 -0.3826821 0.92388
vn 0 -0.3826821 0.92388
vn 0 -0.3826821 0.92388
vn 0 -0.3826821 0.92388
vn 0 -0.7071066 0.7071069
vn 0 -0.7071066 0.7071069
vn 0 -0.9238795 0.3826833
vn 0 -0.9238795 0.3826833
vn 0 -1 1.639968E-07
vn 0 -1 1.639968E-07
vn 0 -0.9238795 -0.3826833
vn 0 -0.9238795 -0.3826833
vn 0 -0.7071069 -0.7071066
vn 0 -0.7071069 -0.7071066
vn 0 -0.3826823 -0.92388
vn 0 -0.3826823 -0.92388
vn 0 -0.3826823 -0.92388
vn 0 -0.3826823 -0.92388
vn 0 0 -1
vn 0 0 -1
vn 0 0.3826824 -0.92388
vn 0 0.3826824 -0.92388
vn -1.214599E-06 0 -1
vn 1.214598E-07 0 -1
vn 1.518248E-07 0 -1
vn -6.072998E-07 0 -1
vn 1.457519E-06 0 -1
vn 0 0 -1
vn 7.287595E-07 0 -1
vn -4.858398E-07 0 -1
vn 0 0 -1
vn -9.716794E-07 0 -1
vn 4.858396E-07 0 -1
vn 0 0 -1
vn 9.716797E-07 0 -1
vn 9.716798E-07 0 -1
vn 4.858396E-07 0 -1
vn 4.858397E-07 0 -1
vn 0 0 -1
vn -1.214598E-06 0 -1
vn 1.214593E-07 0 -1
vn 1.518239E-07 0 -1
vn -6.072999E-07 0 -1
vn 1.457533E-06 0 -1
vn 0 0 -1
vn 7.287611E-07 0 -1
vn -4.858402E-07 0 -1
vn 0 0 -1
vn -9.716799E-07 0 -1
vn 4.858389E-07 0 -1
vn 0 0 -1
vn 9.716799E-07 0 -1
vn 9.71678E-07 0 -1
vn 4.858391E-07 0 -1
vn 4.85839E-07 0 -1
vn 0 0 -1
vn -1 0 0
vn -1 0 0
vn -1 0 0
vn -1 0 0
vn -1 0 0
vn -1 0 0
vn -1 0 0
vn -1 0 0
vn -1 0 0
vn -1 0 0
vn -1 0 0
vn -1 0 0
vn -1 0 0
vn -1 0 0
vn -1 0 0
vn -1 0 0
vn -1 0 0
vn 1 0 0
vn 1 4.247519E-06 0
vn 1 8.495043E-06 0
vn 1 4.247529E-06 0
vn 1 0 0
vn 1 0 0
vn 1 0 0
vn 1 0 0
vn 1 0 0
vn 1 0 0
vn 1 0 0
vn 1 0 0
vn 1 0 0
vn 1 0 0
vn 1 -4.247526E-06 0
vn 1 -4.247519E-06 0
vn 1 -8.495042E-06 0
vn -0.7139321 0.2679597 -0.6469147
vn -0.7139321 0 -0.700215
vn -0.7139321 0 -0.700215
vn -0.713932 0.2679597 -0.6469147
vn -0.7139322 -0.2679596 -0.6469147
vn -0.7139319 0.4951265 -0.4951273
vn -0.7139321 -0.2679596 -0.6469147
vn -0.7139319 0.4951268 -0.495127
vn -0.713932 -0.4951269 -0.4951268
vn -0.7139321 0.6469142 -0.2679607
vn -0.713932 -0.4951266 -0.4951271
vn -0.7139321 0.6469144 -0.2679603
vn -0.7139321 -0.6469144 -0.2679603
vn -0.7139324 0.7002147 -5.602393E-07
vn -0.7139321 -0.6469142 -0.2679607
vn -0.7139324 0.7002146 -4.562435E-07
vn -0.7139324 -0.7002146 1.545341E-07
vn -0.7139322 0.6469144 0.2679602
vn -0.7139324 -0.7002146 1.785377E-07
vn -0.7139322 0.6469145 0.2679599
vn -0.713932 -0.6469145 0.2679603
vn -0.7139319 0.4951266 0.4951272
vn -0.713932 -0.6469143 0.2679607
vn -0.7139319 0.4951269 0.4951269
vn -0.7139319 -0.4951268 0.4951269
vn -0.713932 0.2679597 0.6469147
vn -0.7139319 -0.4951265 0.4951272
vn -0.713932 0.2679597 0.6469147
vn -0.7139322 -0.2679595 0.6469147
vn -0.7139322 0 0.7002148
vn -0.7139322 -0.2679595 0.6469147
vn -0.7139321 0 0.7002149
vn 0.7139297 0.2679613 -0.6469166
vn 0.7139297 0.4951279 -0.495129
vn 0.7139297 0.4951282 -0.4951287
vn 0.7139297 0.2679613 -0.6469166
vn 0.7139298 0.6469165 -0.2679611
vn 0.7139299 0 -0.7002171
vn 0.7139298 0.6469164 -0.2679616
vn 0.7139299 0 -0.7002171
vn 0.7139291 0.700218 -4.488825E-07
vn 0.7139297 -0.2679613 -0.6469166
vn 0.7139291 0.700218 -5.417675E-07
vn 0.7139297 -0.2679613 -0.6469166
vn 0.7139298 0.6469166 0.2679607
vn 0.7139297 -0.4951282 -0.4951287
vn 0.7139298 0.6469165 0.2679611
vn 0.7139297 -0.4951284 -0.4951285
vn 0.7139297 0.4951284 0.4951286
vn 0.7139298 -0.6469164 -0.2679615
vn 0.7139297 0.4951281 0.4951288
vn 0.7139298 -0.6469165 -0.2679611
vn 0.7139295 0.2679613 0.6469167
vn 0.7139291 -0.700218 0
vn 0.7139295 0.2679613 0.6469169
vn 0.7139291 -0.700218 0
vn 0.7139298 0 0.7002173
vn 0.7139297 -0.6469164 0.2679615
vn 0.7139298 0 0.7002173
vn 0.7139298 -0.6469166 0.2679611
vn 0.7139297 -0.2679611 0.6469167
vn 0.7139297 -0.4951279 0.495129
vn 0.7139297 -0.2679611 0.6469167
vn 0.7139297 -0.4951282 0.4951287
vn -1 0 0
vn -1 0 0
vn -1 0 0
vn -1 0 0
vn -1 0 0
vn -1 0 0
vn -1 0 0
vn -1 0 0
vn 1 0 0
vn 1 0 0
vn 1 0 0
vn 1 0 0
vn 1 0 0
vn 1 0 0
vn 1 0 0
vn 1 0 0
vn 1 0 0
vn 1 0 0
vn 1 0 0
vn 1 0 0
vn -1 0 0
vn -1 0 0
vn -1 0 0
vn -1 0 0
vn 0.7071072 0.7071064 0
vn 0.3826837 0.9238794 0
vn 0.3826837 0.9238794 0
vn 0.7071072 0.7071064 0
vn 0.9238798 0.3826828 0
vn 0.9238798 0.3826828 0
vn 1 -7.206469E-07 0
vn 1 -7.206469E-07 0
vn 0.9238794 -0.3826839 0
vn 0.9238794 -0.3826839 0
vn 0.7071069 -0.7071066 0
vn 0.7071069 -0.7071066 0
vn 0.3826837 -0.9238794 0
vn 0.3826837 -0.9238794 0
vn 0.3826837 0.9238794 0
vn 0.3826837 0.9238794 0
vn 5.332784E-07 1 0
vn 5.332784E-07 1 0
vn -0.382683 0.9238797 0
vn -0.382683 0.9238797 0
vn -0.382683 0.9238797 0
vn -0.382683 0.9238797 0
vn -0.7071061 0.7071074 0
vn -0.7071061 0.7071074 0
vn -0.9238794 0.3826839 0
vn -0.9238794 0.3826839 0
vn -1 0 0
vn -1 0 0
vn -0.9238797 -0.3826831 0
vn -0.9238797 -0.3826831 0
vn -0.7071072 -0.7071064 0
vn -0.7071072 -0.7071064 0
vn -0.3826834 -0.9238795 0
vn -0.3826834 -0.9238795 0
vn -0.3826834 -0.9238795 0
vn -0.3826834 -0.9238795 0
vn 0 -1 0
vn 0 -1 0
vn 0.3826837 -0.9238794 0
vn 0.3826837 -0.9238794 0
vn 0.7071061 0.7071074 0
vn 0.3826829 0.9238797 0
vn 0.3826829 0.9238797 0
vn 0.7071061 0.7071074 0
vn 0.9238793 0.382684 0
vn 0.9238793 0.382684 0
vn 1 0 0
vn 1 0 0
vn 0.9238794 -0.3826838 0
vn 0.9238794 -0.3826838 0
vn 0.7071059 -0.7071077 0
vn 0.7071059 -0.7071077 0
vn 0.3826824 -0.92388 0
vn 0.3826824 -0.92388 0
vn 0.3826829 0.9238797 0
vn 0.3826829 0.9238797 0
vn 5.404888E-07 1 0
vn 5.404888E-07 1 0
vn -0.3826861 0.9238784 0
vn -0.3826861 0.9238784 0
vn -0.3826861 0.9238784 0
vn -0.3826861 0.9238784 0
vn -0.7071 0.7071136 0
vn -0.7071 0.7071136 0
vn -0.9238794 0.3826839 0
vn -0.9238794 0.3826839 0
vn -1 0 0
vn -1 0 0
vn -0.9238835 -0.3826738 0
vn -0.9238835 -0.3826738 0
vn -0.7071061 -0.7071074 0
vn -0.7071061 -0.7071074 0
vn -0.3826826 -0.9238799 0
vn -0.3826826 -0.9238799 0
vn -0.3826826 -0.9238799 0
vn -0.3826826 -0.9238799 0
vn 0 -1 0
vn 0 -1 0
vn 0.3826824 -0.92388 0
vn 0.3826824 -0.92388 0
vn 0 0.3826824 -0.92388
vn 0 0.3826824 -0.92388
vn 0 0.7071066 -0.7071069
vn 0 0.7071066 -0.7071069
vn 0 0.9238795 -0.3826834
vn 0 0.9238795 -0.3826834
vn 0 1 -6.969865E-07
vn 0 1 -6.969865E-07
vn 0 0.9238798 0.3826829
vn 0 0.9238798 0.3826829
vn 0 0.7071068 0.7071066
vn 0 0.7071068 0.7071066
vn 0 0.3826823 0.92388
vn 0 0.3826823 0.92388
vn 0 0.3826823 0.92388
vn 0 0.3826823 0.92388
vn 0 0 1
vn 0 0 1
vn 0 -0.3826821 0.92388
vn 0 -0.3826821 0.92388
vn 0 -0.3826821 0.92388
vn 0 -0.3826821 0.92388
vn 0 -0.7071066 0.7071069
vn 0 -0.7071066 0.7071069
vn 0 -0.9238795 0.3826833
vn 0 -0.9238795 0.3826833
vn 0 -1 1.639968E-07
vn 0 -1 1.639968E-07
vn 0 -0.9238795 -0.3826833
vn 0 -0.9238795 -0.3826833
vn 0 -0.7071069 -0.7071066
vn 0 -0.7071069 -0.7071066
vn 0 -0.3826823 -0.92388
vn 0 -0.3826823 -0.92388
vn 0 -0.3826823 -0.92388
vn 0 -0.3826823 -0.92388
vn 0 0 -1
vn 0 0 -1
vn 0 0.3826824 -0.92388
vn 0 0.3826824 -0.92388
vn -1.214599E-06 0 -1
vn 1.214598E-07 0 -1
vn 1.518248E-07 0 -1
vn -6.072998E-07 0 -1
vn 1.457519E-06 0 -1
vn 0 0 -1
vn 7.287595E-07 0 -1
vn -4.858398E-07 0 -1
vn 0 0 -1
vn -9.716794E-07 0 -1
vn 4.858396E-07 0 -1
vn 0 0 -1
vn 9.716797E-07 0 -1
vn 9.716798E-07 0 -1
vn 4.858396E-07 0 -1
vn 4.858397E-07 0 -1
vn 0 0 -1
vn -1.214598E-06 0 -1
vn 1.214593E-07 0 -1
vn 1.518239E-07 0 -1
vn -6.072999E-07 0 -1
vn 1.457533E-06 0 -1
vn 0 0 -1
vn 7.287611E-07 0 -1
vn -4.858402E-07 0 -1
vn 0 0 -1
vn -9.716799E-07 0 -1
vn 4.858389E-07 0 -1
vn 0 0 -1
vn 9.716799E-07 0 -1
vn 9.71678E-07 0 -1
vn 4.858391E-07 0 -1
vn 4.85839E-07 0 -1
vn 0 0 -1
vn -1 0 0
vn -1 0 0
vn -1 0 0
vn -1 0 0
vn -1 0 0
vn -1 0 0
vn -1 0 0
vn -1 0 0
vn -1 0 0
vn -1 0 0
vn -1 0 0
vn -1 0 0
vn -1 0 0
vn -1 0 0
vn -1 0 0
vn -1 0 0
vn -1 0 0
vn 1 0 0
vn 1 4.247519E-06 0
vn 1 8.495043E-06 0
vn 1 4.247529E-06 0
vn 1 0 0
vn 1 0 0
vn 1 0 0
vn 1 0 0
vn 1 0 0
vn 1 0 0
vn 1 0 0
vn 1 0 0
vn 1 0 0
vn 1 0 0
vn 1 -4.247526E-06 0
vn 1 -4.247519E-06 0
vn 1 -8.495042E-06 0
vn -0.7139321 0.2679597 -0.6469147
vn -0.7139321 0 -0.700215
vn -0.7139321 0 -0.700215
vn -0.713932 0.2679597 -0.6469147
vn -0.7139322 -0.2679596 -0.6469147
vn -0.7139319 0.4951265 -0.4951273
vn -0.7139321 -0.2679596 -0.6469147
vn -0.7139319 0.4951268 -0.495127
vn -0.713932 -0.4951269 -0.4951268
vn -0.7139321 0.6469142 -0.2679607
vn -0.713932 -0.4951266 -0.4951271
vn -0.7139321 0.6469144 -0.2679603
vn -0.7139321 -0.6469144 -0.2679603
vn -0.7139324 0.7002147 -5.602393E-07
vn -0.7139321 -0.6469142 -0.2679607
vn -0.7139324 0.7002146 -4.562435E-07
vn -0.7139324 -0.7002146 1.545341E-07
vn -0.7139322 0.6469144 0.2679602
vn -0.7139324 -0.7002146 1.785377E-07
vn -0.7139322 0.6469145 0.2679599
vn -0.713932 -0.6469145 0.2679603
vn -0.7139319 0.4951266 0.4951272
vn -0.713932 -0.6469143 0.2679607
vn -0.7139319 0.4951269 0.4951269
vn -0.7139319 -0.4951268 0.4951269
vn -0.713932 0.2679597 0.6469147
vn -0.7139319 -0.4951265 0.4951272
vn -0.713932 0.2679597 0.6469147
vn -0.7139322 -0.2679595 0.6469147
vn -0.7139322 0 0.7002148
vn -0.7139322 -0.2679595 0.6469147
vn -0.7139321 0 0.7002149
vn 0.7139297 0.2679613 -0.6469166
vn 0.7139297 0.4951279 -0.495129
vn 0.7139297 0.4951282 -0.4951287
vn 0.7139297 0.2679613 -0.6469166
vn 0.7139298 0.6469165 -0.2679611
vn 0.7139299 0 -0.7002171
vn 0.7139298 0.6469164 -0.2679616
vn 0.7139299 0 -0.7002171
vn 0.7139291 0.700218 -4.488825E-07
vn 0.7139297 -0.2679613 -0.6469166
vn 0.7139291 0.700218 -5.417675E-07
vn 0.7139297 -0.2679613 -0.6469166
vn 0.7139298 0.6469166 0.2679607
vn 0.7139297 -0.4951282 -0.4951287
vn 0.7139298 0.6469165 0.2679611
vn 0.7139297 -0.4951284 -0.4951285
vn 0.7139297 0.4951284 0.4951286
vn 0.7139298 -0.6469164 -0.2679615
vn 0.7139297 0.4951281 0.4951288
vn 0.7139298 -0.6469165 -0.2679611
vn 0.7139295 0.2679613 0.6469167
vn 0.7139291 -0.700218 0
vn 0.7139295 0.2679613 0.6469169
vn 0.7139291 -0.700218 0
vn 0.7139298 0 0.7002173
vn 0.7139297 -0.6469164 0.2679615
vn 0.7139298 0 0.7002173
vn 0.7139298 -0.6469166 0.2679611
vn 0.7139297 -0.2679611 0.6469167
vn 0.7139297 -0.4951279 0.495129
vn 0.7139297 -0.2679611 0.6469167
vn 0.7139297 -0.4951282 0.4951287
vn 1 0 0
vn 1 0 0
vn 1 0 0
vn 1 0 0
vn -1 0 0
vn -1 0 0
vn -1 0 0
vn -1 0 0
vn -1 0 0
vn -1 0 0
vn -1 0 0
vn -1 0 0
vn 1 0 0
vn 1 0 0
vn 1 0 0
vn 1 0 0
vn 1 0 0
vn 1 0 0
vn 1 0 0
vn 1 0 0
vn -1 0 0
vn -1 0 0
vn -1 0 0
vn -1 0 0
vn 0.7071072 0.7071064 0
vn 0.3826837 0.9238794 0
vn 0.3826837 0.9238794 0
vn 0.7071072 0.7071064 0
vn 0.9238798 0.3826828 0
vn 0.9238798 0.3826828 0
vn 1 -7.206469E-07 0
vn 1 -7.206469E-07 0
vn 0.9238794 -0.3826839 0
vn 0.9238794 -0.3826839 0
vn 0.7071069 -0.7071066 0
vn 0.7071069 -0.7071066 0
vn 0.3826837 -0.9238794 0
vn 0.3826837 -0.9238794 0
vn 0.3826837 0.9238794 0
vn 0.3826837 0.9238794 0
vn 5.332784E-07 1 0
vn 5.332784E-07 1 0
vn -0.382683 0.9238797 0
vn -0.382683 0.9238797 0
vn -0.382683 0.9238797 0
vn -0.382683 0.9238797 0
vn -0.7071061 0.7071074 0
vn -0.7071061 0.7071074 0
vn -0.9238794 0.3826839 0
vn -0.9238794 0.3826839 0
vn -1 0 0
vn -1 0 0
vn -0.9238797 -0.3826831 0
vn -0.9238797 -0.3826831 0
vn -0.7071072 -0.7071064 0
vn -0.7071072 -0.7071064 0
vn -0.3826834 -0.9238795 0
vn -0.3826834 -0.9238795 0
vn -0.3826834 -0.9238795 0
vn -0.3826834 -0.9238795 0
vn 0 -1 0
vn 0 -1 0
vn 0.3826837 -0.9238794 0
vn 0.3826837 -0.9238794 0
vn 0.7071061 0.7071074 0
vn 0.3826829 0.9238797 0
vn 0.3826829 0.9238797 0
vn 0.7071061 0.7071074 0
vn 0.9238793 0.382684 0
vn 0.9238793 0.382684 0
vn 1 0 0
vn 1 0 0
vn 0.9238794 -0.3826838 0
vn 0.9238794 -0.3826838 0
vn 0.7071059 -0.7071077 0
vn 0.7071059 -0.7071077 0
vn 0.3826824 -0.92388 0
vn 0.3826824 -0.92388 0
vn 0.3826829 0.9238797 0
vn 0.3826829 0.9238797 0
vn 5.404888E-07 1 0
vn 5.404888E-07 1 0
vn -0.3826861 0.9238784 0
vn -0.3826861 0.9238784 0
vn -0.3826861 0.9238784 0
vn -0.3826861 0.9238784 0
vn -0.7071 0.7071136 0
vn -0.7071 0.7071136 0
vn -0.9238794 0.3826839 0
vn -0.9238794 0.3826839 0
vn -1 0 0
vn -1 0 0
vn -0.9238835 -0.3826738 0
vn -0.9238835 -0.3826738 0
vn -0.7071061 -0.7071074 0
vn -0.7071061 -0.7071074 0
vn -0.3826826 -0.9238799 0
vn -0.3826826 -0.9238799 0
vn -0.3826826 -0.9238799 0
vn -0.3826826 -0.9238799 0
vn 0 -1 0
vn 0 -1 0
vn 0.3826824 -0.92388 0
vn 0.3826824 -0.92388 0
vn 0 0.3826824 -0.92388
vn 0 0.3826824 -0.92388
vn 0 0.7071066 -0.7071069
vn 0 0.7071066 -0.7071069
vn 0 0.9238795 -0.3826834
vn 0 0.9238795 -0.3826834
vn 0 1 -6.969865E-07
vn 0 1 -6.969865E-07
vn 0 0.9238798 0.3826829
vn 0 0.9238798 0.3826829
vn 0 0.7071068 0.7071066
vn 0 0.7071068 0.7071066
vn 0 0.3826823 0.92388
vn 0 0.3826823 0.92388
vn 0 0.3826823 0.92388
vn 0 0.3826823 0.92388
vn 0 0 1
vn 0 0 1
vn 0 -0.3826821 0.92388
vn 0 -0.3826821 0.92388
vn 0 -0.3826821 0.92388
vn 0 -0.3826821 0.92388
vn 0 -0.7071066 0.7071069
vn 0 -0.7071066 0.7071069
vn 0 -0.9238795 0.3826833
vn 0 -0.9238795 0.3826833
vn 0 -1 1.639968E-07
vn 0 -1 1.639968E-07
vn 0 -0.9238795 -0.3826833
vn 0 -0.9238795 -0.3826833
vn 0 -0.7071069 -0.7071066
vn 0 -0.7071069 -0.7071066
vn 0 -0.3826823 -0.92388
vn 0 -0.3826823 -0.92388
vn 0 -0.3826823 -0.92388
vn 0 -0.3826823 -0.92388
vn 0 0 -1
vn 0 0 -1
vn 0 0.3826824 -0.92388
vn 0 0.3826824 -0.92388
vn -1.214599E-06 0 -1
vn 1.214598E-07 0 -1
vn 1.518248E-07 0 -1
vn -6.072998E-07 0 -1
vn 1.457519E-06 0 -1
vn 0 0 -1
vn 7.287595E-07 0 -1
vn -4.858398E-07 0 -1
vn 0 0 -1
vn -9.716794E-07 0 -1
vn 4.858396E-07 0 -1
vn 0 0 -1
vn 9.716797E-07 0 -1
vn 9.716798E-07 0 -1
vn 4.858396E-07 0 -1
vn 4.858397E-07 0 -1
vn 0 0 -1
vn -1.214598E-06 0 -1
vn 1.214593E-07 0 -1
vn 1.518239E-07 0 -1
vn -6.072999E-07 0 -1
vn 1.457533E-06 0 -1
vn 0 0 -1
vn 7.287611E-07 0 -1
vn -4.858402E-07 0 -1
vn 0 0 -1
vn -9.716799E-07 0 -1
vn 4.858389E-07 0 -1
vn 0 0 -1
vn 9.716799E-07 0 -1
vn 9.71678E-07 0 -1
vn 4.858391E-07 0 -1
vn 4.85839E-07 0 -1
vn 0 0 -1
vn -1 0 0
vn -1 0 0
vn -1 0 0
vn -1 0 0
vn -1 0 0
vn -1 0 0
vn -1 0 0
vn -1 0 0
vn -1 0 0
vn -1 0 0
vn -1 0 0
vn -1 0 0
vn -1 0 0
vn -1 0 0
vn -1 0 0
vn -1 0 0
vn -1 0 0
vn 1 0 0
vn 1 4.247519E-06 0
vn 1 8.495043E-06 0
vn 1 4.247529E-06 0
vn 1 0 0
vn 1 0 0
vn 1 0 0
vn 1 0 0
vn 1 0 0
vn 1 0 0
vn 1 0 0
vn 1 0 0
vn 1 0 0
vn 1 0 0
vn 1 -4.247526E-06 0
vn 1 -4.247519E-06 0
vn 1 -8.495042E-06 0
vn -0.7139321 0.2679597 -0.6469147
vn -0.7139321 0 -0.700215
vn -0.7139321 0 -0.700215
vn -0.713932 0.2679597 -0.6469147
vn -0.7139322 -0.2679596 -0.6469147
vn -0.7139319 0.4951265 -0.4951273
vn -0.7139321 -0.2679596 -0.6469147
vn -0.7139319 0.4951268 -0.495127
vn -0.713932 -0.4951269 -0.4951268
vn -0.7139321 0.6469142 -0.2679607
vn -0.713932 -0.4951266 -0.4951271
vn -0.7139321 0.6469144 -0.2679603
vn -0.7139321 -0.6469144 -0.2679603
vn -0.7139324 0.7002147 -5.602393E-07
vn -0.7139321 -0.6469142 -0.2679607
vn -0.7139324 0.7002146 -4.562435E-07
vn -0.7139324 -0.7002146 1.545341E-07
vn -0.7139322 0.6469144 0.2679602
vn -0.7139324 -0.7002146 1.785377E-07
vn -0.7139322 0.6469145 0.2679599
vn -0.713932 -0.6469145 0.2679603
vn -0.7139319 0.4951266 0.4951272
vn -0.713932 -0.6469143 0.2679607
vn -0.7139319 0.4951269 0.4951269
vn -0.7139319 -0.4951268 0.4951269
vn -0.713932 0.2679597 0.6469147
vn -0.7139319 -0.4951265 0.4951272
vn -0.713932 0.2679597 0.6469147
vn -0.7139322 -0.2679595 0.6469147
vn -0.7139322 0 0.7002148
vn -0.7139322 -0.2679595 0.6469147
vn -0.7139321 0 0.7002149
vn 0.7139297 0.2679613 -0.6469166
vn 0.7139297 0.4951279 -0.495129
vn 0.7139297 0.4951282 -0.4951287
vn 0.7139297 0.2679613 -0.6469166
vn 0.7139298 0.6469165 -0.2679611
vn 0.7139299 0 -0.7002171
vn 0.7139298 0.6469164 -0.2679616
vn 0.7139299 0 -0.7002171
vn 0.7139291 0.700218 -4.488825E-07
vn 0.7139297 -0.2679613 -0.6469166
vn 0.7139291 0.700218 -5.417675E-07
vn 0.7139297 -0.2679613 -0.6469166
vn 0.7139298 0.6469166 0.2679607
vn 0.7139297 -0.4951282 -0.4951287
vn 0.7139298 0.6469165 0.2679611
vn 0.7139297 -0.4951284 -0.4951285
vn 0.7139297 0.4951284 0.4951286
vn 0.7139298 -0.6469164 -0.2679615
vn 0.7139297 0.4951281 0.4951288
vn 0.7139298 -0.6469165 -0.2679611
vn 0.7139295 0.2679613 0.6469167
vn 0.7139291 -0.700218 0
vn 0.7139295 0.2679613 0.6469169
vn 0.7139291 -0.700218 0
vn 0.7139298 0 0.7002173
vn 0.7139297 -0.6469164 0.2679615
vn 0.7139298 0 0.7002173
vn 0.7139298 -0.6469166 0.2679611
vn 0.7139297 -0.2679611 0.6469167
vn 0.7139297 -0.4951279 0.495129
vn 0.7139297 -0.2679611 0.6469167
vn 0.7139297 -0.4951282 0.4951287
vn 1 0 0
vn 1 0 0
vn 1 0 0
vn 1 0 0
vn -1 0 0
vn -1 0 0
vn -1 0 0
vn -1 0 0
vn -1 0 0
vn -1 0 0
vn -1 0 0
vn -1 0 0
vn 1 0 0
vn 1 0 0
vn 1 0 0
vn 1 0 0
vn -1 0 0
vn -1 0 0
vn -1 0 0
vn -1 0 0
vn 1 0 0
vn 1 0 0
vn 1 0 0
vn 1 0 0
vn 0.7071072 0.7071064 0
vn 0.3826837 0.9238794 0
vn 0.3826837 0.9238794 0
vn 0.7071072 0.7071064 0
vn 0.9238798 0.3826828 0
vn 0.9238798 0.3826828 0
vn 1 -7.206469E-07 0
vn 1 -7.206469E-07 0
vn 0.9238794 -0.3826839 0
vn 0.9238794 -0.3826839 0
vn 0.7071069 -0.7071066 0
vn 0.7071069 -0.7071066 0
vn 0.3826837 -0.9238794 0
vn 0.3826837 -0.9238794 0
vn 0.3826837 0.9238794 0
vn 0.3826837 0.9238794 0
vn 5.332784E-07 1 0
vn 5.332784E-07 1 0
vn -0.382683 0.9238797 0
vn -0.382683 0.9238797 0
vn -0.382683 0.9238797 0
vn -0.382683 0.9238797 0
vn -0.7071061 0.7071074 0
vn -0.7071061 0.7071074 0
vn -0.9238794 0.3826839 0
vn -0.9238794 0.3826839 0
vn -1 0 0
vn -1 0 0
vn -0.9238797 -0.3826831 0
vn -0.9238797 -0.3826831 0
vn -0.7071072 -0.7071064 0
vn -0.7071072 -0.7071064 0
vn -0.3826834 -0.9238795 0
vn -0.3826834 -0.9238795 0
vn -0.3826834 -0.9238795 0
vn -0.3826834 -0.9238795 0
vn 0 -1 0
vn 0 -1 0
vn 0.3826837 -0.9238794 0
vn 0.3826837 -0.9238794 0
vn 0.7071061 0.7071074 0
vn 0.3826829 0.9238797 0
vn 0.3826829 0.9238797 0
vn 0.7071061 0.7071074 0
vn 0.9238793 0.382684 0
vn 0.9238793 0.382684 0
vn 1 0 0
vn 1 0 0
vn 0.9238794 -0.3826838 0
vn 0.9238794 -0.3826838 0
vn 0.7071059 -0.7071077 0
vn 0.7071059 -0.7071077 0
vn 0.3826824 -0.92388 0
vn 0.3826824 -0.92388 0
vn 0.3826829 0.9238797 0
vn 0.3826829 0.9238797 0
vn 5.404888E-07 1 0
vn 5.404888E-07 1 0
vn -0.3826861 0.9238784 0
vn -0.3826861 0.9238784 0
vn -0.3826861 0.9238784 0
vn -0.3826861 0.9238784 0
vn -0.7071 0.7071136 0
vn -0.7071 0.7071136 0
vn -0.9238794 0.3826839 0
vn -0.9238794 0.3826839 0
vn -1 0 0
vn -1 0 0
vn -0.9238835 -0.3826738 0
vn -0.9238835 -0.3826738 0
vn -0.7071061 -0.7071074 0
vn -0.7071061 -0.7071074 0
vn -0.3826826 -0.9238799 0
vn -0.3826826 -0.9238799 0
vn -0.3826826 -0.9238799 0
vn -0.3826826 -0.9238799 0
vn 0 -1 0
vn 0 -1 0
vn 0.3826824 -0.92388 0
vn 0.3826824 -0.92388 0
vn 0 0.3826824 -0.92388
vn 0 0.3826824 -0.92388
vn 0 0.7071066 -0.7071069
vn 0 0.7071066 -0.7071069
vn 0 0.9238795 -0.3826834
vn 0 0.9238795 -0.3826834
vn 0 1 -6.969865E-07
vn 0 1 -6.969865E-07
vn 0 0.9238798 0.3826829
vn 0 0.9238798 0.3826829
vn 0 0.7071068 0.7071066
vn 0 0.7071068 0.7071066
vn 0 0.3826823 0.92388
vn 0 0.3826823 0.92388
vn 0 0.3826823 0.92388
vn 0 0.3826823 0.92388
vn 0 0 1
vn 0 0 1
vn 0 -0.3826821 0.92388
vn 0 -0.3826821 0.92388
vn 0 -0.3826821 0.92388
vn 0 -0.3826821 0.92388
vn 0 -0.7071066 0.7071069
vn 0 -0.7071066 0.7071069
vn 0 -0.9238795 0.3826833
vn 0 -0.9238795 0.3826833
vn 0 -1 1.639968E-07
vn 0 -1 1.639968E-07
vn 0 -0.9238795 -0.3826833
vn 0 -0.9238795 -0.3826833
vn 0 -0.7071069 -0.7071066
vn 0 -0.7071069 -0.7071066
vn 0 -0.3826823 -0.92388
vn 0 -0.3826823 -0.92388
vn 0 -0.3826823 -0.92388
vn 0 -0.3826823 -0.92388
vn 0 0 -1
vn 0 0 -1
vn 0 0.3826824 -0.92388
vn 0 0.3826824 -0.92388
vn -1.214599E-06 0 -1
vn 1.214598E-07 0 -1
vn 1.518248E-07 0 -1
vn -6.072998E-07 0 -1
vn 1.457519E-06 0 -1
vn 0 0 -1
vn 7.287595E-07 0 -1
vn -4.858398E-07 0 -1
vn 0 0 -1
vn -9.716794E-07 0 -1
vn 4.858396E-07 0 -1
vn 0 0 -1
vn 9.716797E-07 0 -1
vn 9.716798E-07 0 -1
vn 4.858396E-07 0 -1
vn 4.858397E-07 0 -1
vn 0 0 -1
vn -1.214598E-06 0 -1
vn 1.214593E-07 0 -1
vn 1.518239E-07 0 -1
vn -6.072999E-07 0 -1
vn 1.457533E-06 0 -1
vn 0 0 -1
vn 7.287611E-07 0 -1
vn -4.858402E-07 0 -1
vn 0 0 -1
vn -9.716799E-07 0 -1
vn 4.858389E-07 0 -1
vn 0 0 -1
vn 9.716799E-07 0 -1
vn 9.71678E-07 0 -1
vn 4.858391E-07 0 -1
vn 4.85839E-07 0 -1
vn 0 0 -1
vn -1 0 0
vn -1 0 0
vn -1 0 0
vn -1 0 0
vn -1 0 0
vn -1 0 0
vn -1 0 0
vn -1 0 0
vn -1 0 0
vn -1 0 0
vn -1 0 0
vn -1 0 0
vn -1 0 0
vn -1 0 0
vn -1 0 0
vn -1 0 0
vn -1 0 0
vn 1 0 0
vn 1 4.247519E-06 0
vn 1 8.495043E-06 0
vn 1 4.247529E-06 0
vn 1 0 0
vn 1 0 0
vn 1 0 0
vn 1 0 0
vn 1 0 0
vn 1 0 0
vn 1 0 0
vn 1 0 0
vn 1 0 0
vn 1 0 0
vn 1 -4.247526E-06 0
vn 1 -4.247519E-06 0
vn 1 -8.495042E-06 0
vn -0.7139321 0.2679597 -0.6469147
vn -0.7139321 0 -0.700215
vn -0.7139321 0 -0.700215
vn -0.713932 0.2679597 -0.6469147
vn -0.7139322 -0.2679596 -0.6469147
vn -0.7139319 0.4951265 -0.4951273
vn -0.7139321 -0.2679596 -0.6469147
vn -0.7139319 0.4951268 -0.495127
vn -0.713932 -0.4951269 -0.4951268
vn -0.7139321 0.6469142 -0.2679607
vn -0.713932 -0.4951266 -0.4951271
vn -0.7139321 0.6469144 -0.2679603
vn -0.7139321 -0.6469144 -0.2679603
vn -0.7139324 0.7002147 -5.602393E-07
vn -0.7139321 -0.6469142 -0.2679607
vn -0.7139324 0.7002146 -4.562435E-07
vn -0.7139324 -0.7002146 1.545341E-07
vn -0.7139322 0.6469144 0.2679602
vn -0.7139324 -0.7002146 1.785377E-07
vn -0.7139322 0.6469145 0.2679599
vn -0.713932 -0.6469145 0.2679603
vn -0.7139319 0.4951266 0.4951272
vn -0.713932 -0.6469143 0.2679607
vn -0.7139319 0.4951269 0.4951269
vn -0.7139319 -0.4951268 0.4951269
vn -0.713932 0.2679597 0.6469147
vn -0.7139319 -0.4951265 0.4951272
vn -0.713932 0.2679597 0.6469147
vn -0.7139322 -0.2679595 0.6469147
vn -0.7139322 0 0.7002148
vn -0.7139322 -0.2679595 0.6469147
vn -0.7139321 0 0.7002149
vn 0.7139297 0.2679613 -0.6469166
vn 0.7139297 0.4951279 -0.495129
vn 0.7139297 0.4951282 -0.4951287
vn 0.7139297 0.2679613 -0.6469166
vn 0.7139298 0.6469165 -0.2679611
vn 0.7139299 0 -0.7002171
vn 0.7139298 0.6469164 -0.2679616
vn 0.7139299 0 -0.7002171
vn 0.7139291 0.700218 -4.488825E-07
vn 0.7139297 -0.2679613 -0.6469166
vn 0.7139291 0.700218 -5.417675E-07
vn 0.7139297 -0.2679613 -0.6469166
vn 0.7139298 0.6469166 0.2679607
vn 0.7139297 -0.4951282 -0.4951287
vn 0.7139298 0.6469165 0.2679611
vn 0.7139297 -0.4951284 -0.4951285
vn 0.7139297 0.4951284 0.4951286
vn 0.7139298 -0.6469164 -0.2679615
vn 0.7139297 0.4951281 0.4951288
vn 0.7139298 -0.6469165 -0.2679611
vn 0.7139295 0.2679613 0.6469167
vn 0.7139291 -0.700218 0
vn 0.7139295 0.2679613 0.6469169
vn 0.7139291 -0.700218 0
vn 0.7139298 0 0.7002173
vn 0.7139297 -0.6469164 0.2679615
vn 0.7139298 0 0.7002173
vn 0.7139298 -0.6469166 0.2679611
vn 0.7139297 -0.2679611 0.6469167
vn 0.7139297 -0.4951279 0.495129
vn 0.7139297 -0.2679611 0.6469167
vn 0.7139297 -0.4951282 0.4951287
usemtl HammeredMetal_Dark
f 759/759/929 758/758/928 757/757/927
f 758/758/928 760/760/930 757/757/927
f 757/757/927 760/760/930 761/761/931
f 760/760/930 762/762/932 761/761/931
f 761/761/931 762/762/932 763/763/933
f 762/762/932 764/764/934 763/763/933
f 763/763/933 764/764/934 765/765/935
f 764/764/934 766/766/936 765/765/935
f 765/765/935 766/766/936 767/767/937
f 766/766/936 768/768/938 767/767/937
f 767/767/937 768/768/938 769/769/939
f 768/768/938 770/770/940 769/769/939
f 773/773/943 772/772/942 771/771/941
f 774/774/944 773/773/943 771/771/941
f 775/775/945 773/773/943 774/774/944
f 776/776/946 775/775/945 774/774/944
f 779/779/949 778/778/948 777/777/947
f 780/780/950 779/779/949 777/777/947
f 781/781/951 779/779/949 780/780/950
f 782/782/952 781/781/951 780/780/950
f 783/783/953 781/781/951 782/782/952
f 784/784/954 783/783/953 782/782/952
f 785/785/955 783/783/953 784/784/954
f 786/786/956 785/785/955 784/784/954
f 787/787/957 785/785/955 786/786/956
f 788/788/958 787/787/957 786/786/956
f 789/789/959 787/787/957 788/788/958
f 790/790/960 789/789/959 788/788/958
f 793/793/963 792/792/962 791/791/961
f 794/794/964 793/793/963 791/791/961
f 795/795/965 793/793/963 794/794/964
f 796/796/966 795/795/965 794/794/964
f 799/799/969 798/798/968 797/797/967
f 798/798/968 800/800/970 797/797/967
f 797/797/967 800/800/970 801/801/971
f 800/800/970 802/802/972 801/801/971
f 801/801/971 802/802/972 803/803/973
f 802/802/972 804/804/974 803/803/973
f 803/803/973 804/804/974 805/805/975
f 804/804/974 806/806/976 805/805/975
f 805/805/975 806/806/976 807/807/977
f 806/806/976 808/808/978 807/807/977
f 807/807/977 808/808/978 809/809/979
f 808/808/978 810/810/980 809/809/979
f 813/813/983 812/812/982 811/811/981
f 814/814/984 813/813/983 811/811/981
f 815/815/985 813/813/983 814/814/984
f 816/816/986 815/815/985 814/814/984
f 819/819/989 818/818/988 817/817/987
f 820/820/990 819/819/989 817/817/987
f 821/821/991 819/819/989 820/820/990
f 822/822/992 821/821/991 820/820/990
f 823/823/993 821/821/991 822/822/992
f 824/824/994 823/823/993 822/822/992
f 825/825/995 823/823/993 824/824/994
f 826/826/996 825/825/995 824/824/994
f 827/827/997 825/825/995 826/826/996
f 828/828/998 827/827/997 826/826/996
f 829/829/999 827/827/997 828/828/998
f 830/830/1000 829/829/999 828/828/998
f 833/833/1003 832/832/1002 831/831/1001
f 834/834/1004 833/833/1003 831/831/1001
f 835/835/1005 833/833/1003 834/834/1004
f 836/836/1006 835/835/1005 834/834/1004
f 839/839/1009 838/838/1008 837/837/1007
f 840/840/1010 839/839/1009 837/837/1007
f 841/841/1011 839/839/1009 840/840/1010
f 842/842/1012 841/841/1011 840/840/1010
f 843/843/1013 841/841/1011 842/842/1012
f 844/844/1014 843/843/1013 842/842/1012
f 845/845/1015 843/843/1013 844/844/1014
f 846/846/1016 845/845/1015 844/844/1014
f 847/847/1017 845/845/1015 846/846/1016
f 848/848/1018 847/847/1017 846/846/1016
f 849/849/1019 847/847/1017 848/848/1018
f 850/850/1020 849/849/1019 848/848/1018
f 853/853/1023 852/852/1022 851/851/1021
f 854/854/1024 853/853/1023 851/851/1021
f 855/855/1025 853/853/1023 854/854/1024
f 856/856/1026 855/855/1025 854/854/1024
f 859/859/1029 858/858/1028 857/857/1027
f 860/860/1030 859/859/1029 857/857/1027
f 861/861/1031 859/859/1029 860/860/1030
f 862/862/1032 861/861/1031 860/860/1030
f 863/863/1033 861/861/1031 862/862/1032
f 864/864/1034 863/863/1033 862/862/1032
f 865/865/1035 863/863/1033 864/864/1034
f 866/866/1036 865/865/1035 864/864/1034
f 867/867/1037 865/865/1035 866/866/1036
f 868/868/1038 867/867/1037 866/866/1036
f 869/869/1039 867/867/1037 868/868/1038
f 870/870/1040 869/869/1039 868/868/1038
f 873/873/1043 872/872/1042 871/871/1041
f 874/874/1044 873/873/1043 871/871/1041
f 875/875/1045 873/873/1043 874/874/1044
f 876/876/1046 875/875/1045 874/874/1044
f 879/879/1049 878/878/1048 877/877/1047
f 880/880/1050 879/879/1049 877/877/1047
f 878/878/1048 879/879/1049 881/881/1051
f 879/879/1049 880/880/1050 882/882/1052
f 879/879/1049 883/883/1053 881/881/1051
f 884/884/1054 879/879/1049 882/882/1052
f 883/883/1053 879/879/1049 885/885/1055
f 879/879/1049 884/884/1054 886/886/1056
f 879/879/1049 887/887/1057 885/885/1055
f 888/888/1058 879/879/1049 886/886/1056
f 887/887/1057 879/879/1049 889/889/1059
f 879/879/1049 888/888/1058 890/890/1060
f 879/879/1049 891/891/1061 889/889/1059
f 892/892/1062 879/879/1049 890/890/1060
f 891/891/1061 879/879/1049 893/893/1063
f 879/879/1049 892/892/1062 893/893/1063
f 896/896/1066 895/895/1065 894/894/1064
f 897/897/1067 896/896/1066 894/894/1064
f 895/895/1065 896/896/1066 898/898/1068
f 896/896/1066 897/897/1067 899/899/1069
f 896/896/1066 900/900/1070 898/898/1068
f 901/901/1071 896/896/1066 899/899/1069
f 900/900/1070 896/896/1066 902/902/1072
f 896/896/1066 901/901/1071 903/903/1073
f 896/896/1066 904/904/1074 902/902/1072
f 905/905/1075 896/896/1066 903/903/1073
f 904/904/1074 896/896/1066 906/906/1076
f 896/896/1066 905/905/1075 907/907/1077
f 896/896/1066 908/908/1078 906/906/1076
f 909/909/1079 896/896/1066 907/907/1077
f 908/908/1078 896/896/1066 910/910/1080
f 896/896/1066 909/909/1079 910/910/1080
f 913/913/1083 912/912/1082 911/911/1081
f 914/914/1084 913/913/1083 911/911/1081
f 912/912/1082 913/913/1083 915/915/1085
f 913/913/1083 914/914/1084 916/916/1086
f 913/913/1083 917/917/1087 915/915/1085
f 918/918/1088 913/913/1083 916/916/1086
f 917/917/1087 913/913/1083 919/919/1089
f 913/913/1083 918/918/1088 920/920/1090
f 913/913/1083 921/921/1091 919/919/1089
f 922/922/1092 913/913/1083 920/920/1090
f 921/921/1091 913/913/1083 923/923/1093
f 913/913/1083 922/922/1092 924/924/1094
f 913/913/1083 925/925/1095 923/923/1093
f 926/926/1096 913/913/1083 924/924/1094
f 925/925/1095 913/913/1083 927/927/1097
f 913/913/1083 926/926/1096 927/927/1097
f 930/930/1100 929/929/1099 928/928/1098
f 931/931/1101 930/930/1100 928/928/1098
f 929/929/1099 932/932/1102 928/928/1098
f 933/933/1103 931/931/1101 928/928/1098
f 932/932/1102 934/934/1104 928/928/1098
f 935/935/1105 933/933/1103 928/928/1098
f 934/934/1104 936/936/1106 928/928/1098
f 937/937/1107 935/935/1105 928/928/1098
f 936/936/1106 938/938/1108 928/928/1098
f 939/939/1109 937/937/1107 928/928/1098
f 938/938/1108 940/940/1110 928/928/1098
f 941/941/1111 939/939/1109 928/928/1098
f 940/940/1110 942/942/1112 928/928/1098
f 943/943/1113 941/941/1111 928/928/1098
f 942/942/1112 944/944/1114 928/928/1098
f 944/944/1114 943/943/1113 928/928/1098
f 947/947/1117 946/946/1116 945/945/1115
f 948/948/1118 947/947/1117 945/945/1115
f 946/946/1116 947/947/1117 949/949/1119
f 945/945/1115 950/950/1120 948/948/1118
f 951/951/1121 946/946/1116 949/949/1119
f 950/950/1120 952/952/1122 948/948/1118
f 951/951/1121 949/949/1119 953/953/1123
f 950/950/1120 954/954/1124 952/952/1122
f 955/955/1125 951/951/1121 953/953/1123
f 954/954/1124 956/956/1126 952/952/1122
f 955/955/1125 953/953/1123 957/957/1127
f 954/954/1124 958/958/1128 956/956/1126
f 959/959/1129 955/955/1125 957/957/1127
f 958/958/1128 960/960/1130 956/956/1126
f 959/959/1129 957/957/1127 961/961/1131
f 958/958/1128 962/962/1132 960/960/1130
f 963/963/1133 959/959/1129 961/961/1131
f 962/962/1132 964/964/1134 960/960/1130
f 963/963/1133 961/961/1131 965/965/1135
f 962/962/1132 966/966/1136 964/964/1134
f 967/967/1137 963/963/1133 965/965/1135
f 966/966/1136 968/968/1138 964/964/1134
f 967/967/1137 965/965/1135 969/969/1139
f 966/966/1136 970/970/1140 968/968/1138
f 971/971/1141 967/967/1137 969/969/1139
f 970/970/1140 972/972/1142 968/968/1138
f 971/971/1141 969/969/1139 973/973/1143
f 970/970/1140 974/974/1144 972/972/1142
f 975/975/1145 971/971/1141 973/973/1143
f 974/974/1144 976/976/1146 972/972/1142
f 975/975/1145 973/973/1143 976/976/1146
f 974/974/1144 975/975/1145 976/976/1146
f 979/979/1149 978/978/1148 977/977/1147
f 980/980/1150 979/979/1149 977/977/1147
f 979/979/1149 981/981/1151 978/978/1148
f 977/977/1147 982/982/1152 980/980/1150
f 981/981/1151 983/983/1153 978/978/1148
f 982/982/1152 984/984/1154 980/980/1150
f 981/981/1151 985/985/1155 983/983/1153
f 984/984/1154 982/982/1152 986/986/1156
f 985/985/1155 987/987/1157 983/983/1153
f 988/988/1158 984/984/1154 986/986/1156
f 985/985/1155 989/989/1159 987/987/1157
f 988/988/1158 986/986/1156 990/990/1160
f 989/989/1159 991/991/1161 987/987/1157
f 992/992/1162 988/988/1158 990/990/1160
f 989/989/1159 993/993/1163 991/991/1161
f 992/992/1162 990/990/1160 994/994/1164
f 993/993/1163 995/995/1165 991/991/1161
f 996/996/1166 992/992/1162 994/994/1164
f 993/993/1163 997/997/1167 995/995/1165
f 996/996/1166 994/994/1164 998/998/1168
f 997/997/1167 999/999/1169 995/995/1165
f 1000/1000/1170 996/996/1166 998/998/1168
f 997/997/1167 1001/1001/1171 999/999/1169
f 1000/1000/1170 998/998/1168 1002/1002/1172
f 1001/1001/1171 1003/1003/1173 999/999/1169
f 1004/1004/1174 1000/1000/1170 1002/1002/1172
f 1001/1001/1171 1005/1005/1175 1003/1003/1173
f 1004/1004/1174 1002/1002/1172 1006/1006/1176
f 1005/1005/1175 1007/1007/1177 1003/1003/1173
f 1008/1008/1178 1004/1004/1174 1006/1006/1176
f 1008/1008/1178 1006/1006/1176 1007/1007/1177
f 1005/1005/1175 1008/1008/1178 1007/1007/1177
