mtllib Dresser_205_1.mtl
v -0.13949 0.00201 0
v -0.14041 0.00262 0.03038
v -0.14041 0.00262 0
v -0.13949 0.00201 0.03038
v -0.13888 0.00109 0
v -0.13888 0.00109 0.03038
v -0.13866 0 0
v -0.13866 0 0.03038
v -0.13888 -0.00108 0
v -0.13888 -0.00108 0.03038
v -0.13949 -0.002 0
v -0.13949 -0.002 0.03038
v -0.14041 -0.00261 0
v -0.14041 -0.00261 0.03038
v -0.14041 0.00262 0
v -0.14041 0.00262 0.03038
v -0.14149 0.00284 0.03038
v -0.14149 0.00284 0
v -0.14258 0.00262 0.03038
v -0.14258 0.00262 0
v -0.14258 0.00262 0
v -0.14258 0.00262 0.03038
v -0.1435 0.00201 0.03038
v -0.1435 0.00201 0
v -0.14411 0.00109 0.03038
v -0.14411 0.00109 0
v -0.14433 1E-05 0.03038
v -0.14432 1E-05 0
v -0.14411 -0.00108 0.03038
v -0.14411 -0.00108 0
v -0.1435 -0.002 0.03038
v -0.1435 -0.002 0
v -0.14258 -0.00261 0.03038
v -0.14258 -0.00261 0
v -0.14258 -0.00261 0
v -0.14258 -0.00261 0.03038
v -0.14149 -0.00283 0.03038
v -0.14149 -0.00283 0
v -0.14041 -0.00261 0.03038
v -0.14041 -0.00261 0
v 0.14266 0.00201 0
v 0.14175 0.00262 0.03038
v 0.14175 0.00262 0
v 0.14266 0.00201 0.03038
v 0.14328 0.00109 0
v 0.14328 0.00109 0.03038
v 0.14349 0 0
v 0.14349 0 0.03038
v 0.14328 -0.00108 0
v 0.14328 -0.00108 0.03038
v 0.14266 -0.002 0
v 0.14266 -0.002 0.03038
v 0.14175 -0.00261 0
v 0.14175 -0.00261 0.03038
v 0.14175 0.00262 0
v 0.14175 0.00262 0.03038
v 0.14066 0.00284 0.03038
v 0.14066 0.00284 0
v 0.13958 0.00262 0.03038
v 0.13958 0.00262 0
v 0.13958 0.00262 0
v 0.13958 0.00262 0.03038
v 0.13866 0.00201 0.03038
v 0.13866 0.00201 0
v 0.13805 0.00109 0.03038
v 0.13805 0.00109 0
v 0.13783 0 0.03038
v 0.13783 0 0
v 0.13805 -0.00108 0.03038
v 0.13805 -0.00108 0
v 0.13866 -0.002 0.03038
v 0.13866 -0.002 0
v 0.13958 -0.00261 0.03038
v 0.13958 -0.00261 0
v 0.13958 -0.00261 0
v 0.13958 -0.00261 0.03038
v 0.14066 -0.00283 0.03038
v 0.14066 -0.00283 0
v 0.14175 -0.00261 0.03038
v 0.14175 -0.00261 0
v -0.15156 0.00184 0.02934
v 0.15157 0.00184 0.02934
v 0.15157 0.00339 0.03038
v -0.15156 0.00339 0.03038
v 0.15157 0.00443 0.03193
v -0.15156 0.00443 0.03193
v 0.15157 0.00479 0.03377
v -0.15156 0.00479 0.03377
v 0.15157 0.00443 0.0356
v -0.15156 0.00443 0.0356
v 0.15157 0.00339 0.03715
v -0.15156 0.00339 0.03715
v 0.15157 0.00184 0.03819
v -0.15156 0.00184 0.03819
v -0.15156 0.00184 0.03819
v 0.15157 0.00184 0.03819
v 0.15157 0 0.03855
v -0.15156 1E-05 0.03855
v 0.15157 -0.00183 0.03819
v -0.15156 -0.00183 0.03819
v -0.15156 -0.00183 0.03819
v 0.15157 -0.00183 0.03819
v 0.15157 -0.00338 0.03715
v -0.15156 -0.00338 0.03715
v 0.15157 -0.00442 0.0356
v -0.15156 -0.00442 0.0356
v 0.15157 -0.00478 0.03377
v -0.15156 -0.00478 0.03377
v 0.15157 -0.00442 0.03193
v -0.15156 -0.00442 0.03193
v 0.15157 -0.00338 0.03038
v -0.15156 -0.00338 0.03038
v 0.15157 -0.00183 0.02934
v -0.15156 -0.00183 0.02934
v -0.15156 -0.00183 0.02934
v 0.15157 -0.00183 0.02934
v 0.15157 0 0.02898
v -0.15156 1E-05 0.02898
v 0.15157 0.00184 0.02934
v -0.15156 0.00184 0.02934
v -0.14041 0.00262 0
v -0.14149 0.00284 0
v -0.14149 0 0
v -0.13949 0.00201 0
v -0.14258 0.00262 0
v -0.13888 0.00109 0
v -0.1435 0.00201 0
v -0.13866 0 0
v -0.14411 0.00109 0
v -0.13888 -0.00108 0
v -0.14432 1E-05 0
v -0.13949 -0.002 0
v -0.14411 -0.00108 0
v -0.14041 -0.00261 0
v -0.1435 -0.002 0
v -0.14149 -0.00283 0
v -0.14258 -0.00261 0
v 0.14175 0.00262 0
v 0.14066 0.00284 0
v 0.14066 0 0
v 0.14266 0.00201 0
v 0.13958 0.00262 0
v 0.14328 0.00109 0
v 0.13866 0.00201 0
v 0.14349 0 0
v 0.13805 0.00109 0
v 0.14328 -0.00108 0
v 0.13783 0 0
v 0.14266 -0.002 0
v 0.13805 -0.00108 0
v 0.14175 -0.00261 0
v 0.13866 -0.002 0
v 0.14066 -0.00283 0
v 0.13958 -0.00261 0
v -0.15249 0.00354 0.0323
v -0.15249 0.00383 0.03377
v -0.15249 0 0.03377
v -0.15249 0.00271 0.03106
v -0.15249 0.00354 0.03523
v -0.15249 0.00147 0.03023
v -0.15249 0.00271 0.03647
v -0.15249 0 0.02994
v -0.15249 0.00147 0.0373
v -0.15249 -0.00146 0.03023
v -0.15249 1E-05 0.0376
v -0.15249 -0.0027 0.03106
v -0.15249 -0.00146 0.0373
v -0.15249 -0.00353 0.0323
v -0.15249 -0.0027 0.03647
v -0.15249 -0.00382 0.03377
v -0.15249 -0.00353 0.03523
v 0.1525 0 0.03377
v 0.1525 0.00383 0.03377
v 0.1525 0.00354 0.0323
v 0.1525 0.00271 0.03106
v 0.1525 0.00354 0.03523
v 0.1525 0.00147 0.03023
v 0.1525 0.00271 0.03647
v 0.1525 0 0.02994
v 0.1525 0.00147 0.0373
v 0.1525 -0.00146 0.03023
v 0.1525 0 0.0376
v 0.1525 -0.0027 0.03106
v 0.1525 -0.00146 0.0373
v 0.1525 -0.00353 0.0323
v 0.1525 -0.0027 0.03647
v 0.1525 -0.00382 0.03377
v 0.1525 -0.00353 0.03523
v -0.15249 0.00147 0.03023
v -0.15249 0 0.02994
v -0.15156 1E-05 0.02898
v -0.15156 0.00184 0.02934
v -0.15156 -0.00183 0.02934
v -0.15249 0.00271 0.03106
v -0.15249 -0.00146 0.03023
v -0.15156 0.00339 0.03038
v -0.15156 -0.00338 0.03038
v -0.15249 0.00354 0.0323
v -0.15249 -0.0027 0.03106
v -0.15156 0.00443 0.03193
v -0.15156 -0.00442 0.03193
v -0.15249 0.00383 0.03377
v -0.15249 -0.00353 0.0323
v -0.15156 0.00479 0.03377
v -0.15156 -0.00478 0.03377
v -0.15249 0.00354 0.03523
v -0.15249 -0.00382 0.03377
v -0.15156 0.00443 0.0356
v -0.15156 -0.00442 0.0356
v -0.15249 0.00271 0.03647
v -0.15249 -0.00353 0.03523
v -0.15156 0.00339 0.03715
v -0.15156 -0.00338 0.03715
v -0.15249 0.00147 0.0373
v -0.15249 -0.0027 0.03647
v -0.15156 0.00184 0.03819
v -0.15156 -0.00183 0.03819
v -0.15249 1E-05 0.0376
v -0.15249 -0.00146 0.0373
v -0.15156 1E-05 0.03855
v 0.1525 0.00147 0.03023
v 0.1525 0.00271 0.03106
v 0.15157 0.00339 0.03038
v 0.15157 0.00184 0.02934
v 0.15157 0.00443 0.03193
v 0.1525 0 0.02994
v 0.1525 0.00354 0.0323
v 0.15157 0 0.02898
v 0.15157 0.00479 0.03377
v 0.1525 -0.00146 0.03023
v 0.1525 0.00383 0.03377
v 0.15157 -0.00183 0.02934
v 0.15157 0.00443 0.0356
v 0.1525 -0.0027 0.03106
v 0.1525 0.00354 0.03523
v 0.15157 -0.00338 0.03038
v 0.15157 0.00339 0.03715
v 0.1525 -0.00353 0.0323
v 0.1525 0.00271 0.03647
v 0.15157 -0.00442 0.03193
v 0.15157 0.00184 0.03819
v 0.1525 -0.00382 0.03377
v 0.1525 0.00147 0.0373
v 0.15157 -0.00478 0.03377
v 0.15157 0 0.03855
v 0.1525 -0.00353 0.03523
v 0.1525 0 0.0376
v 0.15157 -0.00442 0.0356
v 0.15157 -0.00183 0.03819
v 0.1525 -0.0027 0.03647
v 0.1525 -0.00146 0.0373
v 0.15157 -0.00338 0.03715
v -0.13949 0.00201 0
v -0.14041 0.00262 0.03038
v -0.14041 0.00262 0
v -0.13949 0.00201 0.03038
v -0.13888 0.00109 0
v -0.13888 0.00109 0.03038
v -0.13866 0 0
v -0.13866 0 0.03038
v -0.13888 -0.00108 0
v -0.13888 -0.00108 0.03038
v -0.13949 -0.002 0
v -0.13949 -0.002 0.03038
v -0.14041 -0.00261 0
v -0.14041 -0.00261 0.03038
v -0.14041 0.00262 0
v -0.14041 0.00262 0.03038
v -0.14149 0.00284 0.03038
v -0.14149 0.00284 0
v -0.14258 0.00262 0.03038
v -0.14258 0.00262 0
v -0.14258 0.00262 0
v -0.14258 0.00262 0.03038
v -0.1435 0.00201 0.03038
v -0.1435 0.00201 0
v -0.14411 0.00109 0.03038
v -0.14411 0.00109 0
v -0.14433 1E-05 0.03038
v -0.14432 1E-05 0
v -0.14411 -0.00108 0.03038
v -0.14411 -0.00108 0
v -0.1435 -0.002 0.03038
v -0.1435 -0.002 0
v -0.14258 -0.00261 0.03038
v -0.14258 -0.00261 0
v -0.14258 -0.00261 0
v -0.14258 -0.00261 0.03038
v -0.14149 -0.00283 0.03038
v -0.14149 -0.00283 0
v -0.14041 -0.00261 0.03038
v -0.14041 -0.00261 0
v 0.14266 0.00201 0
v 0.14175 0.00262 0.03038
v 0.14175 0.00262 0
v 0.14266 0.00201 0.03038
v 0.14328 0.00109 0
v 0.14328 0.00109 0.03038
v 0.14349 0 0
v 0.14349 0 0.03038
v 0.14328 -0.00108 0
v 0.14328 -0.00108 0.03038
v 0.14266 -0.002 0
v 0.14266 -0.002 0.03038
v 0.14175 -0.00261 0
v 0.14175 -0.00261 0.03038
v 0.14175 0.00262 0
v 0.14175 0.00262 0.03038
v 0.14066 0.00284 0.03038
v 0.14066 0.00284 0
v 0.13958 0.00262 0.03038
v 0.13958 0.00262 0
v 0.13958 0.00262 0
v 0.13958 0.00262 0.03038
v 0.13866 0.00201 0.03038
v 0.13866 0.00201 0
v 0.13805 0.00109 0.03038
v 0.13805 0.00109 0
v 0.13783 0 0.03038
v 0.13783 0 0
v 0.13805 -0.00108 0.03038
v 0.13805 -0.00108 0
v 0.13866 -0.002 0.03038
v 0.13866 -0.002 0
v 0.13958 -0.00261 0.03038
v 0.13958 -0.00261 0
v 0.13958 -0.00261 0
v 0.13958 -0.00261 0.03038
v 0.14066 -0.00283 0.03038
v 0.14066 -0.00283 0
v 0.14175 -0.00261 0.03038
v 0.14175 -0.00261 0
v -0.15156 0.00184 0.02934
v 0.15157 0.00184 0.02934
v 0.15157 0.00339 0.03038
v -0.15156 0.00339 0.03038
v 0.15157 0.00443 0.03193
v -0.15156 0.00443 0.03193
v 0.15157 0.00479 0.03377
v -0.15156 0.00479 0.03377
v 0.15157 0.00443 0.0356
v -0.15156 0.00443 0.0356
v 0.15157 0.00339 0.03715
v -0.15156 0.00339 0.03715
v 0.15157 0.00184 0.03819
v -0.15156 0.00184 0.03819
v -0.15156 0.00184 0.03819
v 0.15157 0.00184 0.03819
v 0.15157 0 0.03855
v -0.15156 1E-05 0.03855
v 0.15157 -0.00183 0.03819
v -0.15156 -0.00183 0.03819
v -0.15156 -0.00183 0.03819
v 0.15157 -0.00183 0.03819
v 0.15157 -0.00338 0.03715
v -0.15156 -0.00338 0.03715
v 0.15157 -0.00442 0.0356
v -0.15156 -0.00442 0.0356
v 0.15157 -0.00478 0.03377
v -0.15156 -0.00478 0.03377
v 0.15157 -0.00442 0.03193
v -0.15156 -0.00442 0.03193
v 0.15157 -0.00338 0.03038
v -0.15156 -0.00338 0.03038
v 0.15157 -0.00183 0.02934
v -0.15156 -0.00183 0.02934
v -0.15156 -0.00183 0.02934
v 0.15157 -0.00183 0.02934
v 0.15157 0 0.02898
v -0.15156 1E-05 0.02898
v 0.15157 0.00184 0.02934
v -0.15156 0.00184 0.02934
v -0.14041 0.00262 0
v -0.14149 0.00284 0
v -0.14149 0 0
v -0.13949 0.00201 0
v -0.14258 0.00262 0
v -0.13888 0.00109 0
v -0.1435 0.00201 0
v -0.13866 0 0
v -0.14411 0.00109 0
v -0.13888 -0.00108 0
v -0.14432 1E-05 0
v -0.13949 -0.002 0
v -0.14411 -0.00108 0
v -0.14041 -0.00261 0
v -0.1435 -0.002 0
v -0.14149 -0.00283 0
v -0.14258 -0.00261 0
v 0.14175 0.00262 0
v 0.14066 0.00284 0
v 0.14066 0 0
v 0.14266 0.00201 0
v 0.13958 0.00262 0
v 0.14328 0.00109 0
v 0.13866 0.00201 0
v 0.14349 0 0
v 0.13805 0.00109 0
v 0.14328 -0.00108 0
v 0.13783 0 0
v 0.14266 -0.002 0
v 0.13805 -0.00108 0
v 0.14175 -0.00261 0
v 0.13866 -0.002 0
v 0.14066 -0.00283 0
v 0.13958 -0.00261 0
v -0.15249 0.00354 0.0323
v -0.15249 0.00383 0.03377
v -0.15249 0 0.03377
v -0.15249 0.00271 0.03106
v -0.15249 0.00354 0.03523
v -0.15249 0.00147 0.03023
v -0.15249 0.00271 0.03647
v -0.15249 0 0.02994
v -0.15249 0.00147 0.0373
v -0.15249 -0.00146 0.03023
v -0.15249 1E-05 0.0376
v -0.15249 -0.0027 0.03106
v -0.15249 -0.00146 0.0373
v -0.15249 -0.00353 0.0323
v -0.15249 -0.0027 0.03647
v -0.15249 -0.00382 0.03377
v -0.15249 -0.00353 0.03523
v 0.1525 0 0.03377
v 0.1525 0.00383 0.03377
v 0.1525 0.00354 0.0323
v 0.1525 0.00271 0.03106
v 0.1525 0.00354 0.03523
v 0.1525 0.00147 0.03023
v 0.1525 0.00271 0.03647
v 0.1525 0 0.02994
v 0.1525 0.00147 0.0373
v 0.1525 -0.00146 0.03023
v 0.1525 0 0.0376
v 0.1525 -0.0027 0.03106
v 0.1525 -0.00146 0.0373
v 0.1525 -0.00353 0.0323
v 0.1525 -0.0027 0.03647
v 0.1525 -0.00382 0.03377
v 0.1525 -0.00353 0.03523
v -0.15249 0.00147 0.03023
v -0.15249 0 0.02994
v -0.15156 1E-05 0.02898
v -0.15156 0.00184 0.02934
v -0.15156 -0.00183 0.02934
v -0.15249 0.00271 0.03106
v -0.15249 -0.00146 0.03023
v -0.15156 0.00339 0.03038
v -0.15156 -0.00338 0.03038
v -0.15249 0.00354 0.0323
v -0.15249 -0.0027 0.03106
v -0.15156 0.00443 0.03193
v -0.15156 -0.00442 0.03193
v -0.15249 0.00383 0.03377
v -0.15249 -0.00353 0.0323
v -0.15156 0.00479 0.03377
v -0.15156 -0.00478 0.03377
v -0.15249 0.00354 0.03523
v -0.15249 -0.00382 0.03377
v -0.15156 0.00443 0.0356
v -0.15156 -0.00442 0.0356
v -0.15249 0.00271 0.03647
v -0.15249 -0.00353 0.03523
v -0.15156 0.00339 0.03715
v -0.15156 -0.00338 0.03715
v -0.15249 0.00147 0.0373
v -0.15249 -0.0027 0.03647
v -0.15156 0.00184 0.03819
v -0.15156 -0.00183 0.03819
v -0.15249 1E-05 0.0376
v -0.15249 -0.00146 0.0373
v -0.15156 1E-05 0.03855
v 0.1525 0.00147 0.03023
v 0.1525 0.00271 0.03106
v 0.15157 0.00339 0.03038
v 0.15157 0.00184 0.02934
v 0.15157 0.00443 0.03193
v 0.1525 0 0.02994
v 0.1525 0.00354 0.0323
v 0.15157 0 0.02898
v 0.15157 0.00479 0.03377
v 0.1525 -0.00146 0.03023
v 0.1525 0.00383 0.03377
v 0.15157 -0.00183 0.02934
v 0.15157 0.00443 0.0356
v 0.1525 -0.0027 0.03106
v 0.1525 0.00354 0.03523
v 0.15157 -0.00338 0.03038
v 0.15157 0.00339 0.03715
v 0.1525 -0.00353 0.0323
v 0.1525 0.00271 0.03647
v 0.15157 -0.00442 0.03193
v 0.15157 0.00184 0.03819
v 0.1525 -0.00382 0.03377
v 0.1525 0.00147 0.0373
v 0.15157 -0.00478 0.03377
v 0.15157 0 0.03855
v 0.1525 -0.00353 0.03523
v 0.1525 0 0.0376
v 0.15157 -0.00442 0.0356
v 0.15157 -0.00183 0.03819
v 0.1525 -0.0027 0.03647
v 0.1525 -0.00146 0.0373
v 0.15157 -0.00338 0.03715
v -0.13949 0.00201 0
v -0.14041 0.00262 0.03038
v -0.14041 0.00262 0
v -0.13949 0.00201 0.03038
v -0.13888 0.00109 0
v -0.13888 0.00109 0.03038
v -0.13866 0 0
v -0.13866 0 0.03038
v -0.13888 -0.00108 0
v -0.13888 -0.00108 0.03038
v -0.13949 -0.002 0
v -0.13949 -0.002 0.03038
v -0.14041 -0.00261 0
v -0.14041 -0.00261 0.03038
v -0.14041 0.00262 0
v -0.14041 0.00262 0.03038
v -0.14149 0.00284 0.03038
v -0.14149 0.00284 0
v -0.14258 0.00262 0.03038
v -0.14258 0.00262 0
v -0.14258 0.00262 0
v -0.14258 0.00262 0.03038
v -0.1435 0.00201 0.03038
v -0.1435 0.00201 0
v -0.14411 0.00109 0.03038
v -0.14411 0.00109 0
v -0.14433 1E-05 0.03038
v -0.14432 1E-05 0
v -0.14411 -0.00108 0.03038
v -0.14411 -0.00108 0
v -0.1435 -0.002 0.03038
v -0.1435 -0.002 0
v -0.14258 -0.00261 0.03038
v -0.14258 -0.00261 0
v -0.14258 -0.00261 0
v -0.14258 -0.00261 0.03038
v -0.14149 -0.00283 0.03038
v -0.14149 -0.00283 0
v -0.14041 -0.00261 0.03038
v -0.14041 -0.00261 0
v 0.14266 0.00201 0
v 0.14175 0.00262 0.03038
v 0.14175 0.00262 0
v 0.14266 0.00201 0.03038
v 0.14328 0.00109 0
v 0.14328 0.00109 0.03038
v 0.14349 0 0
v 0.14349 0 0.03038
v 0.14328 -0.00108 0
v 0.14328 -0.00108 0.03038
v 0.14266 -0.002 0
v 0.14266 -0.002 0.03038
v 0.14175 -0.00261 0
v 0.14175 -0.00261 0.03038
v 0.14175 0.00262 0
v 0.14175 0.00262 0.03038
v 0.14066 0.00284 0.03038
v 0.14066 0.00284 0
v 0.13958 0.00262 0.03038
v 0.13958 0.00262 0
v 0.13958 0.00262 0
v 0.13958 0.00262 0.03038
v 0.13866 0.00201 0.03038
v 0.13866 0.00201 0
v 0.13805 0.00109 0.03038
v 0.13805 0.00109 0
v 0.13783 0 0.03038
v 0.13783 0 0
v 0.13805 -0.00108 0.03038
v 0.13805 -0.00108 0
v 0.13866 -0.002 0.03038
v 0.13866 -0.002 0
v 0.13958 -0.00261 0.03038
v 0.13958 -0.00261 0
v 0.13958 -0.00261 0
v 0.13958 -0.00261 0.03038
v 0.14066 -0.00283 0.03038
v 0.14066 -0.00283 0
v 0.14175 -0.00261 0.03038
v 0.14175 -0.00261 0
v -0.15156 0.00184 0.02934
v 0.15157 0.00184 0.02934
v 0.15157 0.00339 0.03038
v -0.15156 0.00339 0.03038
v 0.15157 0.00443 0.03193
v -0.15156 0.00443 0.03193
v 0.15157 0.00479 0.03377
v -0.15156 0.00479 0.03377
v 0.15157 0.00443 0.0356
v -0.15156 0.00443 0.0356
v 0.15157 0.00339 0.03715
v -0.15156 0.00339 0.03715
v 0.15157 0.00184 0.03819
v -0.15156 0.00184 0.03819
v -0.15156 0.00184 0.03819
v 0.15157 0.00184 0.03819
v 0.15157 0 0.03855
v -0.15156 1E-05 0.03855
v 0.15157 -0.00183 0.03819
v -0.15156 -0.00183 0.03819
v -0.15156 -0.00183 0.03819
v 0.15157 -0.00183 0.03819
v 0.15157 -0.00338 0.03715
v -0.15156 -0.00338 0.03715
v 0.15157 -0.00442 0.0356
v -0.15156 -0.00442 0.0356
v 0.15157 -0.00478 0.03377
v -0.15156 -0.00478 0.03377
v 0.15157 -0.00442 0.03193
v -0.15156 -0.00442 0.03193
v 0.15157 -0.00338 0.03038
v -0.15156 -0.00338 0.03038
v 0.15157 -0.00183 0.02934
v -0.15156 -0.00183 0.02934
v -0.15156 -0.00183 0.02934
v 0.15157 -0.00183 0.02934
v 0.15157 0 0.02898
v -0.15156 1E-05 0.02898
v 0.15157 0.00184 0.02934
v -0.15156 0.00184 0.02934
v -0.14041 0.00262 0
v -0.14149 0.00284 0
v -0.14149 0 0
v -0.13949 0.00201 0
v -0.14258 0.00262 0
v -0.13888 0.00109 0
v -0.1435 0.00201 0
v -0.13866 0 0
v -0.14411 0.00109 0
v -0.13888 -0.00108 0
v -0.14432 1E-05 0
v -0.13949 -0.002 0
v -0.14411 -0.00108 0
v -0.14041 -0.00261 0
v -0.1435 -0.002 0
v -0.14149 -0.00283 0
v -0.14258 -0.00261 0
v 0.14175 0.00262 0
v 0.14066 0.00284 0
v 0.14066 0 0
v 0.14266 0.00201 0
v 0.13958 0.00262 0
v 0.14328 0.00109 0
v 0.13866 0.00201 0
v 0.14349 0 0
v 0.13805 0.00109 0
v 0.14328 -0.00108 0
v 0.13783 0 0
v 0.14266 -0.002 0
v 0.13805 -0.00108 0
v 0.14175 -0.00261 0
v 0.13866 -0.002 0
v 0.14066 -0.00283 0
v 0.13958 -0.00261 0
v -0.15249 0.00354 0.0323
v -0.15249 0.00383 0.03377
v -0.15249 0 0.03377
v -0.15249 0.00271 0.03106
v -0.15249 0.00354 0.03523
v -0.15249 0.00147 0.03023
v -0.15249 0.00271 0.03647
v -0.15249 0 0.02994
v -0.15249 0.00147 0.0373
v -0.15249 -0.00146 0.03023
v -0.15249 1E-05 0.0376
v -0.15249 -0.0027 0.03106
v -0.15249 -0.00146 0.0373
v -0.15249 -0.00353 0.0323
v -0.15249 -0.0027 0.03647
v -0.15249 -0.00382 0.03377
v -0.15249 -0.00353 0.03523
v 0.1525 0 0.03377
v 0.1525 0.00383 0.03377
v 0.1525 0.00354 0.0323
v 0.1525 0.00271 0.03106
v 0.1525 0.00354 0.03523
v 0.1525 0.00147 0.03023
v 0.1525 0.00271 0.03647
v 0.1525 0 0.02994
v 0.1525 0.00147 0.0373
v 0.1525 -0.00146 0.03023
v 0.1525 0 0.0376
v 0.1525 -0.0027 0.03106
v 0.1525 -0.00146 0.0373
v 0.1525 -0.00353 0.0323
v 0.1525 -0.0027 0.03647
v 0.1525 -0.00382 0.03377
v 0.1525 -0.00353 0.03523
v -0.15249 0.00147 0.03023
v -0.15249 0 0.02994
v -0.15156 1E-05 0.02898
v -0.15156 0.00184 0.02934
v -0.15156 -0.00183 0.02934
v -0.15249 0.00271 0.03106
v -0.15249 -0.00146 0.03023
v -0.15156 0.00339 0.03038
v -0.15156 -0.00338 0.03038
v -0.15249 0.00354 0.0323
v -0.15249 -0.0027 0.03106
v -0.15156 0.00443 0.03193
v -0.15156 -0.00442 0.03193
v -0.15249 0.00383 0.03377
v -0.15249 -0.00353 0.0323
v -0.15156 0.00479 0.03377
v -0.15156 -0.00478 0.03377
v -0.15249 0.00354 0.03523
v -0.15249 -0.00382 0.03377
v -0.15156 0.00443 0.0356
v -0.15156 -0.00442 0.0356
v -0.15249 0.00271 0.03647
v -0.15249 -0.00353 0.03523
v -0.15156 0.00339 0.03715
v -0.15156 -0.00338 0.03715
v -0.15249 0.00147 0.0373
v -0.15249 -0.0027 0.03647
v -0.15156 0.00184 0.03819
v -0.15156 -0.00183 0.03819
v -0.15249 1E-05 0.0376
v -0.15249 -0.00146 0.0373
v -0.15156 1E-05 0.03855
v 0.1525 0.00147 0.03023
v 0.1525 0.00271 0.03106
v 0.15157 0.00339 0.03038
v 0.15157 0.00184 0.02934
v 0.15157 0.00443 0.03193
v 0.1525 0 0.02994
v 0.1525 0.00354 0.0323
v 0.15157 0 0.02898
v 0.15157 0.00479 0.03377
v 0.1525 -0.00146 0.03023
v 0.1525 0.00383 0.03377
v 0.15157 -0.00183 0.02934
v 0.15157 0.00443 0.0356
v 0.1525 -0.0027 0.03106
v 0.1525 0.00354 0.03523
v 0.15157 -0.00338 0.03038
v 0.15157 0.00339 0.03715
v 0.1525 -0.00353 0.0323
v 0.1525 0.00271 0.03647
v 0.15157 -0.00442 0.03193
v 0.15157 0.00184 0.03819
v 0.1525 -0.00382 0.03377
v 0.1525 0.00147 0.0373
v 0.15157 -0.00478 0.03377
v 0.15157 0 0.03855
v 0.1525 -0.00353 0.03523
v 0.1525 0 0.0376
v 0.15157 -0.00442 0.0356
v 0.15157 -0.00183 0.03819
v 0.1525 -0.0027 0.03647
v 0.1525 -0.00146 0.0373
v 0.15157 -0.00338 0.03715
v -0.13949 0.00201 0
v -0.14041 0.00262 0.03038
v -0.14041 0.00262 0
v -0.13949 0.00201 0.03038
v -0.13888 0.00109 0
v -0.13888 0.00109 0.03038
v -0.13866 0 0
v -0.13866 0 0.03038
v -0.13888 -0.00108 0
v -0.13888 -0.00108 0.03038
v -0.13949 -0.002 0
v -0.13949 -0.002 0.03038
v -0.14041 -0.00261 0
v -0.14041 -0.00261 0.03038
v -0.14041 0.00262 0
v -0.14041 0.00262 0.03038
v -0.14149 0.00284 0.03038
v -0.14149 0.00284 0
v -0.14258 0.00262 0.03038
v -0.14258 0.00262 0
v -0.14258 0.00262 0
v -0.14258 0.00262 0.03038
v -0.1435 0.00201 0.03038
v -0.1435 0.00201 0
v -0.14411 0.00109 0.03038
v -0.14411 0.00109 0
v -0.14433 1E-05 0.03038
v -0.14432 1E-05 0
v -0.14411 -0.00108 0.03038
v -0.14411 -0.00108 0
v -0.1435 -0.002 0.03038
v -0.1435 -0.002 0
v -0.14258 -0.00261 0.03038
v -0.14258 -0.00261 0
v -0.14258 -0.00261 0
v -0.14258 -0.00261 0.03038
v -0.14149 -0.00283 0.03038
v -0.14149 -0.00283 0
v -0.14041 -0.00261 0.03038
v -0.14041 -0.00261 0
v 0.14266 0.00201 0
v 0.14175 0.00262 0.03038
v 0.14175 0.00262 0
v 0.14266 0.00201 0.03038
v 0.14328 0.00109 0
v 0.14328 0.00109 0.03038
v 0.14349 0 0
v 0.14349 0 0.03038
v 0.14328 -0.00108 0
v 0.14328 -0.00108 0.03038
v 0.14266 -0.002 0
v 0.14266 -0.002 0.03038
v 0.14175 -0.00261 0
v 0.14175 -0.00261 0.03038
v 0.14175 0.00262 0
v 0.14175 0.00262 0.03038
v 0.14066 0.00284 0.03038
v 0.14066 0.00284 0
v 0.13958 0.00262 0.03038
v 0.13958 0.00262 0
v 0.13958 0.00262 0
v 0.13958 0.00262 0.03038
v 0.13866 0.00201 0.03038
v 0.13866 0.00201 0
v 0.13805 0.00109 0.03038
v 0.13805 0.00109 0
v 0.13783 0 0.03038
v 0.13783 0 0
v 0.13805 -0.00108 0.03038
v 0.13805 -0.00108 0
v 0.13866 -0.002 0.03038
v 0.13866 -0.002 0
v 0.13958 -0.00261 0.03038
v 0.13958 -0.00261 0
v 0.13958 -0.00261 0
v 0.13958 -0.00261 0.03038
v 0.14066 -0.00283 0.03038
v 0.14066 -0.00283 0
v 0.14175 -0.00261 0.03038
v 0.14175 -0.00261 0
v -0.15156 0.00184 0.02934
v 0.15157 0.00184 0.02934
v 0.15157 0.00339 0.03038
v -0.15156 0.00339 0.03038
v 0.15157 0.00443 0.03193
v -0.15156 0.00443 0.03193
v 0.15157 0.00479 0.03377
v -0.15156 0.00479 0.03377
v 0.15157 0.00443 0.0356
v -0.15156 0.00443 0.0356
v 0.15157 0.00339 0.03715
v -0.15156 0.00339 0.03715
v 0.15157 0.00184 0.03819
v -0.15156 0.00184 0.03819
v -0.15156 0.00184 0.03819
v 0.15157 0.00184 0.03819
v 0.15157 0 0.03855
v -0.15156 1E-05 0.03855
v 0.15157 -0.00183 0.03819
v -0.15156 -0.00183 0.03819
v -0.15156 -0.00183 0.03819
v 0.15157 -0.00183 0.03819
v 0.15157 -0.00338 0.03715
v -0.15156 -0.00338 0.03715
v 0.15157 -0.00442 0.0356
v -0.15156 -0.00442 0.0356
v 0.15157 -0.00478 0.03377
v -0.15156 -0.00478 0.03377
v 0.15157 -0.00442 0.03193
v -0.15156 -0.00442 0.03193
v 0.15157 -0.00338 0.03038
v -0.15156 -0.00338 0.03038
v 0.15157 -0.00183 0.02934
v -0.15156 -0.00183 0.02934
v -0.15156 -0.00183 0.02934
v 0.15157 -0.00183 0.02934
v 0.15157 0 0.02898
v -0.15156 1E-05 0.02898
v 0.15157 0.00184 0.02934
v -0.15156 0.00184 0.02934
v -0.14041 0.00262 0
v -0.14149 0.00284 0
v -0.14149 0 0
v -0.13949 0.00201 0
v -0.14258 0.00262 0
v -0.13888 0.00109 0
v -0.1435 0.00201 0
v -0.13866 0 0
v -0.14411 0.00109 0
v -0.13888 -0.00108 0
v -0.14432 1E-05 0
v -0.13949 -0.002 0
v -0.14411 -0.00108 0
v -0.14041 -0.00261 0
v -0.1435 -0.002 0
v -0.14149 -0.00283 0
v -0.14258 -0.00261 0
v 0.14175 0.00262 0
v 0.14066 0.00284 0
v 0.14066 0 0
v 0.14266 0.00201 0
v 0.13958 0.00262 0
v 0.14328 0.00109 0
v 0.13866 0.00201 0
v 0.14349 0 0
v 0.13805 0.00109 0
v 0.14328 -0.00108 0
v 0.13783 0 0
v 0.14266 -0.002 0
v 0.13805 -0.00108 0
v 0.14175 -0.00261 0
v 0.13866 -0.002 0
v 0.14066 -0.00283 0
v 0.13958 -0.00261 0
v -0.15249 0.00354 0.0323
v -0.15249 0.00383 0.03377
v -0.15249 0 0.03377
v -0.15249 0.00271 0.03106
v -0.15249 0.00354 0.03523
v -0.15249 0.00147 0.03023
v -0.15249 0.00271 0.03647
v -0.15249 0 0.02994
v -0.15249 0.00147 0.0373
v -0.15249 -0.00146 0.03023
v -0.15249 1E-05 0.0376
v -0.15249 -0.0027 0.03106
v -0.15249 -0.00146 0.0373
v -0.15249 -0.00353 0.0323
v -0.15249 -0.0027 0.03647
v -0.15249 -0.00382 0.03377
v -0.15249 -0.00353 0.03523
v 0.1525 0 0.03377
v 0.1525 0.00383 0.03377
v 0.1525 0.00354 0.0323
v 0.1525 0.00271 0.03106
v 0.1525 0.00354 0.03523
v 0.1525 0.00147 0.03023
v 0.1525 0.00271 0.03647
v 0.1525 0 0.02994
v 0.1525 0.00147 0.0373
v 0.1525 -0.00146 0.03023
v 0.1525 0 0.0376
v 0.1525 -0.0027 0.03106
v 0.1525 -0.00146 0.0373
v 0.1525 -0.00353 0.0323
v 0.1525 -0.0027 0.03647
v 0.1525 -0.00382 0.03377
v 0.1525 -0.00353 0.03523
v -0.15249 0.00147 0.03023
v -0.15249 0 0.02994
v -0.15156 1E-05 0.02898
v -0.15156 0.00184 0.02934
v -0.15156 -0.00183 0.02934
v -0.15249 0.00271 0.03106
v -0.15249 -0.00146 0.03023
v -0.15156 0.00339 0.03038
v -0.15156 -0.00338 0.03038
v -0.15249 0.00354 0.0323
v -0.15249 -0.0027 0.03106
v -0.15156 0.00443 0.03193
v -0.15156 -0.00442 0.03193
v -0.15249 0.00383 0.03377
v -0.15249 -0.00353 0.0323
v -0.15156 0.00479 0.03377
v -0.15156 -0.00478 0.03377
v -0.15249 0.00354 0.03523
v -0.15249 -0.00382 0.03377
v -0.15156 0.00443 0.0356
v -0.15156 -0.00442 0.0356
v -0.15249 0.00271 0.03647
v -0.15249 -0.00353 0.03523
v -0.15156 0.00339 0.03715
v -0.15156 -0.00338 0.03715
v -0.15249 0.00147 0.0373
v -0.15249 -0.0027 0.03647
v -0.15156 0.00184 0.03819
v -0.15156 -0.00183 0.03819
v -0.15249 1E-05 0.0376
v -0.15249 -0.00146 0.0373
v -0.15156 1E-05 0.03855
v 0.1525 0.00147 0.03023
v 0.1525 0.00271 0.03106
v 0.15157 0.00339 0.03038
v 0.15157 0.00184 0.02934
v 0.15157 0.00443 0.03193
v 0.1525 0 0.02994
v 0.1525 0.00354 0.0323
v 0.15157 0 0.02898
v 0.15157 0.00479 0.03377
v 0.1525 -0.00146 0.03023
v 0.1525 0.00383 0.03377
v 0.15157 -0.00183 0.02934
v 0.15157 0.00443 0.0356
v 0.1525 -0.0027 0.03106
v 0.1525 0.00354 0.03523
v 0.15157 -0.00338 0.03038
v 0.15157 0.00339 0.03715
v 0.1525 -0.00353 0.0323
v 0.1525 0.00271 0.03647
v 0.15157 -0.00442 0.03193
v 0.15157 0.00184 0.03819
v 0.1525 -0.00382 0.03377
v 0.1525 0.00147 0.0373
v 0.15157 -0.00478 0.03377
v 0.15157 0 0.03855
v 0.1525 -0.00353 0.03523
v 0.1525 0 0.0376
v 0.15157 -0.00442 0.0356
v 0.15157 -0.00183 0.03819
v 0.1525 -0.0027 0.03647
v 0.1525 -0.00146 0.0373
v 0.15157 -0.00338 0.03715
vt -10.03768 0.821121
vt -9.9709 0.8197725
vt -10.03768 0.8197725
vt -9.9709 0.821121
vt -10.03768 0.8231399
vt -9.9709 0.8231399
vt -10.03768 0.8255222
vt -9.9709 0.8255222
vt -10.03768 0.8279045
vt -9.9709 0.8279045
vt -10.03768 0.8299234
vt -9.9709 0.8299234
vt -10.03768 0.8312719
vt -9.9709 0.8312719
vt -9.974336 0.804857
vt -10.03424 0.804857
vt -10.03424 0.8069942
vt -9.974336 0.8069942
vt -10.03424 0.8091304
vt -9.974336 0.8091304
vt -9.9709 0.7817085
vt -10.03768 0.7817085
vt -10.03768 0.7830589
vt -9.9709 0.7830589
vt -10.03768 0.7850778
vt -9.9709 0.7850778
vt -10.03768 0.7874591
vt -9.9709 0.7874591
vt -10.03768 0.7898414
vt -9.9709 0.7898414
vt -10.03768 0.7918603
vt -9.9709 0.7918603
vt -10.03768 0.7932098
vt -9.9709 0.7932098
vt -10.03424 0.7710683
vt -9.974336 0.7710683
vt -9.974336 0.7689312
vt -10.03424 0.7689312
vt -9.974336 0.766794
vt -10.03424 0.766794
vt -10.03768 0.7449958
vt -9.9709 0.7436473
vt -10.03768 0.7436473
vt -9.9709 0.7449958
vt -10.03768 0.7470148
vt -9.9709 0.7470148
vt -10.03768 0.749397
vt -9.9709 0.749397
vt -10.03768 0.7517793
vt -9.9709 0.7517793
vt -10.03768 0.7537982
vt -9.9709 0.7537982
vt -10.03768 0.7551467
vt -9.9709 0.7551467
vt -9.974337 0.7287309
vt -10.03424 0.7287309
vt -10.03424 0.7308681
vt -9.974337 0.7308681
vt -10.03424 0.7330053
vt -9.974337 0.7330053
vt -9.9709 0.7055833
vt -10.03768 0.7055833
vt -10.03768 0.7069328
vt -9.9709 0.7069328
vt -10.03768 0.7089517
vt -9.9709 0.7089517
vt -10.03768 0.711334
vt -9.9709 0.711334
vt -10.03768 0.7137163
vt -9.9709 0.7137163
vt -10.03768 0.7157342
vt -9.9709 0.7157342
vt -10.03768 0.7170837
vt -9.9709 0.7170837
vt -10.03424 0.6949422
vt -9.974336 0.6949422
vt -9.974336 0.692806
vt -10.03424 0.692806
vt -9.974336 0.6906688
vt -10.03424 0.6906688
vt -9.222989 0.9187925
vt -9.889388 0.9187925
vt -9.889388 0.9210746
vt -9.222989 0.9210746
vt -9.889388 0.9244878
vt -9.222989 0.9244878
vt -9.889388 0.9285161
vt -9.222989 0.9285161
vt -9.889388 0.9325426
vt -9.222989 0.9325426
vt -9.889388 0.9359577
vt -9.222989 0.9359577
vt -9.889388 0.9382389
vt -9.222989 0.9382389
vt -9.257284 0.8969848
vt -9.855092 0.8969848
vt -9.855092 0.9005973
vt -9.257284 0.9005973
vt -9.855092 0.9042099
vt -9.257284 0.9042099
vt -9.22299 0.8642356
vt -9.889386 0.8642356
vt -9.889386 0.8665178
vt -9.22299 0.8665178
vt -9.889386 0.8699319
vt -9.22299 0.8699319
vt -9.889386 0.8739593
vt -9.22299 0.8739593
vt -9.889386 0.8779867
vt -9.22299 0.8779867
vt -9.889386 0.8814008
vt -9.22299 0.8814008
vt -9.889386 0.883683
vt -9.22299 0.883683
vt -9.257299 0.8426082
vt -9.855077 0.8426082
vt -9.855077 0.8462217
vt -9.257299 0.8462217
vt -9.855077 0.8498342
vt -9.257299 0.8498342
vt -10.05 0.594321
vt -10.05042 0.5964372
vt -10.04489 0.5964372
vt -10.0488 0.5925272
vt -10.05 0.5985534
vt -10.04701 0.5913284
vt -10.0488 0.6003473
vt -10.04489 0.5909078
vt -10.04701 0.601546
vt -10.04278 0.5913284
vt -10.04489 0.6019666
vt -10.04098 0.5925272
vt -10.04278 0.601546
vt -10.03978 0.594321
vt -10.04098 0.6003473
vt -10.03936 0.5964372
vt -10.03978 0.5985534
vt -10.05 0.5689456
vt -10.05042 0.5710618
vt -10.04489 0.5710618
vt -10.0488 0.5671518
vt -10.05 0.5731781
vt -10.04701 0.565953
vt -10.0488 0.5749719
vt -10.04489 0.5655324
vt -10.04701 0.5761707
vt -10.04278 0.565953
vt -10.04489 0.5765913
vt -10.04098 0.5671518
vt -10.04278 0.5761707
vt -10.03978 0.5689456
vt -10.04098 0.5749719
vt -10.03936 0.5710618
vt -10.03978 0.5731781
vt -10.0354 0.6587265
vt -10.03847 0.6581171
vt -10.03847 0.6661355
vt -10.0328 0.660465
vt -10.04153 0.6587265
vt -10.03106 0.6630666
vt -10.04414 0.660465
vt -10.03045 0.6661355
vt -10.04587 0.6630666
vt -10.03106 0.6692035
vt -10.04648 0.6661355
vt -10.0328 0.6718051
vt -10.04587 0.6692035
vt -10.0354 0.6735437
vt -10.04414 0.6718051
vt -10.03847 0.6741531
vt -10.04153 0.6735437
vt -10.03847 0.6280735
vt -10.03045 0.6280735
vt -10.03106 0.6250045
vt -10.03279 0.6224029
vt -10.03106 0.6311414
vt -10.0354 0.6206653
vt -10.03279 0.633743
vt -10.03847 0.620054
vt -10.0354 0.6354806
vt -10.04153 0.6206653
vt -10.03847 0.636091
vt -10.04414 0.6224029
vt -10.04153 0.6354806
vt -10.04587 0.6250045
vt -10.04414 0.633743
vt -10.04648 0.6280735
vt -10.04587 0.6311414
vt -10.03106 0.6630666
vt -10.03045 0.6661355
vt -10.02844 0.6661355
vt -10.02921 0.6622999
vt -10.02921 0.6699712
vt -10.0328 0.660465
vt -10.03106 0.6692035
vt -10.03138 0.6590488
vt -10.03138 0.6732223
vt -10.0354 0.6587265
vt -10.0328 0.6718051
vt -10.03463 0.6568754
vt -10.03463 0.6753948
vt -10.03847 0.6581171
vt -10.0354 0.6735437
vt -10.03847 0.6561124
vt -10.03847 0.6761587
vt -10.04153 0.6587265
vt -10.03847 0.6741531
vt -10.0423 0.6568754
vt -10.0423 0.6753948
vt -10.04414 0.660465
vt -10.04153 0.6735437
vt -10.04555 0.6590488
vt -10.04555 0.6732223
vt -10.04587 0.6630666
vt -10.04414 0.6718051
vt -10.04773 0.6622999
vt -10.04773 0.6699712
vt -10.04648 0.6661355
vt -10.04587 0.6692035
vt -10.04849 0.6661355
vt -10.0354 0.6206653
vt -10.03279 0.6224029
vt -10.03138 0.6209857
vt -10.03463 0.6188133
vt -10.02921 0.6242368
vt -10.03847 0.620054
vt -10.03106 0.6250045
vt -10.03847 0.6180503
vt -10.02844 0.6280735
vt -10.04153 0.6206653
vt -10.03045 0.6280735
vt -10.0423 0.6188133
vt -10.02921 0.6319082
vt -10.04414 0.6224029
vt -10.03106 0.6311414
vt -10.04555 0.6209857
vt -10.03138 0.6351612
vt -10.04587 0.6250045
vt -10.03279 0.633743
vt -10.04773 0.6242368
vt -10.03463 0.6373327
vt -10.04648 0.6280735
vt -10.0354 0.6354806
vt -10.04849 0.6280735
vt -10.03847 0.6380966
vt -10.04587 0.6311414
vt -10.03847 0.636091
vt -10.04773 0.6319082
vt -10.0423 0.6373327
vt -10.04414 0.633743
vt -10.04153 0.6354806
vt -10.04555 0.6351612
vt -10.03768 0.821121
vt -9.9709 0.8197725
vt -10.03768 0.8197725
vt -9.9709 0.821121
vt -10.03768 0.8231399
vt -9.9709 0.8231399
vt -10.03768 0.8255222
vt -9.9709 0.8255222
vt -10.03768 0.8279045
vt -9.9709 0.8279045
vt -10.03768 0.8299234
vt -9.9709 0.8299234
vt -10.03768 0.8312719
vt -9.9709 0.8312719
vt -9.974336 0.804857
vt -10.03424 0.804857
vt -10.03424 0.8069942
vt -9.974336 0.8069942
vt -10.03424 0.8091304
vt -9.974336 0.8091304
vt -9.9709 0.7817085
vt -10.03768 0.7817085
vt -10.03768 0.7830589
vt -9.9709 0.7830589
vt -10.03768 0.7850778
vt -9.9709 0.7850778
vt -10.03768 0.7874591
vt -9.9709 0.7874591
vt -10.03768 0.7898414
vt -9.9709 0.7898414
vt -10.03768 0.7918603
vt -9.9709 0.7918603
vt -10.03768 0.7932098
vt -9.9709 0.7932098
vt -10.03424 0.7710683
vt -9.974336 0.7710683
vt -9.974336 0.7689312
vt -10.03424 0.7689312
vt -9.974336 0.766794
vt -10.03424 0.766794
vt -10.03768 0.7449958
vt -9.9709 0.7436473
vt -10.03768 0.7436473
vt -9.9709 0.7449958
vt -10.03768 0.7470148
vt -9.9709 0.7470148
vt -10.03768 0.749397
vt -9.9709 0.749397
vt -10.03768 0.7517793
vt -9.9709 0.7517793
vt -10.03768 0.7537982
vt -9.9709 0.7537982
vt -10.03768 0.7551467
vt -9.9709 0.7551467
vt -9.974337 0.7287309
vt -10.03424 0.7287309
vt -10.03424 0.7308681
vt -9.974337 0.7308681
vt -10.03424 0.7330053
vt -9.974337 0.7330053
vt -9.9709 0.7055833
vt -10.03768 0.7055833
vt -10.03768 0.7069328
vt -9.9709 0.7069328
vt -10.03768 0.7089517
vt -9.9709 0.7089517
vt -10.03768 0.711334
vt -9.9709 0.711334
vt -10.03768 0.7137163
vt -9.9709 0.7137163
vt -10.03768 0.7157342
vt -9.9709 0.7157342
vt -10.03768 0.7170837
vt -9.9709 0.7170837
vt -10.03424 0.6949422
vt -9.974336 0.6949422
vt -9.974336 0.692806
vt -10.03424 0.692806
vt -9.974336 0.6906688
vt -10.03424 0.6906688
vt -9.222989 0.9187925
vt -9.889388 0.9187925
vt -9.889388 0.9210746
vt -9.222989 0.9210746
vt -9.889388 0.9244878
vt -9.222989 0.9244878
vt -9.889388 0.9285161
vt -9.222989 0.9285161
vt -9.889388 0.9325426
vt -9.222989 0.9325426
vt -9.889388 0.9359577
vt -9.222989 0.9359577
vt -9.889388 0.9382389
vt -9.222989 0.9382389
vt -9.257284 0.8969848
vt -9.855092 0.8969848
vt -9.855092 0.9005973
vt -9.257284 0.9005973
vt -9.855092 0.9042099
vt -9.257284 0.9042099
vt -9.22299 0.8642356
vt -9.889386 0.8642356
vt -9.889386 0.8665178
vt -9.22299 0.8665178
vt -9.889386 0.8699319
vt -9.22299 0.8699319
vt -9.889386 0.8739593
vt -9.22299 0.8739593
vt -9.889386 0.8779867
vt -9.22299 0.8779867
vt -9.889386 0.8814008
vt -9.22299 0.8814008
vt -9.889386 0.883683
vt -9.22299 0.883683
vt -9.257299 0.8426082
vt -9.855077 0.8426082
vt -9.855077 0.8462217
vt -9.257299 0.8462217
vt -9.855077 0.8498342
vt -9.257299 0.8498342
vt -10.05 0.594321
vt -10.05042 0.5964372
vt -10.04489 0.5964372
vt -10.0488 0.5925272
vt -10.05 0.5985534
vt -10.04701 0.5913284
vt -10.0488 0.6003473
vt -10.04489 0.5909078
vt -10.04701 0.601546
vt -10.04278 0.5913284
vt -10.04489 0.6019666
vt -10.04098 0.5925272
vt -10.04278 0.601546
vt -10.03978 0.594321
vt -10.04098 0.6003473
vt -10.03936 0.5964372
vt -10.03978 0.5985534
vt -10.05 0.5689456
vt -10.05042 0.5710618
vt -10.04489 0.5710618
vt -10.0488 0.5671518
vt -10.05 0.5731781
vt -10.04701 0.565953
vt -10.0488 0.5749719
vt -10.04489 0.5655324
vt -10.04701 0.5761707
vt -10.04278 0.565953
vt -10.04489 0.5765913
vt -10.04098 0.5671518
vt -10.04278 0.5761707
vt -10.03978 0.5689456
vt -10.04098 0.5749719
vt -10.03936 0.5710618
vt -10.03978 0.5731781
vt -10.0354 0.6587265
vt -10.03847 0.6581171
vt -10.03847 0.6661355
vt -10.0328 0.660465
vt -10.04153 0.6587265
vt -10.03106 0.6630666
vt -10.04414 0.660465
vt -10.03045 0.6661355
vt -10.04587 0.6630666
vt -10.03106 0.6692035
vt -10.04648 0.6661355
vt -10.0328 0.6718051
vt -10.04587 0.6692035
vt -10.0354 0.6735437
vt -10.04414 0.6718051
vt -10.03847 0.6741531
vt -10.04153 0.6735437
vt -10.03847 0.6280735
vt -10.03045 0.6280735
vt -10.03106 0.6250045
vt -10.03279 0.6224029
vt -10.03106 0.6311414
vt -10.0354 0.6206653
vt -10.03279 0.633743
vt -10.03847 0.620054
vt -10.0354 0.6354806
vt -10.04153 0.6206653
vt -10.03847 0.636091
vt -10.04414 0.6224029
vt -10.04153 0.6354806
vt -10.04587 0.6250045
vt -10.04414 0.633743
vt -10.04648 0.6280735
vt -10.04587 0.6311414
vt -10.03106 0.6630666
vt -10.03045 0.6661355
vt -10.02844 0.6661355
vt -10.02921 0.6622999
vt -10.02921 0.6699712
vt -10.0328 0.660465
vt -10.03106 0.6692035
vt -10.03138 0.6590488
vt -10.03138 0.6732223
vt -10.0354 0.6587265
vt -10.0328 0.6718051
vt -10.03463 0.6568754
vt -10.03463 0.6753948
vt -10.03847 0.6581171
vt -10.0354 0.6735437
vt -10.03847 0.6561124
vt -10.03847 0.6761587
vt -10.04153 0.6587265
vt -10.03847 0.6741531
vt -10.0423 0.6568754
vt -10.0423 0.6753948
vt -10.04414 0.660465
vt -10.04153 0.6735437
vt -10.04555 0.6590488
vt -10.04555 0.6732223
vt -10.04587 0.6630666
vt -10.04414 0.6718051
vt -10.04773 0.6622999
vt -10.04773 0.6699712
vt -10.04648 0.6661355
vt -10.04587 0.6692035
vt -10.04849 0.6661355
vt -10.0354 0.6206653
vt -10.03279 0.6224029
vt -10.03138 0.6209857
vt -10.03463 0.6188133
vt -10.02921 0.6242368
vt -10.03847 0.620054
vt -10.03106 0.6250045
vt -10.03847 0.6180503
vt -10.02844 0.6280735
vt -10.04153 0.6206653
vt -10.03045 0.6280735
vt -10.0423 0.6188133
vt -10.02921 0.6319082
vt -10.04414 0.6224029
vt -10.03106 0.6311414
vt -10.04555 0.6209857
vt -10.03138 0.6351612
vt -10.04587 0.6250045
vt -10.03279 0.633743
vt -10.04773 0.6242368
vt -10.03463 0.6373327
vt -10.04648 0.6280735
vt -10.0354 0.6354806
vt -10.04849 0.6280735
vt -10.03847 0.6380966
vt -10.04587 0.6311414
vt -10.03847 0.636091
vt -10.04773 0.6319082
vt -10.0423 0.6373327
vt -10.04414 0.633743
vt -10.04153 0.6354806
vt -10.04555 0.6351612
vt -10.03768 0.821121
vt -9.9709 0.8197725
vt -10.03768 0.8197725
vt -9.9709 0.821121
vt -10.03768 0.8231399
vt -9.9709 0.8231399
vt -10.03768 0.8255222
vt -9.9709 0.8255222
vt -10.03768 0.8279045
vt -9.9709 0.8279045
vt -10.03768 0.8299234
vt -9.9709 0.8299234
vt -10.03768 0.8312719
vt -9.9709 0.8312719
vt -9.974336 0.804857
vt -10.03424 0.804857
vt -10.03424 0.8069942
vt -9.974336 0.8069942
vt -10.03424 0.8091304
vt -9.974336 0.8091304
vt -9.9709 0.7817085
vt -10.03768 0.7817085
vt -10.03768 0.7830589
vt -9.9709 0.7830589
vt -10.03768 0.7850778
vt -9.9709 0.7850778
vt -10.03768 0.7874591
vt -9.9709 0.7874591
vt -10.03768 0.7898414
vt -9.9709 0.7898414
vt -10.03768 0.7918603
vt -9.9709 0.7918603
vt -10.03768 0.7932098
vt -9.9709 0.7932098
vt -10.03424 0.7710683
vt -9.974336 0.7710683
vt -9.974336 0.7689312
vt -10.03424 0.7689312
vt -9.974336 0.766794
vt -10.03424 0.766794
vt -10.03768 0.7449958
vt -9.9709 0.7436473
vt -10.03768 0.7436473
vt -9.9709 0.7449958
vt -10.03768 0.7470148
vt -9.9709 0.7470148
vt -10.03768 0.749397
vt -9.9709 0.749397
vt -10.03768 0.7517793
vt -9.9709 0.7517793
vt -10.03768 0.7537982
vt -9.9709 0.7537982
vt -10.03768 0.7551467
vt -9.9709 0.7551467
vt -9.974337 0.7287309
vt -10.03424 0.7287309
vt -10.03424 0.7308681
vt -9.974337 0.7308681
vt -10.03424 0.7330053
vt -9.974337 0.7330053
vt -9.9709 0.7055833
vt -10.03768 0.7055833
vt -10.03768 0.7069328
vt -9.9709 0.7069328
vt -10.03768 0.7089517
vt -9.9709 0.7089517
vt -10.03768 0.711334
vt -9.9709 0.711334
vt -10.03768 0.7137163
vt -9.9709 0.7137163
vt -10.03768 0.7157342
vt -9.9709 0.7157342
vt -10.03768 0.7170837
vt -9.9709 0.7170837
vt -10.03424 0.6949422
vt -9.974336 0.6949422
vt -9.974336 0.692806
vt -10.03424 0.692806
vt -9.974336 0.6906688
vt -10.03424 0.6906688
vt -9.222989 0.9187925
vt -9.889388 0.9187925
vt -9.889388 0.9210746
vt -9.222989 0.9210746
vt -9.889388 0.9244878
vt -9.222989 0.9244878
vt -9.889388 0.9285161
vt -9.222989 0.9285161
vt -9.889388 0.9325426
vt -9.222989 0.9325426
vt -9.889388 0.9359577
vt -9.222989 0.9359577
vt -9.889388 0.9382389
vt -9.222989 0.9382389
vt -9.257284 0.8969848
vt -9.855092 0.8969848
vt -9.855092 0.9005973
vt -9.257284 0.9005973
vt -9.855092 0.9042099
vt -9.257284 0.9042099
vt -9.22299 0.8642356
vt -9.889386 0.8642356
vt -9.889386 0.8665178
vt -9.22299 0.8665178
vt -9.889386 0.8699319
vt -9.22299 0.8699319
vt -9.889386 0.8739593
vt -9.22299 0.8739593
vt -9.889386 0.8779867
vt -9.22299 0.8779867
vt -9.889386 0.8814008
vt -9.22299 0.8814008
vt -9.889386 0.883683
vt -9.22299 0.883683
vt -9.257299 0.8426082
vt -9.855077 0.8426082
vt -9.855077 0.8462217
vt -9.257299 0.8462217
vt -9.855077 0.8498342
vt -9.257299 0.8498342
vt -10.05 0.594321
vt -10.05042 0.5964372
vt -10.04489 0.5964372
vt -10.0488 0.5925272
vt -10.05 0.5985534
vt -10.04701 0.5913284
vt -10.0488 0.6003473
vt -10.04489 0.5909078
vt -10.04701 0.601546
vt -10.04278 0.5913284
vt -10.04489 0.6019666
vt -10.04098 0.5925272
vt -10.04278 0.601546
vt -10.03978 0.594321
vt -10.04098 0.6003473
vt -10.03936 0.5964372
vt -10.03978 0.5985534
vt -10.05 0.5689456
vt -10.05042 0.5710618
vt -10.04489 0.5710618
vt -10.0488 0.5671518
vt -10.05 0.5731781
vt -10.04701 0.565953
vt -10.0488 0.5749719
vt -10.04489 0.5655324
vt -10.04701 0.5761707
vt -10.04278 0.565953
vt -10.04489 0.5765913
vt -10.04098 0.5671518
vt -10.04278 0.5761707
vt -10.03978 0.5689456
vt -10.04098 0.5749719
vt -10.03936 0.5710618
vt -10.03978 0.5731781
vt -10.0354 0.6587265
vt -10.03847 0.6581171
vt -10.03847 0.6661355
vt -10.0328 0.660465
vt -10.04153 0.6587265
vt -10.03106 0.6630666
vt -10.04414 0.660465
vt -10.03045 0.6661355
vt -10.04587 0.6630666
vt -10.03106 0.6692035
vt -10.04648 0.6661355
vt -10.0328 0.6718051
vt -10.04587 0.6692035
vt -10.0354 0.6735437
vt -10.04414 0.6718051
vt -10.03847 0.6741531
vt -10.04153 0.6735437
vt -10.03847 0.6280735
vt -10.03045 0.6280735
vt -10.03106 0.6250045
vt -10.03279 0.6224029
vt -10.03106 0.6311414
vt -10.0354 0.6206653
vt -10.03279 0.633743
vt -10.03847 0.620054
vt -10.0354 0.6354806
vt -10.04153 0.6206653
vt -10.03847 0.636091
vt -10.04414 0.6224029
vt -10.04153 0.6354806
vt -10.04587 0.6250045
vt -10.04414 0.633743
vt -10.04648 0.6280735
vt -10.04587 0.6311414
vt -10.03106 0.6630666
vt -10.03045 0.6661355
vt -10.02844 0.6661355
vt -10.02921 0.6622999
vt -10.02921 0.6699712
vt -10.0328 0.660465
vt -10.03106 0.6692035
vt -10.03138 0.6590488
vt -10.03138 0.6732223
vt -10.0354 0.6587265
vt -10.0328 0.6718051
vt -10.03463 0.6568754
vt -10.03463 0.6753948
vt -10.03847 0.6581171
vt -10.0354 0.6735437
vt -10.03847 0.6561124
vt -10.03847 0.6761587
vt -10.04153 0.6587265
vt -10.03847 0.6741531
vt -10.0423 0.6568754
vt -10.0423 0.6753948
vt -10.04414 0.660465
vt -10.04153 0.6735437
vt -10.04555 0.6590488
vt -10.04555 0.6732223
vt -10.04587 0.6630666
vt -10.04414 0.6718051
vt -10.04773 0.6622999
vt -10.04773 0.6699712
vt -10.04648 0.6661355
vt -10.04587 0.6692035
vt -10.04849 0.6661355
vt -10.0354 0.6206653
vt -10.03279 0.6224029
vt -10.03138 0.6209857
vt -10.03463 0.6188133
vt -10.02921 0.6242368
vt -10.03847 0.620054
vt -10.03106 0.6250045
vt -10.03847 0.6180503
vt -10.02844 0.6280735
vt -10.04153 0.6206653
vt -10.03045 0.6280735
vt -10.0423 0.6188133
vt -10.02921 0.6319082
vt -10.04414 0.6224029
vt -10.03106 0.6311414
vt -10.04555 0.6209857
vt -10.03138 0.6351612
vt -10.04587 0.6250045
vt -10.03279 0.633743
vt -10.04773 0.6242368
vt -10.03463 0.6373327
vt -10.04648 0.6280735
vt -10.0354 0.6354806
vt -10.04849 0.6280735
vt -10.03847 0.6380966
vt -10.04587 0.6311414
vt -10.03847 0.636091
vt -10.04773 0.6319082
vt -10.0423 0.6373327
vt -10.04414 0.633743
vt -10.04153 0.6354806
vt -10.04555 0.6351612
vt -10.03768 0.821121
vt -9.9709 0.8197725
vt -10.03768 0.8197725
vt -9.9709 0.821121
vt -10.03768 0.8231399
vt -9.9709 0.8231399
vt -10.03768 0.8255222
vt -9.9709 0.8255222
vt -10.03768 0.8279045
vt -9.9709 0.8279045
vt -10.03768 0.8299234
vt -9.9709 0.8299234
vt -10.03768 0.8312719
vt -9.9709 0.8312719
vt -9.974336 0.804857
vt -10.03424 0.804857
vt -10.03424 0.8069942
vt -9.974336 0.8069942
vt -10.03424 0.8091304
vt -9.974336 0.8091304
vt -9.9709 0.7817085
vt -10.03768 0.7817085
vt -10.03768 0.7830589
vt -9.9709 0.7830589
vt -10.03768 0.7850778
vt -9.9709 0.7850778
vt -10.03768 0.7874591
vt -9.9709 0.7874591
vt -10.03768 0.7898414
vt -9.9709 0.7898414
vt -10.03768 0.7918603
vt -9.9709 0.7918603
vt -10.03768 0.7932098
vt -9.9709 0.7932098
vt -10.03424 0.7710683
vt -9.974336 0.7710683
vt -9.974336 0.7689312
vt -10.03424 0.7689312
vt -9.974336 0.766794
vt -10.03424 0.766794
vt -10.03768 0.7449958
vt -9.9709 0.7436473
vt -10.03768 0.7436473
vt -9.9709 0.7449958
vt -10.03768 0.7470148
vt -9.9709 0.7470148
vt -10.03768 0.749397
vt -9.9709 0.749397
vt -10.03768 0.7517793
vt -9.9709 0.7517793
vt -10.03768 0.7537982
vt -9.9709 0.7537982
vt -10.03768 0.7551467
vt -9.9709 0.7551467
vt -9.974337 0.7287309
vt -10.03424 0.7287309
vt -10.03424 0.7308681
vt -9.974337 0.7308681
vt -10.03424 0.7330053
vt -9.974337 0.7330053
vt -9.9709 0.7055833
vt -10.03768 0.7055833
vt -10.03768 0.7069328
vt -9.9709 0.7069328
vt -10.03768 0.7089517
vt -9.9709 0.7089517
vt -10.03768 0.711334
vt -9.9709 0.711334
vt -10.03768 0.7137163
vt -9.9709 0.7137163
vt -10.03768 0.7157342
vt -9.9709 0.7157342
vt -10.03768 0.7170837
vt -9.9709 0.7170837
vt -10.03424 0.6949422
vt -9.974336 0.6949422
vt -9.974336 0.692806
vt -10.03424 0.692806
vt -9.974336 0.6906688
vt -10.03424 0.6906688
vt -9.222989 0.9187925
vt -9.889388 0.9187925
vt -9.889388 0.9210746
vt -9.222989 0.9210746
vt -9.889388 0.9244878
vt -9.222989 0.9244878
vt -9.889388 0.9285161
vt -9.222989 0.9285161
vt -9.889388 0.9325426
vt -9.222989 0.9325426
vt -9.889388 0.9359577
vt -9.222989 0.9359577
vt -9.889388 0.9382389
vt -9.222989 0.9382389
vt -9.257284 0.8969848
vt -9.855092 0.8969848
vt -9.855092 0.9005973
vt -9.257284 0.9005973
vt -9.855092 0.9042099
vt -9.257284 0.9042099
vt -9.22299 0.8642356
vt -9.889386 0.8642356
vt -9.889386 0.8665178
vt -9.22299 0.8665178
vt -9.889386 0.8699319
vt -9.22299 0.8699319
vt -9.889386 0.8739593
vt -9.22299 0.8739593
vt -9.889386 0.8779867
vt -9.22299 0.8779867
vt -9.889386 0.8814008
vt -9.22299 0.8814008
vt -9.889386 0.883683
vt -9.22299 0.883683
vt -9.257299 0.8426082
vt -9.855077 0.8426082
vt -9.855077 0.8462217
vt -9.257299 0.8462217
vt -9.855077 0.8498342
vt -9.257299 0.8498342
vt -10.05 0.594321
vt -10.05042 0.5964372
vt -10.04489 0.5964372
vt -10.0488 0.5925272
vt -10.05 0.5985534
vt -10.04701 0.5913284
vt -10.0488 0.6003473
vt -10.04489 0.5909078
vt -10.04701 0.601546
vt -10.04278 0.5913284
vt -10.04489 0.6019666
vt -10.04098 0.5925272
vt -10.04278 0.601546
vt -10.03978 0.594321
vt -10.04098 0.6003473
vt -10.03936 0.5964372
vt -10.03978 0.5985534
vt -10.05 0.5689456
vt -10.05042 0.5710618
vt -10.04489 0.5710618
vt -10.0488 0.5671518
vt -10.05 0.5731781
vt -10.04701 0.565953
vt -10.0488 0.5749719
vt -10.04489 0.5655324
vt -10.04701 0.5761707
vt -10.04278 0.565953
vt -10.04489 0.5765913
vt -10.04098 0.5671518
vt -10.04278 0.5761707
vt -10.03978 0.5689456
vt -10.04098 0.5749719
vt -10.03936 0.5710618
vt -10.03978 0.5731781
vt -10.0354 0.6587265
vt -10.03847 0.6581171
vt -10.03847 0.6661355
vt -10.0328 0.660465
vt -10.04153 0.6587265
vt -10.03106 0.6630666
vt -10.04414 0.660465
vt -10.03045 0.6661355
vt -10.04587 0.6630666
vt -10.03106 0.6692035
vt -10.04648 0.6661355
vt -10.0328 0.6718051
vt -10.04587 0.6692035
vt -10.0354 0.6735437
vt -10.04414 0.6718051
vt -10.03847 0.6741531
vt -10.04153 0.6735437
vt -10.03847 0.6280735
vt -10.03045 0.6280735
vt -10.03106 0.6250045
vt -10.03279 0.6224029
vt -10.03106 0.6311414
vt -10.0354 0.6206653
vt -10.03279 0.633743
vt -10.03847 0.620054
vt -10.0354 0.6354806
vt -10.04153 0.6206653
vt -10.03847 0.636091
vt -10.04414 0.6224029
vt -10.04153 0.6354806
vt -10.04587 0.6250045
vt -10.04414 0.633743
vt -10.04648 0.6280735
vt -10.04587 0.6311414
vt -10.03106 0.6630666
vt -10.03045 0.6661355
vt -10.02844 0.6661355
vt -10.02921 0.6622999
vt -10.02921 0.6699712
vt -10.0328 0.660465
vt -10.03106 0.6692035
vt -10.03138 0.6590488
vt -10.03138 0.6732223
vt -10.0354 0.6587265
vt -10.0328 0.6718051
vt -10.03463 0.6568754
vt -10.03463 0.6753948
vt -10.03847 0.6581171
vt -10.0354 0.6735437
vt -10.03847 0.6561124
vt -10.03847 0.6761587
vt -10.04153 0.6587265
vt -10.03847 0.6741531
vt -10.0423 0.6568754
vt -10.0423 0.6753948
vt -10.04414 0.660465
vt -10.04153 0.6735437
vt -10.04555 0.6590488
vt -10.04555 0.6732223
vt -10.04587 0.6630666
vt -10.04414 0.6718051
vt -10.04773 0.6622999
vt -10.04773 0.6699712
vt -10.04648 0.6661355
vt -10.04587 0.6692035
vt -10.04849 0.6661355
vt -10.0354 0.6206653
vt -10.03279 0.6224029
vt -10.03138 0.6209857
vt -10.03463 0.6188133
vt -10.02921 0.6242368
vt -10.03847 0.620054
vt -10.03106 0.6250045
vt -10.03847 0.6180503
vt -10.02844 0.6280735
vt -10.04153 0.6206653
vt -10.03045 0.6280735
vt -10.0423 0.6188133
vt -10.02921 0.6319082
vt -10.04414 0.6224029
vt -10.03106 0.6311414
vt -10.04555 0.6209857
vt -10.03138 0.6351612
vt -10.04587 0.6250045
vt -10.03279 0.633743
vt -10.04773 0.6242368
vt -10.03463 0.6373327
vt -10.04648 0.6280735
vt -10.0354 0.6354806
vt -10.04849 0.6280735
vt -10.03847 0.6380966
vt -10.04587 0.6311414
vt -10.03847 0.636091
vt -10.04773 0.6319082
vt -10.0423 0.6373327
vt -10.04414 0.633743
vt -10.04153 0.6354806
vt -10.04555 0.6351612
vn 1 0 0
vn 1 0 0
vn 1 0 0
vn 1 0 0
vn -1 0 0
vn -1 0 0
vn -1 0 0
vn -1 0 0
vn 1 0 0
vn 1 0 0
vn 1 0 0
vn 1 0 0
vn -1 0 0
vn -1 0 0
vn -1 0 0
vn -1 0 0
vn 1 0 0
vn 1 0 0
vn 1 0 0
vn 1 0 0
vn -1 0 0
vn -1 0 0
vn -1 0 0
vn -1 0 0
vn 1 0 0
vn 1 0 0
vn 1 0 0
vn 1 0 0
vn -1 0 0
vn -1 0 0
vn -1 0 0
vn -1 0 0
vn 1 0 0
vn 1 0 0
vn 1 0 0
vn 1 0 0
vn -1 0 0
vn -1 0 0
vn -1 0 0
vn -1 0 0
vn -1 0 0
vn -1 0 0
vn -1 0 0
vn -1 0 0
vn 1 0 0
vn 1 0 0
vn 1 0 0
vn 1 0 0
vn 1 0 0
vn 1 0 0
vn 1 0 0
vn 1 0 0
vn -1 0 0
vn -1 0 0
vn -1 0 0
vn -1 0 0
vn 1 0 0
vn 1 0 0
vn 1 0 0
vn 1 0 0
vn 1 0 0
vn -1 0 0
vn -1 0 0
vn -1 0 0
vn -1 0 0
vn -1 0 0
vn 1 0 0
vn 1 0 0
vn 1 0 0
vn 1 0 0
vn -1 0 0
vn -1 0 0
vn -1 0 0
vn -1 0 0
vn -1 0 0
vn -1 0 0
vn -1 0 0
vn -1 0 0
vn 1 0 0
vn 1 0 0
vn 1 0 0
vn 1 0 0
vn -1 0 0
vn -1 0 0
vn -1 0 0
vn -1 0 0
vn 1 0 0
vn 1 0 0
vn 1 0 0
vn 1 0 0
vn 1 0 0
vn 1 0 0
vn 1 0 0
vn 1 0 0
vn -1 0 0
vn -1 0 0
vn -1 0 0
vn -1 0 0
vn 0.7071072 0.7071064 0
vn 0.3826837 0.9238794 0
vn 0.3826837 0.9238794 0
vn 0.7071072 0.7071064 0
vn 0.9238798 0.3826828 0
vn 0.9238798 0.3826828 0
vn 1 -7.206469E-07 0
vn 1 -7.206469E-07 0
vn 0.9238794 -0.3826839 0
vn 0.9238794 -0.3826839 0
vn 0.7071069 -0.7071066 0
vn 0.7071069 -0.7071066 0
vn 0.3826837 -0.9238794 0
vn 0.3826837 -0.9238794 0
vn 0.3826837 0.9238794 0
vn 0.3826837 0.9238794 0
vn 5.332784E-07 1 0
vn 5.332784E-07 1 0
vn -0.382683 0.9238797 0
vn -0.382683 0.9238797 0
vn -0.382683 0.9238797 0
vn -0.382683 0.9238797 0
vn -0.7071061 0.7071074 0
vn -0.7071061 0.7071074 0
vn -0.9238794 0.3826839 0
vn -0.9238794 0.3826839 0
vn -1 0 0
vn -1 0 0
vn -0.9238797 -0.3826831 0
vn -0.9238797 -0.3826831 0
vn -0.7071072 -0.7071064 0
vn -0.7071072 -0.7071064 0
vn -0.3826834 -0.9238795 0
vn -0.3826834 -0.9238795 0
vn -0.3826834 -0.9238795 0
vn -0.3826834 -0.9238795 0
vn 0 -1 0
vn 0 -1 0
vn 0.3826837 -0.9238794 0
vn 0.3826837 -0.9238794 0
vn 0.7071061 0.7071074 0
vn 0.3826829 0.9238797 0
vn 0.3826829 0.9238797 0
vn 0.7071061 0.7071074 0
vn 0.9238793 0.382684 0
vn 0.9238793 0.382684 0
vn 1 0 0
vn 1 0 0
vn 0.9238794 -0.3826838 0
vn 0.9238794 -0.3826838 0
vn 0.7071059 -0.7071077 0
vn 0.7071059 -0.7071077 0
vn 0.3826824 -0.92388 0
vn 0.3826824 -0.92388 0
vn 0.3826829 0.9238797 0
vn 0.3826829 0.9238797 0
vn 5.404888E-07 1 0
vn 5.404888E-07 1 0
vn -0.3826861 0.9238784 0
vn -0.3826861 0.9238784 0
vn -0.3826861 0.9238784 0
vn -0.3826861 0.9238784 0
vn -0.7071 0.7071136 0
vn -0.7071 0.7071136 0
vn -0.9238794 0.3826839 0
vn -0.9238794 0.3826839 0
vn -1 0 0
vn -1 0 0
vn -0.9238835 -0.3826738 0
vn -0.9238835 -0.3826738 0
vn -0.7071061 -0.7071074 0
vn -0.7071061 -0.7071074 0
vn -0.3826826 -0.9238799 0
vn -0.3826826 -0.9238799 0
vn -0.3826826 -0.9238799 0
vn -0.3826826 -0.9238799 0
vn 0 -1 0
vn 0 -1 0
vn 0.3826824 -0.92388 0
vn 0.3826824 -0.92388 0
vn 0 0.3826824 -0.92388
vn 0 0.3826824 -0.92388
vn 0 0.7071066 -0.7071069
vn 0 0.7071066 -0.7071069
vn 0 0.9238795 -0.3826834
vn 0 0.9238795 -0.3826834
vn 0 1 -6.969865E-07
vn 0 1 -6.969865E-07
vn 0 0.9238798 0.3826829
vn 0 0.9238798 0.3826829
vn 0 0.7071068 0.7071066
vn 0 0.7071068 0.7071066
vn 0 0.3826823 0.92388
vn 0 0.3826823 0.92388
vn 0 0.3826823 0.92388
vn 0 0.3826823 0.92388
vn 0 0 1
vn 0 0 1
vn 0 -0.3826821 0.92388
vn 0 -0.3826821 0.92388
vn 0 -0.3826821 0.92388
vn 0 -0.3826821 0.92388
vn 0 -0.7071066 0.7071069
vn 0 -0.7071066 0.7071069
vn 0 -0.9238795 0.3826833
vn 0 -0.9238795 0.3826833
vn 0 -1 1.639968E-07
vn 0 -1 1.639968E-07
vn 0 -0.9238795 -0.3826833
vn 0 -0.9238795 -0.3826833
vn 0 -0.7071069 -0.7071066
vn 0 -0.7071069 -0.7071066
vn 0 -0.3826823 -0.92388
vn 0 -0.3826823 -0.92388
vn 0 -0.3826823 -0.92388
vn 0 -0.3826823 -0.92388
vn 0 0 -1
vn 0 0 -1
vn 0 0.3826824 -0.92388
vn 0 0.3826824 -0.92388
vn -1.214599E-06 0 -1
vn 1.214598E-07 0 -1
vn 1.518248E-07 0 -1
vn -6.072998E-07 0 -1
vn 1.457519E-06 0 -1
vn 0 0 -1
vn 7.287595E-07 0 -1
vn -4.858398E-07 0 -1
vn 0 0 -1
vn -9.716794E-07 0 -1
vn 4.858396E-07 0 -1
vn 0 0 -1
vn 9.716797E-07 0 -1
vn 9.716798E-07 0 -1
vn 4.858396E-07 0 -1
vn 4.858397E-07 0 -1
vn 0 0 -1
vn -1.214598E-06 0 -1
vn 1.214593E-07 0 -1
vn 1.518239E-07 0 -1
vn -6.072999E-07 0 -1
vn 1.457533E-06 0 -1
vn 0 0 -1
vn 7.287611E-07 0 -1
vn -4.858402E-07 0 -1
vn 0 0 -1
vn -9.716799E-07 0 -1
vn 4.858389E-07 0 -1
vn 0 0 -1
vn 9.716799E-07 0 -1
vn 9.71678E-07 0 -1
vn 4.858391E-07 0 -1
vn 4.85839E-07 0 -1
vn 0 0 -1
vn -1 0 0
vn -1 0 0
vn -1 0 0
vn -1 0 0
vn -1 0 0
vn -1 0 0
vn -1 0 0
vn -1 0 0
vn -1 0 0
vn -1 0 0
vn -1 0 0
vn -1 0 0
vn -1 0 0
vn -1 0 0
vn -1 0 0
vn -1 0 0
vn -1 0 0
vn 1 0 0
vn 1 4.247519E-06 0
vn 1 8.495043E-06 0
vn 1 4.247529E-06 0
vn 1 0 0
vn 1 0 0
vn 1 0 0
vn 1 0 0
vn 1 0 0
vn 1 0 0
vn 1 0 0
vn 1 0 0
vn 1 0 0
vn 1 0 0
vn 1 -4.247526E-06 0
vn 1 -4.247519E-06 0
vn 1 -8.495042E-06 0
vn -0.7139321 0.2679597 -0.6469147
vn -0.7139321 0 -0.700215
vn -0.7139321 0 -0.700215
vn -0.713932 0.2679597 -0.6469147
vn -0.7139322 -0.2679596 -0.6469147
vn -0.7139319 0.4951265 -0.4951273
vn -0.7139321 -0.2679596 -0.6469147
vn -0.7139319 0.4951268 -0.495127
vn -0.713932 -0.4951269 -0.4951268
vn -0.7139321 0.6469142 -0.2679607
vn -0.713932 -0.4951266 -0.4951271
vn -0.7139321 0.6469144 -0.2679603
vn -0.7139321 -0.6469144 -0.2679603
vn -0.7139324 0.7002147 -5.602393E-07
vn -0.7139321 -0.6469142 -0.2679607
vn -0.7139324 0.7002146 -4.562435E-07
vn -0.7139324 -0.7002146 1.545341E-07
vn -0.7139322 0.6469144 0.2679602
vn -0.7139324 -0.7002146 1.785377E-07
vn -0.7139322 0.6469145 0.2679599
vn -0.713932 -0.6469145 0.2679603
vn -0.7139319 0.4951266 0.4951272
vn -0.713932 -0.6469143 0.2679607
vn -0.7139319 0.4951269 0.4951269
vn -0.7139319 -0.4951268 0.4951269
vn -0.713932 0.2679597 0.6469147
vn -0.7139319 -0.4951265 0.4951272
vn -0.713932 0.2679597 0.6469147
vn -0.7139322 -0.2679595 0.6469147
vn -0.7139322 0 0.7002148
vn -0.7139322 -0.2679595 0.6469147
vn -0.7139321 0 0.7002149
vn 0.7139297 0.2679613 -0.6469166
vn 0.7139297 0.4951279 -0.495129
vn 0.7139297 0.4951282 -0.4951287
vn 0.7139297 0.2679613 -0.6469166
vn 0.7139298 0.6469165 -0.2679611
vn 0.7139299 0 -0.7002171
vn 0.7139298 0.6469164 -0.2679616
vn 0.7139299 0 -0.7002171
vn 0.7139291 0.700218 -4.488825E-07
vn 0.7139297 -0.2679613 -0.6469166
vn 0.7139291 0.700218 -5.417675E-07
vn 0.7139297 -0.2679613 -0.6469166
vn 0.7139298 0.6469166 0.2679607
vn 0.7139297 -0.4951282 -0.4951287
vn 0.7139298 0.6469165 0.2679611
vn 0.7139297 -0.4951284 -0.4951285
vn 0.7139297 0.4951284 0.4951286
vn 0.7139298 -0.6469164 -0.2679615
vn 0.7139297 0.4951281 0.4951288
vn 0.7139298 -0.6469165 -0.2679611
vn 0.7139295 0.2679613 0.6469167
vn 0.7139291 -0.700218 0
vn 0.7139295 0.2679613 0.6469169
vn 0.7139291 -0.700218 0
vn 0.7139298 0 0.7002173
vn 0.7139297 -0.6469164 0.2679615
vn 0.7139298 0 0.7002173
vn 0.7139298 -0.6469166 0.2679611
vn 0.7139297 -0.2679611 0.6469167
vn 0.7139297 -0.4951279 0.495129
vn 0.7139297 -0.2679611 0.6469167
vn 0.7139297 -0.4951282 0.4951287
vn -1 0 0
vn -1 0 0
vn -1 0 0
vn -1 0 0
vn -1 0 0
vn -1 0 0
vn -1 0 0
vn -1 0 0
vn 1 0 0
vn 1 0 0
vn 1 0 0
vn 1 0 0
vn 1 0 0
vn 1 0 0
vn 1 0 0
vn 1 0 0
vn 1 0 0
vn 1 0 0
vn 1 0 0
vn 1 0 0
vn -1 0 0
vn -1 0 0
vn -1 0 0
vn -1 0 0
vn 0.7071072 0.7071064 0
vn 0.3826837 0.9238794 0
vn 0.3826837 0.9238794 0
vn 0.7071072 0.7071064 0
vn 0.9238798 0.3826828 0
vn 0.9238798 0.3826828 0
vn 1 -7.206469E-07 0
vn 1 -7.206469E-07 0
vn 0.9238794 -0.3826839 0
vn 0.9238794 -0.3826839 0
vn 0.7071069 -0.7071066 0
vn 0.7071069 -0.7071066 0
vn 0.3826837 -0.9238794 0
vn 0.3826837 -0.9238794 0
vn 0.3826837 0.9238794 0
vn 0.3826837 0.9238794 0
vn 5.332784E-07 1 0
vn 5.332784E-07 1 0
vn -0.382683 0.9238797 0
vn -0.382683 0.9238797 0
vn -0.382683 0.9238797 0
vn -0.382683 0.9238797 0
vn -0.7071061 0.7071074 0
vn -0.7071061 0.7071074 0
vn -0.9238794 0.3826839 0
vn -0.9238794 0.3826839 0
vn -1 0 0
vn -1 0 0
vn -0.9238797 -0.3826831 0
vn -0.9238797 -0.3826831 0
vn -0.7071072 -0.7071064 0
vn -0.7071072 -0.7071064 0
vn -0.3826834 -0.9238795 0
vn -0.3826834 -0.9238795 0
vn -0.3826834 -0.9238795 0
vn -0.3826834 -0.9238795 0
vn 0 -1 0
vn 0 -1 0
vn 0.3826837 -0.9238794 0
vn 0.3826837 -0.9238794 0
vn 0.7071061 0.7071074 0
vn 0.3826829 0.9238797 0
vn 0.3826829 0.9238797 0
vn 0.7071061 0.7071074 0
vn 0.9238793 0.382684 0
vn 0.9238793 0.382684 0
vn 1 0 0
vn 1 0 0
vn 0.9238794 -0.3826838 0
vn 0.9238794 -0.3826838 0
vn 0.7071059 -0.7071077 0
vn 0.7071059 -0.7071077 0
vn 0.3826824 -0.92388 0
vn 0.3826824 -0.92388 0
vn 0.3826829 0.9238797 0
vn 0.3826829 0.9238797 0
vn 5.404888E-07 1 0
vn 5.404888E-07 1 0
vn -0.3826861 0.9238784 0
vn -0.3826861 0.9238784 0
vn -0.3826861 0.9238784 0
vn -0.3826861 0.9238784 0
vn -0.7071 0.7071136 0
vn -0.7071 0.7071136 0
vn -0.9238794 0.3826839 0
vn -0.9238794 0.3826839 0
vn -1 0 0
vn -1 0 0
vn -0.9238835 -0.3826738 0
vn -0.9238835 -0.3826738 0
vn -0.7071061 -0.7071074 0
vn -0.7071061 -0.7071074 0
vn -0.3826826 -0.9238799 0
vn -0.3826826 -0.9238799 0
vn -0.3826826 -0.9238799 0
vn -0.3826826 -0.9238799 0
vn 0 -1 0
vn 0 -1 0
vn 0.3826824 -0.92388 0
vn 0.3826824 -0.92388 0
vn 0 0.3826824 -0.92388
vn 0 0.3826824 -0.92388
vn 0 0.7071066 -0.7071069
vn 0 0.7071066 -0.7071069
vn 0 0.9238795 -0.3826834
vn 0 0.9238795 -0.3826834
vn 0 1 -6.969865E-07
vn 0 1 -6.969865E-07
vn 0 0.9238798 0.3826829
vn 0 0.9238798 0.3826829
vn 0 0.7071068 0.7071066
vn 0 0.7071068 0.7071066
vn 0 0.3826823 0.92388
vn 0 0.3826823 0.92388
vn 0 0.3826823 0.92388
vn 0 0.3826823 0.92388
vn 0 0 1
vn 0 0 1
vn 0 -0.3826821 0.92388
vn 0 -0.3826821 0.92388
vn 0 -0.3826821 0.92388
vn 0 -0.3826821 0.92388
vn 0 -0.7071066 0.7071069
vn 0 -0.7071066 0.7071069
vn 0 -0.9238795 0.3826833
vn 0 -0.9238795 0.3826833
vn 0 -1 1.639968E-07
vn 0 -1 1.639968E-07
vn 0 -0.9238795 -0.3826833
vn 0 -0.9238795 -0.3826833
vn 0 -0.7071069 -0.7071066
vn 0 -0.7071069 -0.7071066
vn 0 -0.3826823 -0.92388
vn 0 -0.3826823 -0.92388
vn 0 -0.3826823 -0.92388
vn 0 -0.3826823 -0.92388
vn 0 0 -1
vn 0 0 -1
vn 0 0.3826824 -0.92388
vn 0 0.3826824 -0.92388
vn -1.214599E-06 0 -1
vn 1.214598E-07 0 -1
vn 1.518248E-07 0 -1
vn -6.072998E-07 0 -1
vn 1.457519E-06 0 -1
vn 0 0 -1
vn 7.287595E-07 0 -1
vn -4.858398E-07 0 -1
vn 0 0 -1
vn -9.716794E-07 0 -1
vn 4.858396E-07 0 -1
vn 0 0 -1
vn 9.716797E-07 0 -1
vn 9.716798E-07 0 -1
vn 4.858396E-07 0 -1
vn 4.858397E-07 0 -1
vn 0 0 -1
vn -1.214598E-06 0 -1
vn 1.214593E-07 0 -1
vn 1.518239E-07 0 -1
vn -6.072999E-07 0 -1
vn 1.457533E-06 0 -1
vn 0 0 -1
vn 7.287611E-07 0 -1
vn -4.858402E-07 0 -1
vn 0 0 -1
vn -9.716799E-07 0 -1
vn 4.858389E-07 0 -1
vn 0 0 -1
vn 9.716799E-07 0 -1
vn 9.71678E-07 0 -1
vn 4.858391E-07 0 -1
vn 4.85839E-07 0 -1
vn 0 0 -1
vn -1 0 0
vn -1 0 0
vn -1 0 0
vn -1 0 0
vn -1 0 0
vn -1 0 0
vn -1 0 0
vn -1 0 0
vn -1 0 0
vn -1 0 0
vn -1 0 0
vn -1 0 0
vn -1 0 0
vn -1 0 0
vn -1 0 0
vn -1 0 0
vn -1 0 0
vn 1 0 0
vn 1 4.247519E-06 0
vn 1 8.495043E-06 0
vn 1 4.247529E-06 0
vn 1 0 0
vn 1 0 0
vn 1 0 0
vn 1 0 0
vn 1 0 0
vn 1 0 0
vn 1 0 0
vn 1 0 0
vn 1 0 0
vn 1 0 0
vn 1 -4.247526E-06 0
vn 1 -4.247519E-06 0
vn 1 -8.495042E-06 0
vn -0.7139321 0.2679597 -0.6469147
vn -0.7139321 0 -0.700215
vn -0.7139321 0 -0.700215
vn -0.713932 0.2679597 -0.6469147
vn -0.7139322 -0.2679596 -0.6469147
vn -0.7139319 0.4951265 -0.4951273
vn -0.7139321 -0.2679596 -0.6469147
vn -0.7139319 0.4951268 -0.495127
vn -0.713932 -0.4951269 -0.4951268
vn -0.7139321 0.6469142 -0.2679607
vn -0.713932 -0.4951266 -0.4951271
vn -0.7139321 0.6469144 -0.2679603
vn -0.7139321 -0.6469144 -0.2679603
vn -0.7139324 0.7002147 -5.602393E-07
vn -0.7139321 -0.6469142 -0.2679607
vn -0.7139324 0.7002146 -4.562435E-07
vn -0.7139324 -0.7002146 1.545341E-07
vn -0.7139322 0.6469144 0.2679602
vn -0.7139324 -0.7002146 1.785377E-07
vn -0.7139322 0.6469145 0.2679599
vn -0.713932 -0.6469145 0.2679603
vn -0.7139319 0.4951266 0.4951272
vn -0.713932 -0.6469143 0.2679607
vn -0.7139319 0.4951269 0.4951269
vn -0.7139319 -0.4951268 0.4951269
vn -0.713932 0.2679597 0.6469147
vn -0.7139319 -0.4951265 0.4951272
vn -0.713932 0.2679597 0.6469147
vn -0.7139322 -0.2679595 0.6469147
vn -0.7139322 0 0.7002148
vn -0.7139322 -0.2679595 0.6469147
vn -0.7139321 0 0.7002149
vn 0.7139297 0.2679613 -0.6469166
vn 0.7139297 0.4951279 -0.495129
vn 0.7139297 0.4951282 -0.4951287
vn 0.7139297 0.2679613 -0.6469166
vn 0.7139298 0.6469165 -0.2679611
vn 0.7139299 0 -0.7002171
vn 0.7139298 0.6469164 -0.2679616
vn 0.7139299 0 -0.7002171
vn 0.7139291 0.700218 -4.488825E-07
vn 0.7139297 -0.2679613 -0.6469166
vn 0.7139291 0.700218 -5.417675E-07
vn 0.7139297 -0.2679613 -0.6469166
vn 0.7139298 0.6469166 0.2679607
vn 0.7139297 -0.4951282 -0.4951287
vn 0.7139298 0.6469165 0.2679611
vn 0.7139297 -0.4951284 -0.4951285
vn 0.7139297 0.4951284 0.4951286
vn 0.7139298 -0.6469164 -0.2679615
vn 0.7139297 0.4951281 0.4951288
vn 0.7139298 -0.6469165 -0.2679611
vn 0.7139295 0.2679613 0.6469167
vn 0.7139291 -0.700218 0
vn 0.7139295 0.2679613 0.6469169
vn 0.7139291 -0.700218 0
vn 0.7139298 0 0.7002173
vn 0.7139297 -0.6469164 0.2679615
vn 0.7139298 0 0.7002173
vn 0.7139298 -0.6469166 0.2679611
vn 0.7139297 -0.2679611 0.6469167
vn 0.7139297 -0.4951279 0.495129
vn 0.7139297 -0.2679611 0.6469167
vn 0.7139297 -0.4951282 0.4951287
vn 1 0 0
vn 1 0 0
vn 1 0 0
vn 1 0 0
vn -1 0 0
vn -1 0 0
vn -1 0 0
vn -1 0 0
vn -1 0 0
vn -1 0 0
vn -1 0 0
vn -1 0 0
vn 1 0 0
vn 1 0 0
vn 1 0 0
vn 1 0 0
vn 1 0 0
vn 1 0 0
vn 1 0 0
vn 1 0 0
vn -1 0 0
vn -1 0 0
vn -1 0 0
vn -1 0 0
vn 0.7071072 0.7071064 0
vn 0.3826837 0.9238794 0
vn 0.3826837 0.9238794 0
vn 0.7071072 0.7071064 0
vn 0.9238798 0.3826828 0
vn 0.9238798 0.3826828 0
vn 1 -7.206469E-07 0
vn 1 -7.206469E-07 0
vn 0.9238794 -0.3826839 0
vn 0.9238794 -0.3826839 0
vn 0.7071069 -0.7071066 0
vn 0.7071069 -0.7071066 0
vn 0.3826837 -0.9238794 0
vn 0.3826837 -0.9238794 0
vn 0.3826837 0.9238794 0
vn 0.3826837 0.9238794 0
vn 5.332784E-07 1 0
vn 5.332784E-07 1 0
vn -0.382683 0.9238797 0
vn -0.382683 0.9238797 0
vn -0.382683 0.9238797 0
vn -0.382683 0.9238797 0
vn -0.7071061 0.7071074 0
vn -0.7071061 0.7071074 0
vn -0.9238794 0.3826839 0
vn -0.9238794 0.3826839 0
vn -1 0 0
vn -1 0 0
vn -0.9238797 -0.3826831 0
vn -0.9238797 -0.3826831 0
vn -0.7071072 -0.7071064 0
vn -0.7071072 -0.7071064 0
vn -0.3826834 -0.9238795 0
vn -0.3826834 -0.9238795 0
vn -0.3826834 -0.9238795 0
vn -0.3826834 -0.9238795 0
vn 0 -1 0
vn 0 -1 0
vn 0.3826837 -0.9238794 0
vn 0.3826837 -0.9238794 0
vn 0.7071061 0.7071074 0
vn 0.3826829 0.9238797 0
vn 0.3826829 0.9238797 0
vn 0.7071061 0.7071074 0
vn 0.9238793 0.382684 0
vn 0.9238793 0.382684 0
vn 1 0 0
vn 1 0 0
vn 0.9238794 -0.3826838 0
vn 0.9238794 -0.3826838 0
vn 0.7071059 -0.7071077 0
vn 0.7071059 -0.7071077 0
vn 0.3826824 -0.92388 0
vn 0.3826824 -0.92388 0
vn 0.3826829 0.9238797 0
vn 0.3826829 0.9238797 0
vn 5.404888E-07 1 0
vn 5.404888E-07 1 0
vn -0.3826861 0.9238784 0
vn -0.3826861 0.9238784 0
vn -0.3826861 0.9238784 0
vn -0.3826861 0.9238784 0
vn -0.7071 0.7071136 0
vn -0.7071 0.7071136 0
vn -0.9238794 0.3826839 0
vn -0.9238794 0.3826839 0
vn -1 0 0
vn -1 0 0
vn -0.9238835 -0.3826738 0
vn -0.9238835 -0.3826738 0
vn -0.7071061 -0.7071074 0
vn -0.7071061 -0.7071074 0
vn -0.3826826 -0.9238799 0
vn -0.3826826 -0.9238799 0
vn -0.3826826 -0.9238799 0
vn -0.3826826 -0.9238799 0
vn 0 -1 0
vn 0 -1 0
vn 0.3826824 -0.92388 0
vn 0.3826824 -0.92388 0
vn 0 0.3826824 -0.92388
vn 0 0.3826824 -0.92388
vn 0 0.7071066 -0.7071069
vn 0 0.7071066 -0.7071069
vn 0 0.9238795 -0.3826834
vn 0 0.9238795 -0.3826834
vn 0 1 -6.969865E-07
vn 0 1 -6.969865E-07
vn 0 0.9238798 0.3826829
vn 0 0.9238798 0.3826829
vn 0 0.7071068 0.7071066
vn 0 0.7071068 0.7071066
vn 0 0.3826823 0.92388
vn 0 0.3826823 0.92388
vn 0 0.3826823 0.92388
vn 0 0.3826823 0.92388
vn 0 0 1
vn 0 0 1
vn 0 -0.3826821 0.92388
vn 0 -0.3826821 0.92388
vn 0 -0.3826821 0.92388
vn 0 -0.3826821 0.92388
vn 0 -0.7071066 0.7071069
vn 0 -0.7071066 0.7071069
vn 0 -0.9238795 0.3826833
vn 0 -0.9238795 0.3826833
vn 0 -1 1.639968E-07
vn 0 -1 1.639968E-07
vn 0 -0.9238795 -0.3826833
vn 0 -0.9238795 -0.3826833
vn 0 -0.7071069 -0.7071066
vn 0 -0.7071069 -0.7071066
vn 0 -0.3826823 -0.92388
vn 0 -0.3826823 -0.92388
vn 0 -0.3826823 -0.92388
vn 0 -0.3826823 -0.92388
vn 0 0 -1
vn 0 0 -1
vn 0 0.3826824 -0.92388
vn 0 0.3826824 -0.92388
vn -1.214599E-06 0 -1
vn 1.214598E-07 0 -1
vn 1.518248E-07 0 -1
vn -6.072998E-07 0 -1
vn 1.457519E-06 0 -1
vn 0 0 -1
vn 7.287595E-07 0 -1
vn -4.858398E-07 0 -1
vn 0 0 -1
vn -9.716794E-07 0 -1
vn 4.858396E-07 0 -1
vn 0 0 -1
vn 9.716797E-07 0 -1
vn 9.716798E-07 0 -1
vn 4.858396E-07 0 -1
vn 4.858397E-07 0 -1
vn 0 0 -1
vn -1.214598E-06 0 -1
vn 1.214593E-07 0 -1
vn 1.518239E-07 0 -1
vn -6.072999E-07 0 -1
vn 1.457533E-06 0 -1
vn 0 0 -1
vn 7.287611E-07 0 -1
vn -4.858402E-07 0 -1
vn 0 0 -1
vn -9.716799E-07 0 -1
vn 4.858389E-07 0 -1
vn 0 0 -1
vn 9.716799E-07 0 -1
vn 9.71678E-07 0 -1
vn 4.858391E-07 0 -1
vn 4.85839E-07 0 -1
vn 0 0 -1
vn -1 0 0
vn -1 0 0
vn -1 0 0
vn -1 0 0
vn -1 0 0
vn -1 0 0
vn -1 0 0
vn -1 0 0
vn -1 0 0
vn -1 0 0
vn -1 0 0
vn -1 0 0
vn -1 0 0
vn -1 0 0
vn -1 0 0
vn -1 0 0
vn -1 0 0
vn 1 0 0
vn 1 4.247519E-06 0
vn 1 8.495043E-06 0
vn 1 4.247529E-06 0
vn 1 0 0
vn 1 0 0
vn 1 0 0
vn 1 0 0
vn 1 0 0
vn 1 0 0
vn 1 0 0
vn 1 0 0
vn 1 0 0
vn 1 0 0
vn 1 -4.247526E-06 0
vn 1 -4.247519E-06 0
vn 1 -8.495042E-06 0
vn -0.7139321 0.2679597 -0.6469147
vn -0.7139321 0 -0.700215
vn -0.7139321 0 -0.700215
vn -0.713932 0.2679597 -0.6469147
vn -0.7139322 -0.2679596 -0.6469147
vn -0.7139319 0.4951265 -0.4951273
vn -0.7139321 -0.2679596 -0.6469147
vn -0.7139319 0.4951268 -0.495127
vn -0.713932 -0.4951269 -0.4951268
vn -0.7139321 0.6469142 -0.2679607
vn -0.713932 -0.4951266 -0.4951271
vn -0.7139321 0.6469144 -0.2679603
vn -0.7139321 -0.6469144 -0.2679603
vn -0.7139324 0.7002147 -5.602393E-07
vn -0.7139321 -0.6469142 -0.2679607
vn -0.7139324 0.7002146 -4.562435E-07
vn -0.7139324 -0.7002146 1.545341E-07
vn -0.7139322 0.6469144 0.2679602
vn -0.7139324 -0.7002146 1.785377E-07
vn -0.7139322 0.6469145 0.2679599
vn -0.713932 -0.6469145 0.2679603
vn -0.7139319 0.4951266 0.4951272
vn -0.713932 -0.6469143 0.2679607
vn -0.7139319 0.4951269 0.4951269
vn -0.7139319 -0.4951268 0.4951269
vn -0.713932 0.2679597 0.6469147
vn -0.7139319 -0.4951265 0.4951272
vn -0.713932 0.2679597 0.6469147
vn -0.7139322 -0.2679595 0.6469147
vn -0.7139322 0 0.7002148
vn -0.7139322 -0.2679595 0.6469147
vn -0.7139321 0 0.7002149
vn 0.7139297 0.2679613 -0.6469166
vn 0.7139297 0.4951279 -0.495129
vn 0.7139297 0.4951282 -0.4951287
vn 0.7139297 0.2679613 -0.6469166
vn 0.7139298 0.6469165 -0.2679611
vn 0.7139299 0 -0.7002171
vn 0.7139298 0.6469164 -0.2679616
vn 0.7139299 0 -0.7002171
vn 0.7139291 0.700218 -4.488825E-07
vn 0.7139297 -0.2679613 -0.6469166
vn 0.7139291 0.700218 -5.417675E-07
vn 0.7139297 -0.2679613 -0.6469166
vn 0.7139298 0.6469166 0.2679607
vn 0.7139297 -0.4951282 -0.4951287
vn 0.7139298 0.6469165 0.2679611
vn 0.7139297 -0.4951284 -0.4951285
vn 0.7139297 0.4951284 0.4951286
vn 0.7139298 -0.6469164 -0.2679615
vn 0.7139297 0.4951281 0.4951288
vn 0.7139298 -0.6469165 -0.2679611
vn 0.7139295 0.2679613 0.6469167
vn 0.7139291 -0.700218 0
vn 0.7139295 0.2679613 0.6469169
vn 0.7139291 -0.700218 0
vn 0.7139298 0 0.7002173
vn 0.7139297 -0.6469164 0.2679615
vn 0.7139298 0 0.7002173
vn 0.7139298 -0.6469166 0.2679611
vn 0.7139297 -0.2679611 0.6469167
vn 0.7139297 -0.4951279 0.495129
vn 0.7139297 -0.2679611 0.6469167
vn 0.7139297 -0.4951282 0.4951287
vn 1 0 0
vn 1 0 0
vn 1 0 0
vn 1 0 0
vn -1 0 0
vn -1 0 0
vn -1 0 0
vn -1 0 0
vn -1 0 0
vn -1 0 0
vn -1 0 0
vn -1 0 0
vn 1 0 0
vn 1 0 0
vn 1 0 0
vn 1 0 0
vn -1 0 0
vn -1 0 0
vn -1 0 0
vn -1 0 0
vn 1 0 0
vn 1 0 0
vn 1 0 0
vn 1 0 0
vn 0.7071072 0.7071064 0
vn 0.3826837 0.9238794 0
vn 0.3826837 0.9238794 0
vn 0.7071072 0.7071064 0
vn 0.9238798 0.3826828 0
vn 0.9238798 0.3826828 0
vn 1 -7.206469E-07 0
vn 1 -7.206469E-07 0
vn 0.9238794 -0.3826839 0
vn 0.9238794 -0.3826839 0
vn 0.7071069 -0.7071066 0
vn 0.7071069 -0.7071066 0
vn 0.3826837 -0.9238794 0
vn 0.3826837 -0.9238794 0
vn 0.3826837 0.9238794 0
vn 0.3826837 0.9238794 0
vn 5.332784E-07 1 0
vn 5.332784E-07 1 0
vn -0.382683 0.9238797 0
vn -0.382683 0.9238797 0
vn -0.382683 0.9238797 0
vn -0.382683 0.9238797 0
vn -0.7071061 0.7071074 0
vn -0.7071061 0.7071074 0
vn -0.9238794 0.3826839 0
vn -0.9238794 0.3826839 0
vn -1 0 0
vn -1 0 0
vn -0.9238797 -0.3826831 0
vn -0.9238797 -0.3826831 0
vn -0.7071072 -0.7071064 0
vn -0.7071072 -0.7071064 0
vn -0.3826834 -0.9238795 0
vn -0.3826834 -0.9238795 0
vn -0.3826834 -0.9238795 0
vn -0.3826834 -0.9238795 0
vn 0 -1 0
vn 0 -1 0
vn 0.3826837 -0.9238794 0
vn 0.3826837 -0.9238794 0
vn 0.7071061 0.7071074 0
vn 0.3826829 0.9238797 0
vn 0.3826829 0.9238797 0
vn 0.7071061 0.7071074 0
vn 0.9238793 0.382684 0
vn 0.9238793 0.382684 0
vn 1 0 0
vn 1 0 0
vn 0.9238794 -0.3826838 0
vn 0.9238794 -0.3826838 0
vn 0.7071059 -0.7071077 0
vn 0.7071059 -0.7071077 0
vn 0.3826824 -0.92388 0
vn 0.3826824 -0.92388 0
vn 0.3826829 0.9238797 0
vn 0.3826829 0.9238797 0
vn 5.404888E-07 1 0
vn 5.404888E-07 1 0
vn -0.3826861 0.9238784 0
vn -0.3826861 0.9238784 0
vn -0.3826861 0.9238784 0
vn -0.3826861 0.9238784 0
vn -0.7071 0.7071136 0
vn -0.7071 0.7071136 0
vn -0.9238794 0.3826839 0
vn -0.9238794 0.3826839 0
vn -1 0 0
vn -1 0 0
vn -0.9238835 -0.3826738 0
vn -0.9238835 -0.3826738 0
vn -0.7071061 -0.7071074 0
vn -0.7071061 -0.7071074 0
vn -0.3826826 -0.9238799 0
vn -0.3826826 -0.9238799 0
vn -0.3826826 -0.9238799 0
vn -0.3826826 -0.9238799 0
vn 0 -1 0
vn 0 -1 0
vn 0.3826824 -0.92388 0
vn 0.3826824 -0.92388 0
vn 0 0.3826824 -0.92388
vn 0 0.3826824 -0.92388
vn 0 0.7071066 -0.7071069
vn 0 0.7071066 -0.7071069
vn 0 0.9238795 -0.3826834
vn 0 0.9238795 -0.3826834
vn 0 1 -6.969865E-07
vn 0 1 -6.969865E-07
vn 0 0.9238798 0.3826829
vn 0 0.9238798 0.3826829
vn 0 0.7071068 0.7071066
vn 0 0.7071068 0.7071066
vn 0 0.3826823 0.92388
vn 0 0.3826823 0.92388
vn 0 0.3826823 0.92388
vn 0 0.3826823 0.92388
vn 0 0 1
vn 0 0 1
vn 0 -0.3826821 0.92388
vn 0 -0.3826821 0.92388
vn 0 -0.3826821 0.92388
vn 0 -0.3826821 0.92388
vn 0 -0.7071066 0.7071069
vn 0 -0.7071066 0.7071069
vn 0 -0.9238795 0.3826833
vn 0 -0.9238795 0.3826833
vn 0 -1 1.639968E-07
vn 0 -1 1.639968E-07
vn 0 -0.9238795 -0.3826833
vn 0 -0.9238795 -0.3826833
vn 0 -0.7071069 -0.7071066
vn 0 -0.7071069 -0.7071066
vn 0 -0.3826823 -0.92388
vn 0 -0.3826823 -0.92388
vn 0 -0.3826823 -0.92388
vn 0 -0.3826823 -0.92388
vn 0 0 -1
vn 0 0 -1
vn 0 0.3826824 -0.92388
vn 0 0.3826824 -0.92388
vn -1.214599E-06 0 -1
vn 1.214598E-07 0 -1
vn 1.518248E-07 0 -1
vn -6.072998E-07 0 -1
vn 1.457519E-06 0 -1
vn 0 0 -1
vn 7.287595E-07 0 -1
vn -4.858398E-07 0 -1
vn 0 0 -1
vn -9.716794E-07 0 -1
vn 4.858396E-07 0 -1
vn 0 0 -1
vn 9.716797E-07 0 -1
vn 9.716798E-07 0 -1
vn 4.858396E-07 0 -1
vn 4.858397E-07 0 -1
vn 0 0 -1
vn -1.214598E-06 0 -1
vn 1.214593E-07 0 -1
vn 1.518239E-07 0 -1
vn -6.072999E-07 0 -1
vn 1.457533E-06 0 -1
vn 0 0 -1
vn 7.287611E-07 0 -1
vn -4.858402E-07 0 -1
vn 0 0 -1
vn -9.716799E-07 0 -1
vn 4.858389E-07 0 -1
vn 0 0 -1
vn 9.716799E-07 0 -1
vn 9.71678E-07 0 -1
vn 4.858391E-07 0 -1
vn 4.85839E-07 0 -1
vn 0 0 -1
vn -1 0 0
vn -1 0 0
vn -1 0 0
vn -1 0 0
vn -1 0 0
vn -1 0 0
vn -1 0 0
vn -1 0 0
vn -1 0 0
vn -1 0 0
vn -1 0 0
vn -1 0 0
vn -1 0 0
vn -1 0 0
vn -1 0 0
vn -1 0 0
vn -1 0 0
vn 1 0 0
vn 1 4.247519E-06 0
vn 1 8.495043E-06 0
vn 1 4.247529E-06 0
vn 1 0 0
vn 1 0 0
vn 1 0 0
vn 1 0 0
vn 1 0 0
vn 1 0 0
vn 1 0 0
vn 1 0 0
vn 1 0 0
vn 1 0 0
vn 1 -4.247526E-06 0
vn 1 -4.247519E-06 0
vn 1 -8.495042E-06 0
vn -0.7139321 0.2679597 -0.6469147
vn -0.7139321 0 -0.700215
vn -0.7139321 0 -0.700215
vn -0.713932 0.2679597 -0.6469147
vn -0.7139322 -0.2679596 -0.6469147
vn -0.7139319 0.4951265 -0.4951273
vn -0.7139321 -0.2679596 -0.6469147
vn -0.7139319 0.4951268 -0.495127
vn -0.713932 -0.4951269 -0.4951268
vn -0.7139321 0.6469142 -0.2679607
vn -0.713932 -0.4951266 -0.4951271
vn -0.7139321 0.6469144 -0.2679603
vn -0.7139321 -0.6469144 -0.2679603
vn -0.7139324 0.7002147 -5.602393E-07
vn -0.7139321 -0.6469142 -0.2679607
vn -0.7139324 0.7002146 -4.562435E-07
vn -0.7139324 -0.7002146 1.545341E-07
vn -0.7139322 0.6469144 0.2679602
vn -0.7139324 -0.7002146 1.785377E-07
vn -0.7139322 0.6469145 0.2679599
vn -0.713932 -0.6469145 0.2679603
vn -0.7139319 0.4951266 0.4951272
vn -0.713932 -0.6469143 0.2679607
vn -0.7139319 0.4951269 0.4951269
vn -0.7139319 -0.4951268 0.4951269
vn -0.713932 0.2679597 0.6469147
vn -0.7139319 -0.4951265 0.4951272
vn -0.713932 0.2679597 0.6469147
vn -0.7139322 -0.2679595 0.6469147
vn -0.7139322 0 0.7002148
vn -0.7139322 -0.2679595 0.6469147
vn -0.7139321 0 0.7002149
vn 0.7139297 0.2679613 -0.6469166
vn 0.7139297 0.4951279 -0.495129
vn 0.7139297 0.4951282 -0.4951287
vn 0.7139297 0.2679613 -0.6469166
vn 0.7139298 0.6469165 -0.2679611
vn 0.7139299 0 -0.7002171
vn 0.7139298 0.6469164 -0.2679616
vn 0.7139299 0 -0.7002171
vn 0.7139291 0.700218 -4.488825E-07
vn 0.7139297 -0.2679613 -0.6469166
vn 0.7139291 0.700218 -5.417675E-07
vn 0.7139297 -0.2679613 -0.6469166
vn 0.7139298 0.6469166 0.2679607
vn 0.7139297 -0.4951282 -0.4951287
vn 0.7139298 0.6469165 0.2679611
vn 0.7139297 -0.4951284 -0.4951285
vn 0.7139297 0.4951284 0.4951286
vn 0.7139298 -0.6469164 -0.2679615
vn 0.7139297 0.4951281 0.4951288
vn 0.7139298 -0.6469165 -0.2679611
vn 0.7139295 0.2679613 0.6469167
vn 0.7139291 -0.700218 0
vn 0.7139295 0.2679613 0.6469169
vn 0.7139291 -0.700218 0
vn 0.7139298 0 0.7002173
vn 0.7139297 -0.6469164 0.2679615
vn 0.7139298 0 0.7002173
vn 0.7139298 -0.6469166 0.2679611
vn 0.7139297 -0.2679611 0.6469167
vn 0.7139297 -0.4951279 0.495129
vn 0.7139297 -0.2679611 0.6469167
vn 0.7139297 -0.4951282 0.4951287
usemtl HammeredMetal_Dark
f 507/507/653 506/506/652 505/505/651
f 506/506/652 508/508/654 505/505/651
f 505/505/651 508/508/654 509/509/655
f 508/508/654 510/510/656 509/509/655
f 509/509/655 510/510/656 511/511/657
f 510/510/656 512/512/658 511/511/657
f 511/511/657 512/512/658 513/513/659
f 512/512/658 514/514/660 513/513/659
f 513/513/659 514/514/660 515/515/661
f 514/514/660 516/516/662 515/515/661
f 515/515/661 516/516/662 517/517/663
f 516/516/662 518/518/664 517/517/663
f 521/521/667 520/520/666 519/519/665
f 522/522/668 521/521/667 519/519/665
f 523/523/669 521/521/667 522/522/668
f 524/524/670 523/523/669 522/522/668
f 527/527/673 526/526/672 525/525/671
f 528/528/674 527/527/673 525/525/671
f 529/529/675 527/527/673 528/528/674
f 530/530/676 529/529/675 528/528/674
f 531/531/677 529/529/675 530/530/676
f 532/532/678 531/531/677 530/530/676
f 533/533/679 531/531/677 532/532/678
f 534/534/680 533/533/679 532/532/678
f 535/535/681 533/533/679 534/534/680
f 536/536/682 535/535/681 534/534/680
f 537/537/683 535/535/681 536/536/682
f 538/538/684 537/537/683 536/536/682
f 541/541/687 540/540/686 539/539/685
f 542/542/688 541/541/687 539/539/685
f 543/543/689 541/541/687 542/542/688
f 544/544/690 543/543/689 542/542/688
f 547/547/693 546/546/692 545/545/691
f 546/546/692 548/548/694 545/545/691
f 545/545/691 548/548/694 549/549/695
f 548/548/694 550/550/696 549/549/695
f 549/549/695 550/550/696 551/551/697
f 550/550/696 552/552/698 551/551/697
f 551/551/697 552/552/698 553/553/699
f 552/552/698 554/554/700 553/553/699
f 553/553/699 554/554/700 555/555/701
f 554/554/700 556/556/702 555/555/701
f 555/555/701 556/556/702 557/557/703
f 556/556/702 558/558/704 557/557/703
f 561/561/707 560/560/706 559/559/705
f 562/562/708 561/561/707 559/559/705
f 563/563/709 561/561/707 562/562/708
f 564/564/710 563/563/709 562/562/708
f 567/567/713 566/566/712 565/565/711
f 568/568/714 567/567/713 565/565/711
f 569/569/715 567/567/713 568/568/714
f 570/570/716 569/569/715 568/568/714
f 571/571/717 569/569/715 570/570/716
f 572/572/718 571/571/717 570/570/716
f 573/573/719 571/571/717 572/572/718
f 574/574/720 573/573/719 572/572/718
f 575/575/721 573/573/719 574/574/720
f 576/576/722 575/575/721 574/574/720
f 577/577/723 575/575/721 576/576/722
f 578/578/724 577/577/723 576/576/722
f 581/581/727 580/580/726 579/579/725
f 582/582/728 581/581/727 579/579/725
f 583/583/729 581/581/727 582/582/728
f 584/584/730 583/583/729 582/582/728
f 587/587/733 586/586/732 585/585/731
f 588/588/734 587/587/733 585/585/731
f 589/589/735 587/587/733 588/588/734
f 590/590/736 589/589/735 588/588/734
f 591/591/737 589/589/735 590/590/736
f 592/592/738 591/591/737 590/590/736
f 593/593/739 591/591/737 592/592/738
f 594/594/740 593/593/739 592/592/738
f 595/595/741 593/593/739 594/594/740
f 596/596/742 595/595/741 594/594/740
f 597/597/743 595/595/741 596/596/742
f 598/598/744 597/597/743 596/596/742
f 601/601/747 600/600/746 599/599/745
f 602/602/748 601/601/747 599/599/745
f 603/603/749 601/601/747 602/602/748
f 604/604/750 603/603/749 602/602/748
f 607/607/753 606/606/752 605/605/751
f 608/608/754 607/607/753 605/605/751
f 609/609/755 607/607/753 608/608/754
f 610/610/756 609/609/755 608/608/754
f 611/611/757 609/609/755 610/610/756
f 612/612/758 611/611/757 610/610/756
f 613/613/759 611/611/757 612/612/758
f 614/614/760 613/613/759 612/612/758
f 615/615/761 613/613/759 614/614/760
f 616/616/762 615/615/761 614/614/760
f 617/617/763 615/615/761 616/616/762
f 618/618/764 617/617/763 616/616/762
f 621/621/767 620/620/766 619/619/765
f 622/622/768 621/621/767 619/619/765
f 623/623/769 621/621/767 622/622/768
f 624/624/770 623/623/769 622/622/768
f 627/627/773 626/626/772 625/625/771
f 628/628/774 627/627/773 625/625/771
f 626/626/772 627/627/773 629/629/775
f 627/627/773 628/628/774 630/630/776
f 627/627/773 631/631/777 629/629/775
f 632/632/778 627/627/773 630/630/776
f 631/631/777 627/627/773 633/633/779
f 627/627/773 632/632/778 634/634/780
f 627/627/773 635/635/781 633/633/779
f 636/636/782 627/627/773 634/634/780
f 635/635/781 627/627/773 637/637/783
f 627/627/773 636/636/782 638/638/784
f 627/627/773 639/639/785 637/637/783
f 640/640/786 627/627/773 638/638/784
f 639/639/785 627/627/773 641/641/787
f 627/627/773 640/640/786 641/641/787
f 644/644/790 643/643/789 642/642/788
f 645/645/791 644/644/790 642/642/788
f 643/643/789 644/644/790 646/646/792
f 644/644/790 645/645/791 647/647/793
f 644/644/790 648/648/794 646/646/792
f 649/649/795 644/644/790 647/647/793
f 648/648/794 644/644/790 650/650/796
f 644/644/790 649/649/795 651/651/797
f 644/644/790 652/652/798 650/650/796
f 653/653/799 644/644/790 651/651/797
f 652/652/798 644/644/790 654/654/800
f 644/644/790 653/653/799 655/655/801
f 644/644/790 656/656/802 654/654/800
f 657/657/803 644/644/790 655/655/801
f 656/656/802 644/644/790 658/658/804
f 644/644/790 657/657/803 658/658/804
f 661/661/807 660/660/806 659/659/805
f 662/662/808 661/661/807 659/659/805
f 660/660/806 661/661/807 663/663/809
f 661/661/807 662/662/808 664/664/810
f 661/661/807 665/665/811 663/663/809
f 666/666/812 661/661/807 664/664/810
f 665/665/811 661/661/807 667/667/813
f 661/661/807 666/666/812 668/668/814
f 661/661/807 669/669/815 667/667/813
f 670/670/816 661/661/807 668/668/814
f 669/669/815 661/661/807 671/671/817
f 661/661/807 670/670/816 672/672/818
f 661/661/807 673/673/819 671/671/817
f 674/674/820 661/661/807 672/672/818
f 673/673/819 661/661/807 675/675/821
f 661/661/807 674/674/820 675/675/821
f 678/678/824 677/677/823 676/676/822
f 679/679/825 678/678/824 676/676/822
f 677/677/823 680/680/826 676/676/822
f 681/681/827 679/679/825 676/676/822
f 680/680/826 682/682/828 676/676/822
f 683/683/829 681/681/827 676/676/822
f 682/682/828 684/684/830 676/676/822
f 685/685/831 683/683/829 676/676/822
f 684/684/830 686/686/832 676/676/822
f 687/687/833 685/685/831 676/676/822
f 686/686/832 688/688/834 676/676/822
f 689/689/835 687/687/833 676/676/822
f 688/688/834 690/690/836 676/676/822
f 691/691/837 689/689/835 676/676/822
f 690/690/836 692/692/838 676/676/822
f 692/692/838 691/691/837 676/676/822
f 695/695/841 694/694/840 693/693/839
f 696/696/842 695/695/841 693/693/839
f 694/694/840 695/695/841 697/697/843
f 693/693/839 698/698/844 696/696/842
f 699/699/845 694/694/840 697/697/843
f 698/698/844 700/700/846 696/696/842
f 699/699/845 697/697/843 701/701/847
f 698/698/844 702/702/848 700/700/846
f 703/703/849 699/699/845 701/701/847
f 702/702/848 704/704/850 700/700/846
f 703/703/849 701/701/847 705/705/851
f 702/702/848 706/706/852 704/704/850
f 707/707/853 703/703/849 705/705/851
f 706/706/852 708/708/854 704/704/850
f 707/707/853 705/705/851 709/709/855
f 706/706/852 710/710/856 708/708/854
f 711/711/857 707/707/853 709/709/855
f 710/710/856 712/712/858 708/708/854
f 711/711/857 709/709/855 713/713/859
f 710/710/856 714/714/860 712/712/858
f 715/715/861 711/711/857 713/713/859
f 714/714/860 716/716/862 712/712/858
f 715/715/861 713/713/859 717/717/863
f 714/714/860 718/718/864 716/716/862
f 719/719/865 715/715/861 717/717/863
f 718/718/864 720/720/866 716/716/862
f 719/719/865 717/717/863 721/721/867
f 718/718/864 722/722/868 720/720/866
f 723/723/869 719/719/865 721/721/867
f 722/722/868 724/724/870 720/720/866
f 723/723/869 721/721/867 724/724/870
f 722/722/868 723/723/869 724/724/870
f 727/727/873 726/726/872 725/725/871
f 728/728/874 727/727/873 725/725/871
f 727/727/873 729/729/875 726/726/872
f 725/725/871 730/730/876 728/728/874
f 729/729/875 731/731/877 726/726/872
f 730/730/876 732/732/878 728/728/874
f 729/729/875 733/733/879 731/731/877
f 732/732/878 730/730/876 734/734/880
f 733/733/879 735/735/881 731/731/877
f 736/736/882 732/732/878 734/734/880
f 733/733/879 737/737/883 735/735/881
f 736/736/882 734/734/880 738/738/884
f 737/737/883 739/739/885 735/735/881
f 740/740/886 736/736/882 738/738/884
f 737/737/883 741/741/887 739/739/885
f 740/740/886 738/738/884 742/742/888
f 741/741/887 743/743/889 739/739/885
f 744/744/890 740/740/886 742/742/888
f 741/741/887 745/745/891 743/743/889
f 744/744/890 742/742/888 746/746/892
f 745/745/891 747/747/893 743/743/889
f 748/748/894 744/744/890 746/746/892
f 745/745/891 749/749/895 747/747/893
f 748/748/894 746/746/892 750/750/896
f 749/749/895 751/751/897 747/747/893
f 752/752/898 748/748/894 750/750/896
f 749/749/895 753/753/899 751/751/897
f 752/752/898 750/750/896 754/754/900
f 753/753/899 755/755/901 751/751/897
f 756/756/902 752/752/898 754/754/900
f 756/756/902 754/754/900 755/755/901
f 753/753/899 756/756/902 755/755/901
