mtllib material.mtl
usemtl material_0
v 0.00011052 0.01276501 -0.00025231
v 0.00002750 0.01163819 -0.00022134
v 0.00082768 0.01163819 -0.00057884
v 0.00102264 0.01276501 -0.00065982
v 0.00133919 0.01424033 -0.00056460
v 0.00056395 0.01433079 -0.00021590
v 0.00256754 0.01790581 -0.00056460
v 0.00183922 0.01818641 -0.00021590
v -0.00151205 0.01419991 0.00021590
v -0.00271943 0.01778045 0.00021590
v -0.00199111 0.01806105 0.00056461
v -0.00073680 0.01429037 0.00056460
v -0.00125665 0.01276501 0.00025231
v -0.00034453 0.01276501 0.00065982
v -0.00117189 0.01163819 0.00022134
v -0.00037171 0.01163819 0.00057884
v -0.00199111 0.01806105 0.00056461
v -0.00352234 0.02196395 -0.00021590
v -0.00166572 0.01818641 -0.00021590
v -0.00381601 0.02177593 0.00056461
v -0.00569559 0.02551587 -0.00020760
v -0.00597798 0.02533508 0.00054292
v -0.00730640 0.02787199 -0.00020760
v -0.00760320 0.02771596 0.00054291
v -0.00902241 0.03186704 -0.00020760
v -0.00935059 0.03179828 0.00054292
v -0.00116569 0.01424033 -0.00056460
v -0.00239404 0.01790581 -0.00056460
v -0.00271943 0.01778045 0.00021590
v -0.00151205 0.01419991 0.00021590
v -0.00084914 0.01276501 -0.00065982
v -0.00125665 0.01276501 0.00025231
v -0.00081439 0.01163819 -0.00057884
v -0.00117189 0.01163819 0.00022134
v -0.00073680 0.01429037 0.00056460
v -0.00199111 0.01806105 0.00056461
v -0.00166572 0.01818641 -0.00021590
v -0.00039045 0.01433079 -0.00021590
v -0.00034453 0.01276501 0.00065982
v 0.00006298 0.01276501 -0.00025231
v -0.00037171 0.01163819 0.00057884
v -0.00001421 0.01163819 -0.00022134
v -0.00039045 0.01433079 -0.00021590
v -0.00166572 0.01818641 -0.00021590
v -0.00239404 0.01790581 -0.00056460
v -0.00116569 0.01424033 -0.00056460
v 0.00006298 0.01276501 -0.00025231
v -0.00084914 0.01276501 -0.00065982
v -0.00001421 0.01163819 -0.00022134
v -0.00081439 0.01163819 -0.00057884
v -0.00447335 0.02135510 0.00021590
v -0.00661006 0.02493042 0.00020761
v -0.00597798 0.02533508 0.00054292
v -0.00381601 0.02177593 0.00056461
v -0.00271943 0.01778045 0.00021590
v -0.00199111 0.01806105 0.00056461
v -0.00166572 0.01818641 -0.00021590
v -0.00417967 0.02154312 -0.00056460
v -0.00239404 0.01790581 -0.00056460
v -0.00352234 0.02196395 -0.00021590
v -0.00632767 0.02511121 -0.00054291
v -0.00569559 0.02551587 -0.00020760
v -0.00797071 0.02752274 -0.00054291
v -0.00730640 0.02787199 -0.00020760
v -0.00239404 0.01790581 -0.00056460
v -0.00447335 0.02135510 0.00021590
v -0.00271943 0.01778045 0.00021590
v -0.00417967 0.02154312 -0.00056460
v -0.00661006 0.02493042 0.00020761
v -0.00632767 0.02511121 -0.00054291
v -0.00826750 0.02736671 0.00020761
v -0.00797071 0.02752274 -0.00054291
v -0.01008516 0.03164439 0.00020761
v -0.00975698 0.03171314 -0.00054291
v -0.00661006 0.02493042 0.00020761
v -0.00760320 0.02771596 0.00054291
v -0.00597798 0.02533508 0.00054292
v -0.00826750 0.02736671 0.00020761
v -0.00935059 0.03179828 0.00054292
v -0.01008516 0.03164439 0.00020761
v -0.01008516 0.03164439 0.00020761
v -0.01011417 0.03604557 0.00054292
v -0.00935059 0.03179828 0.00054292
v -0.01086466 0.03605203 0.00020761
v -0.00972110 0.04136883 0.00054291
v -0.01046711 0.04145088 0.00020760
v -0.00730640 0.02787199 -0.00020760
v -0.00902241 0.03186704 -0.00020760
v -0.00975698 0.03171314 -0.00054291
v -0.00797071 0.02752274 -0.00054291
v -0.01052936 0.03604914 -0.00054291
v -0.01013382 0.04141422 -0.00054292
v -0.01046711 0.04145088 0.00020760
v -0.01086466 0.03605203 0.00020761
v -0.00975698 0.03171314 -0.00054291
v -0.01008516 0.03164439 0.00020761
v -0.00935059 0.03179828 0.00054292
v -0.00977887 0.03604268 -0.00020760
v -0.00902241 0.03186704 -0.00020760
v -0.01011417 0.03604557 0.00054292
v -0.00938780 0.04133218 -0.00020761
v -0.00972110 0.04136883 0.00054291
v -0.00902241 0.03186704 -0.00020760
v -0.01052936 0.03604914 -0.00054291
v -0.00975698 0.03171314 -0.00054291
v -0.00977887 0.03604268 -0.00020760
v -0.01013382 0.04141422 -0.00054292
v -0.00938780 0.04133218 -0.00020761
v -0.00972110 0.04136883 0.00054291
v -0.00805332 0.04514474 -0.00021972
v -0.00938780 0.04133218 -0.00020761
v -0.00834326 0.04534933 0.00057455
v -0.00595408 0.04753955 -0.00021972
v -0.00616185 0.04782722 0.00057455
v -0.00938780 0.04133218 -0.00020761
v -0.00870229 0.04560268 -0.00057457
v -0.01013382 0.04141422 -0.00054292
v -0.00805332 0.04514474 -0.00021972
v -0.00641914 0.04818343 -0.00057457
v -0.00595408 0.04753955 -0.00021972
v -0.00358080 0.04982670 -0.00057457
v -0.00343640 0.04904567 -0.00021971
v -0.01046711 0.04145088 0.00020760
v -0.00834326 0.04534933 0.00057455
v -0.00972110 0.04136883 0.00054291
v -0.00899223 0.04580727 0.00021970
v -0.00616185 0.04782722 0.00057455
v -0.00662692 0.04847110 0.00021970
v -0.00350091 0.04939462 0.00057455
v -0.00364531 0.05017564 0.00021970
v -0.01013382 0.04141422 -0.00054292
v -0.00899223 0.04580727 0.00021970
v -0.01046711 0.04145088 0.00020760
v -0.00870229 0.04560268 -0.00057457
v -0.00662692 0.04847110 0.00021970
v -0.00641914 0.04818343 -0.00057457
v -0.00616185 0.04782722 0.00057455
v -0.00350091 0.04939462 0.00057455
v -0.00343640 0.04904567 -0.00021971
v -0.00595408 0.04753955 -0.00021972
v -0.00343640 0.04904567 -0.00021971
v 0.00008675 0.05048202 -0.00057458
v -0.00358080 0.04982670 -0.00057457
v 0.00008675 0.04968776 -0.00021972
v 0.00360990 0.04904567 -0.00021971
v 0.00375430 0.04982670 -0.00057457
v 0.00612758 0.04753955 -0.00021972
v 0.00659264 0.04818343 -0.00057457
v -0.00641914 0.04818343 -0.00057457
v -0.00358080 0.04982670 -0.00057457
v -0.00364531 0.05017564 0.00021970
v -0.00662692 0.04847110 0.00021970
v 0.00008675 0.05048202 -0.00057458
v 0.00008675 0.05083688 0.00021969
v 0.00008675 0.05004262 0.00057454
v 0.00008675 0.04968776 -0.00021972
v -0.00364531 0.05017564 0.00021970
v 0.00008675 0.05004262 0.00057454
v -0.00350091 0.04939462 0.00057455
v 0.00008675 0.05083688 0.00021969
v 0.00381881 0.05017564 0.00021970
v 0.00367441 0.04939462 0.00057455
v -0.00358080 0.04982670 -0.00057457
v 0.00008675 0.05083688 0.00021969
v -0.00364531 0.05017564 0.00021970
v 0.00008675 0.05048202 -0.00057458
v 0.00375430 0.04982670 -0.00057457
v 0.00381881 0.05017564 0.00021970
v -0.00350091 0.04939462 0.00057455
v 0.00008675 0.04968776 -0.00021972
v -0.00343640 0.04904567 -0.00021971
v 0.00008675 0.05004262 0.00057454
v 0.00367441 0.04939462 0.00057455
v 0.00360990 0.04904567 -0.00021971
v 0.00051803 0.01276501 0.00065982
v 0.00038499 0.01163819 0.00057884
v 0.00002750 0.01163819 -0.00022134
v 0.00011052 0.01276501 -0.00025231
v 0.00056395 0.01433079 -0.00021590
v 0.00091030 0.01429037 0.00056460
v 0.00183922 0.01818641 -0.00021590
v 0.00216461 0.01806105 0.00056461
v 0.00168555 0.01419991 0.00021590
v 0.00216461 0.01806105 0.00056461
v 0.00289293 0.01778045 0.00021590
v 0.00091030 0.01429037 0.00056460
v 0.00143015 0.01276501 0.00025231
v 0.00051803 0.01276501 0.00065982
v 0.00038499 0.01163819 0.00057884
v 0.00118518 0.01163819 0.00022134
v 0.00216461 0.01806105 0.00056461
v 0.00183922 0.01818641 -0.00021590
v 0.00369584 0.02196395 -0.00021590
v 0.00398951 0.02177593 0.00056461
v 0.00586909 0.02551587 -0.00020760
v 0.00615148 0.02533508 0.00054292
v 0.00747990 0.02787199 -0.00020760
v 0.00777670 0.02771596 0.00054291
v 0.00919591 0.03186704 -0.00020760
v 0.00952409 0.03179828 0.00054292
v 0.00133919 0.01424033 -0.00056460
v 0.00289293 0.01778045 0.00021590
v 0.00256754 0.01790581 -0.00056460
v 0.00168555 0.01419991 0.00021590
v 0.00102264 0.01276501 -0.00065982
v 0.00143015 0.01276501 0.00025231
v 0.00118518 0.01163819 0.00022134
v 0.00082768 0.01163819 -0.00057884
v 0.00464685 0.02135510 0.00021590
v 0.00615148 0.02533508 0.00054292
v 0.00678356 0.02493042 0.00020761
v 0.00398951 0.02177593 0.00056461
v 0.00289293 0.01778045 0.00021590
v 0.00216461 0.01806105 0.00056461
v 0.00183922 0.01818641 -0.00021590
v 0.00256754 0.01790581 -0.00056460
v 0.00435317 0.02154312 -0.00056460
v 0.00369584 0.02196395 -0.00021590
v 0.00650117 0.02511121 -0.00054291
v 0.00586909 0.02551587 -0.00020760
v 0.00814421 0.02752274 -0.00054291
v 0.00747990 0.02787199 -0.00020760
v 0.00256754 0.01790581 -0.00056460
v 0.00289293 0.01778045 0.00021590
v 0.00464685 0.02135510 0.00021590
v 0.00435317 0.02154312 -0.00056460
v 0.00678356 0.02493042 0.00020761
v 0.00650117 0.02511121 -0.00054291
v 0.00844100 0.02736671 0.00020761
v 0.00814421 0.02752274 -0.00054291
v 0.01025866 0.03164439 0.00020761
v 0.00993048 0.03171314 -0.00054291
v 0.00678356 0.02493042 0.00020761
v 0.00615148 0.02533508 0.00054292
v 0.00777670 0.02771596 0.00054291
v 0.00844100 0.02736671 0.00020761
v 0.00952409 0.03179828 0.00054292
v 0.01025866 0.03164439 0.00020761
v 0.01025866 0.03164439 0.00020761
v 0.00952409 0.03179828 0.00054292
v 0.01028767 0.03604557 0.00054292
v 0.01103816 0.03605203 0.00020761
v 0.00989460 0.04136883 0.00054291
v 0.01064061 0.04145088 0.00020760
v 0.00747990 0.02787199 -0.00020760
v 0.00814421 0.02752274 -0.00054291
v 0.00993048 0.03171314 -0.00054291
v 0.00919591 0.03186704 -0.00020760
v 0.01070286 0.03604914 -0.00054291
v 0.01064061 0.04145088 0.00020760
v 0.01030732 0.04141422 -0.00054292
v 0.01103816 0.03605203 0.00020761
v 0.00993048 0.03171314 -0.00054291
v 0.01025866 0.03164439 0.00020761
v 0.00952409 0.03179828 0.00054292
v 0.00919591 0.03186704 -0.00020760
v 0.00995237 0.03604268 -0.00020760
v 0.01028767 0.03604557 0.00054292
v 0.00956130 0.04133218 -0.00020761
v 0.00989460 0.04136883 0.00054291
v 0.00919591 0.03186704 -0.00020760
v 0.00993048 0.03171314 -0.00054291
v 0.01070286 0.03604914 -0.00054291
v 0.00995237 0.03604268 -0.00020760
v 0.01030732 0.04141422 -0.00054292
v 0.00956130 0.04133218 -0.00020761
v 0.00989460 0.04136883 0.00054291
v 0.00956130 0.04133218 -0.00020761
v 0.00822682 0.04514474 -0.00021972
v 0.00851676 0.04534933 0.00057455
v 0.00612758 0.04753955 -0.00021972
v 0.00633535 0.04782722 0.00057455
v 0.00956130 0.04133218 -0.00020761
v 0.01030732 0.04141422 -0.00054292
v 0.00887579 0.04560268 -0.00057457
v 0.00822682 0.04514474 -0.00021972
v 0.00659264 0.04818343 -0.00057457
v 0.00612758 0.04753955 -0.00021972
v 0.01064061 0.04145088 0.00020760
v 0.00989460 0.04136883 0.00054291
v 0.00851676 0.04534933 0.00057455
v 0.00916573 0.04580727 0.00021970
v 0.00633535 0.04782722 0.00057455
v 0.00680041 0.04847110 0.00021970
v 0.00367441 0.04939462 0.00057455
v 0.00381881 0.05017564 0.00021970
v 0.01030732 0.04141422 -0.00054292
v 0.01064061 0.04145088 0.00020760
v 0.00916573 0.04580727 0.00021970
v 0.00887579 0.04560268 -0.00057457
v 0.00680041 0.04847110 0.00021970
v 0.00659264 0.04818343 -0.00057457
v 0.00633535 0.04782722 0.00057455
v 0.00612758 0.04753955 -0.00021972
v 0.00360990 0.04904567 -0.00021971
v 0.00367441 0.04939462 0.00057455
v 0.00659264 0.04818343 -0.00057457
v 0.00680041 0.04847110 0.00021970
v 0.00381881 0.05017564 0.00021970
v 0.00375430 0.04982670 -0.00057457
v -0.00081439 0.01163819 -0.00057884
v -0.00117189 0.01163819 0.00022134
v -0.00037171 0.01163819 0.00057884
v -0.00001421 0.01163819 -0.00022134
v 0.00082768 0.01163819 -0.00057884
v 0.00002750 0.01163819 -0.00022134
v 0.00038499 0.01163819 0.00057884
v 0.00118518 0.01163819 0.00022134
v -0.00617099 0.02502069 -0.00046997
v -0.00577344 0.02553455 -0.00017971
v -0.00595105 0.02530497 0.00046998
v -0.00634860 0.02479112 0.00017972
v -0.00350705 0.02367567 0.00046998
v -0.00139015 0.02244606 0.00017972
v -0.00375028 0.02307324 0.00017972
v -0.00146229 0.02309173 0.00046998
v 0.00013967 0.02229184 0.00017972
v 0.00013967 0.02294108 0.00046998
v 0.00174163 0.02309173 0.00046998
v 0.00166949 0.02244606 0.00017972
v 0.00378640 0.02367567 0.00046998
v 0.00402962 0.02307324 0.00017972
v -0.00595105 0.02530497 0.00046998
v -0.00350705 0.02367567 0.00046998
v -0.00375028 0.02307324 0.00017972
v -0.00634860 0.02479112 0.00017972
v -0.00634860 0.02479112 0.00017972
v -0.00375028 0.02307324 0.00017972
v -0.00364162 0.02334238 -0.00046997
v -0.00617099 0.02502069 -0.00046997
v -0.00577344 0.02553455 -0.00017971
v -0.00350705 0.02367567 0.00046998
v -0.00595105 0.02530497 0.00046998
v -0.00339839 0.02394482 -0.00017971
v -0.00146229 0.02309173 0.00046998
v -0.00149452 0.02338019 -0.00017970
v 0.00013967 0.02294108 0.00046998
v 0.00013967 0.02323114 -0.00017970
v 0.00177386 0.02338019 -0.00017970
v 0.00174163 0.02309173 0.00046998
v 0.00367773 0.02394482 -0.00017971
v 0.00378640 0.02367567 0.00046998
v 0.00598088 0.02553455 -0.00017971
v 0.00615849 0.02530497 0.00046998
v -0.00617099 0.02502069 -0.00046997
v -0.00364162 0.02334238 -0.00046997
v -0.00339839 0.02394482 -0.00017971
v -0.00577344 0.02553455 -0.00017971
v -0.00375028 0.02307324 0.00017972
v -0.00142238 0.02273453 -0.00046996
v -0.00364162 0.02334238 -0.00046997
v -0.00139015 0.02244606 0.00017972
v 0.00013967 0.02258190 -0.00046996
v 0.00013967 0.02229184 0.00017972
v 0.00166949 0.02244606 0.00017972
v 0.00170172 0.02273453 -0.00046996
v 0.00402962 0.02307324 0.00017972
v 0.00392096 0.02334238 -0.00046997
v -0.00364162 0.02334238 -0.00046997
v -0.00149452 0.02338019 -0.00017970
v -0.00339839 0.02394482 -0.00017971
v -0.00142238 0.02273453 -0.00046996
v 0.00013967 0.02323114 -0.00017970
v 0.00013967 0.02258190 -0.00046996
v 0.00170172 0.02273453 -0.00046996
v 0.00177386 0.02338019 -0.00017970
v 0.00392096 0.02334238 -0.00046997
v 0.00367773 0.02394482 -0.00017971
v 0.00013967 0.02258190 -0.00046996
v 0.00013967 0.02229184 0.00017972
v 0.00013967 0.02294108 0.00046998
v 0.00013967 0.02323114 -0.00017970
v 0.00637843 0.02502069 -0.00046997
v 0.00655604 0.02479112 0.00017972
v 0.00615849 0.02530497 0.00046998
v 0.00598088 0.02553455 -0.00017971
v 0.00615849 0.02530497 0.00046998
v 0.00655604 0.02479112 0.00017972
v 0.00402962 0.02307324 0.00017972
v 0.00378640 0.02367567 0.00046998
v 0.00655604 0.02479112 0.00017972
v 0.00637843 0.02502069 -0.00046997
v 0.00392096 0.02334238 -0.00046997
v 0.00402962 0.02307324 0.00017972
v 0.00637843 0.02502069 -0.00046997
v 0.00598088 0.02553455 -0.00017971
v 0.00367773 0.02394482 -0.00017971
v 0.00392096 0.02334238 -0.00046997
v 0.00000000 0.01260513 0.00100886
v -0.00098371 0.01230372 0.00092390
v -0.00099590 0.01260513 0.00075665
v 0.00000000 0.01230372 0.00123187
v 0.00000000 0.01213358 0.00130620
v -0.00097965 0.01213358 0.00097965
v -0.00098769 0.01204976 0.00098769
v 0.00098371 0.01230372 0.00092390
v 0.00099590 0.01260513 0.00075665
v 0.00097965 0.01213358 0.00097965
v 0.00098769 0.01204976 0.00098769
v 0.00000000 0.01204976 0.00131692
v 0.00000000 0.01200732 0.00134908
v -0.00101181 0.01200732 0.00101181
v 0.00101181 0.01200732 0.00101181
v -0.00103593 0.01193264 0.00103593
v 0.00103593 0.01193264 0.00103593
v 0.00000000 0.01193264 0.00138125
v 0.00000000 0.01175213 0.00139197
v -0.00104397 0.01175213 0.00104397
v 0.00104397 0.01175213 0.00104397
v -0.00104555 0.01157208 0.00104555
v 0.00104555 0.01157208 0.00104555
v 0.00000000 0.01157208 0.00139407
v -0.00132786 0.01260513 0.00000000
v -0.00098371 0.01230372 -0.00092390
v -0.00099590 0.01260513 -0.00075665
v -0.00131162 0.01230372 0.00000000
v -0.00130620 0.01213358 0.00000000
v -0.00097965 0.01213358 -0.00097965
v -0.00098769 0.01204976 -0.00098769
v -0.00098371 0.01230372 0.00092390
v -0.00099590 0.01260513 0.00075665
v -0.00097965 0.01213358 0.00097965
v -0.00098769 0.01204976 0.00098769
v -0.00131692 0.01204976 0.00000000
v -0.00134908 0.01200732 0.00000000
v -0.00101181 0.01200732 -0.00101181
v -0.00101181 0.01200732 0.00101181
v -0.00103593 0.01193264 -0.00103593
v -0.00103593 0.01193264 0.00103593
v -0.00138125 0.01193264 0.00000000
v -0.00139197 0.01175213 0.00000000
v -0.00104397 0.01175213 -0.00104397
v -0.00104397 0.01175213 0.00104397
v -0.00104555 0.01157208 -0.00104555
v -0.00104555 0.01157208 0.00104555
v -0.00139407 0.01157208 0.00000000
v 0.00132786 0.01260513 0.00000000
v 0.00098371 0.01230372 0.00092390
v 0.00099590 0.01260513 0.00075665
v 0.00131162 0.01230372 0.00000000
v 0.00130620 0.01213358 0.00000000
v 0.00097965 0.01213358 0.00097965
v 0.00098769 0.01204976 0.00098769
v 0.00098371 0.01230372 -0.00092390
v 0.00099590 0.01260513 -0.00075665
v 0.00097965 0.01213358 -0.00097965
v 0.00098769 0.01204976 -0.00098769
v 0.00131692 0.01204976 0.00000000
v 0.00134908 0.01200732 0.00000000
v 0.00101181 0.01200732 0.00101181
v 0.00101181 0.01200732 -0.00101181
v 0.00103593 0.01193264 0.00103593
v 0.00103593 0.01193264 -0.00103593
v 0.00138125 0.01193264 0.00000000
v 0.00139197 0.01175213 0.00000000
v 0.00104397 0.01175213 0.00104397
v 0.00104397 0.01175213 -0.00104397
v 0.00104555 0.01157208 0.00104555
v 0.00104555 0.01157208 -0.00104555
v 0.00139407 0.01157208 0.00000000
v 0.00000000 0.01260513 -0.00100886
v 0.00098371 0.01230372 -0.00092390
v 0.00099590 0.01260513 -0.00075665
v 0.00000000 0.01230372 -0.00123187
v 0.00000000 0.01213358 -0.00130620
v 0.00097965 0.01213358 -0.00097965
v 0.00098769 0.01204976 -0.00098769
v -0.00098371 0.01230372 -0.00092390
v -0.00099590 0.01260513 -0.00075665
v -0.00097965 0.01213358 -0.00097965
v -0.00098769 0.01204976 -0.00098769
v 0.00000000 0.01204976 -0.00131692
v 0.00000000 0.01200732 -0.00134908
v 0.00101181 0.01200732 -0.00101181
v -0.00101181 0.01200732 -0.00101181
v 0.00103593 0.01193264 -0.00103593
v -0.00103593 0.01193264 -0.00103593
v 0.00000000 0.01193264 -0.00138125
v 0.00000000 0.01175213 -0.00139197
v 0.00104397 0.01175213 -0.00104397
v -0.00104397 0.01175213 -0.00104397
v 0.00104555 0.01157208 -0.00104555
v -0.00104555 0.01157208 -0.00104555
v 0.00000000 0.01157208 -0.00139407
v 0.00000000 0.01260513 0.00100886
v 0.00074252 0.01280904 0.00049441
v 0.00099590 0.01260513 0.00075665
v 0.00132786 0.01260513 0.00000000
v 0.00000000 0.01288041 0.00060798
v 0.00000000 0.01297217 0.00000000
v -0.00074252 0.01280904 0.00049441
v -0.00099590 0.01260513 0.00075665
v -0.00132786 0.01260513 0.00000000
v 0.00100673 0.01288041 0.00000000
v 0.00074252 0.01280904 -0.00049441
v 0.00099590 0.01260513 -0.00075665
v 0.00000000 0.01260513 -0.00100886
v -0.00100673 0.01288041 0.00000000
v -0.00074252 0.01280904 -0.00049441
v -0.00099590 0.01260513 -0.00075665
v 0.00000000 0.01288041 -0.00060798
vn -0.92217710 0.15943380 -0.35237810
vn -0.78346180 -0.55499410 -0.27958760
vn 0.23127610 -0.62107000 -0.74885480
vn 0.33430100 -0.06506569 -0.94021770
vn 0.33210480 -0.06067124 -0.94128910
vn -0.89353750 0.28327810 -0.34834480
vn 0.30561650 -0.12564640 -0.94382800
vn -0.86804850 0.35484310 -0.34724380
vn -0.90257820 -0.22858970 0.36482790
vn -0.86003890 -0.35408700 0.36736300
vn 0.35460080 0.14530120 0.92365900
vn 0.35503220 0.13529250 0.92501250
vn -0.91962640 -0.11673490 0.37504690
vn 0.39464450 0.04214710 0.91786670
vn -0.74214510 -0.60697380 0.28425950
vn 0.28538400 -0.60537660 0.74301760
vn 0.35460080 0.14530120 0.92365900
vn 0.81984070 0.45251010 -0.35085020
vn 0.86804850 0.35484310 -0.34724380
vn 0.32725570 0.18097790 0.92744310
vn 0.78542260 0.50839590 -0.35305110
vn 0.30781690 0.20151840 0.92985960
vn 0.81329720 0.44691820 -0.37257430
vn 0.27857620 0.15293010 0.94816020
vn 0.88686170 0.26945530 -0.37532690
vn 0.29865700 0.08700909 0.95038590
vn -0.33210480 -0.06067124 -0.94128910
vn -0.30561650 -0.12564640 -0.94382800
vn -0.86003890 -0.35408700 0.36736300
vn -0.90257820 -0.22858970 0.36482790
vn -0.31074400 -0.03759935 -0.94974970
vn -0.91962640 -0.11673490 0.37504690
vn -0.28294730 -0.60624160 -0.74324420
vn -0.74214510 -0.60697380 0.28425950
vn 0.35503220 0.13529250 0.92501250
vn 0.35460080 0.14530120 0.92365900
vn 0.86804850 0.35484310 -0.34724380
vn 0.89353750 0.28327810 -0.34834480
vn 0.39464450 0.04214710 0.91786670
vn 0.93460570 0.09469963 -0.34284740
vn 0.28538400 -0.60537660 0.74301760
vn 0.74412270 -0.60464930 -0.28404360
vn 0.89353750 0.28327810 -0.34834480
vn 0.86804850 0.35484310 -0.34724380
vn -0.30561650 -0.12564640 -0.94382800
vn -0.33210480 -0.06067124 -0.94128910
vn 0.93460570 0.09469963 -0.34284740
vn -0.31074400 -0.03759935 -0.94974970
vn 0.74412270 -0.60464930 -0.28404360
vn -0.28294730 -0.60624160 -0.74324420
vn -0.81920590 -0.44329660 0.36385420
vn -0.78611180 -0.50152090 0.36125500
vn 0.30781690 0.20151840 0.92985960
vn 0.32725570 0.18097790 0.92744310
vn -0.86003890 -0.35408700 0.36736300
vn 0.35460080 0.14530120 0.92365900
vn 0.86804850 0.35484310 -0.34724380
vn -0.29906170 -0.16135720 -0.94049240
vn -0.30561650 -0.12564640 -0.94382800
vn 0.81984070 0.45251010 -0.35085020
vn -0.29307350 -0.18463970 -0.93809170
vn 0.78542260 0.50839590 -0.35305110
vn -0.34593280 -0.18918720 -0.91898790
vn 0.81329720 0.44691820 -0.37257430
vn -0.30561650 -0.12564640 -0.94382800
vn -0.81920590 -0.44329660 0.36385420
vn -0.86003890 -0.35408700 0.36736300
vn -0.29906170 -0.16135720 -0.94049240
vn -0.78611180 -0.50152090 0.36125500
vn -0.29307350 -0.18463970 -0.93809170
vn -0.82446860 -0.44987940 0.34330730
vn -0.34593280 -0.18918720 -0.91898790
vn -0.90184910 -0.26500020 0.34123770
vn -0.38270910 -0.11655230 -0.91648750
vn -0.78611180 -0.50152090 0.36125500
vn 0.27857620 0.15293010 0.94816020
vn 0.30781690 0.20151840 0.92985960
vn -0.82446860 -0.44987940 0.34330730
vn 0.29865700 0.08700909 0.95038590
vn -0.90184910 -0.26500020 0.34123770
vn -0.90184910 -0.26500020 0.34123770
vn 0.30562170 0.01373375 0.95205400
vn 0.29865700 0.08700909 0.95038590
vn -0.93940230 -0.04562576 0.33976690
vn 0.29783300 -0.06039671 0.95270550
vn -0.92284000 0.18281010 0.33903800
vn 0.81329720 0.44691820 -0.37257430
vn 0.88686170 0.26945530 -0.37532690
vn -0.38270910 -0.11655230 -0.91648750
vn -0.34593280 -0.18918720 -0.91898790
vn -0.40352200 -0.02285872 -0.91468440
vn -0.39805880 0.08246223 -0.91364610
vn -0.92284000 0.18281010 0.33903800
vn -0.93940230 -0.04562576 0.33976690
vn -0.38270910 -0.11655230 -0.91648750
vn -0.90184910 -0.26500020 0.34123770
vn 0.29865700 0.08700909 0.95038590
vn 0.92454560 0.05099742 -0.37764340
vn 0.88686170 0.26945530 -0.37532690
vn 0.30562170 0.01373375 0.95205400
vn 0.90529890 -0.19422590 -0.37777000
vn 0.29783300 -0.06039671 0.95270550
vn 0.88686170 0.26945530 -0.37532690
vn -0.40352200 -0.02285872 -0.91468440
vn -0.38270910 -0.11655230 -0.91648750
vn 0.92454560 0.05099742 -0.37764340
vn -0.39805880 0.08246223 -0.91364610
vn 0.90529890 -0.19422590 -0.37777000
vn 0.29783300 -0.06039671 0.95270550
vn 0.79743840 -0.46062760 -0.38976180
vn 0.90529890 -0.19422590 -0.37777000
vn 0.23426200 -0.14633740 0.96109660
vn 0.59174130 -0.70945470 -0.38277470
vn 0.18558790 -0.22532400 0.95644460
vn 0.90529890 -0.19422590 -0.37777000
vn -0.37467840 0.20899220 -0.90329310
vn -0.39805880 0.08246223 -0.91364610
vn 0.79743840 -0.46062760 -0.38976180
vn -0.26484350 0.32215810 -0.90888500
vn 0.59174130 -0.70945470 -0.38277470
vn -0.15201590 0.39351400 -0.90666310
vn 0.33187080 -0.86031870 -0.38692830
vn -0.92284000 0.18281010 0.33903800
vn 0.23426200 -0.14633740 0.96109660
vn 0.29783300 -0.06039671 0.95270550
vn -0.81364950 0.47787410 0.33107540
vn 0.18558790 -0.22532400 0.95644460
vn -0.59284600 0.73235180 0.33495420
vn 0.09152655 -0.26865890 0.95887710
vn -0.31389520 0.88882540 0.33385510
vn -0.39805880 0.08246223 -0.91364610
vn -0.81364950 0.47787410 0.33107540
vn -0.92284000 0.18281010 0.33903800
vn -0.37467840 0.20899220 -0.90329310
vn -0.59284600 0.73235180 0.33495420
vn -0.26484350 0.32215810 -0.90888500
vn 0.18558790 -0.22532400 0.95644460
vn 0.09152655 -0.26865890 0.95887710
vn 0.33187080 -0.86031870 -0.38692830
vn 0.59174130 -0.70945470 -0.38277470
vn 0.33187080 -0.86031870 -0.38692830
vn -0.34279170 0.39668860 -0.85154690
vn -0.15201590 0.39351400 -0.90666310
vn -0.31520230 -0.87492440 -0.36763430
vn -0.33187080 -0.86031870 -0.38692830
vn 0.15201590 0.39351400 -0.90666310
vn -0.59174130 -0.70945470 -0.38277470
vn 0.26484350 0.32215810 -0.90888500
vn -0.26484350 0.32215810 -0.90888500
vn -0.15201590 0.39351400 -0.90666310
vn -0.31389520 0.88882540 0.33385510
vn -0.59284600 0.73235180 0.33495420
vn -0.34279170 0.39668860 -0.85154690
vn -0.35984540 0.87966950 0.31095450
vn -0.32548200 -0.26810690 0.90674140
vn -0.31520230 -0.87492440 -0.36763430
vn -0.31389520 0.88882540 0.33385510
vn -0.32548200 -0.26810690 0.90674140
vn 0.09152655 -0.26865890 0.95887710
vn -0.35984540 0.87966950 0.31095450
vn 0.31389520 0.88882540 0.33385510
vn -0.09152655 -0.26865890 0.95887710
vn -0.15201590 0.39351400 -0.90666310
vn -0.35984540 0.87966950 0.31095450
vn -0.31389520 0.88882540 0.33385510
vn -0.34279170 0.39668860 -0.85154690
vn 0.15201590 0.39351400 -0.90666310
vn 0.31389520 0.88882540 0.33385510
vn 0.09152655 -0.26865890 0.95887710
vn -0.31520230 -0.87492440 -0.36763430
vn 0.33187080 -0.86031870 -0.38692830
vn -0.32548200 -0.26810690 0.90674140
vn -0.09152655 -0.26865890 0.95887710
vn -0.33187080 -0.86031870 -0.38692830
vn -0.36598780 0.06293085 0.92848940
vn -0.33634970 -0.58309570 0.73950540
vn -0.78346180 -0.55499410 -0.27958760
vn -0.92217710 0.15943380 -0.35237810
vn -0.89353750 0.28327810 -0.34834480
vn -0.35503220 0.13529250 0.92501250
vn -0.86804850 0.35484310 -0.34724380
vn -0.35460080 0.14530120 0.92365900
vn 0.90257820 -0.22858970 0.36482790
vn -0.35460080 0.14530120 0.92365900
vn 0.86003890 -0.35408700 0.36736300
vn -0.35503220 0.13529250 0.92501250
vn 0.91430650 -0.17728840 0.36416000
vn -0.36598780 0.06293085 0.92848940
vn -0.33634970 -0.58309570 0.73950540
vn 0.69895980 -0.65427910 0.28874590
vn -0.35460080 0.14530120 0.92365900
vn -0.86804850 0.35484310 -0.34724380
vn -0.81984070 0.45251010 -0.35085020
vn -0.32725570 0.18097790 0.92744310
vn -0.78542260 0.50839590 -0.35305110
vn -0.30781690 0.20151840 0.92985960
vn -0.81329720 0.44691820 -0.37257430
vn -0.27857620 0.15293010 0.94816020
vn -0.88686170 0.26945530 -0.37532690
vn -0.29865700 0.08700909 0.95038590
vn 0.33210480 -0.06067124 -0.94128910
vn 0.86003890 -0.35408700 0.36736300
vn 0.30561650 -0.12564640 -0.94382800
vn 0.90257820 -0.22858970 0.36482790
vn 0.33430100 -0.06506569 -0.94021770
vn 0.91430650 -0.17728840 0.36416000
vn 0.69895980 -0.65427910 0.28874590
vn 0.23127610 -0.62107000 -0.74885480
vn 0.81920590 -0.44329660 0.36385420
vn -0.30781690 0.20151840 0.92985960
vn 0.78611180 -0.50152090 0.36125500
vn -0.32725570 0.18097790 0.92744310
vn 0.86003890 -0.35408700 0.36736300
vn -0.35460080 0.14530120 0.92365900
vn -0.86804850 0.35484310 -0.34724380
vn 0.30561650 -0.12564640 -0.94382800
vn 0.29906170 -0.16135720 -0.94049240
vn -0.81984070 0.45251010 -0.35085020
vn 0.29307350 -0.18463970 -0.93809170
vn -0.78542260 0.50839590 -0.35305110
vn 0.34593280 -0.18918720 -0.91898790
vn -0.81329720 0.44691820 -0.37257430
vn 0.30561650 -0.12564640 -0.94382800
vn 0.86003890 -0.35408700 0.36736300
vn 0.81920590 -0.44329660 0.36385420
vn 0.29906170 -0.16135720 -0.94049240
vn 0.78611180 -0.50152090 0.36125500
vn 0.29307350 -0.18463970 -0.93809170
vn 0.82446860 -0.44987940 0.34330730
vn 0.34593280 -0.18918720 -0.91898790
vn 0.90184910 -0.26500020 0.34123770
vn 0.38270910 -0.11655230 -0.91648750
vn 0.78611180 -0.50152090 0.36125500
vn -0.30781690 0.20151840 0.92985960
vn -0.27857620 0.15293010 0.94816020
vn 0.82446860 -0.44987940 0.34330730
vn -0.29865700 0.08700909 0.95038590
vn 0.90184910 -0.26500020 0.34123770
vn 0.90184910 -0.26500020 0.34123770
vn -0.29865700 0.08700909 0.95038590
vn -0.30562170 0.01373375 0.95205400
vn 0.93940230 -0.04562576 0.33976690
vn -0.29783300 -0.06039671 0.95270550
vn 0.92284000 0.18281010 0.33903800
vn -0.81329720 0.44691820 -0.37257430
vn 0.34593280 -0.18918720 -0.91898790
vn 0.38270910 -0.11655230 -0.91648750
vn -0.88686170 0.26945530 -0.37532690
vn 0.40352200 -0.02285872 -0.91468440
vn 0.92284000 0.18281010 0.33903800
vn 0.39805880 0.08246223 -0.91364610
vn 0.93940230 -0.04562576 0.33976690
vn 0.38270910 -0.11655230 -0.91648750
vn 0.90184910 -0.26500020 0.34123770
vn -0.29865700 0.08700909 0.95038590
vn -0.88686170 0.26945530 -0.37532690
vn -0.92454560 0.05099742 -0.37764340
vn -0.30562170 0.01373375 0.95205400
vn -0.90529890 -0.19422590 -0.37777000
vn -0.29783300 -0.06039671 0.95270550
vn -0.88686170 0.26945530 -0.37532690
vn 0.38270910 -0.11655230 -0.91648750
vn 0.40352200 -0.02285872 -0.91468440
vn -0.92454560 0.05099742 -0.37764340
vn 0.39805880 0.08246223 -0.91364610
vn -0.90529890 -0.19422590 -0.37777000
vn -0.29783300 -0.06039671 0.95270550
vn -0.90529890 -0.19422590 -0.37777000
vn -0.79743840 -0.46062760 -0.38976180
vn -0.23426200 -0.14633740 0.96109660
vn -0.59174130 -0.70945470 -0.38277470
vn -0.18558790 -0.22532400 0.95644460
vn -0.90529890 -0.19422590 -0.37777000
vn 0.39805880 0.08246223 -0.91364610
vn 0.37467840 0.20899220 -0.90329310
vn -0.79743840 -0.46062760 -0.38976180
vn 0.26484350 0.32215810 -0.90888500
vn -0.59174130 -0.70945470 -0.38277470
vn 0.92284000 0.18281010 0.33903800
vn -0.29783300 -0.06039671 0.95270550
vn -0.23426200 -0.14633740 0.96109660
vn 0.81364950 0.47787410 0.33107540
vn -0.18558790 -0.22532400 0.95644460
vn 0.59284600 0.73235180 0.33495420
vn -0.09152655 -0.26865890 0.95887710
vn 0.31389520 0.88882540 0.33385510
vn 0.39805880 0.08246223 -0.91364610
vn 0.92284000 0.18281010 0.33903800
vn 0.81364950 0.47787410 0.33107540
vn 0.37467840 0.20899220 -0.90329310
vn 0.59284600 0.73235180 0.33495420
vn 0.26484350 0.32215810 -0.90888500
vn -0.18558790 -0.22532400 0.95644460
vn -0.59174130 -0.70945470 -0.38277470
vn -0.33187080 -0.86031870 -0.38692830
vn -0.09152655 -0.26865890 0.95887710
vn 0.26484350 0.32215810 -0.90888500
vn 0.59284600 0.73235180 0.33495420
vn 0.31389520 0.88882540 0.33385510
vn 0.15201590 0.39351400 -0.90666310
vn -0.28294730 -0.60624160 -0.74324420
vn -0.74214510 -0.60697380 0.28425950
vn 0.28538400 -0.60537660 0.74301760
vn 0.74412270 -0.60464930 -0.28404360
vn 0.23127610 -0.62107000 -0.74885480
vn -0.78346180 -0.55499410 -0.27958760
vn -0.33634970 -0.58309570 0.73950540
vn 0.69895980 -0.65427910 0.28874590
vn -0.64292820 0.09653385 -0.75981870
vn -0.01986797 0.95555480 -0.29414360
vn -0.30092220 0.56952440 0.76491030
vn -0.91467420 -0.28233740 0.28923480
vn 0.12442580 0.26575910 0.95597610
vn -0.16150740 -0.92424210 0.34596510
vn -0.38588170 -0.85959680 0.33494550
vn 0.05206496 0.31480070 0.94772880
vn 0.34609300 -0.88128590 0.32179940
vn 0.33016100 0.30116740 0.89459040
vn -0.05206496 0.31480070 0.94772880
vn 0.16150740 -0.92424210 0.34596510
vn -0.12470220 0.26237520 0.95687440
vn 0.39122180 -0.85748960 0.33415140
vn -0.30092220 0.56952440 0.76491030
vn 0.12442580 0.26575910 0.95597610
vn -0.38588170 -0.85959680 0.33494550
vn -0.91467420 -0.28233740 0.28923480
vn -0.91467420 -0.28233740 0.28923480
vn -0.38588170 -0.85959680 0.33494550
vn -0.17173000 -0.37931980 -0.90918940
vn -0.64292820 0.09653385 -0.75981870
vn -0.01986797 0.95555480 -0.29414360
vn 0.12442580 0.26575910 0.95597610
vn -0.30092220 0.56952440 0.76491030
vn 0.39106940 0.83740870 -0.38185270
vn 0.05206496 0.31480070 0.94772880
vn 0.18183210 0.91007590 -0.37242310
vn 0.33016100 0.30116740 0.89459040
vn 0.32210280 0.87896170 -0.35167620
vn -0.18183210 0.91007590 -0.37242310
vn -0.05206496 0.31480070 0.94772880
vn -0.39711170 0.83395890 -0.38316450
vn -0.12470220 0.26237520 0.95687440
vn 0.01330648 0.95580850 -0.29368880
vn 0.29680100 0.57254360 0.76426630
vn -0.64292820 0.09653385 -0.75981870
vn -0.17173000 -0.37931980 -0.90918940
vn 0.39106940 0.83740870 -0.38185270
vn -0.01986797 0.95555480 -0.29414360
vn -0.38588170 -0.85959680 0.33494550
vn -0.07751885 -0.38255860 -0.92067360
vn -0.17173000 -0.37931980 -0.90918940
vn -0.16150740 -0.92424210 0.34596510
vn 0.33942950 -0.37098590 -0.86438240
vn 0.34609300 -0.88128590 0.32179940
vn 0.16150740 -0.92424210 0.34596510
vn 0.07751885 -0.38255860 -0.92067360
vn 0.39122180 -0.85748960 0.33415140
vn 0.17554410 -0.38014200 -0.90811700
vn -0.17173000 -0.37931980 -0.90918940
vn 0.18183210 0.91007590 -0.37242310
vn 0.39106940 0.83740870 -0.38185270
vn -0.07751885 -0.38255860 -0.92067360
vn 0.32210280 0.87896170 -0.35167620
vn 0.33942950 -0.37098590 -0.86438240
vn 0.07751885 -0.38255860 -0.92067360
vn -0.18183210 0.91007590 -0.37242310
vn 0.17554410 -0.38014200 -0.90811700
vn -0.39711170 0.83395890 -0.38316450
vn 0.33942950 -0.37098590 -0.86438240
vn 0.34609300 -0.88128590 0.32179940
vn 0.33016100 0.30116740 0.89459040
vn 0.32210280 0.87896170 -0.35167620
vn 0.64176080 0.10159890 -0.76014530
vn 0.91614660 -0.27702000 0.28971580
vn 0.29680100 0.57254360 0.76426630
vn 0.01330648 0.95580850 -0.29368880
vn 0.29680100 0.57254360 0.76426630
vn 0.91614660 -0.27702000 0.28971580
vn 0.39122180 -0.85748960 0.33415140
vn -0.12470220 0.26237520 0.95687440
vn 0.91614660 -0.27702000 0.28971580
vn 0.64176080 0.10159890 -0.76014530
vn 0.17554410 -0.38014200 -0.90811700
vn 0.39122180 -0.85748960 0.33415140
vn 0.64176080 0.10159890 -0.76014530
vn 0.01330648 0.95580850 -0.29368880
vn -0.39711170 0.83395890 -0.38316450
vn 0.17554410 -0.38014200 -0.90811700
vn 0.00000000 0.68777510 0.72592380
vn -0.66595090 0.28162750 0.69079320
vn -0.60626830 0.55136390 0.57309380
vn 0.00000000 0.44109930 0.89745830
vn 0.00000000 0.23627600 0.97168600
vn -0.67343280 0.18042850 0.71689180
vn -0.63984890 0.42566050 0.63984890
vn 0.66595090 0.28162750 0.69079320
vn 0.60626830 0.55136390 0.57309380
vn 0.67343280 0.18042850 0.71689180
vn 0.63983640 0.42565220 0.63986690
vn 0.00000000 0.39766570 0.91753040
vn 0.00000000 0.49309570 0.86997500
vn -0.60834540 0.50973690 0.60834540
vn 0.60834540 0.50973690 0.60834540
vn -0.68784350 0.23182450 0.68784350
vn 0.68784350 0.23182450 0.68784350
vn 0.00000000 0.22343060 0.97471990
vn 0.00000000 0.03531053 0.99937650
vn -0.70661320 0.03735562 0.70661320
vn 0.70661320 0.03735562 0.70661320
vn -0.70614430 0.05215665 0.70614430
vn 0.70614430 0.05215665 0.70614430
vn 0.00000000 0.04901365 0.99879810
vn -0.88769400 0.46043380 0.00000000
vn -0.66595090 0.28162750 -0.69079320
vn -0.60626830 0.55136390 -0.57309380
vn -0.99898340 0.04507679 0.00000000
vn -0.99692900 0.07831139 0.00000000
vn -0.67343280 0.18042850 -0.71689180
vn -0.63984890 0.42566050 -0.63984890
vn -0.66595090 0.28162750 0.69079320
vn -0.60626830 0.55136390 0.57309380
vn -0.67343280 0.18042850 0.71689180
vn -0.63984890 0.42566050 0.63984890
vn -0.91753040 0.39766570 0.00000000
vn -0.86997500 0.49309570 0.00000000
vn -0.60834540 0.50973690 -0.60834540
vn -0.60834540 0.50973690 0.60834540
vn -0.68784350 0.23182450 -0.68784350
vn -0.68784350 0.23182450 0.68784350
vn -0.97471990 0.22343060 0.00000000
vn -0.99937650 0.03531053 0.00000000
vn -0.70661320 0.03735562 -0.70661320
vn -0.70661320 0.03735562 0.70661320
vn -0.70614430 0.05215665 -0.70614430
vn -0.70614430 0.05215665 0.70614430
vn -0.99879810 0.04901365 0.00000000
vn 0.88769400 0.46043380 0.00000000
vn 0.66595090 0.28162750 0.69079320
vn 0.60626830 0.55136390 0.57309380
vn 0.99898340 0.04507679 0.00000000
vn 0.99692900 0.07831139 0.00000000
vn 0.67343280 0.18042850 0.71689180
vn 0.63983640 0.42565220 0.63986690
vn 0.66595090 0.28162750 -0.69079320
vn 0.60626830 0.55136390 -0.57309380
vn 0.67343280 0.18042850 -0.71689180
vn 0.63984890 0.42566050 -0.63984890
vn 0.91753040 0.39766570 0.00000000
vn 0.86997500 0.49309570 0.00000000
vn 0.60834540 0.50973690 0.60834540
vn 0.60834540 0.50973690 -0.60834540
vn 0.68784350 0.23182450 0.68784350
vn 0.68784350 0.23182450 -0.68784350
vn 0.97471990 0.22343060 0.00000000
vn 0.99937650 0.03531053 0.00000000
vn 0.70661320 0.03735562 0.70661320
vn 0.70661320 0.03735562 -0.70661320
vn 0.70614430 0.05215665 0.70614430
vn 0.70614430 0.05215665 -0.70614430
vn 0.99879810 0.04901365 0.00000000
vn 0.00000000 0.68777510 -0.72592380
vn 0.66595090 0.28162750 -0.69079320
vn 0.60626830 0.55136390 -0.57309380
vn 0.00000000 0.44109930 -0.89745830
vn 0.00000000 0.23627600 -0.97168600
vn 0.67343280 0.18042850 -0.71689180
vn 0.63984890 0.42566050 -0.63984890
vn -0.66595090 0.28162750 -0.69079320
vn -0.60626830 0.55136390 -0.57309380
vn -0.67343280 0.18042850 -0.71689180
vn -0.63984890 0.42566050 -0.63984890
vn 0.00000000 0.39766570 -0.91753040
vn 0.00000000 0.49309570 -0.86997500
vn 0.60834540 0.50973690 -0.60834540
vn -0.60834540 0.50973690 -0.60834540
vn 0.68784350 0.23182450 -0.68784350
vn -0.68784350 0.23182450 -0.68784350
vn 0.00000000 0.22343060 -0.97471990
vn 0.00000000 0.03531053 -0.99937650
vn 0.70661320 0.03735562 -0.70661320
vn -0.70661320 0.03735562 -0.70661320
vn 0.70614430 0.05215665 -0.70614430
vn -0.70614430 0.05215665 -0.70614430
vn 0.00000000 0.04901365 -0.99879810
vn 0.00000000 0.68777510 0.72592380
vn 0.25648340 0.90162900 0.34825470
vn 0.60626830 0.55136390 0.57309380
vn 0.88769400 0.46043380 0.00000000
vn 0.00000000 0.92543850 0.37889780
vn 0.00000000 1.00000000 0.00000000
vn -0.25648340 0.90162900 0.34825470
vn -0.60626830 0.55136390 0.57309380
vn -0.88769400 0.46043380 0.00000000
vn 0.39278080 0.91963210 0.00000000
vn 0.25648340 0.90162900 -0.34825470
vn 0.60626830 0.55136390 -0.57309380
vn 0.00000000 0.68777510 -0.72592380
vn -0.39278080 0.91963210 0.00000000
vn -0.25648340 0.90162900 -0.34825470
vn -0.60626830 0.55136390 -0.57309380
vn 0.00000000 0.92543850 -0.37889780
vt 0.49726490 0.62864980
vt 0.49034640 0.53474850
vt 0.55702830 0.53474850
vt 0.57327510 0.62864980
vt 0.59965420 0.75159340
vt 0.53505070 0.75913180
vt 0.70201630 1.05705000
vt 0.64132300 1.08043300
vt 0.36205120 0.74822530
vt 0.26143610 1.04660300
vt 0.32212930 1.06998600
vt 0.42665470 0.75576380
vt 0.38333410 0.62864980
vt 0.45934430 0.62864980
vt 0.39039760 0.53474850
vt 0.45707950 0.53474850
vt 0.06998646 0.54705060
vt 0.39522840 0.48200860
vt 0.08043337 0.48200870
vt 0.37956050 0.54705050
vt 0.69122200 0.48269990
vt 0.67615600 0.54524310
vt 0.88756510 0.48269970
vt 0.87456230 0.54524290
vt 1.22048600 0.48269990
vt 1.21475600 0.54524310
vt 0.75159340 0.45294970
vt 1.05705000 0.45295000
vt 1.04660300 0.51799190
vt 0.74822530 0.51799160
vt 0.62864980 0.44501540
vt 0.62864980 0.52102560
vt 0.53474850 0.45176330
vt 0.53474850 0.51844530
vt 0.75576380 0.54705030
vt 1.06998600 0.54705060
vt 1.08043300 0.48200870
vt 0.75913180 0.48200840
vt 0.62864980 0.55498460
vt 0.62864980 0.47897440
vt 0.53474850 0.54823670
vt 0.53474850 0.48155480
vt 0.45551760 0.75913180
vt 0.34924520 1.08043300
vt 0.28855200 1.05705000
vt 0.39091410 0.75159340
vt 0.49330330 0.62864980
vt 0.41729310 0.62864980
vt 0.48687090 0.53474850
vt 0.42018910 0.53474850
vt 0.11527600 0.34449120
vt -0.06278348 0.64243410
vt -0.01011014 0.67615600
vt 0.17005370 0.37956050
vt 0.26143610 0.04660320
vt 0.32212930 0.06998646
vt 0.34924520 0.08043337
vt 0.13974910 0.36015920
vt 0.28855200 0.05705011
vt 0.19452670 0.39522840
vt -0.03925061 0.65750000
vt 0.01342270 0.69122200
vt -0.17617070 0.85846110
vt -0.12081200 0.88756510
vt 0.05705011 0.45295000
vt 0.34449120 0.51799180
vt 0.04660320 0.51799190
vt 0.36015920 0.45294990
vt 0.64243410 0.51730070
vt 0.65750000 0.45475750
vt 0.84545830 0.51730050
vt 0.85846110 0.45475720
vt 1.20193100 0.51730070
vt 1.20766100 0.45475750
vt 0.93721650 0.64243410
vt 0.85445540 0.87456230
vt 0.98988990 0.67615600
vt 0.79909660 0.84545830
vt 0.70883900 1.21475600
vt 0.64762500 1.20193100
vt 0.64762500 0.20193120
vt 0.64520740 0.56869670
vt 0.70883900 0.21475600
vt 0.58266660 0.56923530
vt 0.67796360 1.01230200
vt 0.61579540 1.01913900
vt 0.87918800 0.88756510
vt 0.73618760 1.22048600
vt 0.67497360 1.20766100
vt 0.82382930 0.85846110
vt 0.56899450 0.45475750
vt 1.01608400 0.45475680
vt 1.01913900 0.51730010
vt 0.56923530 0.51730080
vt 0.20766090 0.45475750
vt 0.20193120 0.51730070
vt 0.21475600 0.54524310
vt 0.56845620 0.48270000
vt 0.22048590 0.48269990
vt 0.56869670 0.54524320
vt 1.00924700 0.48269920
vt 1.01230200 0.54524250
vt 0.73618760 0.22048590
vt 0.61060800 0.56899450
vt 0.67497360 0.20766090
vt 0.67314880 0.56845620
vt 0.64357030 1.01608400
vt 0.70573860 1.00924700
vt 0.01230168 0.54524250
vt 0.32696080 0.48169030
vt 0.00924730 0.48269920
vt 0.34401010 0.54787930
vt 0.52652840 0.48169040
vt 0.55050060 0.54787950
vt 0.70573860 0.00924730
vt 0.76286420 0.36512210
vt 0.64357030 0.01608396
vt 0.81694480 0.32696080
vt 0.95312650 0.58018520
vt 0.99188150 0.52652840
vt 1.18965500 0.71712420
vt 1.20168900 0.65203880
vt 0.61579540 0.01913881
vt 0.79278310 0.34401010
vt 0.67796360 0.01230168
vt 0.73870270 0.38217140
vt 0.97456700 0.55050060
vt 0.93581190 0.60415720
vt 1.19631300 0.68111730
vt 1.18427900 0.74620270
vt 0.01608396 0.45475680
vt 0.38217140 0.51830810
vt 0.01913881 0.51730010
vt 0.36512210 0.45211900
vt 0.60415720 0.51830820
vt 0.58018520 0.45211910
vt 0.97456700 0.54787950
vt 1.19631300 0.54787950
vt 1.20168900 0.48169050
vt 0.99188150 0.48169040
vt 0.20168860 0.65203880
vt 0.49528410 0.77173400
vt 0.18965490 0.71712420
vt 0.49528410 0.70554570
vt 0.78887970 0.65203880
vt 0.80091330 0.71712420
vt 0.99868670 0.52652840
vt 1.03744200 0.58018520
vt 0.95312650 0.45211910
vt 1.18965500 0.45211920
vt 1.18427900 0.51830830
vt 0.93581190 0.51830820
vt 0.77173400 0.45211840
vt 0.80130600 0.51830740
vt 0.73511770 0.54787870
vt 0.70554570 0.48168960
vt 0.18427880 0.74620270
vt 0.49528410 0.73511770
vt 0.19631250 0.68111730
vt 0.49528410 0.80130600
vt 0.80628940 0.74620270
vt 0.79425570 0.68111730
vt 0.18965490 0.45211920
vt 0.49528410 0.51830740
vt 0.18427880 0.51830830
vt 0.49528410 0.45211840
vt 0.80091330 0.45211920
vt 0.80628940 0.51830830
vt 0.19631250 0.54787950
vt 0.49528410 0.48168960
vt 0.20168860 0.48169050
vt 0.49528410 0.54787870
vt 0.79425570 0.54787950
vt 0.78887970 0.48169050
vt 0.62864980 0.55498460
vt 0.53474850 0.54823670
vt 0.53474850 0.48155480
vt 0.62864980 0.47897440
vt 0.75913180 0.48200840
vt 0.75576380 0.54705030
vt 1.08043300 0.48200870
vt 1.06998600 0.54705060
vt 0.62851710 0.74822530
vt 0.66843890 1.06998600
vt 0.72913210 1.04660300
vt 0.56391350 0.75576380
vt 0.60723420 0.62864980
vt 0.53122400 0.62864980
vt 0.52013780 0.53474850
vt 0.58681970 0.53474850
vt 0.06998646 0.54705060
vt 0.08043337 0.48200870
vt 0.39522840 0.48200860
vt 0.37956050 0.54705050
vt 0.69122200 0.48269990
vt 0.67615600 0.54524310
vt 0.88756510 0.48269970
vt 0.87456230 0.54524290
vt 1.22048600 0.48269990
vt 1.21475600 0.54524310
vt 0.75159340 0.45294970
vt 1.04660300 0.51799190
vt 1.05705000 0.45295000
vt 0.74822530 0.51799160
vt 0.62864980 0.44501540
vt 0.62864980 0.52102560
vt 0.53474850 0.51844530
vt 0.53474850 0.45176330
vt 0.87529220 0.34449120
vt 1.00067800 0.67615600
vt 1.05335200 0.64243410
vt 0.82051460 0.37956050
vt 0.72913210 0.04660320
vt 0.66843890 0.06998646
vt 0.64132300 0.08043337
vt 0.70201630 0.05705011
vt 0.85081920 0.36015920
vt 0.79604150 0.39522840
vt 1.02981900 0.65750000
vt 0.97714560 0.69122200
vt 1.16673900 0.85846110
vt 1.11138000 0.88756510
vt 0.05705011 0.45295000
vt 0.04660320 0.51799190
vt 0.34449120 0.51799180
vt 0.36015920 0.45294990
vt 0.64243410 0.51730070
vt 0.65750000 0.45475750
vt 0.84545830 0.51730050
vt 0.85846110 0.45475720
vt 1.20193100 0.51730070
vt 1.20766100 0.45475750
vt 0.05335164 0.64243410
vt 0.00067830 0.67615600
vt 0.13611290 0.87456230
vt 0.19147160 0.84545830
vt 0.28172920 1.21475600
vt 0.34294320 1.20193100
vt 0.34294320 0.20193120
vt 0.28172920 0.21475600
vt 0.34536080 0.56869670
vt 0.40790150 0.56923530
vt 0.31260470 1.01230200
vt 0.37477280 1.01913900
vt 0.11138010 0.88756510
vt 0.16673900 0.85846110
vt 0.31559470 1.20766100
vt 0.25438050 1.22048600
vt 0.56899450 0.45475750
vt 1.01913900 0.51730010
vt 1.01608400 0.45475680
vt 0.56923530 0.51730080
vt 0.20766090 0.45475750
vt 0.20193120 0.51730070
vt 0.21475600 0.54524310
vt 0.22048590 0.48269990
vt 0.56845620 0.48270000
vt 0.56869670 0.54524320
vt 1.00924700 0.48269920
vt 1.01230200 0.54524250
vt 0.25438050 0.22048590
vt 0.31559470 0.20766090
vt 0.37996010 0.56899450
vt 0.31741930 0.56845620
vt 0.34699800 1.01608400
vt 0.28482960 1.00924700
vt 0.01230168 0.54524250
vt 0.00924730 0.48269920
vt 0.32696080 0.48169030
vt 0.34401010 0.54787930
vt 0.52652840 0.48169040
vt 0.55050060 0.54787950
vt 0.28482960 0.00924730
vt 0.34699800 0.01608396
vt 0.22770400 0.36512210
vt 0.17362330 0.32696080
vt 0.03744173 0.58018520
vt -0.00131327 0.52652840
vt 0.37477280 0.01913881
vt 0.31260470 0.01230168
vt 0.19778510 0.34401010
vt 0.25186560 0.38217140
vt 0.01600122 0.55050060
vt 0.05475616 0.60415720
vt -0.20574430 0.68111730
vt -0.19371060 0.74620270
vt 0.01608396 0.45475680
vt 0.01913881 0.51730010
vt 0.38217140 0.51830810
vt 0.36512210 0.45211900
vt 0.60415720 0.51830820
vt 0.58018520 0.45211910
vt 0.01600122 0.54787950
vt -0.00131327 0.48169040
vt -0.21112030 0.48169050
vt -0.20574430 0.54787950
vt 0.03744173 0.45211910
vt 0.05475616 0.51830820
vt -0.19371060 0.51830830
vt -0.19908670 0.45211920
vt 0.42018910 0.45176330
vt 0.39039760 0.51844530
vt 0.45707950 0.54823670
vt 0.48687090 0.48155480
vt 0.55702830 0.45176330
vt 0.49034640 0.48155480
vt 0.52013780 0.54823670
vt 0.58681970 0.51844530
vt 0.64995690 0.46083590
vt 0.69277810 0.48502420
vt 0.67364690 0.53916480
vt 0.63082580 0.51497640
vt 0.19580040 0.53787170
vt 0.37220930 0.43540450
vt 0.17553120 0.48766880
vt 0.36619750 0.48921000
vt 0.49969410 0.42255290
vt 0.49969410 0.47665570
vt 0.63319080 0.48921000
vt 0.62717890 0.43540450
vt 0.80358780 0.53787170
vt 0.82385690 0.48766880
vt 0.99213370 0.67364690
vt 1.19580000 0.53787170
vt 1.17553100 0.48766880
vt 0.95900480 0.63082580
vt 0.95900480 0.51497640
vt 1.17553100 0.51497660
vt 1.18458700 0.46083610
vt 0.97380580 0.46083590
vt 0.00693482 0.48502420
vt 0.19580040 0.53916500
vt -0.00786626 0.53916480
vt 0.20485610 0.48502440
vt 0.36619750 0.53916520
vt 0.36351170 0.48502460
vt 0.49969410 0.53916530
vt 0.49969410 0.48502470
vt 0.63587650 0.48502460
vt 0.63319080 0.53916520
vt 0.79453210 0.48502440
vt 0.80358780 0.53916500
vt 0.98646130 0.48502420
vt 1.00126200 0.53916480
vt 0.97380580 0.64995690
vt 1.18458700 0.51009790
vt 1.20485600 0.56030080
vt 1.00693500 0.69277810
vt 0.17553120 0.51497660
vt 0.36952340 0.46083630
vt 0.18458690 0.46083610
vt 0.37220930 0.51497690
vt 0.49969410 0.46083640
vt 0.49969410 0.51497690
vt 0.62717890 0.51497690
vt 0.62986480 0.46083630
vt 0.82385690 0.51497660
vt 0.81480130 0.46083610
vt 0.18458690 0.51009790
vt 0.36351170 0.51324870
vt 0.20485610 0.56030080
vt 0.36952340 0.45944310
vt 0.49969410 0.50082720
vt 0.49969410 0.44672430
vt 0.62986480 0.45944310
vt 0.63587650 0.51324870
vt 0.81480130 0.51009790
vt 0.79453210 0.56030080
vt 0.44672430 0.46083640
vt 0.42255290 0.51497690
vt 0.47665570 0.53916530
vt 0.50082720 0.48502470
vt 0.64995690 0.46083590
vt 0.63082580 0.51497640
vt 0.67364690 0.53916480
vt 0.69277810 0.48502420
vt 0.00126243 0.67364690
vt 0.03439140 0.63082580
vt -0.17614310 0.48766880
vt -0.19641220 0.53787170
vt 0.03439140 0.51497640
vt 0.01959038 0.46083590
vt -0.18519870 0.46083610
vt -0.17614310 0.51497660
vt 0.01959038 0.64995690
vt -0.01353872 0.69277810
vt -0.20546790 0.56030080
vt -0.18519870 0.51009790
vt 0.48805490 0.61532640
vt 0.40607890 0.59020900
vt 0.40506340 0.61532640
vt 0.48805490 0.59020900
vt 0.48805490 0.57603090
vt 0.40641740 0.57603090
vt 0.40574740 0.56904610
vt 0.57003100 0.59020900
vt 0.57104650 0.61532640
vt 0.56969250 0.57603090
vt 0.57036250 0.56904610
vt 0.48805490 0.56904610
vt 0.48805490 0.56550910
vt 0.40373720 0.56550910
vt 0.57237270 0.56550910
vt 0.40172700 0.55928590
vt 0.57438280 0.55928590
vt 0.48805490 0.55928590
vt 0.48805490 0.54424340
vt 0.40105700 0.54424340
vt 0.57505290 0.54424340
vt 0.40092580 0.52923880
vt 0.57518410 0.52923880
vt 0.48805490 0.52923880
vt 0.61532640 0.50000000
vt 0.59020900 0.42300830
vt 0.61532640 0.43694600
vt 0.59020900 0.50000000
vt 0.57603090 0.50000000
vt 0.57603090 0.41836250
vt 0.56904610 0.41769240
vt 0.59020900 0.57699170
vt 0.61532640 0.56305400
vt 0.57603090 0.58163750
vt 0.56904610 0.58230760
vt 0.56904610 0.50000000
vt 0.56550910 0.50000000
vt 0.56550910 0.41568230
vt 0.56550910 0.58431770
vt 0.55928590 0.41367210
vt 0.55928590 0.58632790
vt 0.55928590 0.50000000
vt 0.54424340 0.50000000
vt 0.54424340 0.41300200
vt 0.54424340 0.58699800
vt 0.52923880 0.41287090
vt 0.52923880 0.58712910
vt 0.52923880 0.50000000
vt 0.61532640 0.50000000
vt 0.59020900 0.57699170
vt 0.61532640 0.56305400
vt 0.59020900 0.50000000
vt 0.57603090 0.50000000
vt 0.57603090 0.58163750
vt 0.56904610 0.58230760
vt 0.59020900 0.42300830
vt 0.61532640 0.43694600
vt 0.57603090 0.41836250
vt 0.56904610 0.41769240
vt 0.56904610 0.50000000
vt 0.56550910 0.50000000
vt 0.56550910 0.58431770
vt 0.56550910 0.41568230
vt 0.55928590 0.58632790
vt 0.55928590 0.41367210
vt 0.55928590 0.50000000
vt 0.54424340 0.50000000
vt 0.54424340 0.58699800
vt 0.54424340 0.41300200
vt 0.52923880 0.58712910
vt 0.52923880 0.41287090
vt 0.52923880 0.50000000
vt 0.48805490 0.61532640
vt 0.57003100 0.59020900
vt 0.57104650 0.61532640
vt 0.48805490 0.59020900
vt 0.48805490 0.57603090
vt 0.56969250 0.57603090
vt 0.57036250 0.56904610
vt 0.40607890 0.59020900
vt 0.40506340 0.61532640
vt 0.40641740 0.57603090
vt 0.40574740 0.56904610
vt 0.48805490 0.56904610
vt 0.48805490 0.56550910
vt 0.57237270 0.56550910
vt 0.40373720 0.56550910
vt 0.57438280 0.55928590
vt 0.40172700 0.55928590
vt 0.48805490 0.55928590
vt 0.48805490 0.54424340
vt 0.57505290 0.54424340
vt 0.40105700 0.54424340
vt 0.57518410 0.52923880
vt 0.40092580 0.52923880
vt 0.48805490 0.52923880
vt 0.48805490 0.58407210
vt 0.54993140 0.54120050
vt 0.57104650 0.56305400
vt 0.59871040 0.50000000
vt 0.48805490 0.55066500
vt 0.48805490 0.50000000
vt 0.42617850 0.54120050
vt 0.40506340 0.56305400
vt 0.37739950 0.50000000
vt 0.57194920 0.50000000
vt 0.54993140 0.45879950
vt 0.57104650 0.43694600
vt 0.48805490 0.41592800
vt 0.40416060 0.50000000
vt 0.42617850 0.45879950
vt 0.40506340 0.43694600
vt 0.48805490 0.44933500
f 3/3/3 2/2/2 1/1/1
f 4/4/4 3/3/3 1/1/1
f 5/5/5 4/4/4 1/1/1
f 6/6/6 5/5/5 1/1/1
f 7/7/7 5/5/5 6/6/6
f 8/8/8 7/7/7 6/6/6
f 11/11/11 10/10/10 9/9/9
f 12/12/12 11/11/11 9/9/9
f 12/12/12 9/9/9 13/13/13
f 14/14/14 12/12/12 13/13/13
f 13/13/13 15/15/15 14/14/14
f 15/15/15 16/16/16 14/14/14
f 19/19/19 18/18/18 17/17/17
f 18/18/18 20/20/20 17/17/17
f 18/18/18 21/21/21 20/20/20
f 21/21/21 22/22/22 20/20/20
f 21/21/21 23/23/23 22/22/22
f 23/23/23 24/24/24 22/22/22
f 23/23/23 25/25/25 24/24/24
f 25/25/25 26/26/26 24/24/24
f 29/29/29 28/28/28 27/27/27
f 30/30/30 29/29/29 27/27/27
f 30/30/30 27/27/27 31/31/31
f 32/32/32 30/30/30 31/31/31
f 31/31/31 33/33/33 32/32/32
f 33/33/33 34/34/34 32/32/32
f 37/37/37 36/36/36 35/35/35
f 38/38/38 37/37/37 35/35/35
f 38/38/38 35/35/35 39/39/39
f 40/40/40 38/38/38 39/39/39
f 39/39/39 41/41/41 40/40/40
f 41/41/41 42/42/42 40/40/40
f 45/45/45 44/44/44 43/43/43
f 46/46/46 45/45/45 43/43/43
f 46/46/46 43/43/43 47/47/47
f 48/48/48 46/46/46 47/47/47
f 47/47/47 49/49/49 48/48/48
f 49/49/49 50/50/50 48/48/48
f 53/53/53 52/52/52 51/51/51
f 54/54/54 53/53/53 51/51/51
f 54/54/54 51/51/51 55/55/55
f 56/56/56 54/54/54 55/55/55
f 59/59/59 58/58/58 57/57/57
f 58/58/58 60/60/60 57/57/57
f 58/58/58 61/61/61 60/60/60
f 61/61/61 62/62/62 60/60/60
f 61/61/61 63/63/63 62/62/62
f 63/63/63 64/64/64 62/62/62
f 67/67/67 66/66/66 65/65/65
f 66/66/66 68/68/68 65/65/65
f 66/66/66 69/69/69 68/68/68
f 69/69/69 70/70/70 68/68/68
f 69/69/69 71/71/71 70/70/70
f 71/71/71 72/72/72 70/70/70
f 71/71/71 73/73/73 72/72/72
f 73/73/73 74/74/74 72/72/72
f 77/77/77 76/76/76 75/75/75
f 76/76/76 78/78/78 75/75/75
f 76/76/76 79/79/79 78/78/78
f 79/79/79 80/80/80 78/78/78
f 83/83/83 82/82/82 81/81/81
f 82/82/82 84/84/84 81/81/81
f 82/82/82 85/85/85 84/84/84
f 85/85/85 86/86/86 84/84/84
f 89/89/89 88/88/88 87/87/87
f 90/90/90 89/89/89 87/87/87
f 93/93/93 92/92/92 91/91/91
f 94/94/94 93/93/93 91/91/91
f 94/94/94 91/91/91 95/95/95
f 96/96/96 94/94/94 95/95/95
f 99/99/99 98/98/98 97/97/97
f 98/98/98 100/100/100 97/97/97
f 98/98/98 101/101/101 100/100/100
f 101/101/101 102/102/102 100/100/100
f 105/105/105 104/104/104 103/103/103
f 104/104/104 106/106/106 103/103/103
f 104/104/104 107/107/107 106/106/106
f 107/107/107 108/108/108 106/106/106
f 111/111/111 110/110/110 109/109/109
f 110/110/110 112/112/112 109/109/109
f 110/110/110 113/113/113 112/112/112
f 113/113/113 114/114/114 112/112/112
f 117/117/117 116/116/116 115/115/115
f 116/116/116 118/118/118 115/115/115
f 116/116/116 119/119/119 118/118/118
f 119/119/119 120/120/120 118/118/118
f 119/119/119 121/121/121 120/120/120
f 121/121/121 122/122/122 120/120/120
f 125/125/125 124/124/124 123/123/123
f 124/124/124 126/126/126 123/123/123
f 124/124/124 127/127/127 126/126/126
f 127/127/127 128/128/128 126/126/126
f 127/127/127 129/129/129 128/128/128
f 129/129/129 130/130/130 128/128/128
f 133/133/133 132/132/132 131/131/131
f 132/132/132 134/134/134 131/131/131
f 132/132/132 135/135/135 134/134/134
f 135/135/135 136/136/136 134/134/134
f 139/139/139 138/138/138 137/137/137
f 140/140/140 139/139/139 137/137/137
f 143/143/143 142/142/142 141/141/141
f 142/142/142 144/144/144 141/141/141
f 144/144/144 142/142/142 145/145/145
f 142/142/142 146/146/146 145/145/145
f 145/145/145 146/146/146 147/147/147
f 146/146/146 148/148/148 147/147/147
f 151/151/151 150/150/150 149/149/149
f 152/152/152 151/151/151 149/149/149
f 155/155/155 154/154/154 153/153/153
f 156/156/156 155/155/155 153/153/153
f 159/159/159 158/158/158 157/157/157
f 158/158/158 160/160/160 157/157/157
f 160/160/160 158/158/158 161/161/161
f 158/158/158 162/162/162 161/161/161
f 165/165/165 164/164/164 163/163/163
f 164/164/164 166/166/166 163/163/163
f 166/166/166 164/164/164 167/167/167
f 164/164/164 168/168/168 167/167/167
f 171/171/171 170/170/170 169/169/169
f 170/170/170 172/172/172 169/169/169
f 172/172/172 170/170/170 173/173/173
f 170/170/170 174/174/174 173/173/173
f 177/177/177 176/176/176 175/175/175
f 178/178/178 177/177/177 175/175/175
f 179/179/179 178/178/178 175/175/175
f 180/180/180 179/179/179 175/175/175
f 181/181/181 179/179/179 180/180/180
f 182/182/182 181/181/181 180/180/180
f 185/185/185 184/184/184 183/183/183
f 184/184/184 186/186/186 183/183/183
f 183/183/183 186/186/186 187/187/187
f 186/186/186 188/188/188 187/187/187
f 188/188/188 189/189/189 187/187/187
f 189/189/189 190/190/190 187/187/187
f 193/193/193 192/192/192 191/191/191
f 194/194/194 193/193/193 191/191/191
f 195/195/195 193/193/193 194/194/194
f 196/196/196 195/195/195 194/194/194
f 197/197/197 195/195/195 196/196/196
f 198/198/198 197/197/197 196/196/196
f 199/199/199 197/197/197 198/198/198
f 200/200/200 199/199/199 198/198/198
f 203/203/203 202/202/202 201/201/201
f 202/202/202 204/204/204 201/201/201
f 201/201/201 204/204/204 205/205/205
f 204/204/204 206/206/206 205/205/205
f 206/206/206 207/207/207 205/205/205
f 207/207/207 208/208/208 205/205/205
f 211/211/211 210/210/210 209/209/209
f 210/210/210 212/212/212 209/209/209
f 209/209/209 212/212/212 213/213/213
f 212/212/212 214/214/214 213/213/213
f 217/217/217 216/216/216 215/215/215
f 218/218/218 217/217/217 215/215/215
f 219/219/219 217/217/217 218/218/218
f 220/220/220 219/219/219 218/218/218
f 221/221/221 219/219/219 220/220/220
f 222/222/222 221/221/221 220/220/220
f 225/225/225 224/224/224 223/223/223
f 226/226/226 225/225/225 223/223/223
f 227/227/227 225/225/225 226/226/226
f 228/228/228 227/227/227 226/226/226
f 229/229/229 227/227/227 228/228/228
f 230/230/230 229/229/229 228/228/228
f 231/231/231 229/229/229 230/230/230
f 232/232/232 231/231/231 230/230/230
f 235/235/235 234/234/234 233/233/233
f 236/236/236 235/235/235 233/233/233
f 237/237/237 235/235/235 236/236/236
f 238/238/238 237/237/237 236/236/236
f 241/241/241 240/240/240 239/239/239
f 242/242/242 241/241/241 239/239/239
f 243/243/243 241/241/241 242/242/242
f 244/244/244 243/243/243 242/242/242
f 247/247/247 246/246/246 245/245/245
f 248/248/248 247/247/247 245/245/245
f 251/251/251 250/250/250 249/249/249
f 250/250/250 252/252/252 249/249/249
f 249/249/249 252/252/252 253/253/253
f 252/252/252 254/254/254 253/253/253
f 257/257/257 256/256/256 255/255/255
f 258/258/258 257/257/257 255/255/255
f 259/259/259 257/257/257 258/258/258
f 260/260/260 259/259/259 258/258/258
f 263/263/263 262/262/262 261/261/261
f 264/264/264 263/263/263 261/261/261
f 265/265/265 263/263/263 264/264/264
f 266/266/266 265/265/265 264/264/264
f 269/269/269 268/268/268 267/267/267
f 270/270/270 269/269/269 267/267/267
f 271/271/271 269/269/269 270/270/270
f 272/272/272 271/271/271 270/270/270
f 275/275/275 274/274/274 273/273/273
f 276/276/276 275/275/275 273/273/273
f 277/277/277 275/275/275 276/276/276
f 278/278/278 277/277/277 276/276/276
f 281/281/281 280/280/280 279/279/279
f 282/282/282 281/281/281 279/279/279
f 283/283/283 281/281/281 282/282/282
f 284/284/284 283/283/283 282/282/282
f 285/285/285 283/283/283 284/284/284
f 286/286/286 285/285/285 284/284/284
f 289/289/289 288/288/288 287/287/287
f 290/290/290 289/289/289 287/287/287
f 291/291/291 289/289/289 290/290/290
f 292/292/292 291/291/291 290/290/290
f 295/295/295 294/294/294 293/293/293
f 296/296/296 295/295/295 293/293/293
f 299/299/299 298/298/298 297/297/297
f 300/300/300 299/299/299 297/297/297
f 303/303/303 302/302/302 301/301/301
f 304/304/304 303/303/303 301/301/301
f 307/307/307 306/306/306 305/305/305
f 308/308/308 307/307/307 305/305/305
f 311/311/311 310/310/310 309/309/309
f 312/312/312 311/311/311 309/309/309
f 315/315/315 314/314/314 313/313/313
f 314/314/314 316/316/316 313/313/313
f 314/314/314 317/317/317 316/316/316
f 317/317/317 318/318/318 316/316/316
f 318/318/318 317/317/317 319/319/319
f 317/317/317 320/320/320 319/319/319
f 319/319/319 320/320/320 321/321/321
f 320/320/320 322/322/322 321/321/321
f 325/325/325 324/324/324 323/323/323
f 326/326/326 325/325/325 323/323/323
f 329/329/329 328/328/328 327/327/327
f 330/330/330 329/329/329 327/327/327
f 333/333/333 332/332/332 331/331/331
f 332/332/332 334/334/334 331/331/331
f 332/332/332 335/335/335 334/334/334
f 335/335/335 336/336/336 334/334/334
f 335/335/335 337/337/337 336/336/336
f 337/337/337 338/338/338 336/336/336
f 338/338/338 337/337/337 339/339/339
f 337/337/337 340/340/340 339/339/339
f 339/339/339 340/340/340 341/341/341
f 340/340/340 342/342/342 341/341/341
f 341/341/341 342/342/342 343/343/343
f 342/342/342 344/344/344 343/343/343
f 347/347/347 346/346/346 345/345/345
f 348/348/348 347/347/347 345/345/345
f 351/351/351 350/350/350 349/349/349
f 350/350/350 352/352/352 349/349/349
f 350/350/350 353/353/353 352/352/352
f 353/353/353 354/354/354 352/352/352
f 354/354/354 353/353/353 355/355/355
f 353/353/353 356/356/356 355/355/355
f 355/355/355 356/356/356 357/357/357
f 356/356/356 358/358/358 357/357/357
f 361/361/361 360/360/360 359/359/359
f 360/360/360 362/362/362 359/359/359
f 360/360/360 363/363/363 362/362/362
f 363/363/363 364/364/364 362/362/362
f 364/364/364 363/363/363 365/365/365
f 363/363/363 366/366/366 365/365/365
f 365/365/365 366/366/366 367/367/367
f 366/366/366 368/368/368 367/367/367
f 371/371/371 370/370/370 369/369/369
f 372/372/372 371/371/371 369/369/369
f 375/375/375 374/374/374 373/373/373
f 376/376/376 375/375/375 373/373/373
f 379/379/379 378/378/378 377/377/377
f 380/380/380 379/379/379 377/377/377
f 383/383/383 382/382/382 381/381/381
f 384/384/384 383/383/383 381/381/381
f 387/387/387 386/386/386 385/385/385
f 388/388/388 387/387/387 385/385/385
f 391/391/391 390/390/390 389/389/389
f 390/390/390 392/392/392 389/389/389
f 392/392/392 390/390/390 393/393/393
f 390/390/390 394/394/394 393/393/393
f 394/394/394 395/395/395 393/393/393
f 392/392/392 396/396/396 389/389/389
f 396/396/396 392/392/392 393/393/393
f 396/396/396 397/397/397 389/389/389
f 398/398/398 396/396/396 393/393/393
f 399/399/399 398/398/398 393/393/393
f 395/395/395 400/400/400 393/393/393
f 400/400/400 399/399/399 393/393/393
f 400/400/400 395/395/395 401/401/401
f 399/399/399 400/400/400 401/401/401
f 395/395/395 402/402/402 401/401/401
f 403/403/403 399/399/399 401/401/401
f 402/402/402 404/404/404 401/401/401
f 405/405/405 403/403/403 401/401/401
f 404/404/404 406/406/406 401/401/401
f 406/406/406 405/405/405 401/401/401
f 406/406/406 404/404/404 407/407/407
f 405/405/405 406/406/406 407/407/407
f 404/404/404 408/408/408 407/407/407
f 409/409/409 405/405/405 407/407/407
f 408/408/408 410/410/410 407/407/407
f 411/411/411 409/409/409 407/407/407
f 410/410/410 412/412/412 407/407/407
f 412/412/412 411/411/411 407/407/407
f 415/415/415 414/414/414 413/413/413
f 414/414/414 416/416/416 413/413/413
f 416/416/416 414/414/414 417/417/417
f 414/414/414 418/418/418 417/417/417
f 418/418/418 419/419/419 417/417/417
f 416/416/416 420/420/420 413/413/413
f 420/420/420 416/416/416 417/417/417
f 420/420/420 421/421/421 413/413/413
f 422/422/422 420/420/420 417/417/417
f 423/423/423 422/422/422 417/417/417
f 419/419/419 424/424/424 417/417/417
f 424/424/424 423/423/423 417/417/417
f 424/424/424 419/419/419 425/425/425
f 423/423/423 424/424/424 425/425/425
f 419/419/419 426/426/426 425/425/425
f 427/427/427 423/423/423 425/425/425
f 426/426/426 428/428/428 425/425/425
f 429/429/429 427/427/427 425/425/425
f 428/428/428 430/430/430 425/425/425
f 430/430/430 429/429/429 425/425/425
f 430/430/430 428/428/428 431/431/431
f 429/429/429 430/430/430 431/431/431
f 428/428/428 432/432/432 431/431/431
f 433/433/433 429/429/429 431/431/431
f 432/432/432 434/434/434 431/431/431
f 435/435/435 433/433/433 431/431/431
f 434/434/434 436/436/436 431/431/431
f 436/436/436 435/435/435 431/431/431
f 439/439/439 438/438/438 437/437/437
f 438/438/438 440/440/440 437/437/437
f 440/440/440 438/438/438 441/441/441
f 438/438/438 442/442/442 441/441/441
f 442/442/442 443/443/443 441/441/441
f 440/440/440 444/444/444 437/437/437
f 444/444/444 440/440/440 441/441/441
f 444/444/444 445/445/445 437/437/437
f 446/446/446 444/444/444 441/441/441
f 447/447/447 446/446/446 441/441/441
f 443/443/443 448/448/448 441/441/441
f 448/448/448 447/447/447 441/441/441
f 448/448/448 443/443/443 449/449/449
f 447/447/447 448/448/448 449/449/449
f 443/443/443 450/450/450 449/449/449
f 451/451/451 447/447/447 449/449/449
f 450/450/450 452/452/452 449/449/449
f 453/453/453 451/451/451 449/449/449
f 452/452/452 454/454/454 449/449/449
f 454/454/454 453/453/453 449/449/449
f 454/454/454 452/452/452 455/455/455
f 453/453/453 454/454/454 455/455/455
f 452/452/452 456/456/456 455/455/455
f 457/457/457 453/453/453 455/455/455
f 456/456/456 458/458/458 455/455/455
f 459/459/459 457/457/457 455/455/455
f 458/458/458 460/460/460 455/455/455
f 460/460/460 459/459/459 455/455/455
f 463/463/463 462/462/462 461/461/461
f 462/462/462 464/464/464 461/461/461
f 464/464/464 462/462/462 465/465/465
f 462/462/462 466/466/466 465/465/465
f 466/466/466 467/467/467 465/465/465
f 464/464/464 468/468/468 461/461/461
f 468/468/468 464/464/464 465/465/465
f 468/468/468 469/469/469 461/461/461
f 470/470/470 468/468/468 465/465/465
f 471/471/471 470/470/470 465/465/465
f 467/467/467 472/472/472 465/465/465
f 472/472/472 471/471/471 465/465/465
f 472/472/472 467/467/467 473/473/473
f 471/471/471 472/472/472 473/473/473
f 467/467/467 474/474/474 473/473/473
f 475/475/475 471/471/471 473/473/473
f 474/474/474 476/476/476 473/473/473
f 477/477/477 475/475/475 473/473/473
f 476/476/476 478/478/478 473/473/473
f 478/478/478 477/477/477 473/473/473
f 478/478/478 476/476/476 479/479/479
f 477/477/477 478/478/478 479/479/479
f 476/476/476 480/480/480 479/479/479
f 481/481/481 477/477/477 479/479/479
f 480/480/480 482/482/482 479/479/479
f 483/483/483 481/481/481 479/479/479
f 482/482/482 484/484/484 479/479/479
f 484/484/484 483/483/483 479/479/479
f 487/487/487 486/486/486 485/485/485
f 486/486/486 487/487/487 488/488/488
f 486/486/486 489/489/489 485/485/485
f 489/489/489 486/486/486 490/490/490
f 489/489/489 491/491/491 485/485/485
f 491/491/491 489/489/489 490/490/490
f 491/491/491 492/492/492 485/485/485
f 492/492/492 491/491/491 493/493/493
f 494/494/494 486/486/486 488/488/488
f 486/486/486 494/494/494 490/490/490
f 495/495/495 494/494/494 488/488/488
f 494/494/494 495/495/495 490/490/490
f 496/496/496 495/495/495 488/488/488
f 495/495/495 496/496/496 497/497/497
f 491/491/491 498/498/498 493/493/493
f 498/498/498 491/491/491 490/490/490
f 498/498/498 499/499/499 493/493/493
f 499/499/499 498/498/498 490/490/490
f 499/499/499 500/500/500 493/493/493
f 500/500/500 499/499/499 497/497/497
f 495/495/495 501/501/501 490/490/490
f 501/501/501 495/495/495 497/497/497
f 501/501/501 499/499/499 490/490/490
f 499/499/499 501/501/501 497/497/497

