mtllib material.mtl
usemtl material_0
v 0.00903496 0.04481285 0.00006861
v 0.00903496 0.04505054 0.00006861
v 0.00903496 0.04493169 -0.00013722
v -0.00884720 0.04493169 -0.00013722
v -0.00884720 0.04505054 0.00006861
v -0.00884720 0.04481285 0.00006861
v 0.00838217 0.04585541 0.00006861
v 0.00838217 0.04609309 0.00006861
v 0.00838217 0.04597425 -0.00013722
v -0.00814977 0.04597425 -0.00013722
v -0.00814977 0.04609309 0.00006861
v -0.00814977 0.04585541 0.00006861
v 0.01073647 0.03690432 0.00006861
v 0.01073647 0.03714200 0.00006861
v 0.01073647 0.03702316 -0.00013722
v -0.01033828 0.03702316 -0.00013722
v -0.01033828 0.03714200 0.00006861
v -0.01033828 0.03690432 0.00006861
v 0.01073647 0.03586177 0.00006861
v 0.01073647 0.03609945 0.00006861
v 0.01073647 0.03598061 -0.00013722
v -0.01033828 0.03598061 -0.00013722
v -0.01033828 0.03609945 0.00006861
v -0.01033828 0.03586177 0.00006861
v 0.01039703 0.03463828 0.00006861
v 0.01039703 0.03487596 0.00006861
v 0.01039703 0.03475712 -0.00013722
v -0.01018842 0.03475712 -0.00013722
v -0.01018842 0.03487596 0.00006861
v -0.01018842 0.03463828 0.00006861
v 0.00957174 0.04358936 0.00006861
v 0.00957174 0.04382704 0.00006861
v 0.00957174 0.04370820 -0.00013722
v -0.00943062 0.04370820 -0.00013722
v -0.00943062 0.04382705 0.00006861
v -0.00943062 0.04358936 0.00006861
v 0.01032403 0.03347200 0.00006861
v 0.01032403 0.03370968 0.00006861
v 0.01032403 0.03359084 -0.00013722
v -0.01001687 0.03359084 -0.00013722
v -0.01001687 0.03370968 0.00006861
v -0.01001687 0.03347200 0.00006861
v 0.01010751 0.03245012 0.00006861
v 0.01010751 0.03268780 0.00006861
v 0.01010751 0.03256897 -0.00013722
v -0.00984814 0.03256897 -0.00013722
v -0.00984814 0.03268781 0.00006861
v -0.00984814 0.03245012 0.00006861
v 0.00957174 0.03140757 0.00006861
v 0.00957174 0.03164525 0.00006861
v 0.00957174 0.03152641 -0.00013722
v -0.00943062 0.03152641 -0.00013722
v -0.00943062 0.03164525 0.00006861
v -0.00943062 0.03140757 0.00006861
v 0.00903496 0.03018408 0.00006861
v 0.00903496 0.03042176 0.00006861
v 0.00903496 0.03030292 -0.00013722
v -0.00884720 0.03030292 -0.00013722
v -0.00884720 0.03042176 0.00006861
v -0.00884720 0.03018408 0.00006861
v 0.00838217 0.02904675 0.00006861
v 0.00838217 0.02928443 0.00006861
v 0.00838217 0.02916559 -0.00013722
v -0.00814978 0.02916559 -0.00013722
v -0.00814978 0.02928443 0.00006861
v -0.00814978 0.02904675 0.00006861
v 0.01010751 0.04242308 0.00006861
v 0.01010751 0.04266076 0.00006861
v 0.01010751 0.04254192 -0.00013722
v -0.00984814 0.04254192 -0.00013722
v -0.00984814 0.04266076 0.00006861
v -0.00984814 0.04242308 0.00006861
v 0.01032403 0.04140120 0.00006861
v 0.01032403 0.04163889 0.00006861
v 0.01032403 0.04152005 -0.00013722
v -0.01001687 0.04152005 -0.00013722
v -0.01001687 0.04163889 0.00006861
v -0.01001687 0.04140121 0.00006861
v 0.01039703 0.04035866 0.00006861
v 0.01039703 0.04059633 0.00006861
v 0.01039703 0.04047749 -0.00013722
v -0.01018842 0.04047749 -0.00013722
v -0.01018842 0.04059633 0.00006861
v -0.01018842 0.04035866 0.00006861
v 0.01073647 0.03913516 0.00006861
v 0.01073647 0.03937284 0.00006861
v 0.01073647 0.03925400 -0.00013722
v -0.01033828 0.03925400 -0.00013722
v -0.01033828 0.03937284 0.00006861
v -0.01033828 0.03913516 0.00006861
v 0.01073647 0.03799783 0.00006861
v 0.01073647 0.03823551 0.00006861
v 0.01073647 0.03811667 -0.00013722
v -0.01033828 0.03811667 -0.00013722
v -0.01033828 0.03823551 0.00006861
v -0.01033828 0.03799783 0.00006861
v 0.00810045 0.02830189 0.00006861
v 0.00810045 0.02853956 0.00006861
v 0.00810045 0.02842073 -0.00013722
v -0.00785195 0.02842073 -0.00013722
v -0.00785195 0.02853957 0.00006861
v -0.00785195 0.02830189 0.00006861
v 0.00767216 0.02725933 0.00006861
v 0.00767216 0.02749701 0.00006861
v 0.00767216 0.02737817 -0.00013722
v -0.00751819 0.02737817 -0.00013722
v -0.00751819 0.02749701 0.00006861
v -0.00751819 0.02725933 0.00006861
v 0.00679723 0.02603584 0.00006861
v 0.00679723 0.02627352 0.00006861
v 0.00679723 0.02615468 -0.00013722
v -0.00660486 0.02615468 -0.00013722
v -0.00660486 0.02627352 0.00006861
v -0.00660486 0.02603584 0.00006861
v 0.00630798 0.02489851 0.00006861
v 0.00630798 0.02513619 0.00006861
v 0.00630798 0.02501735 -0.00013722
v -0.00608217 0.02501735 -0.00013722
v -0.00608217 0.02513619 0.00006861
v -0.00608217 0.02489851 0.00006861
v 0.00591160 0.04851133 0.00006861
v 0.00591160 0.04874900 0.00006861
v 0.00591160 0.04863017 -0.00013722
v -0.00572994 0.04863017 -0.00013722
v -0.00572994 0.04874900 0.00006861
v -0.00572994 0.04851133 0.00006861
v 0.00708654 0.04728783 0.00006861
v 0.00708654 0.04752551 0.00006861
v 0.00708654 0.04740668 -0.00013722
v -0.00693931 0.04740668 -0.00013722
v -0.00693931 0.04752552 0.00006861
v -0.00693931 0.04728783 0.00006861
v -0.00710335 0.04704972 0.00006861
v -0.00734103 0.04704972 0.00006861
v -0.00722219 0.04704972 -0.00013722
v -0.00722219 0.02697928 -0.00013722
v -0.00734103 0.02697928 0.00006861
v -0.00710335 0.02697928 0.00006861
v -0.00814590 0.04571800 0.00006861
v -0.00838358 0.04571800 0.00006861
v -0.00826474 0.04571800 -0.00013722
v -0.00826474 0.02880497 -0.00013722
v -0.00838358 0.02880497 0.00006861
v -0.00814590 0.02880497 0.00006861
v 0.00080518 0.05052083 0.00006861
v 0.00056750 0.05052083 0.00006861
v 0.00068634 0.05052083 -0.00013722
v 0.00068634 0.02307594 -0.00013722
v 0.00056750 0.02307594 0.00006861
v 0.00080518 0.02307594 0.00006861
v 0.00184773 0.05052083 0.00006861
v 0.00161005 0.05052083 0.00006861
v 0.00172889 0.05052083 -0.00013722
v 0.00172889 0.02307594 -0.00013722
v 0.00161005 0.02307594 0.00006861
v 0.00184773 0.02307594 0.00006861
v 0.00307122 0.04982837 0.00006861
v 0.00283354 0.04982837 0.00006861
v 0.00295239 0.04982837 -0.00013722
v 0.00295239 0.02346824 -0.00013722
v 0.00283354 0.02346824 0.00006861
v 0.00307122 0.02346824 0.00006861
v -0.00587986 0.04814477 0.00006861
v -0.00611754 0.04814477 0.00006861
v -0.00599870 0.04814477 -0.00013722
v -0.00599870 0.02545200 -0.00013722
v -0.00611754 0.02545200 0.00006861
v -0.00587986 0.02545200 0.00006861
v 0.00423751 0.04967944 0.00006861
v 0.00399983 0.04967944 0.00006861
v 0.00411867 0.04967944 -0.00013722
v 0.00411867 0.02391732 -0.00013722
v 0.00399983 0.02391732 0.00006861
v 0.00423751 0.02391732 0.00006861
v 0.00525938 0.04923774 0.00006861
v 0.00502170 0.04923774 0.00006861
v 0.00514054 0.04923774 -0.00013722
v 0.00514054 0.02435903 -0.00013722
v 0.00502170 0.02435903 0.00006861
v 0.00525938 0.02435903 0.00006861
v 0.00630193 0.04814477 0.00006861
v 0.00606425 0.04814477 0.00006861
v 0.00618309 0.04814477 -0.00013722
v 0.00618309 0.02545200 -0.00013722
v 0.00606425 0.02545200 0.00006861
v 0.00630193 0.02545200 0.00006861
v 0.00752542 0.04704972 0.00006861
v 0.00728775 0.04704972 0.00006861
v 0.00740659 0.04704972 -0.00013722
v 0.00740659 0.02697928 -0.00013722
v 0.00728775 0.02697928 0.00006861
v 0.00752542 0.02697928 0.00006861
v 0.00866276 0.04571800 0.00006861
v 0.00842508 0.04571800 0.00006861
v 0.00854392 0.04571800 -0.00013722
v 0.00854392 0.02880497 -0.00013722
v 0.00842508 0.02880497 0.00006861
v 0.00866276 0.02880497 0.00006861
v -0.00471358 0.04923774 0.00006861
v -0.00495126 0.04923774 0.00006861
v -0.00483242 0.04923774 -0.00013722
v -0.00483242 0.02435903 -0.00013722
v -0.00495126 0.02435903 0.00006861
v -0.00471358 0.02435903 0.00006861
v -0.00369170 0.04967944 0.00006861
v -0.00392938 0.04967944 0.00006861
v -0.00381054 0.04967944 -0.00013722
v -0.00381054 0.02391732 -0.00013722
v -0.00392938 0.02391732 0.00006861
v -0.00369170 0.02391732 0.00006861
v -0.00264915 0.04982837 0.00006861
v -0.00288683 0.04982837 0.00006861
v -0.00276799 0.04982837 -0.00013722
v -0.00276799 0.02346824 -0.00013722
v -0.00288683 0.02346824 0.00006861
v -0.00264915 0.02346824 0.00006861
v -0.00142566 0.05052083 0.00006861
v -0.00166334 0.05052083 0.00006861
v -0.00154450 0.05052083 -0.00013722
v -0.00154450 0.02307594 -0.00013722
v -0.00166334 0.02307594 0.00006861
v -0.00142566 0.02307594 0.00006861
v -0.00028833 0.05052083 0.00006861
v -0.00052601 0.05052083 0.00006861
v -0.00040717 0.05052083 -0.00013722
v -0.00040717 0.02307594 -0.00013722
v -0.00052601 0.02307594 0.00006861
v -0.00028833 0.02307594 0.00006861
v -0.00884720 0.04505054 0.00006861
v -0.00884720 0.04493169 -0.00013722
v 0.00903496 0.04493169 -0.00013722
v 0.00903496 0.04505054 0.00006861
v -0.00884720 0.04493169 -0.00013722
v -0.00884720 0.04481285 0.00006861
v 0.00903496 0.04481285 0.00006861
v 0.00903496 0.04493169 -0.00013722
v -0.00884720 0.04481285 0.00006861
v -0.00884720 0.04505054 0.00006861
v 0.00903496 0.04505054 0.00006861
v 0.00903496 0.04481285 0.00006861
v -0.00814977 0.04609309 0.00006861
v -0.00814977 0.04597425 -0.00013722
v 0.00838217 0.04597425 -0.00013722
v 0.00838217 0.04609309 0.00006861
v -0.00814977 0.04597425 -0.00013722
v -0.00814977 0.04585541 0.00006861
v 0.00838217 0.04585541 0.00006861
v 0.00838217 0.04597425 -0.00013722
v -0.00814977 0.04585541 0.00006861
v -0.00814977 0.04609309 0.00006861
v 0.00838217 0.04609309 0.00006861
v 0.00838217 0.04585541 0.00006861
v -0.01033828 0.03702316 -0.00013722
v -0.01033828 0.03690432 0.00006861
v 0.01073647 0.03690432 0.00006861
v 0.01073647 0.03702316 -0.00013722
v -0.01033828 0.03690432 0.00006861
v -0.01033828 0.03714200 0.00006861
v 0.01073647 0.03714200 0.00006861
v 0.01073647 0.03690432 0.00006861
v -0.01033828 0.03714200 0.00006861
v -0.01033828 0.03702316 -0.00013722
v 0.01073647 0.03702316 -0.00013722
v 0.01073647 0.03714200 0.00006861
v -0.01033828 0.03598061 -0.00013722
v -0.01033828 0.03586177 0.00006861
v 0.01073647 0.03586177 0.00006861
v 0.01073647 0.03598061 -0.00013722
v -0.01033828 0.03586177 0.00006861
v -0.01033828 0.03609945 0.00006861
v 0.01073647 0.03609945 0.00006861
v 0.01073647 0.03586177 0.00006861
v -0.01033828 0.03609945 0.00006861
v -0.01033828 0.03598061 -0.00013722
v 0.01073647 0.03598061 -0.00013722
v 0.01073647 0.03609945 0.00006861
v -0.01018842 0.03475712 -0.00013722
v -0.01018842 0.03463828 0.00006861
v 0.01039703 0.03463828 0.00006861
v 0.01039703 0.03475712 -0.00013722
v -0.01018842 0.03463828 0.00006861
v -0.01018842 0.03487596 0.00006861
v 0.01039703 0.03487596 0.00006861
v 0.01039703 0.03463828 0.00006861
v -0.01018842 0.03487596 0.00006861
v -0.01018842 0.03475712 -0.00013722
v 0.01039703 0.03475712 -0.00013722
v 0.01039703 0.03487596 0.00006861
v -0.00943062 0.04382705 0.00006861
v -0.00943062 0.04370820 -0.00013722
v 0.00957174 0.04370820 -0.00013722
v 0.00957174 0.04382704 0.00006861
v -0.00943062 0.04370820 -0.00013722
v -0.00943062 0.04358936 0.00006861
v 0.00957174 0.04358936 0.00006861
v 0.00957174 0.04370820 -0.00013722
v -0.00943062 0.04358936 0.00006861
v -0.00943062 0.04382705 0.00006861
v 0.00957174 0.04382704 0.00006861
v 0.00957174 0.04358936 0.00006861
v -0.01001687 0.03359084 -0.00013722
v -0.01001687 0.03347200 0.00006861
v 0.01032403 0.03347200 0.00006861
v 0.01032403 0.03359084 -0.00013722
v -0.01001687 0.03370968 0.00006861
v -0.01001687 0.03359084 -0.00013722
v 0.01032403 0.03359084 -0.00013722
v 0.01032403 0.03370968 0.00006861
v -0.01001687 0.03347200 0.00006861
v -0.01001687 0.03370968 0.00006861
v 0.01032403 0.03370968 0.00006861
v 0.01032403 0.03347200 0.00006861
v -0.00984814 0.03256897 -0.00013722
v -0.00984814 0.03245012 0.00006861
v 0.01010751 0.03245012 0.00006861
v 0.01010751 0.03256897 -0.00013722
v -0.00984814 0.03245012 0.00006861
v -0.00984814 0.03268781 0.00006861
v 0.01010751 0.03268780 0.00006861
v 0.01010751 0.03245012 0.00006861
v -0.00984814 0.03268781 0.00006861
v -0.00984814 0.03256897 -0.00013722
v 0.01010751 0.03256897 -0.00013722
v 0.01010751 0.03268780 0.00006861
v -0.00943062 0.03152641 -0.00013722
v -0.00943062 0.03140757 0.00006861
v 0.00957174 0.03140757 0.00006861
v 0.00957174 0.03152641 -0.00013722
v -0.00943062 0.03140757 0.00006861
v -0.00943062 0.03164525 0.00006861
v 0.00957174 0.03164525 0.00006861
v 0.00957174 0.03140757 0.00006861
v -0.00943062 0.03164525 0.00006861
v -0.00943062 0.03152641 -0.00013722
v 0.00957174 0.03152641 -0.00013722
v 0.00957174 0.03164525 0.00006861
v -0.00884720 0.03030292 -0.00013722
v -0.00884720 0.03018408 0.00006861
v 0.00903496 0.03018408 0.00006861
v 0.00903496 0.03030292 -0.00013722
v -0.00884720 0.03018408 0.00006861
v -0.00884720 0.03042176 0.00006861
v 0.00903496 0.03042176 0.00006861
v 0.00903496 0.03018408 0.00006861
v -0.00884720 0.03042176 0.00006861
v -0.00884720 0.03030292 -0.00013722
v 0.00903496 0.03030292 -0.00013722
v 0.00903496 0.03042176 0.00006861
v -0.00814978 0.02916559 -0.00013722
v -0.00814978 0.02904675 0.00006861
v 0.00838217 0.02904675 0.00006861
v 0.00838217 0.02916559 -0.00013722
v -0.00814978 0.02904675 0.00006861
v -0.00814978 0.02928443 0.00006861
v 0.00838217 0.02928443 0.00006861
v 0.00838217 0.02904675 0.00006861
v -0.00814978 0.02928443 0.00006861
v -0.00814978 0.02916559 -0.00013722
v 0.00838217 0.02916559 -0.00013722
v 0.00838217 0.02928443 0.00006861
v -0.00984814 0.04254192 -0.00013722
v -0.00984814 0.04242308 0.00006861
v 0.01010751 0.04242308 0.00006861
v 0.01010751 0.04254192 -0.00013722
v -0.00984814 0.04266076 0.00006861
v -0.00984814 0.04254192 -0.00013722
v 0.01010751 0.04254192 -0.00013722
v 0.01010751 0.04266076 0.00006861
v -0.00984814 0.04242308 0.00006861
v -0.00984814 0.04266076 0.00006861
v 0.01010751 0.04266076 0.00006861
v 0.01010751 0.04242308 0.00006861
v -0.01001687 0.04152005 -0.00013722
v -0.01001687 0.04140121 0.00006861
v 0.01032403 0.04140120 0.00006861
v 0.01032403 0.04152005 -0.00013722
v -0.01001687 0.04140121 0.00006861
v -0.01001687 0.04163889 0.00006861
v 0.01032403 0.04163889 0.00006861
v 0.01032403 0.04140120 0.00006861
v -0.01001687 0.04163889 0.00006861
v -0.01001687 0.04152005 -0.00013722
v 0.01032403 0.04152005 -0.00013722
v 0.01032403 0.04163889 0.00006861
v -0.01018842 0.04047749 -0.00013722
v -0.01018842 0.04035866 0.00006861
v 0.01039703 0.04035866 0.00006861
v 0.01039703 0.04047749 -0.00013722
v -0.01018842 0.04035866 0.00006861
v -0.01018842 0.04059633 0.00006861
v 0.01039703 0.04059633 0.00006861
v 0.01039703 0.04035866 0.00006861
v -0.01018842 0.04059633 0.00006861
v -0.01018842 0.04047749 -0.00013722
v 0.01039703 0.04047749 -0.00013722
v 0.01039703 0.04059633 0.00006861
v -0.01033828 0.03925400 -0.00013722
v -0.01033828 0.03913516 0.00006861
v 0.01073647 0.03913516 0.00006861
v 0.01073647 0.03925400 -0.00013722
v -0.01033828 0.03913516 0.00006861
v -0.01033828 0.03937284 0.00006861
v 0.01073647 0.03937284 0.00006861
v 0.01073647 0.03913516 0.00006861
v -0.01033828 0.03937284 0.00006861
v -0.01033828 0.03925400 -0.00013722
v 0.01073647 0.03925400 -0.00013722
v 0.01073647 0.03937284 0.00006861
v -0.01033828 0.03811667 -0.00013722
v -0.01033828 0.03799783 0.00006861
v 0.01073647 0.03799783 0.00006861
v 0.01073647 0.03811667 -0.00013722
v -0.01033828 0.03799783 0.00006861
v -0.01033828 0.03823551 0.00006861
v 0.01073647 0.03823551 0.00006861
v 0.01073647 0.03799783 0.00006861
v -0.01033828 0.03823551 0.00006861
v -0.01033828 0.03811667 -0.00013722
v 0.01073647 0.03811667 -0.00013722
v 0.01073647 0.03823551 0.00006861
v -0.00785195 0.02842073 -0.00013722
v -0.00785195 0.02830189 0.00006861
v 0.00810045 0.02830189 0.00006861
v 0.00810045 0.02842073 -0.00013722
v -0.00785195 0.02830189 0.00006861
v -0.00785195 0.02853957 0.00006861
v 0.00810045 0.02853956 0.00006861
v 0.00810045 0.02830189 0.00006861
v -0.00785195 0.02853957 0.00006861
v -0.00785195 0.02842073 -0.00013722
v 0.00810045 0.02842073 -0.00013722
v 0.00810045 0.02853956 0.00006861
v -0.00751819 0.02737817 -0.00013722
v -0.00751819 0.02725933 0.00006861
v 0.00767216 0.02725933 0.00006861
v 0.00767216 0.02737817 -0.00013722
v -0.00751819 0.02725933 0.00006861
v -0.00751819 0.02749701 0.00006861
v 0.00767216 0.02749701 0.00006861
v 0.00767216 0.02725933 0.00006861
v -0.00751819 0.02749701 0.00006861
v -0.00751819 0.02737817 -0.00013722
v 0.00767216 0.02737817 -0.00013722
v 0.00767216 0.02749701 0.00006861
v -0.00660486 0.02615468 -0.00013722
v -0.00660486 0.02603584 0.00006861
v 0.00679723 0.02603584 0.00006861
v 0.00679723 0.02615468 -0.00013722
v -0.00660486 0.02603584 0.00006861
v -0.00660486 0.02627352 0.00006861
v 0.00679723 0.02627352 0.00006861
v 0.00679723 0.02603584 0.00006861
v -0.00660486 0.02627352 0.00006861
v -0.00660486 0.02615468 -0.00013722
v 0.00679723 0.02615468 -0.00013722
v 0.00679723 0.02627352 0.00006861
v -0.00608217 0.02501735 -0.00013722
v -0.00608217 0.02489851 0.00006861
v 0.00630798 0.02489851 0.00006861
v 0.00630798 0.02501735 -0.00013722
v -0.00608217 0.02489851 0.00006861
v -0.00608217 0.02513619 0.00006861
v 0.00630798 0.02513619 0.00006861
v 0.00630798 0.02489851 0.00006861
v -0.00608217 0.02513619 0.00006861
v -0.00608217 0.02501735 -0.00013722
v 0.00630798 0.02501735 -0.00013722
v 0.00630798 0.02513619 0.00006861
v -0.00572994 0.04874900 0.00006861
v -0.00572994 0.04863017 -0.00013722
v 0.00591160 0.04863017 -0.00013722
v 0.00591160 0.04874900 0.00006861
v -0.00572994 0.04863017 -0.00013722
v -0.00572994 0.04851133 0.00006861
v 0.00591160 0.04851133 0.00006861
v 0.00591160 0.04863017 -0.00013722
v -0.00572994 0.04851133 0.00006861
v -0.00572994 0.04874900 0.00006861
v 0.00591160 0.04874900 0.00006861
v 0.00591160 0.04851133 0.00006861
v -0.00693931 0.04752552 0.00006861
v -0.00693931 0.04740668 -0.00013722
v 0.00708654 0.04740668 -0.00013722
v 0.00708654 0.04752551 0.00006861
v -0.00693931 0.04740668 -0.00013722
v -0.00693931 0.04728783 0.00006861
v 0.00708654 0.04728783 0.00006861
v 0.00708654 0.04740668 -0.00013722
v -0.00693931 0.04728783 0.00006861
v -0.00693931 0.04752552 0.00006861
v 0.00708654 0.04752551 0.00006861
v 0.00708654 0.04728783 0.00006861
v -0.00734103 0.02697928 0.00006861
v -0.00722219 0.02697928 -0.00013722
v -0.00722219 0.04704972 -0.00013722
v -0.00734103 0.04704972 0.00006861
v -0.00722219 0.02697928 -0.00013722
v -0.00710335 0.02697928 0.00006861
v -0.00710335 0.04704972 0.00006861
v -0.00722219 0.04704972 -0.00013722
v -0.00710335 0.02697928 0.00006861
v -0.00734103 0.02697928 0.00006861
v -0.00734103 0.04704972 0.00006861
v -0.00710335 0.04704972 0.00006861
v -0.00838358 0.02880497 0.00006861
v -0.00826474 0.02880497 -0.00013722
v -0.00826474 0.04571800 -0.00013722
v -0.00838358 0.04571800 0.00006861
v -0.00826474 0.02880497 -0.00013722
v -0.00814590 0.02880497 0.00006861
v -0.00814590 0.04571800 0.00006861
v -0.00826474 0.04571800 -0.00013722
v -0.00814590 0.02880497 0.00006861
v -0.00838358 0.02880497 0.00006861
v -0.00838358 0.04571800 0.00006861
v -0.00814590 0.04571800 0.00006861
v 0.00068634 0.02307594 -0.00013722
v 0.00080518 0.02307594 0.00006861
v 0.00080518 0.05052083 0.00006861
v 0.00068634 0.05052083 -0.00013722
v 0.00080518 0.02307594 0.00006861
v 0.00056750 0.02307594 0.00006861
v 0.00056750 0.05052083 0.00006861
v 0.00080518 0.05052083 0.00006861
v 0.00056750 0.02307594 0.00006861
v 0.00068634 0.02307594 -0.00013722
v 0.00068634 0.05052083 -0.00013722
v 0.00056750 0.05052083 0.00006861
v 0.00172889 0.02307594 -0.00013722
v 0.00184773 0.02307594 0.00006861
v 0.00184773 0.05052083 0.00006861
v 0.00172889 0.05052083 -0.00013722
v 0.00184773 0.02307594 0.00006861
v 0.00161005 0.02307594 0.00006861
v 0.00161005 0.05052083 0.00006861
v 0.00184773 0.05052083 0.00006861
v 0.00161005 0.02307594 0.00006861
v 0.00172889 0.02307594 -0.00013722
v 0.00172889 0.05052083 -0.00013722
v 0.00161005 0.05052083 0.00006861
v 0.00295239 0.02346824 -0.00013722
v 0.00307122 0.02346824 0.00006861
v 0.00307122 0.04982837 0.00006861
v 0.00295239 0.04982837 -0.00013722
v 0.00307122 0.02346824 0.00006861
v 0.00283354 0.02346824 0.00006861
v 0.00283354 0.04982837 0.00006861
v 0.00307122 0.04982837 0.00006861
v 0.00283354 0.02346824 0.00006861
v 0.00295239 0.02346824 -0.00013722
v 0.00295239 0.04982837 -0.00013722
v 0.00283354 0.04982837 0.00006861
v -0.00611754 0.02545200 0.00006861
v -0.00599870 0.02545200 -0.00013722
v -0.00599870 0.04814477 -0.00013722
v -0.00611754 0.04814477 0.00006861
v -0.00599870 0.02545200 -0.00013722
v -0.00587986 0.02545200 0.00006861
v -0.00587986 0.04814477 0.00006861
v -0.00599870 0.04814477 -0.00013722
v -0.00587986 0.02545200 0.00006861
v -0.00611754 0.02545200 0.00006861
v -0.00611754 0.04814477 0.00006861
v -0.00587986 0.04814477 0.00006861
v 0.00411867 0.02391732 -0.00013722
v 0.00423751 0.02391732 0.00006861
v 0.00423751 0.04967944 0.00006861
v 0.00411867 0.04967944 -0.00013722
v 0.00399983 0.02391732 0.00006861
v 0.00411867 0.02391732 -0.00013722
v 0.00411867 0.04967944 -0.00013722
v 0.00399983 0.04967944 0.00006861
v 0.00423751 0.02391732 0.00006861
v 0.00399983 0.02391732 0.00006861
v 0.00399983 0.04967944 0.00006861
v 0.00423751 0.04967944 0.00006861
v 0.00514054 0.02435903 -0.00013722
v 0.00525938 0.02435903 0.00006861
v 0.00525938 0.04923774 0.00006861
v 0.00514054 0.04923774 -0.00013722
v 0.00525938 0.02435903 0.00006861
v 0.00502170 0.02435903 0.00006861
v 0.00502170 0.04923774 0.00006861
v 0.00525938 0.04923774 0.00006861
v 0.00502170 0.02435903 0.00006861
v 0.00514054 0.02435903 -0.00013722
v 0.00514054 0.04923774 -0.00013722
v 0.00502170 0.04923774 0.00006861
v 0.00618309 0.02545200 -0.00013722
v 0.00630193 0.02545200 0.00006861
v 0.00630193 0.04814477 0.00006861
v 0.00618309 0.04814477 -0.00013722
v 0.00630193 0.02545200 0.00006861
v 0.00606425 0.02545200 0.00006861
v 0.00606425 0.04814477 0.00006861
v 0.00630193 0.04814477 0.00006861
v 0.00606425 0.02545200 0.00006861
v 0.00618309 0.02545200 -0.00013722
v 0.00618309 0.04814477 -0.00013722
v 0.00606425 0.04814477 0.00006861
v 0.00740659 0.02697928 -0.00013722
v 0.00752542 0.02697928 0.00006861
v 0.00752542 0.04704972 0.00006861
v 0.00740659 0.04704972 -0.00013722
v 0.00752542 0.02697928 0.00006861
v 0.00728775 0.02697928 0.00006861
v 0.00728775 0.04704972 0.00006861
v 0.00752542 0.04704972 0.00006861
v 0.00728775 0.02697928 0.00006861
v 0.00740659 0.02697928 -0.00013722
v 0.00740659 0.04704972 -0.00013722
v 0.00728775 0.04704972 0.00006861
v 0.00854392 0.02880497 -0.00013722
v 0.00866276 0.02880497 0.00006861
v 0.00866276 0.04571800 0.00006861
v 0.00854392 0.04571800 -0.00013722
v 0.00866276 0.02880497 0.00006861
v 0.00842508 0.02880497 0.00006861
v 0.00842508 0.04571800 0.00006861
v 0.00866276 0.04571800 0.00006861
v 0.00842508 0.02880497 0.00006861
v 0.00854392 0.02880497 -0.00013722
v 0.00854392 0.04571800 -0.00013722
v 0.00842508 0.04571800 0.00006861
v -0.00483242 0.02435903 -0.00013722
v -0.00471358 0.02435903 0.00006861
v -0.00471358 0.04923774 0.00006861
v -0.00483242 0.04923774 -0.00013722
v -0.00495126 0.02435903 0.00006861
v -0.00483242 0.02435903 -0.00013722
v -0.00483242 0.04923774 -0.00013722
v -0.00495126 0.04923774 0.00006861
v -0.00471358 0.02435903 0.00006861
v -0.00495126 0.02435903 0.00006861
v -0.00495126 0.04923774 0.00006861
v -0.00471358 0.04923774 0.00006861
v -0.00381054 0.02391732 -0.00013722
v -0.00369170 0.02391732 0.00006861
v -0.00369170 0.04967944 0.00006861
v -0.00381054 0.04967944 -0.00013722
v -0.00369170 0.02391732 0.00006861
v -0.00392938 0.02391732 0.00006861
v -0.00392938 0.04967944 0.00006861
v -0.00369170 0.04967944 0.00006861
v -0.00392938 0.02391732 0.00006861
v -0.00381054 0.02391732 -0.00013722
v -0.00381054 0.04967944 -0.00013722
v -0.00392938 0.04967944 0.00006861
v -0.00276799 0.02346824 -0.00013722
v -0.00264915 0.02346824 0.00006861
v -0.00264915 0.04982837 0.00006861
v -0.00276799 0.04982837 -0.00013722
v -0.00264915 0.02346824 0.00006861
v -0.00288683 0.02346824 0.00006861
v -0.00288683 0.04982837 0.00006861
v -0.00264915 0.04982837 0.00006861
v -0.00288683 0.02346824 0.00006861
v -0.00276799 0.02346824 -0.00013722
v -0.00276799 0.04982837 -0.00013722
v -0.00288683 0.04982837 0.00006861
v -0.00154450 0.02307594 -0.00013722
v -0.00142566 0.02307594 0.00006861
v -0.00142566 0.05052083 0.00006861
v -0.00154450 0.05052083 -0.00013722
v -0.00142566 0.02307594 0.00006861
v -0.00166334 0.02307594 0.00006861
v -0.00166334 0.05052083 0.00006861
v -0.00142566 0.05052083 0.00006861
v -0.00166334 0.02307594 0.00006861
v -0.00154450 0.02307594 -0.00013722
v -0.00154450 0.05052083 -0.00013722
v -0.00166334 0.05052083 0.00006861
v -0.00040717 0.02307594 -0.00013722
v -0.00028833 0.02307594 0.00006861
v -0.00028833 0.05052083 0.00006861
v -0.00040717 0.05052083 -0.00013722
v -0.00028833 0.02307594 0.00006861
v -0.00052601 0.02307594 0.00006861
v -0.00052601 0.05052083 0.00006861
v -0.00028833 0.05052083 0.00006861
v -0.00052601 0.02307594 0.00006861
v -0.00040717 0.02307594 -0.00013722
v -0.00040717 0.05052083 -0.00013722
v -0.00052601 0.05052083 0.00006861
vn 1.00000000 0.00000000 0.00000000
vn 1.00000000 0.00000000 0.00000000
vn 1.00000000 0.00000000 0.00000000
vn -1.00000000 0.00000000 0.00000000
vn -1.00000000 0.00000000 0.00000000
vn -1.00000000 0.00000000 0.00000000
vn 1.00000000 0.00000000 0.00000000
vn 1.00000000 0.00000000 0.00000000
vn 1.00000000 0.00000000 0.00000000
vn -1.00000000 0.00000000 0.00000000
vn -1.00000000 0.00000000 0.00000000
vn -1.00000000 0.00000000 0.00000000
vn 1.00000000 0.00000000 0.00000000
vn 1.00000000 0.00000000 0.00000000
vn 1.00000000 0.00000000 0.00000000
vn -1.00000000 0.00000000 0.00000000
vn -1.00000000 0.00000000 0.00000000
vn -1.00000000 0.00000000 0.00000000
vn 1.00000000 0.00000000 0.00000000
vn 1.00000000 0.00000000 0.00000000
vn 1.00000000 0.00000000 0.00000000
vn -1.00000000 0.00000000 0.00000000
vn -1.00000000 0.00000000 0.00000000
vn -1.00000000 0.00000000 0.00000000
vn 1.00000000 0.00000000 0.00000000
vn 1.00000000 0.00000000 0.00000000
vn 1.00000000 0.00000000 0.00000000
vn -1.00000000 0.00000000 0.00000000
vn -1.00000000 0.00000000 0.00000000
vn -1.00000000 0.00000000 0.00000000
vn 1.00000000 0.00000000 0.00000000
vn 1.00000000 0.00000000 0.00000000
vn 1.00000000 0.00000000 0.00000000
vn -1.00000000 0.00000000 0.00000000
vn -1.00000000 0.00000000 0.00000000
vn -1.00000000 0.00000000 0.00000000
vn 1.00000000 0.00000000 0.00000000
vn 1.00000000 0.00000000 0.00000000
vn 1.00000000 0.00000000 0.00000000
vn -1.00000000 0.00000548 -0.00000174
vn -1.00000000 0.00000548 -0.00000174
vn -1.00000000 0.00000548 -0.00000174
vn 1.00000000 0.00000000 0.00000000
vn 1.00000000 0.00000000 0.00000000
vn 1.00000000 0.00000000 0.00000000
vn -1.00000000 0.00000000 0.00000000
vn -1.00000000 0.00000000 0.00000000
vn -1.00000000 0.00000000 0.00000000
vn 1.00000000 0.00000000 0.00000000
vn 1.00000000 0.00000000 0.00000000
vn 1.00000000 0.00000000 0.00000000
vn -1.00000000 0.00000000 0.00000000
vn -1.00000000 0.00000000 0.00000000
vn -1.00000000 0.00000000 0.00000000
vn 1.00000000 0.00000000 0.00000000
vn 1.00000000 0.00000000 0.00000000
vn 1.00000000 0.00000000 0.00000000
vn -1.00000000 0.00000000 0.00000000
vn -1.00000000 0.00000000 0.00000000
vn -1.00000000 0.00000000 0.00000000
vn 1.00000000 0.00000000 0.00000000
vn 1.00000000 0.00000000 0.00000000
vn 1.00000000 0.00000000 0.00000000
vn -1.00000000 0.00000000 0.00000000
vn -1.00000000 0.00000000 0.00000000
vn -1.00000000 0.00000000 0.00000000
vn 1.00000000 0.00000000 0.00000000
vn 1.00000000 0.00000000 0.00000000
vn 1.00000000 0.00000000 0.00000000
vn -1.00000000 0.00000000 0.00000000
vn -1.00000000 0.00000000 0.00000000
vn -1.00000000 0.00000000 0.00000000
vn 1.00000000 0.00000000 0.00000000
vn 1.00000000 0.00000000 0.00000000
vn 1.00000000 0.00000000 0.00000000
vn -1.00000000 0.00000000 0.00000000
vn -1.00000000 0.00000000 0.00000000
vn -1.00000000 0.00000000 0.00000000
vn 1.00000000 0.00000000 0.00000000
vn 1.00000000 0.00000000 0.00000000
vn 1.00000000 0.00000000 0.00000000
vn -1.00000000 0.00000000 0.00000000
vn -1.00000000 0.00000000 0.00000000
vn -1.00000000 0.00000000 0.00000000
vn 1.00000000 0.00000000 0.00000000
vn 1.00000000 0.00000000 0.00000000
vn 1.00000000 0.00000000 0.00000000
vn -1.00000000 0.00000000 0.00000000
vn -1.00000000 0.00000000 0.00000000
vn -1.00000000 0.00000000 0.00000000
vn 1.00000000 0.00000000 0.00000000
vn 1.00000000 0.00000000 0.00000000
vn 1.00000000 0.00000000 0.00000000
vn -1.00000000 0.00000000 0.00000000
vn -1.00000000 0.00000000 0.00000000
vn -1.00000000 0.00000000 0.00000000
vn 1.00000000 0.00000000 0.00000000
vn 1.00000000 0.00000000 0.00000000
vn 1.00000000 0.00000000 0.00000000
vn -1.00000000 0.00000000 0.00000000
vn -1.00000000 0.00000000 0.00000000
vn -1.00000000 0.00000000 0.00000000
vn 1.00000000 0.00000000 0.00000000
vn 1.00000000 0.00000000 0.00000000
vn 1.00000000 0.00000000 0.00000000
vn -1.00000000 0.00000000 0.00000000
vn -1.00000000 0.00000000 0.00000000
vn -1.00000000 0.00000000 0.00000000
vn 1.00000000 0.00000000 0.00000000
vn 1.00000000 0.00000000 0.00000000
vn 1.00000000 0.00000000 0.00000000
vn -1.00000000 0.00000000 0.00000000
vn -1.00000000 0.00000000 0.00000000
vn -1.00000000 0.00000000 0.00000000
vn 1.00000000 0.00000000 0.00000000
vn 1.00000000 0.00000000 0.00000000
vn 1.00000000 0.00000000 0.00000000
vn -1.00000000 0.00000000 0.00000000
vn -1.00000000 0.00000000 0.00000000
vn -1.00000000 0.00000000 0.00000000
vn 1.00000000 0.00000000 0.00000000
vn 1.00000000 0.00000000 0.00000000
vn 1.00000000 0.00000000 0.00000000
vn -1.00000000 0.00000000 0.00000000
vn -1.00000000 0.00000000 0.00000000
vn -1.00000000 0.00000000 0.00000000
vn 1.00000000 0.00000000 0.00000000
vn 1.00000000 0.00000000 0.00000000
vn 1.00000000 0.00000000 0.00000000
vn -1.00000000 0.00000000 0.00000000
vn -1.00000000 0.00000000 0.00000000
vn -1.00000000 0.00000000 0.00000000
vn 0.00000000 1.00000000 0.00000000
vn 0.00000000 1.00000000 0.00000000
vn 0.00000000 1.00000000 0.00000000
vn 0.00000000 -1.00000000 0.00000000
vn 0.00000000 -1.00000000 0.00000000
vn 0.00000000 -1.00000000 0.00000000
vn 0.00000000 1.00000000 0.00000000
vn 0.00000000 1.00000000 0.00000000
vn 0.00000000 1.00000000 0.00000000
vn 0.00000000 -1.00000000 0.00002193
vn 0.00000000 -1.00000000 0.00002193
vn 0.00000000 -1.00000000 0.00002193
vn 0.00000000 1.00000000 0.00000000
vn 0.00000000 1.00000000 0.00000000
vn 0.00000000 1.00000000 0.00000000
vn 0.00000000 -1.00000000 0.00000000
vn 0.00000000 -1.00000000 0.00000000
vn 0.00000000 -1.00000000 0.00000000
vn 0.00000000 1.00000000 -0.00002193
vn 0.00000000 1.00000000 -0.00002193
vn 0.00000000 1.00000000 -0.00002193
vn 0.00000000 -1.00000000 -0.00002193
vn 0.00000000 -1.00000000 -0.00002193
vn 0.00000000 -1.00000000 -0.00002193
vn 0.00000000 1.00000000 0.00000000
vn 0.00000000 1.00000000 0.00000000
vn 0.00000000 1.00000000 0.00000000
vn 0.00000000 -1.00000000 0.00000000
vn 0.00000000 -1.00000000 0.00000000
vn 0.00000000 -1.00000000 0.00000000
vn 0.00000000 1.00000000 0.00000000
vn 0.00000000 1.00000000 0.00000000
vn 0.00000000 1.00000000 0.00000000
vn 0.00000000 -1.00000000 0.00000000
vn 0.00000000 -1.00000000 0.00000000
vn 0.00000000 -1.00000000 0.00000000
vn 0.00000000 1.00000000 0.00002193
vn 0.00000000 1.00000000 0.00002193
vn 0.00000000 1.00000000 0.00002193
vn 0.00000000 -1.00000000 0.00000000
vn 0.00000000 -1.00000000 0.00000000
vn 0.00000000 -1.00000000 0.00000000
vn 0.00000000 1.00000000 0.00002193
vn 0.00000000 1.00000000 0.00002193
vn 0.00000000 1.00000000 0.00002193
vn 0.00000000 -1.00000000 0.00000000
vn 0.00000000 -1.00000000 0.00000000
vn 0.00000000 -1.00000000 0.00000000
vn 0.00000000 1.00000000 0.00000000
vn 0.00000000 1.00000000 0.00000000
vn 0.00000000 1.00000000 0.00000000
vn 0.00000000 -1.00000000 0.00000000
vn 0.00000000 -1.00000000 0.00000000
vn 0.00000000 -1.00000000 0.00000000
vn 0.00000000 1.00000000 0.00000000
vn 0.00000000 1.00000000 0.00000000
vn 0.00000000 1.00000000 0.00000000
vn 0.00000000 -1.00000000 0.00000000
vn 0.00000000 -1.00000000 0.00000000
vn 0.00000000 -1.00000000 0.00000000
vn 0.00000000 1.00000000 0.00000000
vn 0.00000000 1.00000000 0.00000000
vn 0.00000000 1.00000000 0.00000000
vn 0.00000000 -1.00000000 0.00000000
vn 0.00000000 -1.00000000 0.00000000
vn 0.00000000 -1.00000000 0.00000000
vn 0.00000000 1.00000000 0.00002193
vn 0.00000000 1.00000000 0.00002193
vn 0.00000000 1.00000000 0.00002193
vn 0.00000000 -1.00000000 0.00000000
vn 0.00000000 -1.00000000 0.00000000
vn 0.00000000 -1.00000000 0.00000000
vn 0.00000000 1.00000000 0.00002193
vn 0.00000000 1.00000000 0.00002193
vn 0.00000000 1.00000000 0.00002193
vn 0.00000000 -1.00000000 0.00000000
vn 0.00000000 -1.00000000 0.00000000
vn 0.00000000 -1.00000000 0.00000000
vn 0.00000000 1.00000000 0.00000000
vn 0.00000000 1.00000000 0.00000000
vn 0.00000000 1.00000000 0.00000000
vn 0.00000000 -1.00000000 0.00000000
vn 0.00000000 -1.00000000 0.00000000
vn 0.00000000 -1.00000000 0.00000000
vn 0.00000000 1.00000000 0.00002193
vn 0.00000000 1.00000000 0.00002193
vn 0.00000000 1.00000000 0.00002193
vn 0.00000000 -1.00000000 0.00000000
vn 0.00000000 -1.00000000 0.00000000
vn 0.00000000 -1.00000000 0.00000000
vn 0.00000000 1.00000000 0.00000000
vn 0.00000000 1.00000000 0.00000000
vn 0.00000000 1.00000000 0.00000000
vn 0.00000000 -1.00000000 0.00000000
vn 0.00000000 -1.00000000 0.00000000
vn 0.00000000 -1.00000000 0.00000000
vn 0.00000007 0.86602690 -0.49999760
vn 0.00000007 0.86602690 -0.49999760
vn 0.00000007 0.86602690 -0.49999760
vn 0.00000007 0.86602690 -0.49999760
vn -0.00000007 -0.86602690 -0.49999760
vn -0.00000007 -0.86602690 -0.49999760
vn -0.00000007 -0.86602690 -0.49999760
vn -0.00000007 -0.86602690 -0.49999760
vn 0.00000000 0.00000000 1.00000000
vn 0.00000000 0.00000000 1.00000000
vn 0.00000000 0.00000000 1.00000000
vn 0.00000000 0.00000000 1.00000000
vn 0.00000000 0.86602030 -0.50000870
vn 0.00000000 0.86602030 -0.50000870
vn 0.00000000 0.86602030 -0.50000870
vn 0.00000000 0.86602030 -0.50000870
vn 0.00000000 -0.86602030 -0.50000870
vn 0.00000000 -0.86602030 -0.50000870
vn 0.00000000 -0.86602030 -0.50000870
vn 0.00000000 -0.86602030 -0.50000870
vn 0.00000000 0.00000000 1.00000000
vn 0.00000000 0.00000000 1.00000000
vn 0.00000000 0.00000000 1.00000000
vn 0.00000000 0.00000000 1.00000000
vn 0.00000000 -0.86602370 -0.50000290
vn 0.00000000 -0.86602370 -0.50000290
vn 0.00000000 -0.86602370 -0.50000290
vn 0.00000000 -0.86602370 -0.50000290
vn 0.00000000 0.00000000 1.00000000
vn 0.00000000 0.00000000 1.00000000
vn 0.00000000 0.00000000 1.00000000
vn 0.00000000 0.00000000 1.00000000
vn 0.00000000 0.86602370 -0.50000290
vn 0.00000000 0.86602370 -0.50000290
vn 0.00000000 0.86602370 -0.50000290
vn 0.00000000 0.86602370 -0.50000290
vn 0.00000000 -0.86602960 -0.49999260
vn 0.00000000 -0.86602960 -0.49999260
vn 0.00000000 -0.86602960 -0.49999260
vn 0.00000000 -0.86602960 -0.49999260
vn 0.00000000 0.00000000 1.00000000
vn 0.00000000 0.00000000 1.00000000
vn 0.00000000 0.00000000 1.00000000
vn 0.00000000 0.00000000 1.00000000
vn 0.00000000 0.86602960 -0.49999260
vn 0.00000000 0.86602960 -0.49999260
vn 0.00000000 0.86602960 -0.49999260
vn 0.00000000 0.86602960 -0.49999260
vn -0.00000006 -0.86602460 -0.50000140
vn -0.00000006 -0.86602460 -0.50000140
vn -0.00000006 -0.86602460 -0.50000140
vn -0.00000006 -0.86602460 -0.50000140
vn 0.00000000 0.00000000 1.00000000
vn 0.00000000 0.00000000 1.00000000
vn 0.00000000 0.00000000 1.00000000
vn 0.00000000 0.00000000 1.00000000
vn 0.00000006 0.86602460 -0.50000140
vn 0.00000006 0.86602460 -0.50000140
vn 0.00000006 0.86602460 -0.50000140
vn 0.00000006 0.86602460 -0.50000140
vn 0.00000007 0.86601870 -0.50001170
vn 0.00000007 0.86601870 -0.50001170
vn 0.00000007 0.86601870 -0.50001170
vn 0.00000007 0.86601870 -0.50001170
vn 0.00000000 -0.86602530 -0.50000030
vn 0.00000000 -0.86602530 -0.50000030
vn 0.00000000 -0.86602530 -0.50000030
vn 0.00000000 -0.86602530 -0.50000030
vn 0.00000000 0.00000000 1.00000000
vn 0.00000000 0.00000000 1.00000000
vn 0.00000000 0.00000000 1.00000000
vn 0.00000000 0.00000000 1.00000000
vn -0.00000006 -0.86603550 -0.49998270
vn -0.00000006 -0.86603550 -0.49998270
vn -0.00000006 -0.86603550 -0.49998270
vn -0.00000006 -0.86603550 -0.49998270
vn 0.00000006 0.86602930 -0.49999340
vn 0.00000006 0.86602930 -0.49999340
vn 0.00000006 0.86602930 -0.49999340
vn 0.00000006 0.86602930 -0.49999340
vn 0.00000000 0.00000000 1.00000000
vn 0.00000000 0.00000000 1.00000000
vn 0.00000000 0.00000000 1.00000000
vn 0.00000000 0.00000000 1.00000000
vn -0.00000006 -0.86601830 -0.50001250
vn -0.00000006 -0.86601830 -0.50001250
vn -0.00000006 -0.86601830 -0.50001250
vn -0.00000006 -0.86601830 -0.50001250
vn 0.00000000 0.00000000 1.00000000
vn 0.00000000 0.00000000 1.00000000
vn 0.00000000 0.00000000 1.00000000
vn 0.00000000 0.00000000 1.00000000
vn 0.00000006 0.86602440 -0.50000160
vn 0.00000006 0.86602440 -0.50000160
vn 0.00000006 0.86602440 -0.50000160
vn 0.00000006 0.86602440 -0.50000160
vn 0.00000000 -0.86602530 -0.50000030
vn 0.00000000 -0.86602530 -0.50000030
vn 0.00000000 -0.86602530 -0.50000030
vn 0.00000000 -0.86602530 -0.50000030
vn 0.00000000 0.00000000 1.00000000
vn 0.00000000 0.00000000 1.00000000
vn 0.00000000 0.00000000 1.00000000
vn 0.00000000 0.00000000 1.00000000
vn 0.00000007 0.86603190 -0.49998890
vn 0.00000007 0.86603190 -0.49998890
vn 0.00000007 0.86603190 -0.49998890
vn 0.00000007 0.86603190 -0.49998890
vn 0.00000000 -0.86602330 -0.50000360
vn 0.00000000 -0.86602330 -0.50000360
vn 0.00000000 -0.86602330 -0.50000360
vn 0.00000000 -0.86602330 -0.50000360
vn 0.00000000 0.00000000 1.00000000
vn 0.00000000 0.00000000 1.00000000
vn 0.00000000 0.00000000 1.00000000
vn 0.00000000 0.00000000 1.00000000
vn 0.00000000 0.86603030 -0.49999150
vn 0.00000000 0.86603030 -0.49999150
vn 0.00000000 0.86603030 -0.49999150
vn 0.00000000 0.86603030 -0.49999150
vn 0.00000000 -0.86602040 -0.50000870
vn 0.00000000 -0.86602040 -0.50000870
vn 0.00000000 -0.86602040 -0.50000870
vn 0.00000000 -0.86602040 -0.50000870
vn 0.00000000 0.00000000 1.00000000
vn 0.00000000 0.00000000 1.00000000
vn 0.00000000 0.00000000 1.00000000
vn 0.00000000 0.00000000 1.00000000
vn 0.00000000 0.86602800 -0.49999560
vn 0.00000000 0.86602800 -0.49999560
vn 0.00000000 0.86602800 -0.49999560
vn 0.00000000 0.86602800 -0.49999560
vn -0.00000012 -0.86601830 -0.50001250
vn -0.00000012 -0.86601830 -0.50001250
vn -0.00000012 -0.86601830 -0.50001250
vn -0.00000012 -0.86601830 -0.50001250
vn 0.00000012 0.86603700 -0.49997990
vn 0.00000012 0.86603700 -0.49997990
vn 0.00000012 0.86603700 -0.49997990
vn 0.00000012 0.86603700 -0.49997990
vn 0.00000000 0.00000000 1.00000000
vn 0.00000000 0.00000000 1.00000000
vn 0.00000000 0.00000000 1.00000000
vn 0.00000000 0.00000000 1.00000000
vn -0.00000012 -0.86602310 -0.50000410
vn -0.00000012 -0.86602310 -0.50000410
vn -0.00000012 -0.86602310 -0.50000410
vn -0.00000012 -0.86602310 -0.50000410
vn 0.00000000 0.00000000 1.00000000
vn 0.00000000 0.00000000 1.00000000
vn 0.00000000 0.00000000 1.00000000
vn 0.00000000 0.00000000 1.00000000
vn 0.00000006 0.86601690 -0.50001470
vn 0.00000006 0.86601690 -0.50001470
vn 0.00000006 0.86601690 -0.50001470
vn 0.00000006 0.86601690 -0.50001470
vn 0.00000000 -0.86603070 -0.49999080
vn 0.00000000 -0.86603070 -0.49999080
vn 0.00000000 -0.86603070 -0.49999080
vn 0.00000000 -0.86603070 -0.49999080
vn 0.00000000 0.00000000 1.00000000
vn 0.00000000 0.00000000 1.00000000
vn 0.00000000 0.00000000 1.00000000
vn 0.00000000 0.00000000 1.00000000
vn 0.00000000 0.86602460 -0.50000140
vn 0.00000000 0.86602460 -0.50000140
vn 0.00000000 0.86602460 -0.50000140
vn 0.00000000 0.86602460 -0.50000140
vn 0.00000000 -0.86602370 -0.50000290
vn 0.00000000 -0.86602370 -0.50000290
vn 0.00000000 -0.86602370 -0.50000290
vn 0.00000000 -0.86602370 -0.50000290
vn 0.00000000 0.00000000 1.00000000
vn 0.00000000 0.00000000 1.00000000
vn 0.00000000 0.00000000 1.00000000
vn 0.00000000 0.00000000 1.00000000
vn 0.00000000 0.86602960 -0.49999260
vn 0.00000000 0.86602960 -0.49999260
vn 0.00000000 0.86602960 -0.49999260
vn 0.00000000 0.86602960 -0.49999260
vn 0.00000000 -0.86602370 -0.50000290
vn 0.00000000 -0.86602370 -0.50000290
vn 0.00000000 -0.86602370 -0.50000290
vn 0.00000000 -0.86602370 -0.50000290
vn 0.00000000 0.00000000 1.00000000
vn 0.00000000 0.00000000 1.00000000
vn 0.00000000 0.00000000 1.00000000
vn 0.00000000 0.00000000 1.00000000
vn 0.00000000 0.86601780 -0.50001320
vn 0.00000000 0.86601780 -0.50001320
vn 0.00000000 0.86601780 -0.50001320
vn 0.00000000 0.86601780 -0.50001320
vn -0.00000008 -0.86602400 -0.50000260
vn -0.00000008 -0.86602400 -0.50000260
vn -0.00000008 -0.86602400 -0.50000260
vn -0.00000008 -0.86602400 -0.50000260
vn 0.00000000 0.00000000 1.00000000
vn 0.00000000 0.00000000 1.00000000
vn 0.00000000 0.00000000 1.00000000
vn 0.00000000 0.00000000 1.00000000
vn 0.00000008 0.86602000 -0.50000930
vn 0.00000008 0.86602000 -0.50000930
vn 0.00000008 0.86602000 -0.50000930
vn 0.00000008 0.86602000 -0.50000930
vn 0.00000000 -0.86602470 -0.50000130
vn 0.00000000 -0.86602470 -0.50000130
vn 0.00000000 -0.86602470 -0.50000130
vn 0.00000000 -0.86602470 -0.50000130
vn 0.00000000 0.00000000 1.00000000
vn 0.00000000 0.00000000 1.00000000
vn 0.00000000 0.00000000 1.00000000
vn 0.00000000 0.00000000 1.00000000
vn 0.00000008 0.86602880 -0.49999400
vn 0.00000008 0.86602880 -0.49999400
vn 0.00000008 0.86602880 -0.49999400
vn 0.00000008 0.86602880 -0.49999400
vn 0.00000000 -0.86602000 -0.50000950
vn 0.00000000 -0.86602000 -0.50000950
vn 0.00000000 -0.86602000 -0.50000950
vn 0.00000000 -0.86602000 -0.50000950
vn 0.00000000 0.00000000 1.00000000
vn 0.00000000 0.00000000 1.00000000
vn 0.00000000 0.00000000 1.00000000
vn 0.00000000 0.00000000 1.00000000
vn 0.00000000 0.86602930 -0.49999340
vn 0.00000000 0.86602930 -0.49999340
vn 0.00000000 0.86602930 -0.49999340
vn 0.00000000 0.86602930 -0.49999340
vn 0.00000000 -0.86602550 -0.49999990
vn 0.00000000 -0.86602550 -0.49999990
vn 0.00000000 -0.86602550 -0.49999990
vn 0.00000000 -0.86602550 -0.49999990
vn 0.00000000 0.00000000 1.00000000
vn 0.00000000 0.00000000 1.00000000
vn 0.00000000 0.00000000 1.00000000
vn 0.00000000 0.00000000 1.00000000
vn 0.00000010 0.86603560 -0.49998240
vn 0.00000010 0.86603560 -0.49998240
vn 0.00000010 0.86603560 -0.49998240
vn 0.00000010 0.86603560 -0.49998240
vn 0.00000000 0.86603490 -0.49998360
vn 0.00000000 0.86603490 -0.49998360
vn 0.00000000 0.86603490 -0.49998360
vn 0.00000000 0.86603490 -0.49998360
vn 0.00000000 -0.86601870 -0.50001160
vn 0.00000000 -0.86601870 -0.50001160
vn 0.00000000 -0.86601870 -0.50001160
vn 0.00000000 -0.86601870 -0.50001160
vn 0.00000000 0.00000000 1.00000000
vn 0.00000000 0.00000000 1.00000000
vn 0.00000000 0.00000000 1.00000000
vn 0.00000000 0.00000000 1.00000000
vn 0.00000009 0.86602510 -0.50000050
vn 0.00000009 0.86602510 -0.50000050
vn 0.00000009 0.86602510 -0.50000050
vn 0.00000009 0.86602510 -0.50000050
vn 0.00000000 -0.86602510 -0.50000050
vn 0.00000000 -0.86602510 -0.50000050
vn 0.00000000 -0.86602510 -0.50000050
vn 0.00000000 -0.86602510 -0.50000050
vn 0.00000000 0.00000000 1.00000000
vn 0.00000000 0.00000000 1.00000000
vn 0.00000000 0.00000000 1.00000000
vn 0.00000000 0.00000000 1.00000000
vn -0.86602560 0.00000000 -0.49999970
vn -0.86602560 0.00000000 -0.49999970
vn -0.86602560 0.00000000 -0.49999970
vn -0.86602560 0.00000000 -0.49999970
vn 0.86602440 0.00000000 -0.50000190
vn 0.86602440 0.00000000 -0.50000190
vn 0.86602440 0.00000000 -0.50000190
vn 0.86602440 0.00000000 -0.50000190
vn 0.00000000 0.00000000 1.00000000
vn 0.00000000 0.00000000 1.00000000
vn 0.00000000 0.00000000 1.00000000
vn 0.00000000 0.00000000 1.00000000
vn -0.86602560 0.00000000 -0.49999960
vn -0.86602560 0.00000000 -0.49999960
vn -0.86602560 0.00000000 -0.49999960
vn -0.86602560 0.00000000 -0.49999960
vn 0.86602290 0.00000000 -0.50000420
vn 0.86602290 0.00000000 -0.50000420
vn 0.86602290 0.00000000 -0.50000420
vn 0.86602290 0.00000000 -0.50000420
vn 0.00000000 0.00000000 1.00000000
vn 0.00000000 0.00000000 1.00000000
vn 0.00000000 0.00000000 1.00000000
vn 0.00000000 0.00000000 1.00000000
vn 0.86602460 0.00000000 -0.50000140
vn 0.86602460 0.00000000 -0.50000140
vn 0.86602460 0.00000000 -0.50000140
vn 0.86602460 0.00000000 -0.50000140
vn 0.00000000 0.00000000 1.00000000
vn 0.00000000 0.00000000 1.00000000
vn 0.00000000 0.00000000 1.00000000
vn 0.00000000 0.00000000 1.00000000
vn -0.86602560 0.00000000 -0.49999970
vn -0.86602560 0.00000000 -0.49999970
vn -0.86602560 0.00000000 -0.49999970
vn -0.86602560 0.00000000 -0.49999970
vn 0.86602500 0.00000000 -0.50000080
vn 0.86602500 0.00000000 -0.50000080
vn 0.86602500 0.00000000 -0.50000080
vn 0.86602500 0.00000000 -0.50000080
vn 0.00000000 0.00000000 1.00000000
vn 0.00000000 0.00000000 1.00000000
vn 0.00000000 0.00000000 1.00000000
vn 0.00000000 0.00000000 1.00000000
vn -0.86602530 0.00000000 -0.50000020
vn -0.86602530 0.00000000 -0.50000020
vn -0.86602530 0.00000000 -0.50000020
vn -0.86602530 0.00000000 -0.50000020
vn 0.86602530 0.00000000 -0.50000020
vn 0.86602530 0.00000000 -0.50000020
vn 0.86602530 0.00000000 -0.50000020
vn 0.86602530 0.00000000 -0.50000020
vn 0.00000000 0.00000000 1.00000000
vn 0.00000000 0.00000000 1.00000000
vn 0.00000000 0.00000000 1.00000000
vn 0.00000000 0.00000000 1.00000000
vn -0.86602560 0.00000000 -0.49999960
vn -0.86602560 0.00000000 -0.49999960
vn -0.86602560 0.00000000 -0.49999960
vn -0.86602560 0.00000000 -0.49999960
vn -0.86602560 0.00000000 -0.49999970
vn -0.86602560 0.00000000 -0.49999970
vn -0.86602560 0.00000000 -0.49999970
vn -0.86602560 0.00000000 -0.49999970
vn 0.86602430 0.00000000 -0.50000190
vn 0.86602430 0.00000000 -0.50000190
vn 0.86602430 0.00000000 -0.50000190
vn 0.86602430 0.00000000 -0.50000190
vn 0.00000000 0.00000000 1.00000000
vn 0.00000000 0.00000000 1.00000000
vn 0.00000000 0.00000000 1.00000000
vn 0.00000000 0.00000000 1.00000000
vn 0.86602490 0.00000000 -0.50000080
vn 0.86602490 0.00000000 -0.50000080
vn 0.86602490 0.00000000 -0.50000080
vn 0.86602490 0.00000000 -0.50000080
vn -0.86602560 0.00000000 -0.49999960
vn -0.86602560 0.00000000 -0.49999960
vn -0.86602560 0.00000000 -0.49999960
vn -0.86602560 0.00000000 -0.49999960
vn 0.00000000 0.00000000 1.00000000
vn 0.00000000 0.00000000 1.00000000
vn 0.00000000 0.00000000 1.00000000
vn 0.00000000 0.00000000 1.00000000
vn 0.86602490 0.00000000 -0.50000080
vn 0.86602490 0.00000000 -0.50000080
vn 0.86602490 0.00000000 -0.50000080
vn 0.86602490 0.00000000 -0.50000080
vn 0.00000000 0.00000000 1.00000000
vn 0.00000000 0.00000000 1.00000000
vn 0.00000000 0.00000000 1.00000000
vn 0.00000000 0.00000000 1.00000000
vn -0.86602560 0.00000000 -0.49999960
vn -0.86602560 0.00000000 -0.49999960
vn -0.86602560 0.00000000 -0.49999960
vn -0.86602560 0.00000000 -0.49999960
vn 0.86602560 0.00000000 -0.49999970
vn 0.86602560 0.00000000 -0.49999970
vn 0.86602560 0.00000000 -0.49999970
vn 0.86602560 0.00000000 -0.49999970
vn 0.00000000 0.00000000 1.00000000
vn 0.00000000 0.00000000 1.00000000
vn 0.00000000 0.00000000 1.00000000
vn 0.00000000 0.00000000 1.00000000
vn -0.86602560 0.00000000 -0.49999970
vn -0.86602560 0.00000000 -0.49999970
vn -0.86602560 0.00000000 -0.49999970
vn -0.86602560 0.00000000 -0.49999970
vn 0.86602560 0.00000000 -0.49999970
vn 0.86602560 0.00000000 -0.49999970
vn 0.86602560 0.00000000 -0.49999970
vn 0.86602560 0.00000000 -0.49999970
vn 0.00000000 0.00000000 1.00000000
vn 0.00000000 0.00000000 1.00000000
vn 0.00000000 0.00000000 1.00000000
vn 0.00000000 0.00000000 1.00000000
vn -0.86602560 0.00000000 -0.49999970
vn -0.86602560 0.00000000 -0.49999970
vn -0.86602560 0.00000000 -0.49999970
vn -0.86602560 0.00000000 -0.49999970
vn 0.86602560 0.00000000 -0.49999960
vn 0.86602560 0.00000000 -0.49999960
vn 0.86602560 0.00000000 -0.49999960
vn 0.86602560 0.00000000 -0.49999960
vn 0.00000000 0.00000000 1.00000000
vn 0.00000000 0.00000000 1.00000000
vn 0.00000000 0.00000000 1.00000000
vn 0.00000000 0.00000000 1.00000000
vn -0.86602560 0.00000000 -0.49999960
vn -0.86602560 0.00000000 -0.49999960
vn -0.86602560 0.00000000 -0.49999960
vn -0.86602560 0.00000000 -0.49999960
vn 0.86602490 0.00000000 -0.50000080
vn 0.86602490 0.00000000 -0.50000080
vn 0.86602490 0.00000000 -0.50000080
vn 0.86602490 0.00000000 -0.50000080
vn -0.86602560 0.00000000 -0.49999960
vn -0.86602560 0.00000000 -0.49999960
vn -0.86602560 0.00000000 -0.49999960
vn -0.86602560 0.00000000 -0.49999960
vn 0.00000000 0.00000000 1.00000000
vn 0.00000000 0.00000000 1.00000000
vn 0.00000000 0.00000000 1.00000000
vn 0.00000000 0.00000000 1.00000000
vn 0.86602490 0.00000000 -0.50000080
vn 0.86602490 0.00000000 -0.50000080
vn 0.86602490 0.00000000 -0.50000080
vn 0.86602490 0.00000000 -0.50000080
vn 0.00000000 0.00000000 1.00000000
vn 0.00000000 0.00000000 1.00000000
vn 0.00000000 0.00000000 1.00000000
vn 0.00000000 0.00000000 1.00000000
vn -0.86602560 0.00000000 -0.49999960
vn -0.86602560 0.00000000 -0.49999960
vn -0.86602560 0.00000000 -0.49999960
vn -0.86602560 0.00000000 -0.49999960
vn 0.86602560 0.00000000 -0.49999960
vn 0.86602560 0.00000000 -0.49999960
vn 0.86602560 0.00000000 -0.49999960
vn 0.86602560 0.00000000 -0.49999960
vn 0.00000000 0.00000000 1.00000000
vn 0.00000000 0.00000000 1.00000000
vn 0.00000000 0.00000000 1.00000000
vn 0.00000000 0.00000000 1.00000000
vn -0.86602530 0.00000000 -0.50000020
vn -0.86602530 0.00000000 -0.50000020
vn -0.86602530 0.00000000 -0.50000020
vn -0.86602530 0.00000000 -0.50000020
vn 0.86602580 0.00000000 -0.49999940
vn 0.86602580 0.00000000 -0.49999940
vn 0.86602580 0.00000000 -0.49999940
vn 0.86602580 0.00000000 -0.49999940
vn 0.00000000 0.00000000 1.00000000
vn 0.00000000 0.00000000 1.00000000
vn 0.00000000 0.00000000 1.00000000
vn 0.00000000 0.00000000 1.00000000
vn -0.86602560 0.00000000 -0.49999970
vn -0.86602560 0.00000000 -0.49999970
vn -0.86602560 0.00000000 -0.49999970
vn -0.86602560 0.00000000 -0.49999970
vn 0.86602550 0.00000000 -0.49999970
vn 0.86602550 0.00000000 -0.49999970
vn 0.86602550 0.00000000 -0.49999970
vn 0.86602550 0.00000000 -0.49999970
vn 0.00000000 0.00000000 1.00000000
vn 0.00000000 0.00000000 1.00000000
vn 0.00000000 0.00000000 1.00000000
vn 0.00000000 0.00000000 1.00000000
vn -0.86602560 0.00000000 -0.49999970
vn -0.86602560 0.00000000 -0.49999970
vn -0.86602560 0.00000000 -0.49999970
vn -0.86602560 0.00000000 -0.49999970
vt 0.29930380 0.50571770
vt 0.31911040 0.50571770
vt 0.30920700 0.48856460
vt 0.30920720 0.48856460
vt 0.31911040 0.50571770
vt 0.29930380 0.50571770
vt 0.38618300 0.50571770
vt 0.40598990 0.50571770
vt 0.39608650 0.48856460
vt 0.39608650 0.48856460
vt 0.40598990 0.50571770
vt 0.38618300 0.50571770
vt 0.64025950 0.50571770
vt 0.66006610 0.50571770
vt 0.65016290 0.48856460
vt 0.65016290 0.48856460
vt 0.66006640 0.50571770
vt 0.64025950 0.50571770
vt 0.55338000 0.50571770
vt 0.57318660 0.50571770
vt 0.56328340 0.48856460
vt 0.56328340 0.48856460
vt 0.57318690 0.50571770
vt 0.55338030 0.50571770
vt 0.45142250 0.50571770
vt 0.47122910 0.50571770
vt 0.46132560 0.48856460
vt 0.46132590 0.48856460
vt 0.47122910 0.50571770
vt 0.45142250 0.50571770
vt 0.19734600 0.50571770
vt 0.21715260 0.50571770
vt 0.20724940 0.48856460
vt 0.20724940 0.48856460
vt 0.21715280 0.50571770
vt 0.19734600 0.50571770
vt 0.35423230 0.50571770
vt 0.37403890 0.50571770
vt 0.36413570 0.48856460
vt 0.36413570 0.48856460
vt 0.37403920 0.50571770
vt 0.35423250 0.50571770
vt 0.26907610 0.50571770
vt 0.28888270 0.50571770
vt 0.27897950 0.48856460
vt 0.27897950 0.48856460
vt 0.28888300 0.50571770
vt 0.26907630 0.50571770
vt 0.18219690 0.50571770
vt 0.20200320 0.50571770
vt 0.19210000 0.48856460
vt 0.19210000 0.48856460
vt 0.20200350 0.50571770
vt 0.18219690 0.50571770
vt 0.08023906 0.50571770
vt 0.10004570 0.50571770
vt 0.09014249 0.48856460
vt 0.09014249 0.48856460
vt 0.10004570 0.50571770
vt 0.08023906 0.50571770
vt 0.98546150 0.50571770
vt 1.00526800 0.50571770
vt 0.99536490 0.48856460
vt 0.99536490 0.48856460
vt 1.00526800 0.50571770
vt 0.98546150 0.50571770
vt 0.10015580 0.50571770
vt 0.11996250 0.50571770
vt 0.11005930 0.48856460
vt 0.11005950 0.48856460
vt 0.11996270 0.50571770
vt 0.10015610 0.50571770
vt 0.01499963 0.50571770
vt 0.03480649 0.50571770
vt 0.02490306 0.48856460
vt 0.02490330 0.48856460
vt 0.03480649 0.50571770
vt 0.01499987 0.50571770
vt 0.92812040 0.50571770
vt 0.94792700 0.50571770
vt 0.93802360 0.48856460
vt 0.93802360 0.48856460
vt 0.94792700 0.50571770
vt 0.92812040 0.50571770
vt 0.82616260 0.50571770
vt 0.84596920 0.50571770
vt 0.83606600 0.48856460
vt 0.83606600 0.48856460
vt 0.84596920 0.50571770
vt 0.82616260 0.50571770
vt 0.73138500 0.50571770
vt 0.75119160 0.50571770
vt 0.74128840 0.48856460
vt 0.74128840 0.48856460
vt 0.75119190 0.50571770
vt 0.73138520 0.50571770
vt 0.92338970 0.50571770
vt 0.94319630 0.50571770
vt 0.93329310 0.48856460
vt 0.93329310 0.48856460
vt 0.94319650 0.50571770
vt 0.92338990 0.50571770
vt 0.83651040 0.50571770
vt 0.85631680 0.50571770
vt 0.84641360 0.48856460
vt 0.84641360 0.48856460
vt 0.85631700 0.50571770
vt 0.83651040 0.50571770
vt 0.73455260 0.50571770
vt 0.75435920 0.50571770
vt 0.74445610 0.48856460
vt 0.74445610 0.48856460
vt 0.75435920 0.50571770
vt 0.73455260 0.50571770
vt 0.63977500 0.50571770
vt 0.65958140 0.50571770
vt 0.64967850 0.48856460
vt 0.64967850 0.48856460
vt 0.65958170 0.50571770
vt 0.63977500 0.50571770
vt 0.60750990 0.50571770
vt 0.62731620 0.50571770
vt 0.61741330 0.48856460
vt 0.61741330 0.48856460
vt 0.62731620 0.50571770
vt 0.60750990 0.50571770
vt 0.50555210 0.50571770
vt 0.52535870 0.50571770
vt 0.51545550 0.48856460
vt 0.51545550 0.48856460
vt 0.52535890 0.50571770
vt 0.50555210 0.50571770
vt 0.89610910 0.50571770
vt 0.87630240 0.50571770
vt 0.88620570 0.48856460
vt 0.88620570 0.48856460
vt 0.87630240 0.50571770
vt 0.89610910 0.50571770
vt 0.80922970 0.50571770
vt 0.78942300 0.50571770
vt 0.79932630 0.48856460
vt 0.79932630 0.48856460
vt 0.78942300 0.50571770
vt 0.80922970 0.50571770
vt 0.55515330 0.50571770
vt 0.53534660 0.50571770
vt 0.54524990 0.48856460
vt 0.54524990 0.48856460
vt 0.53534660 0.50571770
vt 0.55515330 0.50571770
vt 0.64203270 0.50571770
vt 0.62222600 0.50571770
vt 0.63212930 0.48856460
vt 0.63212930 0.48856460
vt 0.62222600 0.50571770
vt 0.64203270 0.50571770
vt 0.74399030 0.50571770
vt 0.72418370 0.50571770
vt 0.73408700 0.48856460
vt 0.73408700 0.48856460
vt 0.72418370 0.50571770
vt 0.74399030 0.50571770
vt 0.99806680 0.50571770
vt 0.97826010 0.50571770
vt 0.98816340 0.48856460
vt 0.98816340 0.48856460
vt 0.97826010 0.50571770
vt 0.99806680 0.50571770
vt 0.84118040 0.50571770
vt 0.82137380 0.50571770
vt 0.83127710 0.48856460
vt 0.83127710 0.48856460
vt 0.82137380 0.50571770
vt 0.84118040 0.50571770
vt 0.92633660 0.50571770
vt 0.90653000 0.50571770
vt 0.91643330 0.48856460
vt 0.91643330 0.48856460
vt 0.90653000 0.50571770
vt 0.92633660 0.50571770
vt 0.01321602 0.50571770
vt -0.00659061 0.50571770
vt 0.00331271 0.48856460
vt 0.00331271 0.48856460
vt -0.00659061 0.50571770
vt 0.01321602 0.50571770
vt 0.11517370 0.50571770
vt 0.09536707 0.50571770
vt 0.10527040 0.48856460
vt 0.10527040 0.48856460
vt 0.09536707 0.50571770
vt 0.11517370 0.50571770
vt 0.20995130 0.50571770
vt 0.19014470 0.50571770
vt 0.20004800 0.48856460
vt 0.20004800 0.48856460
vt 0.19014470 0.50571770
vt 0.20995130 0.50571770
vt 0.09525684 0.50571770
vt 0.07545018 0.50571770
vt 0.08535349 0.48856460
vt 0.08535349 0.48856460
vt 0.07545018 0.50571770
vt 0.09525684 0.50571770
vt 0.18041300 0.50571770
vt 0.16060640 0.50571770
vt 0.17050970 0.48856460
vt 0.17050970 0.48856460
vt 0.16060640 0.50571770
vt 0.18041300 0.50571770
vt 0.26729240 0.50571770
vt 0.24748580 0.50571770
vt 0.25738910 0.48856460
vt 0.25738910 0.48856460
vt 0.24748580 0.50571770
vt 0.26729240 0.50571770
vt 0.36925010 0.50571770
vt 0.34944350 0.50571770
vt 0.35934680 0.48856460
vt 0.35934680 0.48856460
vt 0.34944350 0.50571770
vt 0.36925010 0.50571770
vt 0.46402770 0.50571770
vt 0.44422110 0.50571770
vt 0.45412440 0.48856460
vt 0.45412440 0.48856460
vt 0.44422110 0.50571770
vt 0.46402770 0.50571770
vt 0.75078870 0.50571770
vt 0.75078870 0.48856460
vt 2.24096800 0.48856460
vt 2.24096800 0.50571770
vt 0.75078870 0.48856460
vt 0.75078870 0.50571770
vt 2.24096800 0.50571770
vt 2.24096800 0.48856460
vt 0.75078870 0.29930380
vt 0.75078870 0.31911040
vt 2.24096800 0.31911040
vt 2.24096800 0.29930380
vt 0.80890710 0.50571770
vt 0.80890710 0.48856460
vt 2.18656900 0.48856460
vt 2.18656900 0.50571770
vt 0.80890710 0.48856460
vt 0.80890710 0.50571770
vt 2.18656900 0.50571770
vt 2.18656900 0.48856460
vt 0.80890710 0.38618300
vt 0.80890710 0.40598990
vt 2.18656900 0.40598990
vt 2.18656900 0.38618300
vt 0.62653150 0.48856460
vt 0.62653150 0.50571770
vt 2.38276000 0.50571770
vt 2.38276000 0.48856460
vt 0.62653150 0.64025950
vt 0.62653150 0.66006640
vt 2.38276000 0.66006610
vt 2.38276000 0.64025950
vt 0.62653150 0.50571770
vt 0.62653150 0.48856460
vt 2.38276000 0.48856460
vt 2.38276000 0.50571770
vt 0.62653150 0.48856460
vt 0.62653150 0.50571770
vt 2.38276000 0.50571770
vt 2.38276000 0.48856460
vt 0.62653150 0.55338030
vt 0.62653150 0.57318690
vt 2.38276000 0.57318660
vt 2.38276000 0.55338000
vt 0.62653150 0.50571770
vt 0.62653150 0.48856460
vt 2.38276000 0.48856460
vt 2.38276000 0.50571770
vt 0.63901980 0.48856460
vt 0.63901980 0.50571770
vt 2.35447400 0.50571770
vt 2.35447400 0.48856460
vt 0.63901980 0.45142250
vt 0.63901980 0.47122910
vt 2.35447400 0.47122910
vt 2.35447400 0.45142250
vt 0.63901980 0.50571770
vt 0.63901980 0.48856460
vt 2.35447400 0.48856460
vt 2.35447400 0.50571770
vt 0.70217000 0.50571770
vt 0.70217000 0.48856460
vt 2.28570000 0.48856460
vt 2.28570000 0.50571770
vt 0.70217000 0.48856460
vt 0.70217000 0.50571770
vt 2.28570000 0.50571770
vt 2.28570000 0.48856460
vt 0.70217000 0.19734600
vt 0.70217000 0.21715280
vt 2.28570000 0.21715260
vt 2.28570000 0.19734600
vt 0.65331570 0.48856460
vt 0.65331560 0.50571770
vt 2.34839100 0.50571770
vt 2.34839100 0.48856460
vt 0.65331570 0.50571770
vt 0.65331570 0.48856460
vt 2.34839100 0.48856460
vt 2.34839100 0.50571770
vt 0.65331560 0.35423250
vt 0.65331570 0.37403920
vt 2.34839100 0.37403890
vt 2.34839100 0.35423230
vt 0.66737690 0.48856460
vt 0.66737690 0.50571770
vt 2.33034800 0.50571770
vt 2.33034800 0.48856460
vt 0.66737690 0.26907630
vt 0.66737690 0.28888300
vt 2.33034800 0.28888270
vt 2.33034800 0.26907610
vt 0.66737690 0.50571770
vt 0.66737690 0.48856460
vt 2.33034800 0.48856460
vt 2.33034800 0.50571770
vt 0.70217000 0.48856460
vt 0.70217000 0.50571770
vt 2.28570000 0.50571770
vt 2.28570000 0.48856460
vt 0.70217000 0.18219690
vt 0.70217000 0.20200350
vt 2.28570000 0.20200320
vt 2.28570000 0.18219690
vt 0.70217000 0.50571770
vt 0.70217000 0.48856460
vt 2.28570000 0.48856460
vt 2.28570000 0.50571770
vt 0.75078870 0.48856460
vt 0.75078870 0.50571770
vt 2.24096800 0.50571770
vt 2.24096800 0.48856460
vt 0.75078870 0.08023906
vt 0.75078870 0.10004570
vt 2.24096800 0.10004570
vt 2.24096800 0.08023906
vt 0.75078870 0.50571770
vt 0.75078870 0.48856460
vt 2.24096800 0.48856460
vt 2.24096800 0.50571770
vt 0.80890700 0.48856460
vt 0.80890700 0.50571770
vt 2.18656900 0.50571770
vt 2.18656900 0.48856460
vt 0.80890700 0.98546150
vt 0.80890700 1.00526800
vt 2.18656900 1.00526800
vt 2.18656900 0.98546150
vt 0.80890700 0.50571770
vt 0.80890700 0.48856460
vt 2.18656900 0.48856460
vt 2.18656900 0.50571770
vt 0.66737690 0.48856460
vt 0.66737690 0.50571770
vt 2.33034800 0.50571770
vt 2.33034800 0.48856460
vt 0.66737690 0.50571770
vt 0.66737690 0.48856460
vt 2.33034800 0.48856460
vt 2.33034800 0.50571770
vt 0.66737690 0.10015610
vt 0.66737690 0.11996270
vt 2.33034800 0.11996250
vt 2.33034800 0.10015580
vt 0.65331570 0.48856460
vt 0.65331570 0.50571770
vt 2.34839100 0.50571770
vt 2.34839100 0.48856460
vt 0.65331570 0.01499987
vt 0.65331570 0.03480649
vt 2.34839100 0.03480649
vt 2.34839100 0.01499963
vt 0.65331570 0.50571770
vt 0.65331570 0.48856460
vt 2.34839100 0.48856460
vt 2.34839100 0.50571770
vt 0.63901980 0.48856460
vt 0.63901980 0.50571770
vt 2.35447400 0.50571770
vt 2.35447400 0.48856460
vt 0.63901980 0.92812040
vt 0.63901980 0.94792700
vt 2.35447400 0.94792700
vt 2.35447400 0.92812040
vt 0.63901980 0.50571770
vt 0.63901980 0.48856460
vt 2.35447400 0.48856460
vt 2.35447400 0.50571770
vt 0.62653150 0.48856460
vt 0.62653150 0.50571770
vt 2.38276000 0.50571770
vt 2.38276000 0.48856460
vt 0.62653150 0.82616260
vt 0.62653150 0.84596920
vt 2.38276000 0.84596920
vt 2.38276000 0.82616260
vt 0.62653150 0.50571770
vt 0.62653150 0.48856460
vt 2.38276000 0.48856460
vt 2.38276000 0.50571770
vt 0.62653150 0.48856460
vt 0.62653150 0.50571770
vt 2.38276000 0.50571770
vt 2.38276000 0.48856460
vt 0.62653150 0.73138520
vt 0.62653150 0.75119190
vt 2.38276000 0.75119160
vt 2.38276000 0.73138500
vt 0.62653150 0.50571770
vt 0.62653150 0.48856460
vt 2.38276000 0.48856460
vt 2.38276000 0.50571770
vt 0.83372560 0.48856460
vt 0.83372560 0.50571770
vt 2.16309300 0.50571770
vt 2.16309300 0.48856460
vt 0.83372560 0.92338990
vt 0.83372560 0.94319650
vt 2.16309300 0.94319630
vt 2.16309300 0.92338970
vt 0.83372560 0.50571770
vt 0.83372560 0.48856460
vt 2.16309300 0.48856460
vt 2.16309300 0.50571770
vt 0.86153890 0.48856460
vt 0.86153890 0.50571770
vt 2.12740200 0.50571770
vt 2.12740200 0.48856460
vt 0.86153890 0.83651040
vt 0.86153890 0.85631700
vt 2.12740200 0.85631680
vt 2.12740200 0.83651040
vt 0.86153890 0.50571770
vt 0.86153890 0.48856460
vt 2.12740200 0.48856460
vt 2.12740200 0.50571770
vt 0.93765000 0.48856460
vt 0.93765000 0.50571770
vt 2.05449100 0.50571770
vt 2.05449100 0.48856460
vt 0.93765000 0.73455260
vt 0.93765000 0.75435920
vt 2.05449100 0.75435920
vt 2.05449100 0.73455260
vt 0.93765000 0.50571770
vt 0.93765000 0.48856460
vt 2.05449100 0.48856460
vt 2.05449100 0.50571770
vt 0.98120770 0.48856460
vt 0.98120770 0.50571770
vt 2.01372000 0.50571770
vt 2.01372000 0.48856460
vt 0.98120770 0.63977500
vt 0.98120770 0.65958170
vt 2.01372000 0.65958140
vt 2.01372000 0.63977500
vt 0.98120770 0.50571770
vt 0.98120770 0.48856460
vt 2.01372000 0.48856460
vt 2.01372000 0.50571770
vt 0.01055980 0.50571770
vt 0.01055980 0.48856460
vt 0.98068850 0.48856460
vt 0.98068850 0.50571770
vt 0.01055980 0.48856460
vt 0.01055980 0.50571770
vt 0.98068850 0.50571770
vt 0.98068850 0.48856460
vt 0.01055980 0.60750990
vt 0.01055980 0.62731620
vt 0.98068850 0.62731620
vt 0.98068850 0.60750990
vt 0.90977940 0.50571770
vt 0.90977940 0.48856460
vt 2.07860000 0.48856460
vt 2.07860000 0.50571770
vt 0.90977940 0.48856460
vt 0.90977940 0.50571770
vt 2.07860000 0.50571770
vt 2.07860000 0.48856460
vt 0.90977940 0.50555210
vt 0.90977940 0.52535890
vt 2.07860000 0.52535870
vt 2.07860000 0.50555210
vt 0.81317210 0.50571770
vt 0.81317210 0.48856460
vt 2.48570900 0.48856460
vt 2.48570900 0.50571770
vt 0.81317210 0.48856460
vt 0.81317210 0.50571770
vt 2.48570900 0.50571770
vt 2.48570900 0.48856460
vt 0.89610910 0.81317210
vt 0.87630240 0.81317210
vt 0.87630240 2.48570900
vt 0.89610910 2.48570900
vt 0.96531300 0.50571770
vt 0.96531300 0.48856460
vt 2.37473200 0.48856460
vt 2.37473200 0.50571770
vt 0.96531300 0.48856460
vt 0.96531300 0.50571770
vt 2.37473200 0.50571770
vt 2.37473200 0.48856460
vt 0.80922970 0.96531300
vt 0.78942300 0.96531300
vt 0.78942300 2.37473200
vt 0.80922970 2.37473200
vt 0.48789430 0.48856460
vt 0.48789430 0.50571770
vt 2.77496800 0.50571770
vt 2.77496800 0.48856460
vt 0.55515330 0.48789430
vt 0.53534660 0.48789430
vt 0.53534660 2.77496800
vt 0.55515330 2.77496800
vt 0.48789430 0.50571770
vt 0.48789430 0.48856460
vt 2.77496800 0.48856460
vt 2.77496800 0.50571770
vt 0.48789430 0.48856460
vt 0.48789430 0.50571770
vt 2.77496800 0.50571770
vt 2.77496800 0.48856460
vt 0.64203270 0.48789430
vt 0.62222600 0.48789430
vt 0.62222600 2.77496800
vt 0.64203270 2.77496800
vt 0.48789430 0.50571770
vt 0.48789430 0.48856460
vt 2.77496800 0.48856460
vt 2.77496800 0.50571770
vt 0.52058590 0.48856460
vt 0.52058590 0.50571770
vt 2.71726300 0.50571770
vt 2.71726300 0.48856460
vt 0.74399030 0.52058590
vt 0.72418370 0.52058590
vt 0.72418370 2.71726300
vt 0.74399030 2.71726300
vt 0.52058590 0.50571770
vt 0.52058590 0.48856460
vt 2.71726300 0.48856460
vt 2.71726300 0.50571770
vt 0.68589900 0.50571770
vt 0.68589900 0.48856460
vt 2.57696300 0.48856460
vt 2.57696300 0.50571770
vt 0.68589900 0.48856460
vt 0.68589900 0.50571770
vt 2.57696300 0.50571770
vt 2.57696300 0.48856460
vt 0.99806680 0.68589900
vt 0.97826010 0.68589900
vt 0.97826010 2.57696300
vt 0.99806680 2.57696300
vt 0.55800930 0.48856460
vt 0.55800930 0.50571770
vt 2.70485300 0.50571770
vt 2.70485300 0.48856460
vt 0.55800930 0.50571770
vt 0.55800930 0.48856460
vt 2.70485300 0.48856460
vt 2.70485300 0.50571770
vt 0.84118040 0.55800930
vt 0.82137380 0.55800930
vt 0.82137380 2.70485300
vt 0.84118040 2.70485300
vt 0.59481840 0.48856460
vt 0.59481840 0.50571770
vt 2.66804400 0.50571770
vt 2.66804400 0.48856460
vt 0.92633660 0.59481840
vt 0.90653000 0.59481840
vt 0.90653000 2.66804400
vt 0.92633660 2.66804400
vt 0.59481840 0.50571770
vt 0.59481840 0.48856460
vt 2.66804400 0.48856460
vt 2.66804400 0.50571770
vt 0.68589900 0.48856460
vt 0.68589900 0.50571770
vt 2.57696300 0.50571770
vt 2.57696300 0.48856460
vt 0.01321602 0.68589900
vt -0.00659061 0.68589900
vt -0.00659061 2.57696300
vt 0.01321602 2.57696300
vt 0.68589900 0.50571770
vt 0.68589900 0.48856460
vt 2.57696300 0.48856460
vt 2.57696300 0.50571770
vt 0.81317210 0.48856460
vt 0.81317210 0.50571770
vt 2.48570900 0.50571770
vt 2.48570900 0.48856460
vt 0.11517370 0.81317210
vt 0.09536707 0.81317210
vt 0.09536707 2.48570900
vt 0.11517370 2.48570900
vt 0.81317210 0.50571770
vt 0.81317210 0.48856460
vt 2.48570900 0.48856460
vt 2.48570900 0.50571770
vt 0.96531300 0.48856460
vt 0.96531300 0.50571770
vt 2.37473200 0.50571770
vt 2.37473200 0.48856460
vt 0.20995130 0.96531300
vt 0.19014470 0.96531300
vt 0.19014470 2.37473200
vt 0.20995130 2.37473200
vt 0.96531300 0.50571770
vt 0.96531300 0.48856460
vt 2.37473200 0.48856460
vt 2.37473200 0.50571770
vt 0.59481840 0.48856460
vt 0.59481840 0.50571770
vt 2.66804400 0.50571770
vt 2.66804400 0.48856460
vt 0.59481840 0.50571770
vt 0.59481840 0.48856460
vt 2.66804400 0.48856460
vt 2.66804400 0.50571770
vt 0.09525684 0.59481840
vt 0.07545018 0.59481840
vt 0.07545018 2.66804400
vt 0.09525684 2.66804400
vt 0.55800930 0.48856460
vt 0.55800930 0.50571770
vt 2.70485300 0.50571770
vt 2.70485300 0.48856460
vt 0.18041300 0.55800930
vt 0.16060640 0.55800930
vt 0.16060640 2.70485300
vt 0.18041300 2.70485300
vt 0.55800930 0.50571770
vt 0.55800930 0.48856460
vt 2.70485300 0.48856460
vt 2.70485300 0.50571770
vt 0.52058590 0.48856460
vt 0.52058590 0.50571770
vt 2.71726300 0.50571770
vt 2.71726300 0.48856460
vt 0.26729240 0.52058590
vt 0.24748580 0.52058590
vt 0.24748580 2.71726300
vt 0.26729240 2.71726300
vt 0.52058590 0.50571770
vt 0.52058590 0.48856460
vt 2.71726300 0.48856460
vt 2.71726300 0.50571770
vt 0.48789430 0.48856460
vt 0.48789430 0.50571770
vt 2.77496800 0.50571770
vt 2.77496800 0.48856460
vt 0.36925010 0.48789430
vt 0.34944350 0.48789430
vt 0.34944350 2.77496800
vt 0.36925010 2.77496800
vt 0.48789430 0.50571770
vt 0.48789430 0.48856460
vt 2.77496800 0.48856460
vt 2.77496800 0.50571770
vt 0.48789430 0.48856460
vt 0.48789430 0.50571770
vt 2.77496800 0.50571770
vt 2.77496800 0.48856460
vt 0.46402770 0.48789430
vt 0.44422110 0.48789430
vt 0.44422110 2.77496800
vt 0.46402770 2.77496800
vt 0.48789430 0.50571770
vt 0.48789430 0.48856460
vt 2.77496800 0.48856460
vt 2.77496800 0.50571770
f 3/3/3 2/2/2 1/1/1
f 6/6/6 5/5/5 4/4/4
f 9/9/9 8/8/8 7/7/7
f 12/12/12 11/11/11 10/10/10
f 15/15/15 14/14/14 13/13/13
f 18/18/18 17/17/17 16/16/16
f 21/21/21 20/20/20 19/19/19
f 24/24/24 23/23/23 22/22/22
f 27/27/27 26/26/26 25/25/25
f 30/30/30 29/29/29 28/28/28
f 33/33/33 32/32/32 31/31/31
f 36/36/36 35/35/35 34/34/34
f 39/39/39 38/38/38 37/37/37
f 42/42/42 41/41/41 40/40/40
f 45/45/45 44/44/44 43/43/43
f 48/48/48 47/47/47 46/46/46
f 51/51/51 50/50/50 49/49/49
f 54/54/54 53/53/53 52/52/52
f 57/57/57 56/56/56 55/55/55
f 60/60/60 59/59/59 58/58/58
f 63/63/63 62/62/62 61/61/61
f 66/66/66 65/65/65 64/64/64
f 69/69/69 68/68/68 67/67/67
f 72/72/72 71/71/71 70/70/70
f 75/75/75 74/74/74 73/73/73
f 78/78/78 77/77/77 76/76/76
f 81/81/81 80/80/80 79/79/79
f 84/84/84 83/83/83 82/82/82
f 87/87/87 86/86/86 85/85/85
f 90/90/90 89/89/89 88/88/88
f 93/93/93 92/92/92 91/91/91
f 96/96/96 95/95/95 94/94/94
f 99/99/99 98/98/98 97/97/97
f 102/102/102 101/101/101 100/100/100
f 105/105/105 104/104/104 103/103/103
f 108/108/108 107/107/107 106/106/106
f 111/111/111 110/110/110 109/109/109
f 114/114/114 113/113/113 112/112/112
f 117/117/117 116/116/116 115/115/115
f 120/120/120 119/119/119 118/118/118
f 123/123/123 122/122/122 121/121/121
f 126/126/126 125/125/125 124/124/124
f 129/129/129 128/128/128 127/127/127
f 132/132/132 131/131/131 130/130/130
f 135/135/135 134/134/134 133/133/133
f 138/138/138 137/137/137 136/136/136
f 141/141/141 140/140/140 139/139/139
f 144/144/144 143/143/143 142/142/142
f 147/147/147 146/146/146 145/145/145
f 150/150/150 149/149/149 148/148/148
f 153/153/153 152/152/152 151/151/151
f 156/156/156 155/155/155 154/154/154
f 159/159/159 158/158/158 157/157/157
f 162/162/162 161/161/161 160/160/160
f 165/165/165 164/164/164 163/163/163
f 168/168/168 167/167/167 166/166/166
f 171/171/171 170/170/170 169/169/169
f 174/174/174 173/173/173 172/172/172
f 177/177/177 176/176/176 175/175/175
f 180/180/180 179/179/179 178/178/178
f 183/183/183 182/182/182 181/181/181
f 186/186/186 185/185/185 184/184/184
f 189/189/189 188/188/188 187/187/187
f 192/192/192 191/191/191 190/190/190
f 195/195/195 194/194/194 193/193/193
f 198/198/198 197/197/197 196/196/196
f 201/201/201 200/200/200 199/199/199
f 204/204/204 203/203/203 202/202/202
f 207/207/207 206/206/206 205/205/205
f 210/210/210 209/209/209 208/208/208
f 213/213/213 212/212/212 211/211/211
f 216/216/216 215/215/215 214/214/214
f 219/219/219 218/218/218 217/217/217
f 222/222/222 221/221/221 220/220/220
f 225/225/225 224/224/224 223/223/223
f 228/228/228 227/227/227 226/226/226
f 231/231/231 230/230/230 229/229/229
f 232/232/232 231/231/231 229/229/229
f 235/235/235 234/234/234 233/233/233
f 236/236/236 235/235/235 233/233/233
f 239/239/239 238/238/238 237/237/237
f 240/240/240 239/239/239 237/237/237
f 243/243/243 242/242/242 241/241/241
f 244/244/244 243/243/243 241/241/241
f 247/247/247 246/246/246 245/245/245
f 248/248/248 247/247/247 245/245/245
f 251/251/251 250/250/250 249/249/249
f 252/252/252 251/251/251 249/249/249
f 255/255/255 254/254/254 253/253/253
f 256/256/256 255/255/255 253/253/253
f 259/259/259 258/258/258 257/257/257
f 260/260/260 259/259/259 257/257/257
f 263/263/263 262/262/262 261/261/261
f 264/264/264 263/263/263 261/261/261
f 267/267/267 266/266/266 265/265/265
f 268/268/268 267/267/267 265/265/265
f 271/271/271 270/270/270 269/269/269
f 272/272/272 271/271/271 269/269/269
f 275/275/275 274/274/274 273/273/273
f 276/276/276 275/275/275 273/273/273
f 279/279/279 278/278/278 277/277/277
f 280/280/280 279/279/279 277/277/277
f 283/283/283 282/282/282 281/281/281
f 284/284/284 283/283/283 281/281/281
f 287/287/287 286/286/286 285/285/285
f 288/288/288 287/287/287 285/285/285
f 291/291/291 290/290/290 289/289/289
f 292/292/292 291/291/291 289/289/289
f 295/295/295 294/294/294 293/293/293
f 296/296/296 295/295/295 293/293/293
f 299/299/299 298/298/298 297/297/297
f 300/300/300 299/299/299 297/297/297
f 303/303/303 302/302/302 301/301/301
f 304/304/304 303/303/303 301/301/301
f 307/307/307 306/306/306 305/305/305
f 308/308/308 307/307/307 305/305/305
f 311/311/311 310/310/310 309/309/309
f 312/312/312 311/311/311 309/309/309
f 315/315/315 314/314/314 313/313/313
f 316/316/316 315/315/315 313/313/313
f 319/319/319 318/318/318 317/317/317
f 320/320/320 319/319/319 317/317/317
f 323/323/323 322/322/322 321/321/321
f 324/324/324 323/323/323 321/321/321
f 327/327/327 326/326/326 325/325/325
f 328/328/328 327/327/327 325/325/325
f 331/331/331 330/330/330 329/329/329
f 332/332/332 331/331/331 329/329/329
f 335/335/335 334/334/334 333/333/333
f 336/336/336 335/335/335 333/333/333
f 339/339/339 338/338/338 337/337/337
f 340/340/340 339/339/339 337/337/337
f 343/343/343 342/342/342 341/341/341
f 344/344/344 343/343/343 341/341/341
f 347/347/347 346/346/346 345/345/345
f 348/348/348 347/347/347 345/345/345
f 351/351/351 350/350/350 349/349/349
f 352/352/352 351/351/351 349/349/349
f 355/355/355 354/354/354 353/353/353
f 356/356/356 355/355/355 353/353/353
f 359/359/359 358/358/358 357/357/357
f 360/360/360 359/359/359 357/357/357
f 363/363/363 362/362/362 361/361/361
f 364/364/364 363/363/363 361/361/361
f 367/367/367 366/366/366 365/365/365
f 368/368/368 367/367/367 365/365/365
f 371/371/371 370/370/370 369/369/369
f 372/372/372 371/371/371 369/369/369
f 375/375/375 374/374/374 373/373/373
f 376/376/376 375/375/375 373/373/373
f 379/379/379 378/378/378 377/377/377
f 380/380/380 379/379/379 377/377/377
f 383/383/383 382/382/382 381/381/381
f 384/384/384 383/383/383 381/381/381
f 387/387/387 386/386/386 385/385/385
f 388/388/388 387/387/387 385/385/385
f 391/391/391 390/390/390 389/389/389
f 392/392/392 391/391/391 389/389/389
f 395/395/395 394/394/394 393/393/393
f 396/396/396 395/395/395 393/393/393
f 399/399/399 398/398/398 397/397/397
f 400/400/400 399/399/399 397/397/397
f 403/403/403 402/402/402 401/401/401
f 404/404/404 403/403/403 401/401/401
f 407/407/407 406/406/406 405/405/405
f 408/408/408 407/407/407 405/405/405
f 411/411/411 410/410/410 409/409/409
f 412/412/412 411/411/411 409/409/409
f 415/415/415 414/414/414 413/413/413
f 416/416/416 415/415/415 413/413/413
f 419/419/419 418/418/418 417/417/417
f 420/420/420 419/419/419 417/417/417
f 423/423/423 422/422/422 421/421/421
f 424/424/424 423/423/423 421/421/421
f 427/427/427 426/426/426 425/425/425
f 428/428/428 427/427/427 425/425/425
f 431/431/431 430/430/430 429/429/429
f 432/432/432 431/431/431 429/429/429
f 435/435/435 434/434/434 433/433/433
f 436/436/436 435/435/435 433/433/433
f 439/439/439 438/438/438 437/437/437
f 440/440/440 439/439/439 437/437/437
f 443/443/443 442/442/442 441/441/441
f 444/444/444 443/443/443 441/441/441
f 447/447/447 446/446/446 445/445/445
f 448/448/448 447/447/447 445/445/445
f 451/451/451 450/450/450 449/449/449
f 452/452/452 451/451/451 449/449/449
f 455/455/455 454/454/454 453/453/453
f 456/456/456 455/455/455 453/453/453
f 459/459/459 458/458/458 457/457/457
f 460/460/460 459/459/459 457/457/457
f 463/463/463 462/462/462 461/461/461
f 464/464/464 463/463/463 461/461/461
f 467/467/467 466/466/466 465/465/465
f 468/468/468 467/467/467 465/465/465
f 471/471/471 470/470/470 469/469/469
f 472/472/472 471/471/471 469/469/469
f 475/475/475 474/474/474 473/473/473
f 476/476/476 475/475/475 473/473/473
f 479/479/479 478/478/478 477/477/477
f 480/480/480 479/479/479 477/477/477
f 483/483/483 482/482/482 481/481/481
f 484/484/484 483/483/483 481/481/481
f 487/487/487 486/486/486 485/485/485
f 488/488/488 487/487/487 485/485/485
f 491/491/491 490/490/490 489/489/489
f 492/492/492 491/491/491 489/489/489
f 495/495/495 494/494/494 493/493/493
f 496/496/496 495/495/495 493/493/493
f 499/499/499 498/498/498 497/497/497
f 500/500/500 499/499/499 497/497/497
f 503/503/503 502/502/502 501/501/501
f 504/504/504 503/503/503 501/501/501
f 507/507/507 506/506/506 505/505/505
f 508/508/508 507/507/507 505/505/505
f 511/511/511 510/510/510 509/509/509
f 512/512/512 511/511/511 509/509/509
f 515/515/515 514/514/514 513/513/513
f 516/516/516 515/515/515 513/513/513
f 519/519/519 518/518/518 517/517/517
f 520/520/520 519/519/519 517/517/517
f 523/523/523 522/522/522 521/521/521
f 524/524/524 523/523/523 521/521/521
f 527/527/527 526/526/526 525/525/525
f 528/528/528 527/527/527 525/525/525
f 531/531/531 530/530/530 529/529/529
f 532/532/532 531/531/531 529/529/529
f 535/535/535 534/534/534 533/533/533
f 536/536/536 535/535/535 533/533/533
f 539/539/539 538/538/538 537/537/537
f 540/540/540 539/539/539 537/537/537
f 543/543/543 542/542/542 541/541/541
f 544/544/544 543/543/543 541/541/541
f 547/547/547 546/546/546 545/545/545
f 548/548/548 547/547/547 545/545/545
f 551/551/551 550/550/550 549/549/549
f 552/552/552 551/551/551 549/549/549
f 555/555/555 554/554/554 553/553/553
f 556/556/556 555/555/555 553/553/553
f 559/559/559 558/558/558 557/557/557
f 560/560/560 559/559/559 557/557/557
f 563/563/563 562/562/562 561/561/561
f 564/564/564 563/563/563 561/561/561
f 567/567/567 566/566/566 565/565/565
f 568/568/568 567/567/567 565/565/565
f 571/571/571 570/570/570 569/569/569
f 572/572/572 571/571/571 569/569/569
f 575/575/575 574/574/574 573/573/573
f 576/576/576 575/575/575 573/573/573
f 579/579/579 578/578/578 577/577/577
f 580/580/580 579/579/579 577/577/577
f 583/583/583 582/582/582 581/581/581
f 584/584/584 583/583/583 581/581/581
f 587/587/587 586/586/586 585/585/585
f 588/588/588 587/587/587 585/585/585
f 591/591/591 590/590/590 589/589/589
f 592/592/592 591/591/591 589/589/589
f 595/595/595 594/594/594 593/593/593
f 596/596/596 595/595/595 593/593/593
f 599/599/599 598/598/598 597/597/597
f 600/600/600 599/599/599 597/597/597
f 603/603/603 602/602/602 601/601/601
f 604/604/604 603/603/603 601/601/601
f 607/607/607 606/606/606 605/605/605
f 608/608/608 607/607/607 605/605/605
f 611/611/611 610/610/610 609/609/609
f 612/612/612 611/611/611 609/609/609
f 615/615/615 614/614/614 613/613/613
f 616/616/616 615/615/615 613/613/613
f 619/619/619 618/618/618 617/617/617
f 620/620/620 619/619/619 617/617/617
f 623/623/623 622/622/622 621/621/621
f 624/624/624 623/623/623 621/621/621
f 627/627/627 626/626/626 625/625/625
f 628/628/628 627/627/627 625/625/625
f 631/631/631 630/630/630 629/629/629
f 632/632/632 631/631/631 629/629/629
f 635/635/635 634/634/634 633/633/633
f 636/636/636 635/635/635 633/633/633
f 639/639/639 638/638/638 637/637/637
f 640/640/640 639/639/639 637/637/637
f 643/643/643 642/642/642 641/641/641
f 644/644/644 643/643/643 641/641/641
f 647/647/647 646/646/646 645/645/645
f 648/648/648 647/647/647 645/645/645
f 651/651/651 650/650/650 649/649/649
f 652/652/652 651/651/651 649/649/649
f 655/655/655 654/654/654 653/653/653
f 656/656/656 655/655/655 653/653/653
f 659/659/659 658/658/658 657/657/657
f 660/660/660 659/659/659 657/657/657
f 663/663/663 662/662/662 661/661/661
f 664/664/664 663/663/663 661/661/661
f 667/667/667 666/666/666 665/665/665
f 668/668/668 667/667/667 665/665/665
f 671/671/671 670/670/670 669/669/669
f 672/672/672 671/671/671 669/669/669
f 675/675/675 674/674/674 673/673/673
f 676/676/676 675/675/675 673/673/673
f 679/679/679 678/678/678 677/677/677
f 680/680/680 679/679/679 677/677/677
f 683/683/683 682/682/682 681/681/681
f 684/684/684 683/683/683 681/681/681

