# https://github.com/mikedh/trimesh
mtllib material.mtl
usemtl material_0
v -0.00058456 -1.09378500 -0.02030493
v -0.00058456 -1.09378500 -0.02031443
v -0.00057506 -1.09378500 -0.02031443
v -0.00057506 -1.09378500 -0.02030493
v -0.00058456 -1.09378500 -0.02030493
v -0.00058456 -1.09378500 -0.02031443
v -0.00057506 -1.09378500 -0.02031443
v -0.00057506 -1.09378500 -0.02030493
v -0.00058456 -1.09378500 -0.02030493
v -0.00058456 -1.09378500 -0.02031443
v -0.00057506 -1.09378500 -0.02031443
v -0.00057506 -1.09378500 -0.02030493
v -0.03674593 0.06924975 -0.06428717
v -0.45737477 0.06801760 -0.06221807
v -0.45737477 0.06924975 -0.06428717
v -0.03404821 0.07146695 0.16467837
v -0.46007258 0.07146695 0.16467837
v -0.46012616 0.07043145 0.15914160
v -0.03399463 0.07043145 0.15914160
v -0.03674593 0.06801760 -0.06221807
v -0.03404821 0.07436113 0.16861303
v -0.46007258 0.07436113 0.16861303
v -0.03404821 0.07869246 0.17124218
v -0.46007258 0.07869246 0.17124218
v -0.03397725 0.08563241 0.17228192
v -0.46007258 0.07869246 0.17124218
v -0.03404821 0.07869246 0.17124218
v -0.46014345 0.08563241 0.17228192
v -0.45813838 0.16804559 0.18655040
v -0.03598241 0.16804559 0.18655040
v -0.02940386 0.08380146 0.18127550
v -0.02940386 0.07485455 0.17965883
v -0.46471694 0.07485455 0.17965883
v -0.46471694 0.08380146 0.18127550
v -0.46471694 0.16804559 0.19436294
v -0.02940386 0.16804559 0.19436294
v -0.02940386 0.07485455 0.17965883
v -0.02940386 0.06726957 0.17505499
v -0.46471694 0.06726957 0.17505499
v -0.46471694 0.07485455 0.17965883
v -0.46471694 0.06220093 0.16816473
v -0.02940386 0.06220093 0.16816473
v -0.46471694 0.06042121 0.16003731
v -0.02940386 0.06042121 0.16003731
v -0.46471694 0.06042121 -0.06396484
v -0.02940386 0.06042121 -0.06396484
v -0.02940386 0.06348410 -0.06910671
v -0.46471694 0.06348410 -0.06910671
v -0.02940386 0.16804559 -0.13119928
v -0.46471694 0.16804559 -0.13119928
v -0.46014345 0.08563241 0.17228192
v -0.45813838 0.16804559 0.18655040
v -0.45507596 0.16804559 -0.06361039
v -0.46007258 0.07869246 0.17124218
v -0.46007258 0.07436113 0.16861303
v -0.46007258 0.07146695 0.16467837
v -0.46012616 0.07043145 0.15914160
v -0.45737477 0.06801760 -0.06221807
v -0.45737477 0.06924975 -0.06428717
v -0.45508175 0.16804559 -0.06811909
v -0.45954789 0.16804559 -0.12117783
v -0.03903866 0.16804559 -0.06811909
v -0.03674593 0.06924975 -0.06428717
v -0.03457290 0.16804559 -0.12117783
v -0.03904455 0.16804559 -0.06361039
v -0.03674593 0.06801760 -0.06221807
v -0.03399463 0.07043145 0.15914160
v -0.03404821 0.07146695 0.16467837
v -0.03404821 0.07436113 0.16861303
v -0.03404821 0.07869246 0.17124218
v -0.03397725 0.08563241 0.17228192
v -0.03598241 0.16804559 0.18655040
v -0.03457290 0.16804559 -0.12117783
v -0.03674593 0.06924975 -0.06428717
v -0.45737477 0.06924975 -0.06428717
v -0.45954789 0.16804559 -0.12117783
v -0.46471694 0.16804559 -0.06910671
v -0.46471694 0.06348410 -0.06910671
v -0.46471694 0.16804559 -0.13119928
v -0.46471694 0.16804559 -0.06396484
v -0.46471694 0.06042121 -0.06396484
v -0.46471694 0.06220093 0.16816473
v -0.46471694 0.06042121 0.16003731
v -0.46471694 0.06726957 0.17505499
v -0.46471694 0.07485455 0.17965883
v -0.46471694 0.08380146 0.18127550
v -0.46471694 0.16804559 0.19436294
v -0.02940386 0.08380146 0.18127550
v -0.02940386 0.16804559 0.19436294
v -0.02940386 0.16804559 -0.06396484
v -0.02940386 0.07485455 0.17965883
v -0.02940386 0.06726957 0.17505499
v -0.02940386 0.06220093 0.16816473
v -0.02940386 0.06042121 0.16003731
v -0.02940386 0.06042121 -0.06396484
v -0.02940386 0.06348410 -0.06910671
v -0.02940386 0.16804559 -0.06910671
v -0.02940386 0.16804559 -0.13119928
v -0.00058456 -1.09378500 -0.02030493
v -0.00058456 -1.09378500 -0.02031443
v -0.00057506 -1.09378500 -0.02031443
v -0.00057506 -1.09378500 -0.02030493
v -0.00058456 -1.09378500 -0.02030493
v -0.00058456 -1.09378500 -0.02031443
v -0.00057506 -1.09378500 -0.02031443
v -0.00057506 -1.09378500 -0.02030493
v -0.00058456 -1.09378500 -0.02030493
v -0.00058456 -1.09378500 -0.02031443
v -0.00057506 -1.09378500 -0.02031443
v -0.00057506 -1.09378500 -0.02030493
v -0.00058456 -1.09378500 -0.02030493
v -0.00058456 -1.09378500 -0.02031443
v -0.00057506 -1.09378500 -0.02031443
v -0.00057506 -1.09378500 -0.02030493
v -0.45998699 0.18801159 -0.13267501
v -0.45748620 0.19350885 -0.13413317
v -0.03663459 0.19350885 -0.13413317
v -0.03413372 0.18801159 -0.13267501
v -0.45954789 0.16804559 -0.12117783
v -0.03457290 0.16804559 -0.12117783
v -0.45748620 0.19485059 0.19119124
v -0.03663459 0.19485059 0.19119124
v -0.02940386 0.19350885 0.19831848
v -0.46471694 0.19350885 0.19831848
v -0.46471694 0.19350885 0.21273960
v -0.02940386 0.19350885 0.21273960
v -0.45449114 0.19350885 -0.06910671
v -0.45449114 0.19350885 -0.06396484
v -0.46471694 0.19350885 -0.06396484
v -0.46471694 0.19350885 -0.06910671
v -0.45748620 0.19350885 -0.13413317
v -0.46471694 0.19350885 -0.14136400
v -0.03663459 0.19350885 -0.13413317
v -0.02940386 0.19350885 -0.14136400
v -0.03962966 0.19350885 -0.06910671
v -0.02940386 0.19350885 -0.06910671
v -0.03962966 0.19350885 -0.06396484
v -0.02940386 0.19350885 -0.06396484
v -0.46471694 0.18516258 -0.14136400
v -0.02940386 0.19350885 -0.14136400
v -0.46471694 0.19350885 -0.14136400
v -0.02940386 0.18516258 -0.14136400
v -0.02940386 0.16804559 -0.13119928
v -0.46471694 0.16804559 -0.13119928
v -0.45748620 0.19485059 0.19119124
v -0.45507596 0.16804559 -0.06361039
v -0.45813838 0.16804559 0.18655040
v -0.45449114 0.19350885 -0.06396484
v -0.45449114 0.19350885 -0.06910671
v -0.45508175 0.16804559 -0.06811909
v -0.45998699 0.18801159 -0.13267501
v -0.45954789 0.16804559 -0.12117783
v -0.45748620 0.19350885 -0.13413317
v -0.03413372 0.18801159 -0.13267501
v -0.03663459 0.19350885 -0.13413317
v -0.03962966 0.19350885 -0.06910671
v -0.03457290 0.16804559 -0.12117783
v -0.03903866 0.16804559 -0.06811909
v -0.03904455 0.16804559 -0.06361039
v -0.03962966 0.19350885 -0.06396484
v -0.03663459 0.19485059 0.19119124
v -0.03598241 0.16804559 0.18655040
v -0.45813838 0.16804559 0.18655040
v -0.03598241 0.16804559 0.18655040
v -0.03663459 0.19485059 0.19119124
v -0.45748620 0.19485059 0.19119124
v -0.46471694 0.16804559 0.20878379
v -0.46471694 0.19350885 0.21273960
v -0.02940386 0.19350885 0.21273960
v -0.02940386 0.16804559 0.20878379
v -0.46471694 0.18516258 -0.14136400
v -0.46471694 0.19350885 -0.14136400
v -0.46471694 0.19350885 -0.06910671
v -0.46471694 0.16804559 -0.13119928
v -0.46471694 0.16804559 -0.06910671
v -0.46471694 0.16804559 -0.06396484
v -0.46471694 0.19350885 -0.06396484
v -0.46471694 0.19350885 0.19831848
v -0.46471694 0.16804559 0.19436294
v -0.46471694 0.16804559 0.20878379
v -0.46471694 0.19350885 0.21273960
v -0.02940386 0.18516258 -0.14136400
v -0.02940386 0.16804559 -0.13119928
v -0.02940386 0.16804559 -0.06910671
v -0.02940386 0.19350885 -0.06910671
v -0.02940386 0.19350885 -0.14136400
v -0.02940386 0.19350885 -0.06396484
v -0.02940386 0.16804559 -0.06396484
v -0.02940386 0.16804559 0.19436294
v -0.02940386 0.19350885 0.19831848
v -0.02940386 0.19350885 0.21273960
v -0.02940386 0.16804559 0.20878379
v -0.46471694 0.16804559 0.19436294
v -0.46471694 0.16804559 0.20878379
v -0.02940386 0.16804559 0.20878379
v -0.02940386 0.16804559 0.19436294
vn 0.00000000 1.00000000 0.00000000
vn 0.00000000 1.00000000 0.00000000
vn 0.00000000 1.00000000 0.00000000
vn 0.00000000 1.00000000 0.00000000
vn 0.00000000 1.00000000 0.00000000
vn 0.00000000 1.00000000 0.00000000
vn 0.00000000 1.00000000 0.00000000
vn 0.00000000 1.00000000 0.00000000
vn 0.00000000 1.00000000 0.00000000
vn 0.00000000 1.00000000 0.00000000
vn 0.00000000 1.00000000 0.00000000
vn 0.00000000 1.00000000 0.00000000
vn 0.00000000 0.50764007 0.86156924
vn 0.00000000 0.99998559 -0.00536879
vn 0.00000000 0.50764007 0.86156924
vn 0.00000000 0.92393020 -0.38256110
vn 0.00000000 0.92393007 -0.38256139
vn 0.00000000 0.99988394 -0.01523504
vn 0.00000000 0.99988394 -0.01523504
vn 0.00000000 0.99998559 -0.00536879
vn 0.00000000 0.67240213 -0.74018604
vn 0.00000000 0.67240213 -0.74018604
vn 0.00000000 0.30890759 -0.95109206
vn 0.00000000 0.30890777 -0.95109200
vn 0.00000000 0.16884071 -0.98564335
vn 0.00000000 0.30890777 -0.95109200
vn 0.00000000 0.30890759 -0.95109206
vn 0.00000000 0.16884071 -0.98564335
vn 0.00000000 0.17059560 -0.98534113
vn 0.00000000 0.17059551 -0.98534115
vn 0.00000000 -0.15585631 0.98777974
vn 0.00000000 -0.35216791 0.93593684
vn 0.00000000 -0.35216791 0.93593684
vn 0.00000000 -0.15585631 0.98777974
vn 0.00000000 -0.15350990 0.98814711
vn 0.00000000 -0.15350990 0.98814711
vn 0.00000000 -0.35216791 0.93593684
vn 0.00000000 -0.67237818 0.74020779
vn 0.00000000 -0.67237818 0.74020779
vn 0.00000000 -0.35216791 0.93593684
vn 0.00000000 -0.90986169 0.41491169
vn 0.00000000 -0.90986169 0.41491169
vn 0.00000000 -0.99997061 0.00766640
vn 0.00000000 -0.99997061 0.00766640
vn 0.00000000 -0.99991069 -0.01336489
vn 0.00000000 -0.99991069 -0.01336489
vn 0.00000000 -0.52982443 -0.84810735
vn 0.00000000 -0.52982443 -0.84810735
vn 0.00000000 -0.51059440 -0.85982170
vn 0.00000000 -0.51059440 -0.85982170
vn 0.99964457 -0.02336941 0.01282979
vn 0.99963940 -0.02369766 0.01262913
vn 0.99964336 -0.02364442 0.01241352
vn 0.99964457 -0.02336941 0.01282979
vn 0.99964457 -0.02336941 0.01282979
vn 0.99964457 -0.02336941 0.01282979
vn 0.99964457 -0.02336941 0.01282979
vn 0.99964662 -0.02336819 0.01267107
vn 0.99810539 -0.02527813 -0.05609492
vn 0.99628955 -0.04268206 -0.07473530
vn 0.99521919 -0.05400554 -0.08137674
vn -0.99628982 -0.04268255 -0.07473145
vn -0.99810563 -0.02527462 -0.05609234
vn -0.99521939 -0.05400791 -0.08137269
vn -0.99964338 -0.02364379 0.01241289
vn -0.99964667 -0.02336636 0.01267045
vn -0.99964462 -0.02336760 0.01282920
vn -0.99964462 -0.02336760 0.01282920
vn -0.99964462 -0.02336760 0.01282920
vn -0.99964462 -0.02336760 0.01282920
vn -0.99964462 -0.02336759 0.01282920
vn -0.99963942 -0.02369720 0.01262854
vn 0.00000000 0.49901859 0.86659128
vn 0.00000000 0.50764007 0.86156924
vn 0.00000000 0.50764007 0.86156924
vn 0.00000000 0.49901859 0.86659128
vn -1.00000000 0.00000049 0.00000000
vn -1.00000000 0.00000000 0.00000000
vn -1.00000000 0.00000082 0.00000000
vn -1.00000000 0.00000023 0.00000000
vn -1.00000000 0.00000041 0.00000000
vn -1.00000000 0.00000041 0.00000000
vn -1.00000000 0.00000041 0.00000000
vn -1.00000000 0.00000041 0.00000000
vn -1.00000000 0.00000041 0.00000000
vn -1.00000000 0.00000041 0.00000000
vn -1.00000000 0.00000021 0.00000000
vn 1.00000000 0.00000000 0.00000000
vn 1.00000000 0.00000000 0.00000000
vn 1.00000000 0.00000000 0.00000000
vn 1.00000000 0.00000000 0.00000000
vn 1.00000000 0.00000000 0.00000000
vn 1.00000000 0.00000000 0.00000000
vn 1.00000000 0.00000000 0.00000000
vn 1.00000000 0.00000000 0.00000000
vn 1.00000000 0.00000000 0.00000000
vn 1.00000000 0.00000000 0.00000000
vn 1.00000000 0.00000000 0.00000000
vn 0.00000000 1.00000000 0.00000000
vn 0.00000000 1.00000000 0.00000000
vn 0.00000000 1.00000000 0.00000000
vn 0.00000000 1.00000000 0.00000000
vn 0.00000000 1.00000000 0.00000000
vn 0.00000000 1.00000000 0.00000000
vn 0.00000000 1.00000000 0.00000000
vn 0.00000000 1.00000000 0.00000000
vn 0.00000000 1.00000000 0.00000000
vn 0.00000000 1.00000000 0.00000000
vn 0.00000000 1.00000000 0.00000000
vn 0.00000000 1.00000000 0.00000000
vn 0.00000000 1.00000000 0.00000000
vn 0.00000000 1.00000000 0.00000000
vn 0.00000000 1.00000000 0.00000000
vn 0.00000000 1.00000000 0.00000000
vn 0.00000000 0.46356279 0.88606407
vn 0.00000000 0.25638731 0.96657413
vn 0.00000000 0.25638731 0.96657413
vn 0.00000000 0.46356279 0.88606407
vn 0.00000000 0.49901859 0.86659128
vn 0.00000000 0.49901859 0.86659128
vn -0.03293954 0.99377708 0.10640541
vn 0.03293959 0.99377707 0.10640541
vn 0.01001499 0.99944653 0.03172282
vn -0.01001497 0.99944653 0.03172281
vn 0.00000000 1.00000000 0.00000000
vn 0.00000000 1.00000000 0.00000000
vn 0.00000000 1.00000000 0.00000000
vn -0.07608856 0.99709665 -0.00296646
vn -0.07610156 0.99709566 -0.00296697
vn 0.00000000 1.00000000 0.00000000
vn 0.00000000 1.00000000 0.00000000
vn 0.00000000 1.00000000 0.00000000
vn 0.00000000 1.00000000 0.00000000
vn 0.00000000 1.00000000 0.00000000
vn 0.00000000 1.00000000 -0.00000053
vn 0.00000000 1.00000000 -0.00000053
vn 0.07608867 0.99709664 -0.00296632
vn 0.07610166 0.99709565 -0.00296683
vn 0.00000000 -0.37074426 -0.92873500
vn 0.00000000 0.00000000 -1.00000000
vn 0.00000000 0.00000000 -1.00000000
vn 0.00000000 -0.37074426 -0.92873500
vn 0.00000000 -0.51059440 -0.85982170
vn 0.00000000 -0.51059440 -0.85982170
vn 0.99962360 -0.02464756 0.01204842
vn 0.99964336 -0.02364442 0.01241352
vn 0.99963940 -0.02369766 0.01262913
vn 0.99962710 -0.02461873 0.01181404
vn 0.99454221 -0.07391783 -0.07363386
vn 0.99628955 -0.04268206 -0.07473530
vn 0.99381967 -0.07778275 -0.07919796
vn 0.99521919 -0.05400554 -0.08137674
vn 0.99381967 -0.07778275 -0.07919796
vn -0.99381930 -0.07779004 -0.07919534
vn -0.99381930 -0.07779004 -0.07919534
vn -0.99454180 -0.07392553 -0.07363168
vn -0.99521939 -0.05400791 -0.08137269
vn -0.99628982 -0.04268255 -0.07473145
vn -0.99964338 -0.02364379 0.01241289
vn -0.99962702 -0.02462233 0.01181341
vn -0.99962352 -0.02465099 0.01204785
vn -0.99963942 -0.02369720 0.01262854
vn 0.00000000 0.17059560 -0.98534113
vn 0.00000000 0.17059551 -0.98534115
vn 0.00000000 0.17059528 -0.98534118
vn 0.00000000 0.17059528 -0.98534118
vn 0.00000000 -0.15351221 0.98814675
vn 0.00000000 -0.15351221 0.98814675
vn 0.00000000 -0.15351221 0.98814675
vn 0.00000000 -0.15351221 0.98814675
vn -1.00000000 0.00000157 0.00000000
vn -1.00000000 0.00000157 0.00000000
vn -1.00000000 0.00000146 0.00000000
vn -1.00000000 0.00000082 0.00000000
vn -1.00000000 0.00000049 0.00000000
vn -1.00000000 0.00000023 0.00000000
vn -1.00000000 -0.00000046 0.00000000
vn -1.00000000 -0.00000044 0.00000000
vn -1.00000000 0.00000021 0.00000000
vn -1.00000000 0.00000000 0.00000000
vn -1.00000000 0.00000000 0.00000000
vn 1.00000000 0.00000000 0.00000000
vn 1.00000000 0.00000000 0.00000000
vn 1.00000000 0.00000000 0.00000000
vn 1.00000000 0.00000000 0.00000000
vn 1.00000000 0.00000000 0.00000000
vn 1.00000000 0.00000000 0.00000000
vn 1.00000000 0.00000000 0.00000000
vn 1.00000000 0.00000000 0.00000000
vn 1.00000000 0.00000000 0.00000000
vn 1.00000000 0.00000000 0.00000000
vn 1.00000000 0.00000000 0.00000000
vn 0.00000000 -1.00000000 0.00000000
vn 0.00000000 -1.00000000 0.00000000
vn 0.00000000 -1.00000000 0.00000000
vn 0.00000000 -1.00000000 0.00000000
vt -5.25307500 -117.08900000
vt -5.25307500 -115.37750000
vt -3.54152000 -115.37750000
vt -3.54152000 -117.08900000
vt 5.64693300 -120.60230000
vt 5.64693300 -118.89080000
vt 7.35848600 -118.89080000
vt 7.35848600 -120.60230000
vt -69.00050000 -111.67040000
vt -69.00050000 -111.67040000
vt -69.00049000 -111.67040000
vt -69.00049000 -111.67040000
vt -70.94262000 -0.97570090
vt -70.94806000 0.12872730
vt -70.94262000 0.12872730
vt -71.54380000 -0.98278430
vt -71.54380000 0.13581070
vt -71.52927000 0.13595130
vt -71.52927000 -0.98292490
vt -70.94806000 -0.97570090
vt -71.55413000 -0.98278430
vt -71.55413000 0.13581070
vt -71.56104000 -0.98278430
vt -71.56104000 0.13581070
vt -71.34840000 -0.98246280
vt -71.33019000 0.13534360
vt -71.33019000 -0.98227670
vt -71.34840000 0.13552980
vt -71.56460000 0.13026960
vt -71.56460000 -0.97720280
vt -71.65969000 -0.98851140
vt -71.68314000 -0.98851140
vt -71.68314000 0.15224190
vt -71.65969000 0.15224190
vt -71.43893000 0.15224190
vt -71.43893000 -0.98851140
vt -71.35803000 -1.04269300
vt -71.37125000 -1.04269300
vt -71.37125000 0.20642320
vt -71.35803000 0.20642320
vt -71.39102000 0.20642320
vt -71.39102000 -1.04269300
vt -71.41434000 0.20642320
vt -71.41434000 -1.04269300
vt -72.05711000 0.20642320
vt -72.05711000 -1.04269300
vt -72.07186000 -1.04269300
vt -72.07186000 0.20642320
vt -72.25003000 -1.04269300
vt -72.25003000 0.20642320
vt -71.57147000 0.38245990
vt -71.35676000 0.41963420
vt -71.35676000 -0.23212360
vt -71.58955000 0.37975100
vt -71.60084000 0.37290110
vt -71.60838000 0.36264990
vt -71.61108000 0.34822460
vt -71.61736000 -0.22849570
vt -71.61415000 -0.23388650
vt -71.35676000 -0.24387010
vt -71.35676000 -0.38210680
vt -71.47916000 0.28139750
vt -71.73656000 0.27141400
vt -71.47916000 0.41963420
vt -71.47916000 0.26965090
vt -71.73977000 0.26602310
vt -71.73348000 -0.31069700
vt -71.73078000 -0.32512220
vt -71.72324000 -0.33537360
vt -71.71196000 -0.34222340
vt -71.69388000 -0.34493240
vt -71.47916000 -0.38210680
vt -70.96465000 -0.51808080
vt -71.24105000 -0.51200120
vt -71.24105000 0.66481050
vt -70.96465000 0.67089010
vt -71.08881000 0.28069250
vt -71.36114000 0.28069250
vt -71.08881000 0.44240930
vt -71.08881000 0.26730110
vt -71.36912000 0.26730110
vt -71.36448000 -0.33726700
vt -71.36912000 -0.31609980
vt -71.35128000 -0.35521250
vt -71.33153000 -0.36720310
vt -71.30822000 -0.37141340
vt -71.08881000 -0.40549890
vt -71.43948000 0.40836400
vt -71.22008000 0.44244950
vt -71.22008000 -0.23034980
vt -71.46278000 0.40415340
vt -71.48254000 0.39216320
vt -71.49574000 0.37421780
vt -71.50037000 0.35305020
vt -71.50037000 -0.23034980
vt -71.49240000 -0.24374160
vt -71.22008000 -0.24374160
vt -71.22008000 -0.40545810
vt -88.71439000 -113.31290000
vt -88.71439000 -110.12650000
vt -85.53026000 -110.12650000
vt -85.53026000 -113.31290000
vt -116.58840000 -110.94040000
vt -116.58840000 -110.94030000
vt -116.58830000 -110.94030000
vt -116.58830000 -110.94040000
vt -143.95440000 -113.01000000
vt -143.95440000 -107.31050000
vt -138.25910000 -107.31050000
vt -138.25910000 -113.01000000
vt -169.52120000 -113.22000000
vt -169.52120000 -113.21990000
vt -169.52110000 -113.21990000
vt -169.52110000 -113.22000000
vt -170.19360000 0.66327370
vt -170.17730000 0.65586460
vt -170.17730000 -0.59100150
vt -170.19360000 -0.59841060
vt -170.25270000 0.66197270
vt -170.25270000 -0.59710970
vt -171.12010000 0.62862590
vt -171.12010000 -0.54745830
vt -171.14000000 -0.56766480
vt -171.14000000 0.64883240
vt -171.18030000 0.64883240
vt -171.18030000 -0.56766480
vt -170.39270000 0.62025620
vt -170.40710000 0.62025620
vt -170.40710000 0.64883240
vt -170.39270000 0.64883240
vt -170.21100000 0.62862590
vt -170.19080000 0.64883240
vt -170.21100000 -0.54745830
vt -170.19080000 -0.56766480
vt -170.39270000 -0.53908850
vt -170.39270000 -0.56766480
vt -170.40710000 -0.53908850
vt -170.40710000 -0.56766480
vt -170.36430000 0.68002150
vt -170.38880000 -0.59885390
vt -170.38880000 0.68002150
vt -170.36430000 -0.59885390
vt -170.31400000 -0.59885390
vt -170.31400000 0.68002150
vt -169.96440000 0.39969160
vt -170.03920000 -0.31130850
vt -170.03920000 0.38674160
vt -169.96820000 -0.31229760
vt -169.96820000 -0.32664530
vt -170.03920000 -0.32388940
vt -169.98350000 -0.50402680
vt -170.03920000 -0.47194490
vt -169.96820000 -0.50809560
vt -169.92890000 0.39573250
vt -169.91360000 0.39980220
vt -169.91360000 0.21830780
vt -169.98460000 0.36364280
vt -169.98460000 0.21555130
vt -169.98460000 0.20296730
vt -169.91360000 0.20395630
vt -169.90980000 -0.50820620
vt -169.98460000 -0.49525310
vt -170.12370000 0.62230050
vt -170.12370000 -0.56381000
vt -170.19900000 -0.56197760
vt -170.19900000 0.62046800
vt -170.33470000 0.65129380
vt -170.26320000 0.65129380
vt -170.26320000 -0.57012610
vt -170.33470000 -0.57012610
vt -170.09570000 0.46438610
vt -170.07240000 0.46438610
vt -170.07240000 0.26286480
vt -170.14340000 0.43603730
vt -170.14340000 0.26286480
vt -170.14340000 0.24852440
vt -170.07240000 0.24852440
vt -170.07240000 -0.48296790
vt -170.14340000 -0.47193610
vt -170.14340000 -0.51215500
vt -170.07240000 -0.52318750
vt -170.04320000 -0.52320510
vt -170.09100000 -0.49485520
vt -170.09100000 -0.32167660
vt -170.01990000 -0.32167660
vt -170.01990000 -0.52320510
vt -170.01990000 -0.30733580
vt -170.09100000 -0.30733580
vt -170.09100000 0.41315050
vt -170.01990000 0.42418260
vt -170.01990000 0.46440370
vt -170.09100000 0.45337070
vt -170.27610000 0.64742890
vt -170.23590000 0.64742890
vt -170.23590000 -0.56626110
vt -170.27610000 -0.56626110
f 3/3/3 2/2/2 1/1/1
f 4/4/4 3/3/3 1/1/1
f 7/7/7 6/6/6 5/5/5
f 8/8/8 7/7/7 5/5/5
f 11/11/11 10/10/10 9/9/9
f 12/12/12 11/11/11 9/9/9
f 15/15/15 14/14/14 13/13/13
f 18/18/18 17/17/17 16/16/16
f 19/19/19 18/18/18 16/16/16
f 18/18/18 19/19/19 14/14/14
f 19/19/19 20/20/20 14/14/14
f 14/14/14 20/20/20 13/13/13
f 17/17/17 22/22/22 21/21/21
f 16/16/16 17/17/17 21/21/21
f 22/22/22 24/24/24 23/23/23
f 21/21/21 22/22/22 23/23/23
f 27/27/27 26/26/26 25/25/25
f 26/26/26 28/28/28 25/25/25
f 28/28/28 29/29/29 25/25/25
f 29/29/29 30/30/30 25/25/25
f 33/33/33 32/32/32 31/31/31
f 34/34/34 33/33/33 31/31/31
f 34/34/34 31/31/31 35/35/35
f 31/31/31 36/36/36 35/35/35
f 39/39/39 38/38/38 37/37/37
f 40/40/40 39/39/39 37/37/37
f 39/39/39 41/41/41 38/38/38
f 41/41/41 42/42/42 38/38/38
f 41/41/41 43/43/43 42/42/42
f 43/43/43 44/44/44 42/42/42
f 44/44/44 43/43/43 45/45/45
f 46/46/46 44/44/44 45/45/45
f 46/46/46 45/45/45 47/47/47
f 45/45/45 48/48/48 47/47/47
f 47/47/47 48/48/48 49/49/49
f 48/48/48 50/50/50 49/49/49
f 53/53/53 52/52/52 51/51/51
f 53/53/53 51/51/51 54/54/54
f 53/53/53 54/54/54 55/55/55
f 53/53/53 55/55/55 56/56/56
f 53/53/53 56/56/56 57/57/57
f 57/57/57 58/58/58 53/53/53
f 58/58/58 59/59/59 53/53/53
f 59/59/59 60/60/60 53/53/53
f 59/59/59 61/61/61 60/60/60
f 64/64/64 63/63/63 62/62/62
f 62/62/62 63/63/63 65/65/65
f 63/63/63 66/66/66 65/65/65
f 65/65/65 66/66/66 67/67/67
f 67/67/67 68/68/68 65/65/65
f 68/68/68 69/69/69 65/65/65
f 69/69/69 70/70/70 65/65/65
f 70/70/70 71/71/71 65/65/65
f 71/71/71 72/72/72 65/65/65
f 75/75/75 74/74/74 73/73/73
f 76/76/76 75/75/75 73/73/73
f 79/79/79 78/78/78 77/77/77
f 77/77/77 78/78/78 80/80/80
f 78/78/78 81/81/81 80/80/80
f 82/82/82 80/80/80 81/81/81
f 81/81/81 83/83/83 82/82/82
f 82/82/82 84/84/84 80/80/80
f 84/84/84 85/85/85 80/80/80
f 85/85/85 86/86/86 80/80/80
f 86/86/86 87/87/87 80/80/80
f 90/90/90 89/89/89 88/88/88
f 90/90/90 88/88/88 91/91/91
f 90/90/90 91/91/91 92/92/92
f 90/90/90 92/92/92 93/93/93
f 90/90/90 93/93/93 94/94/94
f 94/94/94 95/95/95 90/90/90
f 95/95/95 96/96/96 90/90/90
f 96/96/96 97/97/97 90/90/90
f 97/97/97 96/96/96 98/98/98
f 101/101/101 100/100/100 99/99/99
f 102/102/102 101/101/101 99/99/99
f 105/105/105 104/104/104 103/103/103
f 106/106/106 105/105/105 103/103/103
f 109/109/109 108/108/108 107/107/107
f 110/110/110 109/109/109 107/107/107
f 113/113/113 112/112/112 111/111/111
f 114/114/114 113/113/113 111/111/111
f 117/117/117 116/116/116 115/115/115
f 118/118/118 117/117/117 115/115/115
f 115/115/115 119/119/119 118/118/118
f 119/119/119 120/120/120 118/118/118
f 123/123/123 122/122/122 121/121/121
f 124/124/124 123/123/123 121/121/121
f 124/124/124 125/125/125 123/123/123
f 125/125/125 126/126/126 123/123/123
f 129/129/129 128/128/128 127/127/127
f 130/130/130 129/129/129 127/127/127
f 130/130/130 127/127/127 131/131/131
f 132/132/132 130/130/130 131/131/131
f 132/132/132 131/131/131 133/133/133
f 134/134/134 132/132/132 133/133/133
f 134/134/134 133/133/133 135/135/135
f 136/136/136 134/134/134 135/135/135
f 136/136/136 135/135/135 137/137/137
f 138/138/138 136/136/136 137/137/137
f 138/138/138 137/137/137 122/122/122
f 123/123/123 138/138/138 122/122/122
f 124/124/124 121/121/121 128/128/128
f 129/129/129 124/124/124 128/128/128
f 141/141/141 140/140/140 139/139/139
f 140/140/140 142/142/142 139/139/139
f 139/139/139 142/142/142 143/143/143
f 144/144/144 139/139/139 143/143/143
f 147/147/147 146/146/146 145/145/145
f 146/146/146 148/148/148 145/145/145
f 148/148/148 146/146/146 149/149/149
f 146/146/146 150/150/150 149/149/149
f 151/151/151 149/149/149 150/150/150
f 150/150/150 152/152/152 151/151/151
f 151/151/151 153/153/153 149/149/149
f 156/156/156 155/155/155 154/154/154
f 156/156/156 154/154/154 157/157/157
f 157/157/157 158/158/158 156/156/156
f 158/158/158 159/159/159 156/156/156
f 159/159/159 160/160/160 156/156/156
f 160/160/160 159/159/159 161/161/161
f 159/159/159 162/162/162 161/161/161
f 165/165/165 164/164/164 163/163/163
f 166/166/166 165/165/165 163/163/163
f 169/169/169 168/168/168 167/167/167
f 170/170/170 169/169/169 167/167/167
f 173/173/173 172/172/172 171/171/171
f 173/173/173 171/171/171 174/174/174
f 174/174/174 175/175/175 173/173/173
f 173/173/173 175/175/175 176/176/176
f 177/177/177 173/173/173 176/176/176
f 177/177/177 176/176/176 178/178/178
f 176/176/176 179/179/179 178/178/178
f 179/179/179 180/180/180 178/178/178
f 180/180/180 181/181/181 178/178/178
f 184/184/184 183/183/183 182/182/182
f 182/182/182 185/185/185 184/184/184
f 182/182/182 186/186/186 185/185/185
f 185/185/185 187/187/187 184/184/184
f 187/187/187 188/188/188 184/184/184
f 189/189/189 188/188/188 187/187/187
f 190/190/190 189/189/189 187/187/187
f 190/190/190 191/191/191 189/189/189
f 191/191/191 192/192/192 189/189/189
f 195/195/195 194/194/194 193/193/193
f 196/196/196 195/195/195 193/193/193

