# https://github.com/mikedh/trimesh
mtllib material.mtl
usemtl material_0
v -0.00058430 -1.09378500 -0.02030493
v -0.00058430 -1.09378500 -0.02031443
v -0.00057480 -1.09378500 -0.02031443
v -0.00057480 -1.09378500 -0.02030493
v -0.00058430 -1.09378500 -0.02030493
v -0.00058430 -1.09378500 -0.02031443
v -0.00057480 -1.09378500 -0.02031443
v -0.00057480 -1.09378500 -0.02030493
v -0.00058430 -1.09378500 -0.02030493
v -0.00058430 -1.09378500 -0.02031443
v -0.00057480 -1.09378500 -0.02031443
v -0.00057480 -1.09378500 -0.02030493
v 0.45619023 0.06924975 -0.06428717
v 0.03556158 0.06801760 -0.06221807
v 0.03556158 0.06924975 -0.06428717
v 0.45888766 0.07146695 0.16467837
v 0.03286377 0.07146695 0.16467837
v 0.03281019 0.07043145 0.15914160
v 0.45894152 0.07043145 0.15914160
v 0.45619023 0.06801760 -0.06221807
v 0.45888766 0.07436113 0.16861303
v 0.03286377 0.07436113 0.16861303
v 0.45888766 0.07869246 0.17124218
v 0.03286377 0.07869246 0.17124218
v 0.45895920 0.08563241 0.17228192
v 0.03286377 0.07869246 0.17124218
v 0.45888766 0.07869246 0.17124218
v 0.03279290 0.08563241 0.17228192
v 0.03479797 0.16804559 0.18655040
v 0.45695374 0.16804559 0.18655040
v 0.46353230 0.08380146 0.18127550
v 0.46353230 0.07485455 0.17965883
v 0.02821941 0.07485455 0.17965883
v 0.02821941 0.08380146 0.18127550
v 0.02821941 0.16804559 0.19436294
v 0.46353230 0.16804559 0.19436294
v 0.46353230 0.07485455 0.17965883
v 0.46353230 0.06726957 0.17505499
v 0.02821941 0.06726957 0.17505499
v 0.02821941 0.07485455 0.17965883
v 0.02821941 0.06220093 0.16816473
v 0.46353230 0.06220093 0.16816473
v 0.02821941 0.06042121 0.16003731
v 0.46353230 0.06042121 0.16003731
v 0.02821941 0.06042121 -0.06396484
v 0.46353230 0.06042121 -0.06396484
v 0.46353230 0.06348410 -0.06910671
v 0.02821941 0.06348410 -0.06910671
v 0.46353230 0.16804559 -0.13119928
v 0.02821941 0.16804559 -0.13119928
v 0.03279290 0.08563241 0.17228192
v 0.03479797 0.16804559 0.18655040
v 0.03786011 0.16804559 -0.06361039
v 0.03286377 0.07869246 0.17124218
v 0.03286377 0.07436113 0.16861303
v 0.03286377 0.07146695 0.16467837
v 0.03281019 0.07043145 0.15914160
v 0.03556158 0.06801760 -0.06221807
v 0.03556158 0.06924975 -0.06428717
v 0.03785431 0.16804559 -0.06811909
v 0.03338855 0.16804559 -0.12117783
v 0.45389778 0.16804559 -0.06811909
v 0.45619023 0.06924975 -0.06428717
v 0.45836326 0.16804559 -0.12117783
v 0.45389190 0.16804559 -0.06361039
v 0.45619023 0.06801760 -0.06221807
v 0.45894152 0.07043145 0.15914160
v 0.45888766 0.07146695 0.16467837
v 0.45888766 0.07436113 0.16861303
v 0.45888766 0.07869246 0.17124218
v 0.45895920 0.08563241 0.17228192
v 0.45695374 0.16804559 0.18655040
v 0.45836326 0.16804559 -0.12117783
v 0.45619023 0.06924975 -0.06428717
v 0.03556158 0.06924975 -0.06428717
v 0.03338855 0.16804559 -0.12117783
v 0.02821941 0.16804559 -0.06910671
v 0.02821941 0.06348410 -0.06910671
v 0.02821941 0.16804559 -0.13119928
v 0.02821941 0.16804559 -0.06396484
v 0.02821941 0.06042121 -0.06396484
v 0.02821941 0.06220093 0.16816473
v 0.02821941 0.06042121 0.16003731
v 0.02821941 0.06726957 0.17505499
v 0.02821941 0.07485455 0.17965883
v 0.02821941 0.08380146 0.18127550
v 0.02821941 0.16804559 0.19436294
v 0.46353230 0.08380146 0.18127550
v 0.46353230 0.16804559 0.19436294
v 0.46353230 0.16804559 -0.06396484
v 0.46353230 0.07485455 0.17965883
v 0.46353230 0.06726957 0.17505499
v 0.46353230 0.06220093 0.16816473
v 0.46353230 0.06042121 0.16003731
v 0.46353230 0.06042121 -0.06396484
v 0.46353230 0.06348410 -0.06910671
v 0.46353230 0.16804559 -0.06910671
v 0.46353230 0.16804559 -0.13119928
v -0.00058430 -1.09378500 -0.02030493
v -0.00058430 -1.09378500 -0.02031443
v -0.00057480 -1.09378500 -0.02031443
v -0.00057480 -1.09378500 -0.02030493
v -0.00058430 -1.09378500 -0.02030493
v -0.00058430 -1.09378500 -0.02031443
v -0.00057480 -1.09378500 -0.02031443
v -0.00057480 -1.09378500 -0.02030493
v -0.00058430 -1.09378500 -0.02030493
v -0.00058430 -1.09378500 -0.02031443
v -0.00057480 -1.09378500 -0.02031443
v -0.00057480 -1.09378500 -0.02030493
v -0.00058430 -1.09378500 -0.02030493
v -0.00058430 -1.09378500 -0.02031443
v -0.00057480 -1.09378500 -0.02031443
v -0.00057480 -1.09378500 -0.02030493
v 0.03294937 0.18801159 -0.13267501
v 0.03545015 0.19350885 -0.13413317
v 0.45630185 0.19350885 -0.13413317
v 0.45880245 0.18801159 -0.13267501
v 0.03338855 0.16804559 -0.12117783
v 0.45836326 0.16804559 -0.12117783
v 0.03545015 0.19485059 0.19119124
v 0.45630185 0.19485059 0.19119124
v 0.46353230 0.19350885 0.19831848
v 0.02821941 0.19350885 0.19831848
v 0.02821941 0.19350885 0.21273960
v 0.46353230 0.19350885 0.21273960
v 0.03844521 0.19350885 -0.06910671
v 0.03844521 0.19350885 -0.06396484
v 0.02821941 0.19350885 -0.06396484
v 0.02821941 0.19350885 -0.06910671
v 0.03545015 0.19350885 -0.13413317
v 0.02821941 0.19350885 -0.14136400
v 0.45630185 0.19350885 -0.13413317
v 0.46353230 0.19350885 -0.14136400
v 0.45330651 0.19350885 -0.06910671
v 0.46353230 0.19350885 -0.06910671
v 0.45330651 0.19350885 -0.06396484
v 0.46353230 0.19350885 -0.06396484
v 0.02821941 0.18516258 -0.14136400
v 0.46353230 0.18516258 -0.14136400
v 0.46353230 0.19350885 -0.14136400
v 0.02821941 0.19350885 -0.14136400
v 0.03545015 0.19485059 0.19119124
v 0.03786011 0.16804559 -0.06361039
v 0.03479797 0.16804559 0.18655040
v 0.03844521 0.19350885 -0.06396484
v 0.03844521 0.19350885 -0.06910671
v 0.03785431 0.16804559 -0.06811909
v 0.03294937 0.18801159 -0.13267501
v 0.03338855 0.16804559 -0.12117783
v 0.03545015 0.19350885 -0.13413317
v 0.45880245 0.18801159 -0.13267501
v 0.45630185 0.19350885 -0.13413317
v 0.45330651 0.19350885 -0.06910671
v 0.45836326 0.16804559 -0.12117783
v 0.45389778 0.16804559 -0.06811909
v 0.45389190 0.16804559 -0.06361039
v 0.45330651 0.19350885 -0.06396484
v 0.45630185 0.19485059 0.19119124
v 0.45695374 0.16804559 0.18655040
v 0.03479797 0.16804559 0.18655040
v 0.45695374 0.16804559 0.18655040
v 0.45630185 0.19485059 0.19119124
v 0.03545015 0.19485059 0.19119124
v 0.46353230 0.16804559 -0.13119928
v 0.02821941 0.16804559 -0.13119928
v 0.02821941 0.16804559 0.20878379
v 0.02821941 0.19350885 0.21273960
v 0.46353230 0.19350885 0.21273960
v 0.46353230 0.16804559 0.20878379
v 0.02821941 0.18516258 -0.14136400
v 0.02821941 0.19350885 -0.14136400
v 0.02821941 0.19350885 -0.06910671
v 0.02821941 0.16804559 -0.13119928
v 0.02821941 0.16804559 -0.06910671
v 0.02821941 0.16804559 -0.06396484
v 0.02821941 0.19350885 -0.06396484
v 0.02821941 0.19350885 0.19831848
v 0.02821941 0.16804559 0.19436294
v 0.02821941 0.16804559 0.20878379
v 0.02821941 0.19350885 0.21273960
v 0.46353230 0.18516258 -0.14136400
v 0.46353230 0.16804559 -0.13119928
v 0.46353230 0.16804559 -0.06910671
v 0.46353230 0.19350885 -0.06910671
v 0.46353230 0.19350885 -0.14136400
v 0.46353230 0.19350885 -0.06396484
v 0.46353230 0.16804559 -0.06396484
v 0.46353230 0.16804559 0.19436294
v 0.46353230 0.19350885 0.19831848
v 0.46353230 0.19350885 0.21273960
v 0.46353230 0.16804559 0.20878379
v 0.02821941 0.16804559 0.19436294
v 0.02821941 0.16804559 0.20878379
v 0.46353230 0.16804559 0.20878379
v 0.46353230 0.16804559 0.19436294
vn 0.00000000 1.00000000 0.00000000
vn 0.00000000 1.00000000 0.00000000
vn 0.00000000 1.00000000 0.00000000
vn 0.00000000 1.00000000 0.00000000
vn 0.00000000 1.00000000 0.00000000
vn 0.00000000 1.00000000 0.00000000
vn 0.00000000 1.00000000 0.00000000
vn 0.00000000 1.00000000 0.00000000
vn 0.00000000 1.00000000 0.00000000
vn 0.00000000 1.00000000 0.00000000
vn 0.00000000 1.00000000 0.00000000
vn 0.00000000 1.00000000 0.00000000
vn 0.00000000 0.50763992 0.86156933
vn 0.00000000 0.99998559 -0.00536879
vn 0.00000000 0.50763992 0.86156933
vn 0.00000000 0.92392774 -0.38256702
vn 0.00000000 0.92392646 -0.38257012
vn 0.00000000 0.99988394 -0.01523504
vn 0.00000000 0.99988394 -0.01523491
vn 0.00000000 0.99998559 -0.00536879
vn 0.00000000 0.67239642 -0.74019123
vn 0.00000000 0.67239642 -0.74019123
vn 0.00000000 0.30890539 -0.95109277
vn 0.00000000 0.30891020 -0.95109121
vn 0.00000000 0.16884081 -0.98564333
vn 0.00000000 0.30891020 -0.95109121
vn 0.00000000 0.30890539 -0.95109277
vn 0.00000000 0.16884071 -0.98564335
vn 0.00000000 0.17059570 -0.98534111
vn 0.00000000 0.17059560 -0.98534113
vn 0.00000000 -0.15585621 0.98777975
vn 0.00000000 -0.35216584 0.93593761
vn 0.00000000 -0.35216584 0.93593761
vn 0.00000000 -0.15585621 0.98777975
vn 0.00000000 -0.15351000 0.98814709
vn 0.00000000 -0.15351000 0.98814709
vn 0.00000000 -0.35216584 0.93593761
vn 0.00000000 -0.67238102 0.74020522
vn 0.00000000 -0.67238102 0.74020522
vn 0.00000000 -0.35216584 0.93593761
vn 0.00000000 -0.90986159 0.41491190
vn 0.00000000 -0.90986159 0.41491190
vn 0.00000000 -0.99997061 0.00766683
vn 0.00000000 -0.99997061 0.00766683
vn 0.00000000 -0.99991068 -0.01336534
vn 0.00000000 -0.99991068 -0.01336534
vn 0.00000000 -0.52982438 -0.84810738
vn 0.00000000 -0.52982438 -0.84810738
vn 0.00000000 -0.51059490 -0.85982140
vn 0.00000000 -0.51059490 -0.85982140
vn 0.99964462 -0.02336761 0.01282924
vn 0.99963941 -0.02369745 0.01262860
vn 0.99964338 -0.02364402 0.01241296
vn 0.99964462 -0.02336762 0.01282924
vn 0.99964462 -0.02336761 0.01282924
vn 0.99964462 -0.02336761 0.01282924
vn 0.99964462 -0.02336761 0.01282924
vn 0.99964667 -0.02336638 0.01267050
vn 0.99810564 -0.02527494 -0.05609194
vn 0.99628984 -0.04268266 -0.07473117
vn 0.99521941 -0.05400788 -0.08137240
vn -0.99629017 -0.04268112 -0.07472767
vn -0.99810588 -0.02527199 -0.05608904
vn -0.99521975 -0.05400659 -0.08136912
vn -0.99964341 -0.02364287 0.01241265
vn -0.99964671 -0.02336482 0.01267017
vn -0.99964466 -0.02336606 0.01282892
vn -0.99964466 -0.02336606 0.01282892
vn -0.99964466 -0.02336606 0.01282892
vn -0.99964466 -0.02336606 0.01282892
vn -0.99964466 -0.02336606 0.01282892
vn -0.99963944 -0.02369634 0.01262832
vn 0.00000000 0.49901871 0.86659121
vn 0.00000000 0.50763992 0.86156933
vn 0.00000000 0.50763992 0.86156933
vn 0.00000000 0.49901871 0.86659121
vn -1.00000000 0.00000000 0.00000000
vn -1.00000000 0.00000000 0.00000000
vn -1.00000000 0.00000000 0.00000000
vn -1.00000000 0.00000000 0.00000000
vn -1.00000000 0.00000000 0.00000000
vn -1.00000000 0.00000000 0.00000000
vn -1.00000000 0.00000000 0.00000000
vn -1.00000000 0.00000000 0.00000000
vn -1.00000000 0.00000000 0.00000000
vn -1.00000000 0.00000000 0.00000000
vn -1.00000000 0.00000000 0.00000000
vn 1.00000000 0.00000000 0.00000000
vn 1.00000000 0.00000000 0.00000000
vn 1.00000000 0.00000000 0.00000000
vn 1.00000000 0.00000000 0.00000000
vn 1.00000000 0.00000000 0.00000000
vn 1.00000000 0.00000000 0.00000000
vn 1.00000000 0.00000000 0.00000000
vn 1.00000000 0.00000000 0.00000000
vn 1.00000000 0.00000000 0.00000000
vn 1.00000000 0.00000000 0.00000000
vn 1.00000000 0.00000000 0.00000000
vn 0.00000000 1.00000000 0.00000000
vn 0.00000000 1.00000000 0.00000000
vn 0.00000000 1.00000000 0.00000000
vn 0.00000000 1.00000000 0.00000000
vn 0.00000000 1.00000000 0.00000000
vn 0.00000000 1.00000000 0.00000000
vn 0.00000000 1.00000000 0.00000000
vn 0.00000000 1.00000000 0.00000000
vn 0.00000000 1.00000000 0.00000000
vn 0.00000000 1.00000000 0.00000000
vn 0.00000000 1.00000000 0.00000000
vn 0.00000000 1.00000000 0.00000000
vn 0.00000000 1.00000000 0.00000000
vn 0.00000000 1.00000000 0.00000000
vn 0.00000000 1.00000000 0.00000000
vn 0.00000000 1.00000000 0.00000000
vn 0.00000000 0.46356322 0.88606385
vn 0.00000000 0.25638703 0.96657420
vn 0.00000000 0.25638698 0.96657422
vn 0.00000000 0.46356211 0.88606443
vn 0.00000000 0.49901871 0.86659121
vn 0.00000000 0.49901871 0.86659121
vn -0.03293956 0.99377621 0.10641350
vn 0.03294023 0.99377617 0.10641370
vn 0.01001476 0.99944643 0.03172612
vn -0.01001500 0.99944645 0.03172519
vn 0.00000000 1.00000000 0.00000000
vn 0.00000000 1.00000000 0.00000000
vn 0.00000000 1.00000000 0.00000000
vn -0.07608857 0.99709665 -0.00296646
vn -0.07610156 0.99709566 -0.00296697
vn 0.00000000 1.00000000 0.00000000
vn 0.00000000 1.00000000 0.00000000
vn 0.00000000 1.00000000 0.00000000
vn 0.00000000 1.00000000 0.00000000
vn 0.00000000 1.00000000 0.00000000
vn 0.00000000 1.00000000 0.00000053
vn 0.00000000 1.00000000 0.00000053
vn 0.07609037 0.99709651 -0.00296654
vn 0.07610336 0.99709552 -0.00296704
vn 0.00000000 -0.37074400 -0.92873510
vn 0.00000000 -0.37074400 -0.92873510
vn 0.00000000 0.00000000 -1.00000000
vn 0.00000000 0.00000000 -1.00000000
vn 0.99962349 -0.02465194 0.01204795
vn 0.99964338 -0.02364402 0.01241296
vn 0.99963941 -0.02369745 0.01262860
vn 0.99962700 -0.02462326 0.01181352
vn 0.99454187 -0.07392521 -0.07363110
vn 0.99628984 -0.04268266 -0.07473117
vn 0.99381937 -0.07778971 -0.07919480
vn 0.99521941 -0.05400788 -0.08137240
vn 0.99381937 -0.07778972 -0.07919480
vn -0.99381947 -0.07778975 -0.07919356
vn -0.99381947 -0.07778975 -0.07919355
vn -0.99454188 -0.07392608 -0.07363006
vn -0.99521975 -0.05400659 -0.08136912
vn -0.99629017 -0.04268112 -0.07472767
vn -0.99964341 -0.02364287 0.01241265
vn -0.99962699 -0.02462366 0.01181333
vn -0.99962349 -0.02465212 0.01204778
vn -0.99963944 -0.02369634 0.01262832
vn 0.00000000 0.17059570 -0.98534111
vn 0.00000000 0.17059560 -0.98534113
vn 0.00000000 0.17059659 -0.98534096
vn 0.00000000 0.17059650 -0.98534097
vn 0.00000000 -0.51059490 -0.85982140
vn 0.00000000 -0.51059490 -0.85982140
vn 0.00000000 -0.15351211 0.98814677
vn 0.00000000 -0.15351211 0.98814677
vn 0.00000000 -0.15351211 0.98814677
vn 0.00000000 -0.15351211 0.98814677
vn -1.00000000 0.00000000 0.00000000
vn -1.00000000 0.00000000 0.00000000
vn -1.00000000 0.00000000 0.00000000
vn -1.00000000 0.00000000 0.00000000
vn -1.00000000 0.00000000 0.00000000
vn -1.00000000 0.00000000 0.00000000
vn -1.00000000 0.00000000 0.00000000
vn -1.00000000 0.00000000 0.00000000
vn -1.00000000 0.00000000 0.00000000
vn -1.00000000 0.00000000 0.00000000
vn -1.00000000 0.00000000 0.00000000
vn 1.00000000 0.00000000 0.00000000
vn 1.00000000 0.00000000 0.00000000
vn 1.00000000 0.00000000 0.00000000
vn 1.00000000 0.00000000 0.00000000
vn 1.00000000 0.00000000 0.00000000
vn 1.00000000 0.00000000 0.00000000
vn 1.00000000 0.00000000 0.00000000
vn 1.00000000 0.00000000 0.00000000
vn 1.00000000 0.00000000 0.00000000
vn 1.00000000 0.00000000 0.00000000
vn 1.00000000 0.00000000 0.00000000
vn 0.00000000 -1.00000000 0.00000000
vn 0.00000000 -1.00000000 0.00000000
vn 0.00000000 -1.00000000 0.00000000
vn 0.00000000 -1.00000000 0.00000000
vt -5.25307500 -117.08900000
vt -5.25307500 -115.37750000
vt -3.54152000 -115.37750000
vt -3.54152000 -117.08900000
vt 5.64693300 -120.60230000
vt 5.64693300 -118.89080000
vt 7.35848600 -118.89080000
vt 7.35848600 -120.60230000
vt -69.00050000 -111.67040000
vt -69.00050000 -111.67040000
vt -69.00049000 -111.67040000
vt -69.00049000 -111.67040000
vt -70.94262000 -0.97570110
vt -70.94805000 0.12872740
vt -70.94262000 0.12872740
vt -71.54380000 -0.98278360
vt -71.54380000 0.13581080
vt -71.52927000 0.13595150
vt -71.52927000 -0.98292510
vt -70.94805000 -0.97570110
vt -71.55413000 -0.98278360
vt -71.55413000 0.13581080
vt -71.56104000 -0.98278360
vt -71.56104000 0.13581080
vt -71.34840000 -0.98246180
vt -71.33019000 0.13534300
vt -71.33019000 -0.98227420
vt -71.34840000 0.13552900
vt -71.56460000 0.13026880
vt -71.56460000 -0.97720070
vt -71.65969000 -0.98851050
vt -71.68314000 -0.98851050
vt -71.68314000 0.15224110
vt -71.65969000 0.15224110
vt -71.43893000 0.15224110
vt -71.43893000 -0.98851050
vt -71.35803000 -1.04269300
vt -71.37125000 -1.04269300
vt -71.37125000 0.20642290
vt -71.35803000 0.20642290
vt -71.39102000 0.20642290
vt -71.39102000 -1.04269300
vt -71.41434000 0.20642290
vt -71.41434000 -1.04269300
vt -72.05711000 0.20642290
vt -72.05711000 -1.04269300
vt -72.07186000 -1.04269300
vt -72.07186000 0.20642290
vt -72.25003000 -1.04269300
vt -72.25003000 0.20642290
vt -71.57147000 0.38245960
vt -71.35676000 0.41963410
vt -71.35676000 -0.23212300
vt -71.58955000 0.37975080
vt -71.60084000 0.37290100
vt -71.60838000 0.36264970
vt -71.61108000 0.34822450
vt -71.61736000 -0.22849540
vt -71.61415000 -0.23388590
vt -71.35676000 -0.24386980
vt -71.35676000 -0.38210640
vt -71.47916000 0.28139850
vt -71.73656000 0.27141480
vt -71.47916000 0.41963550
vt -71.47916000 0.26965170
vt -71.73977000 0.26602400
vt -71.73348000 -0.31069770
vt -71.73078000 -0.32512300
vt -71.72324000 -0.33537440
vt -71.71196000 -0.34222430
vt -71.69388000 -0.34493310
vt -71.47916000 -0.38210770
vt -70.96465000 -0.51808090
vt -71.24105000 -0.51200130
vt -71.24105000 0.66481080
vt -70.96465000 0.67089020
vt -71.08881000 0.28069250
vt -71.36114000 0.28069250
vt -71.08881000 0.44240930
vt -71.08881000 0.26730110
vt -71.36912000 0.26730110
vt -71.36448000 -0.33726690
vt -71.36912000 -0.31609950
vt -71.35128000 -0.35521220
vt -71.33152000 -0.36720280
vt -71.30822000 -0.37141320
vt -71.08881000 -0.40549860
vt -71.43948000 0.40836360
vt -71.22008000 0.44244890
vt -71.22008000 -0.23034870
vt -71.46278000 0.40415300
vt -71.48254000 0.39216270
vt -71.49574000 0.37421740
vt -71.50037000 0.35305000
vt -71.50037000 -0.23034870
vt -71.49240000 -0.24374030
vt -71.22008000 -0.24374030
vt -71.22008000 -0.40545660
vt -88.71439000 -113.31290000
vt -88.71439000 -110.12650000
vt -85.53026000 -110.12650000
vt -85.53026000 -113.31290000
vt -116.58830000 -110.94030000
vt -116.58830000 -110.94030000
vt -116.58830000 -110.94030000
vt -116.58830000 -110.94030000
vt -143.95440000 -113.01000000
vt -143.95440000 -107.31050000
vt -138.25910000 -107.31050000
vt -138.25910000 -113.01000000
vt -169.52120000 -113.22000000
vt -169.52120000 -113.21990000
vt -169.52110000 -113.21990000
vt -169.52110000 -113.22000000
vt -170.19360000 0.66326810
vt -170.17730000 0.65585880
vt -170.17730000 -0.59099660
vt -170.19360000 -0.59840490
vt -170.25270000 0.66196670
vt -170.25270000 -0.59710380
vt -171.12010000 0.62857540
vt -171.12010000 -0.54740870
vt -171.14000000 -0.56761270
vt -171.14000000 0.64878020
vt -171.18030000 0.64878020
vt -171.18030000 -0.56761270
vt -170.39270000 0.62020620
vt -170.40710000 0.62020620
vt -170.40710000 0.64878020
vt -170.39270000 0.64878020
vt -170.21100000 0.62857540
vt -170.19080000 0.64878020
vt -170.21100000 -0.54740870
vt -170.19080000 -0.56761270
vt -170.39270000 -0.53903880
vt -170.39270000 -0.56761270
vt -170.40710000 -0.53903880
vt -170.40710000 -0.56761270
vt -170.36430000 0.68000980
vt -170.36430000 -0.59884240
vt -170.38880000 -0.59884240
vt -170.38880000 0.68000980
vt -169.96440000 0.39981380
vt -170.03920000 -0.31137760
vt -170.03920000 0.38686040
vt -169.96820000 -0.31236700
vt -169.96820000 -0.32671850
vt -170.03920000 -0.32396190
vt -169.98350000 -0.50414760
vt -170.03920000 -0.47205720
vt -169.96820000 -0.50821760
vt -169.92890000 0.39574000
vt -169.91360000 0.39980970
vt -169.91360000 0.21831230
vt -169.98460000 0.36364970
vt -169.98460000 0.21555580
vt -169.98460000 0.20297150
vt -169.91360000 0.20396060
vt -169.90980000 -0.50821350
vt -169.98460000 -0.49526020
vt -170.12370000 0.62231240
vt -170.12370000 -0.56382200
vt -170.19900000 -0.56199040
vt -170.19900000 0.62047970
vt -170.31400000 -0.59884240
vt -170.31400000 0.68000980
vt -170.33470000 0.65126280
vt -170.26320000 0.65126280
vt -170.26320000 -0.57009530
vt -170.33470000 -0.57009530
vt -170.09570000 0.46444420
vt -170.07240000 0.46444420
vt -170.07240000 0.26289920
vt -170.14340000 0.43609210
vt -170.14340000 0.26289920
vt -170.14340000 0.24855710
vt -170.07240000 0.24855710
vt -170.07240000 -0.48302100
vt -170.14340000 -0.47198800
vt -170.14340000 -0.51221160
vt -170.07240000 -0.52324530
vt -170.04320000 -0.52318580
vt -170.09100000 -0.49483700
vt -170.09100000 -0.32166500
vt -170.01990000 -0.32166500
vt -170.01990000 -0.52318580
vt -170.01990000 -0.30732500
vt -170.09100000 -0.30732500
vt -170.09100000 0.41313340
vt -170.01990000 0.42416520
vt -170.01990000 0.46438460
vt -170.09100000 0.45335210
vt -170.27610000 0.64737360
vt -170.23590000 0.64737360
vt -170.23590000 -0.56620610
vt -170.27610000 -0.56620610
f 3/3/3 2/2/2 1/1/1
f 4/4/4 3/3/3 1/1/1
f 7/7/7 6/6/6 5/5/5
f 8/8/8 7/7/7 5/5/5
f 11/11/11 10/10/10 9/9/9
f 12/12/12 11/11/11 9/9/9
f 15/15/15 14/14/14 13/13/13
f 18/18/18 17/17/17 16/16/16
f 19/19/19 18/18/18 16/16/16
f 18/18/18 19/19/19 14/14/14
f 19/19/19 20/20/20 14/14/14
f 14/14/14 20/20/20 13/13/13
f 17/17/17 22/22/22 21/21/21
f 16/16/16 17/17/17 21/21/21
f 22/22/22 24/24/24 23/23/23
f 21/21/21 22/22/22 23/23/23
f 27/27/27 26/26/26 25/25/25
f 26/26/26 28/28/28 25/25/25
f 28/28/28 29/29/29 25/25/25
f 29/29/29 30/30/30 25/25/25
f 33/33/33 32/32/32 31/31/31
f 34/34/34 33/33/33 31/31/31
f 34/34/34 31/31/31 35/35/35
f 31/31/31 36/36/36 35/35/35
f 39/39/39 38/38/38 37/37/37
f 40/40/40 39/39/39 37/37/37
f 39/39/39 41/41/41 38/38/38
f 41/41/41 42/42/42 38/38/38
f 41/41/41 43/43/43 42/42/42
f 43/43/43 44/44/44 42/42/42
f 44/44/44 43/43/43 45/45/45
f 46/46/46 44/44/44 45/45/45
f 46/46/46 45/45/45 47/47/47
f 45/45/45 48/48/48 47/47/47
f 47/47/47 48/48/48 49/49/49
f 48/48/48 50/50/50 49/49/49
f 53/53/53 52/52/52 51/51/51
f 53/53/53 51/51/51 54/54/54
f 53/53/53 54/54/54 55/55/55
f 53/53/53 55/55/55 56/56/56
f 53/53/53 56/56/56 57/57/57
f 57/57/57 58/58/58 53/53/53
f 58/58/58 59/59/59 53/53/53
f 59/59/59 60/60/60 53/53/53
f 59/59/59 61/61/61 60/60/60
f 64/64/64 63/63/63 62/62/62
f 62/62/62 63/63/63 65/65/65
f 63/63/63 66/66/66 65/65/65
f 65/65/65 66/66/66 67/67/67
f 67/67/67 68/68/68 65/65/65
f 68/68/68 69/69/69 65/65/65
f 69/69/69 70/70/70 65/65/65
f 70/70/70 71/71/71 65/65/65
f 71/71/71 72/72/72 65/65/65
f 75/75/75 74/74/74 73/73/73
f 76/76/76 75/75/75 73/73/73
f 79/79/79 78/78/78 77/77/77
f 77/77/77 78/78/78 80/80/80
f 78/78/78 81/81/81 80/80/80
f 82/82/82 80/80/80 81/81/81
f 81/81/81 83/83/83 82/82/82
f 82/82/82 84/84/84 80/80/80
f 84/84/84 85/85/85 80/80/80
f 85/85/85 86/86/86 80/80/80
f 86/86/86 87/87/87 80/80/80
f 90/90/90 89/89/89 88/88/88
f 90/90/90 88/88/88 91/91/91
f 90/90/90 91/91/91 92/92/92
f 90/90/90 92/92/92 93/93/93
f 90/90/90 93/93/93 94/94/94
f 94/94/94 95/95/95 90/90/90
f 95/95/95 96/96/96 90/90/90
f 96/96/96 97/97/97 90/90/90
f 97/97/97 96/96/96 98/98/98
f 101/101/101 100/100/100 99/99/99
f 102/102/102 101/101/101 99/99/99
f 105/105/105 104/104/104 103/103/103
f 106/106/106 105/105/105 103/103/103
f 109/109/109 108/108/108 107/107/107
f 110/110/110 109/109/109 107/107/107
f 113/113/113 112/112/112 111/111/111
f 114/114/114 113/113/113 111/111/111
f 117/117/117 116/116/116 115/115/115
f 118/118/118 117/117/117 115/115/115
f 115/115/115 119/119/119 118/118/118
f 119/119/119 120/120/120 118/118/118
f 123/123/123 122/122/122 121/121/121
f 124/124/124 123/123/123 121/121/121
f 124/124/124 125/125/125 123/123/123
f 125/125/125 126/126/126 123/123/123
f 129/129/129 128/128/128 127/127/127
f 130/130/130 129/129/129 127/127/127
f 130/130/130 127/127/127 131/131/131
f 132/132/132 130/130/130 131/131/131
f 132/132/132 131/131/131 133/133/133
f 134/134/134 132/132/132 133/133/133
f 134/134/134 133/133/133 135/135/135
f 136/136/136 134/134/134 135/135/135
f 136/136/136 135/135/135 137/137/137
f 138/138/138 136/136/136 137/137/137
f 138/138/138 137/137/137 122/122/122
f 123/123/123 138/138/138 122/122/122
f 124/124/124 121/121/121 128/128/128
f 129/129/129 124/124/124 128/128/128
f 141/141/141 140/140/140 139/139/139
f 142/142/142 141/141/141 139/139/139
f 145/145/145 144/144/144 143/143/143
f 144/144/144 146/146/146 143/143/143
f 146/146/146 144/144/144 147/147/147
f 144/144/144 148/148/148 147/147/147
f 149/149/149 147/147/147 148/148/148
f 148/148/148 150/150/150 149/149/149
f 149/149/149 151/151/151 147/147/147
f 154/154/154 153/153/153 152/152/152
f 154/154/154 152/152/152 155/155/155
f 155/155/155 156/156/156 154/154/154
f 156/156/156 157/157/157 154/154/154
f 157/157/157 158/158/158 154/154/154
f 158/158/158 157/157/157 159/159/159
f 157/157/157 160/160/160 159/159/159
f 163/163/163 162/162/162 161/161/161
f 164/164/164 163/163/163 161/161/161
f 139/139/139 140/140/140 165/165/165
f 166/166/166 139/139/139 165/165/165
f 169/169/169 168/168/168 167/167/167
f 170/170/170 169/169/169 167/167/167
f 173/173/173 172/172/172 171/171/171
f 173/173/173 171/171/171 174/174/174
f 174/174/174 175/175/175 173/173/173
f 173/173/173 175/175/175 176/176/176
f 177/177/177 173/173/173 176/176/176
f 177/177/177 176/176/176 178/178/178
f 176/176/176 179/179/179 178/178/178
f 179/179/179 180/180/180 178/178/178
f 180/180/180 181/181/181 178/178/178
f 184/184/184 183/183/183 182/182/182
f 182/182/182 185/185/185 184/184/184
f 182/182/182 186/186/186 185/185/185
f 185/185/185 187/187/187 184/184/184
f 187/187/187 188/188/188 184/184/184
f 189/189/189 188/188/188 187/187/187
f 190/190/190 189/189/189 187/187/187
f 190/190/190 191/191/191 189/189/189
f 191/191/191 192/192/192 189/189/189
f 195/195/195 194/194/194 193/193/193
f 196/196/196 195/195/195 193/193/193

