# https://github.com/mikedh/trimesh
mtllib material.mtl
usemtl material_0
v -0.00058430 -1.09377950 -0.02030493
v -0.00058430 -1.09377950 -0.02031443
v -0.00057480 -1.09377950 -0.02031443
v -0.00057480 -1.09377950 -0.02030493
v -0.00058430 -1.09377950 -0.02030493
v -0.00058430 -1.09377950 -0.02031443
v -0.00057480 -1.09377950 -0.02031443
v -0.00057480 -1.09377950 -0.02030493
v -0.00058430 -1.09377950 -0.02030493
v -0.00058430 -1.09377950 -0.02031443
v -0.00057480 -1.09377950 -0.02031443
v -0.00057480 -1.09377950 -0.02030493
v 0.45619023 0.24821121 -0.06428717
v 0.03556158 0.24697877 -0.06221807
v 0.03556158 0.24821121 -0.06428717
v 0.45888766 0.25042832 0.16467837
v 0.03286377 0.25042832 0.16467837
v 0.03281019 0.24939348 0.15914160
v 0.45894152 0.24939348 0.15914160
v 0.45619023 0.24697877 -0.06221807
v 0.45888766 0.25332249 0.16861303
v 0.03286377 0.25332249 0.16861303
v 0.45888766 0.25765383 0.17124218
v 0.03286377 0.25765383 0.17124218
v 0.45895920 0.26459386 0.17228192
v 0.03286377 0.25765383 0.17124218
v 0.45888766 0.25765383 0.17124218
v 0.03279290 0.26459386 0.17228192
v 0.03479797 0.34700681 0.18655040
v 0.45695374 0.34700681 0.18655040
v 0.46353230 0.26276217 0.18127550
v 0.46353230 0.25381592 0.17965883
v 0.02821941 0.25381592 0.17965883
v 0.02821941 0.26276283 0.18127550
v 0.02821941 0.34700681 0.19436294
v 0.46353230 0.34700681 0.19436294
v 0.46353230 0.25381592 0.17965883
v 0.46353230 0.24623093 0.17505499
v 0.02821941 0.24623093 0.17505499
v 0.02821941 0.25381592 0.17965883
v 0.02821941 0.24116278 0.16816473
v 0.46353230 0.24116278 0.16816473
v 0.02821941 0.23938314 0.16003731
v 0.46353230 0.23938314 0.16003731
v 0.02821941 0.23938314 -0.06396484
v 0.46353230 0.23938314 -0.06396484
v 0.46353230 0.24244537 -0.06910671
v 0.02821941 0.24244537 -0.06910671
v 0.46353230 0.34700681 -0.13119928
v 0.02821941 0.34700681 -0.13119928
v 0.03279290 0.26459386 0.17228192
v 0.03479797 0.34700681 0.18655040
v 0.03786011 0.34700681 -0.06361039
v 0.03286377 0.25765383 0.17124218
v 0.03286377 0.25332249 0.16861303
v 0.03286377 0.25042832 0.16467837
v 0.03281019 0.24939348 0.15914160
v 0.03556158 0.24697877 -0.06221807
v 0.03556158 0.24821121 -0.06428717
v 0.03785431 0.34700681 -0.06811909
v 0.03338855 0.34700681 -0.12117783
v 0.45389778 0.34700681 -0.06811909
v 0.45619023 0.24821121 -0.06428717
v 0.45836326 0.34700681 -0.12117783
v 0.45389190 0.34700681 -0.06361039
v 0.45619023 0.24697877 -0.06221807
v 0.45894152 0.24939348 0.15914160
v 0.45888766 0.25042832 0.16467837
v 0.45888766 0.25332249 0.16861303
v 0.45888766 0.25765383 0.17124218
v 0.45895920 0.26459386 0.17228192
v 0.45695374 0.34700681 0.18655040
v 0.45836326 0.34700681 -0.12117783
v 0.45619023 0.24821121 -0.06428717
v 0.03556158 0.24821121 -0.06428717
v 0.03338855 0.34700681 -0.12117783
v 0.02821941 0.34700681 -0.06910671
v 0.02821941 0.24244537 -0.06910671
v 0.02821941 0.34700681 -0.13119928
v 0.02821941 0.34700681 -0.06396484
v 0.02821941 0.23938314 -0.06396484
v 0.02821941 0.24116278 0.16816473
v 0.02821941 0.23938314 0.16003731
v 0.02821941 0.24623093 0.17505499
v 0.02821941 0.25381592 0.17965883
v 0.02821941 0.26276283 0.18127550
v 0.02821941 0.34700681 0.19436294
v 0.46353230 0.26276217 0.18127550
v 0.46353230 0.34700681 0.19436294
v 0.46353230 0.34700681 -0.06396484
v 0.46353230 0.25381592 0.17965883
v 0.46353230 0.24623093 0.17505499
v 0.46353230 0.24116278 0.16816473
v 0.46353230 0.23938314 0.16003731
v 0.46353230 0.23938314 -0.06396484
v 0.46353230 0.24244537 -0.06910671
v 0.46353230 0.34700681 -0.06910671
v 0.46353230 0.34700681 -0.13119928
v -0.00058430 -1.09377950 -0.02030493
v -0.00058430 -1.09377950 -0.02031443
v -0.00057480 -1.09377950 -0.02031443
v -0.00057480 -1.09377950 -0.02030493
v -0.00058430 -1.09377950 -0.02030493
v -0.00058430 -1.09377950 -0.02031443
v -0.00057480 -1.09377950 -0.02031443
v -0.00057480 -1.09377950 -0.02030493
v -0.00058430 -1.09377950 -0.02030493
v -0.00058430 -1.09377950 -0.02031443
v -0.00057480 -1.09377950 -0.02031443
v -0.00057480 -1.09377950 -0.02030493
v -0.00058430 -1.09377950 -0.02030493
v -0.00058430 -1.09377950 -0.02031443
v -0.00057480 -1.09377950 -0.02031443
v -0.00057480 -1.09377950 -0.02030493
v 0.03294937 0.36697295 -0.13267501
v 0.03545015 0.37246993 -0.13413317
v 0.45630185 0.37246993 -0.13413317
v 0.45880245 0.36697295 -0.13267501
v 0.03338855 0.34700681 -0.12117783
v 0.45836326 0.34700681 -0.12117783
v 0.03545015 0.37381181 0.19119124
v 0.45630185 0.37381181 0.19119124
v 0.46353230 0.37246993 0.19831848
v 0.02821941 0.37246993 0.19831848
v 0.02821941 0.37246993 0.21273960
v 0.46353230 0.37246993 0.21273960
v 0.03844521 0.37246993 -0.06910671
v 0.03844521 0.37246993 -0.06396484
v 0.02821941 0.37246993 -0.06396484
v 0.02821941 0.37246993 -0.06910671
v 0.03545015 0.37246993 -0.13413317
v 0.02821941 0.37246993 -0.14136400
v 0.45630185 0.37246993 -0.13413317
v 0.46353230 0.37246993 -0.14136400
v 0.45330651 0.37246993 -0.06910671
v 0.46353230 0.37246993 -0.06910671
v 0.45330651 0.37246993 -0.06396484
v 0.46353230 0.37246993 -0.06396484
v 0.02821941 0.36412380 -0.14136400
v 0.46353230 0.37246993 -0.14136400
v 0.02821941 0.37246993 -0.14136400
v 0.46353230 0.36412380 -0.14136400
v 0.46353230 0.34700681 -0.13119928
v 0.02821941 0.34700681 -0.13119928
v 0.03545015 0.37381181 0.19119124
v 0.03786011 0.34700681 -0.06361039
v 0.03479797 0.34700681 0.18655040
v 0.03844521 0.37246993 -0.06396484
v 0.03844521 0.37246993 -0.06910671
v 0.03785431 0.34700681 -0.06811909
v 0.03294937 0.36697295 -0.13267501
v 0.03338855 0.34700681 -0.12117783
v 0.03545015 0.37246993 -0.13413317
v 0.45880245 0.36697295 -0.13267501
v 0.45630185 0.37246993 -0.13413317
v 0.45330651 0.37246993 -0.06910671
v 0.45836326 0.34700681 -0.12117783
v 0.45389778 0.34700681 -0.06811909
v 0.45389190 0.34700681 -0.06361039
v 0.45330651 0.37246993 -0.06396484
v 0.45630185 0.37381181 0.19119124
v 0.45695374 0.34700681 0.18655040
v 0.03479797 0.34700681 0.18655040
v 0.45695374 0.34700681 0.18655040
v 0.45630185 0.37381181 0.19119124
v 0.03545015 0.37381181 0.19119124
v 0.02821941 0.34700681 0.20878379
v 0.02821941 0.37246993 0.21273960
v 0.46353230 0.37246993 0.21273960
v 0.46353230 0.34700681 0.20878379
v 0.02821941 0.36412380 -0.14136400
v 0.02821941 0.37246993 -0.14136400
v 0.02821941 0.37246993 -0.06910671
v 0.02821941 0.34700681 -0.13119928
v 0.02821941 0.34700681 -0.06910671
v 0.02821941 0.34700681 -0.06396484
v 0.02821941 0.37246993 -0.06396484
v 0.02821941 0.37246993 0.19831848
v 0.02821941 0.34700681 0.19436294
v 0.02821941 0.34700681 0.20878379
v 0.02821941 0.37246993 0.21273960
v 0.46353230 0.36412380 -0.14136400
v 0.46353230 0.34700681 -0.13119928
v 0.46353230 0.34700681 -0.06910671
v 0.46353230 0.37246993 -0.06910671
v 0.46353230 0.37246993 -0.14136400
v 0.46353230 0.37246993 -0.06396484
v 0.46353230 0.34700681 -0.06396484
v 0.46353230 0.34700681 0.19436294
v 0.46353230 0.37246993 0.19831848
v 0.46353230 0.37246993 0.21273960
v 0.46353230 0.34700681 0.20878379
v 0.02821941 0.34700681 0.19436294
v 0.02821941 0.34700681 0.20878379
v 0.46353230 0.34700681 0.20878379
v 0.46353230 0.34700681 0.19436294
vn 0.00000000 1.00000000 0.00000000
vn 0.00000000 1.00000000 0.00000000
vn 0.00000000 1.00000000 0.00000000
vn 0.00000000 1.00000000 0.00000000
vn 0.00000000 1.00000000 0.00000000
vn 0.00000000 1.00000000 0.00000000
vn 0.00000000 1.00000000 0.00000000
vn 0.00000000 1.00000000 0.00000000
vn 0.00000000 1.00000000 0.00000000
vn 0.00000000 1.00000000 0.00000000
vn 0.00000000 1.00000000 0.00000000
vn 0.00000000 1.00000000 0.00000000
vn 0.00000000 0.50763976 0.86156943
vn 0.00000000 0.99998557 -0.00537160
vn 0.00000000 0.50763976 0.86156943
vn 0.00000000 0.92395642 -0.38249777
vn 0.00000000 0.92395512 -0.38250091
vn 0.00000000 0.99988393 -0.01523595
vn 0.00000000 0.99988393 -0.01523583
vn 0.00000000 0.99998557 -0.00537160
vn 0.00000000 0.67240701 -0.74018161
vn 0.00000000 0.67240701 -0.74018161
vn 0.00000000 0.30890280 -0.95109361
vn 0.00000000 0.30890768 -0.95109203
vn 0.00000000 0.16884110 -0.98564328
vn 0.00000000 0.30890768 -0.95109203
vn 0.00000000 0.30890280 -0.95109361
vn 0.00000000 0.16884100 -0.98564330
vn 0.00000000 0.17059601 -0.98534106
vn 0.00000000 0.17059599 -0.98534106
vn -0.00000015 -0.15585661 0.98777969
vn 0.00000000 -0.35217541 0.93593402
vn 0.00000000 -0.35217541 0.93593402
vn -0.00000015 -0.15585652 0.98777971
vn -0.00000015 -0.15350951 0.98814717
vn -0.00000015 -0.15350951 0.98814717
vn 0.00000000 -0.35217541 0.93593402
vn 0.00000000 -0.67239286 0.74019446
vn 0.00000000 -0.67239286 0.74019446
vn 0.00000000 -0.35217541 0.93593402
vn 0.00000000 -0.90987316 0.41488653
vn 0.00000000 -0.90987316 0.41488653
vn 0.00000000 -0.99997061 0.00766640
vn 0.00000000 -0.99997061 0.00766640
vn 0.00000000 -0.99991072 -0.01336269
vn 0.00000000 -0.99991072 -0.01336269
vn 0.00000000 -0.52982683 -0.84810585
vn 0.00000000 -0.52982683 -0.84810585
vn 0.00000000 -0.51059490 -0.85982140
vn 0.00000000 -0.51059490 -0.85982140
vn 0.99964462 -0.02336770 0.01282926
vn 0.99963941 -0.02369753 0.01262859
vn 0.99964337 -0.02364409 0.01241295
vn 0.99964462 -0.02336770 0.01282926
vn 0.99964462 -0.02336770 0.01282926
vn 0.99964462 -0.02336770 0.01282926
vn 0.99964462 -0.02336770 0.01282926
vn 0.99964667 -0.02336646 0.01267053
vn 0.99810568 -0.02527496 -0.05609121
vn 0.99628982 -0.04268281 -0.07473134
vn 0.99521938 -0.05400812 -0.08137264
vn -0.99629016 -0.04268128 -0.07472774
vn -0.99810590 -0.02527202 -0.05608866
vn -0.99521975 -0.05400683 -0.08136905
vn -0.99964340 -0.02364296 0.01241264
vn -0.99964671 -0.02336490 0.01267020
vn -0.99964466 -0.02336615 0.01282894
vn -0.99964466 -0.02336615 0.01282894
vn -0.99964466 -0.02336615 0.01282894
vn -0.99964466 -0.02336615 0.01282894
vn -0.99964466 -0.02336615 0.01282894
vn -0.99963944 -0.02369642 0.01262832
vn 0.00000000 0.49901832 0.86659144
vn 0.00000000 0.50763976 0.86156943
vn 0.00000000 0.50763976 0.86156943
vn 0.00000000 0.49901832 0.86659144
vn -1.00000000 0.00000000 0.00000000
vn -1.00000000 0.00000000 0.00000000
vn -1.00000000 0.00000000 0.00000000
vn -1.00000000 0.00000000 0.00000000
vn -1.00000000 0.00000000 0.00000000
vn -1.00000000 0.00000000 0.00000000
vn -1.00000000 0.00000000 0.00000000
vn -1.00000000 0.00000000 0.00000000
vn -1.00000000 0.00000000 0.00000000
vn -1.00000000 0.00000000 0.00000000
vn -1.00000000 0.00000000 0.00000000
vn 1.00000000 0.00000000 0.00000000
vn 1.00000000 0.00000000 0.00000000
vn 1.00000000 0.00000000 0.00000000
vn 1.00000000 0.00000000 0.00000000
vn 1.00000000 0.00000000 0.00000000
vn 1.00000000 0.00000000 0.00000000
vn 1.00000000 0.00000000 0.00000000
vn 1.00000000 0.00000000 0.00000000
vn 1.00000000 0.00000000 0.00000000
vn 1.00000000 0.00000000 0.00000000
vn 1.00000000 0.00000000 0.00000000
vn 0.00000000 1.00000000 0.00000000
vn 0.00000000 1.00000000 0.00000000
vn 0.00000000 1.00000000 0.00000000
vn 0.00000000 1.00000000 0.00000000
vn 0.00000000 1.00000000 0.00000000
vn 0.00000000 1.00000000 0.00000000
vn 0.00000000 1.00000000 0.00000000
vn 0.00000000 1.00000000 0.00000000
vn 0.00000000 1.00000000 0.00000000
vn 0.00000000 1.00000000 0.00000000
vn 0.00000000 1.00000000 0.00000000
vn 0.00000000 1.00000000 0.00000000
vn 0.00000000 1.00000000 0.00000000
vn 0.00000000 1.00000000 0.00000000
vn 0.00000000 1.00000000 0.00000000
vn 0.00000000 1.00000000 0.00000000
vn 0.00000000 0.46356350 0.88606370
vn 0.00000000 0.25640088 0.96657053
vn 0.00000000 0.25640088 0.96657053
vn 0.00000000 0.46356231 0.88606432
vn 0.00000000 0.49901832 0.86659144
vn 0.00000000 0.49901832 0.86659144
vn -0.03294308 0.99377608 0.10641360
vn 0.03294376 0.99377606 0.10641360
vn 0.01001586 0.99944641 0.03172616
vn -0.01001610 0.99944644 0.03172533
vn 0.00000000 1.00000000 0.00000000
vn 0.00000000 1.00000000 0.00000000
vn 0.00000000 1.00000000 -0.00000106
vn -0.07609674 0.99709603 -0.00296617
vn -0.07610973 0.99709503 -0.00296667
vn 0.00000000 1.00000000 -0.00000107
vn 0.00000000 1.00000000 -0.00000019
vn 0.00000000 1.00000000 -0.00000019
vn 0.00000000 1.00000000 0.00000019
vn 0.00000000 1.00000000 0.00000019
vn 0.00000000 1.00000000 0.00000106
vn 0.00000000 1.00000000 0.00000107
vn 0.07609854 0.99709589 -0.00296698
vn 0.07611153 0.99709489 -0.00296749
vn 0.00000000 -0.37074533 -0.92873457
vn 0.00000000 0.00000000 -1.00000000
vn 0.00000000 0.00000000 -1.00000000
vn 0.00000000 -0.37074533 -0.92873457
vn 0.00000000 -0.51059490 -0.85982140
vn 0.00000000 -0.51059490 -0.85982140
vn 0.99962349 -0.02465200 0.01204788
vn 0.99964337 -0.02364409 0.01241295
vn 0.99963941 -0.02369753 0.01262859
vn 0.99962700 -0.02462333 0.01181345
vn 0.99454179 -0.07392571 -0.07363161
vn 0.99628982 -0.04268281 -0.07473134
vn 0.99381929 -0.07779022 -0.07919533
vn 0.99521938 -0.05400812 -0.08137264
vn 0.99381929 -0.07779024 -0.07919534
vn -0.99381945 -0.07779026 -0.07919330
vn -0.99381945 -0.07779026 -0.07919331
vn -0.99454186 -0.07392655 -0.07362982
vn -0.99521975 -0.05400683 -0.08136905
vn -0.99629016 -0.04268128 -0.07472774
vn -0.99964340 -0.02364296 0.01241264
vn -0.99962699 -0.02462373 0.01181330
vn -0.99962349 -0.02465219 0.01204775
vn -0.99963944 -0.02369642 0.01262832
vn 0.00000000 0.17059601 -0.98534106
vn 0.00000000 0.17059599 -0.98534106
vn 0.00000000 0.17059590 -0.98534108
vn 0.00000000 0.17059590 -0.98534108
vn 0.00000000 -0.15351270 0.98814668
vn 0.00000000 -0.15351270 0.98814668
vn 0.00000000 -0.15351270 0.98814668
vn 0.00000000 -0.15351270 0.98814668
vn -1.00000000 0.00000000 0.00000000
vn -1.00000000 0.00000000 0.00000000
vn -1.00000000 0.00000000 0.00000000
vn -1.00000000 0.00000000 0.00000000
vn -1.00000000 0.00000000 0.00000000
vn -1.00000000 0.00000000 0.00000000
vn -1.00000000 0.00000000 0.00000000
vn -1.00000000 0.00000000 0.00000000
vn -1.00000000 0.00000000 0.00000000
vn -1.00000000 0.00000000 0.00000000
vn -1.00000000 0.00000000 0.00000000
vn 1.00000000 0.00000000 0.00000000
vn 1.00000000 0.00000000 0.00000000
vn 1.00000000 0.00000000 0.00000000
vn 1.00000000 0.00000000 0.00000000
vn 1.00000000 0.00000000 0.00000000
vn 1.00000000 0.00000000 0.00000000
vn 1.00000000 0.00000000 0.00000000
vn 1.00000000 0.00000000 0.00000000
vn 1.00000000 0.00000000 0.00000000
vn 1.00000000 0.00000000 0.00000000
vn 1.00000000 0.00000000 0.00000000
vn 0.00000000 -1.00000000 0.00000000
vn 0.00000000 -1.00000000 0.00000000
vn 0.00000000 -1.00000000 0.00000000
vn 0.00000000 -1.00000000 0.00000000
vt -5.25307500 -117.08900000
vt -5.25307500 -115.37750000
vt -3.54152000 -115.37750000
vt -3.54152000 -117.08900000
vt 5.64693300 -120.60230000
vt 5.64693300 -118.89080000
vt 7.35848600 -118.89080000
vt 7.35848600 -120.60230000
vt -69.00050000 -111.67040000
vt -69.00050000 -111.67040000
vt -69.00049000 -111.67040000
vt -69.00049000 -111.67040000
vt -70.94262000 -0.97570040
vt -70.94805000 0.12872670
vt -70.94262000 0.12872670
vt -71.54380000 -0.98278290
vt -71.54380000 0.13581010
vt -71.52927000 0.13595080
vt -71.52927000 -0.98292440
vt -70.94805000 -0.97570040
vt -71.55413000 -0.98278290
vt -71.55413000 0.13581010
vt -71.56104000 -0.98278290
vt -71.56104000 0.13581010
vt -71.34840000 -0.98246280
vt -71.33019000 0.13534400
vt -71.33019000 -0.98227500
vt -71.34840000 0.13553000
vt -71.56460000 0.13027000
vt -71.56460000 -0.97720170
vt -71.65969000 -0.98851240
vt -71.68314000 -0.98851240
vt -71.68314000 0.15224300
vt -71.65969000 0.15224300
vt -71.43893000 0.15224300
vt -71.43893000 -0.98851240
vt -71.35803000 -1.04269200
vt -71.37125000 -1.04269200
vt -71.37125000 0.20642240
vt -71.35803000 0.20642240
vt -71.39102000 0.20642240
vt -71.39102000 -1.04269200
vt -71.41434000 0.20642240
vt -71.41434000 -1.04269200
vt -72.05711000 0.20642240
vt -72.05711000 -1.04269200
vt -72.07186000 -1.04269200
vt -72.07186000 0.20642240
vt -72.25003000 -1.04269200
vt -72.25003000 0.20642240
vt -71.57147000 0.38245980
vt -71.35676000 0.41963430
vt -71.35676000 -0.23212340
vt -71.58955000 0.37975110
vt -71.60084000 0.37290100
vt -71.60838000 0.36265000
vt -71.61107000 0.34822470
vt -71.61736000 -0.22849570
vt -71.61415000 -0.23388630
vt -71.35676000 -0.24387000
vt -71.35676000 -0.38210690
vt -71.47916000 0.28139770
vt -71.73656000 0.27141430
vt -71.47916000 0.41963460
vt -71.47916000 0.26965120
vt -71.73977000 0.26602340
vt -71.73347000 -0.31069720
vt -71.73078000 -0.32512250
vt -71.72324000 -0.33537390
vt -71.71196000 -0.34222380
vt -71.69388000 -0.34493250
vt -71.47916000 -0.38210710
vt -70.96465000 -0.51808040
vt -71.24105000 -0.51200070
vt -71.24105000 0.66481030
vt -70.96465000 0.67088970
vt -71.08881000 0.28069230
vt -71.36114000 0.28069230
vt -71.08881000 0.44240850
vt -71.08881000 0.26730090
vt -71.36911000 0.26730090
vt -71.36448000 -0.33726640
vt -71.36911000 -0.31609910
vt -71.35128000 -0.35521170
vt -71.33153000 -0.36720220
vt -71.30822000 -0.37141260
vt -71.08881000 -0.40549800
vt -71.43948000 0.40836400
vt -71.22008000 0.44244930
vt -71.22008000 -0.23034890
vt -71.46278000 0.40415320
vt -71.48254000 0.39216270
vt -71.49574000 0.37421750
vt -71.50037000 0.35305010
vt -71.50037000 -0.23034890
vt -71.49240000 -0.24374060
vt -71.22008000 -0.24374060
vt -71.22008000 -0.40545700
vt -88.71439000 -113.31290000
vt -88.71439000 -110.12650000
vt -85.53026000 -110.12650000
vt -85.53026000 -113.31290000
vt -116.58840000 -110.94040000
vt -116.58840000 -110.94030000
vt -116.58830000 -110.94030000
vt -116.58830000 -110.94040000
vt -143.95440000 -113.01000000
vt -143.95440000 -107.31050000
vt -138.25910000 -107.31050000
vt -138.25910000 -113.01000000
vt -169.52120000 -113.22000000
vt -169.52120000 -113.21990000
vt -169.52110000 -113.21990000
vt -169.52110000 -113.22000000
vt -170.19360000 0.66322330
vt -170.17730000 0.65581430
vt -170.17730000 -0.59095200
vt -170.19360000 -0.59835990
vt -170.25270000 0.66192230
vt -170.25270000 -0.59705880
vt -171.12010000 0.62853800
vt -171.12010000 -0.54737100
vt -171.14000000 -0.56757370
vt -171.14000000 0.64874140
vt -171.18030000 0.64874140
vt -171.18030000 -0.56757370
vt -170.39270000 0.62016930
vt -170.40710000 0.62016930
vt -170.40710000 0.64874140
vt -170.39270000 0.64874140
vt -170.21100000 0.62853800
vt -170.19090000 0.64874140
vt -170.21100000 -0.54737100
vt -170.19090000 -0.56757370
vt -170.39270000 -0.53900170
vt -170.39270000 -0.56757370
vt -170.40710000 -0.53900170
vt -170.40710000 -0.56757370
vt -170.36430000 0.68007690
vt -170.38880000 -0.59890910
vt -170.38880000 0.68007690
vt -170.36430000 -0.59890910
vt -170.31400000 -0.59890910
vt -170.31400000 0.68007690
vt -169.96440000 0.39965950
vt -170.03920000 -0.31129010
vt -170.03920000 0.38671090
vt -169.96820000 -0.31227910
vt -169.96820000 -0.32662580
vt -170.03920000 -0.32387020
vt -169.98350000 -0.50399480
vt -170.03920000 -0.47191510
vt -169.96820000 -0.50806330
vt -169.92890000 0.39575900
vt -169.91360000 0.39982940
vt -169.91360000 0.21832380
vt -169.98460000 0.36366720
vt -169.98460000 0.21556750
vt -169.98460000 0.20298220
vt -169.91360000 0.20397160
vt -169.90980000 -0.50823280
vt -169.98460000 -0.49527880
vt -170.12370000 0.62239180
vt -170.12370000 -0.56390110
vt -170.19900000 -0.56206920
vt -170.19900000 0.62055890
vt -170.33470000 0.65127280
vt -170.26320000 0.65127280
vt -170.26320000 -0.57010500
vt -170.33470000 -0.57010500
vt -170.09570000 0.46441180
vt -170.07240000 0.46441180
vt -170.07240000 0.26288040
vt -170.14340000 0.43606130
vt -170.14340000 0.26288040
vt -170.14340000 0.24853930
vt -170.07240000 0.24853930
vt -170.07240000 -0.48299110
vt -170.14340000 -0.47195890
vt -170.14340000 -0.51217960
vt -170.07240000 -0.52321280
vt -170.04320000 -0.52323450
vt -170.09100000 -0.49488280
vt -170.09100000 -0.32169370
vt -170.01990000 -0.32169370
vt -170.01990000 -0.52323450
vt -170.01990000 -0.30735230
vt -170.09100000 -0.30735230
vt -170.09100000 0.41317740
vt -170.01990000 0.42421020
vt -170.01990000 0.46443340
vt -170.09100000 0.45339990
vt -170.27610000 0.64746590
vt -170.23590000 0.64746590
vt -170.23590000 -0.56629810
vt -170.27610000 -0.56629810
f 3/3/3 2/2/2 1/1/1
f 4/4/4 3/3/3 1/1/1
f 7/7/7 6/6/6 5/5/5
f 8/8/8 7/7/7 5/5/5
f 11/11/11 10/10/10 9/9/9
f 12/12/12 11/11/11 9/9/9
f 15/15/15 14/14/14 13/13/13
f 18/18/18 17/17/17 16/16/16
f 19/19/19 18/18/18 16/16/16
f 18/18/18 19/19/19 14/14/14
f 19/19/19 20/20/20 14/14/14
f 14/14/14 20/20/20 13/13/13
f 17/17/17 22/22/22 21/21/21
f 16/16/16 17/17/17 21/21/21
f 22/22/22 24/24/24 23/23/23
f 21/21/21 22/22/22 23/23/23
f 27/27/27 26/26/26 25/25/25
f 26/26/26 28/28/28 25/25/25
f 28/28/28 29/29/29 25/25/25
f 29/29/29 30/30/30 25/25/25
f 33/33/33 32/32/32 31/31/31
f 34/34/34 33/33/33 31/31/31
f 34/34/34 31/31/31 35/35/35
f 31/31/31 36/36/36 35/35/35
f 39/39/39 38/38/38 37/37/37
f 40/40/40 39/39/39 37/37/37
f 39/39/39 41/41/41 38/38/38
f 41/41/41 42/42/42 38/38/38
f 41/41/41 43/43/43 42/42/42
f 43/43/43 44/44/44 42/42/42
f 44/44/44 43/43/43 45/45/45
f 46/46/46 44/44/44 45/45/45
f 46/46/46 45/45/45 47/47/47
f 45/45/45 48/48/48 47/47/47
f 47/47/47 48/48/48 49/49/49
f 48/48/48 50/50/50 49/49/49
f 53/53/53 52/52/52 51/51/51
f 53/53/53 51/51/51 54/54/54
f 53/53/53 54/54/54 55/55/55
f 53/53/53 55/55/55 56/56/56
f 53/53/53 56/56/56 57/57/57
f 57/57/57 58/58/58 53/53/53
f 58/58/58 59/59/59 53/53/53
f 59/59/59 60/60/60 53/53/53
f 59/59/59 61/61/61 60/60/60
f 64/64/64 63/63/63 62/62/62
f 62/62/62 63/63/63 65/65/65
f 63/63/63 66/66/66 65/65/65
f 65/65/65 66/66/66 67/67/67
f 67/67/67 68/68/68 65/65/65
f 68/68/68 69/69/69 65/65/65
f 69/69/69 70/70/70 65/65/65
f 70/70/70 71/71/71 65/65/65
f 71/71/71 72/72/72 65/65/65
f 75/75/75 74/74/74 73/73/73
f 76/76/76 75/75/75 73/73/73
f 79/79/79 78/78/78 77/77/77
f 77/77/77 78/78/78 80/80/80
f 78/78/78 81/81/81 80/80/80
f 82/82/82 80/80/80 81/81/81
f 81/81/81 83/83/83 82/82/82
f 82/82/82 84/84/84 80/80/80
f 84/84/84 85/85/85 80/80/80
f 85/85/85 86/86/86 80/80/80
f 86/86/86 87/87/87 80/80/80
f 90/90/90 89/89/89 88/88/88
f 90/90/90 88/88/88 91/91/91
f 90/90/90 91/91/91 92/92/92
f 90/90/90 92/92/92 93/93/93
f 90/90/90 93/93/93 94/94/94
f 94/94/94 95/95/95 90/90/90
f 95/95/95 96/96/96 90/90/90
f 96/96/96 97/97/97 90/90/90
f 97/97/97 96/96/96 98/98/98
f 101/101/101 100/100/100 99/99/99
f 102/102/102 101/101/101 99/99/99
f 105/105/105 104/104/104 103/103/103
f 106/106/106 105/105/105 103/103/103
f 109/109/109 108/108/108 107/107/107
f 110/110/110 109/109/109 107/107/107
f 113/113/113 112/112/112 111/111/111
f 114/114/114 113/113/113 111/111/111
f 117/117/117 116/116/116 115/115/115
f 118/118/118 117/117/117 115/115/115
f 115/115/115 119/119/119 118/118/118
f 119/119/119 120/120/120 118/118/118
f 123/123/123 122/122/122 121/121/121
f 124/124/124 123/123/123 121/121/121
f 124/124/124 125/125/125 123/123/123
f 125/125/125 126/126/126 123/123/123
f 129/129/129 128/128/128 127/127/127
f 130/130/130 129/129/129 127/127/127
f 130/130/130 127/127/127 131/131/131
f 132/132/132 130/130/130 131/131/131
f 132/132/132 131/131/131 133/133/133
f 134/134/134 132/132/132 133/133/133
f 134/134/134 133/133/133 135/135/135
f 136/136/136 134/134/134 135/135/135
f 136/136/136 135/135/135 137/137/137
f 138/138/138 136/136/136 137/137/137
f 138/138/138 137/137/137 122/122/122
f 123/123/123 138/138/138 122/122/122
f 124/124/124 121/121/121 128/128/128
f 129/129/129 124/124/124 128/128/128
f 141/141/141 140/140/140 139/139/139
f 140/140/140 142/142/142 139/139/139
f 139/139/139 142/142/142 143/143/143
f 144/144/144 139/139/139 143/143/143
f 147/147/147 146/146/146 145/145/145
f 146/146/146 148/148/148 145/145/145
f 148/148/148 146/146/146 149/149/149
f 146/146/146 150/150/150 149/149/149
f 151/151/151 149/149/149 150/150/150
f 150/150/150 152/152/152 151/151/151
f 151/151/151 153/153/153 149/149/149
f 156/156/156 155/155/155 154/154/154
f 156/156/156 154/154/154 157/157/157
f 157/157/157 158/158/158 156/156/156
f 158/158/158 159/159/159 156/156/156
f 159/159/159 160/160/160 156/156/156
f 160/160/160 159/159/159 161/161/161
f 159/159/159 162/162/162 161/161/161
f 165/165/165 164/164/164 163/163/163
f 166/166/166 165/165/165 163/163/163
f 169/169/169 168/168/168 167/167/167
f 170/170/170 169/169/169 167/167/167
f 173/173/173 172/172/172 171/171/171
f 173/173/173 171/171/171 174/174/174
f 174/174/174 175/175/175 173/173/173
f 173/173/173 175/175/175 176/176/176
f 177/177/177 173/173/173 176/176/176
f 177/177/177 176/176/176 178/178/178
f 176/176/176 179/179/179 178/178/178
f 179/179/179 180/180/180 178/178/178
f 180/180/180 181/181/181 178/178/178
f 184/184/184 183/183/183 182/182/182
f 182/182/182 185/185/185 184/184/184
f 182/182/182 186/186/186 185/185/185
f 185/185/185 187/187/187 184/184/184
f 187/187/187 188/188/188 184/184/184
f 189/189/189 188/188/188 187/187/187
f 190/190/190 189/189/189 187/187/187
f 190/190/190 191/191/191 189/189/189
f 191/191/191 192/192/192 189/189/189
f 195/195/195 194/194/194 193/193/193
f 196/196/196 195/195/195 193/193/193

