mtllib material.mtl
usemtl material_0
v 0.07622667 0.00222779 0.00409900
v 0.07622667 0.00222778 0.00467111
v 0.07609797 0.00222778 0.00473094
v 0.07609797 0.00222779 0.00414542
v 0.07459355 0.00222778 0.00543028
v 0.07622667 0.00222779 0.00330365
v 0.07459355 0.00222778 0.00468811
v 0.07450038 0.00222778 0.00547359
v 0.07609797 0.00222779 0.00330365
v 0.07609797 0.00385864 0.00167281
v 0.07622667 0.00385864 0.00167281
v 0.07609797 0.00445557 -0.00055498
v 0.07622667 0.00445557 -0.00055498
v 0.07609797 0.00385864 -0.00278276
v 0.07622667 0.00385864 -0.00278276
v 0.07459355 0.00385863 -0.00278276
v 0.07459355 0.00445556 -0.00055498
v 0.07450038 0.00385863 -0.00278276
v 0.07459355 0.00385863 0.00167281
v 0.07450038 0.00445556 -0.00055498
v 0.07440453 0.00379903 -0.00274835
v 0.07459355 0.00222778 0.00330365
v 0.07440453 0.00438674 -0.00055498
v 0.07430866 0.00385863 -0.00278276
v 0.07450038 0.00385863 0.00167281
v 0.07450038 0.00222778 0.00472171
v 0.03063034 0.00222751 0.00472171
v 0.03063154 0.00222755 0.00563934
v 0.02975662 0.00222751 0.00472171
v 0.02975784 0.00222754 0.00564264
v 0.07450038 0.00222778 0.00330365
v 0.07440453 0.00379903 0.00163840
v 0.07440453 0.00219337 0.00324405
v 0.07430866 0.00445556 -0.00055498
v 0.07430866 0.00385863 0.00167281
v 0.07430866 0.00222778 0.00330365
v 0.07375062 0.00222778 0.00330365
v 0.07375062 0.00385863 0.00167281
v -0.08447114 0.00222778 0.00330365
v 0.07375062 0.00445556 -0.00055498
v 0.07375062 0.00385863 -0.00278276
v -0.08447114 0.00385863 0.00167281
v -0.08447114 0.00445556 -0.00055498
v -0.08447114 0.00385863 -0.00278276
v -0.08502810 0.00373610 -0.00271201
v -0.08502810 0.00431408 -0.00055498
v -0.09996215 0.00106981 -0.00117264
v -0.09996215 0.00123531 -0.00055498
v -0.08502810 0.00373610 0.00160207
v -0.08502810 0.00215704 0.00318112
v -0.09996215 0.00106981 0.00006268
v -0.09996215 0.00061764 0.00051485
v 0.07648081 -0.00192580 0.00055688
v 0.07611556 -0.00182122 0.00049652
v 0.07611556 -0.00210297 -0.00055498
v 0.07648081 -0.00222372 -0.00055498
v 0.07611556 -0.00182122 -0.00160648
v 0.07648081 -0.00192580 -0.00166684
v 0.07611556 -0.00105148 -0.00237622
v 0.07648081 -0.00111185 -0.00248079
v 0.07648078 0.00192583 -0.00166684
v 0.07611553 0.00182125 -0.00160648
v 0.07611553 0.00210300 -0.00055498
v 0.07648078 0.00222375 -0.00055498
v 0.07611553 0.00182125 0.00049652
v 0.07648078 0.00192582 0.00055688
v 0.07611553 0.00105150 0.00126627
v 0.07648078 0.00111188 0.00137083
v 0.07648078 0.00111188 -0.00248079
v 0.07611553 0.00182125 -0.00160648
v 0.07648078 0.00192583 -0.00166684
v 0.07611553 0.00105151 -0.00237622
v 0.07648078 0.00000001 -0.00277872
v 0.07611553 0.00000001 -0.00265796
v 0.07648081 -0.00111185 -0.00248079
v 0.07611556 -0.00105148 -0.00237622
v 0.07648081 -0.00111185 0.00137083
v 0.07611556 -0.00182122 0.00049652
v 0.07648081 -0.00192580 0.00055688
v 0.07611556 -0.00105148 0.00126627
v 0.07648081 0.00000001 0.00166876
v 0.07611556 0.00000001 0.00154800
v 0.07648078 0.00111188 0.00137083
v 0.07611553 0.00105150 0.00126627
v 0.07609802 -0.00222777 0.00330365
v 0.07622672 -0.00222777 0.00409900
v 0.07622672 -0.00222777 0.00330365
v 0.07609802 -0.00222777 0.00414542
v 0.07622672 -0.00222777 0.00467111
v 0.07459361 -0.00222777 0.00330365
v 0.07609802 -0.00222777 0.00473094
v 0.07459361 -0.00222777 0.00468811
v 0.07450044 -0.00222777 0.00330365
v 0.07459361 -0.00222778 0.00543027
v 0.07450044 -0.00222777 0.00472171
v 0.07450044 -0.00222778 0.00547359
v 0.03062820 -0.00222801 0.00563856
v 0.03063040 -0.00222804 0.00472171
v 0.02975444 -0.00222801 0.00564185
v 0.02975667 -0.00222805 0.00472171
v 0.03062820 -0.00222801 0.00563856
v 0.02975444 -0.00222801 0.00564185
v 0.02975767 -0.00000034 0.00623917
v 0.03063138 -0.00000034 0.00623587
v 0.02975784 0.00222754 0.00564264
v 0.07450044 -0.00222778 0.00547359
v 0.03063154 0.00222755 0.00563934
v 0.07450044 0.00000000 0.00607051
v 0.07459361 -0.00222778 0.00543027
v 0.07450038 0.00222778 0.00547359
v 0.07459361 0.00000000 0.00602721
v 0.07609802 -0.00222777 0.00473094
v 0.07459355 0.00222778 0.00543028
v 0.07609802 0.00000001 0.00532787
v 0.07622672 -0.00222777 0.00467111
v 0.07609797 0.00222778 0.00473094
v 0.07622672 0.00000001 0.00526805
v 0.07622667 0.00222778 0.00467111
v 0.07450038 0.00222778 0.00330365
v 0.07450038 0.00222778 0.00472171
v 0.07450044 0.00000000 0.00531865
v 0.07450044 0.00000001 0.00390057
v 0.07450044 -0.00222777 0.00472171
v 0.07450044 -0.00222777 0.00330365
v 0.02975667 -0.00000027 0.00531865
v 0.02975444 -0.00222801 0.00564185
v 0.02975667 -0.00222805 0.00472171
v 0.02975767 -0.00000034 0.00623917
v 0.02975662 0.00222751 0.00472171
v 0.02975784 0.00222754 0.00564264
v -0.09996215 -0.00000002 0.00012363
v -0.10140860 0.00033928 0.00003271
v -0.09996215 0.00033928 0.00003271
v -0.10140860 -0.00000003 0.00012363
v -0.10177560 0.00022296 -0.00016876
v -0.09996215 -0.00033932 0.00003271
v -0.10177560 -0.00000002 -0.00010901
v -0.10140860 -0.00033933 0.00003271
v -0.09996215 -0.00058771 -0.00021567
v -0.10177560 -0.00022301 -0.00016876
v -0.10140860 -0.00058772 -0.00021567
v -0.10177560 -0.00038624 -0.00033200
v 0.07622672 -0.00222777 0.00409900
v 0.07622672 -0.00222777 0.00467111
v 0.07622672 0.00000001 0.00526805
v 0.07622672 0.00000001 0.00469592
v 0.07622667 0.00222778 0.00467111
v 0.07622667 0.00222779 0.00409900
v 0.07622672 -0.00222777 0.00330365
v 0.07622672 0.00000001 0.00390057
v 0.07622667 0.00222779 0.00330365
v 0.07648081 -0.00190564 0.00274571
v 0.07648081 0.00000001 0.00325632
v 0.07648081 -0.00330067 0.00135068
v 0.07622672 -0.00385862 0.00167279
v 0.07648077 0.00190566 0.00274571
v 0.07622667 0.00385864 0.00167281
v 0.07648081 -0.00381129 -0.00055498
v 0.07622672 -0.00445555 -0.00055498
v 0.07648077 0.00330070 0.00135068
v 0.07622667 0.00445557 -0.00055498
v 0.07648081 -0.00330067 -0.00246063
v 0.07622672 -0.00385862 -0.00278276
v 0.07648077 0.00381132 -0.00055498
v 0.07622667 0.00385864 -0.00278276
v 0.07648081 -0.00190564 -0.00385567
v 0.07622672 -0.00222777 -0.00441361
v 0.07648077 0.00330070 -0.00246063
v 0.07622667 0.00222779 -0.00441361
v 0.07648077 0.00000001 -0.00436629
v 0.07622667 0.00000001 -0.00501053
v 0.07648077 0.00190567 -0.00385567
v 0.07648081 -0.00204846 -0.00173767
v 0.07648081 -0.00118268 -0.00260346
v 0.07648078 0.00000001 -0.00292036
v 0.07648078 0.00118270 -0.00260346
v 0.07648078 0.00204849 -0.00173767
v 0.07648078 0.00236539 -0.00055498
v 0.07648081 -0.00236536 -0.00055498
v 0.07648078 0.00204849 0.00062772
v 0.07648081 -0.00204846 0.00062772
v 0.07648078 0.00118270 0.00149350
v 0.07648081 -0.00118268 0.00149350
v 0.07648081 0.00000001 0.00181039
v 0.07648078 0.00222375 -0.00055498
v 0.07648078 0.00192583 -0.00166684
v 0.07648078 0.00192582 0.00055688
v 0.07648078 0.00111188 0.00137083
v 0.07648078 0.00111188 -0.00248079
v 0.07648081 0.00000001 0.00166876
v 0.07648081 -0.00111185 0.00137083
v 0.07648078 0.00000001 -0.00277872
v 0.07648081 -0.00192580 0.00055688
v 0.07648081 -0.00111185 -0.00248079
v 0.07648081 -0.00222372 -0.00055498
v 0.07648081 -0.00192580 -0.00166684
v 0.03063034 0.00222751 0.00472171
v 0.02975662 0.00222751 0.00472171
v 0.02975667 -0.00000027 0.00531865
v 0.03063040 -0.00000026 0.00531865
v 0.07450038 0.00222778 0.00472171
v 0.02975667 -0.00222805 0.00472171
v 0.07450044 0.00000000 0.00531865
v 0.03063040 -0.00222804 0.00472171
v 0.07450044 -0.00222777 0.00472171
v 0.07611553 0.00182125 0.00049652
v 0.07628628 0.00099113 0.00116168
v 0.07611553 0.00105150 0.00126627
v 0.07628628 0.00171667 0.00043614
v 0.07611553 0.00210300 -0.00055498
v 0.07668415 0.00098974 0.00115927
v 0.07628628 0.00198224 -0.00055498
v 0.07611553 0.00182125 -0.00160648
v 0.07628628 0.00171668 -0.00154610
v 0.07668415 0.00171426 0.00043474
v 0.08898754 0.00094740 0.00108583
v 0.08898754 0.00164090 0.00039233
v 0.07668415 0.00197946 -0.00055498
v 0.07668415 0.00171426 -0.00154471
v 0.08898754 0.00189474 -0.00055499
v 0.08898754 0.00164090 -0.00150234
v 0.07611556 -0.00105148 0.00126627
v 0.07628629 -0.00171665 0.00043613
v 0.07611556 -0.00182122 0.00049652
v 0.07628629 -0.00099110 0.00116168
v 0.07611556 0.00000001 0.00154800
v 0.07668418 -0.00171423 0.00043474
v 0.07628629 0.00000001 0.00142725
v 0.07611553 0.00105150 0.00126627
v 0.07628628 0.00099113 0.00116168
v 0.07668418 -0.00098971 0.00115927
v 0.08898756 -0.00164076 0.00039233
v 0.08898756 -0.00094726 0.00108583
v 0.07668418 0.00000001 0.00142447
v 0.07668415 0.00098974 0.00115927
v 0.08898756 0.00000007 0.00133966
v 0.08898754 0.00094740 0.00108583
v 0.07668418 -0.00098971 -0.00226923
v 0.08898756 -0.00094726 -0.00219583
v 0.08898754 0.00000007 -0.00244966
v 0.07668415 0.00000002 -0.00253442
v 0.07628629 -0.00099110 -0.00227164
v 0.08898754 0.00094740 -0.00219583
v 0.07628628 0.00000001 -0.00253720
v 0.07611556 -0.00105148 -0.00237622
v 0.07611553 0.00000001 -0.00265796
v 0.07668415 0.00098974 -0.00226923
v 0.08898754 0.00164090 -0.00150234
v 0.07668415 0.00171426 -0.00154471
v 0.07628628 0.00099113 -0.00227164
v 0.07611553 0.00105151 -0.00237622
v 0.07628628 0.00171668 -0.00154610
v 0.07611553 0.00182125 -0.00160648
v 0.07609802 -0.00222777 0.00330365
v 0.07622672 -0.00222777 0.00330365
v 0.07622672 -0.00385862 0.00167279
v 0.07609802 -0.00385862 0.00167279
v 0.07459361 -0.00222777 0.00330365
v 0.07459361 -0.00385862 0.00167279
v 0.07450044 -0.00222777 0.00330365
v 0.07450044 -0.00385862 0.00167279
v 0.07440457 -0.00219336 0.00324405
v 0.07440457 -0.00379902 0.00163840
v 0.07440457 0.00000001 0.00383176
v 0.07450044 0.00000001 0.00390057
v 0.07430872 -0.00222777 0.00330365
v 0.07430872 -0.00385862 0.00167279
v 0.07375067 -0.00385862 0.00167279
v 0.07440453 0.00219337 0.00324405
v 0.07450038 0.00222778 0.00330365
v 0.07430866 0.00222778 0.00330365
v 0.07430872 0.00000000 0.00390057
v 0.07375067 -0.00222777 0.00330365
v -0.08447114 -0.00385862 0.00167279
v 0.07375067 0.00000000 0.00390057
v 0.07375062 0.00222778 0.00330365
v -0.08447114 -0.00222777 0.00330365
v -0.08447114 0.00000000 0.00390057
v -0.08447114 0.00222778 0.00330365
v -0.08502810 0.00215704 0.00318112
v -0.08502810 0.00000000 0.00375910
v -0.09996215 0.00061764 0.00051485
v -0.09996215 -0.00000002 0.00068036
v -0.08502810 -0.00215703 0.00318112
v -0.08502810 -0.00373610 0.00160205
v -0.09996215 -0.00061768 0.00051485
v -0.09996215 -0.00106984 0.00006268
v 0.07609802 -0.00222777 -0.00441361
v 0.07622672 -0.00222777 -0.00441361
v 0.07622667 0.00000001 -0.00501053
v 0.07609797 0.00000001 -0.00501053
v 0.07459361 -0.00222777 -0.00441361
v 0.07622667 0.00222779 -0.00441361
v 0.07459355 0.00000001 -0.00501053
v 0.07450044 -0.00222777 -0.00441361
v 0.07609797 0.00222779 -0.00441361
v 0.07622667 0.00385864 -0.00278276
v 0.07609797 0.00385864 -0.00278276
v 0.07459355 0.00222779 -0.00441361
v 0.07459355 0.00385863 -0.00278276
v 0.07450038 0.00000001 -0.00501053
v 0.07440457 -0.00219336 -0.00435400
v 0.07450038 0.00222779 -0.00441361
v 0.07450038 0.00385863 -0.00278276
v 0.07440453 0.00000001 -0.00494171
v 0.07430872 -0.00222777 -0.00441361
v 0.07440453 0.00219337 -0.00435400
v 0.07440453 0.00379903 -0.00274835
v 0.07430866 0.00000001 -0.00501053
v 0.07430866 0.00222778 -0.00441361
v 0.07430866 0.00385863 -0.00278276
v 0.07375062 0.00385863 -0.00278276
v 0.07375062 0.00222778 -0.00441361
v -0.08447114 0.00385863 -0.00278276
v 0.07375062 0.00000001 -0.00501053
v 0.07375067 -0.00222777 -0.00441361
v -0.08447114 0.00222778 -0.00441361
v -0.08447114 0.00000001 -0.00501053
v -0.08447114 -0.00222777 -0.00441361
v -0.08502810 -0.00215703 -0.00429108
v -0.08502810 0.00000001 -0.00486905
v -0.09996215 -0.00061768 -0.00162480
v -0.09996215 -0.00000002 -0.00179030
v -0.08502810 0.00215704 -0.00429108
v -0.08502810 0.00373610 -0.00271201
v -0.09996215 0.00061764 -0.00162480
v -0.09996215 0.00106981 -0.00117264
v -0.10140860 -0.00033933 -0.00114267
v -0.10177560 -0.00022301 -0.00094119
v -0.10177560 -0.00038624 -0.00077795
v -0.10140860 -0.00058772 -0.00089429
v -0.09996215 -0.00033932 -0.00114267
v -0.10177560 -0.00044599 -0.00055498
v -0.09996215 -0.00058771 -0.00089429
v -0.10140860 -0.00067863 -0.00055498
v -0.10177560 -0.00038624 -0.00033200
v -0.09996215 -0.00067863 -0.00055498
v -0.10140860 -0.00058772 -0.00021567
v -0.09996215 -0.00058771 -0.00021567
v -0.10140860 0.00058767 -0.00089429
v -0.10177560 0.00038620 -0.00077795
v -0.10177560 0.00022296 -0.00094119
v -0.10140860 0.00033928 -0.00114267
v -0.09996215 0.00058767 -0.00089429
v -0.10177560 -0.00000002 -0.00100095
v -0.09996215 0.00033928 -0.00114267
v -0.10140860 -0.00000003 -0.00123358
v -0.10177560 -0.00022301 -0.00094119
v -0.09996215 -0.00000002 -0.00123358
v -0.10140860 -0.00033933 -0.00114267
v -0.09996215 -0.00033932 -0.00114267
v -0.10177560 -0.00038624 -0.00033200
v -0.10177560 -0.00044599 -0.00055498
v -0.10177560 -0.00038624 -0.00077795
v -0.10177560 -0.00022301 -0.00016876
v -0.10177560 -0.00022301 -0.00094119
v -0.10177560 -0.00000002 -0.00010901
v -0.10177560 -0.00000002 -0.00100095
v -0.10177560 0.00022296 -0.00016876
v -0.10177560 0.00022296 -0.00094119
v -0.10177560 0.00038620 -0.00033200
v -0.10177560 0.00038620 -0.00077795
v -0.10177560 0.00044595 -0.00055498
v -0.10140860 0.00033928 0.00003271
v -0.10177560 0.00022296 -0.00016876
v -0.10177560 0.00038620 -0.00033200
v -0.10140860 0.00058767 -0.00021567
v -0.09996215 0.00033928 0.00003271
v -0.10177560 0.00044595 -0.00055498
v -0.09996215 0.00058767 -0.00021567
v -0.10140860 0.00067858 -0.00055498
v -0.10177560 0.00038620 -0.00077795
v -0.09996215 0.00067859 -0.00055498
v -0.10140860 0.00058767 -0.00089429
v -0.09996215 0.00058767 -0.00089429
v 0.07668418 -0.00171423 0.00043474
v 0.08898756 -0.00164076 0.00039233
v 0.08898756 -0.00189460 -0.00055499
v 0.07668418 -0.00197943 -0.00055498
v 0.07628629 -0.00171665 0.00043613
v 0.08898756 -0.00164076 -0.00150234
v 0.07628629 -0.00198222 -0.00055498
v 0.07611556 -0.00182122 0.00049652
v 0.07611556 -0.00210297 -0.00055498
v 0.07668418 -0.00171423 -0.00154471
v 0.08898756 -0.00094726 -0.00219583
v 0.07668418 -0.00098971 -0.00226923
v 0.07628629 -0.00171665 -0.00154610
v 0.07611556 -0.00182122 -0.00160648
v 0.07628629 -0.00099110 -0.00227164
v 0.07611556 -0.00105148 -0.00237622
v 0.07609802 -0.00385862 0.00167279
v 0.07622672 -0.00385862 0.00167279
v 0.07622672 -0.00445555 -0.00055498
v 0.07609802 -0.00445555 -0.00055498
v 0.07459361 -0.00385862 0.00167279
v 0.07622672 -0.00385862 -0.00278276
v 0.07459361 -0.00445555 -0.00055498
v 0.07450044 -0.00385862 0.00167279
v 0.07609802 -0.00385862 -0.00278276
v 0.07622672 -0.00222777 -0.00441361
v 0.07609802 -0.00222777 -0.00441361
v 0.07459361 -0.00385862 -0.00278276
v 0.07459361 -0.00222777 -0.00441361
v 0.07450044 -0.00445555 -0.00055498
v 0.07440457 -0.00379902 0.00163840
v 0.07450044 -0.00385862 -0.00278276
v 0.07450044 -0.00222777 -0.00441361
v 0.07440457 -0.00438673 -0.00055498
v 0.07430872 -0.00385862 0.00167279
v 0.07440457 -0.00379902 -0.00274835
v 0.07440457 -0.00219336 -0.00435400
v 0.07430872 -0.00445555 -0.00055498
v 0.07430872 -0.00385862 -0.00278276
v 0.07430872 -0.00222777 -0.00441361
v 0.07375067 -0.00222777 -0.00441361
v 0.07375067 -0.00385862 -0.00278276
v -0.08447114 -0.00222777 -0.00441361
v 0.07375067 -0.00445555 -0.00055498
v 0.07375067 -0.00385862 0.00167279
v -0.08447114 -0.00385862 -0.00278276
v -0.08447108 -0.00445555 -0.00055498
v -0.08447114 -0.00385862 0.00167279
v -0.08502810 -0.00373610 0.00160205
v -0.08502806 -0.00431407 -0.00055498
v -0.09996215 -0.00106984 0.00006268
v -0.09996215 -0.00123535 -0.00055498
v -0.08502810 -0.00373609 -0.00271202
v -0.08502810 -0.00215703 -0.00429108
v -0.09996215 -0.00106984 -0.00117264
v -0.09996215 -0.00061768 -0.00162480
v 0.08898756 -0.00164076 -0.00150234
v 0.08898756 -0.00189460 -0.00055499
v 0.08898756 -0.00164076 0.00039233
v 0.08898756 -0.00094726 -0.00219583
v 0.08898756 -0.00094726 0.00108583
v 0.08898756 0.00000007 0.00133966
v 0.08898754 0.00000007 -0.00244966
v 0.08898754 0.00094740 0.00108583
v 0.08898754 0.00094740 -0.00219583
v 0.08898754 0.00164090 0.00039233
v 0.08898754 0.00164090 -0.00150234
v 0.08898754 0.00189474 -0.00055499
v -0.09996215 0.00106981 0.00006268
v -0.09996215 0.00058767 -0.00021567
v -0.09996215 0.00067859 -0.00055498
v -0.09996215 0.00123531 -0.00055498
v -0.09996215 0.00061764 0.00051485
v -0.09996215 0.00058767 -0.00089429
v -0.09996215 0.00033928 0.00003271
v -0.09996215 0.00106981 -0.00117264
v -0.09996215 -0.00000002 0.00068036
v -0.09996215 0.00033928 -0.00114267
v -0.09996215 -0.00000002 0.00012363
v -0.09996215 0.00061764 -0.00162480
v -0.09996215 -0.00061768 0.00051485
v -0.09996215 -0.00000002 -0.00123358
v -0.09996215 -0.00033932 0.00003271
v -0.09996215 -0.00000002 -0.00179030
v -0.09996215 -0.00106984 0.00006268
v -0.09996215 -0.00033932 -0.00114267
v -0.09996215 -0.00058771 -0.00021567
v -0.09996215 -0.00061768 -0.00162480
v -0.09996215 -0.00123535 -0.00055498
v -0.09996215 -0.00058771 -0.00089429
v -0.09996215 -0.00067863 -0.00055498
v -0.09996215 -0.00106984 -0.00117264
vn 0.70709150 0.70712200 0.00000000
vn 0.67179100 0.64966460 0.35585510
vn 0.26051030 0.78616980 0.56042070
vn 0.00000000 1.00000000 0.00000000
vn 0.26048190 0.78617610 0.56042520
vn 0.71167660 0.59814520 0.36842740
vn 0.00000000 1.00000000 0.00000000
vn 0.14856680 0.75235590 0.64178540
vn 0.00000000 0.92388030 0.38268150
vn 0.00000000 0.86603160 0.49998930
vn 0.52318830 0.73804250 0.42610720
vn 0.00000000 1.00000000 0.00000000
vn 0.52318950 0.85221630 0.00000000
vn 0.00000000 0.86603160 -0.49998930
vn 0.52318830 0.73804250 -0.42610720
vn 0.00000000 0.86602400 -0.50000260
vn 0.00000000 1.00000000 0.00000000
vn -0.29252980 0.82814760 -0.47811910
vn 0.00000000 0.86602400 0.50000260
vn -0.29252630 0.95625750 0.00000000
vn 0.00000000 0.86603160 -0.49998930
vn 0.00000000 0.92388030 0.38268150
vn 0.00000000 1.00000000 0.00000000
vn 0.29252980 0.82814760 -0.47811910
vn -0.29252980 0.82814760 0.47811910
vn -0.37252170 0.87527040 -0.30843060
vn 0.00000000 0.60873390 -0.79337440
vn 0.00228895 0.79332020 0.60880020
vn -0.56518670 0.50228650 -0.65442510
vn -0.59103650 0.63922640 0.49200140
vn -0.51382500 0.66855850 0.53759960
vn 0.00000000 0.86603160 0.49998930
vn 0.00000000 0.50000260 0.86602400
vn 0.29252630 0.95625750 0.00000000
vn 0.29252980 0.82814760 0.47811910
vn 0.29252550 0.47814260 0.82813560
vn 0.00000000 0.49998930 0.86603160
vn 0.00000000 0.86603160 0.49998930
vn -0.12158910 0.49627540 0.85960850
vn 0.00000000 1.00000000 0.00000000
vn 0.00000000 0.86603160 -0.49998930
vn -0.12158910 0.85960850 0.49627540
vn -0.12161910 0.99257690 0.00000000
vn -0.12161920 0.85960530 -0.49627360
vn -0.22492930 0.84383570 -0.48718390
vn -0.22492410 0.97437630 0.00000000
vn -0.72657870 0.59503940 -0.34352790
vn -0.72659160 0.68706970 0.00000000
vn -0.22492930 0.84383570 0.48718390
vn -0.22492930 0.48718390 0.84383570
vn -0.72659310 0.59502630 0.34352030
vn -0.72657870 0.34352790 0.59503940
vn 0.85764990 0.44533580 -0.25712400
vn 0.95867620 0.24638330 -0.14225100
vn 0.95867550 0.28450190 0.00000000
vn 0.85765710 0.51422190 0.00000000
vn 0.95867620 0.24638330 0.14225100
vn 0.85764990 0.44533580 0.25712400
vn 0.95866890 0.14225000 0.24641200
vn 0.85764990 0.25712400 0.44533580
vn 0.85763820 -0.44536020 0.25712050
vn 0.95867620 -0.24638330 0.14225100
vn 0.95867550 -0.28450190 0.00000000
vn 0.85764370 -0.51424440 0.00000000
vn 0.95867620 -0.24638330 -0.14225100
vn 0.85763820 -0.44536020 -0.25712050
vn 0.95867620 -0.14225100 -0.24638330
vn 0.85763820 -0.25712050 -0.44536020
vn 0.85764990 -0.25712400 0.44533580
vn 0.95867620 -0.24638330 0.14225100
vn 0.85763820 -0.44536020 0.25712050
vn 0.95867620 -0.14225100 0.24638330
vn 0.85764370 0.00000000 0.51424440
vn 0.95867550 0.00000000 0.28450190
vn 0.85764990 0.25712400 0.44533580
vn 0.95866890 0.14225000 0.24641200
vn 0.85764990 0.25712400 -0.44533580
vn 0.95867620 0.24638330 -0.14225100
vn 0.85764990 0.44533580 -0.25712400
vn 0.95866890 0.14225000 -0.24641200
vn 0.85764370 0.00000000 -0.51424440
vn 0.95867550 0.00000000 -0.28450190
vn 0.85763820 -0.25712050 -0.44536020
vn 0.95867620 -0.14225100 -0.24638330
vn 0.00000000 -0.92388030 0.38268150
vn 0.70710680 -0.70710680 0.00000000
vn 0.71167660 -0.59814520 0.36842740
vn 0.00000000 -1.00000000 0.00000000
vn 0.67182110 -0.64963360 0.35585490
vn 0.00000000 -0.92388030 0.38268150
vn 0.26051030 -0.78616980 0.56042070
vn 0.00000000 -1.00000000 0.00000000
vn -0.51379200 -0.66858580 0.53759710
vn 0.26051030 -0.78616980 0.56042070
vn -0.37251170 -0.87527740 -0.30842240
vn 0.14859960 -0.75236730 0.64176460
vn 0.00228897 -0.79338710 0.60871310
vn 0.00000000 -0.60876790 -0.79334840
vn -0.59231870 -0.63855550 0.49133030
vn -0.56451280 -0.50265040 -0.65472730
vn 0.00228897 -0.79338710 0.60871310
vn -0.59231870 -0.63855550 0.49133030
vn -0.65158030 0.00015259 0.75857970
vn 0.00375386 -0.00012208 0.99999300
vn -0.59103650 0.63922640 0.49200140
vn 0.14859960 -0.75236730 0.64176460
vn 0.00228895 0.79332020 0.60880020
vn 0.21055020 -0.00003052 0.97758310
vn 0.26051030 -0.78616980 0.56042070
vn 0.14856680 0.75235590 0.64178540
vn 0.42153000 0.00000000 0.90681440
vn 0.26051030 -0.78616980 0.56042070
vn 0.26048190 0.78617610 0.56042520
vn 0.42153000 0.00000000 0.90681440
vn 0.67182110 -0.64963360 0.35585490
vn 0.26051030 0.78616980 0.56042070
vn 0.80336040 0.00000000 0.59549330
vn 0.67179100 0.64966460 0.35585510
vn -0.51382500 0.66855850 0.53759960
vn -0.37252170 0.87527040 -0.30843060
vn -0.65323600 0.00000000 -0.75715440
vn -0.91984130 0.00000000 0.39229070
vn -0.37251170 -0.87527740 -0.30842240
vn -0.51379200 -0.66858580 0.53759710
vn -0.77036320 0.00045779 -0.63760510
vn -0.59231870 -0.63855550 0.49133030
vn -0.56451280 -0.50265040 -0.65472730
vn -0.65158030 0.00015259 0.75857970
vn -0.56518670 0.50228650 -0.65442510
vn -0.59103650 0.63922640 0.49200140
vn -0.77026610 0.00000000 0.63772260
vn -0.26716720 0.48181040 0.83455410
vn -0.77027960 0.31883640 0.55227950
vn -0.26716690 0.00000000 0.96365020
vn -0.84239450 0.26942460 0.46667100
vn -0.77026670 -0.31883100 0.55230070
vn -0.84238610 0.00000000 0.53887440
vn -0.26716720 -0.48181040 0.83455410
vn -0.77027210 -0.55227400 0.31886380
vn -0.84239450 -0.26942460 0.46667100
vn -0.26716330 -0.83454180 0.48183380
vn -0.84239450 -0.46667100 0.26942460
vn 0.70710680 -0.70710680 0.00000000
vn 0.67182110 -0.64963360 0.35585490
vn 0.80336040 0.00000000 0.59549330
vn 1.00000000 0.00000000 0.00000000
vn 0.67179100 0.64966460 0.35585510
vn 0.70709150 0.70712200 0.00000000
vn 0.71167660 -0.59814520 0.36842740
vn 0.98769680 0.00000000 0.15638100
vn 0.71167660 0.59814520 0.36842740
vn 0.97630970 -0.10819060 0.18738800
vn 0.97630900 0.00000000 0.21638110
vn 0.97630970 -0.18738800 0.10819060
vn 0.52318830 -0.73804250 0.42610720
vn 0.97630970 0.10819060 0.18738800
vn 0.52318830 0.73804250 0.42610720
vn 0.97630900 -0.21638110 0.00000000
vn 0.52318950 -0.85221630 0.00000000
vn 0.97630970 0.18738800 0.10819060
vn 0.52318950 0.85221630 0.00000000
vn 0.97630970 -0.18738800 -0.10819060
vn 0.52318830 -0.73804250 -0.42610720
vn 0.97630900 0.21638110 0.00000000
vn 0.52318830 0.73804250 -0.42610720
vn 0.97631290 -0.10816050 -0.18738860
vn 0.52318830 -0.42610720 -0.73804250
vn 0.97630970 0.18738800 -0.10819060
vn 0.52318830 0.42610720 -0.73804250
vn 0.97630900 0.00000000 -0.21638110
vn 0.52318950 0.00000000 -0.85221630
vn 0.97630970 0.10819060 -0.18738800
vn 1.00000000 0.00000000 0.00000000
vn 1.00000000 0.00000000 0.00000000
vn 1.00000000 0.00000000 0.00000000
vn 1.00000000 0.00000000 0.00000000
vn 1.00000000 0.00000000 0.00000000
vn 1.00000000 0.00000000 0.00000000
vn 1.00000000 0.00000000 0.00000000
vn 1.00000000 0.00000000 0.00000000
vn 1.00000000 0.00000000 0.00000000
vn 1.00000000 0.00000000 0.00000000
vn 1.00000000 0.00000000 0.00000000
vn 1.00000000 0.00000000 0.00000000
vn 0.85764370 -0.51424440 0.00000000
vn 0.85763820 -0.44536020 0.25712050
vn 0.85763820 -0.44536020 -0.25712050
vn 0.85763820 -0.25712050 -0.44536020
vn 0.85764990 -0.25712400 0.44533580
vn 0.85764370 0.00000000 -0.51424440
vn 0.85764990 0.25712400 -0.44533580
vn 0.85764370 0.00000000 0.51424440
vn 0.85764990 0.44533580 -0.25712400
vn 0.85764990 0.25712400 0.44533580
vn 0.85765710 0.51422190 0.00000000
vn 0.85764990 0.44533580 0.25712400
vn 0.00000000 0.60873390 -0.79337440
vn -0.56518670 0.50228650 -0.65442510
vn -0.77036320 0.00045779 -0.63760510
vn 0.00000000 0.00000000 -1.00000000
vn -0.37252170 0.87527040 -0.30843060
vn -0.56451280 -0.50265040 -0.65472730
vn -0.65323600 0.00000000 -0.75715440
vn 0.00000000 -0.60876790 -0.79334840
vn -0.37251170 -0.87527740 -0.30842240
vn 0.95867620 -0.24638330 -0.14225100
vn 0.32170340 0.47341460 0.81999120
vn 0.95867620 -0.14225100 -0.24638330
vn 0.32170340 0.81999120 0.47341460
vn 0.95867550 -0.28450190 0.00000000
vn 0.00692778 0.49999050 0.86600320
vn 0.32169750 0.94684250 0.00000000
vn 0.95867620 -0.24638330 0.14225100
vn 0.32170340 0.81999120 -0.47341460
vn 0.00692778 0.86600320 0.49999050
vn 0.65579080 0.37745810 0.65380710
vn 0.65579080 0.65380710 0.37745810
vn 0.00692775 0.99997600 0.00000000
vn 0.00692778 0.86600320 -0.49999050
vn 0.65578880 0.75494450 0.00000000
vn 0.65579080 0.65380710 -0.37745810
vn 0.95866890 0.14225000 -0.24641200
vn 0.32173080 -0.81998310 0.47341000
vn 0.95867620 0.24638330 -0.14225100
vn 0.32173080 -0.47341000 0.81998310
vn 0.95867550 0.00000000 -0.28450190
vn 0.00692778 -0.86600320 0.49999050
vn 0.32170680 0.00000000 0.94683930
vn 0.95867620 -0.14225100 -0.24638330
vn 0.32170340 0.47341460 0.81999120
vn 0.00692778 -0.49999050 0.86600320
vn 0.65580390 -0.65378960 0.37746570
vn 0.65579080 -0.37745810 0.65380710
vn 0.00692775 0.00000000 0.99997600
vn 0.00692778 0.49999050 0.86600320
vn 0.65578880 0.00000000 0.75494450
vn 0.65579080 0.37745810 0.65380710
vn 0.00692789 -0.49996760 -0.86601640
vn 0.65579080 -0.37745810 -0.65380710
vn 0.65578880 0.00000000 -0.75494450
vn 0.00692775 0.00000000 -0.99997600
vn 0.32170340 -0.47341460 -0.81999120
vn 0.65579080 0.37745810 -0.65380710
vn 0.32170680 0.00000000 -0.94683930
vn 0.95866890 0.14225000 0.24641200
vn 0.95867550 0.00000000 0.28450190
vn 0.00692789 0.49996760 -0.86601640
vn 0.65579080 0.65380710 -0.37745810
vn 0.00692778 0.86600320 -0.49999050
vn 0.32170340 0.47341460 -0.81999120
vn 0.95867620 -0.14225100 0.24638330
vn 0.32170340 0.81999120 -0.47341460
vn 0.95867620 -0.24638330 0.14225100
vn 0.00000000 -0.92388030 0.38268150
vn 0.71167660 -0.59814520 0.36842740
vn 0.52318830 -0.73804250 0.42610720
vn 0.00000000 -0.86603160 0.49998930
vn 0.00000000 -0.92388030 0.38268150
vn 0.00000000 -0.86603160 0.49998930
vn -0.51379200 -0.66858580 0.53759710
vn -0.29249450 -0.82816460 0.47811130
vn 0.00000000 -0.49998930 0.86603160
vn 0.00000000 -0.86601080 0.50002540
vn 0.00000000 0.00000000 1.00000000
vn -0.91984130 0.00000000 0.39229070
vn 0.29252980 -0.47811910 0.82814760
vn 0.29252980 -0.82814760 0.47811910
vn 0.00000000 -0.86603160 0.49998930
vn 0.00000000 0.50000260 0.86602400
vn -0.51382500 0.66855850 0.53759960
vn 0.29252550 0.47814260 0.82813560
vn 0.29252630 0.00000000 0.95625750
vn 0.00000000 -0.49998930 0.86603160
vn -0.12158910 -0.85960850 0.49627540
vn 0.00000000 0.00000000 1.00000000
vn 0.00000000 0.49998930 0.86603160
vn -0.12158910 -0.49627540 0.85960850
vn -0.12158910 0.00000000 0.99258050
vn -0.12158910 0.49627540 0.85960850
vn -0.22492930 0.48718390 0.84383570
vn -0.22492410 0.00000000 0.97437630
vn -0.72657870 0.34352790 0.59503940
vn -0.72657710 0.00000000 0.68708490
vn -0.22492930 -0.48718390 0.84383570
vn -0.22492930 -0.84383570 0.48718390
vn -0.72657870 -0.34352790 0.59503940
vn -0.72657870 -0.59503940 0.34352790
vn 0.00000000 -0.49998930 -0.86603160
vn 0.52318830 -0.42610720 -0.73804250
vn 0.52318950 0.00000000 -0.85221630
vn 0.00000000 0.00000000 -1.00000000
vn 0.00000000 -0.49998930 -0.86603160
vn 0.52318830 0.42610720 -0.73804250
vn 0.00000000 0.00000000 -1.00000000
vn -0.29252550 -0.47814260 -0.82813560
vn 0.00000000 0.49998930 -0.86603160
vn 0.52318830 0.73804250 -0.42610720
vn 0.00000000 0.86603160 -0.49998930
vn 0.00000000 0.49998930 -0.86603160
vn 0.00000000 0.86602400 -0.50000260
vn -0.29252630 0.00000000 -0.95625750
vn 0.00000000 -0.50000260 -0.86602400
vn -0.29252980 0.47811910 -0.82814760
vn -0.29252980 0.82814760 -0.47811910
vn 0.00000000 0.00000000 -1.00000000
vn 0.29252980 -0.47811910 -0.82814760
vn 0.00000000 0.50000260 -0.86602400
vn 0.00000000 0.86603160 -0.49998930
vn 0.29252630 0.00000000 -0.95625750
vn 0.29252980 0.47811910 -0.82814760
vn 0.29252980 0.82814760 -0.47811910
vn 0.00000000 0.86603160 -0.49998930
vn 0.00000000 0.49998930 -0.86603160
vn -0.12161920 0.85960530 -0.49627360
vn 0.00000000 0.00000000 -1.00000000
vn 0.00000000 -0.49998930 -0.86603160
vn -0.12161920 0.49627360 -0.85960530
vn -0.12158910 0.00000000 -0.99258050
vn -0.12158910 -0.49627540 -0.85960850
vn -0.22492930 -0.48718390 -0.84383570
vn -0.22492410 0.00000000 -0.97437630
vn -0.72657870 -0.34352790 -0.59503940
vn -0.72657710 0.00000000 -0.68708490
vn -0.22492930 0.48718390 -0.84383570
vn -0.22492930 0.84383570 -0.48718390
vn -0.72657870 0.34352790 -0.59503940
vn -0.72657870 0.59503940 -0.34352790
vn -0.26716720 -0.48181040 -0.83455410
vn -0.84239450 -0.26942460 -0.46667100
vn -0.84239450 -0.46667100 -0.26942460
vn -0.26716330 -0.83454180 -0.48183380
vn -0.77027960 -0.31883640 -0.55227950
vn -0.84238610 -0.53887440 0.00000000
vn -0.77027210 -0.55227400 -0.31886380
vn -0.26713070 -0.96366030 0.00000000
vn -0.84239450 -0.46667100 0.26942460
vn -0.77026610 -0.63772260 0.00000000
vn -0.26716330 -0.83454180 0.48183380
vn -0.77027210 -0.55227400 0.31886380
vn -0.26716330 0.83454180 -0.48183380
vn -0.84239450 0.46667100 -0.26942460
vn -0.84239450 0.26942460 -0.46667100
vn -0.26716720 0.48181040 -0.83455410
vn -0.77027210 0.55227400 -0.31886380
vn -0.84238610 0.00000000 -0.53887440
vn -0.77027960 0.31883640 -0.55227950
vn -0.26716690 0.00000000 -0.96365020
vn -0.84239450 -0.26942460 -0.46667100
vn -0.77026610 0.00000000 -0.63772260
vn -0.26716720 -0.48181040 -0.83455410
vn -0.77027960 -0.31883640 -0.55227950
vn -0.84239450 -0.46667100 0.26942460
vn -0.84238610 -0.53887440 0.00000000
vn -0.84239450 -0.46667100 -0.26942460
vn -0.84239450 -0.26942460 0.46667100
vn -0.84239450 -0.26942460 -0.46667100
vn -0.84238610 0.00000000 0.53887440
vn -0.84238610 0.00000000 -0.53887440
vn -0.84239450 0.26942460 0.46667100
vn -0.84239450 0.26942460 -0.46667100
vn -0.84239450 0.46667100 0.26942460
vn -0.84239450 0.46667100 -0.26942460
vn -0.84238610 0.53887440 0.00000000
vn -0.26716720 0.48181040 0.83455410
vn -0.84239450 0.26942460 0.46667100
vn -0.84239450 0.46667100 0.26942460
vn -0.26716330 0.83454180 0.48183380
vn -0.77027960 0.31883640 0.55227950
vn -0.84238610 0.53887440 0.00000000
vn -0.77027210 0.55227400 0.31886380
vn -0.26716690 0.96365020 0.00000000
vn -0.84239450 0.46667100 -0.26942460
vn -0.77026610 0.63772260 0.00000000
vn -0.26716330 0.83454180 -0.48183380
vn -0.77027210 0.55227400 -0.31886380
vn 0.00692778 -0.86600320 0.49999050
vn 0.65580390 -0.65378960 0.37746570
vn 0.65578880 -0.75494450 0.00000000
vn 0.00692775 -0.99997600 0.00000000
vn 0.32173080 -0.81998310 0.47341000
vn 0.65580390 -0.65378960 -0.37746570
vn 0.32170680 -0.94683930 0.00000000
vn 0.95867620 0.24638330 -0.14225100
vn 0.95867550 0.28450190 0.00000000
vn 0.00692778 -0.86600320 -0.49999050
vn 0.65579080 -0.37745810 -0.65380710
vn 0.00692789 -0.49996760 -0.86601640
vn 0.32170340 -0.81999120 -0.47341460
vn 0.95867620 0.24638330 0.14225100
vn 0.32170340 -0.47341460 -0.81999120
vn 0.95866890 0.14225000 0.24641200
vn 0.00000000 -0.86603160 0.49998930
vn 0.52318830 -0.73804250 0.42610720
vn 0.52318950 -0.85221630 0.00000000
vn 0.00000000 -1.00000000 0.00000000
vn 0.00000000 -0.86603160 0.49998930
vn 0.52318830 -0.73804250 -0.42610720
vn 0.00000000 -1.00000000 0.00000000
vn -0.29249450 -0.82816460 0.47811130
vn 0.00000000 -0.86603160 -0.49998930
vn 0.52318830 -0.42610720 -0.73804250
vn 0.00000000 -0.49998930 -0.86603160
vn 0.00000000 -0.86603160 -0.49998930
vn 0.00000000 -0.49998930 -0.86603160
vn -0.29252630 -0.95625750 0.00000000
vn 0.00000000 -0.86601080 0.50002540
vn -0.29252980 -0.82814760 -0.47811910
vn -0.29252550 -0.47814260 -0.82813560
vn 0.00003052 -1.00000000 0.00000000
vn 0.29252980 -0.82814760 0.47811910
vn 0.00000000 -0.86603160 -0.49998930
vn 0.00000000 -0.50000260 -0.86602400
vn 0.29252630 -0.95625750 0.00000000
vn 0.29252980 -0.82814760 -0.47811910
vn 0.29252980 -0.47811910 -0.82814760
vn 0.00000000 -0.49998930 -0.86603160
vn 0.00000000 -0.86603160 -0.49998930
vn -0.12158910 -0.49627540 -0.85960850
vn 0.00000000 -1.00000000 0.00000000
vn 0.00000000 -0.86603160 0.49998930
vn -0.12158910 -0.85960850 -0.49627540
vn -0.12158910 -0.99258050 0.00000000
vn -0.12158910 -0.85960850 0.49627540
vn -0.22492930 -0.84383570 0.48718390
vn -0.22492410 -0.97437630 0.00000000
vn -0.72657870 -0.59503940 0.34352790
vn -0.72657710 -0.68708490 0.00000000
vn -0.22492930 -0.84383570 -0.48718390
vn -0.22492930 -0.48718390 -0.84383570
vn -0.72657870 -0.59503940 -0.34352790
vn -0.72657870 -0.34352790 -0.59503940
vn 0.65580390 -0.65378960 -0.37746570
vn 0.65578880 -0.75494450 0.00000000
vn 0.65580390 -0.65378960 0.37746570
vn 0.65579080 -0.37745810 -0.65380710
vn 0.65579080 -0.37745810 0.65380710
vn 0.65578880 0.00000000 0.75494450
vn 0.65578880 0.00000000 -0.75494450
vn 0.65579080 0.37745810 0.65380710
vn 0.65579080 0.37745810 -0.65380710
vn 0.65579080 0.65380710 0.37745810
vn 0.65579080 0.65380710 -0.37745810
vn 0.65578880 0.75494450 0.00000000
vn -0.72659310 0.59502630 0.34352030
vn -0.77027210 0.55227400 0.31886380
vn -0.77026610 0.63772260 0.00000000
vn -0.72659160 0.68706970 0.00000000
vn -0.72657870 0.34352790 0.59503940
vn -0.77027210 0.55227400 -0.31886380
vn -0.77027960 0.31883640 0.55227950
vn -0.72657870 0.59503940 -0.34352790
vn -0.72657710 0.00000000 0.68708490
vn -0.77027960 0.31883640 -0.55227950
vn -0.77026610 0.00000000 0.63772260
vn -0.72657870 0.34352790 -0.59503940
vn -0.72657870 -0.34352790 0.59503940
vn -0.77026610 0.00000000 -0.63772260
vn -0.77026670 -0.31883100 0.55230070
vn -0.72657710 0.00000000 -0.68708490
vn -0.72657870 -0.59503940 0.34352790
vn -0.77027960 -0.31883640 -0.55227950
vn -0.77027210 -0.55227400 0.31886380
vn -0.72657870 -0.34352790 -0.59503940
vn -0.72657710 -0.68708490 0.00000000
vn -0.77027210 -0.55227400 -0.31886380
vn -0.77026610 -0.63772260 0.00000000
vn -0.72657870 -0.59503940 -0.34352790
vt 0.11083270 0.00098012
vt 0.10877640 0.00095881
vt 0.10856130 0.00145721
vt 0.11066590 0.00147900
vt 0.10604760 0.00728358
vt 0.11369150 0.00100978
vt 0.10871520 0.00731125
vt 0.10589190 0.00764441
vt 0.11369160 0.00151041
vt 0.12216050 0.00143450
vt 0.12216060 0.00093390
vt 0.13112240 0.00146751
vt 0.13112240 0.00096688
vt 0.13817560 0.00160057
vt 0.13817560 0.00109994
vt 0.13817560 0.00745307
vt 0.13112230 0.00731998
vt 0.13817560 0.00781550
vt 0.12216050 0.00728699
vt 0.13112230 0.00768241
vt 0.13795660 0.00819206
vt 0.11369150 0.00736282
vt 0.13101240 0.00806108
vt 0.13817560 0.00856129
vt 0.12216050 0.00764942
vt 0.10859450 0.00767246
vt 0.10859410 0.17833440
vt 0.10529570 0.17829560
vt 0.10859410 0.18173340
vt 0.10528400 0.18169430
vt 0.11369150 0.00772531
vt 0.12218890 0.00802860
vt 0.11385070 0.00810329
vt 0.13112230 0.00842823
vt 0.12216060 0.00839521
vt 0.11369160 0.00847110
vt 0.11369160 0.01064199
vt 0.12216060 0.01056611
vt 0.11369150 0.62615170
vt 0.13112240 0.01059912
vt 0.13817560 0.01073219
vt 0.12216060 0.62607590
vt 0.13112240 0.62610880
vt 0.13817560 0.62624190
vt 0.13772540 0.62841620
vt 0.13089620 0.62828740
vt 0.12792990 0.68667830
vt 0.12597430 0.68664140
vt 0.12221890 0.62825550
vt 0.11401880 0.62832890
vt 0.12348960 0.68663220
vt 0.12114150 0.68665330
vt 0.48503590 0.74017720
vt 0.48360750 0.74056240
vt 0.48355640 0.74385560
vt 0.48498190 0.74365940
vt 0.48355640 0.74803970
vt 0.48498190 0.74808380
vt 0.48360760 0.75199370
vt 0.48503590 0.75226460
vt 0.24434310 0.73800430
vt 0.24291460 0.73838960
vt 0.24286360 0.74168290
vt 0.24428910 0.74148660
vt 0.24286350 0.74586700
vt 0.24428910 0.74591100
vt 0.24291460 0.74982090
vt 0.24434310 0.75009180
vt 0.13263000 0.74647190
vt 0.13125300 0.74987770
vt 0.13268180 0.75022860
vt 0.13120400 0.74632510
vt 0.13263000 0.74199890
vt 0.13120400 0.74209490
vt 0.13268180 0.73800800
vt 0.13125300 0.73832070
vt 0.49242870 0.70626120
vt 0.49373210 0.70294850
vt 0.49231400 0.70258340
vt 0.49384050 0.70642640
vt 0.49242870 0.71072450
vt 0.49384050 0.71064740
vt 0.49231410 0.71477760
vt 0.49373220 0.71448050
vt 0.42752430 0.68902210
vt 0.43038460 0.68856070
vt 0.42752600 0.68852140
vt 0.43054980 0.68906370
vt 0.43244100 0.68858900
vt 0.42750400 0.69487450
vt 0.43265440 0.68909260
vt 0.43248010 0.69494300
vt 0.42750270 0.69523690
vt 0.43514750 0.69497970
vt 0.43259950 0.69530710
vt 0.43530200 0.69534430
vt 0.43530200 0.86602190
vt 0.43200670 0.86596800
vt 0.43530190 0.86942110
vt 0.43199490 0.86936690
vt 0.54107830 0.69176930
vt 0.54109050 0.68837050
vt 0.53203010 0.68835490
vt 0.53201780 0.69175360
vt 0.52394580 0.68822790
vt 0.54046330 0.86242740
vt 0.52393360 0.69162650
vt 0.53140290 0.86239920
vt 0.54049720 0.86278620
vt 0.52331940 0.86227130
vt 0.53143670 0.86275810
vt 0.54104370 0.86858040
vt 0.52335320 0.86263010
vt 0.53198330 0.86855230
vt 0.54109050 0.86907610
vt 0.52389970 0.86842430
vt 0.53203000 0.86904790
vt 0.52394650 0.86892000
vt 0.66695740 0.68854640
vt 0.66137900 0.68854640
vt 0.65903070 0.69721530
vt 0.66460910 0.69721530
vt 0.66137900 0.70588420
vt 0.66695740 0.70588420
vt 0.38469450 0.71367450
vt 0.38342310 0.72234330
vt 0.38704280 0.72234340
vt 0.38107330 0.71367480
vt 0.38704280 0.70500570
vt 0.38342000 0.70500560
vt 0.33925830 0.72395520
vt 0.33802700 0.71831390
vt 0.33802700 0.72394100
vt 0.33925820 0.71832810
vt 0.33863930 0.71687080
vt 0.34063820 0.72395350
vt 0.33944850 0.71688010
vt 0.34063820 0.71832640
vt 0.34179710 0.72393660
vt 0.34035540 0.71687910
vt 0.34179710 0.71830940
vt 0.34111700 0.71686790
vt 0.02160110 0.69069650
vt 0.02101864 0.68854620
vt 0.01194568 0.68854610
vt 0.01252824 0.69069660
vt 0.00408832 0.69303340
vt 0.00467078 0.69518380
vt 0.02241091 0.69368590
vt 0.01333798 0.69368590
vt 0.00548059 0.69817330
vt 0.02175494 0.69610750
vt 0.01399395 0.69610760
vt 0.02847620 0.69994590
vt 0.03026827 0.69817330
vt 0.00727269 0.69994600
vt 0.00094413 0.70594560
vt 0.03235670 0.70659430
vt 0.03480474 0.70594560
vt 0.00339216 0.70659430
vt 0.00094413 0.71492020
vt 0.03235670 0.71427140
vt 0.03480474 0.71492020
vt 0.00339216 0.71427130
vt 0.00548062 0.72269250
vt 0.02847617 0.72091980
vt 0.03026824 0.72269240
vt 0.00727266 0.72091980
vt 0.01333795 0.72717980
vt 0.02175491 0.72475830
vt 0.02241088 0.72717980
vt 0.01399389 0.72475830
vt 0.02686246 0.71281520
vt 0.02445410 0.71694130
vt 0.02028275 0.71932360
vt 0.01546608 0.71932360
vt 0.01129476 0.71694130
vt 0.00888643 0.71281510
vt 0.02686243 0.70805060
vt 0.00888640 0.70805050
vt 0.02445410 0.70392440
vt 0.01129476 0.70392440
vt 0.02028275 0.70154220
vt 0.01546608 0.70154220
vt 0.00942462 0.71267240
vt 0.01168871 0.71655150
vt 0.00942465 0.70819340
vt 0.01168874 0.70431420
vt 0.01561030 0.71879120
vt 0.01561033 0.70207460
vt 0.02013857 0.70207460
vt 0.02013854 0.71879120
vt 0.02406012 0.70431430
vt 0.02406012 0.71655150
vt 0.02632424 0.70819320
vt 0.02632424 0.71267250
vt 0.40647450 0.69210950
vt 0.40647450 0.68871390
vt 0.39826370 0.68852140
vt 0.39826370 0.69191690
vt 0.40647450 0.86260130
vt 0.38922290 0.68855940
vt 0.39826370 0.86240880
vt 0.38922290 0.69195490
vt 0.38922290 0.86244680
vt 0.47410880 0.77907830
vt 0.47038870 0.77847250
vt 0.47011170 0.77912880
vt 0.47415630 0.77842490
vt 0.47833880 0.77907820
vt 0.47038930 0.77692490
vt 0.47814340 0.77842490
vt 0.48166810 0.77912880
vt 0.48128150 0.77847250
vt 0.47415180 0.77687730
vt 0.47040540 0.72906850
vt 0.47400660 0.72902300
vt 0.47813300 0.77687730
vt 0.48126690 0.77692490
vt 0.47781750 0.72902300
vt 0.48081700 0.72906850
vt 0.35143360 0.74771960
vt 0.34819580 0.74711150
vt 0.34784200 0.74776810
vt 0.35158110 0.74706580
vt 0.35571010 0.74771960
vt 0.34820580 0.74556380
vt 0.35561200 0.74706580
vt 0.35952560 0.74776810
vt 0.35920850 0.74711140
vt 0.35158640 0.74551820
vt 0.34851130 0.69770610
vt 0.35174700 0.69766240
vt 0.35561170 0.74551810
vt 0.35920300 0.74556380
vt 0.35559990 0.69766240
vt 0.35903750 0.69770600
vt 0.45686930 0.73121560
vt 0.45687880 0.77901790
vt 0.46037000 0.77911450
vt 0.46051670 0.73131640
vt 0.45686890 0.72966970
vt 0.46421450 0.77911450
vt 0.46052130 0.72977080
vt 0.45656520 0.72902300
vt 0.46044020 0.72913020
vt 0.46453320 0.73131650
vt 0.46738230 0.77901790
vt 0.46784270 0.73121550
vt 0.46454360 0.72977080
vt 0.46470740 0.72913020
vt 0.46785770 0.72966970
vt 0.46822350 0.72902300
vt 0.45011620 0.00143453
vt 0.45011620 0.00093390
vt 0.44250700 0.00104547
vt 0.44250700 0.00154606
vt 0.45011620 0.00728705
vt 0.44250690 0.00739865
vt 0.45011620 0.00764957
vt 0.44250700 0.00776108
vt 0.45019980 0.00802830
vt 0.44270820 0.00813814
vt 0.45912040 0.00801767
vt 0.45917670 0.00763883
vt 0.45011620 0.00839542
vt 0.44250690 0.00850696
vt 0.44250700 0.01067786
vt 0.46707950 0.00810947
vt 0.46726070 0.00773204
vt 0.46726070 0.00847783
vt 0.45917660 0.00838464
vt 0.45011620 0.01056629
vt 0.44250700 0.62619840
vt 0.45917660 0.01055554
vt 0.46726070 0.01064876
vt 0.45011620 0.62608680
vt 0.45917670 0.62607620
vt 0.46726070 0.62616910
vt 0.46688830 0.62834530
vt 0.45906090 0.62825520
vt 0.45878410 0.68664540
vt 0.45654280 0.68661970
vt 0.45028820 0.62826550
vt 0.44292050 0.62837360
vt 0.45403070 0.68662260
vt 0.45192100 0.68665360
vt 0.54801940 0.00162646
vt 0.54801940 0.00112637
vt 0.53980860 0.00093390
vt 0.53980860 0.00143399
vt 0.54801940 0.00747311
vt 0.53076780 0.00097196
vt 0.53980860 0.00728064
vt 0.54801930 0.00783521
vt 0.53076770 0.00147208
vt 0.52331940 0.00123051
vt 0.52331940 0.00173066
vt 0.53076780 0.00731870
vt 0.52331940 0.00757725
vt 0.53980860 0.00764274
vt 0.54784480 0.00821804
vt 0.53076770 0.00768077
vt 0.52331940 0.00793933
vt 0.53976080 0.00802848
vt 0.54801940 0.00858026
vt 0.53085960 0.00806600
vt 0.52352630 0.00832061
vt 0.53980860 0.00838782
vt 0.53076770 0.00842582
vt 0.52331940 0.00868443
vt 0.52331940 0.01085313
vt 0.53076770 0.01059452
vt 0.52331950 0.62574940
vt 0.53980860 0.01055652
vt 0.54801940 0.01074899
vt 0.53076790 0.62549080
vt 0.53980870 0.62545280
vt 0.54801950 0.62564540
vt 0.54766040 0.62783120
vt 0.53971030 0.62764470
vt 0.53984640 0.68633120
vt 0.53756990 0.68627780
vt 0.53095660 0.62768150
vt 0.52374470 0.62793190
vt 0.53506330 0.68628840
vt 0.53299820 0.68636010
vt 0.28122820 0.73990970
vt 0.28176650 0.74135460
vt 0.28261420 0.74134710
vt 0.28251810 0.73989810
vt 0.28122820 0.73428270
vt 0.28351120 0.74135040
vt 0.28251810 0.73427120
vt 0.28388310 0.73990320
vt 0.28421710 0.74136370
vt 0.28388310 0.73427620
vt 0.28495740 0.73992340
vt 0.28495740 0.73429640
vt 0.62433930 0.70766400
vt 0.62364010 0.70620820
vt 0.62289460 0.70623400
vt 0.62320480 0.70770340
vt 0.62433930 0.71328530
vt 0.62198970 0.70623790
vt 0.62320480 0.71332480
vt 0.62182780 0.70770920
vt 0.62116780 0.70621860
vt 0.62182790 0.71333050
vt 0.62057730 0.70767980
vt 0.62057730 0.71330120
vt 0.48816490 0.74352960
vt 0.48907300 0.74352960
vt 0.48985940 0.74308040
vt 0.48737830 0.74308050
vt 0.49031350 0.74230250
vt 0.48692420 0.74230260
vt 0.49031350 0.74140420
vt 0.48692420 0.74140430
vt 0.48985940 0.74062620
vt 0.48737840 0.74062630
vt 0.48907280 0.74017720
vt 0.48816480 0.74017720
vt 0.23949760 0.73468260
vt 0.24003580 0.73612760
vt 0.24088360 0.73612000
vt 0.24078750 0.73467090
vt 0.23949750 0.72905560
vt 0.24178050 0.73612330
vt 0.24078750 0.72904400
vt 0.24215230 0.73467590
vt 0.24248640 0.73613660
vt 0.24215250 0.72904900
vt 0.24322670 0.73469630
vt 0.24322670 0.72906930
vt 0.03898843 0.77694950
vt 0.03853823 0.72909310
vt 0.03553886 0.72904760
vt 0.03585471 0.77690190
vt 0.03900307 0.77849710
vt 0.03172793 0.72904750
vt 0.03586498 0.77844950
vt 0.03938976 0.77915340
vt 0.03606054 0.77910290
vt 0.03187325 0.77690190
vt 0.02812667 0.72909310
vt 0.02811101 0.77694950
vt 0.03187799 0.77844950
vt 0.03183063 0.77910280
vt 0.02811029 0.77849720
vt 0.02783339 0.77915340
vt 0.62967280 0.68601190
vt 0.62967280 0.68651250
vt 0.63672590 0.68664560
vt 0.63672590 0.68614490
vt 0.62967270 0.68015940
vt 0.64568770 0.68667860
vt 0.63672580 0.68029250
vt 0.62967270 0.67979690
vt 0.64568770 0.68617790
vt 0.65415680 0.68660270
vt 0.65415680 0.68610200
vt 0.64568780 0.68032550
vt 0.65415670 0.68024960
vt 0.63672580 0.67993000
vt 0.62989170 0.67942040
vt 0.64568770 0.67996300
vt 0.65415670 0.67988720
vt 0.63683590 0.67955130
vt 0.62967280 0.67905120
vt 0.64565930 0.67958380
vt 0.65399750 0.67950910
vt 0.63672590 0.67918430
vt 0.64568760 0.67921720
vt 0.65415670 0.67914130
vt 0.65415670 0.67697040
vt 0.64568770 0.67704630
vt 0.65415690 0.06146047
vt 0.63672580 0.67701330
vt 0.62967270 0.67688030
vt 0.64568790 0.06153638
vt 0.63672600 0.06150355
vt 0.62967290 0.06137031
vt 0.63012310 0.05919600
vt 0.63695220 0.05932499
vt 0.63991860 0.00093390
vt 0.64187410 0.00097086
vt 0.64562950 0.05935673
vt 0.65382960 0.05928328
vt 0.64435880 0.00097995
vt 0.64670690 0.00095896
vt 0.72068890 0.74051990
vt 0.71683060 0.74051990
vt 0.71348940 0.74242810
vt 0.72403010 0.74242810
vt 0.71156040 0.74573310
vt 0.71156030 0.74954940
vt 0.72595900 0.74573330
vt 0.71348920 0.75285460
vt 0.72595900 0.74954960
vt 0.71683050 0.75476280
vt 0.72402990 0.75285460
vt 0.72068860 0.75476280
vt 0.66100560 0.73624380
vt 0.66157250 0.73415130
vt 0.66037570 0.73346790
vt 0.65882710 0.73499970
vt 0.66352120 0.73624380
vt 0.65968480 0.73228410
vt 0.66295430 0.73415120
vt 0.65756940 0.73284480
vt 0.66569970 0.73499970
vt 0.65968480 0.73091720
vt 0.66415110 0.73346780
vt 0.65756940 0.73035660
vt 0.66695740 0.73284470
vt 0.66037580 0.72973350
vt 0.66484190 0.73228410
vt 0.65882710 0.72820160
vt 0.66695740 0.73035650
vt 0.66157240 0.72904990
vt 0.66484190 0.73091720
vt 0.66100560 0.72695750
vt 0.66569960 0.72820160
vt 0.66295430 0.72904990
vt 0.66415100 0.72973330
vt 0.66352120 0.72695750
f 3/3/3 2/2/2 1/1/1
f 4/4/4 3/3/3 1/1/1
f 5/5/5 3/3/3 4/4/4
f 4/4/4 1/1/1 6/6/6
f 7/7/7 5/5/5 4/4/4
f 8/8/8 5/5/5 7/7/7
f 9/9/9 4/4/4 6/6/6
f 7/7/7 4/4/4 9/9/9
f 9/9/9 6/6/6 10/10/10
f 6/6/6 11/11/11 10/10/10
f 10/10/10 11/11/11 12/12/12
f 11/11/11 13/13/13 12/12/12
f 12/12/12 13/13/13 14/14/14
f 13/13/13 15/15/15 14/14/14
f 12/12/12 14/14/14 16/16/16
f 17/17/17 12/12/12 16/16/16
f 10/10/10 12/12/12 17/17/17
f 17/17/17 16/16/16 18/18/18
f 9/9/9 10/10/10 19/19/19
f 19/19/19 10/10/10 17/17/17
f 20/20/20 17/17/17 18/18/18
f 19/19/19 17/17/17 20/20/20
f 20/20/20 18/18/18 21/21/21
f 22/22/22 7/7/7 9/9/9
f 22/22/22 9/9/9 19/19/19
f 23/23/23 20/20/20 21/21/21
f 23/23/23 21/21/21 24/24/24
f 25/25/25 19/19/19 20/20/20
f 22/22/22 19/19/19 25/25/25
f 25/25/25 20/20/20 23/23/23
f 26/26/26 7/7/7 22/22/22
f 26/26/26 8/8/8 7/7/7
f 26/26/26 27/27/27 8/8/8
f 27/27/27 28/28/28 8/8/8
f 27/27/27 29/29/29 28/28/28
f 29/29/29 30/30/30 28/28/28
f 31/31/31 26/26/26 22/22/22
f 31/31/31 22/22/22 25/25/25
f 31/31/31 25/25/25 32/32/32
f 32/32/32 25/25/25 23/23/23
f 33/33/33 31/31/31 32/32/32
f 32/32/32 23/23/23 34/34/34
f 34/34/34 23/23/23 24/24/24
f 33/33/33 32/32/32 35/35/35
f 35/35/35 32/32/32 34/34/34
f 36/36/36 33/33/33 35/35/35
f 36/36/36 35/35/35 37/37/37
f 35/35/35 38/38/38 37/37/37
f 35/35/35 34/34/34 38/38/38
f 37/37/37 38/38/38 39/39/39
f 34/34/34 24/24/24 40/40/40
f 34/34/34 40/40/40 38/38/38
f 24/24/24 41/41/41 40/40/40
f 38/38/38 42/42/42 39/39/39
f 38/38/38 40/40/40 42/42/42
f 40/40/40 41/41/41 43/43/43
f 40/40/40 43/43/43 42/42/42
f 41/41/41 44/44/44 43/43/43
f 44/44/44 45/45/45 43/43/43
f 45/45/45 46/46/46 43/43/43
f 43/43/43 46/46/46 42/42/42
f 45/45/45 47/47/47 46/46/46
f 47/47/47 48/48/48 46/46/46
f 42/42/42 49/49/49 39/39/39
f 46/46/46 49/49/49 42/42/42
f 46/46/46 48/48/48 49/49/49
f 49/49/49 50/50/50 39/39/39
f 48/48/48 51/51/51 49/49/49
f 49/49/49 51/51/51 50/50/50
f 51/51/51 52/52/52 50/50/50
f 55/55/55 54/54/54 53/53/53
f 56/56/56 55/55/55 53/53/53
f 57/57/57 55/55/55 56/56/56
f 58/58/58 57/57/57 56/56/56
f 59/59/59 57/57/57 58/58/58
f 60/60/60 59/59/59 58/58/58
f 63/63/63 62/62/62 61/61/61
f 64/64/64 63/63/63 61/61/61
f 65/65/65 63/63/63 64/64/64
f 66/66/66 65/65/65 64/64/64
f 67/67/67 65/65/65 66/66/66
f 68/68/68 67/67/67 66/66/66
f 71/71/71 70/70/70 69/69/69
f 70/70/70 72/72/72 69/69/69
f 69/69/69 72/72/72 73/73/73
f 72/72/72 74/74/74 73/73/73
f 73/73/73 74/74/74 75/75/75
f 74/74/74 76/76/76 75/75/75
f 79/79/79 78/78/78 77/77/77
f 78/78/78 80/80/80 77/77/77
f 77/77/77 80/80/80 81/81/81
f 80/80/80 82/82/82 81/81/81
f 81/81/81 82/82/82 83/83/83
f 82/82/82 84/84/84 83/83/83
f 87/87/87 86/86/86 85/85/85
f 86/86/86 88/88/88 85/85/85
f 86/86/86 89/89/89 88/88/88
f 85/85/85 88/88/88 90/90/90
f 89/89/89 91/91/91 88/88/88
f 88/88/88 92/92/92 90/90/90
f 88/88/88 91/91/91 92/92/92
f 90/90/90 92/92/92 93/93/93
f 91/91/91 94/94/94 92/92/92
f 92/92/92 95/95/95 93/93/93
f 92/92/92 94/94/94 95/95/95
f 94/94/94 96/96/96 95/95/95
f 96/96/96 97/97/97 95/95/95
f 97/97/97 98/98/98 95/95/95
f 97/97/97 99/99/99 98/98/98
f 99/99/99 100/100/100 98/98/98
f 103/103/103 102/102/102 101/101/101
f 104/104/104 103/103/103 101/101/101
f 105/105/105 103/103/103 104/104/104
f 104/104/104 101/101/101 106/106/106
f 107/107/107 105/105/105 104/104/104
f 108/108/108 104/104/104 106/106/106
f 107/107/107 104/104/104 108/108/108
f 106/106/106 109/109/109 108/108/108
f 110/110/110 107/107/107 108/108/108
f 109/109/109 111/111/111 108/108/108
f 108/108/108 111/111/111 110/110/110
f 109/109/109 112/112/112 111/111/111
f 111/111/111 113/113/113 110/110/110
f 112/112/112 114/114/114 111/111/111
f 111/111/111 114/114/114 113/113/113
f 112/112/112 115/115/115 114/114/114
f 114/114/114 116/116/116 113/113/113
f 115/115/115 117/117/117 114/114/114
f 114/114/114 117/117/117 116/116/116
f 117/117/117 118/118/118 116/116/116
f 121/121/121 120/120/120 119/119/119
f 122/122/122 121/121/121 119/119/119
f 123/123/123 121/121/121 122/122/122
f 124/124/124 123/123/123 122/122/122
f 127/127/127 126/126/126 125/125/125
f 126/126/126 128/128/128 125/125/125
f 125/125/125 128/128/128 129/129/129
f 128/128/128 130/130/130 129/129/129
f 133/133/133 132/132/132 131/131/131
f 132/132/132 134/134/134 131/131/131
f 132/132/132 135/135/135 134/134/134
f 131/131/131 134/134/134 136/136/136
f 135/135/135 137/137/137 134/134/134
f 134/134/134 138/138/138 136/136/136
f 134/134/134 137/137/137 138/138/138
f 136/136/136 138/138/138 139/139/139
f 137/137/137 140/140/140 138/138/138
f 138/138/138 141/141/141 139/139/139
f 138/138/138 140/140/140 141/141/141
f 140/140/140 142/142/142 141/141/141
f 145/145/145 144/144/144 143/143/143
f 146/146/146 145/145/145 143/143/143
f 147/147/147 145/145/145 146/146/146
f 148/148/148 147/147/147 146/146/146
f 146/146/146 143/143/143 149/149/149
f 148/148/148 146/146/146 150/150/150
f 150/150/150 146/146/146 149/149/149
f 151/151/151 148/148/148 150/150/150
f 149/149/149 152/152/152 150/150/150
f 150/150/150 153/153/153 151/151/151
f 152/152/152 153/153/153 150/150/150
f 154/154/154 152/152/152 149/149/149
f 155/155/155 154/154/154 149/149/149
f 153/153/153 156/156/156 151/151/151
f 151/151/151 156/156/156 157/157/157
f 158/158/158 154/154/154 155/155/155
f 159/159/159 158/158/158 155/155/155
f 156/156/156 160/160/160 157/157/157
f 157/157/157 160/160/160 161/161/161
f 162/162/162 158/158/158 159/159/159
f 163/163/163 162/162/162 159/159/159
f 160/160/160 164/164/164 161/161/161
f 161/161/161 164/164/164 165/165/165
f 166/166/166 162/162/162 163/163/163
f 167/167/167 166/166/166 163/163/163
f 164/164/164 168/168/168 165/165/165
f 165/165/165 168/168/168 169/169/169
f 170/170/170 166/166/166 167/167/167
f 171/171/171 170/170/170 167/167/167
f 169/169/169 172/172/172 171/171/171
f 168/168/168 172/172/172 169/169/169
f 172/172/172 170/170/170 171/171/171
f 162/162/162 173/173/173 158/158/158
f 166/166/166 174/174/174 162/162/162
f 174/174/174 173/173/173 162/162/162
f 170/170/170 175/175/175 166/166/166
f 175/175/175 174/174/174 166/166/166
f 172/172/172 176/176/176 170/170/170
f 176/176/176 175/175/175 170/170/170
f 168/168/168 177/177/177 172/172/172
f 177/177/177 176/176/176 172/172/172
f 164/164/164 178/178/178 168/168/168
f 178/178/178 177/177/177 168/168/168
f 173/173/173 179/179/179 158/158/158
f 158/158/158 179/179/179 154/154/154
f 180/180/180 178/178/178 164/164/164
f 160/160/160 180/180/180 164/164/164
f 179/179/179 181/181/181 154/154/154
f 154/154/154 181/181/181 152/152/152
f 182/182/182 180/180/180 160/160/160
f 156/156/156 182/182/182 160/160/160
f 181/181/181 183/183/183 152/152/152
f 152/152/152 183/183/183 153/153/153
f 153/153/153 184/184/184 156/156/156
f 184/184/184 182/182/182 156/156/156
f 183/183/183 184/184/184 153/153/153
f 178/178/178 185/185/185 177/177/177
f 185/185/185 186/186/186 177/177/177
f 187/187/187 185/185/185 178/178/178
f 180/180/180 187/187/187 178/178/178
f 177/177/177 186/186/186 176/176/176
f 188/188/188 187/187/187 180/180/180
f 182/182/182 188/188/188 180/180/180
f 186/186/186 189/189/189 176/176/176
f 190/190/190 188/188/188 182/182/182
f 184/184/184 190/190/190 182/182/182
f 176/176/176 189/189/189 175/175/175
f 191/191/191 190/190/190 184/184/184
f 183/183/183 191/191/191 184/184/184
f 189/189/189 192/192/192 175/175/175
f 193/193/193 191/191/191 183/183/183
f 175/175/175 192/192/192 174/174/174
f 181/181/181 193/193/193 183/183/183
f 192/192/192 194/194/194 174/174/174
f 195/195/195 193/193/193 181/181/181
f 174/174/174 194/194/194 173/173/173
f 179/179/179 195/195/195 181/181/181
f 194/194/194 196/196/196 173/173/173
f 196/196/196 195/195/195 179/179/179
f 173/173/173 196/196/196 179/179/179
f 199/199/199 198/198/198 197/197/197
f 200/200/200 199/199/199 197/197/197
f 200/200/200 197/197/197 201/201/201
f 202/202/202 199/199/199 200/200/200
f 203/203/203 200/200/200 201/201/201
f 204/204/204 202/202/202 200/200/200
f 204/204/204 200/200/200 203/203/203
f 205/205/205 204/204/204 203/203/203
f 208/208/208 207/207/207 206/206/206
f 207/207/207 209/209/209 206/206/206
f 206/206/206 209/209/209 210/210/210
f 207/207/207 211/211/211 209/209/209
f 209/209/209 212/212/212 210/210/210
f 210/210/210 212/212/212 213/213/213
f 212/212/212 214/214/214 213/213/213
f 211/211/211 215/215/215 209/209/209
f 209/209/209 215/215/215 212/212/212
f 211/211/211 216/216/216 215/215/215
f 216/216/216 217/217/217 215/215/215
f 212/212/212 218/218/218 214/214/214
f 215/215/215 218/218/218 212/212/212
f 215/215/215 217/217/217 218/218/218
f 218/218/218 219/219/219 214/214/214
f 217/217/217 220/220/220 218/218/218
f 218/218/218 220/220/220 219/219/219
f 220/220/220 221/221/221 219/219/219
f 224/224/224 223/223/223 222/222/222
f 223/223/223 225/225/225 222/222/222
f 222/222/222 225/225/225 226/226/226
f 223/223/223 227/227/227 225/225/225
f 225/225/225 228/228/228 226/226/226
f 226/226/226 228/228/228 229/229/229
f 228/228/228 230/230/230 229/229/229
f 227/227/227 231/231/231 225/225/225
f 225/225/225 231/231/231 228/228/228
f 227/227/227 232/232/232 231/231/231
f 232/232/232 233/233/233 231/231/231
f 228/228/228 234/234/234 230/230/230
f 231/231/231 234/234/234 228/228/228
f 231/231/231 233/233/233 234/234/234
f 234/234/234 235/235/235 230/230/230
f 233/233/233 236/236/236 234/234/234
f 234/234/234 236/236/236 235/235/235
f 236/236/236 237/237/237 235/235/235
f 240/240/240 239/239/239 238/238/238
f 241/241/241 240/240/240 238/238/238
f 241/241/241 238/238/238 242/242/242
f 243/243/243 240/240/240 241/241/241
f 244/244/244 241/241/241 242/242/242
f 244/244/244 242/242/242 245/245/245
f 246/246/246 244/244/244 245/245/245
f 247/247/247 243/243/243 241/241/241
f 247/247/247 241/241/241 244/244/244
f 248/248/248 243/243/243 247/247/247
f 249/249/249 248/248/248 247/247/247
f 250/250/250 244/244/244 246/246/246
f 250/250/250 247/247/247 244/244/244
f 249/249/249 247/247/247 250/250/250
f 251/251/251 250/250/250 246/246/246
f 252/252/252 249/249/249 250/250/250
f 252/252/252 250/250/250 251/251/251
f 253/253/253 252/252/252 251/251/251
f 256/256/256 255/255/255 254/254/254
f 257/257/257 256/256/256 254/254/254
f 257/257/257 254/254/254 258/258/258
f 259/259/259 257/257/257 258/258/258
f 259/259/259 258/258/258 260/260/260
f 261/261/261 259/259/259 260/260/260
f 261/261/261 260/260/260 262/262/262
f 263/263/263 261/261/261 262/262/262
f 262/262/262 260/260/260 264/264/264
f 260/260/260 265/265/265 264/264/264
f 263/263/263 262/262/262 266/266/266
f 267/267/267 263/263/263 266/266/266
f 267/267/267 266/266/266 268/268/268
f 264/264/264 265/265/265 269/269/269
f 265/265/265 270/270/270 269/269/269
f 264/264/264 269/269/269 271/271/271
f 262/262/262 264/264/264 272/272/272
f 266/266/266 262/262/262 272/272/272
f 272/272/272 264/264/264 271/271/271
f 266/266/266 273/273/273 268/268/268
f 266/266/266 272/272/272 273/273/273
f 268/268/268 273/273/273 274/274/274
f 272/272/272 271/271/271 275/275/275
f 272/272/272 275/275/275 273/273/273
f 271/271/271 276/276/276 275/275/275
f 273/273/273 277/277/277 274/274/274
f 273/273/273 275/275/275 277/277/277
f 275/275/275 276/276/276 278/278/278
f 275/275/275 278/278/278 277/277/277
f 276/276/276 279/279/279 278/278/278
f 279/279/279 280/280/280 278/278/278
f 280/280/280 281/281/281 278/278/278
f 278/278/278 281/281/281 277/277/277
f 280/280/280 282/282/282 281/281/281
f 282/282/282 283/283/283 281/281/281
f 277/277/277 284/284/284 274/274/274
f 281/281/281 284/284/284 277/277/277
f 281/281/281 283/283/283 284/284/284
f 284/284/284 285/285/285 274/274/274
f 283/283/283 286/286/286 284/284/284
f 284/284/284 286/286/286 285/285/285
f 286/286/286 287/287/287 285/285/285
f 290/290/290 289/289/289 288/288/288
f 291/291/291 290/290/290 288/288/288
f 291/291/291 288/288/288 292/292/292
f 293/293/293 290/290/290 291/291/291
f 294/294/294 291/291/291 292/292/292
f 294/294/294 292/292/292 295/295/295
f 296/296/296 293/293/293 291/291/291
f 296/296/296 291/291/291 294/294/294
f 297/297/297 293/293/293 296/296/296
f 298/298/298 297/297/297 296/296/296
f 298/298/298 296/296/296 299/299/299
f 299/299/299 296/296/296 294/294/294
f 300/300/300 298/298/298 299/299/299
f 301/301/301 294/294/294 295/295/295
f 299/299/299 294/294/294 301/301/301
f 301/301/301 295/295/295 302/302/302
f 300/300/300 299/299/299 303/303/303
f 303/303/303 299/299/299 301/301/301
f 304/304/304 300/300/300 303/303/303
f 305/305/305 301/301/301 302/302/302
f 303/303/303 301/301/301 305/305/305
f 305/305/305 302/302/302 306/306/306
f 304/304/304 303/303/303 307/307/307
f 307/307/307 303/303/303 305/305/305
f 308/308/308 304/304/304 307/307/307
f 309/309/309 305/305/305 306/306/306
f 307/307/307 305/305/305 309/309/309
f 308/308/308 307/307/307 310/310/310
f 310/310/310 307/307/307 309/309/309
f 311/311/311 308/308/308 310/310/310
f 311/311/311 310/310/310 312/312/312
f 310/310/310 313/313/313 312/312/312
f 310/310/310 309/309/309 313/313/313
f 312/312/312 313/313/313 314/314/314
f 309/309/309 306/306/306 315/315/315
f 309/309/309 315/315/315 313/313/313
f 306/306/306 316/316/316 315/315/315
f 313/313/313 317/317/317 314/314/314
f 313/313/313 315/315/315 317/317/317
f 315/315/315 316/316/316 318/318/318
f 315/315/315 318/318/318 317/317/317
f 316/316/316 319/319/319 318/318/318
f 319/319/319 320/320/320 318/318/318
f 320/320/320 321/321/321 318/318/318
f 318/318/318 321/321/321 317/317/317
f 320/320/320 322/322/322 321/321/321
f 322/322/322 323/323/323 321/321/321
f 317/317/317 324/324/324 314/314/314
f 321/321/321 324/324/324 317/317/317
f 321/321/321 323/323/323 324/324/324
f 324/324/324 325/325/325 314/314/314
f 323/323/323 326/326/326 324/324/324
f 324/324/324 326/326/326 325/325/325
f 326/326/326 327/327/327 325/325/325
f 330/330/330 329/329/329 328/328/328
f 331/331/331 330/330/330 328/328/328
f 331/331/331 328/328/328 332/332/332
f 333/333/333 330/330/330 331/331/331
f 334/334/334 331/331/331 332/332/332
f 335/335/335 333/333/333 331/331/331
f 335/335/335 331/331/331 334/334/334
f 336/336/336 333/333/333 335/335/335
f 337/337/337 335/335/335 334/334/334
f 338/338/338 336/336/336 335/335/335
f 338/338/338 335/335/335 337/337/337
f 339/339/339 338/338/338 337/337/337
f 342/342/342 341/341/341 340/340/340
f 343/343/343 342/342/342 340/340/340
f 343/343/343 340/340/340 344/344/344
f 345/345/345 342/342/342 343/343/343
f 346/346/346 343/343/343 344/344/344
f 347/347/347 345/345/345 343/343/343
f 347/347/347 343/343/343 346/346/346
f 348/348/348 345/345/345 347/347/347
f 349/349/349 347/347/347 346/346/346
f 350/350/350 348/348/348 347/347/347
f 350/350/350 347/347/347 349/349/349
f 351/351/351 350/350/350 349/349/349
f 354/354/354 353/353/353 352/352/352
f 352/352/352 355/355/355 354/354/354
f 355/355/355 356/356/356 354/354/354
f 355/355/355 357/357/357 356/356/356
f 357/357/357 358/358/358 356/356/356
f 357/357/357 359/359/359 358/358/358
f 359/359/359 360/360/360 358/358/358
f 359/359/359 361/361/361 360/360/360
f 361/361/361 362/362/362 360/360/360
f 361/361/361 363/363/363 362/362/362
f 366/366/366 365/365/365 364/364/364
f 367/367/367 366/366/366 364/364/364
f 367/367/367 364/364/364 368/368/368
f 369/369/369 366/366/366 367/367/367
f 370/370/370 367/367/367 368/368/368
f 371/371/371 369/369/369 367/367/367
f 371/371/371 367/367/367 370/370/370
f 372/372/372 369/369/369 371/371/371
f 373/373/373 371/371/371 370/370/370
f 374/374/374 372/372/372 371/371/371
f 374/374/374 371/371/371 373/373/373
f 375/375/375 374/374/374 373/373/373
f 378/378/378 377/377/377 376/376/376
f 379/379/379 378/378/378 376/376/376
f 379/379/379 376/376/376 380/380/380
f 381/381/381 378/378/378 379/379/379
f 382/382/382 379/379/379 380/380/380
f 382/382/382 380/380/380 383/383/383
f 384/384/384 382/382/382 383/383/383
f 385/385/385 381/381/381 379/379/379
f 385/385/385 379/379/379 382/382/382
f 386/386/386 381/381/381 385/385/385
f 387/387/387 386/386/386 385/385/385
f 388/388/388 382/382/382 384/384/384
f 388/388/388 385/385/385 382/382/382
f 387/387/387 385/385/385 388/388/388
f 389/389/389 388/388/388 384/384/384
f 390/390/390 387/387/387 388/388/388
f 390/390/390 388/388/388 389/389/389
f 391/391/391 390/390/390 389/389/389
f 394/394/394 393/393/393 392/392/392
f 395/395/395 394/394/394 392/392/392
f 395/395/395 392/392/392 396/396/396
f 397/397/397 394/394/394 395/395/395
f 398/398/398 395/395/395 396/396/396
f 398/398/398 396/396/396 399/399/399
f 400/400/400 397/397/397 395/395/395
f 400/400/400 395/395/395 398/398/398
f 401/401/401 397/397/397 400/400/400
f 402/402/402 401/401/401 400/400/400
f 402/402/402 400/400/400 403/403/403
f 403/403/403 400/400/400 398/398/398
f 404/404/404 402/402/402 403/403/403
f 405/405/405 398/398/398 399/399/399
f 403/403/403 398/398/398 405/405/405
f 405/405/405 399/399/399 406/406/406
f 404/404/404 403/403/403 407/407/407
f 407/407/407 403/403/403 405/405/405
f 408/408/408 404/404/404 407/407/407
f 409/409/409 405/405/405 406/406/406
f 407/407/407 405/405/405 409/409/409
f 409/409/409 406/406/406 410/410/410
f 408/408/408 407/407/407 411/411/411
f 411/411/411 407/407/407 409/409/409
f 412/412/412 408/408/408 411/411/411
f 413/413/413 409/409/409 410/410/410
f 411/411/411 409/409/409 413/413/413
f 412/412/412 411/411/411 414/414/414
f 414/414/414 411/411/411 413/413/413
f 415/415/415 412/412/412 414/414/414
f 415/415/415 414/414/414 416/416/416
f 414/414/414 417/417/417 416/416/416
f 414/414/414 413/413/413 417/417/417
f 416/416/416 417/417/417 418/418/418
f 413/413/413 410/410/410 419/419/419
f 413/413/413 419/419/419 417/417/417
f 410/410/410 420/420/420 419/419/419
f 417/417/417 421/421/421 418/418/418
f 417/417/417 419/419/419 421/421/421
f 419/419/419 420/420/420 422/422/422
f 419/419/419 422/422/422 421/421/421
f 420/420/420 423/423/423 422/422/422
f 423/423/423 424/424/424 422/422/422
f 424/424/424 425/425/425 422/422/422
f 422/422/422 425/425/425 421/421/421
f 424/424/424 426/426/426 425/425/425
f 426/426/426 427/427/427 425/425/425
f 421/421/421 428/428/428 418/418/418
f 425/425/425 428/428/428 421/421/421
f 425/425/425 427/427/427 428/428/428
f 428/428/428 429/429/429 418/418/418
f 427/427/427 430/430/430 428/428/428
f 428/428/428 430/430/430 429/429/429
f 430/430/430 431/431/431 429/429/429
f 434/434/434 433/433/433 432/432/432
f 432/432/432 435/435/435 434/434/434
f 435/435/435 436/436/436 434/434/434
f 435/435/435 437/437/437 436/436/436
f 435/435/435 438/438/438 437/437/437
f 438/438/438 439/439/439 437/437/437
f 438/438/438 440/440/440 439/439/439
f 440/440/440 441/441/441 439/439/439
f 440/440/440 442/442/442 441/441/441
f 442/442/442 443/443/443 441/441/441
f 446/446/446 445/445/445 444/444/444
f 447/447/447 446/446/446 444/444/444
f 444/444/444 445/445/445 448/448/448
f 449/449/449 446/446/446 447/447/447
f 445/445/445 450/450/450 448/448/448
f 451/451/451 449/449/449 447/447/447
f 448/448/448 450/450/450 452/452/452
f 453/453/453 449/449/449 451/451/451
f 450/450/450 454/454/454 452/452/452
f 455/455/455 453/453/453 451/451/451
f 452/452/452 454/454/454 456/456/456
f 457/457/457 453/453/453 455/455/455
f 454/454/454 458/458/458 456/456/456
f 459/459/459 457/457/457 455/455/455
f 456/456/456 458/458/458 460/460/460
f 461/461/461 457/457/457 459/459/459
f 458/458/458 462/462/462 460/460/460
f 463/463/463 461/461/461 459/459/459
f 460/460/460 462/462/462 464/464/464
f 465/465/465 461/461/461 463/463/463
f 462/462/462 466/466/466 464/464/464
f 467/467/467 465/465/465 463/463/463
f 464/464/464 466/466/466 467/467/467
f 466/466/466 465/465/465 467/467/467

