mtllib Tissue_Box_1.mtl
g tissue_box_1
v 0.09414095 0.03997972 -0.03664099
v 0.09414095 0.03997973 0.03664097
v 0.09128502 0.0785026 0.04663674
v 0.09128502 0.07850259 -0.04663677
v -0.09414095 0.03997973 0.03664097
v -0.09414095 0.03997972 -0.03664099
v -0.09128502 0.07850259 -0.04663677
v -0.09128502 0.0785026 0.04663674
v 0.09249892 0.04140002 0.03600186
v 0.09249892 0.0414 -0.03600189
v 0.09097356 0.003008648 -0.04647763
v 0.09097356 0.003008675 0.04647763
v -0.09249892 0.0414 -0.03600189
v -0.09249892 0.04140002 0.03600186
v -0.09097356 0.003008675 0.04647763
v -0.09097356 0.003008648 -0.04647763
v 0.08911356 0.002171472 0.04880822
v -0.08911356 0.002171472 0.04880822
v -0.08911356 0.0785026 0.0488082
v 0.08911356 0.0785026 0.0488082
v -0.08911356 0.002171456 -0.04880822
v 0.08911356 0.002171456 -0.04880822
v 0.08911356 0.07850259 -0.04880823
v -0.08911356 0.07850259 -0.04880823
v 0.08911356 -8.34465E-09 -0.04663675
v 0.08911356 0.002171456 -0.04880822
v -0.08911356 0.002171456 -0.04880822
v -0.08911356 -8.34465E-09 -0.04663675
v 0.08911356 6.556511E-09 0.04663675
v -0.08911356 6.556511E-09 0.04663675
v 0.08911356 0.002171472 0.04880822
v -0.08911356 0.002171472 0.04880822
v -0.08911356 0.08067405 -0.04663677
v -0.08911356 0.07850259 -0.04880823
v 0.08911356 0.07850259 -0.04880823
v 0.08911356 0.08067405 -0.04663677
v -0.04078322 0.08067405 -0.02100026
v -0.0494202 0.08067405 -0.0168409
v -0.0553972 0.08067405 -0.009346002
v -0.08911356 0.08067407 0.04663674
v 0.0412061 0.08067405 -0.02100027
v -0.05753034 0.08067407 -1.311302E-08
v 0.04984309 0.08067405 -0.0168409
v 0.05582008 0.08067407 -0.009345995
v 0.05795324 0.08067407 -1.430511E-08
v -0.0553972 0.08067407 0.009345975
v 0.08911356 0.08067407 0.04663674
v -0.0494202 0.08067405 0.01684088
v 0.05582007 0.08067407 0.009345977
v -0.04078322 0.08067405 0.02100023
v 0.04984309 0.08067405 0.01684087
v 0.0412061 0.08067405 0.02100023
v -0.08911356 0.0785026 0.0488082
v 0.08911356 0.0785026 0.0488082
v -0.08726165 0.07294294 0.04461076
v -0.08726165 0.07678296 0.04461076
v -0.08726165 0.07678294 -0.04507886
v -0.08726165 0.07294293 -0.04507887
v -0.08726165 0.07294293 -0.04507887
v -0.08726165 0.07678294 -0.04507886
v 0.08784517 0.07678294 -0.04507886
v 0.08784517 0.07294293 -0.04507887
v 0.08784517 0.07294293 -0.04507887
v 0.08784517 0.07678294 -0.04507886
v 0.08784517 0.07678296 0.04461076
v 0.08784517 0.07294294 0.04461076
v 0.08784517 0.07294294 0.04461076
v 0.08784517 0.07678296 0.04461076
v -0.08726165 0.07678296 0.04461076
v -0.08726165 0.07294294 0.04461076
v -0.08911356 6.556511E-09 0.04663675
v -0.09128502 0.002171472 0.04663675
v -0.08911356 0.002171472 0.04880822
v -0.08911356 -8.34465E-09 -0.04663675
v -0.09128502 0.0785026 0.04663674
v -0.08911356 0.0785026 0.0488082
v -0.08911356 0.08067407 0.04663674
v -0.09128502 0.07850259 -0.04663677
v -0.08911356 0.08067405 -0.04663677
v -0.08911356 0.07850259 -0.04880823
v -0.09128502 0.002171456 -0.04663675
v -0.08911356 0.002171456 -0.04880822
v 0.08911356 -8.34465E-09 -0.04663675
v 0.09128502 0.002171456 -0.04663675
v 0.08911356 0.002171456 -0.04880822
v 0.08911356 6.556511E-09 0.04663675
v 0.09128502 0.07850259 -0.04663677
v 0.08911356 0.07850259 -0.04880823
v 0.08911356 0.08067405 -0.04663677
v 0.09128502 0.0785026 0.04663674
v 0.08911356 0.08067407 0.04663674
v 0.08911356 0.0785026 0.0488082
v 0.09128502 0.002171472 0.04663675
v 0.08911356 0.002171472 0.04880822
v -0.05753034 0.08067407 -1.311302E-08
v -0.05449234 0.07813878 0.009193898
v -0.0553972 0.08067407 0.009345975
v -0.05659078 0.07813878 -1.311302E-08
v -0.0553972 0.08067405 -0.009346002
v -0.0486126 0.07813879 0.01656684
v -0.0494202 0.08067405 0.01684088
v -0.05449234 0.07813878 -0.009193925
v -0.0494202 0.08067405 -0.0168409
v -0.04011615 0.07813879 0.02065852
v -0.04078322 0.08067405 0.02100023
v -0.0486126 0.07813878 -0.01656687
v -0.04078322 0.08067405 -0.02100026
v 0.04053904 0.07813879 0.02065852
v 0.0412061 0.08067405 0.02100023
v -0.04011615 0.07813878 -0.02065855
v 0.0412061 0.08067405 -0.02100027
v 0.04903549 0.07813879 0.01656684
v 0.04984309 0.08067405 0.01684087
v 0.04053904 0.07813878 -0.02065855
v 0.04984309 0.08067405 -0.0168409
v 0.05491522 0.07813878 0.009193899
v 0.05582007 0.08067407 0.009345977
v 0.04903549 0.07813878 -0.01656687
v 0.05582008 0.08067407 -0.009345995
v 0.05701366 0.07813878 -1.430511E-08
v 0.05795324 0.08067407 -1.430511E-08
v 0.05491522 0.07813878 -0.009193918
v 0.04990664 0.07519729 0.01686244
v 0.04125859 0.07519729 0.02102712
v 0.05589128 0.07519729 0.009357945
v 0.05802717 0.07519728 -1.370907E-08
v -0.04083571 0.07519729 0.02102712
v 0.05589129 0.07519728 -0.009357961
v 0.04990664 0.07519727 -0.01686247
v -0.04948376 0.07519729 0.01686244
v 0.04125859 0.07519727 -0.02102716
v -0.05546841 0.07519728 0.009357942
v -0.04083571 0.07519727 -0.02102715
v -0.05760428 0.07519728 -1.251698E-08
v -0.04948376 0.07519727 -0.01686247
v -0.05546841 0.07519728 -0.009357968
v -0.08726165 0.07294293 -0.04507887
v 0.08784517 0.07294293 -0.04507887
v 0.08784517 0.07294294 0.04461076
v -0.08726165 0.07294294 0.04461076
vn 0.9972632 0.0739332 0
vn 0.9972632 0.0739332 0
vn 0.9972632 0.0739332 0
vn 0.9972632 0.0739332 0
vn -0.9972632 0.0739332 0
vn -0.9972632 0.0739332 0
vn -0.9972632 0.0739332 0
vn -0.9972632 0.0739332 0
vn 0.9992117 -0.03970044 0
vn 0.9992117 -0.03970044 0
vn 0.9992117 -0.03970044 0
vn 0.9992117 -0.03970044 0
vn -0.9992117 -0.03970044 0
vn -0.9992117 -0.03970044 0
vn -0.9992117 -0.03970044 0
vn -0.9992117 -0.03970044 0
vn 0 1.629207E-07 1
vn 0 1.629207E-07 1
vn 0 1.629207E-07 1
vn 0 1.629207E-07 1
vn 0 -1.629207E-07 -1
vn 0 -1.629207E-07 -1
vn 0 -1.629207E-07 -1
vn 0 -1.629207E-07 -1
vn 0.5773503 -0.5773504 -0.5773501
vn 0 -1.629207E-07 -1
vn 0 -1.629207E-07 -1
vn -0.5773503 -0.5773504 -0.5773501
vn 0.5773503 -0.5773501 0.5773504
vn -0.5773503 -0.5773501 0.5773504
vn 0 1.629207E-07 1
vn 0 1.629207E-07 1
vn -0.5773503 0.5773501 -0.5773504
vn 0 -1.629207E-07 -1
vn 0 -1.629207E-07 -1
vn 0 1 -1.629207E-07
vn 0 1 -1.629207E-07
vn 0 1 -1.629207E-07
vn 0 1 -1.629207E-07
vn 0 1 -1.629207E-07
vn 0 1 -1.629207E-07
vn 0 1 -1.629207E-07
vn 0 1 -1.629207E-07
vn 0 1 -1.629207E-07
vn 0 1 -1.629207E-07
vn 0 1 -1.629207E-07
vn 0 1 -1.629207E-07
vn 0 1 -1.629207E-07
vn 0 1 -1.629207E-07
vn 0 1 -1.629207E-07
vn 0 1 -1.629207E-07
vn 0 1 -1.629207E-07
vn 0 1.629207E-07 1
vn 0 1.629207E-07 1
vn 1 0 0
vn 1 0 0
vn 1 0 0
vn 1 0 0
vn 0 1.629207E-07 1
vn 0 1.629207E-07 1
vn 0 1.629207E-07 1
vn 0 1.629207E-07 1
vn -1 0 0
vn -1 0 0
vn -1 0 0
vn -1 0 0
vn 0 -1.629207E-07 -1
vn 0 -1.629207E-07 -1
vn 0 -1.629207E-07 -1
vn 0 -1.629207E-07 -1
vn -0.5773503 -0.5773501 0.5773504
vn -1 0 0
vn 0 1.629207E-07 1
vn -0.5773503 -0.5773504 -0.5773501
vn -1 0 0
vn 0 1.629207E-07 1
vn 0 1 -1.629207E-07
vn -1 0 0
vn -0.5773503 0.5773501 -0.5773504
vn 0 -1.629207E-07 -1
vn -1 0 0
vn 0 -1.629207E-07 -1
vn 0.5773503 -0.5773504 -0.5773501
vn 1 0 0
vn 0 -1.629207E-07 -1
vn 0.5773503 -0.5773501 0.5773504
vn 1 0 0
vn 0 -1.629207E-07 -1
vn 0 1 -1.629207E-07
vn 1 0 0
vn 0 1 -1.629207E-07
vn 0 1.629207E-07 1
vn 1 0 0
vn 0 1.629207E-07 1
vn 0.5111077 0.8595167 -1.400331E-07
vn 0.8947775 0.01141392 -0.4463664
vn 0.5465365 0.7977393 -0.2547738
vn 0.9999266 0.01211607 0
vn 0.5465365 0.7977394 0.2547736
vn 0.603664 0.009308137 -0.7971845
vn 0.4031935 0.7777595 -0.4822087
vn 0.8947775 0.01141406 0.4463664
vn 0.4031934 0.7777597 0.4822084
vn 0.1920553 0.006134134 -0.9813649
vn 0.1677663 0.7449835 -0.6456424
vn 0.603664 0.009308397 0.7971845
vn 0.1677663 0.7449837 0.6456422
vn -0.1920553 0.006134134 -0.9813649
vn -0.1677663 0.7449835 -0.6456424
vn 0.1920553 0.006134454 0.9813649
vn -0.1677663 0.7449837 0.6456422
vn -0.603664 0.009308137 -0.7971845
vn -0.4031935 0.7777595 -0.4822087
vn -0.1920553 0.006134454 0.9813649
vn -0.4031934 0.7777597 0.4822084
vn -0.8947714 0.01141423 -0.4463786
vn -0.5465365 0.7977393 -0.2547738
vn -0.603664 0.009308397 0.7971845
vn -0.5465365 0.7977394 0.2547736
vn -0.9999266 0.01211607 0
vn -0.5111077 0.8595167 -1.400331E-07
vn -0.8947714 0.01141438 0.4463786
vn -0.6187196 -0.2577974 -0.7421095
vn -0.245615 -0.1794505 -0.9526126
vn -0.8618713 -0.3084303 -0.4025525
vn -0.9454521 -0.3257612 0
vn 0.245615 -0.1794505 -0.9526126
vn -0.8618713 -0.3084302 0.4025525
vn -0.6187196 -0.2577972 0.7421096
vn 0.6187196 -0.2577974 -0.7421095
vn -0.245615 -0.1794502 0.9526126
vn 0.8618713 -0.3084303 -0.4025525
vn 0.245615 -0.1794502 0.9526126
vn 0.9454521 -0.3257612 0
vn 0.6187196 -0.2577972 0.7421096
vn 0.8618713 -0.3084302 0.4025525
vn 0 1 -1.629207E-07
vn 0 1 -1.629207E-07
vn 0 1 -1.629207E-07
vn 0 1 -1.629207E-07
vt 0.1575596 0.8402688
vt 0.1730134 0.9896957
vt 0.2951215 0.9940358
vt 0.276195 0.8110309
vt 0.9744403 0.6736187
vt 0.9744403 0.8182836
vt 0.8579047 0.8345374
vt 0.8579047 0.6573647
vt 0.8432562 0.8416817
vt 0.8432562 0.9863465
vt 0.9597918 1.0026
vt 0.9597918 0.8254278
vt 0.147409 0.8328112
vt 0.1303652 0.9804537
vt 0.009515785 0.9833126
vt 0.03038957 0.8024929
vt 0.6274425 0.2751143
vt 0.6274425 0.687427
vt 0.8072907 0.6865695
vt 0.8072907 0.2742568
vt 0.6170208 0.7658086
vt 0.6170208 0.3522652
vt 0.4366488 0.3514052
vt 0.4366488 0.7649488
vt 0.3432193 0.4958767
vt 0.3432193 0.5013033
vt 0.01774722 0.5013033
vt 0.01774722 0.4958767
vt 0.3432193 0.2627799
vt 0.01774722 0.2627799
vt 0.3432193 0.2573533
vt 0.01774722 0.2573533
vt 0.09846053 0.242946
vt 0.09846053 0.2483726
vt 0.4239326 0.2483726
vt 0.4239326 0.242946
vt 0.1867197 0.1788787
vt 0.1709471 0.1684841
vt 0.1600321 0.1497539
vt 0.0984605 0.009849259
vt 0.3364456 0.1788787
vt 0.1561366 0.1263976
vt 0.3522182 0.1684841
vt 0.3631332 0.1497539
vt 0.3670287 0.1263976
vt 0.1600321 0.1030414
vt 0.4239326 0.009849229
vt 0.1709471 0.08431111
vt 0.3631332 0.1030414
vt 0.1867197 0.07391656
vt 0.3522182 0.08431108
vt 0.3364456 0.07391656
vt 0.0984605 0.004422584
vt 0.4239326 0.004422584
vt 0.4954233 0.9899396
vt 0.660939 0.9899396
vt 0.660939 0.8035741
vt 0.4954232 0.8035741
vt 0.986563 0.2498427
vt 0.8210471 0.2500881
vt 0.8196655 0.5295569
vt 0.9851812 0.5293116
vt 0.9851812 0.5293116
vt 0.8196655 0.5295569
vt 0.8210471 0.6488961
vt 0.986563 0.6486509
vt 0.8357643 0.7178426
vt 0.6702514 0.716935
vt 0.6702514 0.9964066
vt 0.8357643 0.9973142
vt 0.9950185 0.01970693
vt 0.9901421 0.0197069
vt 0.9901421 0.01567689
vt 0.9950185 0.1928119
vt 0.8187298 0.01970693
vt 0.8187298 0.01567692
vt 0.8138535 0.01970693
vt 0.8187298 0.1928119
vt 0.8138535 0.1928119
vt 0.8187298 0.196842
vt 0.9901421 0.1928119
vt 0.9901421 0.196842
vt 0.3029836 0.9847391
vt 0.3029836 0.9798628
vt 0.2989536 0.9798628
vt 0.4760886 0.9847391
vt 0.3029837 0.8084503
vt 0.2989535 0.8084503
vt 0.3029836 0.8035741
vt 0.4760886 0.8084505
vt 0.4760886 0.8035742
vt 0.4801187 0.8084504
vt 0.4760886 0.9798628
vt 0.4801187 0.9798627
vt 0.4961144 0.3209209
vt 0.5038146 0.3217154
vt 0.5027824 0.3198573
vt 0.4960217 0.3233074
vt 0.4894527 0.3193443
vt 0.5097289 0.3171945
vt 0.5080307 0.3161965
vt 0.4882809 0.3211595
vt 0.4842758 0.3152722
vt 0.5128171 0.3109175
vt 0.5109519 0.3108492
vt 0.4825045 0.3162162
vt 0.4814043 0.3097688
vt 0.5127813 0.2562411
vt 0.5110217 0.2562185
vt 0.4796478 0.3097856
vt 0.4837627 0.2548914
vt 0.5104548 0.2496559
vt 0.5086433 0.2504009
vt 0.4818744 0.2547767
vt 0.4867836 0.2493338
vt 0.5053965 0.2443905
vt 0.5041451 0.2460224
vt 0.4850337 0.2483688
vt 0.4918298 0.2454266
vt 0.4981942 0.2419323
vt 0.498081 0.2442032
vt 0.4907462 0.2436496
vt 0.5123191 0.2480585
vt 0.5148665 0.2553922
vt 0.5065976 0.242063
vt 0.4983332 0.2392642
vt 0.5148665 0.3119105
vt 0.4897963 0.2411843
vt 0.4833248 0.2465312
vt 0.5113983 0.3190642
vt 0.4798376 0.2537347
vt 0.504707 0.3242495
vt 0.4775267 0.3107032
vt 0.4959267 0.3260781
vt 0.4807336 0.3180294
vt 0.4872189 0.3236621
vt 0.4376254 0.2189132
vt 0.8014787 0.2189132
vt 0.8014787 0.01177064
vt 0.4376253 0.01177064
usemtl TissueBoxVar4
f 3/3/3 2/2/2 1/1/1
f 4/4/4 3/3/3 1/1/1
f 7/7/7 6/6/6 5/5/5
f 8/8/8 7/7/7 5/5/5
f 11/11/11 10/10/10 9/9/9
f 12/12/12 11/11/11 9/9/9
f 15/15/15 14/14/14 13/13/13
f 16/16/16 15/15/15 13/13/13
f 19/19/19 18/18/18 17/17/17
f 20/20/20 19/19/19 17/17/17
f 23/23/23 22/22/22 21/21/21
f 24/24/24 23/23/23 21/21/21
f 27/27/27 26/26/26 25/25/25
f 28/28/28 27/27/27 25/25/25
f 25/25/25 29/29/29 28/28/28
f 29/29/29 30/30/30 28/28/28
f 29/29/29 31/31/31 30/30/30
f 31/31/31 32/32/32 30/30/30
f 35/35/35 34/34/34 33/33/33
f 36/36/36 35/35/35 33/33/33
f 37/37/37 36/36/36 33/33/33
f 33/33/33 38/38/38 37/37/37
f 33/33/33 39/39/39 38/38/38
f 33/33/33 40/40/40 39/39/39
f 37/37/37 41/41/41 36/36/36
f 40/40/40 42/42/42 39/39/39
f 36/36/36 41/41/41 43/43/43
f 36/36/36 43/43/43 44/44/44
f 44/44/44 45/45/45 36/36/36
f 46/46/46 42/42/42 40/40/40
f 47/47/47 36/36/36 45/45/45
f 40/40/40 48/48/48 46/46/46
f 45/45/45 49/49/49 47/47/47
f 40/40/40 50/50/50 48/48/48
f 49/49/49 51/51/51 47/47/47
f 40/40/40 52/52/52 50/50/50
f 51/51/51 52/52/52 47/47/47
f 52/52/52 40/40/40 47/47/47
f 40/40/40 53/53/53 47/47/47
f 53/53/53 54/54/54 47/47/47
f 57/57/57 56/56/56 55/55/55
f 58/58/58 57/57/57 55/55/55
f 61/61/61 60/60/60 59/59/59
f 62/62/62 61/61/61 59/59/59
f 65/65/65 64/64/64 63/63/63
f 66/66/66 65/65/65 63/63/63
f 69/69/69 68/68/68 67/67/67
f 70/70/70 69/69/69 67/67/67
f 73/73/73 72/72/72 71/71/71
f 71/71/71 72/72/72 74/74/74
f 75/75/75 72/72/72 73/73/73
f 76/76/76 75/75/75 73/73/73
f 77/77/77 75/75/75 76/76/76
f 78/78/78 75/75/75 77/77/77
f 75/75/75 78/78/78 72/72/72
f 79/79/79 78/78/78 77/77/77
f 80/80/80 78/78/78 79/79/79
f 72/72/72 81/81/81 74/74/74
f 78/78/78 81/81/81 72/72/72
f 81/81/81 78/78/78 80/80/80
f 81/81/81 82/82/82 74/74/74
f 82/82/82 81/81/81 80/80/80
f 85/85/85 84/84/84 83/83/83
f 83/83/83 84/84/84 86/86/86
f 84/84/84 85/85/85 87/87/87
f 85/85/85 88/88/88 87/87/87
f 87/87/87 88/88/88 89/89/89
f 90/90/90 87/87/87 89/89/89
f 87/87/87 90/90/90 84/84/84
f 91/91/91 90/90/90 89/89/89
f 92/92/92 90/90/90 91/91/91
f 84/84/84 93/93/93 86/86/86
f 90/90/90 93/93/93 84/84/84
f 93/93/93 90/90/90 92/92/92
f 93/93/93 94/94/94 86/86/86
f 94/94/94 93/93/93 92/92/92
f 97/97/97 96/96/96 95/95/95
f 96/96/96 98/98/98 95/95/95
f 95/95/95 98/98/98 99/99/99
f 100/100/100 96/96/96 97/97/97
f 101/101/101 100/100/100 97/97/97
f 98/98/98 102/102/102 99/99/99
f 99/99/99 102/102/102 103/103/103
f 104/104/104 100/100/100 101/101/101
f 105/105/105 104/104/104 101/101/101
f 102/102/102 106/106/106 103/103/103
f 103/103/103 106/106/106 107/107/107
f 108/108/108 104/104/104 105/105/105
f 109/109/109 108/108/108 105/105/105
f 106/106/106 110/110/110 107/107/107
f 107/107/107 110/110/110 111/111/111
f 112/112/112 108/108/108 109/109/109
f 113/113/113 112/112/112 109/109/109
f 110/110/110 114/114/114 111/111/111
f 111/111/111 114/114/114 115/115/115
f 116/116/116 112/112/112 113/113/113
f 117/117/117 116/116/116 113/113/113
f 114/114/114 118/118/118 115/115/115
f 115/115/115 118/118/118 119/119/119
f 120/120/120 116/116/116 117/117/117
f 121/121/121 120/120/120 117/117/117
f 119/119/119 122/122/122 121/121/121
f 118/118/118 122/122/122 119/119/119
f 122/122/122 120/120/120 121/121/121
f 112/112/112 123/123/123 108/108/108
f 123/123/123 124/124/124 108/108/108
f 125/125/125 123/123/123 112/112/112
f 116/116/116 125/125/125 112/112/112
f 108/108/108 124/124/124 104/104/104
f 126/126/126 125/125/125 116/116/116
f 120/120/120 126/126/126 116/116/116
f 124/124/124 127/127/127 104/104/104
f 128/128/128 126/126/126 120/120/120
f 122/122/122 128/128/128 120/120/120
f 104/104/104 127/127/127 100/100/100
f 129/129/129 128/128/128 122/122/122
f 118/118/118 129/129/129 122/122/122
f 127/127/127 130/130/130 100/100/100
f 131/131/131 129/129/129 118/118/118
f 100/100/100 130/130/130 96/96/96
f 114/114/114 131/131/131 118/118/118
f 130/130/130 132/132/132 96/96/96
f 133/133/133 131/131/131 114/114/114
f 96/96/96 132/132/132 98/98/98
f 110/110/110 133/133/133 114/114/114
f 132/132/132 134/134/134 98/98/98
f 135/135/135 133/133/133 110/110/110
f 98/98/98 134/134/134 102/102/102
f 106/106/106 135/135/135 110/110/110
f 134/134/134 136/136/136 102/102/102
f 136/136/136 135/135/135 106/106/106
f 102/102/102 136/136/136 106/106/106
usemtl WHITE TissueBox
f 139/139/139 138/138/138 137/137/137
f 140/140/140 139/139/139 137/137/137
g tissue_box_tissue_1
v 0.01487486 -0.03750835 -0.02604851
v 0.01443631 -0.04378346 -0.0261599
v 0.01281443 -0.05082942 -0.02665914
v 0.01487486 -0.03750835 -0.02604851
v 0.01281443 -0.05082942 -0.02665914
v 0.01443631 -0.04378346 -0.0261599
v -0.01382512 -0.05142832 -0.02618936
v -0.01116878 -0.05397032 -0.02921333
v -0.01342583 -0.05481019 -0.02713042
v -0.0177905 -0.04322308 -0.02550333
v -0.01157584 -0.0415964 -0.03041793
v -0.007462698 -0.05353977 -0.03020864
v -0.01536203 -0.03152103 -0.02577911
v -0.01973068 -0.03721523 -0.02194837
v -0.005832236 -0.04671004 -0.02938305
v -0.004439536 -0.0549785 -0.02645931
v -0.008375343 -0.03844429 -0.02893857
v -0.003335223 -0.04519258 -0.02584895
v -0.0009988048 -0.05521868 -0.02567309
v -0.01638589 -0.02553507 -0.02061244
v -0.02177279 -0.03047866 -0.01540691
v -0.02497693 -0.01448589 -0.01132779
v -0.02012387 -0.01540893 -0.01400171
v -0.02811941 -0.02073319 -0.01049994
v -0.03159824 -0.01404931 -0.003846785
v -0.03683466 -0.008027651 0.001968938
v -0.01395904 -0.02294811 -0.01878032
v 0.0003434492 -0.04108617 -0.02919997
v 0.002544361 -0.0540693 -0.02855604
v -0.03689789 0.0008840723 -0.001928755
v -0.03914621 -0.004394925 0.007726311
v -0.004630884 -0.03819067 -0.0237345
v -0.007911835 -0.03044608 -0.01892076
v -0.009592984 -0.0238761 -0.01266131
v -0.02775497 -0.003241608 -0.008703132
v -0.0311035 0.01179416 -0.001167336
v -0.04406988 0.009132459 0.01043373
v -0.04581731 0.002861554 0.01707878
v -0.02529329 2.502159E-05 -0.006880016
v -0.03652812 0.01549165 0.001375257
v -0.0433765 0.01536403 0.02018685
v -0.04885394 0.01247327 0.0251891
v -0.03724078 0.02491038 0.003452498
v -0.04385908 0.02356146 0.02527737
v -0.05021349 0.01951636 0.03041794
v -0.03917807 0.02608197 0.009815104
v -0.04061314 0.03160268 0.01793724
v -0.03438995 0.03611636 0.01630531
v -0.02931772 0.02140097 0.002889018
v -0.0271109 0.03490582 0.0213513
v -0.02307471 0.02171696 0.01579981
v -0.01756891 0.03699689 0.02344711
v -0.02133326 0.01636752 0.01071885
v -0.02026858 0.003665626 0.003030613
v -0.01699687 0.01338414 0.006016577
v -0.01584093 -0.006204493 -0.00356561
v -0.01074173 -0.0158204 -0.005159677
v -0.01214392 -0.005209401 -0.002660629
v 0.0009604229 -0.01079296 -0.01216025
v -0.004973824 -0.02353371 -0.01309244
v -0.004611508 -0.0304501 -0.0189143
v 0.0002430682 -0.02312866 -0.02110707
v -0.0002382636 -0.03342056 -0.02631107
v 0.003112641 -0.0360975 -0.02848791
v -0.01464611 0.003540189 0.002438156
v -0.003322439 0.009514129 -0.006611658
v 0.003571053 -0.02216981 -0.0206605
v 0.004852822 -0.0416296 -0.02862832
v 0.009339618 -0.03343492 -0.02145727
v 0.007175364 -0.04758824 -0.02453118
v 0.01045486 -0.03573762 -0.02203495
v 0.007307803 -0.05556122 -0.02509718
v 0.00958266 -0.0273099 -0.01378327
v -0.008325497 0.01273702 -0.0030862
v -0.007844036 0.02669529 -0.006183197
v 0.01281443 -0.05082942 -0.02665914
v 0.01274517 -0.05431487 -0.02778749
v 0.01688308 -0.05533578 -0.02532559
v 0.01824436 -0.04765005 -0.02223892
v 0.01443631 -0.04378346 -0.0261599
v 0.02503878 -0.0372823 -0.02279222
v 0.01487486 -0.03750835 -0.02604851
v 0.02271222 -0.03345297 -0.0237231
v 0.02409687 -0.02481287 -0.02161547
v 0.02945418 -0.0273728 -0.01552149
v 0.02997731 -0.01540315 -0.01785074
v 0.03528868 -0.01947274 -0.01284803
v 0.03274676 -0.01000758 -0.01423287
v 0.03948019 -0.009286854 -0.005944187
v 0.02111481 -0.02294592 -0.02092521
v 0.01738847 -0.02812654 -0.02064325
v 0.02823328 -0.007414544 -0.01429315
v 0.01668626 -0.02379219 -0.01079716
v 0.02474832 -0.007221492 -0.01203944
v 0.02848977 0.005008284 -0.01136268
v 0.02340619 -0.0027442 -0.003107801
v 0.01562925 -0.01685536 -0.004128999
v 0.03943467 0.002072894 -0.007495771
v 0.04380677 0.00453736 -0.002039001
v 0.03717317 0.008957431 -0.009675279
v 0.03473793 0.02320207 -0.007511659
v 0.04143544 0.01583081 0.001867504
v 0.04651718 0.01848522 0.007677877
v 0.04731395 0.02179045 0.01071543
v 0.03323424 0.00933808 -0.01174362
v 0.02944189 0.01749678 -0.008860406
v 0.007166108 -0.0153771 -0.008560608
v 0.02457661 0.009312455 -0.003906695
v 0.03646247 0.04074745 0.003025885
v 0.04237526 0.03315162 0.008285735
v 0.05021348 0.0290895 0.01208274
v 0.02992073 0.03607334 -0.001335098
v 0.03070826 0.04369254 0.003393938
v 0.02173303 0.0405449 0.01356461
v 0.01860723 0.02134304 0.006083385
v 0.01849405 0.01071796 0.000387273
v 0.02022735 0.03359882 0.009795671
v 0.01450448 0.02659154 0.007752097
v 0.01702135 -0.007037156 -0.0007572577
v 0.01161103 -0.005103744 -0.001434361
v 0.007560528 0.01931482 0.0006285615
v 0.007160209 0.006524188 -0.004697473
v 0.01163191 0.03458861 0.01102076
v 0.01176798 0.045747 0.01466796
v 0.004695569 0.03437262 0.0001080473
v 0.00649273 0.05355833 0.008356363
v 0.000310989 0.001225354 -0.008391703
v 0.001487177 0.009215266 -0.007413891
v -0.003007343 0.0379843 -0.003964578
v 0.0001293169 0.05556121 0.007028996
v -0.007362999 0.05406145 0.009492005
v 0.001642413 0.02821826 -0.006788885
v -0.006009403 -0.003060963 -0.007662508
v -0.009702853 0.04330107 0.003601249
v -0.0134413 0.04609915 0.01684241
v -0.01408654 0.02708363 0.00176456
v -0.01482601 0.03436217 0.01468374
v -0.01382512 -0.05142832 -0.02618936
v -0.01342583 -0.05481019 -0.02713042
v -0.01116878 -0.05397032 -0.02921333
v -0.0177905 -0.04322308 -0.02550333
v -0.01157584 -0.0415964 -0.03041793
v -0.007462698 -0.05353977 -0.03020864
v -0.01536203 -0.03152103 -0.02577911
v -0.01973068 -0.03721523 -0.02194837
v -0.005832236 -0.04671004 -0.02938305
v -0.004439536 -0.0549785 -0.02645931
v -0.008375343 -0.03844429 -0.02893857
v -0.003335223 -0.04519258 -0.02584895
v -0.0009988048 -0.05521868 -0.02567309
v -0.01638589 -0.02553507 -0.02061244
v -0.02177279 -0.03047866 -0.01540691
v -0.02497693 -0.01448589 -0.01132779
v -0.02012387 -0.01540893 -0.01400171
v -0.02811941 -0.02073319 -0.01049994
v -0.03159824 -0.01404931 -0.003846785
v -0.03683466 -0.008027651 0.001968938
v -0.01395904 -0.02294811 -0.01878032
v 0.0003434492 -0.04108617 -0.02919997
v 0.002544361 -0.0540693 -0.02855604
v -0.03689789 0.0008840723 -0.001928755
v -0.03914621 -0.004394925 0.007726311
v -0.004630884 -0.03819067 -0.0237345
v -0.007911835 -0.03044608 -0.01892076
v -0.009592984 -0.0238761 -0.01266131
v -0.02775497 -0.003241608 -0.008703132
v -0.0311035 0.01179416 -0.001167336
v -0.04406988 0.009132459 0.01043373
v -0.04581731 0.002861554 0.01707878
v -0.02529329 2.502159E-05 -0.006880016
v -0.03652812 0.01549165 0.001375257
v -0.0433765 0.01536403 0.02018685
v -0.04885394 0.01247327 0.0251891
v -0.03724078 0.02491038 0.003452498
v -0.04385908 0.02356146 0.02527737
v -0.05021349 0.01951636 0.03041794
v -0.03917807 0.02608197 0.009815104
v -0.04061314 0.03160268 0.01793724
v -0.03438995 0.03611636 0.01630531
v -0.02931772 0.02140097 0.002889018
v -0.0271109 0.03490582 0.0213513
v -0.02307471 0.02171696 0.01579981
v -0.01756891 0.03699689 0.02344711
v -0.02133326 0.01636752 0.01071885
v -0.02026858 0.003665626 0.003030613
v -0.01699687 0.01338414 0.006016577
v -0.01584093 -0.006204493 -0.00356561
v -0.01074173 -0.0158204 -0.005159677
v -0.01214392 -0.005209401 -0.002660629
v 0.0009604229 -0.01079296 -0.01216025
v -0.004973824 -0.02353371 -0.01309244
v -0.004611508 -0.0304501 -0.0189143
v 0.0002430682 -0.02312866 -0.02110707
v -0.0002382636 -0.03342056 -0.02631107
v 0.003112641 -0.0360975 -0.02848791
v -0.01464611 0.003540189 0.002438156
v -0.003322439 0.009514129 -0.006611658
v 0.003571053 -0.02216981 -0.0206605
v 0.004852822 -0.0416296 -0.02862832
v 0.009339618 -0.03343492 -0.02145727
v 0.007175364 -0.04758824 -0.02453118
v 0.01045486 -0.03573762 -0.02203495
v 0.007307803 -0.05556122 -0.02509718
v 0.00958266 -0.0273099 -0.01378327
v -0.008325497 0.01273702 -0.0030862
v -0.007844036 0.02669529 -0.006183197
v 0.01281443 -0.05082942 -0.02665914
v 0.01274517 -0.05431487 -0.02778749
v 0.01688308 -0.05533578 -0.02532559
v 0.01824436 -0.04765005 -0.02223892
v 0.01443631 -0.04378346 -0.0261599
v 0.02503878 -0.0372823 -0.02279222
v 0.01487486 -0.03750835 -0.02604851
v 0.02271222 -0.03345297 -0.0237231
v 0.02409687 -0.02481287 -0.02161547
v 0.02945418 -0.0273728 -0.01552149
v 0.02997731 -0.01540315 -0.01785074
v 0.03528868 -0.01947274 -0.01284803
v 0.03274676 -0.01000758 -0.01423287
v 0.03948019 -0.009286854 -0.005944187
v 0.02111481 -0.02294592 -0.02092521
v 0.01738847 -0.02812654 -0.02064325
v 0.02823328 -0.007414544 -0.01429315
v 0.01668626 -0.02379219 -0.01079716
v 0.02474832 -0.007221492 -0.01203944
v 0.02848977 0.005008284 -0.01136268
v 0.02340619 -0.0027442 -0.003107801
v 0.01562925 -0.01685536 -0.004128999
v 0.03943467 0.002072894 -0.007495771
v 0.04380677 0.00453736 -0.002039001
v 0.03717317 0.008957431 -0.009675279
v 0.03473793 0.02320207 -0.007511659
v 0.04143544 0.01583081 0.001867504
v 0.04651718 0.01848522 0.007677877
v 0.04731395 0.02179045 0.01071543
v 0.03323424 0.00933808 -0.01174362
v 0.02944189 0.01749678 -0.008860406
v 0.007166108 -0.0153771 -0.008560608
v 0.02457661 0.009312455 -0.003906695
v 0.03646247 0.04074745 0.003025885
v 0.04237526 0.03315162 0.008285735
v 0.05021348 0.0290895 0.01208274
v 0.02992073 0.03607334 -0.001335098
v 0.03070826 0.04369254 0.003393938
v 0.02173303 0.0405449 0.01356461
v 0.01860723 0.02134304 0.006083385
v 0.01849405 0.01071796 0.000387273
v 0.02022735 0.03359882 0.009795671
v 0.01450448 0.02659154 0.007752097
v 0.01702135 -0.007037156 -0.0007572577
v 0.01161103 -0.005103744 -0.001434361
v 0.007560528 0.01931482 0.0006285615
v 0.007160209 0.006524188 -0.004697473
v 0.01163191 0.03458861 0.01102076
v 0.01176798 0.045747 0.01466796
v 0.004695569 0.03437262 0.0001080473
v 0.00649273 0.05355833 0.008356363
v 0.000310989 0.001225354 -0.008391703
v 0.001487177 0.009215266 -0.007413891
v -0.003007343 0.0379843 -0.003964578
v 0.0001293169 0.05556121 0.007028996
v -0.007362999 0.05406145 0.009492005
v 0.001642413 0.02821826 -0.006788885
v -0.006009403 -0.003060963 -0.007662508
v -0.009702853 0.04330107 0.003601249
v -0.0134413 0.04609915 0.01684241
v -0.01408654 0.02708363 0.00176456
v -0.01482601 0.03436217 0.01468374
vn 0.2087533 -0.2140636 0.9542531
vn -0.4160932 0.09366232 0.9044853
vn -0.04168916 -0.210643 0.9766738
vn -0.2087533 0.2140636 -0.9542531
vn 0.04168916 0.210643 -0.9766738
vn 0.4160932 -0.09366232 -0.9044853
vn 0.8236439 0.2628898 0.5024935
vn 0.5323169 0.0882313 0.8419347
vn 0.6964493 -0.1148743 0.7083518
vn 0.6744425 -0.0121465 0.7382275
vn 0.2079292 -0.1259537 0.9700006
vn -0.3275592 0.08612445 0.9408972
vn 0.3526809 -0.4582775 0.8158418
vn 0.7772396 -0.2099434 0.5931461
vn -0.5869026 -0.07196266 0.8064532
vn -0.5222451 0.02487331 0.8524326
vn -0.4361179 -0.4163719 0.7977691
vn -0.09448743 -0.06265575 0.9935524
vn 0.2372237 0.06674507 0.9691594
vn 0.432795 -0.4532733 0.7792507
vn 0.7379232 -0.1669703 0.6539039
vn 0.5881671 -0.1249762 0.7990247
vn -0.1030329 -0.5235879 0.8457186
vn 0.5752232 -0.1837246 0.7970969
vn 0.7463389 -0.05148523 0.6635718
vn 0.8631824 0.1849786 0.4697862
vn -0.4058419 -0.6626593 0.6294243
vn 0.3316488 -0.06744659 0.9409888
vn -0.04565718 0.09122295 0.9947832
vn 0.7490947 -0.0173043 0.6622368
vn 0.911676 0.2105535 0.3528654
vn 9.155645E-05 -0.5090232 0.8607528
vn -0.384972 -0.6324539 0.6721598
vn -0.2910572 -0.7096215 0.6416565
vn 0.2835864 -0.2825486 0.9163761
vn -0.1489644 -0.3723347 0.9160658
vn 0.9390094 -0.08505647 0.3332067
vn 0.9286845 -0.03253395 0.3694412
vn -0.35543 -0.5379363 0.7643912
vn 0.5734876 -0.1568384 0.8040608
vn 0.8831247 -0.2641408 0.3877119
vn 0.7213303 -0.315023 0.6168008
vn 0.404744 -0.5406759 0.7374631
vn 0.8705951 -0.224012 0.4380443
vn 0.7112264 -0.3253377 0.6231471
vn 0.8825208 -0.3218849 0.3428515
vn 0.8254 -0.3832639 0.4145159
vn -0.01257387 -0.7636487 0.6455095
vn -0.5148023 -0.4466523 0.7317653
vn -0.3643387 -0.5414723 0.7576708
vn -0.2373485 -0.6295516 0.7398179
vn 0.6756067 -0.3532917 0.6471016
vn -0.1309294 -0.5981551 0.7906124
vn -0.2862678 -0.5325557 0.7965143
vn 0.6620187 -0.2485773 0.7070648
vn -0.3840862 -0.494261 0.7798615
vn 0.007446594 -0.4813428 0.8765008
vn 0.3186799 -0.2904496 0.902265
vn -0.04388583 -0.4052571 0.9131488
vn 0.4744519 -0.5314006 0.7017897
vn 0.4288858 -0.5129049 0.74363
vn 0.420162 -0.4795223 0.7704039
vn 0.4991149 -0.3740766 0.7816335
vn -0.2072556 -0.3225873 0.9235706
vn 0.4027391 -0.2942411 0.8667315
vn 0.381883 -0.05267547 0.9227083
vn -0.4161665 -0.5373296 0.733541
vn -0.5433007 -0.02102751 0.8392747
vn -0.4706071 -0.4906887 0.7333169
vn -0.6137966 -0.001037515 0.7894635
vn 0.2823066 -0.409848 0.8673682
vn -0.1285777 -0.1679169 0.97738
vn -0.4830284 -0.5936301 0.6436513
vn 0.6633996 0.08606474 0.7432992
vn 0.4810062 -0.1109966 0.8696625
vn -0.04168916 -0.210643 0.9766738
vn -0.0282298 -0.3073537 0.9511765
vn -0.5320637 -0.2400908 0.8119512
vn -0.566108 0.1299831 0.8140186
vn -0.4160932 0.09366232 0.9044853
vn -0.4912028 0.03015288 0.8705231
vn 0.2087533 -0.2140636 0.9542531
vn -0.3522558 -0.1128609 0.9290739
vn -0.3680274 -0.1987084 0.908334
vn -0.7140914 0.0609167 0.6973972
vn -0.3983651 -0.193338 0.896619
vn -0.688908 0.02456801 0.7244323
vn -0.5373421 -0.1872013 0.8223254
vn -0.7801911 0.02447644 0.6250622
vn 0.3697153 -0.4528202 0.811335
vn 0.7062255 -0.5438606 0.4532783
vn 0.1462173 -0.3577759 0.922289
vn 0.5224311 -0.6374282 0.5663487
vn 0.741004 -0.3873485 0.54852
vn 0.5747592 -0.1796026 0.79837
vn 0.7232732 -0.2205618 0.6543916
vn 0.1313871 -0.5048557 0.8531461
vn -0.7584583 0.01739594 0.6514893
vn -0.7966539 -0.1483558 0.5859464
vn -0.6527405 -0.1502755 0.7425274
vn -0.3860722 -0.3443213 0.8557985
vn -0.7807163 -0.1896778 0.5954027
vn -0.770975 -0.2196768 0.5977789
vn -0.7198202 -0.1803669 0.6703184
vn -0.1235718 -0.1913545 0.9737113
vn 0.4816818 -0.2647524 0.8353974
vn -0.6127874 -0.3753203 0.6954324
vn 0.7421108 -0.121742 0.6591285
vn -0.4741758 -0.4235445 0.7718596
vn -0.7380193 -0.1818343 0.6498183
vn -0.4343464 0.003815022 0.9007378
vn 0.3299142 -0.4693265 0.8190783
vn 0.400174 -0.5127915 0.7595432
vn 0.3716622 -0.4321815 0.8216364
vn 0.2536468 -0.4094482 0.8763649
vn 0.1066017 -0.2830606 0.9531594
vn 0.5357128 -0.4348755 0.723806
vn -0.3193782 -0.3759903 0.8698441
vn 0.1597071 -0.2423224 0.9569606
vn -0.469418 -0.1343155 0.8727005
vn -0.5893531 -0.2403068 0.7713076
vn -0.4594282 -0.15299 0.8749399
vn -0.4924605 -0.3617765 0.7915809
vn -0.627783 -0.2284067 0.7441229
vn -0.7065499 -0.2760155 0.6516154
vn -0.5990545 -0.3212718 0.7334291
vn -0.09250274 -0.1712413 0.980877
vn -0.2374967 -0.124913 0.9633234
vn 0.02252312 -0.4375527 0.8989106
vn 0.005768201 -0.5310102 0.8473459
vn 0.6133872 -0.4928033 0.6171718
vn -0.4295504 -0.1896429 0.8829054
vn 0.518638 -0.1117295 0.8476622
vn 0.7343163 -0.390032 0.555567
vn 0.9180456 -0.2335017 0.3204203
vn 0.8747724 -0.1659634 0.4552246
vn 0.9424406 -0.2035952 0.2652446
vn -0.8236439 -0.2628898 -0.5024935
vn -0.6964493 0.1148743 -0.7083518
vn -0.5323169 -0.0882313 -0.8419347
vn -0.6744425 0.0121465 -0.7382275
vn -0.2079292 0.1259537 -0.9700006
vn 0.3275592 -0.08612445 -0.9408972
vn -0.3526809 0.4582775 -0.8158418
vn -0.7772396 0.2099434 -0.5931461
vn 0.5869026 0.07196266 -0.8064532
vn 0.5222451 -0.02487331 -0.8524326
vn 0.4361179 0.4163719 -0.7977691
vn 0.09448743 0.06265575 -0.9935524
vn -0.2372237 -0.06674507 -0.9691594
vn -0.432795 0.4532733 -0.7792507
vn -0.7379232 0.1669703 -0.6539039
vn -0.5881671 0.1249762 -0.7990247
vn 0.1030329 0.5235879 -0.8457186
vn -0.5752232 0.1837246 -0.7970969
vn -0.7463389 0.05148523 -0.6635718
vn -0.8631824 -0.1849786 -0.4697862
vn 0.4058419 0.6626593 -0.6294243
vn -0.3316488 0.06744659 -0.9409888
vn 0.04565718 -0.09122295 -0.9947832
vn -0.7490947 0.0173043 -0.6622368
vn -0.911676 -0.2105535 -0.3528654
vn -9.155645E-05 0.5090232 -0.8607528
vn 0.384972 0.6324539 -0.6721598
vn 0.2910572 0.7096215 -0.6416565
vn -0.2835864 0.2825486 -0.9163761
vn 0.1489644 0.3723347 -0.9160658
vn -0.9390094 0.08505647 -0.3332067
vn -0.9286845 0.03253395 -0.3694412
vn 0.35543 0.5379363 -0.7643912
vn -0.5734876 0.1568384 -0.8040608
vn -0.8831247 0.2641408 -0.3877119
vn -0.7213303 0.315023 -0.6168008
vn -0.404744 0.5406759 -0.7374631
vn -0.8705951 0.224012 -0.4380443
vn -0.7112264 0.3253377 -0.6231471
vn -0.8825208 0.3218849 -0.3428515
vn -0.8254 0.3832639 -0.4145159
vn 0.01257387 0.7636487 -0.6455095
vn 0.5148023 0.4466523 -0.7317653
vn 0.3643387 0.5414723 -0.7576708
vn 0.2373485 0.6295516 -0.7398179
vn -0.6756067 0.3532917 -0.6471016
vn 0.1309294 0.5981551 -0.7906124
vn 0.2862678 0.5325557 -0.7965143
vn -0.6620187 0.2485773 -0.7070648
vn 0.3840862 0.494261 -0.7798615
vn -0.007446594 0.4813428 -0.8765008
vn -0.3186799 0.2904496 -0.902265
vn 0.04388583 0.4052571 -0.9131488
vn -0.4744519 0.5314006 -0.7017897
vn -0.4288858 0.5129049 -0.74363
vn -0.420162 0.4795223 -0.7704039
vn -0.4991149 0.3740766 -0.7816335
vn 0.2072556 0.3225873 -0.9235706
vn -0.4027391 0.2942411 -0.8667315
vn -0.381883 0.05267547 -0.9227083
vn 0.4161665 0.5373296 -0.733541
vn 0.5433007 0.02102751 -0.8392747
vn 0.4706071 0.4906887 -0.7333169
vn 0.6137966 0.001037515 -0.7894635
vn -0.2823066 0.409848 -0.8673682
vn 0.1285777 0.1679169 -0.97738
vn 0.4830284 0.5936301 -0.6436513
vn -0.6633996 -0.08606474 -0.7432992
vn -0.4810062 0.1109966 -0.8696625
vn 0.04168916 0.210643 -0.9766738
vn 0.0282298 0.3073537 -0.9511765
vn 0.5320637 0.2400908 -0.8119512
vn 0.566108 -0.1299831 -0.8140186
vn 0.4160932 -0.09366232 -0.9044853
vn 0.4912028 -0.03015288 -0.8705231
vn -0.2087533 0.2140636 -0.9542531
vn 0.3522558 0.1128609 -0.9290739
vn 0.3680274 0.1987084 -0.908334
vn 0.7140914 -0.0609167 -0.6973972
vn 0.3983651 0.193338 -0.896619
vn 0.688908 -0.02456801 -0.7244323
vn 0.5373421 0.1872013 -0.8223254
vn 0.7801911 -0.02447644 -0.6250622
vn -0.3697153 0.4528202 -0.811335
vn -0.7062255 0.5438606 -0.4532783
vn -0.1462173 0.3577759 -0.922289
vn -0.5224311 0.6374282 -0.5663487
vn -0.741004 0.3873485 -0.54852
vn -0.5747592 0.1796026 -0.79837
vn -0.7232732 0.2205618 -0.6543916
vn -0.1313871 0.5048557 -0.8531461
vn 0.7584583 -0.01739594 -0.6514893
vn 0.7966539 0.1483558 -0.5859464
vn 0.6527405 0.1502755 -0.7425274
vn 0.3860722 0.3443213 -0.8557985
vn 0.7807163 0.1896778 -0.5954027
vn 0.770975 0.2196768 -0.5977789
vn 0.7198202 0.1803669 -0.6703184
vn 0.1235718 0.1913545 -0.9737113
vn -0.4816818 0.2647524 -0.8353974
vn 0.6127874 0.3753203 -0.6954324
vn -0.7421108 0.121742 -0.6591285
vn 0.4741758 0.4235445 -0.7718596
vn 0.7380193 0.1818343 -0.6498183
vn 0.4343464 -0.003815022 -0.9007378
vn -0.3299142 0.4693265 -0.8190783
vn -0.400174 0.5127915 -0.7595432
vn -0.3716622 0.4321815 -0.8216364
vn -0.2536468 0.4094482 -0.8763649
vn -0.1066017 0.2830606 -0.9531594
vn -0.5357128 0.4348755 -0.723806
vn 0.3193782 0.3759903 -0.8698441
vn -0.1597071 0.2423224 -0.9569606
vn 0.469418 0.1343155 -0.8727005
vn 0.5893531 0.2403068 -0.7713076
vn 0.4594282 0.15299 -0.8749399
vn 0.4924605 0.3617765 -0.7915809
vn 0.627783 0.2284067 -0.7441229
vn 0.7065499 0.2760155 -0.6516154
vn 0.5990545 0.3212718 -0.7334291
vn 0.09250274 0.1712413 -0.980877
vn 0.2374967 0.124913 -0.9633234
vn -0.02252312 0.4375527 -0.8989106
vn -0.005768201 0.5310102 -0.8473459
vn -0.6133872 0.4928033 -0.6171718
vn 0.4295504 0.1896429 -0.8829054
vn -0.518638 0.1117295 -0.8476622
vn -0.7343163 0.390032 -0.555567
vn -0.9180456 0.2335017 -0.3204203
vn -0.8747724 0.1659634 -0.4552246
vn -0.9424406 0.2035952 -0.2652446
vt 0.1358425 0.5569844
vt 0.1402168 0.5436131
vt 0.1444112 0.5223634
vt 0.1358425 0.5569844
vt 0.1444112 0.5223634
vt 0.1402168 0.5436131
vt 0.2371265 0.5235602
vt 0.225982 0.516782
vt 0.2342586 0.5143879
vt 0.2451057 0.5465654
vt 0.2266094 0.5474271
vt 0.2156233 0.5177032
vt 0.2343073 0.5738553
vt 0.2503086 0.5643755
vt 0.2115 0.5384865
vt 0.2026283 0.5147054
vt 0.2171525 0.5583179
vt 0.1998884 0.5416424
vt 0.1938676 0.5143726
vt 0.2410023 0.5940197
vt 0.2593777 0.5893778
vt 0.2660683 0.6321371
vt 0.2474757 0.629651
vt 0.2758076 0.6178979
vt 0.2909822 0.6404052
vt 0.3074933 0.6612945
vt 0.2313668 0.603159
vt 0.1886778 0.5506524
vt 0.1815535 0.516872
vt 0.2932738 0.6797196
vt 0.3224125 0.6744326
vt 0.2025694 0.5639604
vt 0.2105576 0.5887539
vt 0.2154926 0.6127875
vt 0.2681541 0.6666769
vt 0.2763962 0.71024
vt 0.3238458 0.7127063
vt 0.3454332 0.7024247
vt 0.2598601 0.6764194
vt 0.2912896 0.7181144
vt 0.3389956 0.738173
vt 0.3608508 0.7342288
vt 0.2933669 0.7396474
vt 0.3442654 0.7631257
vt 0.3684042 0.7578301
vt 0.3072474 0.7541832
vt 0.3146543 0.7732912
vt 0.2943647 0.7823094
vt 0.2755329 0.7336448
vt 0.2693357 0.7897781
vt 0.25607 0.7624389
vt 0.2459464 0.8032925
vt 0.2484219 0.7407228
vt 0.2415764 0.6981742
vt 0.2312037 0.7257835
vt 0.2313447 0.6642366
vt 0.2178698 0.6407685
vt 0.2203986 0.6686921
vt 0.1788239 0.639924
vt 0.2035951 0.6119229
vt 0.2014509 0.5885379
vt 0.1844456 0.5993204
vt 0.1866428 0.5714284
vt 0.1796064 0.5636779
vt 0.2267168 0.6984863
vt 0.1841644 0.705323
vt 0.1730449 0.6016687
vt 0.1754127 0.5497817
vt 0.1553515 0.5746851
vt 0.1632178 0.5377272
vt 0.1492074 0.5676205
vt 0.1661754 0.5124749
vt 0.1506849 0.6027707
vt 0.203674 0.7144672
vt 0.1856827 0.7473693
vt 0.1444112 0.5223634
vt 0.149839 0.5102706
vt 0.1359146 0.5063215
vt 0.1278833 0.5283605
vt 0.1402168 0.5436131
vt 0.1070861 0.5539029
vt 0.1358425 0.5569844
vt 0.1143666 0.5639166
vt 0.1041153 0.586898
vt 0.08632755 0.5797609
vt 0.08521327 0.6109263
vt 0.06785211 0.5998726
vt 0.07319058 0.6273566
vt 0.04647222 0.6296622
vt 0.1111816 0.5955971
vt 0.1276859 0.5863265
vt 0.08627722 0.6345002
vt 0.1317412 0.6104774
vt 0.09645786 0.6390436
vt 0.08053471 0.6693509
vt 0.1098736 0.6618804
vt 0.1341431 0.6315793
vt 0.0446971 0.6573575
vt 0.02914081 0.6653582
vt 0.05613867 0.6764293
vt 0.05113296 0.7147588
vt 0.02628853 0.6985414
vt 0.009808868 0.7038541
vt -0.0003493853 0.7192024
vt 0.06711282 0.6787337
vt 0.07214977 0.7044326
vt 0.1557443 0.6329641
vt 0.09627879 0.688054
vt 0.03939124 0.7615396
vt 0.01647112 0.7467216
vt -0.007821356 0.7373717
vt 0.06736102 0.7462463
vt 0.05623607 0.7736082
vt 0.09104934 0.7866967
vt 0.108116 0.7335454
vt 0.1180324 0.7005715
vt 0.09751755 0.7646178
vt 0.120417 0.7499599
vt 0.1286309 0.6569495
vt 0.140892 0.6615454
vt 0.1400392 0.7299498
vt 0.1491734 0.6881848
vt 0.1201949 0.7730788
vt 0.116596 0.8014587
vt 0.1475369 0.7649668
vt 0.1429519 0.8174689
vt 0.1773544 0.6786815
vt 0.1687637 0.7010213
vt 0.1718355 0.7721855
vt 0.1607512 0.8223611
vt 0.1823751 0.8231753
vt 0.1634193 0.749059
vt 0.1964289 0.6682509
vt 0.1899001 0.7932978
vt 0.2147457 0.8165715
vt 0.2106166 0.7589352
vt 0.2255123 0.7847688
vt 0.2371265 0.5235602
vt 0.2342586 0.5143879
vt 0.225982 0.516782
vt 0.2451057 0.5465654
vt 0.2266094 0.5474271
vt 0.2156233 0.5177032
vt 0.2343073 0.5738553
vt 0.2503086 0.5643755
vt 0.2115 0.5384865
vt 0.2026283 0.5147054
vt 0.2171525 0.5583179
vt 0.1998884 0.5416424
vt 0.1938676 0.5143726
vt 0.2410023 0.5940197
vt 0.2593777 0.5893778
vt 0.2660683 0.6321371
vt 0.2474757 0.629651
vt 0.2758076 0.6178979
vt 0.2909822 0.6404052
vt 0.3074933 0.6612945
vt 0.2313668 0.603159
vt 0.1886778 0.5506524
vt 0.1815535 0.516872
vt 0.2932738 0.6797196
vt 0.3224125 0.6744326
vt 0.2025694 0.5639604
vt 0.2105576 0.5887539
vt 0.2154926 0.6127875
vt 0.2681541 0.6666769
vt 0.2763962 0.71024
vt 0.3238458 0.7127063
vt 0.3454332 0.7024247
vt 0.2598601 0.6764194
vt 0.2912896 0.7181144
vt 0.3389956 0.738173
vt 0.3608508 0.7342288
vt 0.2933669 0.7396474
vt 0.3442654 0.7631257
vt 0.3684042 0.7578301
vt 0.3072474 0.7541832
vt 0.3146543 0.7732912
vt 0.2943647 0.7823094
vt 0.2755329 0.7336448
vt 0.2693357 0.7897781
vt 0.25607 0.7624389
vt 0.2459464 0.8032925
vt 0.2484219 0.7407228
vt 0.2415764 0.6981742
vt 0.2312037 0.7257835
vt 0.2313447 0.6642366
vt 0.2178698 0.6407685
vt 0.2203986 0.6686921
vt 0.1788239 0.639924
vt 0.2035951 0.6119229
vt 0.2014509 0.5885379
vt 0.1844456 0.5993204
vt 0.1866428 0.5714284
vt 0.1796064 0.5636779
vt 0.2267168 0.6984863
vt 0.1841644 0.705323
vt 0.1730449 0.6016687
vt 0.1754127 0.5497817
vt 0.1553515 0.5746851
vt 0.1632178 0.5377272
vt 0.1492074 0.5676205
vt 0.1661754 0.5124749
vt 0.1506849 0.6027707
vt 0.203674 0.7144672
vt 0.1856827 0.7473693
vt 0.1444112 0.5223634
vt 0.149839 0.5102706
vt 0.1359146 0.5063215
vt 0.1278833 0.5283605
vt 0.1402168 0.5436131
vt 0.1070861 0.5539029
vt 0.1358425 0.5569844
vt 0.1143666 0.5639166
vt 0.1041153 0.586898
vt 0.08632755 0.5797609
vt 0.08521327 0.6109263
vt 0.06785211 0.5998726
vt 0.07319058 0.6273566
vt 0.04647222 0.6296622
vt 0.1111816 0.5955971
vt 0.1276859 0.5863265
vt 0.08627722 0.6345002
vt 0.1317412 0.6104774
vt 0.09645786 0.6390436
vt 0.08053471 0.6693509
vt 0.1098736 0.6618804
vt 0.1341431 0.6315793
vt 0.0446971 0.6573575
vt 0.02914081 0.6653582
vt 0.05613867 0.6764293
vt 0.05113296 0.7147588
vt 0.02628853 0.6985414
vt 0.009808868 0.7038541
vt -0.0003493853 0.7192024
vt 0.06711282 0.6787337
vt 0.07214977 0.7044326
vt 0.1557443 0.6329641
vt 0.09627879 0.688054
vt 0.03939124 0.7615396
vt 0.01647112 0.7467216
vt -0.007821356 0.7373717
vt 0.06736102 0.7462463
vt 0.05623607 0.7736082
vt 0.09104934 0.7866967
vt 0.108116 0.7335454
vt 0.1180324 0.7005715
vt 0.09751755 0.7646178
vt 0.120417 0.7499599
vt 0.1286309 0.6569495
vt 0.140892 0.6615454
vt 0.1400392 0.7299498
vt 0.1491734 0.6881848
vt 0.1201949 0.7730788
vt 0.116596 0.8014587
vt 0.1475369 0.7649668
vt 0.1429519 0.8174689
vt 0.1773544 0.6786815
vt 0.1687637 0.7010213
vt 0.1718355 0.7721855
vt 0.1607512 0.8223611
vt 0.1823751 0.8231753
vt 0.1634193 0.749059
vt 0.1964289 0.6682509
vt 0.1899001 0.7932978
vt 0.2147457 0.8165715
vt 0.2106166 0.7589352
vt 0.2255123 0.7847688
usemtl TissueBoxDIF
f 143/143/143 142/142/142 141/141/141
f 146/146/146 145/145/145 144/144/144
f 149/149/149 148/148/148 147/147/147
f 148/148/148 150/150/150 147/147/147
f 151/151/151 150/150/150 148/148/148
f 152/152/152 151/151/151 148/148/148
f 151/151/151 153/153/153 150/150/150
f 150/150/150 153/153/153 154/154/154
f 155/155/155 151/151/151 152/152/152
f 156/156/156 155/155/155 152/152/152
f 155/155/155 157/157/157 151/151/151
f 157/157/157 153/153/153 151/151/151
f 158/158/158 155/155/155 156/156/156
f 158/158/158 157/157/157 155/155/155
f 159/159/159 158/158/158 156/156/156
f 154/154/154 153/153/153 160/160/160
f 161/161/161 154/154/154 160/160/160
f 160/160/160 162/162/162 161/161/161
f 160/160/160 163/163/163 162/162/162
f 162/162/162 164/164/164 161/161/161
f 162/162/162 165/165/165 164/164/164
f 162/162/162 166/166/166 165/165/165
f 167/167/167 160/160/160 153/153/153
f 157/157/157 167/167/167 153/153/153
f 167/167/167 163/163/163 160/160/160
f 159/159/159 168/168/168 158/158/158
f 169/169/169 168/168/168 159/159/159
f 162/162/162 170/170/170 166/166/166
f 170/170/170 171/171/171 166/166/166
f 158/158/158 172/172/172 157/157/157
f 158/158/158 168/168/168 172/172/172
f 173/173/173 167/167/167 157/157/157
f 172/172/172 173/173/173 157/157/157
f 174/174/174 163/163/163 167/167/167
f 173/173/173 174/174/174 167/167/167
f 175/175/175 170/170/170 162/162/162
f 163/163/163 175/175/175 162/162/162
f 175/175/175 176/176/176 170/170/170
f 170/170/170 177/177/177 171/171/171
f 177/177/177 178/178/178 171/171/171
f 163/163/163 179/179/179 175/175/175
f 179/179/179 176/176/176 175/175/175
f 170/170/170 180/180/180 177/177/177
f 176/176/176 180/180/180 170/170/170
f 177/177/177 181/181/181 178/178/178
f 181/181/181 182/182/182 178/178/178
f 180/180/180 183/183/183 177/177/177
f 176/176/176 183/183/183 180/180/180
f 183/183/183 181/181/181 177/177/177
f 181/181/181 184/184/184 182/182/182
f 184/184/184 185/185/185 182/182/182
f 184/184/184 181/181/181 186/186/186
f 183/183/183 186/186/186 181/181/181
f 187/187/187 184/184/184 186/186/186
f 186/186/186 188/188/188 187/187/187
f 183/183/183 188/188/188 186/186/186
f 188/188/188 183/183/183 189/189/189
f 176/176/176 189/189/189 183/183/183
f 190/190/190 188/188/188 189/189/189
f 189/189/189 191/191/191 190/190/190
f 191/191/191 192/192/192 190/190/190
f 189/189/189 193/193/193 191/191/191
f 193/193/193 189/189/189 176/176/176
f 193/193/193 192/192/192 191/191/191
f 194/194/194 193/193/193 176/176/176
f 194/194/194 176/176/176 179/179/179
f 195/195/195 192/192/192 193/193/193
f 195/195/195 193/193/193 194/194/194
f 196/196/196 194/194/194 179/179/179
f 196/196/196 179/179/179 163/163/163
f 197/197/197 196/196/196 163/163/163
f 174/174/174 197/197/197 163/163/163
f 198/198/198 194/194/194 196/196/196
f 198/198/198 196/196/196 197/197/197
f 199/199/199 198/198/198 197/197/197
f 200/200/200 197/197/197 174/174/174
f 197/197/197 200/200/200 199/199/199
f 200/200/200 174/174/174 173/173/173
f 201/201/201 200/200/200 173/173/173
f 201/201/201 173/173/173 172/172/172
f 202/202/202 200/200/200 201/201/201
f 200/200/200 202/202/202 199/199/199
f 203/203/203 201/201/201 172/172/172
f 203/203/203 202/202/202 201/201/201
f 203/203/203 172/172/172 168/168/168
f 204/204/204 202/202/202 203/203/203
f 168/168/168 204/204/204 203/203/203
f 205/205/205 194/194/194 198/198/198
f 206/206/206 205/205/205 198/198/198
f 205/205/205 195/195/195 194/194/194
f 207/207/207 199/199/199 202/202/202
f 204/204/204 207/207/207 202/202/202
f 208/208/208 204/204/204 168/168/168
f 169/169/169 208/208/208 168/168/168
f 209/209/209 204/204/204 208/208/208
f 204/204/204 209/209/209 207/207/207
f 210/210/210 208/208/208 169/169/169
f 210/210/210 209/209/209 208/208/208
f 210/210/210 211/211/211 209/209/209
f 212/212/212 210/210/210 169/169/169
f 212/212/212 211/211/211 210/210/210
f 209/209/209 213/213/213 207/207/207
f 213/213/213 209/209/209 211/211/211
f 206/206/206 214/214/214 205/205/205
f 214/214/214 195/195/195 205/205/205
f 214/214/214 215/215/215 195/195/195
f 215/215/215 214/214/214 206/206/206
f 212/212/212 216/216/216 211/211/211
f 212/212/212 217/217/217 216/216/216
f 218/218/218 216/216/216 217/217/217
f 219/219/219 216/216/216 218/218/218
f 216/216/216 219/219/219 220/220/220
f 219/219/219 221/221/221 220/220/220
f 216/216/216 222/222/222 211/211/211
f 220/220/220 221/221/221 223/223/223
f 220/220/220 223/223/223 222/222/222
f 223/223/223 221/221/221 224/224/224
f 222/222/222 223/223/223 224/224/224
f 224/224/224 221/221/221 225/225/225
f 224/224/224 225/225/225 226/226/226
f 225/225/225 227/227/227 226/226/226
f 226/226/226 227/227/227 228/228/228
f 227/227/227 229/229/229 228/228/228
f 222/222/222 224/224/224 230/230/230
f 224/224/224 226/226/226 230/230/230
f 222/222/222 231/231/231 211/211/211
f 222/222/222 230/230/230 231/231/231
f 230/230/230 226/226/226 232/232/232
f 226/226/226 228/228/228 232/232/232
f 211/211/211 231/231/231 233/233/233
f 233/233/233 213/213/213 211/211/211
f 231/231/231 230/230/230 234/234/234
f 230/230/230 232/232/232 234/234/234
f 231/231/231 234/234/234 233/233/233
f 234/234/234 232/232/232 235/235/235
f 232/232/232 228/228/228 235/235/235
f 233/233/233 234/234/234 236/236/236
f 234/234/234 235/235/235 236/236/236
f 213/213/213 233/233/233 237/237/237
f 233/233/233 236/236/236 237/237/237
f 228/228/228 229/229/229 238/238/238
f 229/229/229 239/239/239 238/238/238
f 228/228/228 238/238/238 240/240/240
f 238/238/238 239/239/239 240/240/240
f 239/239/239 241/241/241 240/240/240
f 239/239/239 242/242/242 241/241/241
f 239/239/239 243/243/243 242/242/242
f 242/242/242 243/243/243 241/241/241
f 241/241/241 243/243/243 244/244/244
f 240/240/240 245/245/245 228/228/228
f 235/235/235 228/228/228 245/245/245
f 240/240/240 241/241/241 245/245/245
f 245/245/245 246/246/246 235/235/235
f 245/245/245 241/241/241 246/246/246
f 213/213/213 237/237/237 247/247/247
f 213/213/213 247/247/247 207/207/207
f 207/207/207 247/247/247 199/199/199
f 235/235/235 246/246/246 248/248/248
f 236/236/236 235/235/235 248/248/248
f 249/249/249 241/241/241 244/244/244
f 244/244/244 250/250/250 249/249/249
f 251/251/251 250/250/250 244/244/244
f 241/241/241 249/249/249 252/252/252
f 241/241/241 252/252/252 246/246/246
f 249/249/249 253/253/253 252/252/252
f 253/253/253 254/254/254 252/252/252
f 248/248/248 246/246/246 255/255/255
f 246/246/246 252/252/252 255/255/255
f 236/236/236 248/248/248 256/256/256
f 248/248/248 255/255/255 256/256/256
f 252/252/252 254/254/254 257/257/257
f 252/252/252 257/257/257 255/255/255
f 257/257/257 254/254/254 258/258/258
f 257/257/257 258/258/258 255/255/255
f 236/236/236 256/256/256 259/259/259
f 237/237/237 236/236/236 259/259/259
f 237/237/237 259/259/259 260/260/260
f 259/259/259 256/256/256 260/260/260
f 247/247/247 237/237/237 260/260/260
f 256/256/256 255/255/255 261/261/261
f 255/255/255 258/258/258 261/261/261
f 256/256/256 262/262/262 260/260/260
f 260/260/260 262/262/262 247/247/247
f 256/256/256 261/261/261 262/262/262
f 258/258/258 254/254/254 263/263/263
f 254/254/254 264/264/264 263/263/263
f 258/258/258 263/263/263 265/265/265
f 263/263/263 264/264/264 265/265/265
f 258/258/258 265/265/265 261/261/261
f 264/264/264 266/266/266 265/265/265
f 262/262/262 267/267/267 247/247/247
f 199/199/199 247/247/247 267/267/267
f 262/262/262 261/261/261 268/268/268
f 262/262/262 268/268/268 267/267/267
f 265/265/265 266/266/266 269/269/269
f 266/266/266 270/270/270 269/269/269
f 269/269/269 270/270/270 271/271/271
f 265/265/265 272/272/272 261/261/261
f 261/261/261 272/272/272 268/268/268
f 272/272/272 265/265/265 269/269/269
f 199/199/199 267/267/267 273/273/273
f 273/273/273 198/198/198 199/199/199
f 273/273/273 206/206/206 198/198/198
f 267/267/267 206/206/206 273/273/273
f 268/268/268 206/206/206 267/267/267
f 268/268/268 272/272/272 206/206/206
f 272/272/272 215/215/215 206/206/206
f 272/272/272 269/269/269 215/215/215
f 274/274/274 269/269/269 271/271/271
f 215/215/215 269/269/269 274/274/274
f 274/274/274 271/271/271 275/275/275
f 215/215/215 274/274/274 276/276/276
f 195/195/195 215/215/215 276/276/276
f 192/192/192 195/195/195 276/276/276
f 277/277/277 274/274/274 275/275/275
f 276/276/276 274/274/274 277/277/277
f 277/277/277 192/192/192 276/276/276
f 277/277/277 275/275/275 192/192/192
f 280/280/280 279/279/279 278/278/278
f 281/281/281 280/280/280 278/278/278
f 281/281/281 282/282/282 280/280/280
f 282/282/282 283/283/283 280/280/280
f 284/284/284 282/282/282 281/281/281
f 284/284/284 281/281/281 285/285/285
f 282/282/282 286/286/286 283/283/283
f 286/286/286 287/287/287 283/283/283
f 288/288/288 286/286/286 282/282/282
f 284/284/284 288/288/288 282/282/282
f 286/286/286 289/289/289 287/287/287
f 288/288/288 289/289/289 286/286/286
f 289/289/289 290/290/290 287/287/287
f 284/284/284 285/285/285 291/291/291
f 285/285/285 292/292/292 291/291/291
f 293/293/293 291/291/291 292/292/292
f 294/294/294 291/291/291 293/293/293
f 295/295/295 293/293/293 292/292/292
f 296/296/296 293/293/293 295/295/295
f 297/297/297 293/293/293 296/296/296
f 291/291/291 298/298/298 284/284/284
f 298/298/298 288/288/288 284/284/284
f 294/294/294 298/298/298 291/291/291
f 299/299/299 290/290/290 289/289/289
f 299/299/299 300/300/300 290/290/290
f 301/301/301 293/293/293 297/297/297
f 302/302/302 301/301/301 297/297/297
f 303/303/303 289/289/289 288/288/288
f 299/299/299 289/289/289 303/303/303
f 298/298/298 304/304/304 288/288/288
f 304/304/304 303/303/303 288/288/288
f 294/294/294 305/305/305 298/298/298
f 305/305/305 304/304/304 298/298/298
f 301/301/301 306/306/306 293/293/293
f 306/306/306 294/294/294 293/293/293
f 307/307/307 306/306/306 301/301/301
f 308/308/308 301/301/301 302/302/302
f 309/309/309 308/308/308 302/302/302
f 310/310/310 294/294/294 306/306/306
f 307/307/307 310/310/310 306/306/306
f 311/311/311 301/301/301 308/308/308
f 311/311/311 307/307/307 301/301/301
f 312/312/312 308/308/308 309/309/309
f 313/313/313 312/312/312 309/309/309
f 314/314/314 311/311/311 308/308/308
f 314/314/314 307/307/307 311/311/311
f 312/312/312 314/314/314 308/308/308
f 315/315/315 312/312/312 313/313/313
f 316/316/316 315/315/315 313/313/313
f 312/312/312 315/315/315 317/317/317
f 317/317/317 314/314/314 312/312/312
f 315/315/315 318/318/318 317/317/317
f 319/319/319 317/317/317 318/318/318
f 319/319/319 314/314/314 317/317/317
f 314/314/314 319/319/319 320/320/320
f 320/320/320 307/307/307 314/314/314
f 319/319/319 321/321/321 320/320/320
f 322/322/322 320/320/320 321/321/321
f 323/323/323 322/322/322 321/321/321
f 324/324/324 320/320/320 322/322/322
f 320/320/320 324/324/324 307/307/307
f 323/323/323 324/324/324 322/322/322
f 324/324/324 325/325/325 307/307/307
f 307/307/307 325/325/325 310/310/310
f 323/323/323 326/326/326 324/324/324
f 324/324/324 326/326/326 325/325/325
f 325/325/325 327/327/327 310/310/310
f 310/310/310 327/327/327 294/294/294
f 327/327/327 328/328/328 294/294/294
f 328/328/328 305/305/305 294/294/294
f 325/325/325 329/329/329 327/327/327
f 327/327/327 329/329/329 328/328/328
f 329/329/329 330/330/330 328/328/328
f 328/328/328 331/331/331 305/305/305
f 331/331/331 328/328/328 330/330/330
f 305/305/305 331/331/331 304/304/304
f 331/331/331 332/332/332 304/304/304
f 304/304/304 332/332/332 303/303/303
f 331/331/331 333/333/333 332/332/332
f 333/333/333 331/331/331 330/330/330
f 332/332/332 334/334/334 303/303/303
f 333/333/333 334/334/334 332/332/332
f 303/303/303 334/334/334 299/299/299
f 333/333/333 335/335/335 334/334/334
f 335/335/335 299/299/299 334/334/334
f 325/325/325 336/336/336 329/329/329
f 336/336/336 337/337/337 329/329/329
f 326/326/326 336/336/336 325/325/325
f 330/330/330 338/338/338 333/333/333
f 338/338/338 335/335/335 333/333/333
f 335/335/335 339/339/339 299/299/299
f 339/339/339 300/300/300 299/299/299
f 335/335/335 340/340/340 339/339/339
f 340/340/340 335/335/335 338/338/338
f 339/339/339 341/341/341 300/300/300
f 340/340/340 341/341/341 339/339/339
f 342/342/342 341/341/341 340/340/340
f 341/341/341 343/343/343 300/300/300
f 342/342/342 343/343/343 341/341/341
f 344/344/344 340/340/340 338/338/338
f 340/340/340 344/344/344 342/342/342
f 345/345/345 337/337/337 336/336/336
f 326/326/326 345/345/345 336/336/336
f 346/346/346 345/345/345 326/326/326
f 345/345/345 346/346/346 337/337/337
f 347/347/347 343/343/343 342/342/342
f 348/348/348 343/343/343 347/347/347
f 347/347/347 349/349/349 348/348/348
f 347/347/347 350/350/350 349/349/349
f 350/350/350 347/347/347 351/351/351
f 352/352/352 350/350/350 351/351/351
f 353/353/353 347/347/347 342/342/342
f 352/352/352 351/351/351 354/354/354
f 354/354/354 351/351/351 353/353/353
f 352/352/352 354/354/354 355/355/355
f 354/354/354 353/353/353 355/355/355
f 352/352/352 355/355/355 356/356/356
f 356/356/356 355/355/355 357/357/357
f 358/358/358 356/356/356 357/357/357
f 358/358/358 357/357/357 359/359/359
f 360/360/360 358/358/358 359/359/359
f 355/355/355 353/353/353 361/361/361
f 357/357/357 355/355/355 361/361/361
f 362/362/362 353/353/353 342/342/342
f 361/361/361 353/353/353 362/362/362
f 357/357/357 361/361/361 363/363/363
f 359/359/359 357/357/357 363/363/363
f 362/362/362 342/342/342 364/364/364
f 344/344/344 364/364/364 342/342/342
f 361/361/361 362/362/362 365/365/365
f 363/363/363 361/361/361 365/365/365
f 365/365/365 362/362/362 364/364/364
f 363/363/363 365/365/365 366/366/366
f 359/359/359 363/363/363 366/366/366
f 365/365/365 364/364/364 367/367/367
f 366/366/366 365/365/365 367/367/367
f 364/364/364 344/344/344 368/368/368
f 367/367/367 364/364/364 368/368/368
f 360/360/360 359/359/359 369/369/369
f 370/370/370 360/360/360 369/369/369
f 369/369/369 359/359/359 371/371/371
f 370/370/370 369/369/369 371/371/371
f 372/372/372 370/370/370 371/371/371
f 373/373/373 370/370/370 372/372/372
f 374/374/374 370/370/370 373/373/373
f 374/374/374 373/373/373 372/372/372
f 374/374/374 372/372/372 375/375/375
f 376/376/376 371/371/371 359/359/359
f 359/359/359 366/366/366 376/376/376
f 372/372/372 371/371/371 376/376/376
f 377/377/377 376/376/376 366/366/366
f 372/372/372 376/376/376 377/377/377
f 368/368/368 344/344/344 378/378/378
f 378/378/378 344/344/344 338/338/338
f 378/378/378 338/338/338 330/330/330
f 377/377/377 366/366/366 379/379/379
f 366/366/366 367/367/367 379/379/379
f 372/372/372 380/380/380 375/375/375
f 381/381/381 375/375/375 380/380/380
f 381/381/381 382/382/382 375/375/375
f 380/380/380 372/372/372 383/383/383
f 383/383/383 372/372/372 377/377/377
f 384/384/384 380/380/380 383/383/383
f 385/385/385 384/384/384 383/383/383
f 377/377/377 379/379/379 386/386/386
f 383/383/383 377/377/377 386/386/386
f 379/379/379 367/367/367 387/387/387
f 386/386/386 379/379/379 387/387/387
f 385/385/385 383/383/383 388/388/388
f 388/388/388 383/383/383 386/386/386
f 385/385/385 388/388/388 389/389/389
f 389/389/389 388/388/388 386/386/386
f 387/387/387 367/367/367 390/390/390
f 367/367/367 368/368/368 390/390/390
f 390/390/390 368/368/368 391/391/391
f 387/387/387 390/390/390 391/391/391
f 368/368/368 378/378/378 391/391/391
f 386/386/386 387/387/387 392/392/392
f 389/389/389 386/386/386 392/392/392
f 393/393/393 387/387/387 391/391/391
f 393/393/393 391/391/391 378/378/378
f 392/392/392 387/387/387 393/393/393
f 385/385/385 389/389/389 394/394/394
f 395/395/395 385/385/385 394/394/394
f 394/394/394 389/389/389 396/396/396
f 395/395/395 394/394/394 396/396/396
f 396/396/396 389/389/389 392/392/392
f 397/397/397 395/395/395 396/396/396
f 398/398/398 393/393/393 378/378/378
f 378/378/378 330/330/330 398/398/398
f 392/392/392 393/393/393 399/399/399
f 399/399/399 393/393/393 398/398/398
f 397/397/397 396/396/396 400/400/400
f 401/401/401 397/397/397 400/400/400
f 401/401/401 400/400/400 402/402/402
f 403/403/403 396/396/396 392/392/392
f 403/403/403 392/392/392 399/399/399
f 396/396/396 403/403/403 400/400/400
f 398/398/398 330/330/330 404/404/404
f 329/329/329 404/404/404 330/330/330
f 337/337/337 404/404/404 329/329/329
f 337/337/337 398/398/398 404/404/404
f 337/337/337 399/399/399 398/398/398
f 403/403/403 399/399/399 337/337/337
f 346/346/346 403/403/403 337/337/337
f 400/400/400 403/403/403 346/346/346
f 400/400/400 405/405/405 402/402/402
f 400/400/400 346/346/346 405/405/405
f 402/402/402 405/405/405 406/406/406
f 405/405/405 346/346/346 407/407/407
f 346/346/346 326/326/326 407/407/407
f 326/326/326 323/323/323 407/407/407
f 405/405/405 408/408/408 406/406/406
f 405/405/405 407/407/407 408/408/408
f 323/323/323 408/408/408 407/407/407
f 406/406/406 408/408/408 323/323/323
