mtllib Pen_2.mtl
g Cylinder.231
v -0.08502811 -0.003736097 0.001602249
v -0.09996216 -0.001069842 6.288147E-05
v -0.09996216 -0.0006176806 0.0005150452
v -0.08502811 -0.002157033 0.00318132
v -0.09996216 -1.811981E-08 0.0006805573
v -0.08447114 -0.003858621 0.001672989
v -0.08502811 2.861023E-09 0.003759293
v -0.09996216 0.0006176463 0.0005150452
v -0.08502811 0.002157043 0.00318132
v -0.08447114 -0.002227773 0.003303848
v -0.08447114 4.768372E-09 0.003900772
v -0.08447114 0.002227782 0.003303848
v 0.07375062 0.002227784 0.003303848
v 0.07375067 4.768372E-09 0.003900772
v 0.07430866 0.002227784 0.003303848
v 0.07375067 -0.002227773 0.003303848
v 0.07375067 -0.003858619 0.001672989
v 0.07430871 4.768372E-09 0.003900772
v 0.07430871 -0.002227773 0.003303848
v 0.07430871 -0.003858619 0.001672989
v 0.07440457 -0.003799016 0.001638596
v 0.07440457 -0.00219336 0.003244248
v 0.07450043 -0.003858617 0.001672989
v 0.07440457 6.67572E-09 0.003831955
v 0.07440452 0.002193374 0.003244248
v 0.07450043 -0.002227773 0.003303848
v 0.0745936 -0.003858617 0.001672989
v 0.07450043 6.67572E-09 0.003900772
v 0.07450037 0.002227784 0.003303848
v 0.0745936 -0.002227773 0.003303848
v 0.07609802 -0.003858613 0.001672989
v 0.07609802 -0.002227769 0.003303848
v 0.07622671 -0.003858613 0.001672989
v 0.07622671 -0.002227767 0.003303848
v -0.08502811 -0.002157033 -0.004290878
v -0.09996216 -0.0006176806 -0.001624603
v -0.09996216 -0.001069842 -0.00117244
v -0.08502811 -0.003736093 -0.002711823
v -0.09996215 -0.001235345 -0.0005547791
v -0.08447114 -0.002227773 -0.004413406
v -0.08502807 -0.004314069 -0.0005547791
v -0.09996216 -0.001069842 6.288147E-05
v -0.08502811 -0.003736097 0.001602249
v -0.08447114 -0.003858619 -0.002782562
v -0.08447109 -0.004455551 -0.0005547791
v -0.08447114 -0.003858621 0.001672989
v 0.07375067 -0.003858619 0.001672989
v 0.07375067 -0.004455551 -0.0005547791
v 0.07430871 -0.003858619 0.001672989
v 0.07375067 -0.003858619 -0.002782562
v 0.07375067 -0.002227771 -0.004413406
v 0.07430871 -0.004455551 -0.0005547791
v 0.07430871 -0.003858619 -0.002782562
v 0.07430871 -0.002227771 -0.004413406
v 0.07440457 -0.002193358 -0.004353806
v 0.07440457 -0.003799016 -0.002748154
v 0.07450043 -0.002227769 -0.004413406
v 0.07440457 -0.004386728 -0.0005547791
v 0.07440457 -0.003799016 0.001638596
v 0.07450043 -0.003858617 -0.002782562
v 0.0745936 -0.002227769 -0.004413406
v 0.07450043 -0.004455549 -0.0005547791
v 0.07450043 -0.003858617 0.001672989
v 0.0745936 -0.003858617 -0.002782562
v 0.07609802 -0.002227765 -0.004413406
v 0.0745936 -0.004455549 -0.0005547791
v 0.0745936 -0.003858617 0.001672989
v 0.07609802 -0.003858613 -0.002782562
v 0.07622671 -0.002227765 -0.004413406
v 0.07622671 -0.003858613 -0.002782562
v 0.07609802 -0.004455545 -0.0005547791
v 0.07609802 -0.003858613 0.001672989
v 0.07622671 -0.004455545 -0.0005547791
v 0.07622671 -0.003858613 0.001672989
v -0.08502811 0.003736106 -0.002711807
v -0.09996216 0.001069808 -0.00117244
v -0.09996216 0.0006176463 -0.001624603
v -0.08502811 0.002157045 -0.004290878
v -0.09996216 -1.811981E-08 -0.0017901
v -0.08447114 0.003858634 -0.002782562
v -0.08502811 6.67572E-09 -0.004868851
v -0.09996216 -0.0006176806 -0.001624603
v -0.08502811 -0.002157033 -0.004290878
v -0.08447114 0.002227786 -0.004413406
v -0.08447114 6.67572E-09 -0.005010331
v -0.08447114 -0.002227773 -0.004413406
v 0.07375067 -0.002227771 -0.004413406
v 0.07375062 8.583069E-09 -0.005010331
v 0.07430871 -0.002227771 -0.004413406
v 0.07375062 0.002227786 -0.004413406
v 0.07375062 0.003858634 -0.002782562
v 0.07430866 8.583069E-09 -0.005010331
v 0.07430866 0.002227786 -0.004413406
v 0.07430866 0.003858634 -0.002782562
v 0.07440452 0.003799031 -0.002748154
v 0.07440452 0.002193376 -0.004353806
v 0.07450037 0.003858634 -0.002782562
v 0.07440452 8.583069E-09 -0.004941513
v 0.07440457 -0.002193358 -0.004353806
v 0.07450037 0.002227788 -0.004413406
v 0.07459354 0.003858634 -0.002782562
v 0.07450037 8.583069E-09 -0.005010331
v 0.07450043 -0.002227769 -0.004413406
v 0.07459354 0.002227788 -0.004413406
v 0.07609797 0.003858638 -0.002782562
v 0.07459354 8.583069E-09 -0.005010331
v 0.0745936 -0.002227769 -0.004413406
v 0.07609797 0.002227792 -0.004413406
v 0.07622666 0.00385864 -0.002782562
v 0.07622666 0.002227792 -0.004413406
v 0.07609797 1.430512E-08 -0.005010331
v 0.07609802 -0.002227765 -0.004413406
v 0.07622666 1.430512E-08 -0.005010331
v 0.07622671 -0.002227765 -0.004413406
v -0.08502811 0.002157043 0.00318132
v -0.09996216 0.0006176463 0.0005150452
v -0.09996216 0.001069806 6.288147E-05
v -0.08502811 0.003736104 0.001602264
v -0.09996216 0.001235311 -0.0005547791
v -0.08447114 0.002227782 0.003303848
v -0.08502811 0.004314082 -0.0005547791
v -0.09996216 0.001069808 -0.00117244
v -0.08502811 0.003736106 -0.002711807
v -0.08447114 0.00385863 0.001673004
v -0.08447114 0.004455565 -0.0005547791
v -0.08447114 0.003858634 -0.002782562
v 0.07375062 0.003858634 -0.002782562
v 0.07375062 0.004455565 -0.0005547791
v 0.07430866 0.003858634 -0.002782562
v 0.07375062 0.00385863 0.001673004
v 0.07375062 0.002227784 0.003303848
v 0.07430866 0.004455565 -0.0005547791
v 0.07430866 0.00385863 0.001673004
v 0.07430866 0.002227784 0.003303848
v 0.07440452 0.002193374 0.003244248
v 0.07440452 0.00379903 0.001638596
v 0.07450037 0.002227784 0.003303848
v 0.07440452 0.004386743 -0.0005547791
v 0.07440452 0.003799031 -0.002748154
v 0.07450037 0.003858632 0.001673004
v 0.07450037 0.004455565 -0.0005547791
v 0.07450037 0.003858634 -0.002782562
v 0.07459354 0.002227786 0.003303848
v 0.07450037 0.002227784 0.004721909
v 0.07459354 0.004455565 -0.0005547791
v 0.07459354 0.003858634 -0.002782562
v 0.07459354 0.003858632 0.001673004
v 0.07609797 0.00445557 -0.0005547791
v 0.07609797 0.003858638 -0.002782562
v 0.07609797 0.003858636 0.001673004
v 0.07622666 0.00445557 -0.0005547791
v 0.07622666 0.00385864 -0.002782562
v 0.07622666 0.003858636 0.001673004
v 0.07622666 0.00222779 0.003303848
v 0.07609797 0.00222779 0.003303848
v 0.07459354 0.002227784 0.004688309
v 0.07609797 0.002227788 0.004145615
v 0.07622666 0.00222779 0.004099198
v 0.07609797 0.002227786 0.004731141
v 0.07622666 0.002227786 0.004671311
v 0.07459354 0.002227782 0.005430481
v 0.07450037 0.002227782 0.005473786
v 0.03063034 0.002227515 0.004721909
v 0.03063153 0.002227548 0.005639542
v 0.02975661 0.002227511 0.004721909
v 0.02975783 0.002227544 0.005642838
v -0.09996216 -1.811981E-08 -0.001233383
v -0.1014086 -0.0003393278 -0.001142471
v -0.09996216 -0.0003393221 -0.001142471
v -0.1014086 -2.384186E-08 -0.001233383
v -0.1017756 -0.0002230063 -0.0009409943
v -0.09996216 0.0003392859 -0.001142471
v -0.1017756 -2.193451E-08 -0.001000748
v -0.1014086 0.0003392801 -0.001142471
v -0.09996216 0.0005876741 -0.0008940888
v -0.1017756 0.0002229624 -0.0009409943
v -0.1014086 0.0005876684 -0.0008940888
v -0.1017756 0.0003861971 -0.0007777557
v -0.09996216 0.0006785899 -0.0005547791
v -0.1014086 0.0005876684 -0.0008940888
v -0.09996216 0.0005876741 -0.0008940888
v -0.1014086 0.000678586 -0.0005547791
v -0.1017756 0.0003861971 -0.0007777557
v -0.09996216 0.0005876723 -0.0002154694
v -0.1017756 0.0004459467 -0.0005547791
v -0.1014086 0.0005876684 -0.0002154694
v -0.09996216 0.0003392859 3.291321E-05
v -0.1017756 0.0003861971 -0.0003318024
v -0.1014086 0.0003392801 3.291321E-05
v -0.1017756 0.0002229624 -0.0001685639
v -0.09996216 -2.002716E-08 0.0001238251
v -0.1014086 0.0003392801 3.291321E-05
v -0.09996216 0.0003392859 3.291321E-05
v -0.1014086 -2.384186E-08 0.0001238251
v -0.1017756 0.0002229624 -0.0001685639
v -0.09996216 -0.0003393221 3.291321E-05
v -0.1017756 -2.193451E-08 -0.0001088104
v -0.1014086 -0.0003393278 3.291321E-05
v -0.09996216 -0.0005877104 -0.0002154694
v -0.1017756 -0.0002230063 -0.0001685639
v -0.1014086 -0.0005877161 -0.0002154694
v -0.1017756 -0.0003862429 -0.0003318024
v -0.09996215 -0.000678628 -0.0005547791
v -0.1014086 -0.0005877161 -0.0002154694
v -0.09996216 -0.0005877104 -0.0002154694
v -0.1014086 -0.0006786318 -0.0005547791
v -0.1017756 -0.0003862429 -0.0003318024
v -0.09996216 -0.0005877104 -0.0008940888
v -0.1017756 -0.0004459906 -0.0005547791
v -0.1014086 -0.0005877142 -0.0008940888
v -0.09996216 -0.0003393221 -0.001142471
v -0.1017756 -0.0003862429 -0.0007777557
v -0.1014086 -0.0003393278 -0.001142471
v -0.1017756 -0.0002230063 -0.0009409943
v -0.1017756 -0.0003862429 -0.0003318024
v -0.1017756 -0.0004459906 -0.0005547791
v -0.1017756 -0.0003862429 -0.0007777557
v -0.1017756 -0.0002230063 -0.0001685639
v -0.1017756 -0.0002230063 -0.0009409943
v -0.1017756 -2.193451E-08 -0.0001088104
v -0.1017756 -2.193451E-08 -0.001000748
v -0.1017756 0.0002229624 -0.0001685639
v -0.1017756 0.0002229624 -0.0009409943
v -0.1017756 0.0003861971 -0.0003318024
v -0.1017756 0.0003861971 -0.0007777557
v -0.1017756 0.0004459467 -0.0005547791
v 0.07611555 -0.001051477 0.001266464
v 0.07628629 -0.001716645 0.0004363251
v 0.07611555 -0.001821221 0.0004967194
v 0.07628629 -0.0009911013 0.001161881
v 0.07611555 1.430512E-08 0.001548203
v 0.07668417 -0.001714232 0.0004349365
v 0.07628629 1.430512E-08 0.001427445
v 0.07611553 0.001051505 0.001266464
v 0.07628627 0.0009911299 0.001161881
v 0.07668417 -0.0009897051 0.00115947
v 0.08898755 -0.001640758 0.0003925324
v 0.08898755 -0.0009472628 0.001086029
v 0.07668417 1.621246E-08 0.001424667
v 0.07668415 0.0009897376 0.00115947
v 0.08898755 6.961823E-08 0.001339859
v 0.08898754 0.000947402 0.001086029
v 0.07611555 -0.001821221 -0.001606278
v 0.07628629 -0.0009910994 -0.002271439
v 0.07611555 -0.001051477 -0.002376023
v 0.07628629 -0.001716645 -0.001545898
v 0.07611555 -0.002102967 -0.0005547791
v 0.07668417 -0.0009897051 -0.002269028
v 0.07628629 -0.001982215 -0.0005547791
v 0.07611555 -0.001821221 0.0004967194
v 0.07628629 -0.001716645 0.0004363251
v 0.07668417 -0.001714232 -0.00154451
v 0.08898755 -0.0009472609 -0.002195633
v 0.08898755 -0.001640758 -0.001502136
v 0.07668417 -0.001979426 -0.0005547791
v 0.07668417 -0.001714232 0.0004349365
v 0.08898755 -0.001894595 -0.0005547943
v 0.08898755 -0.001640758 0.0003925324
v 0.07611553 0.001051507 -0.002376023
v 0.07628627 0.001716678 -0.001545898
v 0.07611553 0.001821252 -0.001606278
v 0.07628627 0.0009911299 -0.002271439
v 0.07611553 1.621246E-08 -0.002657761
v 0.07668415 0.001714267 -0.00154451
v 0.07628627 1.621246E-08 -0.002537003
v 0.07611555 -0.001051477 -0.002376023
v 0.07628629 -0.0009910994 -0.002271439
v 0.07668415 0.0009897394 -0.002269028
v 0.08898754 0.001640899 -0.001502136
v 0.08898754 0.000947404 -0.002195633
v 0.07668415 1.811981E-08 -0.002534226
v 0.07668417 -0.0009897051 -0.002269028
v 0.08898754 7.152558E-08 -0.002449463
v 0.08898755 -0.0009472609 -0.002195633
v 0.07611553 0.001821252 0.0004967194
v 0.07628627 0.0009911299 0.001161881
v 0.07611553 0.001051505 0.001266464
v 0.07628627 0.001716676 0.0004363403
v 0.07611553 0.002103 -0.0005547791
v 0.07668415 0.0009897376 0.00115947
v 0.07628627 0.001982246 -0.0005547791
v 0.07611553 0.001821252 -0.001606278
v 0.07628627 0.001716678 -0.001545898
v 0.07668415 0.001714265 0.0004349365
v 0.08898754 0.000947402 0.001086029
v 0.08898754 0.001640899 0.0003925324
v 0.07668415 0.001979461 -0.0005547791
v 0.07668415 0.001714267 -0.00154451
v 0.08898754 0.001894736 -0.0005547943
v 0.08898754 0.001640899 -0.001502136
v 0.08898755 -0.001640758 -0.001502136
v 0.08898755 -0.001894595 -0.0005547943
v 0.08898755 -0.001640758 0.0003925324
v 0.08898755 -0.0009472609 -0.002195633
v 0.08898755 -0.0009472628 0.001086029
v 0.08898755 6.961823E-08 0.001339859
v 0.08898754 7.152558E-08 -0.002449463
v 0.08898754 0.000947402 0.001086029
v 0.08898754 0.000947404 -0.002195633
v 0.08898754 0.001640899 0.0003925324
v 0.08898754 0.001640899 -0.001502136
v 0.08898754 0.001894736 -0.0005547943
v 0.07609797 0.002227786 0.004731141
v 0.07622666 0.002227786 0.004671311
v 0.07622671 8.583069E-09 0.00526825
v 0.07609802 8.583069E-09 0.005328064
v 0.07622671 -0.002227771 0.004671311
v 0.07459354 0.002227782 0.005430481
v 0.07609802 -0.002227771 0.004731141
v 0.0745936 2.861023E-09 0.006027405
v 0.07450037 0.002227782 0.005473786
v 0.0745936 -0.002227775 0.005430466
v 0.07450043 2.861023E-09 0.006070709
v 0.03063153 0.002227548 0.005639542
v 0.07450043 -0.002227775 0.005473786
v 0.03063137 -3.347397E-07 0.006236069
v 0.02975783 0.002227544 0.005642838
v 0.0306282 -0.002228007 0.005638764
v 0.02975767 -3.404618E-07 0.006239365
v 0.02975443 -0.002228013 0.005642044
v 0.07622671 -0.002227769 0.004099198
v 0.07622671 -0.002227771 0.004671311
v 0.07622671 8.583069E-09 0.00526825
v 0.07622671 1.049042E-08 0.004696121
v 0.07622666 0.002227786 0.004671311
v 0.07622666 0.00222779 0.004099198
v 0.07622671 -0.002227767 0.003303848
v 0.07622671 1.049042E-08 0.003900772
v 0.07622666 0.00222779 0.003303848
v 0.07648081 -0.001905639 0.002745911
v 0.07648081 1.430512E-08 0.003256516
v 0.07648081 -0.003300672 0.001350876
v 0.07622671 -0.003858613 0.001672989
v 0.07648076 0.001905666 0.002745911
v 0.07622666 0.003858636 0.001673004
v 0.07648081 -0.00381129 -0.0005547791
v 0.07622671 -0.004455545 -0.0005547791
v 0.07648076 0.0033007 0.001350876
v 0.07622666 0.00445557 -0.0005547791
v 0.07648081 -0.003300672 -0.002460434
v 0.07622671 -0.003858613 -0.002782562
v 0.07648076 0.003811321 -0.0005547791
v 0.07622666 0.00385864 -0.002782562
v 0.07648081 -0.001905637 -0.003855469
v 0.07622671 -0.002227765 -0.004413406
v 0.07648076 0.003300702 -0.002460434
v 0.07622666 0.002227792 -0.004413406
v 0.07648076 1.621246E-08 -0.004366089
v 0.07622666 1.430512E-08 -0.005010331
v 0.07648076 0.001905669 -0.003855469
v 0.0764808 -0.002048463 -0.001737473
v 0.0764808 -0.001182673 -0.002603256
v 0.07648078 1.621246E-08 -0.002920166
v 0.07648078 0.001182706 -0.002603256
v 0.07648078 0.002048494 -0.001737473
v 0.07648078 0.002365394 -0.0005547791
v 0.0764808 -0.002365363 -0.0005547791
v 0.07648078 0.002048492 0.0006279144
v 0.0764808 -0.002048463 0.0006279144
v 0.07648078 0.001182704 0.001493698
v 0.0764808 -0.001182675 0.001493698
v 0.0764808 1.430512E-08 0.001810593
v 0.07648078 0.002223752 -0.0005547791
v 0.07648078 0.001925828 -0.001666641
v 0.07648078 0.001925826 0.0005570832
v 0.07648078 0.001111882 0.001371033
v 0.07648078 0.001111884 -0.002480591
v 0.0764808 1.430512E-08 0.001668961
v 0.0764808 -0.001111854 0.001371033
v 0.07648078 1.621246E-08 -0.002778519
v 0.0764808 -0.001925798 0.0005570832
v 0.0764808 -0.001111854 -0.002480591
v 0.0764808 -0.002223722 -0.0005547791
v 0.0764808 -0.001925798 -0.001666641
v 0.03063034 0.002227515 0.004721909
v 0.02975661 0.002227511 0.004721909
v 0.02975666 -2.679825E-07 0.005318848
v 0.03063039 -2.622604E-07 0.005318848
v 0.07450037 0.002227784 0.004721909
v 0.02975666 -0.002228047 0.004721909
v 0.07450043 4.768372E-09 0.005318848
v 0.03063039 -0.002228042 0.004721909
v 0.07450043 -0.002227773 0.004721909
v 0.07450043 6.67572E-09 0.003900772
v 0.07450043 -0.002227773 0.004721909
v 0.07450043 -0.002227773 0.003303848
v 0.07450043 4.768372E-09 0.005318848
v 0.07450037 0.002227784 0.003303848
v 0.07450037 0.002227784 0.004721909
v 0.07609802 -0.002227769 0.003303848
v 0.07622671 -0.002227769 0.004099198
v 0.07622671 -0.002227767 0.003303848
v 0.07609802 -0.002227769 0.004145615
v 0.07622671 -0.002227771 0.004671311
v 0.0745936 -0.002227773 0.003303848
v 0.07609802 -0.002227771 0.004731141
v 0.0745936 -0.002227773 0.004688309
v 0.07450043 -0.002227773 0.003303848
v 0.0745936 -0.002227775 0.005430466
v 0.07450043 -0.002227773 0.004721909
v 0.07450043 -0.002227775 0.005473786
v 0.0306282 -0.002228007 0.005638764
v 0.03063039 -0.002228042 0.004721909
v 0.02975443 -0.002228013 0.005642044
v 0.02975666 -0.002228047 0.004721909
v 0.02975661 0.002227511 0.004721909
v 0.02975783 0.002227544 0.005642838
v 0.02975767 -3.404618E-07 0.006239365
v 0.02975666 -2.679825E-07 0.005318848
v 0.02975443 -0.002228013 0.005642044
v 0.02975666 -0.002228047 0.004721909
v 0.07648078 0.001925826 0.0005570832
v 0.07611553 0.001051505 0.001266464
v 0.07648078 0.001111882 0.001371033
v 0.07611553 0.001821252 0.0004967194
v 0.07648078 0.002223752 -0.0005547791
v 0.07611553 0.002103 -0.0005547791
v 0.07648078 0.001925828 -0.001666641
v 0.07611553 0.001821252 -0.001606278
v 0.0764808 -0.001111854 -0.002480591
v 0.07611555 -0.001051477 -0.002376023
v 0.07611553 1.621246E-08 -0.002657761
v 0.07648078 1.621246E-08 -0.002778519
v 0.07611553 0.001051507 -0.002376023
v 0.07648078 0.001111884 -0.002480591
v 0.07611553 0.001821252 -0.001606278
v 0.07648078 0.001925828 -0.001666641
v 0.0764808 -0.001925798 0.0005570832
v 0.07611555 -0.001821221 0.0004967194
v 0.07611555 -0.002102967 -0.0005547791
v 0.0764808 -0.002223722 -0.0005547791
v 0.07611555 -0.001821221 -0.001606278
v 0.0764808 -0.001925798 -0.001666641
v 0.07611555 -0.001051477 -0.002376023
v 0.0764808 -0.001111854 -0.002480591
v 0.07648078 0.001111882 0.001371033
v 0.07611553 0.001051505 0.001266464
v 0.07611555 1.430512E-08 0.001548203
v 0.0764808 1.430512E-08 0.001668961
v 0.07611555 -0.001051477 0.001266464
v 0.0764808 -0.001111854 0.001371033
v 0.07611555 -0.001821221 0.0004967194
v 0.0764808 -0.001925798 0.0005570832
v -0.09996216 0.0006176463 0.0005150452
v -0.09996216 0.0003392859 3.291321E-05
v -0.09996216 0.0005876723 -0.0002154694
v -0.09996216 0.001069806 6.288147E-05
v -0.09996216 -1.811981E-08 0.0006805573
v -0.09996216 0.0006785899 -0.0005547791
v -0.09996216 -2.002716E-08 0.0001238251
v -0.09996216 0.001235311 -0.0005547791
v -0.09996216 -0.0006176806 0.0005150452
v -0.09996216 0.0005876741 -0.0008940888
v -0.09996216 -0.0003393221 3.291321E-05
v -0.09996216 0.001069808 -0.00117244
v -0.09996216 -0.001069842 6.288147E-05
v -0.09996216 0.0003392859 -0.001142471
v -0.09996216 -0.0005877104 -0.0002154694
v -0.09996216 0.0006176463 -0.001624603
v -0.09996215 -0.001235345 -0.0005547791
v -0.09996216 -1.811981E-08 -0.001233383
v -0.09996215 -0.000678628 -0.0005547791
v -0.09996216 -1.811981E-08 -0.0017901
v -0.09996216 -0.001069842 -0.00117244
v -0.09996216 -0.0003393221 -0.001142471
v -0.09996216 -0.0005877104 -0.0008940888
v -0.09996216 -0.0006176806 -0.001624603
vn -0.2249293 -0.8438357 0.4871839
vn -0.7265931 -0.5950263 0.3435203
vn -0.7265787 -0.3435279 0.5950394
vn -0.2249293 -0.4871839 0.8438357
vn -0.7265771 0 0.6870849
vn -0.1215891 -0.8596085 0.4962754
vn -0.2249241 0 0.9743763
vn -0.7265787 0.3435279 0.5950394
vn -0.2249293 0.4871839 0.8438357
vn -0.1215891 -0.4962754 0.8596085
vn -0.1215891 0 0.9925805
vn -0.1215891 0.4962754 0.8596085
vn 0 0.4999893 0.8660316
vn 0 0 1
vn 0.2925298 0.4781191 0.8281476
vn 0 -0.4999893 0.8660316
vn 0 -0.8660316 0.4999893
vn 0.2925263 0 0.9562575
vn 0.2925298 -0.4781191 0.8281476
vn 0.2925298 -0.8281476 0.4781191
vn 0 -0.8660108 0.5000254
vn 0 -0.4999893 0.8660316
vn -0.2924945 -0.8281646 0.4781113
vn 0 0 1
vn 0 0.5000026 0.866024
vn -0.513792 -0.6685858 0.5375971
vn 0 -0.8660316 0.4999893
vn -0.9198303 0 0.3923165
vn -0.5138146 0.6685754 0.5375887
vn 0 -0.9238803 0.3826815
vn 0 -0.8660316 0.4999893
vn 0 -0.9238803 0.3826815
vn 0.5231883 -0.7380425 0.4261072
vn 0.7116766 -0.5981452 0.3684274
vn -0.2249293 -0.4871839 -0.8438357
vn -0.7265787 -0.3435279 -0.5950394
vn -0.7265931 -0.5950263 -0.3435203
vn -0.2249293 -0.8438357 -0.4871839
vn -0.7265771 -0.6870849 0
vn -0.1215891 -0.4962754 -0.8596085
vn -0.2249241 -0.9743763 0
vn -0.7265931 -0.5950263 0.3435203
vn -0.2249293 -0.8438357 0.4871839
vn -0.1215891 -0.8596085 -0.4962754
vn -0.1215891 -0.9925805 0
vn -0.1215891 -0.8596085 0.4962754
vn 0 -0.8660316 0.4999893
vn 0 -1 0
vn 0.2925298 -0.8281476 0.4781191
vn 0 -0.8660316 -0.4999893
vn 0 -0.4999893 -0.8660316
vn 0.2925263 -0.9562575 0
vn 0.2925298 -0.8281476 -0.4781191
vn 0.2925298 -0.4781191 -0.8281476
vn 0 -0.4999893 -0.8660316
vn 0 -0.8660316 -0.4999893
vn -0.2925298 -0.4781191 -0.8281476
vn 0 -1 0
vn 0 -0.8660108 0.5000254
vn -0.2925298 -0.8281476 -0.4781191
vn 0 -0.4999893 -0.8660316
vn -0.2925263 -0.9562575 0
vn -0.2924945 -0.8281646 0.4781113
vn 0 -0.8660316 -0.4999893
vn 0 -0.4999893 -0.8660316
vn 0 -1 0
vn 0 -0.8660316 0.4999893
vn 0 -0.8660316 -0.4999893
vn 0.5231883 -0.4261072 -0.7380425
vn 0.5231883 -0.7380425 -0.4261072
vn 0 -1 0
vn 0 -0.8660316 0.4999893
vn 0.5231895 -0.8522163 0
vn 0.5231883 -0.7380425 0.4261072
vn -0.2249293 0.8438357 -0.4871839
vn -0.7265787 0.5950394 -0.3435279
vn -0.7265787 0.3435279 -0.5950394
vn -0.2249293 0.4871839 -0.8438357
vn -0.7265771 0 -0.6870849
vn -0.1216192 0.8596053 -0.4962736
vn -0.2249241 0 -0.9743763
vn -0.7265787 -0.3435279 -0.5950394
vn -0.2249293 -0.4871839 -0.8438357
vn -0.1216192 0.4962736 -0.8596053
vn -0.1215891 0 -0.9925805
vn -0.1215891 -0.4962754 -0.8596085
vn 0 -0.4999893 -0.8660316
vn 0 0 -1
vn 0.2925298 -0.4781191 -0.8281476
vn 0 0.4999893 -0.8660316
vn 0 0.8660316 -0.4999893
vn 0.2925263 0 -0.9562575
vn 0.2925298 0.4781191 -0.8281476
vn 0.2925298 0.8281476 -0.4781191
vn 0 0.8660316 -0.4999893
vn 0 0.5000026 -0.866024
vn -0.2925298 0.8281476 -0.4781191
vn 0 0 -1
vn 0 -0.4999893 -0.8660316
vn -0.2925298 0.4781191 -0.8281476
vn 0 0.8660316 -0.4999893
vn -0.2925263 0 -0.9562575
vn -0.2925298 -0.4781191 -0.8281476
vn 0 0.4999893 -0.8660316
vn 0 0.8660316 -0.4999893
vn 0 0 -1
vn 0 -0.4999893 -0.8660316
vn 0 0.4999893 -0.8660316
vn 0.5231883 0.7380425 -0.4261072
vn 0.5231883 0.4261072 -0.7380425
vn 0 0 -1
vn 0 -0.4999893 -0.8660316
vn 0.5231895 0 -0.8522163
vn 0.5231883 -0.4261072 -0.7380425
vn -0.2249293 0.4871839 0.8438357
vn -0.7265787 0.3435279 0.5950394
vn -0.7265787 0.5950394 0.3435279
vn -0.2249293 0.8438357 0.4871839
vn -0.7265771 0.6870849 0
vn -0.1215891 0.4962754 0.8596085
vn -0.2249241 0.9743763 0
vn -0.7265787 0.5950394 -0.3435279
vn -0.2249293 0.8438357 -0.4871839
vn -0.1215891 0.8596085 0.4962754
vn -0.1216191 0.9925769 0
vn -0.1216192 0.8596053 -0.4962736
vn 0 0.8660316 -0.4999893
vn 0 1 0
vn 0.2925298 0.8281476 -0.4781191
vn 0 0.8660316 0.4999893
vn 0 0.4999893 0.8660316
vn 0.2925263 0.9562575 0
vn 0.2925298 0.8281476 0.4781191
vn 0.2925298 0.4781191 0.8281476
vn 0 0.5000026 0.866024
vn 0 0.8660316 0.4999893
vn -0.5138146 0.6685754 0.5375887
vn 0 1 0
vn 0 0.8660316 -0.4999893
vn -0.2925298 0.8281476 0.4781191
vn -0.2925263 0.9562575 0
vn -0.2925298 0.8281476 -0.4781191
vn 0 0.9238803 0.3826815
vn -0.3725217 0.8752704 -0.3084306
vn 0 1 0
vn 0 0.8660316 -0.4999893
vn 0 0.866024 0.5000026
vn 0 1 0
vn 0 0.8660316 -0.4999893
vn 0 0.8660316 0.4999893
vn 0.5231895 0.8522163 0
vn 0.5231883 0.7380425 -0.4261072
vn 0.5231883 0.7380425 0.4261072
vn 0.7116766 0.5981452 0.3684274
vn 0 0.9238803 0.3826815
vn 0 1 0
vn 0 1 0
vn 0.7070915 0.707122 0
vn 0.2605103 0.7861698 0.5604207
vn 0.671791 0.6496646 0.3558551
vn 0.2604819 0.7861761 0.5604252
vn 0.1485668 0.7523559 0.6417854
vn 0 0.6087339 -0.7933744
vn 0.002288952 0.7933202 0.6088002
vn -0.5651867 0.5022865 -0.6544251
vn -0.5910365 0.6392264 0.4920014
vn -0.7702661 0 -0.6377226
vn -0.2671672 -0.4818104 -0.8345541
vn -0.7702667 -0.318831 -0.5523007
vn -0.2671669 0 -0.9636502
vn -0.8423945 -0.2694246 -0.466671
vn -0.7702796 0.3188364 -0.5522795
vn -0.8423861 0 -0.5388744
vn -0.2671672 0.4818104 -0.8345541
vn -0.7702721 0.552274 -0.3188638
vn -0.8423945 0.2694246 -0.466671
vn -0.2671633 0.8345418 -0.4818338
vn -0.8423945 0.466671 -0.2694246
vn -0.7702661 0.6377226 0
vn -0.2671633 0.8345418 -0.4818338
vn -0.7702721 0.552274 -0.3188638
vn -0.2671307 0.9636603 0
vn -0.8423945 0.466671 -0.2694246
vn -0.7702721 0.552274 0.3188638
vn -0.8423861 0.5388744 0
vn -0.2671633 0.8345418 0.4818338
vn -0.7702796 0.3188364 0.5522795
vn -0.8423945 0.466671 0.2694246
vn -0.2671672 0.4818104 0.8345541
vn -0.8423945 0.2694246 0.466671
vn -0.7702661 0 0.6377226
vn -0.2671672 0.4818104 0.8345541
vn -0.7702796 0.3188364 0.5522795
vn -0.2671669 0 0.9636502
vn -0.8423945 0.2694246 0.466671
vn -0.7702667 -0.318831 0.5523007
vn -0.8423861 0 0.5388744
vn -0.2671672 -0.4818104 0.8345541
vn -0.7702721 -0.552274 0.3188638
vn -0.8423945 -0.2694246 0.466671
vn -0.2671633 -0.8345418 0.4818338
vn -0.8423945 -0.466671 0.2694246
vn -0.7702661 -0.6377226 0
vn -0.2671633 -0.8345418 0.4818338
vn -0.7702721 -0.552274 0.3188638
vn -0.2671307 -0.9636603 0
vn -0.8423945 -0.466671 0.2694246
vn -0.7702721 -0.552274 -0.3188638
vn -0.8423861 -0.5388744 0
vn -0.2671633 -0.8345418 -0.4818338
vn -0.7702667 -0.318831 -0.5523007
vn -0.8423945 -0.466671 -0.2694246
vn -0.2671672 -0.4818104 -0.8345541
vn -0.8423945 -0.2694246 -0.466671
vn -0.8423945 -0.466671 0.2694246
vn -0.8423861 -0.5388744 0
vn -0.8423945 -0.466671 -0.2694246
vn -0.8423945 -0.2694246 0.466671
vn -0.8423945 -0.2694246 -0.466671
vn -0.8423861 0 0.5388744
vn -0.8423861 0 -0.5388744
vn -0.8423945 0.2694246 0.466671
vn -0.8423945 0.2694246 -0.466671
vn -0.8423945 0.466671 0.2694246
vn -0.8423945 0.466671 -0.2694246
vn -0.8423861 0.5388744 0
vn 0.9586762 0.142251 -0.2463833
vn 0.3217308 -0.8199831 0.47341
vn 0.9586689 0.246412 -0.14225
vn 0.3217308 -0.47341 0.8199831
vn 0.9586755 0 -0.2845019
vn 0.006927781 -0.8660032 0.4999905
vn 0.3217068 0 0.9468393
vn 0.9586762 -0.142251 -0.2463833
vn 0.3217034 0.4734146 0.8199912
vn 0.006927781 -0.4999905 0.8660032
vn 0.6558039 -0.6537896 0.3774657
vn 0.6557908 -0.3774581 0.6538071
vn 0.006927747 0 0.999976
vn 0.006927781 0.4999905 0.8660032
vn 0.6557888 0 0.7549445
vn 0.6557908 0.3774581 0.6538071
vn 0.9586762 0.2463833 0.142251
vn 0.3217308 -0.47341 -0.8199831
vn 0.958672 0.1422809 0.2463822
vn 0.3217034 -0.8199912 -0.4734146
vn 0.9586755 0.2845019 0
vn 0.006927781 -0.4999905 -0.8660032
vn 0.3217342 -0.94683 0
vn 0.9586689 0.246412 -0.14225
vn 0.3217308 -0.8199831 0.47341
vn 0.006927781 -0.8660032 -0.4999905
vn 0.6557908 -0.3774581 -0.6538071
vn 0.6558039 -0.6537896 -0.3774657
vn 0.006927747 -0.999976 0
vn 0.006927781 -0.8660032 0.4999905
vn 0.6557888 -0.7549445 0
vn 0.6558039 -0.6537896 0.3774657
vn 0.9586762 -0.142251 0.2463833
vn 0.3217034 0.8199912 -0.4734146
vn 0.9586762 -0.2463833 0.142251
vn 0.3217034 0.4734146 -0.8199912
vn 0.9586755 0 0.2845019
vn 0.006927781 0.8660032 -0.4999905
vn 0.3217068 0 -0.9468393
vn 0.958672 0.1422809 0.2463822
vn 0.3217308 -0.47341 -0.8199831
vn 0.006927781 0.4999905 -0.8660032
vn 0.6557908 0.6538071 -0.3774581
vn 0.6557908 0.3774581 -0.6538071
vn 0.006927747 0 -0.999976
vn 0.006927781 -0.4999905 -0.8660032
vn 0.6557888 0 -0.7549445
vn 0.6557908 -0.3774581 -0.6538071
vn 0.9586762 -0.2463833 -0.142251
vn 0.3217034 0.4734146 0.8199912
vn 0.9586762 -0.142251 -0.2463833
vn 0.3217034 0.8199912 0.4734146
vn 0.9586755 -0.2845019 0
vn 0.006927781 0.4999905 0.8660032
vn 0.3216975 0.9468425 0
vn 0.9586762 -0.2463833 0.142251
vn 0.3217034 0.8199912 -0.4734146
vn 0.006927781 0.8660032 0.4999905
vn 0.6557908 0.3774581 0.6538071
vn 0.6557908 0.6538071 0.3774581
vn 0.006927747 0.999976 0
vn 0.006927781 0.8660032 -0.4999905
vn 0.6557888 0.7549445 0
vn 0.6557908 0.6538071 -0.3774581
vn 0.6558039 -0.6537896 -0.3774657
vn 0.6557888 -0.7549445 0
vn 0.6558039 -0.6537896 0.3774657
vn 0.6557908 -0.3774581 -0.6538071
vn 0.6557908 -0.3774581 0.6538071
vn 0.6557888 0 0.7549445
vn 0.6557888 0 -0.7549445
vn 0.6557908 0.3774581 0.6538071
vn 0.6557908 0.3774581 -0.6538071
vn 0.6557908 0.6538071 0.3774581
vn 0.6557908 0.6538071 -0.3774581
vn 0.6557888 0.7549445 0
vn 0.2605103 0.7861698 0.5604207
vn 0.671791 0.6496646 0.3558551
vn 0.8033604 0 0.5954933
vn 0.42153 0 0.9068144
vn 0.6718078 -0.6496512 0.3558478
vn 0.2604819 0.7861761 0.5604252
vn 0.2605103 -0.7861698 0.5604207
vn 0.42153 0 0.9068144
vn 0.1485668 0.7523559 0.6417854
vn 0.2605103 -0.7861698 0.5604207
vn 0.2105502 -3.051895E-05 0.9775831
vn 0.002288952 0.7933202 0.6088002
vn 0.1485996 -0.7523673 0.6417646
vn 0.003753865 -0.0001220769 0.999993
vn -0.5910365 0.6392264 0.4920014
vn 0.002288969 -0.7933871 0.6087131
vn -0.6515803 0.0001525949 0.7585797
vn -0.5923187 -0.6385555 0.4913303
vn 0.7071068 -0.7071068 0
vn 0.6718078 -0.6496512 0.3558478
vn 0.8033604 0 0.5954933
vn 1 0 0
vn 0.671791 0.6496646 0.3558551
vn 0.7070915 0.707122 0
vn 0.7116766 -0.5981452 0.3684274
vn 0.9876968 0 0.156381
vn 0.7116766 0.5981452 0.3684274
vn 0.9763097 -0.1081906 0.187388
vn 0.976309 0 0.2163811
vn 0.9763097 -0.187388 0.1081906
vn 0.5231883 -0.7380425 0.4261072
vn 0.9763097 0.1081906 0.187388
vn 0.5231883 0.7380425 0.4261072
vn 0.976309 -0.2163811 0
vn 0.5231895 -0.8522163 0
vn 0.9763097 0.187388 0.1081906
vn 0.5231895 0.8522163 0
vn 0.9763097 -0.187388 -0.1081906
vn 0.5231883 -0.7380425 -0.4261072
vn 0.976309 0.2163811 0
vn 0.5231883 0.7380425 -0.4261072
vn 0.9763129 -0.1081605 -0.1873886
vn 0.5231883 -0.4261072 -0.7380425
vn 0.9763097 0.187388 -0.1081906
vn 0.5231883 0.4261072 -0.7380425
vn 0.976309 0 -0.2163811
vn 0.5231895 0 -0.8522163
vn 0.9763097 0.1081906 -0.187388
vn 1 0 0
vn 1 0 0
vn 1 0 0
vn 1 0 0
vn 1 0 0
vn 1 0 0
vn 1 0 0
vn 1 0 0
vn 1 0 0
vn 1 0 0
vn 1 0 0
vn 1 0 0
vn 0.8576222 -0.5142803 0
vn 0.8576382 -0.4453602 0.2571205
vn 0.8576301 -0.4453719 -0.2571273
vn 0.8576382 -0.2571205 -0.4453602
vn 0.8576499 -0.257124 0.4453358
vn 0.8576437 0 -0.5142444
vn 0.8576499 0.257124 -0.4453358
vn 0.8576437 0 0.5142444
vn 0.8576382 0.4453602 -0.2571205
vn 0.8576499 0.257124 0.4453358
vn 0.8576437 0.5142444 0
vn 0.8576382 0.4453602 0.2571205
vn 0 0.6087339 -0.7933744
vn -0.5651867 0.5022865 -0.6544251
vn -0.7703632 0.0004577866 -0.6376051
vn 0 0 -1
vn -0.3725217 0.8752704 -0.3084306
vn -0.5645128 -0.5026504 -0.6547273
vn -0.653236 0 -0.7571544
vn 0 -0.6087679 -0.7933484
vn -0.3725117 -0.8752774 -0.3084224
vn -0.9198303 0 0.3923165
vn -0.3725117 -0.8752774 -0.3084224
vn -0.513792 -0.6685858 0.5375971
vn -0.653236 0 -0.7571544
vn -0.5138146 0.6685754 0.5375887
vn -0.3725217 0.8752704 -0.3084306
vn 0 -0.9238803 0.3826815
vn 0.7071068 -0.7071068 0
vn 0.7116766 -0.5981452 0.3684274
vn 0 -1 0
vn 0.6718078 -0.6496512 0.3558478
vn 0 -0.9238803 0.3826815
vn 0.2605103 -0.7861698 0.5604207
vn 0 -1 0
vn -0.513792 -0.6685858 0.5375971
vn 0.2605103 -0.7861698 0.5604207
vn -0.3725117 -0.8752774 -0.3084224
vn 0.1485996 -0.7523673 0.6417646
vn 0.002288969 -0.7933871 0.6087131
vn 0 -0.6087679 -0.7933484
vn -0.5923187 -0.6385555 0.4913303
vn -0.5645128 -0.5026504 -0.6547273
vn -0.5651867 0.5022865 -0.6544251
vn -0.5910365 0.6392264 0.4920014
vn -0.6515803 0.0001525949 0.7585797
vn -0.7703632 0.0004577866 -0.6376051
vn -0.5923187 -0.6385555 0.4913303
vn -0.5645128 -0.5026504 -0.6547273
vn 0.8576301 -0.4453719 -0.2571273
vn 0.9586762 -0.142251 -0.2463833
vn 0.8576382 -0.2571205 -0.4453602
vn 0.9586762 -0.2463833 -0.142251
vn 0.8576222 -0.5142803 0
vn 0.9586755 -0.2845019 0
vn 0.8576382 -0.4453602 0.2571205
vn 0.9586762 -0.2463833 0.142251
vn 0.8576499 0.257124 0.4453358
vn 0.958672 0.1422809 0.2463822
vn 0.9586755 0 0.2845019
vn 0.8576437 0 0.5142444
vn 0.9586762 -0.142251 0.2463833
vn 0.8576499 -0.257124 0.4453358
vn 0.9586762 -0.2463833 0.142251
vn 0.8576382 -0.4453602 0.2571205
vn 0.8576382 0.4453602 -0.2571205
vn 0.9586689 0.246412 -0.14225
vn 0.9586755 0.2845019 0
vn 0.8576437 0.5142444 0
vn 0.9586762 0.2463833 0.142251
vn 0.8576382 0.4453602 0.2571205
vn 0.958672 0.1422809 0.2463822
vn 0.8576499 0.257124 0.4453358
vn 0.8576382 -0.2571205 -0.4453602
vn 0.9586762 -0.142251 -0.2463833
vn 0.9586755 0 -0.2845019
vn 0.8576437 0 -0.5142444
vn 0.9586762 0.142251 -0.2463833
vn 0.8576499 0.257124 -0.4453358
vn 0.9586689 0.246412 -0.14225
vn 0.8576382 0.4453602 -0.2571205
vn -0.7265787 0.3435279 0.5950394
vn -0.7702796 0.3188364 0.5522795
vn -0.7702721 0.552274 0.3188638
vn -0.7265787 0.5950394 0.3435279
vn -0.7265771 0 0.6870849
vn -0.7702661 0.6377226 0
vn -0.7702661 0 0.6377226
vn -0.7265771 0.6870849 0
vn -0.7265787 -0.3435279 0.5950394
vn -0.7702721 0.552274 -0.3188638
vn -0.7702667 -0.318831 0.5523007
vn -0.7265787 0.5950394 -0.3435279
vn -0.7265931 -0.5950263 0.3435203
vn -0.7702796 0.3188364 -0.5522795
vn -0.7702721 -0.552274 0.3188638
vn -0.7265787 0.3435279 -0.5950394
vn -0.7265771 -0.6870849 0
vn -0.7702661 0 -0.6377226
vn -0.7702661 -0.6377226 0
vn -0.7265771 0 -0.6870849
vn -0.7265931 -0.5950263 -0.3435203
vn -0.7702667 -0.318831 -0.5523007
vn -0.7702721 -0.552274 -0.3188638
vn -0.7265787 -0.3435279 -0.5950394
vt 0.413563 0.0592139
vt 0.4045626 0.0009339007
vt 0.4024529 0.0009648058
vt 0.4061954 0.0593219
vt 0.3999408 0.0009678043
vt 0.4139766 0.06138904
vt 0.3974227 0.05933229
vt 0.3976995 0.0009420055
vt 0.3895953 0.05924225
vt 0.4063675 0.06150061
vt 0.3973069 0.0615113
vt 0.3892229 0.06141828
vt 0.3892229 0.6769387
vt 0.3973069 0.6770319
vt 0.3892229 0.6791096
vt 0.4063674 0.6770212
vt 0.4139766 0.6769096
vt 0.3973069 0.6792028
vt 0.4063674 0.6791921
vt 0.4139766 0.6790805
vt 0.4137754 0.6794493
vt 0.4062837 0.6795591
vt 0.4139766 0.6798264
vt 0.3973632 0.6795697
vt 0.389404 0.679478
vt 0.4063674 0.679938
vt 0.4139766 0.6801888
vt 0.3973069 0.6799486
vt 0.3892229 0.6798555
vt 0.4063674 0.6803004
vt 0.4139766 0.6860414
vt 0.4063674 0.6861529
vt 0.4139766 0.6865419
vt 0.4063674 0.6866536
vt 0.6563727 0.6283292
vt 0.6634954 0.6866536
vt 0.6658435 0.6866326
vt 0.6645726 0.6282558
vt 0.6683281 0.6866417
vt 0.6560453 0.626152
vt 0.67325 0.6282876
vt 0.6702837 0.6866786
vt 0.6800791 0.6284165
vt 0.6645144 0.6260762
vt 0.6734762 0.6261089
vt 0.6805292 0.6262422
vt 0.6805292 0.01073221
vt 0.673476 0.01059912
vt 0.6805292 0.008561257
vt 0.6645142 0.01056614
vt 0.6560452 0.01064202
vt 0.6734761 0.008428256
vt 0.6645142 0.008395272
vt 0.6560452 0.008471125
vt 0.6562045 0.008103381
vt 0.6645426 0.008028627
vt 0.6560453 0.007725306
vt 0.673366 0.008061135
vt 0.6803104 0.008192118
vt 0.6645143 0.007649453
vt 0.6560452 0.007362876
vt 0.673476 0.007682436
vt 0.6805292 0.007815468
vt 0.6645142 0.007286993
vt 0.6560451 0.00151041
vt 0.673476 0.007320006
vt 0.6805292 0.007453038
vt 0.6645142 0.001434557
vt 0.6560451 0.001009783
vt 0.6645142 0.0009339007
vt 0.673476 0.00146757
vt 0.6805292 0.001600602
vt 0.6734761 0.0009669433
vt 0.6805292 0.001099945
vt 0.6273592 0.05936207
vt 0.6181058 0.0009339007
vt 0.6160406 0.001005567
vt 0.6201473 0.05961246
vt 0.613534 0.001016136
vt 0.6277844 0.06154453
vt 0.6113936 0.0596493
vt 0.6112576 0.0009627276
vt 0.6034435 0.05946271
vt 0.6203361 0.06180317
vt 0.6112952 0.06184119
vt 0.6030844 0.06164856
vt 0.6030844 0.676545
vt 0.6112952 0.6767374
vt 0.6030844 0.6787137
vt 0.6203361 0.6766994
vt 0.6277844 0.6764408
vt 0.6112952 0.6789061
vt 0.6203361 0.6788681
vt 0.6277844 0.6786095
vt 0.6275776 0.6789734
vt 0.6202443 0.679228
vt 0.6277844 0.6793546
vt 0.6113431 0.6792654
vt 0.6032591 0.6790759
vt 0.6203361 0.6796132
vt 0.6277844 0.6797166
vt 0.6112952 0.6796512
vt 0.6030844 0.6794587
vt 0.6203361 0.6799753
vt 0.6277844 0.6855633
vt 0.6112952 0.6800133
vt 0.6030844 0.6798208
vt 0.6203361 0.6858219
vt 0.6277844 0.6860634
vt 0.6203361 0.686322
vt 0.6112952 0.68586
vt 0.6030844 0.6856675
vt 0.6112952 0.6863601
vt 0.6030844 0.6861676
vt 0.009679043 0.6283289
vt 0.01680172 0.6866533
vt 0.01914982 0.6866322
vt 0.01787919 0.6282554
vt 0.02163447 0.6866414
vt 0.009351661 0.6261517
vt 0.02655642 0.6282874
vt 0.02359006 0.6866783
vt 0.03338551 0.6284162
vt 0.01782078 0.6260759
vt 0.02678254 0.6261088
vt 0.03383577 0.6262419
vt 0.03383577 0.01073219
vt 0.02678254 0.01059912
vt 0.03383577 0.008561257
vt 0.01782078 0.01056611
vt 0.009351782 0.01064199
vt 0.02678248 0.008428226
vt 0.01782078 0.008395243
vt 0.009351722 0.008471096
vt 0.009510971 0.008103263
vt 0.01784923 0.008028568
vt 0.009351661 0.007725306
vt 0.02667263 0.008061105
vt 0.03361679 0.008192088
vt 0.01782084 0.007649424
vt 0.02678254 0.007682407
vt 0.03383583 0.007815468
vt 0.009351661 0.007362816
vt 0.004254678 0.007672461
vt 0.02678254 0.007319947
vt 0.03383583 0.007453038
vt 0.01782084 0.007286964
vt 0.02678254 0.001467541
vt 0.03383577 0.001600572
vt 0.01782078 0.001434528
vt 0.02678248 0.000966884
vt 0.03383583 0.001099945
vt 0.01782084 0.0009339007
vt 0.009351782 0.001009783
vt 0.009351782 0.00151038
vt 0.00437545 0.007311219
vt 0.006326173 0.00147903
vt 0.006492985 0.0009801248
vt 0.004221544 0.00145718
vt 0.004436556 0.0009587791
vt 0.001707777 0.00728355
vt 0.001552189 0.007644406
vt 0.004254258 0.1783344
vt 0.0009558916 0.1782956
vt 0.004254198 0.1817334
vt 0.0009441266 0.1816943
vt 0.6230887 0.6882279
vt 0.6243393 0.6938786
vt 0.6243393 0.6882572
vt 0.6230887 0.6938493
vt 0.6237488 0.6953399
vt 0.6217118 0.6882337
vt 0.622927 0.6953205
vt 0.6217118 0.693855
vt 0.6205773 0.6882731
vt 0.6220221 0.6953244
vt 0.6205773 0.6938944
vt 0.6212766 0.6953502
vt 0.2143433 0.7294263
vt 0.2154176 0.7350734
vt 0.2154176 0.7294465
vt 0.2143432 0.7350532
vt 0.2146773 0.7365138
vt 0.2129783 0.7294212
vt 0.2139713 0.7365005
vt 0.2129784 0.7350482
vt 0.2116885 0.7294328
vt 0.2130744 0.7364972
vt 0.2116884 0.7350598
vt 0.2122267 0.7365048
vt 0.727671 0.7269576
vt 0.7289023 0.7325988
vt 0.7289023 0.7269717
vt 0.727671 0.7325847
vt 0.7282899 0.7340419
vt 0.7262911 0.7269592
vt 0.7274808 0.7340326
vt 0.7262911 0.7325863
vt 0.7251322 0.7269762
vt 0.7265739 0.7340337
vt 0.7251322 0.7326033
vt 0.7258122 0.7340448
vt 0.2477699 0.729049
vt 0.2488442 0.7346963
vt 0.2488442 0.7290693
vt 0.2477699 0.7346759
vt 0.2481041 0.7361366
vt 0.2464049 0.729044
vt 0.247398 0.7361232
vt 0.2464049 0.7346709
vt 0.2451151 0.7290555
vt 0.246501 0.73612
vt 0.245115 0.7346825
vt 0.2456533 0.7361276
vt 0.3810733 0.744252
vt 0.3815274 0.74503
vt 0.3823138 0.7454792
vt 0.3810733 0.7433538
vt 0.3832219 0.7454792
vt 0.3815274 0.7425759
vt 0.3840084 0.74503
vt 0.3823139 0.7421267
vt 0.3844624 0.744252
vt 0.383222 0.7421267
vt 0.3844624 0.7433538
vt 0.3840085 0.7425759
vt 0.2960961 0.7620201
vt 0.2928583 0.7614119
vt 0.2925046 0.7620686
vt 0.2962437 0.7613663
vt 0.3003726 0.7620201
vt 0.2928684 0.7598642
vt 0.3002746 0.7613662
vt 0.3041881 0.7620686
vt 0.303871 0.761412
vt 0.2962489 0.7598187
vt 0.2931741 0.7120066
vt 0.2964098 0.7119629
vt 0.3002742 0.7598186
vt 0.3038656 0.7598643
vt 0.3002627 0.7119628
vt 0.3037003 0.7120066
vt 0.02194794 0.7290981
vt 0.02566817 0.7297038
vt 0.02594513 0.7290475
vt 0.02190058 0.7297515
vt 0.01771798 0.7290981
vt 0.02566745 0.7312515
vt 0.01791354 0.7297514
vt 0.01438876 0.7290475
vt 0.0147755 0.7297038
vt 0.02190527 0.731299
vt 0.02565173 0.7791078
vt 0.02205047 0.7791534
vt 0.01792374 0.731299
vt 0.01479015 0.7312515
vt 0.0182396 0.7791534
vt 0.01524016 0.7791079
vt 0.3142186 0.727877
vt 0.3173689 0.7284165
vt 0.3177346 0.7277697
vt 0.3140547 0.7285177
vt 0.3099513 0.727877
vt 0.3173539 0.7299623
vt 0.3100325 0.7285176
vt 0.3060763 0.7277699
vt 0.3063801 0.7284165
vt 0.3140444 0.7300633
vt 0.3168934 0.7777647
vt 0.3137257 0.7778614
vt 0.3100278 0.7300633
vt 0.3063805 0.7299624
vt 0.3098811 0.7778614
vt 0.30639 0.7777647
vt 0.1118742 0.7290981
vt 0.1155944 0.7297039
vt 0.1158713 0.7290475
vt 0.1118268 0.7297515
vt 0.1076442 0.7290981
vt 0.1155938 0.7312515
vt 0.1078397 0.7297515
vt 0.104315 0.7290476
vt 0.1047016 0.7297039
vt 0.1118314 0.731299
vt 0.1155777 0.7791079
vt 0.1119765 0.7791535
vt 0.10785 0.7312991
vt 0.1047164 0.7312515
vt 0.1081656 0.7791535
vt 0.1051661 0.7791079
vt 0.2006717 0.7436641
vt 0.2045299 0.743664
vt 0.2078712 0.7417558
vt 0.1973305 0.7417559
vt 0.2098002 0.7384508
vt 0.2098002 0.7346344
vt 0.1954014 0.7384508
vt 0.2078712 0.7313293
vt 0.1954014 0.7346345
vt 0.2045298 0.7294212
vt 0.1973304 0.7313294
vt 0.2006717 0.7294213
vt 0.5632186 0.8684244
vt 0.5632653 0.86892
vt 0.5713488 0.8690479
vt 0.5713021 0.8685523
vt 0.5804093 0.8690761
vt 0.562672 0.8626301
vt 0.5803626 0.8685804
vt 0.5707555 0.862758
vt 0.5626382 0.8622712
vt 0.579816 0.8627863
vt 0.5707217 0.8623992
vt 0.5632523 0.6916265
vt 0.5797822 0.8624274
vt 0.5713366 0.6917536
vt 0.5632645 0.6882279
vt 0.580397 0.6917693
vt 0.5713488 0.6883549
vt 0.5804093 0.6883705
vt 0.134449 0.6951838
vt 0.1350315 0.6930336
vt 0.1271741 0.6885461
vt 0.1265916 0.6906966
vt 0.1181012 0.6885461
vt 0.1175187 0.6906964
vt 0.1336392 0.6981733
vt 0.1257818 0.6936859
vt 0.1167089 0.6936859
vt 0.1318471 0.699946
vt 0.1251258 0.6961076
vt 0.1357276 0.7065945
vt 0.1381756 0.7059456
vt 0.1173648 0.6961075
vt 0.1088515 0.6981732
vt 0.1357276 0.7142714
vt 0.1381756 0.7149203
vt 0.1106436 0.6999459
vt 0.104315 0.7059455
vt 0.131847 0.7209198
vt 0.1336391 0.7226925
vt 0.1067631 0.7065943
vt 0.104315 0.7149201
vt 0.1251258 0.7247583
vt 0.1257817 0.7271798
vt 0.106763 0.7142714
vt 0.1088514 0.7226924
vt 0.1173647 0.7247583
vt 0.1167088 0.7271798
vt 0.1106435 0.7209197
vt 0.127825 0.7169413
vt 0.1236536 0.7193235
vt 0.1188369 0.7193236
vt 0.1146656 0.7169412
vt 0.1122573 0.7128151
vt 0.1122573 0.7080505
vt 0.1302333 0.7128152
vt 0.1146657 0.7039244
vt 0.1302333 0.7080506
vt 0.118837 0.7015422
vt 0.127825 0.7039245
vt 0.1236537 0.7015422
vt 0.1127955 0.7081932
vt 0.1127955 0.7126724
vt 0.1150596 0.7043142
vt 0.1189812 0.7020745
vt 0.1150596 0.7165515
vt 0.1235094 0.7020746
vt 0.127431 0.7043143
vt 0.1189811 0.7187912
vt 0.1296951 0.7081934
vt 0.1235094 0.7187912
vt 0.1296951 0.7126725
vt 0.127431 0.7165515
vt 0.6014374 0.8587198
vt 0.6014374 0.8621153
vt 0.6096482 0.8623078
vt 0.6096482 0.8589123
vt 0.6014374 0.6882279
vt 0.6186891 0.8622699
vt 0.6096482 0.6884204
vt 0.6186891 0.8588743
vt 0.6186891 0.6883824
vt 0.6646092 0.7164208
vt 0.661379 0.7250897
vt 0.6669573 0.7250897
vt 0.6590307 0.7164208
vt 0.6669574 0.7077519
vt 0.6613789 0.7077519
vt 0.4468993 0.689022
vt 0.4497597 0.6885607
vt 0.446901 0.6885214
vt 0.4499247 0.6890637
vt 0.4518161 0.688589
vt 0.4468789 0.6948744
vt 0.4520293 0.6890926
vt 0.451855 0.6949429
vt 0.4468777 0.6952369
vt 0.4545225 0.6949796
vt 0.4519745 0.695307
vt 0.4546769 0.6953442
vt 0.4546769 0.8660219
vt 0.4513817 0.865968
vt 0.4546769 0.8694211
vt 0.4513698 0.8693669
vt 0.3870428 0.6858001
vt 0.38342 0.6858
vt 0.3810733 0.6944692
vt 0.3846945 0.6944689
vt 0.3834231 0.7031376
vt 0.3870428 0.7031378
vt 0.6623627 0.7460182
vt 0.6609882 0.7499281
vt 0.6624167 0.7501991
vt 0.6609371 0.7459742
vt 0.6623627 0.7415939
vt 0.6609372 0.74179
vt 0.6624167 0.7381116
vt 0.6609883 0.7384968
vt 0.2868456 0.7464918
vt 0.2882745 0.746179
vt 0.2883234 0.7424048
vt 0.2868974 0.7425008
vt 0.2883234 0.7381747
vt 0.2868974 0.7380278
vt 0.2882744 0.7346221
vt 0.2868456 0.7342712
vt 0.2199035 0.7383816
vt 0.2184751 0.7387668
vt 0.218424 0.74206
vt 0.2198495 0.7418638
vt 0.218424 0.7462441
vt 0.2198495 0.7462882
vt 0.218475 0.750198
vt 0.2199035 0.750469
vt 0.732317 0.7269576
vt 0.730899 0.7272547
vt 0.7307906 0.7310878
vt 0.7322024 0.7310107
vt 0.7307906 0.7353088
vt 0.7322024 0.7354741
vt 0.730899 0.7387868
vt 0.732317 0.7391518
vt 0.4848141 0.7302672
vt 0.4863628 0.7317989
vt 0.4875594 0.7311155
vt 0.4869926 0.729023
vt 0.4835564 0.7324221
vt 0.4889413 0.7311155
vt 0.4856718 0.7329827
vt 0.4895082 0.729023
vt 0.4835564 0.7349104
vt 0.4901381 0.7317989
vt 0.4856718 0.7343496
vt 0.4916866 0.730267
vt 0.4848141 0.7370653
vt 0.490829 0.7329827
vt 0.4863628 0.7355334
vt 0.4929444 0.7324219
vt 0.4869927 0.7383093
vt 0.490829 0.7343495
vt 0.4875595 0.7362168
vt 0.4929444 0.7349102
vt 0.4895082 0.7383093
vt 0.4901381 0.7355334
vt 0.4889414 0.7362168
vt 0.4916867 0.7370652
usemtl PensPencils_DefaultMaterial_AlbedoTransparency
f 3/3/3 2/2/2 1/1/1
f 4/4/4 3/3/3 1/1/1
f 5/5/5 3/3/3 4/4/4
f 4/4/4 1/1/1 6/6/6
f 7/7/7 5/5/5 4/4/4
f 8/8/8 5/5/5 7/7/7
f 9/9/9 8/8/8 7/7/7
f 10/10/10 4/4/4 6/6/6
f 7/7/7 4/4/4 10/10/10
f 9/9/9 7/7/7 11/11/11
f 11/11/11 7/7/7 10/10/10
f 12/12/12 9/9/9 11/11/11
f 13/13/13 12/12/12 11/11/11
f 14/14/14 13/13/13 11/11/11
f 14/14/14 11/11/11 10/10/10
f 15/15/15 13/13/13 14/14/14
f 16/16/16 10/10/10 6/6/6
f 16/16/16 14/14/14 10/10/10
f 17/17/17 16/16/16 6/6/6
f 18/18/18 15/15/15 14/14/14
f 18/18/18 14/14/14 16/16/16
f 19/19/19 16/16/16 17/17/17
f 19/19/19 18/18/18 16/16/16
f 20/20/20 19/19/19 17/17/17
f 20/20/20 21/21/21 19/19/19
f 21/21/21 22/22/22 19/19/19
f 19/19/19 22/22/22 18/18/18
f 21/21/21 23/23/23 22/22/22
f 18/18/18 24/24/24 15/15/15
f 22/22/22 24/24/24 18/18/18
f 24/24/24 25/25/25 15/15/15
f 23/23/23 26/26/26 22/22/22
f 22/22/22 26/26/26 24/24/24
f 23/23/23 27/27/27 26/26/26
f 24/24/24 28/28/28 25/25/25
f 26/26/26 28/28/28 24/24/24
f 28/28/28 29/29/29 25/25/25
f 27/27/27 30/30/30 26/26/26
f 27/27/27 31/31/31 30/30/30
f 31/31/31 32/32/32 30/30/30
f 31/31/31 33/33/33 32/32/32
f 33/33/33 34/34/34 32/32/32
f 37/37/37 36/36/36 35/35/35
f 38/38/38 37/37/37 35/35/35
f 39/39/39 37/37/37 38/38/38
f 38/38/38 35/35/35 40/40/40
f 41/41/41 39/39/39 38/38/38
f 42/42/42 39/39/39 41/41/41
f 43/43/43 42/42/42 41/41/41
f 44/44/44 38/38/38 40/40/40
f 41/41/41 38/38/38 44/44/44
f 43/43/43 41/41/41 45/45/45
f 45/45/45 41/41/41 44/44/44
f 46/46/46 43/43/43 45/45/45
f 47/47/47 46/46/46 45/45/45
f 48/48/48 47/47/47 45/45/45
f 48/48/48 45/45/45 44/44/44
f 49/49/49 47/47/47 48/48/48
f 50/50/50 44/44/44 40/40/40
f 50/50/50 48/48/48 44/44/44
f 51/51/51 50/50/50 40/40/40
f 52/52/52 49/49/49 48/48/48
f 52/52/52 48/48/48 50/50/50
f 53/53/53 50/50/50 51/51/51
f 53/53/53 52/52/52 50/50/50
f 54/54/54 53/53/53 51/51/51
f 54/54/54 55/55/55 53/53/53
f 55/55/55 56/56/56 53/53/53
f 53/53/53 56/56/56 52/52/52
f 55/55/55 57/57/57 56/56/56
f 52/52/52 58/58/58 49/49/49
f 56/56/56 58/58/58 52/52/52
f 58/58/58 59/59/59 49/49/49
f 57/57/57 60/60/60 56/56/56
f 56/56/56 60/60/60 58/58/58
f 57/57/57 61/61/61 60/60/60
f 58/58/58 62/62/62 59/59/59
f 60/60/60 62/62/62 58/58/58
f 62/62/62 63/63/63 59/59/59
f 61/61/61 64/64/64 60/60/60
f 60/60/60 64/64/64 62/62/62
f 61/61/61 65/65/65 64/64/64
f 62/62/62 66/66/66 63/63/63
f 64/64/64 66/66/66 62/62/62
f 66/66/66 67/67/67 63/63/63
f 65/65/65 68/68/68 64/64/64
f 64/64/64 68/68/68 66/66/66
f 65/65/65 69/69/69 68/68/68
f 69/69/69 70/70/70 68/68/68
f 66/66/66 71/71/71 67/67/67
f 68/68/68 71/71/71 66/66/66
f 68/68/68 70/70/70 71/71/71
f 71/71/71 72/72/72 67/67/67
f 70/70/70 73/73/73 71/71/71
f 71/71/71 73/73/73 72/72/72
f 73/73/73 74/74/74 72/72/72
f 77/77/77 76/76/76 75/75/75
f 78/78/78 77/77/77 75/75/75
f 79/79/79 77/77/77 78/78/78
f 78/78/78 75/75/75 80/80/80
f 81/81/81 79/79/79 78/78/78
f 82/82/82 79/79/79 81/81/81
f 83/83/83 82/82/82 81/81/81
f 84/84/84 78/78/78 80/80/80
f 81/81/81 78/78/78 84/84/84
f 83/83/83 81/81/81 85/85/85
f 85/85/85 81/81/81 84/84/84
f 86/86/86 83/83/83 85/85/85
f 87/87/87 86/86/86 85/85/85
f 88/88/88 87/87/87 85/85/85
f 88/88/88 85/85/85 84/84/84
f 89/89/89 87/87/87 88/88/88
f 90/90/90 84/84/84 80/80/80
f 90/90/90 88/88/88 84/84/84
f 91/91/91 90/90/90 80/80/80
f 92/92/92 89/89/89 88/88/88
f 92/92/92 88/88/88 90/90/90
f 93/93/93 90/90/90 91/91/91
f 93/93/93 92/92/92 90/90/90
f 94/94/94 93/93/93 91/91/91
f 94/94/94 95/95/95 93/93/93
f 95/95/95 96/96/96 93/93/93
f 93/93/93 96/96/96 92/92/92
f 95/95/95 97/97/97 96/96/96
f 92/92/92 98/98/98 89/89/89
f 96/96/96 98/98/98 92/92/92
f 98/98/98 99/99/99 89/89/89
f 97/97/97 100/100/100 96/96/96
f 96/96/96 100/100/100 98/98/98
f 97/97/97 101/101/101 100/100/100
f 98/98/98 102/102/102 99/99/99
f 100/100/100 102/102/102 98/98/98
f 102/102/102 103/103/103 99/99/99
f 101/101/101 104/104/104 100/100/100
f 100/100/100 104/104/104 102/102/102
f 101/101/101 105/105/105 104/104/104
f 102/102/102 106/106/106 103/103/103
f 104/104/104 106/106/106 102/102/102
f 106/106/106 107/107/107 103/103/103
f 105/105/105 108/108/108 104/104/104
f 104/104/104 108/108/108 106/106/106
f 105/105/105 109/109/109 108/108/108
f 109/109/109 110/110/110 108/108/108
f 106/106/106 111/111/111 107/107/107
f 108/108/108 111/111/111 106/106/106
f 108/108/108 110/110/110 111/111/111
f 111/111/111 112/112/112 107/107/107
f 110/110/110 113/113/113 111/111/111
f 111/111/111 113/113/113 112/112/112
f 113/113/113 114/114/114 112/112/112
f 117/117/117 116/116/116 115/115/115
f 118/118/118 117/117/117 115/115/115
f 119/119/119 117/117/117 118/118/118
f 118/118/118 115/115/115 120/120/120
f 121/121/121 119/119/119 118/118/118
f 122/122/122 119/119/119 121/121/121
f 123/123/123 122/122/122 121/121/121
f 124/124/124 118/118/118 120/120/120
f 121/121/121 118/118/118 124/124/124
f 123/123/123 121/121/121 125/125/125
f 125/125/125 121/121/121 124/124/124
f 126/126/126 123/123/123 125/125/125
f 127/127/127 126/126/126 125/125/125
f 128/128/128 127/127/127 125/125/125
f 128/128/128 125/125/125 124/124/124
f 129/129/129 127/127/127 128/128/128
f 130/130/130 124/124/124 120/120/120
f 130/130/130 128/128/128 124/124/124
f 131/131/131 130/130/130 120/120/120
f 132/132/132 129/129/129 128/128/128
f 132/132/132 128/128/128 130/130/130
f 133/133/133 130/130/130 131/131/131
f 133/133/133 132/132/132 130/130/130
f 134/134/134 133/133/133 131/131/131
f 134/134/134 135/135/135 133/133/133
f 135/135/135 136/136/136 133/133/133
f 133/133/133 136/136/136 132/132/132
f 135/135/135 137/137/137 136/136/136
f 132/132/132 138/138/138 129/129/129
f 136/136/136 138/138/138 132/132/132
f 138/138/138 139/139/139 129/129/129
f 137/137/137 140/140/140 136/136/136
f 136/136/136 140/140/140 138/138/138
f 138/138/138 141/141/141 139/139/139
f 140/140/140 141/141/141 138/138/138
f 141/141/141 142/142/142 139/139/139
f 137/137/137 143/143/143 140/140/140
f 137/137/137 144/144/144 143/143/143
f 141/141/141 145/145/145 142/142/142
f 145/145/145 146/146/146 142/142/142
f 140/140/140 147/147/147 141/141/141
f 143/143/143 147/147/147 140/140/140
f 147/147/147 145/145/145 141/141/141
f 145/145/145 148/148/148 146/146/146
f 148/148/148 149/149/149 146/146/146
f 147/147/147 150/150/150 145/145/145
f 150/150/150 148/148/148 145/145/145
f 148/148/148 151/151/151 149/149/149
f 151/151/151 152/152/152 149/149/149
f 153/153/153 151/151/151 148/148/148
f 150/150/150 153/153/153 148/148/148
f 154/154/154 153/153/153 150/150/150
f 155/155/155 150/150/150 147/147/147
f 143/143/143 155/155/155 147/147/147
f 155/155/155 154/154/154 150/150/150
f 143/143/143 156/156/156 155/155/155
f 144/144/144 156/156/156 143/143/143
f 155/155/155 157/157/157 154/154/154
f 156/156/156 157/157/157 155/155/155
f 157/157/157 158/158/158 154/154/154
f 157/157/157 159/159/159 158/158/158
f 159/159/159 160/160/160 158/158/158
f 161/161/161 159/159/159 157/157/157
f 156/156/156 161/161/161 157/157/157
f 162/162/162 161/161/161 156/156/156
f 144/144/144 162/162/162 156/156/156
f 144/144/144 163/163/163 162/162/162
f 163/163/163 164/164/164 162/162/162
f 163/163/163 165/165/165 164/164/164
f 165/165/165 166/166/166 164/164/164
f 169/169/169 168/168/168 167/167/167
f 168/168/168 170/170/170 167/167/167
f 168/168/168 171/171/171 170/170/170
f 167/167/167 170/170/170 172/172/172
f 171/171/171 173/173/173 170/170/170
f 170/170/170 174/174/174 172/172/172
f 170/170/170 173/173/173 174/174/174
f 172/172/172 174/174/174 175/175/175
f 173/173/173 176/176/176 174/174/174
f 174/174/174 177/177/177 175/175/175
f 174/174/174 176/176/176 177/177/177
f 176/176/176 178/178/178 177/177/177
f 181/181/181 180/180/180 179/179/179
f 180/180/180 182/182/182 179/179/179
f 180/180/180 183/183/183 182/182/182
f 179/179/179 182/182/182 184/184/184
f 183/183/183 185/185/185 182/182/182
f 182/182/182 186/186/186 184/184/184
f 182/182/182 185/185/185 186/186/186
f 184/184/184 186/186/186 187/187/187
f 185/185/185 188/188/188 186/186/186
f 186/186/186 189/189/189 187/187/187
f 186/186/186 188/188/188 189/189/189
f 188/188/188 190/190/190 189/189/189
f 193/193/193 192/192/192 191/191/191
f 192/192/192 194/194/194 191/191/191
f 192/192/192 195/195/195 194/194/194
f 191/191/191 194/194/194 196/196/196
f 195/195/195 197/197/197 194/194/194
f 194/194/194 198/198/198 196/196/196
f 194/194/194 197/197/197 198/198/198
f 196/196/196 198/198/198 199/199/199
f 197/197/197 200/200/200 198/198/198
f 198/198/198 201/201/201 199/199/199
f 198/198/198 200/200/200 201/201/201
f 200/200/200 202/202/202 201/201/201
f 205/205/205 204/204/204 203/203/203
f 204/204/204 206/206/206 203/203/203
f 204/204/204 207/207/207 206/206/206
f 203/203/203 206/206/206 208/208/208
f 207/207/207 209/209/209 206/206/206
f 206/206/206 210/210/210 208/208/208
f 206/206/206 209/209/209 210/210/210
f 208/208/208 210/210/210 211/211/211
f 209/209/209 212/212/212 210/210/210
f 210/210/210 213/213/213 211/211/211
f 210/210/210 212/212/212 213/213/213
f 212/212/212 214/214/214 213/213/213
f 217/217/217 216/216/216 215/215/215
f 215/215/215 218/218/218 217/217/217
f 218/218/218 219/219/219 217/217/217
f 218/218/218 220/220/220 219/219/219
f 220/220/220 221/221/221 219/219/219
f 220/220/220 222/222/222 221/221/221
f 222/222/222 223/223/223 221/221/221
f 222/222/222 224/224/224 223/223/223
f 224/224/224 225/225/225 223/223/223
f 224/224/224 226/226/226 225/225/225
f 229/229/229 228/228/228 227/227/227
f 228/228/228 230/230/230 227/227/227
f 227/227/227 230/230/230 231/231/231
f 228/228/228 232/232/232 230/230/230
f 230/230/230 233/233/233 231/231/231
f 231/231/231 233/233/233 234/234/234
f 233/233/233 235/235/235 234/234/234
f 232/232/232 236/236/236 230/230/230
f 230/230/230 236/236/236 233/233/233
f 232/232/232 237/237/237 236/236/236
f 237/237/237 238/238/238 236/236/236
f 233/233/233 239/239/239 235/235/235
f 236/236/236 239/239/239 233/233/233
f 236/236/236 238/238/238 239/239/239
f 239/239/239 240/240/240 235/235/235
f 238/238/238 241/241/241 239/239/239
f 239/239/239 241/241/241 240/240/240
f 241/241/241 242/242/242 240/240/240
f 245/245/245 244/244/244 243/243/243
f 244/244/244 246/246/246 243/243/243
f 243/243/243 246/246/246 247/247/247
f 244/244/244 248/248/248 246/246/246
f 246/246/246 249/249/249 247/247/247
f 247/247/247 249/249/249 250/250/250
f 249/249/249 251/251/251 250/250/250
f 248/248/248 252/252/252 246/246/246
f 246/246/246 252/252/252 249/249/249
f 248/248/248 253/253/253 252/252/252
f 253/253/253 254/254/254 252/252/252
f 249/249/249 255/255/255 251/251/251
f 252/252/252 255/255/255 249/249/249
f 252/252/252 254/254/254 255/255/255
f 255/255/255 256/256/256 251/251/251
f 254/254/254 257/257/257 255/255/255
f 255/255/255 257/257/257 256/256/256
f 257/257/257 258/258/258 256/256/256
f 261/261/261 260/260/260 259/259/259
f 260/260/260 262/262/262 259/259/259
f 259/259/259 262/262/262 263/263/263
f 260/260/260 264/264/264 262/262/262
f 262/262/262 265/265/265 263/263/263
f 263/263/263 265/265/265 266/266/266
f 265/265/265 267/267/267 266/266/266
f 264/264/264 268/268/268 262/262/262
f 262/262/262 268/268/268 265/265/265
f 264/264/264 269/269/269 268/268/268
f 269/269/269 270/270/270 268/268/268
f 265/265/265 271/271/271 267/267/267
f 268/268/268 271/271/271 265/265/265
f 268/268/268 270/270/270 271/271/271
f 271/271/271 272/272/272 267/267/267
f 270/270/270 273/273/273 271/271/271
f 271/271/271 273/273/273 272/272/272
f 273/273/273 274/274/274 272/272/272
f 277/277/277 276/276/276 275/275/275
f 276/276/276 278/278/278 275/275/275
f 275/275/275 278/278/278 279/279/279
f 276/276/276 280/280/280 278/278/278
f 278/278/278 281/281/281 279/279/279
f 279/279/279 281/281/281 282/282/282
f 281/281/281 283/283/283 282/282/282
f 280/280/280 284/284/284 278/278/278
f 278/278/278 284/284/284 281/281/281
f 280/280/280 285/285/285 284/284/284
f 285/285/285 286/286/286 284/284/284
f 281/281/281 287/287/287 283/283/283
f 284/284/284 287/287/287 281/281/281
f 284/284/284 286/286/286 287/287/287
f 287/287/287 288/288/288 283/283/283
f 286/286/286 289/289/289 287/287/287
f 287/287/287 289/289/289 288/288/288
f 289/289/289 290/290/290 288/288/288
f 293/293/293 292/292/292 291/291/291
f 291/291/291 294/294/294 293/293/293
f 294/294/294 295/295/295 293/293/293
f 294/294/294 296/296/296 295/295/295
f 294/294/294 297/297/297 296/296/296
f 297/297/297 298/298/298 296/296/296
f 297/297/297 299/299/299 298/298/298
f 299/299/299 300/300/300 298/298/298
f 299/299/299 301/301/301 300/300/300
f 301/301/301 302/302/302 300/300/300
f 305/305/305 304/304/304 303/303/303
f 306/306/306 305/305/305 303/303/303
f 307/307/307 305/305/305 306/306/306
f 306/306/306 303/303/303 308/308/308
f 309/309/309 307/307/307 306/306/306
f 310/310/310 306/306/306 308/308/308
f 309/309/309 306/306/306 310/310/310
f 310/310/310 308/308/308 311/311/311
f 312/312/312 309/309/309 310/310/310
f 313/313/313 310/310/310 311/311/311
f 312/312/312 310/310/310 313/313/313
f 311/311/311 314/314/314 313/313/313
f 315/315/315 312/312/312 313/313/313
f 314/314/314 316/316/316 313/313/313
f 313/313/313 316/316/316 315/315/315
f 314/314/314 317/317/317 316/316/316
f 316/316/316 318/318/318 315/315/315
f 317/317/317 319/319/319 316/316/316
f 316/316/316 319/319/319 318/318/318
f 319/319/319 320/320/320 318/318/318
f 323/323/323 322/322/322 321/321/321
f 324/324/324 323/323/323 321/321/321
f 325/325/325 323/323/323 324/324/324
f 326/326/326 325/325/325 324/324/324
f 324/324/324 321/321/321 327/327/327
f 326/326/326 324/324/324 328/328/328
f 328/328/328 324/324/324 327/327/327
f 329/329/329 326/326/326 328/328/328
f 327/327/327 330/330/330 328/328/328
f 328/328/328 331/331/331 329/329/329
f 330/330/330 331/331/331 328/328/328
f 332/332/332 330/330/330 327/327/327
f 333/333/333 332/332/332 327/327/327
f 331/331/331 334/334/334 329/329/329
f 329/329/329 334/334/334 335/335/335
f 336/336/336 332/332/332 333/333/333
f 337/337/337 336/336/336 333/333/333
f 334/334/334 338/338/338 335/335/335
f 335/335/335 338/338/338 339/339/339
f 340/340/340 336/336/336 337/337/337
f 341/341/341 340/340/340 337/337/337
f 338/338/338 342/342/342 339/339/339
f 339/339/339 342/342/342 343/343/343
f 344/344/344 340/340/340 341/341/341
f 345/345/345 344/344/344 341/341/341
f 342/342/342 346/346/346 343/343/343
f 343/343/343 346/346/346 347/347/347
f 348/348/348 344/344/344 345/345/345
f 349/349/349 348/348/348 345/345/345
f 347/347/347 350/350/350 349/349/349
f 346/346/346 350/350/350 347/347/347
f 350/350/350 348/348/348 349/349/349
f 340/340/340 351/351/351 336/336/336
f 344/344/344 352/352/352 340/340/340
f 352/352/352 351/351/351 340/340/340
f 348/348/348 353/353/353 344/344/344
f 353/353/353 352/352/352 344/344/344
f 350/350/350 354/354/354 348/348/348
f 354/354/354 353/353/353 348/348/348
f 346/346/346 355/355/355 350/350/350
f 355/355/355 354/354/354 350/350/350
f 342/342/342 356/356/356 346/346/346
f 356/356/356 355/355/355 346/346/346
f 351/351/351 357/357/357 336/336/336
f 336/336/336 357/357/357 332/332/332
f 358/358/358 356/356/356 342/342/342
f 338/338/338 358/358/358 342/342/342
f 357/357/357 359/359/359 332/332/332
f 332/332/332 359/359/359 330/330/330
f 360/360/360 358/358/358 338/338/338
f 334/334/334 360/360/360 338/338/338
f 359/359/359 361/361/361 330/330/330
f 330/330/330 361/361/361 331/331/331
f 331/331/331 362/362/362 334/334/334
f 362/362/362 360/360/360 334/334/334
f 361/361/361 362/362/362 331/331/331
f 356/356/356 363/363/363 355/355/355
f 363/363/363 364/364/364 355/355/355
f 365/365/365 363/363/363 356/356/356
f 358/358/358 365/365/365 356/356/356
f 355/355/355 364/364/364 354/354/354
f 366/366/366 365/365/365 358/358/358
f 360/360/360 366/366/366 358/358/358
f 364/364/364 367/367/367 354/354/354
f 368/368/368 366/366/366 360/360/360
f 362/362/362 368/368/368 360/360/360
f 354/354/354 367/367/367 353/353/353
f 369/369/369 368/368/368 362/362/362
f 361/361/361 369/369/369 362/362/362
f 367/367/367 370/370/370 353/353/353
f 371/371/371 369/369/369 361/361/361
f 353/353/353 370/370/370 352/352/352
f 359/359/359 371/371/371 361/361/361
f 370/370/370 372/372/372 352/352/352
f 373/373/373 371/371/371 359/359/359
f 352/352/352 372/372/372 351/351/351
f 357/357/357 373/373/373 359/359/359
f 372/372/372 374/374/374 351/351/351
f 374/374/374 373/373/373 357/357/357
f 351/351/351 374/374/374 357/357/357
f 377/377/377 376/376/376 375/375/375
f 378/378/378 377/377/377 375/375/375
f 378/378/378 375/375/375 379/379/379
f 380/380/380 377/377/377 378/378/378
f 381/381/381 378/378/378 379/379/379
f 382/382/382 380/380/380 378/378/378
f 382/382/382 378/378/378 381/381/381
f 383/383/383 382/382/382 381/381/381
f 386/386/386 385/385/385 384/384/384
f 385/385/385 387/387/387 384/384/384
f 384/384/384 387/387/387 388/388/388
f 387/387/387 389/389/389 388/388/388
f 392/392/392 391/391/391 390/390/390
f 391/391/391 393/393/393 390/390/390
f 391/391/391 394/394/394 393/393/393
f 390/390/390 393/393/393 395/395/395
f 394/394/394 396/396/396 393/393/393
f 393/393/393 397/397/397 395/395/395
f 393/393/393 396/396/396 397/397/397
f 395/395/395 397/397/397 398/398/398
f 396/396/396 399/399/399 397/397/397
f 397/397/397 400/400/400 398/398/398
f 397/397/397 399/399/399 400/400/400
f 399/399/399 401/401/401 400/400/400
f 401/401/401 402/402/402 400/400/400
f 402/402/402 403/403/403 400/400/400
f 402/402/402 404/404/404 403/403/403
f 404/404/404 405/405/405 403/403/403
f 408/408/408 407/407/407 406/406/406
f 409/409/409 408/408/408 406/406/406
f 410/410/410 408/408/408 409/409/409
f 411/411/411 410/410/410 409/409/409
f 414/414/414 413/413/413 412/412/412
f 413/413/413 415/415/415 412/412/412
f 412/412/412 415/415/415 416/416/416
f 415/415/415 417/417/417 416/416/416
f 416/416/416 417/417/417 418/418/418
f 417/417/417 419/419/419 418/418/418
f 422/422/422 421/421/421 420/420/420
f 423/423/423 422/422/422 420/420/420
f 424/424/424 422/422/422 423/423/423
f 425/425/425 424/424/424 423/423/423
f 426/426/426 424/424/424 425/425/425
f 427/427/427 426/426/426 425/425/425
f 430/430/430 429/429/429 428/428/428
f 431/431/431 430/430/430 428/428/428
f 432/432/432 430/430/430 431/431/431
f 433/433/433 432/432/432 431/431/431
f 434/434/434 432/432/432 433/433/433
f 435/435/435 434/434/434 433/433/433
f 438/438/438 437/437/437 436/436/436
f 439/439/439 438/438/438 436/436/436
f 440/440/440 438/438/438 439/439/439
f 441/441/441 440/440/440 439/439/439
f 442/442/442 440/440/440 441/441/441
f 443/443/443 442/442/442 441/441/441
f 446/446/446 445/445/445 444/444/444
f 447/447/447 446/446/446 444/444/444
f 444/444/444 445/445/445 448/448/448
f 449/449/449 446/446/446 447/447/447
f 445/445/445 450/450/450 448/448/448
f 451/451/451 449/449/449 447/447/447
f 448/448/448 450/450/450 452/452/452
f 453/453/453 449/449/449 451/451/451
f 450/450/450 454/454/454 452/452/452
f 455/455/455 453/453/453 451/451/451
f 452/452/452 454/454/454 456/456/456
f 457/457/457 453/453/453 455/455/455
f 454/454/454 458/458/458 456/456/456
f 459/459/459 457/457/457 455/455/455
f 456/456/456 458/458/458 460/460/460
f 461/461/461 457/457/457 459/459/459
f 458/458/458 462/462/462 460/460/460
f 463/463/463 461/461/461 459/459/459
f 460/460/460 462/462/462 464/464/464
f 465/465/465 461/461/461 463/463/463
f 462/462/462 466/466/466 464/464/464
f 467/467/467 465/465/465 463/463/463
f 464/464/464 466/466/466 467/467/467
f 466/466/466 465/465/465 467/467/467
